<?xml version="1.0" encoding="UTF-8"?>
<svg id="Layer_1" data-name="Layer 1" xmlns="http://www.w3.org/2000/svg" version="1.1" viewBox="0 0 256 256">
  <defs>
    <style>
      .cls-1 {
        fill: #dadfe0;
      }

      .cls-1, .cls-2, .cls-3, .cls-4, .cls-5, .cls-6, .cls-7 {
        stroke-width: 0px;
      }

      .cls-2 {
        fill: #93a3a3;
      }

      .cls-3 {
        fill: #35495f;
      }

      .cls-4, .cls-7 {
        fill: #223140;
      }

      .cls-5 {
        fill: #d1d6d2;
      }

      .cls-6 {
        fill: #6c7a88;
      }

      .cls-7 {
        fill-rule: evenodd;
      }
    </style>
  </defs>
  <g id="Squircle">
    <path class="cls-7" d="M29.7,14.9s48.2-2.9,97.6-2.9,99.1,2.9,99.1,2.9c8.1,0,14.7,6.6,14.7,14.7,0,0,2.9,49.7,2.9,99.1s-2.9,97.6-2.9,97.6c0,8.1-6.6,14.7-14.7,14.7,0,0-50.2,2.9-99.1,2.9s-97.7-2.9-97.7-2.9c-8.1,0-14.7-6.6-14.7-14.7,0,0-2.9-49.5-2.9-98.8s2.9-97.9,2.9-97.9c.1-8.1,6.7-14.7,14.8-14.7Z"/>
  </g>
  <g id="Subsetting">
    <path class="cls-1" d="M150.4,108c0-3.5-.4-6.8-1.2-10l10.8-5.6c-2.3-7.2-5.5-15.4-10.4-20.8l-12.3,5.7c-4.8-4.6-10.7-8.1-17.3-10l-.9-10.1c-3.6-.8-7.2-1.2-11-1.2s-7.5.4-11,1.2l-.9,10.1c-6.6,1.9-12.5,5.4-17.3,10l-12.4-5.8c-5,5.4-8.1,13.6-10.4,20.8l10.8,5.6c-.8,3.2-1.2,6.6-1.2,10s.4,6.8,1.2,10l-10.8,5.6c2.3,7.2,5.4,15.4,10.4,20.8l12.4-5.7c4.8,4.6,10.7,8.1,17.3,10l.9,10.1c3.6.8,7.3,1.2,11,1.2s7.5-.4,11-1.2l.9-10.1c6.6-1.9,12.5-5.4,17.3-10l12.3,5.8c4.9-5.4,8.1-13.6,10.4-20.8l-10.8-5.6c.8-3.2,1.2-6.6,1.2-10Z"/>
  </g>
  <g id="Subsetting-2" data-name="Subsetting">
    <path class="cls-3" d="M193.8,169c0-2.1,0-4.2-.5-6.2l6.7-3.2c-1.2-4.5-2.9-9.6-5.8-13l-7.6,3.2c-2.8-3-6.3-5.2-10.3-6.6l-.3-6.3c-2.1-.6-4.4-.9-6.7-1-2.3,0-4.6,0-6.7.5l-.8,6.2c-4,1-7.7,3-10.8,5.7l-7.4-3.8c-3.1,3.2-5.3,8.2-6.8,12.5l6.4,3.7c-.5,2-.9,4-1,6.1s0,4.2.5,6.2l-6.7,3.2c1.2,4.5,2.9,9.6,5.8,13l7.6-3.2c2.8,3,6.3,5.2,10.3,6.6l.3,6.3c2.2.6,4.4.9,6.7,1s4.6,0,6.7-.5l.8-6.2c4.1-1,7.7-3,10.8-5.7l7.4,3.8c3.1-3.2,5.3-8.2,6.8-12.5l-6.4-3.7c.6-2,.9-4,1-6.1Z"/>
  </g>
  <circle class="cls-2" cx="108" cy="108" r="36"/>
  <circle class="cls-5" cx="108" cy="108" r="20"/>
  <circle class="cls-4" cx="108" cy="108" r="16"/>
  <circle class="cls-6" cx="168" cy="168" r="20"/>
  <circle class="cls-3" cx="168" cy="168" r="12"/>
  <circle class="cls-4" cx="168" cy="168" r="8"/>
</svg>