<?xml version="1.0" encoding="iso-8859-1"?>
<!-- Generator: Adobe Illustrator 26.3.1, SVG Export Plug-In . SVG Version: 6.00 Build 0)  -->
<svg version="1.1" id="Layer_1" xmlns="http://www.w3.org/2000/svg" xmlns:xlink="http://www.w3.org/1999/xlink" x="0px" y="0px"
	 viewBox="0 0 256 256" style="enable-background:new 0 0 256 256;" xml:space="preserve">
<polygon style="opacity:0.5;fill:#FFFFFF;" points="244,36 12,36 4,36 4,44 4,48 4,50 4,52 4,54 4,56 4,58 4,100 4,101.889 
	4.845,103.578 8,109.888 8,124 8,128 8,200 8,212 8,220 16,220 92,220 164,220 240,220 248,220 248,212 248,200 248,128 248,124 
	248,109.888 251.155,103.578 252,101.889 252,100 252,58 252,56 252,54 252,52 252,50 252,48 252,44 252,36 "/>
<g>
	<rect x="16" y="108" style="fill:#D1D6D2;" width="224" height="92"/>
</g>
<g>
	<polygon style="fill:#93A3A3;" points="44,124 44,120 32,120 32,124 16,124 16,128 32,128 44,128 240,128 240,124 	"/>
</g>
<g>
	<rect x="12" y="44" style="fill:#2B3E51;" width="232" height="56"/>
</g>
<g>
	<rect x="12" y="48" style="fill:#223140;" width="16" height="2"/>
</g>
<g>
	<rect x="12" y="52" style="fill:#223140;" width="16" height="2"/>
</g>
<g>
	<rect x="12" y="56" style="fill:#223140;" width="16" height="2"/>
</g>
<g>
	<rect x="228" y="48" style="fill:#223140;" width="16" height="2"/>
</g>
<g>
	<rect x="228" y="52" style="fill:#223140;" width="16" height="2"/>
</g>
<g>
	<rect x="228" y="56" style="fill:#223140;" width="16" height="2"/>
</g>
<g>
	<rect x="32" y="48" style="fill:#35495F;" width="74" height="12"/>
</g>
<g>
	<rect x="108" y="48" style="fill:#35495F;" width="22" height="12"/>
</g>
<g>
	<rect x="132" y="48" style="fill:#35495F;" width="22" height="12"/>
</g>
<g>
	<rect x="156" y="48" style="fill:#35495F;" width="22" height="12"/>
</g>
<g>
	<rect x="180" y="48" style="fill:#35495F;" width="22" height="12"/>
</g>
<g>
	<rect x="204" y="48" style="fill:#35495F;" width="22" height="12"/>
</g>
<g>
	<path style="fill:#6C7A88;" d="M112,48c-2.209,0-4,1.791-4,4s1.791,4,4,4s4-1.791,4-4S114.209,48,112,48L112,48z"/>
</g>
<path style="fill:#223140;" d="M112,50c1.103,0,2,0.897,2,2s-0.897,2-2,2s-2-0.897-2-2S110.897,50,112,50"/>
<g>
	<path style="fill:#6C7A88;" d="M136,48c-2.209,0-4,1.791-4,4s1.791,4,4,4s4-1.791,4-4S138.209,48,136,48L136,48z"/>
</g>
<path style="fill:#223140;" d="M136,50c1.103,0,2,0.897,2,2s-0.897,2-2,2s-2-0.897-2-2S134.897,50,136,50"/>
<g>
	<path style="fill:#6C7A88;" d="M160,48c-2.209,0-4,1.791-4,4s1.791,4,4,4s4-1.791,4-4S162.209,48,160,48L160,48z"/>
</g>
<path style="fill:#223140;" d="M160,50c1.103,0,2,0.897,2,2s-0.897,2-2,2s-2-0.897-2-2S158.897,50,160,50"/>
<g>
	<path style="fill:#6C7A88;" d="M184,48c-2.209,0-4,1.791-4,4s1.791,4,4,4s4-1.791,4-4S186.209,48,184,48L184,48z"/>
</g>
<path style="fill:#223140;" d="M184,50c1.103,0,2,0.897,2,2s-0.897,2-2,2s-2-0.897-2-2S182.897,50,184,50"/>
<g>
	<polygon style="fill:#35495F;" points="244,100 12,100 16,108 240,108 	"/>
</g>
<g>
	<rect x="16" y="200" style="fill:#DADFE0;" width="76" height="12"/>
</g>
<g>
	<rect x="164" y="200" style="fill:#DADFE0;" width="76" height="12"/>
</g>
<g>
	<rect x="92" y="200" style="fill:#BDC1C6;" width="72" height="12"/>
</g>
<g>
	<rect x="32" y="124" style="fill:#E94B36;" width="12" height="4"/>
</g>
<g>
	<rect x="224" y="124" style="fill:#ECECED;" width="8" height="4"/>
</g>
<g>
	<rect x="40" y="148" style="fill:#ECECED;" width="8" height="8"/>
</g>
<g>
	<rect x="52" y="148" style="fill:#ECECED;" width="8" height="8"/>
</g>
<g>
	<rect x="64" y="148" style="fill:#ECECED;" width="8" height="8"/>
</g>
<g>
	<rect x="76" y="148" style="fill:#ECECED;" width="8" height="8"/>
</g>
<g>
	<rect x="88" y="148" style="fill:#ECECED;" width="8" height="8"/>
</g>
<g>
	<rect x="100" y="148" style="fill:#ECECED;" width="8" height="8"/>
</g>
<g>
	<rect x="112" y="148" style="fill:#ECECED;" width="8" height="8"/>
</g>
<g>
	<rect x="124" y="148" style="fill:#ECECED;" width="8" height="8"/>
</g>
<g>
	<rect x="136" y="148" style="fill:#ECECED;" width="8" height="8"/>
</g>
<g>
	<rect x="148" y="148" style="fill:#ECECED;" width="8" height="8"/>
</g>
<g>
	<rect x="160" y="148" style="fill:#ECECED;" width="8" height="8"/>
</g>
<g>
	<rect x="172" y="148" style="fill:#ECECED;" width="8" height="8"/>
</g>
<g>
	<rect x="184" y="148" style="fill:#ECECED;" width="8" height="8"/>
</g>
<g>
	<rect x="196" y="148" style="fill:#ECECED;" width="8" height="8"/>
</g>
<g>
	<rect x="208" y="148" style="fill:#ECECED;" width="8" height="8"/>
</g>
<g>
	<rect x="40" y="172" style="fill:#ECECED;" width="8" height="8"/>
</g>
<g>
	<rect x="24" y="172" style="fill:#3394D1;" width="12" height="8"/>
</g>
<g>
	<rect x="52" y="172" style="fill:#ECECED;" width="8" height="8"/>
</g>
<g>
	<rect x="64" y="172" style="fill:#ECECED;" width="8" height="8"/>
</g>
<g>
	<rect x="76" y="172" style="fill:#ECECED;" width="8" height="8"/>
</g>
<g>
	<rect x="88" y="172" style="fill:#ECECED;" width="8" height="8"/>
</g>
<g>
	<rect x="100" y="172" style="fill:#ECECED;" width="8" height="8"/>
</g>
<g>
	<rect x="112" y="172" style="fill:#ECECED;" width="8" height="8"/>
</g>
<g>
	<rect x="124" y="172" style="fill:#ECECED;" width="8" height="8"/>
</g>
<g>
	<rect x="136" y="172" style="fill:#ECECED;" width="8" height="8"/>
</g>
<g>
	<rect x="148" y="172" style="fill:#ECECED;" width="8" height="8"/>
</g>
<g>
	<rect x="160" y="172" style="fill:#ECECED;" width="8" height="8"/>
</g>
<g>
	<rect x="172" y="172" style="fill:#ECECED;" width="8" height="8"/>
</g>
<g>
	<rect x="184" y="172" style="fill:#ECECED;" width="8" height="8"/>
</g>
<g>
	<rect x="196" y="172" style="fill:#ECECED;" width="8" height="8"/>
</g>
<g>
	<rect x="208" y="172" style="fill:#ECECED;" width="8" height="8"/>
</g>
<g>
	<rect x="48" y="184" style="fill:#ECECED;" width="8" height="8"/>
</g>
<g>
	<rect x="24" y="184" style="fill:#ECECED;" width="20" height="8"/>
</g>
<g>
	<rect x="60" y="184" style="fill:#ECECED;" width="8" height="8"/>
</g>
<g>
	<rect x="72" y="184" style="fill:#ECECED;" width="8" height="8"/>
</g>
<g>
	<rect x="84" y="184" style="fill:#ECECED;" width="8" height="8"/>
</g>
<g>
	<rect x="96" y="184" style="fill:#ECECED;" width="8" height="8"/>
</g>
<g>
	<rect x="108" y="184" style="fill:#ECECED;" width="8" height="8"/>
</g>
<g>
	<rect x="120" y="184" style="fill:#ECECED;" width="8" height="8"/>
</g>
<g>
	<rect x="132" y="184" style="fill:#ECECED;" width="8" height="8"/>
</g>
<g>
	<rect x="144" y="184" style="fill:#ECECED;" width="8" height="8"/>
</g>
<g>
	<rect x="156" y="184" style="fill:#ECECED;" width="8" height="8"/>
</g>
<g>
	<rect x="168" y="184" style="fill:#ECECED;" width="8" height="8"/>
</g>
<g>
	<rect x="180" y="184" style="fill:#ECECED;" width="8" height="8"/>
</g>
<g>
	<rect x="192" y="184" style="fill:#ECECED;" width="8" height="8"/>
</g>
<g>
	<rect x="204" y="184" style="fill:#ECECED;" width="8" height="8"/>
</g>
<g>
	<rect x="216" y="184" style="fill:#ECECED;" width="16" height="8"/>
</g>
<g>
	<rect x="204" y="160" style="fill:#ECECED;" width="8" height="8"/>
</g>
<g>
	<rect x="192" y="160" style="fill:#ECECED;" width="8" height="8"/>
</g>
<g>
	<rect x="180" y="160" style="fill:#ECECED;" width="8" height="8"/>
</g>
<g>
	<rect x="168" y="160" style="fill:#ECECED;" width="8" height="8"/>
</g>
<g>
	<rect x="156" y="160" style="fill:#ECECED;" width="8" height="8"/>
</g>
<g>
	<rect x="144" y="160" style="fill:#ECECED;" width="8" height="8"/>
</g>
<g>
	<rect x="132" y="160" style="fill:#ECECED;" width="8" height="8"/>
</g>
<g>
	<rect x="120" y="160" style="fill:#ECECED;" width="8" height="8"/>
</g>
<g>
	<rect x="108" y="160" style="fill:#ECECED;" width="8" height="8"/>
</g>
<g>
	<rect x="96" y="160" style="fill:#ECECED;" width="8" height="8"/>
</g>
<g>
	<rect x="84" y="160" style="fill:#ECECED;" width="8" height="8"/>
</g>
<g>
	<rect x="72" y="160" style="fill:#ECECED;" width="8" height="8"/>
</g>
<g>
	<rect x="60" y="160" style="fill:#ECECED;" width="8" height="8"/>
</g>
<g>
	<rect x="48" y="160" style="fill:#ECECED;" width="8" height="8"/>
</g>
<g>
	<rect x="36" y="160" style="fill:#ECECED;" width="8" height="8"/>
</g>
<g>
	<rect x="24" y="160" style="fill:#3394D1;" width="8" height="8"/>
</g>
<g>
	<rect x="172" y="136" style="fill:#48B66A;" width="8" height="8"/>
</g>
<g>
	<rect x="184" y="136" style="fill:#48B66A;" width="8" height="8"/>
</g>
<g>
	<rect x="148" y="136" style="fill:#48B66A;" width="8" height="8"/>
</g>
<g>
	<rect x="160" y="136" style="fill:#48B66A;" width="8" height="8"/>
</g>
<g>
	<rect x="208" y="136" style="fill:#3394D1;" width="8" height="8"/>
</g>
<g>
	<rect x="224" y="136" style="fill:#3394D1;" width="8" height="8"/>
</g>
<g>
	<rect x="224" y="148" style="fill:#3394D1;" width="8" height="8"/>
</g>
<g>
	<rect x="220" y="160" style="fill:#3394D1;" width="12" height="20"/>
</g>
<g>
	<polygon style="fill:#6C7A88;" points="96,60 92,60 96,48 100,48 	"/>
</g>
<g>
	<polygon style="fill:#6C7A88;" points="90,60 86,60 90,48 94,48 	"/>
</g>
<g>
	<rect x="204" y="50" style="fill:#6C7A88;" width="8" height="4"/>
</g>
</svg>
