<svg height="192" viewBox="0 0 309.33331 192" width="309.33331" xmlns="http://www.w3.org/2000/svg" xmlns:xlink="http://www.w3.org/1999/xlink"><clipPath id="a"><path d="m0 256h256v-256h-256z"/></clipPath><g clip-path="url(#a)" fill="#fff" transform="matrix(1.3333333 0 0 -1.3333333 -16 266.66666)"><path d="m240 60h-224v136h224zm2 140h-228c-1.105 0-2-.895-2-2v-140c0-1.105.895-2 2-2h228c1.105 0 2 .895 2 2v140c0 1.105-.895 2-2 2"/><path d="m136 72h-112v12h112zm-112 52h112v-36h-112zm0 40h112v-36h-112zm-2.033-96h116.066c1.086 0 1.967.881 1.967 1.967v14.033 4 36 4 38.033c0 1.086-.881 1.967-1.967 1.967h-116.066c-1.086 0-1.967-.881-1.967-1.967v-38.033-4-36-4-14.033c0-1.086.881-1.967 1.967-1.967"/><path d="m0 0v10.366c0-1.306 1.06-2.366 2.366-2.366h79.268c1.306 0 2.366 1.06 2.366 2.366v-10.366zm84-8h-84v4h84zm0-8h-84v4h84zm0-8h-84v4h84zm0-8h-84v4h84zm0-8h-84v4h84zm0-8h-84v4h84zm0-16h-84v12h84zm-4 76h-76v8h76zm-80 16h84v-6.366c0 1.307-1.06 2.366-2.366 2.366h-79.268c-1.306 0-2.366-1.059-2.366-2.366zm86.277 4h-88.554c-.952 0-1.723-.771-1.723-1.723v-30.277-4-4-4-4-4-4-4-4-4-4-4-4-4-14.277c0-.952.771-1.723 1.723-1.723h88.554c.952 0 1.723.771 1.723 1.723v14.277 4 4 4 4 4 4 4 4 4 4 4 4 4 30.277c0 .952-.771 1.723-1.723 1.723" transform="translate(148 136)"/><path d="m24 188h208v-4h-208zm-2.018-8h212.036c1.095 0 1.982.887 1.982 1.982v8.036c0 1.095-.887 1.982-1.982 1.982h-212.036c-1.095 0-1.982-.887-1.982-1.982v-8.036c0-1.095.887-1.982 1.982-1.982"/><path d="m48 152h-8v4h8zm0-8h-8v4h8zm-12 8v-4-8h16v8 4 8h-16z"/><path d="m72 152h-8v4h8zm0-8h-8v4h8zm-12 8v-4-8h16v8 4 8h-16z"/><path d="m96 152h-8v4h8zm0-8h-8v4h8zm-12 8v-4-8h16v8 4 8h-16z"/><path d="m112 156h8v-4h-8zm8-12h-8v4h8zm-12 16v-8-4-8h16v8 4 8z"/></g></svg>