<svg height="240" viewBox="0 0 309.33331 240" width="309.33331" xmlns="http://www.w3.org/2000/svg" xmlns:xlink="http://www.w3.org/1999/xlink"><clipPath id="a"><path d="m0 256h256v-256h-256z"/></clipPath><g clip-path="url(#a)" fill="#fff" transform="matrix(1.3333333 0 0 -1.3333333 -16 293.33333)"><path d="m240 44h-224v172h224zm0 176h-224c-2.209 0-4-1.791-4-4v-176h232v176c0 2.209-1.791 4-4 4"/><path d="m0 0h-200v92h56.015c-.002-.051-.015-.099-.015-.151v-47.698c0-2.293 1.858-4.151 4.151-4.151h79.698c2.293 0 4.151 1.858 4.151 4.151v47.698c0 .052-.013.1-.015.151h56.015zm-60.151 44.151h-79.698v47.698h79.698zm64.151 47.849c0 2.209-1.791 4-4 4h-60.151-79.698-60.151c-2.209 0-4-1.791-4-4v-96h208z" transform="translate(228 108)"/></g></svg>