<svg height="192" viewBox="0 0 320 192" width="320" xmlns="http://www.w3.org/2000/svg" xmlns:xlink="http://www.w3.org/1999/xlink"><clipPath id="a"><path d="m0 256h256v-256h-256z"/></clipPath><g clip-path="url(#a)" transform="matrix(1.3333333 0 0 -1.3333333 -10.666666 266.66666)"><path d="m0 0h-232v72h1.142 18.623l-3.765-64h44 4 88 4 60l-3.765 64h18.623 1.142zm-168 20h8 4 8 4 8 4 8 4 8 4 8 4 8 4 4v-8h-88zm-42.581 12h2.581v-8-4h4 8 4 8 4 8v-8h-39.758zm2.581 36v-8h-.934l.706 12h.228zm160-8v8h12v-8h-4-4zm-4-16h8v-8h-4-4zm-8-12h4 4v-8h-8zm-12 0h4 4v-8h-8zm-12 0h4 4v-8h-4-4zm-12 0h4 4v-8h-8zm-12 0h4 4v-8h-8zm-12 0h4 4v-8h-8zm-12 0h4 4v-8h-8zm-12 0h4 4v-8h-8zm-12 0h4 4v-8h-8zm-12 0h4 4v-8h-8zm-12 0h4 4v-8h-8zm-12 0h4 4v-8h-8zm-12 0h4 4v-8h-8zm-4 12h8v-8h-4-4zm8 12v-8h-8v8h4zm4 4h-4-4v8h8zm12 0h-4-4v8h8zm12 0h-4-4v8h8zm12 0h-4-4v8h8zm12 0h-4-4v8h8zm12 0h-4-4v8h8zm12 0h-4-4v8h8zm12 0h-4-4v8h8zm12 0h-4-4v8h8zm12 0h-4-4v8h8zm12 0h-4-4v8h8zm12 0h-4-4v8h8zm-12-16h8v-8h-4-4zm-12 0h8v-8h-4-4zm-12 0h8v-8h-4-4zm-12 0h8v-8h-4-4zm-12 0h8v-8h-4-4zm-12 0h8v-8h-4-4zm-12 0h8v-8h-4-4zm-12 0h8v-8h-4-4zm-12 0h8v-8h-4-4zm-12 0h8v-8h-4-4zm8 4h-8v8h4 4zm12 0h-8v8h4 4zm12 0h-8v8h4 4zm12 0h-8v8h4 4zm12 0h-8v8h4 4zm12 0h-8v8h4 4zm12 0h-8v8h4 4zm12 0h-8v8h4 4zm12 0h-8v8h4 4zm12 0h-8v8h4 4zm-128 8h4 4v-8h-8zm0-12h8v-8h-4-4zm140-8h-4-4v8h8zm0 12h-8v8h4 4zm4 12h-4-4v8h8zm8-12h-8v8h4 4zm23.758-36h-55.758v8h4 8 4 8 4v4 8h4 4v4 8 4 8h4 4v4 8 4h8.228zm-203.758 124h216l7.849-58.868c.08-.599-.386-1.132-.991-1.132h-18.858-192-18.858c-.605 0-1.071.533-.991 1.132zm227.814-58.339-7.849 58.868-.463 3.471h-3.502-216-3.502l-.463-3.471-7.849-58.868c-.074-.559-.186-1.661-.186-1.661v-4-72-4h4 232 4v4 72 4s-.111 1.101-.186 1.661" fill="#fff" transform="translate(244 60)"/></g></svg>