<svg height="240" viewBox="0 0 320 240" width="320" xmlns="http://www.w3.org/2000/svg" xmlns:xlink="http://www.w3.org/1999/xlink"><clipPath id="a"><path d="m0 256h256v-256h-256z"/></clipPath><g fill="#fff" transform="matrix(1.3333333 0 0 -1.3333333 -10.666666 287.99999)"><path d="m0 0h-4-232-4v-4-104-4h4 232 4v4 104zm-4-108h-232v104h232z" transform="translate(248 148)"/><path d="m0 0h-4-216-4v-4-76-4h4 216 4v4 76zm-4-80h-216v76h216z" transform="translate(240 128)"/><path d="m0 0h-232l-4-72h240zm-3.784-4 3.556-64h-231.544l3.556 64z" transform="translate(244 216)"/><path d="m0 0h-4-216-4v-4-8-4h4 216 4v4 8zm-4-12h-216v8h216z" transform="translate(240 140)"/><path d="m0 0h-4-8-4v-4-8-4h4 8 4v4 8zm-4-12h-8v8h8z" transform="translate(88 128)"/><path d="m0 0h-4-8-4v-4-8-4h4 8 4v4 8zm-4-12h-8v8h8z" transform="translate(100 128)"/><path d="m0 0h-4-8-4v-4-8-4h4 8 4v4 8zm-4-12h-8v8h8z" transform="translate(112 128)"/><path d="m0 0h-4-8-4v-4-8-4h4 8 4v4 8zm-4-12h-8v8h8z" transform="translate(124 128)"/><path d="m0 0h-4-8-4v-4-8-4h4 8 4v4 8zm-4-12h-8v8h8z" transform="translate(136 128)"/><path d="m0 0h-4-8-4v-4-8-4h4 8 4v4 8zm-4-12h-8v8h8z" transform="translate(148 128)"/><path d="m0 0h-4-8-4v-4-8-4h4 8 4v4 8zm-4-12h-8v8h8z" transform="translate(160 128)"/><path d="m0 0h-4-8-4v-4-8-4h4 8 4v4 8zm-4-12h-8v8h8z" transform="translate(172 128)"/><path d="m0 0h-4-8-4v-4-8-4h4 8 4v4 8zm-4-12h-8v8h8z" transform="translate(184 128)"/><path d="m0 0h-4-8-4v-4-8-4h4 8 4v4 8zm-4-12h-8v8h8z" transform="translate(196 128)"/><path d="m0 0h-4-8-4v-4-8-4h4 8 4v4 8zm-4-12h-8v8h8z" transform="translate(60 116)"/><path d="m0 0h-4-8-4v-4-8-4h4 8 4v4 8zm-4-12h-8v8h8z" transform="translate(56 92)"/><path d="m0 0h-4-8-4v-4-8-4h4 8 4v4 8zm-4-12h-8v8h8z" transform="translate(88 80)"/><path d="m0 0h-4-8-4v-4-8-4h4 8 4v4 8zm-4-12h-8v8h8z" transform="translate(100 80)"/><path d="m0 0h-4-88-4v-4-8-4h4 88 4v4 8zm-4-12h-88v8h88z" transform="translate(176 68)"/><path d="m0 0h-4-8-4v-4-8-4h4 8 4v4 8zm-4-12h-8v8h8z" transform="translate(112 80)"/><path d="m0 0h-4-8-4v-4-8-4h4 8 4v4 8zm-4-12h-8v8h8z" transform="translate(124 80)"/><path d="m0 0h-4-8-4v-4-8-4h4 8 4v4 8zm-4-12h-8v8h8z" transform="translate(136 80)"/><path d="m0 0h-4-8-4v-4-8-4h4 8 4v4 8zm-4-12h-8v8h8z" transform="translate(148 80)"/><path d="m0 0h-4-8-4v-4-8-4h4 8 4v4 8zm-4-12h-8v8h8z" transform="translate(160 80)"/><path d="m0 0h-4-8-4v-4-8-4h4 8 4v4 8zm-4-12h-8v8h8z" transform="translate(172 80)"/><path d="m0 0h-4-8-4v-4-8-4h4 8 4v4 8zm-4-12h-8v8h8z" transform="translate(184 80)"/><path d="m0 0h-4-12-4v-4-8-4h4 12 4v4 8zm-4-12h-12v8h12z" transform="translate(200 80)"/><path d="m0 0h-4-8-4v-4-8-4h4 8 4v4 8zm-4-12h-8v8h8z" transform="translate(212 80)"/><path d="m0 0h-4-8-4v-4-8-4h4 8 4v4 8zm-4-12h-8v8h8z" transform="translate(224 80)"/><path d="m0 0h-4-16-4v-4-8-4h4 16 4v4 8zm-4-12h-16v8h16z" transform="translate(76 80)"/><path d="m0 0h-4-8-4v-4-8-4h4 8 4v4 8zm-4-12h-8v8h8z" transform="translate(68 92)"/><path d="m0 0h-4-8-4v-4-8-4h4 8 4v4 8zm-4-12h-8v8h8z" transform="translate(80 92)"/><path d="m0 0h-4-8-4v-4-8-4h4 8 4v4 8zm-4-12h-8v8h8z" transform="translate(92 92)"/><path d="m0 0h-4-8-4v-4-8-4h4 8 4v4 8zm-4-12h-8v8h8z" transform="translate(104 92)"/><path d="m0 0h-4-8-4v-4-8-4h4 8 4v4 8zm-4-12h-8v8h8z" transform="translate(116 92)"/><path d="m0 0h-4-8-4v-4-8-4h4 8 4v4 8zm-4-12h-8v8h8z" transform="translate(128 92)"/><path d="m0 0h-4-8-4v-4-8-4h4 8 4v4 8zm-4-12h-8v8h8z" transform="translate(140 92)"/><path d="m0 0h-4-8-4v-4-8-4h4 8 4v4 8zm-4-12h-8v8h8z" transform="translate(152 92)"/><path d="m0 0h-4-8-4v-4-8-4h4 8 4v4 8zm-4-12h-8v8h8z" transform="translate(164 92)"/><path d="m0 0h-4-8-4v-4-8-4h4 8 4v4 8zm-4-12h-8v8h8z" transform="translate(176 92)"/><path d="m0 0h-4-8-4v-4-8-4h4 8 4v4 8zm-4-12h-8v8h8z" transform="translate(188 92)"/><path d="m0 0h-4-8-4v-4-8-4h4 8 4v4 8zm-4-12h-8v8h8z" transform="translate(200 92)"/><path d="m0 0h-4-20-4v-4-8-4h4 20 4v4 8zm-4-12h-20v8h20z" transform="translate(224 92)"/><path d="m0 0h-4-12-4v-4-8-4h4 12 4v4 8zm-4-12h-12v8h12z" transform="translate(64 104)"/><path d="m0 0h-4-8-4v-4-8-4h4 8 4v4 8zm-4-12h-8v8h8z" transform="translate(72 116)"/><path d="m0 0h-4-8-4v-4-8-4h4 8 4v4 8zm-4-12h-8v8h8z" transform="translate(76 104)"/><path d="m0 0h-4-8-4v-4-8-4h4 8 4v4 8zm-4-12h-8v8h8z" transform="translate(88 104)"/><path d="m0 0h-4-8-4v-4-8-4h4 8 4v4 8zm-4-12h-8v8h8z" transform="translate(100 104)"/><path d="m0 0h-4-8-4v-4-8-4h4 8 4v4 8zm-4-12h-8v8h8z" transform="translate(112 104)"/><path d="m0 0h-4-8-4v-4-8-4h4 8 4v4 8zm-4-12h-8v8h8z" transform="translate(124 104)"/><path d="m0 0h-4-8-4v-4-8-4h4 8 4v4 8zm-4-12h-8v8h8z" transform="translate(136 104)"/><path d="m0 0h-4-8-4v-4-8-4h4 8 4v4 8zm-4-12h-8v8h8z" transform="translate(148 104)"/><path d="m0 0h-4-8-4v-4-8-4h4 8 4v4 8zm-4-12h-8v8h8z" transform="translate(160 104)"/><path d="m0 0h-4-8-4v-4-8-4h4 8 4v4 8zm-4-12h-8v8h8z" transform="translate(172 104)"/><path d="m0 0h-4-8-4v-4-8-4h4 8 4v4 8zm-4-12h-8v8h8z" transform="translate(184 104)"/><path d="m0 0h-4-8-4v-4-8-4h4 8 4v4 8zm-4-12h-8v8h8z" transform="translate(196 104)"/><path d="m0 0h-4-8-4v-4-8-4h4 8 4v4 8zm-4-12h-8v8h8z" transform="translate(208 104)"/><path d="m0 0h-4-8-4v-4-8-4h4 8 4v4 8zm-4-12h-8v8h8z" transform="translate(220 104)"/><path d="m0 0h-4-8-4v-4-8-4h4 8 4v4 8zm-4-12h-8v8h8z" transform="translate(232 104)"/><path d="m0 0h-4-8-4v-4-8-4h4 8 4v4 8zm-4-12h-8v8h8z" transform="translate(84 116)"/><path d="m0 0h-4-8-4v-4-8-4h4 8 4v4 8zm-4-12h-8v8h8z" transform="translate(96 116)"/><path d="m0 0h-4-8-4v-4-8-4h4 8 4v4 8zm-4-12h-8v8h8z" transform="translate(108 116)"/><path d="m0 0h-4-8-4v-4-8-4h4 8 4v4 8zm-4-12h-8v8h8z" transform="translate(120 116)"/><path d="m0 0h-4-8-4v-4-8-4h4 8 4v4 8zm-4-12h-8v8h8z" transform="translate(132 116)"/><path d="m0 0h-4-8-4v-4-8-4h4 8 4v4 8zm-4-12h-8v8h8z" transform="translate(144 116)"/><path d="m0 0h-4-8-4v-4-8-4h4 8 4v4 8zm-4-12h-8v8h8z" transform="translate(156 116)"/><path d="m0 0h-4-8-4v-4-8-4h4 8 4v4 8zm-4-12h-8v8h8z" transform="translate(168 116)"/><path d="m0 0h-4-8-4v-4-8-4h4 8 4v4 8zm-4-12h-8v8h8z" transform="translate(180 116)"/><path d="m0 0h-4-8-4v-4-8-4h4 8 4v4 8zm-4-12h-8v8h8z" transform="translate(192 116)"/><path d="m0 0h-4-8-4v-4-8-4h4 8 4v4 8zm-4-12h-8v8h8z" transform="translate(204 116)"/><path d="m0 0h-4-8-4v-4-8-4h4 8 4v4 8zm-4-12h-8v8h8z" transform="translate(216 116)"/><path d="m0 0h-4-8-4v-4-8-4h4 8 4v4 8zm-4-12h-8v8h8z" transform="translate(228 116)"/><g clip-path="url(#a)"><path d="m0 0c0-1.105-.895-2-2-2s-2 .895-2 2 .895 2 2 2 2-.895 2-2" transform="translate(52 54)"/><path d="m0 0c0-1.105-.895-2-2-2s-2 .895-2 2 .895 2 2 2 2-.895 2-2" transform="translate(76 54)"/><path d="m0 0c0-1.105-.895-2-2-2s-2 .895-2 2 .895 2 2 2 2-.895 2-2" transform="translate(64 54)"/></g></g></svg>