<svg height="320" viewBox="0 0 320 320" width="320" xmlns="http://www.w3.org/2000/svg" xmlns:xlink="http://www.w3.org/1999/xlink"><clipPath id="a"><path d="m0 256h256v-256h-256z"/></clipPath><g clip-path="url(#a)" fill="#fff" transform="matrix(1.3333333 0 0 -1.3333333 -10.6668 330.66666)"><path d="m0 0c-4.411 0-8 3.589-8 8v32c0 4.411 3.589 8 8 8s8-3.589 8-8v-32c0-4.411-3.589-8-8-8m42 87.5c-1.103 0-2 .897-2 2s.897 2 2 2 2-.897 2-2-.897-2-2-2m-42-11.5c-15.439 0-28 12.561-28 28s12.561 28 28 28 28-12.561 28-28-12.561-28-28-28m111.857 148h-223.714c-4.49 0-8.143-3.653-8.143-8.143v-223.714c0-4.49 3.653-8.143 8.143-8.143h79.857 4v4-4h4 48 4v4-4h4 79.857c4.49 0 8.143 3.653 8.143 8.143v163.857 4h-4-.143.143 4v4 51.857c0 4.49-3.653 8.143-8.143 8.143m-111.857-228c6.648 0 12 5.352 12 12v32c0 6.648-5.352 12-12 12s-12-5.352-12-12v-32c0-6.648 5.352-12 12-12m42 87.5c3.314 0 6 2.686 6 6s-2.686 6-6 6-6-2.686-6-6 2.686-6 6-6m-42-11.5c17.673 0 32 14.327 32 32s-14.327 32-32 32-32-14.327-32-32 14.327-32 32-32m111.857 148c2.295 0 4.143-1.848 4.143-4.143v-51.857h-4.143v-8h4.143v-163.857c0-2.295-1.848-4.143-4.143-4.143h-79.857c0 2.288-1.712 4.143-4 4.143s-4-1.855-4-4.143h-48c0 2.288-1.712 4.143-4 4.143s-4-1.855-4-4.143h-79.857c-2.295 0-4.143 1.848-4.143 4.143v223.714c0 2.295 1.848 4.143 4.143 4.143z" transform="translate(128.0001 24)"/><path d="m0 0h-134.615c-3.753 0-6.693-3.514-6.693-8v-48c0-4.486 2.94-8 6.693-8h134.615c3.753 0 6.692 3.514 6.692 8v48c0 4.486-2.939 8-6.692 8m0-4c1.487 0 2.692-1.791 2.692-4v-48c0-2.209-1.205-4-2.692-4h-134.615c-1.487 0-2.693 1.791-2.693 4v48c0 2.209 1.206 4 2.693 4z" transform="translate(157.3077 240)"/></g></svg>