<svg height="250.66666" viewBox="0 0 320.10666 250.66665" width="320.10666" xmlns="http://www.w3.org/2000/svg" xmlns:xlink="http://www.w3.org/1999/xlink"><clipPath id="a"><path d="m0 256h256v-256h-256z"/></clipPath><g fill="#fff" transform="matrix(1.3333333 0 0 -1.3333333 -10.613333 293.33333)"><path d="m0 0v-8h-8-24-8v8 8h8 24 8zm-40 12h-4v-4-16-4h4 40 4v4 16 4h-4z" transform="translate(224 148)"/><g clip-path="url(#a)"><path d="m0 0c-2.209 0-4 1.791-4 4s1.791 4 4 4 4-1.791 4-4-1.791-4-4-4m8 4c0 4.411-3.589 8-8 8s-8-3.589-8-8 3.589-8 8-8 8 3.589 8 8" transform="translate(192 144)"/><path d="m0 0c-2.209 0-4 1.791-4 4s1.791 4 4 4 4-1.791 4-4-1.791-4-4-4m0 12c-4.411 0-8-3.589-8-8s3.589-8 8-8 8 3.589 8 8-3.589 8-8 8" transform="translate(216 144)"/><path d="m196 180h-8v-4h8z"/><path d="m0 0c1.105 0 2 .895 2 2s-.895 2-2 2-2-.895-2-2 .895-2 2-2" transform="translate(202 176)"/><path d="m68 140h20v4h-20z"/><path d="m92 140h20v4h-20z"/><path d="m0 0v-60h-112v4 8h4 8 4 8 4v4 8 4 8 4 8 4h-4-8-4-8-4-8-4-8-4-8-4-8-4-8-4-8-4-8-4-8-4-8-4v-4-8h-4v20l-4 8h4 148 4 4v-4-4h4 8 4 8 4 8 4 8 4 8 4v4 4h4 4zm-212-24v-8h-4-4v8h4zm4 4h-4-4v8h8zm12 0h-4-4v8h8zm12 0h-4-4v8h8zm12 0h-4-4v8h8zm12 0h-4-4v8h8zm12 0h-4-4v8h8zm12 0h-4-4v8h8zm12 0h-4-4v8h8zm12 0h-4-4v8h8zm12 0h-4-4v8h8zm4-16h8v-8h-8zm-12 0h4 4v-8h-8zm-12-8v8h4 4v-8h-4zm-72 8h4 4v-8h-4-4zm-12 0h4 4v-8h-8zm16 4h-4-4v8h4 4zm12 0h-4-4v8h4 4zm12 0h-4-4v8h4 4zm12 0h-4-4v8h4 4zm12 0h-4-4v8h4 4zm12 0h-4-4v8h4 4zm-16-4h4 4v-8h-8zm-12 0h4 4v-8h-8zm-12 0h4 4v-8h-8zm-12 0h4 4v-8h-8zm56-8h-8v8h4 4zm8 12h-4-4v8h4 4zm12 0h-4-4v8h4 4zm-104 8h4 4v-8h-4-4zm-8-12h4 4v-8h-8zm100-20h-72v8h4 4 8 4 8 4 8 4 8 4 8 4 4zm28 24h-8-4v8h4 8zm0 12h-8v8h8zm-136-40v24h4v-8-4h4 8 4 8 4v-8-4zm40 164v16h4v-4-4-4-4-4h-4-36-4-.167l.167 4zm86-28c6.617 0 12 5.383 12 12 0 3.075-1.172 5.874-3.081 8h5.081v-48h-28v48h5.081c-1.909-2.126-3.081-4.925-3.081-8 0-6.617 5.383-12 12-12m8 12c0-4.411-3.589-8-8-8s-8 3.589-8 8 3.589 8 8 8 8-3.589 8-8m-86-20h52v-28h-52zm56-32h32v-16h-124v16h32 4 52zm-4 40h-52v28h52zm-52 40h52v-4h-52zm-8-72v52h4v-20-4-4-28h-32-4v-4-16-4h4 124 4v4 16 4h-4-32v28 4 4 20h4v-52h36v52h4v-84h-148v84h4v-52zm-18 32c6.617 0 12 5.383 12 12 0 3.075-1.172 5.874-3.081 8h5.081v-48h-28v48h5.081c-1.909-2.126-3.081-4.925-3.081-8 0-6.617 5.383-12 12-12m8 12c0-4.411-3.589-8-8-8s-8 3.589-8 8 3.589 8 8 8 8-3.589 8-8m186-12h-56v20h56zm-56-8h56v-36h-56zm8-48v-12-4h-8v4 12zm12 0v-12-4h-8v4 12zm12 0v-12-4h-8v4 12zm12 0v-12-4h-8v4 12zm12 0v-12-4h-8v4 12zm0 4h-8-4-8-4-8-4-8-4-8-4v-4-8h-4v84h4v-20-4-4-36-4h4 56 4v4 22l4-42h-4v8 4zm-108 96v-16h116l3.69-88.551-7.69 80.741v3.81h-.363-3.637-56-4-4-4-4-36-4v4 4 4 4 4zm123.997-111.833-4 96-.16 3.833h-3.837-112v12 4h-4-68-4v-4-12h-36-3.837l-.16-3.833-4-96-.043-1.032.462-.924 3.578-7.155v-59.056-4h4 224 4v4 59.056l3.578 7.155.462.924z" transform="translate(240 96)"/><path d="m228 52h-52v32h52zm-52 36h-4v-4-32-4h4 52 4v4 32 4h-4z"/><path d="m184 80h-4v-24h4z"/><path d="m192 80h-4v-24h4z"/><path d="m200 80h-4v-24h4z"/><path d="m208 80h-4v-24h4z"/><path d="m216 80h-4v-24h4z"/><path d="m224 80h-4v-24h4z"/></g></g></svg>