<svg height="186.66666" viewBox="0 0 320.001 186.66665" width="320.00101" xmlns="http://www.w3.org/2000/svg" xmlns:xlink="http://www.w3.org/1999/xlink"><clipPath id="a"><path d="m0 256h256v-256h-256z"/></clipPath><g clip-path="url(#a)" fill="#fff" transform="matrix(1.3333333 0 0 -1.3333333 -10.666 266.66666)"><path d="m220 76h-4v12h4zm-8 0h-4v12h4zm-12 0h-4v12h4zm-12 0h-4v12h4zm-12 0h-4v12h4zm-12 0h-4v12h4zm-12 0h-4v12h4zm-12 0h-4v12h4zm-12 0h-4v12h4zm-12 0h-4v8 4h4zm-8 0h-32v8h29 2 1zm-4 13v2c0 .552.448 1 1 1h2c.552 0 1-.448 1-1v-2c0-.552-.448-1-1-1h-2c-.552 0-1 .448-1 1m-32-13h-32v8h32zm-40 0h-4v12h4zm-8 0h-4v12h4zm192 16h-4-4-4-4-4-4-4-4-4-4-4-4-4-4-4-4-4-4-4-4-4-4-4-4-4-4-.101c-.465 2.279-2.484 4-4.899 4h-2c-2.757 0-5-2.243-5-5v-2c0-.342.035-.677.101-1h-24.101-4-32-4v4h-4-4-4-4-4v-4-12-4h4 4 4 4 4 4 32 4 32 4 4 4 4 4 4 4 4 4 4 4 4 4 4 4 4 4 4 4 4 4 4 4 4 4 4 4 4 4v4 12 4h-4z"/><path d="m0 0c.182.202.356.413.509.644.371.559.626 1.174.763 1.812.925.197 1.768.644 2.46 1.275v-3.731zm-.268-26c0-1.105-.895-2-2-2h-2v4 4 8 4 4h4zm-2-14c1.105 0 2-.895 2-2v-2h-4v4zm2-8h-4v2h4zm0-4h-4v2h4zm0-4h-4v2h4zm0-4h-4v2h4zm0-4h-4v2h4zm0-4h-4v2h4zm0-4h-4v2h4zm0-4h-4v2h4zm0-4h-4v2h4zm0-4h-4v2h4zm0-4h-4v2h4zm0-4h-4v2h4zm0-4h-4v2h4zm-216 36h-4v12h4zm12 0h-4v12h4zm12 0h-4v12h4zm12 0h-4v12h4zm8 0h-4v12h4zm12 0h-4v12h4zm12 0h-4v12h4zm12 0h-4v12h4zm36 12v-12h-4v4 8zm-8-8h-20v8h20zm20-4h-4v12h4zm12 0h-4v12h4zm12 0h-4v12h4zm-152 28h-4v12h4zm5.026 6c-.635-.838-1.026-1.87-1.026-3v6c0-1.13.391-2.162 1.026-3m10.974 3v-6c0 1.13-.391 2.162-1.025 3 .634.838 1.025 1.87 1.025 3m-8 0v2c0 .552.448 1 1 1h2c.553 0 1-.448 1-1v-2c0-.552-.447-1-1-1h-2c-.552 0-1 .448-1 1m4-6v-2c0-.552-.447-1-1-1h-2c-.552 0-1 .448-1 1v2c0 .552.448 1 1 1h2c.553 0 1-.448 1-1m12-3h-4v12h4zm12 0h-4v12h4zm12 0h-4v12h4zm8 0h-4v12h4zm12 0h-4v12h4zm12 0h-4v12h4zm12 0h-4v12h4zm12 0h-4v12h4zm12 0h-4v12h4zm12 0h-4v12h4zm12 0h-4v12h4zm12 0h-4v12h4zm-152 40v-4-8h-4v12zm208-108h-220v116h4 12 1c-2.414 0-4.434-1.721-4.898-4h-.102-4-4v-4-12-4h4 4 4 20 4 4 4 4 4 4 4 4 4 4 4 4 4 4 4 4 4 4 4 4 4 4 4 4 4 4 4 4 4 4 4 4 4 .102c-.066-.323-.102-.658-.102-1v-2c0-2.757 2.243-5 5-5h-1-4-4-4-4-4-4-4-4-4-4-4-4-4-4-4-4-4-4-4-4-4-4-4-4-4-4-4-4-4-4-4-4-4-4-4-4v-4-1c0 2.757-2.242 5-5 5h-2c-2.757 0-5-2.243-5-5v1 4h-4-4-4v-4-12-4h4 4 4v4 1c0-2.757 2.243-5 5-5h2c2.758 0 5 2.243 5 5v-1-4h4 4 4 4 4 4 4 4 4 4 4 4 4 4 4 4 4 4 4 4 4 4 4 4 4 4 4 4 4 4 4 4 4 4 .102c-.066-.323-.102-.658-.102-1v-2c0-2.757 2.243-5 5-5h-1-4-4-4-4-4-4-4-4-4-4-4-4-20-4-4-4-4-4-4-4-4-4-4-4-4-4-4-4-4-4-4-4-4-4-4-4-4v-4-12-4h4 4 4 4 4 4 4 4 4 4 4 4 4 4 4 4 4 4 4 4 4 4 4v4h4 20v-4h4 4 4 4 4 4 4 4 4 4 4 4 4 4 4 4 4 4 4 4 4 4 4v4 12h4v-48h4zm-204 120h-12v8h12zm0-16h1 2 17v-8h-20zm4 5c0-.552-.447-1-1-1h-2c-.552 0-1 .448-1 1v2c0 .552.448 1 1 1h2c.553 0 1-.448 1-1zm28-13h-4v12h4zm12 0h-4v12h4zm8 0h-4v12h4zm12 0h-4v12h4zm12 0h-4v12h4zm12 0h-4v12h4zm12 0h-4v8h4zm12 0h-4v12h4zm12 0h-4v8h4zm0 32v-4-8-4-4h-4-4v4h-4-4-4v-4h-4-4-4v4h-4-4-4-4-4-4-4-4-4-4-4-4-4-4-4-4-4v-4h-4-12.101c.066.323.101.658.101 1v2c0 2.757-2.242 5-5 5h1v4 8zm44 0v-4-8-4h-4-4-4-4-4-4-4-5-2-5v4 8 4zm12 0v-9.093c0-.017 0-.034 0-.051v-5.71c0-.018 0-.036 0-.055v-13.091-4h-8.731c.469 1.157.731 2.512.731 4 0 4.635-2.523 8-6 8-.712 0-1.381-.148-2-.412v.412h2 2 4v4 4 8 4zm7.733 4c-.182-.202-.356-.413-.509-.644-.371-.559-.626-1.174-.763-1.812-.925-.197-1.768-.644-2.461-1.275v3.731zm-3.733-32v3.731c.693-.631 1.536-1.078 2.461-1.275.137-.638.392-1.253.763-1.812.153-.231.327-.442.509-.644zm20-20v-4h-36v4 8 4h36v-4zm-16-28h4v-12h-4zm-8 0h4v-12h-4zm-12 0h4v-12h-4zm-16 11c0 .552.448 1 1 1h2c.553 0 1-.448 1-1v-2c0-.552-.447-1-1-1h-2c-.552 0-1 .448-1 1zm4 5h-1-2-1v12h4zm0 23c0 .552.448 1 1 1h2c.553 0 1-.448 1-1v-2c0-.552-.447-1-1-1h-2c-.552 0-1 .448-1 1zm4 5h-1-2-1v12h4zm6 0c-1.104 0-2 1.791-2 4s.896 4 2 4c1.105 0 2-1.791 2-4s-.895-4-2-4m-2-4v-1c0 .342-.035.677-.101 1zm-20 16h4v-12h-4zm-4.101 0h.101v-1c0 .342-.035.677-.101 1m-11.899-3c0-.342.036-.677.102-1h-.102zm0 3h.102c-.066-.323-.102-.658-.102-1zm8-1v-2c0-.552-.447-1-1-1h-2c-.552 0-1 .448-1 1v2c0 .552.448 1 1 1h2c.553 0 1-.448 1-1m0-7v-4h-4v4h1 2zm3.899 4c.066.323.101.658.101 1v-1zm20.101-64h-4v12h4zm-4 16h-1c2.758 0 5 2.243 5 5v2c0 .342-.035.677-.101 1h.101v4 12 4h-1c2.758 0 5 2.243 5 5v-1-8-4-4-4-8-4h-4zm44 0h-4-4-4-4-4-4-4-4v4 8 4h36v-2-2-6-2-4zm2-46h4v-2h-4zm0 40h4v-2h-4zm0-4h4v-2h-4zm0-4h4v-2h-4zm0-4h4v-2h-4zm0-4h4v-2h-4zm0-4h4v-2h-4zm0-4h4v-2h-4zm0-4h4v-2h-4zm4-10h-4v2h4zm-4 6h4v-2h-4zm12.176 96.742.976-.396c1.383-.561.978-2.616-.509-2.616h-.012l-1.053.008c-.003 0-.007 0-.011 0-1.212 0-1.817-1.472-.952-2.325l.75-.739c.92-.907.176-2.334-.931-2.334-.176 0-.361.036-.55.116l-.97.41c-.181.077-.362.111-.536.111-.91 0-1.642-.948-1.244-1.89l.41-.97c.425-1.004-.388-1.896-1.266-1.896-.328 0-.666.124-.951.414l-.74.75c-.277.282-.62.408-.956.408-.701 0-1.374-.547-1.368-1.371l.007-1.053c.007-.866-.683-1.369-1.374-1.369-.502 0-1.005.265-1.241.849l-.396.976c-.23.565-.744.847-1.259.847-.514 0-1.028-.282-1.258-.847l-.396-.976c-.236-.584-.739-.849-1.241-.849-.691 0-1.381.503-1.374 1.369l.007 1.053c.006.824-.667 1.371-1.368 1.371-.336 0-.679-.126-.956-.408l-.74-.75c-.285-.29-.623-.414-.951-.414-.879 0-1.691.892-1.266 1.896l.41.97c.398.942-.334 1.89-1.244 1.89-.174 0-.355-.034-.536-.111l-.97-.41c-.189-.08-.374-.116-.55-.116-1.107 0-1.851 1.427-.931 2.334l.75.739c.865.853.259 2.325-.952 2.325-.004 0-.007 0-.011 0l-1.053-.008h-.012c-1.487 0-1.892 2.055-.509 2.616l.976.396c1.13.458 1.13 2.058 0 2.516l-.976.396c-1.383.561-.978 2.616.509 2.616h.012l1.053-.008h.011c1.212 0 1.817 1.472.952 2.325l-.75.739c-.92.907-.176 2.334.931 2.334.176 0 .361-.036.55-.116l.97-.41c.181-.077.362-.111.536-.111.91 0 1.642.948 1.244 1.89l-.41.97c-.425 1.004.387 1.896 1.266 1.896.328 0 .665-.124.951-.414l.74-.75c.277-.282.62-.408.956-.408.701 0 1.374.547 1.368 1.371l-.007 1.053c-.007.866.683 1.369 1.374 1.369.502 0 1.005-.265 1.241-.849l.396-.976c.23-.565.744-.847 1.258-.847.515 0 1.029.282 1.259.847l.396.976c.236.584.739.849 1.241.849.691 0 1.381-.502 1.374-1.369l-.007-1.053c-.006-.824.667-1.371 1.368-1.371.336 0 .679.126.956.408l.74.75c.285.29.623.414.951.414.879 0 1.691-.892 1.266-1.896l-.41-.97c-.398-.942.334-1.89 1.244-1.89.174 0 .355.034.536.111l.97.41c.189.08.374.116.55.116 1.107 0 1.851-1.427.931-2.334l-.75-.739c-.865-.853-.259-2.325.952-2.325h.011l1.053.008h.012c1.487 0 1.892-2.055.509-2.616l-.976-.396c-1.13-.458-1.13-2.058 0-2.516m1.824 13.527c-.692.631-1.535 1.078-2.46 1.275-.137.638-.392 1.253-.763 1.812-.153.231-.327.442-.509.644h3.732zm4-15.125v5.71c.001.018.001.036 0 .055v13.091 4h-4-32-4v-4h-8-4-40-4-120-4-12-4-4v-4-128-4h4 220 4v4h4 4v4 54c0 3.308-2.691 6-6 6h-2v4h2c3.309 0 6 2.692 6 6v22h4v4 13.093c.001.017.001.034 0 .051" transform="translate(240.2675 164)"/><path d="m0 0c-4.418 0-8 3.582-8 8s3.582 8 8 8 8-3.582 8-8-3.582-8-8-8m0 20c-6.617 0-12-5.383-12-12s5.383-12 12-12 12 5.383 12 12-5.383 12-12 12" transform="translate(228 172)"/></g></svg>