<svg height="314.66666" viewBox="0 0 277.34399 314.66665" width="277.34399" xmlns="http://www.w3.org/2000/svg" xmlns:xlink="http://www.w3.org/1999/xlink"><clipPath id="a"><path d="m0 256h256v-256h-256z"/></clipPath><g clip-path="url(#a)" fill="#fff" transform="matrix(1.3333333 0 0 -1.3333333 -31.994666 330.66666)"><path d="m0 0c0-2.109-1.709-3.818-3.818-3.818h-160.364c-2.109 0-3.818 1.709-3.818 3.818v76.364c0 2.108 1.709 3.818 3.818 3.818h160.364c2.109 0 3.818-1.71 3.818-3.818zm-3.818 84h-160.364c-4.211 0-7.636-3.426-7.636-7.636v-76.364c0-4.211 3.425-7.636 7.636-7.636h160.364c4.211 0 7.636 3.425 7.636 7.636v76.364c0 4.21-3.425 7.636-7.636 7.636" transform="translate(212 151.8182)"/><path d="m0 0h6v-4h-6c-1.105 0-2-.895-2-2s.895-2 2-2h6v-4h-6c-1.105 0-2-.895-2-2s.895-2 2-2h6v-4h-6c-1.105 0-2-.895-2-2s.895-2 2-2h6v-4h-6c-1.105 0-2-.895-2-2s.895-2 2-2h6v-4h-6c-1.105 0-2-.895-2-2s.895-2 2-2h6v-4h-6c-1.105 0-2-.895-2-2s.895-2 2-2h6v-4h-6c-1.105 0-2-.895-2-2s.895-2 2-2h6v-4h-6c-1.105 0-2-.895-2-2s.895-2 2-2h6v-4h-6c-1.105 0-2-.895-2-2s.895-2 2-2h6v-4h-6c-1.105 0-2-.895-2-2s.895-2 2-2h6v-4h-6c-1.105 0-2-.895-2-2s.895-2 2-2h6v-4-32c0-4.418-3.582-8-8-8h-184c-4.418 0-8 3.582-8 8v32 4h6c1.105 0 2 .895 2 2s-.895 2-2 2h-6v4h6c1.105 0 2 .895 2 2s-.895 2-2 2h-6v4h6c1.105 0 2 .895 2 2s-.895 2-2 2h-6v4h6c1.105 0 2 .895 2 2s-.895 2-2 2h-6v4h6c1.105 0 2 .895 2 2s-.895 2-2 2h-6v4h6c1.105 0 2 .895 2 2s-.895 2-2 2h-6v4h6c1.105 0 2 .895 2 2s-.895 2-2 2h-6v4h6c1.105 0 2 .895 2 2s-.895 2-2 2h-6v4h6c1.105 0 2 .895 2 2s-.895 2-2 2h-6v4h6c1.105 0 2 .895 2 2s-.895 2-2 2h-6v4h6c1.105 0 2 .895 2 2s-.895 2-2 2h-6v4h6c1.105 0 2 .895 2 2s-.895 2-2 2h-6c0 4.418 3.582 8 8 8h184c4.418 0 8-3.582 8-8h-6c-1.105 0-2-.895-2-2s.895-2 2-2m-193.578-133.295c2.068-1.689 4.706-2.705 7.578-2.705h184c2.872 0 5.51 1.016 7.578 2.705l-.342-7.508c-1.074.516-2.256.803-3.464.803h-191.544c-1.208 0-2.39-.287-3.464-.803zm195.788-78.927c-.118-2.12-1.871-3.778-3.994-3.778h-184.432c-2.123 0-3.876 1.658-3.994 3.778l-3.555 64c-.128 2.293 1.697 4.222 3.993 4.222h191.544c2.296 0 4.121-1.929 3.993-4.222zm7.794 88.222h-.004v32 96c0 6.617-5.383 12-12 12h-184c-6.617 0-12-5.383-12-12v-96-32h-.004l.008-.182.79-20.89c-.419-1.064-.618-2.214-.553-3.372l3.555-64c.236-4.237 3.744-7.556 7.988-7.556h184.432c4.244 0 7.752 3.319 7.988 7.556l3.555 64c.065 1.158-.134 2.308-.553 3.372l.79 20.89z" transform="translate(222 232)"/><path d="m0 0c0-.478-.388-.866-.866-.866h-10.268c-.478 0-.866.388-.866.866v.457 9.354.457c0 .478.388.866.866.866h10.268c.478 0 .866-.388.866-.866zm-17.323-.866h-25.354c-.731 0-1.323.592-1.323 1.323v9.354c0 .731.592 1.323 1.323 1.323h25.354c.731 0 1.323-.592 1.323-1.323v-9.354c0-.731-.592-1.323-1.323-1.323m16.457 16h-10.268c-1.144 0-2.183-.413-3.014-1.076-.889.666-1.981 1.076-3.175 1.076h-25.354c-2.935 0-5.323-2.388-5.323-5.323v-9.354c0-2.935 2.388-5.323 5.323-5.323h25.354c1.194 0 2.286.409 3.175 1.076.831-.663 1.87-1.076 3.014-1.076h10.268c2.683 0 4.866 2.183 4.866 4.866v10.268c0 2.683-2.183 4.866-4.866 4.866" transform="translate(96 108.866)"/><path d="m212 64h-8v8h8zm-12-12h-8v8h8zm0-12h-8-4-4v8h4 4 8zm0-12h-8v8h8zm-12 0h-8v8h4 4zm-12 0h-8v8h4 4zm-12 0h-8v8h4 4zm-12 0h-56v8h4 8 4 8 4 8 4 8 4 4zm-60 0h-8v8h4 4zm-12 0h-8v8h4 4zm-12 0h-8v8h8zm-12 20h12 4v-8h-4-8-4zm0 12h8 4v-8h-12zm0 12h8v-8h-8zm12 0h8v-8h-4-4zm12 0h8v-8h-4-4zm12 0h8v-8h-4-4zm12 0h8v-8h-4-4zm12 0h8v-8h-4-4zm12 0h8v-8h-4-4zm12 0h8v-8h-4-4zm12 0h8v-8h-4-4zm12 0h8v-8h-4-4zm12 0h8v-8h-4-4zm-16-24h4 4v-8h-4-4zm-12 0h4 4v-8h-4-4zm-12 0h4 4v-8h-8zm-12 0h4 4v-8h-8zm-12 0h4 4v-8h-8zm-12 0h4 4v-8h-8zm-12 0h4 4v-8h-4-4zm-12 0h4 4v-8h-4-4zm16 4h-4-4v8h4 4zm12 0h-4-4v8h4 4zm12 0h-4-4v8h4 4zm12 0h-4-4v8h4 4zm12 0h-4-4v8h4 4zm12 0h-4-4v8h4 4zm12 0h-4-4v8h4 4zm12 0h-4-4v8h4 4zm-104 8h4 4v-8h-4-4zm108-20h-4-4v8h4 4zm8 12h-4-4v8h4 4zm0 20h12v-8h-8-4zm16 4h-4-12-4-8-4-8-4-8-4-8-4-8-4-8-4-8-4-8-4-8-4-8-4-8-4v-4-8-4-8-4-8-4h4v-8-4h4 8 4 8 4 8 4 56 4 8 4 8 4 8 4 8 4v4 8 4 8 4 8h8 4v4 8 4h-4z"/></g></svg>