<svg height="160" viewBox="0 0 330.66665 160" width="330.66666" xmlns="http://www.w3.org/2000/svg"><g fill="#fff" transform="matrix(1.3333333 0 0 -1.3333333 -5.333333 245.33333)"><path d="m0 0v28h51.408l-31.408-24h4.233l31.408 24h5.2l-31.408-24h4.233l31.408 24h5.2l-31.408-24h4.233l31.408 24h5.2l-31.408-24h4.232l31.408 24h5.201l-31.408-24h4.232l31.408 24h5.201l-31.409-24h4.233l31.408 24h5.2l-31.408-24h4.233l31.408 24h5.2l-31.408-24h4.233l31.408 24h5.2l-31.408-24h4.233l31.408 24h5.2l-31.408-24h4.233l31.408 24h5.2l-31.408-24h4.233l31.408 24h5.2l-31.408-24h4.233l31.408 24h5.2l-31.408-24h4.233l31.408 24h5.2l-31.408-24h4.232l31.408 24h5.201l-31.408-24h4.232l31.408 24h5.201l-31.409-24h4.233l31.408 24h5.2l-31.408-24h4.233l31.408 24h5.2l-31.408-24h4.233l31.408 24h24v-28zm240-20h-225.938-14.062v16h240zm0-64h-240v60h14.062 225.938zm0 116h-240-4v-4-28-4-16-4-60-4h4 240 4v4 60 4 16 4 28 4z" transform="translate(8 152)"/><path d="m0 0h-48.195l-3.805-4h48.119z" transform="translate(228 144)"/><path d="m24 112.075h-8v8h8zm4 8h8v-8h-4-4zm12 0h8v-8h-4-4zm12 0h8v-8h-4-4zm12 0h8v-8h-4-4zm12 0h8v-8h-4-4zm12 0h8v-8h-4-4zm12 0h8v-8h-4-4zm12 0h8v-8h-4-4zm12 0h8v-8h-4-4zm12 0h12v-8h-8-4zm20 0h12v-8h-4-8zm20 0h12v-8h-8-4zm20 0h8v-8h-8zm12 0h8v-8h-8zm12 0h8v-8h-8zm12 0h8v-8h-8zm8-20h-8v8h8zm0-24h-8v8 4 8h8zm-12 0h-8v8h8zm-12 0h-8v8h8zm-12 0h-8v8h8zm-16 12h-8v8h8zm-12 0h-8v8h8zm-12 0h-8v8h8zm0 12h-8v8h8zm12 0h-8v8h4 4zm12 0h-8v8h8zm16 0h-8v8h8zm12 0h-8v8h8zm-8-4h8v-8h-8zm-12 0h8v-8h-8zm32-8h-8v8h8zm0 12h-8v8h8zm-80-12h-4v8 4h-4v8h8zm-12-12.075h-16v8.075h8 4 4zm-20 0h-80v8.075h8 4 8 4 8 4 8 4 8 4 8 4 8zm-84 0h-16v8.075h16zm-16 20.075h12 4v-8h-16zm24 4h-4v.075h-4v7.925h4 4zm12 0h-4-4v8h4 4zm12 0h-4-4v8h4 4zm12 0h-4-4v8h4 4zm12 0h-4-4v8h4 4zm12 0h-4-4v8h4 4zm12 0h-4-4v8h4 4zm12 0h-4-4v8h4 4zm12 0h-4-4v8h4 4zm-16-4h4 4v-8h-8zm-12 0h4 4v-8h-8zm-12 0h4 4v-8h-8zm-12 0h4 4v-8h-8zm-12 0h4 4v-8h-8zm-12 0h4 4v-8h-8zm-12 0h4 4v-8h-8zm-12 0h4 4v-8h-8zm100-8h-4v8h4zm-120 20h8 4v-7.925h-12zm-4 16v-4-8-4-7.925-.075-3.925-.075-8-4-8.075-4h4 16 4 80 4 16 4v4 8.075h4 4 4 4 8 4 8 4 8 4v-8-4h4 8 4 8 4 8 4 8 4v4 20 4 8 4 8 4h-4-8-4-8-4-8-4-8-4-4-12-4-4-12-4-4-12-4-8-4-8-4-8-4-8-4-8-4-8-4-8-4-8-4-8-4-8z"/></g></svg>