<?xml version="1.0" encoding="UTF-8" standalone="no"?>
<svg
   xmlns:dc="http://purl.org/dc/elements/1.1/"
   xmlns:cc="http://creativecommons.org/ns#"
   xmlns:rdf="http://www.w3.org/1999/02/22-rdf-syntax-ns#"
   xmlns:svg="http://www.w3.org/2000/svg"
   xmlns="http://www.w3.org/2000/svg"
   viewBox="0 0 320 320"
   height="320"
   width="320"
   xml:space="preserve"
   version="1.1"
   id="svg2"><metadata
     id="metadata8"><rdf:RDF><cc:Work
         rdf:about=""><dc:format>image/svg+xml</dc:format><dc:type
           rdf:resource="http://purl.org/dc/dcmitype/StillImage" /></cc:Work></rdf:RDF></metadata><defs
     id="defs6"><clipPath
       id="clipPath16"
       clipPathUnits="userSpaceOnUse"><path
         id="path18"
         d="M 56.549,199.436 C -2.848,140.038 -2.947,116.05 56.551,56.55 l 0,0 C 116.06,-2.958 140.017,-2.873 199.436,56.547 l 0,0 c 59.426,59.426 59.315,83.579 0.003,142.89 l 0,0 c -29.663,29.663 -50.545,44.512 -71.434,44.515 l 0,0 C 107.126,243.954 86.24,229.126 56.549,199.436" /></clipPath><linearGradient
       id="linearGradient24"
       spreadMethod="pad"
       gradientTransform="matrix(142.88766,-142.88766,-142.88766,-142.88766,56.551559,199.43755)"
       gradientUnits="userSpaceOnUse"
       y2="0"
       x2="1"
       y1="0"
       x1="0"><stop
         id="stop26"
         offset="0"
         style="stop-opacity:1;stop-color:#e6e7e8" /><stop
         id="stop28"
         offset="1"
         style="stop-opacity:1;stop-color:#d1d3d4" /></linearGradient><clipPath
       id="clipPath36"
       clipPathUnits="userSpaceOnUse"><path
         id="path38"
         d="M 0,256 256,256 256,0 0,0 0,256 Z" /></clipPath></defs><g
     transform="matrix(1.25,0,0,-1.25,0,320)"
     id="g10"><g
       id="g12"><g
         clip-path="url(#clipPath16)"
         id="g14"><g
           id="g20"><g
             id="g22"><path
               id="path30"
               style="fill:url(#linearGradient24);stroke:none"
               d="M 56.549,199.436 C -2.848,140.038 -2.947,116.05 56.551,56.55 l 0,0 C 116.06,-2.958 140.017,-2.873 199.436,56.547 l 0,0 c 59.426,59.426 59.315,83.579 0.003,142.89 l 0,0 c -29.663,29.663 -50.545,44.512 -71.434,44.515 l 0,0 C 107.126,243.954 86.24,229.126 56.549,199.436" /></g></g></g></g><g
       id="g32"><g
         clip-path="url(#clipPath36)"
         id="g34"><g
           transform="translate(183.3848,132.6157)"
           id="g40"><path
             id="path42"
             style="fill:#999999;fill-opacity:1;fill-rule:nonzero;stroke:none"
             d="m 0,0 -50.77,0 0,50.769 c 0,2.549 -2.066,4.615 -4.615,4.615 -2.549,0 -4.615,-2.066 -4.615,-4.615 L -60,0 -110.77,0 c -2.548,0 -4.615,-2.067 -4.615,-4.616 0,-2.549 2.067,-4.615 4.615,-4.615 l 50.77,0 0,-50.769 c 0,-2.549 2.066,-4.616 4.615,-4.616 2.549,0 4.615,2.067 4.615,4.616 l 0,50.769 50.77,0 c 2.549,0 4.615,2.066 4.615,4.615 C 4.615,-2.067 2.549,0 0,0" /></g></g></g></g></svg>