<?xml version="1.0" encoding="UTF-8" standalone="no"?>
<svg
   xmlns:dc="http://purl.org/dc/elements/1.1/"
   xmlns:cc="http://creativecommons.org/ns#"
   xmlns:rdf="http://www.w3.org/1999/02/22-rdf-syntax-ns#"
   xmlns:svg="http://www.w3.org/2000/svg"
   xmlns="http://www.w3.org/2000/svg"
   viewBox="0 0 320 320"
   height="320"
   width="320"
   xml:space="preserve"
   version="1.1"
   id="svg2"><metadata
     id="metadata8"><rdf:RDF><cc:Work
         rdf:about=""><dc:format>image/svg+xml</dc:format><dc:type
           rdf:resource="http://purl.org/dc/dcmitype/StillImage" /></cc:Work></rdf:RDF></metadata><defs
     id="defs6"><clipPath
       id="clipPath16"
       clipPathUnits="userSpaceOnUse"><path
         id="path18"
         d="m 240,152 -224,0 0,8 224,0 0,-8 z" /></clipPath><linearGradient
       id="linearGradient24"
       spreadMethod="pad"
       gradientTransform="matrix(-115.99999,115.99999,115.99999,115.99999,186,98)"
       gradientUnits="userSpaceOnUse"
       y2="0"
       x2="1"
       y1="0"
       x1="0"><stop
         id="stop26"
         offset="0"
         style="stop-opacity:1;stop-color:#e6e7e8" /><stop
         id="stop28"
         offset="1"
         style="stop-opacity:1;stop-color:#d1d3d4" /></linearGradient><clipPath
       id="clipPath36"
       clipPathUnits="userSpaceOnUse"><path
         id="path38"
         d="m 234,160 0,-4 -2,0 0,4 -2,0 0,-4 -2,0 0,4 -2,0 0,-4 -2,0 0,4 -2,0 0,-4 -2,0 0,4 -2,0 0,-4 -2,0 0,4 -2,0 0,-4 -2,0 0,4 -2,0 0,-4 -2,0 0,4 -2,0 0,-4 -2,0 0,4 -2,0 0,-4 -2,0 0,4 -2,0 0,-4 -2,0 0,4 -2,0 0,-4 -2,0 0,4 -2,0 0,-4 -2,0 0,4 -2,0 0,-4 -2,0 0,4 -2,0 0,-4 -2,0 0,4 -2,0 0,-4 -2,0 0,4 -2,0 0,-4 -2,0 0,4 -2,0 0,-4 -2,0 0,4 -2,0 0,-4 -2,0 0,4 -2,0 0,-4 -2,0 0,4 -2,0 0,-4 -2,0 0,4 -2,0 0,-4 -2,0 0,4 -2,0 0,-4 -2,0 0,4 -2,0 0,-4 -2,0 0,4 -2,0 0,-4 -2,0 0,4 -2,0 0,-4 -2,0 0,4 -2,0 0,-4 -2,0 0,4 -2,0 0,-4 -2,0 0,4 -2,0 0,-4 -2,0 0,4 -2,0 0,-4 -2,0 0,4 -2,0 0,-4 -2,0 0,4 -2,0 0,-4 -2,0 0,4 -2,0 0,-4 -2,0 0,4 -2,0 0,-4 -2,0 0,4 -2,0 0,-4 -2,0 0,4 -2,0 0,-4 -2,0 0,4 -2,0 0,-4 -2,0 0,4 -2,0 0,-4 -2,0 0,4 -2,0 0,-4 -2,0 0,4 -2,0 0,-4 -2,0 0,4 -2,0 0,-4 -2,0 0,4 -2,0 0,-4 -2,0 0,4 -2,0 0,-4 -2,0 0,4 -2,0 0,-4 -2,0 0,4 -2,0 0,-4 -2,0 0,4 -2,0 0,-4 -2,0 0,4 -2,0 0,-4 -2,0 0,4 -2,0 0,-4 -2,0 0,4 -2,0 0,-4 -2,0 0,4 -2,0 0,-4 -2,0 0,4 -2,0 0,-4 -2,0 0,4 -2,0 0,-4 -2,0 0,4 -2,0 0,-4 -2,0 0,4 -2,0 0,-4 -2,0 0,4 -2,0 0,-4 -2,0 0,4 -8,0 0,-60 0,-4 0,-4 232,0 0,4 0,4 0,60 -10,0 z" /></clipPath><linearGradient
       id="linearGradient44"
       spreadMethod="pad"
       gradientTransform="matrix(150,-150,-150,-150,53,201)"
       gradientUnits="userSpaceOnUse"
       y2="0"
       x2="1"
       y1="0"
       x1="0"><stop
         id="stop46"
         offset="0"
         style="stop-opacity:1;stop-color:#e6e7e8" /><stop
         id="stop48"
         offset="1"
         style="stop-opacity:1;stop-color:#d1d3d4" /></linearGradient><clipPath
       id="clipPath152"
       clipPathUnits="userSpaceOnUse"><path
         id="path154"
         d="m 236,108 -48,0 0,20 48,0 0,-20 z" /></clipPath><linearGradient
       id="linearGradient160"
       spreadMethod="pad"
       gradientTransform="matrix(-34,34,34,34,229,101)"
       gradientUnits="userSpaceOnUse"
       y2="0"
       x2="1"
       y1="0"
       x1="0"><stop
         id="stop162"
         offset="0"
         style="stop-opacity:1;stop-color:#e6e7e8" /><stop
         id="stop164"
         offset="1"
         style="stop-opacity:1;stop-color:#d1d3d4" /></linearGradient><clipPath
       id="clipPath172"
       clipPathUnits="userSpaceOnUse"><path
         id="path174"
         d="m 236,124 -48,0 0,20 48,0 0,-20 z" /></clipPath><linearGradient
       id="linearGradient180"
       spreadMethod="pad"
       gradientTransform="matrix(-34,34,34,34,229,117)"
       gradientUnits="userSpaceOnUse"
       y2="0"
       x2="1"
       y1="0"
       x1="0"><stop
         id="stop182"
         offset="0"
         style="stop-opacity:1;stop-color:#e6e7e8" /><stop
         id="stop184"
         offset="1"
         style="stop-opacity:1;stop-color:#d1d3d4" /></linearGradient><clipPath
       id="clipPath192"
       clipPathUnits="userSpaceOnUse"><path
         id="path194"
         d="m 232,128 -40,0 0,12 40,0 0,-12 z" /></clipPath><linearGradient
       id="linearGradient200"
       spreadMethod="pad"
       gradientTransform="matrix(26,-26,-26,-26,199,147)"
       gradientUnits="userSpaceOnUse"
       y2="0"
       x2="1"
       y1="0"
       x1="0"><stop
         id="stop202"
         offset="0"
         style="stop-opacity:1;stop-color:#e6e7e8" /><stop
         id="stop204"
         offset="1"
         style="stop-opacity:1;stop-color:#d1d3d4" /></linearGradient><clipPath
       id="clipPath212"
       clipPathUnits="userSpaceOnUse"><path
         id="path214"
         d="M 0,256 256,256 256,0 0,0 0,256 Z" /></clipPath></defs><g
     transform="matrix(1.25,0,0,-1.25,0,320)"
     id="g10"><g
       id="g12"><g
         clip-path="url(#clipPath16)"
         id="g14"><g
           id="g20"><g
             id="g22"><path
               id="path30"
               style="fill:url(#linearGradient24);stroke:none"
               d="m 240,152 -224,0 0,8 224,0 0,-8 z" /></g></g></g></g><g
       id="g32"><g
         clip-path="url(#clipPath36)"
         id="g34"><g
           id="g40"><g
             id="g42"><path
               id="path50"
               style="fill:url(#linearGradient44);stroke:none"
               d="m 234,160 0,-4 -2,0 0,4 -2,0 0,-4 -2,0 0,4 -2,0 0,-4 -2,0 0,4 -2,0 0,-4 -2,0 0,4 -2,0 0,-4 -2,0 0,4 -2,0 0,-4 -2,0 0,4 -2,0 0,-4 -2,0 0,4 -2,0 0,-4 -2,0 0,4 -2,0 0,-4 -2,0 0,4 -2,0 0,-4 -2,0 0,4 -2,0 0,-4 -2,0 0,4 -2,0 0,-4 -2,0 0,4 -2,0 0,-4 -2,0 0,4 -2,0 0,-4 -2,0 0,4 -2,0 0,-4 -2,0 0,4 -2,0 0,-4 -2,0 0,4 -2,0 0,-4 -2,0 0,4 -2,0 0,-4 -2,0 0,4 -2,0 0,-4 -2,0 0,4 -2,0 0,-4 -2,0 0,4 -2,0 0,-4 -2,0 0,4 -2,0 0,-4 -2,0 0,4 -2,0 0,-4 -2,0 0,4 -2,0 0,-4 -2,0 0,4 -2,0 0,-4 -2,0 0,4 -2,0 0,-4 -2,0 0,4 -2,0 0,-4 -2,0 0,4 -2,0 0,-4 -2,0 0,4 -2,0 0,-4 -2,0 0,4 -2,0 0,-4 -2,0 0,4 -2,0 0,-4 -2,0 0,4 -2,0 0,-4 -2,0 0,4 -2,0 0,-4 -2,0 0,4 -2,0 0,-4 -2,0 0,4 -2,0 0,-4 -2,0 0,4 -2,0 0,-4 -2,0 0,4 -2,0 0,-4 -2,0 0,4 -2,0 0,-4 -2,0 0,4 -2,0 0,-4 -2,0 0,4 -2,0 0,-4 -2,0 0,4 -2,0 0,-4 -2,0 0,4 -2,0 0,-4 -2,0 0,4 -2,0 0,-4 -2,0 0,4 -2,0 0,-4 -2,0 0,4 -2,0 0,-4 -2,0 0,4 -2,0 0,-4 -2,0 0,4 -2,0 0,-4 -2,0 0,4 -2,0 0,-4 -2,0 0,4 -2,0 0,-4 -2,0 0,4 -2,0 0,-4 -2,0 0,4 -2,0 0,-4 -2,0 0,4 -2,0 0,-4 -2,0 0,4 -2,0 0,-4 -2,0 0,4 -2,0 0,-4 -2,0 0,4 -8,0 0,-60 0,-4 0,-4 232,0 0,4 0,4 0,60 -10,0 z" /></g></g></g></g><path
       id="path52"
       style="fill:#999999;fill-opacity:1;fill-rule:nonzero;stroke:none"
       d="m 148,144 -124,0 0,8 124,0 0,-8 z" /><path
       id="path54"
       style="fill:#999999;fill-opacity:1;fill-rule:nonzero;stroke:none"
       d="m 32,132 -8,0 0,8 8,0 0,-8 z" /><path
       id="path56"
       style="fill:#999999;fill-opacity:1;fill-rule:nonzero;stroke:none"
       d="m 32,120 -8,0 0,8 8,0 0,-8 z" /><path
       id="path58"
       style="fill:#999999;fill-opacity:1;fill-rule:nonzero;stroke:none"
       d="m 44,132 -8,0 0,8 8,0 0,-8 z" /><path
       id="path60"
       style="fill:#999999;fill-opacity:1;fill-rule:nonzero;stroke:none"
       d="m 44,120 -8,0 0,8 8,0 0,-8 z" /><path
       id="path62"
       style="fill:#999999;fill-opacity:1;fill-rule:nonzero;stroke:none"
       d="m 52,108.075 -8,0 0,8 8,0 0,-8 z" /><path
       id="path64"
       style="fill:#999999;fill-opacity:1;fill-rule:nonzero;stroke:none"
       d="m 64,108.075 -8,0 0,8 8,0 0,-8 z" /><path
       id="path66"
       style="fill:#999999;fill-opacity:1;fill-rule:nonzero;stroke:none"
       d="m 76,108.075 -8,0 0,8 8,0 0,-8 z" /><path
       id="path68"
       style="fill:#999999;fill-opacity:1;fill-rule:nonzero;stroke:none"
       d="m 88,108.075 -8,0 0,8 8,0 0,-8 z" /><path
       id="path70"
       style="fill:#999999;fill-opacity:1;fill-rule:nonzero;stroke:none"
       d="m 100,108.075 -8,0 0,8 8,0 0,-8 z" /><path
       id="path72"
       style="fill:#999999;fill-opacity:1;fill-rule:nonzero;stroke:none"
       d="m 112,108.075 -8,0 0,8 8,0 0,-8 z" /><path
       id="path74"
       style="fill:#999999;fill-opacity:1;fill-rule:nonzero;stroke:none"
       d="m 124,108.075 -8,0 0,8 8,0 0,-8 z" /><path
       id="path76"
       style="fill:#999999;fill-opacity:1;fill-rule:nonzero;stroke:none"
       d="m 136,108 -8,0 0,8 8,0 0,-8 z" /><path
       id="path78"
       style="fill:#999999;fill-opacity:1;fill-rule:nonzero;stroke:none"
       d="m 128,96 -8,0 0,8 8,0 0,-8 z" /><path
       id="path80"
       style="fill:#999999;fill-opacity:1;fill-rule:nonzero;stroke:none"
       d="m 56,120 -8,0 0,8 8,0 0,-8 z" /><path
       id="path82"
       style="fill:#999999;fill-opacity:1;fill-rule:nonzero;stroke:none"
       d="m 68,120 -8,0 0,8 8,0 0,-8 z" /><path
       id="path84"
       style="fill:#999999;fill-opacity:1;fill-rule:nonzero;stroke:none"
       d="m 80,120 -8,0 0,8 8,0 0,-8 z" /><path
       id="path86"
       style="fill:#999999;fill-opacity:1;fill-rule:nonzero;stroke:none"
       d="m 92,120 -8,0 0,8 8,0 0,-8 z" /><path
       id="path88"
       style="fill:#999999;fill-opacity:1;fill-rule:nonzero;stroke:none"
       d="m 104,120 -8,0 0,8 8,0 0,-8 z" /><path
       id="path90"
       style="fill:#999999;fill-opacity:1;fill-rule:nonzero;stroke:none"
       d="m 116,120 -8,0 0,8 8,0 0,-8 z" /><path
       id="path92"
       style="fill:#999999;fill-opacity:1;fill-rule:nonzero;stroke:none"
       d="m 128,120 -8,0 0,8 8,0 0,-8 z" /><g
       transform="translate(132,128)"
       id="g94"><path
         id="path96"
         style="fill:#999999;fill-opacity:1;fill-rule:nonzero;stroke:none"
         d="m 0,0 0,-8 8,0 0,-11.925 8,0 L 16,0 0,0 Z" /></g><path
       id="path98"
       style="fill:#999999;fill-opacity:1;fill-rule:nonzero;stroke:none"
       d="m 56,132 -8,0 0,8 8,0 0,-8 z" /><path
       id="path100"
       style="fill:#999999;fill-opacity:1;fill-rule:nonzero;stroke:none"
       d="m 68,132 -8,0 0,8 8,0 0,-8 z" /><path
       id="path102"
       style="fill:#999999;fill-opacity:1;fill-rule:nonzero;stroke:none"
       d="m 80,132 -8,0 0,8 8,0 0,-8 z" /><path
       id="path104"
       style="fill:#999999;fill-opacity:1;fill-rule:nonzero;stroke:none"
       d="m 92,132 -8,0 0,8 8,0 0,-8 z" /><path
       id="path106"
       style="fill:#999999;fill-opacity:1;fill-rule:nonzero;stroke:none"
       d="m 104,132 -8,0 0,8 8,0 0,-8 z" /><path
       id="path108"
       style="fill:#999999;fill-opacity:1;fill-rule:nonzero;stroke:none"
       d="m 116,132 -8,0 0,8 8,0 0,-8 z" /><path
       id="path110"
       style="fill:#999999;fill-opacity:1;fill-rule:nonzero;stroke:none"
       d="m 128,132 -8,0 0,8 8,0 0,-8 z" /><g
       transform="translate(172,148)"
       id="g112"><path
         id="path114"
         style="fill:#999999;fill-opacity:1;fill-rule:nonzero;stroke:none"
         d="m 0,0 0,8 -8,0 0,-8 -8,0 0,-8 8,0 0,-8 8,0 0,8 8,0 0,8 -8,0 z" /></g><path
       id="path116"
       style="fill:#999999;fill-opacity:1;fill-rule:nonzero;stroke:none"
       d="m 148,132 -12,0 0,8 12,0 0,-8 z" /><path
       id="path118"
       style="fill:#999999;fill-opacity:1;fill-rule:nonzero;stroke:none"
       d="m 40,108.075 -16,0 0,8.074 16,0 0,-8.074 z" /><path
       id="path120"
       style="fill:#999999;fill-opacity:1;fill-rule:nonzero;stroke:none"
       d="m 116,96 -68,0 0,8.075 68,0 0,-8.075 z" /><path
       id="path122"
       style="fill:#999999;fill-opacity:1;fill-rule:nonzero;stroke:none"
       d="m 160,120 -8,0 0,8 8,0 0,-8 z" /><path
       id="path124"
       style="fill:#999999;fill-opacity:1;fill-rule:nonzero;stroke:none"
       d="m 172,120 -8,0 0,8 8,0 0,-8 z" /><path
       id="path126"
       style="fill:#999999;fill-opacity:1;fill-rule:nonzero;stroke:none"
       d="m 184,120 -8,0 0,8 8,0 0,-8 z" /><path
       id="path128"
       style="fill:#999999;fill-opacity:1;fill-rule:nonzero;stroke:none"
       d="m 160,108 -8,0 0,8 8,0 0,-8 z" /><path
       id="path130"
       style="fill:#999999;fill-opacity:1;fill-rule:nonzero;stroke:none"
       d="m 172,108 -8,0 0,8 8,0 0,-8 z" /><path
       id="path132"
       style="fill:#999999;fill-opacity:1;fill-rule:nonzero;stroke:none"
       d="m 184,108 -8,0 0,8 8,0 0,-8 z" /><path
       id="path134"
       style="fill:#999999;fill-opacity:1;fill-rule:nonzero;stroke:none"
       d="m 160,96 -8,0 0,8 8,0 0,-8 z" /><path
       id="path136"
       style="fill:#999999;fill-opacity:1;fill-rule:nonzero;stroke:none"
       d="m 172,96 -8,0 0,8 8,0 0,-8 z" /><path
       id="path138"
       style="fill:#999999;fill-opacity:1;fill-rule:nonzero;stroke:none"
       d="m 184,96 -8,0 0,8 8,0 0,-8 z" /><path
       id="path140"
       style="fill:#999999;fill-opacity:1;fill-rule:nonzero;stroke:none"
       d="m 200,96 -8,0 0,8 8,0 0,-8 z" /><path
       id="path142"
       style="fill:#999999;fill-opacity:1;fill-rule:nonzero;stroke:none"
       d="m 212,96 -8,0 0,8 8,0 0,-8 z" /><path
       id="path144"
       style="fill:#999999;fill-opacity:1;fill-rule:nonzero;stroke:none"
       d="m 224,96 -8,0 0,8 8,0 0,-8 z" /><path
       id="path146"
       style="fill:#999999;fill-opacity:1;fill-rule:nonzero;stroke:none"
       d="m 236,96 -8,0 0,8 8,0 0,-8 z" /><g
       id="g148"><g
         clip-path="url(#clipPath152)"
         id="g150"><g
           id="g156"><g
             id="g158"><path
               id="path166"
               style="fill:url(#linearGradient160);stroke:none"
               d="m 236,108 -48,0 0,20 48,0 0,-20 z" /></g></g></g></g><g
       id="g168"><g
         clip-path="url(#clipPath172)"
         id="g170"><g
           id="g176"><g
             id="g178"><path
               id="path186"
               style="fill:url(#linearGradient180);stroke:none"
               d="m 236,124 -48,0 0,20 48,0 0,-20 z" /></g></g></g></g><g
       id="g188"><g
         clip-path="url(#clipPath192)"
         id="g190"><g
           id="g196"><g
             id="g198"><path
               id="path206"
               style="fill:url(#linearGradient200);stroke:none"
               d="m 232,128 -40,0 0,12 40,0 0,-12 z" /></g></g></g></g><g
       id="g208"><g
         clip-path="url(#clipPath212)"
         id="g210"><g
           transform="translate(204,130)"
           id="g216"><path
             id="path218"
             style="fill:#999999;fill-opacity:1;fill-rule:nonzero;stroke:none"
             d="m 0,0 c 0,-1.104 -0.896,-2 -2,-2 -1.104,0 -2,0.896 -2,2 0,1.104 0.896,2 2,2 1.104,0 2,-0.896 2,-2" /></g><g
           transform="translate(224,130)"
           id="g220"><path
             id="path222"
             style="fill:#999999;fill-opacity:1;fill-rule:nonzero;stroke:none"
             d="m 0,0 c 0,-1.104 -0.896,-2 -2,-2 -1.104,0 -2,0.896 -2,2 0,1.104 0.896,2 2,2 1.104,0 2,-0.896 2,-2" /></g><path
           id="path224"
           style="fill:#999999;fill-opacity:1;fill-rule:nonzero;stroke:none"
           d="m 216,128 -8,0 0,4 8,0 0,-4 z" /><path
           id="path226"
           style="fill:#ffffff;fill-opacity:1;fill-rule:nonzero;stroke:none"
           d="m 232,116 -40,0 0,-4 40,0 0,4 z" /><g
           transform="translate(143,150)"
           id="g228"><path
             id="path230"
             style="fill:#ffffff;fill-opacity:1;fill-rule:nonzero;stroke:none"
             d="m 0,0 c 0,-0.552 -0.447,-1 -1,-1 -0.553,0 -1,0.448 -1,1 0,0.552 0.447,1 1,1 0.553,0 1,-0.448 1,-1" /></g></g></g></g></svg>