<?xml version="1.0" encoding="UTF-8" standalone="no"?>
<svg
   xmlns:dc="http://purl.org/dc/elements/1.1/"
   xmlns:cc="http://creativecommons.org/ns#"
   xmlns:rdf="http://www.w3.org/1999/02/22-rdf-syntax-ns#"
   xmlns:svg="http://www.w3.org/2000/svg"
   xmlns="http://www.w3.org/2000/svg"
   viewBox="0 0 320 320"
   height="320"
   width="320"
   xml:space="preserve"
   version="1.1"
   id="svg2"><metadata
     id="metadata8"><rdf:RDF><cc:Work
         rdf:about=""><dc:format>image/svg+xml</dc:format><dc:type
           rdf:resource="http://purl.org/dc/dcmitype/StillImage" /></cc:Work></rdf:RDF></metadata><defs
     id="defs6"><clipPath
       id="clipPath16"
       clipPathUnits="userSpaceOnUse"><path
         id="path18"
         d="M 20.593,200 C 15.85,200 12,196.205 12,191.529 l 0,0 0,-127.058 C 12,59.795 15.85,56 20.593,56 l 0,0 25.777,0 163.26,0 25.778,0 c 4.743,0 8.592,3.795 8.592,8.471 l 0,0 0,127.058 c 0,4.676 -3.849,8.471 -8.592,8.471 l 0,0 -214.815,0 z M 160,142 c 0,7.733 6.271,14 14,14 l 0,0 c 7.727,0 14,-6.267 14,-14 l 0,0 c 0,-7.733 -6.273,-14 -14,-14 l 0,0 c -7.729,0 -14,6.267 -14,14 m -92,0 c 0,7.732 6.272,14 14,14 l 0,0 c 7.728,0 14,-6.268 14,-14 l 0,0 c 0,-7.733 -6.272,-14 -14,-14 l 0,0 c -7.728,0 -14,6.267 -14,14" /></clipPath><linearGradient
       id="linearGradient24"
       spreadMethod="pad"
       gradientTransform="matrix(183.00079,-183.00079,-183.00079,-183.00079,36.499603,219.5004)"
       gradientUnits="userSpaceOnUse"
       y2="0"
       x2="1"
       y1="0"
       x1="0"><stop
         id="stop26"
         offset="0"
         style="stop-opacity:1;stop-color:#e6e7e8" /><stop
         id="stop28"
         offset="1"
         style="stop-opacity:1;stop-color:#d1d3d4" /></linearGradient><clipPath
       id="clipPath36"
       clipPathUnits="userSpaceOnUse"><path
         id="path38"
         d="M 32.666,188 24,179.2 24,108.8 c 0,-4.857 3.883,-8.8 8.666,-8.8 l 0,0 190.667,0 c 4.785,0 8.667,3.943 8.667,8.8 l 0,0 0,70.4 -8.667,8.8 -190.667,0 z M 160,142 c 0,7.733 6.272,14 14,14 l 0,0 c 7.729,0 14,-6.267 14,-14 l 0,0 c 0,-7.733 -6.271,-14 -14,-14 l 0,0 c -7.728,0 -14,6.267 -14,14 m -92,0 c 0,7.732 6.272,14 14,14 l 0,0 c 7.728,0 14,-6.268 14,-14 l 0,0 c 0,-7.733 -6.272,-14 -14,-14 l 0,0 c -7.728,0 -14,6.267 -14,14" /></clipPath><linearGradient
       id="linearGradient44"
       spreadMethod="pad"
       gradientTransform="matrix(-141.10799,141.10799,141.10799,141.10799,198.554,71.671371)"
       gradientUnits="userSpaceOnUse"
       y2="0"
       x2="1"
       y1="0"
       x1="0"><stop
         id="stop46"
         offset="0"
         style="stop-opacity:1;stop-color:#e6e7e8" /><stop
         id="stop48"
         offset="1"
         style="stop-opacity:1;stop-color:#d1d3d4" /></linearGradient><clipPath
       id="clipPath56"
       clipPathUnits="userSpaceOnUse"><path
         id="path58"
         d="m 82,160 c -9.9,0 -18,-8.1 -18,-18 l 0,0 c 0,-9.9 8.1,-18 18,-18 l 0,0 92,0 c 9.901,0 18,8.1 18,18 l 0,0 c 0,9.9 -8.099,18 -18,18 l 0,0 -92,0 z" /></clipPath><linearGradient
       id="linearGradient64"
       spreadMethod="pad"
       gradientTransform="matrix(71.425011,-71.425011,-71.425011,-71.425011,92.287498,177.71251)"
       gradientUnits="userSpaceOnUse"
       y2="0"
       x2="1"
       y1="0"
       x1="0"><stop
         id="stop66"
         offset="0"
         style="stop-opacity:1;stop-color:#e6e7e8" /><stop
         id="stop68"
         offset="1"
         style="stop-opacity:1;stop-color:#d1d3d4" /></linearGradient><clipPath
       id="clipPath76"
       clipPathUnits="userSpaceOnUse"><path
         id="path78"
         d="m 60.444,80 c -4.222,0 -4.222,-4 -4.222,-4 l 0,0 L 52,56 l 152,0 -4.223,20 c 0,0 0,4 -4.234,4 l 0,0 -135.099,0 z" /></clipPath><linearGradient
       id="linearGradient84"
       spreadMethod="pad"
       gradientTransform="matrix(-84.74575,84.74575,84.74575,84.74575,170.37199,22.371988)"
       gradientUnits="userSpaceOnUse"
       y2="0"
       x2="1"
       y1="0"
       x1="0"><stop
         id="stop86"
         offset="0"
         style="stop-opacity:1;stop-color:#e6e7e8" /><stop
         id="stop88"
         offset="1"
         style="stop-opacity:1;stop-color:#d1d3d4" /></linearGradient><clipPath
       id="clipPath96"
       clipPathUnits="userSpaceOnUse"><path
         id="path98"
         d="M 0,256 256,256 256,0 0,0 0,256 Z" /></clipPath></defs><g
     transform="matrix(1.25,0,0,-1.25,0,320)"
     id="g10"><g
       id="g12"><g
         clip-path="url(#clipPath16)"
         id="g14"><g
           id="g20"><g
             id="g22"><path
               id="path30"
               style="fill:url(#linearGradient24);stroke:none"
               d="M 20.593,200 C 15.85,200 12,196.205 12,191.529 l 0,0 0,-127.058 C 12,59.795 15.85,56 20.593,56 l 0,0 25.777,0 163.26,0 25.778,0 c 4.743,0 8.592,3.795 8.592,8.471 l 0,0 0,127.058 c 0,4.676 -3.849,8.471 -8.592,8.471 l 0,0 -214.815,0 z M 160,142 c 0,7.733 6.271,14 14,14 l 0,0 c 7.727,0 14,-6.267 14,-14 l 0,0 c 0,-7.733 -6.273,-14 -14,-14 l 0,0 c -7.729,0 -14,6.267 -14,14 m -92,0 c 0,7.732 6.272,14 14,14 l 0,0 c 7.728,0 14,-6.268 14,-14 l 0,0 c 0,-7.733 -6.272,-14 -14,-14 l 0,0 c -7.728,0 -14,6.267 -14,14" /></g></g></g></g><g
       id="g32"><g
         clip-path="url(#clipPath36)"
         id="g34"><g
           id="g40"><g
             id="g42"><path
               id="path50"
               style="fill:url(#linearGradient44);stroke:none"
               d="M 32.666,188 24,179.2 24,108.8 c 0,-4.857 3.883,-8.8 8.666,-8.8 l 0,0 190.667,0 c 4.785,0 8.667,3.943 8.667,8.8 l 0,0 0,70.4 -8.667,8.8 -190.667,0 z M 160,142 c 0,7.733 6.272,14 14,14 l 0,0 c 7.729,0 14,-6.267 14,-14 l 0,0 c 0,-7.733 -6.271,-14 -14,-14 l 0,0 c -7.728,0 -14,6.267 -14,14 m -92,0 c 0,7.732 6.272,14 14,14 l 0,0 c 7.728,0 14,-6.268 14,-14 l 0,0 c 0,-7.733 -6.272,-14 -14,-14 l 0,0 c -7.728,0 -14,6.267 -14,14" /></g></g></g></g><g
       id="g52"><g
         clip-path="url(#clipPath56)"
         id="g54"><g
           id="g60"><g
             id="g62"><path
               id="path70"
               style="fill:url(#linearGradient64);stroke:none"
               d="m 82,160 c -9.9,0 -18,-8.1 -18,-18 l 0,0 c 0,-9.9 8.1,-18 18,-18 l 0,0 92,0 c 9.901,0 18,8.1 18,18 l 0,0 c 0,9.9 -8.099,18 -18,18 l 0,0 -92,0 z" /></g></g></g></g><g
       id="g72"><g
         clip-path="url(#clipPath76)"
         id="g74"><g
           id="g80"><g
             id="g82"><path
               id="path90"
               style="fill:url(#linearGradient84);stroke:none"
               d="m 60.444,80 c -4.222,0 -4.222,-4 -4.222,-4 l 0,0 L 52,56 l 152,0 -4.223,20 c 0,0 0,4 -4.234,4 l 0,0 -135.099,0 z" /></g></g></g></g><g
       id="g92"><g
         clip-path="url(#clipPath96)"
         id="g94"><g
           transform="translate(72,60)"
           id="g100"><path
             id="path102"
             style="fill:#999999;fill-opacity:1;fill-rule:nonzero;stroke:none"
             d="M 0,0 C -2.212,0 -4,1.788 -4,4 -4,6.212 -2.212,8 0,8 2.212,8 4,6.212 4,4 4,1.788 2.212,0 0,0" /></g><g
           transform="translate(92,64)"
           id="g104"><path
             id="path106"
             style="fill:#999999;fill-opacity:1;fill-rule:nonzero;stroke:none"
             d="M 0,0 C -2.212,0 -4,1.788 -4,4 -4,6.212 -2.212,8 0,8 2.212,8 4,6.212 4,4 4,1.788 2.212,0 0,0" /></g><g
           transform="translate(128,68)"
           id="g108"><path
             id="path110"
             style="fill:#999999;fill-opacity:1;fill-rule:nonzero;stroke:none"
             d="M 0,0 C -2.212,0 -4,1.788 -4,4 -4,6.212 -2.212,8 0,8 2.212,8 4,6.212 4,4 4,1.788 2.212,0 0,0" /></g><g
           transform="translate(164,64)"
           id="g112"><path
             id="path114"
             style="fill:#999999;fill-opacity:1;fill-rule:nonzero;stroke:none"
             d="M 0,0 C -2.212,0 -4,1.788 -4,4 -4,6.212 -2.212,8 0,8 2.212,8 4,6.212 4,4 4,1.788 2.212,0 0,0" /></g><g
           transform="translate(184,60)"
           id="g116"><path
             id="path118"
             style="fill:#999999;fill-opacity:1;fill-rule:nonzero;stroke:none"
             d="M 0,0 C -2.212,0 -4,1.788 -4,4 -4,6.212 -2.212,8 0,8 2.212,8 4,6.212 4,4 4,1.788 2.212,0 0,0" /></g><g
           transform="translate(18.0347,60)"
           id="g120"><path
             id="path122"
             style="fill:#999999;fill-opacity:1;fill-rule:nonzero;stroke:none"
             d="M 0,0 C -1.104,-0.019 -2.015,0.861 -2.034,1.965 -2.054,3.069 -1.173,3.98 -0.069,4 1.034,4.019 1.946,3.139 1.965,2.035 1.984,0.931 1.104,0.02 0,0" /></g><g
           transform="translate(18,192)"
           id="g124"><path
             id="path126"
             style="fill:#999999;fill-opacity:1;fill-rule:nonzero;stroke:none"
             d="M 0,0 C -1.104,0 -2,0.896 -2,2 -2,3.104 -1.104,4 0,4 1.104,4 2,3.104 2,2 2,0.896 1.104,0 0,0" /></g><g
           transform="translate(238,60)"
           id="g128"><path
             id="path130"
             style="fill:#999999;fill-opacity:1;fill-rule:nonzero;stroke:none"
             d="M 0,0 C -1.104,0 -2,0.896 -2,2 -2,3.104 -1.104,4 0,4 1.104,4 2,3.104 2,2 2,0.896 1.104,0 0,0" /></g><g
           transform="translate(238,192)"
           id="g132"><path
             id="path134"
             style="fill:#999999;fill-opacity:1;fill-rule:nonzero;stroke:none"
             d="M 0,0 C -1.104,0 -2,0.896 -2,2 -2,3.104 -1.104,4 0,4 1.104,4 2,3.104 2,2 2,0.896 1.104,0 0,0" /></g><g
           transform="translate(82,156)"
           id="g136"><path
             id="path138"
             style="fill:#999999;fill-opacity:1;fill-rule:nonzero;stroke:none"
             d="m 0,0 c -7.728,0 -14,-6.267 -14,-14 0,-7.732 6.272,-14 14,-14 7.728,0 14,6.268 14,14 C 14,-6.267 7.728,0 0,0 m 0,-4 c 5.514,0 10,-4.486 10,-10 0,-5.514 -4.486,-10 -10,-10 -5.514,0 -10,4.486 -10,10 0,5.514 4.486,10 10,10" /></g><g
           transform="translate(174,156)"
           id="g140"><path
             id="path142"
             style="fill:#999999;fill-opacity:1;fill-rule:nonzero;stroke:none"
             d="m 0,0 c -7.729,0 -14,-6.267 -14,-14 0,-7.732 6.271,-14 14,-14 7.728,0 14,6.268 14,14 C 14,-6.267 7.728,0 0,0 m 0,-4 c 5.514,0 10,-4.486 10,-10 0,-5.514 -4.486,-10 -10,-10 -5.514,0 -10,4.486 -10,10 0,5.514 4.486,10 10,10" /></g><g
           transform="translate(156,132)"
           id="g144"><path
             id="path146"
             style="fill:#ffffff;fill-opacity:1;fill-rule:nonzero;stroke:none"
             d="m 0,0 c 0,-2.212 -2.086,-4 -4.667,-4 l -46.666,0 C -53.914,-4 -56,-2.212 -56,0 l 0,16 c 0,2.212 2.086,4 4.667,4 l 46.666,0 C -2.086,20 0,18.212 0,16 L 0,0 Z" /></g><g
           transform="translate(100,148)"
           id="g148"><path
             id="path150"
             style="fill:#999999;fill-opacity:1;fill-rule:nonzero;stroke:none"
             d="m 0,0 0,-16 c 0,-2.212 2.486,-4 5.562,-4 l 2.736,0 C 10.65,-16.346 12,-12.291 12,-8 12,-3.709 10.65,0.346 8.298,4 L 5.562,4 C 2.486,4 0,2.212 0,0" /></g></g></g></g></svg>