<?xml version="1.0" encoding="UTF-8" standalone="no"?>
<svg
   xmlns:dc="http://purl.org/dc/elements/1.1/"
   xmlns:cc="http://creativecommons.org/ns#"
   xmlns:rdf="http://www.w3.org/1999/02/22-rdf-syntax-ns#"
   xmlns:svg="http://www.w3.org/2000/svg"
   xmlns="http://www.w3.org/2000/svg"
   viewBox="0 0 320 320"
   height="320"
   width="320"
   xml:space="preserve"
   version="1.1"
   id="svg2"><metadata
     id="metadata8"><rdf:RDF><cc:Work
         rdf:about=""><dc:format>image/svg+xml</dc:format><dc:type
           rdf:resource="http://purl.org/dc/dcmitype/StillImage" /></cc:Work></rdf:RDF></metadata><defs
     id="defs6"><clipPath
       id="clipPath16"
       clipPathUnits="userSpaceOnUse"><path
         id="path18"
         d="m 149.482,213.714 -42.963,0 c -7.111,0 -6.312,4.286 -12.889,4.286 l 0,0 c -4.76,0 -12.885,-1.766 -18.303,-3.652 l 0,0 c -0.39,1.278 -1.718,1.676 -5.035,0.837 l 0,0 c -6.114,-1.539 -21.61,-8.263 -26.925,-12.991 l 0,0 c -3.149,-2.811 -4.227,-4.354 -4.227,-7.431 l 0,0 0,-3.643 c -4.314,-4.234 -8.142,-8.704 -11.145,-13.234 l 0,0 C 14.638,157.734 12,135.457 12,110.857 l 0,0 C 12,88.207 16.146,65.66 24.885,46.263 l 0,0 C 27.999,40.344 34.822,38 46.371,38 l 0,0 30.073,0 c 1.947,0 1.947,4.286 4.297,4.286 l 0,0 38.667,0 c 0,0 1.185,4.285 8.592,4.285 l 0,0 c 7.407,0 8.593,-4.285 8.593,-4.285 l 0,0 38.667,0 c 2.35,0 2.35,-4.286 4.295,-4.286 l 0,0 30.075,0 c 11.548,0 18.371,2.344 21.49,8.263 l 0,0 C 239.854,65.66 244,88.207 244,110.857 l 0,0 c 0,24.6 -2.638,46.877 -15.999,67.033 l 0,0 c -3.004,4.53 -6.831,9 -11.145,13.234 l 0,0 0,3.643 c 0,3.082 -1.07,4.62 -4.227,7.432 l 0,0 c -5.31,4.731 -20.812,11.451 -26.921,12.989 l 0,0 c -3.317,0.836 -4.649,0.442 -5.031,-0.835 l 0,0 C 175.255,216.234 167.126,218 162.371,218 l 0,0 c -6.583,0 -5.779,-4.286 -12.889,-4.286" /></clipPath><linearGradient
       id="linearGradient24"
       spreadMethod="pad"
       gradientTransform="matrix(-172.29344,172.29344,172.29344,172.29344,214.14815,28.48218)"
       gradientUnits="userSpaceOnUse"
       y2="0"
       x2="1"
       y1="0"
       x1="0"><stop
         id="stop26"
         offset="0"
         style="stop-opacity:1;stop-color:#e6e7e8" /><stop
         id="stop28"
         offset="1"
         style="stop-opacity:1;stop-color:#d1d3d4" /></linearGradient><clipPath
       id="clipPath36"
       clipPathUnits="userSpaceOnUse"><path
         id="path38"
         d="M 106.519,214 C 79.668,214 39.14,191.369 39.14,191.369 l 0,0 c -4.314,-4.241 -8.142,-8.719 -11.145,-13.255 l 0,0 C 14.638,157.929 12,135.616 12,110.975 l 0,0 C 12,88.289 16.146,65.704 24.885,46.276 l 0,0 C 27.999,40.348 34.822,38 46.371,38 l 0,0 30.073,0 c 1.947,0 1.947,4.293 4.297,4.293 l 0,0 38.667,0 c 0,0 1.185,4.293 8.592,4.293 l 0,0 c 7.407,0 8.593,-4.293 8.593,-4.293 l 0,0 38.667,0 c 2.35,0 2.35,-4.293 4.295,-4.293 l 0,0 30.075,0 c 11.548,0 18.371,2.348 21.49,8.276 l 0,0 C 239.854,65.704 244,88.289 244,110.975 l 0,0 c 0,24.641 -2.638,46.954 -15.999,67.142 l 0,0 c -3.004,4.538 -6.831,9.015 -11.145,13.256 l 0,0 c 0,0.285 -1.239,1.553 -3.167,3.326 l 0,0 C 187.702,211.318 149.482,214 149.482,214 l 0,0 -42.963,0 z" /></clipPath><linearGradient
       id="linearGradient44"
       spreadMethod="pad"
       gradientTransform="matrix(168.94614,-168.94614,-168.94614,-168.94614,43.589066,195.82379)"
       gradientUnits="userSpaceOnUse"
       y2="0"
       x2="1"
       y1="0"
       x1="0"><stop
         id="stop46"
         offset="0"
         style="stop-opacity:1;stop-color:#e6e7e8" /><stop
         id="stop48"
         offset="1"
         style="stop-opacity:1;stop-color:#d1d3d4" /></linearGradient><clipPath
       id="clipPath56"
       clipPathUnits="userSpaceOnUse"><path
         id="path58"
         d="M 0,256 256,256 256,0 0,0 0,256 Z" /></clipPath><clipPath
       id="clipPath68"
       clipPathUnits="userSpaceOnUse"><path
         id="path70"
         d="m 150,116 c -1.104,0 -2,-0.896 -2,-2 l 0,0 c 0,-1.104 0.896,-2 2,-2 l 0,0 12,0 c 1.104,0 2,0.896 2,2 l 0,0 c 0,1.104 -0.896,2 -2,2 l 0,0 -12,0 z" /></clipPath><linearGradient
       id="linearGradient76"
       spreadMethod="pad"
       gradientTransform="matrix(8.8280029,-8.8280029,-8.8280029,-8.8280029,151.586,118.414)"
       gradientUnits="userSpaceOnUse"
       y2="0"
       x2="1"
       y1="0"
       x1="0"><stop
         id="stop78"
         offset="0"
         style="stop-opacity:1;stop-color:#e6e7e8" /><stop
         id="stop80"
         offset="1"
         style="stop-opacity:1;stop-color:#d1d3d4" /></linearGradient><clipPath
       id="clipPath88"
       clipPathUnits="userSpaceOnUse"><path
         id="path90"
         d="M 0,256 256,256 256,0 0,0 0,256 Z" /></clipPath><clipPath
       id="clipPath100"
       clipPathUnits="userSpaceOnUse"><path
         id="path102"
         d="m 150,100 c -1.104,0 -2,-0.896 -2,-2 l 0,0 c 0,-1.104 0.896,-2 2,-2 l 0,0 12,0 c 1.104,0 2,0.896 2,2 l 0,0 c 0,1.104 -0.896,2 -2,2 l 0,0 -12,0 z" /></clipPath><linearGradient
       id="linearGradient108"
       spreadMethod="pad"
       gradientTransform="matrix(8.8280029,-8.8280029,-8.8280029,-8.8280029,151.586,102.414)"
       gradientUnits="userSpaceOnUse"
       y2="0"
       x2="1"
       y1="0"
       x1="0"><stop
         id="stop110"
         offset="0"
         style="stop-opacity:1;stop-color:#e6e7e8" /><stop
         id="stop112"
         offset="1"
         style="stop-opacity:1;stop-color:#d1d3d4" /></linearGradient><clipPath
       id="clipPath120"
       clipPathUnits="userSpaceOnUse"><path
         id="path122"
         d="M 0,256 256,256 256,0 0,0 0,256 Z" /></clipPath><clipPath
       id="clipPath132"
       clipPathUnits="userSpaceOnUse"><path
         id="path134"
         d="m 150,84 c -1.104,0 -2,-0.896 -2,-2 l 0,0 c 0,-1.104 0.896,-2 2,-2 l 0,0 12,0 c 1.104,0 2,0.896 2,2 l 0,0 c 0,1.104 -0.896,2 -2,2 l 0,0 -12,0 z" /></clipPath><linearGradient
       id="linearGradient140"
       spreadMethod="pad"
       gradientTransform="matrix(8.8280029,-8.8280029,-8.8280029,-8.8280029,151.586,86.414002)"
       gradientUnits="userSpaceOnUse"
       y2="0"
       x2="1"
       y1="0"
       x1="0"><stop
         id="stop142"
         offset="0"
         style="stop-opacity:1;stop-color:#e6e7e8" /><stop
         id="stop144"
         offset="1"
         style="stop-opacity:1;stop-color:#d1d3d4" /></linearGradient><clipPath
       id="clipPath152"
       clipPathUnits="userSpaceOnUse"><path
         id="path154"
         d="M 0,256 256,256 256,0 0,0 0,256 Z" /></clipPath><clipPath
       id="clipPath164"
       clipPathUnits="userSpaceOnUse"><path
         id="path166"
         d="m 150,68 c -1.104,0 -2,-0.896 -2,-2 l 0,0 c 0,-1.104 0.896,-2 2,-2 l 0,0 12,0 c 1.104,0 2,0.896 2,2 l 0,0 c 0,1.104 -0.896,2 -2,2 l 0,0 -12,0 z" /></clipPath><linearGradient
       id="linearGradient172"
       spreadMethod="pad"
       gradientTransform="matrix(8.8280029,-8.8280029,-8.8280029,-8.8280029,151.586,70.414002)"
       gradientUnits="userSpaceOnUse"
       y2="0"
       x2="1"
       y1="0"
       x1="0"><stop
         id="stop174"
         offset="0"
         style="stop-opacity:1;stop-color:#e6e7e8" /><stop
         id="stop176"
         offset="1"
         style="stop-opacity:1;stop-color:#d1d3d4" /></linearGradient><clipPath
       id="clipPath184"
       clipPathUnits="userSpaceOnUse"><path
         id="path186"
         d="M 0,256 256,256 256,0 0,0 0,256 Z" /></clipPath><clipPath
       id="clipPath196"
       clipPathUnits="userSpaceOnUse"><path
         id="path198"
         d="m 122,116 c -1.104,0 -2,-0.896 -2,-2 l 0,0 c 0,-1.104 0.896,-2 2,-2 l 0,0 12,0 c 1.104,0 2,0.896 2,2 l 0,0 c 0,1.104 -0.896,2 -2,2 l 0,0 -12,0 z" /></clipPath><linearGradient
       id="linearGradient204"
       spreadMethod="pad"
       gradientTransform="matrix(8.8280029,-8.8280029,-8.8280029,-8.8280029,123.586,118.414)"
       gradientUnits="userSpaceOnUse"
       y2="0"
       x2="1"
       y1="0"
       x1="0"><stop
         id="stop206"
         offset="0"
         style="stop-opacity:1;stop-color:#e6e7e8" /><stop
         id="stop208"
         offset="1"
         style="stop-opacity:1;stop-color:#d1d3d4" /></linearGradient><clipPath
       id="clipPath216"
       clipPathUnits="userSpaceOnUse"><path
         id="path218"
         d="M 0,256 256,256 256,0 0,0 0,256 Z" /></clipPath><clipPath
       id="clipPath228"
       clipPathUnits="userSpaceOnUse"><path
         id="path230"
         d="m 122,100 c -1.104,0 -2,-0.896 -2,-2 l 0,0 c 0,-1.104 0.896,-2 2,-2 l 0,0 12,0 c 1.104,0 2,0.896 2,2 l 0,0 c 0,1.104 -0.896,2 -2,2 l 0,0 -12,0 z" /></clipPath><linearGradient
       id="linearGradient236"
       spreadMethod="pad"
       gradientTransform="matrix(8.8280029,-8.8280029,-8.8280029,-8.8280029,123.586,102.414)"
       gradientUnits="userSpaceOnUse"
       y2="0"
       x2="1"
       y1="0"
       x1="0"><stop
         id="stop238"
         offset="0"
         style="stop-opacity:1;stop-color:#e6e7e8" /><stop
         id="stop240"
         offset="1"
         style="stop-opacity:1;stop-color:#d1d3d4" /></linearGradient><clipPath
       id="clipPath248"
       clipPathUnits="userSpaceOnUse"><path
         id="path250"
         d="M 0,256 256,256 256,0 0,0 0,256 Z" /></clipPath><clipPath
       id="clipPath260"
       clipPathUnits="userSpaceOnUse"><path
         id="path262"
         d="m 122,84 c -1.104,0 -2,-0.896 -2,-2 l 0,0 c 0,-1.104 0.896,-2 2,-2 l 0,0 12,0 c 1.104,0 2,0.896 2,2 l 0,0 c 0,1.104 -0.896,2 -2,2 l 0,0 -12,0 z" /></clipPath><linearGradient
       id="linearGradient268"
       spreadMethod="pad"
       gradientTransform="matrix(8.8280029,-8.8280029,-8.8280029,-8.8280029,123.586,86.414002)"
       gradientUnits="userSpaceOnUse"
       y2="0"
       x2="1"
       y1="0"
       x1="0"><stop
         id="stop270"
         offset="0"
         style="stop-opacity:1;stop-color:#e6e7e8" /><stop
         id="stop272"
         offset="1"
         style="stop-opacity:1;stop-color:#d1d3d4" /></linearGradient><clipPath
       id="clipPath280"
       clipPathUnits="userSpaceOnUse"><path
         id="path282"
         d="M 0,256 256,256 256,0 0,0 0,256 Z" /></clipPath><clipPath
       id="clipPath292"
       clipPathUnits="userSpaceOnUse"><path
         id="path294"
         d="m 122,68 c -1.104,0 -2,-0.896 -2,-2 l 0,0 c 0,-1.104 0.896,-2 2,-2 l 0,0 12,0 c 1.104,0 2,0.896 2,2 l 0,0 c 0,1.104 -0.896,2 -2,2 l 0,0 -12,0 z" /></clipPath><linearGradient
       id="linearGradient300"
       spreadMethod="pad"
       gradientTransform="matrix(8.8280029,-8.8280029,-8.8280029,-8.8280029,123.586,70.414002)"
       gradientUnits="userSpaceOnUse"
       y2="0"
       x2="1"
       y1="0"
       x1="0"><stop
         id="stop302"
         offset="0"
         style="stop-opacity:1;stop-color:#e6e7e8" /><stop
         id="stop304"
         offset="1"
         style="stop-opacity:1;stop-color:#d1d3d4" /></linearGradient><clipPath
       id="clipPath312"
       clipPathUnits="userSpaceOnUse"><path
         id="path314"
         d="M 0,256 256,256 256,0 0,0 0,256 Z" /></clipPath><clipPath
       id="clipPath324"
       clipPathUnits="userSpaceOnUse"><path
         id="path326"
         d="m 94,116 c -1.104,0 -2,-0.896 -2,-2 l 0,0 c 0,-1.104 0.896,-2 2,-2 l 0,0 12,0 c 1.104,0 2,0.896 2,2 l 0,0 c 0,1.104 -0.896,2 -2,2 l 0,0 -12,0 z" /></clipPath><linearGradient
       id="linearGradient332"
       spreadMethod="pad"
       gradientTransform="matrix(8.8280029,-8.8280029,-8.8280029,-8.8280029,95.585998,118.414)"
       gradientUnits="userSpaceOnUse"
       y2="0"
       x2="1"
       y1="0"
       x1="0"><stop
         id="stop334"
         offset="0"
         style="stop-opacity:1;stop-color:#e6e7e8" /><stop
         id="stop336"
         offset="1"
         style="stop-opacity:1;stop-color:#d1d3d4" /></linearGradient><clipPath
       id="clipPath344"
       clipPathUnits="userSpaceOnUse"><path
         id="path346"
         d="M 0,256 256,256 256,0 0,0 0,256 Z" /></clipPath><clipPath
       id="clipPath356"
       clipPathUnits="userSpaceOnUse"><path
         id="path358"
         d="m 94,100 c -1.104,0 -2,-0.896 -2,-2 l 0,0 c 0,-1.104 0.896,-2 2,-2 l 0,0 12,0 c 1.104,0 2,0.896 2,2 l 0,0 c 0,1.104 -0.896,2 -2,2 l 0,0 -12,0 z" /></clipPath><linearGradient
       id="linearGradient364"
       spreadMethod="pad"
       gradientTransform="matrix(8.8280029,-8.8280029,-8.8280029,-8.8280029,95.585998,102.414)"
       gradientUnits="userSpaceOnUse"
       y2="0"
       x2="1"
       y1="0"
       x1="0"><stop
         id="stop366"
         offset="0"
         style="stop-opacity:1;stop-color:#e6e7e8" /><stop
         id="stop368"
         offset="1"
         style="stop-opacity:1;stop-color:#d1d3d4" /></linearGradient><clipPath
       id="clipPath376"
       clipPathUnits="userSpaceOnUse"><path
         id="path378"
         d="M 0,256 256,256 256,0 0,0 0,256 Z" /></clipPath><clipPath
       id="clipPath388"
       clipPathUnits="userSpaceOnUse"><path
         id="path390"
         d="m 94,84 c -1.104,0 -2,-0.896 -2,-2 l 0,0 c 0,-1.104 0.896,-2 2,-2 l 0,0 12,0 c 1.104,0 2,0.896 2,2 l 0,0 c 0,1.104 -0.896,2 -2,2 l 0,0 -12,0 z" /></clipPath><linearGradient
       id="linearGradient396"
       spreadMethod="pad"
       gradientTransform="matrix(8.8280029,-8.8280029,-8.8280029,-8.8280029,95.585998,86.414002)"
       gradientUnits="userSpaceOnUse"
       y2="0"
       x2="1"
       y1="0"
       x1="0"><stop
         id="stop398"
         offset="0"
         style="stop-opacity:1;stop-color:#e6e7e8" /><stop
         id="stop400"
         offset="1"
         style="stop-opacity:1;stop-color:#d1d3d4" /></linearGradient><clipPath
       id="clipPath408"
       clipPathUnits="userSpaceOnUse"><path
         id="path410"
         d="M 0,256 256,256 256,0 0,0 0,256 Z" /></clipPath><clipPath
       id="clipPath420"
       clipPathUnits="userSpaceOnUse"><path
         id="path422"
         d="m 94,68 c -1.104,0 -2,-0.896 -2,-2 l 0,0 c 0,-1.104 0.896,-2 2,-2 l 0,0 12,0 c 1.104,0 2,0.896 2,2 l 0,0 c 0,1.104 -0.896,2 -2,2 l 0,0 -12,0 z" /></clipPath><linearGradient
       id="linearGradient428"
       spreadMethod="pad"
       gradientTransform="matrix(8.8280029,-8.8280029,-8.8280029,-8.8280029,95.585998,70.414002)"
       gradientUnits="userSpaceOnUse"
       y2="0"
       x2="1"
       y1="0"
       x1="0"><stop
         id="stop430"
         offset="0"
         style="stop-opacity:1;stop-color:#e6e7e8" /><stop
         id="stop432"
         offset="1"
         style="stop-opacity:1;stop-color:#d1d3d4" /></linearGradient><clipPath
       id="clipPath440"
       clipPathUnits="userSpaceOnUse"><path
         id="path442"
         d="m 41.563,168.957 c 0,-11.028 8.971,-20 20.001,-20 l 0,0 c 11.026,0 19.999,8.972 19.999,20 l 0,0 c 0,11.028 -8.973,20 -19.999,20 l 0,0 c -11.03,0 -20.001,-8.972 -20.001,-20" /></clipPath><linearGradient
       id="linearGradient448"
       spreadMethod="pad"
       gradientTransform="matrix(-28.271057,28.271057,28.271057,28.271057,75.698196,154.8215)"
       gradientUnits="userSpaceOnUse"
       y2="0"
       x2="1"
       y1="0"
       x1="0"><stop
         id="stop450"
         offset="0"
         style="stop-opacity:1;stop-color:#e6e7e8" /><stop
         id="stop452"
         offset="1"
         style="stop-opacity:1;stop-color:#d1d3d4" /></linearGradient><clipPath
       id="clipPath460"
       clipPathUnits="userSpaceOnUse"><path
         id="path462"
         d="m 43.563,168.957 c 0,-9.925 8.074,-18 18.001,-18 l 0,0 c 9.924,0 17.999,8.075 17.999,18 l 0,0 c 0,9.925 -8.075,18 -17.999,18 l 0,0 c -9.927,0 -18.001,-8.075 -18.001,-18" /></clipPath><linearGradient
       id="linearGradient468"
       spreadMethod="pad"
       gradientTransform="matrix(25.44388,-25.44388,-25.44388,-25.44388,48.840736,181.67897)"
       gradientUnits="userSpaceOnUse"
       y2="0"
       x2="1"
       y1="0"
       x1="0"><stop
         id="stop470"
         offset="0"
         style="stop-opacity:1;stop-color:#e6e7e8" /><stop
         id="stop472"
         offset="1"
         style="stop-opacity:1;stop-color:#d1d3d4" /></linearGradient><clipPath
       id="clipPath480"
       clipPathUnits="userSpaceOnUse"><path
         id="path482"
         d="M 0,256 256,256 256,0 0,0 0,256 Z" /></clipPath><clipPath
       id="clipPath524"
       clipPathUnits="userSpaceOnUse"><path
         id="path526"
         d="M 90.827,128 C 84.857,128 80,123.278 80,117.476 l 0,0 0,-73.476 4.331,0 0,73.476 c 0,3.482 2.914,6.314 6.496,6.314 l 0,0 74.346,0 c 3.582,0 6.497,-2.832 6.497,-6.314 l 0,0 0,-73.476 4.33,0 0,73.476 C 176,123.278 171.143,128 165.173,128 l 0,0 -74.346,0 z" /></clipPath><linearGradient
       id="linearGradient532"
       spreadMethod="pad"
       gradientTransform="matrix(-86.870377,86.870377,86.870377,86.870377,171.4352,39.435188)"
       gradientUnits="userSpaceOnUse"
       y2="0"
       x2="1"
       y1="0"
       x1="0"><stop
         id="stop534"
         offset="0"
         style="stop-opacity:1;stop-color:#e6e7e8" /><stop
         id="stop536"
         offset="1"
         style="stop-opacity:1;stop-color:#d1d3d4" /></linearGradient><clipPath
       id="clipPath544"
       clipPathUnits="userSpaceOnUse"><path
         id="path546"
         d="M 0,256 256,256 256,0 0,0 0,256 Z" /></clipPath><clipPath
       id="clipPath580"
       clipPathUnits="userSpaceOnUse"><path
         id="path582"
         d="m 149.865,203.461 -5.797,-8.978 -32.137,0 -5.796,8.978 c -0.367,0.564 -1.093,0.708 -1.627,0.322 l 0,0 c -0.532,-0.388 -0.668,-1.16 -0.303,-1.726 l 0,0 6.144,-9.518 c 0.218,-0.337 0.58,-0.539 0.966,-0.539 l 0,0 33.371,0 c 0.386,0 0.747,0.202 0.965,0.539 l 0,0 6.145,9.518 c 0.364,0.566 0.228,1.338 -0.304,1.726 l 0,0 c -0.203,0.147 -0.433,0.217 -0.66,0.217 l 0,0 c -0.373,0 -0.739,-0.188 -0.967,-0.539" /></clipPath><linearGradient
       id="linearGradient588"
       spreadMethod="pad"
       gradientTransform="matrix(-26.223137,26.223137,26.223137,26.223137,141.11157,187.96117)"
       gradientUnits="userSpaceOnUse"
       y2="0"
       x2="1"
       y1="0"
       x1="0"><stop
         id="stop590"
         offset="0"
         style="stop-opacity:1;stop-color:#e6e7e8" /><stop
         id="stop592"
         offset="1"
         style="stop-opacity:1;stop-color:#d1d3d4" /></linearGradient></defs><g
     transform="matrix(1.25,0,0,-1.25,0,320)"
     id="g10"><g
       id="g12"><g
         clip-path="url(#clipPath16)"
         id="g14"><g
           id="g20"><g
             id="g22"><path
               id="path30"
               style="fill:url(#linearGradient24);stroke:none"
               d="m 149.482,213.714 -42.963,0 c -7.111,0 -6.312,4.286 -12.889,4.286 l 0,0 c -4.76,0 -12.885,-1.766 -18.303,-3.652 l 0,0 c -0.39,1.278 -1.718,1.676 -5.035,0.837 l 0,0 c -6.114,-1.539 -21.61,-8.263 -26.925,-12.991 l 0,0 c -3.149,-2.811 -4.227,-4.354 -4.227,-7.431 l 0,0 0,-3.643 c -4.314,-4.234 -8.142,-8.704 -11.145,-13.234 l 0,0 C 14.638,157.734 12,135.457 12,110.857 l 0,0 C 12,88.207 16.146,65.66 24.885,46.263 l 0,0 C 27.999,40.344 34.822,38 46.371,38 l 0,0 30.073,0 c 1.947,0 1.947,4.286 4.297,4.286 l 0,0 38.667,0 c 0,0 1.185,4.285 8.592,4.285 l 0,0 c 7.407,0 8.593,-4.285 8.593,-4.285 l 0,0 38.667,0 c 2.35,0 2.35,-4.286 4.295,-4.286 l 0,0 30.075,0 c 11.548,0 18.371,2.344 21.49,8.263 l 0,0 C 239.854,65.66 244,88.207 244,110.857 l 0,0 c 0,24.6 -2.638,46.877 -15.999,67.033 l 0,0 c -3.004,4.53 -6.831,9 -11.145,13.234 l 0,0 0,3.643 c 0,3.082 -1.07,4.62 -4.227,7.432 l 0,0 c -5.31,4.731 -20.812,11.451 -26.921,12.989 l 0,0 c -3.317,0.836 -4.649,0.442 -5.031,-0.835 l 0,0 C 175.255,216.234 167.126,218 162.371,218 l 0,0 c -6.583,0 -5.779,-4.286 -12.889,-4.286" /></g></g></g></g><g
       id="g32"><g
         clip-path="url(#clipPath36)"
         id="g34"><g
           id="g40"><g
             id="g42"><path
               id="path50"
               style="fill:url(#linearGradient44);stroke:none"
               d="M 106.519,214 C 79.668,214 39.14,191.369 39.14,191.369 l 0,0 c -4.314,-4.241 -8.142,-8.719 -11.145,-13.255 l 0,0 C 14.638,157.929 12,135.616 12,110.975 l 0,0 C 12,88.289 16.146,65.704 24.885,46.276 l 0,0 C 27.999,40.348 34.822,38 46.371,38 l 0,0 30.073,0 c 1.947,0 1.947,4.293 4.297,4.293 l 0,0 38.667,0 c 0,0 1.185,4.293 8.592,4.293 l 0,0 c 7.407,0 8.593,-4.293 8.593,-4.293 l 0,0 38.667,0 c 2.35,0 2.35,-4.293 4.295,-4.293 l 0,0 30.075,0 c 11.548,0 18.371,2.348 21.49,8.276 l 0,0 C 239.854,65.704 244,88.289 244,110.975 l 0,0 c 0,24.641 -2.638,46.954 -15.999,67.142 l 0,0 c -3.004,4.538 -6.831,9.015 -11.145,13.256 l 0,0 c 0,0.285 -1.239,1.553 -3.167,3.326 l 0,0 C 187.702,211.318 149.482,214 149.482,214 l 0,0 -42.963,0 z" /></g></g></g></g><g
       id="g52"><g
         clip-path="url(#clipPath56)"
         id="g54"><g
           transform="translate(162,114)"
           id="g60"><path
             id="path62"
             style="fill:#999999;fill-opacity:1;fill-rule:nonzero;stroke:none"
             d="m 0,0 c 0,-3.314 -2.686,-6 -6,-6 -3.314,0 -6,2.686 -6,6 0,3.314 2.686,6 6,6 3.314,0 6,-2.686 6,-6" /></g></g></g><g
       id="g64"><g
         clip-path="url(#clipPath68)"
         id="g66"><g
           id="g72"><g
             id="g74"><path
               id="path82"
               style="fill:url(#linearGradient76);stroke:none"
               d="m 150,116 c -1.104,0 -2,-0.896 -2,-2 l 0,0 c 0,-1.104 0.896,-2 2,-2 l 0,0 12,0 c 1.104,0 2,0.896 2,2 l 0,0 c 0,1.104 -0.896,2 -2,2 l 0,0 -12,0 z" /></g></g></g></g><g
       id="g84"><g
         clip-path="url(#clipPath88)"
         id="g86"><g
           transform="translate(162,98)"
           id="g92"><path
             id="path94"
             style="fill:#999999;fill-opacity:1;fill-rule:nonzero;stroke:none"
             d="m 0,0 c 0,-3.314 -2.686,-6 -6,-6 -3.314,0 -6,2.686 -6,6 0,3.314 2.686,6 6,6 3.314,0 6,-2.686 6,-6" /></g></g></g><g
       id="g96"><g
         clip-path="url(#clipPath100)"
         id="g98"><g
           id="g104"><g
             id="g106"><path
               id="path114"
               style="fill:url(#linearGradient108);stroke:none"
               d="m 150,100 c -1.104,0 -2,-0.896 -2,-2 l 0,0 c 0,-1.104 0.896,-2 2,-2 l 0,0 12,0 c 1.104,0 2,0.896 2,2 l 0,0 c 0,1.104 -0.896,2 -2,2 l 0,0 -12,0 z" /></g></g></g></g><g
       id="g116"><g
         clip-path="url(#clipPath120)"
         id="g118"><g
           transform="translate(162,82)"
           id="g124"><path
             id="path126"
             style="fill:#999999;fill-opacity:1;fill-rule:nonzero;stroke:none"
             d="m 0,0 c 0,-3.314 -2.686,-6 -6,-6 -3.314,0 -6,2.686 -6,6 0,3.314 2.686,6 6,6 3.314,0 6,-2.686 6,-6" /></g></g></g><g
       id="g128"><g
         clip-path="url(#clipPath132)"
         id="g130"><g
           id="g136"><g
             id="g138"><path
               id="path146"
               style="fill:url(#linearGradient140);stroke:none"
               d="m 150,84 c -1.104,0 -2,-0.896 -2,-2 l 0,0 c 0,-1.104 0.896,-2 2,-2 l 0,0 12,0 c 1.104,0 2,0.896 2,2 l 0,0 c 0,1.104 -0.896,2 -2,2 l 0,0 -12,0 z" /></g></g></g></g><g
       id="g148"><g
         clip-path="url(#clipPath152)"
         id="g150"><g
           transform="translate(162,66)"
           id="g156"><path
             id="path158"
             style="fill:#999999;fill-opacity:1;fill-rule:nonzero;stroke:none"
             d="m 0,0 c 0,-3.314 -2.686,-6 -6,-6 -3.314,0 -6,2.686 -6,6 0,3.314 2.686,6 6,6 3.314,0 6,-2.686 6,-6" /></g></g></g><g
       id="g160"><g
         clip-path="url(#clipPath164)"
         id="g162"><g
           id="g168"><g
             id="g170"><path
               id="path178"
               style="fill:url(#linearGradient172);stroke:none"
               d="m 150,68 c -1.104,0 -2,-0.896 -2,-2 l 0,0 c 0,-1.104 0.896,-2 2,-2 l 0,0 12,0 c 1.104,0 2,0.896 2,2 l 0,0 c 0,1.104 -0.896,2 -2,2 l 0,0 -12,0 z" /></g></g></g></g><g
       id="g180"><g
         clip-path="url(#clipPath184)"
         id="g182"><g
           transform="translate(134,114)"
           id="g188"><path
             id="path190"
             style="fill:#999999;fill-opacity:1;fill-rule:nonzero;stroke:none"
             d="m 0,0 c 0,-3.314 -2.686,-6 -6,-6 -3.314,0 -6,2.686 -6,6 0,3.314 2.686,6 6,6 3.314,0 6,-2.686 6,-6" /></g></g></g><g
       id="g192"><g
         clip-path="url(#clipPath196)"
         id="g194"><g
           id="g200"><g
             id="g202"><path
               id="path210"
               style="fill:url(#linearGradient204);stroke:none"
               d="m 122,116 c -1.104,0 -2,-0.896 -2,-2 l 0,0 c 0,-1.104 0.896,-2 2,-2 l 0,0 12,0 c 1.104,0 2,0.896 2,2 l 0,0 c 0,1.104 -0.896,2 -2,2 l 0,0 -12,0 z" /></g></g></g></g><g
       id="g212"><g
         clip-path="url(#clipPath216)"
         id="g214"><g
           transform="translate(134,98)"
           id="g220"><path
             id="path222"
             style="fill:#999999;fill-opacity:1;fill-rule:nonzero;stroke:none"
             d="m 0,0 c 0,-3.314 -2.686,-6 -6,-6 -3.314,0 -6,2.686 -6,6 0,3.314 2.686,6 6,6 3.314,0 6,-2.686 6,-6" /></g></g></g><g
       id="g224"><g
         clip-path="url(#clipPath228)"
         id="g226"><g
           id="g232"><g
             id="g234"><path
               id="path242"
               style="fill:url(#linearGradient236);stroke:none"
               d="m 122,100 c -1.104,0 -2,-0.896 -2,-2 l 0,0 c 0,-1.104 0.896,-2 2,-2 l 0,0 12,0 c 1.104,0 2,0.896 2,2 l 0,0 c 0,1.104 -0.896,2 -2,2 l 0,0 -12,0 z" /></g></g></g></g><g
       id="g244"><g
         clip-path="url(#clipPath248)"
         id="g246"><g
           transform="translate(134,82)"
           id="g252"><path
             id="path254"
             style="fill:#999999;fill-opacity:1;fill-rule:nonzero;stroke:none"
             d="m 0,0 c 0,-3.314 -2.686,-6 -6,-6 -3.314,0 -6,2.686 -6,6 0,3.314 2.686,6 6,6 3.314,0 6,-2.686 6,-6" /></g></g></g><g
       id="g256"><g
         clip-path="url(#clipPath260)"
         id="g258"><g
           id="g264"><g
             id="g266"><path
               id="path274"
               style="fill:url(#linearGradient268);stroke:none"
               d="m 122,84 c -1.104,0 -2,-0.896 -2,-2 l 0,0 c 0,-1.104 0.896,-2 2,-2 l 0,0 12,0 c 1.104,0 2,0.896 2,2 l 0,0 c 0,1.104 -0.896,2 -2,2 l 0,0 -12,0 z" /></g></g></g></g><g
       id="g276"><g
         clip-path="url(#clipPath280)"
         id="g278"><g
           transform="translate(134,66)"
           id="g284"><path
             id="path286"
             style="fill:#999999;fill-opacity:1;fill-rule:nonzero;stroke:none"
             d="m 0,0 c 0,-3.314 -2.686,-6 -6,-6 -3.314,0 -6,2.686 -6,6 0,3.314 2.686,6 6,6 3.314,0 6,-2.686 6,-6" /></g></g></g><g
       id="g288"><g
         clip-path="url(#clipPath292)"
         id="g290"><g
           id="g296"><g
             id="g298"><path
               id="path306"
               style="fill:url(#linearGradient300);stroke:none"
               d="m 122,68 c -1.104,0 -2,-0.896 -2,-2 l 0,0 c 0,-1.104 0.896,-2 2,-2 l 0,0 12,0 c 1.104,0 2,0.896 2,2 l 0,0 c 0,1.104 -0.896,2 -2,2 l 0,0 -12,0 z" /></g></g></g></g><g
       id="g308"><g
         clip-path="url(#clipPath312)"
         id="g310"><g
           transform="translate(106,114)"
           id="g316"><path
             id="path318"
             style="fill:#999999;fill-opacity:1;fill-rule:nonzero;stroke:none"
             d="m 0,0 c 0,-3.314 -2.686,-6 -6,-6 -3.314,0 -6,2.686 -6,6 0,3.314 2.686,6 6,6 3.314,0 6,-2.686 6,-6" /></g></g></g><g
       id="g320"><g
         clip-path="url(#clipPath324)"
         id="g322"><g
           id="g328"><g
             id="g330"><path
               id="path338"
               style="fill:url(#linearGradient332);stroke:none"
               d="m 94,116 c -1.104,0 -2,-0.896 -2,-2 l 0,0 c 0,-1.104 0.896,-2 2,-2 l 0,0 12,0 c 1.104,0 2,0.896 2,2 l 0,0 c 0,1.104 -0.896,2 -2,2 l 0,0 -12,0 z" /></g></g></g></g><g
       id="g340"><g
         clip-path="url(#clipPath344)"
         id="g342"><g
           transform="translate(106,98)"
           id="g348"><path
             id="path350"
             style="fill:#999999;fill-opacity:1;fill-rule:nonzero;stroke:none"
             d="m 0,0 c 0,-3.314 -2.686,-6 -6,-6 -3.314,0 -6,2.686 -6,6 0,3.314 2.686,6 6,6 3.314,0 6,-2.686 6,-6" /></g></g></g><g
       id="g352"><g
         clip-path="url(#clipPath356)"
         id="g354"><g
           id="g360"><g
             id="g362"><path
               id="path370"
               style="fill:url(#linearGradient364);stroke:none"
               d="m 94,100 c -1.104,0 -2,-0.896 -2,-2 l 0,0 c 0,-1.104 0.896,-2 2,-2 l 0,0 12,0 c 1.104,0 2,0.896 2,2 l 0,0 c 0,1.104 -0.896,2 -2,2 l 0,0 -12,0 z" /></g></g></g></g><g
       id="g372"><g
         clip-path="url(#clipPath376)"
         id="g374"><g
           transform="translate(106,82)"
           id="g380"><path
             id="path382"
             style="fill:#999999;fill-opacity:1;fill-rule:nonzero;stroke:none"
             d="m 0,0 c 0,-3.314 -2.686,-6 -6,-6 -3.314,0 -6,2.686 -6,6 0,3.314 2.686,6 6,6 3.314,0 6,-2.686 6,-6" /></g></g></g><g
       id="g384"><g
         clip-path="url(#clipPath388)"
         id="g386"><g
           id="g392"><g
             id="g394"><path
               id="path402"
               style="fill:url(#linearGradient396);stroke:none"
               d="m 94,84 c -1.104,0 -2,-0.896 -2,-2 l 0,0 c 0,-1.104 0.896,-2 2,-2 l 0,0 12,0 c 1.104,0 2,0.896 2,2 l 0,0 c 0,1.104 -0.896,2 -2,2 l 0,0 -12,0 z" /></g></g></g></g><g
       id="g404"><g
         clip-path="url(#clipPath408)"
         id="g406"><g
           transform="translate(106,66)"
           id="g412"><path
             id="path414"
             style="fill:#999999;fill-opacity:1;fill-rule:nonzero;stroke:none"
             d="m 0,0 c 0,-3.314 -2.686,-6 -6,-6 -3.314,0 -6,2.686 -6,6 0,3.314 2.686,6 6,6 3.314,0 6,-2.686 6,-6" /></g></g></g><g
       id="g416"><g
         clip-path="url(#clipPath420)"
         id="g418"><g
           id="g424"><g
             id="g426"><path
               id="path434"
               style="fill:url(#linearGradient428);stroke:none"
               d="m 94,68 c -1.104,0 -2,-0.896 -2,-2 l 0,0 c 0,-1.104 0.896,-2 2,-2 l 0,0 12,0 c 1.104,0 2,0.896 2,2 l 0,0 c 0,1.104 -0.896,2 -2,2 l 0,0 -12,0 z" /></g></g></g></g><g
       id="g436"><g
         clip-path="url(#clipPath440)"
         id="g438"><g
           id="g444"><g
             id="g446"><path
               id="path454"
               style="fill:url(#linearGradient448);stroke:none"
               d="m 41.563,168.957 c 0,-11.028 8.971,-20 20.001,-20 l 0,0 c 11.026,0 19.999,8.972 19.999,20 l 0,0 c 0,11.028 -8.973,20 -19.999,20 l 0,0 c -11.03,0 -20.001,-8.972 -20.001,-20" /></g></g></g></g><g
       id="g456"><g
         clip-path="url(#clipPath460)"
         id="g458"><g
           id="g464"><g
             id="g466"><path
               id="path474"
               style="fill:url(#linearGradient468);stroke:none"
               d="m 43.563,168.957 c 0,-9.925 8.074,-18 18.001,-18 l 0,0 c 9.924,0 17.999,8.075 17.999,18 l 0,0 c 0,9.925 -8.075,18 -17.999,18 l 0,0 c -9.927,0 -18.001,-8.075 -18.001,-18" /></g></g></g></g><g
       id="g476"><g
         clip-path="url(#clipPath480)"
         id="g478"><g
           transform="translate(75.5631,166.957)"
           id="g484"><path
             id="path486"
             style="fill:#999999;fill-opacity:1;fill-rule:nonzero;stroke:none"
             d="m 0,0 c 0,-2.212 -1.788,-4 -4,-4 -2.212,0 -4,-1.788 -4,-4 0,-2.212 -1.788,-4 -4,-4 l -4,0 c -2.212,0 -4,1.788 -4,4 0,2.212 -1.792,4 -4,4 -2.212,0 -4,1.788 -4,4 l 0,4 c 0,2.212 1.788,4 4,4 2.212,0 4,1.788 4,4 0,2.212 1.788,4 4,4 l 4,0 c 2.212,0 4,-1.788 4,-4 0,-2.212 1.792,-4 4,-4 2.212,0 4,-1.788 4,-4 L 0,0 Z" /></g><g
           transform="translate(111.2728,155.7576)"
           id="g488"><path
             id="path490"
             style="fill:#999999;fill-opacity:1;fill-rule:nonzero;stroke:none"
             d="M 0,0 -7.03,-7.03 C -8,-8 -9.576,-8 -10.546,-7.03 c -0.969,0.969 -0.969,2.545 0,3.515 l 7.031,7.03 c 0.969,0.97 2.545,0.97 3.515,0 C 0.97,2.546 0.97,0.97 0,0" /></g><g
           transform="translate(131.2728,155.7576)"
           id="g492"><path
             id="path494"
             style="fill:#999999;fill-opacity:1;fill-rule:nonzero;stroke:none"
             d="M 0,0 -7.03,-7.03 C -8,-8 -9.576,-8 -10.546,-7.03 c -0.969,0.969 -0.969,2.545 0,3.515 l 7.031,7.03 c 0.969,0.97 2.545,0.97 3.515,0 C 0.97,2.546 0.97,0.97 0,0" /></g><g
           transform="translate(148,162)"
           id="g496"><path
             id="path498"
             style="fill:#999999;fill-opacity:1;fill-rule:nonzero;stroke:none"
             d="M 0,0 C 0,3.312 2.688,6 6,6 9.312,6 12,3.312 12,0 12,-3.312 9.312,-6 6,-6 2.688,-6 0,-3.312 0,0" /></g><g
           transform="translate(164,176)"
           id="g500"><path
             id="path502"
             style="fill:#999999;fill-opacity:1;fill-rule:nonzero;stroke:none"
             d="M 0,0 C 0,3.312 2.688,6 6,6 9.312,6 12,3.312 12,0 12,-3.312 9.312,-6 6,-6 2.688,-6 0,-3.312 0,0" /></g><g
           transform="translate(180,190)"
           id="g504"><path
             id="path506"
             style="fill:#999999;fill-opacity:1;fill-rule:nonzero;stroke:none"
             d="M 0,0 C 0,3.312 2.688,6 6,6 9.312,6 12,3.312 12,0 12,-3.312 9.312,-6 6,-6 2.688,-6 0,-3.312 0,0" /></g><g
           transform="translate(168,136)"
           id="g508"><path
             id="path510"
             style="fill:#999999;fill-opacity:1;fill-rule:nonzero;stroke:none"
             d="m 0,0 c -4.416,0 -8,3.584 -8,8 0,4.416 3.584,8 8,8 C 4.416,16 8,12.416 8,8 8,3.584 4.416,0 0,0" /></g><g
           transform="translate(186,152)"
           id="g512"><path
             id="path514"
             style="fill:#999999;fill-opacity:1;fill-rule:nonzero;stroke:none"
             d="m 0,0 c -4.416,0 -8,3.584 -8,8 0,4.416 3.584,8 8,8 C 4.416,16 8,12.416 8,8 8,3.584 4.416,0 0,0" /></g><g
           transform="translate(204,168)"
           id="g516"><path
             id="path518"
             style="fill:#999999;fill-opacity:1;fill-rule:nonzero;stroke:none"
             d="m 0,0 c -4.416,0 -8,3.584 -8,8 0,4.416 3.584,8 8,8 C 4.416,16 8,12.416 8,8 8,3.584 4.416,0 0,0" /></g></g></g><g
       id="g520"><g
         clip-path="url(#clipPath524)"
         id="g522"><g
           id="g528"><g
             id="g530"><path
               id="path538"
               style="fill:url(#linearGradient532);stroke:none"
               d="M 90.827,128 C 84.857,128 80,123.278 80,117.476 l 0,0 0,-73.476 4.331,0 0,73.476 c 0,3.482 2.914,6.314 6.496,6.314 l 0,0 74.346,0 c 3.582,0 6.497,-2.832 6.497,-6.314 l 0,0 0,-73.476 4.33,0 0,73.476 C 176,123.278 171.143,128 165.173,128 l 0,0 -74.346,0 z" /></g></g></g></g><g
       id="g540"><g
         clip-path="url(#clipPath544)"
         id="g542"><path
           id="path548"
           style="fill:#cccccc;fill-opacity:1;fill-rule:nonzero;stroke:none"
           d="m 180,116 8,0 0,8 -8,0 0,-8 z" /><path
           id="path550"
           style="fill:#cccccc;fill-opacity:1;fill-rule:nonzero;stroke:none"
           d="m 180,104 8,0 0,8 -8,0 0,-8 z" /><path
           id="path552"
           style="fill:#cccccc;fill-opacity:1;fill-rule:nonzero;stroke:none"
           d="m 180,92 12,0 0,8 -12,0 0,-8 z" /><path
           id="path554"
           style="fill:#cccccc;fill-opacity:1;fill-rule:nonzero;stroke:none"
           d="m 180,80 12,0 0,8 -12,0 0,-8 z" /><path
           id="path556"
           style="fill:#cccccc;fill-opacity:1;fill-rule:nonzero;stroke:none"
           d="m 180,68 12,0 0,8 -12,0 0,-8 z" /><path
           id="path558"
           style="fill:#cccccc;fill-opacity:1;fill-rule:nonzero;stroke:none"
           d="m 180,56.1 16,0 0,8.4 -16,0 0,-8.4 z" /><path
           id="path560"
           style="fill:#cccccc;fill-opacity:1;fill-rule:nonzero;stroke:none"
           d="m 180,43.5 16,0 0,8.4 -16,0 0,-8.4 z" /><path
           id="path562"
           style="fill:#cccccc;fill-opacity:1;fill-rule:nonzero;stroke:none"
           d="m 68,116 8,0 0,8 -8,0 0,-8 z" /><path
           id="path564"
           style="fill:#cccccc;fill-opacity:1;fill-rule:nonzero;stroke:none"
           d="m 68,104 8,0 0,8 -8,0 0,-8 z" /><path
           id="path566"
           style="fill:#cccccc;fill-opacity:1;fill-rule:nonzero;stroke:none"
           d="m 64,92 12,0 0,8 -12,0 0,-8 z" /><path
           id="path568"
           style="fill:#cccccc;fill-opacity:1;fill-rule:nonzero;stroke:none"
           d="m 64,80 12,0 0,8 -12,0 0,-8 z" /><path
           id="path570"
           style="fill:#cccccc;fill-opacity:1;fill-rule:nonzero;stroke:none"
           d="m 64,68 12,0 0,8 -12,0 0,-8 z" /><path
           id="path572"
           style="fill:#cccccc;fill-opacity:1;fill-rule:nonzero;stroke:none"
           d="m 60,56 16,0 0,8 -16,0 0,-8 z" /><path
           id="path574"
           style="fill:#cccccc;fill-opacity:1;fill-rule:nonzero;stroke:none"
           d="m 60,44 16,0 0,8 -16,0 0,-8 z" /></g></g><g
       id="g576"><g
         clip-path="url(#clipPath580)"
         id="g578"><g
           id="g584"><g
             id="g586"><path
               id="path594"
               style="fill:url(#linearGradient588);stroke:none"
               d="m 149.865,203.461 -5.797,-8.978 -32.137,0 -5.796,8.978 c -0.367,0.564 -1.093,0.708 -1.627,0.322 l 0,0 c -0.532,-0.388 -0.668,-1.16 -0.303,-1.726 l 0,0 6.144,-9.518 c 0.218,-0.337 0.58,-0.539 0.966,-0.539 l 0,0 33.371,0 c 0.386,0 0.747,0.202 0.965,0.539 l 0,0 6.145,9.518 c 0.364,0.566 0.228,1.338 -0.304,1.726 l 0,0 c -0.203,0.147 -0.433,0.217 -0.66,0.217 l 0,0 c -0.373,0 -0.739,-0.188 -0.967,-0.539" /></g></g></g></g></g></svg>