<?xml version="1.0" encoding="UTF-8" standalone="no"?>
<svg
   xmlns:dc="http://purl.org/dc/elements/1.1/"
   xmlns:cc="http://creativecommons.org/ns#"
   xmlns:rdf="http://www.w3.org/1999/02/22-rdf-syntax-ns#"
   xmlns:svg="http://www.w3.org/2000/svg"
   xmlns="http://www.w3.org/2000/svg"
   viewBox="0 0 320 320"
   height="320"
   width="320"
   xml:space="preserve"
   version="1.1"
   id="svg2"><metadata
     id="metadata8"><rdf:RDF><cc:Work
         rdf:about=""><dc:format>image/svg+xml</dc:format><dc:type
           rdf:resource="http://purl.org/dc/dcmitype/StillImage" /></cc:Work></rdf:RDF></metadata><defs
     id="defs6"><clipPath
       id="clipPath16"
       clipPathUnits="userSpaceOnUse"><path
         id="path18"
         d="M 17.273,244 C 14.357,244 12,241.643 12,238.728 l 0,0 L 12,38.363 33.091,12 238.728,12 c 2.915,0 5.272,2.357 5.272,5.273 l 0,0 0,221.455 c 0,2.915 -2.357,5.272 -5.272,5.272 l 0,0 -221.455,0 z" /></clipPath><linearGradient
       id="linearGradient24"
       spreadMethod="pad"
       gradientTransform="matrix(228.91418,-228.91418,-228.91418,-228.91418,18.044174,246.95844)"
       gradientUnits="userSpaceOnUse"
       y2="0"
       x2="1"
       y1="0"
       x1="0"><stop
         id="stop26"
         offset="0"
         style="stop-opacity:1;stop-color:#e6e7e8" /><stop
         id="stop28"
         offset="1"
         style="stop-opacity:1;stop-color:#d1d3d4" /></linearGradient><clipPath
       id="clipPath36"
       clipPathUnits="userSpaceOnUse"><path
         id="path38"
         d="M 0,256 256,256 256,0 0,0 0,256 Z" /></clipPath><clipPath
       id="clipPath54"
       clipPathUnits="userSpaceOnUse"><path
         id="path56"
         d="M 75.272,92 C 72.356,92 70,88.749 70,84.728 l 0,0 0,-72.728 116,0 0,72.728 C 186,88.749 183.643,92 180.727,92 l 0,0 -105.455,0 z m 5.274,-7.272 36.909,0 0,-65.455 -36.909,0 0,65.455 z" /></clipPath><linearGradient
       id="linearGradient62"
       spreadMethod="pad"
       gradientTransform="matrix(96.220665,-96.220665,-96.220665,-96.220665,79.889664,98.331001)"
       gradientUnits="userSpaceOnUse"
       y2="0"
       x2="1"
       y1="0"
       x1="0"><stop
         id="stop64"
         offset="0"
         style="stop-opacity:1;stop-color:#e6e7e8" /><stop
         id="stop66"
         offset="1"
         style="stop-opacity:1;stop-color:#d1d3d4" /></linearGradient><clipPath
       id="clipPath74"
       clipPathUnits="userSpaceOnUse"><path
         id="path76"
         d="M 0,256 256,256 256,0 0,0 0,256 Z" /></clipPath></defs><g
     transform="matrix(1.25,0,0,-1.25,0,320)"
     id="g10"><g
       id="g12"><g
         clip-path="url(#clipPath16)"
         id="g14"><g
           id="g20"><g
             id="g22"><path
               id="path30"
               style="fill:url(#linearGradient24);stroke:none"
               d="M 17.273,244 C 14.357,244 12,241.643 12,238.728 l 0,0 L 12,38.363 33.091,12 238.728,12 c 2.915,0 5.272,2.357 5.272,5.273 l 0,0 0,221.455 c 0,2.915 -2.357,5.272 -5.272,5.272 l 0,0 -221.455,0 z" /></g></g></g></g><g
       id="g32"><g
         clip-path="url(#clipPath36)"
         id="g34"><path
           id="path40"
           style="fill:#999999;fill-opacity:1;fill-rule:nonzero;stroke:none"
           d="m 240,212 -16,0 0,12 16,0 0,-12 z" /><g
           transform="translate(220,12)"
           id="g42"><path
             id="path44"
             style="fill:#999999;fill-opacity:1;fill-rule:nonzero;stroke:none"
             d="m 0,0 -160,0 0,82.133 c 0,3.245 2.751,5.867 6.154,5.867 L -6.154,88 C -2.751,88 0,85.378 0,82.133 L 0,0 Z" /></g><g
           transform="translate(37.9998,244)"
           id="g46"><path
             id="path48"
             style="fill:#ffffff;fill-opacity:1;fill-rule:nonzero;stroke:none"
             d="m 0,0 180,0 0,-110.2 c 0,-3.207 -2.366,-5.8 -5.294,-5.8 L 5.294,-116 C 2.366,-116 0,-113.407 0,-110.2 L 0,0 Z" /></g></g></g><g
       id="g50"><g
         clip-path="url(#clipPath54)"
         id="g52"><g
           id="g58"><g
             id="g60"><path
               id="path68"
               style="fill:url(#linearGradient62);stroke:none"
               d="M 75.272,92 C 72.356,92 70,88.749 70,84.728 l 0,0 0,-72.728 116,0 0,72.728 C 186,88.749 183.643,92 180.727,92 l 0,0 -105.455,0 z m 5.274,-7.272 36.909,0 0,-65.455 -36.909,0 0,65.455 z" /></g></g></g></g><g
       id="g70"><g
         clip-path="url(#clipPath74)"
         id="g72"><g
           transform="translate(90.7462,199.3387)"
           id="g78"><path
             id="path80"
             style="fill:#999999;fill-opacity:1;fill-rule:nonzero;stroke:none"
             d="m 0,0 c -0.935,0.882 -2.449,0.882 -3.384,0 l -20.661,-19.486 c -0.935,-0.881 -0.935,-2.31 0,-3.191 0.467,-0.441 1.08,-0.662 1.692,-0.662 0.612,0 1.224,0.221 1.692,0.662 L 0,-3.192 C 0.935,-2.31 0.935,-0.882 0,0" /></g><g
           transform="translate(115.385,199.3387)"
           id="g82"><path
             id="path84"
             style="fill:#999999;fill-opacity:1;fill-rule:nonzero;stroke:none"
             d="m 0,0 c -0.935,0.882 -2.449,0.882 -3.384,0 l -20.661,-19.486 c -0.935,-0.881 -0.935,-2.31 0,-3.191 0.467,-0.441 1.08,-0.662 1.692,-0.662 0.612,0 1.224,0.221 1.692,0.662 L 0,-3.192 C 0.935,-2.31 0.935,-0.882 0,0" /></g><g
           transform="translate(140.0214,199.3387)"
           id="g86"><path
             id="path88"
             style="fill:#999999;fill-opacity:1;fill-rule:nonzero;stroke:none"
             d="m 0,0 c -0.935,0.882 -2.449,0.882 -3.384,0 l -20.659,-19.486 c -0.935,-0.881 -0.935,-2.31 0,-3.191 0.468,-0.441 1.08,-0.662 1.692,-0.662 0.612,0 1.225,0.221 1.692,0.662 L 0,-3.192 C 0.935,-2.31 0.935,-0.882 0,0" /></g><g
           transform="translate(164.6602,199.3387)"
           id="g90"><path
             id="path92"
             style="fill:#999999;fill-opacity:1;fill-rule:nonzero;stroke:none"
             d="m 0,0 c -0.935,0.882 -2.449,0.882 -3.384,0 l -20.659,-19.486 c -0.935,-0.881 -0.935,-2.31 0,-3.191 0.468,-0.441 1.08,-0.662 1.692,-0.662 0.612,0 1.225,0.221 1.692,0.662 L 0,-3.192 C 0.935,-2.31 0.935,-0.882 0,0" /></g><g
           transform="translate(189.2989,199.3387)"
           id="g94"><path
             id="path96"
             style="fill:#999999;fill-opacity:1;fill-rule:nonzero;stroke:none"
             d="m 0,0 c -0.935,0.882 -2.449,0.882 -3.384,0 l -20.659,-19.486 c -0.935,-0.881 -0.935,-2.31 0,-3.191 0.468,-0.441 1.08,-0.662 1.692,-0.662 0.612,0 1.225,0.221 1.692,0.662 L 0,-3.192 C 0.935,-2.31 0.935,-0.882 0,0" /></g></g></g></g></svg>