<?xml version="1.0" encoding="UTF-8" standalone="no"?>
<svg
   xmlns:dc="http://purl.org/dc/elements/1.1/"
   xmlns:cc="http://creativecommons.org/ns#"
   xmlns:rdf="http://www.w3.org/1999/02/22-rdf-syntax-ns#"
   xmlns:svg="http://www.w3.org/2000/svg"
   xmlns="http://www.w3.org/2000/svg"
   viewBox="0 0 320 320"
   height="320"
   width="320"
   xml:space="preserve"
   version="1.1"
   id="svg2"><metadata
     id="metadata8"><rdf:RDF><cc:Work
         rdf:about=""><dc:format>image/svg+xml</dc:format><dc:type
           rdf:resource="http://purl.org/dc/dcmitype/StillImage" /></cc:Work></rdf:RDF></metadata><defs
     id="defs6"><clipPath
       id="clipPath16"
       clipPathUnits="userSpaceOnUse"><path
         id="path18"
         d="M 16.462,244 C 13.998,244 12,242.003 12,239.539 l 0,0 0,-223.077 C 12,13.998 13.998,12 16.462,12 l 0,0 223.077,0 c 2.464,0 4.461,1.998 4.461,4.462 l 0,0 0,223.077 c 0,2.464 -1.997,4.461 -4.461,4.461 l 0,0 -223.077,0 z" /></clipPath><linearGradient
       id="linearGradient24"
       spreadMethod="pad"
       gradientTransform="matrix(229.38649,-229.38649,-229.38649,-229.38649,13.306752,242.69321)"
       gradientUnits="userSpaceOnUse"
       y2="0"
       x2="1"
       y1="0"
       x1="0"><stop
         id="stop26"
         offset="0"
         style="stop-opacity:1;stop-color:#e6e7e8" /><stop
         id="stop28"
         offset="1"
         style="stop-opacity:1;stop-color:#d1d3d4" /></linearGradient><clipPath
       id="clipPath36"
       clipPathUnits="userSpaceOnUse"><path
         id="path38"
         d="M 0,256 256,256 256,0 0,0 0,256 Z" /></clipPath><clipPath
       id="clipPath48"
       clipPathUnits="userSpaceOnUse"><path
         id="path50"
         d="m 22,16 4.001,0 0,28 L 22,44 22,16 Z" /></clipPath><linearGradient
       id="linearGradient56"
       spreadMethod="pad"
       gradientTransform="matrix(-15.999999,15.999999,15.999999,15.999999,32,22)"
       gradientUnits="userSpaceOnUse"
       y2="0"
       x2="1"
       y1="0"
       x1="0"><stop
         id="stop58"
         offset="0"
         style="stop-opacity:1;stop-color:#e6e7e8" /><stop
         id="stop60"
         offset="1"
         style="stop-opacity:1;stop-color:#d1d3d4" /></linearGradient><clipPath
       id="clipPath68"
       clipPathUnits="userSpaceOnUse"><path
         id="path70"
         d="m 30,16 4.001,0 0,28 L 30,44 30,16 Z" /></clipPath><linearGradient
       id="linearGradient76"
       spreadMethod="pad"
       gradientTransform="matrix(-15.999999,15.999999,15.999999,15.999999,40,22)"
       gradientUnits="userSpaceOnUse"
       y2="0"
       x2="1"
       y1="0"
       x1="0"><stop
         id="stop78"
         offset="0"
         style="stop-opacity:1;stop-color:#e6e7e8" /><stop
         id="stop80"
         offset="1"
         style="stop-opacity:1;stop-color:#d1d3d4" /></linearGradient><clipPath
       id="clipPath88"
       clipPathUnits="userSpaceOnUse"><path
         id="path90"
         d="m 38,20 4.001,0 0,24 L 38,44 38,20 Z" /></clipPath><linearGradient
       id="linearGradient96"
       spreadMethod="pad"
       gradientTransform="matrix(-14,14,14,14,47,25)"
       gradientUnits="userSpaceOnUse"
       y2="0"
       x2="1"
       y1="0"
       x1="0"><stop
         id="stop98"
         offset="0"
         style="stop-opacity:1;stop-color:#e6e7e8" /><stop
         id="stop100"
         offset="1"
         style="stop-opacity:1;stop-color:#d1d3d4" /></linearGradient><clipPath
       id="clipPath108"
       clipPathUnits="userSpaceOnUse"><path
         id="path110"
         d="m 46,20 4.001,0 0,24 L 46,44 46,20 Z" /></clipPath><linearGradient
       id="linearGradient116"
       spreadMethod="pad"
       gradientTransform="matrix(-14,14,14,14,55,25)"
       gradientUnits="userSpaceOnUse"
       y2="0"
       x2="1"
       y1="0"
       x1="0"><stop
         id="stop118"
         offset="0"
         style="stop-opacity:1;stop-color:#e6e7e8" /><stop
         id="stop120"
         offset="1"
         style="stop-opacity:1;stop-color:#d1d3d4" /></linearGradient><clipPath
       id="clipPath128"
       clipPathUnits="userSpaceOnUse"><path
         id="path130"
         d="m 54,20 4,0 0,24 -4,0 0,-24 z" /></clipPath><linearGradient
       id="linearGradient136"
       spreadMethod="pad"
       gradientTransform="matrix(-14,14,14,14,63,25)"
       gradientUnits="userSpaceOnUse"
       y2="0"
       x2="1"
       y1="0"
       x1="0"><stop
         id="stop138"
         offset="0"
         style="stop-opacity:1;stop-color:#e6e7e8" /><stop
         id="stop140"
         offset="1"
         style="stop-opacity:1;stop-color:#d1d3d4" /></linearGradient><clipPath
       id="clipPath148"
       clipPathUnits="userSpaceOnUse"><path
         id="path150"
         d="m 62,20 4,0 0,24 -4,0 0,-24 z" /></clipPath><linearGradient
       id="linearGradient156"
       spreadMethod="pad"
       gradientTransform="matrix(-14,14,14,14,71,25)"
       gradientUnits="userSpaceOnUse"
       y2="0"
       x2="1"
       y1="0"
       x1="0"><stop
         id="stop158"
         offset="0"
         style="stop-opacity:1;stop-color:#e6e7e8" /><stop
         id="stop160"
         offset="1"
         style="stop-opacity:1;stop-color:#d1d3d4" /></linearGradient><clipPath
       id="clipPath168"
       clipPathUnits="userSpaceOnUse"><path
         id="path170"
         d="m 70,20 4,0 0,24 -4,0 0,-24 z" /></clipPath><linearGradient
       id="linearGradient176"
       spreadMethod="pad"
       gradientTransform="matrix(-14,14,14,14,79,25)"
       gradientUnits="userSpaceOnUse"
       y2="0"
       x2="1"
       y1="0"
       x1="0"><stop
         id="stop178"
         offset="0"
         style="stop-opacity:1;stop-color:#e6e7e8" /><stop
         id="stop180"
         offset="1"
         style="stop-opacity:1;stop-color:#d1d3d4" /></linearGradient><clipPath
       id="clipPath188"
       clipPathUnits="userSpaceOnUse"><path
         id="path190"
         d="m 78,20 4,0 0,24 -4,0 0,-24 z" /></clipPath><linearGradient
       id="linearGradient196"
       spreadMethod="pad"
       gradientTransform="matrix(-14,14,14,14,87,25)"
       gradientUnits="userSpaceOnUse"
       y2="0"
       x2="1"
       y1="0"
       x1="0"><stop
         id="stop198"
         offset="0"
         style="stop-opacity:1;stop-color:#e6e7e8" /><stop
         id="stop200"
         offset="1"
         style="stop-opacity:1;stop-color:#d1d3d4" /></linearGradient><clipPath
       id="clipPath208"
       clipPathUnits="userSpaceOnUse"><path
         id="path210"
         d="m 86,20 4,0 0,24 -4,0 0,-24 z" /></clipPath><linearGradient
       id="linearGradient216"
       spreadMethod="pad"
       gradientTransform="matrix(-14,14,14,14,95,25)"
       gradientUnits="userSpaceOnUse"
       y2="0"
       x2="1"
       y1="0"
       x1="0"><stop
         id="stop218"
         offset="0"
         style="stop-opacity:1;stop-color:#e6e7e8" /><stop
         id="stop220"
         offset="1"
         style="stop-opacity:1;stop-color:#d1d3d4" /></linearGradient><clipPath
       id="clipPath228"
       clipPathUnits="userSpaceOnUse"><path
         id="path230"
         d="m 94,20 4.001,0 0,24 L 94,44 94,20 Z" /></clipPath><linearGradient
       id="linearGradient236"
       spreadMethod="pad"
       gradientTransform="matrix(-14,14,14,14,103,25)"
       gradientUnits="userSpaceOnUse"
       y2="0"
       x2="1"
       y1="0"
       x1="0"><stop
         id="stop238"
         offset="0"
         style="stop-opacity:1;stop-color:#e6e7e8" /><stop
         id="stop240"
         offset="1"
         style="stop-opacity:1;stop-color:#d1d3d4" /></linearGradient><clipPath
       id="clipPath248"
       clipPathUnits="userSpaceOnUse"><path
         id="path250"
         d="m 102,20 4.001,0 0,24 -4.001,0 0,-24 z" /></clipPath><linearGradient
       id="linearGradient256"
       spreadMethod="pad"
       gradientTransform="matrix(-14,14,14,14,111,25)"
       gradientUnits="userSpaceOnUse"
       y2="0"
       x2="1"
       y1="0"
       x1="0"><stop
         id="stop258"
         offset="0"
         style="stop-opacity:1;stop-color:#e6e7e8" /><stop
         id="stop260"
         offset="1"
         style="stop-opacity:1;stop-color:#d1d3d4" /></linearGradient><clipPath
       id="clipPath268"
       clipPathUnits="userSpaceOnUse"><path
         id="path270"
         d="m 110,20 4.001,0 0,24 -4.001,0 0,-24 z" /></clipPath><linearGradient
       id="linearGradient276"
       spreadMethod="pad"
       gradientTransform="matrix(-14,14,14,14,119,25)"
       gradientUnits="userSpaceOnUse"
       y2="0"
       x2="1"
       y1="0"
       x1="0"><stop
         id="stop278"
         offset="0"
         style="stop-opacity:1;stop-color:#e6e7e8" /><stop
         id="stop280"
         offset="1"
         style="stop-opacity:1;stop-color:#d1d3d4" /></linearGradient><clipPath
       id="clipPath288"
       clipPathUnits="userSpaceOnUse"><path
         id="path290"
         d="m 118,20 4.001,0 0,24 -4.001,0 0,-24 z" /></clipPath><linearGradient
       id="linearGradient296"
       spreadMethod="pad"
       gradientTransform="matrix(-14,14,14,14,127,25)"
       gradientUnits="userSpaceOnUse"
       y2="0"
       x2="1"
       y1="0"
       x1="0"><stop
         id="stop298"
         offset="0"
         style="stop-opacity:1;stop-color:#e6e7e8" /><stop
         id="stop300"
         offset="1"
         style="stop-opacity:1;stop-color:#d1d3d4" /></linearGradient><clipPath
       id="clipPath308"
       clipPathUnits="userSpaceOnUse"><path
         id="path310"
         d="m 126,20 4,0 0,24 -4,0 0,-24 z" /></clipPath><linearGradient
       id="linearGradient316"
       spreadMethod="pad"
       gradientTransform="matrix(-14,14,14,14,135,25)"
       gradientUnits="userSpaceOnUse"
       y2="0"
       x2="1"
       y1="0"
       x1="0"><stop
         id="stop318"
         offset="0"
         style="stop-opacity:1;stop-color:#e6e7e8" /><stop
         id="stop320"
         offset="1"
         style="stop-opacity:1;stop-color:#d1d3d4" /></linearGradient><clipPath
       id="clipPath328"
       clipPathUnits="userSpaceOnUse"><path
         id="path330"
         d="m 134,20 4,0 0,24 -4,0 0,-24 z" /></clipPath><linearGradient
       id="linearGradient336"
       spreadMethod="pad"
       gradientTransform="matrix(-14,14,14,14,143,25)"
       gradientUnits="userSpaceOnUse"
       y2="0"
       x2="1"
       y1="0"
       x1="0"><stop
         id="stop338"
         offset="0"
         style="stop-opacity:1;stop-color:#e6e7e8" /><stop
         id="stop340"
         offset="1"
         style="stop-opacity:1;stop-color:#d1d3d4" /></linearGradient><clipPath
       id="clipPath348"
       clipPathUnits="userSpaceOnUse"><path
         id="path350"
         d="m 142,20 4,0 0,24 -4,0 0,-24 z" /></clipPath><linearGradient
       id="linearGradient356"
       spreadMethod="pad"
       gradientTransform="matrix(-14,14,14,14,151,25)"
       gradientUnits="userSpaceOnUse"
       y2="0"
       x2="1"
       y1="0"
       x1="0"><stop
         id="stop358"
         offset="0"
         style="stop-opacity:1;stop-color:#e6e7e8" /><stop
         id="stop360"
         offset="1"
         style="stop-opacity:1;stop-color:#d1d3d4" /></linearGradient><clipPath
       id="clipPath368"
       clipPathUnits="userSpaceOnUse"><path
         id="path370"
         d="m 150,20 4,0 0,24 -4,0 0,-24 z" /></clipPath><linearGradient
       id="linearGradient376"
       spreadMethod="pad"
       gradientTransform="matrix(-14,14,14,14,159,25)"
       gradientUnits="userSpaceOnUse"
       y2="0"
       x2="1"
       y1="0"
       x1="0"><stop
         id="stop378"
         offset="0"
         style="stop-opacity:1;stop-color:#e6e7e8" /><stop
         id="stop380"
         offset="1"
         style="stop-opacity:1;stop-color:#d1d3d4" /></linearGradient><clipPath
       id="clipPath388"
       clipPathUnits="userSpaceOnUse"><path
         id="path390"
         d="m 158,20 4,0 0,24 -4,0 0,-24 z" /></clipPath><linearGradient
       id="linearGradient396"
       spreadMethod="pad"
       gradientTransform="matrix(-14,14,14,14,167,25)"
       gradientUnits="userSpaceOnUse"
       y2="0"
       x2="1"
       y1="0"
       x1="0"><stop
         id="stop398"
         offset="0"
         style="stop-opacity:1;stop-color:#e6e7e8" /><stop
         id="stop400"
         offset="1"
         style="stop-opacity:1;stop-color:#d1d3d4" /></linearGradient><clipPath
       id="clipPath408"
       clipPathUnits="userSpaceOnUse"><path
         id="path410"
         d="m 166,20 4,0 0,24 -4,0 0,-24 z" /></clipPath><linearGradient
       id="linearGradient416"
       spreadMethod="pad"
       gradientTransform="matrix(-14,14,14,14,175,25)"
       gradientUnits="userSpaceOnUse"
       y2="0"
       x2="1"
       y1="0"
       x1="0"><stop
         id="stop418"
         offset="0"
         style="stop-opacity:1;stop-color:#e6e7e8" /><stop
         id="stop420"
         offset="1"
         style="stop-opacity:1;stop-color:#d1d3d4" /></linearGradient><clipPath
       id="clipPath428"
       clipPathUnits="userSpaceOnUse"><path
         id="path430"
         d="m 174,20 4.001,0 0,24 -4.001,0 0,-24 z" /></clipPath><linearGradient
       id="linearGradient436"
       spreadMethod="pad"
       gradientTransform="matrix(-14,14,14,14,183,25)"
       gradientUnits="userSpaceOnUse"
       y2="0"
       x2="1"
       y1="0"
       x1="0"><stop
         id="stop438"
         offset="0"
         style="stop-opacity:1;stop-color:#e6e7e8" /><stop
         id="stop440"
         offset="1"
         style="stop-opacity:1;stop-color:#d1d3d4" /></linearGradient><clipPath
       id="clipPath448"
       clipPathUnits="userSpaceOnUse"><path
         id="path450"
         d="m 182,20 4,0 0,24 -4,0 0,-24 z" /></clipPath><linearGradient
       id="linearGradient456"
       spreadMethod="pad"
       gradientTransform="matrix(-14,14,14,14,191,25)"
       gradientUnits="userSpaceOnUse"
       y2="0"
       x2="1"
       y1="0"
       x1="0"><stop
         id="stop458"
         offset="0"
         style="stop-opacity:1;stop-color:#e6e7e8" /><stop
         id="stop460"
         offset="1"
         style="stop-opacity:1;stop-color:#d1d3d4" /></linearGradient><clipPath
       id="clipPath468"
       clipPathUnits="userSpaceOnUse"><path
         id="path470"
         d="m 190,20 4.001,0 0,24 -4.001,0 0,-24 z" /></clipPath><linearGradient
       id="linearGradient476"
       spreadMethod="pad"
       gradientTransform="matrix(-14,14,14,14,199,25)"
       gradientUnits="userSpaceOnUse"
       y2="0"
       x2="1"
       y1="0"
       x1="0"><stop
         id="stop478"
         offset="0"
         style="stop-opacity:1;stop-color:#e6e7e8" /><stop
         id="stop480"
         offset="1"
         style="stop-opacity:1;stop-color:#d1d3d4" /></linearGradient><clipPath
       id="clipPath488"
       clipPathUnits="userSpaceOnUse"><path
         id="path490"
         d="m 198,20 4,0 0,24 -4,0 0,-24 z" /></clipPath><linearGradient
       id="linearGradient496"
       spreadMethod="pad"
       gradientTransform="matrix(-14,14,14,14,207,25)"
       gradientUnits="userSpaceOnUse"
       y2="0"
       x2="1"
       y1="0"
       x1="0"><stop
         id="stop498"
         offset="0"
         style="stop-opacity:1;stop-color:#e6e7e8" /><stop
         id="stop500"
         offset="1"
         style="stop-opacity:1;stop-color:#d1d3d4" /></linearGradient><clipPath
       id="clipPath508"
       clipPathUnits="userSpaceOnUse"><path
         id="path510"
         d="m 206,20 4,0 0,24 -4,0 0,-24 z" /></clipPath><linearGradient
       id="linearGradient516"
       spreadMethod="pad"
       gradientTransform="matrix(-14,14,14,14,215,25)"
       gradientUnits="userSpaceOnUse"
       y2="0"
       x2="1"
       y1="0"
       x1="0"><stop
         id="stop518"
         offset="0"
         style="stop-opacity:1;stop-color:#e6e7e8" /><stop
         id="stop520"
         offset="1"
         style="stop-opacity:1;stop-color:#d1d3d4" /></linearGradient><clipPath
       id="clipPath528"
       clipPathUnits="userSpaceOnUse"><path
         id="path530"
         d="m 214,20 4,0 0,24 -4,0 0,-24 z" /></clipPath><linearGradient
       id="linearGradient536"
       spreadMethod="pad"
       gradientTransform="matrix(-14,14,14,14,223,25)"
       gradientUnits="userSpaceOnUse"
       y2="0"
       x2="1"
       y1="0"
       x1="0"><stop
         id="stop538"
         offset="0"
         style="stop-opacity:1;stop-color:#e6e7e8" /><stop
         id="stop540"
         offset="1"
         style="stop-opacity:1;stop-color:#d1d3d4" /></linearGradient><clipPath
       id="clipPath548"
       clipPathUnits="userSpaceOnUse"><path
         id="path550"
         d="m 222,20 4,0 0,24 -4,0 0,-24 z" /></clipPath><linearGradient
       id="linearGradient556"
       spreadMethod="pad"
       gradientTransform="matrix(-14,14,14,14,231,25)"
       gradientUnits="userSpaceOnUse"
       y2="0"
       x2="1"
       y1="0"
       x1="0"><stop
         id="stop558"
         offset="0"
         style="stop-opacity:1;stop-color:#e6e7e8" /><stop
         id="stop560"
         offset="1"
         style="stop-opacity:1;stop-color:#d1d3d4" /></linearGradient><clipPath
       id="clipPath568"
       clipPathUnits="userSpaceOnUse"><path
         id="path570"
         d="m 230,16 4,0 0,28 -4,0 0,-28 z" /></clipPath><linearGradient
       id="linearGradient576"
       spreadMethod="pad"
       gradientTransform="matrix(-15.999999,15.999999,15.999999,15.999999,240,22)"
       gradientUnits="userSpaceOnUse"
       y2="0"
       x2="1"
       y1="0"
       x1="0"><stop
         id="stop578"
         offset="0"
         style="stop-opacity:1;stop-color:#e6e7e8" /><stop
         id="stop580"
         offset="1"
         style="stop-opacity:1;stop-color:#d1d3d4" /></linearGradient><clipPath
       id="clipPath588"
       clipPathUnits="userSpaceOnUse"><path
         id="path590"
         d="M 0,256 256,256 256,0 0,0 0,256 Z" /></clipPath><clipPath
       id="clipPath600"
       clipPathUnits="userSpaceOnUse"><path
         id="path602"
         d="m 22,152 212,0 0,40 -212,0 0,-40 z" /></clipPath><linearGradient
       id="linearGradient608"
       spreadMethod="pad"
       gradientTransform="matrix(-125.99999,125.99999,125.99999,125.99999,191,109)"
       gradientUnits="userSpaceOnUse"
       y2="0"
       x2="1"
       y1="0"
       x1="0"><stop
         id="stop610"
         offset="0"
         style="stop-opacity:1;stop-color:#e6e7e8" /><stop
         id="stop612"
         offset="1"
         style="stop-opacity:1;stop-color:#d1d3d4" /></linearGradient><clipPath
       id="clipPath620"
       clipPathUnits="userSpaceOnUse"><path
         id="path622"
         d="M 0,256 256,256 256,0 0,0 0,256 Z" /></clipPath></defs><g
     transform="matrix(1.25,0,0,-1.25,0,320)"
     id="g10"><g
       id="g12"><g
         clip-path="url(#clipPath16)"
         id="g14"><g
           id="g20"><g
             id="g22"><path
               id="path30"
               style="fill:url(#linearGradient24);stroke:none"
               d="M 16.462,244 C 13.998,244 12,242.003 12,239.539 l 0,0 0,-223.077 C 12,13.998 13.998,12 16.462,12 l 0,0 223.077,0 c 2.464,0 4.461,1.998 4.461,4.462 l 0,0 0,223.077 c 0,2.464 -1.997,4.461 -4.461,4.461 l 0,0 -223.077,0 z" /></g></g></g></g><g
       id="g32"><g
         clip-path="url(#clipPath36)"
         id="g34"><g
           transform="translate(17.89,44)"
           id="g40"><path
             id="path42"
             style="fill:#999999;fill-opacity:1;fill-rule:nonzero;stroke:none"
             d="m 0,0 220.22,0 c 1.044,0 1.89,-0.881 1.89,-1.969 l 0,-24.062 c 0,-1.088 -0.846,-1.969 -1.89,-1.969 L 0,-28 c -1.044,0 -1.89,0.881 -1.89,1.969 l 0,24.062 C -1.89,-0.881 -1.044,0 0,0" /></g></g></g><g
       id="g44"><g
         clip-path="url(#clipPath48)"
         id="g46"><g
           id="g52"><g
             id="g54"><path
               id="path62"
               style="fill:url(#linearGradient56);stroke:none"
               d="m 22,16 4.001,0 0,28 L 22,44 22,16 Z" /></g></g></g></g><g
       id="g64"><g
         clip-path="url(#clipPath68)"
         id="g66"><g
           id="g72"><g
             id="g74"><path
               id="path82"
               style="fill:url(#linearGradient76);stroke:none"
               d="m 30,16 4.001,0 0,28 L 30,44 30,16 Z" /></g></g></g></g><g
       id="g84"><g
         clip-path="url(#clipPath88)"
         id="g86"><g
           id="g92"><g
             id="g94"><path
               id="path102"
               style="fill:url(#linearGradient96);stroke:none"
               d="m 38,20 4.001,0 0,24 L 38,44 38,20 Z" /></g></g></g></g><g
       id="g104"><g
         clip-path="url(#clipPath108)"
         id="g106"><g
           id="g112"><g
             id="g114"><path
               id="path122"
               style="fill:url(#linearGradient116);stroke:none"
               d="m 46,20 4.001,0 0,24 L 46,44 46,20 Z" /></g></g></g></g><g
       id="g124"><g
         clip-path="url(#clipPath128)"
         id="g126"><g
           id="g132"><g
             id="g134"><path
               id="path142"
               style="fill:url(#linearGradient136);stroke:none"
               d="m 54,20 4,0 0,24 -4,0 0,-24 z" /></g></g></g></g><g
       id="g144"><g
         clip-path="url(#clipPath148)"
         id="g146"><g
           id="g152"><g
             id="g154"><path
               id="path162"
               style="fill:url(#linearGradient156);stroke:none"
               d="m 62,20 4,0 0,24 -4,0 0,-24 z" /></g></g></g></g><g
       id="g164"><g
         clip-path="url(#clipPath168)"
         id="g166"><g
           id="g172"><g
             id="g174"><path
               id="path182"
               style="fill:url(#linearGradient176);stroke:none"
               d="m 70,20 4,0 0,24 -4,0 0,-24 z" /></g></g></g></g><g
       id="g184"><g
         clip-path="url(#clipPath188)"
         id="g186"><g
           id="g192"><g
             id="g194"><path
               id="path202"
               style="fill:url(#linearGradient196);stroke:none"
               d="m 78,20 4,0 0,24 -4,0 0,-24 z" /></g></g></g></g><g
       id="g204"><g
         clip-path="url(#clipPath208)"
         id="g206"><g
           id="g212"><g
             id="g214"><path
               id="path222"
               style="fill:url(#linearGradient216);stroke:none"
               d="m 86,20 4,0 0,24 -4,0 0,-24 z" /></g></g></g></g><g
       id="g224"><g
         clip-path="url(#clipPath228)"
         id="g226"><g
           id="g232"><g
             id="g234"><path
               id="path242"
               style="fill:url(#linearGradient236);stroke:none"
               d="m 94,20 4.001,0 0,24 L 94,44 94,20 Z" /></g></g></g></g><g
       id="g244"><g
         clip-path="url(#clipPath248)"
         id="g246"><g
           id="g252"><g
             id="g254"><path
               id="path262"
               style="fill:url(#linearGradient256);stroke:none"
               d="m 102,20 4.001,0 0,24 -4.001,0 0,-24 z" /></g></g></g></g><g
       id="g264"><g
         clip-path="url(#clipPath268)"
         id="g266"><g
           id="g272"><g
             id="g274"><path
               id="path282"
               style="fill:url(#linearGradient276);stroke:none"
               d="m 110,20 4.001,0 0,24 -4.001,0 0,-24 z" /></g></g></g></g><g
       id="g284"><g
         clip-path="url(#clipPath288)"
         id="g286"><g
           id="g292"><g
             id="g294"><path
               id="path302"
               style="fill:url(#linearGradient296);stroke:none"
               d="m 118,20 4.001,0 0,24 -4.001,0 0,-24 z" /></g></g></g></g><g
       id="g304"><g
         clip-path="url(#clipPath308)"
         id="g306"><g
           id="g312"><g
             id="g314"><path
               id="path322"
               style="fill:url(#linearGradient316);stroke:none"
               d="m 126,20 4,0 0,24 -4,0 0,-24 z" /></g></g></g></g><g
       id="g324"><g
         clip-path="url(#clipPath328)"
         id="g326"><g
           id="g332"><g
             id="g334"><path
               id="path342"
               style="fill:url(#linearGradient336);stroke:none"
               d="m 134,20 4,0 0,24 -4,0 0,-24 z" /></g></g></g></g><g
       id="g344"><g
         clip-path="url(#clipPath348)"
         id="g346"><g
           id="g352"><g
             id="g354"><path
               id="path362"
               style="fill:url(#linearGradient356);stroke:none"
               d="m 142,20 4,0 0,24 -4,0 0,-24 z" /></g></g></g></g><g
       id="g364"><g
         clip-path="url(#clipPath368)"
         id="g366"><g
           id="g372"><g
             id="g374"><path
               id="path382"
               style="fill:url(#linearGradient376);stroke:none"
               d="m 150,20 4,0 0,24 -4,0 0,-24 z" /></g></g></g></g><g
       id="g384"><g
         clip-path="url(#clipPath388)"
         id="g386"><g
           id="g392"><g
             id="g394"><path
               id="path402"
               style="fill:url(#linearGradient396);stroke:none"
               d="m 158,20 4,0 0,24 -4,0 0,-24 z" /></g></g></g></g><g
       id="g404"><g
         clip-path="url(#clipPath408)"
         id="g406"><g
           id="g412"><g
             id="g414"><path
               id="path422"
               style="fill:url(#linearGradient416);stroke:none"
               d="m 166,20 4,0 0,24 -4,0 0,-24 z" /></g></g></g></g><g
       id="g424"><g
         clip-path="url(#clipPath428)"
         id="g426"><g
           id="g432"><g
             id="g434"><path
               id="path442"
               style="fill:url(#linearGradient436);stroke:none"
               d="m 174,20 4.001,0 0,24 -4.001,0 0,-24 z" /></g></g></g></g><g
       id="g444"><g
         clip-path="url(#clipPath448)"
         id="g446"><g
           id="g452"><g
             id="g454"><path
               id="path462"
               style="fill:url(#linearGradient456);stroke:none"
               d="m 182,20 4,0 0,24 -4,0 0,-24 z" /></g></g></g></g><g
       id="g464"><g
         clip-path="url(#clipPath468)"
         id="g466"><g
           id="g472"><g
             id="g474"><path
               id="path482"
               style="fill:url(#linearGradient476);stroke:none"
               d="m 190,20 4.001,0 0,24 -4.001,0 0,-24 z" /></g></g></g></g><g
       id="g484"><g
         clip-path="url(#clipPath488)"
         id="g486"><g
           id="g492"><g
             id="g494"><path
               id="path502"
               style="fill:url(#linearGradient496);stroke:none"
               d="m 198,20 4,0 0,24 -4,0 0,-24 z" /></g></g></g></g><g
       id="g504"><g
         clip-path="url(#clipPath508)"
         id="g506"><g
           id="g512"><g
             id="g514"><path
               id="path522"
               style="fill:url(#linearGradient516);stroke:none"
               d="m 206,20 4,0 0,24 -4,0 0,-24 z" /></g></g></g></g><g
       id="g524"><g
         clip-path="url(#clipPath528)"
         id="g526"><g
           id="g532"><g
             id="g534"><path
               id="path542"
               style="fill:url(#linearGradient536);stroke:none"
               d="m 214,20 4,0 0,24 -4,0 0,-24 z" /></g></g></g></g><g
       id="g544"><g
         clip-path="url(#clipPath548)"
         id="g546"><g
           id="g552"><g
             id="g554"><path
               id="path562"
               style="fill:url(#linearGradient556);stroke:none"
               d="m 222,20 4,0 0,24 -4,0 0,-24 z" /></g></g></g></g><g
       id="g564"><g
         clip-path="url(#clipPath568)"
         id="g566"><g
           id="g572"><g
             id="g574"><path
               id="path582"
               style="fill:url(#linearGradient576);stroke:none"
               d="m 230,16 4,0 0,28 -4,0 0,-28 z" /></g></g></g></g><g
       id="g584"><g
         clip-path="url(#clipPath588)"
         id="g586"><g
           transform="translate(22.4,196)"
           id="g592"><path
             id="path594"
             style="fill:#999999;fill-opacity:1;fill-rule:nonzero;stroke:none"
             d="m 0,0 211.2,0 c 2.43,0 4.4,-2.008 4.4,-4.485 l 0,-139.03 c 0,-2.477 -1.97,-4.485 -4.4,-4.485 L 0,-148 c -2.43,0 -4.4,2.008 -4.4,4.485 l 0,139.03 C -4.4,-2.008 -2.43,0 0,0" /></g></g></g><g
       id="g596"><g
         clip-path="url(#clipPath600)"
         id="g598"><g
           id="g604"><g
             id="g606"><path
               id="path614"
               style="fill:url(#linearGradient608);stroke:none"
               d="m 22,152 212,0 0,40 -212,0 0,-40 z" /></g></g></g></g><g
       id="g616"><g
         clip-path="url(#clipPath620)"
         id="g618"><path
           id="path624"
           style="fill:#ffffff;fill-opacity:1;fill-rule:nonzero;stroke:none"
           d="m 234,52 -212,0 0,100 212,0 0,-100 z" /></g></g></g></svg>