<?xml version="1.0" encoding="UTF-8" standalone="no"?>
<svg
   xmlns:dc="http://purl.org/dc/elements/1.1/"
   xmlns:cc="http://creativecommons.org/ns#"
   xmlns:rdf="http://www.w3.org/1999/02/22-rdf-syntax-ns#"
   xmlns:svg="http://www.w3.org/2000/svg"
   xmlns="http://www.w3.org/2000/svg"
   viewBox="0 0 320 320"
   height="320"
   width="320"
   xml:space="preserve"
   version="1.1"
   id="svg2"><metadata
     id="metadata8"><rdf:RDF><cc:Work
         rdf:about=""><dc:format>image/svg+xml</dc:format><dc:type
           rdf:resource="http://purl.org/dc/dcmitype/StillImage" /></cc:Work></rdf:RDF></metadata><defs
     id="defs6"><clipPath
       id="clipPath16"
       clipPathUnits="userSpaceOnUse"><path
         id="path18"
         d="m 208,16 -160,0 0,32 160,0 0,-32 z" /></clipPath><linearGradient
       id="linearGradient24"
       spreadMethod="pad"
       gradientTransform="matrix(95.999992,-95.999992,-95.999992,-95.999992,80,80)"
       gradientUnits="userSpaceOnUse"
       y2="0"
       x2="1"
       y1="0"
       x1="0"><stop
         id="stop26"
         offset="0"
         style="stop-opacity:1;stop-color:#e6e7e8" /><stop
         id="stop28"
         offset="1"
         style="stop-opacity:1;stop-color:#d1d3d4" /></linearGradient><clipPath
       id="clipPath36"
       clipPathUnits="userSpaceOnUse"><path
         id="path38"
         d="m 188,16 -120,0 0,32 120,0 0,-32 z" /></clipPath><linearGradient
       id="linearGradient44"
       spreadMethod="pad"
       gradientTransform="matrix(-76,76,76,76,166,-6)"
       gradientUnits="userSpaceOnUse"
       y2="0"
       x2="1"
       y1="0"
       x1="0"><stop
         id="stop46"
         offset="0"
         style="stop-opacity:1;stop-color:#e6e7e8" /><stop
         id="stop48"
         offset="1"
         style="stop-opacity:1;stop-color:#d1d3d4" /></linearGradient><clipPath
       id="clipPath74"
       clipPathUnits="userSpaceOnUse"><path
         id="path76"
         d="m 208,244 -160,0 -12,0 0,-200 0,-32 12,0 0,32 160,0 0,-32 12,0 0,32 0,200 -12,0 z" /></clipPath><linearGradient
       id="linearGradient82"
       spreadMethod="pad"
       gradientTransform="matrix(-208,208,208,208,232,24)"
       gradientUnits="userSpaceOnUse"
       y2="0"
       x2="1"
       y1="0"
       x1="0"><stop
         id="stop84"
         offset="0"
         style="stop-opacity:1;stop-color:#e6e7e8" /><stop
         id="stop86"
         offset="1"
         style="stop-opacity:1;stop-color:#d1d3d4" /></linearGradient><clipPath
       id="clipPath94"
       clipPathUnits="userSpaceOnUse"><path
         id="path96"
         d="m 48,12 -12,0 0,232 12,0 0,-232 z" /></clipPath><linearGradient
       id="linearGradient102"
       spreadMethod="pad"
       gradientTransform="matrix(122,-122,-122,-122,-19,189)"
       gradientUnits="userSpaceOnUse"
       y2="0"
       x2="1"
       y1="0"
       x1="0"><stop
         id="stop104"
         offset="0"
         style="stop-opacity:1;stop-color:#e6e7e8" /><stop
         id="stop106"
         offset="1"
         style="stop-opacity:1;stop-color:#d1d3d4" /></linearGradient><clipPath
       id="clipPath114"
       clipPathUnits="userSpaceOnUse"><path
         id="path116"
         d="m 220,12 -12,0 0,232 12,0 0,-232 z" /></clipPath><linearGradient
       id="linearGradient122"
       spreadMethod="pad"
       gradientTransform="matrix(122,-122,-122,-122,153,189)"
       gradientUnits="userSpaceOnUse"
       y2="0"
       x2="1"
       y1="0"
       x1="0"><stop
         id="stop124"
         offset="0"
         style="stop-opacity:1;stop-color:#e6e7e8" /><stop
         id="stop126"
         offset="1"
         style="stop-opacity:1;stop-color:#d1d3d4" /></linearGradient></defs><g
     transform="matrix(1.25,0,0,-1.25,0,320)"
     id="g10"><g
       id="g12"><g
         clip-path="url(#clipPath16)"
         id="g14"><g
           id="g20"><g
             id="g22"><path
               id="path30"
               style="fill:url(#linearGradient24);stroke:none"
               d="m 208,16 -160,0 0,32 160,0 0,-32 z" /></g></g></g></g><g
       id="g32"><g
         clip-path="url(#clipPath36)"
         id="g34"><g
           id="g40"><g
             id="g42"><path
               id="path50"
               style="fill:url(#linearGradient44);stroke:none"
               d="m 188,16 -120,0 0,32 120,0 0,-32 z" /></g></g></g></g><path
       id="path52"
       style="fill:#999999;fill-opacity:1;fill-rule:nonzero;stroke:none"
       d="m 84,20 -8,0 0,28 8,0 0,-28 z" /><path
       id="path54"
       style="fill:#999999;fill-opacity:1;fill-rule:nonzero;stroke:none"
       d="m 96,20 -8,0 0,28 8,0 0,-28 z" /><path
       id="path56"
       style="fill:#999999;fill-opacity:1;fill-rule:nonzero;stroke:none"
       d="m 108,20 -8,0 0,28 8,0 0,-28 z" /><path
       id="path58"
       style="fill:#999999;fill-opacity:1;fill-rule:nonzero;stroke:none"
       d="m 120,20 -8,0 0,28 8,0 0,-28 z" /><path
       id="path60"
       style="fill:#999999;fill-opacity:1;fill-rule:nonzero;stroke:none"
       d="m 132,20 -8,0 0,28 8,0 0,-28 z" /><path
       id="path62"
       style="fill:#999999;fill-opacity:1;fill-rule:nonzero;stroke:none"
       d="m 144,20 -8,0 0,28 8,0 0,-28 z" /><path
       id="path64"
       style="fill:#999999;fill-opacity:1;fill-rule:nonzero;stroke:none"
       d="m 156,20 -8,0 0,28 8,0 0,-28 z" /><path
       id="path66"
       style="fill:#999999;fill-opacity:1;fill-rule:nonzero;stroke:none"
       d="m 168,20 -8,0 0,28 8,0 0,-28 z" /><path
       id="path68"
       style="fill:#999999;fill-opacity:1;fill-rule:nonzero;stroke:none"
       d="m 180,20 -8,0 0,28 8,0 0,-28 z" /><g
       id="g70"><g
         clip-path="url(#clipPath74)"
         id="g72"><g
           id="g78"><g
             id="g80"><path
               id="path88"
               style="fill:url(#linearGradient82);stroke:none"
               d="m 208,244 -160,0 -12,0 0,-200 0,-32 12,0 0,32 160,0 0,-32 12,0 0,32 0,200 -12,0 z" /></g></g></g></g><g
       id="g90"><g
         clip-path="url(#clipPath94)"
         id="g92"><g
           id="g98"><g
             id="g100"><path
               id="path108"
               style="fill:url(#linearGradient102);stroke:none"
               d="m 48,12 -12,0 0,232 12,0 0,-232 z" /></g></g></g></g><g
       id="g110"><g
         clip-path="url(#clipPath114)"
         id="g112"><g
           id="g118"><g
             id="g120"><path
               id="path128"
               style="fill:url(#linearGradient122);stroke:none"
               d="m 220,12 -12,0 0,232 12,0 0,-232 z" /></g></g></g></g><path
       id="path130"
       style="fill:#ffffff;fill-opacity:1;fill-rule:nonzero;stroke:none"
       d="m 208,68 -160,0 0,156 160,0 0,-156 z" /><path
       id="path132"
       style="fill:#999999;fill-opacity:1;fill-rule:nonzero;stroke:none"
       d="m 160,96 -64,0 0,88 64,0 0,-88 z" /></g></svg>