<?xml version="1.0" encoding="UTF-8" standalone="no"?>
<svg
   xmlns:dc="http://purl.org/dc/elements/1.1/"
   xmlns:cc="http://creativecommons.org/ns#"
   xmlns:rdf="http://www.w3.org/1999/02/22-rdf-syntax-ns#"
   xmlns:svg="http://www.w3.org/2000/svg"
   xmlns="http://www.w3.org/2000/svg"
   viewBox="0 0 320 320"
   height="320"
   width="320"
   xml:space="preserve"
   version="1.1"
   id="svg2"><metadata
     id="metadata8"><rdf:RDF><cc:Work
         rdf:about=""><dc:format>image/svg+xml</dc:format><dc:type
           rdf:resource="http://purl.org/dc/dcmitype/StillImage" /></cc:Work></rdf:RDF></metadata><defs
     id="defs6"><clipPath
       id="clipPath16"
       clipPathUnits="userSpaceOnUse"><path
         id="path18"
         d="M 0,256 256,256 256,0 0,0 0,256 Z" /></clipPath><clipPath
       id="clipPath32"
       clipPathUnits="userSpaceOnUse"><path
         id="path34"
         d="m 86,124 84,0 0,12 -84,0 0,-12 z" /></clipPath><linearGradient
       id="linearGradient40"
       spreadMethod="pad"
       gradientTransform="matrix(-47.999996,47.999996,47.999996,47.999996,152,106)"
       gradientUnits="userSpaceOnUse"
       y2="0"
       x2="1"
       y1="0"
       x1="0"><stop
         id="stop42"
         offset="0"
         style="stop-opacity:1;stop-color:#e6e7e8" /><stop
         id="stop44"
         offset="1"
         style="stop-opacity:1;stop-color:#d1d3d4" /></linearGradient><clipPath
       id="clipPath52"
       clipPathUnits="userSpaceOnUse"><path
         id="path54"
         d="m 86,124 4,-112 76,0 4,112 -84,0 z" /></clipPath><linearGradient
       id="linearGradient60"
       spreadMethod="pad"
       gradientTransform="matrix(-95.999992,95.999992,95.999992,95.999992,176,22)"
       gradientUnits="userSpaceOnUse"
       y2="0"
       x2="1"
       y1="0"
       x1="0"><stop
         id="stop62"
         offset="0"
         style="stop-opacity:1;stop-color:#e6e7e8" /><stop
         id="stop64"
         offset="1"
         style="stop-opacity:1;stop-color:#d1d3d4" /></linearGradient><clipPath
       id="clipPath72"
       clipPathUnits="userSpaceOnUse"><path
         id="path74"
         d="m 86,136 84,0 0,108 -84,0 0,-108 z" /></clipPath><linearGradient
       id="linearGradient80"
       spreadMethod="pad"
       gradientTransform="matrix(-95.999992,95.999992,95.999992,95.999992,176,142)"
       gradientUnits="userSpaceOnUse"
       y2="0"
       x2="1"
       y1="0"
       x1="0"><stop
         id="stop82"
         offset="0"
         style="stop-opacity:1;stop-color:#e6e7e8" /><stop
         id="stop84"
         offset="1"
         style="stop-opacity:1;stop-color:#d1d3d4" /></linearGradient><clipPath
       id="clipPath92"
       clipPathUnits="userSpaceOnUse"><path
         id="path94"
         d="m 90,136 76,0 0,104 -76,0 0,-104 z" /></clipPath><linearGradient
       id="linearGradient100"
       spreadMethod="pad"
       gradientTransform="matrix(90,90,90,-90,83,143)"
       gradientUnits="userSpaceOnUse"
       y2="0"
       x2="1"
       y1="0"
       x1="0"><stop
         id="stop102"
         offset="0"
         style="stop-opacity:1;stop-color:#e6e7e8" /><stop
         id="stop104"
         offset="1"
         style="stop-opacity:1;stop-color:#d1d3d4" /></linearGradient><clipPath
       id="clipPath112"
       clipPathUnits="userSpaceOnUse"><path
         id="path114"
         d="m 90,124 4,-108 68,0 4,108 -76,0 z" /></clipPath><linearGradient
       id="linearGradient120"
       spreadMethod="pad"
       gradientTransform="matrix(90,90,90,-90,83,27)"
       gradientUnits="userSpaceOnUse"
       y2="0"
       x2="1"
       y1="0"
       x1="0"><stop
         id="stop122"
         offset="0"
         style="stop-opacity:1;stop-color:#e6e7e8" /><stop
         id="stop124"
         offset="1"
         style="stop-opacity:1;stop-color:#d1d3d4" /></linearGradient><clipPath
       id="clipPath132"
       clipPathUnits="userSpaceOnUse"><path
         id="path134"
         d="M 0,256 256,256 256,0 0,0 0,256 Z" /></clipPath><clipPath
       id="clipPath144"
       clipPathUnits="userSpaceOnUse"><path
         id="path146"
         d="m 98,176 c 0,-16.569 13.432,-30 30,-30 l 0,0 c 16.569,0 30,13.431 30,30 l 0,0 c 0,16.568 -13.431,30 -30,30 l 0,0 c -16.568,0 -30,-13.432 -30,-30 m 2.647,0 c 0,15.108 12.245,27.353 27.353,27.353 l 0,0 c 15.108,0 27.353,-12.245 27.353,-27.353 l 0,0 c 0,-15.108 -12.245,-27.353 -27.353,-27.353 l 0,0 c -15.108,0 -27.353,12.245 -27.353,27.353" /></clipPath><linearGradient
       id="linearGradient152"
       spreadMethod="pad"
       gradientTransform="matrix(-42.426418,42.426418,42.426418,42.426418,149.21321,154.78679)"
       gradientUnits="userSpaceOnUse"
       y2="0"
       x2="1"
       y1="0"
       x1="0"><stop
         id="stop154"
         offset="0"
         style="stop-opacity:1;stop-color:#e6e7e8" /><stop
         id="stop156"
         offset="1"
         style="stop-opacity:1;stop-color:#d1d3d4" /></linearGradient><clipPath
       id="clipPath164"
       clipPathUnits="userSpaceOnUse"><path
         id="path166"
         d="m 111.236,176 c 0,-9.243 7.52,-16.765 16.764,-16.765 l 0,0 c 9.244,0 16.765,7.522 16.765,16.765 l 0,0 c 0,9.243 -7.521,16.765 -16.765,16.765 l 0,0 c -9.244,0 -16.764,-7.522 -16.764,-16.765 m 1.089,0 c 0,8.644 7.031,15.676 15.675,15.676 l 0,0 c 8.644,0 15.676,-7.032 15.676,-15.676 l 0,0 c 0,-8.644 -7.032,-15.676 -15.676,-15.676 l 0,0 c -8.644,0 -15.675,7.032 -15.675,15.676" /></clipPath><linearGradient
       id="linearGradient172"
       spreadMethod="pad"
       gradientTransform="matrix(-23.697452,23.697452,23.697452,23.697452,139.84872,164.15128)"
       gradientUnits="userSpaceOnUse"
       y2="0"
       x2="1"
       y1="0"
       x1="0"><stop
         id="stop174"
         offset="0"
         style="stop-opacity:1;stop-color:#e6e7e8" /><stop
         id="stop176"
         offset="1"
         style="stop-opacity:1;stop-color:#d1d3d4" /></linearGradient><clipPath
       id="clipPath184"
       clipPathUnits="userSpaceOnUse"><path
         id="path186"
         d="m 105.941,176 c 0,-12.163 9.895,-22.059 22.059,-22.059 l 0,0 c 12.163,0 22.059,9.896 22.059,22.059 l 0,0 c 0,12.163 -9.896,22.059 -22.059,22.059 l 0,0 c -12.164,0 -22.059,-9.896 -22.059,-22.059 m 1.08,0 c 0,11.568 9.411,20.979 20.979,20.979 l 0,0 c 11.568,0 20.98,-9.411 20.98,-20.979 l 0,0 c 0,-11.568 -9.412,-20.98 -20.98,-20.98 l 0,0 c -11.568,0 -20.979,9.412 -20.979,20.98" /></clipPath><linearGradient
       id="linearGradient192"
       spreadMethod="pad"
       gradientTransform="matrix(-31.181406,31.181406,31.181406,31.181406,143.5907,160.4093)"
       gradientUnits="userSpaceOnUse"
       y2="0"
       x2="1"
       y1="0"
       x1="0"><stop
         id="stop194"
         offset="0"
         style="stop-opacity:1;stop-color:#e6e7e8" /><stop
         id="stop196"
         offset="1"
         style="stop-opacity:1;stop-color:#d1d3d4" /></linearGradient><clipPath
       id="clipPath204"
       clipPathUnits="userSpaceOnUse"><path
         id="path206"
         d="m 116,176 c 0,-6.627 5.372,-12 12,-12 l 0,0 c 6.627,0 12,5.373 12,12 l 0,0 c 0,6.627 -5.373,12 -12,12 l 0,0 c -6.628,0 -12,-5.373 -12,-12" /></clipPath><linearGradient
       id="linearGradient212"
       spreadMethod="pad"
       gradientTransform="matrix(16.970562,16.970562,16.970562,-16.970562,119.51472,167.51472)"
       gradientUnits="userSpaceOnUse"
       y2="0"
       x2="1"
       y1="0"
       x1="0"><stop
         id="stop214"
         offset="0"
         style="stop-opacity:1;stop-color:#e6e7e8" /><stop
         id="stop216"
         offset="1"
         style="stop-opacity:1;stop-color:#d1d3d4" /></linearGradient><clipPath
       id="clipPath224"
       clipPathUnits="userSpaceOnUse"><path
         id="path226"
         d="m 118,176 c 0,-5.523 4.477,-10 10,-10 l 0,0 c 5.523,0 10,4.477 10,10 l 0,0 c 0,5.523 -4.477,10 -10,10 l 0,0 c -5.523,0 -10,-4.477 -10,-10" /></clipPath><linearGradient
       id="linearGradient232"
       spreadMethod="pad"
       gradientTransform="matrix(-14.142136,14.142136,14.142136,14.142136,135.07108,168.92892)"
       gradientUnits="userSpaceOnUse"
       y2="0"
       x2="1"
       y1="0"
       x1="0"><stop
         id="stop234"
         offset="0"
         style="stop-opacity:1;stop-color:#e6e7e8" /><stop
         id="stop236"
         offset="1"
         style="stop-opacity:1;stop-color:#d1d3d4" /></linearGradient><clipPath
       id="clipPath244"
       clipPathUnits="userSpaceOnUse"><path
         id="path246"
         d="m 120,176 c 0,-4.419 3.582,-8 8,-8 l 0,0 c 4.418,0 8,3.581 8,8 l 0,0 c 0,4.419 -3.582,8 -8,8 l 0,0 c -4.418,0 -8,-3.581 -8,-8" /></clipPath><linearGradient
       id="linearGradient252"
       spreadMethod="pad"
       gradientTransform="matrix(-11.313708,11.313708,11.313708,11.313708,133.65686,170.34314)"
       gradientUnits="userSpaceOnUse"
       y2="0"
       x2="1"
       y1="0"
       x1="0"><stop
         id="stop254"
         offset="0"
         style="stop-opacity:1;stop-color:#e6e7e8" /><stop
         id="stop256"
         offset="1"
         style="stop-opacity:1;stop-color:#d1d3d4" /></linearGradient><clipPath
       id="clipPath264"
       clipPathUnits="userSpaceOnUse"><path
         id="path266"
         d="m 122,176 c 0,-3.313 2.686,-6 6,-6 l 0,0 c 3.314,0 6,2.687 6,6 l 0,0 c 0,3.313 -2.686,6 -6,6 l 0,0 c -3.314,0 -6,-2.687 -6,-6" /></clipPath><linearGradient
       id="linearGradient272"
       spreadMethod="pad"
       gradientTransform="matrix(8.485281,8.485281,8.485281,-8.485281,123.75736,171.75735)"
       gradientUnits="userSpaceOnUse"
       y2="0"
       x2="1"
       y1="0"
       x1="0"><stop
         id="stop274"
         offset="0"
         style="stop-opacity:1;stop-color:#e6e7e8" /><stop
         id="stop276"
         offset="1"
         style="stop-opacity:1;stop-color:#d1d3d4" /></linearGradient><clipPath
       id="clipPath284"
       clipPathUnits="userSpaceOnUse"><path
         id="path286"
         d="m 124,176 c 0,-2.209 1.791,-4 4,-4 l 0,0 c 2.209,0 4,1.791 4,4 l 0,0 c 0,2.209 -1.791,4 -4,4 l 0,0 c -2.209,0 -4,-1.791 -4,-4" /></clipPath><linearGradient
       id="linearGradient292"
       spreadMethod="pad"
       gradientTransform="matrix(-5.6568542,5.6568542,5.6568542,5.6568542,130.82843,173.17157)"
       gradientUnits="userSpaceOnUse"
       y2="0"
       x2="1"
       y1="0"
       x1="0"><stop
         id="stop294"
         offset="0"
         style="stop-opacity:1;stop-color:#e6e7e8" /><stop
         id="stop296"
         offset="1"
         style="stop-opacity:1;stop-color:#d1d3d4" /></linearGradient><clipPath
       id="clipPath304"
       clipPathUnits="userSpaceOnUse"><path
         id="path306"
         d="m 126,176 c 0,-1.105 0.896,-2 2,-2 l 0,0 c 1.105,0 2,0.895 2,2 l 0,0 c 0,1.105 -0.895,2 -2,2 l 0,0 c -1.104,0 -2,-0.895 -2,-2" /></clipPath><linearGradient
       id="linearGradient312"
       spreadMethod="pad"
       gradientTransform="matrix(2.8284271,2.8284271,2.8284271,-2.8284271,126.58578,174.58578)"
       gradientUnits="userSpaceOnUse"
       y2="0"
       x2="1"
       y1="0"
       x1="0"><stop
         id="stop314"
         offset="0"
         style="stop-opacity:1;stop-color:#e6e7e8" /><stop
         id="stop316"
         offset="1"
         style="stop-opacity:1;stop-color:#d1d3d4" /></linearGradient><clipPath
       id="clipPath324"
       clipPathUnits="userSpaceOnUse"><path
         id="path326"
         d="m 90,124 76,0 0,12 -76,0 0,-12 z" /></clipPath><linearGradient
       id="linearGradient332"
       spreadMethod="pad"
       gradientTransform="matrix(44,-44,-44,-44,106,152)"
       gradientUnits="userSpaceOnUse"
       y2="0"
       x2="1"
       y1="0"
       x1="0"><stop
         id="stop334"
         offset="0"
         style="stop-opacity:1;stop-color:#e6e7e8" /><stop
         id="stop336"
         offset="1"
         style="stop-opacity:1;stop-color:#d1d3d4" /></linearGradient><clipPath
       id="clipPath344"
       clipPathUnits="userSpaceOnUse"><path
         id="path346"
         d="m 90,216 76,0 0,20 -76,0 0,-20 z" /></clipPath><linearGradient
       id="linearGradient352"
       spreadMethod="pad"
       gradientTransform="matrix(47.999996,-47.999996,-47.999996,-47.999996,104,250)"
       gradientUnits="userSpaceOnUse"
       y2="0"
       x2="1"
       y1="0"
       x1="0"><stop
         id="stop354"
         offset="0"
         style="stop-opacity:1;stop-color:#e6e7e8" /><stop
         id="stop356"
         offset="1"
         style="stop-opacity:1;stop-color:#d1d3d4" /></linearGradient><clipPath
       id="clipPath364"
       clipPathUnits="userSpaceOnUse"><path
         id="path366"
         d="M 0,256 256,256 256,0 0,0 0,256 Z" /></clipPath><clipPath
       id="clipPath402"
       clipPathUnits="userSpaceOnUse"><path
         id="path404"
         d="m 162,232 0,-12 -68,0 -4,-4 76,0 0,20 -4,-4 z" /></clipPath><linearGradient
       id="linearGradient410"
       spreadMethod="pad"
       gradientTransform="matrix(-38,38,38,38,152,202)"
       gradientUnits="userSpaceOnUse"
       y2="0"
       x2="1"
       y1="0"
       x1="0"><stop
         id="stop412"
         offset="0"
         style="stop-opacity:1;stop-color:#e6e7e8" /><stop
         id="stop414"
         offset="1"
         style="stop-opacity:1;stop-color:#d1d3d4" /></linearGradient><clipPath
       id="clipPath422"
       clipPathUnits="userSpaceOnUse"><path
         id="path424"
         d="m 118,12 20,0 0,8 -20,0 0,-8 z" /></clipPath><linearGradient
       id="linearGradient430"
       spreadMethod="pad"
       gradientTransform="matrix(-14,14,14,14,135,9)"
       gradientUnits="userSpaceOnUse"
       y2="0"
       x2="1"
       y1="0"
       x1="0"><stop
         id="stop432"
         offset="0"
         style="stop-opacity:1;stop-color:#e6e7e8" /><stop
         id="stop434"
         offset="1"
         style="stop-opacity:1;stop-color:#d1d3d4" /></linearGradient><clipPath
       id="clipPath442"
       clipPathUnits="userSpaceOnUse"><path
         id="path444"
         d="m 94,120 4,-4 60,0 4,4 -68,0 z" /></clipPath><linearGradient
       id="linearGradient450"
       spreadMethod="pad"
       gradientTransform="matrix(-34,34,34,34,145,103)"
       gradientUnits="userSpaceOnUse"
       y2="0"
       x2="1"
       y1="0"
       x1="0"><stop
         id="stop452"
         offset="0"
         style="stop-opacity:1;stop-color:#e6e7e8" /><stop
         id="stop454"
         offset="1"
         style="stop-opacity:1;stop-color:#d1d3d4" /></linearGradient></defs><g
     transform="matrix(1.25,0,0,-1.25,0,320)"
     id="g10"><g
       id="g12"><g
         clip-path="url(#clipPath16)"
         id="g14"><g
           transform="translate(93,208)"
           id="g20"><path
             id="path22"
             style="fill:#999999;fill-opacity:1;fill-rule:nonzero;stroke:none"
             d="m 0,0 -10,0 c -0.552,0 -1,0.448 -1,1 l 0,26 c 0,0.552 0.448,1 1,1 l 10,0 c 0.552,0 1,-0.448 1,-1 L 1,1 C 1,0.448 0.552,0 0,0" /></g><g
           transform="translate(173,208)"
           id="g24"><path
             id="path26"
             style="fill:#999999;fill-opacity:1;fill-rule:nonzero;stroke:none"
             d="m 0,0 -10,0 c -0.552,0 -1,0.448 -1,1 l 0,26 c 0,0.552 0.448,1 1,1 l 10,0 c 0.552,0 1,-0.448 1,-1 L 1,1 C 1,0.448 0.552,0 0,0" /></g></g></g><g
       id="g28"><g
         clip-path="url(#clipPath32)"
         id="g30"><g
           id="g36"><g
             id="g38"><path
               id="path46"
               style="fill:url(#linearGradient40);stroke:none"
               d="m 86,124 84,0 0,12 -84,0 0,-12 z" /></g></g></g></g><g
       id="g48"><g
         clip-path="url(#clipPath52)"
         id="g50"><g
           id="g56"><g
             id="g58"><path
               id="path66"
               style="fill:url(#linearGradient60);stroke:none"
               d="m 86,124 4,-112 76,0 4,112 -84,0 z" /></g></g></g></g><g
       id="g68"><g
         clip-path="url(#clipPath72)"
         id="g70"><g
           id="g76"><g
             id="g78"><path
               id="path86"
               style="fill:url(#linearGradient80);stroke:none"
               d="m 86,136 84,0 0,108 -84,0 0,-108 z" /></g></g></g></g><g
       id="g88"><g
         clip-path="url(#clipPath92)"
         id="g90"><g
           id="g96"><g
             id="g98"><path
               id="path106"
               style="fill:url(#linearGradient100);stroke:none"
               d="m 90,136 76,0 0,104 -76,0 0,-104 z" /></g></g></g></g><g
       id="g108"><g
         clip-path="url(#clipPath112)"
         id="g110"><g
           id="g116"><g
             id="g118"><path
               id="path126"
               style="fill:url(#linearGradient120);stroke:none"
               d="m 90,124 4,-108 68,0 4,108 -76,0 z" /></g></g></g></g><g
       id="g128"><g
         clip-path="url(#clipPath132)"
         id="g130"><g
           transform="translate(160,176)"
           id="g136"><path
             id="path138"
             style="fill:#999999;fill-opacity:1;fill-rule:nonzero;stroke:none"
             d="m 0,0 c 0,-17.673 -14.327,-32 -32,-32 -17.673,0 -32,14.327 -32,32 0,17.673 14.327,32 32,32 C -14.327,32 0,17.673 0,0" /></g></g></g><g
       id="g140"><g
         clip-path="url(#clipPath144)"
         id="g142"><g
           id="g148"><g
             id="g150"><path
               id="path158"
               style="fill:url(#linearGradient152);stroke:none"
               d="m 98,176 c 0,-16.569 13.432,-30 30,-30 l 0,0 c 16.569,0 30,13.431 30,30 l 0,0 c 0,16.568 -13.431,30 -30,30 l 0,0 c -16.568,0 -30,-13.432 -30,-30 m 2.647,0 c 0,15.108 12.245,27.353 27.353,27.353 l 0,0 c 15.108,0 27.353,-12.245 27.353,-27.353 l 0,0 c 0,-15.108 -12.245,-27.353 -27.353,-27.353 l 0,0 c -15.108,0 -27.353,12.245 -27.353,27.353" /></g></g></g></g><g
       id="g160"><g
         clip-path="url(#clipPath164)"
         id="g162"><g
           id="g168"><g
             id="g170"><path
               id="path178"
               style="fill:url(#linearGradient172);stroke:none"
               d="m 111.236,176 c 0,-9.243 7.52,-16.765 16.764,-16.765 l 0,0 c 9.244,0 16.765,7.522 16.765,16.765 l 0,0 c 0,9.243 -7.521,16.765 -16.765,16.765 l 0,0 c -9.244,0 -16.764,-7.522 -16.764,-16.765 m 1.089,0 c 0,8.644 7.031,15.676 15.675,15.676 l 0,0 c 8.644,0 15.676,-7.032 15.676,-15.676 l 0,0 c 0,-8.644 -7.032,-15.676 -15.676,-15.676 l 0,0 c -8.644,0 -15.675,7.032 -15.675,15.676" /></g></g></g></g><g
       id="g180"><g
         clip-path="url(#clipPath184)"
         id="g182"><g
           id="g188"><g
             id="g190"><path
               id="path198"
               style="fill:url(#linearGradient192);stroke:none"
               d="m 105.941,176 c 0,-12.163 9.895,-22.059 22.059,-22.059 l 0,0 c 12.163,0 22.059,9.896 22.059,22.059 l 0,0 c 0,12.163 -9.896,22.059 -22.059,22.059 l 0,0 c -12.164,0 -22.059,-9.896 -22.059,-22.059 m 1.08,0 c 0,11.568 9.411,20.979 20.979,20.979 l 0,0 c 11.568,0 20.98,-9.411 20.98,-20.979 l 0,0 c 0,-11.568 -9.412,-20.98 -20.98,-20.98 l 0,0 c -11.568,0 -20.979,9.412 -20.979,20.98" /></g></g></g></g><g
       id="g200"><g
         clip-path="url(#clipPath204)"
         id="g202"><g
           id="g208"><g
             id="g210"><path
               id="path218"
               style="fill:url(#linearGradient212);stroke:none"
               d="m 116,176 c 0,-6.627 5.372,-12 12,-12 l 0,0 c 6.627,0 12,5.373 12,12 l 0,0 c 0,6.627 -5.373,12 -12,12 l 0,0 c -6.628,0 -12,-5.373 -12,-12" /></g></g></g></g><g
       id="g220"><g
         clip-path="url(#clipPath224)"
         id="g222"><g
           id="g228"><g
             id="g230"><path
               id="path238"
               style="fill:url(#linearGradient232);stroke:none"
               d="m 118,176 c 0,-5.523 4.477,-10 10,-10 l 0,0 c 5.523,0 10,4.477 10,10 l 0,0 c 0,5.523 -4.477,10 -10,10 l 0,0 c -5.523,0 -10,-4.477 -10,-10" /></g></g></g></g><g
       id="g240"><g
         clip-path="url(#clipPath244)"
         id="g242"><g
           id="g248"><g
             id="g250"><path
               id="path258"
               style="fill:url(#linearGradient252);stroke:none"
               d="m 120,176 c 0,-4.419 3.582,-8 8,-8 l 0,0 c 4.418,0 8,3.581 8,8 l 0,0 c 0,4.419 -3.582,8 -8,8 l 0,0 c -4.418,0 -8,-3.581 -8,-8" /></g></g></g></g><g
       id="g260"><g
         clip-path="url(#clipPath264)"
         id="g262"><g
           id="g268"><g
             id="g270"><path
               id="path278"
               style="fill:url(#linearGradient272);stroke:none"
               d="m 122,176 c 0,-3.313 2.686,-6 6,-6 l 0,0 c 3.314,0 6,2.687 6,6 l 0,0 c 0,3.313 -2.686,6 -6,6 l 0,0 c -3.314,0 -6,-2.687 -6,-6" /></g></g></g></g><g
       id="g280"><g
         clip-path="url(#clipPath284)"
         id="g282"><g
           id="g288"><g
             id="g290"><path
               id="path298"
               style="fill:url(#linearGradient292);stroke:none"
               d="m 124,176 c 0,-2.209 1.791,-4 4,-4 l 0,0 c 2.209,0 4,1.791 4,4 l 0,0 c 0,2.209 -1.791,4 -4,4 l 0,0 c -2.209,0 -4,-1.791 -4,-4" /></g></g></g></g><g
       id="g300"><g
         clip-path="url(#clipPath304)"
         id="g302"><g
           id="g308"><g
             id="g310"><path
               id="path318"
               style="fill:url(#linearGradient312);stroke:none"
               d="m 126,176 c 0,-1.105 0.896,-2 2,-2 l 0,0 c 1.105,0 2,0.895 2,2 l 0,0 c 0,1.105 -0.895,2 -2,2 l 0,0 c -1.104,0 -2,-0.895 -2,-2" /></g></g></g></g><g
       id="g320"><g
         clip-path="url(#clipPath324)"
         id="g322"><g
           id="g328"><g
             id="g330"><path
               id="path338"
               style="fill:url(#linearGradient332);stroke:none"
               d="m 90,124 76,0 0,12 -76,0 0,-12 z" /></g></g></g></g><g
       id="g340"><g
         clip-path="url(#clipPath344)"
         id="g342"><g
           id="g348"><g
             id="g350"><path
               id="path358"
               style="fill:url(#linearGradient352);stroke:none"
               d="m 90,216 76,0 0,20 -76,0 0,-20 z" /></g></g></g></g><g
       id="g360"><g
         clip-path="url(#clipPath364)"
         id="g362"><path
           id="path368"
           style="fill:#999999;fill-opacity:1;fill-rule:nonzero;stroke:none"
           d="m 138,220 -20,0 0,12 20,0 0,-12 z" /><path
           id="path370"
           style="fill:#999999;fill-opacity:1;fill-rule:nonzero;stroke:none"
           d="m 162,220 -20,0 0,12 20,0 0,-12 z" /><path
           id="path372"
           style="fill:#999999;fill-opacity:1;fill-rule:nonzero;stroke:none"
           d="m 114,220 -20,0 0,12 20,0 0,-12 z" /><path
           id="path374"
           style="fill:#999999;fill-opacity:1;fill-rule:nonzero;stroke:none"
           d="m 114,95 -14,0 0,14 14,0 0,-14 z" /><path
           id="path376"
           style="fill:#999999;fill-opacity:1;fill-rule:nonzero;stroke:none"
           d="m 135,95 -14,0 0,14 14,0 0,-14 z" /><path
           id="path378"
           style="fill:#999999;fill-opacity:1;fill-rule:nonzero;stroke:none"
           d="m 156,95 -14,0 0,14 14,0 0,-14 z" /><path
           id="path380"
           style="fill:#999999;fill-opacity:1;fill-rule:nonzero;stroke:none"
           d="m 114,74 -14,0 0,14 14,0 0,-14 z" /><path
           id="path382"
           style="fill:#999999;fill-opacity:1;fill-rule:nonzero;stroke:none"
           d="m 135,74 -14,0 0,14 14,0 0,-14 z" /><path
           id="path384"
           style="fill:#999999;fill-opacity:1;fill-rule:nonzero;stroke:none"
           d="m 156,74 -14,0 0,14 14,0 0,-14 z" /><path
           id="path386"
           style="fill:#999999;fill-opacity:1;fill-rule:nonzero;stroke:none"
           d="m 114,53 -14,0 0,14 14,0 0,-14 z" /><path
           id="path388"
           style="fill:#999999;fill-opacity:1;fill-rule:nonzero;stroke:none"
           d="m 135,53 -14,0 0,14 14,0 0,-14 z" /><path
           id="path390"
           style="fill:#999999;fill-opacity:1;fill-rule:nonzero;stroke:none"
           d="m 156,53 -14,0 0,14 14,0 0,-14 z" /><path
           id="path392"
           style="fill:#999999;fill-opacity:1;fill-rule:nonzero;stroke:none"
           d="m 114,32 -14,0 0,14 14,0 0,-14 z" /><path
           id="path394"
           style="fill:#999999;fill-opacity:1;fill-rule:nonzero;stroke:none"
           d="m 135,32 -14,0 0,14 14,0 0,-14 z" /><path
           id="path396"
           style="fill:#999999;fill-opacity:1;fill-rule:nonzero;stroke:none"
           d="m 156,32 -14,0 0,14 14,0 0,-14 z" /></g></g><g
       id="g398"><g
         clip-path="url(#clipPath402)"
         id="g400"><g
           id="g406"><g
             id="g408"><path
               id="path416"
               style="fill:url(#linearGradient410);stroke:none"
               d="m 162,232 0,-12 -68,0 -4,-4 76,0 0,20 -4,-4 z" /></g></g></g></g><g
       id="g418"><g
         clip-path="url(#clipPath422)"
         id="g420"><g
           id="g426"><g
             id="g428"><path
               id="path436"
               style="fill:url(#linearGradient430);stroke:none"
               d="m 118,12 20,0 0,8 -20,0 0,-8 z" /></g></g></g></g><g
       id="g438"><g
         clip-path="url(#clipPath442)"
         id="g440"><g
           id="g446"><g
             id="g448"><path
               id="path456"
               style="fill:url(#linearGradient450);stroke:none"
               d="m 94,120 4,-4 60,0 4,4 -68,0 z" /></g></g></g></g></g></svg>