<?xml version="1.0" encoding="UTF-8" standalone="no"?>
<svg
   xmlns:dc="http://purl.org/dc/elements/1.1/"
   xmlns:cc="http://creativecommons.org/ns#"
   xmlns:rdf="http://www.w3.org/1999/02/22-rdf-syntax-ns#"
   xmlns:svg="http://www.w3.org/2000/svg"
   xmlns="http://www.w3.org/2000/svg"
   viewBox="0 0 320 320"
   height="320"
   width="320"
   xml:space="preserve"
   version="1.1"
   id="svg2"><metadata
     id="metadata8"><rdf:RDF><cc:Work
         rdf:about=""><dc:format>image/svg+xml</dc:format><dc:type
           rdf:resource="http://purl.org/dc/dcmitype/StillImage" /></cc:Work></rdf:RDF></metadata><defs
     id="defs6"><clipPath
       id="clipPath16"
       clipPathUnits="userSpaceOnUse"><path
         id="path18"
         d="m 29.2,244 c -2.876,0 -5.2,-2.255 -5.2,-5.044 l 0,0 0,-221.913 C 24,14.254 26.324,12 29.2,12 l 0,0 197.6,0 c 2.875,0 5.2,2.254 5.2,5.043 l 0,0 0,221.913 c 0,2.789 -2.325,5.044 -5.2,5.044 l 0,0 -197.6,0 z" /></clipPath><linearGradient
       id="linearGradient24"
       spreadMethod="pad"
       gradientTransform="matrix(217.00334,-217.00334,-217.00334,-217.00334,19.498331,236.50166)"
       gradientUnits="userSpaceOnUse"
       y2="0"
       x2="1"
       y1="0"
       x1="0"><stop
         id="stop26"
         offset="0"
         style="stop-opacity:1;stop-color:#e6e7e8" /><stop
         id="stop28"
         offset="1"
         style="stop-opacity:1;stop-color:#d1d3d4" /></linearGradient><clipPath
       id="clipPath36"
       clipPathUnits="userSpaceOnUse"><path
         id="path38"
         d="M 43.592,224 C 39.406,224 36,220.63 36,216.487 l 0,0 0,-188.974 C 36,23.37 39.406,20 43.592,20 l 0,0 168.816,0 c 4.186,0 7.592,3.37 7.592,7.513 l 0,0 0,188.974 c 0,4.143 -3.406,7.513 -7.592,7.513 l 0,0 -168.816,0 z" /></clipPath><linearGradient
       id="linearGradient44"
       spreadMethod="pad"
       gradientTransform="matrix(-189.57101,189.57101,189.57101,189.57101,222.78545,27.214489)"
       gradientUnits="userSpaceOnUse"
       y2="0"
       x2="1"
       y1="0"
       x1="0"><stop
         id="stop46"
         offset="0"
         style="stop-opacity:1;stop-color:#e6e7e8" /><stop
         id="stop48"
         offset="1"
         style="stop-opacity:1;stop-color:#d1d3d4" /></linearGradient><clipPath
       id="clipPath56"
       clipPathUnits="userSpaceOnUse"><path
         id="path58"
         d="M 0,256 256,256 256,0 0,0 0,256 Z" /></clipPath></defs><g
     transform="matrix(1.25,0,0,-1.25,0,320)"
     id="g10"><g
       id="g12"><g
         clip-path="url(#clipPath16)"
         id="g14"><g
           id="g20"><g
             id="g22"><path
               id="path30"
               style="fill:url(#linearGradient24);stroke:none"
               d="m 29.2,244 c -2.876,0 -5.2,-2.255 -5.2,-5.044 l 0,0 0,-221.913 C 24,14.254 26.324,12 29.2,12 l 0,0 197.6,0 c 2.875,0 5.2,2.254 5.2,5.043 l 0,0 0,221.913 c 0,2.789 -2.325,5.044 -5.2,5.044 l 0,0 -197.6,0 z" /></g></g></g></g><g
       id="g32"><g
         clip-path="url(#clipPath36)"
         id="g34"><g
           id="g40"><g
             id="g42"><path
               id="path50"
               style="fill:url(#linearGradient44);stroke:none"
               d="M 43.592,224 C 39.406,224 36,220.63 36,216.487 l 0,0 0,-188.974 C 36,23.37 39.406,20 43.592,20 l 0,0 168.816,0 c 4.186,0 7.592,3.37 7.592,7.513 l 0,0 0,188.974 c 0,4.143 -3.406,7.513 -7.592,7.513 l 0,0 -168.816,0 z" /></g></g></g></g><g
       id="g52"><g
         clip-path="url(#clipPath56)"
         id="g54"><g
           transform="translate(218.0355,27.5133)"
           id="g60"><path
             id="path62"
             style="fill:#999999;fill-opacity:1;fill-rule:nonzero;stroke:none"
             d="m 0,0 c 0,-3.074 -2.515,-5.558 -5.627,-5.558 l -168.817,0 c -3.112,0 -5.627,2.484 -5.627,5.558 l 0,188.973 c 0,3.074 2.515,5.558 5.627,5.558 l 168.817,0 c 3.112,0 5.627,-2.484 5.627,-5.558 L 0,0 Z" /></g><g
           transform="translate(64.9999,172)"
           id="g64"><path
             id="path66"
             style="fill:#ffffff;fill-opacity:1;fill-rule:nonzero;stroke:none"
             d="m 0,0 126,0 c 4.971,0 9,-3.582 9,-8 l 0,-112 c 0,-4.418 -4.029,-8 -9,-8 l -126,0 c -4.971,0 -9,3.582 -9,8 l 0,112 c 0,4.418 4.029,8 9,8" /></g></g></g></g></svg>