<?xml version="1.0" encoding="UTF-8" standalone="no"?>
<svg
   xmlns:dc="http://purl.org/dc/elements/1.1/"
   xmlns:cc="http://creativecommons.org/ns#"
   xmlns:rdf="http://www.w3.org/1999/02/22-rdf-syntax-ns#"
   xmlns:svg="http://www.w3.org/2000/svg"
   xmlns="http://www.w3.org/2000/svg"
   viewBox="0 0 320 320"
   height="320"
   width="320"
   xml:space="preserve"
   version="1.1"
   id="svg2"><metadata
     id="metadata8"><rdf:RDF><cc:Work
         rdf:about=""><dc:format>image/svg+xml</dc:format><dc:type
           rdf:resource="http://purl.org/dc/dcmitype/StillImage" /></cc:Work></rdf:RDF></metadata><defs
     id="defs6"><clipPath
       id="clipPath16"
       clipPathUnits="userSpaceOnUse"><path
         id="path18"
         d="m 128,223 c -33.833,0 -96.667,5 -111.166,5 l 0,0 C 12,228 12,225.765 12,223 l 0,0 0,-20 c 0,-2.765 0,-5 4.834,-5 l 0,0 c 1.285,0 2.971,-0.05 4.833,-0.12 l 0,0 0,-9.88 c -2.673,0 -4.833,-2.235 -4.833,-5 l 0,0 0,-150 c 0,-2.765 2.16,-5 4.833,-5 l 0,0 212.666,0 c 2.673,0 4.834,2.235 4.834,5 l 0,0 0,150 c 0,2.765 -2.161,5 -4.834,5 l 0,0 0,9.88 c 1.861,0.07 3.548,0.12 4.834,0.12 l 0,0 c 4.833,0 4.833,2.235 4.833,5 l 0,0 0,20 c 0,2.765 0,5 -4.833,5 l 0,0 c -14.5,0 -77.334,-5 -111.167,-5" /></clipPath><linearGradient
       id="linearGradient24"
       spreadMethod="pad"
       gradientTransform="matrix(211.14555,-211.14555,-211.14555,-211.14555,22.427217,236.42816)"
       gradientUnits="userSpaceOnUse"
       y2="0"
       x2="1"
       y1="0"
       x1="0"><stop
         id="stop26"
         offset="0"
         style="stop-opacity:1;stop-color:#e6e7e8" /><stop
         id="stop28"
         offset="1"
         style="stop-opacity:1;stop-color:#d1d3d4" /></linearGradient><clipPath
       id="clipPath36"
       clipPathUnits="userSpaceOnUse"><path
         id="path38"
         d="M 0,256 256,256 256,0 0,0 0,256 Z" /></clipPath></defs><g
     transform="matrix(1.25,0,0,-1.25,0,320)"
     id="g10"><g
       id="g12"><g
         clip-path="url(#clipPath16)"
         id="g14"><g
           id="g20"><g
             id="g22"><path
               id="path30"
               style="fill:url(#linearGradient24);stroke:none"
               d="m 128,223 c -33.833,0 -96.667,5 -111.166,5 l 0,0 C 12,228 12,225.765 12,223 l 0,0 0,-20 c 0,-2.765 0,-5 4.834,-5 l 0,0 c 1.285,0 2.971,-0.05 4.833,-0.12 l 0,0 0,-9.88 c -2.673,0 -4.833,-2.235 -4.833,-5 l 0,0 0,-150 c 0,-2.765 2.16,-5 4.833,-5 l 0,0 212.666,0 c 2.673,0 4.834,2.235 4.834,5 l 0,0 0,150 c 0,2.765 -2.161,5 -4.834,5 l 0,0 0,9.88 c 1.861,0.07 3.548,0.12 4.834,0.12 l 0,0 c 4.833,0 4.833,2.235 4.833,5 l 0,0 0,20 c 0,2.765 0,5 -4.833,5 l 0,0 c -14.5,0 -77.334,-5 -111.167,-5" /></g></g></g></g><g
       id="g32"><g
         clip-path="url(#clipPath36)"
         id="g34"><path
           id="path40"
           style="fill:#999999;fill-opacity:1;fill-rule:nonzero;stroke:none"
           d="m 232,48 -208,0 0,4 208,0 0,-4 z" /><path
           id="path42"
           style="fill:#999999;fill-opacity:1;fill-rule:nonzero;stroke:none"
           d="m 232,56 -208,0 0,4 208,0 0,-4 z" /><path
           id="path44"
           style="fill:#999999;fill-opacity:1;fill-rule:nonzero;stroke:none"
           d="m 232,64 -208,0 0,4 208,0 0,-4 z" /><g
           transform="translate(232,83)"
           id="g46"><path
             id="path48"
             style="fill:#999999;fill-opacity:1;fill-rule:nonzero;stroke:none"
             d="m 0,0 c 0,-2.765 -2.214,-5 -4.952,-5 l -198.096,0 c -2.738,0 -4.952,2.235 -4.952,5 l 0,90 c 0,2.765 2.214,5 4.952,5 L -4.952,95 C -2.214,95 0,92.765 0,90 L 0,0 Z" /></g><g
           transform="translate(228,87.75)"
           id="g50"><path
             id="path52"
             style="fill:#ffffff;fill-opacity:1;fill-rule:nonzero;stroke:none"
             d="m 0,0 c 0,-3.18 -2.353,-5.75 -5.263,-5.75 l -189.474,0 c -2.91,0 -5.263,2.57 -5.263,5.75 l 0,80.5 c 0,3.18 2.353,5.75 5.263,5.75 l 189.474,0 C -2.353,86.25 0,83.68 0,80.5 L 0,0 Z" /></g><g
           transform="translate(234,197.7816)"
           id="g54"><path
             id="path56"
             style="fill:#999999;fill-opacity:1;fill-rule:nonzero;stroke:none"
             d="m 0,0 c -20.303,-0.78 -75.197,-5.278 -106,-5.278 -30.803,0 -85.697,4.498 -106,5.278 l 0,-10.029 212,0 L 0,0 Z" /></g></g></g></g></svg>