<?xml version="1.0" encoding="UTF-8" standalone="no"?>
<svg
   xmlns:dc="http://purl.org/dc/elements/1.1/"
   xmlns:cc="http://creativecommons.org/ns#"
   xmlns:rdf="http://www.w3.org/1999/02/22-rdf-syntax-ns#"
   xmlns:svg="http://www.w3.org/2000/svg"
   xmlns="http://www.w3.org/2000/svg"
   viewBox="0 0 320 320"
   height="320"
   width="320"
   xml:space="preserve"
   version="1.1"
   id="svg2"><metadata
     id="metadata8"><rdf:RDF><cc:Work
         rdf:about=""><dc:format>image/svg+xml</dc:format><dc:type
           rdf:resource="http://purl.org/dc/dcmitype/StillImage" /></cc:Work></rdf:RDF></metadata><defs
     id="defs6"><clipPath
       id="clipPath16"
       clipPathUnits="userSpaceOnUse"><path
         id="path18"
         d="m 240,32 0,8 4,0 0,4 -4,0 0,8 4,0 0,4 -4,0 0,8 4,0 0,4 -4,0 0,8 4,0 0,4 -4,0 0,8 4,0 0,4 -4,0 0,8 4,0 0,4 -4,0 0,8 4,0 0,4 -4,0 0,8 4,0 0,4 -4,0 0,8 4,0 0,4 -4,0 0,8 4,0 0,4 -4,0 0,8 4,0 0,4 -4,0 0,8 4,0 0,4 -4,0 0,8 4,0 0,4 -4,0 0,8 4,0 0,4 -4,0 0,8 4,0 0,4 -4,0 0,8 4,0 0,8.01 0,0 0,1.12 -0.008,0 -6.59,4.87 -218.804,0 -6.598,-4.87 0,-9.13 4,0 0,-8 -4,0 0,-4 4,0 0,-8 -4,0 0,-4 4,0 0,-8 -4,0 0,-4 4,0 0,-8 -4,0 0,-4 4,0 0,-8 -4,0 0,-4 4,0 0,-8 -4,0 0,-4 4,0 0,-8 -4,0 0,-4 4,0 0,-8 -4,0 0,-4 4,0 0,-8 -4,0 0,-4 4,0 0,-8 -4,0 0,-4 4,0 0,-8 -4,0 0,-4 4,0 0,-8 -4,0 0,-4 4,0 0,-8 -4,0 0,-4 4,0 0,-8 -4,0 0,-4 4,0 0,-8 -4,0 0,-4 4,0 0,-8 -4,0 0,-4.01 0,-0.857 6.598,-5.133 218.804,0 6.598,5.133 0,4.867 -4,0 z" /></clipPath><linearGradient
       id="linearGradient24"
       spreadMethod="pad"
       gradientTransform="matrix(216.99837,-216.99837,-216.99837,-216.99837,19.500763,236.63046)"
       gradientUnits="userSpaceOnUse"
       y2="0"
       x2="1"
       y1="0"
       x1="0"><stop
         id="stop26"
         offset="0"
         style="stop-opacity:1;stop-color:#e6e7e8" /><stop
         id="stop28"
         offset="1"
         style="stop-opacity:1;stop-color:#d1d3d4" /></linearGradient><clipPath
       id="clipPath36"
       clipPathUnits="userSpaceOnUse"><path
         id="path38"
         d="M 0,256 256,256 256,0 0,0 0,256 Z" /></clipPath><clipPath
       id="clipPath48"
       clipPathUnits="userSpaceOnUse"><path
         id="path50"
         d="M 44.102,216 C 41.834,216 40,214.177 40,211.921 l 0,0 0,-123.842 C 40,85.823 41.834,84 44.102,84 l 0,0 167.796,0 c 2.269,0 4.102,1.823 4.102,4.079 l 0,0 0,123.842 c 0,2.256 -1.833,4.079 -4.102,4.079 l 0,0 -167.796,0 z" /></clipPath><linearGradient
       id="linearGradient56"
       spreadMethod="pad"
       gradientTransform="matrix(151.60611,-151.60611,-151.60611,-151.60611,52.196957,225.80304)"
       gradientUnits="userSpaceOnUse"
       y2="0"
       x2="1"
       y1="0"
       x1="0"><stop
         id="stop58"
         offset="0"
         style="stop-opacity:1;stop-color:#e6e7e8" /><stop
         id="stop60"
         offset="1"
         style="stop-opacity:1;stop-color:#d1d3d4" /></linearGradient><clipPath
       id="clipPath68"
       clipPathUnits="userSpaceOnUse"><path
         id="path70"
         d="M 0,256 256,256 256,0 0,0 0,256 Z" /></clipPath><clipPath
       id="clipPath108"
       clipPathUnits="userSpaceOnUse"><path
         id="path110"
         d="m 24,212 8,0 0,7.999 -8,0 0,-7.999 z" /></clipPath><linearGradient
       id="linearGradient116"
       spreadMethod="pad"
       gradientTransform="matrix(-7.9999995,7.9999995,7.9999995,7.9999995,32,212)"
       gradientUnits="userSpaceOnUse"
       y2="0"
       x2="1"
       y1="0"
       x1="0"><stop
         id="stop118"
         offset="0"
         style="stop-opacity:1;stop-color:#e6e7e8" /><stop
         id="stop120"
         offset="1"
         style="stop-opacity:1;stop-color:#d1d3d4" /></linearGradient><clipPath
       id="clipPath128"
       clipPathUnits="userSpaceOnUse"><path
         id="path130"
         d="m 24,200 8,0 0,8 -8,0 0,-8 z" /></clipPath><linearGradient
       id="linearGradient136"
       spreadMethod="pad"
       gradientTransform="matrix(-7.9999995,7.9999995,7.9999995,7.9999995,32,200)"
       gradientUnits="userSpaceOnUse"
       y2="0"
       x2="1"
       y1="0"
       x1="0"><stop
         id="stop138"
         offset="0"
         style="stop-opacity:1;stop-color:#e6e7e8" /><stop
         id="stop140"
         offset="1"
         style="stop-opacity:1;stop-color:#d1d3d4" /></linearGradient><clipPath
       id="clipPath148"
       clipPathUnits="userSpaceOnUse"><path
         id="path150"
         d="m 24,188 8,0 0,8 -8,0 0,-8 z" /></clipPath><linearGradient
       id="linearGradient156"
       spreadMethod="pad"
       gradientTransform="matrix(-7.9999995,7.9999995,7.9999995,7.9999995,32,188)"
       gradientUnits="userSpaceOnUse"
       y2="0"
       x2="1"
       y1="0"
       x1="0"><stop
         id="stop158"
         offset="0"
         style="stop-opacity:1;stop-color:#e6e7e8" /><stop
         id="stop160"
         offset="1"
         style="stop-opacity:1;stop-color:#d1d3d4" /></linearGradient><clipPath
       id="clipPath168"
       clipPathUnits="userSpaceOnUse"><path
         id="path170"
         d="m 24,176 8,0 0,7.999 -8,0 0,-7.999 z" /></clipPath><linearGradient
       id="linearGradient176"
       spreadMethod="pad"
       gradientTransform="matrix(-7.9999995,7.9999995,7.9999995,7.9999995,32,176)"
       gradientUnits="userSpaceOnUse"
       y2="0"
       x2="1"
       y1="0"
       x1="0"><stop
         id="stop178"
         offset="0"
         style="stop-opacity:1;stop-color:#e6e7e8" /><stop
         id="stop180"
         offset="1"
         style="stop-opacity:1;stop-color:#d1d3d4" /></linearGradient><clipPath
       id="clipPath188"
       clipPathUnits="userSpaceOnUse"><path
         id="path190"
         d="m 24,164 8,0 0,8 -8,0 0,-8 z" /></clipPath><linearGradient
       id="linearGradient196"
       spreadMethod="pad"
       gradientTransform="matrix(-7.9999995,7.9999995,7.9999995,7.9999995,32,164)"
       gradientUnits="userSpaceOnUse"
       y2="0"
       x2="1"
       y1="0"
       x1="0"><stop
         id="stop198"
         offset="0"
         style="stop-opacity:1;stop-color:#e6e7e8" /><stop
         id="stop200"
         offset="1"
         style="stop-opacity:1;stop-color:#d1d3d4" /></linearGradient><clipPath
       id="clipPath208"
       clipPathUnits="userSpaceOnUse"><path
         id="path210"
         d="m 24,152 8,0 0,8 -8,0 0,-8 z" /></clipPath><linearGradient
       id="linearGradient216"
       spreadMethod="pad"
       gradientTransform="matrix(-7.9999995,7.9999995,7.9999995,7.9999995,32,152)"
       gradientUnits="userSpaceOnUse"
       y2="0"
       x2="1"
       y1="0"
       x1="0"><stop
         id="stop218"
         offset="0"
         style="stop-opacity:1;stop-color:#e6e7e8" /><stop
         id="stop220"
         offset="1"
         style="stop-opacity:1;stop-color:#d1d3d4" /></linearGradient><clipPath
       id="clipPath228"
       clipPathUnits="userSpaceOnUse"><path
         id="path230"
         d="m 24,140 8,0 0,7.999 -8,0 0,-7.999 z" /></clipPath><linearGradient
       id="linearGradient236"
       spreadMethod="pad"
       gradientTransform="matrix(-7.9999995,7.9999995,7.9999995,7.9999995,32,140)"
       gradientUnits="userSpaceOnUse"
       y2="0"
       x2="1"
       y1="0"
       x1="0"><stop
         id="stop238"
         offset="0"
         style="stop-opacity:1;stop-color:#e6e7e8" /><stop
         id="stop240"
         offset="1"
         style="stop-opacity:1;stop-color:#d1d3d4" /></linearGradient><clipPath
       id="clipPath248"
       clipPathUnits="userSpaceOnUse"><path
         id="path250"
         d="m 24,128 8,0 0,8 -8,0 0,-8 z" /></clipPath><linearGradient
       id="linearGradient256"
       spreadMethod="pad"
       gradientTransform="matrix(-7.9999995,7.9999995,7.9999995,7.9999995,32,128)"
       gradientUnits="userSpaceOnUse"
       y2="0"
       x2="1"
       y1="0"
       x1="0"><stop
         id="stop258"
         offset="0"
         style="stop-opacity:1;stop-color:#e6e7e8" /><stop
         id="stop260"
         offset="1"
         style="stop-opacity:1;stop-color:#d1d3d4" /></linearGradient><clipPath
       id="clipPath268"
       clipPathUnits="userSpaceOnUse"><path
         id="path270"
         d="m 24,116 8,0 0,8 -8,0 0,-8 z" /></clipPath><linearGradient
       id="linearGradient276"
       spreadMethod="pad"
       gradientTransform="matrix(-7.9999995,7.9999995,7.9999995,7.9999995,32,116)"
       gradientUnits="userSpaceOnUse"
       y2="0"
       x2="1"
       y1="0"
       x1="0"><stop
         id="stop278"
         offset="0"
         style="stop-opacity:1;stop-color:#e6e7e8" /><stop
         id="stop280"
         offset="1"
         style="stop-opacity:1;stop-color:#d1d3d4" /></linearGradient><clipPath
       id="clipPath288"
       clipPathUnits="userSpaceOnUse"><path
         id="path290"
         d="m 24,104 8,0 0,7.999 -8,0 0,-7.999 z" /></clipPath><linearGradient
       id="linearGradient296"
       spreadMethod="pad"
       gradientTransform="matrix(-7.9999995,7.9999995,7.9999995,7.9999995,32,104)"
       gradientUnits="userSpaceOnUse"
       y2="0"
       x2="1"
       y1="0"
       x1="0"><stop
         id="stop298"
         offset="0"
         style="stop-opacity:1;stop-color:#e6e7e8" /><stop
         id="stop300"
         offset="1"
         style="stop-opacity:1;stop-color:#d1d3d4" /></linearGradient><clipPath
       id="clipPath308"
       clipPathUnits="userSpaceOnUse"><path
         id="path310"
         d="m 24,92 8,0 0,8 -8,0 0,-8 z" /></clipPath><linearGradient
       id="linearGradient316"
       spreadMethod="pad"
       gradientTransform="matrix(-7.9999995,7.9999995,7.9999995,7.9999995,32,92)"
       gradientUnits="userSpaceOnUse"
       y2="0"
       x2="1"
       y1="0"
       x1="0"><stop
         id="stop318"
         offset="0"
         style="stop-opacity:1;stop-color:#e6e7e8" /><stop
         id="stop320"
         offset="1"
         style="stop-opacity:1;stop-color:#d1d3d4" /></linearGradient><clipPath
       id="clipPath328"
       clipPathUnits="userSpaceOnUse"><path
         id="path330"
         d="m 24,80 8,0 0,8 -8,0 0,-8 z" /></clipPath><linearGradient
       id="linearGradient336"
       spreadMethod="pad"
       gradientTransform="matrix(-7.9999995,7.9999995,7.9999995,7.9999995,32,80)"
       gradientUnits="userSpaceOnUse"
       y2="0"
       x2="1"
       y1="0"
       x1="0"><stop
         id="stop338"
         offset="0"
         style="stop-opacity:1;stop-color:#e6e7e8" /><stop
         id="stop340"
         offset="1"
         style="stop-opacity:1;stop-color:#d1d3d4" /></linearGradient><clipPath
       id="clipPath348"
       clipPathUnits="userSpaceOnUse"><path
         id="path350"
         d="m 24,68 8,0 0,7.999 -8,0 L 24,68 Z" /></clipPath><linearGradient
       id="linearGradient356"
       spreadMethod="pad"
       gradientTransform="matrix(-7.9999995,7.9999995,7.9999995,7.9999995,32,68)"
       gradientUnits="userSpaceOnUse"
       y2="0"
       x2="1"
       y1="0"
       x1="0"><stop
         id="stop358"
         offset="0"
         style="stop-opacity:1;stop-color:#e6e7e8" /><stop
         id="stop360"
         offset="1"
         style="stop-opacity:1;stop-color:#d1d3d4" /></linearGradient><clipPath
       id="clipPath368"
       clipPathUnits="userSpaceOnUse"><path
         id="path370"
         d="m 24,56 8,0 0,8 -8,0 0,-8 z" /></clipPath><linearGradient
       id="linearGradient376"
       spreadMethod="pad"
       gradientTransform="matrix(-7.9999995,7.9999995,7.9999995,7.9999995,32,56)"
       gradientUnits="userSpaceOnUse"
       y2="0"
       x2="1"
       y1="0"
       x1="0"><stop
         id="stop378"
         offset="0"
         style="stop-opacity:1;stop-color:#e6e7e8" /><stop
         id="stop380"
         offset="1"
         style="stop-opacity:1;stop-color:#d1d3d4" /></linearGradient><clipPath
       id="clipPath388"
       clipPathUnits="userSpaceOnUse"><path
         id="path390"
         d="m 24,44 8,0 0,8 -8,0 0,-8 z" /></clipPath><linearGradient
       id="linearGradient396"
       spreadMethod="pad"
       gradientTransform="matrix(-7.9999995,7.9999995,7.9999995,7.9999995,32,44)"
       gradientUnits="userSpaceOnUse"
       y2="0"
       x2="1"
       y1="0"
       x1="0"><stop
         id="stop398"
         offset="0"
         style="stop-opacity:1;stop-color:#e6e7e8" /><stop
         id="stop400"
         offset="1"
         style="stop-opacity:1;stop-color:#d1d3d4" /></linearGradient><clipPath
       id="clipPath408"
       clipPathUnits="userSpaceOnUse"><path
         id="path410"
         d="m 24,32 8,0 0,7.999 -8,0 L 24,32 Z" /></clipPath><linearGradient
       id="linearGradient416"
       spreadMethod="pad"
       gradientTransform="matrix(-7.9999995,7.9999995,7.9999995,7.9999995,32,32)"
       gradientUnits="userSpaceOnUse"
       y2="0"
       x2="1"
       y1="0"
       x1="0"><stop
         id="stop418"
         offset="0"
         style="stop-opacity:1;stop-color:#e6e7e8" /><stop
         id="stop420"
         offset="1"
         style="stop-opacity:1;stop-color:#d1d3d4" /></linearGradient><clipPath
       id="clipPath428"
       clipPathUnits="userSpaceOnUse"><path
         id="path430"
         d="M 0,256 256,256 256,0 0,0 0,256 Z" /></clipPath><clipPath
       id="clipPath470"
       clipPathUnits="userSpaceOnUse"><path
         id="path472"
         d="m 172,188 -44,0 -44,0 -44,0 0,-4 44,0 44,0 44,0 44,0 0,4 -44,0 z" /></clipPath><linearGradient
       id="linearGradient478"
       spreadMethod="pad"
       gradientTransform="matrix(-90,90,90,90,173,141)"
       gradientUnits="userSpaceOnUse"
       y2="0"
       x2="1"
       y1="0"
       x1="0"><stop
         id="stop480"
         offset="0"
         style="stop-opacity:1;stop-color:#e6e7e8" /><stop
         id="stop482"
         offset="1"
         style="stop-opacity:1;stop-color:#d1d3d4" /></linearGradient><clipPath
       id="clipPath490"
       clipPathUnits="userSpaceOnUse"><path
         id="path492"
         d="m 224,212 8,0 0,7.999 -8,0 0,-7.999 z" /></clipPath><linearGradient
       id="linearGradient498"
       spreadMethod="pad"
       gradientTransform="matrix(7.9999995,7.9999995,7.9999995,-7.9999995,224,212)"
       gradientUnits="userSpaceOnUse"
       y2="0"
       x2="1"
       y1="0"
       x1="0"><stop
         id="stop500"
         offset="0"
         style="stop-opacity:1;stop-color:#e6e7e8" /><stop
         id="stop502"
         offset="1"
         style="stop-opacity:1;stop-color:#d1d3d4" /></linearGradient><clipPath
       id="clipPath510"
       clipPathUnits="userSpaceOnUse"><path
         id="path512"
         d="m 224,200 8,0 0,8 -8,0 0,-8 z" /></clipPath><linearGradient
       id="linearGradient518"
       spreadMethod="pad"
       gradientTransform="matrix(7.9999995,7.9999995,7.9999995,-7.9999995,224,200)"
       gradientUnits="userSpaceOnUse"
       y2="0"
       x2="1"
       y1="0"
       x1="0"><stop
         id="stop520"
         offset="0"
         style="stop-opacity:1;stop-color:#e6e7e8" /><stop
         id="stop522"
         offset="1"
         style="stop-opacity:1;stop-color:#d1d3d4" /></linearGradient><clipPath
       id="clipPath530"
       clipPathUnits="userSpaceOnUse"><path
         id="path532"
         d="m 224,188 8,0 0,8 -8,0 0,-8 z" /></clipPath><linearGradient
       id="linearGradient538"
       spreadMethod="pad"
       gradientTransform="matrix(7.9999995,7.9999995,7.9999995,-7.9999995,224,188)"
       gradientUnits="userSpaceOnUse"
       y2="0"
       x2="1"
       y1="0"
       x1="0"><stop
         id="stop540"
         offset="0"
         style="stop-opacity:1;stop-color:#e6e7e8" /><stop
         id="stop542"
         offset="1"
         style="stop-opacity:1;stop-color:#d1d3d4" /></linearGradient><clipPath
       id="clipPath550"
       clipPathUnits="userSpaceOnUse"><path
         id="path552"
         d="m 224,176 8,0 0,7.999 -8,0 0,-7.999 z" /></clipPath><linearGradient
       id="linearGradient558"
       spreadMethod="pad"
       gradientTransform="matrix(7.9999995,7.9999995,7.9999995,-7.9999995,224,176)"
       gradientUnits="userSpaceOnUse"
       y2="0"
       x2="1"
       y1="0"
       x1="0"><stop
         id="stop560"
         offset="0"
         style="stop-opacity:1;stop-color:#e6e7e8" /><stop
         id="stop562"
         offset="1"
         style="stop-opacity:1;stop-color:#d1d3d4" /></linearGradient><clipPath
       id="clipPath570"
       clipPathUnits="userSpaceOnUse"><path
         id="path572"
         d="m 224,164 8,0 0,8 -8,0 0,-8 z" /></clipPath><linearGradient
       id="linearGradient578"
       spreadMethod="pad"
       gradientTransform="matrix(7.9999995,7.9999995,7.9999995,-7.9999995,224,164)"
       gradientUnits="userSpaceOnUse"
       y2="0"
       x2="1"
       y1="0"
       x1="0"><stop
         id="stop580"
         offset="0"
         style="stop-opacity:1;stop-color:#e6e7e8" /><stop
         id="stop582"
         offset="1"
         style="stop-opacity:1;stop-color:#d1d3d4" /></linearGradient><clipPath
       id="clipPath590"
       clipPathUnits="userSpaceOnUse"><path
         id="path592"
         d="m 224,152 8,0 0,8 -8,0 0,-8 z" /></clipPath><linearGradient
       id="linearGradient598"
       spreadMethod="pad"
       gradientTransform="matrix(7.9999995,7.9999995,7.9999995,-7.9999995,224,152)"
       gradientUnits="userSpaceOnUse"
       y2="0"
       x2="1"
       y1="0"
       x1="0"><stop
         id="stop600"
         offset="0"
         style="stop-opacity:1;stop-color:#e6e7e8" /><stop
         id="stop602"
         offset="1"
         style="stop-opacity:1;stop-color:#d1d3d4" /></linearGradient><clipPath
       id="clipPath610"
       clipPathUnits="userSpaceOnUse"><path
         id="path612"
         d="m 224,140 8,0 0,7.999 -8,0 0,-7.999 z" /></clipPath><linearGradient
       id="linearGradient618"
       spreadMethod="pad"
       gradientTransform="matrix(7.9999995,7.9999995,7.9999995,-7.9999995,224,140)"
       gradientUnits="userSpaceOnUse"
       y2="0"
       x2="1"
       y1="0"
       x1="0"><stop
         id="stop620"
         offset="0"
         style="stop-opacity:1;stop-color:#e6e7e8" /><stop
         id="stop622"
         offset="1"
         style="stop-opacity:1;stop-color:#d1d3d4" /></linearGradient><clipPath
       id="clipPath630"
       clipPathUnits="userSpaceOnUse"><path
         id="path632"
         d="m 224,128 8,0 0,8 -8,0 0,-8 z" /></clipPath><linearGradient
       id="linearGradient638"
       spreadMethod="pad"
       gradientTransform="matrix(7.9999995,7.9999995,7.9999995,-7.9999995,224,128)"
       gradientUnits="userSpaceOnUse"
       y2="0"
       x2="1"
       y1="0"
       x1="0"><stop
         id="stop640"
         offset="0"
         style="stop-opacity:1;stop-color:#e6e7e8" /><stop
         id="stop642"
         offset="1"
         style="stop-opacity:1;stop-color:#d1d3d4" /></linearGradient><clipPath
       id="clipPath650"
       clipPathUnits="userSpaceOnUse"><path
         id="path652"
         d="m 224,116 8,0 0,8 -8,0 0,-8 z" /></clipPath><linearGradient
       id="linearGradient658"
       spreadMethod="pad"
       gradientTransform="matrix(7.9999995,7.9999995,7.9999995,-7.9999995,224,116)"
       gradientUnits="userSpaceOnUse"
       y2="0"
       x2="1"
       y1="0"
       x1="0"><stop
         id="stop660"
         offset="0"
         style="stop-opacity:1;stop-color:#e6e7e8" /><stop
         id="stop662"
         offset="1"
         style="stop-opacity:1;stop-color:#d1d3d4" /></linearGradient><clipPath
       id="clipPath670"
       clipPathUnits="userSpaceOnUse"><path
         id="path672"
         d="m 224,104 8,0 0,7.999 -8,0 0,-7.999 z" /></clipPath><linearGradient
       id="linearGradient678"
       spreadMethod="pad"
       gradientTransform="matrix(7.9999995,7.9999995,7.9999995,-7.9999995,224,104)"
       gradientUnits="userSpaceOnUse"
       y2="0"
       x2="1"
       y1="0"
       x1="0"><stop
         id="stop680"
         offset="0"
         style="stop-opacity:1;stop-color:#e6e7e8" /><stop
         id="stop682"
         offset="1"
         style="stop-opacity:1;stop-color:#d1d3d4" /></linearGradient><clipPath
       id="clipPath690"
       clipPathUnits="userSpaceOnUse"><path
         id="path692"
         d="m 224,92 8,0 0,8 -8,0 0,-8 z" /></clipPath><linearGradient
       id="linearGradient698"
       spreadMethod="pad"
       gradientTransform="matrix(7.9999995,7.9999995,7.9999995,-7.9999995,224,92)"
       gradientUnits="userSpaceOnUse"
       y2="0"
       x2="1"
       y1="0"
       x1="0"><stop
         id="stop700"
         offset="0"
         style="stop-opacity:1;stop-color:#e6e7e8" /><stop
         id="stop702"
         offset="1"
         style="stop-opacity:1;stop-color:#d1d3d4" /></linearGradient><clipPath
       id="clipPath710"
       clipPathUnits="userSpaceOnUse"><path
         id="path712"
         d="m 224,80 8,0 0,8 -8,0 0,-8 z" /></clipPath><linearGradient
       id="linearGradient718"
       spreadMethod="pad"
       gradientTransform="matrix(7.9999995,7.9999995,7.9999995,-7.9999995,224,80)"
       gradientUnits="userSpaceOnUse"
       y2="0"
       x2="1"
       y1="0"
       x1="0"><stop
         id="stop720"
         offset="0"
         style="stop-opacity:1;stop-color:#e6e7e8" /><stop
         id="stop722"
         offset="1"
         style="stop-opacity:1;stop-color:#d1d3d4" /></linearGradient><clipPath
       id="clipPath730"
       clipPathUnits="userSpaceOnUse"><path
         id="path732"
         d="m 224,68 8,0 0,7.999 -8,0 0,-7.999 z" /></clipPath><linearGradient
       id="linearGradient738"
       spreadMethod="pad"
       gradientTransform="matrix(7.9999995,7.9999995,7.9999995,-7.9999995,224,68)"
       gradientUnits="userSpaceOnUse"
       y2="0"
       x2="1"
       y1="0"
       x1="0"><stop
         id="stop740"
         offset="0"
         style="stop-opacity:1;stop-color:#e6e7e8" /><stop
         id="stop742"
         offset="1"
         style="stop-opacity:1;stop-color:#d1d3d4" /></linearGradient><clipPath
       id="clipPath750"
       clipPathUnits="userSpaceOnUse"><path
         id="path752"
         d="m 224,56 8,0 0,8 -8,0 0,-8 z" /></clipPath><linearGradient
       id="linearGradient758"
       spreadMethod="pad"
       gradientTransform="matrix(7.9999995,7.9999995,7.9999995,-7.9999995,224,56)"
       gradientUnits="userSpaceOnUse"
       y2="0"
       x2="1"
       y1="0"
       x1="0"><stop
         id="stop760"
         offset="0"
         style="stop-opacity:1;stop-color:#e6e7e8" /><stop
         id="stop762"
         offset="1"
         style="stop-opacity:1;stop-color:#d1d3d4" /></linearGradient><clipPath
       id="clipPath770"
       clipPathUnits="userSpaceOnUse"><path
         id="path772"
         d="m 224,44 8,0 0,8 -8,0 0,-8 z" /></clipPath><linearGradient
       id="linearGradient778"
       spreadMethod="pad"
       gradientTransform="matrix(7.9999995,7.9999995,7.9999995,-7.9999995,224,44)"
       gradientUnits="userSpaceOnUse"
       y2="0"
       x2="1"
       y1="0"
       x1="0"><stop
         id="stop780"
         offset="0"
         style="stop-opacity:1;stop-color:#e6e7e8" /><stop
         id="stop782"
         offset="1"
         style="stop-opacity:1;stop-color:#d1d3d4" /></linearGradient><clipPath
       id="clipPath790"
       clipPathUnits="userSpaceOnUse"><path
         id="path792"
         d="m 224,32 8,0 0,7.999 -8,0 0,-7.999 z" /></clipPath><linearGradient
       id="linearGradient798"
       spreadMethod="pad"
       gradientTransform="matrix(7.9999995,7.9999995,7.9999995,-7.9999995,224,32)"
       gradientUnits="userSpaceOnUse"
       y2="0"
       x2="1"
       y1="0"
       x1="0"><stop
         id="stop800"
         offset="0"
         style="stop-opacity:1;stop-color:#e6e7e8" /><stop
         id="stop802"
         offset="1"
         style="stop-opacity:1;stop-color:#d1d3d4" /></linearGradient><clipPath
       id="clipPath810"
       clipPathUnits="userSpaceOnUse"><path
         id="path812"
         d="M 0,256 256,256 256,0 0,0 0,256 Z" /></clipPath></defs><g
     transform="matrix(1.25,0,0,-1.25,0,320)"
     id="g10"><g
       id="g12"><g
         clip-path="url(#clipPath16)"
         id="g14"><g
           id="g20"><g
             id="g22"><path
               id="path30"
               style="fill:url(#linearGradient24);stroke:none"
               d="m 240,32 0,8 4,0 0,4 -4,0 0,8 4,0 0,4 -4,0 0,8 4,0 0,4 -4,0 0,8 4,0 0,4 -4,0 0,8 4,0 0,4 -4,0 0,8 4,0 0,4 -4,0 0,8 4,0 0,4 -4,0 0,8 4,0 0,4 -4,0 0,8 4,0 0,4 -4,0 0,8 4,0 0,4 -4,0 0,8 4,0 0,4 -4,0 0,8 4,0 0,4 -4,0 0,8 4,0 0,4 -4,0 0,8 4,0 0,4 -4,0 0,8 4,0 0,4 -4,0 0,8 4,0 0,8.01 0,0 0,1.12 -0.008,0 -6.59,4.87 -218.804,0 -6.598,-4.87 0,-9.13 4,0 0,-8 -4,0 0,-4 4,0 0,-8 -4,0 0,-4 4,0 0,-8 -4,0 0,-4 4,0 0,-8 -4,0 0,-4 4,0 0,-8 -4,0 0,-4 4,0 0,-8 -4,0 0,-4 4,0 0,-8 -4,0 0,-4 4,0 0,-8 -4,0 0,-4 4,0 0,-8 -4,0 0,-4 4,0 0,-8 -4,0 0,-4 4,0 0,-8 -4,0 0,-4 4,0 0,-8 -4,0 0,-4 4,0 0,-8 -4,0 0,-4 4,0 0,-8 -4,0 0,-4 4,0 0,-8 -4,0 0,-4 4,0 0,-8 -4,0 0,-4.01 0,-0.857 6.598,-5.133 218.804,0 6.598,5.133 0,4.867 -4,0 z" /></g></g></g></g><g
       id="g32"><g
         clip-path="url(#clipPath36)"
         id="g34"><g
           transform="translate(211.9541,219.8274)"
           id="g40"><path
             id="path42"
             style="fill:#999999;fill-opacity:1;fill-rule:nonzero;stroke:none"
             d="m 0,0 -167.878,0 c -4.445,0 -8.061,-3.624 -8.061,-8.079 l 0,-123.843 c 0,-4.454 3.616,-8.078 8.061,-8.078 L 0,-140 c 4.445,0 8.061,3.624 8.061,8.078 l 0,123.843 C 8.061,-3.624 4.445,0 0,0" /></g></g></g><g
       id="g44"><g
         clip-path="url(#clipPath48)"
         id="g46"><g
           id="g52"><g
             id="g54"><path
               id="path62"
               style="fill:url(#linearGradient56);stroke:none"
               d="M 44.102,216 C 41.834,216 40,214.177 40,211.921 l 0,0 0,-123.842 C 40,85.823 41.834,84 44.102,84 l 0,0 167.796,0 c 2.269,0 4.102,1.823 4.102,4.079 l 0,0 0,123.842 c 0,2.256 -1.833,4.079 -4.102,4.079 l 0,0 -167.796,0 z" /></g></g></g></g><g
       id="g64"><g
         clip-path="url(#clipPath68)"
         id="g66"><path
           id="path72"
           style="fill:#b3b3b3;fill-opacity:1;fill-rule:nonzero;stroke:none"
           d="m 24,212 -8,0 0,8 8,0 0,-8 z" /><path
           id="path74"
           style="fill:#b3b3b3;fill-opacity:1;fill-rule:nonzero;stroke:none"
           d="m 24,200 -8,0 0,8 8,0 0,-8 z" /><path
           id="path76"
           style="fill:#b3b3b3;fill-opacity:1;fill-rule:nonzero;stroke:none"
           d="m 24,188 -8,0 0,8 8,0 0,-8 z" /><path
           id="path78"
           style="fill:#b3b3b3;fill-opacity:1;fill-rule:nonzero;stroke:none"
           d="m 24,176 -8,0 0,8 8,0 0,-8 z" /><path
           id="path80"
           style="fill:#b3b3b3;fill-opacity:1;fill-rule:nonzero;stroke:none"
           d="m 24,164 -8,0 0,8 8,0 0,-8 z" /><path
           id="path82"
           style="fill:#b3b3b3;fill-opacity:1;fill-rule:nonzero;stroke:none"
           d="m 24,152 -8,0 0,8 8,0 0,-8 z" /><path
           id="path84"
           style="fill:#b3b3b3;fill-opacity:1;fill-rule:nonzero;stroke:none"
           d="m 24,140 -8,0 0,8 8,0 0,-8 z" /><path
           id="path86"
           style="fill:#b3b3b3;fill-opacity:1;fill-rule:nonzero;stroke:none"
           d="m 24,128 -8,0 0,8 8,0 0,-8 z" /><path
           id="path88"
           style="fill:#b3b3b3;fill-opacity:1;fill-rule:nonzero;stroke:none"
           d="m 24,116 -8,0 0,8 8,0 0,-8 z" /><path
           id="path90"
           style="fill:#b3b3b3;fill-opacity:1;fill-rule:nonzero;stroke:none"
           d="m 24,104 -8,0 0,8 8,0 0,-8 z" /><path
           id="path92"
           style="fill:#b3b3b3;fill-opacity:1;fill-rule:nonzero;stroke:none"
           d="m 24,92 -8,0 0,8 8,0 0,-8 z" /><path
           id="path94"
           style="fill:#b3b3b3;fill-opacity:1;fill-rule:nonzero;stroke:none"
           d="m 24,80 -8,0 0,8 8,0 0,-8 z" /><path
           id="path96"
           style="fill:#b3b3b3;fill-opacity:1;fill-rule:nonzero;stroke:none"
           d="m 24,68 -8,0 0,8 8,0 0,-8 z" /><path
           id="path98"
           style="fill:#b3b3b3;fill-opacity:1;fill-rule:nonzero;stroke:none"
           d="m 24,56 -8,0 0,8 8,0 0,-8 z" /><path
           id="path100"
           style="fill:#b3b3b3;fill-opacity:1;fill-rule:nonzero;stroke:none"
           d="m 24,44 -8,0 0,8 8,0 0,-8 z" /><path
           id="path102"
           style="fill:#b3b3b3;fill-opacity:1;fill-rule:nonzero;stroke:none"
           d="m 24,32 -8,0 0,8 8,0 0,-8 z" /></g></g><g
       id="g104"><g
         clip-path="url(#clipPath108)"
         id="g106"><g
           id="g112"><g
             id="g114"><path
               id="path122"
               style="fill:url(#linearGradient116);stroke:none"
               d="m 24,212 8,0 0,7.999 -8,0 0,-7.999 z" /></g></g></g></g><g
       id="g124"><g
         clip-path="url(#clipPath128)"
         id="g126"><g
           id="g132"><g
             id="g134"><path
               id="path142"
               style="fill:url(#linearGradient136);stroke:none"
               d="m 24,200 8,0 0,8 -8,0 0,-8 z" /></g></g></g></g><g
       id="g144"><g
         clip-path="url(#clipPath148)"
         id="g146"><g
           id="g152"><g
             id="g154"><path
               id="path162"
               style="fill:url(#linearGradient156);stroke:none"
               d="m 24,188 8,0 0,8 -8,0 0,-8 z" /></g></g></g></g><g
       id="g164"><g
         clip-path="url(#clipPath168)"
         id="g166"><g
           id="g172"><g
             id="g174"><path
               id="path182"
               style="fill:url(#linearGradient176);stroke:none"
               d="m 24,176 8,0 0,7.999 -8,0 0,-7.999 z" /></g></g></g></g><g
       id="g184"><g
         clip-path="url(#clipPath188)"
         id="g186"><g
           id="g192"><g
             id="g194"><path
               id="path202"
               style="fill:url(#linearGradient196);stroke:none"
               d="m 24,164 8,0 0,8 -8,0 0,-8 z" /></g></g></g></g><g
       id="g204"><g
         clip-path="url(#clipPath208)"
         id="g206"><g
           id="g212"><g
             id="g214"><path
               id="path222"
               style="fill:url(#linearGradient216);stroke:none"
               d="m 24,152 8,0 0,8 -8,0 0,-8 z" /></g></g></g></g><g
       id="g224"><g
         clip-path="url(#clipPath228)"
         id="g226"><g
           id="g232"><g
             id="g234"><path
               id="path242"
               style="fill:url(#linearGradient236);stroke:none"
               d="m 24,140 8,0 0,7.999 -8,0 0,-7.999 z" /></g></g></g></g><g
       id="g244"><g
         clip-path="url(#clipPath248)"
         id="g246"><g
           id="g252"><g
             id="g254"><path
               id="path262"
               style="fill:url(#linearGradient256);stroke:none"
               d="m 24,128 8,0 0,8 -8,0 0,-8 z" /></g></g></g></g><g
       id="g264"><g
         clip-path="url(#clipPath268)"
         id="g266"><g
           id="g272"><g
             id="g274"><path
               id="path282"
               style="fill:url(#linearGradient276);stroke:none"
               d="m 24,116 8,0 0,8 -8,0 0,-8 z" /></g></g></g></g><g
       id="g284"><g
         clip-path="url(#clipPath288)"
         id="g286"><g
           id="g292"><g
             id="g294"><path
               id="path302"
               style="fill:url(#linearGradient296);stroke:none"
               d="m 24,104 8,0 0,7.999 -8,0 0,-7.999 z" /></g></g></g></g><g
       id="g304"><g
         clip-path="url(#clipPath308)"
         id="g306"><g
           id="g312"><g
             id="g314"><path
               id="path322"
               style="fill:url(#linearGradient316);stroke:none"
               d="m 24,92 8,0 0,8 -8,0 0,-8 z" /></g></g></g></g><g
       id="g324"><g
         clip-path="url(#clipPath328)"
         id="g326"><g
           id="g332"><g
             id="g334"><path
               id="path342"
               style="fill:url(#linearGradient336);stroke:none"
               d="m 24,80 8,0 0,8 -8,0 0,-8 z" /></g></g></g></g><g
       id="g344"><g
         clip-path="url(#clipPath348)"
         id="g346"><g
           id="g352"><g
             id="g354"><path
               id="path362"
               style="fill:url(#linearGradient356);stroke:none"
               d="m 24,68 8,0 0,7.999 -8,0 L 24,68 Z" /></g></g></g></g><g
       id="g364"><g
         clip-path="url(#clipPath368)"
         id="g366"><g
           id="g372"><g
             id="g374"><path
               id="path382"
               style="fill:url(#linearGradient376);stroke:none"
               d="m 24,56 8,0 0,8 -8,0 0,-8 z" /></g></g></g></g><g
       id="g384"><g
         clip-path="url(#clipPath388)"
         id="g386"><g
           id="g392"><g
             id="g394"><path
               id="path402"
               style="fill:url(#linearGradient396);stroke:none"
               d="m 24,44 8,0 0,8 -8,0 0,-8 z" /></g></g></g></g><g
       id="g404"><g
         clip-path="url(#clipPath408)"
         id="g406"><g
           id="g412"><g
             id="g414"><path
               id="path422"
               style="fill:url(#linearGradient416);stroke:none"
               d="m 24,32 8,0 0,7.999 -8,0 L 24,32 Z" /></g></g></g></g><g
       id="g424"><g
         clip-path="url(#clipPath428)"
         id="g426"><path
           id="path432"
           style="fill:#b3b3b3;fill-opacity:1;fill-rule:nonzero;stroke:none"
           d="m 240,212 -8,0 0,8 8,0 0,-8 z" /><path
           id="path434"
           style="fill:#b3b3b3;fill-opacity:1;fill-rule:nonzero;stroke:none"
           d="m 240,200 -8,0 0,8 8,0 0,-8 z" /><path
           id="path436"
           style="fill:#b3b3b3;fill-opacity:1;fill-rule:nonzero;stroke:none"
           d="m 240,188 -8,0 0,8 8,0 0,-8 z" /><path
           id="path438"
           style="fill:#b3b3b3;fill-opacity:1;fill-rule:nonzero;stroke:none"
           d="m 240,176 -8,0 0,8 8,0 0,-8 z" /><path
           id="path440"
           style="fill:#b3b3b3;fill-opacity:1;fill-rule:nonzero;stroke:none"
           d="m 240,164 -8,0 0,8 8,0 0,-8 z" /><path
           id="path442"
           style="fill:#b3b3b3;fill-opacity:1;fill-rule:nonzero;stroke:none"
           d="m 240,152 -8,0 0,8 8,0 0,-8 z" /><path
           id="path444"
           style="fill:#b3b3b3;fill-opacity:1;fill-rule:nonzero;stroke:none"
           d="m 240,140 -8,0 0,8 8,0 0,-8 z" /><path
           id="path446"
           style="fill:#b3b3b3;fill-opacity:1;fill-rule:nonzero;stroke:none"
           d="m 240,128 -8,0 0,8 8,0 0,-8 z" /><path
           id="path448"
           style="fill:#b3b3b3;fill-opacity:1;fill-rule:nonzero;stroke:none"
           d="m 240,116 -8,0 0,8 8,0 0,-8 z" /><path
           id="path450"
           style="fill:#b3b3b3;fill-opacity:1;fill-rule:nonzero;stroke:none"
           d="m 240,104 -8,0 0,8 8,0 0,-8 z" /><path
           id="path452"
           style="fill:#b3b3b3;fill-opacity:1;fill-rule:nonzero;stroke:none"
           d="m 240,92 -8,0 0,8 8,0 0,-8 z" /><path
           id="path454"
           style="fill:#b3b3b3;fill-opacity:1;fill-rule:nonzero;stroke:none"
           d="m 240,80 -8,0 0,8 8,0 0,-8 z" /><path
           id="path456"
           style="fill:#b3b3b3;fill-opacity:1;fill-rule:nonzero;stroke:none"
           d="m 240,68 -8,0 0,8 8,0 0,-8 z" /><path
           id="path458"
           style="fill:#b3b3b3;fill-opacity:1;fill-rule:nonzero;stroke:none"
           d="m 240,56 -8,0 0,8 8,0 0,-8 z" /><path
           id="path460"
           style="fill:#b3b3b3;fill-opacity:1;fill-rule:nonzero;stroke:none"
           d="m 240,44 -8,0 0,8 8,0 0,-8 z" /><path
           id="path462"
           style="fill:#b3b3b3;fill-opacity:1;fill-rule:nonzero;stroke:none"
           d="m 240,32 -8,0 0,8 8,0 0,-8 z" /><path
           id="path464"
           style="fill:#999999;fill-opacity:1;fill-rule:nonzero;stroke:none"
           d="m 220,168 -184,0 0,16 184,0 0,-16 z" /></g></g><g
       id="g466"><g
         clip-path="url(#clipPath470)"
         id="g468"><g
           id="g474"><g
             id="g476"><path
               id="path484"
               style="fill:url(#linearGradient478);stroke:none"
               d="m 172,188 -44,0 -44,0 -44,0 0,-4 44,0 44,0 44,0 44,0 0,4 -44,0 z" /></g></g></g></g><g
       id="g486"><g
         clip-path="url(#clipPath490)"
         id="g488"><g
           id="g494"><g
             id="g496"><path
               id="path504"
               style="fill:url(#linearGradient498);stroke:none"
               d="m 224,212 8,0 0,7.999 -8,0 0,-7.999 z" /></g></g></g></g><g
       id="g506"><g
         clip-path="url(#clipPath510)"
         id="g508"><g
           id="g514"><g
             id="g516"><path
               id="path524"
               style="fill:url(#linearGradient518);stroke:none"
               d="m 224,200 8,0 0,8 -8,0 0,-8 z" /></g></g></g></g><g
       id="g526"><g
         clip-path="url(#clipPath530)"
         id="g528"><g
           id="g534"><g
             id="g536"><path
               id="path544"
               style="fill:url(#linearGradient538);stroke:none"
               d="m 224,188 8,0 0,8 -8,0 0,-8 z" /></g></g></g></g><g
       id="g546"><g
         clip-path="url(#clipPath550)"
         id="g548"><g
           id="g554"><g
             id="g556"><path
               id="path564"
               style="fill:url(#linearGradient558);stroke:none"
               d="m 224,176 8,0 0,7.999 -8,0 0,-7.999 z" /></g></g></g></g><g
       id="g566"><g
         clip-path="url(#clipPath570)"
         id="g568"><g
           id="g574"><g
             id="g576"><path
               id="path584"
               style="fill:url(#linearGradient578);stroke:none"
               d="m 224,164 8,0 0,8 -8,0 0,-8 z" /></g></g></g></g><g
       id="g586"><g
         clip-path="url(#clipPath590)"
         id="g588"><g
           id="g594"><g
             id="g596"><path
               id="path604"
               style="fill:url(#linearGradient598);stroke:none"
               d="m 224,152 8,0 0,8 -8,0 0,-8 z" /></g></g></g></g><g
       id="g606"><g
         clip-path="url(#clipPath610)"
         id="g608"><g
           id="g614"><g
             id="g616"><path
               id="path624"
               style="fill:url(#linearGradient618);stroke:none"
               d="m 224,140 8,0 0,7.999 -8,0 0,-7.999 z" /></g></g></g></g><g
       id="g626"><g
         clip-path="url(#clipPath630)"
         id="g628"><g
           id="g634"><g
             id="g636"><path
               id="path644"
               style="fill:url(#linearGradient638);stroke:none"
               d="m 224,128 8,0 0,8 -8,0 0,-8 z" /></g></g></g></g><g
       id="g646"><g
         clip-path="url(#clipPath650)"
         id="g648"><g
           id="g654"><g
             id="g656"><path
               id="path664"
               style="fill:url(#linearGradient658);stroke:none"
               d="m 224,116 8,0 0,8 -8,0 0,-8 z" /></g></g></g></g><g
       id="g666"><g
         clip-path="url(#clipPath670)"
         id="g668"><g
           id="g674"><g
             id="g676"><path
               id="path684"
               style="fill:url(#linearGradient678);stroke:none"
               d="m 224,104 8,0 0,7.999 -8,0 0,-7.999 z" /></g></g></g></g><g
       id="g686"><g
         clip-path="url(#clipPath690)"
         id="g688"><g
           id="g694"><g
             id="g696"><path
               id="path704"
               style="fill:url(#linearGradient698);stroke:none"
               d="m 224,92 8,0 0,8 -8,0 0,-8 z" /></g></g></g></g><g
       id="g706"><g
         clip-path="url(#clipPath710)"
         id="g708"><g
           id="g714"><g
             id="g716"><path
               id="path724"
               style="fill:url(#linearGradient718);stroke:none"
               d="m 224,80 8,0 0,8 -8,0 0,-8 z" /></g></g></g></g><g
       id="g726"><g
         clip-path="url(#clipPath730)"
         id="g728"><g
           id="g734"><g
             id="g736"><path
               id="path744"
               style="fill:url(#linearGradient738);stroke:none"
               d="m 224,68 8,0 0,7.999 -8,0 0,-7.999 z" /></g></g></g></g><g
       id="g746"><g
         clip-path="url(#clipPath750)"
         id="g748"><g
           id="g754"><g
             id="g756"><path
               id="path764"
               style="fill:url(#linearGradient758);stroke:none"
               d="m 224,56 8,0 0,8 -8,0 0,-8 z" /></g></g></g></g><g
       id="g766"><g
         clip-path="url(#clipPath770)"
         id="g768"><g
           id="g774"><g
             id="g776"><path
               id="path784"
               style="fill:url(#linearGradient778);stroke:none"
               d="m 224,44 8,0 0,8 -8,0 0,-8 z" /></g></g></g></g><g
       id="g786"><g
         clip-path="url(#clipPath790)"
         id="g788"><g
           id="g794"><g
             id="g796"><path
               id="path804"
               style="fill:url(#linearGradient798);stroke:none"
               d="m 224,32 8,0 0,7.999 -8,0 0,-7.999 z" /></g></g></g></g><g
       id="g806"><g
         clip-path="url(#clipPath810)"
         id="g808"><path
           id="path814"
           style="fill:#ffffff;fill-opacity:1;fill-rule:nonzero;stroke:none"
           d="m 184,100 -112,0 0,68 112,0 0,-68 z" /></g></g></g></svg>