<?xml version="1.0" encoding="UTF-8" standalone="no"?>
<svg
   xmlns:dc="http://purl.org/dc/elements/1.1/"
   xmlns:cc="http://creativecommons.org/ns#"
   xmlns:rdf="http://www.w3.org/1999/02/22-rdf-syntax-ns#"
   xmlns:svg="http://www.w3.org/2000/svg"
   xmlns="http://www.w3.org/2000/svg"
   viewBox="0 0 320 320"
   height="320"
   width="320"
   xml:space="preserve"
   version="1.1"
   id="svg2"><metadata
     id="metadata8"><rdf:RDF><cc:Work
         rdf:about=""><dc:format>image/svg+xml</dc:format><dc:type
           rdf:resource="http://purl.org/dc/dcmitype/StillImage" /></cc:Work></rdf:RDF></metadata><defs
     id="defs6"><clipPath
       id="clipPath18"
       clipPathUnits="userSpaceOnUse"><path
         id="path20"
         d="M 16.143,192 C 13.852,192 12,190.093 12,187.734 l 0,0 0,-119.467 C 12,65.907 13.852,64 16.143,64 l 0,0 8.286,0 124.285,128 -132.571,0 z" /></clipPath><linearGradient
       id="linearGradient26"
       spreadMethod="pad"
       gradientTransform="matrix(68.984192,-68.984192,-68.984192,-68.984192,16.023714,193.56352)"
       gradientUnits="userSpaceOnUse"
       y2="0"
       x2="1"
       y1="0"
       x1="0"><stop
         id="stop28"
         offset="0"
         style="stop-opacity:1;stop-color:#e6e7e8" /><stop
         id="stop30"
         offset="1"
         style="stop-opacity:1;stop-color:#d1d3d4" /></linearGradient><clipPath
       id="clipPath38"
       clipPathUnits="userSpaceOnUse"><path
         id="path40"
         d="M 152.857,192 28.571,64 239.857,64 c 2.292,0 4.143,1.907 4.143,4.267 l 0,0 0,119.467 c 0,2.359 -1.851,4.266 -4.143,4.266 l 0,0 -87,0 z" /></clipPath><linearGradient
       id="linearGradient46"
       spreadMethod="pad"
       gradientTransform="matrix(215.42857,0,0,-215.42857,28.571428,128)"
       gradientUnits="userSpaceOnUse"
       y2="0"
       x2="1"
       y1="0"
       x1="0"><stop
         id="stop48"
         offset="0"
         style="stop-opacity:1;stop-color:#e6e7e8" /><stop
         id="stop50"
         offset="1"
         style="stop-opacity:1;stop-color:#d1d3d4" /></linearGradient><clipPath
       id="clipPath58"
       clipPathUnits="userSpaceOnUse"><path
         id="path60"
         d="M 0,256 256,256 256,0 0,0 0,256 Z" /></clipPath><clipPath
       id="clipPath74"
       clipPathUnits="userSpaceOnUse"><path
         id="path76"
         d="m 112,96 c 0,-11.04 8.96,-20 20,-20 l 0,0 c 11.04,0 20,8.96 20,20 l 0,0 c 0,11.04 -8.96,20 -20,20 l 0,0 c -11.04,0 -20,-8.96 -20,-20" /></clipPath><linearGradient
       id="linearGradient82"
       spreadMethod="pad"
       gradientTransform="matrix(-28.280003,28.280003,28.280003,28.280003,146.14,81.860001)"
       gradientUnits="userSpaceOnUse"
       y2="0"
       x2="1"
       y1="0"
       x1="0"><stop
         id="stop84"
         offset="0"
         style="stop-opacity:1;stop-color:#e6e7e8" /><stop
         id="stop86"
         offset="1"
         style="stop-opacity:1;stop-color:#d1d3d4" /></linearGradient><clipPath
       id="clipPath94"
       clipPathUnits="userSpaceOnUse"><path
         id="path96"
         d="m 168,96 c 0,-11.04 8.96,-20 20,-20 l 0,0 c 11.04,0 20,8.96 20,20 l 0,0 c 0,11.04 -8.96,20 -20,20 l 0,0 c -11.04,0 -20,-8.96 -20,-20" /></clipPath><linearGradient
       id="linearGradient102"
       spreadMethod="pad"
       gradientTransform="matrix(-28.280003,28.280003,28.280003,28.280003,202.14,81.860001)"
       gradientUnits="userSpaceOnUse"
       y2="0"
       x2="1"
       y1="0"
       x1="0"><stop
         id="stop104"
         offset="0"
         style="stop-opacity:1;stop-color:#e6e7e8" /><stop
         id="stop106"
         offset="1"
         style="stop-opacity:1;stop-color:#d1d3d4" /></linearGradient><clipPath
       id="clipPath114"
       clipPathUnits="userSpaceOnUse"><path
         id="path116"
         d="M 0,256 256,256 256,0 0,0 0,256 Z" /></clipPath><clipPath
       id="clipPath126"
       clipPathUnits="userSpaceOnUse"><path
         id="path128"
         d="m 43.769,172 c -1.046,0 -1.894,-0.848 -1.894,-1.894 l 0,0 0,-11.953 -11.952,0 c -1.046,0 -1.893,-0.847 -1.893,-1.893 l 0,0 0,-8.52 c 0,-1.046 0.847,-1.894 1.893,-1.894 l 0,0 11.952,0 0,-11.953 c 0,-1.046 0.848,-1.894 1.894,-1.894 l 0,0 8.521,0 c 1.046,0 1.894,0.848 1.894,1.894 l 0,0 0,11.953 11.952,0 c 1.045,0 1.893,0.848 1.893,1.894 l 0,0 0,8.52 c 0,1.046 -0.848,1.893 -1.893,1.893 l 0,0 -11.952,0 0,11.953 c 0,1.046 -0.848,1.894 -1.894,1.894 l 0,0 -8.521,0 z" /></clipPath><linearGradient
       id="linearGradient134"
       spreadMethod="pad"
       gradientTransform="matrix(25.044695,25.044695,25.044695,-25.044695,35.507099,139.47748)"
       gradientUnits="userSpaceOnUse"
       y2="0"
       x2="1"
       y1="0"
       x1="0"><stop
         id="stop136"
         offset="0"
         style="stop-opacity:1;stop-color:#e6e7e8" /><stop
         id="stop138"
         offset="1"
         style="stop-opacity:1;stop-color:#d1d3d4" /></linearGradient><clipPath
       id="clipPath146"
       clipPathUnits="userSpaceOnUse"><path
         id="path148"
         d="m 34,152 c 0,-7.732 6.264,-14 14,-14 l 0,0 c 7.732,0 14,6.268 14,14 l 0,0 c 0,7.732 -6.268,14 -14,14 l 0,0 c -7.736,0 -14,-6.268 -14,-14" /></clipPath><linearGradient
       id="linearGradient154"
       spreadMethod="pad"
       gradientTransform="matrix(-19.799749,19.799749,19.799749,19.799749,57.899124,142.10013)"
       gradientUnits="userSpaceOnUse"
       y2="0"
       x2="1"
       y1="0"
       x1="0"><stop
         id="stop156"
         offset="0"
         style="stop-opacity:1;stop-color:#e6e7e8" /><stop
         id="stop158"
         offset="1"
         style="stop-opacity:1;stop-color:#d1d3d4" /></linearGradient></defs><g
     transform="matrix(1.25,0,0,-1.25,0,320)"
     id="g10"><path
       id="path12"
       style="fill:#999999;fill-opacity:1;fill-rule:nonzero;stroke:none"
       d="m 155.067,64 -136.3,0 0,128 136.3,0 0,-128 z" /><g
       id="g14"><g
         clip-path="url(#clipPath18)"
         id="g16"><g
           id="g22"><g
             id="g24"><path
               id="path32"
               style="fill:url(#linearGradient26);stroke:none"
               d="M 16.143,192 C 13.852,192 12,190.093 12,187.734 l 0,0 0,-119.467 C 12,65.907 13.852,64 16.143,64 l 0,0 8.286,0 124.285,128 -132.571,0 z" /></g></g></g></g><g
       id="g34"><g
         clip-path="url(#clipPath38)"
         id="g36"><g
           id="g42"><g
             id="g44"><path
               id="path52"
               style="fill:url(#linearGradient46);stroke:none"
               d="M 152.857,192 28.571,64 239.857,64 c 2.292,0 4.143,1.907 4.143,4.267 l 0,0 0,119.467 c 0,2.359 -1.851,4.266 -4.143,4.266 l 0,0 -87,0 z" /></g></g></g></g><g
       id="g54"><g
         clip-path="url(#clipPath58)"
         id="g56"><g
           transform="translate(116,83.7281)"
           id="g62"><path
             id="path64"
             style="fill:#999999;fill-opacity:1;fill-rule:nonzero;stroke:none"
             d="m 0,0 21.421,-19.728 46.579,0 -36.538,44 L 0,0 Z" /></g><g
           transform="translate(172,83.7281)"
           id="g66"><path
             id="path68"
             style="fill:#999999;fill-opacity:1;fill-rule:nonzero;stroke:none"
             d="m 0,0 21.421,-19.728 46.579,0 -36.538,44 L 0,0 Z" /></g></g></g><g
       id="g70"><g
         clip-path="url(#clipPath74)"
         id="g72"><g
           id="g78"><g
             id="g80"><path
               id="path88"
               style="fill:url(#linearGradient82);stroke:none"
               d="m 112,96 c 0,-11.04 8.96,-20 20,-20 l 0,0 c 11.04,0 20,8.96 20,20 l 0,0 c 0,11.04 -8.96,20 -20,20 l 0,0 c -11.04,0 -20,-8.96 -20,-20" /></g></g></g></g><g
       id="g90"><g
         clip-path="url(#clipPath94)"
         id="g92"><g
           id="g98"><g
             id="g100"><path
               id="path108"
               style="fill:url(#linearGradient102);stroke:none"
               d="m 168,96 c 0,-11.04 8.96,-20 20,-20 l 0,0 c 11.04,0 20,8.96 20,20 l 0,0 c 0,11.04 -8.96,20 -20,20 l 0,0 c -11.04,0 -20,-8.96 -20,-20" /></g></g></g></g><g
       id="g110"><g
         clip-path="url(#clipPath114)"
         id="g112"><g
           transform="translate(76,152)"
           id="g118"><path
             id="path120"
             style="fill:#999999;fill-opacity:1;fill-rule:nonzero;stroke:none"
             d="m 0,0 c 0,-15.464 -12.536,-28 -28,-28 -15.472,0 -28,12.536 -28,28 0,15.464 12.528,28 28,28 C -12.536,28 0,15.464 0,0" /></g></g></g><g
       id="g122"><g
         clip-path="url(#clipPath126)"
         id="g124"><g
           id="g130"><g
             id="g132"><path
               id="path140"
               style="fill:url(#linearGradient134);stroke:none"
               d="m 43.769,172 c -1.046,0 -1.894,-0.848 -1.894,-1.894 l 0,0 0,-11.953 -11.952,0 c -1.046,0 -1.893,-0.847 -1.893,-1.893 l 0,0 0,-8.52 c 0,-1.046 0.847,-1.894 1.893,-1.894 l 0,0 11.952,0 0,-11.953 c 0,-1.046 0.848,-1.894 1.894,-1.894 l 0,0 8.521,0 c 1.046,0 1.894,0.848 1.894,1.894 l 0,0 0,11.953 11.952,0 c 1.045,0 1.893,0.848 1.893,1.894 l 0,0 0,8.52 c 0,1.046 -0.848,1.893 -1.893,1.893 l 0,0 -11.952,0 0,11.953 c 0,1.046 -0.848,1.894 -1.894,1.894 l 0,0 -8.521,0 z" /></g></g></g></g><g
       id="g142"><g
         clip-path="url(#clipPath146)"
         id="g144"><g
           id="g150"><g
             id="g152"><path
               id="path160"
               style="fill:url(#linearGradient154);stroke:none"
               d="m 34,152 c 0,-7.732 6.264,-14 14,-14 l 0,0 c 7.732,0 14,6.268 14,14 l 0,0 c 0,7.732 -6.268,14 -14,14 l 0,0 c -7.736,0 -14,-6.268 -14,-14" /></g></g></g></g></g></svg>