<?xml version="1.0" encoding="UTF-8" standalone="no"?>
<svg
   xmlns:dc="http://purl.org/dc/elements/1.1/"
   xmlns:cc="http://creativecommons.org/ns#"
   xmlns:rdf="http://www.w3.org/1999/02/22-rdf-syntax-ns#"
   xmlns:svg="http://www.w3.org/2000/svg"
   xmlns="http://www.w3.org/2000/svg"
   viewBox="0 0 320 320"
   height="320"
   width="320"
   xml:space="preserve"
   version="1.1"
   id="svg2"><metadata
     id="metadata8"><rdf:RDF><cc:Work
         rdf:about=""><dc:format>image/svg+xml</dc:format><dc:type
           rdf:resource="http://purl.org/dc/dcmitype/StillImage" /></cc:Work></rdf:RDF></metadata><defs
     id="defs6"><clipPath
       id="clipPath16"
       clipPathUnits="userSpaceOnUse"><path
         id="path18"
         d="m 83.705,160 c -3.009,0 -4.915,-3.18 -3.539,-5.855 l 0,0 c 2.828,-5.499 4.889,-13.233 7.13,-23.032 l 0,0 C 87.712,129.296 89.331,128 91.195,128 l 0,0 24.658,0 c 2.21,0 4.001,1.791 4.001,4 l 0,0 0,24 c 0,2.209 -1.791,4 -4.001,4 l 0,0 -32.148,0 z" /></clipPath><linearGradient
       id="linearGradient24"
       spreadMethod="pad"
       gradientTransform="matrix(-33.731583,33.731583,33.731583,33.731583,118.51839,129.00801)"
       gradientUnits="userSpaceOnUse"
       y2="0"
       x2="1"
       y1="0"
       x1="0"><stop
         id="stop26"
         offset="0"
         style="stop-opacity:1;stop-color:#e6e7e8" /><stop
         id="stop28"
         offset="1"
         style="stop-opacity:1;stop-color:#d1d3d4" /></linearGradient><clipPath
       id="clipPath36"
       clipPathUnits="userSpaceOnUse"><path
         id="path38"
         d="m 116.548,208 c -0.384,0 -0.76,-0.053 -1.128,-0.162 l 0,0 C 111.17,206.582 84.806,197.624 76.623,166.57 l 0,0 c -0.394,-1.498 0.101,-3.088 1.283,-4.09 l 0,0 C 84.144,157.188 103.36,138.238 100,108 l 0,0 C 96.331,74.974 89.294,31.848 88.157,24.949 l 0,0 c -0.158,-0.955 0.017,-1.934 0.543,-2.747 l 0,0 C 90.864,18.853 99.725,12 136,12 l 0,0 c 0,0 27.501,0 41.074,6.374 l 0,0 c 1.722,0.808 2.633,2.71 2.183,4.558 l 0,0 c -2.556,10.511 -11.446,102.329 -11.822,104.726 l 0,0 c -2.267,14.457 -10.915,67.369 -17.71,78.452 l 0,0 C 149,207.292 147.709,208 146.322,208 l 0,0 -29.774,0 z" /></clipPath><linearGradient
       id="linearGradient44"
       spreadMethod="pad"
       gradientTransform="matrix(130.30562,-130.30562,-130.30562,-130.30562,65.87706,167.45047)"
       gradientUnits="userSpaceOnUse"
       y2="0"
       x2="1"
       y1="0"
       x1="0"><stop
         id="stop46"
         offset="0"
         style="stop-opacity:1;stop-color:#e6e7e8" /><stop
         id="stop48"
         offset="1"
         style="stop-opacity:1;stop-color:#d1d3d4" /></linearGradient><clipPath
       id="clipPath56"
       clipPathUnits="userSpaceOnUse"><path
         id="path58"
         d="m 96,178 c 0,-5.523 4.477,-10 10,-10 l 0,0 c 5.523,0 10,4.477 10,10 l 0,0 c 0,5.523 -4.477,10 -10,10 l 0,0 c -5.523,0 -10,-4.477 -10,-10" /></clipPath><linearGradient
       id="linearGradient64"
       spreadMethod="pad"
       gradientTransform="matrix(-14.142136,14.142136,14.142136,14.142136,113.07107,170.92892)"
       gradientUnits="userSpaceOnUse"
       y2="0"
       x2="1"
       y1="0"
       x1="0"><stop
         id="stop66"
         offset="0"
         style="stop-opacity:1;stop-color:#e6e7e8" /><stop
         id="stop68"
         offset="1"
         style="stop-opacity:1;stop-color:#d1d3d4" /></linearGradient><clipPath
       id="clipPath76"
       clipPathUnits="userSpaceOnUse"><path
         id="path78"
         d="M 0,256 256,256 256,0 0,0 0,256 Z" /></clipPath><clipPath
       id="clipPath88"
       clipPathUnits="userSpaceOnUse"><path
         id="path90"
         d="m 112,200 c 0,-2.209 1.791,-4 4,-4 l 0,0 c 2.209,0 4,1.791 4,4 l 0,0 c 0,2.209 -1.791,4 -4,4 l 0,0 c -2.209,0 -4,-1.791 -4,-4" /></clipPath><linearGradient
       id="linearGradient96"
       spreadMethod="pad"
       gradientTransform="matrix(-5.6568542,5.6568542,5.6568542,5.6568542,118.82843,197.17157)"
       gradientUnits="userSpaceOnUse"
       y2="0"
       x2="1"
       y1="0"
       x1="0"><stop
         id="stop98"
         offset="0"
         style="stop-opacity:1;stop-color:#e6e7e8" /><stop
         id="stop100"
         offset="1"
         style="stop-opacity:1;stop-color:#d1d3d4" /></linearGradient><clipPath
       id="clipPath108"
       clipPathUnits="userSpaceOnUse"><path
         id="path110"
         d="m 114,200 c 0,-1.105 0.896,-2 2,-2 l 0,0 c 1.104,0 2,0.895 2,2 l 0,0 c 0,1.104 -0.896,2 -2,2 l 0,0 c -1.104,0 -2,-0.896 -2,-2" /></clipPath><linearGradient
       id="linearGradient116"
       spreadMethod="pad"
       gradientTransform="matrix(2.8284271,-2.8284271,-2.8284271,-2.8284271,114.58578,201.41422)"
       gradientUnits="userSpaceOnUse"
       y2="0"
       x2="1"
       y1="0"
       x1="0"><stop
         id="stop118"
         offset="0"
         style="stop-opacity:1;stop-color:#e6e7e8" /><stop
         id="stop120"
         offset="1"
         style="stop-opacity:1;stop-color:#d1d3d4" /></linearGradient><clipPath
       id="clipPath128"
       clipPathUnits="userSpaceOnUse"><path
         id="path130"
         d="m 148,172 c 0,-2.209 1.791,-4 4,-4 l 0,0 c 2.209,0 4,1.791 4,4 l 0,0 c 0,2.209 -1.791,4 -4,4 l 0,0 c -2.209,0 -4,-1.791 -4,-4" /></clipPath><linearGradient
       id="linearGradient136"
       spreadMethod="pad"
       gradientTransform="matrix(-5.6568542,5.6568542,5.6568542,5.6568542,154.82843,169.17157)"
       gradientUnits="userSpaceOnUse"
       y2="0"
       x2="1"
       y1="0"
       x1="0"><stop
         id="stop138"
         offset="0"
         style="stop-opacity:1;stop-color:#e6e7e8" /><stop
         id="stop140"
         offset="1"
         style="stop-opacity:1;stop-color:#d1d3d4" /></linearGradient><clipPath
       id="clipPath148"
       clipPathUnits="userSpaceOnUse"><path
         id="path150"
         d="m 150,172 c 0,-1.104 0.896,-2 2,-2 l 0,0 c 1.104,0 2,0.896 2,2 l 0,0 c 0,1.104 -0.896,2 -2,2 l 0,0 c -1.104,0 -2,-0.896 -2,-2" /></clipPath><linearGradient
       id="linearGradient156"
       spreadMethod="pad"
       gradientTransform="matrix(2.8284271,-2.8284271,-2.8284271,-2.8284271,150.58578,173.41422)"
       gradientUnits="userSpaceOnUse"
       y2="0"
       x2="1"
       y1="0"
       x1="0"><stop
         id="stop158"
         offset="0"
         style="stop-opacity:1;stop-color:#e6e7e8" /><stop
         id="stop160"
         offset="1"
         style="stop-opacity:1;stop-color:#d1d3d4" /></linearGradient><clipPath
       id="clipPath168"
       clipPathUnits="userSpaceOnUse"><path
         id="path170"
         d="m 168,24 c 0,-2.209 1.791,-4 4,-4 l 0,0 c 2.209,0 4,1.791 4,4 l 0,0 c 0,2.209 -1.791,4 -4,4 l 0,0 c -2.209,0 -4,-1.791 -4,-4" /></clipPath><linearGradient
       id="linearGradient176"
       spreadMethod="pad"
       gradientTransform="matrix(-5.6568542,5.6568542,5.6568542,5.6568542,174.82843,21.171574)"
       gradientUnits="userSpaceOnUse"
       y2="0"
       x2="1"
       y1="0"
       x1="0"><stop
         id="stop178"
         offset="0"
         style="stop-opacity:1;stop-color:#e6e7e8" /><stop
         id="stop180"
         offset="1"
         style="stop-opacity:1;stop-color:#d1d3d4" /></linearGradient><clipPath
       id="clipPath188"
       clipPathUnits="userSpaceOnUse"><path
         id="path190"
         d="m 170,24 c 0,-1.105 0.896,-2 2,-2 l 0,0 c 1.104,0 2,0.895 2,2 l 0,0 c 0,1.105 -0.896,2 -2,2 l 0,0 c -1.104,0 -2,-0.895 -2,-2" /></clipPath><linearGradient
       id="linearGradient196"
       spreadMethod="pad"
       gradientTransform="matrix(2.8284271,-2.8284271,-2.8284271,-2.8284271,170.58578,25.414213)"
       gradientUnits="userSpaceOnUse"
       y2="0"
       x2="1"
       y1="0"
       x1="0"><stop
         id="stop198"
         offset="0"
         style="stop-opacity:1;stop-color:#e6e7e8" /><stop
         id="stop200"
         offset="1"
         style="stop-opacity:1;stop-color:#d1d3d4" /></linearGradient><clipPath
       id="clipPath208"
       clipPathUnits="userSpaceOnUse"><path
         id="path210"
         d="m 92,28 c 0,-2.209 1.791,-4 4,-4 l 0,0 c 2.209,0 4,1.791 4,4 l 0,0 c 0,2.209 -1.791,4 -4,4 l 0,0 c -2.209,0 -4,-1.791 -4,-4" /></clipPath><linearGradient
       id="linearGradient216"
       spreadMethod="pad"
       gradientTransform="matrix(-5.6568542,5.6568542,5.6568542,5.6568542,98.82843,25.171574)"
       gradientUnits="userSpaceOnUse"
       y2="0"
       x2="1"
       y1="0"
       x1="0"><stop
         id="stop218"
         offset="0"
         style="stop-opacity:1;stop-color:#e6e7e8" /><stop
         id="stop220"
         offset="1"
         style="stop-opacity:1;stop-color:#d1d3d4" /></linearGradient><clipPath
       id="clipPath228"
       clipPathUnits="userSpaceOnUse"><path
         id="path230"
         d="m 120,240 0,-24 -4,-4 0,-4 32,0 0,4 -4,4 0,24 c 0,2.209 -5.373,4 -12,4 l 0,0 c -6.627,0 -12,-1.791 -12,-4" /></clipPath><linearGradient
       id="linearGradient236"
       spreadMethod="pad"
       gradientTransform="matrix(-30.326277,30.326277,30.326277,30.326277,147.16313,207.16313)"
       gradientUnits="userSpaceOnUse"
       y2="0"
       x2="1"
       y1="0"
       x1="0"><stop
         id="stop238"
         offset="0"
         style="stop-opacity:1;stop-color:#e6e7e8" /><stop
         id="stop240"
         offset="1"
         style="stop-opacity:1;stop-color:#d1d3d4" /></linearGradient><clipPath
       id="clipPath248"
       clipPathUnits="userSpaceOnUse"><path
         id="path250"
         d="m 94,28 c 0,-1.104 0.895,-2 2,-2 l 0,0 c 1.105,0 2,0.896 2,2 l 0,0 c 0,1.104 -0.895,2 -2,2 l 0,0 c -1.105,0 -2,-0.896 -2,-2" /></clipPath><linearGradient
       id="linearGradient256"
       spreadMethod="pad"
       gradientTransform="matrix(2.8284271,-2.8284271,-2.8284271,-2.8284271,94.585785,29.414213)"
       gradientUnits="userSpaceOnUse"
       y2="0"
       x2="1"
       y1="0"
       x1="0"><stop
         id="stop258"
         offset="0"
         style="stop-opacity:1;stop-color:#e6e7e8" /><stop
         id="stop260"
         offset="1"
         style="stop-opacity:1;stop-color:#d1d3d4" /></linearGradient><clipPath
       id="clipPath268"
       clipPathUnits="userSpaceOnUse"><path
         id="path270"
         d="m 107.563,161.224 0,-1.224 3.999,0 0,1.33 c -1.4,-0.009 -2.738,-0.046 -3.999,-0.106 m 8,-1.224 3.999,0 0,1.029 c -1.362,0.113 -2.699,0.192 -3.999,0.24 l 0,0 0,-1.269 z m -14.241,0.731 C 100.755,160.668 100.306,160.386 100,160 l 0,0 3.562,0 0,0.955 c -0.802,-0.07 -1.551,-0.147 -2.24,-0.224 m 22.241,-0.731 3.71,0 c -1.245,0.233 -2.483,0.43 -3.71,0.596 l 0,0 0,-0.596 z m -4.001,0 0,-4 -3.999,0 0,-4 3.999,0 0,4 4.001,0 0,4 -4.001,0 z m -8,0 0,-4 -3.999,0 0,-4 3.999,0 0,4 4.001,0 0,4 -4.001,0 z m -8,0 0,-4 -2.568,0 c 0.654,-1.13 1.237,-2.469 1.755,-4 l 0,0 0.813,0 0,4 4.001,0 0,4 -4.001,0 z m 24,-4 4.001,0 0,3.047 c -1.335,0.344 -2.67,0.642 -4.001,0.896 l 0,0 0,-3.943 z m 8,0 4,0 0,0.35 c -1.317,0.563 -2.653,1.067 -4,1.518 l 0,0 0,-1.868 z m 4,0 0,-4 -4,0 0,-4 4,0 0,4 4.001,0 0,2.409 c -1.053,0.574 -2.124,1.104 -3.209,1.591 l 0,0 -0.792,0 z m -7.999,0 0,-4 -4.001,0 0,-4 4.001,0 0,4 3.999,0 0,4 -3.999,0 z m -8,0 0,-4 -4.001,0 0,-4 4.001,0 0,4 3.999,0 0,4 -3.999,0 z m 20,-4 0,-4 -4.001,0 0,-4 4.001,0 0,4 3.999,0 0,3.946 c -0.026,0.018 -0.052,0.036 -0.079,0.054 l 0,0 -3.92,0 z m -32.001,-4 4.001,0 0,4 -4.001,0 0,-4 z m -8,4 0,-2.757 c 0.105,-0.406 0.208,-0.818 0.306,-1.243 l 0,0 3.695,0 0,4 -4.001,0 z m 44,-4 0,-4 -3.999,0 0,-4 3.999,0 0,4 4.001,0 0,4 -4.001,0 z m -15.999,0 0,-4 -4.001,0 0,-4 -3.999,0 0,-4 3.999,0 0,4 4.001,0 0,4 3.999,0 0,4 -3.999,0 z m -8,0 0,-4 -4.001,0 0,-4 4.001,0 0,4 3.999,0 0,4 -3.999,0 z m -8,0 0,-4 -4.001,0 0,-4 4.001,0 0,4 3.999,0 0,4 -3.999,0 z m -8,0 0,-4 -2.916,0 c 0.21,-1.277 0.4,-2.611 0.568,-4 l 0,0 2.348,0 0,4 3.999,0 0,4 -3.999,0 z m 44,-4 0,-4 -4.001,0 0,-4 4.001,0 0,4 3.999,0 0,4 -3.999,0 z m -16.001,0 0,-4 -3.999,0 0,-4 -4.001,0 0,-4 -3.999,0 0,-4 3.999,0 0,4 4.001,0 0,4 3.999,0 0,4 4,0 0,4 -4,0 z m 20,-4 0,-4 -3.999,0 0,-4 3.999,0 0,4 4.001,0 0,2.407 c -0.288,0.545 -0.59,1.073 -0.897,1.593 l 0,0 -3.104,0 z m -16,0 0,-4 -4,0 0,-4 -3.999,0 0,-4 3.999,0 0,4 4,0 0,4 4.001,0 0,4 -4.001,0 z m -23.999,0 0,-4 -4.001,0 0,-4 4.001,0 0,4 3.999,0 0,4 -3.999,0 z m -8,0 0,-4 -1.933,0 c 0.114,-1.299 0.213,-2.633 0.297,-4 l 0,0 1.636,0 0,4 3.999,0 0,4 -3.999,0 z m 52,-4 0,-4 2.734,0 c -0.471,1.396 -0.994,2.729 -1.563,4 l 0,0 -1.171,0 z m -16,0 0,-4 -4.001,0 0,-4 -4,0 0,-4 4,0 0,4 4.001,0 0,4 3.999,0 0,4 -3.999,0 z m -24.001,-4 4.001,0 0,4 -4.001,0 0,-4 z m 36,0 0,-4 -3.999,0 0,-4 3.999,0 0,4 4.001,0 0,4 -4.001,0 z m -8,0 0,-4 -3.999,0 0,-4 -4.001,0 0,-4 4.001,0 0,4 3.999,0 0,4 4.001,0 0,4 -4.001,0 z m -31.999,0 0,-4 -4.001,0 0,-4 4.001,0 0,4 3.999,0 0,4 -3.999,0 z m -8,0 0,-4 -1.431,0 c 0.054,-1.311 0.097,-2.645 0.128,-4 l 0,0 1.303,0 0,4 3.999,0 0,4 -3.999,0 z m 52,-4 0,-4 3.999,0 0,3.576 c -0.034,0.144 -0.072,0.282 -0.107,0.424 l 0,0 -3.892,0 z m -32.001,0 0,-4 -3.999,0 0,-4 3.999,0 0,4 4.001,0 0,4 -4.001,0 z m -8,-4 4.001,0 0,4 -4.001,0 0,-4 z m 36,0 0,-4 -3.999,0 0,-4 3.999,0 0,4 4.001,0 0,4 -4.001,0 z m -8,0 0,-4 -3.999,0 0,-4 -4.001,0 0,-4 4.001,0 0,4 3.999,0 0,4 4.001,0 0,4 -4.001,0 z m -15.999,0 0,-4 -4.001,0 0,-4 -3.999,0 0,-4 3.999,0 0,4 4.001,0 0,4 3.999,0 0,4 -3.999,0 z m -16,0 0,-4 -4.001,0 0,-4 4.001,0 0,4 3.999,0 0,4 -3.999,0 z m -8,0 0,-4 -1.238,0 c 0.012,-1.32 0.015,-2.654 0.009,-4 l 0,0 1.229,0 0,4 3.999,0 0,4 -3.999,0 z m 52,-4 0,-4 -4.001,0 0,-4 4.001,0 0,4 3.999,0 0,4 -3.999,0 z m -24.001,-4 4,0 0,4 -4,0 0,-4 z m -16,0 4.001,0 0,4 -4.001,0 0,-4 z m 44,0 0,-4 1.401,0 c -0.086,1.44 -0.165,2.777 -0.235,4 l 0,0 -1.166,0 z m -16,0 0,-4 -3.999,0 0,-4 -4.001,0 0,-4 4.001,0 0,4 3.999,0 0,4 4.001,0 0,4 -4.001,0 z m -15.999,0 0,-4 -4.001,0 0,-4 -3.999,0 0,-4 3.999,0 0,4 4.001,0 0,4 3.999,0 0,4 -3.999,0 z m -16,0 0,-4 -4.001,0 0,-4 4.001,0 0,4 3.999,0 0,4 -3.999,0 z m -8,0 0,-4 -1.269,0 c -0.02,-1.325 -0.047,-2.659 -0.081,-4 l 0,0 1.35,0 0,4 3.999,0 0,4 -3.999,0 z m 52,-4 0,-4 -4.001,0 0,-4 4.001,0 0,4 3.999,0 0,4 -3.999,0 z m -8,0 0,-4 -4.001,0 0,-4 -3.999,0 0,-4 3.999,0 0,4 4.001,0 0,4 3.999,0 0,4 -3.999,0 z m -16.001,-4 4,0 0,4 -4,0 0,-4 z m -16,0 4.001,0 0,4 -4.001,0 0,-4 z m 44,0 0,-4 1.893,0 c -0.088,1.383 -0.171,2.717 -0.25,4 l 0,0 -1.643,0 z m -31.999,0 0,-4 -4.001,0 0,-4 -3.999,0 0,-4 3.999,0 0,4 4.001,0 0,4 3.999,0 0,4 -3.999,0 z m -16,0 0,-4 -4.001,0 0,-4 4.001,0 0,4 3.999,0 0,4 -3.999,0 z m -8,0 0,-4 -1.47,0 c -0.046,-1.33 -0.098,-2.665 -0.155,-4 l 0,0 1.625,0 0,4 3.999,0 0,4 -3.999,0 z m 52,-4 0,-4 -4.001,0 0,-4 4.001,0 0,4 3.999,0 0,4 -3.999,0 z m -8,0 0,-4 -4.001,0 0,-4 -3.999,0 0,-4 3.999,0 0,4 4.001,0 0,4 3.999,0 0,4 -3.999,0 z m -16.001,-4 4,0 0,4.001 -4,0 0,-4.001 z m -16,0 4.001,0 0,4.001 -4.001,0 0,-4.001 z m 44,0 0,-4 2.413,0 c -0.092,1.36 -0.179,2.694 -0.264,4 l 0,0 -2.149,0 z m -24,-4 4,0 0,4 -4,0 0,-4 z m -7.999,4 0,-4 -4.001,0 0,-4 -3.999,0 0,-4 3.999,0 0,4 4.001,0 0,4 3.999,0 0,4 -3.999,0 z m -16,0 0,-4 -4.001,0 0,-4 4.001,0 0,4 3.999,0 0,4 -3.999,0 z m -8,0 0,-4 -1.809,0 c -0.067,-1.336 -0.139,-2.669 -0.215,-4 l 0,0 2.024,0 0,4 3.999,0 0,4 -3.999,0 z m 52,-8 4,0 0,4.001 -4,0 0,-4.001 z m -8,4 0,-4 -4.001,0 0,-4 -3.999,0 0,-4 3.999,0 0,4 4.001,0 0,4 3.999,0 0,4 -3.999,0 z m -16.001,-4 4,0 0,4.001 -4,0 0,-4.001 z m -16,0 4.001,0 0,4.001 -4.001,0 0,-4.001 z m 44,0 0,-4 2.965,0 c -0.095,1.347 -0.189,2.68 -0.28,4 l 0,0 -2.685,0 z m -8,-4 4,0 0,4 -4,0 0,-4 z m -16,0 4,0 0,4 -4,0 0,-4 z m -7.999,4 0,-4 -4.001,0 0,-4 -3.999,0 0,-4 3.999,0 0,4 4.001,0 0,4 3.999,0 0,4 -3.999,0 z m -16,0 0,-4 -4.001,0 0,-4 4.001,0 0,4 3.999,0 0,4 -3.999,0 z m -8,0 0,-4 -2.265,0 c -0.084,-1.34 -0.173,-2.675 -0.264,-4 l 0,0 2.529,0 0,4 3.999,0 0,4 -3.999,0 z m 52,-8 4,0 0,4.001 -4,0 0,-4.001 z m -8,4 0,-4 -4.001,0 0,-4 -3.999,0 0,-4 3.999,0 0,4 4.001,0 0,4 3.999,0 0,4 -3.999,0 z m -16.001,-4 4,0 0,4.001 -4,0 0,-4.001 z m -16,0 4.001,0 0,4.001 -4.001,0 0,-4.001 z m 44,0 0,-4 3.554,0 c -0.102,1.336 -0.202,2.671 -0.299,4 l 0,0 -3.255,0 z m -8,-4 4,0 0,4 -4,0 0,-4 z m -16,0 4,0 0,4 -4,0 0,-4 z m -7.999,4 0,-4 -4.001,0 0,-4 -3.999,0 0,-4 3.999,0 0,4 4.001,0 0,4 3.999,0 0,4 -3.999,0 z m -16,0 0,-4 -4.001,0 0,-4 4.001,0 0,4 3.999,0 0,4 -3.999,0 z m -8,0 0,-4 -2.818,0 c -0.101,-1.346 -0.205,-2.681 -0.311,-4 l 0,0 3.129,0 0,4 3.999,0 0,4 -3.999,0 z m 52,-8 4,0 0,4.001 -4,0 0,-4.001 z m -8,4 0,-4 -4.001,0 0,-4 -3.999,0 0,-4 3.999,0 0,4 4.001,0 0,4 3.999,0 0,4 -3.999,0 z m -16.001,-4 4,0 0,4.001 -4,0 0,-4.001 z m -16,0 4.001,0 0,4.001 -4.001,0 0,-4.001 z m 44,0 0,-4 4.001,0 0,2.281 c -0.046,0.571 -0.092,1.144 -0.137,1.719 l 0,0 -3.864,0 z m -8,0 0,-4 -3.999,0 0,-4 -4.001,0 0,-4 -3.999,0 0,-4 3.999,0 0,4 4.001,0 0,4 3.999,0 0,4 4.001,0 0,4 -4.001,0 z m -16,-4 4,0 0,4 -4,0 0,-4 z m -7.999,4 0,-4 -4.001,0 0,-4 -3.999,0 0,-4 3.999,0 0,4 4.001,0 0,4 3.999,0 0,4 -3.999,0 z m -16,0 0,-4 -4.001,0 0,-4 4.001,0 0,4 3.999,0 0,4 -3.999,0 z m -8,0 0,-4 -3.459,0 c -0.115,-1.354 -0.233,-2.689 -0.35,-4 l 0,0 3.809,0 0,4 3.999,0 0,4 -3.999,0 z m 52,-8 4,0 0,4 -4,0 0,-4 z m -24.001,0 4,0 0,4 -4,0 0,-4 z m -16,0 4.001,0 0,4 -4.001,0 0,-4 z m 44,-4 4.001,0 0,4.001 -4.001,0 0,-4.001 z m -8,4 0,-4 -3.999,0 0,-4 3.999,0 0,4 4.001,0 0,4 -4.001,0 z m -16,0 0,-4 -4,0 0,-4 4,0 0,4 4.001,0 0,4 -4.001,0 z m -7.999,0 0,-4 -4.001,0 0,-4 4.001,0 0,4 3.999,0 0,4 -3.999,0 z m -16,0 0,-4 -4.001,0 0,-4 -3.999,0 0,-4 3.999,0 0,4 4.001,0 0,4 3.999,0 0,4 -3.999,0 z m -8,-4 4,0 0,4.001 -4,0 0,-4.001 z m -4.179,0 0.178,0 0,1.911 c -0.059,-0.645 -0.119,-1.28 -0.178,-1.911 m 64.179,0 0,-4 1.254,0 c -0.127,1.309 -0.252,2.644 -0.376,4 l 0,0 -0.878,0 z m -8,0 0,-4 -4.001,0 0,-4 4.001,0 0,4 3.999,0 0,4 -3.999,0 z m -40.001,0 0,-4 -3.999,0 0,-4 3.999,0 0,4 4.001,0 0,4 -4.001,0 z m -16,0 0,-4 -0.566,0 c -0.137,-1.375 -0.273,-2.71 -0.406,-4 l 0,0 0.972,0 0,4 4.001,0 0,4 -4.001,0 z m 60,-8 4.001,0 0,4.001 -4.001,0 0,-4.001 z m -16,4 0,-4 -3.999,0 0,-4 3.999,0 0,4 4.001,0 0,4 -4.001,0 z m -8,0 0,-4 -4,0 0,-4 -3.999,0 0,-4 -4.001,0 0,-4 4.001,0 0,4 3.999,0 0,4 4,0 0,4 4.001,0 0,4 -4.001,0 z m -7.999,0 0,-4 -4.001,0 0,-4 -3.999,0 0,-4 3.999,0 0,4 4.001,0 0,4 3.999,0 0,4 -3.999,0 z m -8,-4 4,0 0,4.001 -4,0 0,-4.001 z m 44,0 0,-4 2.087,0 c -0.145,1.287 -0.29,2.625 -0.432,4 l 0,0 -1.655,0 z m -8,0 0,-4 -4.001,0 0,-4 4.001,0 0,4 3.999,0 0,4 -3.999,0 z m -8,0 0,-4 -4.001,0 0,-4 -3.999,0 0,-4 3.999,0 0,4 4.001,0 0,4 3.999,0 0,4 -3.999,0 z m -32.001,0 0,-4 -3.999,0 0,-4 3.999,0 0,4 4.001,0 0,4 -4.001,0 z m -8,0 0,-4 -3.999,0 0,-4 3.999,0 0,4 4.001,0 0,4 -4.001,0 z m -8,0 0,-4 -1.395,0 c -0.153,-1.411 -0.3,-2.742 -0.442,-4 l 0,0 1.837,0 0,4 4.001,0 0,4 -4.001,0 z m 60,-8 4.001,0 0,4.001 -4.001,0 0,-4.001 z m -24,4 0,-4 -4,0 0,-4 4,0 0,4 4.001,0 0,4 -4.001,0 z m 28.001,-4 0,-4 3.108,0 c -0.183,1.24 -0.363,2.58 -0.543,4 l 0,0 -2.565,0 z m -8,0 0,-4 -4.001,0 0,-4 -3.999,0 0,-4 3.999,0 0,4 4.001,0 0,4 3.999,0 0,4 -3.999,0 z m -8,-4 4,0 0,4 -4,0 0,-4 z m -32.001,0 4.001,0 0,4 -4.001,0 0,-4 z m -8,4 0,-4 -3.999,0 0,-4 3.999,0 0,4 4.001,0 0,4 -4.001,0 z m -8,0 0,-4 -2.297,0 c -0.179,-1.53 -0.342,-2.877 -0.479,-4 l 0,0 2.776,0 0,4 4.001,0 0,4 -4.001,0 z m 60,-8 4.001,0 0,4.001 -4.001,0 0,-4.001 z m -16,4 0,-4 -3.999,0 0,-4 3.999,0 0,4 4.001,0 0,4 -4.001,0 z m -8,0 0,-4 -4,0 0,-4 4,0 0,4 4.001,0 0,4 -4.001,0 z m -7.999,0 0,-4 -4.001,0 0,-4 4.001,0 0,4 3.999,0 0,4 -3.999,0 z m -8,-4 4,0 0,4.001 -4,0 0,-4.001 z m -8,0 4,0 0,4.001 -4,0 0,-4.001 z m 52,0 0,-4 3.921,0 c 0.029,0.056 0.054,0.113 0.078,0.169 l 0,0 0,2.641 c -0.078,0.373 -0.155,0.775 -0.233,1.19 l 0,0 -3.766,0 z m -8,-4 4,0 0,4 -4,0 0,-4 z m -40.001,0 4.001,0 0,4 -4.001,0 0,-4 z m -8,4 0,-4 -3.999,0 0,-4 3.999,0 0,4 4.001,0 0,4 -4.001,0 z m -8,0 0,-4 -2.597,0 c 0.1,-0.111 0.207,-0.216 0.337,-0.297 l 0,0 c 0.962,-0.598 1.612,-2.034 2.053,-3.703 l 0,0 0.207,0 0,4 4.001,0 0,4 -4.001,0 z m 60,-4 0,-4 3.802,0 c 0.067,0.078 0.132,0.161 0.199,0.236 l 0,0 0,3.764 -4.001,0 z m -8,0 0,-4 -3.999,0 0,-4 3.999,0 0,4 4.001,0 0,4 -4.001,0 z m -8,0 0,-4 -3.999,0 0,-4 3.999,0 0,4 4.001,0 0,4 -4.001,0 z m -8,0 0,-4 -4,0 0,-4 4,0 0,4 4.001,0 0,4 -4.001,0 z m -7.999,0 0,-4 -4.001,0 0,-4 4.001,0 0,4 3.999,0 0,4 -3.999,0 z m -8,0 0,-4 -4.001,0 0,-4 4.001,0 0,4 3.999,0 0,4 -3.999,0 z m -8,0 0,-4 -4.001,0 0,-4 4.001,0 0,4 3.999,0 0,4 -3.999,0 z m 44,-8 4,0 0,4.001 -4,0 0,-4.001 z m -56.001,4 0,-0.87 c 0.224,-1.041 0.378,-2.126 0.484,-3.13 l 0,0 3.517,0 0,4 -4.001,0 z m 60,-4 0,-4 -3.999,0 0,-2.829 c 1.84,0.345 3.222,0.829 3.999,1.479 l 0,0 0,1.35 0.718,0 c 0,1.47 0.272,2.801 0.714,4 l 0,0 -1.432,0 z m -8,0 0,-4 -3.999,0 0,-3.521 c 1.418,0.035 2.759,0.097 3.999,0.194 l 0,0 0,3.327 4.001,0 0,4 -4.001,0 z m -8,0 0,-4 -3.999,0 0,-3.469 c 1.365,-0.042 2.703,-0.071 3.999,-0.082 l 0,0 0,3.551 4.001,0 0,4 -4.001,0 z m -8,0 0,-4 -4,0 0,-3.083 c 1.341,-0.084 2.678,-0.159 4,-0.223 l 0,0 0,3.306 4.001,0 0,4 -4.001,0 z m -7.999,0 0,-4 -4.001,0 0,-2.491 c 1.319,-0.111 2.656,-0.217 4.001,-0.317 l 0,0 0,2.808 3.999,0 0,4 -3.999,0 z m -8,0 0,-4 -4.001,0 0,-1.75 c 1.29,-0.13 2.628,-0.259 4.001,-0.386 l 0,0 0,2.136 3.999,0 0,4 -3.999,0 z m -8,0 0,-4 -4.001,0 0,-0.889 c 1.222,-0.14 2.562,-0.29 4.001,-0.445 l 0,0 0,1.334 3.999,0 0,4 -3.999,0 z m -8,0 0,-4 -1.299,0 c 0.398,-0.206 0.835,-0.347 1.299,-0.41 l 0,0 0,0.41 3.999,0 0,4 -3.999,0 z" /></clipPath><linearGradient
       id="linearGradient276"
       spreadMethod="pad"
       gradientTransform="matrix(100.46575,-100.46575,-100.46575,-100.46575,77.446991,137.46634)"
       gradientUnits="userSpaceOnUse"
       y2="0"
       x2="1"
       y1="0"
       x1="0"><stop
         id="stop278"
         offset="0"
         style="stop-opacity:1;stop-color:#e6e7e8" /><stop
         id="stop280"
         offset="1"
         style="stop-opacity:1;stop-color:#d1d3d4" /></linearGradient><clipPath
       id="clipPath288"
       clipPathUnits="userSpaceOnUse"><path
         id="path290"
         d="M 0,256 256,256 256,0 0,0 0,256 Z" /></clipPath></defs><g
     transform="matrix(1.25,0,0,-1.25,0,320)"
     id="g10"><g
       id="g12"><g
         clip-path="url(#clipPath16)"
         id="g14"><g
           id="g20"><g
             id="g22"><path
               id="path30"
               style="fill:url(#linearGradient24);stroke:none"
               d="m 83.705,160 c -3.009,0 -4.915,-3.18 -3.539,-5.855 l 0,0 c 2.828,-5.499 4.889,-13.233 7.13,-23.032 l 0,0 C 87.712,129.296 89.331,128 91.195,128 l 0,0 24.658,0 c 2.21,0 4.001,1.791 4.001,4 l 0,0 0,24 c 0,2.209 -1.791,4 -4.001,4 l 0,0 -32.148,0 z" /></g></g></g></g><g
       id="g32"><g
         clip-path="url(#clipPath36)"
         id="g34"><g
           id="g40"><g
             id="g42"><path
               id="path50"
               style="fill:url(#linearGradient44);stroke:none"
               d="m 116.548,208 c -0.384,0 -0.76,-0.053 -1.128,-0.162 l 0,0 C 111.17,206.582 84.806,197.624 76.623,166.57 l 0,0 c -0.394,-1.498 0.101,-3.088 1.283,-4.09 l 0,0 C 84.144,157.188 103.36,138.238 100,108 l 0,0 C 96.331,74.974 89.294,31.848 88.157,24.949 l 0,0 c -0.158,-0.955 0.017,-1.934 0.543,-2.747 l 0,0 C 90.864,18.853 99.725,12 136,12 l 0,0 c 0,0 27.501,0 41.074,6.374 l 0,0 c 1.722,0.808 2.633,2.71 2.183,4.558 l 0,0 c -2.556,10.511 -11.446,102.329 -11.822,104.726 l 0,0 c -2.267,14.457 -10.915,67.369 -17.71,78.452 l 0,0 C 149,207.292 147.709,208 146.322,208 l 0,0 -29.774,0 z" /></g></g></g></g><g
       id="g52"><g
         clip-path="url(#clipPath56)"
         id="g54"><g
           id="g60"><g
             id="g62"><path
               id="path70"
               style="fill:url(#linearGradient64);stroke:none"
               d="m 96,178 c 0,-5.523 4.477,-10 10,-10 l 0,0 c 5.523,0 10,4.477 10,10 l 0,0 c 0,5.523 -4.477,10 -10,10 l 0,0 c -5.523,0 -10,-4.477 -10,-10" /></g></g></g></g><g
       id="g72"><g
         clip-path="url(#clipPath76)"
         id="g74"><g
           transform="translate(101.5107,160.7314)"
           id="g80"><path
             id="path82"
             style="fill:#999999;fill-opacity:1;fill-rule:nonzero;stroke:none"
             d="m 0,0 c 14.616,1.638 56.376,2.75 62.957,-36.731 0,0 3.646,-69.282 7.457,-85.993 0.266,-1.165 -0.187,-2.377 -1.16,-3.07 -2.35,-1.672 -6.297,-5.317 -6.297,-10.937 0,-6.854 -44.041,-1.964 -56.66,-0.422 -1.87,0.228 -3.335,1.726 -3.495,3.603 -0.259,3.052 -0.955,7.362 -2.823,8.522 -0.629,0.39 -0.909,1.159 -0.816,1.894 C 0.833,-109.996 11.734,-19.84 -1.312,-3.25 -2.293,-2.002 -1.577,-0.177 0,0" /></g></g></g><g
       id="g84"><g
         clip-path="url(#clipPath88)"
         id="g86"><g
           id="g92"><g
             id="g94"><path
               id="path102"
               style="fill:url(#linearGradient96);stroke:none"
               d="m 112,200 c 0,-2.209 1.791,-4 4,-4 l 0,0 c 2.209,0 4,1.791 4,4 l 0,0 c 0,2.209 -1.791,4 -4,4 l 0,0 c -2.209,0 -4,-1.791 -4,-4" /></g></g></g></g><g
       id="g104"><g
         clip-path="url(#clipPath108)"
         id="g106"><g
           id="g112"><g
             id="g114"><path
               id="path122"
               style="fill:url(#linearGradient116);stroke:none"
               d="m 114,200 c 0,-1.105 0.896,-2 2,-2 l 0,0 c 1.104,0 2,0.895 2,2 l 0,0 c 0,1.104 -0.896,2 -2,2 l 0,0 c -1.104,0 -2,-0.896 -2,-2" /></g></g></g></g><g
       id="g124"><g
         clip-path="url(#clipPath128)"
         id="g126"><g
           id="g132"><g
             id="g134"><path
               id="path142"
               style="fill:url(#linearGradient136);stroke:none"
               d="m 148,172 c 0,-2.209 1.791,-4 4,-4 l 0,0 c 2.209,0 4,1.791 4,4 l 0,0 c 0,2.209 -1.791,4 -4,4 l 0,0 c -2.209,0 -4,-1.791 -4,-4" /></g></g></g></g><g
       id="g144"><g
         clip-path="url(#clipPath148)"
         id="g146"><g
           id="g152"><g
             id="g154"><path
               id="path162"
               style="fill:url(#linearGradient156);stroke:none"
               d="m 150,172 c 0,-1.104 0.896,-2 2,-2 l 0,0 c 1.104,0 2,0.896 2,2 l 0,0 c 0,1.104 -0.896,2 -2,2 l 0,0 c -1.104,0 -2,-0.896 -2,-2" /></g></g></g></g><g
       id="g164"><g
         clip-path="url(#clipPath168)"
         id="g166"><g
           id="g172"><g
             id="g174"><path
               id="path182"
               style="fill:url(#linearGradient176);stroke:none"
               d="m 168,24 c 0,-2.209 1.791,-4 4,-4 l 0,0 c 2.209,0 4,1.791 4,4 l 0,0 c 0,2.209 -1.791,4 -4,4 l 0,0 c -2.209,0 -4,-1.791 -4,-4" /></g></g></g></g><g
       id="g184"><g
         clip-path="url(#clipPath188)"
         id="g186"><g
           id="g192"><g
             id="g194"><path
               id="path202"
               style="fill:url(#linearGradient196);stroke:none"
               d="m 170,24 c 0,-1.105 0.896,-2 2,-2 l 0,0 c 1.104,0 2,0.895 2,2 l 0,0 c 0,1.105 -0.896,2 -2,2 l 0,0 c -1.104,0 -2,-0.895 -2,-2" /></g></g></g></g><g
       id="g204"><g
         clip-path="url(#clipPath208)"
         id="g206"><g
           id="g212"><g
             id="g214"><path
               id="path222"
               style="fill:url(#linearGradient216);stroke:none"
               d="m 92,28 c 0,-2.209 1.791,-4 4,-4 l 0,0 c 2.209,0 4,1.791 4,4 l 0,0 c 0,2.209 -1.791,4 -4,4 l 0,0 c -2.209,0 -4,-1.791 -4,-4" /></g></g></g></g><g
       id="g224"><g
         clip-path="url(#clipPath228)"
         id="g226"><g
           id="g232"><g
             id="g234"><path
               id="path242"
               style="fill:url(#linearGradient236);stroke:none"
               d="m 120,240 0,-24 -4,-4 0,-4 32,0 0,4 -4,4 0,24 c 0,2.209 -5.373,4 -12,4 l 0,0 c -6.627,0 -12,-1.791 -12,-4" /></g></g></g></g><g
       id="g244"><g
         clip-path="url(#clipPath248)"
         id="g246"><g
           id="g252"><g
             id="g254"><path
               id="path262"
               style="fill:url(#linearGradient256);stroke:none"
               d="m 94,28 c 0,-1.104 0.895,-2 2,-2 l 0,0 c 1.105,0 2,0.896 2,2 l 0,0 c 0,1.104 -0.895,2 -2,2 l 0,0 c -1.105,0 -2,-0.896 -2,-2" /></g></g></g></g><g
       id="g264"><g
         clip-path="url(#clipPath268)"
         id="g266"><g
           id="g272"><g
             id="g274"><path
               id="path282"
               style="fill:url(#linearGradient276);stroke:none"
               d="m 107.563,161.224 0,-1.224 3.999,0 0,1.33 c -1.4,-0.009 -2.738,-0.046 -3.999,-0.106 m 8,-1.224 3.999,0 0,1.029 c -1.362,0.113 -2.699,0.192 -3.999,0.24 l 0,0 0,-1.269 z m -14.241,0.731 C 100.755,160.668 100.306,160.386 100,160 l 0,0 3.562,0 0,0.955 c -0.802,-0.07 -1.551,-0.147 -2.24,-0.224 m 22.241,-0.731 3.71,0 c -1.245,0.233 -2.483,0.43 -3.71,0.596 l 0,0 0,-0.596 z m -4.001,0 0,-4 -3.999,0 0,-4 3.999,0 0,4 4.001,0 0,4 -4.001,0 z m -8,0 0,-4 -3.999,0 0,-4 3.999,0 0,4 4.001,0 0,4 -4.001,0 z m -8,0 0,-4 -2.568,0 c 0.654,-1.13 1.237,-2.469 1.755,-4 l 0,0 0.813,0 0,4 4.001,0 0,4 -4.001,0 z m 24,-4 4.001,0 0,3.047 c -1.335,0.344 -2.67,0.642 -4.001,0.896 l 0,0 0,-3.943 z m 8,0 4,0 0,0.35 c -1.317,0.563 -2.653,1.067 -4,1.518 l 0,0 0,-1.868 z m 4,0 0,-4 -4,0 0,-4 4,0 0,4 4.001,0 0,2.409 c -1.053,0.574 -2.124,1.104 -3.209,1.591 l 0,0 -0.792,0 z m -7.999,0 0,-4 -4.001,0 0,-4 4.001,0 0,4 3.999,0 0,4 -3.999,0 z m -8,0 0,-4 -4.001,0 0,-4 4.001,0 0,4 3.999,0 0,4 -3.999,0 z m 20,-4 0,-4 -4.001,0 0,-4 4.001,0 0,4 3.999,0 0,3.946 c -0.026,0.018 -0.052,0.036 -0.079,0.054 l 0,0 -3.92,0 z m -32.001,-4 4.001,0 0,4 -4.001,0 0,-4 z m -8,4 0,-2.757 c 0.105,-0.406 0.208,-0.818 0.306,-1.243 l 0,0 3.695,0 0,4 -4.001,0 z m 44,-4 0,-4 -3.999,0 0,-4 3.999,0 0,4 4.001,0 0,4 -4.001,0 z m -15.999,0 0,-4 -4.001,0 0,-4 -3.999,0 0,-4 3.999,0 0,4 4.001,0 0,4 3.999,0 0,4 -3.999,0 z m -8,0 0,-4 -4.001,0 0,-4 4.001,0 0,4 3.999,0 0,4 -3.999,0 z m -8,0 0,-4 -4.001,0 0,-4 4.001,0 0,4 3.999,0 0,4 -3.999,0 z m -8,0 0,-4 -2.916,0 c 0.21,-1.277 0.4,-2.611 0.568,-4 l 0,0 2.348,0 0,4 3.999,0 0,4 -3.999,0 z m 44,-4 0,-4 -4.001,0 0,-4 4.001,0 0,4 3.999,0 0,4 -3.999,0 z m -16.001,0 0,-4 -3.999,0 0,-4 -4.001,0 0,-4 -3.999,0 0,-4 3.999,0 0,4 4.001,0 0,4 3.999,0 0,4 4,0 0,4 -4,0 z m 20,-4 0,-4 -3.999,0 0,-4 3.999,0 0,4 4.001,0 0,2.407 c -0.288,0.545 -0.59,1.073 -0.897,1.593 l 0,0 -3.104,0 z m -16,0 0,-4 -4,0 0,-4 -3.999,0 0,-4 3.999,0 0,4 4,0 0,4 4.001,0 0,4 -4.001,0 z m -23.999,0 0,-4 -4.001,0 0,-4 4.001,0 0,4 3.999,0 0,4 -3.999,0 z m -8,0 0,-4 -1.933,0 c 0.114,-1.299 0.213,-2.633 0.297,-4 l 0,0 1.636,0 0,4 3.999,0 0,4 -3.999,0 z m 52,-4 0,-4 2.734,0 c -0.471,1.396 -0.994,2.729 -1.563,4 l 0,0 -1.171,0 z m -16,0 0,-4 -4.001,0 0,-4 -4,0 0,-4 4,0 0,4 4.001,0 0,4 3.999,0 0,4 -3.999,0 z m -24.001,-4 4.001,0 0,4 -4.001,0 0,-4 z m 36,0 0,-4 -3.999,0 0,-4 3.999,0 0,4 4.001,0 0,4 -4.001,0 z m -8,0 0,-4 -3.999,0 0,-4 -4.001,0 0,-4 4.001,0 0,4 3.999,0 0,4 4.001,0 0,4 -4.001,0 z m -31.999,0 0,-4 -4.001,0 0,-4 4.001,0 0,4 3.999,0 0,4 -3.999,0 z m -8,0 0,-4 -1.431,0 c 0.054,-1.311 0.097,-2.645 0.128,-4 l 0,0 1.303,0 0,4 3.999,0 0,4 -3.999,0 z m 52,-4 0,-4 3.999,0 0,3.576 c -0.034,0.144 -0.072,0.282 -0.107,0.424 l 0,0 -3.892,0 z m -32.001,0 0,-4 -3.999,0 0,-4 3.999,0 0,4 4.001,0 0,4 -4.001,0 z m -8,-4 4.001,0 0,4 -4.001,0 0,-4 z m 36,0 0,-4 -3.999,0 0,-4 3.999,0 0,4 4.001,0 0,4 -4.001,0 z m -8,0 0,-4 -3.999,0 0,-4 -4.001,0 0,-4 4.001,0 0,4 3.999,0 0,4 4.001,0 0,4 -4.001,0 z m -15.999,0 0,-4 -4.001,0 0,-4 -3.999,0 0,-4 3.999,0 0,4 4.001,0 0,4 3.999,0 0,4 -3.999,0 z m -16,0 0,-4 -4.001,0 0,-4 4.001,0 0,4 3.999,0 0,4 -3.999,0 z m -8,0 0,-4 -1.238,0 c 0.012,-1.32 0.015,-2.654 0.009,-4 l 0,0 1.229,0 0,4 3.999,0 0,4 -3.999,0 z m 52,-4 0,-4 -4.001,0 0,-4 4.001,0 0,4 3.999,0 0,4 -3.999,0 z m -24.001,-4 4,0 0,4 -4,0 0,-4 z m -16,0 4.001,0 0,4 -4.001,0 0,-4 z m 44,0 0,-4 1.401,0 c -0.086,1.44 -0.165,2.777 -0.235,4 l 0,0 -1.166,0 z m -16,0 0,-4 -3.999,0 0,-4 -4.001,0 0,-4 4.001,0 0,4 3.999,0 0,4 4.001,0 0,4 -4.001,0 z m -15.999,0 0,-4 -4.001,0 0,-4 -3.999,0 0,-4 3.999,0 0,4 4.001,0 0,4 3.999,0 0,4 -3.999,0 z m -16,0 0,-4 -4.001,0 0,-4 4.001,0 0,4 3.999,0 0,4 -3.999,0 z m -8,0 0,-4 -1.269,0 c -0.02,-1.325 -0.047,-2.659 -0.081,-4 l 0,0 1.35,0 0,4 3.999,0 0,4 -3.999,0 z m 52,-4 0,-4 -4.001,0 0,-4 4.001,0 0,4 3.999,0 0,4 -3.999,0 z m -8,0 0,-4 -4.001,0 0,-4 -3.999,0 0,-4 3.999,0 0,4 4.001,0 0,4 3.999,0 0,4 -3.999,0 z m -16.001,-4 4,0 0,4 -4,0 0,-4 z m -16,0 4.001,0 0,4 -4.001,0 0,-4 z m 44,0 0,-4 1.893,0 c -0.088,1.383 -0.171,2.717 -0.25,4 l 0,0 -1.643,0 z m -31.999,0 0,-4 -4.001,0 0,-4 -3.999,0 0,-4 3.999,0 0,4 4.001,0 0,4 3.999,0 0,4 -3.999,0 z m -16,0 0,-4 -4.001,0 0,-4 4.001,0 0,4 3.999,0 0,4 -3.999,0 z m -8,0 0,-4 -1.47,0 c -0.046,-1.33 -0.098,-2.665 -0.155,-4 l 0,0 1.625,0 0,4 3.999,0 0,4 -3.999,0 z m 52,-4 0,-4 -4.001,0 0,-4 4.001,0 0,4 3.999,0 0,4 -3.999,0 z m -8,0 0,-4 -4.001,0 0,-4 -3.999,0 0,-4 3.999,0 0,4 4.001,0 0,4 3.999,0 0,4 -3.999,0 z m -16.001,-4 4,0 0,4.001 -4,0 0,-4.001 z m -16,0 4.001,0 0,4.001 -4.001,0 0,-4.001 z m 44,0 0,-4 2.413,0 c -0.092,1.36 -0.179,2.694 -0.264,4 l 0,0 -2.149,0 z m -24,-4 4,0 0,4 -4,0 0,-4 z m -7.999,4 0,-4 -4.001,0 0,-4 -3.999,0 0,-4 3.999,0 0,4 4.001,0 0,4 3.999,0 0,4 -3.999,0 z m -16,0 0,-4 -4.001,0 0,-4 4.001,0 0,4 3.999,0 0,4 -3.999,0 z m -8,0 0,-4 -1.809,0 c -0.067,-1.336 -0.139,-2.669 -0.215,-4 l 0,0 2.024,0 0,4 3.999,0 0,4 -3.999,0 z m 52,-8 4,0 0,4.001 -4,0 0,-4.001 z m -8,4 0,-4 -4.001,0 0,-4 -3.999,0 0,-4 3.999,0 0,4 4.001,0 0,4 3.999,0 0,4 -3.999,0 z m -16.001,-4 4,0 0,4.001 -4,0 0,-4.001 z m -16,0 4.001,0 0,4.001 -4.001,0 0,-4.001 z m 44,0 0,-4 2.965,0 c -0.095,1.347 -0.189,2.68 -0.28,4 l 0,0 -2.685,0 z m -8,-4 4,0 0,4 -4,0 0,-4 z m -16,0 4,0 0,4 -4,0 0,-4 z m -7.999,4 0,-4 -4.001,0 0,-4 -3.999,0 0,-4 3.999,0 0,4 4.001,0 0,4 3.999,0 0,4 -3.999,0 z m -16,0 0,-4 -4.001,0 0,-4 4.001,0 0,4 3.999,0 0,4 -3.999,0 z m -8,0 0,-4 -2.265,0 c -0.084,-1.34 -0.173,-2.675 -0.264,-4 l 0,0 2.529,0 0,4 3.999,0 0,4 -3.999,0 z m 52,-8 4,0 0,4.001 -4,0 0,-4.001 z m -8,4 0,-4 -4.001,0 0,-4 -3.999,0 0,-4 3.999,0 0,4 4.001,0 0,4 3.999,0 0,4 -3.999,0 z m -16.001,-4 4,0 0,4.001 -4,0 0,-4.001 z m -16,0 4.001,0 0,4.001 -4.001,0 0,-4.001 z m 44,0 0,-4 3.554,0 c -0.102,1.336 -0.202,2.671 -0.299,4 l 0,0 -3.255,0 z m -8,-4 4,0 0,4 -4,0 0,-4 z m -16,0 4,0 0,4 -4,0 0,-4 z m -7.999,4 0,-4 -4.001,0 0,-4 -3.999,0 0,-4 3.999,0 0,4 4.001,0 0,4 3.999,0 0,4 -3.999,0 z m -16,0 0,-4 -4.001,0 0,-4 4.001,0 0,4 3.999,0 0,4 -3.999,0 z m -8,0 0,-4 -2.818,0 c -0.101,-1.346 -0.205,-2.681 -0.311,-4 l 0,0 3.129,0 0,4 3.999,0 0,4 -3.999,0 z m 52,-8 4,0 0,4.001 -4,0 0,-4.001 z m -8,4 0,-4 -4.001,0 0,-4 -3.999,0 0,-4 3.999,0 0,4 4.001,0 0,4 3.999,0 0,4 -3.999,0 z m -16.001,-4 4,0 0,4.001 -4,0 0,-4.001 z m -16,0 4.001,0 0,4.001 -4.001,0 0,-4.001 z m 44,0 0,-4 4.001,0 0,2.281 c -0.046,0.571 -0.092,1.144 -0.137,1.719 l 0,0 -3.864,0 z m -8,0 0,-4 -3.999,0 0,-4 -4.001,0 0,-4 -3.999,0 0,-4 3.999,0 0,4 4.001,0 0,4 3.999,0 0,4 4.001,0 0,4 -4.001,0 z m -16,-4 4,0 0,4 -4,0 0,-4 z m -7.999,4 0,-4 -4.001,0 0,-4 -3.999,0 0,-4 3.999,0 0,4 4.001,0 0,4 3.999,0 0,4 -3.999,0 z m -16,0 0,-4 -4.001,0 0,-4 4.001,0 0,4 3.999,0 0,4 -3.999,0 z m -8,0 0,-4 -3.459,0 c -0.115,-1.354 -0.233,-2.689 -0.35,-4 l 0,0 3.809,0 0,4 3.999,0 0,4 -3.999,0 z m 52,-8 4,0 0,4 -4,0 0,-4 z m -24.001,0 4,0 0,4 -4,0 0,-4 z m -16,0 4.001,0 0,4 -4.001,0 0,-4 z m 44,-4 4.001,0 0,4.001 -4.001,0 0,-4.001 z m -8,4 0,-4 -3.999,0 0,-4 3.999,0 0,4 4.001,0 0,4 -4.001,0 z m -16,0 0,-4 -4,0 0,-4 4,0 0,4 4.001,0 0,4 -4.001,0 z m -7.999,0 0,-4 -4.001,0 0,-4 4.001,0 0,4 3.999,0 0,4 -3.999,0 z m -16,0 0,-4 -4.001,0 0,-4 -3.999,0 0,-4 3.999,0 0,4 4.001,0 0,4 3.999,0 0,4 -3.999,0 z m -8,-4 4,0 0,4.001 -4,0 0,-4.001 z m -4.179,0 0.178,0 0,1.911 c -0.059,-0.645 -0.119,-1.28 -0.178,-1.911 m 64.179,0 0,-4 1.254,0 c -0.127,1.309 -0.252,2.644 -0.376,4 l 0,0 -0.878,0 z m -8,0 0,-4 -4.001,0 0,-4 4.001,0 0,4 3.999,0 0,4 -3.999,0 z m -40.001,0 0,-4 -3.999,0 0,-4 3.999,0 0,4 4.001,0 0,4 -4.001,0 z m -16,0 0,-4 -0.566,0 c -0.137,-1.375 -0.273,-2.71 -0.406,-4 l 0,0 0.972,0 0,4 4.001,0 0,4 -4.001,0 z m 60,-8 4.001,0 0,4.001 -4.001,0 0,-4.001 z m -16,4 0,-4 -3.999,0 0,-4 3.999,0 0,4 4.001,0 0,4 -4.001,0 z m -8,0 0,-4 -4,0 0,-4 -3.999,0 0,-4 -4.001,0 0,-4 4.001,0 0,4 3.999,0 0,4 4,0 0,4 4.001,0 0,4 -4.001,0 z m -7.999,0 0,-4 -4.001,0 0,-4 -3.999,0 0,-4 3.999,0 0,4 4.001,0 0,4 3.999,0 0,4 -3.999,0 z m -8,-4 4,0 0,4.001 -4,0 0,-4.001 z m 44,0 0,-4 2.087,0 c -0.145,1.287 -0.29,2.625 -0.432,4 l 0,0 -1.655,0 z m -8,0 0,-4 -4.001,0 0,-4 4.001,0 0,4 3.999,0 0,4 -3.999,0 z m -8,0 0,-4 -4.001,0 0,-4 -3.999,0 0,-4 3.999,0 0,4 4.001,0 0,4 3.999,0 0,4 -3.999,0 z m -32.001,0 0,-4 -3.999,0 0,-4 3.999,0 0,4 4.001,0 0,4 -4.001,0 z m -8,0 0,-4 -3.999,0 0,-4 3.999,0 0,4 4.001,0 0,4 -4.001,0 z m -8,0 0,-4 -1.395,0 c -0.153,-1.411 -0.3,-2.742 -0.442,-4 l 0,0 1.837,0 0,4 4.001,0 0,4 -4.001,0 z m 60,-8 4.001,0 0,4.001 -4.001,0 0,-4.001 z m -24,4 0,-4 -4,0 0,-4 4,0 0,4 4.001,0 0,4 -4.001,0 z m 28.001,-4 0,-4 3.108,0 c -0.183,1.24 -0.363,2.58 -0.543,4 l 0,0 -2.565,0 z m -8,0 0,-4 -4.001,0 0,-4 -3.999,0 0,-4 3.999,0 0,4 4.001,0 0,4 3.999,0 0,4 -3.999,0 z m -8,-4 4,0 0,4 -4,0 0,-4 z m -32.001,0 4.001,0 0,4 -4.001,0 0,-4 z m -8,4 0,-4 -3.999,0 0,-4 3.999,0 0,4 4.001,0 0,4 -4.001,0 z m -8,0 0,-4 -2.297,0 c -0.179,-1.53 -0.342,-2.877 -0.479,-4 l 0,0 2.776,0 0,4 4.001,0 0,4 -4.001,0 z m 60,-8 4.001,0 0,4.001 -4.001,0 0,-4.001 z m -16,4 0,-4 -3.999,0 0,-4 3.999,0 0,4 4.001,0 0,4 -4.001,0 z m -8,0 0,-4 -4,0 0,-4 4,0 0,4 4.001,0 0,4 -4.001,0 z m -7.999,0 0,-4 -4.001,0 0,-4 4.001,0 0,4 3.999,0 0,4 -3.999,0 z m -8,-4 4,0 0,4.001 -4,0 0,-4.001 z m -8,0 4,0 0,4.001 -4,0 0,-4.001 z m 52,0 0,-4 3.921,0 c 0.029,0.056 0.054,0.113 0.078,0.169 l 0,0 0,2.641 c -0.078,0.373 -0.155,0.775 -0.233,1.19 l 0,0 -3.766,0 z m -8,-4 4,0 0,4 -4,0 0,-4 z m -40.001,0 4.001,0 0,4 -4.001,0 0,-4 z m -8,4 0,-4 -3.999,0 0,-4 3.999,0 0,4 4.001,0 0,4 -4.001,0 z m -8,0 0,-4 -2.597,0 c 0.1,-0.111 0.207,-0.216 0.337,-0.297 l 0,0 c 0.962,-0.598 1.612,-2.034 2.053,-3.703 l 0,0 0.207,0 0,4 4.001,0 0,4 -4.001,0 z m 60,-4 0,-4 3.802,0 c 0.067,0.078 0.132,0.161 0.199,0.236 l 0,0 0,3.764 -4.001,0 z m -8,0 0,-4 -3.999,0 0,-4 3.999,0 0,4 4.001,0 0,4 -4.001,0 z m -8,0 0,-4 -3.999,0 0,-4 3.999,0 0,4 4.001,0 0,4 -4.001,0 z m -8,0 0,-4 -4,0 0,-4 4,0 0,4 4.001,0 0,4 -4.001,0 z m -7.999,0 0,-4 -4.001,0 0,-4 4.001,0 0,4 3.999,0 0,4 -3.999,0 z m -8,0 0,-4 -4.001,0 0,-4 4.001,0 0,4 3.999,0 0,4 -3.999,0 z m -8,0 0,-4 -4.001,0 0,-4 4.001,0 0,4 3.999,0 0,4 -3.999,0 z m 44,-8 4,0 0,4.001 -4,0 0,-4.001 z m -56.001,4 0,-0.87 c 0.224,-1.041 0.378,-2.126 0.484,-3.13 l 0,0 3.517,0 0,4 -4.001,0 z m 60,-4 0,-4 -3.999,0 0,-2.829 c 1.84,0.345 3.222,0.829 3.999,1.479 l 0,0 0,1.35 0.718,0 c 0,1.47 0.272,2.801 0.714,4 l 0,0 -1.432,0 z m -8,0 0,-4 -3.999,0 0,-3.521 c 1.418,0.035 2.759,0.097 3.999,0.194 l 0,0 0,3.327 4.001,0 0,4 -4.001,0 z m -8,0 0,-4 -3.999,0 0,-3.469 c 1.365,-0.042 2.703,-0.071 3.999,-0.082 l 0,0 0,3.551 4.001,0 0,4 -4.001,0 z m -8,0 0,-4 -4,0 0,-3.083 c 1.341,-0.084 2.678,-0.159 4,-0.223 l 0,0 0,3.306 4.001,0 0,4 -4.001,0 z m -7.999,0 0,-4 -4.001,0 0,-2.491 c 1.319,-0.111 2.656,-0.217 4.001,-0.317 l 0,0 0,2.808 3.999,0 0,4 -3.999,0 z m -8,0 0,-4 -4.001,0 0,-1.75 c 1.29,-0.13 2.628,-0.259 4.001,-0.386 l 0,0 0,2.136 3.999,0 0,4 -3.999,0 z m -8,0 0,-4 -4.001,0 0,-0.889 c 1.222,-0.14 2.562,-0.29 4.001,-0.445 l 0,0 0,1.334 3.999,0 0,4 -3.999,0 z m -8,0 0,-4 -1.299,0 c 0.398,-0.206 0.835,-0.347 1.299,-0.41 l 0,0 0,0.41 3.999,0 0,4 -3.999,0 z" /></g></g></g></g><g
       id="g284"><g
         clip-path="url(#clipPath288)"
         id="g286"><g
           transform="translate(141,242.6396)"
           id="g292"><path
             id="path294"
             style="fill:#999999;fill-opacity:1;fill-rule:nonzero;stroke:none"
             d="m 0,0 c -0.597,0.226 -1.267,0.429 -2,0.605 l 0,-27.245 2,0 L 0,0 Z" /></g><g
           transform="translate(137,243.6328)"
           id="g296"><path
             id="path298"
             style="fill:#999999;fill-opacity:1;fill-rule:nonzero;stroke:none"
             d="m 0,0 c -0.639,0.098 -1.307,0.177 -2,0.236 l 0,-27.869 2,0 L 0,0 Z" /></g><g
           transform="translate(125,243.2446)"
           id="g300"><path
             id="path302"
             style="fill:#999999;fill-opacity:1;fill-rule:nonzero;stroke:none"
             d="m 0,0 c -0.734,-0.176 -1.403,-0.379 -2,-0.605 l 0,-26.64 2,0 L 0,0 Z" /></g><g
           transform="translate(133,243.9834)"
           id="g304"><path
             id="path306"
             style="fill:#999999;fill-opacity:1;fill-rule:nonzero;stroke:none"
             d="M 0,0 C -0.33,0.009 -0.662,0.017 -1,0.017 -1.338,0.017 -1.67,0.009 -2,0 l 0,-27.983 2,0 L 0,0 Z" /></g><g
           transform="translate(129,243.8691)"
           id="g308"><path
             id="path310"
             style="fill:#999999;fill-opacity:1;fill-rule:nonzero;stroke:none"
             d="m 0,0 c -0.693,-0.06 -1.361,-0.139 -2,-0.236 l 0,-27.633 2,0 L 0,0 Z" /></g></g></g></g></svg>