<?xml version="1.0" encoding="UTF-8" standalone="no"?>
<svg
   xmlns:dc="http://purl.org/dc/elements/1.1/"
   xmlns:cc="http://creativecommons.org/ns#"
   xmlns:rdf="http://www.w3.org/1999/02/22-rdf-syntax-ns#"
   xmlns:svg="http://www.w3.org/2000/svg"
   xmlns="http://www.w3.org/2000/svg"
   viewBox="0 0 320 320"
   height="320"
   width="320"
   xml:space="preserve"
   version="1.1"
   id="svg2"><metadata
     id="metadata8"><rdf:RDF><cc:Work
         rdf:about=""><dc:format>image/svg+xml</dc:format><dc:type
           rdf:resource="http://purl.org/dc/dcmitype/StillImage" /></cc:Work></rdf:RDF></metadata><defs
     id="defs6"><clipPath
       id="clipPath16"
       clipPathUnits="userSpaceOnUse"><path
         id="path18"
         d="M 240.209,196.101 15.693,195.899 c -2.066,-0.002 -3.74,-1.671 -3.738,-3.727 l 0,0 0.091,-100.552 c 0.001,-2.057 1.678,-3.722 3.744,-3.721 l 0,0 224.516,0.202 c 2.068,0.002 3.741,1.67 3.739,3.728 l 0,0 -0.09,100.551 c -0.002,2.056 -1.677,3.721 -3.743,3.721 l 0,0 c -10e-4,0 -0.002,0 -0.003,0" /></clipPath><linearGradient
       id="linearGradient24"
       spreadMethod="pad"
       gradientTransform="matrix(167.96417,-167.6622,-167.6622,-167.96417,44.017918,225.8311)"
       gradientUnits="userSpaceOnUse"
       y2="0"
       x2="1"
       y1="0"
       x1="0"><stop
         id="stop26"
         offset="0"
         style="stop-opacity:1;stop-color:#e6e7e8" /><stop
         id="stop28"
         offset="1"
         style="stop-opacity:1;stop-color:#d1d3d4" /></linearGradient><clipPath
       id="clipPath36"
       clipPathUnits="userSpaceOnUse"><path
         id="path38"
         d="M 17.738,96 C 15.674,96 14,94.992 14,93.75 l 0,0 0,-13.5 C 14,79.007 15.674,78 17.738,78 l 0,0 0.262,0 0,-8.723 c -2.398,-0.716 -4.129,-2.121 -4.129,-4.89 l 0,0 c 0,-5.182 4.172,-9.355 9.354,-9.355 l 0,0 209.549,0 c 5.182,0 9.355,4.173 9.355,9.355 l 0,0 c 0,2.769 -1.732,4.174 -4.129,4.89 l 0,0 0,8.723 0.262,0 c 2.065,0 3.738,1.007 3.738,2.25 l 0,0 0,13.5 c 0,1.242 -1.673,2.25 -3.738,2.25 l 0,0 -220.524,0 z" /></clipPath><linearGradient
       id="linearGradient44"
       spreadMethod="pad"
       gradientTransform="matrix(131.00224,-131.00224,-131.00224,-131.00224,62.498875,142.87453)"
       gradientUnits="userSpaceOnUse"
       y2="0"
       x2="1"
       y1="0"
       x1="0"><stop
         id="stop46"
         offset="0"
         style="stop-opacity:1;stop-color:#e6e7e8" /><stop
         id="stop48"
         offset="1"
         style="stop-opacity:1;stop-color:#d1d3d4" /></linearGradient><clipPath
       id="clipPath56"
       clipPathUnits="userSpaceOnUse"><path
         id="path58"
         d="M 0,256 256,256 256,0 0,0 0,256 Z" /></clipPath><clipPath
       id="clipPath68"
       clipPathUnits="userSpaceOnUse"><path
         id="path70"
         d="m 26,60 4,0 0,23.999 -4,0 L 26,60 Z" /></clipPath><linearGradient
       id="linearGradient76"
       spreadMethod="pad"
       gradientTransform="matrix(14,-14,-14,-14,21,79)"
       gradientUnits="userSpaceOnUse"
       y2="0"
       x2="1"
       y1="0"
       x1="0"><stop
         id="stop78"
         offset="0"
         style="stop-opacity:1;stop-color:#e6e7e8" /><stop
         id="stop80"
         offset="1"
         style="stop-opacity:1;stop-color:#d1d3d4" /></linearGradient><clipPath
       id="clipPath88"
       clipPathUnits="userSpaceOnUse"><path
         id="path90"
         d="m 34,64 4,0 0,20 -4,0 0,-20 z" /></clipPath><linearGradient
       id="linearGradient96"
       spreadMethod="pad"
       gradientTransform="matrix(11.999999,-11.999999,-11.999999,-11.999999,30,80)"
       gradientUnits="userSpaceOnUse"
       y2="0"
       x2="1"
       y1="0"
       x1="0"><stop
         id="stop98"
         offset="0"
         style="stop-opacity:1;stop-color:#e6e7e8" /><stop
         id="stop100"
         offset="1"
         style="stop-opacity:1;stop-color:#d1d3d4" /></linearGradient><clipPath
       id="clipPath108"
       clipPathUnits="userSpaceOnUse"><path
         id="path110"
         d="m 42,64 4,0 0,20 -4,0 0,-20 z" /></clipPath><linearGradient
       id="linearGradient116"
       spreadMethod="pad"
       gradientTransform="matrix(11.999999,-11.999999,-11.999999,-11.999999,38,80)"
       gradientUnits="userSpaceOnUse"
       y2="0"
       x2="1"
       y1="0"
       x1="0"><stop
         id="stop118"
         offset="0"
         style="stop-opacity:1;stop-color:#e6e7e8" /><stop
         id="stop120"
         offset="1"
         style="stop-opacity:1;stop-color:#d1d3d4" /></linearGradient><clipPath
       id="clipPath128"
       clipPathUnits="userSpaceOnUse"><path
         id="path130"
         d="m 50,64 4,0 0,20 -4,0 0,-20 z" /></clipPath><linearGradient
       id="linearGradient136"
       spreadMethod="pad"
       gradientTransform="matrix(11.999999,-11.999999,-11.999999,-11.999999,46,80)"
       gradientUnits="userSpaceOnUse"
       y2="0"
       x2="1"
       y1="0"
       x1="0"><stop
         id="stop138"
         offset="0"
         style="stop-opacity:1;stop-color:#e6e7e8" /><stop
         id="stop140"
         offset="1"
         style="stop-opacity:1;stop-color:#d1d3d4" /></linearGradient><clipPath
       id="clipPath148"
       clipPathUnits="userSpaceOnUse"><path
         id="path150"
         d="m 58,64 4.001,0 0,20 L 58,84 58,64 Z" /></clipPath><linearGradient
       id="linearGradient156"
       spreadMethod="pad"
       gradientTransform="matrix(11.999999,-11.999999,-11.999999,-11.999999,54,80)"
       gradientUnits="userSpaceOnUse"
       y2="0"
       x2="1"
       y1="0"
       x1="0"><stop
         id="stop158"
         offset="0"
         style="stop-opacity:1;stop-color:#e6e7e8" /><stop
         id="stop160"
         offset="1"
         style="stop-opacity:1;stop-color:#d1d3d4" /></linearGradient><clipPath
       id="clipPath168"
       clipPathUnits="userSpaceOnUse"><path
         id="path170"
         d="m 66,64 4.001,0 0,20 L 66,84 66,64 Z" /></clipPath><linearGradient
       id="linearGradient176"
       spreadMethod="pad"
       gradientTransform="matrix(11.999999,-11.999999,-11.999999,-11.999999,62,80)"
       gradientUnits="userSpaceOnUse"
       y2="0"
       x2="1"
       y1="0"
       x1="0"><stop
         id="stop178"
         offset="0"
         style="stop-opacity:1;stop-color:#e6e7e8" /><stop
         id="stop180"
         offset="1"
         style="stop-opacity:1;stop-color:#d1d3d4" /></linearGradient><clipPath
       id="clipPath188"
       clipPathUnits="userSpaceOnUse"><path
         id="path190"
         d="m 74,64 4.001,0 0,20 L 74,84 74,64 Z" /></clipPath><linearGradient
       id="linearGradient196"
       spreadMethod="pad"
       gradientTransform="matrix(11.999999,-11.999999,-11.999999,-11.999999,70,80)"
       gradientUnits="userSpaceOnUse"
       y2="0"
       x2="1"
       y1="0"
       x1="0"><stop
         id="stop198"
         offset="0"
         style="stop-opacity:1;stop-color:#e6e7e8" /><stop
         id="stop200"
         offset="1"
         style="stop-opacity:1;stop-color:#d1d3d4" /></linearGradient><clipPath
       id="clipPath208"
       clipPathUnits="userSpaceOnUse"><path
         id="path210"
         d="m 82,64 4.001,0 0,20 L 82,84 82,64 Z" /></clipPath><linearGradient
       id="linearGradient216"
       spreadMethod="pad"
       gradientTransform="matrix(11.999999,-11.999999,-11.999999,-11.999999,78,80)"
       gradientUnits="userSpaceOnUse"
       y2="0"
       x2="1"
       y1="0"
       x1="0"><stop
         id="stop218"
         offset="0"
         style="stop-opacity:1;stop-color:#e6e7e8" /><stop
         id="stop220"
         offset="1"
         style="stop-opacity:1;stop-color:#d1d3d4" /></linearGradient><clipPath
       id="clipPath228"
       clipPathUnits="userSpaceOnUse"><path
         id="path230"
         d="m 90,64 4,0 0,20 -4,0 0,-20 z" /></clipPath><linearGradient
       id="linearGradient236"
       spreadMethod="pad"
       gradientTransform="matrix(11.999999,-11.999999,-11.999999,-11.999999,86,80)"
       gradientUnits="userSpaceOnUse"
       y2="0"
       x2="1"
       y1="0"
       x1="0"><stop
         id="stop238"
         offset="0"
         style="stop-opacity:1;stop-color:#e6e7e8" /><stop
         id="stop240"
         offset="1"
         style="stop-opacity:1;stop-color:#d1d3d4" /></linearGradient><clipPath
       id="clipPath248"
       clipPathUnits="userSpaceOnUse"><path
         id="path250"
         d="m 98,64 4,0 0,20 -4,0 0,-20 z" /></clipPath><linearGradient
       id="linearGradient256"
       spreadMethod="pad"
       gradientTransform="matrix(11.999999,-11.999999,-11.999999,-11.999999,94,80)"
       gradientUnits="userSpaceOnUse"
       y2="0"
       x2="1"
       y1="0"
       x1="0"><stop
         id="stop258"
         offset="0"
         style="stop-opacity:1;stop-color:#e6e7e8" /><stop
         id="stop260"
         offset="1"
         style="stop-opacity:1;stop-color:#d1d3d4" /></linearGradient><clipPath
       id="clipPath268"
       clipPathUnits="userSpaceOnUse"><path
         id="path270"
         d="m 106,64 4,0 0,20 -4,0 0,-20 z" /></clipPath><linearGradient
       id="linearGradient276"
       spreadMethod="pad"
       gradientTransform="matrix(11.999999,-11.999999,-11.999999,-11.999999,102,80)"
       gradientUnits="userSpaceOnUse"
       y2="0"
       x2="1"
       y1="0"
       x1="0"><stop
         id="stop278"
         offset="0"
         style="stop-opacity:1;stop-color:#e6e7e8" /><stop
         id="stop280"
         offset="1"
         style="stop-opacity:1;stop-color:#d1d3d4" /></linearGradient><clipPath
       id="clipPath288"
       clipPathUnits="userSpaceOnUse"><path
         id="path290"
         d="m 114,64 4,0 0,20 -4,0 0,-20 z" /></clipPath><linearGradient
       id="linearGradient296"
       spreadMethod="pad"
       gradientTransform="matrix(11.999999,-11.999999,-11.999999,-11.999999,110,80)"
       gradientUnits="userSpaceOnUse"
       y2="0"
       x2="1"
       y1="0"
       x1="0"><stop
         id="stop298"
         offset="0"
         style="stop-opacity:1;stop-color:#e6e7e8" /><stop
         id="stop300"
         offset="1"
         style="stop-opacity:1;stop-color:#d1d3d4" /></linearGradient><clipPath
       id="clipPath308"
       clipPathUnits="userSpaceOnUse"><path
         id="path310"
         d="m 122,60 4,0 0,23.999 -4,0 L 122,60 Z" /></clipPath><linearGradient
       id="linearGradient316"
       spreadMethod="pad"
       gradientTransform="matrix(14,-14,-14,-14,117,79)"
       gradientUnits="userSpaceOnUse"
       y2="0"
       x2="1"
       y1="0"
       x1="0"><stop
         id="stop318"
         offset="0"
         style="stop-opacity:1;stop-color:#e6e7e8" /><stop
         id="stop320"
         offset="1"
         style="stop-opacity:1;stop-color:#d1d3d4" /></linearGradient><clipPath
       id="clipPath328"
       clipPathUnits="userSpaceOnUse"><path
         id="path330"
         d="m 130,60 4.001,0 0,23.999 -4.001,0 L 130,60 Z" /></clipPath><linearGradient
       id="linearGradient336"
       spreadMethod="pad"
       gradientTransform="matrix(14,-14,-14,-14,125,79)"
       gradientUnits="userSpaceOnUse"
       y2="0"
       x2="1"
       y1="0"
       x1="0"><stop
         id="stop338"
         offset="0"
         style="stop-opacity:1;stop-color:#e6e7e8" /><stop
         id="stop340"
         offset="1"
         style="stop-opacity:1;stop-color:#d1d3d4" /></linearGradient><clipPath
       id="clipPath348"
       clipPathUnits="userSpaceOnUse"><path
         id="path350"
         d="m 138,64 4.001,0 0,20 -4.001,0 0,-20 z" /></clipPath><linearGradient
       id="linearGradient356"
       spreadMethod="pad"
       gradientTransform="matrix(11.999999,-11.999999,-11.999999,-11.999999,134,80)"
       gradientUnits="userSpaceOnUse"
       y2="0"
       x2="1"
       y1="0"
       x1="0"><stop
         id="stop358"
         offset="0"
         style="stop-opacity:1;stop-color:#e6e7e8" /><stop
         id="stop360"
         offset="1"
         style="stop-opacity:1;stop-color:#d1d3d4" /></linearGradient><clipPath
       id="clipPath368"
       clipPathUnits="userSpaceOnUse"><path
         id="path370"
         d="m 146,64 4,0 0,20 -4,0 0,-20 z" /></clipPath><linearGradient
       id="linearGradient376"
       spreadMethod="pad"
       gradientTransform="matrix(11.999999,-11.999999,-11.999999,-11.999999,142,80)"
       gradientUnits="userSpaceOnUse"
       y2="0"
       x2="1"
       y1="0"
       x1="0"><stop
         id="stop378"
         offset="0"
         style="stop-opacity:1;stop-color:#e6e7e8" /><stop
         id="stop380"
         offset="1"
         style="stop-opacity:1;stop-color:#d1d3d4" /></linearGradient><clipPath
       id="clipPath388"
       clipPathUnits="userSpaceOnUse"><path
         id="path390"
         d="m 154,64 4.001,0 0,20 -4.001,0 0,-20 z" /></clipPath><linearGradient
       id="linearGradient396"
       spreadMethod="pad"
       gradientTransform="matrix(11.999999,-11.999999,-11.999999,-11.999999,150,80)"
       gradientUnits="userSpaceOnUse"
       y2="0"
       x2="1"
       y1="0"
       x1="0"><stop
         id="stop398"
         offset="0"
         style="stop-opacity:1;stop-color:#e6e7e8" /><stop
         id="stop400"
         offset="1"
         style="stop-opacity:1;stop-color:#d1d3d4" /></linearGradient><clipPath
       id="clipPath408"
       clipPathUnits="userSpaceOnUse"><path
         id="path410"
         d="m 162,64 4,0 0,20 -4,0 0,-20 z" /></clipPath><linearGradient
       id="linearGradient416"
       spreadMethod="pad"
       gradientTransform="matrix(11.999999,-11.999999,-11.999999,-11.999999,158,80)"
       gradientUnits="userSpaceOnUse"
       y2="0"
       x2="1"
       y1="0"
       x1="0"><stop
         id="stop418"
         offset="0"
         style="stop-opacity:1;stop-color:#e6e7e8" /><stop
         id="stop420"
         offset="1"
         style="stop-opacity:1;stop-color:#d1d3d4" /></linearGradient><clipPath
       id="clipPath428"
       clipPathUnits="userSpaceOnUse"><path
         id="path430"
         d="m 170,64 4,0 0,20 -4,0 0,-20 z" /></clipPath><linearGradient
       id="linearGradient436"
       spreadMethod="pad"
       gradientTransform="matrix(11.999999,-11.999999,-11.999999,-11.999999,166,80)"
       gradientUnits="userSpaceOnUse"
       y2="0"
       x2="1"
       y1="0"
       x1="0"><stop
         id="stop438"
         offset="0"
         style="stop-opacity:1;stop-color:#e6e7e8" /><stop
         id="stop440"
         offset="1"
         style="stop-opacity:1;stop-color:#d1d3d4" /></linearGradient><clipPath
       id="clipPath448"
       clipPathUnits="userSpaceOnUse"><path
         id="path450"
         d="m 178,64 4,0 0,20 -4,0 0,-20 z" /></clipPath><linearGradient
       id="linearGradient456"
       spreadMethod="pad"
       gradientTransform="matrix(11.999999,-11.999999,-11.999999,-11.999999,174,80)"
       gradientUnits="userSpaceOnUse"
       y2="0"
       x2="1"
       y1="0"
       x1="0"><stop
         id="stop458"
         offset="0"
         style="stop-opacity:1;stop-color:#e6e7e8" /><stop
         id="stop460"
         offset="1"
         style="stop-opacity:1;stop-color:#d1d3d4" /></linearGradient><clipPath
       id="clipPath468"
       clipPathUnits="userSpaceOnUse"><path
         id="path470"
         d="m 186,64 4,0 0,20 -4,0 0,-20 z" /></clipPath><linearGradient
       id="linearGradient476"
       spreadMethod="pad"
       gradientTransform="matrix(11.999999,-11.999999,-11.999999,-11.999999,182,80)"
       gradientUnits="userSpaceOnUse"
       y2="0"
       x2="1"
       y1="0"
       x1="0"><stop
         id="stop478"
         offset="0"
         style="stop-opacity:1;stop-color:#e6e7e8" /><stop
         id="stop480"
         offset="1"
         style="stop-opacity:1;stop-color:#d1d3d4" /></linearGradient><clipPath
       id="clipPath488"
       clipPathUnits="userSpaceOnUse"><path
         id="path490"
         d="m 194,64 4,0 0,20 -4,0 0,-20 z" /></clipPath><linearGradient
       id="linearGradient496"
       spreadMethod="pad"
       gradientTransform="matrix(11.999999,-11.999999,-11.999999,-11.999999,190,80)"
       gradientUnits="userSpaceOnUse"
       y2="0"
       x2="1"
       y1="0"
       x1="0"><stop
         id="stop498"
         offset="0"
         style="stop-opacity:1;stop-color:#e6e7e8" /><stop
         id="stop500"
         offset="1"
         style="stop-opacity:1;stop-color:#d1d3d4" /></linearGradient><clipPath
       id="clipPath508"
       clipPathUnits="userSpaceOnUse"><path
         id="path510"
         d="m 202,64 4,0 0,20 -4,0 0,-20 z" /></clipPath><linearGradient
       id="linearGradient516"
       spreadMethod="pad"
       gradientTransform="matrix(11.999999,-11.999999,-11.999999,-11.999999,198,80)"
       gradientUnits="userSpaceOnUse"
       y2="0"
       x2="1"
       y1="0"
       x1="0"><stop
         id="stop518"
         offset="0"
         style="stop-opacity:1;stop-color:#e6e7e8" /><stop
         id="stop520"
         offset="1"
         style="stop-opacity:1;stop-color:#d1d3d4" /></linearGradient><clipPath
       id="clipPath528"
       clipPathUnits="userSpaceOnUse"><path
         id="path530"
         d="m 210,64 4.001,0 0,20 -4.001,0 0,-20 z" /></clipPath><linearGradient
       id="linearGradient536"
       spreadMethod="pad"
       gradientTransform="matrix(11.999999,-11.999999,-11.999999,-11.999999,206,80)"
       gradientUnits="userSpaceOnUse"
       y2="0"
       x2="1"
       y1="0"
       x1="0"><stop
         id="stop538"
         offset="0"
         style="stop-opacity:1;stop-color:#e6e7e8" /><stop
         id="stop540"
         offset="1"
         style="stop-opacity:1;stop-color:#d1d3d4" /></linearGradient><clipPath
       id="clipPath548"
       clipPathUnits="userSpaceOnUse"><path
         id="path550"
         d="m 218,64 4.001,0 0,20 -4.001,0 0,-20 z" /></clipPath><linearGradient
       id="linearGradient556"
       spreadMethod="pad"
       gradientTransform="matrix(11.999999,-11.999999,-11.999999,-11.999999,214,80)"
       gradientUnits="userSpaceOnUse"
       y2="0"
       x2="1"
       y1="0"
       x1="0"><stop
         id="stop558"
         offset="0"
         style="stop-opacity:1;stop-color:#e6e7e8" /><stop
         id="stop560"
         offset="1"
         style="stop-opacity:1;stop-color:#d1d3d4" /></linearGradient><clipPath
       id="clipPath568"
       clipPathUnits="userSpaceOnUse"><path
         id="path570"
         d="m 226,60 4.001,0 0,23.999 -4.001,0 L 226,60 Z" /></clipPath><linearGradient
       id="linearGradient576"
       spreadMethod="pad"
       gradientTransform="matrix(14,-14,-14,-14,221,79)"
       gradientUnits="userSpaceOnUse"
       y2="0"
       x2="1"
       y1="0"
       x1="0"><stop
         id="stop578"
         offset="0"
         style="stop-opacity:1;stop-color:#e6e7e8" /><stop
         id="stop580"
         offset="1"
         style="stop-opacity:1;stop-color:#d1d3d4" /></linearGradient><clipPath
       id="clipPath588"
       clipPathUnits="userSpaceOnUse"><path
         id="path590"
         d="M 0,256 256,256 256,0 0,0 0,256 Z" /></clipPath><clipPath
       id="clipPath596"
       clipPathUnits="userSpaceOnUse"><path
         id="path598"
         d="m 20,180 216,0 0,-84 -216,0 0,84 z" /></clipPath><clipPath
       id="clipPath616"
       clipPathUnits="userSpaceOnUse"><path
         id="path618"
         d="M 85.539,192 C 82.48,192 80,189.52 80,186.461 l 0,0 c 0,-3.058 2.48,-5.538 5.539,-5.538 l 0,0 84.923,0 c 3.058,0 5.538,2.48 5.538,5.538 l 0,0 c 0,3.059 -2.48,5.539 -5.538,5.539 l 0,0 -84.923,0 z" /></clipPath><linearGradient
       id="linearGradient624"
       spreadMethod="pad"
       gradientTransform="matrix(-50.294102,50.294102,50.294102,50.294102,153.14705,161.31448)"
       gradientUnits="userSpaceOnUse"
       y2="0"
       x2="1"
       y1="0"
       x1="0"><stop
         id="stop626"
         offset="0"
         style="stop-opacity:1;stop-color:#e6e7e8" /><stop
         id="stop628"
         offset="1"
         style="stop-opacity:1;stop-color:#d1d3d4" /></linearGradient><clipPath
       id="clipPath636"
       clipPathUnits="userSpaceOnUse"><path
         id="path638"
         d="M 209.371,124 C 208.614,124 208,123.386 208,122.629 l 0,0 0,-17.258 c 0,-0.757 0.614,-1.371 1.371,-1.371 l 0,0 17.258,0 c 0.757,0 1.371,0.614 1.371,1.371 l 0,0 0,17.258 c 0,0.757 -0.614,1.371 -1.371,1.371 l 0,0 -17.258,0 z" /></clipPath><linearGradient
       id="linearGradient644"
       spreadMethod="pad"
       gradientTransform="matrix(-19.196634,19.196634,19.196634,19.196634,227.59831,104.40168)"
       gradientUnits="userSpaceOnUse"
       y2="0"
       x2="1"
       y1="0"
       x1="0"><stop
         id="stop646"
         offset="0"
         style="stop-opacity:1;stop-color:#e6e7e8" /><stop
         id="stop648"
         offset="1"
         style="stop-opacity:1;stop-color:#d1d3d4" /></linearGradient><clipPath
       id="clipPath656"
       clipPathUnits="userSpaceOnUse"><path
         id="path658"
         d="M 0,256 256,256 256,0 0,0 0,256 Z" /></clipPath><clipPath
       id="clipPath668"
       clipPathUnits="userSpaceOnUse"><path
         id="path670"
         d="m 36.856,167.144 c -4.735,-4.734 -6.27,-10.877 -3.43,-13.717 l 0,0 c 2.841,-2.842 8.983,-1.306 13.718,3.429 l 0,0 c 4.736,4.734 6.271,10.877 3.43,13.717 l 0,0 C 49.607,171.54 48.259,172 46.714,172 l 0,0 c -2.997,0 -6.734,-1.732 -9.858,-4.856" /></clipPath><linearGradient
       id="linearGradient676"
       spreadMethod="pad"
       gradientTransform="matrix(-10.28836,10.28836,10.28836,10.28836,47.14418,156.85582)"
       gradientUnits="userSpaceOnUse"
       y2="0"
       x2="1"
       y1="0"
       x1="0"><stop
         id="stop678"
         offset="0"
         style="stop-opacity:1;stop-color:#e6e7e8" /><stop
         id="stop680"
         offset="1"
         style="stop-opacity:1;stop-color:#d1d3d4" /></linearGradient></defs><g
     transform="matrix(1.25,0,0,-1.25,0,320)"
     id="g10"><g
       id="g12"><g
         clip-path="url(#clipPath16)"
         id="g14"><g
           id="g20"><g
             id="g22"><path
               id="path30"
               style="fill:url(#linearGradient24);stroke:none"
               d="M 240.209,196.101 15.693,195.899 c -2.066,-0.002 -3.74,-1.671 -3.738,-3.727 l 0,0 0.091,-100.552 c 0.001,-2.057 1.678,-3.722 3.744,-3.721 l 0,0 224.516,0.202 c 2.068,0.002 3.741,1.67 3.739,3.728 l 0,0 -0.09,100.551 c -0.002,2.056 -1.677,3.721 -3.743,3.721 l 0,0 c -10e-4,0 -0.002,0 -0.003,0" /></g></g></g></g><g
       id="g32"><g
         clip-path="url(#clipPath36)"
         id="g34"><g
           id="g40"><g
             id="g42"><path
               id="path50"
               style="fill:url(#linearGradient44);stroke:none"
               d="M 17.738,96 C 15.674,96 14,94.992 14,93.75 l 0,0 0,-13.5 C 14,79.007 15.674,78 17.738,78 l 0,0 0.262,0 0,-8.723 c -2.398,-0.716 -4.129,-2.121 -4.129,-4.89 l 0,0 c 0,-5.182 4.172,-9.355 9.354,-9.355 l 0,0 209.549,0 c 5.182,0 9.355,4.173 9.355,9.355 l 0,0 c 0,2.769 -1.732,4.174 -4.129,4.89 l 0,0 0,8.723 0.262,0 c 2.065,0 3.738,1.007 3.738,2.25 l 0,0 0,13.5 c 0,1.242 -1.673,2.25 -3.738,2.25 l 0,0 -220.524,0 z" /></g></g></g></g><g
       id="g52"><g
         clip-path="url(#clipPath56)"
         id="g54"><path
           id="path60"
           style="fill:#999999;fill-opacity:1;fill-rule:nonzero;stroke:none"
           d="m 22,88 212,0 0,-28 -212,0 0,28 z" /><path
           id="path62"
           style="fill:#ecf0f1;fill-opacity:1;fill-rule:nonzero;stroke:none"
           d="m 20,92 216,0 0,-8 -216,0 0,8 z" /></g></g><g
       id="g64"><g
         clip-path="url(#clipPath68)"
         id="g66"><g
           id="g72"><g
             id="g74"><path
               id="path82"
               style="fill:url(#linearGradient76);stroke:none"
               d="m 26,60 4,0 0,23.999 -4,0 L 26,60 Z" /></g></g></g></g><g
       id="g84"><g
         clip-path="url(#clipPath88)"
         id="g86"><g
           id="g92"><g
             id="g94"><path
               id="path102"
               style="fill:url(#linearGradient96);stroke:none"
               d="m 34,64 4,0 0,20 -4,0 0,-20 z" /></g></g></g></g><g
       id="g104"><g
         clip-path="url(#clipPath108)"
         id="g106"><g
           id="g112"><g
             id="g114"><path
               id="path122"
               style="fill:url(#linearGradient116);stroke:none"
               d="m 42,64 4,0 0,20 -4,0 0,-20 z" /></g></g></g></g><g
       id="g124"><g
         clip-path="url(#clipPath128)"
         id="g126"><g
           id="g132"><g
             id="g134"><path
               id="path142"
               style="fill:url(#linearGradient136);stroke:none"
               d="m 50,64 4,0 0,20 -4,0 0,-20 z" /></g></g></g></g><g
       id="g144"><g
         clip-path="url(#clipPath148)"
         id="g146"><g
           id="g152"><g
             id="g154"><path
               id="path162"
               style="fill:url(#linearGradient156);stroke:none"
               d="m 58,64 4.001,0 0,20 L 58,84 58,64 Z" /></g></g></g></g><g
       id="g164"><g
         clip-path="url(#clipPath168)"
         id="g166"><g
           id="g172"><g
             id="g174"><path
               id="path182"
               style="fill:url(#linearGradient176);stroke:none"
               d="m 66,64 4.001,0 0,20 L 66,84 66,64 Z" /></g></g></g></g><g
       id="g184"><g
         clip-path="url(#clipPath188)"
         id="g186"><g
           id="g192"><g
             id="g194"><path
               id="path202"
               style="fill:url(#linearGradient196);stroke:none"
               d="m 74,64 4.001,0 0,20 L 74,84 74,64 Z" /></g></g></g></g><g
       id="g204"><g
         clip-path="url(#clipPath208)"
         id="g206"><g
           id="g212"><g
             id="g214"><path
               id="path222"
               style="fill:url(#linearGradient216);stroke:none"
               d="m 82,64 4.001,0 0,20 L 82,84 82,64 Z" /></g></g></g></g><g
       id="g224"><g
         clip-path="url(#clipPath228)"
         id="g226"><g
           id="g232"><g
             id="g234"><path
               id="path242"
               style="fill:url(#linearGradient236);stroke:none"
               d="m 90,64 4,0 0,20 -4,0 0,-20 z" /></g></g></g></g><g
       id="g244"><g
         clip-path="url(#clipPath248)"
         id="g246"><g
           id="g252"><g
             id="g254"><path
               id="path262"
               style="fill:url(#linearGradient256);stroke:none"
               d="m 98,64 4,0 0,20 -4,0 0,-20 z" /></g></g></g></g><g
       id="g264"><g
         clip-path="url(#clipPath268)"
         id="g266"><g
           id="g272"><g
             id="g274"><path
               id="path282"
               style="fill:url(#linearGradient276);stroke:none"
               d="m 106,64 4,0 0,20 -4,0 0,-20 z" /></g></g></g></g><g
       id="g284"><g
         clip-path="url(#clipPath288)"
         id="g286"><g
           id="g292"><g
             id="g294"><path
               id="path302"
               style="fill:url(#linearGradient296);stroke:none"
               d="m 114,64 4,0 0,20 -4,0 0,-20 z" /></g></g></g></g><g
       id="g304"><g
         clip-path="url(#clipPath308)"
         id="g306"><g
           id="g312"><g
             id="g314"><path
               id="path322"
               style="fill:url(#linearGradient316);stroke:none"
               d="m 122,60 4,0 0,23.999 -4,0 L 122,60 Z" /></g></g></g></g><g
       id="g324"><g
         clip-path="url(#clipPath328)"
         id="g326"><g
           id="g332"><g
             id="g334"><path
               id="path342"
               style="fill:url(#linearGradient336);stroke:none"
               d="m 130,60 4.001,0 0,23.999 -4.001,0 L 130,60 Z" /></g></g></g></g><g
       id="g344"><g
         clip-path="url(#clipPath348)"
         id="g346"><g
           id="g352"><g
             id="g354"><path
               id="path362"
               style="fill:url(#linearGradient356);stroke:none"
               d="m 138,64 4.001,0 0,20 -4.001,0 0,-20 z" /></g></g></g></g><g
       id="g364"><g
         clip-path="url(#clipPath368)"
         id="g366"><g
           id="g372"><g
             id="g374"><path
               id="path382"
               style="fill:url(#linearGradient376);stroke:none"
               d="m 146,64 4,0 0,20 -4,0 0,-20 z" /></g></g></g></g><g
       id="g384"><g
         clip-path="url(#clipPath388)"
         id="g386"><g
           id="g392"><g
             id="g394"><path
               id="path402"
               style="fill:url(#linearGradient396);stroke:none"
               d="m 154,64 4.001,0 0,20 -4.001,0 0,-20 z" /></g></g></g></g><g
       id="g404"><g
         clip-path="url(#clipPath408)"
         id="g406"><g
           id="g412"><g
             id="g414"><path
               id="path422"
               style="fill:url(#linearGradient416);stroke:none"
               d="m 162,64 4,0 0,20 -4,0 0,-20 z" /></g></g></g></g><g
       id="g424"><g
         clip-path="url(#clipPath428)"
         id="g426"><g
           id="g432"><g
             id="g434"><path
               id="path442"
               style="fill:url(#linearGradient436);stroke:none"
               d="m 170,64 4,0 0,20 -4,0 0,-20 z" /></g></g></g></g><g
       id="g444"><g
         clip-path="url(#clipPath448)"
         id="g446"><g
           id="g452"><g
             id="g454"><path
               id="path462"
               style="fill:url(#linearGradient456);stroke:none"
               d="m 178,64 4,0 0,20 -4,0 0,-20 z" /></g></g></g></g><g
       id="g464"><g
         clip-path="url(#clipPath468)"
         id="g466"><g
           id="g472"><g
             id="g474"><path
               id="path482"
               style="fill:url(#linearGradient476);stroke:none"
               d="m 186,64 4,0 0,20 -4,0 0,-20 z" /></g></g></g></g><g
       id="g484"><g
         clip-path="url(#clipPath488)"
         id="g486"><g
           id="g492"><g
             id="g494"><path
               id="path502"
               style="fill:url(#linearGradient496);stroke:none"
               d="m 194,64 4,0 0,20 -4,0 0,-20 z" /></g></g></g></g><g
       id="g504"><g
         clip-path="url(#clipPath508)"
         id="g506"><g
           id="g512"><g
             id="g514"><path
               id="path522"
               style="fill:url(#linearGradient516);stroke:none"
               d="m 202,64 4,0 0,20 -4,0 0,-20 z" /></g></g></g></g><g
       id="g524"><g
         clip-path="url(#clipPath528)"
         id="g526"><g
           id="g532"><g
             id="g534"><path
               id="path542"
               style="fill:url(#linearGradient536);stroke:none"
               d="m 210,64 4.001,0 0,20 -4.001,0 0,-20 z" /></g></g></g></g><g
       id="g544"><g
         clip-path="url(#clipPath548)"
         id="g546"><g
           id="g552"><g
             id="g554"><path
               id="path562"
               style="fill:url(#linearGradient556);stroke:none"
               d="m 218,64 4.001,0 0,20 -4.001,0 0,-20 z" /></g></g></g></g><g
       id="g564"><g
         clip-path="url(#clipPath568)"
         id="g566"><g
           id="g572"><g
             id="g574"><path
               id="path582"
               style="fill:url(#linearGradient576);stroke:none"
               d="m 226,60 4.001,0 0,23.999 -4.001,0 L 226,60 Z" /></g></g></g></g><g
       id="g584"><g
         clip-path="url(#clipPath588)"
         id="g586"><g
           id="g592"><g
             id="g594" /><g
             id="g600"><g
               style="opacity:0.5"
               id="g602"
               clip-path="url(#clipPath596)"><g
                 id="g604"
                 transform="translate(29.3103,180)"><path
                   id="path606"
                   style="fill:#999999;fill-opacity:1;fill-rule:nonzero;stroke:none"
                   d="m 0,0 197.379,0 c 5.142,0 9.311,-4.274 9.311,-9.545 l 0,-64.91 c 0,-5.271 -4.169,-9.545 -9.311,-9.545 L 0,-84 c -5.142,0 -9.31,4.274 -9.31,9.545 l 0,64.91 C -9.31,-4.274 -5.142,0 0,0" /></g></g></g></g><g
           transform="translate(32.9632,176)"
           id="g608"><path
             id="path610"
             style="fill:#ffffff;fill-opacity:1;fill-rule:nonzero;stroke:none"
             d="m 0,0 190.074,0 c 4.951,0 8.965,-3.867 8.965,-8.636 l 0,-58.728 c 0,-4.769 -4.014,-8.636 -8.965,-8.636 L 0,-76 c -4.952,0 -8.966,3.867 -8.966,8.636 l 0,58.728 C -8.966,-3.867 -4.952,0 0,0" /></g></g></g><g
       id="g612"><g
         clip-path="url(#clipPath616)"
         id="g614"><g
           id="g620"><g
             id="g622"><path
               id="path630"
               style="fill:url(#linearGradient624);stroke:none"
               d="M 85.539,192 C 82.48,192 80,189.52 80,186.461 l 0,0 c 0,-3.058 2.48,-5.538 5.539,-5.538 l 0,0 84.923,0 c 3.058,0 5.538,2.48 5.538,5.538 l 0,0 c 0,3.059 -2.48,5.539 -5.538,5.539 l 0,0 -84.923,0 z" /></g></g></g></g><g
       id="g632"><g
         clip-path="url(#clipPath636)"
         id="g634"><g
           id="g640"><g
             id="g642"><path
               id="path650"
               style="fill:url(#linearGradient644);stroke:none"
               d="M 209.371,124 C 208.614,124 208,123.386 208,122.629 l 0,0 0,-17.258 c 0,-0.757 0.614,-1.371 1.371,-1.371 l 0,0 17.258,0 c 0.757,0 1.371,0.614 1.371,1.371 l 0,0 0,17.258 c 0,0.757 -0.614,1.371 -1.371,1.371 l 0,0 -17.258,0 z" /></g></g></g></g><g
       id="g652"><g
         clip-path="url(#clipPath656)"
         id="g654"><g
           transform="translate(43.7218,166.9571)"
           id="g660"><path
             id="path662"
             style="fill:#d9d9dd;fill-opacity:1;fill-rule:nonzero;stroke:none"
             d="M 0,0 C -0.377,0.173 -0.818,0.187 -1.233,0.249 -1.335,0.264 -1.446,0.208 -1.554,0.173 -1.578,0.165 -1.595,0.142 -1.597,0.115 -1.599,0.082 -1.578,0.053 -1.548,0.046 c 0.918,-0.208 1.48,-0.866 1.858,-1.744 0.32,-0.744 0.379,-1.531 0.001,-2.355 -0.142,-0.309 -0.43,-0.494 -0.743,-0.504 -0.543,1.099 -1.386,2.025 -2.387,2.484 -0.004,0.002 -0.009,0.003 -0.014,0.005 -0.058,0.326 -0.066,0.661 0.009,1.005 0.009,0.045 0.01,0.093 0.008,0.14 0,0.021 -0.017,0.041 -0.06,0.133 -0.084,-0.126 -0.166,-0.218 -0.214,-0.326 -0.116,-0.267 -0.195,-0.536 -0.249,-0.808 -0.235,0.042 -0.478,0.065 -0.713,0.1 -0.102,0.015 -0.213,-0.041 -0.321,-0.076 -0.024,-0.008 -0.041,-0.031 -0.043,-0.058 -0.002,-0.033 0.019,-0.062 0.049,-0.069 0.375,-0.085 0.689,-0.249 0.957,-0.469 -0.025,-0.491 0.034,-0.988 0.154,-1.484 0.179,-0.738 0.446,-1.409 0.805,-2.002 -0.019,-0.048 -0.035,-0.096 -0.057,-0.144 -0.155,-0.338 -0.482,-0.538 -0.828,-0.511 -1.121,0.087 -1.709,0.846 -2.105,1.779 -0.23,0.542 -0.332,1.12 -0.202,1.722 0.009,0.045 0.01,0.093 0.008,0.14 0,0.021 -0.017,0.041 -0.06,0.133 -0.084,-0.126 -0.166,-0.218 -0.214,-0.326 -0.407,-0.93 -0.4,-1.897 -0.166,-2.864 0.423,-1.744 1.303,-3.146 2.854,-3.909 1.376,-0.677 3.006,0.154 3.342,1.752 0.009,0.044 0.013,0.089 0.021,0.133 1.232,-0.26 2.505,0.55 2.798,1.94 C 3.431,-3.808 2.04,-0.935 0,0" /></g></g></g><g
       id="g664"><g
         clip-path="url(#clipPath668)"
         id="g666"><g
           id="g672"><g
             id="g674"><path
               id="path682"
               style="fill:url(#linearGradient676);stroke:none"
               d="m 36.856,167.144 c -4.735,-4.734 -6.27,-10.877 -3.43,-13.717 l 0,0 c 2.841,-2.842 8.983,-1.306 13.718,3.429 l 0,0 c 4.736,4.734 6.271,10.877 3.43,13.717 l 0,0 C 49.607,171.54 48.259,172 46.714,172 l 0,0 c -2.997,0 -6.734,-1.732 -9.858,-4.856" /></g></g></g></g></g></svg>