<?xml version="1.0" encoding="UTF-8" standalone="no"?>
<svg
   xmlns:dc="http://purl.org/dc/elements/1.1/"
   xmlns:cc="http://creativecommons.org/ns#"
   xmlns:rdf="http://www.w3.org/1999/02/22-rdf-syntax-ns#"
   xmlns:svg="http://www.w3.org/2000/svg"
   xmlns="http://www.w3.org/2000/svg"
   viewBox="0 0 320 320"
   height="320"
   width="320"
   xml:space="preserve"
   version="1.1"
   id="svg2"><metadata
     id="metadata8"><rdf:RDF><cc:Work
         rdf:about=""><dc:format>image/svg+xml</dc:format><dc:type
           rdf:resource="http://purl.org/dc/dcmitype/StillImage" /></cc:Work></rdf:RDF></metadata><defs
     id="defs6"><clipPath
       id="clipPath16"
       clipPathUnits="userSpaceOnUse"><path
         id="path18"
         d="M 15.742,196 C 13.676,196 12,194.333 12,192.276 l 0,0 0,-100.552 C 12,89.667 13.676,88 15.742,88 l 0,0 224.516,0 c 2.067,0 3.742,1.667 3.742,3.724 l 0,0 0,100.552 c 0,2.057 -1.675,3.724 -3.742,3.724 l 0,0 -224.516,0 z" /></clipPath><linearGradient
       id="linearGradient24"
       spreadMethod="pad"
       gradientTransform="matrix(167.81325,-167.81325,-167.81325,-167.81325,44.093372,225.90663)"
       gradientUnits="userSpaceOnUse"
       y2="0"
       x2="1"
       y1="0"
       x1="0"><stop
         id="stop26"
         offset="0"
         style="stop-opacity:1;stop-color:#e6e7e8" /><stop
         id="stop28"
         offset="1"
         style="stop-opacity:1;stop-color:#d1d3d4" /></linearGradient><clipPath
       id="clipPath36"
       clipPathUnits="userSpaceOnUse"><path
         id="path38"
         d="M 0,256 256,256 256,0 0,0 0,256 Z" /></clipPath><clipPath
       id="clipPath52"
       clipPathUnits="userSpaceOnUse"><path
         id="path54"
         d="M 85.539,192 C 82.48,192 80,189.52 80,186.461 l 0,0 c 0,-3.058 2.48,-5.538 5.539,-5.538 l 0,0 84.923,0 c 3.058,0 5.538,2.48 5.538,5.538 l 0,0 c 0,3.059 -2.48,5.539 -5.538,5.539 l 0,0 -84.923,0 z" /></clipPath><linearGradient
       id="linearGradient60"
       spreadMethod="pad"
       gradientTransform="matrix(-50.294102,50.294102,50.294102,50.294102,153.14705,161.31448)"
       gradientUnits="userSpaceOnUse"
       y2="0"
       x2="1"
       y1="0"
       x1="0"><stop
         id="stop62"
         offset="0"
         style="stop-opacity:1;stop-color:#e6e7e8" /><stop
         id="stop64"
         offset="1"
         style="stop-opacity:1;stop-color:#d1d3d4" /></linearGradient><clipPath
       id="clipPath72"
       clipPathUnits="userSpaceOnUse"><path
         id="path74"
         d="m 32,166 16,-28 16,28 -32,0 z" /></clipPath><linearGradient
       id="linearGradient80"
       spreadMethod="pad"
       gradientTransform="matrix(22,-22,-22,-22,37,171)"
       gradientUnits="userSpaceOnUse"
       y2="0"
       x2="1"
       y1="0"
       x1="0"><stop
         id="stop82"
         offset="0"
         style="stop-opacity:1;stop-color:#e6e7e8" /><stop
         id="stop84"
         offset="1"
         style="stop-opacity:1;stop-color:#d1d3d4" /></linearGradient><clipPath
       id="clipPath92"
       clipPathUnits="userSpaceOnUse"><path
         id="path94"
         d="M 209.371,124 C 208.614,124 208,123.386 208,122.629 l 0,0 0,-17.258 c 0,-0.757 0.614,-1.371 1.371,-1.371 l 0,0 17.258,0 c 0.757,0 1.371,0.614 1.371,1.371 l 0,0 0,17.258 c 0,0.757 -0.614,1.371 -1.371,1.371 l 0,0 -17.258,0 z" /></clipPath><linearGradient
       id="linearGradient100"
       spreadMethod="pad"
       gradientTransform="matrix(19.196634,-19.196634,-19.196634,-19.196634,208.40169,123.59832)"
       gradientUnits="userSpaceOnUse"
       y2="0"
       x2="1"
       y1="0"
       x1="0"><stop
         id="stop102"
         offset="0"
         style="stop-opacity:1;stop-color:#e6e7e8" /><stop
         id="stop104"
         offset="1"
         style="stop-opacity:1;stop-color:#d1d3d4" /></linearGradient><clipPath
       id="clipPath112"
       clipPathUnits="userSpaceOnUse"><path
         id="path114"
         d="M 17.738,96 C 15.674,96 14,94.992 14,93.75 l 0,0 0,-13.5 C 14,79.007 15.674,78 17.738,78 l 0,0 0.262,0 0,-8.723 c -2.398,-0.716 -4.129,-2.121 -4.129,-4.89 l 0,0 c 0,-5.182 4.172,-9.355 9.354,-9.355 l 0,0 209.549,0 c 5.182,0 9.355,4.173 9.355,9.355 l 0,0 c 0,2.769 -1.732,4.174 -4.129,4.89 l 0,0 0,8.723 0.262,0 c 2.065,0 3.738,1.007 3.738,2.25 l 0,0 0,13.5 c 0,1.242 -1.673,2.25 -3.738,2.25 l 0,0 -220.524,0 z" /></clipPath><linearGradient
       id="linearGradient120"
       spreadMethod="pad"
       gradientTransform="matrix(131.00224,-131.00224,-131.00224,-131.00224,62.498875,142.87453)"
       gradientUnits="userSpaceOnUse"
       y2="0"
       x2="1"
       y1="0"
       x1="0"><stop
         id="stop122"
         offset="0"
         style="stop-opacity:1;stop-color:#e6e7e8" /><stop
         id="stop124"
         offset="1"
         style="stop-opacity:1;stop-color:#d1d3d4" /></linearGradient><clipPath
       id="clipPath132"
       clipPathUnits="userSpaceOnUse"><path
         id="path134"
         d="M 0,256 256,256 256,0 0,0 0,256 Z" /></clipPath><clipPath
       id="clipPath144"
       clipPathUnits="userSpaceOnUse"><path
         id="path146"
         d="m 26,60 4,0 0,23.999 -4,0 L 26,60 Z" /></clipPath><linearGradient
       id="linearGradient152"
       spreadMethod="pad"
       gradientTransform="matrix(14,-14,-14,-14,21,79)"
       gradientUnits="userSpaceOnUse"
       y2="0"
       x2="1"
       y1="0"
       x1="0"><stop
         id="stop154"
         offset="0"
         style="stop-opacity:1;stop-color:#e6e7e8" /><stop
         id="stop156"
         offset="1"
         style="stop-opacity:1;stop-color:#d1d3d4" /></linearGradient><clipPath
       id="clipPath164"
       clipPathUnits="userSpaceOnUse"><path
         id="path166"
         d="m 34,64 4,0 0,20 -4,0 0,-20 z" /></clipPath><linearGradient
       id="linearGradient172"
       spreadMethod="pad"
       gradientTransform="matrix(11.999999,-11.999999,-11.999999,-11.999999,30,80)"
       gradientUnits="userSpaceOnUse"
       y2="0"
       x2="1"
       y1="0"
       x1="0"><stop
         id="stop174"
         offset="0"
         style="stop-opacity:1;stop-color:#e6e7e8" /><stop
         id="stop176"
         offset="1"
         style="stop-opacity:1;stop-color:#d1d3d4" /></linearGradient><clipPath
       id="clipPath184"
       clipPathUnits="userSpaceOnUse"><path
         id="path186"
         d="m 42,64 4,0 0,20 -4,0 0,-20 z" /></clipPath><linearGradient
       id="linearGradient192"
       spreadMethod="pad"
       gradientTransform="matrix(11.999999,-11.999999,-11.999999,-11.999999,38,80)"
       gradientUnits="userSpaceOnUse"
       y2="0"
       x2="1"
       y1="0"
       x1="0"><stop
         id="stop194"
         offset="0"
         style="stop-opacity:1;stop-color:#e6e7e8" /><stop
         id="stop196"
         offset="1"
         style="stop-opacity:1;stop-color:#d1d3d4" /></linearGradient><clipPath
       id="clipPath204"
       clipPathUnits="userSpaceOnUse"><path
         id="path206"
         d="m 50,64 4,0 0,20 -4,0 0,-20 z" /></clipPath><linearGradient
       id="linearGradient212"
       spreadMethod="pad"
       gradientTransform="matrix(11.999999,-11.999999,-11.999999,-11.999999,46,80)"
       gradientUnits="userSpaceOnUse"
       y2="0"
       x2="1"
       y1="0"
       x1="0"><stop
         id="stop214"
         offset="0"
         style="stop-opacity:1;stop-color:#e6e7e8" /><stop
         id="stop216"
         offset="1"
         style="stop-opacity:1;stop-color:#d1d3d4" /></linearGradient><clipPath
       id="clipPath224"
       clipPathUnits="userSpaceOnUse"><path
         id="path226"
         d="m 58,64 4.001,0 0,20 L 58,84 58,64 Z" /></clipPath><linearGradient
       id="linearGradient232"
       spreadMethod="pad"
       gradientTransform="matrix(11.999999,-11.999999,-11.999999,-11.999999,54,80)"
       gradientUnits="userSpaceOnUse"
       y2="0"
       x2="1"
       y1="0"
       x1="0"><stop
         id="stop234"
         offset="0"
         style="stop-opacity:1;stop-color:#e6e7e8" /><stop
         id="stop236"
         offset="1"
         style="stop-opacity:1;stop-color:#d1d3d4" /></linearGradient><clipPath
       id="clipPath244"
       clipPathUnits="userSpaceOnUse"><path
         id="path246"
         d="m 66,64 4.001,0 0,20 L 66,84 66,64 Z" /></clipPath><linearGradient
       id="linearGradient252"
       spreadMethod="pad"
       gradientTransform="matrix(11.999999,-11.999999,-11.999999,-11.999999,62,80)"
       gradientUnits="userSpaceOnUse"
       y2="0"
       x2="1"
       y1="0"
       x1="0"><stop
         id="stop254"
         offset="0"
         style="stop-opacity:1;stop-color:#e6e7e8" /><stop
         id="stop256"
         offset="1"
         style="stop-opacity:1;stop-color:#d1d3d4" /></linearGradient><clipPath
       id="clipPath264"
       clipPathUnits="userSpaceOnUse"><path
         id="path266"
         d="m 74,64 4.001,0 0,20 L 74,84 74,64 Z" /></clipPath><linearGradient
       id="linearGradient272"
       spreadMethod="pad"
       gradientTransform="matrix(11.999999,-11.999999,-11.999999,-11.999999,70,80)"
       gradientUnits="userSpaceOnUse"
       y2="0"
       x2="1"
       y1="0"
       x1="0"><stop
         id="stop274"
         offset="0"
         style="stop-opacity:1;stop-color:#e6e7e8" /><stop
         id="stop276"
         offset="1"
         style="stop-opacity:1;stop-color:#d1d3d4" /></linearGradient><clipPath
       id="clipPath284"
       clipPathUnits="userSpaceOnUse"><path
         id="path286"
         d="m 82,64 4.001,0 0,20 L 82,84 82,64 Z" /></clipPath><linearGradient
       id="linearGradient292"
       spreadMethod="pad"
       gradientTransform="matrix(11.999999,-11.999999,-11.999999,-11.999999,78,80)"
       gradientUnits="userSpaceOnUse"
       y2="0"
       x2="1"
       y1="0"
       x1="0"><stop
         id="stop294"
         offset="0"
         style="stop-opacity:1;stop-color:#e6e7e8" /><stop
         id="stop296"
         offset="1"
         style="stop-opacity:1;stop-color:#d1d3d4" /></linearGradient><clipPath
       id="clipPath304"
       clipPathUnits="userSpaceOnUse"><path
         id="path306"
         d="m 90,64 4,0 0,20 -4,0 0,-20 z" /></clipPath><linearGradient
       id="linearGradient312"
       spreadMethod="pad"
       gradientTransform="matrix(11.999999,-11.999999,-11.999999,-11.999999,86,80)"
       gradientUnits="userSpaceOnUse"
       y2="0"
       x2="1"
       y1="0"
       x1="0"><stop
         id="stop314"
         offset="0"
         style="stop-opacity:1;stop-color:#e6e7e8" /><stop
         id="stop316"
         offset="1"
         style="stop-opacity:1;stop-color:#d1d3d4" /></linearGradient><clipPath
       id="clipPath324"
       clipPathUnits="userSpaceOnUse"><path
         id="path326"
         d="m 98,64 4,0 0,20 -4,0 0,-20 z" /></clipPath><linearGradient
       id="linearGradient332"
       spreadMethod="pad"
       gradientTransform="matrix(11.999999,-11.999999,-11.999999,-11.999999,94,80)"
       gradientUnits="userSpaceOnUse"
       y2="0"
       x2="1"
       y1="0"
       x1="0"><stop
         id="stop334"
         offset="0"
         style="stop-opacity:1;stop-color:#e6e7e8" /><stop
         id="stop336"
         offset="1"
         style="stop-opacity:1;stop-color:#d1d3d4" /></linearGradient><clipPath
       id="clipPath344"
       clipPathUnits="userSpaceOnUse"><path
         id="path346"
         d="m 106,64 4,0 0,20 -4,0 0,-20 z" /></clipPath><linearGradient
       id="linearGradient352"
       spreadMethod="pad"
       gradientTransform="matrix(11.999999,-11.999999,-11.999999,-11.999999,102,80)"
       gradientUnits="userSpaceOnUse"
       y2="0"
       x2="1"
       y1="0"
       x1="0"><stop
         id="stop354"
         offset="0"
         style="stop-opacity:1;stop-color:#e6e7e8" /><stop
         id="stop356"
         offset="1"
         style="stop-opacity:1;stop-color:#d1d3d4" /></linearGradient><clipPath
       id="clipPath364"
       clipPathUnits="userSpaceOnUse"><path
         id="path366"
         d="m 114,64 4,0 0,20 -4,0 0,-20 z" /></clipPath><linearGradient
       id="linearGradient372"
       spreadMethod="pad"
       gradientTransform="matrix(11.999999,-11.999999,-11.999999,-11.999999,110,80)"
       gradientUnits="userSpaceOnUse"
       y2="0"
       x2="1"
       y1="0"
       x1="0"><stop
         id="stop374"
         offset="0"
         style="stop-opacity:1;stop-color:#e6e7e8" /><stop
         id="stop376"
         offset="1"
         style="stop-opacity:1;stop-color:#d1d3d4" /></linearGradient><clipPath
       id="clipPath384"
       clipPathUnits="userSpaceOnUse"><path
         id="path386"
         d="m 122,60 4,0 0,23.999 -4,0 L 122,60 Z" /></clipPath><linearGradient
       id="linearGradient392"
       spreadMethod="pad"
       gradientTransform="matrix(14,-14,-14,-14,117,79)"
       gradientUnits="userSpaceOnUse"
       y2="0"
       x2="1"
       y1="0"
       x1="0"><stop
         id="stop394"
         offset="0"
         style="stop-opacity:1;stop-color:#e6e7e8" /><stop
         id="stop396"
         offset="1"
         style="stop-opacity:1;stop-color:#d1d3d4" /></linearGradient><clipPath
       id="clipPath404"
       clipPathUnits="userSpaceOnUse"><path
         id="path406"
         d="m 130,60 4.001,0 0,23.999 -4.001,0 L 130,60 Z" /></clipPath><linearGradient
       id="linearGradient412"
       spreadMethod="pad"
       gradientTransform="matrix(14,-14,-14,-14,125,79)"
       gradientUnits="userSpaceOnUse"
       y2="0"
       x2="1"
       y1="0"
       x1="0"><stop
         id="stop414"
         offset="0"
         style="stop-opacity:1;stop-color:#e6e7e8" /><stop
         id="stop416"
         offset="1"
         style="stop-opacity:1;stop-color:#d1d3d4" /></linearGradient><clipPath
       id="clipPath424"
       clipPathUnits="userSpaceOnUse"><path
         id="path426"
         d="m 138,64 4.001,0 0,20 -4.001,0 0,-20 z" /></clipPath><linearGradient
       id="linearGradient432"
       spreadMethod="pad"
       gradientTransform="matrix(11.999999,-11.999999,-11.999999,-11.999999,134,80)"
       gradientUnits="userSpaceOnUse"
       y2="0"
       x2="1"
       y1="0"
       x1="0"><stop
         id="stop434"
         offset="0"
         style="stop-opacity:1;stop-color:#e6e7e8" /><stop
         id="stop436"
         offset="1"
         style="stop-opacity:1;stop-color:#d1d3d4" /></linearGradient><clipPath
       id="clipPath444"
       clipPathUnits="userSpaceOnUse"><path
         id="path446"
         d="m 146,64 4,0 0,20 -4,0 0,-20 z" /></clipPath><linearGradient
       id="linearGradient452"
       spreadMethod="pad"
       gradientTransform="matrix(11.999999,-11.999999,-11.999999,-11.999999,142,80)"
       gradientUnits="userSpaceOnUse"
       y2="0"
       x2="1"
       y1="0"
       x1="0"><stop
         id="stop454"
         offset="0"
         style="stop-opacity:1;stop-color:#e6e7e8" /><stop
         id="stop456"
         offset="1"
         style="stop-opacity:1;stop-color:#d1d3d4" /></linearGradient><clipPath
       id="clipPath464"
       clipPathUnits="userSpaceOnUse"><path
         id="path466"
         d="m 154,64 4.001,0 0,20 -4.001,0 0,-20 z" /></clipPath><linearGradient
       id="linearGradient472"
       spreadMethod="pad"
       gradientTransform="matrix(11.999999,-11.999999,-11.999999,-11.999999,150,80)"
       gradientUnits="userSpaceOnUse"
       y2="0"
       x2="1"
       y1="0"
       x1="0"><stop
         id="stop474"
         offset="0"
         style="stop-opacity:1;stop-color:#e6e7e8" /><stop
         id="stop476"
         offset="1"
         style="stop-opacity:1;stop-color:#d1d3d4" /></linearGradient><clipPath
       id="clipPath484"
       clipPathUnits="userSpaceOnUse"><path
         id="path486"
         d="m 162,64 4,0 0,20 -4,0 0,-20 z" /></clipPath><linearGradient
       id="linearGradient492"
       spreadMethod="pad"
       gradientTransform="matrix(11.999999,-11.999999,-11.999999,-11.999999,158,80)"
       gradientUnits="userSpaceOnUse"
       y2="0"
       x2="1"
       y1="0"
       x1="0"><stop
         id="stop494"
         offset="0"
         style="stop-opacity:1;stop-color:#e6e7e8" /><stop
         id="stop496"
         offset="1"
         style="stop-opacity:1;stop-color:#d1d3d4" /></linearGradient><clipPath
       id="clipPath504"
       clipPathUnits="userSpaceOnUse"><path
         id="path506"
         d="m 170,64 4,0 0,20 -4,0 0,-20 z" /></clipPath><linearGradient
       id="linearGradient512"
       spreadMethod="pad"
       gradientTransform="matrix(11.999999,-11.999999,-11.999999,-11.999999,166,80)"
       gradientUnits="userSpaceOnUse"
       y2="0"
       x2="1"
       y1="0"
       x1="0"><stop
         id="stop514"
         offset="0"
         style="stop-opacity:1;stop-color:#e6e7e8" /><stop
         id="stop516"
         offset="1"
         style="stop-opacity:1;stop-color:#d1d3d4" /></linearGradient><clipPath
       id="clipPath524"
       clipPathUnits="userSpaceOnUse"><path
         id="path526"
         d="m 178,64 4,0 0,20 -4,0 0,-20 z" /></clipPath><linearGradient
       id="linearGradient532"
       spreadMethod="pad"
       gradientTransform="matrix(11.999999,-11.999999,-11.999999,-11.999999,174,80)"
       gradientUnits="userSpaceOnUse"
       y2="0"
       x2="1"
       y1="0"
       x1="0"><stop
         id="stop534"
         offset="0"
         style="stop-opacity:1;stop-color:#e6e7e8" /><stop
         id="stop536"
         offset="1"
         style="stop-opacity:1;stop-color:#d1d3d4" /></linearGradient><clipPath
       id="clipPath544"
       clipPathUnits="userSpaceOnUse"><path
         id="path546"
         d="m 186,64 4,0 0,20 -4,0 0,-20 z" /></clipPath><linearGradient
       id="linearGradient552"
       spreadMethod="pad"
       gradientTransform="matrix(11.999999,-11.999999,-11.999999,-11.999999,182,80)"
       gradientUnits="userSpaceOnUse"
       y2="0"
       x2="1"
       y1="0"
       x1="0"><stop
         id="stop554"
         offset="0"
         style="stop-opacity:1;stop-color:#e6e7e8" /><stop
         id="stop556"
         offset="1"
         style="stop-opacity:1;stop-color:#d1d3d4" /></linearGradient><clipPath
       id="clipPath564"
       clipPathUnits="userSpaceOnUse"><path
         id="path566"
         d="m 194,64 4,0 0,20 -4,0 0,-20 z" /></clipPath><linearGradient
       id="linearGradient572"
       spreadMethod="pad"
       gradientTransform="matrix(11.999999,-11.999999,-11.999999,-11.999999,190,80)"
       gradientUnits="userSpaceOnUse"
       y2="0"
       x2="1"
       y1="0"
       x1="0"><stop
         id="stop574"
         offset="0"
         style="stop-opacity:1;stop-color:#e6e7e8" /><stop
         id="stop576"
         offset="1"
         style="stop-opacity:1;stop-color:#d1d3d4" /></linearGradient><clipPath
       id="clipPath584"
       clipPathUnits="userSpaceOnUse"><path
         id="path586"
         d="m 202,64 4,0 0,20 -4,0 0,-20 z" /></clipPath><linearGradient
       id="linearGradient592"
       spreadMethod="pad"
       gradientTransform="matrix(11.999999,-11.999999,-11.999999,-11.999999,198,80)"
       gradientUnits="userSpaceOnUse"
       y2="0"
       x2="1"
       y1="0"
       x1="0"><stop
         id="stop594"
         offset="0"
         style="stop-opacity:1;stop-color:#e6e7e8" /><stop
         id="stop596"
         offset="1"
         style="stop-opacity:1;stop-color:#d1d3d4" /></linearGradient><clipPath
       id="clipPath604"
       clipPathUnits="userSpaceOnUse"><path
         id="path606"
         d="m 210,64 4.001,0 0,20 -4.001,0 0,-20 z" /></clipPath><linearGradient
       id="linearGradient612"
       spreadMethod="pad"
       gradientTransform="matrix(11.999999,-11.999999,-11.999999,-11.999999,206,80)"
       gradientUnits="userSpaceOnUse"
       y2="0"
       x2="1"
       y1="0"
       x1="0"><stop
         id="stop614"
         offset="0"
         style="stop-opacity:1;stop-color:#e6e7e8" /><stop
         id="stop616"
         offset="1"
         style="stop-opacity:1;stop-color:#d1d3d4" /></linearGradient><clipPath
       id="clipPath624"
       clipPathUnits="userSpaceOnUse"><path
         id="path626"
         d="m 218,64 4.001,0 0,20 -4.001,0 0,-20 z" /></clipPath><linearGradient
       id="linearGradient632"
       spreadMethod="pad"
       gradientTransform="matrix(11.999999,-11.999999,-11.999999,-11.999999,214,80)"
       gradientUnits="userSpaceOnUse"
       y2="0"
       x2="1"
       y1="0"
       x1="0"><stop
         id="stop634"
         offset="0"
         style="stop-opacity:1;stop-color:#e6e7e8" /><stop
         id="stop636"
         offset="1"
         style="stop-opacity:1;stop-color:#d1d3d4" /></linearGradient><clipPath
       id="clipPath644"
       clipPathUnits="userSpaceOnUse"><path
         id="path646"
         d="m 226,60 4.001,0 0,23.999 -4.001,0 L 226,60 Z" /></clipPath><linearGradient
       id="linearGradient652"
       spreadMethod="pad"
       gradientTransform="matrix(14,-14,-14,-14,221,79)"
       gradientUnits="userSpaceOnUse"
       y2="0"
       x2="1"
       y1="0"
       x1="0"><stop
         id="stop654"
         offset="0"
         style="stop-opacity:1;stop-color:#e6e7e8" /><stop
         id="stop656"
         offset="1"
         style="stop-opacity:1;stop-color:#d1d3d4" /></linearGradient></defs><g
     transform="matrix(1.25,0,0,-1.25,0,320)"
     id="g10"><g
       id="g12"><g
         clip-path="url(#clipPath16)"
         id="g14"><g
           id="g20"><g
             id="g22"><path
               id="path30"
               style="fill:url(#linearGradient24);stroke:none"
               d="M 15.742,196 C 13.676,196 12,194.333 12,192.276 l 0,0 0,-100.552 C 12,89.667 13.676,88 15.742,88 l 0,0 224.516,0 c 2.067,0 3.742,1.667 3.742,3.724 l 0,0 0,100.552 c 0,2.057 -1.675,3.724 -3.742,3.724 l 0,0 -224.516,0 z" /></g></g></g></g><g
       id="g32"><g
         clip-path="url(#clipPath36)"
         id="g34"><g
           transform="translate(29.3103,180)"
           id="g40"><path
             id="path42"
             style="fill:#999999;fill-opacity:1;fill-rule:nonzero;stroke:none"
             d="m 0,0 197.379,0 c 5.142,0 9.311,-4.274 9.311,-9.545 l 0,-64.91 c 0,-5.271 -4.169,-9.545 -9.311,-9.545 L 0,-84 c -5.142,0 -9.31,4.274 -9.31,9.545 l 0,64.91 C -9.31,-4.274 -5.142,0 0,0" /></g><g
           transform="translate(32.9632,176)"
           id="g44"><path
             id="path46"
             style="fill:#ffffff;fill-opacity:1;fill-rule:nonzero;stroke:none"
             d="m 0,0 190.074,0 c 4.951,0 8.965,-3.867 8.965,-8.636 l 0,-58.728 c 0,-4.769 -4.014,-8.636 -8.965,-8.636 L 0,-76 c -4.952,0 -8.966,3.867 -8.966,8.636 l 0,58.728 C -8.966,-3.867 -4.952,0 0,0" /></g></g></g><g
       id="g48"><g
         clip-path="url(#clipPath52)"
         id="g50"><g
           id="g56"><g
             id="g58"><path
               id="path66"
               style="fill:url(#linearGradient60);stroke:none"
               d="M 85.539,192 C 82.48,192 80,189.52 80,186.461 l 0,0 c 0,-3.058 2.48,-5.538 5.539,-5.538 l 0,0 84.923,0 c 3.058,0 5.538,2.48 5.538,5.538 l 0,0 c 0,3.059 -2.48,5.539 -5.538,5.539 l 0,0 -84.923,0 z" /></g></g></g></g><g
       id="g68"><g
         clip-path="url(#clipPath72)"
         id="g70"><g
           id="g76"><g
             id="g78"><path
               id="path86"
               style="fill:url(#linearGradient80);stroke:none"
               d="m 32,166 16,-28 16,28 -32,0 z" /></g></g></g></g><g
       id="g88"><g
         clip-path="url(#clipPath92)"
         id="g90"><g
           id="g96"><g
             id="g98"><path
               id="path106"
               style="fill:url(#linearGradient100);stroke:none"
               d="M 209.371,124 C 208.614,124 208,123.386 208,122.629 l 0,0 0,-17.258 c 0,-0.757 0.614,-1.371 1.371,-1.371 l 0,0 17.258,0 c 0.757,0 1.371,0.614 1.371,1.371 l 0,0 0,17.258 c 0,0.757 -0.614,1.371 -1.371,1.371 l 0,0 -17.258,0 z" /></g></g></g></g><g
       id="g108"><g
         clip-path="url(#clipPath112)"
         id="g110"><g
           id="g116"><g
             id="g118"><path
               id="path126"
               style="fill:url(#linearGradient120);stroke:none"
               d="M 17.738,96 C 15.674,96 14,94.992 14,93.75 l 0,0 0,-13.5 C 14,79.007 15.674,78 17.738,78 l 0,0 0.262,0 0,-8.723 c -2.398,-0.716 -4.129,-2.121 -4.129,-4.89 l 0,0 c 0,-5.182 4.172,-9.355 9.354,-9.355 l 0,0 209.549,0 c 5.182,0 9.355,4.173 9.355,9.355 l 0,0 c 0,2.769 -1.732,4.174 -4.129,4.89 l 0,0 0,8.723 0.262,0 c 2.065,0 3.738,1.007 3.738,2.25 l 0,0 0,13.5 c 0,1.242 -1.673,2.25 -3.738,2.25 l 0,0 -220.524,0 z" /></g></g></g></g><g
       id="g128"><g
         clip-path="url(#clipPath132)"
         id="g130"><path
           id="path136"
           style="fill:#999999;fill-opacity:1;fill-rule:nonzero;stroke:none"
           d="m 22,88 212,0 0,-28 -212,0 0,28 z" /><path
           id="path138"
           style="fill:#ecf0f1;fill-opacity:1;fill-rule:nonzero;stroke:none"
           d="m 20,92 216,0 0,-8 -216,0 0,8 z" /></g></g><g
       id="g140"><g
         clip-path="url(#clipPath144)"
         id="g142"><g
           id="g148"><g
             id="g150"><path
               id="path158"
               style="fill:url(#linearGradient152);stroke:none"
               d="m 26,60 4,0 0,23.999 -4,0 L 26,60 Z" /></g></g></g></g><g
       id="g160"><g
         clip-path="url(#clipPath164)"
         id="g162"><g
           id="g168"><g
             id="g170"><path
               id="path178"
               style="fill:url(#linearGradient172);stroke:none"
               d="m 34,64 4,0 0,20 -4,0 0,-20 z" /></g></g></g></g><g
       id="g180"><g
         clip-path="url(#clipPath184)"
         id="g182"><g
           id="g188"><g
             id="g190"><path
               id="path198"
               style="fill:url(#linearGradient192);stroke:none"
               d="m 42,64 4,0 0,20 -4,0 0,-20 z" /></g></g></g></g><g
       id="g200"><g
         clip-path="url(#clipPath204)"
         id="g202"><g
           id="g208"><g
             id="g210"><path
               id="path218"
               style="fill:url(#linearGradient212);stroke:none"
               d="m 50,64 4,0 0,20 -4,0 0,-20 z" /></g></g></g></g><g
       id="g220"><g
         clip-path="url(#clipPath224)"
         id="g222"><g
           id="g228"><g
             id="g230"><path
               id="path238"
               style="fill:url(#linearGradient232);stroke:none"
               d="m 58,64 4.001,0 0,20 L 58,84 58,64 Z" /></g></g></g></g><g
       id="g240"><g
         clip-path="url(#clipPath244)"
         id="g242"><g
           id="g248"><g
             id="g250"><path
               id="path258"
               style="fill:url(#linearGradient252);stroke:none"
               d="m 66,64 4.001,0 0,20 L 66,84 66,64 Z" /></g></g></g></g><g
       id="g260"><g
         clip-path="url(#clipPath264)"
         id="g262"><g
           id="g268"><g
             id="g270"><path
               id="path278"
               style="fill:url(#linearGradient272);stroke:none"
               d="m 74,64 4.001,0 0,20 L 74,84 74,64 Z" /></g></g></g></g><g
       id="g280"><g
         clip-path="url(#clipPath284)"
         id="g282"><g
           id="g288"><g
             id="g290"><path
               id="path298"
               style="fill:url(#linearGradient292);stroke:none"
               d="m 82,64 4.001,0 0,20 L 82,84 82,64 Z" /></g></g></g></g><g
       id="g300"><g
         clip-path="url(#clipPath304)"
         id="g302"><g
           id="g308"><g
             id="g310"><path
               id="path318"
               style="fill:url(#linearGradient312);stroke:none"
               d="m 90,64 4,0 0,20 -4,0 0,-20 z" /></g></g></g></g><g
       id="g320"><g
         clip-path="url(#clipPath324)"
         id="g322"><g
           id="g328"><g
             id="g330"><path
               id="path338"
               style="fill:url(#linearGradient332);stroke:none"
               d="m 98,64 4,0 0,20 -4,0 0,-20 z" /></g></g></g></g><g
       id="g340"><g
         clip-path="url(#clipPath344)"
         id="g342"><g
           id="g348"><g
             id="g350"><path
               id="path358"
               style="fill:url(#linearGradient352);stroke:none"
               d="m 106,64 4,0 0,20 -4,0 0,-20 z" /></g></g></g></g><g
       id="g360"><g
         clip-path="url(#clipPath364)"
         id="g362"><g
           id="g368"><g
             id="g370"><path
               id="path378"
               style="fill:url(#linearGradient372);stroke:none"
               d="m 114,64 4,0 0,20 -4,0 0,-20 z" /></g></g></g></g><g
       id="g380"><g
         clip-path="url(#clipPath384)"
         id="g382"><g
           id="g388"><g
             id="g390"><path
               id="path398"
               style="fill:url(#linearGradient392);stroke:none"
               d="m 122,60 4,0 0,23.999 -4,0 L 122,60 Z" /></g></g></g></g><g
       id="g400"><g
         clip-path="url(#clipPath404)"
         id="g402"><g
           id="g408"><g
             id="g410"><path
               id="path418"
               style="fill:url(#linearGradient412);stroke:none"
               d="m 130,60 4.001,0 0,23.999 -4.001,0 L 130,60 Z" /></g></g></g></g><g
       id="g420"><g
         clip-path="url(#clipPath424)"
         id="g422"><g
           id="g428"><g
             id="g430"><path
               id="path438"
               style="fill:url(#linearGradient432);stroke:none"
               d="m 138,64 4.001,0 0,20 -4.001,0 0,-20 z" /></g></g></g></g><g
       id="g440"><g
         clip-path="url(#clipPath444)"
         id="g442"><g
           id="g448"><g
             id="g450"><path
               id="path458"
               style="fill:url(#linearGradient452);stroke:none"
               d="m 146,64 4,0 0,20 -4,0 0,-20 z" /></g></g></g></g><g
       id="g460"><g
         clip-path="url(#clipPath464)"
         id="g462"><g
           id="g468"><g
             id="g470"><path
               id="path478"
               style="fill:url(#linearGradient472);stroke:none"
               d="m 154,64 4.001,0 0,20 -4.001,0 0,-20 z" /></g></g></g></g><g
       id="g480"><g
         clip-path="url(#clipPath484)"
         id="g482"><g
           id="g488"><g
             id="g490"><path
               id="path498"
               style="fill:url(#linearGradient492);stroke:none"
               d="m 162,64 4,0 0,20 -4,0 0,-20 z" /></g></g></g></g><g
       id="g500"><g
         clip-path="url(#clipPath504)"
         id="g502"><g
           id="g508"><g
             id="g510"><path
               id="path518"
               style="fill:url(#linearGradient512);stroke:none"
               d="m 170,64 4,0 0,20 -4,0 0,-20 z" /></g></g></g></g><g
       id="g520"><g
         clip-path="url(#clipPath524)"
         id="g522"><g
           id="g528"><g
             id="g530"><path
               id="path538"
               style="fill:url(#linearGradient532);stroke:none"
               d="m 178,64 4,0 0,20 -4,0 0,-20 z" /></g></g></g></g><g
       id="g540"><g
         clip-path="url(#clipPath544)"
         id="g542"><g
           id="g548"><g
             id="g550"><path
               id="path558"
               style="fill:url(#linearGradient552);stroke:none"
               d="m 186,64 4,0 0,20 -4,0 0,-20 z" /></g></g></g></g><g
       id="g560"><g
         clip-path="url(#clipPath564)"
         id="g562"><g
           id="g568"><g
             id="g570"><path
               id="path578"
               style="fill:url(#linearGradient572);stroke:none"
               d="m 194,64 4,0 0,20 -4,0 0,-20 z" /></g></g></g></g><g
       id="g580"><g
         clip-path="url(#clipPath584)"
         id="g582"><g
           id="g588"><g
             id="g590"><path
               id="path598"
               style="fill:url(#linearGradient592);stroke:none"
               d="m 202,64 4,0 0,20 -4,0 0,-20 z" /></g></g></g></g><g
       id="g600"><g
         clip-path="url(#clipPath604)"
         id="g602"><g
           id="g608"><g
             id="g610"><path
               id="path618"
               style="fill:url(#linearGradient612);stroke:none"
               d="m 210,64 4.001,0 0,20 -4.001,0 0,-20 z" /></g></g></g></g><g
       id="g620"><g
         clip-path="url(#clipPath624)"
         id="g622"><g
           id="g628"><g
             id="g630"><path
               id="path638"
               style="fill:url(#linearGradient632);stroke:none"
               d="m 218,64 4.001,0 0,20 -4.001,0 0,-20 z" /></g></g></g></g><g
       id="g640"><g
         clip-path="url(#clipPath644)"
         id="g642"><g
           id="g648"><g
             id="g650"><path
               id="path658"
               style="fill:url(#linearGradient652);stroke:none"
               d="m 226,60 4.001,0 0,23.999 -4.001,0 L 226,60 Z" /></g></g></g></g></g></svg>