<?xml version="1.0" encoding="UTF-8" standalone="no"?>
<svg
   xmlns:dc="http://purl.org/dc/elements/1.1/"
   xmlns:cc="http://creativecommons.org/ns#"
   xmlns:rdf="http://www.w3.org/1999/02/22-rdf-syntax-ns#"
   xmlns:svg="http://www.w3.org/2000/svg"
   xmlns="http://www.w3.org/2000/svg"
   viewBox="0 0 320 320"
   height="320"
   width="320"
   xml:space="preserve"
   version="1.1"
   id="svg2"><metadata
     id="metadata8"><rdf:RDF><cc:Work
         rdf:about=""><dc:format>image/svg+xml</dc:format><dc:type
           rdf:resource="http://purl.org/dc/dcmitype/StillImage" /></cc:Work></rdf:RDF></metadata><defs
     id="defs6"><clipPath
       id="clipPath16"
       clipPathUnits="userSpaceOnUse"><path
         id="path18"
         d="M 52.092,229.53 C 49.477,227.262 48,223.96 48,220.499 l 0,0 L 48,24 c 0,-6.627 5.373,-12 12,-12 l 0,0 68,0 68,0 c 6.627,0 12,5.373 12,12 l 0,0 0,196.499 c 0,3.461 -1.477,6.763 -4.092,9.031 l 0,0 C 197.084,235.449 175.079,244 128,244 l 0,0 c -47.078,0 -69.084,-8.551 -75.908,-14.47" /></clipPath><linearGradient
       id="linearGradient24"
       spreadMethod="pad"
       gradientTransform="matrix(183.22516,-183.22516,-183.22516,-183.22516,36.387417,213.86719)"
       gradientUnits="userSpaceOnUse"
       y2="0"
       x2="1"
       y1="0"
       x1="0"><stop
         id="stop26"
         offset="0"
         style="stop-opacity:1;stop-color:#e6e7e8" /><stop
         id="stop28"
         offset="1"
         style="stop-opacity:1;stop-color:#d1d3d4" /></linearGradient><clipPath
       id="clipPath36"
       clipPathUnits="userSpaceOnUse"><path
         id="path38"
         d="m 72,232 c 0,-2.209 1.791,-4 4,-4 l 0,0 c 2.209,0 4,1.791 4,4 l 0,0 c 0,2.209 -1.791,4 -4,4 l 0,0 c -2.209,0 -4,-1.791 -4,-4" /></clipPath><linearGradient
       id="linearGradient44"
       spreadMethod="pad"
       gradientTransform="matrix(-5.6568542,5.6568542,5.6568542,5.6568542,78.82843,229.17157)"
       gradientUnits="userSpaceOnUse"
       y2="0"
       x2="1"
       y1="0"
       x1="0"><stop
         id="stop46"
         offset="0"
         style="stop-opacity:1;stop-color:#e6e7e8" /><stop
         id="stop48"
         offset="1"
         style="stop-opacity:1;stop-color:#d1d3d4" /></linearGradient><clipPath
       id="clipPath56"
       clipPathUnits="userSpaceOnUse"><path
         id="path58"
         d="M 0,256 256,256 256,0 0,0 0,256 Z" /></clipPath><clipPath
       id="clipPath68"
       clipPathUnits="userSpaceOnUse"><path
         id="path70"
         d="m 48,60 0,-36 c 0,-6.627 5.373,-12 12,-12 l 0,0 68,0 68,0 c 6.627,0 12,5.373 12,12 l 0,0 0,36 -160,0 z" /></clipPath><linearGradient
       id="linearGradient76"
       spreadMethod="pad"
       gradientTransform="matrix(-100.48528,100.48528,100.48528,100.48528,178.24265,-10.727919)"
       gradientUnits="userSpaceOnUse"
       y2="0"
       x2="1"
       y1="0"
       x1="0"><stop
         id="stop78"
         offset="0"
         style="stop-opacity:1;stop-color:#e6e7e8" /><stop
         id="stop80"
         offset="1"
         style="stop-opacity:1;stop-color:#d1d3d4" /></linearGradient><clipPath
       id="clipPath88"
       clipPathUnits="userSpaceOnUse"><path
         id="path90"
         d="M 52.092,229.53 C 49.477,227.262 48,223.96 48,220.499 l 0,0 L 48,32 l 8,28 7.637,175.652 c -5.615,-2.066 -9.362,-4.229 -11.545,-6.122" /></clipPath><linearGradient
       id="linearGradient96"
       spreadMethod="pad"
       gradientTransform="matrix(-96.739876,96.739876,96.739876,96.739876,102.82239,86.822388)"
       gradientUnits="userSpaceOnUse"
       y2="0"
       x2="1"
       y1="0"
       x1="0"><stop
         id="stop98"
         offset="0"
         style="stop-opacity:1;stop-color:#e6e7e8" /><stop
         id="stop100"
         offset="1"
         style="stop-opacity:1;stop-color:#d1d3d4" /></linearGradient><clipPath
       id="clipPath108"
       clipPathUnits="userSpaceOnUse"><path
         id="path110"
         d="m 199.637,60 7.999,-28 0,188.499 c 0,3.461 -1.476,6.763 -4.09,9.031 l 0,0 c -2.184,1.893 -5.931,4.056 -11.546,6.122 l 0,0 L 199.637,60 Z" /></clipPath><linearGradient
       id="linearGradient116"
       spreadMethod="pad"
       gradientTransform="matrix(-109.64478,109.64478,109.64478,109.64478,256.00702,80.369942)"
       gradientUnits="userSpaceOnUse"
       y2="0"
       x2="1"
       y1="0"
       x1="0"><stop
         id="stop118"
         offset="0"
         style="stop-opacity:1;stop-color:#e6e7e8" /><stop
         id="stop120"
         offset="1"
         style="stop-opacity:1;stop-color:#d1d3d4" /></linearGradient><clipPath
       id="clipPath128"
       clipPathUnits="userSpaceOnUse"><path
         id="path130"
         d="M 0,256 256,256 256,0 0,0 0,256 Z" /></clipPath></defs><g
     transform="matrix(1.25,0,0,-1.25,0,320)"
     id="g10"><g
       id="g12"><g
         clip-path="url(#clipPath16)"
         id="g14"><g
           id="g20"><g
             id="g22"><path
               id="path30"
               style="fill:url(#linearGradient24);stroke:none"
               d="M 52.092,229.53 C 49.477,227.262 48,223.96 48,220.499 l 0,0 L 48,24 c 0,-6.627 5.373,-12 12,-12 l 0,0 68,0 68,0 c 6.627,0 12,5.373 12,12 l 0,0 0,196.499 c 0,3.461 -1.477,6.763 -4.092,9.031 l 0,0 C 197.084,235.449 175.079,244 128,244 l 0,0 c -47.078,0 -69.084,-8.551 -75.908,-14.47" /></g></g></g></g><g
       id="g32"><g
         clip-path="url(#clipPath36)"
         id="g34"><g
           id="g40"><g
             id="g42"><path
               id="path50"
               style="fill:url(#linearGradient44);stroke:none"
               d="m 72,232 c 0,-2.209 1.791,-4 4,-4 l 0,0 c 2.209,0 4,1.791 4,4 l 0,0 c 0,2.209 -1.791,4 -4,4 l 0,0 c -2.209,0 -4,-1.791 -4,-4" /></g></g></g></g><g
       id="g52"><g
         clip-path="url(#clipPath56)"
         id="g54"><g
           transform="translate(78,232)"
           id="g60"><path
             id="path62"
             style="fill:#999999;fill-opacity:1;fill-rule:nonzero;stroke:none"
             d="m 0,0 c 0,-1.104 -0.896,-2 -2,-2 -1.104,0 -2,0.896 -2,2 0,1.104 0.896,2 2,2 1.104,0 2,-0.896 2,-2" /></g></g></g><g
       id="g64"><g
         clip-path="url(#clipPath68)"
         id="g66"><g
           id="g72"><g
             id="g74"><path
               id="path82"
               style="fill:url(#linearGradient76);stroke:none"
               d="m 48,60 0,-36 c 0,-6.627 5.373,-12 12,-12 l 0,0 68,0 68,0 c 6.627,0 12,5.373 12,12 l 0,0 0,36 -160,0 z" /></g></g></g></g><g
       id="g84"><g
         clip-path="url(#clipPath88)"
         id="g86"><g
           id="g92"><g
             id="g94"><path
               id="path102"
               style="fill:url(#linearGradient96);stroke:none"
               d="M 52.092,229.53 C 49.477,227.262 48,223.96 48,220.499 l 0,0 L 48,32 l 8,28 7.637,175.652 c -5.615,-2.066 -9.362,-4.229 -11.545,-6.122" /></g></g></g></g><g
       id="g104"><g
         clip-path="url(#clipPath108)"
         id="g106"><g
           id="g112"><g
             id="g114"><path
               id="path122"
               style="fill:url(#linearGradient116);stroke:none"
               d="m 199.637,60 7.999,-28 0,188.499 c 0,3.461 -1.476,6.763 -4.09,9.031 l 0,0 c -2.184,1.893 -5.931,4.056 -11.546,6.122 l 0,0 L 199.637,60 Z" /></g></g></g></g><g
       id="g124"><g
         clip-path="url(#clipPath128)"
         id="g126"><g
           transform="translate(74.7842,96)"
           id="g132"><path
             id="path134"
             style="fill:#999999;fill-opacity:1;fill-rule:nonzero;stroke:none"
             d="m 0,0 -26.784,0 0,-2 25.264,0 c 0.489,0.678 0.999,1.343 1.52,2" /></g><g
           transform="translate(78.2896,100)"
           id="g136"><path
             id="path138"
             style="fill:#999999;fill-opacity:1;fill-rule:nonzero;stroke:none"
             d="m 0,0 -30.29,0 0,-2 28.455,0 c 0.593,0.68 1.206,1.346 1.835,2" /></g><g
           transform="translate(87.7891,108)"
           id="g140"><path
             id="path142"
             style="fill:#999999;fill-opacity:1;fill-rule:nonzero;stroke:none"
             d="m 0,0 -39.789,0 0,-2 37.006,0 C -1.88,-1.31 -0.948,-0.646 0,0" /></g><g
           transform="translate(82.5376,104)"
           id="g144"><path
             id="path146"
             style="fill:#999999;fill-opacity:1;fill-rule:nonzero;stroke:none"
             d="m 0,0 -34.538,0 0,-2 32.31,0 c 0.724,0.682 1.465,1.35 2.228,2" /></g><g
           transform="translate(71.9019,92)"
           id="g148"><path
             id="path150"
             style="fill:#999999;fill-opacity:1;fill-rule:nonzero;stroke:none"
             d="m 0,0 -23.902,0 0,-2 22.669,0 c 0.397,0.674 0.804,1.343 1.233,2" /></g><g
           transform="translate(65.1133,76)"
           id="g152"><path
             id="path154"
             style="fill:#999999;fill-opacity:1;fill-rule:nonzero;stroke:none"
             d="m 0,0 -17.113,0 0,-2 16.703,0 c 0.119,0.672 0.263,1.336 0.41,2" /></g><g
           transform="translate(66.1846,80)"
           id="g156"><path
             id="path158"
             style="fill:#999999;fill-opacity:1;fill-rule:nonzero;stroke:none"
             d="m 0,0 -18.185,0 0,-2 17.606,0 C -0.398,-1.329 -0.21,-0.661 0,0" /></g><g
           transform="translate(67.6563,84)"
           id="g160"><path
             id="path162"
             style="fill:#999999;fill-opacity:1;fill-rule:nonzero;stroke:none"
             d="m 0,0 -19.656,0 0,-2 18.858,0 c 0.247,0.674 0.52,1.338 0.798,2" /></g><g
           transform="translate(69.5547,88)"
           id="g164"><path
             id="path166"
             style="fill:#999999;fill-opacity:1;fill-rule:nonzero;stroke:none"
             d="m 0,0 -21.555,0 0,-2 20.554,0 c 0.318,0.674 0.652,1.34 1.001,2" /></g><g
           transform="translate(181.0049,96)"
           id="g168"><path
             id="path170"
             style="fill:#999999;fill-opacity:1;fill-rule:nonzero;stroke:none"
             d="m 0,0 26.784,0 0,-2 L 1.52,-2 C 1.031,-1.322 0.521,-0.657 0,0" /></g><g
           transform="translate(177.5,100)"
           id="g172"><path
             id="path174"
             style="fill:#999999;fill-opacity:1;fill-rule:nonzero;stroke:none"
             d="m 0,0 30.289,0 0,-2 -28.454,0 C 1.242,-1.32 0.629,-0.654 0,0" /></g><g
           transform="translate(168,108)"
           id="g176"><path
             id="path178"
             style="fill:#999999;fill-opacity:1;fill-rule:nonzero;stroke:none"
             d="m 0,0 39.789,0 0,-2 -37.006,0 C 1.881,-1.31 0.948,-0.647 0,0" /></g><g
           transform="translate(173.252,104)"
           id="g180"><path
             id="path182"
             style="fill:#999999;fill-opacity:1;fill-rule:nonzero;stroke:none"
             d="m 0,0 34.537,0 0,-2 -32.309,0 C 1.504,-1.318 0.763,-0.65 0,0" /></g><g
           transform="translate(183.8877,92)"
           id="g184"><path
             id="path186"
             style="fill:#999999;fill-opacity:1;fill-rule:nonzero;stroke:none"
             d="m 0,0 23.901,0 0,-2 -22.668,0 C 0.836,-1.326 0.429,-0.657 0,0" /></g><g
           transform="translate(190.6758,76)"
           id="g188"><path
             id="path190"
             style="fill:#999999;fill-opacity:1;fill-rule:nonzero;stroke:none"
             d="m 0,0 17.113,0 0,-2 L 0.41,-2 C 0.291,-1.328 0.147,-0.663 0,0" /></g><g
           transform="translate(189.6045,80)"
           id="g192"><path
             id="path194"
             style="fill:#999999;fill-opacity:1;fill-rule:nonzero;stroke:none"
             d="m 0,0 18.185,0 0,-2 -17.606,0 C 0.398,-1.329 0.21,-0.661 0,0" /></g><g
           transform="translate(188.1328,84)"
           id="g196"><path
             id="path198"
             style="fill:#999999;fill-opacity:1;fill-rule:nonzero;stroke:none"
             d="m 0,0 19.656,0 0,-2 -18.857,0 C 0.551,-1.326 0.278,-0.662 0,0" /></g><g
           transform="translate(186.2344,88)"
           id="g200"><path
             id="path202"
             style="fill:#999999;fill-opacity:1;fill-rule:nonzero;stroke:none"
             d="m 0,0 21.555,0 0,-2 -20.553,0 C 0.684,-1.326 0.35,-0.66 0,0" /></g><g
           transform="translate(180,132)"
           id="g204"><path
             id="path206"
             style="fill:#ffffff;fill-opacity:1;fill-rule:nonzero;stroke:none"
             d="m 0,0 -32,0 c -2.209,0 -4,1.791 -4,4 l 0,16 c 0,2.209 1.791,4 4,4 l 32,0 c 2.209,0 4,-1.791 4,-4 L 4,4 C 4,1.791 2.209,0 0,0" /></g><g
           transform="translate(128,136)"
           id="g208"><path
             id="path210"
             style="fill:#ffffff;fill-opacity:1;fill-rule:nonzero;stroke:none"
             d="m 0,0 -56,0 c -2.209,0 -4,1.791 -4,4 l 0,72 c 0,2.209 1.791,4 4,4 l 56,0 c 2.209,0 4,-1.791 4,-4 L 4,4 C 4,1.791 2.209,0 0,0" /></g><path
           id="path212"
           style="fill:#999999;fill-opacity:1;fill-rule:nonzero;stroke:none"
           d="m 72,225 -8,0 0,-1 8,0 0,1 z" /><path
           id="path214"
           style="fill:#999999;fill-opacity:1;fill-rule:nonzero;stroke:none"
           d="m 184,224 8,0 0,1 -8,0 0,-1 z" /></g></g></g></svg>