<?xml version="1.0" encoding="UTF-8" standalone="no"?>
<svg
   xmlns:dc="http://purl.org/dc/elements/1.1/"
   xmlns:cc="http://creativecommons.org/ns#"
   xmlns:rdf="http://www.w3.org/1999/02/22-rdf-syntax-ns#"
   xmlns:svg="http://www.w3.org/2000/svg"
   xmlns="http://www.w3.org/2000/svg"
   viewBox="0 0 320 320"
   height="320"
   width="320"
   xml:space="preserve"
   version="1.1"
   id="svg2"><metadata
     id="metadata8"><rdf:RDF><cc:Work
         rdf:about=""><dc:format>image/svg+xml</dc:format><dc:type
           rdf:resource="http://purl.org/dc/dcmitype/StillImage" /></cc:Work></rdf:RDF></metadata><defs
     id="defs6"><clipPath
       id="clipPath16"
       clipPathUnits="userSpaceOnUse"><path
         id="path18"
         d="m 58.836,120 c -1.485,0 -2.848,-0.823 -3.54,-2.137 l 0,0 L 48,104 l 160,0 -7.296,13.863 c -0.693,1.314 -2.054,2.137 -3.54,2.137 l 0,0 -138.328,0 z" /></clipPath><linearGradient
       id="linearGradient24"
       spreadMethod="pad"
       gradientTransform="matrix(-83.410507,83.410507,83.410507,83.410507,169.70526,65.705254)"
       gradientUnits="userSpaceOnUse"
       y2="0"
       x2="1"
       y1="0"
       x1="0"><stop
         id="stop26"
         offset="0"
         style="stop-opacity:1;stop-color:#e6e7e8" /><stop
         id="stop28"
         offset="1"
         style="stop-opacity:1;stop-color:#d1d3d4" /></linearGradient><clipPath
       id="clipPath36"
       clipPathUnits="userSpaceOnUse"><path
         id="path38"
         d="m 72,16 112,0 0,80 -112,0 0,-80 z" /></clipPath><linearGradient
       id="linearGradient44"
       spreadMethod="pad"
       gradientTransform="matrix(-95.999992,95.999992,95.999992,95.999992,176,8)"
       gradientUnits="userSpaceOnUse"
       y2="0"
       x2="1"
       y1="0"
       x1="0"><stop
         id="stop46"
         offset="0"
         style="stop-opacity:1;stop-color:#e6e7e8" /><stop
         id="stop48"
         offset="1"
         style="stop-opacity:1;stop-color:#d1d3d4" /></linearGradient><clipPath
       id="clipPath56"
       clipPathUnits="userSpaceOnUse"><path
         id="path58"
         d="m 92,20 72,0 0,24 -72,0 0,-24 z" /></clipPath><linearGradient
       id="linearGradient64"
       spreadMethod="pad"
       gradientTransform="matrix(47.999996,-47.999996,-47.999996,-47.999996,104,56)"
       gradientUnits="userSpaceOnUse"
       y2="0"
       x2="1"
       y1="0"
       x1="0"><stop
         id="stop66"
         offset="0"
         style="stop-opacity:1;stop-color:#e6e7e8" /><stop
         id="stop68"
         offset="1"
         style="stop-opacity:1;stop-color:#d1d3d4" /></linearGradient><clipPath
       id="clipPath76"
       clipPathUnits="userSpaceOnUse"><path
         id="path78"
         d="m 88,244 c -4.419,0 -8,-3.581 -8,-8 l 0,0 0,-8 -20,-108 136,0 -16,108 0,8 c 0,4.419 -3.582,8 -8,8 l 0,0 -84,0 z" /></clipPath><linearGradient
       id="linearGradient84"
       spreadMethod="pad"
       gradientTransform="matrix(117.65685,-117.65685,-117.65685,-117.65685,70.17157,229.48528)"
       gradientUnits="userSpaceOnUse"
       y2="0"
       x2="1"
       y1="0"
       x1="0"><stop
         id="stop86"
         offset="0"
         style="stop-opacity:1;stop-color:#e6e7e8" /><stop
         id="stop88"
         offset="1"
         style="stop-opacity:1;stop-color:#d1d3d4" /></linearGradient><clipPath
       id="clipPath96"
       clipPathUnits="userSpaceOnUse"><path
         id="path98"
         d="M 0,256 256,256 256,0 0,0 0,256 Z" /></clipPath><clipPath
       id="clipPath106"
       clipPathUnits="userSpaceOnUse"><path
         id="path108"
         d="m 80.365,208 -15.556,-84 126.554,0 -12.444,84 -98.554,0 z" /></clipPath><linearGradient
       id="linearGradient114"
       spreadMethod="pad"
       gradientTransform="matrix(-97.499756,97.499756,97.499756,97.499756,177.61391,110.25014)"
       gradientUnits="userSpaceOnUse"
       y2="0"
       x2="1"
       y1="0"
       x1="0"><stop
         id="stop116"
         offset="0"
         style="stop-opacity:1;stop-color:#e6e7e8" /><stop
         id="stop118"
         offset="1"
         style="stop-opacity:1;stop-color:#d1d3d4" /></linearGradient><clipPath
       id="clipPath126"
       clipPathUnits="userSpaceOnUse"><path
         id="path128"
         d="M 0,256 256,256 256,0 0,0 0,256 Z" /></clipPath><clipPath
       id="clipPath142"
       clipPathUnits="userSpaceOnUse"><path
         id="path144"
         d="m 48,104 0,-16 c 0,-2.209 1.791,-4 4,-4 l 0,0 152,0 c 2.209,0 4,1.791 4,4 l 0,0 0,16 -160,0 z" /></clipPath><linearGradient
       id="linearGradient150"
       spreadMethod="pad"
       gradientTransform="matrix(88.82843,-88.82843,-88.82843,-88.82843,83.585785,139.58578)"
       gradientUnits="userSpaceOnUse"
       y2="0"
       x2="1"
       y1="0"
       x1="0"><stop
         id="stop152"
         offset="0"
         style="stop-opacity:1;stop-color:#e6e7e8" /><stop
         id="stop154"
         offset="1"
         style="stop-opacity:1;stop-color:#d1d3d4" /></linearGradient><clipPath
       id="clipPath162"
       clipPathUnits="userSpaceOnUse"><path
         id="path164"
         d="M 0,256 256,256 256,0 0,0 0,256 Z" /></clipPath><clipPath
       id="clipPath218"
       clipPathUnits="userSpaceOnUse"><path
         id="path220"
         d="m 150,118 0,-4 c 0,-1.1 0.9,-2 2,-2 l 0,0 c 1.1,0 2,0.9 2,2 l 0,0 0,4 c 0,1.1 -0.9,2 -2,2 l 0,0 c -1.1,0 -2,-0.9 -2,-2" /></clipPath><linearGradient
       id="linearGradient226"
       spreadMethod="pad"
       gradientTransform="matrix(4.8250012,-4.8250012,-4.8250012,-4.8250012,149.58749,118.4125)"
       gradientUnits="userSpaceOnUse"
       y2="0"
       x2="1"
       y1="0"
       x1="0"><stop
         id="stop228"
         offset="0"
         style="stop-opacity:1;stop-color:#e6e7e8" /><stop
         id="stop230"
         offset="1"
         style="stop-opacity:1;stop-color:#d1d3d4" /></linearGradient><clipPath
       id="clipPath238"
       clipPathUnits="userSpaceOnUse"><path
         id="path240"
         d="M 0,256 256,256 256,0 0,0 0,256 Z" /></clipPath><clipPath
       id="clipPath250"
       clipPathUnits="userSpaceOnUse"><path
         id="path252"
         d="m 74,118 0,-4 c 0,-1.1 0.9,-2 2,-2 l 0,0 c 1.1,0 2,0.9 2,2 l 0,0 0,4 c 0,1.1 -0.9,2 -2,2 l 0,0 c -1.1,0 -2,-0.9 -2,-2" /></clipPath><linearGradient
       id="linearGradient258"
       spreadMethod="pad"
       gradientTransform="matrix(4.8250012,-4.8250012,-4.8250012,-4.8250012,73.587502,118.4125)"
       gradientUnits="userSpaceOnUse"
       y2="0"
       x2="1"
       y1="0"
       x1="0"><stop
         id="stop260"
         offset="0"
         style="stop-opacity:1;stop-color:#e6e7e8" /><stop
         id="stop262"
         offset="1"
         style="stop-opacity:1;stop-color:#d1d3d4" /></linearGradient><clipPath
       id="clipPath270"
       clipPathUnits="userSpaceOnUse"><path
         id="path272"
         d="M 0,256 256,256 256,0 0,0 0,256 Z" /></clipPath><clipPath
       id="clipPath310"
       clipPathUnits="userSpaceOnUse"><path
         id="path312"
         d="m 56,88 144,0 0,4 -144,0 0,-4 z" /></clipPath><linearGradient
       id="linearGradient318"
       spreadMethod="pad"
       gradientTransform="matrix(-74,74,74,74,165,53)"
       gradientUnits="userSpaceOnUse"
       y2="0"
       x2="1"
       y1="0"
       x1="0"><stop
         id="stop320"
         offset="0"
         style="stop-opacity:1;stop-color:#e6e7e8" /><stop
         id="stop322"
         offset="1"
         style="stop-opacity:1;stop-color:#d1d3d4" /></linearGradient><clipPath
       id="clipPath330"
       clipPathUnits="userSpaceOnUse"><path
         id="path332"
         d="m 72,20 -8,-8 128,0 -8,8 -112,0 z" /></clipPath><linearGradient
       id="linearGradient338"
       spreadMethod="pad"
       gradientTransform="matrix(-63.999996,63.999996,63.999996,63.999996,160,-20)"
       gradientUnits="userSpaceOnUse"
       y2="0"
       x2="1"
       y1="0"
       x1="0"><stop
         id="stop340"
         offset="0"
         style="stop-opacity:1;stop-color:#e6e7e8" /><stop
         id="stop342"
         offset="1"
         style="stop-opacity:1;stop-color:#d1d3d4" /></linearGradient><clipPath
       id="clipPath350"
       clipPathUnits="userSpaceOnUse"><path
         id="path352"
         d="M 0,256 256,256 256,0 0,0 0,256 Z" /></clipPath><clipPath
       id="clipPath362"
       clipPathUnits="userSpaceOnUse"><path
         id="path364"
         d="m 116,216 28,0 0,28 -28,0 0,-28 z" /></clipPath><linearGradient
       id="linearGradient370"
       spreadMethod="pad"
       gradientTransform="matrix(-28,28,28,28,144,216)"
       gradientUnits="userSpaceOnUse"
       y2="0"
       x2="1"
       y1="0"
       x1="0"><stop
         id="stop372"
         offset="0"
         style="stop-opacity:1;stop-color:#e6e7e8" /><stop
         id="stop374"
         offset="1"
         style="stop-opacity:1;stop-color:#d1d3d4" /></linearGradient></defs><g
     transform="matrix(1.25,0,0,-1.25,0,320)"
     id="g10"><g
       id="g12"><g
         clip-path="url(#clipPath16)"
         id="g14"><g
           id="g20"><g
             id="g22"><path
               id="path30"
               style="fill:url(#linearGradient24);stroke:none"
               d="m 58.836,120 c -1.485,0 -2.848,-0.823 -3.54,-2.137 l 0,0 L 48,104 l 160,0 -7.296,13.863 c -0.693,1.314 -2.054,2.137 -3.54,2.137 l 0,0 -138.328,0 z" /></g></g></g></g><g
       id="g32"><g
         clip-path="url(#clipPath36)"
         id="g34"><g
           id="g40"><g
             id="g42"><path
               id="path50"
               style="fill:url(#linearGradient44);stroke:none"
               d="m 72,16 112,0 0,80 -112,0 0,-80 z" /></g></g></g></g><g
       id="g52"><g
         clip-path="url(#clipPath56)"
         id="g54"><g
           id="g60"><g
             id="g62"><path
               id="path70"
               style="fill:url(#linearGradient64);stroke:none"
               d="m 92,20 72,0 0,24 -72,0 0,-24 z" /></g></g></g></g><g
       id="g72"><g
         clip-path="url(#clipPath76)"
         id="g74"><g
           id="g80"><g
             id="g82"><path
               id="path90"
               style="fill:url(#linearGradient84);stroke:none"
               d="m 88,244 c -4.419,0 -8,-3.581 -8,-8 l 0,0 0,-8 -20,-108 136,0 -16,108 0,8 c 0,4.419 -3.582,8 -8,8 l 0,0 -84,0 z" /></g></g></g></g><g
       id="g92"><g
         clip-path="url(#clipPath96)"
         id="g94"><path
           id="path100"
           style="fill:#999999;fill-opacity:1;fill-rule:nonzero;stroke:none"
           d="m 130,64 -4,0 0,4 4,0 0,-4 z" /></g></g><g
       id="g102"><g
         clip-path="url(#clipPath106)"
         id="g104"><g
           id="g110"><g
             id="g112"><path
               id="path120"
               style="fill:url(#linearGradient114);stroke:none"
               d="m 80.365,208 -15.556,-84 126.554,0 -12.444,84 -98.554,0 z" /></g></g></g></g><g
       id="g122"><g
         clip-path="url(#clipPath126)"
         id="g124"><path
           id="path130"
           style="fill:#999999;fill-opacity:1;fill-rule:nonzero;stroke:none"
           d="m 164,64 -4,0 0,4 4,0 0,-4 z" /><path
           id="path132"
           style="fill:#999999;fill-opacity:1;fill-rule:nonzero;stroke:none"
           d="m 96,64 -4,0 0,4 4,0 0,-4 z" /><g
           transform="translate(130,38)"
           id="g134"><path
             id="path136"
             style="fill:#bfbfbf;fill-opacity:1;fill-rule:nonzero;stroke:none"
             d="m 0,0 c 0,-1.104 -0.896,-2 -2,-2 -1.104,0 -2,0.896 -2,2 0,1.104 0.896,2 2,2 1.104,0 2,-0.896 2,-2" /></g></g></g><g
       id="g138"><g
         clip-path="url(#clipPath142)"
         id="g140"><g
           id="g146"><g
             id="g148"><path
               id="path156"
               style="fill:url(#linearGradient150);stroke:none"
               d="m 48,104 0,-16 c 0,-2.209 1.791,-4 4,-4 l 0,0 152,0 c 2.209,0 4,1.791 4,4 l 0,0 0,16 -160,0 z" /></g></g></g></g><g
       id="g158"><g
         clip-path="url(#clipPath162)"
         id="g160"><g
           transform="translate(182.4678,136.3315)"
           id="g166"><path
             id="path168"
             style="fill:#999999;fill-opacity:1;fill-rule:nonzero;stroke:none"
             d="m 0,0 -4.659,56 c -0.173,2.074 -1.905,3.668 -3.987,3.668 l -88.536,0 c -2.017,0 -3.719,-1.501 -3.969,-3.503 l -7,-56 c -0.298,-2.388 1.563,-4.497 3.969,-4.497 l 100.196,0 c 2.34,0 4.18,2 3.986,4.332" /></g><g
           transform="translate(187.5,115)"
           id="g170"><path
             id="path172"
             style="fill:#999999;fill-opacity:1;fill-rule:nonzero;stroke:none"
             d="m 0,0 c 0,1.542 -1.725,2.5 -4.5,2.5 -1.91,0 -3.305,-0.462 -4,-1.248 -0.695,0.786 -2.09,1.248 -4,1.248 -1.91,0 -3.305,-0.462 -4,-1.248 -0.695,0.786 -2.09,1.248 -4,1.248 -2.775,0 -4.5,-0.958 -4.5,-2.5 0,-0.602 0.27,-1.109 0.753,-1.512 -0.086,0.002 -0.164,0.012 -0.253,0.012 -2.775,0 -4.5,-0.958 -4.5,-2.5 0,-1.542 1.725,-2.5 4.5,-2.5 1.91,0 3.305,0.462 4,1.248 0.695,-0.786 2.09,-1.248 4,-1.248 1.91,0 3.305,0.462 4,1.248 0.695,-0.786 2.09,-1.248 4,-1.248 2.775,0 4.5,0.958 4.5,2.5 0,0.602 -0.27,1.109 -0.753,1.512 C -4.667,-2.49 -4.589,-2.5 -4.5,-2.5 -1.725,-2.5 0,-1.542 0,0" /></g><g
           transform="translate(186,115)"
           id="g174"><path
             id="path176"
             style="fill:#ffffff;fill-opacity:1;fill-rule:nonzero;stroke:none"
             d="m 0,0 c 0,-0.553 -1.343,-1 -3,-1 -1.657,0 -3,0.447 -3,1 0,0.553 1.343,1 3,1 1.657,0 3,-0.447 3,-1" /></g><g
           transform="translate(182,111)"
           id="g178"><path
             id="path180"
             style="fill:#ffffff;fill-opacity:1;fill-rule:nonzero;stroke:none"
             d="m 0,0 c 0,-0.553 -1.343,-1 -3,-1 -1.657,0 -3,0.447 -3,1 0,0.553 1.343,1 3,1 1.657,0 3,-0.447 3,-1" /></g><g
           transform="translate(178,115)"
           id="g182"><path
             id="path184"
             style="fill:#ffffff;fill-opacity:1;fill-rule:nonzero;stroke:none"
             d="m 0,0 c 0,-0.553 -1.343,-1 -3,-1 -1.657,0 -3,0.447 -3,1 0,0.553 1.343,1 3,1 1.657,0 3,-0.447 3,-1" /></g><g
           transform="translate(174,111)"
           id="g186"><path
             id="path188"
             style="fill:#ffffff;fill-opacity:1;fill-rule:nonzero;stroke:none"
             d="m 0,0 c 0,-0.553 -1.343,-1 -3,-1 -1.657,0 -3,0.447 -3,1 0,0.553 1.343,1 3,1 1.657,0 3,-0.447 3,-1" /></g><g
           transform="translate(170,115)"
           id="g190"><path
             id="path192"
             style="fill:#ffffff;fill-opacity:1;fill-rule:nonzero;stroke:none"
             d="m 0,0 c 0,-0.553 -1.343,-1 -3,-1 -1.657,0 -3,0.447 -3,1 0,0.553 1.343,1 3,1 1.657,0 3,-0.447 3,-1" /></g><g
           transform="translate(166,111)"
           id="g194"><path
             id="path196"
             style="fill:#ffffff;fill-opacity:1;fill-rule:nonzero;stroke:none"
             d="m 0,0 c 0,-0.553 -1.343,-1 -3,-1 -1.657,0 -3,0.447 -3,1 0,0.553 1.343,1 3,1 1.657,0 3,-0.447 3,-1" /></g><g
           transform="translate(158,113)"
           id="g198"><path
             id="path200"
             style="fill:#ffffff;fill-opacity:1;fill-rule:nonzero;stroke:none"
             d="m 0,0 c 0,-1.657 -2.687,-3 -6,-3 -3.313,0 -6,1.343 -6,3 0,1.657 2.687,3 6,3 3.313,0 6,-1.343 6,-3" /></g><g
           transform="translate(156,113)"
           id="g202"><path
             id="path204"
             style="fill:#999999;fill-opacity:1;fill-rule:nonzero;stroke:none"
             d="m 0,0 c 0,-1.104 -1.791,-2 -4,-2 -2.209,0 -4,0.896 -4,2 0,1.104 1.791,2 4,2 2.209,0 4,-0.896 4,-2" /></g><g
           transform="translate(82,113)"
           id="g206"><path
             id="path208"
             style="fill:#ffffff;fill-opacity:1;fill-rule:nonzero;stroke:none"
             d="m 0,0 c 0,-1.657 -2.687,-3 -6,-3 -3.313,0 -6,1.343 -6,3 0,1.657 2.687,3 6,3 3.313,0 6,-1.343 6,-3" /></g><g
           transform="translate(80,113)"
           id="g210"><path
             id="path212"
             style="fill:#999999;fill-opacity:1;fill-rule:nonzero;stroke:none"
             d="m 0,0 c 0,-1.104 -1.791,-2 -4,-2 -2.209,0 -4,0.896 -4,2 0,1.104 1.791,2 4,2 2.209,0 4,-0.896 4,-2" /></g></g></g><g
       id="g214"><g
         clip-path="url(#clipPath218)"
         id="g216"><g
           id="g222"><g
             id="g224"><path
               id="path232"
               style="fill:url(#linearGradient226);stroke:none"
               d="m 150,118 0,-4 c 0,-1.1 0.9,-2 2,-2 l 0,0 c 1.1,0 2,0.9 2,2 l 0,0 0,4 c 0,1.1 -0.9,2 -2,2 l 0,0 c -1.1,0 -2,-0.9 -2,-2" /></g></g></g></g><g
       id="g234"><g
         clip-path="url(#clipPath238)"
         id="g236"><g
           transform="translate(156,120)"
           id="g242"><path
             id="path244"
             style="fill:#999999;fill-opacity:1;fill-rule:nonzero;stroke:none"
             d="m 0,0 c 0,-2.209 -1.791,-4 -4,-4 -2.209,0 -4,1.791 -4,4 0,2.209 1.791,4 4,4 2.209,0 4,-1.791 4,-4" /></g></g></g><g
       id="g246"><g
         clip-path="url(#clipPath250)"
         id="g248"><g
           id="g254"><g
             id="g256"><path
               id="path264"
               style="fill:url(#linearGradient258);stroke:none"
               d="m 74,118 0,-4 c 0,-1.1 0.9,-2 2,-2 l 0,0 c 1.1,0 2,0.9 2,2 l 0,0 0,4 c 0,1.1 -0.9,2 -2,2 l 0,0 c -1.1,0 -2,-0.9 -2,-2" /></g></g></g></g><g
       id="g266"><g
         clip-path="url(#clipPath270)"
         id="g268"><g
           transform="translate(80,120)"
           id="g274"><path
             id="path276"
             style="fill:#999999;fill-opacity:1;fill-rule:nonzero;stroke:none"
             d="m 0,0 c 0,-2.209 -1.791,-4 -4,-4 -2.209,0 -4,1.791 -4,4 0,2.209 1.791,4 4,4 2.209,0 4,-1.791 4,-4" /></g><g
           transform="translate(111.5,115)"
           id="g278"><path
             id="path280"
             style="fill:#999999;fill-opacity:1;fill-rule:nonzero;stroke:none"
             d="m 0,0 c 0,1.542 -1.724,2.5 -4.5,2.5 -1.911,0 -3.305,-0.462 -4,-1.248 -0.695,0.786 -2.089,1.248 -4,1.248 -1.911,0 -3.305,-0.462 -4,-1.248 -0.695,0.786 -2.089,1.248 -4,1.248 -2.776,0 -4.5,-0.958 -4.5,-2.5 0,-0.602 0.269,-1.109 0.753,-1.512 -0.086,0.002 -0.164,0.012 -0.253,0.012 -2.776,0 -4.5,-0.958 -4.5,-2.5 0,-1.542 1.724,-2.5 4.5,-2.5 1.911,0 3.305,0.462 4,1.248 0.695,-0.786 2.089,-1.248 4,-1.248 1.911,0 3.305,0.462 4,1.248 0.695,-0.786 2.089,-1.248 4,-1.248 2.776,0 4.5,0.958 4.5,2.5 0,0.602 -0.269,1.109 -0.753,1.512 C -4.667,-2.49 -4.589,-2.5 -4.5,-2.5 -1.724,-2.5 0,-1.542 0,0" /></g><g
           transform="translate(110,115)"
           id="g282"><path
             id="path284"
             style="fill:#ffffff;fill-opacity:1;fill-rule:nonzero;stroke:none"
             d="m 0,0 c 0,-0.553 -1.343,-1 -3,-1 -1.657,0 -3,0.447 -3,1 0,0.553 1.343,1 3,1 1.657,0 3,-0.447 3,-1" /></g><g
           transform="translate(106,111)"
           id="g286"><path
             id="path288"
             style="fill:#ffffff;fill-opacity:1;fill-rule:nonzero;stroke:none"
             d="m 0,0 c 0,-0.553 -1.343,-1 -3,-1 -1.657,0 -3,0.447 -3,1 0,0.553 1.343,1 3,1 1.657,0 3,-0.447 3,-1" /></g><g
           transform="translate(102,115)"
           id="g290"><path
             id="path292"
             style="fill:#ffffff;fill-opacity:1;fill-rule:nonzero;stroke:none"
             d="m 0,0 c 0,-0.553 -1.343,-1 -3,-1 -1.657,0 -3,0.447 -3,1 0,0.553 1.343,1 3,1 1.657,0 3,-0.447 3,-1" /></g><g
           transform="translate(98,111)"
           id="g294"><path
             id="path296"
             style="fill:#ffffff;fill-opacity:1;fill-rule:nonzero;stroke:none"
             d="m 0,0 c 0,-0.553 -1.343,-1 -3,-1 -1.657,0 -3,0.447 -3,1 0,0.553 1.343,1 3,1 1.657,0 3,-0.447 3,-1" /></g><g
           transform="translate(94,115)"
           id="g298"><path
             id="path300"
             style="fill:#ffffff;fill-opacity:1;fill-rule:nonzero;stroke:none"
             d="m 0,0 c 0,-0.553 -1.343,-1 -3,-1 -1.657,0 -3,0.447 -3,1 0,0.553 1.343,1 3,1 1.657,0 3,-0.447 3,-1" /></g><g
           transform="translate(90,111)"
           id="g302"><path
             id="path304"
             style="fill:#ffffff;fill-opacity:1;fill-rule:nonzero;stroke:none"
             d="m 0,0 c 0,-0.553 -1.343,-1 -3,-1 -1.657,0 -3,0.447 -3,1 0,0.553 1.343,1 3,1 1.657,0 3,-0.447 3,-1" /></g></g></g><g
       id="g306"><g
         clip-path="url(#clipPath310)"
         id="g308"><g
           id="g314"><g
             id="g316"><path
               id="path324"
               style="fill:url(#linearGradient318);stroke:none"
               d="m 56,88 144,0 0,4 -144,0 0,-4 z" /></g></g></g></g><g
       id="g326"><g
         clip-path="url(#clipPath330)"
         id="g328"><g
           id="g334"><g
             id="g336"><path
               id="path344"
               style="fill:url(#linearGradient338);stroke:none"
               d="m 72,20 -8,-8 128,0 -8,8 -112,0 z" /></g></g></g></g><g
       id="g346"><g
         clip-path="url(#clipPath350)"
         id="g348"><path
           id="path354"
           style="fill:#999999;fill-opacity:1;fill-rule:nonzero;stroke:none"
           d="m 112,216 -32,0 0,28 32,0 0,-28 z" /><path
           id="path356"
           style="fill:#999999;fill-opacity:1;fill-rule:nonzero;stroke:none"
           d="m 180,216 -32,0 0,28 32,0 0,-28 z" /></g></g><g
       id="g358"><g
         clip-path="url(#clipPath362)"
         id="g360"><g
           id="g366"><g
             id="g368"><path
               id="path376"
               style="fill:url(#linearGradient370);stroke:none"
               d="m 116,216 28,0 0,28 -28,0 0,-28 z" /></g></g></g></g></g></svg>