<?xml version="1.0" encoding="UTF-8" standalone="no"?>
<svg
   xmlns:dc="http://purl.org/dc/elements/1.1/"
   xmlns:cc="http://creativecommons.org/ns#"
   xmlns:rdf="http://www.w3.org/1999/02/22-rdf-syntax-ns#"
   xmlns:svg="http://www.w3.org/2000/svg"
   xmlns="http://www.w3.org/2000/svg"
   viewBox="0 0 320 320"
   height="320"
   width="320"
   xml:space="preserve"
   version="1.1"
   id="svg2"><metadata
     id="metadata8"><rdf:RDF><cc:Work
         rdf:about=""><dc:format>image/svg+xml</dc:format><dc:type
           rdf:resource="http://purl.org/dc/dcmitype/StillImage" /></cc:Work></rdf:RDF></metadata><defs
     id="defs6"><clipPath
       id="clipPath16"
       clipPathUnits="userSpaceOnUse"><path
         id="path18"
         d="m 188,12 -116,0 0,64 116,0 0,-64 z" /></clipPath><linearGradient
       id="linearGradient24"
       spreadMethod="pad"
       gradientTransform="matrix(-90,90,90,90,175,-1)"
       gradientUnits="userSpaceOnUse"
       y2="0"
       x2="1"
       y1="0"
       x1="0"><stop
         id="stop26"
         offset="0"
         style="stop-opacity:1;stop-color:#e6e7e8" /><stop
         id="stop28"
         offset="1"
         style="stop-opacity:1;stop-color:#d1d3d4" /></linearGradient><clipPath
       id="clipPath36"
       clipPathUnits="userSpaceOnUse"><path
         id="path38"
         d="m 144,72 c -2.201,0 -4,-1.8 -4,-4 l 0,0 0,-12 c 0,-2.2 1.799,-4 4,-4 l 0,0 32,0 c 2.2,0 4,1.8 4,4 l 0,0 0,12 c 0,2.2 -1.8,4 -4,4 l 0,0 -32,0 z" /></clipPath><linearGradient
       id="linearGradient44"
       spreadMethod="pad"
       gradientTransform="matrix(27.65,-27.65,-27.65,-27.65,146.175,75.824997)"
       gradientUnits="userSpaceOnUse"
       y2="0"
       x2="1"
       y1="0"
       x1="0"><stop
         id="stop46"
         offset="0"
         style="stop-opacity:1;stop-color:#e6e7e8" /><stop
         id="stop48"
         offset="1"
         style="stop-opacity:1;stop-color:#d1d3d4" /></linearGradient><clipPath
       id="clipPath56"
       clipPathUnits="userSpaceOnUse"><path
         id="path58"
         d="m 144,48 c -2.201,0 -4,-1.799 -4,-4 l 0,0 0,-20 c 0,-2.2 1.799,-4 4,-4 l 0,0 32,0 c 2.2,0 4,1.8 4,4 l 0,0 0,20 c 0,2.201 -1.8,4 -4,4 l 0,0 -32,0 z" /></clipPath><linearGradient
       id="linearGradient64"
       spreadMethod="pad"
       gradientTransform="matrix(31.650002,-31.650002,-31.650002,-31.650002,144.175,49.825001)"
       gradientUnits="userSpaceOnUse"
       y2="0"
       x2="1"
       y1="0"
       x1="0"><stop
         id="stop66"
         offset="0"
         style="stop-opacity:1;stop-color:#e6e7e8" /><stop
         id="stop68"
         offset="1"
         style="stop-opacity:1;stop-color:#d1d3d4" /></linearGradient><clipPath
       id="clipPath76"
       clipPathUnits="userSpaceOnUse"><path
         id="path78"
         d="m 114,244 -30,-4 -5.335,-6.671 c -0.44,-0.879 -0.713,-1.83 -0.808,-2.808 l 0,0 L 66,108 l 128,0 -7.895,122.385 c -0.07,1.065 -0.351,2.107 -0.828,3.062 l 0,0 L 180,240 l -30,4 -36,0 z" /></clipPath><linearGradient
       id="linearGradient84"
       spreadMethod="pad"
       gradientTransform="matrix(121,-121,-121,-121,70.5,226.5)"
       gradientUnits="userSpaceOnUse"
       y2="0"
       x2="1"
       y1="0"
       x1="0"><stop
         id="stop86"
         offset="0"
         style="stop-opacity:1;stop-color:#e6e7e8" /><stop
         id="stop88"
         offset="1"
         style="stop-opacity:1;stop-color:#d1d3d4" /></linearGradient><clipPath
       id="clipPath96"
       clipPathUnits="userSpaceOnUse"><path
         id="path98"
         d="m 58,88 0,-8 c 0,-2.209 1.791,-4 4,-4 l 0,0 132,0 c 2.209,0 4,1.791 4,4 l 0,0 0,8 -140,0 z" /></clipPath><linearGradient
       id="linearGradient104"
       spreadMethod="pad"
       gradientTransform="matrix(74.82843,-74.82843,-74.82843,-74.82843,90.585785,120.58578)"
       gradientUnits="userSpaceOnUse"
       y2="0"
       x2="1"
       y1="0"
       x1="0"><stop
         id="stop106"
         offset="0"
         style="stop-opacity:1;stop-color:#e6e7e8" /><stop
         id="stop108"
         offset="1"
         style="stop-opacity:1;stop-color:#d1d3d4" /></linearGradient><clipPath
       id="clipPath116"
       clipPathUnits="userSpaceOnUse"><path
         id="path118"
         d="m 66,112 -8,-24 72,-4 68,4 -4,24 -128,0 z" /></clipPath><linearGradient
       id="linearGradient124"
       spreadMethod="pad"
       gradientTransform="matrix(78,-78,-78,-78,90,136)"
       gradientUnits="userSpaceOnUse"
       y2="0"
       x2="1"
       y1="0"
       x1="0"><stop
         id="stop126"
         offset="0"
         style="stop-opacity:1;stop-color:#e6e7e8" /><stop
         id="stop128"
         offset="1"
         style="stop-opacity:1;stop-color:#d1d3d4" /></linearGradient><clipPath
       id="clipPath136"
       clipPathUnits="userSpaceOnUse"><path
         id="path138"
         d="M 0,256 256,256 256,0 0,0 0,256 Z" /></clipPath><clipPath
       id="clipPath212"
       clipPathUnits="userSpaceOnUse"><path
         id="path214"
         d="m 78,102 0,-4 c 0,-1.1 0.9,-2 2,-2 l 0,0 c 1.1,0 2,0.9 2,2 l 0,0 0,4 c 0,1.1 -0.9,2 -2,2 l 0,0 c -1.1,0 -2,-0.9 -2,-2" /></clipPath><linearGradient
       id="linearGradient220"
       spreadMethod="pad"
       gradientTransform="matrix(4.8250012,-4.8250012,-4.8250012,-4.8250012,77.587502,102.4125)"
       gradientUnits="userSpaceOnUse"
       y2="0"
       x2="1"
       y1="0"
       x1="0"><stop
         id="stop222"
         offset="0"
         style="stop-opacity:1;stop-color:#e6e7e8" /><stop
         id="stop224"
         offset="1"
         style="stop-opacity:1;stop-color:#d1d3d4" /></linearGradient><clipPath
       id="clipPath232"
       clipPathUnits="userSpaceOnUse"><path
         id="path234"
         d="M 0,256 256,256 256,0 0,0 0,256 Z" /></clipPath><clipPath
       id="clipPath244"
       clipPathUnits="userSpaceOnUse"><path
         id="path246"
         d="m 150,102 0,-4 c 0,-1.1 0.9,-2 2,-2 l 0,0 c 1.1,0 2,0.9 2,2 l 0,0 0,4 c 0,1.1 -0.9,2 -2,2 l 0,0 c -1.1,0 -2,-0.9 -2,-2" /></clipPath><linearGradient
       id="linearGradient252"
       spreadMethod="pad"
       gradientTransform="matrix(4.8250012,-4.8250012,-4.8250012,-4.8250012,149.58749,102.4125)"
       gradientUnits="userSpaceOnUse"
       y2="0"
       x2="1"
       y1="0"
       x1="0"><stop
         id="stop254"
         offset="0"
         style="stop-opacity:1;stop-color:#e6e7e8" /><stop
         id="stop256"
         offset="1"
         style="stop-opacity:1;stop-color:#d1d3d4" /></linearGradient><clipPath
       id="clipPath264"
       clipPathUnits="userSpaceOnUse"><path
         id="path266"
         d="M 0,256 256,256 256,0 0,0 0,256 Z" /></clipPath><clipPath
       id="clipPath276"
       clipPathUnits="userSpaceOnUse"><path
         id="path278"
         d="m 83.849,216 c -1.044,0 -1.912,-0.803 -1.993,-1.843 l 0,0 -7.696,-98.004 C 74.073,113.886 75.887,112 78.157,112 l 0,0 105.765,0 c 1.134,0 2.042,0.944 1.998,2.077 l 0,0 -3.846,100 c -0.042,1.074 -0.924,1.923 -1.998,1.923 l 0,0 -96.227,0 z" /></clipPath><linearGradient
       id="linearGradient284"
       spreadMethod="pad"
       gradientTransform="matrix(-102.86468,102.86468,102.86468,102.86468,182.72597,109.97594)"
       gradientUnits="userSpaceOnUse"
       y2="0"
       x2="1"
       y1="0"
       x1="0"><stop
         id="stop286"
         offset="0"
         style="stop-opacity:1;stop-color:#e6e7e8" /><stop
         id="stop288"
         offset="1"
         style="stop-opacity:1;stop-color:#d1d3d4" /></linearGradient><clipPath
       id="clipPath296"
       clipPathUnits="userSpaceOnUse"><path
         id="path298"
         d="M 0,256 256,256 256,0 0,0 0,256 Z" /></clipPath><clipPath
       id="clipPath316"
       clipPathUnits="userSpaceOnUse"><path
         id="path318"
         d="m 116,220 32,0 0,20.001 -32,0 0,-20.001 z" /></clipPath><linearGradient
       id="linearGradient324"
       spreadMethod="pad"
       gradientTransform="matrix(-26,26,26,26,145,217)"
       gradientUnits="userSpaceOnUse"
       y2="0"
       x2="1"
       y1="0"
       x1="0"><stop
         id="stop326"
         offset="0"
         style="stop-opacity:1;stop-color:#e6e7e8" /><stop
         id="stop328"
         offset="1"
         style="stop-opacity:1;stop-color:#d1d3d4" /></linearGradient><clipPath
       id="clipPath336"
       clipPathUnits="userSpaceOnUse"><path
         id="path338"
         d="M 80.453,72 C 77.998,72 76,70.476 76,68.604 l 0,0 0,-45.208 C 76,21.523 77.998,20 80.453,20 l 0,0 47.094,0 c 2.455,0 4.453,1.523 4.453,3.396 l 0,0 0,45.208 C 132,70.476 130.002,72 127.547,72 l 0,0 -47.094,0 z" /></clipPath><linearGradient
       id="linearGradient344"
       spreadMethod="pad"
       gradientTransform="matrix(51.749023,-51.749023,-51.749023,-51.749023,78.125488,71.874512)"
       gradientUnits="userSpaceOnUse"
       y2="0"
       x2="1"
       y1="0"
       x1="0"><stop
         id="stop346"
         offset="0"
         style="stop-opacity:1;stop-color:#e6e7e8" /><stop
         id="stop348"
         offset="1"
         style="stop-opacity:1;stop-color:#d1d3d4" /></linearGradient><clipPath
       id="clipPath356"
       clipPathUnits="userSpaceOnUse"><path
         id="path358"
         d="M 0,256 256,256 256,0 0,0 0,256 Z" /></clipPath></defs><g
     transform="matrix(1.25,0,0,-1.25,0,320)"
     id="g10"><g
       id="g12"><g
         clip-path="url(#clipPath16)"
         id="g14"><g
           id="g20"><g
             id="g22"><path
               id="path30"
               style="fill:url(#linearGradient24);stroke:none"
               d="m 188,12 -116,0 0,64 116,0 0,-64 z" /></g></g></g></g><g
       id="g32"><g
         clip-path="url(#clipPath36)"
         id="g34"><g
           id="g40"><g
             id="g42"><path
               id="path50"
               style="fill:url(#linearGradient44);stroke:none"
               d="m 144,72 c -2.201,0 -4,-1.8 -4,-4 l 0,0 0,-12 c 0,-2.2 1.799,-4 4,-4 l 0,0 32,0 c 2.2,0 4,1.8 4,4 l 0,0 0,12 c 0,2.2 -1.8,4 -4,4 l 0,0 -32,0 z" /></g></g></g></g><g
       id="g52"><g
         clip-path="url(#clipPath56)"
         id="g54"><g
           id="g60"><g
             id="g62"><path
               id="path70"
               style="fill:url(#linearGradient64);stroke:none"
               d="m 144,48 c -2.201,0 -4,-1.799 -4,-4 l 0,0 0,-20 c 0,-2.2 1.799,-4 4,-4 l 0,0 32,0 c 2.2,0 4,1.8 4,4 l 0,0 0,20 c 0,2.201 -1.8,4 -4,4 l 0,0 -32,0 z" /></g></g></g></g><g
       id="g72"><g
         clip-path="url(#clipPath76)"
         id="g74"><g
           id="g80"><g
             id="g82"><path
               id="path90"
               style="fill:url(#linearGradient84);stroke:none"
               d="m 114,244 -30,-4 -5.335,-6.671 c -0.44,-0.879 -0.713,-1.83 -0.808,-2.808 l 0,0 L 66,108 l 128,0 -7.895,122.385 c -0.07,1.065 -0.351,2.107 -0.828,3.062 l 0,0 L 180,240 l -30,4 -36,0 z" /></g></g></g></g><g
       id="g92"><g
         clip-path="url(#clipPath96)"
         id="g94"><g
           id="g100"><g
             id="g102"><path
               id="path110"
               style="fill:url(#linearGradient104);stroke:none"
               d="m 58,88 0,-8 c 0,-2.209 1.791,-4 4,-4 l 0,0 132,0 c 2.209,0 4,1.791 4,4 l 0,0 0,8 -140,0 z" /></g></g></g></g><g
       id="g112"><g
         clip-path="url(#clipPath116)"
         id="g114"><g
           id="g120"><g
             id="g122"><path
               id="path130"
               style="fill:url(#linearGradient124);stroke:none"
               d="m 66,112 -8,-24 72,-4 68,4 -4,24 -128,0 z" /></g></g></g></g><g
       id="g132"><g
         clip-path="url(#clipPath136)"
         id="g134"><g
           transform="translate(69.5439,102.6328)"
           id="g140"><path
             id="path142"
             style="fill:#999999;fill-opacity:1;fill-rule:nonzero;stroke:none"
             d="m 0,0 -2.722,-8.166 c -0.415,-1.246 0.462,-2.547 1.773,-2.629 l 53.155,-3.322 c 5.494,-0.344 11.005,-0.332 16.498,0.034 l 49.169,3.278 c 1.307,0.087 2.179,1.386 1.765,2.628 L 116.912,0 c -0.272,0.816 -1.037,1.367 -1.897,1.367 l -113.118,0 C 1.037,1.367 0.272,0.816 0,0" /></g><g
           transform="translate(186,100)"
           id="g144"><path
             id="path146"
             style="fill:#ffffff;fill-opacity:1;fill-rule:nonzero;stroke:none"
             d="m 0,0 c 0,-1.104 -1.343,-2 -3,-2 -1.657,0 -3,0.896 -3,2 0,1.104 1.343,2 3,2 1.657,0 3,-0.896 3,-2" /></g><g
           transform="translate(182,94)"
           id="g148"><path
             id="path150"
             style="fill:#ffffff;fill-opacity:1;fill-rule:nonzero;stroke:none"
             d="m 0,0 c 0,-1.104 -1.343,-2 -3,-2 -1.657,0 -3,0.896 -3,2 0,1.104 1.343,2 3,2 1.657,0 3,-0.896 3,-2" /></g><g
           transform="translate(178,100)"
           id="g152"><path
             id="path154"
             style="fill:#ffffff;fill-opacity:1;fill-rule:nonzero;stroke:none"
             d="m 0,0 c 0,-1.104 -1.343,-2 -3,-2 -1.657,0 -3,0.896 -3,2 0,1.104 1.343,2 3,2 1.657,0 3,-0.896 3,-2" /></g><g
           transform="translate(174,94)"
           id="g156"><path
             id="path158"
             style="fill:#ffffff;fill-opacity:1;fill-rule:nonzero;stroke:none"
             d="m 0,0 c 0,-1.104 -1.343,-2 -3,-2 -1.657,0 -3,0.896 -3,2 0,1.104 1.343,2 3,2 1.657,0 3,-0.896 3,-2" /></g><g
           transform="translate(170,100)"
           id="g160"><path
             id="path162"
             style="fill:#ffffff;fill-opacity:1;fill-rule:nonzero;stroke:none"
             d="m 0,0 c 0,-1.104 -1.343,-2 -3,-2 -1.657,0 -3,0.896 -3,2 0,1.104 1.343,2 3,2 1.657,0 3,-0.896 3,-2" /></g><g
           transform="translate(137,98)"
           id="g164"><path
             id="path166"
             style="fill:#ffffff;fill-opacity:1;fill-rule:nonzero;stroke:none"
             d="m 0,0 c 0,-1.104 -1.343,-2 -3,-2 -1.657,0 -3,0.896 -3,2 0,1.104 1.343,2 3,2 1.657,0 3,-0.896 3,-2" /></g><g
           transform="translate(129,98)"
           id="g168"><path
             id="path170"
             style="fill:#ffffff;fill-opacity:1;fill-rule:nonzero;stroke:none"
             d="m 0,0 c 0,-1.104 -1.343,-2 -3,-2 -1.657,0 -3,0.896 -3,2 0,1.104 1.343,2 3,2 1.657,0 3,-0.896 3,-2" /></g><g
           transform="translate(166,94)"
           id="g172"><path
             id="path174"
             style="fill:#ffffff;fill-opacity:1;fill-rule:nonzero;stroke:none"
             d="m 0,0 c 0,-1.104 -1.343,-2 -3,-2 -1.657,0 -3,0.896 -3,2 0,1.104 1.343,2 3,2 1.657,0 3,-0.896 3,-2" /></g><g
           transform="translate(114,100)"
           id="g176"><path
             id="path178"
             style="fill:#ffffff;fill-opacity:1;fill-rule:nonzero;stroke:none"
             d="m 0,0 c 0,-1.104 -1.343,-2 -3,-2 -1.657,0 -3,0.896 -3,2 0,1.104 1.343,2 3,2 1.657,0 3,-0.896 3,-2" /></g><g
           transform="translate(110,94)"
           id="g180"><path
             id="path182"
             style="fill:#ffffff;fill-opacity:1;fill-rule:nonzero;stroke:none"
             d="m 0,0 c 0,-1.104 -1.343,-2 -3,-2 -1.657,0 -3,0.896 -3,2 0,1.104 1.343,2 3,2 1.657,0 3,-0.896 3,-2" /></g><g
           transform="translate(106,100)"
           id="g184"><path
             id="path186"
             style="fill:#ffffff;fill-opacity:1;fill-rule:nonzero;stroke:none"
             d="m 0,0 c 0,-1.104 -1.343,-2 -3,-2 -1.657,0 -3,0.896 -3,2 0,1.104 1.343,2 3,2 1.657,0 3,-0.896 3,-2" /></g><g
           transform="translate(102,94)"
           id="g188"><path
             id="path190"
             style="fill:#ffffff;fill-opacity:1;fill-rule:nonzero;stroke:none"
             d="m 0,0 c 0,-1.104 -1.343,-2 -3,-2 -1.657,0 -3,0.896 -3,2 0,1.104 1.343,2 3,2 1.657,0 3,-0.896 3,-2" /></g><g
           transform="translate(98,100)"
           id="g192"><path
             id="path194"
             style="fill:#ffffff;fill-opacity:1;fill-rule:nonzero;stroke:none"
             d="m 0,0 c 0,-1.104 -1.343,-2 -3,-2 -1.657,0 -3,0.896 -3,2 0,1.104 1.343,2 3,2 1.657,0 3,-0.896 3,-2" /></g><g
           transform="translate(94,94)"
           id="g196"><path
             id="path198"
             style="fill:#ffffff;fill-opacity:1;fill-rule:nonzero;stroke:none"
             d="m 0,0 c 0,-1.104 -1.343,-2 -3,-2 -1.657,0 -3,0.896 -3,2 0,1.104 1.343,2 3,2 1.657,0 3,-0.896 3,-2" /></g><g
           transform="translate(158,97)"
           id="g200"><path
             id="path202"
             style="fill:#ffffff;fill-opacity:1;fill-rule:nonzero;stroke:none"
             d="m 0,0 c 0,-1.657 -2.687,-3 -6,-3 -3.313,0 -6,1.343 -6,3 0,1.657 2.687,3 6,3 3.313,0 6,-1.343 6,-3" /></g><g
           transform="translate(86,97)"
           id="g204"><path
             id="path206"
             style="fill:#ffffff;fill-opacity:1;fill-rule:nonzero;stroke:none"
             d="m 0,0 c 0,-1.657 -2.687,-3 -6,-3 -3.313,0 -6,1.343 -6,3 0,1.657 2.687,3 6,3 3.313,0 6,-1.343 6,-3" /></g></g></g><g
       id="g208"><g
         clip-path="url(#clipPath212)"
         id="g210"><g
           id="g216"><g
             id="g218"><path
               id="path226"
               style="fill:url(#linearGradient220);stroke:none"
               d="m 78,102 0,-4 c 0,-1.1 0.9,-2 2,-2 l 0,0 c 1.1,0 2,0.9 2,2 l 0,0 0,4 c 0,1.1 -0.9,2 -2,2 l 0,0 c -1.1,0 -2,-0.9 -2,-2" /></g></g></g></g><g
       id="g228"><g
         clip-path="url(#clipPath232)"
         id="g230"><g
           transform="translate(84,104)"
           id="g236"><path
             id="path238"
             style="fill:#ffffff;fill-opacity:1;fill-rule:nonzero;stroke:none"
             d="m 0,0 c 0,-2.209 -1.791,-4 -4,-4 -2.209,0 -4,1.791 -4,4 0,2.209 1.791,4 4,4 2.209,0 4,-1.791 4,-4" /></g></g></g><g
       id="g240"><g
         clip-path="url(#clipPath244)"
         id="g242"><g
           id="g248"><g
             id="g250"><path
               id="path258"
               style="fill:url(#linearGradient252);stroke:none"
               d="m 150,102 0,-4 c 0,-1.1 0.9,-2 2,-2 l 0,0 c 1.1,0 2,0.9 2,2 l 0,0 0,4 c 0,1.1 -0.9,2 -2,2 l 0,0 c -1.1,0 -2,-0.9 -2,-2" /></g></g></g></g><g
       id="g260"><g
         clip-path="url(#clipPath264)"
         id="g262"><g
           transform="translate(156,104)"
           id="g268"><path
             id="path270"
             style="fill:#ffffff;fill-opacity:1;fill-rule:nonzero;stroke:none"
             d="m 0,0 c 0,-2.209 -1.791,-4 -4,-4 -2.209,0 -4,1.791 -4,4 0,2.209 1.791,4 4,4 2.209,0 4,-1.791 4,-4" /></g></g></g><g
       id="g272"><g
         clip-path="url(#clipPath276)"
         id="g274"><g
           id="g280"><g
             id="g282"><path
               id="path290"
               style="fill:url(#linearGradient284);stroke:none"
               d="m 83.849,216 c -1.044,0 -1.912,-0.803 -1.993,-1.843 l 0,0 -7.696,-98.004 C 74.073,113.886 75.887,112 78.157,112 l 0,0 105.765,0 c 1.134,0 2.042,0.944 1.998,2.077 l 0,0 -3.846,100 c -0.042,1.074 -0.924,1.923 -1.998,1.923 l 0,0 -96.227,0 z" /></g></g></g></g><g
       id="g292"><g
         clip-path="url(#clipPath296)"
         id="g294"><g
           transform="translate(173.7715,128)"
           id="g300"><path
             id="path302"
             style="fill:#999999;fill-opacity:1;fill-rule:nonzero;stroke:none"
             d="m 0,0 -87.543,0 c -2.296,0 -4.122,1.929 -3.994,4.222 l 3.556,64 c 0.117,2.119 1.871,3.778 3.994,3.778 l 80.431,0 c 2.123,0 3.876,-1.659 3.994,-3.778 l 3.556,-64 C 4.121,1.929 2.297,0 0,0" /></g><g
           transform="translate(112,220)"
           id="g304"><path
             id="path306"
             style="fill:#999999;fill-opacity:1;fill-rule:nonzero;stroke:none"
             d="M 0,0 -28,4 -28,24 0,24 0,0 Z" /></g><g
           transform="translate(152,220)"
           id="g308"><path
             id="path310"
             style="fill:#999999;fill-opacity:1;fill-rule:nonzero;stroke:none"
             d="M 0,0 28,4 28,24 0,24 0,0 Z" /></g></g></g><g
       id="g312"><g
         clip-path="url(#clipPath316)"
         id="g314"><g
           id="g320"><g
             id="g322"><path
               id="path330"
               style="fill:url(#linearGradient324);stroke:none"
               d="m 116,220 32,0 0,20.001 -32,0 0,-20.001 z" /></g></g></g></g><g
       id="g332"><g
         clip-path="url(#clipPath336)"
         id="g334"><g
           id="g340"><g
             id="g342"><path
               id="path350"
               style="fill:url(#linearGradient344);stroke:none"
               d="M 80.453,72 C 77.998,72 76,70.476 76,68.604 l 0,0 0,-45.208 C 76,21.523 77.998,20 80.453,20 l 0,0 47.094,0 c 2.455,0 4.453,1.523 4.453,3.396 l 0,0 0,45.208 C 132,70.476 130.002,72 127.547,72 l 0,0 -47.094,0 z" /></g></g></g></g><g
       id="g352"><g
         clip-path="url(#clipPath356)"
         id="g354"><path
           id="path360"
           style="fill:#999999;fill-opacity:1;fill-rule:nonzero;stroke:none"
           d="m 176,56 -4,0 0,4 4,0 0,-4 z" /><g
           transform="translate(160,66)"
           id="g362"><path
             id="path364"
             style="fill:#999999;fill-opacity:1;fill-rule:nonzero;stroke:none"
             d="m 0,0 c 0,-1.104 -0.896,-2 -2,-2 -1.104,0 -2,0.896 -2,2 0,1.104 0.896,2 2,2 1.104,0 2,-0.896 2,-2" /></g><g
           transform="translate(108,66)"
           id="g366"><path
             id="path368"
             style="fill:#999999;fill-opacity:1;fill-rule:nonzero;stroke:none"
             d="m 0,0 c 0,-1.104 -0.896,-2 -2,-2 -1.104,0 -2,0.896 -2,2 0,1.104 0.896,2 2,2 1.104,0 2,-0.896 2,-2" /></g><g
           transform="translate(148,34)"
           id="g370"><path
             id="path372"
             style="fill:#999999;fill-opacity:1;fill-rule:nonzero;stroke:none"
             d="m 0,0 c 0,-1.104 -0.896,-2 -2,-2 -1.104,0 -2,0.896 -2,2 0,1.104 0.896,2 2,2 1.104,0 2,-0.896 2,-2" /></g></g></g></g></svg>