<?xml version="1.0" encoding="UTF-8" standalone="no"?>
<svg
   xmlns:dc="http://purl.org/dc/elements/1.1/"
   xmlns:cc="http://creativecommons.org/ns#"
   xmlns:rdf="http://www.w3.org/1999/02/22-rdf-syntax-ns#"
   xmlns:svg="http://www.w3.org/2000/svg"
   xmlns="http://www.w3.org/2000/svg"
   viewBox="0 0 320 320"
   height="320"
   width="320"
   xml:space="preserve"
   version="1.1"
   id="svg2"><metadata
     id="metadata8"><rdf:RDF><cc:Work
         rdf:about=""><dc:format>image/svg+xml</dc:format><dc:type
           rdf:resource="http://purl.org/dc/dcmitype/StillImage" /></cc:Work></rdf:RDF></metadata><defs
     id="defs6"><clipPath
       id="clipPath18"
       clipPathUnits="userSpaceOnUse"><path
         id="path20"
         d="m 168,212 -80,0 0,-28 80,0 0,28 z" /></clipPath><linearGradient
       id="linearGradient26"
       spreadMethod="pad"
       gradientTransform="matrix(53.999996,-53.999996,-53.999996,-53.999996,101,225)"
       gradientUnits="userSpaceOnUse"
       y2="0"
       x2="1"
       y1="0"
       x1="0"><stop
         id="stop28"
         offset="0"
         style="stop-opacity:1;stop-color:#e6e7e8" /><stop
         id="stop30"
         offset="1"
         style="stop-opacity:1;stop-color:#d1d3d4" /></linearGradient><clipPath
       id="clipPath38"
       clipPathUnits="userSpaceOnUse"><path
         id="path40"
         d="m 85.441,132 c -0.861,0 -1.625,-0.551 -1.897,-1.368 l 0,0 L 80,120 l 12,-4 72,0 12,4 -3.544,10.632 c -0.272,0.817 -1.037,1.368 -1.897,1.368 l 0,0 -85.118,0 z" /></clipPath><linearGradient
       id="linearGradient46"
       spreadMethod="pad"
       gradientTransform="matrix(-51.693489,51.693489,51.693489,51.693489,153.84674,97.846748)"
       gradientUnits="userSpaceOnUse"
       y2="0"
       x2="1"
       y1="0"
       x1="0"><stop
         id="stop48"
         offset="0"
         style="stop-opacity:1;stop-color:#e6e7e8" /><stop
         id="stop50"
         offset="1"
         style="stop-opacity:1;stop-color:#d1d3d4" /></linearGradient><clipPath
       id="clipPath58"
       clipPathUnits="userSpaceOnUse"><path
         id="path60"
         d="m 88,12 80,0 0,92.001 -80,0 L 88,12 Z" /></clipPath><linearGradient
       id="linearGradient66"
       spreadMethod="pad"
       gradientTransform="matrix(-84.575874,87.580879,87.580879,84.575874,170.2878,14.209562)"
       gradientUnits="userSpaceOnUse"
       y2="0"
       x2="1"
       y1="0"
       x1="0"><stop
         id="stop68"
         offset="0"
         style="stop-opacity:1;stop-color:#e6e7e8" /><stop
         id="stop70"
         offset="1"
         style="stop-opacity:1;stop-color:#d1d3d4" /></linearGradient><clipPath
       id="clipPath78"
       clipPathUnits="userSpaceOnUse"><path
         id="path80"
         d="m 88,12 80,0 0,92.001 -80,0 L 88,12 Z m 2,89.81 76,0 0,-87.619 -76,0 0,87.619 z" /></clipPath><linearGradient
       id="linearGradient86"
       spreadMethod="pad"
       gradientTransform="matrix(85.999863,-85.999863,-85.999863,-85.999863,84.999931,100.99993)"
       gradientUnits="userSpaceOnUse"
       y2="0"
       x2="1"
       y1="0"
       x1="0"><stop
         id="stop88"
         offset="0"
         style="stop-opacity:1;stop-color:#e6e7e8" /><stop
         id="stop90"
         offset="1"
         style="stop-opacity:1;stop-color:#d1d3d4" /></linearGradient><clipPath
       id="clipPath98"
       clipPathUnits="userSpaceOnUse"><path
         id="path100"
         d="M 118.719,80 C 117.223,80 116,78.776 116,77.281 l 0,0 0,-46.562 C 116,29.224 117.223,28 118.719,28 l 0,0 18.562,0 c 1.495,0 2.719,1.224 2.719,2.719 l 0,0 0,46.562 C 140,78.776 138.776,80 137.281,80 l 0,0 -18.562,0 z" /></clipPath><linearGradient
       id="linearGradient106"
       spreadMethod="pad"
       gradientTransform="matrix(36.402737,-36.402737,-36.402737,-36.402737,109.79848,72.20137)"
       gradientUnits="userSpaceOnUse"
       y2="0"
       x2="1"
       y1="0"
       x1="0"><stop
         id="stop108"
         offset="0"
         style="stop-opacity:1;stop-color:#e6e7e8" /><stop
         id="stop110"
         offset="1"
         style="stop-opacity:1;stop-color:#d1d3d4" /></linearGradient><clipPath
       id="clipPath118"
       clipPathUnits="userSpaceOnUse"><path
         id="path120"
         d="m 118,55.959 20,0 0,20.01 -20,0 0,-20.01 z m 2,18.009 16,0 0,-16.009 -16,0 0,16.009 z" /></clipPath><linearGradient
       id="linearGradient126"
       spreadMethod="pad"
       gradientTransform="matrix(-20.004913,20.004913,20.004913,20.004913,138.0023,55.96138)"
       gradientUnits="userSpaceOnUse"
       y2="0"
       x2="1"
       y1="0"
       x1="0"><stop
         id="stop128"
         offset="0"
         style="stop-opacity:1;stop-color:#e6e7e8" /><stop
         id="stop130"
         offset="1"
         style="stop-opacity:1;stop-color:#d1d3d4" /></linearGradient><clipPath
       id="clipPath138"
       clipPathUnits="userSpaceOnUse"><path
         id="path140"
         d="m 118,32 20,0 0,20.01 -20,0 0,-20.01 z m 2,18.009 16,0 0,-16.009 -16,0 0,16.009 z" /></clipPath><linearGradient
       id="linearGradient146"
       spreadMethod="pad"
       gradientTransform="matrix(-20.004913,20.004913,20.004913,20.004913,138.0023,32.002457)"
       gradientUnits="userSpaceOnUse"
       y2="0"
       x2="1"
       y1="0"
       x1="0"><stop
         id="stop148"
         offset="0"
         style="stop-opacity:1;stop-color:#e6e7e8" /><stop
         id="stop150"
         offset="1"
         style="stop-opacity:1;stop-color:#d1d3d4" /></linearGradient><clipPath
       id="clipPath158"
       clipPathUnits="userSpaceOnUse"><path
         id="path160"
         d="M 0,256 256,256 256,0 0,0 0,256 Z" /></clipPath><clipPath
       id="clipPath174"
       clipPathUnits="userSpaceOnUse"><path
         id="path176"
         d="m 88,220 80,0 0,24 -80,0 0,-24 z" /></clipPath><linearGradient
       id="linearGradient182"
       spreadMethod="pad"
       gradientTransform="matrix(-52,52,52,52,154,206)"
       gradientUnits="userSpaceOnUse"
       y2="0"
       x2="1"
       y1="0"
       x1="0"><stop
         id="stop184"
         offset="0"
         style="stop-opacity:1;stop-color:#e6e7e8" /><stop
         id="stop186"
         offset="1"
         style="stop-opacity:1;stop-color:#d1d3d4" /></linearGradient><clipPath
       id="clipPath194"
       clipPathUnits="userSpaceOnUse"><path
         id="path196"
         d="m 116,215 24,0 0,2 -24,0 0,-2 z" /></clipPath><linearGradient
       id="linearGradient202"
       spreadMethod="pad"
       gradientTransform="matrix(13,-13,-13,-13,121.5,222.5)"
       gradientUnits="userSpaceOnUse"
       y2="0"
       x2="1"
       y1="0"
       x1="0"><stop
         id="stop204"
         offset="0"
         style="stop-opacity:1;stop-color:#e6e7e8" /><stop
         id="stop206"
         offset="1"
         style="stop-opacity:1;stop-color:#d1d3d4" /></linearGradient><clipPath
       id="clipPath214"
       clipPathUnits="userSpaceOnUse"><path
         id="path216"
         d="m 88,220 80,0 0,24 -80,0 0,-24 z m 2,21.6 76,0 0,-19.201 -76,0 0,19.201 z" /></clipPath><linearGradient
       id="linearGradient222"
       spreadMethod="pad"
       gradientTransform="matrix(52,-52,-52,-52,102,258)"
       gradientUnits="userSpaceOnUse"
       y2="0"
       x2="1"
       y1="0"
       x1="0"><stop
         id="stop224"
         offset="0"
         style="stop-opacity:1;stop-color:#e6e7e8" /><stop
         id="stop226"
         offset="1"
         style="stop-opacity:1;stop-color:#d1d3d4" /></linearGradient><clipPath
       id="clipPath234"
       clipPathUnits="userSpaceOnUse"><path
         id="path236"
         d="m 90,186 76,0 0,23.999 -76,0 L 90,186 Z" /></clipPath><linearGradient
       id="linearGradient242"
       spreadMethod="pad"
       gradientTransform="matrix(-50,50,50,50,153,173)"
       gradientUnits="userSpaceOnUse"
       y2="0"
       x2="1"
       y1="0"
       x1="0"><stop
         id="stop244"
         offset="0"
         style="stop-opacity:1;stop-color:#e6e7e8" /><stop
         id="stop246"
         offset="1"
         style="stop-opacity:1;stop-color:#d1d3d4" /></linearGradient><clipPath
       id="clipPath254"
       clipPathUnits="userSpaceOnUse"><path
         id="path256"
         d="M 0,256 256,256 256,0 0,0 0,256 Z" /></clipPath><clipPath
       id="clipPath340"
       clipPathUnits="userSpaceOnUse"><path
         id="path342"
         d="m 164,116 -72,0 -12,4 0,-18.558 c 0,-0.861 0.551,-1.626 1.368,-1.898 l 0,0 L 92,96 l 72,0 10.632,3.544 c 0.818,0.272 1.368,1.037 1.368,1.898 l 0,0 0,18.558 -12,-4 z" /></clipPath><linearGradient
       id="linearGradient348"
       spreadMethod="pad"
       gradientTransform="matrix(-57.693493,57.693493,57.693493,57.693493,156.84674,81.459763)"
       gradientUnits="userSpaceOnUse"
       y2="0"
       x2="1"
       y1="0"
       x1="0"><stop
         id="stop350"
         offset="0"
         style="stop-opacity:1;stop-color:#e6e7e8" /><stop
         id="stop352"
         offset="1"
         style="stop-opacity:1;stop-color:#d1d3d4" /></linearGradient><clipPath
       id="clipPath360"
       clipPathUnits="userSpaceOnUse"><path
         id="path362"
         d="m 92,96 72,0 0,20 -72,0 0,-20 z" /></clipPath><linearGradient
       id="linearGradient368"
       spreadMethod="pad"
       gradientTransform="matrix(46,-46,-46,-46,105,129)"
       gradientUnits="userSpaceOnUse"
       y2="0"
       x2="1"
       y1="0"
       x1="0"><stop
         id="stop370"
         offset="0"
         style="stop-opacity:1;stop-color:#e6e7e8" /><stop
         id="stop372"
         offset="1"
         style="stop-opacity:1;stop-color:#d1d3d4" /></linearGradient><clipPath
       id="clipPath380"
       clipPathUnits="userSpaceOnUse"><path
         id="path382"
         d="m 92,184 -4,-52 80,0 -4,52 -72,0 z" /></clipPath><linearGradient
       id="linearGradient388"
       spreadMethod="pad"
       gradientTransform="matrix(63.999996,-63.999996,-63.999996,-63.999996,96,188)"
       gradientUnits="userSpaceOnUse"
       y2="0"
       x2="1"
       y1="0"
       x1="0"><stop
         id="stop390"
         offset="0"
         style="stop-opacity:1;stop-color:#e6e7e8" /><stop
         id="stop392"
         offset="1"
         style="stop-opacity:1;stop-color:#d1d3d4" /></linearGradient><clipPath
       id="clipPath400"
       clipPathUnits="userSpaceOnUse"><path
         id="path402"
         d="M 0,256 256,256 256,0 0,0 0,256 Z" /></clipPath></defs><g
     transform="matrix(1.25,0,0,-1.25,0,320)"
     id="g10"><path
       id="path12"
       style="fill:#999999;fill-opacity:1;fill-rule:nonzero;stroke:none"
       d="m 136,208 -16,0 0,16 16,0 0,-16 z" /><g
       id="g14"><g
         clip-path="url(#clipPath18)"
         id="g16"><g
           id="g22"><g
             id="g24"><path
               id="path32"
               style="fill:url(#linearGradient26);stroke:none"
               d="m 168,212 -80,0 0,-28 80,0 0,28 z" /></g></g></g></g><g
       id="g34"><g
         clip-path="url(#clipPath38)"
         id="g36"><g
           id="g42"><g
             id="g44"><path
               id="path52"
               style="fill:url(#linearGradient46);stroke:none"
               d="m 85.441,132 c -0.861,0 -1.625,-0.551 -1.897,-1.368 l 0,0 L 80,120 l 12,-4 72,0 12,4 -3.544,10.632 c -0.272,0.817 -1.037,1.368 -1.897,1.368 l 0,0 -85.118,0 z" /></g></g></g></g><g
       id="g54"><g
         clip-path="url(#clipPath58)"
         id="g56"><g
           id="g62"><g
             id="g64"><path
               id="path72"
               style="fill:url(#linearGradient66);stroke:none"
               d="m 88,12 80,0 0,92.001 -80,0 L 88,12 Z" /></g></g></g></g><g
       id="g74"><g
         clip-path="url(#clipPath78)"
         id="g76"><g
           id="g82"><g
             id="g84"><path
               id="path92"
               style="fill:url(#linearGradient86);stroke:none"
               d="m 88,12 80,0 0,92.001 -80,0 L 88,12 Z m 2,89.81 76,0 0,-87.619 -76,0 0,87.619 z" /></g></g></g></g><g
       id="g94"><g
         clip-path="url(#clipPath98)"
         id="g96"><g
           id="g102"><g
             id="g104"><path
               id="path112"
               style="fill:url(#linearGradient106);stroke:none"
               d="M 118.719,80 C 117.223,80 116,78.776 116,77.281 l 0,0 0,-46.562 C 116,29.224 117.223,28 118.719,28 l 0,0 18.562,0 c 1.495,0 2.719,1.224 2.719,2.719 l 0,0 0,46.562 C 140,78.776 138.776,80 137.281,80 l 0,0 -18.562,0 z" /></g></g></g></g><g
       id="g114"><g
         clip-path="url(#clipPath118)"
         id="g116"><g
           id="g122"><g
             id="g124"><path
               id="path132"
               style="fill:url(#linearGradient126);stroke:none"
               d="m 118,55.959 20,0 0,20.01 -20,0 0,-20.01 z m 2,18.009 16,0 0,-16.009 -16,0 0,16.009 z" /></g></g></g></g><g
       id="g134"><g
         clip-path="url(#clipPath138)"
         id="g136"><g
           id="g142"><g
             id="g144"><path
               id="path152"
               style="fill:url(#linearGradient146);stroke:none"
               d="m 118,32 20,0 0,20.01 -20,0 0,-20.01 z m 2,18.009 16,0 0,-16.009 -16,0 0,16.009 z" /></g></g></g></g><g
       id="g154"><g
         clip-path="url(#clipPath158)"
         id="g156"><path
           id="path162"
           style="fill:#999999;fill-opacity:1;fill-rule:nonzero;stroke:none"
           d="m 126,68 -4,0 0,4 4,0 0,-4 z" /><path
           id="path164"
           style="fill:#999999;fill-opacity:1;fill-rule:nonzero;stroke:none"
           d="m 134,68 -4,0 0,4 4,0 0,-4 z" /><path
           id="path166"
           style="fill:#999999;fill-opacity:1;fill-rule:nonzero;stroke:none"
           d="m 126,60 -4,0 0,4 4,0 0,-4 z" /><path
           id="path168"
           style="fill:#999999;fill-opacity:1;fill-rule:nonzero;stroke:none"
           d="m 134,60 -4,0 0,4 4,0 0,-4 z" /></g></g><g
       id="g170"><g
         clip-path="url(#clipPath174)"
         id="g172"><g
           id="g178"><g
             id="g180"><path
               id="path188"
               style="fill:url(#linearGradient182);stroke:none"
               d="m 88,220 80,0 0,24 -80,0 0,-24 z" /></g></g></g></g><g
       id="g190"><g
         clip-path="url(#clipPath194)"
         id="g192"><g
           id="g198"><g
             id="g200"><path
               id="path208"
               style="fill:url(#linearGradient202);stroke:none"
               d="m 116,215 24,0 0,2 -24,0 0,-2 z" /></g></g></g></g><g
       id="g210"><g
         clip-path="url(#clipPath214)"
         id="g212"><g
           id="g218"><g
             id="g220"><path
               id="path228"
               style="fill:url(#linearGradient222);stroke:none"
               d="m 88,220 80,0 0,24 -80,0 0,-24 z m 2,21.6 76,0 0,-19.201 -76,0 0,19.201 z" /></g></g></g></g><g
       id="g230"><g
         clip-path="url(#clipPath234)"
         id="g232"><g
           id="g238"><g
             id="g240"><path
               id="path248"
               style="fill:url(#linearGradient242);stroke:none"
               d="m 90,186 76,0 0,23.999 -76,0 L 90,186 Z" /></g></g></g></g><g
       id="g250"><g
         clip-path="url(#clipPath254)"
         id="g252"><path
           id="path258"
           style="fill:#999999;fill-opacity:1;fill-rule:nonzero;stroke:none"
           d="m 116,188 -24,0 0,20 24,0 0,-20 z" /><path
           id="path260"
           style="fill:#999999;fill-opacity:1;fill-rule:nonzero;stroke:none"
           d="m 164,188 -24,0 0,20 24,0 0,-20 z" /><path
           id="path262"
           style="fill:#ffffff;fill-opacity:1;fill-rule:nonzero;stroke:none"
           d="m 134,196 -12,0 0,4 12,0 0,-4 z" /><g
           transform="translate(114,125)"
           id="g264"><path
             id="path266"
             style="fill:#999999;fill-opacity:1;fill-rule:nonzero;stroke:none"
             d="m 0,0 c 0,-0.553 -0.896,-1 -2,-1 -1.104,0 -2,0.447 -2,1 0,0.553 0.896,1 2,1 1.104,0 2,-0.447 2,-1" /></g><g
           transform="translate(120,125)"
           id="g268"><path
             id="path270"
             style="fill:#999999;fill-opacity:1;fill-rule:nonzero;stroke:none"
             d="m 0,0 c 0,-0.553 -0.896,-1 -2,-1 -1.104,0 -2,0.447 -2,1 0,0.553 0.896,1 2,1 1.104,0 2,-0.447 2,-1" /></g><g
           transform="translate(104,129)"
           id="g272"><path
             id="path274"
             style="fill:#999999;fill-opacity:1;fill-rule:nonzero;stroke:none"
             d="m 0,0 c 0,-0.552 -0.896,-1 -2,-1 -1.104,0 -2,0.448 -2,1 0,0.552 0.896,1 2,1 1.104,0 2,-0.448 2,-1" /></g><g
           transform="translate(108,125)"
           id="g276"><path
             id="path278"
             style="fill:#999999;fill-opacity:1;fill-rule:nonzero;stroke:none"
             d="m 0,0 c 0,-0.553 -0.896,-1 -2,-1 -1.104,0 -2,0.447 -2,1 0,0.553 0.896,1 2,1 1.104,0 2,-0.447 2,-1" /></g><g
           transform="translate(114,121)"
           id="g280"><path
             id="path282"
             style="fill:#999999;fill-opacity:1;fill-rule:nonzero;stroke:none"
             d="m 0,0 c 0,-0.553 -0.896,-1 -2,-1 -1.104,0 -2,0.447 -2,1 0,0.553 0.896,1 2,1 1.104,0 2,-0.447 2,-1" /></g><g
           transform="translate(120,121)"
           id="g284"><path
             id="path286"
             style="fill:#999999;fill-opacity:1;fill-rule:nonzero;stroke:none"
             d="m 0,0 c 0,-0.553 -0.896,-1 -2,-1 -1.104,0 -2,0.447 -2,1 0,0.553 0.896,1 2,1 1.104,0 2,-0.447 2,-1" /></g><g
           transform="translate(108,121)"
           id="g288"><path
             id="path290"
             style="fill:#999999;fill-opacity:1;fill-rule:nonzero;stroke:none"
             d="m 0,0 c 0,-0.553 -0.896,-1 -2,-1 -1.104,0 -2,0.447 -2,1 0,0.553 0.896,1 2,1 1.104,0 2,-0.447 2,-1" /></g><g
           transform="translate(100.5,123.75)"
           id="g292"><path
             id="path294"
             style="fill:#999999;fill-opacity:1;fill-rule:nonzero;stroke:none"
             d="M 0,0 C 0,-1.242 -2.015,-2.25 -4.5,-2.25 -6.985,-2.25 -9,-1.242 -9,0 -9,1.242 -6.985,2.25 -4.5,2.25 -2.015,2.25 0,1.242 0,0" /></g><g
           transform="translate(94.875,123.6855)"
           id="g296"><path
             id="path298"
             style="fill:#999999;fill-opacity:1;fill-rule:nonzero;stroke:none"
             d="m 0,0 -1.125,6.652 c 0,0.914 1.013,1.662 2.25,1.662 1.237,0 2.25,-0.748 2.25,-1.662 L 2.25,0 C 2.25,-0.914 0,-0.914 0,0" /></g><g
           transform="translate(158,125)"
           id="g300"><path
             id="path302"
             style="fill:#999999;fill-opacity:1;fill-rule:nonzero;stroke:none"
             d="m 0,0 c 0,-0.553 -0.896,-1 -2,-1 -1.104,0 -2,0.447 -2,1 0,0.553 0.896,1 2,1 1.104,0 2,-0.447 2,-1" /></g><g
           transform="translate(164,125)"
           id="g304"><path
             id="path306"
             style="fill:#999999;fill-opacity:1;fill-rule:nonzero;stroke:none"
             d="m 0,0 c 0,-0.553 -0.896,-1 -2,-1 -1.104,0 -2,0.447 -2,1 0,0.553 0.896,1 2,1 1.104,0 2,-0.447 2,-1" /></g><g
           transform="translate(148,129)"
           id="g308"><path
             id="path310"
             style="fill:#999999;fill-opacity:1;fill-rule:nonzero;stroke:none"
             d="m 0,0 c 0,-0.552 -0.896,-1 -2,-1 -1.104,0 -2,0.448 -2,1 0,0.552 0.896,1 2,1 1.104,0 2,-0.448 2,-1" /></g><g
           transform="translate(152,125)"
           id="g312"><path
             id="path314"
             style="fill:#999999;fill-opacity:1;fill-rule:nonzero;stroke:none"
             d="m 0,0 c 0,-0.553 -0.896,-1 -2,-1 -1.104,0 -2,0.447 -2,1 0,0.553 0.896,1 2,1 1.104,0 2,-0.447 2,-1" /></g><g
           transform="translate(158,121)"
           id="g316"><path
             id="path318"
             style="fill:#999999;fill-opacity:1;fill-rule:nonzero;stroke:none"
             d="m 0,0 c 0,-0.553 -0.896,-1 -2,-1 -1.104,0 -2,0.447 -2,1 0,0.553 0.896,1 2,1 1.104,0 2,-0.447 2,-1" /></g><g
           transform="translate(164,121)"
           id="g320"><path
             id="path322"
             style="fill:#999999;fill-opacity:1;fill-rule:nonzero;stroke:none"
             d="m 0,0 c 0,-0.553 -0.896,-1 -2,-1 -1.104,0 -2,0.447 -2,1 0,0.553 0.896,1 2,1 1.104,0 2,-0.447 2,-1" /></g><g
           transform="translate(152,121)"
           id="g324"><path
             id="path326"
             style="fill:#999999;fill-opacity:1;fill-rule:nonzero;stroke:none"
             d="m 0,0 c 0,-0.553 -0.896,-1 -2,-1 -1.104,0 -2,0.447 -2,1 0,0.553 0.896,1 2,1 1.104,0 2,-0.447 2,-1" /></g><g
           transform="translate(144.5,123.75)"
           id="g328"><path
             id="path330"
             style="fill:#999999;fill-opacity:1;fill-rule:nonzero;stroke:none"
             d="M 0,0 C 0,-1.242 -2.015,-2.25 -4.5,-2.25 -6.985,-2.25 -9,-1.242 -9,0 -9,1.242 -6.985,2.25 -4.5,2.25 -2.015,2.25 0,1.242 0,0" /></g><g
           transform="translate(138.875,123.6855)"
           id="g332"><path
             id="path334"
             style="fill:#999999;fill-opacity:1;fill-rule:nonzero;stroke:none"
             d="m 0,0 -1.125,6.652 c 0,0.914 1.013,1.662 2.25,1.662 1.237,0 2.25,-0.748 2.25,-1.662 L 2.25,0 C 2.25,-0.914 0,-0.914 0,0" /></g></g></g><g
       id="g336"><g
         clip-path="url(#clipPath340)"
         id="g338"><g
           id="g344"><g
             id="g346"><path
               id="path354"
               style="fill:url(#linearGradient348);stroke:none"
               d="m 164,116 -72,0 -12,4 0,-18.558 c 0,-0.861 0.551,-1.626 1.368,-1.898 l 0,0 L 92,96 l 72,0 10.632,3.544 c 0.818,0.272 1.368,1.037 1.368,1.898 l 0,0 0,18.558 -12,-4 z" /></g></g></g></g><g
       id="g356"><g
         clip-path="url(#clipPath360)"
         id="g358"><g
           id="g364"><g
             id="g366"><path
               id="path374"
               style="fill:url(#linearGradient368);stroke:none"
               d="m 92,96 72,0 0,20 -72,0 0,-20 z" /></g></g></g></g><g
       id="g376"><g
         clip-path="url(#clipPath380)"
         id="g378"><g
           id="g384"><g
             id="g386"><path
               id="path394"
               style="fill:url(#linearGradient388);stroke:none"
               d="m 92,184 -4,-52 80,0 -4,52 -72,0 z" /></g></g></g></g><g
       id="g396"><g
         clip-path="url(#clipPath400)"
         id="g398"><g
           transform="translate(156.9111,180)"
           id="g404"><path
             id="path406"
             style="fill:#999999;fill-opacity:1;fill-rule:nonzero;stroke:none"
             d="m 0,0 -57.503,0 c -2.09,0 -3.828,-1.609 -3.988,-3.693 l -2.769,-36 c -0.179,-2.324 1.658,-4.307 3.988,-4.307 l 63.042,0 c 2.33,0 4.167,1.983 3.988,4.307 l -2.77,36 C 3.828,-1.609 2.09,0 0,0" /></g></g></g></g></svg>