<?xml version="1.0" encoding="UTF-8" standalone="no"?>
<svg
   xmlns:dc="http://purl.org/dc/elements/1.1/"
   xmlns:cc="http://creativecommons.org/ns#"
   xmlns:rdf="http://www.w3.org/1999/02/22-rdf-syntax-ns#"
   xmlns:svg="http://www.w3.org/2000/svg"
   xmlns="http://www.w3.org/2000/svg"
   viewBox="0 0 320 320"
   height="320"
   width="320"
   xml:space="preserve"
   version="1.1"
   id="svg2"><metadata
     id="metadata8"><rdf:RDF><cc:Work
         rdf:about=""><dc:format>image/svg+xml</dc:format><dc:type
           rdf:resource="http://purl.org/dc/dcmitype/StillImage" /></cc:Work></rdf:RDF></metadata><defs
     id="defs6"><clipPath
       id="clipPath16"
       clipPathUnits="userSpaceOnUse"><path
         id="path18"
         d="m 244,188 0,12 -232,0 0,-12 4,0 0,-4 -4,0 0,-4 4,0 0,-4 -4,0 0,-4 4,0 0,-4 -4,0 0,-112 232,0 0,112 -4,0 0,4 4,0 0,4 -4,0 0,4 4,0 0,4 -4,0 0,4 4,0 z" /></clipPath><linearGradient
       id="linearGradient24"
       spreadMethod="pad"
       gradientTransform="matrix(188,-188,-188,-188,34,222)"
       gradientUnits="userSpaceOnUse"
       y2="0"
       x2="1"
       y1="0"
       x1="0"><stop
         id="stop26"
         offset="0"
         style="stop-opacity:1;stop-color:#e6e7e8" /><stop
         id="stop28"
         offset="1"
         style="stop-opacity:1;stop-color:#d1d3d4" /></linearGradient><clipPath
       id="clipPath38"
       clipPathUnits="userSpaceOnUse"><path
         id="path40"
         d="m 232,132 -208,0 0,68 208,0 0,-68 z" /></clipPath><linearGradient
       id="linearGradient46"
       spreadMethod="pad"
       gradientTransform="matrix(-138,138,138,138,197,97)"
       gradientUnits="userSpaceOnUse"
       y2="0"
       x2="1"
       y1="0"
       x1="0"><stop
         id="stop48"
         offset="0"
         style="stop-opacity:1;stop-color:#e6e7e8" /><stop
         id="stop50"
         offset="1"
         style="stop-opacity:1;stop-color:#d1d3d4" /></linearGradient><clipPath
       id="clipPath60"
       clipPathUnits="userSpaceOnUse"><path
         id="path62"
         d="m 232,100 -44,0 0,32 44,0 0,-32 z" /></clipPath><linearGradient
       id="linearGradient68"
       spreadMethod="pad"
       gradientTransform="matrix(-38,-38,-38,38,229,135)"
       gradientUnits="userSpaceOnUse"
       y2="0"
       x2="1"
       y1="0"
       x1="0"><stop
         id="stop70"
         offset="0"
         style="stop-opacity:1;stop-color:#e6e7e8" /><stop
         id="stop72"
         offset="1"
         style="stop-opacity:1;stop-color:#d1d3d4" /></linearGradient></defs><g
     transform="matrix(1.25,0,0,-1.25,0,320)"
     id="g10"><g
       id="g12"><g
         clip-path="url(#clipPath16)"
         id="g14"><g
           id="g20"><g
             id="g22"><path
               id="path30"
               style="fill:url(#linearGradient24);stroke:none"
               d="m 244,188 0,12 -232,0 0,-12 4,0 0,-4 -4,0 0,-4 4,0 0,-4 -4,0 0,-4 4,0 0,-4 -4,0 0,-112 232,0 0,112 -4,0 0,4 4,0 0,4 -4,0 0,4 4,0 0,4 -4,0 0,4 4,0 z" /></g></g></g></g><path
       id="path32"
       style="fill:#ffffff;fill-opacity:1;fill-rule:nonzero;stroke:none"
       d="m 24,64 208,0 0,72 -208,0 0,-72 z" /><g
       id="g34"><g
         clip-path="url(#clipPath38)"
         id="g36"><g
           id="g42"><g
             id="g44"><path
               id="path52"
               style="fill:url(#linearGradient46);stroke:none"
               d="m 232,132 -208,0 0,68 208,0 0,-68 z" /></g></g></g></g><path
       id="path54"
       style="fill:#999999;fill-opacity:1;fill-rule:nonzero;stroke:none"
       d="m 24,120 164,0 0,12 -164,0 0,-12 z" /><g
       id="g56"><g
         clip-path="url(#clipPath60)"
         id="g58"><g
           id="g64"><g
             id="g66"><path
               id="path74"
               style="fill:url(#linearGradient68);stroke:none"
               d="m 232,100 -44,0 0,32 44,0 0,-32 z" /></g></g></g></g></g></svg>