<?xml version="1.0" encoding="UTF-8" standalone="no"?>
<svg
   xmlns:dc="http://purl.org/dc/elements/1.1/"
   xmlns:cc="http://creativecommons.org/ns#"
   xmlns:rdf="http://www.w3.org/1999/02/22-rdf-syntax-ns#"
   xmlns:svg="http://www.w3.org/2000/svg"
   xmlns="http://www.w3.org/2000/svg"
   viewBox="0 0 320 320"
   height="320"
   width="320"
   xml:space="preserve"
   version="1.1"
   id="svg2"><metadata
     id="metadata8"><rdf:RDF><cc:Work
         rdf:about=""><dc:format>image/svg+xml</dc:format><dc:type
           rdf:resource="http://purl.org/dc/dcmitype/StillImage" /></cc:Work></rdf:RDF></metadata><defs
     id="defs6"><clipPath
       id="clipPath16"
       clipPathUnits="userSpaceOnUse"><path
         id="path18"
         d="m 128,220 -4,0 c 0,0 -60,0 -84,-4 l 0,0 C 16,212 16,204 16,204 l 0,0 0,-156 16,0 0,-16 192,0 0,16 16,0 0,156 c 0,0 0,8 -24,12 l 0,0 c -24,4 -84,4 -84,4 l 0,0 -4,0 z" /></clipPath><linearGradient
       id="linearGradient24"
       spreadMethod="pad"
       gradientTransform="matrix(190.79013,-190.79013,-190.79013,-190.79013,32.604939,222.18518)"
       gradientUnits="userSpaceOnUse"
       y2="0"
       x2="1"
       y1="0"
       x1="0"><stop
         id="stop26"
         offset="0"
         style="stop-opacity:1;stop-color:#e6e7e8" /><stop
         id="stop28"
         offset="1"
         style="stop-opacity:1;stop-color:#d1d3d4" /></linearGradient><clipPath
       id="clipPath36"
       clipPathUnits="userSpaceOnUse"><path
         id="path38"
         d="m 60,92 c -2.209,0 -4,-1.791 -4,-4 l 0,0 c 0,-2.209 1.791,-4 4,-4 l 0,0 28,0 c 2.209,0 4,1.791 4,4 l 0,0 c 0,2.209 -1.791,4 -4,4 l 0,0 -28,0 z" /></clipPath><linearGradient
       id="linearGradient44"
       spreadMethod="pad"
       gradientTransform="matrix(-19.656857,19.656857,19.656857,19.656857,83.82843,78.17157)"
       gradientUnits="userSpaceOnUse"
       y2="0"
       x2="1"
       y1="0"
       x1="0"><stop
         id="stop46"
         offset="0"
         style="stop-opacity:1;stop-color:#e6e7e8" /><stop
         id="stop48"
         offset="1"
         style="stop-opacity:1;stop-color:#d1d3d4" /></linearGradient><clipPath
       id="clipPath56"
       clipPathUnits="userSpaceOnUse"><path
         id="path58"
         d="m 172,92 c -2.209,0 -4,-1.791 -4,-4 l 0,0 c 0,-2.209 1.791,-4 4,-4 l 0,0 28,0 c 2.209,0 4,1.791 4,4 l 0,0 c 0,2.209 -1.791,4 -4,4 l 0,0 -28,0 z" /></clipPath><linearGradient
       id="linearGradient64"
       spreadMethod="pad"
       gradientTransform="matrix(-19.656857,19.656857,19.656857,19.656857,195.82843,78.17157)"
       gradientUnits="userSpaceOnUse"
       y2="0"
       x2="1"
       y1="0"
       x1="0"><stop
         id="stop66"
         offset="0"
         style="stop-opacity:1;stop-color:#e6e7e8" /><stop
         id="stop68"
         offset="1"
         style="stop-opacity:1;stop-color:#d1d3d4" /></linearGradient><clipPath
       id="clipPath76"
       clipPathUnits="userSpaceOnUse"><path
         id="path78"
         d="m 109.618,96 c -0.743,0 -1.226,-0.782 -0.894,-1.447 l 0,0 2.382,-4.764 c 0.368,-0.738 1.42,-0.738 1.788,0 l 0,0 2.383,4.764 C 115.609,95.218 115.125,96 114.382,96 l 0,0 -4.764,0 z" /></clipPath><linearGradient
       id="linearGradient84"
       spreadMethod="pad"
       gradientTransform="matrix(-4.9886951,4.9886951,4.9886951,4.9886951,114.49435,91.313759)"
       gradientUnits="userSpaceOnUse"
       y2="0"
       x2="1"
       y1="0"
       x1="0"><stop
         id="stop86"
         offset="0"
         style="stop-opacity:1;stop-color:#e6e7e8" /><stop
         id="stop88"
         offset="1"
         style="stop-opacity:1;stop-color:#d1d3d4" /></linearGradient><clipPath
       id="clipPath96"
       clipPathUnits="userSpaceOnUse"><path
         id="path98"
         d="m 149.001,96 c -0.743,0 -1.226,-0.782 -0.894,-1.447 l 0,0 2.382,-4.764 c 0.368,-0.738 1.42,-0.738 1.788,0 l 0,0 2.383,4.764 C 154.993,95.218 154.508,96 153.766,96 l 0,0 -4.765,0 z" /></clipPath><linearGradient
       id="linearGradient104"
       spreadMethod="pad"
       gradientTransform="matrix(-4.9886951,4.9886951,4.9886951,4.9886951,153.87761,91.313759)"
       gradientUnits="userSpaceOnUse"
       y2="0"
       x2="1"
       y1="0"
       x1="0"><stop
         id="stop106"
         offset="0"
         style="stop-opacity:1;stop-color:#e6e7e8" /><stop
         id="stop108"
         offset="1"
         style="stop-opacity:1;stop-color:#d1d3d4" /></linearGradient><clipPath
       id="clipPath116"
       clipPathUnits="userSpaceOnUse"><path
         id="path118"
         d="M 0,256 256,256 256,0 0,0 0,256 Z" /></clipPath></defs><g
     transform="matrix(1.25,0,0,-1.25,0,320)"
     id="g10"><g
       id="g12"><g
         clip-path="url(#clipPath16)"
         id="g14"><g
           id="g20"><g
             id="g22"><path
               id="path30"
               style="fill:url(#linearGradient24);stroke:none"
               d="m 128,220 -4,0 c 0,0 -60,0 -84,-4 l 0,0 C 16,212 16,204 16,204 l 0,0 0,-156 16,0 0,-16 192,0 0,16 16,0 0,156 c 0,0 0,8 -24,12 l 0,0 c -24,4 -84,4 -84,4 l 0,0 -4,0 z" /></g></g></g></g><g
       id="g32"><g
         clip-path="url(#clipPath36)"
         id="g34"><g
           id="g40"><g
             id="g42"><path
               id="path50"
               style="fill:url(#linearGradient44);stroke:none"
               d="m 60,92 c -2.209,0 -4,-1.791 -4,-4 l 0,0 c 0,-2.209 1.791,-4 4,-4 l 0,0 28,0 c 2.209,0 4,1.791 4,4 l 0,0 c 0,2.209 -1.791,4 -4,4 l 0,0 -28,0 z" /></g></g></g></g><g
       id="g52"><g
         clip-path="url(#clipPath56)"
         id="g54"><g
           id="g60"><g
             id="g62"><path
               id="path70"
               style="fill:url(#linearGradient64);stroke:none"
               d="m 172,92 c -2.209,0 -4,-1.791 -4,-4 l 0,0 c 0,-2.209 1.791,-4 4,-4 l 0,0 28,0 c 2.209,0 4,1.791 4,4 l 0,0 c 0,2.209 -1.791,4 -4,4 l 0,0 -28,0 z" /></g></g></g></g><g
       id="g72"><g
         clip-path="url(#clipPath76)"
         id="g74"><g
           id="g80"><g
             id="g82"><path
               id="path90"
               style="fill:url(#linearGradient84);stroke:none"
               d="m 109.618,96 c -0.743,0 -1.226,-0.782 -0.894,-1.447 l 0,0 2.382,-4.764 c 0.368,-0.738 1.42,-0.738 1.788,0 l 0,0 2.383,4.764 C 115.609,95.218 115.125,96 114.382,96 l 0,0 -4.764,0 z" /></g></g></g></g><g
       id="g92"><g
         clip-path="url(#clipPath96)"
         id="g94"><g
           id="g100"><g
             id="g102"><path
               id="path110"
               style="fill:url(#linearGradient104);stroke:none"
               d="m 149.001,96 c -0.743,0 -1.226,-0.782 -0.894,-1.447 l 0,0 2.382,-4.764 c 0.368,-0.738 1.42,-0.738 1.788,0 l 0,0 2.383,4.764 C 154.993,95.218 154.508,96 153.766,96 l 0,0 -4.765,0 z" /></g></g></g></g><g
       id="g112"><g
         clip-path="url(#clipPath116)"
         id="g114"><g
           transform="translate(132,204)"
           id="g120"><path
             id="path122"
             style="fill:#ffffff;fill-opacity:1;fill-rule:nonzero;stroke:none"
             d="M 0,0 -4,0 -8,0 C -47.422,0 -81.448,-2.698 -92.35,-3.663 -94.416,-3.845 -96,-5.574 -96,-7.647 l 0,-64.771 c 0,-2.049 1.546,-3.768 3.584,-3.978 C -82.622,-77.406 -53.091,-80 -8,-80 c 1.349,0 2.675,0.009 4,0.018 1.325,-0.009 2.651,-0.018 4,-0.018 45.091,0 74.622,2.594 84.416,3.604 2.038,0.21 3.584,1.929 3.584,3.978 l 0,64.771 c 0,2.073 -1.584,3.802 -3.649,3.984 C 73.448,-2.698 39.422,0 0,0" /></g></g></g></g></svg>