<?xml version="1.0" encoding="UTF-8" standalone="no"?>
<svg
   xmlns:dc="http://purl.org/dc/elements/1.1/"
   xmlns:cc="http://creativecommons.org/ns#"
   xmlns:rdf="http://www.w3.org/1999/02/22-rdf-syntax-ns#"
   xmlns:svg="http://www.w3.org/2000/svg"
   xmlns="http://www.w3.org/2000/svg"
   viewBox="0 0 320 320"
   height="320"
   width="320"
   xml:space="preserve"
   version="1.1"
   id="svg2"><metadata
     id="metadata8"><rdf:RDF><cc:Work
         rdf:about=""><dc:format>image/svg+xml</dc:format><dc:type
           rdf:resource="http://purl.org/dc/dcmitype/StillImage" /></cc:Work></rdf:RDF></metadata><defs
     id="defs6"><clipPath
       id="clipPath16"
       clipPathUnits="userSpaceOnUse"><path
         id="path18"
         d="m 68,244 c -4.419,0 -8,-3.581 -8,-8 l 0,0 0,-156 C 60,42.444 90.445,12 128,12 l 0,0 c 37.556,0 68,30.444 68,68 l 0,0 0,156 c 0,4.419 -3.582,8 -8,8 l 0,0 -120,0 z" /></clipPath><linearGradient
       id="linearGradient24"
       spreadMethod="pad"
       gradientTransform="matrix(161.74013,-161.74013,-161.74013,-161.74013,47.129932,226.44363)"
       gradientUnits="userSpaceOnUse"
       y2="0"
       x2="1"
       y1="0"
       x1="0"><stop
         id="stop26"
         offset="0"
         style="stop-opacity:1;stop-color:#e6e7e8" /><stop
         id="stop28"
         offset="1"
         style="stop-opacity:1;stop-color:#d1d3d4" /></linearGradient><clipPath
       id="clipPath36"
       clipPathUnits="userSpaceOnUse"><path
         id="path38"
         d="M 0,256 256,256 256,0 0,0 0,256 Z" /></clipPath><clipPath
       id="clipPath118"
       clipPathUnits="userSpaceOnUse"><path
         id="path120"
         d="m 84,76 c 0,-24.3 19.7,-44 44,-44 l 0,0 c 24.301,0 44,19.7 44,44 l 0,0 c 0,24.301 -19.699,44 -44,44 l 0,0 C 103.7,120 84,100.301 84,76" /></clipPath><linearGradient
       id="linearGradient126"
       spreadMethod="pad"
       gradientTransform="matrix(-62.225395,62.225395,62.225395,62.225395,159.1127,44.887302)"
       gradientUnits="userSpaceOnUse"
       y2="0"
       x2="1"
       y1="0"
       x1="0"><stop
         id="stop128"
         offset="0"
         style="stop-opacity:1;stop-color:#e6e7e8" /><stop
         id="stop130"
         offset="1"
         style="stop-opacity:1;stop-color:#d1d3d4" /></linearGradient><clipPath
       id="clipPath138"
       clipPathUnits="userSpaceOnUse"><path
         id="path140"
         d="m 108,92 0,-32 c 0,-11 9,-20 20,-20 l 0,0 c 11,0 20,9 20,20 l 0,0 0,32 c 0,11 -9,20 -20,20 l 0,0 c -11,0 -20,-9 -20,-20" /></clipPath><linearGradient
       id="linearGradient146"
       spreadMethod="pad"
       gradientTransform="matrix(44.250011,-44.250011,-44.250011,-44.250011,105.87499,98.125008)"
       gradientUnits="userSpaceOnUse"
       y2="0"
       x2="1"
       y1="0"
       x1="0"><stop
         id="stop148"
         offset="0"
         style="stop-opacity:1;stop-color:#e6e7e8" /><stop
         id="stop150"
         offset="1"
         style="stop-opacity:1;stop-color:#d1d3d4" /></linearGradient><clipPath
       id="clipPath158"
       clipPathUnits="userSpaceOnUse"><path
         id="path160"
         d="M 0,256 256,256 256,0 0,0 0,256 Z" /></clipPath></defs><g
     transform="matrix(1.25,0,0,-1.25,0,320)"
     id="g10"><g
       id="g12"><g
         clip-path="url(#clipPath16)"
         id="g14"><g
           id="g20"><g
             id="g22"><path
               id="path30"
               style="fill:url(#linearGradient24);stroke:none"
               d="m 68,244 c -4.419,0 -8,-3.581 -8,-8 l 0,0 0,-156 C 60,42.444 90.445,12 128,12 l 0,0 c 37.556,0 68,30.444 68,68 l 0,0 0,156 c 0,4.419 -3.582,8 -8,8 l 0,0 -120,0 z" /></g></g></g></g><g
       id="g32"><g
         clip-path="url(#clipPath36)"
         id="g34"><path
           id="path40"
           style="fill:#ffffff;fill-opacity:1;fill-rule:nonzero;stroke:none"
           d="m 180,180 -108,0 0,28 108,0 0,-28 z" /><g
           transform="translate(116,152)"
           id="g42"><path
             id="path44"
             style="fill:#999999;fill-opacity:1;fill-rule:nonzero;stroke:none"
             d="m 0,0 c 0,-8.836 -7.164,-16 -16,-16 -8.836,0 -16,7.164 -16,16 0,8.836 7.164,16 16,16 C -7.164,16 0,8.836 0,0" /></g><g
           transform="translate(172,152)"
           id="g46"><path
             id="path48"
             style="fill:#999999;fill-opacity:1;fill-rule:nonzero;stroke:none"
             d="m 0,0 c 0,-8.836 -7.163,-16 -16,-16 -8.837,0 -16,7.164 -16,16 0,8.836 7.163,16 16,16 C -7.163,16 0,8.836 0,0" /></g><path
           id="path50"
           style="fill:#999999;fill-opacity:1;fill-rule:nonzero;stroke:none"
           d="m 68,220 -8,0 0,4 8,0 0,-4 z" /><path
           id="path52"
           style="fill:#999999;fill-opacity:1;fill-rule:nonzero;stroke:none"
           d="m 68,212 -8,0 0,4 8,0 0,-4 z" /><path
           id="path54"
           style="fill:#999999;fill-opacity:1;fill-rule:nonzero;stroke:none"
           d="m 68,204 -8,0 0,4 8,0 0,-4 z" /><path
           id="path56"
           style="fill:#999999;fill-opacity:1;fill-rule:nonzero;stroke:none"
           d="m 68,196 -8,0 0,4 8,0 0,-4 z" /><path
           id="path58"
           style="fill:#999999;fill-opacity:1;fill-rule:nonzero;stroke:none"
           d="m 68,188 -8,0 0,4 8,0 0,-4 z" /><path
           id="path60"
           style="fill:#999999;fill-opacity:1;fill-rule:nonzero;stroke:none"
           d="m 68,180 -8,0 0,4 8,0 0,-4 z" /><path
           id="path62"
           style="fill:#999999;fill-opacity:1;fill-rule:nonzero;stroke:none"
           d="m 68,172 -8,0 0,4 8,0 0,-4 z" /><path
           id="path64"
           style="fill:#999999;fill-opacity:1;fill-rule:nonzero;stroke:none"
           d="m 68,164 -8,0 0,4 8,0 0,-4 z" /><path
           id="path66"
           style="fill:#999999;fill-opacity:1;fill-rule:nonzero;stroke:none"
           d="m 68,156 -8,0 0,4 8,0 0,-4 z" /><path
           id="path68"
           style="fill:#999999;fill-opacity:1;fill-rule:nonzero;stroke:none"
           d="m 68,148 -8,0 0,4 8,0 0,-4 z" /><path
           id="path70"
           style="fill:#999999;fill-opacity:1;fill-rule:nonzero;stroke:none"
           d="m 68,140 -8,0 0,4 8,0 0,-4 z" /><path
           id="path72"
           style="fill:#999999;fill-opacity:1;fill-rule:nonzero;stroke:none"
           d="m 68,132 -8,0 0,4 8,0 0,-4 z" /><path
           id="path74"
           style="fill:#999999;fill-opacity:1;fill-rule:nonzero;stroke:none"
           d="m 68,124 -8,0 0,4 8,0 0,-4 z" /><path
           id="path76"
           style="fill:#999999;fill-opacity:1;fill-rule:nonzero;stroke:none"
           d="m 68,116 -8,0 0,4 8,0 0,-4 z" /><path
           id="path78"
           style="fill:#999999;fill-opacity:1;fill-rule:nonzero;stroke:none"
           d="m 68,108 -8,0 0,4 8,0 0,-4 z" /><path
           id="path80"
           style="fill:#999999;fill-opacity:1;fill-rule:nonzero;stroke:none"
           d="m 196,220 -8,0 0,4 8,0 0,-4 z" /><path
           id="path82"
           style="fill:#999999;fill-opacity:1;fill-rule:nonzero;stroke:none"
           d="m 196,212 -8,0 0,4 8,0 0,-4 z" /><path
           id="path84"
           style="fill:#999999;fill-opacity:1;fill-rule:nonzero;stroke:none"
           d="m 196,204 -8,0 0,4 8,0 0,-4 z" /><path
           id="path86"
           style="fill:#999999;fill-opacity:1;fill-rule:nonzero;stroke:none"
           d="m 196,196 -8,0 0,4 8,0 0,-4 z" /><path
           id="path88"
           style="fill:#999999;fill-opacity:1;fill-rule:nonzero;stroke:none"
           d="m 196,188 -8,0 0,4 8,0 0,-4 z" /><path
           id="path90"
           style="fill:#999999;fill-opacity:1;fill-rule:nonzero;stroke:none"
           d="m 196,180 -8,0 0,4 8,0 0,-4 z" /><path
           id="path92"
           style="fill:#999999;fill-opacity:1;fill-rule:nonzero;stroke:none"
           d="m 196,172 -8,0 0,4 8,0 0,-4 z" /><path
           id="path94"
           style="fill:#999999;fill-opacity:1;fill-rule:nonzero;stroke:none"
           d="m 196,164 -8,0 0,4 8,0 0,-4 z" /><path
           id="path96"
           style="fill:#999999;fill-opacity:1;fill-rule:nonzero;stroke:none"
           d="m 196,156 -8,0 0,4 8,0 0,-4 z" /><path
           id="path98"
           style="fill:#999999;fill-opacity:1;fill-rule:nonzero;stroke:none"
           d="m 196,148 -8,0 0,4 8,0 0,-4 z" /><path
           id="path100"
           style="fill:#999999;fill-opacity:1;fill-rule:nonzero;stroke:none"
           d="m 196,140 -8,0 0,4 8,0 0,-4 z" /><path
           id="path102"
           style="fill:#999999;fill-opacity:1;fill-rule:nonzero;stroke:none"
           d="m 196,132 -8,0 0,4 8,0 0,-4 z" /><path
           id="path104"
           style="fill:#999999;fill-opacity:1;fill-rule:nonzero;stroke:none"
           d="m 196,124 -8,0 0,4 8,0 0,-4 z" /><path
           id="path106"
           style="fill:#999999;fill-opacity:1;fill-rule:nonzero;stroke:none"
           d="m 196,116 -8,0 0,4 8,0 0,-4 z" /><path
           id="path108"
           style="fill:#999999;fill-opacity:1;fill-rule:nonzero;stroke:none"
           d="m 196,108 -8,0 0,4 8,0 0,-4 z" /><g
           transform="translate(180,76)"
           id="g110"><path
             id="path112"
             style="fill:#999999;fill-opacity:1;fill-rule:nonzero;stroke:none"
             d="m 0,0 c 0,-28.719 -23.281,-52 -52,-52 -28.719,0 -52,23.281 -52,52 0,28.719 23.281,52 52,52 C -23.281,52 0,28.719 0,0" /></g></g></g><g
       id="g114"><g
         clip-path="url(#clipPath118)"
         id="g116"><g
           id="g122"><g
             id="g124"><path
               id="path132"
               style="fill:url(#linearGradient126);stroke:none"
               d="m 84,76 c 0,-24.3 19.7,-44 44,-44 l 0,0 c 24.301,0 44,19.7 44,44 l 0,0 c 0,24.301 -19.699,44 -44,44 l 0,0 C 103.7,120 84,100.301 84,76" /></g></g></g></g><g
       id="g134"><g
         clip-path="url(#clipPath138)"
         id="g136"><g
           id="g142"><g
             id="g144"><path
               id="path152"
               style="fill:url(#linearGradient146);stroke:none"
               d="m 108,92 0,-32 c 0,-11 9,-20 20,-20 l 0,0 c 11,0 20,9 20,20 l 0,0 0,32 c 0,11 -9,20 -20,20 l 0,0 c -11,0 -20,-9 -20,-20" /></g></g></g></g><g
       id="g154"><g
         clip-path="url(#clipPath158)"
         id="g156"><g
           transform="translate(144,76)"
           id="g162"><path
             id="path164"
             style="fill:#999999;fill-opacity:1;fill-rule:nonzero;stroke:none"
             d="m 0,0 c 0,-8.837 -7.163,-16 -16,-16 -8.836,0 -16,7.163 -16,16 0,8.837 7.164,16 16,16 C -7.163,16 0,8.837 0,0" /></g></g></g></g></svg>