<?xml version="1.0" encoding="UTF-8" standalone="no"?>
<svg
   xmlns:dc="http://purl.org/dc/elements/1.1/"
   xmlns:cc="http://creativecommons.org/ns#"
   xmlns:rdf="http://www.w3.org/1999/02/22-rdf-syntax-ns#"
   xmlns:svg="http://www.w3.org/2000/svg"
   xmlns="http://www.w3.org/2000/svg"
   viewBox="0 0 320 320"
   height="320"
   width="320"
   xml:space="preserve"
   version="1.1"
   id="svg2"><metadata
     id="metadata8"><rdf:RDF><cc:Work
         rdf:about=""><dc:format>image/svg+xml</dc:format><dc:type
           rdf:resource="http://purl.org/dc/dcmitype/StillImage" /></cc:Work></rdf:RDF></metadata><defs
     id="defs6"><clipPath
       id="clipPath16"
       clipPathUnits="userSpaceOnUse"><path
         id="path18"
         d="M 125.492,240.832 15.48,130.819 c -1.557,-1.557 -1.557,-4.082 0,-5.639 l 0,0 110.012,-110.012 c 1.557,-1.557 4.083,-1.557 5.64,0 l 0,0 99.7,99.7 c 0.748,0.748 1.168,1.762 1.168,2.82 l 0,0 0,20.624 c 0,1.057 -0.42,2.072 -1.168,2.82 l 0,0 -99.7,99.7 c -0.779,0.779 -1.799,1.168 -2.82,1.168 l 0,0 c -1.02,0 -2.041,-0.389 -2.82,-1.168" /></clipPath><linearGradient
       id="linearGradient24"
       spreadMethod="pad"
       gradientTransform="matrix(115.65188,-115.65188,-115.65188,-115.65188,70.486168,185.82594)"
       gradientUnits="userSpaceOnUse"
       y2="0"
       x2="1"
       y1="0"
       x1="0"><stop
         id="stop26"
         offset="0"
         style="stop-opacity:1;stop-color:#e6e7e8" /><stop
         id="stop28"
         offset="1"
         style="stop-opacity:1;stop-color:#d1d3d4" /></linearGradient><clipPath
       id="clipPath36"
       clipPathUnits="userSpaceOnUse"><path
         id="path38"
         d="M 0,256 256,256 256,0 0,0 0,256 Z" /></clipPath><clipPath
       id="clipPath52"
       clipPathUnits="userSpaceOnUse"><path
         id="path54"
         d="m 98.828,182.829 c -1.561,-1.563 -1.561,-4.095 0,-5.658 l 0,0 73.636,-73.636 c 1.953,-1.952 5.119,-1.952 7.072,0 l 0,0 L 224,148 144,228 98.828,182.829 Z" /></clipPath><linearGradient
       id="linearGradient60"
       spreadMethod="pad"
       gradientTransform="matrix(-80,80,80,80,200,124)"
       gradientUnits="userSpaceOnUse"
       y2="0"
       x2="1"
       y1="0"
       x1="0"><stop
         id="stop62"
         offset="0"
         style="stop-opacity:1;stop-color:#e6e7e8" /><stop
         id="stop64"
         offset="1"
         style="stop-opacity:1;stop-color:#d1d3d4" /></linearGradient><clipPath
       id="clipPath72"
       clipPathUnits="userSpaceOnUse"><path
         id="path74"
         d="M 0,256 256,256 256,0 0,0 0,256 Z" /></clipPath><clipPath
       id="clipPath84"
       clipPathUnits="userSpaceOnUse"><path
         id="path86"
         d="m 160,144 20,-20 28,28 -20,20 -28,-28 z" /></clipPath><linearGradient
       id="linearGradient92"
       spreadMethod="pad"
       gradientTransform="matrix(-20,20,20,20,194,138)"
       gradientUnits="userSpaceOnUse"
       y2="0"
       x2="1"
       y1="0"
       x1="0"><stop
         id="stop94"
         offset="0"
         style="stop-opacity:1;stop-color:#e6e7e8" /><stop
         id="stop96"
         offset="1"
         style="stop-opacity:1;stop-color:#d1d3d4" /></linearGradient></defs><g
     transform="matrix(1.25,0,0,-1.25,0,320)"
     id="g10"><g
       id="g12"><g
         clip-path="url(#clipPath16)"
         id="g14"><g
           id="g20"><g
             id="g22"><path
               id="path30"
               style="fill:url(#linearGradient24);stroke:none"
               d="M 125.492,240.832 15.48,130.819 c -1.557,-1.557 -1.557,-4.082 0,-5.639 l 0,0 110.012,-110.012 c 1.557,-1.557 4.083,-1.557 5.64,0 l 0,0 99.7,99.7 c 0.748,0.748 1.168,1.762 1.168,2.82 l 0,0 0,20.624 c 0,1.057 -0.42,2.072 -1.168,2.82 l 0,0 -99.7,99.7 c -0.779,0.779 -1.799,1.168 -2.82,1.168 l 0,0 c -1.02,0 -2.041,-0.389 -2.82,-1.168" /></g></g></g></g><g
       id="g32"><g
         clip-path="url(#clipPath36)"
         id="g34"><g
           transform="translate(31.9881,139.9881)"
           id="g40"><path
             id="path42"
             style="fill:#999999;fill-opacity:1;fill-rule:nonzero;stroke:none"
             d="M 0,0 4,-4 0,-8 -4,-4.048 0,0 Z" /></g><g
           transform="translate(116,23.2719)"
           id="g44"><path
             id="path46"
             style="fill:#ffffff;fill-opacity:1;fill-rule:nonzero;stroke:none"
             d="m 0,0 -92,92.728 56.34,54.457 c 1.64,1.64 4.16,1.771 5.638,0.294 L 55.479,61.978 C 56.956,60.5 56.825,57.98 55.185,56.34 L 0,0 Z" /></g></g></g><g
       id="g48"><g
         clip-path="url(#clipPath52)"
         id="g50"><g
           id="g56"><g
             id="g58"><path
               id="path66"
               style="fill:url(#linearGradient60);stroke:none"
               d="m 98.828,182.829 c -1.561,-1.563 -1.561,-4.095 0,-5.658 l 0,0 73.636,-73.636 c 1.953,-1.952 5.119,-1.952 7.072,0 l 0,0 L 224,148 144,228 98.828,182.829 Z" /></g></g></g></g><g
       id="g68"><g
         clip-path="url(#clipPath72)"
         id="g70"><g
           transform="translate(164,208.1728)"
           id="g76"><path
             id="path78"
             style="fill:#999999;fill-opacity:1;fill-rule:nonzero;stroke:none"
             d="m 0,0 -37.184,-37.344 c -1.556,-1.563 -1.553,-4.091 0.006,-5.651 l 49.642,-49.642 c 1.953,-1.953 5.119,-1.953 7.072,0 L 56,-56.173 0,0 Z" /></g></g></g><g
       id="g80"><g
         clip-path="url(#clipPath84)"
         id="g82"><g
           id="g88"><g
             id="g90"><path
               id="path98"
               style="fill:url(#linearGradient92);stroke:none"
               d="m 160,144 20,-20 28,28 -20,20 -28,-28 z" /></g></g></g></g></g></svg>