<?xml version="1.0" encoding="UTF-8" standalone="no"?>
<svg
   xmlns:dc="http://purl.org/dc/elements/1.1/"
   xmlns:cc="http://creativecommons.org/ns#"
   xmlns:rdf="http://www.w3.org/1999/02/22-rdf-syntax-ns#"
   xmlns:svg="http://www.w3.org/2000/svg"
   xmlns="http://www.w3.org/2000/svg"
   viewBox="0 0 320 320"
   height="320"
   width="320"
   xml:space="preserve"
   version="1.1"
   id="svg2"><metadata
     id="metadata8"><rdf:RDF><cc:Work
         rdf:about=""><dc:format>image/svg+xml</dc:format><dc:type
           rdf:resource="http://purl.org/dc/dcmitype/StillImage" /></cc:Work></rdf:RDF></metadata><defs
     id="defs6"><clipPath
       id="clipPath16"
       clipPathUnits="userSpaceOnUse"><path
         id="path18"
         d="M 56.549,199.436 C -2.848,140.038 -2.947,116.05 56.551,56.55 l 0,0 C 116.06,-2.958 140.017,-2.873 199.436,56.547 l 0,0 c 59.426,59.426 59.315,83.579 0.003,142.89 l 0,0 c -29.663,29.663 -50.545,44.512 -71.434,44.515 l 0,0 C 107.126,243.954 86.24,229.126 56.549,199.436" /></clipPath><linearGradient
       id="linearGradient24"
       spreadMethod="pad"
       gradientTransform="matrix(142.88766,-142.88766,-142.88766,-142.88766,56.551559,199.43755)"
       gradientUnits="userSpaceOnUse"
       y2="0"
       x2="1"
       y1="0"
       x1="0"><stop
         id="stop26"
         offset="0"
         style="stop-opacity:1;stop-color:#e6e7e8" /><stop
         id="stop28"
         offset="1"
         style="stop-opacity:1;stop-color:#d1d3d4" /></linearGradient><clipPath
       id="clipPath36"
       clipPathUnits="userSpaceOnUse"><path
         id="path38"
         d="M 0,256 256,256 256,0 0,0 0,256 Z" /></clipPath></defs><g
     transform="matrix(1.25,0,0,-1.25,0,320)"
     id="g10"><g
       id="g12"><g
         clip-path="url(#clipPath16)"
         id="g14"><g
           id="g20"><g
             id="g22"><path
               id="path30"
               style="fill:url(#linearGradient24);stroke:none"
               d="M 56.549,199.436 C -2.848,140.038 -2.947,116.05 56.551,56.55 l 0,0 C 116.06,-2.958 140.017,-2.873 199.436,56.547 l 0,0 c 59.426,59.426 59.315,83.579 0.003,142.89 l 0,0 c -29.663,29.663 -50.545,44.512 -71.434,44.515 l 0,0 C 107.126,243.954 86.24,229.126 56.549,199.436" /></g></g></g></g><g
       id="g32"><g
         clip-path="url(#clipPath36)"
         id="g34"><g
           transform="translate(128.1177,217.0474)"
           id="g40"><path
             id="path42"
             style="fill:#999999;fill-opacity:1;fill-rule:nonzero;stroke:none"
             d="M 0,0 C 22.485,-0.03 44.132,-8.526 60.634,-23.797 L 33.498,-56.439 c -4.356,3.889 -9.228,6.504 -13.166,7.451 -11.849,2.847 -19.446,-4.619 -23.185,-9.801 -3.049,4.224 -8.619,9.944 -17.026,10.397 -1.909,0.103 -3.951,-0.069 -6.142,-0.596 -15.952,-3.834 -47.67,-33.95 5.001,-73.045 l -32.44,-39.019 c -22.615,16.858 -35.955,43.395 -35.99,71.602 C -89.45,-40.048 -49.402,0 0,0" /></g><g
           transform="translate(191.1602,190.9927)"
           id="g44"><path
             id="path46"
             style="fill:#999999;fill-opacity:1;fill-rule:nonzero;stroke:none"
             d="m 0,0 0.009,0 c 16.887,-16.777 26.39,-39.591 26.407,-63.396 0,-49.401 -40.048,-89.449 -89.45,-89.449 -18.148,0.034 -35.859,5.591 -50.775,15.926 l 32.432,39.019 c 4.579,-3.252 9.672,-6.565 15.481,-9.927 -0.009,-0.005 -0.015,-0.012 -0.025,-0.017 l 0.059,0 c -0.011,0.004 -0.016,0.012 -0.026,0.017 56.681,32.796 52.109,60.862 38.734,75.168 L 0,0 Z" /></g></g></g></g></svg>