<?xml version="1.0" encoding="UTF-8" standalone="no"?>
<svg
   xmlns:dc="http://purl.org/dc/elements/1.1/"
   xmlns:cc="http://creativecommons.org/ns#"
   xmlns:rdf="http://www.w3.org/1999/02/22-rdf-syntax-ns#"
   xmlns:svg="http://www.w3.org/2000/svg"
   xmlns="http://www.w3.org/2000/svg"
   viewBox="0 0 320 320"
   height="320"
   width="320"
   xml:space="preserve"
   version="1.1"
   id="svg2"><metadata
     id="metadata8"><rdf:RDF><cc:Work
         rdf:about=""><dc:format>image/svg+xml</dc:format><dc:type
           rdf:resource="http://purl.org/dc/dcmitype/StillImage" /></cc:Work></rdf:RDF></metadata><defs
     id="defs6"><clipPath
       id="clipPath16"
       clipPathUnits="userSpaceOnUse"><path
         id="path18"
         d="M 0,256 256,256 256,0 0,0 0,256 Z" /></clipPath><clipPath
       id="clipPath28"
       clipPathUnits="userSpaceOnUse"><path
         id="path30"
         d="M 39.122,127.598 C 39.158,99.535 52.43,73.131 74.929,56.359 l 0,0 32.275,38.821 c -52.403,38.897 -20.845,68.859 -4.976,72.674 l 0,0 c 2.181,0.524 4.213,0.695 6.111,0.593 l 0,0 c 8.365,-0.451 13.906,-6.143 16.94,-10.344 l 0,0 c 3.721,5.155 11.278,12.583 23.067,9.751 l 0,0 c 3.918,-0.942 8.766,-3.544 13.099,-7.414 l 0,0 26.999,32.477 c -16.419,15.194 -37.956,23.646 -60.326,23.676 l 0,0 C 78.966,216.592 39.122,176.748 39.122,127.598" /></clipPath><linearGradient
       id="linearGradient36"
       spreadMethod="pad"
       gradientTransform="matrix(71.954147,-71.954147,-71.954147,-71.954147,65.163292,190.50165)"
       gradientUnits="userSpaceOnUse"
       y2="0"
       x2="1"
       y1="0"
       x1="0"><stop
         id="stop38"
         offset="0"
         style="stop-opacity:1;stop-color:#e6e7e8" /><stop
         id="stop40"
         offset="1"
         style="stop-opacity:1;stop-color:#d1d3d4" /></linearGradient><clipPath
       id="clipPath48"
       clipPathUnits="userSpaceOnUse"><path
         id="path50"
         d="m 190.84,190.67 0,0 -27.016,-32.492 c 13.307,-14.234 17.855,-42.157 -38.537,-74.787 l 0,0 c 0.009,-0.003 0.015,-0.013 0.025,-0.017 l 0,0 -0.058,0 c 0.01,0.005 0.016,0.014 0.025,0.017 l 0,0 c -5.78,3.345 -10.848,6.641 -15.403,9.877 l 0,0 L 77.609,54.447 C 92.45,44.165 110.071,38.636 128.126,38.602 l 0,0 c 49.151,0 88.995,39.844 88.995,88.996 l 0,0 c -0.017,23.683 -9.47,46.38 -26.272,63.072 l 0,0 -0.009,0 z" /></clipPath><linearGradient
       id="linearGradient56"
       spreadMethod="pad"
       gradientTransform="matrix(63.109112,-63.109112,-63.109112,-63.109112,128.47865,128.30937)"
       gradientUnits="userSpaceOnUse"
       y2="0"
       x2="1"
       y1="0"
       x1="0"><stop
         id="stop58"
         offset="0"
         style="stop-opacity:1;stop-color:#e6e7e8" /><stop
         id="stop60"
         offset="1"
         style="stop-opacity:1;stop-color:#d1d3d4" /></linearGradient></defs><g
     transform="matrix(1.25,0,0,-1.25,0,320)"
     id="g10"><g
       id="g12"><g
         clip-path="url(#clipPath16)"
         id="g14"><g
           transform="translate(216,128)"
           id="g20"><path
             id="path22"
             style="fill:#999999;fill-opacity:1;fill-rule:nonzero;stroke:none"
             d="m 0,0 c 0,-48.601 -39.399,-88 -88,-88 -48.601,0 -88,39.399 -88,88 0,48.601 39.399,88 88,88 C -39.399,88 0,48.601 0,0" /></g></g></g><g
       id="g24"><g
         clip-path="url(#clipPath28)"
         id="g26"><g
           id="g32"><g
             id="g34"><path
               id="path42"
               style="fill:url(#linearGradient36);stroke:none"
               d="M 39.122,127.598 C 39.158,99.535 52.43,73.131 74.929,56.359 l 0,0 32.275,38.821 c -52.403,38.897 -20.845,68.859 -4.976,72.674 l 0,0 c 2.181,0.524 4.213,0.695 6.111,0.593 l 0,0 c 8.365,-0.451 13.906,-6.143 16.94,-10.344 l 0,0 c 3.721,5.155 11.278,12.583 23.067,9.751 l 0,0 c 3.918,-0.942 8.766,-3.544 13.099,-7.414 l 0,0 26.999,32.477 c -16.419,15.194 -37.956,23.646 -60.326,23.676 l 0,0 C 78.966,216.592 39.122,176.748 39.122,127.598" /></g></g></g></g><g
       id="g44"><g
         clip-path="url(#clipPath48)"
         id="g46"><g
           id="g52"><g
             id="g54"><path
               id="path62"
               style="fill:url(#linearGradient56);stroke:none"
               d="m 190.84,190.67 0,0 -27.016,-32.492 c 13.307,-14.234 17.855,-42.157 -38.537,-74.787 l 0,0 c 0.009,-0.003 0.015,-0.013 0.025,-0.017 l 0,0 -0.058,0 c 0.01,0.005 0.016,0.014 0.025,0.017 l 0,0 c -5.78,3.345 -10.848,6.641 -15.403,9.877 l 0,0 L 77.609,54.447 C 92.45,44.165 110.071,38.636 128.126,38.602 l 0,0 c 49.151,0 88.995,39.844 88.995,88.996 l 0,0 c -0.017,23.683 -9.47,46.38 -26.272,63.072 l 0,0 -0.009,0 z" /></g></g></g></g></g></svg>