<?xml version="1.0" encoding="UTF-8" standalone="no"?>
<svg
   xmlns:dc="http://purl.org/dc/elements/1.1/"
   xmlns:cc="http://creativecommons.org/ns#"
   xmlns:rdf="http://www.w3.org/1999/02/22-rdf-syntax-ns#"
   xmlns:svg="http://www.w3.org/2000/svg"
   xmlns="http://www.w3.org/2000/svg"
   viewBox="0 0 320 320"
   height="320"
   width="320"
   xml:space="preserve"
   version="1.1"
   id="svg2"><metadata
     id="metadata8"><rdf:RDF><cc:Work
         rdf:about=""><dc:format>image/svg+xml</dc:format><dc:type
           rdf:resource="http://purl.org/dc/dcmitype/StillImage" /></cc:Work></rdf:RDF></metadata><defs
     id="defs6"><clipPath
       id="clipPath16"
       clipPathUnits="userSpaceOnUse"><path
         id="path18"
         d="M 20.593,200 C 15.85,200 12,196.205 12,191.529 l 0,0 0,-127.058 C 12,59.795 15.85,56 20.593,56 l 0,0 25.777,0 163.26,0 25.778,0 c 4.743,0 8.592,3.795 8.592,8.471 l 0,0 0,127.058 c 0,4.676 -3.849,8.471 -8.592,8.471 l 0,0 -214.815,0 z M 160,142 c 0,7.733 6.271,14 14,14 l 0,0 c 7.727,0 14,-6.267 14,-14 l 0,0 c 0,-7.733 -6.273,-14 -14,-14 l 0,0 c -7.729,0 -14,6.267 -14,14 m -92,0 c 0,7.732 6.272,14 14,14 l 0,0 c 7.728,0 14,-6.268 14,-14 l 0,0 c 0,-7.733 -6.272,-14 -14,-14 l 0,0 c -7.728,0 -14,6.267 -14,14" /></clipPath><linearGradient
       id="linearGradient24"
       spreadMethod="pad"
       gradientTransform="matrix(183.00079,-183.00079,-183.00079,-183.00079,36.499603,219.5004)"
       gradientUnits="userSpaceOnUse"
       y2="0"
       x2="1"
       y1="0"
       x1="0"><stop
         id="stop26"
         offset="0"
         style="stop-opacity:1;stop-color:#e6e7e8" /><stop
         id="stop28"
         offset="1"
         style="stop-opacity:1;stop-color:#d1d3d4" /></linearGradient><clipPath
       id="clipPath36"
       clipPathUnits="userSpaceOnUse"><path
         id="path38"
         d="M 0,256 256,256 256,0 0,0 0,256 Z" /></clipPath><clipPath
       id="clipPath48"
       clipPathUnits="userSpaceOnUse"><path
         id="path50"
         d="m 60.444,80 c -4.222,0 -4.222,-4 -4.222,-4 l 0,0 L 52,56 l 152,0 -4.223,20 c 0,0 0,4 -4.234,4 l 0,0 -135.099,0 z" /></clipPath><linearGradient
       id="linearGradient56"
       spreadMethod="pad"
       gradientTransform="matrix(-84.74575,84.74575,84.74575,84.74575,170.37199,22.371988)"
       gradientUnits="userSpaceOnUse"
       y2="0"
       x2="1"
       y1="0"
       x1="0"><stop
         id="stop58"
         offset="0"
         style="stop-opacity:1;stop-color:#e6e7e8" /><stop
         id="stop60"
         offset="1"
         style="stop-opacity:1;stop-color:#d1d3d4" /></linearGradient><clipPath
       id="clipPath68"
       clipPathUnits="userSpaceOnUse"><path
         id="path70"
         d="M 0,256 256,256 256,0 0,0 0,256 Z" /></clipPath><clipPath
       id="clipPath120"
       clipPathUnits="userSpaceOnUse"><path
         id="path122"
         d="M 104.667,152 C 102.086,152 100,150.212 100,148 l 0,0 0,-16 c 0,-2.212 2.086,-4 4.667,-4 l 0,0 46.666,0 c 2.581,0 4.667,1.788 4.667,4 l 0,0 0,16 c 0,2.212 -2.086,4 -4.667,4 l 0,0 -46.666,0 z" /></clipPath><linearGradient
       id="linearGradient128"
       spreadMethod="pad"
       gradientTransform="matrix(-37.48209,37.48209,37.48209,37.48209,146.74115,121.25896)"
       gradientUnits="userSpaceOnUse"
       y2="0"
       x2="1"
       y1="0"
       x1="0"><stop
         id="stop130"
         offset="0"
         style="stop-opacity:1;stop-color:#e6e7e8" /><stop
         id="stop132"
         offset="1"
         style="stop-opacity:1;stop-color:#d1d3d4" /></linearGradient><clipPath
       id="clipPath140"
       clipPathUnits="userSpaceOnUse"><path
         id="path142"
         d="M 0,256 256,256 256,0 0,0 0,256 Z" /></clipPath></defs><g
     transform="matrix(1.25,0,0,-1.25,0,320)"
     id="g10"><g
       id="g12"><g
         clip-path="url(#clipPath16)"
         id="g14"><g
           id="g20"><g
             id="g22"><path
               id="path30"
               style="fill:url(#linearGradient24);stroke:none"
               d="M 20.593,200 C 15.85,200 12,196.205 12,191.529 l 0,0 0,-127.058 C 12,59.795 15.85,56 20.593,56 l 0,0 25.777,0 163.26,0 25.778,0 c 4.743,0 8.592,3.795 8.592,8.471 l 0,0 0,127.058 c 0,4.676 -3.849,8.471 -8.592,8.471 l 0,0 -214.815,0 z M 160,142 c 0,7.733 6.271,14 14,14 l 0,0 c 7.727,0 14,-6.267 14,-14 l 0,0 c 0,-7.733 -6.273,-14 -14,-14 l 0,0 c -7.729,0 -14,6.267 -14,14 m -92,0 c 0,7.732 6.272,14 14,14 l 0,0 c 7.728,0 14,-6.268 14,-14 l 0,0 c 0,-7.733 -6.272,-14 -14,-14 l 0,0 c -7.728,0 -14,6.267 -14,14" /></g></g></g></g><g
       id="g32"><g
         clip-path="url(#clipPath36)"
         id="g34"><g
           transform="translate(174,128)"
           id="g40"><path
             id="path42"
             style="fill:#ffffff;fill-opacity:1;fill-rule:nonzero;stroke:none"
             d="m 0,0 c -7.728,0 -14,6.267 -14,14 0,7.733 6.272,14 14,14 C 7.729,28 14,21.733 14,14 14,6.267 7.729,0 0,0 m -92,0 c -7.728,0 -14,6.268 -14,14 0,7.732 6.272,14 14,14 7.728,0 14,-6.268 14,-14 C -78,6.268 -84.272,0 -92,0 M 49.333,60 -141.333,60 C -146.117,60 -150,56.058 -150,51.2 l 0,-70.4 c 0,-4.858 3.883,-8.8 8.667,-8.8 l 190.666,0 c 4.784,0 8.667,3.942 8.667,8.8 l 0,70.4 c 0,4.858 -3.883,8.8 -8.667,8.8" /></g></g></g><g
       id="g44"><g
         clip-path="url(#clipPath48)"
         id="g46"><g
           id="g52"><g
             id="g54"><path
               id="path62"
               style="fill:url(#linearGradient56);stroke:none"
               d="m 60.444,80 c -4.222,0 -4.222,-4 -4.222,-4 l 0,0 L 52,56 l 152,0 -4.223,20 c 0,0 0,4 -4.234,4 l 0,0 -135.099,0 z" /></g></g></g></g><g
       id="g64"><g
         clip-path="url(#clipPath68)"
         id="g66"><g
           transform="translate(72,60)"
           id="g72"><path
             id="path74"
             style="fill:#999999;fill-opacity:1;fill-rule:nonzero;stroke:none"
             d="M 0,0 C -2.212,0 -4,1.788 -4,4 -4,6.212 -2.212,8 0,8 2.212,8 4,6.212 4,4 4,1.788 2.212,0 0,0" /></g><g
           transform="translate(92,64)"
           id="g76"><path
             id="path78"
             style="fill:#999999;fill-opacity:1;fill-rule:nonzero;stroke:none"
             d="M 0,0 C -2.212,0 -4,1.788 -4,4 -4,6.212 -2.212,8 0,8 2.212,8 4,6.212 4,4 4,1.788 2.212,0 0,0" /></g><g
           transform="translate(128,68)"
           id="g80"><path
             id="path82"
             style="fill:#999999;fill-opacity:1;fill-rule:nonzero;stroke:none"
             d="M 0,0 C -2.212,0 -4,1.788 -4,4 -4,6.212 -2.212,8 0,8 2.212,8 4,6.212 4,4 4,1.788 2.212,0 0,0" /></g><g
           transform="translate(164,64)"
           id="g84"><path
             id="path86"
             style="fill:#999999;fill-opacity:1;fill-rule:nonzero;stroke:none"
             d="M 0,0 C -2.212,0 -4,1.788 -4,4 -4,6.212 -2.212,8 0,8 2.212,8 4,6.212 4,4 4,1.788 2.212,0 0,0" /></g><g
           transform="translate(184,60)"
           id="g88"><path
             id="path90"
             style="fill:#999999;fill-opacity:1;fill-rule:nonzero;stroke:none"
             d="M 0,0 C -2.212,0 -4,1.788 -4,4 -4,6.212 -2.212,8 0,8 2.212,8 4,6.212 4,4 4,1.788 2.212,0 0,0" /></g><g
           transform="translate(18.0347,60)"
           id="g92"><path
             id="path94"
             style="fill:#999999;fill-opacity:1;fill-rule:nonzero;stroke:none"
             d="M 0,0 C -1.104,-0.019 -2.015,0.861 -2.034,1.965 -2.054,3.069 -1.173,3.98 -0.069,4 1.034,4.019 1.946,3.139 1.965,2.035 1.984,0.931 1.104,0.02 0,0" /></g><g
           transform="translate(18,192)"
           id="g96"><path
             id="path98"
             style="fill:#999999;fill-opacity:1;fill-rule:nonzero;stroke:none"
             d="M 0,0 C -1.104,0 -2,0.896 -2,2 -2,3.104 -1.104,4 0,4 1.104,4 2,3.104 2,2 2,0.896 1.104,0 0,0" /></g><g
           transform="translate(238,60)"
           id="g100"><path
             id="path102"
             style="fill:#999999;fill-opacity:1;fill-rule:nonzero;stroke:none"
             d="M 0,0 C -1.104,0 -2,0.896 -2,2 -2,3.104 -1.104,4 0,4 1.104,4 2,3.104 2,2 2,0.896 1.104,0 0,0" /></g><g
           transform="translate(238,192)"
           id="g104"><path
             id="path106"
             style="fill:#999999;fill-opacity:1;fill-rule:nonzero;stroke:none"
             d="M 0,0 C -1.104,0 -2,0.896 -2,2 -2,3.104 -1.104,4 0,4 1.104,4 2,3.104 2,2 2,0.896 1.104,0 0,0" /></g><g
           transform="translate(82,156)"
           id="g108"><path
             id="path110"
             style="fill:#999999;fill-opacity:1;fill-rule:nonzero;stroke:none"
             d="m 0,0 c -7.728,0 -14,-6.267 -14,-14 0,-7.732 6.272,-14 14,-14 7.728,0 14,6.268 14,14 C 14,-6.267 7.728,0 0,0 m 0,-4 c 5.514,0 10,-4.486 10,-10 0,-5.514 -4.486,-10 -10,-10 -5.514,0 -10,4.486 -10,10 0,5.514 4.486,10 10,10" /></g><g
           transform="translate(174,156)"
           id="g112"><path
             id="path114"
             style="fill:#999999;fill-opacity:1;fill-rule:nonzero;stroke:none"
             d="m 0,0 c -7.729,0 -14,-6.267 -14,-14 0,-7.732 6.271,-14 14,-14 7.728,0 14,6.268 14,14 C 14,-6.267 7.728,0 0,0 m 0,-4 c 5.514,0 10,-4.486 10,-10 0,-5.514 -4.486,-10 -10,-10 -5.514,0 -10,4.486 -10,10 0,5.514 4.486,10 10,10" /></g></g></g><g
       id="g116"><g
         clip-path="url(#clipPath120)"
         id="g118"><g
           id="g124"><g
             id="g126"><path
               id="path134"
               style="fill:url(#linearGradient128);stroke:none"
               d="M 104.667,152 C 102.086,152 100,150.212 100,148 l 0,0 0,-16 c 0,-2.212 2.086,-4 4.667,-4 l 0,0 46.666,0 c 2.581,0 4.667,1.788 4.667,4 l 0,0 0,16 c 0,2.212 -2.086,4 -4.667,4 l 0,0 -46.666,0 z" /></g></g></g></g><g
       id="g136"><g
         clip-path="url(#clipPath140)"
         id="g138"><g
           transform="translate(100,148)"
           id="g144"><path
             id="path146"
             style="fill:#999999;fill-opacity:1;fill-rule:nonzero;stroke:none"
             d="m 0,0 0,-16 c 0,-2.212 2.486,-4 5.562,-4 l 2.736,0 C 10.65,-16.346 12,-12.291 12,-8 12,-3.709 10.65,0.346 8.298,4 L 5.562,4 C 2.486,4 0,2.212 0,0" /></g></g></g></g></svg>