<?xml version="1.0" encoding="UTF-8" standalone="no"?>
<svg
   xmlns:dc="http://purl.org/dc/elements/1.1/"
   xmlns:cc="http://creativecommons.org/ns#"
   xmlns:rdf="http://www.w3.org/1999/02/22-rdf-syntax-ns#"
   xmlns:svg="http://www.w3.org/2000/svg"
   xmlns="http://www.w3.org/2000/svg"
   viewBox="0 0 320 320"
   height="320"
   width="320"
   xml:space="preserve"
   version="1.1"
   id="svg2"><metadata
     id="metadata8"><rdf:RDF><cc:Work
         rdf:about=""><dc:format>image/svg+xml</dc:format><dc:type
           rdf:resource="http://purl.org/dc/dcmitype/StillImage" /></cc:Work></rdf:RDF></metadata><defs
     id="defs6"><clipPath
       id="clipPath16"
       clipPathUnits="userSpaceOnUse"><path
         id="path18"
         d="m 206.88,244 -157.76,0 -4.64,0 c -2.566,0 -4.64,-2.074 -4.64,-4.64 l 0,0 0,-9.28 -4.64,0 0,-4.64 4.64,0 0,-4.64 -4.64,0 0,-4.64 4.64,0 0,-4.64 -4.64,0 0,-4.64 4.64,0 0,-4.64 -4.64,0 0,-4.64 4.64,0 0,-4.64 -4.64,0 0,-4.64 4.64,0 0,-4.64 -4.64,0 0,-4.64 4.64,0 c 0.16,-50.118 0,-106.396 0,-162.4 l 0,0 c 0,-2.566 2.074,-4.64 4.64,-4.64 l 0,0 167.04,0 c 2.566,0 4.64,2.074 4.64,4.64 l 0,0 0,162.4 4.64,0 0,4.64 -4.64,0 0,4.64 4.64,0 0,4.64 -4.64,0 0,4.64 4.64,0 0,4.64 -4.64,0 0,4.64 4.64,0 0,4.64 -4.64,0 0,4.64 4.64,0 0,4.64 -4.64,0 0,4.64 4.64,0 0,4.64 -4.64,0 0,9.28 c 0,2.566 -2.074,4.64 -4.64,4.64 l 0,0 -4.64,0 z" /></clipPath><linearGradient
       id="linearGradient24"
       spreadMethod="pad"
       gradientTransform="matrix(201.44443,-201.44443,-201.44443,-201.44443,27.277786,228.72221)"
       gradientUnits="userSpaceOnUse"
       y2="0"
       x2="1"
       y1="0"
       x1="0"><stop
         id="stop26"
         offset="0"
         style="stop-opacity:1;stop-color:#e6e7e8" /><stop
         id="stop28"
         offset="1"
         style="stop-opacity:1;stop-color:#d1d3d4" /></linearGradient><clipPath
       id="clipPath36"
       clipPathUnits="userSpaceOnUse"><path
         id="path38"
         d="M 54.589,244 C 52.051,244 50,241.753 50,238.972 l 0,0 0,-165.943 C 50,70.248 52.051,68 54.589,68 l 0,0 146.823,0 c 2.537,0 4.588,2.248 4.588,5.029 l 0,0 0,165.943 c 0,2.781 -2.051,5.028 -4.588,5.028 l 0,0 -146.823,0 z" /></clipPath><linearGradient
       id="linearGradient44"
       spreadMethod="pad"
       gradientTransform="matrix(-163.19302,163.19302,163.19302,163.19302,209.59651,74.403488)"
       gradientUnits="userSpaceOnUse"
       y2="0"
       x2="1"
       y1="0"
       x1="0"><stop
         id="stop46"
         offset="0"
         style="stop-opacity:1;stop-color:#e6e7e8" /><stop
         id="stop48"
         offset="1"
         style="stop-opacity:1;stop-color:#d1d3d4" /></linearGradient><clipPath
       id="clipPath56"
       clipPathUnits="userSpaceOnUse"><path
         id="path58"
         d="M 0,256 256,256 256,0 0,0 0,256 Z" /></clipPath></defs><g
     transform="matrix(1.25,0,0,-1.25,0,320)"
     id="g10"><g
       id="g12"><g
         clip-path="url(#clipPath16)"
         id="g14"><g
           id="g20"><g
             id="g22"><path
               id="path30"
               style="fill:url(#linearGradient24);stroke:none"
               d="m 206.88,244 -157.76,0 -4.64,0 c -2.566,0 -4.64,-2.074 -4.64,-4.64 l 0,0 0,-9.28 -4.64,0 0,-4.64 4.64,0 0,-4.64 -4.64,0 0,-4.64 4.64,0 0,-4.64 -4.64,0 0,-4.64 4.64,0 0,-4.64 -4.64,0 0,-4.64 4.64,0 0,-4.64 -4.64,0 0,-4.64 4.64,0 0,-4.64 -4.64,0 0,-4.64 4.64,0 c 0.16,-50.118 0,-106.396 0,-162.4 l 0,0 c 0,-2.566 2.074,-4.64 4.64,-4.64 l 0,0 167.04,0 c 2.566,0 4.64,2.074 4.64,4.64 l 0,0 0,162.4 4.64,0 0,4.64 -4.64,0 0,4.64 4.64,0 0,4.64 -4.64,0 0,4.64 4.64,0 0,4.64 -4.64,0 0,4.64 4.64,0 0,4.64 -4.64,0 0,4.64 4.64,0 0,4.64 -4.64,0 0,4.64 4.64,0 0,4.64 -4.64,0 0,9.28 c 0,2.566 -2.074,4.64 -4.64,4.64 l 0,0 -4.64,0 z" /></g></g></g></g><g
       id="g32"><g
         clip-path="url(#clipPath36)"
         id="g34"><g
           id="g40"><g
             id="g42"><path
               id="path50"
               style="fill:url(#linearGradient44);stroke:none"
               d="M 54.589,244 C 52.051,244 50,241.753 50,238.972 l 0,0 0,-165.943 C 50,70.248 52.051,68 54.589,68 l 0,0 146.823,0 c 2.537,0 4.588,2.248 4.588,5.029 l 0,0 0,165.943 c 0,2.781 -2.051,5.028 -4.588,5.028 l 0,0 -146.823,0 z" /></g></g></g></g><g
       id="g52"><g
         clip-path="url(#clipPath56)"
         id="g54"><g
           transform="translate(197.0667,240)"
           id="g60"><path
             id="path62"
             style="fill:#999999;fill-opacity:1;fill-rule:nonzero;stroke:none"
             d="m 0,0 -138.133,0 c -2.728,0 -4.934,-2.422 -4.934,-5.419 l 0,-157.162 c 0,-2.997 2.206,-5.419 4.934,-5.419 L 0,-168 c 2.728,0 4.933,2.422 4.933,5.419 l 0,157.162 C 4.933,-2.422 2.728,0 0,0" /></g><g
           transform="translate(65.4188,214.1087)"
           id="g64"><path
             id="path66"
             style="fill:#ffffff;fill-opacity:1;fill-rule:nonzero;stroke:none"
             d="m 0,0 c -1.941,0 -3.521,-1.575 -3.521,-3.509 l 0,-129.199 c 0,-1.936 1.58,-3.509 3.521,-3.509 l 125.162,0 c 1.943,0 3.522,1.573 3.522,3.509 l 0,129.199 c 0,1.934 -1.579,3.509 -3.522,3.509 L 0,0 Z m 125.162,-138.109 -125.162,0 c -2.988,0 -5.419,2.424 -5.419,5.401 l 0,129.199 c 0,2.978 2.431,5.4 5.419,5.4 l 125.162,0 c 2.988,0 5.419,-2.422 5.419,-5.4 l 0,-129.199 c 0,-2.977 -2.431,-5.401 -5.419,-5.401" /></g></g></g></g></svg>