<?xml version="1.0" encoding="UTF-8" standalone="no"?>
<svg
   xmlns:dc="http://purl.org/dc/elements/1.1/"
   xmlns:cc="http://creativecommons.org/ns#"
   xmlns:rdf="http://www.w3.org/1999/02/22-rdf-syntax-ns#"
   xmlns:svg="http://www.w3.org/2000/svg"
   xmlns="http://www.w3.org/2000/svg"
   viewBox="0 0 320 320"
   height="320"
   width="320"
   xml:space="preserve"
   version="1.1"
   id="svg2"><metadata
     id="metadata8"><rdf:RDF><cc:Work
         rdf:about=""><dc:format>image/svg+xml</dc:format><dc:type
           rdf:resource="http://purl.org/dc/dcmitype/StillImage" /></cc:Work></rdf:RDF></metadata><defs
     id="defs6"><clipPath
       id="clipPath20"
       clipPathUnits="userSpaceOnUse"><path
         id="path22"
         d="m 80,244 0,-66.782 10.324,-12.396 0,-3.993 3.875,0 -0.187,-21.477 -3.874,0 0,-3.611 L 80,124.651 80,12 l 95.712,0.016 0,112.721 -10.293,11.067 0,3.681 -3.859,0 0,21.398 3.859,0 0,3.924 10.293,12.418 0,66.775 L 80,244 Z" /></clipPath><linearGradient
       id="linearGradient28"
       spreadMethod="pad"
       gradientTransform="matrix(163.84825,-163.84825,-163.84825,-163.84825,45.928032,209.92822)"
       gradientUnits="userSpaceOnUse"
       y2="0"
       x2="1"
       y1="0"
       x1="0"><stop
         id="stop30"
         offset="0"
         style="stop-opacity:1;stop-color:#e6e7e8" /><stop
         id="stop32"
         offset="1"
         style="stop-opacity:1;stop-color:#d1d3d4" /></linearGradient><clipPath
       id="clipPath40"
       clipPathUnits="userSpaceOnUse"><path
         id="path42"
         d="M 0,256 256,256 256,0 0,0 0,256 Z" /></clipPath><clipPath
       id="clipPath52"
       clipPathUnits="userSpaceOnUse"><path
         id="path54"
         d="m 120,22 16,0 0,16 -16,0 0,-16 z" /></clipPath><linearGradient
       id="linearGradient60"
       spreadMethod="pad"
       gradientTransform="matrix(15.999999,-15.999999,-15.999999,-15.999999,120,38)"
       gradientUnits="userSpaceOnUse"
       y2="0"
       x2="1"
       y1="0"
       x1="0"><stop
         id="stop62"
         offset="0"
         style="stop-opacity:1;stop-color:#e6e7e8" /><stop
         id="stop64"
         offset="1"
         style="stop-opacity:1;stop-color:#d1d3d4" /></linearGradient><clipPath
       id="clipPath72"
       clipPathUnits="userSpaceOnUse"><path
         id="path74"
         d="M 0,256 256,256 256,0 0,0 0,256 Z" /></clipPath><clipPath
       id="clipPath84"
       clipPathUnits="userSpaceOnUse"><path
         id="path86"
         d="m 120,94 16,0 0,16 -16,0 0,-16 z" /></clipPath><linearGradient
       id="linearGradient92"
       spreadMethod="pad"
       gradientTransform="matrix(15.999999,-15.999999,-15.999999,-15.999999,120,110)"
       gradientUnits="userSpaceOnUse"
       y2="0"
       x2="1"
       y1="0"
       x1="0"><stop
         id="stop94"
         offset="0"
         style="stop-opacity:1;stop-color:#e6e7e8" /><stop
         id="stop96"
         offset="1"
         style="stop-opacity:1;stop-color:#d1d3d4" /></linearGradient><clipPath
       id="clipPath104"
       clipPathUnits="userSpaceOnUse"><path
         id="path106"
         d="m 96,204 c 0,-17.672 14.328,-32 32,-32 l 0,0 c 17.672,0 32,14.328 32,32 l 0,0 c 0,17.672 -14.328,32 -32,32 l 0,0 c -17.672,0 -32,-14.328 -32,-32" /></clipPath><linearGradient
       id="linearGradient112"
       spreadMethod="pad"
       gradientTransform="matrix(-45.253998,45.253998,45.253998,45.253998,150.627,181.373)"
       gradientUnits="userSpaceOnUse"
       y2="0"
       x2="1"
       y1="0"
       x1="0"><stop
         id="stop114"
         offset="0"
         style="stop-opacity:1;stop-color:#e6e7e8" /><stop
         id="stop116"
         offset="1"
         style="stop-opacity:1;stop-color:#d1d3d4" /></linearGradient><clipPath
       id="clipPath124"
       clipPathUnits="userSpaceOnUse"><path
         id="path126"
         d="M 0,256 256,256 256,0 0,0 0,256 Z" /></clipPath><clipPath
       id="clipPath136"
       clipPathUnits="userSpaceOnUse"><path
         id="path138"
         d="m 104,204 c 0,-13.255 10.745,-24 24,-24 l 0,0 c 13.255,0 24,10.745 24,24 l 0,0 c 0,13.255 -10.745,24 -24,24 l 0,0 c -13.255,0 -24,-10.745 -24,-24" /></clipPath><linearGradient
       id="linearGradient144"
       spreadMethod="pad"
       gradientTransform="matrix(-33.941116,33.941116,33.941116,33.941116,144.97057,187.02943)"
       gradientUnits="userSpaceOnUse"
       y2="0"
       x2="1"
       y1="0"
       x1="0"><stop
         id="stop146"
         offset="0"
         style="stop-opacity:1;stop-color:#e6e7e8" /><stop
         id="stop148"
         offset="1"
         style="stop-opacity:1;stop-color:#d1d3d4" /></linearGradient><clipPath
       id="clipPath156"
       clipPathUnits="userSpaceOnUse"><path
         id="path158"
         d="m 108,204.004 c -0.002,-11.049 8.955,-20.005 20.003,-20.004 l 0,0 c 11.046,0.002 19.998,8.958 19.997,20.004 l 0,0 c -0.002,11.042 -8.954,19.993 -19.997,19.996 l 0,0 c -11.044,0.002 -20,-8.95 -20.003,-19.996" /></clipPath><linearGradient
       id="linearGradient164"
       spreadMethod="pad"
       gradientTransform="matrix(28.283903,-28.283903,-28.283903,-28.283903,113.85805,218.14195)"
       gradientUnits="userSpaceOnUse"
       y2="0"
       x2="1"
       y1="0"
       x1="0"><stop
         id="stop166"
         offset="0"
         style="stop-opacity:1;stop-color:#e6e7e8" /><stop
         id="stop168"
         offset="1"
         style="stop-opacity:1;stop-color:#d1d3d4" /></linearGradient><clipPath
       id="clipPath176"
       clipPathUnits="userSpaceOnUse"><path
         id="path178"
         d="m 82.482,132.052 5.306,5.597 0,3.743 3.439,0 0.124,16.889 -3.563,0 0,4.986 -5.306,6.166 0,-37.381 z" /></clipPath><linearGradient
       id="linearGradient184"
       spreadMethod="pad"
       gradientTransform="matrix(-18.690517,18.690517,18.690517,18.690517,91.827148,141.39774)"
       gradientUnits="userSpaceOnUse"
       y2="0"
       x2="1"
       y1="0"
       x1="0"><stop
         id="stop186"
         offset="0"
         style="stop-opacity:1;stop-color:#e6e7e8" /><stop
         id="stop188"
         offset="1"
         style="stop-opacity:1;stop-color:#d1d3d4" /></linearGradient><clipPath
       id="clipPath196"
       clipPathUnits="userSpaceOnUse"><path
         id="path198"
         d="m 168.457,163.267 0,-4.986 -3.564,0 0.126,-16.889 3.438,0 0,-3.743 5.314,-5.597 0,37.381 -5.314,-6.166 z" /></clipPath><linearGradient
       id="linearGradient204"
       spreadMethod="pad"
       gradientTransform="matrix(-18.690517,18.690517,18.690517,18.690517,183.11623,141.39774)"
       gradientUnits="userSpaceOnUse"
       y2="0"
       x2="1"
       y1="0"
       x1="0"><stop
         id="stop206"
         offset="0"
         style="stop-opacity:1;stop-color:#e6e7e8" /><stop
         id="stop208"
         offset="1"
         style="stop-opacity:1;stop-color:#d1d3d4" /></linearGradient><clipPath
       id="clipPath216"
       clipPathUnits="userSpaceOnUse"><path
         id="path218"
         d="M 0,256 256,256 256,0 0,0 0,256 Z" /></clipPath><clipPath
       id="clipPath228"
       clipPathUnits="userSpaceOnUse"><path
         id="path230"
         d="M 109.629,158 C 108.727,158 108,157.008 108,155.777 l 0,0 0,-3.565 c 0,-1.231 0.727,-2.212 1.629,-2.212 l 0,0 36.742,0 c 0.901,0 1.629,0.981 1.629,2.212 l 0,0 0,3.565 c 0,1.231 -0.728,2.223 -1.629,2.223 l 0,0 -36.742,0 z" /></clipPath><linearGradient
       id="linearGradient236"
       spreadMethod="pad"
       gradientTransform="matrix(22.907965,-22.907965,-22.907965,-22.907965,116.54602,165.45206)"
       gradientUnits="userSpaceOnUse"
       y2="0"
       x2="1"
       y1="0"
       x1="0"><stop
         id="stop238"
         offset="0"
         style="stop-opacity:1;stop-color:#e6e7e8" /><stop
         id="stop240"
         offset="1"
         style="stop-opacity:1;stop-color:#d1d3d4" /></linearGradient><clipPath
       id="clipPath248"
       clipPathUnits="userSpaceOnUse"><path
         id="path250"
         d="M 0,256 256,256 256,0 0,0 0,256 Z" /></clipPath><clipPath
       id="clipPath260"
       clipPathUnits="userSpaceOnUse"><path
         id="path262"
         d="m 90,94 16,0 0,16 -16,0 0,-16 z" /></clipPath><linearGradient
       id="linearGradient268"
       spreadMethod="pad"
       gradientTransform="matrix(15.999999,-15.999999,-15.999999,-15.999999,90,110)"
       gradientUnits="userSpaceOnUse"
       y2="0"
       x2="1"
       y1="0"
       x1="0"><stop
         id="stop270"
         offset="0"
         style="stop-opacity:1;stop-color:#e6e7e8" /><stop
         id="stop272"
         offset="1"
         style="stop-opacity:1;stop-color:#d1d3d4" /></linearGradient><clipPath
       id="clipPath280"
       clipPathUnits="userSpaceOnUse"><path
         id="path282"
         d="M 0,256 256,256 256,0 0,0 0,256 Z" /></clipPath><clipPath
       id="clipPath292"
       clipPathUnits="userSpaceOnUse"><path
         id="path294"
         d="m 90,70 16,0 0,16 -16,0 0,-16 z" /></clipPath><linearGradient
       id="linearGradient300"
       spreadMethod="pad"
       gradientTransform="matrix(15.999999,-15.999999,-15.999999,-15.999999,90,86)"
       gradientUnits="userSpaceOnUse"
       y2="0"
       x2="1"
       y1="0"
       x1="0"><stop
         id="stop302"
         offset="0"
         style="stop-opacity:1;stop-color:#e6e7e8" /><stop
         id="stop304"
         offset="1"
         style="stop-opacity:1;stop-color:#d1d3d4" /></linearGradient><clipPath
       id="clipPath312"
       clipPathUnits="userSpaceOnUse"><path
         id="path314"
         d="M 0,256 256,256 256,0 0,0 0,256 Z" /></clipPath><clipPath
       id="clipPath324"
       clipPathUnits="userSpaceOnUse"><path
         id="path326"
         d="m 90,46 16,0 0,16 -16,0 0,-16 z" /></clipPath><linearGradient
       id="linearGradient332"
       spreadMethod="pad"
       gradientTransform="matrix(15.999999,-15.999999,-15.999999,-15.999999,90,62)"
       gradientUnits="userSpaceOnUse"
       y2="0"
       x2="1"
       y1="0"
       x1="0"><stop
         id="stop334"
         offset="0"
         style="stop-opacity:1;stop-color:#e6e7e8" /><stop
         id="stop336"
         offset="1"
         style="stop-opacity:1;stop-color:#d1d3d4" /></linearGradient><clipPath
       id="clipPath344"
       clipPathUnits="userSpaceOnUse"><path
         id="path346"
         d="M 0,256 256,256 256,0 0,0 0,256 Z" /></clipPath><clipPath
       id="clipPath360"
       clipPathUnits="userSpaceOnUse"><path
         id="path362"
         d="m 120,70 16,0 0,16 -16,0 0,-16 z" /></clipPath><linearGradient
       id="linearGradient368"
       spreadMethod="pad"
       gradientTransform="matrix(15.999999,-15.999999,-15.999999,-15.999999,120,86)"
       gradientUnits="userSpaceOnUse"
       y2="0"
       x2="1"
       y1="0"
       x1="0"><stop
         id="stop370"
         offset="0"
         style="stop-opacity:1;stop-color:#e6e7e8" /><stop
         id="stop372"
         offset="1"
         style="stop-opacity:1;stop-color:#d1d3d4" /></linearGradient><clipPath
       id="clipPath380"
       clipPathUnits="userSpaceOnUse"><path
         id="path382"
         d="M 0,256 256,256 256,0 0,0 0,256 Z" /></clipPath><clipPath
       id="clipPath392"
       clipPathUnits="userSpaceOnUse"><path
         id="path394"
         d="m 120,46 16,0 0,16 -16,0 0,-16 z" /></clipPath><linearGradient
       id="linearGradient400"
       spreadMethod="pad"
       gradientTransform="matrix(15.999999,-15.999999,-15.999999,-15.999999,120,62)"
       gradientUnits="userSpaceOnUse"
       y2="0"
       x2="1"
       y1="0"
       x1="0"><stop
         id="stop402"
         offset="0"
         style="stop-opacity:1;stop-color:#e6e7e8" /><stop
         id="stop404"
         offset="1"
         style="stop-opacity:1;stop-color:#d1d3d4" /></linearGradient><clipPath
       id="clipPath412"
       clipPathUnits="userSpaceOnUse"><path
         id="path414"
         d="M 0,256 256,256 256,0 0,0 0,256 Z" /></clipPath><clipPath
       id="clipPath428"
       clipPathUnits="userSpaceOnUse"><path
         id="path430"
         d="m 150,94 15.999,0 0,16 -15.999,0 0,-16 z" /></clipPath><linearGradient
       id="linearGradient436"
       spreadMethod="pad"
       gradientTransform="matrix(15.999999,-15.999999,-15.999999,-15.999999,150,110)"
       gradientUnits="userSpaceOnUse"
       y2="0"
       x2="1"
       y1="0"
       x1="0"><stop
         id="stop438"
         offset="0"
         style="stop-opacity:1;stop-color:#e6e7e8" /><stop
         id="stop440"
         offset="1"
         style="stop-opacity:1;stop-color:#d1d3d4" /></linearGradient><clipPath
       id="clipPath448"
       clipPathUnits="userSpaceOnUse"><path
         id="path450"
         d="M 0,256 256,256 256,0 0,0 0,256 Z" /></clipPath><clipPath
       id="clipPath460"
       clipPathUnits="userSpaceOnUse"><path
         id="path462"
         d="m 150,70 15.999,0 0,16 -15.999,0 0,-16 z" /></clipPath><linearGradient
       id="linearGradient468"
       spreadMethod="pad"
       gradientTransform="matrix(15.999999,-15.999999,-15.999999,-15.999999,150,86)"
       gradientUnits="userSpaceOnUse"
       y2="0"
       x2="1"
       y1="0"
       x1="0"><stop
         id="stop470"
         offset="0"
         style="stop-opacity:1;stop-color:#e6e7e8" /><stop
         id="stop472"
         offset="1"
         style="stop-opacity:1;stop-color:#d1d3d4" /></linearGradient><clipPath
       id="clipPath480"
       clipPathUnits="userSpaceOnUse"><path
         id="path482"
         d="M 0,256 256,256 256,0 0,0 0,256 Z" /></clipPath><clipPath
       id="clipPath492"
       clipPathUnits="userSpaceOnUse"><path
         id="path494"
         d="m 150,46 15.999,0 0,16 -15.999,0 0,-16 z" /></clipPath><linearGradient
       id="linearGradient500"
       spreadMethod="pad"
       gradientTransform="matrix(15.999999,-15.999999,-15.999999,-15.999999,150,62)"
       gradientUnits="userSpaceOnUse"
       y2="0"
       x2="1"
       y1="0"
       x1="0"><stop
         id="stop502"
         offset="0"
         style="stop-opacity:1;stop-color:#e6e7e8" /><stop
         id="stop504"
         offset="1"
         style="stop-opacity:1;stop-color:#d1d3d4" /></linearGradient></defs><g
     transform="matrix(1.25,0,0,-1.25,0,320)"
     id="g10"><g
       transform="translate(176,177.2255)"
       id="g12"><path
         id="path14"
         style="fill:#999999;fill-opacity:1;fill-rule:nonzero;stroke:none"
         d="m 0,0 -96,-0.008 2.489,-2.979 0,-46.872 -2.489,-2.715 96,0.086 -2.466,2.643 0,46.879 L 0,0 Z" /></g><g
       id="g16"><g
         clip-path="url(#clipPath20)"
         id="g18"><g
           id="g24"><g
             id="g26"><path
               id="path34"
               style="fill:url(#linearGradient28);stroke:none"
               d="m 80,244 0,-66.782 10.324,-12.396 0,-3.993 3.875,0 -0.187,-21.477 -3.874,0 0,-3.611 L 80,124.651 80,12 l 95.712,0.016 0,112.721 -10.293,11.067 0,3.681 -3.859,0 0,21.398 3.859,0 0,3.924 10.293,12.418 0,66.775 L 80,244 Z" /></g></g></g></g><g
       id="g36"><g
         clip-path="url(#clipPath40)"
         id="g38"><g
           transform="translate(124.6642,40)"
           id="g44"><path
             id="path46"
             style="fill:#999999;fill-opacity:1;fill-rule:nonzero;stroke:none"
             d="m 0,0 6.672,0 c 3.687,0 6.664,-1.283 6.664,-2.863 l 0,-14.282 C 13.336,-18.725 10.359,-20 6.672,-20 L 0,-20 c -3.687,0 -6.664,1.275 -6.664,2.855 l 0,14.282 C -6.664,-1.283 -3.687,0 0,0" /></g></g></g><g
       id="g48"><g
         clip-path="url(#clipPath52)"
         id="g50"><g
           id="g56"><g
             id="g58"><path
               id="path66"
               style="fill:url(#linearGradient60);stroke:none"
               d="m 120,22 16,0 0,16 -16,0 0,-16 z" /></g></g></g></g><g
       id="g68"><g
         clip-path="url(#clipPath72)"
         id="g70"><g
           transform="translate(124.6642,112)"
           id="g76"><path
             id="path78"
             style="fill:#999999;fill-opacity:1;fill-rule:nonzero;stroke:none"
             d="m 0,0 6.672,0 c 3.687,0 6.664,-1.283 6.664,-2.863 l 0,-14.282 C 13.336,-18.725 10.359,-20 6.672,-20 L 0,-20 c -3.687,0 -6.664,1.275 -6.664,2.855 l 0,14.282 C -6.664,-1.283 -3.687,0 0,0" /></g></g></g><g
       id="g80"><g
         clip-path="url(#clipPath84)"
         id="g82"><g
           id="g88"><g
             id="g90"><path
               id="path98"
               style="fill:url(#linearGradient92);stroke:none"
               d="m 120,94 16,0 0,16 -16,0 0,-16 z" /></g></g></g></g><g
       id="g100"><g
         clip-path="url(#clipPath104)"
         id="g102"><g
           id="g108"><g
             id="g110"><path
               id="path118"
               style="fill:url(#linearGradient112);stroke:none"
               d="m 96,204 c 0,-17.672 14.328,-32 32,-32 l 0,0 c 17.672,0 32,14.328 32,32 l 0,0 c 0,17.672 -14.328,32 -32,32 l 0,0 c -17.672,0 -32,-14.328 -32,-32" /></g></g></g></g><g
       id="g120"><g
         clip-path="url(#clipPath124)"
         id="g122"><g
           transform="translate(127.9962,232)"
           id="g128"><path
             id="path130"
             style="fill:#999999;fill-opacity:1;fill-rule:nonzero;stroke:none"
             d="M 0,0 C -15.463,-0.002 -27.997,-12.538 -27.996,-28 -27.997,-43.462 -15.463,-55.998 0,-56 15.466,-56.002 28.004,-43.465 28.004,-28 28.004,-12.535 15.466,0.002 0,0" /></g></g></g><g
       id="g132"><g
         clip-path="url(#clipPath136)"
         id="g134"><g
           id="g140"><g
             id="g142"><path
               id="path150"
               style="fill:url(#linearGradient144);stroke:none"
               d="m 104,204 c 0,-13.255 10.745,-24 24,-24 l 0,0 c 13.255,0 24,10.745 24,24 l 0,0 c 0,13.255 -10.745,24 -24,24 l 0,0 c -13.255,0 -24,-10.745 -24,-24" /></g></g></g></g><g
       id="g152"><g
         clip-path="url(#clipPath156)"
         id="g154"><g
           id="g160"><g
             id="g162"><path
               id="path170"
               style="fill:url(#linearGradient164);stroke:none"
               d="m 108,204.004 c -0.002,-11.049 8.955,-20.005 20.003,-20.004 l 0,0 c 11.046,0.002 19.998,8.958 19.997,20.004 l 0,0 c -0.002,11.042 -8.954,19.993 -19.997,19.996 l 0,0 c -11.044,0.002 -20,-8.95 -20.003,-19.996" /></g></g></g></g><g
       id="g172"><g
         clip-path="url(#clipPath176)"
         id="g174"><g
           id="g180"><g
             id="g182"><path
               id="path190"
               style="fill:url(#linearGradient184);stroke:none"
               d="m 82.482,132.052 5.306,5.597 0,3.743 3.439,0 0.124,16.889 -3.563,0 0,4.986 -5.306,6.166 0,-37.381 z" /></g></g></g></g><g
       id="g192"><g
         clip-path="url(#clipPath196)"
         id="g194"><g
           id="g200"><g
             id="g202"><path
               id="path210"
               style="fill:url(#linearGradient204);stroke:none"
               d="m 168.457,163.267 0,-4.986 -3.564,0 0.126,-16.889 3.438,0 0,-3.743 5.314,-5.597 0,37.381 -5.314,-6.166 z" /></g></g></g></g><g
       id="g212"><g
         clip-path="url(#clipPath216)"
         id="g214"><g
           transform="translate(107.913,160)"
           id="g220"><path
             id="path222"
             style="fill:#999999;fill-opacity:1;fill-rule:nonzero;stroke:none"
             d="m 0,0 40.174,0 c 1.061,0 1.913,-1.077 1.913,-2.406 l 0,-7.198 C 42.087,-10.933 41.235,-12 40.174,-12 L 0,-12 c -1.061,0 -1.913,1.067 -1.913,2.396 l 0,7.198 C -1.913,-1.077 -1.061,0 0,0" /></g></g></g><g
       id="g224"><g
         clip-path="url(#clipPath228)"
         id="g226"><g
           id="g232"><g
             id="g234"><path
               id="path242"
               style="fill:url(#linearGradient236);stroke:none"
               d="M 109.629,158 C 108.727,158 108,157.008 108,155.777 l 0,0 0,-3.565 c 0,-1.231 0.727,-2.212 1.629,-2.212 l 0,0 36.742,0 c 0.901,0 1.629,0.981 1.629,2.212 l 0,0 0,3.565 c 0,1.231 -0.728,2.223 -1.629,2.223 l 0,0 -36.742,0 z" /></g></g></g></g><g
       id="g244"><g
         clip-path="url(#clipPath248)"
         id="g246"><g
           transform="translate(94.6642,112)"
           id="g252"><path
             id="path254"
             style="fill:#999999;fill-opacity:1;fill-rule:nonzero;stroke:none"
             d="m 0,0 6.672,0 c 3.687,0 6.664,-1.283 6.664,-2.863 l 0,-14.282 C 13.336,-18.725 10.359,-20 6.672,-20 L 0,-20 c -3.687,0 -6.664,1.275 -6.664,2.855 l 0,14.282 C -6.664,-1.283 -3.687,0 0,0" /></g></g></g><g
       id="g256"><g
         clip-path="url(#clipPath260)"
         id="g258"><g
           id="g264"><g
             id="g266"><path
               id="path274"
               style="fill:url(#linearGradient268);stroke:none"
               d="m 90,94 16,0 0,16 -16,0 0,-16 z" /></g></g></g></g><g
       id="g276"><g
         clip-path="url(#clipPath280)"
         id="g278"><g
           transform="translate(94.6642,88)"
           id="g284"><path
             id="path286"
             style="fill:#999999;fill-opacity:1;fill-rule:nonzero;stroke:none"
             d="m 0,0 6.672,0 c 3.687,0 6.664,-1.283 6.664,-2.863 l 0,-14.282 C 13.336,-18.725 10.359,-20 6.672,-20 L 0,-20 c -3.687,0 -6.664,1.275 -6.664,2.855 l 0,14.282 C -6.664,-1.283 -3.687,0 0,0" /></g></g></g><g
       id="g288"><g
         clip-path="url(#clipPath292)"
         id="g290"><g
           id="g296"><g
             id="g298"><path
               id="path306"
               style="fill:url(#linearGradient300);stroke:none"
               d="m 90,70 16,0 0,16 -16,0 0,-16 z" /></g></g></g></g><g
       id="g308"><g
         clip-path="url(#clipPath312)"
         id="g310"><g
           transform="translate(94.6642,64)"
           id="g316"><path
             id="path318"
             style="fill:#999999;fill-opacity:1;fill-rule:nonzero;stroke:none"
             d="m 0,0 6.672,0 c 3.687,0 6.664,-1.283 6.664,-2.863 l 0,-14.282 C 13.336,-18.725 10.359,-20 6.672,-20 L 0,-20 c -3.687,0 -6.664,1.275 -6.664,2.855 l 0,14.282 C -6.664,-1.283 -3.687,0 0,0" /></g></g></g><g
       id="g320"><g
         clip-path="url(#clipPath324)"
         id="g322"><g
           id="g328"><g
             id="g330"><path
               id="path338"
               style="fill:url(#linearGradient332);stroke:none"
               d="m 90,46 16,0 0,16 -16,0 0,-16 z" /></g></g></g></g><g
       id="g340"><g
         clip-path="url(#clipPath344)"
         id="g342"><g
           transform="translate(94.6642,40)"
           id="g348"><path
             id="path350"
             style="fill:#999999;fill-opacity:1;fill-rule:nonzero;stroke:none"
             d="m 0,0 6.672,0 c 3.687,0 6.664,-1.283 6.664,-2.863 l 0,-14.282 C 13.336,-18.725 10.359,-20 6.672,-20 L 0,-20 c -3.687,0 -6.664,1.275 -6.664,2.855 l 0,14.282 C -6.664,-1.283 -3.687,0 0,0" /></g><g
           transform="translate(124.6642,88)"
           id="g352"><path
             id="path354"
             style="fill:#999999;fill-opacity:1;fill-rule:nonzero;stroke:none"
             d="m 0,0 6.672,0 c 3.687,0 6.664,-1.283 6.664,-2.863 l 0,-14.282 C 13.336,-18.725 10.359,-20 6.672,-20 L 0,-20 c -3.687,0 -6.664,1.275 -6.664,2.855 l 0,14.282 C -6.664,-1.283 -3.687,0 0,0" /></g></g></g><g
       id="g356"><g
         clip-path="url(#clipPath360)"
         id="g358"><g
           id="g364"><g
             id="g366"><path
               id="path374"
               style="fill:url(#linearGradient368);stroke:none"
               d="m 120,70 16,0 0,16 -16,0 0,-16 z" /></g></g></g></g><g
       id="g376"><g
         clip-path="url(#clipPath380)"
         id="g378"><g
           transform="translate(124.6642,64)"
           id="g384"><path
             id="path386"
             style="fill:#999999;fill-opacity:1;fill-rule:nonzero;stroke:none"
             d="m 0,0 6.672,0 c 3.687,0 6.664,-1.283 6.664,-2.863 l 0,-14.282 C 13.336,-18.725 10.359,-20 6.672,-20 L 0,-20 c -3.687,0 -6.664,1.275 -6.664,2.855 l 0,14.282 C -6.664,-1.283 -3.687,0 0,0" /></g></g></g><g
       id="g388"><g
         clip-path="url(#clipPath392)"
         id="g390"><g
           id="g396"><g
             id="g398"><path
               id="path406"
               style="fill:url(#linearGradient400);stroke:none"
               d="m 120,46 16,0 0,16 -16,0 0,-16 z" /></g></g></g></g><g
       id="g408"><g
         clip-path="url(#clipPath412)"
         id="g410"><g
           transform="translate(154.6642,40)"
           id="g416"><path
             id="path418"
             style="fill:#999999;fill-opacity:1;fill-rule:nonzero;stroke:none"
             d="m 0,0 6.672,0 c 3.687,0 6.664,-1.283 6.664,-2.863 l 0,-14.282 C 13.336,-18.725 10.359,-20 6.672,-20 L 0,-20 c -3.687,0 -6.664,1.275 -6.664,2.855 l 0,14.282 C -6.664,-1.283 -3.687,0 0,0" /></g><g
           transform="translate(154.6642,112)"
           id="g420"><path
             id="path422"
             style="fill:#999999;fill-opacity:1;fill-rule:nonzero;stroke:none"
             d="m 0,0 6.672,0 c 3.687,0 6.664,-1.283 6.664,-2.863 l 0,-14.282 C 13.336,-18.725 10.359,-20 6.672,-20 L 0,-20 c -3.687,0 -6.664,1.275 -6.664,2.855 l 0,14.282 C -6.664,-1.283 -3.687,0 0,0" /></g></g></g><g
       id="g424"><g
         clip-path="url(#clipPath428)"
         id="g426"><g
           id="g432"><g
             id="g434"><path
               id="path442"
               style="fill:url(#linearGradient436);stroke:none"
               d="m 150,94 15.999,0 0,16 -15.999,0 0,-16 z" /></g></g></g></g><g
       id="g444"><g
         clip-path="url(#clipPath448)"
         id="g446"><g
           transform="translate(154.6642,88)"
           id="g452"><path
             id="path454"
             style="fill:#999999;fill-opacity:1;fill-rule:nonzero;stroke:none"
             d="m 0,0 6.672,0 c 3.687,0 6.664,-1.283 6.664,-2.863 l 0,-14.282 C 13.336,-18.725 10.359,-20 6.672,-20 L 0,-20 c -3.687,0 -6.664,1.275 -6.664,2.855 l 0,14.282 C -6.664,-1.283 -3.687,0 0,0" /></g></g></g><g
       id="g456"><g
         clip-path="url(#clipPath460)"
         id="g458"><g
           id="g464"><g
             id="g466"><path
               id="path474"
               style="fill:url(#linearGradient468);stroke:none"
               d="m 150,70 15.999,0 0,16 -15.999,0 0,-16 z" /></g></g></g></g><g
       id="g476"><g
         clip-path="url(#clipPath480)"
         id="g478"><g
           transform="translate(154.6642,64)"
           id="g484"><path
             id="path486"
             style="fill:#999999;fill-opacity:1;fill-rule:nonzero;stroke:none"
             d="m 0,0 6.672,0 c 3.687,0 6.664,-1.283 6.664,-2.863 l 0,-14.282 C 13.336,-18.725 10.359,-20 6.672,-20 L 0,-20 c -3.687,0 -6.664,1.275 -6.664,2.855 l 0,14.282 C -6.664,-1.283 -3.687,0 0,0" /></g></g></g><g
       id="g488"><g
         clip-path="url(#clipPath492)"
         id="g490"><g
           id="g496"><g
             id="g498"><path
               id="path506"
               style="fill:url(#linearGradient500);stroke:none"
               d="m 150,46 15.999,0 0,16 -15.999,0 0,-16 z" /></g></g></g></g></g></svg>