<?xml version="1.0" encoding="UTF-8" standalone="no"?>
<svg
   xmlns:dc="http://purl.org/dc/elements/1.1/"
   xmlns:cc="http://creativecommons.org/ns#"
   xmlns:rdf="http://www.w3.org/1999/02/22-rdf-syntax-ns#"
   xmlns:svg="http://www.w3.org/2000/svg"
   xmlns="http://www.w3.org/2000/svg"
   viewBox="0 0 320 320"
   height="320"
   width="320"
   xml:space="preserve"
   version="1.1"
   id="svg2"><metadata
     id="metadata8"><rdf:RDF><cc:Work
         rdf:about=""><dc:format>image/svg+xml</dc:format><dc:type
           rdf:resource="http://purl.org/dc/dcmitype/StillImage" /></cc:Work></rdf:RDF></metadata><defs
     id="defs6"><clipPath
       id="clipPath16"
       clipPathUnits="userSpaceOnUse"><path
         id="path18"
         d="M 17.273,244 C 14.357,244 12,241.643 12,238.728 l 0,0 L 12,38.363 33.091,12 238.728,12 c 2.915,0 5.272,2.357 5.272,5.273 l 0,0 0,221.455 c 0,2.915 -2.357,5.272 -5.272,5.272 l 0,0 -221.455,0 z M 224,224 l 16,0 0,-12 -16,0 0,12 z" /></clipPath><linearGradient
       id="linearGradient24"
       spreadMethod="pad"
       gradientTransform="matrix(228.91418,-228.91418,-228.91418,-228.91418,18.044169,246.95844)"
       gradientUnits="userSpaceOnUse"
       y2="0"
       x2="1"
       y1="0"
       x1="0"><stop
         id="stop26"
         offset="0"
         style="stop-opacity:1;stop-color:#e6e7e8" /><stop
         id="stop28"
         offset="1"
         style="stop-opacity:1;stop-color:#d1d3d4" /></linearGradient><clipPath
       id="clipPath36"
       clipPathUnits="userSpaceOnUse"><path
         id="path38"
         d="m 66,96 c -3.318,0 -6,-2.503 -6,-5.6 l 0,0 0,-78.4 156,0 0,78.4 c 0,3.097 -2.682,5.6 -6,5.6 l 0,0 -144,0 z" /></clipPath><linearGradient
       id="linearGradient44"
       spreadMethod="pad"
       gradientTransform="matrix(-118.30521,118.30521,118.30521,118.30521,197.1526,-6.8473926)"
       gradientUnits="userSpaceOnUse"
       y2="0"
       x2="1"
       y1="0"
       x1="0"><stop
         id="stop46"
         offset="0"
         style="stop-opacity:1;stop-color:#e6e7e8" /><stop
         id="stop48"
         offset="1"
         style="stop-opacity:1;stop-color:#d1d3d4" /></linearGradient><clipPath
       id="clipPath56"
       clipPathUnits="userSpaceOnUse"><path
         id="path58"
         d="M 0,256 256,256 256,0 0,0 0,256 Z" /></clipPath></defs><g
     transform="matrix(1.25,0,0,-1.25,0,320)"
     id="g10"><g
       id="g12"><g
         clip-path="url(#clipPath16)"
         id="g14"><g
           id="g20"><g
             id="g22"><path
               id="path30"
               style="fill:url(#linearGradient24);stroke:none"
               d="M 17.273,244 C 14.357,244 12,241.643 12,238.728 l 0,0 L 12,38.363 33.091,12 238.728,12 c 2.915,0 5.272,2.357 5.272,5.273 l 0,0 0,221.455 c 0,2.915 -2.357,5.272 -5.272,5.272 l 0,0 -221.455,0 z M 224,224 l 16,0 0,-12 -16,0 0,12 z" /></g></g></g></g><g
       id="g32"><g
         clip-path="url(#clipPath36)"
         id="g34"><g
           id="g40"><g
             id="g42"><path
               id="path50"
               style="fill:url(#linearGradient44);stroke:none"
               d="m 66,96 c -3.318,0 -6,-2.503 -6,-5.6 l 0,0 0,-78.4 156,0 0,78.4 c 0,3.097 -2.682,5.6 -6,5.6 l 0,0 -144,0 z" /></g></g></g></g><g
       id="g52"><g
         clip-path="url(#clipPath56)"
         id="g54"><g
           transform="translate(35.9998,244)"
           id="g60"><path
             id="path62"
             style="fill:#ffffff;fill-opacity:1;fill-rule:nonzero;stroke:none"
             d="m 0,0 184,0 0,-110.2 c 0,-3.207 -2.419,-5.8 -5.412,-5.8 L 5.412,-116 C 2.419,-116 0,-113.407 0,-110.2 L 0,0 Z" /></g><path
           id="path64"
           style="fill:#999999;fill-opacity:1;fill-rule:nonzero;stroke:none"
           d="m 120,20 -36,0 0,64 36,0 0,-64 z M 182.727,92 77.273,92 C 74.357,92 72,88.749 72,84.727 L 72,12 l 116,0 0,72.727 C 188,88.749 185.643,92 182.727,92" /></g></g></g></svg>