<?xml version="1.0" encoding="UTF-8" standalone="no"?>
<svg
   xmlns:dc="http://purl.org/dc/elements/1.1/"
   xmlns:cc="http://creativecommons.org/ns#"
   xmlns:rdf="http://www.w3.org/1999/02/22-rdf-syntax-ns#"
   xmlns:svg="http://www.w3.org/2000/svg"
   xmlns="http://www.w3.org/2000/svg"
   viewBox="0 0 320 320"
   height="320"
   width="320"
   xml:space="preserve"
   version="1.1"
   id="svg2"><metadata
     id="metadata8"><rdf:RDF><cc:Work
         rdf:about=""><dc:format>image/svg+xml</dc:format><dc:type
           rdf:resource="http://purl.org/dc/dcmitype/StillImage" /></cc:Work></rdf:RDF></metadata><defs
     id="defs6"><clipPath
       id="clipPath16"
       clipPathUnits="userSpaceOnUse"><path
         id="path18"
         d="m 16,184 c -2.209,0 -4,-1.791 -4,-4 l 0,0 0,-100 c 0,-4.418 3.582,-8 8,-8 l 0,0 216,0 c 4.418,0 8,3.582 8,8 l 0,0 0,100 c 0,2.209 -1.791,4 -4,4 l 0,0 -224,0 z" /></clipPath><linearGradient
       id="linearGradient24"
       spreadMethod="pad"
       gradientTransform="matrix(168.48528,-168.48528,-168.48528,-168.48528,43.757359,213.41422)"
       gradientUnits="userSpaceOnUse"
       y2="0"
       x2="1"
       y1="0"
       x1="0"><stop
         id="stop26"
         offset="0"
         style="stop-opacity:1;stop-color:#e6e7e8" /><stop
         id="stop28"
         offset="1"
         style="stop-opacity:1;stop-color:#d1d3d4" /></linearGradient><clipPath
       id="clipPath36"
       clipPathUnits="userSpaceOnUse"><path
         id="path38"
         d="m 12,178 232,0 0,2 -232,0 0,-2 z" /></clipPath><linearGradient
       id="linearGradient44"
       spreadMethod="pad"
       gradientTransform="matrix(-116.99999,116.99999,116.99999,116.99999,186.5,120.5)"
       gradientUnits="userSpaceOnUse"
       y2="0"
       x2="1"
       y1="0"
       x1="0"><stop
         id="stop46"
         offset="0"
         style="stop-opacity:1;stop-color:#e6e7e8" /><stop
         id="stop48"
         offset="1"
         style="stop-opacity:1;stop-color:#d1d3d4" /></linearGradient><clipPath
       id="clipPath56"
       clipPathUnits="userSpaceOnUse"><path
         id="path58"
         d="m 12,174 232,0 0,2.001 -232,0 0,-2.001 z" /></clipPath><linearGradient
       id="linearGradient64"
       spreadMethod="pad"
       gradientTransform="matrix(-116.99999,116.99999,116.99999,116.99999,186.5,116.5)"
       gradientUnits="userSpaceOnUse"
       y2="0"
       x2="1"
       y1="0"
       x1="0"><stop
         id="stop66"
         offset="0"
         style="stop-opacity:1;stop-color:#e6e7e8" /><stop
         id="stop68"
         offset="1"
         style="stop-opacity:1;stop-color:#d1d3d4" /></linearGradient><clipPath
       id="clipPath76"
       clipPathUnits="userSpaceOnUse"><path
         id="path78"
         d="m 12,170 232,0 0,2 -232,0 0,-2 z" /></clipPath><linearGradient
       id="linearGradient84"
       spreadMethod="pad"
       gradientTransform="matrix(-116.99999,116.99999,116.99999,116.99999,186.5,112.5)"
       gradientUnits="userSpaceOnUse"
       y2="0"
       x2="1"
       y1="0"
       x1="0"><stop
         id="stop86"
         offset="0"
         style="stop-opacity:1;stop-color:#e6e7e8" /><stop
         id="stop88"
         offset="1"
         style="stop-opacity:1;stop-color:#d1d3d4" /></linearGradient><clipPath
       id="clipPath96"
       clipPathUnits="userSpaceOnUse"><path
         id="path98"
         d="m 12,166 232,0 0,2.001 -232,0 0,-2.001 z" /></clipPath><linearGradient
       id="linearGradient104"
       spreadMethod="pad"
       gradientTransform="matrix(-116.99999,116.99999,116.99999,116.99999,186.5,108.5)"
       gradientUnits="userSpaceOnUse"
       y2="0"
       x2="1"
       y1="0"
       x1="0"><stop
         id="stop106"
         offset="0"
         style="stop-opacity:1;stop-color:#e6e7e8" /><stop
         id="stop108"
         offset="1"
         style="stop-opacity:1;stop-color:#d1d3d4" /></linearGradient><clipPath
       id="clipPath116"
       clipPathUnits="userSpaceOnUse"><path
         id="path118"
         d="m 206,175 c -1.104,0 -2,-0.896 -2,-2 l 0,0 c 0,-1.105 0.896,-2 2,-2 l 0,0 12,0 c 1.104,0 2,0.895 2,2 l 0,0 c 0,1.104 -0.896,2 -2,2 l 0,0 -12,0 z" /></clipPath><linearGradient
       id="linearGradient124"
       spreadMethod="pad"
       gradientTransform="matrix(8.8284283,-8.8284283,-8.8284283,-8.8284283,207.58578,177.41422)"
       gradientUnits="userSpaceOnUse"
       y2="0"
       x2="1"
       y1="0"
       x1="0"><stop
         id="stop126"
         offset="0"
         style="stop-opacity:1;stop-color:#e6e7e8" /><stop
         id="stop128"
         offset="1"
         style="stop-opacity:1;stop-color:#d1d3d4" /></linearGradient><clipPath
       id="clipPath136"
       clipPathUnits="userSpaceOnUse"><path
         id="path138"
         d="M 0,256 256,256 256,0 0,0 0,256 Z" /></clipPath><clipPath
       id="clipPath148"
       clipPathUnits="userSpaceOnUse"><path
         id="path150"
         d="m 18,152 c -1.104,0 -2,-0.895 -2,-2 l 0,0 0,-60 c 0,-1.104 0.896,-2 2,-2 l 0,0 220,0 c 1.105,0 2,0.896 2,2 l 0,0 0,60 c 0,1.105 -0.895,2 -2,2 l 0,0 -220,0 z m 0,-2 220,0 0,-60 -220,0 0,60 z" /></clipPath><linearGradient
       id="linearGradient156"
       spreadMethod="pad"
       gradientTransform="matrix(-142.82843,142.82843,142.82843,142.82843,199.41422,48.585789)"
       gradientUnits="userSpaceOnUse"
       y2="0"
       x2="1"
       y1="0"
       x1="0"><stop
         id="stop158"
         offset="0"
         style="stop-opacity:1;stop-color:#e6e7e8" /><stop
         id="stop160"
         offset="1"
         style="stop-opacity:1;stop-color:#d1d3d4" /></linearGradient><clipPath
       id="clipPath168"
       clipPathUnits="userSpaceOnUse"><path
         id="path170"
         d="M 0,256 256,256 256,0 0,0 0,256 Z" /></clipPath><clipPath
       id="clipPath424"
       clipPathUnits="userSpaceOnUse"><path
         id="path426"
         d="m 68,177 0,-8 20,0 c 2.209,0 4,1.791 4,4 l 0,0 c 0,2.209 -1.791,4 -4,4 l 0,0 -20,0 z" /></clipPath><linearGradient
       id="linearGradient432"
       spreadMethod="pad"
       gradientTransform="matrix(14.828426,-14.828426,-14.828426,-14.828426,71.414215,180.41422)"
       gradientUnits="userSpaceOnUse"
       y2="0"
       x2="1"
       y1="0"
       x1="0"><stop
         id="stop434"
         offset="0"
         style="stop-opacity:1;stop-color:#e6e7e8" /><stop
         id="stop436"
         offset="1"
         style="stop-opacity:1;stop-color:#d1d3d4" /></linearGradient><clipPath
       id="clipPath444"
       clipPathUnits="userSpaceOnUse"><path
         id="path446"
         d="m 28,177 c -2.209,0 -4,-1.791 -4,-4 l 0,0 c 0,-2.209 1.791,-4 4,-4 l 0,0 40,0 0,8 -40,0 z" /></clipPath><linearGradient
       id="linearGradient452"
       spreadMethod="pad"
       gradientTransform="matrix(24.828438,-24.828438,-24.828438,-24.828438,34.757347,185.41423)"
       gradientUnits="userSpaceOnUse"
       y2="0"
       x2="1"
       y1="0"
       x1="0"><stop
         id="stop454"
         offset="0"
         style="stop-opacity:1;stop-color:#e6e7e8" /><stop
         id="stop456"
         offset="1"
         style="stop-opacity:1;stop-color:#d1d3d4" /></linearGradient></defs><g
     transform="matrix(1.25,0,0,-1.25,0,320)"
     id="g10"><g
       id="g12"><g
         clip-path="url(#clipPath16)"
         id="g14"><g
           id="g20"><g
             id="g22"><path
               id="path30"
               style="fill:url(#linearGradient24);stroke:none"
               d="m 16,184 c -2.209,0 -4,-1.791 -4,-4 l 0,0 0,-100 c 0,-4.418 3.582,-8 8,-8 l 0,0 216,0 c 4.418,0 8,3.582 8,8 l 0,0 0,100 c 0,2.209 -1.791,4 -4,4 l 0,0 -224,0 z" /></g></g></g></g><g
       id="g32"><g
         clip-path="url(#clipPath36)"
         id="g34"><g
           id="g40"><g
             id="g42"><path
               id="path50"
               style="fill:url(#linearGradient44);stroke:none"
               d="m 12,178 232,0 0,2 -232,0 0,-2 z" /></g></g></g></g><g
       id="g52"><g
         clip-path="url(#clipPath56)"
         id="g54"><g
           id="g60"><g
             id="g62"><path
               id="path70"
               style="fill:url(#linearGradient64);stroke:none"
               d="m 12,174 232,0 0,2.001 -232,0 0,-2.001 z" /></g></g></g></g><g
       id="g72"><g
         clip-path="url(#clipPath76)"
         id="g74"><g
           id="g80"><g
             id="g82"><path
               id="path90"
               style="fill:url(#linearGradient84);stroke:none"
               d="m 12,170 232,0 0,2 -232,0 0,-2 z" /></g></g></g></g><g
       id="g92"><g
         clip-path="url(#clipPath96)"
         id="g94"><g
           id="g100"><g
             id="g102"><path
               id="path110"
               style="fill:url(#linearGradient104);stroke:none"
               d="m 12,166 232,0 0,2.001 -232,0 0,-2.001 z" /></g></g></g></g><g
       id="g112"><g
         clip-path="url(#clipPath116)"
         id="g114"><g
           id="g120"><g
             id="g122"><path
               id="path130"
               style="fill:url(#linearGradient124);stroke:none"
               d="m 206,175 c -1.104,0 -2,-0.896 -2,-2 l 0,0 c 0,-1.105 0.896,-2 2,-2 l 0,0 12,0 c 1.104,0 2,0.895 2,2 l 0,0 c 0,1.104 -0.896,2 -2,2 l 0,0 -12,0 z" /></g></g></g></g><g
       id="g132"><g
         clip-path="url(#clipPath136)"
         id="g134"><g
           transform="translate(219,173)"
           id="g140"><path
             id="path142"
             style="fill:#999999;fill-opacity:1;fill-rule:nonzero;stroke:none"
             d="m 0,0 c 0,-0.552 -0.447,-1 -1,-1 -0.553,0 -1,0.448 -1,1 0,0.552 0.447,1 1,1 0.553,0 1,-0.448 1,-1" /></g></g></g><g
       id="g144"><g
         clip-path="url(#clipPath148)"
         id="g146"><g
           id="g152"><g
             id="g154"><path
               id="path162"
               style="fill:url(#linearGradient156);stroke:none"
               d="m 18,152 c -1.104,0 -2,-0.895 -2,-2 l 0,0 0,-60 c 0,-1.104 0.896,-2 2,-2 l 0,0 220,0 c 1.105,0 2,0.896 2,2 l 0,0 0,60 c 0,1.105 -0.895,2 -2,2 l 0,0 -220,0 z m 0,-2 220,0 0,-60 -220,0 0,60 z" /></g></g></g></g><g
       id="g164"><g
         clip-path="url(#clipPath168)"
         id="g166"><g
           transform="translate(26,140)"
           id="g172"><path
             id="path174"
             style="fill:#999999;fill-opacity:1;fill-rule:nonzero;stroke:none"
             d="m 0,0 0,0 c -1.104,0 -2,0.896 -2,2 l 0,4 C -2,7.104 -1.104,8 0,8 1.104,8 2,7.104 2,6 L 2,2 C 2,0.896 1.104,0 0,0" /></g><g
           transform="translate(50,140)"
           id="g176"><path
             id="path178"
             style="fill:#999999;fill-opacity:1;fill-rule:nonzero;stroke:none"
             d="m 0,0 -4,0 c -1.104,0 -2,0.896 -2,2 l 0,4 c 0,1.104 0.896,2 2,2 L 0,8 C 1.104,8 2,7.104 2,6 L 2,2 C 2,0.896 1.104,0 0,0" /></g><g
           transform="translate(38,140)"
           id="g180"><path
             id="path182"
             style="fill:#999999;fill-opacity:1;fill-rule:nonzero;stroke:none"
             d="m 0,0 -4,0 c -1.104,0 -2,0.896 -2,2 l 0,4 c 0,1.104 0.896,2 2,2 L 0,8 C 1.104,8 2,7.104 2,6 L 2,2 C 2,0.896 1.104,0 0,0" /></g><g
           transform="translate(62,140)"
           id="g184"><path
             id="path186"
             style="fill:#999999;fill-opacity:1;fill-rule:nonzero;stroke:none"
             d="m 0,0 -4,0 c -1.104,0 -2,0.896 -2,2 l 0,4 c 0,1.104 0.896,2 2,2 L 0,8 C 1.104,8 2,7.104 2,6 L 2,2 C 2,0.896 1.104,0 0,0" /></g><g
           transform="translate(74,140)"
           id="g188"><path
             id="path190"
             style="fill:#999999;fill-opacity:1;fill-rule:nonzero;stroke:none"
             d="m 0,0 -4,0 c -1.104,0 -2,0.896 -2,2 l 0,4 c 0,1.104 0.896,2 2,2 L 0,8 C 1.104,8 2,7.104 2,6 L 2,2 C 2,0.896 1.104,0 0,0" /></g><g
           transform="translate(86,140)"
           id="g192"><path
             id="path194"
             style="fill:#999999;fill-opacity:1;fill-rule:nonzero;stroke:none"
             d="m 0,0 -4,0 c -1.104,0 -2,0.896 -2,2 l 0,4 c 0,1.104 0.896,2 2,2 L 0,8 C 1.104,8 2,7.104 2,6 L 2,2 C 2,0.896 1.104,0 0,0" /></g><g
           transform="translate(98,140)"
           id="g196"><path
             id="path198"
             style="fill:#999999;fill-opacity:1;fill-rule:nonzero;stroke:none"
             d="m 0,0 -4,0 c -1.104,0 -2,0.896 -2,2 l 0,4 c 0,1.104 0.896,2 2,2 L 0,8 C 1.104,8 2,7.104 2,6 L 2,2 C 2,0.896 1.104,0 0,0" /></g><g
           transform="translate(110,140)"
           id="g200"><path
             id="path202"
             style="fill:#999999;fill-opacity:1;fill-rule:nonzero;stroke:none"
             d="m 0,0 -4,0 c -1.104,0 -2,0.896 -2,2 l 0,4 c 0,1.104 0.896,2 2,2 L 0,8 C 1.104,8 2,7.104 2,6 L 2,2 C 2,0.896 1.104,0 0,0" /></g><g
           transform="translate(122,140)"
           id="g204"><path
             id="path206"
             style="fill:#999999;fill-opacity:1;fill-rule:nonzero;stroke:none"
             d="m 0,0 -4,0 c -1.104,0 -2,0.896 -2,2 l 0,4 c 0,1.104 0.896,2 2,2 L 0,8 C 1.104,8 2,7.104 2,6 L 2,2 C 2,0.896 1.104,0 0,0" /></g><g
           transform="translate(134,140)"
           id="g208"><path
             id="path210"
             style="fill:#999999;fill-opacity:1;fill-rule:nonzero;stroke:none"
             d="m 0,0 -4,0 c -1.104,0 -2,0.896 -2,2 l 0,4 c 0,1.104 0.896,2 2,2 L 0,8 C 1.104,8 2,7.104 2,6 L 2,2 C 2,0.896 1.104,0 0,0" /></g><g
           transform="translate(146,140)"
           id="g212"><path
             id="path214"
             style="fill:#999999;fill-opacity:1;fill-rule:nonzero;stroke:none"
             d="m 0,0 -4,0 c -1.104,0 -2,0.896 -2,2 l 0,4 c 0,1.104 0.896,2 2,2 L 0,8 C 1.104,8 2,7.104 2,6 L 2,2 C 2,0.896 1.104,0 0,0" /></g><g
           transform="translate(158,140)"
           id="g216"><path
             id="path218"
             style="fill:#999999;fill-opacity:1;fill-rule:nonzero;stroke:none"
             d="m 0,0 -4,0 c -1.104,0 -2,0.896 -2,2 l 0,4 c 0,1.104 0.896,2 2,2 L 0,8 C 1.104,8 2,7.104 2,6 L 2,2 C 2,0.896 1.104,0 0,0" /></g><g
           transform="translate(170,140)"
           id="g220"><path
             id="path222"
             style="fill:#999999;fill-opacity:1;fill-rule:nonzero;stroke:none"
             d="m 0,0 -4,0 c -1.104,0 -2,0.896 -2,2 l 0,4 c 0,1.104 0.896,2 2,2 L 0,8 C 1.104,8 2,7.104 2,6 L 2,2 C 2,0.896 1.104,0 0,0" /></g><g
           transform="translate(182,140)"
           id="g224"><path
             id="path226"
             style="fill:#999999;fill-opacity:1;fill-rule:nonzero;stroke:none"
             d="m 0,0 -4,0 c -1.104,0 -2,0.896 -2,2 l 0,4 c 0,1.104 0.896,2 2,2 L 0,8 C 1.104,8 2,7.104 2,6 L 2,2 C 2,0.896 1.104,0 0,0" /></g><g
           transform="translate(194,140)"
           id="g228"><path
             id="path230"
             style="fill:#999999;fill-opacity:1;fill-rule:nonzero;stroke:none"
             d="m 0,0 -4,0 c -1.104,0 -2,0.896 -2,2 l 0,4 c 0,1.104 0.896,2 2,2 L 0,8 C 1.104,8 2,7.104 2,6 L 2,2 C 2,0.896 1.104,0 0,0" /></g><g
           transform="translate(26,116)"
           id="g232"><path
             id="path234"
             style="fill:#999999;fill-opacity:1;fill-rule:nonzero;stroke:none"
             d="m 0,0 -4,0 c -1.104,0 -2,0.896 -2,2 l 0,4 c 0,1.104 0.896,2 2,2 L 0,8 C 1.104,8 2,7.104 2,6 L 2,2 C 2,0.896 1.104,0 0,0" /></g><g
           transform="translate(38,116)"
           id="g236"><path
             id="path238"
             style="fill:#999999;fill-opacity:1;fill-rule:nonzero;stroke:none"
             d="m 0,0 -4,0 c -1.104,0 -2,0.896 -2,2 l 0,4 c 0,1.104 0.896,2 2,2 L 0,8 C 1.104,8 2,7.104 2,6 L 2,2 C 2,0.896 1.104,0 0,0" /></g><g
           transform="translate(50,116)"
           id="g240"><path
             id="path242"
             style="fill:#999999;fill-opacity:1;fill-rule:nonzero;stroke:none"
             d="m 0,0 -4,0 c -1.104,0 -2,0.896 -2,2 l 0,4 c 0,1.104 0.896,2 2,2 L 0,8 C 1.104,8 2,7.104 2,6 L 2,2 C 2,0.896 1.104,0 0,0" /></g><g
           transform="translate(62,116)"
           id="g244"><path
             id="path246"
             style="fill:#999999;fill-opacity:1;fill-rule:nonzero;stroke:none"
             d="m 0,0 -4,0 c -1.104,0 -2,0.896 -2,2 l 0,4 c 0,1.104 0.896,2 2,2 L 0,8 C 1.104,8 2,7.104 2,6 L 2,2 C 2,0.896 1.104,0 0,0" /></g><g
           transform="translate(74,116)"
           id="g248"><path
             id="path250"
             style="fill:#999999;fill-opacity:1;fill-rule:nonzero;stroke:none"
             d="m 0,0 -4,0 c -1.104,0 -2,0.896 -2,2 l 0,4 c 0,1.104 0.896,2 2,2 L 0,8 C 1.104,8 2,7.104 2,6 L 2,2 C 2,0.896 1.104,0 0,0" /></g><g
           transform="translate(86,116)"
           id="g252"><path
             id="path254"
             style="fill:#999999;fill-opacity:1;fill-rule:nonzero;stroke:none"
             d="m 0,0 -4,0 c -1.104,0 -2,0.896 -2,2 l 0,4 c 0,1.104 0.896,2 2,2 L 0,8 C 1.104,8 2,7.104 2,6 L 2,2 C 2,0.896 1.104,0 0,0" /></g><g
           transform="translate(98,116)"
           id="g256"><path
             id="path258"
             style="fill:#999999;fill-opacity:1;fill-rule:nonzero;stroke:none"
             d="m 0,0 -4,0 c -1.104,0 -2,0.896 -2,2 l 0,4 c 0,1.104 0.896,2 2,2 L 0,8 C 1.104,8 2,7.104 2,6 L 2,2 C 2,0.896 1.104,0 0,0" /></g><g
           transform="translate(110,116)"
           id="g260"><path
             id="path262"
             style="fill:#999999;fill-opacity:1;fill-rule:nonzero;stroke:none"
             d="m 0,0 -4,0 c -1.104,0 -2,0.896 -2,2 l 0,4 c 0,1.104 0.896,2 2,2 L 0,8 C 1.104,8 2,7.104 2,6 L 2,2 C 2,0.896 1.104,0 0,0" /></g><g
           transform="translate(122,116)"
           id="g264"><path
             id="path266"
             style="fill:#999999;fill-opacity:1;fill-rule:nonzero;stroke:none"
             d="m 0,0 -4,0 c -1.104,0 -2,0.896 -2,2 l 0,4 c 0,1.104 0.896,2 2,2 L 0,8 C 1.104,8 2,7.104 2,6 L 2,2 C 2,0.896 1.104,0 0,0" /></g><g
           transform="translate(134,116)"
           id="g268"><path
             id="path270"
             style="fill:#999999;fill-opacity:1;fill-rule:nonzero;stroke:none"
             d="m 0,0 -4,0 c -1.104,0 -2,0.896 -2,2 l 0,4 c 0,1.104 0.896,2 2,2 L 0,8 C 1.104,8 2,7.104 2,6 L 2,2 C 2,0.896 1.104,0 0,0" /></g><g
           transform="translate(146,116)"
           id="g272"><path
             id="path274"
             style="fill:#999999;fill-opacity:1;fill-rule:nonzero;stroke:none"
             d="m 0,0 -4,0 c -1.104,0 -2,0.896 -2,2 l 0,4 c 0,1.104 0.896,2 2,2 L 0,8 C 1.104,8 2,7.104 2,6 L 2,2 C 2,0.896 1.104,0 0,0" /></g><g
           transform="translate(158,116)"
           id="g276"><path
             id="path278"
             style="fill:#999999;fill-opacity:1;fill-rule:nonzero;stroke:none"
             d="m 0,0 -4,0 c -1.104,0 -2,0.896 -2,2 l 0,4 c 0,1.104 0.896,2 2,2 L 0,8 C 1.104,8 2,7.104 2,6 L 2,2 C 2,0.896 1.104,0 0,0" /></g><g
           transform="translate(170,116)"
           id="g280"><path
             id="path282"
             style="fill:#999999;fill-opacity:1;fill-rule:nonzero;stroke:none"
             d="m 0,0 -4,0 c -1.104,0 -2,0.896 -2,2 l 0,4 c 0,1.104 0.896,2 2,2 L 0,8 C 1.104,8 2,7.104 2,6 L 2,2 C 2,0.896 1.104,0 0,0" /></g><g
           transform="translate(190,116)"
           id="g284"><path
             id="path286"
             style="fill:#999999;fill-opacity:1;fill-rule:nonzero;stroke:none"
             d="m 0,0 -12,0 c -1.104,0 -2,0.896 -2,2 l 0,4 c 0,1.104 0.896,2 2,2 L 0,8 C 1.104,8 2,7.104 2,6 L 2,2 C 2,0.896 1.104,0 0,0" /></g><g
           transform="translate(34,128)"
           id="g288"><path
             id="path290"
             style="fill:#999999;fill-opacity:1;fill-rule:nonzero;stroke:none"
             d="m 0,0 -8,0 c -1.104,0 -2,0.896 -2,2 l 0,4 c 0,1.104 0.896,2 2,2 L 0,8 C 1.104,8 2,7.104 2,6 L 2,2 C 2,0.896 1.104,0 0,0" /></g><g
           transform="translate(46,128)"
           id="g292"><path
             id="path294"
             style="fill:#999999;fill-opacity:1;fill-rule:nonzero;stroke:none"
             d="m 0,0 -4,0 c -1.104,0 -2,0.896 -2,2 l 0,4 c 0,1.104 0.896,2 2,2 L 0,8 C 1.104,8 2,7.104 2,6 L 2,2 C 2,0.896 1.104,0 0,0" /></g><g
           transform="translate(58,128)"
           id="g296"><path
             id="path298"
             style="fill:#999999;fill-opacity:1;fill-rule:nonzero;stroke:none"
             d="m 0,0 -4,0 c -1.104,0 -2,0.896 -2,2 l 0,4 c 0,1.104 0.896,2 2,2 L 0,8 C 1.104,8 2,7.104 2,6 L 2,2 C 2,0.896 1.104,0 0,0" /></g><g
           transform="translate(70,128)"
           id="g300"><path
             id="path302"
             style="fill:#999999;fill-opacity:1;fill-rule:nonzero;stroke:none"
             d="m 0,0 -4,0 c -1.104,0 -2,0.896 -2,2 l 0,4 c 0,1.104 0.896,2 2,2 L 0,8 C 1.104,8 2,7.104 2,6 L 2,2 C 2,0.896 1.104,0 0,0" /></g><g
           transform="translate(82,128)"
           id="g304"><path
             id="path306"
             style="fill:#999999;fill-opacity:1;fill-rule:nonzero;stroke:none"
             d="m 0,0 -4,0 c -1.104,0 -2,0.896 -2,2 l 0,4 c 0,1.104 0.896,2 2,2 L 0,8 C 1.104,8 2,7.104 2,6 L 2,2 C 2,0.896 1.104,0 0,0" /></g><g
           transform="translate(94,128)"
           id="g308"><path
             id="path310"
             style="fill:#999999;fill-opacity:1;fill-rule:nonzero;stroke:none"
             d="m 0,0 -4,0 c -1.104,0 -2,0.896 -2,2 l 0,4 c 0,1.104 0.896,2 2,2 L 0,8 C 1.104,8 2,7.104 2,6 L 2,2 C 2,0.896 1.104,0 0,0" /></g><g
           transform="translate(106,128)"
           id="g312"><path
             id="path314"
             style="fill:#999999;fill-opacity:1;fill-rule:nonzero;stroke:none"
             d="m 0,0 -4,0 c -1.104,0 -2,0.896 -2,2 l 0,4 c 0,1.104 0.896,2 2,2 L 0,8 C 1.104,8 2,7.104 2,6 L 2,2 C 2,0.896 1.104,0 0,0" /></g><g
           transform="translate(118,128)"
           id="g316"><path
             id="path318"
             style="fill:#999999;fill-opacity:1;fill-rule:nonzero;stroke:none"
             d="m 0,0 -4,0 c -1.104,0 -2,0.896 -2,2 l 0,4 c 0,1.104 0.896,2 2,2 L 0,8 C 1.104,8 2,7.104 2,6 L 2,2 C 2,0.896 1.104,0 0,0" /></g><g
           transform="translate(130,128)"
           id="g320"><path
             id="path322"
             style="fill:#999999;fill-opacity:1;fill-rule:nonzero;stroke:none"
             d="m 0,0 -4,0 c -1.104,0 -2,0.896 -2,2 l 0,4 c 0,1.104 0.896,2 2,2 L 0,8 C 1.104,8 2,7.104 2,6 L 2,2 C 2,0.896 1.104,0 0,0" /></g><g
           transform="translate(142,128)"
           id="g324"><path
             id="path326"
             style="fill:#999999;fill-opacity:1;fill-rule:nonzero;stroke:none"
             d="m 0,0 -4,0 c -1.104,0 -2,0.896 -2,2 l 0,4 c 0,1.104 0.896,2 2,2 L 0,8 C 1.104,8 2,7.104 2,6 L 2,2 C 2,0.896 1.104,0 0,0" /></g><g
           transform="translate(154,128)"
           id="g328"><path
             id="path330"
             style="fill:#999999;fill-opacity:1;fill-rule:nonzero;stroke:none"
             d="m 0,0 -4,0 c -1.104,0 -2,0.896 -2,2 l 0,4 c 0,1.104 0.896,2 2,2 L 0,8 C 1.104,8 2,7.104 2,6 L 2,2 C 2,0.896 1.104,0 0,0" /></g><g
           transform="translate(166,128)"
           id="g332"><path
             id="path334"
             style="fill:#999999;fill-opacity:1;fill-rule:nonzero;stroke:none"
             d="m 0,0 -4,0 c -1.104,0 -2,0.896 -2,2 l 0,4 c 0,1.104 0.896,2 2,2 L 0,8 C 1.104,8 2,7.104 2,6 L 2,2 C 2,0.896 1.104,0 0,0" /></g><g
           transform="translate(178,128)"
           id="g336"><path
             id="path338"
             style="fill:#999999;fill-opacity:1;fill-rule:nonzero;stroke:none"
             d="m 0,0 -4,0 c -1.104,0 -2,0.896 -2,2 l 0,4 c 0,1.104 0.896,2 2,2 L 0,8 C 1.104,8 2,7.104 2,6 L 2,2 C 2,0.896 1.104,0 0,0" /></g><g
           transform="translate(42,104)"
           id="g340"><path
             id="path342"
             style="fill:#999999;fill-opacity:1;fill-rule:nonzero;stroke:none"
             d="m 0,0 -8,0 c -1.104,0 -2,0.896 -2,2 l 0,4 c 0,1.104 0.896,2 2,2 L 0,8 C 1.104,8 2,7.104 2,6 L 2,2 C 2,0.896 1.104,0 0,0" /></g><g
           transform="translate(26,104)"
           id="g344"><path
             id="path346"
             style="fill:#999999;fill-opacity:1;fill-rule:nonzero;stroke:none"
             d="m 0,0 -4,0 c -1.104,0 -2,0.896 -2,2 l 0,4 c 0,1.104 0.896,2 2,2 L 0,8 C 1.104,8 2,7.104 2,6 L 2,2 C 2,0.896 1.104,0 0,0" /></g><g
           transform="translate(54,104)"
           id="g348"><path
             id="path350"
             style="fill:#999999;fill-opacity:1;fill-rule:nonzero;stroke:none"
             d="m 0,0 -4,0 c -1.104,0 -2,0.896 -2,2 l 0,4 c 0,1.104 0.896,2 2,2 L 0,8 C 1.104,8 2,7.104 2,6 L 2,2 C 2,0.896 1.104,0 0,0" /></g><g
           transform="translate(66,104)"
           id="g352"><path
             id="path354"
             style="fill:#999999;fill-opacity:1;fill-rule:nonzero;stroke:none"
             d="m 0,0 -4,0 c -1.104,0 -2,0.896 -2,2 l 0,4 c 0,1.104 0.896,2 2,2 L 0,8 C 1.104,8 2,7.104 2,6 L 2,2 C 2,0.896 1.104,0 0,0" /></g><g
           transform="translate(78,104)"
           id="g356"><path
             id="path358"
             style="fill:#999999;fill-opacity:1;fill-rule:nonzero;stroke:none"
             d="m 0,0 -4,0 c -1.104,0 -2,0.896 -2,2 l 0,4 c 0,1.104 0.896,2 2,2 L 0,8 C 1.104,8 2,7.104 2,6 L 2,2 C 2,0.896 1.104,0 0,0" /></g><g
           transform="translate(90,104)"
           id="g360"><path
             id="path362"
             style="fill:#999999;fill-opacity:1;fill-rule:nonzero;stroke:none"
             d="m 0,0 -4,0 c -1.104,0 -2,0.896 -2,2 l 0,4 c 0,1.104 0.896,2 2,2 L 0,8 C 1.104,8 2,7.104 2,6 L 2,2 C 2,0.896 1.104,0 0,0" /></g><g
           transform="translate(102,104)"
           id="g364"><path
             id="path366"
             style="fill:#999999;fill-opacity:1;fill-rule:nonzero;stroke:none"
             d="m 0,0 -4,0 c -1.104,0 -2,0.896 -2,2 l 0,4 c 0,1.104 0.896,2 2,2 L 0,8 C 1.104,8 2,7.104 2,6 L 2,2 C 2,0.896 1.104,0 0,0" /></g><g
           transform="translate(114,104)"
           id="g368"><path
             id="path370"
             style="fill:#999999;fill-opacity:1;fill-rule:nonzero;stroke:none"
             d="m 0,0 -4,0 c -1.104,0 -2,0.896 -2,2 l 0,4 c 0,1.104 0.896,2 2,2 L 0,8 C 1.104,8 2,7.104 2,6 L 2,2 C 2,0.896 1.104,0 0,0" /></g><g
           transform="translate(126,104)"
           id="g372"><path
             id="path374"
             style="fill:#999999;fill-opacity:1;fill-rule:nonzero;stroke:none"
             d="m 0,0 -4,0 c -1.104,0 -2,0.896 -2,2 l 0,4 c 0,1.104 0.896,2 2,2 L 0,8 C 1.104,8 2,7.104 2,6 L 2,2 C 2,0.896 1.104,0 0,0" /></g><g
           transform="translate(138,104)"
           id="g376"><path
             id="path378"
             style="fill:#999999;fill-opacity:1;fill-rule:nonzero;stroke:none"
             d="m 0,0 -4,0 c -1.104,0 -2,0.896 -2,2 l 0,4 c 0,1.104 0.896,2 2,2 L 0,8 C 1.104,8 2,7.104 2,6 L 2,2 C 2,0.896 1.104,0 0,0" /></g><g
           transform="translate(150,104)"
           id="g380"><path
             id="path382"
             style="fill:#999999;fill-opacity:1;fill-rule:nonzero;stroke:none"
             d="m 0,0 -4,0 c -1.104,0 -2,0.896 -2,2 l 0,4 c 0,1.104 0.896,2 2,2 L 0,8 C 1.104,8 2,7.104 2,6 L 2,2 C 2,0.896 1.104,0 0,0" /></g><g
           transform="translate(166,104)"
           id="g384"><path
             id="path386"
             style="fill:#999999;fill-opacity:1;fill-rule:nonzero;stroke:none"
             d="m 0,0 -8,0 c -1.104,0 -2,0.896 -2,2 l 0,4 c 0,1.104 0.896,2 2,2 L 0,8 C 1.104,8 2,7.104 2,6 L 2,2 C 2,0.896 1.104,0 0,0" /></g><g
           transform="translate(178,104)"
           id="g388"><path
             id="path390"
             style="fill:#999999;fill-opacity:1;fill-rule:nonzero;stroke:none"
             d="m 0,0 -4,0 c -1.104,0 -2,0.896 -2,2 l 0,4 c 0,1.104 0.896,2 2,2 L 0,8 C 1.104,8 2,7.104 2,6 L 2,2 C 2,0.896 1.104,0 0,0" /></g><g
           transform="translate(190,104)"
           id="g392"><path
             id="path394"
             style="fill:#999999;fill-opacity:1;fill-rule:nonzero;stroke:none"
             d="m 0,0 -4,0 c -1.104,0 -2,0.896 -2,2 l 0,4 c 0,1.104 0.896,2 2,2 L 0,8 C 1.104,8 2,7.104 2,6 L 2,2 C 2,0.896 1.104,0 0,0" /></g><g
           transform="translate(194,128)"
           id="g396"><path
             id="path398"
             style="fill:#999999;fill-opacity:1;fill-rule:nonzero;stroke:none"
             d="m 0,0 -8,0 c -1.104,0 -2,0.896 -2,2 l 0,4 c 0,1.104 0.896,2 2,2 L 0,8 C 1.104,8 2,7.104 2,6 L 2,2 C 2,0.896 1.104,0 0,0" /></g><g
           transform="translate(146,92)"
           id="g400"><path
             id="path402"
             style="fill:#999999;fill-opacity:1;fill-rule:nonzero;stroke:none"
             d="m 0,0 -96,0 c -1.104,0 -2,0.896 -2,2 l 0,4 c 0,1.104 0.896,2 2,2 L 0,8 C 1.104,8 2,7.104 2,6 L 2,2 C 2,0.896 1.104,0 0,0" /></g><g
           transform="translate(222,140)"
           id="g404"><path
             id="path406"
             style="fill:#999999;fill-opacity:1;fill-rule:nonzero;stroke:none"
             d="m 0,0 -12,0 c -1.104,0 -2,0.896 -2,2 l 0,4 c 0,1.104 0.896,2 2,2 L 0,8 C 1.104,8 2,7.104 2,6 L 2,2 C 2,0.896 1.104,0 0,0" /></g><g
           transform="translate(222,128)"
           id="g408"><path
             id="path410"
             style="fill:#999999;fill-opacity:1;fill-rule:nonzero;stroke:none"
             d="m 0,0 -12,0 c -1.104,0 -2,0.896 -2,2 l 0,4 c 0,1.104 0.896,2 2,2 L 0,8 C 1.104,8 2,7.104 2,6 L 2,2 C 2,0.896 1.104,0 0,0" /></g><g
           transform="translate(222,116)"
           id="g412"><path
             id="path414"
             style="fill:#999999;fill-opacity:1;fill-rule:nonzero;stroke:none"
             d="m 0,0 -12,0 c -1.104,0 -2,0.896 -2,2 l 0,4 c 0,1.104 0.896,2 2,2 L 0,8 C 1.104,8 2,7.104 2,6 L 2,2 C 2,0.896 1.104,0 0,0" /></g><g
           transform="translate(222,104)"
           id="g416"><path
             id="path418"
             style="fill:#999999;fill-opacity:1;fill-rule:nonzero;stroke:none"
             d="m 0,0 -12,0 c -1.104,0 -2,0.896 -2,2 l 0,4 c 0,1.104 0.896,2 2,2 L 0,8 C 1.104,8 2,7.104 2,6 L 2,2 C 2,0.896 1.104,0 0,0" /></g></g></g><g
       id="g420"><g
         clip-path="url(#clipPath424)"
         id="g422"><g
           id="g428"><g
             id="g430"><path
               id="path438"
               style="fill:url(#linearGradient432);stroke:none"
               d="m 68,177 0,-8 20,0 c 2.209,0 4,1.791 4,4 l 0,0 c 0,2.209 -1.791,4 -4,4 l 0,0 -20,0 z" /></g></g></g></g><g
       id="g440"><g
         clip-path="url(#clipPath444)"
         id="g442"><g
           id="g448"><g
             id="g450"><path
               id="path458"
               style="fill:url(#linearGradient452);stroke:none"
               d="m 28,177 c -2.209,0 -4,-1.791 -4,-4 l 0,0 c 0,-2.209 1.791,-4 4,-4 l 0,0 40,0 0,8 -40,0 z" /></g></g></g></g></g></svg>