<?xml version="1.0" encoding="UTF-8" standalone="no"?>
<svg
   xmlns:dc="http://purl.org/dc/elements/1.1/"
   xmlns:cc="http://creativecommons.org/ns#"
   xmlns:rdf="http://www.w3.org/1999/02/22-rdf-syntax-ns#"
   xmlns:svg="http://www.w3.org/2000/svg"
   xmlns="http://www.w3.org/2000/svg"
   viewBox="0 0 320 320"
   height="320"
   width="320"
   xml:space="preserve"
   version="1.1"
   id="svg2"><metadata
     id="metadata8"><rdf:RDF><cc:Work
         rdf:about=""><dc:format>image/svg+xml</dc:format><dc:type
           rdf:resource="http://purl.org/dc/dcmitype/StillImage" /></cc:Work></rdf:RDF></metadata><defs
     id="defs6"><clipPath
       id="clipPath16"
       clipPathUnits="userSpaceOnUse"><path
         id="path18"
         d="m 16,192 c -2.209,0 -4,-1.791 -4,-4 l 0,0 0,-120 232,0 0,120 c 0,2.209 -1.791,4 -4,4 l 0,0 -224,0 z" /></clipPath><linearGradient
       id="linearGradient24"
       spreadMethod="pad"
       gradientTransform="matrix(176.82843,-176.82843,-176.82843,-176.82843,39.585785,217.24265)"
       gradientUnits="userSpaceOnUse"
       y2="0"
       x2="1"
       y1="0"
       x1="0"><stop
         id="stop26"
         offset="0"
         style="stop-opacity:1;stop-color:#e6e7e8" /><stop
         id="stop28"
         offset="1"
         style="stop-opacity:1;stop-color:#d1d3d4" /></linearGradient><clipPath
       id="clipPath36"
       clipPathUnits="userSpaceOnUse"><path
         id="path38"
         d="m 20,80 216,0 0,108 -216,0 0,-108 z" /></clipPath><linearGradient
       id="linearGradient44"
       spreadMethod="pad"
       gradientTransform="matrix(-162,162,162,162,209,53)"
       gradientUnits="userSpaceOnUse"
       y2="0"
       x2="1"
       y1="0"
       x1="0"><stop
         id="stop46"
         offset="0"
         style="stop-opacity:1;stop-color:#e6e7e8" /><stop
         id="stop48"
         offset="1"
         style="stop-opacity:1;stop-color:#d1d3d4" /></linearGradient><clipPath
       id="clipPath56"
       clipPathUnits="userSpaceOnUse"><path
         id="path58"
         d="M 0,256 256,256 256,0 0,0 0,256 Z" /></clipPath><clipPath
       id="clipPath68"
       clipPathUnits="userSpaceOnUse"><path
         id="path70"
         d="m 40,168 c -4.411,0 -8,-3.589 -8,-8 l 0,0 0,-56 c 0,-4.411 3.589,-8 8,-8 l 0,0 176,0 c 4.411,0 8,3.589 8,8 l 0,0 0,56 c 0,4.411 -3.589,8 -8,8 l 0,0 -176,0 z m -4,-64 0,56 c 0,2.209 1.791,4 4,4 l 0,0 176,0 c 2.209,0 4,-1.791 4,-4 l 0,0 0,-56 c 0,-2.209 -1.791,-4 -4,-4 l 0,0 -176,0 c -2.209,0 -4,1.791 -4,4" /></clipPath><linearGradient
       id="linearGradient76"
       spreadMethod="pad"
       gradientTransform="matrix(127.3084,-127.3084,-127.3084,-127.3084,64.345802,195.65421)"
       gradientUnits="userSpaceOnUse"
       y2="0"
       x2="1"
       y1="0"
       x1="0"><stop
         id="stop78"
         offset="0"
         style="stop-opacity:1;stop-color:#e6e7e8" /><stop
         id="stop80"
         offset="1"
         style="stop-opacity:1;stop-color:#d1d3d4" /></linearGradient><clipPath
       id="clipPath88"
       clipPathUnits="userSpaceOnUse"><path
         id="path90"
         d="M 241.105,190.552 236,188 l 0,-108 8,-12 0,120.764 c 0,1.159 -0.951,2.002 -2.001,2.002 l 0,0 c -0.296,0 -0.6,-0.067 -0.894,-0.214" /></clipPath><linearGradient
       id="linearGradient96"
       spreadMethod="pad"
       gradientTransform="matrix(-63.999996,63.999996,63.999996,63.999996,274.39841,98.398399)"
       gradientUnits="userSpaceOnUse"
       y2="0"
       x2="1"
       y1="0"
       x1="0"><stop
         id="stop98"
         offset="0"
         style="stop-opacity:1;stop-color:#e6e7e8" /><stop
         id="stop100"
         offset="1"
         style="stop-opacity:1;stop-color:#d1d3d4" /></linearGradient><clipPath
       id="clipPath108"
       clipPathUnits="userSpaceOnUse"><path
         id="path110"
         d="M 12,188.764 12,68 l 8,12 0,108 -5.106,2.552 c -0.293,0.147 -0.597,0.214 -0.893,0.214 l 0,0 c -1.05,0 -2.001,-0.843 -2.001,-2.002" /></clipPath><linearGradient
       id="linearGradient116"
       spreadMethod="pad"
       gradientTransform="matrix(-60.796799,60.796799,60.796799,60.796799,44,100)"
       gradientUnits="userSpaceOnUse"
       y2="0"
       x2="1"
       y1="0"
       x1="0"><stop
         id="stop118"
         offset="0"
         style="stop-opacity:1;stop-color:#e6e7e8" /><stop
         id="stop120"
         offset="1"
         style="stop-opacity:1;stop-color:#d1d3d4" /></linearGradient></defs><g
     transform="matrix(1.25,0,0,-1.25,0,320)"
     id="g10"><g
       id="g12"><g
         clip-path="url(#clipPath16)"
         id="g14"><g
           id="g20"><g
             id="g22"><path
               id="path30"
               style="fill:url(#linearGradient24);stroke:none"
               d="m 16,192 c -2.209,0 -4,-1.791 -4,-4 l 0,0 0,-120 232,0 0,120 c 0,2.209 -1.791,4 -4,4 l 0,0 -224,0 z" /></g></g></g></g><g
       id="g32"><g
         clip-path="url(#clipPath36)"
         id="g34"><g
           id="g40"><g
             id="g42"><path
               id="path50"
               style="fill:url(#linearGradient44);stroke:none"
               d="m 20,80 216,0 0,108 -216,0 0,-108 z" /></g></g></g></g><g
       id="g52"><g
         clip-path="url(#clipPath56)"
         id="g54"><g
           transform="translate(228,88)"
           id="g60"><path
             id="path62"
             style="fill:#ffffff;fill-opacity:1;fill-rule:nonzero;stroke:none"
             d="m 0,0 -200,0 c -2.209,0 -4,1.791 -4,4 l 0,88 c 0,2.209 1.791,4 4,4 L 0,96 c 2.209,0 4,-1.791 4,-4 L 4,4 C 4,1.791 2.209,0 0,0" /></g></g></g><g
       id="g64"><g
         clip-path="url(#clipPath68)"
         id="g66"><g
           id="g72"><g
             id="g74"><path
               id="path82"
               style="fill:url(#linearGradient76);stroke:none"
               d="m 40,168 c -4.411,0 -8,-3.589 -8,-8 l 0,0 0,-56 c 0,-4.411 3.589,-8 8,-8 l 0,0 176,0 c 4.411,0 8,3.589 8,8 l 0,0 0,56 c 0,4.411 -3.589,8 -8,8 l 0,0 -176,0 z m -4,-64 0,56 c 0,2.209 1.791,4 4,4 l 0,0 176,0 c 2.209,0 4,-1.791 4,-4 l 0,0 0,-56 c 0,-2.209 -1.791,-4 -4,-4 l 0,0 -176,0 c -2.209,0 -4,1.791 -4,4" /></g></g></g></g><g
       id="g84"><g
         clip-path="url(#clipPath88)"
         id="g86"><g
           id="g92"><g
             id="g94"><path
               id="path102"
               style="fill:url(#linearGradient96);stroke:none"
               d="M 241.105,190.552 236,188 l 0,-108 8,-12 0,120.764 c 0,1.159 -0.951,2.002 -2.001,2.002 l 0,0 c -0.296,0 -0.6,-0.067 -0.894,-0.214" /></g></g></g></g><g
       id="g104"><g
         clip-path="url(#clipPath108)"
         id="g106"><g
           id="g112"><g
             id="g114"><path
               id="path122"
               style="fill:url(#linearGradient116);stroke:none"
               d="M 12,188.764 12,68 l 8,12 0,108 -5.106,2.552 c -0.293,0.147 -0.597,0.214 -0.893,0.214 l 0,0 c -1.05,0 -2.001,-0.843 -2.001,-2.002" /></g></g></g></g></g></svg>