<?xml version="1.0" encoding="UTF-8" standalone="no"?>
<svg
   xmlns:dc="http://purl.org/dc/elements/1.1/"
   xmlns:cc="http://creativecommons.org/ns#"
   xmlns:rdf="http://www.w3.org/1999/02/22-rdf-syntax-ns#"
   xmlns:svg="http://www.w3.org/2000/svg"
   xmlns="http://www.w3.org/2000/svg"
   viewBox="0 0 320 320"
   height="320"
   width="320"
   xml:space="preserve"
   version="1.1"
   id="svg2"><metadata
     id="metadata8"><rdf:RDF><cc:Work
         rdf:about=""><dc:format>image/svg+xml</dc:format><dc:type
           rdf:resource="http://purl.org/dc/dcmitype/StillImage" /></cc:Work></rdf:RDF></metadata><defs
     id="defs6"><clipPath
       id="clipPath16"
       clipPathUnits="userSpaceOnUse"><path
         id="path18"
         d="M 0,256 256,256 256,0 0,0 0,256 Z" /></clipPath><clipPath
       id="clipPath28"
       clipPathUnits="userSpaceOnUse"><path
         id="path30"
         d="m 232,196 0,-8 0,-4 -2,0 0,12 -2,0 0,-12 -2,0 0,12 -2,0 0,-12 -2,0 0,12 -2,0 0,-12 -2,0 0,12 -2,0 0,-12 -2,0 0,12 -2,0 0,-12 -2,0 0,12 -2,0 0,-12 -2,0 0,12 -2,0 0,-12 -2,0 0,12 -2,0 0,-12 -2,0 0,12 -2,0 0,-12 -2,0 0,12 -2,0 0,-12 -2,0 0,12 -2,0 0,-12 -2,0 0,12 -2,0 0,-12 -2,0 0,12 -2,0 0,-12 -2,0 0,12 -2,0 0,-12 -2,0 0,12 -2,0 0,-12 -2,0 0,12 -2,0 0,-12 -2,0 0,12 -2,0 0,-12 -2,0 0,12 -2,0 0,-12 -2,0 0,12 -2,0 0,-12 -2,0 0,12 -2,0 0,-12 -2,0 0,12 -2,0 0,-12 -2,0 0,12 -2,0 0,-12 -2,0 0,12 -2,0 0,-12 -2,0 0,12 -2,0 0,-12 -2,0 0,12 -2,0 0,-12 -2,0 0,12 -2,0 0,-12 -2,0 0,12 -2,0 0,-12 -2,0 0,12 -2,0 0,-12 -2,0 0,12 -2,0 0,-12 -2,0 0,12 -2,0 0,-12 -2,0 0,12 -2,0 0,-12 -2,0 0,12 -2,0 0,-12 -2,0 0,12 -2,0 0,-12 -2,0 0,12 -2,0 0,-12 -2,0 0,12 -2,0 0,-12 -2,0 0,12 -2,0 0,-12 -2,0 0,12 -2,0 0,-12 -2,0 0,12 -2,0 0,-12 -2,0 0,12 -2,0 0,-12 -2,0 0,12 -2,0 0,-12 -2,0 0,12 -2,0 0,-12 -2,0 0,12 -2,0 0,-12 -2,0 0,12 -2,0 0,-12 -2,0 0,12 -2,0 0,-12 -2,0 0,12 -2,0 0,-12 -2,0 0,12 -2,0 0,-12 -2,0 0,12 -2,0 0,-12 -2,0 0,12 -2,0 0,-12 -2,0 0,12 -2,0 0,-12 -2,0 0,12 -2,0 0,-12 -2,0 0,12 -2,0 0,-12 -2,0 0,12 -2,0 0,-12 -2,0 0,12 -2,0 0,-12 -8,0 0,-4 216,0 0,-4 -216,0 0,-4 216,0 0,-4 -216,0 0,-4 216,0 0,-4 -216,0 0,-28 232,0 0,28 -4,0 0,20 4,0 0,8 -10,0 0,8 -2,0 z" /></clipPath><linearGradient
       id="linearGradient36"
       spreadMethod="pad"
       gradientTransform="matrix(144,-144,-144,-144,56,232)"
       gradientUnits="userSpaceOnUse"
       y2="0"
       x2="1"
       y1="0"
       x1="0"><stop
         id="stop38"
         offset="0"
         style="stop-opacity:1;stop-color:#e6e7e8" /><stop
         id="stop40"
         offset="1"
         style="stop-opacity:1;stop-color:#d1d3d4" /></linearGradient><clipPath
       id="clipPath48"
       clipPathUnits="userSpaceOnUse"><path
         id="path50"
         d="M 0,256 256,256 256,0 0,0 0,256 Z" /></clipPath><clipPath
       id="clipPath58"
       clipPathUnits="userSpaceOnUse"><path
         id="path60"
         d="m 12,128 0,-64 c 0,-2.209 1.791,-4 4,-4 l 0,0 224,0 c 2.209,0 4,1.791 4,4 l 0,0 0,64 -232,0 z" /></clipPath><linearGradient
       id="linearGradient66"
       spreadMethod="pad"
       gradientTransform="matrix(148.82841,-148.82841,-148.82841,-148.82841,53.585785,169.58578)"
       gradientUnits="userSpaceOnUse"
       y2="0"
       x2="1"
       y1="0"
       x1="0"><stop
         id="stop68"
         offset="0"
         style="stop-opacity:1;stop-color:#e6e7e8" /><stop
         id="stop70"
         offset="1"
         style="stop-opacity:1;stop-color:#d1d3d4" /></linearGradient><clipPath
       id="clipPath78"
       clipPathUnits="userSpaceOnUse"><path
         id="path80"
         d="M 0,256 256,256 256,0 0,0 0,256 Z" /></clipPath></defs><g
     transform="matrix(1.25,0,0,-1.25,0,320)"
     id="g10"><g
       id="g12"><g
         clip-path="url(#clipPath16)"
         id="g14"><g
           transform="translate(236,156)"
           id="g20"><path
             id="path22"
             style="fill:#999999;fill-opacity:1;fill-rule:nonzero;stroke:none"
             d="m 0,0 -216,0 c -2.209,0 -4,1.791 -4,4 l 0,28 c 0,2.209 1.791,4 4,4 L 0,36 c 2.209,0 4,-1.791 4,-4 L 4,4 C 4,1.791 2.209,0 0,0" /></g></g></g><g
       id="g24"><g
         clip-path="url(#clipPath28)"
         id="g26"><g
           id="g32"><g
             id="g34"><path
               id="path42"
               style="fill:url(#linearGradient36);stroke:none"
               d="m 232,196 0,-8 0,-4 -2,0 0,12 -2,0 0,-12 -2,0 0,12 -2,0 0,-12 -2,0 0,12 -2,0 0,-12 -2,0 0,12 -2,0 0,-12 -2,0 0,12 -2,0 0,-12 -2,0 0,12 -2,0 0,-12 -2,0 0,12 -2,0 0,-12 -2,0 0,12 -2,0 0,-12 -2,0 0,12 -2,0 0,-12 -2,0 0,12 -2,0 0,-12 -2,0 0,12 -2,0 0,-12 -2,0 0,12 -2,0 0,-12 -2,0 0,12 -2,0 0,-12 -2,0 0,12 -2,0 0,-12 -2,0 0,12 -2,0 0,-12 -2,0 0,12 -2,0 0,-12 -2,0 0,12 -2,0 0,-12 -2,0 0,12 -2,0 0,-12 -2,0 0,12 -2,0 0,-12 -2,0 0,12 -2,0 0,-12 -2,0 0,12 -2,0 0,-12 -2,0 0,12 -2,0 0,-12 -2,0 0,12 -2,0 0,-12 -2,0 0,12 -2,0 0,-12 -2,0 0,12 -2,0 0,-12 -2,0 0,12 -2,0 0,-12 -2,0 0,12 -2,0 0,-12 -2,0 0,12 -2,0 0,-12 -2,0 0,12 -2,0 0,-12 -2,0 0,12 -2,0 0,-12 -2,0 0,12 -2,0 0,-12 -2,0 0,12 -2,0 0,-12 -2,0 0,12 -2,0 0,-12 -2,0 0,12 -2,0 0,-12 -2,0 0,12 -2,0 0,-12 -2,0 0,12 -2,0 0,-12 -2,0 0,12 -2,0 0,-12 -2,0 0,12 -2,0 0,-12 -2,0 0,12 -2,0 0,-12 -2,0 0,12 -2,0 0,-12 -2,0 0,12 -2,0 0,-12 -2,0 0,12 -2,0 0,-12 -2,0 0,12 -2,0 0,-12 -2,0 0,12 -2,0 0,-12 -2,0 0,12 -2,0 0,-12 -2,0 0,12 -2,0 0,-12 -2,0 0,12 -2,0 0,-12 -2,0 0,12 -2,0 0,-12 -2,0 0,12 -2,0 0,-12 -2,0 0,12 -2,0 0,-12 -2,0 0,12 -2,0 0,-12 -2,0 0,12 -2,0 0,-12 -2,0 0,12 -2,0 0,-12 -8,0 0,-4 216,0 0,-4 -216,0 0,-4 216,0 0,-4 -216,0 0,-4 216,0 0,-4 -216,0 0,-28 232,0 0,28 -4,0 0,20 4,0 0,8 -10,0 0,8 -2,0 z" /></g></g></g></g><g
       id="g44"><g
         clip-path="url(#clipPath48)"
         id="g46"><path
           id="path52"
           style="fill:#999999;fill-opacity:1;fill-rule:nonzero;stroke:none"
           d="m 236,128 -40,0 0,12 40,0 0,-12 z" /></g></g><g
       id="g54"><g
         clip-path="url(#clipPath58)"
         id="g56"><g
           id="g62"><g
             id="g64"><path
               id="path72"
               style="fill:url(#linearGradient66);stroke:none"
               d="m 12,128 0,-64 c 0,-2.209 1.791,-4 4,-4 l 0,0 224,0 c 2.209,0 4,1.791 4,4 l 0,0 0,64 -232,0 z" /></g></g></g></g><g
       id="g74"><g
         clip-path="url(#clipPath78)"
         id="g76"><path
           id="path82"
           style="fill:#999999;fill-opacity:1;fill-rule:nonzero;stroke:none"
           d="m 16,128 224,0 0,4 -224,0 0,-4 z" /><path
           id="path84"
           style="fill:#999999;fill-opacity:1;fill-rule:nonzero;stroke:none"
           d="m 232,120 -8,0 0,2 8,0 0,-2 z" /><path
           id="path86"
           style="fill:#999999;fill-opacity:1;fill-rule:nonzero;stroke:none"
           d="m 232,116 -8,0 0,2 8,0 0,-2 z" /><path
           id="path88"
           style="fill:#999999;fill-opacity:1;fill-rule:nonzero;stroke:none"
           d="m 24,100.075 -8,0 0,8 8,0 0,-8 z" /><path
           id="path90"
           style="fill:#999999;fill-opacity:1;fill-rule:nonzero;stroke:none"
           d="m 28,88.075 -12,0 0,8 12,0 0,-8 z" /><path
           id="path92"
           style="fill:#999999;fill-opacity:1;fill-rule:nonzero;stroke:none"
           d="m 36,100.075 -8,0 0,8 8,0 0,-8 z" /><path
           id="path94"
           style="fill:#999999;fill-opacity:1;fill-rule:nonzero;stroke:none"
           d="m 40,88.075 -8,0 0,8 8,0 0,-8 z" /><path
           id="path96"
           style="fill:#999999;fill-opacity:1;fill-rule:nonzero;stroke:none"
           d="m 44,76.075 -8,0 0,8 8,0 0,-8 z" /><path
           id="path98"
           style="fill:#999999;fill-opacity:1;fill-rule:nonzero;stroke:none"
           d="m 56,76.075 -8,0 0,8 8,0 0,-8 z" /><path
           id="path100"
           style="fill:#999999;fill-opacity:1;fill-rule:nonzero;stroke:none"
           d="m 68,76.075 -8,0 0,8 8,0 0,-8 z" /><path
           id="path102"
           style="fill:#999999;fill-opacity:1;fill-rule:nonzero;stroke:none"
           d="m 80,76.075 -8,0 0,8 8,0 0,-8 z" /><path
           id="path104"
           style="fill:#999999;fill-opacity:1;fill-rule:nonzero;stroke:none"
           d="m 92,76.075 -8,0 0,8 8,0 0,-8 z" /><path
           id="path106"
           style="fill:#999999;fill-opacity:1;fill-rule:nonzero;stroke:none"
           d="m 104,76.075 -8,0 0,8 8,0 0,-8 z" /><path
           id="path108"
           style="fill:#999999;fill-opacity:1;fill-rule:nonzero;stroke:none"
           d="m 116,76.075 -8,0 0,8 8,0 0,-8 z" /><path
           id="path110"
           style="fill:#999999;fill-opacity:1;fill-rule:nonzero;stroke:none"
           d="m 128,76.075 -8,0 0,8 8,0 0,-8 z" /><path
           id="path112"
           style="fill:#999999;fill-opacity:1;fill-rule:nonzero;stroke:none"
           d="m 140,76.075 -8,0 0,8 8,0 0,-8 z" /><path
           id="path114"
           style="fill:#999999;fill-opacity:1;fill-rule:nonzero;stroke:none"
           d="m 52,88.075 -8,0 0,8 8,0 0,-8 z" /><path
           id="path116"
           style="fill:#999999;fill-opacity:1;fill-rule:nonzero;stroke:none"
           d="m 64,88.075 -8,0 0,8 8,0 0,-8 z" /><path
           id="path118"
           style="fill:#999999;fill-opacity:1;fill-rule:nonzero;stroke:none"
           d="m 76,88.075 -8,0 0,8 8,0 0,-8 z" /><path
           id="path120"
           style="fill:#999999;fill-opacity:1;fill-rule:nonzero;stroke:none"
           d="m 88,88.075 -8,0 0,8 8,0 0,-8 z" /><path
           id="path122"
           style="fill:#999999;fill-opacity:1;fill-rule:nonzero;stroke:none"
           d="m 100,88.075 -8,0 0,8 8,0 0,-8 z" /><path
           id="path124"
           style="fill:#999999;fill-opacity:1;fill-rule:nonzero;stroke:none"
           d="m 112,88.075 -8,0 0,8 8,0 0,-8 z" /><path
           id="path126"
           style="fill:#999999;fill-opacity:1;fill-rule:nonzero;stroke:none"
           d="m 124,88.075 -8,0 0,8 8,0 0,-8 z" /><path
           id="path128"
           style="fill:#999999;fill-opacity:1;fill-rule:nonzero;stroke:none"
           d="m 136,88.075 -8,0 0,8 8,0 0,-8 z" /><path
           id="path130"
           style="fill:#999999;fill-opacity:1;fill-rule:nonzero;stroke:none"
           d="m 204,100.075 -8,0 0,8 8,0 0,-8 z" /><path
           id="path132"
           style="fill:#999999;fill-opacity:1;fill-rule:nonzero;stroke:none"
           d="m 216,100.075 -8,0 0,8 8,0 0,-8 z" /><path
           id="path134"
           style="fill:#999999;fill-opacity:1;fill-rule:nonzero;stroke:none"
           d="m 228,100.075 -8,0 0,8 8,0 0,-8 z" /><path
           id="path136"
           style="fill:#999999;fill-opacity:1;fill-rule:nonzero;stroke:none"
           d="m 240,100.075 -8,0 0,8 8,0 0,-8 z" /><path
           id="path138"
           style="fill:#999999;fill-opacity:1;fill-rule:nonzero;stroke:none"
           d="m 204,88.075 -8,0 0,8 8,0 0,-8 z" /><path
           id="path140"
           style="fill:#999999;fill-opacity:1;fill-rule:nonzero;stroke:none"
           d="m 216,88.075 -8,0 0,8 8,0 0,-8 z" /><path
           id="path142"
           style="fill:#999999;fill-opacity:1;fill-rule:nonzero;stroke:none"
           d="m 228,88.075 -8,0 0,8 8,0 0,-8 z" /><path
           id="path144"
           style="fill:#999999;fill-opacity:1;fill-rule:nonzero;stroke:none"
           d="m 240,88.075 -8,0 0,8 8,0 0,-8 z" /><path
           id="path146"
           style="fill:#999999;fill-opacity:1;fill-rule:nonzero;stroke:none"
           d="m 204,76.075 -8,0 0,8 8,0 0,-8 z" /><path
           id="path148"
           style="fill:#999999;fill-opacity:1;fill-rule:nonzero;stroke:none"
           d="m 216,76.075 -8,0 0,8 8,0 0,-8 z" /><path
           id="path150"
           style="fill:#999999;fill-opacity:1;fill-rule:nonzero;stroke:none"
           d="m 228,76.075 -8,0 0,8 8,0 0,-8 z" /><path
           id="path152"
           style="fill:#999999;fill-opacity:1;fill-rule:nonzero;stroke:none"
           d="m 204,64.075 -8,0 0,8 8,0 0,-8 z" /><path
           id="path154"
           style="fill:#999999;fill-opacity:1;fill-rule:nonzero;stroke:none"
           d="m 216,64.075 -8,0 0,8 8,0 0,-8 z" /><path
           id="path156"
           style="fill:#999999;fill-opacity:1;fill-rule:nonzero;stroke:none"
           d="m 228,64.075 -8,0 0,8 8,0 0,-8 z" /><path
           id="path158"
           style="fill:#999999;fill-opacity:1;fill-rule:nonzero;stroke:none"
           d="m 240,64.075 -8,0 0,20 8,0 0,-20 z" /><path
           id="path160"
           style="fill:#999999;fill-opacity:1;fill-rule:nonzero;stroke:none"
           d="m 176,76 -8,0 0,8 8,0 0,-8 z" /><path
           id="path162"
           style="fill:#999999;fill-opacity:1;fill-rule:nonzero;stroke:none"
           d="m 164,64 -8,0 0,8 8,0 0,-8 z" /><path
           id="path164"
           style="fill:#999999;fill-opacity:1;fill-rule:nonzero;stroke:none"
           d="m 176,64 -8,0 0,8 8,0 0,-8 z" /><path
           id="path166"
           style="fill:#999999;fill-opacity:1;fill-rule:nonzero;stroke:none"
           d="m 188,64 -8,0 0,8 8,0 0,-8 z" /><path
           id="path168"
           style="fill:#999999;fill-opacity:1;fill-rule:nonzero;stroke:none"
           d="m 148,76.075 -8,0 0,20 8,0 0,-20 z" /><path
           id="path170"
           style="fill:#999999;fill-opacity:1;fill-rule:nonzero;stroke:none"
           d="m 48,100.075 -8,0 0,8 8,0 0,-8 z" /><path
           id="path172"
           style="fill:#999999;fill-opacity:1;fill-rule:nonzero;stroke:none"
           d="m 60,100.075 -8,0 0,8 8,0 0,-8 z" /><path
           id="path174"
           style="fill:#999999;fill-opacity:1;fill-rule:nonzero;stroke:none"
           d="m 72,100.075 -8,0 0,8 8,0 0,-8 z" /><path
           id="path176"
           style="fill:#999999;fill-opacity:1;fill-rule:nonzero;stroke:none"
           d="m 84,100.075 -8,0 0,8 8,0 0,-8 z" /><path
           id="path178"
           style="fill:#999999;fill-opacity:1;fill-rule:nonzero;stroke:none"
           d="m 96,100.075 -8,0 0,8 8,0 0,-8 z" /><path
           id="path180"
           style="fill:#999999;fill-opacity:1;fill-rule:nonzero;stroke:none"
           d="m 108,100.075 -8,0 0,8 8,0 0,-8 z" /><path
           id="path182"
           style="fill:#999999;fill-opacity:1;fill-rule:nonzero;stroke:none"
           d="m 120,100.075 -8,0 0,8 8,0 0,-8 z" /><path
           id="path184"
           style="fill:#999999;fill-opacity:1;fill-rule:nonzero;stroke:none"
           d="m 132,100.075 -8,0 0,8 8,0 0,-8 z" /><path
           id="path186"
           style="fill:#999999;fill-opacity:1;fill-rule:nonzero;stroke:none"
           d="m 148,100.075 -12,0 0,8 12,0 0,-8 z" /><path
           id="path188"
           style="fill:#999999;fill-opacity:1;fill-rule:nonzero;stroke:none"
           d="m 24,112 -8,0 0,8 8,0 0,-8 z" /><path
           id="path190"
           style="fill:#999999;fill-opacity:1;fill-rule:nonzero;stroke:none"
           d="m 36,112 -8,0 0,8 8,0 0,-8 z" /><path
           id="path192"
           style="fill:#999999;fill-opacity:1;fill-rule:nonzero;stroke:none"
           d="m 48,112 -8,0 0,8 8,0 0,-8 z" /><path
           id="path194"
           style="fill:#999999;fill-opacity:1;fill-rule:nonzero;stroke:none"
           d="m 60,112 -8,0 0,8 8,0 0,-8 z" /><path
           id="path196"
           style="fill:#999999;fill-opacity:1;fill-rule:nonzero;stroke:none"
           d="m 72,112 -8,0 0,8 8,0 0,-8 z" /><path
           id="path198"
           style="fill:#999999;fill-opacity:1;fill-rule:nonzero;stroke:none"
           d="m 84,112 -8,0 0,8 8,0 0,-8 z" /><path
           id="path200"
           style="fill:#999999;fill-opacity:1;fill-rule:nonzero;stroke:none"
           d="m 96,112 -8,0 0,8 8,0 0,-8 z" /><path
           id="path202"
           style="fill:#999999;fill-opacity:1;fill-rule:nonzero;stroke:none"
           d="m 108,112 -8,0 0,8 8,0 0,-8 z" /><path
           id="path204"
           style="fill:#999999;fill-opacity:1;fill-rule:nonzero;stroke:none"
           d="m 120,112 -8,0 0,8 8,0 0,-8 z" /><path
           id="path206"
           style="fill:#999999;fill-opacity:1;fill-rule:nonzero;stroke:none"
           d="m 132,112 -8,0 0,8 8,0 0,-8 z" /><path
           id="path208"
           style="fill:#999999;fill-opacity:1;fill-rule:nonzero;stroke:none"
           d="m 144,112 -8,0 0,8 8,0 0,-8 z" /><path
           id="path210"
           style="fill:#999999;fill-opacity:1;fill-rule:nonzero;stroke:none"
           d="m 168,100.075 -12,0 0,8 12,0 0,-8 z" /><path
           id="path212"
           style="fill:#999999;fill-opacity:1;fill-rule:nonzero;stroke:none"
           d="m 188,100.075 -12,0 0,8 12,0 0,-8 z" /><path
           id="path214"
           style="fill:#999999;fill-opacity:1;fill-rule:nonzero;stroke:none"
           d="m 32,76.075 -16,0 0,8.075 16,0 0,-8.075 z" /><path
           id="path216"
           style="fill:#999999;fill-opacity:1;fill-rule:nonzero;stroke:none"
           d="m 32,64 -12,0 0,8.075 12,0 L 32,64 Z" /><path
           id="path218"
           style="fill:#999999;fill-opacity:1;fill-rule:nonzero;stroke:none"
           d="m 132,64 -12,0 0,8.075 12,0 0,-8.075 z" /><path
           id="path220"
           style="fill:#999999;fill-opacity:1;fill-rule:nonzero;stroke:none"
           d="m 144,64 -8,0 0,8.075 8,0 0,-8.075 z" /><path
           id="path222"
           style="fill:#999999;fill-opacity:1;fill-rule:nonzero;stroke:none"
           d="m 116,64 -80,0 0,8.075 80,0 0,-8.075 z" /></g></g></g></svg>