<?xml version="1.0" encoding="UTF-8" standalone="no"?>
<svg
   xmlns:dc="http://purl.org/dc/elements/1.1/"
   xmlns:cc="http://creativecommons.org/ns#"
   xmlns:rdf="http://www.w3.org/1999/02/22-rdf-syntax-ns#"
   xmlns:svg="http://www.w3.org/2000/svg"
   xmlns="http://www.w3.org/2000/svg"
   viewBox="0 0 341.33334 341.33334"
   height="256"
   width="256"
   xml:space="preserve"
   id="svg2"
   version="1.1"><metadata
     id="metadata8"><rdf:RDF><cc:Work
         rdf:about=""><dc:format>image/svg+xml</dc:format><dc:type
           rdf:resource="http://purl.org/dc/dcmitype/StillImage" /></cc:Work></rdf:RDF></metadata><defs
     id="defs6"><clipPath
       id="clipPath18"
       clipPathUnits="userSpaceOnUse"><path
         id="path16"
         d="m 100.912,155.114 c -22.53,-22.529 -22.568,-31.629 10e-4,-54.197 v 0 c 22.571,-22.572 31.658,-22.54 54.197,-0.001 v 0 c 22.54,22.54 22.499,31.703 10e-4,54.2 v 0 C 143.86,166.367 135.939,171.999 128.016,172 v 0 c -7.92,0.001 -15.842,-5.624 -27.104,-16.886" /></clipPath><linearGradient
       id="linearGradient28"
       spreadMethod="pad"
       gradientTransform="matrix(54.198769,-54.198769,-54.198769,-54.198769,100.91241,155.11551)"
       gradientUnits="userSpaceOnUse"
       y2="0"
       x2="1"
       y1="0"
       x1="0"><stop
         id="stop24"
         offset="0"
         style="stop-opacity:1;stop-color:#e6e7e8" /><stop
         id="stop26"
         offset="1"
         style="stop-opacity:1;stop-color:#d1d3d4" /></linearGradient><clipPath
       id="clipPath38"
       clipPathUnits="userSpaceOnUse"><path
         id="path36"
         d="m 116,152 c 0,-6.628 5.372,-12 12,-12 v 0 c 6.626,0 12,5.372 12,12 v 0 c 0,6.628 -5.374,12 -12,12 v 0 c -6.628,0 -12,-5.372 -12,-12" /></clipPath><linearGradient
       id="linearGradient48"
       spreadMethod="pad"
       gradientTransform="matrix(-16.970562,16.970562,16.970562,16.970562,136.48528,143.51472)"
       gradientUnits="userSpaceOnUse"
       y2="0"
       x2="1"
       y1="0"
       x1="0"><stop
         id="stop44"
         offset="0"
         style="stop-opacity:1;stop-color:#e6e7e8" /><stop
         id="stop46"
         offset="1"
         style="stop-opacity:1;stop-color:#d1d3d4" /></linearGradient><clipPath
       id="clipPath58"
       clipPathUnits="userSpaceOnUse"><path
         id="path56"
         d="m 116,104 c 0,-6.627 5.372,-12 12,-12 v 0 c 6.626,0 12,5.373 12,12 v 0 c 0,6.627 -5.374,12 -12,12 v 0 c -6.628,0 -12,-5.373 -12,-12" /></clipPath><linearGradient
       id="linearGradient68"
       spreadMethod="pad"
       gradientTransform="matrix(-16.970562,16.970562,16.970562,16.970562,136.48528,95.514717)"
       gradientUnits="userSpaceOnUse"
       y2="0"
       x2="1"
       y1="0"
       x1="0"><stop
         id="stop64"
         offset="0"
         style="stop-opacity:1;stop-color:#e6e7e8" /><stop
         id="stop66"
         offset="1"
         style="stop-opacity:1;stop-color:#d1d3d4" /></linearGradient><clipPath
       id="clipPath78"
       clipPathUnits="userSpaceOnUse"><path
         id="path76"
         d="m 140,128 c 0,-6.627 5.373,-12 12,-12 v 0 c 6.627,0 12,5.373 12,12 v 0 c 0,6.627 -5.373,12 -12,12 v 0 c -6.627,0 -12,-5.373 -12,-12" /></clipPath><linearGradient
       id="linearGradient88"
       spreadMethod="pad"
       gradientTransform="matrix(-16.970562,16.970562,16.970562,16.970562,160.48528,119.51472)"
       gradientUnits="userSpaceOnUse"
       y2="0"
       x2="1"
       y1="0"
       x1="0"><stop
         id="stop84"
         offset="0"
         style="stop-opacity:1;stop-color:#e6e7e8" /><stop
         id="stop86"
         offset="1"
         style="stop-opacity:1;stop-color:#d1d3d4" /></linearGradient><clipPath
       id="clipPath98"
       clipPathUnits="userSpaceOnUse"><path
         id="path96"
         d="m 92,128 c 0,-6.627 5.373,-12 12,-12 v 0 c 6.627,0 12,5.373 12,12 v 0 c 0,6.627 -5.373,12 -12,12 v 0 c -6.627,0 -12,-5.373 -12,-12" /></clipPath><linearGradient
       id="linearGradient108"
       spreadMethod="pad"
       gradientTransform="matrix(-16.970562,16.970562,16.970562,16.970562,112.48528,119.51472)"
       gradientUnits="userSpaceOnUse"
       y2="0"
       x2="1"
       y1="0"
       x1="0"><stop
         id="stop104"
         offset="0"
         style="stop-opacity:1;stop-color:#e6e7e8" /><stop
         id="stop106"
         offset="1"
         style="stop-opacity:1;stop-color:#d1d3d4" /></linearGradient><clipPath
       id="clipPath118"
       clipPathUnits="userSpaceOnUse"><path
         id="path116"
         d="M 0,256 H 256 V 0 H 0 Z" /></clipPath></defs><g
     transform="matrix(1.3333333,0,0,-1.3333333,0,341.33333)"
     id="g10"><g
       id="g12"><g
         clip-path="url(#clipPath18)"
         id="g14"><g
           id="g20"><g
             id="g22"><path
               id="path30"
               style="fill:url(#linearGradient28);stroke:none"
               d="m 100.912,155.114 c -22.53,-22.529 -22.568,-31.629 10e-4,-54.197 v 0 c 22.571,-22.572 31.658,-22.54 54.197,-0.001 v 0 c 22.54,22.54 22.499,31.703 10e-4,54.2 v 0 C 143.86,166.367 135.939,171.999 128.016,172 v 0 c -7.92,0.001 -15.842,-5.624 -27.104,-16.886" /></g></g></g></g><g
       id="g32"><g
         clip-path="url(#clipPath38)"
         id="g34"><g
           id="g40"><g
             id="g42"><path
               id="path50"
               style="fill:url(#linearGradient48);stroke:none"
               d="m 116,152 c 0,-6.628 5.372,-12 12,-12 v 0 c 6.626,0 12,5.372 12,12 v 0 c 0,6.628 -5.374,12 -12,12 v 0 c -6.628,0 -12,-5.372 -12,-12" /></g></g></g></g><g
       id="g52"><g
         clip-path="url(#clipPath58)"
         id="g54"><g
           id="g60"><g
             id="g62"><path
               id="path70"
               style="fill:url(#linearGradient68);stroke:none"
               d="m 116,104 c 0,-6.627 5.372,-12 12,-12 v 0 c 6.626,0 12,5.373 12,12 v 0 c 0,6.627 -5.374,12 -12,12 v 0 c -6.628,0 -12,-5.373 -12,-12" /></g></g></g></g><g
       id="g72"><g
         clip-path="url(#clipPath78)"
         id="g74"><g
           id="g80"><g
             id="g82"><path
               id="path90"
               style="fill:url(#linearGradient88);stroke:none"
               d="m 140,128 c 0,-6.627 5.373,-12 12,-12 v 0 c 6.627,0 12,5.373 12,12 v 0 c 0,6.627 -5.373,12 -12,12 v 0 c -6.627,0 -12,-5.373 -12,-12" /></g></g></g></g><g
       id="g92"><g
         clip-path="url(#clipPath98)"
         id="g94"><g
           id="g100"><g
             id="g102"><path
               id="path110"
               style="fill:url(#linearGradient108);stroke:none"
               d="m 92,128 c 0,-6.627 5.373,-12 12,-12 v 0 c 6.627,0 12,5.373 12,12 v 0 c 0,6.627 -5.373,12 -12,12 v 0 c -6.627,0 -12,-5.373 -12,-12" /></g></g></g></g><g
       id="g112"><g
         clip-path="url(#clipPath118)"
         id="g114"><g
           transform="translate(160,128)"
           id="g120"><path
             id="path122"
             style="fill:#999999;fill-opacity:1;fill-rule:nonzero;stroke:none"
             d="m 0,0 c 0,-4.418 -3.582,-8 -8,-8 -4.418,0 -8,3.582 -8,8 0,4.418 3.582,8 8,8 4.418,0 8,-3.582 8,-8" /></g><g
           transform="translate(136,104)"
           id="g124"><path
             id="path126"
             style="fill:#999999;fill-opacity:1;fill-rule:nonzero;stroke:none"
             d="m 0,0 c 0,-4.418 -3.582,-8 -8,-8 -4.418,0 -8,3.582 -8,8 0,4.418 3.582,8 8,8 4.418,0 8,-3.582 8,-8" /></g><g
           transform="translate(136,152)"
           id="g128"><path
             id="path130"
             style="fill:#999999;fill-opacity:1;fill-rule:nonzero;stroke:none"
             d="m 0,0 c 0,-4.418 -3.582,-8 -8,-8 -4.418,0 -8,3.582 -8,8 0,4.418 3.582,8 8,8 4.418,0 8,-3.582 8,-8" /></g><g
           transform="translate(112,128)"
           id="g132"><path
             id="path134"
             style="fill:#999999;fill-opacity:1;fill-rule:nonzero;stroke:none"
             d="m 0,0 c 0,-4.418 -3.582,-8 -8,-8 -4.418,0 -8,3.582 -8,8 0,4.418 3.582,8 8,8 4.418,0 8,-3.582 8,-8" /></g></g></g></g></svg>