<?xml version="1.0" encoding="UTF-8" standalone="no"?>
<svg
   xmlns:dc="http://purl.org/dc/elements/1.1/"
   xmlns:cc="http://creativecommons.org/ns#"
   xmlns:rdf="http://www.w3.org/1999/02/22-rdf-syntax-ns#"
   xmlns:svg="http://www.w3.org/2000/svg"
   xmlns="http://www.w3.org/2000/svg"
   viewBox="0 0 320 320"
   height="320"
   width="320"
   xml:space="preserve"
   version="1.1"
   id="svg2"><metadata
     id="metadata8"><rdf:RDF><cc:Work
         rdf:about=""><dc:format>image/svg+xml</dc:format><dc:type
           rdf:resource="http://purl.org/dc/dcmitype/StillImage" /></cc:Work></rdf:RDF></metadata><defs
     id="defs6"><clipPath
       id="clipPath16"
       clipPathUnits="userSpaceOnUse"><path
         id="path18"
         d="m 100.912,155.114 c -22.53,-22.529 -22.568,-31.629 10e-4,-54.197 l 0,0 c 22.571,-22.572 31.658,-22.54 54.197,-0.001 l 0,0 c 22.54,22.54 22.499,31.703 10e-4,54.2 l 0,0 C 143.86,166.367 135.939,171.999 128.016,172 l 0,0 c -7.92,0.001 -15.842,-5.624 -27.104,-16.886" /></clipPath><linearGradient
       id="linearGradient24"
       spreadMethod="pad"
       gradientTransform="matrix(54.198769,-54.198769,-54.198769,-54.198769,100.91241,155.11551)"
       gradientUnits="userSpaceOnUse"
       y2="0"
       x2="1"
       y1="0"
       x1="0"><stop
         id="stop26"
         offset="0"
         style="stop-opacity:1;stop-color:#e6e7e8" /><stop
         id="stop28"
         offset="1"
         style="stop-opacity:1;stop-color:#d1d3d4" /></linearGradient><clipPath
       id="clipPath36"
       clipPathUnits="userSpaceOnUse"><path
         id="path38"
         d="m 85.172,130.828 c -1.563,-1.563 -1.563,-4.094 0,-5.656 l 0,0 C 97.207,113.135 110.016,108 128,108 l 0,0 c 17.984,0 30.793,5.135 42.828,17.172 l 0,0 c 1.563,1.562 1.563,4.093 0,5.656 l 0,0 C 158.793,142.865 145.984,148 128,148 l 0,0 c -17.984,0 -30.793,-5.135 -42.828,-17.172" /></clipPath><linearGradient
       id="linearGradient44"
       spreadMethod="pad"
       gradientTransform="matrix(-45.656254,45.656254,45.656254,45.656254,150.82813,105.17187)"
       gradientUnits="userSpaceOnUse"
       y2="0"
       x2="1"
       y1="0"
       x1="0"><stop
         id="stop46"
         offset="0"
         style="stop-opacity:1;stop-color:#e6e7e8" /><stop
         id="stop48"
         offset="1"
         style="stop-opacity:1;stop-color:#d1d3d4" /></linearGradient><clipPath
       id="clipPath56"
       clipPathUnits="userSpaceOnUse"><path
         id="path58"
         d="M 0,256 256,256 256,0 0,0 0,256 Z" /></clipPath><clipPath
       id="clipPath68"
       clipPathUnits="userSpaceOnUse"><path
         id="path70"
         d="m 116,128 c 0,-6.627 5.372,-12 12,-12 l 0,0 c 6.626,0 12,5.373 12,12 l 0,0 c 0,6.627 -5.374,12 -12,12 l 0,0 c -6.628,0 -12,-5.373 -12,-12" /></clipPath><linearGradient
       id="linearGradient76"
       spreadMethod="pad"
       gradientTransform="matrix(16.970564,-16.970564,-16.970564,-16.970564,119.51472,136.48528)"
       gradientUnits="userSpaceOnUse"
       y2="0"
       x2="1"
       y1="0"
       x1="0"><stop
         id="stop78"
         offset="0"
         style="stop-opacity:1;stop-color:#e6e7e8" /><stop
         id="stop80"
         offset="1"
         style="stop-opacity:1;stop-color:#d1d3d4" /></linearGradient><clipPath
       id="clipPath88"
       clipPathUnits="userSpaceOnUse"><path
         id="path90"
         d="M 0,256 256,256 256,0 0,0 0,256 Z" /></clipPath></defs><g
     transform="matrix(1.25,0,0,-1.25,0,320)"
     id="g10"><g
       id="g12"><g
         clip-path="url(#clipPath16)"
         id="g14"><g
           id="g20"><g
             id="g22"><path
               id="path30"
               style="fill:url(#linearGradient24);stroke:none"
               d="m 100.912,155.114 c -22.53,-22.529 -22.568,-31.629 10e-4,-54.197 l 0,0 c 22.571,-22.572 31.658,-22.54 54.197,-0.001 l 0,0 c 22.54,22.54 22.499,31.703 10e-4,54.2 l 0,0 C 143.86,166.367 135.939,171.999 128.016,172 l 0,0 c -7.92,0.001 -15.842,-5.624 -27.104,-16.886" /></g></g></g></g><g
       id="g32"><g
         clip-path="url(#clipPath36)"
         id="g34"><g
           id="g40"><g
             id="g42"><path
               id="path50"
               style="fill:url(#linearGradient44);stroke:none"
               d="m 85.172,130.828 c -1.563,-1.563 -1.563,-4.094 0,-5.656 l 0,0 C 97.207,113.135 110.016,108 128,108 l 0,0 c 17.984,0 30.793,5.135 42.828,17.172 l 0,0 c 1.563,1.562 1.563,4.093 0,5.656 l 0,0 C 158.793,142.865 145.984,148 128,148 l 0,0 c -17.984,0 -30.793,-5.135 -42.828,-17.172" /></g></g></g></g><g
       id="g52"><g
         clip-path="url(#clipPath56)"
         id="g54"><g
           transform="translate(94,128)"
           id="g60"><path
             id="path62"
             style="fill:#ffffff;fill-opacity:1;fill-rule:nonzero;stroke:none"
             d="M 0,0 C 9.568,8.466 19.706,12 34,12 48.294,12 58.432,8.466 68,0 58.432,-8.466 48.294,-12 34,-12 19.706,-12 9.568,-8.466 0,0" /></g></g></g><g
       id="g64"><g
         clip-path="url(#clipPath68)"
         id="g66"><g
           id="g72"><g
             id="g74"><path
               id="path82"
               style="fill:url(#linearGradient76);stroke:none"
               d="m 116,128 c 0,-6.627 5.372,-12 12,-12 l 0,0 c 6.626,0 12,5.373 12,12 l 0,0 c 0,6.627 -5.374,12 -12,12 l 0,0 c -6.628,0 -12,-5.373 -12,-12" /></g></g></g></g><g
       id="g84"><g
         clip-path="url(#clipPath88)"
         id="g86"><g
           transform="translate(136,128.0825)"
           id="g92"><path
             id="path94"
             style="fill:#999999;fill-opacity:1;fill-rule:nonzero;stroke:none"
             d="m 0,0 c 0,-4.418 -3.582,-8 -8,-8 -4.418,0 -8,3.582 -8,8 0,4.418 3.582,8 8,8 4.418,0 8,-3.582 8,-8" /></g></g></g></g></svg>