<?xml version="1.0" encoding="UTF-8" standalone="no"?>
<svg
   xmlns:dc="http://purl.org/dc/elements/1.1/"
   xmlns:cc="http://creativecommons.org/ns#"
   xmlns:rdf="http://www.w3.org/1999/02/22-rdf-syntax-ns#"
   xmlns:svg="http://www.w3.org/2000/svg"
   xmlns="http://www.w3.org/2000/svg"
   viewBox="0 0 341.33334 341.33334"
   height="256"
   width="256"
   xml:space="preserve"
   id="svg2"
   version="1.1"><metadata
     id="metadata8"><rdf:RDF><cc:Work
         rdf:about=""><dc:format>image/svg+xml</dc:format><dc:type
           rdf:resource="http://purl.org/dc/dcmitype/StillImage" /></cc:Work></rdf:RDF></metadata><defs
     id="defs6"><clipPath
       id="clipPath18"
       clipPathUnits="userSpaceOnUse"><path
         id="path16"
         d="m 100.912,155.114 c -22.53,-22.529 -22.568,-31.629 10e-4,-54.197 v 0 c 22.571,-22.572 31.658,-22.54 54.197,-0.001 v 0 c 22.54,22.54 22.499,31.703 10e-4,54.2 v 0 C 143.86,166.367 135.939,171.999 128.016,172 v 0 c -7.92,0.001 -15.842,-5.624 -27.104,-16.886" /></clipPath><linearGradient
       id="linearGradient28"
       spreadMethod="pad"
       gradientTransform="matrix(54.198769,-54.198769,-54.198769,-54.198769,100.91241,155.11551)"
       gradientUnits="userSpaceOnUse"
       y2="0"
       x2="1"
       y1="0"
       x1="0"><stop
         id="stop24"
         offset="0"
         style="stop-opacity:1;stop-color:#e6e7e8" /><stop
         id="stop26"
         offset="1"
         style="stop-opacity:1;stop-color:#d1d3d4" /></linearGradient><clipPath
       id="clipPath38"
       clipPathUnits="userSpaceOnUse"><path
         id="path36"
         d="M 0,256 H 256 V 0 H 0 Z" /></clipPath></defs><g
     transform="matrix(1.3333333,0,0,-1.3333333,0,341.33333)"
     id="g10"><g
       id="g12"><g
         clip-path="url(#clipPath18)"
         id="g14"><g
           id="g20"><g
             id="g22"><path
               id="path30"
               style="fill:url(#linearGradient28);stroke:none"
               d="m 100.912,155.114 c -22.53,-22.529 -22.568,-31.629 10e-4,-54.197 v 0 c 22.571,-22.572 31.658,-22.54 54.197,-0.001 v 0 c 22.54,22.54 22.499,31.703 10e-4,54.2 v 0 C 143.86,166.367 135.939,171.999 128.016,172 v 0 c -7.92,0.001 -15.842,-5.624 -27.104,-16.886" /></g></g></g></g><g
       id="g32"><g
         clip-path="url(#clipPath38)"
         id="g34"><g
           transform="translate(128,156)"
           id="g40"><path
             id="path42"
             style="fill:#999999;fill-opacity:1;fill-rule:nonzero;stroke:none"
             d="m 0,0 c -9.6,-4.947 -24,-24.737 -24,-34.633 0,-9.894 9.6,-14.842 24,0 14.4,-14.842 24,-9.894 24,0 C 24,-24.737 9.6,-4.947 0,0" /></g><g
           transform="translate(118,100)"
           id="g44"><path
             id="path46"
             style="fill:#999999;fill-opacity:1;fill-rule:nonzero;stroke:none"
             d="M 0,0 H 20 L 10,24 Z" /></g></g></g></g></svg>