<?xml version="1.0" encoding="UTF-8" standalone="no"?>
<svg
   xmlns:dc="http://purl.org/dc/elements/1.1/"
   xmlns:cc="http://creativecommons.org/ns#"
   xmlns:rdf="http://www.w3.org/1999/02/22-rdf-syntax-ns#"
   xmlns:svg="http://www.w3.org/2000/svg"
   xmlns="http://www.w3.org/2000/svg"
   viewBox="0 0 320 320"
   height="320"
   width="320"
   xml:space="preserve"
   version="1.1"
   id="svg2"><metadata
     id="metadata8"><rdf:RDF><cc:Work
         rdf:about=""><dc:format>image/svg+xml</dc:format><dc:type
           rdf:resource="http://purl.org/dc/dcmitype/StillImage" /></cc:Work></rdf:RDF></metadata><defs
     id="defs6"><clipPath
       id="clipPath16"
       clipPathUnits="userSpaceOnUse"><path
         id="path18"
         d="m 100.912,155.114 c -22.53,-22.529 -22.568,-31.629 10e-4,-54.197 l 0,0 c 22.571,-22.572 31.658,-22.54 54.197,-0.001 l 0,0 c 22.54,22.54 22.499,31.703 10e-4,54.2 l 0,0 C 143.86,166.367 135.939,171.999 128.016,172 l 0,0 c -7.92,0.001 -15.842,-5.624 -27.104,-16.886" /></clipPath><linearGradient
       id="linearGradient24"
       spreadMethod="pad"
       gradientTransform="matrix(54.198769,-54.198769,-54.198769,-54.198769,100.91241,155.11551)"
       gradientUnits="userSpaceOnUse"
       y2="0"
       x2="1"
       y1="0"
       x1="0"><stop
         id="stop26"
         offset="0"
         style="stop-opacity:1;stop-color:#e6e7e8" /><stop
         id="stop28"
         offset="1"
         style="stop-opacity:1;stop-color:#d1d3d4" /></linearGradient><clipPath
       id="clipPath36"
       clipPathUnits="userSpaceOnUse"><path
         id="path38"
         d="M 0,256 256,256 256,0 0,0 0,256 Z" /></clipPath><clipPath
       id="clipPath48"
       clipPathUnits="userSpaceOnUse"><path
         id="path50"
         d="m 110,128 c 0,-9.924 8.075,-18 18,-18 l 0,0 c 9.925,0 18,8.076 18,18 l 0,0 c 0,9.925 -8.075,18 -18,18 l 0,0 c -9.925,0 -18,-8.075 -18,-18 m 7.61,0 c 0,5.735 4.655,10.39 10.39,10.39 l 0,0 c 5.735,0 10.389,-4.655 10.389,-10.39 l 0,0 c 0,-5.735 -4.654,-10.39 -10.389,-10.39 l 0,0 c -5.735,0 -10.39,4.655 -10.39,10.39" /></clipPath><linearGradient
       id="linearGradient56"
       spreadMethod="pad"
       gradientTransform="matrix(-25.44393,25.44393,25.44393,25.44393,140.72197,115.27804)"
       gradientUnits="userSpaceOnUse"
       y2="0"
       x2="1"
       y1="0"
       x1="0"><stop
         id="stop58"
         offset="0"
         style="stop-opacity:1;stop-color:#e6e7e8" /><stop
         id="stop60"
         offset="1"
         style="stop-opacity:1;stop-color:#d1d3d4" /></linearGradient><clipPath
       id="clipPath68"
       clipPathUnits="userSpaceOnUse"><path
         id="path70"
         d="m 118,128 c 0,-5.52 4.48,-10 10,-10 l 0,0 c 5.52,0 10,4.48 10,10 l 0,0 c 0,5.52 -4.48,10 -10,10 l 0,0 c -5.52,0 -10,-4.48 -10,-10" /></clipPath><linearGradient
       id="linearGradient76"
       spreadMethod="pad"
       gradientTransform="matrix(14.14,-14.14,-14.14,-14.14,120.93,135.07001)"
       gradientUnits="userSpaceOnUse"
       y2="0"
       x2="1"
       y1="0"
       x1="0"><stop
         id="stop78"
         offset="0"
         style="stop-opacity:1;stop-color:#e6e7e8" /><stop
         id="stop80"
         offset="1"
         style="stop-opacity:1;stop-color:#d1d3d4" /></linearGradient><clipPath
       id="clipPath88"
       clipPathUnits="userSpaceOnUse"><path
         id="path90"
         d="M 0,256 256,256 256,0 0,0 0,256 Z" /></clipPath></defs><g
     transform="matrix(1.25,0,0,-1.25,0,320)"
     id="g10"><g
       id="g12"><g
         clip-path="url(#clipPath16)"
         id="g14"><g
           id="g20"><g
             id="g22"><path
               id="path30"
               style="fill:url(#linearGradient24);stroke:none"
               d="m 100.912,155.114 c -22.53,-22.529 -22.568,-31.629 10e-4,-54.197 l 0,0 c 22.571,-22.572 31.658,-22.54 54.197,-0.001 l 0,0 c 22.54,22.54 22.499,31.703 10e-4,54.2 l 0,0 C 143.86,166.367 135.939,171.999 128.016,172 l 0,0 c -7.92,0.001 -15.842,-5.624 -27.104,-16.886" /></g></g></g></g><g
       id="g32"><g
         clip-path="url(#clipPath36)"
         id="g34"><g
           transform="translate(151.6396,124.4336)"
           id="g40"><path
             id="path42"
             style="fill:#999999;fill-opacity:1;fill-rule:nonzero;stroke:none"
             d="M 0,0 C 0.178,1.171 0.36,2.343 0.36,3.566 0.36,4.791 0.178,5.961 0,7.133 l -4.963,0.724 c -0.484,2.113 -1.32,4.081 -2.438,5.861 l 3.014,4.056 c -1.421,1.925 -3.115,3.62 -5.045,5.045 l -4.055,-3.014 c -1.782,1.113 -3.744,1.953 -5.862,2.443 l -0.724,4.959 c -1.171,0.177 -2.343,0.359 -3.567,0.359 -1.224,0 -2.395,-0.182 -3.566,-0.359 l -0.725,-4.959 c -2.112,-0.49 -4.08,-1.325 -5.861,-2.443 l -4.056,3.014 c -1.924,-1.425 -3.624,-3.115 -5.045,-5.045 l 3.015,-4.056 c -1.114,-1.78 -1.954,-3.743 -2.438,-5.861 L -47.28,7.133 c -0.177,-1.172 -0.36,-2.342 -0.36,-3.567 0,-1.223 0.183,-2.395 0.36,-3.566 l 4.964,-0.725 c 0.484,-2.112 1.319,-4.08 2.438,-5.861 l -3.015,-4.056 c 1.421,-1.924 3.116,-3.619 5.045,-5.045 l 4.056,3.015 c 1.781,-1.113 3.744,-1.954 5.861,-2.443 l 0.725,-4.958 c 1.171,-0.178 2.342,-0.361 3.566,-0.361 1.224,0 2.396,0.183 3.567,0.361 l 0.724,4.958 c 2.113,0.489 4.08,1.325 5.862,2.443 l 4.055,-3.015 c 1.925,1.426 3.624,3.116 5.045,5.045 l -3.014,4.056 c 1.113,1.781 1.954,3.744 2.438,5.861 L 0,0 Z" /></g></g></g><g
       id="g44"><g
         clip-path="url(#clipPath48)"
         id="g46"><g
           id="g52"><g
             id="g54"><path
               id="path62"
               style="fill:url(#linearGradient56);stroke:none"
               d="m 110,128 c 0,-9.924 8.075,-18 18,-18 l 0,0 c 9.925,0 18,8.076 18,18 l 0,0 c 0,9.925 -8.075,18 -18,18 l 0,0 c -9.925,0 -18,-8.075 -18,-18 m 7.61,0 c 0,5.735 4.655,10.39 10.39,10.39 l 0,0 c 5.735,0 10.389,-4.655 10.389,-10.39 l 0,0 c 0,-5.735 -4.654,-10.39 -10.389,-10.39 l 0,0 c -5.735,0 -10.39,4.655 -10.39,10.39" /></g></g></g></g><g
       id="g64"><g
         clip-path="url(#clipPath68)"
         id="g66"><g
           id="g72"><g
             id="g74"><path
               id="path82"
               style="fill:url(#linearGradient76);stroke:none"
               d="m 118,128 c 0,-5.52 4.48,-10 10,-10 l 0,0 c 5.52,0 10,4.48 10,10 l 0,0 c 0,5.52 -4.48,10 -10,10 l 0,0 c -5.52,0 -10,-4.48 -10,-10" /></g></g></g></g><g
       id="g84"><g
         clip-path="url(#clipPath88)"
         id="g86"><g
           transform="translate(128,139.21)"
           id="g92"><path
             id="path94"
             style="fill:#999999;fill-opacity:1;fill-rule:nonzero;stroke:none"
             d="m 0,0 c -6.181,0 -11.21,-5.029 -11.21,-11.21 0,-6.182 5.029,-11.21 11.21,-11.21 6.182,0 11.21,5.028 11.21,11.21 C 11.21,-5.029 6.182,0 0,0 m 0,-1.432 c 5.397,0 9.777,-4.38 9.777,-9.778 0,-5.397 -4.38,-9.777 -9.777,-9.777 -5.397,0 -9.778,4.38 -9.778,9.777 0,5.398 4.381,9.778 9.778,9.778" /></g></g></g></g></svg>