<?xml version="1.0" encoding="UTF-8" standalone="no"?>
<svg
   xmlns:dc="http://purl.org/dc/elements/1.1/"
   xmlns:cc="http://creativecommons.org/ns#"
   xmlns:rdf="http://www.w3.org/1999/02/22-rdf-syntax-ns#"
   xmlns:svg="http://www.w3.org/2000/svg"
   xmlns="http://www.w3.org/2000/svg"
   viewBox="0 0 320 320"
   height="320"
   width="320"
   xml:space="preserve"
   version="1.1"
   id="svg2"><metadata
     id="metadata8"><rdf:RDF><cc:Work
         rdf:about=""><dc:format>image/svg+xml</dc:format><dc:type
           rdf:resource="http://purl.org/dc/dcmitype/StillImage" /></cc:Work></rdf:RDF></metadata><defs
     id="defs6"><clipPath
       id="clipPath16"
       clipPathUnits="userSpaceOnUse"><path
         id="path18"
         d="m 100.912,155.114 c -22.53,-22.529 -22.568,-31.629 10e-4,-54.197 l 0,0 c 22.571,-22.572 31.658,-22.54 54.197,-0.001 l 0,0 c 22.54,22.54 22.499,31.703 10e-4,54.2 l 0,0 C 143.86,166.367 135.939,171.999 128.016,172 l 0,0 c -7.92,0.001 -15.842,-5.624 -27.104,-16.886" /></clipPath><linearGradient
       id="linearGradient24"
       spreadMethod="pad"
       gradientTransform="matrix(54.198769,-54.198769,-54.198769,-54.198769,100.91241,155.11551)"
       gradientUnits="userSpaceOnUse"
       y2="0"
       x2="1"
       y1="0"
       x1="0"><stop
         id="stop26"
         offset="0"
         style="stop-opacity:1;stop-color:#e6e7e8" /><stop
         id="stop28"
         offset="1"
         style="stop-opacity:1;stop-color:#d1d3d4" /></linearGradient><clipPath
       id="clipPath36"
       clipPathUnits="userSpaceOnUse"><path
         id="path38"
         d="M 0,256 256,256 256,0 0,0 0,256 Z" /></clipPath><clipPath
       id="clipPath48"
       clipPathUnits="userSpaceOnUse"><path
         id="path50"
         d="m 120,128 c 0,-4.42 3.58,-8 8,-8 l 0,0 c 4.42,0 8,3.58 8,8 l 0,0 c 0,4.42 -3.58,8 -8,8 l 0,0 c -4.42,0 -8,-3.58 -8,-8" /></clipPath><linearGradient
       id="linearGradient56"
       spreadMethod="pad"
       gradientTransform="matrix(-11.314999,11.314999,11.314999,11.314999,133.6575,122.3425)"
       gradientUnits="userSpaceOnUse"
       y2="0"
       x2="1"
       y1="0"
       x1="0"><stop
         id="stop58"
         offset="0"
         style="stop-opacity:1;stop-color:#e6e7e8" /><stop
         id="stop60"
         offset="1"
         style="stop-opacity:1;stop-color:#d1d3d4" /></linearGradient><clipPath
       id="clipPath68"
       clipPathUnits="userSpaceOnUse"><path
         id="path70"
         d="M 0,256 256,256 256,0 0,0 0,256 Z" /></clipPath></defs><g
     transform="matrix(1.25,0,0,-1.25,0,320)"
     id="g10"><g
       id="g12"><g
         clip-path="url(#clipPath16)"
         id="g14"><g
           id="g20"><g
             id="g22"><path
               id="path30"
               style="fill:url(#linearGradient24);stroke:none"
               d="m 100.912,155.114 c -22.53,-22.529 -22.568,-31.629 10e-4,-54.197 l 0,0 c 22.571,-22.572 31.658,-22.54 54.197,-0.001 l 0,0 c 22.54,22.54 22.499,31.703 10e-4,54.2 l 0,0 C 143.86,166.367 135.939,171.999 128.016,172 l 0,0 c -7.92,0.001 -15.842,-5.624 -27.104,-16.886" /></g></g></g></g><g
       id="g32"><g
         clip-path="url(#clipPath36)"
         id="g34"><g
           transform="translate(128,152)"
           id="g40"><path
             id="path42"
             style="fill:#999999;fill-opacity:1;fill-rule:nonzero;stroke:none"
             d="m 0,0 c -13.258,0 -24,-10.742 -24,-24 0,-13.258 10.742,-24 24,-24 13.258,0 24,10.742 24,24 C 24,-10.742 13.258,0 0,0" /></g></g></g><g
       id="g44"><g
         clip-path="url(#clipPath48)"
         id="g46"><g
           id="g52"><g
             id="g54"><path
               id="path62"
               style="fill:url(#linearGradient56);stroke:none"
               d="m 120,128 c 0,-4.42 3.58,-8 8,-8 l 0,0 c 4.42,0 8,3.58 8,8 l 0,0 c 0,4.42 -3.58,8 -8,8 l 0,0 c -4.42,0 -8,-3.58 -8,-8" /></g></g></g></g><g
       id="g64"><g
         clip-path="url(#clipPath68)"
         id="g66"><g
           transform="translate(132,128)"
           id="g72"><path
             id="path74"
             style="fill:#cccccc;fill-opacity:1;fill-rule:nonzero;stroke:none"
             d="m 0,0 c 0,-2.212 -1.788,-4 -4,-4 -2.212,0 -4,1.788 -4,4 0,2.212 1.788,4 4,4 2.212,0 4,-1.788 4,-4" /></g></g></g></g></svg>