<?xml version="1.0" encoding="UTF-8" standalone="no"?>
<svg
   xmlns:dc="http://purl.org/dc/elements/1.1/"
   xmlns:cc="http://creativecommons.org/ns#"
   xmlns:rdf="http://www.w3.org/1999/02/22-rdf-syntax-ns#"
   xmlns:svg="http://www.w3.org/2000/svg"
   xmlns="http://www.w3.org/2000/svg"
   viewBox="0 0 320 320"
   height="320"
   width="320"
   xml:space="preserve"
   version="1.1"
   id="svg2"><metadata
     id="metadata8"><rdf:RDF><cc:Work
         rdf:about=""><dc:format>image/svg+xml</dc:format><dc:type
           rdf:resource="http://purl.org/dc/dcmitype/StillImage" /></cc:Work></rdf:RDF></metadata><defs
     id="defs6"><clipPath
       id="clipPath16"
       clipPathUnits="userSpaceOnUse"><path
         id="path18"
         d="M 105.989,160 100,160 c -2.209,0 -4,-1.791 -4,-4 l 0,0 0,-5.989 C 80.033,132.694 80.01,123.369 96,106.022 l 0,0 0,-6.022 c 0,-2.209 1.791,-4 4,-4 l 0,0 6.022,0 c 17.344,-15.988 26.661,-15.968 43.98,0 l 0,0 5.998,0 c 2.209,0 4,1.791 4,4 l 0,0 0,5.998 c 15.99,17.352 15.966,26.719 0,44.037 l 0,0 0,5.965 c 0,2.209 -1.791,4 -4,4 l 0,0 -5.965,0 c -8.663,7.986 -15.34,11.983 -22.019,11.984 l 0,0 c -6.676,0 -13.355,-3.992 -22.027,-11.984" /></clipPath><linearGradient
       id="linearGradient24"
       spreadMethod="pad"
       gradientTransform="matrix(61.656864,-61.656864,-61.656864,-61.656864,97.17157,158.82845)"
       gradientUnits="userSpaceOnUse"
       y2="0"
       x2="1"
       y1="0"
       x1="0"><stop
         id="stop26"
         offset="0"
         style="stop-opacity:1;stop-color:#e6e7e8" /><stop
         id="stop28"
         offset="1"
         style="stop-opacity:1;stop-color:#d1d3d4" /></linearGradient><clipPath
       id="clipPath36"
       clipPathUnits="userSpaceOnUse"><path
         id="path38"
         d="M 0,256 256,256 256,0 0,0 0,256 Z" /></clipPath><clipPath
       id="clipPath156"
       clipPathUnits="userSpaceOnUse"><path
         id="path158"
         d="m 100,100 56,0 0,56 -56,0 0,-56 z" /></clipPath><linearGradient
       id="linearGradient164"
       spreadMethod="pad"
       gradientTransform="matrix(-56,56,56,56,156,100)"
       gradientUnits="userSpaceOnUse"
       y2="0"
       x2="1"
       y1="0"
       x1="0"><stop
         id="stop166"
         offset="0"
         style="stop-opacity:1;stop-color:#e6e7e8" /><stop
         id="stop168"
         offset="1"
         style="stop-opacity:1;stop-color:#d1d3d4" /></linearGradient><clipPath
       id="clipPath176"
       clipPathUnits="userSpaceOnUse"><path
         id="path178"
         d="M 0,256 256,256 256,0 0,0 0,256 Z" /></clipPath><clipPath
       id="clipPath186"
       clipPathUnits="userSpaceOnUse"><path
         id="path188"
         d="m 118,144 c -3.314,0 -6,-2.687 -6,-6 l 0,0 0,-20 c 0,-3.314 2.686,-6 6,-6 l 0,0 20,0 c 3.313,0 6,2.686 6,6 l 0,0 0,20 c 0,3.313 -2.687,6 -6,6 l 0,0 -20,0 z" /></clipPath><linearGradient
       id="linearGradient194"
       spreadMethod="pad"
       gradientTransform="matrix(28.485281,-28.485281,-28.485281,-28.485281,113.75736,142.24265)"
       gradientUnits="userSpaceOnUse"
       y2="0"
       x2="1"
       y1="0"
       x1="0"><stop
         id="stop196"
         offset="0"
         style="stop-opacity:1;stop-color:#e6e7e8" /><stop
         id="stop198"
         offset="1"
         style="stop-opacity:1;stop-color:#d1d3d4" /></linearGradient><clipPath
       id="clipPath206"
       clipPathUnits="userSpaceOnUse"><path
         id="path208"
         d="M 0,256 256,256 256,0 0,0 0,256 Z" /></clipPath></defs><g
     transform="matrix(1.25,0,0,-1.25,0,320)"
     id="g10"><g
       id="g12"><g
         clip-path="url(#clipPath16)"
         id="g14"><g
           id="g20"><g
             id="g22"><path
               id="path30"
               style="fill:url(#linearGradient24);stroke:none"
               d="M 105.989,160 100,160 c -2.209,0 -4,-1.791 -4,-4 l 0,0 0,-5.989 C 80.033,132.694 80.01,123.369 96,106.022 l 0,0 0,-6.022 c 0,-2.209 1.791,-4 4,-4 l 0,0 6.022,0 c 17.344,-15.988 26.661,-15.968 43.98,0 l 0,0 5.998,0 c 2.209,0 4,1.791 4,4 l 0,0 0,5.998 c 15.99,17.352 15.966,26.719 0,44.037 l 0,0 0,5.965 c 0,2.209 -1.791,4 -4,4 l 0,0 -5.965,0 c -8.663,7.986 -15.34,11.983 -22.019,11.984 l 0,0 c -6.676,0 -13.355,-3.992 -22.027,-11.984" /></g></g></g></g><g
       id="g32"><g
         clip-path="url(#clipPath36)"
         id="g34"><path
           id="path40"
           style="fill:#999999;fill-opacity:1;fill-rule:nonzero;stroke:none"
           d="m 104,152 -2,0 0,8 2,0 0,-8 z" /><path
           id="path42"
           style="fill:#999999;fill-opacity:1;fill-rule:nonzero;stroke:none"
           d="m 108,152 -2,0 0,8 2,0 0,-8 z" /><path
           id="path44"
           style="fill:#999999;fill-opacity:1;fill-rule:nonzero;stroke:none"
           d="m 112,152 -2,0 0,8 2,0 0,-8 z" /><path
           id="path46"
           style="fill:#999999;fill-opacity:1;fill-rule:nonzero;stroke:none"
           d="m 116,152 -2,0 0,8 2,0 0,-8 z" /><path
           id="path48"
           style="fill:#999999;fill-opacity:1;fill-rule:nonzero;stroke:none"
           d="m 120,152 -2,0 0,8 2,0 0,-8 z" /><path
           id="path50"
           style="fill:#999999;fill-opacity:1;fill-rule:nonzero;stroke:none"
           d="m 124,152 -2,0 0,8 2,0 0,-8 z" /><path
           id="path52"
           style="fill:#999999;fill-opacity:1;fill-rule:nonzero;stroke:none"
           d="m 128,152 -2,0 0,8 2,0 0,-8 z" /><path
           id="path54"
           style="fill:#999999;fill-opacity:1;fill-rule:nonzero;stroke:none"
           d="m 132,152 -2,0 0,8 2,0 0,-8 z" /><path
           id="path56"
           style="fill:#999999;fill-opacity:1;fill-rule:nonzero;stroke:none"
           d="m 136,152 -2,0 0,8 2,0 0,-8 z" /><path
           id="path58"
           style="fill:#999999;fill-opacity:1;fill-rule:nonzero;stroke:none"
           d="m 140,152 -2,0 0,8 2,0 0,-8 z" /><path
           id="path60"
           style="fill:#999999;fill-opacity:1;fill-rule:nonzero;stroke:none"
           d="m 144,152 -2,0 0,8 2,0 0,-8 z" /><path
           id="path62"
           style="fill:#999999;fill-opacity:1;fill-rule:nonzero;stroke:none"
           d="m 148,152 -2,0 0,8 2,0 0,-8 z" /><path
           id="path64"
           style="fill:#999999;fill-opacity:1;fill-rule:nonzero;stroke:none"
           d="m 152,152 -2,0 0,8 2,0 0,-8 z" /><path
           id="path66"
           style="fill:#999999;fill-opacity:1;fill-rule:nonzero;stroke:none"
           d="m 156,152 -2,0 0,8 2,0 0,-8 z" /><path
           id="path68"
           style="fill:#999999;fill-opacity:1;fill-rule:nonzero;stroke:none"
           d="m 102,96 -2,0 0,8 2,0 0,-8 z" /><path
           id="path70"
           style="fill:#999999;fill-opacity:1;fill-rule:nonzero;stroke:none"
           d="m 106,96 -2,0 0,8 2,0 0,-8 z" /><path
           id="path72"
           style="fill:#999999;fill-opacity:1;fill-rule:nonzero;stroke:none"
           d="m 110,96 -2,0 0,8 2,0 0,-8 z" /><path
           id="path74"
           style="fill:#999999;fill-opacity:1;fill-rule:nonzero;stroke:none"
           d="m 114,96 -2,0 0,8 2,0 0,-8 z" /><path
           id="path76"
           style="fill:#999999;fill-opacity:1;fill-rule:nonzero;stroke:none"
           d="m 118,96 -2,0 0,8 2,0 0,-8 z" /><path
           id="path78"
           style="fill:#999999;fill-opacity:1;fill-rule:nonzero;stroke:none"
           d="m 122,96 -2,0 0,8 2,0 0,-8 z" /><path
           id="path80"
           style="fill:#999999;fill-opacity:1;fill-rule:nonzero;stroke:none"
           d="m 126,96 -2,0 0,8 2,0 0,-8 z" /><path
           id="path82"
           style="fill:#999999;fill-opacity:1;fill-rule:nonzero;stroke:none"
           d="m 130,96 -2,0 0,8 2,0 0,-8 z" /><path
           id="path84"
           style="fill:#999999;fill-opacity:1;fill-rule:nonzero;stroke:none"
           d="m 134,96 -2,0 0,8 2,0 0,-8 z" /><path
           id="path86"
           style="fill:#999999;fill-opacity:1;fill-rule:nonzero;stroke:none"
           d="m 138,96 -2,0 0,8 2,0 0,-8 z" /><path
           id="path88"
           style="fill:#999999;fill-opacity:1;fill-rule:nonzero;stroke:none"
           d="m 142,96 -2,0 0,8 2,0 0,-8 z" /><path
           id="path90"
           style="fill:#999999;fill-opacity:1;fill-rule:nonzero;stroke:none"
           d="m 146,96 -2,0 0,8 2,0 0,-8 z" /><path
           id="path92"
           style="fill:#999999;fill-opacity:1;fill-rule:nonzero;stroke:none"
           d="m 150,96 -2,0 0,8 2,0 0,-8 z" /><path
           id="path94"
           style="fill:#999999;fill-opacity:1;fill-rule:nonzero;stroke:none"
           d="m 154,96 -2,0 0,8 2,0 0,-8 z" /><path
           id="path96"
           style="fill:#999999;fill-opacity:1;fill-rule:nonzero;stroke:none"
           d="m 152,154 8,0 0,-2 -8,0 0,2 z" /><path
           id="path98"
           style="fill:#999999;fill-opacity:1;fill-rule:nonzero;stroke:none"
           d="m 152,150 8,0 0,-2 -8,0 0,2 z" /><path
           id="path100"
           style="fill:#999999;fill-opacity:1;fill-rule:nonzero;stroke:none"
           d="m 152,146 8,0 0,-2 -8,0 0,2 z" /><path
           id="path102"
           style="fill:#999999;fill-opacity:1;fill-rule:nonzero;stroke:none"
           d="m 152,142 8,0 0,-2 -8,0 0,2 z" /><path
           id="path104"
           style="fill:#999999;fill-opacity:1;fill-rule:nonzero;stroke:none"
           d="m 152,138 8,0 0,-2 -8,0 0,2 z" /><path
           id="path106"
           style="fill:#999999;fill-opacity:1;fill-rule:nonzero;stroke:none"
           d="m 152,134 8,0 0,-2 -8,0 0,2 z" /><path
           id="path108"
           style="fill:#999999;fill-opacity:1;fill-rule:nonzero;stroke:none"
           d="m 152,130 8,0 0,-2 -8,0 0,2 z" /><path
           id="path110"
           style="fill:#999999;fill-opacity:1;fill-rule:nonzero;stroke:none"
           d="m 152,126 8,0 0,-2 -8,0 0,2 z" /><path
           id="path112"
           style="fill:#999999;fill-opacity:1;fill-rule:nonzero;stroke:none"
           d="m 152,122 8,0 0,-2 -8,0 0,2 z" /><path
           id="path114"
           style="fill:#999999;fill-opacity:1;fill-rule:nonzero;stroke:none"
           d="m 152,118 8,0 0,-2 -8,0 0,2 z" /><path
           id="path116"
           style="fill:#999999;fill-opacity:1;fill-rule:nonzero;stroke:none"
           d="m 152,114 8,0 0,-2 -8,0 0,2 z" /><path
           id="path118"
           style="fill:#999999;fill-opacity:1;fill-rule:nonzero;stroke:none"
           d="m 152,110 8,0 0,-2 -8,0 0,2 z" /><path
           id="path120"
           style="fill:#999999;fill-opacity:1;fill-rule:nonzero;stroke:none"
           d="m 152,106 8,0 0,-2 -8,0 0,2 z" /><path
           id="path122"
           style="fill:#999999;fill-opacity:1;fill-rule:nonzero;stroke:none"
           d="m 152,102 8,0 0,-2 -8,0 0,2 z" /><path
           id="path124"
           style="fill:#999999;fill-opacity:1;fill-rule:nonzero;stroke:none"
           d="m 96,156 8,0 0,-2 -8,0 0,2 z" /><path
           id="path126"
           style="fill:#999999;fill-opacity:1;fill-rule:nonzero;stroke:none"
           d="m 96,152 8,0 0,-2 -8,0 0,2 z" /><path
           id="path128"
           style="fill:#999999;fill-opacity:1;fill-rule:nonzero;stroke:none"
           d="m 96,148 8,0 0,-2 -8,0 0,2 z" /><path
           id="path130"
           style="fill:#999999;fill-opacity:1;fill-rule:nonzero;stroke:none"
           d="m 96,144 8,0 0,-2 -8,0 0,2 z" /><path
           id="path132"
           style="fill:#999999;fill-opacity:1;fill-rule:nonzero;stroke:none"
           d="m 96,140 8,0 0,-2 -8,0 0,2 z" /><path
           id="path134"
           style="fill:#999999;fill-opacity:1;fill-rule:nonzero;stroke:none"
           d="m 96,136 8,0 0,-2 -8,0 0,2 z" /><path
           id="path136"
           style="fill:#999999;fill-opacity:1;fill-rule:nonzero;stroke:none"
           d="m 96,132 8,0 0,-2 -8,0 0,2 z" /><path
           id="path138"
           style="fill:#999999;fill-opacity:1;fill-rule:nonzero;stroke:none"
           d="m 96,128 8,0 0,-2 -8,0 0,2 z" /><path
           id="path140"
           style="fill:#999999;fill-opacity:1;fill-rule:nonzero;stroke:none"
           d="m 96,112 8,0 0,-2 -8,0 0,2 z" /><path
           id="path142"
           style="fill:#999999;fill-opacity:1;fill-rule:nonzero;stroke:none"
           d="m 96,108 8,0 0,-2 -8,0 0,2 z" /><path
           id="path144"
           style="fill:#999999;fill-opacity:1;fill-rule:nonzero;stroke:none"
           d="m 96,104 8,0 0,-2 -8,0 0,2 z" /><path
           id="path146"
           style="fill:#999999;fill-opacity:1;fill-rule:nonzero;stroke:none"
           d="m 96,124 8,0 0,-2 -8,0 0,2 z" /><path
           id="path148"
           style="fill:#999999;fill-opacity:1;fill-rule:nonzero;stroke:none"
           d="m 96,120 8,0 0,-2 -8,0 0,2 z" /><path
           id="path150"
           style="fill:#999999;fill-opacity:1;fill-rule:nonzero;stroke:none"
           d="m 96,116 8,0 0,-2 -8,0 0,2 z" /></g></g><g
       id="g152"><g
         clip-path="url(#clipPath156)"
         id="g154"><g
           id="g160"><g
             id="g162"><path
               id="path170"
               style="fill:url(#linearGradient164);stroke:none"
               d="m 100,100 56,0 0,56 -56,0 0,-56 z" /></g></g></g></g><g
       id="g172"><g
         clip-path="url(#clipPath176)"
         id="g174"><path
           id="path180"
           style="fill:#999999;fill-opacity:1;fill-rule:nonzero;stroke:none"
           d="m 152,104 -48,0 0,48 48,0 0,-48 z" /></g></g><g
       id="g182"><g
         clip-path="url(#clipPath186)"
         id="g184"><g
           id="g190"><g
             id="g192"><path
               id="path200"
               style="fill:url(#linearGradient194);stroke:none"
               d="m 118,144 c -3.314,0 -6,-2.687 -6,-6 l 0,0 0,-20 c 0,-3.314 2.686,-6 6,-6 l 0,0 20,0 c 3.313,0 6,2.686 6,6 l 0,0 0,20 c 0,3.313 -2.687,6 -6,6 l 0,0 -20,0 z" /></g></g></g></g><g
       id="g202"><g
         clip-path="url(#clipPath206)"
         id="g204"><g
           transform="translate(113.7969,107.8086)"
           id="g210"><path
             id="path212"
             style="fill:#999999;fill-opacity:1;fill-rule:nonzero;stroke:none"
             d="m 0,0 0.527,0 0,-3.986 -0.155,0 C 0.167,-3.986 0,-3.855 0,-3.694 L 0,0 Z" /></g><g
           transform="translate(115.3794,104.2354)"
           id="g214"><path
             id="path216"
             style="fill:#999999;fill-opacity:1;fill-rule:nonzero;stroke:none"
             d="m 0,0 0.248,0 c 0.154,0 0.279,0.099 0.279,0.219 l 0,0.936 c 0,0.12 -0.125,0.219 -0.279,0.219 L 0,1.374 0,0 Z m 0,1.787 0.248,0 c 0.154,0 0.279,0.098 0.279,0.218 l 0,0.936 C 0.527,3.063 0.402,3.16 0.248,3.16 L 0,3.16 0,1.787 Z m -0.527,1.786 1.054,0 C 0.673,3.573 0.798,3.533 0.9,3.453 1.002,3.373 1.053,3.275 1.053,3.16 l 0,-1.262 C 1.053,1.802 1.031,1.731 0.986,1.689 0.94,1.646 0.885,1.61 0.818,1.58 0.885,1.562 0.94,1.526 0.986,1.475 1.031,1.422 1.053,1.335 1.053,1.212 L 1.053,0 c 0,-0.115 -0.051,-0.213 -0.153,-0.293 -0.102,-0.08 -0.227,-0.12 -0.373,-0.12 l -1.054,0 0,3.986 z" /></g><g
           transform="translate(117.1348,107.792)"
           id="g218"><path
             id="path220"
             style="fill:#999999;fill-opacity:1;fill-rule:nonzero;stroke:none"
             d="m 0,0 4.254,0 c 0.133,0 0.244,-0.069 0.333,-0.209 l 0.698,-1.15 0.033,-0.105 -0.033,-0.105 -1.031,-0.942 1.064,-1.465 -1.595,0 -1.389,1.806 c -0.062,0.08 0.012,0.183 0.131,0.183 l 0.526,0 c 0.089,0 0.155,0.017 0.2,0.051 l 0.532,0.472 -0.266,0.523 c -0.045,0.07 -0.111,0.104 -0.2,0.104 l -1.662,0 0,-3.139 L 0,-3.976 0,0 Z" /></g><g
           transform="translate(133.3828,107.792)"
           id="g222"><path
             id="path224"
             style="fill:#999999;fill-opacity:1;fill-rule:nonzero;stroke:none"
             d="m 0,0 4.255,0 c 0.133,0 0.243,-0.069 0.332,-0.209 l 0.698,-1.15 0.033,-0.105 -0.033,-0.105 -1.03,-0.942 1.063,-1.465 -1.595,0 -1.389,1.806 c -0.062,0.08 0.012,0.183 0.132,0.183 l 0.525,0 c 0.089,0 0.155,0.017 0.2,0.051 l 0.532,0.472 -0.266,0.523 c -0.044,0.07 -0.111,0.104 -0.199,0.104 l -1.662,0 0,-3.139 L 0,-3.976 0,0 Z" /></g><g
           transform="translate(141.4658,104.6133)"
           id="g226"><path
             id="path228"
             style="fill:#999999;fill-opacity:1;fill-rule:nonzero;stroke:none"
             d="m 0,0 c -0.836,0 -1.514,0.531 -1.514,1.187 0,0.656 0.678,1.187 1.514,1.187 0.835,0 1.513,-0.531 1.513,-1.187 C 1.513,0.531 0.835,0 0,0 m 1.551,3.179 -3.103,0 C -2.095,3.179 -2.54,2.83 -2.54,2.403 l 0,-2.432 c 0,-0.427 0.445,-0.776 0.988,-0.776 l 3.103,0 c 0.543,0 0.983,0.349 0.983,0.776 l 0,2.432 c 0,0.427 -0.44,0.776 -0.983,0.776" /></g><g
           transform="translate(113.5801,103.8262)"
           id="g230"><path
             id="path232"
             style="fill:#999999;fill-opacity:1;fill-rule:nonzero;stroke:none"
             d="m 0,0 c -0.006,0.112 -0.059,0.208 -0.16,0.289 -0.094,0.081 -0.217,0.121 -0.367,0.12 -0.001,0 -0.003,0.001 -0.004,0.001 l 0,-0.001 -0.522,0 0,3.573 -0.527,0 0,-3.986 1.58,0 L -0.005,0 0,0 Z" /></g><g
           transform="translate(124.3408,105.3857)"
           id="g234"><path
             id="path236"
             style="fill:#999999;fill-opacity:1;fill-rule:nonzero;stroke:none"
             d="m 0,0 3.191,0 0,0.837 -3.191,0 0.333,0.628 c 0.044,0.07 0.11,0.104 0.199,0.104 l 3.191,0 0,0.837 -4.255,0 c -0.133,0 -0.221,-0.034 -0.265,-0.104 L -1.529,1.256 C -1.573,1.186 -1.595,1.116 -1.595,1.047 l 0,-2.616 5.318,0 0,0.837 L 0,-0.732 0,0 Z" /></g><g
           transform="translate(133.1377,107.792)"
           id="g238"><path
             id="path240"
             style="fill:#999999;fill-opacity:1;fill-rule:nonzero;stroke:none"
             d="m 0,0 0,0 -1.616,0 -1.596,0 -1.575,0 0,-0.837 1.575,0 0,-3.146 1.596,0 0,3.146 1.574,0 0,0.837 L 0,0 Z" /></g><g
           transform="translate(134.5225,127.4614)"
           id="g242"><path
             id="path244"
             style="fill:#999999;fill-opacity:1;fill-rule:nonzero;stroke:none"
             d="M 0,0 -0.465,4.172 2.252,2.16 0,0 Z m -6.786,-0.028 c -1.444,0 -2.574,0.999 -2.523,2.188 0.049,1.143 1.179,2.037 2.523,2.037 1.346,0 2.474,-0.894 2.524,-2.037 0.051,-1.189 -1.078,-2.188 -2.524,-2.188 m 0,-6.483 -2.747,2.636 5.496,0 -2.749,-2.636 z m 0,15.365 2.28,-1.688 -4.559,0 2.279,1.688 z M -13.571,0 -15.822,2.16 -13.106,4.172 -13.571,0 Z m 10.828,5.54 -0.357,4.891 -4.599,0 c -1.531,0 -2.838,-0.908 -2.924,-2.073 l -0.205,-2.818 -6.809,0 -0.839,-4.283 c -0.309,-1.576 0.966,-2.917 2.864,-2.917 l 4.258,0 -0.562,-7.694 6.402,0 c 2.131,0 3.736,1.687 3.592,3.657 l -0.295,4.037 7.695,0 -0.921,4.696 C 4.28,4.446 2.705,5.54 1.025,5.54 l -3.768,0 z" /></g></g></g></g></svg>