<?xml version="1.0" encoding="UTF-8" standalone="no"?>
<svg
   xmlns:dc="http://purl.org/dc/elements/1.1/"
   xmlns:cc="http://creativecommons.org/ns#"
   xmlns:rdf="http://www.w3.org/1999/02/22-rdf-syntax-ns#"
   xmlns:svg="http://www.w3.org/2000/svg"
   xmlns="http://www.w3.org/2000/svg"
   viewBox="0 0 320 320"
   height="320"
   width="320"
   xml:space="preserve"
   version="1.1"
   id="svg2"><metadata
     id="metadata8"><rdf:RDF><cc:Work
         rdf:about=""><dc:format>image/svg+xml</dc:format><dc:type
           rdf:resource="http://purl.org/dc/dcmitype/StillImage" /></cc:Work></rdf:RDF></metadata><defs
     id="defs6"><clipPath
       id="clipPath16"
       clipPathUnits="userSpaceOnUse"><path
         id="path18"
         d="M 0,256 256,256 256,0 0,0 0,256 Z" /></clipPath><clipPath
       id="clipPath28"
       clipPathUnits="userSpaceOnUse"><path
         id="path30"
         d="m 66.56,174.08 0,-15.36 c 0,-8.483 23.266,-15.36 61.44,-15.36 l 0,0 c 38.173,0 61.44,6.877 61.44,15.36 l 0,0 0,15.36 c 0,8.482 -23.267,15.36 -61.44,15.36 l 0,0 c -38.174,0 -61.44,-6.878 -61.44,-15.36 M 128,128 c -38.174,0 -61.44,6.878 -61.44,15.36 l 0,0 0,-7.68 0,-7.68 0,-7.68 c 0,-8.482 23.266,-15.36 61.44,-15.36 l 0,0 c 38.173,0 61.44,6.878 61.44,15.36 l 0,0 0,7.68 0,7.68 0,7.68 C 189.44,134.878 166.173,128 128,128 m 0,-38.4 c -38.174,0 -61.44,6.877 -61.44,15.36 l 0,0 0,-7.68 0,-7.68 0,-7.68 c 0,-8.483 23.266,-15.36 61.44,-15.36 l 0,0 c 38.173,0 61.44,6.877 61.44,15.36 l 0,0 0,7.68 0,7.68 0,7.68 C 189.44,96.477 166.173,89.6 128,89.6" /></clipPath><linearGradient
       id="linearGradient36"
       spreadMethod="pad"
       gradientTransform="matrix(109.70531,-109.70531,-109.70531,-109.70531,73.147346,182.85265)"
       gradientUnits="userSpaceOnUse"
       y2="0"
       x2="1"
       y1="0"
       x1="0"><stop
         id="stop38"
         offset="0"
         style="stop-opacity:1;stop-color:#e6e7e8" /><stop
         id="stop40"
         offset="1"
         style="stop-opacity:1;stop-color:#d1d3d4" /></linearGradient></defs><g
     transform="matrix(1.25,0,0,-1.25,0,320)"
     id="g10"><g
       id="g12"><g
         clip-path="url(#clipPath16)"
         id="g14"><g
           transform="translate(169.7892,76.3078)"
           id="g20"><path
             id="path22"
             style="fill:#999999;fill-opacity:1;fill-rule:nonzero;stroke:none"
             d="m 0,0 -83.578,0 c -6.6,0 -12,5.4 -12,12 l 0,73.003 c 0,6.6 5.4,12 12,12 l 83.578,0 c 6.6,0 12,-5.4 12,-12 L 12,12 C 12,5.4 6.6,0 0,0" /></g></g></g><g
       id="g24"><g
         clip-path="url(#clipPath28)"
         id="g26"><g
           id="g32"><g
             id="g34"><path
               id="path42"
               style="fill:url(#linearGradient36);stroke:none"
               d="m 66.56,174.08 0,-15.36 c 0,-8.483 23.266,-15.36 61.44,-15.36 l 0,0 c 38.173,0 61.44,6.877 61.44,15.36 l 0,0 0,15.36 c 0,8.482 -23.267,15.36 -61.44,15.36 l 0,0 c -38.174,0 -61.44,-6.878 -61.44,-15.36 M 128,128 c -38.174,0 -61.44,6.878 -61.44,15.36 l 0,0 0,-7.68 0,-7.68 0,-7.68 c 0,-8.482 23.266,-15.36 61.44,-15.36 l 0,0 c 38.173,0 61.44,6.878 61.44,15.36 l 0,0 0,7.68 0,7.68 0,7.68 C 189.44,134.878 166.173,128 128,128 m 0,-38.4 c -38.174,0 -61.44,6.877 -61.44,15.36 l 0,0 0,-7.68 0,-7.68 0,-7.68 c 0,-8.483 23.266,-15.36 61.44,-15.36 l 0,0 c 38.173,0 61.44,6.877 61.44,15.36 l 0,0 0,7.68 0,7.68 0,7.68 C 189.44,96.477 166.173,89.6 128,89.6" /></g></g></g></g></g></svg>