<?xml version="1.0" encoding="UTF-8" standalone="no"?>
<svg
   xmlns:dc="http://purl.org/dc/elements/1.1/"
   xmlns:cc="http://creativecommons.org/ns#"
   xmlns:rdf="http://www.w3.org/1999/02/22-rdf-syntax-ns#"
   xmlns:svg="http://www.w3.org/2000/svg"
   xmlns="http://www.w3.org/2000/svg"
   viewBox="0 0 320 320"
   height="320"
   width="320"
   xml:space="preserve"
   version="1.1"
   id="svg2"><metadata
     id="metadata8"><rdf:RDF><cc:Work
         rdf:about=""><dc:format>image/svg+xml</dc:format><dc:type
           rdf:resource="http://purl.org/dc/dcmitype/StillImage" /></cc:Work></rdf:RDF></metadata><defs
     id="defs6"><clipPath
       id="clipPath16"
       clipPathUnits="userSpaceOnUse"><path
         id="path18"
         d="M 220.164,244 35.94,244 20,217.78 l 0,-8.127 216,0 0,8.127 -15.836,26.22 z" /></clipPath><linearGradient
       id="linearGradient24"
       spreadMethod="pad"
       gradientTransform="matrix(117.20316,-117.20316,-117.20316,-117.20316,69.424576,277.48422)"
       gradientUnits="userSpaceOnUse"
       y2="0"
       x2="1"
       y1="0"
       x1="0"><stop
         id="stop26"
         offset="0"
         style="stop-opacity:1;stop-color:#e6e7e8" /><stop
         id="stop28"
         offset="1"
         style="stop-opacity:1;stop-color:#d1d3d4" /></linearGradient><clipPath
       id="clipPath36"
       clipPathUnits="userSpaceOnUse"><path
         id="path38"
         d="m 236,12 -216,0 0,204 216,0 0,-204 z" /></clipPath><linearGradient
       id="linearGradient44"
       spreadMethod="pad"
       gradientTransform="matrix(-210,210,210,210,233,9)"
       gradientUnits="userSpaceOnUse"
       y2="0"
       x2="1"
       y1="0"
       x1="0"><stop
         id="stop46"
         offset="0"
         style="stop-opacity:1;stop-color:#e6e7e8" /><stop
         id="stop48"
         offset="1"
         style="stop-opacity:1;stop-color:#d1d3d4" /></linearGradient><clipPath
       id="clipPath56"
       clipPathUnits="userSpaceOnUse"><path
         id="path58"
         d="m 211.455,40 -168,0 0,8 168,0 0,-8 z" /></clipPath><linearGradient
       id="linearGradient64"
       spreadMethod="pad"
       gradientTransform="matrix(88,-88,-88,-88,83.454834,88)"
       gradientUnits="userSpaceOnUse"
       y2="0"
       x2="1"
       y1="0"
       x1="0"><stop
         id="stop66"
         offset="0"
         style="stop-opacity:1;stop-color:#e6e7e8" /><stop
         id="stop68"
         offset="1"
         style="stop-opacity:1;stop-color:#d1d3d4" /></linearGradient><clipPath
       id="clipPath76"
       clipPathUnits="userSpaceOnUse"><path
         id="path78"
         d="m 236,32 -216,0 0,8 216,0 0,-8 z" /></clipPath><linearGradient
       id="linearGradient84"
       spreadMethod="pad"
       gradientTransform="matrix(-112,112,112,112,184,-20)"
       gradientUnits="userSpaceOnUse"
       y2="0"
       x2="1"
       y1="0"
       x1="0"><stop
         id="stop86"
         offset="0"
         style="stop-opacity:1;stop-color:#e6e7e8" /><stop
         id="stop88"
         offset="1"
         style="stop-opacity:1;stop-color:#d1d3d4" /></linearGradient><clipPath
       id="clipPath96"
       clipPathUnits="userSpaceOnUse"><path
         id="path98"
         d="m 236,48 -216,0 0,8 216,0 0,-8 z" /></clipPath><linearGradient
       id="linearGradient104"
       spreadMethod="pad"
       gradientTransform="matrix(112,-112,-112,-112,72,108)"
       gradientUnits="userSpaceOnUse"
       y2="0"
       x2="1"
       y1="0"
       x1="0"><stop
         id="stop106"
         offset="0"
         style="stop-opacity:1;stop-color:#e6e7e8" /><stop
         id="stop108"
         offset="1"
         style="stop-opacity:1;stop-color:#d1d3d4" /></linearGradient><clipPath
       id="clipPath118"
       clipPathUnits="userSpaceOnUse"><path
         id="path120"
         d="M 38.477,208 C 37.109,208 36,206.891 36,205.523 l 0,0 0,-5.523 29.523,0 c 1.368,0 2.477,1.109 2.477,2.477 l 0,0 0,3.046 C 68,206.891 66.891,208 65.523,208 l 0,0 -27.046,0 z" /></clipPath><linearGradient
       id="linearGradient126"
       spreadMethod="pad"
       gradientTransform="matrix(18.548996,-18.548996,-18.548996,-18.548996,42.362751,212.91174)"
       gradientUnits="userSpaceOnUse"
       y2="0"
       x2="1"
       y1="0"
       x1="0"><stop
         id="stop128"
         offset="0"
         style="stop-opacity:1;stop-color:#e6e7e8" /><stop
         id="stop130"
         offset="1"
         style="stop-opacity:1;stop-color:#d1d3d4" /></linearGradient><clipPath
       id="clipPath138"
       clipPathUnits="userSpaceOnUse"><path
         id="path140"
         d="M 78.477,208 C 77.109,208 76,206.891 76,205.523 l 0,0 0,-3.046 C 76,201.109 77.109,200 78.477,200 l 0,0 19.046,0 c 1.368,0 2.477,1.109 2.477,2.477 l 0,0 0,3.046 c 0,1.368 -1.109,2.477 -2.477,2.477 l 0,0 -19.046,0 z" /></clipPath><linearGradient
       id="linearGradient146"
       spreadMethod="pad"
       gradientTransform="matrix(14.548996,-14.548996,-14.548996,-14.548996,80.725502,211.27451)"
       gradientUnits="userSpaceOnUse"
       y2="0"
       x2="1"
       y1="0"
       x1="0"><stop
         id="stop148"
         offset="0"
         style="stop-opacity:1;stop-color:#e6e7e8" /><stop
         id="stop150"
         offset="1"
         style="stop-opacity:1;stop-color:#d1d3d4" /></linearGradient><clipPath
       id="clipPath158"
       clipPathUnits="userSpaceOnUse"><path
         id="path160"
         d="M 158.477,208 C 157.109,208 156,206.891 156,205.523 l 0,0 0,-3.046 c 0,-1.368 1.109,-2.477 2.477,-2.477 l 0,0 19.046,0 c 1.368,0 2.477,1.109 2.477,2.477 l 0,0 0,3.046 c 0,1.368 -1.109,2.477 -2.477,2.477 l 0,0 -19.046,0 z" /></clipPath><linearGradient
       id="linearGradient166"
       spreadMethod="pad"
       gradientTransform="matrix(14.548996,-14.548996,-14.548996,-14.548996,160.72549,211.27451)"
       gradientUnits="userSpaceOnUse"
       y2="0"
       x2="1"
       y1="0"
       x1="0"><stop
         id="stop168"
         offset="0"
         style="stop-opacity:1;stop-color:#e6e7e8" /><stop
         id="stop170"
         offset="1"
         style="stop-opacity:1;stop-color:#d1d3d4" /></linearGradient><clipPath
       id="clipPath178"
       clipPathUnits="userSpaceOnUse"><path
         id="path180"
         d="M 110.477,208 C 109.109,208 108,206.891 108,205.523 l 0,0 0,-3.046 c 0,-1.368 1.109,-2.477 2.477,-2.477 l 0,0 35.046,0 c 1.368,0 2.477,1.109 2.477,2.477 l 0,0 0,3.046 c 0,1.368 -1.109,2.477 -2.477,2.477 l 0,0 -35.046,0 z" /></clipPath><linearGradient
       id="linearGradient186"
       spreadMethod="pad"
       gradientTransform="matrix(22.548996,-22.548996,-22.548996,-22.548996,116.7255,215.27451)"
       gradientUnits="userSpaceOnUse"
       y2="0"
       x2="1"
       y1="0"
       x1="0"><stop
         id="stop188"
         offset="0"
         style="stop-opacity:1;stop-color:#e6e7e8" /><stop
         id="stop190"
         offset="1"
         style="stop-opacity:1;stop-color:#d1d3d4" /></linearGradient><clipPath
       id="clipPath198"
       clipPathUnits="userSpaceOnUse"><path
         id="path200"
         d="M 190.477,208 C 189.109,208 188,206.891 188,205.523 l 0,0 0,-3.046 c 0,-1.368 1.109,-2.477 2.477,-2.477 l 0,0 29.523,0 0,5.523 c 0,1.368 -1.109,2.477 -2.477,2.477 l 0,0 -27.046,0 z" /></clipPath><linearGradient
       id="linearGradient206"
       spreadMethod="pad"
       gradientTransform="matrix(19.274498,-19.274498,-19.274498,-19.274498,194.72549,213.27451)"
       gradientUnits="userSpaceOnUse"
       y2="0"
       x2="1"
       y1="0"
       x1="0"><stop
         id="stop208"
         offset="0"
         style="stop-opacity:1;stop-color:#e6e7e8" /><stop
         id="stop210"
         offset="1"
         style="stop-opacity:1;stop-color:#d1d3d4" /></linearGradient><clipPath
       id="clipPath218"
       clipPathUnits="userSpaceOnUse"><path
         id="path220"
         d="m 118,56 c -1.104,0 -2,-0.896 -2,-2 l 0,0 0,-6 24,0 0,6 c 0,1.104 -0.895,2 -2,2 l 0,0 -20,0 z" /></clipPath><linearGradient
       id="linearGradient226"
       spreadMethod="pad"
       gradientTransform="matrix(-15.414213,15.414213,15.414213,15.414213,135.70711,43.707107)"
       gradientUnits="userSpaceOnUse"
       y2="0"
       x2="1"
       y1="0"
       x1="0"><stop
         id="stop228"
         offset="0"
         style="stop-opacity:1;stop-color:#e6e7e8" /><stop
         id="stop230"
         offset="1"
         style="stop-opacity:1;stop-color:#d1d3d4" /></linearGradient><clipPath
       id="clipPath238"
       clipPathUnits="userSpaceOnUse"><path
         id="path240"
         d="m 116,40 24,0 0,8 -24,0 0,-8 z" /></clipPath><linearGradient
       id="linearGradient246"
       spreadMethod="pad"
       gradientTransform="matrix(15.999999,-15.999999,-15.999999,-15.999999,120,52)"
       gradientUnits="userSpaceOnUse"
       y2="0"
       x2="1"
       y1="0"
       x1="0"><stop
         id="stop248"
         offset="0"
         style="stop-opacity:1;stop-color:#e6e7e8" /><stop
         id="stop250"
         offset="1"
         style="stop-opacity:1;stop-color:#d1d3d4" /></linearGradient><clipPath
       id="clipPath258"
       clipPathUnits="userSpaceOnUse"><path
         id="path260"
         d="m 116,40 0,-6 c 0,-1.105 0.896,-2 2,-2 l 0,0 20,0 c 1.105,0 2,0.895 2,2 l 0,0 0,6 -24,0 z" /></clipPath><linearGradient
       id="linearGradient266"
       spreadMethod="pad"
       gradientTransform="matrix(15.414213,-15.414213,-15.414213,-15.414213,120.29289,44.292893)"
       gradientUnits="userSpaceOnUse"
       y2="0"
       x2="1"
       y1="0"
       x1="0"><stop
         id="stop268"
         offset="0"
         style="stop-opacity:1;stop-color:#e6e7e8" /><stop
         id="stop270"
         offset="1"
         style="stop-opacity:1;stop-color:#d1d3d4" /></linearGradient><clipPath
       id="clipPath278"
       clipPathUnits="userSpaceOnUse"><path
         id="path280"
         d="m 122,48 12,0 0,8 -12,0 0,-8 z" /></clipPath><linearGradient
       id="linearGradient286"
       spreadMethod="pad"
       gradientTransform="matrix(10,-10,-10,-10,123,57)"
       gradientUnits="userSpaceOnUse"
       y2="0"
       x2="1"
       y1="0"
       x1="0"><stop
         id="stop288"
         offset="0"
         style="stop-opacity:1;stop-color:#e6e7e8" /><stop
         id="stop290"
         offset="1"
         style="stop-opacity:1;stop-color:#d1d3d4" /></linearGradient><clipPath
       id="clipPath298"
       clipPathUnits="userSpaceOnUse"><path
         id="path300"
         d="m 122,40 12,0 0,8 -12,0 0,-8 z" /></clipPath><linearGradient
       id="linearGradient306"
       spreadMethod="pad"
       gradientTransform="matrix(-10,10,10,10,133,39)"
       gradientUnits="userSpaceOnUse"
       y2="0"
       x2="1"
       y1="0"
       x1="0"><stop
         id="stop308"
         offset="0"
         style="stop-opacity:1;stop-color:#e6e7e8" /><stop
         id="stop310"
         offset="1"
         style="stop-opacity:1;stop-color:#d1d3d4" /></linearGradient><clipPath
       id="clipPath318"
       clipPathUnits="userSpaceOnUse"><path
         id="path320"
         d="m 122,32 12,0 0,7.999 -12,0 0,-7.999 z" /></clipPath><linearGradient
       id="linearGradient326"
       spreadMethod="pad"
       gradientTransform="matrix(-10,10,10,10,133,31)"
       gradientUnits="userSpaceOnUse"
       y2="0"
       x2="1"
       y1="0"
       x1="0"><stop
         id="stop328"
         offset="0"
         style="stop-opacity:1;stop-color:#e6e7e8" /><stop
         id="stop330"
         offset="1"
         style="stop-opacity:1;stop-color:#d1d3d4" /></linearGradient><clipPath
       id="clipPath338"
       clipPathUnits="userSpaceOnUse"><path
         id="path340"
         d="m 36.175,200 0,-51.396 -4.263,0 c -2.161,0 -3.912,-1.247 -3.912,-2.786 l 0,0 0,-3.031 C 28,141.248 29.751,140 31.912,140 l 0,0 4.263,0 3.913,0 c 2.161,0 3.912,1.248 3.912,2.787 l 0,0 0,57.213 -7.825,0 z" /></clipPath><linearGradient
       id="linearGradient346"
       spreadMethod="pad"
       gradientTransform="matrix(32.964966,-32.964966,-32.964966,-32.964966,21.561197,185.38647)"
       gradientUnits="userSpaceOnUse"
       y2="0"
       x2="1"
       y1="0"
       x1="0"><stop
         id="stop348"
         offset="0"
         style="stop-opacity:1;stop-color:#e6e7e8" /><stop
         id="stop350"
         offset="1"
         style="stop-opacity:1;stop-color:#d1d3d4" /></linearGradient><clipPath
       id="clipPath358"
       clipPathUnits="userSpaceOnUse"><path
         id="path360"
         d="m 212,200.63 0,-57.213 c 0,-1.539 1.752,-2.787 3.913,-2.787 l 0,0 3.912,0 4.262,0 c 2.161,0 3.913,1.248 3.913,2.787 l 0,0 0,3.031 c 0,1.539 -1.752,2.786 -3.913,2.786 l 0,0 -4.262,0 0,51.396 -7.825,0 z" /></clipPath><linearGradient
       id="linearGradient366"
       spreadMethod="pad"
       gradientTransform="matrix(37.05233,-37.05233,-37.05233,-37.05233,199.43016,188.06013)"
       gradientUnits="userSpaceOnUse"
       y2="0"
       x2="1"
       y1="0"
       x1="0"><stop
         id="stop368"
         offset="0"
         style="stop-opacity:1;stop-color:#e6e7e8" /><stop
         id="stop370"
         offset="1"
         style="stop-opacity:1;stop-color:#d1d3d4" /></linearGradient><clipPath
       id="clipPath378"
       clipPathUnits="userSpaceOnUse"><path
         id="path380"
         d="m 64,56 0,-16 2,0 c 1.105,0 2,0.895 2,2 l 0,0 0,14 -4,0 z" /></clipPath><linearGradient
       id="linearGradient386"
       spreadMethod="pad"
       gradientTransform="matrix(9.4142132,-9.4142132,-9.4142132,-9.4142132,61,53)"
       gradientUnits="userSpaceOnUse"
       y2="0"
       x2="1"
       y1="0"
       x1="0"><stop
         id="stop388"
         offset="0"
         style="stop-opacity:1;stop-color:#e6e7e8" /><stop
         id="stop390"
         offset="1"
         style="stop-opacity:1;stop-color:#d1d3d4" /></linearGradient><clipPath
       id="clipPath398"
       clipPathUnits="userSpaceOnUse"><path
         id="path400"
         d="m 96,56 0,-16 2,0 c 1.104,0 2,0.895 2,2 l 0,0 0,14 -4,0 z" /></clipPath><linearGradient
       id="linearGradient406"
       spreadMethod="pad"
       gradientTransform="matrix(9.4142132,-9.4142132,-9.4142132,-9.4142132,93,53)"
       gradientUnits="userSpaceOnUse"
       y2="0"
       x2="1"
       y1="0"
       x1="0"><stop
         id="stop408"
         offset="0"
         style="stop-opacity:1;stop-color:#e6e7e8" /><stop
         id="stop410"
         offset="1"
         style="stop-opacity:1;stop-color:#d1d3d4" /></linearGradient><clipPath
       id="clipPath418"
       clipPathUnits="userSpaceOnUse"><path
         id="path420"
         d="m 156,56 0,-14 c 0,-1.105 0.895,-2 2,-2 l 0,0 2,0 0,16 -4,0 z" /></clipPath><linearGradient
       id="linearGradient426"
       spreadMethod="pad"
       gradientTransform="matrix(10,-10,-10,-10,153.29289,53.292893)"
       gradientUnits="userSpaceOnUse"
       y2="0"
       x2="1"
       y1="0"
       x1="0"><stop
         id="stop428"
         offset="0"
         style="stop-opacity:1;stop-color:#e6e7e8" /><stop
         id="stop430"
         offset="1"
         style="stop-opacity:1;stop-color:#d1d3d4" /></linearGradient><clipPath
       id="clipPath438"
       clipPathUnits="userSpaceOnUse"><path
         id="path440"
         d="m 188,56 0,-14 c 0,-1.105 0.896,-2 2,-2 l 0,0 2,0 0,16 -4,0 z" /></clipPath><linearGradient
       id="linearGradient446"
       spreadMethod="pad"
       gradientTransform="matrix(10,-10,-10,-10,185.29289,53.292893)"
       gradientUnits="userSpaceOnUse"
       y2="0"
       x2="1"
       y1="0"
       x1="0"><stop
         id="stop448"
         offset="0"
         style="stop-opacity:1;stop-color:#e6e7e8" /><stop
         id="stop450"
         offset="1"
         style="stop-opacity:1;stop-color:#d1d3d4" /></linearGradient><clipPath
       id="clipPath458"
       clipPathUnits="userSpaceOnUse"><path
         id="path460"
         d="m 60,48 4,0 0,8 -4,0 0,-8 z" /></clipPath><linearGradient
       id="linearGradient466"
       spreadMethod="pad"
       gradientTransform="matrix(5.9999995,-5.9999995,-5.9999995,-5.9999995,59,55)"
       gradientUnits="userSpaceOnUse"
       y2="0"
       x2="1"
       y1="0"
       x1="0"><stop
         id="stop468"
         offset="0"
         style="stop-opacity:1;stop-color:#e6e7e8" /><stop
         id="stop470"
         offset="1"
         style="stop-opacity:1;stop-color:#d1d3d4" /></linearGradient><clipPath
       id="clipPath478"
       clipPathUnits="userSpaceOnUse"><path
         id="path480"
         d="m 56,55.86 0,-6 c 0,-1.104 0.895,-2 2,-2 l 0,0 2,0 0,8 -4,0 z" /></clipPath><linearGradient
       id="linearGradient486"
       spreadMethod="pad"
       gradientTransform="matrix(5.9999995,-5.9999995,-5.9999995,-5.9999995,55.292893,55.152893)"
       gradientUnits="userSpaceOnUse"
       y2="0"
       x2="1"
       y1="0"
       x1="0"><stop
         id="stop488"
         offset="0"
         style="stop-opacity:1;stop-color:#e6e7e8" /><stop
         id="stop490"
         offset="1"
         style="stop-opacity:1;stop-color:#d1d3d4" /></linearGradient><clipPath
       id="clipPath498"
       clipPathUnits="userSpaceOnUse"><path
         id="path500"
         d="m 60,48 0,-6 c 0,-1.105 0.896,-2 2,-2 l 0,0 2,0 0,8 -4,0 z" /></clipPath><linearGradient
       id="linearGradient506"
       spreadMethod="pad"
       gradientTransform="matrix(5.9999995,-5.9999995,-5.9999995,-5.9999995,59.292893,47.292893)"
       gradientUnits="userSpaceOnUse"
       y2="0"
       x2="1"
       y1="0"
       x1="0"><stop
         id="stop508"
         offset="0"
         style="stop-opacity:1;stop-color:#e6e7e8" /><stop
         id="stop510"
         offset="1"
         style="stop-opacity:1;stop-color:#d1d3d4" /></linearGradient><clipPath
       id="clipPath518"
       clipPathUnits="userSpaceOnUse"><path
         id="path520"
         d="m 92,48 4.001,0 0,8 -4.001,0 0,-8 z" /></clipPath><linearGradient
       id="linearGradient526"
       spreadMethod="pad"
       gradientTransform="matrix(5.9999995,-5.9999995,-5.9999995,-5.9999995,91,55)"
       gradientUnits="userSpaceOnUse"
       y2="0"
       x2="1"
       y1="0"
       x1="0"><stop
         id="stop528"
         offset="0"
         style="stop-opacity:1;stop-color:#e6e7e8" /><stop
         id="stop530"
         offset="1"
         style="stop-opacity:1;stop-color:#d1d3d4" /></linearGradient><clipPath
       id="clipPath538"
       clipPathUnits="userSpaceOnUse"><path
         id="path540"
         d="m 88,56 0,-6 c 0,-1.105 0.896,-2 2,-2 l 0,0 2,0 0,8 -4,0 z" /></clipPath><linearGradient
       id="linearGradient546"
       spreadMethod="pad"
       gradientTransform="matrix(5.9999995,-5.9999995,-5.9999995,-5.9999995,87.292892,55.292893)"
       gradientUnits="userSpaceOnUse"
       y2="0"
       x2="1"
       y1="0"
       x1="0"><stop
         id="stop548"
         offset="0"
         style="stop-opacity:1;stop-color:#e6e7e8" /><stop
         id="stop550"
         offset="1"
         style="stop-opacity:1;stop-color:#d1d3d4" /></linearGradient><clipPath
       id="clipPath558"
       clipPathUnits="userSpaceOnUse"><path
         id="path560"
         d="m 92,48 0,-6 c 0,-1.105 0.895,-2 2,-2 l 0,0 2,0 0,8 -4,0 z" /></clipPath><linearGradient
       id="linearGradient566"
       spreadMethod="pad"
       gradientTransform="matrix(5.9999995,-5.9999995,-5.9999995,-5.9999995,91.292892,47.292893)"
       gradientUnits="userSpaceOnUse"
       y2="0"
       x2="1"
       y1="0"
       x1="0"><stop
         id="stop568"
         offset="0"
         style="stop-opacity:1;stop-color:#e6e7e8" /><stop
         id="stop570"
         offset="1"
         style="stop-opacity:1;stop-color:#d1d3d4" /></linearGradient><clipPath
       id="clipPath578"
       clipPathUnits="userSpaceOnUse"><path
         id="path580"
         d="m 160,47.86 4,0 0,8 -4,0 0,-8 z" /></clipPath><linearGradient
       id="linearGradient586"
       spreadMethod="pad"
       gradientTransform="matrix(5.9999995,-5.9999995,-5.9999995,-5.9999995,159,54.860001)"
       gradientUnits="userSpaceOnUse"
       y2="0"
       x2="1"
       y1="0"
       x1="0"><stop
         id="stop588"
         offset="0"
         style="stop-opacity:1;stop-color:#e6e7e8" /><stop
         id="stop590"
         offset="1"
         style="stop-opacity:1;stop-color:#d1d3d4" /></linearGradient><clipPath
       id="clipPath598"
       clipPathUnits="userSpaceOnUse"><path
         id="path600"
         d="m 164,56 0,-8 2,0 c 1.105,0 2,0.895 2,2 l 0,0 0,6 -4,0 z" /></clipPath><linearGradient
       id="linearGradient606"
       spreadMethod="pad"
       gradientTransform="matrix(5.4142132,-5.4142132,-5.4142132,-5.4142132,163,55)"
       gradientUnits="userSpaceOnUse"
       y2="0"
       x2="1"
       y1="0"
       x1="0"><stop
         id="stop608"
         offset="0"
         style="stop-opacity:1;stop-color:#e6e7e8" /><stop
         id="stop610"
         offset="1"
         style="stop-opacity:1;stop-color:#d1d3d4" /></linearGradient><clipPath
       id="clipPath618"
       clipPathUnits="userSpaceOnUse"><path
         id="path620"
         d="m 160,48 0,-8 2,0 c 1.104,0 2,0.895 2,2 l 0,0 0,6 -4,0 z" /></clipPath><linearGradient
       id="linearGradient626"
       spreadMethod="pad"
       gradientTransform="matrix(5.4142132,-5.4142132,-5.4142132,-5.4142132,159,47)"
       gradientUnits="userSpaceOnUse"
       y2="0"
       x2="1"
       y1="0"
       x1="0"><stop
         id="stop628"
         offset="0"
         style="stop-opacity:1;stop-color:#e6e7e8" /><stop
         id="stop630"
         offset="1"
         style="stop-opacity:1;stop-color:#d1d3d4" /></linearGradient><clipPath
       id="clipPath638"
       clipPathUnits="userSpaceOnUse"><path
         id="path640"
         d="m 192.499,47.86 4,0 0,8 -4,0 0,-8 z" /></clipPath><linearGradient
       id="linearGradient646"
       spreadMethod="pad"
       gradientTransform="matrix(5.9999995,-5.9999995,-5.9999995,-5.9999995,191.49907,54.860001)"
       gradientUnits="userSpaceOnUse"
       y2="0"
       x2="1"
       y1="0"
       x1="0"><stop
         id="stop648"
         offset="0"
         style="stop-opacity:1;stop-color:#e6e7e8" /><stop
         id="stop650"
         offset="1"
         style="stop-opacity:1;stop-color:#d1d3d4" /></linearGradient><clipPath
       id="clipPath658"
       clipPathUnits="userSpaceOnUse"><path
         id="path660"
         d="m 196,56 0,-8 2,0 c 1.104,0 2,0.895 2,2 l 0,0 0,6 -4,0 z" /></clipPath><linearGradient
       id="linearGradient666"
       spreadMethod="pad"
       gradientTransform="matrix(5.4142132,-5.4142132,-5.4142132,-5.4142132,195,55)"
       gradientUnits="userSpaceOnUse"
       y2="0"
       x2="1"
       y1="0"
       x1="0"><stop
         id="stop668"
         offset="0"
         style="stop-opacity:1;stop-color:#e6e7e8" /><stop
         id="stop670"
         offset="1"
         style="stop-opacity:1;stop-color:#d1d3d4" /></linearGradient><clipPath
       id="clipPath678"
       clipPathUnits="userSpaceOnUse"><path
         id="path680"
         d="m 192,48 0,-8 2,0 c 1.105,0 2,0.895 2,2 l 0,0 0,6 -4,0 z" /></clipPath><linearGradient
       id="linearGradient686"
       spreadMethod="pad"
       gradientTransform="matrix(5.4142132,-5.4142132,-5.4142132,-5.4142132,191,47)"
       gradientUnits="userSpaceOnUse"
       y2="0"
       x2="1"
       y1="0"
       x1="0"><stop
         id="stop688"
         offset="0"
         style="stop-opacity:1;stop-color:#e6e7e8" /><stop
         id="stop690"
         offset="1"
         style="stop-opacity:1;stop-color:#d1d3d4" /></linearGradient><clipPath
       id="clipPath698"
       clipPathUnits="userSpaceOnUse"><path
         id="path700"
         d="M 21.911,28 C 20.856,28 20,27.247 20,26.317 l 0,0 0,-4.016 c 0,-0.93 0.856,-1.683 1.911,-1.683 l 0,0 51.11,0 c 1.054,0 1.91,-0.753 1.91,-1.683 l 0,0 0,-5.251 c 0,-0.93 0.855,-1.684 1.911,-1.684 l 0,0 5.256,0 c 1.056,0 1.911,0.754 1.911,1.684 l 0,0 0,5.251 c 0,0.93 0.855,1.683 1.91,1.683 l 0,0 19.688,0 c 1.055,0 1.911,-0.753 1.911,-1.683 l 0,0 0,-5.109 c 0,-0.93 0.855,-1.683 1.91,-1.683 l 0,0 37.765,0 c 1.055,0 1.911,0.753 1.911,1.683 l 0,0 0,5.109 c 0,0.93 0.855,1.683 1.91,1.683 l 0,0 18.787,0 c 1.055,0 1.911,-0.753 1.911,-1.683 l 0,0 0,-5.251 c 0,-0.93 0.855,-1.684 1.911,-1.684 l 0,0 5.256,0 c 1.054,0 1.91,0.754 1.91,1.684 l 0,0 0,5.251 c 0,0.93 0.855,1.683 1.911,1.683 l 0,0 51.389,0 c 1.056,0 1.911,0.753 1.911,1.683 l 0,0 0,4.016 c 0,0.93 -0.855,1.683 -1.911,1.683 l 0,0 -212.178,0 z" /></clipPath><linearGradient
       id="linearGradient706"
       spreadMethod="pad"
       gradientTransform="matrix(110.64338,-110.64338,-110.64338,-110.64338,72.678307,79.630798)"
       gradientUnits="userSpaceOnUse"
       y2="0"
       x2="1"
       y1="0"
       x1="0"><stop
         id="stop708"
         offset="0"
         style="stop-opacity:1;stop-color:#e6e7e8" /><stop
         id="stop710"
         offset="1"
         style="stop-opacity:1;stop-color:#d1d3d4" /></linearGradient><clipPath
       id="clipPath718"
       clipPathUnits="userSpaceOnUse"><path
         id="path720"
         d="m 219.788,132 -7.731,0 -0.057,0 0,-42 0.057,0 7.731,0 0.45,0 0,-39.385 c 0,-1.444 1.731,-2.615 3.866,-2.615 l 0,0 0.03,0 c 2.146,0 3.88,1.181 3.866,2.633 l 0,0 -0.455,45.469 c -0.014,1.438 -1.74,2.598 -3.865,2.598 l 0,0 -3.892,0 0,24.6 3.866,0 c 2.134,0 3.865,1.171 3.865,2.615 l 0,0 0,3.47 c 0,1.444 -1.731,2.615 -3.865,2.615 l 0,0 -3.866,0 z" /></clipPath><linearGradient
       id="linearGradient726"
       spreadMethod="pad"
       gradientTransform="matrix(49.093372,-49.093372,-49.093372,-49.093372,196.93929,116.93929)"
       gradientUnits="userSpaceOnUse"
       y2="0"
       x2="1"
       y1="0"
       x1="0"><stop
         id="stop728"
         offset="0"
         style="stop-opacity:1;stop-color:#e6e7e8" /><stop
         id="stop730"
         offset="1"
         style="stop-opacity:1;stop-color:#d1d3d4" /></linearGradient><clipPath
       id="clipPath738"
       clipPathUnits="userSpaceOnUse"><path
         id="path740"
         d="m 43.943,132 -7.731,0 -3.865,0 c -2.136,0 -3.866,-1.171 -3.866,-2.615 l 0,0 0,-3.47 c 0,-1.444 1.73,-2.615 3.866,-2.615 l 0,0 3.865,0 0,-24.6 -3.891,0 c -2.125,0 -3.851,-1.16 -3.866,-2.598 l 0,0 L 28,50.633 C 27.986,49.181 29.721,48 31.865,48 l 0,0 0.031,0 c 2.135,0 3.866,1.171 3.866,2.615 l 0,0 0,39.385 0.45,0 7.731,0 0.057,0 0,42 -0.057,0 z" /></clipPath><linearGradient
       id="linearGradient746"
       spreadMethod="pad"
       gradientTransform="matrix(43.827179,-43.827179,-43.827179,-43.827179,12.600441,114.30618)"
       gradientUnits="userSpaceOnUse"
       y2="0"
       x2="1"
       y1="0"
       x1="0"><stop
         id="stop748"
         offset="0"
         style="stop-opacity:1;stop-color:#e6e7e8" /><stop
         id="stop750"
         offset="1"
         style="stop-opacity:1;stop-color:#d1d3d4" /></linearGradient><clipPath
       id="clipPath758"
       clipPathUnits="userSpaceOnUse"><path
         id="path760"
         d="m 48,12 16,0 0,8 -16,0 0,-8 z" /></clipPath><linearGradient
       id="linearGradient766"
       spreadMethod="pad"
       gradientTransform="matrix(11.999999,-11.999999,-11.999999,-11.999999,50,22)"
       gradientUnits="userSpaceOnUse"
       y2="0"
       x2="1"
       y1="0"
       x1="0"><stop
         id="stop768"
         offset="0"
         style="stop-opacity:1;stop-color:#e6e7e8" /><stop
         id="stop770"
         offset="1"
         style="stop-opacity:1;stop-color:#d1d3d4" /></linearGradient><clipPath
       id="clipPath778"
       clipPathUnits="userSpaceOnUse"><path
         id="path780"
         d="m 192.5,12 15,0 0,8 -15,0 0,-8 z" /></clipPath><linearGradient
       id="linearGradient786"
       spreadMethod="pad"
       gradientTransform="matrix(11.5,-11.5,-11.5,-11.5,194.25,21.75)"
       gradientUnits="userSpaceOnUse"
       y2="0"
       x2="1"
       y1="0"
       x1="0"><stop
         id="stop788"
         offset="0"
         style="stop-opacity:1;stop-color:#e6e7e8" /><stop
         id="stop790"
         offset="1"
         style="stop-opacity:1;stop-color:#d1d3d4" /></linearGradient><clipPath
       id="clipPath798"
       clipPathUnits="userSpaceOnUse"><path
         id="path800"
         d="M 0,256 256,256 256,0 0,0 0,256 Z" /></clipPath></defs><g
     transform="matrix(1.25,0,0,-1.25,0,320)"
     id="g10"><g
       id="g12"><g
         clip-path="url(#clipPath16)"
         id="g14"><g
           id="g20"><g
             id="g22"><path
               id="path30"
               style="fill:url(#linearGradient24);stroke:none"
               d="M 220.164,244 35.94,244 20,217.78 l 0,-8.127 216,0 0,8.127 -15.836,26.22 z" /></g></g></g></g><g
       id="g32"><g
         clip-path="url(#clipPath36)"
         id="g34"><g
           id="g40"><g
             id="g42"><path
               id="path50"
               style="fill:url(#linearGradient44);stroke:none"
               d="m 236,12 -216,0 0,204 216,0 0,-204 z" /></g></g></g></g><g
       id="g52"><g
         clip-path="url(#clipPath56)"
         id="g54"><g
           id="g60"><g
             id="g62"><path
               id="path70"
               style="fill:url(#linearGradient64);stroke:none"
               d="m 211.455,40 -168,0 0,8 168,0 0,-8 z" /></g></g></g></g><g
       id="g72"><g
         clip-path="url(#clipPath76)"
         id="g74"><g
           id="g80"><g
             id="g82"><path
               id="path90"
               style="fill:url(#linearGradient84);stroke:none"
               d="m 236,32 -216,0 0,8 216,0 0,-8 z" /></g></g></g></g><g
       id="g92"><g
         clip-path="url(#clipPath96)"
         id="g94"><g
           id="g100"><g
             id="g102"><path
               id="path110"
               style="fill:url(#linearGradient104);stroke:none"
               d="m 236,48 -216,0 0,8 216,0 0,-8 z" /></g></g></g></g><path
       id="path112"
       style="fill:#999999;fill-opacity:1;fill-rule:nonzero;stroke:none"
       d="m 206.968,63.68 -159.16,0 0,129.26 159.16,0 0,-129.26 z" /><g
       id="g114"><g
         clip-path="url(#clipPath118)"
         id="g116"><g
           id="g122"><g
             id="g124"><path
               id="path132"
               style="fill:url(#linearGradient126);stroke:none"
               d="M 38.477,208 C 37.109,208 36,206.891 36,205.523 l 0,0 0,-5.523 29.523,0 c 1.368,0 2.477,1.109 2.477,2.477 l 0,0 0,3.046 C 68,206.891 66.891,208 65.523,208 l 0,0 -27.046,0 z" /></g></g></g></g><g
       id="g134"><g
         clip-path="url(#clipPath138)"
         id="g136"><g
           id="g142"><g
             id="g144"><path
               id="path152"
               style="fill:url(#linearGradient146);stroke:none"
               d="M 78.477,208 C 77.109,208 76,206.891 76,205.523 l 0,0 0,-3.046 C 76,201.109 77.109,200 78.477,200 l 0,0 19.046,0 c 1.368,0 2.477,1.109 2.477,2.477 l 0,0 0,3.046 c 0,1.368 -1.109,2.477 -2.477,2.477 l 0,0 -19.046,0 z" /></g></g></g></g><g
       id="g154"><g
         clip-path="url(#clipPath158)"
         id="g156"><g
           id="g162"><g
             id="g164"><path
               id="path172"
               style="fill:url(#linearGradient166);stroke:none"
               d="M 158.477,208 C 157.109,208 156,206.891 156,205.523 l 0,0 0,-3.046 c 0,-1.368 1.109,-2.477 2.477,-2.477 l 0,0 19.046,0 c 1.368,0 2.477,1.109 2.477,2.477 l 0,0 0,3.046 c 0,1.368 -1.109,2.477 -2.477,2.477 l 0,0 -19.046,0 z" /></g></g></g></g><g
       id="g174"><g
         clip-path="url(#clipPath178)"
         id="g176"><g
           id="g182"><g
             id="g184"><path
               id="path192"
               style="fill:url(#linearGradient186);stroke:none"
               d="M 110.477,208 C 109.109,208 108,206.891 108,205.523 l 0,0 0,-3.046 c 0,-1.368 1.109,-2.477 2.477,-2.477 l 0,0 35.046,0 c 1.368,0 2.477,1.109 2.477,2.477 l 0,0 0,3.046 c 0,1.368 -1.109,2.477 -2.477,2.477 l 0,0 -35.046,0 z" /></g></g></g></g><g
       id="g194"><g
         clip-path="url(#clipPath198)"
         id="g196"><g
           id="g202"><g
             id="g204"><path
               id="path212"
               style="fill:url(#linearGradient206);stroke:none"
               d="M 190.477,208 C 189.109,208 188,206.891 188,205.523 l 0,0 0,-3.046 c 0,-1.368 1.109,-2.477 2.477,-2.477 l 0,0 29.523,0 0,5.523 c 0,1.368 -1.109,2.477 -2.477,2.477 l 0,0 -27.046,0 z" /></g></g></g></g><g
       id="g214"><g
         clip-path="url(#clipPath218)"
         id="g216"><g
           id="g222"><g
             id="g224"><path
               id="path232"
               style="fill:url(#linearGradient226);stroke:none"
               d="m 118,56 c -1.104,0 -2,-0.896 -2,-2 l 0,0 0,-6 24,0 0,6 c 0,1.104 -0.895,2 -2,2 l 0,0 -20,0 z" /></g></g></g></g><g
       id="g234"><g
         clip-path="url(#clipPath238)"
         id="g236"><g
           id="g242"><g
             id="g244"><path
               id="path252"
               style="fill:url(#linearGradient246);stroke:none"
               d="m 116,40 24,0 0,8 -24,0 0,-8 z" /></g></g></g></g><g
       id="g254"><g
         clip-path="url(#clipPath258)"
         id="g256"><g
           id="g262"><g
             id="g264"><path
               id="path272"
               style="fill:url(#linearGradient266);stroke:none"
               d="m 116,40 0,-6 c 0,-1.105 0.896,-2 2,-2 l 0,0 20,0 c 1.105,0 2,0.895 2,2 l 0,0 0,6 -24,0 z" /></g></g></g></g><g
       id="g274"><g
         clip-path="url(#clipPath278)"
         id="g276"><g
           id="g282"><g
             id="g284"><path
               id="path292"
               style="fill:url(#linearGradient286);stroke:none"
               d="m 122,48 12,0 0,8 -12,0 0,-8 z" /></g></g></g></g><g
       id="g294"><g
         clip-path="url(#clipPath298)"
         id="g296"><g
           id="g302"><g
             id="g304"><path
               id="path312"
               style="fill:url(#linearGradient306);stroke:none"
               d="m 122,40 12,0 0,8 -12,0 0,-8 z" /></g></g></g></g><g
       id="g314"><g
         clip-path="url(#clipPath318)"
         id="g316"><g
           id="g322"><g
             id="g324"><path
               id="path332"
               style="fill:url(#linearGradient326);stroke:none"
               d="m 122,32 12,0 0,7.999 -12,0 0,-7.999 z" /></g></g></g></g><g
       id="g334"><g
         clip-path="url(#clipPath338)"
         id="g336"><g
           id="g342"><g
             id="g344"><path
               id="path352"
               style="fill:url(#linearGradient346);stroke:none"
               d="m 36.175,200 0,-51.396 -4.263,0 c -2.161,0 -3.912,-1.247 -3.912,-2.786 l 0,0 0,-3.031 C 28,141.248 29.751,140 31.912,140 l 0,0 4.263,0 3.913,0 c 2.161,0 3.912,1.248 3.912,2.787 l 0,0 0,57.213 -7.825,0 z" /></g></g></g></g><g
       id="g354"><g
         clip-path="url(#clipPath358)"
         id="g356"><g
           id="g362"><g
             id="g364"><path
               id="path372"
               style="fill:url(#linearGradient366);stroke:none"
               d="m 212,200.63 0,-57.213 c 0,-1.539 1.752,-2.787 3.913,-2.787 l 0,0 3.912,0 4.262,0 c 2.161,0 3.913,1.248 3.913,2.787 l 0,0 0,3.031 c 0,1.539 -1.752,2.786 -3.913,2.786 l 0,0 -4.262,0 0,51.396 -7.825,0 z" /></g></g></g></g><g
       id="g374"><g
         clip-path="url(#clipPath378)"
         id="g376"><g
           id="g382"><g
             id="g384"><path
               id="path392"
               style="fill:url(#linearGradient386);stroke:none"
               d="m 64,56 0,-16 2,0 c 1.105,0 2,0.895 2,2 l 0,0 0,14 -4,0 z" /></g></g></g></g><g
       id="g394"><g
         clip-path="url(#clipPath398)"
         id="g396"><g
           id="g402"><g
             id="g404"><path
               id="path412"
               style="fill:url(#linearGradient406);stroke:none"
               d="m 96,56 0,-16 2,0 c 1.104,0 2,0.895 2,2 l 0,0 0,14 -4,0 z" /></g></g></g></g><g
       id="g414"><g
         clip-path="url(#clipPath418)"
         id="g416"><g
           id="g422"><g
             id="g424"><path
               id="path432"
               style="fill:url(#linearGradient426);stroke:none"
               d="m 156,56 0,-14 c 0,-1.105 0.895,-2 2,-2 l 0,0 2,0 0,16 -4,0 z" /></g></g></g></g><g
       id="g434"><g
         clip-path="url(#clipPath438)"
         id="g436"><g
           id="g442"><g
             id="g444"><path
               id="path452"
               style="fill:url(#linearGradient446);stroke:none"
               d="m 188,56 0,-14 c 0,-1.105 0.896,-2 2,-2 l 0,0 2,0 0,16 -4,0 z" /></g></g></g></g><g
       id="g454"><g
         clip-path="url(#clipPath458)"
         id="g456"><g
           id="g462"><g
             id="g464"><path
               id="path472"
               style="fill:url(#linearGradient466);stroke:none"
               d="m 60,48 4,0 0,8 -4,0 0,-8 z" /></g></g></g></g><g
       id="g474"><g
         clip-path="url(#clipPath478)"
         id="g476"><g
           id="g482"><g
             id="g484"><path
               id="path492"
               style="fill:url(#linearGradient486);stroke:none"
               d="m 56,55.86 0,-6 c 0,-1.104 0.895,-2 2,-2 l 0,0 2,0 0,8 -4,0 z" /></g></g></g></g><g
       id="g494"><g
         clip-path="url(#clipPath498)"
         id="g496"><g
           id="g502"><g
             id="g504"><path
               id="path512"
               style="fill:url(#linearGradient506);stroke:none"
               d="m 60,48 0,-6 c 0,-1.105 0.896,-2 2,-2 l 0,0 2,0 0,8 -4,0 z" /></g></g></g></g><g
       id="g514"><g
         clip-path="url(#clipPath518)"
         id="g516"><g
           id="g522"><g
             id="g524"><path
               id="path532"
               style="fill:url(#linearGradient526);stroke:none"
               d="m 92,48 4.001,0 0,8 -4.001,0 0,-8 z" /></g></g></g></g><g
       id="g534"><g
         clip-path="url(#clipPath538)"
         id="g536"><g
           id="g542"><g
             id="g544"><path
               id="path552"
               style="fill:url(#linearGradient546);stroke:none"
               d="m 88,56 0,-6 c 0,-1.105 0.896,-2 2,-2 l 0,0 2,0 0,8 -4,0 z" /></g></g></g></g><g
       id="g554"><g
         clip-path="url(#clipPath558)"
         id="g556"><g
           id="g562"><g
             id="g564"><path
               id="path572"
               style="fill:url(#linearGradient566);stroke:none"
               d="m 92,48 0,-6 c 0,-1.105 0.895,-2 2,-2 l 0,0 2,0 0,8 -4,0 z" /></g></g></g></g><g
       id="g574"><g
         clip-path="url(#clipPath578)"
         id="g576"><g
           id="g582"><g
             id="g584"><path
               id="path592"
               style="fill:url(#linearGradient586);stroke:none"
               d="m 160,47.86 4,0 0,8 -4,0 0,-8 z" /></g></g></g></g><g
       id="g594"><g
         clip-path="url(#clipPath598)"
         id="g596"><g
           id="g602"><g
             id="g604"><path
               id="path612"
               style="fill:url(#linearGradient606);stroke:none"
               d="m 164,56 0,-8 2,0 c 1.105,0 2,0.895 2,2 l 0,0 0,6 -4,0 z" /></g></g></g></g><g
       id="g614"><g
         clip-path="url(#clipPath618)"
         id="g616"><g
           id="g622"><g
             id="g624"><path
               id="path632"
               style="fill:url(#linearGradient626);stroke:none"
               d="m 160,48 0,-8 2,0 c 1.104,0 2,0.895 2,2 l 0,0 0,6 -4,0 z" /></g></g></g></g><g
       id="g634"><g
         clip-path="url(#clipPath638)"
         id="g636"><g
           id="g642"><g
             id="g644"><path
               id="path652"
               style="fill:url(#linearGradient646);stroke:none"
               d="m 192.499,47.86 4,0 0,8 -4,0 0,-8 z" /></g></g></g></g><g
       id="g654"><g
         clip-path="url(#clipPath658)"
         id="g656"><g
           id="g662"><g
             id="g664"><path
               id="path672"
               style="fill:url(#linearGradient666);stroke:none"
               d="m 196,56 0,-8 2,0 c 1.104,0 2,0.895 2,2 l 0,0 0,6 -4,0 z" /></g></g></g></g><g
       id="g674"><g
         clip-path="url(#clipPath678)"
         id="g676"><g
           id="g682"><g
             id="g684"><path
               id="path692"
               style="fill:url(#linearGradient686);stroke:none"
               d="m 192,48 0,-8 2,0 c 1.105,0 2,0.895 2,2 l 0,0 0,6 -4,0 z" /></g></g></g></g><g
       id="g694"><g
         clip-path="url(#clipPath698)"
         id="g696"><g
           id="g702"><g
             id="g704"><path
               id="path712"
               style="fill:url(#linearGradient706);stroke:none"
               d="M 21.911,28 C 20.856,28 20,27.247 20,26.317 l 0,0 0,-4.016 c 0,-0.93 0.856,-1.683 1.911,-1.683 l 0,0 51.11,0 c 1.054,0 1.91,-0.753 1.91,-1.683 l 0,0 0,-5.251 c 0,-0.93 0.855,-1.684 1.911,-1.684 l 0,0 5.256,0 c 1.056,0 1.911,0.754 1.911,1.684 l 0,0 0,5.251 c 0,0.93 0.855,1.683 1.91,1.683 l 0,0 19.688,0 c 1.055,0 1.911,-0.753 1.911,-1.683 l 0,0 0,-5.109 c 0,-0.93 0.855,-1.683 1.91,-1.683 l 0,0 37.765,0 c 1.055,0 1.911,0.753 1.911,1.683 l 0,0 0,5.109 c 0,0.93 0.855,1.683 1.91,1.683 l 0,0 18.787,0 c 1.055,0 1.911,-0.753 1.911,-1.683 l 0,0 0,-5.251 c 0,-0.93 0.855,-1.684 1.911,-1.684 l 0,0 5.256,0 c 1.054,0 1.91,0.754 1.91,1.684 l 0,0 0,5.251 c 0,0.93 0.855,1.683 1.911,1.683 l 0,0 51.389,0 c 1.056,0 1.911,0.753 1.911,1.683 l 0,0 0,4.016 c 0,0.93 -0.855,1.683 -1.911,1.683 l 0,0 -212.178,0 z" /></g></g></g></g><g
       id="g714"><g
         clip-path="url(#clipPath718)"
         id="g716"><g
           id="g722"><g
             id="g724"><path
               id="path732"
               style="fill:url(#linearGradient726);stroke:none"
               d="m 219.788,132 -7.731,0 -0.057,0 0,-42 0.057,0 7.731,0 0.45,0 0,-39.385 c 0,-1.444 1.731,-2.615 3.866,-2.615 l 0,0 0.03,0 c 2.146,0 3.88,1.181 3.866,2.633 l 0,0 -0.455,45.469 c -0.014,1.438 -1.74,2.598 -3.865,2.598 l 0,0 -3.892,0 0,24.6 3.866,0 c 2.134,0 3.865,1.171 3.865,2.615 l 0,0 0,3.47 c 0,1.444 -1.731,2.615 -3.865,2.615 l 0,0 -3.866,0 z" /></g></g></g></g><g
       id="g734"><g
         clip-path="url(#clipPath738)"
         id="g736"><g
           id="g742"><g
             id="g744"><path
               id="path752"
               style="fill:url(#linearGradient746);stroke:none"
               d="m 43.943,132 -7.731,0 -3.865,0 c -2.136,0 -3.866,-1.171 -3.866,-2.615 l 0,0 0,-3.47 c 0,-1.444 1.73,-2.615 3.866,-2.615 l 0,0 3.865,0 0,-24.6 -3.891,0 c -2.125,0 -3.851,-1.16 -3.866,-2.598 l 0,0 L 28,50.633 C 27.986,49.181 29.721,48 31.865,48 l 0,0 0.031,0 c 2.135,0 3.866,1.171 3.866,2.615 l 0,0 0,39.385 0.45,0 7.731,0 0.057,0 0,42 -0.057,0 z" /></g></g></g></g><g
       id="g754"><g
         clip-path="url(#clipPath758)"
         id="g756"><g
           id="g762"><g
             id="g764"><path
               id="path772"
               style="fill:url(#linearGradient766);stroke:none"
               d="m 48,12 16,0 0,8 -16,0 0,-8 z" /></g></g></g></g><g
       id="g774"><g
         clip-path="url(#clipPath778)"
         id="g776"><g
           id="g782"><g
             id="g784"><path
               id="path792"
               style="fill:url(#linearGradient786);stroke:none"
               d="m 192.5,12 15,0 0,8 -15,0 0,-8 z" /></g></g></g></g><g
       id="g794"><g
         clip-path="url(#clipPath798)"
         id="g796"><g
           transform="translate(104.8225,160.651)"
           id="g802"><path
             id="path804"
             style="fill:#ffffff;fill-opacity:1;fill-rule:nonzero;stroke:none"
             d="m 0,0 -0.076,-0.274 c -0.041,-0.151 -0.076,-6.848 -0.077,-14.882 l -0.002,-14.606 0.596,-0.492 c 0.646,-0.533 6.847,-5.363 6.898,-5.373 0.017,-0.004 0.031,8.011 0.031,17.81 L 7.37,0 3.685,0 0,0 Z m 32.327,0.248 0,-17.834 c 0,-14.247 0.032,-17.81 0.157,-17.718 0.086,0.064 1.779,1.371 3.763,2.905 l 3.606,2.789 -0.032,14.896 -0.032,14.897 -3.731,0.033 -3.731,0.032 z m -64.336,0 0,-17.819 c 0,-9.8 0.031,-17.818 0.069,-17.818 0.038,0 1.604,1.242 3.48,2.761 1.876,1.519 3.482,2.847 3.568,2.953 0.125,0.151 0.151,3.279 0.126,15.025 l -0.032,14.833 -3.606,0.033 -3.605,0.032 z m 24.949,10.735 10.956,0 10.957,0 1.837,-1.556 1.836,-1.556 0,-23.003 0,-23.003 -7.356,-5.857 c -4.046,-3.222 -7.389,-5.869 -7.428,-5.883 -0.04,-0.014 -1.292,0.919 -2.784,2.074 l 0,0 c -1.492,1.155 -4.92,3.803 -7.618,5.883 l -4.906,3.783 -10e-4,23.069 0,23.068 2.254,1.491 2.253,1.49 z m 66.601,0.244 c 4.139,0 7.525,-0.021 7.525,-0.046 0,-0.026 0.539,-1.962 1.199,-4.302 0.659,-2.34 1.517,-5.394 1.907,-6.787 0.39,-1.393 0.74,-2.532 0.777,-2.532 0.037,10e-4 0.386,1.058 0.775,2.35 0.389,1.291 1.316,4.366 2.06,6.832 l 1.353,4.485 8.02,0 8.02,0 -1.583,-1.231 -1.584,-1.233 0,-35.852 c 0,-32.01 0.021,-35.96 0.196,-36.859 0.239,-1.223 0.832,-2.98 1.332,-3.945 0.203,-0.392 0.35,-0.733 0.325,-0.757 -0.024,-0.024 -0.493,0.302 -1.042,0.724 -1.135,0.871 -7.049,5.406 -10.751,8.244 l -2.478,1.9 0.753,0.713 0.754,0.714 0,16.544 c 0,9.099 -0.032,16.512 -0.072,16.474 -0.039,-0.039 -0.201,-0.611 -0.359,-1.272 -0.158,-0.66 -0.798,-3.26 -1.423,-5.777 -0.624,-2.517 -1.627,-6.58 -2.229,-9.03 -0.603,-2.45 -1.443,-5.855 -1.869,-7.566 l -0.775,-3.112 -0.281,1.159 c -0.154,0.638 -1.52,6.596 -3.035,13.241 -3.738,16.388 -3.639,15.963 -3.732,16.169 -0.046,0.101 -0.097,-6.397 -0.115,-14.44 l -0.032,-14.624 -0.469,0.364 c -1.1,0.852 -10.632,8.718 -10.663,8.8 -0.019,0.049 0.361,0.432 0.846,0.851 l 0.881,0.763 0,23.251 0,23.25 -0.878,1.212 c -0.482,0.666 -0.877,1.237 -0.877,1.269 0,0.031 3.386,0.056 7.524,0.056 z m -34.747,0 10.926,0 10.926,0 2.309,-1.531 2.309,-1.531 0,-11.984 c 0,-6.591 -0.038,-16.975 -0.083,-23.074 l -0.084,-11.09 -2.142,-1.657 c -6.022,-4.657 -13.008,-10.027 -13.045,-10.027 -0.024,0 -1.051,0.804 -2.283,1.786 -1.232,0.983 -4.511,3.594 -7.285,5.804 -2.775,2.209 -5.072,4.059 -5.105,4.111 -0.1,0.157 -0.239,44.183 -0.143,45.182 l 0.09,0.932 1.805,1.539 1.805,1.54 z m -69.617,0.122 12.848,0 12.847,0 2.558,-1.739 2.557,-1.739 0.063,-23.625 0.063,-23.624 0.915,-0.774 0.915,-0.774 -0.351,-0.272 c -1.945,-1.504 -31.287,-23.931 -31.543,-24.108 -0.33,-0.229 -0.32,-0.189 0.282,1.125 l 0.623,1.361 0,36.147 0,36.146 -0.888,0.938 -0.889,0.938 z" /></g></g></g></g></svg>