<?xml version="1.0" encoding="UTF-8" standalone="no"?>
<svg
   xmlns:dc="http://purl.org/dc/elements/1.1/"
   xmlns:cc="http://creativecommons.org/ns#"
   xmlns:rdf="http://www.w3.org/1999/02/22-rdf-syntax-ns#"
   xmlns:svg="http://www.w3.org/2000/svg"
   xmlns="http://www.w3.org/2000/svg"
   viewBox="0 0 320 320"
   height="320"
   width="320"
   xml:space="preserve"
   version="1.1"
   id="svg2"><metadata
     id="metadata8"><rdf:RDF><cc:Work
         rdf:about=""><dc:format>image/svg+xml</dc:format><dc:type
           rdf:resource="http://purl.org/dc/dcmitype/StillImage" /></cc:Work></rdf:RDF></metadata><defs
     id="defs6"><clipPath
       id="clipPath16"
       clipPathUnits="userSpaceOnUse"><path
         id="path18"
         d="M 0,256 256,256 256,0 0,0 0,256 Z" /></clipPath><clipPath
       id="clipPath24"
       clipPathUnits="userSpaceOnUse"><path
         id="path26"
         d="m 94.8573,161.143 66.2857,0 0,-66.2859 -66.2857,0 0,66.2859 z" /></clipPath><clipPath
       id="clipPath40"
       clipPathUnits="userSpaceOnUse"><path
         id="path42"
         d="M 12,128 C 12,63.935 63.935,12 128,12 l 0,0 c 64.065,0 116,51.935 116,116 l 0,0 c 0,64.065 -51.935,116 -116,116 l 0,0 C 63.935,244 12,192.065 12,128 m 87,0 c 0,16.016 12.984,29 29,29 l 0,0 c 16.016,0 29.001,-12.984 29.001,-29 l 0,0 c 0,-16.017 -12.985,-29 -29.001,-29 l 0,0 c -16.016,0 -29,12.983 -29,29" /></clipPath><linearGradient
       id="linearGradient48"
       spreadMethod="pad"
       gradientTransform="matrix(164.04877,-164.04877,-164.04877,-164.04877,45.975754,210.02438)"
       gradientUnits="userSpaceOnUse"
       y2="0"
       x2="1"
       y1="0"
       x1="0"><stop
         id="stop50"
         offset="0"
         style="stop-opacity:1;stop-color:#e6e7e8" /><stop
         id="stop52"
         offset="1"
         style="stop-opacity:1;stop-color:#d1d3d4" /></linearGradient><clipPath
       id="clipPath60"
       clipPathUnits="userSpaceOnUse"><path
         id="path62"
         d="M 70,128 C 70,95.968 95.968,70 128,70 l 0,0 c 32.033,0 58,25.968 58,58 l 0,0 c 0,32.033 -25.967,58 -58,58 l 0,0 C 95.968,186 70,160.033 70,128 m 30,0 c 0,15.464 12.536,28 28,28 l 0,0 c 15.464,0 28,-12.536 28,-28 l 0,0 c 0,-15.464 -12.536,-28 -28,-28 l 0,0 c -15.464,0 -28,12.536 -28,28" /></clipPath><linearGradient
       id="linearGradient68"
       spreadMethod="pad"
       gradientTransform="matrix(82.024383,-82.024383,-82.024383,-82.024383,86.987946,169.01219)"
       gradientUnits="userSpaceOnUse"
       y2="0"
       x2="1"
       y1="0"
       x1="0"><stop
         id="stop70"
         offset="0"
         style="stop-opacity:1;stop-color:#e6e7e8" /><stop
         id="stop72"
         offset="1"
         style="stop-opacity:1;stop-color:#d1d3d4" /></linearGradient><clipPath
       id="clipPath80"
       clipPathUnits="userSpaceOnUse"><path
         id="path82"
         d="M 0,256 256,256 256,0 0,0 0,256 Z" /></clipPath><clipPath
       id="clipPath92"
       clipPathUnits="userSpaceOnUse"><path
         id="path94"
         d="M 24.154,236 C 21.86,236 20,234.209 20,232 l 0,0 0,-48 c 0,-2.209 1.86,-4 4.154,-4 l 0,0 207.692,0 c 2.294,0 4.154,1.791 4.154,4 l 0,0 0,48 c 0,2.209 -1.86,4 -4.154,4 l 0,0 -207.692,0 z" /></clipPath><linearGradient
       id="linearGradient100"
       spreadMethod="pad"
       gradientTransform="matrix(133.61282,-133.61282,-133.61282,-133.61282,61.193726,274.80643)"
       gradientUnits="userSpaceOnUse"
       y2="0"
       x2="1"
       y1="0"
       x1="0"><stop
         id="stop102"
         offset="0"
         style="stop-opacity:1;stop-color:#e6e7e8" /><stop
         id="stop104"
         offset="1"
         style="stop-opacity:1;stop-color:#d1d3d4" /></linearGradient><clipPath
       id="clipPath112"
       clipPathUnits="userSpaceOnUse"><path
         id="path114"
         d="M 0,256 256,256 256,0 0,0 0,256 Z" /></clipPath><clipPath
       id="clipPath124"
       clipPathUnits="userSpaceOnUse"><path
         id="path126"
         d="m 148,220 80,0 0,4 -80,0 0,-4 z" /></clipPath><linearGradient
       id="linearGradient132"
       spreadMethod="pad"
       gradientTransform="matrix(42,-42,-42,-42,167,243)"
       gradientUnits="userSpaceOnUse"
       y2="0"
       x2="1"
       y1="0"
       x1="0"><stop
         id="stop134"
         offset="0"
         style="stop-opacity:1;stop-color:#e6e7e8" /><stop
         id="stop136"
         offset="1"
         style="stop-opacity:1;stop-color:#d1d3d4" /></linearGradient><clipPath
       id="clipPath144"
       clipPathUnits="userSpaceOnUse"><path
         id="path146"
         d="m 148,212 80,0 0,4 -80,0 0,-4 z" /></clipPath><linearGradient
       id="linearGradient152"
       spreadMethod="pad"
       gradientTransform="matrix(42,-42,-42,-42,167,235)"
       gradientUnits="userSpaceOnUse"
       y2="0"
       x2="1"
       y1="0"
       x1="0"><stop
         id="stop154"
         offset="0"
         style="stop-opacity:1;stop-color:#e6e7e8" /><stop
         id="stop156"
         offset="1"
         style="stop-opacity:1;stop-color:#d1d3d4" /></linearGradient><clipPath
       id="clipPath164"
       clipPathUnits="userSpaceOnUse"><path
         id="path166"
         d="m 148,204 80,0 0,4 -80,0 0,-4 z" /></clipPath><linearGradient
       id="linearGradient172"
       spreadMethod="pad"
       gradientTransform="matrix(42,-42,-42,-42,167,227)"
       gradientUnits="userSpaceOnUse"
       y2="0"
       x2="1"
       y1="0"
       x1="0"><stop
         id="stop174"
         offset="0"
         style="stop-opacity:1;stop-color:#e6e7e8" /><stop
         id="stop176"
         offset="1"
         style="stop-opacity:1;stop-color:#d1d3d4" /></linearGradient><clipPath
       id="clipPath184"
       clipPathUnits="userSpaceOnUse"><path
         id="path186"
         d="m 148,196 80,0 0,4 -80,0 0,-4 z" /></clipPath><linearGradient
       id="linearGradient192"
       spreadMethod="pad"
       gradientTransform="matrix(42,-42,-42,-42,167,219)"
       gradientUnits="userSpaceOnUse"
       y2="0"
       x2="1"
       y1="0"
       x1="0"><stop
         id="stop194"
         offset="0"
         style="stop-opacity:1;stop-color:#e6e7e8" /><stop
         id="stop196"
         offset="1"
         style="stop-opacity:1;stop-color:#d1d3d4" /></linearGradient><clipPath
       id="clipPath204"
       clipPathUnits="userSpaceOnUse"><path
         id="path206"
         d="m 148,188 80,0 0,4 -80,0 0,-4 z" /></clipPath><linearGradient
       id="linearGradient212"
       spreadMethod="pad"
       gradientTransform="matrix(42,-42,-42,-42,167,211)"
       gradientUnits="userSpaceOnUse"
       y2="0"
       x2="1"
       y1="0"
       x1="0"><stop
         id="stop214"
         offset="0"
         style="stop-opacity:1;stop-color:#e6e7e8" /><stop
         id="stop216"
         offset="1"
         style="stop-opacity:1;stop-color:#d1d3d4" /></linearGradient></defs><g
     transform="matrix(1.25,0,0,-1.25,0,320)"
     id="g10"><g
       id="g12"><g
         clip-path="url(#clipPath16)"
         id="g14"><g
           id="g20"><g
             id="g22" /><g
             id="g28"><g
               style="opacity:0.5"
               id="g30"
               clip-path="url(#clipPath24)"><g
                 id="g32"
                 transform="translate(128.0001,152.8571)"><path
                   id="path34"
                   style="fill:#efefef;fill-opacity:1;fill-rule:nonzero;stroke:none"
                   d="m 0,0 c 13.728,0 24.857,-11.129 24.857,-24.857 0,-13.728 -11.129,-24.857 -24.857,-24.857 -13.728,0 -24.857,11.129 -24.857,24.857 C -24.857,-11.129 -13.728,0 0,0 m 0,8.286 c -18.304,0 -33.143,-14.839 -33.143,-33.143 C -33.143,-43.161 -18.304,-58 0,-58 18.304,-58 33.143,-43.161 33.143,-24.857 33.143,-6.553 18.304,8.286 0,8.286" /></g></g></g></g></g></g><g
       id="g36"><g
         clip-path="url(#clipPath40)"
         id="g38"><g
           id="g44"><g
             id="g46"><path
               id="path54"
               style="fill:url(#linearGradient48);stroke:none"
               d="M 12,128 C 12,63.935 63.935,12 128,12 l 0,0 c 64.065,0 116,51.935 116,116 l 0,0 c 0,64.065 -51.935,116 -116,116 l 0,0 C 63.935,244 12,192.065 12,128 m 87,0 c 0,16.016 12.984,29 29,29 l 0,0 c 16.016,0 29.001,-12.984 29.001,-29 l 0,0 c 0,-16.017 -12.985,-29 -29.001,-29 l 0,0 c -16.016,0 -29,12.983 -29,29" /></g></g></g></g><g
       id="g56"><g
         clip-path="url(#clipPath60)"
         id="g58"><g
           id="g64"><g
             id="g66"><path
               id="path74"
               style="fill:url(#linearGradient68);stroke:none"
               d="M 70,128 C 70,95.968 95.968,70 128,70 l 0,0 c 32.033,0 58,25.968 58,58 l 0,0 c 0,32.033 -25.967,58 -58,58 l 0,0 C 95.968,186 70,160.033 70,128 m 30,0 c 0,15.464 12.536,28 28,28 l 0,0 c 15.464,0 28,-12.536 28,-28 l 0,0 c 0,-15.464 -12.536,-28 -28,-28 l 0,0 c -15.464,0 -28,12.536 -28,28" /></g></g></g></g><g
       id="g76"><g
         clip-path="url(#clipPath80)"
         id="g78"><g
           transform="translate(128.0001,76)"
           id="g84"><path
             id="path86"
             style="fill:#999999;fill-opacity:1;fill-rule:nonzero;stroke:none"
             d="m 0,0 c 6.648,0 12,-5.352 12,-12 l 0,-32 c 0,-6.648 -5.352,-12 -12,-12 -6.648,0 -12,5.352 -12,12 l 0,32 c 0,6.648 5.352,12 12,12 m 42,43.5 c 3.314,0 6,-2.686 6,-6 0,-3.314 -2.686,-6 -6,-6 -3.314,0 -6,2.686 -6,6 0,3.314 2.686,6 6,6 M 0,84 C 17.673,84 32,69.673 32,52 32,34.327 17.673,20 0,20 c -17.673,0 -32,14.327 -32,32 0,17.673 14.327,32 32,32 m -111.857,84 c -2.295,0 -4.143,-1.848 -4.143,-4.143 l 0,-223.714 c 0,-2.295 1.848,-4.143 4.143,-4.143 L -32,-64 c 0,2.288 1.712,4.143 4,4.143 2.288,0 4,-1.855 4,-4.143 l 48,0 c 0,2.288 1.712,4.143 4,4.143 2.288,0 4,-1.855 4,-4.143 l 79.857,0 c 2.295,0 4.143,1.848 4.143,4.143 l 0,163.857 -4.143,0 0,8 4.143,0 0,51.857 c 0,2.295 -1.848,4.143 -4.143,4.143 l -223.714,0 z" /></g></g></g><g
       id="g88"><g
         clip-path="url(#clipPath92)"
         id="g90"><g
           id="g96"><g
             id="g98"><path
               id="path106"
               style="fill:url(#linearGradient100);stroke:none"
               d="M 24.154,236 C 21.86,236 20,234.209 20,232 l 0,0 0,-48 c 0,-2.209 1.86,-4 4.154,-4 l 0,0 207.692,0 c 2.294,0 4.154,1.791 4.154,4 l 0,0 0,48 c 0,2.209 -1.86,4 -4.154,4 l 0,0 -207.692,0 z" /></g></g></g></g><g
       id="g108"><g
         clip-path="url(#clipPath112)"
         id="g110"><g
           transform="translate(227,184)"
           id="g116"><path
             id="path118"
             style="fill:#ffffff;fill-opacity:1;fill-rule:nonzero;stroke:none"
             d="m 0,0 -78,0 c -0.55,0 -1,0.45 -1,1 l 0,46 c 0,0.55 0.45,1 1,1 l 78,0 c 0.55,0 1,-0.45 1,-1 L 1,1 C 1,0.45 0.55,0 0,0" /></g></g></g><g
       id="g120"><g
         clip-path="url(#clipPath124)"
         id="g122"><g
           id="g128"><g
             id="g130"><path
               id="path138"
               style="fill:url(#linearGradient132);stroke:none"
               d="m 148,220 80,0 0,4 -80,0 0,-4 z" /></g></g></g></g><g
       id="g140"><g
         clip-path="url(#clipPath144)"
         id="g142"><g
           id="g148"><g
             id="g150"><path
               id="path158"
               style="fill:url(#linearGradient152);stroke:none"
               d="m 148,212 80,0 0,4 -80,0 0,-4 z" /></g></g></g></g><g
       id="g160"><g
         clip-path="url(#clipPath164)"
         id="g162"><g
           id="g168"><g
             id="g170"><path
               id="path178"
               style="fill:url(#linearGradient172);stroke:none"
               d="m 148,204 80,0 0,4 -80,0 0,-4 z" /></g></g></g></g><g
       id="g180"><g
         clip-path="url(#clipPath184)"
         id="g182"><g
           id="g188"><g
             id="g190"><path
               id="path198"
               style="fill:url(#linearGradient192);stroke:none"
               d="m 148,196 80,0 0,4 -80,0 0,-4 z" /></g></g></g></g><g
       id="g200"><g
         clip-path="url(#clipPath204)"
         id="g202"><g
           id="g208"><g
             id="g210"><path
               id="path218"
               style="fill:url(#linearGradient212);stroke:none"
               d="m 148,188 80,0 0,4 -80,0 0,-4 z" /></g></g></g></g></g></svg>