<?xml version="1.0" encoding="UTF-8" standalone="no"?>
<svg
   xmlns:dc="http://purl.org/dc/elements/1.1/"
   xmlns:cc="http://creativecommons.org/ns#"
   xmlns:rdf="http://www.w3.org/1999/02/22-rdf-syntax-ns#"
   xmlns:svg="http://www.w3.org/2000/svg"
   xmlns="http://www.w3.org/2000/svg"
   viewBox="0 0 320 320"
   height="320"
   width="320"
   xml:space="preserve"
   version="1.1"
   id="svg2"><metadata
     id="metadata8"><rdf:RDF><cc:Work
         rdf:about=""><dc:format>image/svg+xml</dc:format><dc:type
           rdf:resource="http://purl.org/dc/dcmitype/StillImage" /></cc:Work></rdf:RDF></metadata><defs
     id="defs6"><clipPath
       id="clipPath18"
       clipPathUnits="userSpaceOnUse"><path
         id="path20"
         d="m 33.263,244 c -7.017,-48.363 -7.017,-103.636 0,-152 l 0,0 189.473,0 c 7.019,48.364 7.019,103.637 0,152 l 0,0 -189.473,0 z" /></clipPath><linearGradient
       id="linearGradient26"
       spreadMethod="pad"
       gradientTransform="matrix(170.73685,-170.73685,-170.73685,-170.73685,42.63158,253.36842)"
       gradientUnits="userSpaceOnUse"
       y2="0"
       x2="1"
       y1="0"
       x1="0"><stop
         id="stop28"
         offset="0"
         style="stop-opacity:1;stop-color:#e6e7e8" /><stop
         id="stop30"
         offset="1"
         style="stop-opacity:1;stop-color:#d1d3d4" /></linearGradient><clipPath
       id="clipPath38"
       clipPathUnits="userSpaceOnUse"><path
         id="path40"
         d="m 51,232 c -3.866,0 -7,-3.084 -7,-6.889 l 0,0 0,-110.222 C 44,111.084 47.134,108 51,108 l 0,0 154,0 c 3.866,0 7,3.084 7,6.889 l 0,0 0,110.222 c 0,3.805 -3.134,6.889 -7,6.889 l 0,0 -154,0 z" /></clipPath><linearGradient
       id="linearGradient46"
       spreadMethod="pad"
       gradientTransform="matrix(-141.93234,141.93234,141.93234,141.93234,198.96617,99.033821)"
       gradientUnits="userSpaceOnUse"
       y2="0"
       x2="1"
       y1="0"
       x1="0"><stop
         id="stop48"
         offset="0"
         style="stop-opacity:1;stop-color:#e6e7e8" /><stop
         id="stop50"
         offset="1"
         style="stop-opacity:1;stop-color:#d1d3d4" /></linearGradient><clipPath
       id="clipPath58"
       clipPathUnits="userSpaceOnUse"><path
         id="path60"
         d="M 0,256 256,256 256,0 0,0 0,256 Z" /></clipPath><clipPath
       id="clipPath70"
       clipPathUnits="userSpaceOnUse"><path
         id="path72"
         d="m 60.538,217.458 c -1.95,-0.266 -3.555,-1.512 -3.555,-3.39 l 0,0 0,-88.135 c 0,-1.879 1.605,-3.125 3.555,-3.391 l 0,0 C 72.983,120.848 96.982,120 120.982,120 l 0,0 c 24.001,0 48,0.848 60.444,2.542 l 0,0 c 1.951,0.266 3.556,1.512 3.556,3.391 l 0,0 0,88.135 c 0,1.878 -1.605,3.124 -3.556,3.39 l 0,0 C 168.982,219.153 144.983,220 120.982,220 l 0,0 c -24,0 -47.999,-0.847 -60.444,-2.542 m 0.54,-90.952 c -0.034,0.004 -0.066,0.01 -0.096,0.016 l 0,0 0,86.956 c 0.03,0.006 0.062,0.012 0.096,0.016 l 0,0 C 72.426,215.04 95.38,216 120.982,216 l 0,0 c 25.603,0 48.556,-0.96 59.905,-2.506 l 0,0 c 0.034,-0.004 0.066,-0.01 0.096,-0.016 l 0,0 0,-86.956 c -0.03,-0.006 -0.062,-0.012 -0.096,-0.016 l 0,0 C 169.538,124.961 146.585,124 120.982,124 l 0,0 c -25.602,0 -48.555,0.961 -59.904,2.506" /></clipPath><linearGradient
       id="linearGradient78"
       spreadMethod="pad"
       gradientTransform="matrix(109.32803,-109.32803,-109.32803,-109.32803,66.318436,224.66402)"
       gradientUnits="userSpaceOnUse"
       y2="0"
       x2="1"
       y1="0"
       x1="0"><stop
         id="stop80"
         offset="0"
         style="stop-opacity:1;stop-color:#e6e7e8" /><stop
         id="stop82"
         offset="1"
         style="stop-opacity:1;stop-color:#d1d3d4" /></linearGradient><clipPath
       id="clipPath90"
       clipPathUnits="userSpaceOnUse"><path
         id="path92"
         d="m 192.175,154.182 c 0,-3.314 2.687,-6.001 6,-6.001 l 0,0 c 3.314,0 6.001,2.687 6.001,6.001 l 0,0 c 0,3.313 -2.687,6 -6.001,6 l 0,0 c -3.313,0 -6,-2.687 -6,-6" /></clipPath><linearGradient
       id="linearGradient98"
       spreadMethod="pad"
       gradientTransform="matrix(8.4852791,-8.4852791,-8.4852791,-8.4852791,193.9328,158.42445)"
       gradientUnits="userSpaceOnUse"
       y2="0"
       x2="1"
       y1="0"
       x1="0"><stop
         id="stop100"
         offset="0"
         style="stop-opacity:1;stop-color:#e6e7e8" /><stop
         id="stop102"
         offset="1"
         style="stop-opacity:1;stop-color:#d1d3d4" /></linearGradient><clipPath
       id="clipPath110"
       clipPathUnits="userSpaceOnUse"><path
         id="path112"
         d="m 192.175,133.455 c 0,-3.314 2.687,-6.001 6,-6.001 l 0,0 c 3.314,0 6.001,2.687 6.001,6.001 l 0,0 c 0,3.313 -2.687,6 -6.001,6 l 0,0 c -3.313,0 -6,-2.687 -6,-6" /></clipPath><linearGradient
       id="linearGradient118"
       spreadMethod="pad"
       gradientTransform="matrix(8.4852791,-8.4852791,-8.4852791,-8.4852791,193.9328,137.69719)"
       gradientUnits="userSpaceOnUse"
       y2="0"
       x2="1"
       y1="0"
       x1="0"><stop
         id="stop120"
         offset="0"
         style="stop-opacity:1;stop-color:#e6e7e8" /><stop
         id="stop122"
         offset="1"
         style="stop-opacity:1;stop-color:#d1d3d4" /></linearGradient><clipPath
       id="clipPath130"
       clipPathUnits="userSpaceOnUse"><path
         id="path132"
         d="m 12,12 232,0 0,64 -232,0 0,-64 z" /></clipPath><linearGradient
       id="linearGradient138"
       spreadMethod="pad"
       gradientTransform="matrix(148,-148,-148,-148,54,118)"
       gradientUnits="userSpaceOnUse"
       y2="0"
       x2="1"
       y1="0"
       x1="0"><stop
         id="stop140"
         offset="0"
         style="stop-opacity:1;stop-color:#e6e7e8" /><stop
         id="stop142"
         offset="1"
         style="stop-opacity:1;stop-color:#d1d3d4" /></linearGradient><clipPath
       id="clipPath150"
       clipPathUnits="userSpaceOnUse"><path
         id="path152"
         d="m 156,19.99 80,0 0,48 -80,0 0,-48 z" /></clipPath><linearGradient
       id="linearGradient158"
       spreadMethod="pad"
       gradientTransform="matrix(-63.999996,63.999996,63.999996,63.999996,228,11.989603)"
       gradientUnits="userSpaceOnUse"
       y2="0"
       x2="1"
       y1="0"
       x1="0"><stop
         id="stop160"
         offset="0"
         style="stop-opacity:1;stop-color:#e6e7e8" /><stop
         id="stop162"
         offset="1"
         style="stop-opacity:1;stop-color:#d1d3d4" /></linearGradient><clipPath
       id="clipPath170"
       clipPathUnits="userSpaceOnUse"><path
         id="path172"
         d="M 0,256 256,256 256,0 0,0 0,256 Z" /></clipPath><clipPath
       id="clipPath198"
       clipPathUnits="userSpaceOnUse"><path
         id="path200"
         d="m 24,28.666 c 0,-4.411 3.588,-7.998 7.999,-7.998 l 0,0 c 4.411,0 8.001,3.587 8.001,7.998 l 0,0 c 0,4.412 -3.59,8.001 -8.001,8.001 l 0,0 C 27.588,36.667 24,33.078 24,28.666 m 2,0 c 0,3.31 2.691,6.001 5.999,6.001 l 0,0 c 3.31,0 6.001,-2.691 6.001,-6.001 l 0,0 c 0,-3.308 -2.691,-5.999 -6.001,-5.999 l 0,0 C 28.691,22.667 26,25.358 26,28.666" /></clipPath><linearGradient
       id="linearGradient206"
       spreadMethod="pad"
       gradientTransform="matrix(-11.308513,11.308513,11.308513,11.308513,37.653702,23.012356)"
       gradientUnits="userSpaceOnUse"
       y2="0"
       x2="1"
       y1="0"
       x1="0"><stop
         id="stop208"
         offset="0"
         style="stop-opacity:1;stop-color:#e6e7e8" /><stop
         id="stop210"
         offset="1"
         style="stop-opacity:1;stop-color:#d1d3d4" /></linearGradient><clipPath
       id="clipPath218"
       clipPathUnits="userSpaceOnUse"><path
         id="path220"
         d="m 24,52 15.999,0 0,16 L 24,68 24,52 Z" /></clipPath><linearGradient
       id="linearGradient226"
       spreadMethod="pad"
       gradientTransform="matrix(-15.999999,15.999999,15.999999,15.999999,40,52)"
       gradientUnits="userSpaceOnUse"
       y2="0"
       x2="1"
       y1="0"
       x1="0"><stop
         id="stop228"
         offset="0"
         style="stop-opacity:1;stop-color:#e6e7e8" /><stop
         id="stop230"
         offset="1"
         style="stop-opacity:1;stop-color:#d1d3d4" /></linearGradient><clipPath
       id="clipPath238"
       clipPathUnits="userSpaceOnUse"><path
         id="path240"
         d="M 0,256 256,256 256,0 0,0 0,256 Z" /></clipPath></defs><g
     transform="matrix(1.25,0,0,-1.25,0,320)"
     id="g10"><path
       id="path12"
       style="fill:#999999;fill-opacity:1;fill-rule:nonzero;stroke:none"
       d="m 188,76 -120,0 0,16 120,0 0,-16 z" /><g
       id="g14"><g
         clip-path="url(#clipPath18)"
         id="g16"><g
           id="g22"><g
             id="g24"><path
               id="path32"
               style="fill:url(#linearGradient26);stroke:none"
               d="m 33.263,244 c -7.017,-48.363 -7.017,-103.636 0,-152 l 0,0 189.473,0 c 7.019,48.364 7.019,103.637 0,152 l 0,0 -189.473,0 z" /></g></g></g></g><g
       id="g34"><g
         clip-path="url(#clipPath38)"
         id="g36"><g
           id="g42"><g
             id="g44"><path
               id="path52"
               style="fill:url(#linearGradient46);stroke:none"
               d="m 51,232 c -3.866,0 -7,-3.084 -7,-6.889 l 0,0 0,-110.222 C 44,111.084 47.134,108 51,108 l 0,0 154,0 c 3.866,0 7,3.084 7,6.889 l 0,0 0,110.222 c 0,3.805 -3.134,6.889 -7,6.889 l 0,0 -154,0 z" /></g></g></g></g><g
       id="g54"><g
         clip-path="url(#clipPath58)"
         id="g56"><g
           transform="translate(60.538,217.4576)"
           id="g62"><path
             id="path64"
             style="fill:#999999;fill-opacity:1;fill-rule:nonzero;stroke:none"
             d="m 0,0 c 24.889,3.39 96,3.39 120.889,0 1.95,-0.266 3.555,-1.512 3.555,-3.39 l 0,-88.135 c 0,-1.878 -1.605,-3.125 -3.555,-3.39 -24.889,-3.39 -96,-3.39 -120.889,0 -1.95,0.265 -3.556,1.512 -3.556,3.39 l 0,88.135 c 0,1.878 1.606,3.124 3.556,3.39" /></g></g></g><g
       id="g66"><g
         clip-path="url(#clipPath70)"
         id="g68"><g
           id="g74"><g
             id="g76"><path
               id="path84"
               style="fill:url(#linearGradient78);stroke:none"
               d="m 60.538,217.458 c -1.95,-0.266 -3.555,-1.512 -3.555,-3.39 l 0,0 0,-88.135 c 0,-1.879 1.605,-3.125 3.555,-3.391 l 0,0 C 72.983,120.848 96.982,120 120.982,120 l 0,0 c 24.001,0 48,0.848 60.444,2.542 l 0,0 c 1.951,0.266 3.556,1.512 3.556,3.391 l 0,0 0,88.135 c 0,1.878 -1.605,3.124 -3.556,3.39 l 0,0 C 168.982,219.153 144.983,220 120.982,220 l 0,0 c -24,0 -47.999,-0.847 -60.444,-2.542 m 0.54,-90.952 c -0.034,0.004 -0.066,0.01 -0.096,0.016 l 0,0 0,86.956 c 0.03,0.006 0.062,0.012 0.096,0.016 l 0,0 C 72.426,215.04 95.38,216 120.982,216 l 0,0 c 25.603,0 48.556,-0.96 59.905,-2.506 l 0,0 c 0.034,-0.004 0.066,-0.01 0.096,-0.016 l 0,0 0,-86.956 c -0.03,-0.006 -0.062,-0.012 -0.096,-0.016 l 0,0 C 169.538,124.961 146.585,124 120.982,124 l 0,0 c -25.602,0 -48.555,0.961 -59.904,2.506" /></g></g></g></g><g
       id="g86"><g
         clip-path="url(#clipPath90)"
         id="g88"><g
           id="g94"><g
             id="g96"><path
               id="path104"
               style="fill:url(#linearGradient98);stroke:none"
               d="m 192.175,154.182 c 0,-3.314 2.687,-6.001 6,-6.001 l 0,0 c 3.314,0 6.001,2.687 6.001,6.001 l 0,0 c 0,3.313 -2.687,6 -6.001,6 l 0,0 c -3.313,0 -6,-2.687 -6,-6" /></g></g></g></g><g
       id="g106"><g
         clip-path="url(#clipPath110)"
         id="g108"><g
           id="g114"><g
             id="g116"><path
               id="path124"
               style="fill:url(#linearGradient118);stroke:none"
               d="m 192.175,133.455 c 0,-3.314 2.687,-6.001 6,-6.001 l 0,0 c 3.314,0 6.001,2.687 6.001,6.001 l 0,0 c 0,3.313 -2.687,6 -6.001,6 l 0,0 c -3.313,0 -6,-2.687 -6,-6" /></g></g></g></g><g
       id="g126"><g
         clip-path="url(#clipPath130)"
         id="g128"><g
           id="g134"><g
             id="g136"><path
               id="path144"
               style="fill:url(#linearGradient138);stroke:none"
               d="m 12,12 232,0 0,64 -232,0 0,-64 z" /></g></g></g></g><g
       id="g146"><g
         clip-path="url(#clipPath150)"
         id="g148"><g
           id="g154"><g
             id="g156"><path
               id="path164"
               style="fill:url(#linearGradient158);stroke:none"
               d="m 156,19.99 80,0 0,48 -80,0 0,-48 z" /></g></g></g></g><g
       id="g166"><g
         clip-path="url(#clipPath170)"
         id="g168"><g
           transform="translate(216,55.9987)"
           id="g174"><path
             id="path176"
             style="fill:#999999;fill-opacity:1;fill-rule:nonzero;stroke:none"
             d="M 0,0 -40,0" /></g><path
           id="path178"
           style="fill:#999999;fill-opacity:1;fill-rule:nonzero;stroke:none"
           d="m 176.001,54 39.999,0 0,4 -39.999,0 0,-4 z" /><path
           id="path180"
           style="fill:#999999;fill-opacity:1;fill-rule:nonzero;stroke:none"
           d="m 192,52 8,0 0,8 -8,0 0,-8 z" /><path
           id="path182"
           style="fill:#999999;fill-opacity:1;fill-rule:nonzero;stroke:none"
           d="m 208,48 8,0 0,4 -8,0 0,-4 z" /><g
           transform="translate(232,31.9987)"
           id="g184"><path
             id="path186"
             style="fill:#999999;fill-opacity:1;fill-rule:nonzero;stroke:none"
             d="M 0,0 -72,0" /></g><path
           id="path188"
           style="fill:#999999;fill-opacity:1;fill-rule:nonzero;stroke:none"
           d="m 160.002,30 71.998,0 0,4 -71.998,0 0,-4 z" /><path
           id="path190"
           style="fill:#999999;fill-opacity:1;fill-rule:nonzero;stroke:none"
           d="m 192,28 8,0 0,8 -8,0 0,-8 z" /><path
           id="path192"
           style="fill:#999999;fill-opacity:1;fill-rule:nonzero;stroke:none"
           d="m 224,24 8,0 0,4 -8,0 0,-4 z" /></g></g><g
       id="g194"><g
         clip-path="url(#clipPath198)"
         id="g196"><g
           id="g202"><g
             id="g204"><path
               id="path212"
               style="fill:url(#linearGradient206);stroke:none"
               d="m 24,28.666 c 0,-4.411 3.588,-7.998 7.999,-7.998 l 0,0 c 4.411,0 8.001,3.587 8.001,7.998 l 0,0 c 0,4.412 -3.59,8.001 -8.001,8.001 l 0,0 C 27.588,36.667 24,33.078 24,28.666 m 2,0 c 0,3.31 2.691,6.001 5.999,6.001 l 0,0 c 3.31,0 6.001,-2.691 6.001,-6.001 l 0,0 c 0,-3.308 -2.691,-5.999 -6.001,-5.999 l 0,0 C 28.691,22.667 26,25.358 26,28.666" /></g></g></g></g><g
       id="g214"><g
         clip-path="url(#clipPath218)"
         id="g216"><g
           id="g222"><g
             id="g224"><path
               id="path232"
               style="fill:url(#linearGradient226);stroke:none"
               d="m 24,52 15.999,0 0,16 L 24,68 24,52 Z" /></g></g></g></g><g
       id="g234"><g
         clip-path="url(#clipPath238)"
         id="g236"><g
           transform="translate(71.9347,207.1985)"
           id="g242"><path
             id="path244"
             style="fill:#ffffff;fill-opacity:1;fill-rule:nonzero;stroke:none"
             d="m 0,0 -1.574,0 0,-0.799 -0.786,0 0,-4.799 0.786,0 0,-0.802 1.574,0 0,0.802 0.786,0 0,0.799 0.788,0 0,-1.601 -0.788,0 0,-0.799 -3.146,0 0,0.799 -0.789,0 0,0.802 -0.786,0 0,4.799 0.786,0 0,0.799 0.789,0 0,0.801 3.146,0 0,-0.801 0.788,0 0,-1.598 -0.788,0 0,0.799 L 0,-0.799 0,0 Z" /></g><path
           id="path246"
           style="fill:#ffffff;fill-opacity:1;fill-rule:nonzero;stroke:none"
           d="m 77.441,202.4 1.574,0 0,-1.6 -1.574,0 0,1.6 z m 0,4 1.574,0 0,-1.6 -1.574,0 0,1.6 z" /><g
           transform="translate(86.8851,200.799)"
           id="g248"><path
             id="path250"
             style="fill:#ffffff;fill-opacity:1;fill-rule:nonzero;stroke:none"
             d="m 0,0 -0.786,0 0,0.801 -0.788,0 0,0.799 -0.786,0 0,0.8 -0.786,0 0,0.801 -0.789,0 0,0.799 -0.786,0 0,2.4 0.786,0 0,-0.8 0.789,0 0,-0.799 0.786,0 0,-0.801 0.786,0 0,-0.799 0.788,0 0,-0.801 0.786,0 0,-0.8 0.788,0 0,-2.399 L 0,-0.799 0,0 Z" /></g></g></g></g></svg>