<?xml version="1.0" encoding="UTF-8" standalone="no"?>
<svg
   xmlns:dc="http://purl.org/dc/elements/1.1/"
   xmlns:cc="http://creativecommons.org/ns#"
   xmlns:rdf="http://www.w3.org/1999/02/22-rdf-syntax-ns#"
   xmlns:svg="http://www.w3.org/2000/svg"
   xmlns="http://www.w3.org/2000/svg"
   viewBox="0 0 320 320"
   height="320"
   width="320"
   xml:space="preserve"
   version="1.1"
   id="svg2"><metadata
     id="metadata8"><rdf:RDF><cc:Work
         rdf:about=""><dc:format>image/svg+xml</dc:format><dc:type
           rdf:resource="http://purl.org/dc/dcmitype/StillImage" /></cc:Work></rdf:RDF></metadata><defs
     id="defs6"><clipPath
       id="clipPath16"
       clipPathUnits="userSpaceOnUse"><path
         id="path18"
         d="m 56,244 c -2.209,0 -4,-1.791 -4,-4 l 0,0 0,-226 c 0,-1.105 0.896,-2 2,-2 l 0,0 148,0 c 1.105,0 2,0.895 2,2 l 0,0 0,226 c 0,2.209 -1.791,4 -4,4 l 0,0 -144,0 z" /></clipPath><linearGradient
       id="linearGradient24"
       spreadMethod="pad"
       gradientTransform="matrix(190.24265,-190.24265,-190.24265,-190.24265,32.878681,222.53554)"
       gradientUnits="userSpaceOnUse"
       y2="0"
       x2="1"
       y1="0"
       x1="0"><stop
         id="stop26"
         offset="0"
         style="stop-opacity:1;stop-color:#e6e7e8" /><stop
         id="stop28"
         offset="1"
         style="stop-opacity:1;stop-color:#d1d3d4" /></linearGradient><clipPath
       id="clipPath36"
       clipPathUnits="userSpaceOnUse"><path
         id="path38"
         d="m 60,20 136,0 0,216 -136,0 0,-216 z" /></clipPath><linearGradient
       id="linearGradient44"
       spreadMethod="pad"
       gradientTransform="matrix(-176,176,176,176,216,40)"
       gradientUnits="userSpaceOnUse"
       y2="0"
       x2="1"
       y1="0"
       x1="0"><stop
         id="stop46"
         offset="0"
         style="stop-opacity:1;stop-color:#e6e7e8" /><stop
         id="stop48"
         offset="1"
         style="stop-opacity:1;stop-color:#d1d3d4" /></linearGradient><clipPath
       id="clipPath56"
       clipPathUnits="userSpaceOnUse"><path
         id="path58"
         d="M 0,256 256,256 256,0 0,0 0,256 Z" /></clipPath><clipPath
       id="clipPath72"
       clipPathUnits="userSpaceOnUse"><path
         id="path74"
         d="m 64,196 128,0 0,8 -128,0 0,-8 z" /></clipPath><linearGradient
       id="linearGradient80"
       spreadMethod="pad"
       gradientTransform="matrix(-65.764,68.100609,68.100609,65.764,160.882,165.94969)"
       gradientUnits="userSpaceOnUse"
       y2="0"
       x2="1"
       y1="0"
       x1="0"><stop
         id="stop82"
         offset="0"
         style="stop-opacity:1;stop-color:#e6e7e8" /><stop
         id="stop84"
         offset="1"
         style="stop-opacity:1;stop-color:#d1d3d4" /></linearGradient><clipPath
       id="clipPath92"
       clipPathUnits="userSpaceOnUse"><path
         id="path94"
         d="m 64,188 128,0 0,8 -128,0 0,-8 z" /></clipPath><linearGradient
       id="linearGradient100"
       spreadMethod="pad"
       gradientTransform="matrix(68,-68,-68,-68,94,226)"
       gradientUnits="userSpaceOnUse"
       y2="0"
       x2="1"
       y1="0"
       x1="0"><stop
         id="stop102"
         offset="0"
         style="stop-opacity:1;stop-color:#e6e7e8" /><stop
         id="stop104"
         offset="1"
         style="stop-opacity:1;stop-color:#d1d3d4" /></linearGradient></defs><g
     transform="matrix(1.25,0,0,-1.25,0,320)"
     id="g10"><g
       id="g12"><g
         clip-path="url(#clipPath16)"
         id="g14"><g
           id="g20"><g
             id="g22"><path
               id="path30"
               style="fill:url(#linearGradient24);stroke:none"
               d="m 56,244 c -2.209,0 -4,-1.791 -4,-4 l 0,0 0,-226 c 0,-1.105 0.896,-2 2,-2 l 0,0 148,0 c 1.105,0 2,0.895 2,2 l 0,0 0,226 c 0,2.209 -1.791,4 -4,4 l 0,0 -144,0 z" /></g></g></g></g><g
       id="g32"><g
         clip-path="url(#clipPath36)"
         id="g34"><g
           id="g40"><g
             id="g42"><path
               id="path50"
               style="fill:url(#linearGradient44);stroke:none"
               d="m 60,20 136,0 0,216 -136,0 0,-216 z" /></g></g></g></g><g
       id="g52"><g
         clip-path="url(#clipPath56)"
         id="g54"><g
           transform="translate(188,24)"
           id="g60"><path
             id="path62"
             style="fill:#ffffff;fill-opacity:1;fill-rule:nonzero;stroke:none"
             d="m 0,0 -120,0 c -2.2,0 -4,1.8 -4,4 l 0,164 c 0,2.2 1.8,4 4,4 l 120,0 c 2.2,0 4,-1.8 4,-4 L 4,4 C 4,1.8 2.2,0 0,0" /></g><g
           transform="translate(188,232)"
           id="g64"><path
             id="path66"
             style="fill:#999999;fill-opacity:1;fill-rule:nonzero;stroke:none"
             d="m 0,0 -120,0 c -2.209,0 -4,-1.791 -4,-4 l 0,-28 c 0,-2.209 1.791,-4 4,-4 l 120,0 c 2.209,0 4,1.791 4,4 L 4,-4 C 4,-1.791 2.209,0 0,0" /></g></g></g><g
       id="g68"><g
         clip-path="url(#clipPath72)"
         id="g70"><g
           id="g76"><g
             id="g78"><path
               id="path86"
               style="fill:url(#linearGradient80);stroke:none"
               d="m 64,196 128,0 0,8 -128,0 0,-8 z" /></g></g></g></g><g
       id="g88"><g
         clip-path="url(#clipPath92)"
         id="g90"><g
           id="g96"><g
             id="g98"><path
               id="path106"
               style="fill:url(#linearGradient100);stroke:none"
               d="m 64,188 128,0 0,8 -128,0 0,-8 z" /></g></g></g></g></g></svg>