<?xml version="1.0" encoding="UTF-8" standalone="no"?>
<svg
   xmlns:dc="http://purl.org/dc/elements/1.1/"
   xmlns:cc="http://creativecommons.org/ns#"
   xmlns:rdf="http://www.w3.org/1999/02/22-rdf-syntax-ns#"
   xmlns:svg="http://www.w3.org/2000/svg"
   xmlns="http://www.w3.org/2000/svg"
   viewBox="0 0 320 320"
   height="320"
   width="320"
   xml:space="preserve"
   version="1.1"
   id="svg2"><metadata
     id="metadata8"><rdf:RDF><cc:Work
         rdf:about=""><dc:format>image/svg+xml</dc:format><dc:type
           rdf:resource="http://purl.org/dc/dcmitype/StillImage" /></cc:Work></rdf:RDF></metadata><defs
     id="defs6"><clipPath
       id="clipPath16"
       clipPathUnits="userSpaceOnUse"><path
         id="path18"
         d="M 56,96 36,64 220,64 200,96 128,104 56,96 Z" /></clipPath><linearGradient
       id="linearGradient24"
       spreadMethod="pad"
       gradientTransform="matrix(97.999992,-97.999992,-97.999992,-97.999992,79,119)"
       gradientUnits="userSpaceOnUse"
       y2="0"
       x2="1"
       y1="0"
       x1="0"><stop
         id="stop26"
         offset="0"
         style="stop-opacity:1;stop-color:#e6e7e8" /><stop
         id="stop28"
         offset="1"
         style="stop-opacity:1;stop-color:#d1d3d4" /></linearGradient><clipPath
       id="clipPath36"
       clipPathUnits="userSpaceOnUse"><path
         id="path38"
         d="M 200,96 56,96 52,216 204,216 200,96 Z" /></clipPath><linearGradient
       id="linearGradient44"
       spreadMethod="pad"
       gradientTransform="matrix(-152,0,0,152,204,156)"
       gradientUnits="userSpaceOnUse"
       y2="0"
       x2="1"
       y1="0"
       x1="0"><stop
         id="stop46"
         offset="0"
         style="stop-opacity:1;stop-color:#e6e7e8" /><stop
         id="stop48"
         offset="1"
         style="stop-opacity:1;stop-color:#d1d3d4" /></linearGradient><clipPath
       id="clipPath56"
       clipPathUnits="userSpaceOnUse"><path
         id="path58"
         d="m 204,212 -152,0 0,12 152,0 0,-12 z" /></clipPath><linearGradient
       id="linearGradient64"
       spreadMethod="pad"
       gradientTransform="matrix(82,-82,-82,-82,87,259)"
       gradientUnits="userSpaceOnUse"
       y2="0"
       x2="1"
       y1="0"
       x1="0"><stop
         id="stop66"
         offset="0"
         style="stop-opacity:1;stop-color:#e6e7e8" /><stop
         id="stop68"
         offset="1"
         style="stop-opacity:1;stop-color:#d1d3d4" /></linearGradient><clipPath
       id="clipPath76"
       clipPathUnits="userSpaceOnUse"><path
         id="path78"
         d="m 208,220 -160,0 0,24 160,0 0,-24 z" /></clipPath><linearGradient
       id="linearGradient84"
       spreadMethod="pad"
       gradientTransform="matrix(-92,92,92,92,174,186)"
       gradientUnits="userSpaceOnUse"
       y2="0"
       x2="1"
       y1="0"
       x1="0"><stop
         id="stop86"
         offset="0"
         style="stop-opacity:1;stop-color:#e6e7e8" /><stop
         id="stop88"
         offset="1"
         style="stop-opacity:1;stop-color:#d1d3d4" /></linearGradient><clipPath
       id="clipPath96"
       clipPathUnits="userSpaceOnUse"><path
         id="path98"
         d="m 236,12 -216,0 4,36 208,0 4,-36 z" /></clipPath><linearGradient
       id="linearGradient104"
       spreadMethod="pad"
       gradientTransform="matrix(-124,124,124,124,190,-34)"
       gradientUnits="userSpaceOnUse"
       y2="0"
       x2="1"
       y1="0"
       x1="0"><stop
         id="stop106"
         offset="0"
         style="stop-opacity:1;stop-color:#e6e7e8" /><stop
         id="stop108"
         offset="1"
         style="stop-opacity:1;stop-color:#d1d3d4" /></linearGradient><clipPath
       id="clipPath116"
       clipPathUnits="userSpaceOnUse"><path
         id="path118"
         d="m 216,68 -176,0 0,4 176,0 0,-4 z" /></clipPath><linearGradient
       id="linearGradient124"
       spreadMethod="pad"
       gradientTransform="matrix(90,-90,-90,-90,83,115)"
       gradientUnits="userSpaceOnUse"
       y2="0"
       x2="1"
       y1="0"
       x1="0"><stop
         id="stop126"
         offset="0"
         style="stop-opacity:1;stop-color:#e6e7e8" /><stop
         id="stop128"
         offset="1"
         style="stop-opacity:1;stop-color:#d1d3d4" /></linearGradient><clipPath
       id="clipPath136"
       clipPathUnits="userSpaceOnUse"><path
         id="path138"
         d="m 216,72 -176,0 0,4 176,0 0,-4 z" /></clipPath><linearGradient
       id="linearGradient144"
       spreadMethod="pad"
       gradientTransform="matrix(-90,90,90,90,173,29)"
       gradientUnits="userSpaceOnUse"
       y2="0"
       x2="1"
       y1="0"
       x1="0"><stop
         id="stop146"
         offset="0"
         style="stop-opacity:1;stop-color:#e6e7e8" /><stop
         id="stop148"
         offset="1"
         style="stop-opacity:1;stop-color:#d1d3d4" /></linearGradient><clipPath
       id="clipPath156"
       clipPathUnits="userSpaceOnUse"><path
         id="path158"
         d="m 220,64 -184,0 4,4 176,0 4,-4 z" /></clipPath><linearGradient
       id="linearGradient164"
       spreadMethod="pad"
       gradientTransform="matrix(-92,92,92,92,174,18)"
       gradientUnits="userSpaceOnUse"
       y2="0"
       x2="1"
       y1="0"
       x1="0"><stop
         id="stop166"
         offset="0"
         style="stop-opacity:1;stop-color:#e6e7e8" /><stop
         id="stop168"
         offset="1"
         style="stop-opacity:1;stop-color:#d1d3d4" /></linearGradient><clipPath
       id="clipPath176"
       clipPathUnits="userSpaceOnUse"><path
         id="path178"
         d="M 232,44 24,44 36,64 220,64 232,44 Z" /></clipPath><linearGradient
       id="linearGradient184"
       spreadMethod="pad"
       gradientTransform="matrix(107.99999,-107.99999,-107.99999,-107.99999,74,102)"
       gradientUnits="userSpaceOnUse"
       y2="0"
       x2="1"
       y1="0"
       x1="0"><stop
         id="stop186"
         offset="0"
         style="stop-opacity:1;stop-color:#e6e7e8" /><stop
         id="stop188"
         offset="1"
         style="stop-opacity:1;stop-color:#d1d3d4" /></linearGradient><clipPath
       id="clipPath196"
       clipPathUnits="userSpaceOnUse"><path
         id="path198"
         d="m 48,244 c -2.209,0 -4,-1.791 -4,-4 l 0,0 0,-19.055 c 0,-0.621 0.144,-1.234 0.422,-1.79 l 0,0 2.798,-5.596 c 0.514,-1.028 0.8,-2.153 0.84,-3.302 l 0,0 3.854,-111.758 c 0.056,-1.627 -0.385,-3.232 -1.266,-4.603 l 0,0 L 16.636,40.989 C 16.221,40.342 16,39.592 16,38.825 l 0,0 L 16,16 c 0,-2.209 1.791,-4 4,-4 l 0,0 4,0 0,28 34.648,53.896 c 0.881,1.371 1.322,2.976 1.266,4.603 l 0,0 -3.854,111.758 c -0.039,1.149 -0.326,2.274 -0.84,3.302 l 0,0 -2.798,5.596 C 52.144,219.711 52,220.324 52,220.945 l 0,0 0,23.055 -4,0 z" /></clipPath><linearGradient
       id="linearGradient204"
       spreadMethod="pad"
       gradientTransform="matrix(-104.82843,104.82843,104.82843,104.82843,87.585785,75.585785)"
       gradientUnits="userSpaceOnUse"
       y2="0"
       x2="1"
       y1="0"
       x1="0"><stop
         id="stop206"
         offset="0"
         style="stop-opacity:1;stop-color:#e6e7e8" /><stop
         id="stop208"
         offset="1"
         style="stop-opacity:1;stop-color:#d1d3d4" /></linearGradient><clipPath
       id="clipPath216"
       clipPathUnits="userSpaceOnUse"><path
         id="path218"
         d="m 203.919,244 0,-23.055 c 0,-0.621 -0.145,-1.234 -0.423,-1.79 l 0,0 -2.798,-5.596 c -0.514,-1.028 -0.8,-2.153 -0.84,-3.302 l 0,0 -3.853,-111.758 c -0.057,-1.627 0.386,-3.232 1.265,-4.603 l 0,0 34.649,-53.896 0,-28 4,0 c 2.209,0 4,1.791 4,4 l 0,0 0,22.825 c 0,0.767 -0.221,1.517 -0.636,2.164 l 0,0 -34.013,52.907 c -0.879,1.371 -1.322,2.976 -1.265,4.603 l 0,0 3.854,111.758 c 0.039,1.149 0.325,2.274 0.839,3.302 l 0,0 2.798,5.596 c 0.278,0.556 0.423,1.169 0.423,1.79 l 0,0 0,19.055 c 0,2.209 -1.791,4 -4,4 l 0,0 -4,0 z" /></clipPath><linearGradient
       id="linearGradient224"
       spreadMethod="pad"
       gradientTransform="matrix(-132.82843,132.82843,132.82843,132.82843,287.16122,61.585785)"
       gradientUnits="userSpaceOnUse"
       y2="0"
       x2="1"
       y1="0"
       x1="0"><stop
         id="stop226"
         offset="0"
         style="stop-opacity:1;stop-color:#e6e7e8" /><stop
         id="stop228"
         offset="1"
         style="stop-opacity:1;stop-color:#d1d3d4" /></linearGradient><clipPath
       id="clipPath236"
       clipPathUnits="userSpaceOnUse"><path
         id="path238"
         d="m 70,200 c -4.419,0 -8,-3.581 -8,-8 l 0,0 5.469,-76.57 c 0.299,-4.186 3.783,-7.43 7.98,-7.43 l 0,0 105.102,0 c 4.197,0 7.68,3.244 7.979,7.43 l 0,0 L 194,192 c 0,4.419 -3.582,8 -8,8 l 0,0 -116,0 z" /></clipPath><linearGradient
       id="linearGradient244"
       spreadMethod="pad"
       gradientTransform="matrix(104.58924,-104.58924,-104.58924,-104.58924,75.705376,209.01909)"
       gradientUnits="userSpaceOnUse"
       y2="0"
       x2="1"
       y1="0"
       x1="0"><stop
         id="stop246"
         offset="0"
         style="stop-opacity:1;stop-color:#e6e7e8" /><stop
         id="stop248"
         offset="1"
         style="stop-opacity:1;stop-color:#d1d3d4" /></linearGradient><clipPath
       id="clipPath256"
       clipPathUnits="userSpaceOnUse"><path
         id="path258"
         d="M 0,256 256,256 256,0 0,0 0,256 Z" /></clipPath><clipPath
       id="clipPath268"
       clipPathUnits="userSpaceOnUse"><path
         id="path270"
         d="m 110.883,88 c -1.722,0 -3.25,-1.101 -3.795,-2.736 l 0,0 L 104,76 l 48,0 -3.088,9.264 C 148.367,86.899 146.839,88 145.117,88 l 0,0 -34.234,0 z" /></clipPath><linearGradient
       id="linearGradient276"
       spreadMethod="pad"
       gradientTransform="matrix(-27.386986,27.386986,27.386986,27.386986,141.6935,65.693497)"
       gradientUnits="userSpaceOnUse"
       y2="0"
       x2="1"
       y1="0"
       x1="0"><stop
         id="stop278"
         offset="0"
         style="stop-opacity:1;stop-color:#e6e7e8" /><stop
         id="stop280"
         offset="1"
         style="stop-opacity:1;stop-color:#d1d3d4" /></linearGradient><clipPath
       id="clipPath288"
       clipPathUnits="userSpaceOnUse"><path
         id="path290"
         d="m 118,76 2,0 0,4.001 -2,0 0,-4.001 z" /></clipPath><linearGradient
       id="linearGradient296"
       spreadMethod="pad"
       gradientTransform="matrix(-2.9999998,2.9999998,2.9999998,2.9999998,120.5,76.5)"
       gradientUnits="userSpaceOnUse"
       y2="0"
       x2="1"
       y1="0"
       x1="0"><stop
         id="stop298"
         offset="0"
         style="stop-opacity:1;stop-color:#e6e7e8" /><stop
         id="stop300"
         offset="1"
         style="stop-opacity:1;stop-color:#d1d3d4" /></linearGradient><clipPath
       id="clipPath308"
       clipPathUnits="userSpaceOnUse"><path
         id="path310"
         d="m 122,76 2,0 0,4.001 -2,0 0,-4.001 z" /></clipPath><linearGradient
       id="linearGradient316"
       spreadMethod="pad"
       gradientTransform="matrix(-2.9999998,2.9999998,2.9999998,2.9999998,124.5,76.5)"
       gradientUnits="userSpaceOnUse"
       y2="0"
       x2="1"
       y1="0"
       x1="0"><stop
         id="stop318"
         offset="0"
         style="stop-opacity:1;stop-color:#e6e7e8" /><stop
         id="stop320"
         offset="1"
         style="stop-opacity:1;stop-color:#d1d3d4" /></linearGradient><clipPath
       id="clipPath328"
       clipPathUnits="userSpaceOnUse"><path
         id="path330"
         d="m 126,76 2,0 0,4.001 -2,0 0,-4.001 z" /></clipPath><linearGradient
       id="linearGradient336"
       spreadMethod="pad"
       gradientTransform="matrix(-2.9999998,2.9999998,2.9999998,2.9999998,128.5,76.5)"
       gradientUnits="userSpaceOnUse"
       y2="0"
       x2="1"
       y1="0"
       x1="0"><stop
         id="stop338"
         offset="0"
         style="stop-opacity:1;stop-color:#e6e7e8" /><stop
         id="stop340"
         offset="1"
         style="stop-opacity:1;stop-color:#d1d3d4" /></linearGradient><clipPath
       id="clipPath348"
       clipPathUnits="userSpaceOnUse"><path
         id="path350"
         d="m 130,76 2.001,0 0,4.001 -2.001,0 0,-4.001 z" /></clipPath><linearGradient
       id="linearGradient356"
       spreadMethod="pad"
       gradientTransform="matrix(-2.9999998,2.9999998,2.9999998,2.9999998,132.5,76.5)"
       gradientUnits="userSpaceOnUse"
       y2="0"
       x2="1"
       y1="0"
       x1="0"><stop
         id="stop358"
         offset="0"
         style="stop-opacity:1;stop-color:#e6e7e8" /><stop
         id="stop360"
         offset="1"
         style="stop-opacity:1;stop-color:#d1d3d4" /></linearGradient><clipPath
       id="clipPath368"
       clipPathUnits="userSpaceOnUse"><path
         id="path370"
         d="m 134,76 2,0 0,4.001 -2,0 0,-4.001 z" /></clipPath><linearGradient
       id="linearGradient376"
       spreadMethod="pad"
       gradientTransform="matrix(-2.9999998,2.9999998,2.9999998,2.9999998,136.5,76.5)"
       gradientUnits="userSpaceOnUse"
       y2="0"
       x2="1"
       y1="0"
       x1="0"><stop
         id="stop378"
         offset="0"
         style="stop-opacity:1;stop-color:#e6e7e8" /><stop
         id="stop380"
         offset="1"
         style="stop-opacity:1;stop-color:#d1d3d4" /></linearGradient><clipPath
       id="clipPath388"
       clipPathUnits="userSpaceOnUse"><path
         id="path390"
         d="M 0,256 256,256 256,0 0,0 0,256 Z" /></clipPath><clipPath
       id="clipPath428"
       clipPathUnits="userSpaceOnUse"><path
         id="path430"
         d="m 104,64 -8,-20 64,0 -8,20 -48,0 z" /></clipPath><linearGradient
       id="linearGradient436"
       spreadMethod="pad"
       gradientTransform="matrix(-38,38,38,38,147,31)"
       gradientUnits="userSpaceOnUse"
       y2="0"
       x2="1"
       y1="0"
       x1="0"><stop
         id="stop438"
         offset="0"
         style="stop-opacity:1;stop-color:#e6e7e8" /><stop
         id="stop440"
         offset="1"
         style="stop-opacity:1;stop-color:#d1d3d4" /></linearGradient><clipPath
       id="clipPath448"
       clipPathUnits="userSpaceOnUse"><path
         id="path450"
         d="m 106,54 c 0,-6.495 11.335,-10 22,-10 l 0,0 c 10.665,0 22,3.505 22,10 l 0,0 c 0,6.495 -11.335,10 -22,10 l 0,0 c -10.665,0 -22,-3.505 -22,-10 m 2,0 c 0,4.418 8.954,8 20,8 l 0,0 c 11.046,0 20,-3.582 20,-8 l 0,0 c 0,-4.418 -8.954,-8 -20,-8 l 0,0 c -11.046,0 -20,3.582 -20,8" /></clipPath><linearGradient
       id="linearGradient456"
       spreadMethod="pad"
       gradientTransform="matrix(24.365124,-24.365124,-24.365124,-24.365124,115.81744,66.182564)"
       gradientUnits="userSpaceOnUse"
       y2="0"
       x2="1"
       y1="0"
       x1="0"><stop
         id="stop458"
         offset="0"
         style="stop-opacity:1;stop-color:#e6e7e8" /><stop
         id="stop460"
         offset="1"
         style="stop-opacity:1;stop-color:#d1d3d4" /></linearGradient><clipPath
       id="clipPath468"
       clipPathUnits="userSpaceOnUse"><path
         id="path470"
         d="m 112,54 c 0,-3.314 7.164,-6 16,-6 l 0,0 c 8.837,0 16,2.686 16,6 l 0,0 c 0,3.314 -7.163,6 -16,6 l 0,0 c -8.836,0 -16,-2.686 -16,-6" /></clipPath><linearGradient
       id="linearGradient476"
       spreadMethod="pad"
       gradientTransform="matrix(17.092638,-17.092638,-17.092638,-17.092638,119.45368,62.546318)"
       gradientUnits="userSpaceOnUse"
       y2="0"
       x2="1"
       y1="0"
       x1="0"><stop
         id="stop478"
         offset="0"
         style="stop-opacity:1;stop-color:#e6e7e8" /><stop
         id="stop480"
         offset="1"
         style="stop-opacity:1;stop-color:#d1d3d4" /></linearGradient><clipPath
       id="clipPath488"
       clipPathUnits="userSpaceOnUse"><path
         id="path490"
         d="M 0,256 256,256 256,0 0,0 0,256 Z" /></clipPath><clipPath
       id="clipPath500"
       clipPathUnits="userSpaceOnUse"><path
         id="path502"
         d="m 52,224 152,0 0,16 -152,0 0,-16 z" /></clipPath><linearGradient
       id="linearGradient508"
       spreadMethod="pad"
       gradientTransform="matrix(84,-84,-84,-84,86,274)"
       gradientUnits="userSpaceOnUse"
       y2="0"
       x2="1"
       y1="0"
       x1="0"><stop
         id="stop510"
         offset="0"
         style="stop-opacity:1;stop-color:#e6e7e8" /><stop
         id="stop512"
         offset="1"
         style="stop-opacity:1;stop-color:#d1d3d4" /></linearGradient><clipPath
       id="clipPath520"
       clipPathUnits="userSpaceOnUse"><path
         id="path522"
         d="m 52,229 152,0 0,6 -152,0 0,-6 z" /></clipPath><linearGradient
       id="linearGradient528"
       spreadMethod="pad"
       gradientTransform="matrix(-79,79,79,79,167.5,192.5)"
       gradientUnits="userSpaceOnUse"
       y2="0"
       x2="1"
       y1="0"
       x1="0"><stop
         id="stop530"
         offset="0"
         style="stop-opacity:1;stop-color:#e6e7e8" /><stop
         id="stop532"
         offset="1"
         style="stop-opacity:1;stop-color:#d1d3d4" /></linearGradient></defs><g
     transform="matrix(1.25,0,0,-1.25,0,320)"
     id="g10"><g
       id="g12"><g
         clip-path="url(#clipPath16)"
         id="g14"><g
           id="g20"><g
             id="g22"><path
               id="path30"
               style="fill:url(#linearGradient24);stroke:none"
               d="M 56,96 36,64 220,64 200,96 128,104 56,96 Z" /></g></g></g></g><g
       id="g32"><g
         clip-path="url(#clipPath36)"
         id="g34"><g
           id="g40"><g
             id="g42"><path
               id="path50"
               style="fill:url(#linearGradient44);stroke:none"
               d="M 200,96 56,96 52,216 204,216 200,96 Z" /></g></g></g></g><g
       id="g52"><g
         clip-path="url(#clipPath56)"
         id="g54"><g
           id="g60"><g
             id="g62"><path
               id="path70"
               style="fill:url(#linearGradient64);stroke:none"
               d="m 204,212 -152,0 0,12 152,0 0,-12 z" /></g></g></g></g><g
       id="g72"><g
         clip-path="url(#clipPath76)"
         id="g74"><g
           id="g80"><g
             id="g82"><path
               id="path90"
               style="fill:url(#linearGradient84);stroke:none"
               d="m 208,220 -160,0 0,24 160,0 0,-24 z" /></g></g></g></g><g
       id="g92"><g
         clip-path="url(#clipPath96)"
         id="g94"><g
           id="g100"><g
             id="g102"><path
               id="path110"
               style="fill:url(#linearGradient104);stroke:none"
               d="m 236,12 -216,0 4,36 208,0 4,-36 z" /></g></g></g></g><g
       id="g112"><g
         clip-path="url(#clipPath116)"
         id="g114"><g
           id="g120"><g
             id="g122"><path
               id="path130"
               style="fill:url(#linearGradient124);stroke:none"
               d="m 216,68 -176,0 0,4 176,0 0,-4 z" /></g></g></g></g><g
       id="g132"><g
         clip-path="url(#clipPath136)"
         id="g134"><g
           id="g140"><g
             id="g142"><path
               id="path150"
               style="fill:url(#linearGradient144);stroke:none"
               d="m 216,72 -176,0 0,4 176,0 0,-4 z" /></g></g></g></g><g
       id="g152"><g
         clip-path="url(#clipPath156)"
         id="g154"><g
           id="g160"><g
             id="g162"><path
               id="path170"
               style="fill:url(#linearGradient164);stroke:none"
               d="m 220,64 -184,0 4,4 176,0 4,-4 z" /></g></g></g></g><g
       id="g172"><g
         clip-path="url(#clipPath176)"
         id="g174"><g
           id="g180"><g
             id="g182"><path
               id="path190"
               style="fill:url(#linearGradient184);stroke:none"
               d="M 232,44 24,44 36,64 220,64 232,44 Z" /></g></g></g></g><g
       id="g192"><g
         clip-path="url(#clipPath196)"
         id="g194"><g
           id="g200"><g
             id="g202"><path
               id="path210"
               style="fill:url(#linearGradient204);stroke:none"
               d="m 48,244 c -2.209,0 -4,-1.791 -4,-4 l 0,0 0,-19.055 c 0,-0.621 0.144,-1.234 0.422,-1.79 l 0,0 2.798,-5.596 c 0.514,-1.028 0.8,-2.153 0.84,-3.302 l 0,0 3.854,-111.758 c 0.056,-1.627 -0.385,-3.232 -1.266,-4.603 l 0,0 L 16.636,40.989 C 16.221,40.342 16,39.592 16,38.825 l 0,0 L 16,16 c 0,-2.209 1.791,-4 4,-4 l 0,0 4,0 0,28 34.648,53.896 c 0.881,1.371 1.322,2.976 1.266,4.603 l 0,0 -3.854,111.758 c -0.039,1.149 -0.326,2.274 -0.84,3.302 l 0,0 -2.798,5.596 C 52.144,219.711 52,220.324 52,220.945 l 0,0 0,23.055 -4,0 z" /></g></g></g></g><g
       id="g212"><g
         clip-path="url(#clipPath216)"
         id="g214"><g
           id="g220"><g
             id="g222"><path
               id="path230"
               style="fill:url(#linearGradient224);stroke:none"
               d="m 203.919,244 0,-23.055 c 0,-0.621 -0.145,-1.234 -0.423,-1.79 l 0,0 -2.798,-5.596 c -0.514,-1.028 -0.8,-2.153 -0.84,-3.302 l 0,0 -3.853,-111.758 c -0.057,-1.627 0.386,-3.232 1.265,-4.603 l 0,0 34.649,-53.896 0,-28 4,0 c 2.209,0 4,1.791 4,4 l 0,0 0,22.825 c 0,0.767 -0.221,1.517 -0.636,2.164 l 0,0 -34.013,52.907 c -0.879,1.371 -1.322,2.976 -1.265,4.603 l 0,0 3.854,111.758 c 0.039,1.149 0.325,2.274 0.839,3.302 l 0,0 2.798,5.596 c 0.278,0.556 0.423,1.169 0.423,1.79 l 0,0 0,19.055 c 0,2.209 -1.791,4 -4,4 l 0,0 -4,0 z" /></g></g></g></g><g
       id="g232"><g
         clip-path="url(#clipPath236)"
         id="g234"><g
           id="g240"><g
             id="g242"><path
               id="path250"
               style="fill:url(#linearGradient244);stroke:none"
               d="m 70,200 c -4.419,0 -8,-3.581 -8,-8 l 0,0 5.469,-76.57 c 0.299,-4.186 3.783,-7.43 7.98,-7.43 l 0,0 105.102,0 c 4.197,0 7.68,3.244 7.979,7.43 l 0,0 L 194,192 c 0,4.419 -3.582,8 -8,8 l 0,0 -116,0 z" /></g></g></g></g><g
       id="g252"><g
         clip-path="url(#clipPath256)"
         id="g254"><g
           transform="translate(176,112)"
           id="g260"><path
             id="path262"
             style="fill:#949494;fill-opacity:1;fill-rule:nonzero;stroke:none"
             d="m 0,0 -96,0 c -4.4,0 -8,3.6 -8,8 l 0,60 c 0,4.4 3.6,8 8,8 l 96,0 c 4.4,0 8,-3.6 8,-8 L 8,8 C 8,3.6 4.4,0 0,0" /></g></g></g><g
       id="g264"><g
         clip-path="url(#clipPath268)"
         id="g266"><g
           id="g272"><g
             id="g274"><path
               id="path282"
               style="fill:url(#linearGradient276);stroke:none"
               d="m 110.883,88 c -1.722,0 -3.25,-1.101 -3.795,-2.736 l 0,0 L 104,76 l 48,0 -3.088,9.264 C 148.367,86.899 146.839,88 145.117,88 l 0,0 -34.234,0 z" /></g></g></g></g><g
       id="g284"><g
         clip-path="url(#clipPath288)"
         id="g286"><g
           id="g292"><g
             id="g294"><path
               id="path302"
               style="fill:url(#linearGradient296);stroke:none"
               d="m 118,76 2,0 0,4.001 -2,0 0,-4.001 z" /></g></g></g></g><g
       id="g304"><g
         clip-path="url(#clipPath308)"
         id="g306"><g
           id="g312"><g
             id="g314"><path
               id="path322"
               style="fill:url(#linearGradient316);stroke:none"
               d="m 122,76 2,0 0,4.001 -2,0 0,-4.001 z" /></g></g></g></g><g
       id="g324"><g
         clip-path="url(#clipPath328)"
         id="g326"><g
           id="g332"><g
             id="g334"><path
               id="path342"
               style="fill:url(#linearGradient336);stroke:none"
               d="m 126,76 2,0 0,4.001 -2,0 0,-4.001 z" /></g></g></g></g><g
       id="g344"><g
         clip-path="url(#clipPath348)"
         id="g346"><g
           id="g352"><g
             id="g354"><path
               id="path362"
               style="fill:url(#linearGradient356);stroke:none"
               d="m 130,76 2.001,0 0,4.001 -2.001,0 0,-4.001 z" /></g></g></g></g><g
       id="g364"><g
         clip-path="url(#clipPath368)"
         id="g366"><g
           id="g372"><g
             id="g374"><path
               id="path382"
               style="fill:url(#linearGradient376);stroke:none"
               d="m 134,76 2,0 0,4.001 -2,0 0,-4.001 z" /></g></g></g></g><g
       id="g384"><g
         clip-path="url(#clipPath388)"
         id="g386"><g
           transform="translate(56,60)"
           id="g392"><path
             id="path394"
             style="fill:#999999;fill-opacity:1;fill-rule:nonzero;stroke:none"
             d="M 0,0 8,-4 16,0 8,4 0,0 Z" /></g><g
           transform="translate(56,48)"
           id="g396"><path
             id="path398"
             style="fill:#999999;fill-opacity:1;fill-rule:nonzero;stroke:none"
             d="M 0,0 8,-4 16,0 8,4 0,0 Z" /></g><g
           transform="translate(46,54)"
           id="g400"><path
             id="path402"
             style="fill:#999999;fill-opacity:1;fill-rule:nonzero;stroke:none"
             d="M 0,0 8,-4 16,0 8,4 0,0 Z" /></g><g
           transform="translate(66,54)"
           id="g404"><path
             id="path406"
             style="fill:#999999;fill-opacity:1;fill-rule:nonzero;stroke:none"
             d="M 0,0 8,-4 16,0 8,4 0,0 Z" /></g><g
           transform="translate(186,60)"
           id="g408"><path
             id="path410"
             style="fill:#999999;fill-opacity:1;fill-rule:nonzero;stroke:none"
             d="M 0,0 8,-4 16,0 8,4 0,0 Z" /></g><g
           transform="translate(186,48)"
           id="g412"><path
             id="path414"
             style="fill:#999999;fill-opacity:1;fill-rule:nonzero;stroke:none"
             d="M 0,0 8,-4 16,0 8,4 0,0 Z" /></g><g
           transform="translate(176,54)"
           id="g416"><path
             id="path418"
             style="fill:#999999;fill-opacity:1;fill-rule:nonzero;stroke:none"
             d="M 0,0 8,-4 16,0 8,4 0,0 Z" /></g><g
           transform="translate(196,54)"
           id="g420"><path
             id="path422"
             style="fill:#999999;fill-opacity:1;fill-rule:nonzero;stroke:none"
             d="M 0,0 8,-4 16,0 8,4 0,0 Z" /></g></g></g><g
       id="g424"><g
         clip-path="url(#clipPath428)"
         id="g426"><g
           id="g432"><g
             id="g434"><path
               id="path442"
               style="fill:url(#linearGradient436);stroke:none"
               d="m 104,64 -8,-20 64,0 -8,20 -48,0 z" /></g></g></g></g><g
       id="g444"><g
         clip-path="url(#clipPath448)"
         id="g446"><g
           id="g452"><g
             id="g454"><path
               id="path462"
               style="fill:url(#linearGradient456);stroke:none"
               d="m 106,54 c 0,-6.495 11.335,-10 22,-10 l 0,0 c 10.665,0 22,3.505 22,10 l 0,0 c 0,6.495 -11.335,10 -22,10 l 0,0 c -10.665,0 -22,-3.505 -22,-10 m 2,0 c 0,4.418 8.954,8 20,8 l 0,0 c 11.046,0 20,-3.582 20,-8 l 0,0 c 0,-4.418 -8.954,-8 -20,-8 l 0,0 c -11.046,0 -20,3.582 -20,8" /></g></g></g></g><g
       id="g464"><g
         clip-path="url(#clipPath468)"
         id="g466"><g
           id="g472"><g
             id="g474"><path
               id="path482"
               style="fill:url(#linearGradient476);stroke:none"
               d="m 112,54 c 0,-3.314 7.164,-6 16,-6 l 0,0 c 8.837,0 16,2.686 16,6 l 0,0 c 0,3.314 -7.163,6 -16,6 l 0,0 c -8.836,0 -16,-2.686 -16,-6" /></g></g></g></g><g
       id="g484"><g
         clip-path="url(#clipPath488)"
         id="g486"><g
           transform="translate(122.231,74.4814)"
           id="g492"><path
             id="path494"
             style="fill:#999999;fill-opacity:1;fill-rule:nonzero;stroke:none"
             d="m 0,0 3.468,-20.811 c 0.161,-0.963 0.995,-1.67 1.973,-1.67 l 0.612,0 c 0.978,0 1.812,0.707 1.973,1.67 L 11.538,0.263 C 11.681,1.122 11.258,1.975 10.483,2.372 8.892,3.188 5.798,4.045 1.202,2.179 0.343,1.829 -0.152,0.915 0,0" /></g></g></g><g
       id="g496"><g
         clip-path="url(#clipPath500)"
         id="g498"><g
           id="g504"><g
             id="g506"><path
               id="path514"
               style="fill:url(#linearGradient508);stroke:none"
               d="m 52,224 152,0 0,16 -152,0 0,-16 z" /></g></g></g></g><g
       id="g516"><g
         clip-path="url(#clipPath520)"
         id="g518"><g
           id="g524"><g
             id="g526"><path
               id="path534"
               style="fill:url(#linearGradient528);stroke:none"
               d="m 52,229 152,0 0,6 -152,0 0,-6 z" /></g></g></g></g></g></svg>