<?xml version="1.0" encoding="UTF-8" standalone="no"?>
<svg
   xmlns:dc="http://purl.org/dc/elements/1.1/"
   xmlns:cc="http://creativecommons.org/ns#"
   xmlns:rdf="http://www.w3.org/1999/02/22-rdf-syntax-ns#"
   xmlns:svg="http://www.w3.org/2000/svg"
   xmlns="http://www.w3.org/2000/svg"
   viewBox="0 0 320 320"
   height="320"
   width="320"
   xml:space="preserve"
   version="1.1"
   id="svg2"><metadata
     id="metadata8"><rdf:RDF><cc:Work
         rdf:about=""><dc:format>image/svg+xml</dc:format><dc:type
           rdf:resource="http://purl.org/dc/dcmitype/StillImage" /></cc:Work></rdf:RDF></metadata><defs
     id="defs6"><clipPath
       id="clipPath16"
       clipPathUnits="userSpaceOnUse"><path
         id="path18"
         d="M 0,256 256,256 256,0 0,0 0,256 Z" /></clipPath><clipPath
       id="clipPath24"
       clipPathUnits="userSpaceOnUse"><path
         id="path26"
         d="M 44,252 212,252 212,4 44,4 44,252 Z" /></clipPath><clipPath
       id="clipPath40"
       clipPathUnits="userSpaceOnUse"><path
         id="path42"
         d="m 188,12 -120,0 0,96 120,0 0,-96 z" /></clipPath><linearGradient
       id="linearGradient48"
       spreadMethod="pad"
       gradientTransform="matrix(107.99999,-107.99999,-107.99999,-107.99999,74,114)"
       gradientUnits="userSpaceOnUse"
       y2="0"
       x2="1"
       y1="0"
       x1="0"><stop
         id="stop50"
         offset="0"
         style="stop-opacity:1;stop-color:#e6e7e8" /><stop
         id="stop52"
         offset="1"
         style="stop-opacity:1;stop-color:#d1d3d4" /></linearGradient><clipPath
       id="clipPath60"
       clipPathUnits="userSpaceOnUse"><path
         id="path62"
         d="m 88,244 c -6.627,0 -12,-5.372 -12,-12 l 0,0 -16,-108 136,0 -12,108 c 0,6.628 -5.372,12 -12,12 l 0,0 -84,0 z" /></clipPath><linearGradient
       id="linearGradient68"
       spreadMethod="pad"
       gradientTransform="matrix(116.48529,-116.48529,-116.48529,-116.48529,70.757355,231.72794)"
       gradientUnits="userSpaceOnUse"
       y2="0"
       x2="1"
       y1="0"
       x1="0"><stop
         id="stop70"
         offset="0"
         style="stop-opacity:1;stop-color:#e6e7e8" /><stop
         id="stop72"
         offset="1"
         style="stop-opacity:1;stop-color:#d1d3d4" /></linearGradient><clipPath
       id="clipPath80"
       clipPathUnits="userSpaceOnUse"><path
         id="path82"
         d="M 80,216 68,132 187.988,132 180,216 80,216 Z" /></clipPath><linearGradient
       id="linearGradient88"
       spreadMethod="pad"
       gradientTransform="matrix(-95.993584,95.993584,95.993584,95.993584,176.99359,121.00641)"
       gradientUnits="userSpaceOnUse"
       y2="0"
       x2="1"
       y1="0"
       x1="0"><stop
         id="stop90"
         offset="0"
         style="stop-opacity:1;stop-color:#e6e7e8" /><stop
         id="stop92"
         offset="1"
         style="stop-opacity:1;stop-color:#d1d3d4" /></linearGradient><clipPath
       id="clipPath100"
       clipPathUnits="userSpaceOnUse"><path
         id="path102"
         d="M 0,256 256,256 256,0 0,0 0,256 Z" /></clipPath><clipPath
       id="clipPath112"
       clipPathUnits="userSpaceOnUse"><path
         id="path114"
         d="M 76.453,84.003 C 73.998,84.003 72,82.129 72,79.825 l 0,0 0,-55.642 c 0,-2.304 1.998,-4.18 4.453,-4.18 l 0,0 47.095,0 c 2.454,0 4.452,1.876 4.452,4.18 l 0,0 0,55.642 c 0,2.304 -1.998,4.178 -4.452,4.178 l 0,0 -47.095,0 z M 74,24.183 74,79.825 c 0,1.201 1.1,2.179 2.453,2.179 l 0,0 47.095,0 c 1.351,0 2.452,-0.978 2.452,-2.179 l 0,0 0,-55.642 c 0,-1.201 -1.101,-2.179 -2.452,-2.179 l 0,0 -47.095,0 C 75.1,22.004 74,22.982 74,24.183" /></clipPath><linearGradient
       id="linearGradient120"
       spreadMethod="pad"
       gradientTransform="matrix(-57.471764,57.471764,57.471764,57.471764,128.73589,23.267853)"
       gradientUnits="userSpaceOnUse"
       y2="0"
       x2="1"
       y1="0"
       x1="0"><stop
         id="stop122"
         offset="0"
         style="stop-opacity:1;stop-color:#e6e7e8" /><stop
         id="stop124"
         offset="1"
         style="stop-opacity:1;stop-color:#d1d3d4" /></linearGradient><clipPath
       id="clipPath132"
       clipPathUnits="userSpaceOnUse"><path
         id="path134"
         d="m 153.12,84 c -3.116,0 -5.652,-2.673 -5.652,-5.957 l 0,0 0,-20.086 c 0,-3.284 2.536,-5.957 5.652,-5.957 l 0,0 24.699,0 c 3.116,0 5.652,2.673 5.652,5.957 l 0,0 0,20.086 c 0,3.284 -2.536,5.957 -5.652,5.957 l 0,0 -24.699,0 z" /></clipPath><linearGradient
       id="linearGradient140"
       spreadMethod="pad"
       gradientTransform="matrix(-30.599796,30.599796,30.599796,30.599796,180.76956,52.700104)"
       gradientUnits="userSpaceOnUse"
       y2="0"
       x2="1"
       y1="0"
       x1="0"><stop
         id="stop142"
         offset="0"
         style="stop-opacity:1;stop-color:#e6e7e8" /><stop
         id="stop144"
         offset="1"
         style="stop-opacity:1;stop-color:#d1d3d4" /></linearGradient><clipPath
       id="clipPath152"
       clipPathUnits="userSpaceOnUse"><path
         id="path154"
         d="m 141.552,48 c -3.161,0 -5.734,-2.284 -5.734,-5.089 l 0,0 0,-21.822 c 0,-2.806 2.573,-5.089 5.734,-5.089 l 0,0 36.531,0 c 3.161,0 5.735,2.283 5.735,5.089 l 0,0 0,21.822 c 0,2.805 -2.574,5.089 -5.735,5.089 l 0,0 -36.531,0 z m -3.734,-26.911 0,21.822 c 0,1.704 1.675,3.089 3.734,3.089 l 0,0 36.531,0 c 2.059,0 3.735,-1.385 3.735,-3.089 l 0,0 0,-21.822 c 0,-1.704 -1.676,-3.089 -3.735,-3.089 l 0,0 -36.531,0 c -2.059,0 -3.734,1.385 -3.734,3.089" /></clipPath><linearGradient
       id="linearGradient160"
       spreadMethod="pad"
       gradientTransform="matrix(-36.839386,36.839386,36.839386,36.839386,178.23749,13.580307)"
       gradientUnits="userSpaceOnUse"
       y2="0"
       x2="1"
       y1="0"
       x1="0"><stop
         id="stop162"
         offset="0"
         style="stop-opacity:1;stop-color:#e6e7e8" /><stop
         id="stop164"
         offset="1"
         style="stop-opacity:1;stop-color:#d1d3d4" /></linearGradient><clipPath
       id="clipPath172"
       clipPathUnits="userSpaceOnUse"><path
         id="path174"
         d="M 0,256 256,256 256,0 0,0 0,256 Z" /></clipPath><clipPath
       id="clipPath184"
       clipPathUnits="userSpaceOnUse"><path
         id="path186"
         d="m 60,124 -8,-16 152,0 -8,16 -136,0 z" /></clipPath><linearGradient
       id="linearGradient192"
       spreadMethod="pad"
       gradientTransform="matrix(-80,80,80,80,168,72)"
       gradientUnits="userSpaceOnUse"
       y2="0"
       x2="1"
       y1="0"
       x1="0"><stop
         id="stop194"
         offset="0"
         style="stop-opacity:1;stop-color:#e6e7e8" /><stop
         id="stop196"
         offset="1"
         style="stop-opacity:1;stop-color:#d1d3d4" /></linearGradient><clipPath
       id="clipPath204"
       clipPathUnits="userSpaceOnUse"><path
         id="path206"
         d="M 0,256 256,256 256,0 0,0 0,256 Z" /></clipPath><clipPath
       id="clipPath272"
       clipPathUnits="userSpaceOnUse"><path
         id="path274"
         d="M 52,108 52,97.395 C 52,92.207 56.277,88 61.552,88 l 0,0 132.896,0 c 5.275,0 9.552,4.207 9.552,9.395 l 0,0 0,10.605 -152,0 z" /></clipPath><linearGradient
       id="linearGradient280"
       spreadMethod="pad"
       gradientTransform="matrix(83.225479,-83.225479,-83.225479,-83.225479,86.38726,142.38727)"
       gradientUnits="userSpaceOnUse"
       y2="0"
       x2="1"
       y1="0"
       x1="0"><stop
         id="stop282"
         offset="0"
         style="stop-opacity:1;stop-color:#e6e7e8" /><stop
         id="stop284"
         offset="1"
         style="stop-opacity:1;stop-color:#d1d3d4" /></linearGradient><clipPath
       id="clipPath292"
       clipPathUnits="userSpaceOnUse"><path
         id="path294"
         d="M 0,256 256,256 256,0 0,0 0,256 Z" /></clipPath></defs><g
     transform="matrix(1.25,0,0,-1.25,0,320)"
     id="g10"><g
       id="g12"><g
         clip-path="url(#clipPath16)"
         id="g14"><g
           id="g20"><g
             id="g22" /><g
             id="g28"><g
               style="opacity:0.5"
               id="g30"
               clip-path="url(#clipPath24)"><g
                 id="g32"
                 transform="translate(211.1554,111.5777)"><path
                   id="path34"
                   style="fill:#ffffff;fill-opacity:1;fill-rule:nonzero;stroke:none"
                   d="M 0,0 -7.362,14.724 -19.161,120.92 c -0.265,10.799 -9.133,19.502 -19.994,19.502 l -84,0 c -10.807,0 -19.639,-8.614 -19.99,-19.337 L -158.882,14.858 -166.311,0 c -0.555,-1.111 -0.844,-2.336 -0.844,-3.578 l 0,-10.604 c 0,-9.074 7.045,-16.547 16,-17.328 l 0,-68.068 c 0,-4.418 3.581,-8 8,-8 l 120,0 c 4.418,0 8,3.582 8,8 l 0,68.068 c 8.954,0.781 16,8.254 16,17.328 l 0,10.604 C 0.845,-2.336 0.555,-1.111 0,0" /></g></g></g></g></g></g><g
       id="g36"><g
         clip-path="url(#clipPath40)"
         id="g38"><g
           id="g44"><g
             id="g46"><path
               id="path54"
               style="fill:url(#linearGradient48);stroke:none"
               d="m 188,12 -120,0 0,96 120,0 0,-96 z" /></g></g></g></g><g
       id="g56"><g
         clip-path="url(#clipPath60)"
         id="g58"><g
           id="g64"><g
             id="g66"><path
               id="path74"
               style="fill:url(#linearGradient68);stroke:none"
               d="m 88,244 c -6.627,0 -12,-5.372 -12,-12 l 0,0 -16,-108 136,0 -12,108 c 0,6.628 -5.372,12 -12,12 l 0,0 -84,0 z" /></g></g></g></g><g
       id="g76"><g
         clip-path="url(#clipPath80)"
         id="g78"><g
           id="g84"><g
             id="g86"><path
               id="path94"
               style="fill:url(#linearGradient88);stroke:none"
               d="M 80,216 68,132 187.988,132 180,216 80,216 Z" /></g></g></g></g><g
       id="g96"><g
         clip-path="url(#clipPath100)"
         id="g98"><g
           transform="translate(128,208)"
           id="g104"><path
             id="path106"
             style="fill:#999999;fill-opacity:1;fill-rule:nonzero;stroke:none"
             d="m 0,0 c -39.849,0 -48,-6.071 -48,-36 0,-29.929 8.025,-36 48,-36 39.98,0 48,6.059 48,36 C 48,-6.056 39.849,0 0,0" /></g></g></g><g
       id="g108"><g
         clip-path="url(#clipPath112)"
         id="g110"><g
           id="g116"><g
             id="g118"><path
               id="path126"
               style="fill:url(#linearGradient120);stroke:none"
               d="M 76.453,84.003 C 73.998,84.003 72,82.129 72,79.825 l 0,0 0,-55.642 c 0,-2.304 1.998,-4.18 4.453,-4.18 l 0,0 47.095,0 c 2.454,0 4.452,1.876 4.452,4.18 l 0,0 0,55.642 c 0,2.304 -1.998,4.178 -4.452,4.178 l 0,0 -47.095,0 z M 74,24.183 74,79.825 c 0,1.201 1.1,2.179 2.453,2.179 l 0,0 47.095,0 c 1.351,0 2.452,-0.978 2.452,-2.179 l 0,0 0,-55.642 c 0,-1.201 -1.101,-2.179 -2.452,-2.179 l 0,0 -47.095,0 C 75.1,22.004 74,22.982 74,24.183" /></g></g></g></g><g
       id="g128"><g
         clip-path="url(#clipPath132)"
         id="g130"><g
           id="g136"><g
             id="g138"><path
               id="path146"
               style="fill:url(#linearGradient140);stroke:none"
               d="m 153.12,84 c -3.116,0 -5.652,-2.673 -5.652,-5.957 l 0,0 0,-20.086 c 0,-3.284 2.536,-5.957 5.652,-5.957 l 0,0 24.699,0 c 3.116,0 5.652,2.673 5.652,5.957 l 0,0 0,20.086 c 0,3.284 -2.536,5.957 -5.652,5.957 l 0,0 -24.699,0 z" /></g></g></g></g><g
       id="g148"><g
         clip-path="url(#clipPath152)"
         id="g150"><g
           id="g156"><g
             id="g158"><path
               id="path166"
               style="fill:url(#linearGradient160);stroke:none"
               d="m 141.552,48 c -3.161,0 -5.734,-2.284 -5.734,-5.089 l 0,0 0,-21.822 c 0,-2.806 2.573,-5.089 5.734,-5.089 l 0,0 36.531,0 c 3.161,0 5.735,2.283 5.735,5.089 l 0,0 0,21.822 c 0,2.805 -2.574,5.089 -5.735,5.089 l 0,0 -36.531,0 z m -3.734,-26.911 0,21.822 c 0,1.704 1.675,3.089 3.734,3.089 l 0,0 36.531,0 c 2.059,0 3.735,-1.385 3.735,-3.089 l 0,0 0,-21.822 c 0,-1.704 -1.676,-3.089 -3.735,-3.089 l 0,0 -36.531,0 c -2.059,0 -3.734,1.385 -3.734,3.089" /></g></g></g></g><g
       id="g168"><g
         clip-path="url(#clipPath172)"
         id="g170"><path
           id="path176"
           style="fill:#999999;fill-opacity:1;fill-rule:nonzero;stroke:none"
           d="m 108,220 -20,0 0,16 20,0 0,-16 z" /><path
           id="path178"
           style="fill:#999999;fill-opacity:1;fill-rule:nonzero;stroke:none"
           d="m 172,220 -20,0 0,16 20,0 0,-16 z" /></g></g><g
       id="g180"><g
         clip-path="url(#clipPath184)"
         id="g182"><g
           id="g188"><g
             id="g190"><path
               id="path198"
               style="fill:url(#linearGradient192);stroke:none"
               d="m 60,124 -8,-16 152,0 -8,16 -136,0 z" /></g></g></g></g><g
       id="g200"><g
         clip-path="url(#clipPath204)"
         id="g202"><g
           transform="translate(187,120)"
           id="g208"><path
             id="path210"
             style="fill:#999999;fill-opacity:1;fill-rule:nonzero;stroke:none"
             d="m 0,0 c 0,-1.105 -1.343,-2 -3,-2 -1.657,0 -3,0.895 -3,2 0,1.105 1.343,2 3,2 1.657,0 3,-0.895 3,-2" /></g><g
           transform="translate(187,114)"
           id="g212"><path
             id="path214"
             style="fill:#999999;fill-opacity:1;fill-rule:nonzero;stroke:none"
             d="m 0,0 c 0,-1.105 -1.343,-2 -3,-2 -1.657,0 -3,0.895 -3,2 0,1.105 1.343,2 3,2 1.657,0 3,-0.895 3,-2" /></g><g
           transform="translate(179,120)"
           id="g216"><path
             id="path218"
             style="fill:#999999;fill-opacity:1;fill-rule:nonzero;stroke:none"
             d="m 0,0 c 0,-1.105 -1.343,-2 -3,-2 -1.657,0 -3,0.895 -3,2 0,1.105 1.343,2 3,2 1.657,0 3,-0.895 3,-2" /></g><g
           transform="translate(179,114)"
           id="g220"><path
             id="path222"
             style="fill:#999999;fill-opacity:1;fill-rule:nonzero;stroke:none"
             d="m 0,0 c 0,-1.105 -1.343,-2 -3,-2 -1.657,0 -3,0.895 -3,2 0,1.105 1.343,2 3,2 1.657,0 3,-0.895 3,-2" /></g><g
           transform="translate(171,120)"
           id="g224"><path
             id="path226"
             style="fill:#999999;fill-opacity:1;fill-rule:nonzero;stroke:none"
             d="m 0,0 c 0,-1.105 -1.343,-2 -3,-2 -1.657,0 -3,0.895 -3,2 0,1.105 1.343,2 3,2 1.657,0 3,-0.895 3,-2" /></g><g
           transform="translate(131,118)"
           id="g228"><path
             id="path230"
             style="fill:#999999;fill-opacity:1;fill-rule:nonzero;stroke:none"
             d="m 0,0 c 0,-1.105 -1.343,-2 -3,-2 -1.657,0 -3,0.895 -3,2 0,1.105 1.343,2 3,2 1.657,0 3,-0.895 3,-2" /></g><g
           transform="translate(123,118)"
           id="g232"><path
             id="path234"
             style="fill:#999999;fill-opacity:1;fill-rule:nonzero;stroke:none"
             d="m 0,0 c 0,-1.105 -1.343,-2 -3,-2 -1.657,0 -3,0.895 -3,2 0,1.105 1.343,2 3,2 1.657,0 3,-0.895 3,-2" /></g><g
           transform="translate(171,114)"
           id="g236"><path
             id="path238"
             style="fill:#999999;fill-opacity:1;fill-rule:nonzero;stroke:none"
             d="m 0,0 c 0,-1.105 -1.343,-2 -3,-2 -1.657,0 -3,0.895 -3,2 0,1.105 1.343,2 3,2 1.657,0 3,-0.895 3,-2" /></g><g
           transform="translate(111,120)"
           id="g240"><path
             id="path242"
             style="fill:#999999;fill-opacity:1;fill-rule:nonzero;stroke:none"
             d="m 0,0 c 0,-1.105 -1.343,-2 -3,-2 -1.657,0 -3,0.895 -3,2 0,1.105 1.343,2 3,2 1.657,0 3,-0.895 3,-2" /></g><g
           transform="translate(111,114)"
           id="g244"><path
             id="path246"
             style="fill:#999999;fill-opacity:1;fill-rule:nonzero;stroke:none"
             d="m 0,0 c 0,-1.105 -1.343,-2 -3,-2 -1.657,0 -3,0.895 -3,2 0,1.105 1.343,2 3,2 1.657,0 3,-0.895 3,-2" /></g><g
           transform="translate(103,120)"
           id="g248"><path
             id="path250"
             style="fill:#999999;fill-opacity:1;fill-rule:nonzero;stroke:none"
             d="m 0,0 c 0,-1.105 -1.343,-2 -3,-2 -1.657,0 -3,0.895 -3,2 0,1.105 1.343,2 3,2 1.657,0 3,-0.895 3,-2" /></g><g
           transform="translate(103,114)"
           id="g252"><path
             id="path254"
             style="fill:#999999;fill-opacity:1;fill-rule:nonzero;stroke:none"
             d="m 0,0 c 0,-1.105 -1.343,-2 -3,-2 -1.657,0 -3,0.895 -3,2 0,1.105 1.343,2 3,2 1.657,0 3,-0.895 3,-2" /></g><g
           transform="translate(95,120)"
           id="g256"><path
             id="path258"
             style="fill:#999999;fill-opacity:1;fill-rule:nonzero;stroke:none"
             d="m 0,0 c 0,-1.105 -1.343,-2 -3,-2 -1.657,0 -3,0.895 -3,2 0,1.105 1.343,2 3,2 1.657,0 3,-0.895 3,-2" /></g><g
           transform="translate(95,114)"
           id="g260"><path
             id="path262"
             style="fill:#999999;fill-opacity:1;fill-rule:nonzero;stroke:none"
             d="m 0,0 c 0,-1.105 -1.343,-2 -3,-2 -1.657,0 -3,0.895 -3,2 0,1.105 1.343,2 3,2 1.657,0 3,-0.895 3,-2" /></g><g
           transform="translate(156,117)"
           id="g264"><path
             id="path266"
             style="fill:#999999;fill-opacity:1;fill-rule:nonzero;stroke:none"
             d="m 0,0 c 0,-1.657 -2.686,-3 -6,-3 -3.314,0 -6,1.343 -6,3 0,1.657 2.686,3 6,3 3.314,0 6,-1.343 6,-3" /></g></g></g><g
       id="g268"><g
         clip-path="url(#clipPath272)"
         id="g270"><g
           id="g276"><g
             id="g278"><path
               id="path286"
               style="fill:url(#linearGradient280);stroke:none"
               d="M 52,108 52,97.395 C 52,92.207 56.277,88 61.552,88 l 0,0 132.896,0 c 5.275,0 9.552,4.207 9.552,9.395 l 0,0 0,10.605 -152,0 z" /></g></g></g></g><g
       id="g288"><g
         clip-path="url(#clipPath292)"
         id="g290"><path
           id="path296"
           style="fill:#999999;fill-opacity:1;fill-rule:nonzero;stroke:none"
           d="m 172,60 -4,0 0,4 4,0 0,-4 z" /><g
           transform="translate(100,74)"
           id="g298"><path
             id="path300"
             style="fill:#999999;fill-opacity:1;fill-rule:nonzero;stroke:none"
             d="m 0,0 c 0,-1.105 -0.895,-2 -2,-2 -1.105,0 -2,0.895 -2,2 0,1.105 0.895,2 2,2 1.105,0 2,-0.895 2,-2" /></g><g
           transform="translate(156,74)"
           id="g302"><path
             id="path304"
             style="fill:#999999;fill-opacity:1;fill-rule:nonzero;stroke:none"
             d="m 0,0 c 0,-1.105 -0.895,-2 -2,-2 -1.105,0 -2,0.895 -2,2 0,1.105 0.895,2 2,2 1.105,0 2,-0.895 2,-2" /></g><g
           transform="translate(144,34)"
           id="g306"><path
             id="path308"
             style="fill:#999999;fill-opacity:1;fill-rule:nonzero;stroke:none"
             d="m 0,0 c 0,-1.105 -0.895,-2 -2,-2 -1.105,0 -2,0.895 -2,2 0,1.105 0.895,2 2,2 1.105,0 2,-0.895 2,-2" /></g><g
           transform="translate(148.5,116.9146)"
           id="g310"><path
             id="path312"
             style="fill:#999999;fill-opacity:1;fill-rule:nonzero;stroke:none"
             d="m 0,0 -1.5,8.868 c 0,1.22 1.35,2.217 3,2.217 1.65,0 3,-0.997 3,-2.217 L 3,0 C 3,-1.219 0,-1.219 0,0" /></g><g
           transform="translate(80,117)"
           id="g314"><path
             id="path316"
             style="fill:#999999;fill-opacity:1;fill-rule:nonzero;stroke:none"
             d="m 0,0 c 0,-1.657 -2.686,-3 -6,-3 -3.314,0 -6,1.343 -6,3 0,1.657 2.686,3 6,3 3.314,0 6,-1.343 6,-3" /></g><g
           transform="translate(72.5,116.9146)"
           id="g318"><path
             id="path320"
             style="fill:#999999;fill-opacity:1;fill-rule:nonzero;stroke:none"
             d="m 0,0 -1.5,8.868 c 0,1.22 1.35,2.217 3,2.217 1.65,0 3,-0.997 3,-2.217 L 3,0 C 3,-1.219 0,-1.219 0,0" /></g></g></g></g></svg>