<?xml version="1.0" encoding="UTF-8" standalone="no"?>
<svg
   xmlns:dc="http://purl.org/dc/elements/1.1/"
   xmlns:cc="http://creativecommons.org/ns#"
   xmlns:rdf="http://www.w3.org/1999/02/22-rdf-syntax-ns#"
   xmlns:svg="http://www.w3.org/2000/svg"
   xmlns="http://www.w3.org/2000/svg"
   viewBox="0 0 320 320"
   height="320"
   width="320"
   xml:space="preserve"
   version="1.1"
   id="svg2"><metadata
     id="metadata8"><rdf:RDF><cc:Work
         rdf:about=""><dc:format>image/svg+xml</dc:format><dc:type
           rdf:resource="http://purl.org/dc/dcmitype/StillImage" /></cc:Work></rdf:RDF></metadata><defs
     id="defs6"><clipPath
       id="clipPath16"
       clipPathUnits="userSpaceOnUse"><path
         id="path18"
         d="M 56.585,199.484 C -2.812,140.088 -2.912,116.098 56.587,56.598 l 0,0 c 59.508,-59.507 83.465,-59.422 142.885,-0.002 l 0,0 c 59.426,59.426 59.314,83.579 0.002,142.89 l 0,0 C 169.812,229.149 148.929,243.997 128.04,244 l 0,0 c -20.878,0.003 -41.764,-14.825 -71.455,-44.516" /></clipPath><linearGradient
       id="linearGradient24"
       spreadMethod="pad"
       gradientTransform="matrix(142.88766,-142.88766,-142.88766,-142.88766,56.587261,199.48634)"
       gradientUnits="userSpaceOnUse"
       y2="0"
       x2="1"
       y1="0"
       x1="0"><stop
         id="stop26"
         offset="0"
         style="stop-opacity:1;stop-color:#e6e7e8" /><stop
         id="stop28"
         offset="1"
         style="stop-opacity:1;stop-color:#d1d3d4" /></linearGradient><clipPath
       id="clipPath36"
       clipPathUnits="userSpaceOnUse"><path
         id="path38"
         d="M 0,256 256,256 256,0 0,0 0,256 Z" /></clipPath></defs><g
     transform="matrix(1.25,0,0,-1.25,0,320)"
     id="g10"><g
       id="g12"><g
         clip-path="url(#clipPath16)"
         id="g14"><g
           id="g20"><g
             id="g22"><path
               id="path30"
               style="fill:url(#linearGradient24);stroke:none"
               d="M 56.585,199.484 C -2.812,140.088 -2.912,116.098 56.587,56.598 l 0,0 c 59.508,-59.507 83.465,-59.422 142.885,-0.002 l 0,0 c 59.426,59.426 59.314,83.579 0.002,142.89 l 0,0 C 169.812,229.149 148.929,243.997 128.04,244 l 0,0 c -20.878,0.003 -41.764,-14.825 -71.455,-44.516" /></g></g></g></g><g
       id="g32"><g
         clip-path="url(#clipPath36)"
         id="g34"><g
           transform="translate(189.7139,56)"
           id="g40"><path
             id="path42"
             style="fill:#ffffff;fill-opacity:1;fill-rule:nonzero;stroke:none"
             d="m 0,0 -41.143,0 c -4.16,0 -7.911,2.508 -9.502,6.349 -1.593,3.844 -0.712,8.268 2.23,11.21 l 38.13,38.129 0,12.053 L -75.013,3.014 C -76.941,1.085 -79.557,0 -82.285,0 l -41.143,0 c -4.16,0 -7.911,2.508 -9.502,6.349 -1.593,3.844 -0.713,8.268 2.23,11.21 l 105.868,105.869 -12.05,0 -79.273,-79.272 c -2.942,-2.94 -7.371,-3.816 -11.208,-2.229 -3.845,1.591 -6.35,5.344 -6.35,9.502 l 0,41.142 c 0,2.728 1.083,5.344 3.013,7.273 l 23.583,23.584 -16.311,0 c -5.681,0 -10.285,4.605 -10.285,10.286 0,5.681 4.604,10.286 10.285,10.286 l 41.143,0 c 4.16,0 7.911,-2.505 9.502,-6.351 1.593,-3.843 0.713,-8.266 -2.23,-11.208 l -38.129,-38.13 0,-12.052 64.727,64.727 c 1.929,1.931 4.544,3.014 7.272,3.014 L 0,144 c 4.16,0 7.911,-2.505 9.502,-6.351 1.594,-3.843 0.714,-8.266 -2.23,-11.208 l -105.868,-105.87 12.05,0 79.274,79.273 c 2.943,2.945 7.369,3.824 11.208,2.229 3.844,-1.591 6.35,-5.341 6.35,-9.502 l 0,-41.142 c 0,-2.729 -1.083,-5.344 -3.014,-7.273 L -16.311,20.571 0,20.571 c 5.682,0 10.286,-4.603 10.286,-10.285 C 10.286,4.604 5.682,0 0,0" /></g></g></g></g></svg>