<?xml version="1.0" encoding="UTF-8" standalone="no"?>
<svg
   xmlns:dc="http://purl.org/dc/elements/1.1/"
   xmlns:cc="http://creativecommons.org/ns#"
   xmlns:rdf="http://www.w3.org/1999/02/22-rdf-syntax-ns#"
   xmlns:svg="http://www.w3.org/2000/svg"
   xmlns="http://www.w3.org/2000/svg"
   viewBox="0 0 320 320"
   height="320"
   width="320"
   xml:space="preserve"
   version="1.1"
   id="svg2"><metadata
     id="metadata8"><rdf:RDF><cc:Work
         rdf:about=""><dc:format>image/svg+xml</dc:format><dc:type
           rdf:resource="http://purl.org/dc/dcmitype/StillImage" /></cc:Work></rdf:RDF></metadata><defs
     id="defs6"><clipPath
       id="clipPath16"
       clipPathUnits="userSpaceOnUse"><path
         id="path18"
         d="M 56.857,244 C 49.754,244 44,238.232 44,231.111 l 0,0 0,-206.222 C 44,17.768 49.754,12 56.857,12 l 0,0 154.286,0 C 218.246,12 224,17.768 224,24.889 l 0,0 0,154.666 L 159.714,244 56.857,244 Z" /></clipPath><linearGradient
       id="linearGradient24"
       spreadMethod="pad"
       gradientTransform="matrix(198.46124,-198.46124,-198.46124,-198.46124,20.58267,213.04388)"
       gradientUnits="userSpaceOnUse"
       y2="0"
       x2="1"
       y1="0"
       x1="0"><stop
         id="stop26"
         offset="0"
         style="stop-opacity:1;stop-color:#e6e7e8" /><stop
         id="stop28"
         offset="1"
         style="stop-opacity:1;stop-color:#d1d3d4" /></linearGradient><clipPath
       id="clipPath36"
       clipPathUnits="userSpaceOnUse"><path
         id="path38"
         d="M 60,228 60,28 208,28 208,172.997 152.783,228 60,228 Z" /></clipPath><linearGradient
       id="linearGradient44"
       spreadMethod="pad"
       gradientTransform="matrix(-174,174,174,174,207.24936,27.249351)"
       gradientUnits="userSpaceOnUse"
       y2="0"
       x2="1"
       y1="0"
       x1="0"><stop
         id="stop46"
         offset="0"
         style="stop-opacity:1;stop-color:#e6e7e8" /><stop
         id="stop48"
         offset="1"
         style="stop-opacity:1;stop-color:#d1d3d4" /></linearGradient><clipPath
       id="clipPath56"
       clipPathUnits="userSpaceOnUse"><path
         id="path58"
         d="M 0,256 256,256 256,0 0,0 0,256 Z" /></clipPath></defs><g
     transform="matrix(1.25,0,0,-1.25,0,320)"
     id="g10"><g
       id="g12"><g
         clip-path="url(#clipPath16)"
         id="g14"><g
           id="g20"><g
             id="g22"><path
               id="path30"
               style="fill:url(#linearGradient24);stroke:none"
               d="M 56.857,244 C 49.754,244 44,238.232 44,231.111 l 0,0 0,-206.222 C 44,17.768 49.754,12 56.857,12 l 0,0 154.286,0 C 218.246,12 224,17.768 224,24.889 l 0,0 0,154.666 L 159.714,244 56.857,244 Z" /></g></g></g></g><g
       id="g32"><g
         clip-path="url(#clipPath36)"
         id="g34"><g
           id="g40"><g
             id="g42"><path
               id="path50"
               style="fill:url(#linearGradient44);stroke:none"
               d="M 60,228 60,28 208,28 208,172.997 152.783,228 60,228 Z" /></g></g></g></g><g
       id="g52"><g
         clip-path="url(#clipPath56)"
         id="g54"><g
           transform="translate(190.4256,172)"
           id="g60"><path
             id="path62"
             style="fill:#ffffff;fill-opacity:1;fill-rule:nonzero;stroke:none"
             d="m 0,0 -25.626,0 c -7.072,0 -12.8,5.728 -12.8,12.8 l 0,25.6 0,25.6 64,-64 L 0,0 Z" /></g><g
           transform="translate(187.1425,36.0008)"
           id="g64"><path
             id="path66"
             style="fill:#ffffff;fill-opacity:1;fill-rule:nonzero;stroke:none"
             d="m 0,0 -35.428,0 c -3.583,0 -6.813,2.159 -8.183,5.466 -1.372,3.312 -0.614,7.121 1.92,9.653 l 32.834,32.834 0,10.379 L -64.594,2.595 C -66.255,0.934 -68.507,0 -70.857,0 l -35.428,0 c -3.583,0 -6.812,2.159 -8.182,5.466 -1.372,3.312 -0.615,7.121 1.92,9.653 l 91.164,91.166 -10.376,0 -68.264,-68.262 c -2.532,-2.532 -6.347,-3.287 -9.651,-1.92 -3.311,1.37 -5.468,4.602 -5.468,8.182 l 0,35.429 c 0,2.349 0.932,4.601 2.595,6.262 l 20.307,20.309 -14.045,0 c -4.892,0 -8.857,3.965 -8.857,8.857 0,4.892 3.965,8.857 8.857,8.857 l 35.428,0 c 3.583,0 6.813,-2.157 8.183,-5.468 1.372,-3.309 0.614,-7.119 -1.92,-9.651 l -32.834,-32.835 0,-10.378 55.737,55.737 c 1.661,1.663 3.913,2.595 6.263,2.595 l 35.428,0 c 3.583,0 6.812,-2.157 8.182,-5.468 1.372,-3.309 0.615,-7.119 -1.92,-9.651 l -91.164,-91.166 10.376,0 68.264,68.262 c 2.534,2.536 6.345,3.294 9.651,1.92 3.311,-1.37 5.468,-4.6 5.468,-8.182 l 0,-35.429 c 0,-2.349 -0.932,-4.601 -2.595,-6.262 L -14.045,17.714 0,17.714 c 4.892,0 8.857,-3.965 8.857,-8.857 C 8.857,3.965 4.892,0 0,0" /></g></g></g></g></svg>