<?xml version="1.0" encoding="UTF-8" standalone="no"?>
<svg
   xmlns:dc="http://purl.org/dc/elements/1.1/"
   xmlns:cc="http://creativecommons.org/ns#"
   xmlns:rdf="http://www.w3.org/1999/02/22-rdf-syntax-ns#"
   xmlns:svg="http://www.w3.org/2000/svg"
   xmlns="http://www.w3.org/2000/svg"
   viewBox="0 0 320 320"
   height="320"
   width="320"
   xml:space="preserve"
   version="1.1"
   id="svg2"><metadata
     id="metadata8"><rdf:RDF><cc:Work
         rdf:about=""><dc:format>image/svg+xml</dc:format><dc:type
           rdf:resource="http://purl.org/dc/dcmitype/StillImage" /></cc:Work></rdf:RDF></metadata><defs
     id="defs6"><clipPath
       id="clipPath16"
       clipPathUnits="userSpaceOnUse"><path
         id="path18"
         d="m 80,188 c -8.844,0 -16,-7.156 -16,-16 l 0,0 0,-24 0,-20.609 128,0 0,20.609 0,8 c 0,8.844 -7.156,16 -16,16 l 0,0 -48,0 c 0,8.844 -7.156,16 -16,16 l 0,0 -32,0 z" /></clipPath><linearGradient
       id="linearGradient24"
       spreadMethod="pad"
       gradientTransform="matrix(89.621529,-89.621529,-89.621529,-89.621529,79.189247,193.82236)"
       gradientUnits="userSpaceOnUse"
       y2="0"
       x2="1"
       y1="0"
       x1="0"><stop
         id="stop26"
         offset="0"
         style="stop-opacity:1;stop-color:#e6e7e8" /><stop
         id="stop28"
         offset="1"
         style="stop-opacity:1;stop-color:#d1d3d4" /></linearGradient><clipPath
       id="clipPath36"
       clipPathUnits="userSpaceOnUse"><path
         id="path38"
         d="m 56,140 c -4.42,0 -8,-3.58 -8,-8 l 0,0 16,-56 c 0,0 3.58,-8 8,-8 l 0,0 112,0 c 4.419,0 8,8 8,8 l 0,0 16,56 c 0,4.42 -3.58,8 -8,8 l 0,0 -144,0 z" /></clipPath><linearGradient
       id="linearGradient44"
       spreadMethod="pad"
       gradientTransform="matrix(-102.63972,102.63972,102.63972,102.63972,179.31985,61.355385)"
       gradientUnits="userSpaceOnUse"
       y2="0"
       x2="1"
       y1="0"
       x1="0"><stop
         id="stop46"
         offset="0"
         style="stop-opacity:1;stop-color:#e6e7e8" /><stop
         id="stop48"
         offset="1"
         style="stop-opacity:1;stop-color:#d1d3d4" /></linearGradient></defs><g
     transform="matrix(1.25,0,0,-1.25,0,320)"
     id="g10"><g
       id="g12"><g
         clip-path="url(#clipPath16)"
         id="g14"><g
           id="g20"><g
             id="g22"><path
               id="path30"
               style="fill:url(#linearGradient24);stroke:none"
               d="m 80,188 c -8.844,0 -16,-7.156 -16,-16 l 0,0 0,-24 0,-20.609 128,0 0,20.609 0,8 c 0,8.844 -7.156,16 -16,16 l 0,0 -48,0 c 0,8.844 -7.156,16 -16,16 l 0,0 -32,0 z" /></g></g></g></g><g
       id="g32"><g
         clip-path="url(#clipPath36)"
         id="g34"><g
           id="g40"><g
             id="g42"><path
               id="path50"
               style="fill:url(#linearGradient44);stroke:none"
               d="m 56,140 c -4.42,0 -8,-3.58 -8,-8 l 0,0 16,-56 c 0,0 3.58,-8 8,-8 l 0,0 112,0 c 4.419,0 8,8 8,8 l 0,0 16,56 c 0,4.42 -3.58,8 -8,8 l 0,0 -144,0 z" /></g></g></g></g></g></svg>