<?xml version="1.0" encoding="UTF-8" standalone="no"?>
<svg
   xmlns:dc="http://purl.org/dc/elements/1.1/"
   xmlns:cc="http://creativecommons.org/ns#"
   xmlns:rdf="http://www.w3.org/1999/02/22-rdf-syntax-ns#"
   xmlns:svg="http://www.w3.org/2000/svg"
   xmlns="http://www.w3.org/2000/svg"
   viewBox="0 0 320 320"
   height="320"
   width="320"
   xml:space="preserve"
   version="1.1"
   id="svg2"><metadata
     id="metadata8"><rdf:RDF><cc:Work
         rdf:about=""><dc:format>image/svg+xml</dc:format><dc:type
           rdf:resource="http://purl.org/dc/dcmitype/StillImage" /></cc:Work></rdf:RDF></metadata><defs
     id="defs6"><clipPath
       id="clipPath16"
       clipPathUnits="userSpaceOnUse"><path
         id="path18"
         d="M 56.549,199.436 C -2.848,140.038 -2.947,116.05 56.551,56.55 l 0,0 C 116.06,-2.958 140.017,-2.873 199.436,56.547 l 0,0 c 59.426,59.426 59.315,83.579 0.003,142.89 l 0,0 c -29.663,29.663 -50.545,44.512 -71.434,44.515 l 0,0 C 107.126,243.954 86.24,229.126 56.549,199.436" /></clipPath><linearGradient
       id="linearGradient24"
       spreadMethod="pad"
       gradientTransform="matrix(142.88766,-142.88766,-142.88766,-142.88766,56.551559,199.43755)"
       gradientUnits="userSpaceOnUse"
       y2="0"
       x2="1"
       y1="0"
       x1="0"><stop
         id="stop26"
         offset="0"
         style="stop-opacity:1;stop-color:#e6e7e8" /><stop
         id="stop28"
         offset="1"
         style="stop-opacity:1;stop-color:#d1d3d4" /></linearGradient><clipPath
       id="clipPath36"
       clipPathUnits="userSpaceOnUse"><path
         id="path38"
         d="M 0,256 256,256 256,0 0,0 0,256 Z" /></clipPath><clipPath
       id="clipPath48"
       clipPathUnits="userSpaceOnUse"><path
         id="path50"
         d="M 52,140.567 68.576,124 72,156 52,140.567 Z" /></clipPath><linearGradient
       id="linearGradient56"
       spreadMethod="pad"
       gradientTransform="matrix(-16.571922,16.571922,16.571922,16.571922,77.430023,132.85377)"
       gradientUnits="userSpaceOnUse"
       y2="0"
       x2="1"
       y1="0"
       x1="0"><stop
         id="stop58"
         offset="0"
         style="stop-opacity:1;stop-color:#e6e7e8" /><stop
         id="stop60"
         offset="1"
         style="stop-opacity:1;stop-color:#d1d3d4" /></linearGradient><clipPath
       id="clipPath68"
       clipPathUnits="userSpaceOnUse"><path
         id="path70"
         d="m 110,182.424 36,0 -18,11.999 -18,-11.999 z" /></clipPath><linearGradient
       id="linearGradient76"
       spreadMethod="pad"
       gradientTransform="matrix(-18,18,18,18,137,173.42383)"
       gradientUnits="userSpaceOnUse"
       y2="0"
       x2="1"
       y1="0"
       x1="0"><stop
         id="stop78"
         offset="0"
         style="stop-opacity:1;stop-color:#e6e7e8" /><stop
         id="stop80"
         offset="1"
         style="stop-opacity:1;stop-color:#d1d3d4" /></linearGradient><clipPath
       id="clipPath88"
       clipPathUnits="userSpaceOnUse"><path
         id="path90"
         d="m 106,92 22,-20 22,20 -44,0 z" /></clipPath><linearGradient
       id="linearGradient96"
       spreadMethod="pad"
       gradientTransform="matrix(-22,22,22,22,139,81)"
       gradientUnits="userSpaceOnUse"
       y2="0"
       x2="1"
       y1="0"
       x1="0"><stop
         id="stop98"
         offset="0"
         style="stop-opacity:1;stop-color:#e6e7e8" /><stop
         id="stop100"
         offset="1"
         style="stop-opacity:1;stop-color:#d1d3d4" /></linearGradient><clipPath
       id="clipPath108"
       clipPathUnits="userSpaceOnUse"><path
         id="path110"
         d="M 108.014,140.575 C 107.609,131.57 116.554,124 128,124 l 0,0 c 11.451,0 20.392,7.57 19.986,16.575 l 0,0 C 147.597,149.229 138.658,156 128,156 l 0,0 c -10.653,0 -19.598,-6.771 -19.986,-15.425" /></clipPath><linearGradient
       id="linearGradient116"
       spreadMethod="pad"
       gradientTransform="matrix(-25.614977,25.614977,25.614977,25.614977,140.80818,127.17683)"
       gradientUnits="userSpaceOnUse"
       y2="0"
       x2="1"
       y1="0"
       x1="0"><stop
         id="stop118"
         offset="0"
         style="stop-opacity:1;stop-color:#e6e7e8" /><stop
         id="stop120"
         offset="1"
         style="stop-opacity:1;stop-color:#d1d3d4" /></linearGradient><clipPath
       id="clipPath128"
       clipPathUnits="userSpaceOnUse"><path
         id="path130"
         d="M 183.424,124 200,140.567 180,156 l 3.424,-32 z" /></clipPath><linearGradient
       id="linearGradient136"
       spreadMethod="pad"
       gradientTransform="matrix(-17.716204,17.716204,17.716204,17.716204,191.714,132.2816)"
       gradientUnits="userSpaceOnUse"
       y2="0"
       x2="1"
       y1="0"
       x1="0"><stop
         id="stop138"
         offset="0"
         style="stop-opacity:1;stop-color:#e6e7e8" /><stop
         id="stop140"
         offset="1"
         style="stop-opacity:1;stop-color:#d1d3d4" /></linearGradient></defs><g
     transform="matrix(1.25,0,0,-1.25,0,320)"
     id="g10"><g
       id="g12"><g
         clip-path="url(#clipPath16)"
         id="g14"><g
           id="g20"><g
             id="g22"><path
               id="path30"
               style="fill:url(#linearGradient24);stroke:none"
               d="M 56.549,199.436 C -2.848,140.038 -2.947,116.05 56.551,56.55 l 0,0 C 116.06,-2.958 140.017,-2.873 199.436,56.547 l 0,0 c 59.426,59.426 59.315,83.579 0.003,142.89 l 0,0 c -29.663,29.663 -50.545,44.512 -71.434,44.515 l 0,0 C 107.126,243.954 86.24,229.126 56.549,199.436" /></g></g></g></g><g
       id="g32"><g
         clip-path="url(#clipPath36)"
         id="g34"><g
           transform="translate(158.2383,168.4468)"
           id="g40"><path
             id="path42"
             style="fill:#999999;fill-opacity:1;fill-rule:nonzero;stroke:none"
             d="m 0,0 -2.858,39.553 -36.794,0 c -12.246,0 -22.704,-7.338 -23.385,-16.762 L -64.684,0 l -54.468,0 -6.717,-34.636 c -2.473,-12.748 7.731,-23.588 22.912,-23.588 l 34.066,0 -4.496,-62.223 51.221,0 c 17.048,0 29.883,13.635 28.731,29.579 l -2.358,32.644 61.555,0 -7.365,37.974 C 56.186,-8.846 43.58,0 30.146,0 L 0,0 Z" /></g></g></g><g
       id="g44"><g
         clip-path="url(#clipPath48)"
         id="g46"><g
           id="g52"><g
             id="g54"><path
               id="path62"
               style="fill:url(#linearGradient56);stroke:none"
               d="M 52,140.567 68.576,124 72,156 52,140.567 Z" /></g></g></g></g><g
       id="g64"><g
         clip-path="url(#clipPath68)"
         id="g66"><g
           id="g72"><g
             id="g74"><path
               id="path82"
               style="fill:url(#linearGradient76);stroke:none"
               d="m 110,182.424 36,0 -18,11.999 -18,-11.999 z" /></g></g></g></g><g
       id="g84"><g
         clip-path="url(#clipPath88)"
         id="g86"><g
           id="g92"><g
             id="g94"><path
               id="path102"
               style="fill:url(#linearGradient96);stroke:none"
               d="m 106,92 22,-20 22,20 -44,0 z" /></g></g></g></g><g
       id="g104"><g
         clip-path="url(#clipPath108)"
         id="g106"><g
           id="g112"><g
             id="g114"><path
               id="path122"
               style="fill:url(#linearGradient116);stroke:none"
               d="M 108.014,140.575 C 107.609,131.57 116.554,124 128,124 l 0,0 c 11.451,0 20.392,7.57 19.986,16.575 l 0,0 C 147.597,149.229 138.658,156 128,156 l 0,0 c -10.653,0 -19.598,-6.771 -19.986,-15.425" /></g></g></g></g><g
       id="g124"><g
         clip-path="url(#clipPath128)"
         id="g126"><g
           id="g132"><g
             id="g134"><path
               id="path142"
               style="fill:url(#linearGradient136);stroke:none"
               d="M 183.424,124 200,140.567 180,156 l 3.424,-32 z" /></g></g></g></g></g></svg>