<?xml version="1.0" encoding="UTF-8" standalone="no"?>
<svg
   xmlns:dc="http://purl.org/dc/elements/1.1/"
   xmlns:cc="http://creativecommons.org/ns#"
   xmlns:rdf="http://www.w3.org/1999/02/22-rdf-syntax-ns#"
   xmlns:svg="http://www.w3.org/2000/svg"
   xmlns="http://www.w3.org/2000/svg"
   viewBox="0 0 320 320"
   height="320"
   width="320"
   xml:space="preserve"
   version="1.1"
   id="svg2"><metadata
     id="metadata8"><rdf:RDF><cc:Work
         rdf:about=""><dc:format>image/svg+xml</dc:format><dc:type
           rdf:resource="http://purl.org/dc/dcmitype/StillImage" /></cc:Work></rdf:RDF></metadata><defs
     id="defs6"><clipPath
       id="clipPath16"
       clipPathUnits="userSpaceOnUse"><path
         id="path18"
         d="m 118.586,208 c -12.246,0 -22.704,-7.339 -23.385,-16.763 l 0,0 -1.647,-22.79 -54.468,0 -6.717,-34.636 C 29.897,121.063 40.1,110.222 55.282,110.222 l 0,0 34.066,0 L 84.851,48 l 51.222,0 c 17.048,0 29.882,13.635 28.73,29.579 l 0,0 -2.358,32.643 61.555,0 -7.365,37.974 c -2.212,11.406 -14.817,20.251 -28.25,20.251 l 0,0 -30.147,0 -2.858,39.553 -36.794,0 z" /></clipPath><linearGradient
       id="linearGradient24"
       spreadMethod="pad"
       gradientTransform="matrix(121.56892,-121.56892,-121.56892,-121.56892,61.003334,190.36363)"
       gradientUnits="userSpaceOnUse"
       y2="0"
       x2="1"
       y1="0"
       x1="0"><stop
         id="stop26"
         offset="0"
         style="stop-opacity:1;stop-color:#e6e7e8" /><stop
         id="stop28"
         offset="1"
         style="stop-opacity:1;stop-color:#d1d3d4" /></linearGradient><clipPath
       id="clipPath36"
       clipPathUnits="userSpaceOnUse"><path
         id="path38"
         d="M 0,256 256,256 256,0 0,0 0,256 Z" /></clipPath></defs><g
     transform="matrix(1.25,0,0,-1.25,0,320)"
     id="g10"><g
       id="g12"><g
         clip-path="url(#clipPath16)"
         id="g14"><g
           id="g20"><g
             id="g22"><path
               id="path30"
               style="fill:url(#linearGradient24);stroke:none"
               d="m 118.586,208 c -12.246,0 -22.704,-7.339 -23.385,-16.763 l 0,0 -1.647,-22.79 -54.468,0 -6.717,-34.636 C 29.897,121.063 40.1,110.222 55.282,110.222 l 0,0 34.066,0 L 84.851,48 l 51.222,0 c 17.048,0 29.882,13.635 28.73,29.579 l 0,0 -2.358,32.643 61.555,0 -7.365,37.974 c -2.212,11.406 -14.817,20.251 -28.25,20.251 l 0,0 -30.147,0 -2.858,39.553 -36.794,0 z" /></g></g></g></g><g
       id="g32"><g
         clip-path="url(#clipPath36)"
         id="g34"><g
           transform="translate(68.5763,124)"
           id="g40"><path
             id="path42"
             style="fill:#999999;fill-opacity:1;fill-rule:nonzero;stroke:none"
             d="M 0,0 -16.576,16.568 3.424,32 0,0 Z" /></g><g
           transform="translate(128,194.4238)"
           id="g44"><path
             id="path46"
             style="fill:#999999;fill-opacity:1;fill-rule:nonzero;stroke:none"
             d="M 0,0 18,-12 -18,-12 0,0 Z" /></g><g
           transform="translate(128,72)"
           id="g48"><path
             id="path50"
             style="fill:#999999;fill-opacity:1;fill-rule:nonzero;stroke:none"
             d="M 0,0 -22,20 22,20 0,0 Z" /></g><g
           transform="translate(128,124)"
           id="g52"><path
             id="path54"
             style="fill:#999999;fill-opacity:1;fill-rule:nonzero;stroke:none"
             d="M 0,0 C -11.447,0 -20.391,7.57 -19.987,16.575 -19.598,25.229 -10.653,32 0,32 10.657,32 19.598,25.229 19.987,16.575 20.391,7.57 11.451,0 0,0" /></g><g
           transform="translate(183.4236,124)"
           id="g56"><path
             id="path58"
             style="fill:#999999;fill-opacity:1;fill-rule:nonzero;stroke:none"
             d="m 0,0 -3.424,32 20,-15.432 L 0,0 Z" /></g></g></g></g></svg>