<?xml version="1.0" encoding="UTF-8" standalone="no"?>
<svg
   xmlns:dc="http://purl.org/dc/elements/1.1/"
   xmlns:cc="http://creativecommons.org/ns#"
   xmlns:rdf="http://www.w3.org/1999/02/22-rdf-syntax-ns#"
   xmlns:svg="http://www.w3.org/2000/svg"
   xmlns="http://www.w3.org/2000/svg"
   viewBox="0 0 320 320"
   height="320"
   width="320"
   xml:space="preserve"
   version="1.1"
   id="svg2"><metadata
     id="metadata8"><rdf:RDF><cc:Work
         rdf:about=""><dc:format>image/svg+xml</dc:format><dc:type
           rdf:resource="http://purl.org/dc/dcmitype/StillImage" /></cc:Work></rdf:RDF></metadata><defs
     id="defs6"><clipPath
       id="clipPath16"
       clipPathUnits="userSpaceOnUse"><path
         id="path18"
         d="m 36,244 c -2.209,0 -4,-1.791 -4,-4 l 0,0 0,-200 28,-28 155.998,0 c 4.419,0 8.001,3.583 8,8.002 l 0,0 L 224,240 c 0,2.209 -1.791,4 -4,4 l 0,0 -184,0 z" /></clipPath><linearGradient
       id="linearGradient24"
       spreadMethod="pad"
       gradientTransform="matrix(208.48442,-208.48442,-208.48442,-208.48442,29.585787,239.24265)"
       gradientUnits="userSpaceOnUse"
       y2="0"
       x2="1"
       y1="0"
       x1="0"><stop
         id="stop26"
         offset="0"
         style="stop-opacity:1;stop-color:#e6e7e8" /><stop
         id="stop28"
         offset="1"
         style="stop-opacity:1;stop-color:#d1d3d4" /></linearGradient><clipPath
       id="clipPath36"
       clipPathUnits="userSpaceOnUse"><path
         id="path38"
         d="M 0,256 256,256 256,0 0,0 0,256 Z" /></clipPath><clipPath
       id="clipPath48"
       clipPathUnits="userSpaceOnUse"><path
         id="path50"
         d="m 60,156.051 0,-0.049 C 59.999,142.767 70.713,132.028 83.948,132 l 0,0 c 13.255,-0.029 24.024,10.694 24.052,23.948 l 0,0 C 108.028,169.203 97.306,179.972 84.052,180 l 0,0 c -0.018,0 -0.034,0 -0.052,0 l 0,0 C 70.77,179.999 60.028,169.288 60,156.051" /></clipPath><linearGradient
       id="linearGradient56"
       spreadMethod="pad"
       gradientTransform="matrix(-33.941135,33.941135,33.941135,33.941135,100.97057,139.02942)"
       gradientUnits="userSpaceOnUse"
       y2="0"
       x2="1"
       y1="0"
       x1="0"><stop
         id="stop58"
         offset="0"
         style="stop-opacity:1;stop-color:#e6e7e8" /><stop
         id="stop60"
         offset="1"
         style="stop-opacity:1;stop-color:#d1d3d4" /></linearGradient><clipPath
       id="clipPath68"
       clipPathUnits="userSpaceOnUse"><path
         id="path70"
         d="M 0,256 256,256 256,0 0,0 0,256 Z" /></clipPath><clipPath
       id="clipPath80"
       clipPathUnits="userSpaceOnUse"><path
         id="path82"
         d="m 72,124 c -6.628,0 -12,-5.373 -12,-12 l 0,0 0,-56 c 0,-6.627 5.372,-12 12,-12 l 0,0 112,0 c 6.627,0 12,5.373 12,12 l 0,0 0,56 c 0,6.627 -5.373,12 -12,12 l 0,0 -112,0 z" /></clipPath><linearGradient
       id="linearGradient88"
       spreadMethod="pad"
       gradientTransform="matrix(-100.97057,100.97057,100.97057,100.97057,178.48528,33.514717)"
       gradientUnits="userSpaceOnUse"
       y2="0"
       x2="1"
       y1="0"
       x1="0"><stop
         id="stop90"
         offset="0"
         style="stop-opacity:1;stop-color:#e6e7e8" /><stop
         id="stop92"
         offset="1"
         style="stop-opacity:1;stop-color:#d1d3d4" /></linearGradient><clipPath
       id="clipPath100"
       clipPathUnits="userSpaceOnUse"><path
         id="path102"
         d="m 120,140 72,0 0,23.999 -72,0 0,-23.999 z" /></clipPath><linearGradient
       id="linearGradient108"
       spreadMethod="pad"
       gradientTransform="matrix(-47.999996,47.999996,47.999996,47.999996,180,128)"
       gradientUnits="userSpaceOnUse"
       y2="0"
       x2="1"
       y1="0"
       x1="0"><stop
         id="stop110"
         offset="0"
         style="stop-opacity:1;stop-color:#e6e7e8" /><stop
         id="stop112"
         offset="1"
         style="stop-opacity:1;stop-color:#d1d3d4" /></linearGradient><clipPath
       id="clipPath120"
       clipPathUnits="userSpaceOnUse"><path
         id="path122"
         d="M 0,256 256,256 256,0 0,0 0,256 Z" /></clipPath></defs><g
     transform="matrix(1.25,0,0,-1.25,0,320)"
     id="g10"><g
       id="g12"><g
         clip-path="url(#clipPath16)"
         id="g14"><g
           id="g20"><g
             id="g22"><path
               id="path30"
               style="fill:url(#linearGradient24);stroke:none"
               d="m 36,244 c -2.209,0 -4,-1.791 -4,-4 l 0,0 0,-200 28,-28 155.998,0 c 4.419,0 8.001,3.583 8,8.002 l 0,0 L 224,240 c 0,2.209 -1.791,4 -4,4 l 0,0 -184,0 z" /></g></g></g></g><g
       id="g32"><g
         clip-path="url(#clipPath36)"
         id="g34"><g
           transform="translate(68,128)"
           id="g40"><path
             id="path42"
             style="fill:#999999;fill-opacity:1;fill-rule:nonzero;stroke:none"
             d="m 0,0 120,0 c 6.627,0 12,-5.373 12,-12 l 0,-64 c 0,-6.627 -5.373,-12 -12,-12 L 0,-88 c -6.627,0 -12,5.373 -12,12 l 0,64 c 0,6.627 5.373,12 12,12" /></g></g></g><g
       id="g44"><g
         clip-path="url(#clipPath48)"
         id="g46"><g
           id="g52"><g
             id="g54"><path
               id="path62"
               style="fill:url(#linearGradient56);stroke:none"
               d="m 60,156.051 0,-0.049 C 59.999,142.767 70.713,132.028 83.948,132 l 0,0 c 13.255,-0.029 24.024,10.694 24.052,23.948 l 0,0 C 108.028,169.203 97.306,179.972 84.052,180 l 0,0 c -0.018,0 -0.034,0 -0.052,0 l 0,0 C 70.77,179.999 60.028,169.288 60,156.051" /></g></g></g></g><g
       id="g64"><g
         clip-path="url(#clipPath68)"
         id="g66"><g
           transform="translate(62,244)"
           id="g72"><path
             id="path74"
             style="fill:#ffffff;fill-opacity:1;fill-rule:nonzero;stroke:none"
             d="m 0,0 132,0 0,-52 c 0,-4.418 -3.582,-8 -8,-8 L 8,-60 c -4.418,0 -8,3.582 -8,8 L 0,0 Z" /></g></g></g><g
       id="g76"><g
         clip-path="url(#clipPath80)"
         id="g78"><g
           id="g84"><g
             id="g86"><path
               id="path94"
               style="fill:url(#linearGradient88);stroke:none"
               d="m 72,124 c -6.628,0 -12,-5.373 -12,-12 l 0,0 0,-56 c 0,-6.627 5.372,-12 12,-12 l 0,0 112,0 c 6.627,0 12,5.373 12,12 l 0,0 0,56 c 0,6.627 -5.373,12 -12,12 l 0,0 -112,0 z" /></g></g></g></g><g
       id="g96"><g
         clip-path="url(#clipPath100)"
         id="g98"><g
           id="g104"><g
             id="g106"><path
               id="path114"
               style="fill:url(#linearGradient108);stroke:none"
               d="m 120,140 72,0 0,23.999 -72,0 0,-23.999 z" /></g></g></g></g><g
       id="g116"><g
         clip-path="url(#clipPath120)"
         id="g118"><g
           transform="translate(74,40)"
           id="g124"><path
             id="path126"
             style="fill:#999999;fill-opacity:1;fill-rule:nonzero;stroke:none"
             d="m 0,0 0,39.365 c 3.913,0.852 8.032,1.614 12,2.096 L 12,0 l 2,0 0,41.671 c 2.08,0.203 4.103,0.329 6,0.329 2.007,0 4.018,-0.132 6,-0.358 L 26,0 l 2,0 0,41.378 c 4.324,-0.637 8.444,-1.687 12,-2.798 L 40,0 l 2,0 0,37.931 c 5.689,-1.918 9.515,-3.804 9.628,-3.86 0.158,-0.062 1.003,-0.397 2.372,-0.896 L 54,0 l 2,0 0,32.466 c 2.964,-1.027 7.196,-2.383 12,-3.589 L 68,0 l 2,0 0,28.393 c 3.83,-0.897 7.938,-1.662 12,-2.071 L 82,0 84,0 84,26.152 C 85.349,26.057 86.687,26 88,26 c 2.605,0 5.304,0.207 8,0.553 L 96,0 l 2,0 0,26.834 c 4.184,0.638 8.304,1.574 12,2.564 L 110,0 l 2,0 0,24 0,5.949 0,2.102 C 105.012,30.04 95.963,28 88,28 72.382,28 52.57,35.85 52.447,35.895 51.785,36.226 36.052,44 20,44 13.235,44 5.151,42.614 -2,40.993 L -2,40 -2,38.922 -2,0 0,0 Z" /></g><g
           transform="translate(72,96.9219)"
           id="g128"><path
             id="path130"
             style="fill:#999999;fill-opacity:1;fill-rule:nonzero;stroke:none"
             d="m 0,0 c 7.176,1.647 15.325,3.078 22,3.078 15.569,0 31.395,-7.815 31.628,-7.929 0.825,-0.329 20.364,-8.071 36.372,-8.071 8.051,0 16.993,1.958 24,3.947 l 0,0.053 0,2.051 0,29.949 -2,0 0,-30.503 c -3.69,-1.005 -7.814,-1.96 -12,-2.62 l 0,41.123 -2,0 0,-41.409 c -2.709,-0.359 -5.412,-0.591 -8,-0.591 -1.309,0 -2.647,0.06 -4,0.16 l 0,41.84 -2,0 0,-41.663 c -4.048,0.426 -8.169,1.217 -12,2.13 l 0,39.533 -2,0 0,-39.037 c -4.898,1.252 -9.178,2.644 -12,3.63 l 0,35.407 -2,0 0,-34.691 c -0.974,0.358 -1.533,0.578 -1.553,0.586 C 54.116,-2.862 50.02,-0.837 44,1.147 l 0,29.931 -2,0 L 42,1.78 C 38.429,2.869 34.324,3.879 30,4.487 l 0,26.591 -2,0 0,-26.338 c -1.976,0.215 -3.985,0.338 -6,0.338 -1.911,0 -3.929,-0.113 -6,-0.307 l 0,26.307 -2,0 L 14,4.56 C 10.021,4.093 5.908,3.352 2,2.513 l 0,28.565 -2,0 0,-20 L 0,2.071 0,0 Z" /></g><g
           transform="translate(56,83.0508)"
           id="g132"><path
             id="path134"
             style="fill:#999999;fill-opacity:1;fill-rule:nonzero;stroke:none"
             d="m 0,0 c 0.238,0.08 24.344,7.949 40,7.949 15.569,0 31.395,-7.815 31.628,-7.928 0.825,-0.33 20.364,-8.072 36.372,-8.072 15.003,0 33.107,6.8 36,7.925 l 0,2.004 c -0.199,-0.079 -20.382,-7.929 -36,-7.929 -15.618,0 -35.43,7.85 -35.553,7.895 C 71.785,2.175 56.052,9.949 40,9.949 24.802,9.949 2.949,2.968 0,2.002 L 0,0 Z" /></g></g></g></g></svg>