<?xml version="1.0" encoding="UTF-8" standalone="no"?>
<svg
   xmlns:dc="http://purl.org/dc/elements/1.1/"
   xmlns:cc="http://creativecommons.org/ns#"
   xmlns:rdf="http://www.w3.org/1999/02/22-rdf-syntax-ns#"
   xmlns:svg="http://www.w3.org/2000/svg"
   xmlns="http://www.w3.org/2000/svg"
   viewBox="0 0 320 320"
   height="320"
   width="320"
   xml:space="preserve"
   version="1.1"
   id="svg2"><metadata
     id="metadata8"><rdf:RDF><cc:Work
         rdf:about=""><dc:format>image/svg+xml</dc:format><dc:type
           rdf:resource="http://purl.org/dc/dcmitype/StillImage" /></cc:Work></rdf:RDF></metadata><defs
     id="defs6"><clipPath
       id="clipPath16"
       clipPathUnits="userSpaceOnUse"><path
         id="path18"
         d="M 15.728,240 C 13.669,240 12,238.337 12,236.286 l 0,0 0,-96.572 C 12,137.663 13.669,136 15.728,136 l 0,0 224.543,0 c 2.059,0 3.729,1.663 3.729,3.714 l 0,0 0,96.572 c 0,2.051 -1.67,3.714 -3.729,3.714 l 0,0 -224.543,0 z" /></clipPath><linearGradient
       id="linearGradient24"
       spreadMethod="pad"
       gradientTransform="matrix(165.82004,-165.82004,-165.82004,-165.82004,45.089977,270.91003)"
       gradientUnits="userSpaceOnUse"
       y2="0"
       x2="1"
       y1="0"
       x1="0"><stop
         id="stop26"
         offset="0"
         style="stop-opacity:1;stop-color:#e6e7e8" /><stop
         id="stop28"
         offset="1"
         style="stop-opacity:1;stop-color:#d1d3d4" /></linearGradient><clipPath
       id="clipPath36"
       clipPathUnits="userSpaceOnUse"><path
         id="path38"
         d="M 23.703,244 C 21.658,244 20,242.281 20,240.16 l 0,0 0,-88.32 c 0,-2.121 1.658,-3.84 3.703,-3.84 l 0,0 208.594,0 c 2.045,0 3.703,1.719 3.703,3.84 l 0,0 0,88.32 c 0,2.121 -1.658,3.84 -3.703,3.84 l 0,0 -208.594,0 z" /></clipPath><linearGradient
       id="linearGradient44"
       spreadMethod="pad"
       gradientTransform="matrix(-153.79163,153.79163,153.79163,153.79163,204.89581,119.10418)"
       gradientUnits="userSpaceOnUse"
       y2="0"
       x2="1"
       y1="0"
       x1="0"><stop
         id="stop46"
         offset="0"
         style="stop-opacity:1;stop-color:#e6e7e8" /><stop
         id="stop48"
         offset="1"
         style="stop-opacity:1;stop-color:#d1d3d4" /></linearGradient><clipPath
       id="clipPath56"
       clipPathUnits="userSpaceOnUse"><path
         id="path58"
         d="m 23.826,156 c -2.142,0 -3.867,-1.65 -3.867,-3.789 l 0,0 c 0,-2.14 -1.62,-3.79 -3.867,-3.79 l 0,0 c -2.246,0 -3.866,-1.69 -3.866,-3.789 l 0,0 0,-128.842 c 0,-2.1 1.724,-3.79 3.866,-3.79 l 0,0 224.267,0 c 2.142,0 3.867,1.69 3.867,3.79 l 0,0 0,128.842 c 0,2.099 -1.717,3.789 -3.867,3.789 l 0,0 c -2.151,0 -3.867,1.744 -3.867,3.79 l 0,0 c 0,2.045 -1.724,3.789 -3.866,3.789 l 0,0 -208.8,0 z" /></clipPath><linearGradient
       id="linearGradient64"
       spreadMethod="pad"
       gradientTransform="matrix(181.9928,-181.9928,-181.9928,-181.9928,37.220352,171.21748)"
       gradientUnits="userSpaceOnUse"
       y2="0"
       x2="1"
       y1="0"
       x1="0"><stop
         id="stop66"
         offset="0"
         style="stop-opacity:1;stop-color:#e6e7e8" /><stop
         id="stop68"
         offset="1"
         style="stop-opacity:1;stop-color:#d1d3d4" /></linearGradient><clipPath
       id="clipPath76"
       clipPathUnits="userSpaceOnUse"><path
         id="path78"
         d="M 0,256 256,256 256,0 0,0 0,256 Z" /></clipPath><clipPath
       id="clipPath88"
       clipPathUnits="userSpaceOnUse"><path
         id="path90"
         d="m 126.473,227.474 -19.556,-15.36 c -0.81,-0.637 -1.123,-1.707 -0.779,-2.669 l 0,0 c 0.344,-0.961 1.269,-1.605 2.307,-1.605 l 0,0 5.377,0 0,-1.44 c 0,-1.325 1.095,-2.4 2.445,-2.4 l 0,0 23.466,0 c 1.35,0 2.444,1.075 2.444,2.4 l 0,0 0,1.44 5.378,0 c 1.039,0 1.964,0.644 2.307,1.605 l 0,0 c 0.343,0.962 0.031,2.032 -0.78,2.669 l 0,0 -19.555,15.36 C 129.081,227.825 128.541,228 128,228 l 0,0 c -0.54,0 -1.081,-0.175 -1.527,-0.526 M 128,225.6 l 19.555,-15.36 -7.822,0 0,-3.84 -23.466,0 0,3.84 -7.822,0 L 128,225.6 Z" /></clipPath><linearGradient
       id="linearGradient96"
       spreadMethod="pad"
       gradientTransform="matrix(22.981218,-22.981218,-22.981218,-22.981218,116.50939,221.73061)"
       gradientUnits="userSpaceOnUse"
       y2="0"
       x2="1"
       y1="0"
       x1="0"><stop
         id="stop98"
         offset="0"
         style="stop-opacity:1;stop-color:#e6e7e8" /><stop
         id="stop100"
         offset="1"
         style="stop-opacity:1;stop-color:#d1d3d4" /></linearGradient></defs><g
     transform="matrix(1.25,0,0,-1.25,0,320)"
     id="g10"><g
       id="g12"><g
         clip-path="url(#clipPath16)"
         id="g14"><g
           id="g20"><g
             id="g22"><path
               id="path30"
               style="fill:url(#linearGradient24);stroke:none"
               d="M 15.728,240 C 13.669,240 12,238.337 12,236.286 l 0,0 0,-96.572 C 12,137.663 13.669,136 15.728,136 l 0,0 224.543,0 c 2.059,0 3.729,1.663 3.729,3.714 l 0,0 0,96.572 c 0,2.051 -1.67,3.714 -3.729,3.714 l 0,0 -224.543,0 z" /></g></g></g></g><g
       id="g32"><g
         clip-path="url(#clipPath36)"
         id="g34"><g
           id="g40"><g
             id="g42"><path
               id="path50"
               style="fill:url(#linearGradient44);stroke:none"
               d="M 23.703,244 C 21.658,244 20,242.281 20,240.16 l 0,0 0,-88.32 c 0,-2.121 1.658,-3.84 3.703,-3.84 l 0,0 208.594,0 c 2.045,0 3.703,1.719 3.703,3.84 l 0,0 0,88.32 c 0,2.121 -1.658,3.84 -3.703,3.84 l 0,0 -208.594,0 z" /></g></g></g></g><g
       id="g52"><g
         clip-path="url(#clipPath56)"
         id="g54"><g
           id="g60"><g
             id="g62"><path
               id="path70"
               style="fill:url(#linearGradient64);stroke:none"
               d="m 23.826,156 c -2.142,0 -3.867,-1.65 -3.867,-3.789 l 0,0 c 0,-2.14 -1.62,-3.79 -3.867,-3.79 l 0,0 c -2.246,0 -3.866,-1.69 -3.866,-3.789 l 0,0 0,-128.842 c 0,-2.1 1.724,-3.79 3.866,-3.79 l 0,0 224.267,0 c 2.142,0 3.867,1.69 3.867,3.79 l 0,0 0,128.842 c 0,2.099 -1.717,3.789 -3.867,3.789 l 0,0 c -2.151,0 -3.867,1.744 -3.867,3.79 l 0,0 c 0,2.045 -1.724,3.789 -3.866,3.789 l 0,0 -208.8,0 z" /></g></g></g></g><g
       id="g72"><g
         clip-path="url(#clipPath76)"
         id="g74"><g
           transform="translate(27.6924,140.5226)"
           id="g80"><path
             id="path82"
             style="fill:#ffffff;fill-opacity:1;fill-rule:nonzero;stroke:none"
             d="m 0,0 201.067,0 c 4.271,0 7.733,-3.462 7.733,-7.733 l 0,-100.534 c 0,-4.271 -3.462,-7.733 -7.733,-7.733 L 0,-116 c -4.271,0 -7.733,3.462 -7.733,7.733 l 0,100.534 C -7.733,-3.462 -4.271,0 0,0" /></g></g></g><g
       id="g84"><g
         clip-path="url(#clipPath88)"
         id="g86"><g
           id="g92"><g
             id="g94"><path
               id="path102"
               style="fill:url(#linearGradient96);stroke:none"
               d="m 126.473,227.474 -19.556,-15.36 c -0.81,-0.637 -1.123,-1.707 -0.779,-2.669 l 0,0 c 0.344,-0.961 1.269,-1.605 2.307,-1.605 l 0,0 5.377,0 0,-1.44 c 0,-1.325 1.095,-2.4 2.445,-2.4 l 0,0 23.466,0 c 1.35,0 2.444,1.075 2.444,2.4 l 0,0 0,1.44 5.378,0 c 1.039,0 1.964,0.644 2.307,1.605 l 0,0 c 0.343,0.962 0.031,2.032 -0.78,2.669 l 0,0 -19.555,15.36 C 129.081,227.825 128.541,228 128,228 l 0,0 c -0.54,0 -1.081,-0.175 -1.527,-0.526 M 128,225.6 l 19.555,-15.36 -7.822,0 0,-3.84 -23.466,0 0,3.84 -7.822,0 L 128,225.6 Z" /></g></g></g></g></g></svg>