<?xml version="1.0" encoding="UTF-8" standalone="no"?>
<svg
   xmlns:dc="http://purl.org/dc/elements/1.1/"
   xmlns:cc="http://creativecommons.org/ns#"
   xmlns:rdf="http://www.w3.org/1999/02/22-rdf-syntax-ns#"
   xmlns:svg="http://www.w3.org/2000/svg"
   xmlns="http://www.w3.org/2000/svg"
   viewBox="0 0 320 320"
   height="320"
   width="320"
   xml:space="preserve"
   version="1.1"
   id="svg2"><metadata
     id="metadata8"><rdf:RDF><cc:Work
         rdf:about=""><dc:format>image/svg+xml</dc:format><dc:type
           rdf:resource="http://purl.org/dc/dcmitype/StillImage" /></cc:Work></rdf:RDF></metadata><defs
     id="defs6"><clipPath
       id="clipPath18"
       clipPathUnits="userSpaceOnUse"><path
         id="path20"
         d="m 16,244 c -2.209,0 -4,-1.791 -4,-4 l 0,0 0,-224 c 0,-2.209 1.791,-4 4,-4 l 0,0 224,0 c 2.209,0 4,1.791 4,4 l 0,0 0,224 c 0,2.209 -1.791,4 -4,4 l 0,0 -224,0 z" /></clipPath><linearGradient
       id="linearGradient26"
       spreadMethod="pad"
       gradientTransform="matrix(229.65686,-229.65686,-229.65686,-229.65686,13.171573,242.82843)"
       gradientUnits="userSpaceOnUse"
       y2="0"
       x2="1"
       y1="0"
       x1="0"><stop
         id="stop28"
         offset="0"
         style="stop-opacity:1;stop-color:#e6e7e8" /><stop
         id="stop30"
         offset="1"
         style="stop-opacity:1;stop-color:#d1d3d4" /></linearGradient><clipPath
       id="clipPath38"
       clipPathUnits="userSpaceOnUse"><path
         id="path40"
         d="M 0,256 256,256 256,0 0,0 0,256 Z" /></clipPath></defs><g
     transform="matrix(1.25,0,0,-1.25,0,320)"
     id="g10"><path
       id="path12"
       style="fill:#999999;fill-opacity:1;fill-rule:nonzero;stroke:none"
       d="m 240,16 -224,0 0,224 224,0 0,-224 z" /><g
       id="g14"><g
         clip-path="url(#clipPath18)"
         id="g16"><g
           id="g22"><g
             id="g24"><path
               id="path32"
               style="fill:url(#linearGradient26);stroke:none"
               d="m 16,244 c -2.209,0 -4,-1.791 -4,-4 l 0,0 0,-224 c 0,-2.209 1.791,-4 4,-4 l 0,0 224,0 c 2.209,0 4,1.791 4,4 l 0,0 0,224 c 0,2.209 -1.791,4 -4,4 l 0,0 -224,0 z" /></g></g></g></g><g
       id="g34"><g
         clip-path="url(#clipPath38)"
         id="g36"><path
           id="path42"
           style="fill:#999999;fill-opacity:1;fill-rule:nonzero;stroke:none"
           d="m 240,240 -224,0 0,-224 224,0 0,224 z m -4,-220 -216,0 0,216 216,0 0,-216 z" /><g
           transform="translate(212,176)"
           id="g44"><path
             id="path46"
             style="fill:#999999;fill-opacity:1;fill-rule:nonzero;stroke:none"
             d="m 0,0 0,4 -12,0 0,-4 -4,0 0,-4 0,-4 -4,0 0,-4 0,-4 -4,0 0,-4 -4,0 0,-4 -4,0 0,-4 -4,0 0,-4 -8,0 0,-4 -8,0 0,-4 -4,0 0,-4 -8,0 0,-4 -4,0 0,4 0,4 8,0 0,4 4,0 0,4 4,0 0,4 -20,0 0,4 -4,0 0,4 -4,0 0,4 0,4 4,0 0,4 4,0 0,4 16,0 0,-4 12,0 0,4 0,4 4,0 0,4 4,0 0,4 0,4 4,0 0,4 0,4 0,4 -4,0 0,4 -16,0 0,-4 -4,0 0,-4 0,-4 0,-4 -4,0 0,4 -32,0 0,-4 -4,0 0,-4 -4,0 0,-4 -4,0 0,-4 -4,0 0,-4 0,-4 0,-4 0,-4 0,-4 0,-4 4,0 0,-4 4,0 0,-4 4,0 0,-4 4,0 0,-4 12,0 0,-4 0,-4 -8,0 0,4 -8,0 -8,0 0,4 -4,0 -4,0 0,4 -4,0 -4,0 -4,0 -4,0 0,4 -4,0 -4,0 -4,0 0,4 -4,0 0,8 -4,0 0,4 -4,0 0,4 -4,0 0,4 -4,0 -4,0 -4,0 -4,0 0,-4 -4,0 0,-16 4,0 0,-4 4,0 0,-4 4,0 0,-4 -4,0 0,-4 4,0 4,0 4,0 0,4 4,0 4,0 4,0 4,0 4,0 4,0 0,-4 4,0 4,0 4,0 0,-4 4,0 4,0 4,0 4,0 0,-4 8,0 4,0 0,-8 0,-4 -4,0 0,-8 -16,0 -8,0 0,-4 -8,0 0,-4 -4,0 0,4 0,4 0,4 -4,0 0,4 0,4 0,4 -4,0 0,4 -4,0 0,4 -12,0 0,-4 -4,0 0,-4 0,-4 0,-4 0,-4 0,-4 4,0 0,-4 0,-4 0,-4 4,0 0,-4 0,-4 4,0 0,-4 12,0 0,4 4,0 0,4 4,0 0,4 4,0 0,4 12,0 0,4 16,0 0,-4 44,0 0,-4 4,0 0,-4 -4,0 0,-4 -20,0 0,-4 -4,0 0,-4 0,-4 0,-4 4,0 0,-4 4,0 0,-4 4,0 0,-4 8,0 0,-4 20,0 0,4 4,0 0,4 0,4 0,4 0,4 -8,0 0,4 -12,0 0,4 4,0 0,4 4,0 0,4 4,0 0,4 0,4 -4,0 0,4 -4,0 0,4 -16,0 0,20 8,0 0,4 4,0 0,4 8,0 0,4 4,0 0,4 8,0 0,4 4,0 0,4 8,0 0,-4 4,0 0,-4 8,0 0,4 0,4 4,0 0,4 4,0 0,4 4,0 0,4 4,0 0,4 0,4 0,4 0,4 -8,0 z" /></g></g></g></g></svg>