<?xml version="1.0" encoding="UTF-8" standalone="no"?>
<svg
   xmlns:dc="http://purl.org/dc/elements/1.1/"
   xmlns:cc="http://creativecommons.org/ns#"
   xmlns:rdf="http://www.w3.org/1999/02/22-rdf-syntax-ns#"
   xmlns:svg="http://www.w3.org/2000/svg"
   xmlns="http://www.w3.org/2000/svg"
   viewBox="0 0 320 320"
   height="320"
   width="320"
   xml:space="preserve"
   version="1.1"
   id="svg2"><metadata
     id="metadata8"><rdf:RDF><cc:Work
         rdf:about=""><dc:format>image/svg+xml</dc:format><dc:type
           rdf:resource="http://purl.org/dc/dcmitype/StillImage" /></cc:Work></rdf:RDF></metadata><defs
     id="defs6"><clipPath
       id="clipPath20"
       clipPathUnits="userSpaceOnUse"><path
         id="path22"
         d="M 24.751,196 C 22.127,196 20,193.882 20,191.271 l 0,0 0,-126.542 C 20,62.117 22.127,60 24.751,60 l 0,0 206.499,0 c 2.623,0 4.75,2.117 4.75,4.729 l 0,0 0,126.542 c 0,2.611 -2.127,4.729 -4.75,4.729 l 0,0 -206.499,0 z" /></clipPath><linearGradient
       id="linearGradient28"
       spreadMethod="pad"
       gradientTransform="matrix(173.22343,-173.22343,-173.22343,-173.22343,41.388279,214.61172)"
       gradientUnits="userSpaceOnUse"
       y2="0"
       x2="1"
       y1="0"
       x1="0"><stop
         id="stop30"
         offset="0"
         style="stop-opacity:1;stop-color:#e6e7e8" /><stop
         id="stop32"
         offset="1"
         style="stop-opacity:1;stop-color:#d1d3d4" /></linearGradient><clipPath
       id="clipPath40"
       clipPathUnits="userSpaceOnUse"><path
         id="path42"
         d="M 66.826,188 C 64.161,188 62,185.836 62,183.165 l 0,0 0,-98.33 C 62,82.165 64.161,80 66.826,80 l 0,0 122.348,0 c 2.665,0 4.826,2.165 4.826,4.835 l 0,0 0,98.33 c 0,2.671 -2.161,4.835 -4.826,4.835 l 0,0 -122.348,0 z" /></clipPath><linearGradient
       id="linearGradient48"
       spreadMethod="pad"
       gradientTransform="matrix(-117.17034,117.17034,117.17034,117.17034,186.58517,75.414825)"
       gradientUnits="userSpaceOnUse"
       y2="0"
       x2="1"
       y1="0"
       x1="0"><stop
         id="stop50"
         offset="0"
         style="stop-opacity:1;stop-color:#e6e7e8" /><stop
         id="stop52"
         offset="1"
         style="stop-opacity:1;stop-color:#d1d3d4" /></linearGradient><clipPath
       id="clipPath60"
       clipPathUnits="userSpaceOnUse"><path
         id="path62"
         d="M 0,256 256,256 256,0 0,0 0,256 Z" /></clipPath><clipPath
       id="clipPath72"
       clipPathUnits="userSpaceOnUse"><path
         id="path74"
         d="m 76,100 104,0 0,68 -104,0 0,-68 z" /></clipPath><linearGradient
       id="linearGradient80"
       spreadMethod="pad"
       gradientTransform="matrix(86,-86,-86,-86,85,177)"
       gradientUnits="userSpaceOnUse"
       y2="0"
       x2="1"
       y1="0"
       x1="0"><stop
         id="stop82"
         offset="0"
         style="stop-opacity:1;stop-color:#e6e7e8" /><stop
         id="stop84"
         offset="1"
         style="stop-opacity:1;stop-color:#d1d3d4" /></linearGradient><clipPath
       id="clipPath92"
       clipPathUnits="userSpaceOnUse"><path
         id="path94"
         d="M 0,256 256,256 256,0 0,0 0,256 Z" /></clipPath><clipPath
       id="clipPath108"
       clipPathUnits="userSpaceOnUse"><path
         id="path110"
         d="m 30,94 c 0,-4.419 3.582,-8 8,-8 l 0,0 c 4.418,0 8,3.581 8,8 l 0,0 c 0,4.419 -3.582,8 -8,8 l 0,0 c -4.418,0 -8,-3.581 -8,-8" /></clipPath><linearGradient
       id="linearGradient116"
       spreadMethod="pad"
       gradientTransform="matrix(-11.313708,11.313708,11.313708,11.313708,43.656853,88.34314)"
       gradientUnits="userSpaceOnUse"
       y2="0"
       x2="1"
       y1="0"
       x1="0"><stop
         id="stop118"
         offset="0"
         style="stop-opacity:1;stop-color:#e6e7e8" /><stop
         id="stop120"
         offset="1"
         style="stop-opacity:1;stop-color:#d1d3d4" /></linearGradient><clipPath
       id="clipPath128"
       clipPathUnits="userSpaceOnUse"><path
         id="path130"
         d="M 0,256 256,256 256,0 0,0 0,256 Z" /></clipPath><clipPath
       id="clipPath140"
       clipPathUnits="userSpaceOnUse"><path
         id="path142"
         d="m 206,94 c 0,-4.419 3.582,-8 8,-8 l 0,0 c 4.418,0 8,3.581 8,8 l 0,0 c 0,4.419 -3.582,8 -8,8 l 0,0 c -4.418,0 -8,-3.581 -8,-8" /></clipPath><linearGradient
       id="linearGradient148"
       spreadMethod="pad"
       gradientTransform="matrix(-11.313708,11.313708,11.313708,11.313708,219.65686,88.34314)"
       gradientUnits="userSpaceOnUse"
       y2="0"
       x2="1"
       y1="0"
       x1="0"><stop
         id="stop150"
         offset="0"
         style="stop-opacity:1;stop-color:#e6e7e8" /><stop
         id="stop152"
         offset="1"
         style="stop-opacity:1;stop-color:#d1d3d4" /></linearGradient><clipPath
       id="clipPath160"
       clipPathUnits="userSpaceOnUse"><path
         id="path162"
         d="M 129.861,76 C 126.629,76 124,73.309 124,70 l 0,0 c 0,-3.308 2.629,-6 5.861,-6 l 0,0 4.278,0 c 3.232,0 5.861,2.692 5.861,6 l 0,0 c 0,3.309 -2.629,6 -5.861,6 l 0,0 -4.278,0 z" /></clipPath><linearGradient
       id="linearGradient168"
       spreadMethod="pad"
       gradientTransform="matrix(-10.522613,10.522613,10.522613,10.522613,137.26131,64.738693)"
       gradientUnits="userSpaceOnUse"
       y2="0"
       x2="1"
       y1="0"
       x1="0"><stop
         id="stop170"
         offset="0"
         style="stop-opacity:1;stop-color:#e6e7e8" /><stop
         id="stop172"
         offset="1"
         style="stop-opacity:1;stop-color:#d1d3d4" /></linearGradient><clipPath
       id="clipPath180"
       clipPathUnits="userSpaceOnUse"><path
         id="path182"
         d="M 0,256 256,256 256,0 0,0 0,256 Z" /></clipPath><clipPath
       id="clipPath192"
       clipPathUnits="userSpaceOnUse"><path
         id="path194"
         d="M 153.861,76 C 150.629,76 148,73.309 148,70 l 0,0 c 0,-3.308 2.629,-6 5.861,-6 l 0,0 4.278,0 c 3.232,0 5.861,2.692 5.861,6 l 0,0 c 0,3.309 -2.629,6 -5.861,6 l 0,0 -4.278,0 z" /></clipPath><linearGradient
       id="linearGradient200"
       spreadMethod="pad"
       gradientTransform="matrix(-10.522613,10.522613,10.522613,10.522613,161.26131,64.738693)"
       gradientUnits="userSpaceOnUse"
       y2="0"
       x2="1"
       y1="0"
       x1="0"><stop
         id="stop202"
         offset="0"
         style="stop-opacity:1;stop-color:#e6e7e8" /><stop
         id="stop204"
         offset="1"
         style="stop-opacity:1;stop-color:#d1d3d4" /></linearGradient><clipPath
       id="clipPath212"
       clipPathUnits="userSpaceOnUse"><path
         id="path214"
         d="M 0,256 256,256 256,0 0,0 0,256 Z" /></clipPath><clipPath
       id="clipPath224"
       clipPathUnits="userSpaceOnUse"><path
         id="path226"
         d="M 177.861,76 C 174.63,76 172,73.309 172,70 l 0,0 c 0,-3.308 2.63,-6 5.861,-6 l 0,0 4.278,0 c 3.231,0 5.861,2.692 5.861,6 l 0,0 c 0,3.309 -2.63,6 -5.861,6 l 0,0 -4.278,0 z" /></clipPath><linearGradient
       id="linearGradient232"
       spreadMethod="pad"
       gradientTransform="matrix(-10.522613,10.522613,10.522613,10.522613,185.26131,64.738693)"
       gradientUnits="userSpaceOnUse"
       y2="0"
       x2="1"
       y1="0"
       x1="0"><stop
         id="stop234"
         offset="0"
         style="stop-opacity:1;stop-color:#e6e7e8" /><stop
         id="stop236"
         offset="1"
         style="stop-opacity:1;stop-color:#d1d3d4" /></linearGradient><clipPath
       id="clipPath244"
       clipPathUnits="userSpaceOnUse"><path
         id="path246"
         d="M 0,256 256,256 256,0 0,0 0,256 Z" /></clipPath></defs><g
     transform="matrix(1.25,0,0,-1.25,0,320)"
     id="g10"><g
       transform="translate(244,204)"
       id="g12"><path
         id="path14"
         style="fill:#999999;fill-opacity:1;fill-rule:nonzero;stroke:none"
         d="m 0,0 -6.121,0 -219.758,0 -6.121,0 0,-6.152 0,-139.696 0,-6.152 6.121,0 219.758,0 6.121,0 0,6.152 L 0,-6.152 0,0 Z" /></g><g
       id="g16"><g
         clip-path="url(#clipPath20)"
         id="g18"><g
           id="g24"><g
             id="g26"><path
               id="path34"
               style="fill:url(#linearGradient28);stroke:none"
               d="M 24.751,196 C 22.127,196 20,193.882 20,191.271 l 0,0 0,-126.542 C 20,62.117 22.127,60 24.751,60 l 0,0 206.499,0 c 2.623,0 4.75,2.117 4.75,4.729 l 0,0 0,126.542 c 0,2.611 -2.127,4.729 -4.75,4.729 l 0,0 -206.499,0 z" /></g></g></g></g><g
       id="g36"><g
         clip-path="url(#clipPath40)"
         id="g38"><g
           id="g44"><g
             id="g46"><path
               id="path54"
               style="fill:url(#linearGradient48);stroke:none"
               d="M 66.826,188 C 64.161,188 62,185.836 62,183.165 l 0,0 0,-98.33 C 62,82.165 64.161,80 66.826,80 l 0,0 122.348,0 c 2.665,0 4.826,2.165 4.826,4.835 l 0,0 0,98.33 c 0,2.671 -2.161,4.835 -4.826,4.835 l 0,0 -122.348,0 z" /></g></g></g></g><g
       id="g56"><g
         clip-path="url(#clipPath60)"
         id="g58"><g
           transform="translate(180.1631,172)"
           id="g64"><path
             id="path66"
             style="fill:#999999;fill-opacity:1;fill-rule:nonzero;stroke:none"
             d="m 0,0 -104.326,0 c -2.119,0 -3.837,-1.691 -3.837,-3.776 l 0,-68.448 c 0,-2.085 1.718,-3.776 3.837,-3.776 L 0,-76 c 2.119,0 3.837,1.691 3.837,3.776 l 0,68.448 C 3.837,-1.691 2.119,0 0,0" /></g></g></g><g
       id="g68"><g
         clip-path="url(#clipPath72)"
         id="g70"><g
           id="g76"><g
             id="g78"><path
               id="path86"
               style="fill:url(#linearGradient80);stroke:none"
               d="m 76,100 104,0 0,68 -104,0 0,-68 z" /></g></g></g></g><g
       id="g88"><g
         clip-path="url(#clipPath92)"
         id="g90"><g
           transform="translate(92,74)"
           id="g96"><path
             id="path98"
             style="fill:#999999;fill-opacity:1;fill-rule:nonzero;stroke:none"
             d="m 0,0 c 0,-1.105 -0.895,-2 -2,-2 -1.105,0 -2,0.895 -2,2 0,1.105 0.895,2 2,2 1.105,0 2,-0.895 2,-2" /></g><g
           transform="translate(38,104)"
           id="g100"><path
             id="path102"
             style="fill:#999999;fill-opacity:1;fill-rule:nonzero;stroke:none"
             d="m 0,0 c -5.514,0 -10,-4.486 -10,-10 0,-5.514 4.486,-10 10,-10 5.514,0 10,4.486 10,10 C 10,-4.486 5.514,0 0,0" /></g></g></g><g
       id="g104"><g
         clip-path="url(#clipPath108)"
         id="g106"><g
           id="g112"><g
             id="g114"><path
               id="path122"
               style="fill:url(#linearGradient116);stroke:none"
               d="m 30,94 c 0,-4.419 3.582,-8 8,-8 l 0,0 c 4.418,0 8,3.581 8,8 l 0,0 c 0,4.419 -3.582,8 -8,8 l 0,0 c -4.418,0 -8,-3.581 -8,-8" /></g></g></g></g><g
       id="g124"><g
         clip-path="url(#clipPath128)"
         id="g126"><g
           transform="translate(214,104)"
           id="g132"><path
             id="path134"
             style="fill:#999999;fill-opacity:1;fill-rule:nonzero;stroke:none"
             d="m 0,0 c -5.514,0 -10,-4.486 -10,-10 0,-5.514 4.486,-10 10,-10 5.514,0 10,4.486 10,10 C 10,-4.486 5.514,0 0,0" /></g></g></g><g
       id="g136"><g
         clip-path="url(#clipPath140)"
         id="g138"><g
           id="g144"><g
             id="g146"><path
               id="path154"
               style="fill:url(#linearGradient148);stroke:none"
               d="m 206,94 c 0,-4.419 3.582,-8 8,-8 l 0,0 c 4.418,0 8,3.581 8,8 l 0,0 c 0,4.419 -3.582,8 -8,8 l 0,0 c -4.418,0 -8,-3.581 -8,-8" /></g></g></g></g><g
       id="g156"><g
         clip-path="url(#clipPath160)"
         id="g158"><g
           id="g164"><g
             id="g166"><path
               id="path174"
               style="fill:url(#linearGradient168);stroke:none"
               d="M 129.861,76 C 126.629,76 124,73.309 124,70 l 0,0 c 0,-3.308 2.629,-6 5.861,-6 l 0,0 4.278,0 c 3.232,0 5.861,2.692 5.861,6 l 0,0 c 0,3.309 -2.629,6 -5.861,6 l 0,0 -4.278,0 z" /></g></g></g></g><g
       id="g176"><g
         clip-path="url(#clipPath180)"
         id="g178"><g
           transform="translate(134.453,66)"
           id="g184"><path
             id="path186"
             style="fill:#999999;fill-opacity:1;fill-rule:nonzero;stroke:none"
             d="m 0,0 -4.906,0 c -1.959,0 -3.547,1.697 -3.547,3.79 l 0,0.42 c 0,2.093 1.588,3.79 3.547,3.79 L 0,8 C 1.959,8 3.547,6.303 3.547,4.21 l 0,-0.42 C 3.547,1.697 1.959,0 0,0" /></g></g></g><g
       id="g188"><g
         clip-path="url(#clipPath192)"
         id="g190"><g
           id="g196"><g
             id="g198"><path
               id="path206"
               style="fill:url(#linearGradient200);stroke:none"
               d="M 153.861,76 C 150.629,76 148,73.309 148,70 l 0,0 c 0,-3.308 2.629,-6 5.861,-6 l 0,0 4.278,0 c 3.232,0 5.861,2.692 5.861,6 l 0,0 c 0,3.309 -2.629,6 -5.861,6 l 0,0 -4.278,0 z" /></g></g></g></g><g
       id="g208"><g
         clip-path="url(#clipPath212)"
         id="g210"><g
           transform="translate(158.453,66)"
           id="g216"><path
             id="path218"
             style="fill:#999999;fill-opacity:1;fill-rule:nonzero;stroke:none"
             d="m 0,0 -4.906,0 c -1.959,0 -3.547,1.697 -3.547,3.79 l 0,0.42 c 0,2.093 1.588,3.79 3.547,3.79 L 0,8 C 1.959,8 3.547,6.303 3.547,4.21 l 0,-0.42 C 3.547,1.697 1.959,0 0,0" /></g></g></g><g
       id="g220"><g
         clip-path="url(#clipPath224)"
         id="g222"><g
           id="g228"><g
             id="g230"><path
               id="path238"
               style="fill:url(#linearGradient232);stroke:none"
               d="M 177.861,76 C 174.63,76 172,73.309 172,70 l 0,0 c 0,-3.308 2.63,-6 5.861,-6 l 0,0 4.278,0 c 3.231,0 5.861,2.692 5.861,6 l 0,0 c 0,3.309 -2.63,6 -5.861,6 l 0,0 -4.278,0 z" /></g></g></g></g><g
       id="g240"><g
         clip-path="url(#clipPath244)"
         id="g242"><g
           transform="translate(182.453,66)"
           id="g248"><path
             id="path250"
             style="fill:#999999;fill-opacity:1;fill-rule:nonzero;stroke:none"
             d="m 0,0 -4.906,0 c -1.959,0 -3.547,1.697 -3.547,3.79 l 0,0.42 c 0,2.093 1.588,3.79 3.547,3.79 L 0,8 C 1.959,8 3.547,6.303 3.547,4.21 l 0,-0.42 C 3.547,1.697 1.959,0 0,0" /></g></g></g></g></svg>