<?xml version="1.0" encoding="UTF-8" standalone="no"?>
<svg
   xmlns:dc="http://purl.org/dc/elements/1.1/"
   xmlns:cc="http://creativecommons.org/ns#"
   xmlns:rdf="http://www.w3.org/1999/02/22-rdf-syntax-ns#"
   xmlns:svg="http://www.w3.org/2000/svg"
   xmlns="http://www.w3.org/2000/svg"
   viewBox="0 0 341.33334 341.33334"
   height="256"
   width="256"
   xml:space="preserve"
   id="svg2"
   version="1.1"><metadata
     id="metadata8"><rdf:RDF><cc:Work
         rdf:about=""><dc:format>image/svg+xml</dc:format><dc:type
           rdf:resource="http://purl.org/dc/dcmitype/StillImage" /></cc:Work></rdf:RDF></metadata><defs
     id="defs6"><clipPath
       id="clipPath18"
       clipPathUnits="userSpaceOnUse"><path
         id="path16"
         d="M 90.285,184 C 86.813,184 84,181.216 84,177.778 v 0 -99.555 C 84,74.785 86.813,72 90.285,72 v 0 h 75.429 c 3.473,0 6.286,2.785 6.286,6.223 v 0 74.666 L 140.571,184 Z" /></clipPath><linearGradient
       id="linearGradient28"
       spreadMethod="pad"
       gradientTransform="matrix(96.337631,-96.337631,-96.337631,-96.337631,72.968994,169.30663)"
       gradientUnits="userSpaceOnUse"
       y2="0"
       x2="1"
       y1="0"
       x1="0"><stop
         id="stop24"
         offset="0"
         style="stop-opacity:1;stop-color:#e6e7e8" /><stop
         id="stop26"
         offset="1"
         style="stop-opacity:1;stop-color:#d1d3d4" /></linearGradient><clipPath
       id="clipPath38"
       clipPathUnits="userSpaceOnUse"><path
         id="path36"
         d="M 92,176 V 80 h 72 v 69.599 L 137.137,176 Z" /></clipPath><linearGradient
       id="linearGradient48"
       spreadMethod="pad"
       gradientTransform="matrix(-84,84,84,84,163.39969,79.399689)"
       gradientUnits="userSpaceOnUse"
       y2="0"
       x2="1"
       y1="0"
       x1="0"><stop
         id="stop44"
         offset="0"
         style="stop-opacity:1;stop-color:#e6e7e8" /><stop
         id="stop46"
         offset="1"
         style="stop-opacity:1;stop-color:#d1d3d4" /></linearGradient><clipPath
       id="clipPath58"
       clipPathUnits="userSpaceOnUse"><path
         id="path56"
         d="M 0,256 H 256 V 0 H 0 Z" /></clipPath></defs><g
     transform="matrix(1.3333333,0,0,-1.3333333,0,341.33333)"
     id="g10"><g
       id="g12"><g
         clip-path="url(#clipPath18)"
         id="g14"><g
           id="g20"><g
             id="g22"><path
               id="path30"
               style="fill:url(#linearGradient28);stroke:none"
               d="M 90.285,184 C 86.813,184 84,181.216 84,177.778 v 0 -99.555 C 84,74.785 86.813,72 90.285,72 v 0 h 75.429 c 3.473,0 6.286,2.785 6.286,6.223 v 0 74.666 L 140.571,184 Z" /></g></g></g></g><g
       id="g32"><g
         clip-path="url(#clipPath38)"
         id="g34"><g
           id="g40"><g
             id="g42"><path
               id="path50"
               style="fill:url(#linearGradient48);stroke:none"
               d="M 92,176 V 80 h 72 v 69.599 L 137.137,176 Z" /></g></g></g></g><g
       id="g52"><g
         clip-path="url(#clipPath58)"
         id="g54"><g
           transform="translate(155.2128,150)"
           id="g60"><path
             id="path62"
             style="fill:#ffffff;fill-opacity:1;fill-rule:nonzero;stroke:none"
             d="m 0,0 h -12.813 c -3.536,0 -6.4,2.864 -6.4,6.4 V 19.2 32 l 32,-32 z" /></g><g
           transform="translate(88,80)"
           id="g64"><path
             id="path66"
             style="fill:#999999;fill-opacity:1;fill-rule:nonzero;stroke:none"
             d="M 0,0 H 80 V 28 L 56,52 32,28 20,40 0,20 Z" /></g><g
           transform="translate(100,146)"
           id="g68"><path
             id="path70"
             style="fill:#ffffff;fill-opacity:1;fill-rule:nonzero;stroke:none"
             d="m 0,0 c 0,-3.314 -2.686,-6 -6,-6 -3.314,0 -6,2.686 -6,6 0,3.314 2.686,6 6,6 3.314,0 6,-2.686 6,-6" /></g></g></g></g></svg>