<?xml version="1.0" encoding="UTF-8" standalone="no"?>
<svg
   xmlns:dc="http://purl.org/dc/elements/1.1/"
   xmlns:cc="http://creativecommons.org/ns#"
   xmlns:rdf="http://www.w3.org/1999/02/22-rdf-syntax-ns#"
   xmlns:svg="http://www.w3.org/2000/svg"
   xmlns="http://www.w3.org/2000/svg"
   viewBox="0 0 320 320"
   height="320"
   width="320"
   xml:space="preserve"
   version="1.1"
   id="svg2"><metadata
     id="metadata8"><rdf:RDF><cc:Work
         rdf:about=""><dc:format>image/svg+xml</dc:format><dc:type
           rdf:resource="http://purl.org/dc/dcmitype/StillImage" /></cc:Work></rdf:RDF></metadata><defs
     id="defs6"><clipPath
       id="clipPath16"
       clipPathUnits="userSpaceOnUse"><path
         id="path18"
         d="M 0,256 256,256 256,0 0,0 0,256 Z" /></clipPath><clipPath
       id="clipPath40"
       clipPathUnits="userSpaceOnUse"><path
         id="path42"
         d="M 70,184 C 37.967,184 12,158.033 12,126 l 0,0 0,-18 C 12,85.909 29.909,68 52,68 l 0,0 51.719,0 c 2.675,0 5.172,1.337 6.656,3.563 l 0,0 3.25,4.875 c 1.484,2.225 3.982,3.562 6.656,3.562 l 0,0 15.438,0 c 2.675,0 5.172,-1.337 6.656,-3.562 l 0,0 2.953,-4.43 C 146.997,69.504 149.808,68 152.816,68 l 0,0 51.184,0 c 22.092,0 40,17.909 40,40 l 0,0 0,18 c 0,32.033 -25.968,58 -58,58 l 0,0 -116,0 z" /></clipPath><linearGradient
       id="linearGradient48"
       spreadMethod="pad"
       gradientTransform="matrix(145.29648,-145.29648,-145.29648,-145.29648,55.351757,193.37617)"
       gradientUnits="userSpaceOnUse"
       y2="0"
       x2="1"
       y1="0"
       x1="0"><stop
         id="stop50"
         offset="0"
         style="stop-opacity:1;stop-color:#e6e7e8" /><stop
         id="stop52"
         offset="1"
         style="stop-opacity:1;stop-color:#d1d3d4" /></linearGradient><clipPath
       id="clipPath60"
       clipPathUnits="userSpaceOnUse"><path
         id="path62"
         d="M 0,256 256,256 256,0 0,0 0,256 Z" /></clipPath><clipPath
       id="clipPath108"
       clipPathUnits="userSpaceOnUse"><path
         id="path110"
         d="m 84,92 c 0,-6.627 5.373,-12 12,-12 l 0,0 c 6.627,0 12,5.373 12,12 l 0,0 c 0,6.627 -5.373,12 -12,12 l 0,0 C 89.373,104 84,98.627 84,92" /></clipPath><linearGradient
       id="linearGradient116"
       spreadMethod="pad"
       gradientTransform="matrix(16.970562,-16.970562,-16.970562,-16.970562,87.514717,100.48528)"
       gradientUnits="userSpaceOnUse"
       y2="0"
       x2="1"
       y1="0"
       x1="0"><stop
         id="stop118"
         offset="0"
         style="stop-opacity:1;stop-color:#e6e7e8" /><stop
         id="stop120"
         offset="1"
         style="stop-opacity:1;stop-color:#d1d3d4" /></linearGradient><clipPath
       id="clipPath128"
       clipPathUnits="userSpaceOnUse"><path
         id="path130"
         d="m 148,92 c 0,-6.627 5.373,-12 12,-12 l 0,0 c 6.627,0 12,5.373 12,12 l 0,0 c 0,6.627 -5.373,12 -12,12 l 0,0 c -6.627,0 -12,-5.373 -12,-12" /></clipPath><linearGradient
       id="linearGradient136"
       spreadMethod="pad"
       gradientTransform="matrix(16.970562,-16.970562,-16.970562,-16.970562,151.51472,100.48528)"
       gradientUnits="userSpaceOnUse"
       y2="0"
       x2="1"
       y1="0"
       x1="0"><stop
         id="stop138"
         offset="0"
         style="stop-opacity:1;stop-color:#e6e7e8" /><stop
         id="stop140"
         offset="1"
         style="stop-opacity:1;stop-color:#d1d3d4" /></linearGradient><clipPath
       id="clipPath148"
       clipPathUnits="userSpaceOnUse"><path
         id="path150"
         d="m 52,138 c 0,-3.313 2.687,-6 6,-6 l 0,0 c 3.313,0 6,2.687 6,6 l 0,0 c 0,3.313 -2.687,6 -6,6 l 0,0 c -3.313,0 -6,-2.687 -6,-6" /></clipPath><linearGradient
       id="linearGradient156"
       spreadMethod="pad"
       gradientTransform="matrix(12,0,0,-12,52,138)"
       gradientUnits="userSpaceOnUse"
       y2="0"
       x2="1"
       y1="0"
       x1="0"><stop
         id="stop158"
         offset="0"
         style="stop-opacity:1;stop-color:#e6e7e8" /><stop
         id="stop160"
         offset="1"
         style="stop-opacity:1;stop-color:#d1d3d4" /></linearGradient></defs><g
     transform="matrix(1.25,0,0,-1.25,0,320)"
     id="g10"><g
       id="g12"><g
         clip-path="url(#clipPath16)"
         id="g14"><g
           transform="translate(156,188)"
           id="g20"><path
             id="path22"
             style="fill:#999999;fill-opacity:1;fill-rule:nonzero;stroke:none"
             d="m 0,0 c -2.209,0 -4,-1.791 -4,-4 l 0,-16 c 0,-2.209 1.791,-4 4,-4 l 24,0 0,20 c 0,2.209 -1.791,4 -4,4 L 0,0 Z" /></g><g
           transform="translate(227.2227,170.7817)"
           id="g24"><path
             id="path26"
             style="fill:#999999;fill-opacity:1;fill-rule:nonzero;stroke:none"
             d="m 0,0 c -10.514,10.629 -23.094,17.218 -39.223,17.218 -2.209,0 -4,-1.791 -4,-4 l 0,-20 40.338,0 C 0.646,-6.782 2.483,-2.51 0,0" /></g><g
           transform="translate(68,188)"
           id="g28"><path
             id="path30"
             style="fill:#999999;fill-opacity:1;fill-rule:nonzero;stroke:none"
             d="M 0,0 C -16.129,0 -28.709,-6.589 -39.223,-17.218 -41.706,-19.728 -39.869,-24 -36.338,-24 L 4,-24 4,-4 C 4,-1.791 2.209,0 0,0" /></g><g
           transform="translate(100,188)"
           id="g32"><path
             id="path34"
             style="fill:#999999;fill-opacity:1;fill-rule:nonzero;stroke:none"
             d="m 0,0 -20,0 c -2.209,0 -4,-1.791 -4,-4 l 0,-20 24,0 c 2.209,0 4,1.791 4,4 L 4,-4 C 4,-1.791 2.209,0 0,0" /></g></g></g><g
       id="g36"><g
         clip-path="url(#clipPath40)"
         id="g38"><g
           id="g44"><g
             id="g46"><path
               id="path54"
               style="fill:url(#linearGradient48);stroke:none"
               d="M 70,184 C 37.967,184 12,158.033 12,126 l 0,0 0,-18 C 12,85.909 29.909,68 52,68 l 0,0 51.719,0 c 2.675,0 5.172,1.337 6.656,3.563 l 0,0 3.25,4.875 c 1.484,2.225 3.982,3.562 6.656,3.562 l 0,0 15.438,0 c 2.675,0 5.172,-1.337 6.656,-3.562 l 0,0 2.953,-4.43 C 146.997,69.504 149.808,68 152.816,68 l 0,0 51.184,0 c 22.092,0 40,17.909 40,40 l 0,0 0,18 c 0,32.033 -25.968,58 -58,58 l 0,0 -116,0 z" /></g></g></g></g><g
       id="g56"><g
         clip-path="url(#clipPath60)"
         id="g58"><g
           transform="translate(82,128)"
           id="g64"><path
             id="path66"
             style="fill:#999999;fill-opacity:1;fill-rule:nonzero;stroke:none"
             d="m 0,0 -48,0 c -1.104,0 -2,0.896 -2,2 l 0,16 c 0,1.104 0.896,2 2,2 l 48,0 c 1.104,0 2,-0.896 2,-2 L 2,2 C 2,0.896 1.104,0 0,0" /></g><g
           transform="translate(48,114)"
           id="g68"><path
             id="path70"
             style="fill:#999999;fill-opacity:1;fill-rule:nonzero;stroke:none"
             d="m 0,0 0,48 c 0,1.104 0.896,2 2,2 l 16,0 c 1.104,0 2,-0.896 2,-2 L 20,0 c 0,-1.104 -0.896,-2 -2,-2 L 2,-2 C 0.896,-2 0,-1.104 0,0" /></g><g
           transform="translate(112,92)"
           id="g72"><path
             id="path74"
             style="fill:#999999;fill-opacity:1;fill-rule:nonzero;stroke:none"
             d="m 0,0 c 0,-8.837 -7.164,-16 -16,-16 -8.836,0 -16,7.163 -16,16 0,8.837 7.164,16 16,16 C -7.164,16 0,8.837 0,0" /></g><g
           transform="translate(176,92)"
           id="g76"><path
             id="path78"
             style="fill:#999999;fill-opacity:1;fill-rule:nonzero;stroke:none"
             d="m 0,0 c 0,-8.837 -7.163,-16 -16,-16 -8.837,0 -16,7.163 -16,16 0,8.837 7.163,16 16,16 C -7.163,16 0,8.837 0,0" /></g><g
           transform="translate(172,138)"
           id="g80"><path
             id="path82"
             style="fill:#999999;fill-opacity:1;fill-rule:nonzero;stroke:none"
             d="m 0,0 c 0,-5.523 4.478,-10 10,-10 5.522,0 10,4.477 10,10 C 20,5.523 15.522,10 10,10 4.478,10 0,5.523 0,0" /></g><g
           transform="translate(188,154)"
           id="g84"><path
             id="path86"
             style="fill:#999999;fill-opacity:1;fill-rule:nonzero;stroke:none"
             d="m 0,0 c 0,-5.523 4.478,-10 10,-10 5.522,0 10,4.477 10,10 C 20,5.523 15.522,10 10,10 4.478,10 0,5.523 0,0" /></g><g
           transform="translate(188,122)"
           id="g88"><path
             id="path90"
             style="fill:#999999;fill-opacity:1;fill-rule:nonzero;stroke:none"
             d="m 0,0 c 0,-5.522 4.478,-10 10,-10 5.522,0 10,4.478 10,10 C 20,5.523 15.522,10 10,10 4.478,10 0,5.523 0,0" /></g><g
           transform="translate(204,138)"
           id="g92"><path
             id="path94"
             style="fill:#999999;fill-opacity:1;fill-rule:nonzero;stroke:none"
             d="m 0,0 c 0,-5.523 4.478,-10 10,-10 5.522,0 10,4.477 10,10 C 20,5.523 15.522,10 10,10 4.478,10 0,5.523 0,0" /></g><g
           transform="translate(116,124)"
           id="g96"><path
             id="path98"
             style="fill:#999999;fill-opacity:1;fill-rule:nonzero;stroke:none"
             d="m 0,0 -8,0 c -2.209,0 -4,1.791 -4,4 0,2.209 1.791,4 4,4 L 0,8 C 2.209,8 4,6.209 4,4 4,1.791 2.209,0 0,0" /></g><g
           transform="translate(148,124)"
           id="g100"><path
             id="path102"
             style="fill:#999999;fill-opacity:1;fill-rule:nonzero;stroke:none"
             d="m 0,0 -8,0 c -2.209,0 -4,1.791 -4,4 0,2.209 1.791,4 4,4 L 0,8 C 2.209,8 4,6.209 4,4 4,1.791 2.209,0 0,0" /></g></g></g><g
       id="g104"><g
         clip-path="url(#clipPath108)"
         id="g106"><g
           id="g112"><g
             id="g114"><path
               id="path122"
               style="fill:url(#linearGradient116);stroke:none"
               d="m 84,92 c 0,-6.627 5.373,-12 12,-12 l 0,0 c 6.627,0 12,5.373 12,12 l 0,0 c 0,6.627 -5.373,12 -12,12 l 0,0 C 89.373,104 84,98.627 84,92" /></g></g></g></g><g
       id="g124"><g
         clip-path="url(#clipPath128)"
         id="g126"><g
           id="g132"><g
             id="g134"><path
               id="path142"
               style="fill:url(#linearGradient136);stroke:none"
               d="m 148,92 c 0,-6.627 5.373,-12 12,-12 l 0,0 c 6.627,0 12,5.373 12,12 l 0,0 c 0,6.627 -5.373,12 -12,12 l 0,0 c -6.627,0 -12,-5.373 -12,-12" /></g></g></g></g><g
       id="g144"><g
         clip-path="url(#clipPath148)"
         id="g146"><g
           id="g152"><g
             id="g154"><path
               id="path162"
               style="fill:url(#linearGradient156);stroke:none"
               d="m 52,138 c 0,-3.313 2.687,-6 6,-6 l 0,0 c 3.313,0 6,2.687 6,6 l 0,0 c 0,3.313 -2.687,6 -6,6 l 0,0 c -3.313,0 -6,-2.687 -6,-6" /></g></g></g></g></g></svg>