<?xml version="1.0" encoding="UTF-8" standalone="no"?>
<svg
   xmlns:dc="http://purl.org/dc/elements/1.1/"
   xmlns:cc="http://creativecommons.org/ns#"
   xmlns:rdf="http://www.w3.org/1999/02/22-rdf-syntax-ns#"
   xmlns:svg="http://www.w3.org/2000/svg"
   xmlns="http://www.w3.org/2000/svg"
   viewBox="0 0 320 320"
   height="320"
   width="320"
   xml:space="preserve"
   version="1.1"
   id="svg2"><metadata
     id="metadata8"><rdf:RDF><cc:Work
         rdf:about=""><dc:format>image/svg+xml</dc:format><dc:type
           rdf:resource="http://purl.org/dc/dcmitype/StillImage" /></cc:Work></rdf:RDF></metadata><defs
     id="defs6"><clipPath
       id="clipPath18"
       clipPathUnits="userSpaceOnUse"><path
         id="path20"
         d="m 204,12 -152,0 0,182 152,0 0,-182 z" /></clipPath><linearGradient
       id="linearGradient26"
       spreadMethod="pad"
       gradientTransform="matrix(167,-167,-167,-167,44.5,186.5)"
       gradientUnits="userSpaceOnUse"
       y2="0"
       x2="1"
       y1="0"
       x1="0"><stop
         id="stop28"
         offset="0"
         style="stop-opacity:1;stop-color:#e6e7e8" /><stop
         id="stop30"
         offset="1"
         style="stop-opacity:1;stop-color:#d1d3d4" /></linearGradient><clipPath
       id="clipPath40"
       clipPathUnits="userSpaceOnUse"><path
         id="path42"
         d="m 66.61,184 c -3.418,0 -6.182,-2.36 -6.182,-5.28 l 0,0 0,-121.44 c 0,-2.92 2.764,-5.28 6.182,-5.28 l 0,0 123.636,0 c 3.419,0 6.182,2.36 6.182,5.28 l 0,0 0,121.44 c 0,2.92 -2.763,5.28 -6.182,5.28 l 0,0 -123.636,0 z" /></clipPath><linearGradient
       id="linearGradient48"
       spreadMethod="pad"
       gradientTransform="matrix(-130.67113,130.67113,130.67113,130.67113,193.76355,52.664444)"
       gradientUnits="userSpaceOnUse"
       y2="0"
       x2="1"
       y1="0"
       x1="0"><stop
         id="stop50"
         offset="0"
         style="stop-opacity:1;stop-color:#e6e7e8" /><stop
         id="stop52"
         offset="1"
         style="stop-opacity:1;stop-color:#d1d3d4" /></linearGradient><clipPath
       id="clipPath60"
       clipPathUnits="userSpaceOnUse"><path
         id="path62"
         d="M 0,256 256,256 256,0 0,0 0,256 Z" /></clipPath><clipPath
       id="clipPath72"
       clipPathUnits="userSpaceOnUse"><path
         id="path74"
         d="m 60.69,238.524 c 0,0 -10.611,-46.524 -8.382,-46.524 l 0,0 23.747,0 3.959,36 25.986,0 0,15.996 -32.803,0 c 0,0 -0.126,0.004 -0.352,0.004 l 0,0 c -1.901,0 -10.902,-0.276 -12.155,-5.476" /></clipPath><linearGradient
       id="linearGradient80"
       spreadMethod="pad"
       gradientTransform="matrix(31.45166,-31.45166,-31.45166,-31.45166,59.136047,237.9841)"
       gradientUnits="userSpaceOnUse"
       y2="0"
       x2="1"
       y1="0"
       x1="0"><stop
         id="stop82"
         offset="0"
         style="stop-opacity:1;stop-color:#e6e7e8" /><stop
         id="stop84"
         offset="1"
         style="stop-opacity:1;stop-color:#d1d3d4" /></linearGradient><clipPath
       id="clipPath92"
       clipPathUnits="userSpaceOnUse"><path
         id="path94"
         d="m 182.803,243.996 -32.803,0 0,-15.996 25.987,0 3.958,-36 23.748,0 c 2.229,0 -8.382,46.524 -8.382,46.524 l 0,0 c -1.254,5.2 -10.254,5.476 -12.155,5.476 l 0,0 c -0.227,0 -0.353,-0.004 -0.353,-0.004" /></clipPath><linearGradient
       id="linearGradient100"
       spreadMethod="pad"
       gradientTransform="matrix(52.875912,-52.875912,-52.875912,-52.875912,154.70016,248.69623)"
       gradientUnits="userSpaceOnUse"
       y2="0"
       x2="1"
       y1="0"
       x1="0"><stop
         id="stop102"
         offset="0"
         style="stop-opacity:1;stop-color:#e6e7e8" /><stop
         id="stop104"
         offset="1"
         style="stop-opacity:1;stop-color:#d1d3d4" /></linearGradient><clipPath
       id="clipPath112"
       clipPathUnits="userSpaceOnUse"><path
         id="path114"
         d="M 0,256 256,256 256,0 0,0 0,256 Z" /></clipPath></defs><g
     transform="matrix(1.25,0,0,-1.25,0,320)"
     id="g10"><path
       id="path12"
       style="fill:#999999;fill-opacity:1;fill-rule:nonzero;stroke:none"
       d="m 157.846,228 -54.852,0 0,15.996 54.852,0 0,-15.996 z" /><g
       id="g14"><g
         clip-path="url(#clipPath18)"
         id="g16"><g
           id="g22"><g
             id="g24"><path
               id="path32"
               style="fill:url(#linearGradient26);stroke:none"
               d="m 204,12 -152,0 0,182 152,0 0,-182 z" /></g></g></g></g><path
       id="path34"
       style="fill:#999999;fill-opacity:1;fill-rule:nonzero;stroke:none"
       d="m 108,12 -20,0 0,20 20,0 0,-20 z" /><g
       id="g36"><g
         clip-path="url(#clipPath40)"
         id="g38"><g
           id="g44"><g
             id="g46"><path
               id="path54"
               style="fill:url(#linearGradient48);stroke:none"
               d="m 66.61,184 c -3.418,0 -6.182,-2.36 -6.182,-5.28 l 0,0 0,-121.44 c 0,-2.92 2.764,-5.28 6.182,-5.28 l 0,0 123.636,0 c 3.419,0 6.182,2.36 6.182,5.28 l 0,0 0,121.44 c 0,2.92 -2.763,5.28 -6.182,5.28 l 0,0 -123.636,0 z" /></g></g></g></g><g
       id="g56"><g
         clip-path="url(#clipPath60)"
         id="g58"><g
           transform="translate(190.2462,182)"
           id="g64"><path
             id="path66"
             style="fill:#999999;fill-opacity:1;fill-rule:nonzero;stroke:none"
             d="m 0,0 c 2.306,0 4.182,-1.471 4.182,-3.28 l 0,-121.44 C 4.182,-126.529 2.306,-128 0,-128 l -123.636,0 c -2.306,0 -4.182,1.471 -4.182,3.28 l 0,121.44 c 0,1.809 1.876,3.28 4.182,3.28 L 0,0" /></g></g></g><g
       id="g68"><g
         clip-path="url(#clipPath72)"
         id="g70"><g
           id="g76"><g
             id="g78"><path
               id="path86"
               style="fill:url(#linearGradient80);stroke:none"
               d="m 60.69,238.524 c 0,0 -10.611,-46.524 -8.382,-46.524 l 0,0 23.747,0 3.959,36 25.986,0 0,15.996 -32.803,0 c 0,0 -0.126,0.004 -0.352,0.004 l 0,0 c -1.901,0 -10.902,-0.276 -12.155,-5.476" /></g></g></g></g><g
       id="g88"><g
         clip-path="url(#clipPath92)"
         id="g90"><g
           id="g96"><g
             id="g98"><path
               id="path106"
               style="fill:url(#linearGradient100);stroke:none"
               d="m 182.803,243.996 -32.803,0 0,-15.996 25.987,0 3.958,-36 23.748,0 c 2.229,0 -8.382,46.524 -8.382,46.524 l 0,0 c -1.254,5.2 -10.254,5.476 -12.155,5.476 l 0,0 c -0.227,0 -0.353,-0.004 -0.353,-0.004" /></g></g></g></g><g
       id="g108"><g
         clip-path="url(#clipPath112)"
         id="g110"><path
           id="path116"
           style="fill:#ffffff;fill-opacity:1;fill-rule:nonzero;stroke:none"
           d="m 180,156 -104,0 0,2 104,0 0,-2 z" /><path
           id="path118"
           style="fill:#ffffff;fill-opacity:1;fill-rule:nonzero;stroke:none"
           d="m 180,172 -104,0 0,2 104,0 0,-2 z" /></g></g></g></svg>