<?xml version="1.0" encoding="UTF-8" standalone="no"?>
<svg
   xmlns:dc="http://purl.org/dc/elements/1.1/"
   xmlns:cc="http://creativecommons.org/ns#"
   xmlns:rdf="http://www.w3.org/1999/02/22-rdf-syntax-ns#"
   xmlns:svg="http://www.w3.org/2000/svg"
   xmlns="http://www.w3.org/2000/svg"
   viewBox="0 0 320 320"
   height="320"
   width="320"
   xml:space="preserve"
   version="1.1"
   id="svg2"><metadata
     id="metadata8"><rdf:RDF><cc:Work
         rdf:about=""><dc:format>image/svg+xml</dc:format><dc:type
           rdf:resource="http://purl.org/dc/dcmitype/StillImage" /></cc:Work></rdf:RDF></metadata><defs
     id="defs6"><clipPath
       id="clipPath16"
       clipPathUnits="userSpaceOnUse"><path
         id="path18"
         d="m 220,12 -184,0 0,232 184,0 0,-232 z" /></clipPath><linearGradient
       id="linearGradient24"
       spreadMethod="pad"
       gradientTransform="matrix(208,-208,-208,-208,24,232)"
       gradientUnits="userSpaceOnUse"
       y2="0"
       x2="1"
       y1="0"
       x1="0"><stop
         id="stop26"
         offset="0"
         style="stop-opacity:1;stop-color:#e6e7e8" /><stop
         id="stop28"
         offset="1"
         style="stop-opacity:1;stop-color:#d1d3d4" /></linearGradient><clipPath
       id="clipPath36"
       clipPathUnits="userSpaceOnUse"><path
         id="path38"
         d="M 61.556,228 C 58.487,228 56,225.572 56,222.574 l 0,0 0,-173.149 C 56,46.429 58.487,44 61.556,44 l 0,0 132.888,0 c 3.068,0 5.556,2.429 5.556,5.425 l 0,0 0,173.149 c 0,2.998 -2.488,5.426 -5.556,5.426 l 0,0 -132.888,0 z" /></clipPath><linearGradient
       id="linearGradient44"
       spreadMethod="pad"
       gradientTransform="matrix(144,0,0,-144,56,136)"
       gradientUnits="userSpaceOnUse"
       y2="0"
       x2="1"
       y1="0"
       x1="0"><stop
         id="stop46"
         offset="0"
         style="stop-opacity:1;stop-color:#e6e7e8" /><stop
         id="stop48"
         offset="1"
         style="stop-opacity:1;stop-color:#d1d3d4" /></linearGradient><clipPath
       id="clipPath56"
       clipPathUnits="userSpaceOnUse"><path
         id="path58"
         d="M 61.556,232 C 56.287,232 52,227.772 52,222.574 l 0,0 0,-173.149 C 52,44.228 56.287,40 61.556,40 l 0,0 132.888,0 c 5.269,0 9.556,4.228 9.556,9.425 l 0,0 0,173.149 c 0,5.198 -4.287,9.426 -9.556,9.426 l 0,0 -132.888,0 z M 56,49.425 56,222.574 c 0,2.998 2.487,5.426 5.556,5.426 l 0,0 132.888,0 c 3.068,0 5.556,-2.428 5.556,-5.426 l 0,0 0,-173.149 C 200,46.429 197.512,44 194.444,44 l 0,0 -132.888,0 C 58.487,44 56,46.429 56,49.425" /></clipPath><linearGradient
       id="linearGradient64"
       spreadMethod="pad"
       gradientTransform="matrix(-166.43454,166.43454,166.43454,166.43454,211.21727,52.782734)"
       gradientUnits="userSpaceOnUse"
       y2="0"
       x2="1"
       y1="0"
       x1="0"><stop
         id="stop66"
         offset="0"
         style="stop-opacity:1;stop-color:#e6e7e8" /><stop
         id="stop68"
         offset="1"
         style="stop-opacity:1;stop-color:#d1d3d4" /></linearGradient><clipPath
       id="clipPath76"
       clipPathUnits="userSpaceOnUse"><path
         id="path78"
         d="m 64,96 128,0 0,84 -128,0 0,-84 z" /></clipPath><linearGradient
       id="linearGradient84"
       spreadMethod="pad"
       gradientTransform="matrix(-105.99999,105.99999,105.99999,105.99999,181,85)"
       gradientUnits="userSpaceOnUse"
       y2="0"
       x2="1"
       y1="0"
       x1="0"><stop
         id="stop86"
         offset="0"
         style="stop-opacity:1;stop-color:#e6e7e8" /><stop
         id="stop88"
         offset="1"
         style="stop-opacity:1;stop-color:#d1d3d4" /></linearGradient><clipPath
       id="clipPath96"
       clipPathUnits="userSpaceOnUse"><path
         id="path98"
         d="M 0,256 256,256 256,0 0,0 0,256 Z" /></clipPath><clipPath
       id="clipPath154"
       clipPathUnits="userSpaceOnUse"><path
         id="path156"
         d="m 104,140 c 0,-13.255 10.745,-24 24,-24 l 0,0 c 13.255,0 24,10.745 24,24 l 0,0 c 0,13.255 -10.745,24 -24,24 l 0,0 c -13.255,0 -24,-10.745 -24,-24" /></clipPath><linearGradient
       id="linearGradient162"
       spreadMethod="pad"
       gradientTransform="matrix(-33.941124,33.941124,33.941124,33.941124,144.97057,123.02943)"
       gradientUnits="userSpaceOnUse"
       y2="0"
       x2="1"
       y1="0"
       x1="0"><stop
         id="stop164"
         offset="0"
         style="stop-opacity:1;stop-color:#e6e7e8" /><stop
         id="stop166"
         offset="1"
         style="stop-opacity:1;stop-color:#d1d3d4" /></linearGradient><clipPath
       id="clipPath174"
       clipPathUnits="userSpaceOnUse"><path
         id="path176"
         d="m 116,140 c 0,-6.627 5.372,-12 12,-12 l 0,0 c 6.627,0 12,5.373 12,12 l 0,0 c 0,6.627 -5.373,12 -12,12 l 0,0 c -6.628,0 -12,-5.373 -12,-12" /></clipPath><linearGradient
       id="linearGradient182"
       spreadMethod="pad"
       gradientTransform="matrix(16.970562,-16.970562,-16.970562,-16.970562,119.51472,148.48528)"
       gradientUnits="userSpaceOnUse"
       y2="0"
       x2="1"
       y1="0"
       x1="0"><stop
         id="stop184"
         offset="0"
         style="stop-opacity:1;stop-color:#e6e7e8" /><stop
         id="stop186"
         offset="1"
         style="stop-opacity:1;stop-color:#d1d3d4" /></linearGradient><clipPath
       id="clipPath194"
       clipPathUnits="userSpaceOnUse"><path
         id="path196"
         d="m 120,140 c 0,-4.419 3.582,-8 8,-8 l 0,0 c 4.418,0 8,3.581 8,8 l 0,0 c 0,4.419 -3.582,8 -8,8 l 0,0 c -4.418,0 -8,-3.581 -8,-8" /></clipPath><linearGradient
       id="linearGradient202"
       spreadMethod="pad"
       gradientTransform="matrix(-11.313708,11.313708,11.313708,11.313708,133.65686,134.34314)"
       gradientUnits="userSpaceOnUse"
       y2="0"
       x2="1"
       y1="0"
       x1="0"><stop
         id="stop204"
         offset="0"
         style="stop-opacity:1;stop-color:#e6e7e8" /><stop
         id="stop206"
         offset="1"
         style="stop-opacity:1;stop-color:#d1d3d4" /></linearGradient><clipPath
       id="clipPath214"
       clipPathUnits="userSpaceOnUse"><path
         id="path216"
         d="m 60,222 36,0 0,2 -36,0 0,-2 z" /></clipPath><linearGradient
       id="linearGradient222"
       spreadMethod="pad"
       gradientTransform="matrix(-19,19,19,19,87.5,213.5)"
       gradientUnits="userSpaceOnUse"
       y2="0"
       x2="1"
       y1="0"
       x1="0"><stop
         id="stop224"
         offset="0"
         style="stop-opacity:1;stop-color:#e6e7e8" /><stop
         id="stop226"
         offset="1"
         style="stop-opacity:1;stop-color:#d1d3d4" /></linearGradient><clipPath
       id="clipPath234"
       clipPathUnits="userSpaceOnUse"><path
         id="path236"
         d="m 60,218 36,0 0,2 -36,0 0,-2 z" /></clipPath><linearGradient
       id="linearGradient242"
       spreadMethod="pad"
       gradientTransform="matrix(-19,19,19,19,87.5,209.5)"
       gradientUnits="userSpaceOnUse"
       y2="0"
       x2="1"
       y1="0"
       x1="0"><stop
         id="stop244"
         offset="0"
         style="stop-opacity:1;stop-color:#e6e7e8" /><stop
         id="stop246"
         offset="1"
         style="stop-opacity:1;stop-color:#d1d3d4" /></linearGradient><clipPath
       id="clipPath254"
       clipPathUnits="userSpaceOnUse"><path
         id="path256"
         d="m 60,214 36,0 0,2 -36,0 0,-2 z" /></clipPath><linearGradient
       id="linearGradient262"
       spreadMethod="pad"
       gradientTransform="matrix(-19,19,19,19,87.5,205.5)"
       gradientUnits="userSpaceOnUse"
       y2="0"
       x2="1"
       y1="0"
       x1="0"><stop
         id="stop264"
         offset="0"
         style="stop-opacity:1;stop-color:#e6e7e8" /><stop
         id="stop266"
         offset="1"
         style="stop-opacity:1;stop-color:#d1d3d4" /></linearGradient><clipPath
       id="clipPath274"
       clipPathUnits="userSpaceOnUse"><path
         id="path276"
         d="m 60,210 36,0 0,2.001 -36,0 0,-2.001 z" /></clipPath><linearGradient
       id="linearGradient282"
       spreadMethod="pad"
       gradientTransform="matrix(-19,19,19,19,87.5,201.5)"
       gradientUnits="userSpaceOnUse"
       y2="0"
       x2="1"
       y1="0"
       x1="0"><stop
         id="stop284"
         offset="0"
         style="stop-opacity:1;stop-color:#e6e7e8" /><stop
         id="stop286"
         offset="1"
         style="stop-opacity:1;stop-color:#d1d3d4" /></linearGradient><clipPath
       id="clipPath294"
       clipPathUnits="userSpaceOnUse"><path
         id="path296"
         d="m 60,198 36,0 0,2 -36,0 0,-2 z" /></clipPath><linearGradient
       id="linearGradient302"
       spreadMethod="pad"
       gradientTransform="matrix(-19,19,19,19,87.5,189.5)"
       gradientUnits="userSpaceOnUse"
       y2="0"
       x2="1"
       y1="0"
       x1="0"><stop
         id="stop304"
         offset="0"
         style="stop-opacity:1;stop-color:#e6e7e8" /><stop
         id="stop306"
         offset="1"
         style="stop-opacity:1;stop-color:#d1d3d4" /></linearGradient><clipPath
       id="clipPath314"
       clipPathUnits="userSpaceOnUse"><path
         id="path316"
         d="m 60,194 36,0 0,2 -36,0 0,-2 z" /></clipPath><linearGradient
       id="linearGradient322"
       spreadMethod="pad"
       gradientTransform="matrix(-19,19,19,19,87.5,185.5)"
       gradientUnits="userSpaceOnUse"
       y2="0"
       x2="1"
       y1="0"
       x1="0"><stop
         id="stop324"
         offset="0"
         style="stop-opacity:1;stop-color:#e6e7e8" /><stop
         id="stop326"
         offset="1"
         style="stop-opacity:1;stop-color:#d1d3d4" /></linearGradient><clipPath
       id="clipPath334"
       clipPathUnits="userSpaceOnUse"><path
         id="path336"
         d="m 60,190 36,0 0,2 -36,0 0,-2 z" /></clipPath><linearGradient
       id="linearGradient342"
       spreadMethod="pad"
       gradientTransform="matrix(-19,19,19,19,87.5,181.5)"
       gradientUnits="userSpaceOnUse"
       y2="0"
       x2="1"
       y1="0"
       x1="0"><stop
         id="stop344"
         offset="0"
         style="stop-opacity:1;stop-color:#e6e7e8" /><stop
         id="stop346"
         offset="1"
         style="stop-opacity:1;stop-color:#d1d3d4" /></linearGradient><clipPath
       id="clipPath354"
       clipPathUnits="userSpaceOnUse"><path
         id="path356"
         d="m 60,186 36,0 0,2 -36,0 0,-2 z" /></clipPath><linearGradient
       id="linearGradient362"
       spreadMethod="pad"
       gradientTransform="matrix(-19,19,19,19,87.5,177.5)"
       gradientUnits="userSpaceOnUse"
       y2="0"
       x2="1"
       y1="0"
       x1="0"><stop
         id="stop364"
         offset="0"
         style="stop-opacity:1;stop-color:#e6e7e8" /><stop
         id="stop366"
         offset="1"
         style="stop-opacity:1;stop-color:#d1d3d4" /></linearGradient></defs><g
     transform="matrix(1.25,0,0,-1.25,0,320)"
     id="g10"><g
       id="g12"><g
         clip-path="url(#clipPath16)"
         id="g14"><g
           id="g20"><g
             id="g22"><path
               id="path30"
               style="fill:url(#linearGradient24);stroke:none"
               d="m 220,12 -184,0 0,232 184,0 0,-232 z" /></g></g></g></g><g
       id="g32"><g
         clip-path="url(#clipPath36)"
         id="g34"><g
           id="g40"><g
             id="g42"><path
               id="path50"
               style="fill:url(#linearGradient44);stroke:none"
               d="M 61.556,228 C 58.487,228 56,225.572 56,222.574 l 0,0 0,-173.149 C 56,46.429 58.487,44 61.556,44 l 0,0 132.888,0 c 3.068,0 5.556,2.429 5.556,5.425 l 0,0 0,173.149 c 0,2.998 -2.488,5.426 -5.556,5.426 l 0,0 -132.888,0 z" /></g></g></g></g><g
       id="g52"><g
         clip-path="url(#clipPath56)"
         id="g54"><g
           id="g60"><g
             id="g62"><path
               id="path70"
               style="fill:url(#linearGradient64);stroke:none"
               d="M 61.556,232 C 56.287,232 52,227.772 52,222.574 l 0,0 0,-173.149 C 52,44.228 56.287,40 61.556,40 l 0,0 132.888,0 c 5.269,0 9.556,4.228 9.556,9.425 l 0,0 0,173.149 c 0,5.198 -4.287,9.426 -9.556,9.426 l 0,0 -132.888,0 z M 56,49.425 56,222.574 c 0,2.998 2.487,5.426 5.556,5.426 l 0,0 132.888,0 c 3.068,0 5.556,-2.428 5.556,-5.426 l 0,0 0,-173.149 C 200,46.429 197.512,44 194.444,44 l 0,0 -132.888,0 C 58.487,44 56,46.429 56,49.425" /></g></g></g></g><g
       id="g72"><g
         clip-path="url(#clipPath76)"
         id="g74"><g
           id="g80"><g
             id="g82"><path
               id="path90"
               style="fill:url(#linearGradient84);stroke:none"
               d="m 64,96 128,0 0,84 -128,0 0,-84 z" /></g></g></g></g><g
       id="g92"><g
         clip-path="url(#clipPath96)"
         id="g94"><path
           id="path100"
           style="fill:#999999;fill-opacity:1;fill-rule:nonzero;stroke:none"
           d="m 192,90 -128,0 0,2 128,0 0,-2 z" /><path
           id="path102"
           style="fill:#999999;fill-opacity:1;fill-rule:nonzero;stroke:none"
           d="m 192,86 -128,0 0,2 128,0 0,-2 z" /><path
           id="path104"
           style="fill:#999999;fill-opacity:1;fill-rule:nonzero;stroke:none"
           d="m 192,82 -128,0 0,2 128,0 0,-2 z" /><path
           id="path106"
           style="fill:#999999;fill-opacity:1;fill-rule:nonzero;stroke:none"
           d="m 192,78 -128,0 0,2 128,0 0,-2 z" /><path
           id="path108"
           style="fill:#999999;fill-opacity:1;fill-rule:nonzero;stroke:none"
           d="m 192,74 -128,0 0,2 128,0 0,-2 z" /><path
           id="path110"
           style="fill:#999999;fill-opacity:1;fill-rule:nonzero;stroke:none"
           d="m 192,70 -128,0 0,2 128,0 0,-2 z" /><path
           id="path112"
           style="fill:#999999;fill-opacity:1;fill-rule:nonzero;stroke:none"
           d="m 192,66 -128,0 0,2 128,0 0,-2 z" /><path
           id="path114"
           style="fill:#999999;fill-opacity:1;fill-rule:nonzero;stroke:none"
           d="m 192,62 -128,0 0,2 128,0 0,-2 z" /><path
           id="path116"
           style="fill:#999999;fill-opacity:1;fill-rule:nonzero;stroke:none"
           d="m 192,58 -128,0 0,2 128,0 0,-2 z" /><path
           id="path118"
           style="fill:#999999;fill-opacity:1;fill-rule:nonzero;stroke:none"
           d="m 192,54 -128,0 0,2 128,0 0,-2 z" /><path
           id="path120"
           style="fill:#999999;fill-opacity:1;fill-rule:nonzero;stroke:none"
           d="m 192,50 -128,0 0,2 128,0 0,-2 z" /><path
           id="path122"
           style="fill:#999999;fill-opacity:1;fill-rule:nonzero;stroke:none"
           d="m 192,222 -88,0 0,2 88,0 0,-2 z" /><path
           id="path124"
           style="fill:#999999;fill-opacity:1;fill-rule:nonzero;stroke:none"
           d="m 192,218 -88,0 0,2 88,0 0,-2 z" /><path
           id="path126"
           style="fill:#999999;fill-opacity:1;fill-rule:nonzero;stroke:none"
           d="m 192,214 -88,0 0,2 88,0 0,-2 z" /><path
           id="path128"
           style="fill:#999999;fill-opacity:1;fill-rule:nonzero;stroke:none"
           d="m 192,210 -88,0 0,2 88,0 0,-2 z" /><path
           id="path130"
           style="fill:#999999;fill-opacity:1;fill-rule:nonzero;stroke:none"
           d="m 192,206 -88,0 0,2 88,0 0,-2 z" /><path
           id="path132"
           style="fill:#999999;fill-opacity:1;fill-rule:nonzero;stroke:none"
           d="m 192,202 -88,0 0,2 88,0 0,-2 z" /><path
           id="path134"
           style="fill:#999999;fill-opacity:1;fill-rule:nonzero;stroke:none"
           d="m 192,198 -88,0 0,2 88,0 0,-2 z" /><path
           id="path136"
           style="fill:#999999;fill-opacity:1;fill-rule:nonzero;stroke:none"
           d="m 192,194 -88,0 0,2 88,0 0,-2 z" /><path
           id="path138"
           style="fill:#999999;fill-opacity:1;fill-rule:nonzero;stroke:none"
           d="m 192,190 -88,0 0,2 88,0 0,-2 z" /><path
           id="path140"
           style="fill:#999999;fill-opacity:1;fill-rule:nonzero;stroke:none"
           d="m 192,186 -88,0 0,2 88,0 0,-2 z" /><g
           transform="translate(100,184)"
           id="g142"><path
             id="path144"
             style="fill:#999999;fill-opacity:1;fill-rule:nonzero;stroke:none"
             d="m 0,0 -44,0 0,38.383 c 0,3.102 2.364,5.617 5.28,5.617 L 0,44 0,0 Z" /></g><g
           transform="translate(138.302,161.8751)"
           id="g146"><path
             id="path148"
             style="fill:#999999;fill-opacity:1;fill-rule:nonzero;stroke:none"
             d="m 0,0 11.009,1.089 c 1.204,0.119 2.209,-0.906 2.067,-2.108 l -1.305,-10.986 c -0.076,-0.641 0.18,-1.277 0.68,-1.687 l 8.554,-7.015 c 0.936,-0.767 0.922,-2.202 -0.029,-2.951 l -8.69,-6.846 c -0.508,-0.399 -0.776,-1.03 -0.713,-1.673 l 1.089,-11.01 c 0.119,-1.203 -0.906,-2.208 -2.108,-2.066 l -10.986,1.305 c -0.641,0.076 -1.277,-0.18 -1.687,-0.68 l -7.015,-8.554 c -0.767,-0.936 -2.202,-0.922 -2.951,0.029 l -6.846,8.69 c -0.399,0.508 -1.03,0.776 -1.673,0.713 l -11.01,-1.089 c -1.203,-0.119 -2.208,0.906 -2.066,2.107 l 1.305,10.986 c 0.076,0.642 -0.18,1.278 -0.68,1.687 l -8.554,7.016 c -0.936,0.767 -0.922,2.202 0.029,2.951 l 8.69,6.845 c 0.508,0.4 0.776,1.031 0.713,1.674 l -1.089,11.009 c -0.119,1.204 0.906,2.209 2.107,2.067 l 10.986,-1.305 c 0.642,-0.076 1.278,0.18 1.688,0.68 l 7.015,8.554 c 0.767,0.936 2.202,0.921 2.951,-0.029 L -1.673,0.712 C -1.274,0.205 -0.643,-0.064 0,0" /></g></g></g><g
       id="g150"><g
         clip-path="url(#clipPath154)"
         id="g152"><g
           id="g158"><g
             id="g160"><path
               id="path168"
               style="fill:url(#linearGradient162);stroke:none"
               d="m 104,140 c 0,-13.255 10.745,-24 24,-24 l 0,0 c 13.255,0 24,10.745 24,24 l 0,0 c 0,13.255 -10.745,24 -24,24 l 0,0 c -13.255,0 -24,-10.745 -24,-24" /></g></g></g></g><g
       id="g170"><g
         clip-path="url(#clipPath174)"
         id="g172"><g
           id="g178"><g
             id="g180"><path
               id="path188"
               style="fill:url(#linearGradient182);stroke:none"
               d="m 116,140 c 0,-6.627 5.372,-12 12,-12 l 0,0 c 6.627,0 12,5.373 12,12 l 0,0 c 0,6.627 -5.373,12 -12,12 l 0,0 c -6.628,0 -12,-5.373 -12,-12" /></g></g></g></g><g
       id="g190"><g
         clip-path="url(#clipPath194)"
         id="g192"><g
           id="g198"><g
             id="g200"><path
               id="path208"
               style="fill:url(#linearGradient202);stroke:none"
               d="m 120,140 c 0,-4.419 3.582,-8 8,-8 l 0,0 c 4.418,0 8,3.581 8,8 l 0,0 c 0,4.419 -3.582,8 -8,8 l 0,0 c -4.418,0 -8,-3.581 -8,-8" /></g></g></g></g><g
       id="g210"><g
         clip-path="url(#clipPath214)"
         id="g212"><g
           id="g218"><g
             id="g220"><path
               id="path228"
               style="fill:url(#linearGradient222);stroke:none"
               d="m 60,222 36,0 0,2 -36,0 0,-2 z" /></g></g></g></g><g
       id="g230"><g
         clip-path="url(#clipPath234)"
         id="g232"><g
           id="g238"><g
             id="g240"><path
               id="path248"
               style="fill:url(#linearGradient242);stroke:none"
               d="m 60,218 36,0 0,2 -36,0 0,-2 z" /></g></g></g></g><g
       id="g250"><g
         clip-path="url(#clipPath254)"
         id="g252"><g
           id="g258"><g
             id="g260"><path
               id="path268"
               style="fill:url(#linearGradient262);stroke:none"
               d="m 60,214 36,0 0,2 -36,0 0,-2 z" /></g></g></g></g><g
       id="g270"><g
         clip-path="url(#clipPath274)"
         id="g272"><g
           id="g278"><g
             id="g280"><path
               id="path288"
               style="fill:url(#linearGradient282);stroke:none"
               d="m 60,210 36,0 0,2.001 -36,0 0,-2.001 z" /></g></g></g></g><g
       id="g290"><g
         clip-path="url(#clipPath294)"
         id="g292"><g
           id="g298"><g
             id="g300"><path
               id="path308"
               style="fill:url(#linearGradient302);stroke:none"
               d="m 60,198 36,0 0,2 -36,0 0,-2 z" /></g></g></g></g><g
       id="g310"><g
         clip-path="url(#clipPath314)"
         id="g312"><g
           id="g318"><g
             id="g320"><path
               id="path328"
               style="fill:url(#linearGradient322);stroke:none"
               d="m 60,194 36,0 0,2 -36,0 0,-2 z" /></g></g></g></g><g
       id="g330"><g
         clip-path="url(#clipPath334)"
         id="g332"><g
           id="g338"><g
             id="g340"><path
               id="path348"
               style="fill:url(#linearGradient342);stroke:none"
               d="m 60,190 36,0 0,2 -36,0 0,-2 z" /></g></g></g></g><g
       id="g350"><g
         clip-path="url(#clipPath354)"
         id="g352"><g
           id="g358"><g
             id="g360"><path
               id="path368"
               style="fill:url(#linearGradient362);stroke:none"
               d="m 60,186 36,0 0,2 -36,0 0,-2 z" /></g></g></g></g></g></svg>