<?xml version="1.0" encoding="UTF-8" standalone="no"?>
<svg
   xmlns:dc="http://purl.org/dc/elements/1.1/"
   xmlns:cc="http://creativecommons.org/ns#"
   xmlns:rdf="http://www.w3.org/1999/02/22-rdf-syntax-ns#"
   xmlns:svg="http://www.w3.org/2000/svg"
   xmlns="http://www.w3.org/2000/svg"
   viewBox="0 0 320 320"
   height="320"
   width="320"
   xml:space="preserve"
   version="1.1"
   id="svg2"><metadata
     id="metadata8"><rdf:RDF><cc:Work
         rdf:about=""><dc:format>image/svg+xml</dc:format><dc:type
           rdf:resource="http://purl.org/dc/dcmitype/StillImage" /></cc:Work></rdf:RDF></metadata><defs
     id="defs6"><clipPath
       id="clipPath16"
       clipPathUnits="userSpaceOnUse"><path
         id="path18"
         d="m 168,16 -80,0 0,84 80,0 0,-84 z" /></clipPath><linearGradient
       id="linearGradient24"
       spreadMethod="pad"
       gradientTransform="matrix(81.999863,-81.999863,-81.999863,-81.999863,87.000084,98.999931)"
       gradientUnits="userSpaceOnUse"
       y2="0"
       x2="1"
       y1="0"
       x1="0"><stop
         id="stop26"
         offset="0"
         style="stop-opacity:1;stop-color:#e6e7e8" /><stop
         id="stop28"
         offset="1"
         style="stop-opacity:1;stop-color:#d1d3d4" /></linearGradient><clipPath
       id="clipPath38"
       clipPathUnits="userSpaceOnUse"><path
         id="path40"
         d="M 0,256 256,256 256,0 0,0 0,256 Z" /></clipPath><clipPath
       id="clipPath50"
       clipPathUnits="userSpaceOnUse"><path
         id="path52"
         d="m 84,204 4,-11.958 80,0 4,11.958 -88,0 z" /></clipPath><linearGradient
       id="linearGradient58"
       spreadMethod="pad"
       gradientTransform="matrix(-47.979168,47.979168,47.979168,47.979168,151.98958,176.03125)"
       gradientUnits="userSpaceOnUse"
       y2="0"
       x2="1"
       y1="0"
       x1="0"><stop
         id="stop60"
         offset="0"
         style="stop-opacity:1;stop-color:#e6e7e8" /><stop
         id="stop62"
         offset="1"
         style="stop-opacity:1;stop-color:#d1d3d4" /></linearGradient><clipPath
       id="clipPath70"
       clipPathUnits="userSpaceOnUse"><path
         id="path72"
         d="M 0,256 256,256 256,0 0,0 0,256 Z" /></clipPath><clipPath
       id="clipPath90"
       clipPathUnits="userSpaceOnUse"><path
         id="path92"
         d="m 84,132 -4,-16 96,0 -4,16 -88,0 z" /></clipPath><linearGradient
       id="linearGradient98"
       spreadMethod="pad"
       gradientTransform="matrix(-53.999996,53.999996,53.999996,53.999996,155,95)"
       gradientUnits="userSpaceOnUse"
       y2="0"
       x2="1"
       y1="0"
       x1="0"><stop
         id="stop100"
         offset="0"
         style="stop-opacity:1;stop-color:#e6e7e8" /><stop
         id="stop102"
         offset="1"
         style="stop-opacity:1;stop-color:#d1d3d4" /></linearGradient><clipPath
       id="clipPath110"
       clipPathUnits="userSpaceOnUse"><path
         id="path112"
         d="m 122,72 4,0 0,4 -4,0 0,-4 z" /></clipPath><linearGradient
       id="linearGradient118"
       spreadMethod="pad"
       gradientTransform="matrix(-3.9999998,3.9999998,3.9999998,3.9999998,126,72)"
       gradientUnits="userSpaceOnUse"
       y2="0"
       x2="1"
       y1="0"
       x1="0"><stop
         id="stop120"
         offset="0"
         style="stop-opacity:1;stop-color:#e6e7e8" /><stop
         id="stop122"
         offset="1"
         style="stop-opacity:1;stop-color:#d1d3d4" /></linearGradient><clipPath
       id="clipPath130"
       clipPathUnits="userSpaceOnUse"><path
         id="path132"
         d="m 130,72 4.001,0 0,4 -4.001,0 0,-4 z" /></clipPath><linearGradient
       id="linearGradient138"
       spreadMethod="pad"
       gradientTransform="matrix(-3.9999998,3.9999998,3.9999998,3.9999998,134,72)"
       gradientUnits="userSpaceOnUse"
       y2="0"
       x2="1"
       y1="0"
       x1="0"><stop
         id="stop140"
         offset="0"
         style="stop-opacity:1;stop-color:#e6e7e8" /><stop
         id="stop142"
         offset="1"
         style="stop-opacity:1;stop-color:#d1d3d4" /></linearGradient><clipPath
       id="clipPath150"
       clipPathUnits="userSpaceOnUse"><path
         id="path152"
         d="m 122,64 4,0 0,4.001 -4,0 0,-4.001 z" /></clipPath><linearGradient
       id="linearGradient158"
       spreadMethod="pad"
       gradientTransform="matrix(3.9999998,-3.9999998,-3.9999998,-3.9999998,122,68)"
       gradientUnits="userSpaceOnUse"
       y2="0"
       x2="1"
       y1="0"
       x1="0"><stop
         id="stop160"
         offset="0"
         style="stop-opacity:1;stop-color:#e6e7e8" /><stop
         id="stop162"
         offset="1"
         style="stop-opacity:1;stop-color:#d1d3d4" /></linearGradient><clipPath
       id="clipPath170"
       clipPathUnits="userSpaceOnUse"><path
         id="path172"
         d="m 130,64 4.001,0 0,4.001 -4.001,0 0,-4.001 z" /></clipPath><linearGradient
       id="linearGradient178"
       spreadMethod="pad"
       gradientTransform="matrix(3.9999998,-3.9999998,-3.9999998,-3.9999998,130,68)"
       gradientUnits="userSpaceOnUse"
       y2="0"
       x2="1"
       y1="0"
       x1="0"><stop
         id="stop180"
         offset="0"
         style="stop-opacity:1;stop-color:#e6e7e8" /><stop
         id="stop182"
         offset="1"
         style="stop-opacity:1;stop-color:#d1d3d4" /></linearGradient><clipPath
       id="clipPath190"
       clipPathUnits="userSpaceOnUse"><path
         id="path192"
         d="M 0,256 256,256 256,0 0,0 0,256 Z" /></clipPath></defs><g
     transform="matrix(1.25,0,0,-1.25,0,320)"
     id="g10"><g
       id="g12"><g
         clip-path="url(#clipPath16)"
         id="g14"><g
           id="g20"><g
             id="g22"><path
               id="path30"
               style="fill:url(#linearGradient24);stroke:none"
               d="m 168,16 -80,0 0,84 80,0 0,-84 z" /></g></g></g></g><path
       id="path32"
       style="fill:#999999;fill-opacity:1;fill-rule:nonzero;stroke:none"
       d="m 168,100 -80,0 0,-84 80,0 0,84 z m -2,-82 -76,0 0,80 76,0 0,-80 z" /><g
       id="g34"><g
         clip-path="url(#clipPath38)"
         id="g36"><g
           transform="translate(176,204)"
           id="g42"><path
             id="path44"
             style="fill:#b3b3b3;fill-opacity:1;fill-rule:nonzero;stroke:none"
             d="m 0,0 0,36 -96,0 0,-36 4,-12 0,-60 -4,-16 0,-16.43 c 0,-1.972 1.686,-3.57 3.765,-3.57 l 88.47,0 c 2.079,0 3.765,1.598 3.765,3.57 l 0,16.43 -4,16 0,60 4,12 z" /></g></g></g><g
       id="g46"><g
         clip-path="url(#clipPath50)"
         id="g48"><g
           id="g54"><g
             id="g56"><path
               id="path64"
               style="fill:url(#linearGradient58);stroke:none"
               d="m 84,204 4,-11.958 80,0 4,11.958 -88,0 z" /></g></g></g></g><g
       id="g66"><g
         clip-path="url(#clipPath70)"
         id="g68"><path
           id="path74"
           style="fill:#999999;fill-opacity:1;fill-rule:nonzero;stroke:none"
           d="m 172,208 -88,0 0,28 88,0 0,-28 z" /><g
           transform="translate(137.2812,52)"
           id="g76"><path
             id="path78"
             style="fill:#999999;fill-opacity:1;fill-rule:nonzero;stroke:none"
             d="m 0,0 -18.562,0 c -1.496,0 -2.719,1.223 -2.719,2.719 l 0,26.562 c 0,1.496 1.223,2.719 2.719,2.719 L 0,32 c 1.495,0 2.719,-1.223 2.719,-2.719 l 0,-26.562 C 2.719,1.223 1.495,0 0,0" /></g><g
           transform="translate(128,188)"
           id="g80"><path
             id="path82"
             style="fill:#999999;fill-opacity:1;fill-rule:nonzero;stroke:none"
             d="m 0,0 c -29.887,0 -36,-4.384 -36,-26 0,-21.616 6.019,-26 36,-26 29.985,0 36,4.376 36,26 C 36,-4.374 29.887,0 0,0" /></g><path
           id="path84"
           style="fill:#999999;fill-opacity:1;fill-rule:nonzero;stroke:none"
           d="m 138,79.969 -20,0 0,-20.01 20,0 0,20.01 z m -2,-18.01 -16,0 0,16.01 16,0 0,-16.01 z" /></g></g><g
       id="g86"><g
         clip-path="url(#clipPath90)"
         id="g88"><g
           id="g94"><g
             id="g96"><path
               id="path104"
               style="fill:url(#linearGradient98);stroke:none"
               d="m 84,132 -4,-16 96,0 -4,16 -88,0 z" /></g></g></g></g><g
       id="g106"><g
         clip-path="url(#clipPath110)"
         id="g108"><g
           id="g114"><g
             id="g116"><path
               id="path124"
               style="fill:url(#linearGradient118);stroke:none"
               d="m 122,72 4,0 0,4 -4,0 0,-4 z" /></g></g></g></g><g
       id="g126"><g
         clip-path="url(#clipPath130)"
         id="g128"><g
           id="g134"><g
             id="g136"><path
               id="path144"
               style="fill:url(#linearGradient138);stroke:none"
               d="m 130,72 4.001,0 0,4 -4.001,0 0,-4 z" /></g></g></g></g><g
       id="g146"><g
         clip-path="url(#clipPath150)"
         id="g148"><g
           id="g154"><g
             id="g156"><path
               id="path164"
               style="fill:url(#linearGradient158);stroke:none"
               d="m 122,64 4,0 0,4.001 -4,0 0,-4.001 z" /></g></g></g></g><g
       id="g166"><g
         clip-path="url(#clipPath170)"
         id="g168"><g
           id="g174"><g
             id="g176"><path
               id="path184"
               style="fill:url(#linearGradient178);stroke:none"
               d="m 130,64 4.001,0 0,4.001 -4.001,0 0,-4.001 z" /></g></g></g></g><g
       id="g186"><g
         clip-path="url(#clipPath190)"
         id="g188"><g
           transform="translate(118,125)"
           id="g194"><path
             id="path196"
             style="fill:#999999;fill-opacity:1;fill-rule:nonzero;stroke:none"
             d="m 0,0 c 0,-0.552 -0.895,-1 -2,-1 -1.105,0 -2,0.448 -2,1 0,0.552 0.895,1 2,1 1.105,0 2,-0.448 2,-1" /></g><g
           transform="translate(124,125)"
           id="g198"><path
             id="path200"
             style="fill:#999999;fill-opacity:1;fill-rule:nonzero;stroke:none"
             d="m 0,0 c 0,-0.552 -0.895,-1 -2,-1 -1.105,0 -2,0.448 -2,1 0,0.552 0.895,1 2,1 1.105,0 2,-0.448 2,-1" /></g><g
           transform="translate(92,129)"
           id="g202"><path
             id="path204"
             style="fill:#999999;fill-opacity:1;fill-rule:nonzero;stroke:none"
             d="m 0,0 c 0,-0.552 -0.895,-1 -2,-1 -1.105,0 -2,0.448 -2,1 0,0.552 0.895,1 2,1 1.105,0 2,-0.448 2,-1" /></g><g
           transform="translate(112,125)"
           id="g206"><path
             id="path208"
             style="fill:#999999;fill-opacity:1;fill-rule:nonzero;stroke:none"
             d="m 0,0 c 0,-0.552 -0.895,-1 -2,-1 -1.105,0 -2,0.448 -2,1 0,0.552 0.895,1 2,1 1.105,0 2,-0.448 2,-1" /></g><g
           transform="translate(118,121)"
           id="g210"><path
             id="path212"
             style="fill:#999999;fill-opacity:1;fill-rule:nonzero;stroke:none"
             d="m 0,0 c 0,-0.552 -0.895,-1 -2,-1 -1.105,0 -2,0.448 -2,1 0,0.552 0.895,1 2,1 1.105,0 2,-0.448 2,-1" /></g><g
           transform="translate(124,121)"
           id="g214"><path
             id="path216"
             style="fill:#999999;fill-opacity:1;fill-rule:nonzero;stroke:none"
             d="m 0,0 c 0,-0.552 -0.895,-1 -2,-1 -1.105,0 -2,0.448 -2,1 0,0.552 0.895,1 2,1 1.105,0 2,-0.448 2,-1" /></g><g
           transform="translate(112,121)"
           id="g218"><path
             id="path220"
             style="fill:#999999;fill-opacity:1;fill-rule:nonzero;stroke:none"
             d="m 0,0 c 0,-0.552 -0.895,-1 -2,-1 -1.105,0 -2,0.448 -2,1 0,0.552 0.895,1 2,1 1.105,0 2,-0.448 2,-1" /></g><g
           transform="translate(104.5,123.75)"
           id="g222"><path
             id="path224"
             style="fill:#999999;fill-opacity:1;fill-rule:nonzero;stroke:none"
             d="M 0,0 C 0,-1.243 -2.015,-2.25 -4.5,-2.25 -6.985,-2.25 -9,-1.243 -9,0 -9,1.243 -6.985,2.25 -4.5,2.25 -2.015,2.25 0,1.243 0,0" /></g><g
           transform="translate(98.875,123.6859)"
           id="g226"><path
             id="path228"
             style="fill:#999999;fill-opacity:1;fill-rule:nonzero;stroke:none"
             d="m 0,0 -1.125,6.651 c 0,0.915 1.012,1.663 2.25,1.663 1.238,0 2.25,-0.748 2.25,-1.663 L 2.25,0 C 2.25,-0.915 0,-0.915 0,0" /></g><g
           transform="translate(162,125)"
           id="g230"><path
             id="path232"
             style="fill:#999999;fill-opacity:1;fill-rule:nonzero;stroke:none"
             d="m 0,0 c 0,-0.552 -0.895,-1 -2,-1 -1.105,0 -2,0.448 -2,1 0,0.552 0.895,1 2,1 1.105,0 2,-0.448 2,-1" /></g><g
           transform="translate(168,125)"
           id="g234"><path
             id="path236"
             style="fill:#999999;fill-opacity:1;fill-rule:nonzero;stroke:none"
             d="m 0,0 c 0,-0.552 -0.895,-1 -2,-1 -1.105,0 -2,0.448 -2,1 0,0.552 0.895,1 2,1 1.105,0 2,-0.448 2,-1" /></g><g
           transform="translate(136,129)"
           id="g238"><path
             id="path240"
             style="fill:#999999;fill-opacity:1;fill-rule:nonzero;stroke:none"
             d="m 0,0 c 0,-0.552 -0.895,-1 -2,-1 -1.105,0 -2,0.448 -2,1 0,0.552 0.895,1 2,1 1.105,0 2,-0.448 2,-1" /></g><g
           transform="translate(156,125)"
           id="g242"><path
             id="path244"
             style="fill:#999999;fill-opacity:1;fill-rule:nonzero;stroke:none"
             d="m 0,0 c 0,-0.552 -0.895,-1 -2,-1 -1.105,0 -2,0.448 -2,1 0,0.552 0.895,1 2,1 1.105,0 2,-0.448 2,-1" /></g><g
           transform="translate(162,121)"
           id="g246"><path
             id="path248"
             style="fill:#999999;fill-opacity:1;fill-rule:nonzero;stroke:none"
             d="m 0,0 c 0,-0.552 -0.895,-1 -2,-1 -1.105,0 -2,0.448 -2,1 0,0.552 0.895,1 2,1 1.105,0 2,-0.448 2,-1" /></g><g
           transform="translate(168,121)"
           id="g250"><path
             id="path252"
             style="fill:#999999;fill-opacity:1;fill-rule:nonzero;stroke:none"
             d="m 0,0 c 0,-0.552 -0.895,-1 -2,-1 -1.105,0 -2,0.448 -2,1 0,0.552 0.895,1 2,1 1.105,0 2,-0.448 2,-1" /></g><g
           transform="translate(156,121)"
           id="g254"><path
             id="path256"
             style="fill:#999999;fill-opacity:1;fill-rule:nonzero;stroke:none"
             d="m 0,0 c 0,-0.552 -0.895,-1 -2,-1 -1.105,0 -2,0.448 -2,1 0,0.552 0.895,1 2,1 1.105,0 2,-0.448 2,-1" /></g><g
           transform="translate(148.5,123.75)"
           id="g258"><path
             id="path260"
             style="fill:#999999;fill-opacity:1;fill-rule:nonzero;stroke:none"
             d="M 0,0 C 0,-1.243 -2.015,-2.25 -4.5,-2.25 -6.985,-2.25 -9,-1.243 -9,0 -9,1.243 -6.985,2.25 -4.5,2.25 -2.015,2.25 0,1.243 0,0" /></g><g
           transform="translate(142.875,123.6859)"
           id="g262"><path
             id="path264"
             style="fill:#999999;fill-opacity:1;fill-rule:nonzero;stroke:none"
             d="m 0,0 -1.125,6.651 c 0,0.915 1.012,1.663 2.25,1.663 1.238,0 2.25,-0.748 2.25,-1.663 L 2.25,0 C 2.25,-0.915 0,-0.915 0,0" /></g><g
           transform="translate(96,168)"
           id="g266"><path
             id="path268"
             style="fill:#ffffff;fill-opacity:1;fill-rule:nonzero;stroke:none"
             d="m 0,0 8,0 0,-4 -8,0 0,-4 0,-8 4,0 8,0 0,4 -8,0 0,4 4,0 4,0 0,8 0,4 L 0,4 0,0 Z" /></g><path
           id="path270"
           style="fill:#ffffff;fill-opacity:1;fill-rule:nonzero;stroke:none"
           d="m 120,156 -4,0 0,12 4,0 0,-12 z m -4,16 -4,0 0,-20 4,0 4,0 4,0 0,20 -4,0 -4,0 z" /><path
           id="path272"
           style="fill:#ffffff;fill-opacity:1;fill-rule:nonzero;stroke:none"
           d="m 140,156 -4,0 0,12 4,0 0,-12 z m -4,16 -4,0 0,-20 4,0 4,0 4,0 0,20 -4,0 -4,0 z" /><g
           transform="translate(148,172)"
           id="g274"><path
             id="path276"
             style="fill:#ffffff;fill-opacity:1;fill-rule:nonzero;stroke:none"
             d="m 0,0 0,-4 8,0 0,-4 -8,0 0,-4 8,0 0,-4 -8,0 0,-4 12,0 0,4 0,4 0,4 0,4 0,4 -12,0 z" /></g></g></g></g></svg>