<?xml version="1.0" encoding="UTF-8" standalone="no"?>
<svg
   xmlns:dc="http://purl.org/dc/elements/1.1/"
   xmlns:cc="http://creativecommons.org/ns#"
   xmlns:rdf="http://www.w3.org/1999/02/22-rdf-syntax-ns#"
   xmlns:svg="http://www.w3.org/2000/svg"
   xmlns="http://www.w3.org/2000/svg"
   viewBox="0 0 320 320"
   height="320"
   width="320"
   xml:space="preserve"
   version="1.1"
   id="svg2"><metadata
     id="metadata8"><rdf:RDF><cc:Work
         rdf:about=""><dc:format>image/svg+xml</dc:format><dc:type
           rdf:resource="http://purl.org/dc/dcmitype/StillImage" /></cc:Work></rdf:RDF></metadata><defs
     id="defs6"><clipPath
       id="clipPath16"
       clipPathUnits="userSpaceOnUse"><path
         id="path18"
         d="m 16,212 0,-52 8,0 0,-8 -8,0 0,-20 8,0 0,-4 -8,0 0,-60 8,0 0,-8 -8,0 0,-20 8,0 8,0 208,0 0,120 0,4 0,48 -224,0 z m 216,-6 c 0,1.104 0.896,2 2,2 l 0,0 c 1.104,0 2,-0.896 2,-2 l 0,0 c 0,-1.104 -0.896,-2 -2,-2 l 0,0 c -1.104,0 -2,0.896 -2,2 m -212,0 c 0,1.104 0.895,2 2,2 l 0,0 c 1.105,0 2,-0.896 2,-2 l 0,0 c 0,-1.104 -0.895,-2 -2,-2 l 0,0 c -1.105,0 -2,0.896 -2,2 M 232,46 c 0,1.104 0.896,2 2,2 l 0,0 c 1.104,0 2,-0.896 2,-2 l 0,0 c 0,-1.104 -0.896,-2 -2,-2 l 0,0 c -1.104,0 -2,0.896 -2,2 M 20,46 c 0,1.104 0.895,2 2,2 l 0,0 c 1.105,0 2,-0.896 2,-2 l 0,0 c 0,-1.104 -0.895,-2 -2,-2 l 0,0 c -1.105,0 -2,0.896 -2,2" /></clipPath><linearGradient
       id="linearGradient24"
       spreadMethod="pad"
       gradientTransform="matrix(198,-198,-198,-198,29,225)"
       gradientUnits="userSpaceOnUse"
       y2="0"
       x2="1"
       y1="0"
       x1="0"><stop
         id="stop26"
         offset="0"
         style="stop-opacity:1;stop-color:#e6e7e8" /><stop
         id="stop28"
         offset="1"
         style="stop-opacity:1;stop-color:#d1d3d4" /></linearGradient><clipPath
       id="clipPath36"
       clipPathUnits="userSpaceOnUse"><path
         id="path38"
         d="M 0,256 256,256 256,0 0,0 0,256 Z" /></clipPath><clipPath
       id="clipPath88"
       clipPathUnits="userSpaceOnUse"><path
         id="path90"
         d="m 108,168 20,0 0,4 -20,0 0,-4 z" /></clipPath><linearGradient
       id="linearGradient96"
       spreadMethod="pad"
       gradientTransform="matrix(-11.999999,11.999999,11.999999,11.999999,124,164)"
       gradientUnits="userSpaceOnUse"
       y2="0"
       x2="1"
       y1="0"
       x1="0"><stop
         id="stop98"
         offset="0"
         style="stop-opacity:1;stop-color:#e6e7e8" /><stop
         id="stop100"
         offset="1"
         style="stop-opacity:1;stop-color:#d1d3d4" /></linearGradient><clipPath
       id="clipPath108"
       clipPathUnits="userSpaceOnUse"><path
         id="path110"
         d="m 132,168 12,0 0,4 -12,0 0,-4 z" /></clipPath><linearGradient
       id="linearGradient116"
       spreadMethod="pad"
       gradientTransform="matrix(-7.9999995,7.9999995,7.9999995,7.9999995,142,166)"
       gradientUnits="userSpaceOnUse"
       y2="0"
       x2="1"
       y1="0"
       x1="0"><stop
         id="stop118"
         offset="0"
         style="stop-opacity:1;stop-color:#e6e7e8" /><stop
         id="stop120"
         offset="1"
         style="stop-opacity:1;stop-color:#d1d3d4" /></linearGradient><clipPath
       id="clipPath128"
       clipPathUnits="userSpaceOnUse"><path
         id="path130"
         d="m 148,168 16,0 0,4 -16,0 0,-4 z" /></clipPath><linearGradient
       id="linearGradient136"
       spreadMethod="pad"
       gradientTransform="matrix(-10,10,10,10,161,165)"
       gradientUnits="userSpaceOnUse"
       y2="0"
       x2="1"
       y1="0"
       x1="0"><stop
         id="stop138"
         offset="0"
         style="stop-opacity:1;stop-color:#e6e7e8" /><stop
         id="stop140"
         offset="1"
         style="stop-opacity:1;stop-color:#d1d3d4" /></linearGradient><clipPath
       id="clipPath148"
       clipPathUnits="userSpaceOnUse"><path
         id="path150"
         d="M 0,256 256,256 256,0 0,0 0,256 Z" /></clipPath><clipPath
       id="clipPath242"
       clipPathUnits="userSpaceOnUse"><path
         id="path244"
         d="m 60,56 15.999,0 0,4.001 L 60,60.001 60,56 Z" /></clipPath><linearGradient
       id="linearGradient250"
       spreadMethod="pad"
       gradientTransform="matrix(-10,10,10,10,73,53)"
       gradientUnits="userSpaceOnUse"
       y2="0"
       x2="1"
       y1="0"
       x1="0"><stop
         id="stop252"
         offset="0"
         style="stop-opacity:1;stop-color:#e6e7e8" /><stop
         id="stop254"
         offset="1"
         style="stop-opacity:1;stop-color:#d1d3d4" /></linearGradient><clipPath
       id="clipPath262"
       clipPathUnits="userSpaceOnUse"><path
         id="path264"
         d="M 0,256 256,256 256,0 0,0 0,256 Z" /></clipPath><clipPath
       id="clipPath276"
       clipPathUnits="userSpaceOnUse"><path
         id="path278"
         d="m 80,56 16,0 0,4.001 -16,0 L 80,56 Z" /></clipPath><linearGradient
       id="linearGradient284"
       spreadMethod="pad"
       gradientTransform="matrix(-10,10,10,10,93,53)"
       gradientUnits="userSpaceOnUse"
       y2="0"
       x2="1"
       y1="0"
       x1="0"><stop
         id="stop286"
         offset="0"
         style="stop-opacity:1;stop-color:#e6e7e8" /><stop
         id="stop288"
         offset="1"
         style="stop-opacity:1;stop-color:#d1d3d4" /></linearGradient><clipPath
       id="clipPath296"
       clipPathUnits="userSpaceOnUse"><path
         id="path298"
         d="M 0,256 256,256 256,0 0,0 0,256 Z" /></clipPath><clipPath
       id="clipPath310"
       clipPathUnits="userSpaceOnUse"><path
         id="path312"
         d="m 100,56 12,0 0,4.001 -12,0 0,-4.001 z" /></clipPath><linearGradient
       id="linearGradient318"
       spreadMethod="pad"
       gradientTransform="matrix(-7.9999995,7.9999995,7.9999995,7.9999995,110,54)"
       gradientUnits="userSpaceOnUse"
       y2="0"
       x2="1"
       y1="0"
       x1="0"><stop
         id="stop320"
         offset="0"
         style="stop-opacity:1;stop-color:#e6e7e8" /><stop
         id="stop322"
         offset="1"
         style="stop-opacity:1;stop-color:#d1d3d4" /></linearGradient><clipPath
       id="clipPath330"
       clipPathUnits="userSpaceOnUse"><path
         id="path332"
         d="M 0,256 256,256 256,0 0,0 0,256 Z" /></clipPath><clipPath
       id="clipPath344"
       clipPathUnits="userSpaceOnUse"><path
         id="path346"
         d="m 120,56 12.001,0 0,4.001 -12.001,0 0,-4.001 z" /></clipPath><linearGradient
       id="linearGradient352"
       spreadMethod="pad"
       gradientTransform="matrix(-7.9999995,7.9999995,7.9999995,7.9999995,130,54)"
       gradientUnits="userSpaceOnUse"
       y2="0"
       x2="1"
       y1="0"
       x1="0"><stop
         id="stop354"
         offset="0"
         style="stop-opacity:1;stop-color:#e6e7e8" /><stop
         id="stop356"
         offset="1"
         style="stop-opacity:1;stop-color:#d1d3d4" /></linearGradient><clipPath
       id="clipPath364"
       clipPathUnits="userSpaceOnUse"><path
         id="path366"
         d="M 0,256 256,256 256,0 0,0 0,256 Z" /></clipPath><clipPath
       id="clipPath410"
       clipPathUnits="userSpaceOnUse"><path
         id="path412"
         d="m 32,148 c 0,-2.209 1.791,-4 4,-4 l 0,0 c 2.209,0 4,1.791 4,4 l 0,0 c 0,2.209 -1.791,4 -4,4 l 0,0 c -2.209,0 -4,-1.791 -4,-4" /></clipPath><linearGradient
       id="linearGradient418"
       spreadMethod="pad"
       gradientTransform="matrix(-5.6568542,5.6568542,5.6568542,5.6568542,38.828426,145.17157)"
       gradientUnits="userSpaceOnUse"
       y2="0"
       x2="1"
       y1="0"
       x1="0"><stop
         id="stop420"
         offset="0"
         style="stop-opacity:1;stop-color:#e6e7e8" /><stop
         id="stop422"
         offset="1"
         style="stop-opacity:1;stop-color:#d1d3d4" /></linearGradient><clipPath
       id="clipPath430"
       clipPathUnits="userSpaceOnUse"><path
         id="path432"
         d="m 212,164 7.999,0 0,36 -7.999,0 0,-36 z" /></clipPath><linearGradient
       id="linearGradient438"
       spreadMethod="pad"
       gradientTransform="matrix(-22,22,22,22,227,171)"
       gradientUnits="userSpaceOnUse"
       y2="0"
       x2="1"
       y1="0"
       x1="0"><stop
         id="stop440"
         offset="0"
         style="stop-opacity:1;stop-color:#e6e7e8" /><stop
         id="stop442"
         offset="1"
         style="stop-opacity:1;stop-color:#d1d3d4" /></linearGradient><clipPath
       id="clipPath450"
       clipPathUnits="userSpaceOnUse"><path
         id="path452"
         d="m 212,124 7.999,0 0,36 -7.999,0 0,-36 z" /></clipPath><linearGradient
       id="linearGradient458"
       spreadMethod="pad"
       gradientTransform="matrix(-22,22,22,22,227,131)"
       gradientUnits="userSpaceOnUse"
       y2="0"
       x2="1"
       y1="0"
       x1="0"><stop
         id="stop460"
         offset="0"
         style="stop-opacity:1;stop-color:#e6e7e8" /><stop
         id="stop462"
         offset="1"
         style="stop-opacity:1;stop-color:#d1d3d4" /></linearGradient><clipPath
       id="clipPath470"
       clipPathUnits="userSpaceOnUse"><path
         id="path472"
         d="m 224,84 8,0 0,36 -8,0 0,-36 z" /></clipPath><linearGradient
       id="linearGradient478"
       spreadMethod="pad"
       gradientTransform="matrix(-22,22,22,22,239,91)"
       gradientUnits="userSpaceOnUse"
       y2="0"
       x2="1"
       y1="0"
       x1="0"><stop
         id="stop480"
         offset="0"
         style="stop-opacity:1;stop-color:#e6e7e8" /><stop
         id="stop482"
         offset="1"
         style="stop-opacity:1;stop-color:#d1d3d4" /></linearGradient><clipPath
       id="clipPath490"
       clipPathUnits="userSpaceOnUse"><path
         id="path492"
         d="m 224,68 8,0 0,12 -8,0 0,-12 z" /></clipPath><linearGradient
       id="linearGradient498"
       spreadMethod="pad"
       gradientTransform="matrix(-10,10,10,10,233,69)"
       gradientUnits="userSpaceOnUse"
       y2="0"
       x2="1"
       y1="0"
       x1="0"><stop
         id="stop500"
         offset="0"
         style="stop-opacity:1;stop-color:#e6e7e8" /><stop
         id="stop502"
         offset="1"
         style="stop-opacity:1;stop-color:#d1d3d4" /></linearGradient><clipPath
       id="clipPath510"
       clipPathUnits="userSpaceOnUse"><path
         id="path512"
         d="M 0,256 256,256 256,0 0,0 0,256 Z" /></clipPath><clipPath
       id="clipPath520"
       clipPathUnits="userSpaceOnUse"><path
         id="path522"
         d="m 16,144 8,0 0,4 -8,0 0,-4 z" /></clipPath><linearGradient
       id="linearGradient528"
       spreadMethod="pad"
       gradientTransform="matrix(5.9999995,-5.9999995,-5.9999995,-5.9999995,17,149)"
       gradientUnits="userSpaceOnUse"
       y2="0"
       x2="1"
       y1="0"
       x1="0"><stop
         id="stop530"
         offset="0"
         style="stop-opacity:1;stop-color:#e6e7e8" /><stop
         id="stop532"
         offset="1"
         style="stop-opacity:1;stop-color:#d1d3d4" /></linearGradient><clipPath
       id="clipPath540"
       clipPathUnits="userSpaceOnUse"><path
         id="path542"
         d="m 16,136 8,0 0,4.001 -8,0 0,-4.001 z" /></clipPath><linearGradient
       id="linearGradient548"
       spreadMethod="pad"
       gradientTransform="matrix(5.9999995,-5.9999995,-5.9999995,-5.9999995,17,141)"
       gradientUnits="userSpaceOnUse"
       y2="0"
       x2="1"
       y1="0"
       x1="0"><stop
         id="stop550"
         offset="0"
         style="stop-opacity:1;stop-color:#e6e7e8" /><stop
         id="stop552"
         offset="1"
         style="stop-opacity:1;stop-color:#d1d3d4" /></linearGradient><clipPath
       id="clipPath560"
       clipPathUnits="userSpaceOnUse"><path
         id="path562"
         d="m 16,120 8,0 0,4.001 -8,0 0,-4.001 z" /></clipPath><linearGradient
       id="linearGradient568"
       spreadMethod="pad"
       gradientTransform="matrix(5.9999995,-5.9999995,-5.9999995,-5.9999995,17,125)"
       gradientUnits="userSpaceOnUse"
       y2="0"
       x2="1"
       y1="0"
       x1="0"><stop
         id="stop570"
         offset="0"
         style="stop-opacity:1;stop-color:#e6e7e8" /><stop
         id="stop572"
         offset="1"
         style="stop-opacity:1;stop-color:#d1d3d4" /></linearGradient><clipPath
       id="clipPath580"
       clipPathUnits="userSpaceOnUse"><path
         id="path582"
         d="m 16,112 8,0 0,4.001 -8,0 0,-4.001 z" /></clipPath><linearGradient
       id="linearGradient588"
       spreadMethod="pad"
       gradientTransform="matrix(5.9999995,-5.9999995,-5.9999995,-5.9999995,17,117)"
       gradientUnits="userSpaceOnUse"
       y2="0"
       x2="1"
       y1="0"
       x1="0"><stop
         id="stop590"
         offset="0"
         style="stop-opacity:1;stop-color:#e6e7e8" /><stop
         id="stop592"
         offset="1"
         style="stop-opacity:1;stop-color:#d1d3d4" /></linearGradient><clipPath
       id="clipPath600"
       clipPathUnits="userSpaceOnUse"><path
         id="path602"
         d="m 16,104 8,0 0,4 -8,0 0,-4 z" /></clipPath><linearGradient
       id="linearGradient608"
       spreadMethod="pad"
       gradientTransform="matrix(5.9999995,-5.9999995,-5.9999995,-5.9999995,17,109)"
       gradientUnits="userSpaceOnUse"
       y2="0"
       x2="1"
       y1="0"
       x1="0"><stop
         id="stop610"
         offset="0"
         style="stop-opacity:1;stop-color:#e6e7e8" /><stop
         id="stop612"
         offset="1"
         style="stop-opacity:1;stop-color:#d1d3d4" /></linearGradient><clipPath
       id="clipPath620"
       clipPathUnits="userSpaceOnUse"><path
         id="path622"
         d="m 16,96 8,0 0,4 -8,0 0,-4 z" /></clipPath><linearGradient
       id="linearGradient628"
       spreadMethod="pad"
       gradientTransform="matrix(5.9999995,-5.9999995,-5.9999995,-5.9999995,17,101)"
       gradientUnits="userSpaceOnUse"
       y2="0"
       x2="1"
       y1="0"
       x1="0"><stop
         id="stop630"
         offset="0"
         style="stop-opacity:1;stop-color:#e6e7e8" /><stop
         id="stop632"
         offset="1"
         style="stop-opacity:1;stop-color:#d1d3d4" /></linearGradient><clipPath
       id="clipPath640"
       clipPathUnits="userSpaceOnUse"><path
         id="path642"
         d="m 16,88 8,0 0,4 -8,0 0,-4 z" /></clipPath><linearGradient
       id="linearGradient648"
       spreadMethod="pad"
       gradientTransform="matrix(5.9999995,-5.9999995,-5.9999995,-5.9999995,17,93)"
       gradientUnits="userSpaceOnUse"
       y2="0"
       x2="1"
       y1="0"
       x1="0"><stop
         id="stop650"
         offset="0"
         style="stop-opacity:1;stop-color:#e6e7e8" /><stop
         id="stop652"
         offset="1"
         style="stop-opacity:1;stop-color:#d1d3d4" /></linearGradient><clipPath
       id="clipPath660"
       clipPathUnits="userSpaceOnUse"><path
         id="path662"
         d="m 16,80 8,0 0,4 -8,0 0,-4 z" /></clipPath><linearGradient
       id="linearGradient668"
       spreadMethod="pad"
       gradientTransform="matrix(5.9999995,-5.9999995,-5.9999995,-5.9999995,17,85)"
       gradientUnits="userSpaceOnUse"
       y2="0"
       x2="1"
       y1="0"
       x1="0"><stop
         id="stop670"
         offset="0"
         style="stop-opacity:1;stop-color:#e6e7e8" /><stop
         id="stop672"
         offset="1"
         style="stop-opacity:1;stop-color:#d1d3d4" /></linearGradient><clipPath
       id="clipPath680"
       clipPathUnits="userSpaceOnUse"><path
         id="path682"
         d="m 16,72 8,0 0,4 -8,0 0,-4 z" /></clipPath><linearGradient
       id="linearGradient688"
       spreadMethod="pad"
       gradientTransform="matrix(5.9999995,-5.9999995,-5.9999995,-5.9999995,17,77)"
       gradientUnits="userSpaceOnUse"
       y2="0"
       x2="1"
       y1="0"
       x1="0"><stop
         id="stop690"
         offset="0"
         style="stop-opacity:1;stop-color:#e6e7e8" /><stop
         id="stop692"
         offset="1"
         style="stop-opacity:1;stop-color:#d1d3d4" /></linearGradient></defs><g
     transform="matrix(1.25,0,0,-1.25,0,320)"
     id="g10"><g
       id="g12"><g
         clip-path="url(#clipPath16)"
         id="g14"><g
           id="g20"><g
             id="g22"><path
               id="path30"
               style="fill:url(#linearGradient24);stroke:none"
               d="m 16,212 0,-52 8,0 0,-8 -8,0 0,-20 8,0 0,-4 -8,0 0,-60 8,0 0,-8 -8,0 0,-20 8,0 8,0 208,0 0,120 0,4 0,48 -224,0 z m 216,-6 c 0,1.104 0.896,2 2,2 l 0,0 c 1.104,0 2,-0.896 2,-2 l 0,0 c 0,-1.104 -0.896,-2 -2,-2 l 0,0 c -1.104,0 -2,0.896 -2,2 m -212,0 c 0,1.104 0.895,2 2,2 l 0,0 c 1.105,0 2,-0.896 2,-2 l 0,0 c 0,-1.104 -0.895,-2 -2,-2 l 0,0 c -1.105,0 -2,0.896 -2,2 M 232,46 c 0,1.104 0.896,2 2,2 l 0,0 c 1.104,0 2,-0.896 2,-2 l 0,0 c 0,-1.104 -0.896,-2 -2,-2 l 0,0 c -1.104,0 -2,0.896 -2,2 M 20,46 c 0,1.104 0.895,2 2,2 l 0,0 c 1.105,0 2,-0.896 2,-2 l 0,0 c 0,-1.104 -0.895,-2 -2,-2 l 0,0 c -1.105,0 -2,0.896 -2,2" /></g></g></g></g><g
       id="g32"><g
         clip-path="url(#clipPath36)"
         id="g34"><path
           id="path40"
           style="fill:#999999;fill-opacity:1;fill-rule:nonzero;stroke:none"
           d="m 112,196 -40,0 0,8 40,0 0,-8 z" /><path
           id="path42"
           style="fill:#999999;fill-opacity:1;fill-rule:nonzero;stroke:none"
           d="m 104,180 -36,0 0,8 36,0 0,-8 z" /><path
           id="path44"
           style="fill:#999999;fill-opacity:1;fill-rule:nonzero;stroke:none"
           d="m 136,184 -28,0 0,8 28,0 0,-8 z" /><g
           transform="translate(28,196)"
           id="g46"><path
             id="path48"
             style="fill:#999999;fill-opacity:1;fill-rule:nonzero;stroke:none"
             d="m 0,0 c 0,-2.209 -1.791,-4 -4,-4 -2.209,0 -4,1.791 -4,4 0,2.209 1.791,4 4,4 2.209,0 4,-1.791 4,-4" /></g><g
           transform="translate(28,184)"
           id="g50"><path
             id="path52"
             style="fill:#999999;fill-opacity:1;fill-rule:nonzero;stroke:none"
             d="m 0,0 c 0,-2.209 -1.791,-4 -4,-4 -2.209,0 -4,1.791 -4,4 0,2.209 1.791,4 4,4 2.209,0 4,-1.791 4,-4" /></g><g
           transform="translate(48,184)"
           id="g54"><path
             id="path56"
             style="fill:#ffffff;fill-opacity:1;fill-rule:nonzero;stroke:none"
             d="m 0,0 c 0,-2.209 -1.791,-4 -4,-4 -2.209,0 -4,1.791 -4,4 0,2.209 1.791,4 4,4 2.209,0 4,-1.791 4,-4" /></g><g
           transform="translate(48,172)"
           id="g58"><path
             id="path60"
             style="fill:#ffffff;fill-opacity:1;fill-rule:nonzero;stroke:none"
             d="m 0,0 c 0,-2.209 -1.791,-4 -4,-4 -2.209,0 -4,1.791 -4,4 0,2.209 1.791,4 4,4 2.209,0 4,-1.791 4,-4" /></g><g
           transform="translate(36,194)"
           id="g62"><path
             id="path64"
             style="fill:#999999;fill-opacity:1;fill-rule:nonzero;stroke:none"
             d="m 0,0 c 0,-1.104 -0.896,-2 -2,-2 -1.104,0 -2,0.896 -2,2 0,1.104 0.896,2 2,2 1.104,0 2,-0.896 2,-2" /></g><g
           transform="translate(44,194)"
           id="g66"><path
             id="path68"
             style="fill:#999999;fill-opacity:1;fill-rule:nonzero;stroke:none"
             d="m 0,0 c 0,-1.104 -0.896,-2 -2,-2 -1.104,0 -2,0.896 -2,2 0,1.104 0.896,2 2,2 1.104,0 2,-0.896 2,-2" /></g><g
           transform="translate(52,194)"
           id="g70"><path
             id="path72"
             style="fill:#999999;fill-opacity:1;fill-rule:nonzero;stroke:none"
             d="m 0,0 c 0,-1.104 -0.896,-2 -2,-2 -1.104,0 -2,0.896 -2,2 0,1.104 0.896,2 2,2 1.104,0 2,-0.896 2,-2" /></g><g
           transform="translate(60,198)"
           id="g74"><path
             id="path76"
             style="fill:#999999;fill-opacity:1;fill-rule:nonzero;stroke:none"
             d="m 0,0 c 0,-1.104 -0.896,-2 -2,-2 -1.104,0 -2,0.896 -2,2 0,1.104 0.896,2 2,2 1.104,0 2,-0.896 2,-2" /></g><path
           id="path78"
           style="fill:#999999;fill-opacity:1;fill-rule:nonzero;stroke:none"
           d="m 164,188 -24,0 0,4 24,0 0,-4 z" /><path
           id="path80"
           style="fill:#999999;fill-opacity:1;fill-rule:nonzero;stroke:none"
           d="m 164,176 -24,0 0,4 24,0 0,-4 z" /><path
           id="path82"
           style="fill:#999999;fill-opacity:1;fill-rule:nonzero;stroke:none"
           d="m 136,176 -24,0 0,4 24,0 0,-4 z" /></g></g><g
       id="g84"><g
         clip-path="url(#clipPath88)"
         id="g86"><g
           id="g92"><g
             id="g94"><path
               id="path102"
               style="fill:url(#linearGradient96);stroke:none"
               d="m 108,168 20,0 0,4 -20,0 0,-4 z" /></g></g></g></g><g
       id="g104"><g
         clip-path="url(#clipPath108)"
         id="g106"><g
           id="g112"><g
             id="g114"><path
               id="path122"
               style="fill:url(#linearGradient116);stroke:none"
               d="m 132,168 12,0 0,4 -12,0 0,-4 z" /></g></g></g></g><g
       id="g124"><g
         clip-path="url(#clipPath128)"
         id="g126"><g
           id="g132"><g
             id="g134"><path
               id="path142"
               style="fill:url(#linearGradient136);stroke:none"
               d="m 148,168 16,0 0,4 -16,0 0,-4 z" /></g></g></g></g><g
       id="g144"><g
         clip-path="url(#clipPath148)"
         id="g146"><path
           id="path152"
           style="fill:#999999;fill-opacity:1;fill-rule:nonzero;stroke:none"
           d="m 132,160 -24,0 0,4 24,0 0,-4 z" /><path
           id="path154"
           style="fill:#999999;fill-opacity:1;fill-rule:nonzero;stroke:none"
           d="m 148,160 -12,0 0,4 12,0 0,-4 z" /><path
           id="path156"
           style="fill:#999999;fill-opacity:1;fill-rule:nonzero;stroke:none"
           d="m 64,160 -16,0 0,4 16,0 0,-4 z" /><path
           id="path158"
           style="fill:#999999;fill-opacity:1;fill-rule:nonzero;stroke:none"
           d="m 44,160 -12,0 0,4 12,0 0,-4 z" /><path
           id="path160"
           style="fill:#999999;fill-opacity:1;fill-rule:nonzero;stroke:none"
           d="m 76,144 -24,0 0,8 24,0 0,-8 z" /><path
           id="path162"
           style="fill:#999999;fill-opacity:1;fill-rule:nonzero;stroke:none"
           d="m 140,136 -60,0 0,16 60,0 0,-16 z" /><path
           id="path164"
           style="fill:#999999;fill-opacity:1;fill-rule:nonzero;stroke:none"
           d="m 88,160 -16,0 0,12 16,0 0,-12 z" /><path
           id="path166"
           style="fill:#ffffff;fill-opacity:1;fill-rule:nonzero;stroke:none"
           d="m 104,160 -8,0 0,16 8,0 0,-16 z" /><path
           id="path168"
           style="fill:#999999;fill-opacity:1;fill-rule:nonzero;stroke:none"
           d="m 200,172 -20,0 0,20 20,0 0,-20 z" /><path
           id="path170"
           style="fill:#999999;fill-opacity:1;fill-rule:nonzero;stroke:none"
           d="m 200,140 -20,0 0,20 20,0 0,-20 z" /><path
           id="path172"
           style="fill:#999999;fill-opacity:1;fill-rule:nonzero;stroke:none"
           d="m 200,100 -20,0 0,20 20,0 0,-20 z" /><path
           id="path174"
           style="fill:#999999;fill-opacity:1;fill-rule:nonzero;stroke:none"
           d="m 200,68 -20,0 0,20 20,0 0,-20 z" /><path
           id="path176"
           style="fill:#999999;fill-opacity:1;fill-rule:nonzero;stroke:none"
           d="m 132,124 -32,0 0,8 32,0 0,-8 z" /><path
           id="path178"
           style="fill:#999999;fill-opacity:1;fill-rule:nonzero;stroke:none"
           d="m 164,124 -28,0 0,8 28,0 0,-8 z" /><path
           id="path180"
           style="fill:#999999;fill-opacity:1;fill-rule:nonzero;stroke:none"
           d="m 132,112 -32,0 0,8 32,0 0,-8 z" /><path
           id="path182"
           style="fill:#999999;fill-opacity:1;fill-rule:nonzero;stroke:none"
           d="m 164,112 -28,0 0,8 28,0 0,-8 z" /><path
           id="path184"
           style="fill:#999999;fill-opacity:1;fill-rule:nonzero;stroke:none"
           d="m 132,96 -28,0 0,8 28,0 0,-8 z" /><path
           id="path186"
           style="fill:#999999;fill-opacity:1;fill-rule:nonzero;stroke:none"
           d="m 164,96 -28,0 0,8 28,0 0,-8 z" /><path
           id="path188"
           style="fill:#999999;fill-opacity:1;fill-rule:nonzero;stroke:none"
           d="m 220,84 -8,0 0,36 8,0 0,-36 z" /><path
           id="path190"
           style="fill:#999999;fill-opacity:1;fill-rule:nonzero;stroke:none"
           d="m 220,68 -8,0 0,12 8,0 0,-12 z" /><path
           id="path192"
           style="fill:#999999;fill-opacity:1;fill-rule:nonzero;stroke:none"
           d="m 232,124 -8,0 0,36 8,0 0,-36 z" /><path
           id="path194"
           style="fill:#999999;fill-opacity:1;fill-rule:nonzero;stroke:none"
           d="m 232,164 -8,0 0,36 8,0 0,-36 z" /><path
           id="path196"
           style="fill:#999999;fill-opacity:1;fill-rule:nonzero;stroke:none"
           d="m 208,200 -16,0 0,4 16,0 0,-4 z" /><path
           id="path198"
           style="fill:#999999;fill-opacity:1;fill-rule:nonzero;stroke:none"
           d="m 56,120 -20,0 0,8 20,0 0,-8 z" /><path
           id="path200"
           style="fill:#999999;fill-opacity:1;fill-rule:nonzero;stroke:none"
           d="m 56,96 -20,0 0,8 20,0 0,-8 z" /><path
           id="path202"
           style="fill:#999999;fill-opacity:1;fill-rule:nonzero;stroke:none"
           d="m 56,64 -20,0 0,8 20,0 0,-8 z" /><path
           id="path204"
           style="fill:#ffffff;fill-opacity:1;fill-rule:nonzero;stroke:none"
           d="m 56,52 -28,0 0,4 28,0 0,-4 z" /><path
           id="path206"
           style="fill:#ffffff;fill-opacity:1;fill-rule:nonzero;stroke:none"
           d="m 56,44 -28,0 0,4 28,0 0,-4 z" /><path
           id="path208"
           style="fill:#999999;fill-opacity:1;fill-rule:nonzero;stroke:none"
           d="m 76,128 -16,0 0,4 16,0 0,-4 z" /><path
           id="path210"
           style="fill:#999999;fill-opacity:1;fill-rule:nonzero;stroke:none"
           d="m 96,128 -16,0 0,4 16,0 0,-4 z" /><path
           id="path212"
           style="fill:#999999;fill-opacity:1;fill-rule:nonzero;stroke:none"
           d="m 76,120 -16,0 0,4 16,0 0,-4 z" /><path
           id="path214"
           style="fill:#999999;fill-opacity:1;fill-rule:nonzero;stroke:none"
           d="m 96,120 -16,0 0,4 16,0 0,-4 z" /><path
           id="path216"
           style="fill:#999999;fill-opacity:1;fill-rule:nonzero;stroke:none"
           d="m 76,112 -16,0 0,4 16,0 0,-4 z" /><path
           id="path218"
           style="fill:#999999;fill-opacity:1;fill-rule:nonzero;stroke:none"
           d="m 96,112 -16,0 0,4 16,0 0,-4 z" /><path
           id="path220"
           style="fill:#999999;fill-opacity:1;fill-rule:nonzero;stroke:none"
           d="m 76,104 -16,0 0,4 16,0 0,-4 z" /><path
           id="path222"
           style="fill:#999999;fill-opacity:1;fill-rule:nonzero;stroke:none"
           d="m 96,104 -16,0 0,4 16,0 0,-4 z" /><path
           id="path224"
           style="fill:#999999;fill-opacity:1;fill-rule:nonzero;stroke:none"
           d="m 76,96 -16,0 0,4 16,0 0,-4 z" /><path
           id="path226"
           style="fill:#999999;fill-opacity:1;fill-rule:nonzero;stroke:none"
           d="m 96,96 -16,0 0,4 16,0 0,-4 z" /><path
           id="path228"
           style="fill:#999999;fill-opacity:1;fill-rule:nonzero;stroke:none"
           d="m 76,88 -16,0 0,4 16,0 0,-4 z" /><path
           id="path230"
           style="fill:#999999;fill-opacity:1;fill-rule:nonzero;stroke:none"
           d="m 104,88 -24,0 0,4 24,0 0,-4 z" /><path
           id="path232"
           style="fill:#999999;fill-opacity:1;fill-rule:nonzero;stroke:none"
           d="m 76,80 -16,0 0,4 16,0 0,-4 z" /><path
           id="path234"
           style="fill:#999999;fill-opacity:1;fill-rule:nonzero;stroke:none"
           d="m 76,72 -16,0 0,4 16,0 0,-4 z" /><path
           id="path236"
           style="fill:#999999;fill-opacity:1;fill-rule:nonzero;stroke:none"
           d="m 76,64 -16,0 0,4 16,0 0,-4 z" /></g></g><g
       id="g238"><g
         clip-path="url(#clipPath242)"
         id="g240"><g
           id="g246"><g
             id="g248"><path
               id="path256"
               style="fill:url(#linearGradient250);stroke:none"
               d="m 60,56 15.999,0 0,4.001 L 60,60.001 60,56 Z" /></g></g></g></g><g
       id="g258"><g
         clip-path="url(#clipPath262)"
         id="g260"><path
           id="path266"
           style="fill:#999999;fill-opacity:1;fill-rule:nonzero;stroke:none"
           d="m 76,48 -16,0 0,4 16,0 0,-4 z" /><path
           id="path268"
           style="fill:#999999;fill-opacity:1;fill-rule:nonzero;stroke:none"
           d="m 96,72 -16,0 0,4 16,0 0,-4 z" /><path
           id="path270"
           style="fill:#999999;fill-opacity:1;fill-rule:nonzero;stroke:none"
           d="m 96,64 -16,0 0,4 16,0 0,-4 z" /></g></g><g
       id="g272"><g
         clip-path="url(#clipPath276)"
         id="g274"><g
           id="g280"><g
             id="g282"><path
               id="path290"
               style="fill:url(#linearGradient284);stroke:none"
               d="m 80,56 16,0 0,4.001 -16,0 L 80,56 Z" /></g></g></g></g><g
       id="g292"><g
         clip-path="url(#clipPath296)"
         id="g294"><path
           id="path300"
           style="fill:#999999;fill-opacity:1;fill-rule:nonzero;stroke:none"
           d="m 96,48 -16,0 0,4 16,0 0,-4 z" /><path
           id="path302"
           style="fill:#999999;fill-opacity:1;fill-rule:nonzero;stroke:none"
           d="m 112,72 -12,0 0,4 12,0 0,-4 z" /><path
           id="path304"
           style="fill:#999999;fill-opacity:1;fill-rule:nonzero;stroke:none"
           d="m 112,64 -12,0 0,4 12,0 0,-4 z" /></g></g><g
       id="g306"><g
         clip-path="url(#clipPath310)"
         id="g308"><g
           id="g314"><g
             id="g316"><path
               id="path324"
               style="fill:url(#linearGradient318);stroke:none"
               d="m 100,56 12,0 0,4.001 -12,0 0,-4.001 z" /></g></g></g></g><g
       id="g326"><g
         clip-path="url(#clipPath330)"
         id="g328"><path
           id="path334"
           style="fill:#999999;fill-opacity:1;fill-rule:nonzero;stroke:none"
           d="m 112,48 -12,0 0,4 12,0 0,-4 z" /><path
           id="path336"
           style="fill:#999999;fill-opacity:1;fill-rule:nonzero;stroke:none"
           d="m 132,72 -12,0 0,4 12,0 0,-4 z" /><path
           id="path338"
           style="fill:#999999;fill-opacity:1;fill-rule:nonzero;stroke:none"
           d="m 132,64 -12,0 0,4 12,0 0,-4 z" /></g></g><g
       id="g340"><g
         clip-path="url(#clipPath344)"
         id="g342"><g
           id="g348"><g
             id="g350"><path
               id="path358"
               style="fill:url(#linearGradient352);stroke:none"
               d="m 120,56 12.001,0 0,4.001 -12.001,0 0,-4.001 z" /></g></g></g></g><g
       id="g360"><g
         clip-path="url(#clipPath364)"
         id="g362"><path
           id="path368"
           style="fill:#999999;fill-opacity:1;fill-rule:nonzero;stroke:none"
           d="m 132,48 -12,0 0,4 12,0 0,-4 z" /><path
           id="path370"
           style="fill:#999999;fill-opacity:1;fill-rule:nonzero;stroke:none"
           d="m 104,80 -24,0 0,4 24,0 0,-4 z" /><path
           id="path372"
           style="fill:#999999;fill-opacity:1;fill-rule:nonzero;stroke:none"
           d="m 124,88 -16,0 0,4 16,0 0,-4 z" /><path
           id="path374"
           style="fill:#999999;fill-opacity:1;fill-rule:nonzero;stroke:none"
           d="m 124,80 -16,0 0,4 16,0 0,-4 z" /><path
           id="path376"
           style="fill:#999999;fill-opacity:1;fill-rule:nonzero;stroke:none"
           d="m 148,88 -16,0 0,4 16,0 0,-4 z" /><path
           id="path378"
           style="fill:#999999;fill-opacity:1;fill-rule:nonzero;stroke:none"
           d="m 148,80 -16,0 0,4 16,0 0,-4 z" /><path
           id="path380"
           style="fill:#999999;fill-opacity:1;fill-rule:nonzero;stroke:none"
           d="m 168,88 -16,0 0,4 16,0 0,-4 z" /><path
           id="path382"
           style="fill:#999999;fill-opacity:1;fill-rule:nonzero;stroke:none"
           d="m 168,68 -16,0 0,12 16,0 0,-12 z" /><path
           id="path384"
           style="fill:#ffffff;fill-opacity:1;fill-rule:nonzero;stroke:none"
           d="m 148,64 -12,0 0,8 12,0 0,-8 z" /><path
           id="path386"
           style="fill:#ffffff;fill-opacity:1;fill-rule:nonzero;stroke:none"
           d="m 148,48 -12,0 0,8 12,0 0,-8 z" /><g
           transform="translate(164,60)"
           id="g388"><path
             id="path390"
             style="fill:#ffffff;fill-opacity:1;fill-rule:nonzero;stroke:none"
             d="m 0,0 8,0 0,-4 -8,0 0,-4 0,-8 4,0 8,0 0,4 -8,0 0,4 4,0 4,0 0,8 0,4 L 0,4 0,0 Z" /></g><path
           id="path392"
           style="fill:#ffffff;fill-opacity:1;fill-rule:nonzero;stroke:none"
           d="m 188,48 -4,0 0,12 4,0 0,-12 z m -4,16 -4,0 0,-20 4,0 4,0 4,0 0,20 -4,0 -4,0 z" /><path
           id="path394"
           style="fill:#ffffff;fill-opacity:1;fill-rule:nonzero;stroke:none"
           d="m 224,48 -4,0 0,12 4,0 0,-12 z m -8,16 0,-4 0,-16 4,0 8,0 0,4 0,12 0,4 -12,0 z" /><g
           transform="translate(208,48)"
           id="g396"><path
             id="path398"
             style="fill:#ffffff;fill-opacity:1;fill-rule:nonzero;stroke:none"
             d="m 0,0 0,12 0,4 -4,0 -4,0 0,-4 4,0 0,-12 -4,0 0,-4 4,0 4,0 4,0 0,4 -4,0 z" /></g><path
           id="path400"
           style="fill:#999999;fill-opacity:1;fill-rule:nonzero;stroke:none"
           d="m 160,48 -8,0 0,16 8,0 0,-16 z" /><path
           id="path402"
           style="fill:#999999;fill-opacity:1;fill-rule:nonzero;stroke:none"
           d="m 52,80 -16,0 0,8 16,0 0,-8 z" /><path
           id="path404"
           style="fill:#999999;fill-opacity:1;fill-rule:nonzero;stroke:none"
           d="m 52,108 -16,0 0,8 16,0 0,-8 z" /></g></g><g
       id="g406"><g
         clip-path="url(#clipPath410)"
         id="g408"><g
           id="g414"><g
             id="g416"><path
               id="path424"
               style="fill:url(#linearGradient418);stroke:none"
               d="m 32,148 c 0,-2.209 1.791,-4 4,-4 l 0,0 c 2.209,0 4,1.791 4,4 l 0,0 c 0,2.209 -1.791,4 -4,4 l 0,0 c -2.209,0 -4,-1.791 -4,-4" /></g></g></g></g><g
       id="g426"><g
         clip-path="url(#clipPath430)"
         id="g428"><g
           id="g434"><g
             id="g436"><path
               id="path444"
               style="fill:url(#linearGradient438);stroke:none"
               d="m 212,164 7.999,0 0,36 -7.999,0 0,-36 z" /></g></g></g></g><g
       id="g446"><g
         clip-path="url(#clipPath450)"
         id="g448"><g
           id="g454"><g
             id="g456"><path
               id="path464"
               style="fill:url(#linearGradient458);stroke:none"
               d="m 212,124 7.999,0 0,36 -7.999,0 0,-36 z" /></g></g></g></g><g
       id="g466"><g
         clip-path="url(#clipPath470)"
         id="g468"><g
           id="g474"><g
             id="g476"><path
               id="path484"
               style="fill:url(#linearGradient478);stroke:none"
               d="m 224,84 8,0 0,36 -8,0 0,-36 z" /></g></g></g></g><g
       id="g486"><g
         clip-path="url(#clipPath490)"
         id="g488"><g
           id="g494"><g
             id="g496"><path
               id="path504"
               style="fill:url(#linearGradient498);stroke:none"
               d="m 224,68 8,0 0,12 -8,0 0,-12 z" /></g></g></g></g><g
       id="g506"><g
         clip-path="url(#clipPath510)"
         id="g508"><path
           id="path514"
           style="fill:#ffffff;fill-opacity:1;fill-rule:nonzero;stroke:none"
           d="m 168,136 -20,0 0,16 20,0 0,-16 z" /></g></g><g
       id="g516"><g
         clip-path="url(#clipPath520)"
         id="g518"><g
           id="g524"><g
             id="g526"><path
               id="path534"
               style="fill:url(#linearGradient528);stroke:none"
               d="m 16,144 8,0 0,4 -8,0 0,-4 z" /></g></g></g></g><g
       id="g536"><g
         clip-path="url(#clipPath540)"
         id="g538"><g
           id="g544"><g
             id="g546"><path
               id="path554"
               style="fill:url(#linearGradient548);stroke:none"
               d="m 16,136 8,0 0,4.001 -8,0 0,-4.001 z" /></g></g></g></g><g
       id="g556"><g
         clip-path="url(#clipPath560)"
         id="g558"><g
           id="g564"><g
             id="g566"><path
               id="path574"
               style="fill:url(#linearGradient568);stroke:none"
               d="m 16,120 8,0 0,4.001 -8,0 0,-4.001 z" /></g></g></g></g><g
       id="g576"><g
         clip-path="url(#clipPath580)"
         id="g578"><g
           id="g584"><g
             id="g586"><path
               id="path594"
               style="fill:url(#linearGradient588);stroke:none"
               d="m 16,112 8,0 0,4.001 -8,0 0,-4.001 z" /></g></g></g></g><g
       id="g596"><g
         clip-path="url(#clipPath600)"
         id="g598"><g
           id="g604"><g
             id="g606"><path
               id="path614"
               style="fill:url(#linearGradient608);stroke:none"
               d="m 16,104 8,0 0,4 -8,0 0,-4 z" /></g></g></g></g><g
       id="g616"><g
         clip-path="url(#clipPath620)"
         id="g618"><g
           id="g624"><g
             id="g626"><path
               id="path634"
               style="fill:url(#linearGradient628);stroke:none"
               d="m 16,96 8,0 0,4 -8,0 0,-4 z" /></g></g></g></g><g
       id="g636"><g
         clip-path="url(#clipPath640)"
         id="g638"><g
           id="g644"><g
             id="g646"><path
               id="path654"
               style="fill:url(#linearGradient648);stroke:none"
               d="m 16,88 8,0 0,4 -8,0 0,-4 z" /></g></g></g></g><g
       id="g656"><g
         clip-path="url(#clipPath660)"
         id="g658"><g
           id="g664"><g
             id="g666"><path
               id="path674"
               style="fill:url(#linearGradient668);stroke:none"
               d="m 16,80 8,0 0,4 -8,0 0,-4 z" /></g></g></g></g><g
       id="g676"><g
         clip-path="url(#clipPath680)"
         id="g678"><g
           id="g684"><g
             id="g686"><path
               id="path694"
               style="fill:url(#linearGradient688);stroke:none"
               d="m 16,72 8,0 0,4 -8,0 0,-4 z" /></g></g></g></g></g></svg>