<?xml version="1.0" encoding="UTF-8" standalone="no"?>
<svg
   xmlns:dc="http://purl.org/dc/elements/1.1/"
   xmlns:cc="http://creativecommons.org/ns#"
   xmlns:rdf="http://www.w3.org/1999/02/22-rdf-syntax-ns#"
   xmlns:svg="http://www.w3.org/2000/svg"
   xmlns="http://www.w3.org/2000/svg"
   viewBox="0 0 320 320"
   height="320"
   width="320"
   xml:space="preserve"
   version="1.1"
   id="svg2"><metadata
     id="metadata8"><rdf:RDF><cc:Work
         rdf:about=""><dc:format>image/svg+xml</dc:format><dc:type
           rdf:resource="http://purl.org/dc/dcmitype/StillImage" /></cc:Work></rdf:RDF></metadata><defs
     id="defs6"><clipPath
       id="clipPath16"
       clipPathUnits="userSpaceOnUse"><path
         id="path18"
         d="m 80,236 c -6.617,0 -12,-5.383 -12,-12 l 0,0 0,-116 c 0,-2.953 1.613,-5.531 4,-6.918 l 0,0 0,-81.082 0,-4 4,0 104,0 4,0 0,85.082 c 2.386,1.387 4,3.965 4,6.918 l 0,0 0,116 c 0,6.617 -5.383,12 -12,12 l 0,0 -96,0 z m -4,-136 104,0 0,-80 -104,0 0,80 z" /></clipPath><linearGradient
       id="linearGradient24"
       spreadMethod="pad"
       gradientTransform="matrix(164.48131,-164.48131,-164.48131,-164.48131,45.759346,206.72195)"
       gradientUnits="userSpaceOnUse"
       y2="0"
       x2="1"
       y1="0"
       x1="0"><stop
         id="stop26"
         offset="0"
         style="stop-opacity:1;stop-color:#e6e7e8" /><stop
         id="stop28"
         offset="1"
         style="stop-opacity:1;stop-color:#d1d3d4" /></linearGradient><clipPath
       id="clipPath36"
       clipPathUnits="userSpaceOnUse"><path
         id="path38"
         d="m 72,116 112,0 0,88 -112,0 0,-88 z" /></clipPath><linearGradient
       id="linearGradient44"
       spreadMethod="pad"
       gradientTransform="matrix(-100,100,100,100,178,110)"
       gradientUnits="userSpaceOnUse"
       y2="0"
       x2="1"
       y1="0"
       x1="0"><stop
         id="stop46"
         offset="0"
         style="stop-opacity:1;stop-color:#e6e7e8" /><stop
         id="stop48"
         offset="1"
         style="stop-opacity:1;stop-color:#d1d3d4" /></linearGradient><clipPath
       id="clipPath56"
       clipPathUnits="userSpaceOnUse"><path
         id="path58"
         d="m 76,20 104,0 0,80 -104,0 0,-80 z" /></clipPath><linearGradient
       id="linearGradient64"
       spreadMethod="pad"
       gradientTransform="matrix(-92,92,92,92,174,14)"
       gradientUnits="userSpaceOnUse"
       y2="0"
       x2="1"
       y1="0"
       x1="0"><stop
         id="stop66"
         offset="0"
         style="stop-opacity:1;stop-color:#e6e7e8" /><stop
         id="stop68"
         offset="1"
         style="stop-opacity:1;stop-color:#d1d3d4" /></linearGradient><clipPath
       id="clipPath76"
       clipPathUnits="userSpaceOnUse"><path
         id="path78"
         d="M 0,256 256,256 256,0 0,0 0,256 Z" /></clipPath><clipPath
       id="clipPath86"
       clipPathUnits="userSpaceOnUse"><path
         id="path88"
         d="m 72,204 112,0 0,4 -112,0 0,-4 z" /></clipPath><linearGradient
       id="linearGradient94"
       spreadMethod="pad"
       gradientTransform="matrix(57.999996,-57.999996,-57.999996,-57.999996,99,235)"
       gradientUnits="userSpaceOnUse"
       y2="0"
       x2="1"
       y1="0"
       x1="0"><stop
         id="stop96"
         offset="0"
         style="stop-opacity:1;stop-color:#e6e7e8" /><stop
         id="stop98"
         offset="1"
         style="stop-opacity:1;stop-color:#d1d3d4" /></linearGradient><clipPath
       id="clipPath106"
       clipPathUnits="userSpaceOnUse"><path
         id="path108"
         d="m 72,184 112,0 0,4 -112,0 0,-4 z" /></clipPath><linearGradient
       id="linearGradient114"
       spreadMethod="pad"
       gradientTransform="matrix(57.999996,-57.999996,-57.999996,-57.999996,99,215)"
       gradientUnits="userSpaceOnUse"
       y2="0"
       x2="1"
       y1="0"
       x1="0"><stop
         id="stop116"
         offset="0"
         style="stop-opacity:1;stop-color:#e6e7e8" /><stop
         id="stop118"
         offset="1"
         style="stop-opacity:1;stop-color:#d1d3d4" /></linearGradient><clipPath
       id="clipPath126"
       clipPathUnits="userSpaceOnUse"><path
         id="path128"
         d="M 0,256 256,256 256,0 0,0 0,256 Z" /></clipPath><clipPath
       id="clipPath150"
       clipPathUnits="userSpaceOnUse"><path
         id="path152"
         d="m 72,196 c 0,-4.419 3.581,-8 8,-8 l 0,0 c 4.418,0 8,3.581 8,8 l 0,0 c 0,4.418 -3.582,8 -8,8 l 0,0 c -4.419,0 -8,-3.582 -8,-8" /></clipPath><linearGradient
       id="linearGradient158"
       spreadMethod="pad"
       gradientTransform="matrix(11.313708,-11.313708,-11.313708,-11.313708,74.343147,201.65686)"
       gradientUnits="userSpaceOnUse"
       y2="0"
       x2="1"
       y1="0"
       x1="0"><stop
         id="stop160"
         offset="0"
         style="stop-opacity:1;stop-color:#e6e7e8" /><stop
         id="stop162"
         offset="1"
         style="stop-opacity:1;stop-color:#d1d3d4" /></linearGradient><clipPath
       id="clipPath170"
       clipPathUnits="userSpaceOnUse"><path
         id="path172"
         d="m 168,196 c 0,-4.419 3.582,-8 8,-8 l 0,0 c 4.418,0 8,3.581 8,8 l 0,0 c 0,4.418 -3.582,8 -8,8 l 0,0 c -4.418,0 -8,-3.582 -8,-8" /></clipPath><linearGradient
       id="linearGradient178"
       spreadMethod="pad"
       gradientTransform="matrix(11.313708,-11.313708,-11.313708,-11.313708,170.34314,201.65686)"
       gradientUnits="userSpaceOnUse"
       y2="0"
       x2="1"
       y1="0"
       x1="0"><stop
         id="stop180"
         offset="0"
         style="stop-opacity:1;stop-color:#e6e7e8" /><stop
         id="stop182"
         offset="1"
         style="stop-opacity:1;stop-color:#d1d3d4" /></linearGradient><clipPath
       id="clipPath190"
       clipPathUnits="userSpaceOnUse"><path
         id="path192"
         d="m 84,88 c -2.209,0 -4,-1.791 -4,-4 l 0,0 0,-56 c 0,-2.209 1.791,-4 4,-4 l 0,0 56,0 c 2.209,0 4,1.791 4,4 l 0,0 0,56 c 0,2.209 -1.791,4 -4,4 l 0,0 -56,0 z m 0,-4 56.001,0 0,-56 L 84,28 84,84 Z" /></clipPath><linearGradient
       id="linearGradient198"
       spreadMethod="pad"
       gradientTransform="matrix(61.656864,-61.656864,-61.656864,-61.656864,81.17157,86.828445)"
       gradientUnits="userSpaceOnUse"
       y2="0"
       x2="1"
       y1="0"
       x1="0"><stop
         id="stop200"
         offset="0"
         style="stop-opacity:1;stop-color:#e6e7e8" /><stop
         id="stop202"
         offset="1"
         style="stop-opacity:1;stop-color:#d1d3d4" /></linearGradient><clipPath
       id="clipPath210"
       clipPathUnits="userSpaceOnUse"><path
         id="path212"
         d="m 152,80 c -2.209,0 -4,-1.791 -4,-4 l 0,0 0,-16 c 0,-2.209 1.791,-4 4,-4 l 0,0 20,0 c 2.209,0 4,1.791 4,4 l 0,0 0,16 c 0,2.209 -1.791,4 -4,4 l 0,0 -20,0 z m 0,-4 20,0 0,-15.999 -20,0 0,15.999 z" /></clipPath><linearGradient
       id="linearGradient218"
       spreadMethod="pad"
       gradientTransform="matrix(23.656862,-23.656862,-23.656862,-23.656862,150.17157,79.828445)"
       gradientUnits="userSpaceOnUse"
       y2="0"
       x2="1"
       y1="0"
       x1="0"><stop
         id="stop220"
         offset="0"
         style="stop-opacity:1;stop-color:#e6e7e8" /><stop
         id="stop222"
         offset="1"
         style="stop-opacity:1;stop-color:#d1d3d4" /></linearGradient><clipPath
       id="clipPath230"
       clipPathUnits="userSpaceOnUse"><path
         id="path232"
         d="m 152,52 c -2.209,0 -4,-1.791 -4,-4 l 0,0 0,-20 c 0,-2.209 1.791,-4 4,-4 l 0,0 20,0 c 2.209,0 4,1.791 4,4 l 0,0 0,20 c 0,2.209 -1.791,4 -4,4 l 0,0 -20,0 z m 0,-4 20,0 0,-20 -20,0 0,20 z" /></clipPath><linearGradient
       id="linearGradient238"
       spreadMethod="pad"
       gradientTransform="matrix(25.656864,-25.656864,-25.656864,-25.656864,149.17157,50.828442)"
       gradientUnits="userSpaceOnUse"
       y2="0"
       x2="1"
       y1="0"
       x1="0"><stop
         id="stop240"
         offset="0"
         style="stop-opacity:1;stop-color:#e6e7e8" /><stop
         id="stop242"
         offset="1"
         style="stop-opacity:1;stop-color:#d1d3d4" /></linearGradient><clipPath
       id="clipPath250"
       clipPathUnits="userSpaceOnUse"><path
         id="path252"
         d="m 112,78 c 0,-1.105 0.895,-2 2,-2 l 0,0 c 1.105,0 2,0.895 2,2 l 0,0 c 0,1.105 -0.895,2 -2,2 l 0,0 c -1.105,0 -2,-0.895 -2,-2" /></clipPath><linearGradient
       id="linearGradient258"
       spreadMethod="pad"
       gradientTransform="matrix(2.8284271,-2.8284271,-2.8284271,-2.8284271,112.58578,79.414215)"
       gradientUnits="userSpaceOnUse"
       y2="0"
       x2="1"
       y1="0"
       x1="0"><stop
         id="stop260"
         offset="0"
         style="stop-opacity:1;stop-color:#e6e7e8" /><stop
         id="stop262"
         offset="1"
         style="stop-opacity:1;stop-color:#d1d3d4" /></linearGradient><clipPath
       id="clipPath270"
       clipPathUnits="userSpaceOnUse"><path
         id="path272"
         d="m 156,66 c 0,-1.105 0.895,-2 2,-2 l 0,0 c 1.105,0 2,0.895 2,2 l 0,0 c 0,1.105 -0.895,2 -2,2 l 0,0 c -1.105,0 -2,-0.895 -2,-2" /></clipPath><linearGradient
       id="linearGradient278"
       spreadMethod="pad"
       gradientTransform="matrix(2.8284271,-2.8284271,-2.8284271,-2.8284271,156.58578,67.414215)"
       gradientUnits="userSpaceOnUse"
       y2="0"
       x2="1"
       y1="0"
       x1="0"><stop
         id="stop280"
         offset="0"
         style="stop-opacity:1;stop-color:#e6e7e8" /><stop
         id="stop282"
         offset="1"
         style="stop-opacity:1;stop-color:#d1d3d4" /></linearGradient><clipPath
       id="clipPath290"
       clipPathUnits="userSpaceOnUse"><path
         id="path292"
         d="m 156,42 c 0,-1.105 0.895,-2 2,-2 l 0,0 c 1.105,0 2,0.895 2,2 l 0,0 c 0,1.105 -0.895,2 -2,2 l 0,0 c -1.105,0 -2,-0.895 -2,-2" /></clipPath><linearGradient
       id="linearGradient298"
       spreadMethod="pad"
       gradientTransform="matrix(2.8284271,-2.8284271,-2.8284271,-2.8284271,156.58578,43.414215)"
       gradientUnits="userSpaceOnUse"
       y2="0"
       x2="1"
       y1="0"
       x1="0"><stop
         id="stop300"
         offset="0"
         style="stop-opacity:1;stop-color:#e6e7e8" /><stop
         id="stop302"
         offset="1"
         style="stop-opacity:1;stop-color:#d1d3d4" /></linearGradient><clipPath
       id="clipPath310"
       clipPathUnits="userSpaceOnUse"><path
         id="path312"
         d="M 0,256 256,256 256,0 0,0 0,256 Z" /></clipPath></defs><g
     transform="matrix(1.25,0,0,-1.25,0,320)"
     id="g10"><g
       id="g12"><g
         clip-path="url(#clipPath16)"
         id="g14"><g
           id="g20"><g
             id="g22"><path
               id="path30"
               style="fill:url(#linearGradient24);stroke:none"
               d="m 80,236 c -6.617,0 -12,-5.383 -12,-12 l 0,0 0,-116 c 0,-2.953 1.613,-5.531 4,-6.918 l 0,0 0,-81.082 0,-4 4,0 104,0 4,0 0,85.082 c 2.386,1.387 4,3.965 4,6.918 l 0,0 0,116 c 0,6.617 -5.383,12 -12,12 l 0,0 -96,0 z m -4,-136 104,0 0,-80 -104,0 0,80 z" /></g></g></g></g><g
       id="g32"><g
         clip-path="url(#clipPath36)"
         id="g34"><g
           id="g40"><g
             id="g42"><path
               id="path50"
               style="fill:url(#linearGradient44);stroke:none"
               d="m 72,116 112,0 0,88 -112,0 0,-88 z" /></g></g></g></g><g
       id="g52"><g
         clip-path="url(#clipPath56)"
         id="g54"><g
           id="g60"><g
             id="g62"><path
               id="path70"
               style="fill:url(#linearGradient64);stroke:none"
               d="m 76,20 104,0 0,80 -104,0 0,-80 z" /></g></g></g></g><g
       id="g72"><g
         clip-path="url(#clipPath76)"
         id="g74"><path
           id="path80"
           style="fill:#999999;fill-opacity:1;fill-rule:nonzero;stroke:none"
           d="m 180,128 -104,0 0,52 104,0 0,-52 z" /></g></g><g
       id="g82"><g
         clip-path="url(#clipPath86)"
         id="g84"><g
           id="g90"><g
             id="g92"><path
               id="path100"
               style="fill:url(#linearGradient94);stroke:none"
               d="m 72,204 112,0 0,4 -112,0 0,-4 z" /></g></g></g></g><g
       id="g102"><g
         clip-path="url(#clipPath106)"
         id="g104"><g
           id="g110"><g
             id="g112"><path
               id="path120"
               style="fill:url(#linearGradient114);stroke:none"
               d="m 72,184 112,0 0,4 -112,0 0,-4 z" /></g></g></g></g><g
       id="g122"><g
         clip-path="url(#clipPath126)"
         id="g124"><path
           id="path130"
           style="fill:#999999;fill-opacity:1;fill-rule:nonzero;stroke:none"
           d="m 94,116 -4,0 0,8 4,0 0,-8 z" /><g
           transform="translate(96,124)"
           id="g132"><path
             id="path134"
             style="fill:#ffffff;fill-opacity:1;fill-rule:nonzero;stroke:none"
             d="m 0,0 c 0,-2.209 -1.791,-4 -4,-4 -2.209,0 -4,1.791 -4,4 0,2.209 1.791,4 4,4 2.209,0 4,-1.791 4,-4" /></g><path
           id="path136"
           style="fill:#999999;fill-opacity:1;fill-rule:nonzero;stroke:none"
           d="m 146,116 -4,0 0,8 4,0 0,-8 z" /><g
           transform="translate(148,124)"
           id="g138"><path
             id="path140"
             style="fill:#ffffff;fill-opacity:1;fill-rule:nonzero;stroke:none"
             d="m 0,0 c 0,-2.209 -1.791,-4 -4,-4 -2.209,0 -4,1.791 -4,4 0,2.209 1.791,4 4,4 2.209,0 4,-1.791 4,-4" /></g><g
           transform="translate(176,232)"
           id="g142"><path
             id="path144"
             style="fill:#999999;fill-opacity:1;fill-rule:nonzero;stroke:none"
             d="m 0,0 -96,0 c -4.418,0 -8,-3.582 -8,-8 l 0,-16 112,0 0,16 C 8,-3.582 4.418,0 0,0" /></g></g></g><g
       id="g146"><g
         clip-path="url(#clipPath150)"
         id="g148"><g
           id="g154"><g
             id="g156"><path
               id="path164"
               style="fill:url(#linearGradient158);stroke:none"
               d="m 72,196 c 0,-4.419 3.581,-8 8,-8 l 0,0 c 4.418,0 8,3.581 8,8 l 0,0 c 0,4.418 -3.582,8 -8,8 l 0,0 c -4.419,0 -8,-3.582 -8,-8" /></g></g></g></g><g
       id="g166"><g
         clip-path="url(#clipPath170)"
         id="g168"><g
           id="g174"><g
             id="g176"><path
               id="path184"
               style="fill:url(#linearGradient178);stroke:none"
               d="m 168,196 c 0,-4.419 3.582,-8 8,-8 l 0,0 c 4.418,0 8,3.581 8,8 l 0,0 c 0,4.418 -3.582,8 -8,8 l 0,0 c -4.418,0 -8,-3.582 -8,-8" /></g></g></g></g><g
       id="g186"><g
         clip-path="url(#clipPath190)"
         id="g188"><g
           id="g194"><g
             id="g196"><path
               id="path204"
               style="fill:url(#linearGradient198);stroke:none"
               d="m 84,88 c -2.209,0 -4,-1.791 -4,-4 l 0,0 0,-56 c 0,-2.209 1.791,-4 4,-4 l 0,0 56,0 c 2.209,0 4,1.791 4,4 l 0,0 0,56 c 0,2.209 -1.791,4 -4,4 l 0,0 -56,0 z m 0,-4 56.001,0 0,-56 L 84,28 84,84 Z" /></g></g></g></g><g
       id="g206"><g
         clip-path="url(#clipPath210)"
         id="g208"><g
           id="g214"><g
             id="g216"><path
               id="path224"
               style="fill:url(#linearGradient218);stroke:none"
               d="m 152,80 c -2.209,0 -4,-1.791 -4,-4 l 0,0 0,-16 c 0,-2.209 1.791,-4 4,-4 l 0,0 20,0 c 2.209,0 4,1.791 4,4 l 0,0 0,16 c 0,2.209 -1.791,4 -4,4 l 0,0 -20,0 z m 0,-4 20,0 0,-15.999 -20,0 0,15.999 z" /></g></g></g></g><g
       id="g226"><g
         clip-path="url(#clipPath230)"
         id="g228"><g
           id="g234"><g
             id="g236"><path
               id="path244"
               style="fill:url(#linearGradient238);stroke:none"
               d="m 152,52 c -2.209,0 -4,-1.791 -4,-4 l 0,0 0,-20 c 0,-2.209 1.791,-4 4,-4 l 0,0 20,0 c 2.209,0 4,1.791 4,4 l 0,0 0,20 c 0,2.209 -1.791,4 -4,4 l 0,0 -20,0 z m 0,-4 20,0 0,-20 -20,0 0,20 z" /></g></g></g></g><g
       id="g246"><g
         clip-path="url(#clipPath250)"
         id="g248"><g
           id="g254"><g
             id="g256"><path
               id="path264"
               style="fill:url(#linearGradient258);stroke:none"
               d="m 112,78 c 0,-1.105 0.895,-2 2,-2 l 0,0 c 1.105,0 2,0.895 2,2 l 0,0 c 0,1.105 -0.895,2 -2,2 l 0,0 c -1.105,0 -2,-0.895 -2,-2" /></g></g></g></g><g
       id="g266"><g
         clip-path="url(#clipPath270)"
         id="g268"><g
           id="g274"><g
             id="g276"><path
               id="path284"
               style="fill:url(#linearGradient278);stroke:none"
               d="m 156,66 c 0,-1.105 0.895,-2 2,-2 l 0,0 c 1.105,0 2,0.895 2,2 l 0,0 c 0,1.105 -0.895,2 -2,2 l 0,0 c -1.105,0 -2,-0.895 -2,-2" /></g></g></g></g><g
       id="g286"><g
         clip-path="url(#clipPath290)"
         id="g288"><g
           id="g294"><g
             id="g296"><path
               id="path304"
               style="fill:url(#linearGradient298);stroke:none"
               d="m 156,42 c 0,-1.105 0.895,-2 2,-2 l 0,0 c 1.105,0 2,0.895 2,2 l 0,0 c 0,1.105 -0.895,2 -2,2 l 0,0 c -1.105,0 -2,-0.895 -2,-2" /></g></g></g></g><g
       id="g306"><g
         clip-path="url(#clipPath310)"
         id="g308"><g
           transform="translate(96,160)"
           id="g314"><path
             id="path316"
             style="fill:#ffffff;fill-opacity:1;fill-rule:nonzero;stroke:none"
             d="m 0,0 8,0 0,-4 -8,0 0,-4 0,-8 4,0 8,0 0,4 -8,0 0,4 4,0 4,0 0,8 0,4 L 0,4 0,0 Z" /></g><path
           id="path318"
           style="fill:#ffffff;fill-opacity:1;fill-rule:nonzero;stroke:none"
           d="m 120,148 -4,0 0,12 4,0 0,-12 z m -8,-4 12,0 0,20 -12,0 0,-20 z" /><g
           transform="translate(140,148)"
           id="g320"><path
             id="path322"
             style="fill:#ffffff;fill-opacity:1;fill-rule:nonzero;stroke:none"
             d="m 0,0 0,16 -4,0 -4,0 0,-4 4,0 0,-12 -4,0 0,-4 4,0 4,0 4,0 0,4 -4,0 z" /></g><path
           id="path324"
           style="fill:#ffffff;fill-opacity:1;fill-rule:nonzero;stroke:none"
           d="m 156,148 -4,0 0,4 4,0 0,-4 z m 4,12 0,4 -8,0 -4,0 0,-4 0,-4 0,-4 0,-4 0,-4 4,0 4,0 4,0 0,4 0,4 0,4 -4,0 -4,0 0,4 8,0 z" /></g></g></g></svg>