<?xml version="1.0" encoding="UTF-8" standalone="no"?>
<svg
   xmlns:dc="http://purl.org/dc/elements/1.1/"
   xmlns:cc="http://creativecommons.org/ns#"
   xmlns:rdf="http://www.w3.org/1999/02/22-rdf-syntax-ns#"
   xmlns:svg="http://www.w3.org/2000/svg"
   xmlns="http://www.w3.org/2000/svg"
   viewBox="0 0 320 320"
   height="320"
   width="320"
   xml:space="preserve"
   version="1.1"
   id="svg2"><metadata
     id="metadata8"><rdf:RDF><cc:Work
         rdf:about=""><dc:format>image/svg+xml</dc:format><dc:type
           rdf:resource="http://purl.org/dc/dcmitype/StillImage" /></cc:Work></rdf:RDF></metadata><defs
     id="defs6"><clipPath
       id="clipPath16"
       clipPathUnits="userSpaceOnUse"><path
         id="path18"
         d="m 128,204 c -16,0 -40,8 -40,8 l 0,0 C 64,212 40,192 40,192 l 0,0 88,-60 88,60 c 0,0 -24,20 -48,20 l 0,0 c 0,0 -24,-8 -40,-8" /></clipPath><linearGradient
       id="linearGradient24"
       spreadMethod="pad"
       gradientTransform="matrix(88,-88,-88,-88,84,236)"
       gradientUnits="userSpaceOnUse"
       y2="0"
       x2="1"
       y1="0"
       x1="0"><stop
         id="stop26"
         offset="0"
         style="stop-opacity:1;stop-color:#e6e7e8" /><stop
         id="stop28"
         offset="1"
         style="stop-opacity:1;stop-color:#d1d3d4" /></linearGradient><clipPath
       id="clipPath36"
       clipPathUnits="userSpaceOnUse"><path
         id="path38"
         d="m 184,84 c 0,0 12,-44 40,-44 l 0,0 c 22.532,0 21.752,41.443 20.588,57.63 l 0,0 c -0.275,3.815 -0.889,7.588 -1.839,11.293 l 0,0 C 238.249,126.461 222.795,185.205 216,192 l 0,0 -32,-108 z" /></clipPath><linearGradient
       id="linearGradient44"
       spreadMethod="pad"
       gradientTransform="matrix(83.233101,-83.233101,-83.233101,-83.233101,177.12854,153.12854)"
       gradientUnits="userSpaceOnUse"
       y2="0"
       x2="1"
       y1="0"
       x1="0"><stop
         id="stop46"
         offset="0"
         style="stop-opacity:1;stop-color:#e6e7e8" /><stop
         id="stop48"
         offset="1"
         style="stop-opacity:1;stop-color:#d1d3d4" /></linearGradient><clipPath
       id="clipPath56"
       clipPathUnits="userSpaceOnUse"><path
         id="path58"
         d="M 13.252,108.923 C 12.3,105.218 11.686,101.445 11.412,97.63 l 0,0 C 10.248,81.443 9.469,40 32,40 l 0,0 c 28,0 40,44 40,44 l 0,0 -32,108 C 33.205,185.205 17.752,126.461 13.252,108.923" /></clipPath><linearGradient
       id="linearGradient64"
       spreadMethod="pad"
       gradientTransform="matrix(77.742905,-77.742905,-77.742905,-77.742905,-1.6165495,150.38345)"
       gradientUnits="userSpaceOnUse"
       y2="0"
       x2="1"
       y1="0"
       x1="0"><stop
         id="stop66"
         offset="0"
         style="stop-opacity:1;stop-color:#e6e7e8" /><stop
         id="stop68"
         offset="1"
         style="stop-opacity:1;stop-color:#d1d3d4" /></linearGradient><clipPath
       id="clipPath76"
       clipPathUnits="userSpaceOnUse"><path
         id="path78"
         d="M 142.947,182.757 C 148.459,178.356 152,171.585 152,164 l 0,0 c 0,-13.234 -10.767,-24 -24,-24 l 0,0 c -13.234,0 -24,10.766 -24,24 l 0,0 c 0,7.585 3.541,14.356 9.053,18.757 l 0,0 C 94.952,189.059 80,204 80,204 l 0,0 -40,-12 C 40,192 0,104 72,84 l 0,0 c 0,0 68,16 112,0 l 0,0 c 0,0 64,8 32,108 l 0,0 -40,12 c 0,0 -14.952,-14.941 -33.053,-21.243" /></clipPath><linearGradient
       id="linearGradient84"
       spreadMethod="pad"
       gradientTransform="matrix(-131.89949,131.89949,131.89949,131.89949,193.79256,81.993576)"
       gradientUnits="userSpaceOnUse"
       y2="0"
       x2="1"
       y1="0"
       x1="0"><stop
         id="stop86"
         offset="0"
         style="stop-opacity:1;stop-color:#e6e7e8" /><stop
         id="stop88"
         offset="1"
         style="stop-opacity:1;stop-color:#d1d3d4" /></linearGradient><clipPath
       id="clipPath96"
       clipPathUnits="userSpaceOnUse"><path
         id="path98"
         d="m 40,162 c 0,-12.15 9.849,-22 22,-22 l 0,0 c 12.15,0 22,9.85 22,22 l 0,0 c 0,12.15 -9.85,22 -22,22 l 0,0 c -12.151,0 -22,-9.85 -22,-22" /></clipPath><linearGradient
       id="linearGradient104"
       spreadMethod="pad"
       gradientTransform="matrix(31.112698,-31.112698,-31.112698,-31.112698,46.443649,177.55635)"
       gradientUnits="userSpaceOnUse"
       y2="0"
       x2="1"
       y1="0"
       x1="0"><stop
         id="stop106"
         offset="0"
         style="stop-opacity:1;stop-color:#e6e7e8" /><stop
         id="stop108"
         offset="1"
         style="stop-opacity:1;stop-color:#d1d3d4" /></linearGradient><clipPath
       id="clipPath116"
       clipPathUnits="userSpaceOnUse"><path
         id="path118"
         d="m 174,160 c 0,-11.046 8.954,-20 20,-20 l 0,0 c 11.046,0 20,8.954 20,20 l 0,0 c 0,11.046 -8.954,20 -20,20 l 0,0 c -11.046,0 -20,-8.954 -20,-20" /></clipPath><linearGradient
       id="linearGradient124"
       spreadMethod="pad"
       gradientTransform="matrix(28.284271,-28.284271,-28.284271,-28.284271,179.85786,174.14214)"
       gradientUnits="userSpaceOnUse"
       y2="0"
       x2="1"
       y1="0"
       x1="0"><stop
         id="stop126"
         offset="0"
         style="stop-opacity:1;stop-color:#e6e7e8" /><stop
         id="stop128"
         offset="1"
         style="stop-opacity:1;stop-color:#d1d3d4" /></linearGradient><clipPath
       id="clipPath136"
       clipPathUnits="userSpaceOnUse"><path
         id="path138"
         d="M 0,256 256,256 256,0 0,0 0,256 Z" /></clipPath><clipPath
       id="clipPath164"
       clipPathUnits="userSpaceOnUse"><path
         id="path166"
         d="m 72,84 c 0,0 56,16 112,0 l 0,0 c 0,0 -16,24 -56,24 l 0,0 C 88,108 72,84 72,84" /></clipPath><linearGradient
       id="linearGradient172"
       spreadMethod="pad"
       gradientTransform="matrix(56.326531,-56.326531,-56.326531,-56.326531,99.836731,112.4898)"
       gradientUnits="userSpaceOnUse"
       y2="0"
       x2="1"
       y1="0"
       x1="0"><stop
         id="stop174"
         offset="0"
         style="stop-opacity:1;stop-color:#e6e7e8" /><stop
         id="stop176"
         offset="1"
         style="stop-opacity:1;stop-color:#d1d3d4" /></linearGradient><clipPath
       id="clipPath184"
       clipPathUnits="userSpaceOnUse"><path
         id="path186"
         d="M 0,256 256,256 256,0 0,0 0,256 Z" /></clipPath><clipPath
       id="clipPath196"
       clipPathUnits="userSpaceOnUse"><path
         id="path198"
         d="m 136,120 c 0,-13.255 10.745,-24 24,-24 l 0,0 c 13.255,0 24,10.745 24,24 l 0,0 c 0,13.255 -10.745,24 -24,24 l 0,0 c -13.255,0 -24,-10.745 -24,-24" /></clipPath><linearGradient
       id="linearGradient204"
       spreadMethod="pad"
       gradientTransform="matrix(33.941124,-33.941124,-33.941124,-33.941124,143.02943,136.97057)"
       gradientUnits="userSpaceOnUse"
       y2="0"
       x2="1"
       y1="0"
       x1="0"><stop
         id="stop206"
         offset="0"
         style="stop-opacity:1;stop-color:#e6e7e8" /><stop
         id="stop208"
         offset="1"
         style="stop-opacity:1;stop-color:#d1d3d4" /></linearGradient><clipPath
       id="clipPath216"
       clipPathUnits="userSpaceOnUse"><path
         id="path218"
         d="M 0,256 256,256 256,0 0,0 0,256 Z" /></clipPath><clipPath
       id="clipPath228"
       clipPathUnits="userSpaceOnUse"><path
         id="path230"
         d="m 144,124 c 0,-8.822 7.177,-16 16,-16 l 0,0 c 8.822,0 16,7.178 16,16 l 0,0 c 0,8.822 -7.178,16 -16,16 l 0,0 c -8.823,0 -16,-7.178 -16,-16 m 2,0 c 0,7.732 6.267,14 14,14 l 0,0 c 7.732,0 14,-6.268 14,-14 l 0,0 c 0,-7.733 -6.268,-14 -14,-14 l 0,0 c -7.733,0 -14,6.267 -14,14" /></clipPath><linearGradient
       id="linearGradient236"
       spreadMethod="pad"
       gradientTransform="matrix(-22.616825,22.616825,22.616825,22.616825,171.30841,112.69159)"
       gradientUnits="userSpaceOnUse"
       y2="0"
       x2="1"
       y1="0"
       x1="0"><stop
         id="stop238"
         offset="0"
         style="stop-opacity:1;stop-color:#e6e7e8" /><stop
         id="stop240"
         offset="1"
         style="stop-opacity:1;stop-color:#d1d3d4" /></linearGradient><clipPath
       id="clipPath248"
       clipPathUnits="userSpaceOnUse"><path
         id="path250"
         d="M 0,256 256,256 256,0 0,0 0,256 Z" /></clipPath><clipPath
       id="clipPath260"
       clipPathUnits="userSpaceOnUse"><path
         id="path262"
         d="m 48,162 c 0,-8.823 7.178,-16 16,-16 l 0,0 c 8.823,0 16,7.177 16,16 l 0,0 c 0,8.823 -7.177,16 -16,16 l 0,0 c -8.822,0 -16,-7.177 -16,-16 m 2,0 c 0,7.732 6.268,14 14,14 l 0,0 c 7.732,0 14,-6.268 14,-14 l 0,0 c 0,-7.732 -6.268,-14 -14,-14 l 0,0 c -7.732,0 -14,6.268 -14,14" /></clipPath><linearGradient
       id="linearGradient268"
       spreadMethod="pad"
       gradientTransform="matrix(-22.616823,22.616823,22.616823,22.616823,75.308411,150.69159)"
       gradientUnits="userSpaceOnUse"
       y2="0"
       x2="1"
       y1="0"
       x1="0"><stop
         id="stop270"
         offset="0"
         style="stop-opacity:1;stop-color:#e6e7e8" /><stop
         id="stop272"
         offset="1"
         style="stop-opacity:1;stop-color:#d1d3d4" /></linearGradient><clipPath
       id="clipPath280"
       clipPathUnits="userSpaceOnUse"><path
         id="path282"
         d="M 0,256 256,256 256,0 0,0 0,256 Z" /></clipPath><clipPath
       id="clipPath296"
       clipPathUnits="userSpaceOnUse"><path
         id="path298"
         d="M 70,122 C 70,108.767 80.767,98 94,98 l 0,0 c 13.233,0 24,10.767 24,24 l 0,0 c 0,13.233 -10.767,24 -24,24 l 0,0 C 80.767,146 70,135.233 70,122" /></clipPath><linearGradient
       id="linearGradient304"
       spreadMethod="pad"
       gradientTransform="matrix(33.925232,-33.925232,-33.925232,-33.925232,77.037384,138.96262)"
       gradientUnits="userSpaceOnUse"
       y2="0"
       x2="1"
       y1="0"
       x1="0"><stop
         id="stop306"
         offset="0"
         style="stop-opacity:1;stop-color:#e6e7e8" /><stop
         id="stop308"
         offset="1"
         style="stop-opacity:1;stop-color:#d1d3d4" /></linearGradient><clipPath
       id="clipPath316"
       clipPathUnits="userSpaceOnUse"><path
         id="path318"
         d="m 72,122 c 0,-12.131 9.869,-22 22,-22 l 0,0 c 12.131,0 22,9.869 22,22 l 0,0 c 0,12.131 -9.869,22 -22,22 l 0,0 c -12.131,0 -22,-9.869 -22,-22" /></clipPath><linearGradient
       id="linearGradient324"
       spreadMethod="pad"
       gradientTransform="matrix(-31.098131,31.098131,31.098131,31.098131,109.54906,106.45094)"
       gradientUnits="userSpaceOnUse"
       y2="0"
       x2="1"
       y1="0"
       x1="0"><stop
         id="stop326"
         offset="0"
         style="stop-opacity:1;stop-color:#e6e7e8" /><stop
         id="stop328"
         offset="1"
         style="stop-opacity:1;stop-color:#d1d3d4" /></linearGradient><clipPath
       id="clipPath336"
       clipPathUnits="userSpaceOnUse"><path
         id="path338"
         d="m 108,164 c 0,-11.046 8.954,-20 20,-20 l 0,0 c 11.046,0 20,8.954 20,20 l 0,0 c 0,11.046 -8.954,20 -20,20 l 0,0 c -11.046,0 -20,-8.954 -20,-20" /></clipPath><linearGradient
       id="linearGradient344"
       spreadMethod="pad"
       gradientTransform="matrix(-28.284271,28.284271,28.284271,28.284271,142.14214,149.85786)"
       gradientUnits="userSpaceOnUse"
       y2="0"
       x2="1"
       y1="0"
       x1="0"><stop
         id="stop346"
         offset="0"
         style="stop-opacity:1;stop-color:#e6e7e8" /><stop
         id="stop348"
         offset="1"
         style="stop-opacity:1;stop-color:#d1d3d4" /></linearGradient><clipPath
       id="clipPath356"
       clipPathUnits="userSpaceOnUse"><path
         id="path358"
         d="m 76,122 c 0,-9.941 8.059,-18 18,-18 l 0,0 c 9.941,0 18,8.059 18,18 l 0,0 c 0,9.941 -8.059,18 -18,18 l 0,0 c -9.941,0 -18,-8.059 -18,-18" /></clipPath><linearGradient
       id="linearGradient364"
       spreadMethod="pad"
       gradientTransform="matrix(25.455843,-25.455843,-25.455843,-25.455843,81.272079,134.72792)"
       gradientUnits="userSpaceOnUse"
       y2="0"
       x2="1"
       y1="0"
       x1="0"><stop
         id="stop366"
         offset="0"
         style="stop-opacity:1;stop-color:#e6e7e8" /><stop
         id="stop368"
         offset="1"
         style="stop-opacity:1;stop-color:#d1d3d4" /></linearGradient><clipPath
       id="clipPath376"
       clipPathUnits="userSpaceOnUse"><path
         id="path378"
         d="M 0,256 256,256 256,0 0,0 0,256 Z" /></clipPath></defs><g
     transform="matrix(1.25,0,0,-1.25,0,320)"
     id="g10"><g
       id="g12"><g
         clip-path="url(#clipPath16)"
         id="g14"><g
           id="g20"><g
             id="g22"><path
               id="path30"
               style="fill:url(#linearGradient24);stroke:none"
               d="m 128,204 c -16,0 -40,8 -40,8 l 0,0 C 64,212 40,192 40,192 l 0,0 88,-60 88,60 c 0,0 -24,20 -48,20 l 0,0 c 0,0 -24,-8 -40,-8" /></g></g></g></g><g
       id="g32"><g
         clip-path="url(#clipPath36)"
         id="g34"><g
           id="g40"><g
             id="g42"><path
               id="path50"
               style="fill:url(#linearGradient44);stroke:none"
               d="m 184,84 c 0,0 12,-44 40,-44 l 0,0 c 22.532,0 21.752,41.443 20.588,57.63 l 0,0 c -0.275,3.815 -0.889,7.588 -1.839,11.293 l 0,0 C 238.249,126.461 222.795,185.205 216,192 l 0,0 -32,-108 z" /></g></g></g></g><g
       id="g52"><g
         clip-path="url(#clipPath56)"
         id="g54"><g
           id="g60"><g
             id="g62"><path
               id="path70"
               style="fill:url(#linearGradient64);stroke:none"
               d="M 13.252,108.923 C 12.3,105.218 11.686,101.445 11.412,97.63 l 0,0 C 10.248,81.443 9.469,40 32,40 l 0,0 c 28,0 40,44 40,44 l 0,0 -32,108 C 33.205,185.205 17.752,126.461 13.252,108.923" /></g></g></g></g><g
       id="g72"><g
         clip-path="url(#clipPath76)"
         id="g74"><g
           id="g80"><g
             id="g82"><path
               id="path90"
               style="fill:url(#linearGradient84);stroke:none"
               d="M 142.947,182.757 C 148.459,178.356 152,171.585 152,164 l 0,0 c 0,-13.234 -10.767,-24 -24,-24 l 0,0 c -13.234,0 -24,10.766 -24,24 l 0,0 c 0,7.585 3.541,14.356 9.053,18.757 l 0,0 C 94.952,189.059 80,204 80,204 l 0,0 -40,-12 C 40,192 0,104 72,84 l 0,0 c 0,0 68,16 112,0 l 0,0 c 0,0 64,8 32,108 l 0,0 -40,12 c 0,0 -14.952,-14.941 -33.053,-21.243" /></g></g></g></g><g
       id="g92"><g
         clip-path="url(#clipPath96)"
         id="g94"><g
           id="g100"><g
             id="g102"><path
               id="path110"
               style="fill:url(#linearGradient104);stroke:none"
               d="m 40,162 c 0,-12.15 9.849,-22 22,-22 l 0,0 c 12.15,0 22,9.85 22,22 l 0,0 c 0,12.15 -9.85,22 -22,22 l 0,0 c -12.151,0 -22,-9.85 -22,-22" /></g></g></g></g><g
       id="g112"><g
         clip-path="url(#clipPath116)"
         id="g114"><g
           id="g120"><g
             id="g122"><path
               id="path130"
               style="fill:url(#linearGradient124);stroke:none"
               d="m 174,160 c 0,-11.046 8.954,-20 20,-20 l 0,0 c 11.046,0 20,8.954 20,20 l 0,0 c 0,11.046 -8.954,20 -20,20 l 0,0 c -11.046,0 -20,-8.954 -20,-20" /></g></g></g></g><g
       id="g132"><g
         clip-path="url(#clipPath136)"
         id="g134"><g
           transform="translate(176,152)"
           id="g140"><path
             id="path142"
             style="fill:#999999;fill-opacity:1;fill-rule:nonzero;stroke:none"
             d="m 0,0 0,0 c -4.4,0 -8,3.6 -8,8 0,4.4 3.6,8 8,8 C 4.4,16 8,12.4 8,8 8,3.6 4.4,0 0,0" /></g><g
           transform="translate(212,152)"
           id="g144"><path
             id="path146"
             style="fill:#999999;fill-opacity:1;fill-rule:nonzero;stroke:none"
             d="m 0,0 0,0 c -4.4,0 -8,3.6 -8,8 0,4.4 3.6,8 8,8 C 4.4,16 8,12.4 8,8 8,3.6 4.4,0 0,0" /></g><g
           transform="translate(194,170)"
           id="g148"><path
             id="path150"
             style="fill:#999999;fill-opacity:1;fill-rule:nonzero;stroke:none"
             d="m 0,0 0,0 c -4.4,0 -8,3.6 -8,8 0,4.4 3.6,8 8,8 C 4.4,16 8,12.4 8,8 8,3.6 4.4,0 0,0" /></g><g
           transform="translate(194,136)"
           id="g152"><path
             id="path154"
             style="fill:#999999;fill-opacity:1;fill-rule:nonzero;stroke:none"
             d="m 0,0 0,0 c -4.4,0 -8,3.6 -8,8 0,4.4 3.6,8 8,8 C 4.4,16 8,12.4 8,8 8,3.6 4.4,0 0,0" /></g><g
           transform="translate(214,120)"
           id="g156"><path
             id="path158"
             style="fill:#999999;fill-opacity:1;fill-rule:nonzero;stroke:none"
             d="m 0,0 0,0 c -4.4,0 -8,3.6 -8,8 0,4.4 3.6,8 8,8 C 4.4,16 8,12.4 8,8 8,3.6 4.4,0 0,0" /></g></g></g><g
       id="g160"><g
         clip-path="url(#clipPath164)"
         id="g162"><g
           id="g168"><g
             id="g170"><path
               id="path178"
               style="fill:url(#linearGradient172);stroke:none"
               d="m 72,84 c 0,0 56,16 112,0 l 0,0 c 0,0 -16,24 -56,24 l 0,0 C 88,108 72,84 72,84" /></g></g></g></g><g
       id="g180"><g
         clip-path="url(#clipPath184)"
         id="g182"><g
           transform="translate(204,114)"
           id="g188"><path
             id="path190"
             style="fill:#ffffff;fill-opacity:1;fill-rule:nonzero;stroke:none"
             d="m 0,0 c 0,-4.418 -3.582,-8 -8,-8 -4.418,0 -8,3.582 -8,8 0,4.418 3.582,8 8,8 4.418,0 8,-3.582 8,-8" /></g></g></g><g
       id="g192"><g
         clip-path="url(#clipPath196)"
         id="g194"><g
           id="g200"><g
             id="g202"><path
               id="path210"
               style="fill:url(#linearGradient204);stroke:none"
               d="m 136,120 c 0,-13.255 10.745,-24 24,-24 l 0,0 c 13.255,0 24,10.745 24,24 l 0,0 c 0,13.255 -10.745,24 -24,24 l 0,0 c -13.255,0 -24,-10.745 -24,-24" /></g></g></g></g><g
       id="g212"><g
         clip-path="url(#clipPath216)"
         id="g214"><g
           transform="translate(174,124)"
           id="g220"><path
             id="path222"
             style="fill:#999999;fill-opacity:1;fill-rule:nonzero;stroke:none"
             d="m 0,0 c 0,-7.732 -6.268,-14 -14,-14 -7.732,0 -14,6.268 -14,14 0,7.732 6.268,14 14,14 C -6.268,14 0,7.732 0,0" /></g></g></g><g
       id="g224"><g
         clip-path="url(#clipPath228)"
         id="g226"><g
           id="g232"><g
             id="g234"><path
               id="path242"
               style="fill:url(#linearGradient236);stroke:none"
               d="m 144,124 c 0,-8.822 7.177,-16 16,-16 l 0,0 c 8.822,0 16,7.178 16,16 l 0,0 c 0,8.822 -7.178,16 -16,16 l 0,0 c -8.823,0 -16,-7.178 -16,-16 m 2,0 c 0,7.732 6.267,14 14,14 l 0,0 c 7.732,0 14,-6.268 14,-14 l 0,0 c 0,-7.733 -6.268,-14 -14,-14 l 0,0 c -7.733,0 -14,6.267 -14,14" /></g></g></g></g><g
       id="g244"><g
         clip-path="url(#clipPath248)"
         id="g246"><g
           transform="translate(78,162)"
           id="g252"><path
             id="path254"
             style="fill:#999999;fill-opacity:1;fill-rule:nonzero;stroke:none"
             d="m 0,0 c 0,-7.732 -6.268,-14 -14,-14 -7.732,0 -14,6.268 -14,14 0,7.732 6.268,14 14,14 C -6.268,14 0,7.732 0,0" /></g></g></g><g
       id="g256"><g
         clip-path="url(#clipPath260)"
         id="g258"><g
           id="g264"><g
             id="g266"><path
               id="path274"
               style="fill:url(#linearGradient268);stroke:none"
               d="m 48,162 c 0,-8.823 7.178,-16 16,-16 l 0,0 c 8.823,0 16,7.177 16,16 l 0,0 c 0,8.823 -7.177,16 -16,16 l 0,0 c -8.822,0 -16,-7.177 -16,-16 m 2,0 c 0,7.732 6.268,14 14,14 l 0,0 c 7.732,0 14,-6.268 14,-14 l 0,0 c 0,-7.732 -6.268,-14 -14,-14 l 0,0 c -7.732,0 -14,6.268 -14,14" /></g></g></g></g><g
       id="g276"><g
         clip-path="url(#clipPath280)"
         id="g278"><g
           transform="translate(46,136)"
           id="g284"><path
             id="path286"
             style="fill:#999999;fill-opacity:1;fill-rule:nonzero;stroke:none"
             d="m 0,0 c 0,-3.313 -2.687,-6 -6,-6 -3.313,0 -6,2.687 -6,6 0,3.313 2.687,6 6,6 3.313,0 6,-2.687 6,-6" /></g><g
           transform="translate(60,122)"
           id="g288"><path
             id="path290"
             style="fill:#999999;fill-opacity:1;fill-rule:nonzero;stroke:none"
             d="m 0,0 c 0,-3.313 -2.687,-6 -6,-6 -3.313,0 -6,2.687 -6,6 0,3.313 2.687,6 6,6 3.313,0 6,-2.687 6,-6" /></g></g></g><g
       id="g292"><g
         clip-path="url(#clipPath296)"
         id="g294"><g
           id="g300"><g
             id="g302"><path
               id="path310"
               style="fill:url(#linearGradient304);stroke:none"
               d="M 70,122 C 70,108.767 80.767,98 94,98 l 0,0 c 13.233,0 24,10.767 24,24 l 0,0 c 0,13.233 -10.767,24 -24,24 l 0,0 C 80.767,146 70,135.233 70,122" /></g></g></g></g><g
       id="g312"><g
         clip-path="url(#clipPath316)"
         id="g314"><g
           id="g320"><g
             id="g322"><path
               id="path330"
               style="fill:url(#linearGradient324);stroke:none"
               d="m 72,122 c 0,-12.131 9.869,-22 22,-22 l 0,0 c 12.131,0 22,9.869 22,22 l 0,0 c 0,12.131 -9.869,22 -22,22 l 0,0 c -12.131,0 -22,-9.869 -22,-22" /></g></g></g></g><g
       id="g332"><g
         clip-path="url(#clipPath336)"
         id="g334"><g
           id="g340"><g
             id="g342"><path
               id="path350"
               style="fill:url(#linearGradient344);stroke:none"
               d="m 108,164 c 0,-11.046 8.954,-20 20,-20 l 0,0 c 11.046,0 20,8.954 20,20 l 0,0 c 0,11.046 -8.954,20 -20,20 l 0,0 c -11.046,0 -20,-8.954 -20,-20" /></g></g></g></g><g
       id="g352"><g
         clip-path="url(#clipPath356)"
         id="g354"><g
           id="g360"><g
             id="g362"><path
               id="path370"
               style="fill:url(#linearGradient364);stroke:none"
               d="m 76,122 c 0,-9.941 8.059,-18 18,-18 l 0,0 c 9.941,0 18,8.059 18,18 l 0,0 c 0,9.941 -8.059,18 -18,18 l 0,0 c -9.941,0 -18,-8.059 -18,-18" /></g></g></g></g><g
       id="g372"><g
         clip-path="url(#clipPath376)"
         id="g374"><g
           transform="translate(108,128)"
           id="g380"><path
             id="path382"
             style="fill:#999999;fill-opacity:1;fill-rule:nonzero;stroke:none"
             d="m 0,0 -8,0 0,8 c 0,2.209 -1.791,4 -4,4 l -4,0 c -2.209,0 -4,-1.791 -4,-4 l 0,-8 -7,0 c -2.761,0 -5,-2.238 -5,-5 l 0,-3 c 0,-2.209 1.791,-4 4,-4 l 8,0 0,-8 c 0,-2.209 1.791,-4 4,-4 l 4,0 c 2.209,0 4,1.791 4,4 l 0,8 8,0 c 2.209,0 4,1.791 4,4 l 0,4 C 4,-1.791 2.209,0 0,0" /></g></g></g></g></svg>