<?xml version="1.0" encoding="UTF-8" standalone="no"?>
<svg
   xmlns:dc="http://purl.org/dc/elements/1.1/"
   xmlns:cc="http://creativecommons.org/ns#"
   xmlns:rdf="http://www.w3.org/1999/02/22-rdf-syntax-ns#"
   xmlns:svg="http://www.w3.org/2000/svg"
   xmlns="http://www.w3.org/2000/svg"
   viewBox="0 0 320 320"
   height="320"
   width="320"
   xml:space="preserve"
   version="1.1"
   id="svg2"><metadata
     id="metadata8"><rdf:RDF><cc:Work
         rdf:about=""><dc:format>image/svg+xml</dc:format><dc:type
           rdf:resource="http://purl.org/dc/dcmitype/StillImage" /></cc:Work></rdf:RDF></metadata><defs
     id="defs6"><clipPath
       id="clipPath16"
       clipPathUnits="userSpaceOnUse"><path
         id="path18"
         d="M 12,128 C 12,63.934 63.929,12 128,12 l 0,0 c 64.051,0 116,51.934 116,116 l 0,0 c 0,64.066 -51.949,116 -116,116 l 0,0 C 63.929,244 12,192.066 12,128 m 72.495,0 c 0,23.988 19.513,43.505 43.505,43.505 l 0,0 c 23.988,0 43.5,-19.517 43.5,-43.505 l 0,0 c 0,-23.987 -19.512,-43.505 -43.5,-43.505 l 0,0 c -23.992,0 -43.505,19.518 -43.505,43.505" /></clipPath><linearGradient
       id="linearGradient24"
       spreadMethod="pad"
       gradientTransform="matrix(164.04756,-164.04756,-164.04756,-164.04756,45.972565,210.02379)"
       gradientUnits="userSpaceOnUse"
       y2="0"
       x2="1"
       y1="0"
       x1="0"><stop
         id="stop26"
         offset="0"
         style="stop-opacity:1;stop-color:#e6e7e8" /><stop
         id="stop28"
         offset="1"
         style="stop-opacity:1;stop-color:#d1d3d4" /></linearGradient><clipPath
       id="clipPath36"
       clipPathUnits="userSpaceOnUse"><path
         id="path38"
         d="m 82,128 c 0,-25.349 20.64,-46 46.003,-46 l 0,0 C 153.341,82 174,102.651 174,128 l 0,0 c 0,25.349 -20.659,46 -45.997,46 l 0,0 C 102.64,174 82,153.349 82,128 m 32.216,0 c 0,7.605 6.191,13.785 13.787,13.785 l 0,0 c 7.599,0 13.777,-6.18 13.777,-13.785 l 0,0 c 0,-7.6 -6.178,-13.776 -13.777,-13.776 l 0,0 c -7.596,0 -13.787,6.176 -13.787,13.776" /></clipPath><linearGradient
       id="linearGradient44"
       spreadMethod="pad"
       gradientTransform="matrix(-65.012405,65.012405,65.012405,65.012405,160.50294,95.493797)"
       gradientUnits="userSpaceOnUse"
       y2="0"
       x2="1"
       y1="0"
       x1="0"><stop
         id="stop46"
         offset="0"
         style="stop-opacity:1;stop-color:#e6e7e8" /><stop
         id="stop48"
         offset="1"
         style="stop-opacity:1;stop-color:#d1d3d4" /></linearGradient><clipPath
       id="clipPath56"
       clipPathUnits="userSpaceOnUse"><path
         id="path58"
         d="m 21.942,175.039 3.735,1.31 C 30.245,177.952 71.919,192 128.004,192 l 0,0 c 56.076,0 97.756,-14.048 102.324,-15.65 l 0,0 3.73,-1.307 C 216.008,215.666 175.309,244 128.003,244 l 0,0 C 80.68,244 39.986,215.665 21.942,175.039" /></clipPath><linearGradient
       id="linearGradient64"
       spreadMethod="pad"
       gradientTransform="matrix(-111.5285,111.5285,111.5285,111.5285,183.7627,124.74777)"
       gradientUnits="userSpaceOnUse"
       y2="0"
       x2="1"
       y1="0"
       x1="0"><stop
         id="stop66"
         offset="0"
         style="stop-opacity:1;stop-color:#e6e7e8" /><stop
         id="stop68"
         offset="1"
         style="stop-opacity:1;stop-color:#d1d3d4" /></linearGradient><clipPath
       id="clipPath76"
       clipPathUnits="userSpaceOnUse"><path
         id="path78"
         d="M 0,256 256,256 256,0 0,0 0,256 Z" /></clipPath></defs><g
     transform="matrix(1.25,0,0,-1.25,0,320)"
     id="g10"><g
       id="g12"><g
         clip-path="url(#clipPath16)"
         id="g14"><g
           id="g20"><g
             id="g22"><path
               id="path30"
               style="fill:url(#linearGradient24);stroke:none"
               d="M 12,128 C 12,63.934 63.929,12 128,12 l 0,0 c 64.051,0 116,51.934 116,116 l 0,0 c 0,64.066 -51.949,116 -116,116 l 0,0 C 63.929,244 12,192.066 12,128 m 72.495,0 c 0,23.988 19.513,43.505 43.505,43.505 l 0,0 c 23.988,0 43.5,-19.517 43.5,-43.505 l 0,0 c 0,-23.987 -19.512,-43.505 -43.5,-43.505 l 0,0 c -23.992,0 -43.505,19.518 -43.505,43.505" /></g></g></g></g><g
       id="g32"><g
         clip-path="url(#clipPath36)"
         id="g34"><g
           id="g40"><g
             id="g42"><path
               id="path50"
               style="fill:url(#linearGradient44);stroke:none"
               d="m 82,128 c 0,-25.349 20.64,-46 46.003,-46 l 0,0 C 153.341,82 174,102.651 174,128 l 0,0 c 0,25.349 -20.659,46 -45.997,46 l 0,0 C 102.64,174 82,153.349 82,128 m 32.216,0 c 0,7.605 6.191,13.785 13.787,13.785 l 0,0 c 7.599,0 13.777,-6.18 13.777,-13.785 l 0,0 c 0,-7.6 -6.178,-13.776 -13.777,-13.776 l 0,0 c -7.596,0 -13.787,6.176 -13.787,13.776" /></g></g></g></g><g
       id="g52"><g
         clip-path="url(#clipPath56)"
         id="g54"><g
           id="g60"><g
             id="g62"><path
               id="path70"
               style="fill:url(#linearGradient64);stroke:none"
               d="m 21.942,175.039 3.735,1.31 C 30.245,177.952 71.919,192 128.004,192 l 0,0 c 56.076,0 97.756,-14.048 102.324,-15.65 l 0,0 3.73,-1.307 C 216.008,215.666 175.309,244 128.003,244 l 0,0 C 80.68,244 39.986,215.665 21.942,175.039" /></g></g></g></g><g
       id="g72"><g
         clip-path="url(#clipPath76)"
         id="g74"><g
           transform="translate(128.002,244)"
           id="g80"><path
             id="path82"
             style="fill:#191919;fill-opacity:1;fill-rule:nonzero;stroke:none"
             d="M 0,0 C -45.322,0 -84.563,-25.991 -103.651,-63.876 -99.447,-62.402 -56.928,-48 0,-48 56.91,-48 99.42,-62.393 103.647,-63.875 84.555,-25.99 45.309,0 0,0" /></g><g
           transform="translate(128.002,244)"
           id="g84"><path
             id="path86"
             style="fill:#999999;fill-opacity:1;fill-rule:nonzero;stroke:none"
             d="M 0,0 C 45.309,0 84.555,-25.99 103.647,-63.875 99.42,-62.393 56.91,-48 0,-48 -56.928,-48 -99.447,-62.402 -103.651,-63.876 -84.563,-25.991 -45.322,0 0,0" /></g></g></g></g></svg>