<?xml version="1.0" encoding="UTF-8" standalone="no"?>
<svg
   xmlns:dc="http://purl.org/dc/elements/1.1/"
   xmlns:cc="http://creativecommons.org/ns#"
   xmlns:rdf="http://www.w3.org/1999/02/22-rdf-syntax-ns#"
   xmlns:svg="http://www.w3.org/2000/svg"
   xmlns="http://www.w3.org/2000/svg"
   viewBox="0 0 320 320"
   height="320"
   width="320"
   xml:space="preserve"
   version="1.1"
   id="svg2"><metadata
     id="metadata8"><rdf:RDF><cc:Work
         rdf:about=""><dc:format>image/svg+xml</dc:format><dc:type
           rdf:resource="http://purl.org/dc/dcmitype/StillImage" /></cc:Work></rdf:RDF></metadata><defs
     id="defs6"><clipPath
       id="clipPath16"
       clipPathUnits="userSpaceOnUse"><path
         id="path18"
         d="M 0,256 256,256 256,0 0,0 0,256 Z" /></clipPath><clipPath
       id="clipPath28"
       clipPathUnits="userSpaceOnUse"><path
         id="path30"
         d="M 161.829,200.722 C 160.522,199.786 158.703,200 157.098,200 l 0,0 -58.196,0 c -1.606,0 -3.425,-0.214 -4.73,0.722 l 0,0 C 84,208 68,202 68,202 l 0,0 C 40,194 36,172 36,172 l 0,0 184,0 c 0,0 -4,22 -32,30 l 0,0 c 0,0 -6.2,2.324 -13.334,2.325 l 0,0 c -4.327,0 -8.997,-0.855 -12.837,-3.603" /></clipPath><linearGradient
       id="linearGradient36"
       spreadMethod="pad"
       gradientTransform="matrix(-95.719391,95.719391,95.719391,95.719391,175.8597,127.8597)"
       gradientUnits="userSpaceOnUse"
       y2="0"
       x2="1"
       y1="0"
       x1="0"><stop
         id="stop38"
         offset="0"
         style="stop-opacity:1;stop-color:#e6e7e8" /><stop
         id="stop40"
         offset="1"
         style="stop-opacity:1;stop-color:#d1d3d4" /></linearGradient><clipPath
       id="clipPath48"
       clipPathUnits="userSpaceOnUse"><path
         id="path50"
         d="m 173.657,200 c -1.061,0 -2.079,-0.421 -2.829,-1.171 l 0,0 -20.485,-20.486 c -1.5,-1.5 -3.535,-2.343 -5.656,-2.343 l 0,0 -33.373,0 c -2.122,0 -4.156,0.843 -5.658,2.343 l 0,0 -20.484,20.486 c -0.75,0.75 -1.768,1.171 -2.828,1.171 l 0,0 L 80,200 C 56,200 40,180 40,180 l 0,0 C 32,172 20,128 20,128 l 0,0 c 0,0 -8,-32 -8,-52 l 0,0 C 12,56 32,48 36,48 l 0,0 c 4,0 12,8 12,8 l 0,0 16,20 c 12,16 20,16 20,16 l 0,0 88,0 c 0,0 8,0 20,-16 l 0,0 16,-20 c 0,0 8,-8 12,-8 l 0,0 c 4,0 24,8 24,28 l 0,0 c 0,20 -8,52 -8,52 l 0,0 c 0,0 -12,44 -20,52 l 0,0 c 0,0 -16,20 -40,20 l 0,0 -2.343,0 z" /></clipPath><linearGradient
       id="linearGradient56"
       spreadMethod="pad"
       gradientTransform="matrix(159.74033,-159.74033,-159.74033,-159.74033,48.129837,188.37984)"
       gradientUnits="userSpaceOnUse"
       y2="0"
       x2="1"
       y1="0"
       x1="0"><stop
         id="stop58"
         offset="0"
         style="stop-opacity:1;stop-color:#e6e7e8" /><stop
         id="stop60"
         offset="1"
         style="stop-opacity:1;stop-color:#d1d3d4" /></linearGradient><clipPath
       id="clipPath68"
       clipPathUnits="userSpaceOnUse"><path
         id="path70"
         d="M 0,256 256,256 256,0 0,0 0,256 Z" /></clipPath><clipPath
       id="clipPath92"
       clipPathUnits="userSpaceOnUse"><path
         id="path94"
         d="m 141,129 c 0,-9.389 7.612,-17 17,-17 l 0,0 c 9.388,0 17,7.611 17,17 l 0,0 c 0,9.388 -7.612,17 -17,17 l 0,0 c -9.388,0 -17,-7.612 -17,-17" /></clipPath><linearGradient
       id="linearGradient100"
       spreadMethod="pad"
       gradientTransform="matrix(-24.04163,24.04163,24.04163,24.04163,170.02081,116.97919)"
       gradientUnits="userSpaceOnUse"
       y2="0"
       x2="1"
       y1="0"
       x1="0"><stop
         id="stop102"
         offset="0"
         style="stop-opacity:1;stop-color:#e6e7e8" /><stop
         id="stop104"
         offset="1"
         style="stop-opacity:1;stop-color:#d1d3d4" /></linearGradient><clipPath
       id="clipPath112"
       clipPathUnits="userSpaceOnUse"><path
         id="path114"
         d="m 144,129 c 0,-7.732 6.268,-14 14,-14 l 0,0 c 7.732,0 14,6.268 14,14 l 0,0 c 0,7.732 -6.268,14 -14,14 l 0,0 c -7.732,0 -14,-6.268 -14,-14" /></clipPath><linearGradient
       id="linearGradient120"
       spreadMethod="pad"
       gradientTransform="matrix(19.79899,-19.79899,-19.79899,-19.79899,148.10051,138.89949)"
       gradientUnits="userSpaceOnUse"
       y2="0"
       x2="1"
       y1="0"
       x1="0"><stop
         id="stop122"
         offset="0"
         style="stop-opacity:1;stop-color:#e6e7e8" /><stop
         id="stop124"
         offset="1"
         style="stop-opacity:1;stop-color:#d1d3d4" /></linearGradient><clipPath
       id="clipPath132"
       clipPathUnits="userSpaceOnUse"><path
         id="path134"
         d="M 0,256 256,256 256,0 0,0 0,256 Z" /></clipPath><clipPath
       id="clipPath152"
       clipPathUnits="userSpaceOnUse"><path
         id="path154"
         d="m 150,129 c 0,-4.418 3.582,-8 8,-8 l 0,0 c 4.418,0 8,3.582 8,8 l 0,0 c 0,4.419 -3.582,8 -8,8 l 0,0 c -4.418,0 -8,-3.581 -8,-8" /></clipPath><linearGradient
       id="linearGradient160"
       spreadMethod="pad"
       gradientTransform="matrix(-11.313708,11.313708,11.313708,11.313708,163.65686,123.34315)"
       gradientUnits="userSpaceOnUse"
       y2="0"
       x2="1"
       y1="0"
       x1="0"><stop
         id="stop162"
         offset="0"
         style="stop-opacity:1;stop-color:#e6e7e8" /><stop
         id="stop164"
         offset="1"
         style="stop-opacity:1;stop-color:#d1d3d4" /></linearGradient><clipPath
       id="clipPath172"
       clipPathUnits="userSpaceOnUse"><path
         id="path174"
         d="m 50,165 c 0,-9.389 7.612,-17 17,-17 l 0,0 c 9.388,0 17,7.611 17,17 l 0,0 c 0,9.389 -7.612,17 -17,17 l 0,0 c -9.388,0 -17,-7.611 -17,-17" /></clipPath><linearGradient
       id="linearGradient180"
       spreadMethod="pad"
       gradientTransform="matrix(-24.04163,24.04163,24.04163,24.04163,79.020813,152.97919)"
       gradientUnits="userSpaceOnUse"
       y2="0"
       x2="1"
       y1="0"
       x1="0"><stop
         id="stop182"
         offset="0"
         style="stop-opacity:1;stop-color:#e6e7e8" /><stop
         id="stop184"
         offset="1"
         style="stop-opacity:1;stop-color:#d1d3d4" /></linearGradient><clipPath
       id="clipPath192"
       clipPathUnits="userSpaceOnUse"><path
         id="path194"
         d="m 53,165 c 0,-7.732 6.268,-14 14,-14 l 0,0 c 7.732,0 14,6.268 14,14 l 0,0 c 0,7.732 -6.268,14 -14,14 l 0,0 c -7.732,0 -14,-6.268 -14,-14" /></clipPath><linearGradient
       id="linearGradient200"
       spreadMethod="pad"
       gradientTransform="matrix(19.79899,-19.79899,-19.79899,-19.79899,57.100506,174.89949)"
       gradientUnits="userSpaceOnUse"
       y2="0"
       x2="1"
       y1="0"
       x1="0"><stop
         id="stop202"
         offset="0"
         style="stop-opacity:1;stop-color:#e6e7e8" /><stop
         id="stop204"
         offset="1"
         style="stop-opacity:1;stop-color:#d1d3d4" /></linearGradient><clipPath
       id="clipPath212"
       clipPathUnits="userSpaceOnUse"><path
         id="path214"
         d="m 76,126 c 0,-11.046 8.954,-20 20,-20 l 0,0 c 11.046,0 20,8.954 20,20 l 0,0 c 0,11.046 -8.954,20 -20,20 l 0,0 c -11.046,0 -20,-8.954 -20,-20" /></clipPath><linearGradient
       id="linearGradient220"
       spreadMethod="pad"
       gradientTransform="matrix(-28.284271,28.284271,28.284271,28.284271,110.14214,111.85786)"
       gradientUnits="userSpaceOnUse"
       y2="0"
       x2="1"
       y1="0"
       x1="0"><stop
         id="stop222"
         offset="0"
         style="stop-opacity:1;stop-color:#e6e7e8" /><stop
         id="stop224"
         offset="1"
         style="stop-opacity:1;stop-color:#d1d3d4" /></linearGradient><clipPath
       id="clipPath232"
       clipPathUnits="userSpaceOnUse"><path
         id="path234"
         d="M 0,256 256,256 256,0 0,0 0,256 Z" /></clipPath><clipPath
       id="clipPath244"
       clipPathUnits="userSpaceOnUse"><path
         id="path246"
         d="m 59,165 c 0,-4.418 3.581,-8 8,-8 l 0,0 c 4.419,0 8,3.582 8,8 l 0,0 c 0,4.419 -3.581,8 -8,8 l 0,0 c -4.419,0 -8,-3.581 -8,-8" /></clipPath><linearGradient
       id="linearGradient252"
       spreadMethod="pad"
       gradientTransform="matrix(-11.313708,11.313708,11.313708,11.313708,72.656853,159.34314)"
       gradientUnits="userSpaceOnUse"
       y2="0"
       x2="1"
       y1="0"
       x1="0"><stop
         id="stop254"
         offset="0"
         style="stop-opacity:1;stop-color:#e6e7e8" /><stop
         id="stop256"
         offset="1"
         style="stop-opacity:1;stop-color:#d1d3d4" /></linearGradient><clipPath
       id="clipPath264"
       clipPathUnits="userSpaceOnUse"><path
         id="path266"
         d="M 0,256 256,256 256,0 0,0 0,256 Z" /></clipPath></defs><g
     transform="matrix(1.25,0,0,-1.25,0,320)"
     id="g10"><g
       id="g12"><g
         clip-path="url(#clipPath16)"
         id="g14"><g
           transform="translate(208,188)"
           id="g20"><path
             id="path22"
             style="fill:#999999;fill-opacity:1;fill-rule:nonzero;stroke:none"
             d="m 0,0 c 0,16.842 -28.364,19.501 -37.322,19.921 -1.704,0.08 -3.381,-0.389 -4.8,-1.336 L -48,16 l -64,0 -5.878,2.585 c -1.419,0.947 -3.095,1.416 -4.799,1.336 C -131.636,19.501 -160,16.842 -160,0 L 0,0 Z" /></g></g></g><g
       id="g24"><g
         clip-path="url(#clipPath28)"
         id="g26"><g
           id="g32"><g
             id="g34"><path
               id="path42"
               style="fill:url(#linearGradient36);stroke:none"
               d="M 161.829,200.722 C 160.522,199.786 158.703,200 157.098,200 l 0,0 -58.196,0 c -1.606,0 -3.425,-0.214 -4.73,0.722 l 0,0 C 84,208 68,202 68,202 l 0,0 C 40,194 36,172 36,172 l 0,0 184,0 c 0,0 -4,22 -32,30 l 0,0 c 0,0 -6.2,2.324 -13.334,2.325 l 0,0 c -4.327,0 -8.997,-0.855 -12.837,-3.603" /></g></g></g></g><g
       id="g44"><g
         clip-path="url(#clipPath48)"
         id="g46"><g
           id="g52"><g
             id="g54"><path
               id="path62"
               style="fill:url(#linearGradient56);stroke:none"
               d="m 173.657,200 c -1.061,0 -2.079,-0.421 -2.829,-1.171 l 0,0 -20.485,-20.486 c -1.5,-1.5 -3.535,-2.343 -5.656,-2.343 l 0,0 -33.373,0 c -2.122,0 -4.156,0.843 -5.658,2.343 l 0,0 -20.484,20.486 c -0.75,0.75 -1.768,1.171 -2.828,1.171 l 0,0 L 80,200 C 56,200 40,180 40,180 l 0,0 C 32,172 20,128 20,128 l 0,0 c 0,0 -8,-32 -8,-52 l 0,0 C 12,56 32,48 36,48 l 0,0 c 4,0 12,8 12,8 l 0,0 16,20 c 12,16 20,16 20,16 l 0,0 88,0 c 0,0 8,0 20,-16 l 0,0 16,-20 c 0,0 8,-8 12,-8 l 0,0 c 4,0 24,8 24,28 l 0,0 c 0,20 -8,52 -8,52 l 0,0 c 0,0 -12,44 -20,52 l 0,0 c 0,0 -16,20 -40,20 l 0,0 -2.343,0 z" /></g></g></g></g><g
       id="g64"><g
         clip-path="url(#clipPath68)"
         id="g66"><g
           transform="translate(106,165)"
           id="g72"><path
             id="path74"
             style="fill:#999999;fill-opacity:1;fill-rule:nonzero;stroke:none"
             d="M 0,0 C 0,2.761 2.239,5 5,5 7.761,5 10,2.761 10,0 10,-2.761 7.761,-5 5,-5 2.239,-5 0,-2.761 0,0" /></g><g
           transform="translate(140,165)"
           id="g76"><path
             id="path78"
             style="fill:#999999;fill-opacity:1;fill-rule:nonzero;stroke:none"
             d="M 0,0 C 0,2.761 2.238,5 5,5 7.762,5 10,2.761 10,0 10,-2.761 7.762,-5 5,-5 2.238,-5 0,-2.761 0,0" /></g><g
           transform="translate(180,164)"
           id="g80"><path
             id="path82"
             style="fill:#999999;fill-opacity:1;fill-rule:nonzero;stroke:none"
             d="m 0,0 c 0,-4.418 -3.582,-8 -8,-8 -4.418,0 -8,3.582 -8,8 0,4.418 3.582,8 8,8 4.418,0 8,-3.582 8,-8" /></g><g
           transform="translate(196,180)"
           id="g84"><path
             id="path86"
             style="fill:#999999;fill-opacity:1;fill-rule:nonzero;stroke:none"
             d="m 0,0 c 0,-4.418 -3.582,-8 -8,-8 -4.418,0 -8,3.582 -8,8 0,4.418 3.582,8 8,8 4.418,0 8,-3.582 8,-8" /></g></g></g><g
       id="g88"><g
         clip-path="url(#clipPath92)"
         id="g90"><g
           id="g96"><g
             id="g98"><path
               id="path106"
               style="fill:url(#linearGradient100);stroke:none"
               d="m 141,129 c 0,-9.389 7.612,-17 17,-17 l 0,0 c 9.388,0 17,7.611 17,17 l 0,0 c 0,9.388 -7.612,17 -17,17 l 0,0 c -9.388,0 -17,-7.612 -17,-17" /></g></g></g></g><g
       id="g108"><g
         clip-path="url(#clipPath112)"
         id="g110"><g
           id="g116"><g
             id="g118"><path
               id="path126"
               style="fill:url(#linearGradient120);stroke:none"
               d="m 144,129 c 0,-7.732 6.268,-14 14,-14 l 0,0 c 7.732,0 14,6.268 14,14 l 0,0 c 0,7.732 -6.268,14 -14,14 l 0,0 c -7.732,0 -14,-6.268 -14,-14" /></g></g></g></g><g
       id="g128"><g
         clip-path="url(#clipPath132)"
         id="g130"><g
           transform="translate(196,148)"
           id="g136"><path
             id="path138"
             style="fill:#999999;fill-opacity:1;fill-rule:nonzero;stroke:none"
             d="m 0,0 c 0,-4.418 -3.582,-8 -8,-8 -4.418,0 -8,3.582 -8,8 0,4.418 3.582,8 8,8 4.418,0 8,-3.582 8,-8" /></g><g
           transform="translate(212,164)"
           id="g140"><path
             id="path142"
             style="fill:#999999;fill-opacity:1;fill-rule:nonzero;stroke:none"
             d="m 0,0 c 0,-4.418 -3.582,-8 -8,-8 -4.418,0 -8,3.582 -8,8 0,4.418 3.582,8 8,8 4.418,0 8,-3.582 8,-8" /></g><g
           transform="translate(170,129)"
           id="g144"><path
             id="path146"
             style="fill:#999999;fill-opacity:1;fill-rule:nonzero;stroke:none"
             d="m 0,0 c 0,-6.627 -5.373,-12 -12,-12 -6.627,0 -12,5.373 -12,12 0,6.627 5.373,12 12,12 C -5.373,12 0,6.627 0,0" /></g></g></g><g
       id="g148"><g
         clip-path="url(#clipPath152)"
         id="g150"><g
           id="g156"><g
             id="g158"><path
               id="path166"
               style="fill:url(#linearGradient160);stroke:none"
               d="m 150,129 c 0,-4.418 3.582,-8 8,-8 l 0,0 c 4.418,0 8,3.582 8,8 l 0,0 c 0,4.419 -3.582,8 -8,8 l 0,0 c -4.418,0 -8,-3.581 -8,-8" /></g></g></g></g><g
       id="g168"><g
         clip-path="url(#clipPath172)"
         id="g170"><g
           id="g176"><g
             id="g178"><path
               id="path186"
               style="fill:url(#linearGradient180);stroke:none"
               d="m 50,165 c 0,-9.389 7.612,-17 17,-17 l 0,0 c 9.388,0 17,7.611 17,17 l 0,0 c 0,9.389 -7.612,17 -17,17 l 0,0 c -9.388,0 -17,-7.611 -17,-17" /></g></g></g></g><g
       id="g188"><g
         clip-path="url(#clipPath192)"
         id="g190"><g
           id="g196"><g
             id="g198"><path
               id="path206"
               style="fill:url(#linearGradient200);stroke:none"
               d="m 53,165 c 0,-7.732 6.268,-14 14,-14 l 0,0 c 7.732,0 14,6.268 14,14 l 0,0 c 0,7.732 -6.268,14 -14,14 l 0,0 c -7.732,0 -14,-6.268 -14,-14" /></g></g></g></g><g
       id="g208"><g
         clip-path="url(#clipPath212)"
         id="g210"><g
           id="g216"><g
             id="g218"><path
               id="path226"
               style="fill:url(#linearGradient220);stroke:none"
               d="m 76,126 c 0,-11.046 8.954,-20 20,-20 l 0,0 c 11.046,0 20,8.954 20,20 l 0,0 c 0,11.046 -8.954,20 -20,20 l 0,0 c -11.046,0 -20,-8.954 -20,-20" /></g></g></g></g><g
       id="g228"><g
         clip-path="url(#clipPath232)"
         id="g230"><g
           transform="translate(79,165)"
           id="g236"><path
             id="path238"
             style="fill:#999999;fill-opacity:1;fill-rule:nonzero;stroke:none"
             d="m 0,0 c 0,-6.627 -5.373,-12 -12,-12 -6.627,0 -12,5.373 -12,12 0,6.627 5.373,12 12,12 C -5.373,12 0,6.627 0,0" /></g></g></g><g
       id="g240"><g
         clip-path="url(#clipPath244)"
         id="g242"><g
           id="g248"><g
             id="g250"><path
               id="path258"
               style="fill:url(#linearGradient252);stroke:none"
               d="m 59,165 c 0,-4.418 3.581,-8 8,-8 l 0,0 c 4.419,0 8,3.582 8,8 l 0,0 c 0,4.419 -3.581,8 -8,8 l 0,0 c -4.419,0 -8,-3.581 -8,-8" /></g></g></g></g><g
       id="g260"><g
         clip-path="url(#clipPath264)"
         id="g262"><g
           transform="translate(113,131)"
           id="g268"><path
             id="path270"
             style="fill:#999999;fill-opacity:1;fill-rule:nonzero;stroke:none"
             d="m 0,0 -12,0 0,12 c 0,0.552 -0.448,1 -1,1 l -2.06,0.515 c -1.273,0.318 -2.607,0.318 -3.88,0 L -21,13 c -0.552,0 -1,-0.448 -1,-1 l 0,-12 -12,0 c -0.552,0 -1,-0.448 -1,-1 l -0.515,-2.06 c -0.318,-1.274 -0.318,-2.606 0,-3.88 L -35,-9 c 0,-0.553 0.448,-1 1,-1 l 12,0 0,-12 c 0,-0.553 0.448,-1 1,-1 l 2.06,-0.515 c 1.273,-0.318 2.607,-0.318 3.88,0 L -13,-23 c 0.552,0 1,0.447 1,1 l 0,12 12,0 c 0.552,0 1,0.447 1,1 l 0.515,2.06 c 0.318,1.274 0.318,2.606 0,3.88 L 1,-1 C 1,-0.448 0.552,0 0,0" /></g></g></g></g></svg>