<?xml version="1.0" encoding="UTF-8" standalone="no"?>
<svg
   xmlns:dc="http://purl.org/dc/elements/1.1/"
   xmlns:cc="http://creativecommons.org/ns#"
   xmlns:rdf="http://www.w3.org/1999/02/22-rdf-syntax-ns#"
   xmlns:svg="http://www.w3.org/2000/svg"
   xmlns="http://www.w3.org/2000/svg"
   viewBox="0 0 320 320"
   height="320"
   width="320"
   xml:space="preserve"
   version="1.1"
   id="svg2"><metadata
     id="metadata8"><rdf:RDF><cc:Work
         rdf:about=""><dc:format>image/svg+xml</dc:format><dc:type
           rdf:resource="http://purl.org/dc/dcmitype/StillImage" /></cc:Work></rdf:RDF></metadata><defs
     id="defs6"><clipPath
       id="clipPath16"
       clipPathUnits="userSpaceOnUse"><path
         id="path18"
         d="M 22.756,200 C 19.025,200 16,196.966 16,193.224 l 0,0 L 16,56 l 228,0 0,137.224 c 0,3.742 -3.024,6.776 -6.756,6.776 l 0,0 -214.488,0 z M 32,184.352 c 0,2.208 1.79,3.999 4,3.999 l 0,0 c 2.21,0 4,-1.791 4,-3.999 l 0,0 c 0,-2.21 -1.79,-4.001 -4,-4.001 l 0,0 c -2.21,0 -4,1.791 -4,4.001 M 28,92.351 c 0,4.419 3.582,8 8,8 l 0,0 c 4.418,0 8,-3.581 8,-8 l 0,0 c 0,-4.418 -3.582,-8 -8,-8 l 0,0 c -4.418,0 -8,3.582 -8,8" /></clipPath><linearGradient
       id="linearGradient24"
       spreadMethod="pad"
       gradientTransform="matrix(184.0183,-184.0183,-184.0183,-184.0183,37.990887,218.02747)"
       gradientUnits="userSpaceOnUse"
       y2="0"
       x2="1"
       y1="0"
       x1="0"><stop
         id="stop26"
         offset="0"
         style="stop-opacity:1;stop-color:#e6e7e8" /><stop
         id="stop28"
         offset="1"
         style="stop-opacity:1;stop-color:#d1d3d4" /></linearGradient><clipPath
       id="clipPath36"
       clipPathUnits="userSpaceOnUse"><path
         id="path38"
         d="M 0,256 256,256 256,0 0,0 0,256 Z" /></clipPath><clipPath
       id="clipPath48"
       clipPathUnits="userSpaceOnUse"><path
         id="path50"
         d="m 12,180 20.001,0 0,8 -20.001,0 0,-8 z" /></clipPath><linearGradient
       id="linearGradient56"
       spreadMethod="pad"
       gradientTransform="matrix(-14,14,14,14,29,177)"
       gradientUnits="userSpaceOnUse"
       y2="0"
       x2="1"
       y1="0"
       x1="0"><stop
         id="stop58"
         offset="0"
         style="stop-opacity:1;stop-color:#e6e7e8" /><stop
         id="stop60"
         offset="1"
         style="stop-opacity:1;stop-color:#d1d3d4" /></linearGradient><clipPath
       id="clipPath68"
       clipPathUnits="userSpaceOnUse"><path
         id="path70"
         d="m 12,168 28,0 0,8 -28,0 0,-8 z" /></clipPath><linearGradient
       id="linearGradient76"
       spreadMethod="pad"
       gradientTransform="matrix(-18,18,18,18,35,163)"
       gradientUnits="userSpaceOnUse"
       y2="0"
       x2="1"
       y1="0"
       x1="0"><stop
         id="stop78"
         offset="0"
         style="stop-opacity:1;stop-color:#e6e7e8" /><stop
         id="stop80"
         offset="1"
         style="stop-opacity:1;stop-color:#d1d3d4" /></linearGradient><clipPath
       id="clipPath88"
       clipPathUnits="userSpaceOnUse"><path
         id="path90"
         d="m 12,156 28,0 0,8 -28,0 0,-8 z" /></clipPath><linearGradient
       id="linearGradient96"
       spreadMethod="pad"
       gradientTransform="matrix(-18,18,18,18,35,151)"
       gradientUnits="userSpaceOnUse"
       y2="0"
       x2="1"
       y1="0"
       x1="0"><stop
         id="stop98"
         offset="0"
         style="stop-opacity:1;stop-color:#e6e7e8" /><stop
         id="stop100"
         offset="1"
         style="stop-opacity:1;stop-color:#d1d3d4" /></linearGradient></defs><g
     transform="matrix(1.25,0,0,-1.25,0,320)"
     id="g10"><g
       id="g12"><g
         clip-path="url(#clipPath16)"
         id="g14"><g
           id="g20"><g
             id="g22"><path
               id="path30"
               style="fill:url(#linearGradient24);stroke:none"
               d="M 22.756,200 C 19.025,200 16,196.966 16,193.224 l 0,0 L 16,56 l 228,0 0,137.224 c 0,3.742 -3.024,6.776 -6.756,6.776 l 0,0 -214.488,0 z M 32,184.352 c 0,2.208 1.79,3.999 4,3.999 l 0,0 c 2.21,0 4,-1.791 4,-3.999 l 0,0 c 0,-2.21 -1.79,-4.001 -4,-4.001 l 0,0 c -2.21,0 -4,1.791 -4,4.001 M 28,92.351 c 0,4.419 3.582,8 8,8 l 0,0 c 4.418,0 8,-3.581 8,-8 l 0,0 c 0,-4.418 -3.582,-8 -8,-8 l 0,0 c -4.418,0 -8,3.582 -8,8" /></g></g></g></g><g
       id="g32"><g
         clip-path="url(#clipPath36)"
         id="g34"><g
           transform="translate(231,68)"
           id="g40"><path
             id="path42"
             style="fill:#ffffff;fill-opacity:1;fill-rule:nonzero;stroke:none"
             d="m 0,0 -182,0 c -0.552,0 -1,0.448 -1,1 l 0,131 L 1,132 1,1 C 1,0.448 0.552,0 0,0" /></g></g></g><g
       id="g44"><g
         clip-path="url(#clipPath48)"
         id="g46"><g
           id="g52"><g
             id="g54"><path
               id="path62"
               style="fill:url(#linearGradient56);stroke:none"
               d="m 12,180 20.001,0 0,8 -20.001,0 0,-8 z" /></g></g></g></g><g
       id="g64"><g
         clip-path="url(#clipPath68)"
         id="g66"><g
           id="g72"><g
             id="g74"><path
               id="path82"
               style="fill:url(#linearGradient76);stroke:none"
               d="m 12,168 28,0 0,8 -28,0 0,-8 z" /></g></g></g></g><g
       id="g84"><g
         clip-path="url(#clipPath88)"
         id="g86"><g
           id="g92"><g
             id="g94"><path
               id="path102"
               style="fill:url(#linearGradient96);stroke:none"
               d="m 12,156 28,0 0,8 -28,0 0,-8 z" /></g></g></g></g></g></svg>