<?xml version="1.0" encoding="UTF-8" standalone="no"?>
<svg
   xmlns:dc="http://purl.org/dc/elements/1.1/"
   xmlns:cc="http://creativecommons.org/ns#"
   xmlns:rdf="http://www.w3.org/1999/02/22-rdf-syntax-ns#"
   xmlns:svg="http://www.w3.org/2000/svg"
   xmlns="http://www.w3.org/2000/svg"
   viewBox="0 0 320 320"
   height="320"
   width="320"
   xml:space="preserve"
   version="1.1"
   id="svg2"><metadata
     id="metadata8"><rdf:RDF><cc:Work
         rdf:about=""><dc:format>image/svg+xml</dc:format><dc:type
           rdf:resource="http://purl.org/dc/dcmitype/StillImage" /></cc:Work></rdf:RDF></metadata><defs
     id="defs6"><clipPath
       id="clipPath16"
       clipPathUnits="userSpaceOnUse"><path
         id="path18"
         d="m 95.371,176 c -0.299,0 -0.597,-0.021 -0.893,-0.064 l 0,0 -77.017,-10.943 C 14.328,164.548 12,161.866 12,158.701 l 0,0 0,-76.346 C 12,78.845 14.846,76 18.355,76 l 0,0 219.29,0 c 3.51,0 6.355,2.845 6.355,6.355 l 0,0 0,76.337 c 0,3.169 -2.333,5.853 -5.47,6.294 l 0,0 -77.918,10.952 c -0.293,0.042 -0.588,0.062 -0.885,0.062 l 0,0 -64.356,0 z" /></clipPath><linearGradient
       id="linearGradient24"
       spreadMethod="pad"
       gradientTransform="matrix(156.80569,-156.80569,-156.80569,-156.80569,49.595051,198.92912)"
       gradientUnits="userSpaceOnUse"
       y2="0"
       x2="1"
       y1="0"
       x1="0"><stop
         id="stop26"
         offset="0"
         style="stop-opacity:1;stop-color:#e6e7e8" /><stop
         id="stop28"
         offset="1"
         style="stop-opacity:1;stop-color:#d1d3d4" /></linearGradient><clipPath
       id="clipPath36"
       clipPathUnits="userSpaceOnUse"><path
         id="path38"
         d="m 175.371,160 c -2.99,0 -5.416,-2.43 -5.416,-5.427 l 0,0 0,-2.26 c 0,-24.316 -20.115,-44.122 -44.358,-42.987 l 0,0 c -22.456,1.05 -40.341,19.624 -40.341,42.383 l 0,0 0,3.769 c 0,2.497 -2.02,4.522 -4.513,4.522 l 0,0 -42.948,0 C 34.594,160 32,157.401 32,154.194 l 0,0 0,-21.331 c 0,-1.989 2.133,-3.218 3.867,-2.249 l 0,0 c 3.867,2.164 8.382,3.303 13.183,3.048 l 0,0 c 12.811,-0.683 22.999,-11.446 23.043,-24.3 l 0,0 C 72.122,100.717 67.662,93.118 60.921,88.756 l 0,0 c -0.494,-2.129 -0.148,-4.725 4.477,-4.725 l 0,0 115.204,0 C 180.915,84.012 181.23,84 181.548,84 l 0,0 30.74,0 c 0.318,0 0.633,0.012 0.946,0.031 l 0,0 c 0,0 4.004,0.488 5.038,1.154 l 0,0 C 223.98,87.543 228,93.172 228,99.743 l 0,0 c 0,4.247 -1.682,8.099 -4.412,10.931 l 0,0 0,43.52 c 0,3.207 -2.594,5.806 -5.794,5.806 l 0,0 -42.423,0 z" /></clipPath><linearGradient
       id="linearGradient44"
       spreadMethod="pad"
       gradientTransform="matrix(-129.69344,129.69344,129.69344,129.69344,199.12932,64.34475)"
       gradientUnits="userSpaceOnUse"
       y2="0"
       x2="1"
       y1="0"
       x1="0"><stop
         id="stop46"
         offset="0"
         style="stop-opacity:1;stop-color:#e6e7e8" /><stop
         id="stop48"
         offset="1"
         style="stop-opacity:1;stop-color:#d1d3d4" /></linearGradient><clipPath
       id="clipPath56"
       clipPathUnits="userSpaceOnUse"><path
         id="path58"
         d="M 0,256 256,256 256,0 0,0 0,256 Z" /></clipPath><clipPath
       id="clipPath68"
       clipPathUnits="userSpaceOnUse"><path
         id="path70"
         d="M 96.523,180 C 95.129,180 94,178.876 94,177.49 l 0,0 0,-27.662 C 94,131.145 109.222,116 128,116 l 0,0 c 18.777,0 34,15.145 34,33.828 l 0,0 0,27.662 c 0,1.386 -1.13,2.51 -2.523,2.51 l 0,0 -62.954,0 z" /></clipPath><linearGradient
       id="linearGradient76"
       spreadMethod="pad"
       gradientTransform="matrix(-55.329761,55.329761,55.329761,55.329761,155.66487,129.53125)"
       gradientUnits="userSpaceOnUse"
       y2="0"
       x2="1"
       y1="0"
       x1="0"><stop
         id="stop78"
         offset="0"
         style="stop-opacity:1;stop-color:#e6e7e8" /><stop
         id="stop80"
         offset="1"
         style="stop-opacity:1;stop-color:#d1d3d4" /></linearGradient><clipPath
       id="clipPath88"
       clipPathUnits="userSpaceOnUse"><path
         id="path90"
         d="M 26,109 C 26,96.85 35.85,87 48,87 l 0,0 c 12.151,0 22,9.85 22,22 l 0,0 c 0,12.15 -9.849,22 -22,22 l 0,0 c -12.15,0 -22,-9.85 -22,-22" /></clipPath><linearGradient
       id="linearGradient96"
       spreadMethod="pad"
       gradientTransform="matrix(31.112698,-31.112698,-31.112698,-31.112698,32.443649,124.55635)"
       gradientUnits="userSpaceOnUse"
       y2="0"
       x2="1"
       y1="0"
       x1="0"><stop
         id="stop98"
         offset="0"
         style="stop-opacity:1;stop-color:#e6e7e8" /><stop
         id="stop100"
         offset="1"
         style="stop-opacity:1;stop-color:#d1d3d4" /></linearGradient><clipPath
       id="clipPath108"
       clipPathUnits="userSpaceOnUse"><path
         id="path110"
         d="M 0,256 256,256 256,0 0,0 0,256 Z" /></clipPath><clipPath
       id="clipPath120"
       clipPathUnits="userSpaceOnUse"><path
         id="path122"
         d="m 43.106,128.395 0,-14.502 -14.5,0 C 28.211,112.327 28,110.688 28,109 l 0,0 c 0,-1.688 0.211,-3.327 0.606,-4.893 l 0,0 14.5,0 0,-14.501 C 44.672,89.212 46.311,89 48,89 l 0,0 c 1.689,0 3.327,0.212 4.894,0.606 l 0,0 0,14.501 14.501,0 C 67.789,105.673 68,107.312 68,109 l 0,0 c 0,1.688 -0.211,3.327 -0.605,4.893 l 0,0 -14.501,0 0,14.502 C 51.327,128.788 49.689,129 48,129 l 0,0 c -1.689,0 -3.328,-0.212 -4.894,-0.605" /></clipPath><linearGradient
       id="linearGradient128"
       spreadMethod="pad"
       gradientTransform="matrix(-24.28812,24.28812,24.28812,24.28812,60.144062,96.855942)"
       gradientUnits="userSpaceOnUse"
       y2="0"
       x2="1"
       y1="0"
       x1="0"><stop
         id="stop130"
         offset="0"
         style="stop-opacity:1;stop-color:#e6e7e8" /><stop
         id="stop132"
         offset="1"
         style="stop-opacity:1;stop-color:#d1d3d4" /></linearGradient><clipPath
       id="clipPath140"
       clipPathUnits="userSpaceOnUse"><path
         id="path142"
         d="m 43,109 c 0,-2.761 2.238,-5 5,-5 l 0,0 c 2.762,0 5,2.239 5,5 l 0,0 c 0,2.761 -2.238,5 -5,5 l 0,0 c -2.762,0 -5,-2.239 -5,-5" /></clipPath><linearGradient
       id="linearGradient148"
       spreadMethod="pad"
       gradientTransform="matrix(7.0710678,-7.0710678,-7.0710678,-7.0710678,44.464466,112.53554)"
       gradientUnits="userSpaceOnUse"
       y2="0"
       x2="1"
       y1="0"
       x1="0"><stop
         id="stop150"
         offset="0"
         style="stop-opacity:1;stop-color:#e6e7e8" /><stop
         id="stop152"
         offset="1"
         style="stop-opacity:1;stop-color:#d1d3d4" /></linearGradient><clipPath
       id="clipPath160"
       clipPathUnits="userSpaceOnUse"><path
         id="path162"
         d="m 173.931,100 c 0,-5.561 4.508,-10.068 10.069,-10.068 l 0,0 c 5.561,0 10.069,4.507 10.069,10.068 l 0,0 c 0,5.561 -4.508,10.069 -10.069,10.069 l 0,0 c -5.561,0 -10.069,-4.508 -10.069,-10.069" /></clipPath><linearGradient
       id="linearGradient168"
       spreadMethod="pad"
       gradientTransform="matrix(14.239398,-14.239398,-14.239398,-14.239398,176.88031,107.11971)"
       gradientUnits="userSpaceOnUse"
       y2="0"
       x2="1"
       y1="0"
       x1="0"><stop
         id="stop170"
         offset="0"
         style="stop-opacity:1;stop-color:#e6e7e8" /><stop
         id="stop172"
         offset="1"
         style="stop-opacity:1;stop-color:#d1d3d4" /></linearGradient><clipPath
       id="clipPath180"
       clipPathUnits="userSpaceOnUse"><path
         id="path182"
         d="m 174,100 c 0,-5.522 4.477,-10 10,-10 l 0,0 c 5.523,0 10,4.478 10,10 l 0,0 c 0,5.523 -4.477,10 -10,10 l 0,0 c -5.523,0 -10,-4.477 -10,-10 m 1.387,0 c 0,4.749 3.864,8.613 8.613,8.613 l 0,0 c 4.749,0 8.613,-3.864 8.613,-8.613 l 0,0 c 0,-4.749 -3.864,-8.613 -8.613,-8.613 l 0,0 c -4.749,0 -8.613,3.864 -8.613,8.613" /></clipPath><linearGradient
       id="linearGradient188"
       spreadMethod="pad"
       gradientTransform="matrix(-14.142133,14.142133,14.142133,14.142133,191.07108,92.928932)"
       gradientUnits="userSpaceOnUse"
       y2="0"
       x2="1"
       y1="0"
       x1="0"><stop
         id="stop190"
         offset="0"
         style="stop-opacity:1;stop-color:#e6e7e8" /><stop
         id="stop192"
         offset="1"
         style="stop-opacity:1;stop-color:#d1d3d4" /></linearGradient><clipPath
       id="clipPath200"
       clipPathUnits="userSpaceOnUse"><path
         id="path202"
         d="M 0,256 256,256 256,0 0,0 0,256 Z" /></clipPath><clipPath
       id="clipPath212"
       clipPathUnits="userSpaceOnUse"><path
         id="path214"
         d="m 201.931,100 c 0,-5.561 4.508,-10.068 10.069,-10.068 l 0,0 c 5.561,0 10.069,4.507 10.069,10.068 l 0,0 c 0,5.561 -4.508,10.069 -10.069,10.069 l 0,0 c -5.561,0 -10.069,-4.508 -10.069,-10.069" /></clipPath><linearGradient
       id="linearGradient220"
       spreadMethod="pad"
       gradientTransform="matrix(14.239398,-14.239398,-14.239398,-14.239398,204.88031,107.11971)"
       gradientUnits="userSpaceOnUse"
       y2="0"
       x2="1"
       y1="0"
       x1="0"><stop
         id="stop222"
         offset="0"
         style="stop-opacity:1;stop-color:#e6e7e8" /><stop
         id="stop224"
         offset="1"
         style="stop-opacity:1;stop-color:#d1d3d4" /></linearGradient><clipPath
       id="clipPath232"
       clipPathUnits="userSpaceOnUse"><path
         id="path234"
         d="m 202,100 c 0,-5.522 4.477,-10 10,-10 l 0,0 c 5.523,0 10,4.478 10,10 l 0,0 c 0,5.523 -4.477,10 -10,10 l 0,0 c -5.523,0 -10,-4.477 -10,-10 m 1.387,0 c 0,4.749 3.864,8.613 8.613,8.613 l 0,0 c 4.749,0 8.613,-3.864 8.613,-8.613 l 0,0 c 0,-4.749 -3.864,-8.613 -8.613,-8.613 l 0,0 c -4.749,0 -8.613,3.864 -8.613,8.613" /></clipPath><linearGradient
       id="linearGradient240"
       spreadMethod="pad"
       gradientTransform="matrix(-14.142133,14.142133,14.142133,14.142133,219.07108,92.928932)"
       gradientUnits="userSpaceOnUse"
       y2="0"
       x2="1"
       y1="0"
       x1="0"><stop
         id="stop242"
         offset="0"
         style="stop-opacity:1;stop-color:#e6e7e8" /><stop
         id="stop244"
         offset="1"
         style="stop-opacity:1;stop-color:#d1d3d4" /></linearGradient><clipPath
       id="clipPath252"
       clipPathUnits="userSpaceOnUse"><path
         id="path254"
         d="M 0,256 256,256 256,0 0,0 0,256 Z" /></clipPath><clipPath
       id="clipPath264"
       clipPathUnits="userSpaceOnUse"><path
         id="path266"
         d="m 104.531,102.758 c -1.726,0 -3.124,-1.234 -3.124,-2.758 l 0,0 c 0,-1.524 1.398,-2.759 3.124,-2.759 l 0,0 10.938,0 c 1.725,0 3.125,1.235 3.125,2.759 l 0,0 c 0,1.524 -1.4,2.758 -3.125,2.758 l 0,0 -10.938,0 z" /></clipPath><linearGradient
       id="linearGradient272"
       spreadMethod="pad"
       gradientTransform="matrix(-9.6372061,9.6372061,9.6372061,9.6372061,114.8186,95.181396)"
       gradientUnits="userSpaceOnUse"
       y2="0"
       x2="1"
       y1="0"
       x1="0"><stop
         id="stop274"
         offset="0"
         style="stop-opacity:1;stop-color:#e6e7e8" /><stop
         id="stop276"
         offset="1"
         style="stop-opacity:1;stop-color:#d1d3d4" /></linearGradient><clipPath
       id="clipPath284"
       clipPathUnits="userSpaceOnUse"><path
         id="path286"
         d="M 0,256 256,256 256,0 0,0 0,256 Z" /></clipPath><clipPath
       id="clipPath296"
       clipPathUnits="userSpaceOnUse"><path
         id="path298"
         d="m 132.531,102.758 c -1.726,0 -3.125,-1.234 -3.125,-2.758 l 0,0 c 0,-1.524 1.399,-2.759 3.125,-2.759 l 0,0 10.938,0 c 1.725,0 3.125,1.235 3.125,2.759 l 0,0 c 0,1.524 -1.4,2.758 -3.125,2.758 l 0,0 -10.938,0 z" /></clipPath><linearGradient
       id="linearGradient304"
       spreadMethod="pad"
       gradientTransform="matrix(-9.6372061,9.6372061,9.6372061,9.6372061,142.8186,95.181396)"
       gradientUnits="userSpaceOnUse"
       y2="0"
       x2="1"
       y1="0"
       x1="0"><stop
         id="stop306"
         offset="0"
         style="stop-opacity:1;stop-color:#e6e7e8" /><stop
         id="stop308"
         offset="1"
         style="stop-opacity:1;stop-color:#d1d3d4" /></linearGradient><clipPath
       id="clipPath316"
       clipPathUnits="userSpaceOnUse"><path
         id="path318"
         d="M 0,256 256,256 256,0 0,0 0,256 Z" /></clipPath><clipPath
       id="clipPath332"
       clipPathUnits="userSpaceOnUse"><path
         id="path334"
         d="m 208,136 c 0,-2.209 1.791,-4 4,-4 l 0,0 c 2.209,0 4,1.791 4,4 l 0,0 c 0,2.209 -1.791,4 -4,4 l 0,0 c -2.209,0 -4,-1.791 -4,-4" /></clipPath><linearGradient
       id="linearGradient340"
       spreadMethod="pad"
       gradientTransform="matrix(5.6568542,-5.6568542,-5.6568542,-5.6568542,209.17157,138.82843)"
       gradientUnits="userSpaceOnUse"
       y2="0"
       x2="1"
       y1="0"
       x1="0"><stop
         id="stop342"
         offset="0"
         style="stop-opacity:1;stop-color:#e6e7e8" /><stop
         id="stop344"
         offset="1"
         style="stop-opacity:1;stop-color:#d1d3d4" /></linearGradient><clipPath
       id="clipPath352"
       clipPathUnits="userSpaceOnUse"><path
         id="path354"
         d="M 0,256 256,256 256,0 0,0 0,256 Z" /></clipPath><clipPath
       id="clipPath364"
       clipPathUnits="userSpaceOnUse"><path
         id="path366"
         d="m 180,136 c 0,-2.209 1.791,-4 4,-4 l 0,0 c 2.209,0 4,1.791 4,4 l 0,0 c 0,2.209 -1.791,4 -4,4 l 0,0 c -2.209,0 -4,-1.791 -4,-4" /></clipPath><linearGradient
       id="linearGradient372"
       spreadMethod="pad"
       gradientTransform="matrix(5.6568542,-5.6568542,-5.6568542,-5.6568542,181.17157,138.82843)"
       gradientUnits="userSpaceOnUse"
       y2="0"
       x2="1"
       y1="0"
       x1="0"><stop
         id="stop374"
         offset="0"
         style="stop-opacity:1;stop-color:#e6e7e8" /><stop
         id="stop376"
         offset="1"
         style="stop-opacity:1;stop-color:#d1d3d4" /></linearGradient><clipPath
       id="clipPath384"
       clipPathUnits="userSpaceOnUse"><path
         id="path386"
         d="M 0,256 256,256 256,0 0,0 0,256 Z" /></clipPath></defs><g
     transform="matrix(1.25,0,0,-1.25,0,320)"
     id="g10"><g
       id="g12"><g
         clip-path="url(#clipPath16)"
         id="g14"><g
           id="g20"><g
             id="g22"><path
               id="path30"
               style="fill:url(#linearGradient24);stroke:none"
               d="m 95.371,176 c -0.299,0 -0.597,-0.021 -0.893,-0.064 l 0,0 -77.017,-10.943 C 14.328,164.548 12,161.866 12,158.701 l 0,0 0,-76.346 C 12,78.845 14.846,76 18.355,76 l 0,0 219.29,0 c 3.51,0 6.355,2.845 6.355,6.355 l 0,0 0,76.337 c 0,3.169 -2.333,5.853 -5.47,6.294 l 0,0 -77.918,10.952 c -0.293,0.042 -0.588,0.062 -0.885,0.062 l 0,0 -64.356,0 z" /></g></g></g></g><g
       id="g32"><g
         clip-path="url(#clipPath36)"
         id="g34"><g
           id="g40"><g
             id="g42"><path
               id="path50"
               style="fill:url(#linearGradient44);stroke:none"
               d="m 175.371,160 c -2.99,0 -5.416,-2.43 -5.416,-5.427 l 0,0 0,-2.26 c 0,-24.316 -20.115,-44.122 -44.358,-42.987 l 0,0 c -22.456,1.05 -40.341,19.624 -40.341,42.383 l 0,0 0,3.769 c 0,2.497 -2.02,4.522 -4.513,4.522 l 0,0 -42.948,0 C 34.594,160 32,157.401 32,154.194 l 0,0 0,-21.331 c 0,-1.989 2.133,-3.218 3.867,-2.249 l 0,0 c 3.867,2.164 8.382,3.303 13.183,3.048 l 0,0 c 12.811,-0.683 22.999,-11.446 23.043,-24.3 l 0,0 C 72.122,100.717 67.662,93.118 60.921,88.756 l 0,0 c -0.494,-2.129 -0.148,-4.725 4.477,-4.725 l 0,0 115.204,0 C 180.915,84.012 181.23,84 181.548,84 l 0,0 30.74,0 c 0.318,0 0.633,0.012 0.946,0.031 l 0,0 c 0,0 4.004,0.488 5.038,1.154 l 0,0 C 223.98,87.543 228,93.172 228,99.743 l 0,0 c 0,4.247 -1.682,8.099 -4.412,10.931 l 0,0 0,43.52 c 0,3.207 -2.594,5.806 -5.794,5.806 l 0,0 -42.423,0 z" /></g></g></g></g><g
       id="g52"><g
         clip-path="url(#clipPath56)"
         id="g54"><g
           transform="translate(70.5925,136)"
           id="g60"><path
             id="path62"
             style="fill:#ffffff;fill-opacity:1;fill-rule:nonzero;stroke:none"
             d="m 0,0 c -6.182,4.998 -14.042,8 -22.592,8 l -8,0 c -2.21,0 -4,-1.791 -4,-4 l 0.002,0 c 0,-0.012 0,-0.025 0,-0.038 C -34.578,1.773 -32.8,0 -30.61,0 L 0,0 Z" /></g></g></g><g
       id="g64"><g
         clip-path="url(#clipPath68)"
         id="g66"><g
           id="g72"><g
             id="g74"><path
               id="path82"
               style="fill:url(#linearGradient76);stroke:none"
               d="M 96.523,180 C 95.129,180 94,178.876 94,177.49 l 0,0 0,-27.662 C 94,131.145 109.222,116 128,116 l 0,0 c 18.777,0 34,15.145 34,33.828 l 0,0 0,27.662 c 0,1.386 -1.13,2.51 -2.523,2.51 l 0,0 -62.954,0 z" /></g></g></g></g><g
       id="g84"><g
         clip-path="url(#clipPath88)"
         id="g86"><g
           id="g92"><g
             id="g94"><path
               id="path102"
               style="fill:url(#linearGradient96);stroke:none"
               d="M 26,109 C 26,96.85 35.85,87 48,87 l 0,0 c 12.151,0 22,9.85 22,22 l 0,0 c 0,12.15 -9.849,22 -22,22 l 0,0 c -12.15,0 -22,-9.85 -22,-22" /></g></g></g></g><g
       id="g104"><g
         clip-path="url(#clipPath108)"
         id="g106"><g
           transform="translate(68,109)"
           id="g112"><path
             id="path114"
             style="fill:#999999;fill-opacity:1;fill-rule:nonzero;stroke:none"
             d="m 0,0 c 0,-11.046 -8.954,-20 -20,-20 -11.046,0 -20,8.954 -20,20 0,11.046 8.954,20 20,20 C -8.954,20 0,11.046 0,0" /></g></g></g><g
       id="g116"><g
         clip-path="url(#clipPath120)"
         id="g118"><g
           id="g124"><g
             id="g126"><path
               id="path134"
               style="fill:url(#linearGradient128);stroke:none"
               d="m 43.106,128.395 0,-14.502 -14.5,0 C 28.211,112.327 28,110.688 28,109 l 0,0 c 0,-1.688 0.211,-3.327 0.606,-4.893 l 0,0 14.5,0 0,-14.501 C 44.672,89.212 46.311,89 48,89 l 0,0 c 1.689,0 3.327,0.212 4.894,0.606 l 0,0 0,14.501 14.501,0 C 67.789,105.673 68,107.312 68,109 l 0,0 c 0,1.688 -0.211,3.327 -0.605,4.893 l 0,0 -14.501,0 0,14.502 C 51.327,128.788 49.689,129 48,129 l 0,0 c -1.689,0 -3.328,-0.212 -4.894,-0.605" /></g></g></g></g><g
       id="g136"><g
         clip-path="url(#clipPath140)"
         id="g138"><g
           id="g144"><g
             id="g146"><path
               id="path154"
               style="fill:url(#linearGradient148);stroke:none"
               d="m 43,109 c 0,-2.761 2.238,-5 5,-5 l 0,0 c 2.762,0 5,2.239 5,5 l 0,0 c 0,2.761 -2.238,5 -5,5 l 0,0 c -2.762,0 -5,-2.239 -5,-5" /></g></g></g></g><g
       id="g156"><g
         clip-path="url(#clipPath160)"
         id="g158"><g
           id="g164"><g
             id="g166"><path
               id="path174"
               style="fill:url(#linearGradient168);stroke:none"
               d="m 173.931,100 c 0,-5.561 4.508,-10.068 10.069,-10.068 l 0,0 c 5.561,0 10.069,4.507 10.069,10.068 l 0,0 c 0,5.561 -4.508,10.069 -10.069,10.069 l 0,0 c -5.561,0 -10.069,-4.508 -10.069,-10.069" /></g></g></g></g><g
       id="g176"><g
         clip-path="url(#clipPath180)"
         id="g178"><g
           id="g184"><g
             id="g186"><path
               id="path194"
               style="fill:url(#linearGradient188);stroke:none"
               d="m 174,100 c 0,-5.522 4.477,-10 10,-10 l 0,0 c 5.523,0 10,4.478 10,10 l 0,0 c 0,5.523 -4.477,10 -10,10 l 0,0 c -5.523,0 -10,-4.477 -10,-10 m 1.387,0 c 0,4.749 3.864,8.613 8.613,8.613 l 0,0 c 4.749,0 8.613,-3.864 8.613,-8.613 l 0,0 c 0,-4.749 -3.864,-8.613 -8.613,-8.613 l 0,0 c -4.749,0 -8.613,3.864 -8.613,8.613" /></g></g></g></g><g
       id="g196"><g
         clip-path="url(#clipPath200)"
         id="g198"><g
           transform="translate(184,111)"
           id="g204"><path
             id="path206"
             style="fill:#999999;fill-opacity:1;fill-rule:nonzero;stroke:none"
             d="m 0,0 c -6.065,0 -11,-4.935 -11,-11 0,-6.065 4.935,-11 11,-11 6.065,0 11,4.935 11,11 C 11,-4.935 6.065,0 0,0 m 0,-0.931 c 5.561,0 10.069,-4.508 10.069,-10.069 0,-5.561 -4.508,-10.069 -10.069,-10.069 -5.561,0 -10.069,4.508 -10.069,10.069 0,5.561 4.508,10.069 10.069,10.069" /></g></g></g><g
       id="g208"><g
         clip-path="url(#clipPath212)"
         id="g210"><g
           id="g216"><g
             id="g218"><path
               id="path226"
               style="fill:url(#linearGradient220);stroke:none"
               d="m 201.931,100 c 0,-5.561 4.508,-10.068 10.069,-10.068 l 0,0 c 5.561,0 10.069,4.507 10.069,10.068 l 0,0 c 0,5.561 -4.508,10.069 -10.069,10.069 l 0,0 c -5.561,0 -10.069,-4.508 -10.069,-10.069" /></g></g></g></g><g
       id="g228"><g
         clip-path="url(#clipPath232)"
         id="g230"><g
           id="g236"><g
             id="g238"><path
               id="path246"
               style="fill:url(#linearGradient240);stroke:none"
               d="m 202,100 c 0,-5.522 4.477,-10 10,-10 l 0,0 c 5.523,0 10,4.478 10,10 l 0,0 c 0,5.523 -4.477,10 -10,10 l 0,0 c -5.523,0 -10,-4.477 -10,-10 m 1.387,0 c 0,4.749 3.864,8.613 8.613,8.613 l 0,0 c 4.749,0 8.613,-3.864 8.613,-8.613 l 0,0 c 0,-4.749 -3.864,-8.613 -8.613,-8.613 l 0,0 c -4.749,0 -8.613,3.864 -8.613,8.613" /></g></g></g></g><g
       id="g248"><g
         clip-path="url(#clipPath252)"
         id="g250"><g
           transform="translate(212,111)"
           id="g256"><path
             id="path258"
             style="fill:#999999;fill-opacity:1;fill-rule:nonzero;stroke:none"
             d="m 0,0 c -6.065,0 -11,-4.935 -11,-11 0,-6.065 4.935,-11 11,-11 6.065,0 11,4.935 11,11 C 11,-4.935 6.065,0 0,0 m 0,-0.931 c 5.561,0 10.069,-4.508 10.069,-10.069 0,-5.561 -4.508,-10.069 -10.069,-10.069 -5.561,0 -10.069,4.508 -10.069,10.069 0,5.561 4.508,10.069 10.069,10.069" /></g></g></g><g
       id="g260"><g
         clip-path="url(#clipPath264)"
         id="g262"><g
           id="g268"><g
             id="g270"><path
               id="path278"
               style="fill:url(#linearGradient272);stroke:none"
               d="m 104.531,102.758 c -1.726,0 -3.124,-1.234 -3.124,-2.758 l 0,0 c 0,-1.524 1.398,-2.759 3.124,-2.759 l 0,0 10.938,0 c 1.725,0 3.125,1.235 3.125,2.759 l 0,0 c 0,1.524 -1.4,2.758 -3.125,2.758 l 0,0 -10.938,0 z" /></g></g></g></g><g
       id="g280"><g
         clip-path="url(#clipPath284)"
         id="g282"><g
           transform="translate(115.4688,104)"
           id="g288"><path
             id="path290"
             style="fill:#999999;fill-opacity:1;fill-rule:nonzero;stroke:none"
             d="m 0,0 -10.938,0 c -2.498,0 -4.531,-1.794 -4.531,-4 0,-2.206 2.033,-4 4.531,-4 L 0,-8 c 2.499,0 4.531,1.794 4.531,4 0,2.206 -2.032,4 -4.531,4 M 0,-1.241 C 1.726,-1.241 3.125,-2.476 3.125,-4 3.125,-5.524 1.726,-6.759 0,-6.759 l -10.938,0 c -1.725,0 -3.125,1.235 -3.125,2.759 0,1.524 1.4,2.759 3.125,2.759 l 10.938,0" /></g></g></g><g
       id="g292"><g
         clip-path="url(#clipPath296)"
         id="g294"><g
           id="g300"><g
             id="g302"><path
               id="path310"
               style="fill:url(#linearGradient304);stroke:none"
               d="m 132.531,102.758 c -1.726,0 -3.125,-1.234 -3.125,-2.758 l 0,0 c 0,-1.524 1.399,-2.759 3.125,-2.759 l 0,0 10.938,0 c 1.725,0 3.125,1.235 3.125,2.759 l 0,0 c 0,1.524 -1.4,2.758 -3.125,2.758 l 0,0 -10.938,0 z" /></g></g></g></g><g
       id="g312"><g
         clip-path="url(#clipPath316)"
         id="g314"><g
           transform="translate(143.4687,104)"
           id="g320"><path
             id="path322"
             style="fill:#999999;fill-opacity:1;fill-rule:nonzero;stroke:none"
             d="m 0,0 -10.938,0 c -2.498,0 -4.531,-1.794 -4.531,-4 0,-2.206 2.033,-4 4.531,-4 L 0,-8 c 2.499,0 4.531,1.794 4.531,4 0,2.206 -2.032,4 -4.531,4 M 0,-1.241 C 1.726,-1.241 3.125,-2.476 3.125,-4 3.125,-5.524 1.726,-6.759 0,-6.759 l -10.938,0 c -1.725,0 -3.125,1.235 -3.125,2.759 0,1.524 1.4,2.759 3.125,2.759 l 10.938,0" /></g><g
           transform="translate(212,132)"
           id="g324"><path
             id="path326"
             style="fill:#999999;fill-opacity:1;fill-rule:nonzero;stroke:none"
             d="m 0,0 0,0 c -2.2,0 -4,1.8 -4,4 l 0,8 c 0,2.2 1.8,4 4,4 2.2,0 4,-1.8 4,-4 L 4,4 C 4,1.8 2.2,0 0,0" /></g></g></g><g
       id="g328"><g
         clip-path="url(#clipPath332)"
         id="g330"><g
           id="g336"><g
             id="g338"><path
               id="path346"
               style="fill:url(#linearGradient340);stroke:none"
               d="m 208,136 c 0,-2.209 1.791,-4 4,-4 l 0,0 c 2.209,0 4,1.791 4,4 l 0,0 c 0,2.209 -1.791,4 -4,4 l 0,0 c -2.209,0 -4,-1.791 -4,-4" /></g></g></g></g><g
       id="g348"><g
         clip-path="url(#clipPath352)"
         id="g350"><g
           transform="translate(184,132)"
           id="g356"><path
             id="path358"
             style="fill:#999999;fill-opacity:1;fill-rule:nonzero;stroke:none"
             d="m 0,0 0,0 c -2.2,0 -4,1.8 -4,4 l 0,8 c 0,2.2 1.8,4 4,4 2.2,0 4,-1.8 4,-4 L 4,4 C 4,1.8 2.2,0 0,0" /></g></g></g><g
       id="g360"><g
         clip-path="url(#clipPath364)"
         id="g362"><g
           id="g368"><g
             id="g370"><path
               id="path378"
               style="fill:url(#linearGradient372);stroke:none"
               d="m 180,136 c 0,-2.209 1.791,-4 4,-4 l 0,0 c 2.209,0 4,1.791 4,4 l 0,0 c 0,2.209 -1.791,4 -4,4 l 0,0 c -2.209,0 -4,-1.791 -4,-4" /></g></g></g></g><g
       id="g380"><g
         clip-path="url(#clipPath384)"
         id="g382"><g
           transform="translate(192,144)"
           id="g388"><path
             id="path390"
             style="fill:#ffffff;fill-opacity:1;fill-rule:nonzero;stroke:none"
             d="M 0,0 0,0 C -1.105,0 -2,0.895 -2,2 -2,3.105 -1.105,4 0,4 1.105,4 2,3.105 2,2 2,0.895 1.105,0 0,0" /></g><g
           transform="translate(186,116)"
           id="g392"><path
             id="path394"
             style="fill:#ffffff;fill-opacity:1;fill-rule:nonzero;stroke:none"
             d="m 0,0 -4,0 c -3.3,0 -6,2.7 -6,6 l 0,0 c 0,3.3 2.7,6 6,6 l 4,0 C 3.3,12 6,9.3 6,6 L 6,6 C 6,2.7 3.3,0 0,0" /></g><g
           transform="translate(214,116)"
           id="g396"><path
             id="path398"
             style="fill:#ffffff;fill-opacity:1;fill-rule:nonzero;stroke:none"
             d="m 0,0 -4,0 c -3.3,0 -6,2.7 -6,6 l 0,0 c 0,3.3 2.7,6 6,6 l 4,0 C 3.3,12 6,9.3 6,6 L 6,6 C 6,2.7 3.3,0 0,0" /></g><g
           transform="translate(194.5,138.5)"
           id="g400"><path
             id="path402"
             style="fill:#ffffff;fill-opacity:1;fill-rule:nonzero;stroke:none"
             d="M 0,0 0,0 C -0.828,0 -1.5,0.672 -1.5,1.5 -1.5,2.328 -0.828,3 0,3 0.828,3 1.5,2.328 1.5,1.5 1.5,0.672 0.828,0 0,0" /></g><g
           transform="translate(198,144)"
           id="g404"><path
             id="path406"
             style="fill:#ffffff;fill-opacity:1;fill-rule:nonzero;stroke:none"
             d="M 0,0 0,0 C -1.105,0 -2,0.895 -2,2 -2,3.105 -1.105,4 0,4 1.105,4 2,3.105 2,2 2,0.895 1.105,0 0,0" /></g><g
           transform="translate(204,144)"
           id="g408"><path
             id="path410"
             style="fill:#ffffff;fill-opacity:1;fill-rule:nonzero;stroke:none"
             d="M 0,0 0,0 C -1.105,0 -2,0.895 -2,2 -2,3.105 -1.105,4 0,4 1.105,4 2,3.105 2,2 2,0.895 1.105,0 0,0" /></g><g
           transform="translate(201.5,138.5)"
           id="g412"><path
             id="path414"
             style="fill:#ffffff;fill-opacity:1;fill-rule:nonzero;stroke:none"
             d="M 0,0 0,0 C -0.828,0 -1.5,0.672 -1.5,1.5 -1.5,2.328 -0.828,3 0,3 0.828,3 1.5,2.328 1.5,1.5 1.5,0.672 0.828,0 0,0" /></g><g
           transform="translate(198,133)"
           id="g416"><path
             id="path418"
             style="fill:#ffffff;fill-opacity:1;fill-rule:nonzero;stroke:none"
             d="M 0,0 0,0 C -0.552,0 -1,0.448 -1,1 -1,1.552 -0.552,2 0,2 0.552,2 1,1.552 1,1 1,0.448 0.552,0 0,0" /></g><g
           transform="translate(77.909,128)"
           id="g420"><path
             id="path422"
             style="fill:#ffffff;fill-opacity:1;fill-rule:nonzero;stroke:none"
             d="m 0,0 c -0.943,1.405 -1.979,2.744 -3.105,4 l -12.378,0 c 1.873,-1.129 3.596,-2.479 5.15,-4 L 0,0 Z" /></g><g
           transform="translate(81.9333,120)"
           id="g424"><path
             id="path426"
             style="fill:#ffffff;fill-opacity:1;fill-rule:nonzero;stroke:none"
             d="m 0,0 c -0.487,1.372 -1.049,2.709 -1.693,4 l -9.276,0 C -10.09,2.74 -9.322,1.399 -8.655,0 L 0,0 Z" /></g><g
           transform="translate(83.773,112)"
           id="g428"><path
             id="path430"
             style="fill:#ffffff;fill-opacity:1;fill-rule:nonzero;stroke:none"
             d="M 0,0 C -0.153,1.357 -0.38,2.692 -0.679,4 L -8.955,4 C -8.567,2.703 -8.27,1.367 -8.069,0 L 0,0 Z" /></g><g
           transform="translate(83.7534,104)"
           id="g432"><path
             id="path434"
             style="fill:#ffffff;fill-opacity:1;fill-rule:nonzero;stroke:none"
             d="m 0,0 c 0.147,1.316 0.247,2.646 0.247,4 l -8,0 c 0,-1.359 -0.104,-2.693 -0.291,-4 L 0,0 Z" /></g><g
           transform="translate(81.9297,96)"
           id="g436"><path
             id="path438"
             style="fill:#ffffff;fill-opacity:1;fill-rule:nonzero;stroke:none"
             d="m 0,0 c 0.462,1.302 0.86,2.634 1.171,4 l -8.27,0 C -7.511,2.617 -8.039,1.285 -8.649,0 L 0,0 Z" /></g><g
           transform="translate(70.9718,92)"
           id="g440"><path
             id="path442"
             style="fill:#ffffff;fill-opacity:1;fill-rule:nonzero;stroke:none"
             d="M 0,0 C -0.193,-0.278 -0.392,-0.552 -0.595,-0.822 -1.579,-2.13 -0.623,-4 1.014,-4 l 4.835,0 C 6.532,-4 7.178,-3.659 7.54,-3.081 8.163,-2.085 8.738,-1.057 9.264,0 L 0,0 Z" /></g></g></g></g></svg>