<?xml version="1.0" encoding="UTF-8" standalone="no"?>
<svg
   xmlns:dc="http://purl.org/dc/elements/1.1/"
   xmlns:cc="http://creativecommons.org/ns#"
   xmlns:rdf="http://www.w3.org/1999/02/22-rdf-syntax-ns#"
   xmlns:svg="http://www.w3.org/2000/svg"
   xmlns="http://www.w3.org/2000/svg"
   viewBox="0 0 320 320"
   height="320"
   width="320"
   xml:space="preserve"
   version="1.1"
   id="svg2"><metadata
     id="metadata8"><rdf:RDF><cc:Work
         rdf:about=""><dc:format>image/svg+xml</dc:format><dc:type
           rdf:resource="http://purl.org/dc/dcmitype/StillImage" /></cc:Work></rdf:RDF></metadata><defs
     id="defs6"><clipPath
       id="clipPath16"
       clipPathUnits="userSpaceOnUse"><path
         id="path18"
         d="m 95.371,176 c -0.299,0 -0.597,-0.021 -0.893,-0.064 l 0,0 -77.017,-10.943 C 14.328,164.548 12,161.866 12,158.701 l 0,0 0,-76.346 C 12,78.845 14.846,76 18.355,76 l 0,0 219.29,0 c 3.51,0 6.355,2.845 6.355,6.355 l 0,0 0,76.337 c 0,3.169 -2.333,5.853 -5.47,6.294 l 0,0 -77.918,10.952 c -0.293,0.042 -0.588,0.062 -0.885,0.062 l 0,0 -64.356,0 z" /></clipPath><linearGradient
       id="linearGradient24"
       spreadMethod="pad"
       gradientTransform="matrix(156.80569,-156.80569,-156.80569,-156.80569,49.595051,198.92912)"
       gradientUnits="userSpaceOnUse"
       y2="0"
       x2="1"
       y1="0"
       x1="0"><stop
         id="stop26"
         offset="0"
         style="stop-opacity:1;stop-color:#e6e7e8" /><stop
         id="stop28"
         offset="1"
         style="stop-opacity:1;stop-color:#d1d3d4" /></linearGradient><clipPath
       id="clipPath36"
       clipPathUnits="userSpaceOnUse"><path
         id="path38"
         d="m 175.371,160 c -2.99,0 -5.416,-2.43 -5.416,-5.427 l 0,0 0,-2.26 c 0,-24.316 -20.115,-44.122 -44.358,-42.987 l 0,0 c -22.456,1.05 -40.341,19.624 -40.341,42.383 l 0,0 0,3.769 c 0,2.497 -2.02,4.522 -4.513,4.522 l 0,0 -42.948,0 C 34.594,160 32,157.401 32,154.194 l 0,0 0,-21.331 c 0,-1.989 2.133,-3.218 3.867,-2.249 l 0,0 c 3.867,2.164 8.382,3.303 13.183,3.048 l 0,0 c 12.811,-0.683 22.999,-11.446 23.043,-24.3 l 0,0 C 72.122,100.717 67.662,93.118 60.921,88.756 l 0,0 c -0.494,-2.129 -0.148,-4.725 4.477,-4.725 l 0,0 115.204,0 C 180.915,84.012 181.23,84 181.548,84 l 0,0 30.74,0 c 0.318,0 0.633,0.012 0.946,0.031 l 0,0 c 0,0 4.004,0.488 5.038,1.154 l 0,0 C 223.98,87.543 228,93.172 228,99.743 l 0,0 c 0,4.247 -1.682,8.099 -4.412,10.931 l 0,0 0,43.52 c 0,3.207 -2.594,5.806 -5.794,5.806 l 0,0 -42.423,0 z" /></clipPath><linearGradient
       id="linearGradient44"
       spreadMethod="pad"
       gradientTransform="matrix(-129.69344,129.69344,129.69344,129.69344,199.12932,64.34475)"
       gradientUnits="userSpaceOnUse"
       y2="0"
       x2="1"
       y1="0"
       x1="0"><stop
         id="stop46"
         offset="0"
         style="stop-opacity:1;stop-color:#e6e7e8" /><stop
         id="stop48"
         offset="1"
         style="stop-opacity:1;stop-color:#d1d3d4" /></linearGradient><clipPath
       id="clipPath56"
       clipPathUnits="userSpaceOnUse"><path
         id="path58"
         d="M 96.523,180 C 95.129,180 94,178.876 94,177.49 l 0,0 0,-27.662 C 94,131.145 109.222,116 128,116 l 0,0 c 18.777,0 34,15.145 34,33.828 l 0,0 0,27.662 c 0,1.386 -1.13,2.51 -2.523,2.51 l 0,0 -62.954,0 z" /></clipPath><linearGradient
       id="linearGradient64"
       spreadMethod="pad"
       gradientTransform="matrix(-55.329761,55.329761,55.329761,55.329761,155.66487,129.53125)"
       gradientUnits="userSpaceOnUse"
       y2="0"
       x2="1"
       y1="0"
       x1="0"><stop
         id="stop66"
         offset="0"
         style="stop-opacity:1;stop-color:#e6e7e8" /><stop
         id="stop68"
         offset="1"
         style="stop-opacity:1;stop-color:#d1d3d4" /></linearGradient><clipPath
       id="clipPath76"
       clipPathUnits="userSpaceOnUse"><path
         id="path78"
         d="M 26,109 C 26,96.85 35.85,87 48,87 l 0,0 c 12.151,0 22,9.85 22,22 l 0,0 c 0,12.15 -9.849,22 -22,22 l 0,0 c -12.15,0 -22,-9.85 -22,-22" /></clipPath><linearGradient
       id="linearGradient84"
       spreadMethod="pad"
       gradientTransform="matrix(31.112698,-31.112698,-31.112698,-31.112698,32.443649,124.55635)"
       gradientUnits="userSpaceOnUse"
       y2="0"
       x2="1"
       y1="0"
       x1="0"><stop
         id="stop86"
         offset="0"
         style="stop-opacity:1;stop-color:#e6e7e8" /><stop
         id="stop88"
         offset="1"
         style="stop-opacity:1;stop-color:#d1d3d4" /></linearGradient><clipPath
       id="clipPath96"
       clipPathUnits="userSpaceOnUse"><path
         id="path98"
         d="M 0,256 256,256 256,0 0,0 0,256 Z" /></clipPath><clipPath
       id="clipPath108"
       clipPathUnits="userSpaceOnUse"><path
         id="path110"
         d="m 43.106,128.395 0,-14.502 -14.5,0 C 28.211,112.327 28,110.688 28,109 l 0,0 c 0,-1.688 0.211,-3.327 0.606,-4.893 l 0,0 14.5,0 0,-14.501 C 44.672,89.212 46.311,89 48,89 l 0,0 c 1.689,0 3.327,0.212 4.894,0.606 l 0,0 0,14.501 14.501,0 C 67.789,105.673 68,107.312 68,109 l 0,0 c 0,1.688 -0.211,3.327 -0.605,4.893 l 0,0 -14.501,0 0,14.502 C 51.327,128.788 49.689,129 48,129 l 0,0 c -1.689,0 -3.328,-0.212 -4.894,-0.605" /></clipPath><linearGradient
       id="linearGradient116"
       spreadMethod="pad"
       gradientTransform="matrix(-24.28812,24.28812,24.28812,24.28812,60.144062,96.855942)"
       gradientUnits="userSpaceOnUse"
       y2="0"
       x2="1"
       y1="0"
       x1="0"><stop
         id="stop118"
         offset="0"
         style="stop-opacity:1;stop-color:#e6e7e8" /><stop
         id="stop120"
         offset="1"
         style="stop-opacity:1;stop-color:#d1d3d4" /></linearGradient><clipPath
       id="clipPath128"
       clipPathUnits="userSpaceOnUse"><path
         id="path130"
         d="m 43,109 c 0,-2.761 2.238,-5 5,-5 l 0,0 c 2.762,0 5,2.239 5,5 l 0,0 c 0,2.761 -2.238,5 -5,5 l 0,0 c -2.762,0 -5,-2.239 -5,-5" /></clipPath><linearGradient
       id="linearGradient136"
       spreadMethod="pad"
       gradientTransform="matrix(7.0710678,-7.0710678,-7.0710678,-7.0710678,44.464466,112.53554)"
       gradientUnits="userSpaceOnUse"
       y2="0"
       x2="1"
       y1="0"
       x1="0"><stop
         id="stop138"
         offset="0"
         style="stop-opacity:1;stop-color:#e6e7e8" /><stop
         id="stop140"
         offset="1"
         style="stop-opacity:1;stop-color:#d1d3d4" /></linearGradient><clipPath
       id="clipPath148"
       clipPathUnits="userSpaceOnUse"><path
         id="path150"
         d="m 173.931,100 c 0,-5.561 4.508,-10.068 10.069,-10.068 l 0,0 c 5.561,0 10.069,4.507 10.069,10.068 l 0,0 c 0,5.561 -4.508,10.069 -10.069,10.069 l 0,0 c -5.561,0 -10.069,-4.508 -10.069,-10.069" /></clipPath><linearGradient
       id="linearGradient156"
       spreadMethod="pad"
       gradientTransform="matrix(14.239398,-14.239398,-14.239398,-14.239398,176.88031,107.11971)"
       gradientUnits="userSpaceOnUse"
       y2="0"
       x2="1"
       y1="0"
       x1="0"><stop
         id="stop158"
         offset="0"
         style="stop-opacity:1;stop-color:#e6e7e8" /><stop
         id="stop160"
         offset="1"
         style="stop-opacity:1;stop-color:#d1d3d4" /></linearGradient><clipPath
       id="clipPath168"
       clipPathUnits="userSpaceOnUse"><path
         id="path170"
         d="m 174,100 c 0,-5.522 4.477,-10 10,-10 l 0,0 c 5.523,0 10,4.478 10,10 l 0,0 c 0,5.523 -4.477,10 -10,10 l 0,0 c -5.523,0 -10,-4.477 -10,-10 m 1.387,0 c 0,4.749 3.864,8.613 8.613,8.613 l 0,0 c 4.749,0 8.613,-3.864 8.613,-8.613 l 0,0 c 0,-4.749 -3.864,-8.613 -8.613,-8.613 l 0,0 c -4.749,0 -8.613,3.864 -8.613,8.613" /></clipPath><linearGradient
       id="linearGradient176"
       spreadMethod="pad"
       gradientTransform="matrix(-14.142133,14.142133,14.142133,14.142133,191.07108,92.928932)"
       gradientUnits="userSpaceOnUse"
       y2="0"
       x2="1"
       y1="0"
       x1="0"><stop
         id="stop178"
         offset="0"
         style="stop-opacity:1;stop-color:#e6e7e8" /><stop
         id="stop180"
         offset="1"
         style="stop-opacity:1;stop-color:#d1d3d4" /></linearGradient><clipPath
       id="clipPath188"
       clipPathUnits="userSpaceOnUse"><path
         id="path190"
         d="M 0,256 256,256 256,0 0,0 0,256 Z" /></clipPath><clipPath
       id="clipPath200"
       clipPathUnits="userSpaceOnUse"><path
         id="path202"
         d="m 201.931,100 c 0,-5.561 4.508,-10.068 10.069,-10.068 l 0,0 c 5.561,0 10.069,4.507 10.069,10.068 l 0,0 c 0,5.561 -4.508,10.069 -10.069,10.069 l 0,0 c -5.561,0 -10.069,-4.508 -10.069,-10.069" /></clipPath><linearGradient
       id="linearGradient208"
       spreadMethod="pad"
       gradientTransform="matrix(14.239398,-14.239398,-14.239398,-14.239398,204.88031,107.11971)"
       gradientUnits="userSpaceOnUse"
       y2="0"
       x2="1"
       y1="0"
       x1="0"><stop
         id="stop210"
         offset="0"
         style="stop-opacity:1;stop-color:#e6e7e8" /><stop
         id="stop212"
         offset="1"
         style="stop-opacity:1;stop-color:#d1d3d4" /></linearGradient><clipPath
       id="clipPath220"
       clipPathUnits="userSpaceOnUse"><path
         id="path222"
         d="m 202,100 c 0,-5.522 4.477,-10 10,-10 l 0,0 c 5.523,0 10,4.478 10,10 l 0,0 c 0,5.523 -4.477,10 -10,10 l 0,0 c -5.523,0 -10,-4.477 -10,-10 m 1.387,0 c 0,4.749 3.864,8.613 8.613,8.613 l 0,0 c 4.749,0 8.613,-3.864 8.613,-8.613 l 0,0 c 0,-4.749 -3.864,-8.613 -8.613,-8.613 l 0,0 c -4.749,0 -8.613,3.864 -8.613,8.613" /></clipPath><linearGradient
       id="linearGradient228"
       spreadMethod="pad"
       gradientTransform="matrix(-14.142133,14.142133,14.142133,14.142133,219.07108,92.928932)"
       gradientUnits="userSpaceOnUse"
       y2="0"
       x2="1"
       y1="0"
       x1="0"><stop
         id="stop230"
         offset="0"
         style="stop-opacity:1;stop-color:#e6e7e8" /><stop
         id="stop232"
         offset="1"
         style="stop-opacity:1;stop-color:#d1d3d4" /></linearGradient><clipPath
       id="clipPath240"
       clipPathUnits="userSpaceOnUse"><path
         id="path242"
         d="M 0,256 256,256 256,0 0,0 0,256 Z" /></clipPath><clipPath
       id="clipPath252"
       clipPathUnits="userSpaceOnUse"><path
         id="path254"
         d="m 104.531,102.758 c -1.726,0 -3.124,-1.234 -3.124,-2.758 l 0,0 c 0,-1.524 1.398,-2.759 3.124,-2.759 l 0,0 10.938,0 c 1.725,0 3.125,1.235 3.125,2.759 l 0,0 c 0,1.524 -1.4,2.758 -3.125,2.758 l 0,0 -10.938,0 z" /></clipPath><linearGradient
       id="linearGradient260"
       spreadMethod="pad"
       gradientTransform="matrix(-9.6372061,9.6372061,9.6372061,9.6372061,114.8186,95.181396)"
       gradientUnits="userSpaceOnUse"
       y2="0"
       x2="1"
       y1="0"
       x1="0"><stop
         id="stop262"
         offset="0"
         style="stop-opacity:1;stop-color:#e6e7e8" /><stop
         id="stop264"
         offset="1"
         style="stop-opacity:1;stop-color:#d1d3d4" /></linearGradient><clipPath
       id="clipPath272"
       clipPathUnits="userSpaceOnUse"><path
         id="path274"
         d="M 0,256 256,256 256,0 0,0 0,256 Z" /></clipPath><clipPath
       id="clipPath284"
       clipPathUnits="userSpaceOnUse"><path
         id="path286"
         d="m 132.531,102.758 c -1.726,0 -3.125,-1.234 -3.125,-2.758 l 0,0 c 0,-1.524 1.399,-2.759 3.125,-2.759 l 0,0 10.938,0 c 1.725,0 3.125,1.235 3.125,2.759 l 0,0 c 0,1.524 -1.4,2.758 -3.125,2.758 l 0,0 -10.938,0 z" /></clipPath><linearGradient
       id="linearGradient292"
       spreadMethod="pad"
       gradientTransform="matrix(-9.6372061,9.6372061,9.6372061,9.6372061,142.8186,95.181396)"
       gradientUnits="userSpaceOnUse"
       y2="0"
       x2="1"
       y1="0"
       x1="0"><stop
         id="stop294"
         offset="0"
         style="stop-opacity:1;stop-color:#e6e7e8" /><stop
         id="stop296"
         offset="1"
         style="stop-opacity:1;stop-color:#d1d3d4" /></linearGradient><clipPath
       id="clipPath304"
       clipPathUnits="userSpaceOnUse"><path
         id="path306"
         d="M 0,256 256,256 256,0 0,0 0,256 Z" /></clipPath><clipPath
       id="clipPath320"
       clipPathUnits="userSpaceOnUse"><path
         id="path322"
         d="m 208,136 c 0,-2.209 1.791,-4 4,-4 l 0,0 c 2.209,0 4,1.791 4,4 l 0,0 c 0,2.209 -1.791,4 -4,4 l 0,0 c -2.209,0 -4,-1.791 -4,-4" /></clipPath><linearGradient
       id="linearGradient328"
       spreadMethod="pad"
       gradientTransform="matrix(5.6568542,-5.6568542,-5.6568542,-5.6568542,209.17157,138.82843)"
       gradientUnits="userSpaceOnUse"
       y2="0"
       x2="1"
       y1="0"
       x1="0"><stop
         id="stop330"
         offset="0"
         style="stop-opacity:1;stop-color:#e6e7e8" /><stop
         id="stop332"
         offset="1"
         style="stop-opacity:1;stop-color:#d1d3d4" /></linearGradient><clipPath
       id="clipPath340"
       clipPathUnits="userSpaceOnUse"><path
         id="path342"
         d="M 0,256 256,256 256,0 0,0 0,256 Z" /></clipPath><clipPath
       id="clipPath352"
       clipPathUnits="userSpaceOnUse"><path
         id="path354"
         d="m 180,136 c 0,-2.209 1.791,-4 4,-4 l 0,0 c 2.209,0 4,1.791 4,4 l 0,0 c 0,2.209 -1.791,4 -4,4 l 0,0 c -2.209,0 -4,-1.791 -4,-4" /></clipPath><linearGradient
       id="linearGradient360"
       spreadMethod="pad"
       gradientTransform="matrix(5.6568542,-5.6568542,-5.6568542,-5.6568542,181.17157,138.82843)"
       gradientUnits="userSpaceOnUse"
       y2="0"
       x2="1"
       y1="0"
       x1="0"><stop
         id="stop362"
         offset="0"
         style="stop-opacity:1;stop-color:#e6e7e8" /><stop
         id="stop364"
         offset="1"
         style="stop-opacity:1;stop-color:#d1d3d4" /></linearGradient><clipPath
       id="clipPath372"
       clipPathUnits="userSpaceOnUse"><path
         id="path374"
         d="M 0,256 256,256 256,0 0,0 0,256 Z" /></clipPath></defs><g
     transform="matrix(1.25,0,0,-1.25,0,320)"
     id="g10"><g
       id="g12"><g
         clip-path="url(#clipPath16)"
         id="g14"><g
           id="g20"><g
             id="g22"><path
               id="path30"
               style="fill:url(#linearGradient24);stroke:none"
               d="m 95.371,176 c -0.299,0 -0.597,-0.021 -0.893,-0.064 l 0,0 -77.017,-10.943 C 14.328,164.548 12,161.866 12,158.701 l 0,0 0,-76.346 C 12,78.845 14.846,76 18.355,76 l 0,0 219.29,0 c 3.51,0 6.355,2.845 6.355,6.355 l 0,0 0,76.337 c 0,3.169 -2.333,5.853 -5.47,6.294 l 0,0 -77.918,10.952 c -0.293,0.042 -0.588,0.062 -0.885,0.062 l 0,0 -64.356,0 z" /></g></g></g></g><g
       id="g32"><g
         clip-path="url(#clipPath36)"
         id="g34"><g
           id="g40"><g
             id="g42"><path
               id="path50"
               style="fill:url(#linearGradient44);stroke:none"
               d="m 175.371,160 c -2.99,0 -5.416,-2.43 -5.416,-5.427 l 0,0 0,-2.26 c 0,-24.316 -20.115,-44.122 -44.358,-42.987 l 0,0 c -22.456,1.05 -40.341,19.624 -40.341,42.383 l 0,0 0,3.769 c 0,2.497 -2.02,4.522 -4.513,4.522 l 0,0 -42.948,0 C 34.594,160 32,157.401 32,154.194 l 0,0 0,-21.331 c 0,-1.989 2.133,-3.218 3.867,-2.249 l 0,0 c 3.867,2.164 8.382,3.303 13.183,3.048 l 0,0 c 12.811,-0.683 22.999,-11.446 23.043,-24.3 l 0,0 C 72.122,100.717 67.662,93.118 60.921,88.756 l 0,0 c -0.494,-2.129 -0.148,-4.725 4.477,-4.725 l 0,0 115.204,0 C 180.915,84.012 181.23,84 181.548,84 l 0,0 30.74,0 c 0.318,0 0.633,0.012 0.946,0.031 l 0,0 c 0,0 4.004,0.488 5.038,1.154 l 0,0 C 223.98,87.543 228,93.172 228,99.743 l 0,0 c 0,4.247 -1.682,8.099 -4.412,10.931 l 0,0 0,43.52 c 0,3.207 -2.594,5.806 -5.794,5.806 l 0,0 -42.423,0 z" /></g></g></g></g><g
       id="g52"><g
         clip-path="url(#clipPath56)"
         id="g54"><g
           id="g60"><g
             id="g62"><path
               id="path70"
               style="fill:url(#linearGradient64);stroke:none"
               d="M 96.523,180 C 95.129,180 94,178.876 94,177.49 l 0,0 0,-27.662 C 94,131.145 109.222,116 128,116 l 0,0 c 18.777,0 34,15.145 34,33.828 l 0,0 0,27.662 c 0,1.386 -1.13,2.51 -2.523,2.51 l 0,0 -62.954,0 z" /></g></g></g></g><g
       id="g72"><g
         clip-path="url(#clipPath76)"
         id="g74"><g
           id="g80"><g
             id="g82"><path
               id="path90"
               style="fill:url(#linearGradient84);stroke:none"
               d="M 26,109 C 26,96.85 35.85,87 48,87 l 0,0 c 12.151,0 22,9.85 22,22 l 0,0 c 0,12.15 -9.849,22 -22,22 l 0,0 c -12.15,0 -22,-9.85 -22,-22" /></g></g></g></g><g
       id="g92"><g
         clip-path="url(#clipPath96)"
         id="g94"><g
           transform="translate(68,109)"
           id="g100"><path
             id="path102"
             style="fill:#999999;fill-opacity:1;fill-rule:nonzero;stroke:none"
             d="m 0,0 c 0,-11.046 -8.954,-20 -20,-20 -11.046,0 -20,8.954 -20,20 0,11.046 8.954,20 20,20 C -8.954,20 0,11.046 0,0" /></g></g></g><g
       id="g104"><g
         clip-path="url(#clipPath108)"
         id="g106"><g
           id="g112"><g
             id="g114"><path
               id="path122"
               style="fill:url(#linearGradient116);stroke:none"
               d="m 43.106,128.395 0,-14.502 -14.5,0 C 28.211,112.327 28,110.688 28,109 l 0,0 c 0,-1.688 0.211,-3.327 0.606,-4.893 l 0,0 14.5,0 0,-14.501 C 44.672,89.212 46.311,89 48,89 l 0,0 c 1.689,0 3.327,0.212 4.894,0.606 l 0,0 0,14.501 14.501,0 C 67.789,105.673 68,107.312 68,109 l 0,0 c 0,1.688 -0.211,3.327 -0.605,4.893 l 0,0 -14.501,0 0,14.502 C 51.327,128.788 49.689,129 48,129 l 0,0 c -1.689,0 -3.328,-0.212 -4.894,-0.605" /></g></g></g></g><g
       id="g124"><g
         clip-path="url(#clipPath128)"
         id="g126"><g
           id="g132"><g
             id="g134"><path
               id="path142"
               style="fill:url(#linearGradient136);stroke:none"
               d="m 43,109 c 0,-2.761 2.238,-5 5,-5 l 0,0 c 2.762,0 5,2.239 5,5 l 0,0 c 0,2.761 -2.238,5 -5,5 l 0,0 c -2.762,0 -5,-2.239 -5,-5" /></g></g></g></g><g
       id="g144"><g
         clip-path="url(#clipPath148)"
         id="g146"><g
           id="g152"><g
             id="g154"><path
               id="path162"
               style="fill:url(#linearGradient156);stroke:none"
               d="m 173.931,100 c 0,-5.561 4.508,-10.068 10.069,-10.068 l 0,0 c 5.561,0 10.069,4.507 10.069,10.068 l 0,0 c 0,5.561 -4.508,10.069 -10.069,10.069 l 0,0 c -5.561,0 -10.069,-4.508 -10.069,-10.069" /></g></g></g></g><g
       id="g164"><g
         clip-path="url(#clipPath168)"
         id="g166"><g
           id="g172"><g
             id="g174"><path
               id="path182"
               style="fill:url(#linearGradient176);stroke:none"
               d="m 174,100 c 0,-5.522 4.477,-10 10,-10 l 0,0 c 5.523,0 10,4.478 10,10 l 0,0 c 0,5.523 -4.477,10 -10,10 l 0,0 c -5.523,0 -10,-4.477 -10,-10 m 1.387,0 c 0,4.749 3.864,8.613 8.613,8.613 l 0,0 c 4.749,0 8.613,-3.864 8.613,-8.613 l 0,0 c 0,-4.749 -3.864,-8.613 -8.613,-8.613 l 0,0 c -4.749,0 -8.613,3.864 -8.613,8.613" /></g></g></g></g><g
       id="g184"><g
         clip-path="url(#clipPath188)"
         id="g186"><g
           transform="translate(184,111)"
           id="g192"><path
             id="path194"
             style="fill:#999999;fill-opacity:1;fill-rule:nonzero;stroke:none"
             d="m 0,0 c -6.065,0 -11,-4.935 -11,-11 0,-6.065 4.935,-11 11,-11 6.065,0 11,4.935 11,11 C 11,-4.935 6.065,0 0,0 m 0,-0.931 c 5.561,0 10.069,-4.508 10.069,-10.069 0,-5.561 -4.508,-10.069 -10.069,-10.069 -5.561,0 -10.069,4.508 -10.069,10.069 0,5.561 4.508,10.069 10.069,10.069" /></g></g></g><g
       id="g196"><g
         clip-path="url(#clipPath200)"
         id="g198"><g
           id="g204"><g
             id="g206"><path
               id="path214"
               style="fill:url(#linearGradient208);stroke:none"
               d="m 201.931,100 c 0,-5.561 4.508,-10.068 10.069,-10.068 l 0,0 c 5.561,0 10.069,4.507 10.069,10.068 l 0,0 c 0,5.561 -4.508,10.069 -10.069,10.069 l 0,0 c -5.561,0 -10.069,-4.508 -10.069,-10.069" /></g></g></g></g><g
       id="g216"><g
         clip-path="url(#clipPath220)"
         id="g218"><g
           id="g224"><g
             id="g226"><path
               id="path234"
               style="fill:url(#linearGradient228);stroke:none"
               d="m 202,100 c 0,-5.522 4.477,-10 10,-10 l 0,0 c 5.523,0 10,4.478 10,10 l 0,0 c 0,5.523 -4.477,10 -10,10 l 0,0 c -5.523,0 -10,-4.477 -10,-10 m 1.387,0 c 0,4.749 3.864,8.613 8.613,8.613 l 0,0 c 4.749,0 8.613,-3.864 8.613,-8.613 l 0,0 c 0,-4.749 -3.864,-8.613 -8.613,-8.613 l 0,0 c -4.749,0 -8.613,3.864 -8.613,8.613" /></g></g></g></g><g
       id="g236"><g
         clip-path="url(#clipPath240)"
         id="g238"><g
           transform="translate(212,111)"
           id="g244"><path
             id="path246"
             style="fill:#999999;fill-opacity:1;fill-rule:nonzero;stroke:none"
             d="m 0,0 c -6.065,0 -11,-4.935 -11,-11 0,-6.065 4.935,-11 11,-11 6.065,0 11,4.935 11,11 C 11,-4.935 6.065,0 0,0 m 0,-0.931 c 5.561,0 10.069,-4.508 10.069,-10.069 0,-5.561 -4.508,-10.069 -10.069,-10.069 -5.561,0 -10.069,4.508 -10.069,10.069 0,5.561 4.508,10.069 10.069,10.069" /></g></g></g><g
       id="g248"><g
         clip-path="url(#clipPath252)"
         id="g250"><g
           id="g256"><g
             id="g258"><path
               id="path266"
               style="fill:url(#linearGradient260);stroke:none"
               d="m 104.531,102.758 c -1.726,0 -3.124,-1.234 -3.124,-2.758 l 0,0 c 0,-1.524 1.398,-2.759 3.124,-2.759 l 0,0 10.938,0 c 1.725,0 3.125,1.235 3.125,2.759 l 0,0 c 0,1.524 -1.4,2.758 -3.125,2.758 l 0,0 -10.938,0 z" /></g></g></g></g><g
       id="g268"><g
         clip-path="url(#clipPath272)"
         id="g270"><g
           transform="translate(115.4688,104)"
           id="g276"><path
             id="path278"
             style="fill:#999999;fill-opacity:1;fill-rule:nonzero;stroke:none"
             d="m 0,0 -10.938,0 c -2.498,0 -4.531,-1.794 -4.531,-4 0,-2.206 2.033,-4 4.531,-4 L 0,-8 c 2.499,0 4.531,1.794 4.531,4 0,2.206 -2.032,4 -4.531,4 M 0,-1.241 C 1.726,-1.241 3.125,-2.476 3.125,-4 3.125,-5.524 1.726,-6.759 0,-6.759 l -10.938,0 c -1.725,0 -3.125,1.235 -3.125,2.759 0,1.524 1.4,2.759 3.125,2.759 l 10.938,0" /></g></g></g><g
       id="g280"><g
         clip-path="url(#clipPath284)"
         id="g282"><g
           id="g288"><g
             id="g290"><path
               id="path298"
               style="fill:url(#linearGradient292);stroke:none"
               d="m 132.531,102.758 c -1.726,0 -3.125,-1.234 -3.125,-2.758 l 0,0 c 0,-1.524 1.399,-2.759 3.125,-2.759 l 0,0 10.938,0 c 1.725,0 3.125,1.235 3.125,2.759 l 0,0 c 0,1.524 -1.4,2.758 -3.125,2.758 l 0,0 -10.938,0 z" /></g></g></g></g><g
       id="g300"><g
         clip-path="url(#clipPath304)"
         id="g302"><g
           transform="translate(143.4687,104)"
           id="g308"><path
             id="path310"
             style="fill:#999999;fill-opacity:1;fill-rule:nonzero;stroke:none"
             d="m 0,0 -10.938,0 c -2.498,0 -4.531,-1.794 -4.531,-4 0,-2.206 2.033,-4 4.531,-4 L 0,-8 c 2.499,0 4.531,1.794 4.531,4 0,2.206 -2.032,4 -4.531,4 M 0,-1.241 C 1.726,-1.241 3.125,-2.476 3.125,-4 3.125,-5.524 1.726,-6.759 0,-6.759 l -10.938,0 c -1.725,0 -3.125,1.235 -3.125,2.759 0,1.524 1.4,2.759 3.125,2.759 l 10.938,0" /></g><g
           transform="translate(212,132)"
           id="g312"><path
             id="path314"
             style="fill:#999999;fill-opacity:1;fill-rule:nonzero;stroke:none"
             d="m 0,0 0,0 c -2.2,0 -4,1.8 -4,4 l 0,8 c 0,2.2 1.8,4 4,4 2.2,0 4,-1.8 4,-4 L 4,4 C 4,1.8 2.2,0 0,0" /></g></g></g><g
       id="g316"><g
         clip-path="url(#clipPath320)"
         id="g318"><g
           id="g324"><g
             id="g326"><path
               id="path334"
               style="fill:url(#linearGradient328);stroke:none"
               d="m 208,136 c 0,-2.209 1.791,-4 4,-4 l 0,0 c 2.209,0 4,1.791 4,4 l 0,0 c 0,2.209 -1.791,4 -4,4 l 0,0 c -2.209,0 -4,-1.791 -4,-4" /></g></g></g></g><g
       id="g336"><g
         clip-path="url(#clipPath340)"
         id="g338"><g
           transform="translate(184,132)"
           id="g344"><path
             id="path346"
             style="fill:#999999;fill-opacity:1;fill-rule:nonzero;stroke:none"
             d="m 0,0 0,0 c -2.2,0 -4,1.8 -4,4 l 0,8 c 0,2.2 1.8,4 4,4 2.2,0 4,-1.8 4,-4 L 4,4 C 4,1.8 2.2,0 0,0" /></g></g></g><g
       id="g348"><g
         clip-path="url(#clipPath352)"
         id="g350"><g
           id="g356"><g
             id="g358"><path
               id="path366"
               style="fill:url(#linearGradient360);stroke:none"
               d="m 180,136 c 0,-2.209 1.791,-4 4,-4 l 0,0 c 2.209,0 4,1.791 4,4 l 0,0 c 0,2.209 -1.791,4 -4,4 l 0,0 c -2.209,0 -4,-1.791 -4,-4" /></g></g></g></g><g
       id="g368"><g
         clip-path="url(#clipPath372)"
         id="g370"><g
           transform="translate(196,146)"
           id="g376"><path
             id="path378"
             style="fill:#999999;fill-opacity:1;fill-rule:nonzero;stroke:none"
             d="m 0,0 c 0,-1.105 -0.895,-2 -2,-2 -1.105,0 -2,0.895 -2,2 0,1.105 0.895,2 2,2 1.105,0 2,-0.895 2,-2" /></g><g
           transform="translate(195.5,140)"
           id="g380"><path
             id="path382"
             style="fill:#999999;fill-opacity:1;fill-rule:nonzero;stroke:none"
             d="M 0,0 C 0,-0.828 -0.672,-1.5 -1.5,-1.5 -2.328,-1.5 -3,-0.828 -3,0 -3,0.828 -2.328,1.5 -1.5,1.5 -0.672,1.5 0,0.828 0,0" /></g><g
           transform="translate(195,134)"
           id="g384"><path
             id="path386"
             style="fill:#999999;fill-opacity:1;fill-rule:nonzero;stroke:none"
             d="m 0,0 c 0,-0.552 -0.448,-1 -1,-1 -0.552,0 -1,0.448 -1,1 0,0.552 0.448,1 1,1 0.552,0 1,-0.448 1,-1" /></g><g
           transform="translate(204,146)"
           id="g388"><path
             id="path390"
             style="fill:#999999;fill-opacity:1;fill-rule:nonzero;stroke:none"
             d="m 0,0 c 0,-1.105 -0.895,-2 -2,-2 -1.105,0 -2,0.895 -2,2 0,1.105 0.895,2 2,2 1.105,0 2,-0.895 2,-2" /></g><g
           transform="translate(203.5,140)"
           id="g392"><path
             id="path394"
             style="fill:#999999;fill-opacity:1;fill-rule:nonzero;stroke:none"
             d="M 0,0 C 0,-0.828 -0.672,-1.5 -1.5,-1.5 -2.328,-1.5 -3,-0.828 -3,0 -3,0.828 -2.328,1.5 -1.5,1.5 -0.672,1.5 0,0.828 0,0" /></g><g
           transform="translate(203,134)"
           id="g396"><path
             id="path398"
             style="fill:#999999;fill-opacity:1;fill-rule:nonzero;stroke:none"
             d="m 0,0 c 0,-0.552 -0.448,-1 -1,-1 -0.552,0 -1,0.448 -1,1 0,0.552 0.448,1 1,1 0.552,0 1,-0.448 1,-1" /></g></g></g></g></svg>