<?xml version="1.0" encoding="UTF-8" standalone="no"?>
<svg
   xmlns:dc="http://purl.org/dc/elements/1.1/"
   xmlns:cc="http://creativecommons.org/ns#"
   xmlns:rdf="http://www.w3.org/1999/02/22-rdf-syntax-ns#"
   xmlns:svg="http://www.w3.org/2000/svg"
   xmlns="http://www.w3.org/2000/svg"
   viewBox="0 0 320 320"
   height="320"
   width="320"
   xml:space="preserve"
   version="1.1"
   id="svg2"><metadata
     id="metadata8"><rdf:RDF><cc:Work
         rdf:about=""><dc:format>image/svg+xml</dc:format><dc:type
           rdf:resource="http://purl.org/dc/dcmitype/StillImage" /></cc:Work></rdf:RDF></metadata><defs
     id="defs6"><clipPath
       id="clipPath16"
       clipPathUnits="userSpaceOnUse"><path
         id="path18"
         d="M 25.749,160.204 C -0.761,96.105 6.813,69.71 86.342,77.251 l 0,0 c 3.787,15.083 79.529,15.083 83.316,0 l 0,0 c 79.529,-7.541 87.103,18.854 60.593,82.953 l 0,0 C 224.571,173.402 176.285,180 128,180 l 0,0 C 79.715,180 31.429,173.402 25.749,160.204" /></clipPath><linearGradient
       id="linearGradient24"
       spreadMethod="pad"
       gradientTransform="matrix(142.04083,-142.04083,-142.04083,-142.04083,56.979584,192.31662)"
       gradientUnits="userSpaceOnUse"
       y2="0"
       x2="1"
       y1="0"
       x1="0"><stop
         id="stop26"
         offset="0"
         style="stop-opacity:1;stop-color:#e6e7e8" /><stop
         id="stop28"
         offset="1"
         style="stop-opacity:1;stop-color:#d1d3d4" /></linearGradient><clipPath
       id="clipPath36"
       clipPathUnits="userSpaceOnUse"><path
         id="path38"
         d="M 27.383,154.096 C 26.88,152.869 16.969,128.38 18.088,113.883 l 0,0 c 1.024,-13.264 4.351,-27.119 21.255,-29.305 l 0,0 C 54.589,82.606 67.54,82.019 67.67,82.013 l 0,0 0.331,-0.013 0.269,0.195 c 0.131,0.095 5.637,4.165 11.371,11.008 l 0,0 c 15.385,16.242 18.729,25.386 14.919,43.769 l 0,0 c -4.475,21.593 -54.981,22.647 -57.114,22.83 l 0,0 C 36.937,159.922 36.313,160 35.622,160 l 0,0 c -2.724,0 -6.479,-1.216 -8.239,-5.904" /></clipPath><linearGradient
       id="linearGradient44"
       spreadMethod="pad"
       gradientTransform="matrix(-57.437752,57.437752,57.437752,57.437752,81.394676,94.537186)"
       gradientUnits="userSpaceOnUse"
       y2="0"
       x2="1"
       y1="0"
       x1="0"><stop
         id="stop46"
         offset="0"
         style="stop-opacity:1;stop-color:#e6e7e8" /><stop
         id="stop48"
         offset="1"
         style="stop-opacity:1;stop-color:#d1d3d4" /></linearGradient><clipPath
       id="clipPath56"
       clipPathUnits="userSpaceOnUse"><path
         id="path58"
         d="m 29.178,153.387 -0.01,-0.029 c -0.102,-0.25 -10.246,-25.237 -9.158,-39.322 l 0,0 c 1.011,-13.107 4.083,-25.514 19.576,-27.515 l 0,0 c 13.797,-1.785 25.695,-2.429 27.829,-2.535 l 0,0 c 2.92,2.235 28.936,23.039 22.019,49.326 l 0,0 c -0.056,0.269 -4.558,20.429 -52.289,24.561 l 0,0 c -0.112,0.024 -0.7,0.15 -1.525,0.15 l 0,0 c -1.869,0 -4.952,-0.65 -6.442,-4.636" /></clipPath><linearGradient
       id="linearGradient64"
       spreadMethod="pad"
       gradientTransform="matrix(54.700432,-54.700432,-54.700432,-54.700432,23.644272,148.91682)"
       gradientUnits="userSpaceOnUse"
       y2="0"
       x2="1"
       y1="0"
       x1="0"><stop
         id="stop66"
         offset="0"
         style="stop-opacity:1;stop-color:#e6e7e8" /><stop
         id="stop68"
         offset="1"
         style="stop-opacity:1;stop-color:#d1d3d4" /></linearGradient><clipPath
       id="clipPath76"
       clipPathUnits="userSpaceOnUse"><path
         id="path78"
         d="M 0,256 256,256 256,0 0,0 0,256 Z" /></clipPath><clipPath
       id="clipPath88"
       clipPathUnits="userSpaceOnUse"><path
         id="path90"
         d="m 218.554,159.802 c -2.134,-0.183 -52.639,-1.237 -57.114,-22.83 l 0,0 c -3.81,-18.383 -0.465,-27.527 14.919,-43.769 l 0,0 C 182.092,86.36 187.6,82.29 187.729,82.195 l 0,0 0.269,-0.195 0.331,0.013 c 0.131,0.006 13.082,0.593 28.328,2.565 l 0,0 c 16.904,2.186 20.23,16.041 21.255,29.305 l 0,0 c 1.12,14.497 -8.793,38.986 -9.294,40.213 l 0,0 c -1.761,4.688 -5.516,5.904 -8.24,5.904 l 0,0 c -0.691,0 -1.315,-0.078 -1.824,-0.198" /></clipPath><linearGradient
       id="linearGradient96"
       spreadMethod="pad"
       gradientTransform="matrix(-59.195938,59.195938,59.195938,59.195938,232.92216,93.658089)"
       gradientUnits="userSpaceOnUse"
       y2="0"
       x2="1"
       y1="0"
       x1="0"><stop
         id="stop98"
         offset="0"
         style="stop-opacity:1;stop-color:#e6e7e8" /><stop
         id="stop100"
         offset="1"
         style="stop-opacity:1;stop-color:#d1d3d4" /></linearGradient><clipPath
       id="clipPath108"
       clipPathUnits="userSpaceOnUse"><path
         id="path110"
         d="m 218.855,157.873 c -47.731,-4.132 -52.234,-24.292 -52.288,-24.561 l 0,0 c -6.919,-26.287 19.098,-47.091 22.019,-49.326 l 0,0 c 2.134,0.106 14.031,0.75 27.829,2.535 l 0,0 c 15.493,2.001 18.564,14.408 19.576,27.515 l 0,0 c 1.087,14.085 -9.057,39.072 -9.159,39.322 l 0,0 -0.01,0.029 c -1.491,3.986 -4.573,4.636 -6.443,4.636 l 0,0 c -0.824,0 -1.412,-0.126 -1.524,-0.15" /></clipPath><linearGradient
       id="linearGradient116"
       spreadMethod="pad"
       gradientTransform="matrix(53.092247,-53.092247,-53.092247,-53.092247,178.45938,148.11273)"
       gradientUnits="userSpaceOnUse"
       y2="0"
       x2="1"
       y1="0"
       x1="0"><stop
         id="stop118"
         offset="0"
         style="stop-opacity:1;stop-color:#e6e7e8" /><stop
         id="stop120"
         offset="1"
         style="stop-opacity:1;stop-color:#d1d3d4" /></linearGradient><clipPath
       id="clipPath128"
       clipPathUnits="userSpaceOnUse"><path
         id="path130"
         d="M 0,256 256,256 256,0 0,0 0,256 Z" /></clipPath><clipPath
       id="clipPath160"
       clipPathUnits="userSpaceOnUse"><path
         id="path162"
         d="m 124.106,134 c 0,-1.104 0.896,-2 2,-2 l 0,0 c 1.105,0 2.001,0.896 2.001,2 l 0,0 c 0,1.104 -0.896,2 -2.001,2 l 0,0 c -1.104,0 -2,-0.896 -2,-2" /></clipPath><linearGradient
       id="linearGradient168"
       spreadMethod="pad"
       gradientTransform="matrix(-2.8284261,2.8284261,2.8284261,2.8284261,127.52067,132.58578)"
       gradientUnits="userSpaceOnUse"
       y2="0"
       x2="1"
       y1="0"
       x1="0"><stop
         id="stop170"
         offset="0"
         style="stop-opacity:1;stop-color:#e6e7e8" /><stop
         id="stop172"
         offset="1"
         style="stop-opacity:1;stop-color:#d1d3d4" /></linearGradient><clipPath
       id="clipPath180"
       clipPathUnits="userSpaceOnUse"><path
         id="path182"
         d="M 0,256 256,256 256,0 0,0 0,256 Z" /></clipPath><clipPath
       id="clipPath192"
       clipPathUnits="userSpaceOnUse"><path
         id="path194"
         d="m 124.106,122 c 0,-1.105 0.896,-2 2,-2 l 0,0 c 1.105,0 2.001,0.895 2.001,2 l 0,0 c 0,1.105 -0.896,2 -2.001,2 l 0,0 c -1.104,0 -2,-0.895 -2,-2" /></clipPath><linearGradient
       id="linearGradient200"
       spreadMethod="pad"
       gradientTransform="matrix(-2.8284261,2.8284261,2.8284261,2.8284261,127.52067,120.58578)"
       gradientUnits="userSpaceOnUse"
       y2="0"
       x2="1"
       y1="0"
       x1="0"><stop
         id="stop202"
         offset="0"
         style="stop-opacity:1;stop-color:#e6e7e8" /><stop
         id="stop204"
         offset="1"
         style="stop-opacity:1;stop-color:#d1d3d4" /></linearGradient><clipPath
       id="clipPath212"
       clipPathUnits="userSpaceOnUse"><path
         id="path214"
         d="M 0,256 256,256 256,0 0,0 0,256 Z" /></clipPath><clipPath
       id="clipPath232"
       clipPathUnits="userSpaceOnUse"><path
         id="path234"
         d="m 47.151,144.372 c -1.234,-0.41 -1.921,-1.718 -1.557,-2.965 l 0,0 c 0.438,-1.489 1.225,-3.136 1.985,-4.726 l 0,0 c 0.877,-1.836 1.787,-3.736 1.961,-4.675 l 0,0 c 0,-1.153 -0.471,-1.623 -1.255,-1.651 l 0,0 c -1.31,0.201 -3.217,1.108 -5.059,1.985 l 0,0 c -1.595,0.758 -3.244,1.542 -4.738,1.98 l 0,0 c -1.252,0.367 -2.575,-0.332 -2.978,-1.568 l 0,0 c -2.013,-6.175 -2.013,-11.446 0,-17.617 l 0,0 c 0.403,-1.241 1.728,-1.945 2.978,-1.568 l 0,0 c 1.491,0.437 3.136,1.216 4.723,1.975 l 0,0 c 1.849,0.874 3.759,1.784 4.704,1.955 l 0,0 c 1.154,0 1.625,-0.467 1.653,-1.251 l 0,0 c -0.202,-1.307 -1.112,-3.206 -1.991,-5.046 l 0,0 c -0.758,-1.593 -1.545,-3.235 -1.983,-4.723 l 0,0 c -0.367,-1.251 0.33,-2.567 1.572,-2.97 l 0,0 C 50.262,102.503 53.132,102 55.999,102 l 0,0 c 2.869,0 5.739,0.503 8.835,1.507 l 0,0 c 1.242,0.403 1.94,1.719 1.572,2.97 l 0,0 c -0.438,1.488 -1.224,3.136 -1.985,4.723 l 0,0 c -0.879,1.84 -1.789,3.739 -1.963,4.679 l 0,0 c 0,1.151 0.472,1.618 1.263,1.648 l 0,0 c 1.309,-0.201 3.219,-1.111 5.066,-1.985 l 0,0 c 1.587,-0.759 3.232,-1.538 4.723,-1.975 l 0,0 c 1.267,-0.361 2.578,0.322 2.978,1.568 l 0,0 c 2.016,6.171 2.016,11.442 0,17.617 l 0,0 c -0.4,1.236 -1.711,1.927 -2.978,1.568 l 0,0 c -1.493,-0.438 -3.143,-1.222 -4.738,-1.98 l 0,0 c -1.842,-0.877 -3.746,-1.784 -4.686,-1.957 l 0,0 c -1.156,0 -1.628,0.47 -1.655,1.256 l 0,0 c 0.201,1.304 1.111,3.206 1.987,5.042 l 0,0 c 0.762,1.59 1.55,3.234 1.988,4.726 l 0,0 c 0.366,1.247 -0.323,2.555 -1.556,2.965 l 0,0 C 61.582,145.457 58.791,146 56.001,146 l 0,0 c -2.791,0 -5.582,-0.543 -8.85,-1.628" /></clipPath><linearGradient
       id="linearGradient240"
       spreadMethod="pad"
       gradientTransform="matrix(-29.67041,29.67041,29.67041,29.67041,70.835854,109.10612)"
       gradientUnits="userSpaceOnUse"
       y2="0"
       x2="1"
       y1="0"
       x1="0"><stop
         id="stop242"
         offset="0"
         style="stop-opacity:1;stop-color:#e6e7e8" /><stop
         id="stop244"
         offset="1"
         style="stop-opacity:1;stop-color:#d1d3d4" /></linearGradient><clipPath
       id="clipPath252"
       clipPathUnits="userSpaceOnUse"><path
         id="path254"
         d="M 0,256 256,256 256,0 0,0 0,256 Z" /></clipPath></defs><g
     transform="matrix(1.25,0,0,-1.25,0,320)"
     id="g10"><g
       id="g12"><g
         clip-path="url(#clipPath16)"
         id="g14"><g
           id="g20"><g
             id="g22"><path
               id="path30"
               style="fill:url(#linearGradient24);stroke:none"
               d="M 25.749,160.204 C -0.761,96.105 6.813,69.71 86.342,77.251 l 0,0 c 3.787,15.083 79.529,15.083 83.316,0 l 0,0 c 79.529,-7.541 87.103,18.854 60.593,82.953 l 0,0 C 224.571,173.402 176.285,180 128,180 l 0,0 C 79.715,180 31.429,173.402 25.749,160.204" /></g></g></g></g><g
       id="g32"><g
         clip-path="url(#clipPath36)"
         id="g34"><g
           id="g40"><g
             id="g42"><path
               id="path50"
               style="fill:url(#linearGradient44);stroke:none"
               d="M 27.383,154.096 C 26.88,152.869 16.969,128.38 18.088,113.883 l 0,0 c 1.024,-13.264 4.351,-27.119 21.255,-29.305 l 0,0 C 54.589,82.606 67.54,82.019 67.67,82.013 l 0,0 0.331,-0.013 0.269,0.195 c 0.131,0.095 5.637,4.165 11.371,11.008 l 0,0 c 15.385,16.242 18.729,25.386 14.919,43.769 l 0,0 c -4.475,21.593 -54.981,22.647 -57.114,22.83 l 0,0 C 36.937,159.922 36.313,160 35.622,160 l 0,0 c -2.724,0 -6.479,-1.216 -8.239,-5.904" /></g></g></g></g><g
       id="g52"><g
         clip-path="url(#clipPath56)"
         id="g54"><g
           id="g60"><g
             id="g62"><path
               id="path70"
               style="fill:url(#linearGradient64);stroke:none"
               d="m 29.178,153.387 -0.01,-0.029 c -0.102,-0.25 -10.246,-25.237 -9.158,-39.322 l 0,0 c 1.011,-13.107 4.083,-25.514 19.576,-27.515 l 0,0 c 13.797,-1.785 25.695,-2.429 27.829,-2.535 l 0,0 c 2.92,2.235 28.936,23.039 22.019,49.326 l 0,0 c -0.056,0.269 -4.558,20.429 -52.289,24.561 l 0,0 c -0.112,0.024 -0.7,0.15 -1.525,0.15 l 0,0 c -1.869,0 -4.952,-0.65 -6.442,-4.636" /></g></g></g></g><g
       id="g72"><g
         clip-path="url(#clipPath76)"
         id="g74"><g
           transform="translate(80,124)"
           id="g80"><path
             id="path82"
             style="fill:#999999;fill-opacity:1;fill-rule:nonzero;stroke:none"
             d="m 0,0 c 0,-13.255 -10.745,-24 -24,-24 -13.255,0 -24,10.745 -24,24 0,13.255 10.745,24 24,24 C -10.745,24 0,13.255 0,0" /></g></g></g><g
       id="g84"><g
         clip-path="url(#clipPath88)"
         id="g86"><g
           id="g92"><g
             id="g94"><path
               id="path102"
               style="fill:url(#linearGradient96);stroke:none"
               d="m 218.554,159.802 c -2.134,-0.183 -52.639,-1.237 -57.114,-22.83 l 0,0 c -3.81,-18.383 -0.465,-27.527 14.919,-43.769 l 0,0 C 182.092,86.36 187.6,82.29 187.729,82.195 l 0,0 0.269,-0.195 0.331,0.013 c 0.131,0.006 13.082,0.593 28.328,2.565 l 0,0 c 16.904,2.186 20.23,16.041 21.255,29.305 l 0,0 c 1.12,14.497 -8.793,38.986 -9.294,40.213 l 0,0 c -1.761,4.688 -5.516,5.904 -8.24,5.904 l 0,0 c -0.691,0 -1.315,-0.078 -1.824,-0.198" /></g></g></g></g><g
       id="g104"><g
         clip-path="url(#clipPath108)"
         id="g106"><g
           id="g112"><g
             id="g114"><path
               id="path122"
               style="fill:url(#linearGradient116);stroke:none"
               d="m 218.855,157.873 c -47.731,-4.132 -52.234,-24.292 -52.288,-24.561 l 0,0 c -6.919,-26.287 19.098,-47.091 22.019,-49.326 l 0,0 c 2.134,0.106 14.031,0.75 27.829,2.535 l 0,0 c 15.493,2.001 18.564,14.408 19.576,27.515 l 0,0 c 1.087,14.085 -9.057,39.072 -9.159,39.322 l 0,0 -0.01,0.029 c -1.491,3.986 -4.573,4.636 -6.443,4.636 l 0,0 c -0.824,0 -1.412,-0.126 -1.524,-0.15" /></g></g></g></g><g
       id="g124"><g
         clip-path="url(#clipPath128)"
         id="g126"><g
           transform="translate(204,136)"
           id="g132"><path
             id="path134"
             style="fill:#999999;fill-opacity:1;fill-rule:nonzero;stroke:none"
             d="m 0,0 c 0,-4.418 -3.582,-8 -8,-8 -4.418,0 -8,3.582 -8,8 0,4.418 3.582,8 8,8 4.418,0 8,-3.582 8,-8" /></g><g
           transform="translate(224,144)"
           id="g136"><path
             id="path138"
             style="fill:#999999;fill-opacity:1;fill-rule:nonzero;stroke:none"
             d="m 0,0 c 0,-4.418 -3.582,-8 -8,-8 -4.418,0 -8,3.582 -8,8 0,4.418 3.582,8 8,8 4.418,0 8,-3.582 8,-8" /></g><g
           transform="translate(184,128)"
           id="g140"><path
             id="path142"
             style="fill:#999999;fill-opacity:1;fill-rule:nonzero;stroke:none"
             d="m 0,0 c 0,-4.418 -3.582,-8 -8,-8 -4.418,0 -8,3.582 -8,8 0,4.418 3.582,8 8,8 4.418,0 8,-3.582 8,-8" /></g><g
           transform="translate(110.5714,104)"
           id="g144"><path
             id="path146"
             style="fill:#999999;fill-opacity:1;fill-rule:nonzero;stroke:none"
             d="m 0,0 6.857,0 c 1.42,0 2.572,-0.895 2.572,-2 0,-1.105 -1.152,-2 -2.572,-2 L 0,-4 c -1.42,0 -2.571,0.895 -2.571,2 0,1.105 1.151,2 2.571,2" /></g><g
           transform="translate(138.5714,104)"
           id="g148"><path
             id="path150"
             style="fill:#999999;fill-opacity:1;fill-rule:nonzero;stroke:none"
             d="m 0,0 6.857,0 c 1.42,0 2.572,-0.895 2.572,-2 0,-1.105 -1.152,-2 -2.572,-2 L 0,-4 c -1.42,0 -2.571,0.895 -2.571,2 0,1.105 1.151,2 2.571,2" /></g><g
           transform="translate(124,136)"
           id="g152"><path
             id="path154"
             style="fill:#999999;fill-opacity:1;fill-rule:nonzero;stroke:none"
             d="m 0,0 8,0 c 1.105,0 2,-0.895 2,-2 0,-1.105 -0.895,-2 -2,-2 l -8,0 c -1.105,0 -2,0.895 -2,2 0,1.105 0.895,2 2,2" /></g></g></g><g
       id="g156"><g
         clip-path="url(#clipPath160)"
         id="g158"><g
           id="g164"><g
             id="g166"><path
               id="path174"
               style="fill:url(#linearGradient168);stroke:none"
               d="m 124.106,134 c 0,-1.104 0.896,-2 2,-2 l 0,0 c 1.105,0 2.001,0.896 2.001,2 l 0,0 c 0,1.104 -0.896,2 -2.001,2 l 0,0 c -1.104,0 -2,-0.896 -2,-2" /></g></g></g></g><g
       id="g176"><g
         clip-path="url(#clipPath180)"
         id="g178"><g
           transform="translate(124,124)"
           id="g184"><path
             id="path186"
             style="fill:#999999;fill-opacity:1;fill-rule:nonzero;stroke:none"
             d="m 0,0 8,0 c 1.105,0 2,-0.895 2,-2 0,-1.105 -0.895,-2 -2,-2 l -8,0 c -1.105,0 -2,0.895 -2,2 0,1.105 0.895,2 2,2" /></g></g></g><g
       id="g188"><g
         clip-path="url(#clipPath192)"
         id="g190"><g
           id="g196"><g
             id="g198"><path
               id="path206"
               style="fill:url(#linearGradient200);stroke:none"
               d="m 124.106,122 c 0,-1.105 0.896,-2 2,-2 l 0,0 c 1.105,0 2.001,0.895 2.001,2 l 0,0 c 0,1.105 -0.896,2 -2.001,2 l 0,0 c -1.104,0 -2,-0.895 -2,-2" /></g></g></g></g><g
       id="g208"><g
         clip-path="url(#clipPath212)"
         id="g210"><g
           transform="translate(212,116)"
           id="g216"><path
             id="path218"
             style="fill:#999999;fill-opacity:1;fill-rule:nonzero;stroke:none"
             d="m 0,0 c 0,-4.418 -3.582,-8 -8,-8 -4.418,0 -8,3.582 -8,8 0,4.418 3.582,8 8,8 4.418,0 8,-3.582 8,-8" /></g><g
           transform="translate(232,124)"
           id="g220"><path
             id="path222"
             style="fill:#999999;fill-opacity:1;fill-rule:nonzero;stroke:none"
             d="m 0,0 c 0,-4.418 -3.582,-8 -8,-8 -4.418,0 -8,3.582 -8,8 0,4.418 3.582,8 8,8 4.418,0 8,-3.582 8,-8" /></g><g
           transform="translate(192,108)"
           id="g224"><path
             id="path226"
             style="fill:#999999;fill-opacity:1;fill-rule:nonzero;stroke:none"
             d="m 0,0 c 0,-4.418 -3.582,-8 -8,-8 -4.418,0 -8,3.582 -8,8 0,4.418 3.582,8 8,8 4.418,0 8,-3.582 8,-8" /></g></g></g><g
       id="g228"><g
         clip-path="url(#clipPath232)"
         id="g230"><g
           id="g236"><g
             id="g238"><path
               id="path246"
               style="fill:url(#linearGradient240);stroke:none"
               d="m 47.151,144.372 c -1.234,-0.41 -1.921,-1.718 -1.557,-2.965 l 0,0 c 0.438,-1.489 1.225,-3.136 1.985,-4.726 l 0,0 c 0.877,-1.836 1.787,-3.736 1.961,-4.675 l 0,0 c 0,-1.153 -0.471,-1.623 -1.255,-1.651 l 0,0 c -1.31,0.201 -3.217,1.108 -5.059,1.985 l 0,0 c -1.595,0.758 -3.244,1.542 -4.738,1.98 l 0,0 c -1.252,0.367 -2.575,-0.332 -2.978,-1.568 l 0,0 c -2.013,-6.175 -2.013,-11.446 0,-17.617 l 0,0 c 0.403,-1.241 1.728,-1.945 2.978,-1.568 l 0,0 c 1.491,0.437 3.136,1.216 4.723,1.975 l 0,0 c 1.849,0.874 3.759,1.784 4.704,1.955 l 0,0 c 1.154,0 1.625,-0.467 1.653,-1.251 l 0,0 c -0.202,-1.307 -1.112,-3.206 -1.991,-5.046 l 0,0 c -0.758,-1.593 -1.545,-3.235 -1.983,-4.723 l 0,0 c -0.367,-1.251 0.33,-2.567 1.572,-2.97 l 0,0 C 50.262,102.503 53.132,102 55.999,102 l 0,0 c 2.869,0 5.739,0.503 8.835,1.507 l 0,0 c 1.242,0.403 1.94,1.719 1.572,2.97 l 0,0 c -0.438,1.488 -1.224,3.136 -1.985,4.723 l 0,0 c -0.879,1.84 -1.789,3.739 -1.963,4.679 l 0,0 c 0,1.151 0.472,1.618 1.263,1.648 l 0,0 c 1.309,-0.201 3.219,-1.111 5.066,-1.985 l 0,0 c 1.587,-0.759 3.232,-1.538 4.723,-1.975 l 0,0 c 1.267,-0.361 2.578,0.322 2.978,1.568 l 0,0 c 2.016,6.171 2.016,11.442 0,17.617 l 0,0 c -0.4,1.236 -1.711,1.927 -2.978,1.568 l 0,0 c -1.493,-0.438 -3.143,-1.222 -4.738,-1.98 l 0,0 c -1.842,-0.877 -3.746,-1.784 -4.686,-1.957 l 0,0 c -1.156,0 -1.628,0.47 -1.655,1.256 l 0,0 c 0.201,1.304 1.111,3.206 1.987,5.042 l 0,0 c 0.762,1.59 1.55,3.234 1.988,4.726 l 0,0 c 0.366,1.247 -0.323,2.555 -1.556,2.965 l 0,0 C 61.582,145.457 58.791,146 56.001,146 l 0,0 c -2.791,0 -5.582,-0.543 -8.85,-1.628" /></g></g></g></g><g
       id="g248"><g
         clip-path="url(#clipPath252)"
         id="g250"><g
           transform="translate(57,143)"
           id="g256"><path
             id="path258"
             style="fill:#999999;fill-opacity:1;fill-rule:nonzero;stroke:none"
             d="m 0,0 c 0,-0.552 -0.448,-1 -1,-1 -0.552,0 -1,0.448 -1,1 0,0.552 0.448,1 1,1 0.552,0 1,-0.448 1,-1" /></g><g
           transform="translate(57,105)"
           id="g260"><path
             id="path262"
             style="fill:#999999;fill-opacity:1;fill-rule:nonzero;stroke:none"
             d="m 0,0 c 0,-0.552 -0.448,-1 -1,-1 -0.552,0 -1,0.448 -1,1 0,0.552 0.448,1 1,1 0.552,0 1,-0.448 1,-1" /></g><g
           transform="translate(75,123)"
           id="g264"><path
             id="path266"
             style="fill:#999999;fill-opacity:1;fill-rule:nonzero;stroke:none"
             d="M 0,0 C -0.552,0 -1,0.448 -1,1 -1,1.552 -0.552,2 0,2 0.552,2 1,1.552 1,1 1,0.448 0.552,0 0,0" /></g><g
           transform="translate(37,123)"
           id="g268"><path
             id="path270"
             style="fill:#999999;fill-opacity:1;fill-rule:nonzero;stroke:none"
             d="M 0,0 C -0.552,0 -1,0.448 -1,1 -1,1.552 -0.552,2 0,2 0.552,2 1,1.552 1,1 1,0.448 0.552,0 0,0" /></g></g></g></g></svg>