<?xml version="1.0" encoding="UTF-8" standalone="no"?>
<svg
   xmlns:dc="http://purl.org/dc/elements/1.1/"
   xmlns:cc="http://creativecommons.org/ns#"
   xmlns:rdf="http://www.w3.org/1999/02/22-rdf-syntax-ns#"
   xmlns:svg="http://www.w3.org/2000/svg"
   xmlns="http://www.w3.org/2000/svg"
   viewBox="0 0 320 320"
   height="320"
   width="320"
   xml:space="preserve"
   version="1.1"
   id="svg2"><metadata
     id="metadata8"><rdf:RDF><cc:Work
         rdf:about=""><dc:format>image/svg+xml</dc:format><dc:type
           rdf:resource="http://purl.org/dc/dcmitype/StillImage" /></cc:Work></rdf:RDF></metadata><defs
     id="defs6"><clipPath
       id="clipPath16"
       clipPathUnits="userSpaceOnUse"><path
         id="path18"
         d="m 59.4,244 c -4.087,0 -7.4,-3.344 -7.4,-7.469 l 0,0 0,-217.062 C 52,15.344 55.313,12 59.4,12 l 0,0 137.2,0 c 4.087,0 7.4,3.344 7.4,7.469 l 0,0 0,217.062 c 0,4.125 -3.313,7.469 -7.4,7.469 l 0,0 -137.2,0 z" /></clipPath><linearGradient
       id="linearGradient24"
       spreadMethod="pad"
       gradientTransform="matrix(187.64522,-187.64522,-187.64522,-187.64522,34.177383,221.82262)"
       gradientUnits="userSpaceOnUse"
       y2="0"
       x2="1"
       y1="0"
       x1="0"><stop
         id="stop26"
         offset="0"
         style="stop-opacity:1;stop-color:#e6e7e8" /><stop
         id="stop28"
         offset="1"
         style="stop-opacity:1;stop-color:#d1d3d4" /></linearGradient><clipPath
       id="clipPath36"
       clipPathUnits="userSpaceOnUse"><path
         id="path38"
         d="M 0,256 256,256 256,0 0,0 0,256 Z" /></clipPath><clipPath
       id="clipPath46"
       clipPathUnits="userSpaceOnUse"><path
         id="path48"
         d="m 107.23,240.258 0,-7.484 20.58,-7.483 20.581,7.483 0,7.484 -41.161,0 z" /></clipPath><linearGradient
       id="linearGradient54"
       spreadMethod="pad"
       gradientTransform="matrix(-24.32258,24.32258,24.32258,24.32258,139.9716,224.35484)"
       gradientUnits="userSpaceOnUse"
       y2="0"
       x2="1"
       y1="0"
       x1="0"><stop
         id="stop56"
         offset="0"
         style="stop-opacity:1;stop-color:#e6e7e8" /><stop
         id="stop58"
         offset="1"
         style="stop-opacity:1;stop-color:#d1d3d4" /></linearGradient><clipPath
       id="clipPath66"
       clipPathUnits="userSpaceOnUse"><path
         id="path68"
         d="M 0,256 256,256 256,0 0,0 0,256 Z" /></clipPath><clipPath
       id="clipPath78"
       clipPathUnits="userSpaceOnUse"><path
         id="path80"
         d="m 190,20 2,0 0,12.001 -2,0 L 190,20 Z" /></clipPath><linearGradient
       id="linearGradient86"
       spreadMethod="pad"
       gradientTransform="matrix(-6.9614458,7.2087879,7.2087879,6.9614458,194.48073,22.395607)"
       gradientUnits="userSpaceOnUse"
       y2="0"
       x2="1"
       y1="0"
       x1="0"><stop
         id="stop88"
         offset="0"
         style="stop-opacity:1;stop-color:#e6e7e8" /><stop
         id="stop90"
         offset="1"
         style="stop-opacity:1;stop-color:#d1d3d4" /></linearGradient><clipPath
       id="clipPath98"
       clipPathUnits="userSpaceOnUse"><path
         id="path100"
         d="m 186,20 2,0 0,8 -2,0 0,-8 z" /></clipPath><linearGradient
       id="linearGradient106"
       spreadMethod="pad"
       gradientTransform="matrix(-4.9626641,5.138989,5.138989,4.9626641,189.48134,21.430506)"
       gradientUnits="userSpaceOnUse"
       y2="0"
       x2="1"
       y1="0"
       x1="0"><stop
         id="stop108"
         offset="0"
         style="stop-opacity:1;stop-color:#e6e7e8" /><stop
         id="stop110"
         offset="1"
         style="stop-opacity:1;stop-color:#d1d3d4" /></linearGradient><clipPath
       id="clipPath118"
       clipPathUnits="userSpaceOnUse"><path
         id="path120"
         d="m 182,20 2,0 0,8 -2,0 0,-8 z" /></clipPath><linearGradient
       id="linearGradient126"
       spreadMethod="pad"
       gradientTransform="matrix(-4.9626641,5.138989,5.138989,4.9626641,185.48134,21.430506)"
       gradientUnits="userSpaceOnUse"
       y2="0"
       x2="1"
       y1="0"
       x1="0"><stop
         id="stop128"
         offset="0"
         style="stop-opacity:1;stop-color:#e6e7e8" /><stop
         id="stop130"
         offset="1"
         style="stop-opacity:1;stop-color:#d1d3d4" /></linearGradient><clipPath
       id="clipPath138"
       clipPathUnits="userSpaceOnUse"><path
         id="path140"
         d="m 178,20 2,0 0,8 -2,0 0,-8 z" /></clipPath><linearGradient
       id="linearGradient146"
       spreadMethod="pad"
       gradientTransform="matrix(-4.9626641,5.138989,5.138989,4.9626641,181.48134,21.430506)"
       gradientUnits="userSpaceOnUse"
       y2="0"
       x2="1"
       y1="0"
       x1="0"><stop
         id="stop148"
         offset="0"
         style="stop-opacity:1;stop-color:#e6e7e8" /><stop
         id="stop150"
         offset="1"
         style="stop-opacity:1;stop-color:#d1d3d4" /></linearGradient><clipPath
       id="clipPath158"
       clipPathUnits="userSpaceOnUse"><path
         id="path160"
         d="m 174,20 2.001,0 0,8 -2.001,0 0,-8 z" /></clipPath><linearGradient
       id="linearGradient166"
       spreadMethod="pad"
       gradientTransform="matrix(-4.9626641,5.138989,5.138989,4.9626641,177.48134,21.430506)"
       gradientUnits="userSpaceOnUse"
       y2="0"
       x2="1"
       y1="0"
       x1="0"><stop
         id="stop168"
         offset="0"
         style="stop-opacity:1;stop-color:#e6e7e8" /><stop
         id="stop170"
         offset="1"
         style="stop-opacity:1;stop-color:#d1d3d4" /></linearGradient><clipPath
       id="clipPath178"
       clipPathUnits="userSpaceOnUse"><path
         id="path180"
         d="m 170,20 2,0 0,8 -2,0 0,-8 z" /></clipPath><linearGradient
       id="linearGradient186"
       spreadMethod="pad"
       gradientTransform="matrix(-4.9626641,5.138989,5.138989,4.9626641,173.48134,21.430506)"
       gradientUnits="userSpaceOnUse"
       y2="0"
       x2="1"
       y1="0"
       x1="0"><stop
         id="stop188"
         offset="0"
         style="stop-opacity:1;stop-color:#e6e7e8" /><stop
         id="stop190"
         offset="1"
         style="stop-opacity:1;stop-color:#d1d3d4" /></linearGradient><clipPath
       id="clipPath198"
       clipPathUnits="userSpaceOnUse"><path
         id="path200"
         d="m 166,20 2.001,0 0,8 -2.001,0 0,-8 z" /></clipPath><linearGradient
       id="linearGradient206"
       spreadMethod="pad"
       gradientTransform="matrix(-4.9626641,5.138989,5.138989,4.9626641,169.48134,21.430506)"
       gradientUnits="userSpaceOnUse"
       y2="0"
       x2="1"
       y1="0"
       x1="0"><stop
         id="stop208"
         offset="0"
         style="stop-opacity:1;stop-color:#e6e7e8" /><stop
         id="stop210"
         offset="1"
         style="stop-opacity:1;stop-color:#d1d3d4" /></linearGradient><clipPath
       id="clipPath218"
       clipPathUnits="userSpaceOnUse"><path
         id="path220"
         d="m 162,20 2,0 0,8 -2,0 0,-8 z" /></clipPath><linearGradient
       id="linearGradient226"
       spreadMethod="pad"
       gradientTransform="matrix(-4.9626641,5.138989,5.138989,4.9626641,165.48134,21.430506)"
       gradientUnits="userSpaceOnUse"
       y2="0"
       x2="1"
       y1="0"
       x1="0"><stop
         id="stop228"
         offset="0"
         style="stop-opacity:1;stop-color:#e6e7e8" /><stop
         id="stop230"
         offset="1"
         style="stop-opacity:1;stop-color:#d1d3d4" /></linearGradient><clipPath
       id="clipPath238"
       clipPathUnits="userSpaceOnUse"><path
         id="path240"
         d="m 158,20 2,0 0,8 -2,0 0,-8 z" /></clipPath><linearGradient
       id="linearGradient246"
       spreadMethod="pad"
       gradientTransform="matrix(-4.9626641,5.138989,5.138989,4.9626641,161.48134,21.430506)"
       gradientUnits="userSpaceOnUse"
       y2="0"
       x2="1"
       y1="0"
       x1="0"><stop
         id="stop248"
         offset="0"
         style="stop-opacity:1;stop-color:#e6e7e8" /><stop
         id="stop250"
         offset="1"
         style="stop-opacity:1;stop-color:#d1d3d4" /></linearGradient><clipPath
       id="clipPath258"
       clipPathUnits="userSpaceOnUse"><path
         id="path260"
         d="m 154,20 2,0 0,8 -2,0 0,-8 z" /></clipPath><linearGradient
       id="linearGradient266"
       spreadMethod="pad"
       gradientTransform="matrix(-4.9626641,5.138989,5.138989,4.9626641,157.48134,21.430506)"
       gradientUnits="userSpaceOnUse"
       y2="0"
       x2="1"
       y1="0"
       x1="0"><stop
         id="stop268"
         offset="0"
         style="stop-opacity:1;stop-color:#e6e7e8" /><stop
         id="stop270"
         offset="1"
         style="stop-opacity:1;stop-color:#d1d3d4" /></linearGradient><clipPath
       id="clipPath278"
       clipPathUnits="userSpaceOnUse"><path
         id="path280"
         d="m 150,20 2,0 0,8 -2,0 0,-8 z" /></clipPath><linearGradient
       id="linearGradient286"
       spreadMethod="pad"
       gradientTransform="matrix(-4.9626641,5.138989,5.138989,4.9626641,153.48134,21.430506)"
       gradientUnits="userSpaceOnUse"
       y2="0"
       x2="1"
       y1="0"
       x1="0"><stop
         id="stop288"
         offset="0"
         style="stop-opacity:1;stop-color:#e6e7e8" /><stop
         id="stop290"
         offset="1"
         style="stop-opacity:1;stop-color:#d1d3d4" /></linearGradient><clipPath
       id="clipPath298"
       clipPathUnits="userSpaceOnUse"><path
         id="path300"
         d="m 146,20 2,0 0,8 -2,0 0,-8 z" /></clipPath><linearGradient
       id="linearGradient306"
       spreadMethod="pad"
       gradientTransform="matrix(-4.9626641,5.138989,5.138989,4.9626641,149.48134,21.430506)"
       gradientUnits="userSpaceOnUse"
       y2="0"
       x2="1"
       y1="0"
       x1="0"><stop
         id="stop308"
         offset="0"
         style="stop-opacity:1;stop-color:#e6e7e8" /><stop
         id="stop310"
         offset="1"
         style="stop-opacity:1;stop-color:#d1d3d4" /></linearGradient><clipPath
       id="clipPath318"
       clipPathUnits="userSpaceOnUse"><path
         id="path320"
         d="m 142,20 2,0 0,8 -2,0 0,-8 z" /></clipPath><linearGradient
       id="linearGradient326"
       spreadMethod="pad"
       gradientTransform="matrix(-4.9626641,5.138989,5.138989,4.9626641,145.48134,21.430506)"
       gradientUnits="userSpaceOnUse"
       y2="0"
       x2="1"
       y1="0"
       x1="0"><stop
         id="stop328"
         offset="0"
         style="stop-opacity:1;stop-color:#e6e7e8" /><stop
         id="stop330"
         offset="1"
         style="stop-opacity:1;stop-color:#d1d3d4" /></linearGradient><clipPath
       id="clipPath338"
       clipPathUnits="userSpaceOnUse"><path
         id="path340"
         d="m 138,20 2.001,0 0,8 -2.001,0 0,-8 z" /></clipPath><linearGradient
       id="linearGradient346"
       spreadMethod="pad"
       gradientTransform="matrix(-4.9626641,5.138989,5.138989,4.9626641,141.48134,21.430506)"
       gradientUnits="userSpaceOnUse"
       y2="0"
       x2="1"
       y1="0"
       x1="0"><stop
         id="stop348"
         offset="0"
         style="stop-opacity:1;stop-color:#e6e7e8" /><stop
         id="stop350"
         offset="1"
         style="stop-opacity:1;stop-color:#d1d3d4" /></linearGradient><clipPath
       id="clipPath358"
       clipPathUnits="userSpaceOnUse"><path
         id="path360"
         d="m 134,16 2,0 0,12 -2,0 0,-12 z" /></clipPath><linearGradient
       id="linearGradient366"
       spreadMethod="pad"
       gradientTransform="matrix(-6.9614458,7.2087879,7.2087879,6.9614458,138.48073,18.395607)"
       gradientUnits="userSpaceOnUse"
       y2="0"
       x2="1"
       y1="0"
       x1="0"><stop
         id="stop368"
         offset="0"
         style="stop-opacity:1;stop-color:#e6e7e8" /><stop
         id="stop370"
         offset="1"
         style="stop-opacity:1;stop-color:#d1d3d4" /></linearGradient><clipPath
       id="clipPath378"
       clipPathUnits="userSpaceOnUse"><path
         id="path380"
         d="m 130,20 2.001,0 0,8 -2.001,0 0,-8 z" /></clipPath><linearGradient
       id="linearGradient386"
       spreadMethod="pad"
       gradientTransform="matrix(-4.9626641,5.138989,5.138989,4.9626641,133.48134,21.430506)"
       gradientUnits="userSpaceOnUse"
       y2="0"
       x2="1"
       y1="0"
       x1="0"><stop
         id="stop388"
         offset="0"
         style="stop-opacity:1;stop-color:#e6e7e8" /><stop
         id="stop390"
         offset="1"
         style="stop-opacity:1;stop-color:#d1d3d4" /></linearGradient><clipPath
       id="clipPath398"
       clipPathUnits="userSpaceOnUse"><path
         id="path400"
         d="m 126,20 2,0 0,8 -2,0 0,-8 z" /></clipPath><linearGradient
       id="linearGradient406"
       spreadMethod="pad"
       gradientTransform="matrix(-4.9626641,5.138989,5.138989,4.9626641,129.48134,21.430506)"
       gradientUnits="userSpaceOnUse"
       y2="0"
       x2="1"
       y1="0"
       x1="0"><stop
         id="stop408"
         offset="0"
         style="stop-opacity:1;stop-color:#e6e7e8" /><stop
         id="stop410"
         offset="1"
         style="stop-opacity:1;stop-color:#d1d3d4" /></linearGradient><clipPath
       id="clipPath418"
       clipPathUnits="userSpaceOnUse"><path
         id="path420"
         d="m 122,20 2,0 0,8 -2,0 0,-8 z" /></clipPath><linearGradient
       id="linearGradient426"
       spreadMethod="pad"
       gradientTransform="matrix(-4.9626641,5.138989,5.138989,4.9626641,125.48133,21.430506)"
       gradientUnits="userSpaceOnUse"
       y2="0"
       x2="1"
       y1="0"
       x1="0"><stop
         id="stop428"
         offset="0"
         style="stop-opacity:1;stop-color:#e6e7e8" /><stop
         id="stop430"
         offset="1"
         style="stop-opacity:1;stop-color:#d1d3d4" /></linearGradient><clipPath
       id="clipPath438"
       clipPathUnits="userSpaceOnUse"><path
         id="path440"
         d="m 118,20 2,0 0,8 -2,0 0,-8 z" /></clipPath><linearGradient
       id="linearGradient446"
       spreadMethod="pad"
       gradientTransform="matrix(-4.9626641,5.138989,5.138989,4.9626641,121.48133,21.430506)"
       gradientUnits="userSpaceOnUse"
       y2="0"
       x2="1"
       y1="0"
       x1="0"><stop
         id="stop448"
         offset="0"
         style="stop-opacity:1;stop-color:#e6e7e8" /><stop
         id="stop450"
         offset="1"
         style="stop-opacity:1;stop-color:#d1d3d4" /></linearGradient><clipPath
       id="clipPath458"
       clipPathUnits="userSpaceOnUse"><path
         id="path460"
         d="m 114,20 2,0 0,8 -2,0 0,-8 z" /></clipPath><linearGradient
       id="linearGradient466"
       spreadMethod="pad"
       gradientTransform="matrix(-4.9626641,5.138989,5.138989,4.9626641,117.48133,21.430506)"
       gradientUnits="userSpaceOnUse"
       y2="0"
       x2="1"
       y1="0"
       x1="0"><stop
         id="stop468"
         offset="0"
         style="stop-opacity:1;stop-color:#e6e7e8" /><stop
         id="stop470"
         offset="1"
         style="stop-opacity:1;stop-color:#d1d3d4" /></linearGradient><clipPath
       id="clipPath478"
       clipPathUnits="userSpaceOnUse"><path
         id="path480"
         d="m 110,20 2,0 0,8 -2,0 0,-8 z" /></clipPath><linearGradient
       id="linearGradient486"
       spreadMethod="pad"
       gradientTransform="matrix(-4.9626641,5.138989,5.138989,4.9626641,113.48133,21.430506)"
       gradientUnits="userSpaceOnUse"
       y2="0"
       x2="1"
       y1="0"
       x1="0"><stop
         id="stop488"
         offset="0"
         style="stop-opacity:1;stop-color:#e6e7e8" /><stop
         id="stop490"
         offset="1"
         style="stop-opacity:1;stop-color:#d1d3d4" /></linearGradient><clipPath
       id="clipPath498"
       clipPathUnits="userSpaceOnUse"><path
         id="path500"
         d="m 106,20 2,0 0,8 -2,0 0,-8 z" /></clipPath><linearGradient
       id="linearGradient506"
       spreadMethod="pad"
       gradientTransform="matrix(-4.9626641,5.138989,5.138989,4.9626641,109.48133,21.430506)"
       gradientUnits="userSpaceOnUse"
       y2="0"
       x2="1"
       y1="0"
       x1="0"><stop
         id="stop508"
         offset="0"
         style="stop-opacity:1;stop-color:#e6e7e8" /><stop
         id="stop510"
         offset="1"
         style="stop-opacity:1;stop-color:#d1d3d4" /></linearGradient><clipPath
       id="clipPath518"
       clipPathUnits="userSpaceOnUse"><path
         id="path520"
         d="m 102,20 2.001,0 0,8 -2.001,0 0,-8 z" /></clipPath><linearGradient
       id="linearGradient526"
       spreadMethod="pad"
       gradientTransform="matrix(-4.9626641,5.138989,5.138989,4.9626641,105.48133,21.430506)"
       gradientUnits="userSpaceOnUse"
       y2="0"
       x2="1"
       y1="0"
       x1="0"><stop
         id="stop528"
         offset="0"
         style="stop-opacity:1;stop-color:#e6e7e8" /><stop
         id="stop530"
         offset="1"
         style="stop-opacity:1;stop-color:#d1d3d4" /></linearGradient><clipPath
       id="clipPath538"
       clipPathUnits="userSpaceOnUse"><path
         id="path540"
         d="m 98,20 2,0 0,8 -2,0 0,-8 z" /></clipPath><linearGradient
       id="linearGradient546"
       spreadMethod="pad"
       gradientTransform="matrix(-4.9626641,5.138989,5.138989,4.9626641,101.48133,21.430506)"
       gradientUnits="userSpaceOnUse"
       y2="0"
       x2="1"
       y1="0"
       x1="0"><stop
         id="stop548"
         offset="0"
         style="stop-opacity:1;stop-color:#e6e7e8" /><stop
         id="stop550"
         offset="1"
         style="stop-opacity:1;stop-color:#d1d3d4" /></linearGradient><clipPath
       id="clipPath558"
       clipPathUnits="userSpaceOnUse"><path
         id="path560"
         d="m 94,20 2.001,0 0,8 -2.001,0 0,-8 z" /></clipPath><linearGradient
       id="linearGradient566"
       spreadMethod="pad"
       gradientTransform="matrix(-4.9626641,5.138989,5.138989,4.9626641,97.481331,21.430506)"
       gradientUnits="userSpaceOnUse"
       y2="0"
       x2="1"
       y1="0"
       x1="0"><stop
         id="stop568"
         offset="0"
         style="stop-opacity:1;stop-color:#e6e7e8" /><stop
         id="stop570"
         offset="1"
         style="stop-opacity:1;stop-color:#d1d3d4" /></linearGradient><clipPath
       id="clipPath578"
       clipPathUnits="userSpaceOnUse"><path
         id="path580"
         d="m 90,20 2,0 0,8 -2,0 0,-8 z" /></clipPath><linearGradient
       id="linearGradient586"
       spreadMethod="pad"
       gradientTransform="matrix(-4.9626641,5.138989,5.138989,4.9626641,93.481331,21.430506)"
       gradientUnits="userSpaceOnUse"
       y2="0"
       x2="1"
       y1="0"
       x1="0"><stop
         id="stop588"
         offset="0"
         style="stop-opacity:1;stop-color:#e6e7e8" /><stop
         id="stop590"
         offset="1"
         style="stop-opacity:1;stop-color:#d1d3d4" /></linearGradient><clipPath
       id="clipPath598"
       clipPathUnits="userSpaceOnUse"><path
         id="path600"
         d="m 86,20 2,0 0,8 -2,0 0,-8 z" /></clipPath><linearGradient
       id="linearGradient606"
       spreadMethod="pad"
       gradientTransform="matrix(-4.9626641,5.138989,5.138989,4.9626641,89.481331,21.430506)"
       gradientUnits="userSpaceOnUse"
       y2="0"
       x2="1"
       y1="0"
       x1="0"><stop
         id="stop608"
         offset="0"
         style="stop-opacity:1;stop-color:#e6e7e8" /><stop
         id="stop610"
         offset="1"
         style="stop-opacity:1;stop-color:#d1d3d4" /></linearGradient><clipPath
       id="clipPath618"
       clipPathUnits="userSpaceOnUse"><path
         id="path620"
         d="m 82,20 2,0 0,8 -2,0 0,-8 z" /></clipPath><linearGradient
       id="linearGradient626"
       spreadMethod="pad"
       gradientTransform="matrix(-4.9626641,5.138989,5.138989,4.9626641,85.481331,21.430506)"
       gradientUnits="userSpaceOnUse"
       y2="0"
       x2="1"
       y1="0"
       x1="0"><stop
         id="stop628"
         offset="0"
         style="stop-opacity:1;stop-color:#e6e7e8" /><stop
         id="stop630"
         offset="1"
         style="stop-opacity:1;stop-color:#d1d3d4" /></linearGradient><clipPath
       id="clipPath638"
       clipPathUnits="userSpaceOnUse"><path
         id="path640"
         d="m 78,20 2,0 0,8 -2,0 0,-8 z" /></clipPath><linearGradient
       id="linearGradient646"
       spreadMethod="pad"
       gradientTransform="matrix(-4.9626641,5.138989,5.138989,4.9626641,81.481331,21.430506)"
       gradientUnits="userSpaceOnUse"
       y2="0"
       x2="1"
       y1="0"
       x1="0"><stop
         id="stop648"
         offset="0"
         style="stop-opacity:1;stop-color:#e6e7e8" /><stop
         id="stop650"
         offset="1"
         style="stop-opacity:1;stop-color:#d1d3d4" /></linearGradient><clipPath
       id="clipPath658"
       clipPathUnits="userSpaceOnUse"><path
         id="path660"
         d="m 74,20 2,0 0,8 -2,0 0,-8 z" /></clipPath><linearGradient
       id="linearGradient666"
       spreadMethod="pad"
       gradientTransform="matrix(-4.9626641,5.138989,5.138989,4.9626641,77.481331,21.430506)"
       gradientUnits="userSpaceOnUse"
       y2="0"
       x2="1"
       y1="0"
       x1="0"><stop
         id="stop668"
         offset="0"
         style="stop-opacity:1;stop-color:#e6e7e8" /><stop
         id="stop670"
         offset="1"
         style="stop-opacity:1;stop-color:#d1d3d4" /></linearGradient><clipPath
       id="clipPath678"
       clipPathUnits="userSpaceOnUse"><path
         id="path680"
         d="m 70,20 2,0 0,8 -2,0 0,-8 z" /></clipPath><linearGradient
       id="linearGradient686"
       spreadMethod="pad"
       gradientTransform="matrix(-4.9626641,5.138989,5.138989,4.9626641,73.481331,21.430506)"
       gradientUnits="userSpaceOnUse"
       y2="0"
       x2="1"
       y1="0"
       x1="0"><stop
         id="stop688"
         offset="0"
         style="stop-opacity:1;stop-color:#e6e7e8" /><stop
         id="stop690"
         offset="1"
         style="stop-opacity:1;stop-color:#d1d3d4" /></linearGradient><clipPath
       id="clipPath698"
       clipPathUnits="userSpaceOnUse"><path
         id="path700"
         d="m 66,16 2.001,0 0,12 L 66,28 66,16 Z" /></clipPath><linearGradient
       id="linearGradient706"
       spreadMethod="pad"
       gradientTransform="matrix(-6.9614458,7.2087879,7.2087879,6.9614458,70.480721,18.395607)"
       gradientUnits="userSpaceOnUse"
       y2="0"
       x2="1"
       y1="0"
       x1="0"><stop
         id="stop708"
         offset="0"
         style="stop-opacity:1;stop-color:#e6e7e8" /><stop
         id="stop710"
         offset="1"
         style="stop-opacity:1;stop-color:#d1d3d4" /></linearGradient></defs><g
     transform="matrix(1.25,0,0,-1.25,0,320)"
     id="g10"><g
       id="g12"><g
         clip-path="url(#clipPath16)"
         id="g14"><g
           id="g20"><g
             id="g22"><path
               id="path30"
               style="fill:url(#linearGradient24);stroke:none"
               d="m 59.4,244 c -4.087,0 -7.4,-3.344 -7.4,-7.469 l 0,0 0,-217.062 C 52,15.344 55.313,12 59.4,12 l 0,0 137.2,0 c 4.087,0 7.4,3.344 7.4,7.469 l 0,0 0,217.062 c 0,4.125 -3.313,7.469 -7.4,7.469 l 0,0 -137.2,0 z" /></g></g></g></g><g
       id="g32"><g
         clip-path="url(#clipPath36)"
         id="g34"><path
           id="path40"
           style="fill:#ffffff;fill-opacity:1;fill-rule:nonzero;stroke:none"
           d="m 196,108 -136,0 0,112 136,0 0,-112 z" /></g></g><g
       id="g42"><g
         clip-path="url(#clipPath46)"
         id="g44"><g
           id="g50"><g
             id="g52"><path
               id="path60"
               style="fill:url(#linearGradient54);stroke:none"
               d="m 107.23,240.258 0,-7.484 20.58,-7.483 20.581,7.483 0,7.484 -41.161,0 z" /></g></g></g></g><g
       id="g62"><g
         clip-path="url(#clipPath66)"
         id="g64"><g
           transform="translate(196,16)"
           id="g70"><path
             id="path72"
             style="fill:#999999;fill-opacity:1;fill-rule:nonzero;stroke:none"
             d="m 0,0 -136,0 0,76.364 c 0,4.217 3.291,7.636 7.351,7.636 L -7.351,84 C -3.291,84 0,80.581 0,76.364 L 0,0 Z" /></g></g></g><g
       id="g74"><g
         clip-path="url(#clipPath78)"
         id="g76"><g
           id="g82"><g
             id="g84"><path
               id="path92"
               style="fill:url(#linearGradient86);stroke:none"
               d="m 190,20 2,0 0,12.001 -2,0 L 190,20 Z" /></g></g></g></g><g
       id="g94"><g
         clip-path="url(#clipPath98)"
         id="g96"><g
           id="g102"><g
             id="g104"><path
               id="path112"
               style="fill:url(#linearGradient106);stroke:none"
               d="m 186,20 2,0 0,8 -2,0 0,-8 z" /></g></g></g></g><g
       id="g114"><g
         clip-path="url(#clipPath118)"
         id="g116"><g
           id="g122"><g
             id="g124"><path
               id="path132"
               style="fill:url(#linearGradient126);stroke:none"
               d="m 182,20 2,0 0,8 -2,0 0,-8 z" /></g></g></g></g><g
       id="g134"><g
         clip-path="url(#clipPath138)"
         id="g136"><g
           id="g142"><g
             id="g144"><path
               id="path152"
               style="fill:url(#linearGradient146);stroke:none"
               d="m 178,20 2,0 0,8 -2,0 0,-8 z" /></g></g></g></g><g
       id="g154"><g
         clip-path="url(#clipPath158)"
         id="g156"><g
           id="g162"><g
             id="g164"><path
               id="path172"
               style="fill:url(#linearGradient166);stroke:none"
               d="m 174,20 2.001,0 0,8 -2.001,0 0,-8 z" /></g></g></g></g><g
       id="g174"><g
         clip-path="url(#clipPath178)"
         id="g176"><g
           id="g182"><g
             id="g184"><path
               id="path192"
               style="fill:url(#linearGradient186);stroke:none"
               d="m 170,20 2,0 0,8 -2,0 0,-8 z" /></g></g></g></g><g
       id="g194"><g
         clip-path="url(#clipPath198)"
         id="g196"><g
           id="g202"><g
             id="g204"><path
               id="path212"
               style="fill:url(#linearGradient206);stroke:none"
               d="m 166,20 2.001,0 0,8 -2.001,0 0,-8 z" /></g></g></g></g><g
       id="g214"><g
         clip-path="url(#clipPath218)"
         id="g216"><g
           id="g222"><g
             id="g224"><path
               id="path232"
               style="fill:url(#linearGradient226);stroke:none"
               d="m 162,20 2,0 0,8 -2,0 0,-8 z" /></g></g></g></g><g
       id="g234"><g
         clip-path="url(#clipPath238)"
         id="g236"><g
           id="g242"><g
             id="g244"><path
               id="path252"
               style="fill:url(#linearGradient246);stroke:none"
               d="m 158,20 2,0 0,8 -2,0 0,-8 z" /></g></g></g></g><g
       id="g254"><g
         clip-path="url(#clipPath258)"
         id="g256"><g
           id="g262"><g
             id="g264"><path
               id="path272"
               style="fill:url(#linearGradient266);stroke:none"
               d="m 154,20 2,0 0,8 -2,0 0,-8 z" /></g></g></g></g><g
       id="g274"><g
         clip-path="url(#clipPath278)"
         id="g276"><g
           id="g282"><g
             id="g284"><path
               id="path292"
               style="fill:url(#linearGradient286);stroke:none"
               d="m 150,20 2,0 0,8 -2,0 0,-8 z" /></g></g></g></g><g
       id="g294"><g
         clip-path="url(#clipPath298)"
         id="g296"><g
           id="g302"><g
             id="g304"><path
               id="path312"
               style="fill:url(#linearGradient306);stroke:none"
               d="m 146,20 2,0 0,8 -2,0 0,-8 z" /></g></g></g></g><g
       id="g314"><g
         clip-path="url(#clipPath318)"
         id="g316"><g
           id="g322"><g
             id="g324"><path
               id="path332"
               style="fill:url(#linearGradient326);stroke:none"
               d="m 142,20 2,0 0,8 -2,0 0,-8 z" /></g></g></g></g><g
       id="g334"><g
         clip-path="url(#clipPath338)"
         id="g336"><g
           id="g342"><g
             id="g344"><path
               id="path352"
               style="fill:url(#linearGradient346);stroke:none"
               d="m 138,20 2.001,0 0,8 -2.001,0 0,-8 z" /></g></g></g></g><g
       id="g354"><g
         clip-path="url(#clipPath358)"
         id="g356"><g
           id="g362"><g
             id="g364"><path
               id="path372"
               style="fill:url(#linearGradient366);stroke:none"
               d="m 134,16 2,0 0,12 -2,0 0,-12 z" /></g></g></g></g><g
       id="g374"><g
         clip-path="url(#clipPath378)"
         id="g376"><g
           id="g382"><g
             id="g384"><path
               id="path392"
               style="fill:url(#linearGradient386);stroke:none"
               d="m 130,20 2.001,0 0,8 -2.001,0 0,-8 z" /></g></g></g></g><g
       id="g394"><g
         clip-path="url(#clipPath398)"
         id="g396"><g
           id="g402"><g
             id="g404"><path
               id="path412"
               style="fill:url(#linearGradient406);stroke:none"
               d="m 126,20 2,0 0,8 -2,0 0,-8 z" /></g></g></g></g><g
       id="g414"><g
         clip-path="url(#clipPath418)"
         id="g416"><g
           id="g422"><g
             id="g424"><path
               id="path432"
               style="fill:url(#linearGradient426);stroke:none"
               d="m 122,20 2,0 0,8 -2,0 0,-8 z" /></g></g></g></g><g
       id="g434"><g
         clip-path="url(#clipPath438)"
         id="g436"><g
           id="g442"><g
             id="g444"><path
               id="path452"
               style="fill:url(#linearGradient446);stroke:none"
               d="m 118,20 2,0 0,8 -2,0 0,-8 z" /></g></g></g></g><g
       id="g454"><g
         clip-path="url(#clipPath458)"
         id="g456"><g
           id="g462"><g
             id="g464"><path
               id="path472"
               style="fill:url(#linearGradient466);stroke:none"
               d="m 114,20 2,0 0,8 -2,0 0,-8 z" /></g></g></g></g><g
       id="g474"><g
         clip-path="url(#clipPath478)"
         id="g476"><g
           id="g482"><g
             id="g484"><path
               id="path492"
               style="fill:url(#linearGradient486);stroke:none"
               d="m 110,20 2,0 0,8 -2,0 0,-8 z" /></g></g></g></g><g
       id="g494"><g
         clip-path="url(#clipPath498)"
         id="g496"><g
           id="g502"><g
             id="g504"><path
               id="path512"
               style="fill:url(#linearGradient506);stroke:none"
               d="m 106,20 2,0 0,8 -2,0 0,-8 z" /></g></g></g></g><g
       id="g514"><g
         clip-path="url(#clipPath518)"
         id="g516"><g
           id="g522"><g
             id="g524"><path
               id="path532"
               style="fill:url(#linearGradient526);stroke:none"
               d="m 102,20 2.001,0 0,8 -2.001,0 0,-8 z" /></g></g></g></g><g
       id="g534"><g
         clip-path="url(#clipPath538)"
         id="g536"><g
           id="g542"><g
             id="g544"><path
               id="path552"
               style="fill:url(#linearGradient546);stroke:none"
               d="m 98,20 2,0 0,8 -2,0 0,-8 z" /></g></g></g></g><g
       id="g554"><g
         clip-path="url(#clipPath558)"
         id="g556"><g
           id="g562"><g
             id="g564"><path
               id="path572"
               style="fill:url(#linearGradient566);stroke:none"
               d="m 94,20 2.001,0 0,8 -2.001,0 0,-8 z" /></g></g></g></g><g
       id="g574"><g
         clip-path="url(#clipPath578)"
         id="g576"><g
           id="g582"><g
             id="g584"><path
               id="path592"
               style="fill:url(#linearGradient586);stroke:none"
               d="m 90,20 2,0 0,8 -2,0 0,-8 z" /></g></g></g></g><g
       id="g594"><g
         clip-path="url(#clipPath598)"
         id="g596"><g
           id="g602"><g
             id="g604"><path
               id="path612"
               style="fill:url(#linearGradient606);stroke:none"
               d="m 86,20 2,0 0,8 -2,0 0,-8 z" /></g></g></g></g><g
       id="g614"><g
         clip-path="url(#clipPath618)"
         id="g616"><g
           id="g622"><g
             id="g624"><path
               id="path632"
               style="fill:url(#linearGradient626);stroke:none"
               d="m 82,20 2,0 0,8 -2,0 0,-8 z" /></g></g></g></g><g
       id="g634"><g
         clip-path="url(#clipPath638)"
         id="g636"><g
           id="g642"><g
             id="g644"><path
               id="path652"
               style="fill:url(#linearGradient646);stroke:none"
               d="m 78,20 2,0 0,8 -2,0 0,-8 z" /></g></g></g></g><g
       id="g654"><g
         clip-path="url(#clipPath658)"
         id="g656"><g
           id="g662"><g
             id="g664"><path
               id="path672"
               style="fill:url(#linearGradient666);stroke:none"
               d="m 74,20 2,0 0,8 -2,0 0,-8 z" /></g></g></g></g><g
       id="g674"><g
         clip-path="url(#clipPath678)"
         id="g676"><g
           id="g682"><g
             id="g684"><path
               id="path692"
               style="fill:url(#linearGradient686);stroke:none"
               d="m 70,20 2,0 0,8 -2,0 0,-8 z" /></g></g></g></g><g
       id="g694"><g
         clip-path="url(#clipPath698)"
         id="g696"><g
           id="g702"><g
             id="g704"><path
               id="path712"
               style="fill:url(#linearGradient706);stroke:none"
               d="m 66,16 2.001,0 0,12 L 66,28 66,16 Z" /></g></g></g></g></g></svg>