<?xml version="1.0" encoding="UTF-8" standalone="no"?>
<svg
   xmlns:dc="http://purl.org/dc/elements/1.1/"
   xmlns:cc="http://creativecommons.org/ns#"
   xmlns:rdf="http://www.w3.org/1999/02/22-rdf-syntax-ns#"
   xmlns:svg="http://www.w3.org/2000/svg"
   xmlns="http://www.w3.org/2000/svg"
   viewBox="0 0 320 320"
   height="320"
   width="320"
   xml:space="preserve"
   version="1.1"
   id="svg2"><metadata
     id="metadata8"><rdf:RDF><cc:Work
         rdf:about=""><dc:format>image/svg+xml</dc:format><dc:type
           rdf:resource="http://purl.org/dc/dcmitype/StillImage" /></cc:Work></rdf:RDF></metadata><defs
     id="defs6"><clipPath
       id="clipPath16"
       clipPathUnits="userSpaceOnUse"><path
         id="path18"
         d="m 95.371,176 c -0.299,0 -0.597,-0.021 -0.893,-0.064 l 0,0 -77.017,-10.943 C 14.328,164.548 12,161.866 12,158.701 l 0,0 0,-76.346 C 12,78.845 14.846,76 18.355,76 l 0,0 219.29,0 c 3.51,0 6.355,2.845 6.355,6.355 l 0,0 0,76.337 c 0,3.169 -2.333,5.853 -5.47,6.294 l 0,0 -77.918,10.952 c -0.293,0.042 -0.588,0.062 -0.885,0.062 l 0,0 -64.356,0 z" /></clipPath><linearGradient
       id="linearGradient24"
       spreadMethod="pad"
       gradientTransform="matrix(156.80569,-156.80569,-156.80569,-156.80569,49.595051,198.92912)"
       gradientUnits="userSpaceOnUse"
       y2="0"
       x2="1"
       y1="0"
       x1="0"><stop
         id="stop26"
         offset="0"
         style="stop-opacity:1;stop-color:#e6e7e8" /><stop
         id="stop28"
         offset="1"
         style="stop-opacity:1;stop-color:#d1d3d4" /></linearGradient><clipPath
       id="clipPath36"
       clipPathUnits="userSpaceOnUse"><path
         id="path38"
         d="m 175.371,160 c -2.99,0 -5.416,-2.43 -5.416,-5.427 l 0,0 0,-2.26 c 0,-24.316 -20.115,-44.122 -44.358,-42.987 l 0,0 c -22.456,1.05 -40.341,19.624 -40.341,42.383 l 0,0 0,3.769 c 0,2.497 -2.02,4.522 -4.513,4.522 l 0,0 -42.948,0 C 34.594,160 32,157.401 32,154.194 l 0,0 0,-21.331 c 0,-1.989 2.133,-3.218 3.867,-2.249 l 0,0 c 3.867,2.164 8.382,3.303 13.183,3.048 l 0,0 c 12.811,-0.683 22.999,-11.446 23.043,-24.3 l 0,0 C 72.122,100.717 67.662,93.118 60.921,88.756 l 0,0 c -0.494,-2.129 -0.148,-4.725 4.477,-4.725 l 0,0 115.204,0 C 180.915,84.012 181.23,84 181.548,84 l 0,0 30.74,0 c 0.318,0 0.633,0.012 0.946,0.031 l 0,0 c 0,0 4.004,0.488 5.038,1.154 l 0,0 C 223.98,87.543 228,93.172 228,99.743 l 0,0 c 0,4.247 -1.682,8.099 -4.412,10.931 l 0,0 0,43.52 c 0,3.207 -2.594,5.806 -5.794,5.806 l 0,0 -42.423,0 z" /></clipPath><linearGradient
       id="linearGradient44"
       spreadMethod="pad"
       gradientTransform="matrix(-129.69344,129.69344,129.69344,129.69344,199.12932,64.34475)"
       gradientUnits="userSpaceOnUse"
       y2="0"
       x2="1"
       y1="0"
       x1="0"><stop
         id="stop46"
         offset="0"
         style="stop-opacity:1;stop-color:#e6e7e8" /><stop
         id="stop48"
         offset="1"
         style="stop-opacity:1;stop-color:#d1d3d4" /></linearGradient><clipPath
       id="clipPath56"
       clipPathUnits="userSpaceOnUse"><path
         id="path58"
         d="M 0,256 256,256 256,0 0,0 0,256 Z" /></clipPath><clipPath
       id="clipPath70"
       clipPathUnits="userSpaceOnUse"><path
         id="path72"
         d="M 96.523,180 C 95.129,180 94,178.876 94,177.49 l 0,0 0,-27.662 C 94,131.145 109.222,116 128,116 l 0,0 c 18.777,0 34,15.145 34,33.828 l 0,0 0,27.662 c 0,1.386 -1.13,2.51 -2.523,2.51 l 0,0 -62.954,0 z" /></clipPath><linearGradient
       id="linearGradient78"
       spreadMethod="pad"
       gradientTransform="matrix(-55.329761,55.329761,55.329761,55.329761,155.66487,129.53125)"
       gradientUnits="userSpaceOnUse"
       y2="0"
       x2="1"
       y1="0"
       x1="0"><stop
         id="stop80"
         offset="0"
         style="stop-opacity:1;stop-color:#e6e7e8" /><stop
         id="stop82"
         offset="1"
         style="stop-opacity:1;stop-color:#d1d3d4" /></linearGradient><clipPath
       id="clipPath90"
       clipPathUnits="userSpaceOnUse"><path
         id="path92"
         d="M 26,109 C 26,96.85 35.85,87 48,87 l 0,0 c 12.151,0 22,9.85 22,22 l 0,0 c 0,12.15 -9.849,22 -22,22 l 0,0 c -12.15,0 -22,-9.85 -22,-22" /></clipPath><linearGradient
       id="linearGradient98"
       spreadMethod="pad"
       gradientTransform="matrix(31.112698,-31.112698,-31.112698,-31.112698,32.443649,124.55635)"
       gradientUnits="userSpaceOnUse"
       y2="0"
       x2="1"
       y1="0"
       x1="0"><stop
         id="stop100"
         offset="0"
         style="stop-opacity:1;stop-color:#e6e7e8" /><stop
         id="stop102"
         offset="1"
         style="stop-opacity:1;stop-color:#d1d3d4" /></linearGradient><clipPath
       id="clipPath110"
       clipPathUnits="userSpaceOnUse"><path
         id="path112"
         d="M 0,256 256,256 256,0 0,0 0,256 Z" /></clipPath><clipPath
       id="clipPath122"
       clipPathUnits="userSpaceOnUse"><path
         id="path124"
         d="m 43.106,128.395 0,-14.502 -14.5,0 C 28.211,112.327 28,110.688 28,109 l 0,0 c 0,-1.688 0.211,-3.327 0.606,-4.893 l 0,0 14.5,0 0,-14.501 C 44.672,89.212 46.311,89 48,89 l 0,0 c 1.689,0 3.327,0.212 4.894,0.606 l 0,0 0,14.501 14.501,0 C 67.789,105.673 68,107.312 68,109 l 0,0 c 0,1.688 -0.211,3.327 -0.605,4.893 l 0,0 -14.501,0 0,14.502 C 51.327,128.788 49.689,129 48,129 l 0,0 c -1.689,0 -3.328,-0.212 -4.894,-0.605" /></clipPath><linearGradient
       id="linearGradient130"
       spreadMethod="pad"
       gradientTransform="matrix(-24.28812,24.28812,24.28812,24.28812,60.144062,96.855942)"
       gradientUnits="userSpaceOnUse"
       y2="0"
       x2="1"
       y1="0"
       x1="0"><stop
         id="stop132"
         offset="0"
         style="stop-opacity:1;stop-color:#e6e7e8" /><stop
         id="stop134"
         offset="1"
         style="stop-opacity:1;stop-color:#d1d3d4" /></linearGradient><clipPath
       id="clipPath142"
       clipPathUnits="userSpaceOnUse"><path
         id="path144"
         d="m 43,109 c 0,-2.761 2.238,-5 5,-5 l 0,0 c 2.762,0 5,2.239 5,5 l 0,0 c 0,2.761 -2.238,5 -5,5 l 0,0 c -2.762,0 -5,-2.239 -5,-5" /></clipPath><linearGradient
       id="linearGradient150"
       spreadMethod="pad"
       gradientTransform="matrix(7.0710678,-7.0710678,-7.0710678,-7.0710678,44.464466,112.53554)"
       gradientUnits="userSpaceOnUse"
       y2="0"
       x2="1"
       y1="0"
       x1="0"><stop
         id="stop152"
         offset="0"
         style="stop-opacity:1;stop-color:#e6e7e8" /><stop
         id="stop154"
         offset="1"
         style="stop-opacity:1;stop-color:#d1d3d4" /></linearGradient><clipPath
       id="clipPath162"
       clipPathUnits="userSpaceOnUse"><path
         id="path164"
         d="m 173.931,100 c 0,-5.561 4.508,-10.068 10.069,-10.068 l 0,0 c 5.561,0 10.069,4.507 10.069,10.068 l 0,0 c 0,5.561 -4.508,10.069 -10.069,10.069 l 0,0 c -5.561,0 -10.069,-4.508 -10.069,-10.069" /></clipPath><linearGradient
       id="linearGradient170"
       spreadMethod="pad"
       gradientTransform="matrix(14.239398,-14.239398,-14.239398,-14.239398,176.88031,107.11971)"
       gradientUnits="userSpaceOnUse"
       y2="0"
       x2="1"
       y1="0"
       x1="0"><stop
         id="stop172"
         offset="0"
         style="stop-opacity:1;stop-color:#e6e7e8" /><stop
         id="stop174"
         offset="1"
         style="stop-opacity:1;stop-color:#d1d3d4" /></linearGradient><clipPath
       id="clipPath182"
       clipPathUnits="userSpaceOnUse"><path
         id="path184"
         d="m 174,100 c 0,-5.522 4.477,-10 10,-10 l 0,0 c 5.523,0 10,4.478 10,10 l 0,0 c 0,5.523 -4.477,10 -10,10 l 0,0 c -5.523,0 -10,-4.477 -10,-10 m 1.387,0 c 0,4.749 3.864,8.613 8.613,8.613 l 0,0 c 4.749,0 8.613,-3.864 8.613,-8.613 l 0,0 c 0,-4.749 -3.864,-8.613 -8.613,-8.613 l 0,0 c -4.749,0 -8.613,3.864 -8.613,8.613" /></clipPath><linearGradient
       id="linearGradient190"
       spreadMethod="pad"
       gradientTransform="matrix(-14.142133,14.142133,14.142133,14.142133,191.07108,92.928932)"
       gradientUnits="userSpaceOnUse"
       y2="0"
       x2="1"
       y1="0"
       x1="0"><stop
         id="stop192"
         offset="0"
         style="stop-opacity:1;stop-color:#e6e7e8" /><stop
         id="stop194"
         offset="1"
         style="stop-opacity:1;stop-color:#d1d3d4" /></linearGradient><clipPath
       id="clipPath202"
       clipPathUnits="userSpaceOnUse"><path
         id="path204"
         d="M 0,256 256,256 256,0 0,0 0,256 Z" /></clipPath><clipPath
       id="clipPath214"
       clipPathUnits="userSpaceOnUse"><path
         id="path216"
         d="m 201.931,100 c 0,-5.561 4.508,-10.068 10.069,-10.068 l 0,0 c 5.561,0 10.069,4.507 10.069,10.068 l 0,0 c 0,5.561 -4.508,10.069 -10.069,10.069 l 0,0 c -5.561,0 -10.069,-4.508 -10.069,-10.069" /></clipPath><linearGradient
       id="linearGradient222"
       spreadMethod="pad"
       gradientTransform="matrix(14.239398,-14.239398,-14.239398,-14.239398,204.88031,107.11971)"
       gradientUnits="userSpaceOnUse"
       y2="0"
       x2="1"
       y1="0"
       x1="0"><stop
         id="stop224"
         offset="0"
         style="stop-opacity:1;stop-color:#e6e7e8" /><stop
         id="stop226"
         offset="1"
         style="stop-opacity:1;stop-color:#d1d3d4" /></linearGradient><clipPath
       id="clipPath234"
       clipPathUnits="userSpaceOnUse"><path
         id="path236"
         d="m 202,100 c 0,-5.522 4.477,-10 10,-10 l 0,0 c 5.523,0 10,4.478 10,10 l 0,0 c 0,5.523 -4.477,10 -10,10 l 0,0 c -5.523,0 -10,-4.477 -10,-10 m 1.387,0 c 0,4.749 3.864,8.613 8.613,8.613 l 0,0 c 4.749,0 8.613,-3.864 8.613,-8.613 l 0,0 c 0,-4.749 -3.864,-8.613 -8.613,-8.613 l 0,0 c -4.749,0 -8.613,3.864 -8.613,8.613" /></clipPath><linearGradient
       id="linearGradient242"
       spreadMethod="pad"
       gradientTransform="matrix(-14.142133,14.142133,14.142133,14.142133,219.07108,92.928932)"
       gradientUnits="userSpaceOnUse"
       y2="0"
       x2="1"
       y1="0"
       x1="0"><stop
         id="stop244"
         offset="0"
         style="stop-opacity:1;stop-color:#e6e7e8" /><stop
         id="stop246"
         offset="1"
         style="stop-opacity:1;stop-color:#d1d3d4" /></linearGradient><clipPath
       id="clipPath254"
       clipPathUnits="userSpaceOnUse"><path
         id="path256"
         d="M 0,256 256,256 256,0 0,0 0,256 Z" /></clipPath><clipPath
       id="clipPath266"
       clipPathUnits="userSpaceOnUse"><path
         id="path268"
         d="m 104.531,102.758 c -1.726,0 -3.124,-1.234 -3.124,-2.758 l 0,0 c 0,-1.524 1.398,-2.759 3.124,-2.759 l 0,0 10.938,0 c 1.725,0 3.125,1.235 3.125,2.759 l 0,0 c 0,1.524 -1.4,2.758 -3.125,2.758 l 0,0 -10.938,0 z" /></clipPath><linearGradient
       id="linearGradient274"
       spreadMethod="pad"
       gradientTransform="matrix(-9.6372061,9.6372061,9.6372061,9.6372061,114.8186,95.181396)"
       gradientUnits="userSpaceOnUse"
       y2="0"
       x2="1"
       y1="0"
       x1="0"><stop
         id="stop276"
         offset="0"
         style="stop-opacity:1;stop-color:#e6e7e8" /><stop
         id="stop278"
         offset="1"
         style="stop-opacity:1;stop-color:#d1d3d4" /></linearGradient><clipPath
       id="clipPath286"
       clipPathUnits="userSpaceOnUse"><path
         id="path288"
         d="M 0,256 256,256 256,0 0,0 0,256 Z" /></clipPath><clipPath
       id="clipPath298"
       clipPathUnits="userSpaceOnUse"><path
         id="path300"
         d="m 132.531,102.758 c -1.726,0 -3.125,-1.234 -3.125,-2.758 l 0,0 c 0,-1.524 1.399,-2.759 3.125,-2.759 l 0,0 10.938,0 c 1.725,0 3.125,1.235 3.125,2.759 l 0,0 c 0,1.524 -1.4,2.758 -3.125,2.758 l 0,0 -10.938,0 z" /></clipPath><linearGradient
       id="linearGradient306"
       spreadMethod="pad"
       gradientTransform="matrix(-9.6372061,9.6372061,9.6372061,9.6372061,142.8186,95.181396)"
       gradientUnits="userSpaceOnUse"
       y2="0"
       x2="1"
       y1="0"
       x1="0"><stop
         id="stop308"
         offset="0"
         style="stop-opacity:1;stop-color:#e6e7e8" /><stop
         id="stop310"
         offset="1"
         style="stop-opacity:1;stop-color:#d1d3d4" /></linearGradient><clipPath
       id="clipPath318"
       clipPathUnits="userSpaceOnUse"><path
         id="path320"
         d="M 0,256 256,256 256,0 0,0 0,256 Z" /></clipPath><clipPath
       id="clipPath334"
       clipPathUnits="userSpaceOnUse"><path
         id="path336"
         d="m 208,136 c 0,-2.209 1.791,-4 4,-4 l 0,0 c 2.209,0 4,1.791 4,4 l 0,0 c 0,2.209 -1.791,4 -4,4 l 0,0 c -2.209,0 -4,-1.791 -4,-4" /></clipPath><linearGradient
       id="linearGradient342"
       spreadMethod="pad"
       gradientTransform="matrix(5.6568542,-5.6568542,-5.6568542,-5.6568542,209.17157,138.82843)"
       gradientUnits="userSpaceOnUse"
       y2="0"
       x2="1"
       y1="0"
       x1="0"><stop
         id="stop344"
         offset="0"
         style="stop-opacity:1;stop-color:#e6e7e8" /><stop
         id="stop346"
         offset="1"
         style="stop-opacity:1;stop-color:#d1d3d4" /></linearGradient><clipPath
       id="clipPath354"
       clipPathUnits="userSpaceOnUse"><path
         id="path356"
         d="M 0,256 256,256 256,0 0,0 0,256 Z" /></clipPath><clipPath
       id="clipPath366"
       clipPathUnits="userSpaceOnUse"><path
         id="path368"
         d="m 180,136 c 0,-2.209 1.791,-4 4,-4 l 0,0 c 2.209,0 4,1.791 4,4 l 0,0 c 0,2.209 -1.791,4 -4,4 l 0,0 c -2.209,0 -4,-1.791 -4,-4" /></clipPath><linearGradient
       id="linearGradient374"
       spreadMethod="pad"
       gradientTransform="matrix(5.6568542,-5.6568542,-5.6568542,-5.6568542,181.17157,138.82843)"
       gradientUnits="userSpaceOnUse"
       y2="0"
       x2="1"
       y1="0"
       x1="0"><stop
         id="stop376"
         offset="0"
         style="stop-opacity:1;stop-color:#e6e7e8" /><stop
         id="stop378"
         offset="1"
         style="stop-opacity:1;stop-color:#d1d3d4" /></linearGradient><clipPath
       id="clipPath386"
       clipPathUnits="userSpaceOnUse"><path
         id="path388"
         d="M 0,256 256,256 256,0 0,0 0,256 Z" /></clipPath></defs><g
     transform="matrix(1.25,0,0,-1.25,0,320)"
     id="g10"><g
       id="g12"><g
         clip-path="url(#clipPath16)"
         id="g14"><g
           id="g20"><g
             id="g22"><path
               id="path30"
               style="fill:url(#linearGradient24);stroke:none"
               d="m 95.371,176 c -0.299,0 -0.597,-0.021 -0.893,-0.064 l 0,0 -77.017,-10.943 C 14.328,164.548 12,161.866 12,158.701 l 0,0 0,-76.346 C 12,78.845 14.846,76 18.355,76 l 0,0 219.29,0 c 3.51,0 6.355,2.845 6.355,6.355 l 0,0 0,76.337 c 0,3.169 -2.333,5.853 -5.47,6.294 l 0,0 -77.918,10.952 c -0.293,0.042 -0.588,0.062 -0.885,0.062 l 0,0 -64.356,0 z" /></g></g></g></g><g
       id="g32"><g
         clip-path="url(#clipPath36)"
         id="g34"><g
           id="g40"><g
             id="g42"><path
               id="path50"
               style="fill:url(#linearGradient44);stroke:none"
               d="m 175.371,160 c -2.99,0 -5.416,-2.43 -5.416,-5.427 l 0,0 0,-2.26 c 0,-24.316 -20.115,-44.122 -44.358,-42.987 l 0,0 c -22.456,1.05 -40.341,19.624 -40.341,42.383 l 0,0 0,3.769 c 0,2.497 -2.02,4.522 -4.513,4.522 l 0,0 -42.948,0 C 34.594,160 32,157.401 32,154.194 l 0,0 0,-21.331 c 0,-1.989 2.133,-3.218 3.867,-2.249 l 0,0 c 3.867,2.164 8.382,3.303 13.183,3.048 l 0,0 c 12.811,-0.683 22.999,-11.446 23.043,-24.3 l 0,0 C 72.122,100.717 67.662,93.118 60.921,88.756 l 0,0 c -0.494,-2.129 -0.148,-4.725 4.477,-4.725 l 0,0 115.204,0 C 180.915,84.012 181.23,84 181.548,84 l 0,0 30.74,0 c 0.318,0 0.633,0.012 0.946,0.031 l 0,0 c 0,0 4.004,0.488 5.038,1.154 l 0,0 C 223.98,87.543 228,93.172 228,99.743 l 0,0 c 0,4.247 -1.682,8.099 -4.412,10.931 l 0,0 0,43.52 c 0,3.207 -2.594,5.806 -5.794,5.806 l 0,0 -42.423,0 z" /></g></g></g></g><g
       id="g52"><g
         clip-path="url(#clipPath56)"
         id="g54"><path
           id="path60"
           style="fill:#999999;fill-opacity:1;fill-rule:nonzero;stroke:none"
           d="m 204,144 -12,0 0,4 12,0 0,-4 z" /><path
           id="path62"
           style="fill:#999999;fill-opacity:1;fill-rule:nonzero;stroke:none"
           d="m 204,142.118 -12,0 0,-2.118 12,0 0,2.118 z" /><path
           id="path64"
           style="fill:#999999;fill-opacity:1;fill-rule:nonzero;stroke:none"
           d="m 204,136 -12,0 0,1 12,0 0,-1 z" /></g></g><g
       id="g66"><g
         clip-path="url(#clipPath70)"
         id="g68"><g
           id="g74"><g
             id="g76"><path
               id="path84"
               style="fill:url(#linearGradient78);stroke:none"
               d="M 96.523,180 C 95.129,180 94,178.876 94,177.49 l 0,0 0,-27.662 C 94,131.145 109.222,116 128,116 l 0,0 c 18.777,0 34,15.145 34,33.828 l 0,0 0,27.662 c 0,1.386 -1.13,2.51 -2.523,2.51 l 0,0 -62.954,0 z" /></g></g></g></g><g
       id="g86"><g
         clip-path="url(#clipPath90)"
         id="g88"><g
           id="g94"><g
             id="g96"><path
               id="path104"
               style="fill:url(#linearGradient98);stroke:none"
               d="M 26,109 C 26,96.85 35.85,87 48,87 l 0,0 c 12.151,0 22,9.85 22,22 l 0,0 c 0,12.15 -9.849,22 -22,22 l 0,0 c -12.15,0 -22,-9.85 -22,-22" /></g></g></g></g><g
       id="g106"><g
         clip-path="url(#clipPath110)"
         id="g108"><g
           transform="translate(68,109)"
           id="g114"><path
             id="path116"
             style="fill:#999999;fill-opacity:1;fill-rule:nonzero;stroke:none"
             d="m 0,0 c 0,-11.046 -8.954,-20 -20,-20 -11.046,0 -20,8.954 -20,20 0,11.046 8.954,20 20,20 C -8.954,20 0,11.046 0,0" /></g></g></g><g
       id="g118"><g
         clip-path="url(#clipPath122)"
         id="g120"><g
           id="g126"><g
             id="g128"><path
               id="path136"
               style="fill:url(#linearGradient130);stroke:none"
               d="m 43.106,128.395 0,-14.502 -14.5,0 C 28.211,112.327 28,110.688 28,109 l 0,0 c 0,-1.688 0.211,-3.327 0.606,-4.893 l 0,0 14.5,0 0,-14.501 C 44.672,89.212 46.311,89 48,89 l 0,0 c 1.689,0 3.327,0.212 4.894,0.606 l 0,0 0,14.501 14.501,0 C 67.789,105.673 68,107.312 68,109 l 0,0 c 0,1.688 -0.211,3.327 -0.605,4.893 l 0,0 -14.501,0 0,14.502 C 51.327,128.788 49.689,129 48,129 l 0,0 c -1.689,0 -3.328,-0.212 -4.894,-0.605" /></g></g></g></g><g
       id="g138"><g
         clip-path="url(#clipPath142)"
         id="g140"><g
           id="g146"><g
             id="g148"><path
               id="path156"
               style="fill:url(#linearGradient150);stroke:none"
               d="m 43,109 c 0,-2.761 2.238,-5 5,-5 l 0,0 c 2.762,0 5,2.239 5,5 l 0,0 c 0,2.761 -2.238,5 -5,5 l 0,0 c -2.762,0 -5,-2.239 -5,-5" /></g></g></g></g><g
       id="g158"><g
         clip-path="url(#clipPath162)"
         id="g160"><g
           id="g166"><g
             id="g168"><path
               id="path176"
               style="fill:url(#linearGradient170);stroke:none"
               d="m 173.931,100 c 0,-5.561 4.508,-10.068 10.069,-10.068 l 0,0 c 5.561,0 10.069,4.507 10.069,10.068 l 0,0 c 0,5.561 -4.508,10.069 -10.069,10.069 l 0,0 c -5.561,0 -10.069,-4.508 -10.069,-10.069" /></g></g></g></g><g
       id="g178"><g
         clip-path="url(#clipPath182)"
         id="g180"><g
           id="g186"><g
             id="g188"><path
               id="path196"
               style="fill:url(#linearGradient190);stroke:none"
               d="m 174,100 c 0,-5.522 4.477,-10 10,-10 l 0,0 c 5.523,0 10,4.478 10,10 l 0,0 c 0,5.523 -4.477,10 -10,10 l 0,0 c -5.523,0 -10,-4.477 -10,-10 m 1.387,0 c 0,4.749 3.864,8.613 8.613,8.613 l 0,0 c 4.749,0 8.613,-3.864 8.613,-8.613 l 0,0 c 0,-4.749 -3.864,-8.613 -8.613,-8.613 l 0,0 c -4.749,0 -8.613,3.864 -8.613,8.613" /></g></g></g></g><g
       id="g198"><g
         clip-path="url(#clipPath202)"
         id="g200"><g
           transform="translate(184,111)"
           id="g206"><path
             id="path208"
             style="fill:#999999;fill-opacity:1;fill-rule:nonzero;stroke:none"
             d="m 0,0 c -6.065,0 -11,-4.935 -11,-11 0,-6.065 4.935,-11 11,-11 6.065,0 11,4.935 11,11 C 11,-4.935 6.065,0 0,0 m 0,-0.931 c 5.561,0 10.069,-4.508 10.069,-10.069 0,-5.561 -4.508,-10.069 -10.069,-10.069 -5.561,0 -10.069,4.508 -10.069,10.069 0,5.561 4.508,10.069 10.069,10.069" /></g></g></g><g
       id="g210"><g
         clip-path="url(#clipPath214)"
         id="g212"><g
           id="g218"><g
             id="g220"><path
               id="path228"
               style="fill:url(#linearGradient222);stroke:none"
               d="m 201.931,100 c 0,-5.561 4.508,-10.068 10.069,-10.068 l 0,0 c 5.561,0 10.069,4.507 10.069,10.068 l 0,0 c 0,5.561 -4.508,10.069 -10.069,10.069 l 0,0 c -5.561,0 -10.069,-4.508 -10.069,-10.069" /></g></g></g></g><g
       id="g230"><g
         clip-path="url(#clipPath234)"
         id="g232"><g
           id="g238"><g
             id="g240"><path
               id="path248"
               style="fill:url(#linearGradient242);stroke:none"
               d="m 202,100 c 0,-5.522 4.477,-10 10,-10 l 0,0 c 5.523,0 10,4.478 10,10 l 0,0 c 0,5.523 -4.477,10 -10,10 l 0,0 c -5.523,0 -10,-4.477 -10,-10 m 1.387,0 c 0,4.749 3.864,8.613 8.613,8.613 l 0,0 c 4.749,0 8.613,-3.864 8.613,-8.613 l 0,0 c 0,-4.749 -3.864,-8.613 -8.613,-8.613 l 0,0 c -4.749,0 -8.613,3.864 -8.613,8.613" /></g></g></g></g><g
       id="g250"><g
         clip-path="url(#clipPath254)"
         id="g252"><g
           transform="translate(212,111)"
           id="g258"><path
             id="path260"
             style="fill:#999999;fill-opacity:1;fill-rule:nonzero;stroke:none"
             d="m 0,0 c -6.065,0 -11,-4.935 -11,-11 0,-6.065 4.935,-11 11,-11 6.065,0 11,4.935 11,11 C 11,-4.935 6.065,0 0,0 m 0,-0.931 c 5.561,0 10.069,-4.508 10.069,-10.069 0,-5.561 -4.508,-10.069 -10.069,-10.069 -5.561,0 -10.069,4.508 -10.069,10.069 0,5.561 4.508,10.069 10.069,10.069" /></g></g></g><g
       id="g262"><g
         clip-path="url(#clipPath266)"
         id="g264"><g
           id="g270"><g
             id="g272"><path
               id="path280"
               style="fill:url(#linearGradient274);stroke:none"
               d="m 104.531,102.758 c -1.726,0 -3.124,-1.234 -3.124,-2.758 l 0,0 c 0,-1.524 1.398,-2.759 3.124,-2.759 l 0,0 10.938,0 c 1.725,0 3.125,1.235 3.125,2.759 l 0,0 c 0,1.524 -1.4,2.758 -3.125,2.758 l 0,0 -10.938,0 z" /></g></g></g></g><g
       id="g282"><g
         clip-path="url(#clipPath286)"
         id="g284"><g
           transform="translate(115.4688,104)"
           id="g290"><path
             id="path292"
             style="fill:#999999;fill-opacity:1;fill-rule:nonzero;stroke:none"
             d="m 0,0 -10.938,0 c -2.498,0 -4.531,-1.794 -4.531,-4 0,-2.206 2.033,-4 4.531,-4 L 0,-8 c 2.499,0 4.531,1.794 4.531,4 0,2.206 -2.032,4 -4.531,4 M 0,-1.241 C 1.726,-1.241 3.125,-2.476 3.125,-4 3.125,-5.524 1.726,-6.759 0,-6.759 l -10.938,0 c -1.725,0 -3.125,1.235 -3.125,2.759 0,1.524 1.4,2.759 3.125,2.759 l 10.938,0" /></g></g></g><g
       id="g294"><g
         clip-path="url(#clipPath298)"
         id="g296"><g
           id="g302"><g
             id="g304"><path
               id="path312"
               style="fill:url(#linearGradient306);stroke:none"
               d="m 132.531,102.758 c -1.726,0 -3.125,-1.234 -3.125,-2.758 l 0,0 c 0,-1.524 1.399,-2.759 3.125,-2.759 l 0,0 10.938,0 c 1.725,0 3.125,1.235 3.125,2.759 l 0,0 c 0,1.524 -1.4,2.758 -3.125,2.758 l 0,0 -10.938,0 z" /></g></g></g></g><g
       id="g314"><g
         clip-path="url(#clipPath318)"
         id="g316"><g
           transform="translate(143.4687,104)"
           id="g322"><path
             id="path324"
             style="fill:#999999;fill-opacity:1;fill-rule:nonzero;stroke:none"
             d="m 0,0 -10.938,0 c -2.498,0 -4.531,-1.794 -4.531,-4 0,-2.206 2.033,-4 4.531,-4 L 0,-8 c 2.499,0 4.531,1.794 4.531,4 0,2.206 -2.032,4 -4.531,4 M 0,-1.241 C 1.726,-1.241 3.125,-2.476 3.125,-4 3.125,-5.524 1.726,-6.759 0,-6.759 l -10.938,0 c -1.725,0 -3.125,1.235 -3.125,2.759 0,1.524 1.4,2.759 3.125,2.759 l 10.938,0" /></g><g
           transform="translate(212,132)"
           id="g326"><path
             id="path328"
             style="fill:#999999;fill-opacity:1;fill-rule:nonzero;stroke:none"
             d="m 0,0 0,0 c -2.2,0 -4,1.8 -4,4 l 0,8 c 0,2.2 1.8,4 4,4 2.2,0 4,-1.8 4,-4 L 4,4 C 4,1.8 2.2,0 0,0" /></g></g></g><g
       id="g330"><g
         clip-path="url(#clipPath334)"
         id="g332"><g
           id="g338"><g
             id="g340"><path
               id="path348"
               style="fill:url(#linearGradient342);stroke:none"
               d="m 208,136 c 0,-2.209 1.791,-4 4,-4 l 0,0 c 2.209,0 4,1.791 4,4 l 0,0 c 0,2.209 -1.791,4 -4,4 l 0,0 c -2.209,0 -4,-1.791 -4,-4" /></g></g></g></g><g
       id="g350"><g
         clip-path="url(#clipPath354)"
         id="g352"><g
           transform="translate(184,132)"
           id="g358"><path
             id="path360"
             style="fill:#999999;fill-opacity:1;fill-rule:nonzero;stroke:none"
             d="m 0,0 0,0 c -2.2,0 -4,1.8 -4,4 l 0,8 c 0,2.2 1.8,4 4,4 2.2,0 4,-1.8 4,-4 L 4,4 C 4,1.8 2.2,0 0,0" /></g></g></g><g
       id="g362"><g
         clip-path="url(#clipPath366)"
         id="g364"><g
           id="g370"><g
             id="g372"><path
               id="path380"
               style="fill:url(#linearGradient374);stroke:none"
               d="m 180,136 c 0,-2.209 1.791,-4 4,-4 l 0,0 c 2.209,0 4,1.791 4,4 l 0,0 c 0,2.209 -1.791,4 -4,4 l 0,0 c -2.209,0 -4,-1.791 -4,-4" /></g></g></g></g><g
       id="g382"><g
         clip-path="url(#clipPath386)"
         id="g384"><path
           id="path390"
           style="fill:#999999;fill-opacity:1;fill-rule:nonzero;stroke:none"
           d="M 46.182,140 36,140 l 0,2 10.182,0 0,-2 z" /><path
           id="path392"
           style="fill:#ffffff;fill-opacity:1;fill-rule:nonzero;stroke:none"
           d="m 68,140 -20.583,0 0,2 20.583,0 0,-2 z" /></g></g></g></svg>