<?xml version="1.0" encoding="UTF-8" standalone="no"?>
<svg
   xmlns:dc="http://purl.org/dc/elements/1.1/"
   xmlns:cc="http://creativecommons.org/ns#"
   xmlns:rdf="http://www.w3.org/1999/02/22-rdf-syntax-ns#"
   xmlns:svg="http://www.w3.org/2000/svg"
   xmlns="http://www.w3.org/2000/svg"
   viewBox="0 0 320 320"
   height="320"
   width="320"
   xml:space="preserve"
   version="1.1"
   id="svg2"><metadata
     id="metadata8"><rdf:RDF><cc:Work
         rdf:about=""><dc:format>image/svg+xml</dc:format><dc:type
           rdf:resource="http://purl.org/dc/dcmitype/StillImage" /></cc:Work></rdf:RDF></metadata><defs
     id="defs6"><clipPath
       id="clipPath16"
       clipPathUnits="userSpaceOnUse"><path
         id="path18"
         d="M 15.776,204 C 13.691,204 12,202.276 12,200.15 l 0,0 0,-144.3 C 12,53.724 13.691,52 15.776,52 l 0,0 224.448,0 c 2.086,0 3.776,1.724 3.776,3.85 l 0,0 0,144.3 c 0,2.126 -1.69,3.85 -3.776,3.85 l 0,0 -224.448,0 z" /></clipPath><linearGradient
       id="linearGradient24"
       spreadMethod="pad"
       gradientTransform="matrix(189.76663,-189.76663,-189.76663,-189.76663,33.116684,222.88332)"
       gradientUnits="userSpaceOnUse"
       y2="0"
       x2="1"
       y1="0"
       x1="0"><stop
         id="stop26"
         offset="0"
         style="stop-opacity:1;stop-color:#e6e7e8" /><stop
         id="stop28"
         offset="1"
         style="stop-opacity:1;stop-color:#d1d3d4" /></linearGradient><clipPath
       id="clipPath36"
       clipPathUnits="userSpaceOnUse"><path
         id="path38"
         d="m 187.946,187.007 c -32.394,-9.605 -55.034,-52.316 -55.034,-52.316 l 0,0 c 0,0 -4.514,-10.936 6.546,-16.848 l 0,0 c 11.06,-5.911 18.132,4.286 18.132,4.286 l 0,0 c 16.703,31.478 45.745,41.45 45.745,41.45 l 0,0 c 0,0 7.524,3.33 3.462,15.892 l 0,0 C 204.539,186.45 198.972,188 194.469,188 l 0,0 c -3.601,0 -6.523,-0.993 -6.523,-0.993" /></clipPath><linearGradient
       id="linearGradient44"
       spreadMethod="pad"
       gradientTransform="matrix(-25.086195,25.086195,25.086195,25.086195,181.27266,141.04533)"
       gradientUnits="userSpaceOnUse"
       y2="0"
       x2="1"
       y1="0"
       x1="0"><stop
         id="stop46"
         offset="0"
         style="stop-opacity:1;stop-color:#e6e7e8" /><stop
         id="stop48"
         offset="1"
         style="stop-opacity:1;stop-color:#d1d3d4" /></linearGradient><clipPath
       id="clipPath56"
       clipPathUnits="userSpaceOnUse"><path
         id="path58"
         d="m 52,150 c 0,-16.569 13.432,-30 30,-30 l 0,0 c 16.569,0 30,13.431 30,30 l 0,0 c 0,16.568 -13.431,30 -30,30 l 0,0 C 65.432,180 52,166.568 52,150" /></clipPath><linearGradient
       id="linearGradient64"
       spreadMethod="pad"
       gradientTransform="matrix(-42.426407,42.426407,42.426407,42.426407,103.2132,128.78679)"
       gradientUnits="userSpaceOnUse"
       y2="0"
       x2="1"
       y1="0"
       x1="0"><stop
         id="stop66"
         offset="0"
         style="stop-opacity:1;stop-color:#e6e7e8" /><stop
         id="stop68"
         offset="1"
         style="stop-opacity:1;stop-color:#d1d3d4" /></linearGradient><clipPath
       id="clipPath76"
       clipPathUnits="userSpaceOnUse"><path
         id="path78"
         d="M 0,256 256,256 256,0 0,0 0,256 Z" /></clipPath><clipPath
       id="clipPath88"
       clipPathUnits="userSpaceOnUse"><path
         id="path90"
         d="m 68,150 c 0,-7.72 6.281,-14 14,-14 l 0,0 c 7.72,0 14,6.28 14,14 l 0,0 c 0,7.72 -6.28,14 -14,14 l 0,0 c -7.719,0 -14,-6.28 -14,-14 m 2,0 c 0,6.617 5.383,12 12,12 l 0,0 c 6.618,0 12,-5.383 12,-12 l 0,0 c 0,-6.617 -5.382,-12 -12,-12 l 0,0 c -6.617,0 -12,5.383 -12,12" /></clipPath><linearGradient
       id="linearGradient96"
       spreadMethod="pad"
       gradientTransform="matrix(19.789818,-19.789818,-19.789818,-19.789818,72.105087,159.89491)"
       gradientUnits="userSpaceOnUse"
       y2="0"
       x2="1"
       y1="0"
       x1="0"><stop
         id="stop98"
         offset="0"
         style="stop-opacity:1;stop-color:#e6e7e8" /><stop
         id="stop100"
         offset="1"
         style="stop-opacity:1;stop-color:#d1d3d4" /></linearGradient><clipPath
       id="clipPath108"
       clipPathUnits="userSpaceOnUse"><path
         id="path110"
         d="M 0,256 256,256 256,0 0,0 0,256 Z" /></clipPath><clipPath
       id="clipPath132"
       clipPathUnits="userSpaceOnUse"><path
         id="path134"
         d="m 113.161,191.083 c -0.685,-0.65 -1.096,-1.546 -1.153,-2.523 l 0,0 c -0.06,-0.977 0.239,-1.922 0.841,-2.663 l 0,0 c 0.603,-0.74 1.433,-1.183 2.338,-1.246 l 0,0 9.184,-0.642 c 0.076,-0.007 0.149,-0.009 0.224,-0.009 l 0,0 c 0.825,0 1.615,0.321 2.244,0.917 l 0,0 c 0.686,0.65 1.095,1.546 1.154,2.523 l 0,0 c 0.059,0.977 -0.241,1.922 -0.843,2.663 l 0,0 c -0.603,0.74 -1.432,1.183 -2.338,1.246 l 0,0 -9.183,0.643 c -0.074,0.006 -0.148,0.008 -0.222,0.008 l 0,0 c -0.825,0 -1.615,-0.321 -2.246,-0.917" /></clipPath><linearGradient
       id="linearGradient140"
       spreadMethod="pad"
       gradientTransform="matrix(-9.2805119,-9.2805119,-9.2805119,9.2805119,124.64026,192.64049)"
       gradientUnits="userSpaceOnUse"
       y2="0"
       x2="1"
       y1="0"
       x1="0"><stop
         id="stop142"
         offset="0"
         style="stop-opacity:1;stop-color:#e6e7e8" /><stop
         id="stop144"
         offset="1"
         style="stop-opacity:1;stop-color:#d1d3d4" /></linearGradient><clipPath
       id="clipPath152"
       clipPathUnits="userSpaceOnUse"><path
         id="path154"
         d="M 0,256 256,256 256,0 0,0 0,256 Z" /></clipPath><clipPath
       id="clipPath164"
       clipPathUnits="userSpaceOnUse"><path
         id="path166"
         d="m 152.37,191.991 -9.184,-0.643 c -1.873,-0.13 -3.301,-1.884 -3.178,-3.909 l 0,0 c 0.116,-1.943 1.618,-3.439 3.397,-3.439 l 0,0 c 0.074,0 0.149,0.002 0.225,0.009 l 0,0 9.184,0.642 c 1.873,0.131 3.301,1.885 3.178,3.908 l 0,0 c -0.116,1.939 -1.582,3.441 -3.38,3.441 l 0,0 c -0.08,0 -0.161,-0.003 -0.242,-0.009" /></clipPath><linearGradient
       id="linearGradient172"
       spreadMethod="pad"
       gradientTransform="matrix(-9.9328156,-9.9328156,-9.9328156,9.9328156,152.96988,192.9695)"
       gradientUnits="userSpaceOnUse"
       y2="0"
       x2="1"
       y1="0"
       x1="0"><stop
         id="stop174"
         offset="0"
         style="stop-opacity:1;stop-color:#e6e7e8" /><stop
         id="stop176"
         offset="1"
         style="stop-opacity:1;stop-color:#d1d3d4" /></linearGradient><clipPath
       id="clipPath184"
       clipPathUnits="userSpaceOnUse"><path
         id="path186"
         d="M 0,256 256,256 256,0 0,0 0,256 Z" /></clipPath><clipPath
       id="clipPath196"
       clipPathUnits="userSpaceOnUse"><path
         id="path198"
         d="m 16,204 c 0,0 104.021,-8.196 117.268,-7.996 l 0,0 C 146.516,196.204 240,204 240,204 l 0,0 -224,0 z" /></clipPath><linearGradient
       id="linearGradient204"
       spreadMethod="pad"
       gradientTransform="matrix(-112,112,112,112,184,148)"
       gradientUnits="userSpaceOnUse"
       y2="0"
       x2="1"
       y1="0"
       x1="0"><stop
         id="stop206"
         offset="0"
         style="stop-opacity:1;stop-color:#e6e7e8" /><stop
         id="stop208"
         offset="1"
         style="stop-opacity:1;stop-color:#d1d3d4" /></linearGradient><clipPath
       id="clipPath216"
       clipPathUnits="userSpaceOnUse"><path
         id="path218"
         d="M 13.888,60 C 12.849,60 12,59.181 12,58.18 l 0,0 0,-4.36 C 12,52.819 12.849,52 13.888,52 l 0,0 228.224,0 c 1.038,0 1.888,0.819 1.888,1.82 l 0,0 0,4.36 c 0,1.001 -0.85,1.82 -1.888,1.82 l 0,0 -228.224,0 z" /></clipPath><linearGradient
       id="linearGradient224"
       spreadMethod="pad"
       gradientTransform="matrix(-118.91113,118.91113,118.91113,118.91113,187.45557,-3.4555705)"
       gradientUnits="userSpaceOnUse"
       y2="0"
       x2="1"
       y1="0"
       x1="0"><stop
         id="stop226"
         offset="0"
         style="stop-opacity:1;stop-color:#e6e7e8" /><stop
         id="stop228"
         offset="1"
         style="stop-opacity:1;stop-color:#d1d3d4" /></linearGradient></defs><g
     transform="matrix(1.25,0,0,-1.25,0,320)"
     id="g10"><g
       id="g12"><g
         clip-path="url(#clipPath16)"
         id="g14"><g
           id="g20"><g
             id="g22"><path
               id="path30"
               style="fill:url(#linearGradient24);stroke:none"
               d="M 15.776,204 C 13.691,204 12,202.276 12,200.15 l 0,0 0,-144.3 C 12,53.724 13.691,52 15.776,52 l 0,0 224.448,0 c 2.086,0 3.776,1.724 3.776,3.85 l 0,0 0,144.3 c 0,2.126 -1.69,3.85 -3.776,3.85 l 0,0 -224.448,0 z" /></g></g></g></g><g
       id="g32"><g
         clip-path="url(#clipPath36)"
         id="g34"><g
           id="g40"><g
             id="g42"><path
               id="path50"
               style="fill:url(#linearGradient44);stroke:none"
               d="m 187.946,187.007 c -32.394,-9.605 -55.034,-52.316 -55.034,-52.316 l 0,0 c 0,0 -4.514,-10.936 6.546,-16.848 l 0,0 c 11.06,-5.911 18.132,4.286 18.132,4.286 l 0,0 c 16.703,31.478 45.745,41.45 45.745,41.45 l 0,0 c 0,0 7.524,3.33 3.462,15.892 l 0,0 C 204.539,186.45 198.972,188 194.469,188 l 0,0 c -3.601,0 -6.523,-0.993 -6.523,-0.993" /></g></g></g></g><g
       id="g52"><g
         clip-path="url(#clipPath56)"
         id="g54"><g
           id="g60"><g
             id="g62"><path
               id="path70"
               style="fill:url(#linearGradient64);stroke:none"
               d="m 52,150 c 0,-16.569 13.432,-30 30,-30 l 0,0 c 16.569,0 30,13.431 30,30 l 0,0 c 0,16.568 -13.431,30 -30,30 l 0,0 C 65.432,180 52,166.568 52,150" /></g></g></g></g><g
       id="g72"><g
         clip-path="url(#clipPath76)"
         id="g74"><g
           transform="translate(95.375,149.9234)"
           id="g80"><path
             id="path82"
             style="fill:#999999;fill-opacity:1;fill-rule:nonzero;stroke:none"
             d="m 0,0 c 0,-7.257 -5.883,-13.141 -13.141,-13.141 -7.257,0 -13.14,5.884 -13.14,13.141 0,7.257 5.883,13.141 13.14,13.141 C -5.883,13.141 0,7.257 0,0" /></g></g></g><g
       id="g84"><g
         clip-path="url(#clipPath88)"
         id="g86"><g
           id="g92"><g
             id="g94"><path
               id="path102"
               style="fill:url(#linearGradient96);stroke:none"
               d="m 68,150 c 0,-7.72 6.281,-14 14,-14 l 0,0 c 7.72,0 14,6.28 14,14 l 0,0 c 0,7.72 -6.28,14 -14,14 l 0,0 c -7.719,0 -14,-6.28 -14,-14 m 2,0 c 0,6.617 5.383,12 12,12 l 0,0 c 6.618,0 12,-5.383 12,-12 l 0,0 c 0,-6.617 -5.382,-12 -12,-12 l 0,0 c -6.617,0 -12,5.383 -12,12" /></g></g></g></g><g
       id="g104"><g
         clip-path="url(#clipPath108)"
         id="g106"><g
           transform="translate(154,130)"
           id="g112"><path
             id="path114"
             style="fill:#999999;fill-opacity:1;fill-rule:nonzero;stroke:none"
             d="m 0,0 c 0,-4.418 -3.582,-8 -8,-8 -4.418,0 -8,3.582 -8,8 0,4.418 3.582,8 8,8 4.418,0 8,-3.582 8,-8" /></g><g
           transform="translate(168,148)"
           id="g116"><path
             id="path118"
             style="fill:#999999;fill-opacity:1;fill-rule:nonzero;stroke:none"
             d="m 0,0 c 0,-4.418 -3.582,-8 -8,-8 -4.418,0 -8,3.582 -8,8 0,4.418 3.582,8 8,8 4.418,0 8,-3.582 8,-8" /></g><g
           transform="translate(184,164)"
           id="g120"><path
             id="path122"
             style="fill:#999999;fill-opacity:1;fill-rule:nonzero;stroke:none"
             d="m 0,0 c 0,-4.418 -3.582,-8 -8,-8 -4.418,0 -8,3.582 -8,8 0,4.418 3.582,8 8,8 4.418,0 8,-3.582 8,-8" /></g><g
           transform="translate(204,176)"
           id="g124"><path
             id="path126"
             style="fill:#999999;fill-opacity:1;fill-rule:nonzero;stroke:none"
             d="m 0,0 c 0,-4.418 -3.582,-8 -8,-8 -4.418,0 -8,3.582 -8,8 0,4.418 3.582,8 8,8 4.418,0 8,-3.582 8,-8" /></g></g></g><g
       id="g128"><g
         clip-path="url(#clipPath132)"
         id="g130"><g
           id="g136"><g
             id="g138"><path
               id="path146"
               style="fill:url(#linearGradient140);stroke:none"
               d="m 113.161,191.083 c -0.685,-0.65 -1.096,-1.546 -1.153,-2.523 l 0,0 c -0.06,-0.977 0.239,-1.922 0.841,-2.663 l 0,0 c 0.603,-0.74 1.433,-1.183 2.338,-1.246 l 0,0 9.184,-0.642 c 0.076,-0.007 0.149,-0.009 0.224,-0.009 l 0,0 c 0.825,0 1.615,0.321 2.244,0.917 l 0,0 c 0.686,0.65 1.095,1.546 1.154,2.523 l 0,0 c 0.059,0.977 -0.241,1.922 -0.843,2.663 l 0,0 c -0.603,0.74 -1.432,1.183 -2.338,1.246 l 0,0 -9.183,0.643 c -0.074,0.006 -0.148,0.008 -0.222,0.008 l 0,0 c -0.825,0 -1.615,-0.321 -2.246,-0.917" /></g></g></g></g><g
       id="g148"><g
         clip-path="url(#clipPath152)"
         id="g150"><g
           transform="translate(115.4921,191)"
           id="g156"><path
             id="path158"
             style="fill:#999999;fill-opacity:1;fill-rule:nonzero;stroke:none"
             d="m 0,0 c -0.603,0 -1.18,-0.235 -1.641,-0.671 -0.503,-0.475 -0.803,-1.129 -0.846,-1.841 -0.043,-0.713 0.176,-1.403 0.618,-1.944 0.441,-0.541 1.048,-0.864 1.71,-0.91 l 9.011,-0.63 c 0.658,-0.037 1.301,0.189 1.805,0.664 0.503,0.476 0.802,1.13 0.846,1.842 0.043,0.713 -0.176,1.402 -0.618,1.944 -0.441,0.541 -1.049,0.863 -1.71,0.91 l -9.011,0.63 C 0.11,-0.003 0.055,0 0,0" /></g></g></g><g
       id="g160"><g
         clip-path="url(#clipPath164)"
         id="g162"><g
           id="g168"><g
             id="g170"><path
               id="path178"
               style="fill:url(#linearGradient172);stroke:none"
               d="m 152.37,191.991 -9.184,-0.643 c -1.873,-0.13 -3.301,-1.884 -3.178,-3.909 l 0,0 c 0.116,-1.943 1.618,-3.439 3.397,-3.439 l 0,0 c 0.074,0 0.149,0.002 0.225,0.009 l 0,0 9.184,0.642 c 1.873,0.131 3.301,1.885 3.178,3.908 l 0,0 c -0.116,1.939 -1.582,3.441 -3.38,3.441 l 0,0 c -0.08,0 -0.161,-0.003 -0.242,-0.009" /></g></g></g></g><g
       id="g180"><g
         clip-path="url(#clipPath184)"
         id="g182"><g
           transform="translate(152.5062,191)"
           id="g188"><path
             id="path190"
             style="fill:#999999;fill-opacity:1;fill-rule:nonzero;stroke:none"
             d="m 0,0 c -0.053,0 -0.108,-0.003 -0.163,-0.006 l -9.009,-0.63 c -1.372,-0.095 -2.417,-1.374 -2.329,-2.852 0.091,-1.476 1.263,-2.618 2.651,-2.504 l 9.009,0.629 c 1.372,0.096 2.418,1.375 2.33,2.853 C 2.402,-1.093 1.302,0 0,0" /></g></g></g><g
       id="g192"><g
         clip-path="url(#clipPath196)"
         id="g194"><g
           id="g200"><g
             id="g202"><path
               id="path210"
               style="fill:url(#linearGradient204);stroke:none"
               d="m 16,204 c 0,0 104.021,-8.196 117.268,-7.996 l 0,0 C 146.516,196.204 240,204 240,204 l 0,0 -224,0 z" /></g></g></g></g><g
       id="g212"><g
         clip-path="url(#clipPath216)"
         id="g214"><g
           id="g220"><g
             id="g222"><path
               id="path230"
               style="fill:url(#linearGradient224);stroke:none"
               d="M 13.888,60 C 12.849,60 12,59.181 12,58.18 l 0,0 0,-4.36 C 12,52.819 12.849,52 13.888,52 l 0,0 228.224,0 c 1.038,0 1.888,0.819 1.888,1.82 l 0,0 0,4.36 c 0,1.001 -0.85,1.82 -1.888,1.82 l 0,0 -228.224,0 z" /></g></g></g></g></g></svg>