<?xml version="1.0" encoding="UTF-8" standalone="no"?>
<svg
   xmlns:dc="http://purl.org/dc/elements/1.1/"
   xmlns:cc="http://creativecommons.org/ns#"
   xmlns:rdf="http://www.w3.org/1999/02/22-rdf-syntax-ns#"
   xmlns:svg="http://www.w3.org/2000/svg"
   xmlns="http://www.w3.org/2000/svg"
   viewBox="0 0 320 320"
   height="320"
   width="320"
   xml:space="preserve"
   version="1.1"
   id="svg2"><metadata
     id="metadata8"><rdf:RDF><cc:Work
         rdf:about=""><dc:format>image/svg+xml</dc:format><dc:type
           rdf:resource="http://purl.org/dc/dcmitype/StillImage" /></cc:Work></rdf:RDF></metadata><defs
     id="defs6"><clipPath
       id="clipPath16"
       clipPathUnits="userSpaceOnUse"><path
         id="path18"
         d="m 126,228 0,-98.813 -86.958,-47.431 1.916,-3.512 87.042,47.478 87.042,-47.478 1.916,3.512 -86.958,47.431 0,98.813 -4,0 z" /></clipPath><linearGradient
       id="linearGradient24"
       spreadMethod="pad"
       gradientTransform="matrix(119.39892,-119.39892,-119.39892,-119.39892,68.300415,170.30042)"
       gradientUnits="userSpaceOnUse"
       y2="0"
       x2="1"
       y1="0"
       x1="0"><stop
         id="stop26"
         offset="0"
         style="stop-opacity:1;stop-color:#e6e7e8" /><stop
         id="stop28"
         offset="1"
         style="stop-opacity:1;stop-color:#d1d3d4" /></linearGradient><clipPath
       id="clipPath36"
       clipPathUnits="userSpaceOnUse"><path
         id="path38"
         d="M 22,82 C 22,70.954 30.954,62 42,62 l 0,0 c 11.046,0 20,8.954 20,20 l 0,0 c 0,11.046 -8.954,20 -20,20 l 0,0 C 30.954,102 22,93.046 22,82" /></clipPath><linearGradient
       id="linearGradient44"
       spreadMethod="pad"
       gradientTransform="matrix(28.284271,-28.284271,-28.284271,-28.284271,27.857864,96.142136)"
       gradientUnits="userSpaceOnUse"
       y2="0"
       x2="1"
       y1="0"
       x1="0"><stop
         id="stop46"
         offset="0"
         style="stop-opacity:1;stop-color:#e6e7e8" /><stop
         id="stop48"
         offset="1"
         style="stop-opacity:1;stop-color:#d1d3d4" /></linearGradient><clipPath
       id="clipPath56"
       clipPathUnits="userSpaceOnUse"><path
         id="path58"
         d="m 194,82 c 0,-11.046 8.954,-20 20,-20 l 0,0 c 11.046,0 20,8.954 20,20 l 0,0 c 0,11.046 -8.954,20 -20,20 l 0,0 c -11.046,0 -20,-8.954 -20,-20" /></clipPath><linearGradient
       id="linearGradient64"
       spreadMethod="pad"
       gradientTransform="matrix(28.284271,-28.284271,-28.284271,-28.284271,199.85786,96.142136)"
       gradientUnits="userSpaceOnUse"
       y2="0"
       x2="1"
       y1="0"
       x1="0"><stop
         id="stop66"
         offset="0"
         style="stop-opacity:1;stop-color:#e6e7e8" /><stop
         id="stop68"
         offset="1"
         style="stop-opacity:1;stop-color:#d1d3d4" /></linearGradient><clipPath
       id="clipPath76"
       clipPathUnits="userSpaceOnUse"><path
         id="path78"
         d="m 108,32 c 0,-11.046 8.954,-20 20,-20 l 0,0 c 11.046,0 20,8.954 20,20 l 0,0 c 0,11.046 -8.954,20 -20,20 l 0,0 c -11.046,0 -20,-8.954 -20,-20" /></clipPath><linearGradient
       id="linearGradient84"
       spreadMethod="pad"
       gradientTransform="matrix(-28.284271,28.284271,28.284271,28.284271,142.14214,17.857864)"
       gradientUnits="userSpaceOnUse"
       y2="0"
       x2="1"
       y1="0"
       x1="0"><stop
         id="stop86"
         offset="0"
         style="stop-opacity:1;stop-color:#e6e7e8" /><stop
         id="stop88"
         offset="1"
         style="stop-opacity:1;stop-color:#d1d3d4" /></linearGradient><clipPath
       id="clipPath96"
       clipPathUnits="userSpaceOnUse"><path
         id="path98"
         d="m 108,224 c 0,-11.046 8.954,-20 20,-20 l 0,0 c 11.046,0 20,8.954 20,20 l 0,0 c 0,11.046 -8.954,20 -20,20 l 0,0 c -11.046,0 -20,-8.954 -20,-20" /></clipPath><linearGradient
       id="linearGradient104"
       spreadMethod="pad"
       gradientTransform="matrix(28.284271,-28.284271,-28.284271,-28.284271,113.85786,238.14214)"
       gradientUnits="userSpaceOnUse"
       y2="0"
       x2="1"
       y1="0"
       x1="0"><stop
         id="stop106"
         offset="0"
         style="stop-opacity:1;stop-color:#e6e7e8" /><stop
         id="stop108"
         offset="1"
         style="stop-opacity:1;stop-color:#d1d3d4" /></linearGradient><clipPath
       id="clipPath116"
       clipPathUnits="userSpaceOnUse"><path
         id="path118"
         d="m 126,84 4,0 0,8 -4,0 0,-8 z" /></clipPath><linearGradient
       id="linearGradient124"
       spreadMethod="pad"
       gradientTransform="matrix(5.9999995,-5.9999995,-5.9999995,-5.9999995,125,91)"
       gradientUnits="userSpaceOnUse"
       y2="0"
       x2="1"
       y1="0"
       x1="0"><stop
         id="stop126"
         offset="0"
         style="stop-opacity:1;stop-color:#e6e7e8" /><stop
         id="stop128"
         offset="1"
         style="stop-opacity:1;stop-color:#d1d3d4" /></linearGradient><clipPath
       id="clipPath136"
       clipPathUnits="userSpaceOnUse"><path
         id="path138"
         d="m 126,52 4,0 0,8 -4,0 0,-8 z" /></clipPath><linearGradient
       id="linearGradient144"
       spreadMethod="pad"
       gradientTransform="matrix(5.9999995,-5.9999995,-5.9999995,-5.9999995,125,59)"
       gradientUnits="userSpaceOnUse"
       y2="0"
       x2="1"
       y1="0"
       x1="0"><stop
         id="stop146"
         offset="0"
         style="stop-opacity:1;stop-color:#e6e7e8" /><stop
         id="stop148"
         offset="1"
         style="stop-opacity:1;stop-color:#d1d3d4" /></linearGradient><clipPath
       id="clipPath156"
       clipPathUnits="userSpaceOnUse"><path
         id="path158"
         d="m 126,68 4,0 0,7.999 -4,0 0,-7.999 z" /></clipPath><linearGradient
       id="linearGradient164"
       spreadMethod="pad"
       gradientTransform="matrix(5.9999995,-5.9999995,-5.9999995,-5.9999995,125,75)"
       gradientUnits="userSpaceOnUse"
       y2="0"
       x2="1"
       y1="0"
       x1="0"><stop
         id="stop166"
         offset="0"
         style="stop-opacity:1;stop-color:#e6e7e8" /><stop
         id="stop168"
         offset="1"
         style="stop-opacity:1;stop-color:#d1d3d4" /></linearGradient><clipPath
       id="clipPath176"
       clipPathUnits="userSpaceOnUse"><path
         id="path178"
         d="m 89.182,147.259 6.439,-3.513 c 0.587,1.204 1.243,2.367 1.956,3.49 l 0,0 -6.48,3.535 -1.915,-3.512 z" /></clipPath><linearGradient
       id="linearGradient184"
       spreadMethod="pad"
       gradientTransform="matrix(5.7742004,-5.7742004,-5.7742004,-5.7742004,90.476517,150.15034)"
       gradientUnits="userSpaceOnUse"
       y2="0"
       x2="1"
       y1="0"
       x1="0"><stop
         id="stop186"
         offset="0"
         style="stop-opacity:1;stop-color:#e6e7e8" /><stop
         id="stop188"
         offset="1"
         style="stop-opacity:1;stop-color:#d1d3d4" /></linearGradient><clipPath
       id="clipPath196"
       clipPathUnits="userSpaceOnUse"><path
         id="path198"
         d="m 75.135,154.921 7.022,-3.831 1.917,3.512 -7.023,3.83 -1.916,-3.511 z" /></clipPath><linearGradient
       id="linearGradient204"
       spreadMethod="pad"
       gradientTransform="matrix(6.2248535,-6.2248535,-6.2248535,-6.2248535,76.491821,157.87366)"
       gradientUnits="userSpaceOnUse"
       y2="0"
       x2="1"
       y1="0"
       x1="0"><stop
         id="stop206"
         offset="0"
         style="stop-opacity:1;stop-color:#e6e7e8" /><stop
         id="stop208"
         offset="1"
         style="stop-opacity:1;stop-color:#d1d3d4" /></linearGradient><clipPath
       id="clipPath216"
       clipPathUnits="userSpaceOnUse"><path
         id="path218"
         d="m 47.042,170.244 7.023,-3.831 1.916,3.511 -7.023,3.832 -1.916,-3.512 z" /></clipPath><linearGradient
       id="linearGradient224"
       spreadMethod="pad"
       gradientTransform="matrix(6.2248535,-6.2248535,-6.2248535,-6.2248535,48.399048,173.1969)"
       gradientUnits="userSpaceOnUse"
       y2="0"
       x2="1"
       y1="0"
       x1="0"><stop
         id="stop226"
         offset="0"
         style="stop-opacity:1;stop-color:#e6e7e8" /><stop
         id="stop228"
         offset="1"
         style="stop-opacity:1;stop-color:#d1d3d4" /></linearGradient><clipPath
       id="clipPath236"
       clipPathUnits="userSpaceOnUse"><path
         id="path238"
         d="m 200.019,169.924 1.916,-3.511 7.023,3.831 -1.916,3.512 -7.023,-3.832 z" /></clipPath><linearGradient
       id="linearGradient244"
       spreadMethod="pad"
       gradientTransform="matrix(4.3100586,-4.3100586,-4.3100586,-4.3100586,202.33325,172.2395)"
       gradientUnits="userSpaceOnUse"
       y2="0"
       x2="1"
       y1="0"
       x1="0"><stop
         id="stop246"
         offset="0"
         style="stop-opacity:1;stop-color:#e6e7e8" /><stop
         id="stop248"
         offset="1"
         style="stop-opacity:1;stop-color:#d1d3d4" /></linearGradient><clipPath
       id="clipPath256"
       clipPathUnits="userSpaceOnUse"><path
         id="path258"
         d="m 61.089,162.582 7.023,-3.83 1.915,3.512 -7.023,3.83 -1.915,-3.512 z" /></clipPath><linearGradient
       id="linearGradient264"
       spreadMethod="pad"
       gradientTransform="matrix(6.2248535,-6.2248535,-6.2248535,-6.2248535,62.445435,165.53528)"
       gradientUnits="userSpaceOnUse"
       y2="0"
       x2="1"
       y1="0"
       x1="0"><stop
         id="stop266"
         offset="0"
         style="stop-opacity:1;stop-color:#e6e7e8" /><stop
         id="stop268"
         offset="1"
         style="stop-opacity:1;stop-color:#d1d3d4" /></linearGradient><clipPath
       id="clipPath276"
       clipPathUnits="userSpaceOnUse"><path
         id="path278"
         d="m 158.423,147.236 c 0.712,-1.123 1.369,-2.286 1.956,-3.49 l 0,0 6.441,3.513 -1.917,3.512 -6.48,-3.535 z" /></clipPath><linearGradient
       id="linearGradient284"
       spreadMethod="pad"
       gradientTransform="matrix(4.1870728,-4.1870728,-4.1870728,-4.1870728,160.543,149.3566)"
       gradientUnits="userSpaceOnUse"
       y2="0"
       x2="1"
       y1="0"
       x1="0"><stop
         id="stop286"
         offset="0"
         style="stop-opacity:1;stop-color:#e6e7e8" /><stop
         id="stop288"
         offset="1"
         style="stop-opacity:1;stop-color:#d1d3d4" /></linearGradient><clipPath
       id="clipPath296"
       clipPathUnits="userSpaceOnUse"><path
         id="path298"
         d="m 185.972,162.264 1.917,-3.512 7.023,3.83 -1.916,3.512 -7.024,-3.83 z" /></clipPath><linearGradient
       id="linearGradient304"
       spreadMethod="pad"
       gradientTransform="matrix(4.3105469,-4.3105469,-4.3105469,-4.3105469,188.28711,164.57812)"
       gradientUnits="userSpaceOnUse"
       y2="0"
       x2="1"
       y1="0"
       x1="0"><stop
         id="stop306"
         offset="0"
         style="stop-opacity:1;stop-color:#e6e7e8" /><stop
         id="stop308"
         offset="1"
         style="stop-opacity:1;stop-color:#d1d3d4" /></linearGradient><clipPath
       id="clipPath316"
       clipPathUnits="userSpaceOnUse"><path
         id="path318"
         d="m 171.926,154.602 1.916,-3.512 7.023,3.831 -1.916,3.511 -7.023,-3.83 z" /></clipPath><linearGradient
       id="linearGradient324"
       spreadMethod="pad"
       gradientTransform="matrix(4.3100586,-4.3100586,-4.3100586,-4.3100586,174.24048,156.91626)"
       gradientUnits="userSpaceOnUse"
       y2="0"
       x2="1"
       y1="0"
       x1="0"><stop
         id="stop326"
         offset="0"
         style="stop-opacity:1;stop-color:#e6e7e8" /><stop
         id="stop328"
         offset="1"
         style="stop-opacity:1;stop-color:#d1d3d4" /></linearGradient><clipPath
       id="clipPath336"
       clipPathUnits="userSpaceOnUse"><path
         id="path338"
         d="m 92,128 c 0,-19.882 16.118,-36 36,-36 l 0,0 c 19.882,0 36,16.118 36,36 l 0,0 c 0,19.883 -16.118,36 -36,36 l 0,0 c -19.882,0 -36,-16.117 -36,-36" /></clipPath><linearGradient
       id="linearGradient344"
       spreadMethod="pad"
       gradientTransform="matrix(50.911686,-50.911686,-50.911686,-50.911686,102.54416,153.45584)"
       gradientUnits="userSpaceOnUse"
       y2="0"
       x2="1"
       y1="0"
       x1="0"><stop
         id="stop346"
         offset="0"
         style="stop-opacity:1;stop-color:#e6e7e8" /><stop
         id="stop348"
         offset="1"
         style="stop-opacity:1;stop-color:#d1d3d4" /></linearGradient><clipPath
       id="clipPath356"
       clipPathUnits="userSpaceOnUse"><path
         id="path358"
         d="M 0,256 256,256 256,0 0,0 0,256 Z" /></clipPath><clipPath
       id="clipPath368"
       clipPathUnits="userSpaceOnUse"><path
         id="path370"
         d="m 104.25,131.927 5.18,-5.177 1.07,10 -6.25,-4.823 z" /></clipPath><linearGradient
       id="linearGradient376"
       spreadMethod="pad"
       gradientTransform="matrix(5.1787257,-5.1787257,-5.1787257,-5.1787257,107.01816,134.69553)"
       gradientUnits="userSpaceOnUse"
       y2="0"
       x2="1"
       y1="0"
       x1="0"><stop
         id="stop378"
         offset="0"
         style="stop-opacity:1;stop-color:#e6e7e8" /><stop
         id="stop380"
         offset="1"
         style="stop-opacity:1;stop-color:#d1d3d4" /></linearGradient><clipPath
       id="clipPath388"
       clipPathUnits="userSpaceOnUse"><path
         id="path390"
         d="m 122.375,145.007 11.25,0 -5.625,3.75 -5.625,-3.75 z" /></clipPath><linearGradient
       id="linearGradient396"
       spreadMethod="pad"
       gradientTransform="matrix(5.625,-5.625,-5.625,-5.625,125.1875,147.81995)"
       gradientUnits="userSpaceOnUse"
       y2="0"
       x2="1"
       y1="0"
       x1="0"><stop
         id="stop398"
         offset="0"
         style="stop-opacity:1;stop-color:#e6e7e8" /><stop
         id="stop400"
         offset="1"
         style="stop-opacity:1;stop-color:#d1d3d4" /></linearGradient><clipPath
       id="clipPath408"
       clipPathUnits="userSpaceOnUse"><path
         id="path410"
         d="m 121.125,116.75 6.875,-6.25 6.875,6.25 -13.75,0 z" /></clipPath><linearGradient
       id="linearGradient416"
       spreadMethod="pad"
       gradientTransform="matrix(6.875,-6.875,-6.875,-6.875,124.5625,120.1875)"
       gradientUnits="userSpaceOnUse"
       y2="0"
       x2="1"
       y1="0"
       x1="0"><stop
         id="stop418"
         offset="0"
         style="stop-opacity:1;stop-color:#e6e7e8" /><stop
         id="stop420"
         offset="1"
         style="stop-opacity:1;stop-color:#d1d3d4" /></linearGradient><clipPath
       id="clipPath428"
       clipPathUnits="userSpaceOnUse"><path
         id="path430"
         d="m 121.754,131.93 c -0.126,-2.814 2.669,-5.18 6.246,-5.18 l 0,0 c 3.578,0 6.372,2.366 6.246,5.18 l 0,0 c -0.122,2.705 -2.916,4.82 -6.246,4.82 l 0,0 c -3.329,0 -6.125,-2.115 -6.246,-4.82" /></clipPath><linearGradient
       id="linearGradient436"
       spreadMethod="pad"
       gradientTransform="matrix(8.0046806,-8.0046806,-8.0046806,-8.0046806,123.99787,135.74744)"
       gradientUnits="userSpaceOnUse"
       y2="0"
       x2="1"
       y1="0"
       x1="0"><stop
         id="stop438"
         offset="0"
         style="stop-opacity:1;stop-color:#e6e7e8" /><stop
         id="stop440"
         offset="1"
         style="stop-opacity:1;stop-color:#d1d3d4" /></linearGradient><clipPath
       id="clipPath448"
       clipPathUnits="userSpaceOnUse"><path
         id="path450"
         d="m 145.32,126.75 5.18,5.177 -6.25,4.823 1.07,-10 z" /></clipPath><linearGradient
       id="linearGradient456"
       spreadMethod="pad"
       gradientTransform="matrix(5.5363135,-5.5363135,-5.5363135,-5.5363135,142.37431,134.87431)"
       gradientUnits="userSpaceOnUse"
       y2="0"
       x2="1"
       y1="0"
       x1="0"><stop
         id="stop458"
         offset="0"
         style="stop-opacity:1;stop-color:#e6e7e8" /><stop
         id="stop460"
         offset="1"
         style="stop-opacity:1;stop-color:#d1d3d4" /></linearGradient><clipPath
       id="clipPath468"
       clipPathUnits="userSpaceOnUse"><path
         id="path470"
         d="m 22,174 c 0,-11.046 8.954,-20 20,-20 l 0,0 c 11.046,0 20,8.954 20,20 l 0,0 c 0,11.046 -8.954,20 -20,20 l 0,0 c -11.046,0 -20,-8.954 -20,-20" /></clipPath><linearGradient
       id="linearGradient476"
       spreadMethod="pad"
       gradientTransform="matrix(-28.284271,28.284271,28.284271,28.284271,56.142136,159.85786)"
       gradientUnits="userSpaceOnUse"
       y2="0"
       x2="1"
       y1="0"
       x1="0"><stop
         id="stop478"
         offset="0"
         style="stop-opacity:1;stop-color:#e6e7e8" /><stop
         id="stop480"
         offset="1"
         style="stop-opacity:1;stop-color:#d1d3d4" /></linearGradient><clipPath
       id="clipPath488"
       clipPathUnits="userSpaceOnUse"><path
         id="path490"
         d="m 194,174 c 0,-11.046 8.954,-20 20,-20 l 0,0 c 11.046,0 20,8.954 20,20 l 0,0 c 0,11.046 -8.954,20 -20,20 l 0,0 c -11.046,0 -20,-8.954 -20,-20" /></clipPath><linearGradient
       id="linearGradient496"
       spreadMethod="pad"
       gradientTransform="matrix(-28.284271,28.284271,28.284271,28.284271,228.14214,159.85786)"
       gradientUnits="userSpaceOnUse"
       y2="0"
       x2="1"
       y1="0"
       x1="0"><stop
         id="stop498"
         offset="0"
         style="stop-opacity:1;stop-color:#e6e7e8" /><stop
         id="stop500"
         offset="1"
         style="stop-opacity:1;stop-color:#d1d3d4" /></linearGradient></defs><g
     transform="matrix(1.25,0,0,-1.25,0,320)"
     id="g10"><g
       id="g12"><g
         clip-path="url(#clipPath16)"
         id="g14"><g
           id="g20"><g
             id="g22"><path
               id="path30"
               style="fill:url(#linearGradient24);stroke:none"
               d="m 126,228 0,-98.813 -86.958,-47.431 1.916,-3.512 87.042,47.478 87.042,-47.478 1.916,3.512 -86.958,47.431 0,98.813 -4,0 z" /></g></g></g></g><g
       id="g32"><g
         clip-path="url(#clipPath36)"
         id="g34"><g
           id="g40"><g
             id="g42"><path
               id="path50"
               style="fill:url(#linearGradient44);stroke:none"
               d="M 22,82 C 22,70.954 30.954,62 42,62 l 0,0 c 11.046,0 20,8.954 20,20 l 0,0 c 0,11.046 -8.954,20 -20,20 l 0,0 C 30.954,102 22,93.046 22,82" /></g></g></g></g><g
       id="g52"><g
         clip-path="url(#clipPath56)"
         id="g54"><g
           id="g60"><g
             id="g62"><path
               id="path70"
               style="fill:url(#linearGradient64);stroke:none"
               d="m 194,82 c 0,-11.046 8.954,-20 20,-20 l 0,0 c 11.046,0 20,8.954 20,20 l 0,0 c 0,11.046 -8.954,20 -20,20 l 0,0 c -11.046,0 -20,-8.954 -20,-20" /></g></g></g></g><g
       id="g72"><g
         clip-path="url(#clipPath76)"
         id="g74"><g
           id="g80"><g
             id="g82"><path
               id="path90"
               style="fill:url(#linearGradient84);stroke:none"
               d="m 108,32 c 0,-11.046 8.954,-20 20,-20 l 0,0 c 11.046,0 20,8.954 20,20 l 0,0 c 0,11.046 -8.954,20 -20,20 l 0,0 c -11.046,0 -20,-8.954 -20,-20" /></g></g></g></g><g
       id="g92"><g
         clip-path="url(#clipPath96)"
         id="g94"><g
           id="g100"><g
             id="g102"><path
               id="path110"
               style="fill:url(#linearGradient104);stroke:none"
               d="m 108,224 c 0,-11.046 8.954,-20 20,-20 l 0,0 c 11.046,0 20,8.954 20,20 l 0,0 c 0,11.046 -8.954,20 -20,20 l 0,0 c -11.046,0 -20,-8.954 -20,-20" /></g></g></g></g><g
       id="g112"><g
         clip-path="url(#clipPath116)"
         id="g114"><g
           id="g120"><g
             id="g122"><path
               id="path130"
               style="fill:url(#linearGradient124);stroke:none"
               d="m 126,84 4,0 0,8 -4,0 0,-8 z" /></g></g></g></g><g
       id="g132"><g
         clip-path="url(#clipPath136)"
         id="g134"><g
           id="g140"><g
             id="g142"><path
               id="path150"
               style="fill:url(#linearGradient144);stroke:none"
               d="m 126,52 4,0 0,8 -4,0 0,-8 z" /></g></g></g></g><g
       id="g152"><g
         clip-path="url(#clipPath156)"
         id="g154"><g
           id="g160"><g
             id="g162"><path
               id="path170"
               style="fill:url(#linearGradient164);stroke:none"
               d="m 126,68 4,0 0,7.999 -4,0 0,-7.999 z" /></g></g></g></g><g
       id="g172"><g
         clip-path="url(#clipPath176)"
         id="g174"><g
           id="g180"><g
             id="g182"><path
               id="path190"
               style="fill:url(#linearGradient184);stroke:none"
               d="m 89.182,147.259 6.439,-3.513 c 0.587,1.204 1.243,2.367 1.956,3.49 l 0,0 -6.48,3.535 -1.915,-3.512 z" /></g></g></g></g><g
       id="g192"><g
         clip-path="url(#clipPath196)"
         id="g194"><g
           id="g200"><g
             id="g202"><path
               id="path210"
               style="fill:url(#linearGradient204);stroke:none"
               d="m 75.135,154.921 7.022,-3.831 1.917,3.512 -7.023,3.83 -1.916,-3.511 z" /></g></g></g></g><g
       id="g212"><g
         clip-path="url(#clipPath216)"
         id="g214"><g
           id="g220"><g
             id="g222"><path
               id="path230"
               style="fill:url(#linearGradient224);stroke:none"
               d="m 47.042,170.244 7.023,-3.831 1.916,3.511 -7.023,3.832 -1.916,-3.512 z" /></g></g></g></g><g
       id="g232"><g
         clip-path="url(#clipPath236)"
         id="g234"><g
           id="g240"><g
             id="g242"><path
               id="path250"
               style="fill:url(#linearGradient244);stroke:none"
               d="m 200.019,169.924 1.916,-3.511 7.023,3.831 -1.916,3.512 -7.023,-3.832 z" /></g></g></g></g><g
       id="g252"><g
         clip-path="url(#clipPath256)"
         id="g254"><g
           id="g260"><g
             id="g262"><path
               id="path270"
               style="fill:url(#linearGradient264);stroke:none"
               d="m 61.089,162.582 7.023,-3.83 1.915,3.512 -7.023,3.83 -1.915,-3.512 z" /></g></g></g></g><g
       id="g272"><g
         clip-path="url(#clipPath276)"
         id="g274"><g
           id="g280"><g
             id="g282"><path
               id="path290"
               style="fill:url(#linearGradient284);stroke:none"
               d="m 158.423,147.236 c 0.712,-1.123 1.369,-2.286 1.956,-3.49 l 0,0 6.441,3.513 -1.917,3.512 -6.48,-3.535 z" /></g></g></g></g><g
       id="g292"><g
         clip-path="url(#clipPath296)"
         id="g294"><g
           id="g300"><g
             id="g302"><path
               id="path310"
               style="fill:url(#linearGradient304);stroke:none"
               d="m 185.972,162.264 1.917,-3.512 7.023,3.83 -1.916,3.512 -7.024,-3.83 z" /></g></g></g></g><g
       id="g312"><g
         clip-path="url(#clipPath316)"
         id="g314"><g
           id="g320"><g
             id="g322"><path
               id="path330"
               style="fill:url(#linearGradient324);stroke:none"
               d="m 171.926,154.602 1.916,-3.512 7.023,3.831 -1.916,3.511 -7.023,-3.83 z" /></g></g></g></g><g
       id="g332"><g
         clip-path="url(#clipPath336)"
         id="g334"><g
           id="g340"><g
             id="g342"><path
               id="path350"
               style="fill:url(#linearGradient344);stroke:none"
               d="m 92,128 c 0,-19.882 16.118,-36 36,-36 l 0,0 c 19.882,0 36,16.118 36,36 l 0,0 c 0,19.883 -16.118,36 -36,36 l 0,0 c -19.882,0 -36,-16.117 -36,-36" /></g></g></g></g><g
       id="g352"><g
         clip-path="url(#clipPath356)"
         id="g354"><g
           transform="translate(137.4492,140.6396)"
           id="g360"><path
             id="path362"
             style="fill:#999999;fill-opacity:1;fill-rule:nonzero;stroke:none"
             d="m 0,0 -0.893,12.36 -11.498,0 c -3.827,0 -7.095,-2.293 -7.308,-5.238 L -20.213,0 -37.235,0 -39.334,-10.824 c -0.772,-3.984 2.416,-7.371 7.16,-7.371 l 10.646,0 -1.405,-19.445 16.006,0 c 5.328,0 9.339,4.261 8.979,9.244 l -0.738,10.201 19.237,0 -2.302,11.867 C 17.558,-2.764 13.619,0 9.421,0 L 0,0 Z" /></g></g></g><g
       id="g364"><g
         clip-path="url(#clipPath368)"
         id="g366"><g
           id="g372"><g
             id="g374"><path
               id="path382"
               style="fill:url(#linearGradient376);stroke:none"
               d="m 104.25,131.927 5.18,-5.177 1.07,10 -6.25,-4.823 z" /></g></g></g></g><g
       id="g384"><g
         clip-path="url(#clipPath388)"
         id="g386"><g
           id="g392"><g
             id="g394"><path
               id="path402"
               style="fill:url(#linearGradient396);stroke:none"
               d="m 122.375,145.007 11.25,0 -5.625,3.75 -5.625,-3.75 z" /></g></g></g></g><g
       id="g404"><g
         clip-path="url(#clipPath408)"
         id="g406"><g
           id="g412"><g
             id="g414"><path
               id="path422"
               style="fill:url(#linearGradient416);stroke:none"
               d="m 121.125,116.75 6.875,-6.25 6.875,6.25 -13.75,0 z" /></g></g></g></g><g
       id="g424"><g
         clip-path="url(#clipPath428)"
         id="g426"><g
           id="g432"><g
             id="g434"><path
               id="path442"
               style="fill:url(#linearGradient436);stroke:none"
               d="m 121.754,131.93 c -0.126,-2.814 2.669,-5.18 6.246,-5.18 l 0,0 c 3.578,0 6.372,2.366 6.246,5.18 l 0,0 c -0.122,2.705 -2.916,4.82 -6.246,4.82 l 0,0 c -3.329,0 -6.125,-2.115 -6.246,-4.82" /></g></g></g></g><g
       id="g444"><g
         clip-path="url(#clipPath448)"
         id="g446"><g
           id="g452"><g
             id="g454"><path
               id="path462"
               style="fill:url(#linearGradient456);stroke:none"
               d="m 145.32,126.75 5.18,5.177 -6.25,4.823 1.07,-10 z" /></g></g></g></g><g
       id="g464"><g
         clip-path="url(#clipPath468)"
         id="g466"><g
           id="g472"><g
             id="g474"><path
               id="path482"
               style="fill:url(#linearGradient476);stroke:none"
               d="m 22,174 c 0,-11.046 8.954,-20 20,-20 l 0,0 c 11.046,0 20,8.954 20,20 l 0,0 c 0,11.046 -8.954,20 -20,20 l 0,0 c -11.046,0 -20,-8.954 -20,-20" /></g></g></g></g><g
       id="g484"><g
         clip-path="url(#clipPath488)"
         id="g486"><g
           id="g492"><g
             id="g494"><path
               id="path502"
               style="fill:url(#linearGradient496);stroke:none"
               d="m 194,174 c 0,-11.046 8.954,-20 20,-20 l 0,0 c 11.046,0 20,8.954 20,20 l 0,0 c 0,11.046 -8.954,20 -20,20 l 0,0 c -11.046,0 -20,-8.954 -20,-20" /></g></g></g></g></g></svg>