<?xml version="1.0" encoding="UTF-8" standalone="no"?>
<svg
   xmlns:dc="http://purl.org/dc/elements/1.1/"
   xmlns:cc="http://creativecommons.org/ns#"
   xmlns:rdf="http://www.w3.org/1999/02/22-rdf-syntax-ns#"
   xmlns:svg="http://www.w3.org/2000/svg"
   xmlns="http://www.w3.org/2000/svg"
   viewBox="0 0 320 320"
   height="320"
   width="320"
   xml:space="preserve"
   version="1.1"
   id="svg2"><metadata
     id="metadata8"><rdf:RDF><cc:Work
         rdf:about=""><dc:format>image/svg+xml</dc:format><dc:type
           rdf:resource="http://purl.org/dc/dcmitype/StillImage" /></cc:Work></rdf:RDF></metadata><defs
     id="defs6"><clipPath
       id="clipPath16"
       clipPathUnits="userSpaceOnUse"><path
         id="path18"
         d="m 160,110 0,36 -32,18 -32,-18 0,-36 32,-18 32,18 z" /></clipPath><linearGradient
       id="linearGradient24"
       spreadMethod="pad"
       gradientTransform="matrix(50.000004,-50.000004,-50.000004,-50.000004,103,153)"
       gradientUnits="userSpaceOnUse"
       y2="0"
       x2="1"
       y1="0"
       x1="0"><stop
         id="stop26"
         offset="0"
         style="stop-opacity:1;stop-color:#e6e7e8" /><stop
         id="stop28"
         offset="1"
         style="stop-opacity:1;stop-color:#d1d3d4" /></linearGradient><clipPath
       id="clipPath36"
       clipPathUnits="userSpaceOnUse"><path
         id="path38"
         d="M 0,256 256,256 256,0 0,0 0,256 Z" /></clipPath><clipPath
       id="clipPath48"
       clipPathUnits="userSpaceOnUse"><path
         id="path50"
         d="m 129.861,224 3.464,-2 2,3.464 -3.463,2 -2.001,-3.464 z m 6.929,-3.999 3.464,-2 2,3.464 -3.464,2 -2,-3.464 z m 6.927,-4 3.465,-2.001 1.999,3.464 -3.463,2 -2.001,-3.463 z m 6.929,-4.001 3.465,-1.999 1.999,3.464 -3.464,1.999 -2,-3.464 z m 6.928,-3.999 3.464,-2.001 2,3.464 -3.464,2 -2,-3.463 z m 6.929,-4.001 3.464,-1.999 2,3.464 -3.464,1.999 -2,-3.464 z m 6.928,-3.999 3.463,-2 2,3.463 -3.463,2.001 -2,-3.464 z m 6.928,-4.001 3.464,-2 2,3.464 -3.464,2 -2,-3.464 z m 6.928,-3.999 3.464,-2 2,3.463 -3.464,2.001 -2,-3.464 z m 6.929,-4.001 3.464,-2 2,3.464 -3.465,2 -1.999,-3.464 z m 6.928,-3.999 3.463,-2 2.001,3.464 -3.464,2 -2,-3.464 z m 6.928,-4 3.464,-2.001 2,3.464 -3.464,2 -2,-3.463 z m 5.928,-6.269 4,0 0,4 -4,0 0,-4 z m 0,-8 4,0 0,4.001 -4,0 0,-4.001 z m 0,-8 4,0 0,4.001 -4,0 0,-4.001 z m 0,-8 4,0 0,4 -4,0 0,-4 z m 0,-8 4,0 0,4.001 -4,0 0,-4.001 z m 0,-7.999 4,0 0,4 -4,0 0,-4 z m 0,-8 4,0 0,4 -4,0 0,-4 z m 0,-8 4,0 0,4 -4,0 0,-4 z m 0,-8.001 4,0 0,4 -4,0 0,-4 z m 0,-8 4,0 0,4 -4,0 0,-4 z m 0,-8 4,0 0,4.001 -4,0 0,-4.001 z m 0,-8 4,0 0,4.001 -4,0 0,-4.001 z m 0,-8 4,0 0,4.001 -4,0 0,-4.001 z m -5.928,-2.267 2,-3.465 3.464,2 -2,3.465 -3.464,-2 z m -6.928,-4 2,-3.465 3.464,2 -2.001,3.465 -3.463,-2 z m -6.928,-4 1.999,-3.465 3.465,2 -2,3.465 -3.464,-2 z m -6.929,-4.001 2,-3.464 3.464,2 -2,3.465 -3.464,-2.001 z m -6.928,-3.999 2,-3.465 3.464,2 -2,3.465 -3.464,-2 z m -6.928,-4 2,-3.465 3.463,2 -2,3.465 -3.463,-2 z m -6.928,-4 2,-3.465 3.464,2 -2,3.465 -3.464,-2 z m -6.929,-4 2,-3.465 3.464,2 -2,3.465 -3.464,-2 z m -6.928,-4 2,-3.465 3.464,2 -1.999,3.464 -3.465,-1.999 z m -6.929,-4 2.001,-3.465 3.464,2 -2,3.465 -3.465,-2 z m -6.927,-4 2,-3.465 3.464,2 -2,3.465 -3.464,-2 z m -6.929,-4 2.001,-3.465 3.464,2 -2,3.465 -3.465,-2 z" /></clipPath><linearGradient
       id="linearGradient56"
       spreadMethod="pad"
       gradientTransform="matrix(116.9353,-116.9353,-116.9353,-116.9353,90.596924,186.19995)"
       gradientUnits="userSpaceOnUse"
       y2="0"
       x2="1"
       y1="0"
       x1="0"><stop
         id="stop58"
         offset="0"
         style="stop-opacity:1;stop-color:#e6e7e8" /><stop
         id="stop60"
         offset="1"
         style="stop-opacity:1;stop-color:#d1d3d4" /></linearGradient><clipPath
       id="clipPath68"
       clipPathUnits="userSpaceOnUse"><path
         id="path70"
         d="m 120.675,225.732 1.999,-3.464 3.465,2 -2,3.463 -3.464,-1.999 z m -6.928,-4 1.999,-3.464 3.464,2 -2,3.464 -3.463,-2 z m -6.929,-4 2,-3.464 3.464,2 -2,3.464 -3.464,-2 z m -6.929,-4 2.001,-3.464 3.463,2 -2,3.464 -3.464,-2 z m -6.927,-4.001 2,-3.463 3.464,2 -2,3.464 -3.464,-2.001 z m -6.929,-3.999 2.001,-3.464 3.463,2 -2,3.464 -3.464,-2 z m -6.928,-4 2,-3.464 3.464,2 -1.999,3.464 -3.465,-2 z m -6.929,-4 2.001,-3.464 3.463,2 -1.999,3.464 -3.465,-2 z m -6.927,-4 2,-3.464 3.464,2 -2,3.464 -3.464,-2 z m -6.929,-4 2.001,-3.464 3.463,2 -2,3.463 -3.464,-1.999 z m -6.927,-4 2,-3.464 3.464,2 -2,3.464 -3.464,-2 z m -6.929,-4 2,-3.464 3.464,2 -2,3.464 -3.464,-2 z M 40,174 l 4.001,0 0,4.001 -4.001,0 0,-4.001 z m 0,-8 4.001,0 0,4 -4.001,0 0,-4 z m 0,-8 4.001,0 0,4 -4.001,0 0,-4 z m 0,-8 4.001,0 0,4 -4.001,0 0,-4 z m 0,-8 4.001,0 0,4 -4.001,0 0,-4 z m 0,-8 4.001,0 0,4 -4.001,0 0,-4 z m 0,-8 4.001,0 0,4 -4.001,0 0,-4 z m 0,-8 4.001,0 0,4.001 -4.001,0 0,-4.001 z m 0,-8 4.001,0 0,4.001 -4.001,0 0,-4.001 z m 0,-8 4.001,0 0,4.001 -4.001,0 0,-4.001 z m 0,-8 4.001,0 0,4.001 -4.001,0 L 40,94 Z m 0,-8 4.001,0 0,4 -4.001,0 0,-4 z m 0,-8 4.001,0 0,4 -4.001,0 0,-4 z m 4.464,-3.732 3.464,-2.001 2,3.465 -3.464,2 -2,-3.464 z m 6.929,-4 3.464,-2 2,3.465 -3.464,1.999 -2,-3.464 z m 6.927,-4 3.464,-2.001 2,3.465 -3.463,2 -2.001,-3.464 z m 6.929,-4.001 3.464,-1.999 2,3.465 -3.464,1.999 -2,-3.465 z m 6.927,-3.999 3.465,-2 1.999,3.464 -3.463,2.001 -2.001,-3.465 z m 6.929,-4.001 3.465,-1.999 1.999,3.464 -3.464,2 -2,-3.465 z m 6.928,-3.999 3.464,-2 2,3.464 -3.463,2.001 -2.001,-3.465 z m 6.929,-4.001 3.464,-2 2,3.465 -3.464,2 -2,-3.465 z m 6.927,-3.999 3.464,-2 2,3.465 -3.463,2 -2.001,-3.465 z m 6.928,-4 3.465,-2.001 2,3.465 -3.465,2 -2,-3.464 z m 6.93,-4 3.463,-2 2,3.465 -3.464,1.999 -1.999,-3.464 z m 6.927,-4 3.465,-2.001 2,3.465 -3.465,2 -2,-3.464 z" /></clipPath><linearGradient
       id="linearGradient76"
       spreadMethod="pad"
       gradientTransform="matrix(116.93555,-116.93555,-116.93555,-116.93555,48.467651,186.46765)"
       gradientUnits="userSpaceOnUse"
       y2="0"
       x2="1"
       y1="0"
       x1="0"><stop
         id="stop78"
         offset="0"
         style="stop-opacity:1;stop-color:#e6e7e8" /><stop
         id="stop80"
         offset="1"
         style="stop-opacity:1;stop-color:#d1d3d4" /></linearGradient><clipPath
       id="clipPath88"
       clipPathUnits="userSpaceOnUse"><path
         id="path90"
         d="m 126,164 4,0 0,8 -4,0 0,-8 z" /></clipPath><linearGradient
       id="linearGradient96"
       spreadMethod="pad"
       gradientTransform="matrix(-5.9999995,5.9999995,5.9999995,5.9999995,131,165)"
       gradientUnits="userSpaceOnUse"
       y2="0"
       x2="1"
       y1="0"
       x1="0"><stop
         id="stop98"
         offset="0"
         style="stop-opacity:1;stop-color:#e6e7e8" /><stop
         id="stop100"
         offset="1"
         style="stop-opacity:1;stop-color:#d1d3d4" /></linearGradient><clipPath
       id="clipPath108"
       clipPathUnits="userSpaceOnUse"><path
         id="path110"
         d="m 126,196 4,0 0,8 -4,0 0,-8 z" /></clipPath><linearGradient
       id="linearGradient116"
       spreadMethod="pad"
       gradientTransform="matrix(-5.9999995,5.9999995,5.9999995,5.9999995,131,197)"
       gradientUnits="userSpaceOnUse"
       y2="0"
       x2="1"
       y1="0"
       x1="0"><stop
         id="stop118"
         offset="0"
         style="stop-opacity:1;stop-color:#e6e7e8" /><stop
         id="stop120"
         offset="1"
         style="stop-opacity:1;stop-color:#d1d3d4" /></linearGradient><clipPath
       id="clipPath128"
       clipPathUnits="userSpaceOnUse"><path
         id="path130"
         d="m 126,180 4,0 0,8 -4,0 0,-8 z" /></clipPath><linearGradient
       id="linearGradient136"
       spreadMethod="pad"
       gradientTransform="matrix(-5.9999995,5.9999995,5.9999995,5.9999995,131,181)"
       gradientUnits="userSpaceOnUse"
       y2="0"
       x2="1"
       y1="0"
       x1="0"><stop
         id="stop138"
         offset="0"
         style="stop-opacity:1;stop-color:#e6e7e8" /><stop
         id="stop140"
         offset="1"
         style="stop-opacity:1;stop-color:#d1d3d4" /></linearGradient><clipPath
       id="clipPath148"
       clipPathUnits="userSpaceOnUse"><path
         id="path150"
         d="m 158.423,108.764 6.48,-3.534 1.916,3.512 -6.44,3.511 c -0.587,-1.203 -1.244,-2.366 -1.956,-3.489" /></clipPath><linearGradient
       id="linearGradient156"
       spreadMethod="pad"
       gradientTransform="matrix(-5.7742004,5.7742004,5.7742004,5.7742004,165.52348,105.84966)"
       gradientUnits="userSpaceOnUse"
       y2="0"
       x2="1"
       y1="0"
       x1="0"><stop
         id="stop158"
         offset="0"
         style="stop-opacity:1;stop-color:#e6e7e8" /><stop
         id="stop160"
         offset="1"
         style="stop-opacity:1;stop-color:#d1d3d4" /></linearGradient><clipPath
       id="clipPath168"
       clipPathUnits="userSpaceOnUse"><path
         id="path170"
         d="m 171.926,101.398 7.023,-3.831 1.916,3.512 -7.023,3.831 -1.916,-3.512 z" /></clipPath><linearGradient
       id="linearGradient176"
       spreadMethod="pad"
       gradientTransform="matrix(-6.2248535,6.2248535,6.2248535,6.2248535,179.50818,98.126343)"
       gradientUnits="userSpaceOnUse"
       y2="0"
       x2="1"
       y1="0"
       x1="0"><stop
         id="stop178"
         offset="0"
         style="stop-opacity:1;stop-color:#e6e7e8" /><stop
         id="stop180"
         offset="1"
         style="stop-opacity:1;stop-color:#d1d3d4" /></linearGradient><clipPath
       id="clipPath188"
       clipPathUnits="userSpaceOnUse"><path
         id="path190"
         d="m 200.019,86.075 7.023,-3.831 1.916,3.512 -7.023,3.831 -1.916,-3.512 z" /></clipPath><linearGradient
       id="linearGradient196"
       spreadMethod="pad"
       gradientTransform="matrix(-6.2248535,6.2248535,6.2248535,6.2248535,207.60095,82.803101)"
       gradientUnits="userSpaceOnUse"
       y2="0"
       x2="1"
       y1="0"
       x1="0"><stop
         id="stop198"
         offset="0"
         style="stop-opacity:1;stop-color:#e6e7e8" /><stop
         id="stop200"
         offset="1"
         style="stop-opacity:1;stop-color:#d1d3d4" /></linearGradient><clipPath
       id="clipPath208"
       clipPathUnits="userSpaceOnUse"><path
         id="path210"
         d="m 47.042,85.756 1.916,-3.512 7.024,3.831 -1.916,3.512 -7.024,-3.831 z" /></clipPath><linearGradient
       id="linearGradient216"
       spreadMethod="pad"
       gradientTransform="matrix(-4.3100586,4.3100586,4.3100586,4.3100586,53.666744,83.760498)"
       gradientUnits="userSpaceOnUse"
       y2="0"
       x2="1"
       y1="0"
       x1="0"><stop
         id="stop218"
         offset="0"
         style="stop-opacity:1;stop-color:#e6e7e8" /><stop
         id="stop220"
         offset="1"
         style="stop-opacity:1;stop-color:#d1d3d4" /></linearGradient><clipPath
       id="clipPath228"
       clipPathUnits="userSpaceOnUse"><path
         id="path230"
         d="m 185.972,93.736 7.024,-3.83 1.915,3.512 -7.023,3.83 -1.916,-3.512 z" /></clipPath><linearGradient
       id="linearGradient236"
       spreadMethod="pad"
       gradientTransform="matrix(-6.2248535,6.2248535,6.2248535,6.2248535,193.55457,90.464722)"
       gradientUnits="userSpaceOnUse"
       y2="0"
       x2="1"
       y1="0"
       x1="0"><stop
         id="stop238"
         offset="0"
         style="stop-opacity:1;stop-color:#e6e7e8" /><stop
         id="stop240"
         offset="1"
         style="stop-opacity:1;stop-color:#d1d3d4" /></linearGradient><clipPath
       id="clipPath248"
       clipPathUnits="userSpaceOnUse"><path
         id="path250"
         d="m 89.181,108.742 1.916,-3.512 6.48,3.534 c -0.713,1.123 -1.37,2.286 -1.956,3.49 l 0,0 -6.44,-3.512 z" /></clipPath><linearGradient
       id="linearGradient256"
       spreadMethod="pad"
       gradientTransform="matrix(-4.1870728,4.1870728,4.1870728,4.1870728,95.457001,106.6434)"
       gradientUnits="userSpaceOnUse"
       y2="0"
       x2="1"
       y1="0"
       x1="0"><stop
         id="stop258"
         offset="0"
         style="stop-opacity:1;stop-color:#e6e7e8" /><stop
         id="stop260"
         offset="1"
         style="stop-opacity:1;stop-color:#d1d3d4" /></linearGradient><clipPath
       id="clipPath268"
       clipPathUnits="userSpaceOnUse"><path
         id="path270"
         d="m 61.087,93.418 1.917,-3.512 7.023,3.83 -1.916,3.512 -7.024,-3.83 z" /></clipPath><linearGradient
       id="linearGradient276"
       spreadMethod="pad"
       gradientTransform="matrix(-4.3105469,4.3105469,4.3105469,4.3105469,67.712891,91.421875)"
       gradientUnits="userSpaceOnUse"
       y2="0"
       x2="1"
       y1="0"
       x1="0"><stop
         id="stop278"
         offset="0"
         style="stop-opacity:1;stop-color:#e6e7e8" /><stop
         id="stop280"
         offset="1"
         style="stop-opacity:1;stop-color:#d1d3d4" /></linearGradient><clipPath
       id="clipPath288"
       clipPathUnits="userSpaceOnUse"><path
         id="path290"
         d="m 75.135,101.079 1.916,-3.512 7.023,3.831 -1.916,3.512 -7.023,-3.831 z" /></clipPath><linearGradient
       id="linearGradient296"
       spreadMethod="pad"
       gradientTransform="matrix(-4.3100586,4.3100586,4.3100586,4.3100586,81.759522,99.08374)"
       gradientUnits="userSpaceOnUse"
       y2="0"
       x2="1"
       y1="0"
       x1="0"><stop
         id="stop298"
         offset="0"
         style="stop-opacity:1;stop-color:#e6e7e8" /><stop
         id="stop300"
         offset="1"
         style="stop-opacity:1;stop-color:#d1d3d4" /></linearGradient><clipPath
       id="clipPath308"
       clipPathUnits="userSpaceOnUse"><path
         id="path310"
         d="M 22,82 C 22,70.954 30.954,62 42,62 l 0,0 c 11.046,0 20,8.954 20,20 l 0,0 c 0,11.046 -8.954,20 -20,20 l 0,0 C 30.954,102 22,93.046 22,82" /></clipPath><linearGradient
       id="linearGradient316"
       spreadMethod="pad"
       gradientTransform="matrix(28.284271,-28.284271,-28.284271,-28.284271,27.857864,96.142136)"
       gradientUnits="userSpaceOnUse"
       y2="0"
       x2="1"
       y1="0"
       x1="0"><stop
         id="stop318"
         offset="0"
         style="stop-opacity:1;stop-color:#e6e7e8" /><stop
         id="stop320"
         offset="1"
         style="stop-opacity:1;stop-color:#d1d3d4" /></linearGradient><clipPath
       id="clipPath328"
       clipPathUnits="userSpaceOnUse"><path
         id="path330"
         d="m 194,82 c 0,-11.046 8.954,-20 20,-20 l 0,0 c 11.046,0 20,8.954 20,20 l 0,0 c 0,11.046 -8.954,20 -20,20 l 0,0 c -11.046,0 -20,-8.954 -20,-20" /></clipPath><linearGradient
       id="linearGradient336"
       spreadMethod="pad"
       gradientTransform="matrix(28.284271,-28.284271,-28.284271,-28.284271,199.85786,96.142136)"
       gradientUnits="userSpaceOnUse"
       y2="0"
       x2="1"
       y1="0"
       x1="0"><stop
         id="stop338"
         offset="0"
         style="stop-opacity:1;stop-color:#e6e7e8" /><stop
         id="stop340"
         offset="1"
         style="stop-opacity:1;stop-color:#d1d3d4" /></linearGradient><clipPath
       id="clipPath348"
       clipPathUnits="userSpaceOnUse"><path
         id="path350"
         d="m 108,32 c 0,-11.046 8.954,-20 20,-20 l 0,0 c 11.046,0 20,8.954 20,20 l 0,0 c 0,11.046 -8.954,20 -20,20 l 0,0 c -11.046,0 -20,-8.954 -20,-20" /></clipPath><linearGradient
       id="linearGradient356"
       spreadMethod="pad"
       gradientTransform="matrix(-28.284271,28.284271,28.284271,28.284271,142.14214,17.857864)"
       gradientUnits="userSpaceOnUse"
       y2="0"
       x2="1"
       y1="0"
       x1="0"><stop
         id="stop358"
         offset="0"
         style="stop-opacity:1;stop-color:#e6e7e8" /><stop
         id="stop360"
         offset="1"
         style="stop-opacity:1;stop-color:#d1d3d4" /></linearGradient><clipPath
       id="clipPath368"
       clipPathUnits="userSpaceOnUse"><path
         id="path370"
         d="m 108,224 c 0,-11.046 8.954,-20 20,-20 l 0,0 c 11.046,0 20,8.954 20,20 l 0,0 c 0,11.046 -8.954,20 -20,20 l 0,0 c -11.046,0 -20,-8.954 -20,-20" /></clipPath><linearGradient
       id="linearGradient376"
       spreadMethod="pad"
       gradientTransform="matrix(28.284271,-28.284271,-28.284271,-28.284271,113.85786,238.14214)"
       gradientUnits="userSpaceOnUse"
       y2="0"
       x2="1"
       y1="0"
       x1="0"><stop
         id="stop378"
         offset="0"
         style="stop-opacity:1;stop-color:#e6e7e8" /><stop
         id="stop380"
         offset="1"
         style="stop-opacity:1;stop-color:#d1d3d4" /></linearGradient><clipPath
       id="clipPath388"
       clipPathUnits="userSpaceOnUse"><path
         id="path390"
         d="m 22,174 c 0,-11.046 8.954,-20 20,-20 l 0,0 c 11.046,0 20,8.954 20,20 l 0,0 c 0,11.046 -8.954,20 -20,20 l 0,0 c -11.046,0 -20,-8.954 -20,-20" /></clipPath><linearGradient
       id="linearGradient396"
       spreadMethod="pad"
       gradientTransform="matrix(-28.284271,28.284271,28.284271,28.284271,56.142136,159.85786)"
       gradientUnits="userSpaceOnUse"
       y2="0"
       x2="1"
       y1="0"
       x1="0"><stop
         id="stop398"
         offset="0"
         style="stop-opacity:1;stop-color:#e6e7e8" /><stop
         id="stop400"
         offset="1"
         style="stop-opacity:1;stop-color:#d1d3d4" /></linearGradient><clipPath
       id="clipPath408"
       clipPathUnits="userSpaceOnUse"><path
         id="path410"
         d="m 194,174 c 0,-11.046 8.954,-20 20,-20 l 0,0 c 11.046,0 20,8.954 20,20 l 0,0 c 0,11.046 -8.954,20 -20,20 l 0,0 c -11.046,0 -20,-8.954 -20,-20" /></clipPath><linearGradient
       id="linearGradient416"
       spreadMethod="pad"
       gradientTransform="matrix(-28.284271,28.284271,28.284271,28.284271,228.14214,159.85786)"
       gradientUnits="userSpaceOnUse"
       y2="0"
       x2="1"
       y1="0"
       x1="0"><stop
         id="stop418"
         offset="0"
         style="stop-opacity:1;stop-color:#e6e7e8" /><stop
         id="stop420"
         offset="1"
         style="stop-opacity:1;stop-color:#d1d3d4" /></linearGradient></defs><g
     transform="matrix(1.25,0,0,-1.25,0,320)"
     id="g10"><g
       id="g12"><g
         clip-path="url(#clipPath16)"
         id="g14"><g
           id="g20"><g
             id="g22"><path
               id="path30"
               style="fill:url(#linearGradient24);stroke:none"
               d="m 160,110 0,36 -32,18 -32,-18 0,-36 32,-18 32,18 z" /></g></g></g></g><g
       id="g32"><g
         clip-path="url(#clipPath36)"
         id="g34"><g
           transform="translate(136.6201,132.3613)"
           id="g40"><path
             id="path42"
             style="fill:#999999;fill-opacity:1;fill-rule:nonzero;stroke:none"
             d="m 0,0 -8.62,0 -8.62,0 0,5.422 c 0,4.849 3.867,8.795 8.62,8.795 4.753,0 8.62,-3.946 8.62,-8.795 L 0,0 Z m 5.963,0 -0.65,0 0,5.422 c 0,7.851 -6.238,14.217 -13.933,14.217 -7.695,0 -13.934,-6.366 -13.934,-14.217 l 0,-5.422 -0.649,0 c -0.783,0 -1.417,-0.647 -1.417,-1.446 l 0,-17.469 c 0,-0.799 0.634,-1.446 1.417,-1.446 l 29.166,0 c 0.782,0 1.417,0.647 1.417,1.446 l 0,17.469 C 7.38,-0.647 6.745,0 5.963,0" /></g></g></g><g
       id="g44"><g
         clip-path="url(#clipPath48)"
         id="g46"><g
           id="g52"><g
             id="g54"><path
               id="path62"
               style="fill:url(#linearGradient56);stroke:none"
               d="m 129.861,224 3.464,-2 2,3.464 -3.463,2 -2.001,-3.464 z m 6.929,-3.999 3.464,-2 2,3.464 -3.464,2 -2,-3.464 z m 6.927,-4 3.465,-2.001 1.999,3.464 -3.463,2 -2.001,-3.463 z m 6.929,-4.001 3.465,-1.999 1.999,3.464 -3.464,1.999 -2,-3.464 z m 6.928,-3.999 3.464,-2.001 2,3.464 -3.464,2 -2,-3.463 z m 6.929,-4.001 3.464,-1.999 2,3.464 -3.464,1.999 -2,-3.464 z m 6.928,-3.999 3.463,-2 2,3.463 -3.463,2.001 -2,-3.464 z m 6.928,-4.001 3.464,-2 2,3.464 -3.464,2 -2,-3.464 z m 6.928,-3.999 3.464,-2 2,3.463 -3.464,2.001 -2,-3.464 z m 6.929,-4.001 3.464,-2 2,3.464 -3.465,2 -1.999,-3.464 z m 6.928,-3.999 3.463,-2 2.001,3.464 -3.464,2 -2,-3.464 z m 6.928,-4 3.464,-2.001 2,3.464 -3.464,2 -2,-3.463 z m 5.928,-6.269 4,0 0,4 -4,0 0,-4 z m 0,-8 4,0 0,4.001 -4,0 0,-4.001 z m 0,-8 4,0 0,4.001 -4,0 0,-4.001 z m 0,-8 4,0 0,4 -4,0 0,-4 z m 0,-8 4,0 0,4.001 -4,0 0,-4.001 z m 0,-7.999 4,0 0,4 -4,0 0,-4 z m 0,-8 4,0 0,4 -4,0 0,-4 z m 0,-8 4,0 0,4 -4,0 0,-4 z m 0,-8.001 4,0 0,4 -4,0 0,-4 z m 0,-8 4,0 0,4 -4,0 0,-4 z m 0,-8 4,0 0,4.001 -4,0 0,-4.001 z m 0,-8 4,0 0,4.001 -4,0 0,-4.001 z m 0,-8 4,0 0,4.001 -4,0 0,-4.001 z m -5.928,-2.267 2,-3.465 3.464,2 -2,3.465 -3.464,-2 z m -6.928,-4 2,-3.465 3.464,2 -2.001,3.465 -3.463,-2 z m -6.928,-4 1.999,-3.465 3.465,2 -2,3.465 -3.464,-2 z m -6.929,-4.001 2,-3.464 3.464,2 -2,3.465 -3.464,-2.001 z m -6.928,-3.999 2,-3.465 3.464,2 -2,3.465 -3.464,-2 z m -6.928,-4 2,-3.465 3.463,2 -2,3.465 -3.463,-2 z m -6.928,-4 2,-3.465 3.464,2 -2,3.465 -3.464,-2 z m -6.929,-4 2,-3.465 3.464,2 -2,3.465 -3.464,-2 z m -6.928,-4 2,-3.465 3.464,2 -1.999,3.464 -3.465,-1.999 z m -6.929,-4 2.001,-3.465 3.464,2 -2,3.465 -3.465,-2 z m -6.927,-4 2,-3.465 3.464,2 -2,3.465 -3.464,-2 z m -6.929,-4 2.001,-3.465 3.464,2 -2,3.465 -3.465,-2 z" /></g></g></g></g><g
       id="g64"><g
         clip-path="url(#clipPath68)"
         id="g66"><g
           id="g72"><g
             id="g74"><path
               id="path82"
               style="fill:url(#linearGradient76);stroke:none"
               d="m 120.675,225.732 1.999,-3.464 3.465,2 -2,3.463 -3.464,-1.999 z m -6.928,-4 1.999,-3.464 3.464,2 -2,3.464 -3.463,-2 z m -6.929,-4 2,-3.464 3.464,2 -2,3.464 -3.464,-2 z m -6.929,-4 2.001,-3.464 3.463,2 -2,3.464 -3.464,-2 z m -6.927,-4.001 2,-3.463 3.464,2 -2,3.464 -3.464,-2.001 z m -6.929,-3.999 2.001,-3.464 3.463,2 -2,3.464 -3.464,-2 z m -6.928,-4 2,-3.464 3.464,2 -1.999,3.464 -3.465,-2 z m -6.929,-4 2.001,-3.464 3.463,2 -1.999,3.464 -3.465,-2 z m -6.927,-4 2,-3.464 3.464,2 -2,3.464 -3.464,-2 z m -6.929,-4 2.001,-3.464 3.463,2 -2,3.463 -3.464,-1.999 z m -6.927,-4 2,-3.464 3.464,2 -2,3.464 -3.464,-2 z m -6.929,-4 2,-3.464 3.464,2 -2,3.464 -3.464,-2 z M 40,174 l 4.001,0 0,4.001 -4.001,0 0,-4.001 z m 0,-8 4.001,0 0,4 -4.001,0 0,-4 z m 0,-8 4.001,0 0,4 -4.001,0 0,-4 z m 0,-8 4.001,0 0,4 -4.001,0 0,-4 z m 0,-8 4.001,0 0,4 -4.001,0 0,-4 z m 0,-8 4.001,0 0,4 -4.001,0 0,-4 z m 0,-8 4.001,0 0,4 -4.001,0 0,-4 z m 0,-8 4.001,0 0,4.001 -4.001,0 0,-4.001 z m 0,-8 4.001,0 0,4.001 -4.001,0 0,-4.001 z m 0,-8 4.001,0 0,4.001 -4.001,0 0,-4.001 z m 0,-8 4.001,0 0,4.001 -4.001,0 L 40,94 Z m 0,-8 4.001,0 0,4 -4.001,0 0,-4 z m 0,-8 4.001,0 0,4 -4.001,0 0,-4 z m 4.464,-3.732 3.464,-2.001 2,3.465 -3.464,2 -2,-3.464 z m 6.929,-4 3.464,-2 2,3.465 -3.464,1.999 -2,-3.464 z m 6.927,-4 3.464,-2.001 2,3.465 -3.463,2 -2.001,-3.464 z m 6.929,-4.001 3.464,-1.999 2,3.465 -3.464,1.999 -2,-3.465 z m 6.927,-3.999 3.465,-2 1.999,3.464 -3.463,2.001 -2.001,-3.465 z m 6.929,-4.001 3.465,-1.999 1.999,3.464 -3.464,2 -2,-3.465 z m 6.928,-3.999 3.464,-2 2,3.464 -3.463,2.001 -2.001,-3.465 z m 6.929,-4.001 3.464,-2 2,3.465 -3.464,2 -2,-3.465 z m 6.927,-3.999 3.464,-2 2,3.465 -3.463,2 -2.001,-3.465 z m 6.928,-4 3.465,-2.001 2,3.465 -3.465,2 -2,-3.464 z m 6.93,-4 3.463,-2 2,3.465 -3.464,1.999 -1.999,-3.464 z m 6.927,-4 3.465,-2.001 2,3.465 -3.465,2 -2,-3.464 z" /></g></g></g></g><g
       id="g84"><g
         clip-path="url(#clipPath88)"
         id="g86"><g
           id="g92"><g
             id="g94"><path
               id="path102"
               style="fill:url(#linearGradient96);stroke:none"
               d="m 126,164 4,0 0,8 -4,0 0,-8 z" /></g></g></g></g><g
       id="g104"><g
         clip-path="url(#clipPath108)"
         id="g106"><g
           id="g112"><g
             id="g114"><path
               id="path122"
               style="fill:url(#linearGradient116);stroke:none"
               d="m 126,196 4,0 0,8 -4,0 0,-8 z" /></g></g></g></g><g
       id="g124"><g
         clip-path="url(#clipPath128)"
         id="g126"><g
           id="g132"><g
             id="g134"><path
               id="path142"
               style="fill:url(#linearGradient136);stroke:none"
               d="m 126,180 4,0 0,8 -4,0 0,-8 z" /></g></g></g></g><g
       id="g144"><g
         clip-path="url(#clipPath148)"
         id="g146"><g
           id="g152"><g
             id="g154"><path
               id="path162"
               style="fill:url(#linearGradient156);stroke:none"
               d="m 158.423,108.764 6.48,-3.534 1.916,3.512 -6.44,3.511 c -0.587,-1.203 -1.244,-2.366 -1.956,-3.489" /></g></g></g></g><g
       id="g164"><g
         clip-path="url(#clipPath168)"
         id="g166"><g
           id="g172"><g
             id="g174"><path
               id="path182"
               style="fill:url(#linearGradient176);stroke:none"
               d="m 171.926,101.398 7.023,-3.831 1.916,3.512 -7.023,3.831 -1.916,-3.512 z" /></g></g></g></g><g
       id="g184"><g
         clip-path="url(#clipPath188)"
         id="g186"><g
           id="g192"><g
             id="g194"><path
               id="path202"
               style="fill:url(#linearGradient196);stroke:none"
               d="m 200.019,86.075 7.023,-3.831 1.916,3.512 -7.023,3.831 -1.916,-3.512 z" /></g></g></g></g><g
       id="g204"><g
         clip-path="url(#clipPath208)"
         id="g206"><g
           id="g212"><g
             id="g214"><path
               id="path222"
               style="fill:url(#linearGradient216);stroke:none"
               d="m 47.042,85.756 1.916,-3.512 7.024,3.831 -1.916,3.512 -7.024,-3.831 z" /></g></g></g></g><g
       id="g224"><g
         clip-path="url(#clipPath228)"
         id="g226"><g
           id="g232"><g
             id="g234"><path
               id="path242"
               style="fill:url(#linearGradient236);stroke:none"
               d="m 185.972,93.736 7.024,-3.83 1.915,3.512 -7.023,3.83 -1.916,-3.512 z" /></g></g></g></g><g
       id="g244"><g
         clip-path="url(#clipPath248)"
         id="g246"><g
           id="g252"><g
             id="g254"><path
               id="path262"
               style="fill:url(#linearGradient256);stroke:none"
               d="m 89.181,108.742 1.916,-3.512 6.48,3.534 c -0.713,1.123 -1.37,2.286 -1.956,3.49 l 0,0 -6.44,-3.512 z" /></g></g></g></g><g
       id="g264"><g
         clip-path="url(#clipPath268)"
         id="g266"><g
           id="g272"><g
             id="g274"><path
               id="path282"
               style="fill:url(#linearGradient276);stroke:none"
               d="m 61.087,93.418 1.917,-3.512 7.023,3.83 -1.916,3.512 -7.024,-3.83 z" /></g></g></g></g><g
       id="g284"><g
         clip-path="url(#clipPath288)"
         id="g286"><g
           id="g292"><g
             id="g294"><path
               id="path302"
               style="fill:url(#linearGradient296);stroke:none"
               d="m 75.135,101.079 1.916,-3.512 7.023,3.831 -1.916,3.512 -7.023,-3.831 z" /></g></g></g></g><g
       id="g304"><g
         clip-path="url(#clipPath308)"
         id="g306"><g
           id="g312"><g
             id="g314"><path
               id="path322"
               style="fill:url(#linearGradient316);stroke:none"
               d="M 22,82 C 22,70.954 30.954,62 42,62 l 0,0 c 11.046,0 20,8.954 20,20 l 0,0 c 0,11.046 -8.954,20 -20,20 l 0,0 C 30.954,102 22,93.046 22,82" /></g></g></g></g><g
       id="g324"><g
         clip-path="url(#clipPath328)"
         id="g326"><g
           id="g332"><g
             id="g334"><path
               id="path342"
               style="fill:url(#linearGradient336);stroke:none"
               d="m 194,82 c 0,-11.046 8.954,-20 20,-20 l 0,0 c 11.046,0 20,8.954 20,20 l 0,0 c 0,11.046 -8.954,20 -20,20 l 0,0 c -11.046,0 -20,-8.954 -20,-20" /></g></g></g></g><g
       id="g344"><g
         clip-path="url(#clipPath348)"
         id="g346"><g
           id="g352"><g
             id="g354"><path
               id="path362"
               style="fill:url(#linearGradient356);stroke:none"
               d="m 108,32 c 0,-11.046 8.954,-20 20,-20 l 0,0 c 11.046,0 20,8.954 20,20 l 0,0 c 0,11.046 -8.954,20 -20,20 l 0,0 c -11.046,0 -20,-8.954 -20,-20" /></g></g></g></g><g
       id="g364"><g
         clip-path="url(#clipPath368)"
         id="g366"><g
           id="g372"><g
             id="g374"><path
               id="path382"
               style="fill:url(#linearGradient376);stroke:none"
               d="m 108,224 c 0,-11.046 8.954,-20 20,-20 l 0,0 c 11.046,0 20,8.954 20,20 l 0,0 c 0,11.046 -8.954,20 -20,20 l 0,0 c -11.046,0 -20,-8.954 -20,-20" /></g></g></g></g><g
       id="g384"><g
         clip-path="url(#clipPath388)"
         id="g386"><g
           id="g392"><g
             id="g394"><path
               id="path402"
               style="fill:url(#linearGradient396);stroke:none"
               d="m 22,174 c 0,-11.046 8.954,-20 20,-20 l 0,0 c 11.046,0 20,8.954 20,20 l 0,0 c 0,11.046 -8.954,20 -20,20 l 0,0 c -11.046,0 -20,-8.954 -20,-20" /></g></g></g></g><g
       id="g404"><g
         clip-path="url(#clipPath408)"
         id="g406"><g
           id="g412"><g
             id="g414"><path
               id="path422"
               style="fill:url(#linearGradient416);stroke:none"
               d="m 194,174 c 0,-11.046 8.954,-20 20,-20 l 0,0 c 11.046,0 20,8.954 20,20 l 0,0 c 0,11.046 -8.954,20 -20,20 l 0,0 c -11.046,0 -20,-8.954 -20,-20" /></g></g></g></g></g></svg>