<?xml version="1.0" encoding="UTF-8" standalone="no"?>
<svg
   xmlns:dc="http://purl.org/dc/elements/1.1/"
   xmlns:cc="http://creativecommons.org/ns#"
   xmlns:rdf="http://www.w3.org/1999/02/22-rdf-syntax-ns#"
   xmlns:svg="http://www.w3.org/2000/svg"
   xmlns="http://www.w3.org/2000/svg"
   viewBox="0 0 320 320"
   height="320"
   width="320"
   xml:space="preserve"
   version="1.1"
   id="svg2"><metadata
     id="metadata8"><rdf:RDF><cc:Work
         rdf:about=""><dc:format>image/svg+xml</dc:format><dc:type
           rdf:resource="http://purl.org/dc/dcmitype/StillImage" /></cc:Work></rdf:RDF></metadata><defs
     id="defs6"><clipPath
       id="clipPath16"
       clipPathUnits="userSpaceOnUse"><path
         id="path18"
         d="m 126,84 4,0 0,8 -4,0 0,-8 z" /></clipPath><linearGradient
       id="linearGradient24"
       spreadMethod="pad"
       gradientTransform="matrix(5.9999995,-5.9999995,-5.9999995,-5.9999995,125,91)"
       gradientUnits="userSpaceOnUse"
       y2="0"
       x2="1"
       y1="0"
       x1="0"><stop
         id="stop26"
         offset="0"
         style="stop-opacity:1;stop-color:#e6e7e8" /><stop
         id="stop28"
         offset="1"
         style="stop-opacity:1;stop-color:#d1d3d4" /></linearGradient><clipPath
       id="clipPath36"
       clipPathUnits="userSpaceOnUse"><path
         id="path38"
         d="m 130,60 -4,0 0,-8 4,0 0,8 z" /></clipPath><linearGradient
       id="linearGradient44"
       spreadMethod="pad"
       gradientTransform="matrix(5.9999995,-5.9999995,-5.9999995,-5.9999995,125,59)"
       gradientUnits="userSpaceOnUse"
       y2="0"
       x2="1"
       y1="0"
       x1="0"><stop
         id="stop46"
         offset="0"
         style="stop-opacity:1;stop-color:#e6e7e8" /><stop
         id="stop48"
         offset="1"
         style="stop-opacity:1;stop-color:#d1d3d4" /></linearGradient><clipPath
       id="clipPath56"
       clipPathUnits="userSpaceOnUse"><path
         id="path58"
         d="m 130,76 -4,0 0,-8 4,0 0,8 z" /></clipPath><linearGradient
       id="linearGradient64"
       spreadMethod="pad"
       gradientTransform="matrix(5.9999995,-5.9999995,-5.9999995,-5.9999995,125,75)"
       gradientUnits="userSpaceOnUse"
       y2="0"
       x2="1"
       y1="0"
       x1="0"><stop
         id="stop66"
         offset="0"
         style="stop-opacity:1;stop-color:#e6e7e8" /><stop
         id="stop68"
         offset="1"
         style="stop-opacity:1;stop-color:#d1d3d4" /></linearGradient><clipPath
       id="clipPath76"
       clipPathUnits="userSpaceOnUse"><path
         id="path78"
         d="m 89.182,147.259 6.439,-3.513 c 0.587,1.204 1.243,2.367 1.956,3.49 l 0,0 -6.48,3.535 -1.915,-3.512 z" /></clipPath><linearGradient
       id="linearGradient84"
       spreadMethod="pad"
       gradientTransform="matrix(5.7742004,-5.7742004,-5.7742004,-5.7742004,90.476517,150.15034)"
       gradientUnits="userSpaceOnUse"
       y2="0"
       x2="1"
       y1="0"
       x1="0"><stop
         id="stop86"
         offset="0"
         style="stop-opacity:1;stop-color:#e6e7e8" /><stop
         id="stop88"
         offset="1"
         style="stop-opacity:1;stop-color:#d1d3d4" /></linearGradient><clipPath
       id="clipPath96"
       clipPathUnits="userSpaceOnUse"><path
         id="path98"
         d="m 75.135,154.921 7.022,-3.831 1.917,3.512 -7.023,3.83 -1.916,-3.511 z" /></clipPath><linearGradient
       id="linearGradient104"
       spreadMethod="pad"
       gradientTransform="matrix(6.2248535,-6.2248535,-6.2248535,-6.2248535,76.491821,157.87366)"
       gradientUnits="userSpaceOnUse"
       y2="0"
       x2="1"
       y1="0"
       x1="0"><stop
         id="stop106"
         offset="0"
         style="stop-opacity:1;stop-color:#e6e7e8" /><stop
         id="stop108"
         offset="1"
         style="stop-opacity:1;stop-color:#d1d3d4" /></linearGradient><clipPath
       id="clipPath116"
       clipPathUnits="userSpaceOnUse"><path
         id="path118"
         d="m 47.042,170.244 7.023,-3.831 1.916,3.511 -7.023,3.832 -1.916,-3.512 z" /></clipPath><linearGradient
       id="linearGradient124"
       spreadMethod="pad"
       gradientTransform="matrix(6.2248535,-6.2248535,-6.2248535,-6.2248535,48.399048,173.1969)"
       gradientUnits="userSpaceOnUse"
       y2="0"
       x2="1"
       y1="0"
       x1="0"><stop
         id="stop126"
         offset="0"
         style="stop-opacity:1;stop-color:#e6e7e8" /><stop
         id="stop128"
         offset="1"
         style="stop-opacity:1;stop-color:#d1d3d4" /></linearGradient><clipPath
       id="clipPath136"
       clipPathUnits="userSpaceOnUse"><path
         id="path138"
         d="m 200.019,169.924 1.916,-3.511 7.023,3.831 -1.916,3.512 -7.023,-3.832 z" /></clipPath><linearGradient
       id="linearGradient144"
       spreadMethod="pad"
       gradientTransform="matrix(4.3100586,-4.3100586,-4.3100586,-4.3100586,202.33325,172.2395)"
       gradientUnits="userSpaceOnUse"
       y2="0"
       x2="1"
       y1="0"
       x1="0"><stop
         id="stop146"
         offset="0"
         style="stop-opacity:1;stop-color:#e6e7e8" /><stop
         id="stop148"
         offset="1"
         style="stop-opacity:1;stop-color:#d1d3d4" /></linearGradient><clipPath
       id="clipPath156"
       clipPathUnits="userSpaceOnUse"><path
         id="path158"
         d="m 61.089,162.582 7.023,-3.83 1.915,3.512 -7.023,3.83 -1.915,-3.512 z" /></clipPath><linearGradient
       id="linearGradient164"
       spreadMethod="pad"
       gradientTransform="matrix(6.2248535,-6.2248535,-6.2248535,-6.2248535,62.445435,165.53528)"
       gradientUnits="userSpaceOnUse"
       y2="0"
       x2="1"
       y1="0"
       x1="0"><stop
         id="stop166"
         offset="0"
         style="stop-opacity:1;stop-color:#e6e7e8" /><stop
         id="stop168"
         offset="1"
         style="stop-opacity:1;stop-color:#d1d3d4" /></linearGradient><clipPath
       id="clipPath176"
       clipPathUnits="userSpaceOnUse"><path
         id="path178"
         d="m 158.423,147.236 c 0.712,-1.123 1.369,-2.286 1.956,-3.49 l 0,0 6.441,3.513 -1.917,3.512 -6.48,-3.535 z" /></clipPath><linearGradient
       id="linearGradient184"
       spreadMethod="pad"
       gradientTransform="matrix(4.1870728,-4.1870728,-4.1870728,-4.1870728,160.543,149.3566)"
       gradientUnits="userSpaceOnUse"
       y2="0"
       x2="1"
       y1="0"
       x1="0"><stop
         id="stop186"
         offset="0"
         style="stop-opacity:1;stop-color:#e6e7e8" /><stop
         id="stop188"
         offset="1"
         style="stop-opacity:1;stop-color:#d1d3d4" /></linearGradient><clipPath
       id="clipPath196"
       clipPathUnits="userSpaceOnUse"><path
         id="path198"
         d="m 185.972,162.264 1.917,-3.512 7.023,3.83 -1.916,3.512 -7.024,-3.83 z" /></clipPath><linearGradient
       id="linearGradient204"
       spreadMethod="pad"
       gradientTransform="matrix(4.3105469,-4.3105469,-4.3105469,-4.3105469,188.28711,164.57812)"
       gradientUnits="userSpaceOnUse"
       y2="0"
       x2="1"
       y1="0"
       x1="0"><stop
         id="stop206"
         offset="0"
         style="stop-opacity:1;stop-color:#e6e7e8" /><stop
         id="stop208"
         offset="1"
         style="stop-opacity:1;stop-color:#d1d3d4" /></linearGradient><clipPath
       id="clipPath216"
       clipPathUnits="userSpaceOnUse"><path
         id="path218"
         d="m 171.926,154.602 1.916,-3.512 7.023,3.831 -1.916,3.511 -7.023,-3.83 z" /></clipPath><linearGradient
       id="linearGradient224"
       spreadMethod="pad"
       gradientTransform="matrix(4.3100586,-4.3100586,-4.3100586,-4.3100586,174.24048,156.91626)"
       gradientUnits="userSpaceOnUse"
       y2="0"
       x2="1"
       y1="0"
       x1="0"><stop
         id="stop226"
         offset="0"
         style="stop-opacity:1;stop-color:#e6e7e8" /><stop
         id="stop228"
         offset="1"
         style="stop-opacity:1;stop-color:#d1d3d4" /></linearGradient><clipPath
       id="clipPath236"
       clipPathUnits="userSpaceOnUse"><path
         id="path238"
         d="m 126,160.878 4,0 0,8 -4,0 0,-8 z" /></clipPath><linearGradient
       id="linearGradient244"
       spreadMethod="pad"
       gradientTransform="matrix(-5.9999995,5.9999995,5.9999995,5.9999995,131,161.87793)"
       gradientUnits="userSpaceOnUse"
       y2="0"
       x2="1"
       y1="0"
       x1="0"><stop
         id="stop246"
         offset="0"
         style="stop-opacity:1;stop-color:#e6e7e8" /><stop
         id="stop248"
         offset="1"
         style="stop-opacity:1;stop-color:#d1d3d4" /></linearGradient><clipPath
       id="clipPath256"
       clipPathUnits="userSpaceOnUse"><path
         id="path258"
         d="m 126,192.878 4,0 0,8 -4,0 0,-8 z" /></clipPath><linearGradient
       id="linearGradient264"
       spreadMethod="pad"
       gradientTransform="matrix(-5.9999995,5.9999995,5.9999995,5.9999995,131,193.87793)"
       gradientUnits="userSpaceOnUse"
       y2="0"
       x2="1"
       y1="0"
       x1="0"><stop
         id="stop266"
         offset="0"
         style="stop-opacity:1;stop-color:#e6e7e8" /><stop
         id="stop268"
         offset="1"
         style="stop-opacity:1;stop-color:#d1d3d4" /></linearGradient><clipPath
       id="clipPath276"
       clipPathUnits="userSpaceOnUse"><path
         id="path278"
         d="m 126,176.878 4,0 0,8 -4,0 0,-8 z" /></clipPath><linearGradient
       id="linearGradient284"
       spreadMethod="pad"
       gradientTransform="matrix(-5.9999995,5.9999995,5.9999995,5.9999995,131,177.87793)"
       gradientUnits="userSpaceOnUse"
       y2="0"
       x2="1"
       y1="0"
       x1="0"><stop
         id="stop286"
         offset="0"
         style="stop-opacity:1;stop-color:#e6e7e8" /><stop
         id="stop288"
         offset="1"
         style="stop-opacity:1;stop-color:#d1d3d4" /></linearGradient><clipPath
       id="clipPath296"
       clipPathUnits="userSpaceOnUse"><path
         id="path298"
         d="m 158.423,105.642 6.48,-3.534 1.916,3.512 -6.44,3.511 c -0.587,-1.203 -1.244,-2.366 -1.956,-3.489" /></clipPath><linearGradient
       id="linearGradient304"
       spreadMethod="pad"
       gradientTransform="matrix(-5.7742004,5.7742004,5.7742004,5.7742004,165.52348,102.72758)"
       gradientUnits="userSpaceOnUse"
       y2="0"
       x2="1"
       y1="0"
       x1="0"><stop
         id="stop306"
         offset="0"
         style="stop-opacity:1;stop-color:#e6e7e8" /><stop
         id="stop308"
         offset="1"
         style="stop-opacity:1;stop-color:#d1d3d4" /></linearGradient><clipPath
       id="clipPath316"
       clipPathUnits="userSpaceOnUse"><path
         id="path318"
         d="m 171.926,98.276 7.023,-3.831 1.916,3.512 -7.023,3.831 -1.916,-3.512 z" /></clipPath><linearGradient
       id="linearGradient324"
       spreadMethod="pad"
       gradientTransform="matrix(-6.2248535,6.2248535,6.2248535,6.2248535,179.50818,95.004272)"
       gradientUnits="userSpaceOnUse"
       y2="0"
       x2="1"
       y1="0"
       x1="0"><stop
         id="stop326"
         offset="0"
         style="stop-opacity:1;stop-color:#e6e7e8" /><stop
         id="stop328"
         offset="1"
         style="stop-opacity:1;stop-color:#d1d3d4" /></linearGradient><clipPath
       id="clipPath336"
       clipPathUnits="userSpaceOnUse"><path
         id="path338"
         d="m 200.02,82.953 7.022,-3.831 1.916,3.511 -7.022,3.832 -1.916,-3.512 z" /></clipPath><linearGradient
       id="linearGradient344"
       spreadMethod="pad"
       gradientTransform="matrix(-6.2248535,6.2248535,6.2248535,6.2248535,207.60095,79.68103)"
       gradientUnits="userSpaceOnUse"
       y2="0"
       x2="1"
       y1="0"
       x1="0"><stop
         id="stop346"
         offset="0"
         style="stop-opacity:1;stop-color:#e6e7e8" /><stop
         id="stop348"
         offset="1"
         style="stop-opacity:1;stop-color:#d1d3d4" /></linearGradient><clipPath
       id="clipPath356"
       clipPathUnits="userSpaceOnUse"><path
         id="path358"
         d="m 47.042,82.633 1.916,-3.511 7.024,3.831 -1.916,3.512 -7.024,-3.832 z" /></clipPath><linearGradient
       id="linearGradient364"
       spreadMethod="pad"
       gradientTransform="matrix(-4.3100586,4.3100586,4.3100586,4.3100586,53.666748,80.638428)"
       gradientUnits="userSpaceOnUse"
       y2="0"
       x2="1"
       y1="0"
       x1="0"><stop
         id="stop366"
         offset="0"
         style="stop-opacity:1;stop-color:#e6e7e8" /><stop
         id="stop368"
         offset="1"
         style="stop-opacity:1;stop-color:#d1d3d4" /></linearGradient><clipPath
       id="clipPath376"
       clipPathUnits="userSpaceOnUse"><path
         id="path378"
         d="m 185.972,90.615 7.024,-3.831 1.915,3.512 -7.022,3.83 -1.917,-3.511 z" /></clipPath><linearGradient
       id="linearGradient384"
       spreadMethod="pad"
       gradientTransform="matrix(-6.2248535,6.2248535,6.2248535,6.2248535,193.55457,87.342651)"
       gradientUnits="userSpaceOnUse"
       y2="0"
       x2="1"
       y1="0"
       x1="0"><stop
         id="stop386"
         offset="0"
         style="stop-opacity:1;stop-color:#e6e7e8" /><stop
         id="stop388"
         offset="1"
         style="stop-opacity:1;stop-color:#d1d3d4" /></linearGradient><clipPath
       id="clipPath396"
       clipPathUnits="userSpaceOnUse"><path
         id="path398"
         d="m 89.181,105.62 1.916,-3.512 6.48,3.534 c -0.713,1.123 -1.369,2.286 -1.956,3.489 l 0,0 -6.44,-3.511 z" /></clipPath><linearGradient
       id="linearGradient404"
       spreadMethod="pad"
       gradientTransform="matrix(-4.1870728,4.1870728,4.1870728,4.1870728,95.457001,103.52133)"
       gradientUnits="userSpaceOnUse"
       y2="0"
       x2="1"
       y1="0"
       x1="0"><stop
         id="stop406"
         offset="0"
         style="stop-opacity:1;stop-color:#e6e7e8" /><stop
         id="stop408"
         offset="1"
         style="stop-opacity:1;stop-color:#d1d3d4" /></linearGradient><clipPath
       id="clipPath416"
       clipPathUnits="userSpaceOnUse"><path
         id="path418"
         d="m 61.087,90.296 1.917,-3.512 7.023,3.831 -1.916,3.511 -7.024,-3.83 z" /></clipPath><linearGradient
       id="linearGradient424"
       spreadMethod="pad"
       gradientTransform="matrix(-4.3105469,4.3105469,4.3105469,4.3105469,67.712891,88.299805)"
       gradientUnits="userSpaceOnUse"
       y2="0"
       x2="1"
       y1="0"
       x1="0"><stop
         id="stop426"
         offset="0"
         style="stop-opacity:1;stop-color:#e6e7e8" /><stop
         id="stop428"
         offset="1"
         style="stop-opacity:1;stop-color:#d1d3d4" /></linearGradient><clipPath
       id="clipPath436"
       clipPathUnits="userSpaceOnUse"><path
         id="path438"
         d="m 75.135,97.957 1.916,-3.512 7.023,3.831 -1.916,3.512 -7.023,-3.831 z" /></clipPath><linearGradient
       id="linearGradient444"
       spreadMethod="pad"
       gradientTransform="matrix(-4.3100586,4.3100586,4.3100586,4.3100586,81.759522,95.96167)"
       gradientUnits="userSpaceOnUse"
       y2="0"
       x2="1"
       y1="0"
       x1="0"><stop
         id="stop446"
         offset="0"
         style="stop-opacity:1;stop-color:#e6e7e8" /><stop
         id="stop448"
         offset="1"
         style="stop-opacity:1;stop-color:#d1d3d4" /></linearGradient><clipPath
       id="clipPath456"
       clipPathUnits="userSpaceOnUse"><path
         id="path458"
         d="M 127.805,166 C 106.853,165.893 89.893,148.758 90,127.805 l 0,0 C 90.107,106.918 107.134,90 127.997,90 l 0,0 0.197,0 c 20.953,0.107 37.914,17.242 37.806,38.195 l 0,0 c -0.107,20.739 -17.066,37.698 -37.816,37.805 l 0,0 -0.379,0 z" /></clipPath><linearGradient
       id="linearGradient464"
       spreadMethod="pad"
       gradientTransform="matrix(53.715126,-53.715126,-53.715126,-53.715126,101.13055,154.84573)"
       gradientUnits="userSpaceOnUse"
       y2="0"
       x2="1"
       y1="0"
       x1="0"><stop
         id="stop466"
         offset="0"
         style="stop-opacity:1;stop-color:#e6e7e8" /><stop
         id="stop468"
         offset="1"
         style="stop-opacity:1;stop-color:#d1d3d4" /></linearGradient><clipPath
       id="clipPath476"
       clipPathUnits="userSpaceOnUse"><path
         id="path478"
         d="M 0,256 256,256 256,0 0,0 0,256 Z" /></clipPath><clipPath
       id="clipPath488"
       clipPathUnits="userSpaceOnUse"><path
         id="path490"
         d="m 129.861,224 3.464,-2 2,3.464 -3.463,2 -2.001,-3.464 z m 6.929,-3.999 3.464,-2 2,3.464 -3.464,2 -2,-3.464 z m 6.927,-4 3.465,-2.001 1.999,3.464 -3.463,2 -2.001,-3.463 z m 6.929,-4.001 3.465,-1.999 1.999,3.464 -3.464,1.999 -2,-3.464 z m 6.928,-3.999 3.464,-2.001 2,3.464 -3.464,2 -2,-3.463 z m 6.929,-4.001 3.464,-1.999 2,3.464 -3.464,1.999 -2,-3.464 z m 6.928,-3.999 3.463,-2 2,3.463 -3.463,2.001 -2,-3.464 z m 6.928,-4.001 3.464,-2 2,3.464 -3.464,2 -2,-3.464 z m 6.928,-3.999 3.464,-2 2,3.463 -3.464,2.001 -2,-3.464 z m 6.929,-4.001 3.464,-2 2,3.464 -3.465,2 -1.999,-3.464 z m 6.928,-3.999 3.463,-2 2.001,3.464 -3.464,2 -2,-3.464 z m 6.928,-4 3.464,-2.001 2,3.464 -3.464,2 -2,-3.463 z m 5.928,-6.269 4,0 0,4 -4,0 0,-4 z m 0,-8 4,0 0,4.001 -4,0 0,-4.001 z m 0,-8 4,0 0,4.001 -4,0 0,-4.001 z m 0,-8 4,0 0,4 -4,0 0,-4 z m 0,-8 4,0 0,4.001 -4,0 0,-4.001 z m 0,-7.999 4,0 0,4 -4,0 0,-4 z m 0,-8 4,0 0,4 -4,0 0,-4 z m 0,-8 4,0 0,4 -4,0 0,-4 z m 0,-8.001 4,0 0,4 -4,0 0,-4 z m 0,-8 4,0 0,4 -4,0 0,-4 z m 0,-8 4,0 0,4.001 -4,0 0,-4.001 z m 0,-8 4,0 0,4.001 -4,0 0,-4.001 z m 0,-8 4,0 0,4.001 -4,0 0,-4.001 z m -5.928,-2.267 2,-3.465 3.464,2 -2,3.465 -3.464,-2 z m -6.928,-4 2,-3.465 3.464,2 -2.001,3.465 -3.463,-2 z m -6.928,-4 1.999,-3.465 3.465,2 -2,3.465 -3.464,-2 z m -6.929,-4.001 2,-3.464 3.464,2 -2,3.465 -3.464,-2.001 z m -6.928,-3.999 2,-3.465 3.464,2 -2,3.465 -3.464,-2 z m -6.928,-4 2,-3.465 3.463,2 -2,3.465 -3.463,-2 z m -6.928,-4 2,-3.465 3.464,2 -2,3.465 -3.464,-2 z m -6.929,-4 2,-3.465 3.464,2 -2,3.465 -3.464,-2 z m -6.928,-4 2,-3.465 3.464,2 -1.999,3.464 -3.465,-1.999 z m -6.929,-4 2.001,-3.465 3.464,2 -2,3.465 -3.465,-2 z m -6.927,-4 2,-3.465 3.464,2 -2,3.465 -3.464,-2 z m -6.929,-4 2.001,-3.465 3.464,2 -2,3.465 -3.465,-2 z" /></clipPath><linearGradient
       id="linearGradient496"
       spreadMethod="pad"
       gradientTransform="matrix(116.9353,-116.9353,-116.9353,-116.9353,90.596924,186.19995)"
       gradientUnits="userSpaceOnUse"
       y2="0"
       x2="1"
       y1="0"
       x1="0"><stop
         id="stop498"
         offset="0"
         style="stop-opacity:1;stop-color:#e6e7e8" /><stop
         id="stop500"
         offset="1"
         style="stop-opacity:1;stop-color:#d1d3d4" /></linearGradient><clipPath
       id="clipPath508"
       clipPathUnits="userSpaceOnUse"><path
         id="path510"
         d="m 120.675,225.732 1.999,-3.464 3.465,2 -2,3.463 -3.464,-1.999 z m -6.928,-4 1.999,-3.464 3.464,2 -2,3.464 -3.463,-2 z m -6.929,-4 2,-3.464 3.464,2 -2,3.464 -3.464,-2 z m -6.929,-4 2.001,-3.464 3.463,2 -2,3.464 -3.464,-2 z m -6.927,-4.001 2,-3.463 3.464,2 -2,3.464 -3.464,-2.001 z m -6.929,-3.999 2.001,-3.464 3.463,2 -2,3.464 -3.464,-2 z m -6.928,-4 2,-3.464 3.464,2 -1.999,3.464 -3.465,-2 z m -6.929,-4 2.001,-3.464 3.463,2 -1.999,3.464 -3.465,-2 z m -6.927,-4 2,-3.464 3.464,2 -2,3.464 -3.464,-2 z m -6.929,-4 2.001,-3.464 3.463,2 -2,3.463 -3.464,-1.999 z m -6.927,-4 2,-3.464 3.464,2 -2,3.464 -3.464,-2 z m -6.929,-4 2,-3.464 3.464,2 -2,3.464 -3.464,-2 z M 40,174 l 4.001,0 0,4.001 -4.001,0 0,-4.001 z m 0,-8 4.001,0 0,4 -4.001,0 0,-4 z m 0,-8 4.001,0 0,4 -4.001,0 0,-4 z m 0,-8 4.001,0 0,4 -4.001,0 0,-4 z m 0,-8 4.001,0 0,4 -4.001,0 0,-4 z m 0,-8 4.001,0 0,4 -4.001,0 0,-4 z m 0,-8 4.001,0 0,4 -4.001,0 0,-4 z m 0,-8 4.001,0 0,4.001 -4.001,0 0,-4.001 z m 0,-8 4.001,0 0,4.001 -4.001,0 0,-4.001 z m 0,-8 4.001,0 0,4.001 -4.001,0 0,-4.001 z m 0,-8 4.001,0 0,4.001 -4.001,0 L 40,94 Z m 0,-8 4.001,0 0,4 -4.001,0 0,-4 z m 0,-8 4.001,0 0,4 -4.001,0 0,-4 z m 4.464,-3.732 3.464,-2.001 2,3.465 -3.464,2 -2,-3.464 z m 6.929,-4 3.464,-2 2,3.465 -3.464,1.999 -2,-3.464 z m 6.927,-4 3.464,-2.001 2,3.465 -3.463,2 -2.001,-3.464 z m 6.929,-4.001 3.464,-1.999 2,3.465 -3.464,1.999 -2,-3.465 z m 6.927,-3.999 3.465,-2 1.999,3.464 -3.463,2.001 -2.001,-3.465 z m 6.929,-4.001 3.465,-1.999 1.999,3.464 -3.464,2 -2,-3.465 z m 6.928,-3.999 3.464,-2 2,3.464 -3.463,2.001 -2.001,-3.465 z m 6.929,-4.001 3.464,-2 2,3.465 -3.464,2 -2,-3.465 z m 6.927,-3.999 3.464,-2 2,3.465 -3.463,2 -2.001,-3.465 z m 6.928,-4 3.465,-2.001 2,3.465 -3.465,2 -2,-3.464 z m 6.93,-4 3.463,-2 2,3.465 -3.464,1.999 -1.999,-3.464 z m 6.927,-4 3.465,-2.001 2,3.465 -3.465,2 -2,-3.464 z" /></clipPath><linearGradient
       id="linearGradient516"
       spreadMethod="pad"
       gradientTransform="matrix(116.93555,-116.93555,-116.93555,-116.93555,48.467651,186.46765)"
       gradientUnits="userSpaceOnUse"
       y2="0"
       x2="1"
       y1="0"
       x1="0"><stop
         id="stop518"
         offset="0"
         style="stop-opacity:1;stop-color:#e6e7e8" /><stop
         id="stop520"
         offset="1"
         style="stop-opacity:1;stop-color:#d1d3d4" /></linearGradient><clipPath
       id="clipPath528"
       clipPathUnits="userSpaceOnUse"><path
         id="path530"
         d="M 22,82 C 22,70.954 30.954,62 42,62 l 0,0 c 11.046,0 20,8.954 20,20 l 0,0 c 0,11.046 -8.954,20 -20,20 l 0,0 C 30.954,102 22,93.046 22,82" /></clipPath><linearGradient
       id="linearGradient536"
       spreadMethod="pad"
       gradientTransform="matrix(28.284271,-28.284271,-28.284271,-28.284271,27.857864,96.142136)"
       gradientUnits="userSpaceOnUse"
       y2="0"
       x2="1"
       y1="0"
       x1="0"><stop
         id="stop538"
         offset="0"
         style="stop-opacity:1;stop-color:#e6e7e8" /><stop
         id="stop540"
         offset="1"
         style="stop-opacity:1;stop-color:#d1d3d4" /></linearGradient><clipPath
       id="clipPath548"
       clipPathUnits="userSpaceOnUse"><path
         id="path550"
         d="m 194,82 c 0,-11.046 8.954,-20 20,-20 l 0,0 c 11.046,0 20,8.954 20,20 l 0,0 c 0,11.046 -8.954,20 -20,20 l 0,0 c -11.046,0 -20,-8.954 -20,-20" /></clipPath><linearGradient
       id="linearGradient556"
       spreadMethod="pad"
       gradientTransform="matrix(28.284271,-28.284271,-28.284271,-28.284271,199.85786,96.142136)"
       gradientUnits="userSpaceOnUse"
       y2="0"
       x2="1"
       y1="0"
       x1="0"><stop
         id="stop558"
         offset="0"
         style="stop-opacity:1;stop-color:#e6e7e8" /><stop
         id="stop560"
         offset="1"
         style="stop-opacity:1;stop-color:#d1d3d4" /></linearGradient><clipPath
       id="clipPath568"
       clipPathUnits="userSpaceOnUse"><path
         id="path570"
         d="m 108,32 c 0,-11.046 8.954,-20 20,-20 l 0,0 c 11.046,0 20,8.954 20,20 l 0,0 c 0,11.046 -8.954,20 -20,20 l 0,0 c -11.046,0 -20,-8.954 -20,-20" /></clipPath><linearGradient
       id="linearGradient576"
       spreadMethod="pad"
       gradientTransform="matrix(-28.284271,28.284271,28.284271,28.284271,142.14214,17.857864)"
       gradientUnits="userSpaceOnUse"
       y2="0"
       x2="1"
       y1="0"
       x1="0"><stop
         id="stop578"
         offset="0"
         style="stop-opacity:1;stop-color:#e6e7e8" /><stop
         id="stop580"
         offset="1"
         style="stop-opacity:1;stop-color:#d1d3d4" /></linearGradient><clipPath
       id="clipPath588"
       clipPathUnits="userSpaceOnUse"><path
         id="path590"
         d="m 108,224 c 0,-11.046 8.954,-20 20,-20 l 0,0 c 11.046,0 20,8.954 20,20 l 0,0 c 0,11.046 -8.954,20 -20,20 l 0,0 c -11.046,0 -20,-8.954 -20,-20" /></clipPath><linearGradient
       id="linearGradient596"
       spreadMethod="pad"
       gradientTransform="matrix(28.284271,-28.284271,-28.284271,-28.284271,113.85786,238.14214)"
       gradientUnits="userSpaceOnUse"
       y2="0"
       x2="1"
       y1="0"
       x1="0"><stop
         id="stop598"
         offset="0"
         style="stop-opacity:1;stop-color:#e6e7e8" /><stop
         id="stop600"
         offset="1"
         style="stop-opacity:1;stop-color:#d1d3d4" /></linearGradient><clipPath
       id="clipPath608"
       clipPathUnits="userSpaceOnUse"><path
         id="path610"
         d="m 22,174 c 0,-11.046 8.954,-20 20,-20 l 0,0 c 11.046,0 20,8.954 20,20 l 0,0 c 0,11.046 -8.954,20 -20,20 l 0,0 c -11.046,0 -20,-8.954 -20,-20" /></clipPath><linearGradient
       id="linearGradient616"
       spreadMethod="pad"
       gradientTransform="matrix(-28.284271,28.284271,28.284271,28.284271,56.142136,159.85786)"
       gradientUnits="userSpaceOnUse"
       y2="0"
       x2="1"
       y1="0"
       x1="0"><stop
         id="stop618"
         offset="0"
         style="stop-opacity:1;stop-color:#e6e7e8" /><stop
         id="stop620"
         offset="1"
         style="stop-opacity:1;stop-color:#d1d3d4" /></linearGradient><clipPath
       id="clipPath628"
       clipPathUnits="userSpaceOnUse"><path
         id="path630"
         d="m 194,174 c 0,-11.046 8.954,-20 20,-20 l 0,0 c 11.046,0 20,8.954 20,20 l 0,0 c 0,11.046 -8.954,20 -20,20 l 0,0 c -11.046,0 -20,-8.954 -20,-20" /></clipPath><linearGradient
       id="linearGradient636"
       spreadMethod="pad"
       gradientTransform="matrix(-28.284271,28.284271,28.284271,28.284271,228.14214,159.85786)"
       gradientUnits="userSpaceOnUse"
       y2="0"
       x2="1"
       y1="0"
       x1="0"><stop
         id="stop638"
         offset="0"
         style="stop-opacity:1;stop-color:#e6e7e8" /><stop
         id="stop640"
         offset="1"
         style="stop-opacity:1;stop-color:#d1d3d4" /></linearGradient></defs><g
     transform="matrix(1.25,0,0,-1.25,0,320)"
     id="g10"><g
       id="g12"><g
         clip-path="url(#clipPath16)"
         id="g14"><g
           id="g20"><g
             id="g22"><path
               id="path30"
               style="fill:url(#linearGradient24);stroke:none"
               d="m 126,84 4,0 0,8 -4,0 0,-8 z" /></g></g></g></g><g
       id="g32"><g
         clip-path="url(#clipPath36)"
         id="g34"><g
           id="g40"><g
             id="g42"><path
               id="path50"
               style="fill:url(#linearGradient44);stroke:none"
               d="m 130,60 -4,0 0,-8 4,0 0,8 z" /></g></g></g></g><g
       id="g52"><g
         clip-path="url(#clipPath56)"
         id="g54"><g
           id="g60"><g
             id="g62"><path
               id="path70"
               style="fill:url(#linearGradient64);stroke:none"
               d="m 130,76 -4,0 0,-8 4,0 0,8 z" /></g></g></g></g><g
       id="g72"><g
         clip-path="url(#clipPath76)"
         id="g74"><g
           id="g80"><g
             id="g82"><path
               id="path90"
               style="fill:url(#linearGradient84);stroke:none"
               d="m 89.182,147.259 6.439,-3.513 c 0.587,1.204 1.243,2.367 1.956,3.49 l 0,0 -6.48,3.535 -1.915,-3.512 z" /></g></g></g></g><g
       id="g92"><g
         clip-path="url(#clipPath96)"
         id="g94"><g
           id="g100"><g
             id="g102"><path
               id="path110"
               style="fill:url(#linearGradient104);stroke:none"
               d="m 75.135,154.921 7.022,-3.831 1.917,3.512 -7.023,3.83 -1.916,-3.511 z" /></g></g></g></g><g
       id="g112"><g
         clip-path="url(#clipPath116)"
         id="g114"><g
           id="g120"><g
             id="g122"><path
               id="path130"
               style="fill:url(#linearGradient124);stroke:none"
               d="m 47.042,170.244 7.023,-3.831 1.916,3.511 -7.023,3.832 -1.916,-3.512 z" /></g></g></g></g><g
       id="g132"><g
         clip-path="url(#clipPath136)"
         id="g134"><g
           id="g140"><g
             id="g142"><path
               id="path150"
               style="fill:url(#linearGradient144);stroke:none"
               d="m 200.019,169.924 1.916,-3.511 7.023,3.831 -1.916,3.512 -7.023,-3.832 z" /></g></g></g></g><g
       id="g152"><g
         clip-path="url(#clipPath156)"
         id="g154"><g
           id="g160"><g
             id="g162"><path
               id="path170"
               style="fill:url(#linearGradient164);stroke:none"
               d="m 61.089,162.582 7.023,-3.83 1.915,3.512 -7.023,3.83 -1.915,-3.512 z" /></g></g></g></g><g
       id="g172"><g
         clip-path="url(#clipPath176)"
         id="g174"><g
           id="g180"><g
             id="g182"><path
               id="path190"
               style="fill:url(#linearGradient184);stroke:none"
               d="m 158.423,147.236 c 0.712,-1.123 1.369,-2.286 1.956,-3.49 l 0,0 6.441,3.513 -1.917,3.512 -6.48,-3.535 z" /></g></g></g></g><g
       id="g192"><g
         clip-path="url(#clipPath196)"
         id="g194"><g
           id="g200"><g
             id="g202"><path
               id="path210"
               style="fill:url(#linearGradient204);stroke:none"
               d="m 185.972,162.264 1.917,-3.512 7.023,3.83 -1.916,3.512 -7.024,-3.83 z" /></g></g></g></g><g
       id="g212"><g
         clip-path="url(#clipPath216)"
         id="g214"><g
           id="g220"><g
             id="g222"><path
               id="path230"
               style="fill:url(#linearGradient224);stroke:none"
               d="m 171.926,154.602 1.916,-3.512 7.023,3.831 -1.916,3.511 -7.023,-3.83 z" /></g></g></g></g><g
       id="g232"><g
         clip-path="url(#clipPath236)"
         id="g234"><g
           id="g240"><g
             id="g242"><path
               id="path250"
               style="fill:url(#linearGradient244);stroke:none"
               d="m 126,160.878 4,0 0,8 -4,0 0,-8 z" /></g></g></g></g><g
       id="g252"><g
         clip-path="url(#clipPath256)"
         id="g254"><g
           id="g260"><g
             id="g262"><path
               id="path270"
               style="fill:url(#linearGradient264);stroke:none"
               d="m 126,192.878 4,0 0,8 -4,0 0,-8 z" /></g></g></g></g><g
       id="g272"><g
         clip-path="url(#clipPath276)"
         id="g274"><g
           id="g280"><g
             id="g282"><path
               id="path290"
               style="fill:url(#linearGradient284);stroke:none"
               d="m 126,176.878 4,0 0,8 -4,0 0,-8 z" /></g></g></g></g><g
       id="g292"><g
         clip-path="url(#clipPath296)"
         id="g294"><g
           id="g300"><g
             id="g302"><path
               id="path310"
               style="fill:url(#linearGradient304);stroke:none"
               d="m 158.423,105.642 6.48,-3.534 1.916,3.512 -6.44,3.511 c -0.587,-1.203 -1.244,-2.366 -1.956,-3.489" /></g></g></g></g><g
       id="g312"><g
         clip-path="url(#clipPath316)"
         id="g314"><g
           id="g320"><g
             id="g322"><path
               id="path330"
               style="fill:url(#linearGradient324);stroke:none"
               d="m 171.926,98.276 7.023,-3.831 1.916,3.512 -7.023,3.831 -1.916,-3.512 z" /></g></g></g></g><g
       id="g332"><g
         clip-path="url(#clipPath336)"
         id="g334"><g
           id="g340"><g
             id="g342"><path
               id="path350"
               style="fill:url(#linearGradient344);stroke:none"
               d="m 200.02,82.953 7.022,-3.831 1.916,3.511 -7.022,3.832 -1.916,-3.512 z" /></g></g></g></g><g
       id="g352"><g
         clip-path="url(#clipPath356)"
         id="g354"><g
           id="g360"><g
             id="g362"><path
               id="path370"
               style="fill:url(#linearGradient364);stroke:none"
               d="m 47.042,82.633 1.916,-3.511 7.024,3.831 -1.916,3.512 -7.024,-3.832 z" /></g></g></g></g><g
       id="g372"><g
         clip-path="url(#clipPath376)"
         id="g374"><g
           id="g380"><g
             id="g382"><path
               id="path390"
               style="fill:url(#linearGradient384);stroke:none"
               d="m 185.972,90.615 7.024,-3.831 1.915,3.512 -7.022,3.83 -1.917,-3.511 z" /></g></g></g></g><g
       id="g392"><g
         clip-path="url(#clipPath396)"
         id="g394"><g
           id="g400"><g
             id="g402"><path
               id="path410"
               style="fill:url(#linearGradient404);stroke:none"
               d="m 89.181,105.62 1.916,-3.512 6.48,3.534 c -0.713,1.123 -1.369,2.286 -1.956,3.489 l 0,0 -6.44,-3.511 z" /></g></g></g></g><g
       id="g412"><g
         clip-path="url(#clipPath416)"
         id="g414"><g
           id="g420"><g
             id="g422"><path
               id="path430"
               style="fill:url(#linearGradient424);stroke:none"
               d="m 61.087,90.296 1.917,-3.512 7.023,3.831 -1.916,3.511 -7.024,-3.83 z" /></g></g></g></g><g
       id="g432"><g
         clip-path="url(#clipPath436)"
         id="g434"><g
           id="g440"><g
             id="g442"><path
               id="path450"
               style="fill:url(#linearGradient444);stroke:none"
               d="m 75.135,97.957 1.916,-3.512 7.023,3.831 -1.916,3.512 -7.023,-3.831 z" /></g></g></g></g><g
       id="g452"><g
         clip-path="url(#clipPath456)"
         id="g454"><g
           id="g460"><g
             id="g462"><path
               id="path470"
               style="fill:url(#linearGradient464);stroke:none"
               d="M 127.805,166 C 106.853,165.893 89.893,148.758 90,127.805 l 0,0 C 90.107,106.918 107.134,90 127.997,90 l 0,0 0.197,0 c 20.953,0.107 37.914,17.242 37.806,38.195 l 0,0 c -0.107,20.739 -17.066,37.698 -37.816,37.805 l 0,0 -0.379,0 z" /></g></g></g></g><g
       id="g472"><g
         clip-path="url(#clipPath476)"
         id="g474"><g
           transform="translate(135.7959,161.0913)"
           id="g480"><path
             id="path482"
             style="fill:#ffffff;fill-opacity:1;fill-rule:nonzero;stroke:none"
             d="m 0,0 c 0.685,-0.716 1.347,-1.453 1.984,-2.207 3.199,-3.787 5.709,-7.926 7.547,-12.27 2.724,1.107 5.364,2.486 7.881,4.136 C 12.854,-5.298 6.814,-1.616 0,0 m -33.027,-10.325 c 2.527,-1.659 5.178,-3.044 7.913,-4.155 2.219,5.261 5.403,10.184 9.525,14.487 -6.838,-1.609 -12.883,-5.288 -17.438,-10.332 m 11.687,-5.5 c 3.766,-1.159 7.645,-1.822 11.544,-1.991 l 0,17.827 c -5.151,-4.488 -9.012,-9.926 -11.544,-15.836 m 15.544,15.835 0,-17.826 c 3.901,0.169 7.785,0.834 11.553,1.994 -1.677,3.903 -3.949,7.625 -6.829,11.034 -1.445,1.711 -3.032,3.323 -4.724,4.798 m -35.942,-31.102 12.87,0 c 0.2,4.362 0.988,8.695 2.352,12.863 -3.125,1.262 -6.15,2.852 -9.025,4.77 -3.577,-5.041 -5.816,-11.095 -6.197,-17.633 m 16.873,0 15.069,0 0,9.273 c -4.375,0.174 -8.732,0.922 -12.953,2.243 -1.213,-3.736 -1.921,-7.611 -2.116,-11.516 m 19.069,0 15.073,0 c -0.188,3.89 -0.887,7.764 -2.109,11.52 -4.223,-1.324 -8.585,-2.073 -12.964,-2.247 l 0,-9.273 z m 19.075,0 12.867,0 c -0.384,6.527 -2.634,12.577 -6.219,17.619 -2.865,-1.91 -5.878,-3.493 -8.991,-4.751 1.373,-4.19 2.151,-8.525 2.343,-12.868 M -5.796,-44.365 c 4.412,-0.176 8.807,-0.934 13.061,-2.277 1.184,3.751 1.863,7.637 2.025,11.551 l -15.086,0 0,-9.274 z m -19.089,9.274 c 0.156,-3.899 0.825,-7.785 2.018,-11.555 4.257,1.346 8.655,2.105 13.071,2.281 l 0,9.274 -15.089,0 z m -16.853,0 c 0.382,-6.547 2.622,-12.596 6.198,-17.633 2.839,1.892 5.824,3.467 8.907,4.721 -1.346,4.209 -2.094,8.556 -2.253,12.912 l -12.852,0 z m 52.767,-12.908 c 3.086,-1.252 6.077,-2.831 8.919,-4.725 3.578,5.041 5.818,11.093 6.198,17.633 l -12.854,0 c -0.167,-4.374 -0.925,-8.719 -2.263,-12.908 M 9.654,-51.757 C 7.51,-56.941 4.435,-61.804 0.451,-66.08 c 6.652,1.663 12.529,5.289 16.985,10.221 -2.488,1.633 -5.093,3 -7.782,4.102 m -42.68,-4.102 c 4.459,-4.935 10.341,-8.56 16.99,-10.223 -0.527,0.567 -1.041,1.145 -1.539,1.735 -3.276,3.879 -5.831,8.129 -7.681,12.586 -2.684,-1.102 -5.287,-2.467 -7.77,-4.098 m 11.539,5.455 c 1.689,-4.023 4.008,-7.857 6.967,-11.361 1.446,-1.711 3.033,-3.322 4.724,-4.797 l 0,18.195 c -3.949,-0.172 -7.88,-0.851 -11.691,-2.037 m 27.374,0.002 C 3.357,-56.437 -0.55,-61.994 -5.796,-66.564 l 0,18.197 c 3.946,-0.172 7.874,-0.849 11.683,-2.035" /></g></g></g><g
       id="g484"><g
         clip-path="url(#clipPath488)"
         id="g486"><g
           id="g492"><g
             id="g494"><path
               id="path502"
               style="fill:url(#linearGradient496);stroke:none"
               d="m 129.861,224 3.464,-2 2,3.464 -3.463,2 -2.001,-3.464 z m 6.929,-3.999 3.464,-2 2,3.464 -3.464,2 -2,-3.464 z m 6.927,-4 3.465,-2.001 1.999,3.464 -3.463,2 -2.001,-3.463 z m 6.929,-4.001 3.465,-1.999 1.999,3.464 -3.464,1.999 -2,-3.464 z m 6.928,-3.999 3.464,-2.001 2,3.464 -3.464,2 -2,-3.463 z m 6.929,-4.001 3.464,-1.999 2,3.464 -3.464,1.999 -2,-3.464 z m 6.928,-3.999 3.463,-2 2,3.463 -3.463,2.001 -2,-3.464 z m 6.928,-4.001 3.464,-2 2,3.464 -3.464,2 -2,-3.464 z m 6.928,-3.999 3.464,-2 2,3.463 -3.464,2.001 -2,-3.464 z m 6.929,-4.001 3.464,-2 2,3.464 -3.465,2 -1.999,-3.464 z m 6.928,-3.999 3.463,-2 2.001,3.464 -3.464,2 -2,-3.464 z m 6.928,-4 3.464,-2.001 2,3.464 -3.464,2 -2,-3.463 z m 5.928,-6.269 4,0 0,4 -4,0 0,-4 z m 0,-8 4,0 0,4.001 -4,0 0,-4.001 z m 0,-8 4,0 0,4.001 -4,0 0,-4.001 z m 0,-8 4,0 0,4 -4,0 0,-4 z m 0,-8 4,0 0,4.001 -4,0 0,-4.001 z m 0,-7.999 4,0 0,4 -4,0 0,-4 z m 0,-8 4,0 0,4 -4,0 0,-4 z m 0,-8 4,0 0,4 -4,0 0,-4 z m 0,-8.001 4,0 0,4 -4,0 0,-4 z m 0,-8 4,0 0,4 -4,0 0,-4 z m 0,-8 4,0 0,4.001 -4,0 0,-4.001 z m 0,-8 4,0 0,4.001 -4,0 0,-4.001 z m 0,-8 4,0 0,4.001 -4,0 0,-4.001 z m -5.928,-2.267 2,-3.465 3.464,2 -2,3.465 -3.464,-2 z m -6.928,-4 2,-3.465 3.464,2 -2.001,3.465 -3.463,-2 z m -6.928,-4 1.999,-3.465 3.465,2 -2,3.465 -3.464,-2 z m -6.929,-4.001 2,-3.464 3.464,2 -2,3.465 -3.464,-2.001 z m -6.928,-3.999 2,-3.465 3.464,2 -2,3.465 -3.464,-2 z m -6.928,-4 2,-3.465 3.463,2 -2,3.465 -3.463,-2 z m -6.928,-4 2,-3.465 3.464,2 -2,3.465 -3.464,-2 z m -6.929,-4 2,-3.465 3.464,2 -2,3.465 -3.464,-2 z m -6.928,-4 2,-3.465 3.464,2 -1.999,3.464 -3.465,-1.999 z m -6.929,-4 2.001,-3.465 3.464,2 -2,3.465 -3.465,-2 z m -6.927,-4 2,-3.465 3.464,2 -2,3.465 -3.464,-2 z m -6.929,-4 2.001,-3.465 3.464,2 -2,3.465 -3.465,-2 z" /></g></g></g></g><g
       id="g504"><g
         clip-path="url(#clipPath508)"
         id="g506"><g
           id="g512"><g
             id="g514"><path
               id="path522"
               style="fill:url(#linearGradient516);stroke:none"
               d="m 120.675,225.732 1.999,-3.464 3.465,2 -2,3.463 -3.464,-1.999 z m -6.928,-4 1.999,-3.464 3.464,2 -2,3.464 -3.463,-2 z m -6.929,-4 2,-3.464 3.464,2 -2,3.464 -3.464,-2 z m -6.929,-4 2.001,-3.464 3.463,2 -2,3.464 -3.464,-2 z m -6.927,-4.001 2,-3.463 3.464,2 -2,3.464 -3.464,-2.001 z m -6.929,-3.999 2.001,-3.464 3.463,2 -2,3.464 -3.464,-2 z m -6.928,-4 2,-3.464 3.464,2 -1.999,3.464 -3.465,-2 z m -6.929,-4 2.001,-3.464 3.463,2 -1.999,3.464 -3.465,-2 z m -6.927,-4 2,-3.464 3.464,2 -2,3.464 -3.464,-2 z m -6.929,-4 2.001,-3.464 3.463,2 -2,3.463 -3.464,-1.999 z m -6.927,-4 2,-3.464 3.464,2 -2,3.464 -3.464,-2 z m -6.929,-4 2,-3.464 3.464,2 -2,3.464 -3.464,-2 z M 40,174 l 4.001,0 0,4.001 -4.001,0 0,-4.001 z m 0,-8 4.001,0 0,4 -4.001,0 0,-4 z m 0,-8 4.001,0 0,4 -4.001,0 0,-4 z m 0,-8 4.001,0 0,4 -4.001,0 0,-4 z m 0,-8 4.001,0 0,4 -4.001,0 0,-4 z m 0,-8 4.001,0 0,4 -4.001,0 0,-4 z m 0,-8 4.001,0 0,4 -4.001,0 0,-4 z m 0,-8 4.001,0 0,4.001 -4.001,0 0,-4.001 z m 0,-8 4.001,0 0,4.001 -4.001,0 0,-4.001 z m 0,-8 4.001,0 0,4.001 -4.001,0 0,-4.001 z m 0,-8 4.001,0 0,4.001 -4.001,0 L 40,94 Z m 0,-8 4.001,0 0,4 -4.001,0 0,-4 z m 0,-8 4.001,0 0,4 -4.001,0 0,-4 z m 4.464,-3.732 3.464,-2.001 2,3.465 -3.464,2 -2,-3.464 z m 6.929,-4 3.464,-2 2,3.465 -3.464,1.999 -2,-3.464 z m 6.927,-4 3.464,-2.001 2,3.465 -3.463,2 -2.001,-3.464 z m 6.929,-4.001 3.464,-1.999 2,3.465 -3.464,1.999 -2,-3.465 z m 6.927,-3.999 3.465,-2 1.999,3.464 -3.463,2.001 -2.001,-3.465 z m 6.929,-4.001 3.465,-1.999 1.999,3.464 -3.464,2 -2,-3.465 z m 6.928,-3.999 3.464,-2 2,3.464 -3.463,2.001 -2.001,-3.465 z m 6.929,-4.001 3.464,-2 2,3.465 -3.464,2 -2,-3.465 z m 6.927,-3.999 3.464,-2 2,3.465 -3.463,2 -2.001,-3.465 z m 6.928,-4 3.465,-2.001 2,3.465 -3.465,2 -2,-3.464 z m 6.93,-4 3.463,-2 2,3.465 -3.464,1.999 -1.999,-3.464 z m 6.927,-4 3.465,-2.001 2,3.465 -3.465,2 -2,-3.464 z" /></g></g></g></g><g
       id="g524"><g
         clip-path="url(#clipPath528)"
         id="g526"><g
           id="g532"><g
             id="g534"><path
               id="path542"
               style="fill:url(#linearGradient536);stroke:none"
               d="M 22,82 C 22,70.954 30.954,62 42,62 l 0,0 c 11.046,0 20,8.954 20,20 l 0,0 c 0,11.046 -8.954,20 -20,20 l 0,0 C 30.954,102 22,93.046 22,82" /></g></g></g></g><g
       id="g544"><g
         clip-path="url(#clipPath548)"
         id="g546"><g
           id="g552"><g
             id="g554"><path
               id="path562"
               style="fill:url(#linearGradient556);stroke:none"
               d="m 194,82 c 0,-11.046 8.954,-20 20,-20 l 0,0 c 11.046,0 20,8.954 20,20 l 0,0 c 0,11.046 -8.954,20 -20,20 l 0,0 c -11.046,0 -20,-8.954 -20,-20" /></g></g></g></g><g
       id="g564"><g
         clip-path="url(#clipPath568)"
         id="g566"><g
           id="g572"><g
             id="g574"><path
               id="path582"
               style="fill:url(#linearGradient576);stroke:none"
               d="m 108,32 c 0,-11.046 8.954,-20 20,-20 l 0,0 c 11.046,0 20,8.954 20,20 l 0,0 c 0,11.046 -8.954,20 -20,20 l 0,0 c -11.046,0 -20,-8.954 -20,-20" /></g></g></g></g><g
       id="g584"><g
         clip-path="url(#clipPath588)"
         id="g586"><g
           id="g592"><g
             id="g594"><path
               id="path602"
               style="fill:url(#linearGradient596);stroke:none"
               d="m 108,224 c 0,-11.046 8.954,-20 20,-20 l 0,0 c 11.046,0 20,8.954 20,20 l 0,0 c 0,11.046 -8.954,20 -20,20 l 0,0 c -11.046,0 -20,-8.954 -20,-20" /></g></g></g></g><g
       id="g604"><g
         clip-path="url(#clipPath608)"
         id="g606"><g
           id="g612"><g
             id="g614"><path
               id="path622"
               style="fill:url(#linearGradient616);stroke:none"
               d="m 22,174 c 0,-11.046 8.954,-20 20,-20 l 0,0 c 11.046,0 20,8.954 20,20 l 0,0 c 0,11.046 -8.954,20 -20,20 l 0,0 c -11.046,0 -20,-8.954 -20,-20" /></g></g></g></g><g
       id="g624"><g
         clip-path="url(#clipPath628)"
         id="g626"><g
           id="g632"><g
             id="g634"><path
               id="path642"
               style="fill:url(#linearGradient636);stroke:none"
               d="m 194,174 c 0,-11.046 8.954,-20 20,-20 l 0,0 c 11.046,0 20,8.954 20,20 l 0,0 c 0,11.046 -8.954,20 -20,20 l 0,0 c -11.046,0 -20,-8.954 -20,-20" /></g></g></g></g></g></svg>