<?xml version="1.0" encoding="UTF-8" standalone="no"?>
<svg
   xmlns:dc="http://purl.org/dc/elements/1.1/"
   xmlns:cc="http://creativecommons.org/ns#"
   xmlns:rdf="http://www.w3.org/1999/02/22-rdf-syntax-ns#"
   xmlns:svg="http://www.w3.org/2000/svg"
   xmlns="http://www.w3.org/2000/svg"
   viewBox="0 0 320 320"
   height="320"
   width="320"
   xml:space="preserve"
   version="1.1"
   id="svg2"><metadata
     id="metadata8"><rdf:RDF><cc:Work
         rdf:about=""><dc:format>image/svg+xml</dc:format><dc:type
           rdf:resource="http://purl.org/dc/dcmitype/StillImage" /></cc:Work></rdf:RDF></metadata><defs
     id="defs6"><clipPath
       id="clipPath16"
       clipPathUnits="userSpaceOnUse"><path
         id="path18"
         d="m 133.325,222 -3.464,2 2,3.464 3.464,-2 -2,-3.464 z m 6.929,-4 -3.464,2 2,3.464 3.464,-2 -2,-3.464 z m 6.928,-4 -3.464,2 2,3.464 3.464,-2 -2,-3.464 z m 6.928,-4 -3.464,2 2,3.464 3.464,-2 -2,-3.464 z m 6.928,-4 -3.464,2 2,3.464 3.464,-2 -2,-3.464 z m 6.929,-4 -3.464,2 2,3.464 3.464,-2 -2,-3.464 z m 6.928,-4 -3.464,2 2,3.464 3.464,-2 -2,-3.464 z m 6.928,-4 -3.464,2 2,3.464 3.464,-2 -2,-3.464 z m 6.928,-4 -3.464,2 2,3.464 3.464,-2 -2,-3.464 z m 6.929,-4 -3.464,2 2,3.464 3.464,-2 -2,-3.464 z m 6.927,-4 -3.463,2 2,3.464 3.463,-2 -2,-3.464 z m 6.929,-4 -3.464,2 2,3.464 3.464,-2 -2,-3.464 z m 6.464,-4.268 -4,0 0,4 4,0 0,-4 z m 0,-8 -4,0 0,4 4,0 0,-4 z m 0,-8 -4,0 0,4 4,0 0,-4 z m 0,-8 -4,0 0,4 4,0 0,-4 z m 0,-8 -4,0 0,4 4,0 0,-4 z m 0,-8 -4,0 0,4 4,0 0,-4 z m 0,-8 -4,0 0,4 4,0 0,-4 z m 0,-8 -4,0 0,4 4,0 0,-4 z m 0,-8 -4,0 0,4 4,0 0,-4 z m 0,-8 -4,0 0,4 4,0 0,-4 z m 0,-8 -4,0 0,4 4,0 0,-4 z m 0,-8 -4,0 0,4 4,0 0,-4 z m 0,-8 -4,0 0,4 4,0 0,-4 z M 208.072,72 l -2,3.465 3.464,2 2,-3.465 -3.464,-2 z m -6.928,-4 -2,3.465 3.463,2 2,-3.465 -3.463,-2 z m -6.928,-4 -2,3.465 3.464,2 2,-3.465 -3.464,-2 z m -6.929,-4 -2,3.465 3.464,2 2,-3.465 -3.464,-2 z m -6.928,-4 -2,3.465 3.464,2 2,-3.465 -3.464,-2 z m -6.928,-4 -2,3.465 3.464,2 2,-3.465 -3.464,-2 z m -6.928,-4 -2,3.465 3.464,2 2,-3.465 -3.464,-2 z m -6.929,-4 -2,3.465 3.464,2 2,-3.465 -3.464,-2 z m -6.928,-4 -2,3.465 3.464,2 2,-3.465 -3.464,-2 z m -6.928,-4 -2,3.465 3.465,2 2,-3.465 -3.465,-2 z m -6.928,-4 -2,3.465 3.464,2 2,-3.465 -3.464,-2 z m -6.929,-4 -2,3.465 3.465,2 2,-3.465 -3.465,-2 z" /></clipPath><linearGradient
       id="linearGradient24"
       spreadMethod="pad"
       gradientTransform="matrix(116.9353,-116.9353,-116.9353,-116.9353,90.596924,186.19995)"
       gradientUnits="userSpaceOnUse"
       y2="0"
       x2="1"
       y1="0"
       x1="0"><stop
         id="stop26"
         offset="0"
         style="stop-opacity:1;stop-color:#e6e7e8" /><stop
         id="stop28"
         offset="1"
         style="stop-opacity:1;stop-color:#d1d3d4" /></linearGradient><clipPath
       id="clipPath36"
       clipPathUnits="userSpaceOnUse"><path
         id="path38"
         d="m 120.675,225.732 3.464,2 2,-3.464 -3.464,-2 -2,3.464 z m -6.929,-4 3.464,2 2,-3.464 -3.464,-2 -2,3.464 z m -6.928,-4 3.464,2 2,-3.464 -3.464,-2 -2,3.464 z m -6.928,-4 3.464,2 2,-3.464 -3.464,-2 -2,3.464 z m -6.928,-4 3.464,2 2,-3.464 -3.464,-2 -2,3.464 z m -6.929,-4 3.464,2 2,-3.464 -3.464,-2 -2,3.464 z m -6.928,-4 3.464,2 2,-3.464 -3.464,-2 -2,3.464 z m -6.928,-4 3.464,2 2,-3.464 -3.464,-2 -2,3.464 z m -6.928,-4 3.464,2 2,-3.464 -3.464,-2 -2,3.464 z m -6.929,-4 3.464,2 2,-3.464 -3.464,-2 -2,3.464 z m -6.927,-4 3.463,2 2,-3.464 -3.463,-2 -2,3.464 z m -6.929,-4 3.464,2 2,-3.464 -3.464,-2 -2,3.464 z M 40,178 l 4,0 0,-4 -4,0 0,4 z m 0,-8 4,0 0,-4 -4,0 0,4 z m 0,-8 4,0 0,-4 -4,0 0,4 z m 0,-8 4,0 0,-4 -4,0 0,4 z m 0,-8 4,0 0,-4 -4,0 0,4 z m 0,-8 4,0 0,-4 -4,0 0,4 z m 0,-8 4,0 0,-4 -4,0 0,4 z m 0,-8 4,0 0,-4 -4,0 0,4 z m 0,-8 4,0 0,-4 -4,0 0,4 z m 0,-8 4,0 0,-4 -4,0 0,4 z m 0,-8 4,0 0,-4 -4,0 0,4 z m 0,-8 4,0 0,-4 -4,0 0,4 z m 0,-8 4,0 0,-4 -4,0 0,4 z m 4.464,-7.732 2,3.464 3.464,-2 -2,-3.464 -3.464,2 z m 6.929,-4 2,3.464 3.463,-2 -2,-3.464 -3.463,2 z m 6.927,-4 2,3.464 3.464,-2 -2,-3.464 -3.464,2 z m 6.929,-4 2,3.464 3.464,-2 -2,-3.464 -3.464,2 z m 6.928,-4 2,3.464 3.464,-2 -2,-3.464 -3.464,2 z m 6.928,-4 2,3.464 3.464,-2 -2,-3.464 -3.464,2 z m 6.928,-4 2,3.464 3.464,-2 -2,-3.464 -3.464,2 z m 6.929,-4 2,3.464 3.464,-2 -2,-3.464 -3.464,2 z m 6.928,-4 2,3.464 3.464,-2 -2,-3.464 -3.464,2 z m 6.927,-4 2,3.464 3.465,-2 -2,-3.464 -3.465,2 z m 6.929,-4 2,3.464 3.464,-2 -2,-3.464 -3.464,2 z m 6.928,-4 2,3.464 3.465,-2 -2,-3.464 -3.465,2 z" /></clipPath><linearGradient
       id="linearGradient44"
       spreadMethod="pad"
       gradientTransform="matrix(116.93555,-116.93555,-116.93555,-116.93555,48.467651,186.46765)"
       gradientUnits="userSpaceOnUse"
       y2="0"
       x2="1"
       y1="0"
       x1="0"><stop
         id="stop46"
         offset="0"
         style="stop-opacity:1;stop-color:#e6e7e8" /><stop
         id="stop48"
         offset="1"
         style="stop-opacity:1;stop-color:#d1d3d4" /></linearGradient><clipPath
       id="clipPath56"
       clipPathUnits="userSpaceOnUse"><path
         id="path58"
         d="m 126,84 4,0 0,8 -4,0 0,-8 z" /></clipPath><linearGradient
       id="linearGradient64"
       spreadMethod="pad"
       gradientTransform="matrix(5.9999995,-5.9999995,-5.9999995,-5.9999995,125,91)"
       gradientUnits="userSpaceOnUse"
       y2="0"
       x2="1"
       y1="0"
       x1="0"><stop
         id="stop66"
         offset="0"
         style="stop-opacity:1;stop-color:#e6e7e8" /><stop
         id="stop68"
         offset="1"
         style="stop-opacity:1;stop-color:#d1d3d4" /></linearGradient><clipPath
       id="clipPath76"
       clipPathUnits="userSpaceOnUse"><path
         id="path78"
         d="m 130,60 -4,0 0,-8 4,0 0,8 z" /></clipPath><linearGradient
       id="linearGradient84"
       spreadMethod="pad"
       gradientTransform="matrix(5.9999995,-5.9999995,-5.9999995,-5.9999995,125,59)"
       gradientUnits="userSpaceOnUse"
       y2="0"
       x2="1"
       y1="0"
       x1="0"><stop
         id="stop86"
         offset="0"
         style="stop-opacity:1;stop-color:#e6e7e8" /><stop
         id="stop88"
         offset="1"
         style="stop-opacity:1;stop-color:#d1d3d4" /></linearGradient><clipPath
       id="clipPath96"
       clipPathUnits="userSpaceOnUse"><path
         id="path98"
         d="m 130,76 -4,0 0,-8 4,0 0,8 z" /></clipPath><linearGradient
       id="linearGradient104"
       spreadMethod="pad"
       gradientTransform="matrix(5.9999995,-5.9999995,-5.9999995,-5.9999995,125,75)"
       gradientUnits="userSpaceOnUse"
       y2="0"
       x2="1"
       y1="0"
       x1="0"><stop
         id="stop106"
         offset="0"
         style="stop-opacity:1;stop-color:#e6e7e8" /><stop
         id="stop108"
         offset="1"
         style="stop-opacity:1;stop-color:#d1d3d4" /></linearGradient><clipPath
       id="clipPath116"
       clipPathUnits="userSpaceOnUse"><path
         id="path118"
         d="m 89.182,147.259 6.439,-3.513 c 0.587,1.204 1.243,2.367 1.956,3.49 l 0,0 -6.48,3.535 -1.915,-3.512 z" /></clipPath><linearGradient
       id="linearGradient124"
       spreadMethod="pad"
       gradientTransform="matrix(5.7742004,-5.7742004,-5.7742004,-5.7742004,90.476517,150.15034)"
       gradientUnits="userSpaceOnUse"
       y2="0"
       x2="1"
       y1="0"
       x1="0"><stop
         id="stop126"
         offset="0"
         style="stop-opacity:1;stop-color:#e6e7e8" /><stop
         id="stop128"
         offset="1"
         style="stop-opacity:1;stop-color:#d1d3d4" /></linearGradient><clipPath
       id="clipPath136"
       clipPathUnits="userSpaceOnUse"><path
         id="path138"
         d="m 75.135,154.921 7.022,-3.831 1.917,3.512 -7.023,3.83 -1.916,-3.511 z" /></clipPath><linearGradient
       id="linearGradient144"
       spreadMethod="pad"
       gradientTransform="matrix(6.2248535,-6.2248535,-6.2248535,-6.2248535,76.491821,157.87366)"
       gradientUnits="userSpaceOnUse"
       y2="0"
       x2="1"
       y1="0"
       x1="0"><stop
         id="stop146"
         offset="0"
         style="stop-opacity:1;stop-color:#e6e7e8" /><stop
         id="stop148"
         offset="1"
         style="stop-opacity:1;stop-color:#d1d3d4" /></linearGradient><clipPath
       id="clipPath156"
       clipPathUnits="userSpaceOnUse"><path
         id="path158"
         d="m 47.042,170.244 7.023,-3.831 1.916,3.511 -7.023,3.832 -1.916,-3.512 z" /></clipPath><linearGradient
       id="linearGradient164"
       spreadMethod="pad"
       gradientTransform="matrix(6.2248535,-6.2248535,-6.2248535,-6.2248535,48.399048,173.1969)"
       gradientUnits="userSpaceOnUse"
       y2="0"
       x2="1"
       y1="0"
       x1="0"><stop
         id="stop166"
         offset="0"
         style="stop-opacity:1;stop-color:#e6e7e8" /><stop
         id="stop168"
         offset="1"
         style="stop-opacity:1;stop-color:#d1d3d4" /></linearGradient><clipPath
       id="clipPath176"
       clipPathUnits="userSpaceOnUse"><path
         id="path178"
         d="m 200.019,169.924 1.916,-3.511 7.023,3.831 -1.916,3.512 -7.023,-3.832 z" /></clipPath><linearGradient
       id="linearGradient184"
       spreadMethod="pad"
       gradientTransform="matrix(4.3100586,-4.3100586,-4.3100586,-4.3100586,202.33325,172.2395)"
       gradientUnits="userSpaceOnUse"
       y2="0"
       x2="1"
       y1="0"
       x1="0"><stop
         id="stop186"
         offset="0"
         style="stop-opacity:1;stop-color:#e6e7e8" /><stop
         id="stop188"
         offset="1"
         style="stop-opacity:1;stop-color:#d1d3d4" /></linearGradient><clipPath
       id="clipPath196"
       clipPathUnits="userSpaceOnUse"><path
         id="path198"
         d="m 61.089,162.582 7.023,-3.83 1.915,3.512 -7.023,3.83 -1.915,-3.512 z" /></clipPath><linearGradient
       id="linearGradient204"
       spreadMethod="pad"
       gradientTransform="matrix(6.2248535,-6.2248535,-6.2248535,-6.2248535,62.445435,165.53528)"
       gradientUnits="userSpaceOnUse"
       y2="0"
       x2="1"
       y1="0"
       x1="0"><stop
         id="stop206"
         offset="0"
         style="stop-opacity:1;stop-color:#e6e7e8" /><stop
         id="stop208"
         offset="1"
         style="stop-opacity:1;stop-color:#d1d3d4" /></linearGradient><clipPath
       id="clipPath216"
       clipPathUnits="userSpaceOnUse"><path
         id="path218"
         d="m 158.423,147.236 c 0.712,-1.123 1.369,-2.286 1.956,-3.49 l 0,0 6.441,3.513 -1.917,3.512 -6.48,-3.535 z" /></clipPath><linearGradient
       id="linearGradient224"
       spreadMethod="pad"
       gradientTransform="matrix(4.1870728,-4.1870728,-4.1870728,-4.1870728,160.543,149.3566)"
       gradientUnits="userSpaceOnUse"
       y2="0"
       x2="1"
       y1="0"
       x1="0"><stop
         id="stop226"
         offset="0"
         style="stop-opacity:1;stop-color:#e6e7e8" /><stop
         id="stop228"
         offset="1"
         style="stop-opacity:1;stop-color:#d1d3d4" /></linearGradient><clipPath
       id="clipPath236"
       clipPathUnits="userSpaceOnUse"><path
         id="path238"
         d="m 185.972,162.264 1.917,-3.512 7.023,3.83 -1.916,3.512 -7.024,-3.83 z" /></clipPath><linearGradient
       id="linearGradient244"
       spreadMethod="pad"
       gradientTransform="matrix(4.3105469,-4.3105469,-4.3105469,-4.3105469,188.28711,164.57812)"
       gradientUnits="userSpaceOnUse"
       y2="0"
       x2="1"
       y1="0"
       x1="0"><stop
         id="stop246"
         offset="0"
         style="stop-opacity:1;stop-color:#e6e7e8" /><stop
         id="stop248"
         offset="1"
         style="stop-opacity:1;stop-color:#d1d3d4" /></linearGradient><clipPath
       id="clipPath256"
       clipPathUnits="userSpaceOnUse"><path
         id="path258"
         d="m 171.926,154.602 1.916,-3.512 7.023,3.831 -1.916,3.511 -7.023,-3.83 z" /></clipPath><linearGradient
       id="linearGradient264"
       spreadMethod="pad"
       gradientTransform="matrix(4.3100586,-4.3100586,-4.3100586,-4.3100586,174.24048,156.91626)"
       gradientUnits="userSpaceOnUse"
       y2="0"
       x2="1"
       y1="0"
       x1="0"><stop
         id="stop266"
         offset="0"
         style="stop-opacity:1;stop-color:#e6e7e8" /><stop
         id="stop268"
         offset="1"
         style="stop-opacity:1;stop-color:#d1d3d4" /></linearGradient><clipPath
       id="clipPath276"
       clipPathUnits="userSpaceOnUse"><path
         id="path278"
         d="m 96,146 0,-36 32,-18 32,18 0,36 -32,18 -32,-18 z" /></clipPath><linearGradient
       id="linearGradient284"
       spreadMethod="pad"
       gradientTransform="matrix(50,-50,-50,-50,103,153)"
       gradientUnits="userSpaceOnUse"
       y2="0"
       x2="1"
       y1="0"
       x1="0"><stop
         id="stop286"
         offset="0"
         style="stop-opacity:1;stop-color:#e6e7e8" /><stop
         id="stop288"
         offset="1"
         style="stop-opacity:1;stop-color:#d1d3d4" /></linearGradient><clipPath
       id="clipPath296"
       clipPathUnits="userSpaceOnUse"><path
         id="path298"
         d="M 0,256 256,256 256,0 0,0 0,256 Z" /></clipPath><clipPath
       id="clipPath340"
       clipPathUnits="userSpaceOnUse"><path
         id="path342"
         d="M 22,82 C 22,70.954 30.954,62 42,62 l 0,0 c 11.046,0 20,8.954 20,20 l 0,0 c 0,11.046 -8.954,20 -20,20 l 0,0 C 30.954,102 22,93.046 22,82" /></clipPath><linearGradient
       id="linearGradient348"
       spreadMethod="pad"
       gradientTransform="matrix(28.284271,-28.284271,-28.284271,-28.284271,27.857864,96.142136)"
       gradientUnits="userSpaceOnUse"
       y2="0"
       x2="1"
       y1="0"
       x1="0"><stop
         id="stop350"
         offset="0"
         style="stop-opacity:1;stop-color:#e6e7e8" /><stop
         id="stop352"
         offset="1"
         style="stop-opacity:1;stop-color:#d1d3d4" /></linearGradient><clipPath
       id="clipPath360"
       clipPathUnits="userSpaceOnUse"><path
         id="path362"
         d="m 194,82 c 0,-11.046 8.954,-20 20,-20 l 0,0 c 11.046,0 20,8.954 20,20 l 0,0 c 0,11.046 -8.954,20 -20,20 l 0,0 c -11.046,0 -20,-8.954 -20,-20" /></clipPath><linearGradient
       id="linearGradient368"
       spreadMethod="pad"
       gradientTransform="matrix(28.284271,-28.284271,-28.284271,-28.284271,199.85786,96.142136)"
       gradientUnits="userSpaceOnUse"
       y2="0"
       x2="1"
       y1="0"
       x1="0"><stop
         id="stop370"
         offset="0"
         style="stop-opacity:1;stop-color:#e6e7e8" /><stop
         id="stop372"
         offset="1"
         style="stop-opacity:1;stop-color:#d1d3d4" /></linearGradient><clipPath
       id="clipPath380"
       clipPathUnits="userSpaceOnUse"><path
         id="path382"
         d="m 108,32 c 0,-11.046 8.954,-20 20,-20 l 0,0 c 11.046,0 20,8.954 20,20 l 0,0 c 0,11.046 -8.954,20 -20,20 l 0,0 c -11.046,0 -20,-8.954 -20,-20" /></clipPath><linearGradient
       id="linearGradient388"
       spreadMethod="pad"
       gradientTransform="matrix(-28.284271,28.284271,28.284271,28.284271,142.14214,17.857864)"
       gradientUnits="userSpaceOnUse"
       y2="0"
       x2="1"
       y1="0"
       x1="0"><stop
         id="stop390"
         offset="0"
         style="stop-opacity:1;stop-color:#e6e7e8" /><stop
         id="stop392"
         offset="1"
         style="stop-opacity:1;stop-color:#d1d3d4" /></linearGradient><clipPath
       id="clipPath400"
       clipPathUnits="userSpaceOnUse"><path
         id="path402"
         d="m 108,224 c 0,-11.046 8.954,-20 20,-20 l 0,0 c 11.046,0 20,8.954 20,20 l 0,0 c 0,11.046 -8.954,20 -20,20 l 0,0 c -11.046,0 -20,-8.954 -20,-20" /></clipPath><linearGradient
       id="linearGradient408"
       spreadMethod="pad"
       gradientTransform="matrix(28.284271,-28.284271,-28.284271,-28.284271,113.85786,238.14214)"
       gradientUnits="userSpaceOnUse"
       y2="0"
       x2="1"
       y1="0"
       x1="0"><stop
         id="stop410"
         offset="0"
         style="stop-opacity:1;stop-color:#e6e7e8" /><stop
         id="stop412"
         offset="1"
         style="stop-opacity:1;stop-color:#d1d3d4" /></linearGradient><clipPath
       id="clipPath420"
       clipPathUnits="userSpaceOnUse"><path
         id="path422"
         d="m 22,174 c 0,-11.046 8.954,-20 20,-20 l 0,0 c 11.046,0 20,8.954 20,20 l 0,0 c 0,11.046 -8.954,20 -20,20 l 0,0 c -11.046,0 -20,-8.954 -20,-20" /></clipPath><linearGradient
       id="linearGradient428"
       spreadMethod="pad"
       gradientTransform="matrix(-28.284271,28.284271,28.284271,28.284271,56.142136,159.85786)"
       gradientUnits="userSpaceOnUse"
       y2="0"
       x2="1"
       y1="0"
       x1="0"><stop
         id="stop430"
         offset="0"
         style="stop-opacity:1;stop-color:#e6e7e8" /><stop
         id="stop432"
         offset="1"
         style="stop-opacity:1;stop-color:#d1d3d4" /></linearGradient><clipPath
       id="clipPath440"
       clipPathUnits="userSpaceOnUse"><path
         id="path442"
         d="m 194,174 c 0,-11.046 8.954,-20 20,-20 l 0,0 c 11.046,0 20,8.954 20,20 l 0,0 c 0,11.046 -8.954,20 -20,20 l 0,0 c -11.046,0 -20,-8.954 -20,-20" /></clipPath><linearGradient
       id="linearGradient448"
       spreadMethod="pad"
       gradientTransform="matrix(-28.284271,28.284271,28.284271,28.284271,228.14214,159.85786)"
       gradientUnits="userSpaceOnUse"
       y2="0"
       x2="1"
       y1="0"
       x1="0"><stop
         id="stop450"
         offset="0"
         style="stop-opacity:1;stop-color:#e6e7e8" /><stop
         id="stop452"
         offset="1"
         style="stop-opacity:1;stop-color:#d1d3d4" /></linearGradient></defs><g
     transform="matrix(1.25,0,0,-1.25,0,320)"
     id="g10"><g
       id="g12"><g
         clip-path="url(#clipPath16)"
         id="g14"><g
           id="g20"><g
             id="g22"><path
               id="path30"
               style="fill:url(#linearGradient24);stroke:none"
               d="m 133.325,222 -3.464,2 2,3.464 3.464,-2 -2,-3.464 z m 6.929,-4 -3.464,2 2,3.464 3.464,-2 -2,-3.464 z m 6.928,-4 -3.464,2 2,3.464 3.464,-2 -2,-3.464 z m 6.928,-4 -3.464,2 2,3.464 3.464,-2 -2,-3.464 z m 6.928,-4 -3.464,2 2,3.464 3.464,-2 -2,-3.464 z m 6.929,-4 -3.464,2 2,3.464 3.464,-2 -2,-3.464 z m 6.928,-4 -3.464,2 2,3.464 3.464,-2 -2,-3.464 z m 6.928,-4 -3.464,2 2,3.464 3.464,-2 -2,-3.464 z m 6.928,-4 -3.464,2 2,3.464 3.464,-2 -2,-3.464 z m 6.929,-4 -3.464,2 2,3.464 3.464,-2 -2,-3.464 z m 6.927,-4 -3.463,2 2,3.464 3.463,-2 -2,-3.464 z m 6.929,-4 -3.464,2 2,3.464 3.464,-2 -2,-3.464 z m 6.464,-4.268 -4,0 0,4 4,0 0,-4 z m 0,-8 -4,0 0,4 4,0 0,-4 z m 0,-8 -4,0 0,4 4,0 0,-4 z m 0,-8 -4,0 0,4 4,0 0,-4 z m 0,-8 -4,0 0,4 4,0 0,-4 z m 0,-8 -4,0 0,4 4,0 0,-4 z m 0,-8 -4,0 0,4 4,0 0,-4 z m 0,-8 -4,0 0,4 4,0 0,-4 z m 0,-8 -4,0 0,4 4,0 0,-4 z m 0,-8 -4,0 0,4 4,0 0,-4 z m 0,-8 -4,0 0,4 4,0 0,-4 z m 0,-8 -4,0 0,4 4,0 0,-4 z m 0,-8 -4,0 0,4 4,0 0,-4 z M 208.072,72 l -2,3.465 3.464,2 2,-3.465 -3.464,-2 z m -6.928,-4 -2,3.465 3.463,2 2,-3.465 -3.463,-2 z m -6.928,-4 -2,3.465 3.464,2 2,-3.465 -3.464,-2 z m -6.929,-4 -2,3.465 3.464,2 2,-3.465 -3.464,-2 z m -6.928,-4 -2,3.465 3.464,2 2,-3.465 -3.464,-2 z m -6.928,-4 -2,3.465 3.464,2 2,-3.465 -3.464,-2 z m -6.928,-4 -2,3.465 3.464,2 2,-3.465 -3.464,-2 z m -6.929,-4 -2,3.465 3.464,2 2,-3.465 -3.464,-2 z m -6.928,-4 -2,3.465 3.464,2 2,-3.465 -3.464,-2 z m -6.928,-4 -2,3.465 3.465,2 2,-3.465 -3.465,-2 z m -6.928,-4 -2,3.465 3.464,2 2,-3.465 -3.464,-2 z m -6.929,-4 -2,3.465 3.465,2 2,-3.465 -3.465,-2 z" /></g></g></g></g><g
       id="g32"><g
         clip-path="url(#clipPath36)"
         id="g34"><g
           id="g40"><g
             id="g42"><path
               id="path50"
               style="fill:url(#linearGradient44);stroke:none"
               d="m 120.675,225.732 3.464,2 2,-3.464 -3.464,-2 -2,3.464 z m -6.929,-4 3.464,2 2,-3.464 -3.464,-2 -2,3.464 z m -6.928,-4 3.464,2 2,-3.464 -3.464,-2 -2,3.464 z m -6.928,-4 3.464,2 2,-3.464 -3.464,-2 -2,3.464 z m -6.928,-4 3.464,2 2,-3.464 -3.464,-2 -2,3.464 z m -6.929,-4 3.464,2 2,-3.464 -3.464,-2 -2,3.464 z m -6.928,-4 3.464,2 2,-3.464 -3.464,-2 -2,3.464 z m -6.928,-4 3.464,2 2,-3.464 -3.464,-2 -2,3.464 z m -6.928,-4 3.464,2 2,-3.464 -3.464,-2 -2,3.464 z m -6.929,-4 3.464,2 2,-3.464 -3.464,-2 -2,3.464 z m -6.927,-4 3.463,2 2,-3.464 -3.463,-2 -2,3.464 z m -6.929,-4 3.464,2 2,-3.464 -3.464,-2 -2,3.464 z M 40,178 l 4,0 0,-4 -4,0 0,4 z m 0,-8 4,0 0,-4 -4,0 0,4 z m 0,-8 4,0 0,-4 -4,0 0,4 z m 0,-8 4,0 0,-4 -4,0 0,4 z m 0,-8 4,0 0,-4 -4,0 0,4 z m 0,-8 4,0 0,-4 -4,0 0,4 z m 0,-8 4,0 0,-4 -4,0 0,4 z m 0,-8 4,0 0,-4 -4,0 0,4 z m 0,-8 4,0 0,-4 -4,0 0,4 z m 0,-8 4,0 0,-4 -4,0 0,4 z m 0,-8 4,0 0,-4 -4,0 0,4 z m 0,-8 4,0 0,-4 -4,0 0,4 z m 0,-8 4,0 0,-4 -4,0 0,4 z m 4.464,-7.732 2,3.464 3.464,-2 -2,-3.464 -3.464,2 z m 6.929,-4 2,3.464 3.463,-2 -2,-3.464 -3.463,2 z m 6.927,-4 2,3.464 3.464,-2 -2,-3.464 -3.464,2 z m 6.929,-4 2,3.464 3.464,-2 -2,-3.464 -3.464,2 z m 6.928,-4 2,3.464 3.464,-2 -2,-3.464 -3.464,2 z m 6.928,-4 2,3.464 3.464,-2 -2,-3.464 -3.464,2 z m 6.928,-4 2,3.464 3.464,-2 -2,-3.464 -3.464,2 z m 6.929,-4 2,3.464 3.464,-2 -2,-3.464 -3.464,2 z m 6.928,-4 2,3.464 3.464,-2 -2,-3.464 -3.464,2 z m 6.927,-4 2,3.464 3.465,-2 -2,-3.464 -3.465,2 z m 6.929,-4 2,3.464 3.464,-2 -2,-3.464 -3.464,2 z m 6.928,-4 2,3.464 3.465,-2 -2,-3.464 -3.465,2 z" /></g></g></g></g><g
       id="g52"><g
         clip-path="url(#clipPath56)"
         id="g54"><g
           id="g60"><g
             id="g62"><path
               id="path70"
               style="fill:url(#linearGradient64);stroke:none"
               d="m 126,84 4,0 0,8 -4,0 0,-8 z" /></g></g></g></g><g
       id="g72"><g
         clip-path="url(#clipPath76)"
         id="g74"><g
           id="g80"><g
             id="g82"><path
               id="path90"
               style="fill:url(#linearGradient84);stroke:none"
               d="m 130,60 -4,0 0,-8 4,0 0,8 z" /></g></g></g></g><g
       id="g92"><g
         clip-path="url(#clipPath96)"
         id="g94"><g
           id="g100"><g
             id="g102"><path
               id="path110"
               style="fill:url(#linearGradient104);stroke:none"
               d="m 130,76 -4,0 0,-8 4,0 0,8 z" /></g></g></g></g><g
       id="g112"><g
         clip-path="url(#clipPath116)"
         id="g114"><g
           id="g120"><g
             id="g122"><path
               id="path130"
               style="fill:url(#linearGradient124);stroke:none"
               d="m 89.182,147.259 6.439,-3.513 c 0.587,1.204 1.243,2.367 1.956,3.49 l 0,0 -6.48,3.535 -1.915,-3.512 z" /></g></g></g></g><g
       id="g132"><g
         clip-path="url(#clipPath136)"
         id="g134"><g
           id="g140"><g
             id="g142"><path
               id="path150"
               style="fill:url(#linearGradient144);stroke:none"
               d="m 75.135,154.921 7.022,-3.831 1.917,3.512 -7.023,3.83 -1.916,-3.511 z" /></g></g></g></g><g
       id="g152"><g
         clip-path="url(#clipPath156)"
         id="g154"><g
           id="g160"><g
             id="g162"><path
               id="path170"
               style="fill:url(#linearGradient164);stroke:none"
               d="m 47.042,170.244 7.023,-3.831 1.916,3.511 -7.023,3.832 -1.916,-3.512 z" /></g></g></g></g><g
       id="g172"><g
         clip-path="url(#clipPath176)"
         id="g174"><g
           id="g180"><g
             id="g182"><path
               id="path190"
               style="fill:url(#linearGradient184);stroke:none"
               d="m 200.019,169.924 1.916,-3.511 7.023,3.831 -1.916,3.512 -7.023,-3.832 z" /></g></g></g></g><g
       id="g192"><g
         clip-path="url(#clipPath196)"
         id="g194"><g
           id="g200"><g
             id="g202"><path
               id="path210"
               style="fill:url(#linearGradient204);stroke:none"
               d="m 61.089,162.582 7.023,-3.83 1.915,3.512 -7.023,3.83 -1.915,-3.512 z" /></g></g></g></g><g
       id="g212"><g
         clip-path="url(#clipPath216)"
         id="g214"><g
           id="g220"><g
             id="g222"><path
               id="path230"
               style="fill:url(#linearGradient224);stroke:none"
               d="m 158.423,147.236 c 0.712,-1.123 1.369,-2.286 1.956,-3.49 l 0,0 6.441,3.513 -1.917,3.512 -6.48,-3.535 z" /></g></g></g></g><g
       id="g232"><g
         clip-path="url(#clipPath236)"
         id="g234"><g
           id="g240"><g
             id="g242"><path
               id="path250"
               style="fill:url(#linearGradient244);stroke:none"
               d="m 185.972,162.264 1.917,-3.512 7.023,3.83 -1.916,3.512 -7.024,-3.83 z" /></g></g></g></g><g
       id="g252"><g
         clip-path="url(#clipPath256)"
         id="g254"><g
           id="g260"><g
             id="g262"><path
               id="path270"
               style="fill:url(#linearGradient264);stroke:none"
               d="m 171.926,154.602 1.916,-3.512 7.023,3.831 -1.916,3.511 -7.023,-3.83 z" /></g></g></g></g><g
       id="g272"><g
         clip-path="url(#clipPath276)"
         id="g274"><g
           id="g280"><g
             id="g282"><path
               id="path290"
               style="fill:url(#linearGradient284);stroke:none"
               d="m 96,146 0,-36 32,-18 32,18 0,36 -32,18 -32,-18 z" /></g></g></g></g><g
       id="g292"><g
         clip-path="url(#clipPath296)"
         id="g294"><g
           transform="translate(120,112)"
           id="g300"><path
             id="path302"
             style="fill:#999999;fill-opacity:1;fill-rule:nonzero;stroke:none"
             d="M 0,0 -4,4 0,8 0,12 -8,4 0,-4 0,0 Z" /></g><g
           transform="translate(136,120)"
           id="g304"><path
             id="path306"
             style="fill:#999999;fill-opacity:1;fill-rule:nonzero;stroke:none"
             d="M 0,0 4,-4 0,-8 0,-12 8,-4 0,4 0,0 Z" /></g><g
           transform="translate(124,116)"
           id="g308"><path
             id="path310"
             style="fill:#999999;fill-opacity:1;fill-rule:nonzero;stroke:none"
             d="m 0,0 c 0,-1.104 -0.896,-2 -2,-2 -1.104,0 -2,0.896 -2,2 0,1.104 0.896,2 2,2 1.104,0 2,-0.896 2,-2" /></g><g
           transform="translate(130,116)"
           id="g312"><path
             id="path314"
             style="fill:#999999;fill-opacity:1;fill-rule:nonzero;stroke:none"
             d="m 0,0 c 0,-1.104 -0.896,-2 -2,-2 -1.104,0 -2,0.896 -2,2 0,1.104 0.896,2 2,2 1.104,0 2,-0.896 2,-2" /></g><g
           transform="translate(136,116)"
           id="g316"><path
             id="path318"
             style="fill:#999999;fill-opacity:1;fill-rule:nonzero;stroke:none"
             d="m 0,0 c 0,-1.104 -0.896,-2 -2,-2 -1.104,0 -2,0.896 -2,2 0,1.104 0.896,2 2,2 1.104,0 2,-0.896 2,-2" /></g><g
           transform="translate(127.9834,127.1372)"
           id="g320"><path
             id="path322"
             style="fill:#999999;fill-opacity:1;fill-rule:nonzero;stroke:none"
             d="M 0,0 C -0.83,0 -1.588,-0.322 -2.168,-0.854 -2.26,-0.938 -2.269,-1.089 -2.182,-1.18 l 1.626,-1.712 c 0.31,-0.326 0.802,-0.327 1.113,-10e-4 l 1.63,1.708 C 2.272,-1.094 2.265,-0.944 2.173,-0.859 1.592,-0.325 0.832,0 0,0" /></g><g
           transform="translate(127.9834,134.0913)"
           id="g324"><path
             id="path326"
             style="fill:#999999;fill-opacity:1;fill-rule:nonzero;stroke:none"
             d="M 0,0 C -2.575,0 -4.924,-1.04 -6.687,-2.741 -6.863,-2.91 -6.872,-3.197 -6.704,-3.373 l 2.035,-2.143 c 1.196,1.259 2.848,2.039 4.669,2.039 1.826,0 3.481,-0.784 4.678,-2.05 l 2.04,2.139 C 6.886,-3.212 6.877,-2.925 6.702,-2.756 4.937,-1.046 2.582,0 0,0" /></g><g
           transform="translate(113.9775,138.4053)"
           id="g328"><path
             id="path330"
             style="fill:#999999;fill-opacity:1;fill-rule:nonzero;stroke:none"
             d="m 0,0 c 3.588,3.778 8.542,6.118 14.006,6.118 5.478,0 10.444,-2.353 14.034,-6.149 l 1.733,1.817 c 0.338,0.355 0.332,0.928 -0.017,1.271 -4.132,4.054 -9.67,6.538 -15.75,6.538 C 7.943,9.595 2.418,7.125 -1.709,3.091 -2.06,2.75 -2.067,2.176 -1.729,1.821 L 0,0 Z" /></g><g
           transform="translate(127.9834,141.0459)"
           id="g332"><path
             id="path334"
             style="fill:#999999;fill-opacity:1;fill-rule:nonzero;stroke:none"
             d="m 0,0 c -4.24,0 -8.112,-1.691 -11.039,-4.466 -0.35,-0.332 -0.357,-0.922 -0.024,-1.273 l 1.726,-1.817 c 2.392,2.519 5.694,4.078 9.337,4.078 3.652,0 6.962,-1.568 9.356,-4.099 l 1.729,1.813 c 0.341,0.357 0.335,0.934 -0.022,1.273 C 8.134,-1.702 4.252,0 0,0" /></g></g></g><g
       id="g336"><g
         clip-path="url(#clipPath340)"
         id="g338"><g
           id="g344"><g
             id="g346"><path
               id="path354"
               style="fill:url(#linearGradient348);stroke:none"
               d="M 22,82 C 22,70.954 30.954,62 42,62 l 0,0 c 11.046,0 20,8.954 20,20 l 0,0 c 0,11.046 -8.954,20 -20,20 l 0,0 C 30.954,102 22,93.046 22,82" /></g></g></g></g><g
       id="g356"><g
         clip-path="url(#clipPath360)"
         id="g358"><g
           id="g364"><g
             id="g366"><path
               id="path374"
               style="fill:url(#linearGradient368);stroke:none"
               d="m 194,82 c 0,-11.046 8.954,-20 20,-20 l 0,0 c 11.046,0 20,8.954 20,20 l 0,0 c 0,11.046 -8.954,20 -20,20 l 0,0 c -11.046,0 -20,-8.954 -20,-20" /></g></g></g></g><g
       id="g376"><g
         clip-path="url(#clipPath380)"
         id="g378"><g
           id="g384"><g
             id="g386"><path
               id="path394"
               style="fill:url(#linearGradient388);stroke:none"
               d="m 108,32 c 0,-11.046 8.954,-20 20,-20 l 0,0 c 11.046,0 20,8.954 20,20 l 0,0 c 0,11.046 -8.954,20 -20,20 l 0,0 c -11.046,0 -20,-8.954 -20,-20" /></g></g></g></g><g
       id="g396"><g
         clip-path="url(#clipPath400)"
         id="g398"><g
           id="g404"><g
             id="g406"><path
               id="path414"
               style="fill:url(#linearGradient408);stroke:none"
               d="m 108,224 c 0,-11.046 8.954,-20 20,-20 l 0,0 c 11.046,0 20,8.954 20,20 l 0,0 c 0,11.046 -8.954,20 -20,20 l 0,0 c -11.046,0 -20,-8.954 -20,-20" /></g></g></g></g><g
       id="g416"><g
         clip-path="url(#clipPath420)"
         id="g418"><g
           id="g424"><g
             id="g426"><path
               id="path434"
               style="fill:url(#linearGradient428);stroke:none"
               d="m 22,174 c 0,-11.046 8.954,-20 20,-20 l 0,0 c 11.046,0 20,8.954 20,20 l 0,0 c 0,11.046 -8.954,20 -20,20 l 0,0 c -11.046,0 -20,-8.954 -20,-20" /></g></g></g></g><g
       id="g436"><g
         clip-path="url(#clipPath440)"
         id="g438"><g
           id="g444"><g
             id="g446"><path
               id="path454"
               style="fill:url(#linearGradient448);stroke:none"
               d="m 194,174 c 0,-11.046 8.954,-20 20,-20 l 0,0 c 11.046,0 20,8.954 20,20 l 0,0 c 0,11.046 -8.954,20 -20,20 l 0,0 c -11.046,0 -20,-8.954 -20,-20" /></g></g></g></g></g></svg>