<?xml version="1.0" encoding="UTF-8" standalone="no"?>
<svg
   xmlns:dc="http://purl.org/dc/elements/1.1/"
   xmlns:cc="http://creativecommons.org/ns#"
   xmlns:rdf="http://www.w3.org/1999/02/22-rdf-syntax-ns#"
   xmlns:svg="http://www.w3.org/2000/svg"
   xmlns="http://www.w3.org/2000/svg"
   viewBox="0 0 320 320"
   height="320"
   width="320"
   xml:space="preserve"
   version="1.1"
   id="svg2"><metadata
     id="metadata8"><rdf:RDF><cc:Work
         rdf:about=""><dc:format>image/svg+xml</dc:format><dc:type
           rdf:resource="http://purl.org/dc/dcmitype/StillImage" /></cc:Work></rdf:RDF></metadata><defs
     id="defs6"><clipPath
       id="clipPath16"
       clipPathUnits="userSpaceOnUse"><path
         id="path18"
         d="m 223.238,243.981 -19.048,0 L 200,240 l -48.191,0 -3.809,3.981 -40,0 -3.81,-3.981 -47.619,0 -4.762,3.981 -19.047,0 c -2.634,0 -4.762,-2.075 -4.762,-4.64 l 0,0 0,-222.702 C 28,14.452 30.517,12 32.762,12 l 0,0 190.476,0 c 3.188,0 4.762,2.089 4.762,4.639 l 0,0 0,222.702 c 0,2.436 -1.931,4.659 -4.369,4.659 l 0,0 c -0.13,0 -0.261,-0.006 -0.393,-0.019" /></clipPath><linearGradient
       id="linearGradient24"
       spreadMethod="pad"
       gradientTransform="matrix(213.34187,-213.34187,-213.34187,-213.34187,21.474543,234.70477)"
       gradientUnits="userSpaceOnUse"
       y2="0"
       x2="1"
       y1="0"
       x1="0"><stop
         id="stop26"
         offset="0"
         style="stop-opacity:1;stop-color:#e6e7e8" /><stop
         id="stop28"
         offset="1"
         style="stop-opacity:1;stop-color:#d1d3d4" /></linearGradient><clipPath
       id="clipPath36"
       clipPathUnits="userSpaceOnUse"><path
         id="path38"
         d="M 108,243.981 104,240 104,137.27 C 104,122.907 113.599,112 127.962,112 l 0,0 C 142.086,112 152,123.146 152,137.27 l 0,0 0,102.73 -4,3.981 -40,0 z" /></clipPath><linearGradient
       id="linearGradient44"
       spreadMethod="pad"
       gradientTransform="matrix(-80.979637,80.979637,80.979637,80.979637,168.43488,142.47562)"
       gradientUnits="userSpaceOnUse"
       y2="0"
       x2="1"
       y1="0"
       x1="0"><stop
         id="stop46"
         offset="0"
         style="stop-opacity:1;stop-color:#e6e7e8" /><stop
         id="stop48"
         offset="1"
         style="stop-opacity:1;stop-color:#d1d3d4" /></linearGradient><clipPath
       id="clipPath56"
       clipPathUnits="userSpaceOnUse"><path
         id="path58"
         d="M 0,256 256,256 256,0 0,0 0,256 Z" /></clipPath><clipPath
       id="clipPath66"
       clipPathUnits="userSpaceOnUse"><path
         id="path68"
         d="M 67.077,102 C 63.175,102 60,98.312 60,93.778 l 0,0 0,-43.556 C 60,45.689 63.175,42 67.077,42 l 0,0 121.846,0 c 3.902,0 7.077,3.689 7.077,8.222 l 0,0 0,43.556 c 0,4.534 -3.175,8.222 -7.077,8.222 l 0,0 -121.846,0 z" /></clipPath><linearGradient
       id="linearGradient74"
       spreadMethod="pad"
       gradientTransform="matrix(-93.544464,93.544464,93.544464,93.544464,174.77223,25.227768)"
       gradientUnits="userSpaceOnUse"
       y2="0"
       x2="1"
       y1="0"
       x1="0"><stop
         id="stop76"
         offset="0"
         style="stop-opacity:1;stop-color:#e6e7e8" /><stop
         id="stop78"
         offset="1"
         style="stop-opacity:1;stop-color:#d1d3d4" /></linearGradient><clipPath
       id="clipPath86"
       clipPathUnits="userSpaceOnUse"><path
         id="path88"
         d="M 0,256 256,256 256,0 0,0 0,256 Z" /></clipPath><clipPath
       id="clipPath118"
       clipPathUnits="userSpaceOnUse"><path
         id="path120"
         d="m 120,136 c 0,-4.475 3.525,-8 8,-8 l 0,0 c 4.475,0 8,3.559 8,8 l 0,0 c 0,4.44 -3.525,8 -8,8 l 0,0 c -4.475,0 -8,-3.525 -8,-8" /></clipPath><linearGradient
       id="linearGradient126"
       spreadMethod="pad"
       gradientTransform="matrix(-11.349577,11.349577,11.349577,11.349577,133.66844,130.32521)"
       gradientUnits="userSpaceOnUse"
       y2="0"
       x2="1"
       y1="0"
       x1="0"><stop
         id="stop128"
         offset="0"
         style="stop-opacity:1;stop-color:#e6e7e8" /><stop
         id="stop130"
         offset="1"
         style="stop-opacity:1;stop-color:#d1d3d4" /></linearGradient><clipPath
       id="clipPath138"
       clipPathUnits="userSpaceOnUse"><path
         id="path140"
         d="M 0,256 256,256 256,0 0,0 0,256 Z" /></clipPath></defs><g
     transform="matrix(1.25,0,0,-1.25,0,320)"
     id="g10"><g
       id="g12"><g
         clip-path="url(#clipPath16)"
         id="g14"><g
           id="g20"><g
             id="g22"><path
               id="path30"
               style="fill:url(#linearGradient24);stroke:none"
               d="m 223.238,243.981 -19.048,0 L 200,240 l -48.191,0 -3.809,3.981 -40,0 -3.81,-3.981 -47.619,0 -4.762,3.981 -19.047,0 c -2.634,0 -4.762,-2.075 -4.762,-4.64 l 0,0 0,-222.702 C 28,14.452 30.517,12 32.762,12 l 0,0 190.476,0 c 3.188,0 4.762,2.089 4.762,4.639 l 0,0 0,222.702 c 0,2.436 -1.931,4.659 -4.369,4.659 l 0,0 c -0.13,0 -0.261,-0.006 -0.393,-0.019" /></g></g></g></g><g
       id="g32"><g
         clip-path="url(#clipPath36)"
         id="g34"><g
           id="g40"><g
             id="g42"><path
               id="path50"
               style="fill:url(#linearGradient44);stroke:none"
               d="M 108,243.981 104,240 104,137.27 C 104,122.907 113.599,112 127.962,112 l 0,0 C 142.086,112 152,123.146 152,137.27 l 0,0 0,102.73 -4,3.981 -40,0 z" /></g></g></g></g><g
       id="g52"><g
         clip-path="url(#clipPath56)"
         id="g54"><path
           id="path60"
           style="fill:#999999;fill-opacity:1;fill-rule:nonzero;stroke:none"
           d="m 136,168 -16,0 0,68 16,0 0,-68 z" /></g></g><g
       id="g62"><g
         clip-path="url(#clipPath66)"
         id="g64"><g
           id="g70"><g
             id="g72"><path
               id="path80"
               style="fill:url(#linearGradient74);stroke:none"
               d="M 67.077,102 C 63.175,102 60,98.312 60,93.778 l 0,0 0,-43.556 C 60,45.689 63.175,42 67.077,42 l 0,0 121.846,0 c 3.902,0 7.077,3.689 7.077,8.222 l 0,0 0,43.556 c 0,4.534 -3.175,8.222 -7.077,8.222 l 0,0 -121.846,0 z" /></g></g></g></g><g
       id="g82"><g
         clip-path="url(#clipPath86)"
         id="g84"><g
           transform="translate(188.9231,100)"
           id="g90"><path
             id="path92"
             style="fill:#ffffff;fill-opacity:1;fill-rule:nonzero;stroke:none"
             d="m 0,0 c 2.808,0 5.077,-2.781 5.077,-6.222 l 0,-43.556 C 5.077,-53.219 2.808,-56 0,-56 l -121.846,0 c -2.808,0 -5.077,2.781 -5.077,6.222 l 0,43.556 c 0,3.441 2.269,6.222 5.077,6.222 L 0,0 Z" /></g><path
           id="path94"
           style="fill:#999999;fill-opacity:1;fill-rule:nonzero;stroke:none"
           d="m 52,44 -20,0 0,12 20,0 0,-12 z" /><path
           id="path96"
           style="fill:#999999;fill-opacity:1;fill-rule:nonzero;stroke:none"
           d="m 224,42 -20,0 0,14 20,0 0,-14 z" /><path
           id="path98"
           style="fill:#999999;fill-opacity:1;fill-rule:nonzero;stroke:none"
           d="m 48,191.81 -20,0 0,12 20,0 0,-12 z" /><g
           transform="translate(189,100)"
           id="g100"><path
             id="path102"
             style="fill:#999999;fill-opacity:1;fill-rule:nonzero;stroke:none"
             d="m 0,0 -122,0 c -2.761,0 -5,-2.239 -5,-5 l 0,-7 132,0 0,7 C 5,-2.239 2.761,0 0,0" /></g><path
           id="path104"
           style="fill:#999999;fill-opacity:1;fill-rule:nonzero;stroke:none"
           d="m 228,192 -20,0 0,12 20,0 0,-12 z" /><g
           transform="translate(106,136)"
           id="g106"><path
             id="path108"
             style="fill:#999999;fill-opacity:1;fill-rule:nonzero;stroke:none"
             d="M 0,0 C 0,12.529 10.068,22 22,22 33.932,22 44,12.305 44,0 44,-12.305 34.081,-22 22,-22 9.919,-22 0,-12.529 0,0" /></g><g
           transform="translate(128,118)"
           id="g110"><path
             id="path112"
             style="fill:#ffffff;fill-opacity:1;fill-rule:nonzero;stroke:none"
             d="m 0,0 c -10.22,0 -18,8.066 -18,18 0,9.934 8.142,18 18,18 C 9.858,36 18,28.22 18,18 18,7.78 10.22,0 0,0" /></g></g></g><g
       id="g114"><g
         clip-path="url(#clipPath118)"
         id="g116"><g
           id="g122"><g
             id="g124"><path
               id="path132"
               style="fill:url(#linearGradient126);stroke:none"
               d="m 120,136 c 0,-4.475 3.525,-8 8,-8 l 0,0 c 4.475,0 8,3.559 8,8 l 0,0 c 0,4.44 -3.525,8 -8,8 l 0,0 c -4.475,0 -8,-3.525 -8,-8" /></g></g></g></g><g
       id="g134"><g
         clip-path="url(#clipPath138)"
         id="g136"><g
           transform="translate(194,56)"
           id="g142"><path
             id="path144"
             style="fill:#999999;fill-opacity:1;fill-rule:nonzero;stroke:none"
             d="m 0,0 -132,0 0,-7 c 0,-2.761 2.239,-5 5,-5 l 122,0 c 2.761,0 5,2.239 5,5 l 0,7 z" /></g><path
           id="path146"
           style="fill:#999999;fill-opacity:1;fill-rule:nonzero;stroke:none"
           d="m 80,64 -16,0 0,16 16,0 0,-16 z" /><g
           transform="translate(32,224)"
           id="g148"><path
             id="path150"
             style="fill:#999999;fill-opacity:1;fill-rule:nonzero;stroke:none"
             d="m 0,0 0,-12 2,0 0,10 12,0 0,-10 2,0 0,12 -16,0 z" /></g><g
           transform="translate(208,224)"
           id="g152"><path
             id="path154"
             style="fill:#999999;fill-opacity:1;fill-rule:nonzero;stroke:none"
             d="m 0,0 0,-12 2,0 0,10 12,0 0,-10 2,0 0,12 -16,0 z" /></g></g></g></g></svg>