<?xml version="1.0" encoding="UTF-8" standalone="no"?>
<svg
   xmlns:dc="http://purl.org/dc/elements/1.1/"
   xmlns:cc="http://creativecommons.org/ns#"
   xmlns:rdf="http://www.w3.org/1999/02/22-rdf-syntax-ns#"
   xmlns:svg="http://www.w3.org/2000/svg"
   xmlns="http://www.w3.org/2000/svg"
   viewBox="0 0 320 320"
   height="320"
   width="320"
   xml:space="preserve"
   version="1.1"
   id="svg2"><metadata
     id="metadata8"><rdf:RDF><cc:Work
         rdf:about=""><dc:format>image/svg+xml</dc:format><dc:type
           rdf:resource="http://purl.org/dc/dcmitype/StillImage" /></cc:Work></rdf:RDF></metadata><defs
     id="defs6"><clipPath
       id="clipPath16"
       clipPathUnits="userSpaceOnUse"><path
         id="path18"
         d="m 46,140 164,0 0,-20 -164,0 0,20 z" /></clipPath><linearGradient
       id="linearGradient24"
       spreadMethod="pad"
       gradientTransform="matrix(91.999947,-91.999947,-91.999947,-91.999947,82.000107,175.99989)"
       gradientUnits="userSpaceOnUse"
       y2="0"
       x2="1"
       y1="0"
       x1="0"><stop
         id="stop26"
         offset="0"
         style="stop-opacity:1;stop-color:#e6e7e8" /><stop
         id="stop28"
         offset="1"
         style="stop-opacity:1;stop-color:#d1d3d4" /></linearGradient><clipPath
       id="clipPath36"
       clipPathUnits="userSpaceOnUse"><path
         id="path38"
         d="m 20.07,120 0,-93.354 C 20.07,18.557 26.537,12 34.515,12 l 0,0 187.11,0 c 7.979,0 14.445,6.557 14.445,14.646 l 0,0 0,93.354 -216,0 z" /></clipPath><linearGradient
       id="linearGradient44"
       spreadMethod="pad"
       gradientTransform="matrix(157.74001,-157.74001,-157.74001,-157.74001,49.20031,149.13)"
       gradientUnits="userSpaceOnUse"
       y2="0"
       x2="1"
       y1="0"
       x1="0"><stop
         id="stop46"
         offset="0"
         style="stop-opacity:1;stop-color:#e6e7e8" /><stop
         id="stop48"
         offset="1"
         style="stop-opacity:1;stop-color:#d1d3d4" /></linearGradient><clipPath
       id="clipPath56"
       clipPathUnits="userSpaceOnUse"><path
         id="path58"
         d="M 34.445,244 C 26.467,244 20,237.533 20,229.555 l 0,0 0,-93.555 216,0 0,93.555 C 236,237.533 229.532,244 221.555,244 l 0,0 -187.11,0 z" /></clipPath><linearGradient
       id="linearGradient64"
       spreadMethod="pad"
       gradientTransform="matrix(157.76918,-157.76918,-157.76918,-157.76918,49.11541,264.65378)"
       gradientUnits="userSpaceOnUse"
       y2="0"
       x2="1"
       y1="0"
       x1="0"><stop
         id="stop66"
         offset="0"
         style="stop-opacity:1;stop-color:#e6e7e8" /><stop
         id="stop68"
         offset="1"
         style="stop-opacity:1;stop-color:#d1d3d4" /></linearGradient><clipPath
       id="clipPath76"
       clipPathUnits="userSpaceOnUse"><path
         id="path78"
         d="m 185.482,236 -114.964,0 -2.518,0 0,-2.633 0,-90.734 0,-2.633 2.518,0 114.964,0 2.518,0 0,2.633 0,90.734 0,2.633 -2.518,0 z" /></clipPath><linearGradient
       id="linearGradient84"
       spreadMethod="pad"
       gradientTransform="matrix(-107.99999,107.99999,107.99999,107.99999,182,134)"
       gradientUnits="userSpaceOnUse"
       y2="0"
       x2="1"
       y1="0"
       x1="0"><stop
         id="stop86"
         offset="0"
         style="stop-opacity:1;stop-color:#e6e7e8" /><stop
         id="stop88"
         offset="1"
         style="stop-opacity:1;stop-color:#d1d3d4" /></linearGradient><clipPath
       id="clipPath96"
       clipPathUnits="userSpaceOnUse"><path
         id="path98"
         d="M 0,256 256,256 256,0 0,0 0,256 Z" /></clipPath><clipPath
       id="clipPath106"
       clipPathUnits="userSpaceOnUse"><path
         id="path108"
         d="m 183.167,116 -110.334,0 -2.416,0 C 69.082,116 68,114.882 68,113.504 l 0,0 0,-2.496 0,-86.016 0,-2.497 C 68,21.118 69.082,20 70.417,20 l 0,0 2.416,0 110.334,0 2.417,0 c 1.334,0 2.416,1.118 2.416,2.495 l 0,0 0,2.497 0,86.016 0,2.496 c 0,1.378 -1.082,2.496 -2.416,2.496 l 0,0 -2.417,0 z" /></clipPath><linearGradient
       id="linearGradient114"
       spreadMethod="pad"
       gradientTransform="matrix(-106.56158,106.56158,106.56158,106.56158,181.28079,14.719207)"
       gradientUnits="userSpaceOnUse"
       y2="0"
       x2="1"
       y1="0"
       x1="0"><stop
         id="stop116"
         offset="0"
         style="stop-opacity:1;stop-color:#e6e7e8" /><stop
         id="stop118"
         offset="1"
         style="stop-opacity:1;stop-color:#d1d3d4" /></linearGradient><clipPath
       id="clipPath126"
       clipPathUnits="userSpaceOnUse"><path
         id="path128"
         d="M 183.566,114 72.434,114 70,114 70,111.477 70,24.523 70,22 l 2.434,0 111.132,0 2.434,0 0,2.523 0,86.954 0,2.523 -2.434,0 z" /></clipPath><linearGradient
       id="linearGradient134"
       spreadMethod="pad"
       gradientTransform="matrix(104,-104,-104,-104,76,120)"
       gradientUnits="userSpaceOnUse"
       y2="0"
       x2="1"
       y1="0"
       x1="0"><stop
         id="stop136"
         offset="0"
         style="stop-opacity:1;stop-color:#e6e7e8" /><stop
         id="stop138"
         offset="1"
         style="stop-opacity:1;stop-color:#d1d3d4" /></linearGradient><clipPath
       id="clipPath146"
       clipPathUnits="userSpaceOnUse"><path
         id="path148"
         d="M 0,256 256,256 256,0 0,0 0,256 Z" /></clipPath><clipPath
       id="clipPath156"
       clipPathUnits="userSpaceOnUse"><path
         id="path158"
         d="M 25.251,136 C 22.351,136 20,133.923 20,131.359 l 0,0 0,-11.359 28,0 0,16 -22.749,0 z" /></clipPath><linearGradient
       id="linearGradient164"
       spreadMethod="pad"
       gradientTransform="matrix(-20.558075,20.558075,20.558075,20.558075,45,117)"
       gradientUnits="userSpaceOnUse"
       y2="0"
       x2="1"
       y1="0"
       x1="0"><stop
         id="stop166"
         offset="0"
         style="stop-opacity:1;stop-color:#e6e7e8" /><stop
         id="stop168"
         offset="1"
         style="stop-opacity:1;stop-color:#d1d3d4" /></linearGradient><clipPath
       id="clipPath176"
       clipPathUnits="userSpaceOnUse"><path
         id="path178"
         d="m 208,136 0,-16 28,0 0,11.359 c 0,2.564 -2.351,4.641 -5.251,4.641 l 0,0 -22.749,0 z" /></clipPath><linearGradient
       id="linearGradient184"
       spreadMethod="pad"
       gradientTransform="matrix(-22,22,22,22,232.27904,116.27904)"
       gradientUnits="userSpaceOnUse"
       y2="0"
       x2="1"
       y1="0"
       x1="0"><stop
         id="stop186"
         offset="0"
         style="stop-opacity:1;stop-color:#e6e7e8" /><stop
         id="stop188"
         offset="1"
         style="stop-opacity:1;stop-color:#d1d3d4" /></linearGradient><clipPath
       id="clipPath196"
       clipPathUnits="userSpaceOnUse"><path
         id="path198"
         d="M 0,256 256,256 256,0 0,0 0,256 Z" /></clipPath><clipPath
       id="clipPath260"
       clipPathUnits="userSpaceOnUse"><path
         id="path262"
         d="m 40,232 4.001,0 0,4 -4.001,0 0,-4 z" /></clipPath><linearGradient
       id="linearGradient268"
       spreadMethod="pad"
       gradientTransform="matrix(-3.9999998,3.9999998,3.9999998,3.9999998,44,232)"
       gradientUnits="userSpaceOnUse"
       y2="0"
       x2="1"
       y1="0"
       x1="0"><stop
         id="stop270"
         offset="0"
         style="stop-opacity:1;stop-color:#e6e7e8" /><stop
         id="stop272"
         offset="1"
         style="stop-opacity:1;stop-color:#d1d3d4" /></linearGradient><clipPath
       id="clipPath280"
       clipPathUnits="userSpaceOnUse"><path
         id="path282"
         d="m 212,232 4,0 0,4 -4,0 0,-4 z" /></clipPath><linearGradient
       id="linearGradient288"
       spreadMethod="pad"
       gradientTransform="matrix(-3.9999998,3.9999998,3.9999998,3.9999998,216,232)"
       gradientUnits="userSpaceOnUse"
       y2="0"
       x2="1"
       y1="0"
       x1="0"><stop
         id="stop290"
         offset="0"
         style="stop-opacity:1;stop-color:#e6e7e8" /><stop
         id="stop292"
         offset="1"
         style="stop-opacity:1;stop-color:#d1d3d4" /></linearGradient><clipPath
       id="clipPath300"
       clipPathUnits="userSpaceOnUse"><path
         id="path302"
         d="m 40,140 4.001,0 0,4 -4.001,0 0,-4 z" /></clipPath><linearGradient
       id="linearGradient308"
       spreadMethod="pad"
       gradientTransform="matrix(-3.9999998,3.9999998,3.9999998,3.9999998,44,140)"
       gradientUnits="userSpaceOnUse"
       y2="0"
       x2="1"
       y1="0"
       x1="0"><stop
         id="stop310"
         offset="0"
         style="stop-opacity:1;stop-color:#e6e7e8" /><stop
         id="stop312"
         offset="1"
         style="stop-opacity:1;stop-color:#d1d3d4" /></linearGradient><clipPath
       id="clipPath320"
       clipPathUnits="userSpaceOnUse"><path
         id="path322"
         d="m 212,140 4,0 0,4 -4,0 0,-4 z" /></clipPath><linearGradient
       id="linearGradient328"
       spreadMethod="pad"
       gradientTransform="matrix(-3.9999998,3.9999998,3.9999998,3.9999998,216,140)"
       gradientUnits="userSpaceOnUse"
       y2="0"
       x2="1"
       y1="0"
       x1="0"><stop
         id="stop330"
         offset="0"
         style="stop-opacity:1;stop-color:#e6e7e8" /><stop
         id="stop332"
         offset="1"
         style="stop-opacity:1;stop-color:#d1d3d4" /></linearGradient><clipPath
       id="clipPath340"
       clipPathUnits="userSpaceOnUse"><path
         id="path342"
         d="M 0,256 256,256 256,0 0,0 0,256 Z" /></clipPath><clipPath
       id="clipPath360"
       clipPathUnits="userSpaceOnUse"><path
         id="path362"
         d="m 37.442,100 c -0.719,0 -1.303,-0.583 -1.303,-1.302 l 0,0 0,-6.838 -6.837,0 C 28.583,91.86 28,91.277 28,90.558 l 0,0 0,-9.116 c 0,-0.719 0.583,-1.302 1.302,-1.302 l 0,0 6.837,0 0,-6.838 C 36.139,72.583 36.723,72 37.442,72 l 0,0 9.116,0 c 0.719,0 1.302,0.583 1.302,1.302 l 0,0 0,6.838 6.837,0 c 0.72,0 1.303,0.583 1.303,1.302 l 0,0 0,9.116 c 0,0.719 -0.583,1.302 -1.303,1.302 l 0,0 -6.837,0 0,6.838 c 0,0.719 -0.583,1.302 -1.302,1.302 l 0,0 -9.116,0 z m -8.14,-9.442 8.14,0 0,8.14 9.116,0 0,-8.14 8.139,0 0,-9.116 -8.139,0 0,-8.14 -9.116,0 0,8.14 -8.14,0 0,9.116 z" /></clipPath><linearGradient
       id="linearGradient368"
       spreadMethod="pad"
       gradientTransform="matrix(-19.097574,19.097574,19.097574,19.097574,51.548786,76.45121)"
       gradientUnits="userSpaceOnUse"
       y2="0"
       x2="1"
       y1="0"
       x1="0"><stop
         id="stop370"
         offset="0"
         style="stop-opacity:1;stop-color:#e6e7e8" /><stop
         id="stop372"
         offset="1"
         style="stop-opacity:1;stop-color:#d1d3d4" /></linearGradient><clipPath
       id="clipPath380"
       clipPathUnits="userSpaceOnUse"><path
         id="path382"
         d="M 0,256 256,256 256,0 0,0 0,256 Z" /></clipPath><clipPath
       id="clipPath404"
       clipPathUnits="userSpaceOnUse"><path
         id="path406"
         d="m 196,40 c 0,-2.209 1.791,-4 4,-4 l 0,0 c 2.209,0 4,1.791 4,4 l 0,0 c 0,2.209 -1.791,4 -4,4 l 0,0 c -2.209,0 -4,-1.791 -4,-4" /></clipPath><linearGradient
       id="linearGradient412"
       spreadMethod="pad"
       gradientTransform="matrix(-5.6568542,5.6568542,5.6568542,5.6568542,202.82843,37.171574)"
       gradientUnits="userSpaceOnUse"
       y2="0"
       x2="1"
       y1="0"
       x1="0"><stop
         id="stop414"
         offset="0"
         style="stop-opacity:1;stop-color:#e6e7e8" /><stop
         id="stop416"
         offset="1"
         style="stop-opacity:1;stop-color:#d1d3d4" /></linearGradient><clipPath
       id="clipPath424"
       clipPathUnits="userSpaceOnUse"><path
         id="path426"
         d="m 196,28 c 0,-2.209 1.791,-4 4,-4 l 0,0 c 2.209,0 4,1.791 4,4 l 0,0 c 0,2.209 -1.791,4 -4,4 l 0,0 c -2.209,0 -4,-1.791 -4,-4" /></clipPath><linearGradient
       id="linearGradient432"
       spreadMethod="pad"
       gradientTransform="matrix(-5.6568542,5.6568542,5.6568542,5.6568542,202.82843,25.171574)"
       gradientUnits="userSpaceOnUse"
       y2="0"
       x2="1"
       y1="0"
       x1="0"><stop
         id="stop434"
         offset="0"
         style="stop-opacity:1;stop-color:#e6e7e8" /><stop
         id="stop436"
         offset="1"
         style="stop-opacity:1;stop-color:#d1d3d4" /></linearGradient><clipPath
       id="clipPath444"
       clipPathUnits="userSpaceOnUse"><path
         id="path446"
         d="m 206,76 c 0,-3.309 2.692,-6 6,-6 l 0,0 c 3.309,0 6,2.691 6,6 l 0,0 c 0,3.308 -2.691,6 -6,6 l 0,0 c -3.308,0 -6,-2.692 -6,-6" /></clipPath><linearGradient
       id="linearGradient452"
       spreadMethod="pad"
       gradientTransform="matrix(-8.4812889,8.4812889,8.4812889,8.4812889,216.24065,71.759354)"
       gradientUnits="userSpaceOnUse"
       y2="0"
       x2="1"
       y1="0"
       x1="0"><stop
         id="stop454"
         offset="0"
         style="stop-opacity:1;stop-color:#e6e7e8" /><stop
         id="stop456"
         offset="1"
         style="stop-opacity:1;stop-color:#d1d3d4" /></linearGradient><clipPath
       id="clipPath464"
       clipPathUnits="userSpaceOnUse"><path
         id="path466"
         d="m 207,76 c 0,-2.762 2.238,-5 5,-5 l 0,0 c 2.762,0 5,2.238 5,5 l 0,0 c 0,2.762 -2.238,5 -5,5 l 0,0 c -2.762,0 -5,-2.238 -5,-5" /></clipPath><linearGradient
       id="linearGradient472"
       spreadMethod="pad"
       gradientTransform="matrix(7.0710678,-7.0710678,-7.0710678,-7.0710678,208.46446,79.535538)"
       gradientUnits="userSpaceOnUse"
       y2="0"
       x2="1"
       y1="0"
       x1="0"><stop
         id="stop474"
         offset="0"
         style="stop-opacity:1;stop-color:#e6e7e8" /><stop
         id="stop476"
         offset="1"
         style="stop-opacity:1;stop-color:#d1d3d4" /></linearGradient><clipPath
       id="clipPath484"
       clipPathUnits="userSpaceOnUse"><path
         id="path486"
         d="m 206,96 c 0,-3.308 2.692,-6 6,-6 l 0,0 c 3.309,0 6,2.692 6,6 l 0,0 c 0,3.309 -2.691,6 -6,6 l 0,0 c -3.308,0 -6,-2.691 -6,-6" /></clipPath><linearGradient
       id="linearGradient492"
       spreadMethod="pad"
       gradientTransform="matrix(-8.4812889,8.4812889,8.4812889,8.4812889,216.24065,91.759354)"
       gradientUnits="userSpaceOnUse"
       y2="0"
       x2="1"
       y1="0"
       x1="0"><stop
         id="stop494"
         offset="0"
         style="stop-opacity:1;stop-color:#e6e7e8" /><stop
         id="stop496"
         offset="1"
         style="stop-opacity:1;stop-color:#d1d3d4" /></linearGradient><clipPath
       id="clipPath504"
       clipPathUnits="userSpaceOnUse"><path
         id="path506"
         d="m 207,96 c 0,-2.762 2.238,-5 5,-5 l 0,0 c 2.762,0 5,2.238 5,5 l 0,0 c 0,2.762 -2.238,5 -5,5 l 0,0 c -2.762,0 -5,-2.238 -5,-5" /></clipPath><linearGradient
       id="linearGradient512"
       spreadMethod="pad"
       gradientTransform="matrix(7.0710678,-7.0710678,-7.0710678,-7.0710678,208.46446,99.535538)"
       gradientUnits="userSpaceOnUse"
       y2="0"
       x2="1"
       y1="0"
       x1="0"><stop
         id="stop514"
         offset="0"
         style="stop-opacity:1;stop-color:#e6e7e8" /><stop
         id="stop516"
         offset="1"
         style="stop-opacity:1;stop-color:#d1d3d4" /></linearGradient><clipPath
       id="clipPath524"
       clipPathUnits="userSpaceOnUse"><path
         id="path526"
         d="m 196,86 c 0,-3.308 2.691,-6 6,-6 l 0,0 c 3.308,0 6,2.692 6,6 l 0,0 c 0,3.309 -2.692,6 -6,6 l 0,0 c -3.309,0 -6,-2.691 -6,-6" /></clipPath><linearGradient
       id="linearGradient532"
       spreadMethod="pad"
       gradientTransform="matrix(-8.4812889,8.4812889,8.4812889,8.4812889,206.24065,81.759354)"
       gradientUnits="userSpaceOnUse"
       y2="0"
       x2="1"
       y1="0"
       x1="0"><stop
         id="stop534"
         offset="0"
         style="stop-opacity:1;stop-color:#e6e7e8" /><stop
         id="stop536"
         offset="1"
         style="stop-opacity:1;stop-color:#d1d3d4" /></linearGradient><clipPath
       id="clipPath544"
       clipPathUnits="userSpaceOnUse"><path
         id="path546"
         d="m 197,86 c 0,-2.762 2.238,-5 5,-5 l 0,0 c 2.762,0 5,2.238 5,5 l 0,0 c 0,2.762 -2.238,5 -5,5 l 0,0 c -2.762,0 -5,-2.238 -5,-5" /></clipPath><linearGradient
       id="linearGradient552"
       spreadMethod="pad"
       gradientTransform="matrix(7.0710678,-7.0710678,-7.0710678,-7.0710678,198.46446,89.535538)"
       gradientUnits="userSpaceOnUse"
       y2="0"
       x2="1"
       y1="0"
       x1="0"><stop
         id="stop554"
         offset="0"
         style="stop-opacity:1;stop-color:#e6e7e8" /><stop
         id="stop556"
         offset="1"
         style="stop-opacity:1;stop-color:#d1d3d4" /></linearGradient><clipPath
       id="clipPath564"
       clipPathUnits="userSpaceOnUse"><path
         id="path566"
         d="m 216,86 c 0,-3.308 2.692,-6 6,-6 l 0,0 c 3.309,0 6,2.692 6,6 l 0,0 c 0,3.309 -2.691,6 -6,6 l 0,0 c -3.308,0 -6,-2.691 -6,-6" /></clipPath><linearGradient
       id="linearGradient572"
       spreadMethod="pad"
       gradientTransform="matrix(-8.4812889,8.4812889,8.4812889,8.4812889,226.24065,81.759354)"
       gradientUnits="userSpaceOnUse"
       y2="0"
       x2="1"
       y1="0"
       x1="0"><stop
         id="stop574"
         offset="0"
         style="stop-opacity:1;stop-color:#e6e7e8" /><stop
         id="stop576"
         offset="1"
         style="stop-opacity:1;stop-color:#d1d3d4" /></linearGradient><clipPath
       id="clipPath584"
       clipPathUnits="userSpaceOnUse"><path
         id="path586"
         d="m 217,86 c 0,-2.762 2.238,-5 5,-5 l 0,0 c 2.762,0 5,2.238 5,5 l 0,0 c 0,2.762 -2.238,5 -5,5 l 0,0 c -2.762,0 -5,-2.238 -5,-5" /></clipPath><linearGradient
       id="linearGradient592"
       spreadMethod="pad"
       gradientTransform="matrix(7.0710678,-7.0710678,-7.0710678,-7.0710678,218.46446,89.535538)"
       gradientUnits="userSpaceOnUse"
       y2="0"
       x2="1"
       y1="0"
       x1="0"><stop
         id="stop594"
         offset="0"
         style="stop-opacity:1;stop-color:#e6e7e8" /><stop
         id="stop596"
         offset="1"
         style="stop-opacity:1;stop-color:#d1d3d4" /></linearGradient><clipPath
       id="clipPath604"
       clipPathUnits="userSpaceOnUse"><path
         id="path606"
         d="M 0,256 256,256 256,0 0,0 0,256 Z" /></clipPath><clipPath
       id="clipPath616"
       clipPathUnits="userSpaceOnUse"><path
         id="path618"
         d="m 40,130 0,-4 c 0,-1.1 0.9,-2 2,-2 l 0,0 c 1.1,0 2,0.9 2,2 l 0,0 0,4 c 0,1.1 -0.9,2 -2,2 l 0,0 c -1.1,0 -2,-0.9 -2,-2" /></clipPath><linearGradient
       id="linearGradient624"
       spreadMethod="pad"
       gradientTransform="matrix(4.8250012,-4.8250012,-4.8250012,-4.8250012,39.587498,130.41251)"
       gradientUnits="userSpaceOnUse"
       y2="0"
       x2="1"
       y1="0"
       x1="0"><stop
         id="stop626"
         offset="0"
         style="stop-opacity:1;stop-color:#e6e7e8" /><stop
         id="stop628"
         offset="1"
         style="stop-opacity:1;stop-color:#d1d3d4" /></linearGradient><clipPath
       id="clipPath636"
       clipPathUnits="userSpaceOnUse"><path
         id="path638"
         d="m 32,130 0,-4 c 0,-1.1 0.9,-2 2,-2 l 0,0 c 1.1,0 2,0.9 2,2 l 0,0 0,4 c 0,1.1 -0.9,2 -2,2 l 0,0 c -1.1,0 -2,-0.9 -2,-2" /></clipPath><linearGradient
       id="linearGradient644"
       spreadMethod="pad"
       gradientTransform="matrix(4.8250012,-4.8250012,-4.8250012,-4.8250012,31.5875,130.41251)"
       gradientUnits="userSpaceOnUse"
       y2="0"
       x2="1"
       y1="0"
       x1="0"><stop
         id="stop646"
         offset="0"
         style="stop-opacity:1;stop-color:#e6e7e8" /><stop
         id="stop648"
         offset="1"
         style="stop-opacity:1;stop-color:#d1d3d4" /></linearGradient><clipPath
       id="clipPath656"
       clipPathUnits="userSpaceOnUse"><path
         id="path658"
         d="m 24,130 0,-4 c 0,-1.1 0.9,-2 2,-2 l 0,0 c 1.1,0 2,0.9 2,2 l 0,0 0,4 c 0,1.1 -0.9,2 -2,2 l 0,0 c -1.1,0 -2,-0.9 -2,-2" /></clipPath><linearGradient
       id="linearGradient664"
       spreadMethod="pad"
       gradientTransform="matrix(4.8250012,-4.8250012,-4.8250012,-4.8250012,23.5875,130.41251)"
       gradientUnits="userSpaceOnUse"
       y2="0"
       x2="1"
       y1="0"
       x1="0"><stop
         id="stop666"
         offset="0"
         style="stop-opacity:1;stop-color:#e6e7e8" /><stop
         id="stop668"
         offset="1"
         style="stop-opacity:1;stop-color:#d1d3d4" /></linearGradient></defs><g
     transform="matrix(1.25,0,0,-1.25,0,320)"
     id="g10"><g
       id="g12"><g
         clip-path="url(#clipPath16)"
         id="g14"><g
           id="g20"><g
             id="g22"><path
               id="path30"
               style="fill:url(#linearGradient24);stroke:none"
               d="m 46,140 164,0 0,-20 -164,0 0,20 z" /></g></g></g></g><g
       id="g32"><g
         clip-path="url(#clipPath36)"
         id="g34"><g
           id="g40"><g
             id="g42"><path
               id="path50"
               style="fill:url(#linearGradient44);stroke:none"
               d="m 20.07,120 0,-93.354 C 20.07,18.557 26.537,12 34.515,12 l 0,0 187.11,0 c 7.979,0 14.445,6.557 14.445,14.646 l 0,0 0,93.354 -216,0 z" /></g></g></g></g><g
       id="g52"><g
         clip-path="url(#clipPath56)"
         id="g54"><g
           id="g60"><g
             id="g62"><path
               id="path70"
               style="fill:url(#linearGradient64);stroke:none"
               d="M 34.445,244 C 26.467,244 20,237.533 20,229.555 l 0,0 0,-93.555 216,0 0,93.555 C 236,237.533 229.532,244 221.555,244 l 0,0 -187.11,0 z" /></g></g></g></g><g
       id="g72"><g
         clip-path="url(#clipPath76)"
         id="g74"><g
           id="g80"><g
             id="g82"><path
               id="path90"
               style="fill:url(#linearGradient84);stroke:none"
               d="m 185.482,236 -114.964,0 -2.518,0 0,-2.633 0,-90.734 0,-2.633 2.518,0 114.964,0 2.518,0 0,2.633 0,90.734 0,2.633 -2.518,0 z" /></g></g></g></g><g
       id="g92"><g
         clip-path="url(#clipPath96)"
         id="g94"><path
           id="path100"
           style="fill:#999999;fill-opacity:1;fill-rule:nonzero;stroke:none"
           d="m 184,144 -112,0 0,88 112,0 0,-88 z" /></g></g><g
       id="g102"><g
         clip-path="url(#clipPath106)"
         id="g104"><g
           id="g110"><g
             id="g112"><path
               id="path120"
               style="fill:url(#linearGradient114);stroke:none"
               d="m 183.167,116 -110.334,0 -2.416,0 C 69.082,116 68,114.882 68,113.504 l 0,0 0,-2.496 0,-86.016 0,-2.497 C 68,21.118 69.082,20 70.417,20 l 0,0 2.416,0 110.334,0 2.417,0 c 1.334,0 2.416,1.118 2.416,2.495 l 0,0 0,2.497 0,86.016 0,2.496 c 0,1.378 -1.082,2.496 -2.416,2.496 l 0,0 -2.417,0 z" /></g></g></g></g><g
       id="g122"><g
         clip-path="url(#clipPath126)"
         id="g124"><g
           id="g130"><g
             id="g132"><path
               id="path140"
               style="fill:url(#linearGradient134);stroke:none"
               d="M 183.566,114 72.434,114 70,114 70,111.477 70,24.523 70,22 l 2.434,0 111.132,0 2.434,0 0,2.523 0,86.954 0,2.523 -2.434,0 z" /></g></g></g></g><g
       id="g142"><g
         clip-path="url(#clipPath146)"
         id="g144"><path
           id="path150"
           style="fill:#999999;fill-opacity:1;fill-rule:nonzero;stroke:none"
           d="m 184,24 -112,0 0,88 112,0 0,-88 z" /></g></g><g
       id="g152"><g
         clip-path="url(#clipPath156)"
         id="g154"><g
           id="g160"><g
             id="g162"><path
               id="path170"
               style="fill:url(#linearGradient164);stroke:none"
               d="M 25.251,136 C 22.351,136 20,133.923 20,131.359 l 0,0 0,-11.359 28,0 0,16 -22.749,0 z" /></g></g></g></g><g
       id="g172"><g
         clip-path="url(#clipPath176)"
         id="g174"><g
           id="g180"><g
             id="g182"><path
               id="path190"
               style="fill:url(#linearGradient184);stroke:none"
               d="m 208,136 0,-16 28,0 0,11.359 c 0,2.564 -2.351,4.641 -5.251,4.641 l 0,0 -22.749,0 z" /></g></g></g></g><g
       id="g192"><g
         clip-path="url(#clipPath196)"
         id="g194"><g
           transform="translate(44,179)"
           id="g200"><path
             id="path202"
             style="fill:#999999;fill-opacity:1;fill-rule:nonzero;stroke:none"
             d="m 0,0 c 0,-0.552 -0.448,-1 -1,-1 -0.552,0 -1,0.448 -1,1 0,0.552 0.448,1 1,1 0.552,0 1,-0.448 1,-1" /></g><g
           transform="translate(48,179)"
           id="g204"><path
             id="path206"
             style="fill:#999999;fill-opacity:1;fill-rule:nonzero;stroke:none"
             d="m 0,0 c 0,-0.552 -0.448,-1 -1,-1 -0.552,0 -1,0.448 -1,1 0,0.552 0.448,1 1,1 0.552,0 1,-0.448 1,-1" /></g><g
           transform="translate(46,175)"
           id="g208"><path
             id="path210"
             style="fill:#999999;fill-opacity:1;fill-rule:nonzero;stroke:none"
             d="m 0,0 c 0,-0.552 -0.448,-1 -1,-1 -0.552,0 -1,0.448 -1,1 0,0.552 0.448,1 1,1 0.552,0 1,-0.448 1,-1" /></g><g
           transform="translate(42,175)"
           id="g212"><path
             id="path214"
             style="fill:#999999;fill-opacity:1;fill-rule:nonzero;stroke:none"
             d="m 0,0 c 0,-0.552 -0.448,-1 -1,-1 -0.552,0 -1,0.448 -1,1 0,0.552 0.448,1 1,1 0.552,0 1,-0.448 1,-1" /></g><g
           transform="translate(46,183)"
           id="g216"><path
             id="path218"
             style="fill:#999999;fill-opacity:1;fill-rule:nonzero;stroke:none"
             d="m 0,0 c 0,-0.552 -0.448,-1 -1,-1 -0.552,0 -1,0.448 -1,1 0,0.552 0.448,1 1,1 0.552,0 1,-0.448 1,-1" /></g><g
           transform="translate(42,183)"
           id="g220"><path
             id="path222"
             style="fill:#999999;fill-opacity:1;fill-rule:nonzero;stroke:none"
             d="m 0,0 c 0,-0.552 -0.448,-1 -1,-1 -0.552,0 -1,0.448 -1,1 0,0.552 0.448,1 1,1 0.552,0 1,-0.448 1,-1" /></g><g
           transform="translate(40,179)"
           id="g224"><path
             id="path226"
             style="fill:#999999;fill-opacity:1;fill-rule:nonzero;stroke:none"
             d="m 0,0 c 0,-0.552 -0.448,-1 -1,-1 -0.552,0 -1,0.448 -1,1 0,0.552 0.448,1 1,1 0.552,0 1,-0.448 1,-1" /></g><g
           transform="translate(214,179)"
           id="g228"><path
             id="path230"
             style="fill:#999999;fill-opacity:1;fill-rule:nonzero;stroke:none"
             d="m 0,0 c 0,-0.552 -0.448,-1 -1,-1 -0.552,0 -1,0.448 -1,1 0,0.552 0.448,1 1,1 0.552,0 1,-0.448 1,-1" /></g><g
           transform="translate(218,179)"
           id="g232"><path
             id="path234"
             style="fill:#999999;fill-opacity:1;fill-rule:nonzero;stroke:none"
             d="m 0,0 c 0,-0.552 -0.448,-1 -1,-1 -0.552,0 -1,0.448 -1,1 0,0.552 0.448,1 1,1 0.552,0 1,-0.448 1,-1" /></g><g
           transform="translate(216,175)"
           id="g236"><path
             id="path238"
             style="fill:#999999;fill-opacity:1;fill-rule:nonzero;stroke:none"
             d="m 0,0 c 0,-0.552 -0.448,-1 -1,-1 -0.552,0 -1,0.448 -1,1 0,0.552 0.448,1 1,1 0.552,0 1,-0.448 1,-1" /></g><g
           transform="translate(212,175)"
           id="g240"><path
             id="path242"
             style="fill:#999999;fill-opacity:1;fill-rule:nonzero;stroke:none"
             d="m 0,0 c 0,-0.552 -0.448,-1 -1,-1 -0.552,0 -1,0.448 -1,1 0,0.552 0.448,1 1,1 0.552,0 1,-0.448 1,-1" /></g><g
           transform="translate(216,183)"
           id="g244"><path
             id="path246"
             style="fill:#999999;fill-opacity:1;fill-rule:nonzero;stroke:none"
             d="m 0,0 c 0,-0.552 -0.448,-1 -1,-1 -0.552,0 -1,0.448 -1,1 0,0.552 0.448,1 1,1 0.552,0 1,-0.448 1,-1" /></g><g
           transform="translate(212,183)"
           id="g248"><path
             id="path250"
             style="fill:#999999;fill-opacity:1;fill-rule:nonzero;stroke:none"
             d="m 0,0 c 0,-0.552 -0.448,-1 -1,-1 -0.552,0 -1,0.448 -1,1 0,0.552 0.448,1 1,1 0.552,0 1,-0.448 1,-1" /></g><g
           transform="translate(210,179)"
           id="g252"><path
             id="path254"
             style="fill:#999999;fill-opacity:1;fill-rule:nonzero;stroke:none"
             d="m 0,0 c 0,-0.552 -0.448,-1 -1,-1 -0.552,0 -1,0.448 -1,1 0,0.552 0.448,1 1,1 0.552,0 1,-0.448 1,-1" /></g></g></g><g
       id="g256"><g
         clip-path="url(#clipPath260)"
         id="g258"><g
           id="g264"><g
             id="g266"><path
               id="path274"
               style="fill:url(#linearGradient268);stroke:none"
               d="m 40,232 4.001,0 0,4 -4.001,0 0,-4 z" /></g></g></g></g><g
       id="g276"><g
         clip-path="url(#clipPath280)"
         id="g278"><g
           id="g284"><g
             id="g286"><path
               id="path294"
               style="fill:url(#linearGradient288);stroke:none"
               d="m 212,232 4,0 0,4 -4,0 0,-4 z" /></g></g></g></g><g
       id="g296"><g
         clip-path="url(#clipPath300)"
         id="g298"><g
           id="g304"><g
             id="g306"><path
               id="path314"
               style="fill:url(#linearGradient308);stroke:none"
               d="m 40,140 4.001,0 0,4 -4.001,0 0,-4 z" /></g></g></g></g><g
       id="g316"><g
         clip-path="url(#clipPath320)"
         id="g318"><g
           id="g324"><g
             id="g326"><path
               id="path334"
               style="fill:url(#linearGradient328);stroke:none"
               d="m 212,140 4,0 0,4 -4,0 0,-4 z" /></g></g></g></g><g
       id="g336"><g
         clip-path="url(#clipPath340)"
         id="g338"><g
           transform="translate(140,128)"
           id="g344"><path
             id="path346"
             style="fill:#999999;fill-opacity:1;fill-rule:nonzero;stroke:none"
             d="m 0,0 c 0,-1.105 -0.895,-2 -2,-2 -1.105,0 -2,0.895 -2,2 0,1.105 0.895,2 2,2 1.105,0 2,-0.895 2,-2" /></g><g
           transform="translate(132,128)"
           id="g348"><path
             id="path350"
             style="fill:#999999;fill-opacity:1;fill-rule:nonzero;stroke:none"
             d="m 0,0 c 0,-2.209 -1.791,-4 -4,-4 -2.209,0 -4,1.791 -4,4 0,2.209 1.791,4 4,4 2.209,0 4,-1.791 4,-4" /></g><g
           transform="translate(60,32)"
           id="g352"><path
             id="path354"
             style="fill:#d9d9d9;fill-opacity:1;fill-rule:nonzero;stroke:none"
             d="m 0,0 c 0,-2.209 -1.791,-4 -4,-4 -2.209,0 -4,1.791 -4,4 0,2.209 1.791,4 4,4 2.209,0 4,-1.791 4,-4" /></g></g></g><g
       id="g356"><g
         clip-path="url(#clipPath360)"
         id="g358"><g
           id="g364"><g
             id="g366"><path
               id="path374"
               style="fill:url(#linearGradient368);stroke:none"
               d="m 37.442,100 c -0.719,0 -1.303,-0.583 -1.303,-1.302 l 0,0 0,-6.838 -6.837,0 C 28.583,91.86 28,91.277 28,90.558 l 0,0 0,-9.116 c 0,-0.719 0.583,-1.302 1.302,-1.302 l 0,0 6.837,0 0,-6.838 C 36.139,72.583 36.723,72 37.442,72 l 0,0 9.116,0 c 0.719,0 1.302,0.583 1.302,1.302 l 0,0 0,6.838 6.837,0 c 0.72,0 1.303,0.583 1.303,1.302 l 0,0 0,9.116 c 0,0.719 -0.583,1.302 -1.303,1.302 l 0,0 -6.837,0 0,6.838 c 0,0.719 -0.583,1.302 -1.302,1.302 l 0,0 -9.116,0 z m -8.14,-9.442 8.14,0 0,8.14 9.116,0 0,-8.14 8.139,0 0,-9.116 -8.139,0 0,-8.14 -9.116,0 0,8.14 -8.14,0 0,9.116 z" /></g></g></g></g><g
       id="g376"><g
         clip-path="url(#clipPath380)"
         id="g378"><g
           transform="translate(35.5556,85)"
           id="g384"><path
             id="path386"
             style="fill:#999999;fill-opacity:1;fill-rule:nonzero;stroke:none"
             d="m 0,0 -3.111,0 c -0.245,0 -0.445,0.449 -0.445,1 0,0.551 0.2,1 0.445,1 L 0,2 C 0.245,2 0.444,1.551 0.444,1 0.444,0.449 0.245,0 0,0" /></g><g
           transform="translate(51.5556,85)"
           id="g388"><path
             id="path390"
             style="fill:#999999;fill-opacity:1;fill-rule:nonzero;stroke:none"
             d="m 0,0 -3.111,0 c -0.245,0 -0.445,0.449 -0.445,1 0,0.551 0.2,1 0.445,1 L 0,2 C 0.245,2 0.444,1.551 0.444,1 0.444,0.449 0.245,0 0,0" /></g><g
           transform="translate(41,92.4444)"
           id="g392"><path
             id="path394"
             style="fill:#999999;fill-opacity:1;fill-rule:nonzero;stroke:none"
             d="m 0,0 0,3.111 c 0,0.245 0.449,0.445 1,0.445 0.551,0 1,-0.2 1,-0.445 L 2,0 C 2,-0.245 1.551,-0.444 1,-0.444 0.449,-0.444 0,-0.245 0,0" /></g><g
           transform="translate(41,76.4444)"
           id="g396"><path
             id="path398"
             style="fill:#999999;fill-opacity:1;fill-rule:nonzero;stroke:none"
             d="m 0,0 0,3.111 c 0,0.245 0.449,0.445 1,0.445 0.551,0 1,-0.2 1,-0.445 L 2,0 C 2,-0.245 1.551,-0.444 1,-0.444 0.449,-0.444 0,-0.245 0,0" /></g></g></g><g
       id="g400"><g
         clip-path="url(#clipPath404)"
         id="g402"><g
           id="g408"><g
             id="g410"><path
               id="path418"
               style="fill:url(#linearGradient412);stroke:none"
               d="m 196,40 c 0,-2.209 1.791,-4 4,-4 l 0,0 c 2.209,0 4,1.791 4,4 l 0,0 c 0,2.209 -1.791,4 -4,4 l 0,0 c -2.209,0 -4,-1.791 -4,-4" /></g></g></g></g><g
       id="g420"><g
         clip-path="url(#clipPath424)"
         id="g422"><g
           id="g428"><g
             id="g430"><path
               id="path438"
               style="fill:url(#linearGradient432);stroke:none"
               d="m 196,28 c 0,-2.209 1.791,-4 4,-4 l 0,0 c 2.209,0 4,1.791 4,4 l 0,0 c 0,2.209 -1.791,4 -4,4 l 0,0 c -2.209,0 -4,-1.791 -4,-4" /></g></g></g></g><g
       id="g440"><g
         clip-path="url(#clipPath444)"
         id="g442"><g
           id="g448"><g
             id="g450"><path
               id="path458"
               style="fill:url(#linearGradient452);stroke:none"
               d="m 206,76 c 0,-3.309 2.692,-6 6,-6 l 0,0 c 3.309,0 6,2.691 6,6 l 0,0 c 0,3.308 -2.691,6 -6,6 l 0,0 c -3.308,0 -6,-2.692 -6,-6" /></g></g></g></g><g
       id="g460"><g
         clip-path="url(#clipPath464)"
         id="g462"><g
           id="g468"><g
             id="g470"><path
               id="path478"
               style="fill:url(#linearGradient472);stroke:none"
               d="m 207,76 c 0,-2.762 2.238,-5 5,-5 l 0,0 c 2.762,0 5,2.238 5,5 l 0,0 c 0,2.762 -2.238,5 -5,5 l 0,0 c -2.762,0 -5,-2.238 -5,-5" /></g></g></g></g><g
       id="g480"><g
         clip-path="url(#clipPath484)"
         id="g482"><g
           id="g488"><g
             id="g490"><path
               id="path498"
               style="fill:url(#linearGradient492);stroke:none"
               d="m 206,96 c 0,-3.308 2.692,-6 6,-6 l 0,0 c 3.309,0 6,2.692 6,6 l 0,0 c 0,3.309 -2.691,6 -6,6 l 0,0 c -3.308,0 -6,-2.691 -6,-6" /></g></g></g></g><g
       id="g500"><g
         clip-path="url(#clipPath504)"
         id="g502"><g
           id="g508"><g
             id="g510"><path
               id="path518"
               style="fill:url(#linearGradient512);stroke:none"
               d="m 207,96 c 0,-2.762 2.238,-5 5,-5 l 0,0 c 2.762,0 5,2.238 5,5 l 0,0 c 0,2.762 -2.238,5 -5,5 l 0,0 c -2.762,0 -5,-2.238 -5,-5" /></g></g></g></g><g
       id="g520"><g
         clip-path="url(#clipPath524)"
         id="g522"><g
           id="g528"><g
             id="g530"><path
               id="path538"
               style="fill:url(#linearGradient532);stroke:none"
               d="m 196,86 c 0,-3.308 2.691,-6 6,-6 l 0,0 c 3.308,0 6,2.692 6,6 l 0,0 c 0,3.309 -2.692,6 -6,6 l 0,0 c -3.309,0 -6,-2.691 -6,-6" /></g></g></g></g><g
       id="g540"><g
         clip-path="url(#clipPath544)"
         id="g542"><g
           id="g548"><g
             id="g550"><path
               id="path558"
               style="fill:url(#linearGradient552);stroke:none"
               d="m 197,86 c 0,-2.762 2.238,-5 5,-5 l 0,0 c 2.762,0 5,2.238 5,5 l 0,0 c 0,2.762 -2.238,5 -5,5 l 0,0 c -2.762,0 -5,-2.238 -5,-5" /></g></g></g></g><g
       id="g560"><g
         clip-path="url(#clipPath564)"
         id="g562"><g
           id="g568"><g
             id="g570"><path
               id="path578"
               style="fill:url(#linearGradient572);stroke:none"
               d="m 216,86 c 0,-3.308 2.692,-6 6,-6 l 0,0 c 3.309,0 6,2.692 6,6 l 0,0 c 0,3.309 -2.691,6 -6,6 l 0,0 c -3.308,0 -6,-2.691 -6,-6" /></g></g></g></g><g
       id="g580"><g
         clip-path="url(#clipPath584)"
         id="g582"><g
           id="g588"><g
             id="g590"><path
               id="path598"
               style="fill:url(#linearGradient592);stroke:none"
               d="m 217,86 c 0,-2.762 2.238,-5 5,-5 l 0,0 c 2.762,0 5,2.238 5,5 l 0,0 c 0,2.762 -2.238,5 -5,5 l 0,0 c -2.762,0 -5,-2.238 -5,-5" /></g></g></g></g><g
       id="g600"><g
         clip-path="url(#clipPath604)"
         id="g602"><g
           transform="translate(142.4059,194.3976)"
           id="g608"><path
             id="path610"
             style="fill:#ffffff;fill-opacity:1;fill-rule:nonzero;stroke:none"
             d="m 0,0 -26.103,0 0,5.964 c 0,5.335 4.35,9.675 9.697,9.675 5.347,0 9.698,-4.34 9.698,-9.675 l 0,-1.723 5.977,0 0,1.723 c 0,8.637 -7.018,15.638 -15.675,15.638 -8.657,0 -15.675,-7.001 -15.675,-15.638 l 0,-5.964 -0.731,0 c -0.88,0 -1.594,-0.712 -1.594,-1.59 l 0,-19.217 c 0,-0.879 0.714,-1.591 1.594,-1.591 l 32.812,0 c 0.88,0 1.594,0.712 1.594,1.591 l 0,19.217 C 1.594,-0.712 0.88,0 0,0" /></g></g></g><g
       id="g612"><g
         clip-path="url(#clipPath616)"
         id="g614"><g
           id="g620"><g
             id="g622"><path
               id="path630"
               style="fill:url(#linearGradient624);stroke:none"
               d="m 40,130 0,-4 c 0,-1.1 0.9,-2 2,-2 l 0,0 c 1.1,0 2,0.9 2,2 l 0,0 0,4 c 0,1.1 -0.9,2 -2,2 l 0,0 c -1.1,0 -2,-0.9 -2,-2" /></g></g></g></g><g
       id="g632"><g
         clip-path="url(#clipPath636)"
         id="g634"><g
           id="g640"><g
             id="g642"><path
               id="path650"
               style="fill:url(#linearGradient644);stroke:none"
               d="m 32,130 0,-4 c 0,-1.1 0.9,-2 2,-2 l 0,0 c 1.1,0 2,0.9 2,2 l 0,0 0,4 c 0,1.1 -0.9,2 -2,2 l 0,0 c -1.1,0 -2,-0.9 -2,-2" /></g></g></g></g><g
       id="g652"><g
         clip-path="url(#clipPath656)"
         id="g654"><g
           id="g660"><g
             id="g662"><path
               id="path670"
               style="fill:url(#linearGradient664);stroke:none"
               d="m 24,130 0,-4 c 0,-1.1 0.9,-2 2,-2 l 0,0 c 1.1,0 2,0.9 2,2 l 0,0 0,4 c 0,1.1 -0.9,2 -2,2 l 0,0 c -1.1,0 -2,-0.9 -2,-2" /></g></g></g></g></g></svg>