<?xml version="1.0" encoding="UTF-8" standalone="no"?>
<svg
   xmlns:dc="http://purl.org/dc/elements/1.1/"
   xmlns:cc="http://creativecommons.org/ns#"
   xmlns:rdf="http://www.w3.org/1999/02/22-rdf-syntax-ns#"
   xmlns:svg="http://www.w3.org/2000/svg"
   xmlns="http://www.w3.org/2000/svg"
   viewBox="0 0 320 320"
   height="320"
   width="320"
   xml:space="preserve"
   version="1.1"
   id="svg2"><metadata
     id="metadata8"><rdf:RDF><cc:Work
         rdf:about=""><dc:format>image/svg+xml</dc:format><dc:type
           rdf:resource="http://purl.org/dc/dcmitype/StillImage" /></cc:Work></rdf:RDF></metadata><defs
     id="defs6"><clipPath
       id="clipPath16"
       clipPathUnits="userSpaceOnUse"><path
         id="path18"
         d="M 44,184 C 30.582,170.582 17.166,109.35 13.185,89.933 l 0,0 C 12.929,88.888 12.712,87.82 12.536,86.73 l 0,0 C 12.186,84.976 12,84 12,84 l 0,0 0.193,0 C 12.07,82.688 12,81.355 12,80 l 0,0 C 12,62.327 22.745,48 36,48 l 0,0 c 13.255,0 24,14.327 24,32 l 0,0 c 0,0 -0.002,105.455 -13.183,105.468 l 0,0 C 45.937,185.469 45.001,185.001 44,184" /></clipPath><linearGradient
       id="linearGradient24"
       spreadMethod="pad"
       gradientTransform="matrix(-68.001175,68.001175,68.001175,68.001175,75.356987,79.354645)"
       gradientUnits="userSpaceOnUse"
       y2="0"
       x2="1"
       y1="0"
       x1="0"><stop
         id="stop26"
         offset="0"
         style="stop-opacity:1;stop-color:#e6e7e8" /><stop
         id="stop28"
         offset="1"
         style="stop-opacity:1;stop-color:#d1d3d4" /></linearGradient><clipPath
       id="clipPath36"
       clipPathUnits="userSpaceOnUse"><path
         id="path38"
         d="M 0,256 256,256 256,0 0,0 0,256 Z" /></clipPath><clipPath
       id="clipPath48"
       clipPathUnits="userSpaceOnUse"><path
         id="path50"
         d="m 40.49,173.632 0,-92.571 C 40.49,62.802 55.292,48 73.551,48 l 0,0 26.449,0 -6.4,152 -1.6,0 0,5.673 c 0,0.551 -0.44,0.998 -0.991,0.999 l 0,0 c -3.831,0.013 -17.458,0.022 -17.458,0.022 l 0,0 c -18.259,0 -33.061,-14.802 -33.061,-33.062" /></clipPath><linearGradient
       id="linearGradient56"
       spreadMethod="pad"
       gradientTransform="matrix(99.418648,-99.418648,-99.418648,-99.418648,28.068068,174.90536)"
       gradientUnits="userSpaceOnUse"
       y2="0"
       x2="1"
       y1="0"
       x1="0"><stop
         id="stop58"
         offset="0"
         style="stop-opacity:1;stop-color:#e6e7e8" /><stop
         id="stop60"
         offset="1"
         style="stop-opacity:1;stop-color:#d1d3d4" /></linearGradient><clipPath
       id="clipPath68"
       clipPathUnits="userSpaceOnUse"><path
         id="path70"
         d="M 0,256 256,256 256,0 0,0 0,256 Z" /></clipPath><clipPath
       id="clipPath80"
       clipPathUnits="userSpaceOnUse"><path
         id="path82"
         d="m 196,80 c 0,-17.673 10.745,-32 24,-32 l 0,0 c 13.255,0 24,14.327 24,32 l 0,0 c 0,1.355 -0.07,2.688 -0.194,4 l 0,0 0.194,0 c 0,0 -0.186,0.976 -0.536,2.73 l 0,0 c -0.175,1.09 -0.393,2.158 -0.649,3.203 l 0,0 C 238.834,109.35 225.418,170.582 212,184 l 0,0 c -1.001,1.001 -1.936,1.469 -2.816,1.468 l 0,0 C 196.003,185.455 196,80 196,80" /></clipPath><linearGradient
       id="linearGradient88"
       spreadMethod="pad"
       gradientTransform="matrix(-78.713974,78.713974,78.713974,78.713974,254.00058,73.998245)"
       gradientUnits="userSpaceOnUse"
       y2="0"
       x2="1"
       y1="0"
       x1="0"><stop
         id="stop90"
         offset="0"
         style="stop-opacity:1;stop-color:#e6e7e8" /><stop
         id="stop92"
         offset="1"
         style="stop-opacity:1;stop-color:#d1d3d4" /></linearGradient><clipPath
       id="clipPath100"
       clipPathUnits="userSpaceOnUse"><path
         id="path102"
         d="M 164.992,206.672 C 164.439,206.671 164,206.224 164,205.673 l 0,0 0,-5.673 -1.6,0 -6.4,-152 26.449,0 c 18.259,0 33.06,14.802 33.06,33.061 l 0,0 0,92.571 c 0,18.26 -14.801,33.062 -33.06,33.062 l 0,0 c 0,0 -13.627,-0.009 -17.457,-0.022" /></clipPath><linearGradient
       id="linearGradient108"
       spreadMethod="pad"
       gradientTransform="matrix(95.116814,-95.116814,-95.116814,-95.116814,130.6642,172.75444)"
       gradientUnits="userSpaceOnUse"
       y2="0"
       x2="1"
       y1="0"
       x1="0"><stop
         id="stop110"
         offset="0"
         style="stop-opacity:1;stop-color:#e6e7e8" /><stop
         id="stop112"
         offset="1"
         style="stop-opacity:1;stop-color:#d1d3d4" /></linearGradient><clipPath
       id="clipPath120"
       clipPathUnits="userSpaceOnUse"><path
         id="path122"
         d="m 100,46 56,0 0,8 -56,0 0,-8 z" /></clipPath><linearGradient
       id="linearGradient128"
       spreadMethod="pad"
       gradientTransform="matrix(31.999998,-31.999998,-31.999998,-31.999998,112,66)"
       gradientUnits="userSpaceOnUse"
       y2="0"
       x2="1"
       y1="0"
       x1="0"><stop
         id="stop130"
         offset="0"
         style="stop-opacity:1;stop-color:#e6e7e8" /><stop
         id="stop132"
         offset="1"
         style="stop-opacity:1;stop-color:#d1d3d4" /></linearGradient><clipPath
       id="clipPath140"
       clipPathUnits="userSpaceOnUse"><path
         id="path142"
         d="M 0,256 256,256 256,0 0,0 0,256 Z" /></clipPath><clipPath
       id="clipPath150"
       clipPathUnits="userSpaceOnUse"><path
         id="path152"
         d="m 73,96 c -0.552,0 -1,-0.447 -1,-1 l 0,0 0,-10 c 0,-0.553 0.448,-1 1,-1 l 0,0 10,0 c 0.552,0 1,0.447 1,1 l 0,0 0,10 c 0,0.553 -0.448,1 -1,1 l 0,0 -10,0 z" /></clipPath><linearGradient
       id="linearGradient158"
       spreadMethod="pad"
       gradientTransform="matrix(-11.414213,11.414213,11.414213,11.414213,83.707108,84.292892)"
       gradientUnits="userSpaceOnUse"
       y2="0"
       x2="1"
       y1="0"
       x1="0"><stop
         id="stop160"
         offset="0"
         style="stop-opacity:1;stop-color:#e6e7e8" /><stop
         id="stop162"
         offset="1"
         style="stop-opacity:1;stop-color:#d1d3d4" /></linearGradient><clipPath
       id="clipPath170"
       clipPathUnits="userSpaceOnUse"><path
         id="path172"
         d="M 0,256 256,256 256,0 0,0 0,256 Z" /></clipPath><clipPath
       id="clipPath222"
       clipPathUnits="userSpaceOnUse"><path
         id="path224"
         d="m 176,124.837 9.163,0 0,9.163 c -4.877,-0.403 -8.759,-4.286 -9.163,-9.163" /></clipPath><linearGradient
       id="linearGradient230"
       spreadMethod="pad"
       gradientTransform="matrix(-6.2591681,6.2591681,6.2591681,6.2591681,185.16315,124.83686)"
       gradientUnits="userSpaceOnUse"
       y2="0"
       x2="1"
       y1="0"
       x1="0"><stop
         id="stop232"
         offset="0"
         style="stop-opacity:1;stop-color:#e6e7e8" /><stop
         id="stop234"
         offset="1"
         style="stop-opacity:1;stop-color:#d1d3d4" /></linearGradient><clipPath
       id="clipPath242"
       clipPathUnits="userSpaceOnUse"><path
         id="path244"
         d="m 186.837,124.837 9.163,0 c -0.403,4.877 -4.286,8.76 -9.163,9.163 l 0,0 0,-9.163 z" /></clipPath><linearGradient
       id="linearGradient250"
       spreadMethod="pad"
       gradientTransform="matrix(-9.1631422,9.1631422,9.1631422,9.1631422,194.54802,123.38487)"
       gradientUnits="userSpaceOnUse"
       y2="0"
       x2="1"
       y1="0"
       x1="0"><stop
         id="stop252"
         offset="0"
         style="stop-opacity:1;stop-color:#e6e7e8" /><stop
         id="stop254"
         offset="1"
         style="stop-opacity:1;stop-color:#d1d3d4" /></linearGradient><clipPath
       id="clipPath262"
       clipPathUnits="userSpaceOnUse"><path
         id="path264"
         d="m 176,123.163 c 0.404,-4.877 4.286,-8.759 9.163,-9.163 l 0,0 0,9.163 -9.163,0 z" /></clipPath><linearGradient
       id="linearGradient270"
       spreadMethod="pad"
       gradientTransform="matrix(-9.1631422,9.1631422,9.1631422,9.1631422,186.61513,115.45199)"
       gradientUnits="userSpaceOnUse"
       y2="0"
       x2="1"
       y1="0"
       x1="0"><stop
         id="stop272"
         offset="0"
         style="stop-opacity:1;stop-color:#e6e7e8" /><stop
         id="stop274"
         offset="1"
         style="stop-opacity:1;stop-color:#d1d3d4" /></linearGradient><clipPath
       id="clipPath282"
       clipPathUnits="userSpaceOnUse"><path
         id="path284"
         d="m 186.837,123.163 0,-9.163 c 4.877,0.404 8.76,4.286 9.163,9.163 l 0,0 -9.163,0 z" /></clipPath><linearGradient
       id="linearGradient290"
       spreadMethod="pad"
       gradientTransform="matrix(-6.2591681,6.2591681,6.2591681,6.2591681,193.09602,116.90398)"
       gradientUnits="userSpaceOnUse"
       y2="0"
       x2="1"
       y1="0"
       x1="0"><stop
         id="stop292"
         offset="0"
         style="stop-opacity:1;stop-color:#e6e7e8" /><stop
         id="stop294"
         offset="1"
         style="stop-opacity:1;stop-color:#d1d3d4" /></linearGradient><clipPath
       id="clipPath302"
       clipPathUnits="userSpaceOnUse"><path
         id="path304"
         d="M 0,256 256,256 256,0 0,0 0,256 Z" /></clipPath><clipPath
       id="clipPath318"
       clipPathUnits="userSpaceOnUse"><path
         id="path320"
         d="m 60,168.837 9.163,0 0,9.163 C 64.286,177.597 60.404,173.714 60,168.837" /></clipPath><linearGradient
       id="linearGradient326"
       spreadMethod="pad"
       gradientTransform="matrix(-6.2591681,6.2591681,6.2591681,6.2591681,69.163139,168.83685)"
       gradientUnits="userSpaceOnUse"
       y2="0"
       x2="1"
       y1="0"
       x1="0"><stop
         id="stop328"
         offset="0"
         style="stop-opacity:1;stop-color:#e6e7e8" /><stop
         id="stop330"
         offset="1"
         style="stop-opacity:1;stop-color:#d1d3d4" /></linearGradient><clipPath
       id="clipPath338"
       clipPathUnits="userSpaceOnUse"><path
         id="path340"
         d="m 70.837,168.837 9.163,0 c -0.403,4.877 -4.286,8.76 -9.163,9.163 l 0,0 0,-9.163 z" /></clipPath><linearGradient
       id="linearGradient346"
       spreadMethod="pad"
       gradientTransform="matrix(-9.1631422,9.1631422,9.1631422,9.1631422,78.548012,167.38487)"
       gradientUnits="userSpaceOnUse"
       y2="0"
       x2="1"
       y1="0"
       x1="0"><stop
         id="stop348"
         offset="0"
         style="stop-opacity:1;stop-color:#e6e7e8" /><stop
         id="stop350"
         offset="1"
         style="stop-opacity:1;stop-color:#d1d3d4" /></linearGradient><clipPath
       id="clipPath358"
       clipPathUnits="userSpaceOnUse"><path
         id="path360"
         d="m 60,167.163 c 0.404,-4.877 4.286,-8.759 9.163,-9.163 l 0,0 0,9.163 -9.163,0 z" /></clipPath><linearGradient
       id="linearGradient366"
       spreadMethod="pad"
       gradientTransform="matrix(-9.1631422,9.1631422,9.1631422,9.1631422,70.615128,159.45198)"
       gradientUnits="userSpaceOnUse"
       y2="0"
       x2="1"
       y1="0"
       x1="0"><stop
         id="stop368"
         offset="0"
         style="stop-opacity:1;stop-color:#e6e7e8" /><stop
         id="stop370"
         offset="1"
         style="stop-opacity:1;stop-color:#d1d3d4" /></linearGradient><clipPath
       id="clipPath378"
       clipPathUnits="userSpaceOnUse"><path
         id="path380"
         d="m 70.837,167.163 0,-9.163 c 4.877,0.404 8.76,4.286 9.163,9.163 l 0,0 -9.163,0 z" /></clipPath><linearGradient
       id="linearGradient386"
       spreadMethod="pad"
       gradientTransform="matrix(-6.2591681,6.2591681,6.2591681,6.2591681,77.096024,160.90398)"
       gradientUnits="userSpaceOnUse"
       y2="0"
       x2="1"
       y1="0"
       x1="0"><stop
         id="stop388"
         offset="0"
         style="stop-opacity:1;stop-color:#e6e7e8" /><stop
         id="stop390"
         offset="1"
         style="stop-opacity:1;stop-color:#d1d3d4" /></linearGradient><clipPath
       id="clipPath398"
       clipPathUnits="userSpaceOnUse"><path
         id="path400"
         d="M 0,256 256,256 256,0 0,0 0,256 Z" /></clipPath><clipPath
       id="clipPath410"
       clipPathUnits="userSpaceOnUse"><path
         id="path412"
         d="m 172,90 c 0,-3.308 2.692,-6 6,-6 l 0,0 c 3.309,0 6,2.692 6,6 l 0,0 c 0,3.308 -2.691,6 -6,6 l 0,0 c -3.308,0 -6,-2.692 -6,-6" /></clipPath><linearGradient
       id="linearGradient418"
       spreadMethod="pad"
       gradientTransform="matrix(-8.4814453,8.4814453,8.4814453,8.4814453,182.24072,85.759277)"
       gradientUnits="userSpaceOnUse"
       y2="0"
       x2="1"
       y1="0"
       x1="0"><stop
         id="stop420"
         offset="0"
         style="stop-opacity:1;stop-color:#e6e7e8" /><stop
         id="stop422"
         offset="1"
         style="stop-opacity:1;stop-color:#d1d3d4" /></linearGradient><clipPath
       id="clipPath430"
       clipPathUnits="userSpaceOnUse"><path
         id="path432"
         d="M 0,256 256,256 256,0 0,0 0,256 Z" /></clipPath><clipPath
       id="clipPath442"
       clipPathUnits="userSpaceOnUse"><path
         id="path444"
         d="m 100,208 0,-4 c 0,-2.209 -1.791,-4 -4,-4 l 0,0 -4,0 0,-152 72,0 0,152 -4,0 c -2.209,0 -4,1.791 -4,4 l 0,0 0,4 -56,0 z" /></clipPath><linearGradient
       id="linearGradient450"
       spreadMethod="pad"
       gradientTransform="matrix(-112,112,112,112,184,68)"
       gradientUnits="userSpaceOnUse"
       y2="0"
       x2="1"
       y1="0"
       x1="0"><stop
         id="stop452"
         offset="0"
         style="stop-opacity:1;stop-color:#e6e7e8" /><stop
         id="stop454"
         offset="1"
         style="stop-opacity:1;stop-color:#d1d3d4" /></linearGradient><clipPath
       id="clipPath462"
       clipPathUnits="userSpaceOnUse"><path
         id="path464"
         d="m 100,150 c 0,-1.105 0.895,-2 2,-2 l 0,0 c 1.105,0 2,0.895 2,2 l 0,0 c 0,1.105 -0.895,2 -2,2 l 0,0 c -1.105,0 -2,-0.895 -2,-2" /></clipPath><linearGradient
       id="linearGradient470"
       spreadMethod="pad"
       gradientTransform="matrix(2.8284271,-2.8284271,-2.8284271,-2.8284271,100.58578,151.41422)"
       gradientUnits="userSpaceOnUse"
       y2="0"
       x2="1"
       y1="0"
       x1="0"><stop
         id="stop472"
         offset="0"
         style="stop-opacity:1;stop-color:#e6e7e8" /><stop
         id="stop474"
         offset="1"
         style="stop-opacity:1;stop-color:#d1d3d4" /></linearGradient><clipPath
       id="clipPath482"
       clipPathUnits="userSpaceOnUse"><path
         id="path484"
         d="m 100,142 c 0,-1.104 0.895,-2 2,-2 l 0,0 c 1.105,0 2,0.896 2,2 l 0,0 c 0,1.104 -0.895,2 -2,2 l 0,0 c -1.105,0 -2,-0.896 -2,-2" /></clipPath><linearGradient
       id="linearGradient490"
       spreadMethod="pad"
       gradientTransform="matrix(2.8284271,-2.8284271,-2.8284271,-2.8284271,100.58578,143.41422)"
       gradientUnits="userSpaceOnUse"
       y2="0"
       x2="1"
       y1="0"
       x1="0"><stop
         id="stop492"
         offset="0"
         style="stop-opacity:1;stop-color:#e6e7e8" /><stop
         id="stop494"
         offset="1"
         style="stop-opacity:1;stop-color:#d1d3d4" /></linearGradient><clipPath
       id="clipPath502"
       clipPathUnits="userSpaceOnUse"><path
         id="path504"
         d="m 100,134 c 0,-1.104 0.895,-2 2,-2 l 0,0 c 1.105,0 2,0.896 2,2 l 0,0 c 0,1.104 -0.895,2 -2,2 l 0,0 c -1.105,0 -2,-0.896 -2,-2" /></clipPath><linearGradient
       id="linearGradient510"
       spreadMethod="pad"
       gradientTransform="matrix(2.8284271,-2.8284271,-2.8284271,-2.8284271,100.58578,135.41422)"
       gradientUnits="userSpaceOnUse"
       y2="0"
       x2="1"
       y1="0"
       x1="0"><stop
         id="stop512"
         offset="0"
         style="stop-opacity:1;stop-color:#e6e7e8" /><stop
         id="stop514"
         offset="1"
         style="stop-opacity:1;stop-color:#d1d3d4" /></linearGradient><clipPath
       id="clipPath522"
       clipPathUnits="userSpaceOnUse"><path
         id="path524"
         d="m 100,126 c 0,-1.104 0.895,-2 2,-2 l 0,0 c 1.105,0 2,0.896 2,2 l 0,0 c 0,1.104 -0.895,2 -2,2 l 0,0 c -1.105,0 -2,-0.896 -2,-2" /></clipPath><linearGradient
       id="linearGradient530"
       spreadMethod="pad"
       gradientTransform="matrix(2.8284271,-2.8284271,-2.8284271,-2.8284271,100.58578,127.41422)"
       gradientUnits="userSpaceOnUse"
       y2="0"
       x2="1"
       y1="0"
       x1="0"><stop
         id="stop532"
         offset="0"
         style="stop-opacity:1;stop-color:#e6e7e8" /><stop
         id="stop534"
         offset="1"
         style="stop-opacity:1;stop-color:#d1d3d4" /></linearGradient><clipPath
       id="clipPath542"
       clipPathUnits="userSpaceOnUse"><path
         id="path544"
         d="m 152,150 c 0,-1.105 0.896,-2 2,-2 l 0,0 c 1.104,0 2,0.895 2,2 l 0,0 c 0,1.105 -0.896,2 -2,2 l 0,0 c -1.104,0 -2,-0.895 -2,-2" /></clipPath><linearGradient
       id="linearGradient550"
       spreadMethod="pad"
       gradientTransform="matrix(2.8284271,-2.8284271,-2.8284271,-2.8284271,152.58578,151.41422)"
       gradientUnits="userSpaceOnUse"
       y2="0"
       x2="1"
       y1="0"
       x1="0"><stop
         id="stop552"
         offset="0"
         style="stop-opacity:1;stop-color:#e6e7e8" /><stop
         id="stop554"
         offset="1"
         style="stop-opacity:1;stop-color:#d1d3d4" /></linearGradient><clipPath
       id="clipPath562"
       clipPathUnits="userSpaceOnUse"><path
         id="path564"
         d="m 152,142 c 0,-1.104 0.896,-2 2,-2 l 0,0 c 1.104,0 2,0.896 2,2 l 0,0 c 0,1.104 -0.896,2 -2,2 l 0,0 c -1.104,0 -2,-0.896 -2,-2" /></clipPath><linearGradient
       id="linearGradient570"
       spreadMethod="pad"
       gradientTransform="matrix(2.8284271,-2.8284271,-2.8284271,-2.8284271,152.58578,143.41422)"
       gradientUnits="userSpaceOnUse"
       y2="0"
       x2="1"
       y1="0"
       x1="0"><stop
         id="stop572"
         offset="0"
         style="stop-opacity:1;stop-color:#e6e7e8" /><stop
         id="stop574"
         offset="1"
         style="stop-opacity:1;stop-color:#d1d3d4" /></linearGradient><clipPath
       id="clipPath582"
       clipPathUnits="userSpaceOnUse"><path
         id="path584"
         d="m 152,134 c 0,-1.104 0.896,-2 2,-2 l 0,0 c 1.104,0 2,0.896 2,2 l 0,0 c 0,1.104 -0.896,2 -2,2 l 0,0 c -1.104,0 -2,-0.896 -2,-2" /></clipPath><linearGradient
       id="linearGradient590"
       spreadMethod="pad"
       gradientTransform="matrix(2.8284271,-2.8284271,-2.8284271,-2.8284271,152.58578,135.41422)"
       gradientUnits="userSpaceOnUse"
       y2="0"
       x2="1"
       y1="0"
       x1="0"><stop
         id="stop592"
         offset="0"
         style="stop-opacity:1;stop-color:#e6e7e8" /><stop
         id="stop594"
         offset="1"
         style="stop-opacity:1;stop-color:#d1d3d4" /></linearGradient><clipPath
       id="clipPath602"
       clipPathUnits="userSpaceOnUse"><path
         id="path604"
         d="m 152,126 c 0,-1.104 0.896,-2 2,-2 l 0,0 c 1.104,0 2,0.896 2,2 l 0,0 c 0,1.104 -0.896,2 -2,2 l 0,0 c -1.104,0 -2,-0.896 -2,-2" /></clipPath><linearGradient
       id="linearGradient610"
       spreadMethod="pad"
       gradientTransform="matrix(2.8284271,-2.8284271,-2.8284271,-2.8284271,152.58578,127.41422)"
       gradientUnits="userSpaceOnUse"
       y2="0"
       x2="1"
       y1="0"
       x1="0"><stop
         id="stop612"
         offset="0"
         style="stop-opacity:1;stop-color:#e6e7e8" /><stop
         id="stop614"
         offset="1"
         style="stop-opacity:1;stop-color:#d1d3d4" /></linearGradient></defs><g
     transform="matrix(1.25,0,0,-1.25,0,320)"
     id="g10"><g
       id="g12"><g
         clip-path="url(#clipPath16)"
         id="g14"><g
           id="g20"><g
             id="g22"><path
               id="path30"
               style="fill:url(#linearGradient24);stroke:none"
               d="M 44,184 C 30.582,170.582 17.166,109.35 13.185,89.933 l 0,0 C 12.929,88.888 12.712,87.82 12.536,86.73 l 0,0 C 12.186,84.976 12,84 12,84 l 0,0 0.193,0 C 12.07,82.688 12,81.355 12,80 l 0,0 C 12,62.327 22.745,48 36,48 l 0,0 c 13.255,0 24,14.327 24,32 l 0,0 c 0,0 -0.002,105.455 -13.183,105.468 l 0,0 C 45.937,185.469 45.001,185.001 44,184" /></g></g></g></g><g
       id="g32"><g
         clip-path="url(#clipPath36)"
         id="g34"><g
           transform="translate(80.1631,206.6938)"
           id="g40"><path
             id="path42"
             style="fill:#949494;fill-opacity:1;fill-rule:nonzero;stroke:none"
             d="m 0,0 c 0,1.826 -1.48,3.306 -3.306,3.306 l -3.306,0 c -13.007,0 -24.257,-7.513 -29.654,-18.435 -1.071,-2.169 0.579,-4.708 2.999,-4.708 L 0,0 Z" /></g></g></g><g
       id="g44"><g
         clip-path="url(#clipPath48)"
         id="g46"><g
           id="g52"><g
             id="g54"><path
               id="path62"
               style="fill:url(#linearGradient56);stroke:none"
               d="m 40.49,173.632 0,-92.571 C 40.49,62.802 55.292,48 73.551,48 l 0,0 26.449,0 -6.4,152 -1.6,0 0,5.673 c 0,0.551 -0.44,0.998 -0.991,0.999 l 0,0 c -3.831,0.013 -17.458,0.022 -17.458,0.022 l 0,0 c -18.259,0 -33.061,-14.802 -33.061,-33.062" /></g></g></g></g><g
       id="g64"><g
         clip-path="url(#clipPath68)"
         id="g66"><g
           transform="translate(175.8369,206.6938)"
           id="g72"><path
             id="path74"
             style="fill:#949494;fill-opacity:1;fill-rule:nonzero;stroke:none"
             d="m 0,0 c 0,1.826 1.48,3.306 3.306,3.306 l 3.306,0 c 13.007,0 24.257,-7.513 29.654,-18.435 1.071,-2.169 -0.579,-4.708 -2.998,-4.708 L 0,0 Z" /></g></g></g><g
       id="g76"><g
         clip-path="url(#clipPath80)"
         id="g78"><g
           id="g84"><g
             id="g86"><path
               id="path94"
               style="fill:url(#linearGradient88);stroke:none"
               d="m 196,80 c 0,-17.673 10.745,-32 24,-32 l 0,0 c 13.255,0 24,14.327 24,32 l 0,0 c 0,1.355 -0.07,2.688 -0.194,4 l 0,0 0.194,0 c 0,0 -0.186,0.976 -0.536,2.73 l 0,0 c -0.175,1.09 -0.393,2.158 -0.649,3.203 l 0,0 C 238.834,109.35 225.418,170.582 212,184 l 0,0 c -1.001,1.001 -1.936,1.469 -2.816,1.468 l 0,0 C 196.003,185.455 196,80 196,80" /></g></g></g></g><g
       id="g96"><g
         clip-path="url(#clipPath100)"
         id="g98"><g
           id="g104"><g
             id="g106"><path
               id="path114"
               style="fill:url(#linearGradient108);stroke:none"
               d="M 164.992,206.672 C 164.439,206.671 164,206.224 164,205.673 l 0,0 0,-5.673 -1.6,0 -6.4,-152 26.449,0 c 18.259,0 33.06,14.802 33.06,33.061 l 0,0 0,92.571 c 0,18.26 -14.801,33.062 -33.06,33.062 l 0,0 c 0,0 -13.627,-0.009 -17.457,-0.022" /></g></g></g></g><g
       id="g116"><g
         clip-path="url(#clipPath120)"
         id="g118"><g
           id="g124"><g
             id="g126"><path
               id="path134"
               style="fill:url(#linearGradient128);stroke:none"
               d="m 100,46 56,0 0,8 -56,0 0,-8 z" /></g></g></g></g><g
       id="g136"><g
         clip-path="url(#clipPath140)"
         id="g138"><path
           id="path144"
           style="fill:#999999;fill-opacity:1;fill-rule:nonzero;stroke:none"
           d="m 88.429,190.163 -9.918,0 0,3.306 9.918,0 0,-3.306 z" /></g></g><g
       id="g146"><g
         clip-path="url(#clipPath150)"
         id="g148"><g
           id="g154"><g
             id="g156"><path
               id="path164"
               style="fill:url(#linearGradient158);stroke:none"
               d="m 73,96 c -0.552,0 -1,-0.447 -1,-1 l 0,0 0,-10 c 0,-0.553 0.448,-1 1,-1 l 0,0 10,0 c 0.552,0 1,0.447 1,1 l 0,0 0,10 c 0,0.553 -0.448,1 -1,1 l 0,0 -10,0 z" /></g></g></g></g><g
       id="g166"><g
         clip-path="url(#clipPath170)"
         id="g168"><g
           transform="translate(82,90)"
           id="g174"><path
             id="path176"
             style="fill:#999999;fill-opacity:1;fill-rule:nonzero;stroke:none"
             d="m 0,0 c 0,-2.209 -1.791,-4 -4,-4 -2.209,0 -4,1.791 -4,4 0,2.209 1.791,4 4,4 2.209,0 4,-1.791 4,-4" /></g><g
           transform="translate(76,134)"
           id="g178"><path
             id="path180"
             style="fill:#999999;fill-opacity:1;fill-rule:nonzero;stroke:none"
             d="m 0,0 c 0,-3.313 -2.687,-6 -6,-6 -3.313,0 -6,2.687 -6,6 0,3.313 2.687,6 6,6 3.313,0 6,-2.687 6,-6" /></g><g
           transform="translate(76,110)"
           id="g182"><path
             id="path184"
             style="fill:#999999;fill-opacity:1;fill-rule:nonzero;stroke:none"
             d="m 0,0 c 0,-3.313 -2.687,-6 -6,-6 -3.313,0 -6,2.687 -6,6 0,3.313 2.687,6 6,6 3.313,0 6,-2.687 6,-6" /></g><g
           transform="translate(82,116)"
           id="g186"><path
             id="path188"
             style="fill:#999999;fill-opacity:1;fill-rule:nonzero;stroke:none"
             d="m 0,0 c -3.313,0 -6,2.687 -6,6 0,3.313 2.687,6 6,6 C 3.313,12 6,9.313 6,6 6,2.687 3.313,0 0,0" /></g><g
           transform="translate(58,116)"
           id="g190"><path
             id="path192"
             style="fill:#999999;fill-opacity:1;fill-rule:nonzero;stroke:none"
             d="m 0,0 c -3.313,0 -6,2.687 -6,6 0,3.313 2.687,6 6,6 C 3.313,12 6,9.313 6,6 6,2.687 3.313,0 0,0" /></g><g
           transform="translate(192,178)"
           id="g194"><path
             id="path196"
             style="fill:#999999;fill-opacity:1;fill-rule:nonzero;stroke:none"
             d="m 0,0 c 0,-3.313 -2.687,-6 -6,-6 -3.313,0 -6,2.687 -6,6 0,3.313 2.687,6 6,6 3.313,0 6,-2.687 6,-6" /></g><g
           transform="translate(192,154)"
           id="g198"><path
             id="path200"
             style="fill:#999999;fill-opacity:1;fill-rule:nonzero;stroke:none"
             d="m 0,0 c 0,-3.313 -2.687,-6 -6,-6 -3.313,0 -6,2.687 -6,6 0,3.313 2.687,6 6,6 3.313,0 6,-2.687 6,-6" /></g><g
           transform="translate(198,160)"
           id="g202"><path
             id="path204"
             style="fill:#999999;fill-opacity:1;fill-rule:nonzero;stroke:none"
             d="m 0,0 c -3.313,0 -6,2.687 -6,6 0,3.313 2.687,6 6,6 C 3.313,12 6,9.313 6,6 6,2.687 3.313,0 0,0" /></g><g
           transform="translate(174,160)"
           id="g206"><path
             id="path208"
             style="fill:#999999;fill-opacity:1;fill-rule:nonzero;stroke:none"
             d="m 0,0 c -3.313,0 -6,2.687 -6,6 0,3.313 2.687,6 6,6 C 3.313,12 6,9.313 6,6 6,2.687 3.313,0 0,0" /></g><g
           transform="translate(177.4902,193.4692)"
           id="g210"><path
             id="path212"
             style="fill:#999999;fill-opacity:1;fill-rule:nonzero;stroke:none"
             d="m 0,0 -3.307,0 0,3.306 -3.305,0 0,-3.306 -3.307,0 0,-3.306 3.307,0 0,-3.306 3.305,0 0,3.306 3.307,0 L 0,0 Z" /></g><g
           transform="translate(198,124)"
           id="g214"><path
             id="path216"
             style="fill:#999999;fill-opacity:1;fill-rule:nonzero;stroke:none"
             d="m 0,0 c 0,-6.627 -5.373,-12 -12,-12 -6.627,0 -12,5.373 -12,12 0,6.627 5.373,12 12,12 C -5.373,12 0,6.627 0,0" /></g></g></g><g
       id="g218"><g
         clip-path="url(#clipPath222)"
         id="g220"><g
           id="g226"><g
             id="g228"><path
               id="path236"
               style="fill:url(#linearGradient230);stroke:none"
               d="m 176,124.837 9.163,0 0,9.163 c -4.877,-0.403 -8.759,-4.286 -9.163,-9.163" /></g></g></g></g><g
       id="g238"><g
         clip-path="url(#clipPath242)"
         id="g240"><g
           id="g246"><g
             id="g248"><path
               id="path256"
               style="fill:url(#linearGradient250);stroke:none"
               d="m 186.837,124.837 9.163,0 c -0.403,4.877 -4.286,8.76 -9.163,9.163 l 0,0 0,-9.163 z" /></g></g></g></g><g
       id="g258"><g
         clip-path="url(#clipPath262)"
         id="g260"><g
           id="g266"><g
             id="g268"><path
               id="path276"
               style="fill:url(#linearGradient270);stroke:none"
               d="m 176,123.163 c 0.404,-4.877 4.286,-8.759 9.163,-9.163 l 0,0 0,9.163 -9.163,0 z" /></g></g></g></g><g
       id="g278"><g
         clip-path="url(#clipPath282)"
         id="g280"><g
           id="g286"><g
             id="g288"><path
               id="path296"
               style="fill:url(#linearGradient290);stroke:none"
               d="m 186.837,123.163 0,-9.163 c 4.877,0.404 8.76,4.286 9.163,9.163 l 0,0 -9.163,0 z" /></g></g></g></g><g
       id="g298"><g
         clip-path="url(#clipPath302)"
         id="g300"><g
           transform="translate(194,124)"
           id="g306"><path
             id="path308"
             style="fill:#999999;fill-opacity:1;fill-rule:nonzero;stroke:none"
             d="m 0,0 c 0,-4.418 -3.582,-8 -8,-8 -4.418,0 -8,3.582 -8,8 0,4.418 3.582,8 8,8 4.418,0 8,-3.582 8,-8" /></g><g
           transform="translate(82,168)"
           id="g310"><path
             id="path312"
             style="fill:#999999;fill-opacity:1;fill-rule:nonzero;stroke:none"
             d="m 0,0 c 0,-6.627 -5.373,-12 -12,-12 -6.627,0 -12,5.373 -12,12 0,6.627 5.373,12 12,12 C -5.373,12 0,6.627 0,0" /></g></g></g><g
       id="g314"><g
         clip-path="url(#clipPath318)"
         id="g316"><g
           id="g322"><g
             id="g324"><path
               id="path332"
               style="fill:url(#linearGradient326);stroke:none"
               d="m 60,168.837 9.163,0 0,9.163 C 64.286,177.597 60.404,173.714 60,168.837" /></g></g></g></g><g
       id="g334"><g
         clip-path="url(#clipPath338)"
         id="g336"><g
           id="g342"><g
             id="g344"><path
               id="path352"
               style="fill:url(#linearGradient346);stroke:none"
               d="m 70.837,168.837 9.163,0 c -0.403,4.877 -4.286,8.76 -9.163,9.163 l 0,0 0,-9.163 z" /></g></g></g></g><g
       id="g354"><g
         clip-path="url(#clipPath358)"
         id="g356"><g
           id="g362"><g
             id="g364"><path
               id="path372"
               style="fill:url(#linearGradient366);stroke:none"
               d="m 60,167.163 c 0.404,-4.877 4.286,-8.759 9.163,-9.163 l 0,0 0,9.163 -9.163,0 z" /></g></g></g></g><g
       id="g374"><g
         clip-path="url(#clipPath378)"
         id="g376"><g
           id="g382"><g
             id="g384"><path
               id="path392"
               style="fill:url(#linearGradient386);stroke:none"
               d="m 70.837,167.163 0,-9.163 c 4.877,0.404 8.76,4.286 9.163,9.163 l 0,0 -9.163,0 z" /></g></g></g></g><g
       id="g394"><g
         clip-path="url(#clipPath398)"
         id="g396"><g
           transform="translate(78,168)"
           id="g402"><path
             id="path404"
             style="fill:#999999;fill-opacity:1;fill-rule:nonzero;stroke:none"
             d="m 0,0 c 0,-4.418 -3.582,-8 -8,-8 -4.418,0 -8,3.582 -8,8 0,4.418 3.582,8 8,8 4.418,0 8,-3.582 8,-8" /></g></g></g><g
       id="g406"><g
         clip-path="url(#clipPath410)"
         id="g408"><g
           id="g414"><g
             id="g416"><path
               id="path424"
               style="fill:url(#linearGradient418);stroke:none"
               d="m 172,90 c 0,-3.308 2.692,-6 6,-6 l 0,0 c 3.309,0 6,2.692 6,6 l 0,0 c 0,3.308 -2.691,6 -6,6 l 0,0 c -3.308,0 -6,-2.692 -6,-6" /></g></g></g></g><g
       id="g426"><g
         clip-path="url(#clipPath430)"
         id="g428"><g
           transform="translate(178,94)"
           id="g434"><path
             id="path436"
             style="fill:#999999;fill-opacity:1;fill-rule:nonzero;stroke:none"
             d="m 0,0 c -2.205,0 -4,-1.795 -4,-4 0,-2.205 1.795,-4 4,-4 2.205,0 4,1.795 4,4 0,2.205 -1.795,4 -4,4" /></g></g></g><g
       id="g438"><g
         clip-path="url(#clipPath442)"
         id="g440"><g
           id="g446"><g
             id="g448"><path
               id="path456"
               style="fill:url(#linearGradient450);stroke:none"
               d="m 100,208 0,-4 c 0,-2.209 -1.791,-4 -4,-4 l 0,0 -4,0 0,-152 72,0 0,152 -4,0 c -2.209,0 -4,1.791 -4,4 l 0,0 0,4 -56,0 z" /></g></g></g></g><g
       id="g458"><g
         clip-path="url(#clipPath462)"
         id="g460"><g
           id="g466"><g
             id="g468"><path
               id="path476"
               style="fill:url(#linearGradient470);stroke:none"
               d="m 100,150 c 0,-1.105 0.895,-2 2,-2 l 0,0 c 1.105,0 2,0.895 2,2 l 0,0 c 0,1.105 -0.895,2 -2,2 l 0,0 c -1.105,0 -2,-0.895 -2,-2" /></g></g></g></g><g
       id="g478"><g
         clip-path="url(#clipPath482)"
         id="g480"><g
           id="g486"><g
             id="g488"><path
               id="path496"
               style="fill:url(#linearGradient490);stroke:none"
               d="m 100,142 c 0,-1.104 0.895,-2 2,-2 l 0,0 c 1.105,0 2,0.896 2,2 l 0,0 c 0,1.104 -0.895,2 -2,2 l 0,0 c -1.105,0 -2,-0.896 -2,-2" /></g></g></g></g><g
       id="g498"><g
         clip-path="url(#clipPath502)"
         id="g500"><g
           id="g506"><g
             id="g508"><path
               id="path516"
               style="fill:url(#linearGradient510);stroke:none"
               d="m 100,134 c 0,-1.104 0.895,-2 2,-2 l 0,0 c 1.105,0 2,0.896 2,2 l 0,0 c 0,1.104 -0.895,2 -2,2 l 0,0 c -1.105,0 -2,-0.896 -2,-2" /></g></g></g></g><g
       id="g518"><g
         clip-path="url(#clipPath522)"
         id="g520"><g
           id="g526"><g
             id="g528"><path
               id="path536"
               style="fill:url(#linearGradient530);stroke:none"
               d="m 100,126 c 0,-1.104 0.895,-2 2,-2 l 0,0 c 1.105,0 2,0.896 2,2 l 0,0 c 0,1.104 -0.895,2 -2,2 l 0,0 c -1.105,0 -2,-0.896 -2,-2" /></g></g></g></g><g
       id="g538"><g
         clip-path="url(#clipPath542)"
         id="g540"><g
           id="g546"><g
             id="g548"><path
               id="path556"
               style="fill:url(#linearGradient550);stroke:none"
               d="m 152,150 c 0,-1.105 0.896,-2 2,-2 l 0,0 c 1.104,0 2,0.895 2,2 l 0,0 c 0,1.105 -0.896,2 -2,2 l 0,0 c -1.104,0 -2,-0.895 -2,-2" /></g></g></g></g><g
       id="g558"><g
         clip-path="url(#clipPath562)"
         id="g560"><g
           id="g566"><g
             id="g568"><path
               id="path576"
               style="fill:url(#linearGradient570);stroke:none"
               d="m 152,142 c 0,-1.104 0.896,-2 2,-2 l 0,0 c 1.104,0 2,0.896 2,2 l 0,0 c 0,1.104 -0.896,2 -2,2 l 0,0 c -1.104,0 -2,-0.896 -2,-2" /></g></g></g></g><g
       id="g578"><g
         clip-path="url(#clipPath582)"
         id="g580"><g
           id="g586"><g
             id="g588"><path
               id="path596"
               style="fill:url(#linearGradient590);stroke:none"
               d="m 152,134 c 0,-1.104 0.896,-2 2,-2 l 0,0 c 1.104,0 2,0.896 2,2 l 0,0 c 0,1.104 -0.896,2 -2,2 l 0,0 c -1.104,0 -2,-0.896 -2,-2" /></g></g></g></g><g
       id="g598"><g
         clip-path="url(#clipPath602)"
         id="g600"><g
           id="g606"><g
             id="g608"><path
               id="path616"
               style="fill:url(#linearGradient610);stroke:none"
               d="m 152,126 c 0,-1.104 0.896,-2 2,-2 l 0,0 c 1.104,0 2,0.896 2,2 l 0,0 c 0,1.104 -0.896,2 -2,2 l 0,0 c -1.104,0 -2,-0.896 -2,-2" /></g></g></g></g></g></svg>