<?xml version="1.0" encoding="UTF-8" standalone="no"?>
<svg
   xmlns:dc="http://purl.org/dc/elements/1.1/"
   xmlns:cc="http://creativecommons.org/ns#"
   xmlns:rdf="http://www.w3.org/1999/02/22-rdf-syntax-ns#"
   xmlns:svg="http://www.w3.org/2000/svg"
   xmlns="http://www.w3.org/2000/svg"
   viewBox="0 0 320 320"
   height="320"
   width="320"
   xml:space="preserve"
   version="1.1"
   id="svg2"><metadata
     id="metadata8"><rdf:RDF><cc:Work
         rdf:about=""><dc:format>image/svg+xml</dc:format><dc:type
           rdf:resource="http://purl.org/dc/dcmitype/StillImage" /></cc:Work></rdf:RDF></metadata><defs
     id="defs6"><clipPath
       id="clipPath16"
       clipPathUnits="userSpaceOnUse"><path
         id="path18"
         d="m 82.165,128 c 0,-25.26 20.565,-45.838 45.838,-45.838 l 0,0 c 25.247,0 45.832,20.578 45.832,45.838 l 0,0 c 0,25.26 -20.585,45.838 -45.832,45.838 l 0,0 C 102.73,173.838 82.165,153.26 82.165,128 m 31.328,0 c 0,8.004 6.515,14.51 14.51,14.51 l 0,0 c 7.999,0 14.499,-6.506 14.499,-14.51 l 0,0 c 0,-7.999 -6.5,-14.5 -14.499,-14.5 l 0,0 c -7.995,0 -14.51,6.501 -14.51,14.5" /></clipPath><linearGradient
       id="linearGradient24"
       spreadMethod="pad"
       gradientTransform="matrix(-64.781296,64.781296,64.781296,64.781296,160.38741,95.609352)"
       gradientUnits="userSpaceOnUse"
       y2="0"
       x2="1"
       y1="0"
       x1="0"><stop
         id="stop26"
         offset="0"
         style="stop-opacity:1;stop-color:#e6e7e8" /><stop
         id="stop28"
         offset="1"
         style="stop-opacity:1;stop-color:#d1d3d4" /></linearGradient><clipPath
       id="clipPath36"
       clipPathUnits="userSpaceOnUse"><path
         id="path38"
         d="M 12,128 C 12,63.934 63.93,12 128,12 l 0,0 c 64.051,0 116,51.934 116,116 l 0,0 c 0,64.066 -51.949,116 -116,116 l 0,0 C 63.93,244 12,192.066 12,128 m 72.495,0 c 0,23.988 19.513,43.505 43.505,43.505 l 0,0 c 23.988,0 43.5,-19.517 43.5,-43.505 l 0,0 c 0,-23.988 -19.512,-43.505 -43.5,-43.505 l 0,0 c -23.992,0 -43.505,19.517 -43.505,43.505" /></clipPath><linearGradient
       id="linearGradient44"
       spreadMethod="pad"
       gradientTransform="matrix(164.04756,-164.04756,-164.04756,-164.04756,45.972565,210.02379)"
       gradientUnits="userSpaceOnUse"
       y2="0"
       x2="1"
       y1="0"
       x1="0"><stop
         id="stop46"
         offset="0"
         style="stop-opacity:1;stop-color:#e6e7e8" /><stop
         id="stop48"
         offset="1"
         style="stop-opacity:1;stop-color:#d1d3d4" /></linearGradient></defs><g
     transform="matrix(1.25,0,0,-1.25,0,320)"
     id="g10"><g
       id="g12"><g
         clip-path="url(#clipPath16)"
         id="g14"><g
           id="g20"><g
             id="g22"><path
               id="path30"
               style="fill:url(#linearGradient24);stroke:none"
               d="m 82.165,128 c 0,-25.26 20.565,-45.838 45.838,-45.838 l 0,0 c 25.247,0 45.832,20.578 45.832,45.838 l 0,0 c 0,25.26 -20.585,45.838 -45.832,45.838 l 0,0 C 102.73,173.838 82.165,153.26 82.165,128 m 31.328,0 c 0,8.004 6.515,14.51 14.51,14.51 l 0,0 c 7.999,0 14.499,-6.506 14.499,-14.51 l 0,0 c 0,-7.999 -6.5,-14.5 -14.499,-14.5 l 0,0 c -7.995,0 -14.51,6.501 -14.51,14.5" /></g></g></g></g><g
       id="g32"><g
         clip-path="url(#clipPath36)"
         id="g34"><g
           id="g40"><g
             id="g42"><path
               id="path50"
               style="fill:url(#linearGradient44);stroke:none"
               d="M 12,128 C 12,63.934 63.93,12 128,12 l 0,0 c 64.051,0 116,51.934 116,116 l 0,0 c 0,64.066 -51.949,116 -116,116 l 0,0 C 63.93,244 12,192.066 12,128 m 72.495,0 c 0,23.988 19.513,43.505 43.505,43.505 l 0,0 c 23.988,0 43.5,-19.517 43.5,-43.505 l 0,0 c 0,-23.988 -19.512,-43.505 -43.5,-43.505 l 0,0 c -23.992,0 -43.505,19.517 -43.505,43.505" /></g></g></g></g></g></svg>