<?xml version="1.0" encoding="UTF-8" standalone="no"?>
<svg
   xmlns:dc="http://purl.org/dc/elements/1.1/"
   xmlns:cc="http://creativecommons.org/ns#"
   xmlns:rdf="http://www.w3.org/1999/02/22-rdf-syntax-ns#"
   xmlns:svg="http://www.w3.org/2000/svg"
   xmlns="http://www.w3.org/2000/svg"
   viewBox="0 0 320 320"
   height="320"
   width="320"
   xml:space="preserve"
   version="1.1"
   id="svg2"><metadata
     id="metadata8"><rdf:RDF><cc:Work
         rdf:about=""><dc:format>image/svg+xml</dc:format><dc:type
           rdf:resource="http://purl.org/dc/dcmitype/StillImage" /></cc:Work></rdf:RDF></metadata><defs
     id="defs6"><clipPath
       id="clipPath16"
       clipPathUnits="userSpaceOnUse"><path
         id="path18"
         d="m 14,212 c -1.105,0 -2,-0.895 -2,-2 l 0,0 0,-10 c 1.105,0 2,-0.896 2,-2 l 0,0 c 0,-1.104 -0.895,-2 -2,-2 l 0,0 0,-4 c 1.105,0 2,-0.896 2,-2 l 0,0 c 0,-1.104 -0.895,-2 -2,-2 l 0,0 0,-4 c 1.105,0 2,-0.895 2,-2 l 0,0 c 0,-1.105 -0.895,-2 -2,-2 l 0,0 0,-4 c 1.105,0 2,-0.895 2,-2 l 0,0 c 0,-1.105 -0.895,-2 -2,-2 l 0,0 0,-4 c 1.105,0 2,-0.895 2,-2 l 0,0 c 0,-1.105 -0.895,-2 -2,-2 l 0,0 0,-120 c 0,-2.209 1.791,-4 4,-4 l 0,0 224,0 c 2.209,0 4,1.791 4,4 l 0,0 0,120 c -1.104,0 -2,0.895 -2,2 l 0,0 c 0,1.105 0.896,2 2,2 l 0,0 0,4 c -1.104,0 -2,0.895 -2,2 l 0,0 c 0,1.105 0.896,2 2,2 l 0,0 0,4 c -1.104,0 -2,0.895 -2,2 l 0,0 c 0,1.105 0.896,2 2,2 l 0,0 0,4 c -1.104,0 -2,0.896 -2,2 l 0,0 c 0,1.104 0.896,2 2,2 l 0,0 0,4 c -1.104,0 -2,0.896 -2,2 l 0,0 c 0,1.104 0.896,2 2,2 l 0,0 0,10 c 0,1.105 -0.896,2 -2,2 l 0,0 -228,0 z" /></clipPath><linearGradient
       id="linearGradient24"
       spreadMethod="pad"
       gradientTransform="matrix(200.24263,-200.24263,-200.24263,-200.24263,27.878679,226.70711)"
       gradientUnits="userSpaceOnUse"
       y2="0"
       x2="1"
       y1="0"
       x1="0"><stop
         id="stop26"
         offset="0"
         style="stop-opacity:1;stop-color:#e6e7e8" /><stop
         id="stop28"
         offset="1"
         style="stop-opacity:1;stop-color:#d1d3d4" /></linearGradient><clipPath
       id="clipPath36"
       clipPathUnits="userSpaceOnUse"><path
         id="path38"
         d="M 0,256 256,256 256,0 0,0 0,256 Z" /></clipPath><clipPath
       id="clipPath52"
       clipPathUnits="userSpaceOnUse"><path
         id="path54"
         d="m 66,104 c -3.3,0 -6,-2.7 -6,-6 l 0,0 c 0,-3.3 2.7,-6 6,-6 l 0,0 124,0 c 3.3,0 6,2.7 6,6 l 0,0 c 0,3.3 -2.7,6 -6,6 l 0,0 -124,0 z" /></clipPath><linearGradient
       id="linearGradient60"
       spreadMethod="pad"
       gradientTransform="matrix(0,12,12,0,128,92)"
       gradientUnits="userSpaceOnUse"
       y2="0"
       x2="1"
       y1="0"
       x1="0"><stop
         id="stop62"
         offset="0"
         style="stop-opacity:1;stop-color:#e6e7e8" /><stop
         id="stop64"
         offset="1"
         style="stop-opacity:1;stop-color:#d1d3d4" /></linearGradient><clipPath
       id="clipPath72"
       clipPathUnits="userSpaceOnUse"><path
         id="path74"
         d="M 0,256 256,256 256,0 0,0 0,256 Z" /></clipPath><clipPath
       id="clipPath90"
       clipPathUnits="userSpaceOnUse"><path
         id="path92"
         d="m 26,52 c 0,-2.209 1.791,-4 4,-4 l 0,0 c 2.209,0 4,1.791 4,4 l 0,0 c 0,2.209 -1.791,4 -4,4 l 0,0 c -2.209,0 -4,-1.791 -4,-4" /></clipPath><linearGradient
       id="linearGradient98"
       spreadMethod="pad"
       gradientTransform="matrix(5.6568542,-5.6568542,-5.6568542,-5.6568542,27.171574,54.828426)"
       gradientUnits="userSpaceOnUse"
       y2="0"
       x2="1"
       y1="0"
       x1="0"><stop
         id="stop100"
         offset="0"
         style="stop-opacity:1;stop-color:#e6e7e8" /><stop
         id="stop102"
         offset="1"
         style="stop-opacity:1;stop-color:#d1d3d4" /></linearGradient><clipPath
       id="clipPath110"
       clipPathUnits="userSpaceOnUse"><path
         id="path112"
         d="M 0,256 256,256 256,0 0,0 0,256 Z" /></clipPath><clipPath
       id="clipPath122"
       clipPathUnits="userSpaceOnUse"><path
         id="path124"
         d="m 222,52 c 0,-2.209 1.791,-4 4,-4 l 0,0 c 2.209,0 4,1.791 4,4 l 0,0 c 0,2.209 -1.791,4 -4,4 l 0,0 c -2.209,0 -4,-1.791 -4,-4" /></clipPath><linearGradient
       id="linearGradient130"
       spreadMethod="pad"
       gradientTransform="matrix(5.6568542,-5.6568542,-5.6568542,-5.6568542,223.17157,54.828426)"
       gradientUnits="userSpaceOnUse"
       y2="0"
       x2="1"
       y1="0"
       x1="0"><stop
         id="stop132"
         offset="0"
         style="stop-opacity:1;stop-color:#e6e7e8" /><stop
         id="stop134"
         offset="1"
         style="stop-opacity:1;stop-color:#d1d3d4" /></linearGradient><clipPath
       id="clipPath142"
       clipPathUnits="userSpaceOnUse"><path
         id="path144"
         d="M 0,256 256,256 256,0 0,0 0,256 Z" /></clipPath></defs><g
     transform="matrix(1.25,0,0,-1.25,0,320)"
     id="g10"><g
       id="g12"><g
         clip-path="url(#clipPath16)"
         id="g14"><g
           id="g20"><g
             id="g22"><path
               id="path30"
               style="fill:url(#linearGradient24);stroke:none"
               d="m 14,212 c -1.105,0 -2,-0.895 -2,-2 l 0,0 0,-10 c 1.105,0 2,-0.896 2,-2 l 0,0 c 0,-1.104 -0.895,-2 -2,-2 l 0,0 0,-4 c 1.105,0 2,-0.896 2,-2 l 0,0 c 0,-1.104 -0.895,-2 -2,-2 l 0,0 0,-4 c 1.105,0 2,-0.895 2,-2 l 0,0 c 0,-1.105 -0.895,-2 -2,-2 l 0,0 0,-4 c 1.105,0 2,-0.895 2,-2 l 0,0 c 0,-1.105 -0.895,-2 -2,-2 l 0,0 0,-4 c 1.105,0 2,-0.895 2,-2 l 0,0 c 0,-1.105 -0.895,-2 -2,-2 l 0,0 0,-120 c 0,-2.209 1.791,-4 4,-4 l 0,0 224,0 c 2.209,0 4,1.791 4,4 l 0,0 0,120 c -1.104,0 -2,0.895 -2,2 l 0,0 c 0,1.105 0.896,2 2,2 l 0,0 0,4 c -1.104,0 -2,0.895 -2,2 l 0,0 c 0,1.105 0.896,2 2,2 l 0,0 0,4 c -1.104,0 -2,0.895 -2,2 l 0,0 c 0,1.105 0.896,2 2,2 l 0,0 0,4 c -1.104,0 -2,0.896 -2,2 l 0,0 c 0,1.104 0.896,2 2,2 l 0,0 0,4 c -1.104,0 -2,0.896 -2,2 l 0,0 c 0,1.104 0.896,2 2,2 l 0,0 0,10 c 0,1.105 -0.896,2 -2,2 l 0,0 -228,0 z" /></g></g></g></g><g
       id="g32"><g
         clip-path="url(#clipPath36)"
         id="g34"><path
           id="path40"
           style="fill:#949494;fill-opacity:1;fill-rule:nonzero;stroke:none"
           d="m 56,40 -2,0 0,172 2,0 0,-172 z" /><path
           id="path42"
           style="fill:#949494;fill-opacity:1;fill-rule:nonzero;stroke:none"
           d="m 202,40 -2,0 0,172 2,0 0,-172 z" /><g
           transform="translate(209.7776,202)"
           id="g44"><path
             id="path46"
             style="fill:#ffffff;fill-opacity:1;fill-rule:nonzero;stroke:none"
             d="m 0,0 -163.555,0 c -7.099,0 -10.223,-2.926 -10.223,-9.578 l 0,-52.844 c 0,-6.652 3.123,-9.578 10.223,-9.578 L 0,-72 c 7.099,0 10.222,2.926 10.222,9.578 l 0,52.844 C 10.222,-2.926 7.1,0 0,0" /></g></g></g><g
       id="g48"><g
         clip-path="url(#clipPath52)"
         id="g50"><g
           id="g56"><g
             id="g58"><path
               id="path66"
               style="fill:url(#linearGradient60);stroke:none"
               d="m 66,104 c -3.3,0 -6,-2.7 -6,-6 l 0,0 c 0,-3.3 2.7,-6 6,-6 l 0,0 124,0 c 3.3,0 6,2.7 6,6 l 0,0 c 0,3.3 -2.7,6 -6,6 l 0,0 -124,0 z" /></g></g></g></g><g
       id="g68"><g
         clip-path="url(#clipPath72)"
         id="g70"><path
           id="path76"
           style="fill:#949494;fill-opacity:1;fill-rule:nonzero;stroke:none"
           d="m 152,92 -48,0 0,12 48,0 0,-12 z" /><g
           transform="translate(80,202)"
           id="g78"><path
             id="path80"
             style="fill:#949494;fill-opacity:1;fill-rule:nonzero;stroke:none"
             d="M 0,0 -33.778,0 C -40.877,0 -44,-2.926 -44,-9.578 l 0,-52.844 C -44,-69.074 -40.877,-72 -33.778,-72 L 0,-72 0,0 Z" /></g><g
           transform="translate(30,58)"
           id="g82"><path
             id="path84"
             style="fill:#949494;fill-opacity:1;fill-rule:nonzero;stroke:none"
             d="m 0,0 c -3.314,0 -6,-2.686 -6,-6 0,-3.314 2.686,-6 6,-6 3.314,0 6,2.686 6,6 0,3.314 -2.686,6 -6,6" /></g></g></g><g
       id="g86"><g
         clip-path="url(#clipPath90)"
         id="g88"><g
           id="g94"><g
             id="g96"><path
               id="path104"
               style="fill:url(#linearGradient98);stroke:none"
               d="m 26,52 c 0,-2.209 1.791,-4 4,-4 l 0,0 c 2.209,0 4,1.791 4,4 l 0,0 c 0,2.209 -1.791,4 -4,4 l 0,0 c -2.209,0 -4,-1.791 -4,-4" /></g></g></g></g><g
       id="g106"><g
         clip-path="url(#clipPath110)"
         id="g108"><g
           transform="translate(226,58)"
           id="g114"><path
             id="path116"
             style="fill:#949494;fill-opacity:1;fill-rule:nonzero;stroke:none"
             d="m 0,0 c -3.314,0 -6,-2.686 -6,-6 0,-3.314 2.686,-6 6,-6 3.314,0 6,2.686 6,6 0,3.314 -2.686,6 -6,6" /></g></g></g><g
       id="g118"><g
         clip-path="url(#clipPath122)"
         id="g120"><g
           id="g126"><g
             id="g128"><path
               id="path136"
               style="fill:url(#linearGradient130);stroke:none"
               d="m 222,52 c 0,-2.209 1.791,-4 4,-4 l 0,0 c 2.209,0 4,1.791 4,4 l 0,0 c 0,2.209 -1.791,4 -4,4 l 0,0 c -2.209,0 -4,-1.791 -4,-4" /></g></g></g></g><g
       id="g138"><g
         clip-path="url(#clipPath142)"
         id="g140"><g
           transform="translate(12,200)"
           id="g146"><path
             id="path148"
             style="fill:#949494;fill-opacity:1;fill-rule:nonzero;stroke:none"
             d="M 0,0 C 1.105,0 2,-0.895 2,-2 2,-3.105 1.105,-4 0,-4 l 10,0 c 1.105,0 2,0.895 2,2 0,1.105 -0.895,2 -2,2 L 0,0 Z" /></g><g
           transform="translate(12,192)"
           id="g150"><path
             id="path152"
             style="fill:#949494;fill-opacity:1;fill-rule:nonzero;stroke:none"
             d="M 0,0 C 1.105,0 2,-0.895 2,-2 2,-3.105 1.105,-4 0,-4 l 10,0 c 1.105,0 2,0.895 2,2 0,1.105 -0.895,2 -2,2 L 0,0 Z" /></g><g
           transform="translate(12,184)"
           id="g154"><path
             id="path156"
             style="fill:#949494;fill-opacity:1;fill-rule:nonzero;stroke:none"
             d="M 0,0 C 1.105,0 2,-0.895 2,-2 2,-3.105 1.105,-4 0,-4 l 10,0 c 1.105,0 2,0.895 2,2 0,1.105 -0.895,2 -2,2 L 0,0 Z" /></g><g
           transform="translate(12,176)"
           id="g158"><path
             id="path160"
             style="fill:#949494;fill-opacity:1;fill-rule:nonzero;stroke:none"
             d="M 0,0 C 1.105,0 2,-0.895 2,-2 2,-3.105 1.105,-4 0,-4 l 10,0 c 1.105,0 2,0.895 2,2 0,1.105 -0.895,2 -2,2 L 0,0 Z" /></g><g
           transform="translate(12,168)"
           id="g162"><path
             id="path164"
             style="fill:#949494;fill-opacity:1;fill-rule:nonzero;stroke:none"
             d="M 0,0 C 1.105,0 2,-0.895 2,-2 2,-3.105 1.105,-4 0,-4 l 10,0 c 1.105,0 2,0.895 2,2 0,1.105 -0.895,2 -2,2 L 0,0 Z" /></g><g
           transform="translate(244,200)"
           id="g166"><path
             id="path168"
             style="fill:#949494;fill-opacity:1;fill-rule:nonzero;stroke:none"
             d="m 0,0 c -1.105,0 -2,-0.895 -2,-2 0,-1.105 0.895,-2 2,-2 l -10,0 c -1.105,0 -2,0.895 -2,2 0,1.105 0.895,2 2,2 L 0,0 Z" /></g><g
           transform="translate(244,192)"
           id="g170"><path
             id="path172"
             style="fill:#949494;fill-opacity:1;fill-rule:nonzero;stroke:none"
             d="m 0,0 c -1.105,0 -2,-0.895 -2,-2 0,-1.105 0.895,-2 2,-2 l -10,0 c -1.105,0 -2,0.895 -2,2 0,1.105 0.895,2 2,2 L 0,0 Z" /></g><g
           transform="translate(244,184)"
           id="g174"><path
             id="path176"
             style="fill:#949494;fill-opacity:1;fill-rule:nonzero;stroke:none"
             d="m 0,0 c -1.105,0 -2,-0.895 -2,-2 0,-1.105 0.895,-2 2,-2 l -10,0 c -1.105,0 -2,0.895 -2,2 0,1.105 0.895,2 2,2 L 0,0 Z" /></g><g
           transform="translate(244,176)"
           id="g178"><path
             id="path180"
             style="fill:#949494;fill-opacity:1;fill-rule:nonzero;stroke:none"
             d="m 0,0 c -1.105,0 -2,-0.895 -2,-2 0,-1.105 0.895,-2 2,-2 l -10,0 c -1.105,0 -2,0.895 -2,2 0,1.105 0.895,2 2,2 L 0,0 Z" /></g><g
           transform="translate(244,168)"
           id="g182"><path
             id="path184"
             style="fill:#949494;fill-opacity:1;fill-rule:nonzero;stroke:none"
             d="m 0,0 c -1.105,0 -2,-0.895 -2,-2 0,-1.105 0.895,-2 2,-2 l -10,0 c -1.105,0 -2,0.895 -2,2 0,1.105 0.895,2 2,2 L 0,0 Z" /></g></g></g></g></svg>