<?xml version="1.0" encoding="UTF-8" standalone="no"?>
<svg
   xmlns:dc="http://purl.org/dc/elements/1.1/"
   xmlns:cc="http://creativecommons.org/ns#"
   xmlns:rdf="http://www.w3.org/1999/02/22-rdf-syntax-ns#"
   xmlns:svg="http://www.w3.org/2000/svg"
   xmlns="http://www.w3.org/2000/svg"
   viewBox="0 0 320 320"
   height="320"
   width="320"
   xml:space="preserve"
   version="1.1"
   id="svg2"><metadata
     id="metadata8"><rdf:RDF><cc:Work
         rdf:about=""><dc:format>image/svg+xml</dc:format><dc:type
           rdf:resource="http://purl.org/dc/dcmitype/StillImage" /></cc:Work></rdf:RDF></metadata><defs
     id="defs6"><clipPath
       id="clipPath16"
       clipPathUnits="userSpaceOnUse"><path
         id="path18"
         d="M 0,256 256,256 256,0 0,0 0,256 Z" /></clipPath><clipPath
       id="clipPath32"
       clipPathUnits="userSpaceOnUse"><path
         id="path34"
         d="m 128,215.966 c -3.777,0.124 -89.865,2.252 -111.076,-60.232 l 0,0 c 0,0 -11.234,-77.715 0.235,-109.067 l 0,0 c 1.431,-3.909 4.09,-7.332 7.761,-9.258 l 0,0 c 4.743,-2.488 11.715,-2.847 18.517,8.907 l 0,0 c 1.85,3.198 2.905,6.794 3.412,10.458 l 0,0 c 1.871,13.532 7.319,49.993 12.024,52.579 l 0,0 c 0,0 24.78,35.535 69.127,34.598 l 0,0 c 44.347,0.937 69.127,-34.598 69.127,-34.598 l 0,0 c 4.704,-2.586 10.153,-39.047 12.025,-52.579 l 0,0 c 0.507,-3.664 1.561,-7.26 3.412,-10.458 l 0,0 c 6.801,-11.754 13.773,-11.395 18.515,-8.907 l 0,0 c 3.672,1.926 6.332,5.349 7.761,9.258 l 0,0 c 11.471,31.352 0.236,109.067 0.236,109.067 l 0,0 C 219.621,213.047 145.58,216 130.543,216 l 0,0 c -1.357,0 -2.231,-0.024 -2.543,-0.034" /></clipPath><linearGradient
       id="linearGradient40"
       spreadMethod="pad"
       gradientTransform="matrix(172.1982,-172.1982,-172.1982,-172.1982,41.900898,191.68018)"
       gradientUnits="userSpaceOnUse"
       y2="0"
       x2="1"
       y1="0"
       x1="0"><stop
         id="stop42"
         offset="0"
         style="stop-opacity:1;stop-color:#e6e7e8" /><stop
         id="stop44"
         offset="1"
         style="stop-opacity:1;stop-color:#d1d3d4" /></linearGradient><clipPath
       id="clipPath52"
       clipPathUnits="userSpaceOnUse"><path
         id="path54"
         d="m 202.041,203.998 c -21.598,-0.226 -39.169,-16.841 -40.928,-37.853 l 0,0 -0.004,0 c 0.001,-0.019 -0.001,-0.038 0.001,-0.057 l 0,0 c -0.105,-1.273 -0.162,-2.559 -0.149,-3.86 l 0,0 c 0.002,-0.364 0.028,-0.716 0.04,-1.077 l 0,0 c -0.809,-14.79 -5.879,-22.527 -9.29,-26.105 l 0,0 c -1.102,-0.797 -2.142,-1.669 -3.114,-2.611 l 0,0 c -0.015,-0.008 -0.028,-0.014 -0.028,-0.014 l 0,0 0.008,-0.003 c -5.36,-5.199 -8.66,-12.477 -8.576,-20.507 l 0,0 c 0.165,-15.578 12.98,-28.072 28.627,-27.91 l 0,0 c 11.432,0.118 21.204,6.969 25.577,16.724 l 0,0 0.008,-0.005 c 0.057,0.142 0.118,0.274 0.173,0.408 l 0,0 c 0.074,0.181 0.152,0.357 0.228,0.536 l 0,0 c 5.851,13.816 14.298,19.175 18.979,21.162 l 0,0 c 1.166,0.323 2.314,0.688 3.444,1.11 l 0,0 0.01,-0.001 -0.005,0.001 c 15.898,5.931 27.145,21.277 26.955,39.162 l 0,0 c -0.239,22.684 -18.781,40.904 -41.511,40.902 l 0,0 c -0.147,0 -0.298,-0.001 -0.445,-0.002" /></clipPath><linearGradient
       id="linearGradient60"
       spreadMethod="pad"
       gradientTransform="matrix(-58.586395,58.586395,58.586395,58.586395,215.27594,116.86922)"
       gradientUnits="userSpaceOnUse"
       y2="0"
       x2="1"
       y1="0"
       x1="0"><stop
         id="stop62"
         offset="0"
         style="stop-opacity:1;stop-color:#e6e7e8" /><stop
         id="stop64"
         offset="1"
         style="stop-opacity:1;stop-color:#d1d3d4" /></linearGradient><clipPath
       id="clipPath72"
       clipPathUnits="userSpaceOnUse"><path
         id="path74"
         d="M 0,256 256,256 256,0 0,0 0,256 Z" /></clipPath><clipPath
       id="clipPath84"
       clipPathUnits="userSpaceOnUse"><path
         id="path86"
         d="M 16.002,163.098 C 15.813,145.213 27.06,129.867 42.958,123.936 l 0,0 -0.005,-0.001 0.01,0.001 c 1.129,-0.422 2.278,-0.787 3.444,-1.11 l 0,0 c 4.682,-1.987 13.128,-7.346 18.979,-21.162 l 0,0 c 0.076,-0.179 0.154,-0.355 0.228,-0.536 l 0,0 c 0.055,-0.134 0.116,-0.266 0.173,-0.408 l 0,0 0.008,0.005 C 70.168,90.97 79.94,84.119 91.372,84.001 l 0,0 c 15.647,-0.162 28.462,12.332 28.627,27.91 l 0,0 c 0.084,8.03 -3.217,15.308 -8.576,20.507 l 0,0 0.008,0.003 c 0,0 -0.013,0.006 -0.028,0.014 l 0,0 c -0.972,0.942 -2.012,1.814 -3.114,2.611 l 0,0 c -3.411,3.578 -8.481,11.315 -9.291,26.105 l 0,0 c 0.013,0.361 0.039,0.713 0.041,1.077 l 0,0 c 0.013,1.301 -0.044,2.587 -0.149,3.86 l 0,0 c 0.002,0.019 0,0.038 0.001,0.057 l 0,0 -0.004,0 c -1.759,21.012 -19.33,37.627 -40.928,37.853 l 0,0 C 57.812,203.999 57.661,204 57.515,204 l 0,0 C 34.784,204.002 16.243,185.782 16.002,163.098" /></clipPath><linearGradient
       id="linearGradient92"
       spreadMethod="pad"
       gradientTransform="matrix(-91.586449,91.586449,91.586449,91.586449,119.81047,100.36919)"
       gradientUnits="userSpaceOnUse"
       y2="0"
       x2="1"
       y1="0"
       x1="0"><stop
         id="stop94"
         offset="0"
         style="stop-opacity:1;stop-color:#e6e7e8" /><stop
         id="stop96"
         offset="1"
         style="stop-opacity:1;stop-color:#d1d3d4" /></linearGradient><clipPath
       id="clipPath104"
       clipPathUnits="userSpaceOnUse"><path
         id="path106"
         d="m 176,161.999 c -0.001,-14.358 11.641,-26 25.999,-25.999 l 0,0 C 216.357,136.001 228,147.642 228,162.001 l 0,0 c 0,14.358 -11.644,25.998 -25.999,25.999 l 0,0 C 187.641,188.001 176,176.359 176,161.999" /></clipPath><linearGradient
       id="linearGradient112"
       spreadMethod="pad"
       gradientTransform="matrix(36.768539,-36.768539,-36.768539,-36.768539,183.61453,180.38426)"
       gradientUnits="userSpaceOnUse"
       y2="0"
       x2="1"
       y1="0"
       x1="0"><stop
         id="stop114"
         offset="0"
         style="stop-opacity:1;stop-color:#e6e7e8" /><stop
         id="stop116"
         offset="1"
         style="stop-opacity:1;stop-color:#d1d3d4" /></linearGradient><clipPath
       id="clipPath124"
       clipPathUnits="userSpaceOnUse"><path
         id="path126"
         d="m 188,162 c 0,-7.719 6.28,-14 14,-14 l 0,0 c 7.72,0 14,6.281 14,14 l 0,0 c 0,7.719 -6.28,14 -14,14 l 0,0 c -7.72,0 -14,-6.281 -14,-14" /></clipPath><linearGradient
       id="linearGradient132"
       spreadMethod="pad"
       gradientTransform="matrix(-19.78972,19.78972,19.78972,19.78972,211.89485,152.10513)"
       gradientUnits="userSpaceOnUse"
       y2="0"
       x2="1"
       y1="0"
       x1="0"><stop
         id="stop134"
         offset="0"
         style="stop-opacity:1;stop-color:#e6e7e8" /><stop
         id="stop136"
         offset="1"
         style="stop-opacity:1;stop-color:#d1d3d4" /></linearGradient><clipPath
       id="clipPath144"
       clipPathUnits="userSpaceOnUse"><path
         id="path146"
         d="M 0,256 256,256 256,0 0,0 0,256 Z" /></clipPath><clipPath
       id="clipPath156"
       clipPathUnits="userSpaceOnUse"><path
         id="path158"
         d="m 166,148 c 0,-5.514 4.486,-10 10,-10 l 0,0 c 5.514,0 10,4.486 10,10 l 0,0 c 0,5.514 -4.486,10 -10,10 l 0,0 c -5.514,0 -10,-4.486 -10,-10" /></clipPath><linearGradient
       id="linearGradient164"
       spreadMethod="pad"
       gradientTransform="matrix(-14.135496,14.135496,14.135496,14.135496,183.06775,140.93225)"
       gradientUnits="userSpaceOnUse"
       y2="0"
       x2="1"
       y1="0"
       x1="0"><stop
         id="stop166"
         offset="0"
         style="stop-opacity:1;stop-color:#e6e7e8" /><stop
         id="stop168"
         offset="1"
         style="stop-opacity:1;stop-color:#d1d3d4" /></linearGradient><clipPath
       id="clipPath176"
       clipPathUnits="userSpaceOnUse"><path
         id="path178"
         d="M 0,256 256,256 256,0 0,0 0,256 Z" /></clipPath><clipPath
       id="clipPath192"
       clipPathUnits="userSpaceOnUse"><path
         id="path194"
         d="m 195.577,192.25 c -2.02,-0.245 -4.045,-0.78 -6.018,-1.59 l 0,0 c -6.108,-2.507 -8.175,-5.997 -8.862,-7.856 l 0,0 -0.111,-0.325 c -0.135,-0.429 -0.19,-0.727 -0.19,-0.727 l 0,0 -0.137,-0.737 0.104,-0.059 c -0.025,-0.205 -0.034,-0.43 -0.004,-0.671 l 0,0 c 0.395,-3.259 3.746,-5.543 7.47,-5.092 l 0,0 c 0.914,0.112 1.788,0.381 2.597,0.801 l 0,0 c 4.221,3.029 8.127,3.867 10.095,4.105 l 0,0 c 0.609,0.074 0.975,0.082 1.018,0.082 l 0,0 c 0.007,10e-4 0.014,0.002 0.021,0.003 l 0,0 c 3.885,0.47 6.583,3.484 6.188,6.737 l 0,0 c -0.19,1.568 -1.116,2.954 -2.583,3.906 l 0,0 0.032,0.138 -0.934,0.447 c 0,0 -0.357,0.137 -0.919,0.301 l 0,0 c -0.237,0.071 -0.475,0.135 -0.734,0.184 l 0,0 c -1.034,0.252 -2.57,0.509 -4.463,0.509 l 0,0 c -0.797,0 -1.657,-0.045 -2.57,-0.156 m -13.9,-11.805 c -0.046,0.379 0.064,0.734 0.117,1.099 l 0,0 -0.091,0.053 c 0,0 0.048,0.248 0.162,0.612 l 0,0 c 0.028,0.091 0.056,0.178 0.091,0.268 l 0,0 c 0.568,1.535 2.398,4.778 8.132,7.131 l 0,0 c 2.036,0.836 3.934,1.283 5.63,1.488 l 0,0 c 2.899,0.352 5.203,-0.005 6.573,-0.337 l 0,0 c 0.209,-0.04 0.4,-0.092 0.6,-0.153 l 0,0 c 0.496,-0.144 0.813,-0.265 0.813,-0.265 l 0,0 -0.02,-0.082 c 1.457,-0.702 2.556,-1.919 2.746,-3.497 l 0,0 c 0.319,-2.628 -1.857,-5.053 -4.859,-5.417 l 0,0 c 0,0 -0.435,-0.001 -1.19,-0.093 l 0,0 c -2.001,-0.242 -6.248,-1.116 -10.598,-4.262 l 0,0 -0.004,0.001 c -0.627,-0.326 -1.33,-0.552 -2.089,-0.644 l 0,0 c -0.255,-0.031 -0.509,-0.046 -0.758,-0.046 l 0,0 c -2.685,0 -4.964,1.741 -5.255,4.144" /></clipPath><linearGradient
       id="linearGradient200"
       spreadMethod="pad"
       gradientTransform="matrix(-13.578525,13.578525,13.578525,13.578525,200.6884,176.92856)"
       gradientUnits="userSpaceOnUse"
       y2="0"
       x2="1"
       y1="0"
       x1="0"><stop
         id="stop202"
         offset="0"
         style="stop-opacity:1;stop-color:#e6e7e8" /><stop
         id="stop204"
         offset="1"
         style="stop-opacity:1;stop-color:#d1d3d4" /></linearGradient><clipPath
       id="clipPath212"
       clipPathUnits="userSpaceOnUse"><path
         id="path214"
         d="M 0,256 256,256 256,0 0,0 0,256 Z" /></clipPath><clipPath
       id="clipPath224"
       clipPathUnits="userSpaceOnUse"><path
         id="path226"
         d="m 221.493,183.891 c -0.207,0.012 -0.433,0.009 -0.673,-0.035 l 0,0 c -3.25,-0.59 -5.358,-4.164 -4.699,-7.965 l 0,0 c 0.162,-0.934 0.48,-1.817 0.946,-2.624 l 0,0 c 3.275,-4.166 4.33,-8.132 4.679,-10.142 l 0,0 c 0.108,-0.622 0.136,-0.998 0.138,-1.041 l 0,0 c 0.001,-0.008 0.003,-0.016 0.004,-0.022 l 0,0 c 0.687,-3.966 3.862,-6.568 7.105,-5.979 l 0,0 c 1.563,0.284 2.903,1.314 3.778,2.877 l 0,0 0.14,-0.026 0.397,0.984 c 0,0 0.118,0.376 0.252,0.962 l 0,0 c 0.058,0.248 0.109,0.496 0.144,0.765 l 0,0 c 0.279,1.529 0.51,4.103 -0.034,7.247 l 0,0 c -0.358,2.063 -1.007,4.114 -1.928,6.096 l 0,0 c -2.854,6.135 -6.472,8.062 -8.375,8.664 l 0,0 -0.334,0.095 c -0.438,0.115 -0.739,0.154 -0.739,0.154 l 0,0 -0.747,0.099 -0.054,-0.109 z m 0.716,-1.341 c 0,0 0.252,-0.035 0.624,-0.133 l 0,0 c 0.093,-0.023 0.182,-0.047 0.274,-0.077 l 0,0 c 1.573,-0.499 4.929,-2.195 7.608,-7.955 l 0,0 c 0.951,-2.045 1.505,-3.971 1.805,-5.702 l 0,0 c 0.513,-2.96 0.282,-5.347 0.024,-6.775 l 0,0 c -0.029,-0.217 -0.07,-0.416 -0.12,-0.624 l 0,0 c -0.118,-0.519 -0.221,-0.851 -0.221,-0.851 l 0,0 -0.084,0.015 c -0.624,-1.537 -1.786,-2.734 -3.359,-3.019 l 0,0 c -2.62,-0.476 -5.174,1.623 -5.705,4.687 l 0,0 c 0,0 -0.026,0.447 -0.159,1.218 l 0,0 c -0.355,2.043 -1.466,6.358 -4.865,10.651 l 0,0 0.002,0.004 c -0.362,0.625 -0.628,1.335 -0.762,2.11 l 0,0 c -0.531,3.066 1.162,5.936 3.782,6.412 l 0,0 c 0.378,0.068 0.74,-0.024 1.109,-0.059 l 0,0 0.047,0.098 z" /></clipPath><linearGradient
       id="linearGradient232"
       spreadMethod="pad"
       gradientTransform="matrix(-19.265648,19.265648,19.265648,19.265648,234.69363,160.52582)"
       gradientUnits="userSpaceOnUse"
       y2="0"
       x2="1"
       y1="0"
       x1="0"><stop
         id="stop234"
         offset="0"
         style="stop-opacity:1;stop-color:#e6e7e8" /><stop
         id="stop236"
         offset="1"
         style="stop-opacity:1;stop-color:#d1d3d4" /></linearGradient><clipPath
       id="clipPath244"
       clipPathUnits="userSpaceOnUse"><path
         id="path246"
         d="m 150,112.005 c 0.001,-9.944 8.059,-18.004 17.998,-18.005 l 0,0 C 177.943,93.999 186,102.063 186,112.002 l 0,0 c 0.001,9.935 -8.057,17.995 -18.002,17.998 l 0,0 C 158.059,129.997 150.001,121.937 150,112.005" /></clipPath><linearGradient
       id="linearGradient252"
       spreadMethod="pad"
       gradientTransform="matrix(25.454683,-25.454683,-25.454683,-25.454683,155.27339,124.7271)"
       gradientUnits="userSpaceOnUse"
       y2="0"
       x2="1"
       y1="0"
       x1="0"><stop
         id="stop254"
         offset="0"
         style="stop-opacity:1;stop-color:#e6e7e8" /><stop
         id="stop256"
         offset="1"
         style="stop-opacity:1;stop-color:#d1d3d4" /></linearGradient><clipPath
       id="clipPath264"
       clipPathUnits="userSpaceOnUse"><path
         id="path266"
         d="m 158,112 c 0.001,-5.52 4.476,-10.003 9.999,-10 l 0,0 c 5.521,-0.003 10.005,4.478 10.001,10.001 l 0,0 c 0.004,5.519 -4.479,9.998 -10,9.999 l 0,0 c -5.525,-0.001 -10,-4.477 -10,-10" /></clipPath><linearGradient
       id="linearGradient272"
       spreadMethod="pad"
       gradientTransform="matrix(-14.142719,14.142719,14.142719,14.142719,175.07141,104.92818)"
       gradientUnits="userSpaceOnUse"
       y2="0"
       x2="1"
       y1="0"
       x1="0"><stop
         id="stop274"
         offset="0"
         style="stop-opacity:1;stop-color:#e6e7e8" /><stop
         id="stop276"
         offset="1"
         style="stop-opacity:1;stop-color:#d1d3d4" /></linearGradient><clipPath
       id="clipPath284"
       clipPathUnits="userSpaceOnUse"><path
         id="path286"
         d="m 32,161.999 c -0.001,-14.358 11.641,-26 25.999,-25.999 l 0,0 C 72.357,136.001 84,147.642 84,162.001 l 0,0 C 84,176.359 72.356,187.999 58.001,188 l 0,0 C 43.641,188.001 32,176.359 32,161.999" /></clipPath><linearGradient
       id="linearGradient292"
       spreadMethod="pad"
       gradientTransform="matrix(36.768539,-36.768539,-36.768539,-36.768539,39.614525,180.38426)"
       gradientUnits="userSpaceOnUse"
       y2="0"
       x2="1"
       y1="0"
       x1="0"><stop
         id="stop294"
         offset="0"
         style="stop-opacity:1;stop-color:#e6e7e8" /><stop
         id="stop296"
         offset="1"
         style="stop-opacity:1;stop-color:#d1d3d4" /></linearGradient><clipPath
       id="clipPath304"
       clipPathUnits="userSpaceOnUse"><path
         id="path306"
         d="M 0,256 256,256 256,0 0,0 0,256 Z" /></clipPath><clipPath
       id="clipPath320"
       clipPathUnits="userSpaceOnUse"><path
         id="path322"
         d="m 58,166 c -2.205,0.001 -3.999,-1.792 -4,-4 l 0,0 c 0,-2.206 1.796,-4 4,-4 l 0,0 c 2.207,0 4.001,1.794 4,4 l 0,0 c 10e-4,2.205 -1.794,3.999 -3.999,4 l 0,0 c 0,0 -10e-4,0 -10e-4,0 m -3,-4 c 10e-4,1.654 1.347,3 3,3 l 0,0 c 1.655,0.001 3,-1.346 3,-3 l 0,0 c 0,-1.653 -1.346,-3 -3,-3 l 0,0 c -10e-4,0 -0.002,0 -0.002,0 l 0,0 C 56.346,159 55,160.347 55,162" /></clipPath><linearGradient
       id="linearGradient328"
       spreadMethod="pad"
       gradientTransform="matrix(-5.6549721,5.6549721,5.6549721,5.6549721,60.827908,159.17278)"
       gradientUnits="userSpaceOnUse"
       y2="0"
       x2="1"
       y1="0"
       x1="0"><stop
         id="stop330"
         offset="0"
         style="stop-opacity:1;stop-color:#e6e7e8" /><stop
         id="stop332"
         offset="1"
         style="stop-opacity:1;stop-color:#d1d3d4" /></linearGradient><clipPath
       id="clipPath340"
       clipPathUnits="userSpaceOnUse"><path
         id="path342"
         d="M 50,162.001 C 50,157.59 53.589,154 58,154 l 0,0 c 4.412,-0.001 8.001,3.587 8,7.999 l 0,0 c 0,4.41 -3.588,8 -8.001,8.001 l 0,0 C 53.589,169.999 50,166.409 50,162.001 M 51.001,162 c 0,3.86 3.139,7 6.998,7 l 0,0 c 3.862,-0.001 7.003,-3.141 7.003,-7 l 0,0 c 0,-3.862 -3.142,-7 -7.001,-7 l 0,0 c -3.86,0.001 -7.001,3.139 -7,7" /></clipPath><linearGradient
       id="linearGradient348"
       spreadMethod="pad"
       gradientTransform="matrix(11.30869,-11.30869,-11.30869,-11.30869,52.34623,167.65364)"
       gradientUnits="userSpaceOnUse"
       y2="0"
       x2="1"
       y1="0"
       x1="0"><stop
         id="stop350"
         offset="0"
         style="stop-opacity:1;stop-color:#e6e7e8" /><stop
         id="stop352"
         offset="1"
         style="stop-opacity:1;stop-color:#d1d3d4" /></linearGradient><clipPath
       id="clipPath360"
       clipPathUnits="userSpaceOnUse"><path
         id="path362"
         d="M 46,162.002 C 46,155.383 51.384,150 57.999,150 l 0,0 C 64.616,149.999 70,155.382 70,162 l 0,0 c 0.001,6.617 -5.384,11.999 -12.001,12 l 0,0 C 51.384,174 46,168.617 46,162.002 m 0.999,-0.003 c 0,6.068 4.934,11.001 11.001,11 l 0,0 c 6.065,0.002 11,-4.932 10.999,-10.998 l 0,0 c 0,-6.066 -4.934,-11.001 -11,-11.002 l 0,0 c -6.065,0 -11,4.936 -11,11" /></clipPath><linearGradient
       id="linearGradient368"
       spreadMethod="pad"
       gradientTransform="matrix(-16.962822,16.962822,16.962822,16.962822,66.481316,153.51849)"
       gradientUnits="userSpaceOnUse"
       y2="0"
       x2="1"
       y1="0"
       x1="0"><stop
         id="stop370"
         offset="0"
         style="stop-opacity:1;stop-color:#e6e7e8" /><stop
         id="stop372"
         offset="1"
         style="stop-opacity:1;stop-color:#d1d3d4" /></linearGradient><clipPath
       id="clipPath380"
       clipPathUnits="userSpaceOnUse"><path
         id="path382"
         d="m 121,158 c 0,-3.86 3.141,-7 7,-7 l 0,0 c 3.86,0 7,3.14 7,7 l 0,0 c 0,3.86 -3.14,7 -7,7 l 0,0 c -3.859,0 -7,-3.14 -7,-7" /></clipPath><linearGradient
       id="linearGradient388"
       spreadMethod="pad"
       gradientTransform="matrix(9.8948669,-9.8948669,-9.8948669,-9.8948669,123.05257,162.94745)"
       gradientUnits="userSpaceOnUse"
       y2="0"
       x2="1"
       y1="0"
       x1="0"><stop
         id="stop390"
         offset="0"
         style="stop-opacity:1;stop-color:#e6e7e8" /><stop
         id="stop392"
         offset="1"
         style="stop-opacity:1;stop-color:#d1d3d4" /></linearGradient><clipPath
       id="clipPath400"
       clipPathUnits="userSpaceOnUse"><path
         id="path402"
         d="M 0,256 256,256 256,0 0,0 0,256 Z" /></clipPath><clipPath
       id="clipPath412"
       clipPathUnits="userSpaceOnUse"><path
         id="path414"
         d="m 88,130 c -2.206,0 -4,-1.794 -4,-4 l 0,0 0,-6 -6,0 c -2.206,0 -4,-1.794 -4,-4 l 0,0 0,-8 c 0,-2.206 1.794,-4 4,-4 l 0,0 6,0 0,-6 c 0,-2.206 1.794,-4 4,-4 l 0,0 8,0 c 2.205,0 4,1.794 4,4 l 0,0 0,6 6,0 c 2.205,0 4,1.794 4,4 l 0,0 0,8 c 0,2.206 -1.795,4 -4,4 l 0,0 -6,0 0,6 c 0,2.206 -1.795,4 -4,4 l 0,0 -8,0 z" /></clipPath><linearGradient
       id="linearGradient420"
       spreadMethod="pad"
       gradientTransform="matrix(-23.654209,-23.654209,-23.654209,23.654209,103.8271,123.8271)"
       gradientUnits="userSpaceOnUse"
       y2="0"
       x2="1"
       y1="0"
       x1="0"><stop
         id="stop422"
         offset="0"
         style="stop-opacity:1;stop-color:#e6e7e8" /><stop
         id="stop424"
         offset="1"
         style="stop-opacity:1;stop-color:#d1d3d4" /></linearGradient><clipPath
       id="clipPath432"
       clipPathUnits="userSpaceOnUse"><path
         id="path434"
         d="M 0,256 256,256 256,0 0,0 0,256 Z" /></clipPath><clipPath
       id="clipPath444"
       clipPathUnits="userSpaceOnUse"><path
         id="path446"
         d="m 88,112 c 0,-2.209 1.791,-4 4,-4 l 0,0 c 2.209,0 4,1.791 4,4 l 0,0 c 0,2.209 -1.791,4 -4,4 l 0,0 c -2.209,0 -4,-1.791 -4,-4" /></clipPath><linearGradient
       id="linearGradient452"
       spreadMethod="pad"
       gradientTransform="matrix(-5.6568542,5.6568542,5.6568542,5.6568542,94.82843,109.17157)"
       gradientUnits="userSpaceOnUse"
       y2="0"
       x2="1"
       y1="0"
       x1="0"><stop
         id="stop454"
         offset="0"
         style="stop-opacity:1;stop-color:#e6e7e8" /><stop
         id="stop456"
         offset="1"
         style="stop-opacity:1;stop-color:#d1d3d4" /></linearGradient><clipPath
       id="clipPath464"
       clipPathUnits="userSpaceOnUse"><path
         id="path466"
         d="m 83.357,114.949 -5.142,-2.622 c -0.287,-0.145 -0.287,-0.509 0,-0.655 l 0,0 5.142,-2.621 c 0.286,-0.146 0.643,0.037 0.643,0.328 l 0,0 0,5.242 C 84,114.842 83.795,115 83.571,115 l 0,0 c -0.072,0 -0.145,-0.016 -0.214,-0.051" /></clipPath><linearGradient
       id="linearGradient472"
       spreadMethod="pad"
       gradientTransform="matrix(-4.4542732,4.4542732,4.4542732,4.4542732,84.537567,109.77287)"
       gradientUnits="userSpaceOnUse"
       y2="0"
       x2="1"
       y1="0"
       x1="0"><stop
         id="stop474"
         offset="0"
         style="stop-opacity:1;stop-color:#e6e7e8" /><stop
         id="stop476"
         offset="1"
         style="stop-opacity:1;stop-color:#d1d3d4" /></linearGradient><clipPath
       id="clipPath484"
       clipPathUnits="userSpaceOnUse"><path
         id="path486"
         d="m 100,114.621 0,-5.242 c 0,-0.291 0.357,-0.474 0.643,-0.328 l 0,0 5.143,2.621 c 0.285,0.146 0.285,0.51 0,0.655 l 0,0 -5.143,2.622 c -0.069,0.035 -0.142,0.051 -0.214,0.051 l 0,0 C 100.205,115 100,114.842 100,114.621" /></clipPath><linearGradient
       id="linearGradient492"
       spreadMethod="pad"
       gradientTransform="matrix(-4.4542732,4.4542732,4.4542732,4.4542732,103.91671,109.77287)"
       gradientUnits="userSpaceOnUse"
       y2="0"
       x2="1"
       y1="0"
       x1="0"><stop
         id="stop494"
         offset="0"
         style="stop-opacity:1;stop-color:#e6e7e8" /><stop
         id="stop496"
         offset="1"
         style="stop-opacity:1;stop-color:#d1d3d4" /></linearGradient><clipPath
       id="clipPath504"
       clipPathUnits="userSpaceOnUse"><path
         id="path506"
         d="m 91.672,125.786 -2.621,-5.143 C 88.906,120.357 89.087,120 89.379,120 l 0,0 5.243,0 c 0.29,0 0.472,0.357 0.327,0.643 l 0,0 -2.622,5.143 C 92.255,125.928 92.127,126 92,126 l 0,0 c -0.128,0 -0.255,-0.072 -0.328,-0.214" /></clipPath><linearGradient
       id="linearGradient512"
       spreadMethod="pad"
       gradientTransform="matrix(-4.4542732,4.4542732,4.4542732,4.4542732,94.227135,119.46243)"
       gradientUnits="userSpaceOnUse"
       y2="0"
       x2="1"
       y1="0"
       x1="0"><stop
         id="stop514"
         offset="0"
         style="stop-opacity:1;stop-color:#e6e7e8" /><stop
         id="stop516"
         offset="1"
         style="stop-opacity:1;stop-color:#d1d3d4" /></linearGradient><clipPath
       id="clipPath524"
       clipPathUnits="userSpaceOnUse"><path
         id="path526"
         d="m 89.379,104 c -0.292,0 -0.473,-0.357 -0.328,-0.643 l 0,0 2.621,-5.143 c 0.146,-0.285 0.51,-0.285 0.655,0 l 0,0 2.622,5.143 C 95.094,103.643 94.912,104 94.622,104 l 0,0 -5.243,0 z" /></clipPath><linearGradient
       id="linearGradient532"
       spreadMethod="pad"
       gradientTransform="matrix(-4.4542732,4.4542732,4.4542732,4.4542732,94.227135,100.08329)"
       gradientUnits="userSpaceOnUse"
       y2="0"
       x2="1"
       y1="0"
       x1="0"><stop
         id="stop534"
         offset="0"
         style="stop-opacity:1;stop-color:#e6e7e8" /><stop
         id="stop536"
         offset="1"
         style="stop-opacity:1;stop-color:#d1d3d4" /></linearGradient><clipPath
       id="clipPath544"
       clipPathUnits="userSpaceOnUse"><path
         id="path546"
         d="m 43,162 c 0,-8.271 6.729,-15 15,-15 l 0,0 c 8.271,0 15,6.729 15,15 l 0,0 c 0,8.271 -6.729,15 -15,15 l 0,0 c -8.271,0 -15,-6.729 -15,-15 m 1.267,0 c 0,7.584 6.149,13.732 13.733,13.732 l 0,0 c 7.584,0 13.733,-6.148 13.733,-13.732 l 0,0 c 0,-7.584 -6.149,-13.732 -13.733,-13.732 l 0,0 c -7.584,0 -13.733,6.148 -13.733,13.732" /></clipPath><linearGradient
       id="linearGradient552"
       spreadMethod="pad"
       gradientTransform="matrix(21.203278,-21.203278,-21.203278,-21.203278,47.398361,172.60164)"
       gradientUnits="userSpaceOnUse"
       y2="0"
       x2="1"
       y1="0"
       x1="0"><stop
         id="stop554"
         offset="0"
         style="stop-opacity:1;stop-color:#e6e7e8" /><stop
         id="stop556"
         offset="1"
         style="stop-opacity:1;stop-color:#d1d3d4" /></linearGradient></defs><g
     transform="matrix(1.25,0,0,-1.25,0,320)"
     id="g10"><g
       id="g12"><g
         clip-path="url(#clipPath16)"
         id="g14"><g
           transform="translate(184,207.0732)"
           id="g20"><path
             id="path22"
             style="fill:#999999;fill-opacity:1;fill-rule:nonzero;stroke:none"
             d="M 0,0 C 0,0 24.187,3.257 40.001,-11.7 L 10.499,-7.532 0,0 Z" /></g><g
           transform="translate(48,199.3176)"
           id="g24"><path
             id="path26"
             style="fill:#999999;fill-opacity:1;fill-rule:nonzero;stroke:none"
             d="M 0,0 C 0,0 4.105,11.267 24,7.059 L 14.127,0 0,0 Z" /></g></g></g><g
       id="g28"><g
         clip-path="url(#clipPath32)"
         id="g30"><g
           id="g36"><g
             id="g38"><path
               id="path46"
               style="fill:url(#linearGradient40);stroke:none"
               d="m 128,215.966 c -3.777,0.124 -89.865,2.252 -111.076,-60.232 l 0,0 c 0,0 -11.234,-77.715 0.235,-109.067 l 0,0 c 1.431,-3.909 4.09,-7.332 7.761,-9.258 l 0,0 c 4.743,-2.488 11.715,-2.847 18.517,8.907 l 0,0 c 1.85,3.198 2.905,6.794 3.412,10.458 l 0,0 c 1.871,13.532 7.319,49.993 12.024,52.579 l 0,0 c 0,0 24.78,35.535 69.127,34.598 l 0,0 c 44.347,0.937 69.127,-34.598 69.127,-34.598 l 0,0 c 4.704,-2.586 10.153,-39.047 12.025,-52.579 l 0,0 c 0.507,-3.664 1.561,-7.26 3.412,-10.458 l 0,0 c 6.801,-11.754 13.773,-11.395 18.515,-8.907 l 0,0 c 3.672,1.926 6.332,5.349 7.761,9.258 l 0,0 c 11.471,31.352 0.236,109.067 0.236,109.067 l 0,0 C 219.621,213.047 145.58,216 130.543,216 l 0,0 c -1.357,0 -2.231,-0.024 -2.543,-0.034" /></g></g></g></g><g
       id="g48"><g
         clip-path="url(#clipPath52)"
         id="g50"><g
           id="g56"><g
             id="g58"><path
               id="path66"
               style="fill:url(#linearGradient60);stroke:none"
               d="m 202.041,203.998 c -21.598,-0.226 -39.169,-16.841 -40.928,-37.853 l 0,0 -0.004,0 c 0.001,-0.019 -0.001,-0.038 0.001,-0.057 l 0,0 c -0.105,-1.273 -0.162,-2.559 -0.149,-3.86 l 0,0 c 0.002,-0.364 0.028,-0.716 0.04,-1.077 l 0,0 c -0.809,-14.79 -5.879,-22.527 -9.29,-26.105 l 0,0 c -1.102,-0.797 -2.142,-1.669 -3.114,-2.611 l 0,0 c -0.015,-0.008 -0.028,-0.014 -0.028,-0.014 l 0,0 0.008,-0.003 c -5.36,-5.199 -8.66,-12.477 -8.576,-20.507 l 0,0 c 0.165,-15.578 12.98,-28.072 28.627,-27.91 l 0,0 c 11.432,0.118 21.204,6.969 25.577,16.724 l 0,0 0.008,-0.005 c 0.057,0.142 0.118,0.274 0.173,0.408 l 0,0 c 0.074,0.181 0.152,0.357 0.228,0.536 l 0,0 c 5.851,13.816 14.298,19.175 18.979,21.162 l 0,0 c 1.166,0.323 2.314,0.688 3.444,1.11 l 0,0 0.01,-0.001 -0.005,0.001 c 15.898,5.931 27.145,21.277 26.955,39.162 l 0,0 c -0.239,22.684 -18.781,40.904 -41.511,40.902 l 0,0 c -0.147,0 -0.298,-0.001 -0.445,-0.002" /></g></g></g></g><g
       id="g68"><g
         clip-path="url(#clipPath72)"
         id="g70"><g
           transform="translate(168.8132,132.0754)"
           id="g76"><path
             id="path78"
             style="fill:#999999;fill-opacity:1;fill-rule:nonzero;stroke:none"
             d="m 0,0 -14.31,-5.755 -6.503,-13.562 5.207,-14.922 13.978,-5.761 14.959,5.083 5.856,13.56 -5.529,15.26 L 0,0 Z" /></g></g></g><g
       id="g80"><g
         clip-path="url(#clipPath84)"
         id="g82"><g
           id="g88"><g
             id="g90"><path
               id="path98"
               style="fill:url(#linearGradient92);stroke:none"
               d="M 16.002,163.098 C 15.813,145.213 27.06,129.867 42.958,123.936 l 0,0 -0.005,-0.001 0.01,0.001 c 1.129,-0.422 2.278,-0.787 3.444,-1.11 l 0,0 c 4.682,-1.987 13.128,-7.346 18.979,-21.162 l 0,0 c 0.076,-0.179 0.154,-0.355 0.228,-0.536 l 0,0 c 0.055,-0.134 0.116,-0.266 0.173,-0.408 l 0,0 0.008,0.005 C 70.168,90.97 79.94,84.119 91.372,84.001 l 0,0 c 15.647,-0.162 28.462,12.332 28.627,27.91 l 0,0 c 0.084,8.03 -3.217,15.308 -8.576,20.507 l 0,0 0.008,0.003 c 0,0 -0.013,0.006 -0.028,0.014 l 0,0 c -0.972,0.942 -2.012,1.814 -3.114,2.611 l 0,0 c -3.411,3.578 -8.481,11.315 -9.291,26.105 l 0,0 c 0.013,0.361 0.039,0.713 0.041,1.077 l 0,0 c 0.013,1.301 -0.044,2.587 -0.149,3.86 l 0,0 c 0.002,0.019 0,0.038 0.001,0.057 l 0,0 -0.004,0 c -1.759,21.012 -19.33,37.627 -40.928,37.853 l 0,0 C 57.812,203.999 57.661,204 57.515,204 l 0,0 C 34.784,204.002 16.243,185.782 16.002,163.098" /></g></g></g></g><g
       id="g100"><g
         clip-path="url(#clipPath104)"
         id="g102"><g
           id="g108"><g
             id="g110"><path
               id="path118"
               style="fill:url(#linearGradient112);stroke:none"
               d="m 176,161.999 c -0.001,-14.358 11.641,-26 25.999,-25.999 l 0,0 C 216.357,136.001 228,147.642 228,162.001 l 0,0 c 0,14.358 -11.644,25.998 -25.999,25.999 l 0,0 C 187.641,188.001 176,176.359 176,161.999" /></g></g></g></g><g
       id="g120"><g
         clip-path="url(#clipPath124)"
         id="g122"><g
           id="g128"><g
             id="g130"><path
               id="path138"
               style="fill:url(#linearGradient132);stroke:none"
               d="m 188,162 c 0,-7.719 6.28,-14 14,-14 l 0,0 c 7.72,0 14,6.281 14,14 l 0,0 c 0,7.719 -6.28,14 -14,14 l 0,0 c -7.72,0 -14,-6.281 -14,-14" /></g></g></g></g><g
       id="g140"><g
         clip-path="url(#clipPath144)"
         id="g142"><g
           transform="translate(214,162)"
           id="g148"><path
             id="path150"
             style="fill:#999999;fill-opacity:1;fill-rule:nonzero;stroke:none"
             d="m 0,0 c 0,-6.627 -5.373,-12 -12,-12 -6.627,0 -12,5.373 -12,12 0,6.627 5.373,12 12,12 C -5.373,12 0,6.627 0,0" /></g></g></g><g
       id="g152"><g
         clip-path="url(#clipPath156)"
         id="g154"><g
           id="g160"><g
             id="g162"><path
               id="path170"
               style="fill:url(#linearGradient164);stroke:none"
               d="m 166,148 c 0,-5.514 4.486,-10 10,-10 l 0,0 c 5.514,0 10,4.486 10,10 l 0,0 c 0,5.514 -4.486,10 -10,10 l 0,0 c -5.514,0 -10,-4.486 -10,-10" /></g></g></g></g><g
       id="g172"><g
         clip-path="url(#clipPath176)"
         id="g174"><g
           transform="translate(184,148)"
           id="g180"><path
             id="path182"
             style="fill:#999999;fill-opacity:1;fill-rule:nonzero;stroke:none"
             d="m 0,0 c 0,-4.418 -3.582,-8 -8,-8 -4.418,0 -8,3.582 -8,8 0,4.418 3.582,8 8,8 4.418,0 8,-3.582 8,-8" /></g><g
           transform="translate(203.6846,190.2591)"
           id="g184"><path
             id="path186"
             style="fill:#999999;fill-opacity:1;fill-rule:nonzero;stroke:none"
             d="m 0,0 0.019,0.082 c 0,0 -0.316,0.121 -0.813,0.265 -0.2,0.061 -0.391,0.113 -0.6,0.152 -2.17,0.528 -6.683,1.115 -12.203,-1.15 -5.734,-2.354 -7.563,-5.596 -8.132,-7.131 -0.035,-0.09 -0.063,-0.176 -0.091,-0.268 -0.115,-0.364 -0.162,-0.613 -0.162,-0.613 l 0.091,-0.051 c -0.053,-0.366 -0.163,-0.72 -0.117,-1.1 0.319,-2.627 3.011,-4.462 6.013,-4.098 0.759,0.092 1.463,0.319 2.089,0.644 l 0.004,-10e-4 c 5.991,4.333 11.788,4.355 11.788,4.355 3.002,0.364 5.178,2.789 4.86,5.417 C 2.555,-1.919 1.457,-0.702 0,0" /></g></g></g><g
       id="g188"><g
         clip-path="url(#clipPath192)"
         id="g190"><g
           id="g196"><g
             id="g198"><path
               id="path206"
               style="fill:url(#linearGradient200);stroke:none"
               d="m 195.577,192.25 c -2.02,-0.245 -4.045,-0.78 -6.018,-1.59 l 0,0 c -6.108,-2.507 -8.175,-5.997 -8.862,-7.856 l 0,0 -0.111,-0.325 c -0.135,-0.429 -0.19,-0.727 -0.19,-0.727 l 0,0 -0.137,-0.737 0.104,-0.059 c -0.025,-0.205 -0.034,-0.43 -0.004,-0.671 l 0,0 c 0.395,-3.259 3.746,-5.543 7.47,-5.092 l 0,0 c 0.914,0.112 1.788,0.381 2.597,0.801 l 0,0 c 4.221,3.029 8.127,3.867 10.095,4.105 l 0,0 c 0.609,0.074 0.975,0.082 1.018,0.082 l 0,0 c 0.007,10e-4 0.014,0.002 0.021,0.003 l 0,0 c 3.885,0.47 6.583,3.484 6.188,6.737 l 0,0 c -0.19,1.568 -1.116,2.954 -2.583,3.906 l 0,0 0.032,0.138 -0.934,0.447 c 0,0 -0.357,0.137 -0.919,0.301 l 0,0 c -0.237,0.071 -0.475,0.135 -0.734,0.184 l 0,0 c -1.034,0.252 -2.57,0.509 -4.463,0.509 l 0,0 c -0.797,0 -1.657,-0.045 -2.57,-0.156 m -13.9,-11.805 c -0.046,0.379 0.064,0.734 0.117,1.099 l 0,0 -0.091,0.053 c 0,0 0.048,0.248 0.162,0.612 l 0,0 c 0.028,0.091 0.056,0.178 0.091,0.268 l 0,0 c 0.568,1.535 2.398,4.778 8.132,7.131 l 0,0 c 2.036,0.836 3.934,1.283 5.63,1.488 l 0,0 c 2.899,0.352 5.203,-0.005 6.573,-0.337 l 0,0 c 0.209,-0.04 0.4,-0.092 0.6,-0.153 l 0,0 c 0.496,-0.144 0.813,-0.265 0.813,-0.265 l 0,0 -0.02,-0.082 c 1.457,-0.702 2.556,-1.919 2.746,-3.497 l 0,0 c 0.319,-2.628 -1.857,-5.053 -4.859,-5.417 l 0,0 c 0,0 -0.435,-0.001 -1.19,-0.093 l 0,0 c -2.001,-0.242 -6.248,-1.116 -10.598,-4.262 l 0,0 -0.004,0.001 c -0.627,-0.326 -1.33,-0.552 -2.089,-0.644 l 0,0 c -0.255,-0.031 -0.509,-0.046 -0.758,-0.046 l 0,0 c -2.685,0 -4.964,1.741 -5.255,4.144" /></g></g></g></g><g
       id="g208"><g
         clip-path="url(#clipPath212)"
         id="g210"><g
           transform="translate(232.1191,160.4482)"
           id="g216"><path
             id="path218"
             style="fill:#999999;fill-opacity:1;fill-rule:nonzero;stroke:none"
             d="m 0,0 0.083,-0.015 c 0,0 0.104,0.332 0.222,0.851 0.049,0.208 0.091,0.408 0.119,0.624 0.41,2.261 0.75,6.933 -1.828,12.477 -2.68,5.76 -6.035,7.457 -7.608,7.954 -0.092,0.031 -0.18,0.054 -0.274,0.078 -0.372,0.098 -0.624,0.132 -0.624,0.132 l -0.047,-0.096 c -0.369,0.033 -0.731,0.126 -1.11,0.058 -2.619,-0.476 -4.313,-3.347 -3.782,-6.412 0.135,-0.775 0.401,-1.485 0.763,-2.11 l -0.002,-0.004 C -9.407,7.625 -9.064,1.668 -9.064,1.668 -8.533,-1.397 -5.979,-3.496 -3.359,-3.02 -1.785,-2.734 -0.624,-1.537 0,0" /></g></g></g><g
       id="g220"><g
         clip-path="url(#clipPath224)"
         id="g222"><g
           id="g228"><g
             id="g230"><path
               id="path238"
               style="fill:url(#linearGradient232);stroke:none"
               d="m 221.493,183.891 c -0.207,0.012 -0.433,0.009 -0.673,-0.035 l 0,0 c -3.25,-0.59 -5.358,-4.164 -4.699,-7.965 l 0,0 c 0.162,-0.934 0.48,-1.817 0.946,-2.624 l 0,0 c 3.275,-4.166 4.33,-8.132 4.679,-10.142 l 0,0 c 0.108,-0.622 0.136,-0.998 0.138,-1.041 l 0,0 c 0.001,-0.008 0.003,-0.016 0.004,-0.022 l 0,0 c 0.687,-3.966 3.862,-6.568 7.105,-5.979 l 0,0 c 1.563,0.284 2.903,1.314 3.778,2.877 l 0,0 0.14,-0.026 0.397,0.984 c 0,0 0.118,0.376 0.252,0.962 l 0,0 c 0.058,0.248 0.109,0.496 0.144,0.765 l 0,0 c 0.279,1.529 0.51,4.103 -0.034,7.247 l 0,0 c -0.358,2.063 -1.007,4.114 -1.928,6.096 l 0,0 c -2.854,6.135 -6.472,8.062 -8.375,8.664 l 0,0 -0.334,0.095 c -0.438,0.115 -0.739,0.154 -0.739,0.154 l 0,0 -0.747,0.099 -0.054,-0.109 z m 0.716,-1.341 c 0,0 0.252,-0.035 0.624,-0.133 l 0,0 c 0.093,-0.023 0.182,-0.047 0.274,-0.077 l 0,0 c 1.573,-0.499 4.929,-2.195 7.608,-7.955 l 0,0 c 0.951,-2.045 1.505,-3.971 1.805,-5.702 l 0,0 c 0.513,-2.96 0.282,-5.347 0.024,-6.775 l 0,0 c -0.029,-0.217 -0.07,-0.416 -0.12,-0.624 l 0,0 c -0.118,-0.519 -0.221,-0.851 -0.221,-0.851 l 0,0 -0.084,0.015 c -0.624,-1.537 -1.786,-2.734 -3.359,-3.019 l 0,0 c -2.62,-0.476 -5.174,1.623 -5.705,4.687 l 0,0 c 0,0 -0.026,0.447 -0.159,1.218 l 0,0 c -0.355,2.043 -1.466,6.358 -4.865,10.651 l 0,0 0.002,0.004 c -0.362,0.625 -0.628,1.335 -0.762,2.11 l 0,0 c -0.531,3.066 1.162,5.936 3.782,6.412 l 0,0 c 0.378,0.068 0.74,-0.024 1.109,-0.059 l 0,0 0.047,0.098 z" /></g></g></g></g><g
       id="g240"><g
         clip-path="url(#clipPath244)"
         id="g242"><g
           id="g248"><g
             id="g250"><path
               id="path258"
               style="fill:url(#linearGradient252);stroke:none"
               d="m 150,112.005 c 0.001,-9.944 8.059,-18.004 17.998,-18.005 l 0,0 C 177.943,93.999 186,102.063 186,112.002 l 0,0 c 0.001,9.935 -8.057,17.995 -18.002,17.998 l 0,0 C 158.059,129.997 150.001,121.937 150,112.005" /></g></g></g></g><g
       id="g260"><g
         clip-path="url(#clipPath264)"
         id="g262"><g
           id="g268"><g
             id="g270"><path
               id="path278"
               style="fill:url(#linearGradient272);stroke:none"
               d="m 158,112 c 0.001,-5.52 4.476,-10.003 9.999,-10 l 0,0 c 5.521,-0.003 10.005,4.478 10.001,10.001 l 0,0 c 0.004,5.519 -4.479,9.998 -10,9.999 l 0,0 c -5.525,-0.001 -10,-4.477 -10,-10" /></g></g></g></g><g
       id="g280"><g
         clip-path="url(#clipPath284)"
         id="g282"><g
           id="g288"><g
             id="g290"><path
               id="path298"
               style="fill:url(#linearGradient292);stroke:none"
               d="m 32,161.999 c -0.001,-14.358 11.641,-26 25.999,-25.999 l 0,0 C 72.357,136.001 84,147.642 84,162.001 l 0,0 C 84,176.359 72.356,187.999 58.001,188 l 0,0 C 43.641,188.001 32,176.359 32,161.999" /></g></g></g></g><g
       id="g300"><g
         clip-path="url(#clipPath304)"
         id="g302"><g
           transform="translate(58.7306,180)"
           id="g308"><path
             id="path310"
             style="fill:#999999;fill-opacity:1;fill-rule:nonzero;stroke:none"
             d="m 0,0 -12.878,-5.184 -5.853,-12.208 4.683,-13.422 L -1.464,-36 12,-31.425 17.269,-19.22 12.295,-5.489 0,0 Z" /></g><g
           transform="translate(74,161.9993)"
           id="g312"><path
             id="path314"
             style="fill:#d5d5d5;fill-opacity:1;fill-rule:nonzero;stroke:none"
             d="m 0,0 c 0,-8.836 -7.164,-15.999 -16,-15.999 -8.835,-10e-4 -16,7.164 -16,16 0,8.835 7.164,16 16,16 C -7.163,16 0.001,8.836 0,0" /></g></g></g><g
       id="g316"><g
         clip-path="url(#clipPath320)"
         id="g318"><g
           id="g324"><g
             id="g326"><path
               id="path334"
               style="fill:url(#linearGradient328);stroke:none"
               d="m 58,166 c -2.205,0.001 -3.999,-1.792 -4,-4 l 0,0 c 0,-2.206 1.796,-4 4,-4 l 0,0 c 2.207,0 4.001,1.794 4,4 l 0,0 c 10e-4,2.205 -1.794,3.999 -3.999,4 l 0,0 c 0,0 -10e-4,0 -10e-4,0 m -3,-4 c 10e-4,1.654 1.347,3 3,3 l 0,0 c 1.655,0.001 3,-1.346 3,-3 l 0,0 c 0,-1.653 -1.346,-3 -3,-3 l 0,0 c -10e-4,0 -0.002,0 -0.002,0 l 0,0 C 56.346,159 55,160.347 55,162" /></g></g></g></g><g
       id="g336"><g
         clip-path="url(#clipPath340)"
         id="g338"><g
           id="g344"><g
             id="g346"><path
               id="path354"
               style="fill:url(#linearGradient348);stroke:none"
               d="M 50,162.001 C 50,157.59 53.589,154 58,154 l 0,0 c 4.412,-0.001 8.001,3.587 8,7.999 l 0,0 c 0,4.41 -3.588,8 -8.001,8.001 l 0,0 C 53.589,169.999 50,166.409 50,162.001 M 51.001,162 c 0,3.86 3.139,7 6.998,7 l 0,0 c 3.862,-0.001 7.003,-3.141 7.003,-7 l 0,0 c 0,-3.862 -3.142,-7 -7.001,-7 l 0,0 c -3.86,0.001 -7.001,3.139 -7,7" /></g></g></g></g><g
       id="g356"><g
         clip-path="url(#clipPath360)"
         id="g358"><g
           id="g364"><g
             id="g366"><path
               id="path374"
               style="fill:url(#linearGradient368);stroke:none"
               d="M 46,162.002 C 46,155.383 51.384,150 57.999,150 l 0,0 C 64.616,149.999 70,155.382 70,162 l 0,0 c 0.001,6.617 -5.384,11.999 -12.001,12 l 0,0 C 51.384,174 46,168.617 46,162.002 m 0.999,-0.003 c 0,6.068 4.934,11.001 11.001,11 l 0,0 c 6.065,0.002 11,-4.932 10.999,-10.998 l 0,0 c 0,-6.066 -4.934,-11.001 -11,-11.002 l 0,0 c -6.065,0 -11,4.936 -11,11" /></g></g></g></g><g
       id="g376"><g
         clip-path="url(#clipPath380)"
         id="g378"><g
           id="g384"><g
             id="g386"><path
               id="path394"
               style="fill:url(#linearGradient388);stroke:none"
               d="m 121,158 c 0,-3.86 3.141,-7 7,-7 l 0,0 c 3.86,0 7,3.14 7,7 l 0,0 c 0,3.86 -3.14,7 -7,7 l 0,0 c -3.859,0 -7,-3.14 -7,-7" /></g></g></g></g><g
       id="g396"><g
         clip-path="url(#clipPath400)"
         id="g398"><g
           transform="translate(134,158)"
           id="g404"><path
             id="path406"
             style="fill:#999999;fill-opacity:1;fill-rule:nonzero;stroke:none"
             d="m 0,0 c 0,-3.314 -2.686,-6 -6,-6 -3.314,0 -6,2.686 -6,6 0,3.314 2.686,6 6,6 3.314,0 6,-2.686 6,-6" /></g></g></g><g
       id="g408"><g
         clip-path="url(#clipPath412)"
         id="g410"><g
           id="g416"><g
             id="g418"><path
               id="path426"
               style="fill:url(#linearGradient420);stroke:none"
               d="m 88,130 c -2.206,0 -4,-1.794 -4,-4 l 0,0 0,-6 -6,0 c -2.206,0 -4,-1.794 -4,-4 l 0,0 0,-8 c 0,-2.206 1.794,-4 4,-4 l 0,0 6,0 0,-6 c 0,-2.206 1.794,-4 4,-4 l 0,0 8,0 c 2.205,0 4,1.794 4,4 l 0,0 0,6 6,0 c 2.205,0 4,1.794 4,4 l 0,0 0,8 c 0,2.206 -1.795,4 -4,4 l 0,0 -6,0 0,6 c 0,2.206 -1.795,4 -4,4 l 0,0 -8,0 z" /></g></g></g></g><g
       id="g428"><g
         clip-path="url(#clipPath432)"
         id="g430"><g
           transform="translate(106,118)"
           id="g436"><path
             id="path438"
             style="fill:#999999;fill-opacity:1;fill-rule:nonzero;stroke:none"
             d="m 0,0 -8,0 0,8 c 0,1.105 -0.895,2 -2,2 l -8,0 c -1.105,0 -2,-0.895 -2,-2 l 0,-8 -8,0 c -1.105,0 -2,-0.895 -2,-2 l 0,-8 c 0,-1.105 0.895,-2 2,-2 l 8,0 0,-8 c 0,-1.105 0.895,-2 2,-2 l 8,0 c 1.105,0 2,0.895 2,2 l 0,8 8,0 c 1.105,0 2,0.895 2,2 l 0,8 C 2,-0.895 1.105,0 0,0" /></g></g></g><g
       id="g440"><g
         clip-path="url(#clipPath444)"
         id="g442"><g
           id="g448"><g
             id="g450"><path
               id="path458"
               style="fill:url(#linearGradient452);stroke:none"
               d="m 88,112 c 0,-2.209 1.791,-4 4,-4 l 0,0 c 2.209,0 4,1.791 4,4 l 0,0 c 0,2.209 -1.791,4 -4,4 l 0,0 c -2.209,0 -4,-1.791 -4,-4" /></g></g></g></g><g
       id="g460"><g
         clip-path="url(#clipPath464)"
         id="g462"><g
           id="g468"><g
             id="g470"><path
               id="path478"
               style="fill:url(#linearGradient472);stroke:none"
               d="m 83.357,114.949 -5.142,-2.622 c -0.287,-0.145 -0.287,-0.509 0,-0.655 l 0,0 5.142,-2.621 c 0.286,-0.146 0.643,0.037 0.643,0.328 l 0,0 0,5.242 C 84,114.842 83.795,115 83.571,115 l 0,0 c -0.072,0 -0.145,-0.016 -0.214,-0.051" /></g></g></g></g><g
       id="g480"><g
         clip-path="url(#clipPath484)"
         id="g482"><g
           id="g488"><g
             id="g490"><path
               id="path498"
               style="fill:url(#linearGradient492);stroke:none"
               d="m 100,114.621 0,-5.242 c 0,-0.291 0.357,-0.474 0.643,-0.328 l 0,0 5.143,2.621 c 0.285,0.146 0.285,0.51 0,0.655 l 0,0 -5.143,2.622 c -0.069,0.035 -0.142,0.051 -0.214,0.051 l 0,0 C 100.205,115 100,114.842 100,114.621" /></g></g></g></g><g
       id="g500"><g
         clip-path="url(#clipPath504)"
         id="g502"><g
           id="g508"><g
             id="g510"><path
               id="path518"
               style="fill:url(#linearGradient512);stroke:none"
               d="m 91.672,125.786 -2.621,-5.143 C 88.906,120.357 89.087,120 89.379,120 l 0,0 5.243,0 c 0.29,0 0.472,0.357 0.327,0.643 l 0,0 -2.622,5.143 C 92.255,125.928 92.127,126 92,126 l 0,0 c -0.128,0 -0.255,-0.072 -0.328,-0.214" /></g></g></g></g><g
       id="g520"><g
         clip-path="url(#clipPath524)"
         id="g522"><g
           id="g528"><g
             id="g530"><path
               id="path538"
               style="fill:url(#linearGradient532);stroke:none"
               d="m 89.379,104 c -0.292,0 -0.473,-0.357 -0.328,-0.643 l 0,0 2.621,-5.143 c 0.146,-0.285 0.51,-0.285 0.655,0 l 0,0 2.622,5.143 C 95.094,103.643 94.912,104 94.622,104 l 0,0 -5.243,0 z" /></g></g></g></g><g
       id="g540"><g
         clip-path="url(#clipPath544)"
         id="g542"><g
           id="g548"><g
             id="g550"><path
               id="path558"
               style="fill:url(#linearGradient552);stroke:none"
               d="m 43,162 c 0,-8.271 6.729,-15 15,-15 l 0,0 c 8.271,0 15,6.729 15,15 l 0,0 c 0,8.271 -6.729,15 -15,15 l 0,0 c -8.271,0 -15,-6.729 -15,-15 m 1.267,0 c 0,7.584 6.149,13.732 13.733,13.732 l 0,0 c 7.584,0 13.733,-6.148 13.733,-13.732 l 0,0 c 0,-7.584 -6.149,-13.732 -13.733,-13.732 l 0,0 c -7.584,0 -13.733,6.148 -13.733,13.732" /></g></g></g></g></g></svg>