<?xml version="1.0" encoding="UTF-8" standalone="no"?>
<svg
   xmlns:dc="http://purl.org/dc/elements/1.1/"
   xmlns:cc="http://creativecommons.org/ns#"
   xmlns:rdf="http://www.w3.org/1999/02/22-rdf-syntax-ns#"
   xmlns:svg="http://www.w3.org/2000/svg"
   xmlns="http://www.w3.org/2000/svg"
   viewBox="0 0 320 320"
   height="320"
   width="320"
   xml:space="preserve"
   version="1.1"
   id="svg2"><metadata
     id="metadata8"><rdf:RDF><cc:Work
         rdf:about=""><dc:format>image/svg+xml</dc:format><dc:type
           rdf:resource="http://purl.org/dc/dcmitype/StillImage" /></cc:Work></rdf:RDF></metadata><defs
     id="defs6"><clipPath
       id="clipPath16"
       clipPathUnits="userSpaceOnUse"><path
         id="path18"
         d="m 68,244 c -11.046,0 -20,-8.954 -20,-20 l 0,0 0,-192 C 48,20.954 56.954,12 68,12 l 0,0 120,0 c 11.046,0 20,8.954 20,20 l 0,0 0,192 c 0,11.046 -8.954,20 -20,20 l 0,0 -120,0 z" /></clipPath><linearGradient
       id="linearGradient24"
       spreadMethod="pad"
       gradientTransform="matrix(184.28427,-184.28427,-184.28427,-184.28427,35.857864,220.14214)"
       gradientUnits="userSpaceOnUse"
       y2="0"
       x2="1"
       y1="0"
       x1="0"><stop
         id="stop26"
         offset="0"
         style="stop-opacity:1;stop-color:#e6e7e8" /><stop
         id="stop28"
         offset="1"
         style="stop-opacity:1;stop-color:#d1d3d4" /></linearGradient><clipPath
       id="clipPath36"
       clipPathUnits="userSpaceOnUse"><path
         id="path38"
         d="M 0,256 256,256 256,0 0,0 0,256 Z" /></clipPath><clipPath
       id="clipPath54"
       clipPathUnits="userSpaceOnUse"><path
         id="path56"
         d="m 116,32 12,-12 12,12 -24,0 z" /></clipPath><linearGradient
       id="linearGradient62"
       spreadMethod="pad"
       gradientTransform="matrix(-11.999999,-11.999999,-11.999999,11.999999,134,38)"
       gradientUnits="userSpaceOnUse"
       y2="0"
       x2="1"
       y1="0"
       x1="0"><stop
         id="stop64"
         offset="0"
         style="stop-opacity:1;stop-color:#e6e7e8" /><stop
         id="stop66"
         offset="1"
         style="stop-opacity:1;stop-color:#d1d3d4" /></linearGradient><clipPath
       id="clipPath74"
       clipPathUnits="userSpaceOnUse"><path
         id="path76"
         d="m 106,232 c -1.104,0 -2,-0.895 -2,-2 l 0,0 c 0,-1.105 0.896,-2 2,-2 l 0,0 44,0 c 1.105,0 2,0.895 2,2 l 0,0 c 0,1.105 -0.895,2 -2,2 l 0,0 -44,0 z" /></clipPath><linearGradient
       id="linearGradient82"
       spreadMethod="pad"
       gradientTransform="matrix(-24.828428,-24.828428,-24.828428,24.828428,140.41422,242.41422)"
       gradientUnits="userSpaceOnUse"
       y2="0"
       x2="1"
       y1="0"
       x1="0"><stop
         id="stop84"
         offset="0"
         style="stop-opacity:1;stop-color:#e6e7e8" /><stop
         id="stop86"
         offset="1"
         style="stop-opacity:1;stop-color:#d1d3d4" /></linearGradient></defs><g
     transform="matrix(1.25,0,0,-1.25,0,320)"
     id="g10"><g
       id="g12"><g
         clip-path="url(#clipPath16)"
         id="g14"><g
           id="g20"><g
             id="g22"><path
               id="path30"
               style="fill:url(#linearGradient24);stroke:none"
               d="m 68,244 c -11.046,0 -20,-8.954 -20,-20 l 0,0 0,-192 C 48,20.954 56.954,12 68,12 l 0,0 120,0 c 11.046,0 20,8.954 20,20 l 0,0 0,192 c 0,11.046 -8.954,20 -20,20 l 0,0 -120,0 z" /></g></g></g></g><g
       id="g32"><g
         clip-path="url(#clipPath36)"
         id="g34"><path
           id="path40"
           style="fill:#ffffff;fill-opacity:1;fill-rule:nonzero;stroke:none"
           d="m 196,68 -136,0 0,116 136,0 0,-116 z" /><g
           transform="translate(196,184)"
           id="g42"><path
             id="path44"
             style="fill:#999999;fill-opacity:1;fill-rule:nonzero;stroke:none"
             d="m 0,0 -136,0 0,36 c 0,2.209 1.791,4 4,4 l 128,0 c 2.209,0 4,-1.791 4,-4 L 0,0 Z" /></g><g
           transform="translate(192,44)"
           id="g46"><path
             id="path48"
             style="fill:#999999;fill-opacity:1;fill-rule:nonzero;stroke:none"
             d="m 0,0 -128,0 c -2.209,0 -4,1.791 -4,4 l 0,20 L 4,24 4,4 C 4,1.791 2.209,0 0,0" /></g></g></g><g
       id="g50"><g
         clip-path="url(#clipPath54)"
         id="g52"><g
           id="g58"><g
             id="g60"><path
               id="path68"
               style="fill:url(#linearGradient62);stroke:none"
               d="m 116,32 12,-12 12,12 -24,0 z" /></g></g></g></g><g
       id="g70"><g
         clip-path="url(#clipPath74)"
         id="g72"><g
           id="g78"><g
             id="g80"><path
               id="path88"
               style="fill:url(#linearGradient82);stroke:none"
               d="m 106,232 c -1.104,0 -2,-0.895 -2,-2 l 0,0 c 0,-1.105 0.896,-2 2,-2 l 0,0 44,0 c 1.105,0 2,0.895 2,2 l 0,0 c 0,1.105 -0.895,2 -2,2 l 0,0 -44,0 z" /></g></g></g></g></g></svg>