<?xml version="1.0" encoding="UTF-8" standalone="no"?>
<svg
   xmlns:dc="http://purl.org/dc/elements/1.1/"
   xmlns:cc="http://creativecommons.org/ns#"
   xmlns:rdf="http://www.w3.org/1999/02/22-rdf-syntax-ns#"
   xmlns:svg="http://www.w3.org/2000/svg"
   xmlns="http://www.w3.org/2000/svg"
   viewBox="0 0 320 320"
   height="320"
   width="320"
   xml:space="preserve"
   version="1.1"
   id="svg2"><metadata
     id="metadata8"><rdf:RDF><cc:Work
         rdf:about=""><dc:format>image/svg+xml</dc:format><dc:type
           rdf:resource="http://purl.org/dc/dcmitype/StillImage" /></cc:Work></rdf:RDF></metadata><defs
     id="defs6"><clipPath
       id="clipPath16"
       clipPathUnits="userSpaceOnUse"><path
         id="path18"
         d="m 18,244 c -1.104,0 -2,-0.896 -2,-2 l 0,0 0,-6 c 1.105,0 2,-0.896 2,-2 l 0,0 c 0,-1.104 -0.895,-2 -2,-2 l 0,0 0,-4 c 1.105,0 2,-0.896 2,-2 l 0,0 c 0,-1.104 -0.895,-2 -2,-2 l 0,0 0,-4 c 1.105,0 2,-0.895 2,-2 l 0,0 c 0,-1.105 -0.895,-2 -2,-2 l 0,0 0,-4 c 1.105,0 2,-0.895 2,-2 l 0,0 c 0,-1.105 -0.895,-2 -2,-2 l 0,0 0,-4 c 1.105,0 2,-0.895 2,-2 l 0,0 c 0,-1.105 -0.895,-2 -2,-2 l 0,0 0,-186 c 0,-1.105 0.896,-2 2,-2 l 0,0 220,0 c 1.105,0 2,0.895 2,2 l 0,0 0,186 c -1.105,0 -2,0.895 -2,2 l 0,0 c 0,1.105 0.895,2 2,2 l 0,0 0,4 c -1.105,0 -2,0.895 -2,2 l 0,0 c 0,1.105 0.895,2 2,2 l 0,0 0,4 c -1.105,0 -2,0.895 -2,2 l 0,0 c 0,1.105 0.895,2 2,2 l 0,0 0,4 c -1.105,0 -2,0.896 -2,2 l 0,0 c 0,1.104 0.895,2 2,2 l 0,0 0,4 c -1.105,0 -2,0.896 -2,2 l 0,0 c 0,1.104 0.895,2 2,2 l 0,0 0,6 c 0,1.104 -0.895,2 -2,2 l 0,0 -220,0 z" /></clipPath><linearGradient
       id="linearGradient24"
       spreadMethod="pad"
       gradientTransform="matrix(226.82843,-226.82843,-226.82843,-226.82843,14.585787,241.41423)"
       gradientUnits="userSpaceOnUse"
       y2="0"
       x2="1"
       y1="0"
       x1="0"><stop
         id="stop26"
         offset="0"
         style="stop-opacity:1;stop-color:#e6e7e8" /><stop
         id="stop28"
         offset="1"
         style="stop-opacity:1;stop-color:#d1d3d4" /></linearGradient><clipPath
       id="clipPath36"
       clipPathUnits="userSpaceOnUse"><path
         id="path38"
         d="M 78.6,68 C 77.115,68 76,66.909 76,65.454 l 0,0 0,-53.454 104,0 0,53.454 C 180,66.909 178.886,68 177.4,68 l 0,0 -98.8,0 z" /></clipPath><linearGradient
       id="linearGradient44"
       spreadMethod="pad"
       gradientTransform="matrix(-79.2649,79.2649,79.2649,79.2649,167.63245,-0.3675477)"
       gradientUnits="userSpaceOnUse"
       y2="0"
       x2="1"
       y1="0"
       x1="0"><stop
         id="stop46"
         offset="0"
         style="stop-opacity:1;stop-color:#e6e7e8" /><stop
         id="stop48"
         offset="1"
         style="stop-opacity:1;stop-color:#d1d3d4" /></linearGradient><clipPath
       id="clipPath56"
       clipPathUnits="userSpaceOnUse"><path
         id="path58"
         d="M 0,256 256,256 256,0 0,0 0,256 Z" /></clipPath><clipPath
       id="clipPath68"
       clipPathUnits="userSpaceOnUse"><path
         id="path70"
         d="m 30,182 c 0,-2.209 1.791,-4 4,-4 l 0,0 c 2.209,0 4,1.791 4,4 l 0,0 c 0,2.209 -1.791,4 -4,4 l 0,0 c -2.209,0 -4,-1.791 -4,-4" /></clipPath><linearGradient
       id="linearGradient76"
       spreadMethod="pad"
       gradientTransform="matrix(5.6568542,-5.6568542,-5.6568542,-5.6568542,31.171574,184.82843)"
       gradientUnits="userSpaceOnUse"
       y2="0"
       x2="1"
       y1="0"
       x1="0"><stop
         id="stop78"
         offset="0"
         style="stop-opacity:1;stop-color:#e6e7e8" /><stop
         id="stop80"
         offset="1"
         style="stop-opacity:1;stop-color:#d1d3d4" /></linearGradient><clipPath
       id="clipPath88"
       clipPathUnits="userSpaceOnUse"><path
         id="path90"
         d="M 0,256 256,256 256,0 0,0 0,256 Z" /></clipPath><clipPath
       id="clipPath100"
       clipPathUnits="userSpaceOnUse"><path
         id="path102"
         d="m 218,182 c 0,-2.209 1.791,-4 4,-4 l 0,0 c 2.209,0 4,1.791 4,4 l 0,0 c 0,2.209 -1.791,4 -4,4 l 0,0 c -2.209,0 -4,-1.791 -4,-4" /></clipPath><linearGradient
       id="linearGradient108"
       spreadMethod="pad"
       gradientTransform="matrix(5.6568542,-5.6568542,-5.6568542,-5.6568542,219.17157,184.82843)"
       gradientUnits="userSpaceOnUse"
       y2="0"
       x2="1"
       y1="0"
       x1="0"><stop
         id="stop110"
         offset="0"
         style="stop-opacity:1;stop-color:#e6e7e8" /><stop
         id="stop112"
         offset="1"
         style="stop-opacity:1;stop-color:#d1d3d4" /></linearGradient><clipPath
       id="clipPath120"
       clipPathUnits="userSpaceOnUse"><path
         id="path122"
         d="M 0,256 256,256 256,0 0,0 0,256 Z" /></clipPath><clipPath
       id="clipPath132"
       clipPathUnits="userSpaceOnUse"><path
         id="path134"
         d="m 30,26 c 0,-2.209 1.791,-4 4,-4 l 0,0 c 2.209,0 4,1.791 4,4 l 0,0 c 0,2.209 -1.791,4 -4,4 l 0,0 c -2.209,0 -4,-1.791 -4,-4" /></clipPath><linearGradient
       id="linearGradient140"
       spreadMethod="pad"
       gradientTransform="matrix(5.6568542,-5.6568542,-5.6568542,-5.6568542,31.171574,28.828426)"
       gradientUnits="userSpaceOnUse"
       y2="0"
       x2="1"
       y1="0"
       x1="0"><stop
         id="stop142"
         offset="0"
         style="stop-opacity:1;stop-color:#e6e7e8" /><stop
         id="stop144"
         offset="1"
         style="stop-opacity:1;stop-color:#d1d3d4" /></linearGradient><clipPath
       id="clipPath152"
       clipPathUnits="userSpaceOnUse"><path
         id="path154"
         d="M 0,256 256,256 256,0 0,0 0,256 Z" /></clipPath><clipPath
       id="clipPath164"
       clipPathUnits="userSpaceOnUse"><path
         id="path166"
         d="m 218,26 c 0,-2.209 1.791,-4 4,-4 l 0,0 c 2.209,0 4,1.791 4,4 l 0,0 c 0,2.209 -1.791,4 -4,4 l 0,0 c -2.209,0 -4,-1.791 -4,-4" /></clipPath><linearGradient
       id="linearGradient172"
       spreadMethod="pad"
       gradientTransform="matrix(5.6568542,-5.6568542,-5.6568542,-5.6568542,219.17157,28.828426)"
       gradientUnits="userSpaceOnUse"
       y2="0"
       x2="1"
       y1="0"
       x1="0"><stop
         id="stop174"
         offset="0"
         style="stop-opacity:1;stop-color:#e6e7e8" /><stop
         id="stop176"
         offset="1"
         style="stop-opacity:1;stop-color:#d1d3d4" /></linearGradient><clipPath
       id="clipPath184"
       clipPathUnits="userSpaceOnUse"><path
         id="path186"
         d="M 0,256 256,256 256,0 0,0 0,256 Z" /></clipPath><clipPath
       id="clipPath210"
       clipPathUnits="userSpaceOnUse"><path
         id="path212"
         d="m 116,194 c 0,-6.627 5.372,-12 12,-12 l 0,0 c 6.627,0 12,5.373 12,12 l 0,0 c 0,6.627 -5.373,12 -12,12 l 0,0 c -6.628,0 -12,-5.373 -12,-12" /></clipPath><linearGradient
       id="linearGradient218"
       spreadMethod="pad"
       gradientTransform="matrix(-16.970562,16.970562,16.970562,16.970562,136.48528,185.51472)"
       gradientUnits="userSpaceOnUse"
       y2="0"
       x2="1"
       y1="0"
       x1="0"><stop
         id="stop220"
         offset="0"
         style="stop-opacity:1;stop-color:#e6e7e8" /><stop
         id="stop222"
         offset="1"
         style="stop-opacity:1;stop-color:#d1d3d4" /></linearGradient><clipPath
       id="clipPath230"
       clipPathUnits="userSpaceOnUse"><path
         id="path232"
         d="M 0,256 256,256 256,0 0,0 0,256 Z" /></clipPath></defs><g
     transform="matrix(1.25,0,0,-1.25,0,320)"
     id="g10"><g
       id="g12"><g
         clip-path="url(#clipPath16)"
         id="g14"><g
           id="g20"><g
             id="g22"><path
               id="path30"
               style="fill:url(#linearGradient24);stroke:none"
               d="m 18,244 c -1.104,0 -2,-0.896 -2,-2 l 0,0 0,-6 c 1.105,0 2,-0.896 2,-2 l 0,0 c 0,-1.104 -0.895,-2 -2,-2 l 0,0 0,-4 c 1.105,0 2,-0.896 2,-2 l 0,0 c 0,-1.104 -0.895,-2 -2,-2 l 0,0 0,-4 c 1.105,0 2,-0.895 2,-2 l 0,0 c 0,-1.105 -0.895,-2 -2,-2 l 0,0 0,-4 c 1.105,0 2,-0.895 2,-2 l 0,0 c 0,-1.105 -0.895,-2 -2,-2 l 0,0 0,-4 c 1.105,0 2,-0.895 2,-2 l 0,0 c 0,-1.105 -0.895,-2 -2,-2 l 0,0 0,-186 c 0,-1.105 0.896,-2 2,-2 l 0,0 220,0 c 1.105,0 2,0.895 2,2 l 0,0 0,186 c -1.105,0 -2,0.895 -2,2 l 0,0 c 0,1.105 0.895,2 2,2 l 0,0 0,4 c -1.105,0 -2,0.895 -2,2 l 0,0 c 0,1.105 0.895,2 2,2 l 0,0 0,4 c -1.105,0 -2,0.895 -2,2 l 0,0 c 0,1.105 0.895,2 2,2 l 0,0 0,4 c -1.105,0 -2,0.896 -2,2 l 0,0 c 0,1.104 0.895,2 2,2 l 0,0 0,4 c -1.105,0 -2,0.896 -2,2 l 0,0 c 0,1.104 0.895,2 2,2 l 0,0 0,6 c 0,1.104 -0.895,2 -2,2 l 0,0 -220,0 z" /></g></g></g></g><g
       id="g32"><g
         clip-path="url(#clipPath36)"
         id="g34"><g
           id="g40"><g
             id="g42"><path
               id="path50"
               style="fill:url(#linearGradient44);stroke:none"
               d="M 78.6,68 C 77.115,68 76,66.909 76,65.454 l 0,0 0,-53.454 104,0 0,53.454 C 180,66.909 178.886,68 177.4,68 l 0,0 -98.8,0 z" /></g></g></g></g><g
       id="g52"><g
         clip-path="url(#clipPath56)"
         id="g54"><g
           transform="translate(34,188)"
           id="g60"><path
             id="path62"
             style="fill:#949494;fill-opacity:1;fill-rule:nonzero;stroke:none"
             d="m 0,0 c -3.314,0 -6,-2.686 -6,-6 0,-3.314 2.686,-6 6,-6 3.314,0 6,2.686 6,6 0,3.314 -2.686,6 -6,6" /></g></g></g><g
       id="g64"><g
         clip-path="url(#clipPath68)"
         id="g66"><g
           id="g72"><g
             id="g74"><path
               id="path82"
               style="fill:url(#linearGradient76);stroke:none"
               d="m 30,182 c 0,-2.209 1.791,-4 4,-4 l 0,0 c 2.209,0 4,1.791 4,4 l 0,0 c 0,2.209 -1.791,4 -4,4 l 0,0 c -2.209,0 -4,-1.791 -4,-4" /></g></g></g></g><g
       id="g84"><g
         clip-path="url(#clipPath88)"
         id="g86"><g
           transform="translate(222,188)"
           id="g92"><path
             id="path94"
             style="fill:#949494;fill-opacity:1;fill-rule:nonzero;stroke:none"
             d="m 0,0 c -3.314,0 -6,-2.686 -6,-6 0,-3.314 2.686,-6 6,-6 3.314,0 6,2.686 6,6 0,3.314 -2.686,6 -6,6" /></g></g></g><g
       id="g96"><g
         clip-path="url(#clipPath100)"
         id="g98"><g
           id="g104"><g
             id="g106"><path
               id="path114"
               style="fill:url(#linearGradient108);stroke:none"
               d="m 218,182 c 0,-2.209 1.791,-4 4,-4 l 0,0 c 2.209,0 4,1.791 4,4 l 0,0 c 0,2.209 -1.791,4 -4,4 l 0,0 c -2.209,0 -4,-1.791 -4,-4" /></g></g></g></g><g
       id="g116"><g
         clip-path="url(#clipPath120)"
         id="g118"><g
           transform="translate(34,32)"
           id="g124"><path
             id="path126"
             style="fill:#949494;fill-opacity:1;fill-rule:nonzero;stroke:none"
             d="m 0,0 c -3.314,0 -6,-2.686 -6,-6 0,-3.314 2.686,-6 6,-6 3.314,0 6,2.686 6,6 0,3.314 -2.686,6 -6,6" /></g></g></g><g
       id="g128"><g
         clip-path="url(#clipPath132)"
         id="g130"><g
           id="g136"><g
             id="g138"><path
               id="path146"
               style="fill:url(#linearGradient140);stroke:none"
               d="m 30,26 c 0,-2.209 1.791,-4 4,-4 l 0,0 c 2.209,0 4,1.791 4,4 l 0,0 c 0,2.209 -1.791,4 -4,4 l 0,0 c -2.209,0 -4,-1.791 -4,-4" /></g></g></g></g><g
       id="g148"><g
         clip-path="url(#clipPath152)"
         id="g150"><g
           transform="translate(222,32)"
           id="g156"><path
             id="path158"
             style="fill:#949494;fill-opacity:1;fill-rule:nonzero;stroke:none"
             d="m 0,0 c -3.314,0 -6,-2.686 -6,-6 0,-3.314 2.686,-6 6,-6 3.314,0 6,2.686 6,6 0,3.314 -2.686,6 -6,6" /></g></g></g><g
       id="g160"><g
         clip-path="url(#clipPath164)"
         id="g162"><g
           id="g168"><g
             id="g170"><path
               id="path178"
               style="fill:url(#linearGradient172);stroke:none"
               d="m 218,26 c 0,-2.209 1.791,-4 4,-4 l 0,0 c 2.209,0 4,1.791 4,4 l 0,0 c 0,2.209 -1.791,4 -4,4 l 0,0 c -2.209,0 -4,-1.791 -4,-4" /></g></g></g></g><g
       id="g180"><g
         clip-path="url(#clipPath184)"
         id="g182"><g
           transform="translate(171.5,216)"
           id="g188"><path
             id="path190"
             style="fill:#ffffff;fill-opacity:1;fill-rule:nonzero;stroke:none"
             d="m 0,0 -87,0 c -0.276,0 -0.5,0.224 -0.5,0.5 l 0,19 c 0,0.276 0.224,0.5 0.5,0.5 l 87,0 c 0.276,0 0.5,-0.224 0.5,-0.5 l 0,-19 C 0.5,0.224 0.276,0 0,0" /></g><path
           id="path192"
           style="fill:#949494;fill-opacity:1;fill-rule:nonzero;stroke:none"
           d="m 144,44 -32,0 0,24 32,0 0,-24 z" /><path
           id="path194"
           style="fill:#949494;fill-opacity:1;fill-rule:nonzero;stroke:none"
           d="m 58,12 -2,0 0,232 2,0 0,-232 z" /><path
           id="path196"
           style="fill:#949494;fill-opacity:1;fill-rule:nonzero;stroke:none"
           d="m 200,12 -2,0 0,232 2,0 0,-232 z" /><g
           transform="translate(207.9998,168)"
           id="g198"><path
             id="path200"
             style="fill:#ffffff;fill-opacity:1;fill-rule:nonzero;stroke:none"
             d="m 0,0 -160,0 c -6.945,0 -10,-3.089 -10,-10.11 l 0,-55.78 c 0,-7.021 3.055,-10.11 10,-10.11 l 160,0 c 6.945,0 10,3.089 10,10.11 l 0,55.78 C 10,-3.089 6.945,0 0,0" /></g><g
           transform="translate(223.589,84)"
           id="g202"><path
             id="path204"
             style="fill:#949494;fill-opacity:1;fill-rule:nonzero;stroke:none"
             d="m 0,0 -191.178,0 c -1.333,0 -2.411,0.895 -2.411,2 0,1.105 1.078,2 2.411,2 L 0,4 C 1.333,4 2.411,3.105 2.411,2 2.411,0.895 1.333,0 0,0" /></g></g></g><g
       id="g206"><g
         clip-path="url(#clipPath210)"
         id="g208"><g
           id="g214"><g
             id="g216"><path
               id="path224"
               style="fill:url(#linearGradient218);stroke:none"
               d="m 116,194 c 0,-6.627 5.372,-12 12,-12 l 0,0 c 6.627,0 12,5.373 12,12 l 0,0 c 0,6.627 -5.373,12 -12,12 l 0,0 c -6.628,0 -12,-5.373 -12,-12" /></g></g></g></g><g
       id="g226"><g
         clip-path="url(#clipPath230)"
         id="g228"><g
           transform="translate(178.1234,244)"
           id="g234"><path
             id="path236"
             style="fill:#949494;fill-opacity:1;fill-rule:nonzero;stroke:none"
             d="m 0,0 0,-39.235 c -38.203,-14.451 -62.044,-14.451 -100.247,0 l 0,39.235 -1.876,0 0,-39.235 0,-1.343 1.228,-0.465 C -80.863,-48.621 -65.204,-52 -50.123,-52 c 15.08,0 30.739,3.379 50.772,10.957 l 1.228,0.465 0,1.343 L 1.877,0 0,0 Z" /></g><g
           transform="translate(16,236)"
           id="g238"><path
             id="path240"
             style="fill:#949494;fill-opacity:1;fill-rule:nonzero;stroke:none"
             d="M 0,0 C 1.105,0 2,-0.895 2,-2 2,-3.105 1.105,-4 0,-4 l 10,0 c 1.105,0 2,0.895 2,2 0,1.105 -0.895,2 -2,2 L 0,0 Z" /></g><g
           transform="translate(16,228)"
           id="g242"><path
             id="path244"
             style="fill:#949494;fill-opacity:1;fill-rule:nonzero;stroke:none"
             d="M 0,0 C 1.105,0 2,-0.895 2,-2 2,-3.105 1.105,-4 0,-4 l 10,0 c 1.105,0 2,0.895 2,2 0,1.105 -0.895,2 -2,2 L 0,0 Z" /></g><g
           transform="translate(16,220)"
           id="g246"><path
             id="path248"
             style="fill:#949494;fill-opacity:1;fill-rule:nonzero;stroke:none"
             d="M 0,0 C 1.105,0 2,-0.895 2,-2 2,-3.105 1.105,-4 0,-4 l 10,0 c 1.105,0 2,0.895 2,2 0,1.105 -0.895,2 -2,2 L 0,0 Z" /></g><g
           transform="translate(16,212)"
           id="g250"><path
             id="path252"
             style="fill:#949494;fill-opacity:1;fill-rule:nonzero;stroke:none"
             d="M 0,0 C 1.105,0 2,-0.895 2,-2 2,-3.105 1.105,-4 0,-4 l 10,0 c 1.105,0 2,0.895 2,2 0,1.105 -0.895,2 -2,2 L 0,0 Z" /></g><g
           transform="translate(16,204)"
           id="g254"><path
             id="path256"
             style="fill:#949494;fill-opacity:1;fill-rule:nonzero;stroke:none"
             d="M 0,0 C 1.105,0 2,-0.895 2,-2 2,-3.105 1.105,-4 0,-4 l 10,0 c 1.105,0 2,0.895 2,2 0,1.105 -0.895,2 -2,2 L 0,0 Z" /></g><g
           transform="translate(240,236)"
           id="g258"><path
             id="path260"
             style="fill:#949494;fill-opacity:1;fill-rule:nonzero;stroke:none"
             d="m 0,0 c -1.105,0 -2,-0.895 -2,-2 0,-1.105 0.895,-2 2,-2 l -10,0 c -1.105,0 -2,0.895 -2,2 0,1.105 0.895,2 2,2 L 0,0 Z" /></g><g
           transform="translate(240,228)"
           id="g262"><path
             id="path264"
             style="fill:#949494;fill-opacity:1;fill-rule:nonzero;stroke:none"
             d="m 0,0 c -1.105,0 -2,-0.895 -2,-2 0,-1.105 0.895,-2 2,-2 l -10,0 c -1.105,0 -2,0.895 -2,2 0,1.105 0.895,2 2,2 L 0,0 Z" /></g><g
           transform="translate(240,220)"
           id="g266"><path
             id="path268"
             style="fill:#949494;fill-opacity:1;fill-rule:nonzero;stroke:none"
             d="m 0,0 c -1.105,0 -2,-0.895 -2,-2 0,-1.105 0.895,-2 2,-2 l -10,0 c -1.105,0 -2,0.895 -2,2 0,1.105 0.895,2 2,2 L 0,0 Z" /></g><g
           transform="translate(240,212)"
           id="g270"><path
             id="path272"
             style="fill:#949494;fill-opacity:1;fill-rule:nonzero;stroke:none"
             d="m 0,0 c -1.105,0 -2,-0.895 -2,-2 0,-1.105 0.895,-2 2,-2 l -10,0 c -1.105,0 -2,0.895 -2,2 0,1.105 0.895,2 2,2 L 0,0 Z" /></g><g
           transform="translate(240,204)"
           id="g274"><path
             id="path276"
             style="fill:#949494;fill-opacity:1;fill-rule:nonzero;stroke:none"
             d="m 0,0 c -1.105,0 -2,-0.895 -2,-2 0,-1.105 0.895,-2 2,-2 l -10,0 c -1.105,0 -2,0.895 -2,2 0,1.105 0.895,2 2,2 L 0,0 Z" /></g></g></g></g></svg>