<?xml version="1.0" encoding="UTF-8" standalone="no"?>
<svg
   xmlns:dc="http://purl.org/dc/elements/1.1/"
   xmlns:cc="http://creativecommons.org/ns#"
   xmlns:rdf="http://www.w3.org/1999/02/22-rdf-syntax-ns#"
   xmlns:svg="http://www.w3.org/2000/svg"
   xmlns="http://www.w3.org/2000/svg"
   viewBox="0 0 320 320"
   height="320"
   width="320"
   xml:space="preserve"
   version="1.1"
   id="svg2"><metadata
     id="metadata8"><rdf:RDF><cc:Work
         rdf:about=""><dc:format>image/svg+xml</dc:format><dc:type
           rdf:resource="http://purl.org/dc/dcmitype/StillImage" /></cc:Work></rdf:RDF></metadata><defs
     id="defs6"><clipPath
       id="clipPath16"
       clipPathUnits="userSpaceOnUse"><path
         id="path18"
         d="m 172.315,177.37 c 0,0 -2.296,-0.404 -2.315,-2.022 l 0,0 L 224,164 c 0,0 -8.273,11.954 -24.144,13.37 l 0,0 c -5.29,0.472 -10.114,0.63 -14.194,0.63 l 0,0 c -8.161,0 -13.347,-0.63 -13.347,-0.63" /></clipPath><linearGradient
       id="linearGradient24"
       spreadMethod="pad"
       gradientTransform="matrix(-32.994968,32.994968,32.994968,32.994968,213.4417,153.4417)"
       gradientUnits="userSpaceOnUse"
       y2="0"
       x2="1"
       y1="0"
       x1="0"><stop
         id="stop26"
         offset="0"
         style="stop-opacity:1;stop-color:#e6e7e8" /><stop
         id="stop28"
         offset="1"
         style="stop-opacity:1;stop-color:#d1d3d4" /></linearGradient><clipPath
       id="clipPath36"
       clipPathUnits="userSpaceOnUse"><path
         id="path38"
         d="M 56.144,177.37 C 40.272,175.954 32,164 32,164 l 0,0 54,11.348 c -0.018,1.618 -2.315,2.022 -2.315,2.022 l 0,0 c 0,0 -5.187,0.63 -13.347,0.63 l 0,0 c -4.08,0 -8.904,-0.158 -14.194,-0.63" /></clipPath><linearGradient
       id="linearGradient44"
       spreadMethod="pad"
       gradientTransform="matrix(-21.535929,21.535929,21.535929,21.535929,69.823746,159.17122)"
       gradientUnits="userSpaceOnUse"
       y2="0"
       x2="1"
       y1="0"
       x1="0"><stop
         id="stop46"
         offset="0"
         style="stop-opacity:1;stop-color:#e6e7e8" /><stop
         id="stop48"
         offset="1"
         style="stop-opacity:1;stop-color:#d1d3d4" /></linearGradient><clipPath
       id="clipPath56"
       clipPathUnits="userSpaceOnUse"><path
         id="path58"
         d="M 59.6,176 C 33.991,176 12.682,155.368 12.016,129.28 l 0,0 C 11.325,102.185 32.671,80 59.101,80 l 0,0 c 9.969,0 19.213,3.158 26.825,8.543 l 0,0 c 2.695,1.907 5.924,2.874 9.205,2.874 l 0,0 65.767,0 c 3.28,0 6.498,-0.981 9.193,-2.886 l 0,0 c 7.697,-5.439 17.059,-8.603 27.152,-8.53 l 0,0 c 25.498,0.186 46.4,21.338 46.752,47.321 l 0,0 C 244.359,154.142 223.133,176 196.898,176 l 0,0 -137.298,0 z" /></clipPath><linearGradient
       id="linearGradient64"
       spreadMethod="pad"
       gradientTransform="matrix(136.01759,-136.01759,-136.01759,-136.01759,60.013683,195.98631)"
       gradientUnits="userSpaceOnUse"
       y2="0"
       x2="1"
       y1="0"
       x1="0"><stop
         id="stop66"
         offset="0"
         style="stop-opacity:1;stop-color:#e6e7e8" /><stop
         id="stop68"
         offset="1"
         style="stop-opacity:1;stop-color:#d1d3d4" /></linearGradient><clipPath
       id="clipPath76"
       clipPathUnits="userSpaceOnUse"><path
         id="path78"
         d="M 0,256 256,256 256,0 0,0 0,256 Z" /></clipPath><clipPath
       id="clipPath92"
       clipPathUnits="userSpaceOnUse"><path
         id="path94"
         d="m 56,128 c 0,-2.21 1.791,-4 4,-4 l 0,0 c 2.209,0 4,1.79 4,4 l 0,0 c 0,2.209 -1.791,4 -4,4 l 0,0 c -2.209,0 -4,-1.791 -4,-4" /></clipPath><linearGradient
       id="linearGradient100"
       spreadMethod="pad"
       gradientTransform="matrix(5.6568851,-5.6568851,-5.6568851,-5.6568851,57.171394,130.82845)"
       gradientUnits="userSpaceOnUse"
       y2="0"
       x2="1"
       y1="0"
       x1="0"><stop
         id="stop102"
         offset="0"
         style="stop-opacity:1;stop-color:#e6e7e8" /><stop
         id="stop104"
         offset="1"
         style="stop-opacity:1;stop-color:#d1d3d4" /></linearGradient><clipPath
       id="clipPath112"
       clipPathUnits="userSpaceOnUse"><path
         id="path114"
         d="m 189.357,153.985 -0.001,0.002 -0.02,-0.015 c -0.053,-0.035 -0.104,-0.074 -0.156,-0.111 l 0,0 -22.975,-16.36 c -0.773,-0.428 -1.487,-0.945 -2.144,-1.527 l 0,0 -0.061,-0.043 0.005,-0.008 C 161.554,133.725 160,130.544 160,127 l 0,0 c 0,-6.617 5.383,-12 12,-12 l 0,0 c 2.185,0 4.229,0.596 5.995,1.62 l 0,0 0.005,-0.006 0.102,0.071 c 0.575,0.342 1.122,0.724 1.631,1.153 l 0,0 22.769,16.091 c 0.235,0.152 0.461,0.315 0.683,0.482 l 0,0 0.004,0.003 c 2.915,2.192 4.811,5.667 4.811,9.586 l 0,0 c 0,6.617 -5.383,12 -12,12 l 0,0 c -2.455,0 -4.739,-0.744 -6.643,-2.015" /></clipPath><linearGradient
       id="linearGradient120"
       spreadMethod="pad"
       gradientTransform="matrix(20.444193,-20.444193,-20.444193,-20.444193,173.77812,145.72189)"
       gradientUnits="userSpaceOnUse"
       y2="0"
       x2="1"
       y1="0"
       x1="0"><stop
         id="stop122"
         offset="0"
         style="stop-opacity:1;stop-color:#e6e7e8" /><stop
         id="stop124"
         offset="1"
         style="stop-opacity:1;stop-color:#d1d3d4" /></linearGradient><clipPath
       id="clipPath132"
       clipPathUnits="userSpaceOnUse"><path
         id="path134"
         d="M 0,256 256,256 256,0 0,0 0,256 Z" /></clipPath><clipPath
       id="clipPath144"
       clipPathUnits="userSpaceOnUse"><path
         id="path146"
         d="m 163,127 c 0,-4.963 4.037,-9 9,-9 l 0,0 c 4.962,0 9,4.037 9,9 l 0,0 c 0,4.962 -4.038,9 -9,9 l 0,0 c -4.963,0 -9,-4.038 -9,-9 m 1,0 c 0,4.418 3.582,8 8,8 l 0,0 c 4.418,0 8,-3.582 8,-8 l 0,0 c 0,-4.418 -3.582,-8 -8,-8 l 0,0 c -4.418,0 -8,3.582 -8,8" /></clipPath><linearGradient
       id="linearGradient152"
       spreadMethod="pad"
       gradientTransform="matrix(-12.721961,12.721961,12.721961,12.721961,178.36102,120.63898)"
       gradientUnits="userSpaceOnUse"
       y2="0"
       x2="1"
       y1="0"
       x1="0"><stop
         id="stop154"
         offset="0"
         style="stop-opacity:1;stop-color:#e6e7e8" /><stop
         id="stop156"
         offset="1"
         style="stop-opacity:1;stop-color:#d1d3d4" /></linearGradient><clipPath
       id="clipPath164"
       clipPathUnits="userSpaceOnUse"><path
         id="path166"
         d="M 0,256 256,256 256,0 0,0 0,256 Z" /></clipPath><clipPath
       id="clipPath176"
       clipPathUnits="userSpaceOnUse"><path
         id="path178"
         d="m 187,144 c 0,-4.963 4.038,-9 9,-9 l 0,0 c 4.963,0 9,4.037 9,9 l 0,0 c 0,4.963 -4.037,9 -9,9 l 0,0 c -4.962,0 -9,-4.037 -9,-9 m 1,0 c 0,4.418 3.582,8 8,8 l 0,0 c 4.418,0 8,-3.582 8,-8 l 0,0 c 0,-4.418 -3.582,-8 -8,-8 l 0,0 c -4.418,0 -8,3.582 -8,8" /></clipPath><linearGradient
       id="linearGradient184"
       spreadMethod="pad"
       gradientTransform="matrix(-12.721965,12.721965,12.721965,12.721965,202.36102,137.63902)"
       gradientUnits="userSpaceOnUse"
       y2="0"
       x2="1"
       y1="0"
       x1="0"><stop
         id="stop186"
         offset="0"
         style="stop-opacity:1;stop-color:#e6e7e8" /><stop
         id="stop188"
         offset="1"
         style="stop-opacity:1;stop-color:#d1d3d4" /></linearGradient><clipPath
       id="clipPath196"
       clipPathUnits="userSpaceOnUse"><path
         id="path198"
         d="m 213.358,134.986 -0.002,0 -0.021,-0.014 c -0.052,-0.035 -0.103,-0.074 -0.155,-0.111 l 0,0 -22.975,-16.361 c -0.773,-0.427 -1.488,-0.944 -2.144,-1.526 l 0,0 -0.061,-0.043 0.005,-0.007 C 185.554,114.725 184,111.544 184,108 l 0,0 c 0,-6.617 5.383,-12 12,-12 l 0,0 c 2.184,0 4.228,0.596 5.995,1.62 l 0,0 0.005,-0.006 0.101,0.071 c 0.575,0.342 1.124,0.724 1.632,1.153 l 0,0 22.769,16.091 c 0.234,0.152 0.46,0.315 0.683,0.482 l 0,0 0.004,0.003 c 2.914,2.192 4.811,5.667 4.811,9.586 l 0,0 c 0,6.617 -5.383,12 -11.999,12 l 0,0 c -2.457,0 -4.74,-0.744 -6.643,-2.014" /></clipPath><linearGradient
       id="linearGradient204"
       spreadMethod="pad"
       gradientTransform="matrix(20.444193,-20.444193,-20.444193,-20.444193,197.77812,126.7219)"
       gradientUnits="userSpaceOnUse"
       y2="0"
       x2="1"
       y1="0"
       x1="0"><stop
         id="stop206"
         offset="0"
         style="stop-opacity:1;stop-color:#e6e7e8" /><stop
         id="stop208"
         offset="1"
         style="stop-opacity:1;stop-color:#d1d3d4" /></linearGradient><clipPath
       id="clipPath216"
       clipPathUnits="userSpaceOnUse"><path
         id="path218"
         d="M 0,256 256,256 256,0 0,0 0,256 Z" /></clipPath><clipPath
       id="clipPath228"
       clipPathUnits="userSpaceOnUse"><path
         id="path230"
         d="m 187,108 c 0,-4.963 4.038,-9 9,-9 l 0,0 c 4.963,0 9,4.037 9,9 l 0,0 c 0,4.963 -4.037,9 -9,9 l 0,0 c -4.962,0 -9,-4.037 -9,-9 m 1,0 c 0,4.418 3.581,8 8,8 l 0,0 c 4.418,0 8,-3.582 8,-8 l 0,0 c 0,-4.418 -3.582,-8 -8,-8 l 0,0 c -4.419,0 -8,3.582 -8,8" /></clipPath><linearGradient
       id="linearGradient236"
       spreadMethod="pad"
       gradientTransform="matrix(-12.721962,12.721962,12.721962,12.721962,202.36095,101.63902)"
       gradientUnits="userSpaceOnUse"
       y2="0"
       x2="1"
       y1="0"
       x1="0"><stop
         id="stop238"
         offset="0"
         style="stop-opacity:1;stop-color:#e6e7e8" /><stop
         id="stop240"
         offset="1"
         style="stop-opacity:1;stop-color:#d1d3d4" /></linearGradient><clipPath
       id="clipPath248"
       clipPathUnits="userSpaceOnUse"><path
         id="path250"
         d="M 0,256 256,256 256,0 0,0 0,256 Z" /></clipPath><clipPath
       id="clipPath260"
       clipPathUnits="userSpaceOnUse"><path
         id="path262"
         d="m 211,125 c 0,-4.962 4.037,-9 9.001,-9 l 0,0 c 4.962,0 8.999,4.038 8.999,9 l 0,0 c 0,4.963 -4.037,9 -8.999,9 l 0,0 C 215.037,134 211,129.963 211,125 m 1,0 c 0,4.418 3.581,8 8.001,8 l 0,0 c 4.418,0 7.999,-3.582 7.999,-8 l 0,0 c 0,-4.418 -3.581,-8 -7.999,-8 l 0,0 c -4.42,0 -8.001,3.582 -8.001,8" /></clipPath><linearGradient
       id="linearGradient268"
       spreadMethod="pad"
       gradientTransform="matrix(-12.721963,12.721963,12.721963,12.721963,226.36102,118.63902)"
       gradientUnits="userSpaceOnUse"
       y2="0"
       x2="1"
       y1="0"
       x1="0"><stop
         id="stop270"
         offset="0"
         style="stop-opacity:1;stop-color:#e6e7e8" /><stop
         id="stop272"
         offset="1"
         style="stop-opacity:1;stop-color:#d1d3d4" /></linearGradient><clipPath
       id="clipPath280"
       clipPathUnits="userSpaceOnUse"><path
         id="path282"
         d="M 0,256 256,256 256,0 0,0 0,256 Z" /></clipPath><clipPath
       id="clipPath292"
       clipPathUnits="userSpaceOnUse"><path
         id="path294"
         d="m 134.666,120.299 -10.248,-6.834 c -0.876,-0.584 -1.452,-1.482 -1.58,-2.462 l 0,0 c -0.125,-0.958 0.171,-1.901 0.836,-2.654 l 0,0 c 0.756,-0.857 1.89,-1.349 3.109,-1.349 l 0,0 c 0.857,0 1.673,0.242 2.362,0.701 l 0,0 10.249,6.834 c 0.875,0.584 1.451,1.481 1.578,2.461 l 0,0 c 0.125,0.96 -0.171,1.902 -0.835,2.654 l 0,0 c -0.756,0.858 -1.89,1.35 -3.109,1.35 l 0,0 c -0.857,0 -1.674,-0.242 -2.362,-0.701 m -10.243,-11.288 c -0.997,1.13 -0.75,2.755 0.55,3.622 l 0,0 10.248,6.833 c 0.523,0.35 1.149,0.534 1.807,0.534 l 0,0 c 0.932,0 1.792,-0.368 2.359,-1.011 l 0,0 c 0.998,-1.13 0.751,-2.755 -0.548,-3.622 l 0,0 -10.25,-6.833 C 128.066,108.185 127.442,108 126.783,108 l 0,0 c -0.932,0 -1.793,0.369 -2.36,1.011" /></clipPath><linearGradient
       id="linearGradient300"
       spreadMethod="pad"
       gradientTransform="matrix(-7.0577636,7.0577636,7.0577636,7.0577636,135.43434,110.47104)"
       gradientUnits="userSpaceOnUse"
       y2="0"
       x2="1"
       y1="0"
       x1="0"><stop
         id="stop302"
         offset="0"
         style="stop-opacity:1;stop-color:#e6e7e8" /><stop
         id="stop304"
         offset="1"
         style="stop-opacity:1;stop-color:#d1d3d4" /></linearGradient><clipPath
       id="clipPath312"
       clipPathUnits="userSpaceOnUse"><path
         id="path314"
         d="M 0,256 256,256 256,0 0,0 0,256 Z" /></clipPath><clipPath
       id="clipPath324"
       clipPathUnits="userSpaceOnUse"><path
         id="path326"
         d="m 110.857,120.299 -10.248,-6.834 c -0.867,-0.578 -1.425,-1.429 -1.572,-2.394 l 0,0 c -0.149,-0.982 0.145,-1.949 0.827,-2.722 l 0,0 c 0.757,-0.857 1.891,-1.349 3.11,-1.349 l 0,0 c 0.856,0 1.673,0.242 2.361,0.701 l 0,0 10.248,6.834 c 0.867,0.578 1.426,1.428 1.572,2.394 l 0,0 c 0.149,0.982 -0.145,1.948 -0.827,2.721 l 0,0 c -0.757,0.858 -1.89,1.35 -3.11,1.35 l 0,0 c -0.857,0 -1.673,-0.242 -2.361,-0.701 m -10.243,-11.288 c -0.483,0.548 -0.691,1.226 -0.588,1.91 l 0,0 c 0.104,0.684 0.508,1.292 1.138,1.712 l 0,0 10.248,6.833 c 0.524,0.35 1.148,0.534 1.806,0.534 l 0,0 c 0.933,0 1.793,-0.368 2.36,-1.011 l 0,0 c 0.483,-0.547 0.692,-1.226 0.589,-1.91 l 0,0 c -0.104,-0.684 -0.508,-1.292 -1.138,-1.712 l 0,0 -10.248,-6.833 C 104.257,108.185 103.632,108 102.974,108 l 0,0 c -0.933,0 -1.793,0.369 -2.36,1.011" /></clipPath><linearGradient
       id="linearGradient332"
       spreadMethod="pad"
       gradientTransform="matrix(-7.0610113,7.0610113,7.0610113,7.0610113,111.62664,110.46944)"
       gradientUnits="userSpaceOnUse"
       y2="0"
       x2="1"
       y1="0"
       x1="0"><stop
         id="stop334"
         offset="0"
         style="stop-opacity:1;stop-color:#e6e7e8" /><stop
         id="stop336"
         offset="1"
         style="stop-opacity:1;stop-color:#d1d3d4" /></linearGradient><clipPath
       id="clipPath344"
       clipPathUnits="userSpaceOnUse"><path
         id="path346"
         d="m 48.749,131.899 -6.332,-3.256 c -0.556,-0.286 -0.556,-1 0,-1.287 l 0,0 6.332,-3.255 c 0.556,-0.286 1.251,0.071 1.251,0.643 l 0,0 0,6.512 C 50,131.689 49.6,132 49.165,132 l 0,0 c -0.139,0 -0.281,-0.031 -0.416,-0.101" /></clipPath><linearGradient
       id="linearGradient352"
       spreadMethod="pad"
       gradientTransform="matrix(5.9119968,-5.9119968,-5.9119968,-5.9119968,44.671776,130.9559)"
       gradientUnits="userSpaceOnUse"
       y2="0"
       x2="1"
       y1="0"
       x1="0"><stop
         id="stop354"
         offset="0"
         style="stop-opacity:1;stop-color:#e6e7e8" /><stop
         id="stop356"
         offset="1"
         style="stop-opacity:1;stop-color:#d1d3d4" /></linearGradient><clipPath
       id="clipPath364"
       clipPathUnits="userSpaceOnUse"><path
         id="path366"
         d="m 70,131.256 0,-6.512 c 0,-0.572 0.695,-0.929 1.251,-0.643 l 0,0 6.332,3.256 c 0.556,0.286 0.556,1.001 0,1.286 l 0,0 -6.332,3.256 C 71.117,131.969 70.974,132 70.836,132 l 0,0 C 70.4,132 70,131.689 70,131.256" /></clipPath><linearGradient
       id="linearGradient372"
       spreadMethod="pad"
       gradientTransform="matrix(5.9119968,-5.9119968,-5.9119968,-5.9119968,69.416229,130.9561)"
       gradientUnits="userSpaceOnUse"
       y2="0"
       x2="1"
       y1="0"
       x1="0"><stop
         id="stop374"
         offset="0"
         style="stop-opacity:1;stop-color:#e6e7e8" /><stop
         id="stop376"
         offset="1"
         style="stop-opacity:1;stop-color:#d1d3d4" /></linearGradient><clipPath
       id="clipPath384"
       clipPathUnits="userSpaceOnUse"><path
         id="path386"
         d="m 59.357,145.583 -3.256,-6.332 C 55.814,138.694 56.172,138 56.744,138 l 0,0 6.512,0 c 0.572,0 0.929,0.694 0.643,1.251 l 0,0 -3.256,6.332 C 60.5,145.861 60.25,146 60,146 l 0,0 c -0.25,0 -0.501,-0.139 -0.643,-0.417" /></clipPath><linearGradient
       id="linearGradient392"
       spreadMethod="pad"
       gradientTransform="matrix(5.9121885,-5.9121885,-5.9121885,-5.9121885,57.043812,143.32832)"
       gradientUnits="userSpaceOnUse"
       y2="0"
       x2="1"
       y1="0"
       x1="0"><stop
         id="stop394"
         offset="0"
         style="stop-opacity:1;stop-color:#e6e7e8" /><stop
         id="stop396"
         offset="1"
         style="stop-opacity:1;stop-color:#d1d3d4" /></linearGradient><clipPath
       id="clipPath404"
       clipPathUnits="userSpaceOnUse"><path
         id="path406"
         d="m 56.744,118 c -0.572,0 -0.93,-0.695 -0.643,-1.251 l 0,0 3.256,-6.332 c 0.286,-0.556 1.001,-0.556 1.287,0 l 0,0 3.255,6.332 C 64.185,117.305 63.828,118 63.256,118 l 0,0 -6.512,0 z" /></clipPath><linearGradient
       id="linearGradient412"
       spreadMethod="pad"
       gradientTransform="matrix(5.9121885,-5.9121885,-5.9121885,-5.9121885,57.044002,118.58387)"
       gradientUnits="userSpaceOnUse"
       y2="0"
       x2="1"
       y1="0"
       x1="0"><stop
         id="stop414"
         offset="0"
         style="stop-opacity:1;stop-color:#e6e7e8" /><stop
         id="stop416"
         offset="1"
         style="stop-opacity:1;stop-color:#d1d3d4" /></linearGradient><clipPath
       id="clipPath424"
       clipPathUnits="userSpaceOnUse"><path
         id="path426"
         d="m 32,128 c 0,-15.464 12.536,-28 28,-28 l 0,0 c 15.464,0 28,12.536 28,28 l 0,0 c 0,15.464 -12.536,28 -28,28 l 0,0 C 44.536,156 32,143.464 32,128 m 2,0 c 0,14.337 11.663,26 26,26 l 0,0 c 14.336,0 26,-11.663 26,-26 l 0,0 C 86,113.664 74.336,102 60,102 l 0,0 c -14.337,0 -26,11.664 -26,26" /></clipPath><linearGradient
       id="linearGradient432"
       spreadMethod="pad"
       gradientTransform="matrix(-39.59798,39.59798,39.59798,39.59798,79.798988,108.20101)"
       gradientUnits="userSpaceOnUse"
       y2="0"
       x2="1"
       y1="0"
       x1="0"><stop
         id="stop434"
         offset="0"
         style="stop-opacity:1;stop-color:#e6e7e8" /><stop
         id="stop436"
         offset="1"
         style="stop-opacity:1;stop-color:#d1d3d4" /></linearGradient><clipPath
       id="clipPath444"
       clipPathUnits="userSpaceOnUse"><path
         id="path446"
         d="m 124,174 8,0 0,2.001 -8,0 0,-2.001 z" /></clipPath><linearGradient
       id="linearGradient452"
       spreadMethod="pad"
       gradientTransform="matrix(-5,5,5,5,130.5,172.5)"
       gradientUnits="userSpaceOnUse"
       y2="0"
       x2="1"
       y1="0"
       x1="0"><stop
         id="stop454"
         offset="0"
         style="stop-opacity:1;stop-color:#e6e7e8" /><stop
         id="stop456"
         offset="1"
         style="stop-opacity:1;stop-color:#d1d3d4" /></linearGradient></defs><g
     transform="matrix(1.25,0,0,-1.25,0,320)"
     id="g10"><g
       id="g12"><g
         clip-path="url(#clipPath16)"
         id="g14"><g
           id="g20"><g
             id="g22"><path
               id="path30"
               style="fill:url(#linearGradient24);stroke:none"
               d="m 172.315,177.37 c 0,0 -2.296,-0.404 -2.315,-2.022 l 0,0 L 224,164 c 0,0 -8.273,11.954 -24.144,13.37 l 0,0 c -5.29,0.472 -10.114,0.63 -14.194,0.63 l 0,0 c -8.161,0 -13.347,-0.63 -13.347,-0.63" /></g></g></g></g><g
       id="g32"><g
         clip-path="url(#clipPath36)"
         id="g34"><g
           id="g40"><g
             id="g42"><path
               id="path50"
               style="fill:url(#linearGradient44);stroke:none"
               d="M 56.144,177.37 C 40.272,175.954 32,164 32,164 l 0,0 54,11.348 c -0.018,1.618 -2.315,2.022 -2.315,2.022 l 0,0 c 0,0 -5.187,0.63 -13.347,0.63 l 0,0 c -4.08,0 -8.904,-0.158 -14.194,-0.63" /></g></g></g></g><g
       id="g52"><g
         clip-path="url(#clipPath56)"
         id="g54"><g
           id="g60"><g
             id="g62"><path
               id="path70"
               style="fill:url(#linearGradient64);stroke:none"
               d="M 59.6,176 C 33.991,176 12.682,155.368 12.016,129.28 l 0,0 C 11.325,102.185 32.671,80 59.101,80 l 0,0 c 9.969,0 19.213,3.158 26.825,8.543 l 0,0 c 2.695,1.907 5.924,2.874 9.205,2.874 l 0,0 65.767,0 c 3.28,0 6.498,-0.981 9.193,-2.886 l 0,0 c 7.697,-5.439 17.059,-8.603 27.152,-8.53 l 0,0 c 25.498,0.186 46.4,21.338 46.752,47.321 l 0,0 C 244.359,154.142 223.133,176 196.898,176 l 0,0 -137.298,0 z" /></g></g></g></g><g
       id="g72"><g
         clip-path="url(#clipPath76)"
         id="g74"><g
           transform="translate(240,128)"
           id="g80"><path
             id="path82"
             style="fill:#999999;fill-opacity:1;fill-rule:nonzero;stroke:none"
             d="m 0,0 c 0,-24.301 -19.699,-44 -44,-44 -24.301,0 -44,19.699 -44,44 0,24.301 19.699,44 44,44 C -19.699,44 0,24.301 0,0" /></g><g
           transform="translate(78,136)"
           id="g84"><path
             id="path86"
             style="fill:#999999;fill-opacity:1;fill-rule:nonzero;stroke:none"
             d="m 0,0 -10,0 0,10 c 0,1.105 -0.895,2 -2,2 l -12,0 c -1.105,0 -2,-0.895 -2,-2 l 0,-10 -10,0 c -1.105,0 -2,-0.895 -2,-2 l 0,-12 c 0,-1.105 0.895,-2 2,-2 l 10,0 0,-10 c 0,-1.105 0.895,-2 2,-2 l 12,0 c 1.105,0 2,0.895 2,2 l 0,10 10,0 c 1.105,0 2,0.895 2,2 L 2,-2 C 2,-0.895 1.105,0 0,0" /></g></g></g><g
       id="g88"><g
         clip-path="url(#clipPath92)"
         id="g90"><g
           id="g96"><g
             id="g98"><path
               id="path106"
               style="fill:url(#linearGradient100);stroke:none"
               d="m 56,128 c 0,-2.21 1.791,-4 4,-4 l 0,0 c 2.209,0 4,1.79 4,4 l 0,0 c 0,2.209 -1.791,4 -4,4 l 0,0 c -2.209,0 -4,-1.791 -4,-4" /></g></g></g></g><g
       id="g108"><g
         clip-path="url(#clipPath112)"
         id="g110"><g
           id="g116"><g
             id="g118"><path
               id="path126"
               style="fill:url(#linearGradient120);stroke:none"
               d="m 189.357,153.985 -0.001,0.002 -0.02,-0.015 c -0.053,-0.035 -0.104,-0.074 -0.156,-0.111 l 0,0 -22.975,-16.36 c -0.773,-0.428 -1.487,-0.945 -2.144,-1.527 l 0,0 -0.061,-0.043 0.005,-0.008 C 161.554,133.725 160,130.544 160,127 l 0,0 c 0,-6.617 5.383,-12 12,-12 l 0,0 c 2.185,0 4.229,0.596 5.995,1.62 l 0,0 0.005,-0.006 0.102,0.071 c 0.575,0.342 1.122,0.724 1.631,1.153 l 0,0 22.769,16.091 c 0.235,0.152 0.461,0.315 0.683,0.482 l 0,0 0.004,0.003 c 2.915,2.192 4.811,5.667 4.811,9.586 l 0,0 c 0,6.617 -5.383,12 -12,12 l 0,0 c -2.455,0 -4.739,-0.744 -6.643,-2.015" /></g></g></g></g><g
       id="g128"><g
         clip-path="url(#clipPath132)"
         id="g130"><g
           transform="translate(172.0001,135)"
           id="g136"><path
             id="path138"
             style="fill:#999999;fill-opacity:1;fill-rule:nonzero;stroke:none"
             d="m 0,0 c -4.418,0 -8,-3.582 -8,-8 0,-4.418 3.582,-8 8,-8 4.418,0 8,3.582 8,8 0,4.418 -3.582,8 -8,8" /></g></g></g><g
       id="g140"><g
         clip-path="url(#clipPath144)"
         id="g142"><g
           id="g148"><g
             id="g150"><path
               id="path158"
               style="fill:url(#linearGradient152);stroke:none"
               d="m 163,127 c 0,-4.963 4.037,-9 9,-9 l 0,0 c 4.962,0 9,4.037 9,9 l 0,0 c 0,4.962 -4.038,9 -9,9 l 0,0 c -4.963,0 -9,-4.038 -9,-9 m 1,0 c 0,4.418 3.582,8 8,8 l 0,0 c 4.418,0 8,-3.582 8,-8 l 0,0 c 0,-4.418 -3.582,-8 -8,-8 l 0,0 c -4.418,0 -8,3.582 -8,8" /></g></g></g></g><g
       id="g160"><g
         clip-path="url(#clipPath164)"
         id="g162"><g
           transform="translate(196.0001,152)"
           id="g168"><path
             id="path170"
             style="fill:#999999;fill-opacity:1;fill-rule:nonzero;stroke:none"
             d="m 0,0 c -4.418,0 -8,-3.582 -8,-8 0,-4.418 3.582,-8 8,-8 4.418,0 8,3.582 8,8 0,4.418 -3.582,8 -8,8" /></g></g></g><g
       id="g172"><g
         clip-path="url(#clipPath176)"
         id="g174"><g
           id="g180"><g
             id="g182"><path
               id="path190"
               style="fill:url(#linearGradient184);stroke:none"
               d="m 187,144 c 0,-4.963 4.038,-9 9,-9 l 0,0 c 4.963,0 9,4.037 9,9 l 0,0 c 0,4.963 -4.037,9 -9,9 l 0,0 c -4.962,0 -9,-4.037 -9,-9 m 1,0 c 0,4.418 3.582,8 8,8 l 0,0 c 4.418,0 8,-3.582 8,-8 l 0,0 c 0,-4.418 -3.582,-8 -8,-8 l 0,0 c -4.418,0 -8,3.582 -8,8" /></g></g></g></g><g
       id="g192"><g
         clip-path="url(#clipPath196)"
         id="g194"><g
           id="g200"><g
             id="g202"><path
               id="path210"
               style="fill:url(#linearGradient204);stroke:none"
               d="m 213.358,134.986 -0.002,0 -0.021,-0.014 c -0.052,-0.035 -0.103,-0.074 -0.155,-0.111 l 0,0 -22.975,-16.361 c -0.773,-0.427 -1.488,-0.944 -2.144,-1.526 l 0,0 -0.061,-0.043 0.005,-0.007 C 185.554,114.725 184,111.544 184,108 l 0,0 c 0,-6.617 5.383,-12 12,-12 l 0,0 c 2.184,0 4.228,0.596 5.995,1.62 l 0,0 0.005,-0.006 0.101,0.071 c 0.575,0.342 1.124,0.724 1.632,1.153 l 0,0 22.769,16.091 c 0.234,0.152 0.46,0.315 0.683,0.482 l 0,0 0.004,0.003 c 2.914,2.192 4.811,5.667 4.811,9.586 l 0,0 c 0,6.617 -5.383,12 -11.999,12 l 0,0 c -2.457,0 -4.74,-0.744 -6.643,-2.014" /></g></g></g></g><g
       id="g212"><g
         clip-path="url(#clipPath216)"
         id="g214"><g
           transform="translate(195.9999,116)"
           id="g220"><path
             id="path222"
             style="fill:#999999;fill-opacity:1;fill-rule:nonzero;stroke:none"
             d="m 0,0 c -4.418,0 -8,-3.582 -8,-8 0,-4.418 3.582,-8 8,-8 4.418,0 8,3.582 8,8 0,4.418 -3.582,8 -8,8" /></g></g></g><g
       id="g224"><g
         clip-path="url(#clipPath228)"
         id="g226"><g
           id="g232"><g
             id="g234"><path
               id="path242"
               style="fill:url(#linearGradient236);stroke:none"
               d="m 187,108 c 0,-4.963 4.038,-9 9,-9 l 0,0 c 4.963,0 9,4.037 9,9 l 0,0 c 0,4.963 -4.037,9 -9,9 l 0,0 c -4.962,0 -9,-4.037 -9,-9 m 1,0 c 0,4.418 3.581,8 8,8 l 0,0 c 4.418,0 8,-3.582 8,-8 l 0,0 c 0,-4.418 -3.582,-8 -8,-8 l 0,0 c -4.419,0 -8,3.582 -8,8" /></g></g></g></g><g
       id="g244"><g
         clip-path="url(#clipPath248)"
         id="g246"><g
           transform="translate(220.0001,133)"
           id="g252"><path
             id="path254"
             style="fill:#999999;fill-opacity:1;fill-rule:nonzero;stroke:none"
             d="m 0,0 c -4.418,0 -8,-3.582 -8,-8 0,-4.418 3.582,-8 8,-8 4.418,0 8,3.582 8,8 0,4.418 -3.582,8 -8,8" /></g></g></g><g
       id="g256"><g
         clip-path="url(#clipPath260)"
         id="g258"><g
           id="g264"><g
             id="g266"><path
               id="path274"
               style="fill:url(#linearGradient268);stroke:none"
               d="m 211,125 c 0,-4.962 4.037,-9 9.001,-9 l 0,0 c 4.962,0 8.999,4.038 8.999,9 l 0,0 c 0,4.963 -4.037,9 -8.999,9 l 0,0 C 215.037,134 211,129.963 211,125 m 1,0 c 0,4.418 3.581,8 8.001,8 l 0,0 c 4.418,0 7.999,-3.582 7.999,-8 l 0,0 c 0,-4.418 -3.581,-8 -7.999,-8 l 0,0 c -4.42,0 -8.001,3.582 -8.001,8" /></g></g></g></g><g
       id="g276"><g
         clip-path="url(#clipPath280)"
         id="g278"><g
           transform="translate(139.3874,118.9889)"
           id="g284"><path
             id="path286"
             style="fill:#999999;fill-opacity:1;fill-rule:nonzero;stroke:none"
             d="m 0,0 c -0.567,0.643 -1.427,1.011 -2.36,1.011 -0.658,0 -1.283,-0.184 -1.806,-0.534 l -10.249,-6.833 c -1.3,-0.867 -1.546,-2.492 -0.549,-3.622 0.567,-0.642 1.427,-1.011 2.36,-1.011 0.658,0 1.283,0.185 1.806,0.534 l 10.249,6.833 C 0.751,-2.755 0.997,-1.13 0,0" /></g></g></g><g
       id="g288"><g
         clip-path="url(#clipPath292)"
         id="g290"><g
           id="g296"><g
             id="g298"><path
               id="path306"
               style="fill:url(#linearGradient300);stroke:none"
               d="m 134.666,120.299 -10.248,-6.834 c -0.876,-0.584 -1.452,-1.482 -1.58,-2.462 l 0,0 c -0.125,-0.958 0.171,-1.901 0.836,-2.654 l 0,0 c 0.756,-0.857 1.89,-1.349 3.109,-1.349 l 0,0 c 0.857,0 1.673,0.242 2.362,0.701 l 0,0 10.249,6.834 c 0.875,0.584 1.451,1.481 1.578,2.461 l 0,0 c 0.125,0.96 -0.171,1.902 -0.835,2.654 l 0,0 c -0.756,0.858 -1.89,1.35 -3.109,1.35 l 0,0 c -0.857,0 -1.674,-0.242 -2.362,-0.701 m -10.243,-11.288 c -0.997,1.13 -0.75,2.755 0.55,3.622 l 0,0 10.248,6.833 c 0.523,0.35 1.149,0.534 1.807,0.534 l 0,0 c 0.932,0 1.792,-0.368 2.359,-1.011 l 0,0 c 0.998,-1.13 0.751,-2.755 -0.548,-3.622 l 0,0 -10.25,-6.833 C 128.066,108.185 127.442,108 126.783,108 l 0,0 c -0.932,0 -1.793,0.369 -2.36,1.011" /></g></g></g></g><g
       id="g308"><g
         clip-path="url(#clipPath312)"
         id="g310"><g
           transform="translate(113.2183,120)"
           id="g316"><path
             id="path318"
             style="fill:#999999;fill-opacity:1;fill-rule:nonzero;stroke:none"
             d="m 0,0 c -0.658,0 -1.283,-0.184 -1.806,-0.534 l -10.249,-6.833 c -0.63,-0.42 -1.034,-1.028 -1.137,-1.712 -0.104,-0.684 0.105,-1.362 0.588,-1.91 0.567,-0.642 1.427,-1.011 2.36,-1.011 0.658,0 1.283,0.185 1.806,0.534 l 10.249,6.833 c 0.629,0.42 1.033,1.028 1.137,1.712 0.104,0.684 -0.105,1.362 -0.588,1.91 C 1.793,-0.368 0.933,0 0,0" /></g></g></g><g
       id="g320"><g
         clip-path="url(#clipPath324)"
         id="g322"><g
           id="g328"><g
             id="g330"><path
               id="path338"
               style="fill:url(#linearGradient332);stroke:none"
               d="m 110.857,120.299 -10.248,-6.834 c -0.867,-0.578 -1.425,-1.429 -1.572,-2.394 l 0,0 c -0.149,-0.982 0.145,-1.949 0.827,-2.722 l 0,0 c 0.757,-0.857 1.891,-1.349 3.11,-1.349 l 0,0 c 0.856,0 1.673,0.242 2.361,0.701 l 0,0 10.248,6.834 c 0.867,0.578 1.426,1.428 1.572,2.394 l 0,0 c 0.149,0.982 -0.145,1.948 -0.827,2.721 l 0,0 c -0.757,0.858 -1.89,1.35 -3.11,1.35 l 0,0 c -0.857,0 -1.673,-0.242 -2.361,-0.701 m -10.243,-11.288 c -0.483,0.548 -0.691,1.226 -0.588,1.91 l 0,0 c 0.104,0.684 0.508,1.292 1.138,1.712 l 0,0 10.248,6.833 c 0.524,0.35 1.148,0.534 1.806,0.534 l 0,0 c 0.933,0 1.793,-0.368 2.36,-1.011 l 0,0 c 0.483,-0.547 0.692,-1.226 0.589,-1.91 l 0,0 c -0.104,-0.684 -0.508,-1.292 -1.138,-1.712 l 0,0 -10.248,-6.833 C 104.257,108.185 103.632,108 102.974,108 l 0,0 c -0.933,0 -1.793,0.369 -2.36,1.011" /></g></g></g></g><g
       id="g340"><g
         clip-path="url(#clipPath344)"
         id="g342"><g
           id="g348"><g
             id="g350"><path
               id="path358"
               style="fill:url(#linearGradient352);stroke:none"
               d="m 48.749,131.899 -6.332,-3.256 c -0.556,-0.286 -0.556,-1 0,-1.287 l 0,0 6.332,-3.255 c 0.556,-0.286 1.251,0.071 1.251,0.643 l 0,0 0,6.512 C 50,131.689 49.6,132 49.165,132 l 0,0 c -0.139,0 -0.281,-0.031 -0.416,-0.101" /></g></g></g></g><g
       id="g360"><g
         clip-path="url(#clipPath364)"
         id="g362"><g
           id="g368"><g
             id="g370"><path
               id="path378"
               style="fill:url(#linearGradient372);stroke:none"
               d="m 70,131.256 0,-6.512 c 0,-0.572 0.695,-0.929 1.251,-0.643 l 0,0 6.332,3.256 c 0.556,0.286 0.556,1.001 0,1.286 l 0,0 -6.332,3.256 C 71.117,131.969 70.974,132 70.836,132 l 0,0 C 70.4,132 70,131.689 70,131.256" /></g></g></g></g><g
       id="g380"><g
         clip-path="url(#clipPath384)"
         id="g382"><g
           id="g388"><g
             id="g390"><path
               id="path398"
               style="fill:url(#linearGradient392);stroke:none"
               d="m 59.357,145.583 -3.256,-6.332 C 55.814,138.694 56.172,138 56.744,138 l 0,0 6.512,0 c 0.572,0 0.929,0.694 0.643,1.251 l 0,0 -3.256,6.332 C 60.5,145.861 60.25,146 60,146 l 0,0 c -0.25,0 -0.501,-0.139 -0.643,-0.417" /></g></g></g></g><g
       id="g400"><g
         clip-path="url(#clipPath404)"
         id="g402"><g
           id="g408"><g
             id="g410"><path
               id="path418"
               style="fill:url(#linearGradient412);stroke:none"
               d="m 56.744,118 c -0.572,0 -0.93,-0.695 -0.643,-1.251 l 0,0 3.256,-6.332 c 0.286,-0.556 1.001,-0.556 1.287,0 l 0,0 3.255,6.332 C 64.185,117.305 63.828,118 63.256,118 l 0,0 -6.512,0 z" /></g></g></g></g><g
       id="g420"><g
         clip-path="url(#clipPath424)"
         id="g422"><g
           id="g428"><g
             id="g430"><path
               id="path438"
               style="fill:url(#linearGradient432);stroke:none"
               d="m 32,128 c 0,-15.464 12.536,-28 28,-28 l 0,0 c 15.464,0 28,12.536 28,28 l 0,0 c 0,15.464 -12.536,28 -28,28 l 0,0 C 44.536,156 32,143.464 32,128 m 2,0 c 0,14.337 11.663,26 26,26 l 0,0 c 14.336,0 26,-11.663 26,-26 l 0,0 C 86,113.664 74.336,102 60,102 l 0,0 c -14.337,0 -26,11.664 -26,26" /></g></g></g></g><g
       id="g440"><g
         clip-path="url(#clipPath444)"
         id="g442"><g
           id="g448"><g
             id="g450"><path
               id="path458"
               style="fill:url(#linearGradient452);stroke:none"
               d="m 124,174 8,0 0,2.001 -8,0 0,-2.001 z" /></g></g></g></g></g></svg>