<?xml version="1.0" encoding="UTF-8" standalone="no"?>
<svg
   xmlns:dc="http://purl.org/dc/elements/1.1/"
   xmlns:cc="http://creativecommons.org/ns#"
   xmlns:rdf="http://www.w3.org/1999/02/22-rdf-syntax-ns#"
   xmlns:svg="http://www.w3.org/2000/svg"
   xmlns="http://www.w3.org/2000/svg"
   viewBox="0 0 320 320"
   height="320"
   width="320"
   xml:space="preserve"
   version="1.1"
   id="svg2"><metadata
     id="metadata8"><rdf:RDF><cc:Work
         rdf:about=""><dc:format>image/svg+xml</dc:format><dc:type
           rdf:resource="http://purl.org/dc/dcmitype/StillImage" /></cc:Work></rdf:RDF></metadata><defs
     id="defs6"><clipPath
       id="clipPath18"
       clipPathUnits="userSpaceOnUse"><path
         id="path20"
         d="m 12,68 0,-22.563 c 0,-0.005 0,-0.01 0,-0.016 l 0,0 C 12.005,44.619 12.722,44 13.525,44 l 0,0 228.949,0 c 0.803,0 1.521,0.619 1.526,1.421 l 0,0 c 0,0.006 0,0.011 0,0.016 l 0,0 L 244,68 12,68 Z" /></clipPath><linearGradient
       id="linearGradient26"
       spreadMethod="pad"
       gradientTransform="matrix(127.56461,-127.56461,-127.56461,-127.56461,64.217674,120.2177)"
       gradientUnits="userSpaceOnUse"
       y2="0"
       x2="1"
       y1="0"
       x1="0"><stop
         id="stop28"
         offset="0"
         style="stop-opacity:1;stop-color:#e6e7e8" /><stop
         id="stop30"
         offset="1"
         style="stop-opacity:1;stop-color:#d1d3d4" /></linearGradient><clipPath
       id="clipPath38"
       clipPathUnits="userSpaceOnUse"><path
         id="path40"
         d="m 12,96 0,-22.563 c 0,-0.51 0.151,-0.978 0.313,-1.437 l 0,0 231.375,0 c 0.162,0.459 0.312,0.927 0.312,1.437 l 0,0 L 244,96 12,96 Z" /></clipPath><linearGradient
       id="linearGradient46"
       spreadMethod="pad"
       gradientTransform="matrix(127.84377,-127.84377,-127.84377,-127.84377,64.078094,148.07811)"
       gradientUnits="userSpaceOnUse"
       y2="0"
       x2="1"
       y1="0"
       x1="0"><stop
         id="stop48"
         offset="0"
         style="stop-opacity:1;stop-color:#e6e7e8" /><stop
         id="stop50"
         offset="1"
         style="stop-opacity:1;stop-color:#d1d3d4" /></linearGradient><clipPath
       id="clipPath58"
       clipPathUnits="userSpaceOnUse"><path
         id="path60"
         d="m 12,124 0,-22.563 c 0,-0.51 0.151,-0.977 0.313,-1.437 l 0,0 231.375,0 c 0.162,0.46 0.312,0.927 0.312,1.437 l 0,0 0,22.563 -232,0 z" /></clipPath><linearGradient
       id="linearGradient66"
       spreadMethod="pad"
       gradientTransform="matrix(127.84377,-127.84377,-127.84377,-127.84377,64.078094,176.07811)"
       gradientUnits="userSpaceOnUse"
       y2="0"
       x2="1"
       y1="0"
       x1="0"><stop
         id="stop68"
         offset="0"
         style="stop-opacity:1;stop-color:#e6e7e8" /><stop
         id="stop70"
         offset="1"
         style="stop-opacity:1;stop-color:#d1d3d4" /></linearGradient><clipPath
       id="clipPath78"
       clipPathUnits="userSpaceOnUse"><path
         id="path80"
         d="m 12,152 0,-22.563 c 0,-0.51 0.151,-0.977 0.313,-1.437 l 0,0 231.375,0 c 0.162,0.46 0.312,0.927 0.312,1.437 l 0,0 0,22.563 -232,0 z" /></clipPath><linearGradient
       id="linearGradient86"
       spreadMethod="pad"
       gradientTransform="matrix(127.84377,-127.84377,-127.84377,-127.84377,64.078094,204.07811)"
       gradientUnits="userSpaceOnUse"
       y2="0"
       x2="1"
       y1="0"
       x1="0"><stop
         id="stop88"
         offset="0"
         style="stop-opacity:1;stop-color:#e6e7e8" /><stop
         id="stop90"
         offset="1"
         style="stop-opacity:1;stop-color:#d1d3d4" /></linearGradient><clipPath
       id="clipPath98"
       clipPathUnits="userSpaceOnUse"><path
         id="path100"
         d="m 12,180 0,-22.563 c 0,-0.51 0.151,-0.977 0.313,-1.437 l 0,0 231.375,0 c 0.162,0.46 0.312,0.927 0.312,1.437 l 0,0 0,22.563 -232,0 z" /></clipPath><linearGradient
       id="linearGradient106"
       spreadMethod="pad"
       gradientTransform="matrix(127.84377,-127.84377,-127.84377,-127.84377,64.078094,232.07811)"
       gradientUnits="userSpaceOnUse"
       y2="0"
       x2="1"
       y1="0"
       x1="0"><stop
         id="stop108"
         offset="0"
         style="stop-opacity:1;stop-color:#e6e7e8" /><stop
         id="stop110"
         offset="1"
         style="stop-opacity:1;stop-color:#d1d3d4" /></linearGradient><clipPath
       id="clipPath118"
       clipPathUnits="userSpaceOnUse"><path
         id="path120"
         d="m 14,208 c -1.105,0 -2,-0.896 -2,-2 l 0,0 0,-20.563 c 0,-0.51 0.151,-0.977 0.313,-1.437 l 0,0 231.375,0 c 0.162,0.46 0.312,0.927 0.312,1.437 l 0,0 0,20.563 c 0,1.104 -0.896,2 -2,2 l 0,0 -228,0 z" /></clipPath><linearGradient
       id="linearGradient126"
       spreadMethod="pad"
       gradientTransform="matrix(127.25797,-127.25797,-127.25797,-127.25797,64.370987,259.19943)"
       gradientUnits="userSpaceOnUse"
       y2="0"
       x2="1"
       y1="0"
       x1="0"><stop
         id="stop128"
         offset="0"
         style="stop-opacity:1;stop-color:#e6e7e8" /><stop
         id="stop130"
         offset="1"
         style="stop-opacity:1;stop-color:#d1d3d4" /></linearGradient><clipPath
       id="clipPath138"
       clipPathUnits="userSpaceOnUse"><path
         id="path140"
         d="m 53,212 c -0.553,0 -1,-0.448 -1,-1 l 0,0 0,-167 152,0 0,167 c 0,0.552 -0.448,1 -1.001,1 l 0,0 L 53,212 Z" /></clipPath><linearGradient
       id="linearGradient146"
       spreadMethod="pad"
       gradientTransform="matrix(-159.70711,159.70711,159.70711,159.70711,207.85347,47.853554)"
       gradientUnits="userSpaceOnUse"
       y2="0"
       x2="1"
       y1="0"
       x1="0"><stop
         id="stop148"
         offset="0"
         style="stop-opacity:1;stop-color:#e6e7e8" /><stop
         id="stop150"
         offset="1"
         style="stop-opacity:1;stop-color:#d1d3d4" /></linearGradient><clipPath
       id="clipPath158"
       clipPathUnits="userSpaceOnUse"><path
         id="path160"
         d="M 0,256 256,256 256,0 0,0 0,256 Z" /></clipPath><clipPath
       id="clipPath170"
       clipPathUnits="userSpaceOnUse"><path
         id="path172"
         d="m 160,210 31.999,0 0,2.001 -31.999,0 0,-2.001 z" /></clipPath><linearGradient
       id="linearGradient178"
       spreadMethod="pad"
       gradientTransform="matrix(17,-17,-17,-17,167.5,219.5)"
       gradientUnits="userSpaceOnUse"
       y2="0"
       x2="1"
       y1="0"
       x1="0"><stop
         id="stop180"
         offset="0"
         style="stop-opacity:1;stop-color:#e6e7e8" /><stop
         id="stop182"
         offset="1"
         style="stop-opacity:1;stop-color:#d1d3d4" /></linearGradient><clipPath
       id="clipPath190"
       clipPathUnits="userSpaceOnUse"><path
         id="path192"
         d="M 0,256 256,256 256,0 0,0 0,256 Z" /></clipPath><clipPath
       id="clipPath200"
       clipPathUnits="userSpaceOnUse"><path
         id="path202"
         d="m 172,168 20,0 0,28 -20,0 0,-28 z" /></clipPath><linearGradient
       id="linearGradient208"
       spreadMethod="pad"
       gradientTransform="matrix(23.999998,-23.999998,-23.999998,-23.999998,170,194)"
       gradientUnits="userSpaceOnUse"
       y2="0"
       x2="1"
       y1="0"
       x1="0"><stop
         id="stop210"
         offset="0"
         style="stop-opacity:1;stop-color:#e6e7e8" /><stop
         id="stop212"
         offset="1"
         style="stop-opacity:1;stop-color:#d1d3d4" /></linearGradient><clipPath
       id="clipPath220"
       clipPathUnits="userSpaceOnUse"><path
         id="path222"
         d="m 64,196 2,-2 2,2 -4,0 z" /></clipPath><linearGradient
       id="linearGradient228"
       spreadMethod="pad"
       gradientTransform="matrix(1.9999999,-1.9999999,-1.9999999,-1.9999999,65,197)"
       gradientUnits="userSpaceOnUse"
       y2="0"
       x2="1"
       y1="0"
       x1="0"><stop
         id="stop230"
         offset="0"
         style="stop-opacity:1;stop-color:#e6e7e8" /><stop
         id="stop232"
         offset="1"
         style="stop-opacity:1;stop-color:#d1d3d4" /></linearGradient><clipPath
       id="clipPath240"
       clipPathUnits="userSpaceOnUse"><path
         id="path242"
         d="M 0,256 256,256 256,0 0,0 0,256 Z" /></clipPath><clipPath
       id="clipPath252"
       clipPathUnits="userSpaceOnUse"><path
         id="path254"
         d="m 26,56 c 0,-2.209 1.791,-4 4,-4 l 0,0 c 2.209,0 4,1.791 4,4 l 0,0 c 0,2.209 -1.791,4 -4,4 l 0,0 c -2.209,0 -4,-1.791 -4,-4" /></clipPath><linearGradient
       id="linearGradient260"
       spreadMethod="pad"
       gradientTransform="matrix(5.6568542,-5.6568542,-5.6568542,-5.6568542,27.171574,58.828426)"
       gradientUnits="userSpaceOnUse"
       y2="0"
       x2="1"
       y1="0"
       x1="0"><stop
         id="stop262"
         offset="0"
         style="stop-opacity:1;stop-color:#e6e7e8" /><stop
         id="stop264"
         offset="1"
         style="stop-opacity:1;stop-color:#d1d3d4" /></linearGradient><clipPath
       id="clipPath272"
       clipPathUnits="userSpaceOnUse"><path
         id="path274"
         d="M 0,256 256,256 256,0 0,0 0,256 Z" /></clipPath><clipPath
       id="clipPath284"
       clipPathUnits="userSpaceOnUse"><path
         id="path286"
         d="m 222,56 c 0,-2.209 1.791,-4 4,-4 l 0,0 c 2.209,0 4,1.791 4,4 l 0,0 c 0,2.209 -1.791,4 -4,4 l 0,0 c -2.209,0 -4,-1.791 -4,-4" /></clipPath><linearGradient
       id="linearGradient292"
       spreadMethod="pad"
       gradientTransform="matrix(5.6568542,-5.6568542,-5.6568542,-5.6568542,223.17157,58.828426)"
       gradientUnits="userSpaceOnUse"
       y2="0"
       x2="1"
       y1="0"
       x1="0"><stop
         id="stop294"
         offset="0"
         style="stop-opacity:1;stop-color:#e6e7e8" /><stop
         id="stop296"
         offset="1"
         style="stop-opacity:1;stop-color:#d1d3d4" /></linearGradient><clipPath
       id="clipPath304"
       clipPathUnits="userSpaceOnUse"><path
         id="path306"
         d="m 66,108 c -3.3,0 -6,-2.7 -6,-6 l 0,0 c 0,-3.3 2.7,-6 6,-6 l 0,0 124,0 c 3.3,0 6,2.7 6,6 l 0,0 c 0,3.3 -2.7,6 -6,6 l 0,0 -124,0 z" /></clipPath><linearGradient
       id="linearGradient312"
       spreadMethod="pad"
       gradientTransform="matrix(0,12,12,0,128,96)"
       gradientUnits="userSpaceOnUse"
       y2="0"
       x2="1"
       y1="0"
       x1="0"><stop
         id="stop314"
         offset="0"
         style="stop-opacity:1;stop-color:#e6e7e8" /><stop
         id="stop316"
         offset="1"
         style="stop-opacity:1;stop-color:#d1d3d4" /></linearGradient><clipPath
       id="clipPath324"
       clipPathUnits="userSpaceOnUse"><path
         id="path326"
         d="M 0,256 256,256 256,0 0,0 0,256 Z" /></clipPath></defs><g
     transform="matrix(1.25,0,0,-1.25,0,320)"
     id="g10"><path
       id="path12"
       style="fill:#999999;fill-opacity:1;fill-rule:nonzero;stroke:none"
       d="m 240,64 -224,0 0,124 224,0 0,-124 z" /><g
       id="g14"><g
         clip-path="url(#clipPath18)"
         id="g16"><g
           id="g22"><g
             id="g24"><path
               id="path32"
               style="fill:url(#linearGradient26);stroke:none"
               d="m 12,68 0,-22.563 c 0,-0.005 0,-0.01 0,-0.016 l 0,0 C 12.005,44.619 12.722,44 13.525,44 l 0,0 228.949,0 c 0.803,0 1.521,0.619 1.526,1.421 l 0,0 c 0,0.006 0,0.011 0,0.016 l 0,0 L 244,68 12,68 Z" /></g></g></g></g><g
       id="g34"><g
         clip-path="url(#clipPath38)"
         id="g36"><g
           id="g42"><g
             id="g44"><path
               id="path52"
               style="fill:url(#linearGradient46);stroke:none"
               d="m 12,96 0,-22.563 c 0,-0.51 0.151,-0.978 0.313,-1.437 l 0,0 231.375,0 c 0.162,0.459 0.312,0.927 0.312,1.437 l 0,0 L 244,96 12,96 Z" /></g></g></g></g><g
       id="g54"><g
         clip-path="url(#clipPath58)"
         id="g56"><g
           id="g62"><g
             id="g64"><path
               id="path72"
               style="fill:url(#linearGradient66);stroke:none"
               d="m 12,124 0,-22.563 c 0,-0.51 0.151,-0.977 0.313,-1.437 l 0,0 231.375,0 c 0.162,0.46 0.312,0.927 0.312,1.437 l 0,0 0,22.563 -232,0 z" /></g></g></g></g><g
       id="g74"><g
         clip-path="url(#clipPath78)"
         id="g76"><g
           id="g82"><g
             id="g84"><path
               id="path92"
               style="fill:url(#linearGradient86);stroke:none"
               d="m 12,152 0,-22.563 c 0,-0.51 0.151,-0.977 0.313,-1.437 l 0,0 231.375,0 c 0.162,0.46 0.312,0.927 0.312,1.437 l 0,0 0,22.563 -232,0 z" /></g></g></g></g><g
       id="g94"><g
         clip-path="url(#clipPath98)"
         id="g96"><g
           id="g102"><g
             id="g104"><path
               id="path112"
               style="fill:url(#linearGradient106);stroke:none"
               d="m 12,180 0,-22.563 c 0,-0.51 0.151,-0.977 0.313,-1.437 l 0,0 231.375,0 c 0.162,0.46 0.312,0.927 0.312,1.437 l 0,0 0,22.563 -232,0 z" /></g></g></g></g><g
       id="g114"><g
         clip-path="url(#clipPath118)"
         id="g116"><g
           id="g122"><g
             id="g124"><path
               id="path132"
               style="fill:url(#linearGradient126);stroke:none"
               d="m 14,208 c -1.105,0 -2,-0.896 -2,-2 l 0,0 0,-20.563 c 0,-0.51 0.151,-0.977 0.313,-1.437 l 0,0 231.375,0 c 0.162,0.46 0.312,0.927 0.312,1.437 l 0,0 0,20.563 c 0,1.104 -0.896,2 -2,2 l 0,0 -228,0 z" /></g></g></g></g><g
       id="g134"><g
         clip-path="url(#clipPath138)"
         id="g136"><g
           id="g142"><g
             id="g144"><path
               id="path152"
               style="fill:url(#linearGradient146);stroke:none"
               d="m 53,212 c -0.553,0 -1,-0.448 -1,-1 l 0,0 0,-167 152,0 0,167 c 0,0.552 -0.448,1 -1.001,1 l 0,0 L 53,212 Z" /></g></g></g></g><g
       id="g154"><g
         clip-path="url(#clipPath158)"
         id="g156"><g
           transform="translate(195,132)"
           id="g162"><path
             id="path164"
             style="fill:#999999;fill-opacity:1;fill-rule:nonzero;stroke:none"
             d="m 0,0 -134,0 c -0.552,0 -1,0.448 -1,1 l 0,79 L 1,80 1,1 C 1,0.448 0.552,0 0,0" /></g></g></g><g
       id="g166"><g
         clip-path="url(#clipPath170)"
         id="g168"><g
           id="g174"><g
             id="g176"><path
               id="path184"
               style="fill:url(#linearGradient178);stroke:none"
               d="m 160,210 31.999,0 0,2.001 -31.999,0 0,-2.001 z" /></g></g></g></g><g
       id="g186"><g
         clip-path="url(#clipPath190)"
         id="g188"><path
           id="path194"
           style="fill:#ffffff;fill-opacity:1;fill-rule:nonzero;stroke:none"
           d="m 156,152 -72,0 0,60 72,0 0,-60 z" /></g></g><g
       id="g196"><g
         clip-path="url(#clipPath200)"
         id="g198"><g
           id="g204"><g
             id="g206"><path
               id="path214"
               style="fill:url(#linearGradient208);stroke:none"
               d="m 172,168 20,0 0,28 -20,0 0,-28 z" /></g></g></g></g><g
       id="g216"><g
         clip-path="url(#clipPath220)"
         id="g218"><g
           id="g224"><g
             id="g226"><path
               id="path234"
               style="fill:url(#linearGradient228);stroke:none"
               d="m 64,196 2,-2 2,2 -4,0 z" /></g></g></g></g><g
       id="g236"><g
         clip-path="url(#clipPath240)"
         id="g238"><g
           transform="translate(30,62)"
           id="g244"><path
             id="path246"
             style="fill:#999999;fill-opacity:1;fill-rule:nonzero;stroke:none"
             d="m 0,0 c -3.314,0 -6,-2.686 -6,-6 0,-3.314 2.686,-6 6,-6 3.314,0 6,2.686 6,6 0,3.314 -2.686,6 -6,6" /></g></g></g><g
       id="g248"><g
         clip-path="url(#clipPath252)"
         id="g250"><g
           id="g256"><g
             id="g258"><path
               id="path266"
               style="fill:url(#linearGradient260);stroke:none"
               d="m 26,56 c 0,-2.209 1.791,-4 4,-4 l 0,0 c 2.209,0 4,1.791 4,4 l 0,0 c 0,2.209 -1.791,4 -4,4 l 0,0 c -2.209,0 -4,-1.791 -4,-4" /></g></g></g></g><g
       id="g268"><g
         clip-path="url(#clipPath272)"
         id="g270"><g
           transform="translate(226,62)"
           id="g276"><path
             id="path278"
             style="fill:#999999;fill-opacity:1;fill-rule:nonzero;stroke:none"
             d="m 0,0 c -3.314,0 -6,-2.686 -6,-6 0,-3.314 2.686,-6 6,-6 3.314,0 6,2.686 6,6 0,3.314 -2.686,6 -6,6" /></g></g></g><g
       id="g280"><g
         clip-path="url(#clipPath284)"
         id="g282"><g
           id="g288"><g
             id="g290"><path
               id="path298"
               style="fill:url(#linearGradient292);stroke:none"
               d="m 222,56 c 0,-2.209 1.791,-4 4,-4 l 0,0 c 2.209,0 4,1.791 4,4 l 0,0 c 0,2.209 -1.791,4 -4,4 l 0,0 c -2.209,0 -4,-1.791 -4,-4" /></g></g></g></g><g
       id="g300"><g
         clip-path="url(#clipPath304)"
         id="g302"><g
           id="g308"><g
             id="g310"><path
               id="path318"
               style="fill:url(#linearGradient312);stroke:none"
               d="m 66,108 c -3.3,0 -6,-2.7 -6,-6 l 0,0 c 0,-3.3 2.7,-6 6,-6 l 0,0 124,0 c 3.3,0 6,2.7 6,6 l 0,0 c 0,3.3 -2.7,6 -6,6 l 0,0 -124,0 z" /></g></g></g></g><g
       id="g320"><g
         clip-path="url(#clipPath324)"
         id="g322"><path
           id="path328"
           style="fill:#999999;fill-opacity:1;fill-rule:nonzero;stroke:none"
           d="m 152,96 -48,0 0,12 48,0 0,-12 z" /></g></g></g></svg>