<?xml version="1.0" encoding="UTF-8" standalone="no"?>
<svg
   xmlns:dc="http://purl.org/dc/elements/1.1/"
   xmlns:cc="http://creativecommons.org/ns#"
   xmlns:rdf="http://www.w3.org/1999/02/22-rdf-syntax-ns#"
   xmlns:svg="http://www.w3.org/2000/svg"
   xmlns="http://www.w3.org/2000/svg"
   viewBox="0 0 320 320"
   height="320"
   width="320"
   xml:space="preserve"
   version="1.1"
   id="svg2"><metadata
     id="metadata8"><rdf:RDF><cc:Work
         rdf:about=""><dc:format>image/svg+xml</dc:format><dc:type
           rdf:resource="http://purl.org/dc/dcmitype/StillImage" /></cc:Work></rdf:RDF></metadata><defs
     id="defs6"><clipPath
       id="clipPath16"
       clipPathUnits="userSpaceOnUse"><path
         id="path18"
         d="m 40,244 c -11.046,0 -20,-8.954 -20,-20 l 0,0 0,-86 c 0,-1.105 0.895,-2 2,-2 l 0,0 6,0 0,-8 200,0 0,8 6,0 c 1.104,0 2,0.895 2,2 l 0,0 0,86 c 0,11.046 -8.954,20 -20,20 l 0,0 -176,0 z" /></clipPath><linearGradient
       id="linearGradient24"
       spreadMethod="pad"
       gradientTransform="matrix(156.14215,-156.14215,-156.14215,-156.14215,49.928928,262.21323)"
       gradientUnits="userSpaceOnUse"
       y2="0"
       x2="1"
       y1="0"
       x1="0"><stop
         id="stop26"
         offset="0"
         style="stop-opacity:1;stop-color:#e6e7e8" /><stop
         id="stop28"
         offset="1"
         style="stop-opacity:1;stop-color:#d1d3d4" /></linearGradient><clipPath
       id="clipPath36"
       clipPathUnits="userSpaceOnUse"><path
         id="path38"
         d="M 20,128 20,32 C 20,20.954 28.954,12 40,12 l 0,0 176,0 c 11.046,0 20,8.954 20,20 l 0,0 0,96 -216,0 z" /></clipPath><linearGradient
       id="linearGradient44"
       spreadMethod="pad"
       gradientTransform="matrix(160.14214,-160.14214,-160.14214,-160.14214,47.928936,155.92892)"
       gradientUnits="userSpaceOnUse"
       y2="0"
       x2="1"
       y1="0"
       x1="0"><stop
         id="stop46"
         offset="0"
         style="stop-opacity:1;stop-color:#e6e7e8" /><stop
         id="stop48"
         offset="1"
         style="stop-opacity:1;stop-color:#d1d3d4" /></linearGradient><clipPath
       id="clipPath56"
       clipPathUnits="userSpaceOnUse"><path
         id="path58"
         d="m 28,136 c -4.418,0 -8,-3.581 -8,-8 l 0,0 c 0,-4.418 3.582,-8 8,-8 l 0,0 200,0 c 4.418,0 8,3.582 8,8 l 0,0 c 0,4.419 -3.582,8 -8,8 l 0,0 -200,0 z" /></clipPath><linearGradient
       id="linearGradient64"
       spreadMethod="pad"
       gradientTransform="matrix(-111.31371,111.31371,111.31371,111.31371,183.65686,72.34314)"
       gradientUnits="userSpaceOnUse"
       y2="0"
       x2="1"
       y1="0"
       x1="0"><stop
         id="stop66"
         offset="0"
         style="stop-opacity:1;stop-color:#e6e7e8" /><stop
         id="stop68"
         offset="1"
         style="stop-opacity:1;stop-color:#d1d3d4" /></linearGradient><clipPath
       id="clipPath76"
       clipPathUnits="userSpaceOnUse"><path
         id="path78"
         d="m 35,232 c -0.553,0 -1,-0.448 -1,-1 l 0,0 0,-2 c 0,-0.552 0.447,-1 1,-1 l 0,0 2,0 c 0.553,0 1,0.448 1,1 l 0,0 0,2 c 0,0.552 -0.447,1 -1,1 l 0,0 -2,0 z" /></clipPath><linearGradient
       id="linearGradient84"
       spreadMethod="pad"
       gradientTransform="matrix(-3.4142137,3.4142137,3.4142137,3.4142137,37.707107,228.29289)"
       gradientUnits="userSpaceOnUse"
       y2="0"
       x2="1"
       y1="0"
       x1="0"><stop
         id="stop86"
         offset="0"
         style="stop-opacity:1;stop-color:#e6e7e8" /><stop
         id="stop88"
         offset="1"
         style="stop-opacity:1;stop-color:#d1d3d4" /></linearGradient><clipPath
       id="clipPath96"
       clipPathUnits="userSpaceOnUse"><path
         id="path98"
         d="m 219,232 c -0.553,0 -1,-0.448 -1,-1 l 0,0 0,-2 c 0,-0.552 0.447,-1 1,-1 l 0,0 2,0 c 0.553,0 1,0.448 1,1 l 0,0 0,2 c 0,0.552 -0.447,1 -1,1 l 0,0 -2,0 z" /></clipPath><linearGradient
       id="linearGradient104"
       spreadMethod="pad"
       gradientTransform="matrix(-3.4142137,3.4142137,3.4142137,3.4142137,221.70711,228.29289)"
       gradientUnits="userSpaceOnUse"
       y2="0"
       x2="1"
       y1="0"
       x1="0"><stop
         id="stop106"
         offset="0"
         style="stop-opacity:1;stop-color:#e6e7e8" /><stop
         id="stop108"
         offset="1"
         style="stop-opacity:1;stop-color:#d1d3d4" /></linearGradient><clipPath
       id="clipPath116"
       clipPathUnits="userSpaceOnUse"><path
         id="path118"
         d="m 35,144 c -0.553,0 -1,-0.448 -1,-1 l 0,0 0,-2 c 0,-0.552 0.447,-1 1,-1 l 0,0 2,0 c 0.553,0 1,0.448 1,1 l 0,0 0,2 c 0,0.552 -0.447,1 -1,1 l 0,0 -2,0 z" /></clipPath><linearGradient
       id="linearGradient124"
       spreadMethod="pad"
       gradientTransform="matrix(-3.4142137,3.4142137,3.4142137,3.4142137,37.707107,140.29289)"
       gradientUnits="userSpaceOnUse"
       y2="0"
       x2="1"
       y1="0"
       x1="0"><stop
         id="stop126"
         offset="0"
         style="stop-opacity:1;stop-color:#e6e7e8" /><stop
         id="stop128"
         offset="1"
         style="stop-opacity:1;stop-color:#d1d3d4" /></linearGradient><clipPath
       id="clipPath136"
       clipPathUnits="userSpaceOnUse"><path
         id="path138"
         d="m 219,144 c -0.553,0 -1,-0.448 -1,-1 l 0,0 0,-2 c 0,-0.552 0.447,-1 1,-1 l 0,0 2,0 c 0.553,0 1,0.448 1,1 l 0,0 0,2 c 0,0.552 -0.447,1 -1,1 l 0,0 -2,0 z" /></clipPath><linearGradient
       id="linearGradient144"
       spreadMethod="pad"
       gradientTransform="matrix(-3.4142137,3.4142137,3.4142137,3.4142137,221.70711,140.29289)"
       gradientUnits="userSpaceOnUse"
       y2="0"
       x2="1"
       y1="0"
       x1="0"><stop
         id="stop146"
         offset="0"
         style="stop-opacity:1;stop-color:#e6e7e8" /><stop
         id="stop148"
         offset="1"
         style="stop-opacity:1;stop-color:#d1d3d4" /></linearGradient><clipPath
       id="clipPath156"
       clipPathUnits="userSpaceOnUse"><path
         id="path158"
         d="M 0,256 256,256 256,0 0,0 0,256 Z" /></clipPath><clipPath
       id="clipPath180"
       clipPathUnits="userSpaceOnUse"><path
         id="path182"
         d="m 74,237 c 0,-1.656 1.344,-3 3,-3 l 0,0 c 1.656,0 3,1.344 3,3 l 0,0 c 0,1.657 -1.344,3 -3,3 l 0,0 c -1.656,0 -3,-1.343 -3,-3" /></clipPath><linearGradient
       id="linearGradient188"
       spreadMethod="pad"
       gradientTransform="matrix(-4.2426405,4.2426405,4.2426405,4.2426405,79.121323,234.87868)"
       gradientUnits="userSpaceOnUse"
       y2="0"
       x2="1"
       y1="0"
       x1="0"><stop
         id="stop190"
         offset="0"
         style="stop-opacity:1;stop-color:#e6e7e8" /><stop
         id="stop192"
         offset="1"
         style="stop-opacity:1;stop-color:#d1d3d4" /></linearGradient><clipPath
       id="clipPath200"
       clipPathUnits="userSpaceOnUse"><path
         id="path202"
         d="m 176,237 c 0,-1.656 1.343,-3 3,-3 l 0,0 c 1.657,0 3,1.344 3,3 l 0,0 c 0,1.657 -1.343,3 -3,3 l 0,0 c -1.657,0 -3,-1.343 -3,-3" /></clipPath><linearGradient
       id="linearGradient208"
       spreadMethod="pad"
       gradientTransform="matrix(-4.2426405,4.2426405,4.2426405,4.2426405,181.12132,234.87868)"
       gradientUnits="userSpaceOnUse"
       y2="0"
       x2="1"
       y1="0"
       x1="0"><stop
         id="stop210"
         offset="0"
         style="stop-opacity:1;stop-color:#e6e7e8" /><stop
         id="stop212"
         offset="1"
         style="stop-opacity:1;stop-color:#d1d3d4" /></linearGradient><clipPath
       id="clipPath220"
       clipPathUnits="userSpaceOnUse"><path
         id="path222"
         d="m 56,232 c -2.209,0 -4,-1.791 -4,-4 l 0,0 0,-88 c 0,-2.209 1.791,-4 4,-4 l 0,0 144,0 c 2.209,0 4,1.791 4,4 l 0,0 0,88 c 0,2.209 -1.791,4 -4,4 l 0,0 -144,0 z" /></clipPath><linearGradient
       id="linearGradient228"
       spreadMethod="pad"
       gradientTransform="matrix(-121.65685,121.65685,121.65685,121.65685,188.82843,123.17157)"
       gradientUnits="userSpaceOnUse"
       y2="0"
       x2="1"
       y1="0"
       x1="0"><stop
         id="stop230"
         offset="0"
         style="stop-opacity:1;stop-color:#e6e7e8" /><stop
         id="stop232"
         offset="1"
         style="stop-opacity:1;stop-color:#d1d3d4" /></linearGradient><clipPath
       id="clipPath240"
       clipPathUnits="userSpaceOnUse"><path
         id="path242"
         d="M 0,256 256,256 256,0 0,0 0,256 Z" /></clipPath><clipPath
       id="clipPath258"
       clipPathUnits="userSpaceOnUse"><path
         id="path260"
         d="m 20,152 4.001,0 0,24 -4.001,0 0,-24 z" /></clipPath><linearGradient
       id="linearGradient266"
       spreadMethod="pad"
       gradientTransform="matrix(14,-14,-14,-14,15,171)"
       gradientUnits="userSpaceOnUse"
       y2="0"
       x2="1"
       y1="0"
       x1="0"><stop
         id="stop268"
         offset="0"
         style="stop-opacity:1;stop-color:#e6e7e8" /><stop
         id="stop270"
         offset="1"
         style="stop-opacity:1;stop-color:#d1d3d4" /></linearGradient><clipPath
       id="clipPath278"
       clipPathUnits="userSpaceOnUse"><path
         id="path280"
         d="M 0,256 256,256 256,0 0,0 0,256 Z" /></clipPath><clipPath
       id="clipPath288"
       clipPathUnits="userSpaceOnUse"><path
         id="path290"
         d="m 232,152 4,0 0,24 -4,0 0,-24 z" /></clipPath><linearGradient
       id="linearGradient296"
       spreadMethod="pad"
       gradientTransform="matrix(-14,14,14,14,241,157)"
       gradientUnits="userSpaceOnUse"
       y2="0"
       x2="1"
       y1="0"
       x1="0"><stop
         id="stop298"
         offset="0"
         style="stop-opacity:1;stop-color:#e6e7e8" /><stop
         id="stop300"
         offset="1"
         style="stop-opacity:1;stop-color:#d1d3d4" /></linearGradient><clipPath
       id="clipPath308"
       clipPathUnits="userSpaceOnUse"><path
         id="path310"
         d="M 0,256 256,256 256,0 0,0 0,256 Z" /></clipPath><clipPath
       id="clipPath322"
       clipPathUnits="userSpaceOnUse"><path
         id="path324"
         d="m 196,120 12,0 c 0,2.209 -2.687,4 -6,4 l 0,0 c -3.313,0 -6,-1.791 -6,-4" /></clipPath><linearGradient
       id="linearGradient330"
       spreadMethod="pad"
       gradientTransform="matrix(-6.6059427,6.6059427,6.6059427,6.6059427,205.30298,117.30297)"
       gradientUnits="userSpaceOnUse"
       y2="0"
       x2="1"
       y1="0"
       x1="0"><stop
         id="stop332"
         offset="0"
         style="stop-opacity:1;stop-color:#e6e7e8" /><stop
         id="stop334"
         offset="1"
         style="stop-opacity:1;stop-color:#d1d3d4" /></linearGradient><clipPath
       id="clipPath342"
       clipPathUnits="userSpaceOnUse"><path
         id="path344"
         d="M 0,256 256,256 256,0 0,0 0,256 Z" /></clipPath><clipPath
       id="clipPath354"
       clipPathUnits="userSpaceOnUse"><path
         id="path356"
         d="m 28,97 c 0,-8.284 6.716,-15 15,-15 l 0,0 c 8.284,0 15,6.716 15,15 l 0,0 c 0,8.284 -6.716,15 -15,15 l 0,0 c -8.284,0 -15,-6.716 -15,-15" /></clipPath><linearGradient
       id="linearGradient362"
       spreadMethod="pad"
       gradientTransform="matrix(-21.213203,21.213203,21.213203,21.213203,53.606602,86.393394)"
       gradientUnits="userSpaceOnUse"
       y2="0"
       x2="1"
       y1="0"
       x1="0"><stop
         id="stop364"
         offset="0"
         style="stop-opacity:1;stop-color:#e6e7e8" /><stop
         id="stop366"
         offset="1"
         style="stop-opacity:1;stop-color:#d1d3d4" /></linearGradient><clipPath
       id="clipPath374"
       clipPathUnits="userSpaceOnUse"><path
         id="path376"
         d="m 33,97 c 0,-5.522 4.477,-10 10,-10 l 0,0 c 5.523,0 10,4.478 10,10 l 0,0 c 0,5.523 -4.477,10 -10,10 l 0,0 c -5.523,0 -10,-4.477 -10,-10" /></clipPath><linearGradient
       id="linearGradient382"
       spreadMethod="pad"
       gradientTransform="matrix(14.142136,-14.142136,-14.142136,-14.142136,35.928932,104.07107)"
       gradientUnits="userSpaceOnUse"
       y2="0"
       x2="1"
       y1="0"
       x1="0"><stop
         id="stop384"
         offset="0"
         style="stop-opacity:1;stop-color:#e6e7e8" /><stop
         id="stop386"
         offset="1"
         style="stop-opacity:1;stop-color:#d1d3d4" /></linearGradient><clipPath
       id="clipPath394"
       clipPathUnits="userSpaceOnUse"><path
         id="path396"
         d="M 0,256 256,256 256,0 0,0 0,256 Z" /></clipPath><clipPath
       id="clipPath406"
       clipPathUnits="userSpaceOnUse"><path
         id="path408"
         d="m 192,12 2.001,0 0,4.001 -2.001,0 0,-4.001 z" /></clipPath><linearGradient
       id="linearGradient414"
       spreadMethod="pad"
       gradientTransform="matrix(2.9999998,-2.9999998,-2.9999998,-2.9999998,191.5,15.5)"
       gradientUnits="userSpaceOnUse"
       y2="0"
       x2="1"
       y1="0"
       x1="0"><stop
         id="stop416"
         offset="0"
         style="stop-opacity:1;stop-color:#e6e7e8" /><stop
         id="stop418"
         offset="1"
         style="stop-opacity:1;stop-color:#d1d3d4" /></linearGradient><clipPath
       id="clipPath426"
       clipPathUnits="userSpaceOnUse"><path
         id="path428"
         d="M 0,256 256,256 256,0 0,0 0,256 Z" /></clipPath><clipPath
       id="clipPath438"
       clipPathUnits="userSpaceOnUse"><path
         id="path440"
         d="M 64,120 64,20 c 0,-4.418 3.582,-8 8,-8 l 0,0 112,0 c 4.418,0 8,3.582 8,8 l 0,0 0,100 -128,0 z" /></clipPath><linearGradient
       id="linearGradient446"
       spreadMethod="pad"
       gradientTransform="matrix(-115.65685,115.65685,115.65685,115.65685,185.82843,10.514719)"
       gradientUnits="userSpaceOnUse"
       y2="0"
       x2="1"
       y1="0"
       x1="0"><stop
         id="stop448"
         offset="0"
         style="stop-opacity:1;stop-color:#e6e7e8" /><stop
         id="stop450"
         offset="1"
         style="stop-opacity:1;stop-color:#d1d3d4" /></linearGradient><clipPath
       id="clipPath458"
       clipPathUnits="userSpaceOnUse"><path
         id="path460"
         d="m 42.117,68.764 1.765,0 0,5.294 -1.765,0 0,-5.294 z" /></clipPath><linearGradient
       id="linearGradient466"
       spreadMethod="pad"
       gradientTransform="matrix(3.5294118,-3.5294118,-3.5294118,-3.5294118,41.235294,73.176468)"
       gradientUnits="userSpaceOnUse"
       y2="0"
       x2="1"
       y1="0"
       x1="0"><stop
         id="stop468"
         offset="0"
         style="stop-opacity:1;stop-color:#e6e7e8" /><stop
         id="stop470"
         offset="1"
         style="stop-opacity:1;stop-color:#d1d3d4" /></linearGradient><clipPath
       id="clipPath478"
       clipPathUnits="userSpaceOnUse"><path
         id="path480"
         d="m 42.117,52.883 1.765,0 0,5.294 -1.765,0 0,-5.294 z" /></clipPath><linearGradient
       id="linearGradient486"
       spreadMethod="pad"
       gradientTransform="matrix(3.5294118,-3.5294118,-3.5294118,-3.5294118,41.235294,57.294117)"
       gradientUnits="userSpaceOnUse"
       y2="0"
       x2="1"
       y1="0"
       x1="0"><stop
         id="stop488"
         offset="0"
         style="stop-opacity:1;stop-color:#e6e7e8" /><stop
         id="stop490"
         offset="1"
         style="stop-opacity:1;stop-color:#d1d3d4" /></linearGradient><clipPath
       id="clipPath498"
       clipPathUnits="userSpaceOnUse"><path
         id="path500"
         d="m 48.294,62.588 5.295,0 0,1.765 -5.295,0 0,-1.765 z" /></clipPath><linearGradient
       id="linearGradient506"
       spreadMethod="pad"
       gradientTransform="matrix(3.5294118,-3.5294118,-3.5294118,-3.5294118,49.176472,65.235291)"
       gradientUnits="userSpaceOnUse"
       y2="0"
       x2="1"
       y1="0"
       x1="0"><stop
         id="stop508"
         offset="0"
         style="stop-opacity:1;stop-color:#e6e7e8" /><stop
         id="stop510"
         offset="1"
         style="stop-opacity:1;stop-color:#d1d3d4" /></linearGradient><clipPath
       id="clipPath518"
       clipPathUnits="userSpaceOnUse"><path
         id="path520"
         d="m 32.412,62.588 5.295,0 0,1.765 -5.295,0 0,-1.765 z" /></clipPath><linearGradient
       id="linearGradient526"
       spreadMethod="pad"
       gradientTransform="matrix(3.5294118,-3.5294118,-3.5294118,-3.5294118,33.294117,65.235291)"
       gradientUnits="userSpaceOnUse"
       y2="0"
       x2="1"
       y1="0"
       x1="0"><stop
         id="stop528"
         offset="0"
         style="stop-opacity:1;stop-color:#e6e7e8" /><stop
         id="stop530"
         offset="1"
         style="stop-opacity:1;stop-color:#d1d3d4" /></linearGradient><clipPath
       id="clipPath538"
       clipPathUnits="userSpaceOnUse"><path
         id="path540"
         d="M 0,256 256,256 256,0 0,0 0,256 Z" /></clipPath><clipPath
       id="clipPath552"
       clipPathUnits="userSpaceOnUse"><path
         id="path554"
         d="m 178,12 2,0 0,4.001 -2,0 0,-4.001 z" /></clipPath><linearGradient
       id="linearGradient560"
       spreadMethod="pad"
       gradientTransform="matrix(-2.9999998,2.9999998,2.9999998,2.9999998,180.5,12.5)"
       gradientUnits="userSpaceOnUse"
       y2="0"
       x2="1"
       y1="0"
       x1="0"><stop
         id="stop562"
         offset="0"
         style="stop-opacity:1;stop-color:#e6e7e8" /><stop
         id="stop564"
         offset="1"
         style="stop-opacity:1;stop-color:#d1d3d4" /></linearGradient><clipPath
       id="clipPath572"
       clipPathUnits="userSpaceOnUse"><path
         id="path574"
         d="m 201,12 2.001,0 0,4.001 -2.001,0 0,-4.001 z" /></clipPath><linearGradient
       id="linearGradient580"
       spreadMethod="pad"
       gradientTransform="matrix(2.9999998,-2.9999998,-2.9999998,-2.9999998,200.5,15.5)"
       gradientUnits="userSpaceOnUse"
       y2="0"
       x2="1"
       y1="0"
       x1="0"><stop
         id="stop582"
         offset="0"
         style="stop-opacity:1;stop-color:#e6e7e8" /><stop
         id="stop584"
         offset="1"
         style="stop-opacity:1;stop-color:#d1d3d4" /></linearGradient><clipPath
       id="clipPath592"
       clipPathUnits="userSpaceOnUse"><path
         id="path594"
         d="m 210,12 2.001,0 0,4.001 -2.001,0 0,-4.001 z" /></clipPath><linearGradient
       id="linearGradient600"
       spreadMethod="pad"
       gradientTransform="matrix(2.9999998,-2.9999998,-2.9999998,-2.9999998,209.5,15.5)"
       gradientUnits="userSpaceOnUse"
       y2="0"
       x2="1"
       y1="0"
       x1="0"><stop
         id="stop602"
         offset="0"
         style="stop-opacity:1;stop-color:#e6e7e8" /><stop
         id="stop604"
         offset="1"
         style="stop-opacity:1;stop-color:#d1d3d4" /></linearGradient><clipPath
       id="clipPath612"
       clipPathUnits="userSpaceOnUse"><path
         id="path614"
         d="M 0,256 256,256 256,0 0,0 0,256 Z" /></clipPath></defs><g
     transform="matrix(1.25,0,0,-1.25,0,320)"
     id="g10"><g
       id="g12"><g
         clip-path="url(#clipPath16)"
         id="g14"><g
           id="g20"><g
             id="g22"><path
               id="path30"
               style="fill:url(#linearGradient24);stroke:none"
               d="m 40,244 c -11.046,0 -20,-8.954 -20,-20 l 0,0 0,-86 c 0,-1.105 0.895,-2 2,-2 l 0,0 6,0 0,-8 200,0 0,8 6,0 c 1.104,0 2,0.895 2,2 l 0,0 0,86 c 0,11.046 -8.954,20 -20,20 l 0,0 -176,0 z" /></g></g></g></g><g
       id="g32"><g
         clip-path="url(#clipPath36)"
         id="g34"><g
           id="g40"><g
             id="g42"><path
               id="path50"
               style="fill:url(#linearGradient44);stroke:none"
               d="M 20,128 20,32 C 20,20.954 28.954,12 40,12 l 0,0 176,0 c 11.046,0 20,8.954 20,20 l 0,0 0,96 -216,0 z" /></g></g></g></g><g
       id="g52"><g
         clip-path="url(#clipPath56)"
         id="g54"><g
           id="g60"><g
             id="g62"><path
               id="path70"
               style="fill:url(#linearGradient64);stroke:none"
               d="m 28,136 c -4.418,0 -8,-3.581 -8,-8 l 0,0 c 0,-4.418 3.582,-8 8,-8 l 0,0 200,0 c 4.418,0 8,3.582 8,8 l 0,0 c 0,4.419 -3.582,8 -8,8 l 0,0 -200,0 z" /></g></g></g></g><g
       id="g72"><g
         clip-path="url(#clipPath76)"
         id="g74"><g
           id="g80"><g
             id="g82"><path
               id="path90"
               style="fill:url(#linearGradient84);stroke:none"
               d="m 35,232 c -0.553,0 -1,-0.448 -1,-1 l 0,0 0,-2 c 0,-0.552 0.447,-1 1,-1 l 0,0 2,0 c 0.553,0 1,0.448 1,1 l 0,0 0,2 c 0,0.552 -0.447,1 -1,1 l 0,0 -2,0 z" /></g></g></g></g><g
       id="g92"><g
         clip-path="url(#clipPath96)"
         id="g94"><g
           id="g100"><g
             id="g102"><path
               id="path110"
               style="fill:url(#linearGradient104);stroke:none"
               d="m 219,232 c -0.553,0 -1,-0.448 -1,-1 l 0,0 0,-2 c 0,-0.552 0.447,-1 1,-1 l 0,0 2,0 c 0.553,0 1,0.448 1,1 l 0,0 0,2 c 0,0.552 -0.447,1 -1,1 l 0,0 -2,0 z" /></g></g></g></g><g
       id="g112"><g
         clip-path="url(#clipPath116)"
         id="g114"><g
           id="g120"><g
             id="g122"><path
               id="path130"
               style="fill:url(#linearGradient124);stroke:none"
               d="m 35,144 c -0.553,0 -1,-0.448 -1,-1 l 0,0 0,-2 c 0,-0.552 0.447,-1 1,-1 l 0,0 2,0 c 0.553,0 1,0.448 1,1 l 0,0 0,2 c 0,0.552 -0.447,1 -1,1 l 0,0 -2,0 z" /></g></g></g></g><g
       id="g132"><g
         clip-path="url(#clipPath136)"
         id="g134"><g
           id="g140"><g
             id="g142"><path
               id="path150"
               style="fill:url(#linearGradient144);stroke:none"
               d="m 219,144 c -0.553,0 -1,-0.448 -1,-1 l 0,0 0,-2 c 0,-0.552 0.447,-1 1,-1 l 0,0 2,0 c 0.553,0 1,0.448 1,1 l 0,0 0,2 c 0,0.552 -0.447,1 -1,1 l 0,0 -2,0 z" /></g></g></g></g><g
       id="g152"><g
         clip-path="url(#clipPath156)"
         id="g154"><g
           transform="translate(132,238)"
           id="g160"><path
             id="path162"
             style="fill:#999999;fill-opacity:1;fill-rule:nonzero;stroke:none"
             d="m 0,0 c 0,-2.209 -1.791,-4 -4,-4 -2.209,0 -4,1.791 -4,4 0,2.209 1.791,4 4,4 2.209,0 4,-1.791 4,-4" /></g><g
           transform="translate(126,238)"
           id="g164"><path
             id="path166"
             style="fill:#4f4f4f;fill-opacity:1;fill-rule:nonzero;stroke:none"
             d="M 0,0 C 0,1.104 0.896,2 2,2 3.104,2 4,1.104 4,0 4,-1.104 3.104,-2 2,-2 0.896,-2 0,-1.104 0,0" /></g><g
           transform="translate(129,238)"
           id="g168"><path
             id="path170"
             style="fill:#191919;fill-opacity:1;fill-rule:nonzero;stroke:none"
             d="m 0,0 c 0,-0.552 -0.448,-1 -1,-1 -0.552,0 -1,0.448 -1,1 0,0.552 0.448,1 1,1 0.552,0 1,-0.448 1,-1" /></g><g
           transform="translate(133,238)"
           id="g172"><path
             id="path174"
             style="fill:#999999;fill-opacity:1;fill-rule:nonzero;stroke:none"
             d="M 0,0 C 0,-1.104 0.896,-2 2,-2 3.104,-2 4,-1.104 4,0 4,1.104 3.104,2 2,2 0.896,2 0,1.104 0,0" /></g></g></g><g
       id="g176"><g
         clip-path="url(#clipPath180)"
         id="g178"><g
           id="g184"><g
             id="g186"><path
               id="path194"
               style="fill:url(#linearGradient188);stroke:none"
               d="m 74,237 c 0,-1.656 1.344,-3 3,-3 l 0,0 c 1.656,0 3,1.344 3,3 l 0,0 c 0,1.657 -1.344,3 -3,3 l 0,0 c -1.656,0 -3,-1.343 -3,-3" /></g></g></g></g><g
       id="g196"><g
         clip-path="url(#clipPath200)"
         id="g198"><g
           id="g204"><g
             id="g206"><path
               id="path214"
               style="fill:url(#linearGradient208);stroke:none"
               d="m 176,237 c 0,-1.656 1.343,-3 3,-3 l 0,0 c 1.657,0 3,1.344 3,3 l 0,0 c 0,1.657 -1.343,3 -3,3 l 0,0 c -1.657,0 -3,-1.343 -3,-3" /></g></g></g></g><g
       id="g216"><g
         clip-path="url(#clipPath220)"
         id="g218"><g
           id="g224"><g
             id="g226"><path
               id="path234"
               style="fill:url(#linearGradient228);stroke:none"
               d="m 56,232 c -2.209,0 -4,-1.791 -4,-4 l 0,0 0,-88 c 0,-2.209 1.791,-4 4,-4 l 0,0 144,0 c 2.209,0 4,1.791 4,4 l 0,0 0,88 c 0,2.209 -1.791,4 -4,4 l 0,0 -144,0 z" /></g></g></g></g><g
       id="g236"><g
         clip-path="url(#clipPath240)"
         id="g238"><path
           id="path244"
           style="fill:#808080;fill-opacity:1;fill-rule:nonzero;stroke:none"
           d="m 200,140 -144,0 0,88 144,0 0,-88 z" /><g
           transform="translate(37,187)"
           id="g246"><path
             id="path248"
             style="fill:#999999;fill-opacity:1;fill-rule:nonzero;stroke:none"
             d="m 0,0 c 0,0.552 -0.448,1 -1,1 -0.552,0 -1,-0.448 -1,-1 0,-0.552 0.448,-1 1,-1 0.552,0 1,0.448 1,1 m 0,10 c 0,0.552 -0.448,1 -1,1 -0.552,0 -1,-0.448 -1,-1 0,-0.552 0.448,-1 1,-1 0.552,0 1,0.448 1,1 M 4,6 C 3.448,6 3,5.552 3,5 3,4.448 3.448,4 4,4 4.552,4 5,4.448 5,5 5,5.552 4.552,6 4,6 M -6,6 c -0.552,0 -1,-0.448 -1,-1 0,-0.552 0.448,-1 1,-1 0.552,0 1,0.448 1,1 0,0.552 -0.448,1 -1,1 M 0,5 C 0,4.448 -0.448,4 -1,4 c -0.552,0 -1,0.448 -1,1 0,0.552 0.448,1 1,1 0.552,0 1,-0.448 1,-1" /></g><g
           transform="translate(221,187)"
           id="g250"><path
             id="path252"
             style="fill:#999999;fill-opacity:1;fill-rule:nonzero;stroke:none"
             d="m 0,0 c 0,0.552 -0.447,1 -1,1 -0.553,0 -1,-0.448 -1,-1 0,-0.552 0.447,-1 1,-1 0.553,0 1,0.448 1,1 m 0,10 c 0,0.552 -0.447,1 -1,1 -0.553,0 -1,-0.448 -1,-1 0,-0.552 0.447,-1 1,-1 0.553,0 1,0.448 1,1 M 4,6 C 3.447,6 3,5.552 3,5 3,4.448 3.447,4 4,4 4.553,4 5,4.448 5,5 5,5.552 4.553,6 4,6 M -6,6 c -0.553,0 -1,-0.448 -1,-1 0,-0.552 0.447,-1 1,-1 0.553,0 1,0.448 1,1 0,0.552 -0.447,1 -1,1 M 0,5 C 0,4.448 -0.447,4 -1,4 c -0.553,0 -1,0.448 -1,1 0,0.552 0.447,1 1,1 0.553,0 1,-0.448 1,-1" /></g></g></g><g
       id="g254"><g
         clip-path="url(#clipPath258)"
         id="g256"><g
           id="g262"><g
             id="g264"><path
               id="path272"
               style="fill:url(#linearGradient266);stroke:none"
               d="m 20,152 4.001,0 0,24 -4.001,0 0,-24 z" /></g></g></g></g><g
       id="g274"><g
         clip-path="url(#clipPath278)"
         id="g276"><path
           id="path282"
           style="fill:#999999;fill-opacity:1;fill-rule:nonzero;stroke:none"
           d="m 24,164 -4,0 0,8 4,0 0,-8 z" /></g></g><g
       id="g284"><g
         clip-path="url(#clipPath288)"
         id="g286"><g
           id="g292"><g
             id="g294"><path
               id="path302"
               style="fill:url(#linearGradient296);stroke:none"
               d="m 232,152 4,0 0,24 -4,0 0,-24 z" /></g></g></g></g><g
       id="g304"><g
         clip-path="url(#clipPath308)"
         id="g306"><path
           id="path312"
           style="fill:#999999;fill-opacity:1;fill-rule:nonzero;stroke:none"
           d="m 236,168 -4,0 0,8 4,0 0,-8 z" /><path
           id="path314"
           style="fill:#808080;fill-opacity:1;fill-rule:nonzero;stroke:none"
           d="m 42,120 -2,0 0,16 2,0 0,-16 z" /><path
           id="path316"
           style="fill:#808080;fill-opacity:1;fill-rule:nonzero;stroke:none"
           d="m 216,120 -2,0 0,16 2,0 0,-16 z" /></g></g><g
       id="g318"><g
         clip-path="url(#clipPath322)"
         id="g320"><g
           id="g326"><g
             id="g328"><path
               id="path336"
               style="fill:url(#linearGradient330);stroke:none"
               d="m 196,120 12,0 c 0,2.209 -2.687,4 -6,4 l 0,0 c -3.313,0 -6,-1.791 -6,-4" /></g></g></g></g><g
       id="g338"><g
         clip-path="url(#clipPath342)"
         id="g340"><g
           transform="translate(226,128)"
           id="g346"><path
             id="path348"
             style="fill:#595959;fill-opacity:1;fill-rule:nonzero;stroke:none"
             d="m 0,0 c 0,0.552 -0.447,1 -1,1 -0.553,0 -1,-0.448 -1,-1 0,-0.552 0.447,-1 1,-1 0.553,0 1,0.448 1,1" /></g></g></g><g
       id="g350"><g
         clip-path="url(#clipPath354)"
         id="g352"><g
           id="g358"><g
             id="g360"><path
               id="path368"
               style="fill:url(#linearGradient362);stroke:none"
               d="m 28,97 c 0,-8.284 6.716,-15 15,-15 l 0,0 c 8.284,0 15,6.716 15,15 l 0,0 c 0,8.284 -6.716,15 -15,15 l 0,0 c -8.284,0 -15,-6.716 -15,-15" /></g></g></g></g><g
       id="g370"><g
         clip-path="url(#clipPath374)"
         id="g372"><g
           id="g378"><g
             id="g380"><path
               id="path388"
               style="fill:url(#linearGradient382);stroke:none"
               d="m 33,97 c 0,-5.522 4.477,-10 10,-10 l 0,0 c 5.523,0 10,4.478 10,10 l 0,0 c 0,5.523 -4.477,10 -10,10 l 0,0 c -5.523,0 -10,-4.477 -10,-10" /></g></g></g></g><g
       id="g390"><g
         clip-path="url(#clipPath394)"
         id="g392"><g
           transform="translate(50.5,97)"
           id="g398"><path
             id="path400"
             style="fill:#999999;fill-opacity:1;fill-rule:nonzero;stroke:none"
             d="m 0,0 c 0,-4.143 -3.358,-7.5 -7.5,-7.5 -4.142,0 -7.5,3.357 -7.5,7.5 0,4.143 3.358,7.5 7.5,7.5 C -3.358,7.5 0,4.143 0,0" /></g></g></g><g
       id="g402"><g
         clip-path="url(#clipPath406)"
         id="g404"><g
           id="g410"><g
             id="g412"><path
               id="path420"
               style="fill:url(#linearGradient414);stroke:none"
               d="m 192,12 2.001,0 0,4.001 -2.001,0 0,-4.001 z" /></g></g></g></g><g
       id="g422"><g
         clip-path="url(#clipPath426)"
         id="g424"><g
           transform="translate(54.4707,67)"
           id="g430"><path
             id="path432"
             style="fill:#999999;fill-opacity:1;fill-rule:nonzero;stroke:none"
             d="m 0,0 -7.941,0 0,7.941 c 0,0.488 -0.395,0.882 -0.883,0.882 l -5.294,0 C -14.605,8.823 -15,8.429 -15,7.941 L -15,0 -22.941,0 c -0.488,0 -0.883,-0.396 -0.883,-0.883 l 0,-5.294 c 0,-0.487 0.395,-0.882 0.883,-0.882 l 7.941,0 0,-7.941 c 0,-0.487 0.395,-0.883 0.882,-0.883 l 5.294,0 c 0.488,0 0.883,0.396 0.883,0.883 l 0,7.941 7.941,0 c 0.487,0 0.882,0.395 0.882,0.882 l 0,5.294 C 0.882,-0.396 0.487,0 0,0" /></g></g></g><g
       id="g434"><g
         clip-path="url(#clipPath438)"
         id="g436"><g
           id="g442"><g
             id="g444"><path
               id="path452"
               style="fill:url(#linearGradient446);stroke:none"
               d="M 64,120 64,20 c 0,-4.418 3.582,-8 8,-8 l 0,0 112,0 c 4.418,0 8,3.582 8,8 l 0,0 0,100 -128,0 z" /></g></g></g></g><g
       id="g454"><g
         clip-path="url(#clipPath458)"
         id="g456"><g
           id="g462"><g
             id="g464"><path
               id="path472"
               style="fill:url(#linearGradient466);stroke:none"
               d="m 42.117,68.764 1.765,0 0,5.294 -1.765,0 0,-5.294 z" /></g></g></g></g><g
       id="g474"><g
         clip-path="url(#clipPath478)"
         id="g476"><g
           id="g482"><g
             id="g484"><path
               id="path492"
               style="fill:url(#linearGradient486);stroke:none"
               d="m 42.117,52.883 1.765,0 0,5.294 -1.765,0 0,-5.294 z" /></g></g></g></g><g
       id="g494"><g
         clip-path="url(#clipPath498)"
         id="g496"><g
           id="g502"><g
             id="g504"><path
               id="path512"
               style="fill:url(#linearGradient506);stroke:none"
               d="m 48.294,62.588 5.295,0 0,1.765 -5.295,0 0,-1.765 z" /></g></g></g></g><g
       id="g514"><g
         clip-path="url(#clipPath518)"
         id="g516"><g
           id="g522"><g
             id="g524"><path
               id="path532"
               style="fill:url(#linearGradient526);stroke:none"
               d="m 32.412,62.588 5.295,0 0,1.765 -5.295,0 0,-1.765 z" /></g></g></g></g><g
       id="g534"><g
         clip-path="url(#clipPath538)"
         id="g536"><path
           id="path542"
           style="fill:#999999;fill-opacity:1;fill-rule:nonzero;stroke:none"
           d="m 188,114 -120,0 0,-88 120,0 0,88 z" /><g
           transform="translate(132,14)"
           id="g544"><path
             id="path546"
             style="fill:#999999;fill-opacity:1;fill-rule:nonzero;stroke:none"
             d="m 0,0 -8,0 c -2.209,0 -4,1.791 -4,4 0,2.209 1.791,4 4,4 L 0,8 C 2.209,8 4,6.209 4,4 4,1.791 2.209,0 0,0" /></g></g></g><g
       id="g548"><g
         clip-path="url(#clipPath552)"
         id="g550"><g
           id="g556"><g
             id="g558"><path
               id="path566"
               style="fill:url(#linearGradient560);stroke:none"
               d="m 178,12 2,0 0,4.001 -2,0 0,-4.001 z" /></g></g></g></g><g
       id="g568"><g
         clip-path="url(#clipPath572)"
         id="g570"><g
           id="g576"><g
             id="g578"><path
               id="path586"
               style="fill:url(#linearGradient580);stroke:none"
               d="m 201,12 2.001,0 0,4.001 -2.001,0 0,-4.001 z" /></g></g></g></g><g
       id="g588"><g
         clip-path="url(#clipPath592)"
         id="g590"><g
           id="g596"><g
             id="g598"><path
               id="path606"
               style="fill:url(#linearGradient600);stroke:none"
               d="m 210,12 2.001,0 0,4.001 -2.001,0 0,-4.001 z" /></g></g></g></g><g
       id="g608"><g
         clip-path="url(#clipPath612)"
         id="g610"><g
           transform="translate(196,36)"
           id="g616"><path
             id="path618"
             style="fill:#999999;fill-opacity:1;fill-rule:nonzero;stroke:none"
             d="M 0,0 C 0,-2.209 1.791,-4 4,-4 6.209,-4 8,-2.209 8,0 8,2.209 6.209,4 4,4 1.791,4 0,2.209 0,0" /></g><g
           transform="translate(196,52)"
           id="g620"><path
             id="path622"
             style="fill:#999999;fill-opacity:1;fill-rule:nonzero;stroke:none"
             d="M 0,0 C 0,-2.209 1.791,-4 4,-4 6.209,-4 8,-2.209 8,0 8,2.209 6.209,4 4,4 1.791,4 0,2.209 0,0" /></g><g
           transform="translate(206,109)"
           id="g624"><path
             id="path626"
             style="fill:#999999;fill-opacity:1;fill-rule:nonzero;stroke:none"
             d="m 0,0 c 0,-2.762 -2.238,-5 -5,-5 -2.762,0 -5,2.238 -5,5 0,2.762 2.238,5 5,5 2.762,0 5,-2.238 5,-5" /></g><g
           transform="translate(208,86)"
           id="g628"><path
             id="path630"
             style="fill:#999999;fill-opacity:1;fill-rule:nonzero;stroke:none"
             d="m 0,0 c 0,-3.313 -2.687,-6 -6,-6 -3.313,0 -6,2.687 -6,6 0,3.313 2.687,6 6,6 3.313,0 6,-2.687 6,-6" /></g><g
           transform="translate(220,98)"
           id="g632"><path
             id="path634"
             style="fill:#999999;fill-opacity:1;fill-rule:nonzero;stroke:none"
             d="m 0,0 c 0,-3.313 -2.687,-6 -6,-6 -3.313,0 -6,2.687 -6,6 0,3.313 2.687,6 6,6 3.313,0 6,-2.687 6,-6" /></g><g
           transform="translate(220,74)"
           id="g636"><path
             id="path638"
             style="fill:#999999;fill-opacity:1;fill-rule:nonzero;stroke:none"
             d="m 0,0 c 0,-3.313 -2.687,-6 -6,-6 -3.313,0 -6,2.687 -6,6 0,3.313 2.687,6 6,6 3.313,0 6,-2.687 6,-6" /></g><g
           transform="translate(232,86)"
           id="g640"><path
             id="path642"
             style="fill:#999999;fill-opacity:1;fill-rule:nonzero;stroke:none"
             d="m 0,0 c 0,-3.313 -2.687,-6 -6,-6 -3.313,0 -6,2.687 -6,6 0,3.313 2.687,6 6,6 3.313,0 6,-2.687 6,-6" /></g></g></g></g></svg>