<?xml version="1.0" encoding="UTF-8" standalone="no"?>
<svg
   xmlns:dc="http://purl.org/dc/elements/1.1/"
   xmlns:cc="http://creativecommons.org/ns#"
   xmlns:rdf="http://www.w3.org/1999/02/22-rdf-syntax-ns#"
   xmlns:svg="http://www.w3.org/2000/svg"
   xmlns="http://www.w3.org/2000/svg"
   viewBox="0 0 320 320"
   height="320"
   width="320"
   xml:space="preserve"
   version="1.1"
   id="svg2"><metadata
     id="metadata8"><rdf:RDF><cc:Work
         rdf:about=""><dc:format>image/svg+xml</dc:format><dc:type
           rdf:resource="http://purl.org/dc/dcmitype/StillImage" /></cc:Work></rdf:RDF></metadata><defs
     id="defs6"><clipPath
       id="clipPath16"
       clipPathUnits="userSpaceOnUse"><path
         id="path18"
         d="m 36,244 c -8.836,0 -16,-7.163 -16,-16 l 0,0 0,-214 c 0,-1.105 0.895,-2 2,-2 l 0,0 216,0 c 1.105,0 2,0.895 2,2 l 0,0 0,214 c 0,8.837 -7.163,16 -16,16 l 0,0 -188,0 z" /></clipPath><linearGradient
       id="linearGradient24"
       spreadMethod="pad"
       gradientTransform="matrix(220.72792,-220.72792,-220.72792,-220.72792,19.63604,234.26346)"
       gradientUnits="userSpaceOnUse"
       y2="0"
       x2="1"
       y1="0"
       x1="0"><stop
         id="stop26"
         offset="0"
         style="stop-opacity:1;stop-color:#e6e7e8" /><stop
         id="stop28"
         offset="1"
         style="stop-opacity:1;stop-color:#d1d3d4" /></linearGradient><clipPath
       id="clipPath36"
       clipPathUnits="userSpaceOnUse"><path
         id="path38"
         d="M 0,256 256,256 256,0 0,0 0,256 Z" /></clipPath><clipPath
       id="clipPath48"
       clipPathUnits="userSpaceOnUse"><path
         id="path50"
         d="m 95.303,48 c -0.989,0 -1.378,-1.283 -0.555,-1.832 l 0,0 32.697,-21.798 c 0.336,-0.225 0.773,-0.225 1.11,0 l 0,0 32.697,21.798 c 0.824,0.549 0.435,1.832 -0.554,1.832 l 0,0 -65.395,0 z" /></clipPath><linearGradient
       id="linearGradient56"
       spreadMethod="pad"
       gradientTransform="matrix(-34.115532,34.115532,34.115532,34.115532,145.05777,29.943777)"
       gradientUnits="userSpaceOnUse"
       y2="0"
       x2="1"
       y1="0"
       x1="0"><stop
         id="stop58"
         offset="0"
         style="stop-opacity:1;stop-color:#e6e7e8" /><stop
         id="stop60"
         offset="1"
         style="stop-opacity:1;stop-color:#d1d3d4" /></linearGradient><clipPath
       id="clipPath68"
       clipPathUnits="userSpaceOnUse"><path
         id="path70"
         d="M 0,256 256,256 256,0 0,0 0,256 Z" /></clipPath></defs><g
     transform="matrix(1.25,0,0,-1.25,0,320)"
     id="g10"><g
       id="g12"><g
         clip-path="url(#clipPath16)"
         id="g14"><g
           id="g20"><g
             id="g22"><path
               id="path30"
               style="fill:url(#linearGradient24);stroke:none"
               d="m 36,244 c -8.836,0 -16,-7.163 -16,-16 l 0,0 0,-214 c 0,-1.105 0.895,-2 2,-2 l 0,0 216,0 c 1.105,0 2,0.895 2,2 l 0,0 0,214 c 0,8.837 -7.163,16 -16,16 l 0,0 -188,0 z" /></g></g></g></g><g
       id="g32"><g
         clip-path="url(#clipPath36)"
         id="g34"><g
           transform="translate(208,84)"
           id="g40"><path
             id="path42"
             style="fill:#999999;fill-opacity:1;fill-rule:nonzero;stroke:none"
             d="m 0,0 -160,0 c -2.209,0 -4,1.791 -4,4 l 0,120 c 0,4.418 3.582,8 8,8 l 152,0 c 4.418,0 8,-3.582 8,-8 L 4,4 C 4,1.791 2.209,0 0,0" /></g></g></g><g
       id="g44"><g
         clip-path="url(#clipPath48)"
         id="g46"><g
           id="g52"><g
             id="g54"><path
               id="path62"
               style="fill:url(#linearGradient56);stroke:none"
               d="m 95.303,48 c -0.989,0 -1.378,-1.283 -0.555,-1.832 l 0,0 32.697,-21.798 c 0.336,-0.225 0.773,-0.225 1.11,0 l 0,0 32.697,21.798 c 0.824,0.549 0.435,1.832 -0.554,1.832 l 0,0 -65.395,0 z" /></g></g></g></g><g
       id="g64"><g
         clip-path="url(#clipPath68)"
         id="g66"><g
           transform="translate(203,88)"
           id="g72"><path
             id="path74"
             style="fill:#ffffff;fill-opacity:1;fill-rule:nonzero;stroke:none"
             d="m 0,0 -151,0 c -2.209,0 -4,1.791 -4,4 l 0,96 c 0,2.209 1.791,4 4,4 l 153,0 c 1.657,0 3,-1.343 3,-3 L 5,5 C 5,2.238 2.762,0 0,0" /></g><g
           transform="translate(201.2627,170.7368)"
           id="g76"><path
             id="path78"
             style="fill:#999999;fill-opacity:1;fill-rule:nonzero;stroke:none"
             d="m 0,0 c 0,-6.744 -5.467,-12.21 -12.21,-12.21 -6.744,0 -12.211,5.466 -12.211,12.21 0,6.744 5.467,12.21 12.211,12.21 C -5.467,12.21 0,6.744 0,0" /></g></g></g></g></svg>