<?xml version="1.0" encoding="UTF-8" standalone="no"?>
<svg
   xmlns:dc="http://purl.org/dc/elements/1.1/"
   xmlns:cc="http://creativecommons.org/ns#"
   xmlns:rdf="http://www.w3.org/1999/02/22-rdf-syntax-ns#"
   xmlns:svg="http://www.w3.org/2000/svg"
   xmlns="http://www.w3.org/2000/svg"
   viewBox="0 0 320 320"
   height="320"
   width="320"
   xml:space="preserve"
   version="1.1"
   id="svg2"><metadata
     id="metadata8"><rdf:RDF><cc:Work
         rdf:about=""><dc:format>image/svg+xml</dc:format><dc:type
           rdf:resource="http://purl.org/dc/dcmitype/StillImage" /></cc:Work></rdf:RDF></metadata><defs
     id="defs6"><clipPath
       id="clipPath16"
       clipPathUnits="userSpaceOnUse"><path
         id="path18"
         d="m 40,244 c -8.837,0 -16,-7.163 -16,-16 l 0,0 0,-90 c 0,-1.105 0.896,-2 2,-2 l 0,0 6,0 0,-4 192,0 0,4 6,0 c 1.105,0 2,0.895 2,2 l 0,0 0,90 c 0,8.837 -7.163,16 -16,16 l 0,0 -176,0 z" /></clipPath><linearGradient
       id="linearGradient24"
       spreadMethod="pad"
       gradientTransform="matrix(152.72791,-152.72791,-152.72791,-152.72791,51.636043,262.26346)"
       gradientUnits="userSpaceOnUse"
       y2="0"
       x2="1"
       y1="0"
       x1="0"><stop
         id="stop26"
         offset="0"
         style="stop-opacity:1;stop-color:#e6e7e8" /><stop
         id="stop28"
         offset="1"
         style="stop-opacity:1;stop-color:#d1d3d4" /></linearGradient><clipPath
       id="clipPath36"
       clipPathUnits="userSpaceOnUse"><path
         id="path38"
         d="M 24,128 24,32 C 24,20.954 32.954,12 44,12 l 0,0 168,0 c 11.046,0 20,8.954 20,20 l 0,0 0,96 -208,0 z" /></clipPath><linearGradient
       id="linearGradient44"
       spreadMethod="pad"
       gradientTransform="matrix(156.14214,-156.14214,-156.14214,-156.14214,49.928932,153.92892)"
       gradientUnits="userSpaceOnUse"
       y2="0"
       x2="1"
       y1="0"
       x1="0"><stop
         id="stop46"
         offset="0"
         style="stop-opacity:1;stop-color:#e6e7e8" /><stop
         id="stop48"
         offset="1"
         style="stop-opacity:1;stop-color:#d1d3d4" /></linearGradient><clipPath
       id="clipPath56"
       clipPathUnits="userSpaceOnUse"><path
         id="path58"
         d="M 0,256 256,256 256,0 0,0 0,256 Z" /></clipPath><clipPath
       id="clipPath70"
       clipPathUnits="userSpaceOnUse"><path
         id="path72"
         d="m 72,128 c -4.418,0 -8,-3.582 -8,-8 l 0,0 0,-100 c 0,-4.418 3.582,-8 8,-8 l 0,0 112,0 c 4.418,0 8,3.582 8,8 l 0,0 0,100 c 0,4.418 -3.582,8 -8,8 l 0,0 -112,0 z M 66,20 66,120 c 0,3.309 2.692,6 6,6 l 0,0 112,0 c 3.309,0 6,-2.691 6,-6 l 0,0 0,-100 c 0,-3.309 -2.691,-6 -6,-6 l 0,0 -112,0 c -3.308,0 -6,2.691 -6,6" /></clipPath><linearGradient
       id="linearGradient78"
       spreadMethod="pad"
       gradientTransform="matrix(-117.31371,117.31371,117.31371,117.31371,186.65685,11.343145)"
       gradientUnits="userSpaceOnUse"
       y2="0"
       x2="1"
       y1="0"
       x1="0"><stop
         id="stop80"
         offset="0"
         style="stop-opacity:1;stop-color:#e6e7e8" /><stop
         id="stop82"
         offset="1"
         style="stop-opacity:1;stop-color:#d1d3d4" /></linearGradient><clipPath
       id="clipPath90"
       clipPathUnits="userSpaceOnUse"><path
         id="path92"
         d="M 0,256 256,256 256,0 0,0 0,256 Z" /></clipPath><clipPath
       id="clipPath102"
       clipPathUnits="userSpaceOnUse"><path
         id="path104"
         d="m 126,238 c 0,-1.105 0.896,-2 2,-2 l 0,0 c 1.104,0 2,0.895 2,2 l 0,0 c 0,1.105 -0.896,2 -2,2 l 0,0 c -1.104,0 -2,-0.895 -2,-2" /></clipPath><linearGradient
       id="linearGradient110"
       spreadMethod="pad"
       gradientTransform="matrix(2.8284271,-2.8284271,-2.8284271,-2.8284271,126.58578,239.41422)"
       gradientUnits="userSpaceOnUse"
       y2="0"
       x2="1"
       y1="0"
       x1="0"><stop
         id="stop112"
         offset="0"
         style="stop-opacity:1;stop-color:#e6e7e8" /><stop
         id="stop114"
         offset="1"
         style="stop-opacity:1;stop-color:#d1d3d4" /></linearGradient><clipPath
       id="clipPath122"
       clipPathUnits="userSpaceOnUse"><path
         id="path124"
         d="M 0,256 256,256 256,0 0,0 0,256 Z" /></clipPath><clipPath
       id="clipPath134"
       clipPathUnits="userSpaceOnUse"><path
         id="path136"
         d="m 64,237 c 0,-1.656 1.344,-3 3,-3 l 0,0 c 1.656,0 3,1.344 3,3 l 0,0 c 0,1.657 -1.344,3 -3,3 l 0,0 c -1.656,0 -3,-1.343 -3,-3" /></clipPath><linearGradient
       id="linearGradient142"
       spreadMethod="pad"
       gradientTransform="matrix(-4.2426405,4.2426405,4.2426405,4.2426405,69.121323,234.87868)"
       gradientUnits="userSpaceOnUse"
       y2="0"
       x2="1"
       y1="0"
       x1="0"><stop
         id="stop144"
         offset="0"
         style="stop-opacity:1;stop-color:#e6e7e8" /><stop
         id="stop146"
         offset="1"
         style="stop-opacity:1;stop-color:#d1d3d4" /></linearGradient><clipPath
       id="clipPath154"
       clipPathUnits="userSpaceOnUse"><path
         id="path156"
         d="m 186,237 c 0,-1.656 1.343,-3 3,-3 l 0,0 c 1.657,0 3,1.344 3,3 l 0,0 c 0,1.657 -1.343,3 -3,3 l 0,0 c -1.657,0 -3,-1.343 -3,-3" /></clipPath><linearGradient
       id="linearGradient162"
       spreadMethod="pad"
       gradientTransform="matrix(-4.2426405,4.2426405,4.2426405,4.2426405,191.12132,234.87868)"
       gradientUnits="userSpaceOnUse"
       y2="0"
       x2="1"
       y1="0"
       x1="0"><stop
         id="stop164"
         offset="0"
         style="stop-opacity:1;stop-color:#e6e7e8" /><stop
         id="stop166"
         offset="1"
         style="stop-opacity:1;stop-color:#d1d3d4" /></linearGradient><clipPath
       id="clipPath174"
       clipPathUnits="userSpaceOnUse"><path
         id="path176"
         d="M 0,256 256,256 256,0 0,0 0,256 Z" /></clipPath><clipPath
       id="clipPath192"
       clipPathUnits="userSpaceOnUse"><path
         id="path194"
         d="m 56,232 c -2.209,0 -4,-1.791 -4,-4 l 0,0 0,-88 c 0,-2.209 1.791,-4 4,-4 l 0,0 144,0 c 2.209,0 4,1.791 4,4 l 0,0 0,88 c 0,2.209 -1.791,4 -4,4 l 0,0 -144,0 z" /></clipPath><linearGradient
       id="linearGradient200"
       spreadMethod="pad"
       gradientTransform="matrix(-121.65685,121.65685,121.65685,121.65685,188.82843,123.17157)"
       gradientUnits="userSpaceOnUse"
       y2="0"
       x2="1"
       y1="0"
       x1="0"><stop
         id="stop202"
         offset="0"
         style="stop-opacity:1;stop-color:#e6e7e8" /><stop
         id="stop204"
         offset="1"
         style="stop-opacity:1;stop-color:#d1d3d4" /></linearGradient><clipPath
       id="clipPath212"
       clipPathUnits="userSpaceOnUse"><path
         id="path214"
         d="m 56,140 144,0 0,87.999 -144,0 L 56,140 Z" /></clipPath><linearGradient
       id="linearGradient220"
       spreadMethod="pad"
       gradientTransform="matrix(115.99999,-115.99999,-115.99999,-115.99999,70,242)"
       gradientUnits="userSpaceOnUse"
       y2="0"
       x2="1"
       y1="0"
       x1="0"><stop
         id="stop222"
         offset="0"
         style="stop-opacity:1;stop-color:#e6e7e8" /><stop
         id="stop224"
         offset="1"
         style="stop-opacity:1;stop-color:#d1d3d4" /></linearGradient><clipPath
       id="clipPath232"
       clipPathUnits="userSpaceOnUse"><path
         id="path234"
         d="M 0,256 256,256 256,0 0,0 0,256 Z" /></clipPath><clipPath
       id="clipPath244"
       clipPathUnits="userSpaceOnUse"><path
         id="path246"
         d="m 228,156 4.001,0 0,12.001 -4.001,0 0,-12.001 z" /></clipPath><linearGradient
       id="linearGradient252"
       spreadMethod="pad"
       gradientTransform="matrix(-7.9999995,7.9999995,7.9999995,7.9999995,234,158)"
       gradientUnits="userSpaceOnUse"
       y2="0"
       x2="1"
       y1="0"
       x1="0"><stop
         id="stop254"
         offset="0"
         style="stop-opacity:1;stop-color:#e6e7e8" /><stop
         id="stop256"
         offset="1"
         style="stop-opacity:1;stop-color:#d1d3d4" /></linearGradient><clipPath
       id="clipPath264"
       clipPathUnits="userSpaceOnUse"><path
         id="path266"
         d="m 32,136 c -4.419,0 -8,-3.581 -8,-8 l 0,0 c 0,-4.418 3.581,-8 8,-8 l 0,0 192,0 c 4.418,0 8,3.582 8,8 l 0,0 c 0,4.419 -3.582,8 -8,8 l 0,0 -192,0 z" /></clipPath><linearGradient
       id="linearGradient272"
       spreadMethod="pad"
       gradientTransform="matrix(-107.31371,107.31371,107.31371,107.31371,181.65686,74.34314)"
       gradientUnits="userSpaceOnUse"
       y2="0"
       x2="1"
       y1="0"
       x1="0"><stop
         id="stop274"
         offset="0"
         style="stop-opacity:1;stop-color:#e6e7e8" /><stop
         id="stop276"
         offset="1"
         style="stop-opacity:1;stop-color:#d1d3d4" /></linearGradient><clipPath
       id="clipPath284"
       clipPathUnits="userSpaceOnUse"><path
         id="path286"
         d="M 0,256 256,256 256,0 0,0 0,256 Z" /></clipPath><clipPath
       id="clipPath296"
       clipPathUnits="userSpaceOnUse"><path
         id="path298"
         d="m 224,126 2,0 0,4 -2,0 0,-4 z" /></clipPath><linearGradient
       id="linearGradient304"
       spreadMethod="pad"
       gradientTransform="matrix(-2.9999998,2.9999998,2.9999998,2.9999998,226.5,126.5)"
       gradientUnits="userSpaceOnUse"
       y2="0"
       x2="1"
       y1="0"
       x1="0"><stop
         id="stop306"
         offset="0"
         style="stop-opacity:1;stop-color:#e6e7e8" /><stop
         id="stop308"
         offset="1"
         style="stop-opacity:1;stop-color:#d1d3d4" /></linearGradient><clipPath
       id="clipPath316"
       clipPathUnits="userSpaceOnUse"><path
         id="path318"
         d="M 0,256 256,256 256,0 0,0 0,256 Z" /></clipPath><clipPath
       id="clipPath326"
       clipPathUnits="userSpaceOnUse"><path
         id="path328"
         d="m 30,93.883 c 0,-8.285 6.715,-15 15,-15 l 0,0 c 8.285,0 15,6.715 15,15 l 0,0 c 0,8.284 -6.715,15 -15,15 l 0,0 c -8.285,0 -15,-6.716 -15,-15" /></clipPath><linearGradient
       id="linearGradient334"
       spreadMethod="pad"
       gradientTransform="matrix(-21.213203,21.213203,21.213203,21.213203,55.606602,83.275749)"
       gradientUnits="userSpaceOnUse"
       y2="0"
       x2="1"
       y1="0"
       x1="0"><stop
         id="stop336"
         offset="0"
         style="stop-opacity:1;stop-color:#e6e7e8" /><stop
         id="stop338"
         offset="1"
         style="stop-opacity:1;stop-color:#d1d3d4" /></linearGradient><clipPath
       id="clipPath346"
       clipPathUnits="userSpaceOnUse"><path
         id="path348"
         d="m 35,93.883 c 0,-5.524 4.477,-10 10,-10 l 0,0 c 5.523,0 10,4.476 10,10 l 0,0 c 0,5.522 -4.477,10 -10,10 l 0,0 c -5.523,0 -10,-4.478 -10,-10" /></clipPath><linearGradient
       id="linearGradient354"
       spreadMethod="pad"
       gradientTransform="matrix(14.142136,-14.142136,-14.142136,-14.142136,37.928932,100.95342)"
       gradientUnits="userSpaceOnUse"
       y2="0"
       x2="1"
       y1="0"
       x1="0"><stop
         id="stop356"
         offset="0"
         style="stop-opacity:1;stop-color:#e6e7e8" /><stop
         id="stop358"
         offset="1"
         style="stop-opacity:1;stop-color:#d1d3d4" /></linearGradient><clipPath
       id="clipPath366"
       clipPathUnits="userSpaceOnUse"><path
         id="path368"
         d="M 0,256 256,256 256,0 0,0 0,256 Z" /></clipPath><clipPath
       id="clipPath382"
       clipPathUnits="userSpaceOnUse"><path
         id="path384"
         d="m 44.118,65.648 1.764,0 0,5.294 -1.764,0 0,-5.294 z" /></clipPath><linearGradient
       id="linearGradient390"
       spreadMethod="pad"
       gradientTransform="matrix(3.5294118,-3.5294118,-3.5294118,-3.5294118,43.235294,70.058823)"
       gradientUnits="userSpaceOnUse"
       y2="0"
       x2="1"
       y1="0"
       x1="0"><stop
         id="stop392"
         offset="0"
         style="stop-opacity:1;stop-color:#e6e7e8" /><stop
         id="stop394"
         offset="1"
         style="stop-opacity:1;stop-color:#d1d3d4" /></linearGradient><clipPath
       id="clipPath402"
       clipPathUnits="userSpaceOnUse"><path
         id="path404"
         d="m 44.118,49.765 1.764,0 0,5.294 -1.764,0 0,-5.294 z" /></clipPath><linearGradient
       id="linearGradient410"
       spreadMethod="pad"
       gradientTransform="matrix(3.5294118,-3.5294118,-3.5294118,-3.5294118,43.235294,54.176472)"
       gradientUnits="userSpaceOnUse"
       y2="0"
       x2="1"
       y1="0"
       x1="0"><stop
         id="stop412"
         offset="0"
         style="stop-opacity:1;stop-color:#e6e7e8" /><stop
         id="stop414"
         offset="1"
         style="stop-opacity:1;stop-color:#d1d3d4" /></linearGradient><clipPath
       id="clipPath422"
       clipPathUnits="userSpaceOnUse"><path
         id="path424"
         d="m 50.294,59.471 5.295,0 0,1.764 -5.295,0 0,-1.764 z" /></clipPath><linearGradient
       id="linearGradient430"
       spreadMethod="pad"
       gradientTransform="matrix(3.5294118,-3.5294118,-3.5294118,-3.5294118,51.176472,62.117645)"
       gradientUnits="userSpaceOnUse"
       y2="0"
       x2="1"
       y1="0"
       x1="0"><stop
         id="stop432"
         offset="0"
         style="stop-opacity:1;stop-color:#e6e7e8" /><stop
         id="stop434"
         offset="1"
         style="stop-opacity:1;stop-color:#d1d3d4" /></linearGradient><clipPath
       id="clipPath442"
       clipPathUnits="userSpaceOnUse"><path
         id="path444"
         d="m 34.411,59.471 5.295,0 0,1.764 -5.295,0 0,-1.764 z" /></clipPath><linearGradient
       id="linearGradient450"
       spreadMethod="pad"
       gradientTransform="matrix(3.5294118,-3.5294118,-3.5294118,-3.5294118,35.294117,62.117645)"
       gradientUnits="userSpaceOnUse"
       y2="0"
       x2="1"
       y1="0"
       x1="0"><stop
         id="stop452"
         offset="0"
         style="stop-opacity:1;stop-color:#e6e7e8" /><stop
         id="stop454"
         offset="1"
         style="stop-opacity:1;stop-color:#d1d3d4" /></linearGradient><clipPath
       id="clipPath462"
       clipPathUnits="userSpaceOnUse"><path
         id="path464"
         d="m 200,12 2,0 0,4.001 -2,0 0,-4.001 z" /></clipPath><linearGradient
       id="linearGradient470"
       spreadMethod="pad"
       gradientTransform="matrix(2.9999998,-2.9999998,-2.9999998,-2.9999998,199.5,15.5)"
       gradientUnits="userSpaceOnUse"
       y2="0"
       x2="1"
       y1="0"
       x1="0"><stop
         id="stop472"
         offset="0"
         style="stop-opacity:1;stop-color:#e6e7e8" /><stop
         id="stop474"
         offset="1"
         style="stop-opacity:1;stop-color:#d1d3d4" /></linearGradient><clipPath
       id="clipPath482"
       clipPathUnits="userSpaceOnUse"><path
         id="path484"
         d="m 208,12 2,0 0,4.001 -2,0 0,-4.001 z" /></clipPath><linearGradient
       id="linearGradient490"
       spreadMethod="pad"
       gradientTransform="matrix(2.9999998,-2.9999998,-2.9999998,-2.9999998,207.5,15.5)"
       gradientUnits="userSpaceOnUse"
       y2="0"
       x2="1"
       y1="0"
       x1="0"><stop
         id="stop492"
         offset="0"
         style="stop-opacity:1;stop-color:#e6e7e8" /><stop
         id="stop494"
         offset="1"
         style="stop-opacity:1;stop-color:#d1d3d4" /></linearGradient><clipPath
       id="clipPath502"
       clipPathUnits="userSpaceOnUse"><path
         id="path504"
         d="M 0,256 256,256 256,0 0,0 0,256 Z" /></clipPath></defs><g
     transform="matrix(1.25,0,0,-1.25,0,320)"
     id="g10"><g
       id="g12"><g
         clip-path="url(#clipPath16)"
         id="g14"><g
           id="g20"><g
             id="g22"><path
               id="path30"
               style="fill:url(#linearGradient24);stroke:none"
               d="m 40,244 c -8.837,0 -16,-7.163 -16,-16 l 0,0 0,-90 c 0,-1.105 0.896,-2 2,-2 l 0,0 6,0 0,-4 192,0 0,4 6,0 c 1.105,0 2,0.895 2,2 l 0,0 0,90 c 0,8.837 -7.163,16 -16,16 l 0,0 -176,0 z" /></g></g></g></g><g
       id="g32"><g
         clip-path="url(#clipPath36)"
         id="g34"><g
           id="g40"><g
             id="g42"><path
               id="path50"
               style="fill:url(#linearGradient44);stroke:none"
               d="M 24,128 24,32 C 24,20.954 32.954,12 44,12 l 0,0 168,0 c 11.046,0 20,8.954 20,20 l 0,0 0,96 -208,0 z" /></g></g></g></g><g
       id="g52"><g
         clip-path="url(#clipPath56)"
         id="g54"><path
           id="path60"
           style="fill:#999999;fill-opacity:1;fill-rule:nonzero;stroke:none"
           d="m 106,12 -34,0 0,12 34,0 0,-12 z" /><path
           id="path62"
           style="fill:#999999;fill-opacity:1;fill-rule:nonzero;stroke:none"
           d="m 148,12 -40,0 0,12 40,0 0,-12 z" /><path
           id="path64"
           style="fill:#999999;fill-opacity:1;fill-rule:nonzero;stroke:none"
           d="m 184,12 -34,0 0,12 34,0 0,-12 z" /></g></g><g
       id="g66"><g
         clip-path="url(#clipPath70)"
         id="g68"><g
           id="g74"><g
             id="g76"><path
               id="path84"
               style="fill:url(#linearGradient78);stroke:none"
               d="m 72,128 c -4.418,0 -8,-3.582 -8,-8 l 0,0 0,-100 c 0,-4.418 3.582,-8 8,-8 l 0,0 112,0 c 4.418,0 8,3.582 8,8 l 0,0 0,100 c 0,4.418 -3.582,8 -8,8 l 0,0 -112,0 z M 66,20 66,120 c 0,3.309 2.692,6 6,6 l 0,0 112,0 c 3.309,0 6,-2.691 6,-6 l 0,0 0,-100 c 0,-3.309 -2.691,-6 -6,-6 l 0,0 -112,0 c -3.308,0 -6,2.691 -6,6" /></g></g></g></g><g
       id="g86"><g
         clip-path="url(#clipPath90)"
         id="g88"><g
           transform="translate(132,238)"
           id="g94"><path
             id="path96"
             style="fill:#999999;fill-opacity:1;fill-rule:nonzero;stroke:none"
             d="m 0,0 c 0,-2.209 -1.791,-4 -4,-4 -2.209,0 -4,1.791 -4,4 0,2.209 1.791,4 4,4 2.209,0 4,-1.791 4,-4" /></g></g></g><g
       id="g98"><g
         clip-path="url(#clipPath102)"
         id="g100"><g
           id="g106"><g
             id="g108"><path
               id="path116"
               style="fill:url(#linearGradient110);stroke:none"
               d="m 126,238 c 0,-1.105 0.896,-2 2,-2 l 0,0 c 1.104,0 2,0.895 2,2 l 0,0 c 0,1.105 -0.896,2 -2,2 l 0,0 c -1.104,0 -2,-0.895 -2,-2" /></g></g></g></g><g
       id="g118"><g
         clip-path="url(#clipPath122)"
         id="g120"><g
           transform="translate(129,238)"
           id="g126"><path
             id="path128"
             style="fill:#999999;fill-opacity:1;fill-rule:nonzero;stroke:none"
             d="m 0,0 c 0,-0.552 -0.448,-1 -1,-1 -0.552,0 -1,0.448 -1,1 0,0.552 0.448,1 1,1 0.552,0 1,-0.448 1,-1" /></g></g></g><g
       id="g130"><g
         clip-path="url(#clipPath134)"
         id="g132"><g
           id="g138"><g
             id="g140"><path
               id="path148"
               style="fill:url(#linearGradient142);stroke:none"
               d="m 64,237 c 0,-1.656 1.344,-3 3,-3 l 0,0 c 1.656,0 3,1.344 3,3 l 0,0 c 0,1.657 -1.344,3 -3,3 l 0,0 c -1.656,0 -3,-1.343 -3,-3" /></g></g></g></g><g
       id="g150"><g
         clip-path="url(#clipPath154)"
         id="g152"><g
           id="g158"><g
             id="g160"><path
               id="path168"
               style="fill:url(#linearGradient162);stroke:none"
               d="m 186,237 c 0,-1.656 1.343,-3 3,-3 l 0,0 c 1.657,0 3,1.344 3,3 l 0,0 c 0,1.657 -1.343,3 -3,3 l 0,0 c -1.657,0 -3,-1.343 -3,-3" /></g></g></g></g><g
       id="g170"><g
         clip-path="url(#clipPath174)"
         id="g172"><g
           transform="translate(221.707,184.707)"
           id="g178"><path
             id="path180"
             style="fill:#999999;fill-opacity:1;fill-rule:nonzero;stroke:none"
             d="m 0,0 c -0.391,0.391 -1.023,0.391 -1.414,0 -0.391,-0.391 -0.391,-1.023 0,-1.414 0.391,-0.391 1.023,-0.391 1.414,0 0.391,0.391 0.391,1.023 0,1.414 m -6,0 c -0.391,0.391 -1.023,0.391 -1.414,0 -0.391,-0.391 -0.391,-1.023 0,-1.414 0.391,-0.391 1.023,-0.391 1.414,0 0.391,0.391 0.391,1.023 0,1.414 M 0,6 C -0.391,6.391 -1.023,6.391 -1.414,6 -1.805,5.609 -1.805,4.977 -1.414,4.586 -1.023,4.195 -0.391,4.195 0,4.586 0.391,4.977 0.391,5.609 0,6 m -6,0 c -0.391,0.391 -1.023,0.391 -1.414,0 -0.391,-0.391 -0.391,-1.023 0,-1.414 0.391,-0.391 1.023,-0.391 1.414,0 0.391,0.391 0.391,1.023 0,1.414 m 3.293,-8.707 c 0,0.552 -0.447,1 -1,1 -0.553,0 -1,-0.448 -1,-1 0,-0.552 0.447,-1 1,-1 0.553,0 1,0.448 1,1 m 0,10 c 0,0.552 -0.447,1 -1,1 -0.553,0 -1,-0.448 -1,-1 0,-0.552 0.447,-1 1,-1 0.553,0 1,0.448 1,1 m 4,-4 c -0.553,0 -1,-0.448 -1,-1 0,-0.552 0.447,-1 1,-1 0.553,0 1,0.448 1,1 0,0.552 -0.447,1 -1,1 m -10,0 c -0.553,0 -1,-0.448 -1,-1 0,-0.552 0.447,-1 1,-1 0.553,0 1,0.448 1,1 0,0.552 -0.447,1 -1,1 m 6,-1 c 0,-0.552 -0.447,-1 -1,-1 -0.553,0 -1,0.448 -1,1 0,0.552 0.447,1 1,1 0.553,0 1,-0.448 1,-1" /></g><g
           transform="translate(41.707,184.707)"
           id="g182"><path
             id="path184"
             style="fill:#999999;fill-opacity:1;fill-rule:nonzero;stroke:none"
             d="m 0,0 c -0.391,0.391 -1.023,0.391 -1.414,0 -0.391,-0.391 -0.391,-1.023 0,-1.414 0.391,-0.391 1.023,-0.391 1.414,0 0.391,0.391 0.391,1.023 0,1.414 m -6,0 c -0.391,0.391 -1.023,0.391 -1.414,0 -0.391,-0.391 -0.391,-1.023 0,-1.414 0.391,-0.391 1.023,-0.391 1.414,0 0.391,0.391 0.391,1.023 0,1.414 M 0,6 C -0.391,6.391 -1.023,6.391 -1.414,6 -1.805,5.609 -1.805,4.977 -1.414,4.586 -1.023,4.195 -0.391,4.195 0,4.586 0.391,4.977 0.391,5.609 0,6 m -6,0 c -0.391,0.391 -1.023,0.391 -1.414,0 -0.391,-0.391 -0.391,-1.023 0,-1.414 0.391,-0.391 1.023,-0.391 1.414,0 0.391,0.391 0.391,1.023 0,1.414 m 3.293,-8.707 c 0,0.552 -0.448,1 -1,1 -0.552,0 -1,-0.448 -1,-1 0,-0.552 0.448,-1 1,-1 0.552,0 1,0.448 1,1 m 0,10 c 0,0.552 -0.448,1 -1,1 -0.552,0 -1,-0.448 -1,-1 0,-0.552 0.448,-1 1,-1 0.552,0 1,0.448 1,1 m 4,-4 c -0.552,0 -1,-0.448 -1,-1 0,-0.552 0.448,-1 1,-1 0.552,0 1,0.448 1,1 0,0.552 -0.448,1 -1,1 m -10,0 c -0.552,0 -1,-0.448 -1,-1 0,-0.552 0.448,-1 1,-1 0.552,0 1,0.448 1,1 0,0.552 -0.448,1 -1,1 m 6,-1 c 0,-0.552 -0.448,-1 -1,-1 -0.552,0 -1,0.448 -1,1 0,0.552 0.448,1 1,1 0.552,0 1,-0.448 1,-1" /></g><path
           id="path186"
           style="fill:#191919;fill-opacity:1;fill-rule:nonzero;stroke:none"
           d="m 200,228 -144,0 0,-88 144,0 0,88 z" /></g></g><g
       id="g188"><g
         clip-path="url(#clipPath192)"
         id="g190"><g
           id="g196"><g
             id="g198"><path
               id="path206"
               style="fill:url(#linearGradient200);stroke:none"
               d="m 56,232 c -2.209,0 -4,-1.791 -4,-4 l 0,0 0,-88 c 0,-2.209 1.791,-4 4,-4 l 0,0 144,0 c 2.209,0 4,1.791 4,4 l 0,0 0,88 c 0,2.209 -1.791,4 -4,4 l 0,0 -144,0 z" /></g></g></g></g><g
       id="g208"><g
         clip-path="url(#clipPath212)"
         id="g210"><g
           id="g216"><g
             id="g218"><path
               id="path226"
               style="fill:url(#linearGradient220);stroke:none"
               d="m 56,140 144,0 0,87.999 -144,0 L 56,140 Z" /></g></g></g></g><g
       id="g228"><g
         clip-path="url(#clipPath232)"
         id="g230"><path
           id="path236"
           style="fill:#999999;fill-opacity:1;fill-rule:nonzero;stroke:none"
           d="m 198,142 -140,0 0,84 140,0 0,-84 z" /><path
           id="path238"
           style="fill:#999999;fill-opacity:1;fill-rule:nonzero;stroke:none"
           d="m 228,168 4,0 0,8 -4,0 0,-8 z" /></g></g><g
       id="g240"><g
         clip-path="url(#clipPath244)"
         id="g242"><g
           id="g248"><g
             id="g250"><path
               id="path258"
               style="fill:url(#linearGradient252);stroke:none"
               d="m 228,156 4.001,0 0,12.001 -4.001,0 0,-12.001 z" /></g></g></g></g><g
       id="g260"><g
         clip-path="url(#clipPath264)"
         id="g262"><g
           id="g268"><g
             id="g270"><path
               id="path278"
               style="fill:url(#linearGradient272);stroke:none"
               d="m 32,136 c -4.419,0 -8,-3.581 -8,-8 l 0,0 c 0,-4.418 3.581,-8 8,-8 l 0,0 192,0 c 4.418,0 8,3.582 8,8 l 0,0 c 0,4.419 -3.582,8 -8,8 l 0,0 -192,0 z" /></g></g></g></g><g
       id="g280"><g
         clip-path="url(#clipPath284)"
         id="g282"><path
           id="path288"
           style="fill:#999999;fill-opacity:1;fill-rule:nonzero;stroke:none"
           d="m 42,120 -2,0 0,16 2,0 0,-16 z" /><path
           id="path290"
           style="fill:#999999;fill-opacity:1;fill-rule:nonzero;stroke:none"
           d="m 216,120 -2,0 0,16 2,0 0,-16 z" /></g></g><g
       id="g292"><g
         clip-path="url(#clipPath296)"
         id="g294"><g
           id="g300"><g
             id="g302"><path
               id="path310"
               style="fill:url(#linearGradient304);stroke:none"
               d="m 224,126 2,0 0,4 -2,0 0,-4 z" /></g></g></g></g><g
       id="g312"><g
         clip-path="url(#clipPath316)"
         id="g314"><path
           id="path320"
           style="fill:#999999;fill-opacity:1;fill-rule:nonzero;stroke:none"
           d="m 184,28 -112,0 0,88 112,0 0,-88 z" /></g></g><g
       id="g322"><g
         clip-path="url(#clipPath326)"
         id="g324"><g
           id="g330"><g
             id="g332"><path
               id="path340"
               style="fill:url(#linearGradient334);stroke:none"
               d="m 30,93.883 c 0,-8.285 6.715,-15 15,-15 l 0,0 c 8.285,0 15,6.715 15,15 l 0,0 c 0,8.284 -6.715,15 -15,15 l 0,0 c -8.285,0 -15,-6.716 -15,-15" /></g></g></g></g><g
       id="g342"><g
         clip-path="url(#clipPath346)"
         id="g344"><g
           id="g350"><g
             id="g352"><path
               id="path360"
               style="fill:url(#linearGradient354);stroke:none"
               d="m 35,93.883 c 0,-5.524 4.477,-10 10,-10 l 0,0 c 5.523,0 10,4.476 10,10 l 0,0 c 0,5.522 -4.477,10 -10,10 l 0,0 c -5.523,0 -10,-4.478 -10,-10" /></g></g></g></g><g
       id="g362"><g
         clip-path="url(#clipPath366)"
         id="g364"><g
           transform="translate(52.5,93.8828)"
           id="g370"><path
             id="path372"
             style="fill:#999999;fill-opacity:1;fill-rule:nonzero;stroke:none"
             d="m 0,0 c 0,-4.143 -3.358,-7.5 -7.5,-7.5 -4.142,0 -7.5,3.357 -7.5,7.5 0,4.142 3.358,7.5 7.5,7.5 C -3.358,7.5 0,4.142 0,0" /></g><g
           transform="translate(56.4707,63.8828)"
           id="g374"><path
             id="path376"
             style="fill:#999999;fill-opacity:1;fill-rule:nonzero;stroke:none"
             d="m 0,0 -7.941,0 0,7.94 c 0,0.488 -0.395,0.883 -0.883,0.883 l -5.294,0 C -14.605,8.823 -15,8.428 -15,7.94 L -15,0 -22.941,0 c -0.488,0 -0.883,-0.396 -0.883,-0.883 l 0,-5.294 c 0,-0.487 0.395,-0.883 0.883,-0.883 l 7.941,0 0,-7.94 c 0,-0.487 0.395,-0.883 0.882,-0.883 l 5.294,0 c 0.488,0 0.883,0.396 0.883,0.883 l 0,7.94 7.941,0 c 0.487,0 0.882,0.396 0.882,0.883 l 0,5.294 C 0.882,-0.396 0.487,0 0,0" /></g></g></g><g
       id="g378"><g
         clip-path="url(#clipPath382)"
         id="g380"><g
           id="g386"><g
             id="g388"><path
               id="path396"
               style="fill:url(#linearGradient390);stroke:none"
               d="m 44.118,65.648 1.764,0 0,5.294 -1.764,0 0,-5.294 z" /></g></g></g></g><g
       id="g398"><g
         clip-path="url(#clipPath402)"
         id="g400"><g
           id="g406"><g
             id="g408"><path
               id="path416"
               style="fill:url(#linearGradient410);stroke:none"
               d="m 44.118,49.765 1.764,0 0,5.294 -1.764,0 0,-5.294 z" /></g></g></g></g><g
       id="g418"><g
         clip-path="url(#clipPath422)"
         id="g420"><g
           id="g426"><g
             id="g428"><path
               id="path436"
               style="fill:url(#linearGradient430);stroke:none"
               d="m 50.294,59.471 5.295,0 0,1.764 -5.295,0 0,-1.764 z" /></g></g></g></g><g
       id="g438"><g
         clip-path="url(#clipPath442)"
         id="g440"><g
           id="g446"><g
             id="g448"><path
               id="path456"
               style="fill:url(#linearGradient450);stroke:none"
               d="m 34.411,59.471 5.295,0 0,1.764 -5.295,0 0,-1.764 z" /></g></g></g></g><g
       id="g458"><g
         clip-path="url(#clipPath462)"
         id="g460"><g
           id="g466"><g
             id="g468"><path
               id="path476"
               style="fill:url(#linearGradient470);stroke:none"
               d="m 200,12 2,0 0,4.001 -2,0 0,-4.001 z" /></g></g></g></g><g
       id="g478"><g
         clip-path="url(#clipPath482)"
         id="g480"><g
           id="g486"><g
             id="g488"><path
               id="path496"
               style="fill:url(#linearGradient490);stroke:none"
               d="m 208,12 2,0 0,4.001 -2,0 0,-4.001 z" /></g></g></g></g><g
       id="g498"><g
         clip-path="url(#clipPath502)"
         id="g500"><g
           transform="translate(196,26)"
           id="g506"><path
             id="path508"
             style="fill:#999999;fill-opacity:1;fill-rule:nonzero;stroke:none"
             d="M 0,0 C 0,-2.209 1.791,-4 4,-4 6.209,-4 8,-2.209 8,0 8,2.209 6.209,4 4,4 1.791,4 0,2.209 0,0" /></g><g
           transform="translate(215,98)"
           id="g510"><path
             id="path512"
             style="fill:#999999;fill-opacity:1;fill-rule:nonzero;stroke:none"
             d="m 0,0 c 0,-2.762 -2.238,-5 -5,-5 -2.762,0 -5,2.238 -5,5 0,2.762 2.238,5 5,5 2.762,0 5,-2.238 5,-5" /></g><g
           transform="translate(215,77)"
           id="g514"><path
             id="path516"
             style="fill:#999999;fill-opacity:1;fill-rule:nonzero;stroke:none"
             d="m 0,0 c 0,-2.762 -2.238,-5 -5,-5 -2.762,0 -5,2.238 -5,5 0,2.762 2.238,5 5,5 2.762,0 5,-2.238 5,-5" /></g><g
           transform="translate(220.5,82)"
           id="g518"><path
             id="path520"
             style="fill:#999999;fill-opacity:1;fill-rule:nonzero;stroke:none"
             d="m 0,0 c -2.762,0 -5,2.238 -5,5 0,2.762 2.238,5 5,5 C 2.762,10 5,7.762 5,5 5,2.238 2.762,0 0,0" /></g><g
           transform="translate(199.5,82)"
           id="g522"><path
             id="path524"
             style="fill:#999999;fill-opacity:1;fill-rule:nonzero;stroke:none"
             d="m 0,0 c -2.762,0 -5,2.238 -5,5 0,2.762 2.238,5 5,5 C 2.762,10 5,7.762 5,5 5,2.238 2.762,0 0,0" /></g></g></g></g></svg>