<?xml version="1.0" encoding="UTF-8" standalone="no"?>
<svg
   xmlns:dc="http://purl.org/dc/elements/1.1/"
   xmlns:cc="http://creativecommons.org/ns#"
   xmlns:rdf="http://www.w3.org/1999/02/22-rdf-syntax-ns#"
   xmlns:svg="http://www.w3.org/2000/svg"
   xmlns="http://www.w3.org/2000/svg"
   viewBox="0 0 320 320"
   height="320"
   width="320"
   xml:space="preserve"
   version="1.1"
   id="svg2"><metadata
     id="metadata8"><rdf:RDF><cc:Work
         rdf:about=""><dc:format>image/svg+xml</dc:format><dc:type
           rdf:resource="http://purl.org/dc/dcmitype/StillImage" /></cc:Work></rdf:RDF></metadata><defs
     id="defs6"><clipPath
       id="clipPath16"
       clipPathUnits="userSpaceOnUse"><path
         id="path18"
         d="m 164,138.884 18.656,0 c 7.462,0 14.924,-7.713 18.655,-19.284 l 0,0 c 3.57,-33.216 3.724,-34.647 7,-71.885 l 0,0 c 0.4,-4.537 1.768,-9.053 4.5,-12.628 l 0,0 c 7.223,-9.45 18.286,-9.45 25.507,0.004 l 0,0 c 2.789,3.651 4.001,8.306 4.206,12.955 l 0,0 c 0.998,22.637 5.158,42.603 -7.218,76.552 l 0,0 c -1.875,5.143 -4.448,9.968 -6.872,14.861 l 0,0 c -3.952,7.98 -3.541,17.323 2.726,30.281 l 0,0 c -2.233,4.017 -9.152,6.26 -17.763,6.26 l 0,0 C 194.561,176 167.636,165.265 164,138.884" /></clipPath><linearGradient
       id="linearGradient24"
       spreadMethod="pad"
       gradientTransform="matrix(94.763428,-94.763428,-94.763428,-94.763428,169.21552,155.22937)"
       gradientUnits="userSpaceOnUse"
       y2="0"
       x2="1"
       y1="0"
       x1="0"><stop
         id="stop26"
         offset="0"
         style="stop-opacity:1;stop-color:#e6e7e8" /><stop
         id="stop28"
         offset="1"
         style="stop-opacity:1;stop-color:#d1d3d4" /></linearGradient><clipPath
       id="clipPath36"
       clipPathUnits="userSpaceOnUse"><path
         id="path38"
         d="m 24.84,169.74 c 6.268,-12.958 6.678,-22.301 2.725,-30.281 l 0,0 c -2.424,-4.894 -4.997,-9.719 -6.871,-14.862 l 0,0 C 8.318,90.647 12.478,70.682 13.477,48.044 l 0,0 c 0.204,-4.648 1.415,-9.302 4.204,-12.953 l 0,0 c 7.222,-9.454 18.285,-9.454 25.507,-0.004 l 0,0 c 2.733,3.575 4.102,8.091 4.5,12.628 l 0,0 c 3.276,37.238 3.43,38.669 7.001,71.885 l 0,0 c 3.731,11.571 11.193,19.284 18.656,19.284 l 0,0 18.655,0 C 88.364,165.265 61.439,176 42.603,176 l 0,0 c -8.611,0 -15.53,-2.243 -17.763,-6.26" /></clipPath><linearGradient
       id="linearGradient44"
       spreadMethod="pad"
       gradientTransform="matrix(76.831314,-76.831314,-76.831314,-76.831314,0.9870491,146.26324)"
       gradientUnits="userSpaceOnUse"
       y2="0"
       x2="1"
       y1="0"
       x1="0"><stop
         id="stop46"
         offset="0"
         style="stop-opacity:1;stop-color:#e6e7e8" /><stop
         id="stop48"
         offset="1"
         style="stop-opacity:1;stop-color:#d1d3d4" /></linearGradient><clipPath
       id="clipPath56"
       clipPathUnits="userSpaceOnUse"><path
         id="path58"
         d="M 89.665,200 C 87.641,200 86,198.349 86,196.313 l 0,0 0,-88.626 C 86,105.65 87.641,104 89.665,104 l 0,0 76.669,0 c 2.024,0 3.666,1.65 3.666,3.687 l 0,0 0,88.626 c 0,2.036 -1.642,3.687 -3.666,3.687 l 0,0 -76.669,0 z" /></clipPath><linearGradient
       id="linearGradient64"
       spreadMethod="pad"
       gradientTransform="matrix(87.84671,-87.84671,-87.84671,-87.84671,84.07663,195.92336)"
       gradientUnits="userSpaceOnUse"
       y2="0"
       x2="1"
       y1="0"
       x1="0"><stop
         id="stop66"
         offset="0"
         style="stop-opacity:1;stop-color:#e6e7e8" /><stop
         id="stop68"
         offset="1"
         style="stop-opacity:1;stop-color:#d1d3d4" /></linearGradient><clipPath
       id="clipPath76"
       clipPathUnits="userSpaceOnUse"><path
         id="path78"
         d="m 36.431,156.859 50.118,-11.521 c 26.986,-7.68 46.261,19.203 23.13,42.245 l 0,0 -30.841,19.202 C 68.653,213.308 59.569,216.001 51.762,216 l 0,0 C 18.199,215.996 8.283,166.207 36.431,156.859" /></clipPath><linearGradient
       id="linearGradient84"
       spreadMethod="pad"
       gradientTransform="matrix(-69.827972,69.827972,69.827972,69.827972,103.14008,140.34544)"
       gradientUnits="userSpaceOnUse"
       y2="0"
       x2="1"
       y1="0"
       x1="0"><stop
         id="stop86"
         offset="0"
         style="stop-opacity:1;stop-color:#e6e7e8" /><stop
         id="stop88"
         offset="1"
         style="stop-opacity:1;stop-color:#d1d3d4" /></linearGradient><clipPath
       id="clipPath96"
       clipPathUnits="userSpaceOnUse"><path
         id="path98"
         d="M 0,256 256,256 256,0 0,0 0,256 Z" /></clipPath><clipPath
       id="clipPath116"
       clipPathUnits="userSpaceOnUse"><path
         id="path118"
         d="M 177.161,206.785 146.32,187.583 c -23.131,-23.042 -3.855,-49.925 23.131,-42.245 l 0,0 50.117,11.521 c 28.149,9.348 18.233,59.137 -15.33,59.141 l 0,0 c -7.807,0.001 -16.891,-2.692 -27.077,-9.215" /></clipPath><linearGradient
       id="linearGradient124"
       spreadMethod="pad"
       gradientTransform="matrix(-53.777187,53.777187,53.777187,53.777187,214.66249,148.37083)"
       gradientUnits="userSpaceOnUse"
       y2="0"
       x2="1"
       y1="0"
       x1="0"><stop
         id="stop126"
         offset="0"
         style="stop-opacity:1;stop-color:#e6e7e8" /><stop
         id="stop128"
         offset="1"
         style="stop-opacity:1;stop-color:#d1d3d4" /></linearGradient><clipPath
       id="clipPath136"
       clipPathUnits="userSpaceOnUse"><path
         id="path138"
         d="M 0,256 256,256 256,0 0,0 0,256 Z" /></clipPath><clipPath
       id="clipPath160"
       clipPathUnits="userSpaceOnUse"><path
         id="path162"
         d="m 114.429,192 c -1.07,0 -2.014,-0.645 -2.324,-1.588 l 0,0 c -0.311,-0.944 0.087,-1.965 0.976,-2.51 l 0,0 5.743,-3.526 c 0.399,-0.245 0.869,-0.376 1.348,-0.376 l 0,0 7.657,0 c 0.479,0 0.947,0.131 1.346,0.376 l 0,0 5.743,3.526 c 0.89,0.545 1.288,1.566 0.977,2.51 l 0,0 c -0.31,0.943 -1.254,1.588 -2.323,1.588 l 0,0 -19.143,0 z" /></clipPath><linearGradient
       id="linearGradient168"
       spreadMethod="pad"
       gradientTransform="matrix(-12.873329,12.873329,12.873329,12.873329,130.43666,183.32637)"
       gradientUnits="userSpaceOnUse"
       y2="0"
       x2="1"
       y1="0"
       x1="0"><stop
         id="stop170"
         offset="0"
         style="stop-opacity:1;stop-color:#e6e7e8" /><stop
         id="stop172"
         offset="1"
         style="stop-opacity:1;stop-color:#d1d3d4" /></linearGradient><clipPath
       id="clipPath180"
       clipPathUnits="userSpaceOnUse"><path
         id="path182"
         d="m 58.065,193.999 c 1.36,-1.475 2.211,-3.427 2.211,-5.587 l 0,0 c 0,-4.563 -3.713,-8.275 -8.276,-8.275 l 0,0 c -4.564,0 -8.276,3.712 -8.276,8.275 l 0,0 c 0,2.16 0.851,4.112 2.211,5.587 l 0,0 -2.209,0 c -1.081,-1.595 -1.714,-3.518 -1.714,-5.587 l 0,0 c 0,-2.452 0.922,-4.672 2.395,-6.412 l 0,0 1.593,0 0,-1.521 c 1.676,-1.271 3.739,-2.055 6,-2.055 l 0,0 c 2.26,0 4.325,0.784 6,2.055 l 0,0 0,1.521 1.594,0 c 1.471,1.74 2.394,3.96 2.394,6.412 l 0,0 c 0,2.069 -0.632,3.992 -1.713,5.587 l 0,0 -2.21,0 z" /></clipPath><linearGradient
       id="linearGradient188"
       spreadMethod="pad"
       gradientTransform="matrix(13.933828,-13.933828,-13.933828,-13.933828,45.033085,195.30769)"
       gradientUnits="userSpaceOnUse"
       y2="0"
       x2="1"
       y1="0"
       x1="0"><stop
         id="stop190"
         offset="0"
         style="stop-opacity:1;stop-color:#e6e7e8" /><stop
         id="stop192"
         offset="1"
         style="stop-opacity:1;stop-color:#d1d3d4" /></linearGradient><clipPath
       id="clipPath200"
       clipPathUnits="userSpaceOnUse"><path
         id="path202"
         d="m 46,200.344 0,-1.94 c 1.76,1.062 3.799,1.709 6,1.709 l 0,0 c 2.202,0 4.239,-0.647 6,-1.709 l 0,0 0,1.94 c -1.814,0.916 -3.833,1.482 -6,1.482 l 0,0 c -2.168,0 -4.187,-0.566 -6,-1.482" /></clipPath><linearGradient
       id="linearGradient208"
       spreadMethod="pad"
       gradientTransform="matrix(6.9696045,-6.9696045,-6.9696045,-6.9696045,48.515041,202.85869)"
       gradientUnits="userSpaceOnUse"
       y2="0"
       x2="1"
       y1="0"
       x1="0"><stop
         id="stop210"
         offset="0"
         style="stop-opacity:1;stop-color:#e6e7e8" /><stop
         id="stop212"
         offset="1"
         style="stop-opacity:1;stop-color:#d1d3d4" /></linearGradient><clipPath
       id="clipPath220"
       clipPathUnits="userSpaceOnUse"><path
         id="path222"
         d="m 62.215,193.999 c 0.917,-1.667 1.485,-3.553 1.485,-5.587 l 0,0 c 0,-2.368 -0.718,-4.568 -1.933,-6.412 l 0,0 1.939,0 c 1.054,1.914 1.707,4.078 1.707,6.412 l 0,0 c 0,2 -0.47,3.881 -1.258,5.587 l 0,0 -1.94,0 z" /></clipPath><linearGradient
       id="linearGradient228"
       spreadMethod="pad"
       gradientTransform="matrix(6.7453017,-6.7453017,-6.7453017,-6.7453017,59.588428,191.37273)"
       gradientUnits="userSpaceOnUse"
       y2="0"
       x2="1"
       y1="0"
       x1="0"><stop
         id="stop230"
         offset="0"
         style="stop-opacity:1;stop-color:#e6e7e8" /><stop
         id="stop232"
         offset="1"
         style="stop-opacity:1;stop-color:#d1d3d4" /></linearGradient><clipPath
       id="clipPath240"
       clipPathUnits="userSpaceOnUse"><path
         id="path242"
         d="m 46,196.347 0,-2.268 c 1.51,1.598 3.633,2.61 6,2.61 l 0,0 c 2.366,0 4.49,-1.012 6,-2.609 l 0,0 0,2.267 c -1.675,1.27 -3.74,2.053 -6,2.053 l 0,0 c -2.261,0 -4.324,-0.783 -6,-2.053" /></clipPath><linearGradient
       id="linearGradient248"
       spreadMethod="pad"
       gradientTransform="matrix(7.1335726,-7.1335726,-7.1335726,-7.1335726,48.43306,198.77954)"
       gradientUnits="userSpaceOnUse"
       y2="0"
       x2="1"
       y1="0"
       x1="0"><stop
         id="stop250"
         offset="0"
         style="stop-opacity:1;stop-color:#e6e7e8" /><stop
         id="stop252"
         offset="1"
         style="stop-opacity:1;stop-color:#d1d3d4" /></linearGradient><clipPath
       id="clipPath260"
       clipPathUnits="userSpaceOnUse"><path
         id="path262"
         d="m 39.845,193.999 c -0.789,-1.706 -1.258,-3.587 -1.258,-5.587 l 0,0 c 0,-2.334 0.653,-4.498 1.706,-6.412 l 0,0 1.939,0 c -1.214,1.844 -1.933,4.044 -1.933,6.412 l 0,0 c 0,2.034 0.569,3.92 1.485,5.587 l 0,0 -1.939,0 z" /></clipPath><linearGradient
       id="linearGradient268"
       spreadMethod="pad"
       gradientTransform="matrix(7.1938491,-7.1938491,-7.1938491,-7.1938491,37.441841,191.59685)"
       gradientUnits="userSpaceOnUse"
       y2="0"
       x2="1"
       y1="0"
       x1="0"><stop
         id="stop270"
         offset="0"
         style="stop-opacity:1;stop-color:#e6e7e8" /><stop
         id="stop272"
         offset="1"
         style="stop-opacity:1;stop-color:#d1d3d4" /></linearGradient><clipPath
       id="clipPath280"
       clipPathUnits="userSpaceOnUse"><path
         id="path282"
         d="m 45.437,188.412 c 0,-3.619 2.943,-6.563 6.563,-6.563 l 0,0 c 3.619,0 6.564,2.944 6.564,6.563 l 0,0 c 0,3.62 -2.945,6.564 -6.564,6.564 l 0,0 c -3.62,0 -6.563,-2.944 -6.563,-6.564 m 1.711,0 c 0,2.68 2.173,4.852 4.852,4.852 l 0,0 c 2.68,0 4.851,-2.172 4.851,-4.852 l 0,0 c 0,-2.679 -2.171,-4.851 -4.851,-4.851 l 0,0 c -2.679,0 -4.852,2.172 -4.852,4.851" /></clipPath><linearGradient
       id="linearGradient288"
       spreadMethod="pad"
       gradientTransform="matrix(9.2780638,-9.2780638,-9.2780638,-9.2780638,47.36087,193.05173)"
       gradientUnits="userSpaceOnUse"
       y2="0"
       x2="1"
       y1="0"
       x1="0"><stop
         id="stop290"
         offset="0"
         style="stop-opacity:1;stop-color:#e6e7e8" /><stop
         id="stop292"
         offset="1"
         style="stop-opacity:1;stop-color:#d1d3d4" /></linearGradient><clipPath
       id="clipPath300"
       clipPathUnits="userSpaceOnUse"><path
         id="path302"
         d="m 50.573,188.412 c 0,-0.787 0.639,-1.426 1.427,-1.426 l 0,0 c 0.788,0 1.427,0.639 1.427,1.426 l 0,0 c 0,0.789 -0.639,1.428 -1.427,1.428 l 0,0 c -0.788,0 -1.427,-0.639 -1.427,-1.428" /></clipPath><linearGradient
       id="linearGradient308"
       spreadMethod="pad"
       gradientTransform="matrix(2.0180089,-2.0180089,-2.0180089,-2.0180089,50.990841,189.42163)"
       gradientUnits="userSpaceOnUse"
       y2="0"
       x2="1"
       y1="0"
       x1="0"><stop
         id="stop310"
         offset="0"
         style="stop-opacity:1;stop-color:#e6e7e8" /><stop
         id="stop312"
         offset="1"
         style="stop-opacity:1;stop-color:#d1d3d4" /></linearGradient><clipPath
       id="clipPath320"
       clipPathUnits="userSpaceOnUse"><path
         id="path322"
         d="m 52,176.712 c -2.201,0 -4.24,0.647 -6,1.709 l 0,0 0,-1.939 c 1.813,-0.916 3.832,-1.481 6,-1.481 l 0,0 c 2.167,0 4.186,0.565 6,1.481 l 0,0 0,1.939 c -1.761,-1.062 -3.798,-1.709 -6,-1.709" /></clipPath><linearGradient
       id="linearGradient328"
       spreadMethod="pad"
       gradientTransform="matrix(6.9696045,-6.9696045,-6.9696045,-6.9696045,48.515041,180.93648)"
       gradientUnits="userSpaceOnUse"
       y2="0"
       x2="1"
       y1="0"
       x1="0"><stop
         id="stop330"
         offset="0"
         style="stop-opacity:1;stop-color:#e6e7e8" /><stop
         id="stop332"
         offset="1"
         style="stop-opacity:1;stop-color:#d1d3d4" /></linearGradient><clipPath
       id="clipPath340"
       clipPathUnits="userSpaceOnUse"><path
         id="path342"
         d="m 210.065,193.999 c 1.36,-1.475 2.211,-3.427 2.211,-5.587 l 0,0 c 0,-4.563 -3.713,-8.275 -8.277,-8.275 l 0,0 c -4.563,0 -8.275,3.712 -8.275,8.275 l 0,0 c 0,2.16 0.851,4.112 2.211,5.587 l 0,0 -2.209,0 c -1.081,-1.595 -1.714,-3.518 -1.714,-5.587 l 0,0 c 0,-2.452 0.923,-4.672 2.395,-6.412 l 0,0 1.593,0 0,-1.521 c 1.676,-1.271 3.74,-2.055 5.999,-2.055 l 0,0 c 2.261,0 4.325,0.784 6.001,2.055 l 0,0 0,1.521 1.593,0 c 1.472,1.74 2.395,3.96 2.395,6.412 l 0,0 c 0,2.069 -0.632,3.992 -1.713,5.587 l 0,0 -2.21,0 z" /></clipPath><linearGradient
       id="linearGradient348"
       spreadMethod="pad"
       gradientTransform="matrix(13.933828,-13.933828,-13.933828,-13.933828,197.03308,195.30769)"
       gradientUnits="userSpaceOnUse"
       y2="0"
       x2="1"
       y1="0"
       x1="0"><stop
         id="stop350"
         offset="0"
         style="stop-opacity:1;stop-color:#e6e7e8" /><stop
         id="stop352"
         offset="1"
         style="stop-opacity:1;stop-color:#d1d3d4" /></linearGradient><clipPath
       id="clipPath360"
       clipPathUnits="userSpaceOnUse"><path
         id="path362"
         d="m 198,200.344 0,-1.94 c 1.76,1.062 3.799,1.709 5.999,1.709 l 0,0 c 2.203,0 4.24,-0.647 6.001,-1.709 l 0,0 0,1.94 c -1.814,0.916 -3.833,1.482 -6.001,1.482 l 0,0 c -2.167,0 -4.186,-0.566 -5.999,-1.482" /></clipPath><linearGradient
       id="linearGradient368"
       spreadMethod="pad"
       gradientTransform="matrix(6.9696045,-6.9696045,-6.9696045,-6.9696045,200.51505,202.85869)"
       gradientUnits="userSpaceOnUse"
       y2="0"
       x2="1"
       y1="0"
       x1="0"><stop
         id="stop370"
         offset="0"
         style="stop-opacity:1;stop-color:#e6e7e8" /><stop
         id="stop372"
         offset="1"
         style="stop-opacity:1;stop-color:#d1d3d4" /></linearGradient><clipPath
       id="clipPath380"
       clipPathUnits="userSpaceOnUse"><path
         id="path382"
         d="m 214.215,193.999 c 0.917,-1.667 1.485,-3.553 1.485,-5.587 l 0,0 c 0,-2.368 -0.718,-4.568 -1.933,-6.412 l 0,0 1.94,0 c 1.053,1.914 1.706,4.078 1.706,6.412 l 0,0 c 0,2 -0.47,3.881 -1.258,5.587 l 0,0 -1.94,0 z" /></clipPath><linearGradient
       id="linearGradient388"
       spreadMethod="pad"
       gradientTransform="matrix(6.7453017,-6.7453017,-6.7453017,-6.7453017,211.58842,191.37273)"
       gradientUnits="userSpaceOnUse"
       y2="0"
       x2="1"
       y1="0"
       x1="0"><stop
         id="stop390"
         offset="0"
         style="stop-opacity:1;stop-color:#e6e7e8" /><stop
         id="stop392"
         offset="1"
         style="stop-opacity:1;stop-color:#d1d3d4" /></linearGradient><clipPath
       id="clipPath400"
       clipPathUnits="userSpaceOnUse"><path
         id="path402"
         d="m 198,196.347 0,-2.268 c 1.509,1.598 3.633,2.61 5.999,2.61 l 0,0 c 2.367,0 4.491,-1.012 6.001,-2.609 l 0,0 0,2.267 c -1.676,1.27 -3.74,2.053 -6.001,2.053 l 0,0 c -2.259,0 -4.323,-0.783 -5.999,-2.053" /></clipPath><linearGradient
       id="linearGradient408"
       spreadMethod="pad"
       gradientTransform="matrix(7.1335726,-7.1335726,-7.1335726,-7.1335726,200.43306,198.77954)"
       gradientUnits="userSpaceOnUse"
       y2="0"
       x2="1"
       y1="0"
       x1="0"><stop
         id="stop410"
         offset="0"
         style="stop-opacity:1;stop-color:#e6e7e8" /><stop
         id="stop412"
         offset="1"
         style="stop-opacity:1;stop-color:#d1d3d4" /></linearGradient><clipPath
       id="clipPath420"
       clipPathUnits="userSpaceOnUse"><path
         id="path422"
         d="m 191.845,193.999 c -0.788,-1.706 -1.257,-3.587 -1.257,-5.587 l 0,0 c 0,-2.334 0.652,-4.498 1.705,-6.412 l 0,0 1.94,0 c -1.215,1.844 -1.934,4.044 -1.934,6.412 l 0,0 c 0,2.034 0.569,3.92 1.485,5.587 l 0,0 -1.939,0 z" /></clipPath><linearGradient
       id="linearGradient428"
       spreadMethod="pad"
       gradientTransform="matrix(7.1938491,-7.1938491,-7.1938491,-7.1938491,189.44185,191.59685)"
       gradientUnits="userSpaceOnUse"
       y2="0"
       x2="1"
       y1="0"
       x1="0"><stop
         id="stop430"
         offset="0"
         style="stop-opacity:1;stop-color:#e6e7e8" /><stop
         id="stop432"
         offset="1"
         style="stop-opacity:1;stop-color:#d1d3d4" /></linearGradient><clipPath
       id="clipPath440"
       clipPathUnits="userSpaceOnUse"><path
         id="path442"
         d="m 197.437,188.412 c 0,-3.619 2.943,-6.563 6.562,-6.563 l 0,0 c 3.62,0 6.564,2.944 6.564,6.563 l 0,0 c 0,3.62 -2.944,6.564 -6.564,6.564 l 0,0 c -3.619,0 -6.562,-2.944 -6.562,-6.564 m 1.711,0 c 0,2.68 2.173,4.852 4.851,4.852 l 0,0 c 2.681,0 4.852,-2.172 4.852,-4.852 l 0,0 c 0,-2.679 -2.171,-4.851 -4.852,-4.851 l 0,0 c -2.678,0 -4.851,2.172 -4.851,4.851" /></clipPath><linearGradient
       id="linearGradient448"
       spreadMethod="pad"
       gradientTransform="matrix(9.2780638,-9.2780638,-9.2780638,-9.2780638,199.36087,193.05173)"
       gradientUnits="userSpaceOnUse"
       y2="0"
       x2="1"
       y1="0"
       x1="0"><stop
         id="stop450"
         offset="0"
         style="stop-opacity:1;stop-color:#e6e7e8" /><stop
         id="stop452"
         offset="1"
         style="stop-opacity:1;stop-color:#d1d3d4" /></linearGradient><clipPath
       id="clipPath460"
       clipPathUnits="userSpaceOnUse"><path
         id="path462"
         d="m 202.573,188.412 c 0,-0.787 0.639,-1.426 1.426,-1.426 l 0,0 c 0.789,0 1.428,0.639 1.428,1.426 l 0,0 c 0,0.789 -0.639,1.428 -1.428,1.428 l 0,0 c -0.787,0 -1.426,-0.639 -1.426,-1.428" /></clipPath><linearGradient
       id="linearGradient468"
       spreadMethod="pad"
       gradientTransform="matrix(2.0180089,-2.0180089,-2.0180089,-2.0180089,202.99084,189.42163)"
       gradientUnits="userSpaceOnUse"
       y2="0"
       x2="1"
       y1="0"
       x1="0"><stop
         id="stop470"
         offset="0"
         style="stop-opacity:1;stop-color:#e6e7e8" /><stop
         id="stop472"
         offset="1"
         style="stop-opacity:1;stop-color:#d1d3d4" /></linearGradient><clipPath
       id="clipPath480"
       clipPathUnits="userSpaceOnUse"><path
         id="path482"
         d="m 203.999,176.712 c -2.2,0 -4.239,0.647 -5.999,1.709 l 0,0 0,-1.939 c 1.813,-0.916 3.832,-1.481 5.999,-1.481 l 0,0 c 2.168,0 4.187,0.565 6.001,1.481 l 0,0 0,1.939 c -1.761,-1.062 -3.798,-1.709 -6.001,-1.709" /></clipPath><linearGradient
       id="linearGradient488"
       spreadMethod="pad"
       gradientTransform="matrix(6.9696045,-6.9696045,-6.9696045,-6.9696045,200.51505,180.93648)"
       gradientUnits="userSpaceOnUse"
       y2="0"
       x2="1"
       y1="0"
       x1="0"><stop
         id="stop490"
         offset="0"
         style="stop-opacity:1;stop-color:#e6e7e8" /><stop
         id="stop492"
         offset="1"
         style="stop-opacity:1;stop-color:#d1d3d4" /></linearGradient><clipPath
       id="clipPath500"
       clipPathUnits="userSpaceOnUse"><path
         id="path502"
         d="m 165.022,117.895 -74.045,0 L 86,140 86,102.537 C 86,101.136 87.084,100 88.421,100 l 0,0 79.157,0 c 1.338,0 2.422,1.136 2.422,2.537 l 0,0 0,37.463 -4.978,-22.105 z" /></clipPath><linearGradient
       id="linearGradient508"
       spreadMethod="pad"
       gradientTransform="matrix(-61.27438,61.27438,61.27438,61.27438,158.63718,90.088432)"
       gradientUnits="userSpaceOnUse"
       y2="0"
       x2="1"
       y1="0"
       x1="0"><stop
         id="stop510"
         offset="0"
         style="stop-opacity:1;stop-color:#e6e7e8" /><stop
         id="stop512"
         offset="1"
         style="stop-opacity:1;stop-color:#d1d3d4" /></linearGradient><clipPath
       id="clipPath520"
       clipPathUnits="userSpaceOnUse"><path
         id="path522"
         d="M 0,256 256,256 256,0 0,0 0,256 Z" /></clipPath></defs><g
     transform="matrix(1.25,0,0,-1.25,0,320)"
     id="g10"><g
       id="g12"><g
         clip-path="url(#clipPath16)"
         id="g14"><g
           id="g20"><g
             id="g22"><path
               id="path30"
               style="fill:url(#linearGradient24);stroke:none"
               d="m 164,138.884 18.656,0 c 7.462,0 14.924,-7.713 18.655,-19.284 l 0,0 c 3.57,-33.216 3.724,-34.647 7,-71.885 l 0,0 c 0.4,-4.537 1.768,-9.053 4.5,-12.628 l 0,0 c 7.223,-9.45 18.286,-9.45 25.507,0.004 l 0,0 c 2.789,3.651 4.001,8.306 4.206,12.955 l 0,0 c 0.998,22.637 5.158,42.603 -7.218,76.552 l 0,0 c -1.875,5.143 -4.448,9.968 -6.872,14.861 l 0,0 c -3.952,7.98 -3.541,17.323 2.726,30.281 l 0,0 c -2.233,4.017 -9.152,6.26 -17.763,6.26 l 0,0 C 194.561,176 167.636,165.265 164,138.884" /></g></g></g></g><g
       id="g32"><g
         clip-path="url(#clipPath36)"
         id="g34"><g
           id="g40"><g
             id="g42"><path
               id="path50"
               style="fill:url(#linearGradient44);stroke:none"
               d="m 24.84,169.74 c 6.268,-12.958 6.678,-22.301 2.725,-30.281 l 0,0 c -2.424,-4.894 -4.997,-9.719 -6.871,-14.862 l 0,0 C 8.318,90.647 12.478,70.682 13.477,48.044 l 0,0 c 0.204,-4.648 1.415,-9.302 4.204,-12.953 l 0,0 c 7.222,-9.454 18.285,-9.454 25.507,-0.004 l 0,0 c 2.733,3.575 4.102,8.091 4.5,12.628 l 0,0 c 3.276,37.238 3.43,38.669 7.001,71.885 l 0,0 c 3.731,11.571 11.193,19.284 18.656,19.284 l 0,0 18.655,0 C 88.364,165.265 61.439,176 42.603,176 l 0,0 c -8.611,0 -15.53,-2.243 -17.763,-6.26" /></g></g></g></g><g
       id="g52"><g
         clip-path="url(#clipPath56)"
         id="g54"><g
           id="g60"><g
             id="g62"><path
               id="path70"
               style="fill:url(#linearGradient64);stroke:none"
               d="M 89.665,200 C 87.641,200 86,198.349 86,196.313 l 0,0 0,-88.626 C 86,105.65 87.641,104 89.665,104 l 0,0 76.669,0 c 2.024,0 3.666,1.65 3.666,3.687 l 0,0 0,88.626 c 0,2.036 -1.642,3.687 -3.666,3.687 l 0,0 -76.669,0 z" /></g></g></g></g><g
       id="g72"><g
         clip-path="url(#clipPath76)"
         id="g74"><g
           id="g80"><g
             id="g82"><path
               id="path90"
               style="fill:url(#linearGradient84);stroke:none"
               d="m 36.431,156.859 50.118,-11.521 c 26.986,-7.68 46.261,19.203 23.13,42.245 l 0,0 -30.841,19.202 C 68.653,213.308 59.569,216.001 51.762,216 l 0,0 C 18.199,215.996 8.283,166.207 36.431,156.859" /></g></g></g></g><g
       id="g92"><g
         clip-path="url(#clipPath96)"
         id="g94"><g
           transform="translate(65.7583,193.9999)"
           id="g100"><path
             id="path102"
             style="fill:#999999;fill-opacity:1;fill-rule:nonzero;stroke:none"
             d="m 0,0 -7.758,0 0,7.759 C -7.758,8.996 -8.762,10 -10,10 l -7.517,0 c -1.238,0 -2.241,-1.004 -2.241,-2.241 l 0,-7.759 -7.759,0 c -1.238,0 -2.241,-1.004 -2.241,-2.241 l 0,-7.518 c 0,-1.238 1.003,-2.241 2.241,-2.241 l 7.759,0 0,-7.759 c 0,-1.238 1.003,-2.241 2.241,-2.241 l 7.517,0 c 1.238,0 2.242,1.003 2.242,2.241 l 0,7.759 7.758,0 c 1.238,0 2.242,1.003 2.242,2.241 l 0,7.518 C 2.242,-1.004 1.238,0 0,0" /></g><g
           transform="translate(88,174)"
           id="g104"><path
             id="path106"
             style="fill:#999999;fill-opacity:1;fill-rule:nonzero;stroke:none"
             d="m 0,0 c 0,-3.314 -2.686,-6 -6,-6 -3.314,0 -6,2.686 -6,6 0,3.314 2.686,6 6,6 3.314,0 6,-2.686 6,-6" /></g><g
           transform="translate(104,166)"
           id="g108"><path
             id="path110"
             style="fill:#999999;fill-opacity:1;fill-rule:nonzero;stroke:none"
             d="m 0,0 c 0,-3.314 -2.686,-6 -6,-6 -3.314,0 -6,2.686 -6,6 0,3.314 2.686,6 6,6 3.314,0 6,-2.686 6,-6" /></g></g></g><g
       id="g112"><g
         clip-path="url(#clipPath116)"
         id="g114"><g
           id="g120"><g
             id="g122"><path
               id="path130"
               style="fill:url(#linearGradient124);stroke:none"
               d="M 177.161,206.785 146.32,187.583 c -23.131,-23.042 -3.855,-49.925 23.131,-42.245 l 0,0 50.117,11.521 c 28.149,9.348 18.233,59.137 -15.33,59.141 l 0,0 c -7.807,0.001 -16.891,-2.692 -27.077,-9.215" /></g></g></g></g><g
       id="g132"><g
         clip-path="url(#clipPath136)"
         id="g134"><g
           transform="translate(217.7583,193.9999)"
           id="g140"><path
             id="path142"
             style="fill:#999999;fill-opacity:1;fill-rule:nonzero;stroke:none"
             d="m 0,0 -7.758,0 0,7.759 C -7.758,8.996 -8.762,10 -10,10 l -7.517,0 c -1.238,0 -2.241,-1.004 -2.241,-2.241 l 0,-7.759 -7.759,0 c -1.238,0 -2.241,-1.004 -2.241,-2.241 l 0,-7.518 c 0,-1.238 1.003,-2.241 2.241,-2.241 l 7.759,0 0,-7.759 c 0,-1.238 1.003,-2.241 2.241,-2.241 l 7.517,0 c 1.238,0 2.242,1.003 2.242,2.241 l 0,7.759 7.758,0 c 1.238,0 2.242,1.003 2.242,2.241 l 0,7.518 C 2.242,-1.004 1.238,0 0,0" /></g><g
           transform="translate(168,174)"
           id="g144"><path
             id="path146"
             style="fill:#999999;fill-opacity:1;fill-rule:nonzero;stroke:none"
             d="m 0,0 c 0,-3.314 2.686,-6 6,-6 3.314,0 6,2.686 6,6 C 12,3.314 9.314,6 6,6 2.686,6 0,3.314 0,0" /></g><g
           transform="translate(152,166)"
           id="g148"><path
             id="path150"
             style="fill:#999999;fill-opacity:1;fill-rule:nonzero;stroke:none"
             d="m 0,0 c 0,-3.314 2.686,-6 6,-6 3.314,0 6,2.686 6,6 C 12,3.314 9.314,6 6,6 2.686,6 0,3.314 0,0" /></g><g
           transform="translate(141.4613,192)"
           id="g152"><path
             id="path154"
             style="fill:#999999;fill-opacity:1;fill-rule:nonzero;stroke:none"
             d="m 0,0 -23.114,0 c -1.076,0 -2.025,-0.644 -2.338,-1.588 -0.312,-0.944 0.089,-1.964 0.983,-2.51 l 5.779,-3.526 C -18.29,-7.869 -17.817,-8 -17.335,-8 l 11.557,0 c 0.482,0 0.954,0.131 1.355,0.376 l 5.778,3.526 c 0.895,0.546 1.296,1.566 0.983,2.51 C 2.026,-0.644 1.076,0 0,0" /></g></g></g><g
       id="g156"><g
         clip-path="url(#clipPath160)"
         id="g158"><g
           id="g164"><g
             id="g166"><path
               id="path174"
               style="fill:url(#linearGradient168);stroke:none"
               d="m 114.429,192 c -1.07,0 -2.014,-0.645 -2.324,-1.588 l 0,0 c -0.311,-0.944 0.087,-1.965 0.976,-2.51 l 0,0 5.743,-3.526 c 0.399,-0.245 0.869,-0.376 1.348,-0.376 l 0,0 7.657,0 c 0.479,0 0.947,0.131 1.346,0.376 l 0,0 5.743,3.526 c 0.89,0.545 1.288,1.566 0.977,2.51 l 0,0 c -0.31,0.943 -1.254,1.588 -2.323,1.588 l 0,0 -19.143,0 z" /></g></g></g></g><g
       id="g176"><g
         clip-path="url(#clipPath180)"
         id="g178"><g
           id="g184"><g
             id="g186"><path
               id="path194"
               style="fill:url(#linearGradient188);stroke:none"
               d="m 58.065,193.999 c 1.36,-1.475 2.211,-3.427 2.211,-5.587 l 0,0 c 0,-4.563 -3.713,-8.275 -8.276,-8.275 l 0,0 c -4.564,0 -8.276,3.712 -8.276,8.275 l 0,0 c 0,2.16 0.851,4.112 2.211,5.587 l 0,0 -2.209,0 c -1.081,-1.595 -1.714,-3.518 -1.714,-5.587 l 0,0 c 0,-2.452 0.922,-4.672 2.395,-6.412 l 0,0 1.593,0 0,-1.521 c 1.676,-1.271 3.739,-2.055 6,-2.055 l 0,0 c 2.26,0 4.325,0.784 6,2.055 l 0,0 0,1.521 1.594,0 c 1.471,1.74 2.394,3.96 2.394,6.412 l 0,0 c 0,2.069 -0.632,3.992 -1.713,5.587 l 0,0 -2.21,0 z" /></g></g></g></g><g
       id="g196"><g
         clip-path="url(#clipPath200)"
         id="g198"><g
           id="g204"><g
             id="g206"><path
               id="path214"
               style="fill:url(#linearGradient208);stroke:none"
               d="m 46,200.344 0,-1.94 c 1.76,1.062 3.799,1.709 6,1.709 l 0,0 c 2.202,0 4.239,-0.647 6,-1.709 l 0,0 0,1.94 c -1.814,0.916 -3.833,1.482 -6,1.482 l 0,0 c -2.168,0 -4.187,-0.566 -6,-1.482" /></g></g></g></g><g
       id="g216"><g
         clip-path="url(#clipPath220)"
         id="g218"><g
           id="g224"><g
             id="g226"><path
               id="path234"
               style="fill:url(#linearGradient228);stroke:none"
               d="m 62.215,193.999 c 0.917,-1.667 1.485,-3.553 1.485,-5.587 l 0,0 c 0,-2.368 -0.718,-4.568 -1.933,-6.412 l 0,0 1.939,0 c 1.054,1.914 1.707,4.078 1.707,6.412 l 0,0 c 0,2 -0.47,3.881 -1.258,5.587 l 0,0 -1.94,0 z" /></g></g></g></g><g
       id="g236"><g
         clip-path="url(#clipPath240)"
         id="g238"><g
           id="g244"><g
             id="g246"><path
               id="path254"
               style="fill:url(#linearGradient248);stroke:none"
               d="m 46,196.347 0,-2.268 c 1.51,1.598 3.633,2.61 6,2.61 l 0,0 c 2.366,0 4.49,-1.012 6,-2.609 l 0,0 0,2.267 c -1.675,1.27 -3.74,2.053 -6,2.053 l 0,0 c -2.261,0 -4.324,-0.783 -6,-2.053" /></g></g></g></g><g
       id="g256"><g
         clip-path="url(#clipPath260)"
         id="g258"><g
           id="g264"><g
             id="g266"><path
               id="path274"
               style="fill:url(#linearGradient268);stroke:none"
               d="m 39.845,193.999 c -0.789,-1.706 -1.258,-3.587 -1.258,-5.587 l 0,0 c 0,-2.334 0.653,-4.498 1.706,-6.412 l 0,0 1.939,0 c -1.214,1.844 -1.933,4.044 -1.933,6.412 l 0,0 c 0,2.034 0.569,3.92 1.485,5.587 l 0,0 -1.939,0 z" /></g></g></g></g><g
       id="g276"><g
         clip-path="url(#clipPath280)"
         id="g278"><g
           id="g284"><g
             id="g286"><path
               id="path294"
               style="fill:url(#linearGradient288);stroke:none"
               d="m 45.437,188.412 c 0,-3.619 2.943,-6.563 6.563,-6.563 l 0,0 c 3.619,0 6.564,2.944 6.564,6.563 l 0,0 c 0,3.62 -2.945,6.564 -6.564,6.564 l 0,0 c -3.62,0 -6.563,-2.944 -6.563,-6.564 m 1.711,0 c 0,2.68 2.173,4.852 4.852,4.852 l 0,0 c 2.68,0 4.851,-2.172 4.851,-4.852 l 0,0 c 0,-2.679 -2.171,-4.851 -4.851,-4.851 l 0,0 c -2.679,0 -4.852,2.172 -4.852,4.851" /></g></g></g></g><g
       id="g296"><g
         clip-path="url(#clipPath300)"
         id="g298"><g
           id="g304"><g
             id="g306"><path
               id="path314"
               style="fill:url(#linearGradient308);stroke:none"
               d="m 50.573,188.412 c 0,-0.787 0.639,-1.426 1.427,-1.426 l 0,0 c 0.788,0 1.427,0.639 1.427,1.426 l 0,0 c 0,0.789 -0.639,1.428 -1.427,1.428 l 0,0 c -0.788,0 -1.427,-0.639 -1.427,-1.428" /></g></g></g></g><g
       id="g316"><g
         clip-path="url(#clipPath320)"
         id="g318"><g
           id="g324"><g
             id="g326"><path
               id="path334"
               style="fill:url(#linearGradient328);stroke:none"
               d="m 52,176.712 c -2.201,0 -4.24,0.647 -6,1.709 l 0,0 0,-1.939 c 1.813,-0.916 3.832,-1.481 6,-1.481 l 0,0 c 2.167,0 4.186,0.565 6,1.481 l 0,0 0,1.939 c -1.761,-1.062 -3.798,-1.709 -6,-1.709" /></g></g></g></g><g
       id="g336"><g
         clip-path="url(#clipPath340)"
         id="g338"><g
           id="g344"><g
             id="g346"><path
               id="path354"
               style="fill:url(#linearGradient348);stroke:none"
               d="m 210.065,193.999 c 1.36,-1.475 2.211,-3.427 2.211,-5.587 l 0,0 c 0,-4.563 -3.713,-8.275 -8.277,-8.275 l 0,0 c -4.563,0 -8.275,3.712 -8.275,8.275 l 0,0 c 0,2.16 0.851,4.112 2.211,5.587 l 0,0 -2.209,0 c -1.081,-1.595 -1.714,-3.518 -1.714,-5.587 l 0,0 c 0,-2.452 0.923,-4.672 2.395,-6.412 l 0,0 1.593,0 0,-1.521 c 1.676,-1.271 3.74,-2.055 5.999,-2.055 l 0,0 c 2.261,0 4.325,0.784 6.001,2.055 l 0,0 0,1.521 1.593,0 c 1.472,1.74 2.395,3.96 2.395,6.412 l 0,0 c 0,2.069 -0.632,3.992 -1.713,5.587 l 0,0 -2.21,0 z" /></g></g></g></g><g
       id="g356"><g
         clip-path="url(#clipPath360)"
         id="g358"><g
           id="g364"><g
             id="g366"><path
               id="path374"
               style="fill:url(#linearGradient368);stroke:none"
               d="m 198,200.344 0,-1.94 c 1.76,1.062 3.799,1.709 5.999,1.709 l 0,0 c 2.203,0 4.24,-0.647 6.001,-1.709 l 0,0 0,1.94 c -1.814,0.916 -3.833,1.482 -6.001,1.482 l 0,0 c -2.167,0 -4.186,-0.566 -5.999,-1.482" /></g></g></g></g><g
       id="g376"><g
         clip-path="url(#clipPath380)"
         id="g378"><g
           id="g384"><g
             id="g386"><path
               id="path394"
               style="fill:url(#linearGradient388);stroke:none"
               d="m 214.215,193.999 c 0.917,-1.667 1.485,-3.553 1.485,-5.587 l 0,0 c 0,-2.368 -0.718,-4.568 -1.933,-6.412 l 0,0 1.94,0 c 1.053,1.914 1.706,4.078 1.706,6.412 l 0,0 c 0,2 -0.47,3.881 -1.258,5.587 l 0,0 -1.94,0 z" /></g></g></g></g><g
       id="g396"><g
         clip-path="url(#clipPath400)"
         id="g398"><g
           id="g404"><g
             id="g406"><path
               id="path414"
               style="fill:url(#linearGradient408);stroke:none"
               d="m 198,196.347 0,-2.268 c 1.509,1.598 3.633,2.61 5.999,2.61 l 0,0 c 2.367,0 4.491,-1.012 6.001,-2.609 l 0,0 0,2.267 c -1.676,1.27 -3.74,2.053 -6.001,2.053 l 0,0 c -2.259,0 -4.323,-0.783 -5.999,-2.053" /></g></g></g></g><g
       id="g416"><g
         clip-path="url(#clipPath420)"
         id="g418"><g
           id="g424"><g
             id="g426"><path
               id="path434"
               style="fill:url(#linearGradient428);stroke:none"
               d="m 191.845,193.999 c -0.788,-1.706 -1.257,-3.587 -1.257,-5.587 l 0,0 c 0,-2.334 0.652,-4.498 1.705,-6.412 l 0,0 1.94,0 c -1.215,1.844 -1.934,4.044 -1.934,6.412 l 0,0 c 0,2.034 0.569,3.92 1.485,5.587 l 0,0 -1.939,0 z" /></g></g></g></g><g
       id="g436"><g
         clip-path="url(#clipPath440)"
         id="g438"><g
           id="g444"><g
             id="g446"><path
               id="path454"
               style="fill:url(#linearGradient448);stroke:none"
               d="m 197.437,188.412 c 0,-3.619 2.943,-6.563 6.562,-6.563 l 0,0 c 3.62,0 6.564,2.944 6.564,6.563 l 0,0 c 0,3.62 -2.944,6.564 -6.564,6.564 l 0,0 c -3.619,0 -6.562,-2.944 -6.562,-6.564 m 1.711,0 c 0,2.68 2.173,4.852 4.851,4.852 l 0,0 c 2.681,0 4.852,-2.172 4.852,-4.852 l 0,0 c 0,-2.679 -2.171,-4.851 -4.852,-4.851 l 0,0 c -2.678,0 -4.851,2.172 -4.851,4.851" /></g></g></g></g><g
       id="g456"><g
         clip-path="url(#clipPath460)"
         id="g458"><g
           id="g464"><g
             id="g466"><path
               id="path474"
               style="fill:url(#linearGradient468);stroke:none"
               d="m 202.573,188.412 c 0,-0.787 0.639,-1.426 1.426,-1.426 l 0,0 c 0.789,0 1.428,0.639 1.428,1.426 l 0,0 c 0,0.789 -0.639,1.428 -1.428,1.428 l 0,0 c -0.787,0 -1.426,-0.639 -1.426,-1.428" /></g></g></g></g><g
       id="g476"><g
         clip-path="url(#clipPath480)"
         id="g478"><g
           id="g484"><g
             id="g486"><path
               id="path494"
               style="fill:url(#linearGradient488);stroke:none"
               d="m 203.999,176.712 c -2.2,0 -4.239,0.647 -5.999,1.709 l 0,0 0,-1.939 c 1.813,-0.916 3.832,-1.481 5.999,-1.481 l 0,0 c 2.168,0 4.187,0.565 6.001,1.481 l 0,0 0,1.939 c -1.761,-1.062 -3.798,-1.709 -6.001,-1.709" /></g></g></g></g><g
       id="g496"><g
         clip-path="url(#clipPath500)"
         id="g498"><g
           id="g504"><g
             id="g506"><path
               id="path514"
               style="fill:url(#linearGradient508);stroke:none"
               d="m 165.022,117.895 -74.045,0 L 86,140 86,102.537 C 86,101.136 87.084,100 88.421,100 l 0,0 79.157,0 c 1.338,0 2.422,1.136 2.422,2.537 l 0,0 0,37.463 -4.978,-22.105 z" /></g></g></g></g><g
       id="g516"><g
         clip-path="url(#clipPath520)"
         id="g518"><g
           transform="translate(121.9583,190.8086)"
           id="g524"><path
             id="path526"
             style="fill:#333333;fill-opacity:1;fill-rule:nonzero;stroke:none"
             d="M 0,0 0,-8.49" /></g><path
           id="path528"
           style="fill:#999999;fill-opacity:1;fill-rule:nonzero;stroke:none"
           d="m 129,184 -2,0 0,8 2,0 0,-8 z" /><path
           id="path530"
           style="fill:#999999;fill-opacity:1;fill-rule:nonzero;stroke:none"
           d="m 125,184 -2,0 0,8 2,0 0,-8 z" /><path
           id="path532"
           style="fill:#999999;fill-opacity:1;fill-rule:nonzero;stroke:none"
           d="m 121,184 -2,0 0,8 2,0 0,-8 z" /></g></g></g></svg>