<?xml version="1.0" encoding="UTF-8" standalone="no"?>
<svg
   xmlns:dc="http://purl.org/dc/elements/1.1/"
   xmlns:cc="http://creativecommons.org/ns#"
   xmlns:rdf="http://www.w3.org/1999/02/22-rdf-syntax-ns#"
   xmlns:svg="http://www.w3.org/2000/svg"
   xmlns="http://www.w3.org/2000/svg"
   viewBox="0 0 320 320"
   height="320"
   width="320"
   xml:space="preserve"
   version="1.1"
   id="svg2"><metadata
     id="metadata8"><rdf:RDF><cc:Work
         rdf:about=""><dc:format>image/svg+xml</dc:format><dc:type
           rdf:resource="http://purl.org/dc/dcmitype/StillImage" /></cc:Work></rdf:RDF></metadata><defs
     id="defs6"><clipPath
       id="clipPath16"
       clipPathUnits="userSpaceOnUse"><path
         id="path18"
         d="M 0,256 256,256 256,0 0,0 0,256 Z" /></clipPath><clipPath
       id="clipPath30"
       clipPathUnits="userSpaceOnUse"><path
         id="path32"
         d="m 32,56 192,0 0,32 -192,0 0,-32 z" /></clipPath><linearGradient
       id="linearGradient38"
       spreadMethod="pad"
       gradientTransform="matrix(112,-112,-112,-112,72,128)"
       gradientUnits="userSpaceOnUse"
       y2="0"
       x2="1"
       y1="0"
       x1="0"><stop
         id="stop40"
         offset="0"
         style="stop-opacity:1;stop-color:#e6e7e8" /><stop
         id="stop42"
         offset="1"
         style="stop-opacity:1;stop-color:#d1d3d4" /></linearGradient><clipPath
       id="clipPath50"
       clipPathUnits="userSpaceOnUse"><path
         id="path52"
         d="m 24,196 c -2.209,0 -4,-1.791 -4,-4 l 0,0 0,-108 216,0 0,108 c 0,2.209 -1.791,4 -4,4 l 0,0 -208,0 z" /></clipPath><linearGradient
       id="linearGradient58"
       spreadMethod="pad"
       gradientTransform="matrix(162.82843,-162.82843,-162.82843,-162.82843,46.585785,220.24265)"
       gradientUnits="userSpaceOnUse"
       y2="0"
       x2="1"
       y1="0"
       x1="0"><stop
         id="stop60"
         offset="0"
         style="stop-opacity:1;stop-color:#e6e7e8" /><stop
         id="stop62"
         offset="1"
         style="stop-opacity:1;stop-color:#d1d3d4" /></linearGradient><clipPath
       id="clipPath70"
       clipPathUnits="userSpaceOnUse"><path
         id="path72"
         d="M 0,256 256,256 256,0 0,0 0,256 Z" /></clipPath></defs><g
     transform="matrix(1.25,0,0,-1.25,0,320)"
     id="g10"><g
       id="g12"><g
         clip-path="url(#clipPath16)"
         id="g14"><g
           transform="translate(244.1406,76)"
           id="g20"><path
             id="path22"
             style="fill:#999999;fill-opacity:1;fill-rule:nonzero;stroke:none"
             d="m 0,0 -232,0 0,118.452 c 0,5.273 4.328,9.548 9.667,9.548 l 212.666,0 C -4.328,128 0,123.725 0,118.452 L 0,0 Z" /></g><path
           id="path24"
           style="fill:#999999;fill-opacity:1;fill-rule:nonzero;stroke:none"
           d="m 228,56 -200,0 0,28 200,0 0,-28 z" /></g></g><g
       id="g26"><g
         clip-path="url(#clipPath30)"
         id="g28"><g
           id="g34"><g
             id="g36"><path
               id="path44"
               style="fill:url(#linearGradient38);stroke:none"
               d="m 32,56 192,0 0,32 -192,0 0,-32 z" /></g></g></g></g><g
       id="g46"><g
         clip-path="url(#clipPath50)"
         id="g48"><g
           id="g54"><g
             id="g56"><path
               id="path64"
               style="fill:url(#linearGradient58);stroke:none"
               d="m 24,196 c -2.209,0 -4,-1.791 -4,-4 l 0,0 0,-108 216,0 0,108 c 0,2.209 -1.791,4 -4,4 l 0,0 -208,0 z" /></g></g></g></g><g
       id="g66"><g
         clip-path="url(#clipPath70)"
         id="g68"><g
           transform="translate(223.1219,92)"
           id="g74"><path
             id="path76"
             style="fill:#ffffff;fill-opacity:1;fill-rule:nonzero;stroke:none"
             d="m 0,0 -190.244,0 c -2.694,0 -4.878,2.156 -4.878,4.815 l 0,86.37 c 0,2.659 2.184,4.815 4.878,4.815 L 0,96 c 2.694,0 4.878,-2.156 4.878,-4.815 l 0,-86.37 C 4.878,2.156 2.694,0 0,0" /></g></g></g></g></svg>