<?xml version="1.0" encoding="UTF-8" standalone="no"?>
<svg
   xmlns:dc="http://purl.org/dc/elements/1.1/"
   xmlns:cc="http://creativecommons.org/ns#"
   xmlns:rdf="http://www.w3.org/1999/02/22-rdf-syntax-ns#"
   xmlns:svg="http://www.w3.org/2000/svg"
   xmlns="http://www.w3.org/2000/svg"
   viewBox="0 0 320 320"
   height="320"
   width="320"
   xml:space="preserve"
   version="1.1"
   id="svg2"><metadata
     id="metadata8"><rdf:RDF><cc:Work
         rdf:about=""><dc:format>image/svg+xml</dc:format><dc:type
           rdf:resource="http://purl.org/dc/dcmitype/StillImage" /></cc:Work></rdf:RDF></metadata><defs
     id="defs6"><clipPath
       id="clipPath16"
       clipPathUnits="userSpaceOnUse"><path
         id="path18"
         d="M 42.815,244 C 34.633,244 28,237.298 28,229.032 l 0,0 L 28,94.323 28,26.968 28,12 l 14.815,0 170.371,0 14.814,0 0,14.968 0,67.355 0,134.709 C 228,237.298 221.367,244 213.186,244 l 0,0 -170.371,0 z" /></clipPath><linearGradient
       id="linearGradient24"
       spreadMethod="pad"
       gradientTransform="matrix(211.63858,-211.63858,-211.63858,-211.63858,22.180674,229.45789)"
       gradientUnits="userSpaceOnUse"
       y2="0"
       x2="1"
       y1="0"
       x1="0"><stop
         id="stop26"
         offset="0"
         style="stop-opacity:1;stop-color:#e6e7e8" /><stop
         id="stop28"
         offset="1"
         style="stop-opacity:1;stop-color:#d1d3d4" /></linearGradient><clipPath
       id="clipPath36"
       clipPathUnits="userSpaceOnUse"><path
         id="path38"
         d="M 0,256 256,256 256,0 0,0 0,256 Z" /></clipPath><clipPath
       id="clipPath44"
       clipPathUnits="userSpaceOnUse"><path
         id="path46"
         d="m 40,228 176,0 0,-204 -176,0 0,204 z" /></clipPath><clipPath
       id="clipPath48"
       clipPathUnits="userSpaceOnUse"><path
         id="path50"
         d="m 49.372,56 157.256,0 C 207.386,56 208,55.399 208,54.658 l 0,-29.316 C 208,24.601 207.386,24 206.628,24 L 49.372,24 C 48.614,24 48,24.601 48,25.342 l 0,29.316 C 48,55.399 48.614,56 49.372,56" /></clipPath><linearGradient
       id="linearGradient52"
       spreadMethod="pad"
       gradientTransform="matrix(-95.205276,95.205276,95.205276,95.205276,175.60265,-7.6026406)"
       gradientUnits="userSpaceOnUse"
       y2="0"
       x2="1"
       y1="0"
       x1="0"><stop
         id="stop54"
         offset="0"
         style="stop-opacity:1;stop-color:#e6e7e8" /><stop
         id="stop56"
         offset="1"
         style="stop-opacity:1;stop-color:#d1d3d4" /></linearGradient><clipPath
       id="clipPath58"
       clipPathUnits="userSpaceOnUse"><path
         id="path60"
         d="m 208,64 c 2.209,0 4,-1.791 4,-4 0,-2.209 -1.791,-4 -4,-4 -2.209,0 -4,1.791 -4,4 0,2.209 1.791,4 4,4 M 41.375,228 C 40.609,228 40,227.392 40,226.625 L 40,53.375 C 40,52.609 40.609,52 41.375,52 l 173.25,0 c 0.767,0 1.375,0.609 1.375,1.375 l 0,173.25 c 0,0.767 -0.608,1.375 -1.375,1.375 l -173.25,0 z" /></clipPath><linearGradient
       id="linearGradient62"
       spreadMethod="pad"
       gradientTransform="matrix(-175.19987,175.19987,175.19987,175.19987,215.59993,52.400063)"
       gradientUnits="userSpaceOnUse"
       y2="0"
       x2="1"
       y1="0"
       x1="0"><stop
         id="stop64"
         offset="0"
         style="stop-opacity:1;stop-color:#e6e7e8" /><stop
         id="stop66"
         offset="1"
         style="stop-opacity:1;stop-color:#d1d3d4" /></linearGradient><clipPath
       id="clipPath68"
       clipPathUnits="userSpaceOnUse"><path
         id="path70"
         d="m 184,182 c 0,-14.359 -11.641,-26 -26,-26 -14.359,0 -26,11.641 -26,26 0,14.359 11.641,26 26,26 14.359,0 26,-11.641 26,-26" /></clipPath><linearGradient
       id="linearGradient72"
       spreadMethod="pad"
       gradientTransform="matrix(36.76955,-36.76955,-36.76955,-36.76955,139.61522,200.38478)"
       gradientUnits="userSpaceOnUse"
       y2="0"
       x2="1"
       y1="0"
       x1="0"><stop
         id="stop74"
         offset="0"
         style="stop-opacity:1;stop-color:#e6e7e8" /><stop
         id="stop76"
         offset="1"
         style="stop-opacity:1;stop-color:#d1d3d4" /></linearGradient><clipPath
       id="clipPath78"
       clipPathUnits="userSpaceOnUse"><path
         id="path80"
         d="m 69.321,208 25.358,0 c 0.73,0 1.321,-0.676 1.321,-1.509 l 0,-16.982 C 96,188.676 95.409,188 94.679,188 l -25.358,0 C 68.591,188 68,188.676 68,189.509 l 0,16.982 c 0,0.833 0.591,1.509 1.321,1.509" /></clipPath><linearGradient
       id="linearGradient82"
       spreadMethod="pad"
       gradientTransform="matrix(23.175577,-23.175577,-23.175577,-23.175577,70.412209,209.58778)"
       gradientUnits="userSpaceOnUse"
       y2="0"
       x2="1"
       y1="0"
       x1="0"><stop
         id="stop84"
         offset="0"
         style="stop-opacity:1;stop-color:#e6e7e8" /><stop
         id="stop86"
         offset="1"
         style="stop-opacity:1;stop-color:#d1d3d4" /></linearGradient><clipPath
       id="clipPath88"
       clipPathUnits="userSpaceOnUse"><path
         id="path90"
         d="m 149.393,144 45.214,0 c 0.769,0 1.393,-0.601 1.393,-1.342 l 0,-61.316 C 196,80.601 195.376,80 194.607,80 l -45.214,0 C 148.624,80 148,80.601 148,81.342 l 0,61.316 c 0,0.741 0.624,1.342 1.393,1.342" /></clipPath><linearGradient
       id="linearGradient92"
       spreadMethod="pad"
       gradientTransform="matrix(55.199322,-55.199322,-55.199322,-55.199322,144.40034,139.59966)"
       gradientUnits="userSpaceOnUse"
       y2="0"
       x2="1"
       y1="0"
       x1="0"><stop
         id="stop94"
         offset="0"
         style="stop-opacity:1;stop-color:#e6e7e8" /><stop
         id="stop96"
         offset="1"
         style="stop-opacity:1;stop-color:#d1d3d4" /></linearGradient><clipPath
       id="clipPath98"
       clipPathUnits="userSpaceOnUse"><path
         id="path100"
         d="m 81.384,140 41.232,0 c 0.765,0 1.384,-0.676 1.384,-1.509 l 0,-28.982 C 124,108.676 123.381,108 122.616,108 l -41.232,0 C 80.619,108 80,108.676 80,109.509 l 0,28.982 c 0,0.833 0.619,1.509 1.384,1.509" /></clipPath><linearGradient
       id="linearGradient102"
       spreadMethod="pad"
       gradientTransform="matrix(37.154629,-37.154629,-37.154629,-37.154629,83.422684,142.57732)"
       gradientUnits="userSpaceOnUse"
       y2="0"
       x2="1"
       y1="0"
       x1="0"><stop
         id="stop104"
         offset="0"
         style="stop-opacity:1;stop-color:#e6e7e8" /><stop
         id="stop106"
         offset="1"
         style="stop-opacity:1;stop-color:#d1d3d4" /></linearGradient><clipPath
       id="clipPath176"
       clipPathUnits="userSpaceOnUse"><path
         id="path178"
         d="m 52,28 4,0 0,20 -4,0 0,-20 z" /></clipPath><linearGradient
       id="linearGradient184"
       spreadMethod="pad"
       gradientTransform="matrix(11.999999,-11.999999,-11.999999,-11.999999,48,44)"
       gradientUnits="userSpaceOnUse"
       y2="0"
       x2="1"
       y1="0"
       x1="0"><stop
         id="stop186"
         offset="0"
         style="stop-opacity:1;stop-color:#e6e7e8" /><stop
         id="stop188"
         offset="1"
         style="stop-opacity:1;stop-color:#d1d3d4" /></linearGradient><clipPath
       id="clipPath196"
       clipPathUnits="userSpaceOnUse"><path
         id="path198"
         d="m 60,28 4,0 0,20 -4,0 0,-20 z" /></clipPath><linearGradient
       id="linearGradient204"
       spreadMethod="pad"
       gradientTransform="matrix(11.999999,-11.999999,-11.999999,-11.999999,56,44)"
       gradientUnits="userSpaceOnUse"
       y2="0"
       x2="1"
       y1="0"
       x1="0"><stop
         id="stop206"
         offset="0"
         style="stop-opacity:1;stop-color:#e6e7e8" /><stop
         id="stop208"
         offset="1"
         style="stop-opacity:1;stop-color:#d1d3d4" /></linearGradient><clipPath
       id="clipPath216"
       clipPathUnits="userSpaceOnUse"><path
         id="path218"
         d="m 68,28 4,0 0,20 -4,0 0,-20 z" /></clipPath><linearGradient
       id="linearGradient224"
       spreadMethod="pad"
       gradientTransform="matrix(11.999999,-11.999999,-11.999999,-11.999999,64,44)"
       gradientUnits="userSpaceOnUse"
       y2="0"
       x2="1"
       y1="0"
       x1="0"><stop
         id="stop226"
         offset="0"
         style="stop-opacity:1;stop-color:#e6e7e8" /><stop
         id="stop228"
         offset="1"
         style="stop-opacity:1;stop-color:#d1d3d4" /></linearGradient><clipPath
       id="clipPath236"
       clipPathUnits="userSpaceOnUse"><path
         id="path238"
         d="m 76,28 4.001,0 0,20 L 76,48 76,28 Z" /></clipPath><linearGradient
       id="linearGradient244"
       spreadMethod="pad"
       gradientTransform="matrix(11.999999,-11.999999,-11.999999,-11.999999,72,44)"
       gradientUnits="userSpaceOnUse"
       y2="0"
       x2="1"
       y1="0"
       x1="0"><stop
         id="stop246"
         offset="0"
         style="stop-opacity:1;stop-color:#e6e7e8" /><stop
         id="stop248"
         offset="1"
         style="stop-opacity:1;stop-color:#d1d3d4" /></linearGradient><clipPath
       id="clipPath256"
       clipPathUnits="userSpaceOnUse"><path
         id="path258"
         d="m 84,28 4.001,0 0,20 L 84,48 84,28 Z" /></clipPath><linearGradient
       id="linearGradient264"
       spreadMethod="pad"
       gradientTransform="matrix(11.999999,-11.999999,-11.999999,-11.999999,80,44)"
       gradientUnits="userSpaceOnUse"
       y2="0"
       x2="1"
       y1="0"
       x1="0"><stop
         id="stop266"
         offset="0"
         style="stop-opacity:1;stop-color:#e6e7e8" /><stop
         id="stop268"
         offset="1"
         style="stop-opacity:1;stop-color:#d1d3d4" /></linearGradient><clipPath
       id="clipPath276"
       clipPathUnits="userSpaceOnUse"><path
         id="path278"
         d="m 92,28 4.001,0 0,20 L 92,48 92,28 Z" /></clipPath><linearGradient
       id="linearGradient284"
       spreadMethod="pad"
       gradientTransform="matrix(11.999999,-11.999999,-11.999999,-11.999999,88,44)"
       gradientUnits="userSpaceOnUse"
       y2="0"
       x2="1"
       y1="0"
       x1="0"><stop
         id="stop286"
         offset="0"
         style="stop-opacity:1;stop-color:#e6e7e8" /><stop
         id="stop288"
         offset="1"
         style="stop-opacity:1;stop-color:#d1d3d4" /></linearGradient><clipPath
       id="clipPath296"
       clipPathUnits="userSpaceOnUse"><path
         id="path298"
         d="m 100,28 4.001,0 0,20 -4.001,0 0,-20 z" /></clipPath><linearGradient
       id="linearGradient304"
       spreadMethod="pad"
       gradientTransform="matrix(11.999999,-11.999999,-11.999999,-11.999999,96,44)"
       gradientUnits="userSpaceOnUse"
       y2="0"
       x2="1"
       y1="0"
       x1="0"><stop
         id="stop306"
         offset="0"
         style="stop-opacity:1;stop-color:#e6e7e8" /><stop
         id="stop308"
         offset="1"
         style="stop-opacity:1;stop-color:#d1d3d4" /></linearGradient><clipPath
       id="clipPath316"
       clipPathUnits="userSpaceOnUse"><path
         id="path318"
         d="m 108,28 4,0 0,20 -4,0 0,-20 z" /></clipPath><linearGradient
       id="linearGradient324"
       spreadMethod="pad"
       gradientTransform="matrix(11.999999,-11.999999,-11.999999,-11.999999,104,44)"
       gradientUnits="userSpaceOnUse"
       y2="0"
       x2="1"
       y1="0"
       x1="0"><stop
         id="stop326"
         offset="0"
         style="stop-opacity:1;stop-color:#e6e7e8" /><stop
         id="stop328"
         offset="1"
         style="stop-opacity:1;stop-color:#d1d3d4" /></linearGradient><clipPath
       id="clipPath336"
       clipPathUnits="userSpaceOnUse"><path
         id="path338"
         d="m 116,28 4,0 0,20 -4,0 0,-20 z" /></clipPath><linearGradient
       id="linearGradient344"
       spreadMethod="pad"
       gradientTransform="matrix(11.999999,-11.999999,-11.999999,-11.999999,112,44)"
       gradientUnits="userSpaceOnUse"
       y2="0"
       x2="1"
       y1="0"
       x1="0"><stop
         id="stop346"
         offset="0"
         style="stop-opacity:1;stop-color:#e6e7e8" /><stop
         id="stop348"
         offset="1"
         style="stop-opacity:1;stop-color:#d1d3d4" /></linearGradient><clipPath
       id="clipPath356"
       clipPathUnits="userSpaceOnUse"><path
         id="path358"
         d="m 124,28 4,0 0,20 -4,0 0,-20 z" /></clipPath><linearGradient
       id="linearGradient364"
       spreadMethod="pad"
       gradientTransform="matrix(11.999999,-11.999999,-11.999999,-11.999999,120,44)"
       gradientUnits="userSpaceOnUse"
       y2="0"
       x2="1"
       y1="0"
       x1="0"><stop
         id="stop366"
         offset="0"
         style="stop-opacity:1;stop-color:#e6e7e8" /><stop
         id="stop368"
         offset="1"
         style="stop-opacity:1;stop-color:#d1d3d4" /></linearGradient><clipPath
       id="clipPath376"
       clipPathUnits="userSpaceOnUse"><path
         id="path378"
         d="m 132,28 4,0 0,20 -4,0 0,-20 z" /></clipPath><linearGradient
       id="linearGradient384"
       spreadMethod="pad"
       gradientTransform="matrix(11.999999,-11.999999,-11.999999,-11.999999,128,44)"
       gradientUnits="userSpaceOnUse"
       y2="0"
       x2="1"
       y1="0"
       x1="0"><stop
         id="stop386"
         offset="0"
         style="stop-opacity:1;stop-color:#e6e7e8" /><stop
         id="stop388"
         offset="1"
         style="stop-opacity:1;stop-color:#d1d3d4" /></linearGradient><clipPath
       id="clipPath396"
       clipPathUnits="userSpaceOnUse"><path
         id="path398"
         d="m 140,28 4,0 0,20 -4,0 0,-20 z" /></clipPath><linearGradient
       id="linearGradient404"
       spreadMethod="pad"
       gradientTransform="matrix(11.999999,-11.999999,-11.999999,-11.999999,136,44)"
       gradientUnits="userSpaceOnUse"
       y2="0"
       x2="1"
       y1="0"
       x1="0"><stop
         id="stop406"
         offset="0"
         style="stop-opacity:1;stop-color:#e6e7e8" /><stop
         id="stop408"
         offset="1"
         style="stop-opacity:1;stop-color:#d1d3d4" /></linearGradient><clipPath
       id="clipPath416"
       clipPathUnits="userSpaceOnUse"><path
         id="path418"
         d="m 148,28 4,0 0,20 -4,0 0,-20 z" /></clipPath><linearGradient
       id="linearGradient424"
       spreadMethod="pad"
       gradientTransform="matrix(11.999999,-11.999999,-11.999999,-11.999999,144,44)"
       gradientUnits="userSpaceOnUse"
       y2="0"
       x2="1"
       y1="0"
       x1="0"><stop
         id="stop426"
         offset="0"
         style="stop-opacity:1;stop-color:#e6e7e8" /><stop
         id="stop428"
         offset="1"
         style="stop-opacity:1;stop-color:#d1d3d4" /></linearGradient><clipPath
       id="clipPath436"
       clipPathUnits="userSpaceOnUse"><path
         id="path438"
         d="m 156,28 4.001,0 0,20 -4.001,0 0,-20 z" /></clipPath><linearGradient
       id="linearGradient444"
       spreadMethod="pad"
       gradientTransform="matrix(11.999999,-11.999999,-11.999999,-11.999999,152,44)"
       gradientUnits="userSpaceOnUse"
       y2="0"
       x2="1"
       y1="0"
       x1="0"><stop
         id="stop446"
         offset="0"
         style="stop-opacity:1;stop-color:#e6e7e8" /><stop
         id="stop448"
         offset="1"
         style="stop-opacity:1;stop-color:#d1d3d4" /></linearGradient><clipPath
       id="clipPath456"
       clipPathUnits="userSpaceOnUse"><path
         id="path458"
         d="m 164,28 4,0 0,20 -4,0 0,-20 z" /></clipPath><linearGradient
       id="linearGradient464"
       spreadMethod="pad"
       gradientTransform="matrix(11.999999,-11.999999,-11.999999,-11.999999,160,44)"
       gradientUnits="userSpaceOnUse"
       y2="0"
       x2="1"
       y1="0"
       x1="0"><stop
         id="stop466"
         offset="0"
         style="stop-opacity:1;stop-color:#e6e7e8" /><stop
         id="stop468"
         offset="1"
         style="stop-opacity:1;stop-color:#d1d3d4" /></linearGradient><clipPath
       id="clipPath476"
       clipPathUnits="userSpaceOnUse"><path
         id="path478"
         d="m 172,28 4.001,0 0,20 -4.001,0 0,-20 z" /></clipPath><linearGradient
       id="linearGradient484"
       spreadMethod="pad"
       gradientTransform="matrix(11.999999,-11.999999,-11.999999,-11.999999,168,44)"
       gradientUnits="userSpaceOnUse"
       y2="0"
       x2="1"
       y1="0"
       x1="0"><stop
         id="stop486"
         offset="0"
         style="stop-opacity:1;stop-color:#e6e7e8" /><stop
         id="stop488"
         offset="1"
         style="stop-opacity:1;stop-color:#d1d3d4" /></linearGradient><clipPath
       id="clipPath496"
       clipPathUnits="userSpaceOnUse"><path
         id="path498"
         d="m 180,28 4,0 0,20 -4,0 0,-20 z" /></clipPath><linearGradient
       id="linearGradient504"
       spreadMethod="pad"
       gradientTransform="matrix(11.999999,-11.999999,-11.999999,-11.999999,176,44)"
       gradientUnits="userSpaceOnUse"
       y2="0"
       x2="1"
       y1="0"
       x1="0"><stop
         id="stop506"
         offset="0"
         style="stop-opacity:1;stop-color:#e6e7e8" /><stop
         id="stop508"
         offset="1"
         style="stop-opacity:1;stop-color:#d1d3d4" /></linearGradient><clipPath
       id="clipPath516"
       clipPathUnits="userSpaceOnUse"><path
         id="path518"
         d="m 188,28 4,0 0,20 -4,0 0,-20 z" /></clipPath><linearGradient
       id="linearGradient524"
       spreadMethod="pad"
       gradientTransform="matrix(11.999999,-11.999999,-11.999999,-11.999999,184,44)"
       gradientUnits="userSpaceOnUse"
       y2="0"
       x2="1"
       y1="0"
       x1="0"><stop
         id="stop526"
         offset="0"
         style="stop-opacity:1;stop-color:#e6e7e8" /><stop
         id="stop528"
         offset="1"
         style="stop-opacity:1;stop-color:#d1d3d4" /></linearGradient><clipPath
       id="clipPath536"
       clipPathUnits="userSpaceOnUse"><path
         id="path538"
         d="m 196,28 4,0 0,20 -4,0 0,-20 z" /></clipPath><linearGradient
       id="linearGradient544"
       spreadMethod="pad"
       gradientTransform="matrix(11.999999,-11.999999,-11.999999,-11.999999,192,44)"
       gradientUnits="userSpaceOnUse"
       y2="0"
       x2="1"
       y1="0"
       x1="0"><stop
         id="stop546"
         offset="0"
         style="stop-opacity:1;stop-color:#e6e7e8" /><stop
         id="stop548"
         offset="1"
         style="stop-opacity:1;stop-color:#d1d3d4" /></linearGradient><clipPath
       id="clipPath556"
       clipPathUnits="userSpaceOnUse"><path
         id="path558"
         d="m 221.811,220 c -1,0 -1.811,-0.675 -1.811,-1.51 l 0,0 0,-0.981 c 0,-0.833 0.811,-1.509 1.811,-1.509 l 0,0 8.377,0 c 1.001,0 1.812,0.676 1.812,1.509 l 0,0 0,0.981 c 0,0.835 -0.811,1.51 -1.812,1.51 l 0,0 -8.377,0 z" /></clipPath><linearGradient
       id="linearGradient564"
       spreadMethod="pad"
       gradientTransform="matrix(-7.0371757,7.0371757,7.0371757,7.0371757,229.51859,214.48141)"
       gradientUnits="userSpaceOnUse"
       y2="0"
       x2="1"
       y1="0"
       x1="0"><stop
         id="stop566"
         offset="0"
         style="stop-opacity:1;stop-color:#e6e7e8" /><stop
         id="stop568"
         offset="1"
         style="stop-opacity:1;stop-color:#d1d3d4" /></linearGradient><clipPath
       id="clipPath576"
       clipPathUnits="userSpaceOnUse"><path
         id="path578"
         d="m 221.811,212 c -1,0 -1.811,-0.676 -1.811,-1.509 l 0,0 0,-0.982 c 0,-0.833 0.811,-1.509 1.811,-1.509 l 0,0 8.377,0 c 1.001,0 1.812,0.676 1.812,1.509 l 0,0 0,0.982 c 0,0.833 -0.811,1.509 -1.812,1.509 l 0,0 -8.377,0 z" /></clipPath><linearGradient
       id="linearGradient584"
       spreadMethod="pad"
       gradientTransform="matrix(-7.0371757,7.0371757,7.0371757,7.0371757,229.51859,206.48141)"
       gradientUnits="userSpaceOnUse"
       y2="0"
       x2="1"
       y1="0"
       x1="0"><stop
         id="stop586"
         offset="0"
         style="stop-opacity:1;stop-color:#e6e7e8" /><stop
         id="stop588"
         offset="1"
         style="stop-opacity:1;stop-color:#d1d3d4" /></linearGradient><clipPath
       id="clipPath596"
       clipPathUnits="userSpaceOnUse"><path
         id="path598"
         d="m 221.811,204 c -1,0 -1.811,-0.676 -1.811,-1.509 l 0,0 0,-0.982 c 0,-0.833 0.811,-1.509 1.811,-1.509 l 0,0 8.377,0 c 1.001,0 1.812,0.676 1.812,1.509 l 0,0 0,0.982 c 0,0.833 -0.811,1.509 -1.812,1.509 l 0,0 -8.377,0 z" /></clipPath><linearGradient
       id="linearGradient604"
       spreadMethod="pad"
       gradientTransform="matrix(-7.0371757,7.0371757,7.0371757,7.0371757,229.51859,198.48141)"
       gradientUnits="userSpaceOnUse"
       y2="0"
       x2="1"
       y1="0"
       x1="0"><stop
         id="stop606"
         offset="0"
         style="stop-opacity:1;stop-color:#e6e7e8" /><stop
         id="stop608"
         offset="1"
         style="stop-opacity:1;stop-color:#d1d3d4" /></linearGradient><clipPath
       id="clipPath616"
       clipPathUnits="userSpaceOnUse"><path
         id="path618"
         d="m 221.811,196 c -1,0 -1.811,-0.676 -1.811,-1.509 l 0,0 0,-0.982 c 0,-0.833 0.811,-1.509 1.811,-1.509 l 0,0 8.377,0 c 1.001,0 1.812,0.676 1.812,1.509 l 0,0 0,0.982 c 0,0.833 -0.811,1.509 -1.812,1.509 l 0,0 -8.377,0 z" /></clipPath><linearGradient
       id="linearGradient624"
       spreadMethod="pad"
       gradientTransform="matrix(-7.0371757,7.0371757,7.0371757,7.0371757,229.51859,190.48141)"
       gradientUnits="userSpaceOnUse"
       y2="0"
       x2="1"
       y1="0"
       x1="0"><stop
         id="stop626"
         offset="0"
         style="stop-opacity:1;stop-color:#e6e7e8" /><stop
         id="stop628"
         offset="1"
         style="stop-opacity:1;stop-color:#d1d3d4" /></linearGradient><clipPath
       id="clipPath636"
       clipPathUnits="userSpaceOnUse"><path
         id="path638"
         d="m 221.811,188 c -1,0 -1.811,-0.676 -1.811,-1.509 l 0,0 0,-0.982 c 0,-0.834 0.811,-1.509 1.811,-1.509 l 0,0 8.377,0 c 1.001,0 1.812,0.675 1.812,1.509 l 0,0 0,0.982 c 0,0.833 -0.811,1.509 -1.812,1.509 l 0,0 -8.377,0 z" /></clipPath><linearGradient
       id="linearGradient644"
       spreadMethod="pad"
       gradientTransform="matrix(-7.0371757,7.0371757,7.0371757,7.0371757,229.51859,182.48141)"
       gradientUnits="userSpaceOnUse"
       y2="0"
       x2="1"
       y1="0"
       x1="0"><stop
         id="stop646"
         offset="0"
         style="stop-opacity:1;stop-color:#e6e7e8" /><stop
         id="stop648"
         offset="1"
         style="stop-opacity:1;stop-color:#d1d3d4" /></linearGradient><clipPath
       id="clipPath656"
       clipPathUnits="userSpaceOnUse"><path
         id="path658"
         d="m 25.811,220 c -1,0 -1.811,-0.675 -1.811,-1.51 l 0,0 0,-0.981 C 24,216.676 24.811,216 25.811,216 l 0,0 8.378,0 c 1,0 1.811,0.676 1.811,1.509 l 0,0 0,0.981 c 0,0.835 -0.811,1.51 -1.811,1.51 l 0,0 -8.378,0 z" /></clipPath><linearGradient
       id="linearGradient664"
       spreadMethod="pad"
       gradientTransform="matrix(-7.0371757,7.0371757,7.0371757,7.0371757,33.518589,214.48141)"
       gradientUnits="userSpaceOnUse"
       y2="0"
       x2="1"
       y1="0"
       x1="0"><stop
         id="stop666"
         offset="0"
         style="stop-opacity:1;stop-color:#e6e7e8" /><stop
         id="stop668"
         offset="1"
         style="stop-opacity:1;stop-color:#d1d3d4" /></linearGradient><clipPath
       id="clipPath676"
       clipPathUnits="userSpaceOnUse"><path
         id="path678"
         d="m 25.811,212 c -1,0 -1.811,-0.676 -1.811,-1.509 l 0,0 0,-0.982 C 24,208.676 24.811,208 25.811,208 l 0,0 8.378,0 c 1,0 1.811,0.676 1.811,1.509 l 0,0 0,0.982 C 36,211.324 35.189,212 34.189,212 l 0,0 -8.378,0 z" /></clipPath><linearGradient
       id="linearGradient684"
       spreadMethod="pad"
       gradientTransform="matrix(-7.0371757,7.0371757,7.0371757,7.0371757,33.518589,206.48141)"
       gradientUnits="userSpaceOnUse"
       y2="0"
       x2="1"
       y1="0"
       x1="0"><stop
         id="stop686"
         offset="0"
         style="stop-opacity:1;stop-color:#e6e7e8" /><stop
         id="stop688"
         offset="1"
         style="stop-opacity:1;stop-color:#d1d3d4" /></linearGradient><clipPath
       id="clipPath696"
       clipPathUnits="userSpaceOnUse"><path
         id="path698"
         d="m 25.811,204 c -1,0 -1.811,-0.676 -1.811,-1.509 l 0,0 0,-0.982 C 24,200.676 24.811,200 25.811,200 l 0,0 8.378,0 c 1,0 1.811,0.676 1.811,1.509 l 0,0 0,0.982 C 36,203.324 35.189,204 34.189,204 l 0,0 -8.378,0 z" /></clipPath><linearGradient
       id="linearGradient704"
       spreadMethod="pad"
       gradientTransform="matrix(-7.0371757,7.0371757,7.0371757,7.0371757,33.518589,198.48141)"
       gradientUnits="userSpaceOnUse"
       y2="0"
       x2="1"
       y1="0"
       x1="0"><stop
         id="stop706"
         offset="0"
         style="stop-opacity:1;stop-color:#e6e7e8" /><stop
         id="stop708"
         offset="1"
         style="stop-opacity:1;stop-color:#d1d3d4" /></linearGradient><clipPath
       id="clipPath716"
       clipPathUnits="userSpaceOnUse"><path
         id="path718"
         d="m 25.811,196 c -1,0 -1.811,-0.676 -1.811,-1.509 l 0,0 0,-0.982 C 24,192.676 24.811,192 25.811,192 l 0,0 8.378,0 c 1,0 1.811,0.676 1.811,1.509 l 0,0 0,0.982 C 36,195.324 35.189,196 34.189,196 l 0,0 -8.378,0 z" /></clipPath><linearGradient
       id="linearGradient724"
       spreadMethod="pad"
       gradientTransform="matrix(-7.0371757,7.0371757,7.0371757,7.0371757,33.518589,190.48141)"
       gradientUnits="userSpaceOnUse"
       y2="0"
       x2="1"
       y1="0"
       x1="0"><stop
         id="stop726"
         offset="0"
         style="stop-opacity:1;stop-color:#e6e7e8" /><stop
         id="stop728"
         offset="1"
         style="stop-opacity:1;stop-color:#d1d3d4" /></linearGradient><clipPath
       id="clipPath736"
       clipPathUnits="userSpaceOnUse"><path
         id="path738"
         d="m 25.811,188 c -1,0 -1.811,-0.676 -1.811,-1.509 l 0,0 0,-0.982 C 24,184.675 24.811,184 25.811,184 l 0,0 8.378,0 c 1,0 1.811,0.675 1.811,1.509 l 0,0 0,0.982 C 36,187.324 35.189,188 34.189,188 l 0,0 -8.378,0 z" /></clipPath><linearGradient
       id="linearGradient744"
       spreadMethod="pad"
       gradientTransform="matrix(-7.0371757,7.0371757,7.0371757,7.0371757,33.518589,182.48141)"
       gradientUnits="userSpaceOnUse"
       y2="0"
       x2="1"
       y1="0"
       x1="0"><stop
         id="stop746"
         offset="0"
         style="stop-opacity:1;stop-color:#e6e7e8" /><stop
         id="stop748"
         offset="1"
         style="stop-opacity:1;stop-color:#d1d3d4" /></linearGradient><clipPath
       id="clipPath756"
       clipPathUnits="userSpaceOnUse"><path
         id="path758"
         d="M 0,256 256,256 256,0 0,0 0,256 Z" /></clipPath><clipPath
       id="clipPath770"
       clipPathUnits="userSpaceOnUse"><path
         id="path772"
         d="m 52,176 152,0 0,12 -152,0 0,-12 z" /></clipPath><linearGradient
       id="linearGradient778"
       spreadMethod="pad"
       gradientTransform="matrix(82,-82,-82,-82,87,223)"
       gradientUnits="userSpaceOnUse"
       y2="0"
       x2="1"
       y1="0"
       x1="0"><stop
         id="stop780"
         offset="0"
         style="stop-opacity:1;stop-color:#e6e7e8" /><stop
         id="stop782"
         offset="1"
         style="stop-opacity:1;stop-color:#d1d3d4" /></linearGradient><clipPath
       id="clipPath790"
       clipPathUnits="userSpaceOnUse"><path
         id="path792"
         d="M 0,256 256,256 256,0 0,0 0,256 Z" /></clipPath></defs><g
     transform="matrix(1.25,0,0,-1.25,0,320)"
     id="g10"><g
       id="g12"><g
         clip-path="url(#clipPath16)"
         id="g14"><g
           id="g20"><g
             id="g22"><path
               id="path30"
               style="fill:url(#linearGradient24);stroke:none"
               d="M 42.815,244 C 34.633,244 28,237.298 28,229.032 l 0,0 L 28,94.323 28,26.968 28,12 l 14.815,0 170.371,0 14.814,0 0,14.968 0,67.355 0,134.709 C 228,237.298 221.367,244 213.186,244 l 0,0 -170.371,0 z" /></g></g></g></g><g
       id="g32"><g
         clip-path="url(#clipPath36)"
         id="g34"><g
           id="g40"><g
             id="g42" /><g
             id="g108"><g
               style="opacity:0.97491503"
               id="g110"
               clip-path="url(#clipPath44)"><g
                 id="g112"><g
                   id="g114"
                   clip-path="url(#clipPath48)"><g
                     id="g116"><g
                       id="g118"><path
                         id="path120"
                         style="fill:url(#linearGradient52);stroke:none"
                         d="m 49.372,56 157.256,0 C 207.386,56 208,55.399 208,54.658 l 0,-29.316 C 208,24.601 207.386,24 206.628,24 L 49.372,24 C 48.614,24 48,24.601 48,25.342 l 0,29.316 C 48,55.399 48.614,56 49.372,56" /></g></g></g></g><g
                 id="g122"><g
                   id="g124"
                   clip-path="url(#clipPath58)"><g
                     id="g126"><g
                       id="g128"><path
                         id="path130"
                         style="fill:url(#linearGradient62);stroke:none"
                         d="m 208,64 c 2.209,0 4,-1.791 4,-4 0,-2.209 -1.791,-4 -4,-4 -2.209,0 -4,1.791 -4,4 0,2.209 1.791,4 4,4 M 41.375,228 C 40.609,228 40,227.392 40,226.625 L 40,53.375 C 40,52.609 40.609,52 41.375,52 l 173.25,0 c 0.767,0 1.375,0.609 1.375,1.375 l 0,173.25 c 0,0.767 -0.608,1.375 -1.375,1.375 l -173.25,0 z" /></g></g></g></g><g
                 id="g132"><g
                   id="g134"
                   clip-path="url(#clipPath68)"><g
                     id="g136"><g
                       id="g138"><path
                         id="path140"
                         style="fill:url(#linearGradient72);stroke:none"
                         d="m 184,182 c 0,-14.359 -11.641,-26 -26,-26 -14.359,0 -26,11.641 -26,26 0,14.359 11.641,26 26,26 14.359,0 26,-11.641 26,-26" /></g></g></g></g><g
                 id="g142"><g
                   id="g144"
                   clip-path="url(#clipPath78)"><g
                     id="g146"><g
                       id="g148"><path
                         id="path150"
                         style="fill:url(#linearGradient82);stroke:none"
                         d="m 69.321,208 25.358,0 c 0.73,0 1.321,-0.676 1.321,-1.509 l 0,-16.982 C 96,188.676 95.409,188 94.679,188 l -25.358,0 C 68.591,188 68,188.676 68,189.509 l 0,16.982 c 0,0.833 0.591,1.509 1.321,1.509" /></g></g></g></g><g
                 id="g152"><g
                   id="g154"
                   clip-path="url(#clipPath88)"><g
                     id="g156"><g
                       id="g158"><path
                         id="path160"
                         style="fill:url(#linearGradient92);stroke:none"
                         d="m 149.393,144 45.214,0 c 0.769,0 1.393,-0.601 1.393,-1.342 l 0,-61.316 C 196,80.601 195.376,80 194.607,80 l -45.214,0 C 148.624,80 148,80.601 148,81.342 l 0,61.316 c 0,0.741 0.624,1.342 1.393,1.342" /></g></g></g></g><g
                 id="g162"><g
                   id="g164"
                   clip-path="url(#clipPath98)"><g
                     id="g166"><g
                       id="g168"><path
                         id="path170"
                         style="fill:url(#linearGradient102);stroke:none"
                         d="m 81.384,140 41.232,0 c 0.765,0 1.384,-0.676 1.384,-1.509 l 0,-28.982 C 124,108.676 123.381,108 122.616,108 l -41.232,0 C 80.619,108 80,108.676 80,109.509 l 0,28.982 c 0,0.833 0.619,1.509 1.384,1.509" /></g></g></g></g></g></g></g></g></g><g
       id="g172"><g
         clip-path="url(#clipPath176)"
         id="g174"><g
           id="g180"><g
             id="g182"><path
               id="path190"
               style="fill:url(#linearGradient184);stroke:none"
               d="m 52,28 4,0 0,20 -4,0 0,-20 z" /></g></g></g></g><g
       id="g192"><g
         clip-path="url(#clipPath196)"
         id="g194"><g
           id="g200"><g
             id="g202"><path
               id="path210"
               style="fill:url(#linearGradient204);stroke:none"
               d="m 60,28 4,0 0,20 -4,0 0,-20 z" /></g></g></g></g><g
       id="g212"><g
         clip-path="url(#clipPath216)"
         id="g214"><g
           id="g220"><g
             id="g222"><path
               id="path230"
               style="fill:url(#linearGradient224);stroke:none"
               d="m 68,28 4,0 0,20 -4,0 0,-20 z" /></g></g></g></g><g
       id="g232"><g
         clip-path="url(#clipPath236)"
         id="g234"><g
           id="g240"><g
             id="g242"><path
               id="path250"
               style="fill:url(#linearGradient244);stroke:none"
               d="m 76,28 4.001,0 0,20 L 76,48 76,28 Z" /></g></g></g></g><g
       id="g252"><g
         clip-path="url(#clipPath256)"
         id="g254"><g
           id="g260"><g
             id="g262"><path
               id="path270"
               style="fill:url(#linearGradient264);stroke:none"
               d="m 84,28 4.001,0 0,20 L 84,48 84,28 Z" /></g></g></g></g><g
       id="g272"><g
         clip-path="url(#clipPath276)"
         id="g274"><g
           id="g280"><g
             id="g282"><path
               id="path290"
               style="fill:url(#linearGradient284);stroke:none"
               d="m 92,28 4.001,0 0,20 L 92,48 92,28 Z" /></g></g></g></g><g
       id="g292"><g
         clip-path="url(#clipPath296)"
         id="g294"><g
           id="g300"><g
             id="g302"><path
               id="path310"
               style="fill:url(#linearGradient304);stroke:none"
               d="m 100,28 4.001,0 0,20 -4.001,0 0,-20 z" /></g></g></g></g><g
       id="g312"><g
         clip-path="url(#clipPath316)"
         id="g314"><g
           id="g320"><g
             id="g322"><path
               id="path330"
               style="fill:url(#linearGradient324);stroke:none"
               d="m 108,28 4,0 0,20 -4,0 0,-20 z" /></g></g></g></g><g
       id="g332"><g
         clip-path="url(#clipPath336)"
         id="g334"><g
           id="g340"><g
             id="g342"><path
               id="path350"
               style="fill:url(#linearGradient344);stroke:none"
               d="m 116,28 4,0 0,20 -4,0 0,-20 z" /></g></g></g></g><g
       id="g352"><g
         clip-path="url(#clipPath356)"
         id="g354"><g
           id="g360"><g
             id="g362"><path
               id="path370"
               style="fill:url(#linearGradient364);stroke:none"
               d="m 124,28 4,0 0,20 -4,0 0,-20 z" /></g></g></g></g><g
       id="g372"><g
         clip-path="url(#clipPath376)"
         id="g374"><g
           id="g380"><g
             id="g382"><path
               id="path390"
               style="fill:url(#linearGradient384);stroke:none"
               d="m 132,28 4,0 0,20 -4,0 0,-20 z" /></g></g></g></g><g
       id="g392"><g
         clip-path="url(#clipPath396)"
         id="g394"><g
           id="g400"><g
             id="g402"><path
               id="path410"
               style="fill:url(#linearGradient404);stroke:none"
               d="m 140,28 4,0 0,20 -4,0 0,-20 z" /></g></g></g></g><g
       id="g412"><g
         clip-path="url(#clipPath416)"
         id="g414"><g
           id="g420"><g
             id="g422"><path
               id="path430"
               style="fill:url(#linearGradient424);stroke:none"
               d="m 148,28 4,0 0,20 -4,0 0,-20 z" /></g></g></g></g><g
       id="g432"><g
         clip-path="url(#clipPath436)"
         id="g434"><g
           id="g440"><g
             id="g442"><path
               id="path450"
               style="fill:url(#linearGradient444);stroke:none"
               d="m 156,28 4.001,0 0,20 -4.001,0 0,-20 z" /></g></g></g></g><g
       id="g452"><g
         clip-path="url(#clipPath456)"
         id="g454"><g
           id="g460"><g
             id="g462"><path
               id="path470"
               style="fill:url(#linearGradient464);stroke:none"
               d="m 164,28 4,0 0,20 -4,0 0,-20 z" /></g></g></g></g><g
       id="g472"><g
         clip-path="url(#clipPath476)"
         id="g474"><g
           id="g480"><g
             id="g482"><path
               id="path490"
               style="fill:url(#linearGradient484);stroke:none"
               d="m 172,28 4.001,0 0,20 -4.001,0 0,-20 z" /></g></g></g></g><g
       id="g492"><g
         clip-path="url(#clipPath496)"
         id="g494"><g
           id="g500"><g
             id="g502"><path
               id="path510"
               style="fill:url(#linearGradient504);stroke:none"
               d="m 180,28 4,0 0,20 -4,0 0,-20 z" /></g></g></g></g><g
       id="g512"><g
         clip-path="url(#clipPath516)"
         id="g514"><g
           id="g520"><g
             id="g522"><path
               id="path530"
               style="fill:url(#linearGradient524);stroke:none"
               d="m 188,28 4,0 0,20 -4,0 0,-20 z" /></g></g></g></g><g
       id="g532"><g
         clip-path="url(#clipPath536)"
         id="g534"><g
           id="g540"><g
             id="g542"><path
               id="path550"
               style="fill:url(#linearGradient544);stroke:none"
               d="m 196,28 4,0 0,20 -4,0 0,-20 z" /></g></g></g></g><g
       id="g552"><g
         clip-path="url(#clipPath556)"
         id="g554"><g
           id="g560"><g
             id="g562"><path
               id="path570"
               style="fill:url(#linearGradient564);stroke:none"
               d="m 221.811,220 c -1,0 -1.811,-0.675 -1.811,-1.51 l 0,0 0,-0.981 c 0,-0.833 0.811,-1.509 1.811,-1.509 l 0,0 8.377,0 c 1.001,0 1.812,0.676 1.812,1.509 l 0,0 0,0.981 c 0,0.835 -0.811,1.51 -1.812,1.51 l 0,0 -8.377,0 z" /></g></g></g></g><g
       id="g572"><g
         clip-path="url(#clipPath576)"
         id="g574"><g
           id="g580"><g
             id="g582"><path
               id="path590"
               style="fill:url(#linearGradient584);stroke:none"
               d="m 221.811,212 c -1,0 -1.811,-0.676 -1.811,-1.509 l 0,0 0,-0.982 c 0,-0.833 0.811,-1.509 1.811,-1.509 l 0,0 8.377,0 c 1.001,0 1.812,0.676 1.812,1.509 l 0,0 0,0.982 c 0,0.833 -0.811,1.509 -1.812,1.509 l 0,0 -8.377,0 z" /></g></g></g></g><g
       id="g592"><g
         clip-path="url(#clipPath596)"
         id="g594"><g
           id="g600"><g
             id="g602"><path
               id="path610"
               style="fill:url(#linearGradient604);stroke:none"
               d="m 221.811,204 c -1,0 -1.811,-0.676 -1.811,-1.509 l 0,0 0,-0.982 c 0,-0.833 0.811,-1.509 1.811,-1.509 l 0,0 8.377,0 c 1.001,0 1.812,0.676 1.812,1.509 l 0,0 0,0.982 c 0,0.833 -0.811,1.509 -1.812,1.509 l 0,0 -8.377,0 z" /></g></g></g></g><g
       id="g612"><g
         clip-path="url(#clipPath616)"
         id="g614"><g
           id="g620"><g
             id="g622"><path
               id="path630"
               style="fill:url(#linearGradient624);stroke:none"
               d="m 221.811,196 c -1,0 -1.811,-0.676 -1.811,-1.509 l 0,0 0,-0.982 c 0,-0.833 0.811,-1.509 1.811,-1.509 l 0,0 8.377,0 c 1.001,0 1.812,0.676 1.812,1.509 l 0,0 0,0.982 c 0,0.833 -0.811,1.509 -1.812,1.509 l 0,0 -8.377,0 z" /></g></g></g></g><g
       id="g632"><g
         clip-path="url(#clipPath636)"
         id="g634"><g
           id="g640"><g
             id="g642"><path
               id="path650"
               style="fill:url(#linearGradient644);stroke:none"
               d="m 221.811,188 c -1,0 -1.811,-0.676 -1.811,-1.509 l 0,0 0,-0.982 c 0,-0.834 0.811,-1.509 1.811,-1.509 l 0,0 8.377,0 c 1.001,0 1.812,0.675 1.812,1.509 l 0,0 0,0.982 c 0,0.833 -0.811,1.509 -1.812,1.509 l 0,0 -8.377,0 z" /></g></g></g></g><g
       id="g652"><g
         clip-path="url(#clipPath656)"
         id="g654"><g
           id="g660"><g
             id="g662"><path
               id="path670"
               style="fill:url(#linearGradient664);stroke:none"
               d="m 25.811,220 c -1,0 -1.811,-0.675 -1.811,-1.51 l 0,0 0,-0.981 C 24,216.676 24.811,216 25.811,216 l 0,0 8.378,0 c 1,0 1.811,0.676 1.811,1.509 l 0,0 0,0.981 c 0,0.835 -0.811,1.51 -1.811,1.51 l 0,0 -8.378,0 z" /></g></g></g></g><g
       id="g672"><g
         clip-path="url(#clipPath676)"
         id="g674"><g
           id="g680"><g
             id="g682"><path
               id="path690"
               style="fill:url(#linearGradient684);stroke:none"
               d="m 25.811,212 c -1,0 -1.811,-0.676 -1.811,-1.509 l 0,0 0,-0.982 C 24,208.676 24.811,208 25.811,208 l 0,0 8.378,0 c 1,0 1.811,0.676 1.811,1.509 l 0,0 0,0.982 C 36,211.324 35.189,212 34.189,212 l 0,0 -8.378,0 z" /></g></g></g></g><g
       id="g692"><g
         clip-path="url(#clipPath696)"
         id="g694"><g
           id="g700"><g
             id="g702"><path
               id="path710"
               style="fill:url(#linearGradient704);stroke:none"
               d="m 25.811,204 c -1,0 -1.811,-0.676 -1.811,-1.509 l 0,0 0,-0.982 C 24,200.676 24.811,200 25.811,200 l 0,0 8.378,0 c 1,0 1.811,0.676 1.811,1.509 l 0,0 0,0.982 C 36,203.324 35.189,204 34.189,204 l 0,0 -8.378,0 z" /></g></g></g></g><g
       id="g712"><g
         clip-path="url(#clipPath716)"
         id="g714"><g
           id="g720"><g
             id="g722"><path
               id="path730"
               style="fill:url(#linearGradient724);stroke:none"
               d="m 25.811,196 c -1,0 -1.811,-0.676 -1.811,-1.509 l 0,0 0,-0.982 C 24,192.676 24.811,192 25.811,192 l 0,0 8.378,0 c 1,0 1.811,0.676 1.811,1.509 l 0,0 0,0.982 C 36,195.324 35.189,196 34.189,196 l 0,0 -8.378,0 z" /></g></g></g></g><g
       id="g732"><g
         clip-path="url(#clipPath736)"
         id="g734"><g
           id="g740"><g
             id="g742"><path
               id="path750"
               style="fill:url(#linearGradient744);stroke:none"
               d="m 25.811,188 c -1,0 -1.811,-0.676 -1.811,-1.509 l 0,0 0,-0.982 C 24,184.675 24.811,184 25.811,184 l 0,0 8.378,0 c 1,0 1.811,0.675 1.811,1.509 l 0,0 0,0.982 C 36,187.324 35.189,188 34.189,188 l 0,0 -8.378,0 z" /></g></g></g></g><g
       id="g752"><g
         clip-path="url(#clipPath756)"
         id="g754"><g
           transform="translate(59.2381,164)"
           id="g760"><path
             id="path762"
             style="fill:#999999;fill-opacity:1;fill-rule:nonzero;stroke:none"
             d="m 0,0 137.524,0 c 3.997,0 7.238,-3.098 7.238,-6.919 l 0,-114.162 c 0,-3.821 -3.241,-6.919 -7.238,-6.919 L 0,-128 c -3.997,0 -7.238,3.098 -7.238,6.919 l 0,114.162 C -7.238,-3.098 -3.997,0 0,0" /></g><path
           id="path764"
           style="fill:#ffffff;fill-opacity:1;fill-rule:nonzero;stroke:none"
           d="m 192,36 -128,0 0,128 128,0 0,-128 z" /></g></g><g
       id="g766"><g
         clip-path="url(#clipPath770)"
         id="g768"><g
           id="g774"><g
             id="g776"><path
               id="path784"
               style="fill:url(#linearGradient778);stroke:none"
               d="m 52,176 152,0 0,12 -152,0 0,-12 z" /></g></g></g></g><g
       id="g786"><g
         clip-path="url(#clipPath790)"
         id="g788"><g
           transform="translate(204.255,176)"
           id="g794"><path
             id="path796"
             style="fill:#999999;fill-opacity:1;fill-rule:nonzero;stroke:none"
             d="m 0,0 c -5.9,8.29 -5.442,26.325 0,52 2.089,0 3.745,-1.646 3.745,-3.714 l 0,-44.572 C 3.745,1.607 2.179,0 0,0" /></g><g
           transform="translate(52.9063,176)"
           id="g798"><path
             id="path800"
             style="fill:#999999;fill-opacity:1;fill-rule:nonzero;stroke:none"
             d="m 0,0 c 5.9,8.29 5.442,26.325 0,52 -2.089,0 -3.745,-1.646 -3.745,-3.714 l 0,-44.572 C -3.745,1.607 -2.179,0 0,0" /></g></g></g></g></svg>