<?xml version="1.0" encoding="UTF-8" standalone="no"?>
<svg
   xmlns:dc="http://purl.org/dc/elements/1.1/"
   xmlns:cc="http://creativecommons.org/ns#"
   xmlns:rdf="http://www.w3.org/1999/02/22-rdf-syntax-ns#"
   xmlns:svg="http://www.w3.org/2000/svg"
   xmlns="http://www.w3.org/2000/svg"
   viewBox="0 0 320 320"
   height="320"
   width="320"
   xml:space="preserve"
   version="1.1"
   id="svg2"><metadata
     id="metadata8"><rdf:RDF><cc:Work
         rdf:about=""><dc:format>image/svg+xml</dc:format><dc:type
           rdf:resource="http://purl.org/dc/dcmitype/StillImage" /></cc:Work></rdf:RDF></metadata><defs
     id="defs6"><clipPath
       id="clipPath16"
       clipPathUnits="userSpaceOnUse"><path
         id="path18"
         d="m 35.198,68.076 c 16.458,0 28.802,64 28.802,64 l 0,0 -45.26,44 c -12.344,-36 -8.229,-108 16.458,-108" /></clipPath><linearGradient
       id="linearGradient24"
       spreadMethod="pad"
       gradientTransform="matrix(63.847519,-63.847519,-63.847519,-63.847519,-5.1408095,152.19456)"
       gradientUnits="userSpaceOnUse"
       y2="0"
       x2="1"
       y1="0"
       x1="0"><stop
         id="stop26"
         offset="0"
         style="stop-opacity:1;stop-color:#e6e7e8" /><stop
         id="stop28"
         offset="1"
         style="stop-opacity:1;stop-color:#d1d3d4" /></linearGradient><clipPath
       id="clipPath36"
       clipPathUnits="userSpaceOnUse"><path
         id="path38"
         d="m 192,132.076 c 0,0 12.343,-64 28.801,-64 l 0,0 c 24.687,0 28.802,72 16.459,108 l 0,0 -45.26,-44 z" /></clipPath><linearGradient
       id="linearGradient44"
       spreadMethod="pad"
       gradientTransform="matrix(49.021862,-49.021862,-49.021862,-49.021862,204.70612,144.78174)"
       gradientUnits="userSpaceOnUse"
       y2="0"
       x2="1"
       y1="0"
       x1="0"><stop
         id="stop46"
         offset="0"
         style="stop-opacity:1;stop-color:#e6e7e8" /><stop
         id="stop48"
         offset="1"
         style="stop-opacity:1;stop-color:#d1d3d4" /></linearGradient><clipPath
       id="clipPath56"
       clipPathUnits="userSpaceOnUse"><path
         id="path58"
         d="m 60.011,219.628 c -0.657,-0.185 -16.141,-4.569 -22.839,-8.824 l 0,0 c -1.149,-0.729 -1.517,-2.294 -0.821,-3.499 l 0,0 c 0.692,-1.202 2.184,-1.583 3.335,-0.861 l 0,0 c 5.814,3.691 19.953,7.796 21.545,8.254 l 0,0 0.007,0 c 34.358,8.417 99.253,8.417 133.569,-0.01 l 0,0 c 5.94,-1.459 14.627,-3.903 21.511,-8.247 l 0,0 c 0.394,-0.248 0.826,-0.365 1.252,-0.365 l 0,0 c 0.821,0 1.628,0.44 2.083,1.235 l 0,0 c 0.689,1.206 0.318,2.772 -0.83,3.496 l 0,0 c -7.472,4.717 -16.652,7.305 -22.906,8.843 l 0,0 c -17.446,4.284 -42.65,6.426 -67.874,6.426 l 0,0 c -25.254,-0.001 -50.53,-2.149 -68.032,-6.448" /></clipPath><linearGradient
       id="linearGradient64"
       spreadMethod="pad"
       gradientTransform="matrix(-93.092804,93.092804,93.092804,93.092804,174.54636,162.07748)"
       gradientUnits="userSpaceOnUse"
       y2="0"
       x2="1"
       y1="0"
       x1="0"><stop
         id="stop66"
         offset="0"
         style="stop-opacity:1;stop-color:#e6e7e8" /><stop
         id="stop68"
         offset="1"
         style="stop-opacity:1;stop-color:#d1d3d4" /></linearGradient><clipPath
       id="clipPath76"
       clipPathUnits="userSpaceOnUse"><path
         id="path78"
         d="m 60.596,209.939 0,-0.001 C 37.619,204.603 18,199.176 18,175.774 l 0,0 0,-0.36 c 0,-23.403 19.549,-45.296 42.596,-50.324 l 0,0 18.515,-4.04 C 103.556,121.05 95.407,16 128,16 l 0,0 c 32.592,0 24.445,105.05 48.889,105.05 l 0,0 18.515,4.04 C 218.451,130.12 238,152.012 238,175.415 l 0,0 0,0.359 c 0,23.404 -19.619,28.83 -42.596,34.165 l 0,0 C 177.998,213.98 152.999,216 128,216 l 0,0 c -24.999,0 -49.998,-2.02 -67.404,-6.061" /></clipPath><linearGradient
       id="linearGradient84"
       spreadMethod="pad"
       gradientTransform="matrix(-143.99306,143.99306,143.99306,143.99306,199.99684,82.052765)"
       gradientUnits="userSpaceOnUse"
       y2="0"
       x2="1"
       y1="0"
       x1="0"><stop
         id="stop86"
         offset="0"
         style="stop-opacity:1;stop-color:#e6e7e8" /><stop
         id="stop88"
         offset="1"
         style="stop-opacity:1;stop-color:#d1d3d4" /></linearGradient><clipPath
       id="clipPath96"
       clipPathUnits="userSpaceOnUse"><path
         id="path98"
         d="M 60.596,217.941 C 37.619,212.61 18,199.108 18,175.714 l 0,0 0,-0.361 c 0,-23.393 19.549,-37.199 42.596,-42.227 l 0,0 18.515,-4.039 C 103.556,129.087 95.407,16 128,16 l 0,0 c 32.592,0 24.445,113.087 48.889,113.087 l 0,0 18.515,4.039 C 218.451,138.154 238,151.96 238,175.353 l 0,0 0,0.361 c 0,23.394 -19.619,36.896 -42.596,42.227 l 0,0 C 177.998,221.98 152.999,224 128,224 l 0,0 c -24.999,0 -49.998,-2.02 -67.404,-6.059" /></clipPath><linearGradient
       id="linearGradient104"
       spreadMethod="pad"
       gradientTransform="matrix(145.3102,-145.3102,-145.3102,-145.3102,55.344891,228.35979)"
       gradientUnits="userSpaceOnUse"
       y2="0"
       x2="1"
       y1="0"
       x1="0"><stop
         id="stop106"
         offset="0"
         style="stop-opacity:1;stop-color:#e6e7e8" /><stop
         id="stop108"
         offset="1"
         style="stop-opacity:1;stop-color:#d1d3d4" /></linearGradient><clipPath
       id="clipPath116"
       clipPathUnits="userSpaceOnUse"><path
         id="path118"
         d="m 32,174.075 c 0,-14.359 11.641,-26 26,-26 l 0,0 c 14.359,0 26,11.641 26,26 l 0,0 c 0,14.36 -11.641,26 -26,26 l 0,0 c -14.359,0 -26,-11.64 -26,-26" /></clipPath><linearGradient
       id="linearGradient124"
       spreadMethod="pad"
       gradientTransform="matrix(-36.76955,36.76955,36.76955,36.76955,76.384781,155.69084)"
       gradientUnits="userSpaceOnUse"
       y2="0"
       x2="1"
       y1="0"
       x1="0"><stop
         id="stop126"
         offset="0"
         style="stop-opacity:1;stop-color:#e6e7e8" /><stop
         id="stop128"
         offset="1"
         style="stop-opacity:1;stop-color:#d1d3d4" /></linearGradient><clipPath
       id="clipPath136"
       clipPathUnits="userSpaceOnUse"><path
         id="path138"
         d="M 0,256 256,256 256,0 0,0 0,256 Z" /></clipPath><clipPath
       id="clipPath148"
       clipPathUnits="userSpaceOnUse"><path
         id="path150"
         d="m 54,174.075 c 0,-2.208 1.791,-3.999 4,-3.999 l 0,0 c 2.208,0 4,1.791 4,3.999 l 0,0 c 0,2.21 -1.792,4.001 -4,4.001 l 0,0 c -2.209,0 -4,-1.791 -4,-4.001" /></clipPath><linearGradient
       id="linearGradient156"
       spreadMethod="pad"
       gradientTransform="matrix(5.6568851,-5.6568851,-5.6568851,-5.6568851,55.171394,176.90407)"
       gradientUnits="userSpaceOnUse"
       y2="0"
       x2="1"
       y1="0"
       x1="0"><stop
         id="stop158"
         offset="0"
         style="stop-opacity:1;stop-color:#e6e7e8" /><stop
         id="stop160"
         offset="1"
         style="stop-opacity:1;stop-color:#d1d3d4" /></linearGradient><clipPath
       id="clipPath168"
       clipPathUnits="userSpaceOnUse"><path
         id="path170"
         d="m 47.062,177.975 -4.749,-3.256 c -0.417,-0.286 -0.417,-1.001 0,-1.287 l 0,0 4.749,-3.256 C 47.479,169.89 48,170.248 48,170.82 l 0,0 0,6.511 c 0,0.434 -0.3,0.745 -0.626,0.745 l 0,0 c -0.104,0 -0.211,-0.032 -0.312,-0.101" /></clipPath><linearGradient
       id="linearGradient176"
       spreadMethod="pad"
       gradientTransform="matrix(4.9740124,-4.9740124,-4.9740124,-4.9740124,44.140858,176.56253)"
       gradientUnits="userSpaceOnUse"
       y2="0"
       x2="1"
       y1="0"
       x1="0"><stop
         id="stop178"
         offset="0"
         style="stop-opacity:1;stop-color:#e6e7e8" /><stop
         id="stop180"
         offset="1"
         style="stop-opacity:1;stop-color:#d1d3d4" /></linearGradient><clipPath
       id="clipPath188"
       clipPathUnits="userSpaceOnUse"><path
         id="path190"
         d="m 68,177.331 0,-6.511 c 0,-0.572 0.521,-0.93 0.938,-0.644 l 0,0 4.75,3.257 c 0.416,0.285 0.416,1.001 0,1.286 l 0,0 -4.75,3.256 c -0.101,0.069 -0.207,0.101 -0.312,0.101 l 0,0 C 68.3,178.076 68,177.765 68,177.331" /></clipPath><linearGradient
       id="linearGradient196"
       spreadMethod="pad"
       gradientTransform="matrix(4.9740124,-4.9740124,-4.9740124,-4.9740124,66.885132,176.56273)"
       gradientUnits="userSpaceOnUse"
       y2="0"
       x2="1"
       y1="0"
       x1="0"><stop
         id="stop198"
         offset="0"
         style="stop-opacity:1;stop-color:#e6e7e8" /><stop
         id="stop200"
         offset="1"
         style="stop-opacity:1;stop-color:#d1d3d4" /></linearGradient><clipPath
       id="clipPath208"
       clipPathUnits="userSpaceOnUse"><path
         id="path210"
         d="m 57.356,189.763 -3.255,-4.749 c -0.286,-0.417 0.071,-0.939 0.643,-0.939 l 0,0 6.512,0 c 0.572,0 0.93,0.522 0.643,0.939 l 0,0 -3.256,4.749 C 58.5,189.972 58.25,190.076 58,190.076 l 0,0 c -0.251,0 -0.501,-0.104 -0.644,-0.313" /></clipPath><linearGradient
       id="linearGradient216"
       spreadMethod="pad"
       gradientTransform="matrix(4.9742031,-4.9742031,-4.9742031,-4.9742031,55.512802,187.93486)"
       gradientUnits="userSpaceOnUse"
       y2="0"
       x2="1"
       y1="0"
       x1="0"><stop
         id="stop218"
         offset="0"
         style="stop-opacity:1;stop-color:#e6e7e8" /><stop
         id="stop220"
         offset="1"
         style="stop-opacity:1;stop-color:#d1d3d4" /></linearGradient><clipPath
       id="clipPath228"
       clipPathUnits="userSpaceOnUse"><path
         id="path230"
         d="m 54.744,164.075 c -0.572,0 -0.929,-0.521 -0.643,-0.937 l 0,0 3.256,-4.75 c 0.286,-0.416 1.001,-0.416 1.286,0 l 0,0 3.256,4.75 c 0.287,0.416 -0.071,0.937 -0.643,0.937 l 0,0 -6.512,0 z" /></clipPath><linearGradient
       id="linearGradient236"
       spreadMethod="pad"
       gradientTransform="matrix(4.9742031,-4.9742031,-4.9742031,-4.9742031,55.512993,165.19058)"
       gradientUnits="userSpaceOnUse"
       y2="0"
       x2="1"
       y1="0"
       x1="0"><stop
         id="stop238"
         offset="0"
         style="stop-opacity:1;stop-color:#e6e7e8" /><stop
         id="stop240"
         offset="1"
         style="stop-opacity:1;stop-color:#d1d3d4" /></linearGradient><clipPath
       id="clipPath248"
       clipPathUnits="userSpaceOnUse"><path
         id="path250"
         d="m 118,168.076 c 0,-5.523 4.477,-10 10,-10 l 0,0 c 5.523,0 10,4.477 10,10 l 0,0 c 0,5.522 -4.477,10 -10,10 l 0,0 c -5.523,0 -10,-4.478 -10,-10" /></clipPath><linearGradient
       id="linearGradient256"
       spreadMethod="pad"
       gradientTransform="matrix(-14.142136,14.142136,14.142136,14.142136,135.07106,161.00456)"
       gradientUnits="userSpaceOnUse"
       y2="0"
       x2="1"
       y1="0"
       x1="0"><stop
         id="stop258"
         offset="0"
         style="stop-opacity:1;stop-color:#e6e7e8" /><stop
         id="stop260"
         offset="1"
         style="stop-opacity:1;stop-color:#d1d3d4" /></linearGradient><clipPath
       id="clipPath268"
       clipPathUnits="userSpaceOnUse"><path
         id="path270"
         d="m 104,118.076 c 0,-13.255 10.745,-24.001 24,-24.001 l 0,0 c 13.255,0 24,10.746 24,24.001 l 0,0 c 0,13.255 -10.745,24 -24,24 l 0,0 c -13.255,0 -24,-10.745 -24,-24" /></clipPath><linearGradient
       id="linearGradient276"
       spreadMethod="pad"
       gradientTransform="matrix(-33.941124,33.941124,33.941124,33.941124,144.97055,101.10506)"
       gradientUnits="userSpaceOnUse"
       y2="0"
       x2="1"
       y1="0"
       x1="0"><stop
         id="stop278"
         offset="0"
         style="stop-opacity:1;stop-color:#e6e7e8" /><stop
         id="stop280"
         offset="1"
         style="stop-opacity:1;stop-color:#d1d3d4" /></linearGradient><clipPath
       id="clipPath288"
       clipPathUnits="userSpaceOnUse"><path
         id="path290"
         d="M 115.272,130.803 110,118.076 l 5.272,-12.728 12.728,-5.272 12.728,5.272 5.272,12.728 -5.272,12.727 -12.728,5.273 -12.728,-5.273 z" /></clipPath><linearGradient
       id="linearGradient296"
       spreadMethod="pad"
       gradientTransform="matrix(25.455843,-25.455843,-25.455843,-25.455843,115.27206,130.80354)"
       gradientUnits="userSpaceOnUse"
       y2="0"
       x2="1"
       y1="0"
       x1="0"><stop
         id="stop298"
         offset="0"
         style="stop-opacity:1;stop-color:#e6e7e8" /><stop
         id="stop300"
         offset="1"
         style="stop-opacity:1;stop-color:#d1d3d4" /></linearGradient><clipPath
       id="clipPath308"
       clipPathUnits="userSpaceOnUse"><path
         id="path310"
         d="M 0,256 256,256 256,0 0,0 0,256 Z" /></clipPath><clipPath
       id="clipPath324"
       clipPathUnits="userSpaceOnUse"><path
         id="path326"
         d="m 176,164.091 c 0,0 6.75,-8.717 8,-7.97 l 0,0 c 1.25,0.747 4,3.984 4,3.984 l 0,0 -8,7.971 -4,-3.985 z" /></clipPath><linearGradient
       id="linearGradient332"
       spreadMethod="pad"
       gradientTransform="matrix(-8.0985975,8.0985975,8.0985975,8.0985975,185.88606,157.77963)"
       gradientUnits="userSpaceOnUse"
       y2="0"
       x2="1"
       y1="0"
       x1="0"><stop
         id="stop334"
         offset="0"
         style="stop-opacity:1;stop-color:#e6e7e8" /><stop
         id="stop336"
         offset="1"
         style="stop-opacity:1;stop-color:#d1d3d4" /></linearGradient><clipPath
       id="clipPath344"
       clipPathUnits="userSpaceOnUse"><path
         id="path346"
         d="M 0,256 256,256 256,0 0,0 0,256 Z" /></clipPath><clipPath
       id="clipPath356"
       clipPathUnits="userSpaceOnUse"><path
         id="path358"
         d="m 188,182.075 c 0,-9.94 8.059,-18 18,-18 l 0,0 c 9.941,0 18,8.06 18,18 l 0,0 c 0,9.942 -8.059,18 -18,18 l 0,0 c -9.941,0 -18,-8.058 -18,-18" /></clipPath><linearGradient
       id="linearGradient364"
       spreadMethod="pad"
       gradientTransform="matrix(-25.455843,25.455843,25.455843,25.455843,218.72792,169.3477)"
       gradientUnits="userSpaceOnUse"
       y2="0"
       x2="1"
       y1="0"
       x1="0"><stop
         id="stop366"
         offset="0"
         style="stop-opacity:1;stop-color:#e6e7e8" /><stop
         id="stop368"
         offset="1"
         style="stop-opacity:1;stop-color:#d1d3d4" /></linearGradient><clipPath
       id="clipPath376"
       clipPathUnits="userSpaceOnUse"><path
         id="path378"
         d="M 0,256 256,256 256,0 0,0 0,256 Z" /></clipPath><clipPath
       id="clipPath400"
       clipPathUnits="userSpaceOnUse"><path
         id="path402"
         d="m 80,221.647 12,-34.571 -8,44 -4,-9.429 z" /></clipPath><linearGradient
       id="linearGradient408"
       spreadMethod="pad"
       gradientTransform="matrix(-26,26,26,26,101,196.07562)"
       gradientUnits="userSpaceOnUse"
       y2="0"
       x2="1"
       y1="0"
       x1="0"><stop
         id="stop410"
         offset="0"
         style="stop-opacity:1;stop-color:#e6e7e8" /><stop
         id="stop412"
         offset="1"
         style="stop-opacity:1;stop-color:#d1d3d4" /></linearGradient><clipPath
       id="clipPath420"
       clipPathUnits="userSpaceOnUse"><path
         id="path422"
         d="m 164,187.076 12,34.571 -4,9.429 -8,-44 z" /></clipPath><linearGradient
       id="linearGradient428"
       spreadMethod="pad"
       gradientTransform="matrix(-18,18,18,18,177,200.07562)"
       gradientUnits="userSpaceOnUse"
       y2="0"
       x2="1"
       y1="0"
       x1="0"><stop
         id="stop430"
         offset="0"
         style="stop-opacity:1;stop-color:#e6e7e8" /><stop
         id="stop432"
         offset="1"
         style="stop-opacity:1;stop-color:#d1d3d4" /></linearGradient><clipPath
       id="clipPath440"
       clipPathUnits="userSpaceOnUse"><path
         id="path442"
         d="m 88.02,234.222 c -2.056,-0.793 -4.395,-1.752 -3.998,-3.852 l 0,0 7.996,-42.37 71.964,0 7.995,42.37 c 0,2.134 -1.941,3.059 -3.997,3.852 l 0,0 C 157.985,238.074 142.992,240 128,240 l 0,0 c -14.993,0 -29.985,-1.926 -39.98,-5.778" /></clipPath><linearGradient
       id="linearGradient448"
       spreadMethod="pad"
       gradientTransform="matrix(61.860615,-61.860615,-61.860615,-61.860615,97.0308,244.77045)"
       gradientUnits="userSpaceOnUse"
       y2="0"
       x2="1"
       y1="0"
       x1="0"><stop
         id="stop450"
         offset="0"
         style="stop-opacity:1;stop-color:#e6e7e8" /><stop
         id="stop452"
         offset="1"
         style="stop-opacity:1;stop-color:#d1d3d4" /></linearGradient><clipPath
       id="clipPath460"
       clipPathUnits="userSpaceOnUse"><path
         id="path462"
         d="m 119,118.076 c 0,-4.963 4.037,-9 9,-9 l 0,0 c 4.962,0 9,4.037 9,9 l 0,0 c 0,4.962 -4.038,9 -9,9 l 0,0 c -4.963,0 -9,-4.038 -9,-9" /></clipPath><linearGradient
       id="linearGradient468"
       spreadMethod="pad"
       gradientTransform="matrix(12.721953,-12.721953,-12.721953,-12.721953,121.63901,124.4366)"
       gradientUnits="userSpaceOnUse"
       y2="0"
       x2="1"
       y1="0"
       x1="0"><stop
         id="stop470"
         offset="0"
         style="stop-opacity:1;stop-color:#e6e7e8" /><stop
         id="stop472"
         offset="1"
         style="stop-opacity:1;stop-color:#d1d3d4" /></linearGradient><clipPath
       id="clipPath480"
       clipPathUnits="userSpaceOnUse"><path
         id="path482"
         d="m 120,118.076 c 0,-4.411 3.589,-8.001 8,-8.001 l 0,0 c 4.412,0 8,3.59 8,8.001 l 0,0 c 0,4.41 -3.588,8 -8,8 l 0,0 c -4.411,0 -8,-3.59 -8,-8" /></clipPath><linearGradient
       id="linearGradient488"
       spreadMethod="pad"
       gradientTransform="matrix(-11.308409,11.308409,11.308409,11.308409,133.65419,112.42142)"
       gradientUnits="userSpaceOnUse"
       y2="0"
       x2="1"
       y1="0"
       x1="0"><stop
         id="stop490"
         offset="0"
         style="stop-opacity:1;stop-color:#e6e7e8" /><stop
         id="stop492"
         offset="1"
         style="stop-opacity:1;stop-color:#d1d3d4" /></linearGradient><clipPath
       id="clipPath500"
       clipPathUnits="userSpaceOnUse"><path
         id="path502"
         d="m 121,118.076 c 0,-3.861 3.14,-7.001 7,-7.001 l 0,0 c 3.86,0 7,3.14 7,7.001 l 0,0 c 0,3.86 -3.14,7 -7,7 l 0,0 c -3.86,0 -7,-3.14 -7,-7" /></clipPath><linearGradient
       id="linearGradient508"
       spreadMethod="pad"
       gradientTransform="matrix(9.8948631,-9.8948631,-9.8948631,-9.8948631,123.05256,123.02306)"
       gradientUnits="userSpaceOnUse"
       y2="0"
       x2="1"
       y1="0"
       x1="0"><stop
         id="stop510"
         offset="0"
         style="stop-opacity:1;stop-color:#e6e7e8" /><stop
         id="stop512"
         offset="1"
         style="stop-opacity:1;stop-color:#d1d3d4" /></linearGradient><clipPath
       id="clipPath520"
       clipPathUnits="userSpaceOnUse"><path
         id="path522"
         d="m 122,118.076 c 0,-3.309 2.691,-6.001 6,-6.001 l 0,0 c 3.308,0 6,2.692 6,6.001 l 0,0 c 0,3.308 -2.692,6 -6,6 l 0,0 c -3.309,0 -6,-2.692 -6,-6" /></clipPath><linearGradient
       id="linearGradient528"
       spreadMethod="pad"
       gradientTransform="matrix(-8.3320189,8.6280584,8.6280584,8.3320189,132.166,113.7616)"
       gradientUnits="userSpaceOnUse"
       y2="0"
       x2="1"
       y1="0"
       x1="0"><stop
         id="stop530"
         offset="0"
         style="stop-opacity:1;stop-color:#e6e7e8" /><stop
         id="stop532"
         offset="1"
         style="stop-opacity:1;stop-color:#d1d3d4" /></linearGradient><clipPath
       id="clipPath540"
       clipPathUnits="userSpaceOnUse"><path
         id="path542"
         d="m 123,118.076 c 0,-2.757 2.243,-5 5,-5 l 0,0 c 2.757,0 5,2.243 5,5 l 0,0 c 0,2.756 -2.243,5 -5,5 l 0,0 c -2.757,0 -5,-2.244 -5,-5" /></clipPath><linearGradient
       id="linearGradient548"
       spreadMethod="pad"
       gradientTransform="matrix(7.0677366,-7.0677366,-7.0677366,-7.0677366,124.46612,121.60948)"
       gradientUnits="userSpaceOnUse"
       y2="0"
       x2="1"
       y1="0"
       x1="0"><stop
         id="stop550"
         offset="0"
         style="stop-opacity:1;stop-color:#e6e7e8" /><stop
         id="stop552"
         offset="1"
         style="stop-opacity:1;stop-color:#d1d3d4" /></linearGradient><clipPath
       id="clipPath560"
       clipPathUnits="userSpaceOnUse"><path
         id="path562"
         d="m 124,118.076 c 0,-2.209 1.791,-4 4,-4 l 0,0 c 2.209,0 4,1.791 4,4 l 0,0 c 0,2.209 -1.791,4 -4,4 l 0,0 c -2.209,0 -4,-1.791 -4,-4" /></clipPath><linearGradient
       id="linearGradient568"
       spreadMethod="pad"
       gradientTransform="matrix(-5.6568542,5.6568542,5.6568542,5.6568542,130.82841,115.24718)"
       gradientUnits="userSpaceOnUse"
       y2="0"
       x2="1"
       y1="0"
       x1="0"><stop
         id="stop570"
         offset="0"
         style="stop-opacity:1;stop-color:#e6e7e8" /><stop
         id="stop572"
         offset="1"
         style="stop-opacity:1;stop-color:#d1d3d4" /></linearGradient><clipPath
       id="clipPath580"
       clipPathUnits="userSpaceOnUse"><path
         id="path582"
         d="m 127,118.076 c 0,-0.553 0.448,-1 1,-1 l 0,0 c 0.552,0 1,0.447 1,1 l 0,0 c 0,0.552 -0.448,0.999 -1,0.999 l 0,0 c -0.552,0 -1,-0.447 -1,-0.999" /></clipPath><linearGradient
       id="linearGradient588"
       spreadMethod="pad"
       gradientTransform="matrix(1.4142135,-1.4142135,-1.4142135,-1.4142135,127.29288,118.78272)"
       gradientUnits="userSpaceOnUse"
       y2="0"
       x2="1"
       y1="0"
       x1="0"><stop
         id="stop590"
         offset="0"
         style="stop-opacity:1;stop-color:#e6e7e8" /><stop
         id="stop592"
         offset="1"
         style="stop-opacity:1;stop-color:#d1d3d4" /></linearGradient><clipPath
       id="clipPath600"
       clipPathUnits="userSpaceOnUse"><path
         id="path602"
         d="M 0,256 256,256 256,0 0,0 0,256 Z" /></clipPath></defs><g
     transform="matrix(1.25,0,0,-1.25,0,320)"
     id="g10"><g
       id="g12"><g
         clip-path="url(#clipPath16)"
         id="g14"><g
           id="g20"><g
             id="g22"><path
               id="path30"
               style="fill:url(#linearGradient24);stroke:none"
               d="m 35.198,68.076 c 16.458,0 28.802,64 28.802,64 l 0,0 -45.26,44 c -12.344,-36 -8.229,-108 16.458,-108" /></g></g></g></g><g
       id="g32"><g
         clip-path="url(#clipPath36)"
         id="g34"><g
           id="g40"><g
             id="g42"><path
               id="path50"
               style="fill:url(#linearGradient44);stroke:none"
               d="m 192,132.076 c 0,0 12.343,-64 28.801,-64 l 0,0 c 24.687,0 28.802,72 16.459,108 l 0,0 -45.26,-44 z" /></g></g></g></g><g
       id="g52"><g
         clip-path="url(#clipPath56)"
         id="g54"><g
           id="g60"><g
             id="g62"><path
               id="path70"
               style="fill:url(#linearGradient64);stroke:none"
               d="m 60.011,219.628 c -0.657,-0.185 -16.141,-4.569 -22.839,-8.824 l 0,0 c -1.149,-0.729 -1.517,-2.294 -0.821,-3.499 l 0,0 c 0.692,-1.202 2.184,-1.583 3.335,-0.861 l 0,0 c 5.814,3.691 19.953,7.796 21.545,8.254 l 0,0 0.007,0 c 34.358,8.417 99.253,8.417 133.569,-0.01 l 0,0 c 5.94,-1.459 14.627,-3.903 21.511,-8.247 l 0,0 c 0.394,-0.248 0.826,-0.365 1.252,-0.365 l 0,0 c 0.821,0 1.628,0.44 2.083,1.235 l 0,0 c 0.689,1.206 0.318,2.772 -0.83,3.496 l 0,0 c -7.472,4.717 -16.652,7.305 -22.906,8.843 l 0,0 c -17.446,4.284 -42.65,6.426 -67.874,6.426 l 0,0 c -25.254,-0.001 -50.53,-2.149 -68.032,-6.448" /></g></g></g></g><g
       id="g72"><g
         clip-path="url(#clipPath76)"
         id="g74"><g
           id="g80"><g
             id="g82"><path
               id="path90"
               style="fill:url(#linearGradient84);stroke:none"
               d="m 60.596,209.939 0,-0.001 C 37.619,204.603 18,199.176 18,175.774 l 0,0 0,-0.36 c 0,-23.403 19.549,-45.296 42.596,-50.324 l 0,0 18.515,-4.04 C 103.556,121.05 95.407,16 128,16 l 0,0 c 32.592,0 24.445,105.05 48.889,105.05 l 0,0 18.515,4.04 C 218.451,130.12 238,152.012 238,175.415 l 0,0 0,0.359 c 0,23.404 -19.619,28.83 -42.596,34.165 l 0,0 C 177.998,213.98 152.999,216 128,216 l 0,0 c -24.999,0 -49.998,-2.02 -67.404,-6.061" /></g></g></g></g><g
       id="g92"><g
         clip-path="url(#clipPath96)"
         id="g94"><g
           id="g100"><g
             id="g102"><path
               id="path110"
               style="fill:url(#linearGradient104);stroke:none"
               d="M 60.596,217.941 C 37.619,212.61 18,199.108 18,175.714 l 0,0 0,-0.361 c 0,-23.393 19.549,-37.199 42.596,-42.227 l 0,0 18.515,-4.039 C 103.556,129.087 95.407,16 128,16 l 0,0 c 32.592,0 24.445,113.087 48.889,113.087 l 0,0 18.515,4.039 C 218.451,138.154 238,151.96 238,175.353 l 0,0 0,0.361 c 0,23.394 -19.619,36.896 -42.596,42.227 l 0,0 C 177.998,221.98 152.999,224 128,224 l 0,0 c -24.999,0 -49.998,-2.02 -67.404,-6.059" /></g></g></g></g><g
       id="g112"><g
         clip-path="url(#clipPath116)"
         id="g114"><g
           id="g120"><g
             id="g122"><path
               id="path130"
               style="fill:url(#linearGradient124);stroke:none"
               d="m 32,174.075 c 0,-14.359 11.641,-26 26,-26 l 0,0 c 14.359,0 26,11.641 26,26 l 0,0 c 0,14.36 -11.641,26 -26,26 l 0,0 c -14.359,0 -26,-11.64 -26,-26" /></g></g></g></g><g
       id="g132"><g
         clip-path="url(#clipPath136)"
         id="g134"><g
           transform="translate(73.8369,180.7814)"
           id="g140"><path
             id="path142"
             style="fill:#999999;fill-opacity:1;fill-rule:nonzero;stroke:none"
             d="m 0,0 -9.131,0 0,9.131 c 0,1.195 -0.969,2.163 -2.163,2.163 l -9.086,0 c -1.195,0 -2.163,-0.968 -2.163,-2.163 l 0,-9.131 -9.131,0 c -1.194,0 -2.163,-0.968 -2.163,-2.163 l 0,-9.086 c 0,-1.194 0.969,-2.163 2.163,-2.163 l 9.131,0 0,-9.131 c 0,-1.194 0.968,-2.163 2.163,-2.163 l 9.086,0 c 1.194,0 2.163,0.969 2.163,2.163 l 0,9.131 9.131,0 c 1.195,0 2.163,0.969 2.163,2.163 l 0,9.086 C 2.163,-0.968 1.195,0 0,0" /></g></g></g><g
       id="g144"><g
         clip-path="url(#clipPath148)"
         id="g146"><g
           id="g152"><g
             id="g154"><path
               id="path162"
               style="fill:url(#linearGradient156);stroke:none"
               d="m 54,174.075 c 0,-2.208 1.791,-3.999 4,-3.999 l 0,0 c 2.208,0 4,1.791 4,3.999 l 0,0 c 0,2.21 -1.792,4.001 -4,4.001 l 0,0 c -2.209,0 -4,-1.791 -4,-4.001" /></g></g></g></g><g
       id="g164"><g
         clip-path="url(#clipPath168)"
         id="g166"><g
           id="g172"><g
             id="g174"><path
               id="path182"
               style="fill:url(#linearGradient176);stroke:none"
               d="m 47.062,177.975 -4.749,-3.256 c -0.417,-0.286 -0.417,-1.001 0,-1.287 l 0,0 4.749,-3.256 C 47.479,169.89 48,170.248 48,170.82 l 0,0 0,6.511 c 0,0.434 -0.3,0.745 -0.626,0.745 l 0,0 c -0.104,0 -0.211,-0.032 -0.312,-0.101" /></g></g></g></g><g
       id="g184"><g
         clip-path="url(#clipPath188)"
         id="g186"><g
           id="g192"><g
             id="g194"><path
               id="path202"
               style="fill:url(#linearGradient196);stroke:none"
               d="m 68,177.331 0,-6.511 c 0,-0.572 0.521,-0.93 0.938,-0.644 l 0,0 4.75,3.257 c 0.416,0.285 0.416,1.001 0,1.286 l 0,0 -4.75,3.256 c -0.101,0.069 -0.207,0.101 -0.312,0.101 l 0,0 C 68.3,178.076 68,177.765 68,177.331" /></g></g></g></g><g
       id="g204"><g
         clip-path="url(#clipPath208)"
         id="g206"><g
           id="g212"><g
             id="g214"><path
               id="path222"
               style="fill:url(#linearGradient216);stroke:none"
               d="m 57.356,189.763 -3.255,-4.749 c -0.286,-0.417 0.071,-0.939 0.643,-0.939 l 0,0 6.512,0 c 0.572,0 0.93,0.522 0.643,0.939 l 0,0 -3.256,4.749 C 58.5,189.972 58.25,190.076 58,190.076 l 0,0 c -0.251,0 -0.501,-0.104 -0.644,-0.313" /></g></g></g></g><g
       id="g224"><g
         clip-path="url(#clipPath228)"
         id="g226"><g
           id="g232"><g
             id="g234"><path
               id="path242"
               style="fill:url(#linearGradient236);stroke:none"
               d="m 54.744,164.075 c -0.572,0 -0.929,-0.521 -0.643,-0.937 l 0,0 3.256,-4.75 c 0.286,-0.416 1.001,-0.416 1.286,0 l 0,0 3.256,4.75 c 0.287,0.416 -0.071,0.937 -0.643,0.937 l 0,0 -6.512,0 z" /></g></g></g></g><g
       id="g244"><g
         clip-path="url(#clipPath248)"
         id="g246"><g
           id="g252"><g
             id="g254"><path
               id="path262"
               style="fill:url(#linearGradient256);stroke:none"
               d="m 118,168.076 c 0,-5.523 4.477,-10 10,-10 l 0,0 c 5.523,0 10,4.477 10,10 l 0,0 c 0,5.522 -4.477,10 -10,10 l 0,0 c -5.523,0 -10,-4.478 -10,-10" /></g></g></g></g><g
       id="g264"><g
         clip-path="url(#clipPath268)"
         id="g266"><g
           id="g272"><g
             id="g274"><path
               id="path282"
               style="fill:url(#linearGradient276);stroke:none"
               d="m 104,118.076 c 0,-13.255 10.745,-24.001 24,-24.001 l 0,0 c 13.255,0 24,10.746 24,24.001 l 0,0 c 0,13.255 -10.745,24 -24,24 l 0,0 c -13.255,0 -24,-10.745 -24,-24" /></g></g></g></g><g
       id="g284"><g
         clip-path="url(#clipPath288)"
         id="g286"><g
           id="g292"><g
             id="g294"><path
               id="path302"
               style="fill:url(#linearGradient296);stroke:none"
               d="M 115.272,130.803 110,118.076 l 5.272,-12.728 12.728,-5.272 12.728,5.272 5.272,12.728 -5.272,12.727 -12.728,5.273 -12.728,-5.273 z" /></g></g></g></g><g
       id="g304"><g
         clip-path="url(#clipPath308)"
         id="g306"><g
           transform="translate(140,118.0756)"
           id="g312"><path
             id="path314"
             style="fill:#999999;fill-opacity:1;fill-rule:nonzero;stroke:none"
             d="m 0,0 c 0,-6.627 -5.373,-12 -12,-12 -6.627,0 -12,5.373 -12,12 0,6.627 5.373,12 12,12 C -5.373,12 0,6.627 0,0" /></g><g
           transform="translate(136,168.0756)"
           id="g316"><path
             id="path318"
             style="fill:#999999;fill-opacity:1;fill-rule:nonzero;stroke:none"
             d="m 0,0 c 0,-4.418 -3.582,-8 -8,-8 -4.418,0 -8,3.582 -8,8 0,4.418 3.582,8 8,8 4.418,0 8,-3.582 8,-8" /></g></g></g><g
       id="g320"><g
         clip-path="url(#clipPath324)"
         id="g322"><g
           id="g328"><g
             id="g330"><path
               id="path338"
               style="fill:url(#linearGradient332);stroke:none"
               d="m 176,164.091 c 0,0 6.75,-8.717 8,-7.97 l 0,0 c 1.25,0.747 4,3.984 4,3.984 l 0,0 -8,7.971 -4,-3.985 z" /></g></g></g></g><g
       id="g340"><g
         clip-path="url(#clipPath344)"
         id="g342"><g
           transform="translate(184.5812,170.0756)"
           id="g348"><path
             id="path350"
             style="fill:#999999;fill-opacity:1;fill-rule:nonzero;stroke:none"
             d="m 0,0 c 0,-5.523 -4.477,-10 -10,-10 -5.523,0 -10,4.477 -10,10 0,5.523 4.477,10 10,10 C -4.477,10 0,5.523 0,0" /></g></g></g><g
       id="g352"><g
         clip-path="url(#clipPath356)"
         id="g354"><g
           id="g360"><g
             id="g362"><path
               id="path370"
               style="fill:url(#linearGradient364);stroke:none"
               d="m 188,182.075 c 0,-9.94 8.059,-18 18,-18 l 0,0 c 9.941,0 18,8.06 18,18 l 0,0 c 0,9.942 -8.059,18 -18,18 l 0,0 c -9.941,0 -18,-8.058 -18,-18" /></g></g></g></g><g
       id="g372"><g
         clip-path="url(#clipPath376)"
         id="g374"><g
           transform="translate(206,160.0756)"
           id="g380"><path
             id="path382"
             style="fill:#999999;fill-opacity:1;fill-rule:nonzero;stroke:none"
             d="m 0,0 c -4.418,0 -8,3.582 -8,8 0,4.418 3.582,8 8,8 C 4.418,16 8,12.418 8,8 8,3.582 4.418,0 0,0" /></g><g
           transform="translate(206,188.0756)"
           id="g384"><path
             id="path386"
             style="fill:#999999;fill-opacity:1;fill-rule:nonzero;stroke:none"
             d="m 0,0 c -4.418,0 -8,3.582 -8,8 0,4.418 3.582,8 8,8 C 4.418,16 8,12.418 8,8 8,3.582 4.418,0 0,0" /></g><g
           transform="translate(192,175.0756)"
           id="g388"><path
             id="path390"
             style="fill:#999999;fill-opacity:1;fill-rule:nonzero;stroke:none"
             d="m 0,0 c -4.418,0 -8,3.582 -8,8 0,4.418 3.582,8 8,8 C 4.418,16 8,12.418 8,8 8,3.582 4.418,0 0,0" /></g><g
           transform="translate(220,175.0756)"
           id="g392"><path
             id="path394"
             style="fill:#999999;fill-opacity:1;fill-rule:nonzero;stroke:none"
             d="m 0,0 c -4.418,0 -8,3.582 -8,8 0,4.418 3.582,8 8,8 C 4.418,16 8,12.418 8,8 8,3.582 4.418,0 0,0" /></g></g></g><g
       id="g396"><g
         clip-path="url(#clipPath400)"
         id="g398"><g
           id="g404"><g
             id="g406"><path
               id="path414"
               style="fill:url(#linearGradient408);stroke:none"
               d="m 80,221.647 12,-34.571 -8,44 -4,-9.429 z" /></g></g></g></g><g
       id="g416"><g
         clip-path="url(#clipPath420)"
         id="g418"><g
           id="g424"><g
             id="g426"><path
               id="path434"
               style="fill:url(#linearGradient428);stroke:none"
               d="m 164,187.076 12,34.571 -4,9.429 -8,-44 z" /></g></g></g></g><g
       id="g436"><g
         clip-path="url(#clipPath440)"
         id="g438"><g
           id="g444"><g
             id="g446"><path
               id="path454"
               style="fill:url(#linearGradient448);stroke:none"
               d="m 88.02,234.222 c -2.056,-0.793 -4.395,-1.752 -3.998,-3.852 l 0,0 7.996,-42.37 71.964,0 7.995,42.37 c 0,2.134 -1.941,3.059 -3.997,3.852 l 0,0 C 157.985,238.074 142.992,240 128,240 l 0,0 c -14.993,0 -29.985,-1.926 -39.98,-5.778" /></g></g></g></g><g
       id="g456"><g
         clip-path="url(#clipPath460)"
         id="g458"><g
           id="g464"><g
             id="g466"><path
               id="path474"
               style="fill:url(#linearGradient468);stroke:none"
               d="m 119,118.076 c 0,-4.963 4.037,-9 9,-9 l 0,0 c 4.962,0 9,4.037 9,9 l 0,0 c 0,4.962 -4.038,9 -9,9 l 0,0 c -4.963,0 -9,-4.038 -9,-9" /></g></g></g></g><g
       id="g476"><g
         clip-path="url(#clipPath480)"
         id="g478"><g
           id="g484"><g
             id="g486"><path
               id="path494"
               style="fill:url(#linearGradient488);stroke:none"
               d="m 120,118.076 c 0,-4.411 3.589,-8.001 8,-8.001 l 0,0 c 4.412,0 8,3.59 8,8.001 l 0,0 c 0,4.41 -3.588,8 -8,8 l 0,0 c -4.411,0 -8,-3.59 -8,-8" /></g></g></g></g><g
       id="g496"><g
         clip-path="url(#clipPath500)"
         id="g498"><g
           id="g504"><g
             id="g506"><path
               id="path514"
               style="fill:url(#linearGradient508);stroke:none"
               d="m 121,118.076 c 0,-3.861 3.14,-7.001 7,-7.001 l 0,0 c 3.86,0 7,3.14 7,7.001 l 0,0 c 0,3.86 -3.14,7 -7,7 l 0,0 c -3.86,0 -7,-3.14 -7,-7" /></g></g></g></g><g
       id="g516"><g
         clip-path="url(#clipPath520)"
         id="g518"><g
           id="g524"><g
             id="g526"><path
               id="path534"
               style="fill:url(#linearGradient528);stroke:none"
               d="m 122,118.076 c 0,-3.309 2.691,-6.001 6,-6.001 l 0,0 c 3.308,0 6,2.692 6,6.001 l 0,0 c 0,3.308 -2.692,6 -6,6 l 0,0 c -3.309,0 -6,-2.692 -6,-6" /></g></g></g></g><g
       id="g536"><g
         clip-path="url(#clipPath540)"
         id="g538"><g
           id="g544"><g
             id="g546"><path
               id="path554"
               style="fill:url(#linearGradient548);stroke:none"
               d="m 123,118.076 c 0,-2.757 2.243,-5 5,-5 l 0,0 c 2.757,0 5,2.243 5,5 l 0,0 c 0,2.756 -2.243,5 -5,5 l 0,0 c -2.757,0 -5,-2.244 -5,-5" /></g></g></g></g><g
       id="g556"><g
         clip-path="url(#clipPath560)"
         id="g558"><g
           id="g564"><g
             id="g566"><path
               id="path574"
               style="fill:url(#linearGradient568);stroke:none"
               d="m 124,118.076 c 0,-2.209 1.791,-4 4,-4 l 0,0 c 2.209,0 4,1.791 4,4 l 0,0 c 0,2.209 -1.791,4 -4,4 l 0,0 c -2.209,0 -4,-1.791 -4,-4" /></g></g></g></g><g
       id="g576"><g
         clip-path="url(#clipPath580)"
         id="g578"><g
           id="g584"><g
             id="g586"><path
               id="path594"
               style="fill:url(#linearGradient588);stroke:none"
               d="m 127,118.076 c 0,-0.553 0.448,-1 1,-1 l 0,0 c 0.552,0 1,0.447 1,1 l 0,0 c 0,0.552 -0.448,0.999 -1,0.999 l 0,0 c -0.552,0 -1,-0.447 -1,-0.999" /></g></g></g></g><g
       id="g596"><g
         clip-path="url(#clipPath600)"
         id="g598"><g
           transform="translate(200,152.0756)"
           id="g604"><path
             id="path606"
             style="fill:#999999;fill-opacity:1;fill-rule:nonzero;stroke:none"
             d="m 0,0 c 0,-5.523 -4.477,-10 -10,-10 -5.523,0 -10,4.477 -10,10 0,5.523 4.477,10 10,10 C -4.477,10 0,5.523 0,0" /></g></g></g></g></svg>