<?xml version="1.0" encoding="UTF-8" standalone="no"?>
<svg
   xmlns:dc="http://purl.org/dc/elements/1.1/"
   xmlns:cc="http://creativecommons.org/ns#"
   xmlns:rdf="http://www.w3.org/1999/02/22-rdf-syntax-ns#"
   xmlns:svg="http://www.w3.org/2000/svg"
   xmlns="http://www.w3.org/2000/svg"
   viewBox="0 0 320 320"
   height="320"
   width="320"
   xml:space="preserve"
   version="1.1"
   id="svg2"><metadata
     id="metadata8"><rdf:RDF><cc:Work
         rdf:about=""><dc:format>image/svg+xml</dc:format><dc:type
           rdf:resource="http://purl.org/dc/dcmitype/StillImage" /></cc:Work></rdf:RDF></metadata><defs
     id="defs6"><clipPath
       id="clipPath16"
       clipPathUnits="userSpaceOnUse"><path
         id="path18"
         d="M 16.834,176 C 14.164,176 12,173.851 12,171.2 l 0,0 0,-90.4 C 12,78.149 14.164,76 16.834,76 l 0,0 222.333,0 c 2.669,0 4.833,2.149 4.833,4.8 l 0,0 0,90.4 c 0,2.651 -2.164,4.8 -4.833,4.8 l 0,0 -222.333,0 z" /></clipPath><linearGradient
       id="linearGradient24"
       spreadMethod="pad"
       gradientTransform="matrix(163.17847,-163.17847,-163.17847,-163.17847,46.410767,207.58923)"
       gradientUnits="userSpaceOnUse"
       y2="0"
       x2="1"
       y1="0"
       x1="0"><stop
         id="stop26"
         offset="0"
         style="stop-opacity:1;stop-color:#e6e7e8" /><stop
         id="stop28"
         offset="1"
         style="stop-opacity:1;stop-color:#d1d3d4" /></linearGradient><clipPath
       id="clipPath36"
       clipPathUnits="userSpaceOnUse"><path
         id="path38"
         d="m 12,124 4.001,0 0,12 -4.001,0 0,-12 z" /></clipPath><linearGradient
       id="linearGradient44"
       spreadMethod="pad"
       gradientTransform="matrix(-7.9999995,7.9999995,7.9999995,7.9999995,18,126)"
       gradientUnits="userSpaceOnUse"
       y2="0"
       x2="1"
       y1="0"
       x1="0"><stop
         id="stop46"
         offset="0"
         style="stop-opacity:1;stop-color:#e6e7e8" /><stop
         id="stop48"
         offset="1"
         style="stop-opacity:1;stop-color:#d1d3d4" /></linearGradient><clipPath
       id="clipPath56"
       clipPathUnits="userSpaceOnUse"><path
         id="path58"
         d="m 24,164 c -2.209,0 -4,-1.791 -4,-4 l 0,0 0,-72 c 0,-2.209 1.791,-4 4,-4 l 0,0 84,0 124,0 c 2.209,0 4,1.791 4,4 l 0,0 0,40 c 0,2.209 -1.791,4 -4,4 l 0,0 -120,0 c -2.209,0 -4,1.791 -4,4 l 0,0 0,24 c 0,2.209 -1.791,4 -4,4 l 0,0 -80,0 z" /></clipPath><linearGradient
       id="linearGradient64"
       spreadMethod="pad"
       gradientTransform="matrix(-145.65685,145.65685,145.65685,145.65685,192.82843,43.171574)"
       gradientUnits="userSpaceOnUse"
       y2="0"
       x2="1"
       y1="0"
       x1="0"><stop
         id="stop66"
         offset="0"
         style="stop-opacity:1;stop-color:#e6e7e8" /><stop
         id="stop68"
         offset="1"
         style="stop-opacity:1;stop-color:#d1d3d4" /></linearGradient><clipPath
       id="clipPath76"
       clipPathUnits="userSpaceOnUse"><path
         id="path78"
         d="M 0,256 256,256 256,0 0,0 0,256 Z" /></clipPath><clipPath
       id="clipPath90"
       clipPathUnits="userSpaceOnUse"><path
         id="path92"
         d="M 100.933,120 C 95.999,120 92,115.818 92,110.66 l 0,0 0,-5.32 C 92,100.182 95.999,96 100.933,96 l 0,0 46.133,0 C 152,96 156,100.182 156,105.34 l 0,0 0,5.32 c 0,5.158 -4,9.34 -8.934,9.34 l 0,0 -46.133,0 z" /></clipPath><linearGradient
       id="linearGradient98"
       spreadMethod="pad"
       gradientTransform="matrix(38.650902,-38.650902,-38.650902,-38.650902,104.67455,127.32545)"
       gradientUnits="userSpaceOnUse"
       y2="0"
       x2="1"
       y1="0"
       x1="0"><stop
         id="stop100"
         offset="0"
         style="stop-opacity:1;stop-color:#e6e7e8" /><stop
         id="stop102"
         offset="1"
         style="stop-opacity:1;stop-color:#d1d3d4" /></linearGradient><clipPath
       id="clipPath110"
       clipPathUnits="userSpaceOnUse"><path
         id="path112"
         d="m 47.759,144 c -1.039,0 -1.881,-0.842 -1.881,-1.882 l 0,0 0,-11.996 -11.996,0 C 32.843,130.122 32,129.28 32,128.24 l 0,0 0,-16.481 c 0,-1.038 0.843,-1.882 1.882,-1.882 l 0,0 11.996,0 0,-11.995 C 45.878,96.843 46.72,96 47.759,96 l 0,0 16.481,0 c 1.04,0 1.882,0.843 1.882,1.882 l 0,0 0,11.995 11.996,0 c 1.04,0 1.882,0.844 1.882,1.882 l 0,0 0,16.481 c 0,1.04 -0.842,1.882 -1.882,1.882 l 0,0 -11.996,0 0,11.996 c 0,1.04 -0.842,1.882 -1.882,1.882 l 0,0 -16.481,0 z" /></clipPath><linearGradient
       id="linearGradient118"
       spreadMethod="pad"
       gradientTransform="matrix(33.019924,-33.019924,-33.019924,-33.019924,39.489891,136.50987)"
       gradientUnits="userSpaceOnUse"
       y2="0"
       x2="1"
       y1="0"
       x1="0"><stop
         id="stop120"
         offset="0"
         style="stop-opacity:1;stop-color:#e6e7e8" /><stop
         id="stop122"
         offset="1"
         style="stop-opacity:1;stop-color:#d1d3d4" /></linearGradient><clipPath
       id="clipPath130"
       clipPathUnits="userSpaceOnUse"><path
         id="path132"
         d="M 0,256 256,256 256,0 0,0 0,256 Z" /></clipPath><clipPath
       id="clipPath142"
       clipPathUnits="userSpaceOnUse"><path
         id="path144"
         d="m 169,108 c 0,-6.065 4.935,-11 11,-11 l 0,0 c 6.065,0 11,4.935 11,11 l 0,0 c 0,6.065 -4.935,11 -11,11 l 0,0 c -6.065,0 -11,-4.935 -11,-11" /></clipPath><linearGradient
       id="linearGradient150"
       spreadMethod="pad"
       gradientTransform="matrix(-15.549064,15.549064,15.549064,15.549064,187.77454,100.22547)"
       gradientUnits="userSpaceOnUse"
       y2="0"
       x2="1"
       y1="0"
       x1="0"><stop
         id="stop152"
         offset="0"
         style="stop-opacity:1;stop-color:#e6e7e8" /><stop
         id="stop154"
         offset="1"
         style="stop-opacity:1;stop-color:#d1d3d4" /></linearGradient><clipPath
       id="clipPath162"
       clipPathUnits="userSpaceOnUse"><path
         id="path164"
         d="M 0,256 256,256 256,0 0,0 0,256 Z" /></clipPath><clipPath
       id="clipPath174"
       clipPathUnits="userSpaceOnUse"><path
         id="path176"
         d="m 170,108 c 0,-5.522 4.478,-10 10,-10 l 0,0 c 5.522,0 10,4.478 10,10 l 0,0 c 0,5.522 -4.478,10 -10,10 l 0,0 c -5.522,0 -10,-4.478 -10,-10 m 2,0 c 0,4.411 3.589,8 8,8 l 0,0 c 4.411,0 8,-3.589 8,-8 l 0,0 c 0,-4.411 -3.589,-8 -8,-8 l 0,0 c -4.411,0 -8,3.589 -8,8" /></clipPath><linearGradient
       id="linearGradient182"
       spreadMethod="pad"
       gradientTransform="matrix(14.142,-14.142,-14.142,-14.142,172.929,115.07099)"
       gradientUnits="userSpaceOnUse"
       y2="0"
       x2="1"
       y1="0"
       x1="0"><stop
         id="stop184"
         offset="0"
         style="stop-opacity:1;stop-color:#e6e7e8" /><stop
         id="stop186"
         offset="1"
         style="stop-opacity:1;stop-color:#d1d3d4" /></linearGradient><clipPath
       id="clipPath194"
       clipPathUnits="userSpaceOnUse"><path
         id="path196"
         d="m 201,108 c 0,-6.065 4.934,-11 11,-11 l 0,0 c 6.065,0 11,4.935 11,11 l 0,0 c 0,6.065 -4.935,11 -11,11 l 0,0 c -6.066,0 -11,-4.935 -11,-11" /></clipPath><linearGradient
       id="linearGradient202"
       spreadMethod="pad"
       gradientTransform="matrix(-15.549064,15.549064,15.549064,15.549064,219.77454,100.22547)"
       gradientUnits="userSpaceOnUse"
       y2="0"
       x2="1"
       y1="0"
       x1="0"><stop
         id="stop204"
         offset="0"
         style="stop-opacity:1;stop-color:#e6e7e8" /><stop
         id="stop206"
         offset="1"
         style="stop-opacity:1;stop-color:#d1d3d4" /></linearGradient><clipPath
       id="clipPath214"
       clipPathUnits="userSpaceOnUse"><path
         id="path216"
         d="M 0,256 256,256 256,0 0,0 0,256 Z" /></clipPath><clipPath
       id="clipPath226"
       clipPathUnits="userSpaceOnUse"><path
         id="path228"
         d="m 202,108 c 0,-5.522 4.477,-10 10,-10 l 0,0 c 5.523,0 10,4.478 10,10 l 0,0 c 0,5.522 -4.477,10 -10,10 l 0,0 c -5.523,0 -10,-4.478 -10,-10 m 2,0 c 0,4.411 3.589,8 8,8 l 0,0 c 4.411,0 8,-3.589 8,-8 l 0,0 c 0,-4.411 -3.589,-8 -8,-8 l 0,0 c -4.411,0 -8,3.589 -8,8" /></clipPath><linearGradient
       id="linearGradient234"
       spreadMethod="pad"
       gradientTransform="matrix(14.142,-14.142,-14.142,-14.142,204.929,115.07099)"
       gradientUnits="userSpaceOnUse"
       y2="0"
       x2="1"
       y1="0"
       x1="0"><stop
         id="stop236"
         offset="0"
         style="stop-opacity:1;stop-color:#e6e7e8" /><stop
         id="stop238"
         offset="1"
         style="stop-opacity:1;stop-color:#d1d3d4" /></linearGradient><clipPath
       id="clipPath246"
       clipPathUnits="userSpaceOnUse"><path
         id="path248"
         d="M 0,256 256,256 256,0 0,0 0,256 Z" /></clipPath><clipPath
       id="clipPath262"
       clipPathUnits="userSpaceOnUse"><path
         id="path264"
         d="m 52,120 c 0,-2.21 1.791,-4 4,-4 l 0,0 c 2.209,0 4,1.79 4,4 l 0,0 c 0,2.209 -1.791,4 -4,4 l 0,0 c -2.209,0 -4,-1.791 -4,-4" /></clipPath><linearGradient
       id="linearGradient270"
       spreadMethod="pad"
       gradientTransform="matrix(5.6568851,-5.6568851,-5.6568851,-5.6568851,53.171722,122.82845)"
       gradientUnits="userSpaceOnUse"
       y2="0"
       x2="1"
       y1="0"
       x1="0"><stop
         id="stop272"
         offset="0"
         style="stop-opacity:1;stop-color:#e6e7e8" /><stop
         id="stop274"
         offset="1"
         style="stop-opacity:1;stop-color:#d1d3d4" /></linearGradient><clipPath
       id="clipPath282"
       clipPathUnits="userSpaceOnUse"><path
         id="path284"
         d="m 54.126,108 0,-3.248 -2.127,0 L 56,100 l 3.999,4.752 -1.923,0 0,3.248 -3.95,0 z" /></clipPath><linearGradient
       id="linearGradient290"
       spreadMethod="pad"
       gradientTransform="matrix(4.9367089,-4.9367089,-4.9367089,-4.9367089,53.581989,107.4557)"
       gradientUnits="userSpaceOnUse"
       y2="0"
       x2="1"
       y1="0"
       x1="0"><stop
         id="stop292"
         offset="0"
         style="stop-opacity:1;stop-color:#e6e7e8" /><stop
         id="stop294"
         offset="1"
         style="stop-opacity:1;stop-color:#d1d3d4" /></linearGradient><clipPath
       id="clipPath302"
       clipPathUnits="userSpaceOnUse"><path
         id="path304"
         d="m 51.999,135.248 1.925,0 0,-3.248 3.949,0 0,3.248 2.126,0 L 56,140 51.999,135.248 Z" /></clipPath><linearGradient
       id="linearGradient310"
       spreadMethod="pad"
       gradientTransform="matrix(4.9367089,-4.9367089,-4.9367089,-4.9367089,53.480724,137.48102)"
       gradientUnits="userSpaceOnUse"
       y2="0"
       x2="1"
       y1="0"
       x1="0"><stop
         id="stop312"
         offset="0"
         style="stop-opacity:1;stop-color:#e6e7e8" /><stop
         id="stop314"
         offset="1"
         style="stop-opacity:1;stop-color:#d1d3d4" /></linearGradient><clipPath
       id="clipPath322"
       clipPathUnits="userSpaceOnUse"><path
         id="path324"
         d="m 36,120.001 4.752,-4.001 0,1.924 3.248,0 0,3.95 -3.248,0 0,2.126 L 36,120.001 Z" /></clipPath><linearGradient
       id="linearGradient330"
       spreadMethod="pad"
       gradientTransform="matrix(5.0379744,-5.0379744,-5.0379744,-5.0379744,38.468353,122.46864)"
       gradientUnits="userSpaceOnUse"
       y2="0"
       x2="1"
       y1="0"
       x1="0"><stop
         id="stop332"
         offset="0"
         style="stop-opacity:1;stop-color:#e6e7e8" /><stop
         id="stop334"
         offset="1"
         style="stop-opacity:1;stop-color:#d1d3d4" /></linearGradient><clipPath
       id="clipPath342"
       clipPathUnits="userSpaceOnUse"><path
         id="path344"
         d="m 71.248,122.076 -3.249,0 0,-3.949 3.249,0 0,-2.127 4.752,4.001 -4.752,3.999 0,-1.924 z" /></clipPath><linearGradient
       id="linearGradient350"
       spreadMethod="pad"
       gradientTransform="matrix(5.0380759,-5.0380759,-5.0380759,-5.0380759,68.493523,122.56996)"
       gradientUnits="userSpaceOnUse"
       y2="0"
       x2="1"
       y1="0"
       x1="0"><stop
         id="stop352"
         offset="0"
         style="stop-opacity:1;stop-color:#e6e7e8" /><stop
         id="stop354"
         offset="1"
         style="stop-opacity:1;stop-color:#d1d3d4" /></linearGradient><clipPath
       id="clipPath362"
       clipPathUnits="userSpaceOnUse"><path
         id="path364"
         d="M 0,256 256,256 256,0 0,0 0,256 Z" /></clipPath></defs><g
     transform="matrix(1.25,0,0,-1.25,0,320)"
     id="g10"><g
       id="g12"><g
         clip-path="url(#clipPath16)"
         id="g14"><g
           id="g20"><g
             id="g22"><path
               id="path30"
               style="fill:url(#linearGradient24);stroke:none"
               d="M 16.834,176 C 14.164,176 12,173.851 12,171.2 l 0,0 0,-90.4 C 12,78.149 14.164,76 16.834,76 l 0,0 222.333,0 c 2.669,0 4.833,2.149 4.833,4.8 l 0,0 0,90.4 c 0,2.651 -2.164,4.8 -4.833,4.8 l 0,0 -222.333,0 z" /></g></g></g></g><g
       id="g32"><g
         clip-path="url(#clipPath36)"
         id="g34"><g
           id="g40"><g
             id="g42"><path
               id="path50"
               style="fill:url(#linearGradient44);stroke:none"
               d="m 12,124 4.001,0 0,12 -4.001,0 0,-12 z" /></g></g></g></g><g
       id="g52"><g
         clip-path="url(#clipPath56)"
         id="g54"><g
           id="g60"><g
             id="g62"><path
               id="path70"
               style="fill:url(#linearGradient64);stroke:none"
               d="m 24,164 c -2.209,0 -4,-1.791 -4,-4 l 0,0 0,-72 c 0,-2.209 1.791,-4 4,-4 l 0,0 84,0 124,0 c 2.209,0 4,1.791 4,4 l 0,0 0,40 c 0,2.209 -1.791,4 -4,4 l 0,0 -120,0 c -2.209,0 -4,1.791 -4,4 l 0,0 0,24 c 0,2.209 -1.791,4 -4,4 l 0,0 -80,0 z" /></g></g></g></g><g
       id="g72"><g
         clip-path="url(#clipPath76)"
         id="g74"><path
           id="path80"
           style="fill:#999999;fill-opacity:1;fill-rule:nonzero;stroke:none"
           d="m 236,104 -216,0 0,2 216,0 0,-2 z" /><path
           id="path82"
           style="fill:#999999;fill-opacity:1;fill-rule:nonzero;stroke:none"
           d="m 236,100 -216,0 0,2 216,0 0,-2 z" /><path
           id="path84"
           style="fill:#999999;fill-opacity:1;fill-rule:nonzero;stroke:none"
           d="m 40,144 -16,0 0,16 16,0 0,-16 z" /></g></g><g
       id="g86"><g
         clip-path="url(#clipPath90)"
         id="g88"><g
           id="g94"><g
             id="g96"><path
               id="path104"
               style="fill:url(#linearGradient98);stroke:none"
               d="M 100.933,120 C 95.999,120 92,115.818 92,110.66 l 0,0 0,-5.32 C 92,100.182 95.999,96 100.933,96 l 0,0 46.133,0 C 152,96 156,100.182 156,105.34 l 0,0 0,5.32 c 0,5.158 -4,9.34 -8.934,9.34 l 0,0 -46.133,0 z" /></g></g></g></g><g
       id="g106"><g
         clip-path="url(#clipPath110)"
         id="g108"><g
           id="g114"><g
             id="g116"><path
               id="path124"
               style="fill:url(#linearGradient118);stroke:none"
               d="m 47.759,144 c -1.039,0 -1.881,-0.842 -1.881,-1.882 l 0,0 0,-11.996 -11.996,0 C 32.843,130.122 32,129.28 32,128.24 l 0,0 0,-16.481 c 0,-1.038 0.843,-1.882 1.882,-1.882 l 0,0 11.996,0 0,-11.995 C 45.878,96.843 46.72,96 47.759,96 l 0,0 16.481,0 c 1.04,0 1.882,0.843 1.882,1.882 l 0,0 0,11.995 11.996,0 c 1.04,0 1.882,0.844 1.882,1.882 l 0,0 0,16.481 c 0,1.04 -0.842,1.882 -1.882,1.882 l 0,0 -11.996,0 0,11.996 c 0,1.04 -0.842,1.882 -1.882,1.882 l 0,0 -16.481,0 z" /></g></g></g></g><g
       id="g126"><g
         clip-path="url(#clipPath130)"
         id="g128"><g
           transform="translate(78,128.196)"
           id="g134"><path
             id="path136"
             style="fill:#999999;fill-opacity:1;fill-rule:nonzero;stroke:none"
             d="m 0,0 -13.804,0 0,13.804 -16.392,0 0,-13.804 -13.804,0 0,-16.392 13.804,0 0,-13.804 16.392,0 0,13.804 13.804,0 L 0,0 Z" /></g></g></g><g
       id="g138"><g
         clip-path="url(#clipPath142)"
         id="g140"><g
           id="g146"><g
             id="g148"><path
               id="path156"
               style="fill:url(#linearGradient150);stroke:none"
               d="m 169,108 c 0,-6.065 4.935,-11 11,-11 l 0,0 c 6.065,0 11,4.935 11,11 l 0,0 c 0,6.065 -4.935,11 -11,11 l 0,0 c -6.065,0 -11,-4.935 -11,-11" /></g></g></g></g><g
       id="g158"><g
         clip-path="url(#clipPath162)"
         id="g160"><g
           transform="translate(190,108)"
           id="g166"><path
             id="path168"
             style="fill:#999999;fill-opacity:1;fill-rule:nonzero;stroke:none"
             d="m 0,0 c 0,-5.523 -4.477,-10 -10,-10 -5.523,0 -10,4.477 -10,10 0,5.523 4.477,10 10,10 C -4.477,10 0,5.523 0,0" /></g></g></g><g
       id="g170"><g
         clip-path="url(#clipPath174)"
         id="g172"><g
           id="g178"><g
             id="g180"><path
               id="path188"
               style="fill:url(#linearGradient182);stroke:none"
               d="m 170,108 c 0,-5.522 4.478,-10 10,-10 l 0,0 c 5.522,0 10,4.478 10,10 l 0,0 c 0,5.522 -4.478,10 -10,10 l 0,0 c -5.522,0 -10,-4.478 -10,-10 m 2,0 c 0,4.411 3.589,8 8,8 l 0,0 c 4.411,0 8,-3.589 8,-8 l 0,0 c 0,-4.411 -3.589,-8 -8,-8 l 0,0 c -4.411,0 -8,3.589 -8,8" /></g></g></g></g><g
       id="g190"><g
         clip-path="url(#clipPath194)"
         id="g192"><g
           id="g198"><g
             id="g200"><path
               id="path208"
               style="fill:url(#linearGradient202);stroke:none"
               d="m 201,108 c 0,-6.065 4.934,-11 11,-11 l 0,0 c 6.065,0 11,4.935 11,11 l 0,0 c 0,6.065 -4.935,11 -11,11 l 0,0 c -6.066,0 -11,-4.935 -11,-11" /></g></g></g></g><g
       id="g210"><g
         clip-path="url(#clipPath214)"
         id="g212"><g
           transform="translate(222,108)"
           id="g218"><path
             id="path220"
             style="fill:#999999;fill-opacity:1;fill-rule:nonzero;stroke:none"
             d="m 0,0 c 0,-5.523 -4.477,-10 -10,-10 -5.523,0 -10,4.477 -10,10 0,5.523 4.477,10 10,10 C -4.477,10 0,5.523 0,0" /></g></g></g><g
       id="g222"><g
         clip-path="url(#clipPath226)"
         id="g224"><g
           id="g230"><g
             id="g232"><path
               id="path240"
               style="fill:url(#linearGradient234);stroke:none"
               d="m 202,108 c 0,-5.522 4.477,-10 10,-10 l 0,0 c 5.523,0 10,4.478 10,10 l 0,0 c 0,5.522 -4.477,10 -10,10 l 0,0 c -5.523,0 -10,-4.478 -10,-10 m 2,0 c 0,4.411 3.589,8 8,8 l 0,0 c 4.411,0 8,-3.589 8,-8 l 0,0 c 0,-4.411 -3.589,-8 -8,-8 l 0,0 c -4.411,0 -8,3.589 -8,8" /></g></g></g></g><g
       id="g242"><g
         clip-path="url(#clipPath246)"
         id="g244"><g
           transform="translate(120,108)"
           id="g250"><path
             id="path252"
             style="fill:#999999;fill-opacity:1;fill-rule:nonzero;stroke:none"
             d="m 0,0 c 0,-2.209 -1.78,-4 -3.976,-4 l -12.048,0 C -18.22,-4 -20,-2.209 -20,0 c 0,2.209 1.78,4 3.976,4 L -3.976,4 C -1.78,4 0,2.209 0,0" /></g><g
           transform="translate(148,108)"
           id="g254"><path
             id="path256"
             style="fill:#999999;fill-opacity:1;fill-rule:nonzero;stroke:none"
             d="m 0,0 c 0,-2.209 -1.78,-4 -3.976,-4 l -12.048,0 C -18.22,-4 -20,-2.209 -20,0 c 0,2.209 1.78,4 3.976,4 L -3.976,4 C -1.78,4 0,2.209 0,0" /></g></g></g><g
       id="g258"><g
         clip-path="url(#clipPath262)"
         id="g260"><g
           id="g266"><g
             id="g268"><path
               id="path276"
               style="fill:url(#linearGradient270);stroke:none"
               d="m 52,120 c 0,-2.21 1.791,-4 4,-4 l 0,0 c 2.209,0 4,1.79 4,4 l 0,0 c 0,2.209 -1.791,4 -4,4 l 0,0 c -2.209,0 -4,-1.791 -4,-4" /></g></g></g></g><g
       id="g278"><g
         clip-path="url(#clipPath282)"
         id="g280"><g
           id="g286"><g
             id="g288"><path
               id="path296"
               style="fill:url(#linearGradient290);stroke:none"
               d="m 54.126,108 0,-3.248 -2.127,0 L 56,100 l 3.999,4.752 -1.923,0 0,3.248 -3.95,0 z" /></g></g></g></g><g
       id="g298"><g
         clip-path="url(#clipPath302)"
         id="g300"><g
           id="g306"><g
             id="g308"><path
               id="path316"
               style="fill:url(#linearGradient310);stroke:none"
               d="m 51.999,135.248 1.925,0 0,-3.248 3.949,0 0,3.248 2.126,0 L 56,140 51.999,135.248 Z" /></g></g></g></g><g
       id="g318"><g
         clip-path="url(#clipPath322)"
         id="g320"><g
           id="g326"><g
             id="g328"><path
               id="path336"
               style="fill:url(#linearGradient330);stroke:none"
               d="m 36,120.001 4.752,-4.001 0,1.924 3.248,0 0,3.95 -3.248,0 0,2.126 L 36,120.001 Z" /></g></g></g></g><g
       id="g338"><g
         clip-path="url(#clipPath342)"
         id="g340"><g
           id="g346"><g
             id="g348"><path
               id="path356"
               style="fill:url(#linearGradient350);stroke:none"
               d="m 71.248,122.076 -3.249,0 0,-3.949 3.249,0 0,-2.127 4.752,4.001 -4.752,3.999 0,-1.924 z" /></g></g></g></g><g
       id="g358"><g
         clip-path="url(#clipPath362)"
         id="g360"><g
           transform="translate(182,122)"
           id="g366"><path
             id="path368"
             style="fill:#999999;fill-opacity:1;fill-rule:nonzero;stroke:none"
             d="m 0,0 -4,0 c -2.2,0 -4,1.8 -4,4 l 0,0 c 0,2.2 1.8,4 4,4 L 0,8 C 2.2,8 4,6.2 4,4 L 4,4 C 4,1.8 2.2,0 0,0" /></g><g
           transform="translate(214,122)"
           id="g370"><path
             id="path372"
             style="fill:#999999;fill-opacity:1;fill-rule:nonzero;stroke:none"
             d="m 0,0 -4,0 c -2.2,0 -4,1.8 -4,4 l 0,0 c 0,2.2 1.8,4 4,4 L 0,8 C 2.2,8 4,6.2 4,4 L 4,4 C 4,1.8 2.2,0 0,0" /></g></g></g></g></svg>