<?xml version="1.0" encoding="UTF-8" standalone="no"?>
<svg
   xmlns:dc="http://purl.org/dc/elements/1.1/"
   xmlns:cc="http://creativecommons.org/ns#"
   xmlns:rdf="http://www.w3.org/1999/02/22-rdf-syntax-ns#"
   xmlns:svg="http://www.w3.org/2000/svg"
   xmlns="http://www.w3.org/2000/svg"
   viewBox="0 0 320 320"
   height="320"
   width="320"
   xml:space="preserve"
   version="1.1"
   id="svg2"><metadata
     id="metadata8"><rdf:RDF><cc:Work
         rdf:about=""><dc:format>image/svg+xml</dc:format><dc:type
           rdf:resource="http://purl.org/dc/dcmitype/StillImage" /></cc:Work></rdf:RDF></metadata><defs
     id="defs6"><clipPath
       id="clipPath16"
       clipPathUnits="userSpaceOnUse"><path
         id="path18"
         d="M 12,179.351 12,52 l 232,0 0,127.351 C 206.714,195.784 167.357,204 128,204 l 0,0 C 88.643,204 49.285,195.784 12,179.351" /></clipPath><linearGradient
       id="linearGradient24"
       spreadMethod="pad"
       gradientTransform="matrix(179.67567,-179.67567,-179.67567,-179.67567,38.162163,205.51352)"
       gradientUnits="userSpaceOnUse"
       y2="0"
       x2="1"
       y1="0"
       x1="0"><stop
         id="stop26"
         offset="0"
         style="stop-opacity:1;stop-color:#e6e7e8" /><stop
         id="stop28"
         offset="1"
         style="stop-opacity:1;stop-color:#d1d3d4" /></linearGradient><clipPath
       id="clipPath36"
       clipPathUnits="userSpaceOnUse"><path
         id="path38"
         d="M 0,256 256,256 256,0 0,0 0,256 Z" /></clipPath><clipPath
       id="clipPath52"
       clipPathUnits="userSpaceOnUse"><path
         id="path54"
         d="m 60,51.857 2,0 0,144 -2,0 0,-144 z" /></clipPath><linearGradient
       id="linearGradient60"
       spreadMethod="pad"
       gradientTransform="matrix(-73,73,73,73,97.5,87.356972)"
       gradientUnits="userSpaceOnUse"
       y2="0"
       x2="1"
       y1="0"
       x1="0"><stop
         id="stop62"
         offset="0"
         style="stop-opacity:1;stop-color:#e6e7e8" /><stop
         id="stop64"
         offset="1"
         style="stop-opacity:1;stop-color:#d1d3d4" /></linearGradient><clipPath
       id="clipPath72"
       clipPathUnits="userSpaceOnUse"><path
         id="path74"
         d="m 194,52 2,0 0,144 -2,0 0,-144 z" /></clipPath><linearGradient
       id="linearGradient80"
       spreadMethod="pad"
       gradientTransform="matrix(-73,73,73,73,231.5,87.5)"
       gradientUnits="userSpaceOnUse"
       y2="0"
       x2="1"
       y1="0"
       x1="0"><stop
         id="stop82"
         offset="0"
         style="stop-opacity:1;stop-color:#e6e7e8" /><stop
         id="stop84"
         offset="1"
         style="stop-opacity:1;stop-color:#d1d3d4" /></linearGradient><clipPath
       id="clipPath92"
       clipPathUnits="userSpaceOnUse"><path
         id="path94"
         d="M 0,256 256,256 256,0 0,0 0,256 Z" /></clipPath></defs><g
     transform="matrix(1.25,0,0,-1.25,0,320)"
     id="g10"><g
       id="g12"><g
         clip-path="url(#clipPath16)"
         id="g14"><g
           id="g20"><g
             id="g22"><path
               id="path30"
               style="fill:url(#linearGradient24);stroke:none"
               d="M 12,179.351 12,52 l 232,0 0,127.351 C 206.714,195.784 167.357,204 128,204 l 0,0 C 88.643,204 49.285,195.784 12,179.351" /></g></g></g></g><g
       id="g32"><g
         clip-path="url(#clipPath36)"
         id="g34"><g
           transform="translate(128,194)"
           id="g40"><path
             id="path42"
             style="fill:#999999;fill-opacity:1;fill-rule:nonzero;stroke:none"
             d="M 0,0 C -15.943,0 -31.412,-1.057 -45.976,-3.142 -51.972,-4.001 -56,-8.142 -56,-13.447 l 0,-108.228 c 0,-5.693 4.624,-10.325 10.308,-10.325 l 91.384,0 c 5.684,0 10.308,4.632 10.308,10.325 l 0,108.228 C 56,-8.142 51.972,-4.001 45.976,-3.142 31.412,-1.057 15.943,0 0,0" /></g><g
           transform="translate(82.3077,188.8781)"
           id="g44"><path
             id="path46"
             style="fill:#ffffff;fill-opacity:1;fill-rule:nonzero;stroke:none"
             d="m 0,0 c 29.077,4.163 62.308,4.163 91.385,0 4.556,-0.652 8.307,-3.713 8.307,-8.325 l 0,-108.228 c 0,-4.612 -3.705,-8.325 -8.307,-8.325 l -91.385,0 c -4.602,0 -8.308,3.713 -8.308,8.325 l 0,108.228 c 0,4.612 3.752,7.673 8.308,8.325" /></g></g></g><g
       id="g48"><g
         clip-path="url(#clipPath52)"
         id="g50"><g
           id="g56"><g
             id="g58"><path
               id="path66"
               style="fill:url(#linearGradient60);stroke:none"
               d="m 60,51.857 2,0 0,144 -2,0 0,-144 z" /></g></g></g></g><g
       id="g68"><g
         clip-path="url(#clipPath72)"
         id="g70"><g
           id="g76"><g
             id="g78"><path
               id="path86"
               style="fill:url(#linearGradient80);stroke:none"
               d="m 194,52 2,0 0,144 -2,0 0,-144 z" /></g></g></g></g><g
       id="g88"><g
         clip-path="url(#clipPath92)"
         id="g90"><g
           transform="translate(244,100)"
           id="g96"><path
             id="path98"
             style="fill:#999999;fill-opacity:1;fill-rule:nonzero;stroke:none"
             d="M 0,0 -1.097,-0.736 -6.819,-4.574 C -10.015,-6.717 -12,-10.637 -12,-14.805 l 0,-33.195 2.133,0 0,33.195 c 0,3.353 1.574,6.461 4.145,8.185 L 0,-2.782 0,0 Z" /></g><g
           transform="translate(12,100)"
           id="g100"><path
             id="path102"
             style="fill:#999999;fill-opacity:1;fill-rule:nonzero;stroke:none"
             d="M 0,0 1.097,-0.736 6.819,-4.574 C 10.015,-6.717 12,-10.637 12,-14.805 L 12,-48 l -2.133,0 0,33.195 c 0,3.353 -1.574,6.461 -4.145,8.185 L 0,-2.782 0,0 Z" /></g></g></g></g></svg>