<?xml version="1.0" encoding="UTF-8" standalone="no"?>
<svg
   xmlns:dc="http://purl.org/dc/elements/1.1/"
   xmlns:cc="http://creativecommons.org/ns#"
   xmlns:rdf="http://www.w3.org/1999/02/22-rdf-syntax-ns#"
   xmlns:svg="http://www.w3.org/2000/svg"
   xmlns="http://www.w3.org/2000/svg"
   viewBox="0 0 320 320"
   height="320"
   width="320"
   xml:space="preserve"
   version="1.1"
   id="svg2"><metadata
     id="metadata8"><rdf:RDF><cc:Work
         rdf:about=""><dc:format>image/svg+xml</dc:format><dc:type
           rdf:resource="http://purl.org/dc/dcmitype/StillImage" /></cc:Work></rdf:RDF></metadata><defs
     id="defs6"><clipPath
       id="clipPath16"
       clipPathUnits="userSpaceOnUse"><path
         id="path18"
         d="m 26,244 c -1.104,0 -2,-0.896 -2,-2 l 0,0 0,-188 c 0,-1.104 0.896,-2 2,-2 l 0,0 6.653,0 -0.62,-37.967 C 32.015,12.916 32.916,12 34.033,12 l 0,0 L 218,12 c 1.105,0 2,0.895 2,2 l 0,0 0,38 10,0 c 1.105,0 2,0.896 2,2 l 0,0 0,188 c 0,1.104 -0.895,2 -2,2 l 0,0 -204,0 z" /></clipPath><linearGradient
       id="linearGradient24"
       spreadMethod="pad"
       gradientTransform="matrix(212.82843,-212.82843,-212.82843,-212.82843,20.594019,239.42244)"
       gradientUnits="userSpaceOnUse"
       y2="0"
       x2="1"
       y1="0"
       x1="0"><stop
         id="stop26"
         offset="0"
         style="stop-opacity:1;stop-color:#e6e7e8" /><stop
         id="stop28"
         offset="1"
         style="stop-opacity:1;stop-color:#d1d3d4" /></linearGradient><clipPath
       id="clipPath36"
       clipPathUnits="userSpaceOnUse"><path
         id="path38"
         d="M 0,256 256,256 256,0 0,0 0,256 Z" /></clipPath><clipPath
       id="clipPath46"
       clipPathUnits="userSpaceOnUse"><path
         id="path48"
         d="m 56,40 44,0 0,4.001 -44,0 L 56,40 Z" /></clipPath><linearGradient
       id="linearGradient54"
       spreadMethod="pad"
       gradientTransform="matrix(23.999998,-23.999998,-23.999998,-23.999998,66,54)"
       gradientUnits="userSpaceOnUse"
       y2="0"
       x2="1"
       y1="0"
       x1="0"><stop
         id="stop56"
         offset="0"
         style="stop-opacity:1;stop-color:#e6e7e8" /><stop
         id="stop58"
         offset="1"
         style="stop-opacity:1;stop-color:#d1d3d4" /></linearGradient><clipPath
       id="clipPath66"
       clipPathUnits="userSpaceOnUse"><path
         id="path68"
         d="M 0,256 256,256 256,0 0,0 0,256 Z" /></clipPath><clipPath
       id="clipPath76"
       clipPathUnits="userSpaceOnUse"><path
         id="path78"
         d="m 56,48 44,0 0,4.001 -44,0 L 56,48 Z" /></clipPath><linearGradient
       id="linearGradient84"
       spreadMethod="pad"
       gradientTransform="matrix(23.999998,-23.999998,-23.999998,-23.999998,66,62)"
       gradientUnits="userSpaceOnUse"
       y2="0"
       x2="1"
       y1="0"
       x1="0"><stop
         id="stop86"
         offset="0"
         style="stop-opacity:1;stop-color:#e6e7e8" /><stop
         id="stop88"
         offset="1"
         style="stop-opacity:1;stop-color:#d1d3d4" /></linearGradient><clipPath
       id="clipPath96"
       clipPathUnits="userSpaceOnUse"><path
         id="path98"
         d="M 0,256 256,256 256,0 0,0 0,256 Z" /></clipPath><clipPath
       id="clipPath106"
       clipPathUnits="userSpaceOnUse"><path
         id="path108"
         d="m 56,56 44,0 0,4.001 -44,0 L 56,56 Z" /></clipPath><linearGradient
       id="linearGradient114"
       spreadMethod="pad"
       gradientTransform="matrix(23.999998,-23.999998,-23.999998,-23.999998,66,70)"
       gradientUnits="userSpaceOnUse"
       y2="0"
       x2="1"
       y1="0"
       x1="0"><stop
         id="stop116"
         offset="0"
         style="stop-opacity:1;stop-color:#e6e7e8" /><stop
         id="stop118"
         offset="1"
         style="stop-opacity:1;stop-color:#d1d3d4" /></linearGradient><clipPath
       id="clipPath126"
       clipPathUnits="userSpaceOnUse"><path
         id="path128"
         d="M 0,256 256,256 256,0 0,0 0,256 Z" /></clipPath><clipPath
       id="clipPath136"
       clipPathUnits="userSpaceOnUse"><path
         id="path138"
         d="m 56,64 44,0 0,4.001 -44,0 L 56,64 Z" /></clipPath><linearGradient
       id="linearGradient144"
       spreadMethod="pad"
       gradientTransform="matrix(23.999998,-23.999998,-23.999998,-23.999998,66,78)"
       gradientUnits="userSpaceOnUse"
       y2="0"
       x2="1"
       y1="0"
       x1="0"><stop
         id="stop146"
         offset="0"
         style="stop-opacity:1;stop-color:#e6e7e8" /><stop
         id="stop148"
         offset="1"
         style="stop-opacity:1;stop-color:#d1d3d4" /></linearGradient><clipPath
       id="clipPath156"
       clipPathUnits="userSpaceOnUse"><path
         id="path158"
         d="M 0,256 256,256 256,0 0,0 0,256 Z" /></clipPath><clipPath
       id="clipPath166"
       clipPathUnits="userSpaceOnUse"><path
         id="path168"
         d="m 56,72 44,0 0,4 -44,0 0,-4 z" /></clipPath><linearGradient
       id="linearGradient174"
       spreadMethod="pad"
       gradientTransform="matrix(23.999998,-23.999998,-23.999998,-23.999998,66,86)"
       gradientUnits="userSpaceOnUse"
       y2="0"
       x2="1"
       y1="0"
       x1="0"><stop
         id="stop176"
         offset="0"
         style="stop-opacity:1;stop-color:#e6e7e8" /><stop
         id="stop178"
         offset="1"
         style="stop-opacity:1;stop-color:#d1d3d4" /></linearGradient><clipPath
       id="clipPath186"
       clipPathUnits="userSpaceOnUse"><path
         id="path188"
         d="M 0,256 256,256 256,0 0,0 0,256 Z" /></clipPath><clipPath
       id="clipPath196"
       clipPathUnits="userSpaceOnUse"><path
         id="path198"
         d="m 56,80 44,0 0,4 -44,0 0,-4 z" /></clipPath><linearGradient
       id="linearGradient204"
       spreadMethod="pad"
       gradientTransform="matrix(23.999998,-23.999998,-23.999998,-23.999998,66,94)"
       gradientUnits="userSpaceOnUse"
       y2="0"
       x2="1"
       y1="0"
       x1="0"><stop
         id="stop206"
         offset="0"
         style="stop-opacity:1;stop-color:#e6e7e8" /><stop
         id="stop208"
         offset="1"
         style="stop-opacity:1;stop-color:#d1d3d4" /></linearGradient><clipPath
       id="clipPath216"
       clipPathUnits="userSpaceOnUse"><path
         id="path218"
         d="M 0,256 256,256 256,0 0,0 0,256 Z" /></clipPath><clipPath
       id="clipPath226"
       clipPathUnits="userSpaceOnUse"><path
         id="path228"
         d="m 56,88 44,0 0,4 -44,0 0,-4 z" /></clipPath><linearGradient
       id="linearGradient234"
       spreadMethod="pad"
       gradientTransform="matrix(23.999998,-23.999998,-23.999998,-23.999998,66,102)"
       gradientUnits="userSpaceOnUse"
       y2="0"
       x2="1"
       y1="0"
       x1="0"><stop
         id="stop236"
         offset="0"
         style="stop-opacity:1;stop-color:#e6e7e8" /><stop
         id="stop238"
         offset="1"
         style="stop-opacity:1;stop-color:#d1d3d4" /></linearGradient><clipPath
       id="clipPath246"
       clipPathUnits="userSpaceOnUse"><path
         id="path248"
         d="M 0,256 256,256 256,0 0,0 0,256 Z" /></clipPath><clipPath
       id="clipPath256"
       clipPathUnits="userSpaceOnUse"><path
         id="path258"
         d="m 56,96 44,0 0,4 -44,0 0,-4 z" /></clipPath><linearGradient
       id="linearGradient264"
       spreadMethod="pad"
       gradientTransform="matrix(23.999998,-23.999998,-23.999998,-23.999998,66,110)"
       gradientUnits="userSpaceOnUse"
       y2="0"
       x2="1"
       y1="0"
       x1="0"><stop
         id="stop266"
         offset="0"
         style="stop-opacity:1;stop-color:#e6e7e8" /><stop
         id="stop268"
         offset="1"
         style="stop-opacity:1;stop-color:#d1d3d4" /></linearGradient><clipPath
       id="clipPath276"
       clipPathUnits="userSpaceOnUse"><path
         id="path278"
         d="M 0,256 256,256 256,0 0,0 0,256 Z" /></clipPath><clipPath
       id="clipPath286"
       clipPathUnits="userSpaceOnUse"><path
         id="path288"
         d="m 56,104 44,0 0,4 -44,0 0,-4 z" /></clipPath><linearGradient
       id="linearGradient294"
       spreadMethod="pad"
       gradientTransform="matrix(23.999998,-23.999998,-23.999998,-23.999998,66,118)"
       gradientUnits="userSpaceOnUse"
       y2="0"
       x2="1"
       y1="0"
       x1="0"><stop
         id="stop296"
         offset="0"
         style="stop-opacity:1;stop-color:#e6e7e8" /><stop
         id="stop298"
         offset="1"
         style="stop-opacity:1;stop-color:#d1d3d4" /></linearGradient><clipPath
       id="clipPath306"
       clipPathUnits="userSpaceOnUse"><path
         id="path308"
         d="M 0,256 256,256 256,0 0,0 0,256 Z" /></clipPath><clipPath
       id="clipPath316"
       clipPathUnits="userSpaceOnUse"><path
         id="path318"
         d="m 56,112 44,0 0,4.001 -44,0 0,-4.001 z" /></clipPath><linearGradient
       id="linearGradient324"
       spreadMethod="pad"
       gradientTransform="matrix(23.999998,-23.999998,-23.999998,-23.999998,66,126)"
       gradientUnits="userSpaceOnUse"
       y2="0"
       x2="1"
       y1="0"
       x1="0"><stop
         id="stop326"
         offset="0"
         style="stop-opacity:1;stop-color:#e6e7e8" /><stop
         id="stop328"
         offset="1"
         style="stop-opacity:1;stop-color:#d1d3d4" /></linearGradient><clipPath
       id="clipPath336"
       clipPathUnits="userSpaceOnUse"><path
         id="path338"
         d="M 0,256 256,256 256,0 0,0 0,256 Z" /></clipPath><clipPath
       id="clipPath346"
       clipPathUnits="userSpaceOnUse"><path
         id="path348"
         d="m 56,120 44,0 0,4.001 -44,0 0,-4.001 z" /></clipPath><linearGradient
       id="linearGradient354"
       spreadMethod="pad"
       gradientTransform="matrix(23.999998,-23.999998,-23.999998,-23.999998,66,134)"
       gradientUnits="userSpaceOnUse"
       y2="0"
       x2="1"
       y1="0"
       x1="0"><stop
         id="stop356"
         offset="0"
         style="stop-opacity:1;stop-color:#e6e7e8" /><stop
         id="stop358"
         offset="1"
         style="stop-opacity:1;stop-color:#d1d3d4" /></linearGradient><clipPath
       id="clipPath366"
       clipPathUnits="userSpaceOnUse"><path
         id="path368"
         d="M 0,256 256,256 256,0 0,0 0,256 Z" /></clipPath><clipPath
       id="clipPath376"
       clipPathUnits="userSpaceOnUse"><path
         id="path378"
         d="m 56,128 44,0 0,4 -44,0 0,-4 z" /></clipPath><linearGradient
       id="linearGradient384"
       spreadMethod="pad"
       gradientTransform="matrix(23.999998,-23.999998,-23.999998,-23.999998,66,142)"
       gradientUnits="userSpaceOnUse"
       y2="0"
       x2="1"
       y1="0"
       x1="0"><stop
         id="stop386"
         offset="0"
         style="stop-opacity:1;stop-color:#e6e7e8" /><stop
         id="stop388"
         offset="1"
         style="stop-opacity:1;stop-color:#d1d3d4" /></linearGradient><clipPath
       id="clipPath396"
       clipPathUnits="userSpaceOnUse"><path
         id="path398"
         d="M 0,256 256,256 256,0 0,0 0,256 Z" /></clipPath><clipPath
       id="clipPath406"
       clipPathUnits="userSpaceOnUse"><path
         id="path408"
         d="m 56,136 44,0 0,4.001 -44,0 0,-4.001 z" /></clipPath><linearGradient
       id="linearGradient414"
       spreadMethod="pad"
       gradientTransform="matrix(23.999998,-23.999998,-23.999998,-23.999998,66,150)"
       gradientUnits="userSpaceOnUse"
       y2="0"
       x2="1"
       y1="0"
       x1="0"><stop
         id="stop416"
         offset="0"
         style="stop-opacity:1;stop-color:#e6e7e8" /><stop
         id="stop418"
         offset="1"
         style="stop-opacity:1;stop-color:#d1d3d4" /></linearGradient><clipPath
       id="clipPath426"
       clipPathUnits="userSpaceOnUse"><path
         id="path428"
         d="M 0,256 256,256 256,0 0,0 0,256 Z" /></clipPath><clipPath
       id="clipPath436"
       clipPathUnits="userSpaceOnUse"><path
         id="path438"
         d="m 56,144 44,0 0,4 -44,0 0,-4 z" /></clipPath><linearGradient
       id="linearGradient444"
       spreadMethod="pad"
       gradientTransform="matrix(23.999998,-23.999998,-23.999998,-23.999998,66,158)"
       gradientUnits="userSpaceOnUse"
       y2="0"
       x2="1"
       y1="0"
       x1="0"><stop
         id="stop446"
         offset="0"
         style="stop-opacity:1;stop-color:#e6e7e8" /><stop
         id="stop448"
         offset="1"
         style="stop-opacity:1;stop-color:#d1d3d4" /></linearGradient><clipPath
       id="clipPath456"
       clipPathUnits="userSpaceOnUse"><path
         id="path458"
         d="M 0,256 256,256 256,0 0,0 0,256 Z" /></clipPath><clipPath
       id="clipPath466"
       clipPathUnits="userSpaceOnUse"><path
         id="path468"
         d="m 56,152 44,0 0,4 -44,0 0,-4 z" /></clipPath><linearGradient
       id="linearGradient474"
       spreadMethod="pad"
       gradientTransform="matrix(23.999998,-23.999998,-23.999998,-23.999998,66,166)"
       gradientUnits="userSpaceOnUse"
       y2="0"
       x2="1"
       y1="0"
       x1="0"><stop
         id="stop476"
         offset="0"
         style="stop-opacity:1;stop-color:#e6e7e8" /><stop
         id="stop478"
         offset="1"
         style="stop-opacity:1;stop-color:#d1d3d4" /></linearGradient><clipPath
       id="clipPath486"
       clipPathUnits="userSpaceOnUse"><path
         id="path488"
         d="M 0,256 256,256 256,0 0,0 0,256 Z" /></clipPath><clipPath
       id="clipPath496"
       clipPathUnits="userSpaceOnUse"><path
         id="path498"
         d="m 56,160 44,0 0,4 -44,0 0,-4 z" /></clipPath><linearGradient
       id="linearGradient504"
       spreadMethod="pad"
       gradientTransform="matrix(23.999998,-23.999998,-23.999998,-23.999998,66,174)"
       gradientUnits="userSpaceOnUse"
       y2="0"
       x2="1"
       y1="0"
       x1="0"><stop
         id="stop506"
         offset="0"
         style="stop-opacity:1;stop-color:#e6e7e8" /><stop
         id="stop508"
         offset="1"
         style="stop-opacity:1;stop-color:#d1d3d4" /></linearGradient><clipPath
       id="clipPath516"
       clipPathUnits="userSpaceOnUse"><path
         id="path518"
         d="M 0,256 256,256 256,0 0,0 0,256 Z" /></clipPath><clipPath
       id="clipPath526"
       clipPathUnits="userSpaceOnUse"><path
         id="path528"
         d="m 56,168 44,0 0,4 -44,0 0,-4 z" /></clipPath><linearGradient
       id="linearGradient534"
       spreadMethod="pad"
       gradientTransform="matrix(23.999998,-23.999998,-23.999998,-23.999998,66,182)"
       gradientUnits="userSpaceOnUse"
       y2="0"
       x2="1"
       y1="0"
       x1="0"><stop
         id="stop536"
         offset="0"
         style="stop-opacity:1;stop-color:#e6e7e8" /><stop
         id="stop538"
         offset="1"
         style="stop-opacity:1;stop-color:#d1d3d4" /></linearGradient><clipPath
       id="clipPath546"
       clipPathUnits="userSpaceOnUse"><path
         id="path548"
         d="M 0,256 256,256 256,0 0,0 0,256 Z" /></clipPath><clipPath
       id="clipPath556"
       clipPathUnits="userSpaceOnUse"><path
         id="path558"
         d="m 56,176 44,0 0,4 -44,0 0,-4 z" /></clipPath><linearGradient
       id="linearGradient564"
       spreadMethod="pad"
       gradientTransform="matrix(23.999998,-23.999998,-23.999998,-23.999998,66,190)"
       gradientUnits="userSpaceOnUse"
       y2="0"
       x2="1"
       y1="0"
       x1="0"><stop
         id="stop566"
         offset="0"
         style="stop-opacity:1;stop-color:#e6e7e8" /><stop
         id="stop568"
         offset="1"
         style="stop-opacity:1;stop-color:#d1d3d4" /></linearGradient><clipPath
       id="clipPath576"
       clipPathUnits="userSpaceOnUse"><path
         id="path578"
         d="M 0,256 256,256 256,0 0,0 0,256 Z" /></clipPath><clipPath
       id="clipPath586"
       clipPathUnits="userSpaceOnUse"><path
         id="path588"
         d="m 56,184 44,0 0,4 -44,0 0,-4 z" /></clipPath><linearGradient
       id="linearGradient594"
       spreadMethod="pad"
       gradientTransform="matrix(23.999998,-23.999998,-23.999998,-23.999998,66,198)"
       gradientUnits="userSpaceOnUse"
       y2="0"
       x2="1"
       y1="0"
       x1="0"><stop
         id="stop596"
         offset="0"
         style="stop-opacity:1;stop-color:#e6e7e8" /><stop
         id="stop598"
         offset="1"
         style="stop-opacity:1;stop-color:#d1d3d4" /></linearGradient><clipPath
       id="clipPath606"
       clipPathUnits="userSpaceOnUse"><path
         id="path608"
         d="M 0,256 256,256 256,0 0,0 0,256 Z" /></clipPath><clipPath
       id="clipPath616"
       clipPathUnits="userSpaceOnUse"><path
         id="path618"
         d="m 56,192 44,0 0,4.001 -44,0 0,-4.001 z" /></clipPath><linearGradient
       id="linearGradient624"
       spreadMethod="pad"
       gradientTransform="matrix(23.999998,-23.999998,-23.999998,-23.999998,66,206)"
       gradientUnits="userSpaceOnUse"
       y2="0"
       x2="1"
       y1="0"
       x1="0"><stop
         id="stop626"
         offset="0"
         style="stop-opacity:1;stop-color:#e6e7e8" /><stop
         id="stop628"
         offset="1"
         style="stop-opacity:1;stop-color:#d1d3d4" /></linearGradient><clipPath
       id="clipPath636"
       clipPathUnits="userSpaceOnUse"><path
         id="path638"
         d="M 0,256 256,256 256,0 0,0 0,256 Z" /></clipPath><clipPath
       id="clipPath646"
       clipPathUnits="userSpaceOnUse"><path
         id="path648"
         d="m 56,200 44,0 0,4 -44,0 0,-4 z" /></clipPath><linearGradient
       id="linearGradient654"
       spreadMethod="pad"
       gradientTransform="matrix(23.999998,-23.999998,-23.999998,-23.999998,66,214)"
       gradientUnits="userSpaceOnUse"
       y2="0"
       x2="1"
       y1="0"
       x1="0"><stop
         id="stop656"
         offset="0"
         style="stop-opacity:1;stop-color:#e6e7e8" /><stop
         id="stop658"
         offset="1"
         style="stop-opacity:1;stop-color:#d1d3d4" /></linearGradient><clipPath
       id="clipPath666"
       clipPathUnits="userSpaceOnUse"><path
         id="path668"
         d="M 0,256 256,256 256,0 0,0 0,256 Z" /></clipPath><clipPath
       id="clipPath694"
       clipPathUnits="userSpaceOnUse"><path
         id="path696"
         d="m 56,12 44,0 0,24.331 -44,0 L 56,12 Z" /></clipPath><linearGradient
       id="linearGradient702"
       spreadMethod="pad"
       gradientTransform="matrix(34.164936,-34.164936,-34.164936,-34.164936,60.91753,41.247406)"
       gradientUnits="userSpaceOnUse"
       y2="0"
       x2="1"
       y1="0"
       x1="0"><stop
         id="stop704"
         offset="0"
         style="stop-opacity:1;stop-color:#e6e7e8" /><stop
         id="stop706"
         offset="1"
         style="stop-opacity:1;stop-color:#d1d3d4" /></linearGradient><clipPath
       id="clipPath714"
       clipPathUnits="userSpaceOnUse"><path
         id="path716"
         d="M 0,256 256,256 256,0 0,0 0,256 Z" /></clipPath><clipPath
       id="clipPath726"
       clipPathUnits="userSpaceOnUse"><path
         id="path728"
         d="m 212,240 12,0 0,4 -12,0 0,-4 z" /></clipPath><linearGradient
       id="linearGradient734"
       spreadMethod="pad"
       gradientTransform="matrix(-7.9999995,7.9999995,7.9999995,7.9999995,222,238)"
       gradientUnits="userSpaceOnUse"
       y2="0"
       x2="1"
       y1="0"
       x1="0"><stop
         id="stop736"
         offset="0"
         style="stop-opacity:1;stop-color:#e6e7e8" /><stop
         id="stop738"
         offset="1"
         style="stop-opacity:1;stop-color:#d1d3d4" /></linearGradient><clipPath
       id="clipPath746"
       clipPathUnits="userSpaceOnUse"><path
         id="path748"
         d="m 32,240 12,0 0,4 -12,0 0,-4 z" /></clipPath><linearGradient
       id="linearGradient754"
       spreadMethod="pad"
       gradientTransform="matrix(-7.9999995,7.9999995,7.9999995,7.9999995,42,238)"
       gradientUnits="userSpaceOnUse"
       y2="0"
       x2="1"
       y1="0"
       x1="0"><stop
         id="stop756"
         offset="0"
         style="stop-opacity:1;stop-color:#e6e7e8" /><stop
         id="stop758"
         offset="1"
         style="stop-opacity:1;stop-color:#d1d3d4" /></linearGradient><clipPath
       id="clipPath766"
       clipPathUnits="userSpaceOnUse"><path
         id="path768"
         d="m 118,72 10,-16 10,16 -20,0 z" /></clipPath><linearGradient
       id="linearGradient774"
       spreadMethod="pad"
       gradientTransform="matrix(-13,13,13,13,134.5,62.5)"
       gradientUnits="userSpaceOnUse"
       y2="0"
       x2="1"
       y1="0"
       x1="0"><stop
         id="stop776"
         offset="0"
         style="stop-opacity:1;stop-color:#e6e7e8" /><stop
         id="stop778"
         offset="1"
         style="stop-opacity:1;stop-color:#d1d3d4" /></linearGradient><clipPath
       id="clipPath786"
       clipPathUnits="userSpaceOnUse"><path
         id="path788"
         d="M 0,256 256,256 256,0 0,0 0,256 Z" /></clipPath></defs><g
     transform="matrix(1.25,0,0,-1.25,0,320)"
     id="g10"><g
       id="g12"><g
         clip-path="url(#clipPath16)"
         id="g14"><g
           id="g20"><g
             id="g22"><path
               id="path30"
               style="fill:url(#linearGradient24);stroke:none"
               d="m 26,244 c -1.104,0 -2,-0.896 -2,-2 l 0,0 0,-188 c 0,-1.104 0.896,-2 2,-2 l 0,0 6.653,0 -0.62,-37.967 C 32.015,12.916 32.916,12 34.033,12 l 0,0 L 218,12 c 1.105,0 2,0.895 2,2 l 0,0 0,38 10,0 c 1.105,0 2,0.896 2,2 l 0,0 0,188 c 0,1.104 -0.895,2 -2,2 l 0,0 -204,0 z" /></g></g></g></g><g
       id="g32"><g
         clip-path="url(#clipPath36)"
         id="g34"><path
           id="path40"
           style="fill:#999999;fill-opacity:1;fill-rule:nonzero;stroke:none"
           d="m 100,36 -44,0 0,4 44,0 0,-4 z" /></g></g><g
       id="g42"><g
         clip-path="url(#clipPath46)"
         id="g44"><g
           id="g50"><g
             id="g52"><path
               id="path60"
               style="fill:url(#linearGradient54);stroke:none"
               d="m 56,40 44,0 0,4.001 -44,0 L 56,40 Z" /></g></g></g></g><g
       id="g62"><g
         clip-path="url(#clipPath66)"
         id="g64"><path
           id="path70"
           style="fill:#999999;fill-opacity:1;fill-rule:nonzero;stroke:none"
           d="m 100,44 -44,0 0,4 44,0 0,-4 z" /></g></g><g
       id="g72"><g
         clip-path="url(#clipPath76)"
         id="g74"><g
           id="g80"><g
             id="g82"><path
               id="path90"
               style="fill:url(#linearGradient84);stroke:none"
               d="m 56,48 44,0 0,4.001 -44,0 L 56,48 Z" /></g></g></g></g><g
       id="g92"><g
         clip-path="url(#clipPath96)"
         id="g94"><path
           id="path100"
           style="fill:#999999;fill-opacity:1;fill-rule:nonzero;stroke:none"
           d="m 100,52 -44,0 0,4 44,0 0,-4 z" /></g></g><g
       id="g102"><g
         clip-path="url(#clipPath106)"
         id="g104"><g
           id="g110"><g
             id="g112"><path
               id="path120"
               style="fill:url(#linearGradient114);stroke:none"
               d="m 56,56 44,0 0,4.001 -44,0 L 56,56 Z" /></g></g></g></g><g
       id="g122"><g
         clip-path="url(#clipPath126)"
         id="g124"><path
           id="path130"
           style="fill:#999999;fill-opacity:1;fill-rule:nonzero;stroke:none"
           d="m 100,60 -44,0 0,4 44,0 0,-4 z" /></g></g><g
       id="g132"><g
         clip-path="url(#clipPath136)"
         id="g134"><g
           id="g140"><g
             id="g142"><path
               id="path150"
               style="fill:url(#linearGradient144);stroke:none"
               d="m 56,64 44,0 0,4.001 -44,0 L 56,64 Z" /></g></g></g></g><g
       id="g152"><g
         clip-path="url(#clipPath156)"
         id="g154"><path
           id="path160"
           style="fill:#999999;fill-opacity:1;fill-rule:nonzero;stroke:none"
           d="m 100,68 -44,0 0,4 44,0 0,-4 z" /></g></g><g
       id="g162"><g
         clip-path="url(#clipPath166)"
         id="g164"><g
           id="g170"><g
             id="g172"><path
               id="path180"
               style="fill:url(#linearGradient174);stroke:none"
               d="m 56,72 44,0 0,4 -44,0 0,-4 z" /></g></g></g></g><g
       id="g182"><g
         clip-path="url(#clipPath186)"
         id="g184"><path
           id="path190"
           style="fill:#999999;fill-opacity:1;fill-rule:nonzero;stroke:none"
           d="m 100,76 -44,0 0,4 44,0 0,-4 z" /></g></g><g
       id="g192"><g
         clip-path="url(#clipPath196)"
         id="g194"><g
           id="g200"><g
             id="g202"><path
               id="path210"
               style="fill:url(#linearGradient204);stroke:none"
               d="m 56,80 44,0 0,4 -44,0 0,-4 z" /></g></g></g></g><g
       id="g212"><g
         clip-path="url(#clipPath216)"
         id="g214"><path
           id="path220"
           style="fill:#999999;fill-opacity:1;fill-rule:nonzero;stroke:none"
           d="m 100,84 -44,0 0,4 44,0 0,-4 z" /></g></g><g
       id="g222"><g
         clip-path="url(#clipPath226)"
         id="g224"><g
           id="g230"><g
             id="g232"><path
               id="path240"
               style="fill:url(#linearGradient234);stroke:none"
               d="m 56,88 44,0 0,4 -44,0 0,-4 z" /></g></g></g></g><g
       id="g242"><g
         clip-path="url(#clipPath246)"
         id="g244"><path
           id="path250"
           style="fill:#999999;fill-opacity:1;fill-rule:nonzero;stroke:none"
           d="m 100,92 -44,0 0,4 44,0 0,-4 z" /></g></g><g
       id="g252"><g
         clip-path="url(#clipPath256)"
         id="g254"><g
           id="g260"><g
             id="g262"><path
               id="path270"
               style="fill:url(#linearGradient264);stroke:none"
               d="m 56,96 44,0 0,4 -44,0 0,-4 z" /></g></g></g></g><g
       id="g272"><g
         clip-path="url(#clipPath276)"
         id="g274"><path
           id="path280"
           style="fill:#999999;fill-opacity:1;fill-rule:nonzero;stroke:none"
           d="m 100,100 -44,0 0,4 44,0 0,-4 z" /></g></g><g
       id="g282"><g
         clip-path="url(#clipPath286)"
         id="g284"><g
           id="g290"><g
             id="g292"><path
               id="path300"
               style="fill:url(#linearGradient294);stroke:none"
               d="m 56,104 44,0 0,4 -44,0 0,-4 z" /></g></g></g></g><g
       id="g302"><g
         clip-path="url(#clipPath306)"
         id="g304"><path
           id="path310"
           style="fill:#999999;fill-opacity:1;fill-rule:nonzero;stroke:none"
           d="m 100,108 -44,0 0,4 44,0 0,-4 z" /></g></g><g
       id="g312"><g
         clip-path="url(#clipPath316)"
         id="g314"><g
           id="g320"><g
             id="g322"><path
               id="path330"
               style="fill:url(#linearGradient324);stroke:none"
               d="m 56,112 44,0 0,4.001 -44,0 0,-4.001 z" /></g></g></g></g><g
       id="g332"><g
         clip-path="url(#clipPath336)"
         id="g334"><path
           id="path340"
           style="fill:#999999;fill-opacity:1;fill-rule:nonzero;stroke:none"
           d="m 100,116 -44,0 0,4 44,0 0,-4 z" /></g></g><g
       id="g342"><g
         clip-path="url(#clipPath346)"
         id="g344"><g
           id="g350"><g
             id="g352"><path
               id="path360"
               style="fill:url(#linearGradient354);stroke:none"
               d="m 56,120 44,0 0,4.001 -44,0 0,-4.001 z" /></g></g></g></g><g
       id="g362"><g
         clip-path="url(#clipPath366)"
         id="g364"><path
           id="path370"
           style="fill:#999999;fill-opacity:1;fill-rule:nonzero;stroke:none"
           d="m 100,124 -44,0 0,4 44,0 0,-4 z" /></g></g><g
       id="g372"><g
         clip-path="url(#clipPath376)"
         id="g374"><g
           id="g380"><g
             id="g382"><path
               id="path390"
               style="fill:url(#linearGradient384);stroke:none"
               d="m 56,128 44,0 0,4 -44,0 0,-4 z" /></g></g></g></g><g
       id="g392"><g
         clip-path="url(#clipPath396)"
         id="g394"><path
           id="path400"
           style="fill:#999999;fill-opacity:1;fill-rule:nonzero;stroke:none"
           d="m 100,132 -44,0 0,4 44,0 0,-4 z" /></g></g><g
       id="g402"><g
         clip-path="url(#clipPath406)"
         id="g404"><g
           id="g410"><g
             id="g412"><path
               id="path420"
               style="fill:url(#linearGradient414);stroke:none"
               d="m 56,136 44,0 0,4.001 -44,0 0,-4.001 z" /></g></g></g></g><g
       id="g422"><g
         clip-path="url(#clipPath426)"
         id="g424"><path
           id="path430"
           style="fill:#999999;fill-opacity:1;fill-rule:nonzero;stroke:none"
           d="m 100,140 -44,0 0,4 44,0 0,-4 z" /></g></g><g
       id="g432"><g
         clip-path="url(#clipPath436)"
         id="g434"><g
           id="g440"><g
             id="g442"><path
               id="path450"
               style="fill:url(#linearGradient444);stroke:none"
               d="m 56,144 44,0 0,4 -44,0 0,-4 z" /></g></g></g></g><g
       id="g452"><g
         clip-path="url(#clipPath456)"
         id="g454"><path
           id="path460"
           style="fill:#999999;fill-opacity:1;fill-rule:nonzero;stroke:none"
           d="m 100,148 -44,0 0,4 44,0 0,-4 z" /></g></g><g
       id="g462"><g
         clip-path="url(#clipPath466)"
         id="g464"><g
           id="g470"><g
             id="g472"><path
               id="path480"
               style="fill:url(#linearGradient474);stroke:none"
               d="m 56,152 44,0 0,4 -44,0 0,-4 z" /></g></g></g></g><g
       id="g482"><g
         clip-path="url(#clipPath486)"
         id="g484"><path
           id="path490"
           style="fill:#999999;fill-opacity:1;fill-rule:nonzero;stroke:none"
           d="m 100,156 -44,0 0,4 44,0 0,-4 z" /></g></g><g
       id="g492"><g
         clip-path="url(#clipPath496)"
         id="g494"><g
           id="g500"><g
             id="g502"><path
               id="path510"
               style="fill:url(#linearGradient504);stroke:none"
               d="m 56,160 44,0 0,4 -44,0 0,-4 z" /></g></g></g></g><g
       id="g512"><g
         clip-path="url(#clipPath516)"
         id="g514"><path
           id="path520"
           style="fill:#999999;fill-opacity:1;fill-rule:nonzero;stroke:none"
           d="m 100,164 -44,0 0,4 44,0 0,-4 z" /></g></g><g
       id="g522"><g
         clip-path="url(#clipPath526)"
         id="g524"><g
           id="g530"><g
             id="g532"><path
               id="path540"
               style="fill:url(#linearGradient534);stroke:none"
               d="m 56,168 44,0 0,4 -44,0 0,-4 z" /></g></g></g></g><g
       id="g542"><g
         clip-path="url(#clipPath546)"
         id="g544"><path
           id="path550"
           style="fill:#999999;fill-opacity:1;fill-rule:nonzero;stroke:none"
           d="m 100,172 -44,0 0,4 44,0 0,-4 z" /></g></g><g
       id="g552"><g
         clip-path="url(#clipPath556)"
         id="g554"><g
           id="g560"><g
             id="g562"><path
               id="path570"
               style="fill:url(#linearGradient564);stroke:none"
               d="m 56,176 44,0 0,4 -44,0 0,-4 z" /></g></g></g></g><g
       id="g572"><g
         clip-path="url(#clipPath576)"
         id="g574"><path
           id="path580"
           style="fill:#999999;fill-opacity:1;fill-rule:nonzero;stroke:none"
           d="m 100,180 -44,0 0,4 44,0 0,-4 z" /></g></g><g
       id="g582"><g
         clip-path="url(#clipPath586)"
         id="g584"><g
           id="g590"><g
             id="g592"><path
               id="path600"
               style="fill:url(#linearGradient594);stroke:none"
               d="m 56,184 44,0 0,4 -44,0 0,-4 z" /></g></g></g></g><g
       id="g602"><g
         clip-path="url(#clipPath606)"
         id="g604"><path
           id="path610"
           style="fill:#999999;fill-opacity:1;fill-rule:nonzero;stroke:none"
           d="m 100,188 -44,0 0,4 44,0 0,-4 z" /></g></g><g
       id="g612"><g
         clip-path="url(#clipPath616)"
         id="g614"><g
           id="g620"><g
             id="g622"><path
               id="path630"
               style="fill:url(#linearGradient624);stroke:none"
               d="m 56,192 44,0 0,4.001 -44,0 0,-4.001 z" /></g></g></g></g><g
       id="g632"><g
         clip-path="url(#clipPath636)"
         id="g634"><path
           id="path640"
           style="fill:#999999;fill-opacity:1;fill-rule:nonzero;stroke:none"
           d="m 100,196 -44,0 0,4 44,0 0,-4 z" /></g></g><g
       id="g642"><g
         clip-path="url(#clipPath646)"
         id="g644"><g
           id="g650"><g
             id="g652"><path
               id="path660"
               style="fill:url(#linearGradient654);stroke:none"
               d="m 56,200 44,0 0,4 -44,0 0,-4 z" /></g></g></g></g><g
       id="g662"><g
         clip-path="url(#clipPath666)"
         id="g664"><path
           id="path670"
           style="fill:#999999;fill-opacity:1;fill-rule:nonzero;stroke:none"
           d="m 100,204 -44,0 0,4 44,0 0,-4 z" /><path
           id="path672"
           style="fill:#b3b3b3;fill-opacity:1;fill-rule:nonzero;stroke:none"
           d="m 100,208 -44,0 0,4 44,0 0,-4 z" /><path
           id="path674"
           style="fill:#999999;fill-opacity:1;fill-rule:nonzero;stroke:none"
           d="m 100,212 -44,0 0,4 44,0 0,-4 z" /><path
           id="path676"
           style="fill:#b3b3b3;fill-opacity:1;fill-rule:nonzero;stroke:none"
           d="m 100,216 -44,0 0,4 44,0 0,-4 z" /><path
           id="path678"
           style="fill:#999999;fill-opacity:1;fill-rule:nonzero;stroke:none"
           d="m 100,220 -44,0 0,4 44,0 0,-4 z" /><path
           id="path680"
           style="fill:#b3b3b3;fill-opacity:1;fill-rule:nonzero;stroke:none"
           d="m 100,224 -44,0 0,4 44,0 0,-4 z" /><path
           id="path682"
           style="fill:#999999;fill-opacity:1;fill-rule:nonzero;stroke:none"
           d="m 100,228 -44,0 0,4 44,0 0,-4 z" /><path
           id="path684"
           style="fill:#b3b3b3;fill-opacity:1;fill-rule:nonzero;stroke:none"
           d="m 100,232 -44,0 0,4 44,0 0,-4 z" /><path
           id="path686"
           style="fill:#b3b3b3;fill-opacity:1;fill-rule:nonzero;stroke:none"
           d="m 100,240 -44,0 0,4 44,0 0,-4 z" /><path
           id="path688"
           style="fill:#999999;fill-opacity:1;fill-rule:nonzero;stroke:none"
           d="m 100,236 -44,0 0,4 44,0 0,-4 z" /></g></g><g
       id="g690"><g
         clip-path="url(#clipPath694)"
         id="g692"><g
           id="g698"><g
             id="g700"><path
               id="path708"
               style="fill:url(#linearGradient702);stroke:none"
               d="m 56,12 44,0 0,24.331 -44,0 L 56,12 Z" /></g></g></g></g><g
       id="g710"><g
         clip-path="url(#clipPath714)"
         id="g712"><g
           transform="translate(203,88)"
           id="g718"><path
             id="path720"
             style="fill:#999999;fill-opacity:1;fill-rule:nonzero;stroke:none"
             d="m 0,0 -94,0 c -0.552,0 -1,0.448 -1,1 l 0,155 96,0 L 1,1 C 1,0.448 0.552,0 0,0" /></g></g></g><g
       id="g722"><g
         clip-path="url(#clipPath726)"
         id="g724"><g
           id="g730"><g
             id="g732"><path
               id="path740"
               style="fill:url(#linearGradient734);stroke:none"
               d="m 212,240 12,0 0,4 -12,0 0,-4 z" /></g></g></g></g><g
       id="g742"><g
         clip-path="url(#clipPath746)"
         id="g744"><g
           id="g750"><g
             id="g752"><path
               id="path760"
               style="fill:url(#linearGradient754);stroke:none"
               d="m 32,240 12,0 0,4 -12,0 0,-4 z" /></g></g></g></g><g
       id="g762"><g
         clip-path="url(#clipPath766)"
         id="g764"><g
           id="g770"><g
             id="g772"><path
               id="path780"
               style="fill:url(#linearGradient774);stroke:none"
               d="m 118,72 10,-16 10,16 -20,0 z" /></g></g></g></g><g
       id="g782"><g
         clip-path="url(#clipPath786)"
         id="g784"><g
           transform="translate(112.5966,108.6178)"
           id="g790"><path
             id="path792"
             style="fill:#ffffff;fill-opacity:1;fill-rule:nonzero;stroke:none"
             d="M 0,0 17.608,0 26.529,30.598 0,25.79 0,0 Z m 18.061,-0.618 -18.669,0 0,26.924 0.25,0.046 27.75,5.03 -9.331,-32 z" /></g><g
           transform="translate(132.4079,115.0886)"
           id="g794"><path
             id="path796"
             style="fill:#ffffff;fill-opacity:1;fill-rule:nonzero;stroke:none"
             d="m 0,0 -20.116,0.118 0,-6.898 18.139,0 L 0,0 Z" /></g><g
           transform="translate(116,236)"
           id="g798"><path
             id="path800"
             style="fill:#ffffff;fill-opacity:1;fill-rule:nonzero;stroke:none"
             d="m 0,0 0,-79.063 c 16.536,3.632 80,16.512 80,16.512 L 80,0 0,0 Z" /></g></g></g></g></svg>