<?xml version="1.0" encoding="UTF-8" standalone="no"?>
<svg
   xmlns:dc="http://purl.org/dc/elements/1.1/"
   xmlns:cc="http://creativecommons.org/ns#"
   xmlns:rdf="http://www.w3.org/1999/02/22-rdf-syntax-ns#"
   xmlns:svg="http://www.w3.org/2000/svg"
   xmlns="http://www.w3.org/2000/svg"
   viewBox="0 0 320 320"
   height="320"
   width="320"
   xml:space="preserve"
   version="1.1"
   id="svg2"><metadata
     id="metadata8"><rdf:RDF><cc:Work
         rdf:about=""><dc:format>image/svg+xml</dc:format><dc:type
           rdf:resource="http://purl.org/dc/dcmitype/StillImage" /></cc:Work></rdf:RDF></metadata><defs
     id="defs6"><clipPath
       id="clipPath16"
       clipPathUnits="userSpaceOnUse"><path
         id="path18"
         d="m 224,240 -68,0 -4,4 -124,0 c -6.6,0 -12,-5.4 -12,-12 l 0,0 0,-208 c 0,-6.6 5.4,-12 12,-12 l 0,0 200,0 c 6.6,0 12,5.4 12,12 l 0,0 0,208 c 0,6.6 -5.4,12 -12,12 l 0,0 -4,-4 z" /></clipPath><linearGradient
       id="linearGradient24"
       spreadMethod="pad"
       gradientTransform="matrix(220.95,-220.95,-220.95,-220.95,17.525003,238.47501)"
       gradientUnits="userSpaceOnUse"
       y2="0"
       x2="1"
       y1="0"
       x1="0"><stop
         id="stop26"
         offset="0"
         style="stop-opacity:1;stop-color:#e6e7e8" /><stop
         id="stop28"
         offset="1"
         style="stop-opacity:1;stop-color:#d1d3d4" /></linearGradient><clipPath
       id="clipPath36"
       clipPathUnits="userSpaceOnUse"><path
         id="path38"
         d="m 128,244 -32,0 0,-44 c 0,-17.674 14.327,-32 32,-32 l 0,0 c 17.673,0 32,14.326 32,32 l 0,0 0,40 -4,0 -4,4 -24,0 z" /></clipPath><linearGradient
       id="linearGradient44"
       spreadMethod="pad"
       gradientTransform="matrix(60.627407,-60.627407,-60.627407,-60.627407,96.686295,244.68629)"
       gradientUnits="userSpaceOnUse"
       y2="0"
       x2="1"
       y1="0"
       x1="0"><stop
         id="stop46"
         offset="0"
         style="stop-opacity:1;stop-color:#e6e7e8" /><stop
         id="stop48"
         offset="1"
         style="stop-opacity:1;stop-color:#d1d3d4" /></linearGradient><clipPath
       id="clipPath56"
       clipPathUnits="userSpaceOnUse"><path
         id="path58"
         d="m 108,244 0,-40 c 0,-11.045 8.954,-20 20,-20 l 0,0 c 11.046,0 20,8.955 20,20 l 0,0 0,40 -40,0 z" /></clipPath><linearGradient
       id="linearGradient64"
       spreadMethod="pad"
       gradientTransform="matrix(-44.142132,44.142132,44.142132,44.142132,150.07106,197.7868)"
       gradientUnits="userSpaceOnUse"
       y2="0"
       x2="1"
       y1="0"
       x1="0"><stop
         id="stop66"
         offset="0"
         style="stop-opacity:1;stop-color:#e6e7e8" /><stop
         id="stop68"
         offset="1"
         style="stop-opacity:1;stop-color:#d1d3d4" /></linearGradient><clipPath
       id="clipPath76"
       clipPathUnits="userSpaceOnUse"><path
         id="path78"
         d="m 116,220 24,0 -12,8 -12,-8 z" /></clipPath><linearGradient
       id="linearGradient84"
       spreadMethod="pad"
       gradientTransform="matrix(11.999999,-11.999999,-11.999999,-11.999999,122,226)"
       gradientUnits="userSpaceOnUse"
       y2="0"
       x2="1"
       y1="0"
       x1="0"><stop
         id="stop86"
         offset="0"
         style="stop-opacity:1;stop-color:#e6e7e8" /><stop
         id="stop88"
         offset="1"
         style="stop-opacity:1;stop-color:#d1d3d4" /></linearGradient><clipPath
       id="clipPath96"
       clipPathUnits="userSpaceOnUse"><path
         id="path98"
         d="m 96,48 0,-28 64,0 0,28 c 0,17.673 -14.327,32 -32,32 l 0,0 C 110.327,80 96,65.673 96,48" /></clipPath><linearGradient
       id="linearGradient104"
       spreadMethod="pad"
       gradientTransform="matrix(52.627411,-52.627411,-52.627411,-52.627411,101.68629,66.941116)"
       gradientUnits="userSpaceOnUse"
       y2="0"
       x2="1"
       y1="0"
       x1="0"><stop
         id="stop106"
         offset="0"
         style="stop-opacity:1;stop-color:#e6e7e8" /><stop
         id="stop108"
         offset="1"
         style="stop-opacity:1;stop-color:#d1d3d4" /></linearGradient><clipPath
       id="clipPath116"
       clipPathUnits="userSpaceOnUse"><path
         id="path118"
         d="m 108,44 0,-24 40,0 0,24 c 0,11.046 -8.954,20 -20,20 l 0,0 c -11.046,0 -20,-8.954 -20,-20" /></clipPath><linearGradient
       id="linearGradient124"
       spreadMethod="pad"
       gradientTransform="matrix(-36.142132,36.142132,36.142132,36.142132,146.07106,18.071066)"
       gradientUnits="userSpaceOnUse"
       y2="0"
       x2="1"
       y1="0"
       x1="0"><stop
         id="stop126"
         offset="0"
         style="stop-opacity:1;stop-color:#e6e7e8" /><stop
         id="stop128"
         offset="1"
         style="stop-opacity:1;stop-color:#d1d3d4" /></linearGradient><clipPath
       id="clipPath136"
       clipPathUnits="userSpaceOnUse"><path
         id="path138"
         d="m 114,30 c 0,-1.105 0.896,-2 2,-2 l 0,0 c 1.104,0 2,0.895 2,2 l 0,0 c 0,1.105 -0.896,2 -2,2 l 0,0 c -1.104,0 -2,-0.895 -2,-2" /></clipPath><linearGradient
       id="linearGradient144"
       spreadMethod="pad"
       gradientTransform="matrix(-2.8284271,2.8284271,2.8284271,2.8284271,117.41422,28.585787)"
       gradientUnits="userSpaceOnUse"
       y2="0"
       x2="1"
       y1="0"
       x1="0"><stop
         id="stop146"
         offset="0"
         style="stop-opacity:1;stop-color:#e6e7e8" /><stop
         id="stop148"
         offset="1"
         style="stop-opacity:1;stop-color:#d1d3d4" /></linearGradient><clipPath
       id="clipPath156"
       clipPathUnits="userSpaceOnUse"><path
         id="path158"
         d="m 122,30 c 0,-1.105 0.895,-2 2,-2 l 0,0 c 1.105,0 2,0.895 2,2 l 0,0 c 0,1.105 -0.895,2 -2,2 l 0,0 c -1.105,0 -2,-0.895 -2,-2" /></clipPath><linearGradient
       id="linearGradient164"
       spreadMethod="pad"
       gradientTransform="matrix(-2.8284271,2.8284271,2.8284271,2.8284271,125.41422,28.585787)"
       gradientUnits="userSpaceOnUse"
       y2="0"
       x2="1"
       y1="0"
       x1="0"><stop
         id="stop166"
         offset="0"
         style="stop-opacity:1;stop-color:#e6e7e8" /><stop
         id="stop168"
         offset="1"
         style="stop-opacity:1;stop-color:#d1d3d4" /></linearGradient><clipPath
       id="clipPath176"
       clipPathUnits="userSpaceOnUse"><path
         id="path178"
         d="m 130,30 c 0,-1.105 0.895,-2 2,-2 l 0,0 c 1.105,0 2,0.895 2,2 l 0,0 c 0,1.105 -0.895,2 -2,2 l 0,0 c -1.105,0 -2,-0.895 -2,-2" /></clipPath><linearGradient
       id="linearGradient184"
       spreadMethod="pad"
       gradientTransform="matrix(-2.8284271,2.8284271,2.8284271,2.8284271,133.41422,28.585787)"
       gradientUnits="userSpaceOnUse"
       y2="0"
       x2="1"
       y1="0"
       x1="0"><stop
         id="stop186"
         offset="0"
         style="stop-opacity:1;stop-color:#e6e7e8" /><stop
         id="stop188"
         offset="1"
         style="stop-opacity:1;stop-color:#d1d3d4" /></linearGradient><clipPath
       id="clipPath196"
       clipPathUnits="userSpaceOnUse"><path
         id="path198"
         d="m 138,30 c 0,-1.105 0.895,-2 2,-2 l 0,0 c 1.105,0 2,0.895 2,2 l 0,0 c 0,1.105 -0.895,2 -2,2 l 0,0 c -1.105,0 -2,-0.895 -2,-2" /></clipPath><linearGradient
       id="linearGradient204"
       spreadMethod="pad"
       gradientTransform="matrix(-2.8284271,2.8284271,2.8284271,2.8284271,141.41422,28.585787)"
       gradientUnits="userSpaceOnUse"
       y2="0"
       x2="1"
       y1="0"
       x1="0"><stop
         id="stop206"
         offset="0"
         style="stop-opacity:1;stop-color:#e6e7e8" /><stop
         id="stop208"
         offset="1"
         style="stop-opacity:1;stop-color:#d1d3d4" /></linearGradient><clipPath
       id="clipPath216"
       clipPathUnits="userSpaceOnUse"><path
         id="path218"
         d="M 0,256 256,256 256,0 0,0 0,256 Z" /></clipPath><clipPath
       id="clipPath232"
       clipPathUnits="userSpaceOnUse"><path
         id="path234"
         d="m 36,20 16,0 0,224 -16,0 0,-224 z" /></clipPath><linearGradient
       id="linearGradient240"
       spreadMethod="pad"
       gradientTransform="matrix(-120,120,120,120,104,72)"
       gradientUnits="userSpaceOnUse"
       y2="0"
       x2="1"
       y1="0"
       x1="0"><stop
         id="stop242"
         offset="0"
         style="stop-opacity:1;stop-color:#e6e7e8" /><stop
         id="stop244"
         offset="1"
         style="stop-opacity:1;stop-color:#d1d3d4" /></linearGradient><clipPath
       id="clipPath252"
       clipPathUnits="userSpaceOnUse"><path
         id="path254"
         d="m 204,20 15.999,0 0,220.001 -15.999,0 L 204,20 Z" /></clipPath><linearGradient
       id="linearGradient260"
       spreadMethod="pad"
       gradientTransform="matrix(-117.99999,117.99999,117.99999,117.99999,271,71)"
       gradientUnits="userSpaceOnUse"
       y2="0"
       x2="1"
       y1="0"
       x1="0"><stop
         id="stop262"
         offset="0"
         style="stop-opacity:1;stop-color:#e6e7e8" /><stop
         id="stop264"
         offset="1"
         style="stop-opacity:1;stop-color:#d1d3d4" /></linearGradient><clipPath
       id="clipPath272"
       clipPathUnits="userSpaceOnUse"><path
         id="path274"
         d="M 0,256 256,256 256,0 0,0 0,256 Z" /></clipPath></defs><g
     transform="matrix(1.25,0,0,-1.25,0,320)"
     id="g10"><g
       id="g12"><g
         clip-path="url(#clipPath16)"
         id="g14"><g
           id="g20"><g
             id="g22"><path
               id="path30"
               style="fill:url(#linearGradient24);stroke:none"
               d="m 224,240 -68,0 -4,4 -124,0 c -6.6,0 -12,-5.4 -12,-12 l 0,0 0,-208 c 0,-6.6 5.4,-12 12,-12 l 0,0 200,0 c 6.6,0 12,5.4 12,12 l 0,0 0,208 c 0,6.6 -5.4,12 -12,12 l 0,0 -4,-4 z" /></g></g></g></g><g
       id="g32"><g
         clip-path="url(#clipPath36)"
         id="g34"><g
           id="g40"><g
             id="g42"><path
               id="path50"
               style="fill:url(#linearGradient44);stroke:none"
               d="m 128,244 -32,0 0,-44 c 0,-17.674 14.327,-32 32,-32 l 0,0 c 17.673,0 32,14.326 32,32 l 0,0 0,40 -4,0 -4,4 -24,0 z" /></g></g></g></g><g
       id="g52"><g
         clip-path="url(#clipPath56)"
         id="g54"><g
           id="g60"><g
             id="g62"><path
               id="path70"
               style="fill:url(#linearGradient64);stroke:none"
               d="m 108,244 0,-40 c 0,-11.045 8.954,-20 20,-20 l 0,0 c 11.046,0 20,8.955 20,20 l 0,0 0,40 -40,0 z" /></g></g></g></g><g
       id="g72"><g
         clip-path="url(#clipPath76)"
         id="g74"><g
           id="g80"><g
             id="g82"><path
               id="path90"
               style="fill:url(#linearGradient84);stroke:none"
               d="m 116,220 24,0 -12,8 -12,-8 z" /></g></g></g></g><g
       id="g92"><g
         clip-path="url(#clipPath96)"
         id="g94"><g
           id="g100"><g
             id="g102"><path
               id="path110"
               style="fill:url(#linearGradient104);stroke:none"
               d="m 96,48 0,-28 64,0 0,28 c 0,17.673 -14.327,32 -32,32 l 0,0 C 110.327,80 96,65.673 96,48" /></g></g></g></g><g
       id="g112"><g
         clip-path="url(#clipPath116)"
         id="g114"><g
           id="g120"><g
             id="g122"><path
               id="path130"
               style="fill:url(#linearGradient124);stroke:none"
               d="m 108,44 0,-24 40,0 0,24 c 0,11.046 -8.954,20 -20,20 l 0,0 c -11.046,0 -20,-8.954 -20,-20" /></g></g></g></g><g
       id="g132"><g
         clip-path="url(#clipPath136)"
         id="g134"><g
           id="g140"><g
             id="g142"><path
               id="path150"
               style="fill:url(#linearGradient144);stroke:none"
               d="m 114,30 c 0,-1.105 0.896,-2 2,-2 l 0,0 c 1.104,0 2,0.895 2,2 l 0,0 c 0,1.105 -0.896,2 -2,2 l 0,0 c -1.104,0 -2,-0.895 -2,-2" /></g></g></g></g><g
       id="g152"><g
         clip-path="url(#clipPath156)"
         id="g154"><g
           id="g160"><g
             id="g162"><path
               id="path170"
               style="fill:url(#linearGradient164);stroke:none"
               d="m 122,30 c 0,-1.105 0.895,-2 2,-2 l 0,0 c 1.105,0 2,0.895 2,2 l 0,0 c 0,1.105 -0.895,2 -2,2 l 0,0 c -1.105,0 -2,-0.895 -2,-2" /></g></g></g></g><g
       id="g172"><g
         clip-path="url(#clipPath176)"
         id="g174"><g
           id="g180"><g
             id="g182"><path
               id="path190"
               style="fill:url(#linearGradient184);stroke:none"
               d="m 130,30 c 0,-1.105 0.895,-2 2,-2 l 0,0 c 1.105,0 2,0.895 2,2 l 0,0 c 0,1.105 -0.895,2 -2,2 l 0,0 c -1.105,0 -2,-0.895 -2,-2" /></g></g></g></g><g
       id="g192"><g
         clip-path="url(#clipPath196)"
         id="g194"><g
           id="g200"><g
             id="g202"><path
               id="path210"
               style="fill:url(#linearGradient204);stroke:none"
               d="m 138,30 c 0,-1.105 0.895,-2 2,-2 l 0,0 c 1.105,0 2,0.895 2,2 l 0,0 c 0,1.105 -0.895,2 -2,2 l 0,0 c -1.105,0 -2,-0.895 -2,-2" /></g></g></g></g><g
       id="g212"><g
         clip-path="url(#clipPath216)"
         id="g214"><g
           transform="translate(126.5,163.9902)"
           id="g220"><path
             id="path222"
             style="fill:#999999;fill-opacity:1;fill-rule:nonzero;stroke:none"
             d="m 0,0 c -9.762,0 -19.611,-0.7 -29.274,-2.08 l -27.597,-4.153 -0.06,-0.009 -0.059,-0.013 c -5.511,-1.174 -9.51,-6.11 -9.51,-11.735 l 0,-52 c 0,-6.617 5.383,-12 12,-12 l 112,0 c 6.617,0 12,5.383 12,12 l 0,52 c 0,6.569 -5.306,11.922 -11.857,11.999 l -29.359,4.05 C 18.944,-0.653 9.428,0 0,0" /></g><g
           transform="translate(184,156)"
           id="g224"><path
             id="path226"
             style="fill:#ffffff;fill-opacity:1;fill-rule:nonzero;stroke:none"
             d="M 0,0 -29.489,4.067 C -48.404,6.676 -67.59,6.63 -86.491,3.93 l -27.583,-4.151 C -118.587,-1.183 -122,-5.211 -122,-10 l 0,-52 c 0,-5.5 4.5,-10 10,-10 l 112,0 c 5.5,0 10,4.5 10,10 l 0,52 C 10,-4.5 5.5,0 0,0" /></g></g></g><g
       id="g228"><g
         clip-path="url(#clipPath232)"
         id="g230"><g
           id="g236"><g
             id="g238"><path
               id="path246"
               style="fill:url(#linearGradient240);stroke:none"
               d="m 36,20 16,0 0,224 -16,0 0,-224 z" /></g></g></g></g><g
       id="g248"><g
         clip-path="url(#clipPath252)"
         id="g250"><g
           id="g256"><g
             id="g258"><path
               id="path266"
               style="fill:url(#linearGradient260);stroke:none"
               d="m 204,20 15.999,0 0,220.001 -15.999,0 L 204,20 Z" /></g></g></g></g><g
       id="g268"><g
         clip-path="url(#clipPath272)"
         id="g270"><g
           transform="translate(108,20)"
           id="g276"><path
             id="path278"
             style="fill:#999999;fill-opacity:1;fill-rule:nonzero;stroke:none"
             d="M 0,0 -72,0 -56,4 -12,4 0,0 Z" /></g><g
           transform="translate(220,20)"
           id="g280"><path
             id="path282"
             style="fill:#999999;fill-opacity:1;fill-rule:nonzero;stroke:none"
             d="M 0,0 -72,0 -60,4 -16,4 0,0 Z" /></g></g></g></g></svg>