<?xml version="1.0" encoding="UTF-8" standalone="no"?>
<svg
   xmlns:dc="http://purl.org/dc/elements/1.1/"
   xmlns:cc="http://creativecommons.org/ns#"
   xmlns:rdf="http://www.w3.org/1999/02/22-rdf-syntax-ns#"
   xmlns:svg="http://www.w3.org/2000/svg"
   xmlns="http://www.w3.org/2000/svg"
   viewBox="0 0 320 320"
   height="320"
   width="320"
   xml:space="preserve"
   version="1.1"
   id="svg2"><metadata
     id="metadata8"><rdf:RDF><cc:Work
         rdf:about=""><dc:format>image/svg+xml</dc:format><dc:type
           rdf:resource="http://purl.org/dc/dcmitype/StillImage" /></cc:Work></rdf:RDF></metadata><defs
     id="defs6"><clipPath
       id="clipPath16"
       clipPathUnits="userSpaceOnUse"><path
         id="path18"
         d="m 105.216,243.386 c -2.524,0 -4.577,-1.973 -4.577,-4.398 l 0,0 0,-221.976 c 0,-2.425 2.053,-4.399 4.577,-4.399 l 0,0 45.566,0 c 2.525,0 4.578,1.974 4.578,4.399 l 0,0 0,221.976 c 0,2.425 -2.053,4.398 -4.578,4.398 l 0,0 -45.566,0 z" /></clipPath><linearGradient
       id="linearGradient24"
       spreadMethod="pad"
       gradientTransform="matrix(140.1163,-140.1163,-140.1163,-140.1163,57.941242,198.05817)"
       gradientUnits="userSpaceOnUse"
       y2="0"
       x2="1"
       y1="0"
       x1="0"><stop
         id="stop26"
         offset="0"
         style="stop-opacity:1;stop-color:#e6e7e8" /><stop
         id="stop28"
         offset="1"
         style="stop-opacity:1;stop-color:#d1d3d4" /></linearGradient><clipPath
       id="clipPath36"
       clipPathUnits="userSpaceOnUse"><path
         id="path38"
         d="M 105.217,244 C 102.34,244 100,241.751 100,238.987 l 0,0 0,-221.973 C 100,14.249 102.34,12 105.217,12 l 0,0 45.566,0 c 2.877,0 5.217,2.249 5.217,5.014 l 0,0 0,221.973 c 0,2.764 -2.34,5.013 -5.217,5.013 l 0,0 -45.566,0 z m -3.94,-226.986 0,221.973 c 0,2.088 1.767,3.785 3.94,3.785 l 0,0 45.566,0 c 2.173,0 3.94,-1.697 3.94,-3.785 l 0,0 0,-221.973 c 0,-2.089 -1.767,-3.787 -3.94,-3.787 l 0,0 -45.566,0 c -2.173,0 -3.94,1.698 -3.94,3.787" /></clipPath><linearGradient
       id="linearGradient44"
       spreadMethod="pad"
       gradientTransform="matrix(-141.00174,141.00174,141.00174,141.00174,198.50087,57.499126)"
       gradientUnits="userSpaceOnUse"
       y2="0"
       x2="1"
       y1="0"
       x1="0"><stop
         id="stop46"
         offset="0"
         style="stop-opacity:1;stop-color:#e6e7e8" /><stop
         id="stop48"
         offset="1"
         style="stop-opacity:1;stop-color:#d1d3d4" /></linearGradient><clipPath
       id="clipPath56"
       clipPathUnits="userSpaceOnUse"><path
         id="path58"
         d="m 104,234 c 0,-3.314 2.686,-6 6,-6 l 0,0 c 3.314,0 6,2.686 6,6 l 0,0 c 0,3.314 -2.686,6 -6,6 l 0,0 c -3.314,0 -6,-2.686 -6,-6" /></clipPath><linearGradient
       id="linearGradient64"
       spreadMethod="pad"
       gradientTransform="matrix(-8.4852438,8.4852438,8.4852438,8.4852438,114.24262,229.75737)"
       gradientUnits="userSpaceOnUse"
       y2="0"
       x2="1"
       y1="0"
       x1="0"><stop
         id="stop66"
         offset="0"
         style="stop-opacity:1;stop-color:#e6e7e8" /><stop
         id="stop68"
         offset="1"
         style="stop-opacity:1;stop-color:#d1d3d4" /></linearGradient><clipPath
       id="clipPath76"
       clipPathUnits="userSpaceOnUse"><path
         id="path78"
         d="m 106.024,234.071 c 0,-2.208 1.791,-3.999 4,-3.999 l 0,0 c 2.21,0 4,1.791 4,3.999 l 0,0 c 0,2.21 -1.79,4.001 -4,4.001 l 0,0 c -2.209,0 -4,-1.791 -4,-4.001" /></clipPath><linearGradient
       id="linearGradient84"
       spreadMethod="pad"
       gradientTransform="matrix(5.6569371,-5.6569371,-5.6569371,-5.6569371,107.19552,236.89986)"
       gradientUnits="userSpaceOnUse"
       y2="0"
       x2="1"
       y1="0"
       x1="0"><stop
         id="stop86"
         offset="0"
         style="stop-opacity:1;stop-color:#e6e7e8" /><stop
         id="stop88"
         offset="1"
         style="stop-opacity:1;stop-color:#d1d3d4" /></linearGradient><clipPath
       id="clipPath96"
       clipPathUnits="userSpaceOnUse"><path
         id="path98"
         d="m 123.197,224 c -0.712,0 -1.29,-0.578 -1.29,-1.29 l 0,0 0,-8.767 -8.617,0 c -0.713,0 -1.29,-0.577 -1.29,-1.29 l 0,0 0,-9.456 c 0,-0.713 0.577,-1.29 1.29,-1.29 l 0,0 8.617,0 0,-8.617 c 0,-0.713 0.578,-1.29 1.29,-1.29 l 0,0 9.606,0 c 0.713,0 1.291,0.577 1.291,1.29 l 0,0 0,8.617 8.615,0 c 0.713,0 1.291,0.577 1.291,1.29 l 0,0 0,9.456 c 0,0.713 -0.578,1.29 -1.291,1.29 l 0,0 -8.615,0 0,8.767 c 0,0.712 -0.578,1.29 -1.291,1.29 l 0,0 -9.606,0 z" /></clipPath><linearGradient
       id="linearGradient104"
       spreadMethod="pad"
       gradientTransform="matrix(-21.337614,21.337614,21.337614,21.337614,138.66881,197.33119)"
       gradientUnits="userSpaceOnUse"
       y2="0"
       x2="1"
       y1="0"
       x1="0"><stop
         id="stop106"
         offset="0"
         style="stop-opacity:1;stop-color:#e6e7e8" /><stop
         id="stop108"
         offset="1"
         style="stop-opacity:1;stop-color:#d1d3d4" /></linearGradient><clipPath
       id="clipPath116"
       clipPathUnits="userSpaceOnUse"><path
         id="path118"
         d="m 123.197,222.71 0,-10.057 -9.907,0 0,-9.456 9.907,0 0,-9.907 9.606,0 0,9.907 9.906,0 0,9.456 -9.906,0 0,10.057 -9.606,0 z" /></clipPath><linearGradient
       id="linearGradient124"
       spreadMethod="pad"
       gradientTransform="matrix(19.512672,-19.512672,-19.512672,-19.512672,118.24367,217.75633)"
       gradientUnits="userSpaceOnUse"
       y2="0"
       x2="1"
       y1="0"
       x1="0"><stop
         id="stop126"
         offset="0"
         style="stop-opacity:1;stop-color:#e6e7e8" /><stop
         id="stop128"
         offset="1"
         style="stop-opacity:1;stop-color:#d1d3d4" /></linearGradient><clipPath
       id="clipPath136"
       clipPathUnits="userSpaceOnUse"><path
         id="path138"
         d="m 118,170 c 0,-5.514 4.486,-10 10,-10 l 0,0 c 5.514,0 10,4.486 10,10 l 0,0 c 0,5.514 -4.486,10 -10,10 l 0,0 c -5.514,0 -10,-4.486 -10,-10" /></clipPath><linearGradient
       id="linearGradient144"
       spreadMethod="pad"
       gradientTransform="matrix(-14.135505,14.135505,14.135505,14.135505,135.06775,162.93225)"
       gradientUnits="userSpaceOnUse"
       y2="0"
       x2="1"
       y1="0"
       x1="0"><stop
         id="stop146"
         offset="0"
         style="stop-opacity:1;stop-color:#e6e7e8" /><stop
         id="stop148"
         offset="1"
         style="stop-opacity:1;stop-color:#d1d3d4" /></linearGradient><clipPath
       id="clipPath156"
       clipPathUnits="userSpaceOnUse"><path
         id="path158"
         d="m 108,134 c 0,-3.308 2.692,-6 6,-6 l 0,0 c 3.309,0 6,2.692 6,6 l 0,0 c 0,3.309 -2.691,6 -6,6 l 0,0 c -3.308,0 -6,-2.691 -6,-6" /></clipPath><linearGradient
       id="linearGradient164"
       spreadMethod="pad"
       gradientTransform="matrix(-8.4813099,8.4813099,8.4813099,8.4813099,118.24064,129.75934)"
       gradientUnits="userSpaceOnUse"
       y2="0"
       x2="1"
       y1="0"
       x1="0"><stop
         id="stop166"
         offset="0"
         style="stop-opacity:1;stop-color:#e6e7e8" /><stop
         id="stop168"
         offset="1"
         style="stop-opacity:1;stop-color:#d1d3d4" /></linearGradient><clipPath
       id="clipPath176"
       clipPathUnits="userSpaceOnUse"><path
         id="path178"
         d="m 110,134 c 0,-2.209 1.791,-4 4,-4 l 0,0 c 2.209,0 4,1.791 4,4 l 0,0 c 0,2.209 -1.791,4 -4,4 l 0,0 c -2.209,0 -4,-1.791 -4,-4" /></clipPath><linearGradient
       id="linearGradient184"
       spreadMethod="pad"
       gradientTransform="matrix(5.6567726,-5.6567726,-5.6567726,-5.6567726,111.17161,136.82838)"
       gradientUnits="userSpaceOnUse"
       y2="0"
       x2="1"
       y1="0"
       x1="0"><stop
         id="stop186"
         offset="0"
         style="stop-opacity:1;stop-color:#e6e7e8" /><stop
         id="stop188"
         offset="1"
         style="stop-opacity:1;stop-color:#d1d3d4" /></linearGradient><clipPath
       id="clipPath196"
       clipPathUnits="userSpaceOnUse"><path
         id="path198"
         d="m 136,134 c 0,-3.308 2.692,-6 6,-6 l 0,0 c 3.309,0 6,2.692 6,6 l 0,0 c 0,3.309 -2.691,6 -6,6 l 0,0 c -3.308,0 -6,-2.691 -6,-6" /></clipPath><linearGradient
       id="linearGradient204"
       spreadMethod="pad"
       gradientTransform="matrix(-8.4813099,8.4813099,8.4813099,8.4813099,146.24065,129.75934)"
       gradientUnits="userSpaceOnUse"
       y2="0"
       x2="1"
       y1="0"
       x1="0"><stop
         id="stop206"
         offset="0"
         style="stop-opacity:1;stop-color:#e6e7e8" /><stop
         id="stop208"
         offset="1"
         style="stop-opacity:1;stop-color:#d1d3d4" /></linearGradient><clipPath
       id="clipPath216"
       clipPathUnits="userSpaceOnUse"><path
         id="path218"
         d="m 138,134 c 0,-2.209 1.791,-4 4,-4 l 0,0 c 2.209,0 4,1.791 4,4 l 0,0 c 0,2.209 -1.791,4 -4,4 l 0,0 c -2.209,0 -4,-1.791 -4,-4" /></clipPath><linearGradient
       id="linearGradient224"
       spreadMethod="pad"
       gradientTransform="matrix(5.6567726,-5.6567726,-5.6567726,-5.6567726,139.17162,136.82838)"
       gradientUnits="userSpaceOnUse"
       y2="0"
       x2="1"
       y1="0"
       x1="0"><stop
         id="stop226"
         offset="0"
         style="stop-opacity:1;stop-color:#e6e7e8" /><stop
         id="stop228"
         offset="1"
         style="stop-opacity:1;stop-color:#d1d3d4" /></linearGradient><clipPath
       id="clipPath236"
       clipPathUnits="userSpaceOnUse"><path
         id="path238"
         d="m 122,134 c 0,-3.308 2.691,-6 6,-6 l 0,0 c 3.308,0 6,2.692 6,6 l 0,0 c 0,3.309 -2.692,6 -6,6 l 0,0 c -3.309,0 -6,-2.691 -6,-6" /></clipPath><linearGradient
       id="linearGradient244"
       spreadMethod="pad"
       gradientTransform="matrix(-8.4813099,8.4813099,8.4813099,8.4813099,132.24065,129.75934)"
       gradientUnits="userSpaceOnUse"
       y2="0"
       x2="1"
       y1="0"
       x1="0"><stop
         id="stop246"
         offset="0"
         style="stop-opacity:1;stop-color:#e6e7e8" /><stop
         id="stop248"
         offset="1"
         style="stop-opacity:1;stop-color:#d1d3d4" /></linearGradient><clipPath
       id="clipPath256"
       clipPathUnits="userSpaceOnUse"><path
         id="path258"
         d="m 124,134 c 0,-2.209 1.791,-4 4,-4 l 0,0 c 2.209,0 4,1.791 4,4 l 0,0 c 0,2.209 -1.791,4 -4,4 l 0,0 c -2.209,0 -4,-1.791 -4,-4" /></clipPath><linearGradient
       id="linearGradient264"
       spreadMethod="pad"
       gradientTransform="matrix(5.6567726,-5.6567726,-5.6567726,-5.6567726,125.17161,136.82838)"
       gradientUnits="userSpaceOnUse"
       y2="0"
       x2="1"
       y1="0"
       x1="0"><stop
         id="stop266"
         offset="0"
         style="stop-opacity:1;stop-color:#e6e7e8" /><stop
         id="stop268"
         offset="1"
         style="stop-opacity:1;stop-color:#d1d3d4" /></linearGradient><clipPath
       id="clipPath276"
       clipPathUnits="userSpaceOnUse"><path
         id="path278"
         d="M 0,256 256,256 256,0 0,0 0,256 Z" /></clipPath><clipPath
       id="clipPath356"
       clipPathUnits="userSpaceOnUse"><path
         id="path358"
         d="m 121,72 c 0,-3.86 3.141,-7 7,-7 l 0,0 c 3.86,0 7,3.14 7,7 l 0,0 c 0,3.86 -3.14,7 -7,7 l 0,0 c -3.859,0 -7,-3.14 -7,-7" /></clipPath><linearGradient
       id="linearGradient364"
       spreadMethod="pad"
       gradientTransform="matrix(-9.8948526,9.8948526,9.8948526,9.8948526,132.94743,67.052658)"
       gradientUnits="userSpaceOnUse"
       y2="0"
       x2="1"
       y1="0"
       x1="0"><stop
         id="stop366"
         offset="0"
         style="stop-opacity:1;stop-color:#e6e7e8" /><stop
         id="stop368"
         offset="1"
         style="stop-opacity:1;stop-color:#d1d3d4" /></linearGradient><clipPath
       id="clipPath376"
       clipPathUnits="userSpaceOnUse"><path
         id="path378"
         d="m 122,72 c 0,-3.314 2.686,-6 6,-6 l 0,0 c 3.314,0 6,2.686 6,6 l 0,0 c 0,3.314 -2.686,6 -6,6 l 0,0 c -3.314,0 -6,-2.686 -6,-6" /></clipPath><linearGradient
       id="linearGradient384"
       spreadMethod="pad"
       gradientTransform="matrix(8.4851894,-8.4851894,-8.4851894,-8.4851894,123.75741,76.24263)"
       gradientUnits="userSpaceOnUse"
       y2="0"
       x2="1"
       y1="0"
       x1="0"><stop
         id="stop386"
         offset="0"
         style="stop-opacity:1;stop-color:#e6e7e8" /><stop
         id="stop388"
         offset="1"
         style="stop-opacity:1;stop-color:#d1d3d4" /></linearGradient><clipPath
       id="clipPath396"
       clipPathUnits="userSpaceOnUse"><path
         id="path398"
         d="m 121,53 c 0,-3.86 3.141,-7 7,-7 l 0,0 c 3.86,0 7,3.14 7,7 l 0,0 c 0,3.86 -3.14,7 -7,7 l 0,0 c -3.859,0 -7,-3.14 -7,-7" /></clipPath><linearGradient
       id="linearGradient404"
       spreadMethod="pad"
       gradientTransform="matrix(-9.8948526,9.8948526,9.8948526,9.8948526,132.94743,48.052654)"
       gradientUnits="userSpaceOnUse"
       y2="0"
       x2="1"
       y1="0"
       x1="0"><stop
         id="stop406"
         offset="0"
         style="stop-opacity:1;stop-color:#e6e7e8" /><stop
         id="stop408"
         offset="1"
         style="stop-opacity:1;stop-color:#d1d3d4" /></linearGradient><clipPath
       id="clipPath416"
       clipPathUnits="userSpaceOnUse"><path
         id="path418"
         d="m 122,53 c 0,-3.314 2.686,-6 6,-6 l 0,0 c 3.314,0 6,2.686 6,6 l 0,0 c 0,3.314 -2.686,6 -6,6 l 0,0 c -3.314,0 -6,-2.686 -6,-6" /></clipPath><linearGradient
       id="linearGradient424"
       spreadMethod="pad"
       gradientTransform="matrix(8.4851894,-8.4851894,-8.4851894,-8.4851894,123.75741,57.24263)"
       gradientUnits="userSpaceOnUse"
       y2="0"
       x2="1"
       y1="0"
       x1="0"><stop
         id="stop426"
         offset="0"
         style="stop-opacity:1;stop-color:#e6e7e8" /><stop
         id="stop428"
         offset="1"
         style="stop-opacity:1;stop-color:#d1d3d4" /></linearGradient><clipPath
       id="clipPath436"
       clipPathUnits="userSpaceOnUse"><path
         id="path438"
         d="M 0,256 256,256 256,0 0,0 0,256 Z" /></clipPath><clipPath
       id="clipPath468"
       clipPathUnits="userSpaceOnUse"><path
         id="path470"
         d="m 120,170 c 0,-4.418 3.582,-8 8,-8 l 0,0 c 4.418,0 8,3.582 8,8 l 0,0 c 0,4.418 -3.582,8 -8,8 l 0,0 c -4.418,0 -8,-3.582 -8,-8" /></clipPath><linearGradient
       id="linearGradient476"
       spreadMethod="pad"
       gradientTransform="matrix(16,0,0,-16,120,170)"
       gradientUnits="userSpaceOnUse"
       y2="0"
       x2="1"
       y1="0"
       x1="0"><stop
         id="stop478"
         offset="0"
         style="stop-opacity:1;stop-color:#e6e7e8" /><stop
         id="stop480"
         offset="1"
         style="stop-opacity:1;stop-color:#d1d3d4" /></linearGradient></defs><g
     transform="matrix(1.25,0,0,-1.25,0,320)"
     id="g10"><g
       id="g12"><g
         clip-path="url(#clipPath16)"
         id="g14"><g
           id="g20"><g
             id="g22"><path
               id="path30"
               style="fill:url(#linearGradient24);stroke:none"
               d="m 105.216,243.386 c -2.524,0 -4.577,-1.973 -4.577,-4.398 l 0,0 0,-221.976 c 0,-2.425 2.053,-4.399 4.577,-4.399 l 0,0 45.566,0 c 2.525,0 4.578,1.974 4.578,4.399 l 0,0 0,221.976 c 0,2.425 -2.053,4.398 -4.578,4.398 l 0,0 -45.566,0 z" /></g></g></g></g><g
       id="g32"><g
         clip-path="url(#clipPath36)"
         id="g34"><g
           id="g40"><g
             id="g42"><path
               id="path50"
               style="fill:url(#linearGradient44);stroke:none"
               d="M 105.217,244 C 102.34,244 100,241.751 100,238.987 l 0,0 0,-221.973 C 100,14.249 102.34,12 105.217,12 l 0,0 45.566,0 c 2.877,0 5.217,2.249 5.217,5.014 l 0,0 0,221.973 c 0,2.764 -2.34,5.013 -5.217,5.013 l 0,0 -45.566,0 z m -3.94,-226.986 0,221.973 c 0,2.088 1.767,3.785 3.94,3.785 l 0,0 45.566,0 c 2.173,0 3.94,-1.697 3.94,-3.785 l 0,0 0,-221.973 c 0,-2.089 -1.767,-3.787 -3.94,-3.787 l 0,0 -45.566,0 c -2.173,0 -3.94,1.698 -3.94,3.787" /></g></g></g></g><g
       id="g52"><g
         clip-path="url(#clipPath56)"
         id="g54"><g
           id="g60"><g
             id="g62"><path
               id="path70"
               style="fill:url(#linearGradient64);stroke:none"
               d="m 104,234 c 0,-3.314 2.686,-6 6,-6 l 0,0 c 3.314,0 6,2.686 6,6 l 0,0 c 0,3.314 -2.686,6 -6,6 l 0,0 c -3.314,0 -6,-2.686 -6,-6" /></g></g></g></g><g
       id="g72"><g
         clip-path="url(#clipPath76)"
         id="g74"><g
           id="g80"><g
             id="g82"><path
               id="path90"
               style="fill:url(#linearGradient84);stroke:none"
               d="m 106.024,234.071 c 0,-2.208 1.791,-3.999 4,-3.999 l 0,0 c 2.21,0 4,1.791 4,3.999 l 0,0 c 0,2.21 -1.79,4.001 -4,4.001 l 0,0 c -2.209,0 -4,-1.791 -4,-4.001" /></g></g></g></g><g
       id="g92"><g
         clip-path="url(#clipPath96)"
         id="g94"><g
           id="g100"><g
             id="g102"><path
               id="path110"
               style="fill:url(#linearGradient104);stroke:none"
               d="m 123.197,224 c -0.712,0 -1.29,-0.578 -1.29,-1.29 l 0,0 0,-8.767 -8.617,0 c -0.713,0 -1.29,-0.577 -1.29,-1.29 l 0,0 0,-9.456 c 0,-0.713 0.577,-1.29 1.29,-1.29 l 0,0 8.617,0 0,-8.617 c 0,-0.713 0.578,-1.29 1.29,-1.29 l 0,0 9.606,0 c 0.713,0 1.291,0.577 1.291,1.29 l 0,0 0,8.617 8.615,0 c 0.713,0 1.291,0.577 1.291,1.29 l 0,0 0,9.456 c 0,0.713 -0.578,1.29 -1.291,1.29 l 0,0 -8.615,0 0,8.767 c 0,0.712 -0.578,1.29 -1.291,1.29 l 0,0 -9.606,0 z" /></g></g></g></g><g
       id="g112"><g
         clip-path="url(#clipPath116)"
         id="g114"><g
           id="g120"><g
             id="g122"><path
               id="path130"
               style="fill:url(#linearGradient124);stroke:none"
               d="m 123.197,222.71 0,-10.057 -9.907,0 0,-9.456 9.907,0 0,-9.907 9.606,0 0,9.907 9.906,0 0,9.456 -9.906,0 0,10.057 -9.606,0 z" /></g></g></g></g><g
       id="g132"><g
         clip-path="url(#clipPath136)"
         id="g134"><g
           id="g140"><g
             id="g142"><path
               id="path150"
               style="fill:url(#linearGradient144);stroke:none"
               d="m 118,170 c 0,-5.514 4.486,-10 10,-10 l 0,0 c 5.514,0 10,4.486 10,10 l 0,0 c 0,5.514 -4.486,10 -10,10 l 0,0 c -5.514,0 -10,-4.486 -10,-10" /></g></g></g></g><g
       id="g152"><g
         clip-path="url(#clipPath156)"
         id="g154"><g
           id="g160"><g
             id="g162"><path
               id="path170"
               style="fill:url(#linearGradient164);stroke:none"
               d="m 108,134 c 0,-3.308 2.692,-6 6,-6 l 0,0 c 3.309,0 6,2.692 6,6 l 0,0 c 0,3.309 -2.691,6 -6,6 l 0,0 c -3.308,0 -6,-2.691 -6,-6" /></g></g></g></g><g
       id="g172"><g
         clip-path="url(#clipPath176)"
         id="g174"><g
           id="g180"><g
             id="g182"><path
               id="path190"
               style="fill:url(#linearGradient184);stroke:none"
               d="m 110,134 c 0,-2.209 1.791,-4 4,-4 l 0,0 c 2.209,0 4,1.791 4,4 l 0,0 c 0,2.209 -1.791,4 -4,4 l 0,0 c -2.209,0 -4,-1.791 -4,-4" /></g></g></g></g><g
       id="g192"><g
         clip-path="url(#clipPath196)"
         id="g194"><g
           id="g200"><g
             id="g202"><path
               id="path210"
               style="fill:url(#linearGradient204);stroke:none"
               d="m 136,134 c 0,-3.308 2.692,-6 6,-6 l 0,0 c 3.309,0 6,2.692 6,6 l 0,0 c 0,3.309 -2.691,6 -6,6 l 0,0 c -3.308,0 -6,-2.691 -6,-6" /></g></g></g></g><g
       id="g212"><g
         clip-path="url(#clipPath216)"
         id="g214"><g
           id="g220"><g
             id="g222"><path
               id="path230"
               style="fill:url(#linearGradient224);stroke:none"
               d="m 138,134 c 0,-2.209 1.791,-4 4,-4 l 0,0 c 2.209,0 4,1.791 4,4 l 0,0 c 0,2.209 -1.791,4 -4,4 l 0,0 c -2.209,0 -4,-1.791 -4,-4" /></g></g></g></g><g
       id="g232"><g
         clip-path="url(#clipPath236)"
         id="g234"><g
           id="g240"><g
             id="g242"><path
               id="path250"
               style="fill:url(#linearGradient244);stroke:none"
               d="m 122,134 c 0,-3.308 2.691,-6 6,-6 l 0,0 c 3.308,0 6,2.692 6,6 l 0,0 c 0,3.309 -2.692,6 -6,6 l 0,0 c -3.309,0 -6,-2.691 -6,-6" /></g></g></g></g><g
       id="g252"><g
         clip-path="url(#clipPath256)"
         id="g254"><g
           id="g260"><g
             id="g262"><path
               id="path270"
               style="fill:url(#linearGradient264);stroke:none"
               d="m 124,134 c 0,-2.209 1.791,-4 4,-4 l 0,0 c 2.209,0 4,1.791 4,4 l 0,0 c 0,2.209 -1.791,4 -4,4 l 0,0 c -2.209,0 -4,-1.791 -4,-4" /></g></g></g></g><g
       id="g272"><g
         clip-path="url(#clipPath276)"
         id="g274"><g
           transform="translate(124.5,112.5001)"
           id="g280"><path
             id="path282"
             style="fill:#999999;fill-opacity:1;fill-rule:nonzero;stroke:none"
             d="M 0,0 C 0,-0.276 -0.224,-0.5 -0.5,-0.5 -0.776,-0.5 -1,-0.276 -1,0 -1,0.276 -0.776,0.5 -0.5,0.5 -0.224,0.5 0,0.276 0,0" /></g><g
           transform="translate(128.5,112.5001)"
           id="g284"><path
             id="path286"
             style="fill:#999999;fill-opacity:1;fill-rule:nonzero;stroke:none"
             d="M 0,0 C 0,-0.276 -0.224,-0.5 -0.5,-0.5 -0.776,-0.5 -1,-0.276 -1,0 -1,0.276 -0.776,0.5 -0.5,0.5 -0.224,0.5 0,0.276 0,0" /></g><g
           transform="translate(132.5,112.5001)"
           id="g288"><path
             id="path290"
             style="fill:#999999;fill-opacity:1;fill-rule:nonzero;stroke:none"
             d="M 0,0 C 0,-0.276 -0.224,-0.5 -0.5,-0.5 -0.776,-0.5 -1,-0.276 -1,0 -1,0.276 -0.776,0.5 -0.5,0.5 -0.224,0.5 0,0.276 0,0" /></g><g
           transform="translate(124.75,108.7502)"
           id="g292"><path
             id="path294"
             style="fill:#999999;fill-opacity:1;fill-rule:nonzero;stroke:none"
             d="m 0,0 c 0,-0.414 -0.336,-0.75 -0.75,-0.75 -0.414,0 -0.75,0.336 -0.75,0.75 0,0.414 0.336,0.75 0.75,0.75 C -0.336,0.75 0,0.414 0,0" /></g><g
           transform="translate(128.75,108.7502)"
           id="g296"><path
             id="path298"
             style="fill:#999999;fill-opacity:1;fill-rule:nonzero;stroke:none"
             d="m 0,0 c 0,-0.414 -0.336,-0.75 -0.75,-0.75 -0.414,0 -0.75,0.336 -0.75,0.75 0,0.414 0.336,0.75 0.75,0.75 C -0.336,0.75 0,0.414 0,0" /></g><g
           transform="translate(132.75,108.7502)"
           id="g300"><path
             id="path302"
             style="fill:#999999;fill-opacity:1;fill-rule:nonzero;stroke:none"
             d="m 0,0 c 0,-0.414 -0.336,-0.75 -0.75,-0.75 -0.414,0 -0.75,0.336 -0.75,0.75 0,0.414 0.336,0.75 0.75,0.75 C -0.336,0.75 0,0.414 0,0" /></g><g
           transform="translate(125,105.0003)"
           id="g304"><path
             id="path306"
             style="fill:#999999;fill-opacity:1;fill-rule:nonzero;stroke:none"
             d="m 0,0 c 0,-0.553 -0.448,-1 -1,-1 -0.552,0 -1,0.447 -1,1 0,0.552 0.448,1 1,1 0.552,0 1,-0.448 1,-1" /></g><g
           transform="translate(129,105.0003)"
           id="g308"><path
             id="path310"
             style="fill:#999999;fill-opacity:1;fill-rule:nonzero;stroke:none"
             d="m 0,0 c 0,-0.553 -0.448,-1 -1,-1 -0.552,0 -1,0.447 -1,1 0,0.552 0.448,1 1,1 0.552,0 1,-0.448 1,-1" /></g><g
           transform="translate(133,105.0003)"
           id="g312"><path
             id="path314"
             style="fill:#999999;fill-opacity:1;fill-rule:nonzero;stroke:none"
             d="m 0,0 c 0,-0.553 -0.448,-1 -1,-1 -0.552,0 -1,0.447 -1,1 0,0.552 0.448,1 1,1 0.552,0 1,-0.448 1,-1" /></g><g
           transform="translate(125,101.0003)"
           id="g316"><path
             id="path318"
             style="fill:#999999;fill-opacity:1;fill-rule:nonzero;stroke:none"
             d="m 0,0 c 0,-0.553 -0.448,-1 -1,-1 -0.552,0 -1,0.447 -1,1 0,0.552 0.448,1 1,1 0.552,0 1,-0.448 1,-1" /></g><g
           transform="translate(129,101.0003)"
           id="g320"><path
             id="path322"
             style="fill:#999999;fill-opacity:1;fill-rule:nonzero;stroke:none"
             d="m 0,0 c 0,-0.553 -0.448,-1 -1,-1 -0.552,0 -1,0.447 -1,1 0,0.552 0.448,1 1,1 0.552,0 1,-0.448 1,-1" /></g><g
           transform="translate(133,101.0003)"
           id="g324"><path
             id="path326"
             style="fill:#999999;fill-opacity:1;fill-rule:nonzero;stroke:none"
             d="m 0,0 c 0,-0.553 -0.448,-1 -1,-1 -0.552,0 -1,0.447 -1,1 0,0.552 0.448,1 1,1 0.552,0 1,-0.448 1,-1" /></g><g
           transform="translate(124.75,96.7502)"
           id="g328"><path
             id="path330"
             style="fill:#999999;fill-opacity:1;fill-rule:nonzero;stroke:none"
             d="m 0,0 c 0,-0.414 -0.336,-0.75 -0.75,-0.75 -0.414,0 -0.75,0.336 -0.75,0.75 0,0.414 0.336,0.75 0.75,0.75 C -0.336,0.75 0,0.414 0,0" /></g><g
           transform="translate(128.75,96.7502)"
           id="g332"><path
             id="path334"
             style="fill:#999999;fill-opacity:1;fill-rule:nonzero;stroke:none"
             d="m 0,0 c 0,-0.414 -0.336,-0.75 -0.75,-0.75 -0.414,0 -0.75,0.336 -0.75,0.75 0,0.414 0.336,0.75 0.75,0.75 C -0.336,0.75 0,0.414 0,0" /></g><g
           transform="translate(132.75,96.7502)"
           id="g336"><path
             id="path338"
             style="fill:#999999;fill-opacity:1;fill-rule:nonzero;stroke:none"
             d="m 0,0 c 0,-0.414 -0.336,-0.75 -0.75,-0.75 -0.414,0 -0.75,0.336 -0.75,0.75 0,0.414 0.336,0.75 0.75,0.75 C -0.336,0.75 0,0.414 0,0" /></g><g
           transform="translate(124.5,92.5001)"
           id="g340"><path
             id="path342"
             style="fill:#999999;fill-opacity:1;fill-rule:nonzero;stroke:none"
             d="M 0,0 C 0,-0.276 -0.224,-0.5 -0.5,-0.5 -0.776,-0.5 -1,-0.276 -1,0 -1,0.276 -0.776,0.5 -0.5,0.5 -0.224,0.5 0,0.276 0,0" /></g><g
           transform="translate(128.5,92.5001)"
           id="g344"><path
             id="path346"
             style="fill:#999999;fill-opacity:1;fill-rule:nonzero;stroke:none"
             d="M 0,0 C 0,-0.276 -0.224,-0.5 -0.5,-0.5 -0.776,-0.5 -1,-0.276 -1,0 -1,0.276 -0.776,0.5 -0.5,0.5 -0.224,0.5 0,0.276 0,0" /></g><g
           transform="translate(132.5,92.5001)"
           id="g348"><path
             id="path350"
             style="fill:#999999;fill-opacity:1;fill-rule:nonzero;stroke:none"
             d="M 0,0 C 0,-0.276 -0.224,-0.5 -0.5,-0.5 -0.776,-0.5 -1,-0.276 -1,0 -1,0.276 -0.776,0.5 -0.5,0.5 -0.224,0.5 0,0.276 0,0" /></g></g></g><g
       id="g352"><g
         clip-path="url(#clipPath356)"
         id="g354"><g
           id="g360"><g
             id="g362"><path
               id="path370"
               style="fill:url(#linearGradient364);stroke:none"
               d="m 121,72 c 0,-3.86 3.141,-7 7,-7 l 0,0 c 3.86,0 7,3.14 7,7 l 0,0 c 0,3.86 -3.14,7 -7,7 l 0,0 c -3.859,0 -7,-3.14 -7,-7" /></g></g></g></g><g
       id="g372"><g
         clip-path="url(#clipPath376)"
         id="g374"><g
           id="g380"><g
             id="g382"><path
               id="path390"
               style="fill:url(#linearGradient384);stroke:none"
               d="m 122,72 c 0,-3.314 2.686,-6 6,-6 l 0,0 c 3.314,0 6,2.686 6,6 l 0,0 c 0,3.314 -2.686,6 -6,6 l 0,0 c -3.314,0 -6,-2.686 -6,-6" /></g></g></g></g><g
       id="g392"><g
         clip-path="url(#clipPath396)"
         id="g394"><g
           id="g400"><g
             id="g402"><path
               id="path410"
               style="fill:url(#linearGradient404);stroke:none"
               d="m 121,53 c 0,-3.86 3.141,-7 7,-7 l 0,0 c 3.86,0 7,3.14 7,7 l 0,0 c 0,3.86 -3.14,7 -7,7 l 0,0 c -3.859,0 -7,-3.14 -7,-7" /></g></g></g></g><g
       id="g412"><g
         clip-path="url(#clipPath416)"
         id="g414"><g
           id="g420"><g
             id="g422"><path
               id="path430"
               style="fill:url(#linearGradient424);stroke:none"
               d="m 122,53 c 0,-3.314 2.686,-6 6,-6 l 0,0 c 3.314,0 6,2.686 6,6 l 0,0 c 0,3.314 -2.686,6 -6,6 l 0,0 c -3.314,0 -6,-2.686 -6,-6" /></g></g></g></g><g
       id="g432"><g
         clip-path="url(#clipPath436)"
         id="g434"><path
           id="path440"
           style="fill:#ffffff;fill-opacity:1;fill-rule:nonzero;stroke:none"
           d="m 112,32 -4,0 0,4 4,0 0,-4 z" /><path
           id="path442"
           style="fill:#999999;fill-opacity:1;fill-rule:nonzero;stroke:none"
           d="m 124,32 -4,0 0,4 4,0 0,-4 z" /><path
           id="path444"
           style="fill:#999999;fill-opacity:1;fill-rule:nonzero;stroke:none"
           d="m 136,32 -4,0 0,4 4,0 0,-4 z" /><path
           id="path446"
           style="fill:#999999;fill-opacity:1;fill-rule:nonzero;stroke:none"
           d="m 148,32 -4,0 0,4 4,0 0,-4 z" /><g
           transform="translate(128,213.7423)"
           id="g448"><path
             id="path450"
             style="fill:#999999;fill-opacity:1;fill-rule:nonzero;stroke:none"
             d="m 0,0 c -0.214,0 -0.388,0.174 -0.388,0.388 l 0,5.023 c 0,0.214 0.174,0.388 0.388,0.388 0.214,0 0.388,-0.174 0.388,-0.388 l 0,-5.023 C 0.388,0.174 0.214,0 0,0" /></g><g
           transform="translate(128,196.3216)"
           id="g452"><path
             id="path454"
             style="fill:#999999;fill-opacity:1;fill-rule:nonzero;stroke:none"
             d="m 0,0 c -0.214,0 -0.388,0.174 -0.388,0.388 l 0,5.023 c 0,0.214 0.174,0.388 0.388,0.388 0.214,0 0.388,-0.174 0.388,-0.388 l 0,-5.023 C 0.388,0.174 0.214,0 0,0" /></g><g
           transform="translate(133.8107,208)"
           id="g456"><path
             id="path458"
             style="fill:#999999;fill-opacity:1;fill-rule:nonzero;stroke:none"
             d="m 0,0 c 0,0.214 0.174,0.388 0.388,0.388 l 5.023,0 c 0.214,0 0.388,-0.174 0.388,-0.388 0,-0.214 -0.174,-0.388 -0.388,-0.388 l -5.023,0 C 0.174,-0.388 0,-0.214 0,0" /></g><g
           transform="translate(116.39,208)"
           id="g460"><path
             id="path462"
             style="fill:#999999;fill-opacity:1;fill-rule:nonzero;stroke:none"
             d="m 0,0 c 0,0.214 0.174,0.388 0.388,0.388 l 5.023,0 c 0.214,0 0.388,-0.174 0.388,-0.388 0,-0.214 -0.174,-0.388 -0.388,-0.388 l -5.023,0 C 0.174,-0.388 0,-0.214 0,0" /></g></g></g><g
       id="g464"><g
         clip-path="url(#clipPath468)"
         id="g466"><g
           id="g472"><g
             id="g474"><path
               id="path482"
               style="fill:url(#linearGradient476);stroke:none"
               d="m 120,170 c 0,-4.418 3.582,-8 8,-8 l 0,0 c 4.418,0 8,3.582 8,8 l 0,0 c 0,4.418 -3.582,8 -8,8 l 0,0 c -4.418,0 -8,-3.582 -8,-8" /></g></g></g></g></g></svg>