<?xml version="1.0" encoding="UTF-8" standalone="no"?>
<svg
   xmlns:dc="http://purl.org/dc/elements/1.1/"
   xmlns:cc="http://creativecommons.org/ns#"
   xmlns:rdf="http://www.w3.org/1999/02/22-rdf-syntax-ns#"
   xmlns:svg="http://www.w3.org/2000/svg"
   xmlns="http://www.w3.org/2000/svg"
   viewBox="0 0 320 320"
   height="320"
   width="320"
   xml:space="preserve"
   version="1.1"
   id="svg2"><metadata
     id="metadata8"><rdf:RDF><cc:Work
         rdf:about=""><dc:format>image/svg+xml</dc:format><dc:type
           rdf:resource="http://purl.org/dc/dcmitype/StillImage" /></cc:Work></rdf:RDF></metadata><defs
     id="defs6"><clipPath
       id="clipPath16"
       clipPathUnits="userSpaceOnUse"><path
         id="path18"
         d="m 28,244 c -2.209,0 -4,-1.791 -4,-4 l 0,0 0,-14 c 0,-1.104 0.896,-2 2,-2 l 0,0 2,0 0,-4 -3,0 c -0.552,0 -1,-0.448 -1,-1 l 0,0 0,-2 c 0,-0.553 0.448,-1 1,-1 l 0,0 3,0 0,-4 -3,0 c -0.552,0 -1,-0.448 -1,-1 l 0,0 0,-2 c 0,-0.552 0.448,-1 1,-1 l 0,0 3,0 0,-4 -3,0 c -0.552,0 -1,-0.448 -1,-1 l 0,0 0,-2 c 0,-0.552 0.448,-1 1,-1 l 0,0 3,0 0,-4 -3,0 c -0.552,0 -1,-0.448 -1,-1 l 0,0 0,-2 c 0,-0.552 0.448,-1 1,-1 l 0,0 3,0 0,-4 -4,0 0,-174 c 0,-1.105 0.896,-2 2,-2 l 0,0 2,0 200,0 2,0 c 1.105,0 2,0.895 2,2 l 0,0 0,173 c 0,0.552 -0.448,1 -1,1 l 0,0 -3,0 0,4 3,0 c 0.552,0 1,0.448 1,1 l 0,0 0,2 c 0,0.552 -0.448,1 -1,1 l 0,0 -3,0 0,4 3,0 c 0.552,0 1,0.448 1,1 l 0,0 0,2 c 0,0.552 -0.448,1 -1,1 l 0,0 -3,0 0,4 3,0 c 0.552,0 1,0.448 1,1 l 0,0 0,2 c 0,0.552 -0.448,1 -1,1 l 0,0 -3,0 0,4 3,0 c 0.552,0 1,0.447 1,1 l 0,0 0,2 c 0,0.552 -0.448,1 -1,1 l 0,0 -3,0 0,4 2,0 c 1.105,0 2,0.896 2,2 l 0,0 0,4 c 0,1.105 -0.895,2 -2,2 l 0,0 -18,0 0,8 c 0,2.209 -1.791,4 -4,4 l 0,0 -180,0 z" /></clipPath><linearGradient
       id="linearGradient24"
       spreadMethod="pad"
       gradientTransform="matrix(218.24263,-218.24263,-218.24263,-218.24263,16.171574,233.82843)"
       gradientUnits="userSpaceOnUse"
       y2="0"
       x2="1"
       y1="0"
       x1="0"><stop
         id="stop26"
         offset="0"
         style="stop-opacity:1;stop-color:#e6e7e8" /><stop
         id="stop28"
         offset="1"
         style="stop-opacity:1;stop-color:#d1d3d4" /></linearGradient><clipPath
       id="clipPath36"
       clipPathUnits="userSpaceOnUse"><path
         id="path38"
         d="M 68.953,226 C 57.38,226 48,217.046 48,206 l 0,0 c 0,-11.046 9.38,-20 20.953,-20 l 0,0 118.095,0 c 11.571,0 20.952,8.954 20.952,20 l 0,0 c 0,11.046 -9.381,20 -20.952,20 l 0,0 -118.095,0 z" /></clipPath><linearGradient
       id="linearGradient44"
       spreadMethod="pad"
       gradientTransform="matrix(-88.013207,88.013207,88.013207,88.013207,172.00661,161.99339)"
       gradientUnits="userSpaceOnUse"
       y2="0"
       x2="1"
       y1="0"
       x1="0"><stop
         id="stop46"
         offset="0"
         style="stop-opacity:1;stop-color:#e6e7e8" /><stop
         id="stop48"
         offset="1"
         style="stop-opacity:1;stop-color:#d1d3d4" /></linearGradient><clipPath
       id="clipPath56"
       clipPathUnits="userSpaceOnUse"><path
         id="path58"
         d="m 115.43,32 c -1.271,0 -1.909,-1.594 -1.009,-2.528 l 0,0 12.57,-13.038 c 0.557,-0.579 1.461,-0.579 2.019,0 l 0,0 12.569,13.038 C 142.478,30.406 141.842,32 140.57,32 l 0,0 -25.14,0 z" /></clipPath><linearGradient
       id="linearGradient64"
       spreadMethod="pad"
       gradientTransform="matrix(-14.863067,14.863067,14.863067,14.863067,135.43152,22.855547)"
       gradientUnits="userSpaceOnUse"
       y2="0"
       x2="1"
       y1="0"
       x1="0"><stop
         id="stop66"
         offset="0"
         style="stop-opacity:1;stop-color:#e6e7e8" /><stop
         id="stop68"
         offset="1"
         style="stop-opacity:1;stop-color:#d1d3d4" /></linearGradient><clipPath
       id="clipPath76"
       clipPathUnits="userSpaceOnUse"><path
         id="path78"
         d="M 51.809,182 C 48.606,182 46,179.403 46,176.21 l 0,0 0,-136.42 C 46,36.598 48.606,34 51.809,34 l 0,0 152.381,0 c 3.204,0 5.81,2.598 5.81,5.79 l 0,0 0,136.42 c 0,3.193 -2.606,5.79 -5.81,5.79 l 0,0 -152.381,0 z" /></clipPath><linearGradient
       id="linearGradient84"
       spreadMethod="pad"
       gradientTransform="matrix(-152.59889,152.59889,152.59889,152.59889,204.29945,31.700552)"
       gradientUnits="userSpaceOnUse"
       y2="0"
       x2="1"
       y1="0"
       x1="0"><stop
         id="stop86"
         offset="0"
         style="stop-opacity:1;stop-color:#e6e7e8" /><stop
         id="stop88"
         offset="1"
         style="stop-opacity:1;stop-color:#d1d3d4" /></linearGradient><clipPath
       id="clipPath96"
       clipPathUnits="userSpaceOnUse"><path
         id="path98"
         d="M 0,256 256,256 256,0 0,0 0,256 Z" /></clipPath><clipPath
       id="clipPath110"
       clipPathUnits="userSpaceOnUse"><path
         id="path112"
         d="m 28,208 0,-4 16.096,0 C 44.038,204.66 44,205.326 44,206 l 0,0 c 0,0.674 0.038,1.339 0.096,2 l 0,0 L 28,208 Z" /></clipPath><linearGradient
       id="linearGradient118"
       spreadMethod="pad"
       gradientTransform="matrix(-10.047699,10.047699,10.047699,10.047699,41.071548,200.97615)"
       gradientUnits="userSpaceOnUse"
       y2="0"
       x2="1"
       y1="0"
       x1="0"><stop
         id="stop120"
         offset="0"
         style="stop-opacity:1;stop-color:#e6e7e8" /><stop
         id="stop122"
         offset="1"
         style="stop-opacity:1;stop-color:#d1d3d4" /></linearGradient><clipPath
       id="clipPath130"
       clipPathUnits="userSpaceOnUse"><path
         id="path132"
         d="m 28,224 0,-4 20.712,0 c 1.098,1.464 2.358,2.809 3.763,4 l 0,0 L 28,224 Z" /></clipPath><linearGradient
       id="linearGradient138"
       spreadMethod="pad"
       gradientTransform="matrix(-12.355682,12.355682,12.355682,12.355682,45.474258,216.76289)"
       gradientUnits="userSpaceOnUse"
       y2="0"
       x2="1"
       y1="0"
       x1="0"><stop
         id="stop140"
         offset="0"
         style="stop-opacity:1;stop-color:#e6e7e8" /><stop
         id="stop142"
         offset="1"
         style="stop-opacity:1;stop-color:#d1d3d4" /></linearGradient><clipPath
       id="clipPath150"
       clipPathUnits="userSpaceOnUse"><path
         id="path152"
         d="m 28,200 0,-4 18.274,0 c -0.611,1.276 -1.102,2.616 -1.475,4 l 0,0 L 28,200 Z" /></clipPath><linearGradient
       id="linearGradient158"
       spreadMethod="pad"
       gradientTransform="matrix(-11.137329,11.137329,11.137329,11.137329,42.337128,192.06247)"
       gradientUnits="userSpaceOnUse"
       y2="0"
       x2="1"
       y1="0"
       x1="0"><stop
         id="stop160"
         offset="0"
         style="stop-opacity:1;stop-color:#e6e7e8" /><stop
         id="stop162"
         offset="1"
         style="stop-opacity:1;stop-color:#d1d3d4" /></linearGradient><clipPath
       id="clipPath170"
       clipPathUnits="userSpaceOnUse"><path
         id="path172"
         d="m 28,216 0,-4 16.799,0 c 0.373,1.385 0.864,2.724 1.475,4 l 0,0 L 28,216 Z" /></clipPath><linearGradient
       id="linearGradient178"
       spreadMethod="pad"
       gradientTransform="matrix(-10.399597,10.399597,10.399597,10.399597,41.968262,209.16907)"
       gradientUnits="userSpaceOnUse"
       y2="0"
       x2="1"
       y1="0"
       x1="0"><stop
         id="stop180"
         offset="0"
         style="stop-opacity:1;stop-color:#e6e7e8" /><stop
         id="stop182"
         offset="1"
         style="stop-opacity:1;stop-color:#d1d3d4" /></linearGradient><clipPath
       id="clipPath190"
       clipPathUnits="userSpaceOnUse"><path
         id="path192"
         d="m 28,192 0,-4 24.475,0 c -1.405,1.192 -2.665,2.536 -3.763,4 l 0,0 L 28,192 Z" /></clipPath><linearGradient
       id="linearGradient198"
       spreadMethod="pad"
       gradientTransform="matrix(-14.237151,14.237151,14.237151,14.237151,46.414993,181.94069)"
       gradientUnits="userSpaceOnUse"
       y2="0"
       x2="1"
       y1="0"
       x1="0"><stop
         id="stop200"
         offset="0"
         style="stop-opacity:1;stop-color:#e6e7e8" /><stop
         id="stop202"
         offset="1"
         style="stop-opacity:1;stop-color:#d1d3d4" /></linearGradient><clipPath
       id="clipPath210"
       clipPathUnits="userSpaceOnUse"><path
         id="path212"
         d="m 211.905,208 c 0.057,-0.661 0.095,-1.326 0.095,-2 l 0,0 c 0,-0.674 -0.038,-1.34 -0.095,-2 l 0,0 16.095,0 0,4 -16.095,0 z" /></clipPath><linearGradient
       id="linearGradient218"
       spreadMethod="pad"
       gradientTransform="matrix(-10.047699,10.047699,10.047699,10.047699,224.97615,200.97615)"
       gradientUnits="userSpaceOnUse"
       y2="0"
       x2="1"
       y1="0"
       x1="0"><stop
         id="stop220"
         offset="0"
         style="stop-opacity:1;stop-color:#e6e7e8" /><stop
         id="stop222"
         offset="1"
         style="stop-opacity:1;stop-color:#d1d3d4" /></linearGradient><clipPath
       id="clipPath230"
       clipPathUnits="userSpaceOnUse"><path
         id="path232"
         d="m 203.526,224 c 1.405,-1.191 2.664,-2.536 3.763,-4 l 0,0 20.711,0 0,4 -24.474,0 z" /></clipPath><linearGradient
       id="linearGradient238"
       spreadMethod="pad"
       gradientTransform="matrix(-14.237151,14.237151,14.237151,14.237151,223.82216,215.82216)"
       gradientUnits="userSpaceOnUse"
       y2="0"
       x2="1"
       y1="0"
       x1="0"><stop
         id="stop240"
         offset="0"
         style="stop-opacity:1;stop-color:#e6e7e8" /><stop
         id="stop242"
         offset="1"
         style="stop-opacity:1;stop-color:#d1d3d4" /></linearGradient><clipPath
       id="clipPath250"
       clipPathUnits="userSpaceOnUse"><path
         id="path252"
         d="m 211.201,200 c -0.372,-1.384 -0.864,-2.724 -1.476,-4 l 0,0 18.275,0 0,4 -16.799,0 z" /></clipPath><linearGradient
       id="linearGradient258"
       spreadMethod="pad"
       gradientTransform="matrix(-10.399597,10.399597,10.399597,10.399597,224.43134,192.43134)"
       gradientUnits="userSpaceOnUse"
       y2="0"
       x2="1"
       y1="0"
       x1="0"><stop
         id="stop260"
         offset="0"
         style="stop-opacity:1;stop-color:#e6e7e8" /><stop
         id="stop262"
         offset="1"
         style="stop-opacity:1;stop-color:#d1d3d4" /></linearGradient><clipPath
       id="clipPath270"
       clipPathUnits="userSpaceOnUse"><path
         id="path272"
         d="m 207.289,192 c -1.099,-1.464 -2.358,-2.808 -3.763,-4 l 0,0 24.474,0 0,4 -20.711,0 z" /></clipPath><linearGradient
       id="linearGradient278"
       spreadMethod="pad"
       gradientTransform="matrix(-12.355682,12.355682,12.355682,12.355682,222.88142,182.88142)"
       gradientUnits="userSpaceOnUse"
       y2="0"
       x2="1"
       y1="0"
       x1="0"><stop
         id="stop280"
         offset="0"
         style="stop-opacity:1;stop-color:#e6e7e8" /><stop
         id="stop282"
         offset="1"
         style="stop-opacity:1;stop-color:#d1d3d4" /></linearGradient><clipPath
       id="clipPath290"
       clipPathUnits="userSpaceOnUse"><path
         id="path292"
         d="m 209.725,216 c 0.612,-1.276 1.104,-2.615 1.476,-4 l 0,0 16.799,0 0,4 -18.275,0 z" /></clipPath><linearGradient
       id="linearGradient298"
       spreadMethod="pad"
       gradientTransform="matrix(-11.137329,11.137329,11.137329,11.137329,224.8002,208.8002)"
       gradientUnits="userSpaceOnUse"
       y2="0"
       x2="1"
       y1="0"
       x1="0"><stop
         id="stop300"
         offset="0"
         style="stop-opacity:1;stop-color:#e6e7e8" /><stop
         id="stop302"
         offset="1"
         style="stop-opacity:1;stop-color:#d1d3d4" /></linearGradient><clipPath
       id="clipPath310"
       clipPathUnits="userSpaceOnUse"><path
         id="path312"
         d="m 24,12 4,0 0,140 -4,0 0,-140 z" /></clipPath><linearGradient
       id="linearGradient318"
       spreadMethod="pad"
       gradientTransform="matrix(-72,72,72,72,62,46)"
       gradientUnits="userSpaceOnUse"
       y2="0"
       x2="1"
       y1="0"
       x1="0"><stop
         id="stop320"
         offset="0"
         style="stop-opacity:1;stop-color:#e6e7e8" /><stop
         id="stop322"
         offset="1"
         style="stop-opacity:1;stop-color:#d1d3d4" /></linearGradient><clipPath
       id="clipPath330"
       clipPathUnits="userSpaceOnUse"><path
         id="path332"
         d="m 228,12 4.001,0 0,140 -4.001,0 0,-140 z" /></clipPath><linearGradient
       id="linearGradient338"
       spreadMethod="pad"
       gradientTransform="matrix(-72,72,72,72,266,46)"
       gradientUnits="userSpaceOnUse"
       y2="0"
       x2="1"
       y1="0"
       x1="0"><stop
         id="stop340"
         offset="0"
         style="stop-opacity:1;stop-color:#e6e7e8" /><stop
         id="stop342"
         offset="1"
         style="stop-opacity:1;stop-color:#d1d3d4" /></linearGradient></defs><g
     transform="matrix(1.25,0,0,-1.25,0,320)"
     id="g10"><g
       id="g12"><g
         clip-path="url(#clipPath16)"
         id="g14"><g
           id="g20"><g
             id="g22"><path
               id="path30"
               style="fill:url(#linearGradient24);stroke:none"
               d="m 28,244 c -2.209,0 -4,-1.791 -4,-4 l 0,0 0,-14 c 0,-1.104 0.896,-2 2,-2 l 0,0 2,0 0,-4 -3,0 c -0.552,0 -1,-0.448 -1,-1 l 0,0 0,-2 c 0,-0.553 0.448,-1 1,-1 l 0,0 3,0 0,-4 -3,0 c -0.552,0 -1,-0.448 -1,-1 l 0,0 0,-2 c 0,-0.552 0.448,-1 1,-1 l 0,0 3,0 0,-4 -3,0 c -0.552,0 -1,-0.448 -1,-1 l 0,0 0,-2 c 0,-0.552 0.448,-1 1,-1 l 0,0 3,0 0,-4 -3,0 c -0.552,0 -1,-0.448 -1,-1 l 0,0 0,-2 c 0,-0.552 0.448,-1 1,-1 l 0,0 3,0 0,-4 -4,0 0,-174 c 0,-1.105 0.896,-2 2,-2 l 0,0 2,0 200,0 2,0 c 1.105,0 2,0.895 2,2 l 0,0 0,173 c 0,0.552 -0.448,1 -1,1 l 0,0 -3,0 0,4 3,0 c 0.552,0 1,0.448 1,1 l 0,0 0,2 c 0,0.552 -0.448,1 -1,1 l 0,0 -3,0 0,4 3,0 c 0.552,0 1,0.448 1,1 l 0,0 0,2 c 0,0.552 -0.448,1 -1,1 l 0,0 -3,0 0,4 3,0 c 0.552,0 1,0.448 1,1 l 0,0 0,2 c 0,0.552 -0.448,1 -1,1 l 0,0 -3,0 0,4 3,0 c 0.552,0 1,0.447 1,1 l 0,0 0,2 c 0,0.552 -0.448,1 -1,1 l 0,0 -3,0 0,4 2,0 c 1.105,0 2,0.896 2,2 l 0,0 0,4 c 0,1.105 -0.895,2 -2,2 l 0,0 -18,0 0,8 c 0,2.209 -1.791,4 -4,4 l 0,0 -180,0 z" /></g></g></g></g><g
       id="g32"><g
         clip-path="url(#clipPath36)"
         id="g34"><g
           id="g40"><g
             id="g42"><path
               id="path50"
               style="fill:url(#linearGradient44);stroke:none"
               d="M 68.953,226 C 57.38,226 48,217.046 48,206 l 0,0 c 0,-11.046 9.38,-20 20.953,-20 l 0,0 118.095,0 c 11.571,0 20.952,8.954 20.952,20 l 0,0 c 0,11.046 -9.381,20 -20.952,20 l 0,0 -118.095,0 z" /></g></g></g></g><g
       id="g52"><g
         clip-path="url(#clipPath56)"
         id="g54"><g
           id="g60"><g
             id="g62"><path
               id="path70"
               style="fill:url(#linearGradient64);stroke:none"
               d="m 115.43,32 c -1.271,0 -1.909,-1.594 -1.009,-2.528 l 0,0 12.57,-13.038 c 0.557,-0.579 1.461,-0.579 2.019,0 l 0,0 12.569,13.038 C 142.478,30.406 141.842,32 140.57,32 l 0,0 -25.14,0 z" /></g></g></g></g><g
       id="g72"><g
         clip-path="url(#clipPath76)"
         id="g74"><g
           id="g80"><g
             id="g82"><path
               id="path90"
               style="fill:url(#linearGradient84);stroke:none"
               d="M 51.809,182 C 48.606,182 46,179.403 46,176.21 l 0,0 0,-136.42 C 46,36.598 48.606,34 51.809,34 l 0,0 152.381,0 c 3.204,0 5.81,2.598 5.81,5.79 l 0,0 0,136.42 c 0,3.193 -2.606,5.79 -5.81,5.79 l 0,0 -152.381,0 z" /></g></g></g></g><g
       id="g92"><g
         clip-path="url(#clipPath96)"
         id="g94"><g
           transform="translate(51.8095,180)"
           id="g100"><path
             id="path102"
             style="fill:#999999;fill-opacity:1;fill-rule:nonzero;stroke:none"
             d="m 0,0 152.381,0 c 2.104,0 3.809,-1.697 3.809,-3.789 l 0,-136.422 c 0,-2.092 -1.705,-3.789 -3.809,-3.789 L 0,-144 c -2.104,0 -3.81,1.697 -3.81,3.789 l 0,136.422 C -3.81,-1.697 -2.104,0 0,0" /></g><path
           id="path104"
           style="fill:#ffffff;fill-opacity:1;fill-rule:nonzero;stroke:none"
           d="m 191.967,36 -127.934,0 0,144 127.934,0 0,-144 z" /></g></g><g
       id="g106"><g
         clip-path="url(#clipPath110)"
         id="g108"><g
           id="g114"><g
             id="g116"><path
               id="path124"
               style="fill:url(#linearGradient118);stroke:none"
               d="m 28,208 0,-4 16.096,0 C 44.038,204.66 44,205.326 44,206 l 0,0 c 0,0.674 0.038,1.339 0.096,2 l 0,0 L 28,208 Z" /></g></g></g></g><g
       id="g126"><g
         clip-path="url(#clipPath130)"
         id="g128"><g
           id="g134"><g
             id="g136"><path
               id="path144"
               style="fill:url(#linearGradient138);stroke:none"
               d="m 28,224 0,-4 20.712,0 c 1.098,1.464 2.358,2.809 3.763,4 l 0,0 L 28,224 Z" /></g></g></g></g><g
       id="g146"><g
         clip-path="url(#clipPath150)"
         id="g148"><g
           id="g154"><g
             id="g156"><path
               id="path164"
               style="fill:url(#linearGradient158);stroke:none"
               d="m 28,200 0,-4 18.274,0 c -0.611,1.276 -1.102,2.616 -1.475,4 l 0,0 L 28,200 Z" /></g></g></g></g><g
       id="g166"><g
         clip-path="url(#clipPath170)"
         id="g168"><g
           id="g174"><g
             id="g176"><path
               id="path184"
               style="fill:url(#linearGradient178);stroke:none"
               d="m 28,216 0,-4 16.799,0 c 0.373,1.385 0.864,2.724 1.475,4 l 0,0 L 28,216 Z" /></g></g></g></g><g
       id="g186"><g
         clip-path="url(#clipPath190)"
         id="g188"><g
           id="g194"><g
             id="g196"><path
               id="path204"
               style="fill:url(#linearGradient198);stroke:none"
               d="m 28,192 0,-4 24.475,0 c -1.405,1.192 -2.665,2.536 -3.763,4 l 0,0 L 28,192 Z" /></g></g></g></g><g
       id="g206"><g
         clip-path="url(#clipPath210)"
         id="g208"><g
           id="g214"><g
             id="g216"><path
               id="path224"
               style="fill:url(#linearGradient218);stroke:none"
               d="m 211.905,208 c 0.057,-0.661 0.095,-1.326 0.095,-2 l 0,0 c 0,-0.674 -0.038,-1.34 -0.095,-2 l 0,0 16.095,0 0,4 -16.095,0 z" /></g></g></g></g><g
       id="g226"><g
         clip-path="url(#clipPath230)"
         id="g228"><g
           id="g234"><g
             id="g236"><path
               id="path244"
               style="fill:url(#linearGradient238);stroke:none"
               d="m 203.526,224 c 1.405,-1.191 2.664,-2.536 3.763,-4 l 0,0 20.711,0 0,4 -24.474,0 z" /></g></g></g></g><g
       id="g246"><g
         clip-path="url(#clipPath250)"
         id="g248"><g
           id="g254"><g
             id="g256"><path
               id="path264"
               style="fill:url(#linearGradient258);stroke:none"
               d="m 211.201,200 c -0.372,-1.384 -0.864,-2.724 -1.476,-4 l 0,0 18.275,0 0,4 -16.799,0 z" /></g></g></g></g><g
       id="g266"><g
         clip-path="url(#clipPath270)"
         id="g268"><g
           id="g274"><g
             id="g276"><path
               id="path284"
               style="fill:url(#linearGradient278);stroke:none"
               d="m 207.289,192 c -1.099,-1.464 -2.358,-2.808 -3.763,-4 l 0,0 24.474,0 0,4 -20.711,0 z" /></g></g></g></g><g
       id="g286"><g
         clip-path="url(#clipPath290)"
         id="g288"><g
           id="g294"><g
             id="g296"><path
               id="path304"
               style="fill:url(#linearGradient298);stroke:none"
               d="m 209.725,216 c 0.612,-1.276 1.104,-2.615 1.476,-4 l 0,0 16.799,0 0,4 -18.275,0 z" /></g></g></g></g><g
       id="g306"><g
         clip-path="url(#clipPath310)"
         id="g308"><g
           id="g314"><g
             id="g316"><path
               id="path324"
               style="fill:url(#linearGradient318);stroke:none"
               d="m 24,12 4,0 0,140 -4,0 0,-140 z" /></g></g></g></g><g
       id="g326"><g
         clip-path="url(#clipPath330)"
         id="g328"><g
           id="g334"><g
             id="g336"><path
               id="path344"
               style="fill:url(#linearGradient338);stroke:none"
               d="m 228,12 4.001,0 0,140 -4.001,0 0,-140 z" /></g></g></g></g></g></svg>