<?xml version="1.0" encoding="UTF-8" standalone="no"?>
<svg
   xmlns:dc="http://purl.org/dc/elements/1.1/"
   xmlns:cc="http://creativecommons.org/ns#"
   xmlns:rdf="http://www.w3.org/1999/02/22-rdf-syntax-ns#"
   xmlns:svg="http://www.w3.org/2000/svg"
   xmlns="http://www.w3.org/2000/svg"
   viewBox="0 0 320 320"
   height="320"
   width="320"
   xml:space="preserve"
   version="1.1"
   id="svg2"><metadata
     id="metadata8"><rdf:RDF><cc:Work
         rdf:about=""><dc:format>image/svg+xml</dc:format><dc:type
           rdf:resource="http://purl.org/dc/dcmitype/StillImage" /></cc:Work></rdf:RDF></metadata><defs
     id="defs6"><clipPath
       id="clipPath16"
       clipPathUnits="userSpaceOnUse"><path
         id="path18"
         d="M 0,256 256,256 256,0 0,0 0,256 Z" /></clipPath><clipPath
       id="clipPath28"
       clipPathUnits="userSpaceOnUse"><path
         id="path30"
         d="M 26.968,240 C 18.701,240 12,233.249 12,224.923 l 0,0 0,-162.077 0,-15.077 C 12,45.688 13.676,44 15.742,44 l 0,0 224.517,0 c 2.066,0 3.741,1.688 3.741,3.769 l 0,0 0,15.077 0,162.077 C 244,233.249 237.298,240 229.032,240 l 0,0 -202.064,0 z" /></clipPath><linearGradient
       id="linearGradient36"
       spreadMethod="pad"
       gradientTransform="matrix(208.50015,-208.50015,-208.50015,-208.50015,23.749922,242.95018)"
       gradientUnits="userSpaceOnUse"
       y2="0"
       x2="1"
       y1="0"
       x1="0"><stop
         id="stop38"
         offset="0"
         style="stop-opacity:1;stop-color:#e6e7e8" /><stop
         id="stop40"
         offset="1"
         style="stop-opacity:1;stop-color:#d1d3d4" /></linearGradient><clipPath
       id="clipPath48"
       clipPathUnits="userSpaceOnUse"><path
         id="path50"
         d="M 37.76,236 C 35.683,236 34,234.382 34,232.384 l 0,0 0,-180.769 C 34,49.619 35.683,48 37.76,48 l 0,0 180.48,0 c 2.076,0 3.76,1.619 3.76,3.615 l 0,0 0,180.769 c 0,1.998 -1.684,3.616 -3.76,3.616 l 0,0 -180.48,0 z" /></clipPath><linearGradient
       id="linearGradient56"
       spreadMethod="pad"
       gradientTransform="matrix(-185.84082,185.84082,185.84082,185.84082,220.92041,49.079597)"
       gradientUnits="userSpaceOnUse"
       y2="0"
       x2="1"
       y1="0"
       x1="0"><stop
         id="stop58"
         offset="0"
         style="stop-opacity:1;stop-color:#e6e7e8" /><stop
         id="stop60"
         offset="1"
         style="stop-opacity:1;stop-color:#d1d3d4" /></linearGradient><clipPath
       id="clipPath68"
       clipPathUnits="userSpaceOnUse"><path
         id="path70"
         d="M 0,256 256,256 256,0 0,0 0,256 Z" /></clipPath><clipPath
       id="clipPath80"
       clipPathUnits="userSpaceOnUse"><path
         id="path82"
         d="m 121.866,68 c -1.488,0 -2.376,-1.54 -1.55,-2.689 l 0,0 6.134,-8.541 c 0.737,-1.027 2.362,-1.027 3.1,0 l 0,0 6.134,8.541 C 136.509,66.46 135.622,68 134.134,68 l 0,0 -12.268,0 z" /></clipPath><linearGradient
       id="linearGradient88"
       spreadMethod="pad"
       gradientTransform="matrix(9.8808899,-9.8808899,-9.8808899,-9.8808899,123.05956,70.007782)"
       gradientUnits="userSpaceOnUse"
       y2="0"
       x2="1"
       y1="0"
       x1="0"><stop
         id="stop90"
         offset="0"
         style="stop-opacity:1;stop-color:#e6e7e8" /><stop
         id="stop92"
         offset="1"
         style="stop-opacity:1;stop-color:#d1d3d4" /></linearGradient><clipPath
       id="clipPath100"
       clipPathUnits="userSpaceOnUse"><path
         id="path102"
         d="M 0,256 256,256 256,0 0,0 0,256 Z" /></clipPath></defs><g
     transform="matrix(1.25,0,0,-1.25,0,320)"
     id="g10"><g
       id="g12"><g
         clip-path="url(#clipPath16)"
         id="g14"><g
           transform="translate(240.2582,44.4443)"
           id="g20"><path
             id="path22"
             style="fill:#999999;fill-opacity:1;fill-rule:nonzero;stroke:none"
             d="m 0,0 -1.42,0 c -2.632,2.186 -6.036,3.556 -9.806,3.556 l -202.064,0 c -3.771,0 -7.174,-1.37 -9.806,-3.556 l -1.42,0 c -2.067,0 -3.742,-1.592 -3.742,-3.555 l 0,-7.112 0,-3.555 c 0,-7.855 6.701,-14.222 14.968,-14.222 l 202.064,0 c 8.267,0 14.968,6.367 14.968,14.222 l 0,3.555 0,7.112 C 3.742,-1.592 2.066,0 0,0" /></g></g></g><g
       id="g24"><g
         clip-path="url(#clipPath28)"
         id="g26"><g
           id="g32"><g
             id="g34"><path
               id="path42"
               style="fill:url(#linearGradient36);stroke:none"
               d="M 26.968,240 C 18.701,240 12,233.249 12,224.923 l 0,0 0,-162.077 0,-15.077 C 12,45.688 13.676,44 15.742,44 l 0,0 224.517,0 c 2.066,0 3.741,1.688 3.741,3.769 l 0,0 0,15.077 0,162.077 C 244,233.249 237.298,240 229.032,240 l 0,0 -202.064,0 z" /></g></g></g></g><g
       id="g44"><g
         clip-path="url(#clipPath48)"
         id="g46"><g
           id="g52"><g
             id="g54"><path
               id="path62"
               style="fill:url(#linearGradient56);stroke:none"
               d="M 37.76,236 C 35.683,236 34,234.382 34,232.384 l 0,0 0,-180.769 C 34,49.619 35.683,48 37.76,48 l 0,0 180.48,0 c 2.076,0 3.76,1.619 3.76,3.615 l 0,0 0,180.769 c 0,1.998 -1.684,3.616 -3.76,3.616 l 0,0 -180.48,0 z" /></g></g></g></g><g
       id="g64"><g
         clip-path="url(#clipPath68)"
         id="g66"><g
           transform="translate(55.4498,220)"
           id="g72"><path
             id="path74"
             style="fill:#ffffff;fill-opacity:1;fill-rule:nonzero;stroke:none"
             d="m 0,0 145.101,0 c 4.114,0 7.449,-3.377 7.449,-7.543 l 0,-116.914 c 0,-4.166 -3.335,-7.543 -7.449,-7.543 L 0,-132 c -4.114,0 -7.45,3.377 -7.45,7.543 l 0,116.914 C -7.45,-3.377 -4.114,0 0,0" /></g></g></g><g
       id="g76"><g
         clip-path="url(#clipPath80)"
         id="g78"><g
           id="g84"><g
             id="g86"><path
               id="path94"
               style="fill:url(#linearGradient88);stroke:none"
               d="m 121.866,68 c -1.488,0 -2.376,-1.54 -1.55,-2.689 l 0,0 6.134,-8.541 c 0.737,-1.027 2.362,-1.027 3.1,0 l 0,0 6.134,8.541 C 136.509,66.46 135.622,68 134.134,68 l 0,0 -12.268,0 z" /></g></g></g></g><g
       id="g96"><g
         clip-path="url(#clipPath100)"
         id="g98"><g
           transform="translate(206.5,88)"
           id="g104"><path
             id="path106"
             style="fill:#999999;fill-opacity:1;fill-rule:nonzero;stroke:none"
             d="m 0,0 -157,0 c -0.828,0 -1.5,0.672 -1.5,1.5 l 0,38.5 160,0 0,-38.5 C 1.5,0.672 0.828,0 0,0" /></g></g></g></g></svg>