<?xml version="1.0" encoding="UTF-8" standalone="no"?>
<svg
   xmlns:dc="http://purl.org/dc/elements/1.1/"
   xmlns:cc="http://creativecommons.org/ns#"
   xmlns:rdf="http://www.w3.org/1999/02/22-rdf-syntax-ns#"
   xmlns:svg="http://www.w3.org/2000/svg"
   xmlns="http://www.w3.org/2000/svg"
   viewBox="0 0 320 320"
   height="320"
   width="320"
   xml:space="preserve"
   version="1.1"
   id="svg2"><metadata
     id="metadata8"><rdf:RDF><cc:Work
         rdf:about=""><dc:format>image/svg+xml</dc:format><dc:type
           rdf:resource="http://purl.org/dc/dcmitype/StillImage" /></cc:Work></rdf:RDF></metadata><defs
     id="defs6"><clipPath
       id="clipPath16"
       clipPathUnits="userSpaceOnUse"><path
         id="path18"
         d="m 72,144 0,-8 -1.526,0 C 66.899,135.998 64,132.419 64,128.002 l 0,0 c 0,-4.418 2.899,-8.001 6.474,-7.999 l 0,0 L 71.535,120 C 67.376,120 64,116.646 64,112.514 l 0,0 0,-93.029 C 64,15.35 67.376,11.999 71.536,12 l 0,0 112.931,0 c 4.16,-10e-4 7.533,3.35 7.533,7.485 l 0,0 -0.001,93.028 c 0.001,4.132 -3.372,7.486 -7.531,7.487 l 0,0 1.059,0 c 3.575,0.001 6.47,3.582 6.473,8.002 l 0,0 c 0.001,4.415 -2.9,7.998 -6.472,7.996 l 0,0 -1.528,0 0,8.002 -112,0 z m 112.468,-24 c -10e-4,0 -0.002,0 -0.003,0 l 0,0 0.003,0 z" /></clipPath><linearGradient
       id="linearGradient24"
       spreadMethod="pad"
       gradientTransform="matrix(123.80122,-123.80122,-123.80122,-123.80122,66.099747,138.09975)"
       gradientUnits="userSpaceOnUse"
       y2="0"
       x2="1"
       y1="0"
       x1="0"><stop
         id="stop26"
         offset="0"
         style="stop-opacity:1;stop-color:#e6e7e8" /><stop
         id="stop28"
         offset="1"
         style="stop-opacity:1;stop-color:#d1d3d4" /></linearGradient><clipPath
       id="clipPath36"
       clipPathUnits="userSpaceOnUse"><path
         id="path38"
         d="m 167.414,93.655 -20.373,-6.25 c -2.007,-0.629 -3.846,-1.793 -5.093,-3.487 l 0,0 C 140.715,82.246 140.001,80.189 140,78.001 l 0,0 c 0.002,-5.359 4.238,-9.747 9.536,-9.991 l 0,0 c 0.519,0.037 1.038,0.073 1.557,0.109 l 0,0 0.688,0.101 c 0.48,0.071 0.951,0.176 1.415,0.314 l 0,0 c 3.64,1.093 20.368,6.114 20.519,6.194 l 0,0 c 3.766,1.515 6.281,5.211 6.285,9.268 l 0,0 c -0.005,5.516 -4.49,10.002 -9.998,10.004 l 0,0 -0.001,0 c -0.003,0 -0.007,0 -0.01,0 l 0,0 c -0.853,0 -1.719,-0.117 -2.577,-0.345 m 5.323,-17.16 c 0.001,-0.001 0.003,-0.001 0.005,-0.001 l 0,0 c -10e-4,0 -0.002,0 -0.002,0 l 0,0 c -0.001,0 -0.002,0 -0.003,0.001" /></clipPath><linearGradient
       id="linearGradient44"
       spreadMethod="pad"
       gradientTransform="matrix(-21.1108,21.1108,21.1108,21.1108,170.55679,70.441681)"
       gradientUnits="userSpaceOnUse"
       y2="0"
       x2="1"
       y1="0"
       x1="0"><stop
         id="stop46"
         offset="0"
         style="stop-opacity:1;stop-color:#e6e7e8" /><stop
         id="stop48"
         offset="1"
         style="stop-opacity:1;stop-color:#d1d3d4" /></linearGradient><clipPath
       id="clipPath56"
       clipPathUnits="userSpaceOnUse"><path
         id="path58"
         d="m 72,244 c -4.418,0 -8,-3.582 -8,-8 l 0,0 0,-92 c 0,-4.418 3.582,-8 8,-8 l 0,0 112,0 c 4.419,0 8,3.582 8,8 l 0,0 0,92 c 0,4.418 -3.581,8 -8,8 l 0,0 -112,0 z" /></clipPath><linearGradient
       id="linearGradient64"
       spreadMethod="pad"
       gradientTransform="matrix(113.31371,-113.31371,-113.31371,-113.31371,71.343147,246.65686)"
       gradientUnits="userSpaceOnUse"
       y2="0"
       x2="1"
       y1="0"
       x1="0"><stop
         id="stop66"
         offset="0"
         style="stop-opacity:1;stop-color:#e6e7e8" /><stop
         id="stop68"
         offset="1"
         style="stop-opacity:1;stop-color:#d1d3d4" /></linearGradient><clipPath
       id="clipPath76"
       clipPathUnits="userSpaceOnUse"><path
         id="path78"
         d="M 0,256 256,256 256,0 0,0 0,256 Z" /></clipPath><clipPath
       id="clipPath88"
       clipPathUnits="userSpaceOnUse"><path
         id="path90"
         d="m 72,238 c 0,-1.105 0.895,-2.001 2,-2 l 0,0 c 1.105,-0.001 1.999,0.895 2,1.999 l 0,0 C 75.999,239.104 75.105,240 73.999,240 l 0,0 c -1.103,-0.001 -2,-0.897 -1.999,-2" /></clipPath><linearGradient
       id="linearGradient96"
       spreadMethod="pad"
       gradientTransform="matrix(-2.828388,2.828388,2.828388,2.828388,75.413895,236.58521)"
       gradientUnits="userSpaceOnUse"
       y2="0"
       x2="1"
       y1="0"
       x1="0"><stop
         id="stop98"
         offset="0"
         style="stop-opacity:1;stop-color:#e6e7e8" /><stop
         id="stop100"
         offset="1"
         style="stop-opacity:1;stop-color:#d1d3d4" /></linearGradient><clipPath
       id="clipPath108"
       clipPathUnits="userSpaceOnUse"><path
         id="path110"
         d="m 72,142 c 0,-1.104 0.895,-2 1.999,-2 l 0,0 c 1.105,0.001 2.001,0.896 2.001,2 l 0,0 c 0,1.104 -0.895,2 -2,2 l 0,0 c -1.104,0 -2,-0.896 -2,-2" /></clipPath><linearGradient
       id="linearGradient116"
       spreadMethod="pad"
       gradientTransform="matrix(-2.8280263,2.8280263,2.8280263,2.8280263,75.413788,140.58621)"
       gradientUnits="userSpaceOnUse"
       y2="0"
       x2="1"
       y1="0"
       x1="0"><stop
         id="stop118"
         offset="0"
         style="stop-opacity:1;stop-color:#e6e7e8" /><stop
         id="stop120"
         offset="1"
         style="stop-opacity:1;stop-color:#d1d3d4" /></linearGradient><clipPath
       id="clipPath128"
       clipPathUnits="userSpaceOnUse"><path
         id="path130"
         d="m 182,240 c -1.105,-0.001 -2,-0.895 -2,-1.999 l 0,0 c -0.001,-1.107 0.895,-2.002 2,-2.001 l 0,0 c 1.106,-0.001 1.999,0.894 2,2 l 0,0 c 0,1.104 -0.893,2 -1.999,2 l 0,0 c 0,0 -0.001,0 -0.001,0" /></clipPath><linearGradient
       id="linearGradient136"
       spreadMethod="pad"
       gradientTransform="matrix(-2.8287838,2.8287838,2.8287838,2.8287838,183.4144,236.58527)"
       gradientUnits="userSpaceOnUse"
       y2="0"
       x2="1"
       y1="0"
       x1="0"><stop
         id="stop138"
         offset="0"
         style="stop-opacity:1;stop-color:#e6e7e8" /><stop
         id="stop140"
         offset="1"
         style="stop-opacity:1;stop-color:#d1d3d4" /></linearGradient><clipPath
       id="clipPath148"
       clipPathUnits="userSpaceOnUse"><path
         id="path150"
         d="m 126,238.001 c -0.001,-1.106 0.896,-2.002 2.001,-2.001 l 0,0 c 1.104,0 2,0.896 1.999,2 l 0,0 c 0,1.104 -0.896,2 -2,2 l 0,0 c -1.104,0.001 -2.001,-0.896 -2,-1.999" /></clipPath><linearGradient
       id="linearGradient156"
       spreadMethod="pad"
       gradientTransform="matrix(-2.8286836,2.8286836,2.8286836,2.8286836,129.41406,236.58531)"
       gradientUnits="userSpaceOnUse"
       y2="0"
       x2="1"
       y1="0"
       x1="0"><stop
         id="stop158"
         offset="0"
         style="stop-opacity:1;stop-color:#e6e7e8" /><stop
         id="stop160"
         offset="1"
         style="stop-opacity:1;stop-color:#d1d3d4" /></linearGradient><clipPath
       id="clipPath168"
       clipPathUnits="userSpaceOnUse"><path
         id="path170"
         d="m 180,141.999 c -0.001,-1.106 0.894,-2 2,-1.999 l 0,0 c 1.105,-0.001 2.001,0.895 2,2 l 0,0 c 0,1.104 -0.894,2 -2,2 l 0,0 c -1.105,0 -2.001,-0.896 -2,-2.001" /></clipPath><linearGradient
       id="linearGradient176"
       spreadMethod="pad"
       gradientTransform="matrix(-2.8292446,2.8292446,2.8292446,2.8292446,183.4144,140.58481)"
       gradientUnits="userSpaceOnUse"
       y2="0"
       x2="1"
       y1="0"
       x1="0"><stop
         id="stop178"
         offset="0"
         style="stop-opacity:1;stop-color:#e6e7e8" /><stop
         id="stop180"
         offset="1"
         style="stop-opacity:1;stop-color:#d1d3d4" /></linearGradient><clipPath
       id="clipPath188"
       clipPathUnits="userSpaceOnUse"><path
         id="path190"
         d="M 0,256 256,256 256,0 0,0 0,256 Z" /></clipPath><clipPath
       id="clipPath204"
       clipPathUnits="userSpaceOnUse"><path
         id="path206"
         d="m 124,108.003 c 0,-2.212 1.792,-4.003 4,-4.003 l 0,0 c 2.207,0.001 3.998,1.793 4,4 l 0,0 c 0,2.209 -1.792,4 -4,4 l 0,0 c -2.208,0 -4,-1.791 -4,-3.997" /></clipPath><linearGradient
       id="linearGradient212"
       spreadMethod="pad"
       gradientTransform="matrix(5.6554775,-5.6554775,-5.6554775,-5.6554775,125.17185,110.82842)"
       gradientUnits="userSpaceOnUse"
       y2="0"
       x2="1"
       y1="0"
       x1="0"><stop
         id="stop214"
         offset="0"
         style="stop-opacity:1;stop-color:#e6e7e8" /><stop
         id="stop216"
         offset="1"
         style="stop-opacity:1;stop-color:#d1d3d4" /></linearGradient><clipPath
       id="clipPath224"
       clipPathUnits="userSpaceOnUse"><path
         id="path226"
         d="M 114,26.001 C 114.001,23.791 115.791,22 118,22 l 0,0 c 2.209,-0.001 4.001,1.791 4,4.001 l 0,0 C 122,28.21 120.209,30 118.001,30 l 0,0 C 115.791,30.001 114,28.21 114,26.001" /></clipPath><linearGradient
       id="linearGradient232"
       spreadMethod="pad"
       gradientTransform="matrix(5.65764,-5.65764,-5.65764,-5.65764,115.17177,28.828846)"
       gradientUnits="userSpaceOnUse"
       y2="0"
       x2="1"
       y1="0"
       x1="0"><stop
         id="stop234"
         offset="0"
         style="stop-opacity:1;stop-color:#e6e7e8" /><stop
         id="stop236"
         offset="1"
         style="stop-opacity:1;stop-color:#d1d3d4" /></linearGradient><clipPath
       id="clipPath244"
       clipPathUnits="userSpaceOnUse"><path
         id="path246"
         d="M 0,256 256,256 256,0 0,0 0,256 Z" /></clipPath><clipPath
       id="clipPath256"
       clipPathUnits="userSpaceOnUse"><path
         id="path258"
         d="M 134,26.001 C 134.001,23.791 135.792,22 138,22 l 0,0 c 2.21,-0.001 4.001,1.791 4,4.001 l 0,0 C 142,28.21 140.21,30 138.001,30 l 0,0 C 135.792,30.001 134,28.21 134,26.001" /></clipPath><linearGradient
       id="linearGradient264"
       spreadMethod="pad"
       gradientTransform="matrix(5.65764,-5.65764,-5.65764,-5.65764,135.17177,28.828846)"
       gradientUnits="userSpaceOnUse"
       y2="0"
       x2="1"
       y1="0"
       x1="0"><stop
         id="stop266"
         offset="0"
         style="stop-opacity:1;stop-color:#e6e7e8" /><stop
         id="stop268"
         offset="1"
         style="stop-opacity:1;stop-color:#d1d3d4" /></linearGradient><clipPath
       id="clipPath276"
       clipPathUnits="userSpaceOnUse"><path
         id="path278"
         d="M 76,80.001 C 76.001,68.972 84.974,60 95.999,60 l 0,0 C 107.027,60 116,68.972 116,80 l 0,0 c 0,11.027 -8.972,19.999 -20.001,20 l 0,0 C 84.972,100 76,91.029 76,80.001" /></clipPath><linearGradient
       id="linearGradient284"
       spreadMethod="pad"
       gradientTransform="matrix(-28.270918,28.270918,28.270918,28.270918,110.13538,65.865143)"
       gradientUnits="userSpaceOnUse"
       y2="0"
       x2="1"
       y1="0"
       x1="0"><stop
         id="stop286"
         offset="0"
         style="stop-opacity:1;stop-color:#e6e7e8" /><stop
         id="stop288"
         offset="1"
         style="stop-opacity:1;stop-color:#d1d3d4" /></linearGradient><clipPath
       id="clipPath296"
       clipPathUnits="userSpaceOnUse"><path
         id="path298"
         d="M 0,256 256,256 256,0 0,0 0,256 Z" /></clipPath><clipPath
       id="clipPath388"
       clipPathUnits="userSpaceOnUse"><path
         id="path390"
         d="M 92,80.001 C 91.999,77.791 93.789,76 95.999,76 l 0,0 c 2.209,-0.001 4,1.79 4.001,3.999 l 0,0 C 99.999,82.209 98.206,84 95.999,84 l 0,0 C 93.791,84 92,82.209 92,80.001" /></clipPath><linearGradient
       id="linearGradient396"
       spreadMethod="pad"
       gradientTransform="matrix(-5.6571183,5.6571183,5.6571183,5.6571183,98.827759,77.170784)"
       gradientUnits="userSpaceOnUse"
       y2="0"
       x2="1"
       y1="0"
       x1="0"><stop
         id="stop398"
         offset="0"
         style="stop-opacity:1;stop-color:#e6e7e8" /><stop
         id="stop400"
         offset="1"
         style="stop-opacity:1;stop-color:#d1d3d4" /></linearGradient><clipPath
       id="clipPath408"
       clipPathUnits="userSpaceOnUse"><path
         id="path410"
         d="m 80,224 0,-63.997 96,-0.003 0,64 -96,0 z" /></clipPath><linearGradient
       id="linearGradient416"
       spreadMethod="pad"
       gradientTransform="matrix(-80,80,80,80,168.00066,152.00066)"
       gradientUnits="userSpaceOnUse"
       y2="0"
       x2="1"
       y1="0"
       x1="0"><stop
         id="stop418"
         offset="0"
         style="stop-opacity:1;stop-color:#e6e7e8" /><stop
         id="stop420"
         offset="1"
         style="stop-opacity:1;stop-color:#d1d3d4" /></linearGradient><clipPath
       id="clipPath428"
       clipPathUnits="userSpaceOnUse"><path
         id="path430"
         d="m 76,120 52,0 0,14 -52,0 0,-14 z" /></clipPath><linearGradient
       id="linearGradient436"
       spreadMethod="pad"
       gradientTransform="matrix(-33,33,33,33,118.5,110.5)"
       gradientUnits="userSpaceOnUse"
       y2="0"
       x2="1"
       y1="0"
       x1="0"><stop
         id="stop438"
         offset="0"
         style="stop-opacity:1;stop-color:#e6e7e8" /><stop
         id="stop440"
         offset="1"
         style="stop-opacity:1;stop-color:#d1d3d4" /></linearGradient><clipPath
       id="clipPath448"
       clipPathUnits="userSpaceOnUse"><path
         id="path450"
         d="m 174,120 10,0 0,14 -10,0 0,-14 z" /></clipPath><linearGradient
       id="linearGradient456"
       spreadMethod="pad"
       gradientTransform="matrix(-11.999999,11.999999,11.999999,11.999999,185,121)"
       gradientUnits="userSpaceOnUse"
       y2="0"
       x2="1"
       y1="0"
       x1="0"><stop
         id="stop458"
         offset="0"
         style="stop-opacity:1;stop-color:#e6e7e8" /><stop
         id="stop460"
         offset="1"
         style="stop-opacity:1;stop-color:#d1d3d4" /></linearGradient><clipPath
       id="clipPath468"
       clipPathUnits="userSpaceOnUse"><path
         id="path470"
         d="m 130,120 42,0 0,14 -42,0 0,-14 z" /></clipPath><linearGradient
       id="linearGradient476"
       spreadMethod="pad"
       gradientTransform="matrix(-28,28,28,28,165,113)"
       gradientUnits="userSpaceOnUse"
       y2="0"
       x2="1"
       y1="0"
       x1="0"><stop
         id="stop478"
         offset="0"
         style="stop-opacity:1;stop-color:#e6e7e8" /><stop
         id="stop480"
         offset="1"
         style="stop-opacity:1;stop-color:#d1d3d4" /></linearGradient></defs><g
     transform="matrix(1.25,0,0,-1.25,0,320)"
     id="g10"><g
       id="g12"><g
         clip-path="url(#clipPath16)"
         id="g14"><g
           id="g20"><g
             id="g22"><path
               id="path30"
               style="fill:url(#linearGradient24);stroke:none"
               d="m 72,144 0,-8 -1.526,0 C 66.899,135.998 64,132.419 64,128.002 l 0,0 c 0,-4.418 2.899,-8.001 6.474,-7.999 l 0,0 L 71.535,120 C 67.376,120 64,116.646 64,112.514 l 0,0 0,-93.029 C 64,15.35 67.376,11.999 71.536,12 l 0,0 112.931,0 c 4.16,-10e-4 7.533,3.35 7.533,7.485 l 0,0 -0.001,93.028 c 0.001,4.132 -3.372,7.486 -7.531,7.487 l 0,0 1.059,0 c 3.575,0.001 6.47,3.582 6.473,8.002 l 0,0 c 0.001,4.415 -2.9,7.998 -6.472,7.996 l 0,0 -1.528,0 0,8.002 -112,0 z m 112.468,-24 c -10e-4,0 -0.002,0 -0.003,0 l 0,0 0.003,0 z" /></g></g></g></g><g
       id="g32"><g
         clip-path="url(#clipPath36)"
         id="g34"><g
           id="g40"><g
             id="g42"><path
               id="path50"
               style="fill:url(#linearGradient44);stroke:none"
               d="m 167.414,93.655 -20.373,-6.25 c -2.007,-0.629 -3.846,-1.793 -5.093,-3.487 l 0,0 C 140.715,82.246 140.001,80.189 140,78.001 l 0,0 c 0.002,-5.359 4.238,-9.747 9.536,-9.991 l 0,0 c 0.519,0.037 1.038,0.073 1.557,0.109 l 0,0 0.688,0.101 c 0.48,0.071 0.951,0.176 1.415,0.314 l 0,0 c 3.64,1.093 20.368,6.114 20.519,6.194 l 0,0 c 3.766,1.515 6.281,5.211 6.285,9.268 l 0,0 c -0.005,5.516 -4.49,10.002 -9.998,10.004 l 0,0 -0.001,0 c -0.003,0 -0.007,0 -0.01,0 l 0,0 c -0.853,0 -1.719,-0.117 -2.577,-0.345 m 5.323,-17.16 c 0.001,-0.001 0.003,-0.001 0.005,-0.001 l 0,0 c -10e-4,0 -0.002,0 -0.002,0 l 0,0 c -0.001,0 -0.002,0 -0.003,0.001" /></g></g></g></g><g
       id="g52"><g
         clip-path="url(#clipPath56)"
         id="g54"><g
           id="g60"><g
             id="g62"><path
               id="path70"
               style="fill:url(#linearGradient64);stroke:none"
               d="m 72,244 c -4.418,0 -8,-3.582 -8,-8 l 0,0 0,-92 c 0,-4.418 3.582,-8 8,-8 l 0,0 112,0 c 4.419,0 8,3.582 8,8 l 0,0 0,92 c 0,4.418 -3.581,8 -8,8 l 0,0 -112,0 z" /></g></g></g></g><g
       id="g72"><g
         clip-path="url(#clipPath76)"
         id="g74"><g
           transform="translate(183.9984,155.5833)"
           id="g80"><path
             id="path82"
             style="fill:#999999;fill-opacity:1;fill-rule:nonzero;stroke:none"
             d="m 0,0 c 0.003,-4.189 -3.375,-7.585 -7.544,-7.583 l -96.911,0 c -4.164,0 -7.542,3.395 -7.543,7.583 l 0,68.832 c -0.002,4.188 3.379,7.583 7.543,7.583 l 96.913,0.002 C -3.377,76.415 0.001,73.02 0.002,68.833 L 0,0 Z" /></g></g></g><g
       id="g84"><g
         clip-path="url(#clipPath88)"
         id="g86"><g
           id="g92"><g
             id="g94"><path
               id="path102"
               style="fill:url(#linearGradient96);stroke:none"
               d="m 72,238 c 0,-1.105 0.895,-2.001 2,-2 l 0,0 c 1.105,-0.001 1.999,0.895 2,1.999 l 0,0 C 75.999,239.104 75.105,240 73.999,240 l 0,0 c -1.103,-0.001 -2,-0.897 -1.999,-2" /></g></g></g></g><g
       id="g104"><g
         clip-path="url(#clipPath108)"
         id="g106"><g
           id="g112"><g
             id="g114"><path
               id="path122"
               style="fill:url(#linearGradient116);stroke:none"
               d="m 72,142 c 0,-1.104 0.895,-2 1.999,-2 l 0,0 c 1.105,0.001 2.001,0.896 2.001,2 l 0,0 c 0,1.104 -0.895,2 -2,2 l 0,0 c -1.104,0 -2,-0.896 -2,-2" /></g></g></g></g><g
       id="g124"><g
         clip-path="url(#clipPath128)"
         id="g126"><g
           id="g132"><g
             id="g134"><path
               id="path142"
               style="fill:url(#linearGradient136);stroke:none"
               d="m 182,240 c -1.105,-0.001 -2,-0.895 -2,-1.999 l 0,0 c -0.001,-1.107 0.895,-2.002 2,-2.001 l 0,0 c 1.106,-0.001 1.999,0.894 2,2 l 0,0 c 0,1.104 -0.893,2 -1.999,2 l 0,0 c 0,0 -0.001,0 -0.001,0" /></g></g></g></g><g
       id="g144"><g
         clip-path="url(#clipPath148)"
         id="g146"><g
           id="g152"><g
             id="g154"><path
               id="path162"
               style="fill:url(#linearGradient156);stroke:none"
               d="m 126,238.001 c -0.001,-1.106 0.896,-2.002 2.001,-2.001 l 0,0 c 1.104,0 2,0.896 1.999,2 l 0,0 c 0,1.104 -0.896,2 -2,2 l 0,0 c -1.104,0.001 -2.001,-0.896 -2,-1.999" /></g></g></g></g><g
       id="g164"><g
         clip-path="url(#clipPath168)"
         id="g166"><g
           id="g172"><g
             id="g174"><path
               id="path182"
               style="fill:url(#linearGradient176);stroke:none"
               d="m 180,141.999 c -0.001,-1.106 0.894,-2 2,-1.999 l 0,0 c 1.105,-0.001 2.001,0.895 2,2 l 0,0 c 0,1.104 -0.894,2 -2,2 l 0,0 c -1.105,0 -2.001,-0.896 -2,-2.001" /></g></g></g></g><g
       id="g184"><g
         clip-path="url(#clipPath188)"
         id="g186"><g
           transform="translate(112,26.0006)"
           id="g192"><path
             id="path194"
             style="fill:#999999;fill-opacity:1;fill-rule:nonzero;stroke:none"
             d="M 0,0 C 0,3.307 2.692,5.999 5.999,5.999 9.308,6 12,3.308 12,-0.001 12,-3.308 9.308,-6 6.001,-6.001 2.691,-6.001 -0.001,-3.309 0,0" /></g><g
           transform="translate(128.0001,113)"
           id="g196"><path
             id="path198"
             style="fill:#999999;fill-opacity:1;fill-rule:nonzero;stroke:none"
             d="M 0,0 C -2.757,0 -5,-2.242 -5,-4.997 -5,-7.756 -2.757,-10 0,-10 2.756,-9.998 4.998,-7.756 5,-5.001 5,-3.665 4.48,-2.409 3.535,-1.465 2.591,-0.52 1.335,0 0,0" /></g></g></g><g
       id="g200"><g
         clip-path="url(#clipPath204)"
         id="g202"><g
           id="g208"><g
             id="g210"><path
               id="path218"
               style="fill:url(#linearGradient212);stroke:none"
               d="m 124,108.003 c 0,-2.212 1.792,-4.003 4,-4.003 l 0,0 c 2.207,0.001 3.998,1.793 4,4 l 0,0 c 0,2.209 -1.792,4 -4,4 l 0,0 c -2.208,0 -4,-1.791 -4,-3.997" /></g></g></g></g><g
       id="g220"><g
         clip-path="url(#clipPath224)"
         id="g222"><g
           id="g228"><g
             id="g230"><path
               id="path238"
               style="fill:url(#linearGradient232);stroke:none"
               d="M 114,26.001 C 114.001,23.791 115.791,22 118,22 l 0,0 c 2.209,-0.001 4.001,1.791 4,4.001 l 0,0 C 122,28.21 120.209,30 118.001,30 l 0,0 C 115.791,30.001 114,28.21 114,26.001" /></g></g></g></g><g
       id="g240"><g
         clip-path="url(#clipPath244)"
         id="g242"><g
           transform="translate(132,26.0006)"
           id="g248"><path
             id="path250"
             style="fill:#999999;fill-opacity:1;fill-rule:nonzero;stroke:none"
             d="M 0,0 C 0,3.307 2.692,5.999 5.999,5.999 9.308,6 12,3.308 12,-0.001 12,-3.308 9.308,-6 6.001,-6.001 2.691,-6.001 -0.001,-3.309 0,0" /></g></g></g><g
       id="g252"><g
         clip-path="url(#clipPath256)"
         id="g254"><g
           id="g260"><g
             id="g262"><path
               id="path270"
               style="fill:url(#linearGradient264);stroke:none"
               d="M 134,26.001 C 134.001,23.791 135.792,22 138,22 l 0,0 c 2.21,-0.001 4.001,1.791 4,4.001 l 0,0 C 142,28.21 140.21,30 138.001,30 l 0,0 C 135.792,30.001 134,28.21 134,26.001" /></g></g></g></g><g
       id="g272"><g
         clip-path="url(#clipPath276)"
         id="g274"><g
           id="g280"><g
             id="g282"><path
               id="path290"
               style="fill:url(#linearGradient284);stroke:none"
               d="M 76,80.001 C 76.001,68.972 84.974,60 95.999,60 l 0,0 C 107.027,60 116,68.972 116,80 l 0,0 c 0,11.027 -8.972,19.999 -20.001,20 l 0,0 C 84.972,100 76,91.029 76,80.001" /></g></g></g></g><g
       id="g292"><g
         clip-path="url(#clipPath296)"
         id="g294"><g
           transform="translate(156,78)"
           id="g300"><path
             id="path302"
             style="fill:#999999;fill-opacity:1;fill-rule:nonzero;stroke:none"
             d="m 0,0 c -0.001,-3.314 -2.686,-5.999 -6,-6 -3.312,0 -5.999,2.686 -6,6 10e-4,3.314 2.686,5.999 6,6 3.315,0 6.001,-2.686 6,-6" /></g><g
           transform="translate(176,84)"
           id="g304"><path
             id="path306"
             style="fill:#999999;fill-opacity:1;fill-rule:nonzero;stroke:none"
             d="m 0,0 c -0.003,-3.315 -2.689,-5.998 -6,-6 -3.315,0 -6,2.685 -6,6 -10e-4,3.314 2.685,6 6,6 3.311,-0.001 5.997,-2.688 6,-6" /></g><g
           transform="translate(191.9994,107.4266)"
           id="g308"><path
             id="path310"
             style="fill:#999999;fill-opacity:1;fill-rule:nonzero;stroke:none"
             d="m 0,0 -4.909,0 -0.002,3.113 4.909,0 L 0,0 Z" /></g><g
           transform="translate(191.9203,99.2998)"
           id="g312"><path
             id="path314"
             style="fill:#999999;fill-opacity:1;fill-rule:nonzero;stroke:none"
             d="m 0,0 -4.909,0 0,3.111 L 0,3.114 0,0 Z" /></g><g
           transform="translate(120,62.9987)"
           id="g316"><path
             id="path318"
             style="fill:#999999;fill-opacity:1;fill-rule:nonzero;stroke:none"
             d="M 0,0 C 0.001,-0.55 -0.448,-0.999 -0.999,-0.999 -1.552,-0.999 -2.001,-0.55 -2,0 -2,0.554 -1.551,1.003 -0.999,1.001 -0.447,1.001 -0.001,0.552 0,0" /></g><g
           transform="translate(120,56.9987)"
           id="g320"><path
             id="path322"
             style="fill:#999999;fill-opacity:1;fill-rule:nonzero;stroke:none"
             d="M 0,0 C 0.001,-0.55 -0.448,-0.999 -0.999,-0.999 -1.552,-0.999 -2.001,-0.55 -2,0 -2,0.554 -1.551,1.003 -0.999,1.001 -0.447,1.001 -0.001,0.552 0,0" /></g><g
           transform="translate(120,50.9987)"
           id="g324"><path
             id="path326"
             style="fill:#999999;fill-opacity:1;fill-rule:nonzero;stroke:none"
             d="M 0,0 C 0.001,-0.55 -0.448,-0.999 -0.999,-0.999 -1.552,-0.999 -2.001,-0.55 -2,0 -2,0.554 -1.551,1.003 -0.999,1.001 -0.447,1.001 -0.001,0.552 0,0" /></g><g
           transform="translate(120,44.9987)"
           id="g328"><path
             id="path330"
             style="fill:#999999;fill-opacity:1;fill-rule:nonzero;stroke:none"
             d="M 0,0 C 0.001,-0.55 -0.448,-0.999 -0.999,-0.999 -1.552,-0.999 -2.001,-0.55 -2,0 -2,0.554 -1.551,1.003 -0.999,1.001 -0.447,1.001 -0.001,0.552 0,0" /></g><g
           transform="translate(126,62.9987)"
           id="g332"><path
             id="path334"
             style="fill:#999999;fill-opacity:1;fill-rule:nonzero;stroke:none"
             d="M 0,0 C 0.001,-0.55 -0.448,-0.999 -0.999,-0.999 -1.552,-0.999 -2.001,-0.55 -2,0 -2,0.554 -1.551,1.003 -0.999,1.001 -0.447,1.001 -0.001,0.552 0,0" /></g><g
           transform="translate(126,56.9987)"
           id="g336"><path
             id="path338"
             style="fill:#999999;fill-opacity:1;fill-rule:nonzero;stroke:none"
             d="M 0,0 C 0.001,-0.55 -0.448,-0.999 -0.999,-0.999 -1.552,-0.999 -2.001,-0.55 -2,0 -2,0.554 -1.551,1.003 -0.999,1.001 -0.447,1.001 -0.001,0.552 0,0" /></g><g
           transform="translate(126,50.9987)"
           id="g340"><path
             id="path342"
             style="fill:#999999;fill-opacity:1;fill-rule:nonzero;stroke:none"
             d="M 0,0 C 0.001,-0.55 -0.448,-0.999 -0.999,-0.999 -1.552,-0.999 -2.001,-0.55 -2,0 -2,0.554 -1.551,1.003 -0.999,1.001 -0.447,1.001 -0.001,0.552 0,0" /></g><g
           transform="translate(126,44.9987)"
           id="g344"><path
             id="path346"
             style="fill:#999999;fill-opacity:1;fill-rule:nonzero;stroke:none"
             d="M 0,0 C 0.001,-0.55 -0.448,-0.999 -0.999,-0.999 -1.552,-0.999 -2.001,-0.55 -2,0 -2,0.554 -1.551,1.003 -0.999,1.001 -0.447,1.001 -0.001,0.552 0,0" /></g><g
           transform="translate(132,62.9987)"
           id="g348"><path
             id="path350"
             style="fill:#999999;fill-opacity:1;fill-rule:nonzero;stroke:none"
             d="M 0,0 C 0.001,-0.55 -0.448,-0.999 -0.999,-0.999 -1.552,-0.999 -2.001,-0.55 -2,0 -2,0.554 -1.551,1.003 -0.999,1.001 -0.447,1.001 -0.001,0.552 0,0" /></g><g
           transform="translate(132,56.9987)"
           id="g352"><path
             id="path354"
             style="fill:#999999;fill-opacity:1;fill-rule:nonzero;stroke:none"
             d="M 0,0 C 0.001,-0.55 -0.448,-0.999 -0.999,-0.999 -1.552,-0.999 -2.001,-0.55 -2,0 -2,0.554 -1.551,1.003 -0.999,1.001 -0.447,1.001 -0.001,0.552 0,0" /></g><g
           transform="translate(132,50.9987)"
           id="g356"><path
             id="path358"
             style="fill:#999999;fill-opacity:1;fill-rule:nonzero;stroke:none"
             d="M 0,0 C 0.001,-0.55 -0.448,-0.999 -0.999,-0.999 -1.552,-0.999 -2.001,-0.55 -2,0 -2,0.554 -1.551,1.003 -0.999,1.001 -0.447,1.001 -0.001,0.552 0,0" /></g><g
           transform="translate(132,44.9987)"
           id="g360"><path
             id="path362"
             style="fill:#999999;fill-opacity:1;fill-rule:nonzero;stroke:none"
             d="M 0,0 C 0.001,-0.55 -0.448,-0.999 -0.999,-0.999 -1.552,-0.999 -2.001,-0.55 -2,0 -2,0.554 -1.551,1.003 -0.999,1.001 -0.447,1.001 -0.001,0.552 0,0" /></g><g
           transform="translate(138,62.9987)"
           id="g364"><path
             id="path366"
             style="fill:#999999;fill-opacity:1;fill-rule:nonzero;stroke:none"
             d="M 0,0 C 0.001,-0.55 -0.448,-0.999 -0.999,-0.999 -1.552,-0.999 -2.001,-0.55 -2,0 -2,0.554 -1.551,1.003 -0.999,1.001 -0.447,1.001 -0.001,0.552 0,0" /></g><g
           transform="translate(138,56.9987)"
           id="g368"><path
             id="path370"
             style="fill:#999999;fill-opacity:1;fill-rule:nonzero;stroke:none"
             d="M 0,0 C 0.001,-0.55 -0.448,-0.999 -0.999,-0.999 -1.552,-0.999 -2.001,-0.55 -2,0 -2,0.554 -1.551,1.003 -0.999,1.001 -0.447,1.001 -0.001,0.552 0,0" /></g><g
           transform="translate(138,50.9987)"
           id="g372"><path
             id="path374"
             style="fill:#999999;fill-opacity:1;fill-rule:nonzero;stroke:none"
             d="M 0,0 C 0.001,-0.55 -0.448,-0.999 -0.999,-0.999 -1.552,-0.999 -2.001,-0.55 -2,0 -2,0.554 -1.551,1.003 -0.999,1.001 -0.447,1.001 -0.001,0.552 0,0" /></g><g
           transform="translate(138,44.9987)"
           id="g376"><path
             id="path378"
             style="fill:#999999;fill-opacity:1;fill-rule:nonzero;stroke:none"
             d="M 0,0 C 0.001,-0.55 -0.448,-0.999 -0.999,-0.999 -1.552,-0.999 -2.001,-0.55 -2,0 -2,0.554 -1.551,1.003 -0.999,1.001 -0.447,1.001 -0.001,0.552 0,0" /></g><g
           transform="translate(111,85)"
           id="g380"><path
             id="path382"
             style="fill:#999999;fill-opacity:1;fill-rule:nonzero;stroke:none"
             d="m 0,0 -10,0 0,10 c 0,0.552 -2.239,1 -5,1 -2.761,0 -5,-0.448 -5,-1 l 0,-10 -10,0 c -0.552,0 -1,-2.239 -1,-5 0,-2.761 0.448,-5 1,-5 l 10,0 0,-10 c 0,-0.552 2.239,-1 5,-1 2.761,0 5,0.448 5,1 l 0,10 10,0 c 0.552,0 1,2.239 1,5 0,2.761 -0.448,5 -1,5" /></g></g></g><g
       id="g384"><g
         clip-path="url(#clipPath388)"
         id="g386"><g
           id="g392"><g
             id="g394"><path
               id="path402"
               style="fill:url(#linearGradient396);stroke:none"
               d="M 92,80.001 C 91.999,77.791 93.789,76 95.999,76 l 0,0 c 2.209,-0.001 4,1.79 4.001,3.999 l 0,0 C 99.999,82.209 98.206,84 95.999,84 l 0,0 C 93.791,84 92,82.209 92,80.001" /></g></g></g></g><g
       id="g404"><g
         clip-path="url(#clipPath408)"
         id="g406"><g
           id="g412"><g
             id="g414"><path
               id="path422"
               style="fill:url(#linearGradient416);stroke:none"
               d="m 80,224 0,-63.997 96,-0.003 0,64 -96,0 z" /></g></g></g></g><g
       id="g424"><g
         clip-path="url(#clipPath428)"
         id="g426"><g
           id="g432"><g
             id="g434"><path
               id="path442"
               style="fill:url(#linearGradient436);stroke:none"
               d="m 76,120 52,0 0,14 -52,0 0,-14 z" /></g></g></g></g><g
       id="g444"><g
         clip-path="url(#clipPath448)"
         id="g446"><g
           id="g452"><g
             id="g454"><path
               id="path462"
               style="fill:url(#linearGradient456);stroke:none"
               d="m 174,120 10,0 0,14 -10,0 0,-14 z" /></g></g></g></g><g
       id="g464"><g
         clip-path="url(#clipPath468)"
         id="g466"><g
           id="g472"><g
             id="g474"><path
               id="path482"
               style="fill:url(#linearGradient476);stroke:none"
               d="m 130,120 42,0 0,14 -42,0 0,-14 z" /></g></g></g></g></g></svg>