<?xml version="1.0" encoding="UTF-8" standalone="no"?>
<svg
   xmlns:dc="http://purl.org/dc/elements/1.1/"
   xmlns:cc="http://creativecommons.org/ns#"
   xmlns:rdf="http://www.w3.org/1999/02/22-rdf-syntax-ns#"
   xmlns:svg="http://www.w3.org/2000/svg"
   xmlns="http://www.w3.org/2000/svg"
   viewBox="0 0 320 320"
   height="320"
   width="320"
   xml:space="preserve"
   version="1.1"
   id="svg2"><metadata
     id="metadata8"><rdf:RDF><cc:Work
         rdf:about=""><dc:format>image/svg+xml</dc:format><dc:type
           rdf:resource="http://purl.org/dc/dcmitype/StillImage" /></cc:Work></rdf:RDF></metadata><defs
     id="defs6"><clipPath
       id="clipPath16"
       clipPathUnits="userSpaceOnUse"><path
         id="path18"
         d="M 116.603,240.739 26,234.948 c 0,0 -12,0 -12,-11.99 l 0,0 0,-47.958 48,0 c 0,0 20,19.982 64,19.982 l 0,0 c 44,0 64,-19.982 64,-19.982 l 0,0 52,0 0,47.958 c 0,0 0,11.99 -12,11.99 l 0,0 c -9.795,0 -73.551,4.215 -96.656,5.765 l 0,0 c -2.854,0.191 -5.713,0.287 -8.571,0.287 l 0,0 c -2.724,0 -5.448,-0.087 -8.17,-0.261" /></clipPath><linearGradient
       id="linearGradient24"
       spreadMethod="pad"
       gradientTransform="matrix(140.64211,-140.64211,-140.64211,-140.64211,57.678844,271.96307)"
       gradientUnits="userSpaceOnUse"
       y2="0"
       x2="1"
       y1="0"
       x1="0"><stop
         id="stop26"
         offset="0"
         style="stop-opacity:1;stop-color:#e6e7e8" /><stop
         id="stop28"
         offset="1"
         style="stop-opacity:1;stop-color:#d1d3d4" /></linearGradient><clipPath
       id="clipPath36"
       clipPathUnits="userSpaceOnUse"><path
         id="path38"
         d="m 30,197.942 c 0,-2.208 1.791,-3.999 4,-3.999 l 0,0 c 2.209,0 4,1.791 4,3.999 l 0,0 c 0,2.21 -1.791,4 -4,4 l 0,0 c -2.209,0 -4,-1.79 -4,-4" /></clipPath><linearGradient
       id="linearGradient44"
       spreadMethod="pad"
       gradientTransform="matrix(5.6568542,-5.6568542,-5.6568542,-5.6568542,31.171574,200.77097)"
       gradientUnits="userSpaceOnUse"
       y2="0"
       x2="1"
       y1="0"
       x1="0"><stop
         id="stop46"
         offset="0"
         style="stop-opacity:1;stop-color:#e6e7e8" /><stop
         id="stop48"
         offset="1"
         style="stop-opacity:1;stop-color:#d1d3d4" /></linearGradient><clipPath
       id="clipPath56"
       clipPathUnits="userSpaceOnUse"><path
         id="path58"
         d="m 32,197.942 c 0,-1.104 0.896,-1.999 2,-1.999 l 0,0 c 1.105,0 2,0.895 2,1.999 l 0,0 c 0,1.105 -0.895,2 -2,2 l 0,0 c -1.104,0 -2,-0.895 -2,-2" /></clipPath><linearGradient
       id="linearGradient64"
       spreadMethod="pad"
       gradientTransform="matrix(-2.8284271,2.8284271,2.8284271,2.8284271,35.414215,196.52832)"
       gradientUnits="userSpaceOnUse"
       y2="0"
       x2="1"
       y1="0"
       x1="0"><stop
         id="stop66"
         offset="0"
         style="stop-opacity:1;stop-color:#e6e7e8" /><stop
         id="stop68"
         offset="1"
         style="stop-opacity:1;stop-color:#d1d3d4" /></linearGradient><clipPath
       id="clipPath76"
       clipPathUnits="userSpaceOnUse"><path
         id="path78"
         d="m 218,197.942 c 0,-2.208 1.791,-3.999 4,-3.999 l 0,0 c 2.209,0 4,1.791 4,3.999 l 0,0 c 0,2.21 -1.791,4 -4,4 l 0,0 c -2.209,0 -4,-1.79 -4,-4" /></clipPath><linearGradient
       id="linearGradient84"
       spreadMethod="pad"
       gradientTransform="matrix(5.6568542,-5.6568542,-5.6568542,-5.6568542,219.17157,200.77097)"
       gradientUnits="userSpaceOnUse"
       y2="0"
       x2="1"
       y1="0"
       x1="0"><stop
         id="stop86"
         offset="0"
         style="stop-opacity:1;stop-color:#e6e7e8" /><stop
         id="stop88"
         offset="1"
         style="stop-opacity:1;stop-color:#d1d3d4" /></linearGradient><clipPath
       id="clipPath96"
       clipPathUnits="userSpaceOnUse"><path
         id="path98"
         d="m 220,197.942 c 0,-1.104 0.895,-1.999 2,-1.999 l 0,0 c 1.105,0 2,0.895 2,1.999 l 0,0 c 0,1.105 -0.895,2 -2,2 l 0,0 c -1.105,0 -2,-0.895 -2,-2" /></clipPath><linearGradient
       id="linearGradient104"
       spreadMethod="pad"
       gradientTransform="matrix(-2.8284271,2.8284271,2.8284271,2.8284271,223.41422,196.52832)"
       gradientUnits="userSpaceOnUse"
       y2="0"
       x2="1"
       y1="0"
       x1="0"><stop
         id="stop106"
         offset="0"
         style="stop-opacity:1;stop-color:#e6e7e8" /><stop
         id="stop108"
         offset="1"
         style="stop-opacity:1;stop-color:#d1d3d4" /></linearGradient><clipPath
       id="clipPath116"
       clipPathUnits="userSpaceOnUse"><path
         id="path118"
         d="m 14,166.972 0,-128 c 0,0 28,-24.001 112,-24.001 l 0,0 c 84,0 116,24.001 116,24.001 l 0,0 0,128 -228,0 z" /></clipPath><linearGradient
       id="linearGradient124"
       spreadMethod="pad"
       gradientTransform="matrix(178,-178,-178,-178,39,191.97127)"
       gradientUnits="userSpaceOnUse"
       y2="0"
       x2="1"
       y1="0"
       x1="0"><stop
         id="stop126"
         offset="0"
         style="stop-opacity:1;stop-color:#e6e7e8" /><stop
         id="stop128"
         offset="1"
         style="stop-opacity:1;stop-color:#d1d3d4" /></linearGradient><clipPath
       id="clipPath136"
       clipPathUnits="userSpaceOnUse"><path
         id="path138"
         d="m 38,161.942 c -6.6,0 -12,-5.4 -12,-11.999 l 0,0 0,-72 c 0,-2.201 1.8,-4.001 4,-4.001 l 0,0 c 0,0 32,-20 96,-20 l 0,0 c 64,0 96,20 96,20 l 0,0 c 2.2,0 4,1.8 4,4.001 l 0,0 0,72 c 0,6.599 -5.4,11.999 -12,11.999 l 0,0 -176,0 z" /></clipPath><linearGradient
       id="linearGradient144"
       spreadMethod="pad"
       gradientTransform="matrix(-139.3,139.3,139.3,139.3,195.65001,45.942528)"
       gradientUnits="userSpaceOnUse"
       y2="0"
       x2="1"
       y1="0"
       x1="0"><stop
         id="stop146"
         offset="0"
         style="stop-opacity:1;stop-color:#e6e7e8" /><stop
         id="stop148"
         offset="1"
         style="stop-opacity:1;stop-color:#d1d3d4" /></linearGradient><clipPath
       id="clipPath156"
       clipPathUnits="userSpaceOnUse"><path
         id="path158"
         d="M 0,256 256,256 256,0 0,0 0,256 Z" /></clipPath><clipPath
       id="clipPath172"
       clipPathUnits="userSpaceOnUse"><path
         id="path174"
         d="m 38,222.971 0,-48 24,0 0,40 128,0 0,-40 28,0 0,48 -180,0 z" /></clipPath><linearGradient
       id="linearGradient180"
       spreadMethod="pad"
       gradientTransform="matrix(-114,114,114,114,185,141.97127)"
       gradientUnits="userSpaceOnUse"
       y2="0"
       x2="1"
       y1="0"
       x1="0"><stop
         id="stop182"
         offset="0"
         style="stop-opacity:1;stop-color:#e6e7e8" /><stop
         id="stop184"
         offset="1"
         style="stop-opacity:1;stop-color:#d1d3d4" /></linearGradient><clipPath
       id="clipPath192"
       clipPathUnits="userSpaceOnUse"><path
         id="path194"
         d="M 0,256 256,256 256,0 0,0 0,256 Z" /></clipPath><clipPath
       id="clipPath204"
       clipPathUnits="userSpaceOnUse"><path
         id="path206"
         d="m 62,214.971 0,-40 c 0,0 20,20 64,20 l 0,0 c 44,0 64,-20 64,-20 l 0,0 0,40 -128,0 z" /></clipPath><linearGradient
       id="linearGradient212"
       spreadMethod="pad"
       gradientTransform="matrix(84,-84,-84,-84,84,236.97127)"
       gradientUnits="userSpaceOnUse"
       y2="0"
       x2="1"
       y1="0"
       x1="0"><stop
         id="stop214"
         offset="0"
         style="stop-opacity:1;stop-color:#e6e7e8" /><stop
         id="stop216"
         offset="1"
         style="stop-opacity:1;stop-color:#d1d3d4" /></linearGradient></defs><g
     transform="matrix(1.25,0,0,-1.25,0,320)"
     id="g10"><g
       id="g12"><g
         clip-path="url(#clipPath16)"
         id="g14"><g
           id="g20"><g
             id="g22"><path
               id="path30"
               style="fill:url(#linearGradient24);stroke:none"
               d="M 116.603,240.739 26,234.948 c 0,0 -12,0 -12,-11.99 l 0,0 0,-47.958 48,0 c 0,0 20,19.982 64,19.982 l 0,0 c 44,0 64,-19.982 64,-19.982 l 0,0 52,0 0,47.958 c 0,0 0,11.99 -12,11.99 l 0,0 c -9.795,0 -73.551,4.215 -96.656,5.765 l 0,0 c -2.854,0.191 -5.713,0.287 -8.571,0.287 l 0,0 c -2.724,0 -5.448,-0.087 -8.17,-0.261" /></g></g></g></g><g
       id="g32"><g
         clip-path="url(#clipPath36)"
         id="g34"><g
           id="g40"><g
             id="g42"><path
               id="path50"
               style="fill:url(#linearGradient44);stroke:none"
               d="m 30,197.942 c 0,-2.208 1.791,-3.999 4,-3.999 l 0,0 c 2.209,0 4,1.791 4,3.999 l 0,0 c 0,2.21 -1.791,4 -4,4 l 0,0 c -2.209,0 -4,-1.79 -4,-4" /></g></g></g></g><g
       id="g52"><g
         clip-path="url(#clipPath56)"
         id="g54"><g
           id="g60"><g
             id="g62"><path
               id="path70"
               style="fill:url(#linearGradient64);stroke:none"
               d="m 32,197.942 c 0,-1.104 0.896,-1.999 2,-1.999 l 0,0 c 1.105,0 2,0.895 2,1.999 l 0,0 c 0,1.105 -0.895,2 -2,2 l 0,0 c -1.104,0 -2,-0.895 -2,-2" /></g></g></g></g><g
       id="g72"><g
         clip-path="url(#clipPath76)"
         id="g74"><g
           id="g80"><g
             id="g82"><path
               id="path90"
               style="fill:url(#linearGradient84);stroke:none"
               d="m 218,197.942 c 0,-2.208 1.791,-3.999 4,-3.999 l 0,0 c 2.209,0 4,1.791 4,3.999 l 0,0 c 0,2.21 -1.791,4 -4,4 l 0,0 c -2.209,0 -4,-1.79 -4,-4" /></g></g></g></g><g
       id="g92"><g
         clip-path="url(#clipPath96)"
         id="g94"><g
           id="g100"><g
             id="g102"><path
               id="path110"
               style="fill:url(#linearGradient104);stroke:none"
               d="m 220,197.942 c 0,-1.104 0.895,-1.999 2,-1.999 l 0,0 c 1.105,0 2,0.895 2,1.999 l 0,0 c 0,1.105 -0.895,2 -2,2 l 0,0 c -1.105,0 -2,-0.895 -2,-2" /></g></g></g></g><g
       id="g112"><g
         clip-path="url(#clipPath116)"
         id="g114"><g
           id="g120"><g
             id="g122"><path
               id="path130"
               style="fill:url(#linearGradient124);stroke:none"
               d="m 14,166.972 0,-128 c 0,0 28,-24.001 112,-24.001 l 0,0 c 84,0 116,24.001 116,24.001 l 0,0 0,128 -228,0 z" /></g></g></g></g><g
       id="g132"><g
         clip-path="url(#clipPath136)"
         id="g134"><g
           id="g140"><g
             id="g142"><path
               id="path150"
               style="fill:url(#linearGradient144);stroke:none"
               d="m 38,161.942 c -6.6,0 -12,-5.4 -12,-11.999 l 0,0 0,-72 c 0,-2.201 1.8,-4.001 4,-4.001 l 0,0 c 0,0 32,-20 96,-20 l 0,0 c 64,0 96,20 96,20 l 0,0 c 2.2,0 4,1.8 4,4.001 l 0,0 0,72 c 0,6.599 -5.4,11.999 -12,11.999 l 0,0 -176,0 z" /></g></g></g></g><g
       id="g152"><g
         clip-path="url(#clipPath156)"
         id="g154"><g
           transform="translate(110,33.9424)"
           id="g160"><path
             id="path162"
             style="fill:#d9d9d9;fill-opacity:1;fill-rule:nonzero;stroke:none"
             d="M 0,0 32,0 16,-12 0,0 Z" /></g><g
           transform="translate(38,157.9424)"
           id="g164"><path
             id="path166"
             style="fill:#ffffff;fill-opacity:1;fill-rule:nonzero;stroke:none"
             d="m 0,0 c 0,0 -8,0 -8,-8 l 0,-72 c 0,0 36,-20 96,-20 60,0 96,20 96,20 l 0,72 c 0,0 0,8 -8,8 L 0,0 Z" /></g></g></g><g
       id="g168"><g
         clip-path="url(#clipPath172)"
         id="g170"><g
           id="g176"><g
             id="g178"><path
               id="path186"
               style="fill:url(#linearGradient180);stroke:none"
               d="m 38,222.971 0,-48 24,0 0,40 128,0 0,-40 28,0 0,48 -180,0 z" /></g></g></g></g><g
       id="g188"><g
         clip-path="url(#clipPath192)"
         id="g190"><g
           transform="translate(218,174.9712)"
           id="g196"><path
             id="path198"
             style="fill:#999999;fill-opacity:1;fill-rule:nonzero;stroke:none"
             d="m 0,0 -28,0 0,20 -128,0 0,-20 -24,0 -24,0 0,-8 24,0 24,0 128,0 28,0 24,0 0,8 -24,0 z" /></g></g></g><g
       id="g200"><g
         clip-path="url(#clipPath204)"
         id="g202"><g
           id="g208"><g
             id="g210"><path
               id="path218"
               style="fill:url(#linearGradient212);stroke:none"
               d="m 62,214.971 0,-40 c 0,0 20,20 64,20 l 0,0 c 44,0 64,-20 64,-20 l 0,0 0,40 -128,0 z" /></g></g></g></g></g></svg>