<?xml version="1.0" encoding="UTF-8" standalone="no"?>
<svg
   xmlns:dc="http://purl.org/dc/elements/1.1/"
   xmlns:cc="http://creativecommons.org/ns#"
   xmlns:rdf="http://www.w3.org/1999/02/22-rdf-syntax-ns#"
   xmlns:svg="http://www.w3.org/2000/svg"
   xmlns="http://www.w3.org/2000/svg"
   viewBox="0 0 320 320"
   height="320"
   width="320"
   xml:space="preserve"
   version="1.1"
   id="svg2"><metadata
     id="metadata8"><rdf:RDF><cc:Work
         rdf:about=""><dc:format>image/svg+xml</dc:format><dc:type
           rdf:resource="http://purl.org/dc/dcmitype/StillImage" /></cc:Work></rdf:RDF></metadata><defs
     id="defs6"><clipPath
       id="clipPath16"
       clipPathUnits="userSpaceOnUse"><path
         id="path18"
         d="M 0,256 256,256 256,0 0,0 0,256 Z" /></clipPath><clipPath
       id="clipPath28"
       clipPathUnits="userSpaceOnUse"><path
         id="path30"
         d="m 83.056,242 -6.009,0 -2.002,0 C 39,238.008 39,142.178 39,142.178 l 0,0 0,-67.879 C 39,34.372 91.065,34.372 91.065,34.372 l 0,0 c 60.075,0 72.091,-7.987 72.091,-7.987 l 0,0 c 44.471,-27.283 50.957,-2.13 51.903,5.786 l 0,0 c 0.16,1.341 0.356,2.676 0.576,4.008 l 0,0 c 0.908,5.53 2.754,27.018 -0.415,105.999 l 0,0 C 211.215,242 179.175,242 179.175,242 l 0,0 -96.119,0 z" /></clipPath><linearGradient
       id="linearGradient36"
       spreadMethod="pad"
       gradientTransform="matrix(181.92281,-181.92281,-181.92281,-181.92281,44.381363,217.89583)"
       gradientUnits="userSpaceOnUse"
       y2="0"
       x2="1"
       y1="0"
       x1="0"><stop
         id="stop38"
         offset="0"
         style="stop-opacity:1;stop-color:#e6e7e8" /><stop
         id="stop40"
         offset="1"
         style="stop-opacity:1;stop-color:#d1d3d4" /></linearGradient><clipPath
       id="clipPath48"
       clipPathUnits="userSpaceOnUse"><path
         id="path50"
         d="m 84.651,238.204 -5.7,0 c -2.033,0 -4.072,-0.257 -5.995,-0.916 l 0,0 C 42.851,226.971 43.739,143.203 43.739,143.203 l 0,0 0,-63.203 c 0,-38 48.001,-40 48.001,-40 l 0,0 c 57,0 67.999,-8 67.999,-8 l 0,0 C 173.09,23.784 184.63,20.324 191.74,20 l 0,0 0,28 11.999,0 8,0 c 0.86,8.897 0.894,30.701 -1.686,95.203 l 0,0 c -3.8,95.001 -34.2,95.001 -34.2,95.001 l 0,0 -91.202,0 z" /></clipPath><linearGradient
       id="linearGradient56"
       spreadMethod="pad"
       gradientTransform="matrix(-155.10966,-155.10966,-155.10966,155.10966,210.56253,208.35783)"
       gradientUnits="userSpaceOnUse"
       y2="0"
       x2="1"
       y1="0"
       x1="0"><stop
         id="stop58"
         offset="0"
         style="stop-opacity:1;stop-color:#e6e7e8" /><stop
         id="stop60"
         offset="1"
         style="stop-opacity:1;stop-color:#d1d3d4" /></linearGradient><clipPath
       id="clipPath68"
       clipPathUnits="userSpaceOnUse"><path
         id="path70"
         d="m 125,64 c 0,-1.657 1.343,-3 3,-3 l 0,0 c 1.658,0 3,1.343 3,3 l 0,0 c 0,1.657 -1.342,3 -3,3 l 0,0 c -1.657,0 -3,-1.343 -3,-3" /></clipPath><linearGradient
       id="linearGradient76"
       spreadMethod="pad"
       gradientTransform="matrix(4.2426405,-4.2426405,-4.2426405,-4.2426405,125.87868,66.121323)"
       gradientUnits="userSpaceOnUse"
       y2="0"
       x2="1"
       y1="0"
       x1="0"><stop
         id="stop78"
         offset="0"
         style="stop-opacity:1;stop-color:#e6e7e8" /><stop
         id="stop80"
         offset="1"
         style="stop-opacity:1;stop-color:#d1d3d4" /></linearGradient><clipPath
       id="clipPath88"
       clipPathUnits="userSpaceOnUse"><path
         id="path90"
         d="m 120,88 c 0,-4.418 3.582,-8 8,-8 l 0,0 c 4.418,0 8,3.582 8,8 l 0,0 c 0,4.418 -3.582,8 -8,8 l 0,0 c -4.418,0 -8,-3.582 -8,-8" /></clipPath><linearGradient
       id="linearGradient96"
       spreadMethod="pad"
       gradientTransform="matrix(11.313708,-11.313708,-11.313708,-11.313708,122.34315,93.656853)"
       gradientUnits="userSpaceOnUse"
       y2="0"
       x2="1"
       y1="0"
       x1="0"><stop
         id="stop98"
         offset="0"
         style="stop-opacity:1;stop-color:#e6e7e8" /><stop
         id="stop100"
         offset="1"
         style="stop-opacity:1;stop-color:#d1d3d4" /></linearGradient><clipPath
       id="clipPath108"
       clipPathUnits="userSpaceOnUse"><path
         id="path110"
         d="M 77.762,111.913 C 64.107,110.852 53.068,99.747 52.076,86.087 l 0,0 c -0.332,-4.564 0.435,-8.915 2.059,-12.821 l 0,0 C 54.45,72.508 55.175,72 55.998,72 l 0,0 L 66,72 c 1.105,0 2,-0.895 2,-2 l 0,0 0,-10.002 c 0,-0.822 0.507,-1.547 1.267,-1.863 l 0,0 c 3.905,-1.623 8.254,-2.391 12.818,-2.059 l 0,0 c 13.66,0.991 24.766,12.029 25.828,25.683 l 0,0 C 109.194,98.235 96.204,112 79.999,112 l 0,0 c -0.74,0 -1.485,-0.028 -2.237,-0.087" /></clipPath><linearGradient
       id="linearGradient116"
       spreadMethod="pad"
       gradientTransform="matrix(39.553917,-39.553917,-39.553917,-39.553917,60.916523,104.4704)"
       gradientUnits="userSpaceOnUse"
       y2="0"
       x2="1"
       y1="0"
       x1="0"><stop
         id="stop118"
         offset="0"
         style="stop-opacity:1;stop-color:#e6e7e8" /><stop
         id="stop120"
         offset="1"
         style="stop-opacity:1;stop-color:#d1d3d4" /></linearGradient><clipPath
       id="clipPath128"
       clipPathUnits="userSpaceOnUse"><path
         id="path130"
         d="M 0,256 256,256 256,0 0,0 0,256 Z" /></clipPath><clipPath
       id="clipPath140"
       clipPathUnits="userSpaceOnUse"><path
         id="path142"
         d="m 92,200 c -6.6,0 -12,-5.4 -12,-12 l 0,0 0,-40 c 0,-6.6 5.4,-12 12,-12 l 0,0 72,0 c 6.6,0 12,5.4 12,12 l 0,0 0,40 c 0,6.6 -5.4,12 -12,12 l 0,0 -72,0 z" /></clipPath><linearGradient
       id="linearGradient148"
       spreadMethod="pad"
       gradientTransform="matrix(72.949997,-72.949997,-72.949997,-72.949997,91.525001,204.47501)"
       gradientUnits="userSpaceOnUse"
       y2="0"
       x2="1"
       y1="0"
       x1="0"><stop
         id="stop150"
         offset="0"
         style="stop-opacity:1;stop-color:#e6e7e8" /><stop
         id="stop152"
         offset="1"
         style="stop-opacity:1;stop-color:#d1d3d4" /></linearGradient><clipPath
       id="clipPath160"
       clipPathUnits="userSpaceOnUse"><path
         id="path162"
         d="M 0,256 256,256 256,0 0,0 0,256 Z" /></clipPath><clipPath
       id="clipPath180"
       clipPathUnits="userSpaceOnUse"><path
         id="path182"
         d="m 74,84 c 0,-3.313 2.686,-6 6,-6 l 0,0 c 3.314,0 6,2.687 6,6 l 0,0 c 0,3.314 -2.686,6 -6,6 l 0,0 c -3.314,0 -6,-2.686 -6,-6" /></clipPath><linearGradient
       id="linearGradient188"
       spreadMethod="pad"
       gradientTransform="matrix(8.485281,-8.485281,-8.485281,-8.485281,75.757362,88.242638)"
       gradientUnits="userSpaceOnUse"
       y2="0"
       x2="1"
       y1="0"
       x1="0"><stop
         id="stop190"
         offset="0"
         style="stop-opacity:1;stop-color:#e6e7e8" /><stop
         id="stop192"
         offset="1"
         style="stop-opacity:1;stop-color:#d1d3d4" /></linearGradient><clipPath
       id="clipPath200"
       clipPathUnits="userSpaceOnUse"><path
         id="path202"
         d="m 67.036,88.423 -7.714,-3.932 c -0.429,-0.218 -0.429,-0.764 0,-0.982 l 0,0 7.714,-3.932 C 67.464,79.358 68,79.632 68,80.068 l 0,0 0,7.864 c 0,0.331 -0.308,0.568 -0.644,0.568 l 0,0 c -0.107,0 -0.217,-0.024 -0.32,-0.077" /></clipPath><linearGradient
       id="linearGradient208"
       spreadMethod="pad"
       gradientTransform="matrix(6.6814103,-6.6814103,-6.6814103,-6.6814103,62.124939,87.340706)"
       gradientUnits="userSpaceOnUse"
       y2="0"
       x2="1"
       y1="0"
       x1="0"><stop
         id="stop210"
         offset="0"
         style="stop-opacity:1;stop-color:#e6e7e8" /><stop
         id="stop212"
         offset="1"
         style="stop-opacity:1;stop-color:#d1d3d4" /></linearGradient><clipPath
       id="clipPath220"
       clipPathUnits="userSpaceOnUse"><path
         id="path222"
         d="m 92,87.932 0,-7.864 c 0,-0.436 0.535,-0.71 0.965,-0.491 l 0,0 7.713,3.932 c 0.429,0.218 0.429,0.764 0,0.982 l 0,0 -7.713,3.932 C 92.861,88.476 92.751,88.5 92.644,88.5 l 0,0 C 92.308,88.5 92,88.263 92,87.932" /></clipPath><linearGradient
       id="linearGradient228"
       spreadMethod="pad"
       gradientTransform="matrix(6.6814103,-6.6814103,-6.6814103,-6.6814103,91.193649,87.340706)"
       gradientUnits="userSpaceOnUse"
       y2="0"
       x2="1"
       y1="0"
       x1="0"><stop
         id="stop230"
         offset="0"
         style="stop-opacity:1;stop-color:#e6e7e8" /><stop
         id="stop232"
         offset="1"
         style="stop-opacity:1;stop-color:#d1d3d4" /></linearGradient><clipPath
       id="clipPath240"
       clipPathUnits="userSpaceOnUse"><path
         id="path242"
         d="M 79.509,104.679 75.577,96.964 C 75.359,96.536 75.632,96 76.068,96 l 0,0 7.863,0 c 0.438,0 0.71,0.536 0.493,0.964 l 0,0 -3.932,7.715 C 80.382,104.893 80.191,105 80,105 l 0,0 c -0.191,0 -0.382,-0.107 -0.491,-0.321" /></clipPath><linearGradient
       id="linearGradient248"
       spreadMethod="pad"
       gradientTransform="matrix(6.6814103,-6.6814103,-6.6814103,-6.6814103,76.659294,101.87506)"
       gradientUnits="userSpaceOnUse"
       y2="0"
       x2="1"
       y1="0"
       x1="0"><stop
         id="stop250"
         offset="0"
         style="stop-opacity:1;stop-color:#e6e7e8" /><stop
         id="stop252"
         offset="1"
         style="stop-opacity:1;stop-color:#d1d3d4" /></linearGradient><clipPath
       id="clipPath260"
       clipPathUnits="userSpaceOnUse"><path
         id="path262"
         d="m 76.068,72 c -0.436,0 -0.709,-0.536 -0.491,-0.964 l 0,0 3.932,-7.715 c 0.218,-0.428 0.764,-0.428 0.983,0 l 0,0 3.932,7.715 C 84.641,71.464 84.369,72 83.931,72 l 0,0 -7.863,0 z" /></clipPath><linearGradient
       id="linearGradient268"
       spreadMethod="pad"
       gradientTransform="matrix(6.6814103,-6.6814103,-6.6814103,-6.6814103,76.659294,72.806351)"
       gradientUnits="userSpaceOnUse"
       y2="0"
       x2="1"
       y1="0"
       x1="0"><stop
         id="stop270"
         offset="0"
         style="stop-opacity:1;stop-color:#e6e7e8" /><stop
         id="stop272"
         offset="1"
         style="stop-opacity:1;stop-color:#d1d3d4" /></linearGradient><clipPath
       id="clipPath280"
       clipPathUnits="userSpaceOnUse"><path
         id="path282"
         d="M 0,256 256,256 256,0 0,0 0,256 Z" /></clipPath><clipPath
       id="clipPath298"
       clipPathUnits="userSpaceOnUse"><path
         id="path300"
         d="m 196,40 c 0,-2.209 1.791,-4 4,-4 l 0,0 c 2.209,0 4,1.791 4,4 l 0,0 c 0,2.209 -1.791,4 -4,4 l 0,0 c -2.209,0 -4,-1.791 -4,-4" /></clipPath><linearGradient
       id="linearGradient306"
       spreadMethod="pad"
       gradientTransform="matrix(-5.6568542,5.6568542,5.6568542,5.6568542,202.82843,37.171574)"
       gradientUnits="userSpaceOnUse"
       y2="0"
       x2="1"
       y1="0"
       x1="0"><stop
         id="stop308"
         offset="0"
         style="stop-opacity:1;stop-color:#e6e7e8" /><stop
         id="stop310"
         offset="1"
         style="stop-opacity:1;stop-color:#d1d3d4" /></linearGradient></defs><g
     transform="matrix(1.25,0,0,-1.25,0,320)"
     id="g10"><g
       id="g12"><g
         clip-path="url(#clipPath16)"
         id="g14"><g
           transform="translate(187.1113,238.2041)"
           id="g20"><path
             id="path22"
             style="fill:#999999;fill-opacity:1;fill-rule:nonzero;stroke:none"
             d="M 0,0 C 0,0 24,4 24,-64 L 16,-64 0,0 Z" /></g></g></g><g
       id="g24"><g
         clip-path="url(#clipPath28)"
         id="g26"><g
           id="g32"><g
             id="g34"><path
               id="path42"
               style="fill:url(#linearGradient36);stroke:none"
               d="m 83.056,242 -6.009,0 -2.002,0 C 39,238.008 39,142.178 39,142.178 l 0,0 0,-67.879 C 39,34.372 91.065,34.372 91.065,34.372 l 0,0 c 60.075,0 72.091,-7.987 72.091,-7.987 l 0,0 c 44.471,-27.283 50.957,-2.13 51.903,5.786 l 0,0 c 0.16,1.341 0.356,2.676 0.576,4.008 l 0,0 c 0.908,5.53 2.754,27.018 -0.415,105.999 l 0,0 C 211.215,242 179.175,242 179.175,242 l 0,0 -96.119,0 z" /></g></g></g></g><g
       id="g44"><g
         clip-path="url(#clipPath48)"
         id="g46"><g
           id="g52"><g
             id="g54"><path
               id="path62"
               style="fill:url(#linearGradient56);stroke:none"
               d="m 84.651,238.204 -5.7,0 c -2.033,0 -4.072,-0.257 -5.995,-0.916 l 0,0 C 42.851,226.971 43.739,143.203 43.739,143.203 l 0,0 0,-63.203 c 0,-38 48.001,-40 48.001,-40 l 0,0 c 57,0 67.999,-8 67.999,-8 l 0,0 C 173.09,23.784 184.63,20.324 191.74,20 l 0,0 0,28 11.999,0 8,0 c 0.86,8.897 0.894,30.701 -1.686,95.203 l 0,0 c -3.8,95.001 -34.2,95.001 -34.2,95.001 l 0,0 -91.202,0 z" /></g></g></g></g><g
       id="g64"><g
         clip-path="url(#clipPath68)"
         id="g66"><g
           id="g72"><g
             id="g74"><path
               id="path82"
               style="fill:url(#linearGradient76);stroke:none"
               d="m 125,64 c 0,-1.657 1.343,-3 3,-3 l 0,0 c 1.658,0 3,1.343 3,3 l 0,0 c 0,1.657 -1.342,3 -3,3 l 0,0 c -1.657,0 -3,-1.343 -3,-3" /></g></g></g></g><g
       id="g84"><g
         clip-path="url(#clipPath88)"
         id="g86"><g
           id="g92"><g
             id="g94"><path
               id="path102"
               style="fill:url(#linearGradient96);stroke:none"
               d="m 120,88 c 0,-4.418 3.582,-8 8,-8 l 0,0 c 4.418,0 8,3.582 8,8 l 0,0 c 0,4.418 -3.582,8 -8,8 l 0,0 c -4.418,0 -8,-3.582 -8,-8" /></g></g></g></g><g
       id="g104"><g
         clip-path="url(#clipPath108)"
         id="g106"><g
           id="g112"><g
             id="g114"><path
               id="path122"
               style="fill:url(#linearGradient116);stroke:none"
               d="M 77.762,111.913 C 64.107,110.852 53.068,99.747 52.076,86.087 l 0,0 c -0.332,-4.564 0.435,-8.915 2.059,-12.821 l 0,0 C 54.45,72.508 55.175,72 55.998,72 l 0,0 L 66,72 c 1.105,0 2,-0.895 2,-2 l 0,0 0,-10.002 c 0,-0.822 0.507,-1.547 1.267,-1.863 l 0,0 c 3.905,-1.623 8.254,-2.391 12.818,-2.059 l 0,0 c 13.66,0.991 24.766,12.029 25.828,25.683 l 0,0 C 109.194,98.235 96.204,112 79.999,112 l 0,0 c -0.74,0 -1.485,-0.028 -2.237,-0.087" /></g></g></g></g><g
       id="g124"><g
         clip-path="url(#clipPath128)"
         id="g126"><g
           transform="translate(196,168)"
           id="g132"><path
             id="path134"
             style="fill:#999999;fill-opacity:1;fill-rule:nonzero;stroke:none"
             d="m 0,0 c 0,-28.719 -30.444,-52 -68,-52 -37.555,0 -68,23.281 -68,52 0,28.719 30.445,52 68,52 C -30.444,52 0,28.719 0,0" /></g></g></g><g
       id="g136"><g
         clip-path="url(#clipPath140)"
         id="g138"><g
           id="g144"><g
             id="g146"><path
               id="path154"
               style="fill:url(#linearGradient148);stroke:none"
               d="m 92,200 c -6.6,0 -12,-5.4 -12,-12 l 0,0 0,-40 c 0,-6.6 5.4,-12 12,-12 l 0,0 72,0 c 6.6,0 12,5.4 12,12 l 0,0 0,40 c 0,6.6 -5.4,12 -12,12 l 0,0 -72,0 z" /></g></g></g></g><g
       id="g156"><g
         clip-path="url(#clipPath160)"
         id="g158"><g
           transform="translate(172,70.2041)"
           id="g164"><path
             id="path166"
             style="fill:#999999;fill-opacity:1;fill-rule:nonzero;stroke:none"
             d="m 0,0 c 0,-6.628 -5.373,-12 -12,-12 -6.627,0 -12,5.372 -12,12 0,6.627 5.373,12 12,12 C -5.373,12 0,6.627 0,0" /></g><g
           transform="translate(204,94.2041)"
           id="g168"><path
             id="path170"
             style="fill:#999999;fill-opacity:1;fill-rule:nonzero;stroke:none"
             d="m 0,0 c 0,-6.628 -5.373,-12 -12,-12 -6.627,0 -12,5.372 -12,12 0,6.627 5.373,12 12,12 C -5.373,12 0,6.627 0,0" /></g><g
           transform="translate(101,93)"
           id="g172"><path
             id="path174"
             style="fill:#999999;fill-opacity:1;fill-rule:nonzero;stroke:none"
             d="m 0,0 -12,0 0,12 c 0,1.657 -1.343,3 -3,3 l -12,0 c -1.657,0 -3,-1.343 -3,-3 l 0,-12 -12,0 c -1.657,0 -3,-1.343 -3,-3 l 0,-12 c 0,-1.657 1.343,-3 3,-3 l 12,0 0,-12 c 0,-1.657 1.343,-3 3,-3 l 12,0 c 1.657,0 3,1.343 3,3 l 0,12 12,0 c 1.657,0 3,1.343 3,3 L 3,-3 C 3,-1.343 1.657,0 0,0" /></g></g></g><g
       id="g176"><g
         clip-path="url(#clipPath180)"
         id="g178"><g
           id="g184"><g
             id="g186"><path
               id="path194"
               style="fill:url(#linearGradient188);stroke:none"
               d="m 74,84 c 0,-3.313 2.686,-6 6,-6 l 0,0 c 3.314,0 6,2.687 6,6 l 0,0 c 0,3.314 -2.686,6 -6,6 l 0,0 c -3.314,0 -6,-2.686 -6,-6" /></g></g></g></g><g
       id="g196"><g
         clip-path="url(#clipPath200)"
         id="g198"><g
           id="g204"><g
             id="g206"><path
               id="path214"
               style="fill:url(#linearGradient208);stroke:none"
               d="m 67.036,88.423 -7.714,-3.932 c -0.429,-0.218 -0.429,-0.764 0,-0.982 l 0,0 7.714,-3.932 C 67.464,79.358 68,79.632 68,80.068 l 0,0 0,7.864 c 0,0.331 -0.308,0.568 -0.644,0.568 l 0,0 c -0.107,0 -0.217,-0.024 -0.32,-0.077" /></g></g></g></g><g
       id="g216"><g
         clip-path="url(#clipPath220)"
         id="g218"><g
           id="g224"><g
             id="g226"><path
               id="path234"
               style="fill:url(#linearGradient228);stroke:none"
               d="m 92,87.932 0,-7.864 c 0,-0.436 0.535,-0.71 0.965,-0.491 l 0,0 7.713,3.932 c 0.429,0.218 0.429,0.764 0,0.982 l 0,0 -7.713,3.932 C 92.861,88.476 92.751,88.5 92.644,88.5 l 0,0 C 92.308,88.5 92,88.263 92,87.932" /></g></g></g></g><g
       id="g236"><g
         clip-path="url(#clipPath240)"
         id="g238"><g
           id="g244"><g
             id="g246"><path
               id="path254"
               style="fill:url(#linearGradient248);stroke:none"
               d="M 79.509,104.679 75.577,96.964 C 75.359,96.536 75.632,96 76.068,96 l 0,0 7.863,0 c 0.438,0 0.71,0.536 0.493,0.964 l 0,0 -3.932,7.715 C 80.382,104.893 80.191,105 80,105 l 0,0 c -0.191,0 -0.382,-0.107 -0.491,-0.321" /></g></g></g></g><g
       id="g256"><g
         clip-path="url(#clipPath260)"
         id="g258"><g
           id="g264"><g
             id="g266"><path
               id="path274"
               style="fill:url(#linearGradient268);stroke:none"
               d="m 76.068,72 c -0.436,0 -0.709,-0.536 -0.491,-0.964 l 0,0 3.932,-7.715 c 0.218,-0.428 0.764,-0.428 0.983,0 l 0,0 3.932,7.715 C 84.641,71.464 84.369,72 83.931,72 l 0,0 -7.863,0 z" /></g></g></g></g><g
       id="g276"><g
         clip-path="url(#clipPath280)"
         id="g278"><g
           transform="translate(134,88)"
           id="g284"><path
             id="path286"
             style="fill:#999999;fill-opacity:1;fill-rule:nonzero;stroke:none"
             d="m 0,0 c 0,-3.313 -2.687,-6 -6,-6 -3.313,0 -6,2.687 -6,6 0,3.313 2.687,6 6,6 3.313,0 6,-2.687 6,-6" /></g><g
           transform="translate(130,64)"
           id="g288"><path
             id="path290"
             style="fill:#999999;fill-opacity:1;fill-rule:nonzero;stroke:none"
             d="m 0,0 c 0,-1.104 -0.896,-2 -2,-2 -1.104,0 -2,0.896 -2,2 0,1.104 0.896,2 2,2 1.104,0 2,-0.896 2,-2" /></g><path
           id="path292"
           style="fill:#999999;fill-opacity:1;fill-rule:nonzero;stroke:none"
           d="m 152,238 -48,0 0,4 48,0 0,-4 z" /></g></g><g
       id="g294"><g
         clip-path="url(#clipPath298)"
         id="g296"><g
           id="g302"><g
             id="g304"><path
               id="path312"
               style="fill:url(#linearGradient306);stroke:none"
               d="m 196,40 c 0,-2.209 1.791,-4 4,-4 l 0,0 c 2.209,0 4,1.791 4,4 l 0,0 c 0,2.209 -1.791,4 -4,4 l 0,0 c -2.209,0 -4,-1.791 -4,-4" /></g></g></g></g></g></svg>