<?xml version="1.0" encoding="UTF-8" standalone="no"?>
<svg
   xmlns:dc="http://purl.org/dc/elements/1.1/"
   xmlns:cc="http://creativecommons.org/ns#"
   xmlns:rdf="http://www.w3.org/1999/02/22-rdf-syntax-ns#"
   xmlns:svg="http://www.w3.org/2000/svg"
   xmlns="http://www.w3.org/2000/svg"
   viewBox="0 0 320 320"
   height="320"
   width="320"
   xml:space="preserve"
   version="1.1"
   id="svg2"><metadata
     id="metadata8"><rdf:RDF><cc:Work
         rdf:about=""><dc:format>image/svg+xml</dc:format><dc:type
           rdf:resource="http://purl.org/dc/dcmitype/StillImage" /></cc:Work></rdf:RDF></metadata><defs
     id="defs6"><clipPath
       id="clipPath16"
       clipPathUnits="userSpaceOnUse"><path
         id="path18"
         d="M 0,256 256,256 256,0 0,0 0,256 Z" /></clipPath><clipPath
       id="clipPath32"
       clipPathUnits="userSpaceOnUse"><path
         id="path34"
         d="M 44,188 C 26.4,188 12,173.6 12,156 l 0,0 0,-56 C 12,82.4 26.4,68 44,68 l 0,0 168,0 c 17.6,0 32,14.4 32,32 l 0,0 0,56 c 0,17.6 -14.4,32 -32,32 l 0,0 -168,0 z" /></clipPath><linearGradient
       id="linearGradient40"
       spreadMethod="pad"
       gradientTransform="matrix(157.2,-157.2,-157.2,-157.2,49.400001,206.60001)"
       gradientUnits="userSpaceOnUse"
       y2="0"
       x2="1"
       y1="0"
       x1="0"><stop
         id="stop42"
         offset="0"
         style="stop-opacity:1;stop-color:#e6e7e8" /><stop
         id="stop44"
         offset="1"
         style="stop-opacity:1;stop-color:#d1d3d4" /></linearGradient><clipPath
       id="clipPath52"
       clipPathUnits="userSpaceOnUse"><path
         id="path54"
         d="m 62,90 132,0 0,76 -132,0 0,-76 z" /></clipPath><linearGradient
       id="linearGradient60"
       spreadMethod="pad"
       gradientTransform="matrix(-104,104,104,104,180,76)"
       gradientUnits="userSpaceOnUse"
       y2="0"
       x2="1"
       y1="0"
       x1="0"><stop
         id="stop62"
         offset="0"
         style="stop-opacity:1;stop-color:#e6e7e8" /><stop
         id="stop64"
         offset="1"
         style="stop-opacity:1;stop-color:#d1d3d4" /></linearGradient><clipPath
       id="clipPath72"
       clipPathUnits="userSpaceOnUse"><path
         id="path74"
         d="M 0,256 256,256 256,0 0,0 0,256 Z" /></clipPath><clipPath
       id="clipPath82"
       clipPathUnits="userSpaceOnUse"><path
         id="path84"
         d="m 100,182 c -2.201,0 -4,-1.8 -4,-4 l 0,0 c 0,-2.2 1.799,-4 4,-4 l 0,0 56,0 c 2.2,0 4,1.8 4,4 l 0,0 c 0,2.2 -1.8,4 -4,4 l 0,0 -56,0 z" /></clipPath><linearGradient
       id="linearGradient90"
       spreadMethod="pad"
       gradientTransform="matrix(-33.650001,33.650001,33.650001,33.650001,144.825,161.175)"
       gradientUnits="userSpaceOnUse"
       y2="0"
       x2="1"
       y1="0"
       x1="0"><stop
         id="stop92"
         offset="0"
         style="stop-opacity:1;stop-color:#e6e7e8" /><stop
         id="stop94"
         offset="1"
         style="stop-opacity:1;stop-color:#d1d3d4" /></linearGradient><clipPath
       id="clipPath102"
       clipPathUnits="userSpaceOnUse"><path
         id="path104"
         d="M 0,256 256,256 256,0 0,0 0,256 Z" /></clipPath><clipPath
       id="clipPath150"
       clipPathUnits="userSpaceOnUse"><path
         id="path152"
         d="m 126,178 c 0,-1.104 0.896,-2 2,-2 l 0,0 c 1.104,0 2,0.896 2,2 l 0,0 c 0,1.104 -0.896,2 -2,2 l 0,0 c -1.104,0 -2,-0.896 -2,-2" /></clipPath><linearGradient
       id="linearGradient158"
       spreadMethod="pad"
       gradientTransform="matrix(2.8284261,-2.8284261,-2.8284261,-2.8284261,126.58578,179.41422)"
       gradientUnits="userSpaceOnUse"
       y2="0"
       x2="1"
       y1="0"
       x1="0"><stop
         id="stop160"
         offset="0"
         style="stop-opacity:1;stop-color:#e6e7e8" /><stop
         id="stop162"
         offset="1"
         style="stop-opacity:1;stop-color:#d1d3d4" /></linearGradient><clipPath
       id="clipPath170"
       clipPathUnits="userSpaceOnUse"><path
         id="path172"
         d="M 0,256 256,256 256,0 0,0 0,256 Z" /></clipPath><clipPath
       id="clipPath198"
       clipPathUnits="userSpaceOnUse"><path
         id="path200"
         d="m 215.515,168.485 c -4.687,-4.686 -4.687,-12.284 0,-16.97 l 0,0 c 4.686,-4.686 12.284,-4.686 16.97,0 l 0,0 c 4.687,4.686 4.687,12.284 0,16.97 l 0,0 C 230.142,170.829 227.071,172 224,172 l 0,0 c -3.071,0 -6.142,-1.171 -8.485,-3.515" /></clipPath><linearGradient
       id="linearGradient206"
       spreadMethod="pad"
       gradientTransform="matrix(-16.970581,16.970581,16.970581,16.970581,232.48529,151.51471)"
       gradientUnits="userSpaceOnUse"
       y2="0"
       x2="1"
       y1="0"
       x1="0"><stop
         id="stop208"
         offset="0"
         style="stop-opacity:1;stop-color:#e6e7e8" /><stop
         id="stop210"
         offset="1"
         style="stop-opacity:1;stop-color:#d1d3d4" /></linearGradient><clipPath
       id="clipPath218"
       clipPathUnits="userSpaceOnUse"><path
         id="path220"
         d="M 0,256 256,256 256,0 0,0 0,256 Z" /></clipPath><clipPath
       id="clipPath242"
       clipPathUnits="userSpaceOnUse"><path
         id="path244"
         d="m 23.514,168.485 c -4.685,-4.686 -4.685,-12.284 0,-16.97 l 0,0 c 4.688,-4.686 12.284,-4.686 16.972,0 l 0,0 c 4.685,4.686 4.685,12.284 0,16.97 l 0,0 C 38.142,170.829 35.071,172 32,172 l 0,0 c -3.071,0 -6.142,-1.171 -8.486,-3.515" /></clipPath><linearGradient
       id="linearGradient250"
       spreadMethod="pad"
       gradientTransform="matrix(-16.970581,16.970581,16.970581,16.970581,40.48529,151.51471)"
       gradientUnits="userSpaceOnUse"
       y2="0"
       x2="1"
       y1="0"
       x1="0"><stop
         id="stop252"
         offset="0"
         style="stop-opacity:1;stop-color:#e6e7e8" /><stop
         id="stop254"
         offset="1"
         style="stop-opacity:1;stop-color:#d1d3d4" /></linearGradient><clipPath
       id="clipPath262"
       clipPathUnits="userSpaceOnUse"><path
         id="path264"
         d="M 0,256 256,256 256,0 0,0 0,256 Z" /></clipPath><clipPath
       id="clipPath274"
       clipPathUnits="userSpaceOnUse"><path
         id="path276"
         d="m 26,160 c 0,-3.314 2.687,-6 6,-6 l 0,0 c 3.313,0 6,2.686 6,6 l 0,0 c 0,3.313 -2.687,6 -6,6 l 0,0 c -3.313,0 -6,-2.687 -6,-6 m 1,0 c 0,2.757 2.243,5 5,5 l 0,0 c 2.757,0 5,-2.243 5,-5 l 0,0 c 0,-2.757 -2.243,-5 -5,-5 l 0,0 c -2.757,0 -5,2.243 -5,5" /></clipPath><linearGradient
       id="linearGradient282"
       spreadMethod="pad"
       gradientTransform="matrix(8.4852819,-8.4852819,-8.4852819,-8.4852819,27.757357,164.24265)"
       gradientUnits="userSpaceOnUse"
       y2="0"
       x2="1"
       y1="0"
       x1="0"><stop
         id="stop284"
         offset="0"
         style="stop-opacity:1;stop-color:#e6e7e8" /><stop
         id="stop286"
         offset="1"
         style="stop-opacity:1;stop-color:#d1d3d4" /></linearGradient><clipPath
       id="clipPath294"
       clipPathUnits="userSpaceOnUse"><path
         id="path296"
         d="M 0,256 256,256 256,0 0,0 0,256 Z" /></clipPath><clipPath
       id="clipPath306"
       clipPathUnits="userSpaceOnUse"><path
         id="path308"
         d="m 32,131.5 4,0 0,1 -4,0 0,-1 z" /></clipPath><linearGradient
       id="linearGradient314"
       spreadMethod="pad"
       gradientTransform="matrix(-2.5,2.5,2.5,2.5,35.25,130.75)"
       gradientUnits="userSpaceOnUse"
       y2="0"
       x2="1"
       y1="0"
       x1="0"><stop
         id="stop316"
         offset="0"
         style="stop-opacity:1;stop-color:#e6e7e8" /><stop
         id="stop318"
         offset="1"
         style="stop-opacity:1;stop-color:#d1d3d4" /></linearGradient><clipPath
       id="clipPath326"
       clipPathUnits="userSpaceOnUse"><path
         id="path328"
         d="m 48,131.5 4.001,0 0,1 -4.001,0 0,-1 z" /></clipPath><linearGradient
       id="linearGradient334"
       spreadMethod="pad"
       gradientTransform="matrix(-2.5,2.5,2.5,2.5,51.25,130.75)"
       gradientUnits="userSpaceOnUse"
       y2="0"
       x2="1"
       y1="0"
       x1="0"><stop
         id="stop336"
         offset="0"
         style="stop-opacity:1;stop-color:#e6e7e8" /><stop
         id="stop338"
         offset="1"
         style="stop-opacity:1;stop-color:#d1d3d4" /></linearGradient><clipPath
       id="clipPath346"
       clipPathUnits="userSpaceOnUse"><path
         id="path348"
         d="m 41.5,138 1,0 0,4.001 -1,0 0,-4.001 z" /></clipPath><linearGradient
       id="linearGradient354"
       spreadMethod="pad"
       gradientTransform="matrix(-2.5,2.5,2.5,2.5,43.25,138.75)"
       gradientUnits="userSpaceOnUse"
       y2="0"
       x2="1"
       y1="0"
       x1="0"><stop
         id="stop356"
         offset="0"
         style="stop-opacity:1;stop-color:#e6e7e8" /><stop
         id="stop358"
         offset="1"
         style="stop-opacity:1;stop-color:#d1d3d4" /></linearGradient><clipPath
       id="clipPath366"
       clipPathUnits="userSpaceOnUse"><path
         id="path368"
         d="m 41.5,122 1,0 0,4 -1,0 0,-4 z" /></clipPath><linearGradient
       id="linearGradient374"
       spreadMethod="pad"
       gradientTransform="matrix(-2.5,2.5,2.5,2.5,43.25,122.75)"
       gradientUnits="userSpaceOnUse"
       y2="0"
       x2="1"
       y1="0"
       x1="0"><stop
         id="stop376"
         offset="0"
         style="stop-opacity:1;stop-color:#e6e7e8" /><stop
         id="stop378"
         offset="1"
         style="stop-opacity:1;stop-color:#d1d3d4" /></linearGradient></defs><g
     transform="matrix(1.25,0,0,-1.25,0,320)"
     id="g10"><g
       id="g12"><g
         clip-path="url(#clipPath16)"
         id="g14"><g
           transform="translate(216,184.8091)"
           id="g20"><path
             id="path22"
             style="fill:#999999;fill-opacity:1;fill-rule:nonzero;stroke:none"
             d="m 0,0 0,-109.618 c 0,-2.674 2.578,-4.611 5.139,-3.843 C 18.322,-109.505 28,-97.236 28,-82.809 l 0,56 C 28,-12.382 18.322,-0.113 5.139,3.843 2.578,4.611 0,2.673 0,0" /></g><g
           transform="translate(40,184.8091)"
           id="g24"><path
             id="path26"
             style="fill:#999999;fill-opacity:1;fill-rule:nonzero;stroke:none"
             d="M 0,0 C 0,2.673 -2.578,4.611 -5.138,3.843 -18.322,-0.113 -28,-12.382 -28,-26.809 l 0,-56 c 0,-14.427 9.678,-26.696 22.862,-30.652 2.56,-0.768 5.138,1.169 5.138,3.843 L 0,0 Z" /></g></g></g><g
       id="g28"><g
         clip-path="url(#clipPath32)"
         id="g30"><g
           id="g36"><g
             id="g38"><path
               id="path46"
               style="fill:url(#linearGradient40);stroke:none"
               d="M 44,188 C 26.4,188 12,173.6 12,156 l 0,0 0,-56 C 12,82.4 26.4,68 44,68 l 0,0 168,0 c 17.6,0 32,14.4 32,32 l 0,0 0,56 c 0,17.6 -14.4,32 -32,32 l 0,0 -168,0 z" /></g></g></g></g><g
       id="g48"><g
         clip-path="url(#clipPath52)"
         id="g50"><g
           id="g56"><g
             id="g58"><path
               id="path66"
               style="fill:url(#linearGradient60);stroke:none"
               d="m 62,90 132,0 0,76 -132,0 0,-76 z" /></g></g></g></g><g
       id="g68"><g
         clip-path="url(#clipPath72)"
         id="g70"><path
           id="path76"
           style="fill:#949494;fill-opacity:1;fill-rule:nonzero;stroke:none"
           d="m 192,92 -128,0 0,72 128,0 0,-72 z" /></g></g><g
       id="g78"><g
         clip-path="url(#clipPath82)"
         id="g80"><g
           id="g86"><g
             id="g88"><path
               id="path96"
               style="fill:url(#linearGradient90);stroke:none"
               d="m 100,182 c -2.201,0 -4,-1.8 -4,-4 l 0,0 c 0,-2.2 1.799,-4 4,-4 l 0,0 56,0 c 2.2,0 4,1.8 4,4 l 0,0 c 0,2.2 -1.8,4 -4,4 l 0,0 -56,0 z" /></g></g></g></g><g
       id="g98"><g
         clip-path="url(#clipPath102)"
         id="g100"><g
           transform="translate(208,132)"
           id="g106"><path
             id="path108"
             style="fill:#999999;fill-opacity:1;fill-rule:nonzero;stroke:none"
             d="m 0,0 c 0,-2.209 -1.791,-4 -4,-4 -2.209,0 -4,1.791 -4,4 0,2.209 1.791,4 4,4 2.209,0 4,-1.791 4,-4" /></g><g
           transform="translate(218,140)"
           id="g110"><path
             id="path112"
             style="fill:#999999;fill-opacity:1;fill-rule:nonzero;stroke:none"
             d="m 0,0 c 0,-2.209 -1.791,-4 -4,-4 -2.209,0 -4,1.791 -4,4 0,2.209 1.791,4 4,4 2.209,0 4,-1.791 4,-4" /></g><g
           transform="translate(218,124)"
           id="g114"><path
             id="path116"
             style="fill:#999999;fill-opacity:1;fill-rule:nonzero;stroke:none"
             d="m 0,0 c 0,-2.209 -1.791,-4 -4,-4 -2.209,0 -4,1.791 -4,4 0,2.209 1.791,4 4,4 2.209,0 4,-1.791 4,-4" /></g><g
           transform="translate(228,132)"
           id="g118"><path
             id="path120"
             style="fill:#999999;fill-opacity:1;fill-rule:nonzero;stroke:none"
             d="m 0,0 c 0,-2.209 -1.791,-4 -4,-4 -2.209,0 -4,1.791 -4,4 0,2.209 1.791,4 4,4 2.209,0 4,-1.791 4,-4" /></g><g
           transform="translate(201,109)"
           id="g122"><path
             id="path124"
             style="fill:#999999;fill-opacity:1;fill-rule:nonzero;stroke:none"
             d="M 0,0 C 0,-1.657 1.343,-3 3,-3 4.657,-3 6,-1.657 6,0 6,1.657 4.657,3 3,3 1.343,3 0,1.657 0,0" /></g><g
           transform="translate(201,99)"
           id="g126"><path
             id="path128"
             style="fill:#999999;fill-opacity:1;fill-rule:nonzero;stroke:none"
             d="M 0,0 C 0,-1.657 1.343,-3 3,-3 4.657,-3 6,-1.657 6,0 6,1.657 4.657,3 3,3 1.343,3 0,1.657 0,0" /></g><g
           transform="translate(186,79)"
           id="g130"><path
             id="path132"
             style="fill:#999999;fill-opacity:1;fill-rule:nonzero;stroke:none"
             d="M 0,0 C 0,-1.657 1.343,-3 3,-3 4.657,-3 6,-1.657 6,0 6,1.657 4.657,3 3,3 1.343,3 0,1.657 0,0" /></g><g
           transform="translate(176,76)"
           id="g134"><path
             id="path136"
             style="fill:#999999;fill-opacity:1;fill-rule:nonzero;stroke:none"
             d="M 0,0 2,0 C 3.1,0 4,0.9 4,2 L 4,4 C 4,5.1 3.1,6 2,6 L 0,6 C -1.1,6 -2,5.1 -2,4 L -2,2 C -2,0.9 -1.1,0 0,0" /></g><g
           transform="translate(132,178)"
           id="g138"><path
             id="path140"
             style="fill:#999999;fill-opacity:1;fill-rule:nonzero;stroke:none"
             d="m 0,0 c 0,-2.209 -1.791,-4 -4,-4 -2.209,0 -4,1.791 -4,4 0,2.209 1.791,4 4,4 2.209,0 4,-1.791 4,-4" /></g><g
           transform="translate(131,178)"
           id="g142"><path
             id="path144"
             style="fill:#999999;fill-opacity:1;fill-rule:nonzero;stroke:none"
             d="m 0,0 c 0,-1.657 -1.343,-3 -3,-3 -1.657,0 -3,1.343 -3,3 0,1.657 1.343,3 3,3 1.657,0 3,-1.343 3,-3" /></g></g></g><g
       id="g146"><g
         clip-path="url(#clipPath150)"
         id="g148"><g
           id="g154"><g
             id="g156"><path
               id="path164"
               style="fill:url(#linearGradient158);stroke:none"
               d="m 126,178 c 0,-1.104 0.896,-2 2,-2 l 0,0 c 1.104,0 2,0.896 2,2 l 0,0 c 0,1.104 -0.896,2 -2,2 l 0,0 c -1.104,0 -2,-0.896 -2,-2" /></g></g></g></g><g
       id="g166"><g
         clip-path="url(#clipPath170)"
         id="g168"><g
           transform="translate(128,179)"
           id="g174"><path
             id="path176"
             style="fill:#999999;fill-opacity:1;fill-rule:nonzero;stroke:none"
             d="m 0,0 c 0.551,0 1,-0.449 1,-1 0,-0.551 -0.449,-1 -1,-1 -0.551,0 -1,0.449 -1,1 0,0.551 0.449,1 1,1" /></g><g
           transform="translate(166,79)"
           id="g178"><path
             id="path180"
             style="fill:#999999;fill-opacity:1;fill-rule:nonzero;stroke:none"
             d="m 0,0 c 0,-0.553 -0.447,-1 -1,-1 -0.553,0 -1,0.447 -1,1 0,0.553 0.447,1 1,1 0.553,0 1,-0.447 1,-1" /></g><g
           transform="translate(116,79)"
           id="g182"><path
             id="path184"
             style="fill:#999999;fill-opacity:1;fill-rule:nonzero;stroke:none"
             d="m 0,0 c 0,-0.553 -0.448,-1 -1,-1 -0.552,0 -1,0.447 -1,1 0,0.553 0.448,1 1,1 0.552,0 1,-0.447 1,-1" /></g><g
           transform="translate(128,83)"
           id="g186"><path
             id="path188"
             style="fill:#ffffff;fill-opacity:1;fill-rule:nonzero;stroke:none"
             d="m 0,0 c -2.757,0 -5,-2.243 -5,-5 0,-2.757 2.243,-5 5,-5 2.757,0 5,2.243 5,5 0,2.757 -2.243,5 -5,5" /></g><g
           transform="translate(128,82)"
           id="g190"><path
             id="path192"
             style="fill:#999999;fill-opacity:1;fill-rule:nonzero;stroke:none"
             d="m 0,0 c 2.209,0 4,-1.791 4,-4 0,-2.209 -1.791,-4 -4,-4 -2.209,0 -4,1.791 -4,4 0,2.209 1.791,4 4,4" /></g></g></g><g
       id="g194"><g
         clip-path="url(#clipPath198)"
         id="g196"><g
           id="g202"><g
             id="g204"><path
               id="path212"
               style="fill:url(#linearGradient206);stroke:none"
               d="m 215.515,168.485 c -4.687,-4.686 -4.687,-12.284 0,-16.97 l 0,0 c 4.686,-4.686 12.284,-4.686 16.97,0 l 0,0 c 4.687,4.686 4.687,12.284 0,16.97 l 0,0 C 230.142,170.829 227.071,172 224,172 l 0,0 c -3.071,0 -6.142,-1.171 -8.485,-3.515" /></g></g></g></g><g
       id="g214"><g
         clip-path="url(#clipPath218)"
         id="g216"><g
           transform="translate(203,78)"
           id="g222"><path
             id="path224"
             style="fill:#999999;fill-opacity:1;fill-rule:nonzero;stroke:none"
             d="m 0,0 -2,0 c -0.553,0 -1,0.447 -1,1 0,0.553 0.447,1 1,1 L 0,2 C 0.553,2 1,1.553 1,1 1,0.447 0.553,0 0,0" /></g><g
           transform="translate(55,78)"
           id="g226"><path
             id="path228"
             style="fill:#999999;fill-opacity:1;fill-rule:nonzero;stroke:none"
             d="m 0,0 -2,0 c -0.552,0 -1,0.447 -1,1 0,0.553 0.448,1 1,1 L 0,2 C 0.552,2 1,1.553 1,1 1,0.447 0.552,0 0,0" /></g><g
           transform="translate(232,160)"
           id="g230"><path
             id="path232"
             style="fill:#999999;fill-opacity:1;fill-rule:nonzero;stroke:none"
             d="m 0,0 c 0,-4.418 -3.582,-8 -8,-8 -4.418,0 -8,3.582 -8,8 0,4.418 3.582,8 8,8 4.418,0 8,-3.582 8,-8" /></g><g
           transform="translate(224,166)"
           id="g234"><path
             id="path236"
             style="fill:#e6e6e6;fill-opacity:1;fill-rule:nonzero;stroke:none"
             d="m 0,0 c -3.313,0 -6,-2.687 -6,-6 0,-3.313 2.687,-6 6,-6 3.313,0 6,2.687 6,6 0,3.313 -2.687,6 -6,6 m 0,-1 c 2.757,0 5,-2.243 5,-5 0,-2.757 -2.243,-5 -5,-5 -2.757,0 -5,2.243 -5,5 0,2.757 2.243,5 5,5" /></g></g></g><g
       id="g238"><g
         clip-path="url(#clipPath242)"
         id="g240"><g
           id="g246"><g
             id="g248"><path
               id="path256"
               style="fill:url(#linearGradient250);stroke:none"
               d="m 23.514,168.485 c -4.685,-4.686 -4.685,-12.284 0,-16.97 l 0,0 c 4.688,-4.686 12.284,-4.686 16.972,0 l 0,0 c 4.685,4.686 4.685,12.284 0,16.97 l 0,0 C 38.142,170.829 35.071,172 32,172 l 0,0 c -3.071,0 -6.142,-1.171 -8.486,-3.515" /></g></g></g></g><g
       id="g258"><g
         clip-path="url(#clipPath262)"
         id="g260"><g
           transform="translate(40,160)"
           id="g266"><path
             id="path268"
             style="fill:#949494;fill-opacity:1;fill-rule:nonzero;stroke:none"
             d="m 0,0 c 0,-4.418 -3.582,-8 -8,-8 -4.418,0 -8,3.582 -8,8 0,4.418 3.582,8 8,8 4.418,0 8,-3.582 8,-8" /></g></g></g><g
       id="g270"><g
         clip-path="url(#clipPath274)"
         id="g272"><g
           id="g278"><g
             id="g280"><path
               id="path288"
               style="fill:url(#linearGradient282);stroke:none"
               d="m 26,160 c 0,-3.314 2.687,-6 6,-6 l 0,0 c 3.313,0 6,2.686 6,6 l 0,0 c 0,3.313 -2.687,6 -6,6 l 0,0 c -3.313,0 -6,-2.687 -6,-6 m 1,0 c 0,2.757 2.243,5 5,5 l 0,0 c 2.757,0 5,-2.243 5,-5 l 0,0 c 0,-2.757 -2.243,-5 -5,-5 l 0,0 c -2.757,0 -5,2.243 -5,5" /></g></g></g></g><g
       id="g290"><g
         clip-path="url(#clipPath294)"
         id="g292"><g
           transform="translate(53,136)"
           id="g298"><path
             id="path300"
             style="fill:#999999;fill-opacity:1;fill-rule:nonzero;stroke:none"
             d="m 0,0 -7,0 0,7 c 0,0.552 -0.448,1 -1,1 l -6,0 c -0.552,0 -1,-0.448 -1,-1 l 0,-7 -7,0 c -0.552,0 -1,-0.448 -1,-1 l 0,-6 c 0,-0.552 0.448,-1 1,-1 l 7,0 0,-7 c 0,-0.553 0.448,-1 1,-1 l 6,0 c 0.552,0 1,0.447 1,1 l 0,7 7,0 c 0.552,0 1,0.448 1,1 l 0,6 C 1,-0.448 0.552,0 0,0" /></g></g></g><g
       id="g302"><g
         clip-path="url(#clipPath306)"
         id="g304"><g
           id="g310"><g
             id="g312"><path
               id="path320"
               style="fill:url(#linearGradient314);stroke:none"
               d="m 32,131.5 4,0 0,1 -4,0 0,-1 z" /></g></g></g></g><g
       id="g322"><g
         clip-path="url(#clipPath326)"
         id="g324"><g
           id="g330"><g
             id="g332"><path
               id="path340"
               style="fill:url(#linearGradient334);stroke:none"
               d="m 48,131.5 4.001,0 0,1 -4.001,0 0,-1 z" /></g></g></g></g><g
       id="g342"><g
         clip-path="url(#clipPath346)"
         id="g344"><g
           id="g350"><g
             id="g352"><path
               id="path360"
               style="fill:url(#linearGradient354);stroke:none"
               d="m 41.5,138 1,0 0,4.001 -1,0 0,-4.001 z" /></g></g></g></g><g
       id="g362"><g
         clip-path="url(#clipPath366)"
         id="g364"><g
           id="g370"><g
             id="g372"><path
               id="path380"
               style="fill:url(#linearGradient374);stroke:none"
               d="m 41.5,122 1,0 0,4 -1,0 0,-4 z" /></g></g></g></g></g></svg>