<?xml version="1.0" encoding="UTF-8" standalone="no"?>
<svg
   xmlns:dc="http://purl.org/dc/elements/1.1/"
   xmlns:cc="http://creativecommons.org/ns#"
   xmlns:rdf="http://www.w3.org/1999/02/22-rdf-syntax-ns#"
   xmlns:svg="http://www.w3.org/2000/svg"
   xmlns="http://www.w3.org/2000/svg"
   viewBox="0 0 320 320"
   height="320"
   width="320"
   xml:space="preserve"
   version="1.1"
   id="svg2"><metadata
     id="metadata8"><rdf:RDF><cc:Work
         rdf:about=""><dc:format>image/svg+xml</dc:format><dc:type
           rdf:resource="http://purl.org/dc/dcmitype/StillImage" /></cc:Work></rdf:RDF></metadata><defs
     id="defs6"><clipPath
       id="clipPath16"
       clipPathUnits="userSpaceOnUse"><path
         id="path18"
         d="M 16.834,176 C 14.164,176 12,173.851 12,171.2 l 0,0 0,-90.4 C 12,78.149 14.164,76 16.834,76 l 0,0 222.333,0 c 2.669,0 4.833,2.149 4.833,4.8 l 0,0 0,90.4 c 0,2.651 -2.164,4.8 -4.833,4.8 l 0,0 -222.333,0 z" /></clipPath><linearGradient
       id="linearGradient24"
       spreadMethod="pad"
       gradientTransform="matrix(163.17847,-163.17847,-163.17847,-163.17847,46.410767,207.58923)"
       gradientUnits="userSpaceOnUse"
       y2="0"
       x2="1"
       y1="0"
       x1="0"><stop
         id="stop26"
         offset="0"
         style="stop-opacity:1;stop-color:#e6e7e8" /><stop
         id="stop28"
         offset="1"
         style="stop-opacity:1;stop-color:#d1d3d4" /></linearGradient><clipPath
       id="clipPath36"
       clipPathUnits="userSpaceOnUse"><path
         id="path38"
         d="M 0,256 256,256 256,0 0,0 0,256 Z" /></clipPath><clipPath
       id="clipPath46"
       clipPathUnits="userSpaceOnUse"><path
         id="path48"
         d="m 47.759,146 c -1.039,0 -1.881,-0.843 -1.881,-1.882 l 0,0 0,-11.996 -11.996,0 C 32.843,132.122 32,131.279 32,130.24 l 0,0 0,-16.48 c 0,-1.039 0.843,-1.882 1.882,-1.882 l 0,0 11.996,0 0,-11.996 C 45.878,98.842 46.72,98 47.759,98 l 0,0 16.481,0 c 1.04,0 1.882,0.842 1.882,1.882 l 0,0 0,11.996 11.996,0 c 1.04,0 1.882,0.843 1.882,1.882 l 0,0 0,16.48 c 0,1.039 -0.842,1.882 -1.882,1.882 l 0,0 -11.996,0 0,11.996 c 0,1.039 -0.842,1.882 -1.882,1.882 l 0,0 -16.481,0 z" /></clipPath><linearGradient
       id="linearGradient54"
       spreadMethod="pad"
       gradientTransform="matrix(-33.019924,33.019924,33.019924,33.019924,72.509819,105.48994)"
       gradientUnits="userSpaceOnUse"
       y2="0"
       x2="1"
       y1="0"
       x1="0"><stop
         id="stop56"
         offset="0"
         style="stop-opacity:1;stop-color:#e6e7e8" /><stop
         id="stop58"
         offset="1"
         style="stop-opacity:1;stop-color:#d1d3d4" /></linearGradient><clipPath
       id="clipPath66"
       clipPathUnits="userSpaceOnUse"><path
         id="path68"
         d="M 0,256 256,256 256,0 0,0 0,256 Z" /></clipPath><clipPath
       id="clipPath78"
       clipPathUnits="userSpaceOnUse"><path
         id="path80"
         d="M 170.439,120 C 169.092,120 168,118.908 168,117.561 l 0,0 0,-19.122 C 168,97.092 169.092,96 170.439,96 l 0,0 19.122,0 c 1.347,0 2.439,1.092 2.439,2.439 l 0,0 0,19.122 c 0,1.347 -1.092,2.439 -2.439,2.439 l 0,0 -19.122,0 z" /></clipPath><linearGradient
       id="linearGradient86"
       spreadMethod="pad"
       gradientTransform="matrix(22.571158,-22.571158,-22.571158,-22.571158,168.71442,119.28558)"
       gradientUnits="userSpaceOnUse"
       y2="0"
       x2="1"
       y1="0"
       x1="0"><stop
         id="stop88"
         offset="0"
         style="stop-opacity:1;stop-color:#e6e7e8" /><stop
         id="stop90"
         offset="1"
         style="stop-opacity:1;stop-color:#d1d3d4" /></linearGradient><clipPath
       id="clipPath98"
       clipPathUnits="userSpaceOnUse"><path
         id="path100"
         d="m 169,108 c 0,-6.065 4.935,-11 11,-11 l 0,0 c 6.065,0 11,4.935 11,11 l 0,0 c 0,6.065 -4.935,11 -11,11 l 0,0 c -6.065,0 -11,-4.935 -11,-11" /></clipPath><linearGradient
       id="linearGradient106"
       spreadMethod="pad"
       gradientTransform="matrix(15.549064,-15.549064,-15.549064,-15.549064,172.22546,115.77453)"
       gradientUnits="userSpaceOnUse"
       y2="0"
       x2="1"
       y1="0"
       x1="0"><stop
         id="stop108"
         offset="0"
         style="stop-opacity:1;stop-color:#e6e7e8" /><stop
         id="stop110"
         offset="1"
         style="stop-opacity:1;stop-color:#d1d3d4" /></linearGradient><clipPath
       id="clipPath118"
       clipPathUnits="userSpaceOnUse"><path
         id="path120"
         d="M 0,256 256,256 256,0 0,0 0,256 Z" /></clipPath><clipPath
       id="clipPath130"
       clipPathUnits="userSpaceOnUse"><path
         id="path132"
         d="M 202.439,120 C 201.092,120 200,118.908 200,117.561 l 0,0 0,-19.122 C 200,97.092 201.092,96 202.439,96 l 0,0 19.122,0 c 1.347,0 2.439,1.092 2.439,2.439 l 0,0 0,19.122 c 0,1.347 -1.092,2.439 -2.439,2.439 l 0,0 -19.122,0 z" /></clipPath><linearGradient
       id="linearGradient138"
       spreadMethod="pad"
       gradientTransform="matrix(22.571158,-22.571158,-22.571158,-22.571158,200.71442,119.28558)"
       gradientUnits="userSpaceOnUse"
       y2="0"
       x2="1"
       y1="0"
       x1="0"><stop
         id="stop140"
         offset="0"
         style="stop-opacity:1;stop-color:#e6e7e8" /><stop
         id="stop142"
         offset="1"
         style="stop-opacity:1;stop-color:#d1d3d4" /></linearGradient><clipPath
       id="clipPath150"
       clipPathUnits="userSpaceOnUse"><path
         id="path152"
         d="m 201,108 c 0,-6.065 4.934,-11 11,-11 l 0,0 c 6.065,0 11,4.935 11,11 l 0,0 c 0,6.065 -4.935,11 -11,11 l 0,0 c -6.066,0 -11,-4.935 -11,-11" /></clipPath><linearGradient
       id="linearGradient158"
       spreadMethod="pad"
       gradientTransform="matrix(15.549064,-15.549064,-15.549064,-15.549064,204.22546,115.77453)"
       gradientUnits="userSpaceOnUse"
       y2="0"
       x2="1"
       y1="0"
       x1="0"><stop
         id="stop160"
         offset="0"
         style="stop-opacity:1;stop-color:#e6e7e8" /><stop
         id="stop162"
         offset="1"
         style="stop-opacity:1;stop-color:#d1d3d4" /></linearGradient><clipPath
       id="clipPath170"
       clipPathUnits="userSpaceOnUse"><path
         id="path172"
         d="M 0,256 256,256 256,0 0,0 0,256 Z" /></clipPath><clipPath
       id="clipPath182"
       clipPathUnits="userSpaceOnUse"><path
         id="path184"
         d="m 96,120 c -2.209,0 -4,-1.791 -4,-4 l 0,0 0,-16 c 0,-2.209 1.791,-4 4,-4 l 0,0 56,0 c 2.209,0 4,1.791 4,4 l 0,0 0,16 c 0,2.209 -1.791,4 -4,4 l 0,0 -56,0 z" /></clipPath><linearGradient
       id="linearGradient190"
       spreadMethod="pad"
       gradientTransform="matrix(41.656853,-41.656853,-41.656853,-41.656853,103.17157,128.82843)"
       gradientUnits="userSpaceOnUse"
       y2="0"
       x2="1"
       y1="0"
       x1="0"><stop
         id="stop192"
         offset="0"
         style="stop-opacity:1;stop-color:#e6e7e8" /><stop
         id="stop194"
         offset="1"
         style="stop-opacity:1;stop-color:#d1d3d4" /></linearGradient><clipPath
       id="clipPath202"
       clipPathUnits="userSpaceOnUse"><path
         id="path204"
         d="M 0,256 256,256 256,0 0,0 0,256 Z" /></clipPath><clipPath
       id="clipPath218"
       clipPathUnits="userSpaceOnUse"><path
         id="path220"
         d="m 52,122 c 0,-2.209 1.791,-4 4,-4 l 0,0 c 2.209,0 4,1.791 4,4 l 0,0 c 0,2.209 -1.791,4 -4,4 l 0,0 c -2.209,0 -4,-1.791 -4,-4" /></clipPath><linearGradient
       id="linearGradient226"
       spreadMethod="pad"
       gradientTransform="matrix(-5.6568851,5.6568851,5.6568851,5.6568851,58.828606,119.17155)"
       gradientUnits="userSpaceOnUse"
       y2="0"
       x2="1"
       y1="0"
       x1="0"><stop
         id="stop228"
         offset="0"
         style="stop-opacity:1;stop-color:#e6e7e8" /><stop
         id="stop230"
         offset="1"
         style="stop-opacity:1;stop-color:#d1d3d4" /></linearGradient><clipPath
       id="clipPath238"
       clipPathUnits="userSpaceOnUse"><path
         id="path240"
         d="m 54.126,110 0,-3.248 -2.127,0 L 56,102 l 3.999,4.752 -1.923,0 0,3.248 -3.95,0 z" /></clipPath><linearGradient
       id="linearGradient246"
       spreadMethod="pad"
       gradientTransform="matrix(-4.9367089,4.9367089,4.9367089,4.9367089,58.5187,104.51899)"
       gradientUnits="userSpaceOnUse"
       y2="0"
       x2="1"
       y1="0"
       x1="0"><stop
         id="stop248"
         offset="0"
         style="stop-opacity:1;stop-color:#e6e7e8" /><stop
         id="stop250"
         offset="1"
         style="stop-opacity:1;stop-color:#d1d3d4" /></linearGradient><clipPath
       id="clipPath258"
       clipPathUnits="userSpaceOnUse"><path
         id="path260"
         d="m 51.999,137.248 1.925,0 0,-3.248 3.949,0 0,3.248 2.126,0 L 56,142 51.999,137.248 Z" /></clipPath><linearGradient
       id="linearGradient266"
       spreadMethod="pad"
       gradientTransform="matrix(-4.9367089,4.9367089,4.9367089,4.9367089,58.417431,134.5443)"
       gradientUnits="userSpaceOnUse"
       y2="0"
       x2="1"
       y1="0"
       x1="0"><stop
         id="stop268"
         offset="0"
         style="stop-opacity:1;stop-color:#e6e7e8" /><stop
         id="stop270"
         offset="1"
         style="stop-opacity:1;stop-color:#d1d3d4" /></linearGradient><clipPath
       id="clipPath278"
       clipPathUnits="userSpaceOnUse"><path
         id="path280"
         d="m 36,122 4.752,-4 0,1.924 3.248,0 0,3.949 -3.248,0 0,2.127 L 36,122 Z" /></clipPath><linearGradient
       id="linearGradient286"
       spreadMethod="pad"
       gradientTransform="matrix(-5.0379744,5.0379744,5.0379744,5.0379744,43.506329,119.43067)"
       gradientUnits="userSpaceOnUse"
       y2="0"
       x2="1"
       y1="0"
       x1="0"><stop
         id="stop288"
         offset="0"
         style="stop-opacity:1;stop-color:#e6e7e8" /><stop
         id="stop290"
         offset="1"
         style="stop-opacity:1;stop-color:#d1d3d4" /></linearGradient><clipPath
       id="clipPath298"
       clipPathUnits="userSpaceOnUse"><path
         id="path300"
         d="m 71.248,124.076 -3.249,0 0,-3.949 3.249,0 0,-2.127 4.752,4 -4.752,4 0,-1.924 z" /></clipPath><linearGradient
       id="linearGradient306"
       spreadMethod="pad"
       gradientTransform="matrix(-5.0380759,5.0380759,5.0380759,5.0380759,73.531593,119.53188)"
       gradientUnits="userSpaceOnUse"
       y2="0"
       x2="1"
       y1="0"
       x1="0"><stop
         id="stop308"
         offset="0"
         style="stop-opacity:1;stop-color:#e6e7e8" /><stop
         id="stop310"
         offset="1"
         style="stop-opacity:1;stop-color:#d1d3d4" /></linearGradient><clipPath
       id="clipPath318"
       clipPathUnits="userSpaceOnUse"><path
         id="path320"
         d="M 94.623,136 C 93.174,136 92,134.725 92,133.154 l 0,0 0,-6.308 C 92,125.274 93.174,124 94.623,124 l 0,0 58.754,0 c 1.448,0 2.623,1.274 2.623,2.846 l 0,0 0,6.308 c 0,1.571 -1.175,2.846 -2.623,2.846 l 0,0 -58.754,0 z" /></clipPath><linearGradient
       id="linearGradient326"
       spreadMethod="pad"
       gradientTransform="matrix(-36.401409,36.401409,36.401409,36.401409,142.2007,111.79929)"
       gradientUnits="userSpaceOnUse"
       y2="0"
       x2="1"
       y1="0"
       x1="0"><stop
         id="stop328"
         offset="0"
         style="stop-opacity:1;stop-color:#e6e7e8" /><stop
         id="stop330"
         offset="1"
         style="stop-opacity:1;stop-color:#d1d3d4" /></linearGradient><clipPath
       id="clipPath338"
       clipPathUnits="userSpaceOnUse"><path
         id="path340"
         d="M 94.623,152 C 93.174,152 92,150.726 92,149.154 l 0,0 0,-6.309 C 92,141.274 93.174,140 94.623,140 l 0,0 58.754,0 c 1.448,0 2.623,1.274 2.623,2.845 l 0,0 0,6.309 c 0,1.572 -1.175,2.846 -2.623,2.846 l 0,0 -58.754,0 z" /></clipPath><linearGradient
       id="linearGradient346"
       spreadMethod="pad"
       gradientTransform="matrix(-36.401409,36.401409,36.401409,36.401409,142.2007,127.79929)"
       gradientUnits="userSpaceOnUse"
       y2="0"
       x2="1"
       y1="0"
       x1="0"><stop
         id="stop348"
         offset="0"
         style="stop-opacity:1;stop-color:#e6e7e8" /><stop
         id="stop350"
         offset="1"
         style="stop-opacity:1;stop-color:#d1d3d4" /></linearGradient><clipPath
       id="clipPath358"
       clipPathUnits="userSpaceOnUse"><path
         id="path360"
         d="m 92,164 0,-5.155 C 92,157.274 93.174,156 94.623,156 l 0,0 58.754,0 c 1.448,0 2.623,1.274 2.623,2.845 l 0,0 0,5.155 -64,0 z" /></clipPath><linearGradient
       id="linearGradient366"
       spreadMethod="pad"
       gradientTransform="matrix(-35.200699,35.200699,35.200699,35.200699,141.60036,143.19894)"
       gradientUnits="userSpaceOnUse"
       y2="0"
       x2="1"
       y1="0"
       x1="0"><stop
         id="stop368"
         offset="0"
         style="stop-opacity:1;stop-color:#e6e7e8" /><stop
         id="stop370"
         offset="1"
         style="stop-opacity:1;stop-color:#d1d3d4" /></linearGradient><clipPath
       id="clipPath378"
       clipPathUnits="userSpaceOnUse"><path
         id="path380"
         d="M 94.623,92 C 93.174,92 92,90.726 92,89.154 l 0,0 0,-5.154 64,0 0,5.154 C 156,90.726 154.825,92 153.377,92 l 0,0 -58.754,0 z" /></clipPath><linearGradient
       id="linearGradient386"
       spreadMethod="pad"
       gradientTransform="matrix(-35.20071,35.20071,35.20071,35.20071,141.60036,69.600357)"
       gradientUnits="userSpaceOnUse"
       y2="0"
       x2="1"
       y1="0"
       x1="0"><stop
         id="stop388"
         offset="0"
         style="stop-opacity:1;stop-color:#e6e7e8" /><stop
         id="stop390"
         offset="1"
         style="stop-opacity:1;stop-color:#d1d3d4" /></linearGradient><clipPath
       id="clipPath398"
       clipPathUnits="userSpaceOnUse"><path
         id="path400"
         d="m 80,172 12,0 0,4.001 -12,0 0,-4.001 z" /></clipPath><linearGradient
       id="linearGradient406"
       spreadMethod="pad"
       gradientTransform="matrix(-7.9999995,7.9999995,7.9999995,7.9999995,90,170)"
       gradientUnits="userSpaceOnUse"
       y2="0"
       x2="1"
       y1="0"
       x1="0"><stop
         id="stop408"
         offset="0"
         style="stop-opacity:1;stop-color:#e6e7e8" /><stop
         id="stop410"
         offset="1"
         style="stop-opacity:1;stop-color:#d1d3d4" /></linearGradient></defs><g
     transform="matrix(1.25,0,0,-1.25,0,320)"
     id="g10"><g
       id="g12"><g
         clip-path="url(#clipPath16)"
         id="g14"><g
           id="g20"><g
             id="g22"><path
               id="path30"
               style="fill:url(#linearGradient24);stroke:none"
               d="M 16.834,176 C 14.164,176 12,173.851 12,171.2 l 0,0 0,-90.4 C 12,78.149 14.164,76 16.834,76 l 0,0 222.333,0 c 2.669,0 4.833,2.149 4.833,4.8 l 0,0 0,90.4 c 0,2.651 -2.164,4.8 -4.833,4.8 l 0,0 -222.333,0 z" /></g></g></g></g><g
       id="g32"><g
         clip-path="url(#clipPath36)"
         id="g34"><path
           id="path40"
           style="fill:#999999;fill-opacity:1;fill-rule:nonzero;stroke:none"
           d="m 236,84 -216,0 0,80 216,0 0,-80 z" /></g></g><g
       id="g42"><g
         clip-path="url(#clipPath46)"
         id="g44"><g
           id="g50"><g
             id="g52"><path
               id="path60"
               style="fill:url(#linearGradient54);stroke:none"
               d="m 47.759,146 c -1.039,0 -1.881,-0.843 -1.881,-1.882 l 0,0 0,-11.996 -11.996,0 C 32.843,132.122 32,131.279 32,130.24 l 0,0 0,-16.48 c 0,-1.039 0.843,-1.882 1.882,-1.882 l 0,0 11.996,0 0,-11.996 C 45.878,98.842 46.72,98 47.759,98 l 0,0 16.481,0 c 1.04,0 1.882,0.842 1.882,1.882 l 0,0 0,11.996 11.996,0 c 1.04,0 1.882,0.843 1.882,1.882 l 0,0 0,16.48 c 0,1.039 -0.842,1.882 -1.882,1.882 l 0,0 -11.996,0 0,11.996 c 0,1.039 -0.842,1.882 -1.882,1.882 l 0,0 -16.481,0 z" /></g></g></g></g><g
       id="g62"><g
         clip-path="url(#clipPath66)"
         id="g64"><g
           transform="translate(78,130.196)"
           id="g70"><path
             id="path72"
             style="fill:#999999;fill-opacity:1;fill-rule:nonzero;stroke:none"
             d="m 0,0 -13.804,0 0,13.804 -16.392,0 0,-13.804 -13.804,0 0,-16.392 13.804,0 0,-13.804 16.392,0 0,13.804 13.804,0 L 0,0 Z" /></g></g></g><g
       id="g74"><g
         clip-path="url(#clipPath78)"
         id="g76"><g
           id="g82"><g
             id="g84"><path
               id="path92"
               style="fill:url(#linearGradient86);stroke:none"
               d="M 170.439,120 C 169.092,120 168,118.908 168,117.561 l 0,0 0,-19.122 C 168,97.092 169.092,96 170.439,96 l 0,0 19.122,0 c 1.347,0 2.439,1.092 2.439,2.439 l 0,0 0,19.122 c 0,1.347 -1.092,2.439 -2.439,2.439 l 0,0 -19.122,0 z" /></g></g></g></g><g
       id="g94"><g
         clip-path="url(#clipPath98)"
         id="g96"><g
           id="g102"><g
             id="g104"><path
               id="path112"
               style="fill:url(#linearGradient106);stroke:none"
               d="m 169,108 c 0,-6.065 4.935,-11 11,-11 l 0,0 c 6.065,0 11,4.935 11,11 l 0,0 c 0,6.065 -4.935,11 -11,11 l 0,0 c -6.065,0 -11,-4.935 -11,-11" /></g></g></g></g><g
       id="g114"><g
         clip-path="url(#clipPath118)"
         id="g116"><g
           transform="translate(190,108)"
           id="g122"><path
             id="path124"
             style="fill:#999999;fill-opacity:1;fill-rule:nonzero;stroke:none"
             d="m 0,0 c 0,-5.523 -4.477,-10 -10,-10 -5.523,0 -10,4.477 -10,10 0,5.523 4.477,10 10,10 C -4.477,10 0,5.523 0,0" /></g></g></g><g
       id="g126"><g
         clip-path="url(#clipPath130)"
         id="g128"><g
           id="g134"><g
             id="g136"><path
               id="path144"
               style="fill:url(#linearGradient138);stroke:none"
               d="M 202.439,120 C 201.092,120 200,118.908 200,117.561 l 0,0 0,-19.122 C 200,97.092 201.092,96 202.439,96 l 0,0 19.122,0 c 1.347,0 2.439,1.092 2.439,2.439 l 0,0 0,19.122 c 0,1.347 -1.092,2.439 -2.439,2.439 l 0,0 -19.122,0 z" /></g></g></g></g><g
       id="g146"><g
         clip-path="url(#clipPath150)"
         id="g148"><g
           id="g154"><g
             id="g156"><path
               id="path164"
               style="fill:url(#linearGradient158);stroke:none"
               d="m 201,108 c 0,-6.065 4.934,-11 11,-11 l 0,0 c 6.065,0 11,4.935 11,11 l 0,0 c 0,6.065 -4.935,11 -11,11 l 0,0 c -6.066,0 -11,-4.935 -11,-11" /></g></g></g></g><g
       id="g166"><g
         clip-path="url(#clipPath170)"
         id="g168"><g
           transform="translate(222,108)"
           id="g174"><path
             id="path176"
             style="fill:#999999;fill-opacity:1;fill-rule:nonzero;stroke:none"
             d="m 0,0 c 0,-5.523 -4.477,-10 -10,-10 -5.523,0 -10,4.477 -10,10 0,5.523 4.477,10 10,10 C -4.477,10 0,5.523 0,0" /></g></g></g><g
       id="g178"><g
         clip-path="url(#clipPath182)"
         id="g180"><g
           id="g186"><g
             id="g188"><path
               id="path196"
               style="fill:url(#linearGradient190);stroke:none"
               d="m 96,120 c -2.209,0 -4,-1.791 -4,-4 l 0,0 0,-16 c 0,-2.209 1.791,-4 4,-4 l 0,0 56,0 c 2.209,0 4,1.791 4,4 l 0,0 0,16 c 0,2.209 -1.791,4 -4,4 l 0,0 -56,0 z" /></g></g></g></g><g
       id="g198"><g
         clip-path="url(#clipPath202)"
         id="g200"><g
           transform="translate(120,108)"
           id="g206"><path
             id="path208"
             style="fill:#999999;fill-opacity:1;fill-rule:nonzero;stroke:none"
             d="m 0,0 c 0,-2.209 -1.78,-4 -3.976,-4 l -12.048,0 C -18.22,-4 -20,-2.209 -20,0 c 0,2.209 1.78,4 3.976,4 L -3.976,4 C -1.78,4 0,2.209 0,0" /></g><g
           transform="translate(148,108)"
           id="g210"><path
             id="path212"
             style="fill:#999999;fill-opacity:1;fill-rule:nonzero;stroke:none"
             d="m 0,0 c 0,-2.209 -1.78,-4 -3.976,-4 l -12.048,0 C -18.22,-4 -20,-2.209 -20,0 c 0,2.209 1.78,4 3.976,4 L -3.976,4 C -1.78,4 0,2.209 0,0" /></g></g></g><g
       id="g214"><g
         clip-path="url(#clipPath218)"
         id="g216"><g
           id="g222"><g
             id="g224"><path
               id="path232"
               style="fill:url(#linearGradient226);stroke:none"
               d="m 52,122 c 0,-2.209 1.791,-4 4,-4 l 0,0 c 2.209,0 4,1.791 4,4 l 0,0 c 0,2.209 -1.791,4 -4,4 l 0,0 c -2.209,0 -4,-1.791 -4,-4" /></g></g></g></g><g
       id="g234"><g
         clip-path="url(#clipPath238)"
         id="g236"><g
           id="g242"><g
             id="g244"><path
               id="path252"
               style="fill:url(#linearGradient246);stroke:none"
               d="m 54.126,110 0,-3.248 -2.127,0 L 56,102 l 3.999,4.752 -1.923,0 0,3.248 -3.95,0 z" /></g></g></g></g><g
       id="g254"><g
         clip-path="url(#clipPath258)"
         id="g256"><g
           id="g262"><g
             id="g264"><path
               id="path272"
               style="fill:url(#linearGradient266);stroke:none"
               d="m 51.999,137.248 1.925,0 0,-3.248 3.949,0 0,3.248 2.126,0 L 56,142 51.999,137.248 Z" /></g></g></g></g><g
       id="g274"><g
         clip-path="url(#clipPath278)"
         id="g276"><g
           id="g282"><g
             id="g284"><path
               id="path292"
               style="fill:url(#linearGradient286);stroke:none"
               d="m 36,122 4.752,-4 0,1.924 3.248,0 0,3.949 -3.248,0 0,2.127 L 36,122 Z" /></g></g></g></g><g
       id="g294"><g
         clip-path="url(#clipPath298)"
         id="g296"><g
           id="g302"><g
             id="g304"><path
               id="path312"
               style="fill:url(#linearGradient306);stroke:none"
               d="m 71.248,124.076 -3.249,0 0,-3.949 3.249,0 0,-2.127 4.752,4 -4.752,4 0,-1.924 z" /></g></g></g></g><g
       id="g314"><g
         clip-path="url(#clipPath318)"
         id="g316"><g
           id="g322"><g
             id="g324"><path
               id="path332"
               style="fill:url(#linearGradient326);stroke:none"
               d="M 94.623,136 C 93.174,136 92,134.725 92,133.154 l 0,0 0,-6.308 C 92,125.274 93.174,124 94.623,124 l 0,0 58.754,0 c 1.448,0 2.623,1.274 2.623,2.846 l 0,0 0,6.308 c 0,1.571 -1.175,2.846 -2.623,2.846 l 0,0 -58.754,0 z" /></g></g></g></g><g
       id="g334"><g
         clip-path="url(#clipPath338)"
         id="g336"><g
           id="g342"><g
             id="g344"><path
               id="path352"
               style="fill:url(#linearGradient346);stroke:none"
               d="M 94.623,152 C 93.174,152 92,150.726 92,149.154 l 0,0 0,-6.309 C 92,141.274 93.174,140 94.623,140 l 0,0 58.754,0 c 1.448,0 2.623,1.274 2.623,2.845 l 0,0 0,6.309 c 0,1.572 -1.175,2.846 -2.623,2.846 l 0,0 -58.754,0 z" /></g></g></g></g><g
       id="g354"><g
         clip-path="url(#clipPath358)"
         id="g356"><g
           id="g362"><g
             id="g364"><path
               id="path372"
               style="fill:url(#linearGradient366);stroke:none"
               d="m 92,164 0,-5.155 C 92,157.274 93.174,156 94.623,156 l 0,0 58.754,0 c 1.448,0 2.623,1.274 2.623,2.845 l 0,0 0,5.155 -64,0 z" /></g></g></g></g><g
       id="g374"><g
         clip-path="url(#clipPath378)"
         id="g376"><g
           id="g382"><g
             id="g384"><path
               id="path392"
               style="fill:url(#linearGradient386);stroke:none"
               d="M 94.623,92 C 93.174,92 92,90.726 92,89.154 l 0,0 0,-5.154 64,0 0,5.154 C 156,90.726 154.825,92 153.377,92 l 0,0 -58.754,0 z" /></g></g></g></g><g
       id="g394"><g
         clip-path="url(#clipPath398)"
         id="g396"><g
           id="g402"><g
             id="g404"><path
               id="path412"
               style="fill:url(#linearGradient406);stroke:none"
               d="m 80,172 12,0 0,4.001 -12,0 0,-4.001 z" /></g></g></g></g></g></svg>