<?xml version="1.0" encoding="UTF-8" standalone="no"?>
<svg
   xmlns:dc="http://purl.org/dc/elements/1.1/"
   xmlns:cc="http://creativecommons.org/ns#"
   xmlns:rdf="http://www.w3.org/1999/02/22-rdf-syntax-ns#"
   xmlns:svg="http://www.w3.org/2000/svg"
   xmlns="http://www.w3.org/2000/svg"
   viewBox="0 0 320 320"
   height="320"
   width="320"
   xml:space="preserve"
   version="1.1"
   id="svg2"><metadata
     id="metadata8"><rdf:RDF><cc:Work
         rdf:about=""><dc:format>image/svg+xml</dc:format><dc:type
           rdf:resource="http://purl.org/dc/dcmitype/StillImage" /></cc:Work></rdf:RDF></metadata><defs
     id="defs6"><clipPath
       id="clipPath16"
       clipPathUnits="userSpaceOnUse"><path
         id="path18"
         d="m 158.315,244 -60.631,0 -34.481,0 C 59.225,244 56,240.816 56,236.887 l 0,0 0,-34.049 0,-22.079 0,-105.517 0,-22.081 0,-34.049 C 56,15.185 59.225,12 63.203,12 l 0,0 34.481,0 23.113,0 37.518,0 C 181.337,12 200,30.429 200,53.161 l 0,0 0,22.081 0,127.596 0,34.049 c 0,3.929 -3.225,7.113 -7.203,7.113 l 0,0 -34.482,0 z" /></clipPath><linearGradient
       id="linearGradient24"
       spreadMethod="pad"
       gradientTransform="matrix(173.77174,-173.77174,-173.77174,-173.77174,36.096409,219.90367)"
       gradientUnits="userSpaceOnUse"
       y2="0"
       x2="1"
       y1="0"
       x1="0"><stop
         id="stop26"
         offset="0"
         style="stop-opacity:1;stop-color:#e6e7e8" /><stop
         id="stop28"
         offset="1"
         style="stop-opacity:1;stop-color:#d1d3d4" /></linearGradient><clipPath
       id="clipPath36"
       clipPathUnits="userSpaceOnUse"><path
         id="path38"
         d="M 0,256 256,256 256,0 0,0 0,256 Z" /></clipPath><clipPath
       id="clipPath48"
       clipPathUnits="userSpaceOnUse"><path
         id="path50"
         d="m 164,214 -72,0 -2,0 0,-2 0,-68 0,-2 2,0 72,0 2,0 0,2 0,68 0,2 -2,0 z" /></clipPath><linearGradient
       id="linearGradient56"
       spreadMethod="pad"
       gradientTransform="matrix(-74,74,74,74,164.99995,141)"
       gradientUnits="userSpaceOnUse"
       y2="0"
       x2="1"
       y1="0"
       x1="0"><stop
         id="stop58"
         offset="0"
         style="stop-opacity:1;stop-color:#e6e7e8" /><stop
         id="stop60"
         offset="1"
         style="stop-opacity:1;stop-color:#d1d3d4" /></linearGradient><clipPath
       id="clipPath68"
       clipPathUnits="userSpaceOnUse"><path
         id="path70"
         d="m 92,144 72,0 0,68 -72,0 0,-68 z" /></clipPath><linearGradient
       id="linearGradient76"
       spreadMethod="pad"
       gradientTransform="matrix(70,-70,-70,-70,92.999954,213)"
       gradientUnits="userSpaceOnUse"
       y2="0"
       x2="1"
       y1="0"
       x1="0"><stop
         id="stop78"
         offset="0"
         style="stop-opacity:1;stop-color:#e6e7e8" /><stop
         id="stop80"
         offset="1"
         style="stop-opacity:1;stop-color:#d1d3d4" /></linearGradient><clipPath
       id="clipPath88"
       clipPathUnits="userSpaceOnUse"><path
         id="path90"
         d="m 176.024,109.309 -0.001,0.002 -0.036,-0.016 c -0.714,-0.255 -31.37,-14.563 -31.943,-14.892 l 0,0 -0.044,-0.02 0.002,-0.005 C 140.42,92.299 138,88.43 138,84 l 0,0 c 0,-6.617 5.383,-12 12,-12 l 0,0 c 1.285,0 2.52,0.208 3.681,0.583 l 0,0 10e-4,-0.002 0.033,0.015 c 0.888,0.29 31.798,14.754 31.798,14.754 l 0,0 -0.001,0.002 C 189.361,89.353 192,93.37 192,98 l 0,0 c 0,6.617 -5.383,12 -12,12 l 0,0 c -1.395,0 -2.73,-0.251 -3.976,-0.691" /></clipPath><linearGradient
       id="linearGradient96"
       spreadMethod="pad"
       gradientTransform="matrix(-24.951136,24.951136,24.951136,24.951136,177.47646,78.523544)"
       gradientUnits="userSpaceOnUse"
       y2="0"
       x2="1"
       y1="0"
       x1="0"><stop
         id="stop98"
         offset="0"
         style="stop-opacity:1;stop-color:#e6e7e8" /><stop
         id="stop100"
         offset="1"
         style="stop-opacity:1;stop-color:#d1d3d4" /></linearGradient><clipPath
       id="clipPath108"
       clipPathUnits="userSpaceOnUse"><path
         id="path110"
         d="M 0,256 256,256 256,0 0,0 0,256 Z" /></clipPath><clipPath
       id="clipPath136"
       clipPathUnits="userSpaceOnUse"><path
         id="path138"
         d="m 151.328,41.1985 14.667,0 0,-21.601 -14.667,0 0,21.601 z" /></clipPath><clipPath
       id="clipPath152"
       clipPathUnits="userSpaceOnUse"><path
         id="path154"
         d="m 158.663,44.799 14.667,0 0,-21.6009 -14.667,0 0,21.6009 z" /></clipPath><clipPath
       id="clipPath168"
       clipPathUnits="userSpaceOnUse"><path
         id="path170"
         d="m 165.998,48.3995 14.667,0 0,-21.6009 -14.667,0 0,21.6009 z" /></clipPath><clipPath
       id="clipPath184"
       clipPathUnits="userSpaceOnUse"><path
         id="path186"
         d="m 173.333,52 14.667,0 0,-21.6009 -14.667,0 0,21.6009 z" /></clipPath><clipPath
       id="clipPath200"
       clipPathUnits="userSpaceOnUse"><path
         id="path202"
         d="m 76,189.927 c 0,-1.104 0.895,-2 2,-2 l 0,0 c 1.105,0 2,0.896 2,2 l 0,0 c 0,1.104 -0.895,2 -2,2 l 0,0 c -1.105,0 -2,-0.896 -2,-2" /></clipPath><linearGradient
       id="linearGradient208"
       spreadMethod="pad"
       gradientTransform="matrix(2.8284271,-2.8284271,-2.8284271,-2.8284271,76.585785,191.34129)"
       gradientUnits="userSpaceOnUse"
       y2="0"
       x2="1"
       y1="0"
       x1="0"><stop
         id="stop210"
         offset="0"
         style="stop-opacity:1;stop-color:#e6e7e8" /><stop
         id="stop212"
         offset="1"
         style="stop-opacity:1;stop-color:#d1d3d4" /></linearGradient><clipPath
       id="clipPath220"
       clipPathUnits="userSpaceOnUse"><path
         id="path222"
         d="m 76,222 104,0 0,2 -104,0 0,-2 z" /></clipPath><linearGradient
       id="linearGradient228"
       spreadMethod="pad"
       gradientTransform="matrix(52.999996,-52.999996,-52.999996,-52.999996,101.5,249.5)"
       gradientUnits="userSpaceOnUse"
       y2="0"
       x2="1"
       y1="0"
       x1="0"><stop
         id="stop230"
         offset="0"
         style="stop-opacity:1;stop-color:#e6e7e8" /><stop
         id="stop232"
         offset="1"
         style="stop-opacity:1;stop-color:#d1d3d4" /></linearGradient><clipPath
       id="clipPath240"
       clipPathUnits="userSpaceOnUse"><path
         id="path242"
         d="m 76,218 104,0 0,2 -104,0 0,-2 z" /></clipPath><linearGradient
       id="linearGradient248"
       spreadMethod="pad"
       gradientTransform="matrix(52.999996,-52.999996,-52.999996,-52.999996,101.5,245.5)"
       gradientUnits="userSpaceOnUse"
       y2="0"
       x2="1"
       y1="0"
       x1="0"><stop
         id="stop250"
         offset="0"
         style="stop-opacity:1;stop-color:#e6e7e8" /><stop
         id="stop252"
         offset="1"
         style="stop-opacity:1;stop-color:#d1d3d4" /></linearGradient><clipPath
       id="clipPath260"
       clipPathUnits="userSpaceOnUse"><path
         id="path262"
         d="M 0,256 256,256 256,0 0,0 0,256 Z" /></clipPath><clipPath
       id="clipPath272"
       clipPathUnits="userSpaceOnUse"><path
         id="path274"
         d="m 80,84 c 0,-2.209 1.791,-4 4,-4 l 0,0 c 2.209,0 4,1.791 4,4 l 0,0 c 0,2.209 -1.791,4 -4,4 l 0,0 c -2.209,0 -4,-1.791 -4,-4" /></clipPath><linearGradient
       id="linearGradient280"
       spreadMethod="pad"
       gradientTransform="matrix(5.6568542,-5.6568542,-5.6568542,-5.6568542,81.17157,86.82843)"
       gradientUnits="userSpaceOnUse"
       y2="0"
       x2="1"
       y1="0"
       x1="0"><stop
         id="stop282"
         offset="0"
         style="stop-opacity:1;stop-color:#e6e7e8" /><stop
         id="stop284"
         offset="1"
         style="stop-opacity:1;stop-color:#d1d3d4" /></linearGradient><clipPath
       id="clipPath292"
       clipPathUnits="userSpaceOnUse"><path
         id="path294"
         d="m 184,244 0,-10 -112,0 0,10 -2,0 0,-10 -14,0 0,-2 14,0 2,0 112,0 2,0 14,0 0,2 -14,0 0,10 -2,0 z" /></clipPath><linearGradient
       id="linearGradient300"
       spreadMethod="pad"
       gradientTransform="matrix(-73,73,73,73,164.5,196.5)"
       gradientUnits="userSpaceOnUse"
       y2="0"
       x2="1"
       y1="0"
       x1="0"><stop
         id="stop302"
         offset="0"
         style="stop-opacity:1;stop-color:#e6e7e8" /><stop
         id="stop304"
         offset="1"
         style="stop-opacity:1;stop-color:#d1d3d4" /></linearGradient><clipPath
       id="clipPath312"
       clipPathUnits="userSpaceOnUse"><path
         id="path314"
         d="m 88,244 0,-4 -2,0 0,4 -2,0 0,-4 -2,0 0,4 -2,0 0,-4 -2,0 c -1.105,0 -2,-0.895 -2,-2 l 0,0 c 0,-1.105 0.895,-2 2,-2 l 0,0 24,0 c 1.105,0 2,0.895 2,2 l 0,0 c 0,1.105 -0.895,2 -2,2 l 0,0 -12,0 0,4 -2,0 z" /></clipPath><linearGradient
       id="linearGradient320"
       spreadMethod="pad"
       gradientTransform="matrix(-15.414207,15.414207,15.414207,15.414207,97.414215,230.5858)"
       gradientUnits="userSpaceOnUse"
       y2="0"
       x2="1"
       y1="0"
       x1="0"><stop
         id="stop322"
         offset="0"
         style="stop-opacity:1;stop-color:#e6e7e8" /><stop
         id="stop324"
         offset="1"
         style="stop-opacity:1;stop-color:#d1d3d4" /></linearGradient><clipPath
       id="clipPath332"
       clipPathUnits="userSpaceOnUse"><path
         id="path334"
         d="m 106,20 c -1.105,0 -2,-0.896 -2,-2 l 0,0 c 0,-1.104 0.895,-2 2,-2 l 0,0 12,0 0,-4 2,0 0,4 2,0 0,-4 2,0 0,4 2,0 0,-4 2,0 0,4 2,0 c 1.105,0 2,0.896 2,2 l 0,0 c 0,1.104 -0.895,2 -2,2 l 0,0 -24,0 z" /></clipPath><linearGradient
       id="linearGradient340"
       spreadMethod="pad"
       gradientTransform="matrix(-15.414207,15.414207,15.414207,15.414207,125.99999,9.9999943)"
       gradientUnits="userSpaceOnUse"
       y2="0"
       x2="1"
       y1="0"
       x1="0"><stop
         id="stop342"
         offset="0"
         style="stop-opacity:1;stop-color:#e6e7e8" /><stop
         id="stop344"
         offset="1"
         style="stop-opacity:1;stop-color:#d1d3d4" /></linearGradient></defs><g
     transform="matrix(1.25,0,0,-1.25,0,320)"
     id="g10"><g
       id="g12"><g
         clip-path="url(#clipPath16)"
         id="g14"><g
           id="g20"><g
             id="g22"><path
               id="path30"
               style="fill:url(#linearGradient24);stroke:none"
               d="m 158.315,244 -60.631,0 -34.481,0 C 59.225,244 56,240.816 56,236.887 l 0,0 0,-34.049 0,-22.079 0,-105.517 0,-22.081 0,-34.049 C 56,15.185 59.225,12 63.203,12 l 0,0 34.481,0 23.113,0 37.518,0 C 181.337,12 200,30.429 200,53.161 l 0,0 0,22.081 0,127.596 0,34.049 c 0,3.929 -3.225,7.113 -7.203,7.113 l 0,0 -34.482,0 z" /></g></g></g></g><g
       id="g32"><g
         clip-path="url(#clipPath36)"
         id="g34"><g
           transform="translate(184.2498,228)"
           id="g40"><path
             id="path42"
             style="fill:#999999;fill-opacity:1;fill-rule:nonzero;stroke:none"
             d="m 0,0 -112.5,0 c -2.071,0 -3.75,-1.648 -3.75,-3.68 l 0,-84.818 c 0,-1.934 1.598,-3.502 3.569,-3.502 l 52.863,0 41.068,0 c 12.427,0 22.5,9.886 22.5,22.08 l 0,66.24 C 3.75,-1.648 2.071,0 0,0" /></g></g></g><g
       id="g44"><g
         clip-path="url(#clipPath48)"
         id="g46"><g
           id="g52"><g
             id="g54"><path
               id="path62"
               style="fill:url(#linearGradient56);stroke:none"
               d="m 164,214 -72,0 -2,0 0,-2 0,-68 0,-2 2,0 72,0 2,0 0,2 0,68 0,2 -2,0 z" /></g></g></g></g><g
       id="g64"><g
         clip-path="url(#clipPath68)"
         id="g66"><g
           id="g72"><g
             id="g74"><path
               id="path82"
               style="fill:url(#linearGradient76);stroke:none"
               d="m 92,144 72,0 0,68 -72,0 0,-68 z" /></g></g></g></g><g
       id="g84"><g
         clip-path="url(#clipPath88)"
         id="g86"><g
           id="g92"><g
             id="g94"><path
               id="path102"
               style="fill:url(#linearGradient96);stroke:none"
               d="m 176.024,109.309 -0.001,0.002 -0.036,-0.016 c -0.714,-0.255 -31.37,-14.563 -31.943,-14.892 l 0,0 -0.044,-0.02 0.002,-0.005 C 140.42,92.299 138,88.43 138,84 l 0,0 c 0,-6.617 5.383,-12 12,-12 l 0,0 c 1.285,0 2.52,0.208 3.681,0.583 l 0,0 10e-4,-0.002 0.033,0.015 c 0.888,0.29 31.798,14.754 31.798,14.754 l 0,0 -0.001,0.002 C 189.361,89.353 192,93.37 192,98 l 0,0 c 0,6.617 -5.383,12 -12,12 l 0,0 c -1.395,0 -2.73,-0.251 -3.976,-0.691" /></g></g></g></g><g
       id="g104"><g
         clip-path="url(#clipPath108)"
         id="g106"><g
           transform="translate(160,84)"
           id="g112"><path
             id="path114"
             style="fill:#999999;fill-opacity:1;fill-rule:nonzero;stroke:none"
             d="m 0,0 c 0,-5.523 -4.477,-10 -10,-10 -5.523,0 -10,4.477 -10,10 0,5.523 4.477,10 10,10 C -4.477,10 0,5.523 0,0" /></g><g
           transform="translate(190,98)"
           id="g116"><path
             id="path118"
             style="fill:#999999;fill-opacity:1;fill-rule:nonzero;stroke:none"
             d="m 0,0 c 0,-5.523 -4.477,-10 -10,-10 -5.523,0 -10,4.477 -10,10 0,5.523 4.477,10 10,10 C -4.477,10 0,5.523 0,0" /></g><g
           transform="translate(115.3781,55.9179)"
           id="g120"><path
             id="path122"
             style="fill:#999999;fill-opacity:1;fill-rule:nonzero;stroke:none"
             d="M 0,0 C -0.774,0.181 -1.62,0.06 -2.326,-0.332 L -13.897,-6.85 c -1.389,-0.785 -1.885,-2.402 -1.127,-3.687 0.389,-0.654 1.037,-1.113 1.825,-1.296 0.243,-0.056 0.489,-0.083 0.732,-0.083 0.553,0 1.098,0.141 1.589,0.418 L 0.691,-4.981 C 2.087,-4.198 2.583,-2.579 1.82,-1.298 1.437,-0.646 0.789,-0.185 0,0" /></g><g
           transform="translate(143.6458,54.6202)"
           id="g124"><path
             id="path126"
             style="fill:#999999;fill-opacity:1;fill-rule:nonzero;stroke:none"
             d="m 0,0 c -0.384,0.654 -1.032,1.113 -1.823,1.298 -0.781,0.18 -1.627,0.06 -2.323,-0.335 l -11.569,-6.517 c -1.396,-0.783 -1.892,-2.402 -1.129,-3.683 0.379,-0.644 1.043,-1.117 1.825,-1.3 0.243,-0.056 0.488,-0.083 0.734,-0.083 0.55,0 1.098,0.141 1.587,0.417 l 11.571,6.518 C 0.262,-2.901 0.758,-1.283 0,0" /></g><g
           transform="translate(147.4166,36.7218)"
           id="g128"><path
             id="path130"
             style="fill:#999999;fill-opacity:1;fill-rule:nonzero;stroke:none"
             d="m 0,0 10.989,-18.109 c 0.503,-0.827 0.216,-1.88 -0.641,-2.35 l -0.067,-0.037 C 9.424,-20.967 8.322,-20.677 7.82,-19.849 L -3.169,-1.741 c -0.503,0.828 -0.216,1.88 0.641,2.351 L -2.46,0.647 C -1.604,1.117 -0.502,0.828 0,0" /></g><g
           id="g132"><g
             id="g134" /><g
             id="g140"><g
               style="opacity:0.777771"
               id="g142"
               clip-path="url(#clipPath136)"><g
                 id="g144"
                 transform="translate(154.748,40.3253)"><path
                   id="path146"
                   style="fill:#999999;fill-opacity:1;fill-rule:nonzero;stroke:none"
                   d="m 0,0 10.999,-18.113 c 0.503,-0.829 0.216,-1.882 -0.641,-2.352 l -0.068,-0.037 c -0.857,-0.471 -1.96,-0.181 -2.463,0.647 L -3.172,-1.741 c -0.503,0.828 -0.216,1.881 0.641,2.352 l 0.068,0.037 C -1.606,1.118 -0.503,0.828 0,0" /></g></g></g></g><g
           id="g148"><g
             id="g150" /><g
             id="g156"><g
               style="opacity:0.777771"
               id="g158"
               clip-path="url(#clipPath152)"><g
                 id="g160"
                 transform="translate(162.0831,43.9258)"><path
                   id="path162"
                   style="fill:#999999;fill-opacity:1;fill-rule:nonzero;stroke:none"
                   d="m 0,0 10.999,-18.113 c 0.503,-0.829 0.216,-1.882 -0.641,-2.352 l -0.068,-0.037 c -0.857,-0.471 -1.96,-0.181 -2.463,0.647 L -3.172,-1.741 c -0.503,0.828 -0.216,1.881 0.641,2.352 l 0.068,0.037 C -1.606,1.118 -0.503,0.828 0,0" /></g></g></g></g><g
           id="g164"><g
             id="g166" /><g
             id="g172"><g
               style="opacity:0.777771"
               id="g174"
               clip-path="url(#clipPath168)"><g
                 id="g176"
                 transform="translate(169.418,47.5264)"><path
                   id="path178"
                   style="fill:#999999;fill-opacity:1;fill-rule:nonzero;stroke:none"
                   d="m 0,0 10.999,-18.113 c 0.503,-0.829 0.216,-1.882 -0.641,-2.352 l -0.068,-0.037 c -0.857,-0.471 -1.96,-0.181 -2.463,0.647 L -3.172,-1.741 c -0.503,0.828 -0.216,1.881 0.641,2.352 l 0.068,0.037 C -1.606,1.118 -0.503,0.828 0,0" /></g></g></g></g><g
           id="g180"><g
             id="g182" /><g
             id="g188"><g
               style="opacity:0.777771"
               id="g190"
               clip-path="url(#clipPath184)"><g
                 id="g192"
                 transform="translate(176.753,51.1269)"><path
                   id="path194"
                   style="fill:#999999;fill-opacity:1;fill-rule:nonzero;stroke:none"
                   d="m 0,0 10.999,-18.113 c 0.503,-0.829 0.216,-1.882 -0.641,-2.352 l -0.068,-0.037 c -0.857,-0.471 -1.96,-0.181 -2.463,0.647 L -3.172,-1.741 c -0.503,0.828 -0.216,1.881 0.641,2.352 l 0.068,0.037 C -1.606,1.118 -0.503,0.828 0,0" /></g></g></g></g></g></g><g
       id="g196"><g
         clip-path="url(#clipPath200)"
         id="g198"><g
           id="g204"><g
             id="g206"><path
               id="path214"
               style="fill:url(#linearGradient208);stroke:none"
               d="m 76,189.927 c 0,-1.104 0.895,-2 2,-2 l 0,0 c 1.105,0 2,0.896 2,2 l 0,0 c 0,1.104 -0.895,2 -2,2 l 0,0 c -1.105,0 -2,-0.896 -2,-2" /></g></g></g></g><g
       id="g216"><g
         clip-path="url(#clipPath220)"
         id="g218"><g
           id="g224"><g
             id="g226"><path
               id="path234"
               style="fill:url(#linearGradient228);stroke:none"
               d="m 76,222 104,0 0,2 -104,0 0,-2 z" /></g></g></g></g><g
       id="g236"><g
         clip-path="url(#clipPath240)"
         id="g238"><g
           id="g244"><g
             id="g246"><path
               id="path254"
               style="fill:url(#linearGradient248);stroke:none"
               d="m 76,218 104,0 0,2 -104,0 0,-2 z" /></g></g></g></g><g
       id="g256"><g
         clip-path="url(#clipPath260)"
         id="g258"><g
           transform="translate(98,89)"
           id="g264"><path
             id="path266"
             style="fill:#999999;fill-opacity:1;fill-rule:nonzero;stroke:none"
             d="m 0,0 -9,0 0,8 c 0,1.65 -1.35,3 -3,3 l -4,0 c -1.65,0 -3,-1.35 -3,-3 l 0,-8 -9,0 c -1.1,0 -2,-0.9 -2,-2 l 0,-6 c 0,-1.1 0.9,-2 2,-2 l 9,0 0,-8 c 0,-1.65 1.35,-3 3,-3 l 4,0 c 1.65,0 3,1.35 3,3 l 0,8 9,0 c 1.1,0 2,0.9 2,2 l 0,6 C 2,-0.9 1.1,0 0,0" /></g></g></g><g
       id="g268"><g
         clip-path="url(#clipPath272)"
         id="g270"><g
           id="g276"><g
             id="g278"><path
               id="path286"
               style="fill:url(#linearGradient280);stroke:none"
               d="m 80,84 c 0,-2.209 1.791,-4 4,-4 l 0,0 c 2.209,0 4,1.791 4,4 l 0,0 c 0,2.209 -1.791,4 -4,4 l 0,0 c -2.209,0 -4,-1.791 -4,-4" /></g></g></g></g><g
       id="g288"><g
         clip-path="url(#clipPath292)"
         id="g290"><g
           id="g296"><g
             id="g298"><path
               id="path306"
               style="fill:url(#linearGradient300);stroke:none"
               d="m 184,244 0,-10 -112,0 0,10 -2,0 0,-10 -14,0 0,-2 14,0 2,0 112,0 2,0 14,0 0,2 -14,0 0,10 -2,0 z" /></g></g></g></g><g
       id="g308"><g
         clip-path="url(#clipPath312)"
         id="g310"><g
           id="g316"><g
             id="g318"><path
               id="path326"
               style="fill:url(#linearGradient320);stroke:none"
               d="m 88,244 0,-4 -2,0 0,4 -2,0 0,-4 -2,0 0,4 -2,0 0,-4 -2,0 c -1.105,0 -2,-0.895 -2,-2 l 0,0 c 0,-1.105 0.895,-2 2,-2 l 0,0 24,0 c 1.105,0 2,0.895 2,2 l 0,0 c 0,1.105 -0.895,2 -2,2 l 0,0 -12,0 0,4 -2,0 z" /></g></g></g></g><g
       id="g328"><g
         clip-path="url(#clipPath332)"
         id="g330"><g
           id="g336"><g
             id="g338"><path
               id="path346"
               style="fill:url(#linearGradient340);stroke:none"
               d="m 106,20 c -1.105,0 -2,-0.896 -2,-2 l 0,0 c 0,-1.104 0.895,-2 2,-2 l 0,0 12,0 0,-4 2,0 0,4 2,0 0,-4 2,0 0,4 2,0 0,-4 2,0 0,4 2,0 c 1.105,0 2,0.896 2,2 l 0,0 c 0,1.104 -0.895,2 -2,2 l 0,0 -24,0 z" /></g></g></g></g></g></svg>