<?xml version="1.0" encoding="UTF-8" standalone="no"?>
<svg
   xmlns:dc="http://purl.org/dc/elements/1.1/"
   xmlns:cc="http://creativecommons.org/ns#"
   xmlns:rdf="http://www.w3.org/1999/02/22-rdf-syntax-ns#"
   xmlns:svg="http://www.w3.org/2000/svg"
   xmlns="http://www.w3.org/2000/svg"
   viewBox="0 0 320 320"
   height="320"
   width="320"
   xml:space="preserve"
   version="1.1"
   id="svg2"><metadata
     id="metadata8"><rdf:RDF><cc:Work
         rdf:about=""><dc:format>image/svg+xml</dc:format><dc:type
           rdf:resource="http://purl.org/dc/dcmitype/StillImage" /></cc:Work></rdf:RDF></metadata><defs
     id="defs6"><clipPath
       id="clipPath16"
       clipPathUnits="userSpaceOnUse"><path
         id="path18"
         d="M 0,256 256,256 256,0 0,0 0,256 Z" /></clipPath><clipPath
       id="clipPath28"
       clipPathUnits="userSpaceOnUse"><path
         id="path30"
         d="m 228,32 0,-16 6,0 c 1.104,0 2,0.896 2,2 l 0,0 0,14 -8,0 z" /></clipPath><linearGradient
       id="linearGradient36"
       spreadMethod="pad"
       gradientTransform="matrix(-11.414213,11.414213,11.414213,11.414213,237.41422,18.585787)"
       gradientUnits="userSpaceOnUse"
       y2="0"
       x2="1"
       y1="0"
       x1="0"><stop
         id="stop38"
         offset="0"
         style="stop-opacity:1;stop-color:#e6e7e8" /><stop
         id="stop40"
         offset="1"
         style="stop-opacity:1;stop-color:#d1d3d4" /></linearGradient><clipPath
       id="clipPath48"
       clipPathUnits="userSpaceOnUse"><path
         id="path50"
         d="M 0,256 256,256 256,0 0,0 0,256 Z" /></clipPath><clipPath
       id="clipPath62"
       clipPathUnits="userSpaceOnUse"><path
         id="path64"
         d="M 29.819,244 C 24.396,244 20,239.673 20,234.334 l 0,0 0,-198.167 C 20,22.82 30.99,12 44.546,12 l 0,0 L 226,12 c 1.104,0 2,0.895 2,2 l 0,0 0,14 8,0 0,206.334 c 0,5.339 -4.396,9.666 -9.818,9.666 l 0,0 -196.363,0 z" /></clipPath><linearGradient
       id="linearGradient70"
       spreadMethod="pad"
       gradientTransform="matrix(216.56096,-216.56096,-216.56096,-216.56096,20.993236,239.28674)"
       gradientUnits="userSpaceOnUse"
       y2="0"
       x2="1"
       y1="0"
       x1="0"><stop
         id="stop72"
         offset="0"
         style="stop-opacity:1;stop-color:#e6e7e8" /><stop
         id="stop74"
         offset="1"
         style="stop-opacity:1;stop-color:#d1d3d4" /></linearGradient><clipPath
       id="clipPath82"
       clipPathUnits="userSpaceOnUse"><path
         id="path84"
         d="M 0,256 256,256 256,0 0,0 0,256 Z" /></clipPath><clipPath
       id="clipPath96"
       clipPathUnits="userSpaceOnUse"><path
         id="path98"
         d="m 40,60 180,0 0,136.781 -0.021,-1.535 -60.886,-3.234 -5.827,6.452 -49.015,0 -6.67,-6.464 -0.225,0.027 -57.329,6.44 L 40,199.997 40,60 Z" /></clipPath><linearGradient
       id="linearGradient104"
       spreadMethod="pad"
       gradientTransform="matrix(-159.9985,159.9985,159.9985,159.9985,209.19536,49.195358)"
       gradientUnits="userSpaceOnUse"
       y2="0"
       x2="1"
       y1="0"
       x1="0"><stop
         id="stop106"
         offset="0"
         style="stop-opacity:1;stop-color:#e6e7e8" /><stop
         id="stop108"
         offset="1"
         style="stop-opacity:1;stop-color:#d1d3d4" /></linearGradient><clipPath
       id="clipPath116"
       clipPathUnits="userSpaceOnUse"><path
         id="path118"
         d="M 0,256 256,256 256,0 0,0 0,256 Z" /></clipPath></defs><g
     transform="matrix(1.25,0,0,-1.25,0,320)"
     id="g10"><g
       id="g12"><g
         clip-path="url(#clipPath16)"
         id="g14"><g
           transform="translate(218.2969,233.9307)"
           id="g20"><path
             id="path22"
             style="fill:#4c4c4c;fill-opacity:1;fill-rule:nonzero;stroke:none"
             d="m 0,0 -173.195,0 c -3.331,0 -6.041,-2.71 -6.041,-6.042 l 0,-174 0,-0.44 0.284,-0.338 12.889,-15.306 0.362,-0.43 0.562,0 165.139,0 c 3.331,0 6.041,2.71 6.041,6.042 l 0,184.472 C 6.041,-2.71 3.331,0 0,0" /></g></g></g><g
       id="g24"><g
         clip-path="url(#clipPath28)"
         id="g26"><g
           id="g32"><g
             id="g34"><path
               id="path42"
               style="fill:url(#linearGradient36);stroke:none"
               d="m 228,32 0,-16 6,0 c 1.104,0 2,0.896 2,2 l 0,0 0,14 -8,0 z" /></g></g></g></g><g
       id="g44"><g
         clip-path="url(#clipPath48)"
         id="g46"><g
           transform="translate(116,32)"
           id="g52"><path
             id="path54"
             style="fill:#4c4c4c;fill-opacity:1;fill-rule:nonzero;stroke:none"
             d="M 0,0 24,0 12,-8 0,0 Z" /></g><path
           id="path56"
           style="fill:#4c4c4c;fill-opacity:1;fill-rule:nonzero;stroke:none"
           d="m 24,36 -4,0 0,12 4,0 0,-12 z" /></g></g><g
       id="g58"><g
         clip-path="url(#clipPath62)"
         id="g60"><g
           id="g66"><g
             id="g68"><path
               id="path76"
               style="fill:url(#linearGradient70);stroke:none"
               d="M 29.819,244 C 24.396,244 20,239.673 20,234.334 l 0,0 0,-198.167 C 20,22.82 30.99,12 44.546,12 l 0,0 L 226,12 c 1.104,0 2,0.895 2,2 l 0,0 0,14 8,0 0,206.334 c 0,5.339 -4.396,9.666 -9.818,9.666 l 0,0 -196.363,0 z" /></g></g></g></g><g
       id="g78"><g
         clip-path="url(#clipPath82)"
         id="g80"><path
           id="path86"
           style="fill:#999999;fill-opacity:1;fill-rule:nonzero;stroke:none"
           d="m 220,52 -180,0 0,152 180,0 0,-152 z" /><g
           transform="translate(40,52)"
           id="g88"><path
             id="path90"
             style="fill:#ffffff;fill-opacity:1;fill-rule:nonzero;stroke:none"
             d="m 0,0 12,-16 163.242,0 c 2.628,0 4.758,2.141 4.758,4.78 L 180,4 0,4 0,0 Z" /></g></g></g><g
       id="g92"><g
         clip-path="url(#clipPath96)"
         id="g94"><g
           id="g100"><g
             id="g102"><path
               id="path110"
               style="fill:url(#linearGradient104);stroke:none"
               d="m 40,60 180,0 0,136.781 -0.021,-1.535 -60.886,-3.234 -5.827,6.452 -49.015,0 -6.67,-6.464 -0.225,0.027 -57.329,6.44 L 40,199.997 40,60 Z" /></g></g></g></g><g
       id="g112"><g
         clip-path="url(#clipPath116)"
         id="g114"><g
           transform="translate(215.2422,228)"
           id="g120"><path
             id="path122"
             style="fill:#ffffff;fill-opacity:1;fill-rule:nonzero;stroke:none"
             d="m 0,0 -170.484,0 c -2.628,0 -4.758,-2.14 -4.758,-4.78 l 0,-23.223 57.233,-6.413 6.623,6.416 49.851,0 5.804,-6.428 60.489,3.209 0,26.439 C 4.758,-2.14 2.628,0 0,0" /></g></g></g></g></svg>