<?xml version="1.0" encoding="UTF-8" standalone="no"?>
<svg
   xmlns:dc="http://purl.org/dc/elements/1.1/"
   xmlns:cc="http://creativecommons.org/ns#"
   xmlns:rdf="http://www.w3.org/1999/02/22-rdf-syntax-ns#"
   xmlns:svg="http://www.w3.org/2000/svg"
   xmlns="http://www.w3.org/2000/svg"
   viewBox="0 0 320 320"
   height="320"
   width="320"
   xml:space="preserve"
   version="1.1"
   id="svg2"><metadata
     id="metadata8"><rdf:RDF><cc:Work
         rdf:about=""><dc:format>image/svg+xml</dc:format><dc:type
           rdf:resource="http://purl.org/dc/dcmitype/StillImage" /></cc:Work></rdf:RDF></metadata><defs
     id="defs6"><clipPath
       id="clipPath16"
       clipPathUnits="userSpaceOnUse"><path
         id="path18"
         d="M 0,256 256,256 256,0 0,0 0,256 Z" /></clipPath><clipPath
       id="clipPath28"
       clipPathUnits="userSpaceOnUse"><path
         id="path30"
         d="m 224,32 0,-16 6,0 c 1.105,0 2,0.896 2,2 l 0,0 0,14 -8,0 z" /></clipPath><linearGradient
       id="linearGradient36"
       spreadMethod="pad"
       gradientTransform="matrix(-11.414213,11.414213,11.414213,11.414213,233.41422,18.585787)"
       gradientUnits="userSpaceOnUse"
       y2="0"
       x2="1"
       y1="0"
       x1="0"><stop
         id="stop38"
         offset="0"
         style="stop-opacity:1;stop-color:#e6e7e8" /><stop
         id="stop40"
         offset="1"
         style="stop-opacity:1;stop-color:#d1d3d4" /></linearGradient><clipPath
       id="clipPath48"
       clipPathUnits="userSpaceOnUse"><path
         id="path50"
         d="M 0,256 256,256 256,0 0,0 0,256 Z" /></clipPath><clipPath
       id="clipPath62"
       clipPathUnits="userSpaceOnUse"><path
         id="path64"
         d="M 222.181,244 220,244 25.818,244 C 20.396,244 16,239.673 16,234.334 l 0,0 0,-198.167 C 16,22.82 26.989,12 40.545,12 l 0,0 L 222,12 c 1.105,0 2,0.895 2,2 l 0,0 0,14 8,0 0,168 4,0 c 4.418,0 8,3.581 8,8 l 0,0 0,32 c 0,4.419 -3.582,8 -8,8 l 0,0 -13.819,0 z" /></clipPath><linearGradient
       id="linearGradient70"
       spreadMethod="pad"
       gradientTransform="matrix(216.56096,-216.56096,-216.56096,-216.56096,20.248285,242.54179)"
       gradientUnits="userSpaceOnUse"
       y2="0"
       x2="1"
       y1="0"
       x1="0"><stop
         id="stop72"
         offset="0"
         style="stop-opacity:1;stop-color:#e6e7e8" /><stop
         id="stop74"
         offset="1"
         style="stop-opacity:1;stop-color:#d1d3d4" /></linearGradient><clipPath
       id="clipPath82"
       clipPathUnits="userSpaceOnUse"><path
         id="path84"
         d="m 159.049,196 -3.957,-0.223 -0.188,0.223 -61.093,0 -0.23,-0.236 -0.225,0.029 L 91.619,196 36,196 36,56 l 180,0 0,140 -56.951,0 z" /></clipPath><linearGradient
       id="linearGradient90"
       spreadMethod="pad"
       gradientTransform="matrix(-160,160,160,160,206,46)"
       gradientUnits="userSpaceOnUse"
       y2="0"
       x2="1"
       y1="0"
       x1="0"><stop
         id="stop92"
         offset="0"
         style="stop-opacity:1;stop-color:#e6e7e8" /><stop
         id="stop94"
         offset="1"
         style="stop-opacity:1;stop-color:#d1d3d4" /></linearGradient><clipPath
       id="clipPath102"
       clipPathUnits="userSpaceOnUse"><path
         id="path104"
         d="M 0,256 256,256 256,0 0,0 0,256 Z" /></clipPath></defs><g
     transform="matrix(1.25,0,0,-1.25,0,320)"
     id="g10"><g
       id="g12"><g
         clip-path="url(#clipPath16)"
         id="g14"><g
           transform="translate(214.2969,233.9307)"
           id="g20"><path
             id="path22"
             style="fill:#4c4c4c;fill-opacity:1;fill-rule:nonzero;stroke:none"
             d="m 0,0 -173.195,0 c -3.331,0 -6.041,-2.71 -6.041,-6.042 l 0,-174 0,-0.44 0.284,-0.338 12.889,-15.306 0.362,-0.43 0.562,0 165.139,0 c 3.331,0 6.041,2.71 6.041,6.042 l 0,184.472 C 6.041,-2.71 3.331,0 0,0" /></g></g></g><g
       id="g24"><g
         clip-path="url(#clipPath28)"
         id="g26"><g
           id="g32"><g
             id="g34"><path
               id="path42"
               style="fill:url(#linearGradient36);stroke:none"
               d="m 224,32 0,-16 6,0 c 1.105,0 2,0.896 2,2 l 0,0 0,14 -8,0 z" /></g></g></g></g><g
       id="g44"><g
         clip-path="url(#clipPath48)"
         id="g46"><g
           transform="translate(112,32)"
           id="g52"><path
             id="path54"
             style="fill:#4c4c4c;fill-opacity:1;fill-rule:nonzero;stroke:none"
             d="M 0,0 24,0 12,-8 0,0 Z" /></g><path
           id="path56"
           style="fill:#4c4c4c;fill-opacity:1;fill-rule:nonzero;stroke:none"
           d="m 20,36 -4,0 0,12 4,0 0,-12 z" /></g></g><g
       id="g58"><g
         clip-path="url(#clipPath62)"
         id="g60"><g
           id="g66"><g
             id="g68"><path
               id="path76"
               style="fill:url(#linearGradient70);stroke:none"
               d="M 222.181,244 220,244 25.818,244 C 20.396,244 16,239.673 16,234.334 l 0,0 0,-198.167 C 16,22.82 26.989,12 40.545,12 l 0,0 L 222,12 c 1.105,0 2,0.895 2,2 l 0,0 0,14 8,0 0,168 4,0 c 4.418,0 8,3.581 8,8 l 0,0 0,32 c 0,4.419 -3.582,8 -8,8 l 0,0 -13.819,0 z" /></g></g></g></g><g
       id="g78"><g
         clip-path="url(#clipPath82)"
         id="g80"><g
           id="g86"><g
             id="g88"><path
               id="path96"
               style="fill:url(#linearGradient90);stroke:none"
               d="m 159.049,196 -3.957,-0.223 -0.188,0.223 -61.093,0 -0.23,-0.236 -0.225,0.029 L 91.619,196 36,196 36,56 l 180,0 0,140 -56.951,0 z" /></g></g></g></g><g
       id="g98"><g
         clip-path="url(#clipPath102)"
         id="g100"><g
           transform="translate(36,52)"
           id="g106"><path
             id="path108"
             style="fill:#ffffff;fill-opacity:1;fill-rule:nonzero;stroke:none"
             d="m 0,0 12,-16 163.242,0 c 2.628,0 4.758,2.141 4.758,4.78 L 180,4 0,4 0,0 Z" /></g><g
           transform="translate(211.2422,228)"
           id="g110"><path
             id="path112"
             style="fill:#ffffff;fill-opacity:1;fill-rule:nonzero;stroke:none"
             d="m 0,0 -170.484,0 c -2.628,0 -4.758,-2.14 -4.758,-4.78 l 0,-23.223 0,-7.997 180,0 0,31.22 C 4.758,-2.14 2.628,0 0,0" /></g></g></g></g></svg>