<?xml version="1.0" encoding="UTF-8" standalone="no"?>
<svg
   xmlns:dc="http://purl.org/dc/elements/1.1/"
   xmlns:cc="http://creativecommons.org/ns#"
   xmlns:rdf="http://www.w3.org/1999/02/22-rdf-syntax-ns#"
   xmlns:svg="http://www.w3.org/2000/svg"
   xmlns="http://www.w3.org/2000/svg"
   viewBox="0 0 320 320"
   height="320"
   width="320"
   xml:space="preserve"
   version="1.1"
   id="svg2"><metadata
     id="metadata8"><rdf:RDF><cc:Work
         rdf:about=""><dc:format>image/svg+xml</dc:format><dc:type
           rdf:resource="http://purl.org/dc/dcmitype/StillImage" /></cc:Work></rdf:RDF></metadata><defs
     id="defs6"><clipPath
       id="clipPath16"
       clipPathUnits="userSpaceOnUse"><path
         id="path18"
         d="m 16,196 c -2.209,0 -4,-1.791 -4,-4 l 0,0 0,-20 c 0,-2.209 1.791,-4 4,-4 l 0,0 0,-104 c 0,-2.209 1.791,-4 4,-4 l 0,0 216,0 c 2.209,0 4,1.791 4,4 l 0,0 0,104 c 2.209,0 4,1.791 4,4 l 0,0 0,20 c 0,2.209 -1.791,4 -4,4 l 0,0 -224,0 z" /></clipPath><linearGradient
       id="linearGradient24"
       spreadMethod="pad"
       gradientTransform="matrix(179.65686,-179.65686,-179.65686,-179.65686,38.171566,219.82845)"
       gradientUnits="userSpaceOnUse"
       y2="0"
       x2="1"
       y1="0"
       x1="0"><stop
         id="stop26"
         offset="0"
         style="stop-opacity:1;stop-color:#e6e7e8" /><stop
         id="stop28"
         offset="1"
         style="stop-opacity:1;stop-color:#d1d3d4" /></linearGradient><clipPath
       id="clipPath36"
       clipPathUnits="userSpaceOnUse"><path
         id="path38"
         d="M 0,256 256,256 256,0 0,0 0,256 Z" /></clipPath><clipPath
       id="clipPath52"
       clipPathUnits="userSpaceOnUse"><path
         id="path54"
         d="m 102,72 26,-8 26,8 -52,0 z" /></clipPath><linearGradient
       id="linearGradient60"
       spreadMethod="pad"
       gradientTransform="matrix(-26,26,26,26,141,59)"
       gradientUnits="userSpaceOnUse"
       y2="0"
       x2="1"
       y1="0"
       x1="0"><stop
         id="stop62"
         offset="0"
         style="stop-opacity:1;stop-color:#e6e7e8" /><stop
         id="stop64"
         offset="1"
         style="stop-opacity:1;stop-color:#d1d3d4" /></linearGradient><clipPath
       id="clipPath72"
       clipPathUnits="userSpaceOnUse"><path
         id="path74"
         d="M 0,256 256,256 256,0 0,0 0,256 Z" /></clipPath></defs><g
     transform="matrix(1.25,0,0,-1.25,0,320)"
     id="g10"><g
       id="g12"><g
         clip-path="url(#clipPath16)"
         id="g14"><g
           id="g20"><g
             id="g22"><path
               id="path30"
               style="fill:url(#linearGradient24);stroke:none"
               d="m 16,196 c -2.209,0 -4,-1.791 -4,-4 l 0,0 0,-20 c 0,-2.209 1.791,-4 4,-4 l 0,0 0,-104 c 0,-2.209 1.791,-4 4,-4 l 0,0 216,0 c 2.209,0 4,1.791 4,4 l 0,0 0,104 c 2.209,0 4,1.791 4,4 l 0,0 0,20 c 0,2.209 -1.791,4 -4,4 l 0,0 -224,0 z" /></g></g></g></g><g
       id="g32"><g
         clip-path="url(#clipPath36)"
         id="g34"><g
           transform="translate(47.8261,160)"
           id="g40"><path
             id="path42"
             style="fill:#ffffff;fill-opacity:1;fill-rule:nonzero;stroke:none"
             d="m 0,0 168.348,0 c 2.113,0 3.826,-1.635 3.826,-3.652 l 0,-76.696 c 0,-2.017 -1.713,-3.652 -3.826,-3.652 L 0,-84 c -2.113,0 -3.826,1.635 -3.826,3.652 l 0,76.696 C -3.826,-1.635 -2.113,0 0,0" /></g><g
           transform="translate(216.1739,162)"
           id="g44"><path
             id="path46"
             style="fill:#999999;fill-opacity:1;fill-rule:nonzero;stroke:none"
             d="m 0,0 -168.348,0 c -3.212,0 -5.826,-2.536 -5.826,-5.652 l 0,-76.696 c 0,-3.116 2.614,-5.652 5.826,-5.652 L 0,-88 c 3.212,0 5.826,2.536 5.826,5.652 l 0,76.696 C 5.826,-2.536 3.212,0 0,0 m 0,-2 c 2.113,0 3.826,-1.635 3.826,-3.652 l 0,-76.696 C 3.826,-84.365 2.113,-86 0,-86 l -168.348,0 c -2.113,0 -3.826,1.635 -3.826,3.652 l 0,76.696 c 0,2.017 1.713,3.652 3.826,3.652 L 0,-2" /></g></g></g><g
       id="g48"><g
         clip-path="url(#clipPath52)"
         id="g50"><g
           id="g56"><g
             id="g58"><path
               id="path66"
               style="fill:url(#linearGradient60);stroke:none"
               d="m 102,72 26,-8 26,8 -52,0 z" /></g></g></g></g><g
       id="g68"><g
         clip-path="url(#clipPath72)"
         id="g70"><g
           transform="translate(50,176)"
           id="g76"><path
             id="path78"
             style="fill:#999999;fill-opacity:1;fill-rule:nonzero;stroke:none"
             d="M 0,0 C 48.286,16 107.714,16 156,0 107.714,9.6 48.286,9.6 0,0" /></g></g></g></g></svg>