<?xml version="1.0" encoding="UTF-8" standalone="no"?>
<svg
   xmlns:dc="http://purl.org/dc/elements/1.1/"
   xmlns:cc="http://creativecommons.org/ns#"
   xmlns:rdf="http://www.w3.org/1999/02/22-rdf-syntax-ns#"
   xmlns:svg="http://www.w3.org/2000/svg"
   xmlns="http://www.w3.org/2000/svg"
   viewBox="0 0 320 320"
   height="320"
   width="320"
   xml:space="preserve"
   version="1.1"
   id="svg2"><metadata
     id="metadata8"><rdf:RDF><cc:Work
         rdf:about=""><dc:format>image/svg+xml</dc:format><dc:type
           rdf:resource="http://purl.org/dc/dcmitype/StillImage" /></cc:Work></rdf:RDF></metadata><defs
     id="defs6"><clipPath
       id="clipPath16"
       clipPathUnits="userSpaceOnUse"><path
         id="path18"
         d="M 84,164 C 64.15,164 48,147.851 48,128 l 0,0 C 48,108.148 64.15,92 84,92 l 0,0 88,0 c 19.849,0 36,16.148 36,36 l 0,0 c 0,19.851 -16.151,36 -36,36 l 0,0 -88,0 z" /></clipPath><linearGradient
       id="linearGradient24"
       spreadMethod="pad"
       gradientTransform="matrix(94.887886,-94.887886,-94.887886,-94.887886,80.556015,175.44394)"
       gradientUnits="userSpaceOnUse"
       y2="0"
       x2="1"
       y1="0"
       x1="0"><stop
         id="stop26"
         offset="0"
         style="stop-opacity:1;stop-color:#e6e7e8" /><stop
         id="stop28"
         offset="1"
         style="stop-opacity:1;stop-color:#d1d3d4" /></linearGradient><clipPath
       id="clipPath36"
       clipPathUnits="userSpaceOnUse"><path
         id="path38"
         d="M 84,156 C 68.56,156 56,143.437 56,128 l 0,0 c 0,-15.437 12.56,-28 28,-28 l 0,0 88,0 c 15.439,0 28,12.563 28,28 l 0,0 c 0,15.437 -12.561,28 -28,28 l 0,0 -88,0 z" /></clipPath><linearGradient
       id="linearGradient44"
       spreadMethod="pad"
       gradientTransform="matrix(-83.578896,83.578896,83.578896,83.578896,169.78949,86.210548)"
       gradientUnits="userSpaceOnUse"
       y2="0"
       x2="1"
       y1="0"
       x1="0"><stop
         id="stop46"
         offset="0"
         style="stop-opacity:1;stop-color:#e6e7e8" /><stop
         id="stop48"
         offset="1"
         style="stop-opacity:1;stop-color:#d1d3d4" /></linearGradient><clipPath
       id="clipPath56"
       clipPathUnits="userSpaceOnUse"><path
         id="path58"
         d="M 0,256 256,256 256,0 0,0 0,256 Z" /></clipPath><clipPath
       id="clipPath80"
       clipPathUnits="userSpaceOnUse"><path
         id="path82"
         d="m 80.017,134.91 c -2.223,-2.472 -3.447,-5.662 -3.447,-8.98 l 0,0 c 0,-7.395 6.016,-13.411 13.41,-13.411 l 0,0 c 7.395,0 13.41,6.016 13.41,13.411 l 0,0 c 0,3.318 -1.224,6.508 -3.447,8.98 l 0,0 c -0.848,0.941 -2.297,1.019 -3.239,0.172 l 0,0 c -0.942,-0.847 -1.02,-2.298 -0.173,-3.239 l 0,0 c 1.466,-1.629 2.272,-3.729 2.272,-5.913 l 0,0 c 0,-4.866 -3.958,-8.824 -8.823,-8.824 l 0,0 c -4.865,0 -8.822,3.958 -8.822,8.824 l 0,0 c 0,2.184 0.806,4.284 2.27,5.913 l 0,0 c 0.847,0.941 0.771,2.392 -0.172,3.239 l 0,0 c -0.438,0.394 -0.986,0.588 -1.533,0.588 l 0,0 c -0.628,0 -1.253,-0.256 -1.706,-0.76" /></clipPath><linearGradient
       id="linearGradient88"
       spreadMethod="pad"
       gradientTransform="matrix(-18.951969,18.951969,18.951969,18.951969,99.456062,116.44932)"
       gradientUnits="userSpaceOnUse"
       y2="0"
       x2="1"
       y1="0"
       x1="0"><stop
         id="stop90"
         offset="0"
         style="stop-opacity:1;stop-color:#e6e7e8" /><stop
         id="stop92"
         offset="1"
         style="stop-opacity:1;stop-color:#d1d3d4" /></linearGradient><clipPath
       id="clipPath100"
       clipPathUnits="userSpaceOnUse"><path
         id="path102"
         d="m 87.686,140.915 0,-14.985 c 0,-1.267 1.027,-2.294 2.294,-2.294 l 0,0 c 1.267,0 2.293,1.027 2.293,2.294 l 0,0 0,14.985 c 0,1.266 -1.026,2.293 -2.293,2.293 l 0,0 c -1.267,0 -2.294,-1.027 -2.294,-2.293" /></clipPath><linearGradient
       id="linearGradient108"
       spreadMethod="pad"
       gradientTransform="matrix(-10.736325,10.736325,10.736325,10.736325,95.348236,128.05394)"
       gradientUnits="userSpaceOnUse"
       y2="0"
       x2="1"
       y1="0"
       x1="0"><stop
         id="stop110"
         offset="0"
         style="stop-opacity:1;stop-color:#e6e7e8" /><stop
         id="stop112"
         offset="1"
         style="stop-opacity:1;stop-color:#d1d3d4" /></linearGradient></defs><g
     transform="matrix(1.25,0,0,-1.25,0,320)"
     id="g10"><g
       id="g12"><g
         clip-path="url(#clipPath16)"
         id="g14"><g
           id="g20"><g
             id="g22"><path
               id="path30"
               style="fill:url(#linearGradient24);stroke:none"
               d="M 84,164 C 64.15,164 48,147.851 48,128 l 0,0 C 48,108.148 64.15,92 84,92 l 0,0 88,0 c 19.849,0 36,16.148 36,36 l 0,0 c 0,19.851 -16.151,36 -36,36 l 0,0 -88,0 z" /></g></g></g></g><g
       id="g32"><g
         clip-path="url(#clipPath36)"
         id="g34"><g
           id="g40"><g
             id="g42"><path
               id="path50"
               style="fill:url(#linearGradient44);stroke:none"
               d="M 84,156 C 68.56,156 56,143.437 56,128 l 0,0 c 0,-15.437 12.56,-28 28,-28 l 0,0 88,0 c 15.439,0 28,12.563 28,28 l 0,0 c 0,15.437 -12.561,28 -28,28 l 0,0 -88,0 z" /></g></g></g></g><g
       id="g52"><g
         clip-path="url(#clipPath56)"
         id="g54"><g
           transform="translate(133.975,115.9559)"
           id="g60"><path
             id="path62"
             style="fill:#999999;fill-opacity:1;fill-rule:nonzero;stroke:none"
             d="m 0,0 c -4.412,0 -8,3.59 -8,8 l 0,7.816 c 0,4.41 3.588,8 8,8 4.412,0 8,-3.59 8,-8 L 8,8 C 8,3.59 4.412,0 0,0 M 11.981,16 C 11.88,22.531 6.554,27.816 0,27.816 -6.554,27.816 -11.88,22.531 -11.982,16 L -12,16 -12,8 C -12,1.383 -6.617,-4 0,-4 6.617,-4 12,1.383 12,8 l 0,8 -0.019,0 z" /></g><g
           transform="translate(163.975,143.8638)"
           id="g64"><path
             id="path66"
             style="fill:#999999;fill-opacity:1;fill-rule:nonzero;stroke:none"
             d="m 0,0 -12,0 c -1.105,0 -2,-0.894 -2,-2 l 0,-28 c 0,-1.105 0.895,-2 2,-2 1.105,0 2,0.895 2,2 l 0,14.184 6,0 c 1.106,0 2,0.895 2,2 0,1.106 -0.894,2 -2,2 l -6,0 0,7.816 10,0 c 1.105,0 2,0.895 2,2 0,1.106 -0.895,2 -2,2" /></g><g
           transform="translate(184.02,143.8639)"
           id="g68"><path
             id="path70"
             style="fill:#999999;fill-opacity:1;fill-rule:nonzero;stroke:none"
             d="m 0,0 -12,0 c -1.105,0 -2,-0.895 -2,-2 l 0,-28 c 0,-1.106 0.895,-2 2,-2 1.105,0 2,0.894 2,2 l 0,14.184 6,0 c 1.105,0 2,0.895 2,2 0,1.105 -0.895,2 -2,2 l -6,0 0,7.816 10,0 c 1.105,0 2,0.895 2,2 0,1.105 -0.895,2 -2,2" /></g><g
           transform="translate(69.9801,127.8638)"
           id="g72"><path
             id="path74"
             style="fill:#999999;fill-opacity:1;fill-rule:nonzero;stroke:none"
             d="M 0,0 C 0,11.046 8.954,20 20,20 31.046,20 40,11.046 40,0 40,-11.046 31.046,-20 20,-20 8.954,-20 0,-11.046 0,0" /></g></g></g><g
       id="g76"><g
         clip-path="url(#clipPath80)"
         id="g78"><g
           id="g84"><g
             id="g86"><path
               id="path94"
               style="fill:url(#linearGradient88);stroke:none"
               d="m 80.017,134.91 c -2.223,-2.472 -3.447,-5.662 -3.447,-8.98 l 0,0 c 0,-7.395 6.016,-13.411 13.41,-13.411 l 0,0 c 7.395,0 13.41,6.016 13.41,13.411 l 0,0 c 0,3.318 -1.224,6.508 -3.447,8.98 l 0,0 c -0.848,0.941 -2.297,1.019 -3.239,0.172 l 0,0 c -0.942,-0.847 -1.02,-2.298 -0.173,-3.239 l 0,0 c 1.466,-1.629 2.272,-3.729 2.272,-5.913 l 0,0 c 0,-4.866 -3.958,-8.824 -8.823,-8.824 l 0,0 c -4.865,0 -8.822,3.958 -8.822,8.824 l 0,0 c 0,2.184 0.806,4.284 2.27,5.913 l 0,0 c 0.847,0.941 0.771,2.392 -0.172,3.239 l 0,0 c -0.438,0.394 -0.986,0.588 -1.533,0.588 l 0,0 c -0.628,0 -1.253,-0.256 -1.706,-0.76" /></g></g></g></g><g
       id="g96"><g
         clip-path="url(#clipPath100)"
         id="g98"><g
           id="g104"><g
             id="g106"><path
               id="path114"
               style="fill:url(#linearGradient108);stroke:none"
               d="m 87.686,140.915 0,-14.985 c 0,-1.267 1.027,-2.294 2.294,-2.294 l 0,0 c 1.267,0 2.293,1.027 2.293,2.294 l 0,0 0,14.985 c 0,1.266 -1.026,2.293 -2.293,2.293 l 0,0 c -1.267,0 -2.294,-1.027 -2.294,-2.293" /></g></g></g></g></g></svg>