<?xml version="1.0" encoding="UTF-8" standalone="no"?>
<svg
   xmlns:dc="http://purl.org/dc/elements/1.1/"
   xmlns:cc="http://creativecommons.org/ns#"
   xmlns:rdf="http://www.w3.org/1999/02/22-rdf-syntax-ns#"
   xmlns:svg="http://www.w3.org/2000/svg"
   xmlns="http://www.w3.org/2000/svg"
   viewBox="0 0 320 320"
   height="320"
   width="320"
   xml:space="preserve"
   version="1.1"
   id="svg2"><metadata
     id="metadata8"><rdf:RDF><cc:Work
         rdf:about=""><dc:format>image/svg+xml</dc:format><dc:type
           rdf:resource="http://purl.org/dc/dcmitype/StillImage" /></cc:Work></rdf:RDF></metadata><defs
     id="defs6"><clipPath
       id="clipPath16"
       clipPathUnits="userSpaceOnUse"><path
         id="path18"
         d="m 102.816,102.587 13.579,7.132 c 0.582,0.307 1.225,0.463 1.869,0.463 l 0,0 c 0.447,0 0.894,-0.071 1.322,-0.227 l 0,0 c 1.051,-0.361 1.902,-1.154 2.354,-2.167 l 0,0 10.052,-22.788 14.706,6.49 -10.056,22.788 c -0.451,1.029 -0.455,2.19 -0.012,3.218 l 0,0 c 0.44,1.021 1.291,1.821 2.343,2.19 l 0,0 14.211,5.053 -50.368,46.261 0,-68.413 z" /></clipPath><linearGradient
       id="linearGradient24"
       spreadMethod="pad"
       gradientTransform="matrix(61.696507,-61.696507,-61.696507,-61.696507,86.739189,154.92355)"
       gradientUnits="userSpaceOnUse"
       y2="0"
       x2="1"
       y1="0"
       x1="0"><stop
         id="stop26"
         offset="0"
         style="stop-opacity:1;stop-color:#e6e7e8" /><stop
         id="stop28"
         offset="1"
         style="stop-opacity:1;stop-color:#d1d3d4" /></linearGradient></defs><g
     transform="matrix(1.25,0,0,-1.25,0,320)"
     id="g10"><g
       id="g12"><g
         clip-path="url(#clipPath16)"
         id="g14"><g
           id="g20"><g
             id="g22"><path
               id="path30"
               style="fill:url(#linearGradient24);stroke:none"
               d="m 102.816,102.587 13.579,7.132 c 0.582,0.307 1.225,0.463 1.869,0.463 l 0,0 c 0.447,0 0.894,-0.071 1.322,-0.227 l 0,0 c 1.051,-0.361 1.902,-1.154 2.354,-2.167 l 0,0 10.052,-22.788 14.706,6.49 -10.056,22.788 c -0.451,1.029 -0.455,2.19 -0.012,3.218 l 0,0 c 0.44,1.021 1.291,1.821 2.343,2.19 l 0,0 14.211,5.053 -50.368,46.261 0,-68.413 z" /></g></g></g></g></g></svg>