<?xml version="1.0" encoding="UTF-8" standalone="no"?>
<svg
   xmlns:dc="http://purl.org/dc/elements/1.1/"
   xmlns:cc="http://creativecommons.org/ns#"
   xmlns:rdf="http://www.w3.org/1999/02/22-rdf-syntax-ns#"
   xmlns:svg="http://www.w3.org/2000/svg"
   xmlns="http://www.w3.org/2000/svg"
   viewBox="0 0 341.33334 341.33334"
   height="256"
   width="256"
   xml:space="preserve"
   id="svg2"
   version="1.1"><metadata
     id="metadata8"><rdf:RDF><cc:Work
         rdf:about=""><dc:format>image/svg+xml</dc:format><dc:type
           rdf:resource="http://purl.org/dc/dcmitype/StillImage" /></cc:Work></rdf:RDF></metadata><defs
     id="defs6"><clipPath
       id="clipPath18"
       clipPathUnits="userSpaceOnUse"><path
         id="path16"
         d="M 116.016,155.528 C 116.012,155.508 116,155.492 116,155.472 v 0 -54.932 c 0,-2.508 2.032,-4.54 4.54,-4.54 v 0 c 0.752,0 1.456,0.184 2.084,0.504 v 0 c 0.74,0.38 31.748,25.08 34.728,27.064 v 0 c 1.656,1.104 2.648,2.768 2.648,4.432 v 0 c 0,1.664 -0.996,3.332 -2.66,4.44 v 0 c -2.98,1.988 -33.984,26.676 -34.72,27.056 v 0 c -0.624,0.32 -1.332,0.504 -2.08,0.504 v 0 c -2.484,0 -4.488,-1.996 -4.524,-4.472 M 96,156 v -56 c 0,-2.212 1.788,-4 4,-4 v 0 c 2.212,0 4,1.788 4,4 v 0 56 c 0,2.212 -1.788,4 -4,4 v 0 c -2.212,0 -4,-1.788 -4,-4" /></clipPath><linearGradient
       id="linearGradient28"
       spreadMethod="pad"
       gradientTransform="matrix(47.816227,-47.816227,-47.816227,-47.816227,90.248665,151.90765)"
       gradientUnits="userSpaceOnUse"
       y2="0"
       x2="1"
       y1="0"
       x1="0"><stop
         id="stop24"
         offset="0"
         style="stop-opacity:1;stop-color:#e6e7e8" /><stop
         id="stop26"
         offset="1"
         style="stop-opacity:1;stop-color:#d1d3d4" /></linearGradient></defs><g
     transform="matrix(1.3333333,0,0,-1.3333333,0,341.33333)"
     id="g10"><g
       id="g12"><g
         clip-path="url(#clipPath18)"
         id="g14"><g
           id="g20"><g
             id="g22"><path
               id="path30"
               style="fill:url(#linearGradient28);stroke:none"
               d="M 116.016,155.528 C 116.012,155.508 116,155.492 116,155.472 v 0 -54.932 c 0,-2.508 2.032,-4.54 4.54,-4.54 v 0 c 0.752,0 1.456,0.184 2.084,0.504 v 0 c 0.74,0.38 31.748,25.08 34.728,27.064 v 0 c 1.656,1.104 2.648,2.768 2.648,4.432 v 0 c 0,1.664 -0.996,3.332 -2.66,4.44 v 0 c -2.98,1.988 -33.984,26.676 -34.72,27.056 v 0 c -0.624,0.32 -1.332,0.504 -2.08,0.504 v 0 c -2.484,0 -4.488,-1.996 -4.524,-4.472 M 96,156 v -56 c 0,-2.212 1.788,-4 4,-4 v 0 c 2.212,0 4,1.788 4,4 v 0 56 c 0,2.212 -1.788,4 -4,4 v 0 c -2.212,0 -4,-1.788 -4,-4" /></g></g></g></g></g></svg>