<?xml version="1.0" encoding="UTF-8" standalone="no"?>
<svg
   xmlns:dc="http://purl.org/dc/elements/1.1/"
   xmlns:cc="http://creativecommons.org/ns#"
   xmlns:rdf="http://www.w3.org/1999/02/22-rdf-syntax-ns#"
   xmlns:svg="http://www.w3.org/2000/svg"
   xmlns="http://www.w3.org/2000/svg"
   viewBox="0 0 320 320"
   height="320"
   width="320"
   xml:space="preserve"
   version="1.1"
   id="svg2"><metadata
     id="metadata8"><rdf:RDF><cc:Work
         rdf:about=""><dc:format>image/svg+xml</dc:format><dc:type
           rdf:resource="http://purl.org/dc/dcmitype/StillImage" /></cc:Work></rdf:RDF></metadata><defs
     id="defs6"><clipPath
       id="clipPath16"
       clipPathUnits="userSpaceOnUse"><path
         id="path18"
         d="M 56.549,199.436 C -2.848,140.038 -2.947,116.05 56.551,56.55 l 0,0 C 116.06,-2.958 140.017,-2.873 199.436,56.547 l 0,0 c 59.426,59.426 59.315,83.579 0.003,142.89 l 0,0 c -29.663,29.663 -50.545,44.512 -71.434,44.515 l 0,0 C 107.126,243.954 86.24,229.126 56.549,199.436" /></clipPath><linearGradient
       id="linearGradient24"
       spreadMethod="pad"
       gradientTransform="matrix(142.88766,-142.88766,-142.88766,-142.88766,56.551559,199.43755)"
       gradientUnits="userSpaceOnUse"
       y2="0"
       x2="1"
       y1="0"
       x1="0"><stop
         id="stop26"
         offset="0"
         style="stop-opacity:1;stop-color:#e6e7e8" /><stop
         id="stop28"
         offset="1"
         style="stop-opacity:1;stop-color:#d1d3d4" /></linearGradient><clipPath
       id="clipPath36"
       clipPathUnits="userSpaceOnUse"><path
         id="path38"
         d="M 0,256 256,256 256,0 0,0 0,256 Z" /></clipPath><clipPath
       id="clipPath48"
       clipPathUnits="userSpaceOnUse"><path
         id="path50"
         d="m 94.781,147.327 c -3.002,0 -5.435,-2.433 -5.435,-5.436 l 0,0 0,-6.308 c 0,-3.002 2.433,-5.436 5.435,-5.436 l 0,0 6.309,0 c 3.002,0 5.436,2.434 5.436,5.436 l 0,0 0,6.308 c 0,3.003 -2.434,5.436 -5.436,5.436 l 0,0 -6.309,0 z" /></clipPath><linearGradient
       id="linearGradient56"
       spreadMethod="pad"
       gradientTransform="matrix(-13.995575,13.995575,13.995575,13.995575,104.93321,131.73958)"
       gradientUnits="userSpaceOnUse"
       y2="0"
       x2="1"
       y1="0"
       x1="0"><stop
         id="stop58"
         offset="0"
         style="stop-opacity:1;stop-color:#e6e7e8" /><stop
         id="stop60"
         offset="1"
         style="stop-opacity:1;stop-color:#d1d3d4" /></linearGradient><clipPath
       id="clipPath68"
       clipPathUnits="userSpaceOnUse"><path
         id="path70"
         d="m 154.91,147.327 c -3.002,0 -5.435,-2.433 -5.435,-5.436 l 0,0 0,-6.308 c 0,-3.002 2.433,-5.436 5.435,-5.436 l 0,0 6.309,0 c 3.001,0 5.435,2.434 5.435,5.436 l 0,0 0,6.308 c 0,3.003 -2.434,5.436 -5.435,5.436 l 0,0 -6.309,0 z" /></clipPath><linearGradient
       id="linearGradient76"
       spreadMethod="pad"
       gradientTransform="matrix(-13.995575,13.995575,13.995575,13.995575,165.06236,131.73958)"
       gradientUnits="userSpaceOnUse"
       y2="0"
       x2="1"
       y1="0"
       x1="0"><stop
         id="stop78"
         offset="0"
         style="stop-opacity:1;stop-color:#e6e7e8" /><stop
         id="stop80"
         offset="1"
         style="stop-opacity:1;stop-color:#d1d3d4" /></linearGradient></defs><g
     transform="matrix(1.25,0,0,-1.25,0,320)"
     id="g10"><g
       id="g12"><g
         clip-path="url(#clipPath16)"
         id="g14"><g
           id="g20"><g
             id="g22"><path
               id="path30"
               style="fill:url(#linearGradient24);stroke:none"
               d="M 56.549,199.436 C -2.848,140.038 -2.947,116.05 56.551,56.55 l 0,0 C 116.06,-2.958 140.017,-2.873 199.436,56.547 l 0,0 c 59.426,59.426 59.315,83.579 0.003,142.89 l 0,0 c -29.663,29.663 -50.545,44.512 -71.434,44.515 l 0,0 C 107.126,243.954 86.24,229.126 56.549,199.436" /></g></g></g></g><g
       id="g32"><g
         clip-path="url(#clipPath36)"
         id="g34"><g
           transform="translate(219.6895,126.5928)"
           id="g40"><path
             id="path42"
             style="fill:#999999;fill-opacity:1;fill-rule:nonzero;stroke:none"
             d="m 0,0 -10.086,33.619 -12.885,0 6.309,-20.401 -16.107,0 -7.381,20.401 -25.77,0 12.885,17.18 -9.261,0 c -2.281,0 -4.43,-1.074 -5.798,-2.899 l -10.711,-14.281 -25.769,0 -10.711,14.281 c -1.368,1.825 -3.517,2.899 -5.798,2.899 l -9.261,0 12.885,-17.18 -25.77,0 -7.382,-20.401 -16.106,0 6.308,20.401 -12.884,0 L -183.379,0 c -1.395,-4.65 2.087,-9.33 6.942,-9.33 l 20.324,0 -4.296,-17.18 25.77,0 -17.179,-21.474 21.474,0 17.18,21.474 42.949,0 17.448,-21.474 21.206,0 -17.179,21.474 25.769,0 -4.295,17.18 20.325,0 C -2.087,-9.33 1.396,-4.65 0,0" /></g></g></g><g
       id="g44"><g
         clip-path="url(#clipPath48)"
         id="g46"><g
           id="g52"><g
             id="g54"><path
               id="path62"
               style="fill:url(#linearGradient56);stroke:none"
               d="m 94.781,147.327 c -3.002,0 -5.435,-2.433 -5.435,-5.436 l 0,0 0,-6.308 c 0,-3.002 2.433,-5.436 5.435,-5.436 l 0,0 6.309,0 c 3.002,0 5.436,2.434 5.436,5.436 l 0,0 0,6.308 c 0,3.003 -2.434,5.436 -5.436,5.436 l 0,0 -6.309,0 z" /></g></g></g></g><g
       id="g64"><g
         clip-path="url(#clipPath68)"
         id="g66"><g
           id="g72"><g
             id="g74"><path
               id="path82"
               style="fill:url(#linearGradient76);stroke:none"
               d="m 154.91,147.327 c -3.002,0 -5.435,-2.433 -5.435,-5.436 l 0,0 0,-6.308 c 0,-3.002 2.433,-5.436 5.435,-5.436 l 0,0 6.309,0 c 3.001,0 5.435,2.434 5.435,5.436 l 0,0 0,6.308 c 0,3.003 -2.434,5.436 -5.435,5.436 l 0,0 -6.309,0 z" /></g></g></g></g></g></svg>