<?xml version="1.0" encoding="UTF-8" standalone="no"?>
<svg
   xmlns:dc="http://purl.org/dc/elements/1.1/"
   xmlns:cc="http://creativecommons.org/ns#"
   xmlns:rdf="http://www.w3.org/1999/02/22-rdf-syntax-ns#"
   xmlns:svg="http://www.w3.org/2000/svg"
   xmlns="http://www.w3.org/2000/svg"
   viewBox="0 0 320 320"
   height="320"
   width="320"
   xml:space="preserve"
   version="1.1"
   id="svg2"><metadata
     id="metadata8"><rdf:RDF><cc:Work
         rdf:about=""><dc:format>image/svg+xml</dc:format><dc:type
           rdf:resource="http://purl.org/dc/dcmitype/StillImage" /></cc:Work></rdf:RDF></metadata><defs
     id="defs6"><clipPath
       id="clipPath16"
       clipPathUnits="userSpaceOnUse"><path
         id="path18"
         d="M 0,256 256,256 256,0 0,0 0,256 Z" /></clipPath><clipPath
       id="clipPath28"
       clipPathUnits="userSpaceOnUse"><path
         id="path30"
         d="m 126,228 0,-98.812 -86.957,-47.432 1.914,-3.512 87.043,47.478 87.042,-47.478 1.916,3.512 -86.958,47.432 0,98.812 -4,0 z" /></clipPath><linearGradient
       id="linearGradient36"
       spreadMethod="pad"
       gradientTransform="matrix(-119.39892,119.39892,119.39892,119.39892,187.69934,50.901489)"
       gradientUnits="userSpaceOnUse"
       y2="0"
       x2="1"
       y1="0"
       x1="0"><stop
         id="stop38"
         offset="0"
         style="stop-opacity:1;stop-color:#e6e7e8" /><stop
         id="stop40"
         offset="1"
         style="stop-opacity:1;stop-color:#d1d3d4" /></linearGradient><clipPath
       id="clipPath48"
       clipPathUnits="userSpaceOnUse"><path
         id="path50"
         d="m 126,84 4,0 0,8 -4,0 0,-8 z" /></clipPath><linearGradient
       id="linearGradient56"
       spreadMethod="pad"
       gradientTransform="matrix(-5.9999995,5.9999995,5.9999995,5.9999995,131,85)"
       gradientUnits="userSpaceOnUse"
       y2="0"
       x2="1"
       y1="0"
       x1="0"><stop
         id="stop58"
         offset="0"
         style="stop-opacity:1;stop-color:#e6e7e8" /><stop
         id="stop60"
         offset="1"
         style="stop-opacity:1;stop-color:#d1d3d4" /></linearGradient><clipPath
       id="clipPath68"
       clipPathUnits="userSpaceOnUse"><path
         id="path70"
         d="m 126,52 4,0 0,8 -4,0 0,-8 z" /></clipPath><linearGradient
       id="linearGradient76"
       spreadMethod="pad"
       gradientTransform="matrix(-5.9999995,5.9999995,5.9999995,5.9999995,131,53)"
       gradientUnits="userSpaceOnUse"
       y2="0"
       x2="1"
       y1="0"
       x1="0"><stop
         id="stop78"
         offset="0"
         style="stop-opacity:1;stop-color:#e6e7e8" /><stop
         id="stop80"
         offset="1"
         style="stop-opacity:1;stop-color:#d1d3d4" /></linearGradient><clipPath
       id="clipPath88"
       clipPathUnits="userSpaceOnUse"><path
         id="path90"
         d="m 126,68 4,0 0,7.999 -4,0 0,-7.999 z" /></clipPath><linearGradient
       id="linearGradient96"
       spreadMethod="pad"
       gradientTransform="matrix(-5.9999995,5.9999995,5.9999995,5.9999995,131,69)"
       gradientUnits="userSpaceOnUse"
       y2="0"
       x2="1"
       y1="0"
       x1="0"><stop
         id="stop98"
         offset="0"
         style="stop-opacity:1;stop-color:#e6e7e8" /><stop
         id="stop100"
         offset="1"
         style="stop-opacity:1;stop-color:#d1d3d4" /></linearGradient><clipPath
       id="clipPath108"
       clipPathUnits="userSpaceOnUse"><path
         id="path110"
         d="m 89.182,147.259 6.439,-3.513 c 0.587,1.204 1.243,2.367 1.956,3.49 l 0,0 -6.48,3.535 -1.915,-3.512 z" /></clipPath><linearGradient
       id="linearGradient116"
       spreadMethod="pad"
       gradientTransform="matrix(-5.7742004,5.7742004,5.7742004,5.7742004,96.250717,144.37614)"
       gradientUnits="userSpaceOnUse"
       y2="0"
       x2="1"
       y1="0"
       x1="0"><stop
         id="stop118"
         offset="0"
         style="stop-opacity:1;stop-color:#e6e7e8" /><stop
         id="stop120"
         offset="1"
         style="stop-opacity:1;stop-color:#d1d3d4" /></linearGradient><clipPath
       id="clipPath128"
       clipPathUnits="userSpaceOnUse"><path
         id="path130"
         d="m 75.135,154.921 7.022,-3.831 1.917,3.512 -7.023,3.83 -1.916,-3.511 z" /></clipPath><linearGradient
       id="linearGradient136"
       spreadMethod="pad"
       gradientTransform="matrix(-6.2248535,6.2248535,6.2248535,6.2248535,82.716675,151.6488)"
       gradientUnits="userSpaceOnUse"
       y2="0"
       x2="1"
       y1="0"
       x1="0"><stop
         id="stop138"
         offset="0"
         style="stop-opacity:1;stop-color:#e6e7e8" /><stop
         id="stop140"
         offset="1"
         style="stop-opacity:1;stop-color:#d1d3d4" /></linearGradient><clipPath
       id="clipPath148"
       clipPathUnits="userSpaceOnUse"><path
         id="path150"
         d="m 47.042,170.244 7.023,-3.831 1.916,3.511 -7.023,3.832 -1.916,-3.512 z" /></clipPath><linearGradient
       id="linearGradient156"
       spreadMethod="pad"
       gradientTransform="matrix(-6.2248535,6.2248535,6.2248535,6.2248535,54.623901,166.97205)"
       gradientUnits="userSpaceOnUse"
       y2="0"
       x2="1"
       y1="0"
       x1="0"><stop
         id="stop158"
         offset="0"
         style="stop-opacity:1;stop-color:#e6e7e8" /><stop
         id="stop160"
         offset="1"
         style="stop-opacity:1;stop-color:#d1d3d4" /></linearGradient><clipPath
       id="clipPath168"
       clipPathUnits="userSpaceOnUse"><path
         id="path170"
         d="m 200.019,169.924 1.916,-3.511 7.023,3.831 -1.916,3.512 -7.023,-3.832 z" /></clipPath><linearGradient
       id="linearGradient176"
       spreadMethod="pad"
       gradientTransform="matrix(-4.3100586,4.3100586,4.3100586,4.3100586,206.64331,167.92944)"
       gradientUnits="userSpaceOnUse"
       y2="0"
       x2="1"
       y1="0"
       x1="0"><stop
         id="stop178"
         offset="0"
         style="stop-opacity:1;stop-color:#e6e7e8" /><stop
         id="stop180"
         offset="1"
         style="stop-opacity:1;stop-color:#d1d3d4" /></linearGradient><clipPath
       id="clipPath188"
       clipPathUnits="userSpaceOnUse"><path
         id="path190"
         d="m 61.089,162.582 7.023,-3.83 1.915,3.512 -7.023,3.83 -1.915,-3.512 z" /></clipPath><linearGradient
       id="linearGradient196"
       spreadMethod="pad"
       gradientTransform="matrix(-6.2248535,6.2248535,6.2248535,6.2248535,68.670288,159.31042)"
       gradientUnits="userSpaceOnUse"
       y2="0"
       x2="1"
       y1="0"
       x1="0"><stop
         id="stop198"
         offset="0"
         style="stop-opacity:1;stop-color:#e6e7e8" /><stop
         id="stop200"
         offset="1"
         style="stop-opacity:1;stop-color:#d1d3d4" /></linearGradient><clipPath
       id="clipPath208"
       clipPathUnits="userSpaceOnUse"><path
         id="path210"
         d="m 158.423,147.236 c 0.712,-1.123 1.369,-2.286 1.956,-3.49 l 0,0 6.441,3.513 -1.917,3.512 -6.48,-3.535 z" /></clipPath><linearGradient
       id="linearGradient216"
       spreadMethod="pad"
       gradientTransform="matrix(-4.1870728,4.1870728,4.1870728,4.1870728,164.73007,145.16953)"
       gradientUnits="userSpaceOnUse"
       y2="0"
       x2="1"
       y1="0"
       x1="0"><stop
         id="stop218"
         offset="0"
         style="stop-opacity:1;stop-color:#e6e7e8" /><stop
         id="stop220"
         offset="1"
         style="stop-opacity:1;stop-color:#d1d3d4" /></linearGradient><clipPath
       id="clipPath228"
       clipPathUnits="userSpaceOnUse"><path
         id="path230"
         d="m 185.972,162.264 1.917,-3.512 7.023,3.83 -1.916,3.512 -7.024,-3.83 z" /></clipPath><linearGradient
       id="linearGradient236"
       spreadMethod="pad"
       gradientTransform="matrix(-4.3105469,4.3105469,4.3105469,4.3105469,192.59766,160.26758)"
       gradientUnits="userSpaceOnUse"
       y2="0"
       x2="1"
       y1="0"
       x1="0"><stop
         id="stop238"
         offset="0"
         style="stop-opacity:1;stop-color:#e6e7e8" /><stop
         id="stop240"
         offset="1"
         style="stop-opacity:1;stop-color:#d1d3d4" /></linearGradient><clipPath
       id="clipPath248"
       clipPathUnits="userSpaceOnUse"><path
         id="path250"
         d="m 171.926,154.602 1.916,-3.512 7.023,3.831 -1.916,3.511 -7.023,-3.83 z" /></clipPath><linearGradient
       id="linearGradient256"
       spreadMethod="pad"
       gradientTransform="matrix(-4.3100586,4.3100586,4.3100586,4.3100586,178.55054,152.6062)"
       gradientUnits="userSpaceOnUse"
       y2="0"
       x2="1"
       y1="0"
       x1="0"><stop
         id="stop258"
         offset="0"
         style="stop-opacity:1;stop-color:#e6e7e8" /><stop
         id="stop260"
         offset="1"
         style="stop-opacity:1;stop-color:#d1d3d4" /></linearGradient><clipPath
       id="clipPath268"
       clipPathUnits="userSpaceOnUse"><path
         id="path270"
         d="m 92,128 c 0,-29.93 6.019,-36 36,-36 l 0,0 c 29.985,0 36,6.059 36,36 l 0,0 c 0,29.944 -6.113,36 -36,36 l 0,0 c -29.887,0 -36,-6.071 -36,-36" /></clipPath><linearGradient
       id="linearGradient276"
       spreadMethod="pad"
       gradientTransform="matrix(58.451755,-58.451755,-58.451755,-58.451755,98.776993,157.20801)"
       gradientUnits="userSpaceOnUse"
       y2="0"
       x2="1"
       y1="0"
       x1="0"><stop
         id="stop278"
         offset="0"
         style="stop-opacity:1;stop-color:#e6e7e8" /><stop
         id="stop280"
         offset="1"
         style="stop-opacity:1;stop-color:#d1d3d4" /></linearGradient><clipPath
       id="clipPath288"
       clipPathUnits="userSpaceOnUse"><path
         id="path290"
         d="M 0,256 256,256 256,0 0,0 0,256 Z" /></clipPath><clipPath
       id="clipPath320"
       clipPathUnits="userSpaceOnUse"><path
         id="path322"
         d="M 22,82 C 22,65.373 25.344,62 42,62 l 0,0 c 16.658,0 20,3.366 20,20 l 0,0 c 0,16.635 -3.396,20 -20,20 l 0,0 C 25.396,102 22,98.627 22,82" /></clipPath><linearGradient
       id="linearGradient328"
       spreadMethod="pad"
       gradientTransform="matrix(32.473194,-32.473194,-32.473194,-32.473194,25.764999,98.226669)"
       gradientUnits="userSpaceOnUse"
       y2="0"
       x2="1"
       y1="0"
       x1="0"><stop
         id="stop330"
         offset="0"
         style="stop-opacity:1;stop-color:#e6e7e8" /><stop
         id="stop332"
         offset="1"
         style="stop-opacity:1;stop-color:#d1d3d4" /></linearGradient><clipPath
       id="clipPath340"
       clipPathUnits="userSpaceOnUse"><path
         id="path342"
         d="m 194,82 c 0,-16.627 3.344,-20 20,-20 l 0,0 c 16.658,0 20,3.366 20,20 l 0,0 c 0,16.635 -3.397,20 -20,20 l 0,0 c -16.604,0 -20,-3.373 -20,-20" /></clipPath><linearGradient
       id="linearGradient348"
       spreadMethod="pad"
       gradientTransform="matrix(32.473194,-32.473194,-32.473194,-32.473194,197.765,98.226669)"
       gradientUnits="userSpaceOnUse"
       y2="0"
       x2="1"
       y1="0"
       x1="0"><stop
         id="stop350"
         offset="0"
         style="stop-opacity:1;stop-color:#e6e7e8" /><stop
         id="stop352"
         offset="1"
         style="stop-opacity:1;stop-color:#d1d3d4" /></linearGradient><clipPath
       id="clipPath360"
       clipPathUnits="userSpaceOnUse"><path
         id="path362"
         d="m 108,224 c 0,-16.627 3.344,-20 20,-20 l 0,0 c 16.658,0 20,3.365 20,20 l 0,0 c 0,16.636 -3.396,20 -20,20 l 0,0 c -16.603,0 -20,-3.372 -20,-20" /></clipPath><linearGradient
       id="linearGradient368"
       spreadMethod="pad"
       gradientTransform="matrix(32.473194,-32.473194,-32.473194,-32.473194,111.765,240.22667)"
       gradientUnits="userSpaceOnUse"
       y2="0"
       x2="1"
       y1="0"
       x1="0"><stop
         id="stop370"
         offset="0"
         style="stop-opacity:1;stop-color:#e6e7e8" /><stop
         id="stop372"
         offset="1"
         style="stop-opacity:1;stop-color:#d1d3d4" /></linearGradient><clipPath
       id="clipPath380"
       clipPathUnits="userSpaceOnUse"><path
         id="path382"
         d="M 0,256 256,256 256,0 0,0 0,256 Z" /></clipPath></defs><g
     transform="matrix(1.25,0,0,-1.25,0,320)"
     id="g10"><g
       id="g12"><g
         clip-path="url(#clipPath16)"
         id="g14"><g
           transform="translate(128,52)"
           id="g20"><path
             id="path22"
             style="fill:#999999;fill-opacity:1;fill-rule:nonzero;stroke:none"
             d="m 0,0 c -16.604,0 -20,-3.373 -20,-20 0,-16.627 3.344,-20 20,-20 16.658,0 20,3.366 20,20 C 20,-3.364 16.604,0 0,0" /></g></g></g><g
       id="g24"><g
         clip-path="url(#clipPath28)"
         id="g26"><g
           id="g32"><g
             id="g34"><path
               id="path42"
               style="fill:url(#linearGradient36);stroke:none"
               d="m 126,228 0,-98.812 -86.957,-47.432 1.914,-3.512 87.043,47.478 87.042,-47.478 1.916,3.512 -86.958,47.432 0,98.812 -4,0 z" /></g></g></g></g><g
       id="g44"><g
         clip-path="url(#clipPath48)"
         id="g46"><g
           id="g52"><g
             id="g54"><path
               id="path62"
               style="fill:url(#linearGradient56);stroke:none"
               d="m 126,84 4,0 0,8 -4,0 0,-8 z" /></g></g></g></g><g
       id="g64"><g
         clip-path="url(#clipPath68)"
         id="g66"><g
           id="g72"><g
             id="g74"><path
               id="path82"
               style="fill:url(#linearGradient76);stroke:none"
               d="m 126,52 4,0 0,8 -4,0 0,-8 z" /></g></g></g></g><g
       id="g84"><g
         clip-path="url(#clipPath88)"
         id="g86"><g
           id="g92"><g
             id="g94"><path
               id="path102"
               style="fill:url(#linearGradient96);stroke:none"
               d="m 126,68 4,0 0,7.999 -4,0 0,-7.999 z" /></g></g></g></g><g
       id="g104"><g
         clip-path="url(#clipPath108)"
         id="g106"><g
           id="g112"><g
             id="g114"><path
               id="path122"
               style="fill:url(#linearGradient116);stroke:none"
               d="m 89.182,147.259 6.439,-3.513 c 0.587,1.204 1.243,2.367 1.956,3.49 l 0,0 -6.48,3.535 -1.915,-3.512 z" /></g></g></g></g><g
       id="g124"><g
         clip-path="url(#clipPath128)"
         id="g126"><g
           id="g132"><g
             id="g134"><path
               id="path142"
               style="fill:url(#linearGradient136);stroke:none"
               d="m 75.135,154.921 7.022,-3.831 1.917,3.512 -7.023,3.83 -1.916,-3.511 z" /></g></g></g></g><g
       id="g144"><g
         clip-path="url(#clipPath148)"
         id="g146"><g
           id="g152"><g
             id="g154"><path
               id="path162"
               style="fill:url(#linearGradient156);stroke:none"
               d="m 47.042,170.244 7.023,-3.831 1.916,3.511 -7.023,3.832 -1.916,-3.512 z" /></g></g></g></g><g
       id="g164"><g
         clip-path="url(#clipPath168)"
         id="g166"><g
           id="g172"><g
             id="g174"><path
               id="path182"
               style="fill:url(#linearGradient176);stroke:none"
               d="m 200.019,169.924 1.916,-3.511 7.023,3.831 -1.916,3.512 -7.023,-3.832 z" /></g></g></g></g><g
       id="g184"><g
         clip-path="url(#clipPath188)"
         id="g186"><g
           id="g192"><g
             id="g194"><path
               id="path202"
               style="fill:url(#linearGradient196);stroke:none"
               d="m 61.089,162.582 7.023,-3.83 1.915,3.512 -7.023,3.83 -1.915,-3.512 z" /></g></g></g></g><g
       id="g204"><g
         clip-path="url(#clipPath208)"
         id="g206"><g
           id="g212"><g
             id="g214"><path
               id="path222"
               style="fill:url(#linearGradient216);stroke:none"
               d="m 158.423,147.236 c 0.712,-1.123 1.369,-2.286 1.956,-3.49 l 0,0 6.441,3.513 -1.917,3.512 -6.48,-3.535 z" /></g></g></g></g><g
       id="g224"><g
         clip-path="url(#clipPath228)"
         id="g226"><g
           id="g232"><g
             id="g234"><path
               id="path242"
               style="fill:url(#linearGradient236);stroke:none"
               d="m 185.972,162.264 1.917,-3.512 7.023,3.83 -1.916,3.512 -7.024,-3.83 z" /></g></g></g></g><g
       id="g244"><g
         clip-path="url(#clipPath248)"
         id="g246"><g
           id="g252"><g
             id="g254"><path
               id="path262"
               style="fill:url(#linearGradient256);stroke:none"
               d="m 171.926,154.602 1.916,-3.512 7.023,3.831 -1.916,3.511 -7.023,-3.83 z" /></g></g></g></g><g
       id="g264"><g
         clip-path="url(#clipPath268)"
         id="g266"><g
           id="g272"><g
             id="g274"><path
               id="path282"
               style="fill:url(#linearGradient276);stroke:none"
               d="m 92,128 c 0,-29.93 6.019,-36 36,-36 l 0,0 c 29.985,0 36,6.059 36,36 l 0,0 c 0,29.944 -6.113,36 -36,36 l 0,0 c -29.887,0 -36,-6.071 -36,-36" /></g></g></g></g><g
       id="g284"><g
         clip-path="url(#clipPath288)"
         id="g286"><g
           transform="translate(137.4492,140.6396)"
           id="g292"><path
             id="path294"
             style="fill:#999999;fill-opacity:1;fill-rule:nonzero;stroke:none"
             d="m 0,0 -0.893,12.36 -11.498,0 c -3.827,0 -7.095,-2.293 -7.308,-5.238 L -20.213,0 -37.235,0 -39.334,-10.824 c -0.772,-3.984 2.416,-7.371 7.16,-7.371 l 10.646,0 -1.405,-19.445 16.006,0 c 5.328,0 9.339,4.261 8.979,9.244 l -0.738,10.201 19.237,0 -2.302,11.867 C 17.558,-2.764 13.619,0 9.421,0 L 0,0 Z" /></g><g
           transform="translate(109.4302,126.75)"
           id="g296"><path
             id="path298"
             style="fill:#ffffff;fill-opacity:1;fill-rule:nonzero;stroke:none"
             d="M 0,0 -5.18,5.177 1.07,10 0,0 Z" /></g><g
           transform="translate(128,148.7573)"
           id="g300"><path
             id="path302"
             style="fill:#ffffff;fill-opacity:1;fill-rule:nonzero;stroke:none"
             d="m 0,0 5.625,-3.75 -11.25,0 L 0,0 Z" /></g><g
           transform="translate(128,110.5)"
           id="g304"><path
             id="path306"
             style="fill:#ffffff;fill-opacity:1;fill-rule:nonzero;stroke:none"
             d="m 0,0 -6.875,6.25 13.75,0 L 0,0 Z" /></g><g
           transform="translate(128,126.75)"
           id="g308"><path
             id="path310"
             style="fill:#ffffff;fill-opacity:1;fill-rule:nonzero;stroke:none"
             d="M 0,0 C -3.577,0 -6.373,2.366 -6.246,5.18 -6.125,7.884 -3.329,10 0,10 3.33,10 6.124,7.884 6.246,5.18 6.372,2.366 3.578,0 0,0" /></g><g
           transform="translate(145.3203,126.75)"
           id="g312"><path
             id="path314"
             style="fill:#ffffff;fill-opacity:1;fill-rule:nonzero;stroke:none"
             d="M 0,0 -1.07,10 5.18,5.177 0,0 Z" /></g></g></g><g
       id="g316"><g
         clip-path="url(#clipPath320)"
         id="g318"><g
           id="g324"><g
             id="g326"><path
               id="path334"
               style="fill:url(#linearGradient328);stroke:none"
               d="M 22,82 C 22,65.373 25.344,62 42,62 l 0,0 c 16.658,0 20,3.366 20,20 l 0,0 c 0,16.635 -3.396,20 -20,20 l 0,0 C 25.396,102 22,98.627 22,82" /></g></g></g></g><g
       id="g336"><g
         clip-path="url(#clipPath340)"
         id="g338"><g
           id="g344"><g
             id="g346"><path
               id="path354"
               style="fill:url(#linearGradient348);stroke:none"
               d="m 194,82 c 0,-16.627 3.344,-20 20,-20 l 0,0 c 16.658,0 20,3.366 20,20 l 0,0 c 0,16.635 -3.397,20 -20,20 l 0,0 c -16.604,0 -20,-3.373 -20,-20" /></g></g></g></g><g
       id="g356"><g
         clip-path="url(#clipPath360)"
         id="g358"><g
           id="g364"><g
             id="g366"><path
               id="path374"
               style="fill:url(#linearGradient368);stroke:none"
               d="m 108,224 c 0,-16.627 3.344,-20 20,-20 l 0,0 c 16.658,0 20,3.365 20,20 l 0,0 c 0,16.636 -3.396,20 -20,20 l 0,0 c -16.603,0 -20,-3.372 -20,-20" /></g></g></g></g><g
       id="g376"><g
         clip-path="url(#clipPath380)"
         id="g378"><g
           transform="translate(42,194)"
           id="g384"><path
             id="path386"
             style="fill:#999999;fill-opacity:1;fill-rule:nonzero;stroke:none"
             d="m 0,0 c -16.604,0 -20,-3.373 -20,-20 0,-16.627 3.344,-20 20,-20 16.659,0 20,3.366 20,20 C 20,-3.364 16.604,0 0,0" /></g><g
           transform="translate(214,194)"
           id="g388"><path
             id="path390"
             style="fill:#999999;fill-opacity:1;fill-rule:nonzero;stroke:none"
             d="m 0,0 c -16.604,0 -20,-3.373 -20,-20 0,-16.627 3.344,-20 20,-20 16.658,0 20,3.366 20,20 C 20,-3.364 16.604,0 0,0" /></g></g></g></g></svg>