<?xml version="1.0" encoding="UTF-8" standalone="no"?>
<svg
   xmlns:dc="http://purl.org/dc/elements/1.1/"
   xmlns:cc="http://creativecommons.org/ns#"
   xmlns:rdf="http://www.w3.org/1999/02/22-rdf-syntax-ns#"
   xmlns:svg="http://www.w3.org/2000/svg"
   xmlns="http://www.w3.org/2000/svg"
   viewBox="0 0 320 320"
   height="320"
   width="320"
   xml:space="preserve"
   version="1.1"
   id="svg2"><metadata
     id="metadata8"><rdf:RDF><cc:Work
         rdf:about=""><dc:format>image/svg+xml</dc:format><dc:type
           rdf:resource="http://purl.org/dc/dcmitype/StillImage" /></cc:Work></rdf:RDF></metadata><defs
     id="defs6"><clipPath
       id="clipPath16"
       clipPathUnits="userSpaceOnUse"><path
         id="path18"
         d="M 100.016,155.528 C 100.012,155.508 100,155.492 100,155.472 l 0,0 0,-54.932 c 0,-2.508 2.032,-4.54 4.54,-4.54 l 0,0 c 0.752,0 1.456,0.184 2.084,0.504 l 0,0 c 0.74,0.38 43.748,25.08 46.728,27.064 l 0,0 c 1.656,1.104 2.648,2.768 2.648,4.432 l 0,0 c 0,1.664 -0.996,3.332 -2.66,4.44 l 0,0 c -2.98,1.988 -45.984,26.676 -46.72,27.056 l 0,0 c -0.624,0.32 -1.332,0.504 -2.08,0.504 l 0,0 c -2.484,0 -4.488,-1.996 -4.524,-4.472" /></clipPath><linearGradient
       id="linearGradient24"
       spreadMethod="pad"
       gradientTransform="matrix(43.653011,-43.653011,-43.653011,-43.653011,92.491379,149.82394)"
       gradientUnits="userSpaceOnUse"
       y2="0"
       x2="1"
       y1="0"
       x1="0"><stop
         id="stop26"
         offset="0"
         style="stop-opacity:1;stop-color:#e6e7e8" /><stop
         id="stop28"
         offset="1"
         style="stop-opacity:1;stop-color:#d1d3d4" /></linearGradient></defs><g
     transform="matrix(1.25,0,0,-1.25,0,320)"
     id="g10"><g
       id="g12"><g
         clip-path="url(#clipPath16)"
         id="g14"><g
           id="g20"><g
             id="g22"><path
               id="path30"
               style="fill:url(#linearGradient24);stroke:none"
               d="M 100.016,155.528 C 100.012,155.508 100,155.492 100,155.472 l 0,0 0,-54.932 c 0,-2.508 2.032,-4.54 4.54,-4.54 l 0,0 c 0.752,0 1.456,0.184 2.084,0.504 l 0,0 c 0.74,0.38 43.748,25.08 46.728,27.064 l 0,0 c 1.656,1.104 2.648,2.768 2.648,4.432 l 0,0 c 0,1.664 -0.996,3.332 -2.66,4.44 l 0,0 c -2.98,1.988 -45.984,26.676 -46.72,27.056 l 0,0 c -0.624,0.32 -1.332,0.504 -2.08,0.504 l 0,0 c -2.484,0 -4.488,-1.996 -4.524,-4.472" /></g></g></g></g></g></svg>