<?xml version="1.0" encoding="UTF-8" standalone="no"?>
<svg
   xmlns:dc="http://purl.org/dc/elements/1.1/"
   xmlns:cc="http://creativecommons.org/ns#"
   xmlns:rdf="http://www.w3.org/1999/02/22-rdf-syntax-ns#"
   xmlns:svg="http://www.w3.org/2000/svg"
   xmlns="http://www.w3.org/2000/svg"
   viewBox="0 0 320 320"
   height="320"
   width="320"
   xml:space="preserve"
   version="1.1"
   id="svg2"><metadata
     id="metadata8"><rdf:RDF><cc:Work
         rdf:about=""><dc:format>image/svg+xml</dc:format><dc:type
           rdf:resource="http://purl.org/dc/dcmitype/StillImage" /></cc:Work></rdf:RDF></metadata><defs
     id="defs6"><clipPath
       id="clipPath16"
       clipPathUnits="userSpaceOnUse"><path
         id="path18"
         d="m 40,244 c -2.2,0 -4,-1.8 -4,-4 l 0,0 0,-184 c 0,-6.6 5.4,-12 12,-12 l 0,0 160,0 c 6.6,0 12,5.4 12,12 l 0,0 0,160 c 0,15.4 -12.6,28 -28,28 l 0,0 -152,0 z" /></clipPath><linearGradient
       id="linearGradient24"
       spreadMethod="pad"
       gradientTransform="matrix(187.3,-187.3,-187.3,-187.3,30.825001,236.47501)"
       gradientUnits="userSpaceOnUse"
       y2="0"
       x2="1"
       y1="0"
       x1="0"><stop
         id="stop26"
         offset="0"
         style="stop-opacity:1;stop-color:#e6e7e8" /><stop
         id="stop28"
         offset="1"
         style="stop-opacity:1;stop-color:#d1d3d4" /></linearGradient><clipPath
       id="clipPath36"
       clipPathUnits="userSpaceOnUse"><path
         id="path38"
         d="M 0,256 256,256 256,0 0,0 0,256 Z" /></clipPath><clipPath
       id="clipPath48"
       clipPathUnits="userSpaceOnUse"><path
         id="path50"
         d="m 48,232 0,-148 144,0 c 6.6,0 12,5.4 12,12 l 0,0 0,108 c 0,15.4 -12.6,28 -28,28 l 0,0 -128,0 z" /></clipPath><linearGradient
       id="linearGradient56"
       spreadMethod="pad"
       gradientTransform="matrix(148.47499,-148.47499,-148.47499,-148.47499,45.887501,229.8875)"
       gradientUnits="userSpaceOnUse"
       y2="0"
       x2="1"
       y1="0"
       x1="0"><stop
         id="stop58"
         offset="0"
         style="stop-opacity:1;stop-color:#e6e7e8" /><stop
         id="stop60"
         offset="1"
         style="stop-opacity:1;stop-color:#d1d3d4" /></linearGradient><clipPath
       id="clipPath68"
       clipPathUnits="userSpaceOnUse"><path
         id="path70"
         d="M 0,256 256,256 256,0 0,0 0,256 Z" /></clipPath><clipPath
       id="clipPath78"
       clipPathUnits="userSpaceOnUse"><path
         id="path80"
         d="m 80,40 c -2.209,0 -4,-1.79 -4,-4 l 0,0 0,-16 c 0,-2.209 1.791,-4 4,-4 l 0,0 96,0 c 2.209,0 4,1.791 4,4 l 0,0 0,16 c 0,2.21 -1.791,4 -4,4 l 0,0 -96,0 z" /></clipPath><linearGradient
       id="linearGradient86"
       spreadMethod="pad"
       gradientTransform="matrix(61.656853,-61.656853,-61.656853,-61.656853,97.17157,58.828426)"
       gradientUnits="userSpaceOnUse"
       y2="0"
       x2="1"
       y1="0"
       x1="0"><stop
         id="stop88"
         offset="0"
         style="stop-opacity:1;stop-color:#e6e7e8" /><stop
         id="stop90"
         offset="1"
         style="stop-opacity:1;stop-color:#d1d3d4" /></linearGradient><clipPath
       id="clipPath98"
       clipPathUnits="userSpaceOnUse"><path
         id="path100"
         d="M 0,256 256,256 256,0 0,0 0,256 Z" /></clipPath><clipPath
       id="clipPath110"
       clipPathUnits="userSpaceOnUse"><path
         id="path112"
         d="m 42,224 c -1.105,0 -2,-0.895 -2,-2 l 0,0 0,-8 c 0,-1.105 0.895,-2 2,-2 l 0,0 12,0 c 1.104,0 2,0.895 2,2 l 0,0 0,8 c 0,1.105 -0.896,2 -2,2 l 0,0 -12,0 z" /></clipPath><linearGradient
       id="linearGradient118"
       spreadMethod="pad"
       gradientTransform="matrix(12.828427,-12.828427,-12.828427,-12.828427,41.585785,224.41422)"
       gradientUnits="userSpaceOnUse"
       y2="0"
       x2="1"
       y1="0"
       x1="0"><stop
         id="stop120"
         offset="0"
         style="stop-opacity:1;stop-color:#e6e7e8" /><stop
         id="stop122"
         offset="1"
         style="stop-opacity:1;stop-color:#d1d3d4" /></linearGradient><clipPath
       id="clipPath130"
       clipPathUnits="userSpaceOnUse"><path
         id="path132"
         d="m 42,164 c -1.105,0 -2,-0.896 -2,-2 l 0,0 0,-8 c 0,-1.104 0.895,-2 2,-2 l 0,0 12,0 c 1.104,0 2,0.896 2,2 l 0,0 0,8 c 0,1.104 -0.896,2 -2,2 l 0,0 -12,0 z" /></clipPath><linearGradient
       id="linearGradient138"
       spreadMethod="pad"
       gradientTransform="matrix(12.828427,-12.828427,-12.828427,-12.828427,41.585785,164.41422)"
       gradientUnits="userSpaceOnUse"
       y2="0"
       x2="1"
       y1="0"
       x1="0"><stop
         id="stop140"
         offset="0"
         style="stop-opacity:1;stop-color:#e6e7e8" /><stop
         id="stop142"
         offset="1"
         style="stop-opacity:1;stop-color:#d1d3d4" /></linearGradient><clipPath
       id="clipPath150"
       clipPathUnits="userSpaceOnUse"><path
         id="path152"
         d="m 42,104 c -1.105,0 -2,-0.895 -2,-2 l 0,0 0,-8 c 0,-1.105 0.895,-2 2,-2 l 0,0 12,0 c 1.104,0 2,0.895 2,2 l 0,0 0,8 c 0,1.105 -0.896,2 -2,2 l 0,0 -12,0 z" /></clipPath><linearGradient
       id="linearGradient158"
       spreadMethod="pad"
       gradientTransform="matrix(12.828427,-12.828427,-12.828427,-12.828427,41.585785,104.41422)"
       gradientUnits="userSpaceOnUse"
       y2="0"
       x2="1"
       y1="0"
       x1="0"><stop
         id="stop160"
         offset="0"
         style="stop-opacity:1;stop-color:#e6e7e8" /><stop
         id="stop162"
         offset="1"
         style="stop-opacity:1;stop-color:#d1d3d4" /></linearGradient></defs><g
     transform="matrix(1.25,0,0,-1.25,0,320)"
     id="g10"><g
       id="g12"><g
         clip-path="url(#clipPath16)"
         id="g14"><g
           id="g20"><g
             id="g22"><path
               id="path30"
               style="fill:url(#linearGradient24);stroke:none"
               d="m 40,244 c -2.2,0 -4,-1.8 -4,-4 l 0,0 0,-184 c 0,-6.6 5.4,-12 12,-12 l 0,0 160,0 c 6.6,0 12,5.4 12,12 l 0,0 0,160 c 0,15.4 -12.6,28 -28,28 l 0,0 -152,0 z" /></g></g></g></g><g
       id="g32"><g
         clip-path="url(#clipPath36)"
         id="g34"><g
           transform="translate(200,80)"
           id="g40"><path
             id="path42"
             style="fill:#999999;fill-opacity:1;fill-rule:nonzero;stroke:none"
             d="m 0,0 -164,0 0,156 148,0 c 15.4,0 28,-12.6 28,-28 L 12,12 C 12,5.4 6.6,0 0,0" /></g></g></g><g
       id="g44"><g
         clip-path="url(#clipPath48)"
         id="g46"><g
           id="g52"><g
             id="g54"><path
               id="path62"
               style="fill:url(#linearGradient56);stroke:none"
               d="m 48,232 0,-148 144,0 c 6.6,0 12,5.4 12,12 l 0,0 0,108 c 0,15.4 -12.6,28 -28,28 l 0,0 -128,0 z" /></g></g></g></g><g
       id="g64"><g
         clip-path="url(#clipPath68)"
         id="g66"><path
           id="path72"
           style="fill:#999999;fill-opacity:1;fill-rule:nonzero;stroke:none"
           d="m 184,12 -112,0 0,32 112,0 0,-32 z" /></g></g><g
       id="g74"><g
         clip-path="url(#clipPath78)"
         id="g76"><g
           id="g82"><g
             id="g84"><path
               id="path92"
               style="fill:url(#linearGradient86);stroke:none"
               d="m 80,40 c -2.209,0 -4,-1.79 -4,-4 l 0,0 0,-16 c 0,-2.209 1.791,-4 4,-4 l 0,0 96,0 c 2.209,0 4,1.791 4,4 l 0,0 0,16 c 0,2.21 -1.791,4 -4,4 l 0,0 -96,0 z" /></g></g></g></g><g
       id="g94"><g
         clip-path="url(#clipPath98)"
         id="g96"><g
           transform="translate(188,72)"
           id="g102"><path
             id="path104"
             style="fill:#999999;fill-opacity:1;fill-rule:nonzero;stroke:none"
             d="m 0,0 -120,0 c -4.411,0 -8,-3.589 -8,-8 l 0,-4 c 0,-4.411 3.589,-8 8,-8 l 120,0 c 4.411,0 8,3.589 8,8 l 0,4 C 8,-3.589 4.411,0 0,0 m 0,-4 c 2.209,0 4,-1.791 4,-4 l 0,-4 c 0,-2.209 -1.791,-4 -4,-4 l -120,0 c -2.209,0 -4,1.791 -4,4 l 0,4 c 0,2.209 1.791,4 4,4 L 0,-4" /></g></g></g><g
       id="g106"><g
         clip-path="url(#clipPath110)"
         id="g108"><g
           id="g114"><g
             id="g116"><path
               id="path124"
               style="fill:url(#linearGradient118);stroke:none"
               d="m 42,224 c -1.105,0 -2,-0.895 -2,-2 l 0,0 0,-8 c 0,-1.105 0.895,-2 2,-2 l 0,0 12,0 c 1.104,0 2,0.895 2,2 l 0,0 0,8 c 0,1.105 -0.896,2 -2,2 l 0,0 -12,0 z" /></g></g></g></g><g
       id="g126"><g
         clip-path="url(#clipPath130)"
         id="g128"><g
           id="g134"><g
             id="g136"><path
               id="path144"
               style="fill:url(#linearGradient138);stroke:none"
               d="m 42,164 c -1.105,0 -2,-0.896 -2,-2 l 0,0 0,-8 c 0,-1.104 0.895,-2 2,-2 l 0,0 12,0 c 1.104,0 2,0.896 2,2 l 0,0 0,8 c 0,1.104 -0.896,2 -2,2 l 0,0 -12,0 z" /></g></g></g></g><g
       id="g146"><g
         clip-path="url(#clipPath150)"
         id="g148"><g
           id="g154"><g
             id="g156"><path
               id="path164"
               style="fill:url(#linearGradient158);stroke:none"
               d="m 42,104 c -1.105,0 -2,-0.895 -2,-2 l 0,0 0,-8 c 0,-1.105 0.895,-2 2,-2 l 0,0 12,0 c 1.104,0 2,0.895 2,2 l 0,0 0,8 c 0,1.105 -0.896,2 -2,2 l 0,0 -12,0 z" /></g></g></g></g></g></svg>