<?xml version="1.0" encoding="UTF-8" standalone="no"?>
<svg
   xmlns:dc="http://purl.org/dc/elements/1.1/"
   xmlns:cc="http://creativecommons.org/ns#"
   xmlns:rdf="http://www.w3.org/1999/02/22-rdf-syntax-ns#"
   xmlns:svg="http://www.w3.org/2000/svg"
   xmlns="http://www.w3.org/2000/svg"
   viewBox="0 0 320 320"
   height="320"
   width="320"
   xml:space="preserve"
   version="1.1"
   id="svg2"><metadata
     id="metadata8"><rdf:RDF><cc:Work
         rdf:about=""><dc:format>image/svg+xml</dc:format><dc:type
           rdf:resource="http://purl.org/dc/dcmitype/StillImage" /></cc:Work></rdf:RDF></metadata><defs
     id="defs6"><clipPath
       id="clipPath16"
       clipPathUnits="userSpaceOnUse"><path
         id="path18"
         d="M 15.742,204 C 13.669,204 12,202.306 12,200.2 l 0,0 0,-32.2 4,0 0,-4 -3.107,0 C 12.399,164 12,163.572 12,163.046 l 0,0 0,-2.092 C 12,160.428 12.399,160 12.893,160 l 0,0 3.107,0 0,-4 -3.107,0 C 12.399,156 12,155.573 12,155.046 l 0,0 0,-2.092 C 12,152.428 12.399,152 12.893,152 l 0,0 3.107,0 0,-4 -4,0 0,-92.2 C 12,53.695 13.669,52 15.742,52 l 0,0 224.516,0 c 2.073,0 3.742,1.695 3.742,3.8 l 0,0 0,92.2 -4,0 0,4 3.107,0 c 0.493,0 0.893,0.428 0.893,0.954 l 0,0 0,2.092 c 0,0.527 -0.4,0.954 -0.893,0.954 l 0,0 -3.107,0 0,4 3.107,0 c 0.493,0 0.893,0.428 0.893,0.954 l 0,0 0,2.092 c 0,0.526 -0.4,0.954 -0.893,0.954 l 0,0 -3.107,0 0,4 4,0 0,32.2 c 0,2.106 -1.669,3.8 -3.742,3.8 l 0,0 -224.516,0 z" /></clipPath><linearGradient
       id="linearGradient24"
       spreadMethod="pad"
       gradientTransform="matrix(189.79604,-189.79604,-189.79604,-189.79604,33.101982,222.89803)"
       gradientUnits="userSpaceOnUse"
       y2="0"
       x2="1"
       y1="0"
       x1="0"><stop
         id="stop26"
         offset="0"
         style="stop-opacity:1;stop-color:#e6e7e8" /><stop
         id="stop28"
         offset="1"
         style="stop-opacity:1;stop-color:#d1d3d4" /></linearGradient><clipPath
       id="clipPath36"
       clipPathUnits="userSpaceOnUse"><path
         id="path38"
         d="M 0,256 256,256 256,0 0,0 0,256 Z" /></clipPath></defs><g
     transform="matrix(1.25,0,0,-1.25,0,320)"
     id="g10"><g
       id="g12"><g
         clip-path="url(#clipPath16)"
         id="g14"><g
           id="g20"><g
             id="g22"><path
               id="path30"
               style="fill:url(#linearGradient24);stroke:none"
               d="M 15.742,204 C 13.669,204 12,202.306 12,200.2 l 0,0 0,-32.2 4,0 0,-4 -3.107,0 C 12.399,164 12,163.572 12,163.046 l 0,0 0,-2.092 C 12,160.428 12.399,160 12.893,160 l 0,0 3.107,0 0,-4 -3.107,0 C 12.399,156 12,155.573 12,155.046 l 0,0 0,-2.092 C 12,152.428 12.399,152 12.893,152 l 0,0 3.107,0 0,-4 -4,0 0,-92.2 C 12,53.695 13.669,52 15.742,52 l 0,0 224.516,0 c 2.073,0 3.742,1.695 3.742,3.8 l 0,0 0,92.2 -4,0 0,4 3.107,0 c 0.493,0 0.893,0.428 0.893,0.954 l 0,0 0,2.092 c 0,0.527 -0.4,0.954 -0.893,0.954 l 0,0 -3.107,0 0,4 3.107,0 c 0.493,0 0.893,0.428 0.893,0.954 l 0,0 0,2.092 c 0,0.526 -0.4,0.954 -0.893,0.954 l 0,0 -3.107,0 0,4 4,0 0,32.2 c 0,2.106 -1.669,3.8 -3.742,3.8 l 0,0 -224.516,0 z" /></g></g></g></g><g
       id="g32"><g
         clip-path="url(#clipPath36)"
         id="g34"><path
           id="path40"
           style="fill:#999999;fill-opacity:1;fill-rule:nonzero;stroke:none"
           d="m 16,160 224,0 0,-4 -224,0 0,4 z" /><path
           id="path42"
           style="fill:#999999;fill-opacity:1;fill-rule:nonzero;stroke:none"
           d="m 16,152 224,0 0,-4 -224,0 0,4 z" /><path
           id="path44"
           style="fill:#999999;fill-opacity:1;fill-rule:nonzero;stroke:none"
           d="m 16,168 224,0 0,-4 -224,0 0,4 z" /><g
           transform="translate(236.2667,204)"
           id="g46"><path
             id="path48"
             style="fill:#ffffff;fill-opacity:1;fill-rule:nonzero;stroke:none"
             d="m 0,0 -216.533,0 -3.734,0 0,-3.556 0,-24.888 c 0,-1.964 1.672,-3.556 3.734,-3.556 L 0,-32 c 2.062,0 3.733,1.592 3.733,3.556 l 0,24.888 L 3.733,0 0,0 Z" /></g></g></g></g></svg>