<?xml version="1.0" encoding="UTF-8" standalone="no"?>
<svg
   xmlns:dc="http://purl.org/dc/elements/1.1/"
   xmlns:cc="http://creativecommons.org/ns#"
   xmlns:rdf="http://www.w3.org/1999/02/22-rdf-syntax-ns#"
   xmlns:svg="http://www.w3.org/2000/svg"
   xmlns="http://www.w3.org/2000/svg"
   viewBox="0 0 320 320"
   height="320"
   width="320"
   xml:space="preserve"
   version="1.1"
   id="svg2"><metadata
     id="metadata8"><rdf:RDF><cc:Work
         rdf:about=""><dc:format>image/svg+xml</dc:format><dc:type
           rdf:resource="http://purl.org/dc/dcmitype/StillImage" /></cc:Work></rdf:RDF></metadata><defs
     id="defs6"><clipPath
       id="clipPath16"
       clipPathUnits="userSpaceOnUse"><path
         id="path18"
         d="m 12.057,130.979 -0.005,0 c -10e-4,-0.036 0.002,-0.072 0.001,-0.108 l 0,0 c 0,-0.003 -0.001,-0.006 -0.001,-0.009 l 0,0 c 0,-0.002 0.001,-0.004 0.001,-0.005 l 0,0 C 10.756,98.901 33.66,69.854 53.651,64.949 l 0,0 c 27.1,-6.651 21.94,23.611 40.668,30.63 l 0,0 c 18.727,7.02 48.692,7.02 67.419,0 l 0,0 c 18.728,-7.019 7.981,-36.623 35.633,-30.63 l 0,0 c 20.462,4.434 46.971,33.346 46.608,65.702 l 0,0 c 10e-4,0.071 0.021,0.14 0.021,0.211 l 0,0 C 244,166.837 192.076,196 128.026,196 l 0,0 C 64.046,196 12.171,166.9 12.057,130.979" /></clipPath><linearGradient
       id="linearGradient24"
       spreadMethod="pad"
       gradientTransform="matrix(138.96532,-138.96532,-138.96532,-138.96532,57.74789,193.61777)"
       gradientUnits="userSpaceOnUse"
       y2="0"
       x2="1"
       y1="0"
       x1="0"><stop
         id="stop26"
         offset="0"
         style="stop-opacity:1;stop-color:#e6e7e8" /><stop
         id="stop28"
         offset="1"
         style="stop-opacity:1;stop-color:#d1d3d4" /></linearGradient><clipPath
       id="clipPath36"
       clipPathUnits="userSpaceOnUse"><path
         id="path38"
         d="m 28,136 c 0,-19.85 16.15,-36 36,-36 l 0,0 c 19.85,0 36,16.15 36,36 l 0,0 c 0,19.85 -16.15,36 -36,36 l 0,0 C 44.15,172 28,155.85 28,136" /></clipPath><linearGradient
       id="linearGradient44"
       spreadMethod="pad"
       gradientTransform="matrix(-50.887844,50.887844,50.887844,50.887844,89.443924,110.55608)"
       gradientUnits="userSpaceOnUse"
       y2="0"
       x2="1"
       y1="0"
       x1="0"><stop
         id="stop46"
         offset="0"
         style="stop-opacity:1;stop-color:#e6e7e8" /><stop
         id="stop48"
         offset="1"
         style="stop-opacity:1;stop-color:#d1d3d4" /></linearGradient><clipPath
       id="clipPath56"
       clipPathUnits="userSpaceOnUse"><path
         id="path58"
         d="m 36,136 c 0,-15.44 12.56,-28 28,-28 l 0,0 c 15.439,0 28,12.56 28,28 l 0,0 c 0,15.439 -12.561,28 -28,28 l 0,0 C 48.56,164 36,151.439 36,136" /></clipPath><linearGradient
       id="linearGradient64"
       spreadMethod="pad"
       gradientTransform="matrix(39.579445,-39.579445,-39.579445,-39.579445,44.210278,155.78972)"
       gradientUnits="userSpaceOnUse"
       y2="0"
       x2="1"
       y1="0"
       x1="0"><stop
         id="stop66"
         offset="0"
         style="stop-opacity:1;stop-color:#e6e7e8" /><stop
         id="stop68"
         offset="1"
         style="stop-opacity:1;stop-color:#d1d3d4" /></linearGradient><clipPath
       id="clipPath76"
       clipPathUnits="userSpaceOnUse"><path
         id="path78"
         d="M 0,256 256,256 256,0 0,0 0,256 Z" /></clipPath><clipPath
       id="clipPath88"
       clipPathUnits="userSpaceOnUse"><path
         id="path90"
         d="m 58.014,156 0,-14.014 -14.014,0 0,-11.972 14.014,0 0,-14.014 11.972,0 0,14.014 14.014,0 0,11.972 -14.014,0 0,14.014 -11.972,0 z" /></clipPath><linearGradient
       id="linearGradient96"
       spreadMethod="pad"
       gradientTransform="matrix(-25.985767,25.985767,25.985767,25.985767,76.992882,123.00724)"
       gradientUnits="userSpaceOnUse"
       y2="0"
       x2="1"
       y1="0"
       x1="0"><stop
         id="stop98"
         offset="0"
         style="stop-opacity:1;stop-color:#e6e7e8" /><stop
         id="stop100"
         offset="1"
         style="stop-opacity:1;stop-color:#d1d3d4" /></linearGradient><clipPath
       id="clipPath108"
       clipPathUnits="userSpaceOnUse"><path
         id="path110"
         d="M 49.672,148 52,150.329 48,152 l 1.672,-4 z" /></clipPath><linearGradient
       id="linearGradient116"
       spreadMethod="pad"
       gradientTransform="matrix(-2.8358247,2.8358247,2.8358247,2.8358247,50.835823,149.16417)"
       gradientUnits="userSpaceOnUse"
       y2="0"
       x2="1"
       y1="0"
       x1="0"><stop
         id="stop118"
         offset="0"
         style="stop-opacity:1;stop-color:#e6e7e8" /><stop
         id="stop120"
         offset="1"
         style="stop-opacity:1;stop-color:#d1d3d4" /></linearGradient><clipPath
       id="clipPath128"
       clipPathUnits="userSpaceOnUse"><path
         id="path130"
         d="M 76,150.329 78.329,148 80,152 76,150.329 Z" /></clipPath><linearGradient
       id="linearGradient136"
       spreadMethod="pad"
       gradientTransform="matrix(-2.3283503,2.3283503,2.3283503,2.3283503,79.746262,149.41791)"
       gradientUnits="userSpaceOnUse"
       y2="0"
       x2="1"
       y1="0"
       x1="0"><stop
         id="stop138"
         offset="0"
         style="stop-opacity:1;stop-color:#e6e7e8" /><stop
         id="stop140"
         offset="1"
         style="stop-opacity:1;stop-color:#d1d3d4" /></linearGradient><clipPath
       id="clipPath148"
       clipPathUnits="userSpaceOnUse"><path
         id="path150"
         d="M 76,121.672 80,120 78.329,124 76,121.672 Z" /></clipPath><linearGradient
       id="linearGradient156"
       spreadMethod="pad"
       gradientTransform="matrix(-2.8358247,2.8358247,2.8358247,2.8358247,80,120)"
       gradientUnits="userSpaceOnUse"
       y2="0"
       x2="1"
       y1="0"
       x1="0"><stop
         id="stop158"
         offset="0"
         style="stop-opacity:1;stop-color:#e6e7e8" /><stop
         id="stop160"
         offset="1"
         style="stop-opacity:1;stop-color:#d1d3d4" /></linearGradient><clipPath
       id="clipPath168"
       clipPathUnits="userSpaceOnUse"><path
         id="path170"
         d="m 48,120 4,1.672 L 49.672,124 48,120 Z" /></clipPath><linearGradient
       id="linearGradient176"
       spreadMethod="pad"
       gradientTransform="matrix(-2.3283503,2.3283503,2.3283503,2.3283503,50.582088,120.25374)"
       gradientUnits="userSpaceOnUse"
       y2="0"
       x2="1"
       y1="0"
       x1="0"><stop
         id="stop178"
         offset="0"
         style="stop-opacity:1;stop-color:#e6e7e8" /><stop
         id="stop180"
         offset="1"
         style="stop-opacity:1;stop-color:#d1d3d4" /></linearGradient><clipPath
       id="clipPath188"
       clipPathUnits="userSpaceOnUse"><path
         id="path190"
         d="M 0,256 256,256 256,0 0,0 0,256 Z" /></clipPath><clipPath
       id="clipPath236"
       clipPathUnits="userSpaceOnUse"><path
         id="path238"
         d="m 205.694,155.965 c -0.495,-0.135 -0.968,-0.3 -1.445,-0.492 l 0,0 c -3.246,-1.308 -18.752,-7.684 -36.36,-17.02 l 0,0 c -9.913,-5.255 -12.668,-11.263 -12.945,-15.958 l 0,0 c -0.267,-4.535 1.975,-8.797 5.431,-11.645 l 0,0 c 3.915,-3.225 10.632,-6.596 17.688,-0.347 l 0,0 c 9.059,8.024 32.999,16.839 41.191,19.709 l 0,0 c 2.437,0.853 4.607,2.356 6.238,4.396 l 0,0 c 2.786,3.482 5.626,9.27 1.483,15.773 l 0,0 c -3.381,5.306 -8.958,6.624 -13.664,6.624 l 0,0 c -3.348,0 -6.256,-0.667 -7.617,-1.04" /></clipPath><linearGradient
       id="linearGradient244"
       spreadMethod="pad"
       gradientTransform="matrix(31.919331,-31.919331,-31.919331,-31.919331,175.81879,148.6562)"
       gradientUnits="userSpaceOnUse"
       y2="0"
       x2="1"
       y1="0"
       x1="0"><stop
         id="stop246"
         offset="0"
         style="stop-opacity:1;stop-color:#e6e7e8" /><stop
         id="stop248"
         offset="1"
         style="stop-opacity:1;stop-color:#d1d3d4" /></linearGradient><clipPath
       id="clipPath256"
       clipPathUnits="userSpaceOnUse"><path
         id="path258"
         d="m 204.94,158.859 c -0.573,-0.156 -1.148,-0.352 -1.761,-0.599 l 0,0 c -2.991,-1.206 -18.81,-7.698 -36.634,-17.146 l 0,0 c -6.325,-3.354 -13.978,-9.275 -14.519,-18.438 l 0,0 c -0.309,-5.248 2.127,-10.541 6.516,-14.159 l 0,0 C 162.128,105.562 165.993,104 169.72,104 l 0,0 c 3.63,0 7.08,1.426 10.255,4.238 l 0,0 c 8.751,7.751 33.002,16.61 40.225,19.14 l 0,0 c 2.988,1.047 5.6,2.891 7.553,5.332 l 0,0 c 5.016,6.269 5.609,13.126 1.67,19.308 l 0,0 C 226.096,157.24 220.524,160 213.312,160 l 0,0 c -3.654,0 -6.814,-0.714 -8.372,-1.141 M 160.375,110.85 c -3.456,2.848 -5.698,7.11 -5.431,11.645 l 0,0 c 0.277,4.695 3.032,10.703 12.945,15.958 l 0,0 c 17.608,9.335 33.114,15.712 36.36,17.02 l 0,0 c 0.477,0.192 0.95,0.357 1.444,0.492 l 0,0 c 1.362,0.373 4.27,1.04 7.618,1.04 l 0,0 c 4.706,0 10.283,-1.318 13.664,-6.624 l 0,0 c 4.143,-6.503 1.303,-12.291 -1.483,-15.773 l 0,0 c -1.631,-2.04 -3.801,-3.543 -6.238,-4.396 l 0,0 c -8.192,-2.87 -32.132,-11.685 -41.191,-19.709 l 0,0 c -2.894,-2.563 -5.732,-3.508 -8.343,-3.508 l 0,0 c -3.753,0 -7.036,1.953 -9.345,3.855" /></clipPath><linearGradient
       id="linearGradient264"
       spreadMethod="pad"
       gradientTransform="matrix(-36.091465,36.091465,36.091465,36.091465,209.83083,114.64451)"
       gradientUnits="userSpaceOnUse"
       y2="0"
       x2="1"
       y1="0"
       x1="0"><stop
         id="stop266"
         offset="0"
         style="stop-opacity:1;stop-color:#e6e7e8" /><stop
         id="stop268"
         offset="1"
         style="stop-opacity:1;stop-color:#d1d3d4" /></linearGradient><clipPath
       id="clipPath276"
       clipPathUnits="userSpaceOnUse"><path
         id="path278"
         d="M 0,256 256,256 256,0 0,0 0,256 Z" /></clipPath></defs><g
     transform="matrix(1.25,0,0,-1.25,0,320)"
     id="g10"><g
       id="g12"><g
         clip-path="url(#clipPath16)"
         id="g14"><g
           id="g20"><g
             id="g22"><path
               id="path30"
               style="fill:url(#linearGradient24);stroke:none"
               d="m 12.057,130.979 -0.005,0 c -10e-4,-0.036 0.002,-0.072 0.001,-0.108 l 0,0 c 0,-0.003 -0.001,-0.006 -0.001,-0.009 l 0,0 c 0,-0.002 0.001,-0.004 0.001,-0.005 l 0,0 C 10.756,98.901 33.66,69.854 53.651,64.949 l 0,0 c 27.1,-6.651 21.94,23.611 40.668,30.63 l 0,0 c 18.727,7.02 48.692,7.02 67.419,0 l 0,0 c 18.728,-7.019 7.981,-36.623 35.633,-30.63 l 0,0 c 20.462,4.434 46.971,33.346 46.608,65.702 l 0,0 c 10e-4,0.071 0.021,0.14 0.021,0.211 l 0,0 C 244,166.837 192.076,196 128.026,196 l 0,0 C 64.046,196 12.171,166.9 12.057,130.979" /></g></g></g></g><g
       id="g32"><g
         clip-path="url(#clipPath36)"
         id="g34"><g
           id="g40"><g
             id="g42"><path
               id="path50"
               style="fill:url(#linearGradient44);stroke:none"
               d="m 28,136 c 0,-19.85 16.15,-36 36,-36 l 0,0 c 19.85,0 36,16.15 36,36 l 0,0 c 0,19.85 -16.15,36 -36,36 l 0,0 C 44.15,172 28,155.85 28,136" /></g></g></g></g><g
       id="g52"><g
         clip-path="url(#clipPath56)"
         id="g54"><g
           id="g60"><g
             id="g62"><path
               id="path70"
               style="fill:url(#linearGradient64);stroke:none"
               d="m 36,136 c 0,-15.44 12.56,-28 28,-28 l 0,0 c 15.439,0 28,12.56 28,28 l 0,0 c 0,15.439 -12.561,28 -28,28 l 0,0 C 48.56,164 36,151.439 36,136" /></g></g></g></g><g
       id="g72"><g
         clip-path="url(#clipPath76)"
         id="g74"><g
           transform="translate(88,136)"
           id="g80"><path
             id="path82"
             style="fill:#999999;fill-opacity:1;fill-rule:nonzero;stroke:none"
             d="m 0,0 c 0,-13.255 -10.745,-24 -24,-24 -13.255,0 -24,10.745 -24,24 0,13.255 10.745,24 24,24 C -10.745,24 0,13.255 0,0" /></g></g></g><g
       id="g84"><g
         clip-path="url(#clipPath88)"
         id="g86"><g
           id="g92"><g
             id="g94"><path
               id="path102"
               style="fill:url(#linearGradient96);stroke:none"
               d="m 58.014,156 0,-14.014 -14.014,0 0,-11.972 14.014,0 0,-14.014 11.972,0 0,14.014 14.014,0 0,11.972 -14.014,0 0,14.014 -11.972,0 z" /></g></g></g></g><g
       id="g104"><g
         clip-path="url(#clipPath108)"
         id="g106"><g
           id="g112"><g
             id="g114"><path
               id="path122"
               style="fill:url(#linearGradient116);stroke:none"
               d="M 49.672,148 52,150.329 48,152 l 1.672,-4 z" /></g></g></g></g><g
       id="g124"><g
         clip-path="url(#clipPath128)"
         id="g126"><g
           id="g132"><g
             id="g134"><path
               id="path142"
               style="fill:url(#linearGradient136);stroke:none"
               d="M 76,150.329 78.329,148 80,152 76,150.329 Z" /></g></g></g></g><g
       id="g144"><g
         clip-path="url(#clipPath148)"
         id="g146"><g
           id="g152"><g
             id="g154"><path
               id="path162"
               style="fill:url(#linearGradient156);stroke:none"
               d="M 76,121.672 80,120 78.329,124 76,121.672 Z" /></g></g></g></g><g
       id="g164"><g
         clip-path="url(#clipPath168)"
         id="g166"><g
           id="g172"><g
             id="g174"><path
               id="path182"
               style="fill:url(#linearGradient176);stroke:none"
               d="m 48,120 4,1.672 L 49.672,124 48,120 Z" /></g></g></g></g><g
       id="g184"><g
         clip-path="url(#clipPath188)"
         id="g186"><g
           transform="translate(68,136)"
           id="g192"><path
             id="path194"
             style="fill:#999999;fill-opacity:1;fill-rule:nonzero;stroke:none"
             d="m 0,0 c 0,-2.209 -1.791,-4 -4,-4 -2.209,0 -4,1.791 -4,4 0,2.209 1.791,4 4,4 2.209,0 4,-1.791 4,-4" /></g><g
           transform="translate(64,171)"
           id="g196"><path
             id="path198"
             style="fill:#ffffff;fill-opacity:1;fill-rule:nonzero;stroke:none"
             d="m 0,0 2,-6 -4,0 2,6 z" /></g><g
           transform="translate(64,101)"
           id="g200"><path
             id="path202"
             style="fill:#ffffff;fill-opacity:1;fill-rule:nonzero;stroke:none"
             d="M 0,0 -2,6 2,6 0,0 Z" /></g><g
           transform="translate(99,136)"
           id="g204"><path
             id="path206"
             style="fill:#ffffff;fill-opacity:1;fill-rule:nonzero;stroke:none"
             d="M 0,0 -6,-2 -6,2 0,0 Z" /></g><g
           transform="translate(29,136)"
           id="g208"><path
             id="path210"
             style="fill:#ffffff;fill-opacity:1;fill-rule:nonzero;stroke:none"
             d="M 0,0 6,2 6,-2 0,0 Z" /></g><g
           transform="translate(42.1769,158.8231)"
           id="g212"><path
             id="path214"
             style="fill:#ffffff;fill-opacity:1;fill-rule:nonzero;stroke:none"
             d="m 0,0 c 0,-0.552 -0.448,-1 -1,-1 -0.552,0 -1,0.448 -1,1 0,0.552 0.448,1 1,1 0.552,0 1,-0.448 1,-1" /></g><g
           transform="translate(88,159)"
           id="g216"><path
             id="path218"
             style="fill:#ffffff;fill-opacity:1;fill-rule:nonzero;stroke:none"
             d="m 0,0 c 0,-0.552 -0.448,-1 -1,-1 -0.552,0 -1,0.448 -1,1 0,0.552 0.448,1 1,1 0.552,0 1,-0.448 1,-1" /></g><g
           transform="translate(42,113)"
           id="g220"><path
             id="path222"
             style="fill:#ffffff;fill-opacity:1;fill-rule:nonzero;stroke:none"
             d="m 0,0 c 0,-0.552 -0.448,-1 -1,-1 -0.552,0 -1,0.448 -1,1 0,0.552 0.448,1 1,1 0.552,0 1,-0.448 1,-1" /></g><g
           transform="translate(88,113)"
           id="g224"><path
             id="path226"
             style="fill:#ffffff;fill-opacity:1;fill-rule:nonzero;stroke:none"
             d="m 0,0 c 0,-0.552 -0.448,-1 -1,-1 -0.552,0 -1,0.448 -1,1 0,0.552 0.448,1 1,1 0.552,0 1,-0.448 1,-1" /></g><g
           transform="translate(186.1019,166.0084)"
           id="g228"><path
             id="path230"
             style="fill:#ffffff;fill-opacity:1;fill-rule:nonzero;stroke:none"
             d="m 0,0 -13.912,-5.779 c -1.557,-0.646 -3.332,0.119 -3.965,1.71 -0.633,1.591 0.116,3.405 1.673,4.052 L -2.292,5.762 C -0.735,6.409 1.04,5.643 1.673,4.052 2.306,2.461 1.557,0.647 0,0" /></g></g></g><g
       id="g232"><g
         clip-path="url(#clipPath236)"
         id="g234"><g
           id="g240"><g
             id="g242"><path
               id="path250"
               style="fill:url(#linearGradient244);stroke:none"
               d="m 205.694,155.965 c -0.495,-0.135 -0.968,-0.3 -1.445,-0.492 l 0,0 c -3.246,-1.308 -18.752,-7.684 -36.36,-17.02 l 0,0 c -9.913,-5.255 -12.668,-11.263 -12.945,-15.958 l 0,0 c -0.267,-4.535 1.975,-8.797 5.431,-11.645 l 0,0 c 3.915,-3.225 10.632,-6.596 17.688,-0.347 l 0,0 c 9.059,8.024 32.999,16.839 41.191,19.709 l 0,0 c 2.437,0.853 4.607,2.356 6.238,4.396 l 0,0 c 2.786,3.482 5.626,9.27 1.483,15.773 l 0,0 c -3.381,5.306 -8.958,6.624 -13.664,6.624 l 0,0 c -3.348,0 -6.256,-0.667 -7.617,-1.04" /></g></g></g></g><g
       id="g252"><g
         clip-path="url(#clipPath256)"
         id="g254"><g
           id="g260"><g
             id="g262"><path
               id="path270"
               style="fill:url(#linearGradient264);stroke:none"
               d="m 204.94,158.859 c -0.573,-0.156 -1.148,-0.352 -1.761,-0.599 l 0,0 c -2.991,-1.206 -18.81,-7.698 -36.634,-17.146 l 0,0 c -6.325,-3.354 -13.978,-9.275 -14.519,-18.438 l 0,0 c -0.309,-5.248 2.127,-10.541 6.516,-14.159 l 0,0 C 162.128,105.562 165.993,104 169.72,104 l 0,0 c 3.63,0 7.08,1.426 10.255,4.238 l 0,0 c 8.751,7.751 33.002,16.61 40.225,19.14 l 0,0 c 2.988,1.047 5.6,2.891 7.553,5.332 l 0,0 c 5.016,6.269 5.609,13.126 1.67,19.308 l 0,0 C 226.096,157.24 220.524,160 213.312,160 l 0,0 c -3.654,0 -6.814,-0.714 -8.372,-1.141 M 160.375,110.85 c -3.456,2.848 -5.698,7.11 -5.431,11.645 l 0,0 c 0.277,4.695 3.032,10.703 12.945,15.958 l 0,0 c 17.608,9.335 33.114,15.712 36.36,17.02 l 0,0 c 0.477,0.192 0.95,0.357 1.444,0.492 l 0,0 c 1.362,0.373 4.27,1.04 7.618,1.04 l 0,0 c 4.706,0 10.283,-1.318 13.664,-6.624 l 0,0 c 4.143,-6.503 1.303,-12.291 -1.483,-15.773 l 0,0 c -1.631,-2.04 -3.801,-3.543 -6.238,-4.396 l 0,0 c -8.192,-2.87 -32.132,-11.685 -41.191,-19.709 l 0,0 c -2.894,-2.563 -5.732,-3.508 -8.343,-3.508 l 0,0 c -3.753,0 -7.036,1.953 -9.345,3.855" /></g></g></g></g><g
       id="g272"><g
         clip-path="url(#clipPath276)"
         id="g274"><g
           transform="translate(178,122)"
           id="g280"><path
             id="path282"
             style="fill:#999999;fill-opacity:1;fill-rule:nonzero;stroke:none"
             d="m 0,0 c 0,-5.523 -4.477,-10 -10,-10 -5.523,0 -10,4.477 -10,10 0,5.523 4.477,10 10,10 C -4.477,10 0,5.523 0,0" /></g><g
           transform="translate(202,134)"
           id="g284"><path
             id="path286"
             style="fill:#999999;fill-opacity:1;fill-rule:nonzero;stroke:none"
             d="m 0,0 c 0,-5.523 -4.477,-10 -10,-10 -5.523,0 -10,4.477 -10,10 0,5.523 4.477,10 10,10 C -4.477,10 0,5.523 0,0" /></g><g
           transform="translate(226,144)"
           id="g288"><path
             id="path290"
             style="fill:#999999;fill-opacity:1;fill-rule:nonzero;stroke:none"
             d="m 0,0 c 0,-5.523 -4.477,-10 -10,-10 -5.523,0 -10,4.477 -10,10 0,5.523 4.477,10 10,10 C -4.477,10 0,5.523 0,0" /></g></g></g></g></svg>