<?xml version="1.0" encoding="UTF-8" standalone="no"?>
<svg
   xmlns:dc="http://purl.org/dc/elements/1.1/"
   xmlns:cc="http://creativecommons.org/ns#"
   xmlns:rdf="http://www.w3.org/1999/02/22-rdf-syntax-ns#"
   xmlns:svg="http://www.w3.org/2000/svg"
   xmlns="http://www.w3.org/2000/svg"
   viewBox="0 0 320 320"
   height="320"
   width="320"
   xml:space="preserve"
   version="1.1"
   id="svg2"><metadata
     id="metadata8"><rdf:RDF><cc:Work
         rdf:about=""><dc:format>image/svg+xml</dc:format><dc:type
           rdf:resource="http://purl.org/dc/dcmitype/StillImage" /></cc:Work></rdf:RDF></metadata><defs
     id="defs6"><clipPath
       id="clipPath16"
       clipPathUnits="userSpaceOnUse"><path
         id="path18"
         d="m 28,176 c -8.836,0 -16,-7.164 -16,-16 l 0,0 0,-64 c 0,-8.836 7.164,-16 16,-16 l 0,0 200,0 c 8.836,0 16,7.164 16,16 l 0,0 0,64 c 0,8.836 -7.164,16 -16,16 l 0,0 -200,0 z" /></clipPath><linearGradient
       id="linearGradient24"
       spreadMethod="pad"
       gradientTransform="matrix(154.627,-154.627,-154.627,-154.627,50.6865,205.31351)"
       gradientUnits="userSpaceOnUse"
       y2="0"
       x2="1"
       y1="0"
       x1="0"><stop
         id="stop26"
         offset="0"
         style="stop-opacity:1;stop-color:#e6e7e8" /><stop
         id="stop28"
         offset="1"
         style="stop-opacity:1;stop-color:#d1d3d4" /></linearGradient><clipPath
       id="clipPath36"
       clipPathUnits="userSpaceOnUse"><path
         id="path38"
         d="M 0,256 256,256 256,0 0,0 0,256 Z" /></clipPath><clipPath
       id="clipPath52"
       clipPathUnits="userSpaceOnUse"><path
         id="path54"
         d="m 156,124 0,-12 c 0,-6.628 5.372,-12 12,-12 l 0,0 c 6.628,0 12,5.372 12,12 l 0,0 0,12 c 0,6.628 -5.372,12 -12,12 l 0,0 c -6.628,0 -12,-5.372 -12,-12 m 2,-11.717 0,11.434 c 0,5.67 4.486,10.283 10,10.283 l 0,0 c 5.514,0 10,-4.613 10,-10.283 l 0,0 0,-11.434 C 178,106.613 173.514,102 168,102 l 0,0 c -5.514,0 -10,4.613 -10,10.283" /></clipPath><linearGradient
       id="linearGradient60"
       spreadMethod="pad"
       gradientTransform="matrix(-22.971012,22.971012,22.971012,22.971012,179.48549,106.5145)"
       gradientUnits="userSpaceOnUse"
       y2="0"
       x2="1"
       y1="0"
       x1="0"><stop
         id="stop62"
         offset="0"
         style="stop-opacity:1;stop-color:#e6e7e8" /><stop
         id="stop64"
         offset="1"
         style="stop-opacity:1;stop-color:#d1d3d4" /></linearGradient><clipPath
       id="clipPath72"
       clipPathUnits="userSpaceOnUse"><path
         id="path74"
         d="M 0,256 256,256 256,0 0,0 0,256 Z" /></clipPath><clipPath
       id="clipPath84"
       clipPathUnits="userSpaceOnUse"><path
         id="path86"
         d="m 196,124 0,-12 c 0,-6.628 5.372,-12 12,-12 l 0,0 c 6.628,0 12,5.372 12,12 l 0,0 0,12 c 0,6.628 -5.372,12 -12,12 l 0,0 c -6.628,0 -12,-5.372 -12,-12 m 2,-11.717 0,11.434 c 0,5.67 4.486,10.283 10,10.283 l 0,0 c 5.514,0 10,-4.613 10,-10.283 l 0,0 0,-11.434 C 218,106.613 213.514,102 208,102 l 0,0 c -5.514,0 -10,4.613 -10,10.283" /></clipPath><linearGradient
       id="linearGradient92"
       spreadMethod="pad"
       gradientTransform="matrix(-22.971025,22.971025,22.971025,22.971025,219.48552,106.5145)"
       gradientUnits="userSpaceOnUse"
       y2="0"
       x2="1"
       y1="0"
       x1="0"><stop
         id="stop94"
         offset="0"
         style="stop-opacity:1;stop-color:#e6e7e8" /><stop
         id="stop96"
         offset="1"
         style="stop-opacity:1;stop-color:#d1d3d4" /></linearGradient><clipPath
       id="clipPath104"
       clipPathUnits="userSpaceOnUse"><path
         id="path106"
         d="m 60,128 c 0,-4.416 3.584,-8 8,-8 l 0,0 c 4.416,0 8,3.584 8,8 l 0,0 c 0,4.416 -3.584,8 -8,8 l 0,0 c -4.416,0 -8,-3.584 -8,-8" /></clipPath><linearGradient
       id="linearGradient112"
       spreadMethod="pad"
       gradientTransform="matrix(11.312,-11.312,-11.312,-11.312,62.344002,133.65601)"
       gradientUnits="userSpaceOnUse"
       y2="0"
       x2="1"
       y1="0"
       x1="0"><stop
         id="stop114"
         offset="0"
         style="stop-opacity:1;stop-color:#e6e7e8" /><stop
         id="stop116"
         offset="1"
         style="stop-opacity:1;stop-color:#d1d3d4" /></linearGradient><clipPath
       id="clipPath124"
       clipPathUnits="userSpaceOnUse"><path
         id="path126"
         d="m 64,152 0,-8 c 0,-2.212 1.788,-4 4,-4 l 0,0 c 2.212,0 4,1.788 4,4 l 0,0 0,8 c 0,2.212 -1.788,4 -4,4 l 0,0 c -2.212,0 -4,-1.788 -4,-4" /></clipPath><linearGradient
       id="linearGradient132"
       spreadMethod="pad"
       gradientTransform="matrix(9.6589985,-9.6589985,-9.6589985,-9.6589985,63.170502,152.8295)"
       gradientUnits="userSpaceOnUse"
       y2="0"
       x2="1"
       y1="0"
       x1="0"><stop
         id="stop134"
         offset="0"
         style="stop-opacity:1;stop-color:#e6e7e8" /><stop
         id="stop136"
         offset="1"
         style="stop-opacity:1;stop-color:#d1d3d4" /></linearGradient><clipPath
       id="clipPath144"
       clipPathUnits="userSpaceOnUse"><path
         id="path146"
         d="m 64,112 0,-8 c 0,-2.212 1.788,-4 4,-4 l 0,0 c 2.212,0 4,1.788 4,4 l 0,0 0,8 c 0,2.212 -1.788,4 -4,4 l 0,0 c -2.212,0 -4,-1.788 -4,-4" /></clipPath><linearGradient
       id="linearGradient152"
       spreadMethod="pad"
       gradientTransform="matrix(9.6590014,-9.6590014,-9.6590014,-9.6590014,63.170498,112.8295)"
       gradientUnits="userSpaceOnUse"
       y2="0"
       x2="1"
       y1="0"
       x1="0"><stop
         id="stop154"
         offset="0"
         style="stop-opacity:1;stop-color:#e6e7e8" /><stop
         id="stop156"
         offset="1"
         style="stop-opacity:1;stop-color:#d1d3d4" /></linearGradient><clipPath
       id="clipPath164"
       clipPathUnits="userSpaceOnUse"><path
         id="path166"
         d="m 44,132 c -2.212,0 -4,-1.788 -4,-4 l 0,0 c 0,-2.212 1.788,-4 4,-4 l 0,0 8,0 c 2.212,0 4,1.788 4,4 l 0,0 c 0,2.212 -1.788,4 -4,4 l 0,0 -8,0 z" /></clipPath><linearGradient
       id="linearGradient172"
       spreadMethod="pad"
       gradientTransform="matrix(9.6590014,-9.6590014,-9.6590014,-9.6590014,43.170498,132.8295)"
       gradientUnits="userSpaceOnUse"
       y2="0"
       x2="1"
       y1="0"
       x1="0"><stop
         id="stop174"
         offset="0"
         style="stop-opacity:1;stop-color:#e6e7e8" /><stop
         id="stop176"
         offset="1"
         style="stop-opacity:1;stop-color:#d1d3d4" /></linearGradient><clipPath
       id="clipPath184"
       clipPathUnits="userSpaceOnUse"><path
         id="path186"
         d="m 84,132 c -2.212,0 -4,-1.788 -4,-4 l 0,0 c 0,-2.212 1.788,-4 4,-4 l 0,0 8,0 c 2.212,0 4,1.788 4,4 l 0,0 c 0,2.212 -1.788,4 -4,4 l 0,0 -8,0 z" /></clipPath><linearGradient
       id="linearGradient192"
       spreadMethod="pad"
       gradientTransform="matrix(9.6589994,-9.6589994,-9.6589994,-9.6589994,83.170502,132.8295)"
       gradientUnits="userSpaceOnUse"
       y2="0"
       x2="1"
       y1="0"
       x1="0"><stop
         id="stop194"
         offset="0"
         style="stop-opacity:1;stop-color:#e6e7e8" /><stop
         id="stop196"
         offset="1"
         style="stop-opacity:1;stop-color:#d1d3d4" /></linearGradient><clipPath
       id="clipPath204"
       clipPathUnits="userSpaceOnUse"><path
         id="path206"
         d="m 156,148 64,0 0,4.127 -64,0 0,-4.127 z" /></clipPath><linearGradient
       id="linearGradient212"
       spreadMethod="pad"
       gradientTransform="matrix(-34.063526,34.063526,34.063526,34.063526,205.03119,133.03177)"
       gradientUnits="userSpaceOnUse"
       y2="0"
       x2="1"
       y1="0"
       x1="0"><stop
         id="stop214"
         offset="0"
         style="stop-opacity:1;stop-color:#e6e7e8" /><stop
         id="stop216"
         offset="1"
         style="stop-opacity:1;stop-color:#d1d3d4" /></linearGradient><clipPath
       id="clipPath224"
       clipPathUnits="userSpaceOnUse"><path
         id="path226"
         d="M 0,256 256,256 256,0 0,0 0,256 Z" /></clipPath></defs><g
     transform="matrix(1.25,0,0,-1.25,0,320)"
     id="g10"><g
       id="g12"><g
         clip-path="url(#clipPath16)"
         id="g14"><g
           id="g20"><g
             id="g22"><path
               id="path30"
               style="fill:url(#linearGradient24);stroke:none"
               d="m 28,176 c -8.836,0 -16,-7.164 -16,-16 l 0,0 0,-64 c 0,-8.836 7.164,-16 16,-16 l 0,0 200,0 c 8.836,0 16,7.164 16,16 l 0,0 0,64 c 0,8.836 -7.164,16 -16,16 l 0,0 -200,0 z" /></g></g></g></g><g
       id="g32"><g
         clip-path="url(#clipPath36)"
         id="g34"><g
           transform="translate(68,96)"
           id="g40"><path
             id="path42"
             style="fill:#999999;fill-opacity:1;fill-rule:nonzero;stroke:none"
             d="M 0,0 C -17.672,0 -32,14.328 -32,32 -32,49.672 -17.672,64 0,64 17.672,64 32,49.672 32,32 32,14.328 17.672,0 0,0" /></g><g
           transform="translate(180,112)"
           id="g44"><path
             id="path46"
             style="fill:#999999;fill-opacity:1;fill-rule:nonzero;stroke:none"
             d="m 0,0 c 0,-6.628 -5.372,-12 -12,-12 -6.628,0 -12,5.372 -12,12 l 0,12 c 0,6.628 5.372,12 12,12 6.628,0 12,-5.372 12,-12 L 0,0 Z" /></g></g></g><g
       id="g48"><g
         clip-path="url(#clipPath52)"
         id="g50"><g
           id="g56"><g
             id="g58"><path
               id="path66"
               style="fill:url(#linearGradient60);stroke:none"
               d="m 156,124 0,-12 c 0,-6.628 5.372,-12 12,-12 l 0,0 c 6.628,0 12,5.372 12,12 l 0,0 0,12 c 0,6.628 -5.372,12 -12,12 l 0,0 c -6.628,0 -12,-5.372 -12,-12 m 2,-11.717 0,11.434 c 0,5.67 4.486,10.283 10,10.283 l 0,0 c 5.514,0 10,-4.613 10,-10.283 l 0,0 0,-11.434 C 178,106.613 173.514,102 168,102 l 0,0 c -5.514,0 -10,4.613 -10,10.283" /></g></g></g></g><g
       id="g68"><g
         clip-path="url(#clipPath72)"
         id="g70"><g
           transform="translate(220,112)"
           id="g76"><path
             id="path78"
             style="fill:#999999;fill-opacity:1;fill-rule:nonzero;stroke:none"
             d="m 0,0 c 0,-6.628 -5.372,-12 -12,-12 -6.628,0 -12,5.372 -12,12 l 0,12 c 0,6.628 5.372,12 12,12 6.628,0 12,-5.372 12,-12 L 0,0 Z" /></g></g></g><g
       id="g80"><g
         clip-path="url(#clipPath84)"
         id="g82"><g
           id="g88"><g
             id="g90"><path
               id="path98"
               style="fill:url(#linearGradient92);stroke:none"
               d="m 196,124 0,-12 c 0,-6.628 5.372,-12 12,-12 l 0,0 c 6.628,0 12,5.372 12,12 l 0,0 0,12 c 0,6.628 -5.372,12 -12,12 l 0,0 c -6.628,0 -12,-5.372 -12,-12 m 2,-11.717 0,11.434 c 0,5.67 4.486,10.283 10,10.283 l 0,0 c 5.514,0 10,-4.613 10,-10.283 l 0,0 0,-11.434 C 218,106.613 213.514,102 208,102 l 0,0 c -5.514,0 -10,4.613 -10,10.283" /></g></g></g></g><g
       id="g100"><g
         clip-path="url(#clipPath104)"
         id="g102"><g
           id="g108"><g
             id="g110"><path
               id="path118"
               style="fill:url(#linearGradient112);stroke:none"
               d="m 60,128 c 0,-4.416 3.584,-8 8,-8 l 0,0 c 4.416,0 8,3.584 8,8 l 0,0 c 0,4.416 -3.584,8 -8,8 l 0,0 c -4.416,0 -8,-3.584 -8,-8" /></g></g></g></g><g
       id="g120"><g
         clip-path="url(#clipPath124)"
         id="g122"><g
           id="g128"><g
             id="g130"><path
               id="path138"
               style="fill:url(#linearGradient132);stroke:none"
               d="m 64,152 0,-8 c 0,-2.212 1.788,-4 4,-4 l 0,0 c 2.212,0 4,1.788 4,4 l 0,0 0,8 c 0,2.212 -1.788,4 -4,4 l 0,0 c -2.212,0 -4,-1.788 -4,-4" /></g></g></g></g><g
       id="g140"><g
         clip-path="url(#clipPath144)"
         id="g142"><g
           id="g148"><g
             id="g150"><path
               id="path158"
               style="fill:url(#linearGradient152);stroke:none"
               d="m 64,112 0,-8 c 0,-2.212 1.788,-4 4,-4 l 0,0 c 2.212,0 4,1.788 4,4 l 0,0 0,8 c 0,2.212 -1.788,4 -4,4 l 0,0 c -2.212,0 -4,-1.788 -4,-4" /></g></g></g></g><g
       id="g160"><g
         clip-path="url(#clipPath164)"
         id="g162"><g
           id="g168"><g
             id="g170"><path
               id="path178"
               style="fill:url(#linearGradient172);stroke:none"
               d="m 44,132 c -2.212,0 -4,-1.788 -4,-4 l 0,0 c 0,-2.212 1.788,-4 4,-4 l 0,0 8,0 c 2.212,0 4,1.788 4,4 l 0,0 c 0,2.212 -1.788,4 -4,4 l 0,0 -8,0 z" /></g></g></g></g><g
       id="g180"><g
         clip-path="url(#clipPath184)"
         id="g182"><g
           id="g188"><g
             id="g190"><path
               id="path198"
               style="fill:url(#linearGradient192);stroke:none"
               d="m 84,132 c -2.212,0 -4,-1.788 -4,-4 l 0,0 c 0,-2.212 1.788,-4 4,-4 l 0,0 8,0 c 2.212,0 4,1.788 4,4 l 0,0 c 0,2.212 -1.788,4 -4,4 l 0,0 -8,0 z" /></g></g></g></g><g
       id="g200"><g
         clip-path="url(#clipPath204)"
         id="g202"><g
           id="g208"><g
             id="g210"><path
               id="path218"
               style="fill:url(#linearGradient212);stroke:none"
               d="m 156,148 64,0 0,4.127 -64,0 0,-4.127 z" /></g></g></g></g><g
       id="g220"><g
         clip-path="url(#clipPath224)"
         id="g222"><path
           id="path228"
           style="fill:#999999;fill-opacity:1;fill-rule:nonzero;stroke:none"
           d="m 219.999,152 -64,0 0,16 64,0 0,-16 z" /></g></g></g></svg>