<?xml version="1.0" encoding="UTF-8" standalone="no"?>
<svg
   xmlns:dc="http://purl.org/dc/elements/1.1/"
   xmlns:cc="http://creativecommons.org/ns#"
   xmlns:rdf="http://www.w3.org/1999/02/22-rdf-syntax-ns#"
   xmlns:svg="http://www.w3.org/2000/svg"
   xmlns="http://www.w3.org/2000/svg"
   viewBox="0 0 320 320"
   height="320"
   width="320"
   xml:space="preserve"
   version="1.1"
   id="svg2"><metadata
     id="metadata8"><rdf:RDF><cc:Work
         rdf:about=""><dc:format>image/svg+xml</dc:format><dc:type
           rdf:resource="http://purl.org/dc/dcmitype/StillImage" /></cc:Work></rdf:RDF></metadata><defs
     id="defs6"><clipPath
       id="clipPath16"
       clipPathUnits="userSpaceOnUse"><path
         id="path18"
         d="M 16.834,204 C 14.175,204 12,201.832 12,199.182 l 0,0 0,-135.955 c 0,0 0.906,-7.225 44.545,-7.227 l 0,0 142.91,0 C 243.094,56.002 244,63.227 244,63.227 l 0,0 0,135.955 c 0,2.65 -2.175,4.818 -4.833,4.818 l 0,0 -222.333,0 z" /></clipPath><linearGradient
       id="linearGradient24"
       spreadMethod="pad"
       gradientTransform="matrix(185.12842,-185.12842,-185.12842,-185.12842,35.435791,224.60075)"
       gradientUnits="userSpaceOnUse"
       y2="0"
       x2="1"
       y1="0"
       x1="0"><stop
         id="stop26"
         offset="0"
         style="stop-opacity:1;stop-color:#e6e7e8" /><stop
         id="stop28"
         offset="1"
         style="stop-opacity:1;stop-color:#d1d3d4" /></linearGradient><clipPath
       id="clipPath36"
       clipPathUnits="userSpaceOnUse"><path
         id="path38"
         d="m 46.236,204 0,-125.779 c 0,-2.67 2.164,-4.834 4.834,-4.834 l 0,0 155.874,0 c 2.67,0 4.834,2.164 4.834,4.834 l 0,0 0,125.779 -165.542,0 z" /></clipPath><linearGradient
       id="linearGradient44"
       spreadMethod="pad"
       gradientTransform="matrix(-146.66154,146.66154,146.66154,146.66154,202.33772,66.778503)"
       gradientUnits="userSpaceOnUse"
       y2="0"
       x2="1"
       y1="0"
       x1="0"><stop
         id="stop46"
         offset="0"
         style="stop-opacity:1;stop-color:#e6e7e8" /><stop
         id="stop48"
         offset="1"
         style="stop-opacity:1;stop-color:#d1d3d4" /></linearGradient><clipPath
       id="clipPath56"
       clipPathUnits="userSpaceOnUse"><path
         id="path58"
         d="M 0,256 256,256 256,0 0,0 0,256 Z" /></clipPath></defs><g
     transform="matrix(1.25,0,0,-1.25,0,320)"
     id="g10"><g
       id="g12"><g
         clip-path="url(#clipPath16)"
         id="g14"><g
           id="g20"><g
             id="g22"><path
               id="path30"
               style="fill:url(#linearGradient24);stroke:none"
               d="M 16.834,204 C 14.175,204 12,201.832 12,199.182 l 0,0 0,-135.955 c 0,0 0.906,-7.225 44.545,-7.227 l 0,0 142.91,0 C 243.094,56.002 244,63.227 244,63.227 l 0,0 0,135.955 c 0,2.65 -2.175,4.818 -4.833,4.818 l 0,0 -222.333,0 z" /></g></g></g></g><g
       id="g32"><g
         clip-path="url(#clipPath36)"
         id="g34"><g
           id="g40"><g
             id="g42"><path
               id="path50"
               style="fill:url(#linearGradient44);stroke:none"
               d="m 46.236,204 0,-125.779 c 0,-2.67 2.164,-4.834 4.834,-4.834 l 0,0 155.874,0 c 2.67,0 4.834,2.164 4.834,4.834 l 0,0 0,125.779 -165.542,0 z" /></g></g></g></g><g
       id="g52"><g
         clip-path="url(#clipPath56)"
         id="g54"><g
           transform="translate(208,204)"
           id="g60"><path
             id="path62"
             style="fill:#ffffff;fill-opacity:1;fill-rule:nonzero;stroke:none"
             d="M 0,0 0,-125.541 C 0,-126.897 -1.079,-128 -2.406,-128 l -155.188,0 c -1.327,0 -2.406,1.103 -2.406,2.459 L -160,0 0,0" /></g><g
           transform="translate(149.5266,96.919)"
           id="g64"><path
             id="path66"
             style="fill:#999999;fill-opacity:1;fill-rule:nonzero;stroke:none"
             d="m 0,0 -6.684,11.081 -29.685,0 L -43.053,0 l -58.474,0 0,-20.001 c 0,-0.507 0.43,-0.918 0.959,-0.918 l 158.083,0 c 0.529,0 0.958,0.411 0.958,0.918 L 58.473,0 0,0 Z" /></g></g></g></g></svg>