<?xml version="1.0" encoding="UTF-8" standalone="no"?>
<svg
   xmlns:dc="http://purl.org/dc/elements/1.1/"
   xmlns:cc="http://creativecommons.org/ns#"
   xmlns:rdf="http://www.w3.org/1999/02/22-rdf-syntax-ns#"
   xmlns:svg="http://www.w3.org/2000/svg"
   xmlns="http://www.w3.org/2000/svg"
   viewBox="0 0 320 320"
   height="320"
   width="320"
   xml:space="preserve"
   version="1.1"
   id="svg2"><metadata
     id="metadata8"><rdf:RDF><cc:Work
         rdf:about=""><dc:format>image/svg+xml</dc:format><dc:type
           rdf:resource="http://purl.org/dc/dcmitype/StillImage" /></cc:Work></rdf:RDF></metadata><defs
     id="defs6"><clipPath
       id="clipPath16"
       clipPathUnits="userSpaceOnUse"><path
         id="path18"
         d="m 92,232 c 0,0 -14,0 -27.999,-2.5 l 0,0 C 50,227 36,222 36,212 l 0,0 0,-4 0,-92 0,-12 c 0,-2.209 1.791,-4 4,-4 l 0,0 4,0 0,12 168,0 0,-12 4,0 c 2.21,0 4,1.791 4,4 l 0,0 0,12 0,96 c 0,20 -56,20 -56,20 l 0,0 -72,0 z" /></clipPath><linearGradient
       id="linearGradient24"
       spreadMethod="pad"
       gradientTransform="matrix(148.98637,-148.98637,-148.98637,-148.98637,53.506817,233.82271)"
       gradientUnits="userSpaceOnUse"
       y2="0"
       x2="1"
       y1="0"
       x1="0"><stop
         id="stop26"
         offset="0"
         style="stop-opacity:1;stop-color:#e6e7e8" /><stop
         id="stop28"
         offset="1"
         style="stop-opacity:1;stop-color:#d1d3d4" /></linearGradient><clipPath
       id="clipPath36"
       clipPathUnits="userSpaceOnUse"><path
         id="path38"
         d="m 140,232 -8,0 -8,0 -8,0 -32,0 -19.999,-2.5 C 64.001,229.5 76,228 80,224 l 0,0 36,0 8,0 8,0 8,0 36,0 c 4,4 16,5.5 16,5.5 l 0,0 -20,2.5 -32,0 z" /></clipPath><linearGradient
       id="linearGradient44"
       spreadMethod="pad"
       gradientTransform="matrix(-63.999355,63.999355,63.999355,63.999355,159.99971,197.50044)"
       gradientUnits="userSpaceOnUse"
       y2="0"
       x2="1"
       y1="0"
       x1="0"><stop
         id="stop46"
         offset="0"
         style="stop-opacity:1;stop-color:#e6e7e8" /><stop
         id="stop48"
         offset="1"
         style="stop-opacity:1;stop-color:#d1d3d4" /></linearGradient><clipPath
       id="clipPath56"
       clipPathUnits="userSpaceOnUse"><path
         id="path58"
         d="m 148,224 16,0 0,4 -16,0 0,-4 z" /></clipPath><linearGradient
       id="linearGradient64"
       spreadMethod="pad"
       gradientTransform="matrix(10,-10,-10,-10,151,231)"
       gradientUnits="userSpaceOnUse"
       y2="0"
       x2="1"
       y1="0"
       x1="0"><stop
         id="stop66"
         offset="0"
         style="stop-opacity:1;stop-color:#e6e7e8" /><stop
         id="stop68"
         offset="1"
         style="stop-opacity:1;stop-color:#d1d3d4" /></linearGradient><clipPath
       id="clipPath76"
       clipPathUnits="userSpaceOnUse"><path
         id="path78"
         d="m 44,152 0,-24 c 0,-2.209 1.791,-4 4,-4 l 0,0 84,0 0,28 -88,0 z" /></clipPath><linearGradient
       id="linearGradient84"
       spreadMethod="pad"
       gradientTransform="matrix(57.999996,-57.999996,-57.999996,-57.999996,59.585785,167.58578)"
       gradientUnits="userSpaceOnUse"
       y2="0"
       x2="1"
       y1="0"
       x1="0"><stop
         id="stop86"
         offset="0"
         style="stop-opacity:1;stop-color:#e6e7e8" /><stop
         id="stop88"
         offset="1"
         style="stop-opacity:1;stop-color:#d1d3d4" /></linearGradient><clipPath
       id="clipPath96"
       clipPathUnits="userSpaceOnUse"><path
         id="path98"
         d="M 0,256 256,256 256,0 0,0 0,256 Z" /></clipPath><clipPath
       id="clipPath108"
       clipPathUnits="userSpaceOnUse"><path
         id="path110"
         d="m 135.937,112 -15.873,0 -76.064,0 0,-12 -4,0 c 0,0 -2.38,0 -5.305,-1.836 l 0,0 c -1.633,-1.025 -2.832,-2.622 -3.386,-4.469 l 0,0 -14.423,-48.137 c 0,0 -11.905,-33.221 51.589,-20.763 l 0,0 51.589,0 15.873,0 51.589,0 c 63.494,-12.458 51.589,20.763 51.589,20.763 l 0,0 -14.425,48.137 c -0.553,1.847 -1.753,3.444 -3.385,4.469 l 0,0 C 218.38,100 216,100 216,100 l 0,0 -4,0 0,12 -76.063,0 z" /></clipPath><linearGradient
       id="linearGradient116"
       spreadMethod="pad"
       gradientTransform="matrix(137.43126,-137.43126,-137.43126,-137.43126,59.284367,127.28436)"
       gradientUnits="userSpaceOnUse"
       y2="0"
       x2="1"
       y1="0"
       x1="0"><stop
         id="stop118"
         offset="0"
         style="stop-opacity:1;stop-color:#e6e7e8" /><stop
         id="stop120"
         offset="1"
         style="stop-opacity:1;stop-color:#d1d3d4" /></linearGradient><clipPath
       id="clipPath128"
       clipPathUnits="userSpaceOnUse"><path
         id="path130"
         d="M 0,256 256,256 256,0 0,0 0,256 Z" /></clipPath><clipPath
       id="clipPath174"
       clipPathUnits="userSpaceOnUse"><path
         id="path176"
         d="m 210.901,91.847 c -2.115,-0.605 -3.352,-2.83 -2.747,-4.946 l 0,0 2.198,-7.692 c 0.603,-2.115 2.829,-3.352 4.944,-2.747 l 0,0 c 2.115,0.605 3.352,2.83 2.747,4.945 l 0,0 -2.198,7.692 c -0.5,1.752 -2.112,2.901 -3.853,2.901 l 0,0 c -0.361,0 -0.728,-0.049 -1.091,-0.153" /></clipPath><linearGradient
       id="linearGradient182"
       spreadMethod="pad"
       gradientTransform="matrix(-10.597743,10.597743,10.597743,10.597743,218.39725,78.855537)"
       gradientUnits="userSpaceOnUse"
       y2="0"
       x2="1"
       y1="0"
       x1="0"><stop
         id="stop184"
         offset="0"
         style="stop-opacity:1;stop-color:#e6e7e8" /><stop
         id="stop186"
         offset="1"
         style="stop-opacity:1;stop-color:#d1d3d4" /></linearGradient><clipPath
       id="clipPath194"
       clipPathUnits="userSpaceOnUse"><path
         id="path196"
         d="M 0,256 256,256 256,0 0,0 0,256 Z" /></clipPath><clipPath
       id="clipPath214"
       clipPathUnits="userSpaceOnUse"><path
         id="path216"
         d="m 50,216 c -1.105,0 -2,-0.896 -2,-2 l 0,0 0,-64 c 0,-1.105 0.895,-2 2,-2 l 0,0 2,0 0,68 -2,0 z" /></clipPath><linearGradient
       id="linearGradient222"
       spreadMethod="pad"
       gradientTransform="matrix(35.414211,-35.414211,-35.414211,-35.414211,32.878681,199.70711)"
       gradientUnits="userSpaceOnUse"
       y2="0"
       x2="1"
       y1="0"
       x1="0"><stop
         id="stop224"
         offset="0"
         style="stop-opacity:1;stop-color:#e6e7e8" /><stop
         id="stop226"
         offset="1"
         style="stop-opacity:1;stop-color:#d1d3d4" /></linearGradient><clipPath
       id="clipPath234"
       clipPathUnits="userSpaceOnUse"><path
         id="path236"
         d="m 130,216 c -3.313,0 -6,-2.687 -6,-6 l 0,0 0,-76 c 0,-3.314 2.687,-6 6,-6 l 0,0 72,0 c 3.313,0 6,2.686 6,6 l 0,0 0,70 c 0,6.627 -5.372,12 -12,12 l 0,0 -66,0 z" /></clipPath><linearGradient
       id="linearGradient242"
       spreadMethod="pad"
       gradientTransform="matrix(82.485275,-82.485275,-82.485275,-82.485275,123.87868,212.36397)"
       gradientUnits="userSpaceOnUse"
       y2="0"
       x2="1"
       y1="0"
       x1="0"><stop
         id="stop244"
         offset="0"
         style="stop-opacity:1;stop-color:#e6e7e8" /><stop
         id="stop246"
         offset="1"
         style="stop-opacity:1;stop-color:#d1d3d4" /></linearGradient><clipPath
       id="clipPath254"
       clipPathUnits="userSpaceOnUse"><path
         id="path256"
         d="m 140,120 56,0 0,12.001 -56,0 0,-12.001 z" /></clipPath><linearGradient
       id="linearGradient262"
       spreadMethod="pad"
       gradientTransform="matrix(34,-34,-34,-34,151,143)"
       gradientUnits="userSpaceOnUse"
       y2="0"
       x2="1"
       y1="0"
       x1="0"><stop
         id="stop264"
         offset="0"
         style="stop-opacity:1;stop-color:#e6e7e8" /><stop
         id="stop266"
         offset="1"
         style="stop-opacity:1;stop-color:#d1d3d4" /></linearGradient><clipPath
       id="clipPath274"
       clipPathUnits="userSpaceOnUse"><path
         id="path276"
         d="M 0,256 256,256 256,0 0,0 0,256 Z" /></clipPath></defs><g
     transform="matrix(1.25,0,0,-1.25,0,320)"
     id="g10"><g
       id="g12"><g
         clip-path="url(#clipPath16)"
         id="g14"><g
           id="g20"><g
             id="g22"><path
               id="path30"
               style="fill:url(#linearGradient24);stroke:none"
               d="m 92,232 c 0,0 -14,0 -27.999,-2.5 l 0,0 C 50,227 36,222 36,212 l 0,0 0,-4 0,-92 0,-12 c 0,-2.209 1.791,-4 4,-4 l 0,0 4,0 0,12 168,0 0,-12 4,0 c 2.21,0 4,1.791 4,4 l 0,0 0,12 0,96 c 0,20 -56,20 -56,20 l 0,0 -72,0 z" /></g></g></g></g><g
       id="g32"><g
         clip-path="url(#clipPath36)"
         id="g34"><g
           id="g40"><g
             id="g42"><path
               id="path50"
               style="fill:url(#linearGradient44);stroke:none"
               d="m 140,232 -8,0 -8,0 -8,0 -32,0 -19.999,-2.5 C 64.001,229.5 76,228 80,224 l 0,0 36,0 8,0 8,0 8,0 36,0 c 4,4 16,5.5 16,5.5 l 0,0 -20,2.5 -32,0 z" /></g></g></g></g><g
       id="g52"><g
         clip-path="url(#clipPath56)"
         id="g54"><g
           id="g60"><g
             id="g62"><path
               id="path70"
               style="fill:url(#linearGradient64);stroke:none"
               d="m 148,224 16,0 0,4 -16,0 0,-4 z" /></g></g></g></g><g
       id="g72"><g
         clip-path="url(#clipPath76)"
         id="g74"><g
           id="g80"><g
             id="g82"><path
               id="path90"
               style="fill:url(#linearGradient84);stroke:none"
               d="m 44,152 0,-24 c 0,-2.209 1.791,-4 4,-4 l 0,0 84,0 0,28 -88,0 z" /></g></g></g></g><g
       id="g92"><g
         clip-path="url(#clipPath96)"
         id="g94"><g
           transform="translate(44,216)"
           id="g100"><path
             id="path102"
             style="fill:#999999;fill-opacity:1;fill-rule:nonzero;stroke:none"
             d="m 0,0 0,-68 c 0,-2.209 1.791,-4 4,-4 l 72,0 0,-12 c 0,-4.418 3.582,-8 8,-8 l 12,0 0,-4 56,0 0,4 12,0 c 2.209,0 4,1.791 4,4 l 0,16 0,4 0,60 c 0,6.627 -5.373,12 -12,12 L 4,4 C 1.791,4 0,2.209 0,0" /></g></g></g><g
       id="g104"><g
         clip-path="url(#clipPath108)"
         id="g106"><g
           id="g112"><g
             id="g114"><path
               id="path122"
               style="fill:url(#linearGradient116);stroke:none"
               d="m 135.937,112 -15.873,0 -76.064,0 0,-12 -4,0 c 0,0 -2.38,0 -5.305,-1.836 l 0,0 c -1.633,-1.025 -2.832,-2.622 -3.386,-4.469 l 0,0 -14.423,-48.137 c 0,0 -11.905,-33.221 51.589,-20.763 l 0,0 51.589,0 15.873,0 51.589,0 c 63.494,-12.458 51.589,20.763 51.589,20.763 l 0,0 -14.425,48.137 c -0.553,1.847 -1.753,3.444 -3.385,4.469 l 0,0 C 218.38,100 216,100 216,100 l 0,0 -4,0 0,12 -76.063,0 z" /></g></g></g></g><g
       id="g124"><g
         clip-path="url(#clipPath128)"
         id="g126"><path
           id="path132"
           style="fill:#999999;fill-opacity:1;fill-rule:nonzero;stroke:none"
           d="m 200,104 -144,0 0,4 144,0 0,-4 z" /><g
           transform="translate(60,98)"
           id="g134"><path
             id="path136"
             style="fill:#999999;fill-opacity:1;fill-rule:nonzero;stroke:none"
             d="m 0,0 -8,0 c -7.449,0 -15.233,-6.034 -17.352,-13.451 l -9.142,-32 c -1.098,-3.843 -0.533,-7.632 1.552,-10.395 2.02,-2.679 5.196,-4.154 8.942,-4.154 l 8,0 c 7.449,0 15.233,6.034 17.352,13.451 l 9.142,32 c 1.098,3.843 0.533,7.632 -1.552,10.395 C 6.922,-1.475 3.746,0 0,0 m 0,-2 c 6.6,0 10.457,-5.4 8.571,-12 L -0.571,-46 C -2.457,-52.6 -9.4,-58 -16,-58 l -8,0 c -6.6,0 -10.457,5.4 -8.571,12 l 9.142,32 C -21.543,-7.4 -14.6,-2 -8,-2 l 8,0" /></g><g
           transform="translate(80,96)"
           id="g138"><path
             id="path140"
             style="fill:#ffffff;fill-opacity:1;fill-rule:nonzero;stroke:none"
             d="M 0,0 -8,-48 128,-48 120,0 0,0 Z" /></g><g
           transform="translate(60,74)"
           id="g142"><path
             id="path144"
             style="fill:#999999;fill-opacity:1;fill-rule:nonzero;stroke:none"
             d="m 0,0 c 0,-3.314 -5.373,-6 -12,-6 -6.627,0 -12,2.686 -12,6 0,3.314 5.373,6 12,6 C -5.373,6 0,3.314 0,0" /></g><g
           transform="translate(224,170)"
           id="g146"><path
             id="path148"
             style="fill:#999999;fill-opacity:1;fill-rule:nonzero;stroke:none"
             d="m 0,0 0,0 c 0,1.105 -0.895,2 -2,2 l -2,0 0,4 -2,0 C -7.105,6 -8,5.105 -8,4 l 0,-12 c 0,-1.105 0.895,-2 2,-2 l 2,0 2,0 c 1.105,0 2,0.895 2,2 0,1.105 -0.895,2 -2,2 l -1,0 c -0.552,0 -1,0.448 -1,1 l 0,2 c 0,0.552 0.448,1 1,1 l 1,0 c 1.105,0 2,0.895 2,2" /></g><g
           transform="translate(50.3947,59.7143)"
           id="g150"><path
             id="path152"
             style="fill:#ffffff;fill-opacity:1;fill-rule:nonzero;stroke:none"
             d="M 0,0 C -0.947,-2.367 -3.505,-4.286 -5.714,-4.286 -7.923,-4.286 -8.947,-2.367 -8,0 -7.053,2.367 -4.495,4.286 -2.286,4.286 -0.077,4.286 0.947,2.367 0,0" /></g><g
           transform="translate(45.8233,48.2857)"
           id="g154"><path
             id="path156"
             style="fill:#999999;fill-opacity:1;fill-rule:nonzero;stroke:none"
             d="M 0,0 C -0.947,-2.367 -3.505,-4.286 -5.714,-4.286 -7.923,-4.286 -8.947,-2.367 -8,0 -7.053,2.367 -4.495,4.286 -2.286,4.286 -0.077,4.286 0.947,2.367 0,0" /></g><g
           transform="translate(52.9661,51.1429)"
           id="g158"><path
             id="path160"
             style="fill:#999999;fill-opacity:1;fill-rule:nonzero;stroke:none"
             d="m 0,0 c -3.314,0 -5.488,1.279 -4.857,2.857 0.631,1.578 3.829,2.857 7.143,2.857 3.313,0 5.488,-1.279 4.857,-2.857 C 6.512,1.279 3.314,0 0,0" /></g><g
           transform="translate(32.9661,51.1429)"
           id="g162"><path
             id="path164"
             style="fill:#999999;fill-opacity:1;fill-rule:nonzero;stroke:none"
             d="m 0,0 c -3.314,0 -5.488,1.279 -4.857,2.857 0.631,1.578 3.829,2.857 7.143,2.857 3.313,0 5.488,-1.279 4.857,-2.857 C 6.512,1.279 3.314,0 0,0" /></g><g
           transform="translate(225.1861,41.8474)"
           id="g166"><path
             id="path168"
             style="fill:#999999;fill-opacity:1;fill-rule:nonzero;stroke:none"
             d="m 0,0 0,0 c 2.115,0.604 3.352,2.83 2.747,4.945 l -7.692,26.923 c -0.604,2.115 -2.83,3.351 -4.945,2.747 l 0,0 c -2.115,-0.605 -3.352,-2.83 -2.747,-4.945 L -4.945,2.747 C -4.341,0.632 -2.115,-0.604 0,0" /></g></g></g><g
       id="g170"><g
         clip-path="url(#clipPath174)"
         id="g172"><g
           id="g178"><g
             id="g180"><path
               id="path188"
               style="fill:url(#linearGradient182);stroke:none"
               d="m 210.901,91.847 c -2.115,-0.605 -3.352,-2.83 -2.747,-4.946 l 0,0 2.198,-7.692 c 0.603,-2.115 2.829,-3.352 4.944,-2.747 l 0,0 c 2.115,0.605 3.352,2.83 2.747,4.945 l 0,0 -2.198,7.692 c -0.5,1.752 -2.112,2.901 -3.853,2.901 l 0,0 c -0.361,0 -0.728,-0.049 -1.091,-0.153" /></g></g></g></g><g
       id="g190"><g
         clip-path="url(#clipPath194)"
         id="g192"><g
           transform="translate(222.9883,49.5396)"
           id="g198"><path
             id="path200"
             style="fill:#ffffff;fill-opacity:1;fill-rule:nonzero;stroke:none"
             d="m 0,0 0,0 c 2.115,0.604 3.352,2.83 2.747,4.945 l -7.692,26.923 c -0.604,2.115 -2.83,3.351 -4.945,2.747 l 0,0 c -2.115,-0.605 -3.352,-2.83 -2.747,-4.945 L -4.945,2.747 C -4.341,0.632 -2.115,-0.604 0,0" /></g><g
           transform="translate(182,28)"
           id="g202"><path
             id="path204"
             style="fill:#999999;fill-opacity:1;fill-rule:nonzero;stroke:none"
             d="m 0,0 -4,0 c -1.1,0 -2,0.9 -2,2 l 0,0 c 0,1.1 0.9,2 2,2 L 0,4 C 1.1,4 2,3.1 2,2 L 2,2 C 2,0.9 1.1,0 0,0" /></g><g
           transform="translate(186,28)"
           id="g206"><path
             id="path208"
             style="fill:#ffffff;fill-opacity:1;fill-rule:nonzero;stroke:none"
             d="m 0,0 -4,0 c -1.1,0 -2,0.9 -2,2 l 0,0 c 0,1.1 0.9,2 2,2 L 0,4 C 1.1,4 2,3.1 2,2 L 2,2 C 2,0.9 1.1,0 0,0" /></g></g></g><g
       id="g210"><g
         clip-path="url(#clipPath214)"
         id="g212"><g
           id="g218"><g
             id="g220"><path
               id="path228"
               style="fill:url(#linearGradient222);stroke:none"
               d="m 50,216 c -1.105,0 -2,-0.896 -2,-2 l 0,0 0,-64 c 0,-1.105 0.895,-2 2,-2 l 0,0 2,0 0,68 -2,0 z" /></g></g></g></g><g
       id="g230"><g
         clip-path="url(#clipPath234)"
         id="g232"><g
           id="g238"><g
             id="g240"><path
               id="path248"
               style="fill:url(#linearGradient242);stroke:none"
               d="m 130,216 c -3.313,0 -6,-2.687 -6,-6 l 0,0 0,-76 c 0,-3.314 2.687,-6 6,-6 l 0,0 72,0 c 3.313,0 6,2.686 6,6 l 0,0 0,70 c 0,6.627 -5.372,12 -12,12 l 0,0 -66,0 z" /></g></g></g></g><g
       id="g250"><g
         clip-path="url(#clipPath254)"
         id="g252"><g
           id="g258"><g
             id="g260"><path
               id="path268"
               style="fill:url(#linearGradient262);stroke:none"
               d="m 140,120 56,0 0,12.001 -56,0 0,-12.001 z" /></g></g></g></g><g
       id="g270"><g
         clip-path="url(#clipPath274)"
         id="g272"><path
           id="path278"
           style="fill:#ffffff;fill-opacity:1;fill-rule:nonzero;stroke:none"
           d="m 196,124 -56,0 0,4 56,0 0,-4 z" /><g
           transform="translate(196,210)"
           id="g280"><path
             id="path282"
             style="fill:#ffffff;fill-opacity:1;fill-rule:nonzero;stroke:none"
             d="m 0,0 c 0,-1.105 -0.895,-2 -2,-2 -1.105,0 -2,0.895 -2,2 0,1.105 0.895,2 2,2 1.105,0 2,-0.895 2,-2" /></g><g
           transform="translate(188,210)"
           id="g284"><path
             id="path286"
             style="fill:#ffffff;fill-opacity:1;fill-rule:nonzero;stroke:none"
             d="m 0,0 c 0,-1.105 -0.895,-2 -2,-2 -1.105,0 -2,0.895 -2,2 0,1.105 0.895,2 2,2 1.105,0 2,-0.895 2,-2" /></g><g
           transform="translate(180,210)"
           id="g288"><path
             id="path290"
             style="fill:#ffffff;fill-opacity:1;fill-rule:nonzero;stroke:none"
             d="m 0,0 c 0,-1.105 -0.895,-2 -2,-2 -1.105,0 -2,0.895 -2,2 0,1.105 0.895,2 2,2 1.105,0 2,-0.895 2,-2" /></g><g
           transform="translate(172,210)"
           id="g292"><path
             id="path294"
             style="fill:#ffffff;fill-opacity:1;fill-rule:nonzero;stroke:none"
             d="m 0,0 c 0,-1.105 -0.895,-2 -2,-2 -1.105,0 -2,0.895 -2,2 0,1.105 0.895,2 2,2 1.105,0 2,-0.895 2,-2" /></g></g></g></g></svg>