<?xml version="1.0" encoding="UTF-8" standalone="no"?>
<svg
   xmlns:dc="http://purl.org/dc/elements/1.1/"
   xmlns:cc="http://creativecommons.org/ns#"
   xmlns:rdf="http://www.w3.org/1999/02/22-rdf-syntax-ns#"
   xmlns:svg="http://www.w3.org/2000/svg"
   xmlns="http://www.w3.org/2000/svg"
   viewBox="0 0 320 320"
   height="320"
   width="320"
   xml:space="preserve"
   version="1.1"
   id="svg2"><metadata
     id="metadata8"><rdf:RDF><cc:Work
         rdf:about=""><dc:format>image/svg+xml</dc:format><dc:type
           rdf:resource="http://purl.org/dc/dcmitype/StillImage" /></cc:Work></rdf:RDF></metadata><defs
     id="defs6"><clipPath
       id="clipPath16"
       clipPathUnits="userSpaceOnUse"><path
         id="path18"
         d="m 12.733,113.814 c -1.695,-9.789 -0.526,-20.026 4.308,-28.747 l 0,0 C 21.682,76.693 30.082,68.318 45.113,68.318 l 0,0 c 0,0 11.264,-2.86 26.28,8.578 l 0,0 C 86.411,88.333 113.835,92.417 128,92.417 l 0,0 c 14.166,0 40.016,-6.417 56.606,-15.521 l 0,0 c 16.208,-8.896 26.28,-8.578 26.28,-8.578 l 0,0 c 15.032,0 23.432,8.375 28.074,16.749 l 0,0 c 4.834,8.721 6.002,18.958 4.307,28.747 l 0,0 C 230.616,186.893 128,188 128,188 l 0,0 c 0,0 -102.615,-1.107 -115.267,-74.186" /></clipPath><linearGradient
       id="linearGradient24"
       spreadMethod="pad"
       gradientTransform="matrix(138.11925,-138.11925,-138.11925,-138.11925,58.940373,179.22249)"
       gradientUnits="userSpaceOnUse"
       y2="0"
       x2="1"
       y1="0"
       x1="0"><stop
         id="stop26"
         offset="0"
         style="stop-opacity:1;stop-color:#e6e7e8" /><stop
         id="stop28"
         offset="1"
         style="stop-opacity:1;stop-color:#d1d3d4" /></linearGradient><clipPath
       id="clipPath36"
       clipPathUnits="userSpaceOnUse"><path
         id="path38"
         d="M 74.516,167.227 C 64.151,167.226 53.423,163.44 44.307,156.566 l 0,0 C 24.48,141.615 18.094,116.29 30.072,100.112 l 0,0 C 36.135,91.923 46.148,87.227 57.545,87.227 l 0,0 c 10.362,0 21.09,3.786 30.207,10.662 l 0,0 c 19.827,14.95 26.212,40.274 14.235,56.452 l 0,0 c -6.063,8.189 -16.077,12.886 -27.471,12.886 l 0,0 z" /></clipPath><linearGradient
       id="linearGradient44"
       spreadMethod="pad"
       gradientTransform="matrix(51.826553,-51.826553,-51.826553,-51.826553,40.115974,153.14017)"
       gradientUnits="userSpaceOnUse"
       y2="0"
       x2="1"
       y1="0"
       x1="0"><stop
         id="stop46"
         offset="0"
         style="stop-opacity:1;stop-color:#e6e7e8" /><stop
         id="stop48"
         offset="1"
         style="stop-opacity:1;stop-color:#d1d3d4" /></linearGradient><clipPath
       id="clipPath56"
       clipPathUnits="userSpaceOnUse"><path
         id="path58"
         d="M 49.074,150.194 C 32.801,137.887 27.201,117.628 36.565,104.944 l 0,0 c 4.775,-6.469 12.517,-9.717 21.119,-9.717 l 0,0 c 8.265,0 17.326,3.003 25.3,9.033 l 0,0 c 16.273,12.307 21.873,32.566 12.51,45.25 l 0,0 c -4.776,6.468 -12.518,9.717 -21.119,9.717 l 0,0 c -8.266,-0.001 -17.327,-3.002 -25.301,-9.033" /></clipPath><linearGradient
       id="linearGradient64"
       spreadMethod="pad"
       gradientTransform="matrix(-40.569122,40.569122,40.569122,40.569122,86.313805,106.94231)"
       gradientUnits="userSpaceOnUse"
       y2="0"
       x2="1"
       y1="0"
       x1="0"><stop
         id="stop66"
         offset="0"
         style="stop-opacity:1;stop-color:#e6e7e8" /><stop
         id="stop68"
         offset="1"
         style="stop-opacity:1;stop-color:#d1d3d4" /></linearGradient><clipPath
       id="clipPath76"
       clipPathUnits="userSpaceOnUse"><path
         id="path78"
         d="m 181.513,168 c -11.395,0 -21.408,-4.697 -27.471,-12.886 l 0,0 c -11.977,-16.177 -5.591,-41.502 14.235,-56.452 l 0,0 C 177.395,91.786 188.122,88 198.484,88 l 0,0 c 11.397,0 21.41,4.696 27.474,12.885 l 0,0 c 11.978,16.178 5.591,41.503 -14.236,56.454 l 0,0 c -9.116,6.874 -19.844,10.66 -30.208,10.661 l 0,0 -0.001,0 z" /></clipPath><linearGradient
       id="linearGradient84"
       spreadMethod="pad"
       gradientTransform="matrix(63.53125,-63.53125,-63.53125,-63.53125,158.23436,159.76564)"
       gradientUnits="userSpaceOnUse"
       y2="0"
       x2="1"
       y1="0"
       x1="0"><stop
         id="stop86"
         offset="0"
         style="stop-opacity:1;stop-color:#e6e7e8" /><stop
         id="stop88"
         offset="1"
         style="stop-opacity:1;stop-color:#d1d3d4" /></linearGradient><clipPath
       id="clipPath96"
       clipPathUnits="userSpaceOnUse"><path
         id="path98"
         d="m 160.536,150.283 c -9.364,-12.684 -3.763,-32.943 12.509,-45.249 l 0,0 C 181.02,99.003 190.08,96 198.346,96 l 0,0 c 8.601,0 16.343,3.248 21.118,9.717 l 0,0 c 9.365,12.684 3.764,32.943 -12.509,45.25 l 0,0 c -7.975,6.031 -17.034,9.032 -25.301,9.033 l 0,0 c -8.601,0.001 -16.343,-3.249 -21.118,-9.717" /></clipPath><linearGradient
       id="linearGradient104"
       spreadMethod="pad"
       gradientTransform="matrix(-52.100437,52.100437,52.100437,52.100437,216.0502,101.94978)"
       gradientUnits="userSpaceOnUse"
       y2="0"
       x2="1"
       y1="0"
       x1="0"><stop
         id="stop106"
         offset="0"
         style="stop-opacity:1;stop-color:#e6e7e8" /><stop
         id="stop108"
         offset="1"
         style="stop-opacity:1;stop-color:#d1d3d4" /></linearGradient><clipPath
       id="clipPath116"
       clipPathUnits="userSpaceOnUse"><path
         id="path118"
         d="M 0,256 256,256 256,0 0,0 0,256 Z" /></clipPath><clipPath
       id="clipPath128"
       clipPathUnits="userSpaceOnUse"><path
         id="path130"
         d="m 60,148 0,-14 -14,0 0,-12 14,0 0,-14 12,0 0,14 14,0 0,12 -14,0 0,14 -12,0 z" /></clipPath><linearGradient
       id="linearGradient136"
       spreadMethod="pad"
       gradientTransform="matrix(-26,26,26,26,79,115)"
       gradientUnits="userSpaceOnUse"
       y2="0"
       x2="1"
       y1="0"
       x1="0"><stop
         id="stop138"
         offset="0"
         style="stop-opacity:1;stop-color:#e6e7e8" /><stop
         id="stop140"
         offset="1"
         style="stop-opacity:1;stop-color:#d1d3d4" /></linearGradient><clipPath
       id="clipPath148"
       clipPathUnits="userSpaceOnUse"><path
         id="path150"
         d="M 76,142.329 78.329,140 80,144 76,142.329 Z" /></clipPath><linearGradient
       id="linearGradient156"
       spreadMethod="pad"
       gradientTransform="matrix(-2.3283503,2.3283503,2.3283503,2.3283503,79.746262,141.41791)"
       gradientUnits="userSpaceOnUse"
       y2="0"
       x2="1"
       y1="0"
       x1="0"><stop
         id="stop158"
         offset="0"
         style="stop-opacity:1;stop-color:#e6e7e8" /><stop
         id="stop160"
         offset="1"
         style="stop-opacity:1;stop-color:#d1d3d4" /></linearGradient><clipPath
       id="clipPath168"
       clipPathUnits="userSpaceOnUse"><path
         id="path170"
         d="M 53.672,140 56,142.329 52,144 l 1.672,-4 z" /></clipPath><linearGradient
       id="linearGradient176"
       spreadMethod="pad"
       gradientTransform="matrix(-2.8358247,2.8358247,2.8358247,2.8358247,54.835823,141.16417)"
       gradientUnits="userSpaceOnUse"
       y2="0"
       x2="1"
       y1="0"
       x1="0"><stop
         id="stop178"
         offset="0"
         style="stop-opacity:1;stop-color:#e6e7e8" /><stop
         id="stop180"
         offset="1"
         style="stop-opacity:1;stop-color:#d1d3d4" /></linearGradient><clipPath
       id="clipPath188"
       clipPathUnits="userSpaceOnUse"><path
         id="path190"
         d="m 52,112 4,1.672 L 53.672,116 52,112 Z" /></clipPath><linearGradient
       id="linearGradient196"
       spreadMethod="pad"
       gradientTransform="matrix(-2.3283503,2.3283503,2.3283503,2.3283503,54.582088,112.25374)"
       gradientUnits="userSpaceOnUse"
       y2="0"
       x2="1"
       y1="0"
       x1="0"><stop
         id="stop198"
         offset="0"
         style="stop-opacity:1;stop-color:#e6e7e8" /><stop
         id="stop200"
         offset="1"
         style="stop-opacity:1;stop-color:#d1d3d4" /></linearGradient><clipPath
       id="clipPath208"
       clipPathUnits="userSpaceOnUse"><path
         id="path210"
         d="M 76,113.672 80,112 78.329,116 76,113.672 Z" /></clipPath><linearGradient
       id="linearGradient216"
       spreadMethod="pad"
       gradientTransform="matrix(-2.8358247,2.8358247,2.8358247,2.8358247,80,112)"
       gradientUnits="userSpaceOnUse"
       y2="0"
       x2="1"
       y1="0"
       x1="0"><stop
         id="stop218"
         offset="0"
         style="stop-opacity:1;stop-color:#e6e7e8" /><stop
         id="stop220"
         offset="1"
         style="stop-opacity:1;stop-color:#d1d3d4" /></linearGradient><clipPath
       id="clipPath228"
       clipPathUnits="userSpaceOnUse"><path
         id="path230"
         d="m 60,128 c 0,-3.314 2.686,-6 6,-6 l 0,0 c 3.314,0 6,2.686 6,6 l 0,0 c 0,3.314 -2.686,6 -6,6 l 0,0 c -3.314,0 -6,-2.686 -6,-6" /></clipPath><linearGradient
       id="linearGradient236"
       spreadMethod="pad"
       gradientTransform="matrix(8.485281,-8.485281,-8.485281,-8.485281,61.757359,132.24265)"
       gradientUnits="userSpaceOnUse"
       y2="0"
       x2="1"
       y1="0"
       x1="0"><stop
         id="stop238"
         offset="0"
         style="stop-opacity:1;stop-color:#e6e7e8" /><stop
         id="stop240"
         offset="1"
         style="stop-opacity:1;stop-color:#d1d3d4" /></linearGradient><clipPath
       id="clipPath248"
       clipPathUnits="userSpaceOnUse"><path
         id="path250"
         d="M 0,256 256,256 256,0 0,0 0,256 Z" /></clipPath></defs><g
     transform="matrix(1.25,0,0,-1.25,0,320)"
     id="g10"><g
       id="g12"><g
         clip-path="url(#clipPath16)"
         id="g14"><g
           id="g20"><g
             id="g22"><path
               id="path30"
               style="fill:url(#linearGradient24);stroke:none"
               d="m 12.733,113.814 c -1.695,-9.789 -0.526,-20.026 4.308,-28.747 l 0,0 C 21.682,76.693 30.082,68.318 45.113,68.318 l 0,0 c 0,0 11.264,-2.86 26.28,8.578 l 0,0 C 86.411,88.333 113.835,92.417 128,92.417 l 0,0 c 14.166,0 40.016,-6.417 56.606,-15.521 l 0,0 c 16.208,-8.896 26.28,-8.578 26.28,-8.578 l 0,0 c 15.032,0 23.432,8.375 28.074,16.749 l 0,0 c 4.834,8.721 6.002,18.958 4.307,28.747 l 0,0 C 230.616,186.893 128,188 128,188 l 0,0 c 0,0 -102.615,-1.107 -115.267,-74.186" /></g></g></g></g><g
       id="g32"><g
         clip-path="url(#clipPath36)"
         id="g34"><g
           id="g40"><g
             id="g42"><path
               id="path50"
               style="fill:url(#linearGradient44);stroke:none"
               d="M 74.516,167.227 C 64.151,167.226 53.423,163.44 44.307,156.566 l 0,0 C 24.48,141.615 18.094,116.29 30.072,100.112 l 0,0 C 36.135,91.923 46.148,87.227 57.545,87.227 l 0,0 c 10.362,0 21.09,3.786 30.207,10.662 l 0,0 c 19.827,14.95 26.212,40.274 14.235,56.452 l 0,0 c -6.063,8.189 -16.077,12.886 -27.471,12.886 l 0,0 z" /></g></g></g></g><g
       id="g52"><g
         clip-path="url(#clipPath56)"
         id="g54"><g
           id="g60"><g
             id="g62"><path
               id="path70"
               style="fill:url(#linearGradient64);stroke:none"
               d="M 49.074,150.194 C 32.801,137.887 27.201,117.628 36.565,104.944 l 0,0 c 4.775,-6.469 12.517,-9.717 21.119,-9.717 l 0,0 c 8.265,0 17.326,3.003 25.3,9.033 l 0,0 c 16.273,12.307 21.873,32.566 12.51,45.25 l 0,0 c -4.776,6.468 -12.518,9.717 -21.119,9.717 l 0,0 c -8.266,-0.001 -17.327,-3.002 -25.301,-9.033" /></g></g></g></g><g
       id="g72"><g
         clip-path="url(#clipPath76)"
         id="g74"><g
           id="g80"><g
             id="g82"><path
               id="path90"
               style="fill:url(#linearGradient84);stroke:none"
               d="m 181.513,168 c -11.395,0 -21.408,-4.697 -27.471,-12.886 l 0,0 c -11.977,-16.177 -5.591,-41.502 14.235,-56.452 l 0,0 C 177.395,91.786 188.122,88 198.484,88 l 0,0 c 11.397,0 21.41,4.696 27.474,12.885 l 0,0 c 11.978,16.178 5.591,41.503 -14.236,56.454 l 0,0 c -9.116,6.874 -19.844,10.66 -30.208,10.661 l 0,0 -0.001,0 z" /></g></g></g></g><g
       id="g92"><g
         clip-path="url(#clipPath96)"
         id="g94"><g
           id="g100"><g
             id="g102"><path
               id="path110"
               style="fill:url(#linearGradient104);stroke:none"
               d="m 160.536,150.283 c -9.364,-12.684 -3.763,-32.943 12.509,-45.249 l 0,0 C 181.02,99.003 190.08,96 198.346,96 l 0,0 c 8.601,0 16.343,3.248 21.118,9.717 l 0,0 c 9.365,12.684 3.764,32.943 -12.509,45.25 l 0,0 c -7.975,6.031 -17.034,9.032 -25.301,9.033 l 0,0 c -8.601,0.001 -16.343,-3.249 -21.118,-9.717" /></g></g></g></g><g
       id="g112"><g
         clip-path="url(#clipPath116)"
         id="g114"><g
           transform="translate(90,128)"
           id="g120"><path
             id="path122"
             style="fill:#999999;fill-opacity:1;fill-rule:nonzero;stroke:none"
             d="m 0,0 c 0,-13.255 -10.745,-24 -24,-24 -13.255,0 -24,10.745 -24,24 0,13.255 10.745,24 24,24 C -10.745,24 0,13.255 0,0" /></g></g></g><g
       id="g124"><g
         clip-path="url(#clipPath128)"
         id="g126"><g
           id="g132"><g
             id="g134"><path
               id="path142"
               style="fill:url(#linearGradient136);stroke:none"
               d="m 60,148 0,-14 -14,0 0,-12 14,0 0,-14 12,0 0,14 14,0 0,12 -14,0 0,14 -12,0 z" /></g></g></g></g><g
       id="g144"><g
         clip-path="url(#clipPath148)"
         id="g146"><g
           id="g152"><g
             id="g154"><path
               id="path162"
               style="fill:url(#linearGradient156);stroke:none"
               d="M 76,142.329 78.329,140 80,144 76,142.329 Z" /></g></g></g></g><g
       id="g164"><g
         clip-path="url(#clipPath168)"
         id="g166"><g
           id="g172"><g
             id="g174"><path
               id="path182"
               style="fill:url(#linearGradient176);stroke:none"
               d="M 53.672,140 56,142.329 52,144 l 1.672,-4 z" /></g></g></g></g><g
       id="g184"><g
         clip-path="url(#clipPath188)"
         id="g186"><g
           id="g192"><g
             id="g194"><path
               id="path202"
               style="fill:url(#linearGradient196);stroke:none"
               d="m 52,112 4,1.672 L 53.672,116 52,112 Z" /></g></g></g></g><g
       id="g204"><g
         clip-path="url(#clipPath208)"
         id="g206"><g
           id="g212"><g
             id="g214"><path
               id="path222"
               style="fill:url(#linearGradient216);stroke:none"
               d="M 76,113.672 80,112 78.329,116 76,113.672 Z" /></g></g></g></g><g
       id="g224"><g
         clip-path="url(#clipPath228)"
         id="g226"><g
           id="g232"><g
             id="g234"><path
               id="path242"
               style="fill:url(#linearGradient236);stroke:none"
               d="m 60,128 c 0,-3.314 2.686,-6 6,-6 l 0,0 c 3.314,0 6,2.686 6,6 l 0,0 c 0,3.314 -2.686,6 -6,6 l 0,0 c -3.314,0 -6,-2.686 -6,-6" /></g></g></g></g><g
       id="g244"><g
         clip-path="url(#clipPath248)"
         id="g246"><g
           transform="translate(133.6676,128)"
           id="g252"><path
             id="path254"
             style="fill:#ffffff;fill-opacity:1;fill-rule:nonzero;stroke:none"
             d="m 0,0 -11.335,0 c -2.393,0 -4.333,1.79 -4.333,3.997 l 0,0.006 c 0,2.207 1.94,3.997 4.333,3.997 L 0,8 C 2.393,8 4.332,6.21 4.332,4.003 l 0,-0.006 C 4.332,1.79 2.393,0 0,0" /></g><g
           transform="translate(184,110)"
           id="g256"><path
             id="path258"
             style="fill:#999999;fill-opacity:1;fill-rule:nonzero;stroke:none"
             d="m 0,0 c 0,-5.523 -4.477,-10 -10,-10 -5.523,0 -10,4.477 -10,10 0,5.523 4.477,10 10,10 C -4.477,10 0,5.523 0,0" /></g><g
           transform="translate(206,120)"
           id="g260"><path
             id="path262"
             style="fill:#999999;fill-opacity:1;fill-rule:nonzero;stroke:none"
             d="m 0,0 c 0,-5.523 -4.477,-10 -10,-10 -5.523,0 -10,4.477 -10,10 0,5.523 4.477,10 10,10 C -4.477,10 0,5.523 0,0" /></g><g
           transform="translate(228,130)"
           id="g264"><path
             id="path266"
             style="fill:#999999;fill-opacity:1;fill-rule:nonzero;stroke:none"
             d="m 0,0 c 0,-5.523 -4.477,-10 -10,-10 -5.523,0 -10,4.477 -10,10 0,5.523 4.477,10 10,10 C -4.477,10 0,5.523 0,0" /></g><g
           transform="translate(170,128)"
           id="g268"><path
             id="path270"
             style="fill:#999999;fill-opacity:1;fill-rule:nonzero;stroke:none"
             d="m 0,0 c 0,-4.418 -3.582,-8 -8,-8 -4.418,0 -8,3.582 -8,8 0,4.418 3.582,8 8,8 4.418,0 8,-3.582 8,-8" /></g><g
           transform="translate(192,138)"
           id="g272"><path
             id="path274"
             style="fill:#999999;fill-opacity:1;fill-rule:nonzero;stroke:none"
             d="m 0,0 c 0,-4.418 -3.582,-8 -8,-8 -4.418,0 -8,3.582 -8,8 0,4.418 3.582,8 8,8 4.418,0 8,-3.582 8,-8" /></g><g
           transform="translate(214,148)"
           id="g276"><path
             id="path278"
             style="fill:#999999;fill-opacity:1;fill-rule:nonzero;stroke:none"
             d="m 0,0 c 0,-4.418 -3.582,-8 -8,-8 -4.418,0 -8,3.582 -8,8 0,4.418 3.582,8 8,8 4.418,0 8,-3.582 8,-8" /></g><g
           transform="translate(89.7763,176.1125)"
           id="g280"><path
             id="path282"
             style="fill:#999999;fill-opacity:1;fill-rule:nonzero;stroke:none"
             d="m 0,0 c 6.124,1.533 38.414,8.696 76.332,-0.058 0.576,-0.133 1.19,-0.02 1.654,0.313 l 3.516,2.522 C 82.68,3.622 82.363,5.298 80.932,5.725 70.324,8.894 34.974,17.547 -4.466,6.261 -5.821,5.873 -6.221,4.314 -5.209,3.418 l 3.37,-2.986 C -1.356,0.003 -0.654,-0.164 0,0" /></g></g></g></g></svg>