<?xml version="1.0" encoding="UTF-8" standalone="no"?>
<svg
   xmlns:dc="http://purl.org/dc/elements/1.1/"
   xmlns:cc="http://creativecommons.org/ns#"
   xmlns:rdf="http://www.w3.org/1999/02/22-rdf-syntax-ns#"
   xmlns:svg="http://www.w3.org/2000/svg"
   xmlns="http://www.w3.org/2000/svg"
   viewBox="0 0 320 320"
   height="320"
   width="320"
   xml:space="preserve"
   version="1.1"
   id="svg2"><metadata
     id="metadata8"><rdf:RDF><cc:Work
         rdf:about=""><dc:format>image/svg+xml</dc:format><dc:type
           rdf:resource="http://purl.org/dc/dcmitype/StillImage" /></cc:Work></rdf:RDF></metadata><defs
     id="defs6"><clipPath
       id="clipPath16"
       clipPathUnits="userSpaceOnUse"><path
         id="path18"
         d="M 17.342,176 C 14.392,176 12,173.636 12,170.72 l 0,0 0,-85.44 C 12,82.364 14.392,80 17.342,80 l 0,0 221.316,0 c 2.951,0 5.342,2.364 5.342,5.28 l 0,0 0,85.44 c 0,2.916 -2.391,5.28 -5.342,5.28 l 0,0 -221.316,0 z" /></clipPath><linearGradient
       id="linearGradient24"
       spreadMethod="pad"
       gradientTransform="matrix(160.88895,-160.88895,-160.88895,-160.88895,47.555527,208.44447)"
       gradientUnits="userSpaceOnUse"
       y2="0"
       x2="1"
       y1="0"
       x1="0"><stop
         id="stop26"
         offset="0"
         style="stop-opacity:1;stop-color:#e6e7e8" /><stop
         id="stop28"
         offset="1"
         style="stop-opacity:1;stop-color:#d1d3d4" /></linearGradient><clipPath
       id="clipPath36"
       clipPathUnits="userSpaceOnUse"><path
         id="path38"
         d="m 32,172 0,-88 84,0 0,12 124,0 -0.078,48 -123.922,0 0,28 -84,0 z" /></clipPath><linearGradient
       id="linearGradient44"
       spreadMethod="pad"
       gradientTransform="matrix(-142,142,142,142,196.98047,52.980469)"
       gradientUnits="userSpaceOnUse"
       y2="0"
       x2="1"
       y1="0"
       x1="0"><stop
         id="stop46"
         offset="0"
         style="stop-opacity:1;stop-color:#e6e7e8" /><stop
         id="stop48"
         offset="1"
         style="stop-opacity:1;stop-color:#d1d3d4" /></linearGradient><clipPath
       id="clipPath56"
       clipPathUnits="userSpaceOnUse"><path
         id="path58"
         d="M 0,256 256,256 256,0 0,0 0,256 Z" /></clipPath><clipPath
       id="clipPath66"
       clipPathUnits="userSpaceOnUse"><path
         id="path68"
         d="m 158.432,116 c 0,-7.493 6.075,-13.568 13.568,-13.568 l 0,0 c 7.493,0 13.568,6.075 13.568,13.568 l 0,0 c 0,7.493 -6.075,13.568 -13.568,13.568 l 0,0 c -7.493,0 -13.568,-6.075 -13.568,-13.568" /></clipPath><linearGradient
       id="linearGradient74"
       spreadMethod="pad"
       gradientTransform="matrix(-19.18832,19.18832,19.18832,19.18832,181.59416,106.40577)"
       gradientUnits="userSpaceOnUse"
       y2="0"
       x2="1"
       y1="0"
       x1="0"><stop
         id="stop76"
         offset="0"
         style="stop-opacity:1;stop-color:#e6e7e8" /><stop
         id="stop78"
         offset="1"
         style="stop-opacity:1;stop-color:#d1d3d4" /></linearGradient><clipPath
       id="clipPath86"
       clipPathUnits="userSpaceOnUse"><path
         id="path88"
         d="m 158,116 c 0,-7.719 6.281,-14 14,-14 l 0,0 c 7.719,0 14,6.281 14,14 l 0,0 c 0,7.719 -6.281,14 -14,14 l 0,0 c -7.719,0 -14,-6.281 -14,-14 m 0.863,0 c 0,7.243 5.894,13.136 13.137,13.136 l 0,0 c 7.243,0 13.136,-5.893 13.136,-13.136 l 0,0 c 0,-7.243 -5.893,-13.136 -13.136,-13.136 l 0,0 c -7.243,0 -13.137,5.893 -13.137,13.136" /></clipPath><linearGradient
       id="linearGradient94"
       spreadMethod="pad"
       gradientTransform="matrix(19.789717,-19.789717,-19.789717,-19.789717,162.10515,125.89483)"
       gradientUnits="userSpaceOnUse"
       y2="0"
       x2="1"
       y1="0"
       x1="0"><stop
         id="stop96"
         offset="0"
         style="stop-opacity:1;stop-color:#e6e7e8" /><stop
         id="stop98"
         offset="1"
         style="stop-opacity:1;stop-color:#d1d3d4" /></linearGradient><clipPath
       id="clipPath106"
       clipPathUnits="userSpaceOnUse"><path
         id="path108"
         d="M 0,256 256,256 256,0 0,0 0,256 Z" /></clipPath><clipPath
       id="clipPath122"
       clipPathUnits="userSpaceOnUse"><path
         id="path124"
         d="m 198.432,116 c 0,-7.493 6.075,-13.568 13.568,-13.568 l 0,0 c 7.494,0 13.568,6.075 13.568,13.568 l 0,0 c 0,7.493 -6.074,13.568 -13.568,13.568 l 0,0 c -7.493,0 -13.568,-6.075 -13.568,-13.568" /></clipPath><linearGradient
       id="linearGradient130"
       spreadMethod="pad"
       gradientTransform="matrix(-19.188248,19.188248,19.188248,19.188248,221.59416,106.40581)"
       gradientUnits="userSpaceOnUse"
       y2="0"
       x2="1"
       y1="0"
       x1="0"><stop
         id="stop132"
         offset="0"
         style="stop-opacity:1;stop-color:#e6e7e8" /><stop
         id="stop134"
         offset="1"
         style="stop-opacity:1;stop-color:#d1d3d4" /></linearGradient><clipPath
       id="clipPath142"
       clipPathUnits="userSpaceOnUse"><path
         id="path144"
         d="m 198,116 c 0,-7.719 6.28,-14 14,-14 l 0,0 c 7.72,0 14,6.281 14,14 l 0,0 c 0,7.719 -6.28,14 -14,14 l 0,0 c -7.72,0 -14,-6.281 -14,-14 m 0.864,0 c 0,7.243 5.892,13.136 13.136,13.136 l 0,0 c 7.244,0 13.136,-5.893 13.136,-13.136 l 0,0 c 0,-7.243 -5.892,-13.136 -13.136,-13.136 l 0,0 c -7.244,0 -13.136,5.893 -13.136,13.136" /></clipPath><linearGradient
       id="linearGradient150"
       spreadMethod="pad"
       gradientTransform="matrix(19.789734,-19.789734,-19.789734,-19.789734,202.10515,125.89484)"
       gradientUnits="userSpaceOnUse"
       y2="0"
       x2="1"
       y1="0"
       x1="0"><stop
         id="stop152"
         offset="0"
         style="stop-opacity:1;stop-color:#e6e7e8" /><stop
         id="stop154"
         offset="1"
         style="stop-opacity:1;stop-color:#d1d3d4" /></linearGradient><clipPath
       id="clipPath162"
       clipPathUnits="userSpaceOnUse"><path
         id="path164"
         d="M 0,256 256,256 256,0 0,0 0,256 Z" /></clipPath><clipPath
       id="clipPath220"
       clipPathUnits="userSpaceOnUse"><path
         id="path222"
         d="m 61.448,153.208 c -8.081,0 -14.656,-6.575 -14.656,-14.657 l 0,0 0,-25.102 c 0,-8.082 6.575,-14.657 14.656,-14.657 l 0,0 25.103,0 c 8.082,0 14.657,6.575 14.657,14.657 l 0,0 0,25.102 c 0,8.082 -6.575,14.657 -14.657,14.657 l 0,0 -25.103,0 z m -12.28,-39.759 0,25.102 c 0,6.772 5.509,12.281 12.28,12.281 l 0,0 25.103,0 c 6.772,0 12.281,-5.509 12.281,-12.281 l 0,0 0,-25.102 c 0,-6.772 -5.509,-12.281 -12.281,-12.281 l 0,0 -25.103,0 c -6.771,0 -12.28,5.509 -12.28,12.281" /></clipPath><linearGradient
       id="linearGradient228"
       spreadMethod="pad"
       gradientTransform="matrix(-45.820503,45.820503,45.820503,45.820503,96.910271,103.08973)"
       gradientUnits="userSpaceOnUse"
       y2="0"
       x2="1"
       y1="0"
       x1="0"><stop
         id="stop230"
         offset="0"
         style="stop-opacity:1;stop-color:#e6e7e8" /><stop
         id="stop232"
         offset="1"
         style="stop-opacity:1;stop-color:#d1d3d4" /></linearGradient><clipPath
       id="clipPath240"
       clipPathUnits="userSpaceOnUse"><path
         id="path242"
         d="M 61.448,154 C 52.93,154 46,147.07 46,138.551 l 0,0 0,-25.102 C 46,104.93 52.93,98 61.448,98 l 0,0 25.103,0 C 95.07,98 102,104.93 102,113.449 l 0,0 0,25.102 C 102,147.07 95.07,154 86.551,154 l 0,0 -25.103,0 z m -13.864,-40.551 0,25.102 c 0,7.645 6.22,13.865 13.864,13.865 l 0,0 25.103,0 c 7.646,0 13.865,-6.22 13.865,-13.865 l 0,0 0,-25.102 c 0,-7.645 -6.219,-13.865 -13.865,-13.865 l 0,0 -25.103,0 c -7.644,0 -13.864,6.22 -13.864,13.865 m 13.864,38.175 c -7.208,0 -13.072,-5.865 -13.072,-13.073 l 0,0 0,-25.102 c 0,-7.208 5.864,-13.073 13.072,-13.073 l 0,0 25.103,0 c 7.208,0 13.073,5.865 13.073,13.073 l 0,0 0,25.102 c 0,7.208 -5.865,13.073 -13.073,13.073 l 0,0 -25.103,0 z m -11.487,-38.175 0,25.102 c 0,6.335 5.153,11.489 11.487,11.489 l 0,0 25.103,0 c 6.335,0 11.489,-5.154 11.489,-11.489 l 0,0 0,-25.102 c 0,-6.335 -5.154,-11.489 -11.489,-11.489 l 0,0 -25.103,0 c -6.334,0 -11.487,5.154 -11.487,11.489" /></clipPath><linearGradient
       id="linearGradient248"
       spreadMethod="pad"
       gradientTransform="matrix(46.940163,-46.940163,-46.940163,-46.940163,50.52993,149.47009)"
       gradientUnits="userSpaceOnUse"
       y2="0"
       x2="1"
       y1="0"
       x1="0"><stop
         id="stop250"
         offset="0"
         style="stop-opacity:1;stop-color:#e6e7e8" /><stop
         id="stop252"
         offset="1"
         style="stop-opacity:1;stop-color:#d1d3d4" /></linearGradient><clipPath
       id="clipPath260"
       clipPathUnits="userSpaceOnUse"><path
         id="path262"
         d="m 65.179,126 c 0,-4.63 3.888,-8.383 8.683,-8.383 l 0,0 c 4.795,0 8.682,3.753 8.682,8.383 l 0,0 c 0,4.63 -3.887,8.384 -8.682,8.384 l 0,0 c -4.795,0 -8.683,-3.754 -8.683,-8.384" /></clipPath><linearGradient
       id="linearGradient268"
       spreadMethod="pad"
       gradientTransform="matrix(-12.069984,12.069984,12.069984,12.069984,79.896858,119.96515)"
       gradientUnits="userSpaceOnUse"
       y2="0"
       x2="1"
       y1="0"
       x1="0"><stop
         id="stop270"
         offset="0"
         style="stop-opacity:1;stop-color:#e6e7e8" /><stop
         id="stop272"
         offset="1"
         style="stop-opacity:1;stop-color:#d1d3d4" /></linearGradient><clipPath
       id="clipPath280"
       clipPathUnits="userSpaceOnUse"><path
         id="path282"
         d="m 63.862,126 c 0,-5.513 4.486,-10 10,-10 l 0,0 c 5.514,0 10,4.487 10,10 l 0,0 c 0,5.514 -4.486,10 -10,10 l 0,0 c -5.514,0 -10,-4.486 -10,-10 m 2,0 c 0,4.411 3.588,8 8,8 l 0,0 c 4.411,0 8,-3.589 8,-8 l 0,0 c 0,-4.411 -3.589,-8 -8,-8 l 0,0 c -4.412,0 -8,3.589 -8,8" /></clipPath><linearGradient
       id="linearGradient288"
       spreadMethod="pad"
       gradientTransform="matrix(14.135487,-14.135487,-14.135487,-14.135487,66.794151,133.0679)"
       gradientUnits="userSpaceOnUse"
       y2="0"
       x2="1"
       y1="0"
       x1="0"><stop
         id="stop290"
         offset="0"
         style="stop-opacity:1;stop-color:#e6e7e8" /><stop
         id="stop292"
         offset="1"
         style="stop-opacity:1;stop-color:#d1d3d4" /></linearGradient><clipPath
       id="clipPath300"
       clipPathUnits="userSpaceOnUse"><path
         id="path302"
         d="m 73,146.807 0,-5.614 C 73,140.534 73.448,140 74,140 l 0,0 c 0.552,0 1,0.534 1,1.193 l 0,0 0,5.614 C 75,147.466 74.552,148 74,148 l 0,0 c -0.552,0 -1,-0.534 -1,-1.193" /></clipPath><linearGradient
       id="linearGradient308"
       spreadMethod="pad"
       gradientTransform="matrix(4.3637195,-4.3637195,-4.3637195,-4.3637195,71.818138,146.18185)"
       gradientUnits="userSpaceOnUse"
       y2="0"
       x2="1"
       y1="0"
       x1="0"><stop
         id="stop310"
         offset="0"
         style="stop-opacity:1;stop-color:#e6e7e8" /><stop
         id="stop312"
         offset="1"
         style="stop-opacity:1;stop-color:#d1d3d4" /></linearGradient><clipPath
       id="clipPath320"
       clipPathUnits="userSpaceOnUse"><path
         id="path322"
         d="m 73,110.807 0,-5.614 C 73,104.534 73.448,104 74,104 l 0,0 c 0.552,0 1,0.534 1,1.193 l 0,0 0,5.614 C 75,111.466 74.552,112 74,112 l 0,0 c -0.552,0 -1,-0.534 -1,-1.193" /></clipPath><linearGradient
       id="linearGradient328"
       spreadMethod="pad"
       gradientTransform="matrix(4.3637195,-4.3637195,-4.3637195,-4.3637195,71.818138,110.18186)"
       gradientUnits="userSpaceOnUse"
       y2="0"
       x2="1"
       y1="0"
       x1="0"><stop
         id="stop330"
         offset="0"
         style="stop-opacity:1;stop-color:#e6e7e8" /><stop
         id="stop332"
         offset="1"
         style="stop-opacity:1;stop-color:#d1d3d4" /></linearGradient><clipPath
       id="clipPath340"
       clipPathUnits="userSpaceOnUse"><path
         id="path342"
         d="m 60.057,139.943 c -0.477,-0.478 2.181,-3.909 2.181,-3.909 l 0,0 c 0.294,-0.295 2.023,1.434 1.729,1.728 l 0,0 c 0,0 -2.89,2.238 -3.735,2.238 l 0,0 c -0.076,0 -0.136,-0.018 -0.175,-0.057" /></clipPath><linearGradient
       id="linearGradient348"
       spreadMethod="pad"
       gradientTransform="matrix(3.2655571,-3.2655571,-3.2655571,-3.2655571,60.057396,139.9426)"
       gradientUnits="userSpaceOnUse"
       y2="0"
       x2="1"
       y1="0"
       x1="0"><stop
         id="stop350"
         offset="0"
         style="stop-opacity:1;stop-color:#e6e7e8" /><stop
         id="stop352"
         offset="1"
         style="stop-opacity:1;stop-color:#d1d3d4" /></linearGradient><clipPath
       id="clipPath360"
       clipPathUnits="userSpaceOnUse"><path
         id="path362"
         d="m 84.029,114.072 c 0,0 3.375,-2.524 3.899,-2 l 0,0 c 0.525,0.524 -2,3.898 -2,3.898 l 0,0 c -0.02,0.02 -0.048,0.03 -0.082,0.03 l 0,0 c -0.458,-0.001 -2.083,-1.662 -1.817,-1.928" /></clipPath><linearGradient
       id="linearGradient368"
       spreadMethod="pad"
       gradientTransform="matrix(3.1641014,-3.1641014,-3.1641014,-3.1641014,84.764259,115.23574)"
       gradientUnits="userSpaceOnUse"
       y2="0"
       x2="1"
       y1="0"
       x1="0"><stop
         id="stop370"
         offset="0"
         style="stop-opacity:1;stop-color:#e6e7e8" /><stop
         id="stop372"
         offset="1"
         style="stop-opacity:1;stop-color:#d1d3d4" /></linearGradient><clipPath
       id="clipPath380"
       clipPathUnits="userSpaceOnUse"><path
         id="path382"
         d="m 84.028,137.982 c -0.283,-0.282 1.672,-2.237 1.954,-1.954 l 0,0 c 0,0 2.481,3.356 1.941,3.895 l 0,0 C 87.87,139.976 87.79,140 87.689,140 l 0,0 c -0.932,0 -3.661,-2.018 -3.661,-2.018" /></clipPath><linearGradient
       id="linearGradient388"
       spreadMethod="pad"
       gradientTransform="matrix(1.9542736,-1.9542736,-1.9542736,-1.9542736,85.38102,139.3353)"
       gradientUnits="userSpaceOnUse"
       y2="0"
       x2="1"
       y1="0"
       x1="0"><stop
         id="stop390"
         offset="0"
         style="stop-opacity:1;stop-color:#e6e7e8" /><stop
         id="stop392"
         offset="1"
         style="stop-opacity:1;stop-color:#d1d3d4" /></linearGradient><clipPath
       id="clipPath400"
       clipPathUnits="userSpaceOnUse"><path
         id="path402"
         d="m 62.018,115.972 c 0,0 -2.481,-3.356 -1.941,-3.895 l 0,0 c 0.54,-0.54 3.895,1.941 3.895,1.941 l 0,0 C 64.236,114.281 62.553,116 62.096,116 l 0,0 c -0.032,0 -0.059,-0.009 -0.078,-0.028" /></clipPath><linearGradient
       id="linearGradient408"
       spreadMethod="pad"
       gradientTransform="matrix(1.9542736,-1.9542736,-1.9542736,-1.9542736,60.664711,114.61898)"
       gradientUnits="userSpaceOnUse"
       y2="0"
       x2="1"
       y1="0"
       x1="0"><stop
         id="stop410"
         offset="0"
         style="stop-opacity:1;stop-color:#e6e7e8" /><stop
         id="stop412"
         offset="1"
         style="stop-opacity:1;stop-color:#d1d3d4" /></linearGradient><clipPath
       id="clipPath420"
       clipPathUnits="userSpaceOnUse"><path
         id="path422"
         d="M 89.193,127 C 88.534,127 88,126.553 88,126 l 0,0 c 0,-0.553 0.534,-1 1.193,-1 l 0,0 5.614,0 c 0.659,0 1.193,0.447 1.193,1 l 0,0 c 0,0.553 -0.534,1 -1.193,1 l 0,0 -5.614,0 z" /></clipPath><linearGradient
       id="linearGradient428"
       spreadMethod="pad"
       gradientTransform="matrix(4.3637195,-4.3637195,-4.3637195,-4.3637195,89.818138,128.18196)"
       gradientUnits="userSpaceOnUse"
       y2="0"
       x2="1"
       y1="0"
       x1="0"><stop
         id="stop430"
         offset="0"
         style="stop-opacity:1;stop-color:#e6e7e8" /><stop
         id="stop432"
         offset="1"
         style="stop-opacity:1;stop-color:#d1d3d4" /></linearGradient><clipPath
       id="clipPath440"
       clipPathUnits="userSpaceOnUse"><path
         id="path442"
         d="M 53.193,127 C 52.534,127 52,126.553 52,126 l 0,0 c 0,-0.553 0.534,-1 1.193,-1 l 0,0 5.614,0 c 0.659,0 1.193,0.447 1.193,1 l 0,0 c 0,0.553 -0.534,1 -1.193,1 l 0,0 -5.614,0 z" /></clipPath><linearGradient
       id="linearGradient448"
       spreadMethod="pad"
       gradientTransform="matrix(4.3637195,-4.3637195,-4.3637195,-4.3637195,53.818142,128.18196)"
       gradientUnits="userSpaceOnUse"
       y2="0"
       x2="1"
       y1="0"
       x1="0"><stop
         id="stop450"
         offset="0"
         style="stop-opacity:1;stop-color:#e6e7e8" /><stop
         id="stop452"
         offset="1"
         style="stop-opacity:1;stop-color:#d1d3d4" /></linearGradient><clipPath
       id="clipPath460"
       clipPathUnits="userSpaceOnUse"><path
         id="path462"
         d="M 0,256 256,256 256,0 0,0 0,256 Z" /></clipPath></defs><g
     transform="matrix(1.25,0,0,-1.25,0,320)"
     id="g10"><g
       id="g12"><g
         clip-path="url(#clipPath16)"
         id="g14"><g
           id="g20"><g
             id="g22"><path
               id="path30"
               style="fill:url(#linearGradient24);stroke:none"
               d="M 17.342,176 C 14.392,176 12,173.636 12,170.72 l 0,0 0,-85.44 C 12,82.364 14.392,80 17.342,80 l 0,0 221.316,0 c 2.951,0 5.342,2.364 5.342,5.28 l 0,0 0,85.44 c 0,2.916 -2.391,5.28 -5.342,5.28 l 0,0 -221.316,0 z" /></g></g></g></g><g
       id="g32"><g
         clip-path="url(#clipPath36)"
         id="g34"><g
           id="g40"><g
             id="g42"><path
               id="path50"
               style="fill:url(#linearGradient44);stroke:none"
               d="m 32,172 0,-88 84,0 0,12 124,0 -0.078,48 -123.922,0 0,28 -84,0 z" /></g></g></g></g><g
       id="g52"><g
         clip-path="url(#clipPath56)"
         id="g54"><path
           id="path60"
           style="fill:#999999;fill-opacity:1;fill-rule:nonzero;stroke:none"
           d="m 188,100 -32,0 0,32 32,0 0,-32 z" /></g></g><g
       id="g62"><g
         clip-path="url(#clipPath66)"
         id="g64"><g
           id="g70"><g
             id="g72"><path
               id="path80"
               style="fill:url(#linearGradient74);stroke:none"
               d="m 158.432,116 c 0,-7.493 6.075,-13.568 13.568,-13.568 l 0,0 c 7.493,0 13.568,6.075 13.568,13.568 l 0,0 c 0,7.493 -6.075,13.568 -13.568,13.568 l 0,0 c -7.493,0 -13.568,-6.075 -13.568,-13.568" /></g></g></g></g><g
       id="g82"><g
         clip-path="url(#clipPath86)"
         id="g84"><g
           id="g90"><g
             id="g92"><path
               id="path100"
               style="fill:url(#linearGradient94);stroke:none"
               d="m 158,116 c 0,-7.719 6.281,-14 14,-14 l 0,0 c 7.719,0 14,6.281 14,14 l 0,0 c 0,7.719 -6.281,14 -14,14 l 0,0 c -7.719,0 -14,-6.281 -14,-14 m 0.863,0 c 0,7.243 5.894,13.136 13.137,13.136 l 0,0 c 7.243,0 13.136,-5.893 13.136,-13.136 l 0,0 c 0,-7.243 -5.893,-13.136 -13.136,-13.136 l 0,0 c -7.243,0 -13.137,5.893 -13.137,13.136" /></g></g></g></g><g
       id="g102"><g
         clip-path="url(#clipPath106)"
         id="g104"><g
           transform="translate(184,116)"
           id="g110"><path
             id="path112"
             style="fill:#999999;fill-opacity:1;fill-rule:nonzero;stroke:none"
             d="m 0,0 c 0,-6.627 -5.373,-12 -12,-12 -6.627,0 -12,5.373 -12,12 0,6.627 5.373,12 12,12 C -5.373,12 0,6.627 0,0" /></g><path
           id="path114"
           style="fill:#999999;fill-opacity:1;fill-rule:nonzero;stroke:none"
           d="m 188,136 -32,0 0,4 32,0 0,-4 z" /><path
           id="path116"
           style="fill:#999999;fill-opacity:1;fill-rule:nonzero;stroke:none"
           d="m 228,100 -32,0 0,32 32,0 0,-32 z" /></g></g><g
       id="g118"><g
         clip-path="url(#clipPath122)"
         id="g120"><g
           id="g126"><g
             id="g128"><path
               id="path136"
               style="fill:url(#linearGradient130);stroke:none"
               d="m 198.432,116 c 0,-7.493 6.075,-13.568 13.568,-13.568 l 0,0 c 7.494,0 13.568,6.075 13.568,13.568 l 0,0 c 0,7.493 -6.074,13.568 -13.568,13.568 l 0,0 c -7.493,0 -13.568,-6.075 -13.568,-13.568" /></g></g></g></g><g
       id="g138"><g
         clip-path="url(#clipPath142)"
         id="g140"><g
           id="g146"><g
             id="g148"><path
               id="path156"
               style="fill:url(#linearGradient150);stroke:none"
               d="m 198,116 c 0,-7.719 6.28,-14 14,-14 l 0,0 c 7.72,0 14,6.281 14,14 l 0,0 c 0,7.719 -6.28,14 -14,14 l 0,0 c -7.72,0 -14,-6.281 -14,-14 m 0.864,0 c 0,7.243 5.892,13.136 13.136,13.136 l 0,0 c 7.244,0 13.136,-5.893 13.136,-13.136 l 0,0 c 0,-7.243 -5.892,-13.136 -13.136,-13.136 l 0,0 c -7.244,0 -13.136,5.893 -13.136,13.136" /></g></g></g></g><g
       id="g158"><g
         clip-path="url(#clipPath162)"
         id="g160"><g
           transform="translate(224,116)"
           id="g166"><path
             id="path168"
             style="fill:#999999;fill-opacity:1;fill-rule:nonzero;stroke:none"
             d="m 0,0 c 0,-6.627 -5.373,-12 -12,-12 -6.627,0 -12,5.373 -12,12 0,6.627 5.373,12 12,12 C -5.373,12 0,6.627 0,0" /></g><path
           id="path170"
           style="fill:#999999;fill-opacity:1;fill-rule:nonzero;stroke:none"
           d="m 228,136 -32,0 0,4 32,0 0,-4 z" /><path
           id="path172"
           style="fill:#999999;fill-opacity:1;fill-rule:nonzero;stroke:none"
           d="m 154,100 -2,0 0,32 2,0 0,-32 z" /><path
           id="path174"
           style="fill:#999999;fill-opacity:1;fill-rule:nonzero;stroke:none"
           d="m 150,100 -2,0 0,32 2,0 0,-32 z" /><path
           id="path176"
           style="fill:#999999;fill-opacity:1;fill-rule:nonzero;stroke:none"
           d="m 146,100 -2,0 0,32 2,0 0,-32 z" /><path
           id="path178"
           style="fill:#999999;fill-opacity:1;fill-rule:nonzero;stroke:none"
           d="m 142,100 -2,0 0,32 2,0 0,-32 z" /><path
           id="path180"
           style="fill:#999999;fill-opacity:1;fill-rule:nonzero;stroke:none"
           d="m 138,100 -2,0 0,32 2,0 0,-32 z" /><path
           id="path182"
           style="fill:#999999;fill-opacity:1;fill-rule:nonzero;stroke:none"
           d="m 134,100 -2,0 0,32 2,0 0,-32 z" /><path
           id="path184"
           style="fill:#999999;fill-opacity:1;fill-rule:nonzero;stroke:none"
           d="m 130,100 -2,0 0,32 2,0 0,-32 z" /><path
           id="path186"
           style="fill:#999999;fill-opacity:1;fill-rule:nonzero;stroke:none"
           d="m 126,100 -2,0 0,32 2,0 0,-32 z" /><path
           id="path188"
           style="fill:#999999;fill-opacity:1;fill-rule:nonzero;stroke:none"
           d="m 122,100 -2,0 0,32 2,0 0,-32 z" /><path
           id="path190"
           style="fill:#999999;fill-opacity:1;fill-rule:nonzero;stroke:none"
           d="m 118,100 -2,0 0,32 2,0 0,-32 z" /><g
           transform="translate(42.4797,162)"
           id="g192"><path
             id="path194"
             style="fill:#999999;fill-opacity:1;fill-rule:nonzero;stroke:none"
             d="m 0,0 c -2.47,0 -4.48,-1.938 -4.48,-4.32 l 0,-63.36 C -4.48,-70.062 -2.47,-72 0,-72 l 63.04,0 c 2.471,0 4.48,1.938 4.48,4.32 l 0,63.36 C 67.52,-1.938 65.511,0 63.04,0 L 0,0 Z m 63.606,-74 -64.171,0 c -3.262,0 -5.915,2.562 -5.915,5.711 l 0,64.578 C -6.48,-0.562 -3.827,2 -0.565,2 l 64.171,0 c 3.261,0 5.914,-2.562 5.914,-5.711 l 0,-64.578 C 69.52,-71.438 66.867,-74 63.606,-74" /></g><g
           transform="translate(103.8755,157.3406)"
           id="g196"><path
             id="path198"
             style="fill:#999999;fill-opacity:1;fill-rule:nonzero;stroke:none"
             d="m 0,0 c -0.681,0.411 -1.477,0.659 -2.337,0.659 l -55.077,0 c -0.992,0 -1.9,-0.326 -2.641,-0.86 L -29.878,-30.759 0,0 Z" /></g><g
           transform="translate(104.5358,156.853)"
           id="g200"><path
             id="path202"
             style="fill:#999999;fill-opacity:1;fill-rule:nonzero;stroke:none"
             d="M 0,0 -29.966,-30.851 0.26,-61.459 c 0.741,0.777 1.204,1.81 1.204,2.954 l 0,55.304 C 1.464,-1.929 0.894,-0.795 0,0" /></g><g
           transform="translate(43.4471,95.1607)"
           id="g204"><path
             id="path206"
             style="fill:#999999;fill-opacity:1;fill-rule:nonzero;stroke:none"
             d="m 0,0 29.968,30.852 -30.21,30.593 c -0.742,-0.776 -1.205,-1.809 -1.205,-2.954 l 0,-55.304 C -1.447,1.923 -0.884,0.794 0,0" /></g><g
           transform="translate(73.9872,125.4342)"
           id="g208"><path
             id="path210"
             style="fill:#999999;fill-opacity:1;fill-rule:nonzero;stroke:none"
             d="m 0,0 -29.883,-30.764 c 0.686,-0.418 1.489,-0.67 2.358,-0.67 l 55.076,0 c 0.992,0 1.9,0.326 2.641,0.86 L 0,0 Z" /></g><g
           transform="translate(87.3951,98.9105)"
           id="g212"><path
             id="path214"
             style="fill:#999999;fill-opacity:1;fill-rule:nonzero;stroke:none"
             d="m 0,0 -27.066,0 c -8.021,0 -14.522,6.278 -14.522,14.022 l 0,26.135 c 0,7.744 6.501,14.022 14.522,14.022 l 27.066,0 c 8.02,0 14.522,-6.278 14.522,-14.022 l 0,-26.135 C 14.522,6.278 8.02,0 0,0" /></g></g></g><g
       id="g216"><g
         clip-path="url(#clipPath220)"
         id="g218"><g
           id="g224"><g
             id="g226"><path
               id="path234"
               style="fill:url(#linearGradient228);stroke:none"
               d="m 61.448,153.208 c -8.081,0 -14.656,-6.575 -14.656,-14.657 l 0,0 0,-25.102 c 0,-8.082 6.575,-14.657 14.656,-14.657 l 0,0 25.103,0 c 8.082,0 14.657,6.575 14.657,14.657 l 0,0 0,25.102 c 0,8.082 -6.575,14.657 -14.657,14.657 l 0,0 -25.103,0 z m -12.28,-39.759 0,25.102 c 0,6.772 5.509,12.281 12.28,12.281 l 0,0 25.103,0 c 6.772,0 12.281,-5.509 12.281,-12.281 l 0,0 0,-25.102 c 0,-6.772 -5.509,-12.281 -12.281,-12.281 l 0,0 -25.103,0 c -6.771,0 -12.28,5.509 -12.28,12.281" /></g></g></g></g><g
       id="g236"><g
         clip-path="url(#clipPath240)"
         id="g238"><g
           id="g244"><g
             id="g246"><path
               id="path254"
               style="fill:url(#linearGradient248);stroke:none"
               d="M 61.448,154 C 52.93,154 46,147.07 46,138.551 l 0,0 0,-25.102 C 46,104.93 52.93,98 61.448,98 l 0,0 25.103,0 C 95.07,98 102,104.93 102,113.449 l 0,0 0,25.102 C 102,147.07 95.07,154 86.551,154 l 0,0 -25.103,0 z m -13.864,-40.551 0,25.102 c 0,7.645 6.22,13.865 13.864,13.865 l 0,0 25.103,0 c 7.646,0 13.865,-6.22 13.865,-13.865 l 0,0 0,-25.102 c 0,-7.645 -6.219,-13.865 -13.865,-13.865 l 0,0 -25.103,0 c -7.644,0 -13.864,6.22 -13.864,13.865 m 13.864,38.175 c -7.208,0 -13.072,-5.865 -13.072,-13.073 l 0,0 0,-25.102 c 0,-7.208 5.864,-13.073 13.072,-13.073 l 0,0 25.103,0 c 7.208,0 13.073,5.865 13.073,13.073 l 0,0 0,25.102 c 0,7.208 -5.865,13.073 -13.073,13.073 l 0,0 -25.103,0 z m -11.487,-38.175 0,25.102 c 0,6.335 5.153,11.489 11.487,11.489 l 0,0 25.103,0 c 6.335,0 11.489,-5.154 11.489,-11.489 l 0,0 0,-25.102 c 0,-6.335 -5.154,-11.489 -11.489,-11.489 l 0,0 -25.103,0 c -6.334,0 -11.487,5.154 -11.487,11.489" /></g></g></g></g><g
       id="g256"><g
         clip-path="url(#clipPath260)"
         id="g258"><g
           id="g264"><g
             id="g266"><path
               id="path274"
               style="fill:url(#linearGradient268);stroke:none"
               d="m 65.179,126 c 0,-4.63 3.888,-8.383 8.683,-8.383 l 0,0 c 4.795,0 8.682,3.753 8.682,8.383 l 0,0 c 0,4.63 -3.887,8.384 -8.682,8.384 l 0,0 c -4.795,0 -8.683,-3.754 -8.683,-8.384" /></g></g></g></g><g
       id="g276"><g
         clip-path="url(#clipPath280)"
         id="g278"><g
           id="g284"><g
             id="g286"><path
               id="path294"
               style="fill:url(#linearGradient288);stroke:none"
               d="m 63.862,126 c 0,-5.513 4.486,-10 10,-10 l 0,0 c 5.514,0 10,4.487 10,10 l 0,0 c 0,5.514 -4.486,10 -10,10 l 0,0 c -5.514,0 -10,-4.486 -10,-10 m 2,0 c 0,4.411 3.588,8 8,8 l 0,0 c 4.411,0 8,-3.589 8,-8 l 0,0 c 0,-4.411 -3.589,-8 -8,-8 l 0,0 c -4.412,0 -8,3.589 -8,8" /></g></g></g></g><g
       id="g296"><g
         clip-path="url(#clipPath300)"
         id="g298"><g
           id="g304"><g
             id="g306"><path
               id="path314"
               style="fill:url(#linearGradient308);stroke:none"
               d="m 73,146.807 0,-5.614 C 73,140.534 73.448,140 74,140 l 0,0 c 0.552,0 1,0.534 1,1.193 l 0,0 0,5.614 C 75,147.466 74.552,148 74,148 l 0,0 c -0.552,0 -1,-0.534 -1,-1.193" /></g></g></g></g><g
       id="g316"><g
         clip-path="url(#clipPath320)"
         id="g318"><g
           id="g324"><g
             id="g326"><path
               id="path334"
               style="fill:url(#linearGradient328);stroke:none"
               d="m 73,110.807 0,-5.614 C 73,104.534 73.448,104 74,104 l 0,0 c 0.552,0 1,0.534 1,1.193 l 0,0 0,5.614 C 75,111.466 74.552,112 74,112 l 0,0 c -0.552,0 -1,-0.534 -1,-1.193" /></g></g></g></g><g
       id="g336"><g
         clip-path="url(#clipPath340)"
         id="g338"><g
           id="g344"><g
             id="g346"><path
               id="path354"
               style="fill:url(#linearGradient348);stroke:none"
               d="m 60.057,139.943 c -0.477,-0.478 2.181,-3.909 2.181,-3.909 l 0,0 c 0.294,-0.295 2.023,1.434 1.729,1.728 l 0,0 c 0,0 -2.89,2.238 -3.735,2.238 l 0,0 c -0.076,0 -0.136,-0.018 -0.175,-0.057" /></g></g></g></g><g
       id="g356"><g
         clip-path="url(#clipPath360)"
         id="g358"><g
           id="g364"><g
             id="g366"><path
               id="path374"
               style="fill:url(#linearGradient368);stroke:none"
               d="m 84.029,114.072 c 0,0 3.375,-2.524 3.899,-2 l 0,0 c 0.525,0.524 -2,3.898 -2,3.898 l 0,0 c -0.02,0.02 -0.048,0.03 -0.082,0.03 l 0,0 c -0.458,-0.001 -2.083,-1.662 -1.817,-1.928" /></g></g></g></g><g
       id="g376"><g
         clip-path="url(#clipPath380)"
         id="g378"><g
           id="g384"><g
             id="g386"><path
               id="path394"
               style="fill:url(#linearGradient388);stroke:none"
               d="m 84.028,137.982 c -0.283,-0.282 1.672,-2.237 1.954,-1.954 l 0,0 c 0,0 2.481,3.356 1.941,3.895 l 0,0 C 87.87,139.976 87.79,140 87.689,140 l 0,0 c -0.932,0 -3.661,-2.018 -3.661,-2.018" /></g></g></g></g><g
       id="g396"><g
         clip-path="url(#clipPath400)"
         id="g398"><g
           id="g404"><g
             id="g406"><path
               id="path414"
               style="fill:url(#linearGradient408);stroke:none"
               d="m 62.018,115.972 c 0,0 -2.481,-3.356 -1.941,-3.895 l 0,0 c 0.54,-0.54 3.895,1.941 3.895,1.941 l 0,0 C 64.236,114.281 62.553,116 62.096,116 l 0,0 c -0.032,0 -0.059,-0.009 -0.078,-0.028" /></g></g></g></g><g
       id="g416"><g
         clip-path="url(#clipPath420)"
         id="g418"><g
           id="g424"><g
             id="g426"><path
               id="path434"
               style="fill:url(#linearGradient428);stroke:none"
               d="M 89.193,127 C 88.534,127 88,126.553 88,126 l 0,0 c 0,-0.553 0.534,-1 1.193,-1 l 0,0 5.614,0 c 0.659,0 1.193,0.447 1.193,1 l 0,0 c 0,0.553 -0.534,1 -1.193,1 l 0,0 -5.614,0 z" /></g></g></g></g><g
       id="g436"><g
         clip-path="url(#clipPath440)"
         id="g438"><g
           id="g444"><g
             id="g446"><path
               id="path454"
               style="fill:url(#linearGradient448);stroke:none"
               d="M 53.193,127 C 52.534,127 52,126.553 52,126 l 0,0 c 0,-0.553 0.534,-1 1.193,-1 l 0,0 5.614,0 c 0.659,0 1.193,0.447 1.193,1 l 0,0 c 0,0.553 -0.534,1 -1.193,1 l 0,0 -5.614,0 z" /></g></g></g></g><g
       id="g456"><g
         clip-path="url(#clipPath460)"
         id="g458"><g
           transform="translate(75,154)"
           id="g464"><path
             id="path466"
             style="fill:#ffffff;fill-opacity:1;fill-rule:nonzero;stroke:none"
             d="M 0,0 -2,0 -0.995,2 0,0 Z" /></g><g
           transform="translate(73,98)"
           id="g468"><path
             id="path470"
             style="fill:#ffffff;fill-opacity:1;fill-rule:nonzero;stroke:none"
             d="M 0,0 2,0 0.995,-2 0,0 Z" /></g><g
           transform="translate(102,125.0001)"
           id="g472"><path
             id="path474"
             style="fill:#ffffff;fill-opacity:1;fill-rule:nonzero;stroke:none"
             d="M 0,0 0,2 2,0.995 0,0 Z" /></g><g
           transform="translate(46,127.0001)"
           id="g476"><path
             id="path478"
             style="fill:#ffffff;fill-opacity:1;fill-rule:nonzero;stroke:none"
             d="M 0,0 0,-2 -2,-0.995 0,0 Z" /></g></g></g></g></svg>