<?xml version="1.0" encoding="UTF-8" standalone="no"?>
<svg
   xmlns:dc="http://purl.org/dc/elements/1.1/"
   xmlns:cc="http://creativecommons.org/ns#"
   xmlns:rdf="http://www.w3.org/1999/02/22-rdf-syntax-ns#"
   xmlns:svg="http://www.w3.org/2000/svg"
   xmlns="http://www.w3.org/2000/svg"
   viewBox="0 0 320 320"
   height="320"
   width="320"
   xml:space="preserve"
   version="1.1"
   id="svg2"><metadata
     id="metadata8"><rdf:RDF><cc:Work
         rdf:about=""><dc:format>image/svg+xml</dc:format><dc:type
           rdf:resource="http://purl.org/dc/dcmitype/StillImage" /></cc:Work></rdf:RDF></metadata><defs
     id="defs6"><clipPath
       id="clipPath16"
       clipPathUnits="userSpaceOnUse"><path
         id="path18"
         d="M 12,128 C 12,63.934 63.93,12 128,12 l 0,0 c 64.051,0 116,51.934 116,116 l 0,0 c 0,64.066 -51.949,116 -116,116 l 0,0 C 63.93,244 12,192.066 12,128 m 73.998,0 c 0,23.16 18.838,42.002 42.002,42.002 l 0,0 c 23.16,0 41.997,-18.842 41.997,-42.002 l 0,0 C 169.997,104.841 151.16,85.998 128,85.998 l 0,0 c -23.164,0 -42.002,18.843 -42.002,42.002" /></clipPath><linearGradient
       id="linearGradient24"
       spreadMethod="pad"
       gradientTransform="matrix(164.04756,-164.04756,-164.04756,-164.04756,45.972565,210.02379)"
       gradientUnits="userSpaceOnUse"
       y2="0"
       x2="1"
       y1="0"
       x1="0"><stop
         id="stop26"
         offset="0"
         style="stop-opacity:1;stop-color:#e6e7e8" /><stop
         id="stop28"
         offset="1"
         style="stop-opacity:1;stop-color:#d1d3d4" /></linearGradient><clipPath
       id="clipPath36"
       clipPathUnits="userSpaceOnUse"><path
         id="path38"
         d="m 86,128 c 0,-23.145 18.845,-42 42.003,-42 l 0,0 C 151.138,86 170,104.855 170,128 l 0,0 c 0,23.144 -18.862,42 -41.997,42 l 0,0 C 104.845,170 86,151.144 86,128 m 28.216,0 c 0,7.605 6.191,13.785 13.787,13.785 l 0,0 c 7.599,0 13.776,-6.18 13.776,-13.785 l 0,0 c 0,-7.6 -6.177,-13.776 -13.776,-13.776 l 0,0 c -7.596,0 -13.787,6.176 -13.787,13.776" /></clipPath><linearGradient
       id="linearGradient44"
       spreadMethod="pad"
       gradientTransform="matrix(-59.359158,59.359158,59.359158,59.359158,157.67661,98.320419)"
       gradientUnits="userSpaceOnUse"
       y2="0"
       x2="1"
       y1="0"
       x1="0"><stop
         id="stop46"
         offset="0"
         style="stop-opacity:1;stop-color:#e6e7e8" /><stop
         id="stop48"
         offset="1"
         style="stop-opacity:1;stop-color:#d1d3d4" /></linearGradient><clipPath
       id="clipPath56"
       clipPathUnits="userSpaceOnUse"><path
         id="path58"
         d="M 0,256 256,256 256,0 0,0 0,256 Z" /></clipPath></defs><g
     transform="matrix(1.25,0,0,-1.25,0,320)"
     id="g10"><g
       id="g12"><g
         clip-path="url(#clipPath16)"
         id="g14"><g
           id="g20"><g
             id="g22"><path
               id="path30"
               style="fill:url(#linearGradient24);stroke:none"
               d="M 12,128 C 12,63.934 63.93,12 128,12 l 0,0 c 64.051,0 116,51.934 116,116 l 0,0 c 0,64.066 -51.949,116 -116,116 l 0,0 C 63.93,244 12,192.066 12,128 m 73.998,0 c 0,23.16 18.838,42.002 42.002,42.002 l 0,0 c 23.16,0 41.997,-18.842 41.997,-42.002 l 0,0 C 169.997,104.841 151.16,85.998 128,85.998 l 0,0 c -23.164,0 -42.002,18.843 -42.002,42.002" /></g></g></g></g><g
       id="g32"><g
         clip-path="url(#clipPath36)"
         id="g34"><g
           id="g40"><g
             id="g42"><path
               id="path50"
               style="fill:url(#linearGradient44);stroke:none"
               d="m 86,128 c 0,-23.145 18.845,-42 42.003,-42 l 0,0 C 151.138,86 170,104.855 170,128 l 0,0 c 0,23.144 -18.862,42 -41.997,42 l 0,0 C 104.845,170 86,151.144 86,128 m 28.216,0 c 0,7.605 6.191,13.785 13.787,13.785 l 0,0 c 7.599,0 13.776,-6.18 13.776,-13.785 l 0,0 c 0,-7.6 -6.177,-13.776 -13.776,-13.776 l 0,0 c -7.596,0 -13.787,6.176 -13.787,13.776" /></g></g></g></g><g
       id="g52"><g
         clip-path="url(#clipPath56)"
         id="g54"><g
           transform="translate(29.584,67.6167)"
           id="g60"><path
             id="path62"
             style="fill:#999999;fill-opacity:1;fill-rule:nonzero;stroke:none"
             d="m 0,0 196.83,0 c 3.533,5.652 6.588,11.629 9.119,17.878 l -215.066,0 C -6.587,11.629 -3.533,5.652 0,0" /></g></g></g></g></svg>