<?xml version="1.0" encoding="UTF-8" standalone="no"?>
<svg
   xmlns:dc="http://purl.org/dc/elements/1.1/"
   xmlns:cc="http://creativecommons.org/ns#"
   xmlns:rdf="http://www.w3.org/1999/02/22-rdf-syntax-ns#"
   xmlns:svg="http://www.w3.org/2000/svg"
   xmlns="http://www.w3.org/2000/svg"
   viewBox="0 0 320 320"
   height="320"
   width="320"
   xml:space="preserve"
   version="1.1"
   id="svg2"><metadata
     id="metadata8"><rdf:RDF><cc:Work
         rdf:about=""><dc:format>image/svg+xml</dc:format><dc:type
           rdf:resource="http://purl.org/dc/dcmitype/StillImage" /></cc:Work></rdf:RDF></metadata><defs
     id="defs6"><clipPath
       id="clipPath16"
       clipPathUnits="userSpaceOnUse"><path
         id="path18"
         d="M 0,256 256,256 256,0 0,0 0,256 Z" /></clipPath><clipPath
       id="clipPath28"
       clipPathUnits="userSpaceOnUse"><path
         id="path30"
         d="m 128,188 c -18,0 -37,12 -60,12 l 0,0 C 37.664,200 12,121.664 12,92 l 0,0 C 12,62.336 37,56 48,56 l 0,0 c 16,0 53.332,40 80,40 l 0,0 c 26.668,0 64,-40 80,-40 l 0,0 c 11,0 36,6.336 36,36 l 0,0 c 0,29.664 -25.664,108 -56,108 l 0,0 c -23,0 -42,-12 -60,-12" /></clipPath><linearGradient
       id="linearGradient36"
       spreadMethod="pad"
       gradientTransform="matrix(154.54735,-154.54735,-154.54735,-154.54735,50.726326,191.83813)"
       gradientUnits="userSpaceOnUse"
       y2="0"
       x2="1"
       y1="0"
       x1="0"><stop
         id="stop38"
         offset="0"
         style="stop-opacity:1;stop-color:#e6e7e8" /><stop
         id="stop40"
         offset="1"
         style="stop-opacity:1;stop-color:#d1d3d4" /></linearGradient><clipPath
       id="clipPath48"
       clipPathUnits="userSpaceOnUse"><path
         id="path50"
         d="m 29.985,160.717 c -2.437,-5.259 -4.681,-10.756 -6.699,-16.302 l 0,0 C 20.688,128.134 18.301,78.883 83.738,76 l 0,0 c 14.666,10 30.666,20 44,20 l 0,0 c 13.27,0 29.181,-9.905 43.789,-19.856 l 0,0 0.211,0 c 0,0 79.771,-6.816 58.302,73.456 l 0,0 c 0,0 -0.039,0.346 -0.191,0.972 l 0,0 c -0.75,1.888 -1.529,3.759 -2.33,5.611 l 0,0 C 221.285,167.157 199.878,188 127.185,188 l 0,0 c -63.576,0 -87.922,-15.943 -97.2,-27.283" /></clipPath><linearGradient
       id="linearGradient56"
       spreadMethod="pad"
       gradientTransform="matrix(-130.47771,130.47771,130.47771,130.47771,193.74895,63.797558)"
       gradientUnits="userSpaceOnUse"
       y2="0"
       x2="1"
       y1="0"
       x1="0"><stop
         id="stop58"
         offset="0"
         style="stop-opacity:1;stop-color:#e6e7e8" /><stop
         id="stop60"
         offset="1"
         style="stop-opacity:1;stop-color:#d1d3d4" /></linearGradient><clipPath
       id="clipPath68"
       clipPathUnits="userSpaceOnUse"><path
         id="path70"
         d="m 34,128 c 0,-14.336 11.663,-26 26,-26 l 0,0 c 14.336,0 26,11.664 26,26 l 0,0 c 0,14.337 -11.664,26 -26,26 l 0,0 C 45.663,154 34,142.337 34,128" /></clipPath><linearGradient
       id="linearGradient76"
       spreadMethod="pad"
       gradientTransform="matrix(36.752331,-36.752331,-36.752331,-36.752331,41.623833,146.37616)"
       gradientUnits="userSpaceOnUse"
       y2="0"
       x2="1"
       y1="0"
       x1="0"><stop
         id="stop78"
         offset="0"
         style="stop-opacity:1;stop-color:#e6e7e8" /><stop
         id="stop80"
         offset="1"
         style="stop-opacity:1;stop-color:#d1d3d4" /></linearGradient><clipPath
       id="clipPath88"
       clipPathUnits="userSpaceOnUse"><path
         id="path90"
         d="m 38,128 c 0,-12.15 9.849,-22 22,-22 l 0,0 c 12.15,0 22,9.85 22,22 l 0,0 c 0,12.151 -9.85,22 -22,22 l 0,0 c -12.151,0 -22,-9.849 -22,-22" /></clipPath><linearGradient
       id="linearGradient96"
       spreadMethod="pad"
       gradientTransform="matrix(-31.112698,31.112698,31.112698,31.112698,75.556351,112.44365)"
       gradientUnits="userSpaceOnUse"
       y2="0"
       x2="1"
       y1="0"
       x1="0"><stop
         id="stop98"
         offset="0"
         style="stop-opacity:1;stop-color:#e6e7e8" /><stop
         id="stop100"
         offset="1"
         style="stop-opacity:1;stop-color:#d1d3d4" /></linearGradient><clipPath
       id="clipPath108"
       clipPathUnits="userSpaceOnUse"><path
         id="path110"
         d="M 0,256 256,256 256,0 0,0 0,256 Z" /></clipPath><clipPath
       id="clipPath148"
       clipPathUnits="userSpaceOnUse"><path
         id="path150"
         d="m 56,128 c 0,-2.209 1.791,-4 4,-4 l 0,0 c 2.209,0 4,1.791 4,4 l 0,0 c 0,2.209 -1.791,4 -4,4 l 0,0 c -2.209,0 -4,-1.791 -4,-4" /></clipPath><linearGradient
       id="linearGradient156"
       spreadMethod="pad"
       gradientTransform="matrix(5.6568542,-5.6568542,-5.6568542,-5.6568542,57.171574,130.82843)"
       gradientUnits="userSpaceOnUse"
       y2="0"
       x2="1"
       y1="0"
       x1="0"><stop
         id="stop158"
         offset="0"
         style="stop-opacity:1;stop-color:#e6e7e8" /><stop
         id="stop160"
         offset="1"
         style="stop-opacity:1;stop-color:#d1d3d4" /></linearGradient></defs><g
     transform="matrix(1.25,0,0,-1.25,0,320)"
     id="g10"><g
       id="g12"><g
         clip-path="url(#clipPath16)"
         id="g14"><g
           transform="translate(188.2956,204)"
           id="g20"><path
             id="path22"
             style="fill:#999999;fill-opacity:1;fill-rule:nonzero;stroke:none"
             d="m 0,0 c -23.113,0 -42.207,-26.5 -60.296,-26.5 -18.088,0 -37.182,26.5 -60.295,26.5 -30.486,0 -41.705,-78.336 -41.705,-108 0,-29.664 10.552,-36 21.606,-36 16.079,0 53.595,40 80.394,40 26.8,0 64.316,-40 80.395,-40 11.054,0 21.605,6.336 21.605,36 C 41.704,-78.336 30.485,0 0,0" /></g></g></g><g
       id="g24"><g
         clip-path="url(#clipPath28)"
         id="g26"><g
           id="g32"><g
             id="g34"><path
               id="path42"
               style="fill:url(#linearGradient36);stroke:none"
               d="m 128,188 c -18,0 -37,12 -60,12 l 0,0 C 37.664,200 12,121.664 12,92 l 0,0 C 12,62.336 37,56 48,56 l 0,0 c 16,0 53.332,40 80,40 l 0,0 c 26.668,0 64,-40 80,-40 l 0,0 c 11,0 36,6.336 36,36 l 0,0 c 0,29.664 -25.664,108 -56,108 l 0,0 c -23,0 -42,-12 -60,-12" /></g></g></g></g><g
       id="g44"><g
         clip-path="url(#clipPath48)"
         id="g46"><g
           id="g52"><g
             id="g54"><path
               id="path62"
               style="fill:url(#linearGradient56);stroke:none"
               d="m 29.985,160.717 c -2.437,-5.259 -4.681,-10.756 -6.699,-16.302 l 0,0 C 20.688,128.134 18.301,78.883 83.738,76 l 0,0 c 14.666,10 30.666,20 44,20 l 0,0 c 13.27,0 29.181,-9.905 43.789,-19.856 l 0,0 0.211,0 c 0,0 79.771,-6.816 58.302,73.456 l 0,0 c 0,0 -0.039,0.346 -0.191,0.972 l 0,0 c -0.75,1.888 -1.529,3.759 -2.33,5.611 l 0,0 C 221.285,167.157 199.878,188 127.185,188 l 0,0 c -63.576,0 -87.922,-15.943 -97.2,-27.283" /></g></g></g></g><g
       id="g64"><g
         clip-path="url(#clipPath68)"
         id="g66"><g
           id="g72"><g
             id="g74"><path
               id="path82"
               style="fill:url(#linearGradient76);stroke:none"
               d="m 34,128 c 0,-14.336 11.663,-26 26,-26 l 0,0 c 14.336,0 26,11.664 26,26 l 0,0 c 0,14.337 -11.664,26 -26,26 l 0,0 C 45.663,154 34,142.337 34,128" /></g></g></g></g><g
       id="g84"><g
         clip-path="url(#clipPath88)"
         id="g86"><g
           id="g92"><g
             id="g94"><path
               id="path102"
               style="fill:url(#linearGradient96);stroke:none"
               d="m 38,128 c 0,-12.15 9.849,-22 22,-22 l 0,0 c 12.15,0 22,9.85 22,22 l 0,0 c 0,12.151 -9.85,22 -22,22 l 0,0 c -12.151,0 -22,-9.849 -22,-22" /></g></g></g></g><g
       id="g104"><g
         clip-path="url(#clipPath108)"
         id="g106"><g
           transform="translate(176,160)"
           id="g112"><path
             id="path114"
             style="fill:#999999;fill-opacity:1;fill-rule:nonzero;stroke:none"
             d="m 0,0 c 4.416,0 8,-3.584 8,-8 0,-4.416 -3.584,-8 -8,-8 -4.416,0 -8,3.584 -8,8 0,4.416 3.584,8 8,8" /></g><g
           transform="translate(80,126)"
           id="g116"><path
             id="path118"
             style="fill:#999999;fill-opacity:1;fill-rule:nonzero;stroke:none"
             d="m 0,0 c 0,-2.212 -1.788,-4 -4,-4 l -10,0 0,-10 c 0,-2.212 -1.788,-4 -4,-4 l -4,0 c -2.212,0 -4,1.788 -4,4 l 0,10 -10,0 c -2.212,0 -4,1.788 -4,4 l 0,4 c 0,2.212 1.788,4 4,4 l 10,0 0,10 c 0,2.212 1.788,4 4,4 l 4,0 c 2.212,0 4,-1.788 4,-4 L -14,8 -4,8 C -1.788,8 0,6.212 0,4 L 0,0 Z" /></g><g
           transform="translate(128,108)"
           id="g120"><path
             id="path122"
             style="fill:#999999;fill-opacity:1;fill-rule:nonzero;stroke:none"
             d="M 0,0 C -4.416,0 -8,0.896 -8,2 -8,3.104 -4.416,4 0,4 4.416,4 8,3.104 8,2 8,0.896 4.416,0 0,0" /></g><g
           transform="translate(148,140)"
           id="g124"><path
             id="path126"
             style="fill:#999999;fill-opacity:1;fill-rule:nonzero;stroke:none"
             d="M 0,0 C 0,4.416 3.584,8 8,8 12.416,8 16,4.416 16,0 16,-4.416 12.416,-8 8,-8 3.584,-8 0,-4.416 0,0" /></g><g
           transform="translate(164,100.5)"
           id="g128"><path
             id="path130"
             style="fill:#999999;fill-opacity:1;fill-rule:nonzero;stroke:none"
             d="M 0,0 C -6.628,0 -12,5.148 -12,11.5 -12,17.852 -6.628,23 0,23 6.628,23 12,17.852 12,11.5 12,5.148 6.628,0 0,0" /></g><g
           transform="translate(188,116)"
           id="g132"><path
             id="path134"
             style="fill:#999999;fill-opacity:1;fill-rule:nonzero;stroke:none"
             d="m 0,0 c -6.628,0 -12,5.372 -12,12 0,6.628 5.372,12 12,12 C 6.628,24 12,18.628 12,12 12,5.372 6.628,0 0,0" /></g><g
           transform="translate(196,156)"
           id="g136"><path
             id="path138"
             style="fill:#999999;fill-opacity:1;fill-rule:nonzero;stroke:none"
             d="m 0,0 c -4.416,0 -8,3.584 -8,8 0,4.416 3.584,8 8,8 C 4.416,16 8,12.416 8,8 8,3.584 4.416,0 0,0" /></g><g
           transform="translate(212,132)"
           id="g140"><path
             id="path142"
             style="fill:#999999;fill-opacity:1;fill-rule:nonzero;stroke:none"
             d="m 0,0 c -6.628,0 -12,5.372 -12,12 0,6.628 5.372,12 12,12 C 6.628,24 12,18.628 12,12 12,5.372 6.628,0 0,0" /></g></g></g><g
       id="g144"><g
         clip-path="url(#clipPath148)"
         id="g146"><g
           id="g152"><g
             id="g154"><path
               id="path162"
               style="fill:url(#linearGradient156);stroke:none"
               d="m 56,128 c 0,-2.209 1.791,-4 4,-4 l 0,0 c 2.209,0 4,1.791 4,4 l 0,0 c 0,2.209 -1.791,4 -4,4 l 0,0 c -2.209,0 -4,-1.791 -4,-4" /></g></g></g></g></g></svg>