<?xml version="1.0" encoding="UTF-8" standalone="no"?>
<svg
   xmlns:dc="http://purl.org/dc/elements/1.1/"
   xmlns:cc="http://creativecommons.org/ns#"
   xmlns:rdf="http://www.w3.org/1999/02/22-rdf-syntax-ns#"
   xmlns:svg="http://www.w3.org/2000/svg"
   xmlns="http://www.w3.org/2000/svg"
   viewBox="0 0 320 320"
   height="320"
   width="320"
   xml:space="preserve"
   version="1.1"
   id="svg2"><metadata
     id="metadata8"><rdf:RDF><cc:Work
         rdf:about=""><dc:format>image/svg+xml</dc:format><dc:type
           rdf:resource="http://purl.org/dc/dcmitype/StillImage" /></cc:Work></rdf:RDF></metadata><defs
     id="defs6"><clipPath
       id="clipPath16"
       clipPathUnits="userSpaceOnUse"><path
         id="path18"
         d="M 12,200 12,20.089 C 12,17.831 14.164,16 16.834,16 l 0,0 222.333,0 c 2.669,0 4.833,1.831 4.833,4.089 l 0,0 0,179.911 -232,0 z" /></clipPath><linearGradient
       id="linearGradient24"
       spreadMethod="pad"
       gradientTransform="matrix(-206.70439,206.70439,206.70439,206.70439,231.3522,5.9434009)"
       gradientUnits="userSpaceOnUse"
       y2="0"
       x2="1"
       y1="0"
       x1="0"><stop
         id="stop26"
         offset="0"
         style="stop-opacity:1;stop-color:#e6e7e8" /><stop
         id="stop28"
         offset="1"
         style="stop-opacity:1;stop-color:#d1d3d4" /></linearGradient><clipPath
       id="clipPath36"
       clipPathUnits="userSpaceOnUse"><path
         id="path38"
         d="M 21.667,240 C 16.328,240 12,235.77 12,230.553 l 0,0 0,-86.2 c 0,0 0,-4.723 8.458,-4.33 l 0,0 c 8.459,0.394 7.25,4.724 7.25,4.724 l 0,0 0,23.9 c 0.403,28.624 32.625,28.449 32.625,28.449 l 0,0 135.333,0 c 0,0 32.223,0.175 32.625,-28.449 l 0,0 0,-23.9 c 0,0 -1.208,-4.33 7.251,-4.724 l 0,0 c 8.458,-0.393 8.458,4.33 8.458,4.33 l 0,0 0,86.2 c 0,5.217 -4.328,9.447 -9.667,9.447 l 0,0 -212.666,0 z" /></clipPath><linearGradient
       id="linearGradient44"
       spreadMethod="pad"
       gradientTransform="matrix(161.65422,-161.65422,-161.65422,-161.65422,47.17289,269.57559)"
       gradientUnits="userSpaceOnUse"
       y2="0"
       x2="1"
       y1="0"
       x1="0"><stop
         id="stop46"
         offset="0"
         style="stop-opacity:1;stop-color:#e6e7e8" /><stop
         id="stop48"
         offset="1"
         style="stop-opacity:1;stop-color:#d1d3d4" /></linearGradient><clipPath
       id="clipPath56"
       clipPathUnits="userSpaceOnUse"><path
         id="path58"
         d="M 0,256 256,256 256,0 0,0 0,256 Z" /></clipPath><clipPath
       id="clipPath76"
       clipPathUnits="userSpaceOnUse"><path
         id="path78"
         d="M 36,88 36,69.053 C 36,66.262 38.207,64 40.928,64 l 0,0 174.143,0 c 2.723,0 4.929,2.262 4.929,5.053 l 0,0 L 220,88 36,88 Z" /></clipPath><linearGradient
       id="linearGradient84"
       spreadMethod="pad"
       gradientTransform="matrix(102.53857,-102.53857,-102.53857,-102.53857,76.730721,128.73071)"
       gradientUnits="userSpaceOnUse"
       y2="0"
       x2="1"
       y1="0"
       x1="0"><stop
         id="stop86"
         offset="0"
         style="stop-opacity:1;stop-color:#e6e7e8" /><stop
         id="stop88"
         offset="1"
         style="stop-opacity:1;stop-color:#d1d3d4" /></linearGradient><clipPath
       id="clipPath96"
       clipPathUnits="userSpaceOnUse"><path
         id="path98"
         d="M 0,256 256,256 256,0 0,0 0,256 Z" /></clipPath></defs><g
     transform="matrix(1.25,0,0,-1.25,0,320)"
     id="g10"><g
       id="g12"><g
         clip-path="url(#clipPath16)"
         id="g14"><g
           id="g20"><g
             id="g22"><path
               id="path30"
               style="fill:url(#linearGradient24);stroke:none"
               d="M 12,200 12,20.089 C 12,17.831 14.164,16 16.834,16 l 0,0 222.333,0 c 2.669,0 4.833,1.831 4.833,4.089 l 0,0 0,179.911 -232,0 z" /></g></g></g></g><g
       id="g32"><g
         clip-path="url(#clipPath36)"
         id="g34"><g
           id="g40"><g
             id="g42"><path
               id="path50"
               style="fill:url(#linearGradient44);stroke:none"
               d="M 21.667,240 C 16.328,240 12,235.77 12,230.553 l 0,0 0,-86.2 c 0,0 0,-4.723 8.458,-4.33 l 0,0 c 8.459,0.394 7.25,4.724 7.25,4.724 l 0,0 0,23.9 c 0.403,28.624 32.625,28.449 32.625,28.449 l 0,0 135.333,0 c 0,0 32.223,0.175 32.625,-28.449 l 0,0 0,-23.9 c 0,0 -1.208,-4.33 7.251,-4.724 l 0,0 c 8.458,-0.393 8.458,4.33 8.458,4.33 l 0,0 0,86.2 c 0,5.217 -4.328,9.447 -9.667,9.447 l 0,0 -212.666,0 z" /></g></g></g></g><g
       id="g52"><g
         clip-path="url(#clipPath56)"
         id="g54"><path
           id="path60"
           style="fill:#999999;fill-opacity:1;fill-rule:nonzero;stroke:none"
           d="m 184,208 -112,0 0,4 112,0 0,-4 z" /><path
           id="path62"
           style="fill:#999999;fill-opacity:1;fill-rule:nonzero;stroke:none"
           d="m 184,200 -112,0 0,4 112,0 0,-4 z" /><g
           transform="translate(200.2857,188)"
           id="g64"><path
             id="path66"
             style="fill:#ffffff;fill-opacity:1;fill-rule:nonzero;stroke:none"
             d="m 0,0 c 10.87,0 19.714,-8.585 19.714,-19.138 l 0,-100.077 c 0,-2.643 -2.206,-4.785 -4.928,-4.785 l -174.143,0 c -2.722,0 -4.929,2.142 -4.929,4.785 l 0,100.077 c 0,10.57 8.827,19.138 19.715,19.138 L 0,0" /></g><g
           transform="translate(161.7533,28)"
           id="g68"><path
             id="path70"
             style="fill:#999999;fill-opacity:1;fill-rule:nonzero;stroke:none"
             d="m 0,0 -67.507,0 c -6.735,0 -12.246,5.4 -12.246,12 l 0,0 c 0,6.6 5.511,12 12.246,12 L 0,24 c 6.736,0 12.247,-5.4 12.247,-12 l 0,0 C 12.247,5.4 6.736,0 0,0" /></g></g></g><g
       id="g72"><g
         clip-path="url(#clipPath76)"
         id="g74"><g
           id="g80"><g
             id="g82"><path
               id="path90"
               style="fill:url(#linearGradient84);stroke:none"
               d="M 36,88 36,69.053 C 36,66.262 38.207,64 40.928,64 l 0,0 174.143,0 c 2.723,0 4.929,2.262 4.929,5.053 l 0,0 L 220,88 36,88 Z" /></g></g></g></g><g
       id="g92"><g
         clip-path="url(#clipPath96)"
         id="g94"><g
           transform="translate(68,64)"
           id="g100"><path
             id="path102"
             style="fill:#999999;fill-opacity:1;fill-rule:nonzero;stroke:none"
             d="M 0,0 -27.352,0 C -29.919,0 -32,2.142 -32,4.785 l 0,100.077 c 0,10.57 8.323,19.138 18.59,19.138 L 0,124 0,0 Z" /></g><g
           transform="translate(129,237)"
           id="g104"><path
             id="path106"
             style="fill:#999999;fill-opacity:1;fill-rule:nonzero;stroke:none"
             d="m 0,0 c 0,-0.552 -0.448,-1 -1,-1 -0.552,0 -1,0.448 -1,1 0,0.552 0.448,1 1,1 0.552,0 1,-0.448 1,-1" /></g><g
           transform="translate(137,237)"
           id="g108"><path
             id="path110"
             style="fill:#999999;fill-opacity:1;fill-rule:nonzero;stroke:none"
             d="m 0,0 c 0,-0.552 -0.448,-1 -1,-1 -0.552,0 -1,0.448 -1,1 0,0.552 0.448,1 1,1 0.552,0 1,-0.448 1,-1" /></g><g
           transform="translate(145,237)"
           id="g112"><path
             id="path114"
             style="fill:#999999;fill-opacity:1;fill-rule:nonzero;stroke:none"
             d="m 0,0 c 0,-0.552 -0.448,-1 -1,-1 -0.552,0 -1,0.448 -1,1 0,0.552 0.448,1 1,1 0.552,0 1,-0.448 1,-1" /></g><g
           transform="translate(153,237)"
           id="g116"><path
             id="path118"
             style="fill:#999999;fill-opacity:1;fill-rule:nonzero;stroke:none"
             d="m 0,0 c 0,-0.552 -0.448,-1 -1,-1 -0.552,0 -1,0.448 -1,1 0,0.552 0.448,1 1,1 0.552,0 1,-0.448 1,-1" /></g><g
           transform="translate(121,237)"
           id="g120"><path
             id="path122"
             style="fill:#999999;fill-opacity:1;fill-rule:nonzero;stroke:none"
             d="m 0,0 c 0,-0.552 -0.448,-1 -1,-1 -0.552,0 -1,0.448 -1,1 0,0.552 0.448,1 1,1 0.552,0 1,-0.448 1,-1" /></g><g
           transform="translate(113,237)"
           id="g124"><path
             id="path126"
             style="fill:#999999;fill-opacity:1;fill-rule:nonzero;stroke:none"
             d="m 0,0 c 0,-0.552 -0.448,-1 -1,-1 -0.552,0 -1,0.448 -1,1 0,0.552 0.448,1 1,1 0.552,0 1,-0.448 1,-1" /></g><g
           transform="translate(105,237)"
           id="g128"><path
             id="path130"
             style="fill:#999999;fill-opacity:1;fill-rule:nonzero;stroke:none"
             d="m 0,0 c 0,-0.552 -0.448,-1 -1,-1 -0.552,0 -1,0.448 -1,1 0,0.552 0.448,1 1,1 0.552,0 1,-0.448 1,-1" /></g></g></g></g></svg>