<?xml version="1.0" encoding="UTF-8" standalone="no"?>
<svg
   xmlns:dc="http://purl.org/dc/elements/1.1/"
   xmlns:cc="http://creativecommons.org/ns#"
   xmlns:rdf="http://www.w3.org/1999/02/22-rdf-syntax-ns#"
   xmlns:svg="http://www.w3.org/2000/svg"
   xmlns="http://www.w3.org/2000/svg"
   viewBox="0 0 320 320"
   height="320"
   width="320"
   xml:space="preserve"
   version="1.1"
   id="svg2"><metadata
     id="metadata8"><rdf:RDF><cc:Work
         rdf:about=""><dc:format>image/svg+xml</dc:format><dc:type
           rdf:resource="http://purl.org/dc/dcmitype/StillImage" /></cc:Work></rdf:RDF></metadata><defs
     id="defs6"><clipPath
       id="clipPath16"
       clipPathUnits="userSpaceOnUse"><path
         id="path18"
         d="M 28.325,196 C 20.413,196 14,189.445 14,181.357 l 0,0 0,-59.357 12,0 0,-10 -12,0 0,-29.357 C 14,74.556 20.413,68 28.325,68 l 0,0 199.351,0 C 235.587,68 242,74.556 242,82.643 l 0,0 0,98.714 C 242,189.445 235.587,196 227.676,196 l 0,0 -199.351,0 z" /></clipPath><linearGradient
       id="linearGradient24"
       spreadMethod="pad"
       gradientTransform="matrix(-165.65533,171.54111,171.54111,165.65533,210.82767,46.229439)"
       gradientUnits="userSpaceOnUse"
       y2="0"
       x2="1"
       y1="0"
       x1="0"><stop
         id="stop26"
         offset="0"
         style="stop-opacity:1;stop-color:#e6e7e8" /><stop
         id="stop28"
         offset="1"
         style="stop-opacity:1;stop-color:#d1d3d4" /></linearGradient><clipPath
       id="clipPath36"
       clipPathUnits="userSpaceOnUse"><path
         id="path38"
         d="m 31,198 c -0.552,0 -1,-0.447 -1,-1 l 0,0 0,-138 c 0,-0.552 0.448,-1 1,-1 l 0,0 194,0 c 0.553,0 1,0.448 1,1 l 0,0 0,138 c 0,0.553 -0.447,1 -1,1 l 0,0 -194,0 z" /></clipPath><linearGradient
       id="linearGradient44"
       spreadMethod="pad"
       gradientTransform="matrix(167.4142,-167.4142,-167.4142,-167.4142,44.292893,211.70711)"
       gradientUnits="userSpaceOnUse"
       y2="0"
       x2="1"
       y1="0"
       x1="0"><stop
         id="stop46"
         offset="0"
         style="stop-opacity:1;stop-color:#e6e7e8" /><stop
         id="stop48"
         offset="1"
         style="stop-opacity:1;stop-color:#d1d3d4" /></linearGradient><clipPath
       id="clipPath56"
       clipPathUnits="userSpaceOnUse"><path
         id="path58"
         d="M 0,256 256,256 256,0 0,0 0,256 Z" /></clipPath><clipPath
       id="clipPath72"
       clipPathUnits="userSpaceOnUse"><path
         id="path74"
         d="m 232,166 12,0 0,2.001 -12,0 0,-2.001 z" /></clipPath><linearGradient
       id="linearGradient80"
       spreadMethod="pad"
       gradientTransform="matrix(-7,7,7,7,241.5,163.5)"
       gradientUnits="userSpaceOnUse"
       y2="0"
       x2="1"
       y1="0"
       x1="0"><stop
         id="stop82"
         offset="0"
         style="stop-opacity:1;stop-color:#e6e7e8" /><stop
         id="stop84"
         offset="1"
         style="stop-opacity:1;stop-color:#d1d3d4" /></linearGradient><clipPath
       id="clipPath92"
       clipPathUnits="userSpaceOnUse"><path
         id="path94"
         d="m 232,162 12,0 0,2 -12,0 0,-2 z" /></clipPath><linearGradient
       id="linearGradient100"
       spreadMethod="pad"
       gradientTransform="matrix(-7,7,7,7,241.5,159.5)"
       gradientUnits="userSpaceOnUse"
       y2="0"
       x2="1"
       y1="0"
       x1="0"><stop
         id="stop102"
         offset="0"
         style="stop-opacity:1;stop-color:#e6e7e8" /><stop
         id="stop104"
         offset="1"
         style="stop-opacity:1;stop-color:#d1d3d4" /></linearGradient><clipPath
       id="clipPath112"
       clipPathUnits="userSpaceOnUse"><path
         id="path114"
         d="m 232,158 12,0 0,2 -12,0 0,-2 z" /></clipPath><linearGradient
       id="linearGradient120"
       spreadMethod="pad"
       gradientTransform="matrix(-7,7,7,7,241.5,155.5)"
       gradientUnits="userSpaceOnUse"
       y2="0"
       x2="1"
       y1="0"
       x1="0"><stop
         id="stop122"
         offset="0"
         style="stop-opacity:1;stop-color:#e6e7e8" /><stop
         id="stop124"
         offset="1"
         style="stop-opacity:1;stop-color:#d1d3d4" /></linearGradient><clipPath
       id="clipPath132"
       clipPathUnits="userSpaceOnUse"><path
         id="path134"
         d="m 232,154 12,0 0,2 -12,0 0,-2 z" /></clipPath><linearGradient
       id="linearGradient140"
       spreadMethod="pad"
       gradientTransform="matrix(-7,7,7,7,241.5,151.5)"
       gradientUnits="userSpaceOnUse"
       y2="0"
       x2="1"
       y1="0"
       x1="0"><stop
         id="stop142"
         offset="0"
         style="stop-opacity:1;stop-color:#e6e7e8" /><stop
         id="stop144"
         offset="1"
         style="stop-opacity:1;stop-color:#d1d3d4" /></linearGradient><clipPath
       id="clipPath152"
       clipPathUnits="userSpaceOnUse"><path
         id="path154"
         d="m 232,150 12,0 0,2 -12,0 0,-2 z" /></clipPath><linearGradient
       id="linearGradient160"
       spreadMethod="pad"
       gradientTransform="matrix(-7,7,7,7,241.5,147.5)"
       gradientUnits="userSpaceOnUse"
       y2="0"
       x2="1"
       y1="0"
       x1="0"><stop
         id="stop162"
         offset="0"
         style="stop-opacity:1;stop-color:#e6e7e8" /><stop
         id="stop164"
         offset="1"
         style="stop-opacity:1;stop-color:#d1d3d4" /></linearGradient><clipPath
       id="clipPath172"
       clipPathUnits="userSpaceOnUse"><path
         id="path174"
         d="m 232,146 12,0 0,2 -12,0 0,-2 z" /></clipPath><linearGradient
       id="linearGradient180"
       spreadMethod="pad"
       gradientTransform="matrix(-7,7,7,7,241.5,143.5)"
       gradientUnits="userSpaceOnUse"
       y2="0"
       x2="1"
       y1="0"
       x1="0"><stop
         id="stop182"
         offset="0"
         style="stop-opacity:1;stop-color:#e6e7e8" /><stop
         id="stop184"
         offset="1"
         style="stop-opacity:1;stop-color:#d1d3d4" /></linearGradient><clipPath
       id="clipPath192"
       clipPathUnits="userSpaceOnUse"><path
         id="path194"
         d="m 232,142 12,0 0,2 -12,0 0,-2 z" /></clipPath><linearGradient
       id="linearGradient200"
       spreadMethod="pad"
       gradientTransform="matrix(-7,7,7,7,241.5,139.5)"
       gradientUnits="userSpaceOnUse"
       y2="0"
       x2="1"
       y1="0"
       x1="0"><stop
         id="stop202"
         offset="0"
         style="stop-opacity:1;stop-color:#e6e7e8" /><stop
         id="stop204"
         offset="1"
         style="stop-opacity:1;stop-color:#d1d3d4" /></linearGradient><clipPath
       id="clipPath212"
       clipPathUnits="userSpaceOnUse"><path
         id="path214"
         d="m 232,138 12,0 0,2.001 -12,0 0,-2.001 z" /></clipPath><linearGradient
       id="linearGradient220"
       spreadMethod="pad"
       gradientTransform="matrix(-7,7,7,7,241.5,135.5)"
       gradientUnits="userSpaceOnUse"
       y2="0"
       x2="1"
       y1="0"
       x1="0"><stop
         id="stop222"
         offset="0"
         style="stop-opacity:1;stop-color:#e6e7e8" /><stop
         id="stop224"
         offset="1"
         style="stop-opacity:1;stop-color:#d1d3d4" /></linearGradient><clipPath
       id="clipPath232"
       clipPathUnits="userSpaceOnUse"><path
         id="path234"
         d="m 232,134 12,0 0,2 -12,0 0,-2 z" /></clipPath><linearGradient
       id="linearGradient240"
       spreadMethod="pad"
       gradientTransform="matrix(-7,7,7,7,241.5,131.5)"
       gradientUnits="userSpaceOnUse"
       y2="0"
       x2="1"
       y1="0"
       x1="0"><stop
         id="stop242"
         offset="0"
         style="stop-opacity:1;stop-color:#e6e7e8" /><stop
         id="stop244"
         offset="1"
         style="stop-opacity:1;stop-color:#d1d3d4" /></linearGradient><clipPath
       id="clipPath252"
       clipPathUnits="userSpaceOnUse"><path
         id="path254"
         d="m 232,130 12,0 0,2.001 -12,0 0,-2.001 z" /></clipPath><linearGradient
       id="linearGradient260"
       spreadMethod="pad"
       gradientTransform="matrix(-7,7,7,7,241.5,127.5)"
       gradientUnits="userSpaceOnUse"
       y2="0"
       x2="1"
       y1="0"
       x1="0"><stop
         id="stop262"
         offset="0"
         style="stop-opacity:1;stop-color:#e6e7e8" /><stop
         id="stop264"
         offset="1"
         style="stop-opacity:1;stop-color:#d1d3d4" /></linearGradient><clipPath
       id="clipPath272"
       clipPathUnits="userSpaceOnUse"><path
         id="path274"
         d="m 232,126 12,0 0,2 -12,0 0,-2 z" /></clipPath><linearGradient
       id="linearGradient280"
       spreadMethod="pad"
       gradientTransform="matrix(-7,7,7,7,241.5,123.5)"
       gradientUnits="userSpaceOnUse"
       y2="0"
       x2="1"
       y1="0"
       x1="0"><stop
         id="stop282"
         offset="0"
         style="stop-opacity:1;stop-color:#e6e7e8" /><stop
         id="stop284"
         offset="1"
         style="stop-opacity:1;stop-color:#d1d3d4" /></linearGradient><clipPath
       id="clipPath292"
       clipPathUnits="userSpaceOnUse"><path
         id="path294"
         d="m 232,122 12,0 0,2 -12,0 0,-2 z" /></clipPath><linearGradient
       id="linearGradient300"
       spreadMethod="pad"
       gradientTransform="matrix(-7,7,7,7,241.5,119.5)"
       gradientUnits="userSpaceOnUse"
       y2="0"
       x2="1"
       y1="0"
       x1="0"><stop
         id="stop302"
         offset="0"
         style="stop-opacity:1;stop-color:#e6e7e8" /><stop
         id="stop304"
         offset="1"
         style="stop-opacity:1;stop-color:#d1d3d4" /></linearGradient><clipPath
       id="clipPath312"
       clipPathUnits="userSpaceOnUse"><path
         id="path314"
         d="m 232,118 12,0 0,2 -12,0 0,-2 z" /></clipPath><linearGradient
       id="linearGradient320"
       spreadMethod="pad"
       gradientTransform="matrix(-7,7,7,7,241.5,115.5)"
       gradientUnits="userSpaceOnUse"
       y2="0"
       x2="1"
       y1="0"
       x1="0"><stop
         id="stop322"
         offset="0"
         style="stop-opacity:1;stop-color:#e6e7e8" /><stop
         id="stop324"
         offset="1"
         style="stop-opacity:1;stop-color:#d1d3d4" /></linearGradient><clipPath
       id="clipPath332"
       clipPathUnits="userSpaceOnUse"><path
         id="path334"
         d="m 232,114 12,0 0,2 -12,0 0,-2 z" /></clipPath><linearGradient
       id="linearGradient340"
       spreadMethod="pad"
       gradientTransform="matrix(-7,7,7,7,241.5,111.5)"
       gradientUnits="userSpaceOnUse"
       y2="0"
       x2="1"
       y1="0"
       x1="0"><stop
         id="stop342"
         offset="0"
         style="stop-opacity:1;stop-color:#e6e7e8" /><stop
         id="stop344"
         offset="1"
         style="stop-opacity:1;stop-color:#d1d3d4" /></linearGradient><clipPath
       id="clipPath352"
       clipPathUnits="userSpaceOnUse"><path
         id="path354"
         d="m 232,110 12,0 0,2 -12,0 0,-2 z" /></clipPath><linearGradient
       id="linearGradient360"
       spreadMethod="pad"
       gradientTransform="matrix(-7,7,7,7,241.5,107.5)"
       gradientUnits="userSpaceOnUse"
       y2="0"
       x2="1"
       y1="0"
       x1="0"><stop
         id="stop362"
         offset="0"
         style="stop-opacity:1;stop-color:#e6e7e8" /><stop
         id="stop364"
         offset="1"
         style="stop-opacity:1;stop-color:#d1d3d4" /></linearGradient><clipPath
       id="clipPath372"
       clipPathUnits="userSpaceOnUse"><path
         id="path374"
         d="m 232,106 12,0 0,2 -12,0 0,-2 z" /></clipPath><linearGradient
       id="linearGradient380"
       spreadMethod="pad"
       gradientTransform="matrix(-7,7,7,7,241.5,103.5)"
       gradientUnits="userSpaceOnUse"
       y2="0"
       x2="1"
       y1="0"
       x1="0"><stop
         id="stop382"
         offset="0"
         style="stop-opacity:1;stop-color:#e6e7e8" /><stop
         id="stop384"
         offset="1"
         style="stop-opacity:1;stop-color:#d1d3d4" /></linearGradient><clipPath
       id="clipPath392"
       clipPathUnits="userSpaceOnUse"><path
         id="path394"
         d="m 232,102 12,0 0,2.001 -12,0 0,-2.001 z" /></clipPath><linearGradient
       id="linearGradient400"
       spreadMethod="pad"
       gradientTransform="matrix(-7,7,7,7,241.5,99.5)"
       gradientUnits="userSpaceOnUse"
       y2="0"
       x2="1"
       y1="0"
       x1="0"><stop
         id="stop402"
         offset="0"
         style="stop-opacity:1;stop-color:#e6e7e8" /><stop
         id="stop404"
         offset="1"
         style="stop-opacity:1;stop-color:#d1d3d4" /></linearGradient><clipPath
       id="clipPath412"
       clipPathUnits="userSpaceOnUse"><path
         id="path414"
         d="m 232,98 12,0 0,2 -12,0 0,-2 z" /></clipPath><linearGradient
       id="linearGradient420"
       spreadMethod="pad"
       gradientTransform="matrix(-7,7,7,7,241.5,95.5)"
       gradientUnits="userSpaceOnUse"
       y2="0"
       x2="1"
       y1="0"
       x1="0"><stop
         id="stop422"
         offset="0"
         style="stop-opacity:1;stop-color:#e6e7e8" /><stop
         id="stop424"
         offset="1"
         style="stop-opacity:1;stop-color:#d1d3d4" /></linearGradient><clipPath
       id="clipPath432"
       clipPathUnits="userSpaceOnUse"><path
         id="path434"
         d="M 0,256 256,256 256,0 0,0 0,256 Z" /></clipPath><clipPath
       id="clipPath448"
       clipPathUnits="userSpaceOnUse"><path
         id="path450"
         d="m 12,166 12.001,0 0,2.001 -12.001,0 0,-2.001 z" /></clipPath><linearGradient
       id="linearGradient456"
       spreadMethod="pad"
       gradientTransform="matrix(7,-7,-7,-7,14.5,170.5)"
       gradientUnits="userSpaceOnUse"
       y2="0"
       x2="1"
       y1="0"
       x1="0"><stop
         id="stop458"
         offset="0"
         style="stop-opacity:1;stop-color:#e6e7e8" /><stop
         id="stop460"
         offset="1"
         style="stop-opacity:1;stop-color:#d1d3d4" /></linearGradient><clipPath
       id="clipPath468"
       clipPathUnits="userSpaceOnUse"><path
         id="path470"
         d="m 12,162 12.001,0 0,2 -12.001,0 0,-2 z" /></clipPath><linearGradient
       id="linearGradient476"
       spreadMethod="pad"
       gradientTransform="matrix(7,-7,-7,-7,14.5,166.5)"
       gradientUnits="userSpaceOnUse"
       y2="0"
       x2="1"
       y1="0"
       x1="0"><stop
         id="stop478"
         offset="0"
         style="stop-opacity:1;stop-color:#e6e7e8" /><stop
         id="stop480"
         offset="1"
         style="stop-opacity:1;stop-color:#d1d3d4" /></linearGradient><clipPath
       id="clipPath488"
       clipPathUnits="userSpaceOnUse"><path
         id="path490"
         d="m 12,158 12.001,0 0,2 -12.001,0 0,-2 z" /></clipPath><linearGradient
       id="linearGradient496"
       spreadMethod="pad"
       gradientTransform="matrix(7,-7,-7,-7,14.5,162.5)"
       gradientUnits="userSpaceOnUse"
       y2="0"
       x2="1"
       y1="0"
       x1="0"><stop
         id="stop498"
         offset="0"
         style="stop-opacity:1;stop-color:#e6e7e8" /><stop
         id="stop500"
         offset="1"
         style="stop-opacity:1;stop-color:#d1d3d4" /></linearGradient><clipPath
       id="clipPath508"
       clipPathUnits="userSpaceOnUse"><path
         id="path510"
         d="m 12,154 12.001,0 0,2 -12.001,0 0,-2 z" /></clipPath><linearGradient
       id="linearGradient516"
       spreadMethod="pad"
       gradientTransform="matrix(7,-7,-7,-7,14.5,158.5)"
       gradientUnits="userSpaceOnUse"
       y2="0"
       x2="1"
       y1="0"
       x1="0"><stop
         id="stop518"
         offset="0"
         style="stop-opacity:1;stop-color:#e6e7e8" /><stop
         id="stop520"
         offset="1"
         style="stop-opacity:1;stop-color:#d1d3d4" /></linearGradient><clipPath
       id="clipPath528"
       clipPathUnits="userSpaceOnUse"><path
         id="path530"
         d="m 12,150 12.001,0 0,2 -12.001,0 0,-2 z" /></clipPath><linearGradient
       id="linearGradient536"
       spreadMethod="pad"
       gradientTransform="matrix(7,-7,-7,-7,14.5,154.5)"
       gradientUnits="userSpaceOnUse"
       y2="0"
       x2="1"
       y1="0"
       x1="0"><stop
         id="stop538"
         offset="0"
         style="stop-opacity:1;stop-color:#e6e7e8" /><stop
         id="stop540"
         offset="1"
         style="stop-opacity:1;stop-color:#d1d3d4" /></linearGradient><clipPath
       id="clipPath548"
       clipPathUnits="userSpaceOnUse"><path
         id="path550"
         d="m 12,146 12.001,0 0,2 -12.001,0 0,-2 z" /></clipPath><linearGradient
       id="linearGradient556"
       spreadMethod="pad"
       gradientTransform="matrix(7,-7,-7,-7,14.5,150.5)"
       gradientUnits="userSpaceOnUse"
       y2="0"
       x2="1"
       y1="0"
       x1="0"><stop
         id="stop558"
         offset="0"
         style="stop-opacity:1;stop-color:#e6e7e8" /><stop
         id="stop560"
         offset="1"
         style="stop-opacity:1;stop-color:#d1d3d4" /></linearGradient><clipPath
       id="clipPath568"
       clipPathUnits="userSpaceOnUse"><path
         id="path570"
         d="m 12,142 12.001,0 0,2 -12.001,0 0,-2 z" /></clipPath><linearGradient
       id="linearGradient576"
       spreadMethod="pad"
       gradientTransform="matrix(7,-7,-7,-7,14.5,146.5)"
       gradientUnits="userSpaceOnUse"
       y2="0"
       x2="1"
       y1="0"
       x1="0"><stop
         id="stop578"
         offset="0"
         style="stop-opacity:1;stop-color:#e6e7e8" /><stop
         id="stop580"
         offset="1"
         style="stop-opacity:1;stop-color:#d1d3d4" /></linearGradient><clipPath
       id="clipPath588"
       clipPathUnits="userSpaceOnUse"><path
         id="path590"
         d="m 12,138 12.001,0 0,2.001 -12.001,0 0,-2.001 z" /></clipPath><linearGradient
       id="linearGradient596"
       spreadMethod="pad"
       gradientTransform="matrix(7,-7,-7,-7,14.5,142.5)"
       gradientUnits="userSpaceOnUse"
       y2="0"
       x2="1"
       y1="0"
       x1="0"><stop
         id="stop598"
         offset="0"
         style="stop-opacity:1;stop-color:#e6e7e8" /><stop
         id="stop600"
         offset="1"
         style="stop-opacity:1;stop-color:#d1d3d4" /></linearGradient><clipPath
       id="clipPath608"
       clipPathUnits="userSpaceOnUse"><path
         id="path610"
         d="m 12,134 12.001,0 0,2 -12.001,0 0,-2 z" /></clipPath><linearGradient
       id="linearGradient616"
       spreadMethod="pad"
       gradientTransform="matrix(7,-7,-7,-7,14.5,138.5)"
       gradientUnits="userSpaceOnUse"
       y2="0"
       x2="1"
       y1="0"
       x1="0"><stop
         id="stop618"
         offset="0"
         style="stop-opacity:1;stop-color:#e6e7e8" /><stop
         id="stop620"
         offset="1"
         style="stop-opacity:1;stop-color:#d1d3d4" /></linearGradient><clipPath
       id="clipPath628"
       clipPathUnits="userSpaceOnUse"><path
         id="path630"
         d="m 12,130 12.001,0 0,2.001 -12.001,0 0,-2.001 z" /></clipPath><linearGradient
       id="linearGradient636"
       spreadMethod="pad"
       gradientTransform="matrix(7,-7,-7,-7,14.5,134.5)"
       gradientUnits="userSpaceOnUse"
       y2="0"
       x2="1"
       y1="0"
       x1="0"><stop
         id="stop638"
         offset="0"
         style="stop-opacity:1;stop-color:#e6e7e8" /><stop
         id="stop640"
         offset="1"
         style="stop-opacity:1;stop-color:#d1d3d4" /></linearGradient><clipPath
       id="clipPath648"
       clipPathUnits="userSpaceOnUse"><path
         id="path650"
         d="m 12,126 12.001,0 0,2 -12.001,0 0,-2 z" /></clipPath><linearGradient
       id="linearGradient656"
       spreadMethod="pad"
       gradientTransform="matrix(7,-7,-7,-7,14.5,130.5)"
       gradientUnits="userSpaceOnUse"
       y2="0"
       x2="1"
       y1="0"
       x1="0"><stop
         id="stop658"
         offset="0"
         style="stop-opacity:1;stop-color:#e6e7e8" /><stop
         id="stop660"
         offset="1"
         style="stop-opacity:1;stop-color:#d1d3d4" /></linearGradient><clipPath
       id="clipPath668"
       clipPathUnits="userSpaceOnUse"><path
         id="path670"
         d="m 12,122 12.001,0 0,2 -12.001,0 0,-2 z" /></clipPath><linearGradient
       id="linearGradient676"
       spreadMethod="pad"
       gradientTransform="matrix(7,-7,-7,-7,14.5,126.5)"
       gradientUnits="userSpaceOnUse"
       y2="0"
       x2="1"
       y1="0"
       x1="0"><stop
         id="stop678"
         offset="0"
         style="stop-opacity:1;stop-color:#e6e7e8" /><stop
         id="stop680"
         offset="1"
         style="stop-opacity:1;stop-color:#d1d3d4" /></linearGradient><clipPath
       id="clipPath688"
       clipPathUnits="userSpaceOnUse"><path
         id="path690"
         d="m 12,110 12.001,0 0,2 -12.001,0 0,-2 z" /></clipPath><linearGradient
       id="linearGradient696"
       spreadMethod="pad"
       gradientTransform="matrix(7,-7,-7,-7,14.5,114.5)"
       gradientUnits="userSpaceOnUse"
       y2="0"
       x2="1"
       y1="0"
       x1="0"><stop
         id="stop698"
         offset="0"
         style="stop-opacity:1;stop-color:#e6e7e8" /><stop
         id="stop700"
         offset="1"
         style="stop-opacity:1;stop-color:#d1d3d4" /></linearGradient><clipPath
       id="clipPath708"
       clipPathUnits="userSpaceOnUse"><path
         id="path710"
         d="m 12,106 12.001,0 0,2 -12.001,0 0,-2 z" /></clipPath><linearGradient
       id="linearGradient716"
       spreadMethod="pad"
       gradientTransform="matrix(7,-7,-7,-7,14.5,110.5)"
       gradientUnits="userSpaceOnUse"
       y2="0"
       x2="1"
       y1="0"
       x1="0"><stop
         id="stop718"
         offset="0"
         style="stop-opacity:1;stop-color:#e6e7e8" /><stop
         id="stop720"
         offset="1"
         style="stop-opacity:1;stop-color:#d1d3d4" /></linearGradient><clipPath
       id="clipPath728"
       clipPathUnits="userSpaceOnUse"><path
         id="path730"
         d="m 12,102 12.001,0 0,2.001 -12.001,0 0,-2.001 z" /></clipPath><linearGradient
       id="linearGradient736"
       spreadMethod="pad"
       gradientTransform="matrix(7,-7,-7,-7,14.5,106.5)"
       gradientUnits="userSpaceOnUse"
       y2="0"
       x2="1"
       y1="0"
       x1="0"><stop
         id="stop738"
         offset="0"
         style="stop-opacity:1;stop-color:#e6e7e8" /><stop
         id="stop740"
         offset="1"
         style="stop-opacity:1;stop-color:#d1d3d4" /></linearGradient><clipPath
       id="clipPath748"
       clipPathUnits="userSpaceOnUse"><path
         id="path750"
         d="m 12,98 12.001,0 0,2 -12.001,0 0,-2 z" /></clipPath><linearGradient
       id="linearGradient756"
       spreadMethod="pad"
       gradientTransform="matrix(7,-7,-7,-7,14.5,102.5)"
       gradientUnits="userSpaceOnUse"
       y2="0"
       x2="1"
       y1="0"
       x1="0"><stop
         id="stop758"
         offset="0"
         style="stop-opacity:1;stop-color:#e6e7e8" /><stop
         id="stop760"
         offset="1"
         style="stop-opacity:1;stop-color:#d1d3d4" /></linearGradient><clipPath
       id="clipPath768"
       clipPathUnits="userSpaceOnUse"><path
         id="path770"
         d="M 0,256 256,256 256,0 0,0 0,256 Z" /></clipPath><clipPath
       id="clipPath780"
       clipPathUnits="userSpaceOnUse"><path
         id="path782"
         d="M 214,198 214,87.673 C 214,82.33 209.669,78 204.327,78 l 0,0 L 50,78 c -4.419,0 -8,3.581 -8,8 l 0,0 0,112 -2,0 0,-112 c 0,-5.514 4.486,-10 10,-10 l 0,0 154.327,0 C 210.764,76 216,81.237 216,87.673 l 0,0 0,110.327 -2,0 z" /></clipPath><linearGradient
       id="linearGradient788"
       spreadMethod="pad"
       gradientTransform="matrix(-145.57733,145.57733,145.57733,145.57733,200.54344,67.388786)"
       gradientUnits="userSpaceOnUse"
       y2="0"
       x2="1"
       y1="0"
       x1="0"><stop
         id="stop790"
         offset="0"
         style="stop-opacity:1;stop-color:#e6e7e8" /><stop
         id="stop792"
         offset="1"
         style="stop-opacity:1;stop-color:#d1d3d4" /></linearGradient></defs><g
     transform="matrix(1.25,0,0,-1.25,0,320)"
     id="g10"><g
       id="g12"><g
         clip-path="url(#clipPath16)"
         id="g14"><g
           id="g20"><g
             id="g22"><path
               id="path30"
               style="fill:url(#linearGradient24);stroke:none"
               d="M 28.325,196 C 20.413,196 14,189.445 14,181.357 l 0,0 0,-59.357 12,0 0,-10 -12,0 0,-29.357 C 14,74.556 20.413,68 28.325,68 l 0,0 199.351,0 C 235.587,68 242,74.556 242,82.643 l 0,0 0,98.714 C 242,189.445 235.587,196 227.676,196 l 0,0 -199.351,0 z" /></g></g></g></g><g
       id="g32"><g
         clip-path="url(#clipPath36)"
         id="g34"><g
           id="g40"><g
             id="g42"><path
               id="path50"
               style="fill:url(#linearGradient44);stroke:none"
               d="m 31,198 c -0.552,0 -1,-0.447 -1,-1 l 0,0 0,-138 c 0,-0.552 0.448,-1 1,-1 l 0,0 194,0 c 0.553,0 1,0.448 1,1 l 0,0 0,138 c 0,0.553 -0.447,1 -1,1 l 0,0 -194,0 z" /></g></g></g></g><g
       id="g52"><g
         clip-path="url(#clipPath56)"
         id="g54"><g
           transform="translate(204.3275,78)"
           id="g60"><path
             id="path62"
             style="fill:#ffffff;fill-opacity:1;fill-rule:nonzero;stroke:none"
             d="m 0,0 -154.327,0 c -4.419,0 -8,3.582 -8,8 l 0,112 172,0 0,-110.327 C 9.673,4.331 5.342,0 0,0" /></g><g
           transform="translate(242,172)"
           id="g64"><path
             id="path66"
             style="fill:#999999;fill-opacity:1;fill-rule:nonzero;stroke:none"
             d="M 0,0 -6.353,0 C -9.472,0 -12,-2.201 -12,-4.917 l 0,-66.166 C -12,-73.799 -9.472,-76 -6.353,-76 L 0,-76 0,0 Z" /></g></g></g><g
       id="g68"><g
         clip-path="url(#clipPath72)"
         id="g70"><g
           id="g76"><g
             id="g78"><path
               id="path86"
               style="fill:url(#linearGradient80);stroke:none"
               d="m 232,166 12,0 0,2.001 -12,0 0,-2.001 z" /></g></g></g></g><g
       id="g88"><g
         clip-path="url(#clipPath92)"
         id="g90"><g
           id="g96"><g
             id="g98"><path
               id="path106"
               style="fill:url(#linearGradient100);stroke:none"
               d="m 232,162 12,0 0,2 -12,0 0,-2 z" /></g></g></g></g><g
       id="g108"><g
         clip-path="url(#clipPath112)"
         id="g110"><g
           id="g116"><g
             id="g118"><path
               id="path126"
               style="fill:url(#linearGradient120);stroke:none"
               d="m 232,158 12,0 0,2 -12,0 0,-2 z" /></g></g></g></g><g
       id="g128"><g
         clip-path="url(#clipPath132)"
         id="g130"><g
           id="g136"><g
             id="g138"><path
               id="path146"
               style="fill:url(#linearGradient140);stroke:none"
               d="m 232,154 12,0 0,2 -12,0 0,-2 z" /></g></g></g></g><g
       id="g148"><g
         clip-path="url(#clipPath152)"
         id="g150"><g
           id="g156"><g
             id="g158"><path
               id="path166"
               style="fill:url(#linearGradient160);stroke:none"
               d="m 232,150 12,0 0,2 -12,0 0,-2 z" /></g></g></g></g><g
       id="g168"><g
         clip-path="url(#clipPath172)"
         id="g170"><g
           id="g176"><g
             id="g178"><path
               id="path186"
               style="fill:url(#linearGradient180);stroke:none"
               d="m 232,146 12,0 0,2 -12,0 0,-2 z" /></g></g></g></g><g
       id="g188"><g
         clip-path="url(#clipPath192)"
         id="g190"><g
           id="g196"><g
             id="g198"><path
               id="path206"
               style="fill:url(#linearGradient200);stroke:none"
               d="m 232,142 12,0 0,2 -12,0 0,-2 z" /></g></g></g></g><g
       id="g208"><g
         clip-path="url(#clipPath212)"
         id="g210"><g
           id="g216"><g
             id="g218"><path
               id="path226"
               style="fill:url(#linearGradient220);stroke:none"
               d="m 232,138 12,0 0,2.001 -12,0 0,-2.001 z" /></g></g></g></g><g
       id="g228"><g
         clip-path="url(#clipPath232)"
         id="g230"><g
           id="g236"><g
             id="g238"><path
               id="path246"
               style="fill:url(#linearGradient240);stroke:none"
               d="m 232,134 12,0 0,2 -12,0 0,-2 z" /></g></g></g></g><g
       id="g248"><g
         clip-path="url(#clipPath252)"
         id="g250"><g
           id="g256"><g
             id="g258"><path
               id="path266"
               style="fill:url(#linearGradient260);stroke:none"
               d="m 232,130 12,0 0,2.001 -12,0 0,-2.001 z" /></g></g></g></g><g
       id="g268"><g
         clip-path="url(#clipPath272)"
         id="g270"><g
           id="g276"><g
             id="g278"><path
               id="path286"
               style="fill:url(#linearGradient280);stroke:none"
               d="m 232,126 12,0 0,2 -12,0 0,-2 z" /></g></g></g></g><g
       id="g288"><g
         clip-path="url(#clipPath292)"
         id="g290"><g
           id="g296"><g
             id="g298"><path
               id="path306"
               style="fill:url(#linearGradient300);stroke:none"
               d="m 232,122 12,0 0,2 -12,0 0,-2 z" /></g></g></g></g><g
       id="g308"><g
         clip-path="url(#clipPath312)"
         id="g310"><g
           id="g316"><g
             id="g318"><path
               id="path326"
               style="fill:url(#linearGradient320);stroke:none"
               d="m 232,118 12,0 0,2 -12,0 0,-2 z" /></g></g></g></g><g
       id="g328"><g
         clip-path="url(#clipPath332)"
         id="g330"><g
           id="g336"><g
             id="g338"><path
               id="path346"
               style="fill:url(#linearGradient340);stroke:none"
               d="m 232,114 12,0 0,2 -12,0 0,-2 z" /></g></g></g></g><g
       id="g348"><g
         clip-path="url(#clipPath352)"
         id="g350"><g
           id="g356"><g
             id="g358"><path
               id="path366"
               style="fill:url(#linearGradient360);stroke:none"
               d="m 232,110 12,0 0,2 -12,0 0,-2 z" /></g></g></g></g><g
       id="g368"><g
         clip-path="url(#clipPath372)"
         id="g370"><g
           id="g376"><g
             id="g378"><path
               id="path386"
               style="fill:url(#linearGradient380);stroke:none"
               d="m 232,106 12,0 0,2 -12,0 0,-2 z" /></g></g></g></g><g
       id="g388"><g
         clip-path="url(#clipPath392)"
         id="g390"><g
           id="g396"><g
             id="g398"><path
               id="path406"
               style="fill:url(#linearGradient400);stroke:none"
               d="m 232,102 12,0 0,2.001 -12,0 0,-2.001 z" /></g></g></g></g><g
       id="g408"><g
         clip-path="url(#clipPath412)"
         id="g410"><g
           id="g416"><g
             id="g418"><path
               id="path426"
               style="fill:url(#linearGradient420);stroke:none"
               d="m 232,98 12,0 0,2 -12,0 0,-2 z" /></g></g></g></g><g
       id="g428"><g
         clip-path="url(#clipPath432)"
         id="g430"><g
           transform="translate(26,122)"
           id="g436"><path
             id="path438"
             style="fill:#999999;fill-opacity:1;fill-rule:nonzero;stroke:none"
             d="M 0,0 0,45.11 C 0,47.811 -2.528,50 -5.647,50 L -12,50 -12,0 0,0 Z" /></g><g
           transform="translate(14,112)"
           id="g440"><path
             id="path442"
             style="fill:#999999;fill-opacity:1;fill-rule:nonzero;stroke:none"
             d="m 0,0 0,-16 6.353,0 C 9.472,-16 12,-13.548 12,-10.524 L 12,0 0,0 Z" /></g></g></g><g
       id="g444"><g
         clip-path="url(#clipPath448)"
         id="g446"><g
           id="g452"><g
             id="g454"><path
               id="path462"
               style="fill:url(#linearGradient456);stroke:none"
               d="m 12,166 12.001,0 0,2.001 -12.001,0 0,-2.001 z" /></g></g></g></g><g
       id="g464"><g
         clip-path="url(#clipPath468)"
         id="g466"><g
           id="g472"><g
             id="g474"><path
               id="path482"
               style="fill:url(#linearGradient476);stroke:none"
               d="m 12,162 12.001,0 0,2 -12.001,0 0,-2 z" /></g></g></g></g><g
       id="g484"><g
         clip-path="url(#clipPath488)"
         id="g486"><g
           id="g492"><g
             id="g494"><path
               id="path502"
               style="fill:url(#linearGradient496);stroke:none"
               d="m 12,158 12.001,0 0,2 -12.001,0 0,-2 z" /></g></g></g></g><g
       id="g504"><g
         clip-path="url(#clipPath508)"
         id="g506"><g
           id="g512"><g
             id="g514"><path
               id="path522"
               style="fill:url(#linearGradient516);stroke:none"
               d="m 12,154 12.001,0 0,2 -12.001,0 0,-2 z" /></g></g></g></g><g
       id="g524"><g
         clip-path="url(#clipPath528)"
         id="g526"><g
           id="g532"><g
             id="g534"><path
               id="path542"
               style="fill:url(#linearGradient536);stroke:none"
               d="m 12,150 12.001,0 0,2 -12.001,0 0,-2 z" /></g></g></g></g><g
       id="g544"><g
         clip-path="url(#clipPath548)"
         id="g546"><g
           id="g552"><g
             id="g554"><path
               id="path562"
               style="fill:url(#linearGradient556);stroke:none"
               d="m 12,146 12.001,0 0,2 -12.001,0 0,-2 z" /></g></g></g></g><g
       id="g564"><g
         clip-path="url(#clipPath568)"
         id="g566"><g
           id="g572"><g
             id="g574"><path
               id="path582"
               style="fill:url(#linearGradient576);stroke:none"
               d="m 12,142 12.001,0 0,2 -12.001,0 0,-2 z" /></g></g></g></g><g
       id="g584"><g
         clip-path="url(#clipPath588)"
         id="g586"><g
           id="g592"><g
             id="g594"><path
               id="path602"
               style="fill:url(#linearGradient596);stroke:none"
               d="m 12,138 12.001,0 0,2.001 -12.001,0 0,-2.001 z" /></g></g></g></g><g
       id="g604"><g
         clip-path="url(#clipPath608)"
         id="g606"><g
           id="g612"><g
             id="g614"><path
               id="path622"
               style="fill:url(#linearGradient616);stroke:none"
               d="m 12,134 12.001,0 0,2 -12.001,0 0,-2 z" /></g></g></g></g><g
       id="g624"><g
         clip-path="url(#clipPath628)"
         id="g626"><g
           id="g632"><g
             id="g634"><path
               id="path642"
               style="fill:url(#linearGradient636);stroke:none"
               d="m 12,130 12.001,0 0,2.001 -12.001,0 0,-2.001 z" /></g></g></g></g><g
       id="g644"><g
         clip-path="url(#clipPath648)"
         id="g646"><g
           id="g652"><g
             id="g654"><path
               id="path662"
               style="fill:url(#linearGradient656);stroke:none"
               d="m 12,126 12.001,0 0,2 -12.001,0 0,-2 z" /></g></g></g></g><g
       id="g664"><g
         clip-path="url(#clipPath668)"
         id="g666"><g
           id="g672"><g
             id="g674"><path
               id="path682"
               style="fill:url(#linearGradient676);stroke:none"
               d="m 12,122 12.001,0 0,2 -12.001,0 0,-2 z" /></g></g></g></g><g
       id="g684"><g
         clip-path="url(#clipPath688)"
         id="g686"><g
           id="g692"><g
             id="g694"><path
               id="path702"
               style="fill:url(#linearGradient696);stroke:none"
               d="m 12,110 12.001,0 0,2 -12.001,0 0,-2 z" /></g></g></g></g><g
       id="g704"><g
         clip-path="url(#clipPath708)"
         id="g706"><g
           id="g712"><g
             id="g714"><path
               id="path722"
               style="fill:url(#linearGradient716);stroke:none"
               d="m 12,106 12.001,0 0,2 -12.001,0 0,-2 z" /></g></g></g></g><g
       id="g724"><g
         clip-path="url(#clipPath728)"
         id="g726"><g
           id="g732"><g
             id="g734"><path
               id="path742"
               style="fill:url(#linearGradient736);stroke:none"
               d="m 12,102 12.001,0 0,2.001 -12.001,0 0,-2.001 z" /></g></g></g></g><g
       id="g744"><g
         clip-path="url(#clipPath748)"
         id="g746"><g
           id="g752"><g
             id="g754"><path
               id="path762"
               style="fill:url(#linearGradient756);stroke:none"
               d="m 12,98 12.001,0 0,2 -12.001,0 0,-2 z" /></g></g></g></g><g
       id="g764"><g
         clip-path="url(#clipPath768)"
         id="g766"><g
           transform="translate(78,78)"
           id="g772"><path
             id="path774"
             style="fill:#999999;fill-opacity:1;fill-rule:nonzero;stroke:none"
             d="m 0,0 -28,0 c -4.418,0 -8,3.582 -8,8 l 0,112 36,0 L 0,0 Z" /></g></g></g><g
       id="g776"><g
         clip-path="url(#clipPath780)"
         id="g778"><g
           id="g784"><g
             id="g786"><path
               id="path794"
               style="fill:url(#linearGradient788);stroke:none"
               d="M 214,198 214,87.673 C 214,82.33 209.669,78 204.327,78 l 0,0 L 50,78 c -4.419,0 -8,3.581 -8,8 l 0,0 0,112 -2,0 0,-112 c 0,-5.514 4.486,-10 10,-10 l 0,0 154.327,0 C 210.764,76 216,81.237 216,87.673 l 0,0 0,110.327 -2,0 z" /></g></g></g></g></g></svg>