<?xml version="1.0" encoding="UTF-8" standalone="no"?>
<svg
   xmlns:dc="http://purl.org/dc/elements/1.1/"
   xmlns:cc="http://creativecommons.org/ns#"
   xmlns:rdf="http://www.w3.org/1999/02/22-rdf-syntax-ns#"
   xmlns:svg="http://www.w3.org/2000/svg"
   xmlns="http://www.w3.org/2000/svg"
   viewBox="0 0 320 320"
   height="320"
   width="320"
   xml:space="preserve"
   version="1.1"
   id="svg2"><metadata
     id="metadata8"><rdf:RDF><cc:Work
         rdf:about=""><dc:format>image/svg+xml</dc:format><dc:type
           rdf:resource="http://purl.org/dc/dcmitype/StillImage" /></cc:Work></rdf:RDF></metadata><defs
     id="defs6"><clipPath
       id="clipPath16"
       clipPathUnits="userSpaceOnUse"><path
         id="path18"
         d="M 61.475,194.505 C 6.174,139.205 6.08,116.87 61.476,61.474 l 0,0 C 116.88,6.07 139.186,6.15 194.508,61.472 l 0,0 c 55.327,55.326 55.223,77.814 0.002,133.035 l 0,0 c -27.617,27.617 -47.059,41.442 -66.508,41.445 l 0,0 c -19.439,0.002 -38.884,-13.804 -66.527,-41.447" /></clipPath><linearGradient
       id="linearGradient24"
       spreadMethod="pad"
       gradientTransform="matrix(133.03336,-133.03336,-133.03336,-133.03336,61.476574,194.50745)"
       gradientUnits="userSpaceOnUse"
       y2="0"
       x2="1"
       y1="0"
       x1="0"><stop
         id="stop26"
         offset="0"
         style="stop-opacity:1;stop-color:#e6e7e8" /><stop
         id="stop28"
         offset="1"
         style="stop-opacity:1;stop-color:#d1d3d4" /></linearGradient><clipPath
       id="clipPath36"
       clipPathUnits="userSpaceOnUse"><path
         id="path38"
         d="M 0,256 256,256 256,0 0,0 0,256 Z" /></clipPath></defs><g
     transform="matrix(1.25,0,0,-1.25,0,320)"
     id="g10"><g
       id="g12"><g
         clip-path="url(#clipPath16)"
         id="g14"><g
           id="g20"><g
             id="g22"><path
               id="path30"
               style="fill:url(#linearGradient24);stroke:none"
               d="M 61.475,194.505 C 6.174,139.205 6.08,116.87 61.476,61.474 l 0,0 C 116.88,6.07 139.186,6.15 194.508,61.472 l 0,0 c 55.327,55.326 55.223,77.814 0.002,133.035 l 0,0 c -27.617,27.617 -47.059,41.442 -66.508,41.445 l 0,0 c -19.439,0.002 -38.884,-13.804 -66.527,-41.447" /></g></g></g></g><g
       id="g32"><g
         clip-path="url(#clipPath36)"
         id="g34"><g
           transform="translate(172,136)"
           id="g40"><path
             id="path42"
             style="fill:#ffffff;fill-opacity:1;fill-rule:nonzero;stroke:none"
             d="m 0,0 -88,0 c -15.439,0 -28,12.563 -28,28 0,15.438 12.561,28 28,28 L 0,56 C 15.439,56 28,43.438 28,28 28,12.563 15.439,0 0,0" /></g><g
           transform="translate(152,164)"
           id="g44"><path
             id="path46"
             style="fill:#999999;fill-opacity:1;fill-rule:nonzero;stroke:none"
             d="M 0,0 C 0,11.046 8.954,20 20,20 31.046,20 40,11.046 40,0 40,-11.046 31.046,-20 20,-20 8.954,-20 0,-11.046 0,0" /></g><g
           transform="translate(172,64)"
           id="g48"><path
             id="path50"
             style="fill:#999999;fill-opacity:1;fill-rule:nonzero;stroke:none"
             d="m 0,0 -88,0 c -15.439,0 -28,12.563 -28,28 0,15.438 12.561,28 28,28 L 0,56 C 15.439,56 28,43.438 28,28 28,12.563 15.439,0 0,0" /></g><g
           transform="translate(64,92)"
           id="g52"><path
             id="path54"
             style="fill:#ffffff;fill-opacity:1;fill-rule:nonzero;stroke:none"
             d="M 0,0 C 0,11.046 8.954,20 20,20 31.046,20 40,11.046 40,0 40,-11.045 31.046,-20 20,-20 8.954,-20 0,-11.045 0,0" /></g></g></g></g></svg>