<?xml version="1.0" encoding="UTF-8" standalone="no"?>
<svg
   xmlns:dc="http://purl.org/dc/elements/1.1/"
   xmlns:cc="http://creativecommons.org/ns#"
   xmlns:rdf="http://www.w3.org/1999/02/22-rdf-syntax-ns#"
   xmlns:svg="http://www.w3.org/2000/svg"
   xmlns="http://www.w3.org/2000/svg"
   viewBox="0 0 320 320"
   height="320"
   width="320"
   xml:space="preserve"
   version="1.1"
   id="svg2"><metadata
     id="metadata8"><rdf:RDF><cc:Work
         rdf:about=""><dc:format>image/svg+xml</dc:format><dc:type
           rdf:resource="http://purl.org/dc/dcmitype/StillImage" /></cc:Work></rdf:RDF></metadata><defs
     id="defs6"><clipPath
       id="clipPath16"
       clipPathUnits="userSpaceOnUse"><path
         id="path18"
         d="m 16,176 c -2.209,0 -4,-1.791 -4,-4 l 0,0 0,-84 c 0,-4.418 3.582,-8 8,-8 l 0,0 216,0 c 4.418,0 8,3.582 8,8 l 0,0 0,84 c 0,2.209 -1.791,4 -4,4 l 0,0 -224,0 z" /></clipPath><linearGradient
       id="linearGradient24"
       spreadMethod="pad"
       gradientTransform="matrix(160.48528,-160.48528,-160.48528,-160.48528,47.757359,209.41422)"
       gradientUnits="userSpaceOnUse"
       y2="0"
       x2="1"
       y1="0"
       x1="0"><stop
         id="stop26"
         offset="0"
         style="stop-opacity:1;stop-color:#e6e7e8" /><stop
         id="stop28"
         offset="1"
         style="stop-opacity:1;stop-color:#d1d3d4" /></linearGradient><clipPath
       id="clipPath36"
       clipPathUnits="userSpaceOnUse"><path
         id="path38"
         d="M 0,256 256,256 256,0 0,0 0,256 Z" /></clipPath><clipPath
       id="clipPath248"
       clipPathUnits="userSpaceOnUse"><path
         id="path250"
         d="m 40,164 128.001,0 0,8 -128.001,0 0,-8 z" /></clipPath><linearGradient
       id="linearGradient256"
       spreadMethod="pad"
       gradientTransform="matrix(-68,68,68,68,138,134)"
       gradientUnits="userSpaceOnUse"
       y2="0"
       x2="1"
       y1="0"
       x1="0"><stop
         id="stop258"
         offset="0"
         style="stop-opacity:1;stop-color:#e6e7e8" /><stop
         id="stop260"
         offset="1"
         style="stop-opacity:1;stop-color:#d1d3d4" /></linearGradient></defs><g
     transform="matrix(1.25,0,0,-1.25,0,320)"
     id="g10"><g
       id="g12"><g
         clip-path="url(#clipPath16)"
         id="g14"><g
           id="g20"><g
             id="g22"><path
               id="path30"
               style="fill:url(#linearGradient24);stroke:none"
               d="m 16,176 c -2.209,0 -4,-1.791 -4,-4 l 0,0 0,-84 c 0,-4.418 3.582,-8 8,-8 l 0,0 216,0 c 4.418,0 8,3.582 8,8 l 0,0 0,84 c 0,2.209 -1.791,4 -4,4 l 0,0 -224,0 z" /></g></g></g></g><g
       id="g32"><g
         clip-path="url(#clipPath36)"
         id="g34"><path
           id="path40"
           style="fill:#999999;fill-opacity:1;fill-rule:nonzero;stroke:none"
           d="m 24,140 -8,0 0,8 8,0 0,-8 z" /><path
           id="path42"
           style="fill:#999999;fill-opacity:1;fill-rule:nonzero;stroke:none"
           d="m 28,128 -12,0 0,8 12,0 0,-8 z" /><path
           id="path44"
           style="fill:#999999;fill-opacity:1;fill-rule:nonzero;stroke:none"
           d="m 36,140 -8,0 0,8 8,0 0,-8 z" /><path
           id="path46"
           style="fill:#999999;fill-opacity:1;fill-rule:nonzero;stroke:none"
           d="m 24,156 -8,0 0,8 8,0 0,-8 z" /><path
           id="path48"
           style="fill:#999999;fill-opacity:1;fill-rule:nonzero;stroke:none"
           d="m 36,156 -8,0 0,8 8,0 0,-8 z" /><path
           id="path50"
           style="fill:#999999;fill-opacity:1;fill-rule:nonzero;stroke:none"
           d="m 40,128 -8,0 0,8 8,0 0,-8 z" /><path
           id="path52"
           style="fill:#999999;fill-opacity:1;fill-rule:nonzero;stroke:none"
           d="m 52,128 -8,0 0,8 8,0 0,-8 z" /><path
           id="path54"
           style="fill:#999999;fill-opacity:1;fill-rule:nonzero;stroke:none"
           d="m 64,128 -8,0 0,8 8,0 0,-8 z" /><path
           id="path56"
           style="fill:#999999;fill-opacity:1;fill-rule:nonzero;stroke:none"
           d="m 76,128 -8,0 0,8 8,0 0,-8 z" /><path
           id="path58"
           style="fill:#999999;fill-opacity:1;fill-rule:nonzero;stroke:none"
           d="m 88,128 -8,0 0,8 8,0 0,-8 z" /><path
           id="path60"
           style="fill:#999999;fill-opacity:1;fill-rule:nonzero;stroke:none"
           d="m 100,128 -8,0 0,8 8,0 0,-8 z" /><path
           id="path62"
           style="fill:#999999;fill-opacity:1;fill-rule:nonzero;stroke:none"
           d="m 112,128 -8,0 0,8 8,0 0,-8 z" /><path
           id="path64"
           style="fill:#999999;fill-opacity:1;fill-rule:nonzero;stroke:none"
           d="m 124,128 -8,0 0,8 8,0 0,-8 z" /><path
           id="path66"
           style="fill:#999999;fill-opacity:1;fill-rule:nonzero;stroke:none"
           d="m 136,128 -8,0 0,8 8,0 0,-8 z" /><path
           id="path68"
           style="fill:#999999;fill-opacity:1;fill-rule:nonzero;stroke:none"
           d="m 148,128 -8,0 0,8 8,0 0,-8 z" /><path
           id="path70"
           style="fill:#999999;fill-opacity:1;fill-rule:nonzero;stroke:none"
           d="m 40,104 -24,0 0,8 24,0 0,-8 z" /><path
           id="path72"
           style="fill:#999999;fill-opacity:1;fill-rule:nonzero;stroke:none"
           d="m 52,104 -8,0 0,8 8,0 0,-8 z" /><path
           id="path74"
           style="fill:#999999;fill-opacity:1;fill-rule:nonzero;stroke:none"
           d="m 64,104 -8,0 0,8 8,0 0,-8 z" /><path
           id="path76"
           style="fill:#999999;fill-opacity:1;fill-rule:nonzero;stroke:none"
           d="m 76,104 -8,0 0,8 8,0 0,-8 z" /><path
           id="path78"
           style="fill:#999999;fill-opacity:1;fill-rule:nonzero;stroke:none"
           d="m 88,104 -8,0 0,8 8,0 0,-8 z" /><path
           id="path80"
           style="fill:#999999;fill-opacity:1;fill-rule:nonzero;stroke:none"
           d="m 100,104 -8,0 0,8 8,0 0,-8 z" /><path
           id="path82"
           style="fill:#999999;fill-opacity:1;fill-rule:nonzero;stroke:none"
           d="m 112,104 -8,0 0,8 8,0 0,-8 z" /><path
           id="path84"
           style="fill:#999999;fill-opacity:1;fill-rule:nonzero;stroke:none"
           d="m 124,104 -8,0 0,8 8,0 0,-8 z" /><path
           id="path86"
           style="fill:#999999;fill-opacity:1;fill-rule:nonzero;stroke:none"
           d="m 136,104 -8,0 0,8 8,0 0,-8 z" /><path
           id="path88"
           style="fill:#999999;fill-opacity:1;fill-rule:nonzero;stroke:none"
           d="m 148,104 -8,0 0,8 8,0 0,-8 z" /><path
           id="path90"
           style="fill:#999999;fill-opacity:1;fill-rule:nonzero;stroke:none"
           d="m 32,116 -16,0 0,8 16,0 0,-8 z" /><path
           id="path92"
           style="fill:#999999;fill-opacity:1;fill-rule:nonzero;stroke:none"
           d="m 44,116 -8,0 0,8 8,0 0,-8 z" /><path
           id="path94"
           style="fill:#999999;fill-opacity:1;fill-rule:nonzero;stroke:none"
           d="m 56,116 -8,0 0,8 8,0 0,-8 z" /><path
           id="path96"
           style="fill:#999999;fill-opacity:1;fill-rule:nonzero;stroke:none"
           d="m 68,116 -8,0 0,8 8,0 0,-8 z" /><path
           id="path98"
           style="fill:#999999;fill-opacity:1;fill-rule:nonzero;stroke:none"
           d="m 80,116 -8,0 0,8 8,0 0,-8 z" /><path
           id="path100"
           style="fill:#999999;fill-opacity:1;fill-rule:nonzero;stroke:none"
           d="m 92,116 -8,0 0,8 8,0 0,-8 z" /><path
           id="path102"
           style="fill:#999999;fill-opacity:1;fill-rule:nonzero;stroke:none"
           d="m 104,116 -8,0 0,8 8,0 0,-8 z" /><path
           id="path104"
           style="fill:#999999;fill-opacity:1;fill-rule:nonzero;stroke:none"
           d="m 116,116 -8,0 0,8 8,0 0,-8 z" /><path
           id="path106"
           style="fill:#999999;fill-opacity:1;fill-rule:nonzero;stroke:none"
           d="m 128,116 -8,0 0,8 8,0 0,-8 z" /><path
           id="path108"
           style="fill:#999999;fill-opacity:1;fill-rule:nonzero;stroke:none"
           d="m 140,116 -8,0 0,8 8,0 0,-8 z" /><path
           id="path110"
           style="fill:#999999;fill-opacity:1;fill-rule:nonzero;stroke:none"
           d="m 152,116 -8,0 0,8 8,0 0,-8 z" /><path
           id="path112"
           style="fill:#999999;fill-opacity:1;fill-rule:nonzero;stroke:none"
           d="m 48,140 -8,0 0,8 8,0 0,-8 z" /><path
           id="path114"
           style="fill:#999999;fill-opacity:1;fill-rule:nonzero;stroke:none"
           d="m 60,140 -8,0 0,8 8,0 0,-8 z" /><path
           id="path116"
           style="fill:#999999;fill-opacity:1;fill-rule:nonzero;stroke:none"
           d="m 72,140 -8,0 0,8 8,0 0,-8 z" /><path
           id="path118"
           style="fill:#999999;fill-opacity:1;fill-rule:nonzero;stroke:none"
           d="m 84,140 -8,0 0,8 8,0 0,-8 z" /><path
           id="path120"
           style="fill:#999999;fill-opacity:1;fill-rule:nonzero;stroke:none"
           d="m 96,140 -8,0 0,8 8,0 0,-8 z" /><path
           id="path122"
           style="fill:#999999;fill-opacity:1;fill-rule:nonzero;stroke:none"
           d="m 108,140 -8,0 0,8 8,0 0,-8 z" /><path
           id="path124"
           style="fill:#999999;fill-opacity:1;fill-rule:nonzero;stroke:none"
           d="m 120,140 -8,0 0,8 8,0 0,-8 z" /><path
           id="path126"
           style="fill:#999999;fill-opacity:1;fill-rule:nonzero;stroke:none"
           d="m 132,140 -8,0 0,8 8,0 0,-8 z" /><path
           id="path128"
           style="fill:#999999;fill-opacity:1;fill-rule:nonzero;stroke:none"
           d="m 144,140 -8,0 0,8 8,0 0,-8 z" /><path
           id="path130"
           style="fill:#999999;fill-opacity:1;fill-rule:nonzero;stroke:none"
           d="m 156,140 -8,0 0,8 8,0 0,-8 z" /><path
           id="path132"
           style="fill:#999999;fill-opacity:1;fill-rule:nonzero;stroke:none"
           d="m 168,140 -8,0 0,8 8,0 0,-8 z" /><path
           id="path134"
           style="fill:#999999;fill-opacity:1;fill-rule:nonzero;stroke:none"
           d="m 164,128 -12,0 0,8 12,0 0,-8 z" /><path
           id="path136"
           style="fill:#999999;fill-opacity:1;fill-rule:nonzero;stroke:none"
           d="m 180,156 -8,0 0,8 8,0 0,-8 z" /><path
           id="path138"
           style="fill:#999999;fill-opacity:1;fill-rule:nonzero;stroke:none"
           d="m 192,156 -8,0 0,8 8,0 0,-8 z" /><path
           id="path140"
           style="fill:#999999;fill-opacity:1;fill-rule:nonzero;stroke:none"
           d="m 204,156 -8,0 0,8 8,0 0,-8 z" /><path
           id="path142"
           style="fill:#999999;fill-opacity:1;fill-rule:nonzero;stroke:none"
           d="m 180,140 -8,0 0,8 8,0 0,-8 z" /><path
           id="path144"
           style="fill:#999999;fill-opacity:1;fill-rule:nonzero;stroke:none"
           d="m 192,140 -8,0 0,8 8,0 0,-8 z" /><path
           id="path146"
           style="fill:#999999;fill-opacity:1;fill-rule:nonzero;stroke:none"
           d="m 204,140 -8,0 0,8 8,0 0,-8 z" /><path
           id="path148"
           style="fill:#999999;fill-opacity:1;fill-rule:nonzero;stroke:none"
           d="m 180,128 -8,0 0,8 8,0 0,-8 z" /><path
           id="path150"
           style="fill:#999999;fill-opacity:1;fill-rule:nonzero;stroke:none"
           d="m 192,128 -8,0 0,8 8,0 0,-8 z" /><path
           id="path152"
           style="fill:#999999;fill-opacity:1;fill-rule:nonzero;stroke:none"
           d="m 204,128 -8,0 0,8 8,0 0,-8 z" /><path
           id="path154"
           style="fill:#999999;fill-opacity:1;fill-rule:nonzero;stroke:none"
           d="m 180,104 -8,0 0,20 8,0 0,-20 z" /><path
           id="path156"
           style="fill:#999999;fill-opacity:1;fill-rule:nonzero;stroke:none"
           d="m 192,116 -8,0 0,8 8,0 0,-8 z" /><path
           id="path158"
           style="fill:#999999;fill-opacity:1;fill-rule:nonzero;stroke:none"
           d="m 204,104 -8,0 0,20 8,0 0,-20 z" /><path
           id="path160"
           style="fill:#999999;fill-opacity:1;fill-rule:nonzero;stroke:none"
           d="m 192,104 -8,0 0,8 8,0 0,-8 z" /><path
           id="path162"
           style="fill:#999999;fill-opacity:1;fill-rule:nonzero;stroke:none"
           d="m 180,92 -8,0 0,8 8,0 0,-8 z" /><path
           id="path164"
           style="fill:#999999;fill-opacity:1;fill-rule:nonzero;stroke:none"
           d="m 192,92 -8,0 0,8 8,0 0,-8 z" /><path
           id="path166"
           style="fill:#999999;fill-opacity:1;fill-rule:nonzero;stroke:none"
           d="m 204,92 -8,0 0,8 8,0 0,-8 z" /><path
           id="path168"
           style="fill:#999999;fill-opacity:1;fill-rule:nonzero;stroke:none"
           d="m 216,140 -8,0 0,8 8,0 0,-8 z" /><path
           id="path170"
           style="fill:#999999;fill-opacity:1;fill-rule:nonzero;stroke:none"
           d="m 228,140 -8,0 0,8 8,0 0,-8 z" /><path
           id="path172"
           style="fill:#999999;fill-opacity:1;fill-rule:nonzero;stroke:none"
           d="m 240,140 -8,0 0,8 8,0 0,-8 z" /><path
           id="path174"
           style="fill:#999999;fill-opacity:1;fill-rule:nonzero;stroke:none"
           d="m 216,128 -8,0 0,8 8,0 0,-8 z" /><path
           id="path176"
           style="fill:#999999;fill-opacity:1;fill-rule:nonzero;stroke:none"
           d="m 228,128 -8,0 0,8 8,0 0,-8 z" /><path
           id="path178"
           style="fill:#999999;fill-opacity:1;fill-rule:nonzero;stroke:none"
           d="m 240,128 -8,0 0,8 8,0 0,-8 z" /><path
           id="path180"
           style="fill:#999999;fill-opacity:1;fill-rule:nonzero;stroke:none"
           d="m 216,116 -8,0 0,8 8,0 0,-8 z" /><path
           id="path182"
           style="fill:#999999;fill-opacity:1;fill-rule:nonzero;stroke:none"
           d="m 228,116 -8,0 0,8 8,0 0,-8 z" /><path
           id="path184"
           style="fill:#999999;fill-opacity:1;fill-rule:nonzero;stroke:none"
           d="m 240,116 -8,0 0,8 8,0 0,-8 z" /><path
           id="path186"
           style="fill:#999999;fill-opacity:1;fill-rule:nonzero;stroke:none"
           d="m 216,104 -8,0 0,8 8,0 0,-8 z" /><path
           id="path188"
           style="fill:#999999;fill-opacity:1;fill-rule:nonzero;stroke:none"
           d="m 228,104 -8,0 0,8 8,0 0,-8 z" /><path
           id="path190"
           style="fill:#999999;fill-opacity:1;fill-rule:nonzero;stroke:none"
           d="m 240,104 -8,0 0,8 8,0 0,-8 z" /><path
           id="path192"
           style="fill:#999999;fill-opacity:1;fill-rule:nonzero;stroke:none"
           d="m 216,92 -8,0 0,8 8,0 0,-8 z" /><path
           id="path194"
           style="fill:#999999;fill-opacity:1;fill-rule:nonzero;stroke:none"
           d="m 228,92 -8,0 0,8 8,0 0,-8 z" /><path
           id="path196"
           style="fill:#999999;fill-opacity:1;fill-rule:nonzero;stroke:none"
           d="m 240,92 -8,0 0,8 8,0 0,-8 z" /><path
           id="path198"
           style="fill:#999999;fill-opacity:1;fill-rule:nonzero;stroke:none"
           d="m 228,156 -8,0 0,8 8,0 0,-8 z" /><path
           id="path200"
           style="fill:#999999;fill-opacity:1;fill-rule:nonzero;stroke:none"
           d="m 240,156 -8,0 0,8 8,0 0,-8 z" /><path
           id="path202"
           style="fill:#999999;fill-opacity:1;fill-rule:nonzero;stroke:none"
           d="m 216,156 -8,0 0,8 8,0 0,-8 z" /><path
           id="path204"
           style="fill:#999999;fill-opacity:1;fill-rule:nonzero;stroke:none"
           d="m 168,116 -12,0 0,20 12,0 0,-20 z" /><path
           id="path206"
           style="fill:#999999;fill-opacity:1;fill-rule:nonzero;stroke:none"
           d="m 168,104 -16,0 0,8 16,0 0,-8 z" /><path
           id="path208"
           style="fill:#999999;fill-opacity:1;fill-rule:nonzero;stroke:none"
           d="m 100,92 -32,0 0,8 32,0 0,-8 z" /><path
           id="path210"
           style="fill:#999999;fill-opacity:1;fill-rule:nonzero;stroke:none"
           d="m 116,92 -12,0 0,8 12,0 0,-8 z" /><path
           id="path212"
           style="fill:#999999;fill-opacity:1;fill-rule:nonzero;stroke:none"
           d="m 52,92 -8,0 0,8 8,0 0,-8 z" /><path
           id="path214"
           style="fill:#999999;fill-opacity:1;fill-rule:nonzero;stroke:none"
           d="m 40,92 -8,0 0,8 8,0 0,-8 z" /><path
           id="path216"
           style="fill:#999999;fill-opacity:1;fill-rule:nonzero;stroke:none"
           d="m 64,92 -8,0 0,8 8,0 0,-8 z" /><path
           id="path218"
           style="fill:#999999;fill-opacity:1;fill-rule:nonzero;stroke:none"
           d="m 132,92 -12,0 0,8 12,0 0,-8 z" /><path
           id="path220"
           style="fill:#999999;fill-opacity:1;fill-rule:nonzero;stroke:none"
           d="m 148,92 -12,0 0,8 12,0 0,-8 z" /><path
           id="path222"
           style="fill:#999999;fill-opacity:1;fill-rule:nonzero;stroke:none"
           d="m 48,156 -8,0 0,4 8,0 0,-4 z" /><path
           id="path224"
           style="fill:#999999;fill-opacity:1;fill-rule:nonzero;stroke:none"
           d="m 60,156 -8,0 0,4 8,0 0,-4 z" /><path
           id="path226"
           style="fill:#999999;fill-opacity:1;fill-rule:nonzero;stroke:none"
           d="m 72,156 -8,0 0,4 8,0 0,-4 z" /><path
           id="path228"
           style="fill:#999999;fill-opacity:1;fill-rule:nonzero;stroke:none"
           d="m 84,156 -8,0 0,4 8,0 0,-4 z" /><path
           id="path230"
           style="fill:#999999;fill-opacity:1;fill-rule:nonzero;stroke:none"
           d="m 96,156 -8,0 0,4 8,0 0,-4 z" /><path
           id="path232"
           style="fill:#999999;fill-opacity:1;fill-rule:nonzero;stroke:none"
           d="m 108,156 -8,0 0,4 8,0 0,-4 z" /><path
           id="path234"
           style="fill:#999999;fill-opacity:1;fill-rule:nonzero;stroke:none"
           d="m 120,156 -8,0 0,4 8,0 0,-4 z" /><path
           id="path236"
           style="fill:#999999;fill-opacity:1;fill-rule:nonzero;stroke:none"
           d="m 132,156 -8,0 0,4 8,0 0,-4 z" /><path
           id="path238"
           style="fill:#999999;fill-opacity:1;fill-rule:nonzero;stroke:none"
           d="m 144,156 -8,0 0,4 8,0 0,-4 z" /><path
           id="path240"
           style="fill:#999999;fill-opacity:1;fill-rule:nonzero;stroke:none"
           d="m 156,156 -8,0 0,4 8,0 0,-4 z" /><path
           id="path242"
           style="fill:#999999;fill-opacity:1;fill-rule:nonzero;stroke:none"
           d="m 168,156 -8,0 0,4 8,0 0,-4 z" /></g></g><g
       id="g244"><g
         clip-path="url(#clipPath248)"
         id="g246"><g
           id="g252"><g
             id="g254"><path
               id="path262"
               style="fill:url(#linearGradient256);stroke:none"
               d="m 40,164 128.001,0 0,8 -128.001,0 0,-8 z" /></g></g></g></g></g></svg>