<?xml version="1.0" encoding="UTF-8" standalone="no"?>
<svg
   xmlns:dc="http://purl.org/dc/elements/1.1/"
   xmlns:cc="http://creativecommons.org/ns#"
   xmlns:rdf="http://www.w3.org/1999/02/22-rdf-syntax-ns#"
   xmlns:svg="http://www.w3.org/2000/svg"
   xmlns="http://www.w3.org/2000/svg"
   viewBox="0 0 320 320"
   height="320"
   width="320"
   xml:space="preserve"
   version="1.1"
   id="svg2"><metadata
     id="metadata8"><rdf:RDF><cc:Work
         rdf:about=""><dc:format>image/svg+xml</dc:format><dc:type
           rdf:resource="http://purl.org/dc/dcmitype/StillImage" /></cc:Work></rdf:RDF></metadata><defs
     id="defs6"><clipPath
       id="clipPath16"
       clipPathUnits="userSpaceOnUse"><path
         id="path18"
         d="m 244,56 -232,0 0,144 232,0 0,-144 z" /></clipPath><linearGradient
       id="linearGradient24"
       spreadMethod="pad"
       gradientTransform="matrix(187.99997,-187.99997,-187.99997,-187.99997,34,221.99998)"
       gradientUnits="userSpaceOnUse"
       y2="0"
       x2="1"
       y1="0"
       x1="0"><stop
         id="stop26"
         offset="0"
         style="stop-opacity:1;stop-color:#e6e7e8" /><stop
         id="stop28"
         offset="1"
         style="stop-opacity:1;stop-color:#d1d3d4" /></linearGradient><clipPath
       id="clipPath36"
       clipPathUnits="userSpaceOnUse"><path
         id="path38"
         d="m 17,152 c -2.761,0 -5,-2.238 -5,-5 l 0,0 0,-91 232,0 0,91 c 0,2.762 -2.238,5 -5,5 l 0,0 -222,0 z" /></clipPath><linearGradient
       id="linearGradient44"
       spreadMethod="pad"
       gradientTransform="matrix(-162.53551,162.53551,162.53551,162.53551,209.26775,21.26778)"
       gradientUnits="userSpaceOnUse"
       y2="0"
       x2="1"
       y1="0"
       x1="0"><stop
         id="stop46"
         offset="0"
         style="stop-opacity:1;stop-color:#e6e7e8" /><stop
         id="stop48"
         offset="1"
         style="stop-opacity:1;stop-color:#d1d3d4" /></linearGradient><clipPath
       id="clipPath56"
       clipPathUnits="userSpaceOnUse"><path
         id="path58"
         d="M 0,256 256,256 256,0 0,0 0,256 Z" /></clipPath><clipPath
       id="clipPath122"
       clipPathUnits="userSpaceOnUse"><path
         id="path124"
         d="m 240,128 -32,-72 4,0 28,64 4,0 0,8 -4,0 z" /></clipPath><linearGradient
       id="linearGradient130"
       spreadMethod="pad"
       gradientTransform="matrix(22,-22,-22,-22,215,103)"
       gradientUnits="userSpaceOnUse"
       y2="0"
       x2="1"
       y1="0"
       x1="0"><stop
         id="stop132"
         offset="0"
         style="stop-opacity:1;stop-color:#e6e7e8" /><stop
         id="stop134"
         offset="1"
         style="stop-opacity:1;stop-color:#d1d3d4" /></linearGradient><clipPath
       id="clipPath142"
       clipPathUnits="userSpaceOnUse"><path
         id="path144"
         d="m 240,120 -28,-64 4,0 24,56 4,0 0,8 -4,0 z" /></clipPath><linearGradient
       id="linearGradient150"
       spreadMethod="pad"
       gradientTransform="matrix(-20,20,20,20,238,78)"
       gradientUnits="userSpaceOnUse"
       y2="0"
       x2="1"
       y1="0"
       x1="0"><stop
         id="stop152"
         offset="0"
         style="stop-opacity:1;stop-color:#e6e7e8" /><stop
         id="stop154"
         offset="1"
         style="stop-opacity:1;stop-color:#d1d3d4" /></linearGradient><clipPath
       id="clipPath162"
       clipPathUnits="userSpaceOnUse"><path
         id="path164"
         d="m 240,112 -24,-56 4,0 20,48 4,0 0,8 -4,0 z" /></clipPath><linearGradient
       id="linearGradient170"
       spreadMethod="pad"
       gradientTransform="matrix(18,-18,-18,-18,221,93)"
       gradientUnits="userSpaceOnUse"
       y2="0"
       x2="1"
       y1="0"
       x1="0"><stop
         id="stop172"
         offset="0"
         style="stop-opacity:1;stop-color:#e6e7e8" /><stop
         id="stop174"
         offset="1"
         style="stop-opacity:1;stop-color:#d1d3d4" /></linearGradient><clipPath
       id="clipPath182"
       clipPathUnits="userSpaceOnUse"><path
         id="path184"
         d="m 240,104 -20,-48 4,0 16,40 4,0 0,8 -4,0 z" /></clipPath><linearGradient
       id="linearGradient190"
       spreadMethod="pad"
       gradientTransform="matrix(-15.999999,15.999999,15.999999,15.999999,240,72)"
       gradientUnits="userSpaceOnUse"
       y2="0"
       x2="1"
       y1="0"
       x1="0"><stop
         id="stop192"
         offset="0"
         style="stop-opacity:1;stop-color:#e6e7e8" /><stop
         id="stop194"
         offset="1"
         style="stop-opacity:1;stop-color:#d1d3d4" /></linearGradient><clipPath
       id="clipPath202"
       clipPathUnits="userSpaceOnUse"><path
         id="path204"
         d="M 0,256 256,256 256,0 0,0 0,256 Z" /></clipPath></defs><g
     transform="matrix(1.25,0,0,-1.25,0,320)"
     id="g10"><g
       id="g12"><g
         clip-path="url(#clipPath16)"
         id="g14"><g
           id="g20"><g
             id="g22"><path
               id="path30"
               style="fill:url(#linearGradient24);stroke:none"
               d="m 244,56 -232,0 0,144 232,0 0,-144 z" /></g></g></g></g><g
       id="g32"><g
         clip-path="url(#clipPath36)"
         id="g34"><g
           id="g40"><g
             id="g42"><path
               id="path50"
               style="fill:url(#linearGradient44);stroke:none"
               d="m 17,152 c -2.761,0 -5,-2.238 -5,-5 l 0,0 0,-91 232,0 0,91 c 0,2.762 -2.238,5 -5,5 l 0,0 -222,0 z" /></g></g></g></g><g
       id="g52"><g
         clip-path="url(#clipPath56)"
         id="g54"><path
           id="path60"
           style="fill:#999999;fill-opacity:1;fill-rule:nonzero;stroke:none"
           d="m 36,132 -16,0 0,12 16,0 0,-12 z" /><path
           id="path62"
           style="fill:#999999;fill-opacity:1;fill-rule:nonzero;stroke:none"
           d="m 56,132 -16,0 0,12 16,0 0,-12 z" /><path
           id="path64"
           style="fill:#999999;fill-opacity:1;fill-rule:nonzero;stroke:none"
           d="m 76,132 -16,0 0,12 16,0 0,-12 z" /><path
           id="path66"
           style="fill:#999999;fill-opacity:1;fill-rule:nonzero;stroke:none"
           d="m 96,132 -16,0 0,12 16,0 0,-12 z" /><path
           id="path68"
           style="fill:#999999;fill-opacity:1;fill-rule:nonzero;stroke:none"
           d="m 116,132 -16,0 0,12 16,0 0,-12 z" /><path
           id="path70"
           style="fill:#999999;fill-opacity:1;fill-rule:nonzero;stroke:none"
           d="m 136,132 -16,0 0,12 16,0 0,-12 z" /><path
           id="path72"
           style="fill:#999999;fill-opacity:1;fill-rule:nonzero;stroke:none"
           d="m 156,132 -16,0 0,12 16,0 0,-12 z" /><path
           id="path74"
           style="fill:#999999;fill-opacity:1;fill-rule:nonzero;stroke:none"
           d="m 176,132 -16,0 0,12 16,0 0,-12 z" /><path
           id="path76"
           style="fill:#999999;fill-opacity:1;fill-rule:nonzero;stroke:none"
           d="m 196,132 -16,0 0,12 16,0 0,-12 z" /><path
           id="path78"
           style="fill:#999999;fill-opacity:1;fill-rule:nonzero;stroke:none"
           d="m 216,132 -16,0 0,12 16,0 0,-12 z" /><path
           id="path80"
           style="fill:#999999;fill-opacity:1;fill-rule:nonzero;stroke:none"
           d="m 48,112 -16,0 0,12 16,0 0,-12 z" /><path
           id="path82"
           style="fill:#999999;fill-opacity:1;fill-rule:nonzero;stroke:none"
           d="m 68,112 -16,0 0,12 16,0 0,-12 z" /><path
           id="path84"
           style="fill:#999999;fill-opacity:1;fill-rule:nonzero;stroke:none"
           d="m 88,112 -16,0 0,12 16,0 0,-12 z" /><path
           id="path86"
           style="fill:#999999;fill-opacity:1;fill-rule:nonzero;stroke:none"
           d="m 108,112 -16,0 0,12 16,0 0,-12 z" /><path
           id="path88"
           style="fill:#999999;fill-opacity:1;fill-rule:nonzero;stroke:none"
           d="m 128,112 -16,0 0,12 16,0 0,-12 z" /><path
           id="path90"
           style="fill:#999999;fill-opacity:1;fill-rule:nonzero;stroke:none"
           d="m 148,112 -16,0 0,12 16,0 0,-12 z" /><path
           id="path92"
           style="fill:#999999;fill-opacity:1;fill-rule:nonzero;stroke:none"
           d="m 168,112 -16,0 0,12 16,0 0,-12 z" /><path
           id="path94"
           style="fill:#999999;fill-opacity:1;fill-rule:nonzero;stroke:none"
           d="m 188,112 -16,0 0,12 16,0 0,-12 z" /><path
           id="path96"
           style="fill:#999999;fill-opacity:1;fill-rule:nonzero;stroke:none"
           d="m 208,112 -16,0 0,12 16,0 0,-12 z" /><path
           id="path98"
           style="fill:#999999;fill-opacity:1;fill-rule:nonzero;stroke:none"
           d="m 228,112 -16,0 0,12 16,0 0,-12 z" /><path
           id="path100"
           style="fill:#999999;fill-opacity:1;fill-rule:nonzero;stroke:none"
           d="m 40.24,72 -16,0 0,12 16,0 0,-12 z" /><path
           id="path102"
           style="fill:#999999;fill-opacity:1;fill-rule:nonzero;stroke:none"
           d="m 60,72 -16,0 0,12 16,0 0,-12 z" /><path
           id="path104"
           style="fill:#999999;fill-opacity:1;fill-rule:nonzero;stroke:none"
           d="m 79.76,72 -16,0 0,12 16,0 0,-12 z" /><path
           id="path106"
           style="fill:#999999;fill-opacity:1;fill-rule:nonzero;stroke:none"
           d="m 99.52,72 -16,0 0,12 16,0 0,-12 z" /><path
           id="path108"
           style="fill:#999999;fill-opacity:1;fill-rule:nonzero;stroke:none"
           d="m 119.28,72 -16,0 0,12 16,0 0,-12 z" /><path
           id="path110"
           style="fill:#999999;fill-opacity:1;fill-rule:nonzero;stroke:none"
           d="m 139.041,72 -16,0 0,12 16,0 0,-12 z" /><path
           id="path112"
           style="fill:#999999;fill-opacity:1;fill-rule:nonzero;stroke:none"
           d="m 158.801,72 -16,0 0,12 16,0 0,-12 z" /><path
           id="path114"
           style="fill:#999999;fill-opacity:1;fill-rule:nonzero;stroke:none"
           d="m 178.561,72 -16,0 0,12 16,0 0,-12 z" /><path
           id="path116"
           style="fill:#999999;fill-opacity:1;fill-rule:nonzero;stroke:none"
           d="m 198.321,72 -16,0 0,12 16,0 0,-12 z" /></g></g><g
       id="g118"><g
         clip-path="url(#clipPath122)"
         id="g120"><g
           id="g126"><g
             id="g128"><path
               id="path136"
               style="fill:url(#linearGradient130);stroke:none"
               d="m 240,128 -32,-72 4,0 28,64 4,0 0,8 -4,0 z" /></g></g></g></g><g
       id="g138"><g
         clip-path="url(#clipPath142)"
         id="g140"><g
           id="g146"><g
             id="g148"><path
               id="path156"
               style="fill:url(#linearGradient150);stroke:none"
               d="m 240,120 -28,-64 4,0 24,56 4,0 0,8 -4,0 z" /></g></g></g></g><g
       id="g158"><g
         clip-path="url(#clipPath162)"
         id="g160"><g
           id="g166"><g
             id="g168"><path
               id="path176"
               style="fill:url(#linearGradient170);stroke:none"
               d="m 240,112 -24,-56 4,0 20,48 4,0 0,8 -4,0 z" /></g></g></g></g><g
       id="g178"><g
         clip-path="url(#clipPath182)"
         id="g180"><g
           id="g186"><g
             id="g188"><path
               id="path196"
               style="fill:url(#linearGradient190);stroke:none"
               d="m 240,104 -20,-48 4,0 16,40 4,0 0,8 -4,0 z" /></g></g></g></g><g
       id="g198"><g
         clip-path="url(#clipPath202)"
         id="g200"><path
           id="path206"
           style="fill:#999999;fill-opacity:1;fill-rule:nonzero;stroke:none"
           d="m 52,92 -16,0 0,12 16,0 0,-12 z" /><path
           id="path208"
           style="fill:#999999;fill-opacity:1;fill-rule:nonzero;stroke:none"
           d="m 72,92 -16,0 0,12 16,0 0,-12 z" /><path
           id="path210"
           style="fill:#999999;fill-opacity:1;fill-rule:nonzero;stroke:none"
           d="m 92,92 -16,0 0,12 16,0 0,-12 z" /><path
           id="path212"
           style="fill:#999999;fill-opacity:1;fill-rule:nonzero;stroke:none"
           d="m 112,92 -16,0 0,12 16,0 0,-12 z" /><path
           id="path214"
           style="fill:#999999;fill-opacity:1;fill-rule:nonzero;stroke:none"
           d="m 132,92 -16,0 0,12 16,0 0,-12 z" /><path
           id="path216"
           style="fill:#999999;fill-opacity:1;fill-rule:nonzero;stroke:none"
           d="m 152,92 -16,0 0,12 16,0 0,-12 z" /><path
           id="path218"
           style="fill:#999999;fill-opacity:1;fill-rule:nonzero;stroke:none"
           d="m 172,92 -16,0 0,12 16,0 0,-12 z" /><path
           id="path220"
           style="fill:#999999;fill-opacity:1;fill-rule:nonzero;stroke:none"
           d="m 192,92 -16,0 0,12 16,0 0,-12 z" /><path
           id="path222"
           style="fill:#999999;fill-opacity:1;fill-rule:nonzero;stroke:none"
           d="m 212,92 -16,0 0,12 16,0 0,-12 z" /><path
           id="path224"
           style="fill:#999999;fill-opacity:1;fill-rule:nonzero;stroke:none"
           d="m 232,92 -16,0 0,12 16,0 0,-12 z" /><path
           id="path226"
           style="fill:#999999;fill-opacity:1;fill-rule:nonzero;stroke:none"
           d="m 232,72 -29.919,0 0,12 29.919,0 0,-12 z" /></g></g></g></svg>