<?xml version="1.0" encoding="UTF-8" standalone="no"?>
<svg
   xmlns:dc="http://purl.org/dc/elements/1.1/"
   xmlns:cc="http://creativecommons.org/ns#"
   xmlns:rdf="http://www.w3.org/1999/02/22-rdf-syntax-ns#"
   xmlns:svg="http://www.w3.org/2000/svg"
   xmlns="http://www.w3.org/2000/svg"
   viewBox="0 0 320 320"
   height="320"
   width="320"
   xml:space="preserve"
   version="1.1"
   id="svg2"><metadata
     id="metadata8"><rdf:RDF><cc:Work
         rdf:about=""><dc:format>image/svg+xml</dc:format><dc:type
           rdf:resource="http://purl.org/dc/dcmitype/StillImage" /></cc:Work></rdf:RDF></metadata><defs
     id="defs6"><clipPath
       id="clipPath16"
       clipPathUnits="userSpaceOnUse"><path
         id="path18"
         d="m 14,172 c -1.105,0 -2,-0.896 -2,-2 l 0,0 0,-84 c 0,-1.105 0.895,-2 2,-2 l 0,0 228,0 c 1.104,0 2,0.895 2,2 l 0,0 0,84 c 0,1.104 -0.896,2 -2,2 l 0,0 -228,0 z" /></clipPath><linearGradient
       id="linearGradient24"
       spreadMethod="pad"
       gradientTransform="matrix(158.82841,-158.82841,-158.82841,-158.82841,48.585785,207.41422)"
       gradientUnits="userSpaceOnUse"
       y2="0"
       x2="1"
       y1="0"
       x1="0"><stop
         id="stop26"
         offset="0"
         style="stop-opacity:1;stop-color:#e6e7e8" /><stop
         id="stop28"
         offset="1"
         style="stop-opacity:1;stop-color:#d1d3d4" /></linearGradient><clipPath
       id="clipPath36"
       clipPathUnits="userSpaceOnUse"><path
         id="path38"
         d="M 0,256 256,256 256,0 0,0 0,256 Z" /></clipPath><clipPath
       id="clipPath46"
       clipPathUnits="userSpaceOnUse"><path
         id="path48"
         d="m 12,148 168,0 0,4 -168,0 0,-4 z" /></clipPath><linearGradient
       id="linearGradient54"
       spreadMethod="pad"
       gradientTransform="matrix(-86,86,86,86,139,107)"
       gradientUnits="userSpaceOnUse"
       y2="0"
       x2="1"
       y1="0"
       x1="0"><stop
         id="stop56"
         offset="0"
         style="stop-opacity:1;stop-color:#e6e7e8" /><stop
         id="stop58"
         offset="1"
         style="stop-opacity:1;stop-color:#d1d3d4" /></linearGradient><clipPath
       id="clipPath66"
       clipPathUnits="userSpaceOnUse"><path
         id="path68"
         d="m 12,140 176,0 0,4 -176,0 0,-4 z" /></clipPath><linearGradient
       id="linearGradient74"
       spreadMethod="pad"
       gradientTransform="matrix(-90,90,90,90,145,97)"
       gradientUnits="userSpaceOnUse"
       y2="0"
       x2="1"
       y1="0"
       x1="0"><stop
         id="stop76"
         offset="0"
         style="stop-opacity:1;stop-color:#e6e7e8" /><stop
         id="stop78"
         offset="1"
         style="stop-opacity:1;stop-color:#d1d3d4" /></linearGradient><clipPath
       id="clipPath86"
       clipPathUnits="userSpaceOnUse"><path
         id="path88"
         d="m 12,132 176,0 0,4 -176,0 0,-4 z" /></clipPath><linearGradient
       id="linearGradient94"
       spreadMethod="pad"
       gradientTransform="matrix(-90,90,90,90,145,89)"
       gradientUnits="userSpaceOnUse"
       y2="0"
       x2="1"
       y1="0"
       x1="0"><stop
         id="stop96"
         offset="0"
         style="stop-opacity:1;stop-color:#e6e7e8" /><stop
         id="stop98"
         offset="1"
         style="stop-opacity:1;stop-color:#d1d3d4" /></linearGradient><clipPath
       id="clipPath106"
       clipPathUnits="userSpaceOnUse"><path
         id="path108"
         d="m 12,124 176,0 0,4 -176,0 0,-4 z" /></clipPath><linearGradient
       id="linearGradient114"
       spreadMethod="pad"
       gradientTransform="matrix(-90,90,90,90,145,81)"
       gradientUnits="userSpaceOnUse"
       y2="0"
       x2="1"
       y1="0"
       x1="0"><stop
         id="stop116"
         offset="0"
         style="stop-opacity:1;stop-color:#e6e7e8" /><stop
         id="stop118"
         offset="1"
         style="stop-opacity:1;stop-color:#d1d3d4" /></linearGradient><clipPath
       id="clipPath126"
       clipPathUnits="userSpaceOnUse"><path
         id="path128"
         d="m 12,116 176,0 0,4 -176,0 0,-4 z" /></clipPath><linearGradient
       id="linearGradient134"
       spreadMethod="pad"
       gradientTransform="matrix(-90,90,90,90,145,73)"
       gradientUnits="userSpaceOnUse"
       y2="0"
       x2="1"
       y1="0"
       x1="0"><stop
         id="stop136"
         offset="0"
         style="stop-opacity:1;stop-color:#e6e7e8" /><stop
         id="stop138"
         offset="1"
         style="stop-opacity:1;stop-color:#d1d3d4" /></linearGradient><clipPath
       id="clipPath146"
       clipPathUnits="userSpaceOnUse"><path
         id="path148"
         d="m 12,108 176,0 0,4 -176,0 0,-4 z" /></clipPath><linearGradient
       id="linearGradient154"
       spreadMethod="pad"
       gradientTransform="matrix(-90,90,90,90,145,65)"
       gradientUnits="userSpaceOnUse"
       y2="0"
       x2="1"
       y1="0"
       x1="0"><stop
         id="stop156"
         offset="0"
         style="stop-opacity:1;stop-color:#e6e7e8" /><stop
         id="stop158"
         offset="1"
         style="stop-opacity:1;stop-color:#d1d3d4" /></linearGradient><clipPath
       id="clipPath166"
       clipPathUnits="userSpaceOnUse"><path
         id="path168"
         d="m 12,100 176,0 0,4.001 -176,0 0,-4.001 z" /></clipPath><linearGradient
       id="linearGradient174"
       spreadMethod="pad"
       gradientTransform="matrix(-90,90,90,90,145,57)"
       gradientUnits="userSpaceOnUse"
       y2="0"
       x2="1"
       y1="0"
       x1="0"><stop
         id="stop176"
         offset="0"
         style="stop-opacity:1;stop-color:#e6e7e8" /><stop
         id="stop178"
         offset="1"
         style="stop-opacity:1;stop-color:#d1d3d4" /></linearGradient><clipPath
       id="clipPath186"
       clipPathUnits="userSpaceOnUse"><path
         id="path188"
         d="m 12,92 176,0 0,4.001 -176,0 L 12,92 Z" /></clipPath><linearGradient
       id="linearGradient194"
       spreadMethod="pad"
       gradientTransform="matrix(-90,90,90,90,145,49)"
       gradientUnits="userSpaceOnUse"
       y2="0"
       x2="1"
       y1="0"
       x1="0"><stop
         id="stop196"
         offset="0"
         style="stop-opacity:1;stop-color:#e6e7e8" /><stop
         id="stop198"
         offset="1"
         style="stop-opacity:1;stop-color:#d1d3d4" /></linearGradient><clipPath
       id="clipPath206"
       clipPathUnits="userSpaceOnUse"><path
         id="path208"
         d="M 0,256 256,256 256,0 0,0 0,256 Z" /></clipPath><clipPath
       id="clipPath360"
       clipPathUnits="userSpaceOnUse"><path
         id="path362"
         d="m 188,144 0,-4 4,0 0,-4 -4,0 0,-4 4,0 0,-4 -4,0 0,-4 4,0 0,-4 -4,0 0,-4 4,0 0,-4 -4,0 0,-4 4,0 0,-4 -4,0 0,-4 4,0 0,-4 -4,0 0,-4 4,0 0,-4 48,0 0,4 4,0 0,4 -4,0 0,4 4,0 0,4 -4,0 0,4 4,0 0,4 -4,0 0,4 4,0 0,4 -4,0 0,4 4,0 0,4 -4,0 0,4 4,0 0,4 -4,0 0,4 4,0 0,4 -56,0 z" /></clipPath><linearGradient
       id="linearGradient368"
       spreadMethod="pad"
       gradientTransform="matrix(-53.999996,53.999996,53.999996,53.999996,243,91)"
       gradientUnits="userSpaceOnUse"
       y2="0"
       x2="1"
       y1="0"
       x1="0"><stop
         id="stop370"
         offset="0"
         style="stop-opacity:1;stop-color:#e6e7e8" /><stop
         id="stop372"
         offset="1"
         style="stop-opacity:1;stop-color:#d1d3d4" /></linearGradient><clipPath
       id="clipPath380"
       clipPathUnits="userSpaceOnUse"><path
         id="path382"
         d="m 192,104 48.001,0 0,4 -48.001,0 0,-4 z" /></clipPath><linearGradient
       id="linearGradient388"
       spreadMethod="pad"
       gradientTransform="matrix(26,-26,-26,-26,203,119)"
       gradientUnits="userSpaceOnUse"
       y2="0"
       x2="1"
       y1="0"
       x1="0"><stop
         id="stop390"
         offset="0"
         style="stop-opacity:1;stop-color:#e6e7e8" /><stop
         id="stop392"
         offset="1"
         style="stop-opacity:1;stop-color:#d1d3d4" /></linearGradient><clipPath
       id="clipPath400"
       clipPathUnits="userSpaceOnUse"><path
         id="path402"
         d="m 192,100 48.001,0 0,4.001 -48.001,0 0,-4.001 z" /></clipPath><linearGradient
       id="linearGradient408"
       spreadMethod="pad"
       gradientTransform="matrix(-26,26,26,26,229,89)"
       gradientUnits="userSpaceOnUse"
       y2="0"
       x2="1"
       y1="0"
       x1="0"><stop
         id="stop410"
         offset="0"
         style="stop-opacity:1;stop-color:#e6e7e8" /><stop
         id="stop412"
         offset="1"
         style="stop-opacity:1;stop-color:#d1d3d4" /></linearGradient><clipPath
       id="clipPath420"
       clipPathUnits="userSpaceOnUse"><path
         id="path422"
         d="m 192,96 48.001,0 0,4 -48.001,0 0,-4 z" /></clipPath><linearGradient
       id="linearGradient428"
       spreadMethod="pad"
       gradientTransform="matrix(26,-26,-26,-26,203,111)"
       gradientUnits="userSpaceOnUse"
       y2="0"
       x2="1"
       y1="0"
       x1="0"><stop
         id="stop430"
         offset="0"
         style="stop-opacity:1;stop-color:#e6e7e8" /><stop
         id="stop432"
         offset="1"
         style="stop-opacity:1;stop-color:#d1d3d4" /></linearGradient><clipPath
       id="clipPath440"
       clipPathUnits="userSpaceOnUse"><path
         id="path442"
         d="m 192,92 48.001,0 0,4.001 -48.001,0 0,-4.001 z" /></clipPath><linearGradient
       id="linearGradient448"
       spreadMethod="pad"
       gradientTransform="matrix(-26,26,26,26,229,81)"
       gradientUnits="userSpaceOnUse"
       y2="0"
       x2="1"
       y1="0"
       x1="0"><stop
         id="stop450"
         offset="0"
         style="stop-opacity:1;stop-color:#e6e7e8" /><stop
         id="stop452"
         offset="1"
         style="stop-opacity:1;stop-color:#d1d3d4" /></linearGradient></defs><g
     transform="matrix(1.25,0,0,-1.25,0,320)"
     id="g10"><g
       id="g12"><g
         clip-path="url(#clipPath16)"
         id="g14"><g
           id="g20"><g
             id="g22"><path
               id="path30"
               style="fill:url(#linearGradient24);stroke:none"
               d="m 14,172 c -1.105,0 -2,-0.896 -2,-2 l 0,0 0,-84 c 0,-1.105 0.895,-2 2,-2 l 0,0 228,0 c 1.104,0 2,0.895 2,2 l 0,0 0,84 c 0,1.104 -0.896,2 -2,2 l 0,0 -228,0 z" /></g></g></g></g><g
       id="g32"><g
         clip-path="url(#clipPath36)"
         id="g34"><path
           id="path40"
           style="fill:#999999;fill-opacity:1;fill-rule:nonzero;stroke:none"
           d="m 244,88 -56,0 0,64 56,0 0,-64 z" /></g></g><g
       id="g42"><g
         clip-path="url(#clipPath46)"
         id="g44"><g
           id="g50"><g
             id="g52"><path
               id="path60"
               style="fill:url(#linearGradient54);stroke:none"
               d="m 12,148 168,0 0,4 -168,0 0,-4 z" /></g></g></g></g><g
       id="g62"><g
         clip-path="url(#clipPath66)"
         id="g64"><g
           id="g70"><g
             id="g72"><path
               id="path80"
               style="fill:url(#linearGradient74);stroke:none"
               d="m 12,140 176,0 0,4 -176,0 0,-4 z" /></g></g></g></g><g
       id="g82"><g
         clip-path="url(#clipPath86)"
         id="g84"><g
           id="g90"><g
             id="g92"><path
               id="path100"
               style="fill:url(#linearGradient94);stroke:none"
               d="m 12,132 176,0 0,4 -176,0 0,-4 z" /></g></g></g></g><g
       id="g102"><g
         clip-path="url(#clipPath106)"
         id="g104"><g
           id="g110"><g
             id="g112"><path
               id="path120"
               style="fill:url(#linearGradient114);stroke:none"
               d="m 12,124 176,0 0,4 -176,0 0,-4 z" /></g></g></g></g><g
       id="g122"><g
         clip-path="url(#clipPath126)"
         id="g124"><g
           id="g130"><g
             id="g132"><path
               id="path140"
               style="fill:url(#linearGradient134);stroke:none"
               d="m 12,116 176,0 0,4 -176,0 0,-4 z" /></g></g></g></g><g
       id="g142"><g
         clip-path="url(#clipPath146)"
         id="g144"><g
           id="g150"><g
             id="g152"><path
               id="path160"
               style="fill:url(#linearGradient154);stroke:none"
               d="m 12,108 176,0 0,4 -176,0 0,-4 z" /></g></g></g></g><g
       id="g162"><g
         clip-path="url(#clipPath166)"
         id="g164"><g
           id="g170"><g
             id="g172"><path
               id="path180"
               style="fill:url(#linearGradient174);stroke:none"
               d="m 12,100 176,0 0,4.001 -176,0 0,-4.001 z" /></g></g></g></g><g
       id="g182"><g
         clip-path="url(#clipPath186)"
         id="g184"><g
           id="g190"><g
             id="g192"><path
               id="path200"
               style="fill:url(#linearGradient194);stroke:none"
               d="m 12,92 176,0 0,4.001 -176,0 L 12,92 Z" /></g></g></g></g><g
       id="g202"><g
         clip-path="url(#clipPath206)"
         id="g204"><path
           id="path210"
           style="fill:#999999;fill-opacity:1;fill-rule:nonzero;stroke:none"
           d="m 48,124 -8,0 0,8 8,0 0,-8 z" /><path
           id="path212"
           style="fill:#999999;fill-opacity:1;fill-rule:nonzero;stroke:none"
           d="m 52,112 -12,0 0,8 12,0 0,-8 z" /><path
           id="path214"
           style="fill:#999999;fill-opacity:1;fill-rule:nonzero;stroke:none"
           d="m 60,124 -8,0 0,8 8,0 0,-8 z" /><path
           id="path216"
           style="fill:#999999;fill-opacity:1;fill-rule:nonzero;stroke:none"
           d="m 64,112 -8,0 0,8 8,0 0,-8 z" /><path
           id="path218"
           style="fill:#999999;fill-opacity:1;fill-rule:nonzero;stroke:none"
           d="m 68,100.075 -8,0 0,8 8,0 0,-8 z" /><path
           id="path220"
           style="fill:#999999;fill-opacity:1;fill-rule:nonzero;stroke:none"
           d="m 80,100.075 -8,0 0,8 8,0 0,-8 z" /><path
           id="path222"
           style="fill:#999999;fill-opacity:1;fill-rule:nonzero;stroke:none"
           d="m 92,100.075 -8,0 0,8 8,0 0,-8 z" /><path
           id="path224"
           style="fill:#999999;fill-opacity:1;fill-rule:nonzero;stroke:none"
           d="m 104,100.075 -8,0 0,8 8,0 0,-8 z" /><path
           id="path226"
           style="fill:#999999;fill-opacity:1;fill-rule:nonzero;stroke:none"
           d="m 116,100.075 -8,0 0,8 8,0 0,-8 z" /><path
           id="path228"
           style="fill:#999999;fill-opacity:1;fill-rule:nonzero;stroke:none"
           d="m 128,100.075 -8,0 0,8 8,0 0,-8 z" /><path
           id="path230"
           style="fill:#999999;fill-opacity:1;fill-rule:nonzero;stroke:none"
           d="m 140,100.075 -8,0 0,8 8,0 0,-8 z" /><path
           id="path232"
           style="fill:#999999;fill-opacity:1;fill-rule:nonzero;stroke:none"
           d="m 152,100.075 -8,0 0,8 8,0 0,-8 z" /><path
           id="path234"
           style="fill:#999999;fill-opacity:1;fill-rule:nonzero;stroke:none"
           d="m 76,112 -8,0 0,8 8,0 0,-8 z" /><path
           id="path236"
           style="fill:#999999;fill-opacity:1;fill-rule:nonzero;stroke:none"
           d="m 88,112 -8,0 0,8 8,0 0,-8 z" /><path
           id="path238"
           style="fill:#999999;fill-opacity:1;fill-rule:nonzero;stroke:none"
           d="m 100,112 -8,0 0,8 8,0 0,-8 z" /><path
           id="path240"
           style="fill:#999999;fill-opacity:1;fill-rule:nonzero;stroke:none"
           d="m 112,112 -8,0 0,8 8,0 0,-8 z" /><path
           id="path242"
           style="fill:#999999;fill-opacity:1;fill-rule:nonzero;stroke:none"
           d="m 124,112 -8,0 0,8 8,0 0,-8 z" /><path
           id="path244"
           style="fill:#999999;fill-opacity:1;fill-rule:nonzero;stroke:none"
           d="m 136,112 -8,0 0,8 8,0 0,-8 z" /><path
           id="path246"
           style="fill:#999999;fill-opacity:1;fill-rule:nonzero;stroke:none"
           d="m 148,112 -8,0 0,8 8,0 0,-8 z" /><path
           id="path248"
           style="fill:#999999;fill-opacity:1;fill-rule:nonzero;stroke:none"
           d="m 160,112.075 -8,0 0,8 8,0 0,-8 z" /><g
           transform="translate(164,120.0748)"
           id="g250"><path
             id="path252"
             style="fill:#999999;fill-opacity:1;fill-rule:nonzero;stroke:none"
             d="m 0,0 0,-12 -8,0 0,-8 8,0 8,0 0,20 -8,0 z" /></g><path
           id="path254"
           style="fill:#999999;fill-opacity:1;fill-rule:nonzero;stroke:none"
           d="m 72,124 -8,0 0,8 8,0 0,-8 z" /><path
           id="path256"
           style="fill:#999999;fill-opacity:1;fill-rule:nonzero;stroke:none"
           d="m 84,124 -8,0 0,8 8,0 0,-8 z" /><path
           id="path258"
           style="fill:#999999;fill-opacity:1;fill-rule:nonzero;stroke:none"
           d="m 96,124 -8,0 0,8 8,0 0,-8 z" /><path
           id="path260"
           style="fill:#999999;fill-opacity:1;fill-rule:nonzero;stroke:none"
           d="m 108,124 -8,0 0,8 8,0 0,-8 z" /><path
           id="path262"
           style="fill:#999999;fill-opacity:1;fill-rule:nonzero;stroke:none"
           d="m 120,124 -8,0 0,8 8,0 0,-8 z" /><path
           id="path264"
           style="fill:#999999;fill-opacity:1;fill-rule:nonzero;stroke:none"
           d="m 132,124 -8,0 0,8 8,0 0,-8 z" /><path
           id="path266"
           style="fill:#999999;fill-opacity:1;fill-rule:nonzero;stroke:none"
           d="m 144,124 -8,0 0,8 8,0 0,-8 z" /><path
           id="path268"
           style="fill:#999999;fill-opacity:1;fill-rule:nonzero;stroke:none"
           d="m 156,124 -8,0 0,8 8,0 0,-8 z" /><path
           id="path270"
           style="fill:#999999;fill-opacity:1;fill-rule:nonzero;stroke:none"
           d="m 172,124 -12,0 0,8 12,0 0,-8 z" /><path
           id="path272"
           style="fill:#999999;fill-opacity:1;fill-rule:nonzero;stroke:none"
           d="m 56,100.075 -16,0 0,8.075 16,0 0,-8.075 z" /><path
           id="path274"
           style="fill:#999999;fill-opacity:1;fill-rule:nonzero;stroke:none"
           d="m 148,88 -8,0 0,8.075 8,0 0,-8.075 z" /><path
           id="path276"
           style="fill:#999999;fill-opacity:1;fill-rule:nonzero;stroke:none"
           d="m 136,87.925 -8,0 0,8.075 8,0 0,-8.075 z" /><path
           id="path278"
           style="fill:#999999;fill-opacity:1;fill-rule:nonzero;stroke:none"
           d="m 48,87.925 -8,0 0,8.075 8,0 0,-8.075 z" /><path
           id="path280"
           style="fill:#999999;fill-opacity:1;fill-rule:nonzero;stroke:none"
           d="m 60,88 -8,0 0,8.075 8,0 L 60,88 Z" /><path
           id="path282"
           style="fill:#999999;fill-opacity:1;fill-rule:nonzero;stroke:none"
           d="m 72,88.075 -8,0 0,8.075 8,0 0,-8.075 z" /><path
           id="path284"
           style="fill:#999999;fill-opacity:1;fill-rule:nonzero;stroke:none"
           d="m 84,88.15 -8,0 0,8.075 8,0 0,-8.075 z" /><path
           id="path286"
           style="fill:#999999;fill-opacity:1;fill-rule:nonzero;stroke:none"
           d="m 160,88 -8,0 0,8.075 8,0 0,-8.075 z" /><path
           id="path288"
           style="fill:#999999;fill-opacity:1;fill-rule:nonzero;stroke:none"
           d="m 172,88 -8,0 0,8.075 8,0 0,-8.075 z" /><path
           id="path290"
           style="fill:#999999;fill-opacity:1;fill-rule:nonzero;stroke:none"
           d="m 124,88 -36,0 0,8.075 36,0 0,-8.075 z" /><path
           id="path292"
           style="fill:#999999;fill-opacity:1;fill-rule:nonzero;stroke:none"
           d="m 20,168 -4,0 0,4 4,0 0,-4 z" /><path
           id="path294"
           style="fill:#999999;fill-opacity:1;fill-rule:nonzero;stroke:none"
           d="m 28,168 -4,0 0,4 4,0 0,-4 z" /><path
           id="path296"
           style="fill:#999999;fill-opacity:1;fill-rule:nonzero;stroke:none"
           d="m 36,168 -4,0 0,4 4,0 0,-4 z" /><path
           id="path298"
           style="fill:#999999;fill-opacity:1;fill-rule:nonzero;stroke:none"
           d="m 44,168 -4,0 0,4 4,0 0,-4 z" /><path
           id="path300"
           style="fill:#999999;fill-opacity:1;fill-rule:nonzero;stroke:none"
           d="m 52,168 -4,0 0,4 4,0 0,-4 z" /><path
           id="path302"
           style="fill:#999999;fill-opacity:1;fill-rule:nonzero;stroke:none"
           d="m 60,168 -4,0 0,4 4,0 0,-4 z" /><path
           id="path304"
           style="fill:#999999;fill-opacity:1;fill-rule:nonzero;stroke:none"
           d="m 68,168 -4,0 0,4 4,0 0,-4 z" /><path
           id="path306"
           style="fill:#999999;fill-opacity:1;fill-rule:nonzero;stroke:none"
           d="m 76,168 -4,0 0,4 4,0 0,-4 z" /><path
           id="path308"
           style="fill:#999999;fill-opacity:1;fill-rule:nonzero;stroke:none"
           d="m 84,168 -4,0 0,4 4,0 0,-4 z" /><path
           id="path310"
           style="fill:#999999;fill-opacity:1;fill-rule:nonzero;stroke:none"
           d="m 92,168 -4,0 0,4 4,0 0,-4 z" /><path
           id="path312"
           style="fill:#999999;fill-opacity:1;fill-rule:nonzero;stroke:none"
           d="m 100,168 -4,0 0,4 4,0 0,-4 z" /><path
           id="path314"
           style="fill:#999999;fill-opacity:1;fill-rule:nonzero;stroke:none"
           d="m 108,168 -4,0 0,4 4,0 0,-4 z" /><path
           id="path316"
           style="fill:#999999;fill-opacity:1;fill-rule:nonzero;stroke:none"
           d="m 116,168 -4,0 0,4 4,0 0,-4 z" /><path
           id="path318"
           style="fill:#999999;fill-opacity:1;fill-rule:nonzero;stroke:none"
           d="m 124,168 -4,0 0,4 4,0 0,-4 z" /><path
           id="path320"
           style="fill:#999999;fill-opacity:1;fill-rule:nonzero;stroke:none"
           d="m 132,168 -4,0 0,4 4,0 0,-4 z" /><path
           id="path322"
           style="fill:#999999;fill-opacity:1;fill-rule:nonzero;stroke:none"
           d="m 140,168 -4,0 0,4 4,0 0,-4 z" /><path
           id="path324"
           style="fill:#999999;fill-opacity:1;fill-rule:nonzero;stroke:none"
           d="m 148,168 -4,0 0,4 4,0 0,-4 z" /><path
           id="path326"
           style="fill:#999999;fill-opacity:1;fill-rule:nonzero;stroke:none"
           d="m 156,168 -4,0 0,4 4,0 0,-4 z" /><path
           id="path328"
           style="fill:#999999;fill-opacity:1;fill-rule:nonzero;stroke:none"
           d="m 164,168 -4,0 0,4 4,0 0,-4 z" /><path
           id="path330"
           style="fill:#999999;fill-opacity:1;fill-rule:nonzero;stroke:none"
           d="m 172,168 -4,0 0,4 4,0 0,-4 z" /><path
           id="path332"
           style="fill:#999999;fill-opacity:1;fill-rule:nonzero;stroke:none"
           d="m 180,168 -4,0 0,4 4,0 0,-4 z" /><path
           id="path334"
           style="fill:#999999;fill-opacity:1;fill-rule:nonzero;stroke:none"
           d="m 188,168 -4,0 0,4 4,0 0,-4 z" /><path
           id="path336"
           style="fill:#999999;fill-opacity:1;fill-rule:nonzero;stroke:none"
           d="m 196,168 -4,0 0,4 4,0 0,-4 z" /><path
           id="path338"
           style="fill:#999999;fill-opacity:1;fill-rule:nonzero;stroke:none"
           d="m 204,168 -4,0 0,4 4,0 0,-4 z" /><path
           id="path340"
           style="fill:#999999;fill-opacity:1;fill-rule:nonzero;stroke:none"
           d="m 212,168 -4,0 0,4 4,0 0,-4 z" /><path
           id="path342"
           style="fill:#999999;fill-opacity:1;fill-rule:nonzero;stroke:none"
           d="m 220,168 -4,0 0,4 4,0 0,-4 z" /><path
           id="path344"
           style="fill:#999999;fill-opacity:1;fill-rule:nonzero;stroke:none"
           d="m 228,168 -4,0 0,4 4,0 0,-4 z" /><path
           id="path346"
           style="fill:#999999;fill-opacity:1;fill-rule:nonzero;stroke:none"
           d="m 236,168 -4,0 0,4 4,0 0,-4 z" /><g
           transform="translate(244,168)"
           id="g348"><path
             id="path350"
             style="fill:#999999;fill-opacity:1;fill-rule:nonzero;stroke:none"
             d="m 0,0 -4,0 0,4 2,0 C -0.895,4 0,3.105 0,2 L 0,0 Z" /></g><path
           id="path352"
           style="fill:#999999;fill-opacity:1;fill-rule:nonzero;stroke:none"
           d="m 188,84 -4,0 0,56 4,0 0,-56 z" /><path
           id="path354"
           style="fill:#ffffff;fill-opacity:1;fill-rule:nonzero;stroke:none"
           d="m 188,148 -4,0 0,4 4,0 0,-4 z" /></g></g><g
       id="g356"><g
         clip-path="url(#clipPath360)"
         id="g358"><g
           id="g364"><g
             id="g366"><path
               id="path374"
               style="fill:url(#linearGradient368);stroke:none"
               d="m 188,144 0,-4 4,0 0,-4 -4,0 0,-4 4,0 0,-4 -4,0 0,-4 4,0 0,-4 -4,0 0,-4 4,0 0,-4 -4,0 0,-4 4,0 0,-4 -4,0 0,-4 4,0 0,-4 -4,0 0,-4 4,0 0,-4 48,0 0,4 4,0 0,4 -4,0 0,4 4,0 0,4 -4,0 0,4 4,0 0,4 -4,0 0,4 4,0 0,4 -4,0 0,4 4,0 0,4 -4,0 0,4 4,0 0,4 -4,0 0,4 4,0 0,4 -56,0 z" /></g></g></g></g><g
       id="g376"><g
         clip-path="url(#clipPath380)"
         id="g378"><g
           id="g384"><g
             id="g386"><path
               id="path394"
               style="fill:url(#linearGradient388);stroke:none"
               d="m 192,104 48.001,0 0,4 -48.001,0 0,-4 z" /></g></g></g></g><g
       id="g396"><g
         clip-path="url(#clipPath400)"
         id="g398"><g
           id="g404"><g
             id="g406"><path
               id="path414"
               style="fill:url(#linearGradient408);stroke:none"
               d="m 192,100 48.001,0 0,4.001 -48.001,0 0,-4.001 z" /></g></g></g></g><g
       id="g416"><g
         clip-path="url(#clipPath420)"
         id="g418"><g
           id="g424"><g
             id="g426"><path
               id="path434"
               style="fill:url(#linearGradient428);stroke:none"
               d="m 192,96 48.001,0 0,4 -48.001,0 0,-4 z" /></g></g></g></g><g
       id="g436"><g
         clip-path="url(#clipPath440)"
         id="g438"><g
           id="g444"><g
             id="g446"><path
               id="path454"
               style="fill:url(#linearGradient448);stroke:none"
               d="m 192,92 48.001,0 0,4.001 -48.001,0 0,-4.001 z" /></g></g></g></g></g></svg>