<?xml version="1.0" encoding="UTF-8" standalone="no"?>
<svg
   xmlns:dc="http://purl.org/dc/elements/1.1/"
   xmlns:cc="http://creativecommons.org/ns#"
   xmlns:rdf="http://www.w3.org/1999/02/22-rdf-syntax-ns#"
   xmlns:svg="http://www.w3.org/2000/svg"
   xmlns="http://www.w3.org/2000/svg"
   viewBox="0 0 320 320"
   height="320"
   width="320"
   xml:space="preserve"
   version="1.1"
   id="svg2"><metadata
     id="metadata8"><rdf:RDF><cc:Work
         rdf:about=""><dc:format>image/svg+xml</dc:format><dc:type
           rdf:resource="http://purl.org/dc/dcmitype/StillImage" /></cc:Work></rdf:RDF></metadata><defs
     id="defs6"><clipPath
       id="clipPath18"
       clipPathUnits="userSpaceOnUse"><path
         id="path20"
         d="m 17,144 c -2.761,0 -5,-2.238 -5,-5 l 0,0 0,-91 232,0 0,91 c 0,2.762 -2.238,5 -5,5 l 0,0 -222,0 z" /></clipPath><linearGradient
       id="linearGradient26"
       spreadMethod="pad"
       gradientTransform="matrix(162.53551,-162.53551,-162.53551,-162.53551,46.732235,175.80328)"
       gradientUnits="userSpaceOnUse"
       y2="0"
       x2="1"
       y1="0"
       x1="0"><stop
         id="stop28"
         offset="0"
         style="stop-opacity:1;stop-color:#e6e7e8" /><stop
         id="stop30"
         offset="1"
         style="stop-opacity:1;stop-color:#d1d3d4" /></linearGradient><clipPath
       id="clipPath38"
       clipPathUnits="userSpaceOnUse"><path
         id="path40"
         d="M 0,256 256,256 256,0 0,0 0,256 Z" /></clipPath><clipPath
       id="clipPath48"
       clipPathUnits="userSpaceOnUse"><path
         id="path50"
         d="m 20,116 16,0 0,12 -16,0 0,-12 z" /></clipPath><linearGradient
       id="linearGradient56"
       spreadMethod="pad"
       gradientTransform="matrix(-14,14,14,14,35,115)"
       gradientUnits="userSpaceOnUse"
       y2="0"
       x2="1"
       y1="0"
       x1="0"><stop
         id="stop58"
         offset="0"
         style="stop-opacity:1;stop-color:#e6e7e8" /><stop
         id="stop60"
         offset="1"
         style="stop-opacity:1;stop-color:#d1d3d4" /></linearGradient><clipPath
       id="clipPath68"
       clipPathUnits="userSpaceOnUse"><path
         id="path70"
         d="m 40,116 16,0 0,12 -16,0 0,-12 z" /></clipPath><linearGradient
       id="linearGradient76"
       spreadMethod="pad"
       gradientTransform="matrix(-14,14,14,14,55,115)"
       gradientUnits="userSpaceOnUse"
       y2="0"
       x2="1"
       y1="0"
       x1="0"><stop
         id="stop78"
         offset="0"
         style="stop-opacity:1;stop-color:#e6e7e8" /><stop
         id="stop80"
         offset="1"
         style="stop-opacity:1;stop-color:#d1d3d4" /></linearGradient><clipPath
       id="clipPath88"
       clipPathUnits="userSpaceOnUse"><path
         id="path90"
         d="m 60,116 15.999,0 0,12 -15.999,0 0,-12 z" /></clipPath><linearGradient
       id="linearGradient96"
       spreadMethod="pad"
       gradientTransform="matrix(-14,14,14,14,75,115)"
       gradientUnits="userSpaceOnUse"
       y2="0"
       x2="1"
       y1="0"
       x1="0"><stop
         id="stop98"
         offset="0"
         style="stop-opacity:1;stop-color:#e6e7e8" /><stop
         id="stop100"
         offset="1"
         style="stop-opacity:1;stop-color:#d1d3d4" /></linearGradient><clipPath
       id="clipPath108"
       clipPathUnits="userSpaceOnUse"><path
         id="path110"
         d="m 80,116 16,0 0,12 -16,0 0,-12 z" /></clipPath><linearGradient
       id="linearGradient116"
       spreadMethod="pad"
       gradientTransform="matrix(-14,14,14,14,95,115)"
       gradientUnits="userSpaceOnUse"
       y2="0"
       x2="1"
       y1="0"
       x1="0"><stop
         id="stop118"
         offset="0"
         style="stop-opacity:1;stop-color:#e6e7e8" /><stop
         id="stop120"
         offset="1"
         style="stop-opacity:1;stop-color:#d1d3d4" /></linearGradient><clipPath
       id="clipPath128"
       clipPathUnits="userSpaceOnUse"><path
         id="path130"
         d="m 100,116 16,0 0,12 -16,0 0,-12 z" /></clipPath><linearGradient
       id="linearGradient136"
       spreadMethod="pad"
       gradientTransform="matrix(-14,14,14,14,115,115)"
       gradientUnits="userSpaceOnUse"
       y2="0"
       x2="1"
       y1="0"
       x1="0"><stop
         id="stop138"
         offset="0"
         style="stop-opacity:1;stop-color:#e6e7e8" /><stop
         id="stop140"
         offset="1"
         style="stop-opacity:1;stop-color:#d1d3d4" /></linearGradient><clipPath
       id="clipPath148"
       clipPathUnits="userSpaceOnUse"><path
         id="path150"
         d="m 120,116 16,0 0,12 -16,0 0,-12 z" /></clipPath><linearGradient
       id="linearGradient156"
       spreadMethod="pad"
       gradientTransform="matrix(-14,14,14,14,135,115)"
       gradientUnits="userSpaceOnUse"
       y2="0"
       x2="1"
       y1="0"
       x1="0"><stop
         id="stop158"
         offset="0"
         style="stop-opacity:1;stop-color:#e6e7e8" /><stop
         id="stop160"
         offset="1"
         style="stop-opacity:1;stop-color:#d1d3d4" /></linearGradient><clipPath
       id="clipPath168"
       clipPathUnits="userSpaceOnUse"><path
         id="path170"
         d="m 140,116 15.999,0 0,12 -15.999,0 0,-12 z" /></clipPath><linearGradient
       id="linearGradient176"
       spreadMethod="pad"
       gradientTransform="matrix(-14,14,14,14,155,115)"
       gradientUnits="userSpaceOnUse"
       y2="0"
       x2="1"
       y1="0"
       x1="0"><stop
         id="stop178"
         offset="0"
         style="stop-opacity:1;stop-color:#e6e7e8" /><stop
         id="stop180"
         offset="1"
         style="stop-opacity:1;stop-color:#d1d3d4" /></linearGradient><clipPath
       id="clipPath188"
       clipPathUnits="userSpaceOnUse"><path
         id="path190"
         d="m 160,116 16,0 0,12 -16,0 0,-12 z" /></clipPath><linearGradient
       id="linearGradient196"
       spreadMethod="pad"
       gradientTransform="matrix(-14,14,14,14,175,115)"
       gradientUnits="userSpaceOnUse"
       y2="0"
       x2="1"
       y1="0"
       x1="0"><stop
         id="stop198"
         offset="0"
         style="stop-opacity:1;stop-color:#e6e7e8" /><stop
         id="stop200"
         offset="1"
         style="stop-opacity:1;stop-color:#d1d3d4" /></linearGradient><clipPath
       id="clipPath208"
       clipPathUnits="userSpaceOnUse"><path
         id="path210"
         d="m 180,116 16,0 0,12 -16,0 0,-12 z" /></clipPath><linearGradient
       id="linearGradient216"
       spreadMethod="pad"
       gradientTransform="matrix(-14,14,14,14,195,115)"
       gradientUnits="userSpaceOnUse"
       y2="0"
       x2="1"
       y1="0"
       x1="0"><stop
         id="stop218"
         offset="0"
         style="stop-opacity:1;stop-color:#e6e7e8" /><stop
         id="stop220"
         offset="1"
         style="stop-opacity:1;stop-color:#d1d3d4" /></linearGradient><clipPath
       id="clipPath228"
       clipPathUnits="userSpaceOnUse"><path
         id="path230"
         d="m 200,116 16,0 0,12 -16,0 0,-12 z" /></clipPath><linearGradient
       id="linearGradient236"
       spreadMethod="pad"
       gradientTransform="matrix(-14,14,14,14,215,115)"
       gradientUnits="userSpaceOnUse"
       y2="0"
       x2="1"
       y1="0"
       x1="0"><stop
         id="stop238"
         offset="0"
         style="stop-opacity:1;stop-color:#e6e7e8" /><stop
         id="stop240"
         offset="1"
         style="stop-opacity:1;stop-color:#d1d3d4" /></linearGradient><clipPath
       id="clipPath248"
       clipPathUnits="userSpaceOnUse"><path
         id="path250"
         d="m 32,96 15.999,0 0,12 L 32,108 32,96 Z" /></clipPath><linearGradient
       id="linearGradient256"
       spreadMethod="pad"
       gradientTransform="matrix(-14,14,14,14,47,95)"
       gradientUnits="userSpaceOnUse"
       y2="0"
       x2="1"
       y1="0"
       x1="0"><stop
         id="stop258"
         offset="0"
         style="stop-opacity:1;stop-color:#e6e7e8" /><stop
         id="stop260"
         offset="1"
         style="stop-opacity:1;stop-color:#d1d3d4" /></linearGradient><clipPath
       id="clipPath268"
       clipPathUnits="userSpaceOnUse"><path
         id="path270"
         d="m 52,96 16,0 0,12 -16,0 0,-12 z" /></clipPath><linearGradient
       id="linearGradient276"
       spreadMethod="pad"
       gradientTransform="matrix(-14,14,14,14,67,95)"
       gradientUnits="userSpaceOnUse"
       y2="0"
       x2="1"
       y1="0"
       x1="0"><stop
         id="stop278"
         offset="0"
         style="stop-opacity:1;stop-color:#e6e7e8" /><stop
         id="stop280"
         offset="1"
         style="stop-opacity:1;stop-color:#d1d3d4" /></linearGradient><clipPath
       id="clipPath288"
       clipPathUnits="userSpaceOnUse"><path
         id="path290"
         d="m 72,96 16,0 0,12 -16,0 0,-12 z" /></clipPath><linearGradient
       id="linearGradient296"
       spreadMethod="pad"
       gradientTransform="matrix(-14,14,14,14,87,95)"
       gradientUnits="userSpaceOnUse"
       y2="0"
       x2="1"
       y1="0"
       x1="0"><stop
         id="stop298"
         offset="0"
         style="stop-opacity:1;stop-color:#e6e7e8" /><stop
         id="stop300"
         offset="1"
         style="stop-opacity:1;stop-color:#d1d3d4" /></linearGradient><clipPath
       id="clipPath308"
       clipPathUnits="userSpaceOnUse"><path
         id="path310"
         d="m 92,96 16,0 0,12 -16,0 0,-12 z" /></clipPath><linearGradient
       id="linearGradient316"
       spreadMethod="pad"
       gradientTransform="matrix(-14,14,14,14,107,95)"
       gradientUnits="userSpaceOnUse"
       y2="0"
       x2="1"
       y1="0"
       x1="0"><stop
         id="stop318"
         offset="0"
         style="stop-opacity:1;stop-color:#e6e7e8" /><stop
         id="stop320"
         offset="1"
         style="stop-opacity:1;stop-color:#d1d3d4" /></linearGradient><clipPath
       id="clipPath328"
       clipPathUnits="userSpaceOnUse"><path
         id="path330"
         d="m 112,96 16,0 0,12 -16,0 0,-12 z" /></clipPath><linearGradient
       id="linearGradient336"
       spreadMethod="pad"
       gradientTransform="matrix(-14,14,14,14,127,95)"
       gradientUnits="userSpaceOnUse"
       y2="0"
       x2="1"
       y1="0"
       x1="0"><stop
         id="stop338"
         offset="0"
         style="stop-opacity:1;stop-color:#e6e7e8" /><stop
         id="stop340"
         offset="1"
         style="stop-opacity:1;stop-color:#d1d3d4" /></linearGradient><clipPath
       id="clipPath348"
       clipPathUnits="userSpaceOnUse"><path
         id="path350"
         d="m 132,96 15.999,0 0,12 -15.999,0 0,-12 z" /></clipPath><linearGradient
       id="linearGradient356"
       spreadMethod="pad"
       gradientTransform="matrix(-14,14,14,14,147,95)"
       gradientUnits="userSpaceOnUse"
       y2="0"
       x2="1"
       y1="0"
       x1="0"><stop
         id="stop358"
         offset="0"
         style="stop-opacity:1;stop-color:#e6e7e8" /><stop
         id="stop360"
         offset="1"
         style="stop-opacity:1;stop-color:#d1d3d4" /></linearGradient><clipPath
       id="clipPath368"
       clipPathUnits="userSpaceOnUse"><path
         id="path370"
         d="m 152,96 16,0 0,12 -16,0 0,-12 z" /></clipPath><linearGradient
       id="linearGradient376"
       spreadMethod="pad"
       gradientTransform="matrix(-14,14,14,14,167,95)"
       gradientUnits="userSpaceOnUse"
       y2="0"
       x2="1"
       y1="0"
       x1="0"><stop
         id="stop378"
         offset="0"
         style="stop-opacity:1;stop-color:#e6e7e8" /><stop
         id="stop380"
         offset="1"
         style="stop-opacity:1;stop-color:#d1d3d4" /></linearGradient><clipPath
       id="clipPath388"
       clipPathUnits="userSpaceOnUse"><path
         id="path390"
         d="m 172,96 16,0 0,12 -16,0 0,-12 z" /></clipPath><linearGradient
       id="linearGradient396"
       spreadMethod="pad"
       gradientTransform="matrix(-14,14,14,14,187,95)"
       gradientUnits="userSpaceOnUse"
       y2="0"
       x2="1"
       y1="0"
       x1="0"><stop
         id="stop398"
         offset="0"
         style="stop-opacity:1;stop-color:#e6e7e8" /><stop
         id="stop400"
         offset="1"
         style="stop-opacity:1;stop-color:#d1d3d4" /></linearGradient><clipPath
       id="clipPath408"
       clipPathUnits="userSpaceOnUse"><path
         id="path410"
         d="m 192,96 16,0 0,12 -16,0 0,-12 z" /></clipPath><linearGradient
       id="linearGradient416"
       spreadMethod="pad"
       gradientTransform="matrix(-14,14,14,14,207,95)"
       gradientUnits="userSpaceOnUse"
       y2="0"
       x2="1"
       y1="0"
       x1="0"><stop
         id="stop418"
         offset="0"
         style="stop-opacity:1;stop-color:#e6e7e8" /><stop
         id="stop420"
         offset="1"
         style="stop-opacity:1;stop-color:#d1d3d4" /></linearGradient><clipPath
       id="clipPath428"
       clipPathUnits="userSpaceOnUse"><path
         id="path430"
         d="m 212,96 15.999,0 0,12 -15.999,0 0,-12 z" /></clipPath><linearGradient
       id="linearGradient436"
       spreadMethod="pad"
       gradientTransform="matrix(-14,14,14,14,227,95)"
       gradientUnits="userSpaceOnUse"
       y2="0"
       x2="1"
       y1="0"
       x1="0"><stop
         id="stop438"
         offset="0"
         style="stop-opacity:1;stop-color:#e6e7e8" /><stop
         id="stop440"
         offset="1"
         style="stop-opacity:1;stop-color:#d1d3d4" /></linearGradient><clipPath
       id="clipPath448"
       clipPathUnits="userSpaceOnUse"><path
         id="path450"
         d="m 24.24,56 16,0 0,12.001 -16,0 0,-12.001 z" /></clipPath><linearGradient
       id="linearGradient456"
       spreadMethod="pad"
       gradientTransform="matrix(-14,14,14,14,39.239841,55)"
       gradientUnits="userSpaceOnUse"
       y2="0"
       x2="1"
       y1="0"
       x1="0"><stop
         id="stop458"
         offset="0"
         style="stop-opacity:1;stop-color:#e6e7e8" /><stop
         id="stop460"
         offset="1"
         style="stop-opacity:1;stop-color:#d1d3d4" /></linearGradient><clipPath
       id="clipPath468"
       clipPathUnits="userSpaceOnUse"><path
         id="path470"
         d="m 44,56 16,0 0,12.001 -16,0 L 44,56 Z" /></clipPath><linearGradient
       id="linearGradient476"
       spreadMethod="pad"
       gradientTransform="matrix(-14,14,14,14,59,55)"
       gradientUnits="userSpaceOnUse"
       y2="0"
       x2="1"
       y1="0"
       x1="0"><stop
         id="stop478"
         offset="0"
         style="stop-opacity:1;stop-color:#e6e7e8" /><stop
         id="stop480"
         offset="1"
         style="stop-opacity:1;stop-color:#d1d3d4" /></linearGradient><clipPath
       id="clipPath488"
       clipPathUnits="userSpaceOnUse"><path
         id="path490"
         d="m 63.76,56 15.999,0 0,12.001 -15.999,0 0,-12.001 z" /></clipPath><linearGradient
       id="linearGradient496"
       spreadMethod="pad"
       gradientTransform="matrix(-14,14,14,14,78.760162,55)"
       gradientUnits="userSpaceOnUse"
       y2="0"
       x2="1"
       y1="0"
       x1="0"><stop
         id="stop498"
         offset="0"
         style="stop-opacity:1;stop-color:#e6e7e8" /><stop
         id="stop500"
         offset="1"
         style="stop-opacity:1;stop-color:#d1d3d4" /></linearGradient><clipPath
       id="clipPath508"
       clipPathUnits="userSpaceOnUse"><path
         id="path510"
         d="m 83.52,56 16,0 0,12.001 -16,0 0,-12.001 z" /></clipPath><linearGradient
       id="linearGradient516"
       spreadMethod="pad"
       gradientTransform="matrix(-14,14,14,14,98.520317,55)"
       gradientUnits="userSpaceOnUse"
       y2="0"
       x2="1"
       y1="0"
       x1="0"><stop
         id="stop518"
         offset="0"
         style="stop-opacity:1;stop-color:#e6e7e8" /><stop
         id="stop520"
         offset="1"
         style="stop-opacity:1;stop-color:#d1d3d4" /></linearGradient><clipPath
       id="clipPath528"
       clipPathUnits="userSpaceOnUse"><path
         id="path530"
         d="m 103.28,56 16,0 0,12.001 -16,0 0,-12.001 z" /></clipPath><linearGradient
       id="linearGradient536"
       spreadMethod="pad"
       gradientTransform="matrix(-14,14,14,14,118.28048,55)"
       gradientUnits="userSpaceOnUse"
       y2="0"
       x2="1"
       y1="0"
       x1="0"><stop
         id="stop538"
         offset="0"
         style="stop-opacity:1;stop-color:#e6e7e8" /><stop
         id="stop540"
         offset="1"
         style="stop-opacity:1;stop-color:#d1d3d4" /></linearGradient><clipPath
       id="clipPath548"
       clipPathUnits="userSpaceOnUse"><path
         id="path550"
         d="m 123.041,56 16,0 0,12.001 -16,0 0,-12.001 z" /></clipPath><linearGradient
       id="linearGradient556"
       spreadMethod="pad"
       gradientTransform="matrix(-14,14,14,14,138.04063,55)"
       gradientUnits="userSpaceOnUse"
       y2="0"
       x2="1"
       y1="0"
       x1="0"><stop
         id="stop558"
         offset="0"
         style="stop-opacity:1;stop-color:#e6e7e8" /><stop
         id="stop560"
         offset="1"
         style="stop-opacity:1;stop-color:#d1d3d4" /></linearGradient><clipPath
       id="clipPath568"
       clipPathUnits="userSpaceOnUse"><path
         id="path570"
         d="m 142.801,56 15.999,0 0,12.001 -15.999,0 0,-12.001 z" /></clipPath><linearGradient
       id="linearGradient576"
       spreadMethod="pad"
       gradientTransform="matrix(-14,14,14,14,157.8008,55)"
       gradientUnits="userSpaceOnUse"
       y2="0"
       x2="1"
       y1="0"
       x1="0"><stop
         id="stop578"
         offset="0"
         style="stop-opacity:1;stop-color:#e6e7e8" /><stop
         id="stop580"
         offset="1"
         style="stop-opacity:1;stop-color:#d1d3d4" /></linearGradient><clipPath
       id="clipPath588"
       clipPathUnits="userSpaceOnUse"><path
         id="path590"
         d="m 162.561,56 16,0 0,12.001 -16,0 0,-12.001 z" /></clipPath><linearGradient
       id="linearGradient596"
       spreadMethod="pad"
       gradientTransform="matrix(-14,14,14,14,177.56096,55)"
       gradientUnits="userSpaceOnUse"
       y2="0"
       x2="1"
       y1="0"
       x1="0"><stop
         id="stop598"
         offset="0"
         style="stop-opacity:1;stop-color:#e6e7e8" /><stop
         id="stop600"
         offset="1"
         style="stop-opacity:1;stop-color:#d1d3d4" /></linearGradient><clipPath
       id="clipPath608"
       clipPathUnits="userSpaceOnUse"><path
         id="path610"
         d="m 182.321,56 16,0 0,12.001 -16,0 0,-12.001 z" /></clipPath><linearGradient
       id="linearGradient616"
       spreadMethod="pad"
       gradientTransform="matrix(-14,14,14,14,197.32112,55)"
       gradientUnits="userSpaceOnUse"
       y2="0"
       x2="1"
       y1="0"
       x1="0"><stop
         id="stop618"
         offset="0"
         style="stop-opacity:1;stop-color:#e6e7e8" /><stop
         id="stop620"
         offset="1"
         style="stop-opacity:1;stop-color:#d1d3d4" /></linearGradient><clipPath
       id="clipPath628"
       clipPathUnits="userSpaceOnUse"><path
         id="path630"
         d="m 36,76 16,0 0,12.001 -16,0 L 36,76 Z" /></clipPath><linearGradient
       id="linearGradient636"
       spreadMethod="pad"
       gradientTransform="matrix(-14,14,14,14,51,75)"
       gradientUnits="userSpaceOnUse"
       y2="0"
       x2="1"
       y1="0"
       x1="0"><stop
         id="stop638"
         offset="0"
         style="stop-opacity:1;stop-color:#e6e7e8" /><stop
         id="stop640"
         offset="1"
         style="stop-opacity:1;stop-color:#d1d3d4" /></linearGradient><clipPath
       id="clipPath648"
       clipPathUnits="userSpaceOnUse"><path
         id="path650"
         d="m 56,76 16,0 0,12.001 -16,0 L 56,76 Z" /></clipPath><linearGradient
       id="linearGradient656"
       spreadMethod="pad"
       gradientTransform="matrix(-14,14,14,14,71,75)"
       gradientUnits="userSpaceOnUse"
       y2="0"
       x2="1"
       y1="0"
       x1="0"><stop
         id="stop658"
         offset="0"
         style="stop-opacity:1;stop-color:#e6e7e8" /><stop
         id="stop660"
         offset="1"
         style="stop-opacity:1;stop-color:#d1d3d4" /></linearGradient><clipPath
       id="clipPath668"
       clipPathUnits="userSpaceOnUse"><path
         id="path670"
         d="m 76,76 16,0 0,12.001 -16,0 L 76,76 Z" /></clipPath><linearGradient
       id="linearGradient676"
       spreadMethod="pad"
       gradientTransform="matrix(-14,14,14,14,91,75)"
       gradientUnits="userSpaceOnUse"
       y2="0"
       x2="1"
       y1="0"
       x1="0"><stop
         id="stop678"
         offset="0"
         style="stop-opacity:1;stop-color:#e6e7e8" /><stop
         id="stop680"
         offset="1"
         style="stop-opacity:1;stop-color:#d1d3d4" /></linearGradient><clipPath
       id="clipPath688"
       clipPathUnits="userSpaceOnUse"><path
         id="path690"
         d="m 96,76 15.999,0 0,12.001 L 96,88.001 96,76 Z" /></clipPath><linearGradient
       id="linearGradient696"
       spreadMethod="pad"
       gradientTransform="matrix(-14,14,14,14,111,75)"
       gradientUnits="userSpaceOnUse"
       y2="0"
       x2="1"
       y1="0"
       x1="0"><stop
         id="stop698"
         offset="0"
         style="stop-opacity:1;stop-color:#e6e7e8" /><stop
         id="stop700"
         offset="1"
         style="stop-opacity:1;stop-color:#d1d3d4" /></linearGradient><clipPath
       id="clipPath708"
       clipPathUnits="userSpaceOnUse"><path
         id="path710"
         d="m 116,76 16,0 0,12.001 -16,0 L 116,76 Z" /></clipPath><linearGradient
       id="linearGradient716"
       spreadMethod="pad"
       gradientTransform="matrix(-14,14,14,14,131,75)"
       gradientUnits="userSpaceOnUse"
       y2="0"
       x2="1"
       y1="0"
       x1="0"><stop
         id="stop718"
         offset="0"
         style="stop-opacity:1;stop-color:#e6e7e8" /><stop
         id="stop720"
         offset="1"
         style="stop-opacity:1;stop-color:#d1d3d4" /></linearGradient><clipPath
       id="clipPath728"
       clipPathUnits="userSpaceOnUse"><path
         id="path730"
         d="m 136,76 16,0 0,12.001 -16,0 L 136,76 Z" /></clipPath><linearGradient
       id="linearGradient736"
       spreadMethod="pad"
       gradientTransform="matrix(-14,14,14,14,151,75)"
       gradientUnits="userSpaceOnUse"
       y2="0"
       x2="1"
       y1="0"
       x1="0"><stop
         id="stop738"
         offset="0"
         style="stop-opacity:1;stop-color:#e6e7e8" /><stop
         id="stop740"
         offset="1"
         style="stop-opacity:1;stop-color:#d1d3d4" /></linearGradient><clipPath
       id="clipPath748"
       clipPathUnits="userSpaceOnUse"><path
         id="path750"
         d="m 156,76 16,0 0,12.001 -16,0 L 156,76 Z" /></clipPath><linearGradient
       id="linearGradient756"
       spreadMethod="pad"
       gradientTransform="matrix(-14,14,14,14,171,75)"
       gradientUnits="userSpaceOnUse"
       y2="0"
       x2="1"
       y1="0"
       x1="0"><stop
         id="stop758"
         offset="0"
         style="stop-opacity:1;stop-color:#e6e7e8" /><stop
         id="stop760"
         offset="1"
         style="stop-opacity:1;stop-color:#d1d3d4" /></linearGradient><clipPath
       id="clipPath768"
       clipPathUnits="userSpaceOnUse"><path
         id="path770"
         d="m 176,76 15.999,0 0,12.001 -15.999,0 L 176,76 Z" /></clipPath><linearGradient
       id="linearGradient776"
       spreadMethod="pad"
       gradientTransform="matrix(-14,14,14,14,191,75)"
       gradientUnits="userSpaceOnUse"
       y2="0"
       x2="1"
       y1="0"
       x1="0"><stop
         id="stop778"
         offset="0"
         style="stop-opacity:1;stop-color:#e6e7e8" /><stop
         id="stop780"
         offset="1"
         style="stop-opacity:1;stop-color:#d1d3d4" /></linearGradient><clipPath
       id="clipPath788"
       clipPathUnits="userSpaceOnUse"><path
         id="path790"
         d="m 196,76 16,0 0,12.001 -16,0 L 196,76 Z" /></clipPath><linearGradient
       id="linearGradient796"
       spreadMethod="pad"
       gradientTransform="matrix(-14,14,14,14,211,75)"
       gradientUnits="userSpaceOnUse"
       y2="0"
       x2="1"
       y1="0"
       x1="0"><stop
         id="stop798"
         offset="0"
         style="stop-opacity:1;stop-color:#e6e7e8" /><stop
         id="stop800"
         offset="1"
         style="stop-opacity:1;stop-color:#d1d3d4" /></linearGradient><clipPath
       id="clipPath808"
       clipPathUnits="userSpaceOnUse"><path
         id="path810"
         d="m 216,76 16,0 0,12.001 -16,0 L 216,76 Z" /></clipPath><linearGradient
       id="linearGradient816"
       spreadMethod="pad"
       gradientTransform="matrix(-14,14,14,14,231,75)"
       gradientUnits="userSpaceOnUse"
       y2="0"
       x2="1"
       y1="0"
       x1="0"><stop
         id="stop818"
         offset="0"
         style="stop-opacity:1;stop-color:#e6e7e8" /><stop
         id="stop820"
         offset="1"
         style="stop-opacity:1;stop-color:#d1d3d4" /></linearGradient><clipPath
       id="clipPath828"
       clipPathUnits="userSpaceOnUse"><path
         id="path830"
         d="m 202.081,56 29.919,0 0,12.001 -29.919,0 0,-12.001 z" /></clipPath><linearGradient
       id="linearGradient836"
       spreadMethod="pad"
       gradientTransform="matrix(-20.959362,20.959362,20.959362,20.959362,227.52032,51.520321)"
       gradientUnits="userSpaceOnUse"
       y2="0"
       x2="1"
       y1="0"
       x1="0"><stop
         id="stop838"
         offset="0"
         style="stop-opacity:1;stop-color:#e6e7e8" /><stop
         id="stop840"
         offset="1"
         style="stop-opacity:1;stop-color:#d1d3d4" /></linearGradient><clipPath
       id="clipPath848"
       clipPathUnits="userSpaceOnUse"><path
         id="path850"
         d="m 12,188 232,0 0,24 -232,0 0,-24 z" /></clipPath><linearGradient
       id="linearGradient856"
       spreadMethod="pad"
       gradientTransform="matrix(127.99999,-127.99999,-127.99999,-127.99999,64,264)"
       gradientUnits="userSpaceOnUse"
       y2="0"
       x2="1"
       y1="0"
       x1="0"><stop
         id="stop858"
         offset="0"
         style="stop-opacity:1;stop-color:#e6e7e8" /><stop
         id="stop860"
         offset="1"
         style="stop-opacity:1;stop-color:#d1d3d4" /></linearGradient></defs><g
     transform="matrix(1.25,0,0,-1.25,0,320)"
     id="g10"><path
       id="path12"
       style="fill:#999999;fill-opacity:1;fill-rule:nonzero;stroke:none"
       d="m 244,44 -232,0 0,144 232,0 0,-144 z" /><g
       id="g14"><g
         clip-path="url(#clipPath18)"
         id="g16"><g
           id="g22"><g
             id="g24"><path
               id="path32"
               style="fill:url(#linearGradient26);stroke:none"
               d="m 17,144 c -2.761,0 -5,-2.238 -5,-5 l 0,0 0,-91 232,0 0,91 c 0,2.762 -2.238,5 -5,5 l 0,0 -222,0 z" /></g></g></g></g><g
       id="g34"><g
         clip-path="url(#clipPath38)"
         id="g36"><path
           id="path42"
           style="fill:#999999;fill-opacity:1;fill-rule:nonzero;stroke:none"
           d="m 240,52 -224,0 0,80 224,0 0,-80 z" /></g></g><g
       id="g44"><g
         clip-path="url(#clipPath48)"
         id="g46"><g
           id="g52"><g
             id="g54"><path
               id="path62"
               style="fill:url(#linearGradient56);stroke:none"
               d="m 20,116 16,0 0,12 -16,0 0,-12 z" /></g></g></g></g><g
       id="g64"><g
         clip-path="url(#clipPath68)"
         id="g66"><g
           id="g72"><g
             id="g74"><path
               id="path82"
               style="fill:url(#linearGradient76);stroke:none"
               d="m 40,116 16,0 0,12 -16,0 0,-12 z" /></g></g></g></g><g
       id="g84"><g
         clip-path="url(#clipPath88)"
         id="g86"><g
           id="g92"><g
             id="g94"><path
               id="path102"
               style="fill:url(#linearGradient96);stroke:none"
               d="m 60,116 15.999,0 0,12 -15.999,0 0,-12 z" /></g></g></g></g><g
       id="g104"><g
         clip-path="url(#clipPath108)"
         id="g106"><g
           id="g112"><g
             id="g114"><path
               id="path122"
               style="fill:url(#linearGradient116);stroke:none"
               d="m 80,116 16,0 0,12 -16,0 0,-12 z" /></g></g></g></g><g
       id="g124"><g
         clip-path="url(#clipPath128)"
         id="g126"><g
           id="g132"><g
             id="g134"><path
               id="path142"
               style="fill:url(#linearGradient136);stroke:none"
               d="m 100,116 16,0 0,12 -16,0 0,-12 z" /></g></g></g></g><g
       id="g144"><g
         clip-path="url(#clipPath148)"
         id="g146"><g
           id="g152"><g
             id="g154"><path
               id="path162"
               style="fill:url(#linearGradient156);stroke:none"
               d="m 120,116 16,0 0,12 -16,0 0,-12 z" /></g></g></g></g><g
       id="g164"><g
         clip-path="url(#clipPath168)"
         id="g166"><g
           id="g172"><g
             id="g174"><path
               id="path182"
               style="fill:url(#linearGradient176);stroke:none"
               d="m 140,116 15.999,0 0,12 -15.999,0 0,-12 z" /></g></g></g></g><g
       id="g184"><g
         clip-path="url(#clipPath188)"
         id="g186"><g
           id="g192"><g
             id="g194"><path
               id="path202"
               style="fill:url(#linearGradient196);stroke:none"
               d="m 160,116 16,0 0,12 -16,0 0,-12 z" /></g></g></g></g><g
       id="g204"><g
         clip-path="url(#clipPath208)"
         id="g206"><g
           id="g212"><g
             id="g214"><path
               id="path222"
               style="fill:url(#linearGradient216);stroke:none"
               d="m 180,116 16,0 0,12 -16,0 0,-12 z" /></g></g></g></g><g
       id="g224"><g
         clip-path="url(#clipPath228)"
         id="g226"><g
           id="g232"><g
             id="g234"><path
               id="path242"
               style="fill:url(#linearGradient236);stroke:none"
               d="m 200,116 16,0 0,12 -16,0 0,-12 z" /></g></g></g></g><g
       id="g244"><g
         clip-path="url(#clipPath248)"
         id="g246"><g
           id="g252"><g
             id="g254"><path
               id="path262"
               style="fill:url(#linearGradient256);stroke:none"
               d="m 32,96 15.999,0 0,12 L 32,108 32,96 Z" /></g></g></g></g><g
       id="g264"><g
         clip-path="url(#clipPath268)"
         id="g266"><g
           id="g272"><g
             id="g274"><path
               id="path282"
               style="fill:url(#linearGradient276);stroke:none"
               d="m 52,96 16,0 0,12 -16,0 0,-12 z" /></g></g></g></g><g
       id="g284"><g
         clip-path="url(#clipPath288)"
         id="g286"><g
           id="g292"><g
             id="g294"><path
               id="path302"
               style="fill:url(#linearGradient296);stroke:none"
               d="m 72,96 16,0 0,12 -16,0 0,-12 z" /></g></g></g></g><g
       id="g304"><g
         clip-path="url(#clipPath308)"
         id="g306"><g
           id="g312"><g
             id="g314"><path
               id="path322"
               style="fill:url(#linearGradient316);stroke:none"
               d="m 92,96 16,0 0,12 -16,0 0,-12 z" /></g></g></g></g><g
       id="g324"><g
         clip-path="url(#clipPath328)"
         id="g326"><g
           id="g332"><g
             id="g334"><path
               id="path342"
               style="fill:url(#linearGradient336);stroke:none"
               d="m 112,96 16,0 0,12 -16,0 0,-12 z" /></g></g></g></g><g
       id="g344"><g
         clip-path="url(#clipPath348)"
         id="g346"><g
           id="g352"><g
             id="g354"><path
               id="path362"
               style="fill:url(#linearGradient356);stroke:none"
               d="m 132,96 15.999,0 0,12 -15.999,0 0,-12 z" /></g></g></g></g><g
       id="g364"><g
         clip-path="url(#clipPath368)"
         id="g366"><g
           id="g372"><g
             id="g374"><path
               id="path382"
               style="fill:url(#linearGradient376);stroke:none"
               d="m 152,96 16,0 0,12 -16,0 0,-12 z" /></g></g></g></g><g
       id="g384"><g
         clip-path="url(#clipPath388)"
         id="g386"><g
           id="g392"><g
             id="g394"><path
               id="path402"
               style="fill:url(#linearGradient396);stroke:none"
               d="m 172,96 16,0 0,12 -16,0 0,-12 z" /></g></g></g></g><g
       id="g404"><g
         clip-path="url(#clipPath408)"
         id="g406"><g
           id="g412"><g
             id="g414"><path
               id="path422"
               style="fill:url(#linearGradient416);stroke:none"
               d="m 192,96 16,0 0,12 -16,0 0,-12 z" /></g></g></g></g><g
       id="g424"><g
         clip-path="url(#clipPath428)"
         id="g426"><g
           id="g432"><g
             id="g434"><path
               id="path442"
               style="fill:url(#linearGradient436);stroke:none"
               d="m 212,96 15.999,0 0,12 -15.999,0 0,-12 z" /></g></g></g></g><g
       id="g444"><g
         clip-path="url(#clipPath448)"
         id="g446"><g
           id="g452"><g
             id="g454"><path
               id="path462"
               style="fill:url(#linearGradient456);stroke:none"
               d="m 24.24,56 16,0 0,12.001 -16,0 0,-12.001 z" /></g></g></g></g><g
       id="g464"><g
         clip-path="url(#clipPath468)"
         id="g466"><g
           id="g472"><g
             id="g474"><path
               id="path482"
               style="fill:url(#linearGradient476);stroke:none"
               d="m 44,56 16,0 0,12.001 -16,0 L 44,56 Z" /></g></g></g></g><g
       id="g484"><g
         clip-path="url(#clipPath488)"
         id="g486"><g
           id="g492"><g
             id="g494"><path
               id="path502"
               style="fill:url(#linearGradient496);stroke:none"
               d="m 63.76,56 15.999,0 0,12.001 -15.999,0 0,-12.001 z" /></g></g></g></g><g
       id="g504"><g
         clip-path="url(#clipPath508)"
         id="g506"><g
           id="g512"><g
             id="g514"><path
               id="path522"
               style="fill:url(#linearGradient516);stroke:none"
               d="m 83.52,56 16,0 0,12.001 -16,0 0,-12.001 z" /></g></g></g></g><g
       id="g524"><g
         clip-path="url(#clipPath528)"
         id="g526"><g
           id="g532"><g
             id="g534"><path
               id="path542"
               style="fill:url(#linearGradient536);stroke:none"
               d="m 103.28,56 16,0 0,12.001 -16,0 0,-12.001 z" /></g></g></g></g><g
       id="g544"><g
         clip-path="url(#clipPath548)"
         id="g546"><g
           id="g552"><g
             id="g554"><path
               id="path562"
               style="fill:url(#linearGradient556);stroke:none"
               d="m 123.041,56 16,0 0,12.001 -16,0 0,-12.001 z" /></g></g></g></g><g
       id="g564"><g
         clip-path="url(#clipPath568)"
         id="g566"><g
           id="g572"><g
             id="g574"><path
               id="path582"
               style="fill:url(#linearGradient576);stroke:none"
               d="m 142.801,56 15.999,0 0,12.001 -15.999,0 0,-12.001 z" /></g></g></g></g><g
       id="g584"><g
         clip-path="url(#clipPath588)"
         id="g586"><g
           id="g592"><g
             id="g594"><path
               id="path602"
               style="fill:url(#linearGradient596);stroke:none"
               d="m 162.561,56 16,0 0,12.001 -16,0 0,-12.001 z" /></g></g></g></g><g
       id="g604"><g
         clip-path="url(#clipPath608)"
         id="g606"><g
           id="g612"><g
             id="g614"><path
               id="path622"
               style="fill:url(#linearGradient616);stroke:none"
               d="m 182.321,56 16,0 0,12.001 -16,0 0,-12.001 z" /></g></g></g></g><g
       id="g624"><g
         clip-path="url(#clipPath628)"
         id="g626"><g
           id="g632"><g
             id="g634"><path
               id="path642"
               style="fill:url(#linearGradient636);stroke:none"
               d="m 36,76 16,0 0,12.001 -16,0 L 36,76 Z" /></g></g></g></g><g
       id="g644"><g
         clip-path="url(#clipPath648)"
         id="g646"><g
           id="g652"><g
             id="g654"><path
               id="path662"
               style="fill:url(#linearGradient656);stroke:none"
               d="m 56,76 16,0 0,12.001 -16,0 L 56,76 Z" /></g></g></g></g><g
       id="g664"><g
         clip-path="url(#clipPath668)"
         id="g666"><g
           id="g672"><g
             id="g674"><path
               id="path682"
               style="fill:url(#linearGradient676);stroke:none"
               d="m 76,76 16,0 0,12.001 -16,0 L 76,76 Z" /></g></g></g></g><g
       id="g684"><g
         clip-path="url(#clipPath688)"
         id="g686"><g
           id="g692"><g
             id="g694"><path
               id="path702"
               style="fill:url(#linearGradient696);stroke:none"
               d="m 96,76 15.999,0 0,12.001 L 96,88.001 96,76 Z" /></g></g></g></g><g
       id="g704"><g
         clip-path="url(#clipPath708)"
         id="g706"><g
           id="g712"><g
             id="g714"><path
               id="path722"
               style="fill:url(#linearGradient716);stroke:none"
               d="m 116,76 16,0 0,12.001 -16,0 L 116,76 Z" /></g></g></g></g><g
       id="g724"><g
         clip-path="url(#clipPath728)"
         id="g726"><g
           id="g732"><g
             id="g734"><path
               id="path742"
               style="fill:url(#linearGradient736);stroke:none"
               d="m 136,76 16,0 0,12.001 -16,0 L 136,76 Z" /></g></g></g></g><g
       id="g744"><g
         clip-path="url(#clipPath748)"
         id="g746"><g
           id="g752"><g
             id="g754"><path
               id="path762"
               style="fill:url(#linearGradient756);stroke:none"
               d="m 156,76 16,0 0,12.001 -16,0 L 156,76 Z" /></g></g></g></g><g
       id="g764"><g
         clip-path="url(#clipPath768)"
         id="g766"><g
           id="g772"><g
             id="g774"><path
               id="path782"
               style="fill:url(#linearGradient776);stroke:none"
               d="m 176,76 15.999,0 0,12.001 -15.999,0 L 176,76 Z" /></g></g></g></g><g
       id="g784"><g
         clip-path="url(#clipPath788)"
         id="g786"><g
           id="g792"><g
             id="g794"><path
               id="path802"
               style="fill:url(#linearGradient796);stroke:none"
               d="m 196,76 16,0 0,12.001 -16,0 L 196,76 Z" /></g></g></g></g><g
       id="g804"><g
         clip-path="url(#clipPath808)"
         id="g806"><g
           id="g812"><g
             id="g814"><path
               id="path822"
               style="fill:url(#linearGradient816);stroke:none"
               d="m 216,76 16,0 0,12.001 -16,0 L 216,76 Z" /></g></g></g></g><g
       id="g824"><g
         clip-path="url(#clipPath828)"
         id="g826"><g
           id="g832"><g
             id="g834"><path
               id="path842"
               style="fill:url(#linearGradient836);stroke:none"
               d="m 202.081,56 29.919,0 0,12.001 -29.919,0 0,-12.001 z" /></g></g></g></g><g
       id="g844"><g
         clip-path="url(#clipPath848)"
         id="g846"><g
           id="g852"><g
             id="g854"><path
               id="path862"
               style="fill:url(#linearGradient856);stroke:none"
               d="m 12,188 232,0 0,24 -232,0 0,-24 z" /></g></g></g></g></g></svg>