<?xml version="1.0" encoding="UTF-8" standalone="no"?>
<svg
   xmlns:dc="http://purl.org/dc/elements/1.1/"
   xmlns:cc="http://creativecommons.org/ns#"
   xmlns:rdf="http://www.w3.org/1999/02/22-rdf-syntax-ns#"
   xmlns:svg="http://www.w3.org/2000/svg"
   xmlns="http://www.w3.org/2000/svg"
   viewBox="0 0 320 320"
   height="320"
   width="320"
   xml:space="preserve"
   version="1.1"
   id="svg2"><metadata
     id="metadata8"><rdf:RDF><cc:Work
         rdf:about=""><dc:format>image/svg+xml</dc:format><dc:type
           rdf:resource="http://purl.org/dc/dcmitype/StillImage" /></cc:Work></rdf:RDF></metadata><defs
     id="defs6"><clipPath
       id="clipPath16"
       clipPathUnits="userSpaceOnUse"><path
         id="path18"
         d="m 244,44 -4,0 0,4 4,0 0,4 -4,0 0,4 4,0 0,4 -4,0 0,4 4,0 0,4 -4,0 0,4 4,0 0,4 -4,0 0,4 4,0 0,4 -4,0 0,4 4,0 0,124 -40,0 -16,4 -120,0 -16,-4 -40,0 0,-124 4,0 0,-4 -4,0 0,-4 4,0 0,-4 -4,0 0,-4 4,0 0,-4 -4,0 0,-0.133 0,-3.867 4,0 0,-4 -4,0 0,-4 4,0 0,-4 -4,0 0,-4 4,0 0,-4 -4,0 0,-4 232,0 0,4 z" /></clipPath><linearGradient
       id="linearGradient24"
       spreadMethod="pad"
       gradientTransform="matrix(202,-202,-202,-202,27,227)"
       gradientUnits="userSpaceOnUse"
       y2="0"
       x2="1"
       y1="0"
       x1="0"><stop
         id="stop26"
         offset="0"
         style="stop-opacity:1;stop-color:#e6e7e8" /><stop
         id="stop28"
         offset="1"
         style="stop-opacity:1;stop-color:#d1d3d4" /></linearGradient><clipPath
       id="clipPath36"
       clipPathUnits="userSpaceOnUse"><path
         id="path38"
         d="m 70,216 0,-72.386 C 70,140.519 72.619,138 75.839,138 l 0,0 104.322,0 c 3.219,0 5.839,2.519 5.839,5.614 l 0,0 0,72.386 -116,0 z" /></clipPath><linearGradient
       id="linearGradient44"
       spreadMethod="pad"
       gradientTransform="matrix(-95.321617,95.321617,95.321617,95.321617,175.66081,131.01756)"
       gradientUnits="userSpaceOnUse"
       y2="0"
       x2="1"
       y1="0"
       x1="0"><stop
         id="stop46"
         offset="0"
         style="stop-opacity:1;stop-color:#e6e7e8" /><stop
         id="stop48"
         offset="1"
         style="stop-opacity:1;stop-color:#d1d3d4" /></linearGradient><clipPath
       id="clipPath56"
       clipPathUnits="userSpaceOnUse"><path
         id="path58"
         d="M 0,256 256,256 256,0 0,0 0,256 Z" /></clipPath><clipPath
       id="clipPath120"
       clipPathUnits="userSpaceOnUse"><path
         id="path122"
         d="m 104,160 79.999,0 0,4 -79.999,0 0,-4 z" /></clipPath><linearGradient
       id="linearGradient128"
       spreadMethod="pad"
       gradientTransform="matrix(-42,42,42,42,165,141)"
       gradientUnits="userSpaceOnUse"
       y2="0"
       x2="1"
       y1="0"
       x1="0"><stop
         id="stop130"
         offset="0"
         style="stop-opacity:1;stop-color:#e6e7e8" /><stop
         id="stop132"
         offset="1"
         style="stop-opacity:1;stop-color:#d1d3d4" /></linearGradient><clipPath
       id="clipPath140"
       clipPathUnits="userSpaceOnUse"><path
         id="path142"
         d="m 104,152 79.999,0 0,4 -79.999,0 0,-4 z" /></clipPath><linearGradient
       id="linearGradient148"
       spreadMethod="pad"
       gradientTransform="matrix(-42,42,42,42,165,133)"
       gradientUnits="userSpaceOnUse"
       y2="0"
       x2="1"
       y1="0"
       x1="0"><stop
         id="stop150"
         offset="0"
         style="stop-opacity:1;stop-color:#e6e7e8" /><stop
         id="stop152"
         offset="1"
         style="stop-opacity:1;stop-color:#d1d3d4" /></linearGradient></defs><g
     transform="matrix(1.25,0,0,-1.25,0,320)"
     id="g10"><g
       id="g12"><g
         clip-path="url(#clipPath16)"
         id="g14"><g
           id="g20"><g
             id="g22"><path
               id="path30"
               style="fill:url(#linearGradient24);stroke:none"
               d="m 244,44 -4,0 0,4 4,0 0,4 -4,0 0,4 4,0 0,4 -4,0 0,4 4,0 0,4 -4,0 0,4 4,0 0,4 -4,0 0,4 4,0 0,4 -4,0 0,4 4,0 0,124 -40,0 -16,4 -120,0 -16,-4 -40,0 0,-124 4,0 0,-4 -4,0 0,-4 4,0 0,-4 -4,0 0,-4 4,0 0,-4 -4,0 0,-0.133 0,-3.867 4,0 0,-4 -4,0 0,-4 4,0 0,-4 -4,0 0,-4 4,0 0,-4 -4,0 0,-4 232,0 0,4 z" /></g></g></g></g><g
       id="g32"><g
         clip-path="url(#clipPath36)"
         id="g34"><g
           id="g40"><g
             id="g42"><path
               id="path50"
               style="fill:url(#linearGradient44);stroke:none"
               d="m 70,216 0,-72.386 C 70,140.519 72.619,138 75.839,138 l 0,0 104.322,0 c 3.219,0 5.839,2.519 5.839,5.614 l 0,0 0,72.386 -116,0 z" /></g></g></g></g><g
       id="g52"><g
         clip-path="url(#clipPath56)"
         id="g54"><g
           transform="translate(180,140)"
           id="g60"><path
             id="path62"
             style="fill:#ffffff;fill-opacity:1;fill-rule:nonzero;stroke:none"
             d="M 0,0 -76,0 -76,76 4,76 4,4 C 4,1.791 2.209,0 0,0" /></g><path
           id="path64"
           style="fill:#999999;fill-opacity:1;fill-rule:nonzero;stroke:none"
           d="m 240,44 -24,0 0,4 24,0 0,-4 z" /><path
           id="path66"
           style="fill:#999999;fill-opacity:1;fill-rule:nonzero;stroke:none"
           d="m 240,52 -24,0 0,4 24,0 0,-4 z" /><path
           id="path68"
           style="fill:#999999;fill-opacity:1;fill-rule:nonzero;stroke:none"
           d="m 240,60 -24,0 0,4 24,0 0,-4 z" /><path
           id="path70"
           style="fill:#999999;fill-opacity:1;fill-rule:nonzero;stroke:none"
           d="m 240,68 -24,0 0,4 24,0 0,-4 z" /><path
           id="path72"
           style="fill:#999999;fill-opacity:1;fill-rule:nonzero;stroke:none"
           d="m 240,76 -24,0 0,4 24,0 0,-4 z" /><path
           id="path74"
           style="fill:#999999;fill-opacity:1;fill-rule:nonzero;stroke:none"
           d="m 240,84 -24,0 0,4 24,0 0,-4 z" /><path
           id="path76"
           style="fill:#999999;fill-opacity:1;fill-rule:nonzero;stroke:none"
           d="m 208,44 -76,0 0,4 76,0 0,-4 z" /><path
           id="path78"
           style="fill:#999999;fill-opacity:1;fill-rule:nonzero;stroke:none"
           d="m 208,52 -76,0 0,4 76,0 0,-4 z" /><path
           id="path80"
           style="fill:#999999;fill-opacity:1;fill-rule:nonzero;stroke:none"
           d="m 208,60 -76,0 0,4 76,0 0,-4 z" /><path
           id="path82"
           style="fill:#999999;fill-opacity:1;fill-rule:nonzero;stroke:none"
           d="m 208,68 -76,0 0,4 76,0 0,-4 z" /><path
           id="path84"
           style="fill:#999999;fill-opacity:1;fill-rule:nonzero;stroke:none"
           d="m 208,76 -76,0 0,4 76,0 0,-4 z" /><path
           id="path86"
           style="fill:#999999;fill-opacity:1;fill-rule:nonzero;stroke:none"
           d="m 208,84 -76,0 0,4 76,0 0,-4 z" /><path
           id="path88"
           style="fill:#999999;fill-opacity:1;fill-rule:nonzero;stroke:none"
           d="m 124,44 -76,0 0,4 76,0 0,-4 z" /><path
           id="path90"
           style="fill:#999999;fill-opacity:1;fill-rule:nonzero;stroke:none"
           d="m 124,52 -76,0 0,4 76,0 0,-4 z" /><path
           id="path92"
           style="fill:#999999;fill-opacity:1;fill-rule:nonzero;stroke:none"
           d="m 124,60 -76,0 0,4 76,0 0,-4 z" /><path
           id="path94"
           style="fill:#999999;fill-opacity:1;fill-rule:nonzero;stroke:none"
           d="m 124,68 -76,0 0,4 76,0 0,-4 z" /><path
           id="path96"
           style="fill:#999999;fill-opacity:1;fill-rule:nonzero;stroke:none"
           d="m 124,76 -76,0 0,4 76,0 0,-4 z" /><path
           id="path98"
           style="fill:#999999;fill-opacity:1;fill-rule:nonzero;stroke:none"
           d="m 124,84 -76,0 0,4 76,0 0,-4 z" /><path
           id="path100"
           style="fill:#999999;fill-opacity:1;fill-rule:nonzero;stroke:none"
           d="m 40,44 -24,0 0,4 24,0 0,-4 z" /><path
           id="path102"
           style="fill:#999999;fill-opacity:1;fill-rule:nonzero;stroke:none"
           d="m 40,52 -24,0 0,4 24,0 0,-4 z" /><path
           id="path104"
           style="fill:#999999;fill-opacity:1;fill-rule:nonzero;stroke:none"
           d="m 40,60 -24,0 0,4 24,0 0,-4 z" /><path
           id="path106"
           style="fill:#999999;fill-opacity:1;fill-rule:nonzero;stroke:none"
           d="m 40,68 -24,0 0,4 24,0 0,-4 z" /><path
           id="path108"
           style="fill:#999999;fill-opacity:1;fill-rule:nonzero;stroke:none"
           d="m 40,76 -24,0 0,4 24,0 0,-4 z" /><path
           id="path110"
           style="fill:#999999;fill-opacity:1;fill-rule:nonzero;stroke:none"
           d="m 40,84 -24,0 0,4 24,0 0,-4 z" /><g
           transform="translate(76,140)"
           id="g112"><path
             id="path114"
             style="fill:#999999;fill-opacity:1;fill-rule:nonzero;stroke:none"
             d="M 0,0 28,0 28,76 -4,76 -4,4 C -4,1.791 -2.209,0 0,0" /></g></g></g><g
       id="g116"><g
         clip-path="url(#clipPath120)"
         id="g118"><g
           id="g124"><g
             id="g126"><path
               id="path134"
               style="fill:url(#linearGradient128);stroke:none"
               d="m 104,160 79.999,0 0,4 -79.999,0 0,-4 z" /></g></g></g></g><g
       id="g136"><g
         clip-path="url(#clipPath140)"
         id="g138"><g
           id="g144"><g
             id="g146"><path
               id="path154"
               style="fill:url(#linearGradient148);stroke:none"
               d="m 104,152 79.999,0 0,4 -79.999,0 0,-4 z" /></g></g></g></g></g></svg>