<?xml version="1.0" encoding="UTF-8" standalone="no"?>
<svg
   xmlns:dc="http://purl.org/dc/elements/1.1/"
   xmlns:cc="http://creativecommons.org/ns#"
   xmlns:rdf="http://www.w3.org/1999/02/22-rdf-syntax-ns#"
   xmlns:svg="http://www.w3.org/2000/svg"
   xmlns="http://www.w3.org/2000/svg"
   viewBox="0 0 320 320"
   height="320"
   width="320"
   xml:space="preserve"
   version="1.1"
   id="svg2"><metadata
     id="metadata8"><rdf:RDF><cc:Work
         rdf:about=""><dc:format>image/svg+xml</dc:format><dc:type
           rdf:resource="http://purl.org/dc/dcmitype/StillImage" /></cc:Work></rdf:RDF></metadata><defs
     id="defs6"><clipPath
       id="clipPath16"
       clipPathUnits="userSpaceOnUse"><path
         id="path18"
         d="M 16,228 16,29.655 C 16.441,28.678 17.411,28 18.548,28 l 0,0 218.903,0 c 1.138,0 2.107,0.678 2.549,1.655 l 0,0 0,198.345 -224,0 z" /></clipPath><linearGradient
       id="linearGradient24"
       spreadMethod="pad"
       gradientTransform="matrix(-211.30193,211.30193,211.30193,211.30193,233.65096,23.047121)"
       gradientUnits="userSpaceOnUse"
       y2="0"
       x2="1"
       y1="0"
       x1="0"><stop
         id="stop26"
         offset="0"
         style="stop-opacity:1;stop-color:#e6e7e8" /><stop
         id="stop28"
         offset="1"
         style="stop-opacity:1;stop-color:#d1d3d4" /></linearGradient><clipPath
       id="clipPath36"
       clipPathUnits="userSpaceOnUse"><path
         id="path38"
         d="M 15.742,228 C 12,220 12,212 12,208 l 0,0 c 0,-4 0,-8 3.742,-8 l 0,0 224.516,0 c 3.742,0 3.742,4 3.742,8 l 0,0 c 0,4 0,12 -3.742,20 l 0,0 -224.516,0 z" /></clipPath><linearGradient
       id="linearGradient44"
       spreadMethod="pad"
       gradientTransform="matrix(127.00421,-127.00421,-127.00421,-127.00421,64.497894,276.75595)"
       gradientUnits="userSpaceOnUse"
       y2="0"
       x2="1"
       y1="0"
       x1="0"><stop
         id="stop46"
         offset="0"
         style="stop-opacity:1;stop-color:#e6e7e8" /><stop
         id="stop48"
         offset="1"
         style="stop-opacity:1;stop-color:#d1d3d4" /></linearGradient><clipPath
       id="clipPath56"
       clipPathUnits="userSpaceOnUse"><path
         id="path58"
         d="M 0,256 256,256 256,0 0,0 0,256 Z" /></clipPath><clipPath
       id="clipPath100"
       clipPathUnits="userSpaceOnUse"><path
         id="path102"
         d="m 212,176 -4,0 -72,0 0,-12 72,0 4,0 8,0 0,8 c 0,2.209 -1.79,4 -4,4 l 0,0 -4,0 z" /></clipPath><linearGradient
       id="linearGradient108"
       spreadMethod="pad"
       gradientTransform="matrix(47.999996,-47.999996,-47.999996,-47.999996,153.41422,193.41422)"
       gradientUnits="userSpaceOnUse"
       y2="0"
       x2="1"
       y1="0"
       x1="0"><stop
         id="stop110"
         offset="0"
         style="stop-opacity:1;stop-color:#e6e7e8" /><stop
         id="stop112"
         offset="1"
         style="stop-opacity:1;stop-color:#d1d3d4" /></linearGradient></defs><g
     transform="matrix(1.25,0,0,-1.25,0,320)"
     id="g10"><g
       id="g12"><g
         clip-path="url(#clipPath16)"
         id="g14"><g
           id="g20"><g
             id="g22"><path
               id="path30"
               style="fill:url(#linearGradient24);stroke:none"
               d="M 16,228 16,29.655 C 16.441,28.678 17.411,28 18.548,28 l 0,0 218.903,0 c 1.138,0 2.107,0.678 2.549,1.655 l 0,0 0,198.345 -224,0 z" /></g></g></g></g><g
       id="g32"><g
         clip-path="url(#clipPath36)"
         id="g34"><g
           id="g40"><g
             id="g42"><path
               id="path50"
               style="fill:url(#linearGradient44);stroke:none"
               d="M 15.742,228 C 12,220 12,212 12,208 l 0,0 c 0,-4 0,-8 3.742,-8 l 0,0 224.516,0 c 3.742,0 3.742,4 3.742,8 l 0,0 c 0,4 0,12 -3.742,20 l 0,0 -224.516,0 z" /></g></g></g></g><g
       id="g52"><g
         clip-path="url(#clipPath56)"
         id="g54"><g
           transform="translate(37.76,178)"
           id="g60"><path
             id="path62"
             style="fill:#999999;fill-opacity:1;fill-rule:nonzero;stroke:none"
             d="m 0,0 180.48,0 c 2.077,0 3.76,-1.584 3.76,-3.538 l 0,-84.924 c 0,-1.954 -1.683,-3.538 -3.76,-3.538 L 0,-92 c -2.077,0 -3.76,1.584 -3.76,3.538 l 0,84.924 C -3.76,-1.584 -2.077,0 0,0" /></g><g
           transform="translate(113.362,60)"
           id="g64"><path
             id="path66"
             style="fill:#999999;fill-opacity:1;fill-rule:nonzero;stroke:none"
             d="m 0,0 29.276,0 c 1.153,0 1.782,-1.325 1.044,-2.198 l -14.638,-17.32 c -0.543,-0.643 -1.545,-0.643 -2.088,0 L -1.044,-2.198 C -1.782,-1.325 -1.153,0 0,0" /></g><g
           transform="translate(39.8333,176)"
           id="g68"><path
             id="path70"
             style="fill:#ffffff;fill-opacity:1;fill-rule:nonzero;stroke:none"
             d="m 0,0 176.333,0 c 2.117,0 3.834,-1.642 3.834,-3.667 l 0,-80.666 c 0,-2.025 -1.717,-3.667 -3.834,-3.667 L 0,-88 c -2.117,0 -3.833,1.642 -3.833,3.667 l 0,80.666 C -3.833,-1.642 -2.117,0 0,0" /></g><path
           id="path72"
           style="fill:#999999;fill-opacity:1;fill-rule:nonzero;stroke:none"
           d="m 224,220 -192,0 0,2 192,0 0,-2 z" /><path
           id="path74"
           style="fill:#999999;fill-opacity:1;fill-rule:nonzero;stroke:none"
           d="m 224,216 -192,0 0,2 192,0 0,-2 z" /><path
           id="path76"
           style="fill:#999999;fill-opacity:1;fill-rule:nonzero;stroke:none"
           d="m 224,212 -192,0 0,2 192,0 0,-2 z" /><path
           id="path78"
           style="fill:#999999;fill-opacity:1;fill-rule:nonzero;stroke:none"
           d="m 224,208 -192,0 0,2 192,0 0,-2 z" /><path
           id="path80"
           style="fill:#999999;fill-opacity:1;fill-rule:nonzero;stroke:none"
           d="m 224,204 -192,0 0,2 192,0 0,-2 z" /><path
           id="path82"
           style="fill:#999999;fill-opacity:1;fill-rule:nonzero;stroke:none"
           d="m 224,200 -192,0 0,2 192,0 0,-2 z" /><path
           id="path84"
           style="fill:#999999;fill-opacity:1;fill-rule:nonzero;stroke:none"
           d="m 220,196 -184,0 0,2 184,0 0,-2 z" /><path
           id="path86"
           style="fill:#999999;fill-opacity:1;fill-rule:nonzero;stroke:none"
           d="m 220,192 -184,0 0,2 184,0 0,-2 z" /><path
           id="path88"
           style="fill:#999999;fill-opacity:1;fill-rule:nonzero;stroke:none"
           d="m 220,188 -184,0 0,2 184,0 0,-2 z" /><path
           id="path90"
           style="fill:#999999;fill-opacity:1;fill-rule:nonzero;stroke:none"
           d="m 228,36 -72,0 0,24 72,0 0,-24 z" /><path
           id="path92"
           style="fill:#999999;fill-opacity:1;fill-rule:nonzero;stroke:none"
           d="m 100,36 -72,0 0,24 72,0 0,-24 z" /><path
           id="path94"
           style="fill:#999999;fill-opacity:1;fill-rule:nonzero;stroke:none"
           d="m 240.258,71.326 -224.516,0 0,4.833 224.516,0 0,-4.833 z" /></g></g><g
       id="g96"><g
         clip-path="url(#clipPath100)"
         id="g98"><g
           id="g104"><g
             id="g106"><path
               id="path114"
               style="fill:url(#linearGradient108);stroke:none"
               d="m 212,176 -4,0 -72,0 0,-12 72,0 4,0 8,0 0,8 c 0,2.209 -1.79,4 -4,4 l 0,0 -4,0 z" /></g></g></g></g></g></svg>