<?xml version="1.0" encoding="UTF-8" standalone="no"?>
<svg
   xmlns:dc="http://purl.org/dc/elements/1.1/"
   xmlns:cc="http://creativecommons.org/ns#"
   xmlns:rdf="http://www.w3.org/1999/02/22-rdf-syntax-ns#"
   xmlns:svg="http://www.w3.org/2000/svg"
   xmlns="http://www.w3.org/2000/svg"
   viewBox="0 0 320 320"
   height="320"
   width="320"
   xml:space="preserve"
   version="1.1"
   id="svg2"><metadata
     id="metadata8"><rdf:RDF><cc:Work
         rdf:about=""><dc:format>image/svg+xml</dc:format><dc:type
           rdf:resource="http://purl.org/dc/dcmitype/StillImage" /></cc:Work></rdf:RDF></metadata><defs
     id="defs6"><clipPath
       id="clipPath16"
       clipPathUnits="userSpaceOnUse"><path
         id="path18"
         d="M 0,256 256,256 256,0 0,0 0,256 Z" /></clipPath><clipPath
       id="clipPath28"
       clipPathUnits="userSpaceOnUse"><path
         id="path30"
         d="m 82,128 c 0,-25.349 20.64,-46 46.003,-46 l 0,0 C 153.341,82 174,102.651 174,128 l 0,0 c 0,25.349 -20.659,46 -45.997,46 l 0,0 C 102.64,174 82,153.349 82,128 m 32.216,0 c 0,7.605 6.191,13.785 13.787,13.785 l 0,0 c 7.599,0 13.776,-6.18 13.776,-13.785 l 0,0 c 0,-7.6 -6.177,-13.776 -13.776,-13.776 l 0,0 c -7.596,0 -13.787,6.176 -13.787,13.776" /></clipPath><linearGradient
       id="linearGradient36"
       spreadMethod="pad"
       gradientTransform="matrix(-65.012405,65.012405,65.012405,65.012405,160.50294,95.493797)"
       gradientUnits="userSpaceOnUse"
       y2="0"
       x2="1"
       y1="0"
       x1="0"><stop
         id="stop38"
         offset="0"
         style="stop-opacity:1;stop-color:#e6e7e8" /><stop
         id="stop40"
         offset="1"
         style="stop-opacity:1;stop-color:#d1d3d4" /></linearGradient></defs><g
     transform="matrix(1.25,0,0,-1.25,0,320)"
     id="g10"><g
       id="g12"><g
         clip-path="url(#clipPath16)"
         id="g14"><g
           transform="translate(128,84.4951)"
           id="g20"><path
             id="path22"
             style="fill:#999999;fill-opacity:1;fill-rule:nonzero;stroke:none"
             d="M 0,0 C -23.993,0 -43.505,19.517 -43.505,43.505 -43.505,67.493 -23.993,87.01 0,87.01 23.988,87.01 43.5,67.493 43.5,43.505 43.5,19.517 23.988,0 0,0 m 0,159.505 c -64.071,0 -116,-51.934 -116,-116 0,-64.066 51.929,-116 116,-116 64.051,0 116,51.934 116,116 0,64.066 -51.949,116 -116,116" /></g></g></g><g
       id="g24"><g
         clip-path="url(#clipPath28)"
         id="g26"><g
           id="g32"><g
             id="g34"><path
               id="path42"
               style="fill:url(#linearGradient36);stroke:none"
               d="m 82,128 c 0,-25.349 20.64,-46 46.003,-46 l 0,0 C 153.341,82 174,102.651 174,128 l 0,0 c 0,25.349 -20.659,46 -45.997,46 l 0,0 C 102.64,174 82,153.349 82,128 m 32.216,0 c 0,7.605 6.191,13.785 13.787,13.785 l 0,0 c 7.599,0 13.776,-6.18 13.776,-13.785 l 0,0 c 0,-7.6 -6.177,-13.776 -13.776,-13.776 l 0,0 c -7.596,0 -13.787,6.176 -13.787,13.776" /></g></g></g></g></g></svg>