<?xml version="1.0" encoding="UTF-8" standalone="no"?>
<svg
   xmlns:dc="http://purl.org/dc/elements/1.1/"
   xmlns:cc="http://creativecommons.org/ns#"
   xmlns:rdf="http://www.w3.org/1999/02/22-rdf-syntax-ns#"
   xmlns:svg="http://www.w3.org/2000/svg"
   xmlns="http://www.w3.org/2000/svg"
   viewBox="0 0 320 320"
   height="320"
   width="320"
   xml:space="preserve"
   version="1.1"
   id="svg2"><metadata
     id="metadata8"><rdf:RDF><cc:Work
         rdf:about=""><dc:format>image/svg+xml</dc:format><dc:type
           rdf:resource="http://purl.org/dc/dcmitype/StillImage" /></cc:Work></rdf:RDF></metadata><defs
     id="defs6"><clipPath
       id="clipPath16"
       clipPathUnits="userSpaceOnUse"><path
         id="path18"
         d="M 12,128 C 12,78.736 53.161,56 68.129,56 l 0,0 c 21.359,0 36.353,7.621 59.871,7.579 l 0,0 C 158.164,63.526 184.129,56 187.871,56 l 0,0 C 214.064,56 244,86.315 244,128 l 0,0 c 0,49.263 -48.645,72 -116,72 l 0,0 C 60.646,200 12.116,173.474 12,128" /></clipPath><linearGradient
       id="linearGradient24"
       spreadMethod="pad"
       gradientTransform="matrix(144.79102,-144.79102,-144.79102,-144.79102,56.46838,196.29279)"
       gradientUnits="userSpaceOnUse"
       y2="0"
       x2="1"
       y1="0"
       x1="0"><stop
         id="stop26"
         offset="0"
         style="stop-opacity:1;stop-color:#e6e7e8" /><stop
         id="stop28"
         offset="1"
         style="stop-opacity:1;stop-color:#d1d3d4" /></linearGradient><clipPath
       id="clipPath36"
       clipPathUnits="userSpaceOnUse"><path
         id="path38"
         d="m 144,184 c 0,-4.411 3.589,-8 8,-8 l 0,0 c 4.411,0 8,3.589 8,8 l 0,0 c 0,4.411 -3.589,8 -8,8 l 0,0 c -4.411,0 -8,-3.589 -8,-8" /></clipPath><linearGradient
       id="linearGradient44"
       spreadMethod="pad"
       gradientTransform="matrix(-11.308424,11.308424,11.308424,11.308424,157.65421,178.34579)"
       gradientUnits="userSpaceOnUse"
       y2="0"
       x2="1"
       y1="0"
       x1="0"><stop
         id="stop46"
         offset="0"
         style="stop-opacity:1;stop-color:#e6e7e8" /><stop
         id="stop48"
         offset="1"
         style="stop-opacity:1;stop-color:#d1d3d4" /></linearGradient><clipPath
       id="clipPath56"
       clipPathUnits="userSpaceOnUse"><path
         id="path58"
         d="M 0,256 256,256 256,0 0,0 0,256 Z" /></clipPath><clipPath
       id="clipPath68"
       clipPathUnits="userSpaceOnUse"><path
         id="path70"
         d="m 116,172 c 0,-4.411 3.588,-8 8,-8 l 0,0 c 4.411,0 8,3.589 8,8 l 0,0 c 0,4.411 -3.589,8 -8,8 l 0,0 c -4.412,0 -8,-3.589 -8,-8" /></clipPath><linearGradient
       id="linearGradient76"
       spreadMethod="pad"
       gradientTransform="matrix(-11.308424,11.308424,11.308424,11.308424,129.65421,166.34579)"
       gradientUnits="userSpaceOnUse"
       y2="0"
       x2="1"
       y1="0"
       x1="0"><stop
         id="stop78"
         offset="0"
         style="stop-opacity:1;stop-color:#e6e7e8" /><stop
         id="stop80"
         offset="1"
         style="stop-opacity:1;stop-color:#d1d3d4" /></linearGradient><clipPath
       id="clipPath88"
       clipPathUnits="userSpaceOnUse"><path
         id="path90"
         d="M 0,256 256,256 256,0 0,0 0,256 Z" /></clipPath><clipPath
       id="clipPath100"
       clipPathUnits="userSpaceOnUse"><path
         id="path102"
         d="m 48,134 c 0,-12.148 9.852,-22 22,-22 l 0,0 c 12.148,0 22,9.852 22,22 l 0,0 c 0,12.147 -9.852,22 -22,22 l 0,0 c -12.148,0 -22,-9.853 -22,-22" /></clipPath><linearGradient
       id="linearGradient108"
       spreadMethod="pad"
       gradientTransform="matrix(-31.110752,31.110752,31.110752,31.110752,85.555374,118.44463)"
       gradientUnits="userSpaceOnUse"
       y2="0"
       x2="1"
       y1="0"
       x1="0"><stop
         id="stop110"
         offset="0"
         style="stop-opacity:1;stop-color:#e6e7e8" /><stop
         id="stop112"
         offset="1"
         style="stop-opacity:1;stop-color:#d1d3d4" /></linearGradient><clipPath
       id="clipPath120"
       clipPathUnits="userSpaceOnUse"><path
         id="path122"
         d="M 0,256 256,256 256,0 0,0 0,256 Z" /></clipPath><clipPath
       id="clipPath144"
       clipPathUnits="userSpaceOnUse"><path
         id="path146"
         d="m 54,134 c 0,-8.836 7.164,-16 16,-16 l 0,0 c 8.836,0 16,7.164 16,16 l 0,0 c 0,8.836 -7.164,16 -16,16 l 0,0 c -8.836,0 -16,-7.164 -16,-16" /></clipPath><linearGradient
       id="linearGradient152"
       spreadMethod="pad"
       gradientTransform="matrix(22.626986,-22.626986,-22.626986,-22.626986,58.686504,145.31349)"
       gradientUnits="userSpaceOnUse"
       y2="0"
       x2="1"
       y1="0"
       x1="0"><stop
         id="stop154"
         offset="0"
         style="stop-opacity:1;stop-color:#e6e7e8" /><stop
         id="stop156"
         offset="1"
         style="stop-opacity:1;stop-color:#d1d3d4" /></linearGradient><clipPath
       id="clipPath164"
       clipPathUnits="userSpaceOnUse"><path
         id="path166"
         d="M 0,256 256,256 256,0 0,0 0,256 Z" /></clipPath><clipPath
       id="clipPath176"
       clipPathUnits="userSpaceOnUse"><path
         id="path178"
         d="M 153.626,116.672 C 131.904,103.062 126.231,65.574 126,64 l 0,0 2.361,0.017 c 0.055,0.374 5.744,37.553 26.511,50.566 l 0,0 c 20.89,13.091 86.16,3.603 86.818,3.505 l 0,0 0.31,2.426 C 240.419,120.747 218.037,124 195.346,124 l 0,0 c -16.266,-0.001 -32.694,-1.673 -41.72,-7.328" /></clipPath><linearGradient
       id="linearGradient184"
       spreadMethod="pad"
       gradientTransform="matrix(-43.984798,43.984798,43.984798,43.984798,199.92896,76.327698)"
       gradientUnits="userSpaceOnUse"
       y2="0"
       x2="1"
       y1="0"
       x1="0"><stop
         id="stop186"
         offset="0"
         style="stop-opacity:1;stop-color:#e6e7e8" /><stop
         id="stop188"
         offset="1"
         style="stop-opacity:1;stop-color:#d1d3d4" /></linearGradient></defs><g
     transform="matrix(1.25,0,0,-1.25,0,320)"
     id="g10"><g
       id="g12"><g
         clip-path="url(#clipPath16)"
         id="g14"><g
           id="g20"><g
             id="g22"><path
               id="path30"
               style="fill:url(#linearGradient24);stroke:none"
               d="M 12,128 C 12,78.736 53.161,56 68.129,56 l 0,0 c 21.359,0 36.353,7.621 59.871,7.579 l 0,0 C 158.164,63.526 184.129,56 187.871,56 l 0,0 C 214.064,56 244,86.315 244,128 l 0,0 c 0,49.263 -48.645,72 -116,72 l 0,0 C 60.646,200 12.116,173.474 12,128" /></g></g></g></g><g
       id="g32"><g
         clip-path="url(#clipPath36)"
         id="g34"><g
           id="g40"><g
             id="g42"><path
               id="path50"
               style="fill:url(#linearGradient44);stroke:none"
               d="m 144,184 c 0,-4.411 3.589,-8 8,-8 l 0,0 c 4.411,0 8,3.589 8,8 l 0,0 c 0,4.411 -3.589,8 -8,8 l 0,0 c -4.411,0 -8,-3.589 -8,-8" /></g></g></g></g><g
       id="g52"><g
         clip-path="url(#clipPath56)"
         id="g54"><g
           transform="translate(152,190)"
           id="g60"><path
             id="path62"
             style="fill:#999999;fill-opacity:1;fill-rule:nonzero;stroke:none"
             d="m 0,0 c 3.312,0 6,-2.688 6,-6 0,-3.312 -2.688,-6 -6,-6 -3.312,0 -6,2.688 -6,6 0,3.312 2.688,6 6,6" /></g></g></g><g
       id="g64"><g
         clip-path="url(#clipPath68)"
         id="g66"><g
           id="g72"><g
             id="g74"><path
               id="path82"
               style="fill:url(#linearGradient76);stroke:none"
               d="m 116,172 c 0,-4.411 3.588,-8 8,-8 l 0,0 c 4.411,0 8,3.589 8,8 l 0,0 c 0,4.411 -3.589,8 -8,8 l 0,0 c -4.412,0 -8,-3.589 -8,-8" /></g></g></g></g><g
       id="g84"><g
         clip-path="url(#clipPath88)"
         id="g86"><g
           transform="translate(124,178)"
           id="g92"><path
             id="path94"
             style="fill:#999999;fill-opacity:1;fill-rule:nonzero;stroke:none"
             d="m 0,0 c 3.312,0 6,-2.688 6,-6 0,-3.312 -2.688,-6 -6,-6 -3.312,0 -6,2.688 -6,6 0,3.312 2.688,6 6,6" /></g></g></g><g
       id="g96"><g
         clip-path="url(#clipPath100)"
         id="g98"><g
           id="g104"><g
             id="g106"><path
               id="path114"
               style="fill:url(#linearGradient108);stroke:none"
               d="m 48,134 c 0,-12.148 9.852,-22 22,-22 l 0,0 c 12.148,0 22,9.852 22,22 l 0,0 c 0,12.147 -9.852,22 -22,22 l 0,0 c -12.148,0 -22,-9.853 -22,-22" /></g></g></g></g><g
       id="g116"><g
         clip-path="url(#clipPath120)"
         id="g118"><g
           transform="translate(124,120)"
           id="g124"><path
             id="path126"
             style="fill:#999999;fill-opacity:1;fill-rule:nonzero;stroke:none"
             d="m 0,0 c -6.627,0 -12,5.373 -12,12 0,6.627 5.373,12 12,12 C 6.627,24 12,18.627 12,12 12,5.373 6.627,0 0,0" /></g><g
           transform="translate(152,140)"
           id="g128"><path
             id="path130"
             style="fill:#999999;fill-opacity:1;fill-rule:nonzero;stroke:none"
             d="m 0,0 c -6.627,0 -12,5.373 -12,12 0,6.627 5.373,12 12,12 C 6.627,24 12,18.627 12,12 12,5.373 6.627,0 0,0" /></g><g
           transform="translate(186,148)"
           id="g132"><path
             id="path134"
             style="fill:#999999;fill-opacity:1;fill-rule:nonzero;stroke:none"
             d="m 0,0 c -6.627,0 -12,5.373 -12,12 0,6.627 5.373,12 12,12 C 6.627,24 12,18.627 12,12 12,5.373 6.627,0 0,0" /></g><g
           transform="translate(216,136)"
           id="g136"><path
             id="path138"
             style="fill:#999999;fill-opacity:1;fill-rule:nonzero;stroke:none"
             d="m 0,0 c -6.627,0 -12,5.373 -12,12 0,6.627 5.373,12 12,12 C 6.627,24 12,18.627 12,12 12,5.373 6.627,0 0,0" /></g></g></g><g
       id="g140"><g
         clip-path="url(#clipPath144)"
         id="g142"><g
           id="g148"><g
             id="g150"><path
               id="path158"
               style="fill:url(#linearGradient152);stroke:none"
               d="m 54,134 c 0,-8.836 7.164,-16 16,-16 l 0,0 c 8.836,0 16,7.164 16,16 l 0,0 c 0,8.836 -7.164,16 -16,16 l 0,0 c -8.836,0 -16,-7.164 -16,-16" /></g></g></g></g><g
       id="g160"><g
         clip-path="url(#clipPath164)"
         id="g162"><g
           transform="translate(70,146)"
           id="g168"><path
             id="path170"
             style="fill:#999999;fill-opacity:1;fill-rule:nonzero;stroke:none"
             d="m 0,0 c 6.617,0 12,-5.383 12,-12 0,-6.617 -5.383,-12 -12,-12 -6.617,0 -12,5.383 -12,12 0,6.617 5.383,12 12,12" /></g></g></g><g
       id="g172"><g
         clip-path="url(#clipPath176)"
         id="g174"><g
           id="g180"><g
             id="g182"><path
               id="path190"
               style="fill:url(#linearGradient184);stroke:none"
               d="M 153.626,116.672 C 131.904,103.062 126.231,65.574 126,64 l 0,0 2.361,0.017 c 0.055,0.374 5.744,37.553 26.511,50.566 l 0,0 c 20.89,13.091 86.16,3.603 86.818,3.505 l 0,0 0.31,2.426 C 240.419,120.747 218.037,124 195.346,124 l 0,0 c -16.266,-0.001 -32.694,-1.673 -41.72,-7.328" /></g></g></g></g></g></svg>