<?xml version="1.0" encoding="UTF-8" standalone="no"?>
<svg
   xmlns:dc="http://purl.org/dc/elements/1.1/"
   xmlns:cc="http://creativecommons.org/ns#"
   xmlns:rdf="http://www.w3.org/1999/02/22-rdf-syntax-ns#"
   xmlns:svg="http://www.w3.org/2000/svg"
   xmlns="http://www.w3.org/2000/svg"
   viewBox="0 0 320 320"
   height="320"
   width="320"
   xml:space="preserve"
   version="1.1"
   id="svg2"><metadata
     id="metadata8"><rdf:RDF><cc:Work
         rdf:about=""><dc:format>image/svg+xml</dc:format><dc:type
           rdf:resource="http://purl.org/dc/dcmitype/StillImage" /></cc:Work></rdf:RDF></metadata><defs
     id="defs6"><clipPath
       id="clipPath16"
       clipPathUnits="userSpaceOnUse"><path
         id="path18"
         d="M 0,256 256,256 256,0 0,0 0,256 Z" /></clipPath><clipPath
       id="clipPath36"
       clipPathUnits="userSpaceOnUse"><path
         id="path38"
         d="m 56,180 c -6.585,-6.586 -12,-8 -12,-8 l 0,0 -16,0 C -3.466,126.143 28,88 28,88 l 0,0 16,0 c 6.098,0 12,-8.01 12,-8.01 l 0,0 144,0 c 0,0 5.901,8.01 12,8.01 l 0,0 16,0 c 0,0 31.466,38.143 0,84 l 0,0 -16,0 c 0,0 -5.414,1.414 -12,8 l 0,0 -144,0 z" /></clipPath><linearGradient
       id="linearGradient44"
       spreadMethod="pad"
       gradientTransform="matrix(142,-142,-142,-142,57,201)"
       gradientUnits="userSpaceOnUse"
       y2="0"
       x2="1"
       y1="0"
       x1="0"><stop
         id="stop46"
         offset="0"
         style="stop-opacity:1;stop-color:#e6e7e8" /><stop
         id="stop48"
         offset="1"
         style="stop-opacity:1;stop-color:#d1d3d4" /></linearGradient><clipPath
       id="clipPath56"
       clipPathUnits="userSpaceOnUse"><path
         id="path58"
         d="M 0,256 256,256 256,0 0,0 0,256 Z" /></clipPath><clipPath
       id="clipPath72"
       clipPathUnits="userSpaceOnUse"><path
         id="path74"
         d="m 202,134 c 0,-8.822 7.177,-16 16,-16 l 0,0 c 8.822,0 16,7.178 16,16 l 0,0 c 0,8.822 -7.178,16 -16,16 l 0,0 c -8.823,0 -16,-7.178 -16,-16 m 0.762,0 c 0,8.402 6.836,15.238 15.238,15.238 l 0,0 c 8.402,0 15.238,-6.836 15.238,-15.238 l 0,0 c 0,-8.401 -6.836,-15.238 -15.238,-15.238 l 0,0 c -8.402,0 -15.238,6.837 -15.238,15.238" /></clipPath><linearGradient
       id="linearGradient80"
       spreadMethod="pad"
       gradientTransform="matrix(-22.616629,22.616629,22.616629,22.616629,229.30832,122.69168)"
       gradientUnits="userSpaceOnUse"
       y2="0"
       x2="1"
       y1="0"
       x1="0"><stop
         id="stop82"
         offset="0"
         style="stop-opacity:1;stop-color:#e6e7e8" /><stop
         id="stop84"
         offset="1"
         style="stop-opacity:1;stop-color:#d1d3d4" /></linearGradient><clipPath
       id="clipPath92"
       clipPathUnits="userSpaceOnUse"><path
         id="path94"
         d="M 0,256 256,256 256,0 0,0 0,256 Z" /></clipPath><clipPath
       id="clipPath122"
       clipPathUnits="userSpaceOnUse"><path
         id="path124"
         d="m 232,103 c 0,-0.551 0.447,-1 1,-1 l 0,0 c 0.553,0 1,0.449 1,1 l 0,0 c 0,0.553 -0.447,1 -1,1 l 0,0 c -0.553,0 -1,-0.447 -1,-1" /></clipPath><linearGradient
       id="linearGradient130"
       spreadMethod="pad"
       gradientTransform="matrix(-1.4143757,1.4143757,1.4143757,1.4143757,233.7072,102.29303)"
       gradientUnits="userSpaceOnUse"
       y2="0"
       x2="1"
       y1="0"
       x1="0"><stop
         id="stop132"
         offset="0"
         style="stop-opacity:1;stop-color:#e6e7e8" /><stop
         id="stop134"
         offset="1"
         style="stop-opacity:1;stop-color:#d1d3d4" /></linearGradient><clipPath
       id="clipPath142"
       clipPathUnits="userSpaceOnUse"><path
         id="path144"
         d="m 18,111 c 0,-0.554 0.447,-1 1,-1 l 0,0 c 0.553,0 1,0.446 1,1 l 0,0 c 0,0.552 -0.447,1 -1,1 l 0,0 c -0.553,0 -1,-0.448 -1,-1" /></clipPath><linearGradient
       id="linearGradient150"
       spreadMethod="pad"
       gradientTransform="matrix(-1.4143815,1.4143815,1.4143815,1.4143815,19.707209,110.29257)"
       gradientUnits="userSpaceOnUse"
       y2="0"
       x2="1"
       y1="0"
       x1="0"><stop
         id="stop152"
         offset="0"
         style="stop-opacity:1;stop-color:#e6e7e8" /><stop
         id="stop154"
         offset="1"
         style="stop-opacity:1;stop-color:#d1d3d4" /></linearGradient><clipPath
       id="clipPath162"
       clipPathUnits="userSpaceOnUse"><path
         id="path164"
         d="M 22,101.001 C 22,100.449 22.448,100 23,100 l 0,0 c 0.552,0 1,0.449 1,1.001 l 0,0 C 24,101.552 23.552,102 23,102 l 0,0 c -0.552,0 -1,-0.448 -1,-0.999" /></clipPath><linearGradient
       id="linearGradient170"
       spreadMethod="pad"
       gradientTransform="matrix(-1.4139878,1.4139878,1.4139878,1.4139878,23.707058,100.29335)"
       gradientUnits="userSpaceOnUse"
       y2="0"
       x2="1"
       y1="0"
       x1="0"><stop
         id="stop172"
         offset="0"
         style="stop-opacity:1;stop-color:#e6e7e8" /><stop
         id="stop174"
         offset="1"
         style="stop-opacity:1;stop-color:#d1d3d4" /></linearGradient><clipPath
       id="clipPath182"
       clipPathUnits="userSpaceOnUse"><path
         id="path184"
         d="M 0,256 256,256 256,0 0,0 0,256 Z" /></clipPath><clipPath
       id="clipPath234"
       clipPathUnits="userSpaceOnUse"><path
         id="path236"
         d="m 62,170 0,-9.478 0,-2.306 0,-13.256 0,-2.306 0,-29.97 0,-0.961 0,-2.037 0,-8.53 0,-3.156 132,0 0,6.807 0,4.879 0,2.037 0,37.464 0,9.029 0,4.611 0,7.173 -132,0 z" /></clipPath><linearGradient
       id="linearGradient242"
       spreadMethod="pad"
       gradientTransform="matrix(132,0,0,-132,62,134)"
       gradientUnits="userSpaceOnUse"
       y2="0"
       x2="1"
       y1="0"
       x1="0"><stop
         id="stop244"
         offset="0"
         style="stop-opacity:1;stop-color:#e6e7e8" /><stop
         id="stop246"
         offset="1"
         style="stop-opacity:1;stop-color:#d1d3d4" /></linearGradient></defs><g
     transform="matrix(1.25,0,0,-1.25,0,320)"
     id="g10"><g
       id="g12"><g
         clip-path="url(#clipPath16)"
         id="g14"><g
           transform="translate(38.3214,180)"
           id="g20"><path
             id="path22"
             style="fill:#ffffff;fill-opacity:1;fill-rule:nonzero;stroke:none"
             d="m 0,0 c -3.678,0 -10.321,-8 -10.321,-8 l 28,0 0,8 L 0,0 Z" /></g><g
           transform="translate(217.6786,180)"
           id="g24"><path
             id="path26"
             style="fill:#ffffff;fill-opacity:1;fill-rule:nonzero;stroke:none"
             d="m 0,0 c 3.678,0 10.321,-8 10.321,-8 l -28,0 0,8 L 0,0 Z" /></g><g
           transform="translate(48.6953,81)"
           id="g28"><path
             id="path30"
             style="fill:#999999;fill-opacity:1;fill-rule:nonzero;stroke:none"
             d="m 0,0 -7.631,0 c -1.676,0 -4.326,1.344 -5.915,3 -1.591,1.656 -1.521,3 0.154,3 L -5.76,6 C -4.083,6 -1.434,4.656 0.156,3 1.745,1.344 1.678,0 0,0 m 3.305,7 -24,0 c 0,0 8.085,-8 12,-8 l 16,0 c 0,0 -0.323,8 -4,8" /></g></g></g><g
       id="g32"><g
         clip-path="url(#clipPath36)"
         id="g34"><g
           id="g40"><g
             id="g42"><path
               id="path50"
               style="fill:url(#linearGradient44);stroke:none"
               d="m 56,180 c -6.585,-6.586 -12,-8 -12,-8 l 0,0 -16,0 C -3.466,126.143 28,88 28,88 l 0,0 16,0 c 6.098,0 12,-8.01 12,-8.01 l 0,0 144,0 c 0,0 5.901,8.01 12,8.01 l 0,0 16,0 c 0,0 31.466,38.143 0,84 l 0,0 -16,0 c 0,0 -5.414,1.414 -12,8 l 0,0 -144,0 z" /></g></g></g></g><g
       id="g52"><g
         clip-path="url(#clipPath56)"
         id="g54"><g
           transform="translate(18.7347,136)"
           id="g60"><path
             id="path62"
             style="fill:#d5d5d5;fill-opacity:1;fill-rule:nonzero;stroke:none"
             d="m 0,0 c 0,9.521 7.746,17.265 17.265,17.265 9.521,0 17.266,-7.744 17.266,-17.265 0,-9.521 -7.745,-17.265 -17.266,-17.265 C 7.746,-17.265 0,-9.521 0,0 m -0.735,0 c 0,-9.926 8.075,-18 18,-18 9.926,0 18,8.074 18,18 0,9.926 -8.074,18 -18,18 -9.925,0 -18,-8.074 -18,-18" /></g><g
           transform="translate(44,104)"
           id="g64"><path
             id="path66"
             style="fill:#999999;fill-opacity:1;fill-rule:nonzero;stroke:none"
             d="m 0,0 c 0,-4.418 -3.582,-8 -8,-8 -4.418,0 -8,3.582 -8,8 0,4.418 3.582,8 8,8 4.418,0 8,-3.582 8,-8" /></g></g></g><g
       id="g68"><g
         clip-path="url(#clipPath72)"
         id="g70"><g
           id="g76"><g
             id="g78"><path
               id="path86"
               style="fill:url(#linearGradient80);stroke:none"
               d="m 202,134 c 0,-8.822 7.177,-16 16,-16 l 0,0 c 8.822,0 16,7.178 16,16 l 0,0 c 0,8.822 -7.178,16 -16,16 l 0,0 c -8.823,0 -16,-7.178 -16,-16 m 0.762,0 c 0,8.402 6.836,15.238 15.238,15.238 l 0,0 c 8.402,0 15.238,-6.836 15.238,-15.238 l 0,0 c 0,-8.401 -6.836,-15.238 -15.238,-15.238 l 0,0 c -8.402,0 -15.238,6.837 -15.238,15.238" /></g></g></g></g><g
       id="g88"><g
         clip-path="url(#clipPath92)"
         id="g90"><g
           transform="translate(224,148)"
           id="g96"><path
             id="path98"
             style="fill:#999999;fill-opacity:1;fill-rule:nonzero;stroke:none"
             d="m 0,0 c 0,-3.314 -2.686,-6 -6,-6 -3.314,0 -6,2.686 -6,6 0,3.314 2.686,6 6,6 3.314,0 6,-2.686 6,-6" /></g><g
           transform="translate(224,120)"
           id="g100"><path
             id="path102"
             style="fill:#999999;fill-opacity:1;fill-rule:nonzero;stroke:none"
             d="m 0,0 c 0,-3.313 -2.686,-6 -6,-6 -3.314,0 -6,2.687 -6,6 0,3.313 2.686,6 6,6 3.314,0 6,-2.687 6,-6" /></g><g
           transform="translate(210,134)"
           id="g104"><path
             id="path106"
             style="fill:#999999;fill-opacity:1;fill-rule:nonzero;stroke:none"
             d="m 0,0 c 0,-3.313 -2.686,-6 -6,-6 -3.314,0 -6,2.687 -6,6 0,3.314 2.686,6 6,6 3.314,0 6,-2.686 6,-6" /></g><g
           transform="translate(238,134)"
           id="g108"><path
             id="path110"
             style="fill:#999999;fill-opacity:1;fill-rule:nonzero;stroke:none"
             d="m 0,0 c 0,-3.313 -2.686,-6 -6,-6 -3.314,0 -6,2.687 -6,6 0,3.314 2.686,6 6,6 3.314,0 6,-2.686 6,-6" /></g><path
           id="path112"
           style="fill:#999999;fill-opacity:1;fill-rule:nonzero;stroke:none"
           d="m 196,96 -136,0 0,76 136,0 0,-76 z" /><g
           transform="translate(238,111.0001)"
           id="g114"><path
             id="path116"
             style="fill:#00ff00;fill-opacity:1;fill-rule:nonzero;stroke:none"
             d="m 0,0 c 0,-0.552 -0.447,-1 -1,-1 -0.553,0 -1,0.448 -1,1 0,0.553 0.447,1 1,1 0.553,0 1,-0.447 1,-1" /></g></g></g><g
       id="g118"><g
         clip-path="url(#clipPath122)"
         id="g120"><g
           id="g126"><g
             id="g128"><path
               id="path136"
               style="fill:url(#linearGradient130);stroke:none"
               d="m 232,103 c 0,-0.551 0.447,-1 1,-1 l 0,0 c 0.553,0 1,0.449 1,1 l 0,0 c 0,0.553 -0.447,1 -1,1 l 0,0 c -0.553,0 -1,-0.447 -1,-1" /></g></g></g></g><g
       id="g138"><g
         clip-path="url(#clipPath142)"
         id="g140"><g
           id="g146"><g
             id="g148"><path
               id="path156"
               style="fill:url(#linearGradient150);stroke:none"
               d="m 18,111 c 0,-0.554 0.447,-1 1,-1 l 0,0 c 0.553,0 1,0.446 1,1 l 0,0 c 0,0.552 -0.447,1 -1,1 l 0,0 c -0.553,0 -1,-0.448 -1,-1" /></g></g></g></g><g
       id="g158"><g
         clip-path="url(#clipPath162)"
         id="g160"><g
           id="g166"><g
             id="g168"><path
               id="path176"
               style="fill:url(#linearGradient170);stroke:none"
               d="M 22,101.001 C 22,100.449 22.448,100 23,100 l 0,0 c 0.552,0 1,0.449 1,1.001 l 0,0 C 24,101.552 23.552,102 23,102 l 0,0 c -0.552,0 -1,-0.448 -1,-0.999" /></g></g></g></g><g
       id="g178"><g
         clip-path="url(#clipPath182)"
         id="g180"><g
           transform="translate(194,84)"
           id="g186"><path
             id="path188"
             style="fill:#999999;fill-opacity:1;fill-rule:nonzero;stroke:none"
             d="M 0,0 C 3.314,0 6,2.686 6,6 L -6,6 C -6,2.686 -3.314,0 0,0" /></g><g
           transform="translate(178,84)"
           id="g190"><path
             id="path192"
             style="fill:#999999;fill-opacity:1;fill-rule:nonzero;stroke:none"
             d="M 0,0 C 3.314,0 6,2.686 6,6 L -6,6 C -6,2.686 -3.314,0 0,0" /></g><g
           transform="translate(66,84)"
           id="g194"><path
             id="path196"
             style="fill:#999999;fill-opacity:1;fill-rule:nonzero;stroke:none"
             d="M 0,0 C 3.314,0 6,2.686 6,6 L -6,6 C -6,2.686 -3.314,0 0,0" /></g><g
           transform="translate(84,86)"
           id="g198"><path
             id="path200"
             style="fill:#999999;fill-opacity:1;fill-rule:nonzero;stroke:none"
             d="m 0,0 c 0,-1.104 -0.951,-2 -2.124,-2 l -3.752,0 C -7.049,-2 -8,-1.104 -8,0 c 0,1.105 0.951,2 2.124,2 l 3.752,0 C -0.951,2 0,1.105 0,0" /></g><g
           transform="translate(96,86)"
           id="g202"><path
             id="path204"
             style="fill:#999999;fill-opacity:1;fill-rule:nonzero;stroke:none"
             d="m 0,0 c 0,-1.104 -0.951,-2 -2.124,-2 l -3.752,0 C -7.049,-2 -8,-1.104 -8,0 c 0,1.105 0.951,2 2.124,2 l 3.752,0 C -0.951,2 0,1.105 0,0" /></g><g
           transform="translate(156,85.9986)"
           id="g206"><path
             id="path208"
             style="fill:#999999;fill-opacity:1;fill-rule:nonzero;stroke:none"
             d="m 0,0 c 0,-1.104 -0.95,-1.999 -2.123,-1.999 l -3.754,0 C -7.047,-1.999 -8,-1.104 -8,0 c 0,1.105 0.953,2.001 2.123,2.001 l 3.754,0 C -0.95,2.001 0,1.105 0,0" /></g><g
           transform="translate(168,85.9986)"
           id="g210"><path
             id="path212"
             style="fill:#999999;fill-opacity:1;fill-rule:nonzero;stroke:none"
             d="m 0,0 c 0,-1.104 -0.95,-1.999 -2.123,-1.999 l -3.754,0 C -7.047,-1.999 -8,-1.104 -8,0 c 0,1.105 0.953,2.001 2.123,2.001 l 3.754,0 C -0.95,2.001 0,1.105 0,0" /></g><g
           transform="translate(52,135.4697)"
           id="g214"><path
             id="path216"
             style="fill:#999999;fill-opacity:1;fill-rule:nonzero;stroke:none"
             d="m 0,0 c 0,2.457 -0.687,4.484 -1.584,4.88 l 0,0.082 -6.019,0 -2.957,-3.063 c 0,0 -2.059,-1.846 0,-3.907 l 2.957,-3.061 6.019,0 0,0.189 C -0.687,-4.485 0,-2.458 0,0" /></g><g
           transform="translate(20,135.4697)"
           id="g218"><path
             id="path220"
             style="fill:#999999;fill-opacity:1;fill-rule:nonzero;stroke:none"
             d="m 0,0 c 0,2.457 0.686,4.484 1.584,4.88 l 0,0.082 6.019,0 2.956,-3.063 c 0,0 2.059,-1.846 0,-3.907 l -2.956,-3.061 -6.019,0 0,0.189 C 0.686,-4.485 0,-2.458 0,0" /></g><g
           transform="translate(36.052,120)"
           id="g222"><path
             id="path224"
             style="fill:#999999;fill-opacity:1;fill-rule:nonzero;stroke:none"
             d="m 0,0 c 2.458,0 4.485,0.687 4.88,1.584 l 0.084,0 0,6.02 -3.063,2.956 c 0,0 -1.848,2.059 -3.907,0 l -3.063,-2.956 0,-6.02 0.189,0 C -4.485,0.687 -2.459,0 0,0" /></g><g
           transform="translate(36.052,152)"
           id="g226"><path
             id="path228"
             style="fill:#999999;fill-opacity:1;fill-rule:nonzero;stroke:none"
             d="m 0,0 c 2.458,0 4.485,-0.687 4.88,-1.584 l 0.084,0 0,-6.02 -3.063,-2.956 c 0,0 -1.848,-2.059 -3.907,0 l -3.063,2.956 0,6.02 0.189,0 C -4.485,-0.687 -2.459,0 0,0" /></g></g></g><g
       id="g230"><g
         clip-path="url(#clipPath234)"
         id="g232"><g
           id="g238"><g
             id="g240"><path
               id="path248"
               style="fill:url(#linearGradient242);stroke:none"
               d="m 62,170 0,-9.478 0,-2.306 0,-13.256 0,-2.306 0,-29.97 0,-0.961 0,-2.037 0,-8.53 0,-3.156 132,0 0,6.807 0,4.879 0,2.037 0,37.464 0,9.029 0,4.611 0,7.173 -132,0 z" /></g></g></g></g></g></svg>