<?xml version="1.0" encoding="UTF-8" standalone="no"?>
<svg
   xmlns:dc="http://purl.org/dc/elements/1.1/"
   xmlns:cc="http://creativecommons.org/ns#"
   xmlns:rdf="http://www.w3.org/1999/02/22-rdf-syntax-ns#"
   xmlns:svg="http://www.w3.org/2000/svg"
   xmlns="http://www.w3.org/2000/svg"
   viewBox="0 0 320 320"
   height="320"
   width="320"
   xml:space="preserve"
   version="1.1"
   id="svg2"><metadata
     id="metadata8"><rdf:RDF><cc:Work
         rdf:about=""><dc:format>image/svg+xml</dc:format><dc:type
           rdf:resource="http://purl.org/dc/dcmitype/StillImage" /></cc:Work></rdf:RDF></metadata><defs
     id="defs6"><clipPath
       id="clipPath16"
       clipPathUnits="userSpaceOnUse"><path
         id="path18"
         d="M 0,256 256,256 256,0 0,0 0,256 Z" /></clipPath><clipPath
       id="clipPath32"
       clipPathUnits="userSpaceOnUse"><path
         id="path34"
         d="m 192.278,196.116 c -2.753,-0.074 -5.101,-0.148 -6.586,-0.129 l 0,0 c -1.078,0.013 -2.114,-0.408 -2.877,-1.171 l 0,0 -1.643,-1.645 C 180.422,192.422 179.404,192 178.343,192 l 0,0 -100.686,0 c -1.061,0 -2.079,0.422 -2.828,1.171 l 0,0 -1.645,1.645 c -0.763,0.763 -1.798,1.184 -2.877,1.171 l 0,0 c -1.485,-0.019 -3.832,0.055 -6.586,0.129 l 0,0 C 55.126,196.347 42.577,196.578 40,194 l 0,0 c 0,0 -12,-14 -20,-50 l 0,0 C 12,108 12,88 12,88 l 0,0 c 0,0 0,-32 20,-32 l 0,0 c 19.829,0 27.863,15.728 39.694,47.185 l 0,0 c 0.2,0.532 0.514,1.023 0.916,1.426 l 0,0 2.219,2.217 c 0.749,0.75 1.767,1.172 2.828,1.172 l 0,0 50.343,0 50.343,0 c 1.061,0 2.079,-0.422 2.829,-1.172 l 0,0 2.217,-2.217 c 0.403,-0.403 0.718,-0.894 0.918,-1.426 l 0,0 C 196.138,71.728 204.171,56 224,56 l 0,0 c 20,0 20,32 20,32 l 0,0 c 0,0 0,20 -8,56 l 0,0 c -8,36 -20,50 -20,50 l 0,0 c -1.84,1.839 -8.752,2.248 -15.684,2.248 l 0,0 c -2.785,0 -5.574,-0.066 -8.038,-0.132" /></clipPath><linearGradient
       id="linearGradient40"
       spreadMethod="pad"
       gradientTransform="matrix(164.28798,-164.28798,-164.28798,-164.28798,45.85601,199.856)"
       gradientUnits="userSpaceOnUse"
       y2="0"
       x2="1"
       y1="0"
       x1="0"><stop
         id="stop42"
         offset="0"
         style="stop-opacity:1;stop-color:#e6e7e8" /><stop
         id="stop44"
         offset="1"
         style="stop-opacity:1;stop-color:#d1d3d4" /></linearGradient><clipPath
       id="clipPath52"
       clipPathUnits="userSpaceOnUse"><path
         id="path54"
         d="m 92,192 c -2.209,0 -4,-1.791 -4,-4 l 0,0 0,-32 c 0,-4.418 3.581,-8 8,-8 l 0,0 64,0 c 4.418,0 8,3.582 8,8 l 0,0 0,32 c 0,2.209 -1.791,4 -4,4 l 0,0 -72,0 z" /></clipPath><linearGradient
       id="linearGradient60"
       spreadMethod="pad"
       gradientTransform="matrix(-58.485279,58.485279,58.485279,58.485279,157.24265,141.92892)"
       gradientUnits="userSpaceOnUse"
       y2="0"
       x2="1"
       y1="0"
       x1="0"><stop
         id="stop62"
         offset="0"
         style="stop-opacity:1;stop-color:#e6e7e8" /><stop
         id="stop64"
         offset="1"
         style="stop-opacity:1;stop-color:#d1d3d4" /></linearGradient><clipPath
       id="clipPath72"
       clipPathUnits="userSpaceOnUse"><path
         id="path74"
         d="m 96,186 64,0 0,2 -64,0 0,-2 z" /></clipPath><linearGradient
       id="linearGradient80"
       spreadMethod="pad"
       gradientTransform="matrix(33,-33,-33,-33,111.5,203.5)"
       gradientUnits="userSpaceOnUse"
       y2="0"
       x2="1"
       y1="0"
       x1="0"><stop
         id="stop82"
         offset="0"
         style="stop-opacity:1;stop-color:#e6e7e8" /><stop
         id="stop84"
         offset="1"
         style="stop-opacity:1;stop-color:#d1d3d4" /></linearGradient><clipPath
       id="clipPath92"
       clipPathUnits="userSpaceOnUse"><path
         id="path94"
         d="m 26,158 c 0,-15.464 12.536,-28 28,-28 l 0,0 c 15.464,0 28,12.536 28,28 l 0,0 c 0,15.464 -12.536,28 -28,28 l 0,0 C 38.536,186 26,173.464 26,158" /></clipPath><linearGradient
       id="linearGradient100"
       spreadMethod="pad"
       gradientTransform="matrix(-39.59798,39.59798,39.59798,39.59798,73.798988,138.201)"
       gradientUnits="userSpaceOnUse"
       y2="0"
       x2="1"
       y1="0"
       x1="0"><stop
         id="stop102"
         offset="0"
         style="stop-opacity:1;stop-color:#e6e7e8" /><stop
         id="stop104"
         offset="1"
         style="stop-opacity:1;stop-color:#d1d3d4" /></linearGradient><clipPath
       id="clipPath112"
       clipPathUnits="userSpaceOnUse"><path
         id="path114"
         d="m 174,158 c 0,-15.439 12.56,-28 28,-28 l 0,0 c 15.439,0 28,12.561 28,28 l 0,0 c 0,15.439 -12.561,28 -28,28 l 0,0 c -15.44,0 -28,-12.561 -28,-28" /></clipPath><linearGradient
       id="linearGradient120"
       spreadMethod="pad"
       gradientTransform="matrix(-39.579357,39.579357,39.579357,39.579357,221.78967,138.21033)"
       gradientUnits="userSpaceOnUse"
       y2="0"
       x2="1"
       y1="0"
       x1="0"><stop
         id="stop122"
         offset="0"
         style="stop-opacity:1;stop-color:#e6e7e8" /><stop
         id="stop124"
         offset="1"
         style="stop-opacity:1;stop-color:#d1d3d4" /></linearGradient><clipPath
       id="clipPath132"
       clipPathUnits="userSpaceOnUse"><path
         id="path134"
         d="M 0,256 256,256 256,0 0,0 0,256 Z" /></clipPath><clipPath
       id="clipPath164"
       clipPathUnits="userSpaceOnUse"><path
         id="path166"
         d="m 30,158 2,-2 0,4 -2,-2 z" /></clipPath><linearGradient
       id="linearGradient172"
       spreadMethod="pad"
       gradientTransform="matrix(1.9999999,-1.9999999,-1.9999999,-1.9999999,31,159)"
       gradientUnits="userSpaceOnUse"
       y2="0"
       x2="1"
       y1="0"
       x1="0"><stop
         id="stop174"
         offset="0"
         style="stop-opacity:1;stop-color:#e6e7e8" /><stop
         id="stop176"
         offset="1"
         style="stop-opacity:1;stop-color:#d1d3d4" /></linearGradient><clipPath
       id="clipPath184"
       clipPathUnits="userSpaceOnUse"><path
         id="path186"
         d="m 76,156 2,2 -2,2 0,-4 z" /></clipPath><linearGradient
       id="linearGradient192"
       spreadMethod="pad"
       gradientTransform="matrix(1.9999999,-1.9999999,-1.9999999,-1.9999999,75,159)"
       gradientUnits="userSpaceOnUse"
       y2="0"
       x2="1"
       y1="0"
       x1="0"><stop
         id="stop194"
         offset="0"
         style="stop-opacity:1;stop-color:#e6e7e8" /><stop
         id="stop196"
         offset="1"
         style="stop-opacity:1;stop-color:#d1d3d4" /></linearGradient><clipPath
       id="clipPath204"
       clipPathUnits="userSpaceOnUse"><path
         id="path206"
         d="m 52,180 4,0 -2,2 -2,-2 z" /></clipPath><linearGradient
       id="linearGradient212"
       spreadMethod="pad"
       gradientTransform="matrix(1.9999999,-1.9999999,-1.9999999,-1.9999999,53,181)"
       gradientUnits="userSpaceOnUse"
       y2="0"
       x2="1"
       y1="0"
       x1="0"><stop
         id="stop214"
         offset="0"
         style="stop-opacity:1;stop-color:#e6e7e8" /><stop
         id="stop216"
         offset="1"
         style="stop-opacity:1;stop-color:#d1d3d4" /></linearGradient><clipPath
       id="clipPath224"
       clipPathUnits="userSpaceOnUse"><path
         id="path226"
         d="m 52,136 2,-2 2,2 -4,0 z" /></clipPath><linearGradient
       id="linearGradient232"
       spreadMethod="pad"
       gradientTransform="matrix(1.9999999,-1.9999999,-1.9999999,-1.9999999,53,137)"
       gradientUnits="userSpaceOnUse"
       y2="0"
       x2="1"
       y1="0"
       x1="0"><stop
         id="stop234"
         offset="0"
         style="stop-opacity:1;stop-color:#e6e7e8" /><stop
         id="stop236"
         offset="1"
         style="stop-opacity:1;stop-color:#d1d3d4" /></linearGradient><clipPath
       id="clipPath244"
       clipPathUnits="userSpaceOnUse"><path
         id="path246"
         d="m 71,124 c 0,-12.151 9.85,-22 22,-22 l 0,0 c 12.151,0 22,9.849 22,22 l 0,0 c 0,12.15 -9.849,22 -22,22 l 0,0 c -12.15,0 -22,-9.85 -22,-22" /></clipPath><linearGradient
       id="linearGradient252"
       spreadMethod="pad"
       gradientTransform="matrix(-31.112698,31.112698,31.112698,31.112698,108.55635,108.44365)"
       gradientUnits="userSpaceOnUse"
       y2="0"
       x2="1"
       y1="0"
       x1="0"><stop
         id="stop254"
         offset="0"
         style="stop-opacity:1;stop-color:#e6e7e8" /><stop
         id="stop256"
         offset="1"
         style="stop-opacity:1;stop-color:#d1d3d4" /></linearGradient><clipPath
       id="clipPath264"
       clipPathUnits="userSpaceOnUse"><path
         id="path266"
         d="m 77,124 c 0,-8.822 7.178,-16 16,-16 l 0,0 c 8.822,0 16,7.178 16,16 l 0,0 c 0,8.822 -7.178,16 -16,16 l 0,0 c -8.822,0 -16,-7.178 -16,-16" /></clipPath><linearGradient
       id="linearGradient272"
       spreadMethod="pad"
       gradientTransform="matrix(22.616825,-22.616825,-22.616825,-22.616825,81.691589,135.30841)"
       gradientUnits="userSpaceOnUse"
       y2="0"
       x2="1"
       y1="0"
       x1="0"><stop
         id="stop274"
         offset="0"
         style="stop-opacity:1;stop-color:#e6e7e8" /><stop
         id="stop276"
         offset="1"
         style="stop-opacity:1;stop-color:#d1d3d4" /></linearGradient><clipPath
       id="clipPath284"
       clipPathUnits="userSpaceOnUse"><path
         id="path286"
         d="M 0,256 256,256 256,0 0,0 0,256 Z" /></clipPath><clipPath
       id="clipPath296"
       clipPathUnits="userSpaceOnUse"><path
         id="path298"
         d="m 81,124 c 0,-6.627 5.373,-12 12,-12 l 0,0 c 6.627,0 12,5.373 12,12 l 0,0 c 0,6.628 -5.373,12 -12,12 l 0,0 c -6.627,0 -12,-5.372 -12,-12 m 2,0 c 0,5.514 4.485,10 10,10 l 0,0 c 5.514,0 10,-4.486 10,-10 l 0,0 c 0,-5.514 -4.486,-10 -10,-10 l 0,0 c -5.515,0 -10,4.486 -10,10" /></clipPath><linearGradient
       id="linearGradient304"
       spreadMethod="pad"
       gradientTransform="matrix(-16.970562,16.970562,16.970562,16.970562,101.48528,115.51472)"
       gradientUnits="userSpaceOnUse"
       y2="0"
       x2="1"
       y1="0"
       x1="0"><stop
         id="stop306"
         offset="0"
         style="stop-opacity:1;stop-color:#e6e7e8" /><stop
         id="stop308"
         offset="1"
         style="stop-opacity:1;stop-color:#d1d3d4" /></linearGradient><clipPath
       id="clipPath316"
       clipPathUnits="userSpaceOnUse"><path
         id="path318"
         d="m 141,124 c 0,-12.151 9.85,-22 22,-22 l 0,0 c 12.151,0 22,9.849 22,22 l 0,0 c 0,12.15 -9.849,22 -22,22 l 0,0 c -12.15,0 -22,-9.85 -22,-22" /></clipPath><linearGradient
       id="linearGradient324"
       spreadMethod="pad"
       gradientTransform="matrix(-31.112698,31.112698,31.112698,31.112698,178.55635,108.44365)"
       gradientUnits="userSpaceOnUse"
       y2="0"
       x2="1"
       y1="0"
       x1="0"><stop
         id="stop326"
         offset="0"
         style="stop-opacity:1;stop-color:#e6e7e8" /><stop
         id="stop328"
         offset="1"
         style="stop-opacity:1;stop-color:#d1d3d4" /></linearGradient><clipPath
       id="clipPath336"
       clipPathUnits="userSpaceOnUse"><path
         id="path338"
         d="m 147,124 c 0,-8.822 7.178,-16 16,-16 l 0,0 c 8.823,0 16,7.178 16,16 l 0,0 c 0,8.822 -7.177,16 -16,16 l 0,0 c -8.822,0 -16,-7.178 -16,-16" /></clipPath><linearGradient
       id="linearGradient344"
       spreadMethod="pad"
       gradientTransform="matrix(22.616825,-22.616825,-22.616825,-22.616825,151.69159,135.30841)"
       gradientUnits="userSpaceOnUse"
       y2="0"
       x2="1"
       y1="0"
       x1="0"><stop
         id="stop346"
         offset="0"
         style="stop-opacity:1;stop-color:#e6e7e8" /><stop
         id="stop348"
         offset="1"
         style="stop-opacity:1;stop-color:#d1d3d4" /></linearGradient><clipPath
       id="clipPath356"
       clipPathUnits="userSpaceOnUse"><path
         id="path358"
         d="M 0,256 256,256 256,0 0,0 0,256 Z" /></clipPath><clipPath
       id="clipPath368"
       clipPathUnits="userSpaceOnUse"><path
         id="path370"
         d="m 151,124 c 0,-6.627 5.373,-12 12,-12 l 0,0 c 6.627,0 12,5.373 12,12 l 0,0 c 0,6.628 -5.373,12 -12,12 l 0,0 c -6.627,0 -12,-5.372 -12,-12 m 2,0 c 0,5.514 4.486,10 10,10 l 0,0 c 5.513,0 10,-4.486 10,-10 l 0,0 c 0,-5.514 -4.487,-10 -10,-10 l 0,0 c -5.514,0 -10,4.486 -10,10" /></clipPath><linearGradient
       id="linearGradient376"
       spreadMethod="pad"
       gradientTransform="matrix(-16.970562,16.970562,16.970562,16.970562,171.48528,115.51472)"
       gradientUnits="userSpaceOnUse"
       y2="0"
       x2="1"
       y1="0"
       x1="0"><stop
         id="stop378"
         offset="0"
         style="stop-opacity:1;stop-color:#e6e7e8" /><stop
         id="stop380"
         offset="1"
         style="stop-opacity:1;stop-color:#d1d3d4" /></linearGradient><clipPath
       id="clipPath388"
       clipPathUnits="userSpaceOnUse"><path
         id="path390"
         d="M 0,256 256,256 256,0 0,0 0,256 Z" /></clipPath><clipPath
       id="clipPath448"
       clipPathUnits="userSpaceOnUse"><path
         id="path450"
         d="m 118,110 c -1.104,0 -2,-0.896 -2,-2 l 0,0 24,0 c 0,1.104 -0.895,2 -2,2 l 0,0 -20,0 z" /></clipPath><linearGradient
       id="linearGradient456"
       spreadMethod="pad"
       gradientTransform="matrix(-12.414214,12.414214,12.414214,12.414214,134.20711,102.20711)"
       gradientUnits="userSpaceOnUse"
       y2="0"
       x2="1"
       y1="0"
       x1="0"><stop
         id="stop458"
         offset="0"
         style="stop-opacity:1;stop-color:#e6e7e8" /><stop
         id="stop460"
         offset="1"
         style="stop-opacity:1;stop-color:#d1d3d4" /></linearGradient><clipPath
       id="clipPath468"
       clipPathUnits="userSpaceOnUse"><path
         id="path470"
         d="M 0,256 256,256 256,0 0,0 0,256 Z" /></clipPath></defs><g
     transform="matrix(1.25,0,0,-1.25,0,320)"
     id="g10"><g
       id="g12"><g
         clip-path="url(#clipPath16)"
         id="g14"><g
           transform="translate(44,192)"
           id="g20"><path
             id="path22"
             style="fill:#999999;fill-opacity:1;fill-rule:nonzero;stroke:none"
             d="M 0,0 -1.124,2.248 C -1.63,3.259 -1.205,4.49 -0.175,4.958 2.43,6.142 7.821,8 16,8 28,8 28,4 28,4 L 28,0 0,0 Z" /></g><g
           transform="translate(212,192)"
           id="g24"><path
             id="path26"
             style="fill:#999999;fill-opacity:1;fill-rule:nonzero;stroke:none"
             d="M 0,0 1.124,2.248 C 1.63,3.259 1.205,4.49 0.175,4.958 -2.43,6.142 -7.821,8 -16,8 -28,8 -28,4 -28,4 l 0,-4 28,0 z" /></g></g></g><g
       id="g28"><g
         clip-path="url(#clipPath32)"
         id="g30"><g
           id="g36"><g
             id="g38"><path
               id="path46"
               style="fill:url(#linearGradient40);stroke:none"
               d="m 192.278,196.116 c -2.753,-0.074 -5.101,-0.148 -6.586,-0.129 l 0,0 c -1.078,0.013 -2.114,-0.408 -2.877,-1.171 l 0,0 -1.643,-1.645 C 180.422,192.422 179.404,192 178.343,192 l 0,0 -100.686,0 c -1.061,0 -2.079,0.422 -2.828,1.171 l 0,0 -1.645,1.645 c -0.763,0.763 -1.798,1.184 -2.877,1.171 l 0,0 c -1.485,-0.019 -3.832,0.055 -6.586,0.129 l 0,0 C 55.126,196.347 42.577,196.578 40,194 l 0,0 c 0,0 -12,-14 -20,-50 l 0,0 C 12,108 12,88 12,88 l 0,0 c 0,0 0,-32 20,-32 l 0,0 c 19.829,0 27.863,15.728 39.694,47.185 l 0,0 c 0.2,0.532 0.514,1.023 0.916,1.426 l 0,0 2.219,2.217 c 0.749,0.75 1.767,1.172 2.828,1.172 l 0,0 50.343,0 50.343,0 c 1.061,0 2.079,-0.422 2.829,-1.172 l 0,0 2.217,-2.217 c 0.403,-0.403 0.718,-0.894 0.918,-1.426 l 0,0 C 196.138,71.728 204.171,56 224,56 l 0,0 c 20,0 20,32 20,32 l 0,0 c 0,0 0,20 -8,56 l 0,0 c -8,36 -20,50 -20,50 l 0,0 c -1.84,1.839 -8.752,2.248 -15.684,2.248 l 0,0 c -2.785,0 -5.574,-0.066 -8.038,-0.132" /></g></g></g></g><g
       id="g48"><g
         clip-path="url(#clipPath52)"
         id="g50"><g
           id="g56"><g
             id="g58"><path
               id="path66"
               style="fill:url(#linearGradient60);stroke:none"
               d="m 92,192 c -2.209,0 -4,-1.791 -4,-4 l 0,0 0,-32 c 0,-4.418 3.581,-8 8,-8 l 0,0 64,0 c 4.418,0 8,3.582 8,8 l 0,0 0,32 c 0,2.209 -1.791,4 -4,4 l 0,0 -72,0 z" /></g></g></g></g><g
       id="g68"><g
         clip-path="url(#clipPath72)"
         id="g70"><g
           id="g76"><g
             id="g78"><path
               id="path86"
               style="fill:url(#linearGradient80);stroke:none"
               d="m 96,186 64,0 0,2 -64,0 0,-2 z" /></g></g></g></g><g
       id="g88"><g
         clip-path="url(#clipPath92)"
         id="g90"><g
           id="g96"><g
             id="g98"><path
               id="path106"
               style="fill:url(#linearGradient100);stroke:none"
               d="m 26,158 c 0,-15.464 12.536,-28 28,-28 l 0,0 c 15.464,0 28,12.536 28,28 l 0,0 c 0,15.464 -12.536,28 -28,28 l 0,0 C 38.536,186 26,173.464 26,158" /></g></g></g></g><g
       id="g108"><g
         clip-path="url(#clipPath112)"
         id="g110"><g
           id="g116"><g
             id="g118"><path
               id="path126"
               style="fill:url(#linearGradient120);stroke:none"
               d="m 174,158 c 0,-15.439 12.56,-28 28,-28 l 0,0 c 15.439,0 28,12.561 28,28 l 0,0 c 0,15.439 -12.561,28 -28,28 l 0,0 c -15.44,0 -28,-12.561 -28,-28" /></g></g></g></g><g
       id="g128"><g
         clip-path="url(#clipPath132)"
         id="g130"><g
           transform="translate(80,176)"
           id="g136"><path
             id="path138"
             style="fill:#999999;fill-opacity:1;fill-rule:nonzero;stroke:none"
             d="m 0,0 0,0 c -2.209,0 -4,1.791 -4,4 l 0,4 c 0,2.209 1.791,4 4,4 2.209,0 4,-1.791 4,-4 L 4,4 C 4,1.791 2.209,0 0,0" /></g><g
           transform="translate(176,176)"
           id="g140"><path
             id="path142"
             style="fill:#999999;fill-opacity:1;fill-rule:nonzero;stroke:none"
             d="m 0,0 0,0 c -2.209,0 -4,1.791 -4,4 l 0,4 c 0,2.209 1.791,4 4,4 2.209,0 4,-1.791 4,-4 L 4,4 C 4,1.791 2.209,0 0,0" /></g><g
           transform="translate(45.1313,164)"
           id="g144"><path
             id="path146"
             style="fill:#999999;fill-opacity:1;fill-rule:nonzero;stroke:none"
             d="m 0,0 -8.93,0 c -1.104,0 -2,-0.896 -2,-2 l 0,-8 c 0,-1.104 0.896,-2 2,-2 L 0,-12 c 0.669,0 1.293,0.334 1.664,0.891 l 2.667,4 c 0.448,0.672 0.448,1.547 0,2.218 l -2.667,4 C 1.293,-0.334 0.669,0 0,0" /></g><g
           transform="translate(62.8687,164)"
           id="g148"><path
             id="path150"
             style="fill:#999999;fill-opacity:1;fill-rule:nonzero;stroke:none"
             d="m 0,0 8.93,0 c 1.104,0 2,-0.896 2,-2 l 0,-8 c 0,-1.104 -0.896,-2 -2,-2 L 0,-12 c -0.669,0 -1.293,0.334 -1.664,0.891 l -2.667,4 c -0.448,0.672 -0.448,1.547 0,2.218 l 2.667,4 C -1.293,-0.334 -0.669,0 0,0" /></g><g
           transform="translate(60.2017,166.8687)"
           id="g152"><path
             id="path154"
             style="fill:#999999;fill-opacity:1;fill-rule:nonzero;stroke:none"
             d="m 0,0 0,8.93 c 0,1.104 -0.895,2 -2,2 l -8,0 c -1.104,0 -2,-0.896 -2,-2 L -12,0 c 0,-0.669 0.334,-1.293 0.891,-1.664 l 4,-2.667 c 0.672,-0.448 1.547,-0.448 2.218,0 l 4,2.667 C -0.334,-1.293 0,-0.669 0,0" /></g><g
           transform="translate(60.2017,149.1313)"
           id="g156"><path
             id="path158"
             style="fill:#999999;fill-opacity:1;fill-rule:nonzero;stroke:none"
             d="m 0,0 0,-8.93 c 0,-1.104 -0.895,-2 -2,-2 l -8,0 c -1.104,0 -2,0.896 -2,2 L -12,0 c 0,0.669 0.334,1.293 0.891,1.664 l 4,2.667 c 0.672,0.448 1.547,0.448 2.218,0 l 4,-2.667 C -0.334,1.293 0,0.669 0,0" /></g></g></g><g
       id="g160"><g
         clip-path="url(#clipPath164)"
         id="g162"><g
           id="g168"><g
             id="g170"><path
               id="path178"
               style="fill:url(#linearGradient172);stroke:none"
               d="m 30,158 2,-2 0,4 -2,-2 z" /></g></g></g></g><g
       id="g180"><g
         clip-path="url(#clipPath184)"
         id="g182"><g
           id="g188"><g
             id="g190"><path
               id="path198"
               style="fill:url(#linearGradient192);stroke:none"
               d="m 76,156 2,2 -2,2 0,-4 z" /></g></g></g></g><g
       id="g200"><g
         clip-path="url(#clipPath204)"
         id="g202"><g
           id="g208"><g
             id="g210"><path
               id="path218"
               style="fill:url(#linearGradient212);stroke:none"
               d="m 52,180 4,0 -2,2 -2,-2 z" /></g></g></g></g><g
       id="g220"><g
         clip-path="url(#clipPath224)"
         id="g222"><g
           id="g228"><g
             id="g230"><path
               id="path238"
               style="fill:url(#linearGradient232);stroke:none"
               d="m 52,136 2,-2 2,2 -4,0 z" /></g></g></g></g><g
       id="g240"><g
         clip-path="url(#clipPath244)"
         id="g242"><g
           id="g248"><g
             id="g250"><path
               id="path258"
               style="fill:url(#linearGradient252);stroke:none"
               d="m 71,124 c 0,-12.151 9.85,-22 22,-22 l 0,0 c 12.151,0 22,9.849 22,22 l 0,0 c 0,12.15 -9.849,22 -22,22 l 0,0 c -12.15,0 -22,-9.85 -22,-22" /></g></g></g></g><g
       id="g260"><g
         clip-path="url(#clipPath264)"
         id="g262"><g
           id="g268"><g
             id="g270"><path
               id="path278"
               style="fill:url(#linearGradient272);stroke:none"
               d="m 77,124 c 0,-8.822 7.178,-16 16,-16 l 0,0 c 8.822,0 16,7.178 16,16 l 0,0 c 0,8.822 -7.178,16 -16,16 l 0,0 c -8.822,0 -16,-7.178 -16,-16" /></g></g></g></g><g
       id="g280"><g
         clip-path="url(#clipPath284)"
         id="g282"><g
           transform="translate(107,124)"
           id="g288"><path
             id="path290"
             style="fill:#999999;fill-opacity:1;fill-rule:nonzero;stroke:none"
             d="m 0,0 c 0,-7.732 -6.268,-14 -14,-14 -7.732,0 -14,6.268 -14,14 0,7.732 6.268,14 14,14 C -6.268,14 0,7.732 0,0" /></g></g></g><g
       id="g292"><g
         clip-path="url(#clipPath296)"
         id="g294"><g
           id="g300"><g
             id="g302"><path
               id="path310"
               style="fill:url(#linearGradient304);stroke:none"
               d="m 81,124 c 0,-6.627 5.373,-12 12,-12 l 0,0 c 6.627,0 12,5.373 12,12 l 0,0 c 0,6.628 -5.373,12 -12,12 l 0,0 c -6.627,0 -12,-5.372 -12,-12 m 2,0 c 0,5.514 4.485,10 10,10 l 0,0 c 5.514,0 10,-4.486 10,-10 l 0,0 c 0,-5.514 -4.486,-10 -10,-10 l 0,0 c -5.515,0 -10,4.486 -10,10" /></g></g></g></g><g
       id="g312"><g
         clip-path="url(#clipPath316)"
         id="g314"><g
           id="g320"><g
             id="g322"><path
               id="path330"
               style="fill:url(#linearGradient324);stroke:none"
               d="m 141,124 c 0,-12.151 9.85,-22 22,-22 l 0,0 c 12.151,0 22,9.849 22,22 l 0,0 c 0,12.15 -9.849,22 -22,22 l 0,0 c -12.15,0 -22,-9.85 -22,-22" /></g></g></g></g><g
       id="g332"><g
         clip-path="url(#clipPath336)"
         id="g334"><g
           id="g340"><g
             id="g342"><path
               id="path350"
               style="fill:url(#linearGradient344);stroke:none"
               d="m 147,124 c 0,-8.822 7.178,-16 16,-16 l 0,0 c 8.823,0 16,7.178 16,16 l 0,0 c 0,8.822 -7.177,16 -16,16 l 0,0 c -8.822,0 -16,-7.178 -16,-16" /></g></g></g></g><g
       id="g352"><g
         clip-path="url(#clipPath356)"
         id="g354"><g
           transform="translate(177,124)"
           id="g360"><path
             id="path362"
             style="fill:#999999;fill-opacity:1;fill-rule:nonzero;stroke:none"
             d="m 0,0 c 0,-7.732 -6.268,-14 -14,-14 -7.732,0 -14,6.268 -14,14 0,7.732 6.268,14 14,14 C -6.268,14 0,7.732 0,0" /></g></g></g><g
       id="g364"><g
         clip-path="url(#clipPath368)"
         id="g366"><g
           id="g372"><g
             id="g374"><path
               id="path382"
               style="fill:url(#linearGradient376);stroke:none"
               d="m 151,124 c 0,-6.627 5.373,-12 12,-12 l 0,0 c 6.627,0 12,5.373 12,12 l 0,0 c 0,6.628 -5.373,12 -12,12 l 0,0 c -6.627,0 -12,-5.372 -12,-12 m 2,0 c 0,5.514 4.486,10 10,10 l 0,0 c 5.513,0 10,-4.486 10,-10 l 0,0 c 0,-5.514 -4.487,-10 -10,-10 l 0,0 c -5.514,0 -10,4.486 -10,10" /></g></g></g></g><g
       id="g384"><g
         clip-path="url(#clipPath388)"
         id="g386"><g
           transform="translate(135,124)"
           id="g392"><path
             id="path394"
             style="fill:#999999;fill-opacity:1;fill-rule:nonzero;stroke:none"
             d="m 0,0 c 0,-3.866 -3.134,-7 -7,-7 -3.866,0 -7,3.134 -7,7 0,3.866 3.134,7 7,7 3.866,0 7,-3.134 7,-7" /></g><g
           transform="translate(119,143)"
           id="g396"><path
             id="path398"
             style="fill:#999999;fill-opacity:1;fill-rule:nonzero;stroke:none"
             d="M 0,0 C 0,-0.552 0.448,-1 1,-1 1.552,-1 2,-0.552 2,0 2,0.552 1.552,1 1,1 0.448,1 0,0.552 0,0" /></g><g
           transform="translate(123,143)"
           id="g400"><path
             id="path402"
             style="fill:#999999;fill-opacity:1;fill-rule:nonzero;stroke:none"
             d="M 0,0 C 0,-0.552 0.448,-1 1,-1 1.552,-1 2,-0.552 2,0 2,0.552 1.552,1 1,1 0.448,1 0,0.552 0,0" /></g><g
           transform="translate(127,143)"
           id="g404"><path
             id="path406"
             style="fill:#999999;fill-opacity:1;fill-rule:nonzero;stroke:none"
             d="M 0,0 C 0,-0.552 0.448,-1 1,-1 1.552,-1 2,-0.552 2,0 2,0.552 1.552,1 1,1 0.448,1 0,0.552 0,0" /></g><g
           transform="translate(131,143)"
           id="g408"><path
             id="path410"
             style="fill:#999999;fill-opacity:1;fill-rule:nonzero;stroke:none"
             d="M 0,0 C 0,-0.552 0.447,-1 1,-1 1.553,-1 2,-0.552 2,0 2,0.552 1.553,1 1,1 0.447,1 0,0.552 0,0" /></g><g
           transform="translate(135,143)"
           id="g412"><path
             id="path414"
             style="fill:#999999;fill-opacity:1;fill-rule:nonzero;stroke:none"
             d="M 0,0 C 0,-0.552 0.447,-1 1,-1 1.553,-1 2,-0.552 2,0 2,0.552 1.553,1 1,1 0.447,1 0,0.552 0,0" /></g><g
           transform="translate(121,140)"
           id="g416"><path
             id="path418"
             style="fill:#999999;fill-opacity:1;fill-rule:nonzero;stroke:none"
             d="M 0,0 C 0,-0.552 0.448,-1 1,-1 1.552,-1 2,-0.552 2,0 2,0.552 1.552,1 1,1 0.448,1 0,0.552 0,0" /></g><g
           transform="translate(125,140)"
           id="g420"><path
             id="path422"
             style="fill:#999999;fill-opacity:1;fill-rule:nonzero;stroke:none"
             d="M 0,0 C 0,-0.552 0.448,-1 1,-1 1.552,-1 2,-0.552 2,0 2,0.552 1.552,1 1,1 0.448,1 0,0.552 0,0" /></g><g
           transform="translate(129,140)"
           id="g424"><path
             id="path426"
             style="fill:#999999;fill-opacity:1;fill-rule:nonzero;stroke:none"
             d="M 0,0 C 0,-0.552 0.447,-1 1,-1 1.553,-1 2,-0.552 2,0 2,0.552 1.553,1 1,1 0.447,1 0,0.552 0,0" /></g><g
           transform="translate(133,140)"
           id="g428"><path
             id="path430"
             style="fill:#999999;fill-opacity:1;fill-rule:nonzero;stroke:none"
             d="M 0,0 C 0,-0.552 0.447,-1 1,-1 1.553,-1 2,-0.552 2,0 2,0.552 1.553,1 1,1 0.447,1 0,0.552 0,0" /></g><g
           transform="translate(123,137)"
           id="g432"><path
             id="path434"
             style="fill:#999999;fill-opacity:1;fill-rule:nonzero;stroke:none"
             d="M 0,0 C 0,-0.552 0.448,-1 1,-1 1.552,-1 2,-0.552 2,0 2,0.552 1.552,1 1,1 0.448,1 0,0.552 0,0" /></g><g
           transform="translate(127,137)"
           id="g436"><path
             id="path438"
             style="fill:#999999;fill-opacity:1;fill-rule:nonzero;stroke:none"
             d="M 0,0 C 0,-0.552 0.448,-1 1,-1 1.552,-1 2,-0.552 2,0 2,0.552 1.552,1 1,1 0.448,1 0,0.552 0,0" /></g><g
           transform="translate(131,137)"
           id="g440"><path
             id="path442"
             style="fill:#999999;fill-opacity:1;fill-rule:nonzero;stroke:none"
             d="M 0,0 C 0,-0.552 0.447,-1 1,-1 1.553,-1 2,-0.552 2,0 2,0.552 1.553,1 1,1 0.447,1 0,0.552 0,0" /></g></g></g><g
       id="g444"><g
         clip-path="url(#clipPath448)"
         id="g446"><g
           id="g452"><g
             id="g454"><path
               id="path462"
               style="fill:url(#linearGradient456);stroke:none"
               d="m 118,110 c -1.104,0 -2,-0.896 -2,-2 l 0,0 24,0 c 0,1.104 -0.895,2 -2,2 l 0,0 -20,0 z" /></g></g></g></g><g
       id="g464"><g
         clip-path="url(#clipPath468)"
         id="g466"><g
           transform="translate(194,159)"
           id="g472"><path
             id="path474"
             style="fill:#999999;fill-opacity:1;fill-rule:nonzero;stroke:none"
             d="m 0,0 c 0,-4.418 -3.582,-8 -8,-8 -4.418,0 -8,3.582 -8,8 0,4.418 3.582,8 8,8 4.418,0 8,-3.582 8,-8" /></g><g
           transform="translate(226,159)"
           id="g476"><path
             id="path478"
             style="fill:#999999;fill-opacity:1;fill-rule:nonzero;stroke:none"
             d="m 0,0 c 0,-4.418 -3.582,-8 -8,-8 -4.418,0 -8,3.582 -8,8 0,4.418 3.582,8 8,8 4.418,0 8,-3.582 8,-8" /></g><g
           transform="translate(202,166)"
           id="g480"><path
             id="path482"
             style="fill:#999999;fill-opacity:1;fill-rule:nonzero;stroke:none"
             d="m 0,0 c -4.418,0 -8,3.582 -8,8 0,4.418 3.582,8 8,8 C 4.418,16 8,12.418 8,8 8,3.582 4.418,0 0,0" /></g><g
           transform="translate(202,134)"
           id="g484"><path
             id="path486"
             style="fill:#999999;fill-opacity:1;fill-rule:nonzero;stroke:none"
             d="m 0,0 c -4.418,0 -8,3.582 -8,8 0,4.418 3.582,8 8,8 C 4.418,16 8,12.418 8,8 8,3.582 4.418,0 0,0" /></g></g></g></g></svg>