<?xml version="1.0" encoding="UTF-8" standalone="no"?>
<svg
   xmlns:dc="http://purl.org/dc/elements/1.1/"
   xmlns:cc="http://creativecommons.org/ns#"
   xmlns:rdf="http://www.w3.org/1999/02/22-rdf-syntax-ns#"
   xmlns:svg="http://www.w3.org/2000/svg"
   xmlns="http://www.w3.org/2000/svg"
   viewBox="0 0 320 320"
   height="320"
   width="320"
   xml:space="preserve"
   version="1.1"
   id="svg2"><metadata
     id="metadata8"><rdf:RDF><cc:Work
         rdf:about=""><dc:format>image/svg+xml</dc:format><dc:type
           rdf:resource="http://purl.org/dc/dcmitype/StillImage" /></cc:Work></rdf:RDF></metadata><defs
     id="defs6"><clipPath
       id="clipPath16"
       clipPathUnits="userSpaceOnUse"><path
         id="path18"
         d="M 0,256 256,256 256,0 0,0 0,256 Z" /></clipPath><clipPath
       id="clipPath32"
       clipPathUnits="userSpaceOnUse"><path
         id="path34"
         d="m 180.635,192.116 c -0.847,-0.444 -1.487,-1.206 -1.827,-2.101 l 0,0 -4.075,-10.783 C 173.998,177.287 172.136,176 170.057,176 l 0,0 -36.066,0 c -0.464,0 -0.915,-0.16 -1.268,-0.461 l 0,0 C 131.625,174.603 129.919,174 128,174 l 0,0 c -1.92,0 -3.625,0.603 -4.723,1.539 l 0,0 c -0.354,0.301 -0.803,0.461 -1.269,0.461 l 0,0 -36.755,0 c -1.664,0 -3.154,1.03 -3.743,2.586 l 0,0 -4.319,11.429 c -0.338,0.895 -0.979,1.657 -1.827,2.101 l 0,0 c -10.524,5.517 -20.654,4.816 -30.535,0.04 l 0,0 c -0.939,-0.452 -1.679,-1.235 -2.047,-2.21 l 0,0 -6.01,-15.903 C 27.795,167.086 22,156.21 22,144 l 0,0 c 0,-0.871 0.04,-1.732 0.098,-2.589 l 0,0 C 18.715,122.547 12,84.991 12,84 l 0,0 C 12,70.745 22.745,60 36,60 l 0,0 c 10.07,0 16,8 22.248,14.996 l 0,0 L 80,104 l 48,0 48,0 21.753,-29.004 C 204,68 209.93,60 220,60 l 0,0 c 13.255,0 24,10.745 24,24 l 0,0 c 0,0.991 -6.715,38.547 -10.098,57.411 l 0,0 C 233.96,142.268 234,143.129 234,144 l 0,0 c 0,12.21 -5.795,23.086 -14.773,30.043 l 0,0 -6.009,15.903 c -0.37,0.975 -1.109,1.758 -2.047,2.21 l 0,0 C 206.072,194.62 200.908,196 195.656,196 l 0,0 c -4.925,0 -9.927,-1.214 -15.021,-3.884" /></clipPath><linearGradient
       id="linearGradient40"
       spreadMethod="pad"
       gradientTransform="matrix(158.7999,-158.7999,-158.7999,-158.7999,48.600056,196.25873)"
       gradientUnits="userSpaceOnUse"
       y2="0"
       x2="1"
       y1="0"
       x1="0"><stop
         id="stop42"
         offset="0"
         style="stop-opacity:1;stop-color:#e6e7e8" /><stop
         id="stop44"
         offset="1"
         style="stop-opacity:1;stop-color:#d1d3d4" /></linearGradient><clipPath
       id="clipPath52"
       clipPathUnits="userSpaceOnUse"><path
         id="path54"
         d="m 160,144 c 0,-4.24 0.738,-8.306 2.085,-12.083 l 0,0 C 149.727,130.94 140,120.609 140,108 l 0,0 c 0,-13.255 10.745,-24 24,-24 l 0,0 c 13.255,0 24,10.745 24,24 l 0,0 c 0,0.305 -0.012,0.607 -0.023,0.908 l 0,0 C 190.559,108.321 193.241,108 196,108 l 0,0 c 19.882,0 36,16.118 36,36 l 0,0 c 0,19.882 -16.118,36 -36,36 l 0,0 c -19.882,0 -36,-16.118 -36,-36" /></clipPath><linearGradient
       id="linearGradient60"
       spreadMethod="pad"
       gradientTransform="matrix(-50.911697,50.911697,50.911697,50.911697,208.69849,105.7868)"
       gradientUnits="userSpaceOnUse"
       y2="0"
       x2="1"
       y1="0"
       x1="0"><stop
         id="stop62"
         offset="0"
         style="stop-opacity:1;stop-color:#e6e7e8" /><stop
         id="stop64"
         offset="1"
         style="stop-opacity:1;stop-color:#d1d3d4" /></linearGradient><clipPath
       id="clipPath72"
       clipPathUnits="userSpaceOnUse"><path
         id="path74"
         d="m 24,144 c 0,-19.882 16.118,-36 36,-36 l 0,0 c 2.76,0 5.442,0.32 8.023,0.908 l 0,0 C 68.012,108.607 68,108.305 68,108 l 0,0 C 68,94.745 78.745,84 92,84 l 0,0 c 13.255,0 24,10.745 24,24 l 0,0 c 0,12.609 -9.726,22.94 -22.084,23.917 l 0,0 C 95.261,135.694 96,139.76 96,144 l 0,0 c 0,19.882 -16.118,36 -36,36 l 0,0 C 40.118,180 24,163.882 24,144" /></clipPath><linearGradient
       id="linearGradient80"
       spreadMethod="pad"
       gradientTransform="matrix(-76.426407,76.426407,76.426407,76.426407,110.97056,93.029442)"
       gradientUnits="userSpaceOnUse"
       y2="0"
       x2="1"
       y1="0"
       x1="0"><stop
         id="stop82"
         offset="0"
         style="stop-opacity:1;stop-color:#e6e7e8" /><stop
         id="stop84"
         offset="1"
         style="stop-opacity:1;stop-color:#d1d3d4" /></linearGradient><clipPath
       id="clipPath92"
       clipPathUnits="userSpaceOnUse"><path
         id="path94"
         d="M 0,256 256,256 256,0 0,0 0,256 Z" /></clipPath><clipPath
       id="clipPath112"
       clipPathUnits="userSpaceOnUse"><path
         id="path114"
         d="m 124,112 8,0 0,4.001 -8,0 0,-4.001 z" /></clipPath><linearGradient
       id="linearGradient120"
       spreadMethod="pad"
       gradientTransform="matrix(-5.9999995,5.9999995,5.9999995,5.9999995,131,111)"
       gradientUnits="userSpaceOnUse"
       y2="0"
       x2="1"
       y1="0"
       x1="0"><stop
         id="stop122"
         offset="0"
         style="stop-opacity:1;stop-color:#e6e7e8" /><stop
         id="stop124"
         offset="1"
         style="stop-opacity:1;stop-color:#d1d3d4" /></linearGradient><clipPath
       id="clipPath132"
       clipPathUnits="userSpaceOnUse"><path
         id="path134"
         d="M 0,256 256,256 256,0 0,0 0,256 Z" /></clipPath><clipPath
       id="clipPath164"
       clipPathUnits="userSpaceOnUse"><path
         id="path166"
         d="m 187,173 c -1.102,0 -2,-0.897 -2,-2 l 0,0 0,-16 -16,0 c -1.102,0 -2,-0.897 -2,-2 l 0,0 0,-18 c 0,-1.103 0.898,-2 2,-2 l 0,0 16,0 0,-16 c 0,-1.102 0.898,-2 2,-2 l 0,0 18,0 c 1.103,0 2,0.898 2,2 l 0,0 0,16 16,0 c 1.103,0 2,0.897 2,2 l 0,0 0,18 c 0,1.103 -0.897,2 -2,2 l 0,0 -16,0 0,16 c 0,1.103 -0.897,2 -2,2 l 0,0 -18,0 z m -19,-38 0,18 c 0,0.553 0.448,1 1,1 l 0,0 16,0 c 0.553,0 1,0.448 1,1 l 0,0 0,16 c 0,0.553 0.448,1 1,1 l 0,0 18,0 c 0.553,0 1,-0.447 1,-1 l 0,0 0,-16 c 0,-0.552 0.447,-1 1,-1 l 0,0 16,0 c 0.553,0 1,-0.447 1,-1 l 0,0 0,-18 c 0,-0.553 -0.447,-1 -1,-1 l 0,0 -16,0 c -0.553,0 -1,-0.448 -1,-1 l 0,0 0,-16 c 0,-0.553 -0.447,-1 -1,-1 l 0,0 -18,0 c -0.552,0 -1,0.447 -1,1 l 0,0 0,16 c 0,0.552 -0.447,1 -1,1 l 0,0 -16,0 c -0.552,0 -1,0.447 -1,1" /></clipPath><linearGradient
       id="linearGradient172"
       spreadMethod="pad"
       gradientTransform="matrix(38.827099,-38.827099,-38.827099,-38.827099,176.58646,163.41354)"
       gradientUnits="userSpaceOnUse"
       y2="0"
       x2="1"
       y1="0"
       x1="0"><stop
         id="stop174"
         offset="0"
         style="stop-opacity:1;stop-color:#e6e7e8" /><stop
         id="stop176"
         offset="1"
         style="stop-opacity:1;stop-color:#d1d3d4" /></linearGradient><clipPath
       id="clipPath184"
       clipPathUnits="userSpaceOnUse"><path
         id="path186"
         d="m 51,173 c -1.103,0 -2,-0.897 -2,-2 l 0,0 0,-16 -16,0 c -1.103,0 -2,-0.897 -2,-2 l 0,0 0,-18 c 0,-1.103 0.897,-2 2,-2 l 0,0 16,0 0,-16 c 0,-1.102 0.897,-2 2,-2 l 0,0 18,0 c 1.103,0 2,0.898 2,2 l 0,0 0,16 16,0 c 1.103,0 2,0.897 2,2 l 0,0 0,18 c 0,1.103 -0.897,2 -2,2 l 0,0 -16,0 0,16 c 0,1.103 -0.897,2 -2,2 l 0,0 -18,0 z m -19,-38 0,18 c 0,0.553 0.448,1 1,1 l 0,0 16,0 c 0.552,0 1,0.448 1,1 l 0,0 0,16 c 0,0.553 0.448,1 1,1 l 0,0 18,0 c 0.552,0 1,-0.447 1,-1 l 0,0 0,-16 c 0,-0.552 0.447,-1 1,-1 l 0,0 16,0 c 0.552,0 1,-0.447 1,-1 l 0,0 0,-18 c 0,-0.553 -0.448,-1 -1,-1 l 0,0 -16,0 c -0.553,0 -1,-0.448 -1,-1 l 0,0 0,-16 c 0,-0.553 -0.448,-1 -1,-1 l 0,0 -18,0 c -0.552,0 -1,0.447 -1,1 l 0,0 0,16 c 0,0.552 -0.448,1 -1,1 l 0,0 -16,0 c -0.552,0 -1,0.447 -1,1" /></clipPath><linearGradient
       id="linearGradient192"
       spreadMethod="pad"
       gradientTransform="matrix(38.827099,-38.827099,-38.827099,-38.827099,40.586449,163.41354)"
       gradientUnits="userSpaceOnUse"
       y2="0"
       x2="1"
       y1="0"
       x1="0"><stop
         id="stop194"
         offset="0"
         style="stop-opacity:1;stop-color:#e6e7e8" /><stop
         id="stop196"
         offset="1"
         style="stop-opacity:1;stop-color:#d1d3d4" /></linearGradient><clipPath
       id="clipPath204"
       clipPathUnits="userSpaceOnUse"><path
         id="path206"
         d="M 82.75,140.75 86,144 l -3.25,3.25 0,-6.5 z" /></clipPath><linearGradient
       id="linearGradient212"
       spreadMethod="pad"
       gradientTransform="matrix(3.25,-3.25,-3.25,-3.25,81.125,145.625)"
       gradientUnits="userSpaceOnUse"
       y2="0"
       x2="1"
       y1="0"
       x1="0"><stop
         id="stop214"
         offset="0"
         style="stop-opacity:1;stop-color:#e6e7e8" /><stop
         id="stop216"
         offset="1"
         style="stop-opacity:1;stop-color:#d1d3d4" /></linearGradient><clipPath
       id="clipPath224"
       clipPathUnits="userSpaceOnUse"><path
         id="path226"
         d="m 34,144 3.25,-3.25 0,6.5 L 34,144 Z" /></clipPath><linearGradient
       id="linearGradient232"
       spreadMethod="pad"
       gradientTransform="matrix(3.25,-3.25,-3.25,-3.25,35.625,145.625)"
       gradientUnits="userSpaceOnUse"
       y2="0"
       x2="1"
       y1="0"
       x1="0"><stop
         id="stop234"
         offset="0"
         style="stop-opacity:1;stop-color:#e6e7e8" /><stop
         id="stop236"
         offset="1"
         style="stop-opacity:1;stop-color:#d1d3d4" /></linearGradient><clipPath
       id="clipPath244"
       clipPathUnits="userSpaceOnUse"><path
         id="path246"
         d="M 56.75,121.25 60,118 l 3.25,3.25 -6.5,0 z" /></clipPath><linearGradient
       id="linearGradient252"
       spreadMethod="pad"
       gradientTransform="matrix(3.25,-3.25,-3.25,-3.25,58.375,122.875)"
       gradientUnits="userSpaceOnUse"
       y2="0"
       x2="1"
       y1="0"
       x1="0"><stop
         id="stop254"
         offset="0"
         style="stop-opacity:1;stop-color:#e6e7e8" /><stop
         id="stop256"
         offset="1"
         style="stop-opacity:1;stop-color:#d1d3d4" /></linearGradient><clipPath
       id="clipPath264"
       clipPathUnits="userSpaceOnUse"><path
         id="path266"
         d="m 56.75,166.75 6.5,0 L 60,170 56.75,166.75 Z" /></clipPath><linearGradient
       id="linearGradient272"
       spreadMethod="pad"
       gradientTransform="matrix(3.25,-3.25,-3.25,-3.25,58.375,168.375)"
       gradientUnits="userSpaceOnUse"
       y2="0"
       x2="1"
       y1="0"
       x1="0"><stop
         id="stop274"
         offset="0"
         style="stop-opacity:1;stop-color:#e6e7e8" /><stop
         id="stop276"
         offset="1"
         style="stop-opacity:1;stop-color:#d1d3d4" /></linearGradient><clipPath
       id="clipPath284"
       clipPathUnits="userSpaceOnUse"><path
         id="path286"
         d="M 0,256 256,256 256,0 0,0 0,256 Z" /></clipPath><clipPath
       id="clipPath292"
       clipPathUnits="userSpaceOnUse"><path
         id="path294"
         d="m 40.5,150.5 16.25,0 0,-13 -16.25,0 0,13 z" /></clipPath></defs><g
     transform="matrix(1.25,0,0,-1.25,0,320)"
     id="g10"><g
       id="g12"><g
         clip-path="url(#clipPath16)"
         id="g14"><g
           transform="translate(40,176)"
           id="g20"><path
             id="path22"
             style="fill:#999999;fill-opacity:1;fill-rule:nonzero;stroke:none"
             d="m 0,0 40,0 -7.36,19.93 c -0.422,1.142 -1.344,2.03 -2.497,2.419 C 23.235,24.68 16.492,24.425 9.869,22.21 8.709,21.823 7.779,20.938 7.354,19.792 L 0,0 Z" /></g><g
           transform="translate(216,176)"
           id="g24"><path
             id="path26"
             style="fill:#999999;fill-opacity:1;fill-rule:nonzero;stroke:none"
             d="m 0,0 -40,0 7.36,19.93 c 0.422,1.142 1.344,2.03 2.497,2.419 6.908,2.331 13.651,2.076 20.274,-0.139 1.16,-0.387 2.09,-1.272 2.515,-2.418 L 0,0 Z" /></g></g></g><g
       id="g28"><g
         clip-path="url(#clipPath32)"
         id="g30"><g
           id="g36"><g
             id="g38"><path
               id="path46"
               style="fill:url(#linearGradient40);stroke:none"
               d="m 180.635,192.116 c -0.847,-0.444 -1.487,-1.206 -1.827,-2.101 l 0,0 -4.075,-10.783 C 173.998,177.287 172.136,176 170.057,176 l 0,0 -36.066,0 c -0.464,0 -0.915,-0.16 -1.268,-0.461 l 0,0 C 131.625,174.603 129.919,174 128,174 l 0,0 c -1.92,0 -3.625,0.603 -4.723,1.539 l 0,0 c -0.354,0.301 -0.803,0.461 -1.269,0.461 l 0,0 -36.755,0 c -1.664,0 -3.154,1.03 -3.743,2.586 l 0,0 -4.319,11.429 c -0.338,0.895 -0.979,1.657 -1.827,2.101 l 0,0 c -10.524,5.517 -20.654,4.816 -30.535,0.04 l 0,0 c -0.939,-0.452 -1.679,-1.235 -2.047,-2.21 l 0,0 -6.01,-15.903 C 27.795,167.086 22,156.21 22,144 l 0,0 c 0,-0.871 0.04,-1.732 0.098,-2.589 l 0,0 C 18.715,122.547 12,84.991 12,84 l 0,0 C 12,70.745 22.745,60 36,60 l 0,0 c 10.07,0 16,8 22.248,14.996 l 0,0 L 80,104 l 48,0 48,0 21.753,-29.004 C 204,68 209.93,60 220,60 l 0,0 c 13.255,0 24,10.745 24,24 l 0,0 c 0,0.991 -6.715,38.547 -10.098,57.411 l 0,0 C 233.96,142.268 234,143.129 234,144 l 0,0 c 0,12.21 -5.795,23.086 -14.773,30.043 l 0,0 -6.009,15.903 c -0.37,0.975 -1.109,1.758 -2.047,2.21 l 0,0 C 206.072,194.62 200.908,196 195.656,196 l 0,0 c -4.925,0 -9.927,-1.214 -15.021,-3.884" /></g></g></g></g><g
       id="g48"><g
         clip-path="url(#clipPath52)"
         id="g50"><g
           id="g56"><g
             id="g58"><path
               id="path66"
               style="fill:url(#linearGradient60);stroke:none"
               d="m 160,144 c 0,-4.24 0.738,-8.306 2.085,-12.083 l 0,0 C 149.727,130.94 140,120.609 140,108 l 0,0 c 0,-13.255 10.745,-24 24,-24 l 0,0 c 13.255,0 24,10.745 24,24 l 0,0 c 0,0.305 -0.012,0.607 -0.023,0.908 l 0,0 C 190.559,108.321 193.241,108 196,108 l 0,0 c 19.882,0 36,16.118 36,36 l 0,0 c 0,19.882 -16.118,36 -36,36 l 0,0 c -19.882,0 -36,-16.118 -36,-36" /></g></g></g></g><g
       id="g68"><g
         clip-path="url(#clipPath72)"
         id="g70"><g
           id="g76"><g
             id="g78"><path
               id="path86"
               style="fill:url(#linearGradient80);stroke:none"
               d="m 24,144 c 0,-19.882 16.118,-36 36,-36 l 0,0 c 2.76,0 5.442,0.32 8.023,0.908 l 0,0 C 68.012,108.607 68,108.305 68,108 l 0,0 C 68,94.745 78.745,84 92,84 l 0,0 c 13.255,0 24,10.745 24,24 l 0,0 c 0,12.609 -9.726,22.94 -22.084,23.917 l 0,0 C 95.261,135.694 96,139.76 96,144 l 0,0 c 0,19.882 -16.118,36 -36,36 l 0,0 C 40.118,180 24,163.882 24,144" /></g></g></g></g><g
       id="g88"><g
         clip-path="url(#clipPath92)"
         id="g90"><g
           transform="translate(108,108)"
           id="g96"><path
             id="path98"
             style="fill:#999999;fill-opacity:1;fill-rule:nonzero;stroke:none"
             d="m 0,0 c 0,-8.837 -7.164,-16 -16,-16 -8.836,0 -16,7.163 -16,16 0,8.837 7.164,16 16,16 C -7.164,16 0,8.837 0,0" /></g><g
           transform="translate(180,108)"
           id="g100"><path
             id="path102"
             style="fill:#999999;fill-opacity:1;fill-rule:nonzero;stroke:none"
             d="m 0,0 c 0,-8.837 -7.163,-16 -16,-16 -8.837,0 -16,7.163 -16,16 0,8.837 7.163,16 16,16 C -7.163,16 0,8.837 0,0" /></g><g
           transform="translate(133,122)"
           id="g104"><path
             id="path106"
             style="fill:#999999;fill-opacity:1;fill-rule:nonzero;stroke:none"
             d="m 0,0 -10,0 c -0.552,0 -1,0.447 -1,1 l 0,4 c 0,0.552 0.448,1 1,1 L 0,6 C 0.553,6 1,5.552 1,5 L 1,1 C 1,0.447 0.553,0 0,0" /></g></g></g><g
       id="g108"><g
         clip-path="url(#clipPath112)"
         id="g110"><g
           id="g116"><g
             id="g118"><path
               id="path126"
               style="fill:url(#linearGradient120);stroke:none"
               d="m 124,112 8,0 0,4.001 -8,0 0,-4.001 z" /></g></g></g></g><g
       id="g128"><g
         clip-path="url(#clipPath132)"
         id="g130"><g
           transform="translate(115,140)"
           id="g136"><path
             id="path138"
             style="fill:#999999;fill-opacity:1;fill-rule:nonzero;stroke:none"
             d="m 0,0 -10,0 c -0.552,0 -1,0.448 -1,1 l 0,6 c 0,0.552 0.448,1 1,1 L 0,8 C 0.552,8 1,7.552 1,7 L 1,1 C 1,0.448 0.552,0 0,0" /></g><g
           transform="translate(140.0596,141.2808)"
           id="g140"><path
             id="path142"
             style="fill:#999999;fill-opacity:1;fill-rule:nonzero;stroke:none"
             d="M 0,0 0,5.438 C 0,6.089 0.612,6.566 1.243,6.409 L 10.956,3.98 c 1.313,-0.328 1.313,-2.194 0,-2.522 L 1.243,-0.97 C 0.612,-1.128 0,-0.65 0,0" /></g><g
           transform="translate(204,162)"
           id="g144"><path
             id="path146"
             style="fill:#999999;fill-opacity:1;fill-rule:nonzero;stroke:none"
             d="m 0,0 c 0,-4.418 -3.582,-8 -8,-8 -4.418,0 -8,3.582 -8,8 0,4.418 3.582,8 8,8 4.418,0 8,-3.582 8,-8" /></g><g
           transform="translate(204,126)"
           id="g148"><path
             id="path150"
             style="fill:#999999;fill-opacity:1;fill-rule:nonzero;stroke:none"
             d="m 0,0 c 0,-4.418 -3.582,-8 -8,-8 -4.418,0 -8,3.582 -8,8 0,4.418 3.582,8 8,8 4.418,0 8,-3.582 8,-8" /></g><g
           transform="translate(214,136)"
           id="g152"><path
             id="path154"
             style="fill:#999999;fill-opacity:1;fill-rule:nonzero;stroke:none"
             d="m 0,0 c -4.418,0 -8,3.582 -8,8 0,4.418 3.582,8 8,8 C 4.418,16 8,12.418 8,8 8,3.582 4.418,0 0,0" /></g><g
           transform="translate(178,136)"
           id="g156"><path
             id="path158"
             style="fill:#999999;fill-opacity:1;fill-rule:nonzero;stroke:none"
             d="m 0,0 c -4.418,0 -8,3.582 -8,8 0,4.418 3.582,8 8,8 C 4.418,16 8,12.418 8,8 8,3.582 4.418,0 0,0" /></g></g></g><g
       id="g160"><g
         clip-path="url(#clipPath164)"
         id="g162"><g
           id="g168"><g
             id="g170"><path
               id="path178"
               style="fill:url(#linearGradient172);stroke:none"
               d="m 187,173 c -1.102,0 -2,-0.897 -2,-2 l 0,0 0,-16 -16,0 c -1.102,0 -2,-0.897 -2,-2 l 0,0 0,-18 c 0,-1.103 0.898,-2 2,-2 l 0,0 16,0 0,-16 c 0,-1.102 0.898,-2 2,-2 l 0,0 18,0 c 1.103,0 2,0.898 2,2 l 0,0 0,16 16,0 c 1.103,0 2,0.897 2,2 l 0,0 0,18 c 0,1.103 -0.897,2 -2,2 l 0,0 -16,0 0,16 c 0,1.103 -0.897,2 -2,2 l 0,0 -18,0 z m -19,-38 0,18 c 0,0.553 0.448,1 1,1 l 0,0 16,0 c 0.553,0 1,0.448 1,1 l 0,0 0,16 c 0,0.553 0.448,1 1,1 l 0,0 18,0 c 0.553,0 1,-0.447 1,-1 l 0,0 0,-16 c 0,-0.552 0.447,-1 1,-1 l 0,0 16,0 c 0.553,0 1,-0.447 1,-1 l 0,0 0,-18 c 0,-0.553 -0.447,-1 -1,-1 l 0,0 -16,0 c -0.553,0 -1,-0.448 -1,-1 l 0,0 0,-16 c 0,-0.553 -0.447,-1 -1,-1 l 0,0 -18,0 c -0.552,0 -1,0.447 -1,1 l 0,0 0,16 c 0,0.552 -0.447,1 -1,1 l 0,0 -16,0 c -0.552,0 -1,0.447 -1,1" /></g></g></g></g><g
       id="g180"><g
         clip-path="url(#clipPath184)"
         id="g182"><g
           id="g188"><g
             id="g190"><path
               id="path198"
               style="fill:url(#linearGradient192);stroke:none"
               d="m 51,173 c -1.103,0 -2,-0.897 -2,-2 l 0,0 0,-16 -16,0 c -1.103,0 -2,-0.897 -2,-2 l 0,0 0,-18 c 0,-1.103 0.897,-2 2,-2 l 0,0 16,0 0,-16 c 0,-1.102 0.897,-2 2,-2 l 0,0 18,0 c 1.103,0 2,0.898 2,2 l 0,0 0,16 16,0 c 1.103,0 2,0.897 2,2 l 0,0 0,18 c 0,1.103 -0.897,2 -2,2 l 0,0 -16,0 0,16 c 0,1.103 -0.897,2 -2,2 l 0,0 -18,0 z m -19,-38 0,18 c 0,0.553 0.448,1 1,1 l 0,0 16,0 c 0.552,0 1,0.448 1,1 l 0,0 0,16 c 0,0.553 0.448,1 1,1 l 0,0 18,0 c 0.552,0 1,-0.447 1,-1 l 0,0 0,-16 c 0,-0.552 0.447,-1 1,-1 l 0,0 16,0 c 0.552,0 1,-0.447 1,-1 l 0,0 0,-18 c 0,-0.553 -0.448,-1 -1,-1 l 0,0 -16,0 c -0.553,0 -1,-0.448 -1,-1 l 0,0 0,-16 c 0,-0.553 -0.448,-1 -1,-1 l 0,0 -18,0 c -0.552,0 -1,0.447 -1,1 l 0,0 0,16 c 0,0.552 -0.448,1 -1,1 l 0,0 -16,0 c -0.552,0 -1,0.447 -1,1" /></g></g></g></g><g
       id="g200"><g
         clip-path="url(#clipPath204)"
         id="g202"><g
           id="g208"><g
             id="g210"><path
               id="path218"
               style="fill:url(#linearGradient212);stroke:none"
               d="M 82.75,140.75 86,144 l -3.25,3.25 0,-6.5 z" /></g></g></g></g><g
       id="g220"><g
         clip-path="url(#clipPath224)"
         id="g222"><g
           id="g228"><g
             id="g230"><path
               id="path238"
               style="fill:url(#linearGradient232);stroke:none"
               d="m 34,144 3.25,-3.25 0,6.5 L 34,144 Z" /></g></g></g></g><g
       id="g240"><g
         clip-path="url(#clipPath244)"
         id="g242"><g
           id="g248"><g
             id="g250"><path
               id="path258"
               style="fill:url(#linearGradient252);stroke:none"
               d="M 56.75,121.25 60,118 l 3.25,3.25 -6.5,0 z" /></g></g></g></g><g
       id="g260"><g
         clip-path="url(#clipPath264)"
         id="g262"><g
           id="g268"><g
             id="g270"><path
               id="path278"
               style="fill:url(#linearGradient272);stroke:none"
               d="m 56.75,166.75 6.5,0 L 60,170 56.75,166.75 Z" /></g></g></g></g><g
       id="g280"><g
         clip-path="url(#clipPath284)"
         id="g282"><g
           id="g288"><g
             id="g290" /><g
             id="g296"><g
               id="g298"
               clip-path="url(#clipPath292)"><g
                 id="g300"
                 transform="translate(40.5,149.4902)"><path
                   id="path302"
                   style="fill:#999999;fill-opacity:1;fill-rule:nonzero;stroke:none"
                   d="m 0,0 0,-10.98 c 0,-0.558 0.5,-1.01 1.116,-1.01 l 7.279,0 c 0.92,0 1.82,0.251 2.569,0.736 1.875,1.213 5.286,3.704 5.286,5.764 0,1.967 -2.745,4.328 -4.431,5.594 C 11.027,0.697 10.028,1.01 9,1.01 l -7.884,0 C 0.5,1.01 0,0.558 0,0" /></g></g></g></g><g
           transform="translate(79.5,138.5098)"
           id="g304"><path
             id="path306"
             style="fill:#999999;fill-opacity:1;fill-rule:nonzero;stroke:none"
             d="m 0,0 0,10.98 c 0,0.558 -0.5,1.01 -1.116,1.01 l -7.279,0 c -0.92,0 -1.82,-0.251 -2.569,-0.736 -1.875,-1.213 -5.286,-3.704 -5.286,-5.764 0,-1.967 2.745,-4.328 4.431,-5.594 0.792,-0.593 1.791,-0.906 2.819,-0.906 l 7.884,0 C -0.5,-1.01 0,-0.558 0,0" /></g><g
           transform="translate(65.4902,163.5)"
           id="g308"><path
             id="path310"
             style="fill:#999999;fill-opacity:1;fill-rule:nonzero;stroke:none"
             d="m 0,0 -10.98,0 c -0.558,0 -1.01,-0.5 -1.01,-1.116 l 0,-7.279 c 0,-0.92 0.251,-1.82 0.736,-2.569 1.213,-1.875 3.704,-5.286 5.764,-5.286 1.967,0 4.328,2.745 5.594,4.431 0.593,0.792 0.906,1.791 0.906,2.819 l 0,7.884 C 1.01,-0.5 0.558,0 0,0" /></g><g
           transform="translate(54.5098,124.5)"
           id="g312"><path
             id="path314"
             style="fill:#999999;fill-opacity:1;fill-rule:nonzero;stroke:none"
             d="m 0,0 10.98,0 c 0.558,0 1.01,0.5 1.01,1.116 l 0,7.279 c 0,0.92 -0.251,1.82 -0.736,2.569 C 10.041,12.839 7.55,16.25 5.49,16.25 3.523,16.25 1.162,13.505 -0.104,11.819 -0.697,11.027 -1.01,10.028 -1.01,9 l 0,-7.884 C -1.01,0.5 -0.558,0 0,0" /></g></g></g></g></svg>