<?xml version="1.0" encoding="UTF-8" standalone="no"?>
<svg
   xmlns:dc="http://purl.org/dc/elements/1.1/"
   xmlns:cc="http://creativecommons.org/ns#"
   xmlns:rdf="http://www.w3.org/1999/02/22-rdf-syntax-ns#"
   xmlns:svg="http://www.w3.org/2000/svg"
   xmlns="http://www.w3.org/2000/svg"
   viewBox="0 0 320 320"
   height="320"
   width="320"
   xml:space="preserve"
   version="1.1"
   id="svg2"><metadata
     id="metadata8"><rdf:RDF><cc:Work
         rdf:about=""><dc:format>image/svg+xml</dc:format><dc:type
           rdf:resource="http://purl.org/dc/dcmitype/StillImage" /></cc:Work></rdf:RDF></metadata><defs
     id="defs6"><clipPath
       id="clipPath16"
       clipPathUnits="userSpaceOnUse"><path
         id="path18"
         d="M 20,134.824 20,57.49 c 0,-9.098 9,-13.646 9,-13.646 l 0,0 C 59.082,21.002 87.482,12 128,12 l 0,0 c 40.522,0 68.913,9.002 99,31.844 l 0,0 c 0,0 9,8.051 9,13.646 l 0,0 0,77.334 C 236,195.116 187.643,244 128,244 l 0,0 C 68.357,244 20,195.116 20,134.824" /></clipPath><linearGradient
       id="linearGradient24"
       spreadMethod="pad"
       gradientTransform="matrix(171.80377,-171.80377,-171.80377,-171.80377,41.841148,202.23106)"
       gradientUnits="userSpaceOnUse"
       y2="0"
       x2="1"
       y1="0"
       x1="0"><stop
         id="stop26"
         offset="0"
         style="stop-opacity:1;stop-color:#e6e7e8" /><stop
         id="stop28"
         offset="1"
         style="stop-opacity:1;stop-color:#d1d3d4" /></linearGradient><clipPath
       id="clipPath36"
       clipPathUnits="userSpaceOnUse"><path
         id="path38"
         d="M 28,136 C 28,80.773 72.773,36 128,36 l 0,0 c 55.227,0 100,44.773 100,100 l 0,0 c 0,55.227 -44.773,100 -100,100 l 0,0 C 72.773,236 28,191.227 28,136" /></clipPath><linearGradient
       id="linearGradient44"
       spreadMethod="pad"
       gradientTransform="matrix(-141.42044,141.42044,141.42044,141.42044,198.71022,65.28978)"
       gradientUnits="userSpaceOnUse"
       y2="0"
       x2="1"
       y1="0"
       x1="0"><stop
         id="stop46"
         offset="0"
         style="stop-opacity:1;stop-color:#e6e7e8" /><stop
         id="stop48"
         offset="1"
         style="stop-opacity:1;stop-color:#d1d3d4" /></linearGradient><clipPath
       id="clipPath56"
       clipPathUnits="userSpaceOnUse"><path
         id="path58"
         d="M 0,256 256,256 256,0 0,0 0,256 Z" /></clipPath></defs><g
     transform="matrix(1.25,0,0,-1.25,0,320)"
     id="g10"><g
       id="g12"><g
         clip-path="url(#clipPath16)"
         id="g14"><g
           id="g20"><g
             id="g22"><path
               id="path30"
               style="fill:url(#linearGradient24);stroke:none"
               d="M 20,134.824 20,57.49 c 0,-9.098 9,-13.646 9,-13.646 l 0,0 C 59.082,21.002 87.482,12 128,12 l 0,0 c 40.522,0 68.913,9.002 99,31.844 l 0,0 c 0,0 9,8.051 9,13.646 l 0,0 0,77.334 C 236,195.116 187.643,244 128,244 l 0,0 C 68.357,244 20,195.116 20,134.824" /></g></g></g></g><g
       id="g32"><g
         clip-path="url(#clipPath36)"
         id="g34"><g
           id="g40"><g
             id="g42"><path
               id="path50"
               style="fill:url(#linearGradient44);stroke:none"
               d="M 28,136 C 28,80.773 72.773,36 128,36 l 0,0 c 55.227,0 100,44.773 100,100 l 0,0 c 0,55.227 -44.773,100 -100,100 l 0,0 C 72.773,236 28,191.227 28,136" /></g></g></g></g><g
       id="g52"><g
         clip-path="url(#clipPath56)"
         id="g54"><g
           transform="translate(128,226)"
           id="g60"><path
             id="path62"
             style="fill:#999999;fill-opacity:1;fill-rule:nonzero;stroke:none"
             d="m 0,0 c -49.707,0 -90,-40.293 -90,-90 0,-49.707 40.293,-90 90,-90 49.707,0 90,40.293 90,90 C 90,-40.293 49.707,0 0,0" /></g><g
           transform="translate(128,100)"
           id="g64"><path
             id="path66"
             style="fill:#ffffff;fill-opacity:1;fill-rule:nonzero;stroke:none"
             d="M 0,0 C -19.881,0 -36,16.119 -36,36 -36,55.886 -19.881,72 0,72 19.881,72 36,55.886 36,36 36,16.119 19.881,0 0,0" /></g></g></g></g></svg>