<?xml version="1.0" encoding="UTF-8" standalone="no"?>
<svg
   xmlns:dc="http://purl.org/dc/elements/1.1/"
   xmlns:cc="http://creativecommons.org/ns#"
   xmlns:rdf="http://www.w3.org/1999/02/22-rdf-syntax-ns#"
   xmlns:svg="http://www.w3.org/2000/svg"
   xmlns="http://www.w3.org/2000/svg"
   viewBox="0 0 320 320"
   height="320"
   width="320"
   xml:space="preserve"
   version="1.1"
   id="svg2"><metadata
     id="metadata8"><rdf:RDF><cc:Work
         rdf:about=""><dc:format>image/svg+xml</dc:format><dc:type
           rdf:resource="http://purl.org/dc/dcmitype/StillImage" /></cc:Work></rdf:RDF></metadata><defs
     id="defs6"><clipPath
       id="clipPath16"
       clipPathUnits="userSpaceOnUse"><path
         id="path18"
         d="M 12,128 C 12,63.934 63.929,12 128,12 l 0,0 c 64.051,0 116,51.934 116,116 l 0,0 c 0,64.066 -51.949,116 -116,116 l 0,0 C 63.929,244 12,192.066 12,128 m 72.495,0 c 0,23.988 19.513,43.505 43.505,43.505 l 0,0 c 23.988,0 43.5,-19.517 43.5,-43.505 l 0,0 c 0,-23.987 -19.512,-43.505 -43.5,-43.505 l 0,0 c -23.992,0 -43.505,19.518 -43.505,43.505" /></clipPath><linearGradient
       id="linearGradient24"
       spreadMethod="pad"
       gradientTransform="matrix(164.04756,-164.04756,-164.04756,-164.04756,45.972565,210.02379)"
       gradientUnits="userSpaceOnUse"
       y2="0"
       x2="1"
       y1="0"
       x1="0"><stop
         id="stop26"
         offset="0"
         style="stop-opacity:1;stop-color:#e6e7e8" /><stop
         id="stop28"
         offset="1"
         style="stop-opacity:1;stop-color:#d1d3d4" /></linearGradient><clipPath
       id="clipPath36"
       clipPathUnits="userSpaceOnUse"><path
         id="path38"
         d="m 82,128 c 0,-25.349 20.64,-46 46.003,-46 l 0,0 C 153.341,82 174,102.651 174,128 l 0,0 c 0,25.349 -20.659,46 -45.997,46 l 0,0 C 102.64,174 82,153.349 82,128 m 32.216,0 c 0,7.605 6.191,13.785 13.787,13.785 l 0,0 c 7.599,0 13.777,-6.18 13.777,-13.785 l 0,0 c 0,-7.6 -6.178,-13.776 -13.777,-13.776 l 0,0 c -7.596,0 -13.787,6.176 -13.787,13.776" /></clipPath><linearGradient
       id="linearGradient44"
       spreadMethod="pad"
       gradientTransform="matrix(-65.012405,65.012405,65.012405,65.012405,160.50294,95.493797)"
       gradientUnits="userSpaceOnUse"
       y2="0"
       x2="1"
       y1="0"
       x1="0"><stop
         id="stop46"
         offset="0"
         style="stop-opacity:1;stop-color:#e6e7e8" /><stop
         id="stop48"
         offset="1"
         style="stop-opacity:1;stop-color:#d1d3d4" /></linearGradient><clipPath
       id="clipPath56"
       clipPathUnits="userSpaceOnUse"><path
         id="path58"
         d="M 0,256 256,256 256,0 0,0 0,256 Z" /></clipPath></defs><g
     transform="matrix(1.25,0,0,-1.25,0,320)"
     id="g10"><g
       id="g12"><g
         clip-path="url(#clipPath16)"
         id="g14"><g
           id="g20"><g
             id="g22"><path
               id="path30"
               style="fill:url(#linearGradient24);stroke:none"
               d="M 12,128 C 12,63.934 63.929,12 128,12 l 0,0 c 64.051,0 116,51.934 116,116 l 0,0 c 0,64.066 -51.949,116 -116,116 l 0,0 C 63.929,244 12,192.066 12,128 m 72.495,0 c 0,23.988 19.513,43.505 43.505,43.505 l 0,0 c 23.988,0 43.5,-19.517 43.5,-43.505 l 0,0 c 0,-23.987 -19.512,-43.505 -43.5,-43.505 l 0,0 c -23.992,0 -43.505,19.518 -43.505,43.505" /></g></g></g></g><g
       id="g32"><g
         clip-path="url(#clipPath36)"
         id="g34"><g
           id="g40"><g
             id="g42"><path
               id="path50"
               style="fill:url(#linearGradient44);stroke:none"
               d="m 82,128 c 0,-25.349 20.64,-46 46.003,-46 l 0,0 C 153.341,82 174,102.651 174,128 l 0,0 c 0,25.349 -20.659,46 -45.997,46 l 0,0 C 102.64,174 82,153.349 82,128 m 32.216,0 c 0,7.605 6.191,13.785 13.787,13.785 l 0,0 c 7.599,0 13.777,-6.18 13.777,-13.785 l 0,0 c 0,-7.6 -6.178,-13.776 -13.777,-13.776 l 0,0 c -7.596,0 -13.787,6.176 -13.787,13.776" /></g></g></g></g><g
       id="g52"><g
         clip-path="url(#clipPath56)"
         id="g54"><g
           transform="translate(31.248,64)"
           id="g60"><path
             id="path62"
             style="fill:#999999;fill-opacity:1;fill-rule:nonzero;stroke:none"
             d="m 0,0 c 20.768,-31.334 56.343,-52 96.754,-52 40.4,0 75.978,20.666 96.75,52 L 0,0 Z" /></g></g></g></g></svg>