<?xml version="1.0" encoding="UTF-8" standalone="no"?>
<svg
   xmlns:dc="http://purl.org/dc/elements/1.1/"
   xmlns:cc="http://creativecommons.org/ns#"
   xmlns:rdf="http://www.w3.org/1999/02/22-rdf-syntax-ns#"
   xmlns:svg="http://www.w3.org/2000/svg"
   xmlns="http://www.w3.org/2000/svg"
   viewBox="0 0 320 320"
   height="320"
   width="320"
   xml:space="preserve"
   version="1.1"
   id="svg2"><metadata
     id="metadata8"><rdf:RDF><cc:Work
         rdf:about=""><dc:format>image/svg+xml</dc:format><dc:type
           rdf:resource="http://purl.org/dc/dcmitype/StillImage" /></cc:Work></rdf:RDF></metadata><defs
     id="defs6"><clipPath
       id="clipPath16"
       clipPathUnits="userSpaceOnUse"><path
         id="path18"
         d="M 0,256 256,256 256,0 0,0 0,256 Z" /></clipPath><clipPath
       id="clipPath28"
       clipPathUnits="userSpaceOnUse"><path
         id="path30"
         d="m 28,92 -4,0 c 0,0 4,-8 16,-12 l 0,0 c 12,-4 20,-4 20,-4 l 0,0 4,4 -12,12 -24,0 z m 4,-4 c 0,0 16,0 20,-8 l 0,0 c 0,0 -12,0 -20,8" /></clipPath><linearGradient
       id="linearGradient36"
       spreadMethod="pad"
       gradientTransform="matrix(-26,26,26,26,56.75,72.75)"
       gradientUnits="userSpaceOnUse"
       y2="0"
       x2="1"
       y1="0"
       x1="0"><stop
         id="stop38"
         offset="0"
         style="stop-opacity:1;stop-color:#e6e7e8" /><stop
         id="stop40"
         offset="1"
         style="stop-opacity:1;stop-color:#d1d3d4" /></linearGradient><clipPath
       id="clipPath48"
       clipPathUnits="userSpaceOnUse"><path
         id="path50"
         d="m 228,92 -24,0 -12,-12 4,-4 c 0,0 8,0 20,4 l 0,0 c 12,4 16,12 16,12 l 0,0 -4,0 z m -4,-4 c -8,-8 -20,-8 -20,-8 l 0,0 c 4,8 20,8 20,8" /></clipPath><linearGradient
       id="linearGradient56"
       spreadMethod="pad"
       gradientTransform="matrix(-14.499999,14.499999,14.499999,14.499999,219.5,78.5)"
       gradientUnits="userSpaceOnUse"
       y2="0"
       x2="1"
       y1="0"
       x1="0"><stop
         id="stop58"
         offset="0"
         style="stop-opacity:1;stop-color:#e6e7e8" /><stop
         id="stop60"
         offset="1"
         style="stop-opacity:1;stop-color:#d1d3d4" /></linearGradient><clipPath
       id="clipPath68"
       clipPathUnits="userSpaceOnUse"><path
         id="path70"
         d="M 0,256 256,256 256,0 0,0 0,256 Z" /></clipPath><clipPath
       id="clipPath80"
       clipPathUnits="userSpaceOnUse"><path
         id="path82"
         d="m 60,180 c 0,0 -4,0 -8,-4 l 0,0 c -4,-4 -8,-8 -24,-8 l 0,0 c 0,0 -16,-12 -16,-32 l 0,0 0,-12.288 c 0,-2.741 0.351,-5.462 1.045,-8.113 l 0,0 C 14.709,109.242 18.36,97.639 24,92 l 0,0 0.864,-0.864 c 0.716,-0.716 1.672,-1.135 2.684,-1.169 l 0,0 C 31.41,89.837 41.616,89.193 48,86 l 0,0 c 5.059,-2.53 8,-10 12,-10 l 0,0 136,0 c 4,0 8,6 12,10 l 0,0 c 3.277,3.276 15.945,3.87 20.422,3.977 l 0,0 c 1.026,0.024 1.999,0.444 2.724,1.17 l 0,0 L 232,92 c 5.64,5.639 9.291,17.242 10.955,23.599 l 0,0 c 0.695,2.651 1.045,5.372 1.045,8.113 l 0,0 0,12.288 c 0,20 -16,32 -16,32 l 0,0 c -16,0 -20,4 -24,8 l 0,0 c -4,4 -8,4 -8,4 l 0,0 -136,0 z" /></clipPath><linearGradient
       id="linearGradient88"
       spreadMethod="pad"
       gradientTransform="matrix(140.16327,-140.16327,-140.16327,-140.16327,57.918365,198.2449)"
       gradientUnits="userSpaceOnUse"
       y2="0"
       x2="1"
       y1="0"
       x1="0"><stop
         id="stop90"
         offset="0"
         style="stop-opacity:1;stop-color:#e6e7e8" /><stop
         id="stop92"
         offset="1"
         style="stop-opacity:1;stop-color:#d1d3d4" /></linearGradient><clipPath
       id="clipPath100"
       clipPathUnits="userSpaceOnUse"><path
         id="path102"
         d="M 0,256 256,256 256,0 0,0 0,256 Z" /></clipPath><clipPath
       id="clipPath110"
       clipPathUnits="userSpaceOnUse"><path
         id="path112"
         d="m 18,145 c 0,-6.977 5.084,-12.831 11.965,-14.508 l 0,0 c 0.415,-0.102 0.802,-0.312 1.068,-0.645 l 0,0 c 1.014,-1.278 1.44,-3.45 1.607,-4.681 l 0,0 c 0.072,-0.529 -0.049,-1.071 -0.374,-1.495 l 0,0 c -1.662,-2.169 -2.542,-4.968 -2.189,-7.984 l 0,0 c 0.584,-5.012 4.671,-9.073 9.687,-9.619 l 0,0 C 46.393,105.345 52,110.517 52,117 l 0,0 c 0,4.852 -3.142,8.967 -7.501,10.428 l 0,0 c -0.755,0.254 -1.295,0.92 -1.361,1.715 l 0,0 c -0.054,0.642 -0.107,1.464 -0.128,2.36 l 0,0 c -0.015,0.638 0.266,1.261 0.781,1.636 l 0,0 C 47.568,135.883 50,140.174 50,145 l 0,0 c 0,8.284 -7.164,15 -16,15 l 0,0 c -8.836,0 -16,-6.716 -16,-15" /></clipPath><linearGradient
       id="linearGradient118"
       spreadMethod="pad"
       gradientTransform="matrix(-36.244068,36.244068,36.244068,36.244068,55.626423,116.07008)"
       gradientUnits="userSpaceOnUse"
       y2="0"
       x2="1"
       y1="0"
       x1="0"><stop
         id="stop120"
         offset="0"
         style="stop-opacity:1;stop-color:#e6e7e8" /><stop
         id="stop122"
         offset="1"
         style="stop-opacity:1;stop-color:#d1d3d4" /></linearGradient><clipPath
       id="clipPath130"
       clipPathUnits="userSpaceOnUse"><path
         id="path132"
         d="m 206,145 c 0,-4.826 2.433,-9.117 6.209,-11.861 l 0,0 c 0.516,-0.375 0.796,-0.998 0.781,-1.636 l 0,0 c -0.021,-0.896 -0.074,-1.718 -0.127,-2.36 l 0,0 c -0.068,-0.795 -0.606,-1.461 -1.362,-1.715 l 0,0 C 207.141,125.967 204,121.852 204,117 l 0,0 c 0,-6.483 5.607,-11.655 12.235,-10.932 l 0,0 c 5.016,0.546 9.102,4.607 9.688,9.619 l 0,0 c 0.352,3.016 -0.528,5.815 -2.188,7.984 l 0,0 c -0.326,0.424 -0.447,0.966 -0.375,1.495 l 0,0 c 0.168,1.231 0.593,3.403 1.607,4.681 l 0,0 c 0.265,0.333 0.652,0.543 1.067,0.645 l 0,0 C 232.916,132.169 238,138.023 238,145 l 0,0 c 0,8.284 -7.163,15 -16,15 l 0,0 c -8.837,0 -16,-6.716 -16,-15" /></clipPath><linearGradient
       id="linearGradient138"
       spreadMethod="pad"
       gradientTransform="matrix(-29.235294,29.235294,29.235294,29.235294,233.11327,119.57446)"
       gradientUnits="userSpaceOnUse"
       y2="0"
       x2="1"
       y1="0"
       x1="0"><stop
         id="stop140"
         offset="0"
         style="stop-opacity:1;stop-color:#e6e7e8" /><stop
         id="stop142"
         offset="1"
         style="stop-opacity:1;stop-color:#d1d3d4" /></linearGradient><clipPath
       id="clipPath150"
       clipPathUnits="userSpaceOnUse"><path
         id="path152"
         d="M 0,256 256,256 256,0 0,0 0,256 Z" /></clipPath><clipPath
       id="clipPath182"
       clipPathUnits="userSpaceOnUse"><path
         id="path184"
         d="m 34,117 c 0,-3.859 3.14,-7 7,-7 l 0,0 c 3.86,0 7,3.141 7,7 l 0,0 c 0,3.859 -3.14,7 -7,7 l 0,0 c -3.86,0 -7,-3.141 -7,-7" /></clipPath><linearGradient
       id="linearGradient190"
       spreadMethod="pad"
       gradientTransform="matrix(9.8948603,-9.8948603,-9.8948603,-9.8948603,36.05257,121.94743)"
       gradientUnits="userSpaceOnUse"
       y2="0"
       x2="1"
       y1="0"
       x1="0"><stop
         id="stop192"
         offset="0"
         style="stop-opacity:1;stop-color:#e6e7e8" /><stop
         id="stop194"
         offset="1"
         style="stop-opacity:1;stop-color:#d1d3d4" /></linearGradient><clipPath
       id="clipPath202"
       clipPathUnits="userSpaceOnUse"><path
         id="path204"
         d="m 31.5,117 c 0,-5.238 4.262,-9.5 9.5,-9.5 l 0,0 c 5.238,0 9.5,4.262 9.5,9.5 l 0,0 c 0,5.238 -4.262,9.5 -9.5,9.5 l 0,0 c -5.238,0 -9.5,-4.262 -9.5,-9.5 m 1,0 c 0,4.686 3.813,8.5 8.5,8.5 l 0,0 c 4.687,0 8.5,-3.814 8.5,-8.5 l 0,0 c 0,-4.686 -3.813,-8.5 -8.5,-8.5 l 0,0 c -4.687,0 -8.5,3.814 -8.5,8.5" /></clipPath><linearGradient
       id="linearGradient210"
       spreadMethod="pad"
       gradientTransform="matrix(-13.428711,13.428711,13.428711,13.428711,47.714356,110.28564)"
       gradientUnits="userSpaceOnUse"
       y2="0"
       x2="1"
       y1="0"
       x1="0"><stop
         id="stop212"
         offset="0"
         style="stop-opacity:1;stop-color:#e6e7e8" /><stop
         id="stop214"
         offset="1"
         style="stop-opacity:1;stop-color:#d1d3d4" /></linearGradient><clipPath
       id="clipPath222"
       clipPathUnits="userSpaceOnUse"><path
         id="path224"
         d="M 0,256 256,256 256,0 0,0 0,256 Z" /></clipPath><clipPath
       id="clipPath234"
       clipPathUnits="userSpaceOnUse"><path
         id="path236"
         d="m 208,117 c 0,-3.859 3.141,-7 7,-7 l 0,0 c 3.859,0 7,3.141 7,7 l 0,0 c 0,3.859 -3.141,7 -7,7 l 0,0 c -3.859,0 -7,-3.141 -7,-7" /></clipPath><linearGradient
       id="linearGradient242"
       spreadMethod="pad"
       gradientTransform="matrix(9.8948603,-9.8948603,-9.8948603,-9.8948603,210.05257,121.94743)"
       gradientUnits="userSpaceOnUse"
       y2="0"
       x2="1"
       y1="0"
       x1="0"><stop
         id="stop244"
         offset="0"
         style="stop-opacity:1;stop-color:#e6e7e8" /><stop
         id="stop246"
         offset="1"
         style="stop-opacity:1;stop-color:#d1d3d4" /></linearGradient><clipPath
       id="clipPath254"
       clipPathUnits="userSpaceOnUse"><path
         id="path256"
         d="m 205.5,117 c 0,-5.238 4.262,-9.5 9.5,-9.5 l 0,0 c 5.238,0 9.5,4.262 9.5,9.5 l 0,0 c 0,5.238 -4.262,9.5 -9.5,9.5 l 0,0 c -5.238,0 -9.5,-4.262 -9.5,-9.5 m 1,0 c 0,4.686 3.813,8.5 8.5,8.5 l 0,0 c 4.687,0 8.5,-3.814 8.5,-8.5 l 0,0 c 0,-4.686 -3.813,-8.5 -8.5,-8.5 l 0,0 c -4.687,0 -8.5,3.814 -8.5,8.5" /></clipPath><linearGradient
       id="linearGradient262"
       spreadMethod="pad"
       gradientTransform="matrix(-13.428711,13.428711,13.428711,13.428711,221.71436,110.28564)"
       gradientUnits="userSpaceOnUse"
       y2="0"
       x2="1"
       y1="0"
       x1="0"><stop
         id="stop264"
         offset="0"
         style="stop-opacity:1;stop-color:#e6e7e8" /><stop
         id="stop266"
         offset="1"
         style="stop-opacity:1;stop-color:#d1d3d4" /></linearGradient><clipPath
       id="clipPath274"
       clipPathUnits="userSpaceOnUse"><path
         id="path276"
         d="M 29.975,158.161 29.552,157.95 29,157.674 l 0,-0.619 0,-5.999 0,-0.414 L 28.414,150 28,150 l -6,0 -0.618,0 -0.276,-0.552 -0.212,-0.423 c -1.26,-2.52 -1.26,-5.53 0,-8.05 l 0,0 0.212,-0.422 0.276,-0.553 0.618,0 6,0 0.414,0 0.586,-0.531 0,-0.414 0,-5.999 0,-0.618 0.552,-0.277 0.423,-0.211 C 31.218,131.329 32.61,131 34,131 l 0,0 c 1.39,0 2.782,0.329 4.025,0.95 l 0,0 0.422,0.211 0.553,0.277 0,0.618 0,5.999 0,0.414 0.586,0.531 0.414,0 6,0 0.618,0 0.277,0.553 0.21,0.422 c 1.261,2.52 1.261,5.53 0,8.05 l 0,0 -0.21,0.423 -0.277,0.552 -0.618,0 -6,0 -0.414,0 -0.586,0.642 0,0.414 0,5.999 0,0.619 -0.553,0.276 -0.422,0.211 c -1.243,0.622 -2.635,0.951 -4.025,0.951 l 0,0 c -1.39,0 -2.782,-0.329 -4.025,-0.951" /></clipPath><linearGradient
       id="linearGradient282"
       spreadMethod="pad"
       gradientTransform="matrix(17.645996,-17.645996,-17.645996,-17.645996,25.176941,153.85089)"
       gradientUnits="userSpaceOnUse"
       y2="0"
       x2="1"
       y1="0"
       x1="0"><stop
         id="stop284"
         offset="0"
         style="stop-opacity:1;stop-color:#e6e7e8" /><stop
         id="stop286"
         offset="1"
         style="stop-opacity:1;stop-color:#d1d3d4" /></linearGradient><clipPath
       id="clipPath294"
       clipPathUnits="userSpaceOnUse"><path
         id="path296"
         d="M 0,256 256,256 256,0 0,0 0,256 Z" /></clipPath></defs><g
     transform="matrix(1.25,0,0,-1.25,0,320)"
     id="g10"><g
       id="g12"><g
         clip-path="url(#clipPath16)"
         id="g14"><g
           transform="translate(64,176)"
           id="g20"><path
             id="path22"
             style="fill:#999999;fill-opacity:1;fill-rule:nonzero;stroke:none"
             d="m 0,0 -4,4 c 0,0 -20,0 -32,-12 l 0,-4 20,0 16,12 z" /></g></g></g><g
       id="g24"><g
         clip-path="url(#clipPath28)"
         id="g26"><g
           id="g32"><g
             id="g34"><path
               id="path42"
               style="fill:url(#linearGradient36);stroke:none"
               d="m 28,92 -4,0 c 0,0 4,-8 16,-12 l 0,0 c 12,-4 20,-4 20,-4 l 0,0 4,4 -12,12 -24,0 z m 4,-4 c 0,0 16,0 20,-8 l 0,0 c 0,0 -12,0 -20,8" /></g></g></g></g><g
       id="g44"><g
         clip-path="url(#clipPath48)"
         id="g46"><g
           id="g52"><g
             id="g54"><path
               id="path62"
               style="fill:url(#linearGradient56);stroke:none"
               d="m 228,92 -24,0 -12,-12 4,-4 c 0,0 8,0 20,4 l 0,0 c 12,4 16,12 16,12 l 0,0 -4,0 z m -4,-4 c -8,-8 -20,-8 -20,-8 l 0,0 c 4,8 20,8 20,8" /></g></g></g></g><g
       id="g64"><g
         clip-path="url(#clipPath68)"
         id="g66"><g
           transform="translate(192,176)"
           id="g72"><path
             id="path74"
             style="fill:#999999;fill-opacity:1;fill-rule:nonzero;stroke:none"
             d="M 0,0 4,4 C 4,4 24,4 36,-8 l 0,-4 -20,0 L 0,0 Z" /></g></g></g><g
       id="g76"><g
         clip-path="url(#clipPath80)"
         id="g78"><g
           id="g84"><g
             id="g86"><path
               id="path94"
               style="fill:url(#linearGradient88);stroke:none"
               d="m 60,180 c 0,0 -4,0 -8,-4 l 0,0 c -4,-4 -8,-8 -24,-8 l 0,0 c 0,0 -16,-12 -16,-32 l 0,0 0,-12.288 c 0,-2.741 0.351,-5.462 1.045,-8.113 l 0,0 C 14.709,109.242 18.36,97.639 24,92 l 0,0 0.864,-0.864 c 0.716,-0.716 1.672,-1.135 2.684,-1.169 l 0,0 C 31.41,89.837 41.616,89.193 48,86 l 0,0 c 5.059,-2.53 8,-10 12,-10 l 0,0 136,0 c 4,0 8,6 12,10 l 0,0 c 3.277,3.276 15.945,3.87 20.422,3.977 l 0,0 c 1.026,0.024 1.999,0.444 2.724,1.17 l 0,0 L 232,92 c 5.64,5.639 9.291,17.242 10.955,23.599 l 0,0 c 0.695,2.651 1.045,5.372 1.045,8.113 l 0,0 0,12.288 c 0,20 -16,32 -16,32 l 0,0 c -16,0 -20,4 -24,8 l 0,0 c -4,4 -8,4 -8,4 l 0,0 -136,0 z" /></g></g></g></g><g
       id="g96"><g
         clip-path="url(#clipPath100)"
         id="g98"><path
           id="path104"
           style="fill:#999999;fill-opacity:1;fill-rule:nonzero;stroke:none"
           d="m 198,94 -140,0 0,78 140,0 0,-78 z" /></g></g><g
       id="g106"><g
         clip-path="url(#clipPath110)"
         id="g108"><g
           id="g114"><g
             id="g116"><path
               id="path124"
               style="fill:url(#linearGradient118);stroke:none"
               d="m 18,145 c 0,-6.977 5.084,-12.831 11.965,-14.508 l 0,0 c 0.415,-0.102 0.802,-0.312 1.068,-0.645 l 0,0 c 1.014,-1.278 1.44,-3.45 1.607,-4.681 l 0,0 c 0.072,-0.529 -0.049,-1.071 -0.374,-1.495 l 0,0 c -1.662,-2.169 -2.542,-4.968 -2.189,-7.984 l 0,0 c 0.584,-5.012 4.671,-9.073 9.687,-9.619 l 0,0 C 46.393,105.345 52,110.517 52,117 l 0,0 c 0,4.852 -3.142,8.967 -7.501,10.428 l 0,0 c -0.755,0.254 -1.295,0.92 -1.361,1.715 l 0,0 c -0.054,0.642 -0.107,1.464 -0.128,2.36 l 0,0 c -0.015,0.638 0.266,1.261 0.781,1.636 l 0,0 C 47.568,135.883 50,140.174 50,145 l 0,0 c 0,8.284 -7.164,15 -16,15 l 0,0 c -8.836,0 -16,-6.716 -16,-15" /></g></g></g></g><g
       id="g126"><g
         clip-path="url(#clipPath130)"
         id="g128"><g
           id="g134"><g
             id="g136"><path
               id="path144"
               style="fill:url(#linearGradient138);stroke:none"
               d="m 206,145 c 0,-4.826 2.433,-9.117 6.209,-11.861 l 0,0 c 0.516,-0.375 0.796,-0.998 0.781,-1.636 l 0,0 c -0.021,-0.896 -0.074,-1.718 -0.127,-2.36 l 0,0 c -0.068,-0.795 -0.606,-1.461 -1.362,-1.715 l 0,0 C 207.141,125.967 204,121.852 204,117 l 0,0 c 0,-6.483 5.607,-11.655 12.235,-10.932 l 0,0 c 5.016,0.546 9.102,4.607 9.688,9.619 l 0,0 c 0.352,3.016 -0.528,5.815 -2.188,7.984 l 0,0 c -0.326,0.424 -0.447,0.966 -0.375,1.495 l 0,0 c 0.168,1.231 0.593,3.403 1.607,4.681 l 0,0 c 0.265,0.333 0.652,0.543 1.067,0.645 l 0,0 C 232.916,132.169 238,138.023 238,145 l 0,0 c 0,8.284 -7.163,15 -16,15 l 0,0 c -8.837,0 -16,-6.716 -16,-15" /></g></g></g></g><g
       id="g146"><g
         clip-path="url(#clipPath150)"
         id="g148"><g
           transform="translate(228,113)"
           id="g154"><path
             id="path156"
             style="fill:#999999;fill-opacity:1;fill-rule:nonzero;stroke:none"
             d="M 0,0 C 0,-0.553 0.447,-1 1,-1 1.553,-1 2,-0.553 2,0 2,0.553 1.553,1 1,1 0.447,1 0,0.553 0,0 M 4,0 C 4,-0.553 4.447,-1 5,-1 5.553,-1 6,-0.553 6,0 6,0.553 5.553,1 5,1 4.447,1 4,0.553 4,0 m 4,0 c 0,-0.553 0.447,-1 1,-1 0.553,0 1,0.447 1,1 C 10,0.553 9.553,1 9,1 8.447,1 8,0.553 8,0 M 2,4 C 2,3.447 2.447,3 3,3 3.553,3 4,3.447 4,4 4,4.553 3.553,5 3,5 2.447,5 2,4.553 2,4 M 6,4 C 6,3.447 6.447,3 7,3 7.553,3 8,3.447 8,4 8,4.553 7.553,5 7,5 6.447,5 6,4.553 6,4 m 5,1 c 0.553,0 1,-0.447 1,-1 0,-0.553 -0.447,-1 -1,-1 -0.553,0 -1,0.447 -1,1 0,0.553 0.447,1 1,1" /></g><g
           transform="translate(27,114)"
           id="g158"><path
             id="path160"
             style="fill:#999999;fill-opacity:1;fill-rule:nonzero;stroke:none"
             d="m 0,0 c -0.552,0 -1,-0.447 -1,-1 0,-0.553 0.448,-1 1,-1 0.552,0 1,0.447 1,1 0,0.553 -0.448,1 -1,1 m -4,0 c -0.552,0 -1,-0.447 -1,-1 0,-0.553 0.448,-1 1,-1 0.552,0 1,0.447 1,1 0,0.553 -0.448,1 -1,1 m -4,0 c -0.552,0 -1,-0.447 -1,-1 0,-0.553 0.448,-1 1,-1 0.552,0 1,0.447 1,1 0,0.553 -0.448,1 -1,1 m 6,4 c -0.552,0 -1,-0.447 -1,-1 0,-0.553 0.448,-1 1,-1 0.552,0 1,0.447 1,1 0,0.553 -0.448,1 -1,1 m -4,0 c -0.552,0 -1,-0.447 -1,-1 0,-0.553 0.448,-1 1,-1 0.552,0 1,0.447 1,1 0,0.553 -0.448,1 -1,1 M -9,3 c 0,-0.553 -0.448,-1 -1,-1 -0.552,0 -1,0.447 -1,1 0,0.553 0.448,1 1,1 0.552,0 1,-0.447 1,-1" /></g><g
           transform="translate(212,159)"
           id="g162"><path
             id="path164"
             style="fill:#999999;fill-opacity:1;fill-rule:nonzero;stroke:none"
             d="m 0,0 c 0,-1.657 -1.343,-3 -3,-3 -1.657,0 -3,1.343 -3,3 0,1.657 1.343,3 3,3 1.657,0 3,-1.343 3,-3" /></g><g
           transform="translate(216,98)"
           id="g166"><path
             id="path168"
             style="fill:#999999;fill-opacity:1;fill-rule:nonzero;stroke:none"
             d="m 0,0 c 0,-1.104 -1.791,-2 -4,-2 -2.209,0 -4,0.896 -4,2 0,1.104 1.791,2 4,2 2.209,0 4,-0.896 4,-2" /></g><g
           transform="translate(228,98)"
           id="g170"><path
             id="path172"
             style="fill:#999999;fill-opacity:1;fill-rule:nonzero;stroke:none"
             d="m 0,0 c 0,-1.104 -1.791,-2 -4,-2 -2.209,0 -4,0.896 -4,2 0,1.104 1.791,2 4,2 2.209,0 4,-0.896 4,-2" /></g><g
           transform="translate(46,98)"
           id="g174"><path
             id="path176"
             style="fill:#999999;fill-opacity:1;fill-rule:nonzero;stroke:none"
             d="m 0,0 c 0,-2.209 -3.582,-4 -8,-4 -4.418,0 -8,1.791 -8,4 0,2.209 3.582,4 8,4 4.418,0 8,-1.791 8,-4" /></g></g></g><g
       id="g178"><g
         clip-path="url(#clipPath182)"
         id="g180"><g
           id="g186"><g
             id="g188"><path
               id="path196"
               style="fill:url(#linearGradient190);stroke:none"
               d="m 34,117 c 0,-3.859 3.14,-7 7,-7 l 0,0 c 3.86,0 7,3.141 7,7 l 0,0 c 0,3.859 -3.14,7 -7,7 l 0,0 c -3.86,0 -7,-3.141 -7,-7" /></g></g></g></g><g
       id="g198"><g
         clip-path="url(#clipPath202)"
         id="g200"><g
           id="g206"><g
             id="g208"><path
               id="path216"
               style="fill:url(#linearGradient210);stroke:none"
               d="m 31.5,117 c 0,-5.238 4.262,-9.5 9.5,-9.5 l 0,0 c 5.238,0 9.5,4.262 9.5,9.5 l 0,0 c 0,5.238 -4.262,9.5 -9.5,9.5 l 0,0 c -5.238,0 -9.5,-4.262 -9.5,-9.5 m 1,0 c 0,4.686 3.813,8.5 8.5,8.5 l 0,0 c 4.687,0 8.5,-3.814 8.5,-8.5 l 0,0 c 0,-4.686 -3.813,-8.5 -8.5,-8.5 l 0,0 c -4.687,0 -8.5,3.814 -8.5,8.5" /></g></g></g></g><g
       id="g218"><g
         clip-path="url(#clipPath222)"
         id="g220"><g
           transform="translate(47,117)"
           id="g226"><path
             id="path228"
             style="fill:#999999;fill-opacity:1;fill-rule:nonzero;stroke:none"
             d="m 0,0 c 0,-3.313 -2.687,-6 -6,-6 -3.313,0 -6,2.687 -6,6 0,3.313 2.687,6 6,6 3.313,0 6,-2.687 6,-6" /></g></g></g><g
       id="g230"><g
         clip-path="url(#clipPath234)"
         id="g232"><g
           id="g238"><g
             id="g240"><path
               id="path248"
               style="fill:url(#linearGradient242);stroke:none"
               d="m 208,117 c 0,-3.859 3.141,-7 7,-7 l 0,0 c 3.859,0 7,3.141 7,7 l 0,0 c 0,3.859 -3.141,7 -7,7 l 0,0 c -3.859,0 -7,-3.141 -7,-7" /></g></g></g></g><g
       id="g250"><g
         clip-path="url(#clipPath254)"
         id="g252"><g
           id="g258"><g
             id="g260"><path
               id="path268"
               style="fill:url(#linearGradient262);stroke:none"
               d="m 205.5,117 c 0,-5.238 4.262,-9.5 9.5,-9.5 l 0,0 c 5.238,0 9.5,4.262 9.5,9.5 l 0,0 c 0,5.238 -4.262,9.5 -9.5,9.5 l 0,0 c -5.238,0 -9.5,-4.262 -9.5,-9.5 m 1,0 c 0,4.686 3.813,8.5 8.5,8.5 l 0,0 c 4.687,0 8.5,-3.814 8.5,-8.5 l 0,0 c 0,-4.686 -3.813,-8.5 -8.5,-8.5 l 0,0 c -4.687,0 -8.5,3.814 -8.5,8.5" /></g></g></g></g><g
       id="g270"><g
         clip-path="url(#clipPath274)"
         id="g272"><g
           id="g278"><g
             id="g280"><path
               id="path288"
               style="fill:url(#linearGradient282);stroke:none"
               d="M 29.975,158.161 29.552,157.95 29,157.674 l 0,-0.619 0,-5.999 0,-0.414 L 28.414,150 28,150 l -6,0 -0.618,0 -0.276,-0.552 -0.212,-0.423 c -1.26,-2.52 -1.26,-5.53 0,-8.05 l 0,0 0.212,-0.422 0.276,-0.553 0.618,0 6,0 0.414,0 0.586,-0.531 0,-0.414 0,-5.999 0,-0.618 0.552,-0.277 0.423,-0.211 C 31.218,131.329 32.61,131 34,131 l 0,0 c 1.39,0 2.782,0.329 4.025,0.95 l 0,0 0.422,0.211 0.553,0.277 0,0.618 0,5.999 0,0.414 0.586,0.531 0.414,0 6,0 0.618,0 0.277,0.553 0.21,0.422 c 1.261,2.52 1.261,5.53 0,8.05 l 0,0 -0.21,0.423 -0.277,0.552 -0.618,0 -6,0 -0.414,0 -0.586,0.642 0,0.414 0,5.999 0,0.619 -0.553,0.276 -0.422,0.211 c -1.243,0.622 -2.635,0.951 -4.025,0.951 l 0,0 c -1.39,0 -2.782,-0.329 -4.025,-0.951" /></g></g></g></g><g
       id="g290"><g
         clip-path="url(#clipPath294)"
         id="g292"><g
           transform="translate(221,117)"
           id="g298"><path
             id="path300"
             style="fill:#999999;fill-opacity:1;fill-rule:nonzero;stroke:none"
             d="m 0,0 c 0,-3.313 -2.687,-6 -6,-6 -3.313,0 -6,2.687 -6,6 0,3.313 2.687,6 6,6 3.313,0 6,-2.687 6,-6" /></g><g
           transform="translate(227,135.5)"
           id="g302"><path
             id="path304"
             style="fill:#999999;fill-opacity:1;fill-rule:nonzero;stroke:none"
             d="m 0,0 c 0,-2.761 -2.238,-5 -5,-5 -2.762,0 -5,2.239 -5,5 0,2.761 2.238,5 5,5 2.762,0 5,-2.239 5,-5" /></g><g
           transform="translate(227,154.5)"
           id="g306"><path
             id="path308"
             style="fill:#999999;fill-opacity:1;fill-rule:nonzero;stroke:none"
             d="m 0,0 c 0,-2.761 -2.238,-5 -5,-5 -2.762,0 -5,2.239 -5,5 0,2.761 2.238,5 5,5 2.762,0 5,-2.239 5,-5" /></g><g
           transform="translate(212.5,140)"
           id="g310"><path
             id="path312"
             style="fill:#999999;fill-opacity:1;fill-rule:nonzero;stroke:none"
             d="m 0,0 c -2.762,0 -5,2.239 -5,5 0,2.761 2.238,5 5,5 C 2.762,10 5,7.761 5,5 5,2.239 2.762,0 0,0" /></g><g
           transform="translate(231.5,140)"
           id="g314"><path
             id="path316"
             style="fill:#999999;fill-opacity:1;fill-rule:nonzero;stroke:none"
             d="m 0,0 c -2.762,0 -5,2.239 -5,5 0,2.761 2.238,5 5,5 C 2.762,10 5,7.761 5,5 5,2.239 2.762,0 0,0" /></g><g
           transform="translate(28,141)"
           id="g318"><path
             id="path320"
             style="fill:#999999;fill-opacity:1;fill-rule:nonzero;stroke:none"
             d="m 0,0 -6,0 -0.211,0.422 c -1.126,2.252 -1.126,4.904 0,7.156 L -6,8 0,8 3.293,4.707 c 0.39,-0.391 0.39,-1.023 0,-1.414 L 0,0 Z" /></g><g
           transform="translate(40,149)"
           id="g322"><path
             id="path324"
             style="fill:#999999;fill-opacity:1;fill-rule:nonzero;stroke:none"
             d="m 0,0 6,0 0.211,-0.422 c 1.126,-2.252 1.126,-4.904 0,-7.156 L 6,-8 0,-8 -3.293,-4.707 c -0.391,0.391 -0.391,1.023 0,1.414 L 0,0 Z" /></g><g
           transform="translate(30,151.0557)"
           id="g326"><path
             id="path328"
             style="fill:#999999;fill-opacity:1;fill-rule:nonzero;stroke:none"
             d="m 0,0 0,6 0.422,0.211 c 2.252,1.126 4.903,1.126 7.156,0 L 8,6 8,0 4.707,-3.292 c -0.391,-0.391 -1.023,-0.391 -1.414,0 L 0,0 Z" /></g><g
           transform="translate(38,139.0557)"
           id="g330"><path
             id="path332"
             style="fill:#999999;fill-opacity:1;fill-rule:nonzero;stroke:none"
             d="m 0,0 0,-6 -0.422,-0.211 c -2.253,-1.126 -4.904,-1.126 -7.156,0 L -8,-6 l 0,6 3.293,3.293 c 0.391,0.391 1.023,0.391 1.414,0 L 0,0 Z" /></g></g></g></g></svg>