<?xml version="1.0" encoding="UTF-8" standalone="no"?>
<svg
   xmlns:dc="http://purl.org/dc/elements/1.1/"
   xmlns:cc="http://creativecommons.org/ns#"
   xmlns:rdf="http://www.w3.org/1999/02/22-rdf-syntax-ns#"
   xmlns:svg="http://www.w3.org/2000/svg"
   xmlns="http://www.w3.org/2000/svg"
   viewBox="0 0 320 320"
   height="320"
   width="320"
   xml:space="preserve"
   version="1.1"
   id="svg2"><metadata
     id="metadata8"><rdf:RDF><cc:Work
         rdf:about=""><dc:format>image/svg+xml</dc:format><dc:type
           rdf:resource="http://purl.org/dc/dcmitype/StillImage" /></cc:Work></rdf:RDF></metadata><defs
     id="defs6"><clipPath
       id="clipPath16"
       clipPathUnits="userSpaceOnUse"><path
         id="path18"
         d="m 160.888,159.003 -65.777,0 C 88.052,169.257 76.088,176 62.516,176 l 0,0 c -15.36,0 -28.652,-8.641 -35.113,-21.228 l 0,0 -11.333,0 L 12,71.693 C 12,56.398 24.755,44 40.491,44 l 0,0 c 13.262,0 24.382,8.816 27.554,20.743 l 0,0 c 0.519,1.949 16.943,41.184 16.943,41.184 l 0,0 c 1.785,1.223 3.463,2.584 5.015,4.073 l 0,0 75.994,0 c 1.551,-1.489 3.229,-2.85 5.014,-4.073 l 0,0 c 0,0 16.425,-39.235 16.942,-41.184 l 0,0 C 191.127,52.816 202.246,44 215.509,44 l 0,0 C 231.243,44 244,56.398 244,71.693 l 0,0 -4.071,83.079 -11.333,0 C 222.134,167.359 208.843,176 193.484,176 l 0,0 c -13.572,0 -25.537,-6.743 -32.596,-16.997" /></clipPath><linearGradient
       id="linearGradient24"
       spreadMethod="pad"
       gradientTransform="matrix(-161.12491,161.12491,161.12491,161.12491,208.56213,25.014408)"
       gradientUnits="userSpaceOnUse"
       y2="0"
       x2="1"
       y1="0"
       x1="0"><stop
         id="stop26"
         offset="0"
         style="stop-opacity:1;stop-color:#e6e7e8" /><stop
         id="stop28"
         offset="1"
         style="stop-opacity:1;stop-color:#d1d3d4" /></linearGradient><clipPath
       id="clipPath36"
       clipPathUnits="userSpaceOnUse"><path
         id="path38"
         d="m 84,126 88,0 0,66 -88,0 0,-66 z" /></clipPath><linearGradient
       id="linearGradient44"
       spreadMethod="pad"
       gradientTransform="matrix(-77,77,77,77,166.5,120.5)"
       gradientUnits="userSpaceOnUse"
       y2="0"
       x2="1"
       y1="0"
       x1="0"><stop
         id="stop46"
         offset="0"
         style="stop-opacity:1;stop-color:#e6e7e8" /><stop
         id="stop48"
         offset="1"
         style="stop-opacity:1;stop-color:#d1d3d4" /></linearGradient><clipPath
       id="clipPath56"
       clipPathUnits="userSpaceOnUse"><path
         id="path58"
         d="M 40.118,204.169 36.452,188 l 44,0 -3.667,16.169 C 70.685,206.809 64.708,208 58.828,208 l 0,0 c -6.341,0 -12.568,-1.385 -18.71,-3.831" /></clipPath><linearGradient
       id="linearGradient64"
       spreadMethod="pad"
       gradientTransform="matrix(-28.251076,28.251076,28.251076,28.251076,72.577148,180.12553)"
       gradientUnits="userSpaceOnUse"
       y2="0"
       x2="1"
       y1="0"
       x1="0"><stop
         id="stop66"
         offset="0"
         style="stop-opacity:1;stop-color:#e6e7e8" /><stop
         id="stop68"
         offset="1"
         style="stop-opacity:1;stop-color:#d1d3d4" /></linearGradient><clipPath
       id="clipPath76"
       clipPathUnits="userSpaceOnUse"><path
         id="path78"
         d="M 177.666,204.169 174,188 l 44,0 -3.667,16.169 c -6.1,2.64 -12.077,3.831 -17.957,3.831 l 0,0 c -6.34,0 -12.568,-1.385 -18.71,-3.831" /></clipPath><linearGradient
       id="linearGradient84"
       spreadMethod="pad"
       gradientTransform="matrix(-28.251076,28.251076,28.251076,28.251076,210.12553,180.12553)"
       gradientUnits="userSpaceOnUse"
       y2="0"
       x2="1"
       y1="0"
       x1="0"><stop
         id="stop86"
         offset="0"
         style="stop-opacity:1;stop-color:#e6e7e8" /><stop
         id="stop88"
         offset="1"
         style="stop-opacity:1;stop-color:#d1d3d4" /></linearGradient><clipPath
       id="clipPath96"
       clipPathUnits="userSpaceOnUse"><path
         id="path98"
         d="m 16,156 c 0,-24.3 19.699,-44 44,-44 l 0,0 c 24.3,0 44,19.7 44,44 l 0,0 c 0,24.301 -19.7,44 -44,44 l 0,0 C 35.699,200 16,180.301 16,156" /></clipPath><linearGradient
       id="linearGradient104"
       spreadMethod="pad"
       gradientTransform="matrix(62.225395,-62.225395,-62.225395,-62.225395,28.8873,187.1127)"
       gradientUnits="userSpaceOnUse"
       y2="0"
       x2="1"
       y1="0"
       x1="0"><stop
         id="stop106"
         offset="0"
         style="stop-opacity:1;stop-color:#e6e7e8" /><stop
         id="stop108"
         offset="1"
         style="stop-opacity:1;stop-color:#d1d3d4" /></linearGradient><clipPath
       id="clipPath116"
       clipPathUnits="userSpaceOnUse"><path
         id="path118"
         d="m 152,156 c 0,-24.3 19.699,-44 44,-44 l 0,0 c 24.3,0 44,19.7 44,44 l 0,0 c 0,24.301 -19.7,44 -44,44 l 0,0 c -24.301,0 -44,-19.699 -44,-44" /></clipPath><linearGradient
       id="linearGradient124"
       spreadMethod="pad"
       gradientTransform="matrix(62.225395,-62.225395,-62.225395,-62.225395,164.8873,187.1127)"
       gradientUnits="userSpaceOnUse"
       y2="0"
       x2="1"
       y1="0"
       x1="0"><stop
         id="stop126"
         offset="0"
         style="stop-opacity:1;stop-color:#e6e7e8" /><stop
         id="stop128"
         offset="1"
         style="stop-opacity:1;stop-color:#d1d3d4" /></linearGradient><clipPath
       id="clipPath136"
       clipPathUnits="userSpaceOnUse"><path
         id="path138"
         d="M 0,256 256,256 256,0 0,0 0,256 Z" /></clipPath><clipPath
       id="clipPath148"
       clipPathUnits="userSpaceOnUse"><path
         id="path150"
         d="m 184.366,190 c -0.598,0 -1.082,-0.484 -1.082,-1.082 l 0,0 0,-20.202 -20.202,0 c -0.598,0 -1.082,-0.484 -1.082,-1.082 l 0,0 0,-23.268 c 0,-0.597 0.484,-1.082 1.082,-1.082 l 0,0 20.202,0 0,-20.202 c 0,-0.597 0.484,-1.082 1.082,-1.082 l 0,0 23.268,0 c 0.598,0 1.082,0.485 1.082,1.082 l 0,0 0,20.202 20.202,0 c 0.597,0 1.082,0.485 1.082,1.082 l 0,0 0,23.268 c 0,0.598 -0.485,1.082 -1.082,1.082 l 0,0 -20.202,0 0,20.202 c 0,0.598 -0.484,1.082 -1.082,1.082 l 0,0 -23.268,0 z M 163,144.464 l 0,23.073 c 0,0.197 0.16,0.357 0.358,0.357 l 0,0 20.032,0 0.716,0 0,0.716 0,20.033 c 0,0.197 0.16,0.357 0.357,0.357 l 0,0 23.073,0 c 0.197,0 0.359,-0.16 0.359,-0.357 l 0,0 0,-20.033 0,-0.716 0.715,0 20.032,0 c 0.197,0 0.358,-0.16 0.358,-0.357 l 0,0 0,-23.073 c 0,-0.198 -0.161,-0.359 -0.358,-0.359 l 0,0 -20.032,0 -0.715,0 0,-0.714 0,-20.033 c 0,-0.197 -0.162,-0.358 -0.359,-0.358 l 0,0 -23.073,0 c -0.197,0 -0.357,0.161 -0.357,0.358 l 0,0 0,20.033 0,0.714 -0.716,0 -20.032,0 c -0.198,0 -0.358,0.161 -0.358,0.359" /></clipPath><linearGradient
       id="linearGradient156"
       spreadMethod="pad"
       gradientTransform="matrix(-46.08223,46.08223,46.08223,46.08223,219.04111,132.95889)"
       gradientUnits="userSpaceOnUse"
       y2="0"
       x2="1"
       y1="0"
       x1="0"><stop
         id="stop158"
         offset="0"
         style="stop-opacity:1;stop-color:#e6e7e8" /><stop
         id="stop160"
         offset="1"
         style="stop-opacity:1;stop-color:#d1d3d4" /></linearGradient><clipPath
       id="clipPath168"
       clipPathUnits="userSpaceOnUse"><path
         id="path170"
         d="m 48.366,190 c -0.598,0 -1.082,-0.484 -1.082,-1.082 l 0,0 0,-20.202 -20.202,0 c -0.598,0 -1.082,-0.484 -1.082,-1.082 l 0,0 0,-23.268 c 0,-0.597 0.484,-1.082 1.082,-1.082 l 0,0 20.202,0 0,-20.202 c 0,-0.597 0.484,-1.082 1.082,-1.082 l 0,0 23.268,0 c 0.597,0 1.082,0.485 1.082,1.082 l 0,0 0,20.202 20.202,0 c 0.597,0 1.082,0.485 1.082,1.082 l 0,0 0,23.268 c 0,0.598 -0.485,1.082 -1.082,1.082 l 0,0 -20.202,0 0,20.202 c 0,0.598 -0.485,1.082 -1.082,1.082 l 0,0 -23.268,0 z M 27,144.464 l 0,23.073 c 0,0.197 0.16,0.357 0.357,0.357 l 0,0 20.033,0 0.716,0 0,0.716 0,20.033 c 0,0.197 0.16,0.357 0.357,0.357 l 0,0 23.073,0 c 0.198,0 0.359,-0.16 0.359,-0.357 l 0,0 0,-20.033 0,-0.716 0.715,0 20.032,0 c 0.198,0 0.358,-0.16 0.358,-0.357 l 0,0 0,-23.073 c 0,-0.198 -0.16,-0.359 -0.358,-0.359 l 0,0 -20.032,0 -0.715,0 0,-0.714 0,-20.033 c 0,-0.197 -0.161,-0.358 -0.359,-0.358 l 0,0 -23.073,0 c -0.197,0 -0.357,0.161 -0.357,0.358 l 0,0 0,20.033 0,0.714 -0.716,0 -20.033,0 c -0.197,0 -0.357,0.161 -0.357,0.359" /></clipPath><linearGradient
       id="linearGradient176"
       spreadMethod="pad"
       gradientTransform="matrix(-46.08223,46.08223,46.08223,46.08223,83.041115,132.95889)"
       gradientUnits="userSpaceOnUse"
       y2="0"
       x2="1"
       y1="0"
       x1="0"><stop
         id="stop178"
         offset="0"
         style="stop-opacity:1;stop-color:#e6e7e8" /><stop
         id="stop180"
         offset="1"
         style="stop-opacity:1;stop-color:#d1d3d4" /></linearGradient><clipPath
       id="clipPath188"
       clipPathUnits="userSpaceOnUse"><path
         id="path190"
         d="M 0,256 256,256 256,0 0,0 0,256 Z" /></clipPath><clipPath
       id="clipPath212"
       clipPathUnits="userSpaceOnUse"><path
         id="path214"
         d="m 88,152 4,4 -4,4 0,-8 z" /></clipPath><linearGradient
       id="linearGradient220"
       spreadMethod="pad"
       gradientTransform="matrix(-3.9999998,3.9999998,3.9999998,3.9999998,90,154)"
       gradientUnits="userSpaceOnUse"
       y2="0"
       x2="1"
       y1="0"
       x1="0"><stop
         id="stop222"
         offset="0"
         style="stop-opacity:1;stop-color:#e6e7e8" /><stop
         id="stop224"
         offset="1"
         style="stop-opacity:1;stop-color:#d1d3d4" /></linearGradient><clipPath
       id="clipPath232"
       clipPathUnits="userSpaceOnUse"><path
         id="path234"
         d="m 28,156 4,-4 0,8 -4,-4 z" /></clipPath><linearGradient
       id="linearGradient240"
       spreadMethod="pad"
       gradientTransform="matrix(-3.9999998,3.9999998,3.9999998,3.9999998,34,154)"
       gradientUnits="userSpaceOnUse"
       y2="0"
       x2="1"
       y1="0"
       x1="0"><stop
         id="stop242"
         offset="0"
         style="stop-opacity:1;stop-color:#e6e7e8" /><stop
         id="stop244"
         offset="1"
         style="stop-opacity:1;stop-color:#d1d3d4" /></linearGradient><clipPath
       id="clipPath252"
       clipPathUnits="userSpaceOnUse"><path
         id="path254"
         d="m 56,128 4,-4 4,4 -8,0 z" /></clipPath><linearGradient
       id="linearGradient260"
       spreadMethod="pad"
       gradientTransform="matrix(-3.9999998,3.9999998,3.9999998,3.9999998,62,126)"
       gradientUnits="userSpaceOnUse"
       y2="0"
       x2="1"
       y1="0"
       x1="0"><stop
         id="stop262"
         offset="0"
         style="stop-opacity:1;stop-color:#e6e7e8" /><stop
         id="stop264"
         offset="1"
         style="stop-opacity:1;stop-color:#d1d3d4" /></linearGradient><clipPath
       id="clipPath272"
       clipPathUnits="userSpaceOnUse"><path
         id="path274"
         d="m 56,184 8,0 -4,4 -4,-4 z" /></clipPath><linearGradient
       id="linearGradient280"
       spreadMethod="pad"
       gradientTransform="matrix(-3.9999998,3.9999998,3.9999998,3.9999998,62,182)"
       gradientUnits="userSpaceOnUse"
       y2="0"
       x2="1"
       y1="0"
       x1="0"><stop
         id="stop282"
         offset="0"
         style="stop-opacity:1;stop-color:#e6e7e8" /><stop
         id="stop284"
         offset="1"
         style="stop-opacity:1;stop-color:#d1d3d4" /></linearGradient><clipPath
       id="clipPath292"
       clipPathUnits="userSpaceOnUse"><path
         id="path294"
         d="M 0,256 256,256 256,0 0,0 0,256 Z" /></clipPath><clipPath
       id="clipPath300"
       clipPathUnits="userSpaceOnUse"><path
         id="path302"
         d="m 36,164 20,0 0,-16 -20,0 0,16 z" /></clipPath></defs><g
     transform="matrix(1.25,0,0,-1.25,0,320)"
     id="g10"><g
       id="g12"><g
         clip-path="url(#clipPath16)"
         id="g14"><g
           id="g20"><g
             id="g22"><path
               id="path30"
               style="fill:url(#linearGradient24);stroke:none"
               d="m 160.888,159.003 -65.777,0 C 88.052,169.257 76.088,176 62.516,176 l 0,0 c -15.36,0 -28.652,-8.641 -35.113,-21.228 l 0,0 -11.333,0 L 12,71.693 C 12,56.398 24.755,44 40.491,44 l 0,0 c 13.262,0 24.382,8.816 27.554,20.743 l 0,0 c 0.519,1.949 16.943,41.184 16.943,41.184 l 0,0 c 1.785,1.223 3.463,2.584 5.015,4.073 l 0,0 75.994,0 c 1.551,-1.489 3.229,-2.85 5.014,-4.073 l 0,0 c 0,0 16.425,-39.235 16.942,-41.184 l 0,0 C 191.127,52.816 202.246,44 215.509,44 l 0,0 C 231.243,44 244,56.398 244,71.693 l 0,0 -4.071,83.079 -11.333,0 C 222.134,167.359 208.843,176 193.484,176 l 0,0 c -13.572,0 -25.537,-6.743 -32.596,-16.997" /></g></g></g></g><g
       id="g32"><g
         clip-path="url(#clipPath36)"
         id="g34"><g
           id="g40"><g
             id="g42"><path
               id="path50"
               style="fill:url(#linearGradient44);stroke:none"
               d="m 84,126 88,0 0,66 -88,0 0,-66 z" /></g></g></g></g><g
       id="g52"><g
         clip-path="url(#clipPath56)"
         id="g54"><g
           id="g60"><g
             id="g62"><path
               id="path70"
               style="fill:url(#linearGradient64);stroke:none"
               d="M 40.118,204.169 36.452,188 l 44,0 -3.667,16.169 C 70.685,206.809 64.708,208 58.828,208 l 0,0 c -6.341,0 -12.568,-1.385 -18.71,-3.831" /></g></g></g></g><g
       id="g72"><g
         clip-path="url(#clipPath76)"
         id="g74"><g
           id="g80"><g
             id="g82"><path
               id="path90"
               style="fill:url(#linearGradient84);stroke:none"
               d="M 177.666,204.169 174,188 l 44,0 -3.667,16.169 c -6.1,2.64 -12.077,3.831 -17.957,3.831 l 0,0 c -6.34,0 -12.568,-1.385 -18.71,-3.831" /></g></g></g></g><g
       id="g92"><g
         clip-path="url(#clipPath96)"
         id="g94"><g
           id="g100"><g
             id="g102"><path
               id="path110"
               style="fill:url(#linearGradient104);stroke:none"
               d="m 16,156 c 0,-24.3 19.699,-44 44,-44 l 0,0 c 24.3,0 44,19.7 44,44 l 0,0 c 0,24.301 -19.7,44 -44,44 l 0,0 C 35.699,200 16,180.301 16,156" /></g></g></g></g><g
       id="g112"><g
         clip-path="url(#clipPath116)"
         id="g114"><g
           id="g120"><g
             id="g122"><path
               id="path130"
               style="fill:url(#linearGradient124);stroke:none"
               d="m 152,156 c 0,-24.3 19.699,-44 44,-44 l 0,0 c 24.3,0 44,19.7 44,44 l 0,0 c 0,24.301 -19.7,44 -44,44 l 0,0 c -24.301,0 -44,-19.699 -44,-44" /></g></g></g></g><g
       id="g132"><g
         clip-path="url(#clipPath136)"
         id="g134"><g
           transform="translate(110,148)"
           id="g140"><path
             id="path142"
             style="fill:#999999;fill-opacity:1;fill-rule:nonzero;stroke:none"
             d="m 0,0 12,0 c 1.105,0 2,-0.895 2,-2 l 0,-4 c 0,-1.105 -0.895,-2 -2,-2 L 0,-8 c -1.105,0 -2,0.895 -2,2 l 0,4 c 0,1.105 0.895,2 2,2" /></g></g></g><g
       id="g144"><g
         clip-path="url(#clipPath148)"
         id="g146"><g
           id="g152"><g
             id="g154"><path
               id="path162"
               style="fill:url(#linearGradient156);stroke:none"
               d="m 184.366,190 c -0.598,0 -1.082,-0.484 -1.082,-1.082 l 0,0 0,-20.202 -20.202,0 c -0.598,0 -1.082,-0.484 -1.082,-1.082 l 0,0 0,-23.268 c 0,-0.597 0.484,-1.082 1.082,-1.082 l 0,0 20.202,0 0,-20.202 c 0,-0.597 0.484,-1.082 1.082,-1.082 l 0,0 23.268,0 c 0.598,0 1.082,0.485 1.082,1.082 l 0,0 0,20.202 20.202,0 c 0.597,0 1.082,0.485 1.082,1.082 l 0,0 0,23.268 c 0,0.598 -0.485,1.082 -1.082,1.082 l 0,0 -20.202,0 0,20.202 c 0,0.598 -0.484,1.082 -1.082,1.082 l 0,0 -23.268,0 z M 163,144.464 l 0,23.073 c 0,0.197 0.16,0.357 0.358,0.357 l 0,0 20.032,0 0.716,0 0,0.716 0,20.033 c 0,0.197 0.16,0.357 0.357,0.357 l 0,0 23.073,0 c 0.197,0 0.359,-0.16 0.359,-0.357 l 0,0 0,-20.033 0,-0.716 0.715,0 20.032,0 c 0.197,0 0.358,-0.16 0.358,-0.357 l 0,0 0,-23.073 c 0,-0.198 -0.161,-0.359 -0.358,-0.359 l 0,0 -20.032,0 -0.715,0 0,-0.714 0,-20.033 c 0,-0.197 -0.162,-0.358 -0.359,-0.358 l 0,0 -23.073,0 c -0.197,0 -0.357,0.161 -0.357,0.358 l 0,0 0,20.033 0,0.714 -0.716,0 -20.032,0 c -0.198,0 -0.358,0.161 -0.358,0.359" /></g></g></g></g><g
       id="g164"><g
         clip-path="url(#clipPath168)"
         id="g166"><g
           id="g172"><g
             id="g174"><path
               id="path182"
               style="fill:url(#linearGradient176);stroke:none"
               d="m 48.366,190 c -0.598,0 -1.082,-0.484 -1.082,-1.082 l 0,0 0,-20.202 -20.202,0 c -0.598,0 -1.082,-0.484 -1.082,-1.082 l 0,0 0,-23.268 c 0,-0.597 0.484,-1.082 1.082,-1.082 l 0,0 20.202,0 0,-20.202 c 0,-0.597 0.484,-1.082 1.082,-1.082 l 0,0 23.268,0 c 0.597,0 1.082,0.485 1.082,1.082 l 0,0 0,20.202 20.202,0 c 0.597,0 1.082,0.485 1.082,1.082 l 0,0 0,23.268 c 0,0.598 -0.485,1.082 -1.082,1.082 l 0,0 -20.202,0 0,20.202 c 0,0.598 -0.485,1.082 -1.082,1.082 l 0,0 -23.268,0 z M 27,144.464 l 0,23.073 c 0,0.197 0.16,0.357 0.357,0.357 l 0,0 20.033,0 0.716,0 0,0.716 0,20.033 c 0,0.197 0.16,0.357 0.357,0.357 l 0,0 23.073,0 c 0.198,0 0.359,-0.16 0.359,-0.357 l 0,0 0,-20.033 0,-0.716 0.715,0 20.032,0 c 0.198,0 0.358,-0.16 0.358,-0.357 l 0,0 0,-23.073 c 0,-0.198 -0.16,-0.359 -0.358,-0.359 l 0,0 -20.032,0 -0.715,0 0,-0.714 0,-20.033 c 0,-0.197 -0.161,-0.358 -0.359,-0.358 l 0,0 -23.073,0 c -0.197,0 -0.357,0.161 -0.357,0.358 l 0,0 0,20.033 0,0.714 -0.716,0 -20.033,0 c -0.197,0 -0.357,0.161 -0.357,0.359" /></g></g></g></g><g
       id="g184"><g
         clip-path="url(#clipPath188)"
         id="g186"><g
           transform="translate(206,178)"
           id="g192"><path
             id="path194"
             style="fill:#999999;fill-opacity:1;fill-rule:nonzero;stroke:none"
             d="m 0,0 c 0,-5.523 -4.477,-10 -10,-10 -5.523,0 -10,4.477 -10,10 0,5.523 4.477,10 10,10 C -4.477,10 0,5.523 0,0" /></g><g
           transform="translate(206,134)"
           id="g196"><path
             id="path198"
             style="fill:#999999;fill-opacity:1;fill-rule:nonzero;stroke:none"
             d="m 0,0 c 0,-5.523 -4.477,-10 -10,-10 -5.523,0 -10,4.477 -10,10 0,5.523 4.477,10 10,10 C -4.477,10 0,5.523 0,0" /></g><g
           transform="translate(228,156)"
           id="g200"><path
             id="path202"
             style="fill:#999999;fill-opacity:1;fill-rule:nonzero;stroke:none"
             d="m 0,0 c 0,-5.523 -4.477,-10 -10,-10 -5.523,0 -10,4.477 -10,10 0,5.523 4.477,10 10,10 C -4.477,10 0,5.523 0,0" /></g><g
           transform="translate(184,156)"
           id="g204"><path
             id="path206"
             style="fill:#999999;fill-opacity:1;fill-rule:nonzero;stroke:none"
             d="m 0,0 c 0,-5.523 -4.477,-10 -10,-10 -5.523,0 -10,4.477 -10,10 0,5.523 4.477,10 10,10 C -4.477,10 0,5.523 0,0" /></g></g></g><g
       id="g208"><g
         clip-path="url(#clipPath212)"
         id="g210"><g
           id="g216"><g
             id="g218"><path
               id="path226"
               style="fill:url(#linearGradient220);stroke:none"
               d="m 88,152 4,4 -4,4 0,-8 z" /></g></g></g></g><g
       id="g228"><g
         clip-path="url(#clipPath232)"
         id="g230"><g
           id="g236"><g
             id="g238"><path
               id="path246"
               style="fill:url(#linearGradient240);stroke:none"
               d="m 28,156 4,-4 0,8 -4,-4 z" /></g></g></g></g><g
       id="g248"><g
         clip-path="url(#clipPath252)"
         id="g250"><g
           id="g256"><g
             id="g258"><path
               id="path266"
               style="fill:url(#linearGradient260);stroke:none"
               d="m 56,128 4,-4 4,4 -8,0 z" /></g></g></g></g><g
       id="g268"><g
         clip-path="url(#clipPath272)"
         id="g270"><g
           id="g276"><g
             id="g278"><path
               id="path286"
               style="fill:url(#linearGradient280);stroke:none"
               d="m 56,184 8,0 -4,4 -4,-4 z" /></g></g></g></g><g
       id="g288"><g
         clip-path="url(#clipPath292)"
         id="g290"><g
           id="g296"><g
             id="g298" /><g
             id="g304"><g
               id="g306"
               clip-path="url(#clipPath300)"><g
                 id="g308"
                 transform="translate(36,162.7573)"><path
                   id="path310"
                   style="fill:#999999;fill-opacity:1;fill-rule:nonzero;stroke:none"
                   d="m 0,0 0,-13.515 c 0,-0.686 0.615,-1.242 1.373,-1.242 l 8.959,0 c 1.133,0 2.241,0.309 3.162,0.906 2.308,1.493 6.506,4.559 6.506,7.094 0,2.421 -3.378,5.327 -5.454,6.884 -0.974,0.731 -2.204,1.116 -3.469,1.116 l -9.704,0 C 0.615,1.243 0,0.686 0,0" /></g></g></g></g><g
           transform="translate(84,149.2427)"
           id="g312"><path
             id="path314"
             style="fill:#999999;fill-opacity:1;fill-rule:nonzero;stroke:none"
             d="m 0,0 0,13.515 c 0,0.686 -0.615,1.242 -1.373,1.242 l -8.959,0 c -1.133,0 -2.241,-0.309 -3.162,-0.906 C -15.802,12.358 -20,9.292 -20,6.757 c 0,-2.421 3.378,-5.327 5.454,-6.884 0.974,-0.731 2.204,-1.116 3.469,-1.116 l 9.704,0 C -0.615,-1.243 0,-0.686 0,0" /></g><g
           transform="translate(66.7573,180)"
           id="g316"><path
             id="path318"
             style="fill:#999999;fill-opacity:1;fill-rule:nonzero;stroke:none"
             d="m 0,0 -13.515,0 c -0.686,0 -1.242,-0.615 -1.242,-1.373 l 0,-8.959 c 0,-1.133 0.309,-2.241 0.906,-3.162 1.493,-2.308 4.559,-6.506 7.094,-6.506 2.421,0 5.327,3.378 6.884,5.454 0.731,0.974 1.116,2.204 1.116,3.469 l 0,9.704 C 1.243,-0.615 0.686,0 0,0" /></g><g
           transform="translate(53.2427,132)"
           id="g320"><path
             id="path322"
             style="fill:#999999;fill-opacity:1;fill-rule:nonzero;stroke:none"
             d="m 0,0 13.515,0 c 0.686,0 1.242,0.615 1.242,1.373 l 0,8.959 c 0,1.133 -0.309,2.241 -0.906,3.162 C 12.358,15.802 9.292,20 6.757,20 4.336,20 1.43,16.622 -0.127,14.546 -0.858,13.572 -1.243,12.342 -1.243,11.077 l 0,-9.704 C -1.243,0.615 -0.686,0 0,0" /></g><g
           transform="translate(131.9823,147.9674)"
           id="g324"><path
             id="path326"
             style="fill:#999999;fill-opacity:1;fill-rule:nonzero;stroke:none"
             d="m 0,0 13.515,-2.924 c 1.255,-0.272 1.255,-1.815 0,-2.087 L 0,-7.935 c -0.784,-0.169 -1.544,0.344 -1.544,1.044 l 0,5.848 C -1.544,-0.344 -0.784,0.17 0,0" /></g></g></g></g></svg>