<?xml version="1.0" encoding="UTF-8" standalone="no"?>
<svg
   xmlns:dc="http://purl.org/dc/elements/1.1/"
   xmlns:cc="http://creativecommons.org/ns#"
   xmlns:rdf="http://www.w3.org/1999/02/22-rdf-syntax-ns#"
   xmlns:svg="http://www.w3.org/2000/svg"
   xmlns="http://www.w3.org/2000/svg"
   viewBox="0 0 341.33334 341.33334"
   height="256"
   width="256"
   xml:space="preserve"
   id="svg2"
   version="1.1"><metadata
     id="metadata8"><rdf:RDF><cc:Work
         rdf:about=""><dc:format>image/svg+xml</dc:format><dc:type
           rdf:resource="http://purl.org/dc/dcmitype/StillImage" /></cc:Work></rdf:RDF></metadata><defs
     id="defs6"><clipPath
       id="clipPath18"
       clipPathUnits="userSpaceOnUse"><path
         id="path16"
         d="m 122.507,159.516 -0.776,-6.217 c -4.047,-1.023 -7.73,-3.021 -10.779,-5.739 v 0 l -7.371,3.838 c -3.143,-3.23 -5.262,-8.179 -6.827,-12.535 v 0 l 6.445,-3.699 c -0.549,-1.954 -0.889,-4.006 -0.972,-6.129 v 0 c -0.083,-2.123 0.095,-4.192 0.489,-6.188 v 0 L 96,119.678 c 1.218,-4.469 2.943,-9.573 5.822,-13.044 v 0 l 7.649,3.231 c 2.827,-2.954 6.342,-5.241 10.296,-6.585 v 0 l 0.286,-6.259 c 2.153,-0.557 4.386,-0.904 6.691,-0.996 v 0 c 2.305,-0.092 4.558,0.073 6.742,0.459 v 0 l 0.78,6.218 c 4.053,1.021 7.732,3.019 10.782,5.738 v 0 l 7.371,-3.838 c 3.14,3.23 5.265,8.179 6.828,12.536 v 0 l -6.447,3.698 c 0.555,1.957 0.893,4.006 0.976,6.129 v 0 c 0.083,2.123 -0.092,4.196 -0.492,6.187 v 0 l 6.716,3.171 c -1.215,4.468 -2.946,9.572 -5.822,13.044 v 0 l -7.65,-3.232 c -2.826,2.954 -6.338,5.241 -10.298,6.585 v 0 l -0.289,6.26 c -2.148,0.557 -4.38,0.902 -6.685,0.995 v 0 c -0.419,0.017 -0.837,0.025 -1.252,0.025 v 0 c -1.871,0 -3.704,-0.168 -5.497,-0.484 m 4.992,-44.29 c -6.986,0.281 -12.425,6.238 -12.148,13.295 v 0 c 0.277,7.066 6.166,12.566 13.152,12.285 v 0 c 6.986,-0.281 12.424,-6.234 12.147,-13.301 v 0 c -0.27,-6.884 -5.882,-12.289 -12.64,-12.289 v 0 c -0.17,0 -0.34,0.003 -0.511,0.01" /></clipPath><linearGradient
       id="linearGradient28"
       spreadMethod="pad"
       gradientTransform="matrix(47.817772,-47.817772,-47.817772,-47.817772,104.09112,151.90889)"
       gradientUnits="userSpaceOnUse"
       y2="0"
       x2="1"
       y1="0"
       x1="0"><stop
         id="stop24"
         offset="0"
         style="stop-opacity:1;stop-color:#e6e7e8" /><stop
         id="stop26"
         offset="1"
         style="stop-opacity:1;stop-color:#d1d3d4" /></linearGradient></defs><g
     transform="matrix(1.3333333,0,0,-1.3333333,0,341.33333)"
     id="g10"><g
       id="g12"><g
         clip-path="url(#clipPath18)"
         id="g14"><g
           id="g20"><g
             id="g22"><path
               id="path30"
               style="fill:url(#linearGradient28);stroke:none"
               d="m 122.507,159.516 -0.776,-6.217 c -4.047,-1.023 -7.73,-3.021 -10.779,-5.739 v 0 l -7.371,3.838 c -3.143,-3.23 -5.262,-8.179 -6.827,-12.535 v 0 l 6.445,-3.699 c -0.549,-1.954 -0.889,-4.006 -0.972,-6.129 v 0 c -0.083,-2.123 0.095,-4.192 0.489,-6.188 v 0 L 96,119.678 c 1.218,-4.469 2.943,-9.573 5.822,-13.044 v 0 l 7.649,3.231 c 2.827,-2.954 6.342,-5.241 10.296,-6.585 v 0 l 0.286,-6.259 c 2.153,-0.557 4.386,-0.904 6.691,-0.996 v 0 c 2.305,-0.092 4.558,0.073 6.742,0.459 v 0 l 0.78,6.218 c 4.053,1.021 7.732,3.019 10.782,5.738 v 0 l 7.371,-3.838 c 3.14,3.23 5.265,8.179 6.828,12.536 v 0 l -6.447,3.698 c 0.555,1.957 0.893,4.006 0.976,6.129 v 0 c 0.083,2.123 -0.092,4.196 -0.492,6.187 v 0 l 6.716,3.171 c -1.215,4.468 -2.946,9.572 -5.822,13.044 v 0 l -7.65,-3.232 c -2.826,2.954 -6.338,5.241 -10.298,6.585 v 0 l -0.289,6.26 c -2.148,0.557 -4.38,0.902 -6.685,0.995 v 0 c -0.419,0.017 -0.837,0.025 -1.252,0.025 v 0 c -1.871,0 -3.704,-0.168 -5.497,-0.484 m 4.992,-44.29 c -6.986,0.281 -12.425,6.238 -12.148,13.295 v 0 c 0.277,7.066 6.166,12.566 13.152,12.285 v 0 c 6.986,-0.281 12.424,-6.234 12.147,-13.301 v 0 c -0.27,-6.884 -5.882,-12.289 -12.64,-12.289 v 0 c -0.17,0 -0.34,0.003 -0.511,0.01" /></g></g></g></g></g></svg>