<?xml version="1.0" encoding="UTF-8" standalone="no"?>
<svg
   xmlns:dc="http://purl.org/dc/elements/1.1/"
   xmlns:cc="http://creativecommons.org/ns#"
   xmlns:rdf="http://www.w3.org/1999/02/22-rdf-syntax-ns#"
   xmlns:svg="http://www.w3.org/2000/svg"
   xmlns="http://www.w3.org/2000/svg"
   viewBox="0 0 320 320"
   height="320"
   width="320"
   xml:space="preserve"
   version="1.1"
   id="svg2"><metadata
     id="metadata8"><rdf:RDF><cc:Work
         rdf:about=""><dc:format>image/svg+xml</dc:format><dc:type
           rdf:resource="http://purl.org/dc/dcmitype/StillImage" /></cc:Work></rdf:RDF></metadata><defs
     id="defs6"><clipPath
       id="clipPath16"
       clipPathUnits="userSpaceOnUse"><path
         id="path18"
         d="m 88.163,176.953 c -0.751,1.442 -2.308,2.287 -3.932,1.905 l 0,0 -35.114,-8.285 c -1.935,-0.455 -3.148,-2.449 -2.706,-4.443 l 0,0 0.153,-0.698 C 39.511,162.261 33.542,158.624 29.026,154.57 l 0,0 0.011,-0.027 C 18.672,146.061 12,133.714 12,118.286 l 0,0 C 12,95.143 30.71,72 56.903,72 l 0,0 c 7.484,0 16.533,3.09 20.143,4.96 l 0,0 C 94.424,83.166 106.997,87.429 128,87.429 l 0,0 c 21.003,0 33.576,-4.263 50.954,-10.469 l 0,0 C 182.565,75.09 191.613,72 199.097,72 l 0,0 C 225.291,72 244,95.143 244,118.286 l 0,0 c 0,15.428 -6.672,27.775 -17.041,36.253 l 0,0 0.011,0.027 c -4.512,4.062 -10.489,7.691 -17.542,10.862 l 0,0 0.154,0.698 c 0.441,1.998 -0.771,3.988 -2.706,4.443 l 0,0 -35.114,8.285 c -1.624,0.382 -3.185,-0.462 -3.929,-1.905 l 0,0 C 155.189,178.935 141.665,180 128,180 l 0,0 c -13.666,0 -27.193,-1.065 -39.837,-3.047" /></clipPath><linearGradient
       id="linearGradient24"
       spreadMethod="pad"
       gradientTransform="matrix(-135.41214,135.41214,135.41214,135.41214,195.70479,50.734139)"
       gradientUnits="userSpaceOnUse"
       y2="0"
       x2="1"
       y1="0"
       x1="0"><stop
         id="stop26"
         offset="0"
         style="stop-opacity:1;stop-color:#e6e7e8" /><stop
         id="stop28"
         offset="1"
         style="stop-opacity:1;stop-color:#d1d3d4" /></linearGradient><clipPath
       id="clipPath36"
       clipPathUnits="userSpaceOnUse"><path
         id="path38"
         d="M 12,118 C 12,92.595 32.595,72 58,72 l 0,0 c 25.405,0 46,20.595 46,46 l 0,0 c 0,25.405 -20.595,46 -46,46 l 0,0 C 32.595,164 12,143.405 12,118" /></clipPath><linearGradient
       id="linearGradient44"
       spreadMethod="pad"
       gradientTransform="matrix(65.053825,-65.053825,-65.053825,-65.053825,25.473087,150.52692)"
       gradientUnits="userSpaceOnUse"
       y2="0"
       x2="1"
       y1="0"
       x1="0"><stop
         id="stop46"
         offset="0"
         style="stop-opacity:1;stop-color:#e6e7e8" /><stop
         id="stop48"
         offset="1"
         style="stop-opacity:1;stop-color:#d1d3d4" /></linearGradient><clipPath
       id="clipPath56"
       clipPathUnits="userSpaceOnUse"><path
         id="path58"
         d="m 152,118 c 0,-25.405 20.595,-46 46,-46 l 0,0 c 25.405,0 46,20.595 46,46 l 0,0 c 0,25.405 -20.595,46 -46,46 l 0,0 c -25.405,0 -46,-20.595 -46,-46" /></clipPath><linearGradient
       id="linearGradient64"
       spreadMethod="pad"
       gradientTransform="matrix(65.053825,-65.053825,-65.053825,-65.053825,165.47308,150.52692)"
       gradientUnits="userSpaceOnUse"
       y2="0"
       x2="1"
       y1="0"
       x1="0"><stop
         id="stop66"
         offset="0"
         style="stop-opacity:1;stop-color:#e6e7e8" /><stop
         id="stop68"
         offset="1"
         style="stop-opacity:1;stop-color:#d1d3d4" /></linearGradient><clipPath
       id="clipPath76"
       clipPathUnits="userSpaceOnUse"><path
         id="path78"
         d="M 0,256 256,256 256,0 0,0 0,256 Z" /></clipPath><clipPath
       id="clipPath100"
       clipPathUnits="userSpaceOnUse"><path
         id="path102"
         d="m 42,124 c 0,-12.151 9.85,-22 22,-22 l 0,0 c 12.15,0 22,9.849 22,22 l 0,0 c 0,12.15 -9.85,22 -22,22 l 0,0 c -12.15,0 -22,-9.85 -22,-22" /></clipPath><linearGradient
       id="linearGradient108"
       spreadMethod="pad"
       gradientTransform="matrix(-31.112698,31.112698,31.112698,31.112698,79.556351,108.4436)"
       gradientUnits="userSpaceOnUse"
       y2="0"
       x2="1"
       y1="0"
       x1="0"><stop
         id="stop110"
         offset="0"
         style="stop-opacity:1;stop-color:#e6e7e8" /><stop
         id="stop112"
         offset="1"
         style="stop-opacity:1;stop-color:#d1d3d4" /></linearGradient><clipPath
       id="clipPath120"
       clipPathUnits="userSpaceOnUse"><path
         id="path122"
         d="m 62.391,146 c -2.627,0 -4.767,-2.139 -4.767,-4.767 l 0,0 0,-7.15 c 0,-2.044 -1.663,-3.707 -3.707,-3.707 l 0,0 -7.151,0 c -2.627,0 -4.766,-2.14 -4.766,-4.767 l 0,0 0,-3.216 c 0,-2.627 2.139,-4.767 4.766,-4.767 l 0,0 7.151,0 c 2.044,0 3.707,-1.663 3.707,-3.707 l 0,0 0,-7.153 c 0,-2.627 2.14,-4.766 4.767,-4.766 l 0,0 3.216,0 c 2.627,0 4.767,2.139 4.767,4.766 l 0,0 0,7.153 c 0,2.044 1.663,3.707 3.707,3.707 l 0,0 7.153,0 c 2.627,0 4.766,2.14 4.766,4.767 l 0,0 0,3.216 c 0,2.627 -2.139,4.767 -4.766,4.767 l 0,0 -7.153,0 c -2.044,0 -3.707,1.663 -3.707,3.707 l 0,0 0,7.15 c 0,2.628 -2.14,4.767 -4.767,4.767 l 0,0 -3.216,0 z" /></clipPath><linearGradient
       id="linearGradient128"
       spreadMethod="pad"
       gradientTransform="matrix(25.578749,-25.578749,-25.578749,-25.578749,51.21011,136.78984)"
       gradientUnits="userSpaceOnUse"
       y2="0"
       x2="1"
       y1="0"
       x1="0"><stop
         id="stop130"
         offset="0"
         style="stop-opacity:1;stop-color:#e6e7e8" /><stop
         id="stop132"
         offset="1"
         style="stop-opacity:1;stop-color:#d1d3d4" /></linearGradient><clipPath
       id="clipPath140"
       clipPathUnits="userSpaceOnUse"><path
         id="path142"
         d="M 0,256 256,256 256,0 0,0 0,256 Z" /></clipPath><clipPath
       id="clipPath152"
       clipPathUnits="userSpaceOnUse"><path
         id="path154"
         d="m 60,124 c 0,-2.209 1.791,-4 4,-4 l 0,0 c 2.209,0 4,1.791 4,4 l 0,0 c 0,2.209 -1.791,4 -4,4 l 0,0 c -2.209,0 -4,-1.791 -4,-4" /></clipPath><linearGradient
       id="linearGradient160"
       spreadMethod="pad"
       gradientTransform="matrix(5.6568542,-5.6568542,-5.6568542,-5.6568542,61.171574,126.82838)"
       gradientUnits="userSpaceOnUse"
       y2="0"
       x2="1"
       y1="0"
       x1="0"><stop
         id="stop162"
         offset="0"
         style="stop-opacity:1;stop-color:#e6e7e8" /><stop
         id="stop164"
         offset="1"
         style="stop-opacity:1;stop-color:#d1d3d4" /></linearGradient><clipPath
       id="clipPath172"
       clipPathUnits="userSpaceOnUse"><path
         id="path174"
         d="M 0,256 256,256 256,0 0,0 0,256 Z" /></clipPath></defs><g
     transform="matrix(1.25,0,0,-1.25,0,320)"
     id="g10"><g
       id="g12"><g
         clip-path="url(#clipPath16)"
         id="g14"><g
           id="g20"><g
             id="g22"><path
               id="path30"
               style="fill:url(#linearGradient24);stroke:none"
               d="m 88.163,176.953 c -0.751,1.442 -2.308,2.287 -3.932,1.905 l 0,0 -35.114,-8.285 c -1.935,-0.455 -3.148,-2.449 -2.706,-4.443 l 0,0 0.153,-0.698 C 39.511,162.261 33.542,158.624 29.026,154.57 l 0,0 0.011,-0.027 C 18.672,146.061 12,133.714 12,118.286 l 0,0 C 12,95.143 30.71,72 56.903,72 l 0,0 c 7.484,0 16.533,3.09 20.143,4.96 l 0,0 C 94.424,83.166 106.997,87.429 128,87.429 l 0,0 c 21.003,0 33.576,-4.263 50.954,-10.469 l 0,0 C 182.565,75.09 191.613,72 199.097,72 l 0,0 C 225.291,72 244,95.143 244,118.286 l 0,0 c 0,15.428 -6.672,27.775 -17.041,36.253 l 0,0 0.011,0.027 c -4.512,4.062 -10.489,7.691 -17.542,10.862 l 0,0 0.154,0.698 c 0.441,1.998 -0.771,3.988 -2.706,4.443 l 0,0 -35.114,8.285 c -1.624,0.382 -3.185,-0.462 -3.929,-1.905 l 0,0 C 155.189,178.935 141.665,180 128,180 l 0,0 c -13.666,0 -27.193,-1.065 -39.837,-3.047" /></g></g></g></g><g
       id="g32"><g
         clip-path="url(#clipPath36)"
         id="g34"><g
           id="g40"><g
             id="g42"><path
               id="path50"
               style="fill:url(#linearGradient44);stroke:none"
               d="M 12,118 C 12,92.595 32.595,72 58,72 l 0,0 c 25.405,0 46,20.595 46,46 l 0,0 c 0,25.405 -20.595,46 -46,46 l 0,0 C 32.595,164 12,143.405 12,118" /></g></g></g></g><g
       id="g52"><g
         clip-path="url(#clipPath56)"
         id="g54"><g
           id="g60"><g
             id="g62"><path
               id="path70"
               style="fill:url(#linearGradient64);stroke:none"
               d="m 152,118 c 0,-25.405 20.595,-46 46,-46 l 0,0 c 25.405,0 46,20.595 46,46 l 0,0 c 0,25.405 -20.595,46 -46,46 l 0,0 c -25.405,0 -46,-20.595 -46,-46" /></g></g></g></g><g
       id="g72"><g
         clip-path="url(#clipPath76)"
         id="g74"><g
           transform="translate(208,127.6929)"
           id="g80"><path
             id="path82"
             style="fill:#999999;fill-opacity:1;fill-rule:nonzero;stroke:none"
             d="m 0,0 c 0,-6.627 -5.373,-12 -12,-12 -6.627,0 -12,5.373 -12,12 0,6.627 5.373,12 12,12 C -5.373,12 0,6.627 0,0" /></g><g
           transform="translate(184,114.1474)"
           id="g84"><path
             id="path86"
             style="fill:#999999;fill-opacity:1;fill-rule:nonzero;stroke:none"
             d="m 0,0 c 0,-6.627 -5.373,-12 -12,-12 -6.627,0 -12,5.373 -12,12 0,6.627 5.373,12 12,12 C -5.373,12 0,6.627 0,0" /></g><g
           transform="translate(234,133.1826)"
           id="g88"><path
             id="path90"
             style="fill:#999999;fill-opacity:1;fill-rule:nonzero;stroke:none"
             d="m 0,0 c 0,-6.627 -5.373,-12 -12,-12 -6.627,0 -12,5.373 -12,12 0,6.627 5.373,12 12,12 C -5.373,12 0,6.627 0,0" /></g><g
           transform="translate(64,156)"
           id="g92"><path
             id="path94"
             style="fill:#999999;fill-opacity:1;fill-rule:nonzero;stroke:none"
             d="m 0,0 c -17.645,0 -32,-14.355 -32,-32 0,-17.645 14.355,-32 32,-32 17.645,0 32,14.355 32,32 C 32,-14.355 17.645,0 0,0" /></g></g></g><g
       id="g96"><g
         clip-path="url(#clipPath100)"
         id="g98"><g
           id="g104"><g
             id="g106"><path
               id="path114"
               style="fill:url(#linearGradient108);stroke:none"
               d="m 42,124 c 0,-12.151 9.85,-22 22,-22 l 0,0 c 12.15,0 22,9.849 22,22 l 0,0 c 0,12.15 -9.85,22 -22,22 l 0,0 c -12.15,0 -22,-9.85 -22,-22" /></g></g></g></g><g
       id="g116"><g
         clip-path="url(#clipPath120)"
         id="g118"><g
           id="g124"><g
             id="g126"><path
               id="path134"
               style="fill:url(#linearGradient128);stroke:none"
               d="m 62.391,146 c -2.627,0 -4.767,-2.139 -4.767,-4.767 l 0,0 0,-7.15 c 0,-2.044 -1.663,-3.707 -3.707,-3.707 l 0,0 -7.151,0 c -2.627,0 -4.766,-2.14 -4.766,-4.767 l 0,0 0,-3.216 c 0,-2.627 2.139,-4.767 4.766,-4.767 l 0,0 7.151,0 c 2.044,0 3.707,-1.663 3.707,-3.707 l 0,0 0,-7.153 c 0,-2.627 2.14,-4.766 4.767,-4.766 l 0,0 3.216,0 c 2.627,0 4.767,2.139 4.767,4.766 l 0,0 0,7.153 c 0,2.044 1.663,3.707 3.707,3.707 l 0,0 7.153,0 c 2.627,0 4.766,2.14 4.766,4.767 l 0,0 0,3.216 c 0,2.627 -2.139,4.767 -4.766,4.767 l 0,0 -7.153,0 c -2.044,0 -3.707,1.663 -3.707,3.707 l 0,0 0,7.15 c 0,2.628 -2.14,4.767 -4.767,4.767 l 0,0 -3.216,0 z" /></g></g></g></g><g
       id="g136"><g
         clip-path="url(#clipPath140)"
         id="g138"><g
           transform="translate(46.7661,129.3164)"
           id="g144"><path
             id="path146"
             style="fill:#999999;fill-opacity:1;fill-rule:nonzero;stroke:none"
             d="m 0,0 c -2.044,0 -3.707,-1.663 -3.707,-3.707 l 0,-3.217 c 0,-2.044 1.663,-3.707 3.707,-3.707 l 7.151,0 c 2.627,0 4.766,-2.139 4.766,-4.766 l 0,-7.153 c 0,-2.044 1.664,-3.707 3.707,-3.707 l 3.217,0 c 2.044,0 3.707,1.663 3.707,3.707 l 0,7.153 c 0,2.627 2.139,4.766 4.766,4.766 l 7.154,0 c 2.044,0 3.707,1.663 3.707,3.707 l 0,3.217 C 38.175,-1.663 36.512,0 34.468,0 l -7.154,0 c -2.627,0 -4.766,2.139 -4.766,4.766 l 0,7.151 c 0,2.044 -1.663,3.707 -3.707,3.707 l -3.217,0 c -2.043,0 -3.707,-1.663 -3.707,-3.707 l 0,-7.151 C 11.917,2.139 9.778,0 7.151,0 L 0,0 Z" /></g></g></g><g
       id="g148"><g
         clip-path="url(#clipPath152)"
         id="g150"><g
           id="g156"><g
             id="g158"><path
               id="path166"
               style="fill:url(#linearGradient160);stroke:none"
               d="m 60,124 c 0,-2.209 1.791,-4 4,-4 l 0,0 c 2.209,0 4,1.791 4,4 l 0,0 c 0,2.209 -1.791,4 -4,4 l 0,0 c -2.209,0 -4,-1.791 -4,-4" /></g></g></g></g><g
       id="g168"><g
         clip-path="url(#clipPath172)"
         id="g170"><g
           transform="translate(120,100.0941)"
           id="g176"><path
             id="path178"
             style="fill:#999999;fill-opacity:1;fill-rule:nonzero;stroke:none"
             d="m 0,0 c 0,-2.157 -1.791,-3.906 -4,-3.906 -2.209,0 -4,1.749 -4,3.906 0,2.157 1.791,3.906 4,3.906 2.209,0 4,-1.749 4,-3.906" /></g><g
           transform="translate(144.1994,100)"
           id="g180"><path
             id="path182"
             style="fill:#999999;fill-opacity:1;fill-rule:nonzero;stroke:none"
             d="m 0,0 c 0,-2.209 -1.791,-4 -4,-4 -2.209,0 -4,1.791 -4,4 0,2.209 1.791,4 4,4 2.209,0 4,-1.791 4,-4" /></g></g></g></g></svg>