<?xml version="1.0" encoding="UTF-8" standalone="no"?>
<svg
   xmlns:dc="http://purl.org/dc/elements/1.1/"
   xmlns:cc="http://creativecommons.org/ns#"
   xmlns:rdf="http://www.w3.org/1999/02/22-rdf-syntax-ns#"
   xmlns:svg="http://www.w3.org/2000/svg"
   xmlns="http://www.w3.org/2000/svg"
   viewBox="0 0 320 320"
   height="320"
   width="320"
   xml:space="preserve"
   version="1.1"
   id="svg2"><metadata
     id="metadata8"><rdf:RDF><cc:Work
         rdf:about=""><dc:format>image/svg+xml</dc:format><dc:type
           rdf:resource="http://purl.org/dc/dcmitype/StillImage" /></cc:Work></rdf:RDF></metadata><defs
     id="defs6"><clipPath
       id="clipPath16"
       clipPathUnits="userSpaceOnUse"><path
         id="path18"
         d="M 15.534,236.425 C 13.519,236.188 12,234.481 12,232.451 l 0,0 L 12,224 12,28.944 c 0,-0.621 0.145,-1.233 0.423,-1.788 l 0,0 6.472,-12.945 C 19.571,12.857 20.957,12 22.472,12 l 0,0 211.056,0 c 1.515,0 2.899,0.857 3.578,2.211 l 0,0 6.472,12.945 c 0.278,0.555 0.422,1.167 0.422,1.788 l 0,0 0,195.056 0,8.451 c 0,2.03 -1.518,3.737 -3.534,3.974 l 0,0 C 226.367,238.078 172.742,244 128,244 l 0,0 c -44.742,0 -98.367,-5.922 -112.466,-7.575" /></clipPath><linearGradient
       id="linearGradient24"
       spreadMethod="pad"
       gradientTransform="matrix(222.64673,-222.64673,-222.64673,-222.64673,16.676638,238.78522)"
       gradientUnits="userSpaceOnUse"
       y2="0"
       x2="1"
       y1="0"
       x1="0"><stop
         id="stop26"
         offset="0"
         style="stop-opacity:1;stop-color:#e6e7e8" /><stop
         id="stop28"
         offset="1"
         style="stop-opacity:1;stop-color:#d1d3d4" /></linearGradient><clipPath
       id="clipPath36"
       clipPathUnits="userSpaceOnUse"><path
         id="path38"
         d="m 28,212 c -2.209,0 -4,-1.791 -4,-4 l 0,0 0,-104 c 0,-2.209 1.791,-4 4,-4 l 0,0 200,0 c 2.209,0 4,1.791 4,4 l 0,0 0,104 c 0,2.209 -1.791,4 -4,4 l 0,0 -200,0 z" /></clipPath><linearGradient
       id="linearGradient44"
       spreadMethod="pad"
       gradientTransform="matrix(-157.65686,157.65686,157.65686,157.65686,206.82843,77.17157)"
       gradientUnits="userSpaceOnUse"
       y2="0"
       x2="1"
       y1="0"
       x1="0"><stop
         id="stop46"
         offset="0"
         style="stop-opacity:1;stop-color:#e6e7e8" /><stop
         id="stop48"
         offset="1"
         style="stop-opacity:1;stop-color:#d1d3d4" /></linearGradient><clipPath
       id="clipPath56"
       clipPathUnits="userSpaceOnUse"><path
         id="path58"
         d="m 104,56 24,-24 24,24 -48,0 z" /></clipPath><linearGradient
       id="linearGradient64"
       spreadMethod="pad"
       gradientTransform="matrix(-23.999998,23.999998,23.999998,23.999998,140,44)"
       gradientUnits="userSpaceOnUse"
       y2="0"
       x2="1"
       y1="0"
       x1="0"><stop
         id="stop66"
         offset="0"
         style="stop-opacity:1;stop-color:#e6e7e8" /><stop
         id="stop68"
         offset="1"
         style="stop-opacity:1;stop-color:#d1d3d4" /></linearGradient><clipPath
       id="clipPath76"
       clipPathUnits="userSpaceOnUse"><path
         id="path78"
         d="M 0,256 256,256 256,0 0,0 0,256 Z" /></clipPath></defs><g
     transform="matrix(1.25,0,0,-1.25,0,320)"
     id="g10"><g
       id="g12"><g
         clip-path="url(#clipPath16)"
         id="g14"><g
           id="g20"><g
             id="g22"><path
               id="path30"
               style="fill:url(#linearGradient24);stroke:none"
               d="M 15.534,236.425 C 13.519,236.188 12,234.481 12,232.451 l 0,0 L 12,224 12,28.944 c 0,-0.621 0.145,-1.233 0.423,-1.788 l 0,0 6.472,-12.945 C 19.571,12.857 20.957,12 22.472,12 l 0,0 211.056,0 c 1.515,0 2.899,0.857 3.578,2.211 l 0,0 6.472,12.945 c 0.278,0.555 0.422,1.167 0.422,1.788 l 0,0 0,195.056 0,8.451 c 0,2.03 -1.518,3.737 -3.534,3.974 l 0,0 C 226.367,238.078 172.742,244 128,244 l 0,0 c -44.742,0 -98.367,-5.922 -112.466,-7.575" /></g></g></g></g><g
       id="g32"><g
         clip-path="url(#clipPath36)"
         id="g34"><g
           id="g40"><g
             id="g42"><path
               id="path50"
               style="fill:url(#linearGradient44);stroke:none"
               d="m 28,212 c -2.209,0 -4,-1.791 -4,-4 l 0,0 0,-104 c 0,-2.209 1.791,-4 4,-4 l 0,0 200,0 c 2.209,0 4,1.791 4,4 l 0,0 0,104 c 0,2.209 -1.791,4 -4,4 l 0,0 -200,0 z" /></g></g></g></g><g
       id="g52"><g
         clip-path="url(#clipPath56)"
         id="g54"><g
           id="g60"><g
             id="g62"><path
               id="path70"
               style="fill:url(#linearGradient64);stroke:none"
               d="m 104,56 24,-24 24,24 -48,0 z" /></g></g></g></g><g
       id="g72"><g
         clip-path="url(#clipPath76)"
         id="g74"><g
           transform="translate(224,208)"
           id="g80"><path
             id="path82"
             style="fill:#ffffff;fill-opacity:1;fill-rule:nonzero;stroke:none"
             d="m 0,0 -16,0 -4,0 -172,0 c -2.209,0 -4,-1.791 -4,-4 l 0,-96 c 0,-2.209 1.791,-4 4,-4 l 172,0 4,0 16,0 c 2.209,0 4,1.791 4,4 L 4,-4 C 4,-1.791 2.209,0 0,0" /></g></g></g></g></svg>