<?xml version="1.0" encoding="UTF-8" standalone="no"?>
<svg
   xmlns:dc="http://purl.org/dc/elements/1.1/"
   xmlns:cc="http://creativecommons.org/ns#"
   xmlns:rdf="http://www.w3.org/1999/02/22-rdf-syntax-ns#"
   xmlns:svg="http://www.w3.org/2000/svg"
   xmlns="http://www.w3.org/2000/svg"
   viewBox="0 0 320 320"
   height="320"
   width="320"
   xml:space="preserve"
   version="1.1"
   id="svg2"><metadata
     id="metadata8"><rdf:RDF><cc:Work
         rdf:about=""><dc:format>image/svg+xml</dc:format><dc:type
           rdf:resource="http://purl.org/dc/dcmitype/StillImage" /></cc:Work></rdf:RDF></metadata><defs
     id="defs6"><clipPath
       id="clipPath16"
       clipPathUnits="userSpaceOnUse"><path
         id="path18"
         d="M 107.536,191.182 28,188 c -6.628,0 -12,-5.373 -12,-12 l 0,0 0,-76 224,0 0,76 c 0,6.627 -5.373,12 -12,12 l 0,0 -79.536,3.182 c -6.818,0.272 -13.641,0.409 -20.464,0.409 l 0,0 c -6.822,0 -13.645,-0.137 -20.464,-0.409" /></clipPath><linearGradient
       id="linearGradient24"
       spreadMethod="pad"
       gradientTransform="matrix(152.48529,-152.48529,-152.48529,-152.48529,51.757359,216.72792)"
       gradientUnits="userSpaceOnUse"
       y2="0"
       x2="1"
       y1="0"
       x1="0"><stop
         id="stop26"
         offset="0"
         style="stop-opacity:1;stop-color:#e6e7e8" /><stop
         id="stop28"
         offset="1"
         style="stop-opacity:1;stop-color:#d1d3d4" /></linearGradient><clipPath
       id="clipPath36"
       clipPathUnits="userSpaceOnUse"><path
         id="path38"
         d="M 108.267,187.591 36,184.41 c -6.391,0 -12,-5.373 -12,-12.001 l 0,0 L 20,104 72.001,100 184,100 l 52,4 -4,68.409 c 0,6.628 -5.609,12.001 -12,12.001 l 0,0 -72.267,3.181 C 141.158,187.863 134.579,188 128,188 l 0,0 c -6.579,0 -13.158,-0.137 -19.733,-0.409" /></clipPath><linearGradient
       id="linearGradient44"
       spreadMethod="pad"
       gradientTransform="matrix(-142.64583,142.64583,142.64583,142.64583,199.32291,67.322914)"
       gradientUnits="userSpaceOnUse"
       y2="0"
       x2="1"
       y1="0"
       x1="0"><stop
         id="stop46"
         offset="0"
         style="stop-opacity:1;stop-color:#e6e7e8" /><stop
         id="stop48"
         offset="1"
         style="stop-opacity:1;stop-color:#d1d3d4" /></linearGradient><clipPath
       id="clipPath56"
       clipPathUnits="userSpaceOnUse"><path
         id="path58"
         d="M 0,256 256,256 256,0 0,0 0,256 Z" /></clipPath><clipPath
       id="clipPath72"
       clipPathUnits="userSpaceOnUse"><path
         id="path74"
         d="M 61.801,88.179 C 60.779,88.079 60,87.218 60,86.19 l 0,0 0,-0.38 c 0,-1.028 0.779,-1.888 1.801,-1.989 l 0,0 L 100,80 100,92 61.801,88.179 Z" /></clipPath><linearGradient
       id="linearGradient80"
       spreadMethod="pad"
       gradientTransform="matrix(23.509233,-23.509233,-23.509233,-23.509233,70.736145,97.754616)"
       gradientUnits="userSpaceOnUse"
       y2="0"
       x2="1"
       y1="0"
       x1="0"><stop
         id="stop82"
         offset="0"
         style="stop-opacity:1;stop-color:#e6e7e8" /><stop
         id="stop84"
         offset="1"
         style="stop-opacity:1;stop-color:#d1d3d4" /></linearGradient><clipPath
       id="clipPath92"
       clipPathUnits="userSpaceOnUse"><path
         id="path94"
         d="m 100,92 0,-12 60,0 38.199,3.821 c 1.022,0.101 1.801,0.961 1.801,1.989 l 0,0 0,0.38 c 0,1.028 -0.779,1.889 -1.801,1.989 l 0,0 L 160,92 100,92 Z" /></clipPath><linearGradient
       id="linearGradient100"
       spreadMethod="pad"
       gradientTransform="matrix(53.509232,-53.509232,-53.509232,-53.509232,120.75462,112.75462)"
       gradientUnits="userSpaceOnUse"
       y2="0"
       x2="1"
       y1="0"
       x1="0"><stop
         id="stop102"
         offset="0"
         style="stop-opacity:1;stop-color:#e6e7e8" /><stop
         id="stop104"
         offset="1"
         style="stop-opacity:1;stop-color:#d1d3d4" /></linearGradient><clipPath
       id="clipPath112"
       clipPathUnits="userSpaceOnUse"><path
         id="path114"
         d="m 104,86 c 0,-2.209 1.791,-4 4,-4 l 0,0 c 2.209,0 4,1.791 4,4 l 0,0 c 0,2.209 -1.791,4 -4,4 l 0,0 c -2.209,0 -4,-1.791 -4,-4" /></clipPath><linearGradient
       id="linearGradient120"
       spreadMethod="pad"
       gradientTransform="matrix(-5.6568542,5.6568542,5.6568542,5.6568542,110.82843,83.17157)"
       gradientUnits="userSpaceOnUse"
       y2="0"
       x2="1"
       y1="0"
       x1="0"><stop
         id="stop122"
         offset="0"
         style="stop-opacity:1;stop-color:#e6e7e8" /><stop
         id="stop124"
         offset="1"
         style="stop-opacity:1;stop-color:#d1d3d4" /></linearGradient><clipPath
       id="clipPath132"
       clipPathUnits="userSpaceOnUse"><path
         id="path134"
         d="m 120,86 c 0,-2.209 1.791,-4 4,-4 l 0,0 c 2.209,0 4,1.791 4,4 l 0,0 c 0,2.209 -1.791,4 -4,4 l 0,0 c -2.209,0 -4,-1.791 -4,-4" /></clipPath><linearGradient
       id="linearGradient140"
       spreadMethod="pad"
       gradientTransform="matrix(5.6568542,-5.6568542,-5.6568542,-5.6568542,121.17157,88.82843)"
       gradientUnits="userSpaceOnUse"
       y2="0"
       x2="1"
       y1="0"
       x1="0"><stop
         id="stop142"
         offset="0"
         style="stop-opacity:1;stop-color:#e6e7e8" /><stop
         id="stop144"
         offset="1"
         style="stop-opacity:1;stop-color:#d1d3d4" /></linearGradient><clipPath
       id="clipPath152"
       clipPathUnits="userSpaceOnUse"><path
         id="path154"
         d="m 108,82 16,0 0,8 -16,0 0,-8 z" /></clipPath><linearGradient
       id="linearGradient160"
       spreadMethod="pad"
       gradientTransform="matrix(11.999999,-11.999999,-11.999999,-11.999999,110,92)"
       gradientUnits="userSpaceOnUse"
       y2="0"
       x2="1"
       y1="0"
       x1="0"><stop
         id="stop162"
         offset="0"
         style="stop-opacity:1;stop-color:#e6e7e8" /><stop
         id="stop164"
         offset="1"
         style="stop-opacity:1;stop-color:#d1d3d4" /></linearGradient><clipPath
       id="clipPath172"
       clipPathUnits="userSpaceOnUse"><path
         id="path174"
         d="m 184,82.4 14.199,1.421 c 1.022,0.101 1.801,0.961 1.801,1.989 l 0,0 0,0.38 c 0,1.028 -0.779,1.889 -1.801,1.989 l 0,0 L 184,89.6 l 0,-7.2 z" /></clipPath><linearGradient
       id="linearGradient180"
       spreadMethod="pad"
       gradientTransform="matrix(10.309252,-10.309252,-10.309252,-10.309252,185.5546,91.154633)"
       gradientUnits="userSpaceOnUse"
       y2="0"
       x2="1"
       y1="0"
       x1="0"><stop
         id="stop182"
         offset="0"
         style="stop-opacity:1;stop-color:#e6e7e8" /><stop
         id="stop184"
         offset="1"
         style="stop-opacity:1;stop-color:#d1d3d4" /></linearGradient><clipPath
       id="clipPath192"
       clipPathUnits="userSpaceOnUse"><path
         id="path194"
         d="m 72,108 108,0 0,68 -108,0 0,-68 z" /></clipPath><linearGradient
       id="linearGradient200"
       spreadMethod="pad"
       gradientTransform="matrix(-88,88,88,88,170,98)"
       gradientUnits="userSpaceOnUse"
       y2="0"
       x2="1"
       y1="0"
       x1="0"><stop
         id="stop202"
         offset="0"
         style="stop-opacity:1;stop-color:#e6e7e8" /><stop
         id="stop204"
         offset="1"
         style="stop-opacity:1;stop-color:#d1d3d4" /></linearGradient><clipPath
       id="clipPath212"
       clipPathUnits="userSpaceOnUse"><path
         id="path214"
         d="M 0,256 256,256 256,0 0,0 0,256 Z" /></clipPath><clipPath
       id="clipPath222"
       clipPathUnits="userSpaceOnUse"><path
         id="path224"
         d="m 72,108 16,4 0,60 -16,4 0,-68 z" /></clipPath><linearGradient
       id="linearGradient230"
       spreadMethod="pad"
       gradientTransform="matrix(40,-40,-40,-40,58,162)"
       gradientUnits="userSpaceOnUse"
       y2="0"
       x2="1"
       y1="0"
       x1="0"><stop
         id="stop232"
         offset="0"
         style="stop-opacity:1;stop-color:#e6e7e8" /><stop
         id="stop234"
         offset="1"
         style="stop-opacity:1;stop-color:#d1d3d4" /></linearGradient><clipPath
       id="clipPath242"
       clipPathUnits="userSpaceOnUse"><path
         id="path244"
         d="m 164,172 0,-60 16,-4 0,68 -16,-4 z" /></clipPath><linearGradient
       id="linearGradient250"
       spreadMethod="pad"
       gradientTransform="matrix(40,-40,-40,-40,154,162)"
       gradientUnits="userSpaceOnUse"
       y2="0"
       x2="1"
       y1="0"
       x1="0"><stop
         id="stop252"
         offset="0"
         style="stop-opacity:1;stop-color:#e6e7e8" /><stop
         id="stop254"
         offset="1"
         style="stop-opacity:1;stop-color:#d1d3d4" /></linearGradient><clipPath
       id="clipPath262"
       clipPathUnits="userSpaceOnUse"><path
         id="path264"
         d="M 0,256 256,256 256,0 0,0 0,256 Z" /></clipPath><clipPath
       id="clipPath274"
       clipPathUnits="userSpaceOnUse"><path
         id="path276"
         d="m 211.878,159.357 -22.059,-9.455 c -4.045,-1.732 -5.936,-6.46 -4.202,-10.504 l 0,0 c 1.733,-4.044 6.46,-5.935 10.505,-4.202 l 0,0 22.059,9.455 c 4.044,1.732 5.935,6.459 4.202,10.504 l 0,0 c -1.297,3.025 -4.268,4.845 -7.376,4.845 l 0,0 c -1.047,0 -2.11,-0.206 -3.129,-0.643" /></clipPath><linearGradient
       id="linearGradient282"
       spreadMethod="pad"
       gradientTransform="matrix(17.612371,-17.612371,-17.612371,-17.612371,195.19382,156.08255)"
       gradientUnits="userSpaceOnUse"
       y2="0"
       x2="1"
       y1="0"
       x1="0"><stop
         id="stop284"
         offset="0"
         style="stop-opacity:1;stop-color:#e6e7e8" /><stop
         id="stop286"
         offset="1"
         style="stop-opacity:1;stop-color:#d1d3d4" /></linearGradient><clipPath
       id="clipPath294"
       clipPathUnits="userSpaceOnUse"><path
         id="path296"
         d="M 0,256 256,256 256,0 0,0 0,256 Z" /></clipPath><clipPath
       id="clipPath310"
       clipPathUnits="userSpaceOnUse"><path
         id="path312"
         d="m 214.905,140.804 -22.059,-9.454 c -4.045,-1.733 -5.936,-6.461 -4.202,-10.504 l 0,0 c 1.733,-4.045 6.46,-5.936 10.504,-4.202 l 0,0 22.059,9.454 c 4.045,1.733 5.936,6.459 4.203,10.504 l 0,0 c -1.297,3.025 -4.268,4.846 -7.376,4.846 l 0,0 c -1.047,0 -2.11,-0.207 -3.129,-0.644" /></clipPath><linearGradient
       id="linearGradient318"
       spreadMethod="pad"
       gradientTransform="matrix(17.612371,-17.612371,-17.612371,-17.612371,198.22015,137.52982)"
       gradientUnits="userSpaceOnUse"
       y2="0"
       x2="1"
       y1="0"
       x1="0"><stop
         id="stop320"
         offset="0"
         style="stop-opacity:1;stop-color:#e6e7e8" /><stop
         id="stop322"
         offset="1"
         style="stop-opacity:1;stop-color:#d1d3d4" /></linearGradient><clipPath
       id="clipPath330"
       clipPathUnits="userSpaceOnUse"><path
         id="path332"
         d="M 0,256 256,256 256,0 0,0 0,256 Z" /></clipPath><clipPath
       id="clipPath362"
       clipPathUnits="userSpaceOnUse"><path
         id="path364"
         d="m 46,142 0,-6 c 0,-1.104 -0.896,-2 -2,-2 l 0,0 -6,0 0,-8 6,0 c 1.104,0 2,-0.895 2,-2 l 0,0 0,-6 8,0 0,6 c 0,1.105 0.896,2 2,2 l 0,0 6,0 0,8 -6,0 c -1.104,0 -2,0.896 -2,2 l 0,0 0,6 -8,0 z" /></clipPath><linearGradient
       id="linearGradient370"
       spreadMethod="pad"
       gradientTransform="matrix(15.999999,-15.999999,-15.999999,-15.999999,42,138)"
       gradientUnits="userSpaceOnUse"
       y2="0"
       x2="1"
       y1="0"
       x1="0"><stop
         id="stop372"
         offset="0"
         style="stop-opacity:1;stop-color:#e6e7e8" /><stop
         id="stop374"
         offset="1"
         style="stop-opacity:1;stop-color:#d1d3d4" /></linearGradient><clipPath
       id="clipPath382"
       clipPathUnits="userSpaceOnUse"><path
         id="path384"
         d="m 47,130 c 0,-1.656 1.344,-3 3,-3 l 0,0 c 1.656,0 3,1.344 3,3 l 0,0 c 0,1.656 -1.344,3 -3,3 l 0,0 c -1.656,0 -3,-1.344 -3,-3" /></clipPath><linearGradient
       id="linearGradient390"
       spreadMethod="pad"
       gradientTransform="matrix(-4.2426405,4.2426405,4.2426405,4.2426405,52.121319,127.87868)"
       gradientUnits="userSpaceOnUse"
       y2="0"
       x2="1"
       y1="0"
       x1="0"><stop
         id="stop392"
         offset="0"
         style="stop-opacity:1;stop-color:#e6e7e8" /><stop
         id="stop394"
         offset="1"
         style="stop-opacity:1;stop-color:#d1d3d4" /></linearGradient><clipPath
       id="clipPath402"
       clipPathUnits="userSpaceOnUse"><path
         id="path404"
         d="m 34,130 c 0,-8.837 7.163,-16 16,-16 l 0,0 c 8.837,0 16,7.163 16,16 l 0,0 c 0,8.837 -7.163,16 -16,16 l 0,0 c -8.837,0 -16,-7.163 -16,-16 m 2,0 c 0,7.72 6.28,14 14,14 l 0,0 c 7.72,0 14,-6.28 14,-14 l 0,0 c 0,-7.72 -6.28,-14 -14,-14 l 0,0 c -7.72,0 -14,6.28 -14,14" /></clipPath><linearGradient
       id="linearGradient410"
       spreadMethod="pad"
       gradientTransform="matrix(-22.627418,22.627418,22.627418,22.627418,61.313709,118.68629)"
       gradientUnits="userSpaceOnUse"
       y2="0"
       x2="1"
       y1="0"
       x1="0"><stop
         id="stop412"
         offset="0"
         style="stop-opacity:1;stop-color:#e6e7e8" /><stop
         id="stop414"
         offset="1"
         style="stop-opacity:1;stop-color:#d1d3d4" /></linearGradient><clipPath
       id="clipPath422"
       clipPathUnits="userSpaceOnUse"><path
         id="path424"
         d="m 41.647,138.353 c -0.196,-0.195 -0.196,-0.511 0,-0.706 l 0,0 1.999,-2.001 C 43.745,135.549 43.872,135.5 44,135.5 l 0,0 c 0.128,0 0.256,0.049 0.354,0.146 l 0,0 c 0.195,0.195 0.195,0.512 0,0.708 l 0,0 -2.001,1.999 C 42.255,138.451 42.128,138.5 42,138.5 l 0,0 c -0.128,0 -0.256,-0.049 -0.353,-0.147" /></clipPath><linearGradient
       id="linearGradient430"
       spreadMethod="pad"
       gradientTransform="matrix(-2.7070313,2.7070313,2.7070313,2.7070313,44.353516,135.64648)"
       gradientUnits="userSpaceOnUse"
       y2="0"
       x2="1"
       y1="0"
       x1="0"><stop
         id="stop432"
         offset="0"
         style="stop-opacity:1;stop-color:#e6e7e8" /><stop
         id="stop434"
         offset="1"
         style="stop-opacity:1;stop-color:#d1d3d4" /></linearGradient><clipPath
       id="clipPath442"
       clipPathUnits="userSpaceOnUse"><path
         id="path444"
         d="m 58.146,138.353 -2,-1.999 c -0.195,-0.196 -0.195,-0.513 0,-0.708 l 0,0 c 0.098,-0.097 0.226,-0.146 0.354,-0.146 l 0,0 c 0.128,0 0.256,0.049 0.354,0.146 l 0,0 2,2.001 c 0.195,0.195 0.195,0.511 0,0.706 l 0,0 c -0.098,0.098 -0.226,0.147 -0.354,0.147 l 0,0 c -0.128,0 -0.256,-0.049 -0.354,-0.147" /></clipPath><linearGradient
       id="linearGradient450"
       spreadMethod="pad"
       gradientTransform="matrix(-0.7070313,0.7070313,0.7070313,0.7070313,57.853516,136.64648)"
       gradientUnits="userSpaceOnUse"
       y2="0"
       x2="1"
       y1="0"
       x1="0"><stop
         id="stop452"
         offset="0"
         style="stop-opacity:1;stop-color:#e6e7e8" /><stop
         id="stop454"
         offset="1"
         style="stop-opacity:1;stop-color:#d1d3d4" /></linearGradient><clipPath
       id="clipPath462"
       clipPathUnits="userSpaceOnUse"><path
         id="path464"
         d="m 56.146,123.854 c -0.195,-0.196 -0.195,-0.513 0,-0.708 l 0,0 2,-2 c 0.196,-0.195 0.512,-0.195 0.708,0 l 0,0 c 0.195,0.196 0.195,0.512 0,0.708 l 0,0 -2,2 C 56.756,123.952 56.628,124 56.5,124 l 0,0 c -0.128,0 -0.256,-0.048 -0.354,-0.146" /></clipPath><linearGradient
       id="linearGradient470"
       spreadMethod="pad"
       gradientTransform="matrix(-2.7070313,2.7070313,2.7070313,2.7070313,58.853516,121.14648)"
       gradientUnits="userSpaceOnUse"
       y2="0"
       x2="1"
       y1="0"
       x1="0"><stop
         id="stop472"
         offset="0"
         style="stop-opacity:1;stop-color:#e6e7e8" /><stop
         id="stop474"
         offset="1"
         style="stop-opacity:1;stop-color:#d1d3d4" /></linearGradient><clipPath
       id="clipPath482"
       clipPathUnits="userSpaceOnUse"><path
         id="path484"
         d="m 43.646,123.854 -1.999,-2 c -0.196,-0.196 -0.196,-0.512 0,-0.708 l 0,0 c 0.195,-0.195 0.511,-0.195 0.706,0 l 0,0 2.001,2 c 0.195,0.195 0.195,0.512 0,0.708 l 0,0 C 44.256,123.952 44.128,124 44,124 l 0,0 c -0.128,0 -0.255,-0.048 -0.354,-0.146" /></clipPath><linearGradient
       id="linearGradient490"
       spreadMethod="pad"
       gradientTransform="matrix(-0.7070313,0.7070313,0.7070313,0.7070313,43.353516,122.14648)"
       gradientUnits="userSpaceOnUse"
       y2="0"
       x2="1"
       y1="0"
       x1="0"><stop
         id="stop492"
         offset="0"
         style="stop-opacity:1;stop-color:#e6e7e8" /><stop
         id="stop494"
         offset="1"
         style="stop-opacity:1;stop-color:#d1d3d4" /></linearGradient><clipPath
       id="clipPath502"
       clipPathUnits="userSpaceOnUse"><path
         id="path504"
         d="M 0,256 256,256 256,0 0,0 0,256 Z" /></clipPath></defs><g
     transform="matrix(1.25,0,0,-1.25,0,320)"
     id="g10"><g
       id="g12"><g
         clip-path="url(#clipPath16)"
         id="g14"><g
           id="g20"><g
             id="g22"><path
               id="path30"
               style="fill:url(#linearGradient24);stroke:none"
               d="M 107.536,191.182 28,188 c -6.628,0 -12,-5.373 -12,-12 l 0,0 0,-76 224,0 0,76 c 0,6.627 -5.373,12 -12,12 l 0,0 -79.536,3.182 c -6.818,0.272 -13.641,0.409 -20.464,0.409 l 0,0 c -6.822,0 -13.645,-0.137 -20.464,-0.409" /></g></g></g></g><g
       id="g32"><g
         clip-path="url(#clipPath36)"
         id="g34"><g
           id="g40"><g
             id="g42"><path
               id="path50"
               style="fill:url(#linearGradient44);stroke:none"
               d="M 108.267,187.591 36,184.41 c -6.391,0 -12,-5.373 -12,-12.001 l 0,0 L 20,104 72.001,100 184,100 l 52,4 -4,68.409 c 0,6.628 -5.609,12.001 -12,12.001 l 0,0 -72.267,3.181 C 141.158,187.863 134.579,188 128,188 l 0,0 c -6.579,0 -13.158,-0.137 -19.733,-0.409" /></g></g></g></g><g
       id="g52"><g
         clip-path="url(#clipPath56)"
         id="g54"><g
           transform="translate(228,64)"
           id="g60"><path
             id="path62"
             style="fill:#999999;fill-opacity:1;fill-rule:nonzero;stroke:none"
             d="m 0,0 -200,0 c -6.627,0 -12,5.373 -12,12 l 0,28 24,0 28,-4 116,0 32,4 24,0 0,-28 C 12,5.373 6.627,0 0,0" /></g><g
           transform="translate(224.4287,68)"
           id="g64"><path
             id="path66"
             style="fill:#999999;fill-opacity:1;fill-rule:nonzero;stroke:none"
             d="m 0,0 -192.857,0 c -6.391,0 -11.572,4.835 -11.572,10.8 l 0,25.2 23.143,0 27,-3.6 111.857,0 30.858,3.6 23.142,0 0,-25.2 C 11.571,4.835 6.391,0 0,0" /></g></g></g><g
       id="g68"><g
         clip-path="url(#clipPath72)"
         id="g70"><g
           id="g76"><g
             id="g78"><path
               id="path86"
               style="fill:url(#linearGradient80);stroke:none"
               d="M 61.801,88.179 C 60.779,88.079 60,87.218 60,86.19 l 0,0 0,-0.38 c 0,-1.028 0.779,-1.888 1.801,-1.989 l 0,0 L 100,80 100,92 61.801,88.179 Z" /></g></g></g></g><g
       id="g88"><g
         clip-path="url(#clipPath92)"
         id="g90"><g
           id="g96"><g
             id="g98"><path
               id="path106"
               style="fill:url(#linearGradient100);stroke:none"
               d="m 100,92 0,-12 60,0 38.199,3.821 c 1.022,0.101 1.801,0.961 1.801,1.989 l 0,0 0,0.38 c 0,1.028 -0.779,1.889 -1.801,1.989 l 0,0 L 160,92 100,92 Z" /></g></g></g></g><g
       id="g108"><g
         clip-path="url(#clipPath112)"
         id="g110"><g
           id="g116"><g
             id="g118"><path
               id="path126"
               style="fill:url(#linearGradient120);stroke:none"
               d="m 104,86 c 0,-2.209 1.791,-4 4,-4 l 0,0 c 2.209,0 4,1.791 4,4 l 0,0 c 0,2.209 -1.791,4 -4,4 l 0,0 c -2.209,0 -4,-1.791 -4,-4" /></g></g></g></g><g
       id="g128"><g
         clip-path="url(#clipPath132)"
         id="g130"><g
           id="g136"><g
             id="g138"><path
               id="path146"
               style="fill:url(#linearGradient140);stroke:none"
               d="m 120,86 c 0,-2.209 1.791,-4 4,-4 l 0,0 c 2.209,0 4,1.791 4,4 l 0,0 c 0,2.209 -1.791,4 -4,4 l 0,0 c -2.209,0 -4,-1.791 -4,-4" /></g></g></g></g><g
       id="g148"><g
         clip-path="url(#clipPath152)"
         id="g150"><g
           id="g156"><g
             id="g158"><path
               id="path166"
               style="fill:url(#linearGradient160);stroke:none"
               d="m 108,82 16,0 0,8 -16,0 0,-8 z" /></g></g></g></g><g
       id="g168"><g
         clip-path="url(#clipPath172)"
         id="g170"><g
           id="g176"><g
             id="g178"><path
               id="path186"
               style="fill:url(#linearGradient180);stroke:none"
               d="m 184,82.4 14.199,1.421 c 1.022,0.101 1.801,0.961 1.801,1.989 l 0,0 0,0.38 c 0,1.028 -0.779,1.889 -1.801,1.989 l 0,0 L 184,89.6 l 0,-7.2 z" /></g></g></g></g><g
       id="g188"><g
         clip-path="url(#clipPath192)"
         id="g190"><g
           id="g196"><g
             id="g198"><path
               id="path206"
               style="fill:url(#linearGradient200);stroke:none"
               d="m 72,108 108,0 0,68 -108,0 0,-68 z" /></g></g></g></g><g
       id="g208"><g
         clip-path="url(#clipPath212)"
         id="g210"><path
           id="path216"
           style="fill:#999999;fill-opacity:1;fill-rule:nonzero;stroke:none"
           d="m 164,112 -76,0 0,60 76,0 0,-60 z" /></g></g><g
       id="g218"><g
         clip-path="url(#clipPath222)"
         id="g220"><g
           id="g226"><g
             id="g228"><path
               id="path236"
               style="fill:url(#linearGradient230);stroke:none"
               d="m 72,108 16,4 0,60 -16,4 0,-68 z" /></g></g></g></g><g
       id="g238"><g
         clip-path="url(#clipPath242)"
         id="g240"><g
           id="g246"><g
             id="g248"><path
               id="path256"
               style="fill:url(#linearGradient250);stroke:none"
               d="m 164,172 0,-60 16,-4 0,68 -16,-4 z" /></g></g></g></g><g
       id="g258"><g
         clip-path="url(#clipPath262)"
         id="g260"><g
           transform="translate(196,172)"
           id="g266"><path
             id="path268"
             style="fill:#999999;fill-opacity:1;fill-rule:nonzero;stroke:none"
             d="m 0,0 c 0,-2.209 -1.791,-4 -4,-4 -2.209,0 -4,1.791 -4,4 0,2.209 1.791,4 4,4 2.209,0 4,-1.791 4,-4" /></g></g></g><g
       id="g270"><g
         clip-path="url(#clipPath274)"
         id="g272"><g
           id="g278"><g
             id="g280"><path
               id="path288"
               style="fill:url(#linearGradient282);stroke:none"
               d="m 211.878,159.357 -22.059,-9.455 c -4.045,-1.732 -5.936,-6.46 -4.202,-10.504 l 0,0 c 1.733,-4.044 6.46,-5.935 10.505,-4.202 l 0,0 22.059,9.455 c 4.044,1.732 5.935,6.459 4.202,10.504 l 0,0 c -1.297,3.025 -4.268,4.845 -7.376,4.845 l 0,0 c -1.047,0 -2.11,-0.206 -3.129,-0.643" /></g></g></g></g><g
       id="g290"><g
         clip-path="url(#clipPath294)"
         id="g292"><g
           transform="translate(200.3232,145.7007)"
           id="g298"><path
             id="path300"
             style="fill:#999999;fill-opacity:1;fill-rule:nonzero;stroke:none"
             d="m 0,0 c 1.306,-3.046 -0.105,-6.573 -3.151,-7.878 -3.046,-1.306 -6.574,0.105 -7.878,3.151 -1.306,3.046 0.105,6.573 3.151,7.878 C -4.832,4.457 -1.305,3.046 0,0" /></g><g
           transform="translate(218.7061,153.5791)"
           id="g302"><path
             id="path304"
             style="fill:#999999;fill-opacity:1;fill-rule:nonzero;stroke:none"
             d="m 0,0 c 1.306,-3.046 -0.105,-6.573 -3.151,-7.878 -3.046,-1.306 -6.574,0.105 -7.878,3.151 -1.306,3.046 0.105,6.573 3.151,7.878 C -4.832,4.457 -1.305,3.046 0,0" /></g></g></g><g
       id="g306"><g
         clip-path="url(#clipPath310)"
         id="g308"><g
           id="g314"><g
             id="g316"><path
               id="path324"
               style="fill:url(#linearGradient318);stroke:none"
               d="m 214.905,140.804 -22.059,-9.454 c -4.045,-1.733 -5.936,-6.461 -4.202,-10.504 l 0,0 c 1.733,-4.045 6.46,-5.936 10.504,-4.202 l 0,0 22.059,9.454 c 4.045,1.733 5.936,6.459 4.203,10.504 l 0,0 c -1.297,3.025 -4.268,4.846 -7.376,4.846 l 0,0 c -1.047,0 -2.11,-0.207 -3.129,-0.644" /></g></g></g></g><g
       id="g326"><g
         clip-path="url(#clipPath330)"
         id="g328"><g
           transform="translate(203.3496,127.1479)"
           id="g334"><path
             id="path336"
             style="fill:#999999;fill-opacity:1;fill-rule:nonzero;stroke:none"
             d="m 0,0 c 1.306,-3.045 -0.105,-6.573 -3.151,-7.878 -3.046,-1.306 -6.574,0.105 -7.878,3.151 -1.306,3.046 0.105,6.573 3.151,7.878 C -4.832,4.457 -1.306,3.046 0,0" /></g><g
           transform="translate(221.7324,135.0264)"
           id="g338"><path
             id="path340"
             style="fill:#999999;fill-opacity:1;fill-rule:nonzero;stroke:none"
             d="m 0,0 c 1.306,-3.046 -0.105,-6.573 -3.151,-7.878 -3.046,-1.306 -6.574,0.105 -7.878,3.151 -1.306,3.046 0.105,6.573 3.151,7.878 C -4.832,4.457 -1.305,3.046 0,0" /></g><g
           transform="translate(230,108)"
           id="g342"><path
             id="path344"
             style="fill:#999999;fill-opacity:1;fill-rule:nonzero;stroke:none"
             d="m 0,0 -8,0 c -1.1,0 -2,0.9 -2,2 0,1.1 0.9,2 2,2 L 0,4 C 1.1,4 2,3.1 2,2 2,0.9 1.1,0 0,0" /></g><g
           transform="translate(214.1895,108.0107)"
           id="g346"><path
             id="path348"
             style="fill:#999999;fill-opacity:1;fill-rule:nonzero;stroke:none"
             d="m 0,0 -7.955,-0.846 c -1.094,-0.116 -2.084,0.684 -2.201,1.778 -0.116,1.093 0.683,2.084 1.777,2.2 l 7.955,0.846 C 0.67,4.095 1.66,3.295 1.777,2.201 1.894,1.107 1.094,0.117 0,0" /></g><g
           transform="translate(198.3359,105.7646)"
           id="g350"><path
             id="path352"
             style="fill:#999999;fill-opacity:1;fill-rule:nonzero;stroke:none"
             d="m 0,0 -7.812,-1.718 c -1.076,-0.236 -2.148,0.449 -2.384,1.524 -0.237,1.074 0.45,2.146 1.524,2.382 l 7.813,1.719 C 0.216,4.144 1.288,3.458 1.524,2.383 1.761,1.309 1.074,0.236 0,0" /></g><g
           transform="translate(68,130)"
           id="g354"><path
             id="path356"
             style="fill:#999999;fill-opacity:1;fill-rule:nonzero;stroke:none"
             d="m 0,0 c 0,-9.941 -8.059,-18 -18,-18 -9.941,0 -18,8.059 -18,18 0,9.941 8.059,18 18,18 C -8.059,18 0,9.941 0,0" /></g></g></g><g
       id="g358"><g
         clip-path="url(#clipPath362)"
         id="g360"><g
           id="g366"><g
             id="g368"><path
               id="path376"
               style="fill:url(#linearGradient370);stroke:none"
               d="m 46,142 0,-6 c 0,-1.104 -0.896,-2 -2,-2 l 0,0 -6,0 0,-8 6,0 c 1.104,0 2,-0.895 2,-2 l 0,0 0,-6 8,0 0,6 c 0,1.105 0.896,2 2,2 l 0,0 6,0 0,8 -6,0 c -1.104,0 -2,0.896 -2,2 l 0,0 0,6 -8,0 z" /></g></g></g></g><g
       id="g378"><g
         clip-path="url(#clipPath382)"
         id="g380"><g
           id="g386"><g
             id="g388"><path
               id="path396"
               style="fill:url(#linearGradient390);stroke:none"
               d="m 47,130 c 0,-1.656 1.344,-3 3,-3 l 0,0 c 1.656,0 3,1.344 3,3 l 0,0 c 0,1.656 -1.344,3 -3,3 l 0,0 c -1.656,0 -3,-1.344 -3,-3" /></g></g></g></g><g
       id="g398"><g
         clip-path="url(#clipPath402)"
         id="g400"><g
           id="g406"><g
             id="g408"><path
               id="path416"
               style="fill:url(#linearGradient410);stroke:none"
               d="m 34,130 c 0,-8.837 7.163,-16 16,-16 l 0,0 c 8.837,0 16,7.163 16,16 l 0,0 c 0,8.837 -7.163,16 -16,16 l 0,0 c -8.837,0 -16,-7.163 -16,-16 m 2,0 c 0,7.72 6.28,14 14,14 l 0,0 c 7.72,0 14,-6.28 14,-14 l 0,0 c 0,-7.72 -6.28,-14 -14,-14 l 0,0 c -7.72,0 -14,6.28 -14,14" /></g></g></g></g><g
       id="g418"><g
         clip-path="url(#clipPath422)"
         id="g420"><g
           id="g426"><g
             id="g428"><path
               id="path436"
               style="fill:url(#linearGradient430);stroke:none"
               d="m 41.647,138.353 c -0.196,-0.195 -0.196,-0.511 0,-0.706 l 0,0 1.999,-2.001 C 43.745,135.549 43.872,135.5 44,135.5 l 0,0 c 0.128,0 0.256,0.049 0.354,0.146 l 0,0 c 0.195,0.195 0.195,0.512 0,0.708 l 0,0 -2.001,1.999 C 42.255,138.451 42.128,138.5 42,138.5 l 0,0 c -0.128,0 -0.256,-0.049 -0.353,-0.147" /></g></g></g></g><g
       id="g438"><g
         clip-path="url(#clipPath442)"
         id="g440"><g
           id="g446"><g
             id="g448"><path
               id="path456"
               style="fill:url(#linearGradient450);stroke:none"
               d="m 58.146,138.353 -2,-1.999 c -0.195,-0.196 -0.195,-0.513 0,-0.708 l 0,0 c 0.098,-0.097 0.226,-0.146 0.354,-0.146 l 0,0 c 0.128,0 0.256,0.049 0.354,0.146 l 0,0 2,2.001 c 0.195,0.195 0.195,0.511 0,0.706 l 0,0 c -0.098,0.098 -0.226,0.147 -0.354,0.147 l 0,0 c -0.128,0 -0.256,-0.049 -0.354,-0.147" /></g></g></g></g><g
       id="g458"><g
         clip-path="url(#clipPath462)"
         id="g460"><g
           id="g466"><g
             id="g468"><path
               id="path476"
               style="fill:url(#linearGradient470);stroke:none"
               d="m 56.146,123.854 c -0.195,-0.196 -0.195,-0.513 0,-0.708 l 0,0 2,-2 c 0.196,-0.195 0.512,-0.195 0.708,0 l 0,0 c 0.195,0.196 0.195,0.512 0,0.708 l 0,0 -2,2 C 56.756,123.952 56.628,124 56.5,124 l 0,0 c -0.128,0 -0.256,-0.048 -0.354,-0.146" /></g></g></g></g><g
       id="g478"><g
         clip-path="url(#clipPath482)"
         id="g480"><g
           id="g486"><g
             id="g488"><path
               id="path496"
               style="fill:url(#linearGradient490);stroke:none"
               d="m 43.646,123.854 -1.999,-2 c -0.196,-0.196 -0.196,-0.512 0,-0.708 l 0,0 c 0.195,-0.195 0.511,-0.195 0.706,0 l 0,0 2.001,2 c 0.195,0.195 0.195,0.512 0,0.708 l 0,0 C 44.256,123.952 44.128,124 44,124 l 0,0 c -0.128,0 -0.255,-0.048 -0.354,-0.146" /></g></g></g></g><g
       id="g498"><g
         clip-path="url(#clipPath502)"
         id="g500"><g
           transform="translate(35,176)"
           id="g506"><path
             id="path508"
             style="fill:#999999;fill-opacity:1;fill-rule:nonzero;stroke:none"
             d="M 0,0 0,0 C -0.55,0 -1,0.45 -1,1 -1,1.55 -0.55,2 0,2 0.55,2 1,1.55 1,1 1,0.45 0.55,0 0,0" /></g><g
           transform="translate(31,176)"
           id="g510"><path
             id="path512"
             style="fill:#999999;fill-opacity:1;fill-rule:nonzero;stroke:none"
             d="M 0,0 0,0 C -0.55,0 -1,0.45 -1,1 -1,1.55 -0.55,2 0,2 0.55,2 1,1.55 1,1 1,0.45 0.55,0 0,0" /></g><g
           transform="translate(31,172)"
           id="g514"><path
             id="path516"
             style="fill:#999999;fill-opacity:1;fill-rule:nonzero;stroke:none"
             d="M 0,0 0,0 C -0.55,0 -1,0.45 -1,1 -1,1.55 -0.55,2 0,2 0.55,2 1,1.55 1,1 1,0.45 0.55,0 0,0" /></g><g
           transform="translate(35,172)"
           id="g518"><path
             id="path520"
             style="fill:#999999;fill-opacity:1;fill-rule:nonzero;stroke:none"
             d="M 0,0 0,0 C -0.55,0 -1,0.45 -1,1 -1,1.55 -0.55,2 0,2 0.55,2 1,1.55 1,1 1,0.45 0.55,0 0,0" /></g><g
           transform="translate(35,168)"
           id="g522"><path
             id="path524"
             style="fill:#999999;fill-opacity:1;fill-rule:nonzero;stroke:none"
             d="M 0,0 0,0 C -0.55,0 -1,0.45 -1,1 -1,1.55 -0.55,2 0,2 0.55,2 1,1.55 1,1 1,0.45 0.55,0 0,0" /></g><g
           transform="translate(39,172)"
           id="g526"><path
             id="path528"
             style="fill:#999999;fill-opacity:1;fill-rule:nonzero;stroke:none"
             d="M 0,0 0,0 C -0.55,0 -1,0.45 -1,1 -1,1.55 -0.55,2 0,2 0.55,2 1,1.55 1,1 1,0.45 0.55,0 0,0" /></g><g
           transform="translate(39,168)"
           id="g530"><path
             id="path532"
             style="fill:#999999;fill-opacity:1;fill-rule:nonzero;stroke:none"
             d="M 0,0 0,0 C -0.55,0 -1,0.45 -1,1 -1,1.55 -0.55,2 0,2 0.55,2 1,1.55 1,1 1,0.45 0.55,0 0,0" /></g><g
           transform="translate(43,172)"
           id="g534"><path
             id="path536"
             style="fill:#999999;fill-opacity:1;fill-rule:nonzero;stroke:none"
             d="M 0,0 0,0 C -0.55,0 -1,0.45 -1,1 -1,1.55 -0.55,2 0,2 0.55,2 1,1.55 1,1 1,0.45 0.55,0 0,0" /></g><g
           transform="translate(47,168)"
           id="g538"><path
             id="path540"
             style="fill:#999999;fill-opacity:1;fill-rule:nonzero;stroke:none"
             d="M 0,0 0,0 C -0.55,0 -1,0.45 -1,1 -1,1.55 -0.55,2 0,2 0.55,2 1,1.55 1,1 1,0.45 0.55,0 0,0" /></g><g
           transform="translate(43,168)"
           id="g542"><path
             id="path544"
             style="fill:#999999;fill-opacity:1;fill-rule:nonzero;stroke:none"
             d="M 0,0 0,0 C -0.55,0 -1,0.45 -1,1 -1,1.55 -0.55,2 0,2 0.55,2 1,1.55 1,1 1,0.45 0.55,0 0,0" /></g><g
           transform="translate(43,164)"
           id="g546"><path
             id="path548"
             style="fill:#999999;fill-opacity:1;fill-rule:nonzero;stroke:none"
             d="M 0,0 0,0 C -0.55,0 -1,0.45 -1,1 -1,1.55 -0.55,2 0,2 0.55,2 1,1.55 1,1 1,0.45 0.55,0 0,0" /></g><g
           transform="translate(47,172)"
           id="g550"><path
             id="path552"
             style="fill:#999999;fill-opacity:1;fill-rule:nonzero;stroke:none"
             d="M 0,0 0,0 C -0.55,0 -1,0.45 -1,1 -1,1.55 -0.55,2 0,2 0.55,2 1,1.55 1,1 1,0.45 0.55,0 0,0" /></g><g
           transform="translate(51,168)"
           id="g554"><path
             id="path556"
             style="fill:#999999;fill-opacity:1;fill-rule:nonzero;stroke:none"
             d="M 0,0 0,0 C -0.55,0 -1,0.45 -1,1 -1,1.55 -0.55,2 0,2 0.55,2 1,1.55 1,1 1,0.45 0.55,0 0,0" /></g><g
           transform="translate(51,172)"
           id="g558"><path
             id="path560"
             style="fill:#999999;fill-opacity:1;fill-rule:nonzero;stroke:none"
             d="M 0,0 0,0 C -0.55,0 -1,0.45 -1,1 -1,1.55 -0.55,2 0,2 0.55,2 1,1.55 1,1 1,0.45 0.55,0 0,0" /></g><g
           transform="translate(47,164)"
           id="g562"><path
             id="path564"
             style="fill:#999999;fill-opacity:1;fill-rule:nonzero;stroke:none"
             d="M 0,0 0,0 C -0.55,0 -1,0.45 -1,1 -1,1.55 -0.55,2 0,2 0.55,2 1,1.55 1,1 1,0.45 0.55,0 0,0" /></g><g
           transform="translate(51,164)"
           id="g566"><path
             id="path568"
             style="fill:#999999;fill-opacity:1;fill-rule:nonzero;stroke:none"
             d="M 0,0 0,0 C -0.55,0 -1,0.45 -1,1 -1,1.55 -0.55,2 0,2 0.55,2 1,1.55 1,1 1,0.45 0.55,0 0,0" /></g><g
           transform="translate(55,164)"
           id="g570"><path
             id="path572"
             style="fill:#999999;fill-opacity:1;fill-rule:nonzero;stroke:none"
             d="M 0,0 0,0 C -0.55,0 -1,0.45 -1,1 -1,1.55 -0.55,2 0,2 0.55,2 1,1.55 1,1 1,0.45 0.55,0 0,0" /></g><g
           transform="translate(55,160)"
           id="g574"><path
             id="path576"
             style="fill:#999999;fill-opacity:1;fill-rule:nonzero;stroke:none"
             d="M 0,0 0,0 C -0.55,0 -1,0.45 -1,1 -1,1.55 -0.55,2 0,2 0.55,2 1,1.55 1,1 1,0.45 0.55,0 0,0" /></g><g
           transform="translate(55,168)"
           id="g578"><path
             id="path580"
             style="fill:#999999;fill-opacity:1;fill-rule:nonzero;stroke:none"
             d="M 0,0 0,0 C -0.55,0 -1,0.45 -1,1 -1,1.55 -0.55,2 0,2 0.55,2 1,1.55 1,1 1,0.45 0.55,0 0,0" /></g><g
           transform="translate(59,168)"
           id="g582"><path
             id="path584"
             style="fill:#999999;fill-opacity:1;fill-rule:nonzero;stroke:none"
             d="M 0,0 0,0 C -0.55,0 -1,0.45 -1,1 -1,1.55 -0.55,2 0,2 0.55,2 1,1.55 1,1 1,0.45 0.55,0 0,0" /></g><g
           transform="translate(55,172)"
           id="g586"><path
             id="path588"
             style="fill:#999999;fill-opacity:1;fill-rule:nonzero;stroke:none"
             d="M 0,0 0,0 C -0.55,0 -1,0.45 -1,1 -1,1.55 -0.55,2 0,2 0.55,2 1,1.55 1,1 1,0.45 0.55,0 0,0" /></g><g
           transform="translate(59,172)"
           id="g590"><path
             id="path592"
             style="fill:#999999;fill-opacity:1;fill-rule:nonzero;stroke:none"
             d="M 0,0 0,0 C -0.55,0 -1,0.45 -1,1 -1,1.55 -0.55,2 0,2 0.55,2 1,1.55 1,1 1,0.45 0.55,0 0,0" /></g><g
           transform="translate(59,160)"
           id="g594"><path
             id="path596"
             style="fill:#999999;fill-opacity:1;fill-rule:nonzero;stroke:none"
             d="M 0,0 0,0 C -0.55,0 -1,0.45 -1,1 -1,1.55 -0.55,2 0,2 0.55,2 1,1.55 1,1 1,0.45 0.55,0 0,0" /></g><g
           transform="translate(59,164)"
           id="g598"><path
             id="path600"
             style="fill:#999999;fill-opacity:1;fill-rule:nonzero;stroke:none"
             d="M 0,0 0,0 C -0.55,0 -1,0.45 -1,1 -1,1.55 -0.55,2 0,2 0.55,2 1,1.55 1,1 1,0.45 0.55,0 0,0" /></g><g
           transform="translate(39,176)"
           id="g602"><path
             id="path604"
             style="fill:#999999;fill-opacity:1;fill-rule:nonzero;stroke:none"
             d="M 0,0 0,0 C -0.55,0 -1,0.45 -1,1 -1,1.55 -0.55,2 0,2 0.55,2 1,1.55 1,1 1,0.45 0.55,0 0,0" /></g><g
           transform="translate(43,176)"
           id="g606"><path
             id="path608"
             style="fill:#999999;fill-opacity:1;fill-rule:nonzero;stroke:none"
             d="M 0,0 0,0 C -0.55,0 -1,0.45 -1,1 -1,1.55 -0.55,2 0,2 0.55,2 1,1.55 1,1 1,0.45 0.55,0 0,0" /></g><g
           transform="translate(47,176)"
           id="g610"><path
             id="path612"
             style="fill:#999999;fill-opacity:1;fill-rule:nonzero;stroke:none"
             d="M 0,0 0,0 C -0.55,0 -1,0.45 -1,1 -1,1.55 -0.55,2 0,2 0.55,2 1,1.55 1,1 1,0.45 0.55,0 0,0" /></g><g
           transform="translate(51,176)"
           id="g614"><path
             id="path616"
             style="fill:#999999;fill-opacity:1;fill-rule:nonzero;stroke:none"
             d="M 0,0 0,0 C -0.55,0 -1,0.45 -1,1 -1,1.55 -0.55,2 0,2 0.55,2 1,1.55 1,1 1,0.45 0.55,0 0,0" /></g><g
           transform="translate(55,176)"
           id="g618"><path
             id="path620"
             style="fill:#999999;fill-opacity:1;fill-rule:nonzero;stroke:none"
             d="M 0,0 0,0 C -0.55,0 -1,0.45 -1,1 -1,1.55 -0.55,2 0,2 0.55,2 1,1.55 1,1 1,0.45 0.55,0 0,0" /></g><g
           transform="translate(59,176)"
           id="g622"><path
             id="path624"
             style="fill:#999999;fill-opacity:1;fill-rule:nonzero;stroke:none"
             d="M 0,0 0,0 C -0.55,0 -1,0.45 -1,1 -1,1.55 -0.55,2 0,2 0.55,2 1,1.55 1,1 1,0.45 0.55,0 0,0" /></g><g
           transform="translate(63,176)"
           id="g626"><path
             id="path628"
             style="fill:#999999;fill-opacity:1;fill-rule:nonzero;stroke:none"
             d="M 0,0 0,0 C -0.55,0 -1,0.45 -1,1 -1,1.55 -0.55,2 0,2 0.55,2 1,1.55 1,1 1,0.45 0.55,0 0,0" /></g></g></g></g></svg>