<?xml version="1.0" encoding="UTF-8" standalone="no"?>
<svg
   xmlns:dc="http://purl.org/dc/elements/1.1/"
   xmlns:cc="http://creativecommons.org/ns#"
   xmlns:rdf="http://www.w3.org/1999/02/22-rdf-syntax-ns#"
   xmlns:svg="http://www.w3.org/2000/svg"
   xmlns="http://www.w3.org/2000/svg"
   viewBox="0 0 320 320"
   height="320"
   width="320"
   xml:space="preserve"
   version="1.1"
   id="svg2"><metadata
     id="metadata8"><rdf:RDF><cc:Work
         rdf:about=""><dc:format>image/svg+xml</dc:format><dc:type
           rdf:resource="http://purl.org/dc/dcmitype/StillImage" /></cc:Work></rdf:RDF></metadata><defs
     id="defs6"><clipPath
       id="clipPath16"
       clipPathUnits="userSpaceOnUse"><path
         id="path18"
         d="m 125.604,163.828 -18.482,-9.011 c -1.202,-0.587 -1.202,-2.3 0,-2.887 l 0,0 18.482,-9.011 c 1.101,-0.536 2.396,0.244 2.396,1.445 l 0,0 0,3.457 0,0.523 c 0,0.559 0.462,1.021 1.02,0.998 l 0,0 c 9.557,-0.393 17.992,-6.25 21.678,-15.151 l 0,0 c 3.819,-9.217 1.728,-19.73 -5.325,-26.786 l 0,0 c -7.053,-7.057 -17.569,-9.145 -26.788,-5.324 l 0,0 c -9.216,3.816 -15.17,12.728 -15.17,22.705 l 0,0 0,3.103 c 0,0.548 -0.445,0.994 -0.994,0.994 l 0,0 -6.206,0 c -0.549,0 -0.993,-0.446 -0.993,-0.994 l 0,0 0,-3.103 c 0,-13.301 7.941,-25.186 20.229,-30.274 l 0,0 C 119.532,92.82 123.801,92 128.029,92 l 0,0 c 8.512,0 16.852,3.328 23.137,9.613 l 0,0 c 9.404,9.404 12.192,23.425 7.1,35.712 l 0,0 c -4.963,11.988 -16.391,19.837 -29.292,20.216 l 0,0 c -0.54,0.017 -0.974,0.447 -0.974,0.987 l 0,0 0,3.855 c 0,0.937 -0.788,1.617 -1.657,1.617 l 0,0 c -0.245,0 -0.497,-0.054 -0.739,-0.172" /></clipPath><linearGradient
       id="linearGradient24"
       spreadMethod="pad"
       gradientTransform="matrix(48.687721,-48.687721,-48.687721,-48.687721,102.47748,150.30011)"
       gradientUnits="userSpaceOnUse"
       y2="0"
       x2="1"
       y1="0"
       x1="0"><stop
         id="stop26"
         offset="0"
         style="stop-opacity:1;stop-color:#e6e7e8" /><stop
         id="stop28"
         offset="1"
         style="stop-opacity:1;stop-color:#d1d3d4" /></linearGradient></defs><g
     transform="matrix(1.25,0,0,-1.25,0,320)"
     id="g10"><g
       id="g12"><g
         clip-path="url(#clipPath16)"
         id="g14"><g
           id="g20"><g
             id="g22"><path
               id="path30"
               style="fill:url(#linearGradient24);stroke:none"
               d="m 125.604,163.828 -18.482,-9.011 c -1.202,-0.587 -1.202,-2.3 0,-2.887 l 0,0 18.482,-9.011 c 1.101,-0.536 2.396,0.244 2.396,1.445 l 0,0 0,3.457 0,0.523 c 0,0.559 0.462,1.021 1.02,0.998 l 0,0 c 9.557,-0.393 17.992,-6.25 21.678,-15.151 l 0,0 c 3.819,-9.217 1.728,-19.73 -5.325,-26.786 l 0,0 c -7.053,-7.057 -17.569,-9.145 -26.788,-5.324 l 0,0 c -9.216,3.816 -15.17,12.728 -15.17,22.705 l 0,0 0,3.103 c 0,0.548 -0.445,0.994 -0.994,0.994 l 0,0 -6.206,0 c -0.549,0 -0.993,-0.446 -0.993,-0.994 l 0,0 0,-3.103 c 0,-13.301 7.941,-25.186 20.229,-30.274 l 0,0 C 119.532,92.82 123.801,92 128.029,92 l 0,0 c 8.512,0 16.852,3.328 23.137,9.613 l 0,0 c 9.404,9.404 12.192,23.425 7.1,35.712 l 0,0 c -4.963,11.988 -16.391,19.837 -29.292,20.216 l 0,0 c -0.54,0.017 -0.974,0.447 -0.974,0.987 l 0,0 0,3.855 c 0,0.937 -0.788,1.617 -1.657,1.617 l 0,0 c -0.245,0 -0.497,-0.054 -0.739,-0.172" /></g></g></g></g></g></svg>