<?xml version="1.0" encoding="UTF-8" standalone="no"?>
<svg
   xmlns:dc="http://purl.org/dc/elements/1.1/"
   xmlns:cc="http://creativecommons.org/ns#"
   xmlns:rdf="http://www.w3.org/1999/02/22-rdf-syntax-ns#"
   xmlns:svg="http://www.w3.org/2000/svg"
   xmlns="http://www.w3.org/2000/svg"
   viewBox="0 0 320 320"
   height="320"
   width="320"
   xml:space="preserve"
   version="1.1"
   id="svg2"><metadata
     id="metadata8"><rdf:RDF><cc:Work
         rdf:about=""><dc:format>image/svg+xml</dc:format><dc:type
           rdf:resource="http://purl.org/dc/dcmitype/StillImage" /></cc:Work></rdf:RDF></metadata><defs
     id="defs6"><clipPath
       id="clipPath16"
       clipPathUnits="userSpaceOnUse"><path
         id="path18"
         d="m 44,244 c -2.209,0 -4,-1.791 -4,-4 l 0,0 0,-48 c 0,-2.209 1.791,-4 4,-4 l 0,0 4,0 0,-52 -4,0 c -2.209,0 -4,-1.791 -4,-4 l 0,0 0,-116 c 0,-2.209 1.791,-4 4,-4 l 0,0 58.343,0 c 1.061,0 2.079,0.422 2.828,1.171 l 0,0 1.657,1.657 c 0.75,0.75 1.768,1.172 2.829,1.172 l 0,0 36.686,0 c 1.061,0 2.079,-0.421 2.828,-1.172 l 0,0 1.657,-1.657 C 151.579,12.422 152.596,12 153.657,12 l 0,0 58.343,0 c 2.209,0 4,1.791 4,4 l 0,0 0,140 c 0,2.209 -1.791,4 -4,4 l 0,0 0,12 c 2.209,0 4,1.791 4,4 l 0,0 0,38.343 c 0,1.061 -0.421,2.078 -1.172,2.829 l 0,0 -25.656,25.656 c -0.751,0.751 -1.768,1.172 -2.829,1.172 l 0,0 L 44,244 Z" /></clipPath><linearGradient
       id="linearGradient24"
       spreadMethod="pad"
       gradientTransform="matrix(201.65685,-201.65685,-201.65685,-201.65685,20.757359,222.41422)"
       gradientUnits="userSpaceOnUse"
       y2="0"
       x2="1"
       y1="0"
       x1="0"><stop
         id="stop26"
         offset="0"
         style="stop-opacity:1;stop-color:#e6e7e8" /><stop
         id="stop28"
         offset="1"
         style="stop-opacity:1;stop-color:#d1d3d4" /></linearGradient><clipPath
       id="clipPath36"
       clipPathUnits="userSpaceOnUse"><path
         id="path38"
         d="m 44,188 c -2.209,0 -4,-1.791 -4,-4 l 0,0 0,-16 c 0,-2.209 1.791,-4 4,-4 l 0,0 4,0 0,24 -4,0 z" /></clipPath><linearGradient
       id="linearGradient44"
       spreadMethod="pad"
       gradientTransform="matrix(-14.828426,14.828426,14.828426,14.828426,52.585785,168.58578)"
       gradientUnits="userSpaceOnUse"
       y2="0"
       x2="1"
       y1="0"
       x1="0"><stop
         id="stop46"
         offset="0"
         style="stop-opacity:1;stop-color:#e6e7e8" /><stop
         id="stop48"
         offset="1"
         style="stop-opacity:1;stop-color:#d1d3d4" /></linearGradient><clipPath
       id="clipPath56"
       clipPathUnits="userSpaceOnUse"><path
         id="path58"
         d="m 68,216 c -6.627,0 -12,-5.373 -12,-12 l 0,0 0,-164 c 0,-6.627 5.373,-12 12,-12 l 0,0 120,0 c 6.628,0 12,5.373 12,12 l 0,0 0,164 c 0,6.627 -5.372,12 -12,12 l 0,0 -120,0 z" /></clipPath><linearGradient
       id="linearGradient64"
       spreadMethod="pad"
       gradientTransform="matrix(-158.97057,158.97057,158.97057,158.97057,207.48528,42.514717)"
       gradientUnits="userSpaceOnUse"
       y2="0"
       x2="1"
       y1="0"
       x1="0"><stop
         id="stop66"
         offset="0"
         style="stop-opacity:1;stop-color:#e6e7e8" /><stop
         id="stop68"
         offset="1"
         style="stop-opacity:1;stop-color:#d1d3d4" /></linearGradient><clipPath
       id="clipPath76"
       clipPathUnits="userSpaceOnUse"><path
         id="path78"
         d="M 0,256 256,256 256,0 0,0 0,256 Z" /></clipPath><clipPath
       id="clipPath88"
       clipPathUnits="userSpaceOnUse"><path
         id="path90"
         d="m 74,24 c -1.104,0 -2,-0.895 -2,-2 l 0,0 c 0,-1.105 0.896,-2 2,-2 l 0,0 108,0 c 1.105,0 2,0.895 2,2 l 0,0 c 0,1.105 -0.895,2 -2,2 l 0,0 -108,0 z" /></clipPath><linearGradient
       id="linearGradient96"
       spreadMethod="pad"
       gradientTransform="matrix(-56.828426,56.828426,56.828426,56.828426,156.41422,-6.4142141)"
       gradientUnits="userSpaceOnUse"
       y2="0"
       x2="1"
       y1="0"
       x1="0"><stop
         id="stop98"
         offset="0"
         style="stop-opacity:1;stop-color:#e6e7e8" /><stop
         id="stop100"
         offset="1"
         style="stop-opacity:1;stop-color:#d1d3d4" /></linearGradient><clipPath
       id="clipPath108"
       clipPathUnits="userSpaceOnUse"><path
         id="path110"
         d="M 0,256 256,256 256,0 0,0 0,256 Z" /></clipPath></defs><g
     transform="matrix(1.25,0,0,-1.25,0,320)"
     id="g10"><g
       id="g12"><g
         clip-path="url(#clipPath16)"
         id="g14"><g
           id="g20"><g
             id="g22"><path
               id="path30"
               style="fill:url(#linearGradient24);stroke:none"
               d="m 44,244 c -2.209,0 -4,-1.791 -4,-4 l 0,0 0,-48 c 0,-2.209 1.791,-4 4,-4 l 0,0 4,0 0,-52 -4,0 c -2.209,0 -4,-1.791 -4,-4 l 0,0 0,-116 c 0,-2.209 1.791,-4 4,-4 l 0,0 58.343,0 c 1.061,0 2.079,0.422 2.828,1.171 l 0,0 1.657,1.657 c 0.75,0.75 1.768,1.172 2.829,1.172 l 0,0 36.686,0 c 1.061,0 2.079,-0.421 2.828,-1.172 l 0,0 1.657,-1.657 C 151.579,12.422 152.596,12 153.657,12 l 0,0 58.343,0 c 2.209,0 4,1.791 4,4 l 0,0 0,140 c 0,2.209 -1.791,4 -4,4 l 0,0 0,12 c 2.209,0 4,1.791 4,4 l 0,0 0,38.343 c 0,1.061 -0.421,2.078 -1.172,2.829 l 0,0 -25.656,25.656 c -0.751,0.751 -1.768,1.172 -2.829,1.172 l 0,0 L 44,244 Z" /></g></g></g></g><g
       id="g32"><g
         clip-path="url(#clipPath36)"
         id="g34"><g
           id="g40"><g
             id="g42"><path
               id="path50"
               style="fill:url(#linearGradient44);stroke:none"
               d="m 44,188 c -2.209,0 -4,-1.791 -4,-4 l 0,0 0,-16 c 0,-2.209 1.791,-4 4,-4 l 0,0 4,0 0,24 -4,0 z" /></g></g></g></g><g
       id="g52"><g
         clip-path="url(#clipPath56)"
         id="g54"><g
           id="g60"><g
             id="g62"><path
               id="path70"
               style="fill:url(#linearGradient64);stroke:none"
               d="m 68,216 c -6.627,0 -12,-5.373 -12,-12 l 0,0 0,-164 c 0,-6.627 5.373,-12 12,-12 l 0,0 120,0 c 6.628,0 12,5.373 12,12 l 0,0 0,164 c 0,6.627 -5.372,12 -12,12 l 0,0 -120,0 z" /></g></g></g></g><g
       id="g72"><g
         clip-path="url(#clipPath76)"
         id="g74"><g
           transform="translate(188,212)"
           id="g80"><path
             id="path82"
             style="fill:#ffffff;fill-opacity:1;fill-rule:nonzero;stroke:none"
             d="m 0,0 c 4.411,0 8,-3.589 8,-8 l 0,-164 c 0,-4.411 -3.589,-8 -8,-8 l -120,0 c -4.411,0 -8,3.589 -8,8 l 0,164 c 0,4.411 3.589,8 8,8 L 0,0" /></g></g></g><g
       id="g84"><g
         clip-path="url(#clipPath88)"
         id="g86"><g
           id="g92"><g
             id="g94"><path
               id="path102"
               style="fill:url(#linearGradient96);stroke:none"
               d="m 74,24 c -1.104,0 -2,-0.895 -2,-2 l 0,0 c 0,-1.105 0.896,-2 2,-2 l 0,0 108,0 c 1.105,0 2,0.895 2,2 l 0,0 c 0,1.105 -0.895,2 -2,2 l 0,0 -108,0 z" /></g></g></g></g><g
       id="g104"><g
         clip-path="url(#clipPath108)"
         id="g106"><path
           id="path112"
           style="fill:#999999;fill-opacity:1;fill-rule:nonzero;stroke:none"
           d="m 196,111 -136,0 0,4 136,0 0,-4 z" /><path
           id="path114"
           style="fill:#999999;fill-opacity:1;fill-rule:nonzero;stroke:none"
           d="m 196,103 -136,0 0,4 136,0 0,-4 z" /><path
           id="path116"
           style="fill:#999999;fill-opacity:1;fill-rule:nonzero;stroke:none"
           d="m 196,95 -136,0 0,4 136,0 0,-4 z" /><path
           id="path118"
           style="fill:#999999;fill-opacity:1;fill-rule:nonzero;stroke:none"
           d="m 196,87 -136,0 0,4 136,0 0,-4 z" /><path
           id="path120"
           style="fill:#999999;fill-opacity:1;fill-rule:nonzero;stroke:none"
           d="m 196,79 -136,0 0,4 136,0 0,-4 z" /><path
           id="path122"
           style="fill:#999999;fill-opacity:1;fill-rule:nonzero;stroke:none"
           d="m 196,71 -136,0 0,4 136,0 0,-4 z" /><path
           id="path124"
           style="fill:#999999;fill-opacity:1;fill-rule:nonzero;stroke:none"
           d="m 196,63 -136,0 0,4 136,0 0,-4 z" /><path
           id="path126"
           style="fill:#999999;fill-opacity:1;fill-rule:nonzero;stroke:none"
           d="m 196,55 -136,0 0,4 136,0 0,-4 z" /><path
           id="path128"
           style="fill:#999999;fill-opacity:1;fill-rule:nonzero;stroke:none"
           d="m 196,47 -136,0 0,4 136,0 0,-4 z" /><path
           id="path130"
           style="fill:#999999;fill-opacity:1;fill-rule:nonzero;stroke:none"
           d="m 196,39 -136,0 0,4 136,0 0,-4 z" /></g></g></g></svg>