<?xml version="1.0" encoding="UTF-8" standalone="no"?>
<svg
   xmlns:dc="http://purl.org/dc/elements/1.1/"
   xmlns:cc="http://creativecommons.org/ns#"
   xmlns:rdf="http://www.w3.org/1999/02/22-rdf-syntax-ns#"
   xmlns:svg="http://www.w3.org/2000/svg"
   xmlns="http://www.w3.org/2000/svg"
   viewBox="0 0 320 320"
   height="320"
   width="320"
   xml:space="preserve"
   version="1.1"
   id="svg2"><metadata
     id="metadata8"><rdf:RDF><cc:Work
         rdf:about=""><dc:format>image/svg+xml</dc:format><dc:type
           rdf:resource="http://purl.org/dc/dcmitype/StillImage" /></cc:Work></rdf:RDF></metadata><defs
     id="defs6"><clipPath
       id="clipPath16"
       clipPathUnits="userSpaceOnUse"><path
         id="path18"
         d="m 117.079,84.071 c -0.461,-0.389 -0.502,-1.082 -0.07,-1.501 l 0,0 8.13,-7.878 c 1.549,-1.501 4.008,-1.504 5.561,-0.005 l 0,0 8.145,7.86 c 0.434,0.419 0.392,1.112 -0.067,1.501 l 0,0 C 135.875,86.508 132.076,88 127.916,88 l 0,0 c -4.147,0 -7.937,-1.482 -10.837,-3.929" /></clipPath><linearGradient
       id="linearGradient24"
       spreadMethod="pad"
       gradientTransform="matrix(11.647649,-11.647649,-11.647649,-11.647649,122.10394,89.10125)"
       gradientUnits="userSpaceOnUse"
       y2="0"
       x2="1"
       y1="0"
       x1="0"><stop
         id="stop26"
         offset="0"
         style="stop-opacity:1;stop-color:#e6e7e8" /><stop
         id="stop28"
         offset="1"
         style="stop-opacity:1;stop-color:#d1d3d4" /></linearGradient><clipPath
       id="clipPath36"
       clipPathUnits="userSpaceOnUse"><path
         id="path38"
         d="m 94.486,107.388 c -0.874,-0.777 -0.921,-2.098 -0.082,-2.911 l 0,0 10.174,-9.86 c 5.98,5.794 14.235,9.383 23.338,9.383 l 0,0 c 9.129,0 17.402,-3.609 23.386,-9.432 l 0,0 10.195,9.84 c 0.84,0.812 0.796,2.132 -0.077,2.911 l 0,0 C 152.595,115.187 140.826,120 127.916,120 l 0,0 c -12.872,0 -24.613,-4.784 -33.43,-12.612" /></clipPath><linearGradient
       id="linearGradient44"
       spreadMethod="pad"
       gradientTransform="matrix(34.997929,-34.997929,-34.997929,-34.997929,110.45275,123.35962)"
       gradientUnits="userSpaceOnUse"
       y2="0"
       x2="1"
       y1="0"
       x1="0"><stop
         id="stop46"
         offset="0"
         style="stop-opacity:1;stop-color:#e6e7e8" /><stop
         id="stop48"
         offset="1"
         style="stop-opacity:1;stop-color:#d1d3d4" /></linearGradient><clipPath
       id="clipPath56"
       clipPathUnits="userSpaceOnUse"><path
         id="path58"
         d="m 49.358,154.076 c -1.749,-1.574 -1.788,-4.212 -0.099,-5.849 l 0,0 8.644,-8.377 C 75.84,157.234 100.606,168 127.916,168 l 0,0 c 27.385,0 52.208,-10.826 70.157,-28.292 l 0,0 8.661,8.359 c 1.693,1.634 1.66,4.272 -0.086,5.848 l 0,0 C 185.996,172.57 158.308,184 127.916,184 l 0,0 C 97.61,184 69.991,172.636 49.358,154.076" /></clipPath><linearGradient
       id="linearGradient64"
       spreadMethod="pad"
       gradientTransform="matrix(81.69735,-81.69735,-81.69735,-81.69735,87.151329,191.87732)"
       gradientUnits="userSpaceOnUse"
       y2="0"
       x2="1"
       y1="0"
       x1="0"><stop
         id="stop66"
         offset="0"
         style="stop-opacity:1;stop-color:#e6e7e8" /><stop
         id="stop68"
         offset="1"
         style="stop-opacity:1;stop-color:#d1d3d4" /></linearGradient><clipPath
       id="clipPath76"
       clipPathUnits="userSpaceOnUse"><path
         id="path78"
         d="m 72.734,131.449 c -1.75,-1.527 -1.786,-4.24 -0.118,-5.857 l 0,0 8.625,-8.358 C 93.199,128.822 109.709,136 127.916,136 l 0,0 c 18.257,0 34.805,-7.219 46.77,-18.862 l 0,0 8.643,8.34 c 1.701,1.642 1.672,4.299 -0.106,5.858 l 0,0 C 168.575,144.172 149.172,152 127.916,152 l 0,0 c -21.195,0 -40.549,-7.781 -55.182,-20.551" /></clipPath><linearGradient
       id="linearGradient84"
       spreadMethod="pad"
       gradientTransform="matrix(58.290386,-58.290386,-58.290386,-58.290386,98.830269,157.55939)"
       gradientUnits="userSpaceOnUse"
       y2="0"
       x2="1"
       y1="0"
       x1="0"><stop
         id="stop86"
         offset="0"
         style="stop-opacity:1;stop-color:#e6e7e8" /><stop
         id="stop88"
         offset="1"
         style="stop-opacity:1;stop-color:#d1d3d4" /></linearGradient></defs><g
     transform="matrix(1.25,0,0,-1.25,0,320)"
     id="g10"><g
       id="g12"><g
         clip-path="url(#clipPath16)"
         id="g14"><g
           id="g20"><g
             id="g22"><path
               id="path30"
               style="fill:url(#linearGradient24);stroke:none"
               d="m 117.079,84.071 c -0.461,-0.389 -0.502,-1.082 -0.07,-1.501 l 0,0 8.13,-7.878 c 1.549,-1.501 4.008,-1.504 5.561,-0.005 l 0,0 8.145,7.86 c 0.434,0.419 0.392,1.112 -0.067,1.501 l 0,0 C 135.875,86.508 132.076,88 127.916,88 l 0,0 c -4.147,0 -7.937,-1.482 -10.837,-3.929" /></g></g></g></g><g
       id="g32"><g
         clip-path="url(#clipPath36)"
         id="g34"><g
           id="g40"><g
             id="g42"><path
               id="path50"
               style="fill:url(#linearGradient44);stroke:none"
               d="m 94.486,107.388 c -0.874,-0.777 -0.921,-2.098 -0.082,-2.911 l 0,0 10.174,-9.86 c 5.98,5.794 14.235,9.383 23.338,9.383 l 0,0 c 9.129,0 17.402,-3.609 23.386,-9.432 l 0,0 10.195,9.84 c 0.84,0.812 0.796,2.132 -0.077,2.911 l 0,0 C 152.595,115.187 140.826,120 127.916,120 l 0,0 c -12.872,0 -24.613,-4.784 -33.43,-12.612" /></g></g></g></g><g
       id="g52"><g
         clip-path="url(#clipPath56)"
         id="g54"><g
           id="g60"><g
             id="g62"><path
               id="path70"
               style="fill:url(#linearGradient64);stroke:none"
               d="m 49.358,154.076 c -1.749,-1.574 -1.788,-4.212 -0.099,-5.849 l 0,0 8.644,-8.377 C 75.84,157.234 100.606,168 127.916,168 l 0,0 c 27.385,0 52.208,-10.826 70.157,-28.292 l 0,0 8.661,8.359 c 1.693,1.634 1.66,4.272 -0.086,5.848 l 0,0 C 185.996,172.57 158.308,184 127.916,184 l 0,0 C 97.61,184 69.991,172.636 49.358,154.076" /></g></g></g></g><g
       id="g72"><g
         clip-path="url(#clipPath76)"
         id="g74"><g
           id="g80"><g
             id="g82"><path
               id="path90"
               style="fill:url(#linearGradient84);stroke:none"
               d="m 72.734,131.449 c -1.75,-1.527 -1.786,-4.24 -0.118,-5.857 l 0,0 8.625,-8.358 C 93.199,128.822 109.709,136 127.916,136 l 0,0 c 18.257,0 34.805,-7.219 46.77,-18.862 l 0,0 8.643,8.34 c 1.701,1.642 1.672,4.299 -0.106,5.858 l 0,0 C 168.575,144.172 149.172,152 127.916,152 l 0,0 c -21.195,0 -40.549,-7.781 -55.182,-20.551" /></g></g></g></g></g></svg>