<svg enable-background="new 0 0 64 64" viewBox="0 0 64 64" xmlns="http://www.w3.org/2000/svg"><g fill="#fff"><circle cx="14.5" cy="30.5" r=".5"/><circle cx="8.5" cy="28.5" r=".5"/><circle cx="12.5" cy="26.5" r=".5"/><circle cx="10.5" cy="32.5" r=".5"/><path d="m60.879 34.825c-.4-3.369-1.075-6.467-2.096-9.614-.921-2.837-1.174-3.365-2.015-4.184-.435-.424-1.077-.824-1.608-1.026h-.16v-.5c0-.276-.224-.5-.5-.5h-9c-.276 0-.5.224-.5.5v.499h.068c-.536 0-1.061.204-1.426.597-.323.347-.537.77-.62 1.241-.092.52-.014.94.353 1.905.579 1.525.674 1.79.963 2.703.416 1.312.413 1.301.236 1.534-.188.246-.445.32-1.779.514-2.892.42-5.739.678-8.191.745-.268.007-.336.004-.533.008-.549.014-1.108.021-1.668.021-.016 0-.031 0-.047 0-.12 0-.237-.004-.356-.004-.119.001-.237.004-.356.004-.016 0-.031 0-.047 0-.56 0-1.119-.007-1.668-.021-.197-.004-.265 0-.533-.008-2.452-.068-5.299-.326-8.191-.745-1.334-.194-1.592-.268-1.779-.514-.177-.232-.18-.222.236-1.534.29-.914.384-1.178.963-2.703.367-.965.445-1.385.353-1.905-.083-.471-.297-.894-.62-1.241-.365-.393-.89-.597-1.426-.597h.068v-.5c0-.276-.224-.5-.5-.5h-9c-.276 0-.5.224-.5.5v.5h-.159c-.531.202-1.173.602-1.608 1.026-.841.82-1.094 1.347-2.015 4.184-1.021 3.147-1.697 6.245-2.096 9.614-.316 2.659-.043 3.852 1.167 5.107.754.782 1.351 1.074 3.368 1.643 2.869.81 7.988 1.966 8.88 2.007.206.009.46.057.563.105.383.179 4.65.751 7.305.979 1.299.112 3.807.259 5.133.302.712.022 1.454.033 2.216.033h.246.246c.762 0 1.504-.011 2.217-.034 1.326-.043 3.835-.19 5.133-.302 2.656-.228 6.923-.8 7.305-.979.103-.048.357-.096.563-.105.892-.04 6.011-1.197 8.88-2.007 2.016-.569 2.613-.861 3.368-1.643 1.21-1.253 1.483-2.446 1.167-5.105zm-44.879-5.325c0 2.485-2.015 4.5-4.5 4.5-2.485 0-4.5-2.015-4.5-4.5 0-2.485 2.015-4.5 4.5-4.5 2.485 0 4.5 2.015 4.5 4.5zm27 7.356c0 .253-.189.466-.441.496-1.032.124-2.086.237-2.964.313-1.003.086-2.729.194-4.073.258-.284.013-.522-.214-.522-.5v-.001c0-.267.208-.486.474-.499 1.333-.063 3.038-.17 4.036-.255.913-.079 1.945-.19 2.932-.308.297-.036.558.197.558.496zm10.999-12.856h.002c1.105.001 2 .896 1.999 2.001-.001 1.104-.895 1.998-1.999 1.999-1.105.001-2-.894-2.001-1.999s.894-2 1.999-2.001zm-6.999 4.001c-.001-1.105.894-2 1.999-2.001h.002c1.105.001 2 .896 1.999 2.001-.001 1.104-.895 1.998-1.999 1.999-1.105.001-2-.894-2.001-1.999zm3.5 7.999c-1.381 0-2.5-1.12-2.5-2.501.001-1.381 1.12-2.499 2.5-2.499s2.499 1.118 2.5 2.499c0 1.381-1.119 2.501-2.5 2.501zm5.501-2c-1.105.001-2-.894-2.001-1.999s.894-2 1.999-2.001h.002c1.105.001 2 .896 1.999 2.001-.001 1.104-.895 1.998-1.999 1.999z"/></g></svg>