<?xml version="1.0" encoding="iso-8859-1"?>
<!-- Generator: Adobe Illustrator 28.0.0, SVG Export Plug-In . SVG Version: 6.00 Build 0)  -->
<svg version="1.1" id="Layer_1" xmlns="http://www.w3.org/2000/svg" xmlns:xlink="http://www.w3.org/1999/xlink" x="0px" y="0px"
	 viewBox="0 0 256 256" style="enable-background:new 0 0 256 256;" xml:space="preserve">
<path style="opacity:0.5;fill:#FFFFFF;" d="M175,4H81c-4.963,0-9,4.037-9,9v230c0,4.963,4.037,9,9,9h94c4.963,0,9-4.037,9-9V13
	C184,8.037,179.963,4,175,4z"/>
<path style="fill:#808080;" d="M175,244H81c-0.552,0-1-0.448-1-1V13c0-0.552,0.448-1,1-1h94c0.552,0,1,0.448,1,1v230
	C176,243.552,175.552,244,175,244z"/>
<rect x="80" y="232" style="fill:#333333;" width="96" height="1"/>
<rect x="92" y="208" style="fill:#333333;" width="72" height="2"/>
<rect x="92" y="204" style="fill:#333333;" width="72" height="2"/>
<rect x="92" y="200" style="fill:#333333;" width="72" height="2"/>
<rect x="92" y="196" style="fill:#333333;" width="72" height="2"/>
<rect x="92" y="192" style="fill:#333333;" width="72" height="2"/>
<rect x="92" y="188" style="fill:#333333;" width="72" height="2"/>
<rect x="80" y="23" style="fill:#333333;" width="96" height="1"/>
<path style="fill:#333333;" d="M138,76c1.105,0,2,0.895,2,2v100c0,1.105-0.895,2-2,2h-20c-1.105,0-2-0.895-2-2V78
	c0-1.105,0.895-2,2-2H138 M138,75h-20c-1.654,0-3,1.346-3,3v100c0,1.654,1.346,3,3,3h20c1.654,0,3-1.346,3-3V78
	C141,76.346,139.654,75,138,75L138,75z"/>
<path style="fill:#333333;" d="M106,36c1.105,0,2,0.895,2,2v36c0,1.105-0.895,2-2,2H94c-1.105,0-2-0.895-2-2V38c0-1.105,0.895-2,2-2
	H106 M106,35H94c-1.654,0-3,1.346-3,3v36c0,1.654,1.346,3,3,3h12c1.654,0,3-1.346,3-3V38C109,36.346,107.654,35,106,35L106,35z"/>
<path style="fill:#333333;" d="M134,216c1.105,0,2,0.895,2,2v14h-20v-14c0-1.105,0.895-2,2-2H134 M134,215h-16c-1.654,0-3,1.346-3,3
	v14v1h1h20h1v-1v-14C137,216.346,135.654,215,134,215L134,215z"/>
<polygon style="fill:#333333;" points="128,218 124,218 122,216 130,216 "/>
<polygon style="fill:#333333;" points="104,36 96,36 98,34 102,34 "/>
</svg>
