<?xml version="1.0" encoding="UTF-8" standalone="no"?>
<svg
   xmlns:dc="http://purl.org/dc/elements/1.1/"
   xmlns:cc="http://creativecommons.org/ns#"
   xmlns:rdf="http://www.w3.org/1999/02/22-rdf-syntax-ns#"
   xmlns:svg="http://www.w3.org/2000/svg"
   xmlns="http://www.w3.org/2000/svg"
   viewBox="0 0 341.33334 341.33334"
   height="256"
   width="256"
   xml:space="preserve"
   id="svg2"
   version="1.1"><metadata
     id="metadata8"><rdf:RDF><cc:Work
         rdf:about=""><dc:format>image/svg+xml</dc:format><dc:type
           rdf:resource="http://purl.org/dc/dcmitype/StillImage" /></cc:Work></rdf:RDF></metadata><defs
     id="defs6"><clipPath
       id="clipPath18"
       clipPathUnits="userSpaceOnUse"><path
         id="path16"
         d="M 0,256 H 256 V 0 H 0 Z" /></clipPath><clipPath
       id="clipPath26"
       clipPathUnits="userSpaceOnUse"><path
         id="path24"
         d="M 23.3333,252 H 232.667 V 4 H 23.3333 Z" /></clipPath></defs><g
     transform="matrix(1.3333333,0,0,-1.3333333,0,341.33333)"
     id="g10"><g
       id="g12"><g
         clip-path="url(#clipPath18)"
         id="g14"><g
           id="g20"><g
             id="g22" /><g
             id="g34"><g
               style="opacity:0.5"
               id="g32"
               clip-path="url(#clipPath26)"><g
                 id="g30"
                 transform="translate(219.8333,252)"><path
                   id="path28"
                   style="fill:#ffffff;fill-opacity:1;fill-rule:nonzero;stroke:none"
                   d="M 0,0 H -183.667 C -190.743,0 -196.5,-5.757 -196.5,-12.833 V -240 v -8 h 8 193.333 8 v 8 227.167 C 12.833,-5.757 7.076,0 0,0" /></g></g></g></g><g
           transform="translate(219.8333,244)"
           id="g36"><path
             id="path38"
             style="fill:#191919;fill-opacity:1;fill-rule:nonzero;stroke:none"
             d="m 0,0 h -183.667 c -2.668,0 -4.833,-2.16 -4.833,-4.833 V -232 H 4.833 V -4.833 C 4.833,-2.16 2.673,0 0,0" /></g><g
           transform="translate(212,24)"
           id="g40"><path
             id="path42"
             style="fill:#0d0d0d;fill-opacity:1;fill-rule:nonzero;stroke:none"
             d="m 0,0 h -168 v 203.048 c 0,2.738 2.214,4.952 4.941,4.952 H -4.941 C -2.209,208 0,205.786 0,203.048 Z" /></g><g
           transform="translate(208,28)"
           id="g44"><path
             id="path46"
             style="fill:#999999;fill-opacity:1;fill-rule:nonzero;stroke:none"
             d="m 0,0 h -160 v 194.737 c 0,2.91 2.384,5.263 5.333,5.263 H -5.333 C -2.384,200 0,197.647 0,194.737 Z" /></g><g
           transform="translate(70,176)"
           id="g48"><path
             id="path50"
             style="fill:#000000;fill-opacity:1;fill-rule:nonzero;stroke:none"
             d="m 0,0 h 116 v -108.75 c 0,-4.004 -3.246,-7.25 -7.25,-7.25 H 7.25 c -4.004,0 -7.25,3.246 -7.25,7.25 z" /></g><g
           transform="translate(126.5848,164)"
           id="g52"><path
             id="path54"
             style="fill:#ffffff;fill-opacity:1;fill-rule:nonzero;stroke:none"
             d="m 0,0 c 0.294,-8.515 0.379,-17.03 -0.026,-25.543 -0.391,-8.216 -1.103,-16.396 -2.978,-24.435 -1.904,-8.17 -5.681,-15.43 -10.831,-22.013 -4.562,-5.831 -9.971,-10.728 -16.437,-14.408 -5.963,-3.394 -12.337,-5.43 -19.253,-5.597 -0.31,-0.008 -0.621,-0.001 -1,-0.001 -0.018,0.266 -0.047,0.496 -0.047,0.727 -0.003,3.97 0.008,7.94 -0.013,11.91 -0.003,0.56 0.115,0.776 0.741,0.819 2.17,0.151 4.193,0.899 6.157,1.767 7.659,3.386 14.225,8.312 20.015,14.285 3.689,3.806 6.996,7.904 9.239,12.756 1.926,4.165 3.181,8.542 4.139,13.011 1.307,6.096 2.16,12.261 2.46,18.483 0.292,6.075 0.392,12.159 0.577,18.239 z" /></g><g
           transform="translate(129.4152,164)"
           id="g56"><path
             id="path58"
             style="fill:#ffffff;fill-opacity:1;fill-rule:nonzero;stroke:none"
             d="m 0,0 c -0.294,-8.515 -0.379,-17.03 0.026,-25.543 0.391,-8.216 1.103,-16.396 2.978,-24.435 1.904,-8.17 5.681,-15.43 10.831,-22.013 4.562,-5.831 9.971,-10.728 16.437,-14.408 5.963,-3.394 12.337,-5.43 19.253,-5.597 0.31,-0.008 0.621,-0.001 1,-0.001 0.018,0.266 0.047,0.496 0.047,0.727 0.003,3.97 -0.008,7.94 0.013,11.91 0.003,0.56 -0.115,0.776 -0.741,0.819 -2.17,0.151 -4.193,0.899 -6.157,1.767 -7.659,3.386 -14.225,8.312 -20.015,14.285 -3.689,3.806 -6.996,7.904 -9.239,12.756 -1.926,4.165 -3.181,8.542 -4.139,13.011 -1.307,6.096 -2.16,12.261 -2.46,18.483 C 7.542,-12.164 7.442,-6.08 7.257,0 Z" /></g><path
           id="path60"
           style="fill:#ff0000;fill-opacity:1;fill-rule:nonzero;stroke:none"
           d="m 70,178 h 116 v -4 H 70 Z" /><g
           transform="translate(158.5693,191.6007)"
           id="g62"><path
             id="path64"
             style="fill:#ff0000;fill-opacity:1;fill-rule:nonzero;stroke:none"
             d="M 0,0 C -1.4,0 -2.535,2.039 -2.535,4.555 -2.535,7.07 -1.4,9.109 0,9.109 1.4,9.109 2.535,7.07 2.535,4.555 2.535,2.039 1.4,0 0,0 m -18.536,0 c -1.4,0 -2.535,2.039 -2.535,4.555 0,2.515 1.135,4.554 2.535,4.554 1.401,0 2.535,-2.039 2.535,-4.554 C -16.001,2.039 -17.135,0 -18.536,0 m -18.127,-1.896 c -1.057,0.03 -2.074,1.113 -2.031,2.161 0.048,1.132 0.955,2.12 1.936,2.106 1.146,-0.016 2.135,-0.95 2.133,-2.017 -0.002,-1.23 -0.954,-2.28 -2.038,-2.25 m -0.112,12.772 c 0.909,0.01 1.662,-0.856 1.637,-1.881 -0.024,-0.953 -0.801,-1.702 -1.709,-1.65 -0.872,0.051 -1.525,0.854 -1.52,1.869 0.003,0.853 0.77,1.652 1.592,1.662 M 6.928,12.707 C 3.121,18.146 -4.741,17.424 -7.927,11.542 -8.534,10.423 -8.915,9.174 -9.473,7.806 c -0.379,1.024 -0.681,1.977 -1.077,2.887 -2.683,6.18 -10.252,7.097 -14.441,2.685 -2.205,-2.321 -3.154,-5.252 -3.087,-8.519 0.016,-0.747 0.003,-1.496 0.003,-2.262 -1.213,0.824 -2.279,1.549 -3.464,2.354 0.44,0.258 0.831,0.473 1.209,0.71 2.598,1.626 3.082,4.997 1.145,7.432 -1.719,2.16 -4.066,2.719 -6.55,2.804 -2.781,0.095 -5.558,-0.051 -8.119,-2.166 0,1.103 -1.27,1.527 -1.27,1.527 -0.489,-0.066 -11.337,-0.007 -16.263,0 -0.917,0.001 -1.215,-0.431 -1.179,-1.307 0.057,-1.421 0.119,-2.843 0.105,-4.264 -0.01,-1.027 0.407,-1.403 1.382,-1.383 2.099,0.043 4.201,0.015 6.301,0.015 0.798,0 1.132,-0.19 0.705,-1.129 -1.965,-4.323 -3.86,-8.679 -5.799,-13.016 -0.493,-1.102 -0.354,-1.422 0.837,-1.419 1.905,0.004 3.814,0.018 5.712,0.163 0.439,0.034 1.044,0.522 1.226,0.957 1.665,3.982 5.794,14.143 6.259,15.212 0.103,-0.014 0.206,-0.029 0.309,-0.043 0.24,-2.032 1.599,-3.143 3.279,-4.136 -0.619,-0.391 -1.09,-0.633 -1.503,-0.957 -3.26,-2.552 -2.844,-7.387 0.839,-9.719 3.512,-2.223 7.235,-2.254 11.032,-0.998 2.377,0.787 4.059,2.305 4.434,5.027 0.022,0.157 0.172,0.296 0.344,0.576 2.002,-4.331 4.987,-6.757 9.728,-6.141 4.831,0.629 6.814,4.168 8.007,8.704 0.503,-1.235 0.894,-2.207 1.294,-3.175 1.454,-3.508 5.053,-5.813 8.724,-5.454 3.888,0.38 6.473,2.602 7.773,6.371 1.641,4.759 1.373,9.468 -1.494,13.565" /></g><g
           transform="translate(58.4055,184)"
           id="g66"><path
             id="path68"
             style="fill:#231f20;fill-opacity:1;fill-rule:nonzero;stroke:none"
             d="M 0,0 H -3.329 C -3.559,0 -3.761,0.08 -3.933,0.24 -4.105,0.4 -4.191,0.588 -4.191,0.803 V 8 h 1.29 V 1.201 l 2.901,0 z" /></g><path
           id="path70"
           style="fill:#231f20;fill-opacity:1;fill-rule:nonzero;stroke:none"
           d="m 60.501,184 h -1.29 v 8 h 1.29 z" /><g
           transform="translate(65.5472,186.1978)"
           id="g72"><path
             id="path74"
             style="fill:#231f20;fill-opacity:1;fill-rule:nonzero;stroke:none"
             d="m 0,0 c 0,0.262 -0.109,0.494 -0.327,0.697 -0.218,0.204 -0.468,0.305 -0.749,0.305 h -1.611 v -1.998 h 1.611 c 0.281,0 0.531,0.101 0.749,0.304 C -0.109,-0.488 0,-0.258 0,0 m -0.541,3.604 c 0,0.258 -0.109,0.489 -0.327,0.692 -0.223,0.207 -0.47,0.311 -0.743,0.311 H -2.687 V 2.204 c 1.431,0.207 2.146,0.674 2.146,1.4 M 1.29,0 c 0,-0.578 -0.239,-1.09 -0.717,-1.536 -0.474,-0.441 -1.024,-0.662 -1.649,-0.662 h -2.039 c -0.23,0 -0.432,0.08 -0.604,0.24 -0.172,0.161 -0.258,0.348 -0.258,0.563 v 6.4 c 0,0.211 0.086,0.397 0.258,0.557 0.172,0.16 0.374,0.24 0.604,0.24 h 1.504 c 0.604,0 1.15,-0.209 1.636,-0.627 C 0.508,4.761 0.749,4.271 0.749,3.704 0.749,2.989 0.43,2.422 -0.208,2.004 0.224,1.848 0.583,1.582 0.868,1.207 1.149,0.84 1.29,0.438 1.29,0" /></g><g
           transform="translate(72.7959,184)"
           id="g76"><path
             id="path78"
             style="fill:#231f20;fill-opacity:1;fill-rule:nonzero;stroke:none"
             d="m 0,0 h -1.504 l -1.774,2.59 c -0.252,0.368 -0.378,0.647 -0.378,0.839 0,0.363 0.122,0.634 0.365,0.814 0.017,0.012 0.3,0.158 0.85,0.44 0.625,0.324 0.937,0.697 0.937,1.119 0,0.254 -0.111,0.485 -0.333,0.692 -0.223,0.207 -0.47,0.31 -0.743,0.31 H -3.87 V 0 h -1.29 v 7.203 c 0,0.211 0.086,0.397 0.258,0.557 C -4.73,7.92 -4.528,8 -4.298,8 H -2.58 C -1.976,8 -1.43,7.791 -0.944,7.373 -0.461,6.959 -0.22,6.468 -0.22,5.902 -0.22,5.339 -0.424,4.831 -0.831,4.378 -1.242,3.925 -1.739,3.616 -2.322,3.452 Z" /></g><g
           transform="translate(77.7857,184)"
           id="g80"><path
             id="path82"
             style="fill:#231f20;fill-opacity:1;fill-rule:nonzero;stroke:none"
             d="m 0,0 h -3.329 c -0.23,0 -0.432,0.08 -0.604,0.24 -0.172,0.16 -0.258,0.348 -0.258,0.563 v 6.4 c 0,0.211 0.086,0.397 0.258,0.557 C -3.761,7.92 -3.559,8 -3.329,8 H 0 V 6.804 H -2.901 V 4.601 h 1.825 V 3.399 H -2.901 V 1.201 l 2.901,0 z" /></g><g
           transform="translate(83.153,190.8044)"
           id="g84"><path
             id="path86"
             style="fill:#231f20;fill-opacity:1;fill-rule:nonzero;stroke:none"
             d="m 0,0 h -1.718 v -6.804 h -1.29 V 0 H -4.726 V 1.196 H 0 Z" /></g><g
           transform="translate(88.9545,184)"
           id="g88"><path
             id="path90"
             style="fill:#231f20;fill-opacity:1;fill-rule:nonzero;stroke:none"
             d="m 0,0 h -1.504 l -1.774,2.59 c -0.252,0.368 -0.378,0.647 -0.378,0.839 0,0.363 0.122,0.634 0.365,0.814 0.017,0.012 0.3,0.158 0.85,0.44 0.625,0.324 0.937,0.697 0.937,1.119 0,0.254 -0.111,0.485 -0.333,0.692 -0.223,0.207 -0.47,0.31 -0.743,0.31 H -3.87 V 0 h -1.29 v 7.203 c 0,0.211 0.086,0.397 0.258,0.557 C -4.73,7.92 -4.528,8 -4.298,8 H -2.58 C -1.976,8 -1.43,7.791 -0.944,7.373 -0.461,6.959 -0.22,6.468 -0.22,5.902 -0.22,5.339 -0.424,4.831 -0.831,4.378 -1.242,3.925 -1.739,3.616 -2.322,3.452 Z" /></g><g
           transform="translate(92.9249,186.1978)"
           id="g92"><path
             id="path94"
             style="fill:#231f20;fill-opacity:1;fill-rule:nonzero;stroke:none"
             d="M 0,0 V 3.604 C 0,3.862 -0.109,4.093 -0.327,4.296 -0.55,4.503 -0.799,4.607 -1.076,4.607 -1.353,4.607 -1.602,4.503 -1.825,4.296 -2.043,4.093 -2.152,3.862 -2.152,3.604 V 0 c 0,-0.258 0.109,-0.488 0.327,-0.692 0.218,-0.203 0.468,-0.304 0.749,-0.304 0.281,0 0.531,0.101 0.749,0.304 C -0.109,-0.488 0,-0.258 0,0 m 1.29,0 c 0,-0.578 -0.239,-1.09 -0.717,-1.536 -0.474,-0.441 -1.024,-0.662 -1.649,-0.662 -0.617,0 -1.166,0.221 -1.649,0.662 -0.474,0.45 -0.711,0.962 -0.711,1.536 v 3.604 c 0,0.579 0.237,1.089 0.711,1.53 0.479,0.445 1.028,0.668 1.649,0.668 0.625,0 1.175,-0.223 1.649,-0.668 C 1.051,4.693 1.29,4.183 1.29,3.604 Z" /></g><g
           transform="translate(204,180)"
           id="g96"><path
             id="path98"
             style="fill:#ffff00;fill-opacity:1;fill-rule:nonzero;stroke:none"
             d="M 0,0 -44,44 H 0 Z" /></g><g
           transform="translate(109.6398,49.8023)"
           id="g100"><path
             id="path102"
             style="fill:#231f20;fill-opacity:1;fill-rule:nonzero;stroke:none"
             d="M 0,0 C 0,0.254 -0.11,0.484 -0.332,0.692 -0.553,0.899 -0.8,1.002 -1.071,1.002 H -2.355 V -1.401 C -0.785,-1.166 0,-0.7 0,0 m 1.278,0.1 c 0,-1.317 -1.211,-2.218 -3.633,-2.702 v -3.2 H -3.64 v 7.203 c 0,0.211 0.086,0.397 0.257,0.557 0.171,0.16 0.371,0.24 0.601,0.24 h 1.711 c 0.601,0 1.144,-0.209 1.629,-0.628 0.48,-0.414 0.72,-0.904 0.72,-1.47" /></g><g
           transform="translate(116.0993,44)"
           id="g104"><path
             id="path106"
             style="fill:#231f20;fill-opacity:1;fill-rule:nonzero;stroke:none"
             d="m 0,0 h -1.196 l -1.417,2.069 c -0.2,0.293 -0.3,0.518 -0.3,0.674 0,0.293 0.146,0.539 0.438,0.739 0.142,0.074 0.282,0.148 0.42,0.222 0.138,0.075 0.278,0.151 0.42,0.229 0.292,0.191 0.439,0.427 0.439,0.709 0,0.211 -0.086,0.397 -0.257,0.557 -0.172,0.16 -0.372,0.24 -0.602,0.24 H -3.082 V 0 H -4.11 v 5.761 c 0,0.169 0.069,0.317 0.207,0.446 0.142,0.129 0.302,0.193 0.482,0.193 h 1.366 c 0.489,0 0.923,-0.166 1.303,-0.498 0.384,-0.336 0.577,-0.729 0.577,-1.178 0,-0.449 -0.163,-0.856 -0.489,-1.219 C -0.982,3.146 -1.379,2.897 -1.855,2.76 Z" /></g><g
           transform="translate(119.3693,45.758)"
           id="g108"><path
             id="path110"
             style="fill:#231f20;fill-opacity:1;fill-rule:nonzero;stroke:none"
             d="m 0,0 v 2.884 c 0,0.211 -0.085,0.397 -0.256,0.557 -0.172,0.16 -0.372,0.24 -0.602,0.24 -0.23,0 -0.43,-0.08 -0.601,-0.24 C -1.627,3.285 -1.71,3.099 -1.71,2.884 V 0 c 0,-0.214 0.083,-0.401 0.251,-0.557 0.171,-0.16 0.371,-0.24 0.601,-0.24 0.23,0 0.43,0.08 0.602,0.24 C -0.085,-0.396 0,-0.21 0,0 m 1.021,0 c 0,-0.461 -0.19,-0.869 -0.57,-1.225 -0.38,-0.355 -0.816,-0.533 -1.309,-0.533 -0.493,0 -0.93,0.178 -1.31,0.533 -0.38,0.356 -0.569,0.764 -0.569,1.225 v 2.884 c 0,0.461 0.189,0.869 0.569,1.225 0.38,0.355 0.817,0.533 1.31,0.533 0.493,0 0.929,-0.178 1.309,-0.533 0.38,-0.356 0.57,-0.764 0.57,-1.225 z" /></g><g
           transform="translate(125.897,46.1977)"
           id="g112"><path
             id="path114"
             style="fill:#231f20;fill-opacity:1;fill-rule:nonzero;stroke:none"
             d="m 0,0 c 0,-0.578 -0.238,-1.09 -0.714,-1.535 -0.472,-0.442 -1.018,-0.663 -1.634,-0.663 -0.623,0 -1.166,0.221 -1.63,0.663 -0.468,0.449 -0.71,0.961 -0.727,1.535 h 1.284 c 0.039,-0.262 0.155,-0.494 0.352,-0.698 0.2,-0.199 0.44,-0.299 0.721,-0.299 0.317,0 0.58,0.128 0.789,0.382 0.183,0.23 0.275,0.504 0.275,0.821 0,0.258 -0.108,0.488 -0.326,0.691 -0.217,0.203 -0.463,0.305 -0.738,0.305 -0.619,0 -1.168,0.22 -1.648,0.662 -0.472,0.449 -0.709,0.963 -0.709,1.542 v 0.199 c 0,0.578 0.237,1.087 0.709,1.529 0.476,0.446 1.025,0.668 1.648,0.668 0.616,0 1.158,-0.222 1.622,-0.668 C -0.258,4.692 -0.016,4.183 0,3.605 h -1.284 c -0.028,0.261 -0.146,0.494 -0.35,0.697 -0.201,0.203 -0.439,0.305 -0.714,0.305 -0.326,0 -0.586,-0.123 -0.777,-0.37 -0.198,-0.241 -0.296,-0.519 -0.296,-0.831 0,-0.262 0.108,-0.495 0.326,-0.698 0.218,-0.203 0.466,-0.305 0.747,-0.305 0.616,0 1.162,-0.222 1.634,-0.668 C -0.238,1.294 0,0.783 0,0.206 Z" /></g><g
           transform="translate(130.7913,50.4)"
           id="g116"><path
             id="path118"
             style="fill:#231f20;fill-opacity:1;fill-rule:nonzero;stroke:none"
             d="M 0,0 -1.799,-3.358 V -6.4 h -1.027 v 3.042 L -4.611,0 h 1.183 L -2.313,-2.081 -1.204,0 Z" /></g><g
           transform="translate(134.8192,45.758)"
           id="g120"><path
             id="path122"
             style="fill:#231f20;fill-opacity:1;fill-rule:nonzero;stroke:none"
             d="m 0,0 c 0,-0.457 -0.192,-0.865 -0.576,-1.225 -0.38,-0.355 -0.815,-0.533 -1.303,-0.533 -0.494,0 -0.927,0.176 -1.303,0.527 -0.372,0.356 -0.566,0.767 -0.583,1.231 h 1.027 c 0.034,-0.214 0.127,-0.401 0.282,-0.557 0.163,-0.16 0.355,-0.24 0.577,-0.24 0.254,0 0.464,0.104 0.627,0.311 0.149,0.187 0.224,0.404 0.224,0.651 0,0.21 -0.085,0.396 -0.256,0.556 -0.171,0.16 -0.369,0.24 -0.595,0.24 -0.535,0 -0.984,0.194 -1.347,0.581 -0.359,0.39 -0.539,0.838 -0.539,1.342 0,0.461 0.19,0.869 0.57,1.225 0.38,0.355 0.818,0.533 1.316,0.533 0.488,0 0.921,-0.178 1.297,-0.533 C -0.207,3.757 -0.012,3.348 0,2.884 h -1.028 c -0.028,0.211 -0.123,0.397 -0.281,0.557 -0.159,0.16 -0.349,0.24 -0.57,0.24 -0.26,0 -0.468,-0.097 -0.627,-0.293 -0.155,-0.192 -0.232,-0.413 -0.232,-0.662 0,-0.215 0.086,-0.403 0.258,-0.563 0.17,-0.16 0.371,-0.24 0.601,-0.24 0.53,0 0.982,-0.197 1.353,-0.592 C -0.175,0.948 0,0.504 0,0" /></g><g
           transform="translate(139.2246,49.4387)"
           id="g124"><path
             id="path126"
             style="fill:#231f20;fill-opacity:1;fill-rule:nonzero;stroke:none"
             d="M 0,0 H -1.372 V -5.439 H -2.394 V 0 H -3.765 V 0.961 H 0 Z" /></g><g
           transform="translate(143.2027,44)"
           id="g128"><path
             id="path130"
             style="fill:#231f20;fill-opacity:1;fill-rule:nonzero;stroke:none"
             d="M 0,0 H -2.65 C -2.83,0 -2.991,0.065 -3.133,0.193 -3.271,0.326 -3.34,0.475 -3.34,0.639 v 5.122 c 0,0.169 0.069,0.317 0.207,0.446 C -2.991,6.336 -2.83,6.4 -2.65,6.4 H 0 V 5.439 H -2.313 V 3.681 h 1.454 V 2.719 H -2.313 V 0.961 l 2.313,0 z" /></g><g
           transform="translate(150,44)"
           id="g132"><path
             id="path134"
             style="fill:#231f20;fill-opacity:1;fill-rule:nonzero;stroke:none"
             d="M 0,0 H -1.028 V 3.64 L -2.18,0.639 C -2.343,0.213 -2.571,0 -2.863,0 -3.156,0 -3.386,0.213 -3.553,0.639 L -4.706,3.64 V 0 h -1.027 v 5.761 c 0,0.173 0.065,0.321 0.194,0.446 0.129,0.129 0.28,0.193 0.452,0.193 0.276,0 0.496,-0.212 0.663,-0.639 l 1.561,-4.061 1.56,4.061 c 0.162,0.427 0.384,0.639 0.664,0.639 0.171,0 0.32,-0.064 0.445,-0.193 C -0.065,6.082 0,5.934 0,5.761 Z" /></g></g></g></g></svg>