<?xml version="1.0" encoding="UTF-8" standalone="no"?>
<svg
   xmlns:dc="http://purl.org/dc/elements/1.1/"
   xmlns:cc="http://creativecommons.org/ns#"
   xmlns:rdf="http://www.w3.org/1999/02/22-rdf-syntax-ns#"
   xmlns:svg="http://www.w3.org/2000/svg"
   xmlns="http://www.w3.org/2000/svg"
   viewBox="0 0 341.33334 341.33334"
   height="256"
   width="256"
   xml:space="preserve"
   id="svg2"
   version="1.1"><metadata
     id="metadata8"><rdf:RDF><cc:Work
         rdf:about=""><dc:format>image/svg+xml</dc:format><dc:type
           rdf:resource="http://purl.org/dc/dcmitype/StillImage" /></cc:Work></rdf:RDF></metadata><defs
     id="defs6"><clipPath
       id="clipPath18"
       clipPathUnits="userSpaceOnUse"><path
         id="path16"
         d="M 0,256 H 256 V 0 H 0 Z" /></clipPath><clipPath
       id="clipPath26"
       clipPathUnits="userSpaceOnUse"><path
         id="path24"
         d="M 4,226 H 252 V 30 H 4 Z" /></clipPath></defs><g
     transform="matrix(1.3333333,0,0,-1.3333333,0,341.33333)"
     id="g10"><g
       id="g12"><g
         clip-path="url(#clipPath18)"
         id="g14"><g
           id="g20"><g
             id="g22" /><g
             id="g34"><g
               style="opacity:0.5"
               id="g32"
               clip-path="url(#clipPath26)"><g
                 id="g30"
                 transform="translate(162.3704,226)"><path
                   id="path28"
                   style="fill:#ffffff;fill-opacity:1;fill-rule:nonzero;stroke:none"
                   d="m 0,0 c -5.778,0 -8.915,-2.227 -10.79,-3.557 -1.026,-0.729 -1.026,-0.729 -2.099,-0.729 h -42.963 c -1.074,0 -1.074,0 -2.103,0.73 -1.874,1.33 -5.011,3.556 -10.786,3.556 -4.798,0 -11.538,-1.311 -17.037,-2.874 -1.025,0.319 -2.176,0.501 -3.456,0.501 -1.429,0 -2.957,-0.219 -4.808,-0.688 -6.541,-1.646 -23.436,-8.681 -30.278,-14.767 -3.502,-3.127 -6.911,-6.729 -6.911,-13.409 v -0.358 c -3.857,-4.024 -7.15,-8.083 -9.812,-12.099 -15.228,-22.974 -17.327,-47.917 -17.327,-71.449 0,-24.672 4.699,-48.145 13.59,-67.88 l 0.101,-0.223 0.114,-0.217 C -138.651,-194.7 -125.43,-196 -116,-196 h 30.074 c 3.183,0 5.803,1.44 7.815,4.286 h 35.148 6.087 l 1.157,4.183 c 0.309,0.055 0.749,0.102 1.349,0.102 0.6,0 1.039,-0.047 1.348,-0.102 l 1.157,-4.183 h 6.087 35.148 c 2.012,-2.846 4.632,-4.286 7.815,-4.286 h 30.074 c 6.995,0 12.305,0.769 16.713,2.42 5.395,2.022 9.383,5.424 11.855,10.113 l 0.115,0.219 0.102,0.226 c 8.888,19.738 13.586,43.21 13.586,67.879 0,23.533 -2.1,48.476 -17.332,71.453 -2.662,4.016 -5.955,8.076 -9.812,12.1 v 0.357 c 0,6.696 -3.413,10.295 -6.908,13.407 -6.825,6.08 -23.726,13.12 -30.287,14.772 -1.848,0.466 -3.374,0.683 -4.799,0.683 -1.281,0 -2.432,-0.181 -3.458,-0.5 C 11.53,-1.309 4.79,0 0,0" /></g></g></g></g><g
           transform="translate(228.0006,177.89)"
           id="g36"><path
             id="path38"
             style="fill:#333333;fill-opacity:1;fill-rule:nonzero;stroke:none"
             d="m 0,0 c -3.003,4.53 -6.831,9 -11.145,13.234 v 3.643 c 0,3.082 -1.069,4.62 -4.227,7.432 -5.31,4.731 -20.811,11.451 -26.921,12.99 -3.316,0.835 -4.648,0.441 -5.031,-0.836 -5.422,1.881 -13.55,3.647 -18.306,3.647 -6.582,0 -5.779,-4.286 -12.889,-4.286 h -42.963 c -7.11,0 -6.311,4.286 -12.889,4.286 -4.76,0 -12.885,-1.766 -18.302,-3.651 -0.391,1.277 -1.719,1.675 -5.035,0.835 -6.114,-1.538 -21.611,-8.263 -26.925,-12.99 -3.15,-2.811 -4.228,-4.354 -4.228,-7.431 V 13.23 c -4.313,-4.234 -8.141,-8.704 -11.144,-13.234 -13.358,-20.152 -15.996,-42.429 -15.996,-67.029 0,-22.65 4.146,-45.197 12.885,-64.594 3.115,-5.919 9.937,-8.263 21.486,-8.263 h 30.074 c 1.946,0 1.946,4.286 4.296,4.286 h 38.667 c 0,0 1.186,4.285 8.592,4.285 7.407,0 8.593,-4.285 8.593,-4.285 h 38.667 c 2.35,0 2.35,-4.286 4.296,-4.286 h 30.074 c 11.548,0 18.371,2.344 21.49,8.263 8.734,19.397 12.88,41.944 12.88,64.594 0,24.6 -2.638,46.877 -15.999,67.033" /></g><g
           transform="translate(228.0006,178.1174)"
           id="g40"><path
             id="path42"
             style="fill:#404040;fill-opacity:1;fill-rule:nonzero;stroke:none"
             d="m 0,0 c -3.003,4.537 -6.831,9.015 -11.145,13.256 0,0.284 -1.238,1.552 -3.167,3.325 -25.986,16.62 -64.207,19.302 -64.207,19.302 h -42.963 c -26.85,0 -67.379,-22.631 -67.379,-22.631 -4.313,-4.242 -8.141,-8.719 -11.144,-13.256 -13.358,-20.185 -15.996,-42.498 -15.996,-67.138 0,-22.686 4.146,-45.271 12.885,-64.699 3.115,-5.928 9.937,-8.276 21.486,-8.276 h 30.074 c 1.946,0 1.946,4.292 4.296,4.292 h 38.667 c 0,0 1.186,4.293 8.592,4.293 7.407,0 8.593,-4.293 8.593,-4.293 h 38.667 c 2.35,0 2.35,-4.292 4.296,-4.292 h 30.074 c 11.548,0 18.371,2.348 21.49,8.276 8.734,19.428 12.88,42.013 12.88,64.699 C 15.999,-42.502 13.361,-20.189 0,0" /></g><g
           transform="translate(162,114)"
           id="g44"><path
             id="path46"
             style="fill:#191919;fill-opacity:1;fill-rule:nonzero;stroke:none"
             d="m 0,0 c 0,-3.314 -2.686,-6 -6,-6 -3.314,0 -6,2.686 -6,6 0,3.314 2.686,6 6,6 3.314,0 6,-2.686 6,-6" /></g><g
           transform="translate(162,112)"
           id="g48"><path
             id="path50"
             style="fill:#999999;fill-opacity:1;fill-rule:nonzero;stroke:none"
             d="m 0,0 h -12 c -1.104,0 -2,0.896 -2,2 0,1.104 0.896,2 2,2 H 0 C 1.104,4 2,3.104 2,2 2,0.896 1.104,0 0,0" /></g><g
           transform="translate(162,98)"
           id="g52"><path
             id="path54"
             style="fill:#191919;fill-opacity:1;fill-rule:nonzero;stroke:none"
             d="m 0,0 c 0,-3.314 -2.686,-6 -6,-6 -3.314,0 -6,2.686 -6,6 0,3.314 2.686,6 6,6 3.314,0 6,-2.686 6,-6" /></g><g
           transform="translate(162,96)"
           id="g56"><path
             id="path58"
             style="fill:#999999;fill-opacity:1;fill-rule:nonzero;stroke:none"
             d="m 0,0 h -12 c -1.104,0 -2,0.896 -2,2 0,1.104 0.896,2 2,2 H 0 C 1.104,4 2,3.104 2,2 2,0.896 1.104,0 0,0" /></g><g
           transform="translate(162,82)"
           id="g60"><path
             id="path62"
             style="fill:#191919;fill-opacity:1;fill-rule:nonzero;stroke:none"
             d="m 0,0 c 0,-3.314 -2.686,-6 -6,-6 -3.314,0 -6,2.686 -6,6 0,3.314 2.686,6 6,6 3.314,0 6,-2.686 6,-6" /></g><g
           transform="translate(162,80)"
           id="g64"><path
             id="path66"
             style="fill:#999999;fill-opacity:1;fill-rule:nonzero;stroke:none"
             d="m 0,0 h -12 c -1.104,0 -2,0.896 -2,2 0,1.104 0.896,2 2,2 H 0 C 1.104,4 2,3.104 2,2 2,0.896 1.104,0 0,0" /></g><g
           transform="translate(162,66)"
           id="g68"><path
             id="path70"
             style="fill:#191919;fill-opacity:1;fill-rule:nonzero;stroke:none"
             d="m 0,0 c 0,-3.314 -2.686,-6 -6,-6 -3.314,0 -6,2.686 -6,6 0,3.314 2.686,6 6,6 3.314,0 6,-2.686 6,-6" /></g><g
           transform="translate(162,64)"
           id="g72"><path
             id="path74"
             style="fill:#999999;fill-opacity:1;fill-rule:nonzero;stroke:none"
             d="m 0,0 h -12 c -1.104,0 -2,0.896 -2,2 0,1.104 0.896,2 2,2 H 0 C 1.104,4 2,3.104 2,2 2,0.896 1.104,0 0,0" /></g><g
           transform="translate(134,114)"
           id="g76"><path
             id="path78"
             style="fill:#191919;fill-opacity:1;fill-rule:nonzero;stroke:none"
             d="m 0,0 c 0,-3.314 -2.686,-6 -6,-6 -3.314,0 -6,2.686 -6,6 0,3.314 2.686,6 6,6 3.314,0 6,-2.686 6,-6" /></g><g
           transform="translate(134,112)"
           id="g80"><path
             id="path82"
             style="fill:#999999;fill-opacity:1;fill-rule:nonzero;stroke:none"
             d="m 0,0 h -12 c -1.104,0 -2,0.896 -2,2 0,1.104 0.896,2 2,2 H 0 C 1.104,4 2,3.104 2,2 2,0.896 1.104,0 0,0" /></g><g
           transform="translate(134,98)"
           id="g84"><path
             id="path86"
             style="fill:#191919;fill-opacity:1;fill-rule:nonzero;stroke:none"
             d="m 0,0 c 0,-3.314 -2.686,-6 -6,-6 -3.314,0 -6,2.686 -6,6 0,3.314 2.686,6 6,6 3.314,0 6,-2.686 6,-6" /></g><g
           transform="translate(134,96)"
           id="g88"><path
             id="path90"
             style="fill:#999999;fill-opacity:1;fill-rule:nonzero;stroke:none"
             d="m 0,0 h -12 c -1.104,0 -2,0.896 -2,2 0,1.104 0.896,2 2,2 H 0 C 1.104,4 2,3.104 2,2 2,0.896 1.104,0 0,0" /></g><g
           transform="translate(134,82)"
           id="g92"><path
             id="path94"
             style="fill:#191919;fill-opacity:1;fill-rule:nonzero;stroke:none"
             d="m 0,0 c 0,-3.314 -2.686,-6 -6,-6 -3.314,0 -6,2.686 -6,6 0,3.314 2.686,6 6,6 3.314,0 6,-2.686 6,-6" /></g><g
           transform="translate(134,80)"
           id="g96"><path
             id="path98"
             style="fill:#999999;fill-opacity:1;fill-rule:nonzero;stroke:none"
             d="m 0,0 h -12 c -1.104,0 -2,0.896 -2,2 0,1.104 0.896,2 2,2 H 0 C 1.104,4 2,3.104 2,2 2,0.896 1.104,0 0,0" /></g><g
           transform="translate(134,66)"
           id="g100"><path
             id="path102"
             style="fill:#191919;fill-opacity:1;fill-rule:nonzero;stroke:none"
             d="m 0,0 c 0,-3.314 -2.686,-6 -6,-6 -3.314,0 -6,2.686 -6,6 0,3.314 2.686,6 6,6 3.314,0 6,-2.686 6,-6" /></g><g
           transform="translate(134,64)"
           id="g104"><path
             id="path106"
             style="fill:#999999;fill-opacity:1;fill-rule:nonzero;stroke:none"
             d="m 0,0 h -12 c -1.104,0 -2,0.896 -2,2 0,1.104 0.896,2 2,2 H 0 C 1.104,4 2,3.104 2,2 2,0.896 1.104,0 0,0" /></g><g
           transform="translate(106,114)"
           id="g108"><path
             id="path110"
             style="fill:#191919;fill-opacity:1;fill-rule:nonzero;stroke:none"
             d="m 0,0 c 0,-3.314 -2.686,-6 -6,-6 -3.314,0 -6,2.686 -6,6 0,3.314 2.686,6 6,6 3.314,0 6,-2.686 6,-6" /></g><g
           transform="translate(106,112)"
           id="g112"><path
             id="path114"
             style="fill:#999999;fill-opacity:1;fill-rule:nonzero;stroke:none"
             d="m 0,0 h -12 c -1.104,0 -2,0.896 -2,2 0,1.104 0.896,2 2,2 H 0 C 1.104,4 2,3.104 2,2 2,0.896 1.104,0 0,0" /></g><g
           transform="translate(106,98)"
           id="g116"><path
             id="path118"
             style="fill:#191919;fill-opacity:1;fill-rule:nonzero;stroke:none"
             d="m 0,0 c 0,-3.314 -2.686,-6 -6,-6 -3.314,0 -6,2.686 -6,6 0,3.314 2.686,6 6,6 3.314,0 6,-2.686 6,-6" /></g><g
           transform="translate(106,96)"
           id="g120"><path
             id="path122"
             style="fill:#999999;fill-opacity:1;fill-rule:nonzero;stroke:none"
             d="m 0,0 h -12 c -1.104,0 -2,0.896 -2,2 0,1.104 0.896,2 2,2 H 0 C 1.104,4 2,3.104 2,2 2,0.896 1.104,0 0,0" /></g><g
           transform="translate(106,82)"
           id="g124"><path
             id="path126"
             style="fill:#191919;fill-opacity:1;fill-rule:nonzero;stroke:none"
             d="m 0,0 c 0,-3.314 -2.686,-6 -6,-6 -3.314,0 -6,2.686 -6,6 0,3.314 2.686,6 6,6 3.314,0 6,-2.686 6,-6" /></g><g
           transform="translate(106,80)"
           id="g128"><path
             id="path130"
             style="fill:#999999;fill-opacity:1;fill-rule:nonzero;stroke:none"
             d="m 0,0 h -12 c -1.104,0 -2,0.896 -2,2 0,1.104 0.896,2 2,2 H 0 C 1.104,4 2,3.104 2,2 2,0.896 1.104,0 0,0" /></g><g
           transform="translate(106,66)"
           id="g132"><path
             id="path134"
             style="fill:#191919;fill-opacity:1;fill-rule:nonzero;stroke:none"
             d="m 0,0 c 0,-3.314 -2.686,-6 -6,-6 -3.314,0 -6,2.686 -6,6 0,3.314 2.686,6 6,6 3.314,0 6,-2.686 6,-6" /></g><g
           transform="translate(106,64)"
           id="g136"><path
             id="path138"
             style="fill:#999999;fill-opacity:1;fill-rule:nonzero;stroke:none"
             d="m 0,0 h -12 c -1.104,0 -2,0.896 -2,2 0,1.104 0.896,2 2,2 H 0 C 1.104,4 2,3.104 2,2 2,0.896 1.104,0 0,0" /></g><g
           transform="translate(61.5636,148.957)"
           id="g140"><path
             id="path142"
             style="fill:#191919;fill-opacity:1;fill-rule:nonzero;stroke:none"
             d="m 0,0 c -11.029,0 -20.001,8.972 -20.001,20 0,11.028 8.972,20 20.001,20 C 11.027,40 19.999,31.028 19.999,20 19.999,8.972 11.027,0 0,0" /></g><g
           transform="translate(61.5636,186.957)"
           id="g144"><path
             id="path146"
             style="fill:#262626;fill-opacity:1;fill-rule:nonzero;stroke:none"
             d="m 0,0 c -9.926,0 -18.001,-8.075 -18.001,-18 0,-9.925 8.075,-18 18.001,-18 9.924,0 17.999,8.075 17.999,18 C 17.999,-8.075 9.924,0 0,0" /></g><g
           transform="translate(75.5631,166.957)"
           id="g148"><path
             id="path150"
             style="fill:#191919;fill-opacity:1;fill-rule:nonzero;stroke:none"
             d="m 0,0 c 0,-2.212 -1.788,-4 -4,-4 -2.212,0 -4,-1.788 -4,-4 0,-2.212 -1.788,-4 -4,-4 h -4 c -2.212,0 -4,1.788 -4,4 0,2.212 -1.792,4 -4,4 -2.212,0 -4,1.788 -4,4 v 4 c 0,2.212 1.788,4 4,4 2.212,0 4,1.788 4,4 0,2.212 1.788,4 4,4 h 4 c 2.212,0 4,-1.788 4,-4 0,-2.212 1.792,-4 4,-4 2.212,0 4,-1.788 4,-4 z" /></g><g
           transform="translate(111.2728,155.7576)"
           id="g152"><path
             id="path154"
             style="fill:#999999;fill-opacity:1;fill-rule:nonzero;stroke:none"
             d="M 0,0 -7.03,-7.03 C -8,-8 -9.576,-8 -10.546,-7.03 c -0.969,0.969 -0.969,2.545 0,3.515 l 7.031,7.03 c 0.969,0.97 2.545,0.97 3.515,0 C 0.97,2.546 0.97,0.97 0,0" /></g><g
           transform="translate(131.2728,155.7576)"
           id="g156"><path
             id="path158"
             style="fill:#999999;fill-opacity:1;fill-rule:nonzero;stroke:none"
             d="M 0,0 -7.03,-7.03 C -8,-8 -9.576,-8 -10.546,-7.03 c -0.969,0.969 -0.969,2.545 0,3.515 l 7.031,7.03 c 0.969,0.97 2.545,0.97 3.515,0 C 0.97,2.546 0.97,0.97 0,0" /></g><g
           transform="translate(148,162)"
           id="g160"><path
             id="path162"
             style="fill:#ff0000;fill-opacity:1;fill-rule:nonzero;stroke:none"
             d="M 0,0 C 0,3.312 2.688,6 6,6 9.312,6 12,3.312 12,0 12,-3.312 9.312,-6 6,-6 2.688,-6 0,-3.312 0,0" /></g><g
           transform="translate(164,176)"
           id="g164"><path
             id="path166"
             style="fill:#ff0000;fill-opacity:1;fill-rule:nonzero;stroke:none"
             d="M 0,0 C 0,3.312 2.688,6 6,6 9.312,6 12,3.312 12,0 12,-3.312 9.312,-6 6,-6 2.688,-6 0,-3.312 0,0" /></g><g
           transform="translate(180,190)"
           id="g168"><path
             id="path170"
             style="fill:#ff0000;fill-opacity:1;fill-rule:nonzero;stroke:none"
             d="M 0,0 C 0,3.312 2.688,6 6,6 9.312,6 12,3.312 12,0 12,-3.312 9.312,-6 6,-6 2.688,-6 0,-3.312 0,0" /></g><g
           transform="translate(168,136)"
           id="g172"><path
             id="path174"
             style="fill:#ff0000;fill-opacity:1;fill-rule:nonzero;stroke:none"
             d="m 0,0 c -4.416,0 -8,3.584 -8,8 0,4.416 3.584,8 8,8 C 4.416,16 8,12.416 8,8 8,3.584 4.416,0 0,0" /></g><g
           transform="translate(186,152)"
           id="g176"><path
             id="path178"
             style="fill:#ff0000;fill-opacity:1;fill-rule:nonzero;stroke:none"
             d="m 0,0 c -4.416,0 -8,3.584 -8,8 0,4.416 3.584,8 8,8 C 4.416,16 8,12.416 8,8 8,3.584 4.416,0 0,0" /></g><g
           transform="translate(204,168)"
           id="g180"><path
             id="path182"
             style="fill:#ff0000;fill-opacity:1;fill-rule:nonzero;stroke:none"
             d="m 0,0 c -4.416,0 -8,3.584 -8,8 0,4.416 3.584,8 8,8 C 4.416,16 8,12.416 8,8 8,3.584 4.416,0 0,0" /></g><g
           transform="translate(84.3308,44)"
           id="g184"><path
             id="path186"
             style="fill:#333333;fill-opacity:1;fill-rule:nonzero;stroke:none"
             d="m 0,0 v 73.476 c 0,3.482 2.914,6.315 6.496,6.315 h 74.346 c 3.583,0 6.496,-2.833 6.496,-6.315 V 0 h 4.331 V 73.476 C 91.669,79.279 86.812,84 80.842,84 H 6.496 C 0.527,84 -4.331,79.279 -4.331,73.476 V 0 Z" /></g><path
           id="path188"
           style="fill:#333333;fill-opacity:1;fill-rule:nonzero;stroke:none"
           d="m 180,116 h 8 v 8 h -8 z" /><path
           id="path190"
           style="fill:#333333;fill-opacity:1;fill-rule:nonzero;stroke:none"
           d="m 180,104 h 8 v 8 h -8 z" /><path
           id="path192"
           style="fill:#333333;fill-opacity:1;fill-rule:nonzero;stroke:none"
           d="m 180,92 h 12 v 8 h -12 z" /><path
           id="path194"
           style="fill:#333333;fill-opacity:1;fill-rule:nonzero;stroke:none"
           d="m 180,80 h 12 v 8 h -12 z" /><path
           id="path196"
           style="fill:#333333;fill-opacity:1;fill-rule:nonzero;stroke:none"
           d="m 180,68 h 12 v 8 h -12 z" /><path
           id="path198"
           style="fill:#333333;fill-opacity:1;fill-rule:nonzero;stroke:none"
           d="m 180,56.1 h 16 v 8.4 h -16 z" /><path
           id="path200"
           style="fill:#333333;fill-opacity:1;fill-rule:nonzero;stroke:none"
           d="m 180,43.5 h 16 v 8.4 h -16 z" /><path
           id="path202"
           style="fill:#333333;fill-opacity:1;fill-rule:nonzero;stroke:none"
           d="m 68,116 h 8 v 8 h -8 z" /><path
           id="path204"
           style="fill:#333333;fill-opacity:1;fill-rule:nonzero;stroke:none"
           d="m 68,104 h 8 v 8 h -8 z" /><path
           id="path206"
           style="fill:#333333;fill-opacity:1;fill-rule:nonzero;stroke:none"
           d="m 64,92 h 12 v 8 H 64 Z" /><path
           id="path208"
           style="fill:#333333;fill-opacity:1;fill-rule:nonzero;stroke:none"
           d="m 64,80 h 12 v 8 H 64 Z" /><path
           id="path210"
           style="fill:#333333;fill-opacity:1;fill-rule:nonzero;stroke:none"
           d="m 64,68 h 12 v 8 H 64 Z" /><path
           id="path212"
           style="fill:#333333;fill-opacity:1;fill-rule:nonzero;stroke:none"
           d="m 60,56 h 16 v 8 H 60 Z" /><path
           id="path214"
           style="fill:#333333;fill-opacity:1;fill-rule:nonzero;stroke:none"
           d="m 60,44 h 16 v 8 H 60 Z" /><g
           transform="translate(151.4917,203.7837)"
           id="g216"><path
             id="path218"
             style="fill:#333333;fill-opacity:1;fill-rule:nonzero;stroke:none"
             d="M 0,0 C -0.534,0.386 -1.26,0.242 -1.627,-0.322 L -7.423,-9.301 H -39.56 l -5.797,8.979 c -0.366,0.564 -1.093,0.708 -1.626,0.322 -0.533,-0.388 -0.669,-1.161 -0.304,-1.727 l 6.144,-9.518 c 0.218,-0.336 0.58,-0.539 0.966,-0.539 h 33.371 c 0.386,0 0.747,0.203 0.965,0.539 l 6.145,9.518 C 0.668,-1.161 0.532,-0.388 0,0" /></g><g
           transform="translate(127.8911,212)"
           id="g220"><path
             id="path222"
             style="fill:#333333;fill-opacity:1;fill-rule:nonzero;stroke:none"
             d="M 0,0 C 0.023,-0.74 0.029,-1.481 -0.002,-2.221 -0.032,-2.936 -0.087,-3.647 -0.231,-4.346 -0.378,-5.056 -0.668,-5.688 -1.064,-6.26 -1.415,-6.767 -1.831,-7.193 -2.329,-7.513 -2.787,-7.808 -3.278,-7.985 -3.81,-8 c -0.023,0 -0.047,0 -0.077,0 -10e-4,0.023 -0.003,0.043 -0.003,0.063 0,0.346 0,0.691 -10e-4,1.036 0,0.049 0.009,0.068 0.057,0.071 0.167,0.013 0.322,0.079 0.473,0.154 0.59,0.294 1.095,0.723 1.54,1.242 0.284,0.331 0.538,0.688 0.711,1.109 0.148,0.363 0.244,0.743 0.318,1.132 0.101,0.53 0.166,1.066 0.189,1.607 0.023,0.528 0.031,1.057 0.045,1.586 z" /></g><g
           transform="translate(128.1089,212)"
           id="g224"><path
             id="path226"
             style="fill:#333333;fill-opacity:1;fill-rule:nonzero;stroke:none"
             d="M 0,0 C -0.023,-0.74 -0.029,-1.481 0.002,-2.221 0.032,-2.936 0.087,-3.647 0.231,-4.346 0.378,-5.056 0.668,-5.688 1.064,-6.26 1.415,-6.767 1.831,-7.193 2.329,-7.513 2.787,-7.808 3.278,-7.985 3.81,-8 c 0.023,0 0.047,0 0.077,0 10e-4,0.023 0.003,0.043 0.003,0.063 0,0.346 0,0.691 10e-4,1.036 0,0.049 -0.009,0.068 -0.057,0.071 -0.167,0.013 -0.322,0.079 -0.473,0.154 -0.59,0.294 -1.095,0.723 -1.54,1.242 C 1.537,-5.103 1.283,-4.746 1.11,-4.325 0.962,-3.962 0.866,-3.582 0.792,-3.193 0.691,-2.663 0.626,-2.127 0.603,-1.586 0.58,-1.058 0.572,-0.529 0.558,0 Z" /></g><g
           transform="translate(118.5144,198)"
           id="g228"><path
             id="path230"
             style="fill:#333333;fill-opacity:1;fill-rule:nonzero;stroke:none"
             d="M 0,0 H -1.997 C -2.136,0 -2.256,0.04 -2.36,0.12 -2.463,0.2 -2.514,0.294 -2.514,0.401 V 4 H -1.74 V 0.601 H 0 Z" /></g><path
           id="path232"
           style="fill:#333333;fill-opacity:1;fill-rule:nonzero;stroke:none"
           d="m 119.772,198 h -0.774 v 4 h 0.774 z" /><g
           transform="translate(122.7994,199.0989)"
           id="g234"><path
             id="path236"
             style="fill:#333333;fill-opacity:1;fill-rule:nonzero;stroke:none"
             d="m 0,0 c 0,0.131 -0.065,0.247 -0.196,0.349 -0.131,0.101 -0.281,0.152 -0.45,0.152 h -0.966 v -0.999 h 0.966 c 0.169,0 0.319,0.051 0.45,0.152 C -0.065,-0.244 0,-0.129 0,0 m -0.325,1.802 c 0,0.129 -0.065,0.244 -0.196,0.346 -0.133,0.104 -0.282,0.155 -0.445,0.155 H -1.612 V 1.102 c 0.858,0.103 1.287,0.337 1.287,0.7 M 0.774,0 c 0,-0.289 -0.144,-0.545 -0.43,-0.768 -0.285,-0.221 -0.615,-0.331 -0.99,-0.331 h -1.223 c -0.138,0 -0.259,0.04 -0.362,0.12 -0.103,0.08 -0.155,0.174 -0.155,0.282 v 3.2 c 0,0.105 0.052,0.198 0.155,0.278 0.103,0.08 0.224,0.12 0.362,0.12 h 0.903 c 0.362,0 0.689,-0.104 0.981,-0.313 C 0.305,2.38 0.449,2.135 0.449,1.852 0.449,1.494 0.258,1.211 -0.125,1.002 0.135,0.924 0.35,0.791 0.521,0.604 0.69,0.42 0.774,0.219 0.774,0" /></g><g
           transform="translate(127.1487,198)"
           id="g238"><path
             id="path240"
             style="fill:#333333;fill-opacity:1;fill-rule:nonzero;stroke:none"
             d="m 0,0 h -0.902 l -1.065,1.295 c -0.151,0.184 -0.226,0.324 -0.226,0.419 0,0.182 0.073,0.318 0.218,0.408 0.011,0.005 0.18,0.079 0.51,0.219 0.375,0.163 0.563,0.349 0.563,0.56 0,0.127 -0.067,0.242 -0.2,0.346 -0.134,0.103 -0.282,0.155 -0.446,0.155 H -2.322 V 0 h -0.774 v 3.601 c 0,0.106 0.052,0.199 0.155,0.279 C -2.838,3.96 -2.717,4 -2.579,4 h 1.031 c 0.363,0 0.69,-0.105 0.982,-0.314 0.289,-0.207 0.434,-0.452 0.434,-0.735 0,-0.281 -0.122,-0.535 -0.366,-0.762 C -0.745,1.962 -1.043,1.808 -1.393,1.726 Z" /></g><g
           transform="translate(130.1425,198)"
           id="g242"><path
             id="path244"
             style="fill:#333333;fill-opacity:1;fill-rule:nonzero;stroke:none"
             d="M 0,0 H -1.997 C -2.136,0 -2.256,0.04 -2.36,0.12 -2.463,0.2 -2.514,0.294 -2.514,0.401 v 3.2 c 0,0.106 0.051,0.199 0.154,0.279 C -2.256,3.96 -2.136,4 -1.997,4 H 0 V 3.402 H -1.74 V 2.3 h 1.094 V 1.7 H -1.74 V 0.601 H 0 Z" /></g><g
           transform="translate(133.3629,201.4022)"
           id="g246"><path
             id="path248"
             style="fill:#333333;fill-opacity:1;fill-rule:nonzero;stroke:none"
             d="M 0,0 H -1.031 V -3.402 H -1.805 V 0 h -1.03 V 0.598 H 0 Z" /></g><g
           transform="translate(136.8438,198)"
           id="g250"><path
             id="path252"
             style="fill:#333333;fill-opacity:1;fill-rule:nonzero;stroke:none"
             d="m 0,0 h -0.902 l -1.065,1.295 c -0.151,0.184 -0.226,0.324 -0.226,0.419 0,0.182 0.073,0.318 0.218,0.408 0.011,0.005 0.18,0.079 0.51,0.219 0.375,0.163 0.563,0.349 0.563,0.56 0,0.127 -0.067,0.242 -0.2,0.346 -0.134,0.103 -0.282,0.155 -0.446,0.155 H -2.322 V 0 h -0.774 v 3.601 c 0,0.106 0.052,0.199 0.155,0.279 C -2.838,3.96 -2.717,4 -2.579,4 h 1.031 c 0.363,0 0.69,-0.105 0.982,-0.314 0.289,-0.207 0.434,-0.452 0.434,-0.735 0,-0.281 -0.122,-0.535 -0.366,-0.762 C -0.745,1.962 -1.043,1.808 -1.393,1.726 Z" /></g><g
           transform="translate(139.226,199.0989)"
           id="g254"><path
             id="path256"
             style="fill:#333333;fill-opacity:1;fill-rule:nonzero;stroke:none"
             d="M 0,0 V 1.802 C 0,1.931 -0.065,2.046 -0.196,2.148 -0.33,2.252 -0.479,2.303 -0.646,2.303 -0.812,2.303 -0.961,2.252 -1.095,2.148 -1.226,2.046 -1.291,1.931 -1.291,1.802 V 0 c 0,-0.129 0.065,-0.244 0.196,-0.346 0.131,-0.101 0.281,-0.152 0.449,-0.152 0.169,0 0.319,0.051 0.45,0.152 C -0.065,-0.244 0,-0.129 0,0 m 0.774,0 c 0,-0.289 -0.144,-0.545 -0.43,-0.768 -0.285,-0.221 -0.615,-0.331 -0.99,-0.331 -0.37,0 -0.699,0.11 -0.989,0.331 -0.284,0.225 -0.426,0.481 -0.426,0.768 v 1.802 c 0,0.289 0.142,0.544 0.426,0.765 0.287,0.223 0.617,0.334 0.989,0.334 0.375,0 0.705,-0.111 0.99,-0.334 0.286,-0.221 0.43,-0.476 0.43,-0.765 z" /></g></g></g></g></svg>