<?xml version="1.0" encoding="UTF-8" standalone="no"?>
<svg
   xmlns:dc="http://purl.org/dc/elements/1.1/"
   xmlns:cc="http://creativecommons.org/ns#"
   xmlns:rdf="http://www.w3.org/1999/02/22-rdf-syntax-ns#"
   xmlns:svg="http://www.w3.org/2000/svg"
   xmlns="http://www.w3.org/2000/svg"
   viewBox="0 0 320 320"
   height="320"
   width="320"
   xml:space="preserve"
   version="1.1"
   id="svg2"><metadata
     id="metadata8"><rdf:RDF><cc:Work
         rdf:about=""><dc:format>image/svg+xml</dc:format><dc:type
           rdf:resource="http://purl.org/dc/dcmitype/StillImage" /></cc:Work></rdf:RDF></metadata><defs
     id="defs6"><clipPath
       id="clipPath16"
       clipPathUnits="userSpaceOnUse"><path
         id="path18"
         d="M 0,256 256,256 256,0 0,0 0,256 Z" /></clipPath><clipPath
       id="clipPath24"
       clipPathUnits="userSpaceOnUse"><path
         id="path26"
         d="m 68,252 120,0 0,-247.99988 -120,0 L 68,252 Z" /></clipPath><clipPath
       id="clipPath82"
       clipPathUnits="userSpaceOnUse"><path
         id="path84"
         d="M 0,256 256,256 256,0 0,0 0,256 Z" /></clipPath></defs><g
     transform="matrix(1.25,0,0,-1.25,0,320)"
     id="g10"><g
       id="g12"><g
         clip-path="url(#clipPath16)"
         id="g14"><g
           id="g20"><g
             id="g22" /><g
             id="g28"><g
               style="opacity:0.5"
               id="g30"
               clip-path="url(#clipPath24)"><g
                 id="g32"
                 transform="translate(187.9727,191.4951)"><path
                   id="path34"
                   style="fill:#ffffff;fill-opacity:1;fill-rule:nonzero;stroke:none"
                   d="m 0,0 -3.556,42.806 c -0.228,2.752 -1.859,5.191 -4.315,6.453 l -1.351,0.695 c -0.527,0.88 -1.223,1.66 -2.061,2.29 l -8.864,6.658 c -1.385,1.04 -3.071,1.603 -4.804,1.603 l -35.022,0 -35.021,0 c -1.733,0 -3.419,-0.563 -4.804,-1.603 l -8.864,-6.658 c -0.838,-0.63 -1.535,-1.41 -2.061,-2.29 l -1.351,-0.695 c -2.456,-1.262 -4.087,-3.701 -4.316,-6.453 L -119.945,0 c -0.242,-2.915 1.126,-5.731 3.569,-7.341 l 0.44,-0.29 10.743,-168.548 c 0.182,-2.862 1.882,-5.407 4.455,-6.671 l 7.781,-3.825 c 1.098,-0.539 2.306,-0.82 3.529,-0.82 l 29.455,0 29.456,0 c 1.223,0 2.43,0.281 3.528,0.82 l 7.782,3.825 c 2.573,1.264 4.273,3.809 4.455,6.671 l 10.743,168.548 0.44,0.29 C -1.126,-5.731 0.242,-2.915 0,0" /></g></g></g></g></g></g><g
       transform="translate(171.8848,237.3425)"
       id="g36"><path
         id="path38"
         style="fill:#262626;fill-opacity:1;fill-rule:nonzero;stroke:none"
         d="m 0,0 -8.864,6.658 -35.021,0 -35.021,0 L -87.77,0 l -4.115,-52.656 10.763,-168.862 7.782,-3.824 29.455,0 29.456,0 7.781,3.824 L 4.115,-52.656 0,0 Z" /></g><path
       id="path40"
       style="fill:#999999;fill-opacity:1;fill-rule:nonzero;stroke:none"
       d="m 158,12 -60,0 0,116 60,0 0,-116 z" /><g
       transform="translate(79.5556,233.6393)"
       id="g42"><path
         id="path44"
         style="fill:#ff0000;fill-opacity:1;fill-rule:nonzero;stroke:none"
         d="M 0,0 4.593,2.361 8.444,-1.574 6.222,-38.715 0.741,-45.639 -3.556,-42.807 0,0 Z" /></g><g
       transform="translate(176.4444,233.6393)"
       id="g46"><path
         id="path48"
         style="fill:#ff0000;fill-opacity:1;fill-rule:nonzero;stroke:none"
         d="m 0,0 -4.593,2.361 -3.851,-3.935 2.222,-37.141 5.481,-6.924 4.297,2.832 L 0,0 Z" /></g><path
       id="path50"
       style="fill:#191919;fill-opacity:1;fill-rule:nonzero;stroke:none"
       d="m 158,240 -60,0 0,4 60,0 0,-4 z" /><path
       id="path52"
       style="fill:#191919;fill-opacity:1;fill-rule:nonzero;stroke:none"
       d="m 158,232 -60,0 0,4 60,0 0,-4 z" /><path
       id="path54"
       style="fill:#191919;fill-opacity:1;fill-rule:nonzero;stroke:none"
       d="m 158,224 -60,0 0,4 60,0 0,-4 z" /><path
       id="path56"
       style="fill:#191919;fill-opacity:1;fill-rule:nonzero;stroke:none"
       d="m 158,216 -60,0 0,4 60,0 0,-4 z" /><path
       id="path58"
       style="fill:#191919;fill-opacity:1;fill-rule:nonzero;stroke:none"
       d="m 158,208 -60,0 0,4 60,0 0,-4 z" /><path
       id="path60"
       style="fill:#191919;fill-opacity:1;fill-rule:nonzero;stroke:none"
       d="m 158,200 -60,0 0,4 60,0 0,-4 z" /><path
       id="path62"
       style="fill:#191919;fill-opacity:1;fill-rule:nonzero;stroke:none"
       d="m 158,192 -60,0 0,4 60,0 0,-4 z" /><path
       id="path64"
       style="fill:#404040;fill-opacity:1;fill-rule:nonzero;stroke:none"
       d="m 158,128 -60,0 0,60 60,0 0,-60 z" /><g
       transform="translate(128,158)"
       id="g66"><path
         id="path68"
         style="fill:#4c4c4c;fill-opacity:1;fill-rule:nonzero;stroke:none"
         d="M 0,0 30,30 -30,30 0,0 Z" /></g><g
       transform="translate(128,158)"
       id="g70"><path
         id="path72"
         style="fill:#262626;fill-opacity:1;fill-rule:nonzero;stroke:none"
         d="M 0,0 -30,-30 30,-30 0,0 Z" /></g><g
       transform="translate(157.9999,188)"
       id="g74"><path
         id="path76"
         style="fill:#333333;fill-opacity:1;fill-rule:nonzero;stroke:none"
         d="M 0,0 -6.324,0 -30.015,-23.72 -53.974,0 -60,0 -60,-6.26 -36.288,-30 -60,-53.74 l 0,-6.26 6.026,0 23.959,23.72 L -6.324,-60 0,-60 0,-53.437 -23.672,-30 0,-6.563 0,0 Z" /></g><g
       id="g78"><g
         clip-path="url(#clipPath82)"
         id="g80"><g
           transform="translate(148,158)"
           id="g86"><path
             id="path88"
             style="fill:#191919;fill-opacity:1;fill-rule:nonzero;stroke:none"
             d="m 0,0 c 0,-11.046 -8.954,-20 -20,-20 -11.046,0 -20,8.954 -20,20 0,11.046 8.954,20 20,20 C -8.954,20 0,11.046 0,0" /></g><g
           transform="translate(142,158)"
           id="g90"><path
             id="path92"
             style="fill:#262626;fill-opacity:1;fill-rule:nonzero;stroke:none"
             d="m 0,0 c 0,-7.732 -6.268,-14 -14,-14 -7.732,0 -14,6.268 -14,14 0,7.732 6.268,14 14,14 C -6.268,14 0,7.732 0,0" /></g><path
           id="path94"
           style="fill:#ff0000;fill-opacity:1;fill-rule:nonzero;stroke:none"
           d="m 140,28 -4,0 0,72 4,0 0,-72 z" /><g
           transform="translate(120.1874,35.4274)"
           id="g96"><path
             id="path98"
             style="fill:#3b3b3b;fill-opacity:1;fill-rule:nonzero;stroke:none"
             d="m 0,0 c 1.093,0.043 2.187,0.056 3.28,-0.004 1.055,-0.057 2.105,-0.162 3.137,-0.437 1.049,-0.28 1.981,-0.834 2.827,-1.59 0.748,-0.67 1.377,-1.464 1.85,-2.414 0.435,-0.875 0.697,-1.811 0.718,-2.827 0.001,-0.045 0,-0.091 0,-0.147 -0.034,-0.002 -0.064,-0.006 -0.093,-0.006 -0.51,-0.001 -1.02,10e-4 -1.529,-0.002 -0.072,-0.001 -0.1,0.016 -0.106,0.108 C 10.065,-7 9.969,-6.703 9.858,-6.415 9.423,-5.29 8.79,-4.326 8.023,-3.476 7.535,-2.934 7.009,-2.449 6.386,-2.119 5.851,-1.836 5.289,-1.652 4.715,-1.511 3.932,-1.32 3.141,-1.194 2.342,-1.15 1.562,-1.107 0.781,-1.093 0,-1.066 L 0,0 Z" /></g><g
           transform="translate(120.1874,35.843)"
           id="g100"><path
             id="path102"
             style="fill:#3b3b3b;fill-opacity:1;fill-rule:nonzero;stroke:none"
             d="m 0,0 c 1.093,-0.043 2.187,-0.056 3.28,0.004 1.055,0.057 2.105,0.162 3.137,0.437 1.049,0.28 1.981,0.834 2.827,1.59 0.748,0.67 1.377,1.464 1.85,2.414 0.435,0.875 0.697,1.811 0.718,2.827 0.001,0.045 0,0.091 0,0.147 C 11.778,7.421 11.748,7.425 11.719,7.425 11.209,7.426 10.699,7.424 10.19,7.427 10.118,7.428 10.09,7.411 10.084,7.319 10.065,7 9.969,6.703 9.858,6.415 9.423,5.29 8.79,4.326 8.023,3.476 7.535,2.934 7.009,2.448 6.386,2.119 5.851,1.836 5.289,1.652 4.715,1.511 3.932,1.32 3.141,1.194 2.342,1.15 1.562,1.107 0.781,1.093 0,1.066 L 0,0 Z" /></g><g
           transform="translate(130.1561,51.3221)"
           id="g104"><path
             id="path106"
             style="fill:#3b3b3b;fill-opacity:1;fill-rule:nonzero;stroke:none"
             d="M 0,0 0,-4.525 C 0,-4.838 -0.102,-5.112 -0.305,-5.346 -0.508,-5.58 -0.747,-5.697 -1.019,-5.697 l -9.137,0 0,1.754 8.631,0 0,3.943 L 0,0 Z" /></g><path
           id="path108"
           style="fill:#3b3b3b;fill-opacity:1;fill-rule:nonzero;stroke:none"
           d="m 130.156,52.417 -10.156,0 0,1.753 10.156,0 0,-1.753 z" /><g
           transform="translate(127.366,61.0303)"
           id="g110"><path
             id="path112"
             style="fill:#3b3b3b;fill-opacity:1;fill-rule:nonzero;stroke:none"
             d="m 0,0 c -0.332,0 -0.627,-0.148 -0.885,-0.445 -0.258,-0.296 -0.387,-0.636 -0.387,-1.018 l 0,-2.189 2.537,0 0,2.189 c 0,0.382 -0.129,0.722 -0.387,1.018 C 0.62,-0.148 0.327,0 0,0 m -4.576,-0.736 c -0.327,0 -0.62,-0.148 -0.878,-0.444 -0.263,-0.303 -0.394,-0.639 -0.394,-1.01 l 0,-1.462 3.05,0 c -0.262,1.944 -0.855,2.916 -1.778,2.916 M 0,1.753 C 0.734,1.753 1.384,1.428 1.949,0.778 2.51,0.134 2.79,-0.613 2.79,-1.463 l 0,-2.771 C 2.79,-4.548 2.688,-4.821 2.485,-5.055 2.282,-5.289 2.044,-5.406 1.771,-5.406 l -8.125,0 c -0.268,0 -0.504,0.117 -0.707,0.351 -0.203,0.234 -0.305,0.507 -0.305,0.821 l 0,2.044 c 0,0.821 0.265,1.563 0.796,2.224 0.526,0.656 1.148,0.984 1.868,0.984 0.907,0 1.627,-0.434 2.157,-1.3 0.199,0.587 0.536,1.075 1.012,1.462 0.467,0.382 0.977,0.573 1.533,0.573" /></g><g
           transform="translate(130.1561,70.884)"
           id="g114"><path
             id="path116"
             style="fill:#3b3b3b;fill-opacity:1;fill-rule:nonzero;stroke:none"
             d="M 0,0 0,-2.044 -3.289,-4.456 C -3.755,-4.799 -4.11,-4.97 -4.353,-4.97 c -0.461,0 -0.806,0.166 -1.034,0.497 -0.015,0.022 -0.201,0.407 -0.558,1.154 -0.412,0.85 -0.885,1.275 -1.421,1.275 -0.322,0 -0.615,-0.151 -0.878,-0.454 -0.263,-0.302 -0.394,-0.638 -0.394,-1.009 l 0,-1.753 8.638,0 0,-1.754 -9.144,0 c -0.268,0 -0.504,0.117 -0.707,0.351 -0.203,0.234 -0.305,0.507 -0.305,0.821 l 0,2.335 c 0,0.821 0.265,1.563 0.796,2.224 0.526,0.656 1.148,0.984 1.868,0.984 0.714,0 1.359,-0.277 1.934,-0.83 0.575,-0.559 0.967,-1.235 1.176,-2.027 L 0,0 Z" /></g><g
           transform="translate(130.1561,77.6669)"
           id="g118"><path
             id="path120"
             style="fill:#3b3b3b;fill-opacity:1;fill-rule:nonzero;stroke:none"
             d="M 0,0 0,-4.525 C 0,-4.838 -0.102,-5.112 -0.305,-5.346 -0.508,-5.58 -0.747,-5.697 -1.019,-5.697 l -8.125,0 c -0.268,0 -0.504,0.117 -0.707,0.351 -0.203,0.234 -0.305,0.508 -0.305,0.821 l 0,4.525 1.518,0 0,-3.943 2.797,0 0,2.48 1.526,0 0,-2.48 2.79,0 0,3.943 L 0,0 Z" /></g><g
           transform="translate(121.5179,84.963)"
           id="g122"><path
             id="path124"
             style="fill:#3b3b3b;fill-opacity:1;fill-rule:nonzero;stroke:none"
             d="m 0,0 0,-2.335 8.638,0 0,-1.754 -8.638,0 0,-2.335 -1.518,0 0,6.424 L 0,0 Z" /></g><g
           transform="translate(130.1561,92.8493)"
           id="g126"><path
             id="path128"
             style="fill:#3b3b3b;fill-opacity:1;fill-rule:nonzero;stroke:none"
             d="M 0,0 0,-2.044 -3.289,-4.456 C -3.755,-4.798 -4.11,-4.97 -4.353,-4.97 c -0.461,0 -0.806,0.166 -1.034,0.497 -0.015,0.022 -0.201,0.407 -0.558,1.154 -0.412,0.85 -0.885,1.275 -1.421,1.275 -0.322,0 -0.615,-0.151 -0.878,-0.454 -0.263,-0.302 -0.394,-0.638 -0.394,-1.009 l 0,-1.753 8.638,0 0,-1.754 -9.144,0 c -0.268,0 -0.504,0.117 -0.707,0.351 -0.203,0.234 -0.305,0.507 -0.305,0.821 l 0,2.335 c 0,0.821 0.265,1.563 0.796,2.224 0.526,0.656 1.148,0.984 1.868,0.984 0.714,0 1.359,-0.277 1.934,-0.83 0.575,-0.559 0.967,-1.235 1.176,-2.027 L 0,0 Z" /></g><g
           transform="translate(127.366,98.2465)"
           id="g130"><path
             id="path132"
             style="fill:#3b3b3b;fill-opacity:1;fill-rule:nonzero;stroke:none"
             d="m 0,0 -4.576,0 c -0.327,0 -0.62,-0.148 -0.878,-0.445 -0.263,-0.302 -0.394,-0.641 -0.394,-1.018 0,-0.376 0.131,-0.715 0.394,-1.017 0.258,-0.297 0.551,-0.445 0.878,-0.445 l 4.576,0 c 0.327,0 0.62,0.148 0.878,0.445 0.258,0.296 0.387,0.635 0.387,1.017 0,0.382 -0.129,0.722 -0.387,1.018 C 0.62,-0.148 0.327,0 0,0 M 0,1.753 C 0.734,1.753 1.384,1.428 1.949,0.778 2.51,0.134 2.79,-0.613 2.79,-1.463 2.79,-2.301 2.51,-3.048 1.949,-3.704 1.379,-4.348 0.729,-4.67 0,-4.67 l -4.576,0 c -0.734,0 -1.381,0.322 -1.942,0.966 -0.565,0.65 -0.848,1.397 -0.848,2.241 0,0.85 0.283,1.597 0.848,2.241 0.561,0.65 1.208,0.975 1.942,0.975 l 4.576,0 z" /></g></g></g></g></svg>