<?xml version="1.0" encoding="UTF-8" standalone="no"?>
<svg
   xmlns:dc="http://purl.org/dc/elements/1.1/"
   xmlns:cc="http://creativecommons.org/ns#"
   xmlns:rdf="http://www.w3.org/1999/02/22-rdf-syntax-ns#"
   xmlns:svg="http://www.w3.org/2000/svg"
   xmlns="http://www.w3.org/2000/svg"
   viewBox="0 0 341.33334 341.33334"
   height="256"
   width="256"
   xml:space="preserve"
   id="svg2"
   version="1.1"><metadata
     id="metadata8"><rdf:RDF><cc:Work
         rdf:about=""><dc:format>image/svg+xml</dc:format><dc:type
           rdf:resource="http://purl.org/dc/dcmitype/StillImage" /></cc:Work></rdf:RDF></metadata><defs
     id="defs6"><clipPath
       id="clipPath18"
       clipPathUnits="userSpaceOnUse"><path
         id="path16"
         d="M 0,256 H 256 V 0 H 0 Z" /></clipPath><clipPath
       id="clipPath26"
       clipPathUnits="userSpaceOnUse"><path
         id="path24"
         d="M 4,205.346 H 252 V 48 H 4 Z" /></clipPath><clipPath
       id="clipPath116"
       clipPathUnits="userSpaceOnUse"><path
         id="path114"
         d="M 20,180 H 236 V 96 H 20 Z" /></clipPath><clipPath
       id="clipPath350"
       clipPathUnits="userSpaceOnUse"><path
         id="path348"
         d="m 196.128,109.028 h 0.106 v -0.061 h -0.106 z" /></clipPath><clipPath
       id="clipPath366"
       clipPathUnits="userSpaceOnUse"><path
         id="path364"
         d="m 193.119,108.579 h 0.118 v -0.07 h -0.118 z" /></clipPath></defs><g
     transform="matrix(1.3333333,0,0,-1.3333333,0,341.33333)"
     id="g10"><g
       id="g12"><g
         clip-path="url(#clipPath18)"
         id="g14"><g
           id="g20"><g
             id="g22" /><g
             id="g34"><g
               style="opacity:0.5"
               id="g32"
               clip-path="url(#clipPath26)"><g
                 id="g30"
                 transform="translate(250.0214,81.6135)"><path
                   id="path28"
                   style="fill:#ffffff;fill-opacity:1;fill-rule:nonzero;stroke:none"
                   d="M 0,0 -0.009,4.939 C 1.27,6.838 1.983,9.102 1.979,11.478 L 1.803,112.029 c -0.011,6.465 -5.284,11.715 -11.754,11.704 l -224.357,-0.392 c -6.47,-0.011 -11.725,-5.28 -11.713,-11.745 l 0.175,-100.551 c 0.004,-2.376 0.725,-4.637 2.01,-6.532 l 0.009,-4.939 c 0.004,-2.8 1.232,-5.302 3.25,-7.131 -2.167,-2.291 -3.358,-5.296 -3.352,-8.732 0.017,-9.569 7.81,-17.341 17.373,-17.324 l 209.4,0.365 c 9.563,0.017 17.329,7.816 17.313,17.385 -0.006,3.436 -1.207,6.437 -3.382,8.72 C -1.214,-5.307 0.005,-2.8 0,0" /></g></g></g></g><g
           transform="translate(15.7419,196)"
           id="g36"><path
             id="path38"
             style="fill:#454545;fill-opacity:1;fill-rule:nonzero;stroke:none"
             d="m 0,0 h 224.516 c 2.067,0 3.742,-1.667 3.742,-3.724 v -100.552 c 0,-2.057 -1.675,-3.724 -3.742,-3.724 L 0,-108 c -2.067,0 -3.742,1.667 -3.742,3.724 V -3.724 C -3.742,-1.667 -2.067,0 0,0" /></g><g
           transform="translate(25.0968,70)"
           id="g40"><path
             id="path42"
             style="fill:#3b3b3b;fill-opacity:1;fill-rule:nonzero;stroke:none"
             d="m 0,0 h 205.806 c 5.183,0 11.226,-0.43 11.226,-5.613 0,-5.182 -4.172,-9.355 -9.355,-9.355 H -1.871 c -5.183,0 -9.355,4.173 -9.355,9.355 C -11.226,-0.43 -5.183,0 0,0" /></g><g
           transform="translate(21.7288,84)"
           id="g44"><path
             id="path46"
             style="fill:#3b3b3b;fill-opacity:1;fill-rule:nonzero;stroke:none"
             d="m 0,0 h 212.542 c 2.06,0 3.729,-1.567 3.729,-3.5 v -21 c 0,-1.933 -1.669,-3.5 -3.729,-3.5 H 0 c -2.059,0 -3.729,1.567 -3.729,3.5 v 21 c 0,1.933 1.67,3.5 3.729,3.5" /></g><g
           transform="translate(17.7377,96)"
           id="g48"><path
             id="path50"
             style="fill:#3b3b3b;fill-opacity:1;fill-rule:nonzero;stroke:none"
             d="m 0,0 h 220.525 c 2.064,0 3.737,-1.007 3.737,-2.25 v -13.5 c 0,-1.243 -1.673,-2.25 -3.737,-2.25 H 0 c -2.064,0 -3.738,1.007 -3.738,2.25 v 13.5 C -3.738,-1.007 -2.064,0 0,0" /></g><path
           id="path52"
           style="fill:#16a085;fill-opacity:1;fill-rule:nonzero;stroke:none"
           d="M 22,88 H 234 V 60 H 22 Z" /><path
           id="path54"
           style="fill:#ecf0f1;fill-opacity:1;fill-rule:nonzero;stroke:none"
           d="M 20,92 H 236 V 84 H 20 Z" /><path
           id="path56"
           style="fill:#a3834a;fill-opacity:1;fill-rule:nonzero;stroke:none"
           d="m 26,60 h 4 v 24 h -4 z" /><path
           id="path58"
           style="fill:#a3834a;fill-opacity:1;fill-rule:nonzero;stroke:none"
           d="m 34,64 h 4 v 20 h -4 z" /><path
           id="path60"
           style="fill:#a3834a;fill-opacity:1;fill-rule:nonzero;stroke:none"
           d="m 42,64 h 4 v 20 h -4 z" /><path
           id="path62"
           style="fill:#a3834a;fill-opacity:1;fill-rule:nonzero;stroke:none"
           d="m 50,64 h 4 v 20 h -4 z" /><path
           id="path64"
           style="fill:#a3834a;fill-opacity:1;fill-rule:nonzero;stroke:none"
           d="m 58,64 h 4 v 20 h -4 z" /><path
           id="path66"
           style="fill:#a3834a;fill-opacity:1;fill-rule:nonzero;stroke:none"
           d="m 66,64 h 4 v 20 h -4 z" /><path
           id="path68"
           style="fill:#a3834a;fill-opacity:1;fill-rule:nonzero;stroke:none"
           d="m 74,64 h 4 v 20 h -4 z" /><path
           id="path70"
           style="fill:#a3834a;fill-opacity:1;fill-rule:nonzero;stroke:none"
           d="m 82,64 h 4 v 20 h -4 z" /><path
           id="path72"
           style="fill:#a3834a;fill-opacity:1;fill-rule:nonzero;stroke:none"
           d="m 90,64 h 4 v 20 h -4 z" /><path
           id="path74"
           style="fill:#a3834a;fill-opacity:1;fill-rule:nonzero;stroke:none"
           d="m 98,64 h 4 v 20 h -4 z" /><path
           id="path76"
           style="fill:#a3834a;fill-opacity:1;fill-rule:nonzero;stroke:none"
           d="m 106,64 h 4 v 20 h -4 z" /><path
           id="path78"
           style="fill:#a3834a;fill-opacity:1;fill-rule:nonzero;stroke:none"
           d="m 114,64 h 4 v 20 h -4 z" /><path
           id="path80"
           style="fill:#a3834a;fill-opacity:1;fill-rule:nonzero;stroke:none"
           d="m 122,60 h 4 v 24 h -4 z" /><path
           id="path82"
           style="fill:#a3834a;fill-opacity:1;fill-rule:nonzero;stroke:none"
           d="m 130,60 h 4 v 24 h -4 z" /><path
           id="path84"
           style="fill:#a3834a;fill-opacity:1;fill-rule:nonzero;stroke:none"
           d="m 138,64 h 4 v 20 h -4 z" /><path
           id="path86"
           style="fill:#a3834a;fill-opacity:1;fill-rule:nonzero;stroke:none"
           d="m 146,64 h 4 v 20 h -4 z" /><path
           id="path88"
           style="fill:#a3834a;fill-opacity:1;fill-rule:nonzero;stroke:none"
           d="m 154,64 h 4 v 20 h -4 z" /><path
           id="path90"
           style="fill:#a3834a;fill-opacity:1;fill-rule:nonzero;stroke:none"
           d="m 162,64 h 4 v 20 h -4 z" /><path
           id="path92"
           style="fill:#a3834a;fill-opacity:1;fill-rule:nonzero;stroke:none"
           d="m 170,64 h 4 v 20 h -4 z" /><path
           id="path94"
           style="fill:#a3834a;fill-opacity:1;fill-rule:nonzero;stroke:none"
           d="m 178,64 h 4 v 20 h -4 z" /><path
           id="path96"
           style="fill:#a3834a;fill-opacity:1;fill-rule:nonzero;stroke:none"
           d="m 186,64 h 4 v 20 h -4 z" /><path
           id="path98"
           style="fill:#a3834a;fill-opacity:1;fill-rule:nonzero;stroke:none"
           d="m 194,64 h 4 v 20 h -4 z" /><path
           id="path100"
           style="fill:#a3834a;fill-opacity:1;fill-rule:nonzero;stroke:none"
           d="m 202,64 h 4 v 20 h -4 z" /><path
           id="path102"
           style="fill:#a3834a;fill-opacity:1;fill-rule:nonzero;stroke:none"
           d="m 210,64 h 4 v 20 h -4 z" /><path
           id="path104"
           style="fill:#a3834a;fill-opacity:1;fill-rule:nonzero;stroke:none"
           d="m 218,64 h 4 v 20 h -4 z" /><path
           id="path106"
           style="fill:#a3834a;fill-opacity:1;fill-rule:nonzero;stroke:none"
           d="m 226,60 h 4 v 24 h -4 z" /><path
           id="path108"
           style="fill:#0e6654;fill-opacity:1;fill-rule:nonzero;stroke:none"
           d="M 236,96.194 H 20 v 88.893 h 216 z" /><g
           id="g110"><g
             id="g112" /><g
             id="g124"><g
               style="opacity:0.5"
               id="g122"
               clip-path="url(#clipPath116)"><g
                 id="g120"
                 transform="translate(29.3103,180)"><path
                   id="path118"
                   style="fill:#3b3b3b;fill-opacity:1;fill-rule:nonzero;stroke:none"
                   d="m 0,0 h 197.379 c 5.142,0 9.311,-4.274 9.311,-9.545 v -64.91 c 0,-5.271 -4.169,-9.545 -9.311,-9.545 H 0 c -5.142,0 -9.31,4.274 -9.31,9.545 v 64.91 C -9.31,-4.274 -5.142,0 0,0" /></g></g></g></g><g
           transform="translate(32.9632,176)"
           id="g126"><path
             id="path128"
             style="fill:#4b5da7;fill-opacity:1;fill-rule:nonzero;stroke:none"
             d="m 0,0 h 190.074 c 4.951,0 8.965,-3.867 8.965,-8.636 v -58.728 c 0,-4.769 -4.014,-8.636 -8.965,-8.636 H 0 c -4.952,0 -8.966,3.867 -8.966,8.636 V -8.636 C -8.966,-3.867 -4.952,0 0,0" /></g><g
           transform="translate(85.5385,192)"
           id="g130"><path
             id="path132"
             style="fill:#3b3b3b;fill-opacity:1;fill-rule:nonzero;stroke:none"
             d="m 0,0 h 84.923 c 3.059,0 5.539,-2.48 5.539,-5.538 0,-3.059 -2.48,-5.539 -5.539,-5.539 H 0 c -3.059,0 -5.538,2.48 -5.538,5.539 C -5.538,-2.48 -3.059,0 0,0" /></g><g
           transform="translate(48,138)"
           id="g134"><path
             id="path136"
             style="fill:#ffffff;fill-opacity:1;fill-rule:nonzero;stroke:none"
             d="M 0,0 -16,28 H 16 Z" /></g><g
           transform="translate(52.7516,149.3415)"
           id="g138"><path
             id="path140"
             style="fill:#ff0000;fill-opacity:1;fill-rule:nonzero;stroke:none"
             d="M 0,0 C -2.108,-0.335 -3.791,0.511 -5.247,1.943 -6.481,3.158 -7.189,4.668 -6.996,6.609 -6.917,7.403 -6.37,8.066 -5.613,8.294 -3.164,9.033 -1.351,8.008 0.185,6.48 1.077,5.594 1.723,4.532 1.892,3.235 1.905,3.138 1.94,3.041 1.978,2.95 1.995,2.91 2.045,2.883 2.204,2.736 2.289,3.054 2.396,3.301 2.417,3.556 2.594,5.728 1.863,7.64 0.647,9.364 c -2.194,3.11 -5.106,5.173 -8.971,5.425 -3.43,0.223 -6.281,-2.751 -5.812,-6.19 0.683,-5.014 5.773,-9.573 10.808,-9.767 0.929,-0.036 1.879,0.295 2.808,0.51 0.228,0.052 0.423,0.254 0.627,0.411 0.045,0.035 0.064,0.095 0.048,0.15 C 0.135,-0.03 0.069,0.011 0,0" /></g><g
           transform="translate(45.4888,162.3998)"
           id="g142"><path
             id="path144"
             style="fill:#ffffff;fill-opacity:1;fill-rule:nonzero;stroke:none"
             d="m 0,0 c -1.046,0.335 -2.087,0.316 -3.112,-0.078 -0.704,-0.27 -1.287,-0.699 -1.629,-1.408 -0.367,-0.76 -0.183,-1.618 0.49,-2.119 0.638,-0.473 1.357,-0.658 2.147,-0.519 l 10e-4,10e-4 c 0.059,0.01 0.099,-0.06 0.063,-0.108 -0.205,-0.272 -0.489,-0.41 -0.804,-0.508 -0.361,-0.113 -0.725,-0.119 -1.098,-0.068 0.047,-0.036 0.093,-0.058 0.142,-0.074 0.965,-0.309 1.934,-0.321 2.898,-0.011 0.803,0.259 1.46,0.715 1.867,1.489 0.405,0.768 0.227,1.628 -0.484,2.123 -0.653,0.455 -1.377,0.668 -2.179,0.51 -0.013,-0.002 -0.026,-0.003 -0.039,-0.004 -0.024,0.054 -0.027,0.06 -0.05,0.114 0.498,0.562 1.161,0.661 1.884,0.618 C 0.065,-0.028 0.033,-0.011 0,0" /></g><g
           transform="translate(52.3056,171.9661)"
           id="g146"><path
             id="path148"
             style="fill:#ffffff;fill-opacity:1;fill-rule:nonzero;stroke:none"
             d="m 0,0 c -0.182,-0.215 -0.333,-0.408 -0.498,-0.579 -0.048,-0.049 -0.135,-0.045 -0.204,-0.046 -0.396,-0.006 -0.792,-0.004 -1.187,-0.007 -0.314,-0.001 -0.528,-0.314 -0.503,-0.725 0.013,-0.209 0.115,-0.262 0.255,-0.261 0.344,0.004 0.688,0.007 1.031,0.01 0.458,0.003 0.673,-0.325 0.579,-0.905 -0.068,-0.42 -0.15,-0.837 -0.42,-1.136 -0.168,-0.187 -0.354,-0.31 -0.58,-0.311 -1.284,-0.003 -2.569,-0.004 -3.853,-0.006 -0.023,0 -0.047,0.007 -0.099,0.016 0.238,0.308 0.418,0.585 0.792,0.568 0.842,-0.04 1.685,0.008 2.527,-0.004 0.375,-0.005 0.497,0.268 0.525,0.72 0.014,0.219 -0.109,0.283 -0.257,0.281 -0.337,-0.002 -0.674,-0.002 -1.012,-0.005 -0.451,-0.005 -0.651,0.268 -0.588,0.845 0.064,0.582 0.196,1.126 0.665,1.383 0.105,0.058 0.223,0.098 0.337,0.103 C -1.693,-0.024 -0.896,0 -0.099,0.027 -0.081,0.027 -0.062,0.017 0,0" /></g><g
           transform="translate(55.104,170.5945)"
           id="g150"><path
             id="path152"
             style="fill:#ffffff;fill-opacity:1;fill-rule:nonzero;stroke:none"
             d="m 0,0 c -0.163,-0.744 -0.32,-1.464 -0.488,-2.235 0.121,0.029 0.268,0.032 0.394,0.1 0.254,0.138 0.436,0.367 0.466,0.757 0.012,0.165 0.062,0.325 0.093,0.488 0.109,0.582 0.353,0.848 0.825,0.888 C 1.405,0.008 1.521,0 1.66,0 1.562,-0.484 1.453,-0.949 1.376,-1.422 1.328,-1.714 1.235,-1.923 1.02,-2.053 0.874,-2.14 0.743,-2.27 0.609,-2.389 0.456,-2.526 0.296,-2.59 0.103,-2.588 -0.922,-2.58 -1.946,-2.59 -2.971,-2.594 c -0.069,-0.001 -0.139,0 -0.241,0 0.067,0.358 0.126,0.681 0.189,1.003 0.039,0.203 0.078,0.408 0.13,0.606 0.057,0.216 0.089,0.477 0.204,0.625 0.267,0.345 0.623,0.401 1.008,0.344 -0.148,-0.728 -0.294,-1.444 -0.451,-2.215 0.131,0.015 0.231,-0.008 0.301,0.042 0.227,0.163 0.479,0.302 0.507,0.719 0.012,0.181 0.07,0.357 0.108,0.535 0.142,0.665 0.381,0.909 0.92,0.934 C -0.207,0.004 -0.118,0 0,0" /></g><g
           transform="translate(60.2926,170.5894)"
           id="g154"><path
             id="path156"
             style="fill:#ffffff;fill-opacity:1;fill-rule:nonzero;stroke:none"
             d="m 0,0 c -0.121,-0.595 -0.235,-1.154 -0.349,-1.712 -0.035,-0.171 -0.089,-0.339 -0.103,-0.512 -0.022,-0.283 -0.14,-0.359 -0.339,-0.349 -0.251,0.012 -0.503,0.003 -0.79,0.003 0.148,0.725 0.289,1.416 0.429,2.108 -0.571,0.193 -1.146,-0.118 -1.248,-0.79 -0.109,-0.723 0.009,-0.945 0.594,-0.957 0.037,0 0.074,-0.008 0.14,-0.016 -0.164,-0.221 -0.311,-0.394 -0.544,-0.36 -0.307,0.044 -0.625,0.033 -0.918,0.14 -0.347,0.128 -0.463,0.511 -0.367,0.967 0.217,1.022 0.629,1.425 1.456,1.437 0.584,0.008 1.168,0.027 1.751,0.041 C -0.204,0.002 -0.12,0 0,0" /></g><g
           transform="translate(62.2933,168.0347)"
           id="g158"><path
             id="path160"
             style="fill:#ffffff;fill-opacity:1;fill-rule:nonzero;stroke:none"
             d="M 0,0 C 0.105,0.519 0.204,1.03 0.312,1.538 0.412,2.01 0.332,2.153 -0.054,2.149 -0.247,2.146 -0.488,2.209 -0.617,2.085 -0.737,1.97 -0.738,1.645 -0.789,1.412 -0.804,1.348 -0.821,1.282 -0.824,1.216 -0.853,0.679 -1.117,0.341 -1.417,0.034 -1.446,0.004 -1.484,-0.03 -1.519,-0.031 c -0.192,-0.006 -0.385,-0.003 -0.605,-0.003 0.084,0.427 0.158,0.816 0.237,1.203 0.081,0.398 0.172,0.792 0.247,1.192 0.027,0.146 0.08,0.182 0.188,0.181 0.74,-0.011 1.48,-0.01 2.219,-0.023 C 0.888,2.517 1.017,2.49 1.126,2.428 1.371,2.288 1.455,2.044 1.392,1.707 1.295,1.193 1.193,0.68 1.086,0.169 1.072,0.104 1.012,0.009 0.971,0.007 0.656,-0.006 0.34,0 0,0" /></g><g
           transform="translate(45.9718,170.1651)"
           id="g162"><path
             id="path164"
             style="fill:#ffffff;fill-opacity:1;fill-rule:nonzero;stroke:none"
             d="m 0,0 c -0.065,0 -0.142,0.03 -0.192,-0.005 -0.204,-0.143 -0.475,-0.248 -0.581,-0.476 -0.147,-0.317 -0.173,-0.731 -0.236,-1.107 -0.01,-0.057 0.049,-0.181 0.093,-0.198 0.474,-0.18 0.979,0.2 1.104,0.818 0.033,0.162 0.064,0.324 0.097,0.487 C 0.381,0.001 0.381,0 0,0 m -0.803,-2.161 c -0.292,0 -0.584,-0.006 -0.876,10e-4 -0.353,0.009 -0.473,0.216 -0.386,0.647 0.064,0.317 0.122,0.637 0.198,0.949 0.024,0.099 0.088,0.201 0.155,0.26 0.21,0.183 0.423,0.362 0.647,0.511 0.126,0.084 0.275,0.148 0.415,0.153 0.538,0.017 1.077,0.012 1.616,0.007 C 1.355,0.363 1.462,0.175 1.369,-0.318 1.336,-0.49 1.283,-0.658 1.269,-0.831 1.236,-1.254 1.073,-1.536 0.778,-1.714 0.638,-1.799 0.517,-1.937 0.376,-2.018 0.251,-2.089 0.111,-2.143 -0.025,-2.154 -0.283,-2.175 -0.544,-2.16 -0.803,-2.16 Z" /></g><g
           transform="translate(36.7857,169.3513)"
           id="g166"><path
             id="path168"
             style="fill:#ffffff;fill-opacity:1;fill-rule:nonzero;stroke:none"
             d="M 0,0 C 0.171,0 0.344,0.021 0.513,-0.005 0.806,-0.05 1.025,0.146 1.23,0.357 1.3,0.429 1.305,0.606 1.339,0.735 1.265,0.767 1.193,0.82 1.117,0.826 0.963,0.84 0.808,0.833 0.653,0.828 0.33,0.817 0.02,0.441 0,0 M 1.337,-0.969 C 1.145,-1.22 0.947,-1.365 0.676,-1.35 c -0.478,0.027 -0.958,-10e-4 -1.438,0.003 -0.101,10e-4 -0.207,0.022 -0.304,0.064 -0.146,0.065 -0.222,0.217 -0.187,0.415 0.071,0.401 0.153,0.798 0.239,1.194 0.014,0.064 0.062,0.126 0.106,0.166 0.112,0.101 0.242,0.171 0.344,0.284 C -0.203,1.178 0.218,1.228 0.67,1.195 1.064,1.167 1.46,1.204 1.855,1.185 2.189,1.169 2.316,0.894 2.19,0.498 2.168,0.427 2.119,0.359 2.069,0.317 1.818,0.108 1.566,-0.098 1.309,-0.292 1.241,-0.343 1.152,-0.366 1.072,-0.368 0.729,-0.376 0.385,-0.369 0.042,-0.373 -0.099,-0.374 -0.195,-0.56 -0.189,-0.805 c 0.005,-0.199 0.12,-0.163 0.213,-0.164 0.438,-0.001 0.876,0 1.313,0" /></g><g
           transform="translate(40.4752,168.0033)"
           id="g170"><path
             id="path172"
             style="fill:#ffffff;fill-opacity:1;fill-rule:nonzero;stroke:none"
             d="m 0,0 c 0.115,0.575 0.217,1.112 0.334,1.644 0.021,0.091 0.097,0.176 0.163,0.233 0.211,0.18 0.424,0.357 0.647,0.512 0.104,0.072 0.23,0.123 0.347,0.126 0.48,0.015 0.96,0.009 1.44,0.007 C 3.154,2.521 3.357,2.449 3.489,2.19 3.601,1.967 3.55,1.801 3.393,1.641 3.1,1.342 2.774,1.365 2.417,1.401 2.439,1.514 2.457,1.61 2.475,1.706 2.519,1.948 2.462,2.075 2.279,2.138 1.891,2.271 1.434,1.921 1.337,1.42 1.258,1.013 1.17,0.609 1.095,0.201 1.068,0.052 1.018,-0.007 0.897,-0.003 0.606,0.007 0.315,0 0,0" /></g><g
           transform="translate(34.5763,171.2864)"
           id="g174"><path
             id="path176"
             style="fill:#ffffff;fill-opacity:1;fill-rule:nonzero;stroke:none"
             d="m 0,0 c -0.059,-0.31 -0.119,-0.62 -0.189,-0.926 -0.019,-0.081 -0.064,-0.165 -0.115,-0.22 -0.251,-0.269 -0.54,-0.376 -0.867,-0.324 -0.143,0.022 -0.196,0.078 -0.152,0.273 0.097,0.427 0.188,0.857 0.266,1.29 0.031,0.172 0.085,0.247 0.222,0.231 0.11,-0.012 0.221,-0.002 0.331,-0.002 0,0.004 0,0.009 0,0.013 0.104,0 0.208,0.002 0.311,0 C 0.031,0.329 0.055,0.29 0,0 m 0.51,-1.335 c 0.231,0.154 0.387,0.369 0.424,0.721 C 0.957,-0.399 1.013,-0.19 1.059,0.02 1.153,0.46 1.037,0.696 0.683,0.702 0.021,0.715 -0.641,0.715 -1.303,0.712 -1.356,0.714 -1.407,0.714 -1.457,0.711 -1.594,0.71 -1.731,0.709 -1.868,0.709 -1.918,0.708 -2.001,0.629 -2.014,0.567 -2.021,0.534 -2.117,0.382 -2.155,0.33 -2.218,0.245 -2.286,0.143 -2.306,0.034 -2.438,-0.677 -2.558,-1.391 -2.68,-2.105 -2.745,-2.488 -2.806,-2.872 -2.871,-3.27 c 0.059,-0.007 0.097,-0.016 0.135,-0.016 0.304,0 0.609,0 0.914,0 0,0.002 0.109,0.711 0.243,1.545 0.176,-0.01 0.36,-0.021 0.529,-0.04 0.306,-0.406 1.123,-1.446 1.123,-1.446 h 0.871 l -1.098,1.423 c 0.135,0.049 0.261,0.137 0.383,0.245 0.091,0.08 0.184,0.158 0.281,0.224" /></g><g
           transform="translate(41.5088,171.3754)"
           id="g178"><path
             id="path180"
             style="fill:#ffffff;fill-opacity:1;fill-rule:nonzero;stroke:none"
             d="m 0,0 h -0.842 c 0.044,0.252 0.083,0.465 0.113,0.612 C -1.113,0.656 -1.453,0.601 -1.72,0.241 -1.772,0.171 -1.827,0.088 -1.856,0 H -2.581 C -2.609,0 -2.634,-0.019 -2.648,-0.051 L -2.807,-0.409 C -2.837,-0.476 -2.8,-0.56 -2.74,-0.56 h 0.778 c -0.097,-0.544 -0.19,-1.089 -0.282,-1.634 -0.066,-0.383 -0.126,-0.767 -0.191,-1.165 0.059,-0.007 0.096,-0.016 0.134,-0.016 0.305,0 0.61,0 0.914,0 0.001,0.004 0.246,1.592 0.45,2.815 h 0.778 c 0.028,0 0.054,0.019 0.068,0.05 l 0.159,0.359 C 0.097,-0.084 0.06,0 0,0" /></g><g
           transform="translate(37.2168,128.2079)"
           id="g182"><path
             id="path184"
             style="fill:#ffffff;fill-opacity:1;fill-rule:nonzero;stroke:none"
             d="M 0,0 C -0.654,-0.004 -1.291,0.109 -1.88,0.469 -2.382,0.775 -2.778,1.223 -3.014,1.857 -3.166,2.266 -3.216,2.699 -3.217,3.148 -3.219,4.5 -2.736,5.549 -1.874,6.362 -0.982,7.203 0.033,7.639 1.155,7.74 2.009,7.816 2.854,7.726 3.696,7.564 3.758,7.552 3.835,7.558 3.805,7.425 3.634,6.666 3.515,5.89 3.314,5.141 3.268,4.972 3.205,4.813 3.108,4.676 2.99,4.51 2.815,4.449 2.647,4.517 2.477,4.586 2.414,4.745 2.402,4.947 2.387,5.198 2.406,5.452 2.367,5.702 2.303,6.102 2.172,6.45 1.838,6.61 1.521,6.762 1.198,6.754 0.878,6.607 0.521,6.442 0.231,6.164 -0.035,5.838 -0.446,5.336 -0.795,4.784 -0.998,4.11 -1.123,3.693 -1.166,3.264 -1.16,2.818 -1.154,2.4 -1.065,2.026 -0.877,1.684 -0.726,1.41 -0.517,1.232 -0.258,1.13 0.35,0.89 0.902,1.075 1.434,1.436 1.707,1.621 1.961,1.837 2.201,2.081 2.335,2.218 2.488,2.304 2.67,2.263 2.846,2.224 2.998,2.134 3.052,1.906 3.105,1.682 3.067,1.473 2.931,1.304 2.746,1.075 2.528,0.898 2.3,0.743 1.586,0.258 0.82,0.001 0,0" /></g><g
           transform="translate(43.0094,128.0037)"
           id="g186"><path
             id="path188"
             style="fill:#ffffff;fill-opacity:1;fill-rule:nonzero;stroke:none"
             d="M 0,0 C -0.281,-0.02 -0.607,0.043 -0.914,0.173 -1.473,0.41 -1.929,0.816 -2.165,1.505 -2.271,1.812 -2.288,2.14 -2.26,2.472 c 0.065,0.785 0.375,1.416 0.819,1.967 0.248,0.308 0.52,0.576 0.829,0.788 0.277,0.189 0.571,0.311 0.889,0.337 C 0.392,5.573 0.507,5.551 0.615,5.494 0.783,5.405 0.826,5.244 0.751,5.038 0.686,4.858 0.568,4.727 0.486,4.564 0.362,4.321 0.212,4.097 0.097,3.848 -0.168,3.274 -0.352,2.668 -0.264,1.995 -0.211,1.594 -0.091,1.225 0.238,1.029 0.502,0.873 0.768,0.897 1.031,1.033 1.438,1.243 1.63,1.676 1.773,2.144 1.916,2.613 1.929,3.104 1.858,3.592 1.799,3.996 1.626,4.299 1.276,4.407 1.214,4.426 1.152,4.416 1.091,4.428 1.057,4.435 1.005,4.415 0.994,4.469 0.984,4.517 1.028,4.546 1.056,4.573 1.105,4.619 1.158,4.659 1.21,4.7 1.817,5.167 2.463,5.315 3.165,5.087 3.434,4.999 3.571,4.767 3.692,4.494 3.926,3.963 3.907,3.406 3.804,2.848 3.748,2.542 3.623,2.264 3.481,1.997 3.297,1.653 3.06,1.375 2.799,1.128 2.452,0.801 2.071,0.537 1.659,0.353 1.141,0.122 0.604,-0.002 0,0" /></g><g
           transform="translate(54.8026,128.7288)"
           id="g190"><path
             id="path192"
             style="fill:#ffffff;fill-opacity:1;fill-rule:nonzero;stroke:none"
             d="M 0,0 C 0.006,0.011 0.031,0.015 0.008,0.036 0.006,0.023 0.004,0.011 0.001,-0.002 -0.001,-0.005 -0.003,-0.009 -0.006,-0.013 -0.004,-0.009 -0.002,-0.004 0,0 m -3.666,3.612 c 0,0.006 0.002,0.013 0.004,0.018 0.017,0.007 0.026,0.02 0.026,0.042 0.253,0.332 0.55,0.598 0.871,0.819 0.339,0.233 0.708,0.39 1.105,0.302 C -1.353,4.725 -1.311,4.436 -1.516,4.136 -1.714,3.846 -1.841,3.501 -2.036,3.219 -2.14,3.067 -2.176,2.892 -2.244,2.731 -2.388,2.391 -2.447,2.016 -2.485,1.64 -2.498,1.517 -2.447,1.387 -2.456,1.257 -2.466,1.242 -2.471,1.224 -2.455,1.213 c 0.005,-0.004 0.017,0.01 0.026,0.015 0.007,-0.277 0.105,-0.508 0.244,-0.719 0.041,-0.062 0.079,-0.133 0.131,-0.177 0.099,-0.083 0.218,-0.125 0.334,-0.147 0.482,-0.093 0.905,0.204 1.148,0.739 0.081,0.178 0.161,0.352 0.221,0.542 0.035,0.112 0.054,0.23 0.067,0.339 0.048,0.406 0.063,0.816 -0.043,1.218 -0.102,0.391 -0.317,0.618 -0.651,0.679 -0.065,0.012 -0.13,0.023 -0.205,0.037 0.156,0.196 0.351,0.308 0.544,0.422 0.393,0.231 0.811,0.324 1.244,0.28 C 0.859,4.415 1.119,4.363 1.309,4.133 1.458,3.952 1.558,3.72 1.621,3.475 1.769,2.906 1.721,2.34 1.542,1.797 1.381,1.305 1.113,0.898 0.78,0.557 0.592,0.364 0.401,0.178 0.177,0.049 0.062,0.172 0.078,0.006 0.041,-0.042 0.033,-0.044 0.028,-0.05 0.024,-0.059 0.015,-0.07 0.006,-0.082 -0.003,-0.093 -0.356,-0.298 -0.716,-0.475 -1.1,-0.576 c -0.36,-0.095 -0.723,-0.147 -1.092,-0.137 -0.308,0.009 -0.613,0.042 -0.904,0.172 -0.107,0.048 -0.231,0.06 -0.302,0.2 -0.031,0.059 -0.11,0.02 -0.157,0.068 -0.138,0.14 -0.311,0.223 -0.426,0.4 -0.031,0.048 -0.062,0.103 -0.115,0.123 -0.134,0.273 -0.252,0.555 -0.336,0.857 0.059,0.058 0.003,0.123 0,0.18 -0.021,0.473 0.051,0.926 0.21,1.352 0.101,0.274 0.231,0.535 0.409,0.753 0.034,-10e-4 0.057,-0.014 0.081,-0.05 0.035,-0.05 0.088,-0.003 0.096,0.027 0.012,0.043 0.105,0.03 0.053,0.075 -0.055,0.048 -0.035,0.13 -0.083,0.168" /></g><g
           transform="translate(58.7285,131.4139)"
           id="g194"><path
             id="path196"
             style="fill:#ffffff;fill-opacity:1;fill-rule:nonzero;stroke:none"
             d="M 0,0 C 0.095,0.059 0.135,0.131 0.176,0.197 0.442,0.623 0.778,0.951 1.139,1.249 1.43,1.489 1.742,1.669 2.073,1.81 2.44,1.967 2.819,1.986 3.202,1.975 3.295,1.972 3.272,1.901 3.26,1.839 3.199,1.546 3.134,1.255 3.075,0.962 2.974,0.456 2.885,-0.055 2.754,-0.552 2.719,-0.687 2.669,-0.811 2.589,-0.919 2.495,-1.046 2.382,-1.106 2.246,-1.07 2.116,-1.036 2.033,-0.923 1.984,-0.775 1.954,-0.683 1.927,-0.589 1.9,-0.495 1.843,-0.29 1.707,-0.22 1.548,-0.201 1.181,-0.155 0.898,-0.363 0.64,-0.653 0.344,-0.985 0.086,-1.351 -0.132,-1.767 -0.346,-2.176 -0.509,-2.609 -0.64,-3.063 -0.666,-3.155 -0.7,-3.203 -0.79,-3.2 c -0.211,0.008 -0.422,0.003 -0.634,0 -0.487,-0.01 -0.815,0.446 -0.678,1.079 0.198,0.916 0.391,1.834 0.569,2.756 0.119,0.613 0.518,1.047 0.924,1.133 0.285,0.06 0.55,0.037 0.772,-0.231 C 0.262,1.416 0.297,1.281 0.265,1.127 0.202,0.827 0.126,0.532 0.056,0.234 0.04,0.168 0.024,0.101 0,0" /></g><g
           transform="translate(50.3703,129.836)"
           id="g198"><path
             id="path200"
             style="fill:#ffffff;fill-opacity:1;fill-rule:nonzero;stroke:none"
             d="m 0,0 c 0.084,-0.302 0.202,-0.585 0.336,-0.858 -0.44,-0.305 -0.879,-0.614 -1.389,-0.718 -0.503,-0.102 -0.993,-0.071 -1.447,0.251 -0.489,0.348 -0.643,0.897 -0.634,1.553 0.007,0.555 0.151,1.072 0.273,1.595 0.253,1.083 0.512,2.164 0.771,3.245 0.136,0.564 0.436,0.936 0.91,1.069 0.514,0.144 0.899,-0.301 0.782,-0.924 C -0.544,4.436 -0.725,3.669 -0.889,2.897 -1.038,2.198 -1.189,1.5 -1.33,0.798 -1.391,0.494 -1.421,0.182 -1.392,-0.133 c 0.041,-0.453 0.299,-0.637 0.646,-0.462 0.24,0.121 0.439,0.321 0.644,0.511 C -0.069,-0.054 -0.034,-0.028 0,0" /></g><g
           transform="translate(54.8438,128.6869)"
           id="g202"><path
             id="path204"
             style="fill:#ffffff;fill-opacity:1;fill-rule:nonzero;stroke:none"
             d="M 0,0 C 0.037,0.048 0.021,0.213 0.135,0.091 0.101,0.037 0.062,-0.008 0,0" /></g><g
           transform="translate(54.8,128.6355)"
           id="g206"><path
             id="path208"
             style="fill:#ffffff;fill-opacity:1;fill-rule:nonzero;stroke:none"
             d="M 0,0 C 0.009,0.012 0.018,0.023 0.027,0.035 0.018,0.023 0.009,0.012 0,0" /></g><g
           transform="translate(54.8041,128.727)"
           id="g210"><path
             id="path212"
             style="fill:#ffffff;fill-opacity:1;fill-rule:nonzero;stroke:none"
             d="M 0,0 C 0.002,0.013 0.004,0.025 0.007,0.038 0.029,0.017 0.005,0.013 -0.001,0.002 Z" /></g><g
           transform="translate(52.3732,129.957)"
           id="g214"><path
             id="path216"
             style="fill:#ffffff;fill-opacity:1;fill-rule:nonzero;stroke:none"
             d="M 0,0 C -0.009,-0.006 -0.021,-0.019 -0.025,-0.015 -0.042,-0.004 -0.036,0.014 -0.026,0.029 -0.018,0.019 -0.009,0.01 0,0" /></g><g
           transform="translate(54.8026,128.7288)"
           id="g218"><path
             id="path220"
             style="fill:#ffffff;fill-opacity:1;fill-rule:nonzero;stroke:none"
             d="m 0,0 c -0.002,-0.004 -0.004,-0.009 -0.006,-0.013 0.003,0.004 0.005,0.008 0.007,0.011 z" /></g><g
           transform="translate(226.6286,104)"
           id="g222"><path
             id="path224"
             style="fill:#ff0000;fill-opacity:1;fill-rule:evenodd;stroke:none"
             d="m 0,0 h -17.257 c -0.758,0 -1.372,0.614 -1.372,1.371 v 17.258 c 0,0.757 0.614,1.371 1.372,1.371 L 0,20 c 0.757,0 1.371,-0.614 1.371,-1.371 V 1.371 C 1.371,0.614 0.757,0 0,0" /></g><g
           transform="translate(217.47,114.24)"
           id="g226"><path
             id="path228"
             style="fill:#ffffff;fill-opacity:1;fill-rule:evenodd;stroke:none"
             d="M 0,0 V 6.152 H 3.321 C 4.474,6.152 5.069,5.139 5.069,4.614 5.069,4.09 4.894,3.461 4.44,3.076 5.174,2.762 5.244,2.202 5.244,1.643 5.244,1.084 4.754,0 3.601,0 Z m 1.433,1.293 h 1.398 c 0.735,0 0.77,0.464 0.77,0.638 0,0.175 -0.035,0.656 -0.804,0.656 h -0.56 v 0.979 h 0.525 c 0.664,0 0.769,0.419 0.769,0.629 0,0.209 -0.088,0.664 -0.752,0.664 H 1.433 Z" /></g><g
           transform="translate(211.1712,120.3913)"
           id="g230"><path
             id="path232"
             style="fill:#ffffff;fill-opacity:1;fill-rule:nonzero;stroke:none"
             d="M 0,0 V -5.015 H 2.999 V -6.152 H -1.353 V 0 Z" /></g><path
           id="path234"
           style="fill:#ffffff;fill-opacity:1;fill-rule:nonzero;stroke:none"
           d="m 216.281,114.239 h -1.353 v 6.152 h 1.353 z" /><g
           transform="translate(220.6411,113.3928)"
           id="g236"><path
             id="path238"
             style="fill:#ffffff;fill-opacity:1;fill-rule:nonzero;stroke:none"
             d="m 0,0 v -1.137 h -3.249 v -1.319 h 2.982 v -1.051 h -2.982 v -1.508 h 3.318 v -1.137 h -4.67 V 0 Z" /></g><g
           transform="translate(221.1407,112.2553)"
           id="g240"><path
             id="path242"
             style="fill:#ffffff;fill-opacity:1;fill-rule:nonzero;stroke:none"
             d="M 0,0 V 1.137 H 5.041 V 0 H 3.197 V -5.015 H 1.844 V 0 Z" /></g><g
           transform="translate(215.0523,109.1699)"
           id="g244"><path
             id="path246"
             style="fill:#ffffff;fill-opacity:1;fill-rule:evenodd;stroke:none"
             d="m 0,0 c -0.035,0.457 -0.187,0.885 -0.794,1.145 0.454,0.384 0.629,1.014 0.629,1.538 0,0.524 -0.594,1.538 -1.748,1.538 h -3.321 v -6.152 h 1.433 V -0.638 0 2.928 h 1.346 c 0.664,0 0.752,-0.455 0.752,-0.665 0,-0.209 -0.105,-0.629 -0.769,-0.629 H -2.997 V 0.655 h 0.56 c 0.769,0 0.804,-0.48 0.804,-0.655 v -1.93 -0.001 c 0.01,0 0.019,0.001 0.029,0.001 H 0.01 l 0,1.93 z" /></g><g
           transform="translate(182.1515,107.929)"
           id="g248"><path
             id="path250"
             style="fill:#000000;fill-opacity:1;fill-rule:nonzero;stroke:none"
             d="m 0,0 c -0.17,-0.094 -0.377,-0.104 -0.567,-0.073 0.13,-0.298 0.183,-0.617 0.266,-0.928 0.094,-0.305 0.209,-0.675 0.556,-0.802 0.229,-0.099 0.49,-0.003 0.66,0.152 0.268,0.242 0.433,0.563 0.592,0.873 0.054,0.11 0.107,0.22 0.162,0.33 C 1.424,-0.449 1.184,-0.378 0.975,-0.263 0.769,-0.144 0.722,0.142 0.469,0.199 0.288,0.201 0.151,0.073 0,0 M 13.205,2.16 C 12.538,2.022 11.859,1.817 11.167,1.919 11.228,1.49 11.158,1.053 10.993,0.65 10.906,0.603 11.065,0.541 11.086,0.614 L 11.14,0.586 c 0.056,-0.151 0.234,-0.207 0.389,-0.222 0.398,-0.036 0.795,0.046 1.173,0.156 -0.091,0.08 -0.212,0.155 -0.23,0.28 0.012,0.054 0.04,0.102 0.065,0.151 0.274,-0.01 0.545,-0.051 0.817,-0.081 0.37,0.259 0.603,0.702 0.568,1.138 C 13.918,2.125 13.833,2.244 13.703,2.259 13.532,2.283 13.36,2.222 13.205,2.16 M 15.313,2.858 15.304,2.842 C 14.955,2.743 14.621,2.603 14.275,2.495 14.354,2.02 14.252,1.52 14.006,1.099 c -0.107,-0.063 0.115,-0.098 0.07,0 0.025,0.001 0.074,0.002 0.098,0.003 0.006,-0.087 0.116,-0.109 0.191,-0.104 0.296,0.023 0.576,0.137 0.834,0.27 -0.084,0.066 -0.184,0.122 -0.237,0.213 -0.037,0.065 0.009,0.132 0.027,0.195 C 15.201,1.67 15.412,1.649 15.621,1.617 15.838,1.857 16,2.176 15.935,2.497 15.9,2.653 15.842,2.828 15.688,2.916 15.563,2.98 15.431,2.898 15.313,2.858 m 1.939,0.791 C 16.911,3.504 16.571,3.356 16.229,3.213 16.362,2.695 16.248,2.146 15.965,1.69 c 0.072,0.042 0.173,0.057 0.228,0.118 0.116,-0.071 0.259,-0.062 0.388,-0.03 0.252,0.064 0.492,0.169 0.709,0.305 -0.125,0.085 -0.285,0.228 -0.146,0.374 0.158,-0.017 0.317,-0.03 0.475,-0.052 0.197,0.25 0.391,0.562 0.313,0.884 C 17.839,3.493 17.662,3.671 17.43,3.733 17.37,3.705 17.312,3.677 17.252,3.649 M 6.465,4.346 C 6.164,4.304 5.861,4.231 5.594,4.091 5.283,3.882 5.047,3.538 5.063,3.169 5.078,2.812 5.29,2.494 5.534,2.232 5.985,1.77 6.579,1.405 7.245,1.297 7.747,1.224 8.286,1.236 8.748,1.455 9.176,1.648 9.573,1.977 9.689,2.424 9.797,2.819 9.763,3.301 9.426,3.593 9.022,3.946 8.499,4.17 7.96,4.271 7.47,4.37 6.963,4.412 6.465,4.346 M 19.01,4.536 C 18.72,4.373 18.425,4.218 18.126,4.068 18.265,3.566 18.165,3.029 17.947,2.56 c 0.089,0.057 0.175,0.119 0.255,0.186 0.142,-0.14 0.347,-0.021 0.491,0.056 C 19.35,3.183 19.518,4.04 19.281,4.69 19.192,4.637 19.101,4.586 19.01,4.536 M -5.194,5.153 C -5.544,4.963 -5.852,4.662 -5.932,4.28 -6.024,3.825 -5.833,3.337 -5.477,3.021 -5.251,2.813 -4.95,2.691 -4.642,2.638 L -4.639,2.63 c 0.187,-0.012 0.381,-0.068 0.566,-0.021 0.646,0.017 1.279,0.244 1.795,0.605 0.386,0.276 0.722,0.681 0.725,1.155 0.015,0.235 -0.134,0.44 -0.293,0.607 C -2.19,5.312 -2.687,5.463 -3.169,5.517 -3.86,5.584 -4.587,5.482 -5.194,5.153 M 20.342,5.421 C 20.2,5.312 20.06,5.2 19.909,5.101 c 0.198,-0.325 0.12,-0.716 0.063,-1.067 0.057,0.064 0.113,0.127 0.17,0.19 0.005,-0.034 0.014,-0.101 0.02,-0.135 0.101,0.033 0.2,0.087 0.242,0.185 0.121,0.25 0.181,0.526 0.174,0.8 0.005,0.17 -0.061,0.334 -0.043,0.504 C 20.47,5.527 20.406,5.475 20.342,5.421 M 0.52,6.715 C 0.534,6.569 0.539,6.423 0.539,6.277 0.516,6.161 0.452,6.06 0.363,5.978 0.343,6.072 0.314,6.164 0.278,6.254 0.221,6.392 0.169,6.53 0.114,6.669 -1,6.532 -2.092,6.235 -3.108,5.785 -3.125,5.806 -3.158,5.847 -3.175,5.868 -3.252,5.826 -3.329,5.785 -3.406,5.744 -3.105,5.738 -2.805,5.696 -2.514,5.626 -2.268,5.559 -2.029,5.469 -1.813,5.341 l 0.007,0.003 C -1.685,5.258 -1.568,5.166 -1.463,5.062 -1.187,4.757 -1.143,4.315 -1.306,3.951 -1.602,3.268 -2.215,2.712 -2.953,2.456 -3.246,2.36 -3.551,2.302 -3.861,2.29 -4.21,2.277 -4.559,2.324 -4.891,2.425 c -0.24,0.082 -0.464,0.199 -0.666,0.346 0.03,-0.321 0.125,-0.635 0.278,-0.923 -0.138,-0.062 -0.322,-0.211 -0.2,-0.364 0.165,-0.162 0.417,-0.205 0.643,-0.246 0.601,-0.695 1.407,-1.207 2.251,-1.609 0.694,-0.329 1.424,-0.59 2.178,-0.769 -0.065,0.188 -0.112,0.381 -0.153,0.575 -0.037,0.173 -0.056,0.35 -0.107,0.52 -0.167,0.124 -0.296,0.287 -0.335,0.487 -0.006,0.135 0.013,0.272 0.089,0.389 -0.017,-0.148 -0.034,-0.297 0.007,-0.443 0.095,-0.2 0.299,-0.35 0.533,-0.374 0.137,-0.015 0.261,0.049 0.38,0.103 0.145,0.078 0.294,0.167 0.466,0.178 0.19,-0.01 0.275,-0.194 0.371,-0.321 h 0.004 c 0.189,-0.201 0.476,-0.348 0.768,-0.309 0.153,0.018 0.279,0.107 0.388,0.203 0.094,0.111 0.171,0.234 0.229,0.366 0.007,0 0.022,0.003 0.03,0.004 C 2.256,-0.051 2.039,-0.297 1.768,-0.416 1.743,-0.541 1.699,-0.661 1.659,-0.781 1.553,-0.979 1.441,-1.175 1.303,-1.356 1.242,-1.398 1.326,-1.407 1.355,-1.411 c 0.457,-0.039 0.917,-0.057 1.376,-0.07 1.151,-0.033 2.313,-0.017 3.448,0.19 0.791,0.145 1.569,0.367 2.303,0.681 0.575,0.255 1.132,0.583 1.538,1.049 0.365,0.434 0.528,1.028 0.367,1.566 C 10.257,2.416 10.052,2.804 9.813,3.168 9.885,2.913 9.952,2.648 9.91,2.383 9.895,2.216 9.82,2.064 9.758,1.91 L 9.759,1.878 H 9.739 C 9.542,1.579 9.248,1.343 8.909,1.194 7.762,0.696 6.292,0.973 5.442,1.851 5.075,2.237 4.737,2.71 4.744,3.247 4.754,3.68 5.081,4.043 5.47,4.244 6.122,4.587 6.897,4.67 7.632,4.608 7.954,4.568 8.277,4.507 8.572,4.375 8.674,4.329 8.779,4.289 8.886,4.256 8.596,4.564 8.256,4.827 7.912,5.081 7.818,5.148 7.717,5.206 7.615,5.261 6.178,6.04 4.563,6.52 2.915,6.695 2.865,6.566 2.814,6.438 2.764,6.31 2.715,6.185 2.67,6.059 2.627,5.931 2.512,6.035 2.475,6.182 2.458,6.325 2.464,6.461 2.475,6.597 2.489,6.732 1.834,6.778 1.175,6.77 0.52,6.715 m -2.013,0.724 c -0.08,-0.16 0.206,-0.101 0.303,-0.093 0.331,0.01 0.658,0.06 0.987,0.091 C -0.226,7.481 -0.25,7.524 -0.276,7.567 -0.293,7.616 -0.312,7.665 -0.33,7.714 -0.34,7.734 -0.361,7.776 -0.371,7.796 -0.749,7.691 -1.137,7.6 -1.493,7.439 m 0.451,0.338 C -0.845,7.84 -0.649,7.908 -0.451,7.971 -0.473,8.017 -0.494,8.063 -0.515,8.108 -0.693,8.002 -0.874,7.898 -1.042,7.777 M 3.532,8.18 C 3.524,8.152 3.506,8.097 3.497,8.07 L 3.489,8.071 C 3.471,8.032 3.453,7.993 3.435,7.954 3.416,7.907 3.396,7.859 3.377,7.812 3.362,7.778 3.347,7.744 3.331,7.71 3.304,7.645 3.277,7.58 3.25,7.515 4.665,7.4 6.076,7.099 7.356,6.51 8.955,5.793 10.303,4.627 11.253,3.23 11.309,3.155 11.414,3.003 11.518,3.105 11.65,3.37 11.603,3.677 11.575,3.959 11.502,4.563 11.075,5.058 10.636,5.476 9.957,6.098 9.15,6.584 8.305,6.983 6.82,7.671 5.187,8.084 3.532,8.18 M 0.143,7.929 C 0.148,7.907 0.159,7.863 0.165,7.841 l 0.01,0.003 C 0.197,7.783 0.22,7.722 0.244,7.661 0.264,7.602 0.285,7.542 0.305,7.483 1.098,7.549 1.895,7.574 2.69,7.543 2.717,7.625 2.744,7.707 2.771,7.79 2.799,7.873 2.829,7.956 2.858,8.039 L 2.864,8.038 c 0.02,0.057 0.039,0.114 0.06,0.171 -0.935,0 -1.869,-0.087 -2.781,-0.28 M -0.063,8.383 C -0.045,8.343 -0.026,8.302 -0.007,8.261 0.015,8.212 0.036,8.163 0.058,8.113 1.032,8.366 2.04,8.505 3.05,8.521 3.094,8.62 3.138,8.72 3.181,8.82 3.242,8.955 3.305,9.09 3.366,9.225 3.469,9.438 3.581,9.647 3.681,9.861 3.785,10.022 3.86,10.2 3.96,10.363 2.56,9.817 1.218,9.143 -0.063,8.383 m 11.732,2.292 C 10.59,10.464 9.53,10.141 8.552,9.66 8.078,9.417 7.605,9.145 7.255,8.752 7.112,8.589 6.991,8.379 7.042,8.162 7.098,7.96 7.295,7.827 7.493,7.753 8.433,7.406 9.326,6.945 10.131,6.372 10.735,5.937 11.301,5.44 11.727,4.844 11.962,4.504 12.181,4.12 12.167,3.703 12.168,3.534 12.068,3.39 11.995,3.243 c 0.344,0.057 0.669,0.18 0.996,0.29 1.229,0.432 2.437,0.916 3.632,1.422 0.837,0.362 1.675,0.726 2.469,1.166 0.193,0.103 0.382,0.23 0.492,0.416 0.181,0.283 0.18,0.632 0.112,0.947 -0.156,0.624 -0.561,1.165 -1.016,1.63 -0.557,0.559 -1.221,1.02 -1.934,1.387 -0.443,0.167 -0.916,0.256 -1.386,0.324 -1.227,0.165 -2.48,0.08 -3.691,-0.15 M 5.096,10.774 C 4.994,10.737 4.882,10.717 4.792,10.658 4.708,10.534 4.642,10.399 4.569,10.268 4.372,9.922 4.196,9.567 4.018,9.212 3.961,9.095 3.905,8.979 3.851,8.861 H 3.844 C 3.794,8.744 3.741,8.628 3.687,8.512 4.029,8.495 4.374,8.464 4.715,8.514 c 0.26,0.034 0.511,0.115 0.753,0.208 1.789,0.713 3.583,1.427 5.443,1.963 1.157,0.334 2.345,0.596 3.556,0.683 -0.112,0.03 -0.223,0.068 -0.339,0.082 -0.532,0.133 -1.078,0.215 -1.625,0.272 -2.506,0.246 -5.044,-0.163 -7.407,-0.948 m -14.532,2.427 c -0.231,-0.115 -0.412,-0.316 -0.489,-0.551 -0.062,-0.156 -0.073,-0.328 -0.038,-0.492 0.019,-0.075 0.043,-0.15 0.082,-0.218 0.183,-0.424 0.724,-0.656 1.191,-0.555 0.424,0.075 0.778,0.418 0.832,0.82 0.05,0.312 -0.074,0.642 -0.324,0.854 -0.328,0.292 -0.86,0.348 -1.254,0.142 m 21.577,0.97 c -0.219,-0.518 -0.094,-1.176 0.375,-1.537 0.253,-0.199 0.607,-0.283 0.928,-0.205 0.393,0.091 0.709,0.393 0.838,0.748 0.036,0.084 0.061,0.172 0.074,0.261 0.04,0.206 0.033,0.422 -0.037,0.621 -0.108,0.472 -0.576,0.875 -1.105,0.863 -0.485,0.003 -0.907,-0.339 -1.073,-0.751 m -4.534,-0.02 c -1.078,-0.868 -1.9,-1.978 -2.601,-3.127 2.45,0.785 5.058,1.186 7.649,1.028 -0.487,0.196 -0.897,0.569 -1.082,1.038 -0.136,0.341 -0.123,0.738 0.066,1.059 0.209,0.363 0.578,0.621 0.968,0.795 0.03,0.008 0.114,0.056 0.039,0.071 -0.66,0.25 -1.375,0.387 -2.089,0.347 -1.1,-0.054 -2.125,-0.548 -2.95,-1.211 m 3.598,1.92 h 0.755 c 0.734,-0.051 1.522,-0.191 2.078,-0.679 0.422,-0.36 0.586,-0.918 0.55,-1.439 -0.036,-0.543 -0.143,-1.114 -0.5,-1.559 -0.158,-0.202 -0.395,-0.331 -0.644,-0.411 1.576,-0.164 3.137,-0.548 4.555,-1.222 0.766,-0.366 1.49,-0.823 2.093,-1.4 C 20.597,8.867 21.026,8.274 21.175,7.595 21.264,7.209 21.238,6.805 21.109,6.429 21.371,5.827 21.315,5.143 21.102,4.535 20.913,3.99 20.552,3.484 20.034,3.169 19.887,3.076 19.705,3.084 19.537,3.102 19.293,2.76 18.998,2.45 18.658,2.189 c 0.702,-0.201 1.38,-0.498 1.963,-0.921 0.452,-0.329 0.844,-0.75 1.054,-1.255 0.097,-0.232 0.144,-0.479 0.174,-0.726 v -0.295 c -0.022,-0.144 -0.051,-0.298 -0.153,-0.414 -0.116,-0.134 -0.356,-0.165 -0.495,-0.045 -0.066,0.062 -0.044,0.158 -0.047,0.237 0.036,0.303 -0.11,0.584 -0.203,0.865 C 20.754,0.188 20.4,0.702 19.884,1.036 19.385,1.396 18.756,1.51 18.182,1.722 17.959,1.82 17.703,1.794 17.477,1.883 17.287,1.679 17.071,1.498 16.834,1.341 17.608,1.088 18.36,0.74 18.973,0.224 c 0.533,-0.441 0.946,-1.038 1.042,-1.707 0.038,-0.309 0.078,-0.652 -0.091,-0.935 -0.113,-0.193 -0.463,-0.252 -0.599,-0.055 -0.063,0.176 0.021,0.368 -0.038,0.546 -0.154,0.495 -0.322,0.998 -0.639,1.425 C 18.355,-0.1 17.937,0.21 17.479,0.432 17.134,0.581 16.768,0.682 16.41,0.802 16.207,0.865 16.005,0.966 15.784,0.941 15.645,0.929 15.515,0.98 15.392,1.032 15.175,0.849 14.93,0.7 14.679,0.561 c 0.153,-0.078 0.323,-0.119 0.483,-0.183 0.715,-0.28 1.403,-0.644 1.973,-1.141 0.53,-0.456 0.953,-1.047 1.096,-1.717 0.075,-0.369 0.126,-0.762 -0.005,-1.125 -0.054,-0.16 -0.194,-0.285 -0.368,-0.324 h -0.154 c -0.097,0.029 -0.214,0.066 -0.24,0.17 -0.047,0.193 0.038,0.396 -0.027,0.587 -0.192,0.614 -0.403,1.242 -0.825,1.755 -0.343,0.419 -0.808,0.744 -1.312,0.976 -0.7,0.271 -1.436,0.456 -2.131,0.738 -0.605,-0.353 -1.338,-0.395 -2.031,-0.389 -0.184,-0.005 -0.365,0.031 -0.536,0.09 C 10.117,-0.542 9.472,-0.94 8.794,-1.239 8.155,-1.512 7.485,-1.717 6.804,-1.873 5.732,-2.112 4.627,-2.183 3.527,-2.187 2.404,-2.164 1.274,-2.142 0.166,-1.955 -1.168,-1.743 -2.445,-1.27 -3.61,-0.631 -3.702,-0.917 -3.771,-1.21 -3.836,-1.503 -3.882,-1.7 -3.822,-1.903 -3.86,-2.101 -3.89,-2.263 -4.122,-2.32 -4.248,-2.216 c -0.17,0.138 -0.195,0.366 -0.218,0.562 -0.032,0.486 0.044,0.975 0.196,1.439 -0.326,0.232 -0.639,0.485 -0.912,0.773 -0.286,-0.261 -0.518,-0.574 -0.68,-0.917 -0.226,-0.472 -0.348,-0.98 -0.464,-1.484 -0.048,-0.207 0.015,-0.42 -0.03,-0.627 -0.039,-0.171 -0.302,-0.201 -0.416,-0.077 -0.154,0.164 -0.175,0.398 -0.191,0.606 -0.019,0.635 0.109,1.28 0.417,1.849 0.231,0.432 0.556,0.816 0.933,1.144 -0.478,0.589 -0.729,1.333 -0.681,2.072 0.01,0.239 0.067,0.474 0.117,0.707 0.147,0.322 0.236,0.666 0.416,0.974 0.163,0.189 0.279,0.43 0.511,0.553 0.268,0.079 0.427,0.315 0.647,0.464 0.266,0.176 0.527,0.36 0.81,0.511 0.175,0.097 0.364,0.174 0.523,0.294 0.837,0.633 1.707,1.229 2.611,1.776 -0.379,0.758 -0.799,1.501 -1.298,2.196 -0.538,0.748 -1.165,1.454 -1.933,2.004 -0.696,0.504 -1.525,0.862 -2.402,0.958 -0.706,0.083 -1.425,-0.006 -2.101,-0.202 0.354,-0.152 0.715,-0.35 0.92,-0.673 0.182,-0.281 0.155,-0.651 -0.028,-0.925 -0.263,-0.402 -0.738,-0.667 -1.233,-0.729 -0.364,-0.048 -0.757,0.061 -1.005,0.322 -0.274,0.284 -0.37,0.673 -0.412,1.044 v 0.432 c 0.056,0.348 0.246,0.681 0.557,0.885 0.541,0.363 1.232,0.436 1.879,0.456 0.798,0.002 1.599,-0.096 2.364,-0.314 1.067,-0.327 1.956,-1.018 2.717,-1.773 0.996,-1.006 1.793,-2.174 2.429,-3.408 1.391,0.809 2.853,1.512 4.381,2.062 0.873,1.442 1.898,2.833 3.241,3.928 0.556,0.445 1.173,0.839 1.866,1.072 0.618,0.201 1.272,0.287 1.922,0.333" /></g><g
           transform="translate(202.6868,113.5075)"
           id="g252"><path
             id="path254"
             style="fill:#74b743;fill-opacity:1;fill-rule:nonzero;stroke:none"
             d="m 0,0 c -0.065,-0.052 -0.13,-0.104 -0.193,-0.157 -0.142,-0.11 -0.283,-0.221 -0.433,-0.321 0.198,-0.325 0.119,-0.715 0.063,-1.066 0.056,0.063 0.112,0.127 0.17,0.19 0.004,-0.034 0.014,-0.102 0.019,-0.136 0.101,0.033 0.201,0.088 0.243,0.185 0.12,0.25 0.181,0.527 0.174,0.801 C 0.048,-0.334 -0.019,-0.17 0,0" /></g><g
           transform="translate(201.1616,112.4651)"
           id="g256"><path
             id="path258"
             style="fill:#74b743;fill-opacity:1;fill-rule:nonzero;stroke:none"
             d="m 0,0 c -0.29,-0.163 -0.586,-0.318 -0.884,-0.468 0.139,-0.502 0.039,-1.039 -0.179,-1.508 0.089,0.057 0.175,0.119 0.255,0.186 0.142,-0.14 0.347,-0.021 0.491,0.056 0.657,0.381 0.825,1.238 0.588,1.888 C 0.182,0.101 0.091,0.05 0,0" /></g><g
           transform="translate(199.7705,110.334)"
           id="g260"><path
             id="path262"
             style="fill:#74b743;fill-opacity:1;fill-rule:nonzero;stroke:none"
             d="M 0,0 C 0.197,0.25 0.391,0.562 0.312,0.884 0.22,1.088 0.042,1.266 -0.189,1.328 -0.249,1.3 -0.307,1.272 -0.367,1.244 -0.708,1.099 -1.048,0.951 -1.39,0.808 c 0.133,-0.518 0.019,-1.066 -0.264,-1.523 0.072,0.042 0.173,0.057 0.228,0.118 0.116,-0.071 0.259,-0.062 0.388,-0.03 0.252,0.064 0.492,0.169 0.709,0.305 -0.125,0.085 -0.285,0.228 -0.146,0.374 C -0.317,0.035 -0.158,0.022 0,0" /></g><g
           transform="translate(197.8394,110.8448)"
           id="g264"><path
             id="path266"
             style="fill:#74b743;fill-opacity:1;fill-rule:nonzero;stroke:none"
             d="m 0,0 c -0.125,0.064 -0.257,-0.018 -0.375,-0.058 l -0.009,-0.015 c -0.349,-0.1 -0.683,-0.239 -1.029,-0.348 0.079,-0.475 -0.023,-0.975 -0.269,-1.396 0.017,0 0.053,0 0.07,0 0.025,10e-4 0.074,0.002 0.098,0.003 0.006,-0.086 0.116,-0.108 0.191,-0.103 0.296,0.022 0.576,0.136 0.834,0.27 -0.084,0.065 -0.184,0.121 -0.237,0.213 -0.037,0.064 0.009,0.132 0.027,0.194 0.212,-0.006 0.423,-0.026 0.632,-0.059 0.217,0.24 0.379,0.559 0.314,0.88 C 0.212,-0.263 0.154,-0.088 0,0" /></g><g
           transform="translate(195.8548,110.1884)"
           id="g268"><path
             id="path270"
             style="fill:#74b743;fill-opacity:1;fill-rule:nonzero;stroke:none"
             d="m 0,0 c -0.171,0.023 -0.343,-0.037 -0.498,-0.099 -0.668,-0.138 -1.346,-0.344 -2.038,-0.241 0.061,-0.429 -0.009,-0.867 -0.174,-1.269 0.023,-0.009 0.069,-0.027 0.092,-0.036 l 0.054,-0.028 c 0.057,-0.151 0.235,-0.207 0.39,-0.222 0.397,-0.037 0.795,0.045 1.172,0.156 -0.091,0.079 -0.212,0.155 -0.23,0.28 0.013,0.054 0.041,0.102 0.066,0.151 0.274,-0.01 0.545,-0.052 0.816,-0.082 0.371,0.26 0.604,0.703 0.569,1.139 C 0.215,-0.134 0.13,-0.016 0,0" /></g><g
           transform="translate(177.4294,113.0589)"
           id="g272"><path
             id="path274"
             style="fill:#ffffff;fill-opacity:1;fill-rule:nonzero;stroke:none"
             d="M 0,0 C 0.582,0.255 1.276,0.21 1.854,-0.031 2.22,-0.183 2.571,-0.43 2.712,-0.794 2.468,-0.638 2.239,-0.461 1.973,-0.336 1.458,-0.077 0.837,0.033 0.272,-0.143 0.544,-0.156 0.818,-0.287 0.912,-0.539 0.94,-0.641 0.953,-0.746 0.957,-0.851 0.902,-1.081 0.722,-1.27 0.483,-1.346 0.299,-1.362 0.097,-1.355 -0.056,-1.245 c -0.158,0.096 -0.238,0.267 -0.274,0.435 -0.001,0.173 0.071,0.333 0.164,0.478 -0.314,-0.186 -0.56,-0.449 -0.774,-0.73 0.148,0.45 0.479,0.86 0.94,1.062" /></g><g
           transform="translate(188.9011,112.1241)"
           id="g276"><path
             id="path278"
             style="fill:#ffffff;fill-opacity:1;fill-rule:nonzero;stroke:none"
             d="M 0,0 C 0.695,0.124 1.421,-0.076 1.997,-0.444 2.348,-0.672 2.676,-0.989 2.746,-1.399 2.321,-0.944 1.82,-0.525 1.203,-0.321 0.912,-0.223 0.602,-0.185 0.294,-0.194 0.498,-0.346 0.622,-0.608 0.511,-0.845 0.49,-0.888 0.468,-0.931 0.444,-0.972 0.305,-1.134 0.079,-1.183 -0.133,-1.161 c -0.121,0.023 -0.22,0.1 -0.306,0.178 -0.157,0.176 -0.136,0.422 -0.051,0.622 C -0.767,-0.477 -1.012,-0.646 -1.246,-0.825 -0.983,-0.4 -0.517,-0.089 0,0" /></g><g
           transform="translate(194.6678,120.5627)"
           id="g280"><path
             id="path282"
             style="fill:#eac500;fill-opacity:1;fill-rule:nonzero;stroke:none"
             d="M 0,0 C 0.253,-0.199 0.607,-0.283 0.928,-0.205 1.32,-0.114 1.636,0.189 1.766,0.543 1.801,0.627 1.827,0.715 1.839,0.805 1.88,1.01 1.872,1.226 1.803,1.425 1.695,1.898 1.227,2.3 0.698,2.288 0.212,2.291 -0.21,1.949 -0.375,1.537 -0.594,1.019 -0.469,0.362 0,0" /></g><g
           transform="translate(173.9691,120.9876)"
           id="g284"><path
             id="path286"
             style="fill:#eac500;fill-opacity:1;fill-rule:nonzero;stroke:none"
             d="M 0,0 C -0.328,0.293 -0.86,0.348 -1.254,0.143 -1.485,0.027 -1.666,-0.173 -1.743,-0.408 -1.804,-0.565 -1.816,-0.737 -1.781,-0.9 c 0.019,-0.076 0.043,-0.151 0.082,-0.219 0.184,-0.423 0.724,-0.655 1.191,-0.554 0.424,0.074 0.778,0.417 0.832,0.82 C 0.374,-0.542 0.25,-0.211 0,0" /></g><g
           transform="translate(185.9955,116.79)"
           id="g288"><path
             id="path290"
             style="fill:#eac500;fill-opacity:1;fill-rule:nonzero;stroke:none"
             d="m 0,0 c -0.05,-0.117 -0.103,-0.233 -0.157,-0.349 0.342,-0.017 0.687,-0.048 1.028,0.002 0.26,0.034 0.511,0.115 0.753,0.208 C 3.413,0.574 5.207,1.288 7.067,1.824 8.224,2.158 9.412,2.42 10.623,2.507 10.511,2.537 10.4,2.575 10.284,2.589 9.752,2.722 9.206,2.804 8.659,2.861 6.153,3.107 3.615,2.698 1.252,1.913 1.15,1.876 1.038,1.856 0.948,1.797 0.864,1.673 0.798,1.538 0.725,1.407 0.528,1.061 0.352,0.706 0.174,0.351 0.117,0.234 0.061,0.118 0.007,0 Z" /></g><g
           transform="translate(201.8472,115.4129)"
           id="g292"><path
             id="path294"
             style="fill:#eac500;fill-opacity:1;fill-rule:nonzero;stroke:none"
             d="m 0,0 c -0.155,0.624 -0.56,1.165 -1.016,1.63 -0.557,0.559 -1.22,1.02 -1.934,1.387 -0.443,0.167 -0.916,0.256 -1.386,0.324 -1.227,0.166 -2.48,0.08 -3.691,-0.15 -1.079,-0.211 -2.139,-0.534 -3.116,-1.015 -0.474,-0.243 -0.948,-0.515 -1.298,-0.908 -0.143,-0.163 -0.264,-0.373 -0.213,-0.59 0.056,-0.202 0.254,-0.335 0.452,-0.409 0.939,-0.347 1.832,-0.808 2.637,-1.381 0.604,-0.435 1.17,-0.932 1.596,-1.528 0.235,-0.34 0.455,-0.724 0.44,-1.141 0.001,-0.168 -0.098,-0.313 -0.172,-0.46 0.344,0.057 0.669,0.18 0.996,0.29 1.23,0.432 2.437,0.916 3.632,1.422 0.837,0.362 1.675,0.726 2.47,1.166 0.192,0.103 0.381,0.23 0.491,0.416 C 0.069,-0.664 0.069,-0.315 0,0" /></g><g
           transform="translate(182.2095,116.0423)"
           id="g296"><path
             id="path298"
             style="fill:#eac500;fill-opacity:1;fill-rule:nonzero;stroke:none"
             d="m 0,0 c 0.974,0.252 1.982,0.392 2.992,0.407 0.044,0.1 0.088,0.2 0.131,0.3 0.062,0.135 0.124,0.27 0.185,0.405 C 3.411,1.325 3.523,1.534 3.623,1.748 3.727,1.909 3.802,2.086 3.902,2.25 2.502,1.704 1.16,1.03 -0.121,0.27 -0.103,0.229 -0.084,0.189 -0.065,0.148 -0.043,0.099 -0.022,0.049 0,0" /></g><g
           transform="translate(182.3263,115.7726)"
           id="g300"><path
             id="path302"
             style="fill:#eac500;fill-opacity:1;fill-rule:nonzero;stroke:none"
             d="m 0,0 c 0.023,-0.061 0.046,-0.121 0.069,-0.182 0.02,-0.059 0.041,-0.119 0.061,-0.179 0.793,0.066 1.59,0.092 2.385,0.06 0.027,0.083 0.054,0.165 0.081,0.247 0.028,0.083 0.058,0.166 0.087,0.249 h 0.006 c 0.02,0.057 0.04,0.114 0.06,0.171 -0.935,0 -1.869,-0.088 -2.781,-0.281 0.005,-0.022 0.017,-0.065 0.022,-0.087 z" /></g><g
           transform="translate(192.7876,113.4054)"
           id="g304"><path
             id="path306"
             style="fill:#eac500;fill-opacity:1;fill-rule:nonzero;stroke:none"
             d="M 0,0 C -0.679,0.622 -1.486,1.107 -2.331,1.507 -3.817,2.195 -5.449,2.608 -7.104,2.703 -7.113,2.676 -7.13,2.621 -7.139,2.593 L -7.147,2.594 C -7.165,2.556 -7.183,2.517 -7.201,2.478 -7.221,2.431 -7.24,2.383 -7.26,2.336 -7.275,2.302 -7.29,2.268 -7.305,2.233 -7.332,2.168 -7.359,2.103 -7.386,2.039 -5.971,1.924 -4.56,1.622 -3.28,1.034 c 1.599,-0.717 2.947,-1.883 3.897,-3.28 0.056,-0.075 0.161,-0.227 0.265,-0.125 0.132,0.264 0.085,0.572 0.057,0.853 C 0.866,-0.913 0.439,-0.419 0,0" /></g><g
           transform="translate(181.6367,116.0374)"
           id="g308"><path
             id="path310"
             style="fill:#eac500;fill-opacity:1;fill-rule:nonzero;stroke:none"
             d="M 0,0 C -0.178,-0.107 -0.359,-0.211 -0.528,-0.332 -0.33,-0.268 -0.134,-0.2 0.063,-0.137 0.042,-0.091 0.021,-0.045 0,0" /></g><g
           transform="translate(176.9018,113.2871)"
           id="g312"><path
             id="path314"
             style="fill:#eac500;fill-opacity:1;fill-rule:nonzero;stroke:none"
             d="M 0,0 C 0.267,0.079 0.426,0.315 0.646,0.463 0.416,0.327 0.21,0.161 0,0" /></g><g
           transform="translate(176.3906,112.7344)"
           id="g316"><path
             id="path318"
             style="fill:#eac500;fill-opacity:1;fill-rule:nonzero;stroke:none"
             d="M 0,0 C -0.223,-0.285 -0.379,-0.621 -0.416,-0.974 -0.269,-0.652 -0.181,-0.309 0,0" /></g><g
           transform="translate(189.9541,107.7378)"
           id="g320"><path
             id="path322"
             style="fill:#eac500;fill-opacity:1;fill-rule:nonzero;stroke:none"
             d="m 0,0 c -0.582,0.022 -1.156,0.151 -1.701,0.339 -0.296,0.107 -0.595,0.226 -0.843,0.415 -0.084,0.07 -0.188,0.164 -0.158,0.28 0.075,0.117 0.235,0.136 0.366,0.15 0.45,0.03 0.899,-0.05 1.333,-0.153 C -0.545,0.915 -0.088,0.769 0.313,0.528 0.447,0.454 0.546,0.341 0.631,0.222 0.529,-0.015 0.223,0.013 0,0 M 2.01,3.359 C 2.082,3.104 2.15,2.839 2.107,2.574 2.093,2.407 2.018,2.255 1.956,2.102 L 1.957,2.07 1.936,2.069 C 1.739,1.77 1.446,1.534 1.106,1.385 -0.04,0.888 -1.511,1.165 -2.361,2.043 -2.727,2.429 -3.066,2.902 -3.059,3.438 -3.049,3.871 -2.722,4.234 -2.333,4.436 -1.681,4.778 -0.906,4.861 -0.17,4.8 0.151,4.759 0.474,4.698 0.77,4.566 0.871,4.52 0.976,4.48 1.083,4.447 0.793,4.756 0.453,5.018 0.109,5.272 0.015,5.339 -0.085,5.397 -0.187,5.452 -1.625,6.231 -3.24,6.712 -4.888,6.886 -4.938,6.758 -4.988,6.629 -5.039,6.501 -5.087,6.376 -5.133,6.25 -5.175,6.122 -5.29,6.226 -5.328,6.373 -5.345,6.517 -5.339,6.653 -5.328,6.788 -5.313,6.923 -5.969,6.969 -6.628,6.961 -7.283,6.906 -7.268,6.761 -7.264,6.615 -7.264,6.468 -7.287,6.352 -7.351,6.251 -7.44,6.169 -7.46,6.263 -7.488,6.356 -7.525,6.445 -7.581,6.583 -7.634,6.722 -7.688,6.86 -8.802,6.723 -9.895,6.427 -10.911,5.977 c -0.017,0.02 -0.05,0.061 -0.067,0.082 -0.077,-0.042 -0.154,-0.083 -0.231,-0.124 0.302,-0.006 0.601,-0.047 0.893,-0.118 0.245,-0.067 0.484,-0.156 0.7,-0.285 l 0.007,0.003 c 0.122,-0.086 0.238,-0.178 0.344,-0.281 0.275,-0.306 0.32,-0.748 0.157,-1.111 -0.297,-0.683 -0.91,-1.24 -1.648,-1.496 -0.292,-0.096 -0.598,-0.153 -0.907,-0.166 -0.349,-0.013 -0.699,0.034 -1.03,0.135 -0.241,0.082 -0.465,0.199 -0.667,0.346 0.031,-0.321 0.126,-0.635 0.279,-0.923 0.179,0.082 0.373,0.13 0.569,0.166 0.327,0.055 0.662,0.064 0.994,0.047 0.255,-0.022 0.517,-0.056 0.749,-0.164 0.089,-0.044 0.192,-0.113 0.194,-0.218 -0.012,-0.136 -0.156,-0.207 -0.268,-0.269 -0.303,-0.123 -0.631,-0.171 -0.957,-0.202 -0.28,-0.007 -0.561,-0.008 -0.838,0.03 0.6,-0.695 1.406,-1.207 2.251,-1.608 0.693,-0.33 1.423,-0.591 2.177,-0.77 -0.064,0.188 -0.111,0.381 -0.152,0.575 -0.037,0.173 -0.057,0.35 -0.107,0.52 -0.167,0.124 -0.297,0.287 -0.335,0.488 -0.007,0.134 0.013,0.271 0.088,0.388 -0.017,-0.147 -0.033,-0.297 0.007,-0.443 0.096,-0.2 0.3,-0.35 0.533,-0.374 0.137,-0.015 0.262,0.049 0.38,0.104 0.146,0.077 0.295,0.167 0.467,0.177 0.19,-0.01 0.274,-0.193 0.37,-0.32 l 0.004,-0.001 c 0.19,-0.201 0.476,-0.348 0.769,-0.309 0.152,0.018 0.279,0.107 0.387,0.204 0.095,0.111 0.172,0.234 0.229,0.365 0.008,0.001 0.023,0.003 0.03,0.004 C -5.546,0.14 -5.764,-0.105 -6.034,-0.225 -6.06,-0.349 -6.103,-0.469 -6.143,-0.59 -6.25,-0.788 -6.361,-0.983 -6.499,-1.164 c -0.062,-0.043 0.023,-0.052 0.052,-0.055 0.457,-0.04 0.916,-0.058 1.376,-0.071 1.151,-0.032 2.312,-0.016 3.447,0.19 0.791,0.145 1.57,0.367 2.304,0.681 0.574,0.256 1.131,0.583 1.537,1.05 C 2.582,1.064 2.745,1.658 2.585,2.197 2.454,2.607 2.249,2.995 2.01,3.359" /></g><g
           transform="translate(180.9618,115.2747)"
           id="g324"><path
             id="path326"
             style="fill:#eac500;fill-opacity:1;fill-rule:nonzero;stroke:none"
             d="M 0,0 C 0.331,0.011 0.658,0.061 0.987,0.091 0.964,0.136 0.94,0.179 0.914,0.221 0.896,0.271 0.878,0.32 0.86,0.368 0.85,0.389 0.829,0.43 0.819,0.45 0.441,0.346 0.053,0.254 -0.303,0.093 -0.383,-0.067 -0.097,-0.007 0,0" /></g><g
           transform="translate(179.4025,112.7232)"
           id="g328"><path
             id="path330"
             style="fill:#74b743;fill-opacity:1;fill-rule:nonzero;stroke:none"
             d="m 0,0 c -0.515,0.259 -1.136,0.369 -1.701,0.193 0.272,-0.013 0.546,-0.144 0.64,-0.397 0.028,-0.101 0.041,-0.206 0.045,-0.311 -0.055,-0.231 -0.235,-0.419 -0.474,-0.495 -0.184,-0.017 -0.386,-0.01 -0.539,0.1 -0.158,0.097 -0.238,0.268 -0.274,0.436 -10e-4,0.172 0.071,0.333 0.163,0.478 -0.313,-0.187 -0.559,-0.449 -0.773,-0.731 0.148,0.451 0.479,0.86 0.94,1.063 0.582,0.254 1.275,0.21 1.854,-0.031 0.366,-0.153 0.717,-0.4 0.858,-0.763 C 0.495,-0.302 0.266,-0.125 0,0 M -0.42,0.722 C -1.111,0.79 -1.838,0.688 -2.445,0.359 c -0.35,-0.19 -0.658,-0.491 -0.738,-0.873 -0.092,-0.455 0.099,-0.944 0.455,-1.259 0.226,-0.208 0.527,-0.33 0.835,-0.383 l 0.003,-0.008 c 0.187,-0.012 0.381,-0.068 0.566,-0.021 0.646,0.017 1.279,0.244 1.795,0.605 0.386,0.276 0.722,0.681 0.725,1.155 C 1.211,-0.19 1.062,0.015 0.903,0.181 0.559,0.517 0.062,0.669 -0.42,0.722" /></g><g
           transform="translate(190.1041,111.8029)"
           id="g332"><path
             id="path334"
             style="fill:#74b743;fill-opacity:1;fill-rule:nonzero;stroke:none"
             d="m 0,0 c -0.291,0.098 -0.601,0.137 -0.909,0.127 0.204,-0.151 0.328,-0.414 0.217,-0.651 -0.021,-0.043 -0.043,-0.086 -0.067,-0.127 -0.139,-0.162 -0.365,-0.211 -0.577,-0.188 -0.121,0.022 -0.22,0.099 -0.306,0.177 -0.157,0.176 -0.136,0.422 -0.051,0.623 -0.277,-0.117 -0.522,-0.285 -0.756,-0.465 0.263,0.426 0.729,0.736 1.246,0.825 C -0.508,0.445 0.218,0.245 0.794,-0.123 1.145,-0.351 1.473,-0.668 1.543,-1.078 1.118,-0.623 0.617,-0.204 0,0 M 1.473,-0.28 C 1.069,0.073 0.546,0.296 0.007,0.398 -0.482,0.496 -0.99,0.538 -1.488,0.472 -1.789,0.43 -2.091,0.357 -2.359,0.217 -2.67,0.008 -2.906,-0.336 -2.89,-0.705 c 0.015,-0.357 0.228,-0.675 0.472,-0.936 0.45,-0.463 1.045,-0.828 1.71,-0.936 0.503,-0.073 1.041,-0.061 1.503,0.158 0.428,0.193 0.825,0.522 0.941,0.969 0.109,0.395 0.074,0.877 -0.263,1.17" /></g><g
           transform="translate(177.4418,109.9423)"
           id="g336"><path
             id="path338"
             style="fill:#ed4792;fill-opacity:1;fill-rule:nonzero;stroke:none"
             d="M 0,0 C 0.328,0.055 0.662,0.065 0.994,0.048 1.249,0.026 1.511,-0.008 1.743,-0.117 1.833,-0.161 1.935,-0.229 1.937,-0.334 1.925,-0.471 1.781,-0.542 1.669,-0.604 1.367,-0.727 1.038,-0.774 0.713,-0.806 0.432,-0.812 0.151,-0.814 -0.126,-0.775 c -0.226,0.041 -0.478,0.083 -0.643,0.246 -0.122,0.153 0.061,0.302 0.2,0.363 C -0.39,-0.083 -0.195,-0.035 0,0" /></g><g
           transform="translate(187.2524,108.7718)"
           id="g340"><path
             id="path342"
             style="fill:#ed4792;fill-opacity:1;fill-rule:nonzero;stroke:none"
             d="M 0,0 C 0.075,0.117 0.234,0.136 0.366,0.15 0.816,0.18 1.265,0.1 1.699,-0.003 2.157,-0.119 2.614,-0.265 3.015,-0.506 3.148,-0.58 3.248,-0.693 3.333,-0.812 3.231,-1.049 2.924,-1.021 2.702,-1.034 2.12,-1.012 1.546,-0.883 1,-0.695 0.704,-0.588 0.406,-0.469 0.158,-0.28 0.074,-0.21 -0.031,-0.116 0,0" /></g><g
           id="g344"><g
             id="g346" /><g
             id="g358"><g
               style="opacity:0.53999299"
               id="g356"
               clip-path="url(#clipPath350)"><g
                 id="g354"
                 transform="translate(196.2279,109.0278)"><path
                   id="path352"
                   style="fill:#192112;fill-opacity:1;fill-rule:nonzero;stroke:none"
                   d="M 0,0 C 0.045,-0.098 -0.178,-0.063 -0.071,0 -0.053,0 -0.018,0 0,0" /></g></g></g></g><g
           id="g360"><g
             id="g362" /><g
             id="g374"><g
               style="opacity:0.38999903"
               id="g372"
               clip-path="url(#clipPath366)"><g
                 id="g370"
                 transform="translate(193.2373,108.5432)"><path
                   id="path368"
                   style="fill:#283719;fill-opacity:1;fill-rule:nonzero;stroke:none"
                   d="M 0,0 C -0.021,-0.073 -0.18,-0.011 -0.093,0.036 -0.069,0.027 -0.023,0.009 0,0" /></g></g></g></g><g
           transform="translate(183.1261,107.6664)"
           id="g376"><path
             id="path378"
             style="fill:#ed4792;fill-opacity:1;fill-rule:nonzero;stroke:none"
             d="M 0,0 C -0.205,0.119 -0.253,0.405 -0.506,0.461 -0.687,0.464 -0.823,0.336 -0.975,0.263 -1.145,0.168 -1.351,0.159 -1.542,0.19 c 0.13,-0.298 0.183,-0.617 0.266,-0.928 0.095,-0.305 0.21,-0.675 0.557,-0.802 0.228,-0.099 0.489,-0.003 0.66,0.152 0.267,0.242 0.432,0.562 0.591,0.873 0.054,0.11 0.108,0.22 0.162,0.33 C 0.45,-0.187 0.21,-0.115 0,0" /></g></g></g></g></svg>