<?xml version="1.0" encoding="UTF-8" standalone="no"?>
<svg
   xmlns:dc="http://purl.org/dc/elements/1.1/"
   xmlns:cc="http://creativecommons.org/ns#"
   xmlns:rdf="http://www.w3.org/1999/02/22-rdf-syntax-ns#"
   xmlns:svg="http://www.w3.org/2000/svg"
   xmlns="http://www.w3.org/2000/svg"
   viewBox="0 0 341.33334 341.33334"
   height="256"
   width="256"
   xml:space="preserve"
   id="svg2"
   version="1.1"><metadata
     id="metadata8"><rdf:RDF><cc:Work
         rdf:about=""><dc:format>image/svg+xml</dc:format><dc:type
           rdf:resource="http://purl.org/dc/dcmitype/StillImage" /></cc:Work></rdf:RDF></metadata><defs
     id="defs6"><clipPath
       id="clipPath18"
       clipPathUnits="userSpaceOnUse"><path
         id="path16"
         d="M 0,256 H 256 V 0 H 0 Z" /></clipPath><clipPath
       id="clipPath26"
       clipPathUnits="userSpaceOnUse"><path
         id="path24"
         d="M 3.99965,204 H 252 V 52 H 3.99965 Z" /></clipPath></defs><g
     transform="matrix(1.3333333,0,0,-1.3333333,0,341.33333)"
     id="g10"><g
       id="g12"><g
         clip-path="url(#clipPath18)"
         id="g14"><g
           id="g20"><g
             id="g22" /><g
             id="g34"><g
               style="opacity:0.5"
               id="g32"
               clip-path="url(#clipPath26)"><g
                 id="g30"
                 transform="translate(77.3714,204)"><path
                   id="path28"
                   style="fill:#ffffff;fill-opacity:1;fill-rule:nonzero;stroke:none"
                   d="m 0,0 c -7.538,0 -14.841,-0.884 -22.317,-2.703 -3.006,-0.527 -6.162,-0.678 -9.498,-0.836 -9.762,-0.465 -21.911,-1.042 -32.287,-12.739 -3.939,-4.439 -6.455,-12.229 -7.92,-24.516 -1.112,-9.326 -1.55,-21.009 -1.265,-33.787 0.483,-21.692 3.156,-47.879 8.037,-57.483 6.447,-12.683 15.081,-19.114 25.663,-19.114 l 0.198,0.001 c 15.704,0 26.121,-0.329 33.728,-0.569 4.496,-0.142 8.048,-0.254 11.221,-0.254 4.835,0 8.585,0.278 12.538,0.929 8.56,1.404 16.533,2.058 25.088,2.058 8.336,0 16.089,-0.627 24.297,-1.29 8.93,-0.722 18.164,-1.468 28.885,-1.468 14.719,0 29.174,1.402 45.491,4.411 13.457,2.482 31.492,7.849 32.75,25.729 0.013,0.187 0.02,0.374 0.02,0.561 v 92.114 c 0,0.074 -0.001,0.149 -0.003,0.223 -0.26,9.319 -3.749,15.69 -10.668,19.477 -5.445,2.981 -12.181,3.976 -21.505,5.353 -2.611,0.385 -5.309,0.784 -8.242,1.264 -9.799,1.607 -18.582,2.388 -26.854,2.388 -12.09,0 -20.957,-1.647 -29.533,-3.24 -7.546,-1.402 -14.673,-2.727 -23.569,-2.727 -9.191,0 -17.403,1.465 -26.097,3.016 C 19.335,-1.628 10.212,0 0,0" /></g></g></g></g><g
           transform="translate(19.2533,75.5611)"
           id="g36"><path
             id="path38"
             style="fill:#4b5da7;fill-opacity:1;fill-rule:nonzero;stroke:none"
             d="m 0,0 c 4.685,-9.217 10.529,-14.83 18.729,-14.738 37.458,0 44.949,-1.852 56.187,0 44.949,7.369 63.678,-7.369 123.61,3.684 20.197,3.725 25.65,10.306 26.221,18.423 v 92.114 c -0.432,15.519 -11.238,14.738 -33.712,18.423 -41.31,6.772 -52.441,-3.685 -78.662,-3.685 -26.22,0 -44.949,11.054 -74.915,3.685 C 24.415,115.528 11.237,119.518 0,106.852 -11.631,93.742 -7.492,14.738 0,0" /></g><g
           transform="translate(206.7102,169.2311)"
           id="g40"><path
             id="path42"
             style="fill:#404040;fill-opacity:1;fill-rule:nonzero;stroke:none"
             d="m 0,0 c -0.222,0.173 -0.477,0.293 -0.753,0.352 -26.565,5.744 -51.409,8.509 -73.779,8.415 -25.854,-0.188 -48.519,-4.594 -65.549,-12.742 -0.735,-0.351 -1.155,-1.139 -1.037,-1.946 0.14,-0.961 0.213,-1.986 0.213,-2.987 0,-11.221 -9.195,-20.349 -20.498,-20.349 -1.594,0 -3.177,0.18 -4.702,0.532 -0.899,0.207 -1.785,-0.256 -2.138,-1.086 -3.447,-8.142 -3.28,-16.783 0.487,-24.988 0.361,-0.789 1.221,-1.214 2.077,-1.047 1.346,0.284 2.786,0.426 4.276,0.426 11.303,0 20.498,-9.183 20.498,-20.466 0,-0.563 -0.053,-1.152 -0.109,-1.82 -0.067,-0.782 0.364,-1.519 1.077,-1.846 15.261,-7.006 37.411,-10.989 62.373,-11.218 0.355,0.066 0.791,0.124 1.115,0.36 2.601,1.897 4.217,2.369 8.237,2.406 4.127,-0.044 5.648,-0.876 8.152,-2.831 0.328,-0.258 0.732,-0.396 1.147,-0.396 0.047,0 0.091,0 0.138,0.003 15.497,1.149 35.027,4.448 58.051,9.808 0.189,0.047 0.371,0.12 0.538,0.218 7.88,4.746 12.415,22.569 13.292,37.126 C 14.325,-23.821 9.426,-7.344 0,0" /></g><g
           transform="translate(144,74)"
           id="g44"><path
             id="path46"
             style="fill:#eac500;fill-opacity:1;fill-rule:nonzero;stroke:none"
             d="m 0,0 c 0,-2.209 -2.686,-4 -6,-4 -3.314,0 -6,1.791 -6,4 0,2.209 2.686,4 6,4 3.314,0 6,-1.791 6,-4" /></g><g
           transform="translate(110.5714,76)"
           id="g48"><path
             id="path50"
             style="fill:#ecf0f1;fill-opacity:1;fill-rule:nonzero;stroke:none"
             d="m 0,0 h 6.857 c 1.42,0 2.572,-0.895 2.572,-2 0,-1.105 -1.152,-2 -2.572,-2 H 0 c -1.42,0 -2.571,0.895 -2.571,2 0,1.105 1.151,2 2.571,2" /></g><g
           transform="translate(90.5714,76)"
           id="g52"><path
             id="path54"
             style="fill:#ecf0f1;fill-opacity:1;fill-rule:nonzero;stroke:none"
             d="m 0,0 h 6.857 c 1.42,0 2.572,-0.895 2.572,-2 0,-1.105 -1.152,-2 -2.572,-2 H 0 c -1.42,0 -2.571,0.895 -2.571,2 0,1.105 1.151,2 2.571,2" /></g><g
           transform="translate(40.563,166.4715)"
           id="g56"><path
             id="path58"
             style="fill:#ecf0f1;fill-opacity:1;fill-rule:nonzero;stroke:none"
             d="m 0,0 c 0.363,-0.416 0.887,-0.652 1.437,-0.652 0.55,0 1.074,0.236 1.437,0.652 l 6.68,7.635 c 0.585,0.669 0.63,1.657 0.108,2.379 C 7.789,12.592 4.21,13.867 0.067,13.451 -2.65,13.168 -5.929,12.029 -6.984,9.673 -7.289,8.992 -7.17,8.196 -6.68,7.635 Z" /></g><g
           transform="translate(43.437,157.5313)"
           id="g60"><path
             id="path62"
             style="fill:#ecf0f1;fill-opacity:1;fill-rule:nonzero;stroke:none"
             d="m 0,0 c -0.727,0.831 -2.147,0.831 -2.874,0 l -6.68,-7.635 c -0.49,-0.561 -0.609,-1.357 -0.304,-2.038 1.055,-2.356 4.334,-3.495 7.051,-3.778 0.526,-0.054 1.042,-0.08 1.547,-0.08 3.47,0 6.412,1.265 8.048,3.517 0.522,0.722 0.477,1.71 -0.108,2.379 z" /></g><g
           transform="translate(38.1829,162.0014)"
           id="g64"><path
             id="path66"
             style="fill:#ecf0f1;fill-opacity:1;fill-rule:nonzero;stroke:none"
             d="m 0,0 c 0,0.55 -0.237,1.074 -0.652,1.437 l -7.635,6.681 c -0.672,0.589 -1.658,0.626 -2.378,0.108 -2.579,-1.875 -3.865,-5.462 -3.437,-9.596 0.284,-2.718 1.422,-5.997 3.778,-7.052 0.252,-0.114 0.517,-0.168 0.781,-0.168 0.453,0 0.902,0.162 1.256,0.472 l 7.635,6.681 C -0.237,-1.074 0,-0.55 0,0" /></g><g
           transform="translate(59.9188,163.3715)"
           id="g68"><path
             id="path70"
             style="fill:#ecf0f1;fill-opacity:1;fill-rule:nonzero;stroke:none"
             d="M 0,0 C -0.283,2.718 -1.422,5.997 -3.778,7.052 -4.46,7.363 -5.256,7.24 -5.815,6.748 l -7.634,-6.681 c -0.416,-0.363 -0.653,-0.887 -0.653,-1.437 0,-0.55 0.237,-1.074 0.653,-1.437 l 7.634,-6.681 c 0.358,-0.313 0.807,-0.472 1.256,-0.472 0.393,0 0.787,0.121 1.122,0.364 C -0.857,-7.721 0.429,-4.135 0,0" /></g><g
           transform="translate(40.5629,94.4744)"
           id="g72"><path
             id="path74"
             style="fill:#ecf0f1;fill-opacity:1;fill-rule:nonzero;stroke:none"
             d="m 0,0 c 0.363,-0.414 0.887,-0.653 1.437,-0.653 0.55,0 1.074,0.239 1.437,0.653 l 6.68,7.637 c 0.586,0.671 0.63,1.656 0.108,2.379 -1.875,2.577 -5.465,3.833 -9.591,3.438 -2.72,-0.283 -6,-1.424 -7.055,-3.781 C -7.29,8.994 -7.17,8.196 -6.68,7.637 Z" /></g><g
           transform="translate(43.437,85.5324)"
           id="g76"><path
             id="path78"
             style="fill:#ecf0f1;fill-opacity:1;fill-rule:nonzero;stroke:none"
             d="m 0,0 c -0.727,0.828 -2.147,0.828 -2.874,0 l -6.68,-7.637 c -0.49,-0.559 -0.61,-1.357 -0.304,-2.036 1.055,-2.357 4.335,-3.498 7.055,-3.781 0.524,-0.052 1.04,-0.078 1.545,-0.078 3.469,0 6.41,1.264 8.046,3.516 0.522,0.723 0.477,1.708 -0.108,2.379 z" /></g><g
           transform="translate(38.1828,90.0034)"
           id="g80"><path
             id="path82"
             style="fill:#ecf0f1;fill-opacity:1;fill-rule:nonzero;stroke:none"
             d="m 0,0 c 0,0.552 -0.237,1.074 -0.652,1.436 l -7.635,6.682 c -0.673,0.589 -1.659,0.634 -2.378,0.108 -2.58,-1.872 -3.864,-5.459 -3.437,-9.591 0.281,-2.718 1.422,-6 3.778,-7.059 0.25,-0.112 0.516,-0.168 0.781,-0.168 0.453,0 0.902,0.161 1.256,0.474 l 7.635,6.682 C -0.237,-1.074 0,-0.552 0,0" /></g><g
           transform="translate(59.9193,91.3682)"
           id="g84"><path
             id="path86"
             style="fill:#ecf0f1;fill-opacity:1;fill-rule:nonzero;stroke:none"
             d="M 0,0 C -0.281,2.718 -1.422,6 -3.778,7.059 -4.455,7.361 -5.256,7.253 -5.815,6.753 L -13.45,0.071 c -0.415,-0.362 -0.652,-0.884 -0.652,-1.436 0,-0.552 0.237,-1.074 0.652,-1.435 l 7.635,-6.683 c 0.358,-0.313 0.807,-0.473 1.256,-0.473 0.393,0 0.786,0.119 1.122,0.365 C -0.857,-7.719 0.427,-4.132 0,0" /></g><g
           transform="translate(219.437,89.5324)"
           id="g88"><path
             id="path90"
             style="fill:#ecf0f1;fill-opacity:1;fill-rule:nonzero;stroke:none"
             d="m 0,0 c -0.727,0.828 -2.147,0.828 -2.874,0 l -6.68,-7.637 c -0.49,-0.559 -0.61,-1.357 -0.304,-2.036 1.055,-2.357 4.335,-3.498 7.055,-3.781 0.524,-0.052 1.04,-0.078 1.545,-0.078 3.469,0 6.41,1.264 8.046,3.516 0.522,0.723 0.477,1.708 -0.108,2.379 z" /></g><g
           transform="translate(235.9193,95.3682)"
           id="g92"><path
             id="path94"
             style="fill:#ecf0f1;fill-opacity:1;fill-rule:nonzero;stroke:none"
             d="M 0,0 C -0.281,2.718 -1.422,6 -3.778,7.059 -4.455,7.361 -5.256,7.253 -5.815,6.753 L -13.45,0.071 c -0.415,-0.362 -0.652,-0.884 -0.652,-1.436 0,-0.552 0.237,-1.074 0.652,-1.435 l 7.635,-6.683 c 0.358,-0.313 0.807,-0.473 1.256,-0.473 0.393,0 0.786,0.119 1.122,0.365 C -0.857,-7.719 0.427,-4.132 0,0" /></g><g
           transform="translate(243.0659,174)"
           id="g96"><path
             id="path98"
             style="fill:#333e70;fill-opacity:1;fill-rule:nonzero;stroke:none"
             d="m 0,0 h -19.691 -8.441 c -0.516,0 -0.934,-0.446 -0.934,-0.996 v -0.008 c 0,-0.55 0.418,-0.996 0.934,-0.996 H -19.691 0 0.934 v 0.996 0.008 l 0,0.996 z" /></g><g
           transform="translate(223.4666,170)"
           id="g100"><path
             id="path102"
             style="fill:#333e70;fill-opacity:1;fill-rule:nonzero;stroke:none"
             d="M 0,0 H -6.592 C -7.075,0 -7.467,-0.42 -7.467,-0.937 V -1.063 C -7.467,-1.58 -7.075,-2 -6.592,-2 H 0 19.658 20.533 V -1.063 -0.937 0 l -0.875,0 z" /></g><g
           transform="translate(223.5715,166)"
           id="g104"><path
             id="path106"
             style="fill:#333e70;fill-opacity:1;fill-rule:nonzero;stroke:none"
             d="M 0,0 H -4.846 C -5.247,0 -5.572,-0.35 -5.572,-0.781 V -1.219 C -5.572,-1.65 -5.247,-2 -4.846,-2 H 0 19.703 20.428 V -1.219 -0.781 0 l -0.725,0 z" /></g><g
           transform="translate(223.6924,162)"
           id="g108"><path
             id="path110"
             style="fill:#333e70;fill-opacity:1;fill-rule:nonzero;stroke:none"
             d="m 0,0 h -2.772 c -0.509,0 -0.92,-0.446 -0.92,-0.996 v -0.008 c 0,-0.55 0.411,-0.996 0.92,-0.996 H 0 19.388 20.308 V -1.004 -0.996 0 h -0.92 z" /></g><g
           transform="translate(223.8334,158)"
           id="g112"><path
             id="path114"
             style="fill:#333e70;fill-opacity:1;fill-rule:nonzero;stroke:none"
             d="M 0,0 H -0.92 C -1.424,0 -1.833,-0.446 -1.833,-0.997 V -1.004 C -1.833,-1.554 -1.424,-2 -0.92,-2 H 0 19.253 20.167 V -1.004 -0.997 0 h -0.914 z" /></g><path
           id="path116"
           style="fill:#8c8c8c;fill-opacity:1;fill-rule:nonzero;stroke:none"
           d="M 84,164 H 192 V 96 H 84 Z" /><g
           transform="translate(65.7504,131.9661)"
           id="g118"><path
             id="path120"
             style="fill:#ffffff;fill-opacity:1;fill-rule:nonzero;stroke:none"
             d="m 0,0 c -0.227,-0.215 -0.416,-0.408 -0.622,-0.579 -0.06,-0.049 -0.169,-0.045 -0.256,-0.046 -0.494,-0.006 -0.989,-0.004 -1.484,-0.007 -0.392,-0.001 -0.659,-0.314 -0.627,-0.725 0.016,-0.209 0.143,-0.262 0.318,-0.261 0.429,0.004 0.859,0.007 1.289,0.01 0.572,0.003 0.841,-0.325 0.723,-0.905 -0.085,-0.42 -0.187,-0.837 -0.524,-1.136 -0.211,-0.187 -0.444,-0.31 -0.726,-0.311 -1.605,-0.003 -3.211,-0.004 -4.817,-0.006 -0.028,0 -0.057,0.007 -0.122,0.016 0.296,0.308 0.522,0.585 0.99,0.568 1.051,-0.04 2.105,0.008 3.158,-0.004 0.468,-0.005 0.621,0.268 0.657,0.72 0.016,0.219 -0.137,0.283 -0.322,0.281 -0.422,-0.002 -0.843,-0.002 -1.265,-0.005 -0.564,-0.005 -0.814,0.268 -0.735,0.845 0.08,0.582 0.245,1.126 0.831,1.383 0.131,0.058 0.279,0.098 0.421,0.103 C -2.117,-0.024 -1.12,0 -0.124,0.027 -0.101,0.027 -0.078,0.017 0,0" /></g><g
           transform="translate(69.2483,130.5945)"
           id="g122"><path
             id="path124"
             style="fill:#ffffff;fill-opacity:1;fill-rule:nonzero;stroke:none"
             d="m 0,0 c -0.203,-0.744 -0.4,-1.464 -0.61,-2.235 0.152,0.029 0.335,0.032 0.492,0.1 0.319,0.138 0.546,0.367 0.583,0.757 0.016,0.165 0.078,0.325 0.116,0.488 0.137,0.582 0.442,0.848 1.031,0.888 C 1.756,0.008 1.901,0 2.075,0 1.952,-0.484 1.817,-0.949 1.72,-1.422 1.66,-1.714 1.544,-1.923 1.274,-2.053 1.092,-2.14 0.928,-2.27 0.762,-2.389 0.569,-2.526 0.37,-2.59 0.128,-2.588 c -1.28,0.008 -2.561,-0.002 -3.841,-0.006 -0.087,-0.001 -0.174,0 -0.302,0 0.084,0.358 0.158,0.681 0.236,1.003 0.049,0.203 0.097,0.408 0.163,0.606 0.071,0.216 0.111,0.477 0.254,0.625 0.335,0.345 0.78,0.401 1.26,0.344 -0.185,-0.728 -0.367,-1.444 -0.563,-2.215 0.163,0.015 0.289,-0.008 0.376,0.042 0.285,0.163 0.6,0.302 0.634,0.719 0.015,0.181 0.088,0.357 0.135,0.535 0.177,0.665 0.477,0.909 1.149,0.934 C -0.259,0.004 -0.148,0 0,0" /></g><g
           transform="translate(75.7341,130.5894)"
           id="g126"><path
             id="path128"
             style="fill:#ffffff;fill-opacity:1;fill-rule:nonzero;stroke:none"
             d="m 0,0 c -0.152,-0.595 -0.294,-1.154 -0.436,-1.712 -0.044,-0.171 -0.112,-0.339 -0.129,-0.512 -0.027,-0.283 -0.175,-0.359 -0.423,-0.349 -0.315,0.012 -0.63,0.003 -0.989,0.003 0.185,0.725 0.361,1.416 0.538,2.108 -0.715,0.193 -1.434,-0.118 -1.561,-0.79 -0.136,-0.723 0.011,-0.945 0.743,-0.957 0.046,0 0.092,-0.008 0.174,-0.016 -0.205,-0.221 -0.389,-0.394 -0.68,-0.36 -0.383,0.044 -0.781,0.033 -1.147,0.14 -0.434,0.128 -0.579,0.511 -0.458,0.967 0.27,1.022 0.785,1.425 1.82,1.437 0.729,0.008 1.459,0.027 2.188,0.041 0.105,0.002 0.21,0 0.36,0" /></g><g
           transform="translate(78.2349,128.0347)"
           id="g130"><path
             id="path132"
             style="fill:#ffffff;fill-opacity:1;fill-rule:nonzero;stroke:none"
             d="M 0,0 C 0.131,0.519 0.255,1.03 0.39,1.538 0.515,2.01 0.415,2.153 -0.068,2.149 -0.309,2.146 -0.61,2.209 -0.771,2.085 -0.921,1.97 -0.922,1.645 -0.987,1.412 -1.005,1.348 -1.026,1.282 -1.03,1.216 -1.067,0.679 -1.396,0.341 -1.771,0.034 -1.808,0.004 -1.855,-0.03 -1.899,-0.031 c -0.24,-0.006 -0.481,-0.003 -0.755,-0.003 0.104,0.427 0.196,0.816 0.295,1.203 0.101,0.398 0.216,0.792 0.309,1.192 0.034,0.146 0.1,0.182 0.235,0.181 C -0.89,2.531 0.034,2.532 0.959,2.519 1.11,2.517 1.271,2.49 1.407,2.428 1.714,2.288 1.819,2.044 1.74,1.707 1.618,1.193 1.492,0.68 1.358,0.169 1.34,0.104 1.265,0.009 1.214,0.007 0.82,-0.006 0.425,0 0,0" /></g><g
           transform="translate(57.8331,130.1651)"
           id="g134"><path
             id="path136"
             style="fill:#ffffff;fill-opacity:1;fill-rule:nonzero;stroke:none"
             d="m 0,0 c -0.081,0 -0.177,0.03 -0.24,-0.005 -0.255,-0.143 -0.594,-0.248 -0.726,-0.476 -0.183,-0.317 -0.216,-0.731 -0.296,-1.107 -0.012,-0.057 0.062,-0.181 0.117,-0.198 0.592,-0.18 1.224,0.2 1.381,0.818 0.041,0.162 0.08,0.324 0.12,0.487 C 0.477,0.001 0.477,0 0,0 m -1.004,-2.161 c -0.365,0 -0.73,-0.006 -1.095,10e-4 -0.441,0.009 -0.591,0.216 -0.482,0.647 0.08,0.317 0.152,0.637 0.247,0.949 0.031,0.099 0.11,0.201 0.194,0.26 0.262,0.183 0.529,0.362 0.809,0.511 0.157,0.084 0.344,0.148 0.518,0.153 0.673,0.017 1.347,0.012 2.02,0.007 C 1.693,0.363 1.827,0.175 1.711,-0.318 1.67,-0.49 1.604,-0.658 1.587,-0.831 1.545,-1.254 1.341,-1.536 0.973,-1.714 0.798,-1.799 0.646,-1.937 0.47,-2.018 0.313,-2.089 0.139,-2.143 -0.031,-2.154 -0.354,-2.175 -0.68,-2.16 -1.004,-2.16 Z" /></g><g
           transform="translate(46.3504,129.3513)"
           id="g138"><path
             id="path140"
             style="fill:#ffffff;fill-opacity:1;fill-rule:nonzero;stroke:none"
             d="M 0,0 C 0.214,0 0.43,0.021 0.641,-0.005 1.008,-0.05 1.281,0.146 1.538,0.357 1.625,0.429 1.631,0.606 1.674,0.735 1.582,0.767 1.491,0.82 1.397,0.826 1.204,0.84 1.009,0.833 0.816,0.828 0.413,0.817 0.025,0.441 0,0 M 1.672,-0.969 C 1.431,-1.22 1.183,-1.365 0.846,-1.35 c -0.599,0.027 -1.199,-10e-4 -1.798,0.003 -0.127,10e-4 -0.26,0.022 -0.38,0.064 -0.183,0.065 -0.278,0.217 -0.234,0.415 0.088,0.401 0.191,0.798 0.299,1.194 0.017,0.064 0.077,0.126 0.133,0.166 0.139,0.101 0.301,0.171 0.428,0.284 0.452,0.402 0.979,0.452 1.543,0.419 C 1.33,1.167 1.825,1.204 2.319,1.185 2.736,1.169 2.895,0.894 2.737,0.498 2.71,0.427 2.648,0.359 2.586,0.317 2.273,0.108 1.958,-0.098 1.636,-0.292 1.551,-0.343 1.44,-0.366 1.34,-0.368 0.911,-0.376 0.481,-0.369 0.052,-0.373 -0.124,-0.374 -0.244,-0.56 -0.236,-0.805 c 0.006,-0.199 0.15,-0.163 0.266,-0.164 0.547,-0.001 1.094,0 1.642,0" /></g><g
           transform="translate(50.9623,128.0033)"
           id="g142"><path
             id="path144"
             style="fill:#ffffff;fill-opacity:1;fill-rule:nonzero;stroke:none"
             d="m 0,0 c 0.144,0.575 0.271,1.112 0.418,1.644 0.025,0.091 0.12,0.176 0.203,0.233 0.264,0.18 0.531,0.357 0.809,0.512 0.13,0.072 0.288,0.123 0.434,0.126 0.6,0.015 1.2,0.009 1.8,0.007 C 3.943,2.521 4.197,2.449 4.361,2.19 4.502,1.967 4.438,1.801 4.242,1.641 3.875,1.342 3.467,1.365 3.022,1.401 3.048,1.514 3.071,1.61 3.094,1.706 3.149,1.948 3.077,2.075 2.848,2.138 2.364,2.271 1.793,1.921 1.671,1.42 1.573,1.013 1.462,0.609 1.369,0.201 1.335,0.052 1.273,-0.007 1.122,-0.003 0.758,0.007 0.394,0 0,0" /></g><g
           transform="translate(43.5887,131.2864)"
           id="g146"><path
             id="path148"
             style="fill:#ffffff;fill-opacity:1;fill-rule:nonzero;stroke:none"
             d="m 0,0 c -0.074,-0.31 -0.149,-0.62 -0.237,-0.926 -0.023,-0.081 -0.08,-0.165 -0.143,-0.22 -0.314,-0.269 -0.674,-0.376 -1.084,-0.324 -0.179,0.022 -0.244,0.078 -0.189,0.273 0.12,0.427 0.235,0.857 0.332,1.29 0.039,0.172 0.105,0.247 0.277,0.231 0.137,-0.012 0.276,-0.002 0.414,-0.002 0,0.004 0,0.009 0,0.013 0.13,0 0.26,0.002 0.389,0 C 0.039,0.329 0.069,0.29 0,0 m 0.638,-1.335 c 0.288,0.154 0.483,0.369 0.53,0.721 C 1.196,-0.399 1.266,-0.19 1.323,0.02 1.442,0.46 1.297,0.696 0.854,0.702 0.026,0.715 -0.802,0.715 -1.629,0.712 -1.694,0.714 -1.758,0.714 -1.821,0.711 -1.992,0.71 -2.163,0.709 -2.335,0.709 -2.398,0.708 -2.501,0.629 -2.517,0.567 -2.526,0.534 -2.646,0.382 -2.694,0.33 -2.773,0.245 -2.858,0.143 -2.883,0.034 -3.048,-0.677 -3.198,-1.391 -3.35,-2.105 -3.432,-2.488 -3.507,-2.872 -3.589,-3.27 c 0.074,-0.007 0.121,-0.016 0.168,-0.016 0.381,0 0.762,0 1.143,0 10e-4,0.002 0.137,0.711 0.304,1.545 0.22,-0.01 0.45,-0.021 0.661,-0.04 0.383,-0.406 1.404,-1.446 1.404,-1.446 H 1.18 l -1.372,1.423 c 0.168,0.049 0.326,0.137 0.478,0.245 0.114,0.08 0.23,0.158 0.352,0.224" /></g><g
           transform="translate(52.2543,131.3754)"
           id="g150"><path
             id="path152"
             style="fill:#ffffff;fill-opacity:1;fill-rule:nonzero;stroke:none"
             d="m 0,0 h -1.052 c 0.055,0.252 0.103,0.465 0.14,0.612 C -1.392,0.656 -1.816,0.601 -2.15,0.241 -2.215,0.171 -2.284,0.088 -2.32,0 H -3.226 C -3.261,0 -3.293,-0.019 -3.31,-0.051 l -0.199,-0.358 c -0.037,-0.067 0.01,-0.151 0.084,-0.151 h 0.972 c -0.121,-0.544 -0.236,-1.089 -0.352,-1.634 -0.082,-0.383 -0.158,-0.767 -0.239,-1.165 0.074,-0.007 0.121,-0.016 0.168,-0.016 0.381,0 0.762,0 1.143,0 0,0.004 0.307,1.592 0.562,2.815 h 0.972 c 0.035,0 0.067,0.019 0.085,0.05 l 0.198,0.359 C 0.122,-0.084 0.075,0 0,0" /></g><g
           transform="translate(50.7572,120.1559)"
           id="g154"><path
             id="path156"
             style="fill:#ffffff;fill-opacity:1;fill-rule:nonzero;stroke:none"
             d="m 0,0 c -0.561,-0.003 -1.107,0.082 -1.612,0.352 -0.429,0.229 -0.769,0.566 -0.971,1.04 -0.131,0.308 -0.174,0.633 -0.174,0.969 -0.002,1.014 0.412,1.8 1.151,2.41 C -0.842,5.402 0.029,5.729 0.99,5.805 1.722,5.862 2.446,5.795 3.168,5.673 3.222,5.664 3.288,5.669 3.262,5.569 3.115,5 3.013,4.418 2.84,3.855 2.802,3.729 2.747,3.609 2.664,3.507 2.563,3.382 2.413,3.337 2.269,3.388 2.123,3.439 2.069,3.559 2.059,3.71 2.046,3.899 2.063,4.089 2.029,4.277 1.974,4.577 1.862,4.838 1.576,4.958 1.304,5.072 1.027,5.065 0.753,4.955 0.447,4.832 0.198,4.623 -0.03,4.379 -0.382,4.002 -0.682,3.588 -0.855,3.083 -0.963,2.77 -0.999,2.448 -0.994,2.113 -0.989,1.8 -0.913,1.52 -0.752,1.263 -0.623,1.058 -0.443,0.924 -0.221,0.847 0.3,0.667 0.773,0.806 1.229,1.077 1.463,1.216 1.681,1.378 1.886,1.561 2.002,1.663 2.133,1.728 2.288,1.698 2.44,1.668 2.57,1.6 2.616,1.43 2.662,1.261 2.629,1.105 2.512,0.978 2.354,0.807 2.167,0.674 1.971,0.557 1.359,0.193 0.703,0.001 0,0" /></g><g
           transform="translate(55.7223,120.0028)"
           id="g158"><path
             id="path160"
             style="fill:#ffffff;fill-opacity:1;fill-rule:nonzero;stroke:none"
             d="m 0,0 c -0.241,-0.015 -0.52,0.032 -0.784,0.13 -0.478,0.177 -0.869,0.482 -1.072,0.999 -0.09,0.23 -0.105,0.476 -0.081,0.725 0.056,0.589 0.321,1.062 0.702,1.475 0.212,0.231 0.445,0.432 0.71,0.591 0.238,0.142 0.49,0.234 0.762,0.253 C 0.336,4.18 0.435,4.163 0.527,4.121 0.671,4.054 0.708,3.933 0.644,3.778 0.588,3.644 0.487,3.545 0.416,3.423 0.311,3.24 0.182,3.072 0.083,2.886 -0.144,2.456 -0.302,2.001 -0.226,1.496 -0.181,1.196 -0.078,0.919 0.204,0.772 0.43,0.655 0.658,0.673 0.883,0.774 1.233,0.932 1.397,1.257 1.52,1.608 1.642,1.96 1.653,2.328 1.592,2.694 1.542,2.997 1.393,3.224 1.094,3.305 1.04,3.319 0.987,3.312 0.935,3.321 0.906,3.326 0.862,3.311 0.852,3.351 0.843,3.388 0.881,3.41 0.906,3.43 0.947,3.464 0.993,3.494 1.038,3.525 1.557,3.875 2.111,3.986 2.713,3.815 2.943,3.749 3.061,3.575 3.165,3.37 3.365,2.973 3.349,2.555 3.261,2.136 3.212,1.906 3.106,1.698 2.983,1.498 2.826,1.24 2.623,1.031 2.399,0.846 2.101,0.601 1.775,0.403 1.422,0.265 0.978,0.091 0.518,-0.002 0,0" /></g><g
           transform="translate(65.8308,120.5466)"
           id="g162"><path
             id="path164"
             style="fill:#ffffff;fill-opacity:1;fill-rule:nonzero;stroke:none"
             d="M 0,0 C 0.005,0.008 0.026,0.012 0.007,0.027 0.005,0.017 0.003,0.008 0.001,-0.001 -0.001,-0.004 -0.003,-0.007 -0.005,-0.01 -0.003,-0.006 -0.002,-0.003 0,0 m -3.143,2.709 c 10e-4,0.005 0.002,0.009 0.004,0.014 0.015,0.005 0.022,0.015 0.022,0.031 0.217,0.249 0.472,0.449 0.747,0.614 0.291,0.175 0.607,0.293 0.947,0.227 C -1.16,3.544 -1.124,3.327 -1.3,3.102 -1.469,2.884 -1.578,2.626 -1.745,2.414 -1.834,2.3 -1.865,2.169 -1.923,2.048 -2.047,1.793 -2.098,1.512 -2.13,1.23 -2.141,1.137 -2.097,1.041 -2.105,0.943 -2.114,0.931 -2.118,0.918 -2.104,0.91 -2.1,0.907 -2.09,0.917 -2.082,0.921 c 0.006,-0.208 0.09,-0.381 0.209,-0.539 0.035,-0.046 0.068,-0.1 0.112,-0.133 0.085,-0.062 0.187,-0.094 0.287,-0.11 0.413,-0.07 0.775,0.153 0.984,0.554 0.069,0.133 0.138,0.264 0.189,0.407 0.03,0.083 0.046,0.172 0.057,0.254 0.041,0.304 0.054,0.612 -0.036,0.913 -0.088,0.294 -0.272,0.464 -0.558,0.509 -0.056,0.009 -0.112,0.018 -0.176,0.028 0.134,0.148 0.301,0.232 0.466,0.317 0.337,0.173 0.695,0.243 1.067,0.21 C 0.736,3.311 0.959,3.272 1.122,3.099 1.25,2.964 1.335,2.79 1.39,2.607 1.516,2.179 1.475,1.755 1.322,1.347 1.184,0.979 0.954,0.674 0.669,0.417 0.508,0.273 0.344,0.133 0.151,0.037 0.053,0.129 0.067,0.004 0.035,-0.031 0.028,-0.033 0.024,-0.037 0.021,-0.044 0.013,-0.053 0.005,-0.061 -0.002,-0.07 c -0.303,-0.153 -0.612,-0.286 -0.941,-0.362 -0.309,-0.071 -0.62,-0.11 -0.936,-0.103 -0.264,0.007 -0.525,0.032 -0.775,0.129 -0.091,0.036 -0.197,0.046 -0.259,0.15 -0.026,0.044 -0.094,0.015 -0.134,0.051 -0.118,0.105 -0.266,0.168 -0.365,0.3 -0.027,0.036 -0.053,0.077 -0.099,0.092 -0.115,0.205 -0.216,0.417 -0.288,0.643 0.051,0.044 0.003,0.092 0,0.135 -0.018,0.355 0.044,0.695 0.18,1.014 0.087,0.206 0.198,0.402 0.351,0.565 0.028,-10e-4 0.048,-0.011 0.069,-0.037 0.03,-0.038 0.076,-0.003 0.083,0.02 0.009,0.032 0.089,0.022 0.045,0.056 -0.047,0.036 -0.03,0.097 -0.072,0.126" /></g><g
           transform="translate(69.1958,122.5604)"
           id="g166"><path
             id="path168"
             style="fill:#ffffff;fill-opacity:1;fill-rule:nonzero;stroke:none"
             d="M 0,0 C 0.081,0.044 0.116,0.098 0.151,0.148 0.379,0.467 0.667,0.713 0.976,0.936 1.226,1.117 1.493,1.252 1.777,1.358 2.091,1.475 2.416,1.489 2.744,1.481 2.824,1.479 2.805,1.426 2.794,1.379 2.742,1.16 2.686,0.941 2.636,0.722 2.549,0.342 2.473,-0.041 2.361,-0.414 2.33,-0.515 2.288,-0.608 2.219,-0.689 2.138,-0.785 2.042,-0.829 1.925,-0.803 1.814,-0.777 1.743,-0.692 1.701,-0.582 1.675,-0.512 1.652,-0.442 1.629,-0.371 1.58,-0.217 1.463,-0.165 1.327,-0.15 1.012,-0.117 0.769,-0.272 0.549,-0.489 0.295,-0.739 0.074,-1.014 -0.113,-1.326 -0.297,-1.632 -0.436,-1.957 -0.549,-2.298 -0.571,-2.366 -0.6,-2.403 -0.677,-2.4 c -0.181,0.006 -0.362,0.003 -0.543,0 -0.418,-0.007 -0.699,0.334 -0.582,0.81 0.17,0.686 0.336,1.375 0.488,2.066 0.102,0.46 0.444,0.785 0.792,0.85 0.244,0.045 0.471,0.028 0.661,-0.174 C 0.225,1.062 0.255,0.96 0.227,0.845 0.173,0.621 0.108,0.399 0.048,0.176 0.034,0.126 0.021,0.076 0,0" /></g><g
           transform="translate(62.0317,121.377)"
           id="g170"><path
             id="path172"
             style="fill:#ffffff;fill-opacity:1;fill-rule:nonzero;stroke:none"
             d="m 0,0 c 0.072,-0.227 0.173,-0.439 0.288,-0.643 -0.377,-0.23 -0.754,-0.461 -1.19,-0.539 -0.432,-0.077 -0.852,-0.053 -1.241,0.188 -0.419,0.261 -0.551,0.673 -0.544,1.165 0.007,0.416 0.13,0.804 0.235,1.197 0.217,0.812 0.438,1.623 0.661,2.433 0.116,0.423 0.373,0.702 0.78,0.802 0.44,0.107 0.77,-0.226 0.67,-0.693 C -0.466,3.327 -0.621,2.752 -0.762,2.173 -0.889,1.649 -1.019,1.125 -1.14,0.599 -1.193,0.371 -1.218,0.137 -1.193,-0.1 c 0.035,-0.339 0.256,-0.478 0.553,-0.347 0.207,0.092 0.377,0.242 0.552,0.384 C -0.06,-0.041 -0.029,-0.021 0,0" /></g><g
           transform="translate(65.8661,120.5152)"
           id="g174"><path
             id="path176"
             style="fill:#ffffff;fill-opacity:1;fill-rule:nonzero;stroke:none"
             d="M 0,0 C 0.032,0.036 0.018,0.16 0.116,0.068 0.087,0.027 0.053,-0.006 0,0" /></g><g
           transform="translate(65.8286,120.4767)"
           id="g178"><path
             id="path180"
             style="fill:#ffffff;fill-opacity:1;fill-rule:nonzero;stroke:none"
             d="M 0,0 C 0.008,0.009 0.015,0.017 0.023,0.026 0.015,0.017 0.008,0.009 0,0" /></g><g
           transform="translate(65.8321,120.5452)"
           id="g182"><path
             id="path184"
             style="fill:#ffffff;fill-opacity:1;fill-rule:nonzero;stroke:none"
             d="M 0,0 C 0.002,0.009 0.004,0.019 0.006,0.028 0.025,0.013 0.004,0.009 -0.001,0.001 Z" /></g><g
           transform="translate(63.7485,121.4677)"
           id="g186"><path
             id="path188"
             style="fill:#ffffff;fill-opacity:1;fill-rule:nonzero;stroke:none"
             d="M 0,0 C -0.007,-0.004 -0.018,-0.014 -0.022,-0.012 -0.036,-0.003 -0.031,0.01 -0.023,0.022 -0.015,0.014 -0.008,0.007 0,0" /></g><g
           transform="translate(65.8308,120.5466)"
           id="g190"><path
             id="path192"
             style="fill:#ffffff;fill-opacity:1;fill-rule:nonzero;stroke:none"
             d="m 0,0 c -0.002,-0.003 -0.003,-0.006 -0.005,-0.01 0.002,0.003 0.004,0.006 0.006,0.009 z" /></g></g></g></g></svg>