<?xml version="1.0" encoding="UTF-8" standalone="no"?>
<svg
   xmlns:dc="http://purl.org/dc/elements/1.1/"
   xmlns:cc="http://creativecommons.org/ns#"
   xmlns:rdf="http://www.w3.org/1999/02/22-rdf-syntax-ns#"
   xmlns:svg="http://www.w3.org/2000/svg"
   xmlns="http://www.w3.org/2000/svg"
   viewBox="0 0 330.66711 192"
   height="192"
   width="330.66711"
   xml:space="preserve"
   id="svg2"
   version="1.1"><metadata
     id="metadata8"><rdf:RDF><cc:Work
         rdf:about=""><dc:format>image/svg+xml</dc:format><dc:type
           rdf:resource="http://purl.org/dc/dcmitype/StillImage" /></cc:Work></rdf:RDF></metadata><defs
     id="defs6"><clipPath
       id="clipPath18"
       clipPathUnits="userSpaceOnUse"><path
         id="path16"
         d="M 0,256 H 256 V 0 H 0 Z" /></clipPath><clipPath
       id="clipPath26"
       clipPathUnits="userSpaceOnUse"><path
         id="path24"
         d="M 3.99965,200 H 252 V 56 H 3.99965 Z" /></clipPath></defs><g
     transform="matrix(1.3333333,0,0,-1.3333333,-5.3328665,266.66666)"
     id="g10"><g
       id="g12"><g
         clip-path="url(#clipPath18)"
         id="g14"><g
           id="g20"><g
             id="g22" /><g
             id="g34"><g
               style="opacity:0.5"
               id="g32"
               clip-path="url(#clipPath26)"><g
                 id="g30"
                 transform="translate(196.0671,200)"><path
                   id="path28"
                   style="fill:#ffffff;fill-opacity:1;fill-rule:nonzero;stroke:none"
                   d="m 0,0 h -128.628 c -12.282,0 -21.735,-0.495 -30.649,-1.604 -6.166,-0.768 -15.302,-2.805 -23.416,-11.599 -3.993,-4.327 -6.542,-11.896 -8.02,-23.818 -1.116,-8.996 -1.555,-20.26 -1.27,-32.574 0.485,-20.923 3.176,-46.202 8.097,-55.509 0.566,-1.071 1.152,-2.104 1.741,-3.072 4.997,-8.207 14.415,-13.306 24.578,-13.306 h 32.772 c 6.386,0 12.715,-0.219 18.814,-0.651 9.287,-0.658 26.311,-1.516 54.667,-1.866 0.031,-0.001 0.062,-0.001 0.093,-0.001 h 0.837 c 5.713,0 34.726,0.026 44.814,0.536 0.055,0.002 0.11,0.006 0.166,0.01 9.355,0.668 18.682,1.841 28.513,3.584 10.99,1.949 18.588,4.738 23.91,8.778 5.414,4.109 8.405,9.569 8.893,16.229 0.014,0.194 0.021,0.389 0.021,0.583 v 88.567 c 0,0.077 -10e-4,0.154 -0.003,0.231 C 55.372,-6.249 40.199,-3.85 30.159,-2.262 20.665,-0.761 10.518,0 0,0" /></g></g></g></g><g
           transform="translate(224.9762,189.836)"
           id="g36"><path
             id="path38"
             style="fill:#333333;fill-opacity:1;fill-rule:nonzero;stroke:none"
             d="m 0,0 c -9.549,1.51 -19.228,2.164 -28.909,2.164 h -128.628 c -9.909,0 -19.836,-0.32 -29.661,-1.543 -6.498,-0.809 -12.766,-2.844 -18.525,-9.085 -11.631,-12.606 -7.492,-88.566 0,-102.737 0.488,-0.922 0.988,-1.806 1.502,-2.651 3.623,-5.951 10.484,-9.466 17.745,-9.466 h 32.772 c 6.472,0 12.925,-0.213 19.379,-0.671 8.736,-0.619 25.608,-1.494 54.2,-1.847 2.395,-0.001 34.66,-0.009 45.242,0.525 8.249,0.59 17.311,1.642 27.686,3.482 20.197,3.582 25.65,9.909 26.221,17.713 v 88.567 C 18.7,-4.358 12.541,-1.983 0,0" /></g><g
           transform="translate(200.2801,172.0587)"
           id="g40"><path
             id="path42"
             style="fill:#d8d8dc;fill-opacity:1;fill-rule:nonzero;stroke:none"
             d="m 0,0 c -0.82,2.66 -3.172,4.694 -6.08,5.327 -16.519,3.596 -70.705,8.263 -114.825,6.035 -2.808,-0.142 -4.946,-2.456 -5.903,-4.913 -4.764,-12.239 -16.94,-51.286 -0.271,-97.397 1.114,-3.079 4.301,-5.111 7.808,-5.111 h 2.119 v 7.93 c 0,1.142 0.926,2.068 2.068,2.068 h 37.113 c 1.143,0 2.068,-0.925 2.069,-2.068 v -7.93 c 0,0 53.044,2.734 70.177,4.222 2.875,0.25 5.398,1.849 6.632,4.266 C 5.759,-78.065 15.526,-50.348 0,0" /></g><g
           transform="translate(110.5714,80)"
           id="g44"><path
             id="path46"
             style="fill:#eceff0;fill-opacity:1;fill-rule:nonzero;stroke:none"
             d="m 0,0 h 6.857 c 1.42,0 2.572,-0.895 2.572,-2 0,-1.105 -1.152,-2 -2.572,-2 H 0 c -1.42,0 -2.571,0.895 -2.571,2 0,1.105 1.151,2 2.571,2" /></g><g
           transform="translate(90.5714,80)"
           id="g48"><path
             id="path50"
             style="fill:#eceff0;fill-opacity:1;fill-rule:nonzero;stroke:none"
             d="m 0,0 h 6.857 c 1.42,0 2.572,-0.895 2.572,-2 0,-1.105 -1.152,-2 -2.572,-2 H 0 c -1.42,0 -2.571,0.895 -2.571,2 0,1.105 1.151,2 2.571,2" /></g><g
           transform="translate(50.2251,176.4853)"
           id="g52"><path
             id="path54"
             style="fill:#eceff0;fill-opacity:1;fill-rule:nonzero;stroke:none"
             d="m 0,0 c -1.873,2.578 -5.452,3.853 -9.595,3.437 -2.717,-0.283 -5.996,-1.422 -7.051,-3.778 -0.305,-0.681 -0.186,-1.477 0.304,-2.038 l 6.68,-7.635 c 0.363,-0.415 0.887,-0.652 1.437,-0.652 0.55,0 1.073,0.237 1.437,0.652 l 6.68,7.635 C 0.477,-1.709 0.522,-0.721 0,0" /></g><g
           transform="translate(50.1169,149.896)"
           id="g56"><path
             id="path58"
             style="fill:#eceff0;fill-opacity:1;fill-rule:nonzero;stroke:none"
             d="m 0,0 -6.68,7.635 c -0.727,0.832 -2.147,0.832 -2.874,0 L -16.234,0 c -0.49,-0.561 -0.609,-1.357 -0.304,-2.037 1.055,-2.357 4.334,-3.495 7.051,-3.779 0.526,-0.054 1.042,-0.08 1.547,-0.08 3.471,0 6.412,1.266 8.048,3.518 C 0.63,-1.657 0.585,-0.669 0,0" /></g><g
           transform="translate(37.5305,163.4386)"
           id="g60"><path
             id="path62"
             style="fill:#eceff0;fill-opacity:1;fill-rule:nonzero;stroke:none"
             d="m 0,0 -7.634,6.681 c -0.673,0.589 -1.659,0.626 -2.378,0.108 -2.58,-1.875 -3.866,-5.462 -3.437,-9.596 0.283,-2.718 1.422,-5.997 3.778,-7.052 0.251,-0.114 0.516,-0.168 0.781,-0.168 0.453,0 0.902,0.162 1.256,0.472 L 0,-2.874 c 0.416,0.363 0.652,0.887 0.652,1.437 C 0.652,-0.887 0.416,-0.364 0,0" /></g><g
           transform="translate(59.9188,163.3715)"
           id="g64"><path
             id="path66"
             style="fill:#eceff0;fill-opacity:1;fill-rule:nonzero;stroke:none"
             d="M 0,0 C -0.283,2.718 -1.422,5.997 -3.778,7.052 -4.46,7.363 -5.256,7.24 -5.815,6.748 l -7.634,-6.681 c -0.416,-0.363 -0.653,-0.887 -0.653,-1.437 0,-0.55 0.237,-1.074 0.653,-1.437 l 7.634,-6.681 c 0.358,-0.313 0.807,-0.472 1.256,-0.472 0.393,0 0.787,0.121 1.122,0.364 C -0.857,-7.721 0.429,-4.135 0,0" /></g><g
           transform="translate(50.2253,112.4904)"
           id="g68"><path
             id="path70"
             style="fill:#eceff0;fill-opacity:1;fill-rule:nonzero;stroke:none"
             d="m 0,0 c -1.875,2.577 -5.465,3.833 -9.591,3.438 -2.72,-0.283 -6,-1.424 -7.055,-3.781 -0.306,-0.679 -0.187,-1.477 0.304,-2.036 l 6.68,-7.637 c 0.363,-0.414 0.887,-0.652 1.437,-0.652 0.549,0 1.073,0.238 1.437,0.652 l 6.68,7.637 C 0.477,-1.708 0.522,-0.723 0,0" /></g><g
           transform="translate(50.1172,85.8955)"
           id="g72"><path
             id="path74"
             style="fill:#eceff0;fill-opacity:1;fill-rule:nonzero;stroke:none"
             d="m 0,0 -6.68,7.637 c -0.727,0.828 -2.147,0.828 -2.874,0 L -16.234,0 c -0.491,-0.559 -0.61,-1.357 -0.304,-2.036 1.055,-2.357 4.335,-3.498 7.055,-3.781 0.523,-0.052 1.04,-0.079 1.545,-0.079 3.468,0 6.41,1.265 8.046,3.517 C 0.63,-1.656 0.585,-0.671 0,0" /></g><g
           transform="translate(37.5304,99.439)"
           id="g76"><path
             id="path78"
             style="fill:#eceff0;fill-opacity:1;fill-rule:nonzero;stroke:none"
             d="m 0,0 -7.634,6.682 c -0.673,0.59 -1.659,0.634 -2.379,0.108 -2.579,-1.872 -3.863,-5.459 -3.437,-9.59 0.282,-2.719 1.422,-6 3.778,-7.059 0.25,-0.112 0.517,-0.168 0.781,-0.168 0.453,0 0.903,0.16 1.257,0.474 L 0,-2.871 C 0.416,-2.51 0.652,-1.987 0.652,-1.436 0.652,-0.884 0.416,-0.362 0,0" /></g><g
           transform="translate(59.9193,99.3683)"
           id="g80"><path
             id="path82"
             style="fill:#eceff0;fill-opacity:1;fill-rule:nonzero;stroke:none"
             d="M 0,0 C -0.282,2.718 -1.422,6 -3.778,7.059 -4.455,7.361 -5.256,7.253 -5.815,6.753 L -13.45,0.071 c -0.415,-0.362 -0.652,-0.884 -0.652,-1.436 0,-0.552 0.237,-1.074 0.652,-1.435 l 7.635,-6.683 c 0.357,-0.313 0.807,-0.473 1.256,-0.473 0.393,0 0.786,0.119 1.122,0.365 C -0.857,-7.719 0.427,-4.132 0,0" /></g><g
           transform="translate(226.1172,89.8955)"
           id="g84"><path
             id="path86"
             style="fill:#eceff0;fill-opacity:1;fill-rule:nonzero;stroke:none"
             d="m 0,0 -6.68,7.637 c -0.727,0.828 -2.147,0.828 -2.874,0 L -16.234,0 c -0.491,-0.559 -0.61,-1.357 -0.304,-2.036 1.055,-2.357 4.335,-3.498 7.055,-3.781 0.523,-0.052 1.04,-0.079 1.545,-0.079 3.468,0 6.41,1.265 8.046,3.517 C 0.63,-1.656 0.585,-0.671 0,0" /></g><g
           transform="translate(235.9193,103.3683)"
           id="g88"><path
             id="path90"
             style="fill:#eceff0;fill-opacity:1;fill-rule:nonzero;stroke:none"
             d="M 0,0 C -0.282,2.718 -1.422,6 -3.778,7.059 -4.455,7.361 -5.256,7.253 -5.815,6.753 L -13.45,0.071 c -0.415,-0.362 -0.652,-0.884 -0.652,-1.436 0,-0.552 0.237,-1.074 0.652,-1.435 l 7.635,-6.683 c 0.357,-0.313 0.807,-0.473 1.256,-0.473 0.393,0 0.786,0.119 1.122,0.365 C -0.857,-7.719 0.427,-4.132 0,0" /></g><path
           id="path92"
           style="fill:#8c8c8c;fill-opacity:1;fill-rule:nonzero;stroke:none"
           d="M 80,164 H 188 V 96 H 80 Z" /><g
           transform="translate(243.0658,174)"
           id="g94"><path
             id="path96"
             style="fill:#191919;fill-opacity:1;fill-rule:nonzero;stroke:none"
             d="m 0,0 h -19.691 -8.441 c -0.516,0 -0.934,-0.446 -0.934,-0.996 v -0.008 c 0,-0.55 0.418,-0.996 0.934,-0.996 H -19.691 0 0.934 V -1.004 -0.996 0 Z" /></g><g
           transform="translate(223.4666,170)"
           id="g98"><path
             id="path100"
             style="fill:#191919;fill-opacity:1;fill-rule:nonzero;stroke:none"
             d="M 0,0 H -6.592 C -7.075,0 -7.467,-0.42 -7.467,-0.937 V -1.063 C -7.467,-1.58 -7.075,-2 -6.592,-2 H 0 19.658 20.533 V -1.063 -0.937 0 h -0.875 z" /></g><g
           transform="translate(223.5714,166)"
           id="g102"><path
             id="path104"
             style="fill:#191919;fill-opacity:1;fill-rule:nonzero;stroke:none"
             d="M 0,0 H -4.846 C -5.247,0 -5.571,-0.35 -5.571,-0.781 V -1.219 C -5.571,-1.65 -5.247,-2 -4.846,-2 H 0 19.703 20.429 V -1.219 -0.781 0 h -0.726 z" /></g><g
           transform="translate(223.6923,162)"
           id="g106"><path
             id="path108"
             style="fill:#191919;fill-opacity:1;fill-rule:nonzero;stroke:none"
             d="M 0,0 H -2.773 C -3.281,0 -3.692,-0.446 -3.692,-0.996 V -1.004 C -3.692,-1.554 -3.281,-2 -2.773,-2 H 0 19.388 20.308 V -1.004 -0.996 0 h -0.92 z" /></g><g
           transform="translate(222,157.0034)"
           id="g110"><path
             id="path112"
             style="fill:#191919;fill-opacity:1;fill-rule:nonzero;stroke:none"
             d="m 0,0 v -0.007 c 0,-0.55 0.409,-0.996 0.913,-0.996 H 22 v 2 H 0.913 C 0.409,0.997 0,0.551 0,0" /></g><g
           transform="translate(110.9005,171.9661)"
           id="g114"><path
             id="path116"
             style="fill:#191919;fill-opacity:1;fill-rule:nonzero;stroke:none"
             d="m 0,0 c -0.273,-0.215 -0.5,-0.408 -0.747,-0.579 -0.071,-0.049 -0.202,-0.045 -0.306,-0.046 -0.594,-0.006 -1.187,-0.004 -1.781,-0.007 -0.47,-0.001 -0.792,-0.314 -0.753,-0.725 0.019,-0.209 0.172,-0.262 0.381,-0.261 0.516,0.004 1.032,0.007 1.548,0.01 0.686,0.003 1.009,-0.325 0.868,-0.905 -0.103,-0.42 -0.225,-0.837 -0.63,-1.136 -0.253,-0.187 -0.532,-0.31 -0.87,-0.311 -1.927,-0.003 -3.854,-0.004 -5.781,-0.006 -0.034,0 -0.069,0.007 -0.147,0.016 0.356,0.308 0.627,0.585 1.188,0.568 1.262,-0.04 2.527,0.008 3.79,-0.004 0.562,-0.005 0.746,0.268 0.788,0.72 0.02,0.219 -0.164,0.283 -0.386,0.281 -0.506,-0.002 -1.012,-0.002 -1.517,-0.005 -0.677,-0.005 -0.978,0.268 -0.883,0.845 0.096,0.582 0.294,1.126 0.997,1.383 0.158,0.058 0.335,0.098 0.505,0.103 C -2.54,-0.024 -1.344,0 -0.148,0.027 -0.121,0.027 -0.093,0.017 0,0" /></g><g
           transform="translate(115.0979,170.5945)"
           id="g118"><path
             id="path120"
             style="fill:#191919;fill-opacity:1;fill-rule:nonzero;stroke:none"
             d="m 0,0 c -0.244,-0.744 -0.48,-1.464 -0.732,-2.235 0.182,0.029 0.402,0.032 0.591,0.1 0.382,0.138 0.654,0.367 0.699,0.757 0.019,0.165 0.094,0.325 0.139,0.488 0.164,0.582 0.53,0.848 1.238,0.888 C 2.108,0.008 2.282,0 2.49,0 2.343,-0.484 2.18,-0.949 2.064,-1.422 1.992,-1.714 1.852,-1.923 1.529,-2.053 1.311,-2.14 1.114,-2.27 0.914,-2.389 0.683,-2.526 0.444,-2.59 0.154,-2.588 c -1.537,0.008 -3.073,-0.002 -4.61,-0.006 -0.104,-0.001 -0.209,0 -0.362,0 0.101,0.358 0.189,0.681 0.283,1.003 0.06,0.203 0.117,0.408 0.195,0.606 0.086,0.216 0.134,0.477 0.306,0.625 0.401,0.345 0.936,0.401 1.512,0.344 -0.222,-0.728 -0.44,-1.444 -0.676,-2.215 0.196,0.015 0.347,-0.008 0.451,0.042 0.342,0.163 0.72,0.302 0.761,0.719 0.018,0.181 0.105,0.357 0.162,0.535 0.213,0.665 0.572,0.909 1.379,0.934 C -0.311,0.004 -0.177,0 0,0" /></g><g
           transform="translate(122.8809,170.5894)"
           id="g122"><path
             id="path124"
             style="fill:#191919;fill-opacity:1;fill-rule:nonzero;stroke:none"
             d="m 0,0 c -0.182,-0.595 -0.352,-1.154 -0.523,-1.712 -0.053,-0.171 -0.134,-0.339 -0.154,-0.512 -0.034,-0.283 -0.211,-0.359 -0.509,-0.349 -0.377,0.012 -0.756,0.003 -1.186,0.003 0.222,0.725 0.433,1.416 0.645,2.108 -0.858,0.193 -1.721,-0.118 -1.873,-0.79 -0.163,-0.723 0.013,-0.945 0.892,-0.957 0.055,0 0.11,-0.008 0.209,-0.016 -0.246,-0.221 -0.467,-0.394 -0.817,-0.36 -0.459,0.044 -0.937,0.033 -1.376,0.14 -0.52,0.128 -0.695,0.511 -0.55,0.967 0.325,1.022 0.943,1.425 2.184,1.437 0.876,0.008 1.751,0.027 2.626,0.041 C -0.306,0.002 -0.18,0 0,0" /></g><g
           transform="translate(125.8819,168.0347)"
           id="g126"><path
             id="path128"
             style="fill:#191919;fill-opacity:1;fill-rule:nonzero;stroke:none"
             d="M 0,0 C 0.157,0.519 0.306,1.03 0.468,1.538 0.618,2.01 0.499,2.153 -0.082,2.149 -0.37,2.146 -0.732,2.209 -0.926,2.085 -1.106,1.97 -1.106,1.645 -1.184,1.412 -1.206,1.348 -1.231,1.282 -1.236,1.216 -1.28,0.679 -1.676,0.341 -2.125,0.034 -2.169,0.004 -2.227,-0.03 -2.278,-0.031 c -0.289,-0.006 -0.577,-0.003 -0.907,-0.003 0.125,0.427 0.236,0.816 0.354,1.203 0.122,0.398 0.259,0.792 0.371,1.192 0.041,0.146 0.12,0.182 0.282,0.181 C -1.068,2.531 0.041,2.532 1.151,2.519 1.331,2.517 1.525,2.49 1.689,2.428 2.057,2.288 2.183,2.044 2.087,1.707 1.942,1.193 1.79,0.68 1.629,0.169 1.609,0.104 1.518,0.009 1.457,0.007 0.984,-0.006 0.51,0 0,0" /></g><g
           transform="translate(101.3997,170.1651)"
           id="g130"><path
             id="path132"
             style="fill:#191919;fill-opacity:1;fill-rule:nonzero;stroke:none"
             d="M 0,0 C -0.097,0 -0.213,0.03 -0.288,-0.005 -0.594,-0.148 -1,-0.253 -1.159,-0.481 c -0.22,-0.317 -0.26,-0.731 -0.355,-1.107 -0.014,-0.057 0.073,-0.181 0.14,-0.198 0.711,-0.18 1.469,0.2 1.657,0.818 0.049,0.162 0.096,0.324 0.144,0.487 C 0.572,0.001 0.572,0 0,0 m -1.205,-2.161 c -0.438,0 -0.876,-0.006 -1.314,10e-4 -0.528,0.009 -0.709,0.216 -0.578,0.647 0.096,0.317 0.182,0.637 0.296,0.949 0.037,0.099 0.132,0.201 0.234,0.26 0.313,0.183 0.634,0.362 0.97,0.511 0.189,0.084 0.412,0.148 0.622,0.153 0.807,0.017 1.616,0.012 2.423,0.007 C 2.032,0.363 2.192,0.175 2.053,-0.318 2.004,-0.49 1.925,-0.658 1.904,-0.831 1.854,-1.254 1.609,-1.536 1.168,-1.714 0.957,-1.799 0.776,-1.937 0.564,-2.018 0.376,-2.089 0.166,-2.143 -0.037,-2.154 -0.425,-2.175 -0.815,-2.16 -1.205,-2.16 Z" /></g><g
           transform="translate(87.6205,169.3513)"
           id="g134"><path
             id="path136"
             style="fill:#191919;fill-opacity:1;fill-rule:nonzero;stroke:none"
             d="M 0,0 C 0.257,0 0.516,0.021 0.769,-0.005 1.21,-0.05 1.537,0.146 1.846,0.357 1.95,0.429 1.957,0.606 2.009,0.735 1.898,0.767 1.789,0.82 1.676,0.826 1.445,0.84 1.211,0.833 0.979,0.828 0.495,0.817 0.03,0.441 0,0 M 2.006,-0.969 C 1.717,-1.22 1.42,-1.365 1.015,-1.35 c -0.718,0.027 -1.438,-10e-4 -2.157,0.003 -0.153,10e-4 -0.312,0.022 -0.456,0.064 -0.22,0.065 -0.334,0.217 -0.282,0.415 0.106,0.401 0.231,0.798 0.359,1.194 0.021,0.064 0.093,0.126 0.16,0.166 0.167,0.101 0.362,0.171 0.514,0.284 0.542,0.402 1.174,0.452 1.851,0.419 C 1.595,1.167 2.191,1.204 2.783,1.185 3.283,1.169 3.474,0.894 3.285,0.498 3.252,0.427 3.178,0.359 3.103,0.317 2.728,0.108 2.35,-0.098 1.964,-0.292 1.862,-0.343 1.728,-0.366 1.608,-0.368 1.093,-0.376 0.578,-0.369 0.062,-0.373 -0.149,-0.374 -0.292,-0.56 -0.283,-0.805 c 0.007,-0.199 0.179,-0.163 0.319,-0.164 0.657,-0.001 1.313,0 1.97,0" /></g><g
           transform="translate(93.1548,168.0033)"
           id="g138"><path
             id="path140"
             style="fill:#191919;fill-opacity:1;fill-rule:nonzero;stroke:none"
             d="m 0,0 c 0.173,0.575 0.326,1.112 0.502,1.644 0.03,0.091 0.144,0.176 0.244,0.233 0.316,0.18 0.636,0.357 0.97,0.512 0.156,0.072 0.345,0.123 0.521,0.126 0.72,0.015 1.44,0.009 2.159,0.007 C 4.731,2.521 5.036,2.449 5.233,2.19 5.402,1.967 5.326,1.801 5.09,1.641 4.65,1.342 4.161,1.365 3.626,1.401 3.658,1.514 3.686,1.61 3.712,1.706 3.779,1.948 3.693,2.075 3.418,2.138 2.837,2.271 2.151,1.921 2.006,1.42 1.887,1.013 1.755,0.609 1.643,0.201 1.602,0.052 1.527,-0.007 1.346,-0.003 0.91,0.007 0.473,0 0,0" /></g><g
           transform="translate(84.3065,171.2864)"
           id="g142"><path
             id="path144"
             style="fill:#191919;fill-opacity:1;fill-rule:nonzero;stroke:none"
             d="m 0,0 c -0.089,-0.31 -0.179,-0.62 -0.284,-0.926 -0.028,-0.081 -0.096,-0.165 -0.172,-0.22 -0.377,-0.269 -0.809,-0.376 -1.3,-0.324 -0.215,0.022 -0.294,0.078 -0.228,0.273 0.145,0.427 0.282,0.857 0.399,1.29 0.046,0.172 0.126,0.247 0.333,0.231 0.164,-0.012 0.33,-0.002 0.496,-0.002 0,0.004 0,0.009 0,0.013 0.156,0 0.311,0.002 0.467,0 C 0.047,0.329 0.083,0.29 0,0 m 0.766,-1.335 c 0.346,0.154 0.579,0.369 0.635,0.721 C 1.435,-0.399 1.52,-0.19 1.588,0.02 1.73,0.46 1.556,0.696 1.024,0.702 0.031,0.715 -0.962,0.715 -1.955,0.712 -2.033,0.714 -2.11,0.714 -2.185,0.711 -2.391,0.71 -2.596,0.709 -2.802,0.709 -2.877,0.708 -3.001,0.629 -3.021,0.567 -3.031,0.534 -3.175,0.382 -3.233,0.33 -3.327,0.245 -3.43,0.143 -3.46,0.034 -3.657,-0.677 -3.838,-1.391 -4.02,-2.105 -4.118,-2.488 -4.209,-2.872 -4.306,-3.27 c 0.088,-0.007 0.145,-0.016 0.201,-0.016 0.457,0 0.914,0 1.371,0 10e-4,0.002 0.165,0.711 0.365,1.545 0.264,-0.01 0.541,-0.021 0.793,-0.04 0.461,-0.406 1.685,-1.446 1.685,-1.446 h 1.307 l -1.647,1.423 c 0.203,0.049 0.391,0.137 0.574,0.245 0.137,0.08 0.276,0.158 0.423,0.224" /></g><g
           transform="translate(94.7051,171.3754)"
           id="g146"><path
             id="path148"
             style="fill:#191919;fill-opacity:1;fill-rule:nonzero;stroke:none"
             d="m 0,0 h -1.262 c 0.065,0.252 0.123,0.465 0.168,0.612 C -1.67,0.656 -2.179,0.601 -2.58,0.241 -2.658,0.171 -2.741,0.088 -2.784,0 h -1.087 c -0.042,0 -0.08,-0.019 -0.101,-0.051 l -0.239,-0.358 c -0.045,-0.067 0.012,-0.151 0.102,-0.151 h 1.165 c -0.145,-0.544 -0.283,-1.089 -0.423,-1.634 -0.097,-0.383 -0.188,-0.767 -0.286,-1.165 0.089,-0.007 0.145,-0.016 0.202,-0.016 0.457,0 0.914,0 1.371,0 10e-4,0.004 0.369,1.592 0.675,2.815 h 1.167 c 0.041,0 0.08,0.019 0.101,0.05 l 0.238,0.359 C 0.146,-0.084 0.09,0 0,0" /></g></g></g></g></svg>