<?xml version="1.0" encoding="UTF-8" standalone="no"?>
<svg
   xmlns:dc="http://purl.org/dc/elements/1.1/"
   xmlns:cc="http://creativecommons.org/ns#"
   xmlns:rdf="http://www.w3.org/1999/02/22-rdf-syntax-ns#"
   xmlns:svg="http://www.w3.org/2000/svg"
   xmlns="http://www.w3.org/2000/svg"
   viewBox="0 0 320 320"
   height="320"
   width="320"
   xml:space="preserve"
   version="1.1"
   id="svg2"><metadata
     id="metadata8"><rdf:RDF><cc:Work
         rdf:about=""><dc:format>image/svg+xml</dc:format><dc:type
           rdf:resource="http://purl.org/dc/dcmitype/StillImage" /></cc:Work></rdf:RDF></metadata><defs
     id="defs6"><clipPath
       id="clipPath16"
       clipPathUnits="userSpaceOnUse"><path
         id="path18"
         d="M 0,256 256,256 256,0 0,0 0,256 Z" /></clipPath><clipPath
       id="clipPath24"
       clipPathUnits="userSpaceOnUse"><path
         id="path26"
         d="M 4,204 252,204 252,52 4,52 4,204 Z" /></clipPath></defs><g
     transform="matrix(1.25,0,0,-1.25,0,320)"
     id="g10"><g
       id="g12"><g
         clip-path="url(#clipPath16)"
         id="g14"><g
           id="g20"><g
             id="g22" /><g
             id="g28"><g
               style="opacity:0.5"
               id="g30"
               clip-path="url(#clipPath24)"><g
                 id="g32"
                 transform="translate(252,180)"><path
                   id="path34"
                   style="fill:#ffffff;fill-opacity:1;fill-rule:nonzero;stroke:none"
                   d="m 0,0 0,8 c 0,4.083 -3.058,7.451 -7.009,7.939 -0.967,1.094 -2.131,2.012 -3.435,2.696 C -11.533,21.758 -14.505,24 -18,24 l -2,0 c -0.339,0 -0.672,-0.021 -1,-0.062 -0.328,0.041 -0.661,0.062 -1,0.062 l -2,0 c -0.339,0 -0.672,-0.021 -1,-0.062 -0.328,0.041 -0.661,0.062 -1,0.062 l -2,0 c -0.339,0 -0.672,-0.021 -1,-0.062 -0.328,0.041 -0.661,0.062 -1,0.062 l -2,0 c -0.339,0 -0.672,-0.021 -1,-0.062 -0.328,0.041 -0.661,0.062 -1,0.062 l -2,0 c -0.339,0 -0.672,-0.021 -1,-0.062 -0.328,0.041 -0.661,0.062 -1,0.062 l -2,0 c -0.339,0 -0.672,-0.021 -1,-0.062 -0.328,0.041 -0.661,0.062 -1,0.062 l -2,0 c -0.339,0 -0.672,-0.021 -1,-0.062 -0.328,0.041 -0.661,0.062 -1,0.062 l -2,0 c -0.339,0 -0.672,-0.021 -1,-0.062 -0.328,0.041 -0.661,0.062 -1,0.062 l -2,0 c -0.339,0 -0.672,-0.021 -1,-0.062 -0.328,0.041 -0.661,0.062 -1,0.062 l -2,0 c -0.339,0 -0.672,-0.021 -1,-0.062 -0.328,0.041 -0.661,0.062 -1,0.062 l -2,0 c -0.339,0 -0.672,-0.021 -1,-0.062 -0.328,0.041 -0.661,0.062 -1,0.062 l -2,0 c -0.339,0 -0.672,-0.021 -1,-0.062 -0.328,0.041 -0.661,0.062 -1,0.062 l -2,0 c -0.339,0 -0.672,-0.021 -1,-0.062 -0.328,0.041 -0.661,0.062 -1,0.062 l -2,0 c -0.339,0 -0.672,-0.021 -1,-0.062 -0.328,0.041 -0.661,0.062 -1,0.062 l -2,0 c -0.339,0 -0.672,-0.021 -1,-0.062 -0.328,0.041 -0.661,0.062 -1,0.062 l -2,0 c -0.339,0 -0.672,-0.021 -1,-0.062 -0.328,0.041 -0.661,0.062 -1,0.062 l -2,0 c -0.339,0 -0.672,-0.021 -1,-0.062 -0.328,0.041 -0.661,0.062 -1,0.062 l -2,0 c -0.339,0 -0.672,-0.021 -1,-0.062 -0.328,0.041 -0.661,0.062 -1,0.062 l -2,0 c -0.339,0 -0.672,-0.021 -1,-0.062 -0.328,0.041 -0.661,0.062 -1,0.062 l -2,0 c -0.339,0 -0.672,-0.021 -1,-0.062 -0.328,0.041 -0.661,0.062 -1,0.062 l -2,0 c -0.339,0 -0.672,-0.021 -1,-0.062 -0.328,0.041 -0.661,0.062 -1,0.062 l -2,0 c -0.339,0 -0.672,-0.021 -1,-0.062 -0.328,0.041 -0.661,0.062 -1,0.062 l -2,0 c -0.339,0 -0.672,-0.021 -1,-0.062 -0.328,0.041 -0.661,0.062 -1,0.062 l -2,0 c -0.339,0 -0.672,-0.021 -1,-0.062 -0.328,0.041 -0.661,0.062 -1,0.062 l -2,0 c -0.339,0 -0.672,-0.021 -1,-0.062 -0.328,0.041 -0.661,0.062 -1,0.062 l -2,0 c -0.339,0 -0.672,-0.021 -1,-0.062 -0.328,0.041 -0.661,0.062 -1,0.062 l -2,0 c -0.339,0 -0.672,-0.021 -1,-0.062 -0.328,0.041 -0.661,0.062 -1,0.062 l -2,0 c -0.339,0 -0.672,-0.021 -1,-0.062 -0.328,0.041 -0.661,0.062 -1,0.062 l -2,0 c -0.339,0 -0.672,-0.021 -1,-0.062 -0.328,0.041 -0.661,0.062 -1,0.062 l -2,0 c -0.339,0 -0.672,-0.021 -1,-0.062 -0.328,0.041 -0.661,0.062 -1,0.062 l -2,0 c -0.339,0 -0.672,-0.021 -1,-0.062 -0.328,0.041 -0.661,0.062 -1,0.062 l -2,0 c -0.339,0 -0.672,-0.021 -1,-0.062 -0.328,0.041 -0.661,0.062 -1,0.062 l -2,0 c -0.339,0 -0.672,-0.021 -1,-0.062 -0.328,0.041 -0.661,0.062 -1,0.062 l -2,0 c -0.339,0 -0.672,-0.021 -1,-0.062 -0.328,0.041 -0.661,0.062 -1,0.062 l -2,0 c -0.339,0 -0.672,-0.021 -1,-0.062 -0.328,0.041 -0.661,0.062 -1,0.062 l -2,0 c -0.339,0 -0.672,-0.021 -1,-0.062 -0.328,0.041 -0.661,0.062 -1,0.062 l -2,0 c -0.339,0 -0.672,-0.021 -1,-0.062 -0.328,0.041 -0.661,0.062 -1,0.062 l -2,0 c -0.339,0 -0.672,-0.021 -1,-0.062 -0.328,0.041 -0.661,0.062 -1,0.062 l -2,0 c -0.339,0 -0.672,-0.021 -1,-0.062 -0.328,0.041 -0.661,0.062 -1,0.062 l -2,0 c -0.339,0 -0.672,-0.021 -1,-0.062 -0.328,0.041 -0.661,0.062 -1,0.062 l -2,0 c -0.339,0 -0.672,-0.021 -1,-0.062 -0.328,0.041 -0.661,0.062 -1,0.062 l -2,0 c -0.339,0 -0.672,-0.021 -1,-0.062 -0.328,0.041 -0.661,0.062 -1,0.062 l -2,0 c -0.339,0 -0.672,-0.021 -1,-0.062 -0.328,0.041 -0.661,0.062 -1,0.062 l -2,0 c -0.339,0 -0.672,-0.021 -1,-0.062 -0.328,0.041 -0.661,0.062 -1,0.062 l -2,0 c -0.339,0 -0.672,-0.021 -1,-0.062 -0.328,0.041 -0.661,0.062 -1,0.062 l -2,0 c -0.339,0 -0.672,-0.021 -1,-0.062 -0.328,0.041 -0.661,0.062 -1,0.062 l -2,0 c -0.339,0 -0.672,-0.021 -1,-0.062 -0.328,0.041 -0.661,0.062 -1,0.062 l -2,0 c -0.339,0 -0.672,-0.021 -1,-0.062 -0.328,0.041 -0.661,0.062 -1,0.062 l -2,0 c -0.339,0 -0.672,-0.021 -1,-0.062 -0.328,0.041 -0.661,0.062 -1,0.062 l -2,0 c -0.339,0 -0.672,-0.021 -1,-0.062 -0.328,0.041 -0.661,0.062 -1,0.062 l -2,0 c -0.339,0 -0.672,-0.021 -1,-0.062 -0.328,0.041 -0.661,0.062 -1,0.062 l -2,0 c -0.339,0 -0.672,-0.021 -1,-0.062 -0.328,0.041 -0.661,0.062 -1,0.062 l -2,0 c -0.339,0 -0.672,-0.021 -1,-0.062 -0.328,0.041 -0.661,0.062 -1,0.062 l -2,0 c -4.083,0 -7.451,-3.058 -7.939,-7.009 -1.729,-1.528 -3.015,-3.546 -3.64,-5.834 C -246.2,9.843 -248,7.132 -248,4 l 0,-4 c 0,-0.691 0.088,-1.361 0.252,-2 -0.164,-0.639 -0.252,-1.309 -0.252,-2 l 0,-4 c 0,-0.691 0.088,-1.361 0.252,-2 -0.164,-0.639 -0.252,-1.309 -0.252,-2 l 0,-4 c 0,-0.691 0.088,-1.361 0.252,-2 -0.164,-0.639 -0.252,-1.309 -0.252,-2 l 0,-28 c 0,-0.691 0.088,-1.361 0.252,-2 -0.164,-0.639 -0.252,-1.309 -0.252,-2 l 0,-64 c 0,-6.617 5.383,-12 12,-12 l 224,0 c 6.617,0 12,5.383 12,12 l 0,64 c 0,0.691 -0.087,1.361 -0.252,2 0.165,0.639 0.252,1.309 0.252,2 l 0,28 c 0,2.961 -1.609,5.547 -4,6.93 l 0,6.14 c 2.391,1.383 4,3.969 4,6.93" /></g></g></g></g><g
           transform="translate(236,156)"
           id="g36"><path
             id="path38"
             style="fill:#999999;fill-opacity:1;fill-rule:nonzero;stroke:none"
             d="m 0,0 -216,0 c -2.209,0 -4,1.791 -4,4 l 0,28 c 0,2.209 1.791,4 4,4 L 0,36 c 2.209,0 4,-1.791 4,-4 L 4,4 C 4,1.791 2.209,0 0,0" /></g><g
           transform="translate(234,188)"
           id="g40"><path
             id="path42"
             style="fill:#bfbfbf;fill-opacity:1;fill-rule:nonzero;stroke:none"
             d="m 0,0 0,8 -2,0 0,-8 0,-4 -2,0 0,12 -2,0 0,-12 -2,0 0,12 -2,0 0,-12 -2,0 0,12 -2,0 0,-12 -2,0 0,12 -2,0 0,-12 -2,0 0,12 -2,0 0,-12 -2,0 0,12 -2,0 0,-12 -2,0 0,12 -2,0 0,-12 -2,0 0,12 -2,0 0,-12 -2,0 0,12 -2,0 0,-12 -2,0 0,12 -2,0 0,-12 -2,0 0,12 -2,0 0,-12 -2,0 0,12 -2,0 0,-12 -2,0 0,12 -2,0 0,-12 -2,0 0,12 -2,0 0,-12 -2,0 0,12 -2,0 0,-12 -2,0 0,12 -2,0 0,-12 -2,0 0,12 -2,0 0,-12 -2,0 0,12 -2,0 0,-12 -2,0 0,12 -2,0 0,-12 -2,0 0,12 -2,0 0,-12 -2,0 0,12 -2,0 0,-12 -2,0 0,12 -2,0 0,-12 -2,0 0,12 -2,0 0,-12 -2,0 0,12 -2,0 0,-12 -2,0 0,12 -2,0 0,-12 -2,0 0,12 -2,0 0,-12 -2,0 0,12 -2,0 0,-12 -2,0 0,12 -2,0 0,-12 -2,0 0,12 -2,0 0,-12 -2,0 0,12 -2,0 0,-12 -2,0 0,12 -2,0 0,-12 -2,0 0,12 -2,0 0,-12 -2,0 0,12 -2,0 0,-12 -2,0 0,12 -2,0 0,-12 -2,0 0,12 -2,0 0,-12 -2,0 0,12 -2,0 0,-12 -2,0 0,12 -2,0 0,-12 -2,0 0,12 -2,0 0,-12 -2,0 0,12 -2,0 0,-12 -2,0 0,12 -2,0 0,-12 -2,0 0,12 -2,0 0,-12 -2,0 0,12 -2,0 0,-12 -2,0 0,12 -2,0 0,-12 -2,0 0,12 -2,0 0,-12 -2,0 0,12 -2,0 0,-12 -2,0 0,12 -2,0 0,-12 -2,0 0,12 -2,0 0,-12 -2,0 0,12 -2,0 0,-12 -2,0 0,12 -2,0 0,-12 -2,0 0,12 -2,0 0,-12 -2,0 0,12 -2,0 0,-12 -2,0 0,12 -2,0 0,-12 -2,0 0,12 -2,0 0,-12 -8,0 0,-4 216,0 0,-4 -216,0 0,-4 216,0 0,-4 -216,0 0,-4 216,0 0,-4 -216,0 0,-28 232,0 0,28 -4,0 0,20 4,0 0,8 -10,0 z" /></g><path
           id="path44"
           style="fill:#cccccc;fill-opacity:1;fill-rule:nonzero;stroke:none"
           d="m 236,132 -40,0 0,8 40,0 0,-8 z" /><g
           transform="translate(240,60)"
           id="g46"><path
             id="path48"
             style="fill:#bfbfbf;fill-opacity:1;fill-rule:nonzero;stroke:none"
             d="m 0,0 -224,0 c -2.209,0 -4,1.791 -4,4 l 0,64 L 4,68 4,4 C 4,1.791 2.209,0 0,0" /></g><path
           id="path50"
           style="fill:#999999;fill-opacity:1;fill-rule:nonzero;stroke:none"
           d="m 16,128 224,0 0,4 -224,0 0,-4 z" /><path
           id="path52"
           style="fill:#ff0000;fill-opacity:1;fill-rule:nonzero;stroke:none"
           d="m 232,120 -8,0 0,2 8,0 0,-2 z" /><path
           id="path54"
           style="fill:#666666;fill-opacity:1;fill-rule:nonzero;stroke:none"
           d="m 232,116 -8,0 0,2 8,0 0,-2 z" /><g
           transform="translate(173.1142,151.1664)"
           id="g56"><path
             id="path58"
             style="fill:#a6a6a6;fill-opacity:1;fill-rule:nonzero;stroke:none"
             d="M 0,0 C -0.441,0 -0.465,-0.068 -0.569,-0.374 L -1.36,-2.807 c -0.105,-0.329 -0.024,-0.374 0.511,-0.374 1.106,0 1.943,0.985 1.943,1.981 C 1.094,-0.611 0.849,0 0,0 m -2.326,-1.087 c 0.256,0.77 0.256,0.94 -0.116,1.03 l -0.373,0.091 c -0.104,0.09 -0.069,0.328 0.071,0.385 0.686,0.057 1.407,0.102 2.303,0.102 0.953,0 1.709,-0.102 2.268,-0.362 0.535,-0.261 0.965,-0.793 0.965,-1.529 0,-1.121 -0.989,-1.709 -1.885,-1.936 C 0.698,-3.362 0.698,-3.43 0.722,-3.566 0.989,-5.027 1.21,-6.057 1.489,-6.34 1.64,-6.499 1.966,-6.566 2.187,-6.611 2.292,-6.691 2.257,-6.883 2.153,-6.963 1.92,-7.019 1.582,-7.03 1.082,-7.03 c -0.418,0 -0.733,0.056 -0.919,0.169 -0.232,0.148 -0.454,0.431 -0.569,1.03 l -0.326,1.654 c -0.081,0.385 -0.222,0.497 -0.57,0.497 -0.291,0 -0.326,-0.033 -0.407,-0.26 L -2.186,-5.355 C -2.5,-6.272 -2.489,-6.464 -1.895,-6.578 l 0.302,-0.057 c 0.104,-0.056 0.07,-0.316 -0.058,-0.384 -0.57,0.022 -1.151,0.034 -1.71,0.034 -0.558,0 -1.081,-0.012 -1.663,-0.034 -0.116,0.068 -0.128,0.362 0.011,0.384 l 0.361,0.057 c 0.5,0.079 0.582,0.17 0.93,1.223 l 1.396,4.268 z" /></g><g
           transform="translate(181.7832,151.6532)"
           id="g60"><path
             id="path62"
             style="fill:#a6a6a6;fill-opacity:1;fill-rule:nonzero;stroke:none"
             d="M 0,0 C 0.744,0 1.407,0.012 1.582,0.034 1.5,-0.159 1.198,-0.973 0.989,-1.743 0.93,-1.868 0.628,-1.879 0.546,-1.789 c 0.035,0.408 0,0.736 -0.046,0.872 -0.093,0.261 -0.396,0.396 -0.977,0.396 l -0.908,0 c -0.394,0 -0.429,-0.022 -0.569,-0.452 l -0.64,-1.97 c -0.104,-0.318 -0.081,-0.34 0.222,-0.34 l 0.767,0 c 0.605,0 0.756,0.091 1.059,0.634 l 0.15,0.272 c 0.117,0.101 0.407,0.09 0.442,-0.012 -0.139,-0.351 -0.279,-0.77 -0.43,-1.2 -0.14,-0.43 -0.244,-0.838 -0.349,-1.2 -0.093,-0.09 -0.395,-0.102 -0.441,-0.011 l 0.034,0.283 c 0.07,0.543 -0.047,0.634 -0.651,0.634 l -0.768,0 c -0.302,0 -0.348,-0.034 -0.442,-0.34 l -0.441,-1.381 c -0.176,-0.532 -0.256,-0.883 -0.163,-1.076 0.104,-0.192 0.29,-0.271 1.139,-0.271 1.012,0 1.42,0.034 2.373,1.302 0.128,0.09 0.395,0.068 0.465,-0.068 -0.198,-0.566 -0.64,-1.483 -0.896,-1.789 -0.36,0.011 -0.826,0.022 -1.314,0.022 -0.488,0.012 -1.012,0.012 -1.489,0.012 l -1.511,0 c -0.582,0 -1.106,-0.012 -1.687,-0.034 -0.116,0.068 -0.104,0.351 0.059,0.396 l 0.395,0.057 c 0.546,0.079 0.64,0.158 0.977,1.211 l 1.361,4.212 c 0.291,0.917 0.302,1.132 -0.245,1.223 l -0.279,0.045 c -0.105,0.079 -0.081,0.339 0.082,0.396 C -3.629,0.012 -3.035,0 -2.583,0 L 0,0 Z" /></g><g
           transform="translate(190.3121,151.6532)"
           id="g64"><path
             id="path66"
             style="fill:#a6a6a6;fill-opacity:1;fill-rule:nonzero;stroke:none"
             d="M 0,0 C 0.477,0 0.652,0.091 0.814,0.295 0.907,0.362 1.152,0.34 1.198,0.26 0.977,-0.181 0.605,-1.155 0.477,-1.698 c -0.081,-0.113 -0.396,-0.113 -0.465,0 0.035,0.407 0.047,0.849 -0.105,0.973 -0.22,0.171 -0.535,0.204 -0.837,0.204 l -0.511,0 c -0.35,0 -0.361,0 -0.466,-0.317 l -1.582,-5.004 c -0.291,-0.917 -0.302,-1.132 0.291,-1.211 l 0.431,-0.057 c 0.069,-0.068 0.034,-0.328 -0.07,-0.396 -0.733,0.022 -1.326,0.034 -1.861,0.034 -0.559,0 -1.082,-0.012 -1.78,-0.034 -0.116,0.068 -0.127,0.351 0.035,0.396 l 0.454,0.057 c 0.5,0.068 0.593,0.158 0.93,1.211 l 1.617,5.004 c 0.092,0.284 0.081,0.317 -0.303,0.317 l -0.477,0 c -0.325,0 -0.663,-0.022 -0.976,-0.26 -0.233,-0.181 -0.524,-0.442 -0.826,-0.951 -0.105,-0.068 -0.431,-0.011 -0.431,0.136 0.361,0.724 0.675,1.37 0.872,1.891 0.07,0.067 0.222,0.067 0.326,0.011 C -5.257,0.079 -5.14,0 -4.35,0 L 0,0 Z" /></g><g
           transform="translate(194.8399,151.1664)"
           id="g68"><path
             id="path70"
             style="fill:#a6a6a6;fill-opacity:1;fill-rule:nonzero;stroke:none"
             d="M 0,0 C -0.441,0 -0.465,-0.068 -0.569,-0.374 L -1.36,-2.807 c -0.105,-0.329 -0.024,-0.374 0.511,-0.374 1.106,0 1.943,0.985 1.943,1.981 C 1.094,-0.611 0.849,0 0,0 m -2.326,-1.087 c 0.256,0.77 0.256,0.94 -0.116,1.03 l -0.373,0.091 c -0.104,0.09 -0.069,0.328 0.071,0.385 0.686,0.057 1.407,0.102 2.303,0.102 0.953,0 1.709,-0.102 2.268,-0.362 0.535,-0.261 0.965,-0.793 0.965,-1.529 0,-1.121 -0.989,-1.709 -1.885,-1.936 C 0.698,-3.362 0.698,-3.43 0.722,-3.566 0.989,-5.027 1.21,-6.057 1.489,-6.34 1.64,-6.499 1.966,-6.566 2.187,-6.611 2.292,-6.691 2.257,-6.883 2.152,-6.963 1.92,-7.019 1.582,-7.03 1.082,-7.03 c -0.419,0 -0.733,0.056 -0.919,0.169 -0.232,0.148 -0.454,0.431 -0.569,1.03 l -0.326,1.654 c -0.082,0.385 -0.222,0.497 -0.57,0.497 -0.291,0 -0.326,-0.033 -0.407,-0.26 L -2.186,-5.355 C -2.5,-6.272 -2.489,-6.464 -1.895,-6.578 l 0.302,-0.057 c 0.104,-0.056 0.07,-0.316 -0.058,-0.384 -0.57,0.022 -1.151,0.034 -1.71,0.034 -0.558,0 -1.082,-0.012 -1.663,-0.034 -0.116,0.068 -0.128,0.362 0.011,0.384 l 0.361,0.057 c 0.5,0.079 0.582,0.17 0.93,1.223 l 1.396,4.268 z" /></g><g
           transform="translate(201.7181,150.8267)"
           id="g72"><path
             id="path74"
             style="fill:#a6a6a6;fill-opacity:1;fill-rule:nonzero;stroke:none"
             d="m 0,0 c -0.93,-0.725 -1.954,-2.559 -1.954,-4.415 0,-1.087 0.512,-1.891 1.489,-1.891 0.465,0 1.046,0.204 1.594,0.815 1.058,1.189 1.523,2.729 1.523,4.11 0,1.324 -0.593,1.868 -1.408,1.868 C 0.803,0.487 0.372,0.283 0,0 m -1.756,-0.011 c 0.965,0.77 2.024,1.019 2.873,1.019 1.419,0 3.199,-0.748 3.199,-3.193 0,-1.188 -0.571,-2.491 -1.431,-3.351 -0.593,-0.589 -1.768,-1.291 -3.187,-1.291 -2.663,0 -3.315,1.789 -3.315,3.023 0,1.427 0.71,2.876 1.861,3.793" /></g><g
           transform="translate(208.6428,150.0344)"
           id="g76"><path
             id="path78"
             style="fill:#a6a6a6;fill-opacity:1;fill-rule:nonzero;stroke:none"
             d="m 0,0 c 0.349,0.894 0.326,1.132 -0.232,1.211 l -0.326,0.045 c -0.105,0.069 -0.07,0.329 0.093,0.397 0.64,-0.023 1.233,-0.034 1.792,-0.034 0.406,0 0.65,0.011 1.069,0.034 C 2.164,1.087 2.315,0 2.373,-0.555 l 0.093,-0.928 c 0.07,-0.657 0.128,-1.291 0.198,-1.698 0.233,0.316 0.546,0.713 1.011,1.347 L 5.014,0.011 C 5.723,0.985 5.862,1.449 5.944,1.653 6.199,1.63 6.63,1.619 7.06,1.619 7.63,1.619 8.119,1.63 8.7,1.653 8.84,1.585 8.804,1.302 8.654,1.256 L 8.328,1.211 C 7.839,1.144 7.642,1.053 7.304,-0.17 L 6.176,-4.223 C 5.921,-5.151 5.874,-5.332 6.467,-5.434 l 0.326,-0.057 c 0.058,-0.068 0.023,-0.328 -0.094,-0.396 -0.615,0.022 -1.209,0.034 -1.767,0.034 -0.559,0 -1.07,-0.012 -1.64,-0.034 -0.152,0.056 -0.139,0.351 0.024,0.396 l 0.337,0.057 c 0.5,0.079 0.628,0.147 0.965,1.211 l 1.023,3.272 C 5.827,-0.34 5.932,0.023 6.036,0.373 L 6.014,0.396 C 5.734,0.045 5.49,-0.295 5.095,-0.849 L 3.431,-3.193 C 2.838,-4.019 2.315,-4.823 1.779,-5.672 1.629,-5.763 1.373,-5.74 1.257,-5.627 1.279,-5.219 1.222,-4.336 1.14,-3.317 l -0.128,1.664 c -0.057,0.781 -0.151,1.54 -0.198,1.936 l -0.022,0 C 0.629,-0.113 0.396,-0.714 0.105,-1.506 l -0.593,-1.642 c -0.523,-1.46 -0.616,-1.743 -0.629,-1.969 -0.011,-0.114 0.036,-0.227 0.28,-0.272 l 0.559,-0.102 c 0.057,-0.102 0.035,-0.34 -0.059,-0.396 -0.5,0.011 -1,0.034 -1.535,0.034 -0.512,0 -0.872,-0.023 -1.28,-0.034 -0.093,0.09 -0.093,0.328 0.024,0.396 l 0.279,0.045 c 0.349,0.057 0.535,0.136 0.675,0.25 0.209,0.192 0.395,0.554 0.825,1.675 L 0,0 Z" /></g><g
           transform="translate(219.6406,144.5434)"
           id="g80"><path
             id="path82"
             style="fill:#a6a6a6;fill-opacity:1;fill-rule:nonzero;stroke:none"
             d="m 0,0 c 0.069,-0.068 0.034,-0.328 -0.081,-0.396 -0.617,0.022 -1.211,0.034 -1.746,0.034 -0.581,0 -1.104,-0.012 -1.686,-0.034 -0.116,0.068 -0.105,0.362 0.082,0.396 l 0.313,0.057 c 0.5,0.09 0.594,0.158 0.931,1.211 l 1.361,4.211 c 0.291,0.918 0.302,1.11 -0.291,1.212 l -0.325,0.056 c -0.082,0.069 -0.07,0.34 0.081,0.397 C -0.71,7.121 -0.128,7.11 0.43,7.11 0.965,7.11 1.489,7.121 2.07,7.144 2.186,7.076 2.163,6.793 2.011,6.747 L 1.674,6.691 C 1.174,6.611 1.082,6.533 0.744,5.479 L -0.617,1.268 C -0.92,0.351 -0.92,0.159 -0.326,0.057 L 0,0 Z" /></g><g
           transform="translate(228.7604,147.1361)"
           id="g84"><path
             id="path86"
             style="fill:#a6a6a6;fill-opacity:1;fill-rule:nonzero;stroke:none"
             d="m 0,0 c -0.372,-0.057 -0.441,-0.204 -0.617,-0.793 l -0.255,-0.86 c -0.152,-0.51 -0.221,-0.724 0,-0.77 0.035,-0.045 0.011,-0.237 -0.117,-0.272 -0.22,-0.034 -0.616,-0.124 -0.779,-0.17 -0.535,-0.169 -1.326,-0.271 -1.907,-0.271 -2.454,0 -3.582,1.268 -3.582,3.057 0,1.404 0.721,2.649 1.628,3.419 0.791,0.668 2.081,1.358 4.012,1.358 1.152,0 1.966,-0.26 2.373,-0.419 C 0.5,3.713 0.326,3.102 0.174,2.502 c -0.081,-0.125 -0.383,-0.125 -0.43,0 0.117,1.155 -0.337,1.675 -1.488,1.675 -2.071,0 -3.769,-2.32 -3.769,-4.539 0,-1.721 1,-2.253 2.013,-2.253 0.628,0 0.826,0.147 1.035,0.837 l 0.302,0.974 c 0.186,0.6 0.046,0.713 -0.5,0.792 L -3.035,0.045 C -3.175,0.113 -3.14,0.373 -3,0.442 c 0.791,-0.023 1.372,-0.035 1.93,-0.035 0.466,0 1.047,0.012 1.361,0.035 C 0.419,0.373 0.384,0.113 0.279,0.045 L 0,0 Z" /></g><g
           transform="translate(233.3137,147.3399)"
           id="g88"><path
             id="path90"
             style="fill:#a6a6a6;fill-opacity:1;fill-rule:nonzero;stroke:none"
             d="m 0,0 c 0.278,0 0.291,0.023 0.302,0.306 l 0.07,1.392 C 0.384,2.038 0.406,2.66 0.43,2.91 l -0.024,0 C 0.232,2.638 -0.047,2.219 -0.326,1.8 L -1.338,0.249 C -1.477,0.045 -1.442,0 -1.117,0 L 0,0 Z m -1.536,-0.6 c -0.349,0 -0.372,0.011 -0.511,-0.226 l -0.769,-1.201 c -0.196,-0.339 -0.22,-0.43 -0.22,-0.497 0,-0.091 0.174,-0.171 0.383,-0.205 l 0.42,-0.056 c 0.115,-0.079 0.081,-0.351 -0.059,-0.408 -0.581,0.023 -1.058,0.034 -1.57,0.034 -0.407,0 -0.791,-0.011 -1.117,-0.034 -0.162,0.057 -0.162,0.329 -0.057,0.408 l 0.278,0.045 c 0.583,0.091 0.722,0.192 1.315,1.03 1.035,1.495 2.093,2.989 3.129,4.484 0.36,0.532 0.698,1.018 0.744,1.234 0.651,0.045 1.198,0.486 1.209,0.486 l 0.024,0 c 0.116,0 0.209,-0.056 0.209,-0.181 0,-2.003 -0.081,-4.018 -0.081,-6.023 0,-0.792 0,-0.985 0.558,-1.052 l 0.279,-0.034 c 0.093,-0.068 0.07,-0.351 -0.035,-0.397 -0.43,0.023 -1.058,0.034 -1.639,0.034 -0.652,0 -1.176,-0.011 -1.536,-0.034 -0.151,0.046 -0.128,0.317 -0.058,0.397 l 0.268,0.034 c 0.534,0.067 0.593,0.214 0.604,0.486 l 0.046,1.438 C 0.291,-0.611 0.267,-0.6 -0.094,-0.6 l -1.442,0 z" /></g><path
           id="path92"
           style="fill:#999999;fill-opacity:1;fill-rule:nonzero;stroke:none"
           d="m 24,100.075 -8,0 0,8 8,0 0,-8 z" /><path
           id="path94"
           style="fill:#999999;fill-opacity:1;fill-rule:nonzero;stroke:none"
           d="m 28,88.075 -12,0 0,8 12,0 0,-8 z" /><path
           id="path96"
           style="fill:#d9d9d9;fill-opacity:1;fill-rule:nonzero;stroke:none"
           d="m 36,100.075 -8,0 0,8 8,0 0,-8 z" /><path
           id="path98"
           style="fill:#d9d9d9;fill-opacity:1;fill-rule:nonzero;stroke:none"
           d="m 40,88.075 -8,0 0,8 8,0 0,-8 z" /><path
           id="path100"
           style="fill:#d9d9d9;fill-opacity:1;fill-rule:nonzero;stroke:none"
           d="m 44,76.075 -8,0 0,8 8,0 0,-8 z" /><path
           id="path102"
           style="fill:#d9d9d9;fill-opacity:1;fill-rule:nonzero;stroke:none"
           d="m 56,76.075 -8,0 0,8 8,0 0,-8 z" /><path
           id="path104"
           style="fill:#d9d9d9;fill-opacity:1;fill-rule:nonzero;stroke:none"
           d="m 68,76.075 -8,0 0,8 8,0 0,-8 z" /><path
           id="path106"
           style="fill:#d9d9d9;fill-opacity:1;fill-rule:nonzero;stroke:none"
           d="m 80,76.075 -8,0 0,8 8,0 0,-8 z" /><path
           id="path108"
           style="fill:#d9d9d9;fill-opacity:1;fill-rule:nonzero;stroke:none"
           d="m 92,76.075 -8,0 0,8 8,0 0,-8 z" /><path
           id="path110"
           style="fill:#d9d9d9;fill-opacity:1;fill-rule:nonzero;stroke:none"
           d="m 104,76.075 -8,0 0,8 8,0 0,-8 z" /><path
           id="path112"
           style="fill:#d9d9d9;fill-opacity:1;fill-rule:nonzero;stroke:none"
           d="m 116,76.075 -8,0 0,8 8,0 0,-8 z" /><path
           id="path114"
           style="fill:#d9d9d9;fill-opacity:1;fill-rule:nonzero;stroke:none"
           d="m 128,76.075 -8,0 0,8 8,0 0,-8 z" /><path
           id="path116"
           style="fill:#d9d9d9;fill-opacity:1;fill-rule:nonzero;stroke:none"
           d="m 52,88.075 -8,0 0,8 8,0 0,-8 z" /><path
           id="path118"
           style="fill:#d9d9d9;fill-opacity:1;fill-rule:nonzero;stroke:none"
           d="m 64,88.075 -8,0 0,8 8,0 0,-8 z" /><path
           id="path120"
           style="fill:#d9d9d9;fill-opacity:1;fill-rule:nonzero;stroke:none"
           d="m 76,88.075 -8,0 0,8 8,0 0,-8 z" /><path
           id="path122"
           style="fill:#d9d9d9;fill-opacity:1;fill-rule:nonzero;stroke:none"
           d="m 88,88.075 -8,0 0,8 8,0 0,-8 z" /><path
           id="path124"
           style="fill:#d9d9d9;fill-opacity:1;fill-rule:nonzero;stroke:none"
           d="m 100,88.075 -8,0 0,8 8,0 0,-8 z" /><path
           id="path126"
           style="fill:#d9d9d9;fill-opacity:1;fill-rule:nonzero;stroke:none"
           d="m 112,88.075 -8,0 0,8 8,0 0,-8 z" /><path
           id="path128"
           style="fill:#d9d9d9;fill-opacity:1;fill-rule:nonzero;stroke:none"
           d="m 124,88.075 -8,0 0,8 8,0 0,-8 z" /><path
           id="path130"
           style="fill:#d9d9d9;fill-opacity:1;fill-rule:nonzero;stroke:none"
           d="m 136,88.075 -8,0 0,8 8,0 0,-8 z" /><path
           id="path132"
           style="fill:#999999;fill-opacity:1;fill-rule:nonzero;stroke:none"
           d="m 204,100.075 -8,0 0,8 8,0 0,-8 z" /><path
           id="path134"
           style="fill:#999999;fill-opacity:1;fill-rule:nonzero;stroke:none"
           d="m 216,100.075 -8,0 0,8 8,0 0,-8 z" /><path
           id="path136"
           style="fill:#999999;fill-opacity:1;fill-rule:nonzero;stroke:none"
           d="m 228,100.075 -8,0 0,8 8,0 0,-8 z" /><path
           id="path138"
           style="fill:#999999;fill-opacity:1;fill-rule:nonzero;stroke:none"
           d="m 240,100.075 -8,0 0,8 8,0 0,-8 z" /><path
           id="path140"
           style="fill:#d9d9d9;fill-opacity:1;fill-rule:nonzero;stroke:none"
           d="m 204,88.075 -8,0 0,8 8,0 0,-8 z" /><path
           id="path142"
           style="fill:#d9d9d9;fill-opacity:1;fill-rule:nonzero;stroke:none"
           d="m 216,88.075 -8,0 0,8 8,0 0,-8 z" /><path
           id="path144"
           style="fill:#d9d9d9;fill-opacity:1;fill-rule:nonzero;stroke:none"
           d="m 228,88.075 -8,0 0,8 8,0 0,-8 z" /><path
           id="path146"
           style="fill:#999999;fill-opacity:1;fill-rule:nonzero;stroke:none"
           d="m 240,88.075 -8,0 0,8 8,0 0,-8 z" /><path
           id="path148"
           style="fill:#d9d9d9;fill-opacity:1;fill-rule:nonzero;stroke:none"
           d="m 204,76.075 -8,0 0,8 8,0 0,-8 z" /><path
           id="path150"
           style="fill:#d9d9d9;fill-opacity:1;fill-rule:nonzero;stroke:none"
           d="m 216,76.075 -8,0 0,8 8,0 0,-8 z" /><path
           id="path152"
           style="fill:#d9d9d9;fill-opacity:1;fill-rule:nonzero;stroke:none"
           d="m 228,76.075 -8,0 0,8 8,0 0,-8 z" /><path
           id="path154"
           style="fill:#d9d9d9;fill-opacity:1;fill-rule:nonzero;stroke:none"
           d="m 204,64.075 -8,0 0,8 8,0 0,-8 z" /><path
           id="path156"
           style="fill:#d9d9d9;fill-opacity:1;fill-rule:nonzero;stroke:none"
           d="m 216,64.075 -8,0 0,8 8,0 0,-8 z" /><path
           id="path158"
           style="fill:#d9d9d9;fill-opacity:1;fill-rule:nonzero;stroke:none"
           d="m 228,64.075 -8,0 0,8 8,0 0,-8 z" /><path
           id="path160"
           style="fill:#999999;fill-opacity:1;fill-rule:nonzero;stroke:none"
           d="m 240,64.075 -8,0 0,20 8,0 0,-20 z" /><path
           id="path162"
           style="fill:#d9d9d9;fill-opacity:1;fill-rule:nonzero;stroke:none"
           d="m 176,76 -8,0 0,8 8,0 0,-8 z" /><path
           id="path164"
           style="fill:#d9d9d9;fill-opacity:1;fill-rule:nonzero;stroke:none"
           d="m 164,64 -8,0 0,8 8,0 0,-8 z" /><path
           id="path166"
           style="fill:#d9d9d9;fill-opacity:1;fill-rule:nonzero;stroke:none"
           d="m 176,64 -8,0 0,8 8,0 0,-8 z" /><path
           id="path168"
           style="fill:#d9d9d9;fill-opacity:1;fill-rule:nonzero;stroke:none"
           d="m 188,64 -8,0 0,8 8,0 0,-8 z" /><g
           transform="translate(140,96.0748)"
           id="g170"><path
             id="path172"
             style="fill:#999999;fill-opacity:1;fill-rule:nonzero;stroke:none"
             d="m 0,0 0,-12 -8,0 0,-8 8,0 8,0 0,20 -8,0 z" /></g><path
           id="path174"
           style="fill:#d9d9d9;fill-opacity:1;fill-rule:nonzero;stroke:none"
           d="m 48,100.075 -8,0 0,8 8,0 0,-8 z" /><path
           id="path176"
           style="fill:#d9d9d9;fill-opacity:1;fill-rule:nonzero;stroke:none"
           d="m 60,100.075 -8,0 0,8 8,0 0,-8 z" /><path
           id="path178"
           style="fill:#d9d9d9;fill-opacity:1;fill-rule:nonzero;stroke:none"
           d="m 72,100.075 -8,0 0,8 8,0 0,-8 z" /><path
           id="path180"
           style="fill:#d9d9d9;fill-opacity:1;fill-rule:nonzero;stroke:none"
           d="m 84,100.075 -8,0 0,8 8,0 0,-8 z" /><path
           id="path182"
           style="fill:#d9d9d9;fill-opacity:1;fill-rule:nonzero;stroke:none"
           d="m 96,100.075 -8,0 0,8 8,0 0,-8 z" /><path
           id="path184"
           style="fill:#d9d9d9;fill-opacity:1;fill-rule:nonzero;stroke:none"
           d="m 108,100.075 -8,0 0,8 8,0 0,-8 z" /><path
           id="path186"
           style="fill:#d9d9d9;fill-opacity:1;fill-rule:nonzero;stroke:none"
           d="m 120,100.075 -8,0 0,8 8,0 0,-8 z" /><path
           id="path188"
           style="fill:#d9d9d9;fill-opacity:1;fill-rule:nonzero;stroke:none"
           d="m 132,100.075 -8,0 0,8 8,0 0,-8 z" /><path
           id="path190"
           style="fill:#999999;fill-opacity:1;fill-rule:nonzero;stroke:none"
           d="m 148,100.075 -12,0 0,8 12,0 0,-8 z" /><path
           id="path192"
           style="fill:#999999;fill-opacity:1;fill-rule:nonzero;stroke:none"
           d="m 24,112 -8,0 0,8 8,0 0,-8 z" /><path
           id="path194"
           style="fill:#999999;fill-opacity:1;fill-rule:nonzero;stroke:none"
           d="m 36,112 -8,0 0,8 8,0 0,-8 z" /><path
           id="path196"
           style="fill:#999999;fill-opacity:1;fill-rule:nonzero;stroke:none"
           d="m 48,112 -8,0 0,8 8,0 0,-8 z" /><path
           id="path198"
           style="fill:#999999;fill-opacity:1;fill-rule:nonzero;stroke:none"
           d="m 60,112 -8,0 0,8 8,0 0,-8 z" /><path
           id="path200"
           style="fill:#999999;fill-opacity:1;fill-rule:nonzero;stroke:none"
           d="m 72,112 -8,0 0,8 8,0 0,-8 z" /><path
           id="path202"
           style="fill:#999999;fill-opacity:1;fill-rule:nonzero;stroke:none"
           d="m 84,112 -8,0 0,8 8,0 0,-8 z" /><path
           id="path204"
           style="fill:#999999;fill-opacity:1;fill-rule:nonzero;stroke:none"
           d="m 96,112 -8,0 0,8 8,0 0,-8 z" /><path
           id="path206"
           style="fill:#999999;fill-opacity:1;fill-rule:nonzero;stroke:none"
           d="m 108,112 -8,0 0,8 8,0 0,-8 z" /><path
           id="path208"
           style="fill:#999999;fill-opacity:1;fill-rule:nonzero;stroke:none"
           d="m 120,112 -8,0 0,8 8,0 0,-8 z" /><path
           id="path210"
           style="fill:#999999;fill-opacity:1;fill-rule:nonzero;stroke:none"
           d="m 132,112 -8,0 0,8 8,0 0,-8 z" /><path
           id="path212"
           style="fill:#999999;fill-opacity:1;fill-rule:nonzero;stroke:none"
           d="m 144,112 -8,0 0,8 8,0 0,-8 z" /><path
           id="path214"
           style="fill:#999999;fill-opacity:1;fill-rule:nonzero;stroke:none"
           d="m 168,100.075 -12,0 0,8 12,0 0,-8 z" /><path
           id="path216"
           style="fill:#999999;fill-opacity:1;fill-rule:nonzero;stroke:none"
           d="m 188,100.075 -12,0 0,8 12,0 0,-8 z" /><path
           id="path218"
           style="fill:#999999;fill-opacity:1;fill-rule:nonzero;stroke:none"
           d="m 32,76.075 -16,0 0,8.075 16,0 0,-8.075 z" /><path
           id="path220"
           style="fill:#999999;fill-opacity:1;fill-rule:nonzero;stroke:none"
           d="m 32,64 -12,0 0,8.075 12,0 L 32,64 Z" /><path
           id="path222"
           style="fill:#999999;fill-opacity:1;fill-rule:nonzero;stroke:none"
           d="m 132,64 -12,0 0,8.075 12,0 0,-8.075 z" /><path
           id="path224"
           style="fill:#999999;fill-opacity:1;fill-rule:nonzero;stroke:none"
           d="m 144,64 -8,0 0,8.075 8,0 0,-8.075 z" /><path
           id="path226"
           style="fill:#d9d9d9;fill-opacity:1;fill-rule:nonzero;stroke:none"
           d="m 116,64 -80,0 0,8.075 80,0 0,-8.075 z" /><path
           id="path228"
           style="fill:#bfbfbf;fill-opacity:1;fill-rule:nonzero;stroke:none"
           d="m 209.205,134.035 -0.919,0 0,3.965 0.919,0 0,-3.965 z" /><path
           id="path230"
           style="fill:#bfbfbf;fill-opacity:1;fill-rule:nonzero;stroke:none"
           d="m 211.028,134.035 -0.919,0 0,2.777 0.919,0 0,-2.777 z m 0,3.41 -0.919,0 0,0.555 0.919,0 0,-0.555 z" /><g
           transform="translate(213.7578,136.321)"
           id="g232"><path
             id="path234"
             style="fill:#bfbfbf;fill-opacity:1;fill-rule:nonzero;stroke:none"
             d="m 0,0 c -0.597,0 -0.895,-0.268 -0.895,-0.805 0,-0.42 0.051,-0.69 0.152,-0.809 0.102,-0.119 0.332,-0.178 0.691,-0.178 0.375,0 0.614,0.054 0.718,0.164 0.105,0.109 0.157,0.36 0.157,0.751 0,0.364 -0.052,0.601 -0.155,0.711 C 0.565,-0.055 0.343,0 0,0 m -1.827,-2.286 0,3.965 0.92,0 0,-1.586 0.02,-0.006 c 0.158,0.293 0.558,0.439 1.2,0.439 0.552,0 0.93,-0.098 1.134,-0.292 0.205,-0.195 0.307,-0.555 0.307,-1.082 0,-0.575 -0.103,-0.964 -0.311,-1.167 -0.207,-0.202 -0.605,-0.303 -1.194,-0.303 -0.597,0 -0.989,0.157 -1.176,0.471 l -0.02,0 0.04,-0.439 -0.92,0 z" /></g><g
           transform="translate(216.3031,136.8119)"
           id="g236"><path
             id="path238"
             style="fill:#bfbfbf;fill-opacity:1;fill-rule:nonzero;stroke:none"
             d="m 0,0 0.919,0 -0.056,-0.389 0.02,-0.003 c 0.22,0.29 0.565,0.436 1.036,0.436 0.675,0 1.012,-0.308 1.012,-0.924 l 0,-0.195 -0.867,0 c 0.01,0.076 0.016,0.125 0.016,0.148 0,0.297 -0.16,0.445 -0.478,0.445 -0.455,0 -0.683,-0.22 -0.683,-0.66 l 0,-1.635 L 0,-2.777 0,0 Z" /></g><g
           transform="translate(222.2248,135.711)"
           id="g240"><path
             id="path242"
             style="fill:#bfbfbf;fill-opacity:1;fill-rule:nonzero;stroke:none"
             d="m 0,0 -0.004,0.11 c 0,0.221 -0.053,0.364 -0.159,0.43 -0.105,0.066 -0.335,0.099 -0.688,0.099 -0.343,0 -0.566,-0.04 -0.669,-0.119 C -1.623,0.441 -1.674,0.267 -1.674,0 L 0,0 Z m -0.008,-0.787 0.923,0 0,-0.108 c 0,-0.542 -0.562,-0.813 -1.686,-0.813 -0.763,0 -1.262,0.094 -1.497,0.282 -0.236,0.188 -0.354,0.586 -0.354,1.194 0,0.54 0.124,0.903 0.37,1.089 0.246,0.186 0.726,0.279 1.441,0.279 0.685,0 1.144,-0.091 1.377,-0.272 0.233,-0.181 0.349,-0.537 0.349,-1.067 l 0,-0.204 -2.597,0 c -0.006,-0.062 -0.008,-0.102 -0.008,-0.122 0,-0.273 0.058,-0.455 0.174,-0.546 0.117,-0.091 0.349,-0.136 0.697,-0.136 0.337,0 0.557,0.026 0.658,0.08 0.102,0.053 0.153,0.168 0.153,0.344" /></g><g
           transform="translate(226.3841,136.8119)"
           id="g244"><path
             id="path246"
             style="fill:#bfbfbf;fill-opacity:1;fill-rule:nonzero;stroke:none"
             d="m 0,0 0,-0.505 -1.477,0 0,-1.395 c 0,-0.257 0.135,-0.386 0.405,-0.386 0.297,0 0.446,0.156 0.446,0.468 l 0,0.11 0.783,0 0,-0.139 c 0,-0.128 -0.006,-0.238 -0.016,-0.329 -0.051,-0.424 -0.488,-0.636 -1.309,-0.636 -0.819,0 -1.229,0.272 -1.229,0.816 l 0,1.491 -0.498,0 0,0.505 0.498,0 0,0.622 0.92,0 L -1.477,0 0,0 Z" /></g><g
           transform="translate(227.0706,136.8119)"
           id="g248"><path
             id="path250"
             style="fill:#bfbfbf;fill-opacity:1;fill-rule:nonzero;stroke:none"
             d="m 0,0 0.919,0 -0.056,-0.389 0.02,-0.003 c 0.22,0.29 0.565,0.436 1.036,0.436 0.675,0 1.012,-0.308 1.012,-0.924 l 0,-0.195 -0.867,0 c 0.01,0.076 0.016,0.125 0.016,0.148 0,0.297 -0.16,0.445 -0.478,0.445 -0.455,0 -0.683,-0.22 -0.683,-0.66 l 0,-1.635 L 0,-2.777 0,0 Z" /></g><g
           transform="translate(232.1894,136.3181)"
           id="g252"><path
             id="path254"
             style="fill:#bfbfbf;fill-opacity:1;fill-rule:nonzero;stroke:none"
             d="m 0,0 c -0.383,0 -0.626,-0.05 -0.731,-0.15 -0.104,-0.099 -0.156,-0.332 -0.156,-0.698 0,-0.419 0.049,-0.68 0.148,-0.785 0.099,-0.104 0.347,-0.156 0.743,-0.156 0.383,0 0.624,0.055 0.725,0.165 0.1,0.111 0.15,0.376 0.15,0.796 0,0.355 -0.052,0.581 -0.156,0.68 C 0.618,-0.049 0.377,0 0,0 m 0.008,0.526 c 0.741,0 1.227,-0.086 1.457,-0.257 0.231,-0.172 0.346,-0.533 0.346,-1.085 0,-0.616 -0.113,-1.02 -0.338,-1.212 -0.224,-0.191 -0.698,-0.287 -1.421,-0.287 -0.784,0 -1.292,0.089 -1.523,0.267 -0.232,0.178 -0.348,0.57 -0.348,1.177 0,0.582 0.114,0.961 0.342,1.135 0.227,0.175 0.722,0.262 1.485,0.262" /></g><g
           transform="translate(203.1429,137)"
           id="g256"><path
             id="path258"
             style="fill:#bfbfbf;fill-opacity:1;fill-rule:nonzero;stroke:none"
             d="M 0,0 2.571,0 1.37,-1 0,-1 0,0 Z" /></g><g
           transform="translate(203.1429,135)"
           id="g260"><path
             id="path262"
             style="fill:#bfbfbf;fill-opacity:1;fill-rule:nonzero;stroke:none"
             d="M 0,0 2.571,0 1.37,1 0,1 0,0 Z" /></g><g
           transform="translate(199.7928,134.9675)"
           id="g264"><path
             id="path266"
             style="fill:#bfbfbf;fill-opacity:1;fill-rule:nonzero;stroke:none"
             d="m 0,0 0,3.032 -1.793,0 0,-3.032 0,-0.412 0,-0.556 5.143,0 L 3.35,0 0,0 Z" /></g></g></g></g></svg>