<?xml version="1.0" encoding="UTF-8" standalone="no"?>
<svg
   xmlns:dc="http://purl.org/dc/elements/1.1/"
   xmlns:cc="http://creativecommons.org/ns#"
   xmlns:rdf="http://www.w3.org/1999/02/22-rdf-syntax-ns#"
   xmlns:svg="http://www.w3.org/2000/svg"
   xmlns="http://www.w3.org/2000/svg"
   viewBox="0 0 341.33334 341.33334"
   height="256"
   width="256"
   xml:space="preserve"
   id="svg2"
   version="1.1"><metadata
     id="metadata8"><rdf:RDF><cc:Work
         rdf:about=""><dc:format>image/svg+xml</dc:format><dc:type
           rdf:resource="http://purl.org/dc/dcmitype/StillImage" /></cc:Work></rdf:RDF></metadata><defs
     id="defs6"><clipPath
       id="clipPath18"
       clipPathUnits="userSpaceOnUse"><path
         id="path16"
         d="M 0,256 H 256 V 0 H 0 Z" /></clipPath></defs><g
     transform="matrix(1.3333333,0,0,-1.3333333,0,341.33333)"
     id="g10"><g
       id="g12"><g
         clip-path="url(#clipPath18)"
         id="g14"><g
           transform="translate(15.7419,173.5714)"
           id="g20"><path
             id="path22"
             style="fill:#191919;fill-opacity:1;fill-rule:nonzero;stroke:none"
             d="m 0,0 h 224.516 c 2.067,0 3.742,-1.7 3.742,-3.798 v -83.547 c 0,-2.098 -1.675,-3.798 -3.742,-3.798 H 0 c -2.067,0 -3.742,1.7 -3.742,3.798 V -3.798 C -3.742,-1.7 -2.067,0 0,0" /></g><g
           transform="translate(23.7241,160)"
           id="g24"><path
             id="path26"
             style="fill:#333333;fill-opacity:1;fill-rule:nonzero;stroke:none"
             d="m 0,0 h 208.552 c 2.057,0 3.724,-1.686 3.724,-3.765 v -56.47 c 0,-2.079 -1.667,-3.765 -3.724,-3.765 H 0 c -2.057,0 -3.724,1.686 -3.724,3.765 v 56.47 C -3.724,-1.686 -2.057,0 0,0" /></g><path
           id="path28"
           style="fill:#999999;fill-opacity:1;fill-rule:nonzero;stroke:none"
           d="M 236,108 H 20 v 4 h 216 z" /><path
           id="path30"
           style="fill:#808080;fill-opacity:1;fill-rule:nonzero;stroke:none"
           d="M 236,104 H 20 v 4 h 216 z" /><g
           transform="translate(148,172.0002)"
           id="g32"><path
             id="path34"
             style="fill:#0d0d0d;fill-opacity:1;fill-rule:nonzero;stroke:none"
             d="m 0,0 h -24 v -17.821 h 0.022 C -23.979,-17.882 -24,-17.939 -24,-18 c 0,-5.523 5.373,-10 12,-10 6.627,0 12,4.477 12,10 0,0.061 -0.02,0.118 -0.022,0.179 H 0 Z" /></g><g
           transform="translate(215.2258,129.8709)"
           id="g36"><path
             id="path38"
             style="fill:#191919;fill-opacity:1;fill-rule:nonzero;stroke:none"
             d="m 0,0 c 0,-5.523 -4.477,-10 -10,-10 -5.523,0 -10,4.477 -10,10 0,5.523 4.477,10 10,10 C -4.477,10 0,5.523 0,0" /></g><g
           transform="translate(90,129.8709)"
           id="g40"><path
             id="path42"
             style="fill:#191919;fill-opacity:1;fill-rule:nonzero;stroke:none"
             d="m 0,0 c 0,-11.046 -8.954,-20 -20,-20 -11.046,0 -20,8.954 -20,20 0,11.046 8.954,20 20,20 C -8.954,20 0,11.046 0,0" /></g><g
           transform="translate(84,130)"
           id="g44"><path
             id="path46"
             style="fill:#262626;fill-opacity:1;fill-rule:nonzero;stroke:none"
             d="m 0,0 c 0,-7.732 -6.268,-14 -14,-14 -7.732,0 -14,6.268 -14,14 0,7.732 6.268,14 14,14 C -6.268,14 0,7.732 0,0" /></g><g
           transform="translate(80,130)"
           id="g48"><path
             id="path50"
             style="fill:#191919;fill-opacity:1;fill-rule:nonzero;stroke:none"
             d="m 0,0 c 0,-5.523 -4.477,-10 -10,-10 -5.523,0 -10,4.477 -10,10 0,5.523 4.477,10 10,10 C -4.477,10 0,5.523 0,0" /></g><g
           transform="translate(76,130)"
           id="g52"><path
             id="path54"
             style="fill:#bfbfbf;fill-opacity:1;fill-rule:nonzero;stroke:none"
             d="m 0,0 c 0,-3.314 -2.686,-6 -6,-6 -3.314,0 -6,2.686 -6,6 0,3.314 2.686,6 6,6 3.314,0 6,-2.686 6,-6" /></g><g
           transform="translate(70,136)"
           id="g56"><path
             id="path58"
             style="fill:#d9d9d9;fill-opacity:1;fill-rule:nonzero;stroke:none"
             d="m 0,0 c -3.314,0 -6,-2.686 -6,-6 0,-3.314 2.686,-6 6,-6 3.314,0 6,2.686 6,6 0,3.314 -2.686,6 -6,6 m 0,-1.292 c 2.596,0 4.708,-2.112 4.708,-4.708 0,-2.596 -2.112,-4.708 -4.708,-4.708 -2.596,0 -4.708,2.112 -4.708,4.708 0,2.596 2.112,4.708 4.708,4.708" /></g><g
           transform="translate(132.3871,129.8709)"
           id="g60"><path
             id="path62"
             style="fill:#191919;fill-opacity:1;fill-rule:nonzero;stroke:none"
             d="m 0,0 c 0,-5.523 -4.477,-10 -10,-10 -5.523,0 -10,4.477 -10,10 0,5.523 4.477,10 10,10 C -4.477,10 0,5.523 0,0" /></g><g
           transform="translate(160,129.8709)"
           id="g64"><path
             id="path66"
             style="fill:#191919;fill-opacity:1;fill-rule:nonzero;stroke:none"
             d="m 0,0 c 0,-5.523 -4.477,-10 -10,-10 -5.523,0 -10,4.477 -10,10 0,5.523 4.477,10 10,10 C -4.477,10 0,5.523 0,0" /></g><g
           transform="translate(187.6129,129.8709)"
           id="g68"><path
             id="path70"
             style="fill:#191919;fill-opacity:1;fill-rule:nonzero;stroke:none"
             d="m 0,0 c 0,-5.523 -4.477,-10 -10,-10 -5.523,0 -10,4.477 -10,10 0,5.523 4.477,10 10,10 C -4.477,10 0,5.523 0,0" /></g><path
           id="path72"
           style="fill:#999999;fill-opacity:1;fill-rule:nonzero;stroke:none"
           d="m 236,148 h -28 v 4 h 28 z" /><path
           id="path74"
           style="fill:#808080;fill-opacity:1;fill-rule:nonzero;stroke:none"
           d="m 236,144 h -28 v 4 h 28 z" /><g
           transform="translate(184,144.003)"
           id="g76"><path
             id="path78"
             style="fill:#999999;fill-opacity:1;fill-rule:nonzero;stroke:none"
             d="M 0,0 H 2.775 V 5.04 H 4.394 L 6.784,8 H 3.855 L 1.388,5.04 0.848,5.44 2.93,8 H 0 Z" /></g><g
           transform="translate(166.8259,144.1345)"
           id="g80"><path
             id="path82"
             style="fill:#999999;fill-opacity:1;fill-rule:nonzero;stroke:none"
             d="m 0,0 h 3.753 v 6.354 h 2.189 l 3.232,3.732 H 5.213 L 1.877,6.354 1.147,6.858 3.962,10.086 H 0 Z" /></g><g
           transform="translate(175.1954,148.774)"
           id="g84"><path
             id="path86"
             style="fill:#999999;fill-opacity:1;fill-rule:nonzero;stroke:none"
             d="m 0,0 c 0.481,0.567 1.201,0.175 1.201,0.175 l -1.31,-1.419 c 0,0 -0.371,0.677 0.109,1.244 M 4.174,1.247 C 4.038,1.095 2.333,-0.81 1.725,-1.418 1.092,-2.051 0.59,-1.789 0.59,-1.789 L 3.853,1.723 C 3.119,2.616 2.051,3.22 0.805,3.22 c -2.209,0 -4,-1.789 -4,-3.997 0,-2.207 1.791,-3.997 4,-3.997 2.209,0 4,1.79 4,3.997 0,0.756 -0.267,1.422 -0.631,2.024" /></g><g
           transform="translate(192.6954,148.7801)"
           id="g88"><path
             id="path90"
             style="fill:#999999;fill-opacity:1;fill-rule:nonzero;stroke:none"
             d="m 0,0 c 0.481,0.567 1.201,0.175 1.201,0.175 l -1.31,-1.419 c 0,0 -0.371,0.677 0.109,1.244 M 4.174,1.247 C 4.038,1.095 2.333,-0.81 1.725,-1.418 1.092,-2.051 0.59,-1.789 0.59,-1.789 L 3.853,1.723 C 3.119,2.616 2.051,3.22 0.805,3.22 c -2.209,0 -4,-1.789 -4,-3.997 0,-2.207 1.791,-3.997 4,-3.997 2.209,0 4,1.79 4,3.997 0,0.756 -0.267,1.422 -0.631,2.024" /></g><g
           transform="translate(176.9652,151.4583)"
           id="g92"><path
             id="path94"
             style="fill:#999999;fill-opacity:1;fill-rule:nonzero;stroke:none"
             d="m 0,0 c 0.21,-0.059 6.2,6.407 6.2,6.407 v -3.78 h 4.005 L 7.419,-0.247 H 6.243 v -7.211 h -2.83 v 6.932 L 4.894,1.269 4.589,1.578 2.775,-0.191 h -3.062 z" /></g><g
           transform="translate(196,152.003)"
           id="g96"><path
             id="path98"
             style="fill:#999999;fill-opacity:1;fill-rule:nonzero;stroke:none"
             d="m 0,0 h 6.043 l -2,-2.591 L 4.426,-2.878 6.723,0 H 10 L 6.638,-4 10,-8 H 4.043 l 1.914,2.359 -0.354,0.361 c 0,0 -2.199,-2.744 -2.27,-2.72 -0.071,0.025 -3.234,0 -3.234,0 l 3.263,4 z" /></g></g></g></g></svg>