<?xml version="1.0" encoding="UTF-8" standalone="no"?>
<svg
   xmlns:dc="http://purl.org/dc/elements/1.1/"
   xmlns:cc="http://creativecommons.org/ns#"
   xmlns:rdf="http://www.w3.org/1999/02/22-rdf-syntax-ns#"
   xmlns:svg="http://www.w3.org/2000/svg"
   xmlns="http://www.w3.org/2000/svg"
   viewBox="0 0 320 320"
   height="320"
   width="320"
   xml:space="preserve"
   version="1.1"
   id="svg2"><metadata
     id="metadata8"><rdf:RDF><cc:Work
         rdf:about=""><dc:format>image/svg+xml</dc:format><dc:type
           rdf:resource="http://purl.org/dc/dcmitype/StillImage" /></cc:Work></rdf:RDF></metadata><defs
     id="defs6"><clipPath
       id="clipPath16"
       clipPathUnits="userSpaceOnUse"><path
         id="path18"
         d="M 0,256 256,256 256,0 0,0 0,256 Z" /></clipPath><clipPath
       id="clipPath24"
       clipPathUnits="userSpaceOnUse"><path
         id="path26"
         d="M 4,212 252,212 252,44 4,44 4,212 Z" /></clipPath><clipPath
       id="clipPath44"
       clipPathUnits="userSpaceOnUse"><path
         id="path46"
         d="M 0,256 256,256 256,0 0,0 0,256 Z" /></clipPath></defs><g
     transform="matrix(1.25,0,0,-1.25,0,320)"
     id="g10"><g
       id="g12"><g
         clip-path="url(#clipPath16)"
         id="g14"><g
           id="g20"><g
             id="g22" /><g
             id="g28"><g
               style="opacity:0.5"
               id="g30"
               clip-path="url(#clipPath24)"><g
                 id="g32"
                 transform="translate(244,212)"><path
                   id="path34"
                   style="fill:#ffffff;fill-opacity:1;fill-rule:nonzero;stroke:none"
                   d="M 0,0 -6.121,0 -225.879,0 -232,0 c -4.418,0 -8,-3.582 -8,-8 l 0,-6.152 0,-139.696 0,-6.152 c 0,-4.418 3.582,-8 8,-8 l 6.121,0 219.758,0 6.121,0 c 4.418,0 8,3.582 8,8 l 0,6.152 L 8,-14.152 8,-8 C 8,-3.582 4.418,0 0,0" /></g></g></g></g></g></g><g
       transform="translate(244,204)"
       id="g36"><path
         id="path38"
         style="fill:#7b0000;fill-opacity:1;fill-rule:nonzero;stroke:none"
         d="m 0,0 -6.121,0 -219.758,0 -6.121,0 0,-6.152 0,-139.696 0,-6.152 6.121,0 219.758,0 6.121,0 0,6.152 L 0,-6.152 0,0 Z" /></g><g
       id="g40"><g
         clip-path="url(#clipPath44)"
         id="g42"><g
           transform="translate(231.2493,60)"
           id="g48"><path
             id="path50"
             style="fill:#d9d9d9;fill-opacity:1;fill-rule:nonzero;stroke:none"
             d="m 0,0 -206.499,0 c -2.623,0 -4.75,2.117 -4.75,4.729 l 0,126.542 c 0,2.612 2.127,4.729 4.75,4.729 L 0,136 c 2.624,0 4.751,-2.117 4.751,-4.729 l 0,-126.542 C 4.751,2.117 2.624,0 0,0" /></g><g
           transform="translate(36.6223,178.0304)"
           id="g52"><path
             id="path54"
             style="fill:#191919;fill-opacity:1;fill-rule:nonzero;stroke:none"
             d="m 0,0 c -0.204,-0.595 -0.591,-1.08 -1.161,-1.453 -0.551,-0.361 -1.151,-0.541 -1.8,-0.541 -0.623,0 -1.195,0.158 -1.716,0.473 -0.528,0.318 -0.928,0.752 -1.199,1.302 -0.206,0.418 -0.31,0.851 -0.31,1.297 0,0.833 0.305,1.547 0.916,2.142 0.633,0.618 1.394,0.927 2.282,0.927 0.59,0 1.147,-0.148 1.67,-0.443 0.557,-0.315 0.975,-0.784 1.253,-1.407 l -0.911,0 c -0.166,0.247 -0.318,0.428 -0.456,0.545 -0.431,0.368 -0.949,0.552 -1.553,0.552 -0.659,0 -1.224,-0.23 -1.694,-0.689 -0.471,-0.46 -0.706,-1.009 -0.706,-1.647 0,-0.414 0.109,-0.803 0.327,-1.167 0.218,-0.363 0.513,-0.647 0.884,-0.85 0.371,-0.203 0.77,-0.305 1.196,-0.305 0.597,0 1.112,0.187 1.546,0.562 0.316,0.27 0.536,0.574 0.658,0.91 l -3.19,0 -0.027,0.73 4.186,0 C 0.137,0.52 0.072,0.207 0,0" /></g><g
           transform="translate(39.4149,178.7607)"
           id="g56"><path
             id="path58"
             style="fill:#191919;fill-opacity:1;fill-rule:nonzero;stroke:none"
             d="m 0,0 1.486,0 0,2.142 L 0,0 Z m -1.819,-2.637 -0.961,0 4.134,5.963 0.944,0 0,-5.963 -0.812,0 0,1.892 -1.997,0 -1.308,-1.892 z" /></g><g
           transform="translate(42.7048,176.1235)"
           id="g60"><path
             id="path62"
             style="fill:#191919;fill-opacity:1;fill-rule:nonzero;stroke:none"
             d="m 0,0 0,5.963 1.089,0 2.03,-4.713 2.041,4.713 1.087,0 0,-5.963 -0.812,0 0,4.695 L 3.44,0 2.792,0 0.812,4.691 0.812,0 0,0 Z" /></g><g
           transform="translate(53.2687,182.0865)"
           id="g64"><path
             id="path66"
             style="fill:#191919;fill-opacity:1;fill-rule:nonzero;stroke:none"
             d="m 0,0 0,-0.749 -2.593,0 0,-1.831 2.509,0 0,-0.75 -2.509,0 0,-1.888 2.593,0 0,-0.745 -3.405,0 0,5.963 L 0,0 Z" /></g><g
           transform="translate(41.4561,174.3064)"
           id="g68"><path
             id="path70"
             style="fill:#191919;fill-opacity:1;fill-rule:nonzero;stroke:none"
             d="m 0,0 c -0.186,0 -0.346,-0.054 -0.481,-0.163 -0.14,-0.116 -0.21,-0.26 -0.21,-0.431 0,-0.214 0.192,-0.496 0.576,-0.844 0.527,0.21 0.791,0.478 0.791,0.806 0,0.179 -0.066,0.329 -0.198,0.45 C 0.345,-0.061 0.186,0 0,0 m -0.308,-4.612 c 0.281,0 0.527,0.103 0.739,0.31 0.153,0.149 0.313,0.382 0.479,0.7 l -1.276,1.226 c -0.682,-0.288 -1.022,-0.68 -1.022,-1.177 0,-0.295 0.104,-0.545 0.314,-0.751 0.209,-0.205 0.464,-0.308 0.766,-0.308 M 1.929,-3.42 3.418,-4.856 2.836,-5.411 1.542,-4.158 c -0.45,-0.8 -1.061,-1.2 -1.835,-1.2 -0.523,0 -0.968,0.181 -1.335,0.543 -0.366,0.362 -0.55,0.802 -0.55,1.319 0,0.726 0.418,1.301 1.253,1.725 -0.378,0.381 -0.567,0.767 -0.567,1.158 0,0.535 0.252,0.932 0.755,1.192 C -0.5,0.7 -0.252,0.761 0.006,0.761 0.274,0.761 0.527,0.694 0.764,0.562 1.002,0.429 1.187,0.25 1.32,0.023 c 0.132,-0.227 0.199,-0.458 0.199,-0.692 0,-0.613 -0.344,-1.064 -1.03,-1.351 l 0.86,-0.838 0.785,1.549 0.917,0 -1.122,-2.111 z" /></g><g
           transform="translate(31.9857,167.8805)"
           id="g72"><path
             id="path74"
             style="fill:#191919;fill-opacity:1;fill-rule:nonzero;stroke:none"
             d="M 0,0 C 0.738,0 1.328,-0.135 1.77,-0.405 2.306,-0.733 2.574,-1.241 2.574,-1.93 2.574,-2.616 2.302,-3.13 1.757,-3.47 1.528,-3.617 1.262,-3.716 0.96,-3.769 l 1.661,-2.164 -1.02,0 -2.141,2.823 c 0.609,0 0.97,0.004 1.082,0.011 0.354,0.023 0.639,0.129 0.853,0.318 0.252,0.219 0.378,0.501 0.378,0.844 0,0.401 -0.159,0.712 -0.478,0.934 -0.242,0.169 -0.629,0.254 -1.162,0.254 l -0.895,0 0,-5.214 -0.828,0 L -1.59,0 0,0 Z" /></g><g
           transform="translate(38.5777,167.8805)"
           id="g76"><path
             id="path78"
             style="fill:#191919;fill-opacity:1;fill-rule:nonzero;stroke:none"
             d="m 0,0 0,-0.749 -2.593,0 0,-1.831 2.509,0 0,-0.75 -2.509,0 0,-1.888 2.593,0 0,-0.745 -3.405,0 0,5.963 L 0,0 Z" /></g><g
           transform="translate(38.8802,167.1313)"
           id="g80"><path
             id="path82"
             style="fill:#191919;fill-opacity:1;fill-rule:nonzero;stroke:none"
             d="m 0,0 0,0.749 3.47,0 0,-0.749 -1.325,0 0,-5.214 -0.812,0 L 1.333,0 0,0 Z" /></g><g
           transform="translate(44.2924,167.8805)"
           id="g84"><path
             id="path86"
             style="fill:#191919;fill-opacity:1;fill-rule:nonzero;stroke:none"
             d="M 0,0 C 0.738,0 1.328,-0.135 1.77,-0.405 2.306,-0.733 2.574,-1.241 2.574,-1.93 2.574,-2.616 2.302,-3.13 1.757,-3.47 1.528,-3.617 1.262,-3.716 0.96,-3.769 l 1.661,-2.164 -1.02,0 -2.141,2.823 c 0.609,0 0.97,0.004 1.082,0.011 0.354,0.023 0.639,0.129 0.853,0.318 0.252,0.219 0.378,0.501 0.378,0.844 0,0.401 -0.159,0.712 -0.478,0.934 -0.242,0.169 -0.629,0.254 -1.162,0.254 l -0.895,0 0,-5.214 -0.828,0 L -1.59,0 0,0 Z" /></g><g
           transform="translate(52.788,164.8573)"
           id="g88"><path
             id="path90"
             style="fill:#191919;fill-opacity:1;fill-rule:nonzero;stroke:none"
             d="m 0,0 c 0,0.53 -0.156,0.995 -0.467,1.396 -0.488,0.628 -1.117,0.942 -1.889,0.942 -0.658,0 -1.225,-0.234 -1.7,-0.703 C -4.495,1.201 -4.715,0.646 -4.715,-0.03 l -0.019,-0.038 c 0.007,-0.631 0.243,-1.165 0.706,-1.602 0.464,-0.438 1.016,-0.657 1.657,-0.657 0.656,0 1.216,0.229 1.678,0.687 C -0.231,-1.182 0,-0.636 0,0 m -5.496,-0.306 -0.031,-0.038 c 0,1.079 0.294,1.909 0.881,2.489 0.641,0.633 1.406,0.95 2.294,0.95 0.876,0 1.623,-0.299 2.241,-0.897 C 0.507,1.6 0.816,0.879 0.816,0.034 c 0,-0.853 -0.3,-1.568 -0.9,-2.145 -0.636,-0.616 -1.392,-0.924 -2.268,-0.924 -0.876,0 -1.624,0.306 -2.244,0.916 -0.524,0.512 -0.824,1.116 -0.9,1.813" /></g><path
           id="path92"
           style="fill:#191919;fill-opacity:1;fill-rule:nonzero;stroke:none"
           d="m 28.654,160.646 26.693,0 0,22.709 -26.693,0 0,-22.709 z M 56,160 l -28,0 0,24 28,0 0,-24 z" /><g
           transform="translate(189.1738,80)"
           id="g94"><path
             id="path96"
             style="fill:#cccccc;fill-opacity:1;fill-rule:nonzero;stroke:none"
             d="m 0,0 -122.348,0 c -2.665,0 -4.826,2.165 -4.826,4.835 l 0,98.33 c 0,2.67 2.161,4.835 4.826,4.835 L 0,108 c 2.665,0 4.826,-2.165 4.826,-4.835 l 0,-98.33 C 4.826,2.165 2.665,0 0,0" /></g><g
           transform="translate(180.1631,172)"
           id="g98"><path
             id="path100"
             style="fill:#7b0000;fill-opacity:1;fill-rule:nonzero;stroke:none"
             d="m 0,0 -104.326,0 c -2.119,0 -3.837,-1.691 -3.837,-3.776 l 0,-68.448 c 0,-2.085 1.718,-3.776 3.837,-3.776 L 0,-76 c 2.119,0 3.837,1.691 3.837,3.776 l 0,68.448 C 3.837,-1.691 2.119,0 0,0" /></g><path
           id="path102"
           style="fill:#91a08d;fill-opacity:1;fill-rule:nonzero;stroke:none"
           d="m 180,100 -104,0 0,68 104,0 0,-68 z" /><g
           transform="translate(92,74)"
           id="g104"><path
             id="path106"
             style="fill:#191919;fill-opacity:1;fill-rule:nonzero;stroke:none"
             d="m 0,0 c 0,-1.105 -0.895,-2 -2,-2 -1.105,0 -2,0.895 -2,2 0,1.105 0.895,2 2,2 1.105,0 2,-0.895 2,-2" /></g><g
           transform="translate(38,104)"
           id="g108"><path
             id="path110"
             style="fill:#7b0000;fill-opacity:1;fill-rule:nonzero;stroke:none"
             d="m 0,0 c -5.514,0 -10,-4.486 -10,-10 0,-5.514 4.486,-10 10,-10 5.514,0 10,4.486 10,10 C 10,-4.486 5.514,0 0,0" /></g><g
           transform="translate(46,94)"
           id="g112"><path
             id="path114"
             style="fill:#ff0000;fill-opacity:1;fill-rule:nonzero;stroke:none"
             d="m 0,0 c 0,-4.418 -3.582,-8 -8,-8 -4.418,0 -8,3.582 -8,8 0,4.418 3.582,8 8,8 4.418,0 8,-3.582 8,-8" /></g><g
           transform="translate(214,104)"
           id="g116"><path
             id="path118"
             style="fill:#7b0000;fill-opacity:1;fill-rule:nonzero;stroke:none"
             d="m 0,0 c -5.514,0 -10,-4.486 -10,-10 0,-5.514 4.486,-10 10,-10 5.514,0 10,4.486 10,10 C 10,-4.486 5.514,0 0,0" /></g><g
           transform="translate(222,94)"
           id="g120"><path
             id="path122"
             style="fill:#ff0000;fill-opacity:1;fill-rule:nonzero;stroke:none"
             d="m 0,0 c 0,-4.418 -3.582,-8 -8,-8 -4.418,0 -8,3.582 -8,8 0,4.418 3.582,8 8,8 4.418,0 8,-3.582 8,-8" /></g><g
           transform="translate(134.1389,76)"
           id="g124"><path
             id="path126"
             style="fill:#7b0000;fill-opacity:1;fill-rule:nonzero;stroke:none"
             d="m 0,0 -4.278,0 c -3.232,0 -5.861,-2.692 -5.861,-6 0,-3.308 2.629,-6 5.861,-6 L 0,-12 c 3.232,0 5.861,2.692 5.861,6 0,3.308 -2.629,6 -5.861,6" /></g><g
           transform="translate(134.453,66)"
           id="g128"><path
             id="path130"
             style="fill:#8c8c8c;fill-opacity:1;fill-rule:nonzero;stroke:none"
             d="m 0,0 -4.906,0 c -1.959,0 -3.547,1.697 -3.547,3.79 l 0,0.42 c 0,2.093 1.588,3.79 3.547,3.79 L 0,8 C 1.959,8 3.547,6.303 3.547,4.21 l 0,-0.42 C 3.547,1.697 1.959,0 0,0" /></g><g
           transform="translate(158.1389,76)"
           id="g132"><path
             id="path134"
             style="fill:#7b0000;fill-opacity:1;fill-rule:nonzero;stroke:none"
             d="m 0,0 -4.278,0 c -3.232,0 -5.861,-2.692 -5.861,-6 0,-3.308 2.629,-6 5.861,-6 L 0,-12 c 3.232,0 5.861,2.692 5.861,6 0,3.308 -2.629,6 -5.861,6" /></g><g
           transform="translate(158.453,66)"
           id="g136"><path
             id="path138"
             style="fill:#8c8c8c;fill-opacity:1;fill-rule:nonzero;stroke:none"
             d="m 0,0 -4.906,0 c -1.959,0 -3.547,1.697 -3.547,3.79 l 0,0.42 c 0,2.093 1.588,3.79 3.547,3.79 L 0,8 C 1.959,8 3.547,6.303 3.547,4.21 l 0,-0.42 C 3.547,1.697 1.959,0 0,0" /></g><g
           transform="translate(182.1389,76)"
           id="g140"><path
             id="path142"
             style="fill:#7b0000;fill-opacity:1;fill-rule:nonzero;stroke:none"
             d="m 0,0 -4.278,0 c -3.232,0 -5.861,-2.692 -5.861,-6 0,-3.308 2.629,-6 5.861,-6 L 0,-12 c 3.232,0 5.861,2.692 5.861,6 0,3.308 -2.629,6 -5.861,6" /></g><g
           transform="translate(182.453,66)"
           id="g144"><path
             id="path146"
             style="fill:#8c8c8c;fill-opacity:1;fill-rule:nonzero;stroke:none"
             d="m 0,0 -4.906,0 c -1.959,0 -3.547,1.697 -3.547,3.79 l 0,0.42 c 0,2.093 1.588,3.79 3.547,3.79 L 0,8 C 1.959,8 3.547,6.303 3.547,4.21 l 0,-0.42 C 3.547,1.697 1.959,0 0,0" /></g></g></g></g></svg>