<?xml version="1.0" encoding="UTF-8" standalone="no"?>
<svg
   xmlns:dc="http://purl.org/dc/elements/1.1/"
   xmlns:cc="http://creativecommons.org/ns#"
   xmlns:rdf="http://www.w3.org/1999/02/22-rdf-syntax-ns#"
   xmlns:svg="http://www.w3.org/2000/svg"
   xmlns="http://www.w3.org/2000/svg"
   viewBox="0 0 320 320"
   height="320"
   width="320"
   xml:space="preserve"
   version="1.1"
   id="svg2"><metadata
     id="metadata8"><rdf:RDF><cc:Work
         rdf:about=""><dc:format>image/svg+xml</dc:format><dc:type
           rdf:resource="http://purl.org/dc/dcmitype/StillImage" /></cc:Work></rdf:RDF></metadata><defs
     id="defs6"><clipPath
       id="clipPath16"
       clipPathUnits="userSpaceOnUse"><path
         id="path18"
         d="M 0,256 256,256 256,0 0,0 0,256 Z" /></clipPath><clipPath
       id="clipPath24"
       clipPathUnits="userSpaceOnUse"><path
         id="path26"
         d="M 44,252 212,252 212,4 44,4 44,252 Z" /></clipPath><clipPath
       id="clipPath46"
       clipPathUnits="userSpaceOnUse"><path
         id="path48"
         d="M 0,256 256,256 256,0 0,0 0,256 Z" /></clipPath></defs><g
     transform="matrix(1.25,0,0,-1.25,0,320)"
     id="g10"><g
       id="g12"><g
         clip-path="url(#clipPath16)"
         id="g14"><g
           id="g20"><g
             id="g22" /><g
             id="g28"><g
               style="opacity:0.5"
               id="g30"
               clip-path="url(#clipPath24)"><g
                 id="g32"
                 transform="translate(87.1819,220)"><path
                   id="path34"
                   style="fill:#ffffff;fill-opacity:1;fill-rule:nonzero;stroke:none"
                   d="m 0,0 15.812,0 3.006,0 44,0 7.846,0 10.972,0 1.979,-18 -85.594,0 L 0,0 Z m 124.715,-24.714 c -0.897,10.241 -7.963,41.406 -8.787,45.017 -0.007,0.032 -0.014,0.064 -0.022,0.096 C 114.155,27.663 106.704,32 95.974,32 l 0,0 c -0.194,0 -0.345,-0.002 -0.447,-0.004 l -24.863,0 -7.846,0 -44,0 -3.006,0 -29.702,0 c -0.102,0.002 -0.253,0.004 -0.448,0.004 -10.73,0 -18.181,-4.337 -19.932,-11.601 -0.007,-0.032 -0.015,-0.064 -0.022,-0.096 -0.824,-3.612 -7.894,-34.797 -8.788,-45.028 -0.067,-0.415 -0.102,-0.841 -0.102,-1.275 l 0,-182 c 0,-4.418 3.582,-8 8,-8 l 36,0 20,0 96,0 c 4.418,0 8,3.582 8,8 l 0,182 c 0,0.438 -0.035,0.867 -0.103,1.286" /></g></g></g></g></g></g><path
       id="path36"
       style="fill:#262626;fill-opacity:1;fill-rule:nonzero;stroke:none"
       d="m 157.846,228 -54.852,0 0,15.996 54.852,0 0,-15.996 z" /><path
       id="path38"
       style="fill:#262626;fill-opacity:1;fill-rule:nonzero;stroke:none"
       d="m 204,12 -152,0 0,182 152,0 0,-182 z" /><path
       id="path40"
       style="fill:#191919;fill-opacity:1;fill-rule:nonzero;stroke:none"
       d="m 108,12 -20,0 0,20 20,0 0,-20 z" /><g
       id="g42"><g
         clip-path="url(#clipPath46)"
         id="g44"><g
           transform="translate(196.3853,54.4045)"
           id="g50"><path
             id="path52"
             style="fill:#262626;fill-opacity:1;fill-rule:nonzero;stroke:none"
             d="m 0,0 c 0,-2.949 -2.762,-5.333 -6.178,-5.333 l -123.559,0 c -3.416,0 -6.178,2.384 -6.178,5.333 l 0,122.668 c 0,2.949 2.762,5.333 6.178,5.333 l 123.559,0 c 3.416,0 6.178,-2.384 6.178,-5.333 L 0,0 Z" /></g><g
           transform="translate(190.2462,184)"
           id="g54"><path
             id="path56"
             style="fill:#191919;fill-opacity:1;fill-rule:nonzero;stroke:none"
             d="m 0,0 -123.636,0 c -3.419,0 -6.182,-2.36 -6.182,-5.28 l 0,-121.44 c 0,-2.92 2.763,-5.28 6.182,-5.28 L 0,-132 c 3.419,0 6.182,2.36 6.182,5.28 l 0,121.44 C 6.182,-2.36 3.419,0 0,0 m 0,-2 c 2.306,0 4.182,-1.471 4.182,-3.28 l 0,-121.44 C 4.182,-128.529 2.306,-130 0,-130 l -123.636,0 c -2.306,0 -4.182,1.471 -4.182,3.28 l 0,121.44 c 0,1.809 1.876,3.28 4.182,3.28 L 0,-2" /></g><g
           transform="translate(60.6894,238.5244)"
           id="g58"><path
             id="path60"
             style="fill:#333333;fill-opacity:1;fill-rule:nonzero;stroke:none"
             d="m 0,0 c 0,0 -10.611,-46.524 -8.382,-46.524 l 23.748,0 3.958,36 25.987,0 0,15.996 -32.804,0 C 12.507,5.472 1.403,5.819 0,0" /></g><g
           transform="translate(195.3106,238.5244)"
           id="g62"><path
             id="path64"
             style="fill:#333333;fill-opacity:1;fill-rule:nonzero;stroke:none"
             d="m 0,0 c 0,0 10.611,-46.524 8.382,-46.524 l -23.748,0 -3.958,36 -25.987,0 0,15.996 32.804,0 c 0,0 11.104,0.347 12.507,-5.472" /></g><path
           id="path66"
           style="fill:#ffffff;fill-opacity:1;fill-rule:nonzero;stroke:none"
           d="m 180,156 -104,0 0,2 104,0 0,-2 z" /><path
           id="path68"
           style="fill:#ffffff;fill-opacity:1;fill-rule:nonzero;stroke:none"
           d="m 180,172 -104,0 0,2 104,0 0,-2 z" /><g
           transform="translate(105.4089,128.1251)"
           id="g70"><path
             id="path72"
             style="fill:#f39b11;fill-opacity:1;fill-rule:nonzero;stroke:none"
             d="m 0,0 -3.631,0 -10.584,19.875 5.096,0 L 0,0 Z" /></g><g
           transform="translate(91.9956,131.9392)"
           id="g74"><path
             id="path76"
             style="fill:#f39b11;fill-opacity:1;fill-rule:nonzero;stroke:none"
             d="m 0,0 -10.899,16.061 -5.097,0 14.954,-19.875 1.815,0 1.815,0 5.581,0 L 6.013,0 0,0 Z" /></g><g
           transform="translate(165.1513,131.9392)"
           id="g78"><path
             id="path80"
             style="fill:#f39b11;fill-opacity:1;fill-rule:nonzero;stroke:none"
             d="m 0,0 -1.944,0 6.454,9.726 2.301,0 L 0,0 Z m 11.247,16.061 -2.533,0 -4.246,0 -0.85,0 -11.724,-19.875 0.606,0 3.025,0 1.804,0 2.566,0 2.87,3.814 7.317,9.726 4.767,6.335 -3.602,0 z" /></g><g
           transform="translate(152.6896,148)"
           id="g82"><path
             id="path84"
             style="fill:#f39b11;fill-opacity:1;fill-rule:nonzero;stroke:none"
             d="m 0,0 -2.642,0 -5.097,0 -2.642,0 -1.312,-6.335 2.401,0 -3.321,-13.54 3.631,0 4.319,13.54 2.4,0 L 0,0 Z" /></g><g
           transform="translate(118.6839,141.665)"
           id="g86"><path
             id="path88"
             style="fill:#f39b11;fill-opacity:1;fill-rule:nonzero;stroke:none"
             d="m 0,0 3.415,0 0.258,-2.751 -3.265,0 L 0,0 Z m 7.613,-13.485 -2.301,5.897 1.692,0 L 6.802,-2.751 6.686,0 6.421,6.335 l -12.457,0 4.415,-19.875 3.63,0 -0.883,5.952 1.274,0 2.613,-5.898 2.6,0.001 z" /></g><g
           transform="translate(156.4705,141.665)"
           id="g90"><path
             id="path92"
             style="fill:#f39b11;fill-opacity:1;fill-rule:nonzero;stroke:none"
             d="m 0,0 3.415,0 -1.398,-2.751 -3.265,0 L 0,0 Z m -0.504,-13.485 1.249,5.897 1.692,0 2.709,4.837 1.54,2.751 3.548,6.335 -12.457,0 -7.548,-19.875 3.631,0 2.699,5.952 1.274,0 -0.938,-5.898 2.601,0.001 z" /></g><g
           transform="translate(138.6512,141.665)"
           id="g94"><path
             id="path96"
             style="fill:#f39b11;fill-opacity:1;fill-rule:nonzero;stroke:none"
             d="m 0,0 1.075,6.335 -7.361,0 -3.02,0 -2.077,0 0.211,-19.875 1.479,0 2.151,0 5.245,0 0.647,3.814 -5.651,0 0.135,2.138 5.879,0 0.82,4.837 -6.393,0 L -6.686,0 0,0 Z" /></g><g
           transform="translate(109.6256,138.9139)"
           id="g98"><path
             id="path100"
             style="fill:#f39b11;fill-opacity:1;fill-rule:nonzero;stroke:none"
             d="m 0,0 -3.265,0 -0.992,2.751 3.415,0 L 0,0 Z m 2.135,-6.975 -2.886,0 -0.77,2.138 3.002,0 0.654,-2.138 z M 1.318,-2.486 3.112,0.065 2.43,2.751 0.821,9.086 l -12.457,0 8.63,-19.875 8.875,0 L 4.9,-6.975 4.357,-4.837 4.355,-4.83 1.318,-2.486 Z" /></g><g
           transform="translate(109.2801,112)"
           id="g102"><path
             id="path104"
             style="fill:#f1c40f;fill-opacity:1;fill-rule:nonzero;stroke:none"
             d="m 0,0 -6.195,0 -12.132,16.125 9.211,0 L 0,0 Z" /></g><g
           transform="translate(112.807,112)"
           id="g106"><path
             id="path108"
             style="fill:#f1c40f;fill-opacity:1;fill-rule:nonzero;stroke:none"
             d="m 0,0 -2.442,0 -8.587,16.125 3.631,0 L 0,0 Z" /></g><g
           transform="translate(119.5896,112)"
           id="g110"><path
             id="path112"
             style="fill:#f1c40f;fill-opacity:1;fill-rule:nonzero;stroke:none"
             d="m 0,0 -5.969,0 -7.001,16.125 8.875,0 L 0,0 Z" /></g><g
           transform="translate(123.086,112)"
           id="g114"><path
             id="path116"
             style="fill:#f1c40f;fill-opacity:1;fill-rule:nonzero;stroke:none"
             d="m 0,0 -2.442,0 -3.582,16.125 3.631,0 L 0,0 Z" /></g><g
           transform="translate(126.8559,112)"
           id="g118"><path
             id="path120"
             style="fill:#f1c40f;fill-opacity:1;fill-rule:nonzero;stroke:none"
             d="m 0,0 -1.747,0 -1.412,16.179 2.6,0 L 0,0 Z" /></g><g
           transform="translate(127.6496,112)"
           id="g122"><path
             id="path124"
             style="fill:#f1c40f;fill-opacity:1;fill-rule:nonzero;stroke:none"
             d="m 0,0 5.969,0 2.735,16.125 -8.875,0 L 0,0 Z" /></g><g
           transform="translate(138.5289,112)"
           id="g126"><path
             id="path128"
             style="fill:#f1c40f;fill-opacity:1;fill-rule:nonzero;stroke:none"
             d="m 0,0 -2.407,0 3.955,16.125 3.579,0 L 0,0 Z" /></g><g
           transform="translate(143.0175,112)"
           id="g130"><path
             id="path132"
             style="fill:#f1c40f;fill-opacity:1;fill-rule:nonzero;stroke:none"
             d="m 0,0 -2.442,0 6.124,16.125 3.631,0 L 0,0 Z" /></g><g
           transform="translate(146.7875,112)"
           id="g134"><path
             id="path136"
             style="fill:#f1c40f;fill-opacity:1;fill-rule:nonzero;stroke:none"
             d="m 0,0 -1.747,0 8.325,16.179 2.601,0 L 0,0 Z" /></g><g
           transform="translate(147.5338,112)"
           id="g138"><path
             id="path140"
             style="fill:#f1c40f;fill-opacity:1;fill-rule:nonzero;stroke:none"
             d="m 0,0 5.381,0 12.132,16.125 -8.001,0 L 0,0 Z" /></g><g
           transform="translate(138.9677,68)"
           id="g142"><path
             id="path144"
             style="fill:#3b96cc;fill-opacity:1;fill-rule:nonzero;stroke:none"
             d="m 0,0 2.581,0 0,-1.368 1.291,0 0,-0.966 1.292,0 0,0.969 1.288,0 0,1.365 2.58,0 0,-8 -2.58,0 0,4.873 -1.292,0 0,-1.354 -1.292,0 0,1.353 -1.287,0 L 2.581,-8 0,-8 0,0 Z" /></g><path
           id="path146"
           style="fill:#ff0000;fill-opacity:1;fill-rule:nonzero;stroke:none"
           d="m 110.588,60.983 3.858,0 0,6.037 -3.858,0 0,-6.037 z m 5.154,-0.983 -6.452,0 0,1.171 -1.29,0 0,5.658 1.29,0 0,1.171 6.452,0 0,-1.176 1.285,0 0,-5.655 -1.285,0 0,-1.169 z" /><g
           transform="translate(137.6774,68)"
           id="g148"><path
             id="path150"
             style="fill:#f1c40f;fill-opacity:1;fill-rule:nonzero;stroke:none"
             d="m 0,0 0,-0.974 -6.446,0 0,-2.533 3.858,0 0,-0.979 -3.858,0 0,-2.533 6.446,0 0,-0.981 -9.032,0 0,8 L 0,0 Z" /></g><g
           transform="translate(119.6129,60)"
           id="g152"><path
             id="path154"
             style="fill:#00ff00;fill-opacity:1;fill-rule:nonzero;stroke:none"
             d="m 0,0 0,2.145 1.288,0 0,1.169 1.288,0 0,1.169 1.292,0 0,1.172 1.285,0 0,1.363 -2.569,0 0,-1.157 -2.577,0 0,0.966 1.283,0 0,1.173 5.162,0 0,-1.173 1.283,0 0,-0.977 -1.286,0 0,-1.168 -1.292,0 0,-1.172 -1.288,0 0,-1.172 -1.283,0 0,-1.364 5.156,0 L 7.742,0 0,0 Z" /></g></g></g></g></svg>