<?xml version="1.0" encoding="UTF-8" standalone="no"?>
<svg
   xmlns:dc="http://purl.org/dc/elements/1.1/"
   xmlns:cc="http://creativecommons.org/ns#"
   xmlns:rdf="http://www.w3.org/1999/02/22-rdf-syntax-ns#"
   xmlns:svg="http://www.w3.org/2000/svg"
   xmlns="http://www.w3.org/2000/svg"
   viewBox="0 0 341.33334 341.33334"
   height="256"
   width="256"
   xml:space="preserve"
   id="svg2"
   version="1.1"><metadata
     id="metadata8"><rdf:RDF><cc:Work
         rdf:about=""><dc:format>image/svg+xml</dc:format><dc:type
           rdf:resource="http://purl.org/dc/dcmitype/StillImage" /></cc:Work></rdf:RDF></metadata><defs
     id="defs6"><clipPath
       id="clipPath18"
       clipPathUnits="userSpaceOnUse"><path
         id="path16"
         d="M 0,256 H 256 V 0 H 0 Z" /></clipPath><clipPath
       id="clipPath26"
       clipPathUnits="userSpaceOnUse"><path
         id="path24"
         d="M 4,252 H 252 V 3.99976 H 4 Z" /></clipPath></defs><g
     transform="matrix(1.3333333,0,0,-1.3333333,0,341.33333)"
     id="g10"><g
       id="g12"><g
         clip-path="url(#clipPath18)"
         id="g14"><g
           id="g20"><g
             id="g22" /><g
             id="g34"><g
               style="opacity:0.5"
               id="g32"
               clip-path="url(#clipPath26)"><g
                 id="g30"
                 transform="translate(248.385,236)"><path
                   id="path28"
                   style="fill:#ffffff;fill-opacity:1;fill-rule:nonzero;stroke:none"
                   d="m 0,0 v 8 8 h -8.013 -228.359 -8.013 v -8 -232 -8 h 8.013 H -8.013 0 v 8 100 h 3.615 v 8 108 8 z" /></g></g></g></g><g
           transform="translate(232,16)"
           id="g36"><path
             id="path38"
             style="fill:#16a085;fill-opacity:1;fill-rule:nonzero;stroke:none"
             d="M 0,0 C -2.209,0 -4,1.791 -4,4 -4,6.209 -2.209,8 0,8 2.209,8 4,6.209 4,4 4,1.791 2.209,0 0,0 m -212,216 c -2.209,0 -4,1.791 -4,4 0,2.209 1.791,4 4,4 2.209,0 4,-1.791 4,-4 0,-2.209 -1.791,-4 -4,-4 m 0,-216 c -2.209,0 -4,1.791 -4,4 0,2.209 1.791,4 4,4 2.209,0 4,-1.791 4,-4 0,-2.209 -1.791,-4 -4,-4 m -7.609,-4 h 228 v 232 h -228 z" /></g><path
           id="path40"
           style="fill:#1abf9f;fill-opacity:1;fill-rule:nonzero;stroke:none"
           d="M 244,120 H 136 v 108 h 108 z" /><path
           id="path42"
           style="fill:#595959;fill-opacity:1;fill-rule:nonzero;stroke:none"
           d="m 236,152 h -76 v 76 h 76 z" /><path
           id="path44"
           style="fill:#737373;fill-opacity:1;fill-rule:nonzero;stroke:none"
           d="m 208,184 h -32 v 32 h 32 z" /><path
           id="path46"
           style="fill:#595959;fill-opacity:1;fill-rule:nonzero;stroke:none"
           d="m 148,196 h -8 v 24 h 8 z" /><path
           id="path48"
           style="fill:#595959;fill-opacity:1;fill-rule:nonzero;stroke:none"
           d="m 148,168 h -8 v 24 h 8 z" /><path
           id="path50"
           style="fill:#e6e6e6;fill-opacity:1;fill-rule:nonzero;stroke:none"
           d="m 204,120.066 h -28 v 4 h 28 z" /><path
           id="path52"
           style="fill:#e6e6e6;fill-opacity:1;fill-rule:nonzero;stroke:none"
           d="m 172,120 h -16 v 4 h 16 z" /><path
           id="path54"
           style="fill:#e6e6e6;fill-opacity:1;fill-rule:nonzero;stroke:none"
           d="m 148,120 h -8 v 4 h 8 z" /><path
           id="path56"
           style="fill:#e6e6e6;fill-opacity:1;fill-rule:nonzero;stroke:none"
           d="m 236,120 h -28 v 4 h 28 z" /><path
           id="path58"
           style="fill:#4b5da7;fill-opacity:1;fill-rule:nonzero;stroke:none"
           d="m 204,127.965 h -28 v 4 h 28 z" /><path
           id="path60"
           style="fill:#4b5da7;fill-opacity:1;fill-rule:nonzero;stroke:none"
           d="m 172,127.965 h -16 v 4 h 16 z" /><path
           id="path62"
           style="fill:#4b5da7;fill-opacity:1;fill-rule:nonzero;stroke:none"
           d="m 148,128 h -8 v 4 h 8 z" /><path
           id="path64"
           style="fill:#4b5da7;fill-opacity:1;fill-rule:nonzero;stroke:none"
           d="m 236,127.965 h -28 v 4 h 28 z" /><path
           id="path66"
           style="fill:#4b5da7;fill-opacity:1;fill-rule:nonzero;stroke:none"
           d="M 44,199.935 H 24 v 8 h 20 z" /><path
           id="path68"
           style="fill:#4b5da7;fill-opacity:1;fill-rule:nonzero;stroke:none"
           d="M 88,199.935 H 52 v 8 h 36 z" /><path
           id="path70"
           style="fill:#4b5da7;fill-opacity:1;fill-rule:nonzero;stroke:none"
           d="M 132,199.935 H 96 v 8 h 36 z" /><path
           id="path72"
           style="fill:#4c4c4c;fill-opacity:1;fill-rule:nonzero;stroke:none"
           d="m 204,144 h -24 v 4 h 24 z" /><path
           id="path74"
           style="fill:#4c4c4c;fill-opacity:1;fill-rule:nonzero;stroke:none"
           d="m 204,136 h -24 v 4 h 24 z" /><path
           id="path76"
           style="fill:#4c4c4c;fill-opacity:1;fill-rule:nonzero;stroke:none"
           d="m 236,144 h -24 v 4 h 24 z" /><path
           id="path78"
           style="fill:#4c4c4c;fill-opacity:1;fill-rule:nonzero;stroke:none"
           d="m 236,136 h -24 v 4 h 24 z" /><path
           id="path80"
           style="fill:#8c8c8c;fill-opacity:1;fill-rule:nonzero;stroke:none"
           d="m 158,136 h -2 v 4 h 2 z" /><path
           id="path82"
           style="fill:#8c8c8c;fill-opacity:1;fill-rule:nonzero;stroke:none"
           d="m 162,136 h -2 v 4 h 2 z" /><path
           id="path84"
           style="fill:#8c8c8c;fill-opacity:1;fill-rule:nonzero;stroke:none"
           d="m 166,136 h -2 v 4 h 2 z" /><path
           id="path86"
           style="fill:#8c8c8c;fill-opacity:1;fill-rule:nonzero;stroke:none"
           d="m 170,136 h -2 v 4 h 2 z" /><path
           id="path88"
           style="fill:#8c8c8c;fill-opacity:1;fill-rule:nonzero;stroke:none"
           d="m 174,136 h -2 v 4 h 2 z" /><path
           id="path90"
           style="fill:#595959;fill-opacity:1;fill-rule:nonzero;stroke:none"
           d="M 76,180 H 24 v 16 h 52 z" /><path
           id="path92"
           style="fill:#595959;fill-opacity:1;fill-rule:nonzero;stroke:none"
           d="M 132,180 H 80 v 16 h 52 z" /><path
           id="path94"
           style="fill:#595959;fill-opacity:1;fill-rule:nonzero;stroke:none"
           d="M 76,160 H 24 v 16 h 52 z" /><path
           id="path96"
           style="fill:#595959;fill-opacity:1;fill-rule:nonzero;stroke:none"
           d="M 132,160 H 80 v 16 h 52 z" /><path
           id="path98"
           style="fill:#595959;fill-opacity:1;fill-rule:nonzero;stroke:none"
           d="M 76,140 H 24 v 16 h 52 z" /><path
           id="path100"
           style="fill:#595959;fill-opacity:1;fill-rule:nonzero;stroke:none"
           d="M 132,140 H 80 v 16 h 52 z" /><path
           id="path102"
           style="fill:#595959;fill-opacity:1;fill-rule:nonzero;stroke:none"
           d="M 76,120 H 24 v 16 h 52 z" /><path
           id="path104"
           style="fill:#595959;fill-opacity:1;fill-rule:nonzero;stroke:none"
           d="M 132,136 H 80 v -16 h 52 z m -2,-14 H 82 v 12 h 48 z" /><path
           id="path106"
           style="fill:#595959;fill-opacity:1;fill-rule:nonzero;stroke:none"
           d="M 76,100 H 24 v 16 h 52 z" /><path
           id="path108"
           style="fill:#595959;fill-opacity:1;fill-rule:nonzero;stroke:none"
           d="M 132,116 H 80 v -16 h 52 z m -2,-14 H 82 v 12 h 48 z" /><path
           id="path110"
           style="fill:#595959;fill-opacity:1;fill-rule:nonzero;stroke:none"
           d="M 76,80 H 24 v 16 h 52 z" /><path
           id="path112"
           style="fill:#595959;fill-opacity:1;fill-rule:nonzero;stroke:none"
           d="M 132,96 H 80 V 80 h 52 z M 130,82 H 82 v 12 h 48 z" /><path
           id="path114"
           style="fill:#595959;fill-opacity:1;fill-rule:nonzero;stroke:none"
           d="M 64,48 H 28 v 12 h 36 z" /><path
           id="path116"
           style="fill:#595959;fill-opacity:1;fill-rule:nonzero;stroke:none"
           d="M 108,48 H 72 v 12 h 36 z" /><path
           id="path118"
           style="fill:#595959;fill-opacity:1;fill-rule:nonzero;stroke:none"
           d="M 108,32 H 72 v 12 h 36 z" /><path
           id="path120"
           style="fill:#595959;fill-opacity:1;fill-rule:nonzero;stroke:none"
           d="M 188,92 H 148 V 80 h 40 z m -2,-10 h -36 v 8 h 36 z" /><path
           id="path122"
           style="fill:#595959;fill-opacity:1;fill-rule:nonzero;stroke:none"
           d="M 188,76 H 148 V 64 h 40 z m -2,-10 h -36 v 8 h 36 z" /><path
           id="path124"
           style="fill:#595959;fill-opacity:1;fill-rule:nonzero;stroke:none"
           d="M 188,60 H 148 V 48 h 40 z m -2,-10 h -36 v 8 h 36 z" /><path
           id="path126"
           style="fill:#595959;fill-opacity:1;fill-rule:nonzero;stroke:none"
           d="M 188,44 H 148 V 32 h 40 z m -2,-10 h -36 v 8 h 36 z" /><path
           id="path128"
           style="fill:#595959;fill-opacity:1;fill-rule:nonzero;stroke:none"
           d="M 232,92 H 192 V 80 h 40 z m -2,-10 h -36 v 8 h 36 z" /><path
           id="path130"
           style="fill:#595959;fill-opacity:1;fill-rule:nonzero;stroke:none"
           d="M 232,76 H 192 V 64 h 40 z m -2,-10 h -36 v 8 h 36 z" /><path
           id="path132"
           style="fill:#595959;fill-opacity:1;fill-rule:nonzero;stroke:none"
           d="M 232,60 H 192 V 48 h 40 z m -2,-10 h -36 v 8 h 36 z" /><path
           id="path134"
           style="fill:#595959;fill-opacity:1;fill-rule:nonzero;stroke:none"
           d="M 232,44 H 192 V 32 h 40 z m -2,-10 h -36 v 8 h 36 z" /><path
           id="path136"
           style="fill:#595959;fill-opacity:1;fill-rule:nonzero;stroke:none"
           d="m 140.292,44 h -24 v 8 h 24 z" /><path
           id="path138"
           style="fill:#595959;fill-opacity:1;fill-rule:nonzero;stroke:none"
           d="m 140,32 h -24 v 8 h 24 z" /><path
           id="path140"
           style="fill:#595959;fill-opacity:1;fill-rule:nonzero;stroke:none"
           d="m 140,20 h -24 v 8 h 24 z" /><path
           id="path142"
           style="fill:#595959;fill-opacity:1;fill-rule:nonzero;stroke:none"
           d="M 44,212 H 24 v 8 h 20 z" /><path
           id="path144"
           style="fill:#595959;fill-opacity:1;fill-rule:nonzero;stroke:none"
           d="M 72,212 H 52 v 8 h 20 z" /><path
           id="path146"
           style="fill:#595959;fill-opacity:1;fill-rule:nonzero;stroke:none"
           d="M 104,212 H 84 v 8 h 20 z" /><g
           transform="translate(180,198.0991)"
           id="g148"><path
             id="path150"
             style="fill:#e6e6e6;fill-opacity:1;fill-rule:nonzero;stroke:none"
             d="M 0,0 4.75,5.805 4.802,3.266 6.986,5.772 7.064,1.596 10.626,5.794 V 1.05 l 3.901,4.465 0.182,-2.313 2.08,2.346 L 16.945,1.66 20.429,5.901 24,5.869 23.029,4.541 20.949,4.552 20.299,3.78 21.235,3.802 20.186,2.335 h -0.962 l -0.771,-0.9 3.103,-0.011 -0.945,-1.499 h -5.018 l 0.156,0.321 V 2.11 L 13.876,0.021 13.816,2.431 13.668,2.527 11.718,-0.021 9.56,-0.011 9.508,2.046 9.352,2.11 5.92,-2.099 H 4.204 L 5.92,0.086 5.842,2.078 4.022,0.021 V 2.506 L 3.952,2.602 1.733,0.011 Z" /></g><g
           transform="translate(23.9533,27.0278)"
           id="g152"><path
             id="path154"
             style="fill:#1abf9f;fill-opacity:1;fill-rule:nonzero;stroke:none"
             d="m 0,0 8.067,8.849 0.02,-3.807 3.706,3.824 0.02,-6.266 6.046,6.404 -0.124,-7.12 6.617,6.815 0.242,-3.466 3.528,3.58 0.158,-5.829 5.918,6.466 5.95,0.055 L 38.495,7.484 35.029,7.44 33.926,6.264 35.486,6.323 33.7,4.091 32.097,4.063 30.788,2.69 35.958,2.765 34.345,0.487 25.982,0.341 26.25,0.828 26.299,3.624 23.125,0.436 23.087,4.05 22.843,4.19 19.527,0.309 15.931,0.262 15.898,3.346 15.64,3.438 9.81,-2.978 6.95,-3.028 9.867,0.301 9.789,3.288 6.702,0.149 6.767,3.878 6.654,4.02 2.889,0.066 Z" /></g></g></g></g></svg>