<?xml version="1.0" encoding="UTF-8" standalone="no"?>
<svg
   xmlns:dc="http://purl.org/dc/elements/1.1/"
   xmlns:cc="http://creativecommons.org/ns#"
   xmlns:rdf="http://www.w3.org/1999/02/22-rdf-syntax-ns#"
   xmlns:svg="http://www.w3.org/2000/svg"
   xmlns="http://www.w3.org/2000/svg"
   viewBox="0 0 320 320"
   height="320"
   width="320"
   xml:space="preserve"
   version="1.1"
   id="svg2"><metadata
     id="metadata8"><rdf:RDF><cc:Work
         rdf:about=""><dc:format>image/svg+xml</dc:format><dc:type
           rdf:resource="http://purl.org/dc/dcmitype/StillImage" /></cc:Work></rdf:RDF></metadata><defs
     id="defs6"><clipPath
       id="clipPath16"
       clipPathUnits="userSpaceOnUse"><path
         id="path18"
         d="M 0,256 256,256 256,0 0,0 0,256 Z" /></clipPath><clipPath
       id="clipPath24"
       clipPathUnits="userSpaceOnUse"><path
         id="path26"
         d="m 4,252 248,0 0,-248.00024 -248,0 L 4,252 Z" /></clipPath></defs><g
     transform="matrix(1.25,0,0,-1.25,0,320)"
     id="g10"><g
       id="g12"><g
         clip-path="url(#clipPath16)"
         id="g14"><g
           id="g20"><g
             id="g22" /><g
             id="g28"><g
               style="opacity:0.5"
               id="g30"
               clip-path="url(#clipPath24)"><g
                 id="g32"
                 transform="translate(248.385,236)"><path
                   id="path34"
                   style="fill:#ffffff;fill-opacity:1;fill-rule:nonzero;stroke:none"
                   d="m 0,0 0,8 0,8 -8.013,0 -228.359,0 -8.013,0 0,-8 0,-232 0,-8 8.013,0 228.359,0 8.013,0 0,8 0,100 3.615,0 0,8 0,108 0,8 L 0,0 Z" /></g></g></g></g><g
           transform="translate(232,16)"
           id="g36"><path
             id="path38"
             style="fill:#16a085;fill-opacity:1;fill-rule:nonzero;stroke:none"
             d="M 0,0 C -2.209,0 -4,1.791 -4,4 -4,6.209 -2.209,8 0,8 2.209,8 4,6.209 4,4 4,1.791 2.209,0 0,0 m -212,216 c -2.209,0 -4,1.791 -4,4 0,2.209 1.791,4 4,4 2.209,0 4,-1.791 4,-4 0,-2.209 -1.791,-4 -4,-4 m 0,-216 c -2.209,0 -4,1.791 -4,4 0,2.209 1.791,4 4,4 2.209,0 4,-1.791 4,-4 0,-2.209 -1.791,-4 -4,-4 m -7.609,-4 228,0 0,232 -228,0 0,-232 z" /></g><path
           id="path40"
           style="fill:#1abf9f;fill-opacity:1;fill-rule:nonzero;stroke:none"
           d="m 244,120 -108,0 0,108 108,0 0,-108 z" /><path
           id="path42"
           style="fill:#595959;fill-opacity:1;fill-rule:nonzero;stroke:none"
           d="m 236,152 -76,0 0,76 76,0 0,-76 z" /><path
           id="path44"
           style="fill:#737373;fill-opacity:1;fill-rule:nonzero;stroke:none"
           d="m 208,184 -32,0 0,32 32,0 0,-32 z" /><path
           id="path46"
           style="fill:#595959;fill-opacity:1;fill-rule:nonzero;stroke:none"
           d="m 148,196 -8,0 0,24 8,0 0,-24 z" /><path
           id="path48"
           style="fill:#595959;fill-opacity:1;fill-rule:nonzero;stroke:none"
           d="m 148,168 -8,0 0,24 8,0 0,-24 z" /><path
           id="path50"
           style="fill:#e6e6e6;fill-opacity:1;fill-rule:nonzero;stroke:none"
           d="m 204,120.066 -28,0 0,4 28,0 0,-4 z" /><path
           id="path52"
           style="fill:#e6e6e6;fill-opacity:1;fill-rule:nonzero;stroke:none"
           d="m 172,120 -16,0 0,4 16,0 0,-4 z" /><path
           id="path54"
           style="fill:#e6e6e6;fill-opacity:1;fill-rule:nonzero;stroke:none"
           d="m 148,120 -8,0 0,4 8,0 0,-4 z" /><path
           id="path56"
           style="fill:#e6e6e6;fill-opacity:1;fill-rule:nonzero;stroke:none"
           d="m 236,120 -28,0 0,4 28,0 0,-4 z" /><path
           id="path58"
           style="fill:#4b5da7;fill-opacity:1;fill-rule:nonzero;stroke:none"
           d="m 204,127.965 -28,0 0,4 28,0 0,-4 z" /><path
           id="path60"
           style="fill:#4b5da7;fill-opacity:1;fill-rule:nonzero;stroke:none"
           d="m 172,127.965 -16,0 0,4 16,0 0,-4 z" /><path
           id="path62"
           style="fill:#4b5da7;fill-opacity:1;fill-rule:nonzero;stroke:none"
           d="m 148,128 -8,0 0,4 8,0 0,-4 z" /><path
           id="path64"
           style="fill:#4b5da7;fill-opacity:1;fill-rule:nonzero;stroke:none"
           d="m 236,127.965 -28,0 0,4 28,0 0,-4 z" /><path
           id="path66"
           style="fill:#4b5da7;fill-opacity:1;fill-rule:nonzero;stroke:none"
           d="m 44,199.935 -20,0 0,8 20,0 0,-8 z" /><path
           id="path68"
           style="fill:#4b5da7;fill-opacity:1;fill-rule:nonzero;stroke:none"
           d="m 88,199.935 -36,0 0,8 36,0 0,-8 z" /><path
           id="path70"
           style="fill:#4b5da7;fill-opacity:1;fill-rule:nonzero;stroke:none"
           d="m 132,199.935 -36,0 0,8 36,0 0,-8 z" /><path
           id="path72"
           style="fill:#4c4c4c;fill-opacity:1;fill-rule:nonzero;stroke:none"
           d="m 204,144 -24,0 0,4 24,0 0,-4 z" /><path
           id="path74"
           style="fill:#4c4c4c;fill-opacity:1;fill-rule:nonzero;stroke:none"
           d="m 204,136 -24,0 0,4 24,0 0,-4 z" /><path
           id="path76"
           style="fill:#4c4c4c;fill-opacity:1;fill-rule:nonzero;stroke:none"
           d="m 236,144 -24,0 0,4 24,0 0,-4 z" /><path
           id="path78"
           style="fill:#4c4c4c;fill-opacity:1;fill-rule:nonzero;stroke:none"
           d="m 236,136 -24,0 0,4 24,0 0,-4 z" /><path
           id="path80"
           style="fill:#8c8c8c;fill-opacity:1;fill-rule:nonzero;stroke:none"
           d="m 158,136 -2,0 0,4 2,0 0,-4 z" /><path
           id="path82"
           style="fill:#8c8c8c;fill-opacity:1;fill-rule:nonzero;stroke:none"
           d="m 162,136 -2,0 0,4 2,0 0,-4 z" /><path
           id="path84"
           style="fill:#8c8c8c;fill-opacity:1;fill-rule:nonzero;stroke:none"
           d="m 166,136 -2,0 0,4 2,0 0,-4 z" /><path
           id="path86"
           style="fill:#8c8c8c;fill-opacity:1;fill-rule:nonzero;stroke:none"
           d="m 170,136 -2,0 0,4 2,0 0,-4 z" /><path
           id="path88"
           style="fill:#8c8c8c;fill-opacity:1;fill-rule:nonzero;stroke:none"
           d="m 174,136 -2,0 0,4 2,0 0,-4 z" /><path
           id="path90"
           style="fill:#595959;fill-opacity:1;fill-rule:nonzero;stroke:none"
           d="m 76,180 -52,0 0,16 52,0 0,-16 z" /><path
           id="path92"
           style="fill:#595959;fill-opacity:1;fill-rule:nonzero;stroke:none"
           d="m 132,180 -52,0 0,16 52,0 0,-16 z" /><path
           id="path94"
           style="fill:#595959;fill-opacity:1;fill-rule:nonzero;stroke:none"
           d="m 76,160 -52,0 0,16 52,0 0,-16 z" /><path
           id="path96"
           style="fill:#595959;fill-opacity:1;fill-rule:nonzero;stroke:none"
           d="m 132,160 -52,0 0,16 52,0 0,-16 z" /><path
           id="path98"
           style="fill:#595959;fill-opacity:1;fill-rule:nonzero;stroke:none"
           d="m 76,140 -52,0 0,16 52,0 0,-16 z" /><path
           id="path100"
           style="fill:#595959;fill-opacity:1;fill-rule:nonzero;stroke:none"
           d="m 132,140 -52,0 0,16 52,0 0,-16 z" /><path
           id="path102"
           style="fill:#595959;fill-opacity:1;fill-rule:nonzero;stroke:none"
           d="m 76,120 -52,0 0,16 52,0 0,-16 z" /><path
           id="path104"
           style="fill:#595959;fill-opacity:1;fill-rule:nonzero;stroke:none"
           d="m 132,136 -52,0 0,-16 52,0 0,16 z m -2,-14 -48,0 0,12 48,0 0,-12 z" /><path
           id="path106"
           style="fill:#595959;fill-opacity:1;fill-rule:nonzero;stroke:none"
           d="m 76,100 -52,0 0,16 52,0 0,-16 z" /><path
           id="path108"
           style="fill:#595959;fill-opacity:1;fill-rule:nonzero;stroke:none"
           d="m 132,116 -52,0 0,-16 52,0 0,16 z m -2,-14 -48,0 0,12 48,0 0,-12 z" /><path
           id="path110"
           style="fill:#595959;fill-opacity:1;fill-rule:nonzero;stroke:none"
           d="m 76,80 -52,0 0,16 52,0 0,-16 z" /><path
           id="path112"
           style="fill:#595959;fill-opacity:1;fill-rule:nonzero;stroke:none"
           d="m 132,96 -52,0 0,-16 52,0 0,16 z m -2,-14 -48,0 0,12 48,0 0,-12 z" /><path
           id="path114"
           style="fill:#595959;fill-opacity:1;fill-rule:nonzero;stroke:none"
           d="m 64,48 -36,0 0,12 36,0 0,-12 z" /><path
           id="path116"
           style="fill:#595959;fill-opacity:1;fill-rule:nonzero;stroke:none"
           d="m 108,48 -36,0 0,12 36,0 0,-12 z" /><path
           id="path118"
           style="fill:#595959;fill-opacity:1;fill-rule:nonzero;stroke:none"
           d="m 108,32 -36,0 0,12 36,0 0,-12 z" /><path
           id="path120"
           style="fill:#595959;fill-opacity:1;fill-rule:nonzero;stroke:none"
           d="m 188,92 -40,0 0,-12 40,0 0,12 z m -2,-10 -36,0 0,8 36,0 0,-8 z" /><path
           id="path122"
           style="fill:#595959;fill-opacity:1;fill-rule:nonzero;stroke:none"
           d="m 188,76 -40,0 0,-12 40,0 0,12 z m -2,-10 -36,0 0,8 36,0 0,-8 z" /><path
           id="path124"
           style="fill:#595959;fill-opacity:1;fill-rule:nonzero;stroke:none"
           d="m 188,60 -40,0 0,-12 40,0 0,12 z m -2,-10 -36,0 0,8 36,0 0,-8 z" /><path
           id="path126"
           style="fill:#595959;fill-opacity:1;fill-rule:nonzero;stroke:none"
           d="m 188,44 -40,0 0,-12 40,0 0,12 z m -2,-10 -36,0 0,8 36,0 0,-8 z" /><path
           id="path128"
           style="fill:#595959;fill-opacity:1;fill-rule:nonzero;stroke:none"
           d="m 232,92 -40,0 0,-12 40,0 0,12 z m -2,-10 -36,0 0,8 36,0 0,-8 z" /><path
           id="path130"
           style="fill:#595959;fill-opacity:1;fill-rule:nonzero;stroke:none"
           d="m 232,76 -40,0 0,-12 40,0 0,12 z m -2,-10 -36,0 0,8 36,0 0,-8 z" /><path
           id="path132"
           style="fill:#595959;fill-opacity:1;fill-rule:nonzero;stroke:none"
           d="m 232,60 -40,0 0,-12 40,0 0,12 z m -2,-10 -36,0 0,8 36,0 0,-8 z" /><path
           id="path134"
           style="fill:#595959;fill-opacity:1;fill-rule:nonzero;stroke:none"
           d="m 232,44 -40,0 0,-12 40,0 0,12 z m -2,-10 -36,0 0,8 36,0 0,-8 z" /><path
           id="path136"
           style="fill:#595959;fill-opacity:1;fill-rule:nonzero;stroke:none"
           d="m 140.292,44 -24,0 0,8 24,0 0,-8 z" /><path
           id="path138"
           style="fill:#595959;fill-opacity:1;fill-rule:nonzero;stroke:none"
           d="m 140,32 -24,0 0,8 24,0 0,-8 z" /><path
           id="path140"
           style="fill:#595959;fill-opacity:1;fill-rule:nonzero;stroke:none"
           d="m 140,20 -24,0 0,8 24,0 0,-8 z" /><path
           id="path142"
           style="fill:#595959;fill-opacity:1;fill-rule:nonzero;stroke:none"
           d="m 44,212 -20,0 0,8 20,0 0,-8 z" /><path
           id="path144"
           style="fill:#595959;fill-opacity:1;fill-rule:nonzero;stroke:none"
           d="m 72,212 -20,0 0,8 20,0 0,-8 z" /><path
           id="path146"
           style="fill:#595959;fill-opacity:1;fill-rule:nonzero;stroke:none"
           d="m 104,212 -20,0 0,8 20,0 0,-8 z" /><g
           transform="translate(180,198.0991)"
           id="g148"><path
             id="path150"
             style="fill:#e6e6e6;fill-opacity:1;fill-rule:nonzero;stroke:none"
             d="m 0,0 4.75,5.805 0.052,-2.539 2.184,2.506 0.078,-4.176 3.562,4.198 0,-4.744 3.901,4.465 0.182,-2.313 2.08,2.346 L 16.945,1.66 20.429,5.901 24,5.869 23.029,4.541 l -2.08,0.011 -0.65,-0.772 0.936,0.022 -1.049,-1.467 -0.962,0 -0.771,-0.9 3.103,-0.011 -0.945,-1.499 -5.018,0 0.156,0.321 0,1.864 -1.873,-2.089 -0.06,2.41 -0.148,0.096 -1.95,-2.548 L 9.56,-0.011 9.508,2.046 9.352,2.11 5.92,-2.099 l -1.716,0 1.716,2.185 -0.078,1.992 -1.82,-2.057 0,2.485 L 3.952,2.602 1.733,0.011 0,0 Z" /></g><g
           transform="translate(23.9533,27.0278)"
           id="g152"><path
             id="path154"
             style="fill:#1abf9f;fill-opacity:1;fill-rule:nonzero;stroke:none"
             d="m 0,0 8.067,8.849 0.02,-3.807 3.706,3.824 0.02,-6.266 6.046,6.404 -0.124,-7.12 6.617,6.815 0.242,-3.466 3.528,3.58 0.158,-5.829 5.918,6.466 5.95,0.055 L 38.495,7.484 35.029,7.44 33.926,6.264 35.486,6.323 33.7,4.091 32.097,4.063 30.788,2.69 35.958,2.765 34.345,0.487 25.982,0.341 26.25,0.828 26.299,3.624 23.125,0.436 23.087,4.05 22.843,4.19 19.527,0.309 15.931,0.262 15.898,3.346 15.64,3.438 9.81,-2.978 6.95,-3.028 9.867,0.301 9.789,3.288 6.702,0.149 6.767,3.878 6.654,4.02 2.889,0.066 0,0 Z" /></g></g></g></g></svg>