<?xml version="1.0" encoding="UTF-8" standalone="no"?>
<svg
   xmlns:dc="http://purl.org/dc/elements/1.1/"
   xmlns:cc="http://creativecommons.org/ns#"
   xmlns:rdf="http://www.w3.org/1999/02/22-rdf-syntax-ns#"
   xmlns:svg="http://www.w3.org/2000/svg"
   xmlns="http://www.w3.org/2000/svg"
   viewBox="0 0 330.66665 234.66665"
   height="234.66666"
   width="330.66666"
   xml:space="preserve"
   id="svg2"
   version="1.1"><metadata
     id="metadata8"><rdf:RDF><cc:Work
         rdf:about=""><dc:format>image/svg+xml</dc:format><dc:type
           rdf:resource="http://purl.org/dc/dcmitype/StillImage" /></cc:Work></rdf:RDF></metadata><defs
     id="defs6"><clipPath
       id="clipPath18"
       clipPathUnits="userSpaceOnUse"><path
         id="path16"
         d="M 0,256 H 256 V 0 H 0 Z" /></clipPath><clipPath
       id="clipPath26"
       clipPathUnits="userSpaceOnUse"><path
         id="path24"
         d="M 4,216 H 252 V 40 H 4 Z" /></clipPath><clipPath
       id="clipPath46"
       clipPathUnits="userSpaceOnUse"><path
         id="path44"
         d="M 0,256 H 256 V 0 H 0 Z" /></clipPath></defs><g
     transform="matrix(1.3333333,0,0,-1.3333333,-5.3333332,287.99999)"
     id="g10"><g
       id="g12"><g
         clip-path="url(#clipPath18)"
         id="g14"><g
           id="g20"><g
             id="g22" /><g
             id="g32"><g
               style="opacity:0.5"
               id="g30"
               clip-path="url(#clipPath26)"><path
                 id="path28"
                 style="fill:#ffffff;fill-opacity:1;fill-rule:nonzero;stroke:none"
                 d="m 237.458,136 v 0 8 0 z M 248,208 v 8 H 240 4 v -8 -64 -8 -88 -8 h 8 228 8 v 8 88 8 4 h 4 v 8 44 8 z" /></g></g></g></g></g><path
       id="path34"
       style="fill:#333333;fill-opacity:1;fill-rule:nonzero;stroke:none"
       d="M 236,132 H 16 v 16 h 220 z" /><path
       id="path36"
       style="fill:#4c4c4c;fill-opacity:1;fill-rule:nonzero;stroke:none"
       d="M 240,48 H 12 v 88 h 228 z" /><path
       id="path38"
       style="fill:#595959;fill-opacity:1;fill-rule:nonzero;stroke:none"
       d="M 240,144 H 12 v 64 h 228 z" /><g
       id="g40"><g
         clip-path="url(#clipPath46)"
         id="g42"><g
           transform="translate(35,120)"
           id="g48"><path
             id="path50"
             style="fill:#404040;fill-opacity:1;fill-rule:nonzero;stroke:none"
             d="m 0,0 h -10 c -0.552,0 -1,0.448 -1,1 v 2 c 0,0.552 0.448,1 1,1 H 0 C 0.552,4 1,3.552 1,3 V 1 C 1,0.448 0.552,0 0,0" /></g><g
           transform="translate(51,120)"
           id="g52"><path
             id="path54"
             style="fill:#404040;fill-opacity:1;fill-rule:nonzero;stroke:none"
             d="m 0,0 h -10 c -0.552,0 -1,0.448 -1,1 v 2 c 0,0.552 0.448,1 1,1 H 0 C 0.552,4 1,3.552 1,3 V 1 C 1,0.448 0.552,0 0,0" /></g><g
           transform="translate(67,120)"
           id="g56"><path
             id="path58"
             style="fill:#404040;fill-opacity:1;fill-rule:nonzero;stroke:none"
             d="m 0,0 h -10 c -0.552,0 -1,0.448 -1,1 v 2 c 0,0.552 0.448,1 1,1 H 0 C 0.552,4 1,3.552 1,3 V 1 C 1,0.448 0.552,0 0,0" /></g><g
           transform="translate(83,120)"
           id="g60"><path
             id="path62"
             style="fill:#404040;fill-opacity:1;fill-rule:nonzero;stroke:none"
             d="m 0,0 h -10 c -0.552,0 -1,0.448 -1,1 v 2 c 0,0.552 0.448,1 1,1 H 0 C 0.552,4 1,3.552 1,3 V 1 C 1,0.448 0.552,0 0,0" /></g><g
           transform="translate(99,120)"
           id="g64"><path
             id="path66"
             style="fill:#404040;fill-opacity:1;fill-rule:nonzero;stroke:none"
             d="m 0,0 h -10 c -0.552,0 -1,0.448 -1,1 v 2 c 0,0.552 0.448,1 1,1 H 0 C 0.552,4 1,3.552 1,3 V 1 C 1,0.448 0.552,0 0,0" /></g><g
           transform="translate(115,120)"
           id="g68"><path
             id="path70"
             style="fill:#404040;fill-opacity:1;fill-rule:nonzero;stroke:none"
             d="m 0,0 h -10 c -0.552,0 -1,0.448 -1,1 v 2 c 0,0.552 0.448,1 1,1 H 0 C 0.552,4 1,3.552 1,3 V 1 C 1,0.448 0.552,0 0,0" /></g><g
           transform="translate(131,120)"
           id="g72"><path
             id="path74"
             style="fill:#404040;fill-opacity:1;fill-rule:nonzero;stroke:none"
             d="m 0,0 h -10 c -0.552,0 -1,0.448 -1,1 v 2 c 0,0.552 0.448,1 1,1 H 0 C 0.552,4 1,3.552 1,3 V 1 C 1,0.448 0.552,0 0,0" /></g><g
           transform="translate(155,120)"
           id="g76"><path
             id="path78"
             style="fill:#404040;fill-opacity:1;fill-rule:nonzero;stroke:none"
             d="m 0,0 h -10 c -0.552,0 -1,0.448 -1,1 v 2 c 0,0.552 0.448,1 1,1 H 0 C 0.552,4 1,3.552 1,3 V 1 C 1,0.448 0.552,0 0,0" /></g><g
           transform="translate(171,120)"
           id="g80"><path
             id="path82"
             style="fill:#f1c40f;fill-opacity:1;fill-rule:nonzero;stroke:none"
             d="m 0,0 h -10 c -0.552,0 -1,0.448 -1,1 v 2 c 0,0.552 0.448,1 1,1 H 0 C 0.552,4 1,3.552 1,3 V 1 C 1,0.448 0.552,0 0,0" /></g><g
           transform="translate(180,122)"
           id="g84"><path
             id="path86"
             style="fill:#ff0000;fill-opacity:1;fill-rule:nonzero;stroke:none"
             d="m 0,0 c 0,-1.105 -0.895,-2 -2,-2 -1.105,0 -2,0.895 -2,2 0,1.105 0.895,2 2,2 1.105,0 2,-0.895 2,-2" /></g><g
           transform="translate(200.1781,76)"
           id="g88"><path
             id="path90"
             style="fill:#404040;fill-opacity:1;fill-rule:nonzero;stroke:none"
             d="M 0,0 H -8.178 V -20 H 0 l 5.731,10.488 z" /></g><g
           transform="translate(227.8219,76)"
           id="g92"><path
             id="path94"
             style="fill:#404040;fill-opacity:1;fill-rule:nonzero;stroke:none"
             d="M 0,0 H 8.178 V -20 H 0 l -5.731,10.488 z" /></g><g
           transform="translate(201.8549,75.9999)"
           id="g96"><path
             id="path98"
             style="fill:#404040;fill-opacity:1;fill-rule:nonzero;stroke:none"
             d="M 0,0 5.487,-9.512 H 18.348 L 24.112,0 Z" /></g><g
           transform="translate(225.9667,56)"
           id="g100"><path
             id="path102"
             style="fill:#404040;fill-opacity:1;fill-rule:nonzero;stroke:none"
             d="M 0,0 -5.487,9.512 H -18.348 L -24.112,0 Z" /></g><path
           id="path104"
           style="fill:#404040;fill-opacity:1;fill-rule:nonzero;stroke:none"
           d="m 32,108 h -8 v 8 h 8 z" /><path
           id="path106"
           style="fill:#404040;fill-opacity:1;fill-rule:nonzero;stroke:none"
           d="m 44,108 h -8 v 8 h 8 z" /><path
           id="path108"
           style="fill:#404040;fill-opacity:1;fill-rule:nonzero;stroke:none"
           d="m 56,108 h -8 v 8 h 8 z" /><path
           id="path110"
           style="fill:#404040;fill-opacity:1;fill-rule:nonzero;stroke:none"
           d="m 68,108 h -8 v 8 h 8 z" /><path
           id="path112"
           style="fill:#404040;fill-opacity:1;fill-rule:nonzero;stroke:none"
           d="m 80,108 h -8 v 8 h 8 z" /><path
           id="path114"
           style="fill:#404040;fill-opacity:1;fill-rule:nonzero;stroke:none"
           d="m 92,108 h -8 v 8 h 8 z" /><path
           id="path116"
           style="fill:#404040;fill-opacity:1;fill-rule:nonzero;stroke:none"
           d="m 104,108 h -8 v 8 h 8 z" /><path
           id="path118"
           style="fill:#404040;fill-opacity:1;fill-rule:nonzero;stroke:none"
           d="m 116,108 h -8 v 8 h 8 z" /><path
           id="path120"
           style="fill:#404040;fill-opacity:1;fill-rule:nonzero;stroke:none"
           d="m 128,108 h -8 v 8 h 8 z" /><path
           id="path122"
           style="fill:#404040;fill-opacity:1;fill-rule:nonzero;stroke:none"
           d="m 140,108 h -8 v 8 h 8 z" /><path
           id="path124"
           style="fill:#404040;fill-opacity:1;fill-rule:nonzero;stroke:none"
           d="m 152,108 h -8 v 8 h 8 z" /><path
           id="path126"
           style="fill:#404040;fill-opacity:1;fill-rule:nonzero;stroke:none"
           d="m 164,108 h -8 v 8 h 8 z" /><path
           id="path128"
           style="fill:#404040;fill-opacity:1;fill-rule:nonzero;stroke:none"
           d="m 48,96 h -8 v 8 h 8 z" /><path
           id="path130"
           style="fill:#404040;fill-opacity:1;fill-rule:nonzero;stroke:none"
           d="M 36,96 H 24 v 8 h 12 z" /><path
           id="path132"
           style="fill:#404040;fill-opacity:1;fill-rule:nonzero;stroke:none"
           d="M 40,84 H 24 v 8 h 16 z" /><path
           id="path134"
           style="fill:#404040;fill-opacity:1;fill-rule:nonzero;stroke:none"
           d="M 48,72 H 24 v 8 h 24 z" /><path
           id="path136"
           style="fill:#404040;fill-opacity:1;fill-rule:nonzero;stroke:none"
           d="m 60,96 h -8 v 8 h 8 z" /><path
           id="path138"
           style="fill:#404040;fill-opacity:1;fill-rule:nonzero;stroke:none"
           d="m 72,96 h -8 v 8 h 8 z" /><path
           id="path140"
           style="fill:#404040;fill-opacity:1;fill-rule:nonzero;stroke:none"
           d="m 84,96 h -8 v 8 h 8 z" /><path
           id="path142"
           style="fill:#404040;fill-opacity:1;fill-rule:nonzero;stroke:none"
           d="m 96,96 h -8 v 8 h 8 z" /><path
           id="path144"
           style="fill:#404040;fill-opacity:1;fill-rule:nonzero;stroke:none"
           d="m 108,96 h -8 v 8 h 8 z" /><path
           id="path146"
           style="fill:#404040;fill-opacity:1;fill-rule:nonzero;stroke:none"
           d="m 120,96 h -8 v 8 h 8 z" /><path
           id="path148"
           style="fill:#404040;fill-opacity:1;fill-rule:nonzero;stroke:none"
           d="m 132,96 h -8 v 8 h 8 z" /><path
           id="path150"
           style="fill:#404040;fill-opacity:1;fill-rule:nonzero;stroke:none"
           d="m 144,96 h -8 v 8 h 8 z" /><path
           id="path152"
           style="fill:#404040;fill-opacity:1;fill-rule:nonzero;stroke:none"
           d="m 156,96 h -8 v 8 h 8 z" /><path
           id="path154"
           style="fill:#404040;fill-opacity:1;fill-rule:nonzero;stroke:none"
           d="m 168,96 h -8 v 8 h 8 z" /><path
           id="path156"
           style="fill:#404040;fill-opacity:1;fill-rule:nonzero;stroke:none"
           d="m 60,72 h -8 v 8 h 8 z" /><path
           id="path158"
           style="fill:#404040;fill-opacity:1;fill-rule:nonzero;stroke:none"
           d="M 148,60 H 52 v 8 h 96 z" /><path
           id="path160"
           style="fill:#404040;fill-opacity:1;fill-rule:nonzero;stroke:none"
           d="m 72,72 h -8 v 8 h 8 z" /><path
           id="path162"
           style="fill:#404040;fill-opacity:1;fill-rule:nonzero;stroke:none"
           d="m 84,72 h -8 v 8 h 8 z" /><path
           id="path164"
           style="fill:#404040;fill-opacity:1;fill-rule:nonzero;stroke:none"
           d="m 96,72 h -8 v 8 h 8 z" /><path
           id="path166"
           style="fill:#404040;fill-opacity:1;fill-rule:nonzero;stroke:none"
           d="m 108,72 h -8 v 8 h 8 z" /><path
           id="path168"
           style="fill:#404040;fill-opacity:1;fill-rule:nonzero;stroke:none"
           d="m 120,72 h -8 v 8 h 8 z" /><path
           id="path170"
           style="fill:#404040;fill-opacity:1;fill-rule:nonzero;stroke:none"
           d="m 132,72 h -8 v 8 h 8 z" /><path
           id="path172"
           style="fill:#404040;fill-opacity:1;fill-rule:nonzero;stroke:none"
           d="m 144,72 h -8 v 8 h 8 z" /><path
           id="path174"
           style="fill:#404040;fill-opacity:1;fill-rule:nonzero;stroke:none"
           d="m 156,72 h -8 v 8 h 8 z" /><path
           id="path176"
           style="fill:#404040;fill-opacity:1;fill-rule:nonzero;stroke:none"
           d="m 168,72 h -8 v 8 h 8 z" /><path
           id="path178"
           style="fill:#404040;fill-opacity:1;fill-rule:nonzero;stroke:none"
           d="m 52,84 h -8 v 8 h 8 z" /><path
           id="path180"
           style="fill:#404040;fill-opacity:1;fill-rule:nonzero;stroke:none"
           d="m 64,84 h -8 v 8 h 8 z" /><path
           id="path182"
           style="fill:#404040;fill-opacity:1;fill-rule:nonzero;stroke:none"
           d="m 76,84 h -8 v 8 h 8 z" /><path
           id="path184"
           style="fill:#404040;fill-opacity:1;fill-rule:nonzero;stroke:none"
           d="m 88,84 h -8 v 8 h 8 z" /><path
           id="path186"
           style="fill:#404040;fill-opacity:1;fill-rule:nonzero;stroke:none"
           d="m 100,84 h -8 v 8 h 8 z" /><path
           id="path188"
           style="fill:#404040;fill-opacity:1;fill-rule:nonzero;stroke:none"
           d="m 112,84 h -8 v 8 h 8 z" /><path
           id="path190"
           style="fill:#404040;fill-opacity:1;fill-rule:nonzero;stroke:none"
           d="m 124,84 h -8 v 8 h 8 z" /><path
           id="path192"
           style="fill:#404040;fill-opacity:1;fill-rule:nonzero;stroke:none"
           d="m 136,84 h -8 v 8 h 8 z" /><path
           id="path194"
           style="fill:#404040;fill-opacity:1;fill-rule:nonzero;stroke:none"
           d="m 148,84 h -8 v 8 h 8 z" /><path
           id="path196"
           style="fill:#404040;fill-opacity:1;fill-rule:nonzero;stroke:none"
           d="m 160,84 h -8 v 8 h 8 z" /><path
           id="path198"
           style="fill:#404040;fill-opacity:1;fill-rule:nonzero;stroke:none"
           d="m 160,60 h -8 v 8 h 8 z" /><path
           id="path200"
           style="fill:#404040;fill-opacity:1;fill-rule:nonzero;stroke:none"
           d="m 48,60 h -8 v 8 h 8 z" /><path
           id="path202"
           style="fill:#404040;fill-opacity:1;fill-rule:nonzero;stroke:none"
           d="m 36,60 h -8 v 8 h 8 z" /><path
           id="path204"
           style="fill:#404040;fill-opacity:1;fill-rule:nonzero;stroke:none"
           d="m 172,84 h -8 v 8 h 8 z" /><path
           id="path206"
           style="fill:#404040;fill-opacity:1;fill-rule:nonzero;stroke:none"
           d="m 184,84 h -8 v 12 h 8 z" /><path
           id="path208"
           style="fill:#404040;fill-opacity:1;fill-rule:nonzero;stroke:none"
           d="m 184,108 h -16 v 8 h 16 z" /><path
           id="path210"
           style="fill:#404040;fill-opacity:1;fill-rule:nonzero;stroke:none"
           d="m 184,72 h -12 v 8 h 12 z" /><path
           id="path212"
           style="fill:#404040;fill-opacity:1;fill-rule:nonzero;stroke:none"
           d="m 184,96 h -12 v 8 h 12 z" /><path
           id="path214"
           style="fill:#404040;fill-opacity:1;fill-rule:nonzero;stroke:none"
           d="m 200,116 h -8 v 8 h 8 z" /><path
           id="path216"
           style="fill:#404040;fill-opacity:1;fill-rule:nonzero;stroke:none"
           d="m 212,116 h -8 v 8 h 8 z" /><path
           id="path218"
           style="fill:#404040;fill-opacity:1;fill-rule:nonzero;stroke:none"
           d="m 224,116 h -8 v 8 h 8 z" /><path
           id="path220"
           style="fill:#404040;fill-opacity:1;fill-rule:nonzero;stroke:none"
           d="m 236,116 h -8 v 8 h 8 z" /><path
           id="path222"
           style="fill:#404040;fill-opacity:1;fill-rule:nonzero;stroke:none"
           d="m 200,104 h -8 v 8 h 8 z" /><path
           id="path224"
           style="fill:#404040;fill-opacity:1;fill-rule:nonzero;stroke:none"
           d="m 212,104 h -8 v 8 h 8 z" /><path
           id="path226"
           style="fill:#404040;fill-opacity:1;fill-rule:nonzero;stroke:none"
           d="m 224,104 h -8 v 8 h 8 z" /><path
           id="path228"
           style="fill:#404040;fill-opacity:1;fill-rule:nonzero;stroke:none"
           d="m 236,104 h -8 v 8 h 8 z" /><path
           id="path230"
           style="fill:#404040;fill-opacity:1;fill-rule:nonzero;stroke:none"
           d="m 200,92 h -8 v 8 h 8 z" /><path
           id="path232"
           style="fill:#404040;fill-opacity:1;fill-rule:nonzero;stroke:none"
           d="m 212,92 h -8 v 8 h 8 z" /><path
           id="path234"
           style="fill:#404040;fill-opacity:1;fill-rule:nonzero;stroke:none"
           d="m 224,92 h -8 v 8 h 8 z" /><path
           id="path236"
           style="fill:#404040;fill-opacity:1;fill-rule:nonzero;stroke:none"
           d="m 236,92 h -8 v 8 h 8 z" /><path
           id="path238"
           style="fill:#404040;fill-opacity:1;fill-rule:nonzero;stroke:none"
           d="m 200,80 h -8 v 8 h 8 z" /><path
           id="path240"
           style="fill:#404040;fill-opacity:1;fill-rule:nonzero;stroke:none"
           d="m 212,80 h -8 v 8 h 8 z" /><path
           id="path242"
           style="fill:#404040;fill-opacity:1;fill-rule:nonzero;stroke:none"
           d="m 224,80 h -8 v 8 h 8 z" /><path
           id="path244"
           style="fill:#404040;fill-opacity:1;fill-rule:nonzero;stroke:none"
           d="m 236,80 h -8 v 8 h 8 z" /><path
           id="path246"
           style="fill:#4c4c4c;fill-opacity:1;fill-rule:nonzero;stroke:none"
           d="M 228,148 H 28 v 20 h 200 z" /><path
           id="path248"
           style="fill:#23282a;fill-opacity:1;fill-rule:nonzero;stroke:none"
           d="M 228,128 H 28 v 20 h 200 z" /><path
           id="path250"
           style="fill:#404040;fill-opacity:1;fill-rule:nonzero;stroke:none"
           d="m 72,152 h 64 v 12 H 72 Z" /><path
           id="path252"
           style="fill:#191919;fill-opacity:1;fill-rule:nonzero;stroke:none"
           d="m 22,200 h -2 v 8 h 2 z" /><path
           id="path254"
           style="fill:#191919;fill-opacity:1;fill-rule:nonzero;stroke:none"
           d="m 22,188 h -2 v 8 h 2 z" /><path
           id="path256"
           style="fill:#191919;fill-opacity:1;fill-rule:nonzero;stroke:none"
           d="m 26,188 h -2 v 8 h 2 z" /><path
           id="path258"
           style="fill:#191919;fill-opacity:1;fill-rule:nonzero;stroke:none"
           d="m 30,188 h -2 v 8 h 2 z" /><path
           id="path260"
           style="fill:#191919;fill-opacity:1;fill-rule:nonzero;stroke:none"
           d="m 34,188 h -2 v 8 h 2 z" /><path
           id="path262"
           style="fill:#191919;fill-opacity:1;fill-rule:nonzero;stroke:none"
           d="m 38,188 h -2 v 8 h 2 z" /><path
           id="path264"
           style="fill:#191919;fill-opacity:1;fill-rule:nonzero;stroke:none"
           d="m 42,188 h -2 v 8 h 2 z" /><path
           id="path266"
           style="fill:#191919;fill-opacity:1;fill-rule:nonzero;stroke:none"
           d="m 46,188 h -2 v 8 h 2 z" /><path
           id="path268"
           style="fill:#191919;fill-opacity:1;fill-rule:nonzero;stroke:none"
           d="m 50,188 h -2 v 8 h 2 z" /><path
           id="path270"
           style="fill:#191919;fill-opacity:1;fill-rule:nonzero;stroke:none"
           d="m 54,188 h -2 v 8 h 2 z" /><path
           id="path272"
           style="fill:#191919;fill-opacity:1;fill-rule:nonzero;stroke:none"
           d="m 58,188 h -2 v 8 h 2 z" /><path
           id="path274"
           style="fill:#191919;fill-opacity:1;fill-rule:nonzero;stroke:none"
           d="m 62,188 h -2 v 8 h 2 z" /><path
           id="path276"
           style="fill:#191919;fill-opacity:1;fill-rule:nonzero;stroke:none"
           d="m 66,188 h -2 v 8 h 2 z" /><path
           id="path278"
           style="fill:#191919;fill-opacity:1;fill-rule:nonzero;stroke:none"
           d="m 70,188 h -2 v 8 h 2 z" /><path
           id="path280"
           style="fill:#191919;fill-opacity:1;fill-rule:nonzero;stroke:none"
           d="m 22,176 h -2 v 8 h 2 z" /><path
           id="path282"
           style="fill:#191919;fill-opacity:1;fill-rule:nonzero;stroke:none"
           d="m 26,176 h -2 v 8 h 2 z" /><path
           id="path284"
           style="fill:#191919;fill-opacity:1;fill-rule:nonzero;stroke:none"
           d="m 30,176 h -2 v 8 h 2 z" /><path
           id="path286"
           style="fill:#191919;fill-opacity:1;fill-rule:nonzero;stroke:none"
           d="m 34,176 h -2 v 8 h 2 z" /><path
           id="path288"
           style="fill:#191919;fill-opacity:1;fill-rule:nonzero;stroke:none"
           d="m 38,176 h -2 v 8 h 2 z" /><path
           id="path290"
           style="fill:#191919;fill-opacity:1;fill-rule:nonzero;stroke:none"
           d="m 42,176 h -2 v 8 h 2 z" /><path
           id="path292"
           style="fill:#191919;fill-opacity:1;fill-rule:nonzero;stroke:none"
           d="m 46,176 h -2 v 8 h 2 z" /><path
           id="path294"
           style="fill:#191919;fill-opacity:1;fill-rule:nonzero;stroke:none"
           d="m 50,176 h -2 v 8 h 2 z" /><path
           id="path296"
           style="fill:#191919;fill-opacity:1;fill-rule:nonzero;stroke:none"
           d="m 54,176 h -2 v 8 h 2 z" /><path
           id="path298"
           style="fill:#191919;fill-opacity:1;fill-rule:nonzero;stroke:none"
           d="m 58,176 h -2 v 8 h 2 z" /><path
           id="path300"
           style="fill:#191919;fill-opacity:1;fill-rule:nonzero;stroke:none"
           d="m 62,176 h -2 v 8 h 2 z" /><path
           id="path302"
           style="fill:#191919;fill-opacity:1;fill-rule:nonzero;stroke:none"
           d="m 66,176 h -2 v 8 h 2 z" /><path
           id="path304"
           style="fill:#191919;fill-opacity:1;fill-rule:nonzero;stroke:none"
           d="m 70,176 h -2 v 8 h 2 z" /><path
           id="path306"
           style="fill:#191919;fill-opacity:1;fill-rule:nonzero;stroke:none"
           d="m 26,200 h -2 v 8 h 2 z" /><path
           id="path308"
           style="fill:#191919;fill-opacity:1;fill-rule:nonzero;stroke:none"
           d="m 30,200 h -2 v 8 h 2 z" /><path
           id="path310"
           style="fill:#191919;fill-opacity:1;fill-rule:nonzero;stroke:none"
           d="m 34,200 h -2 v 8 h 2 z" /><path
           id="path312"
           style="fill:#191919;fill-opacity:1;fill-rule:nonzero;stroke:none"
           d="m 38,200 h -2 v 8 h 2 z" /><path
           id="path314"
           style="fill:#191919;fill-opacity:1;fill-rule:nonzero;stroke:none"
           d="m 42,200 h -2 v 8 h 2 z" /><path
           id="path316"
           style="fill:#191919;fill-opacity:1;fill-rule:nonzero;stroke:none"
           d="m 46,200 h -2 v 8 h 2 z" /><path
           id="path318"
           style="fill:#191919;fill-opacity:1;fill-rule:nonzero;stroke:none"
           d="m 50,200 h -2 v 8 h 2 z" /><path
           id="path320"
           style="fill:#191919;fill-opacity:1;fill-rule:nonzero;stroke:none"
           d="m 54,200 h -2 v 8 h 2 z" /><path
           id="path322"
           style="fill:#191919;fill-opacity:1;fill-rule:nonzero;stroke:none"
           d="m 58,200 h -2 v 8 h 2 z" /><path
           id="path324"
           style="fill:#191919;fill-opacity:1;fill-rule:nonzero;stroke:none"
           d="m 62,200 h -2 v 8 h 2 z" /><path
           id="path326"
           style="fill:#191919;fill-opacity:1;fill-rule:nonzero;stroke:none"
           d="m 66,200 h -2 v 8 h 2 z" /><path
           id="path328"
           style="fill:#191919;fill-opacity:1;fill-rule:nonzero;stroke:none"
           d="m 70,200 h -2 v 8 h 2 z" /><path
           id="path330"
           style="fill:#191919;fill-opacity:1;fill-rule:nonzero;stroke:none"
           d="m 74,200 h -2 v 8 h 2 z" /><path
           id="path332"
           style="fill:#191919;fill-opacity:1;fill-rule:nonzero;stroke:none"
           d="m 78,200 h -2 v 8 h 2 z" /><path
           id="path334"
           style="fill:#191919;fill-opacity:1;fill-rule:nonzero;stroke:none"
           d="m 82,200 h -2 v 8 h 2 z" /><path
           id="path336"
           style="fill:#191919;fill-opacity:1;fill-rule:nonzero;stroke:none"
           d="m 86,200 h -2 v 8 h 2 z" /><path
           id="path338"
           style="fill:#191919;fill-opacity:1;fill-rule:nonzero;stroke:none"
           d="m 90,200 h -2 v 8 h 2 z" /><path
           id="path340"
           style="fill:#191919;fill-opacity:1;fill-rule:nonzero;stroke:none"
           d="m 94,200 h -2 v 8 h 2 z" /><path
           id="path342"
           style="fill:#191919;fill-opacity:1;fill-rule:nonzero;stroke:none"
           d="m 98,200 h -2 v 8 h 2 z" /><path
           id="path344"
           style="fill:#191919;fill-opacity:1;fill-rule:nonzero;stroke:none"
           d="m 102,200 h -2 v 8 h 2 z" /><path
           id="path346"
           style="fill:#191919;fill-opacity:1;fill-rule:nonzero;stroke:none"
           d="m 106,200 h -2 v 8 h 2 z" /><path
           id="path348"
           style="fill:#191919;fill-opacity:1;fill-rule:nonzero;stroke:none"
           d="m 110,200 h -2 v 8 h 2 z" /><path
           id="path350"
           style="fill:#191919;fill-opacity:1;fill-rule:nonzero;stroke:none"
           d="m 114,200 h -2 v 8 h 2 z" /><path
           id="path352"
           style="fill:#191919;fill-opacity:1;fill-rule:nonzero;stroke:none"
           d="m 118,200 h -2 v 8 h 2 z" /><path
           id="path354"
           style="fill:#191919;fill-opacity:1;fill-rule:nonzero;stroke:none"
           d="m 122,200 h -2 v 8 h 2 z" /><path
           id="path356"
           style="fill:#191919;fill-opacity:1;fill-rule:nonzero;stroke:none"
           d="m 126,200 h -2 v 8 h 2 z" /><path
           id="path358"
           style="fill:#191919;fill-opacity:1;fill-rule:nonzero;stroke:none"
           d="m 130,200 h -2 v 8 h 2 z" /><path
           id="path360"
           style="fill:#191919;fill-opacity:1;fill-rule:nonzero;stroke:none"
           d="m 134,200 h -2 v 8 h 2 z" /><path
           id="path362"
           style="fill:#191919;fill-opacity:1;fill-rule:nonzero;stroke:none"
           d="m 138,200 h -2 v 8 h 2 z" /><path
           id="path364"
           style="fill:#191919;fill-opacity:1;fill-rule:nonzero;stroke:none"
           d="m 142,200 h -2 v 8 h 2 z" /><path
           id="path366"
           style="fill:#191919;fill-opacity:1;fill-rule:nonzero;stroke:none"
           d="m 146,200 h -2 v 8 h 2 z" /><path
           id="path368"
           style="fill:#191919;fill-opacity:1;fill-rule:nonzero;stroke:none"
           d="m 150,200 h -2 v 8 h 2 z" /><path
           id="path370"
           style="fill:#191919;fill-opacity:1;fill-rule:nonzero;stroke:none"
           d="m 154,200 h -2 v 8 h 2 z" /><path
           id="path372"
           style="fill:#191919;fill-opacity:1;fill-rule:nonzero;stroke:none"
           d="m 158,200 h -2 v 8 h 2 z" /><path
           id="path374"
           style="fill:#191919;fill-opacity:1;fill-rule:nonzero;stroke:none"
           d="m 162,200 h -2 v 8 h 2 z" /><path
           id="path376"
           style="fill:#191919;fill-opacity:1;fill-rule:nonzero;stroke:none"
           d="m 166,200 h -2 v 8 h 2 z" /><path
           id="path378"
           style="fill:#404040;fill-opacity:1;fill-rule:nonzero;stroke:none"
           d="m 232,156 h 12 v 44 h -12 z" /><g
           transform="translate(203.7469,198.2283)"
           id="g380"><path
             id="path382"
             style="fill:#d9d9d9;fill-opacity:1;fill-rule:nonzero;stroke:none"
             d="M 0,0 3.934,5.744 0.346,5.772 -1.808,2.623 -4.014,5.744 -12.684,5.736 c -2.152,0.001 -3.834,-1.578 -3.85,-3.582 -0.075,-2.185 1.464,-3.826 2.924,-3.811 l 3.399,-0.047 c 0.696,0 0.658,-1.316 0.046,-1.322 l -10.871,-0.012 v 8.81 h -2.711 V -6.197 h 13.771 c 1.098,-0.064 3.378,1.137 3.357,3.767 0.047,2.262 -1.843,3.711 -3.185,3.72 l -3.176,0.05 c -0.799,-0.025 -0.829,1.319 -0.006,1.327 l 7.537,0.012 1.807,-2.734 -4.146,-6.159 3.641,-0.003 2.355,3.574 2.475,-3.574 3.57,-0.011 z" /></g><g
           transform="translate(216.2173,195.1871)"
           id="g384"><path
             id="path386"
             style="fill:#d9d9d9;fill-opacity:1;fill-rule:nonzero;stroke:none"
             d="M 0,0 C -0.729,0.006 -0.773,1.329 0.054,1.329 L 4.095,1.376 C 5.83,1.362 7.66,3.011 7.571,5.207 7.552,7.221 5.553,8.808 2.994,8.807 l -7.14,0.006 V 5.732 L 3.353,5.723 C 4.331,5.715 4.295,4.364 3.345,4.389 L -0.429,4.338 C -2.025,4.329 -4.272,2.873 -4.216,0.599 -4.218,0.368 -4.217,-3.187 -4.217,-3.187 h 12 v 3.18 z" /></g><g
           transform="translate(84,52.5876)"
           id="g388"><path
             id="path390"
             style="fill:#d9d9d9;fill-opacity:1;fill-rule:nonzero;stroke:none"
             d="m 0,0 h 0.371 c 0.175,0 0.263,0.075 0.263,0.226 v 2.373 c 0,0.151 -0.082,0.226 -0.247,0.226 H 0 V 3.333 H 2.459 V 2.825 H 2.082 C 1.91,2.825 1.825,2.75 1.825,2.599 V 0 h 0.674 c 0.353,0 0.596,0.091 0.73,0.274 0.118,0.16 0.176,0.427 0.176,0.799 H 4.002 V -0.508 H 0 Z" /></g><g
           transform="translate(88.3364,52.5876)"
           id="g392"><path
             id="path394"
             style="fill:#d9d9d9;fill-opacity:1;fill-rule:nonzero;stroke:none"
             d="m 0,0 h 0.371 c 0.175,0 0.263,0.075 0.263,0.226 v 2.418 c 0,0.121 -0.082,0.181 -0.247,0.181 H 0 V 3.333 H 2.459 V 2.825 H 2.082 C 1.981,2.825 1.913,2.808 1.877,2.774 1.842,2.742 1.825,2.684 1.825,2.599 V 0.226 C 1.825,0.075 1.907,0 2.072,0 H 2.459 V -0.508 H 0 Z" /></g><g
           transform="translate(92.8429,52.5876)"
           id="g396"><path
             id="path398"
             style="fill:#d9d9d9;fill-opacity:1;fill-rule:nonzero;stroke:none"
             d="m 0,0 h 0.418 c 0.544,0 0.816,0.207 0.816,0.621 0,0.407 -0.273,0.611 -0.82,0.611 H 0 Z M 0,2.825 V 1.74 h 0.343 c 0.495,0 0.743,0.183 0.743,0.548 0,0.358 -0.248,0.537 -0.743,0.537 z M -1.788,-0.508 V 0 h 0.34 c 0.172,0 0.257,0.075 0.257,0.226 v 2.373 c 0,0.151 -0.083,0.226 -0.25,0.226 h -0.365 v 0.508 h 2.712 c 0.452,0 0.793,-0.08 1.024,-0.24 C 2.161,2.935 2.276,2.713 2.276,2.427 2.276,2.182 2.189,1.981 2.014,1.825 1.84,1.67 1.618,1.569 1.345,1.52 1.793,1.411 2.094,1.279 2.249,1.124 2.403,0.97 2.481,0.769 2.481,0.523 2.481,0.17 2.357,-0.089 2.109,-0.257 1.864,-0.425 1.399,-0.508 0.714,-0.508 Z" /></g><g
           transform="translate(97.4731,54.3277)"
           id="g400"><path
             id="path402"
             style="fill:#d9d9d9;fill-opacity:1;fill-rule:nonzero;stroke:none"
             d="M 0,0 H 0.656 C 0.911,0 1.088,0.042 1.185,0.127 1.284,0.212 1.333,0.353 1.333,0.551 1.333,0.752 1.268,0.892 1.138,0.969 1.01,1.046 0.784,1.085 0.458,1.085 H 0 Z m -1.825,-1.74 h 0.353 c 0.187,0 0.281,0.09 0.281,0.271 v 2.328 c 0,0.15 -0.091,0.226 -0.272,0.226 h -0.362 v 0.508 h 2.957 c 0.423,0 0.76,-0.078 1.011,-0.234 C 2.397,1.202 2.524,0.966 2.524,0.65 2.524,0.151 2.195,-0.139 1.537,-0.22 1.811,-0.282 2.007,-0.365 2.125,-0.469 2.242,-0.571 2.301,-0.738 2.301,-0.972 V -1.52 -1.537 c 0,-0.13 0.07,-0.195 0.211,-0.195 0.146,0 0.219,0.119 0.219,0.356 v 0.223 h 0.427 v -0.203 c 0,-0.648 -0.341,-0.972 -1.024,-0.972 -0.682,0 -1.024,0.318 -1.024,0.952 v 0.461 c 0,0.181 -0.04,0.294 -0.12,0.339 -0.079,0.045 -0.254,0.068 -0.526,0.068 L 0,-0.508 V -1.469 C 0,-1.571 0.02,-1.641 0.059,-1.681 0.098,-1.72 0.174,-1.74 0.288,-1.74 h 0.346 v -0.509 h -2.459 z" /></g><g
           transform="translate(100.9249,52.5876)"
           id="g404"><path
             id="path406"
             style="fill:#d9d9d9;fill-opacity:1;fill-rule:nonzero;stroke:none"
             d="m 0,0 h 0.371 c 0.175,0 0.263,0.075 0.263,0.226 v 2.373 c 0,0.151 -0.082,0.226 -0.247,0.226 H 0 V 3.333 H 4.201 V 1.842 H 3.603 C 3.603,2.243 3.508,2.512 3.318,2.65 3.17,2.766 2.9,2.825 2.506,2.825 H 1.825 V 1.701 h 0.179 c 0.205,0 0.345,0.04 0.421,0.121 0.068,0.072 0.101,0.196 0.101,0.373 v 0.138 h 0.52 V 0.559 h -0.52 v 0.147 c 0,0.151 -0.03,0.27 -0.094,0.356 C 2.37,1.149 2.291,1.192 2.199,1.192 H 1.825 V 0 H 2.576 C 2.978,0 3.25,0.077 3.39,0.232 3.533,0.386 3.603,0.667 3.603,1.073 H 4.201 V -0.508 H 0 Z" /></g><g
           transform="translate(105.5948,54.4294)"
           id="g408"><path
             id="path410"
             style="fill:#d9d9d9;fill-opacity:1;fill-rule:nonzero;stroke:none"
             d="M 0,0 V 1.492 H 4.16 V 0 H 3.563 C 3.563,0.358 3.492,0.611 3.35,0.76 3.21,0.909 2.985,0.983 2.675,0.983 v -2.599 c 0,-0.15 0.083,-0.226 0.248,-0.226 H 3.31 V -2.35 H 0.851 v 0.508 h 0.374 c 0.173,0 0.26,0.076 0.26,0.226 V 0.983 C 1.142,0.983 0.908,0.898 0.783,0.729 0.659,0.561 0.597,0.318 0.597,0 Z" /></g><g
           transform="translate(111.8994,54.3277)"
           id="g412"><path
             id="path414"
             style="fill:#d9d9d9;fill-opacity:1;fill-rule:nonzero;stroke:none"
             d="M 0,0 H 0.656 C 0.911,0 1.088,0.042 1.185,0.127 1.284,0.212 1.333,0.353 1.333,0.551 1.333,0.752 1.268,0.892 1.138,0.969 1.01,1.046 0.784,1.085 0.458,1.085 H 0 Z m -1.825,-1.74 h 0.353 c 0.187,0 0.281,0.09 0.281,0.271 v 2.328 c 0,0.15 -0.091,0.226 -0.272,0.226 h -0.362 v 0.508 h 2.957 c 0.423,0 0.76,-0.078 1.011,-0.234 C 2.397,1.202 2.524,0.966 2.524,0.65 2.524,0.151 2.195,-0.139 1.537,-0.22 1.811,-0.282 2.007,-0.365 2.125,-0.469 2.242,-0.571 2.301,-0.738 2.301,-0.972 V -1.52 -1.537 c 0,-0.13 0.07,-0.195 0.211,-0.195 0.146,0 0.219,0.119 0.219,0.356 v 0.223 h 0.427 v -0.203 c 0,-0.648 -0.341,-0.972 -1.024,-0.972 -0.682,0 -1.024,0.318 -1.024,0.952 v 0.461 c 0,0.181 -0.04,0.294 -0.12,0.339 -0.079,0.045 -0.254,0.068 -0.526,0.068 L 0,-0.508 V -1.469 C 0,-1.571 0.02,-1.641 0.059,-1.681 0.098,-1.72 0.174,-1.74 0.288,-1.74 h 0.346 v -0.509 h -2.459 z" /></g><g
           transform="translate(116.7833,54)"
           id="g416"><path
             id="path418"
             style="fill:#d9d9d9;fill-opacity:1;fill-rule:nonzero;stroke:none"
             d="M 0,0 C 0,-0.972 0.307,-1.458 0.922,-1.458 1.534,-1.458 1.84,-0.972 1.84,0 1.84,0.972 1.536,1.458 0.928,1.458 0.309,1.458 0,0.972 0,0 m -1.376,0 c 0,0.593 0.203,1.074 0.609,1.444 C -0.361,1.814 0.202,2 0.922,2 1.643,2 2.206,1.816 2.61,1.449 3.015,1.082 3.217,0.599 3.217,0 3.217,-0.616 3.009,-1.104 2.595,-1.463 2.183,-1.821 1.63,-2 0.937,-2 0.226,-2 -0.338,-1.819 -0.755,-1.458 -1.169,-1.096 -1.376,-0.61 -1.376,0" /></g></g></g></g></svg>