<?xml version="1.0" encoding="UTF-8" standalone="no"?>
<svg
   xmlns:dc="http://purl.org/dc/elements/1.1/"
   xmlns:cc="http://creativecommons.org/ns#"
   xmlns:rdf="http://www.w3.org/1999/02/22-rdf-syntax-ns#"
   xmlns:svg="http://www.w3.org/2000/svg"
   xmlns="http://www.w3.org/2000/svg"
   viewBox="0 0 341.33334 341.33334"
   height="256"
   width="256"
   xml:space="preserve"
   id="svg2"
   version="1.1"><metadata
     id="metadata8"><rdf:RDF><cc:Work
         rdf:about=""><dc:format>image/svg+xml</dc:format><dc:type
           rdf:resource="http://purl.org/dc/dcmitype/StillImage" /></cc:Work></rdf:RDF></metadata><defs
     id="defs6"><clipPath
       id="clipPath18"
       clipPathUnits="userSpaceOnUse"><path
         id="path16"
         d="M 0,256 H 256 V 0 H 0 Z" /></clipPath><clipPath
       id="clipPath26"
       clipPathUnits="userSpaceOnUse"><path
         id="path24"
         d="M 44,252 H 212 V 4 H 44 Z" /></clipPath><clipPath
       id="clipPath310"
       clipPathUnits="userSpaceOnUse"><path
         id="path308"
         d="m 85.1117,45.0282 h 0.093 v -0.0614 h -0.093 z" /></clipPath><clipPath
       id="clipPath326"
       clipPathUnits="userSpaceOnUse"><path
         id="path324"
         d="m 82.4788,44.5793 h 0.1038 v -0.0699 h -0.1038 z" /></clipPath></defs><g
     transform="matrix(1.3333333,0,0,-1.3333333,0,341.33333)"
     id="g10"><g
       id="g12"><g
         clip-path="url(#clipPath18)"
         id="g14"><g
           id="g20"><g
             id="g22" /><g
             id="g34"><g
               style="opacity:0.5"
               id="g32"
               clip-path="url(#clipPath26)"><g
                 id="g30"
                 transform="translate(196.6003,252)"><path
                   id="path28"
                   style="fill:#ffffff;fill-opacity:1;fill-rule:nonzero;stroke:none"
                   d="m 0,0 h -137.201 c -8.491,0 -15.399,-6.939 -15.399,-15.469 v -217.062 c 0,-8.53 6.908,-15.469 15.399,-15.469 H 0 c 8.491,0 15.4,6.939 15.4,15.469 V -15.469 C 15.4,-6.939 8.491,0 0,0" /></g></g></g></g><g
           transform="translate(59.3997,244)"
           id="g36"><path
             id="path38"
             style="fill:#e6e6e6;fill-opacity:1;fill-rule:nonzero;stroke:none"
             d="m 0,0 h 137.201 c 4.086,0 7.399,-3.344 7.399,-7.469 v -217.062 c 0,-4.125 -3.313,-7.469 -7.399,-7.469 H 0 c -4.087,0 -7.4,3.344 -7.4,7.469 V -7.469 C -7.4,-3.344 -4.087,0 0,0" /></g><path
           id="path40"
           style="fill:#f39b11;fill-opacity:1;fill-rule:nonzero;stroke:none"
           d="M 60,148 H 196 V 36 H 60 Z" /><g
           transform="translate(107.609,23.2258)"
           id="g42"><path
             id="path44"
             style="fill:#d4d4d4;fill-opacity:1;fill-rule:nonzero;stroke:none"
             d="M 0,0 20.581,7.484 41.161,0 V -7.484 H 0 Z" /></g><g
           transform="translate(60,240)"
           id="g46"><path
             id="path48"
             style="fill:#404040;fill-opacity:1;fill-rule:nonzero;stroke:none"
             d="M 0,0 H 136 V -76.364 C 136,-80.581 132.709,-84 128.649,-84 H 7.351 C 3.291,-84 0,-80.581 0,-76.364 Z" /></g><path
           id="path50"
           style="fill:#000000;fill-opacity:1;fill-rule:nonzero;stroke:none"
           d="m 144.687,45.175 h -32.995 v 48.177 h 32.995 z" /><path
           id="path52"
           style="fill:#ffffff;fill-opacity:1;fill-rule:nonzero;stroke:none"
           d="m 139.513,71.743 h 1.709 v 18.09 h -1.709 z m 3.291,9.037 c 0,-2.989 -0.016,-5.979 0.01,-8.969 0.007,-0.785 -0.802,-1.699 -1.641,-1.646 -0.563,0.036 -1.131,0.005 -1.697,0.008 -0.859,0.004 -1.608,0.75 -1.608,1.607 -0.002,6.006 -0.002,12.013 -0.001,18.019 0.001,0.747 0.576,1.421 1.352,1.479 0.714,0.054 1.437,0.039 2.153,-0.002 0.543,-0.032 0.962,-0.351 1.239,-0.81 0.114,-0.189 0.184,-0.436 0.185,-0.656 0.012,-3.01 0.008,-6.02 0.008,-9.03" /><g
           transform="translate(118.5535,62.6059)"
           id="g54"><path
             id="path56"
             style="fill:#ffffff;fill-opacity:1;fill-rule:nonzero;stroke:none"
             d="m 0,0 h -1.581 v 4.222 h -1.857 v -0.22 c 0,-5.892 0.001,-11.785 -0.005,-17.677 0,-0.196 0.058,-0.247 0.247,-0.241 0.473,0.013 0.946,0.003 1.418,0.004 0.072,0.001 0.143,0.007 0.224,0.011 v 9.069 h -0.782 v 1.433 c 0.068,0.005 0.127,0.013 0.185,0.013 0.652,0.001 1.305,-0.003 1.957,0.004 0.153,0.001 0.207,-0.038 0.207,-0.2 0,-3.868 0.005,-7.736 0.008,-11.604 0,-0.052 -0.006,-0.104 -0.01,-0.168 -0.067,-0.005 -0.125,-0.013 -0.182,-0.013 -1.032,-10e-4 -2.064,0.002 -3.096,-0.002 -0.509,-0.002 -0.933,0.182 -1.282,0.548 -0.259,0.271 -0.395,0.591 -0.395,0.971 0.001,6.025 0,12.051 0.001,18.076 0,0.835 0.72,1.58 1.552,1.596 0.619,0.012 1.239,0.012 1.858,0 C -0.735,5.806 -0.002,5.093 0.006,4.298 0.021,2.894 0.012,1.489 0.012,0.084 0.012,0.059 0.005,0.034 0,0" /></g><g
           transform="translate(137.8558,68.3759)"
           id="g58"><path
             id="path60"
             style="fill:#ffffff;fill-opacity:1;fill-rule:nonzero;stroke:none"
             d="m 0,0 h 1.562 v -0.68 c 0,-2.25 10e-4,-4.501 -0.003,-6.752 C 1.558,-7.6 1.6,-7.737 1.695,-7.874 c 0.258,-0.371 0.506,-0.75 0.775,-1.15 0.171,0.251 0.313,0.5 0.494,0.717 0.323,0.388 0.415,0.817 0.41,1.322 -0.025,2.237 -0.011,4.474 -0.011,6.712 v 0.268 h 1.545 v -0.637 c 0,-2.191 0,-4.381 0,-6.572 0,-0.412 -0.146,-0.788 -0.331,-1.139 -0.359,-0.683 -0.743,-1.352 -1.127,-2.021 -0.068,-0.118 -0.072,-0.193 -0.003,-0.316 0.424,-0.753 0.843,-1.508 1.243,-2.273 0.186,-0.358 0.239,-0.751 0.237,-1.16 -0.009,-2.244 -0.004,-4.488 -0.004,-6.732 v -0.254 H 3.476 v 0.28 c 0,2.357 0.002,4.715 -0.005,7.072 -10e-4,0.136 -0.049,0.289 -0.121,0.405 -0.264,0.422 -0.548,0.832 -0.841,1.272 -0.247,-0.365 -0.465,-0.72 -0.715,-1.05 -0.2,-0.263 -0.267,-0.537 -0.265,-0.866 0.012,-2.284 0.007,-4.568 0.007,-6.852 V -21.11 H 0 v 0.267 c 0,2.217 0.007,4.434 -0.006,6.652 -0.002,0.445 0.067,0.866 0.277,1.25 0.418,0.764 0.855,1.517 1.295,2.268 0.072,0.123 0.067,0.197 -0.004,0.316 -0.447,0.746 -0.893,1.494 -1.319,2.253 -0.194,0.346 -0.249,0.732 -0.248,1.136 C 0.005,-4.738 0,-2.507 0,-0.276 Z" /></g><g
           transform="translate(132.9988,84.8017)"
           id="g62"><path
             id="path64"
             style="fill:#ffffff;fill-opacity:1;fill-rule:nonzero;stroke:none"
             d="M 0,0 C 0.535,0 1.047,0.009 1.558,-0.005 1.753,-0.01 1.801,0.052 1.8,0.241 1.792,1.765 1.795,3.289 1.795,4.813 1.795,4.884 1.788,4.955 1.784,5.027 H 0 Z m 3.596,-8.737 c -0.457,0 -0.901,-0.004 -1.345,0.007 -0.042,0.001 -0.106,0.087 -0.12,0.144 -0.338,1.449 -0.671,2.9 -1.006,4.35 -0.201,0.874 -0.403,1.748 -0.607,2.633 h -0.589 v -7.166 h -1.458 c -0.004,0.091 -0.01,0.17 -0.01,0.248 C -1.54,-3.6 -1.54,1.321 -1.54,6.242 c 0,0.26 0.001,0.26 0.261,0.26 C -0.313,6.503 0.653,6.5 1.618,6.503 2.17,6.505 2.629,6.299 2.997,5.894 3.207,5.663 3.306,5.383 3.306,5.072 3.308,3.434 3.309,1.796 3.306,0.158 3.305,-0.194 3.219,-0.528 3.024,-0.827 2.801,-1.168 2.511,-1.417 2.062,-1.492 2.574,-3.907 3.083,-6.315 3.596,-8.737" /></g><g
           transform="translate(114.4064,82.3139)"
           id="g66"><path
             id="path68"
             style="fill:#ffffff;fill-opacity:1;fill-rule:nonzero;stroke:none"
             d="M 0,0 C 0.535,0 1.047,0.012 1.558,-0.006 1.753,-0.013 1.801,0.071 1.8,0.334 1.792,2.44 1.795,4.547 1.795,6.654 1.795,6.752 1.788,6.85 1.784,6.95 H 0 Z m 3.596,-12.079 c -0.457,0 -0.901,-0.006 -1.345,0.009 -0.042,10e-4 -0.106,0.121 -0.12,0.199 -0.338,2.004 -0.671,4.01 -1.006,6.015 -0.201,1.208 -0.403,2.416 -0.607,3.639 h -0.589 v -9.906 h -1.458 c -0.004,0.126 -0.01,0.234 -0.01,0.342 -0.001,6.804 -0.001,13.607 -0.001,20.41 0,0.361 0.001,0.361 0.261,0.361 0.966,0 1.931,-0.003 2.897,10e-4 C 2.17,8.994 2.629,8.709 2.997,8.148 3.207,7.829 3.306,7.442 3.306,7.012 3.308,4.747 3.309,2.483 3.305,0.218 3.305,-0.269 3.219,-0.73 3.024,-1.143 2.801,-1.615 2.511,-1.959 2.062,-2.062 2.574,-5.401 3.083,-8.731 3.596,-12.079" /></g><g
           transform="translate(123.5014,61.0577)"
           id="g70"><path
             id="path72"
             style="fill:#ffffff;fill-opacity:1;fill-rule:nonzero;stroke:none"
             d="m 0,0 h -1.781 v -5.033 c 0.524,0 1.035,0.011 1.545,-0.006 0.212,-0.007 0.252,0.067 0.251,0.261 C 0.007,-3.262 0.011,-1.745 0.01,-0.228 0.01,-0.157 0.004,-0.085 0,0 m -3.285,1.454 c 0.083,0 0.154,0 0.226,0 0.979,0 1.957,0 2.936,0 0.593,0 1.083,-0.23 1.425,-0.709 C 1.429,0.566 1.525,0.32 1.527,0.104 1.546,-1.594 1.541,-3.292 1.536,-4.99 1.534,-5.731 1.074,-6.31 0.305,-6.553 c 0.51,-2.409 1.02,-4.819 1.533,-7.243 H 0.411 c -0.102,0.437 -0.205,0.868 -0.305,1.301 -0.43,1.864 -0.862,3.728 -1.285,5.594 -0.044,0.194 -0.11,0.296 -0.324,0.26 -0.096,-0.016 -0.197,-0.003 -0.314,-0.003 v -7.174 h -1.468 z" /></g><g
           transform="translate(128.1658,60.9568)"
           id="g74"><path
             id="path76"
             style="fill:#ffffff;fill-opacity:1;fill-rule:nonzero;stroke:none"
             d="m 0,0 v -4.933 c 0.534,0 1.052,0.008 1.57,-0.004 0.183,-0.004 0.22,0.058 0.219,0.228 -0.006,1.496 -0.003,2.992 -0.004,4.489 0,0.07 -0.006,0.141 -0.01,0.22 z M 3.291,-13.69 H 1.826 v 7.245 h -1.899 v -7.246 H -1.52 c -0.004,0.084 -0.01,0.155 -0.01,0.227 0,4.528 -10e-4,9.056 0,13.584 0,0.761 0.589,1.379 1.351,1.396 C 0.493,1.531 1.166,1.531 1.839,1.517 2.755,1.498 3.29,0.939 3.29,0.022 c 10e-4,-3.263 10e-4,-6.526 10e-4,-9.789 0,-1.225 0,-2.45 0,-3.675 0,-0.079 0,-0.158 0,-0.248" /></g><g
           transform="translate(128.0771,64.8732)"
           id="g78"><path
             id="path80"
             style="fill:#ffffff;fill-opacity:1;fill-rule:nonzero;stroke:none"
             d="m 0,0 v 0.005 c 1.258,0 2.516,0.004 3.774,-0.002 0.434,-0.002 0.845,0.09 1.24,0.259 2.975,1.269 3.645,5.445 1.053,7.53 C 5.291,8.416 4.429,8.762 3.409,8.751 1.026,8.727 -1.358,8.751 -3.741,8.735 -4.093,8.733 -4.466,8.678 -4.792,8.551 -6.426,7.912 -7.472,6.738 -7.692,4.98 -7.909,3.243 -7.297,1.8 -5.86,0.753 -5.287,0.336 -4.654,0.02 -3.934,0.007 -2.623,-0.018 -1.311,0 0,0 m -0.041,-0.866 c -1.179,0 -2.357,0.002 -3.535,-0.001 -1.868,-0.003 -3.313,0.819 -4.289,2.368 -2.091,3.318 -0.16,7.265 3.341,8.091 0.282,0.066 0.579,0.093 0.869,0.094 2.33,0.008 4.66,-0.007 6.989,0.009 C 4.627,9.703 5.745,9.271 6.717,8.445 7.762,7.558 8.43,6.44 8.593,5.073 8.782,3.492 8.37,2.065 7.313,0.854 6.455,-0.128 5.367,-0.695 4.072,-0.857 3.947,-0.873 3.819,-0.866 3.693,-0.866 c -1.245,0 -2.49,0 -3.734,0" /></g><g
           transform="translate(136.9004,62.4626)"
           id="g82"><path
             id="path84"
             style="fill:#ffffff;fill-opacity:1;fill-rule:nonzero;stroke:none"
             d="m 0,0 v -1.301 h -2.267 v -5.165 h 1.86 v -1.463 h -1.861 v -7.267 h -1.491 v 0.247 c 0,4.534 0,9.067 0,13.6 0,0.769 0.573,1.356 1.34,1.363 0.745,0.006 1.491,0.002 2.236,10e-4 C -0.131,0.015 -0.079,0.007 0,0" /></g><path
           id="path86"
           style="fill:#000000;fill-opacity:1;fill-rule:nonzero;stroke:none"
           d="m 139.513,89.833 h 1.709 v -18.09 h -1.709 z" /><g
           transform="translate(123.5014,61.0577)"
           id="g88"><path
             id="path90"
             style="fill:#000000;fill-opacity:1;fill-rule:nonzero;stroke:none"
             d="m 0,0 c 0.004,-0.085 0.01,-0.157 0.01,-0.228 10e-4,-1.517 -0.003,-3.034 0.005,-4.55 0.001,-0.194 -0.039,-0.268 -0.251,-0.261 -0.51,0.017 -1.021,0.006 -1.545,0.006 V 0 Z" /></g><g
           transform="translate(128.1658,60.9568)"
           id="g92"><path
             id="path94"
             style="fill:#000000;fill-opacity:1;fill-rule:nonzero;stroke:none"
             d="M 0,0 H 1.775 C 1.779,-0.079 1.785,-0.15 1.785,-0.22 1.786,-1.717 1.783,-3.213 1.789,-4.709 1.79,-4.879 1.753,-4.941 1.57,-4.937 1.052,-4.925 0.534,-4.933 0,-4.933 Z" /></g><g
           transform="translate(124.5077,69.6566)"
           id="g96"><path
             id="path98"
             style="fill:#000000;fill-opacity:1;fill-rule:nonzero;stroke:none"
             d="M 0,0 C 0,0.818 -0.004,1.637 0.003,2.455 0.005,2.629 -0.05,2.693 -0.226,2.684 -0.471,2.672 -0.718,2.681 -0.964,2.681 c -0.67,0 -0.673,0 -0.605,-0.674 0.005,-0.051 0.084,-0.127 0.138,-0.135 0.13,-0.02 0.266,-0.018 0.398,-0.004 0.18,0.018 0.222,-0.055 0.222,-0.227 -0.007,-1.377 -0.007,-2.755 0,-4.132 0.001,-0.183 -0.068,-0.223 -0.232,-0.224 -0.554,-0.004 -0.548,-0.009 -0.546,-0.566 0,-0.17 0.063,-0.213 0.223,-0.211 0.632,0.007 1.264,0.003 1.896,0.003 0.258,0 0.258,10e-4 0.259,0.266 0,0.536 0,0.544 -0.543,0.535 -0.197,-0.003 -0.251,0.066 -0.249,0.253 C 0.004,-1.623 0,-0.812 0,0 M 5.28,2.67 C 4.534,2.67 3.788,2.649 3.043,2.678 2.678,2.693 2.408,2.601 2.178,2.317 2.074,2.189 2.017,2.077 2.017,1.911 2.023,0.48 2.034,-0.952 2.011,-2.384 c -0.006,-0.378 0.082,-0.661 0.377,-0.9 0.131,-0.106 0.247,-0.172 0.421,-0.171 1.532,0.006 3.064,0.018 4.595,-0.007 0.401,-0.006 0.702,0.087 0.95,0.401 0.092,0.117 0.149,0.219 0.148,0.371 -0.008,0.659 -0.003,1.318 -0.003,1.978 -0.001,0.327 -0.341,0.669 -0.667,0.669 -1.612,0 -3.223,0.002 -4.835,-0.004 -0.191,0 -0.256,0.06 -0.251,0.252 0.011,0.472 0.003,0.945 0.004,1.418 0,0.278 10e-4,0.279 0.276,0.279 1.385,0 2.77,0 4.155,0 0.588,0 0.593,0 0.59,-0.578 C 7.77,1.165 7.809,1.102 7.982,1.103 8.499,1.108 8.482,1.102 8.504,1.614 8.52,1.984 8.499,2.321 8.149,2.535 8.049,2.597 7.929,2.662 7.817,2.664 6.972,2.674 6.126,2.669 5.28,2.67 M 3.569,-4.783 c -1.311,0 -2.623,-0.018 -3.934,0.007 -0.72,0.013 -1.353,0.328 -1.925,0.746 -1.437,1.047 -2.049,2.49 -1.832,4.226 0.219,1.759 1.265,2.932 2.899,3.571 0.326,0.128 0.7,0.183 1.052,0.185 2.383,0.016 4.766,-0.008 7.149,0.016 1.021,0.011 1.883,-0.336 2.659,-0.96 2.591,-2.084 1.922,-6.26 -1.053,-7.53 -0.396,-0.169 -0.806,-0.26 -1.24,-0.258 -1.258,0.005 -2.517,0.002 -3.775,0.002 z" /></g><g
           transform="translate(129.7681,68.8459)"
           id="g100"><path
             id="path102"
             style="fill:#ffffff;fill-opacity:1;fill-rule:nonzero;stroke:none"
             d="m 0,0 c -0.752,0 -1.504,-0.004 -2.256,0.003 -0.16,0.002 -0.211,-0.054 -0.209,-0.205 0.005,-0.486 0.005,-0.972 0,-1.457 -0.002,-0.151 0.05,-0.213 0.209,-0.213 1.503,0.004 3.007,0.004 4.511,0 0.158,0 0.211,0.061 0.21,0.212 -0.005,0.479 -0.007,0.958 0,1.437 C 2.468,-0.052 2.413,0.006 2.236,0.004 1.491,-0.005 0.745,0 0,0 M 0.02,3.48 C 0.865,3.48 1.711,3.485 2.557,3.474 2.668,3.473 2.788,3.407 2.889,3.346 3.239,3.132 3.26,2.795 3.244,2.425 3.222,1.912 3.238,1.919 2.721,1.914 2.548,1.912 2.51,1.975 2.51,2.135 2.513,2.713 2.509,2.713 1.921,2.713 c -1.385,0 -2.77,0 -4.156,-10e-4 -0.275,0 -0.276,-0.001 -0.276,-0.278 0,-0.473 0.007,-0.946 -0.004,-1.419 -0.004,-0.192 0.06,-0.252 0.252,-0.251 1.611,0.006 3.223,0.004 4.834,0.003 0.327,0 0.667,-0.341 0.667,-0.669 0,-0.659 -0.004,-1.318 0.003,-1.977 0.002,-0.152 -0.055,-0.255 -0.147,-0.371 -0.249,-0.315 -0.55,-0.407 -0.95,-0.401 -1.532,0.024 -3.064,0.012 -4.595,0.006 -0.175,0 -0.29,0.065 -0.422,0.172 -0.294,0.239 -0.382,0.522 -0.376,0.9 0.023,1.431 0.012,2.863 0.006,4.295 -0.001,0.166 0.057,0.278 0.16,0.405 0.23,0.285 0.5,0.376 0.866,0.362 C -1.473,3.46 -0.726,3.48 0.02,3.48" /></g><g
           transform="translate(124.5076,69.6566)"
           id="g104"><path
             id="path106"
             style="fill:#ffffff;fill-opacity:1;fill-rule:nonzero;stroke:none"
             d="m 0,0 c 0,-0.812 0.004,-1.623 -0.003,-2.435 -0.002,-0.187 0.052,-0.256 0.249,-0.253 0.543,0.009 0.543,0.001 0.543,-0.535 -0.001,-0.265 -0.001,-0.266 -0.259,-0.266 -0.632,0 -1.264,0.004 -1.896,-0.003 -0.16,-0.002 -0.223,0.041 -0.223,0.211 -0.002,0.557 -0.008,0.562 0.546,0.566 0.165,10e-4 0.233,0.041 0.232,0.224 -0.007,1.377 -0.007,2.755 0,4.132 0,0.172 -0.042,0.245 -0.222,0.227 -0.132,-0.014 -0.268,-0.016 -0.398,0.004 -0.054,0.008 -0.133,0.084 -0.138,0.135 -0.067,0.674 -0.065,0.674 0.605,0.674 0.246,0 0.493,-0.009 0.738,0.003 C -0.05,2.693 0.005,2.629 0.003,2.455 -0.004,1.637 0,0.818 0,0" /></g><g
           transform="translate(129.7681,68.846)"
           id="g108"><path
             id="path110"
             style="fill:#000000;fill-opacity:1;fill-rule:nonzero;stroke:none"
             d="m 0,0 c 0.745,0 1.491,-0.005 2.236,0.004 0.177,0.002 0.232,-0.056 0.229,-0.227 -0.007,-0.479 -0.005,-0.958 0,-1.437 0.001,-0.151 -0.052,-0.212 -0.21,-0.212 -1.504,0.004 -3.008,0.004 -4.511,0 -0.159,0 -0.211,0.062 -0.209,0.213 0.005,0.485 0.005,0.971 0,1.457 -0.002,0.151 0.049,0.207 0.209,0.205 C -1.504,-0.004 -0.752,0 0,0" /></g><g
           transform="translate(122.5186,77.5409)"
           id="g112"><path
             id="path114"
             style="fill:#ffffff;fill-opacity:1;fill-rule:nonzero;stroke:none"
             d="m 0,0 h -0.666 -0.23 -0.897 c 0,0.094 0,0.166 0,0.238 0,0.446 0,0.892 0,1.338 0,1.291 0,2.582 0,3.873 0,0.256 10e-4,0.256 0.263,0.256 0.211,0 0.422,0 0.634,0 v 0 h 2.438 c 0,0.517 0,1.034 10e-4,1.551 h -2.74 v 0.015 h -0.576 v 5.026 h 0.576 0.31 2.432 c 0.001,0.403 0.001,0.807 0.001,1.211 0,0.194 -0.039,0.263 -0.25,0.261 -1.032,-0.012 -2.064,-0.005 -3.095,-0.006 -0.861,-10e-4 -1.487,-0.623 -1.489,-1.483 -0.003,-1.517 -0.002,-10.504 0,-12.281 0.002,-0.909 0.583,-1.487 1.487,-1.485 1.045,10e-4 2.09,0.006 3.135,0.009 0.059,0 0.118,0 0.195,0 0.005,0.092 0.013,0.17 0.013,0.248 0,0.41 0,0.819 0,1.229 z" /></g><g
           transform="translate(129.7721,91.3043)"
           id="g116"><path
             id="path118"
             style="fill:#ffffff;fill-opacity:1;fill-rule:nonzero;stroke:none"
             d="m 0,0 h -0.248 c -0.786,0 -4.314,0 -4.314,0 v -1.467 h 1.629 v -13.985 h 1.602 v 13.985 h 1.326 v 0.402 H 0 Z" /></g><g
           transform="translate(172.8518,43.8966)"
           id="g120"><path
             id="path122"
             style="fill:#e6e6e6;fill-opacity:1;fill-rule:nonzero;stroke:none"
             d="M 0,0 H 0.543 L -0.208,-3.346 H 1.824 L 1.723,-3.798 h -2.575 z" /></g><g
           transform="translate(175.8961,43.8966)"
           id="g124"><path
             id="path126"
             style="fill:#e6e6e6;fill-opacity:1;fill-rule:nonzero;stroke:none"
             d="M 0,0 H 0.5 L 0.38,-0.527 h -0.5 z m -0.235,-1.042 h 0.5 l -0.617,-2.756 h -0.5 z" /></g><g
           transform="translate(180.2863,42.7563)"
           id="g128"><path
             id="path130"
             style="fill:#e6e6e6;fill-opacity:1;fill-rule:nonzero;stroke:none"
             d="m 0,0 h -0.53 c -0.005,0.246 -0.082,0.44 -0.229,0.584 -0.147,0.143 -0.383,0.215 -0.707,0.215 -0.395,0 -0.743,-0.131 -1.044,-0.395 -0.302,-0.263 -0.513,-0.666 -0.635,-1.209 -0.1,-0.446 -0.072,-0.806 0.086,-1.083 0.157,-0.277 0.453,-0.416 0.888,-0.416 0.401,0 0.739,0.146 1.013,0.437 0.144,0.154 0.272,0.355 0.383,0.605 h 0.529 c -0.136,-0.4 -0.367,-0.735 -0.693,-1.006 -0.393,-0.325 -0.86,-0.488 -1.401,-0.488 -0.466,0 -0.827,0.133 -1.084,0.4 -0.336,0.354 -0.422,0.899 -0.256,1.637 0.125,0.56 0.385,1.02 0.778,1.378 0.426,0.39 0.936,0.585 1.531,0.585 0.508,0 0.874,-0.127 1.098,-0.38 C -0.049,0.61 0.042,0.322 0,0" /></g><g
           transform="translate(182.7954,41.6548)"
           id="g132"><path
             id="path134"
             style="fill:#e6e6e6;fill-opacity:1;fill-rule:nonzero;stroke:none"
             d="M 0,0 -0.232,1.678 -1.256,0 Z M -0.388,2.242 H 0.227 L 0.83,-1.557 H 0.235 l -0.153,1.138 h -1.586 l -0.688,-1.138 h -0.557 z" /></g><g
           transform="translate(186.4455,42.1564)"
           id="g136"><path
             id="path138"
             style="fill:#e6e6e6;fill-opacity:1;fill-rule:nonzero;stroke:none"
             d="M 0,0 C 0.255,0 0.468,0.048 0.638,0.145 0.808,0.241 0.921,0.415 0.977,0.666 1.037,0.936 0.975,1.12 0.789,1.218 0.689,1.27 0.546,1.295 0.36,1.295 H -0.967 L -1.256,0 Z M -1.409,1.74 H 0.448 C 0.754,1.74 0.996,1.698 1.174,1.613 1.514,1.451 1.636,1.152 1.54,0.716 1.489,0.489 1.398,0.303 1.266,0.158 1.134,0.013 0.968,-0.103 0.77,-0.191 0.914,-0.252 1.014,-0.331 1.07,-0.429 1.127,-0.527 1.135,-0.687 1.095,-0.908 L 0.999,-1.417 C 0.972,-1.562 0.961,-1.669 0.967,-1.74 0.972,-1.861 1.013,-1.938 1.089,-1.973 L 1.07,-2.058 H 0.404 c -0.011,0.033 -0.016,0.075 -0.016,0.127 0,0.051 0.013,0.151 0.041,0.299 l 0.109,0.634 c 0.042,0.248 -0.018,0.415 -0.18,0.499 -0.095,0.047 -0.253,0.07 -0.475,0.07 H -1.354 L -1.717,-2.058 H -2.26 Z" /></g><g
           transform="translate(189.7955,40.5378)"
           id="g140"><path
             id="path142"
             style="fill:#e6e6e6;fill-opacity:1;fill-rule:nonzero;stroke:none"
             d="M 0,0 C 0.184,0 0.339,0.018 0.464,0.054 0.69,0.121 0.892,0.251 1.07,0.442 1.212,0.595 1.333,0.791 1.433,1.031 1.493,1.174 1.537,1.306 1.564,1.429 1.67,1.899 1.653,2.264 1.514,2.524 1.375,2.784 1.086,2.914 0.647,2.914 H -0.317 L -0.969,0 Z M -0.762,3.359 H 0.863 C 1.414,3.359 1.8,3.173 2.02,2.803 2.217,2.468 2.256,2.04 2.138,1.518 2.049,1.114 1.887,0.75 1.652,0.424 1.242,-0.152 0.693,-0.44 0.005,-0.44 h -1.619 z" /></g><path
           id="path144"
           style="fill:#a3834a;fill-opacity:1;fill-rule:nonzero;stroke:none"
           d="m 66,224 h -2 v 12 h 2 z" /><path
           id="path146"
           style="fill:#a3834a;fill-opacity:1;fill-rule:nonzero;stroke:none"
           d="m 70,228 h -2 v 8 h 2 z" /><path
           id="path148"
           style="fill:#a3834a;fill-opacity:1;fill-rule:nonzero;stroke:none"
           d="m 74,228 h -2 v 8 h 2 z" /><path
           id="path150"
           style="fill:#a3834a;fill-opacity:1;fill-rule:nonzero;stroke:none"
           d="m 78,228 h -2 v 8 h 2 z" /><path
           id="path152"
           style="fill:#a3834a;fill-opacity:1;fill-rule:nonzero;stroke:none"
           d="m 82,228 h -2 v 8 h 2 z" /><path
           id="path154"
           style="fill:#a3834a;fill-opacity:1;fill-rule:nonzero;stroke:none"
           d="m 86,228 h -2 v 8 h 2 z" /><path
           id="path156"
           style="fill:#a3834a;fill-opacity:1;fill-rule:nonzero;stroke:none"
           d="m 90,228 h -2 v 8 h 2 z" /><path
           id="path158"
           style="fill:#a3834a;fill-opacity:1;fill-rule:nonzero;stroke:none"
           d="m 94,228 h -2 v 8 h 2 z" /><path
           id="path160"
           style="fill:#a3834a;fill-opacity:1;fill-rule:nonzero;stroke:none"
           d="m 98,228 h -2 v 8 h 2 z" /><path
           id="path162"
           style="fill:#a3834a;fill-opacity:1;fill-rule:nonzero;stroke:none"
           d="m 102,228 h -2 v 8 h 2 z" /><path
           id="path164"
           style="fill:#a3834a;fill-opacity:1;fill-rule:nonzero;stroke:none"
           d="m 106,228 h -2 v 8 h 2 z" /><path
           id="path166"
           style="fill:#a3834a;fill-opacity:1;fill-rule:nonzero;stroke:none"
           d="m 110,228 h -2 v 8 h 2 z" /><path
           id="path168"
           style="fill:#a3834a;fill-opacity:1;fill-rule:nonzero;stroke:none"
           d="m 114,228 h -2 v 8 h 2 z" /><path
           id="path170"
           style="fill:#a3834a;fill-opacity:1;fill-rule:nonzero;stroke:none"
           d="m 118,228 h -2 v 8 h 2 z" /><path
           id="path172"
           style="fill:#a3834a;fill-opacity:1;fill-rule:nonzero;stroke:none"
           d="m 122,228 h -2 v 12 h 2 z" /><path
           id="path174"
           style="fill:#a3834a;fill-opacity:1;fill-rule:nonzero;stroke:none"
           d="m 126,228 h -2 v 8 h 2 z" /><path
           id="path176"
           style="fill:#a3834a;fill-opacity:1;fill-rule:nonzero;stroke:none"
           d="m 130,228 h -2 v 8 h 2 z" /><path
           id="path178"
           style="fill:#a3834a;fill-opacity:1;fill-rule:nonzero;stroke:none"
           d="m 134,228 h -2 v 8 h 2 z" /><path
           id="path180"
           style="fill:#a3834a;fill-opacity:1;fill-rule:nonzero;stroke:none"
           d="m 138,228 h -2 v 8 h 2 z" /><path
           id="path182"
           style="fill:#a3834a;fill-opacity:1;fill-rule:nonzero;stroke:none"
           d="m 142,228 h -2 v 8 h 2 z" /><path
           id="path184"
           style="fill:#a3834a;fill-opacity:1;fill-rule:nonzero;stroke:none"
           d="m 146,228 h -2 v 8 h 2 z" /><path
           id="path186"
           style="fill:#a3834a;fill-opacity:1;fill-rule:nonzero;stroke:none"
           d="m 150,228 h -2 v 8 h 2 z" /><path
           id="path188"
           style="fill:#a3834a;fill-opacity:1;fill-rule:nonzero;stroke:none"
           d="m 154,228 h -2 v 8 h 2 z" /><path
           id="path190"
           style="fill:#a3834a;fill-opacity:1;fill-rule:nonzero;stroke:none"
           d="m 158,228 h -2 v 8 h 2 z" /><path
           id="path192"
           style="fill:#a3834a;fill-opacity:1;fill-rule:nonzero;stroke:none"
           d="m 162,228 h -2 v 8 h 2 z" /><path
           id="path194"
           style="fill:#a3834a;fill-opacity:1;fill-rule:nonzero;stroke:none"
           d="m 166,228 h -2 v 8 h 2 z" /><path
           id="path196"
           style="fill:#a3834a;fill-opacity:1;fill-rule:nonzero;stroke:none"
           d="m 170,228 h -2 v 8 h 2 z" /><path
           id="path198"
           style="fill:#a3834a;fill-opacity:1;fill-rule:nonzero;stroke:none"
           d="m 174,228 h -2 v 8 h 2 z" /><path
           id="path200"
           style="fill:#a3834a;fill-opacity:1;fill-rule:nonzero;stroke:none"
           d="m 178,228 h -2 v 8 h 2 z" /><path
           id="path202"
           style="fill:#a3834a;fill-opacity:1;fill-rule:nonzero;stroke:none"
           d="m 182,228 h -2 v 8 h 2 z" /><path
           id="path204"
           style="fill:#a3834a;fill-opacity:1;fill-rule:nonzero;stroke:none"
           d="m 186,228 h -2 v 8 h 2 z" /><path
           id="path206"
           style="fill:#a3834a;fill-opacity:1;fill-rule:nonzero;stroke:none"
           d="m 190,228 h -2 v 12 h 2 z" /><g
           transform="translate(72.8826,43.929)"
           id="g208"><path
             id="path210"
             style="fill:#000000;fill-opacity:1;fill-rule:nonzero;stroke:none"
             d="m 0,0 c -0.149,-0.094 -0.33,-0.104 -0.496,-0.073 0.113,-0.298 0.16,-0.617 0.232,-0.928 0.083,-0.305 0.184,-0.675 0.487,-0.802 0.2,-0.099 0.429,-0.003 0.578,0.152 0.234,0.242 0.378,0.563 0.517,0.873 0.048,0.11 0.094,0.22 0.142,0.33 C 1.246,-0.449 1.036,-0.378 0.853,-0.263 0.673,-0.144 0.632,0.142 0.41,0.199 0.252,0.201 0.132,0.073 0,0 M 11.554,2.16 C 10.97,2.022 10.377,1.817 9.771,1.919 9.824,1.49 9.763,1.053 9.619,0.65 9.543,0.603 9.681,0.541 9.7,0.614 L 9.747,0.586 C 9.797,0.435 9.953,0.379 10.088,0.364 10.436,0.328 10.784,0.41 11.114,0.52 11.034,0.6 10.929,0.675 10.913,0.8 10.924,0.854 10.948,0.902 10.97,0.951 11.21,0.941 11.447,0.9 11.684,0.87 12.009,1.129 12.213,1.572 12.182,2.008 12.178,2.125 12.104,2.244 11.99,2.259 11.841,2.283 11.69,2.222 11.554,2.16 M 13.399,2.858 13.391,2.842 C 13.085,2.743 12.793,2.603 12.49,2.495 12.56,2.02 12.47,1.52 12.255,1.099 c -0.094,-0.063 0.101,-0.098 0.062,0 0.022,0.001 0.064,0.002 0.085,0.003 0.006,-0.087 0.102,-0.109 0.167,-0.104 0.259,0.023 0.504,0.137 0.73,0.27 -0.073,0.066 -0.161,0.122 -0.208,0.213 -0.032,0.065 0.009,0.132 0.024,0.195 0.186,-0.006 0.37,-0.027 0.553,-0.059 0.19,0.24 0.332,0.559 0.275,0.88 -0.031,0.156 -0.081,0.331 -0.216,0.419 -0.11,0.064 -0.225,-0.018 -0.328,-0.058 m 1.697,0.791 C 14.797,3.504 14.5,3.356 14.201,3.213 14.317,2.695 14.217,2.146 13.969,1.69 c 0.063,0.042 0.151,0.057 0.2,0.118 0.102,-0.071 0.227,-0.062 0.339,-0.03 0.221,0.064 0.431,0.169 0.621,0.305 -0.11,0.085 -0.249,0.228 -0.128,0.374 0.138,-0.017 0.277,-0.03 0.416,-0.052 0.172,0.25 0.342,0.562 0.273,0.884 C 15.61,3.493 15.454,3.671 15.251,3.733 15.199,3.705 15.148,3.677 15.096,3.649 M 5.657,4.346 C 5.394,4.304 5.129,4.231 4.895,4.091 4.623,3.882 4.416,3.538 4.43,3.169 4.443,2.812 4.629,2.494 4.842,2.232 5.237,1.77 5.757,1.405 6.339,1.297 6.779,1.224 7.25,1.236 7.654,1.455 8.029,1.648 8.376,1.977 8.478,2.424 8.573,2.819 8.543,3.301 8.248,3.593 7.894,3.946 7.436,4.17 6.965,4.271 6.536,4.37 6.093,4.412 5.657,4.346 m 10.977,0.19 C 16.38,4.373 16.121,4.218 15.86,4.068 15.982,3.566 15.895,3.029 15.704,2.56 c 0.078,0.057 0.153,0.119 0.223,0.186 0.124,-0.14 0.304,-0.021 0.429,0.056 0.576,0.381 0.722,1.238 0.515,1.888 C 16.793,4.637 16.714,4.586 16.634,4.536 M -4.545,5.153 C -4.851,4.963 -5.12,4.662 -5.19,4.28 -5.271,3.825 -5.104,3.337 -4.793,3.021 -4.595,2.813 -4.331,2.691 -4.061,2.638 L -4.059,2.63 c 0.163,-0.012 0.333,-0.068 0.495,-0.021 0.565,0.017 1.12,0.244 1.571,0.605 0.337,0.276 0.632,0.681 0.634,1.155 0.013,0.235 -0.117,0.44 -0.256,0.607 C -1.916,5.312 -2.351,5.463 -2.773,5.517 -3.378,5.584 -4.014,5.482 -4.545,5.153 M 17.8,5.421 C 17.675,5.312 17.552,5.2 17.42,5.101 c 0.174,-0.325 0.105,-0.716 0.055,-1.067 0.05,0.064 0.099,0.127 0.149,0.19 0.004,-0.034 0.013,-0.101 0.018,-0.135 0.088,0.033 0.175,0.087 0.211,0.185 0.106,0.25 0.159,0.526 0.153,0.8 0.004,0.17 -0.054,0.334 -0.038,0.504 C 17.911,5.527 17.855,5.475 17.8,5.421 M 0.455,6.715 C 0.467,6.569 0.472,6.423 0.472,6.277 0.451,6.161 0.395,6.06 0.318,5.978 0.3,6.072 0.275,6.164 0.243,6.254 0.194,6.392 0.148,6.53 0.1,6.669 -0.875,6.532 -1.831,6.235 -2.72,5.785 -2.735,5.806 -2.764,5.847 -2.778,5.868 -2.846,5.826 -2.913,5.785 -2.98,5.744 -2.717,5.738 -2.455,5.696 -2.199,5.626 -1.985,5.559 -1.776,5.469 -1.587,5.341 L -1.58,5.344 C -1.474,5.258 -1.372,5.166 -1.28,5.062 -1.039,4.757 -1,4.315 -1.142,3.951 -1.402,3.268 -1.938,2.712 -2.584,2.456 -2.84,2.36 -3.107,2.302 -3.378,2.29 -3.683,2.277 -3.989,2.324 -4.279,2.425 -4.49,2.507 -4.686,2.624 -4.863,2.771 -4.836,2.45 -4.753,2.136 -4.619,1.848 -4.74,1.786 -4.901,1.637 -4.794,1.484 -4.65,1.322 -4.429,1.279 -4.231,1.238 c 0.525,-0.695 1.23,-1.207 1.969,-1.609 0.607,-0.329 1.246,-0.59 1.906,-0.769 -0.057,0.188 -0.098,0.381 -0.134,0.575 -0.032,0.173 -0.049,0.35 -0.093,0.52 -0.147,0.124 -0.26,0.287 -0.293,0.487 -0.006,0.135 0.011,0.272 0.077,0.389 -0.015,-0.148 -0.029,-0.297 0.006,-0.443 0.084,-0.2 0.262,-0.35 0.467,-0.374 0.119,-0.015 0.228,0.049 0.332,0.103 0.127,0.078 0.258,0.167 0.408,0.178 0.167,-0.01 0.24,-0.194 0.324,-0.321 h 0.004 c 0.166,-0.201 0.416,-0.348 0.672,-0.309 0.134,0.018 0.244,0.107 0.339,0.203 0.083,0.111 0.15,0.234 0.201,0.366 0.006,0 0.02,0.003 0.026,0.004 C 1.974,-0.051 1.784,-0.297 1.547,-0.416 1.525,-0.541 1.487,-0.661 1.452,-0.781 1.359,-0.979 1.261,-1.175 1.141,-1.356 c -0.055,-0.042 0.02,-0.051 0.045,-0.055 0.4,-0.039 0.802,-0.057 1.204,-0.07 1.007,-0.033 2.023,-0.017 3.016,0.19 0.693,0.145 1.374,0.367 2.016,0.681 0.503,0.255 0.99,0.583 1.346,1.049 C 9.087,0.873 9.23,1.467 9.089,2.005 8.975,2.416 8.795,2.804 8.586,3.168 8.649,2.913 8.708,2.648 8.671,2.383 8.658,2.216 8.593,2.064 8.539,1.91 V 1.878 H 8.521 C 8.349,1.579 8.092,1.343 7.795,1.194 6.792,0.696 5.505,0.973 4.762,1.851 4.441,2.237 4.145,2.71 4.151,3.247 4.159,3.68 4.446,4.043 4.786,4.244 5.357,4.587 6.035,4.67 6.678,4.608 6.96,4.568 7.242,4.507 7.501,4.375 7.59,4.329 7.681,4.289 7.775,4.256 7.521,4.564 7.224,4.827 6.923,5.081 6.841,5.148 6.753,5.206 6.663,5.261 5.406,6.04 3.992,6.52 2.551,6.695 2.506,6.566 2.463,6.438 2.419,6.31 2.376,6.185 2.336,6.059 2.299,5.931 2.198,6.035 2.165,6.182 2.151,6.325 2.156,6.461 2.165,6.597 2.178,6.732 1.604,6.778 1.028,6.77 0.455,6.715 m -1.761,0.724 c -0.07,-0.16 0.18,-0.101 0.265,-0.093 0.289,0.01 0.575,0.06 0.863,0.091 -0.02,0.044 -0.041,0.087 -0.063,0.13 -0.016,0.049 -0.032,0.098 -0.048,0.147 -0.008,0.02 -0.027,0.062 -0.036,0.082 C -0.655,7.691 -0.995,7.6 -1.306,7.439 m 0.394,0.338 C -0.739,7.84 -0.568,7.908 -0.395,7.971 -0.414,8.017 -0.432,8.063 -0.45,8.108 -0.606,8.002 -0.765,7.898 -0.912,7.777 M 3.091,8.18 C 3.083,8.152 3.068,8.097 3.06,8.07 L 3.053,8.071 C 3.037,8.032 3.022,7.993 3.006,7.954 2.989,7.907 2.972,7.859 2.955,7.812 2.941,7.778 2.928,7.744 2.915,7.71 2.891,7.645 2.868,7.58 2.844,7.515 4.082,7.4 5.317,7.099 6.437,6.51 7.835,5.793 9.015,4.627 9.846,3.23 9.896,3.155 9.987,3.003 10.078,3.105 10.194,3.37 10.152,3.677 10.128,3.959 10.064,4.563 9.691,5.058 9.307,5.476 8.712,6.098 8.007,6.584 7.267,6.983 5.967,7.671 4.539,8.084 3.091,8.18 M 0.125,7.929 C 0.13,7.907 0.139,7.863 0.144,7.841 L 0.153,7.844 C 0.173,7.783 0.193,7.722 0.213,7.661 0.231,7.602 0.249,7.542 0.267,7.483 0.96,7.549 1.658,7.574 2.354,7.543 2.377,7.625 2.401,7.707 2.424,7.79 2.449,7.873 2.475,7.956 2.501,8.039 L 2.506,8.038 C 2.523,8.095 2.541,8.152 2.558,8.209 1.74,8.209 0.923,8.122 0.125,7.929 m -0.18,0.454 C -0.039,8.343 -0.022,8.302 -0.006,8.261 0.013,8.212 0.032,8.163 0.051,8.113 0.903,8.366 1.785,8.505 2.669,8.521 2.707,8.62 2.745,8.72 2.783,8.82 2.837,8.955 2.892,9.09 2.946,9.225 3.035,9.438 3.133,9.647 3.221,9.861 3.312,10.022 3.377,10.2 3.465,10.363 2.24,9.817 1.066,9.143 -0.055,8.383 M 10.21,10.675 C 9.266,10.464 8.339,10.141 7.483,9.66 7.069,9.417 6.654,9.145 6.348,8.752 6.223,8.589 6.117,8.379 6.162,8.162 6.211,7.96 6.383,7.827 6.557,7.753 7.379,7.406 8.16,6.945 8.864,6.372 9.393,5.937 9.888,5.44 10.261,4.844 10.467,4.504 10.659,4.12 10.646,3.703 10.647,3.534 10.56,3.39 10.496,3.243 c 0.3,0.057 0.585,0.18 0.871,0.29 1.076,0.432 2.132,0.916 3.178,1.422 0.733,0.362 1.466,0.726 2.161,1.166 0.168,0.103 0.334,0.23 0.43,0.416 0.159,0.283 0.158,0.632 0.098,0.947 -0.136,0.624 -0.491,1.165 -0.889,1.63 -0.488,0.559 -1.068,1.02 -1.692,1.387 -0.388,0.167 -0.802,0.256 -1.213,0.324 -1.074,0.165 -2.17,0.08 -3.23,-0.15 M 4.459,10.774 C 4.37,10.737 4.272,10.717 4.193,10.658 4.119,10.534 4.061,10.399 3.998,10.268 3.826,9.922 3.672,9.567 3.516,9.212 3.466,9.095 3.417,8.979 3.37,8.861 H 3.363 C 3.319,8.744 3.273,8.628 3.226,8.512 c 0.3,-0.017 0.601,-0.048 0.899,0.002 0.228,0.034 0.448,0.115 0.659,0.208 1.566,0.713 3.135,1.427 4.763,1.963 1.013,0.334 2.052,0.596 3.111,0.683 -0.097,0.03 -0.195,0.068 -0.296,0.082 -0.466,0.133 -0.943,0.215 -1.422,0.272 -2.192,0.246 -4.413,-0.163 -6.481,-0.948 m -12.716,2.427 c -0.202,-0.115 -0.36,-0.316 -0.428,-0.551 -0.053,-0.156 -0.063,-0.328 -0.033,-0.492 0.017,-0.075 0.038,-0.15 0.072,-0.218 0.16,-0.424 0.634,-0.656 1.042,-0.555 0.371,0.075 0.681,0.418 0.728,0.82 0.044,0.312 -0.065,0.642 -0.284,0.854 -0.287,0.292 -0.752,0.348 -1.097,0.142 m 18.88,0.97 c -0.191,-0.518 -0.082,-1.176 0.329,-1.537 0.221,-0.199 0.531,-0.283 0.811,-0.205 0.344,0.091 0.621,0.393 0.734,0.748 0.031,0.084 0.053,0.172 0.064,0.261 0.036,0.206 0.029,0.422 -0.032,0.621 -0.094,0.472 -0.504,0.875 -0.967,0.863 -0.424,0.003 -0.794,-0.339 -0.939,-0.751 M 6.656,14.151 C 5.713,13.283 4.994,12.173 4.38,11.024 c 2.144,0.785 4.426,1.186 6.693,1.028 -0.426,0.196 -0.785,0.569 -0.947,1.038 -0.119,0.341 -0.107,0.738 0.058,1.059 0.183,0.363 0.506,0.621 0.848,0.795 0.025,0.008 0.099,0.056 0.033,0.071 -0.578,0.25 -1.203,0.387 -1.827,0.347 -0.963,-0.054 -1.86,-0.548 -2.582,-1.211 m 3.149,1.92 h 0.66 c 0.642,-0.051 1.332,-0.191 1.818,-0.679 0.369,-0.36 0.513,-0.918 0.482,-1.439 -0.032,-0.543 -0.126,-1.114 -0.438,-1.559 -0.138,-0.202 -0.346,-0.331 -0.564,-0.411 1.379,-0.164 2.745,-0.548 3.986,-1.222 0.67,-0.366 1.304,-0.823 1.831,-1.4 C 18.023,8.867 18.398,8.274 18.528,7.595 18.606,7.209 18.583,6.805 18.47,6.429 18.7,5.827 18.65,5.143 18.464,4.535 18.299,3.99 17.983,3.484 17.53,3.169 17.401,3.076 17.242,3.084 17.095,3.102 16.882,2.76 16.623,2.45 16.326,2.189 16.94,1.988 17.533,1.691 18.043,1.268 c 0.396,-0.329 0.739,-0.75 0.922,-1.255 0.086,-0.232 0.127,-0.479 0.152,-0.726 v -0.295 c -0.019,-0.144 -0.044,-0.298 -0.133,-0.414 -0.102,-0.134 -0.312,-0.165 -0.433,-0.045 -0.058,0.062 -0.038,0.158 -0.041,0.237 0.031,0.303 -0.097,0.584 -0.178,0.865 C 18.159,0.188 17.85,0.702 17.398,1.036 16.962,1.396 16.411,1.51 15.909,1.722 15.714,1.82 15.49,1.794 15.293,1.883 15.126,1.679 14.937,1.498 14.73,1.341 15.407,1.088 16.065,0.74 16.602,0.224 c 0.466,-0.441 0.827,-1.038 0.911,-1.707 0.034,-0.309 0.069,-0.652 -0.079,-0.935 -0.099,-0.193 -0.406,-0.252 -0.525,-0.055 -0.055,0.176 0.019,0.368 -0.033,0.546 -0.135,0.495 -0.282,0.998 -0.559,1.425 C 16.061,-0.1 15.695,0.21 15.294,0.432 14.992,0.581 14.672,0.682 14.359,0.802 14.181,0.865 14.005,0.966 13.811,0.941 13.689,0.929 13.576,0.98 13.468,1.032 13.279,0.849 13.064,0.7 12.844,0.561 c 0.134,-0.078 0.283,-0.119 0.422,-0.183 0.626,-0.28 1.228,-0.644 1.727,-1.141 0.464,-0.456 0.834,-1.047 0.959,-1.717 0.066,-0.369 0.111,-0.762 -0.004,-1.125 -0.047,-0.16 -0.17,-0.285 -0.323,-0.324 h -0.134 c -0.085,0.029 -0.187,0.066 -0.21,0.17 -0.041,0.193 0.033,0.396 -0.024,0.587 -0.167,0.614 -0.352,1.242 -0.722,1.755 -0.3,0.419 -0.707,0.744 -1.148,0.976 C 12.775,-0.17 12.131,0.015 11.523,0.297 10.994,-0.056 10.352,-0.098 9.745,-0.092 9.585,-0.097 9.427,-0.061 9.277,-0.002 8.852,-0.542 8.288,-0.94 7.695,-1.239 7.136,-1.512 6.55,-1.717 5.954,-1.873 5.015,-2.112 4.048,-2.183 3.086,-2.187 2.103,-2.164 1.115,-2.142 0.145,-1.955 -1.022,-1.743 -2.139,-1.27 -3.159,-0.631 -3.24,-0.917 -3.3,-1.21 -3.357,-1.503 c -0.04,-0.197 0.013,-0.4 -0.021,-0.598 -0.026,-0.162 -0.229,-0.219 -0.339,-0.115 -0.149,0.138 -0.17,0.366 -0.191,0.562 -0.028,0.486 0.039,0.975 0.172,1.439 -0.286,0.232 -0.559,0.485 -0.798,0.773 -0.25,-0.261 -0.453,-0.574 -0.595,-0.917 -0.198,-0.472 -0.305,-0.98 -0.406,-1.484 -0.042,-0.207 0.012,-0.42 -0.026,-0.627 -0.035,-0.171 -0.265,-0.201 -0.364,-0.077 -0.135,0.164 -0.154,0.398 -0.168,0.606 -0.016,0.635 0.096,1.28 0.366,1.849 0.201,0.432 0.486,0.816 0.815,1.144 -0.417,0.589 -0.637,1.333 -0.595,2.072 0.009,0.239 0.058,0.474 0.102,0.707 0.129,0.322 0.206,0.666 0.364,0.974 0.142,0.189 0.244,0.43 0.448,0.553 0.233,0.079 0.372,0.315 0.565,0.464 0.233,0.176 0.461,0.36 0.709,0.511 0.153,0.097 0.318,0.174 0.457,0.294 0.733,0.633 1.495,1.229 2.286,1.776 -0.332,0.758 -0.7,1.501 -1.137,2.196 -0.47,0.748 -1.018,1.454 -1.691,2.004 -0.609,0.504 -1.334,0.862 -2.102,0.958 -0.617,0.083 -1.247,-0.006 -1.838,-0.202 0.31,-0.152 0.626,-0.35 0.805,-0.673 0.159,-0.281 0.136,-0.651 -0.025,-0.925 -0.23,-0.402 -0.645,-0.667 -1.078,-0.729 -0.318,-0.048 -0.663,0.061 -0.879,0.322 -0.24,0.284 -0.324,0.673 -0.362,1.044 v 0.432 c 0.05,0.348 0.216,0.681 0.488,0.885 0.474,0.363 1.078,0.436 1.644,0.456 0.698,0.002 1.4,-0.096 2.068,-0.314 0.935,-0.327 1.712,-1.018 2.378,-1.773 0.872,-1.006 1.569,-2.174 2.126,-3.408 1.217,0.809 2.496,1.512 3.833,2.062 0.764,1.442 1.661,2.833 2.836,3.928 0.486,0.445 1.027,0.839 1.632,1.072 0.542,0.201 1.113,0.287 1.683,0.333" /></g><g
           transform="translate(90.851,49.5075)"
           id="g212"><path
             id="path214"
             style="fill:#74b743;fill-opacity:1;fill-rule:nonzero;stroke:none"
             d="m 0,0 c -0.057,-0.052 -0.113,-0.104 -0.169,-0.157 -0.124,-0.11 -0.247,-0.221 -0.379,-0.321 0.173,-0.325 0.105,-0.715 0.055,-1.066 0.05,0.063 0.099,0.127 0.149,0.19 0.004,-0.034 0.013,-0.102 0.017,-0.136 0.088,0.033 0.176,0.088 0.212,0.185 0.106,0.25 0.158,0.527 0.153,0.801 C 0.042,-0.334 -0.016,-0.17 0,0" /></g><g
           transform="translate(89.5164,48.4651)"
           id="g216"><path
             id="path218"
             style="fill:#74b743;fill-opacity:1;fill-rule:nonzero;stroke:none"
             d="m 0,0 c -0.254,-0.163 -0.512,-0.318 -0.773,-0.468 0.121,-0.502 0.034,-1.039 -0.157,-1.508 0.078,0.057 0.153,0.119 0.223,0.186 0.124,-0.14 0.304,-0.021 0.429,0.056 0.576,0.381 0.723,1.238 0.515,1.888 C 0.159,0.101 0.08,0.05 0,0" /></g><g
           transform="translate(88.2992,46.334)"
           id="g220"><path
             id="path222"
             style="fill:#74b743;fill-opacity:1;fill-rule:nonzero;stroke:none"
             d="M 0,0 C 0.172,0.25 0.342,0.562 0.273,0.884 0.193,1.088 0.037,1.266 -0.165,1.328 -0.218,1.3 -0.269,1.272 -0.321,1.244 -0.62,1.099 -0.917,0.951 -1.216,0.808 c 0.117,-0.518 0.017,-1.067 -0.231,-1.523 0.062,0.042 0.151,0.057 0.2,0.118 0.101,-0.071 0.226,-0.062 0.339,-0.03 0.22,0.064 0.43,0.169 0.62,0.305 -0.109,0.085 -0.249,0.228 -0.128,0.374 C -0.277,0.035 -0.138,0.022 0,0" /></g><g
           transform="translate(86.6095,46.8448)"
           id="g224"><path
             id="path226"
             style="fill:#74b743;fill-opacity:1;fill-rule:nonzero;stroke:none"
             d="m 0,0 c -0.11,0.064 -0.225,-0.018 -0.328,-0.058 l -0.008,-0.015 c -0.306,-0.1 -0.598,-0.239 -0.901,-0.348 0.07,-0.475 -0.02,-0.975 -0.235,-1.396 0.015,0 0.046,0 0.062,0 0.022,10e-4 0.064,0.002 0.086,0.003 0.005,-0.086 0.101,-0.108 0.166,-0.103 0.26,0.022 0.504,0.136 0.73,0.27 -0.073,0.065 -0.161,0.121 -0.208,0.213 -0.032,0.064 0.009,0.132 0.024,0.194 0.186,-0.006 0.37,-0.026 0.554,-0.059 0.189,0.24 0.331,0.559 0.274,0.88 C 0.185,-0.263 0.135,-0.088 0,0" /></g><g
           transform="translate(84.873,46.1884)"
           id="g228"><path
             id="path230"
             style="fill:#74b743;fill-opacity:1;fill-rule:nonzero;stroke:none"
             d="m 0,0 c -0.15,0.023 -0.301,-0.037 -0.436,-0.099 -0.584,-0.138 -1.178,-0.344 -1.783,-0.241 0.053,-0.429 -0.008,-0.867 -0.153,-1.269 0.021,-0.009 0.062,-0.027 0.082,-0.036 l 0.047,-0.028 c 0.049,-0.151 0.205,-0.207 0.341,-0.222 0.347,-0.037 0.695,0.045 1.026,0.156 -0.08,0.079 -0.186,0.155 -0.202,0.28 0.011,0.054 0.036,0.102 0.058,0.151 0.239,-0.01 0.476,-0.052 0.714,-0.082 0.324,0.26 0.528,0.703 0.498,1.139 C 0.188,-0.134 0.114,-0.016 0,0" /></g><g
           transform="translate(68.7507,49.0589)"
           id="g232"><path
             id="path234"
             style="fill:#ffffff;fill-opacity:1;fill-rule:nonzero;stroke:none"
             d="M 0,0 C 0.509,0.255 1.116,0.21 1.622,-0.031 1.943,-0.183 2.249,-0.43 2.373,-0.794 2.16,-0.638 1.959,-0.461 1.726,-0.336 1.276,-0.077 0.733,0.033 0.238,-0.143 0.476,-0.156 0.716,-0.287 0.798,-0.539 0.822,-0.641 0.834,-0.746 0.838,-0.851 0.789,-1.081 0.632,-1.27 0.423,-1.346 0.261,-1.362 0.085,-1.355 -0.049,-1.245 c -0.138,0.096 -0.208,0.267 -0.24,0.435 -0.001,0.173 0.062,0.333 0.143,0.478 -0.274,-0.186 -0.49,-0.449 -0.677,-0.73 0.13,0.45 0.419,0.86 0.823,1.062" /></g><g
           transform="translate(78.7885,48.1241)"
           id="g236"><path
             id="path238"
             style="fill:#ffffff;fill-opacity:1;fill-rule:nonzero;stroke:none"
             d="m 0,0 c 0.608,0.124 1.244,-0.076 1.748,-0.444 0.306,-0.228 0.593,-0.545 0.655,-0.955 -0.372,0.455 -0.81,0.874 -1.35,1.078 -0.255,0.098 -0.526,0.136 -0.796,0.127 0.179,-0.152 0.287,-0.414 0.19,-0.651 C 0.429,-0.888 0.409,-0.931 0.388,-0.972 0.267,-1.134 0.069,-1.183 -0.116,-1.161 c -0.106,0.023 -0.193,0.1 -0.268,0.178 -0.137,0.176 -0.119,0.422 -0.044,0.622 C -0.672,-0.477 -0.886,-0.646 -1.091,-0.825 -0.86,-0.4 -0.452,-0.089 0,0" /></g><g
           transform="translate(83.8343,56.5627)"
           id="g240"><path
             id="path242"
             style="fill:#eac500;fill-opacity:1;fill-rule:nonzero;stroke:none"
             d="M 0,0 C 0.221,-0.199 0.531,-0.283 0.812,-0.205 1.155,-0.114 1.432,0.189 1.545,0.543 1.576,0.627 1.599,0.715 1.61,0.805 1.645,1.01 1.638,1.226 1.577,1.425 1.483,1.898 1.074,2.3 0.611,2.288 0.186,2.291 -0.184,1.949 -0.328,1.537 -0.52,1.019 -0.411,0.362 0,0" /></g><g
           transform="translate(65.723,56.9875)"
           id="g244"><path
             id="path246"
             style="fill:#eac500;fill-opacity:1;fill-rule:nonzero;stroke:none"
             d="m 0,0 c -0.287,0.293 -0.752,0.348 -1.097,0.143 -0.202,-0.116 -0.36,-0.316 -0.428,-0.551 -0.054,-0.157 -0.064,-0.329 -0.033,-0.492 0.017,-0.076 0.037,-0.151 0.072,-0.219 0.16,-0.423 0.633,-0.655 1.042,-0.554 0.371,0.074 0.68,0.417 0.727,0.82 C 0.328,-0.541 0.219,-0.211 0,0" /></g><g
           transform="translate(76.246,52.79)"
           id="g248"><path
             id="path250"
             style="fill:#eac500;fill-opacity:1;fill-rule:nonzero;stroke:none"
             d="m 0,0 c -0.044,-0.117 -0.09,-0.233 -0.137,-0.349 0.299,-0.017 0.601,-0.048 0.899,0.002 0.228,0.034 0.447,0.115 0.659,0.208 C 2.986,0.574 4.556,1.288 6.183,1.824 7.196,2.158 8.236,2.42 9.295,2.507 9.197,2.537 9.1,2.575 8.999,2.589 8.533,2.722 8.055,2.804 7.577,2.861 5.384,3.107 3.163,2.698 1.096,1.913 1.007,1.876 0.909,1.856 0.83,1.797 0.756,1.673 0.698,1.538 0.635,1.407 0.462,1.061 0.308,0.706 0.153,0.351 0.103,0.234 0.053,0.118 0.006,0 Z" /></g><g
           transform="translate(90.1163,51.4129)"
           id="g252"><path
             id="path254"
             style="fill:#eac500;fill-opacity:1;fill-rule:nonzero;stroke:none"
             d="m 0,0 c -0.136,0.624 -0.49,1.165 -0.889,1.63 -0.487,0.559 -1.068,1.02 -1.692,1.387 -0.388,0.167 -0.801,0.256 -1.213,0.324 -1.074,0.166 -2.17,0.08 -3.23,-0.15 C -7.968,2.98 -8.895,2.657 -9.75,2.176 c -0.415,-0.243 -0.83,-0.515 -1.136,-0.908 -0.125,-0.163 -0.231,-0.373 -0.186,-0.59 0.049,-0.202 0.222,-0.335 0.395,-0.409 0.822,-0.347 1.604,-0.808 2.308,-1.381 0.528,-0.435 1.024,-0.932 1.396,-1.528 0.206,-0.34 0.398,-0.724 0.385,-1.14 0.001,-0.169 -0.086,-0.314 -0.15,-0.461 0.301,0.057 0.585,0.18 0.872,0.29 1.075,0.432 2.132,0.916 3.178,1.422 0.732,0.362 1.465,0.726 2.16,1.166 0.169,0.103 0.334,0.23 0.43,0.416 C 0.061,-0.664 0.06,-0.315 0,0" /></g><g
           transform="translate(72.9333,52.0423)"
           id="g256"><path
             id="path258"
             style="fill:#eac500;fill-opacity:1;fill-rule:nonzero;stroke:none"
             d="m 0,0 c 0.852,0.252 1.734,0.392 2.618,0.407 0.039,0.1 0.077,0.2 0.115,0.3 0.053,0.135 0.108,0.27 0.162,0.405 C 2.984,1.325 3.083,1.534 3.17,1.748 3.261,1.909 3.327,2.086 3.414,2.25 2.189,1.704 1.015,1.03 -0.106,0.27 -0.09,0.229 -0.073,0.189 -0.057,0.148 -0.038,0.099 -0.019,0.049 0,0" /></g><g
           transform="translate(73.0355,51.7726)"
           id="g260"><path
             id="path262"
             style="fill:#eac500;fill-opacity:1;fill-rule:nonzero;stroke:none"
             d="m 0,0 c 0.02,-0.061 0.04,-0.121 0.06,-0.182 0.018,-0.059 0.036,-0.119 0.054,-0.179 0.693,0.066 1.391,0.092 2.087,0.06 0.024,0.083 0.047,0.165 0.07,0.247 0.025,0.083 0.051,0.166 0.077,0.249 H 2.353 C 2.37,0.252 2.388,0.309 2.405,0.366 1.587,0.366 0.77,0.278 -0.028,0.085 -0.023,0.063 -0.014,0.02 -0.009,-0.002 Z" /></g><g
           transform="translate(82.1892,49.4054)"
           id="g264"><path
             id="path266"
             style="fill:#eac500;fill-opacity:1;fill-rule:nonzero;stroke:none"
             d="M 0,0 C -0.594,0.622 -1.3,1.107 -2.039,1.507 -3.339,2.195 -4.768,2.608 -6.216,2.703 -6.224,2.676 -6.239,2.621 -6.247,2.593 L -6.254,2.594 C -6.27,2.556 -6.285,2.517 -6.301,2.478 -6.318,2.431 -6.335,2.383 -6.352,2.336 -6.365,2.302 -6.378,2.268 -6.392,2.233 -6.415,2.168 -6.439,2.103 -6.462,2.039 -5.224,1.924 -3.99,1.622 -2.87,1.034 c 1.399,-0.717 2.578,-1.883 3.41,-3.28 0.049,-0.075 0.141,-0.227 0.231,-0.125 0.116,0.264 0.075,0.572 0.051,0.853 C 0.758,-0.913 0.384,-0.419 0,0" /></g><g
           transform="translate(72.4321,52.0374)"
           id="g268"><path
             id="path270"
             style="fill:#eac500;fill-opacity:1;fill-rule:nonzero;stroke:none"
             d="m 0,0 c -0.156,-0.107 -0.314,-0.211 -0.462,-0.332 0.173,0.064 0.345,0.132 0.517,0.195 C 0.037,-0.091 0.018,-0.045 0,0" /></g><g
           transform="translate(68.2891,49.2871)"
           id="g272"><path
             id="path274"
             style="fill:#eac500;fill-opacity:1;fill-rule:nonzero;stroke:none"
             d="M 0,0 C 0.234,0.079 0.373,0.315 0.565,0.463 0.364,0.327 0.184,0.161 0,0" /></g><g
           transform="translate(67.8418,48.7344)"
           id="g276"><path
             id="path278"
             style="fill:#eac500;fill-opacity:1;fill-rule:nonzero;stroke:none"
             d="M 0,0 C -0.195,-0.285 -0.332,-0.621 -0.364,-0.974 -0.235,-0.652 -0.158,-0.309 0,0" /></g><g
           transform="translate(79.7098,43.7378)"
           id="g280"><path
             id="path282"
             style="fill:#eac500;fill-opacity:1;fill-rule:nonzero;stroke:none"
             d="m 0,0 c -0.509,0.022 -1.011,0.151 -1.489,0.339 -0.259,0.107 -0.52,0.226 -0.737,0.415 -0.073,0.07 -0.165,0.164 -0.138,0.28 0.066,0.117 0.205,0.136 0.32,0.15 0.394,0.03 0.787,-0.05 1.167,-0.153 0.4,-0.116 0.8,-0.262 1.151,-0.503 C 0.391,0.454 0.478,0.341 0.552,0.222 0.463,-0.015 0.195,0.013 0,0 M 1.759,3.359 C 1.822,3.104 1.881,2.839 1.844,2.574 1.831,2.407 1.766,2.255 1.711,2.102 L 1.712,2.07 1.694,2.069 C 1.522,1.77 1.265,1.534 0.968,1.385 c -1.003,-0.497 -2.29,-0.22 -3.034,0.658 -0.32,0.386 -0.617,0.859 -0.61,1.395 0.008,0.433 0.295,0.796 0.635,0.998 C -1.47,4.778 -0.792,4.861 -0.149,4.8 0.132,4.759 0.415,4.698 0.673,4.566 0.763,4.52 0.854,4.48 0.948,4.447 0.694,4.756 0.397,5.018 0.096,5.272 0.014,5.339 -0.075,5.397 -0.164,5.452 -1.422,6.231 -2.835,6.712 -4.277,6.886 -4.321,6.758 -4.365,6.629 -4.409,6.501 -4.451,6.376 -4.491,6.25 -4.528,6.122 -4.629,6.226 -4.662,6.373 -4.677,6.517 -4.671,6.653 -4.662,6.788 -4.649,6.923 -5.223,6.969 -5.799,6.961 -6.372,6.906 -6.36,6.761 -6.356,6.615 -6.356,6.468 -6.376,6.352 -6.432,6.251 -6.51,6.169 -6.527,6.263 -6.552,6.356 -6.584,6.445 -6.634,6.583 -6.68,6.722 -6.727,6.86 -7.702,6.723 -8.658,6.427 -9.547,5.977 -9.562,5.997 -9.591,6.038 -9.606,6.059 -9.673,6.017 -9.74,5.976 -9.808,5.935 -9.544,5.929 -9.282,5.888 -9.027,5.817 -8.812,5.75 -8.603,5.661 -8.414,5.532 l 0.006,0.003 C -8.301,5.449 -8.199,5.357 -8.107,5.254 -7.866,4.948 -7.827,4.506 -7.97,4.143 -8.229,3.46 -8.766,2.903 -9.412,2.647 -9.667,2.551 -9.935,2.494 -10.205,2.481 c -0.306,-0.013 -0.612,0.034 -0.902,0.135 -0.21,0.082 -0.406,0.199 -0.583,0.346 0.027,-0.321 0.11,-0.635 0.244,-0.923 0.157,0.082 0.327,0.13 0.498,0.166 0.286,0.055 0.579,0.064 0.87,0.047 C -9.855,2.23 -9.626,2.196 -9.423,2.088 -9.345,2.044 -9.255,1.975 -9.253,1.87 -9.264,1.734 -9.39,1.663 -9.488,1.601 -9.752,1.478 -10.04,1.43 -10.325,1.399 c -0.245,-0.007 -0.491,-0.008 -0.734,0.03 0.526,-0.695 1.231,-1.207 1.97,-1.608 0.607,-0.33 1.246,-0.591 1.905,-0.77 -0.056,0.188 -0.097,0.381 -0.133,0.575 -0.032,0.173 -0.049,0.35 -0.094,0.52 -0.146,0.124 -0.259,0.287 -0.293,0.488 -0.005,0.134 0.012,0.271 0.078,0.388 -0.015,-0.147 -0.03,-0.297 0.006,-0.443 0.083,-0.2 0.262,-0.35 0.466,-0.374 0.12,-0.015 0.229,0.049 0.333,0.104 0.127,0.077 0.257,0.167 0.408,0.177 0.166,-0.01 0.24,-0.193 0.324,-0.32 l 0.004,-0.001 c 0.166,-0.201 0.416,-0.348 0.672,-0.309 0.134,0.018 0.244,0.107 0.339,0.204 0.083,0.111 0.15,0.234 0.201,0.365 0.006,0.001 0.019,0.003 0.026,0.004 -0.006,-0.289 -0.196,-0.534 -0.433,-0.654 -0.023,-0.124 -0.061,-0.244 -0.095,-0.365 -0.093,-0.198 -0.191,-0.393 -0.312,-0.574 -0.054,-0.043 0.02,-0.052 0.046,-0.055 0.4,-0.04 0.802,-0.058 1.204,-0.071 1.007,-0.032 2.023,-0.016 3.016,0.19 0.693,0.145 1.373,0.367 2.016,0.681 0.503,0.256 0.99,0.583 1.345,1.05 0.319,0.433 0.462,1.027 0.322,1.566 -0.115,0.41 -0.294,0.798 -0.503,1.162" /></g><g
           transform="translate(71.8416,51.2747)"
           id="g284"><path
             id="path286"
             style="fill:#eac500;fill-opacity:1;fill-rule:nonzero;stroke:none"
             d="M 0,0 C 0.289,0.011 0.575,0.061 0.863,0.091 0.843,0.136 0.822,0.179 0.8,0.221 0.784,0.271 0.768,0.32 0.752,0.368 0.744,0.389 0.725,0.43 0.716,0.45 0.386,0.346 0.046,0.254 -0.265,0.093 -0.335,-0.067 -0.085,-0.007 0,0" /></g><g
           transform="translate(70.4772,48.7232)"
           id="g288"><path
             id="path290"
             style="fill:#74b743;fill-opacity:1;fill-rule:nonzero;stroke:none"
             d="m 0,0 c -0.45,0.259 -0.994,0.369 -1.488,0.193 0.237,-0.013 0.478,-0.144 0.56,-0.397 0.024,-0.101 0.035,-0.206 0.039,-0.311 -0.048,-0.231 -0.206,-0.419 -0.415,-0.495 -0.161,-0.017 -0.337,-0.01 -0.471,0.1 -0.139,0.097 -0.209,0.268 -0.24,0.436 -10e-4,0.172 0.062,0.333 0.143,0.478 -0.275,-0.187 -0.49,-0.449 -0.677,-0.731 0.13,0.451 0.419,0.86 0.823,1.063 0.509,0.254 1.116,0.21 1.622,-0.031 0.32,-0.153 0.627,-0.4 0.751,-0.764 C 0.433,-0.302 0.232,-0.125 0,0 M -0.368,0.722 C -0.972,0.79 -1.608,0.688 -2.14,0.359 c -0.305,-0.19 -0.575,-0.491 -0.645,-0.873 -0.081,-0.455 0.087,-0.944 0.398,-1.259 0.198,-0.208 0.461,-0.33 0.731,-0.383 l 0.002,-0.008 c 0.164,-0.012 0.334,-0.068 0.496,-0.021 0.565,0.017 1.119,0.244 1.57,0.605 0.338,0.276 0.632,0.681 0.635,1.155 C 1.06,-0.19 0.929,0.015 0.79,0.181 0.49,0.517 0.054,0.669 -0.368,0.722" /></g><g
           transform="translate(79.8411,47.8029)"
           id="g292"><path
             id="path294"
             style="fill:#74b743;fill-opacity:1;fill-rule:nonzero;stroke:none"
             d="m 0,0 c -0.254,0.098 -0.526,0.137 -0.795,0.127 0.178,-0.151 0.287,-0.414 0.189,-0.651 -0.018,-0.043 -0.037,-0.086 -0.058,-0.127 -0.121,-0.162 -0.319,-0.211 -0.505,-0.188 -0.106,0.022 -0.192,0.099 -0.268,0.177 -0.137,0.176 -0.119,0.422 -0.044,0.623 -0.243,-0.117 -0.457,-0.285 -0.662,-0.465 0.231,0.426 0.638,0.736 1.09,0.825 C -0.445,0.445 0.191,0.245 0.695,-0.123 1.001,-0.351 1.288,-0.668 1.35,-1.078 0.978,-0.623 0.54,-0.204 0,0 M 1.289,-0.28 C 0.935,0.073 0.478,0.296 0.006,0.398 -0.422,0.496 -0.866,0.538 -1.302,0.472 -1.565,0.43 -1.83,0.357 -2.064,0.217 -2.336,0.008 -2.542,-0.336 -2.529,-0.705 c 0.014,-0.357 0.2,-0.675 0.413,-0.936 0.394,-0.463 0.914,-0.828 1.497,-0.936 0.439,-0.073 0.911,-0.061 1.315,0.158 0.374,0.193 0.721,0.522 0.823,0.969 0.095,0.395 0.065,0.877 -0.23,1.17" /></g><g
           transform="translate(68.7616,45.9423)"
           id="g296"><path
             id="path298"
             style="fill:#ed4792;fill-opacity:1;fill-rule:nonzero;stroke:none"
             d="M 0,0 C 0.287,0.055 0.579,0.065 0.87,0.048 1.093,0.026 1.322,-0.008 1.525,-0.117 1.604,-0.161 1.693,-0.229 1.695,-0.334 1.685,-0.471 1.558,-0.542 1.46,-0.604 1.196,-0.727 0.909,-0.774 0.624,-0.806 0.378,-0.812 0.132,-0.814 -0.11,-0.775 c -0.198,0.041 -0.419,0.083 -0.563,0.246 -0.107,0.153 0.054,0.302 0.175,0.363 C -0.341,-0.083 -0.171,-0.035 0,0" /></g><g
           transform="translate(77.3459,44.7718)"
           id="g300"><path
             id="path302"
             style="fill:#ed4792;fill-opacity:1;fill-rule:nonzero;stroke:none"
             d="M 0,0 C 0.065,0.117 0.205,0.136 0.32,0.15 0.714,0.18 1.106,0.1 1.487,-0.003 1.887,-0.119 2.287,-0.265 2.638,-0.506 2.755,-0.58 2.842,-0.693 2.916,-0.812 2.827,-1.049 2.559,-1.021 2.364,-1.034 1.855,-1.012 1.353,-0.883 0.875,-0.695 0.616,-0.588 0.355,-0.469 0.138,-0.28 0.065,-0.21 -0.027,-0.116 0,0" /></g><g
           id="g304"><g
             id="g306" /><g
             id="g318"><g
               style="opacity:0.53999299"
               id="g316"
               clip-path="url(#clipPath310)"><g
                 id="g314"
                 transform="translate(85.1994,45.0278)"><path
                   id="path312"
                   style="fill:#192112;fill-opacity:1;fill-rule:nonzero;stroke:none"
                   d="M 0,0 C 0.039,-0.098 -0.156,-0.063 -0.062,0 -0.046,0 -0.015,0 0,0" /></g></g></g></g><g
           id="g320"><g
             id="g322" /><g
             id="g334"><g
               style="opacity:0.38999903"
               id="g332"
               clip-path="url(#clipPath326)"><g
                 id="g330"
                 transform="translate(82.5826,44.5432)"><path
                   id="path328"
                   style="fill:#283719;fill-opacity:1;fill-rule:nonzero;stroke:none"
                   d="M 0,0 C -0.019,-0.073 -0.157,-0.011 -0.081,0.036 -0.061,0.027 -0.02,0.009 0,0" /></g></g></g></g><g
           transform="translate(73.7353,43.6664)"
           id="g336"><path
             id="path338"
             style="fill:#ed4792;fill-opacity:1;fill-rule:nonzero;stroke:none"
             d="M 0,0 C -0.18,0.119 -0.221,0.405 -0.443,0.461 -0.601,0.464 -0.72,0.336 -0.853,0.263 -1.001,0.168 -1.182,0.159 -1.349,0.19 c 0.114,-0.298 0.16,-0.617 0.232,-0.928 0.083,-0.305 0.184,-0.675 0.488,-0.802 0.2,-0.099 0.428,-0.003 0.577,0.152 0.234,0.242 0.378,0.562 0.517,0.873 0.048,0.11 0.095,0.22 0.143,0.33 C 0.393,-0.187 0.184,-0.115 0,0" /></g></g></g></g></svg>