<?xml version="1.0" encoding="UTF-8" standalone="no"?>
<svg
   xmlns:dc="http://purl.org/dc/elements/1.1/"
   xmlns:cc="http://creativecommons.org/ns#"
   xmlns:rdf="http://www.w3.org/1999/02/22-rdf-syntax-ns#"
   xmlns:svg="http://www.w3.org/2000/svg"
   xmlns="http://www.w3.org/2000/svg"
   viewBox="0 0 330.66638 159.99933"
   height="159.99933"
   width="330.66638"
   xml:space="preserve"
   id="svg2"
   version="1.1"><metadata
     id="metadata8"><rdf:RDF><cc:Work
         rdf:about=""><dc:format>image/svg+xml</dc:format><dc:type
           rdf:resource="http://purl.org/dc/dcmitype/StillImage" /></cc:Work></rdf:RDF></metadata><defs
     id="defs6"><clipPath
       id="clipPath18"
       clipPathUnits="userSpaceOnUse"><path
         id="path16"
         d="M 0,256 H 256 V 0 H 0 Z" /></clipPath><clipPath
       id="clipPath26"
       clipPathUnits="userSpaceOnUse"><path
         id="path24"
         d="M 4,188 H 252 V 68 H 4 Z" /></clipPath></defs><g
     transform="matrix(1.3333333,0,0,-1.3333333,-5.3335999,250.66599)"
     id="g10"><g
       id="g12"><g
         clip-path="url(#clipPath18)"
         id="g14"><g
           id="g20"><g
             id="g22" /><g
             id="g34"><g
               style="opacity:0.5"
               id="g32"
               clip-path="url(#clipPath26)"><g
                 id="g30"
                 transform="translate(239.6432,172.9085)"><path
                   id="path28"
                   style="fill:#ffffff;fill-opacity:1;fill-rule:nonzero;stroke:none"
                   d="m 0,0 -71.153,10.001 c -1.844,3.048 -5.194,5.09 -9.013,5.09 h -62.954 c -3.765,0 -7.074,-1.984 -8.934,-4.961 L -223.308,0.005 c -7.032,-0.999 -12.335,-7.109 -12.335,-14.212 v -76.346 c 0,-7.916 6.439,-14.356 14.354,-14.356 H -1.998 c 7.915,0 14.355,6.44 14.355,14.356 v 76.337 C 12.357,-7.102 7.044,-0.99 0,0" /></g></g></g></g><g
           transform="translate(12,82.3553)"
           id="g36"><path
             id="path38"
             style="fill:#333333;fill-opacity:1;fill-rule:nonzero;stroke:none"
             d="m 0,0 c 0,-3.51 2.845,-6.355 6.355,-6.355 h 219.29 c 3.51,0 6.355,2.845 6.355,6.355 v 76.338 c 0,3.168 -2.333,5.852 -5.47,6.293 l -77.918,10.952 c -0.293,0.041 -0.589,0.062 -0.884,0.062 H 83.371 c -0.299,0 -0.598,-0.021 -0.894,-0.064 L 5.461,82.638 C 2.328,82.193 0,79.511 0,76.346" /></g><g
           transform="translate(228,99.7421)"
           id="g40"><path
             id="path42"
             style="fill:#191919;fill-opacity:1;fill-rule:nonzero;stroke:none"
             d="m 0,0 c 0,4.248 -1.682,8.1 -4.412,10.932 v 43.52 c 0,3.207 -2.594,5.806 -5.795,5.806 h -42.422 c -2.991,0 -5.415,-2.43 -5.415,-5.426 v -2.261 c 0,-24.316 -20.116,-44.122 -44.359,-42.988 -22.456,1.051 -40.34,19.625 -40.34,42.385 v 3.768 c 0,2.497 -2.021,4.522 -4.514,4.522 h -42.948 c -3.201,0 -5.795,-2.599 -5.795,-5.806 V 33.121 c 0,-1.989 2.134,-3.218 3.867,-2.249 3.867,2.164 8.383,3.303 13.183,3.048 12.812,-0.683 23,-11.446 23.043,-24.3 0.029,-8.645 -4.431,-16.244 -11.172,-20.606 -0.494,-2.129 -0.149,-4.725 4.477,-4.725 h 115.204 c 0.313,-0.019 0.628,-0.031 0.946,-0.031 h 30.74 c 0.318,0 0.633,0.012 0.946,0.031 0,0 4.005,0.487 5.038,1.154 C -4.019,-12.199 0,-6.571 0,0" /></g><g
           transform="translate(159.4772,180)"
           id="g44"><path
             id="path46"
             style="fill:#4c4c4c;fill-opacity:1;fill-rule:nonzero;stroke:none"
             d="m 0,0 h -62.954 c -1.394,0 -2.523,-1.124 -2.523,-2.51 v -27.661 c 0,-18.683 15.222,-33.829 34,-33.829 18.778,0 34,15.146 34,33.829 V -2.51 C 2.523,-1.124 1.393,0 0,0" /></g><g
           transform="translate(70,109)"
           id="g48"><path
             id="path50"
             style="fill:#000000;fill-opacity:1;fill-rule:nonzero;stroke:none"
             d="m 0,0 c 0,-12.15 -9.85,-22 -22,-22 -12.15,0 -22,9.85 -22,22 0,12.15 9.85,22 22,22 C -9.85,22 0,12.15 0,0" /></g><g
           transform="translate(68,109)"
           id="g52"><path
             id="path54"
             style="fill:#404040;fill-opacity:1;fill-rule:nonzero;stroke:none"
             d="m 0,0 c 0,-11.046 -8.954,-20 -20,-20 -11.046,0 -20,8.954 -20,20 0,11.046 8.954,20 20,20 C -8.954,20 0,11.046 0,0" /></g><g
           transform="translate(52.8936,128.3945)"
           id="g56"><path
             id="path58"
             style="fill:#4c4c4c;fill-opacity:1;fill-rule:nonzero;stroke:none"
             d="M 0,0 C -1.566,0.394 -3.205,0.605 -4.894,0.605 -6.582,0.605 -8.221,0.394 -9.787,0 v -14.501 h -14.501 c -0.394,-1.566 -0.606,-3.205 -0.606,-4.894 0,-1.688 0.212,-3.327 0.606,-4.893 h 14.501 v -14.501 c 1.566,-0.394 3.205,-0.606 4.893,-0.606 1.689,0 3.328,0.212 4.894,0.606 v 14.501 h 14.501 c 0.394,1.566 0.605,3.205 0.605,4.893 0,1.689 -0.211,3.328 -0.605,4.894 H 0 Z" /></g><g
           transform="translate(53,109)"
           id="g60"><path
             id="path62"
             style="fill:#404040;fill-opacity:1;fill-rule:nonzero;stroke:none"
             d="m 0,0 c 0,-2.761 -2.239,-5 -5,-5 -2.761,0 -5,2.239 -5,5 0,2.761 2.239,5 5,5 2.761,0 5,-2.239 5,-5" /></g><g
           transform="translate(194.0688,100)"
           id="g64"><path
             id="path66"
             style="fill:#595959;fill-opacity:1;fill-rule:nonzero;stroke:none"
             d="m 0,0 c 0,-5.561 -4.508,-10.069 -10.069,-10.069 -5.561,0 -10.069,4.508 -10.069,10.069 0,5.561 4.508,10.069 10.069,10.069 C -4.508,10.069 0,5.561 0,0" /></g><g
           transform="translate(184,110)"
           id="g68"><path
             id="path70"
             style="fill:#4c4c4c;fill-opacity:1;fill-rule:nonzero;stroke:none"
             d="m 0,0 c -5.523,0 -10,-4.477 -10,-10 0,-5.523 4.477,-10 10,-10 5.523,0 10,4.477 10,10 C 10,-4.477 5.523,0 0,0 m 0,-1.387 c 4.749,0 8.613,-3.864 8.613,-8.613 0,-4.749 -3.864,-8.613 -8.613,-8.613 -4.749,0 -8.613,3.864 -8.613,8.613 0,4.749 3.864,8.613 8.613,8.613" /></g><g
           transform="translate(184,111)"
           id="g72"><path
             id="path74"
             style="fill:#0d0d0d;fill-opacity:1;fill-rule:nonzero;stroke:none"
             d="m 0,0 c -6.065,0 -11,-4.935 -11,-11 0,-6.065 4.935,-11 11,-11 6.065,0 11,4.935 11,11 C 11,-4.935 6.065,0 0,0 m 0,-0.931 c 5.561,0 10.069,-4.508 10.069,-10.069 0,-5.561 -4.508,-10.069 -10.069,-10.069 -5.561,0 -10.069,4.508 -10.069,10.069 0,5.561 4.508,10.069 10.069,10.069" /></g><g
           transform="translate(222.0688,100)"
           id="g76"><path
             id="path78"
             style="fill:#595959;fill-opacity:1;fill-rule:nonzero;stroke:none"
             d="m 0,0 c 0,-5.561 -4.508,-10.069 -10.069,-10.069 -5.561,0 -10.069,4.508 -10.069,10.069 0,5.561 4.508,10.069 10.069,10.069 C -4.508,10.069 0,5.561 0,0" /></g><g
           transform="translate(212,110)"
           id="g80"><path
             id="path82"
             style="fill:#4c4c4c;fill-opacity:1;fill-rule:nonzero;stroke:none"
             d="m 0,0 c -5.523,0 -10,-4.477 -10,-10 0,-5.523 4.477,-10 10,-10 5.523,0 10,4.477 10,10 C 10,-4.477 5.523,0 0,0 m 0,-1.387 c 4.749,0 8.613,-3.864 8.613,-8.613 0,-4.749 -3.864,-8.613 -8.613,-8.613 -4.749,0 -8.613,3.864 -8.613,8.613 0,4.749 3.864,8.613 8.613,8.613" /></g><g
           transform="translate(212,111)"
           id="g84"><path
             id="path86"
             style="fill:#0d0d0d;fill-opacity:1;fill-rule:nonzero;stroke:none"
             d="m 0,0 c -6.065,0 -11,-4.935 -11,-11 0,-6.065 4.935,-11 11,-11 6.065,0 11,4.935 11,11 C 11,-4.935 6.065,0 0,0 m 0,-0.931 c 5.561,0 10.069,-4.508 10.069,-10.069 0,-5.561 -4.508,-10.069 -10.069,-10.069 -5.561,0 -10.069,4.508 -10.069,10.069 0,5.561 4.508,10.069 10.069,10.069" /></g><g
           transform="translate(118.5938,100)"
           id="g88"><path
             id="path90"
             style="fill:#404040;fill-opacity:1;fill-rule:nonzero;stroke:none"
             d="m 0,0 c 0,-1.524 -1.399,-2.759 -3.125,-2.759 h -10.938 c -1.725,0 -3.124,1.235 -3.124,2.759 0,1.524 1.399,2.759 3.124,2.759 H -3.125 C -1.399,2.759 0,1.524 0,0" /></g><g
           transform="translate(115.4688,104)"
           id="g92"><path
             id="path94"
             style="fill:#0d0d0d;fill-opacity:1;fill-rule:nonzero;stroke:none"
             d="m 0,0 h -10.938 c -2.498,0 -4.531,-1.794 -4.531,-4 0,-2.206 2.033,-4 4.531,-4 H 0 c 2.499,0 4.531,1.794 4.531,4 0,2.206 -2.032,4 -4.531,4 M 0,-1.241 C 1.726,-1.241 3.125,-2.476 3.125,-4 3.125,-5.524 1.726,-6.759 0,-6.759 h -10.938 c -1.725,0 -3.125,1.235 -3.125,2.759 0,1.524 1.4,2.759 3.125,2.759 H 0" /></g><g
           transform="translate(146.5937,100)"
           id="g96"><path
             id="path98"
             style="fill:#404040;fill-opacity:1;fill-rule:nonzero;stroke:none"
             d="m 0,0 c 0,-1.524 -1.399,-2.759 -3.125,-2.759 h -10.938 c -1.725,0 -3.124,1.235 -3.124,2.759 0,1.524 1.399,2.759 3.124,2.759 H -3.125 C -1.399,2.759 0,1.524 0,0" /></g><g
           transform="translate(143.4687,104)"
           id="g100"><path
             id="path102"
             style="fill:#0d0d0d;fill-opacity:1;fill-rule:nonzero;stroke:none"
             d="m 0,0 h -10.938 c -2.498,0 -4.531,-1.794 -4.531,-4 0,-2.206 2.033,-4 4.531,-4 H 0 c 2.499,0 4.531,1.794 4.531,4 0,2.206 -2.032,4 -4.531,4 M 0,-1.241 C 1.726,-1.241 3.125,-2.476 3.125,-4 3.125,-5.524 1.726,-6.759 0,-6.759 h -10.938 c -1.725,0 -3.125,1.235 -3.125,2.759 0,1.524 1.4,2.759 3.125,2.759 H 0" /></g><g
           transform="translate(212,132)"
           id="g104"><path
             id="path106"
             style="fill:#0d0d0d;fill-opacity:1;fill-rule:nonzero;stroke:none"
             d="m 0,0 v 0 c -2.2,0 -4,1.8 -4,4 v 8 c 0,2.2 1.8,4 4,4 2.2,0 4,-1.8 4,-4 V 4 C 4,1.8 2.2,0 0,0" /></g><g
           transform="translate(216,136)"
           id="g108"><path
             id="path110"
             style="fill:#404040;fill-opacity:1;fill-rule:nonzero;stroke:none"
             d="m 0,0 c 0,-2.209 -1.791,-4 -4,-4 -2.209,0 -4,1.791 -4,4 0,2.209 1.791,4 4,4 2.209,0 4,-1.791 4,-4" /></g><g
           transform="translate(184,132)"
           id="g112"><path
             id="path114"
             style="fill:#0d0d0d;fill-opacity:1;fill-rule:nonzero;stroke:none"
             d="m 0,0 v 0 c -2.2,0 -4,1.8 -4,4 v 8 c 0,2.2 1.8,4 4,4 2.2,0 4,-1.8 4,-4 V 4 C 4,1.8 2.2,0 0,0" /></g><g
           transform="translate(188,136)"
           id="g116"><path
             id="path118"
             style="fill:#404040;fill-opacity:1;fill-rule:nonzero;stroke:none"
             d="m 0,0 c 0,-2.209 -1.791,-4 -4,-4 -2.209,0 -4,1.791 -4,4 0,2.209 1.791,4 4,4 2.209,0 4,-1.791 4,-4" /></g><g
           transform="translate(156,150)"
           id="g120"><path
             id="path122"
             style="fill:#333333;fill-opacity:1;fill-rule:nonzero;stroke:none"
             d="m 0,0 c 0,-3.314 -2.686,-6 -6,-6 -3.314,0 -6,2.686 -6,6 0,3.314 2.686,6 6,6 3.314,0 6,-2.686 6,-6" /></g><path
           id="path124"
           style="fill:#333333;fill-opacity:1;fill-rule:nonzero;stroke:none"
           d="m 118.854,144.868 h 1.21 v 8.441 h -1.21 z m 2.329,4.217 c 0,-1.395 -0.012,-2.79 0.007,-4.185 0.005,-0.366 -0.568,-0.793 -1.161,-0.768 -0.399,0.017 -0.801,0.002 -1.201,0.003 -0.608,0.003 -1.138,0.35 -1.138,0.751 -0.001,2.802 -0.001,5.605 0,8.408 0,0.348 0.407,0.663 0.956,0.69 0.505,0.025 1.017,0.018 1.524,-0.001 0.384,-0.015 0.68,-0.164 0.876,-0.378 0.081,-0.088 0.13,-0.203 0.131,-0.306 0.008,-1.405 0.006,-2.809 0.006,-4.214" /><g
           transform="translate(126.8557,152.6993)"
           id="g126"><path
             id="path128"
             style="fill:#333333;fill-opacity:1;fill-rule:nonzero;stroke:none"
             d="M 0,0 H -1.119 V 2.39 H -2.433 V 2.265 c 0,-3.335 10e-4,-6.67 -0.003,-10.005 0,-0.111 0.041,-0.14 0.175,-0.137 0.334,0.007 0.669,0.002 1.003,0.003 0.051,0 0.101,0.003 0.158,0.006 v 5.133 h -0.553 v 0.811 c 0.048,0.003 0.09,0.007 0.131,0.007 0.462,0.001 0.923,-10e-4 1.385,0.002 0.108,0.001 0.146,-0.021 0.146,-0.113 0,-2.189 0.004,-4.379 0.006,-6.568 0,-0.029 -0.005,-0.059 -0.007,-0.095 -0.048,-0.003 -0.088,-0.007 -0.129,-0.007 -0.73,-10e-4 -1.461,0.001 -2.191,-10e-4 -0.36,-10e-4 -0.66,0.103 -0.906,0.31 -0.184,0.153 -0.28,0.334 -0.28,0.549 0.001,3.411 0,6.821 0.001,10.232 0,0.473 0.509,0.894 1.098,0.904 0.438,0.006 0.876,0.006 1.314,-10e-4 C -0.52,3.287 -0.002,2.883 0.004,2.433 0.015,1.638 0.008,0.843 0.008,0.048 0.008,0.033 0.003,0.019 0,0" /></g><g
           transform="translate(140.004,153.8379)"
           id="g130"><path
             id="path132"
             style="fill:#333333;fill-opacity:1;fill-rule:nonzero;stroke:none"
             d="m 0,0 h 1.105 v -0.316 c 0,-1.046 0.001,-2.092 -0.002,-3.138 0,-0.078 0.029,-0.142 0.096,-0.205 0.183,-0.173 0.358,-0.348 0.548,-0.534 0.121,0.116 0.222,0.232 0.35,0.333 0.229,0.18 0.294,0.379 0.29,0.614 -0.017,1.04 -0.007,2.079 -0.007,3.119 v 0.125 h 1.093 v -0.296 c 0,-1.018 0,-2.036 0,-3.054 0,-0.192 -0.104,-0.366 -0.235,-0.53 C 2.984,-4.199 2.713,-4.51 2.441,-4.821 2.393,-4.876 2.39,-4.911 2.439,-4.968 c 0.3,-0.35 0.596,-0.7 0.879,-1.056 C 3.45,-6.19 3.488,-6.373 3.487,-6.563 3.48,-7.606 3.483,-8.649 3.483,-9.692 V -9.809 H 2.46 v 0.13 c 0,1.095 10e-4,2.191 -0.004,3.286 0,0.063 -0.034,0.134 -0.086,0.188 C 2.184,-6.009 1.983,-5.818 1.775,-5.613 1.601,-5.783 1.446,-5.948 1.269,-6.102 1.128,-6.224 1.081,-6.351 1.082,-6.504 1.091,-7.565 1.087,-8.627 1.087,-9.688 V -9.81 H 0 v 0.124 c 0,1.03 0.005,2.061 -0.004,3.091 -0.002,0.207 0.047,0.403 0.196,0.581 0.296,0.355 0.605,0.705 0.916,1.054 0.051,0.057 0.047,0.092 -0.003,0.147 -0.316,0.347 -0.632,0.694 -0.933,1.047 -0.137,0.161 -0.176,0.34 -0.175,0.528 C 0.004,-2.202 0,-1.165 0,-0.128 Z" /></g><g
           transform="translate(114.2449,149.7887)"
           id="g134"><path
             id="path136"
             style="fill:#333333;fill-opacity:1;fill-rule:nonzero;stroke:none"
             d="M 0,0 C 0.379,0 0.741,0.006 1.103,-0.003 1.241,-0.006 1.274,0.033 1.273,0.156 1.268,1.142 1.27,2.127 1.27,3.113 1.27,3.159 1.265,3.205 1.262,3.251 H 0 Z m 2.544,-5.651 c -0.323,0 -0.637,-0.003 -0.951,0.004 -0.03,0.001 -0.076,0.057 -0.085,0.093 -0.24,0.938 -0.475,1.876 -0.712,2.814 -0.142,0.566 -0.285,1.131 -0.429,1.703 H -0.05 v -4.635 h -1.032 c -0.003,0.059 -0.007,0.11 -0.007,0.161 0,3.182 0,6.365 0,9.548 0,0.169 0,0.169 0.184,0.169 0.683,0 1.367,-0.002 2.05,0 C 1.536,4.208 1.86,4.074 2.121,3.812 2.269,3.663 2.339,3.482 2.339,3.281 2.34,2.221 2.341,1.161 2.339,0.102 2.338,-0.126 2.278,-0.341 2.14,-0.535 1.982,-0.755 1.777,-0.917 1.459,-0.965 1.821,-2.527 2.182,-4.085 2.544,-5.651" /></g><g
           transform="translate(101.0894,150.9446)"
           id="g138"><path
             id="path140"
             style="fill:#333333;fill-opacity:1;fill-rule:nonzero;stroke:none"
             d="M 0,0 C 0.379,0 0.741,0.007 1.103,-0.004 1.241,-0.008 1.274,0.04 1.273,0.188 1.268,1.372 1.27,2.557 1.27,3.741 1.27,3.796 1.265,3.851 1.262,3.908 H 0 Z m 2.544,-6.792 c -0.323,0 -0.637,-0.003 -0.951,0.006 -0.03,0 -0.076,0.068 -0.085,0.112 -0.24,1.126 -0.475,2.254 -0.712,3.381 -0.142,0.68 -0.285,1.359 -0.429,2.047 H -0.05 v -5.57 h -1.032 c -0.003,0.07 -0.007,0.131 -0.007,0.192 0,3.825 0,7.651 0,11.476 0,0.202 0,0.203 0.184,0.203 0.684,0 1.367,-0.002 2.05,0 C 1.536,5.057 1.86,4.897 2.121,4.581 2.269,4.402 2.339,4.184 2.339,3.943 2.34,2.669 2.341,1.396 2.339,0.123 2.338,-0.151 2.278,-0.41 2.14,-0.643 1.982,-0.908 1.777,-1.102 1.459,-1.159 1.821,-3.037 2.182,-4.909 2.544,-6.792" /></g><g
           transform="translate(130.3566,152.9522)"
           id="g142"><path
             id="path144"
             style="fill:#333333;fill-opacity:1;fill-rule:nonzero;stroke:none"
             d="m 0,0 h -1.26 v -3.256 c 0.371,0 0.732,0.008 1.093,-0.003 0.15,-0.005 0.178,0.043 0.177,0.168 C 0.005,-2.11 0.008,-1.129 0.007,-0.148 0.007,-0.101 0.003,-0.055 0,0 m -2.325,0.94 h 0.16 c 0.693,0 1.386,0 2.078,0 0.419,0 0.766,-0.148 1.008,-0.458 C 1.011,0.366 1.079,0.207 1.081,0.067 1.094,-1.031 1.09,-2.129 1.087,-3.228 1.085,-3.707 0.76,-4.081 0.216,-4.239 0.577,-5.797 0.938,-7.356 1.301,-8.923 h -1.01 c -0.073,0.282 -0.146,0.561 -0.216,0.841 -0.305,1.206 -0.61,2.412 -0.909,3.619 -0.031,0.125 -0.078,0.191 -0.23,0.168 -0.068,-0.011 -0.139,-0.002 -0.221,-0.002 v -4.64 h -1.04 z" /></g><g
           transform="translate(133.6571,152.8869)"
           id="g146"><path
             id="path148"
             style="fill:#333333;fill-opacity:1;fill-rule:nonzero;stroke:none"
             d="m 0,0 v -3.19 c 0.378,0 0.745,0.005 1.111,-0.003 0.129,-0.003 0.156,0.037 0.155,0.147 -0.004,0.968 -0.002,1.936 -0.003,2.904 0,0.045 -0.004,0.091 -0.007,0.142 z M 2.328,-8.855 H 1.292 v 4.687 h -1.344 v -4.687 h -1.024 c -0.002,0.054 -0.007,0.1 -0.007,0.146 0,2.929 0,5.858 0,8.787 0,0.492 0.417,0.892 0.956,0.903 0.476,0.009 0.952,0.009 1.428,0 0.649,-0.012 1.027,-0.374 1.027,-0.967 0.001,-2.11 0,-4.221 0,-6.331 0,-0.793 0,-1.585 0,-2.378 0,-0.05 0,-0.101 0,-0.16" /></g><g
           transform="translate(139.33,153.8608)"
           id="g150"><path
             id="path152"
             style="fill:#333333;fill-opacity:1;fill-rule:nonzero;stroke:none"
             d="m 0,0 v -0.842 h -1.604 v -3.34 h 1.316 v -0.947 h -1.317 v -4.7 H -2.66 c 0,0.06 0,0.11 0,0.16 0,2.932 0,5.864 0,8.796 0,0.498 0.406,0.878 0.948,0.882 0.528,0.004 1.055,0.001 1.583,0.001 C -0.092,0.01 -0.056,0.004 0,0" /></g><g
           transform="translate(151.3959,149.6691)"
           id="g154"><path
             id="path156"
             style="fill:#4c4c4c;fill-opacity:1;fill-rule:nonzero;stroke:none"
             d="m 0,0 c -0.593,0 -1.186,-0.003 -1.78,0.003 -0.126,0.001 -0.166,-0.043 -0.165,-0.163 0.004,-0.383 0.004,-0.766 0,-1.149 -10e-4,-0.119 0.039,-0.168 0.165,-0.168 1.186,0.004 2.373,0.004 3.559,0 0.125,0 0.167,0.048 0.165,0.167 -0.003,0.378 -0.005,0.756 0.001,1.134 C 1.947,-0.041 1.903,0.005 1.764,0.003 1.176,-0.004 0.588,0 0,0 M 0.016,2.746 C 0.683,2.746 1.35,2.749 2.017,2.741 2.105,2.74 2.2,2.688 2.279,2.64 2.555,2.471 2.572,2.205 2.559,1.913 2.542,1.509 2.555,1.514 2.147,1.51 2.011,1.509 1.98,1.559 1.981,1.684 1.983,2.14 1.979,2.14 1.515,2.14 c -1.092,0 -2.185,0 -3.278,0 -0.217,0 -0.218,-0.001 -0.218,-0.22 0,-0.373 0.006,-0.746 -0.003,-1.119 -0.003,-0.151 0.047,-0.199 0.198,-0.198 1.272,0.005 2.543,0.003 3.815,0.002 0.257,0 0.526,-0.269 0.526,-0.527 0,-0.52 -0.004,-1.041 0.002,-1.561 10e-4,-0.12 -0.043,-0.2 -0.116,-0.292 -0.196,-0.248 -0.434,-0.321 -0.75,-0.316 -1.208,0.019 -2.416,0.009 -3.625,0.004 -0.138,0 -0.229,0.052 -0.333,0.136 -0.232,0.188 -0.301,0.412 -0.296,0.71 0.018,1.129 0.009,2.259 0.004,3.389 0,0.131 0.045,0.219 0.127,0.319 0.181,0.225 0.395,0.297 0.683,0.286 0.587,-0.024 1.176,-0.007 1.765,-0.007" /></g><g
           transform="translate(147.2456,150.3087)"
           id="g158"><path
             id="path160"
             style="fill:#4c4c4c;fill-opacity:1;fill-rule:nonzero;stroke:none"
             d="m 0,0 c 0,-0.64 0.003,-1.281 -0.003,-1.921 -0.001,-0.148 0.042,-0.202 0.197,-0.199 0.429,0.007 0.429,0 0.428,-0.423 0,-0.209 0,-0.209 -0.204,-0.21 -0.499,0 -0.997,0.004 -1.496,-0.002 -0.126,-10e-4 -0.175,0.032 -0.176,0.167 -10e-4,0.439 -0.006,0.442 0.431,0.446 0.13,10e-4 0.184,0.032 0.183,0.177 -0.006,1.086 -0.005,2.173 0,3.26 0.001,0.135 -0.033,0.193 -0.175,0.178 -0.104,-0.01 -0.211,-0.012 -0.314,0.004 -0.042,0.006 -0.105,0.066 -0.109,0.106 -0.053,0.532 -0.051,0.532 0.477,0.532 0.195,0 0.389,-0.007 0.583,0.003 C -0.04,2.124 0.004,2.074 0.003,1.937 -0.003,1.291 0,0.646 0,0" /></g><g
           transform="translate(106.8294,145.0924)"
           id="g162"><path
             id="path164"
             style="fill:#333333;fill-opacity:1;fill-rule:nonzero;stroke:none"
             d="m 0,0 h -0.471 -0.163 -0.635 v 0.154 c 0,0.288 0,0.577 0,0.865 0,0.835 0,1.67 0,2.506 10e-4,0.165 10e-4,0.165 0.186,0.165 0.15,0 0.299,0 0.449,0 v 0 h 1.725 c 0,0.334 0,0.669 0,1.003 h -1.938 v 0.01 h -0.408 v 3.251 h 0.408 0.219 1.721 c 0.001,0.261 0.001,0.522 0.001,0.783 0,0.126 -0.028,0.17 -0.177,0.169 -0.73,-0.008 -1.46,-0.003 -2.19,-0.004 -0.609,-10e-4 -1.052,-0.403 -1.053,-0.959 -0.002,-0.982 -0.002,-6.794 0,-7.944 10e-4,-0.587 0.412,-0.961 1.052,-0.96 0.739,0.001 1.478,0.004 2.218,0.006 0.041,0 0.083,0 0.138,0 0.003,0.059 0.009,0.11 0.009,0.16 0,0.265 0,0.53 0,0.795 z" /></g><g
           transform="translate(111.9618,153.9946)"
           id="g166"><path
             id="path168"
             style="fill:#333333;fill-opacity:1;fill-rule:nonzero;stroke:none"
             d="m 0,0 h -0.175 c -0.556,0 -3.053,0 -3.053,0 v -0.949 h 1.153 v -9.046 h 1.133 v 9.046 h 0.939 v 0.26 H 0 Z" /></g><g
           transform="translate(62.582,150.5554)"
           id="g170"><path
             id="path172"
             style="fill:#ffff00;fill-opacity:1;fill-rule:nonzero;stroke:none"
             d="m 0,0 0.009,-2.506 -1.151,-0.001 -0.008,2.505 z m 0.011,-3.259 c 0.322,0 0.594,0.073 0.816,0.22 0.222,0.146 0.334,0.325 0.333,0.535 L 1.152,0.002 C 1.151,0.212 1.038,0.39 0.814,0.536 0.591,0.681 0.319,0.754 -0.003,0.753 l -2.3,-0.003 0.025,-7.272 1.15,0.002 -0.009,2.752 0.818,-2.736 1.187,10e-4 -0.963,3.221 z" /></g><g
           transform="translate(40.5092,151.1679)"
           id="g174"><path
             id="path176"
             style="fill:#f39b11;fill-opacity:1;fill-rule:nonzero;stroke:none"
             d="M 0,0 1.13,0.002 1.154,-7.14 0.025,-7.141 Z" /></g><g
           transform="translate(43.9217,144.7719)"
           id="g178"><path
             id="path180"
             style="fill:#f39b11;fill-opacity:1;fill-rule:nonzero;stroke:none"
             d="M 0,0 1.13,0.002 1.121,2.462 -0.008,2.46 Z M -0.011,3.201 1.119,3.202 1.11,5.663 -0.02,5.661 Z m -1.141,3.198 2.26,0.004 C 1.423,6.403 1.691,6.332 1.91,6.189 2.129,6.046 2.24,5.871 2.241,5.664 L 2.249,3.404 C 2.25,3.23 2.201,3.105 2.105,3.029 2.008,2.952 1.889,2.887 1.746,2.833 1.889,2.8 2.009,2.737 2.106,2.644 2.203,2.55 2.252,2.394 2.253,2.174 L 2.261,0.003 c 0,-0.206 -0.11,-0.382 -0.328,-0.526 C 1.715,-0.666 1.448,-0.738 1.132,-0.739 l -2.259,-0.003 z" /></g><g
           transform="translate(55.6034,150.5635)"
           id="g182"><path
             id="path184"
             style="fill:#ffff00;fill-opacity:1;fill-rule:nonzero;stroke:none"
             d="m 0,0 -2.302,-0.003 0.009,-2.506 1.726,0.003 0.002,-0.754 -1.726,-0.003 0.009,-2.505 2.302,0.004 0.002,-0.754 -2.301,-0.004 c -0.322,0 -0.594,0.072 -0.817,0.218 -0.224,0.146 -0.336,0.324 -0.336,0.534 l -0.02,5.765 c -10e-4,0.21 0.11,0.388 0.332,0.535 0.222,0.146 0.494,0.22 0.815,0.22 l 2.302,0.003 z" /></g><g
           transform="translate(57.1891,150.5658)"
           id="g186"><path
             id="path188"
             style="fill:#ffff00;fill-opacity:1;fill-rule:nonzero;stroke:none"
             d="M 0,0 -1.15,-0.002 -1.153,0.752 2.299,0.757 2.302,0.003 1.15,0.002 1.173,-6.517 0.022,-6.518 Z" /></g><g
           transform="translate(66.8296,150.5801)"
           id="g190"><path
             id="path192"
             style="fill:#ffff00;fill-opacity:1;fill-rule:nonzero;stroke:none"
             d="m 0,0 -1.15,-0.002 0.02,-5.764 1.15,0.002 z m -2.3,-0.319 c 0,0.156 0.046,0.302 0.138,0.438 0.093,0.136 0.217,0.255 0.372,0.357 0.156,0.102 0.336,0.184 0.544,0.245 0.207,0.062 0.429,0.093 0.669,0.093 0.238,0 0.46,-0.03 0.668,-0.091 C 0.299,0.662 0.48,0.581 0.636,0.48 0.792,0.378 0.917,0.259 1.011,0.124 1.105,-0.012 1.152,-0.158 1.153,-0.314 L 1.17,-5.447 C 1.171,-5.604 1.125,-5.75 1.031,-5.885 0.938,-6.021 0.815,-6.14 0.659,-6.242 0.504,-6.344 0.323,-6.426 0.116,-6.488 -0.091,-6.549 -0.314,-6.58 -0.552,-6.58 c -0.239,0 -0.462,0.029 -0.67,0.091 -0.207,0.06 -0.389,0.141 -0.545,0.243 -0.156,0.102 -0.28,0.22 -0.374,0.356 -0.093,0.135 -0.14,0.281 -0.141,0.437 z" /></g><g
           transform="translate(37.914,144.8465)"
           id="g194"><path
             id="path196"
             style="fill:#f39b11;fill-opacity:1;fill-rule:nonzero;stroke:none"
             d="m 0,0 -0.63,-0.001 -0.025,7.134 -1.259,-0.001 0.027,-7.96 3.779,0.006 -0.003,0.825 z" /></g><g
           transform="translate(49.9376,151.1753)"
           id="g198"><path
             id="path200"
             style="fill:#ffff00;fill-opacity:1;fill-rule:nonzero;stroke:none"
             d="m 0,0 0.01,-2.743 -1.26,-0.001 -0.009,2.742 z m 0.012,-3.568 c 0.352,10e-4 0.65,0.081 0.893,0.242 0.243,0.16 0.366,0.355 0.365,0.585 L 1.261,0.002 C 1.26,0.232 1.136,0.427 0.891,0.586 0.647,0.746 0.349,0.825 -0.003,0.825 l -2.518,-0.004 0.027,-7.959 1.26,0.001 -0.011,3.012 0.896,-2.994 1.299,10e-4 -1.054,3.525 z" /></g><g
           transform="translate(196,146)"
           id="g202"><path
             id="path204"
             style="fill:#f39b11;fill-opacity:1;fill-rule:nonzero;stroke:none"
             d="m 0,0 c 0,-1.105 -0.895,-2 -2,-2 -1.105,0 -2,0.895 -2,2 0,1.105 0.895,2 2,2 1.105,0 2,-0.895 2,-2" /></g><g
           transform="translate(195.5,140)"
           id="g206"><path
             id="path208"
             style="fill:#f39b11;fill-opacity:1;fill-rule:nonzero;stroke:none"
             d="M 0,0 C 0,-0.828 -0.672,-1.5 -1.5,-1.5 -2.328,-1.5 -3,-0.828 -3,0 -3,0.828 -2.328,1.5 -1.5,1.5 -0.672,1.5 0,0.828 0,0" /></g><g
           transform="translate(195,134)"
           id="g210"><path
             id="path212"
             style="fill:#f39b11;fill-opacity:1;fill-rule:nonzero;stroke:none"
             d="m 0,0 c 0,-0.552 -0.448,-1 -1,-1 -0.552,0 -1,0.448 -1,1 0,0.552 0.448,1 1,1 0.552,0 1,-0.448 1,-1" /></g><g
           transform="translate(204,146)"
           id="g214"><path
             id="path216"
             style="fill:#f39b11;fill-opacity:1;fill-rule:nonzero;stroke:none"
             d="m 0,0 c 0,-1.105 -0.895,-2 -2,-2 -1.105,0 -2,0.895 -2,2 0,1.105 0.895,2 2,2 1.105,0 2,-0.895 2,-2" /></g><g
           transform="translate(203.5,140)"
           id="g218"><path
             id="path220"
             style="fill:#f39b11;fill-opacity:1;fill-rule:nonzero;stroke:none"
             d="M 0,0 C 0,-0.828 -0.672,-1.5 -1.5,-1.5 -2.328,-1.5 -3,-0.828 -3,0 -3,0.828 -2.328,1.5 -1.5,1.5 -0.672,1.5 0,0.828 0,0" /></g><g
           transform="translate(203,134)"
           id="g222"><path
             id="path224"
             style="fill:#f39b11;fill-opacity:1;fill-rule:nonzero;stroke:none"
             d="m 0,0 c 0,-0.552 -0.448,-1 -1,-1 -0.552,0 -1,0.448 -1,1 0,0.552 0.448,1 1,1 0.552,0 1,-0.448 1,-1" /></g></g></g></g></svg>