<?xml version="1.0" encoding="UTF-8" standalone="no"?>
<svg
   xmlns:dc="http://purl.org/dc/elements/1.1/"
   xmlns:cc="http://creativecommons.org/ns#"
   xmlns:rdf="http://www.w3.org/1999/02/22-rdf-syntax-ns#"
   xmlns:svg="http://www.w3.org/2000/svg"
   xmlns="http://www.w3.org/2000/svg"
   viewBox="0 0 341.33334 341.33334"
   height="256"
   width="256"
   xml:space="preserve"
   id="svg2"
   version="1.1"><metadata
     id="metadata8"><rdf:RDF><cc:Work
         rdf:about=""><dc:format>image/svg+xml</dc:format><dc:type
           rdf:resource="http://purl.org/dc/dcmitype/StillImage" /></cc:Work></rdf:RDF></metadata><defs
     id="defs6"><clipPath
       id="clipPath18"
       clipPathUnits="userSpaceOnUse"><path
         id="path16"
         d="M 0,256 H 256 V 0 H 0 Z" /></clipPath><clipPath
       id="clipPath26"
       clipPathUnits="userSpaceOnUse"><path
         id="path24"
         d="M 4.00337,248 H 251.997 V 8 H 4.00337 Z" /></clipPath></defs><g
     transform="matrix(1.3333333,0,0,-1.3333333,0,341.33333)"
     id="g10"><g
       id="g12"><g
         clip-path="url(#clipPath18)"
         id="g14"><g
           id="g20"><g
             id="g22" /><g
             id="g34"><g
               style="opacity:0.5"
               id="g32"
               clip-path="url(#clipPath26)"><g
                 id="g30"
                 transform="translate(245.9974,174.9978)"><path
                   id="path28"
                   style="fill:#ffffff;fill-opacity:1;fill-rule:nonzero;stroke:none"
                   d="m 0,0 c 0.002,0.118 0.003,0.237 0.003,0.356 v 0.061 0.299 0.061 c 0,1.271 -0.06,2.578 -0.184,3.997 -1.084,12.89 -7.445,24.067 -18.459,32.507 -0.779,2.137 -2.243,4.019 -4.266,5.295 -8.449,5.333 -18.465,8.173 -25.263,9.845 -4.975,1.221 -10.66,2.3 -16.952,3.218 l -1.512,3.563 c -0.138,0.325 -0.295,0.637 -0.47,0.935 -2.032,4.238 -6.392,5.918 -8.038,6.552 -10.41,4.012 -26.031,6.313 -42.857,6.313 -16.825,0 -32.446,-2.301 -42.856,-6.313 -2.105,-0.811 -7.408,-2.855 -8.821,-8.224 l -1.203,-2.835 c -6.316,-0.921 -12.024,-2.005 -17.017,-3.231 -0.084,-0.02 -0.167,-0.042 -0.251,-0.066 -1.755,-0.492 -17.367,-4.946 -24.968,-9.773 -2.011,-1.277 -3.466,-3.152 -4.242,-5.28 -11.028,-8.451 -17.39,-19.645 -18.464,-32.576 -0.119,-1.384 -0.177,-2.676 -0.177,-3.928 v -0.06 -0.3 -0.06 c 0,-0.119 0,-0.238 0.002,-0.356 -4.495,-15.108 -6.666,-35.562 -5.819,-55.076 0.555,-12.8 2.956,-36.271 12.794,-49.661 6.186,-8.418 13.323,-10.185 18.221,-10.185 12.476,0 19.954,15.459 24.494,27.087 3.59,9.193 6.523,19.44 8.684,28.042 l 9.029,-1.971 c 0.56,-0.122 1.132,-0.184 1.706,-0.184 0.044,-0.006 2.57,-1.048 5.734,-10.807 2.583,-7.97 4.589,-18.463 6.712,-29.573 2.75,-14.385 5.593,-29.261 10.151,-40.984 6.112,-15.717 14.957,-23.686 26.292,-23.686 11.334,0 20.18,7.969 26.291,23.686 4.558,11.723 7.401,26.599 10.151,40.984 2.123,11.11 4.129,21.603 6.712,29.573 3.164,9.759 5.69,10.801 5.715,10.808 0.573,0 1.165,0.061 1.725,0.183 l 9.03,1.971 c 2.16,-8.602 5.093,-18.849 8.683,-28.042 4.54,-11.628 12.018,-27.087 24.494,-27.087 4.898,0 12.035,1.767 18.221,10.185 9.838,13.39 12.239,36.861 12.794,49.661 C 6.666,-35.562 4.495,-15.108 0,0" /></g></g></g></g><g
           transform="translate(18.7402,176.0756)"
           id="g36"><path
             id="path38"
             style="fill:#b3b3b3;fill-opacity:1;fill-rule:nonzero;stroke:none"
             d="m 0,0 45.26,-44 c 0,0 -12.344,-64 -28.802,-64 C -8.229,-108 -12.344,-36 0,0" /></g><g
           transform="translate(237.2598,176.0756)"
           id="g40"><path
             id="path42"
             style="fill:#b3b3b3;fill-opacity:1;fill-rule:nonzero;stroke:none"
             d="m 0,0 -45.26,-44 c 0,0 12.344,-64 28.802,-64 C 8.229,-108 12.344,-36 0,0" /></g><g
           transform="translate(217.5705,206.0756)"
           id="g44"><path
             id="path46"
             style="fill:#808080;fill-opacity:1;fill-rule:nonzero;stroke:none"
             d="m 0,0 c -0.427,0 -0.859,0.117 -1.253,0.366 -6.884,4.343 -15.571,6.787 -21.511,8.246 -34.316,8.427 -99.21,8.427 -133.569,0.01 h -0.007 c -1.592,-0.458 -15.73,-4.563 -21.545,-8.254 -1.15,-0.721 -2.642,-0.341 -3.335,0.862 -0.695,1.204 -0.327,2.77 0.821,3.499 6.699,4.254 22.182,8.639 22.839,8.823 34.983,8.592 100.992,8.595 135.906,0.023 C -15.4,12.037 -6.22,9.448 1.253,4.732 2.401,4.007 2.771,2.442 2.083,1.235 1.627,0.441 0.821,0 0,0" /></g><g
           transform="translate(60.5959,209.9394)"
           id="g48"><path
             id="path50"
             style="fill:#999999;fill-opacity:1;fill-rule:nonzero;stroke:none"
             d="m 0,0 c 34.812,8.081 99.997,8.081 134.808,0 22.977,-5.335 42.596,-10.762 42.596,-34.165 v -0.359 c 0,-23.403 -19.549,-45.295 -42.596,-50.325 l -18.515,-4.04 c -24.444,0 -16.296,-105.05 -48.889,-105.05 -32.592,0 -24.444,105.05 -48.889,105.05 L 0,-84.849 c -23.047,5.028 -42.596,26.92 -42.596,50.323 v 0.36 c 0,23.403 19.619,28.83 42.596,34.165 z" /></g><g
           transform="translate(60.5959,217.9417)"
           id="g52"><path
             id="path54"
             style="fill:#b3b3b3;fill-opacity:1;fill-rule:nonzero;stroke:none"
             d="m 0,0 c 34.812,8.078 99.997,8.078 134.808,0 22.977,-5.332 42.596,-18.833 42.596,-42.227 v -0.361 c 0,-23.394 -19.549,-37.2 -42.596,-42.228 l -18.515,-4.038 c -24.444,0 -16.296,-113.088 -48.889,-113.088 -32.592,0 -24.444,113.088 -48.889,113.088 L 0,-84.816 c -23.047,5.028 -42.596,18.834 -42.596,42.228 v 0.361 C -42.596,-18.833 -22.977,-5.332 0,0" /></g><g
           transform="translate(84,174.0756)"
           id="g56"><path
             id="path58"
             style="fill:#a6a6a6;fill-opacity:1;fill-rule:nonzero;stroke:none"
             d="m 0,0 c 0,-14.359 -11.641,-26 -26,-26 -14.359,0 -26,11.641 -26,26 0,14.359 11.641,26 26,26 C -11.641,26 0,14.359 0,0" /></g><g
           transform="translate(73.8369,180.7814)"
           id="g60"><path
             id="path62"
             style="fill:#4c4c4c;fill-opacity:1;fill-rule:nonzero;stroke:none"
             d="m 0,0 h -9.131 v 9.131 c 0,1.195 -0.969,2.163 -2.163,2.163 h -9.086 c -1.195,0 -2.163,-0.968 -2.163,-2.163 V 0 h -9.131 c -1.194,0 -2.163,-0.968 -2.163,-2.163 v -9.086 c 0,-1.194 0.969,-2.163 2.163,-2.163 h 9.131 v -9.131 c 0,-1.194 0.968,-2.163 2.163,-2.163 h 9.086 c 1.194,0 2.163,0.969 2.163,2.163 v 9.131 H 0 c 1.195,0 2.163,0.969 2.163,2.163 v 9.086 C 2.163,-0.968 1.195,0 0,0" /></g><g
           transform="translate(54,174.0756)"
           id="g64"><path
             id="path66"
             style="fill:#595959;fill-opacity:1;fill-rule:nonzero;stroke:none"
             d="M 0,0 C 0,2.209 1.791,4 4,4 6.209,4 8,2.209 8,0 8,-2.209 6.209,-4 4,-4 1.791,-4 0,-2.209 0,0" /></g><g
           transform="translate(42.3127,174.7188)"
           id="g68"><path
             id="path70"
             style="fill:#595959;fill-opacity:1;fill-rule:nonzero;stroke:none"
             d="M 0,0 4.749,3.256 C 5.166,3.542 5.687,3.185 5.687,2.613 v -6.512 c 0,-0.572 -0.521,-0.929 -0.938,-0.644 L 0,-1.287 C -0.417,-1.001 -0.417,-0.286 0,0" /></g><g
           transform="translate(73.6873,173.4325)"
           id="g72"><path
             id="path74"
             style="fill:#595959;fill-opacity:1;fill-rule:nonzero;stroke:none"
             d="m 0,0 -4.749,-3.256 c -0.417,-0.286 -0.938,0.071 -0.938,0.643 v 6.512 c 0,0.572 0.521,0.929 0.938,0.644 L 0,1.287 C 0.417,1.001 0.417,0.286 0,0" /></g><g
           transform="translate(58.6431,189.7629)"
           id="g76"><path
             id="path78"
             style="fill:#595959;fill-opacity:1;fill-rule:nonzero;stroke:none"
             d="M 0,0 3.256,-4.749 C 3.542,-5.166 3.185,-5.687 2.613,-5.687 h -6.512 c -0.572,0 -0.929,0.521 -0.644,0.938 L -1.287,0 C -1.001,0.417 -0.286,0.417 0,0" /></g><g
           transform="translate(57.3569,158.3884)"
           id="g80"><path
             id="path82"
             style="fill:#595959;fill-opacity:1;fill-rule:nonzero;stroke:none"
             d="m 0,0 -3.256,4.749 c -0.286,0.417 0.071,0.938 0.643,0.938 h 6.512 c 0.572,0 0.929,-0.521 0.644,-0.938 L 1.287,0 C 1.001,-0.417 0.286,-0.417 0,0" /></g><g
           transform="translate(138,168.0756)"
           id="g84"><path
             id="path86"
             style="fill:#a6a6a6;fill-opacity:1;fill-rule:nonzero;stroke:none"
             d="m 0,0 c 0,-5.523 -4.477,-10 -10,-10 -5.523,0 -10,4.477 -10,10 0,5.523 4.477,10 10,10 C -4.477,10 0,5.523 0,0" /></g><g
           transform="translate(152,118.0756)"
           id="g88"><path
             id="path90"
             style="fill:#666666;fill-opacity:1;fill-rule:nonzero;stroke:none"
             d="m 0,0 c 0,-13.255 -10.745,-24 -24,-24 -13.255,0 -24,10.745 -24,24 0,13.255 10.745,24 24,24 C -10.745,24 0,13.255 0,0" /></g><g
           transform="translate(140.7279,105.3477)"
           id="g92"><path
             id="path94"
             style="fill:#4c4c4c;fill-opacity:1;fill-rule:nonzero;stroke:none"
             d="M 0,0 -12.728,-5.272 -25.456,0 l -5.272,12.728 5.272,12.728 12.728,5.272 L 0,25.456 5.272,12.728 Z" /></g><g
           transform="translate(140,118.0756)"
           id="g96"><path
             id="path98"
             style="fill:#b3b3b3;fill-opacity:1;fill-rule:nonzero;stroke:none"
             d="m 0,0 c 0,-6.627 -5.373,-12 -12,-12 -6.627,0 -12,5.373 -12,12 0,6.627 5.373,12 12,12 C -5.373,12 0,6.627 0,0" /></g><g
           transform="translate(136,168.0756)"
           id="g100"><path
             id="path102"
             style="fill:#ff0000;fill-opacity:1;fill-rule:nonzero;stroke:none"
             d="m 0,0 c 0,-4.418 -3.582,-8 -8,-8 -4.418,0 -8,3.582 -8,8 0,4.418 3.582,8 8,8 4.418,0 8,-3.582 8,-8" /></g><g
           transform="translate(176,164.0908)"
           id="g104"><path
             id="path106"
             style="fill:#a6a6a6;fill-opacity:1;fill-rule:nonzero;stroke:none"
             d="m 0,0 c 0,0 6.75,-8.717 8,-7.97 1.25,0.747 4,3.985 4,3.985 l -8,7.97 z" /></g><g
           transform="translate(184.5812,170.0756)"
           id="g108"><path
             id="path110"
             style="fill:#007e00;fill-opacity:1;fill-rule:nonzero;stroke:none"
             d="m 0,0 c 0,-5.523 -4.477,-10 -10,-10 -5.523,0 -10,4.477 -10,10 0,5.523 4.477,10 10,10 C -4.477,10 0,5.523 0,0" /></g><g
           transform="translate(224,182.0756)"
           id="g112"><path
             id="path114"
             style="fill:#a6a6a6;fill-opacity:1;fill-rule:nonzero;stroke:none"
             d="m 0,0 c 0,-9.941 -8.059,-18 -18,-18 -9.941,0 -18,8.059 -18,18 0,9.941 8.059,18 18,18 C -8.059,18 0,9.941 0,0" /></g><g
           transform="translate(206,160.0756)"
           id="g116"><path
             id="path118"
             style="fill:#eac500;fill-opacity:1;fill-rule:nonzero;stroke:none"
             d="m 0,0 c -4.418,0 -8,3.582 -8,8 0,4.418 3.582,8 8,8 C 4.418,16 8,12.418 8,8 8,3.582 4.418,0 0,0" /></g><g
           transform="translate(206,188.0756)"
           id="g120"><path
             id="path122"
             style="fill:#eac500;fill-opacity:1;fill-rule:nonzero;stroke:none"
             d="m 0,0 c -4.418,0 -8,3.582 -8,8 0,4.418 3.582,8 8,8 C 4.418,16 8,12.418 8,8 8,3.582 4.418,0 0,0" /></g><g
           transform="translate(192,175.0756)"
           id="g124"><path
             id="path126"
             style="fill:#eac500;fill-opacity:1;fill-rule:nonzero;stroke:none"
             d="m 0,0 c -4.418,0 -8,3.582 -8,8 0,4.418 3.582,8 8,8 C 4.418,16 8,12.418 8,8 8,3.582 4.418,0 0,0" /></g><g
           transform="translate(220,175.0756)"
           id="g128"><path
             id="path130"
             style="fill:#eac500;fill-opacity:1;fill-rule:nonzero;stroke:none"
             d="m 0,0 c -4.418,0 -8,3.582 -8,8 0,4.418 3.582,8 8,8 C 4.418,16 8,12.418 8,8 8,3.582 4.418,0 0,0" /></g><g
           transform="translate(92,187.0756)"
           id="g132"><path
             id="path134"
             style="fill:#999999;fill-opacity:1;fill-rule:nonzero;stroke:none"
             d="m 0,0 -8,44 -4,-9.429 z" /></g><g
           transform="translate(164,187.0756)"
           id="g136"><path
             id="path138"
             style="fill:#999999;fill-opacity:1;fill-rule:nonzero;stroke:none"
             d="m 0,0 8,44 4,-9.429 z" /></g><g
           transform="translate(88.0198,234.2222)"
           id="g140"><path
             id="path142"
             style="fill:#b3b3b3;fill-opacity:1;fill-rule:nonzero;stroke:none"
             d="m 0,0 c 19.99,7.704 59.97,7.704 79.96,0 2.056,-0.793 3.998,-1.718 3.998,-3.852 l -7.996,-42.37 H 3.998 l -7.996,42.37 C -4.394,-1.752 -2.056,-0.793 0,0" /></g><g
           transform="translate(147.3927,208.2449)"
           id="g144"><path
             id="path146"
             style="fill:#999999;fill-opacity:1;fill-rule:nonzero;stroke:none"
             d="m 0,0 h -38.83 c -3.28,-0.012 -5.272,2.189 -5.272,4.889 0,2.701 2.004,4.884 5.272,4.891 L 0,9.78 C 3.267,9.773 5.271,7.59 5.271,4.889 5.271,2.189 3.28,-0.012 0,0 M 0.018,11.374 H -38.85 c -4.112,0.009 -6.876,-2.948 -6.876,-6.494 0,-3.545 2.757,-6.468 6.882,-6.47 H 0.014 c 4.124,0.002 6.882,2.925 6.882,6.47 0,3.546 -2.764,6.503 -6.878,6.494" /></g><g
           transform="translate(134.0869,215.5546)"
           id="g148"><path
             id="path150"
             style="fill:#999999;fill-opacity:1;fill-rule:nonzero;stroke:none"
             d="M 0,0 H 1.836 V -0.821 H 2.829 V -1.425 H 1.836 l 0.002,-4.05 h -1.84 L 0,-1.425 h -0.997 v 0.603 h 0.999 z" /></g><path
           id="path152"
           style="fill:#999999;fill-opacity:1;fill-rule:nonzero;stroke:none"
           d="m 112.578,214.137 h 1.835 v -4.058 h -1.835 z" /><path
           id="path154"
           style="fill:#999999;fill-opacity:1;fill-rule:nonzero;stroke:none"
           d="m 112.573,216.183 h 1.839 v -1.247 h -1.839 z" /><g
           transform="translate(146.3096,212.2795)"
           id="g156"><path
             id="path158"
             style="fill:#999999;fill-opacity:1;fill-rule:nonzero;stroke:none"
             d="m 0,0 v 0 c 0,-0.012 -0.002,-0.615 -0.002,-0.857 0,-0.647 -0.382,-0.914 -0.75,-0.914 -0.367,0 -0.751,0.267 -0.751,0.914 v 0.874 c 0,0 0.002,0.601 0.002,0.846 0,0.644 0.383,0.909 0.749,0.909 0.367,0 0.75,-0.265 0.75,-0.909 0,-0.245 0,-0.699 0.002,-0.863 l 0,0.002 z m -0.737,2.275 c -1.481,0 -2.683,-1.02 -2.683,-2.278 0,-1.259 1.202,-2.279 2.683,-2.279 1.482,0 2.681,1.02 2.681,2.279 0,1.258 -1.199,2.278 -2.681,2.278" /></g><g
           transform="translate(117.3071,212.8661)"
           id="g160"><path
             id="path162"
             style="fill:#999999;fill-opacity:1;fill-rule:nonzero;stroke:none"
             d="m 0,0 c 0,0.629 0.434,0.789 0.719,0.789 0.292,0 0.72,-0.16 0.72,-0.789 0,-0.207 -0.002,-0.722 -0.002,-0.722 0,0 0.002,-0.507 0.002,-0.723 0,-0.626 -0.428,-0.79 -0.719,-0.79 -0.286,0 -0.72,0.164 -0.72,0.79 l 0,0.72 z m -1.798,3.328 v -6.102 h 1.815 c 0,0 10e-4,0.198 10e-4,0.234 0.702,-0.44 1.494,-0.438 2.112,-0.152 0.165,0.078 1.255,0.6 1.255,2.013 0,1.07 -1.011,2.241 -2.333,2.124 C 0.617,1.407 0.306,1.249 0.014,1.083 v 2.245 z" /></g><g
           transform="translate(129.6763,213.6803)"
           id="g164"><path
             id="path166"
             style="fill:#999999;fill-opacity:1;fill-rule:nonzero;stroke:none"
             d="M 0,0 C 0.143,0.249 0.406,0.37 0.645,0.37 H 0.644 0.646 0.645 C 0.885,0.37 1.148,0.249 1.291,0 1.407,-0.202 1.413,-0.44 1.41,-0.796 H -0.122 C -0.125,-0.44 -0.117,-0.202 0,0 m 1.405,-2.266 c 0,-0.743 -0.488,-0.907 -0.759,-0.907 -0.271,0 -0.768,0.164 -0.768,0.907 0,0.223 0.002,0.838 0.002,0.838 h 3.456 c 0,1.259 -1.215,2.302 -2.707,2.302 -1.492,0 -2.703,-1.02 -2.703,-2.279 0,-1.258 1.211,-2.278 2.703,-2.278 1.238,0 2.284,0.706 2.603,1.664 L 1.404,-2.02 c 0,0 0.001,-0.017 0.001,-0.246" /></g><g
           transform="translate(109.5389,210.6824)"
           id="g168"><path
             id="path170"
             style="fill:#999999;fill-opacity:1;fill-rule:nonzero;stroke:none"
             d="M 0,0 V 5.528 H -1.838 V 0 -0.603 H 0 1.988 V 0 Z" /></g><g
           transform="translate(140.7645,212.6518)"
           id="g172"><path
             id="path174"
             style="fill:#999999;fill-opacity:1;fill-rule:nonzero;stroke:none"
             d="M 0,0 H 1.798 C 1.613,1.31 0.386,1.689 -0.245,1.673 -0.851,1.654 -1.357,1.394 -1.708,1.059 c -0.002,0.1 0,0.428 0,0.428 L -3.529,1.485 -3.531,-2.572 h 1.823 c 0,0 -0.002,2.492 -0.002,2.664 0,0.353 0.372,0.748 0.871,0.748 C -0.34,0.84 0,0.445 0,0.092 Z" /></g><g
           transform="translate(123.5786,214.1325)"
           id="g176"><path
             id="path178"
             style="fill:#999999;fill-opacity:1;fill-rule:nonzero;stroke:none"
             d="m 0,0 v 0.72 c 0,0.626 0.434,0.79 0.72,0.79 0.291,0 0.719,-0.164 0.719,-0.79 0,-0.216 -0.002,-0.723 -0.002,-0.723 0,0 0.002,-0.515 0.002,-0.722 0,-0.629 -0.428,-0.788 -0.72,-0.788 C 0.434,-1.513 0,-1.354 0,-0.725 Z M 3.385,-0.046 C 3.385,1.367 2.295,1.89 2.13,1.967 1.512,2.253 0.72,2.255 0.018,1.815 c 0,0.036 -10e-4,0.234 -10e-4,0.234 h -1.815 v -6.102 h 1.812 v 2.246 C 0.021,-1.812 0.029,-1.816 0.037,-1.82 l 1.421,-2.233 h 1.798 l -1.282,2.015 c 0.842,0.33 1.411,1.189 1.411,1.992" /></g><g
           transform="translate(128,127.0756)"
           id="g180"><path
             id="path182"
             style="fill:#999999;fill-opacity:1;fill-rule:nonzero;stroke:none"
             d="m 0,0 c -4.963,0 -9,-4.037 -9,-9 0,-4.963 4.037,-9 9,-9 4.963,0 9,4.037 9,9 0,4.963 -4.037,9 -9,9" /></g><g
           transform="translate(128,126.0756)"
           id="g184"><path
             id="path186"
             style="fill:#b3b3b3;fill-opacity:1;fill-rule:nonzero;stroke:none"
             d="m 0,0 c -4.411,0 -8,-3.589 -8,-8 0,-4.411 3.589,-8 8,-8 4.411,0 8,3.589 8,8 0,4.411 -3.589,8 -8,8" /></g><g
           transform="translate(128,125.0756)"
           id="g188"><path
             id="path190"
             style="fill:#999999;fill-opacity:1;fill-rule:nonzero;stroke:none"
             d="m 0,0 c -3.86,0 -7,-3.14 -7,-7 0,-3.86 3.14,-7 7,-7 3.86,0 7,3.14 7,7 0,3.86 -3.14,7 -7,7" /></g><g
           transform="translate(128,124.0756)"
           id="g192"><path
             id="path194"
             style="fill:#b3b3b3;fill-opacity:1;fill-rule:nonzero;stroke:none"
             d="m 0,0 c -3.308,0 -6,-2.692 -6,-6 0,-3.308 2.692,-6 6,-6 3.308,0 6,2.692 6,6 0,3.308 -2.692,6 -6,6" /></g><g
           transform="translate(128,123.0756)"
           id="g196"><path
             id="path198"
             style="fill:#999999;fill-opacity:1;fill-rule:nonzero;stroke:none"
             d="m 0,0 c -2.757,0 -5,-2.243 -5,-5 0,-2.757 2.243,-5 5,-5 2.757,0 5,2.243 5,5 0,2.757 -2.243,5 -5,5" /></g><g
           transform="translate(132,118.0756)"
           id="g200"><path
             id="path202"
             style="fill:#b3b3b3;fill-opacity:1;fill-rule:nonzero;stroke:none"
             d="m 0,0 c 0,-2.209 -1.791,-4 -4,-4 -2.209,0 -4,1.791 -4,4 0,2.209 1.791,4 4,4 2.209,0 4,-1.791 4,-4" /></g><g
           transform="translate(129,118.0756)"
           id="g204"><path
             id="path206"
             style="fill:#808080;fill-opacity:1;fill-rule:nonzero;stroke:none"
             d="m 0,0 c 0,-0.552 -0.448,-1 -1,-1 -0.552,0 -1,0.448 -1,1 0,0.552 0.448,1 1,1 0.552,0 1,-0.448 1,-1" /></g><g
           transform="translate(200,152.0756)"
           id="g208"><path
             id="path210"
             style="fill:#0000b8;fill-opacity:1;fill-rule:nonzero;stroke:none"
             d="m 0,0 c 0,-5.523 -4.477,-10 -10,-10 -5.523,0 -10,4.477 -10,10 0,5.523 4.477,10 10,10 C -4.477,10 0,5.523 0,0" /></g></g></g></g></svg>