<?xml version="1.0" encoding="UTF-8" standalone="no"?>
<svg
   xmlns:dc="http://purl.org/dc/elements/1.1/"
   xmlns:cc="http://creativecommons.org/ns#"
   xmlns:rdf="http://www.w3.org/1999/02/22-rdf-syntax-ns#"
   xmlns:svg="http://www.w3.org/2000/svg"
   xmlns="http://www.w3.org/2000/svg"
   viewBox="0 0 320 320"
   height="320"
   width="320"
   xml:space="preserve"
   version="1.1"
   id="svg2"><metadata
     id="metadata8"><rdf:RDF><cc:Work
         rdf:about=""><dc:format>image/svg+xml</dc:format><dc:type
           rdf:resource="http://purl.org/dc/dcmitype/StillImage" /></cc:Work></rdf:RDF></metadata><defs
     id="defs6"><clipPath
       id="clipPath16"
       clipPathUnits="userSpaceOnUse"><path
         id="path18"
         d="M 0,256 256,256 256,0 0,0 0,256 Z" /></clipPath><clipPath
       id="clipPath24"
       clipPathUnits="userSpaceOnUse"><path
         id="path26"
         d="M 12,252 244,252 244,4 12,4 12,252 Z" /></clipPath></defs><g
     transform="matrix(1.25,0,0,-1.25,0,320)"
     id="g10"><g
       id="g12"><g
         clip-path="url(#clipPath16)"
         id="g14"><g
           id="g20"><g
             id="g22" /><g
             id="g28"><g
               style="opacity:0.5"
               id="g30"
               clip-path="url(#clipPath24)"><g
                 id="g32"
                 transform="translate(226.1818,252)"><path
                   id="path34"
                   style="fill:#ffffff;fill-opacity:1;fill-rule:nonzero;stroke:none"
                   d="m 0,0 -196.364,0 c -9.825,0 -17.818,-7.925 -17.818,-17.667 l 0,-186.333 0,-11.833 0,-0.167 0,-8 1.071,0 c 3.677,-13.784 16.427,-24 31.475,-24 l 181.454,0 c 3.265,0 6.169,1.572 7.995,4 l 0.005,0 c 5.514,0 10,4.486 10,10 l 0,10 0,4 0,202.333 C 17.818,-7.925 9.825,0 0,0" /></g></g></g></g><g
           transform="translate(218.2967,233.9305)"
           id="g36"><path
             id="path38"
             style="fill:#4c4c4c;fill-opacity:1;fill-rule:nonzero;stroke:none"
             d="m 0,0 -173.194,0 c -3.332,0 -6.042,-2.71 -6.042,-6.042 l 0,-174 0,-0.441 0.284,-0.337 12.889,-15.306 0.362,-0.43 0.562,0 165.139,0 c 3.331,0 6.042,2.711 6.042,6.042 l 0,184.472 C 6.042,-2.71 3.331,0 0,0" /></g><g
           transform="translate(234,16)"
           id="g40"><path
             id="path42"
             style="fill:#4c4c4c;fill-opacity:1;fill-rule:nonzero;stroke:none"
             d="M 0,0 -6,0 -6,16 2,16 2,2 C 2,0.895 1.105,0 0,0" /></g><g
           transform="translate(116,32)"
           id="g44"><path
             id="path46"
             style="fill:#4c4c4c;fill-opacity:1;fill-rule:nonzero;stroke:none"
             d="M 0,0 24,0 12,-8 0,0 Z" /></g><path
           id="path48"
           style="fill:#4c4c4c;fill-opacity:1;fill-rule:nonzero;stroke:none"
           d="m 24,36 -4,0 0,12 4,0 0,-12 z" /><g
           transform="translate(226.1818,244)"
           id="g50"><path
             id="path52"
             style="fill:#595959;fill-opacity:1;fill-rule:nonzero;stroke:none"
             d="m 0,0 -196.364,0 c -5.422,0 -9.818,-4.328 -9.818,-9.667 l 0,-198.166 c 0,-13.347 10.99,-24.167 24.546,-24.167 l 181.454,0 c 1.105,0 2,0.895 2,2 l 0,14 8,0 0,206.333 C 9.818,-4.328 5.422,0 0,0" /></g><g
           transform="translate(44.7577,228)"
           id="g54"><path
             id="path56"
             style="fill:#e6e6e6;fill-opacity:1;fill-rule:nonzero;stroke:none"
             d="m 0,0 170.485,0 c 2.627,0 4.757,-2.14 4.757,-4.78 l 0,-182.44 c 0,-2.64 -2.13,-4.78 -4.757,-4.78 l -163.243,0 -12,16 0,171.22 C -4.758,-2.14 -2.628,0 0,0" /></g><path
           id="path58"
           style="fill:#4c4c4c;fill-opacity:1;fill-rule:nonzero;stroke:none"
           d="m 220,56 -180,0 0,4 180,0 0,-4 z" /><g
           transform="translate(97.5811,192)"
           id="g60"><path
             id="path62"
             style="fill:#4c4c4c;fill-opacity:1;fill-rule:nonzero;stroke:none"
             d="m 0,0 -0.225,0.027 -57.329,6.44 -0.027,1.53 L -0.348,1.584 6.275,8 56.126,8 61.93,1.572 122.419,4.781 122.397,3.246 61.512,0.012 55.685,6.464 6.67,6.464 0,0 Z" /></g><g
           transform="translate(68,223.8698)"
           id="g64"><path
             id="path66"
             style="fill:#191919;fill-opacity:1;fill-rule:nonzero;stroke:none"
             d="m 0,0 1.997,0 0,-7.454 6.437,0 0,-1.727 L 0,-9.181 0,0 Z" /></g><path
           id="path68"
           style="fill:#191919;fill-opacity:1;fill-rule:nonzero;stroke:none"
           d="m 77.738,223.87 1.997,0 0,-9.181 -1.997,0 0,9.181 z" /><g
           transform="translate(84.4612,218.6747)"
           id="g70"><path
             id="path72"
             style="fill:#191919;fill-opacity:1;fill-rule:nonzero;stroke:none"
             d="m 0,0 0,-2.331 4.558,0 c 0.682,0 0.965,0.143 0.965,0.819 l 0,0.693 C 5.523,-0.142 5.24,0 4.558,0 L 0,0 Z m 0,3.701 0,-2.189 4.558,0 c 0.616,0 0.915,0.125 0.915,0.659 l 0,0.871 c 0,0.534 -0.299,0.659 -0.915,0.659 L 0,3.701 Z m -1.964,1.494 7.354,0 c 1.314,0 1.93,-0.498 1.93,-1.779 l 0,-1.121 C 7.32,1.405 6.787,0.872 5.839,0.748 6.837,0.605 7.386,-0.035 7.386,-1.014 l 0,-1.174 c 0,-1.228 -0.848,-1.797 -2.528,-1.797 l -6.822,0 0,9.18 z" /></g><g
           transform="translate(96.0465,222.2864)"
           id="g74"><path
             id="path76"
             style="fill:#191919;fill-opacity:1;fill-rule:nonzero;stroke:none"
             d="m 0,0 0,-2.562 4.491,0 c 0.616,0 0.899,0.125 0.899,0.729 l 0,1.104 C 5.39,-0.125 5.107,0 4.491,0 L 0,0 Z m -1.964,1.583 7.354,0 c 1.314,0 1.93,-0.498 1.93,-1.779 l 0,-2.152 c 0,-1.282 -0.616,-1.779 -1.93,-1.779 l -1.131,0 3.959,-3.47 -2.861,0 -3.461,3.47 -1.896,0 0,-3.47 -1.964,0 0,9.18 z" /></g><g
           transform="translate(105.801,223.8698)"
           id="g78"><path
             id="path80"
             style="fill:#191919;fill-opacity:1;fill-rule:nonzero;stroke:none"
             d="m 0,0 8.784,0 0,-1.565 -6.787,0 0,-2.047 3.959,0 0,-1.565 -3.959,0 0,-2.277 6.87,0 0,-1.727 L 0,-9.181 0,0 Z" /></g><g
           transform="translate(120.9862,214.6893)"
           id="g82"><path
             id="path84"
             style="fill:#191919;fill-opacity:1;fill-rule:nonzero;stroke:none"
             d="m 0,0 -1.996,0 0,7.543 -3.943,0 0,1.638 9.899,0 0,-1.638 L 0,7.543 0,0 Z" /></g><g
           transform="translate(127.4728,222.2864)"
           id="g86"><path
             id="path88"
             style="fill:#191919;fill-opacity:1;fill-rule:nonzero;stroke:none"
             d="m 0,0 0,-2.562 4.492,0 c 0.615,0 0.898,0.125 0.898,0.729 l 0,1.104 C 5.39,-0.125 5.107,0 4.492,0 L 0,0 Z m -1.964,1.583 7.354,0 c 1.314,0 1.93,-0.498 1.93,-1.779 l 0,-2.152 c 0,-1.282 -0.616,-1.779 -1.93,-1.779 l -1.131,0 3.959,-3.47 -2.861,0 -3.461,3.47 -1.896,0 0,-3.47 -1.964,0 0,9.18 z" /></g><path
           id="path90"
           style="fill:#191919;fill-opacity:1;fill-rule:nonzero;stroke:none"
           d="m 145.629,222.233 -6.587,0 0,-5.817 6.587,0 0,5.817 z m -6.455,1.637 6.322,0 c 1.613,0 2.129,-0.445 2.129,-2.17 l 0,-4.84 c 0,-1.726 -0.516,-2.171 -2.129,-2.171 l -6.322,0 c -1.613,0 -2.13,0.445 -2.13,2.171 l 0,4.84 c 0,1.725 0.517,2.17 2.13,2.17" /><g
           transform="translate(68,213.3107)"
           id="g92"><path
             id="path94"
             style="fill:#cccccc;fill-opacity:1;fill-rule:nonzero;stroke:none"
             d="m 0,0 8.434,0 0,-1.726 -6.437,0 0,-7.455 L 0,-9.181 0,0 Z" /></g><path
           id="path96"
           style="fill:#cccccc;fill-opacity:1;fill-rule:nonzero;stroke:none"
           d="m 77.738,213.311 1.997,0 0,-9.181 -1.997,0 0,9.181 z" /><g
           transform="translate(89.0195,209.3253)"
           id="g98"><path
             id="path100"
             style="fill:#cccccc;fill-opacity:1;fill-rule:nonzero;stroke:none"
             d="m 0,0 c 0.682,0 0.964,0.142 0.964,0.819 l 0,0.693 C 0.964,2.188 0.682,2.331 0,2.331 l -4.558,0 L -4.558,0 0,0 Z m 0,-3.701 c 0.616,0 0.915,0.125 0.915,0.659 l 0,0.871 c 0,0.534 -0.299,0.659 -0.915,0.659 l -4.558,0 0,-2.189 4.558,0 z m -6.522,7.686 6.821,0 c 1.681,0 2.529,-0.569 2.529,-1.797 l 0,-1.174 c 0,-0.979 -0.549,-1.619 -1.547,-1.762 0.948,-0.124 1.48,-0.657 1.48,-1.547 l 0,-1.121 c 0,-1.281 -0.615,-1.779 -1.929,-1.779 l -7.354,0 0,9.18 z" /></g><g
           transform="translate(100.5377,205.7136)"
           id="g102"><path
             id="path104"
             style="fill:#cccccc;fill-opacity:1;fill-rule:nonzero;stroke:none"
             d="m 0,0 c 0.616,0 0.899,0.125 0.899,0.729 l 0,1.104 C 0.899,2.437 0.616,2.562 0,2.562 l -4.491,0 L -4.491,0 0,0 Z m -6.455,7.597 1.964,0 0,-3.47 1.896,0 3.461,3.47 2.861,0 -3.959,-3.47 1.131,0 c 1.314,0 1.929,-0.497 1.929,-1.779 l 0,-2.152 c 0,-1.281 -0.615,-1.779 -1.929,-1.779 l -7.354,0 0,9.18 z" /></g><g
           transform="translate(105.801,213.3107)"
           id="g106"><path
             id="path108"
             style="fill:#cccccc;fill-opacity:1;fill-rule:nonzero;stroke:none"
             d="m 0,0 8.867,0 0,-1.726 -6.87,0 0,-2.278 3.959,0 0,-1.565 -3.959,0 0,-2.046 6.787,0 0,-1.566 L 0,-9.181 0,0 Z" /></g><g
           transform="translate(120.9862,205.7672)"
           id="g110"><path
             id="path112"
             style="fill:#cccccc;fill-opacity:1;fill-rule:nonzero;stroke:none"
             d="m 0,0 3.96,0 0,-1.637 -9.899,0 0,1.637 3.943,0 0,7.543 L 0,7.543 0,0 Z" /></g><g
           transform="translate(131.9646,205.7136)"
           id="g114"><path
             id="path116"
             style="fill:#cccccc;fill-opacity:1;fill-rule:nonzero;stroke:none"
             d="m 0,0 c 0.615,0 0.898,0.125 0.898,0.729 l 0,1.104 C 0.898,2.437 0.615,2.562 0,2.562 l -4.492,0 L -4.492,0 0,0 Z m -6.455,7.597 1.963,0 0,-3.47 1.897,0 3.46,3.47 2.862,0 -3.96,-3.47 1.131,0 c 1.314,0 1.93,-0.497 1.93,-1.779 l 0,-2.152 c 0,-1.281 -0.616,-1.779 -1.93,-1.779 l -7.353,0 0,9.18 z" /></g><path
           id="path118"
           style="fill:#cccccc;fill-opacity:1;fill-rule:nonzero;stroke:none"
           d="m 139.041,205.767 6.587,0 0,5.817 -6.587,0 0,-5.817 z m -1.997,0.533 0,4.84 c 0,1.726 0.517,2.171 2.13,2.171 l 6.322,0 c 1.613,0 2.129,-0.445 2.129,-2.171 l 0,-4.84 c 0,-1.725 -0.516,-2.17 -2.129,-2.17 l -6.322,0 c -1.613,0 -2.13,0.445 -2.13,2.17" /><g
           transform="translate(177.1253,221.2269)"
           id="g120"><path
             id="path122"
             style="fill:#191919;fill-opacity:1;fill-rule:nonzero;stroke:none"
             d="m 0,0 0,-14.379 c 1.62,0 3.207,-0.044 4.791,0.014 1.316,0.049 2.599,0.349 3.821,0.908 3.119,1.425 4.23,4.322 3.759,7.504 -0.386,2.6 -1.903,4.195 -4.114,5.13 C 5.588,0.305 2.79,-0.07 0,0 m -6.091,-17.194 0,19.888 c 0.161,0.008 0.307,0.022 0.452,0.022 3.831,-0.003 7.663,0.02 11.494,-0.024 2.193,-0.025 4.376,-0.287 6.46,-1.056 2.498,-0.922 4.578,-2.47 5.751,-5.096 1.78,-3.985 0.538,-8.6 -2.897,-11.123 -1.674,-1.229 -3.531,-1.88 -5.513,-2.214 -1.816,-0.306 -3.642,-0.404 -5.478,-0.399 -3.243,0.008 -6.486,0.002 -9.729,0.002 l -0.54,0 z" /></g><g
           transform="translate(150.344,204.6371)"
           id="g124"><path
             id="path126"
             style="fill:#191919;fill-opacity:1;fill-rule:nonzero;stroke:none"
             d="M 0,0 0,3.287 C 0.654,3.107 1.29,2.908 1.937,2.76 4.192,2.242 6.473,1.982 8.78,2.086 9.631,2.124 10.467,2.282 11.222,2.749 12.603,3.603 12.7,5.282 11.319,6.107 10.086,6.844 8.753,7.398 7.437,7.962 5.725,8.696 3.958,9.306 2.393,10.373 c -0.602,0.411 -1.192,0.913 -1.637,1.503 -1.201,1.59 -0.965,3.718 0.483,5.068 1.138,1.062 2.518,1.565 3.958,1.906 2.29,0.542 4.615,0.59 6.94,0.438 1.414,-0.092 2.822,-0.308 4.255,-0.47 l 0,-3.213 c -0.791,0.192 -1.57,0.38 -2.348,0.569 -1.783,0.432 -3.584,0.725 -5.41,0.472 -0.72,-0.099 -1.458,-0.301 -2.112,-0.628 -1.166,-0.582 -1.248,-1.8 -0.241,-2.66 0.881,-0.753 1.946,-1.114 2.978,-1.539 1.72,-0.711 3.463,-1.364 5.157,-2.138 C 15.262,9.295 16.09,8.786 16.807,8.173 19.158,6.165 18.916,2.904 16.344,1.223 15.072,0.393 13.663,-0.01 12.215,-0.276 9.056,-0.856 3.205,-0.719 0,0" /></g><path
           id="path128"
           style="fill:#000000;fill-opacity:1;fill-rule:nonzero;stroke:none"
           d="m 192.8,95.268 22.4,0 0,-5.014 -22.4,0 0,5.014 z m 22.4,-25.427 -22.4,0 0,19.589 22.4,0 0,-19.589 z M 192,96 l 0,-5.746 0,-0.816 0,-19.72 0,-0.7 0,-5.018 24,0 0,5.018 0,0.7 0,19.72 0,0.816 0,5.746 -24,0 z" /><g
           transform="translate(195.5225,67.1773)"
           id="g130"><path
             id="path132"
             style="fill:#d9d9d9;fill-opacity:1;fill-rule:nonzero;stroke:none"
             d="m 0,0 2.521,0 0,-1.867 c -0.759,-0.143 -1.64,-0.237 -2.44,-0.237 -1.762,0 -2.623,0.785 -2.623,1.877 0,1.092 0.861,1.877 2.677,1.877 1.505,0 2.291,-0.36 2.312,-1.195 l -1.817,0 C 0.624,0.568 0.563,0.642 0.481,0.687 0.4,0.731 0.285,0.751 0.163,0.751 c -0.292,0 -0.481,-0.109 -0.576,-0.252 -0.095,-0.143 -0.122,-0.494 -0.122,-0.795 0,-0.346 0.04,-0.583 0.128,-0.697 0.116,-0.148 0.305,-0.212 0.556,-0.212 0.183,0 0.359,0.02 0.515,0.074 l 0,0.43 L 0,-0.701 0,0 Z" /></g><g
           transform="translate(201.3751,66.6093)"
           id="g134"><path
             id="path136"
             style="fill:#d9d9d9;fill-opacity:1;fill-rule:nonzero;stroke:none"
             d="M 0,0 -0.387,1.344 -0.4,1.344 -0.827,0 0,0 Z m -1.607,2.124 2.515,0 1.573,-3.566 -2.007,0 -0.189,0.573 -1.403,0 -0.197,-0.573 -1.857,0 1.565,3.566 z" /></g><g
           transform="translate(208.9015,67.7159)"
           id="g138"><path
             id="path140"
             style="fill:#d9d9d9;fill-opacity:1;fill-rule:nonzero;stroke:none"
             d="m 0,0 -0.014,0 -0.691,-2.549 -1.776,0 -0.691,2.549 -0.014,0 0,-2.549 -1.64,0 0,3.567 2.691,0 0.535,-2.125 0.014,0 0.535,2.125 2.691,0 0,-3.567 -1.64,0 L 0,0 Z" /></g><g
           transform="translate(211.2371,68.7336)"
           id="g142"><path
             id="path144"
             style="fill:#d9d9d9;fill-opacity:1;fill-rule:nonzero;stroke:none"
             d="m 0,0 3.721,0 0,-0.929 -1.864,0 0,-0.38 1.722,0 0,-0.929 -1.722,0 0,-0.4 1.925,0 0,-0.929 L 0,-3.567 0,0 Z" /></g><g
           transform="translate(196.1926,93.4494)"
           id="g146"><path
             id="path148"
             style="fill:#000000;fill-opacity:1;fill-rule:nonzero;stroke:none"
             d="m 0,0 c -0.022,0.272 -0.24,0.426 -0.603,0.426 -0.51,0 -0.604,-0.564 -0.604,-1.015 0,-0.439 0.102,-0.957 0.604,-0.957 0.373,0 0.585,0.155 0.603,0.443 l 0.932,0 c 0.013,-0.76 -0.759,-1.027 -1.535,-1.027 -0.999,0 -1.535,0.564 -1.535,1.575 0,1.01 0.536,1.558 1.535,1.566 C 0.173,1.011 0.945,0.76 0.932,0 L 0,0 Z" /></g><g
           transform="translate(197.4546,91.3816)"
           id="g150"><path
             id="path152"
             style="fill:#000000;fill-opacity:1;fill-rule:nonzero;stroke:none"
             d="m 0,0 0,3.016 0.887,0 0,-2.431 1.451,0 L 2.338,0 0,0 Z" /></g><g
           transform="translate(201.9375,92.5555)"
           id="g154"><path
             id="path156"
             style="fill:#000000;fill-opacity:1;fill-rule:nonzero;stroke:none"
             d="m 0,0 -0.408,1.253 -0.014,0 L -0.856,0 0,0 Z m -2.179,-1.174 1.265,3.016 1.083,0 1.264,-3.016 -1.003,0 -0.213,0.589 -1.3,0 -0.208,-0.589 -0.888,0 z" /></g><g
           transform="translate(205.2718,93.5122)"
           id="g158"><path
             id="path160"
             style="fill:#000000;fill-opacity:1;fill-rule:nonzero;stroke:none"
             d="m 0,0 c 0.004,0.117 -0.036,0.205 -0.116,0.267 -0.075,0.063 -0.19,0.096 -0.341,0.096 -0.204,0 -0.382,-0.125 -0.382,-0.275 0,-0.222 0.284,-0.293 0.519,-0.351 0.537,-0.13 1.318,-0.18 1.318,-0.994 0,-0.635 -0.665,-0.936 -1.406,-0.936 -0.746,0 -1.402,0.204 -1.416,1.023 l 0.888,0 c -0.005,-0.284 0.217,-0.438 0.536,-0.438 0.205,0 0.466,0.1 0.466,0.3 0,0.41 -0.656,0.322 -1.353,0.61 -0.324,0.134 -0.484,0.41 -0.484,0.736 0.036,0.714 0.702,0.91 1.371,0.91 C 0.262,0.948 0.94,0.727 0.887,0 L 0,0 Z" /></g><g
           transform="translate(208.3215,93.5122)"
           id="g162"><path
             id="path164"
             style="fill:#000000;fill-opacity:1;fill-rule:nonzero;stroke:none"
             d="m 0,0 c 0.004,0.117 -0.036,0.205 -0.116,0.267 -0.075,0.063 -0.19,0.096 -0.341,0.096 -0.204,0 -0.382,-0.125 -0.382,-0.275 0,-0.222 0.284,-0.293 0.519,-0.351 0.537,-0.13 1.318,-0.18 1.318,-0.994 0,-0.635 -0.665,-0.936 -1.406,-0.936 -0.746,0 -1.402,0.204 -1.416,1.023 l 0.888,0 c -0.005,-0.284 0.217,-0.438 0.536,-0.438 0.205,0 0.466,0.1 0.466,0.3 0,0.41 -0.656,0.322 -1.353,0.61 -0.324,0.134 -0.484,0.41 -0.484,0.736 0.036,0.714 0.702,0.91 1.371,0.91 C 0.262,0.948 0.94,0.727 0.887,0 L 0,0 Z" /></g><path
           id="path166"
           style="fill:#000000;fill-opacity:1;fill-rule:nonzero;stroke:none"
           d="m 209.654,94.398 0.887,0 0,-3.016 -0.887,0 0,3.016 z" /><g
           transform="translate(213.0139,93.4494)"
           id="g168"><path
             id="path170"
             style="fill:#000000;fill-opacity:1;fill-rule:nonzero;stroke:none"
             d="m 0,0 c -0.022,0.272 -0.24,0.426 -0.603,0.426 -0.511,0 -0.604,-0.564 -0.604,-1.015 0,-0.439 0.102,-0.957 0.604,-0.957 0.372,0 0.585,0.155 0.603,0.443 l 0.932,0 c 0.013,-0.76 -0.759,-1.027 -1.535,-1.027 -0.999,0 -1.536,0.564 -1.536,1.575 0,1.01 0.537,1.558 1.536,1.566 C 0.173,1.011 0.945,0.76 0.932,0 L 0,0 Z" /></g><g
           transform="translate(211.9285,80.2091)"
           id="g172"><path
             id="path174"
             style="fill:#000000;fill-opacity:1;fill-rule:nonzero;stroke:none"
             d="m 0,0 c 1.257,-3.932 -1.53,-6.596 -5.286,-7.661 -5.31,-1.505 -8.738,0.842 -10.184,5.367 -1.569,4.404 0.283,8.204 5.403,9.655 3.82,1.083 7.519,0.537 8.879,-3.647 L -6.686,2.156 c -0.602,1.597 -1.332,1.734 -2.067,1.526 -1.553,-0.44 -1.22,-1.983 -0.487,-4.275 0.695,-2.173 1.339,-3.758 2.85,-3.33 0.776,0.22 1.162,0.804 0.766,2.329 L 0,0 Z" /></g><g
           transform="translate(61.981,88.2517)"
           id="g176"><path
             id="path178"
             style="fill:#ffffff;fill-opacity:1;fill-rule:nonzero;stroke:none"
             d="m 0,0 c 8.034,0 14.546,-4.59 14.546,-10.251 0,-5.662 -6.512,-10.252 -14.546,-10.252 -8.034,0 -14.546,4.59 -14.546,10.252 C -14.546,-4.591 -8.034,0 0,0" /></g><g
           transform="translate(76.5275,78.0757)"
           id="g180"><path
             id="path182"
             style="fill:#a3834a;fill-opacity:1;fill-rule:nonzero;stroke:none"
             d="m 0,0 c 0,5.661 -6.513,10.251 -14.546,10.251 -8.034,0 -14.547,-4.59 -14.547,-10.251 0,-5.662 6.513,-10.252 14.547,-10.252 C -6.513,-10.252 0,-5.662 0,0 m 1.733,-0.007 1.74,-1.886 -2.486,-1.509 0.698,-2.919 -2.674,-0.075 -0.184,-3.179 -2.981,0.831 -0.503,-3.001 -2.76,1.109 -1.438,-2.645 -2.155,1.886 -1.879,-2.681 -2.069,2.276 -2.261,-2.125 -1.476,2.502 -2.667,-1.588 -0.921,2.802 -3.087,-1.231 -0.454,2.762 -2.762,-0.174 0.413,2.812 -2.824,0.011 0.66,3.071 -2.19,1.246 1.743,2.004 -1.565,2.787 2.546,0.814 -0.67,2.982 2.792,0.037 0.323,2.956 2.526,-0.847 0.836,2.881 2.551,-1.396 1.056,2.549 2.209,-1.554 1.553,2.423 2.087,-2.11 1.844,1.93 1.617,-2.433 2.525,1.642 1.002,-2.685 2.539,1.216 L -4.36,8.683 -1.352,9.225 -1.444,6.483 1.597,6.152 0.736,3.503 3.384,2.355 1.733,-0.007 Z" /></g><g
           transform="translate(48.6852,77.9998)"
           id="g184"><path
             id="path186"
             style="fill:#a3834a;fill-opacity:1;fill-rule:nonzero;stroke:none"
             d="m 0,0 c 0,4.998 5.964,9.064 13.296,9.064 7.331,0 13.295,-4.066 13.295,-9.064 0,-4.998 -5.964,-9.064 -13.295,-9.064 C 5.964,-9.064 0,-4.998 0,0 m 13.295,-9.403 c 7.517,0 13.631,4.218 13.631,9.403 0,5.185 -6.114,9.403 -13.631,9.403 -7.516,0 -13.63,-4.218 -13.63,-9.403 0,-5.185 6.114,-9.403 13.63,-9.403" /></g><g
           transform="translate(70.419,75.8302)"
           id="g188"><path
             id="path190"
             style="fill:#a3834a;fill-opacity:1;fill-rule:nonzero;stroke:none"
             d="m 0,0 -17.021,0 c -1.438,-0.005 -2.311,0.971 -2.311,2.168 0,1.199 0.878,2.167 2.311,2.17 L 0,4.338 C 1.432,4.335 2.311,3.367 2.311,2.168 2.311,0.971 1.438,-0.005 0,0 m 0.008,5.045 -17.038,0 c -1.803,0.004 -3.014,-1.308 -3.014,-2.881 0,-1.572 1.209,-2.868 3.017,-2.869 l 17.033,0 c 1.808,0.001 3.017,1.297 3.017,2.869 0,1.573 -1.212,2.885 -3.015,2.881" /></g><g
           transform="translate(64.5864,79.0723)"
           id="g192"><path
             id="path194"
             style="fill:#a3834a;fill-opacity:1;fill-rule:nonzero;stroke:none"
             d="m 0,0 0.805,0 0,-0.364 0.435,0 0,-0.268 -0.435,0 0.001,-1.796 -0.807,0 0.001,1.796 -0.437,0 0,0.267 0.438,0 L 0,0 Z" /></g><path
           id="path196"
           style="fill:#a3834a;fill-opacity:1;fill-rule:nonzero;stroke:none"
           d="m 55.158,78.444 0.804,0 0,-1.8 -0.804,0 0,1.8 z" /><path
           id="path198"
           style="fill:#a3834a;fill-opacity:1;fill-rule:nonzero;stroke:none"
           d="m 55.156,79.351 0.806,0 0,-0.553 -0.806,0 0,0.553 z" /><g
           transform="translate(69.9442,77.6197)"
           id="g200"><path
             id="path202"
             style="fill:#a3834a;fill-opacity:1;fill-rule:nonzero;stroke:none"
             d="m 0,0 0,0 c 0,-0.005 -0.001,-0.273 -0.001,-0.38 0,-0.287 -0.167,-0.405 -0.329,-0.405 -0.161,0 -0.329,0.118 -0.329,0.405 l 0,0.387 c 0,0 0.001,0.267 0.001,0.376 0,0.286 0.168,0.403 0.328,0.403 0.161,0 0.329,-0.117 0.329,-0.403 0,-0.109 0,-0.31 0.001,-0.383 L 0,0.001 0,0 Z m -0.323,1.009 c -0.649,0 -1.176,-0.453 -1.176,-1.01 0,-0.559 0.527,-1.011 1.176,-1.011 0.649,0 1.175,0.452 1.175,1.011 0,0.557 -0.526,1.01 -1.175,1.01" /></g><g
           transform="translate(57.2309,77.8799)"
           id="g204"><path
             id="path206"
             style="fill:#a3834a;fill-opacity:1;fill-rule:nonzero;stroke:none"
             d="m 0,0 c 0,0.279 0.19,0.35 0.315,0.35 0.128,0 0.316,-0.071 0.316,-0.35 0,-0.092 -0.001,-0.32 -0.001,-0.32 0,0 0.001,-0.225 0.001,-0.321 0,-0.277 -0.188,-0.35 -0.315,-0.35 C 0.19,-0.991 0,-0.918 0,-0.641 L 0,-0.321 0,0 Z m -0.788,1.476 0,-2.706 0.795,0 c 0,0 0.001,0.087 0.001,0.104 0.308,-0.196 0.655,-0.195 0.926,-0.068 0.072,0.034 0.55,0.266 0.55,0.893 0,0.475 -0.443,0.994 -1.023,0.942 C 0.27,0.624 0.134,0.554 0.006,0.48 l 0,0.996 -0.794,0 z" /></g><g
           transform="translate(62.653,78.241)"
           id="g208"><path
             id="path210"
             style="fill:#a3834a;fill-opacity:1;fill-rule:nonzero;stroke:none"
             d="m 0,0 c 0.063,0.111 0.178,0.164 0.283,0.164 l -0.001,0 0.001,0 0,0 C 0.388,0.164 0.503,0.111 0.566,0 0.617,-0.09 0.619,-0.195 0.618,-0.353 l -0.671,0 C -0.055,-0.195 -0.051,-0.09 0,0 m 0.616,-1.005 c 0,-0.329 -0.214,-0.402 -0.333,-0.402 -0.119,0 -0.336,0.073 -0.336,0.402 0,0.099 0,0.372 0,0.372 l 1.515,0 c 0,0.558 -0.532,1.021 -1.186,1.021 -0.654,0 -1.185,-0.453 -1.185,-1.011 0,-0.558 0.531,-1.011 1.185,-1.011 0.542,0 1.001,0.314 1.141,0.739 L 0.615,-0.896 c 0,0 0.001,-0.008 0.001,-0.109" /></g><g
           transform="translate(53.8257,76.9113)"
           id="g212"><path
             id="path214"
             style="fill:#a3834a;fill-opacity:1;fill-rule:nonzero;stroke:none"
             d="m 0,0 0,2.452 -0.806,0 0,-2.452 0,-0.267 0.806,0 0.872,0 L 0.872,0 0,0 Z" /></g><g
           transform="translate(67.5135,77.7848)"
           id="g216"><path
             id="path218"
             style="fill:#a3834a;fill-opacity:1;fill-rule:nonzero;stroke:none"
             d="M 0,0 0.788,0 C 0.707,0.581 0.169,0.749 -0.107,0.742 -0.373,0.734 -0.595,0.618 -0.749,0.47 c -0.001,0.044 0,0.189 0,0.189 l -0.798,0 -0.001,-1.8 0.799,0 c 0,0 -0.001,1.106 -0.001,1.182 0,0.157 0.163,0.331 0.382,0.331 C -0.149,0.372 0,0.198 0,0.041 L 0,0 Z" /></g><g
           transform="translate(59.98,78.4416)"
           id="g220"><path
             id="path222"
             style="fill:#a3834a;fill-opacity:1;fill-rule:nonzero;stroke:none"
             d="m 0,0 0,0.319 c 0,0.278 0.19,0.351 0.316,0.351 0.127,0 0.315,-0.073 0.315,-0.351 0,-0.095 -0.001,-0.32 -0.001,-0.32 0,0 0.001,-0.229 0.001,-0.32 0,-0.279 -0.188,-0.35 -0.316,-0.35 C 0.19,-0.671 0,-0.6 0,-0.321 L 0,0 Z m 1.484,-0.02 c 0,0.626 -0.478,0.858 -0.55,0.893 C 0.663,0.999 0.316,1 0.008,0.805 c 0,0.016 -0.001,0.104 -0.001,0.104 l -0.795,0 0,-2.707 0.794,0 0,0.996 c 0.003,-0.002 0.007,-0.003 0.01,-0.005 l 0.623,-0.991 0.788,0 -0.562,0.894 c 0.369,0.146 0.619,0.528 0.619,0.884" /></g><g
           transform="translate(177.6163,83.7821)"
           id="g224"><path
             id="path226"
             style="fill:#000000;fill-opacity:1;fill-rule:nonzero;stroke:none"
             d="m 0,0 c -0.692,0.002 -1.368,0.005 -2.059,0.007 -0.011,-2.491 -0.022,-4.972 -0.033,-7.46 1.948,-0.006 3.87,-0.013 5.804,-0.02 0.011,2.504 0.022,4.984 0.033,7.462 C 2.91,-0.008 2.101,-0.005 1.26,-0.002 1.252,-1.75 1.245,-3.473 1.237,-5.206 0.8,-5.205 0.397,-5.203 -0.023,-5.202 -0.015,-3.458 -0.008,-1.743 0,0 m 4.565,-10.143 c 1.116,-0.004 2.201,-0.008 3.299,-0.012 0.002,0.382 0.003,0.737 0.005,1.092 -1.947,0.007 -3.87,0.014 -5.793,0.02 -0.01,-0.059 -0.02,-0.092 -0.02,-0.126 -0.012,-2.629 -0.024,-5.257 -0.032,-7.886 -10e-4,-0.341 0.719,-0.954 1.112,-0.955 1.465,-0.007 2.93,-0.012 4.395,-0.015 0.099,-0.001 0.198,0.013 0.297,0.021 0.007,1.5 0.013,2.977 0.02,4.454 -0.704,0.002 -1.383,0.005 -2.101,0.007 -0.005,-1.011 -0.009,-1.997 -0.013,-2.974 -0.424,0.001 -0.807,0.003 -1.187,0.004 0.006,1.382 0.012,2.74 0.018,4.127 1.116,-0.004 2.2,-0.008 3.287,-0.012 0.002,0.384 0.003,0.739 0.005,1.125 -1.109,0.003 -2.192,0.007 -3.297,0.011 0.002,0.376 0.003,0.72 0.005,1.119 M -14.147,0.062 c -0.011,-2.509 -0.021,-4.991 -0.032,-7.469 0.835,-0.003 1.643,-0.006 2.486,-0.009 0.009,1.995 0.017,3.965 0.026,5.942 0.427,-0.001 0.819,-0.002 1.24,-0.004 -0.009,-1.997 -0.018,-3.967 -0.026,-5.945 0.708,-0.002 1.386,-0.005 2.1,-0.007 0.008,1.992 0.017,3.961 0.026,5.95 0.558,-0.002 1.081,-0.004 1.657,-0.006 -0.009,-1.997 -0.017,-3.975 -0.026,-5.956 0.579,-0.002 1.106,-0.004 1.652,-0.006 0.011,2.498 0.022,4.98 0.032,7.477 -3.048,0.011 -6.077,0.022 -9.135,0.033 m 17.968,14.23 c -1.965,0.007 -3.889,0.014 -5.815,0.021 -0.005,-1.139 -0.009,-2.252 -0.014,-3.4 1.259,-0.005 2.485,-0.009 3.721,-0.014 C 1.703,8.638 1.693,6.414 1.684,4.181 1.123,4.183 0.587,4.185 0.003,4.187 0.011,6.011 0.019,7.813 0.027,9.619 -0.678,9.622 -1.335,9.624 -2.019,9.626 -2.029,7.178 -2.04,4.743 -2.051,2.305 -0.1,2.298 1.823,2.291 3.754,2.284 3.768,5.548 3.782,8.788 3.797,12.056 2.692,12.06 1.621,12.063 0.529,12.067 0.53,12.44 0.532,12.783 0.534,13.168 1.635,13.164 2.716,13.16 3.816,13.156 3.817,13.554 3.819,13.91 3.821,14.292 M -19.51,12.133 c -0.014,-3.293 -0.028,-6.532 -0.042,-9.761 2.097,-0.007 4.162,-0.014 6.221,-0.022 0.018,4.019 0.035,8.008 0.053,12.004 -0.702,0.002 -1.379,0.005 -2.091,0.007 -0.004,-0.755 -0.007,-1.485 -0.01,-2.243 -1.392,0.005 -2.748,0.01 -4.131,0.015 M -4.574,2.298 c 0.011,2.466 0.022,4.899 0.032,7.335 -0.846,0.003 -1.659,0.006 -2.52,0.009 C -7.07,7.94 -7.077,6.254 -7.084,4.577 -7.516,4.578 -7.898,4.58 -8.287,4.581 c 0.01,2.126 0.019,4.224 0.028,6.371 1.255,-0.004 2.49,-0.008 3.729,-0.013 0.001,0.404 0.003,0.759 0.005,1.148 -1.256,0.005 -2.482,0.009 -3.721,0.013 0.002,0.379 0.003,0.722 0.005,1.099 1.253,-0.005 2.48,-0.009 3.724,-0.014 0.002,0.402 0.004,0.768 0.005,1.14 -2.094,0.007 -4.161,0.014 -6.221,0.022 -0.017,-4.023 -0.035,-8.023 -0.052,-12.027 2.079,-0.007 4.126,-0.014 6.211,-0.022 m -2.131,-12.789 c -0.011,-2.512 -0.022,-4.984 -0.033,-7.456 0.857,-0.003 1.677,-0.006 2.529,-0.009 0.011,2.5 0.022,4.971 0.033,7.451 0.557,-10e-4 1.081,-0.003 1.649,-0.005 -0.011,-2.502 -0.022,-4.983 -0.033,-7.459 0.714,-0.003 1.382,-0.005 2.058,-0.007 0.013,2.994 0.026,5.966 0.039,8.947 -3.189,0.012 -6.357,0.023 -9.535,0.034 -0.013,-2.993 -0.026,-5.965 -0.039,-8.949 0.689,-0.002 1.356,-0.004 2.073,-0.007 0.01,2.5 0.021,4.979 0.032,7.465 0.422,-0.002 0.793,-0.003 1.227,-0.005 m 17.032,-9.291 c -7.625,0.027 -15.249,0.054 -22.874,0.081 0.015,3.452 0.03,6.904 0.045,10.385 -1.43,0.006 -2.799,0.01 -4.214,0.015 0.015,3.268 0.029,6.506 0.043,9.771 -1.676,0.006 -3.305,0.012 -4.943,0.017 0.021,4.889 0.042,9.75 0.064,14.64 1.243,-0.004 2.457,-0.009 3.711,-0.013 0.002,0.386 0.003,0.745 0.005,1.104 C -9.641,16.189 -1.446,16.16 6.749,16.131 6.716,8.5 6.683,0.869 6.649,-6.804 c 1.275,-0.005 2.497,-0.009 3.735,-0.013 -0.019,-4.35 -0.038,-8.658 -0.057,-12.965" /></g><g
           transform="translate(170.9108,73.2913)"
           id="g228"><path
             id="path230"
             style="fill:#ffffff;fill-opacity:1;fill-rule:nonzero;stroke:none"
             d="m 0,0 c -0.434,0.002 -0.805,0.003 -1.226,0.004 -0.011,-2.485 -0.022,-4.964 -0.033,-7.464 -0.717,0.002 -1.384,0.005 -2.072,0.007 0.013,2.984 0.026,5.956 0.039,8.949 C -0.114,1.485 3.053,1.473 6.243,1.462 6.23,-1.519 6.217,-4.492 6.204,-7.486 5.528,-7.483 4.86,-7.481 4.146,-7.478 4.157,-5.002 4.168,-2.522 4.179,-0.02 3.61,-0.018 3.087,-0.016 2.53,-0.014 2.519,-2.494 2.508,-4.965 2.497,-7.465 1.644,-7.462 0.825,-7.459 -0.033,-7.456 -0.022,-4.984 -0.011,-2.513 0,0" /></g><g
           transform="translate(173.0427,86.0802)"
           id="g232"><path
             id="path234"
             style="fill:#ffffff;fill-opacity:1;fill-rule:nonzero;stroke:none"
             d="m 0,0 c -2.085,0.007 -4.133,0.015 -6.212,0.022 0.018,4.003 0.035,8.003 0.053,12.027 2.06,-0.008 4.127,-0.015 6.221,-0.023 C 0.06,11.655 0.059,11.289 0.057,10.887 -1.188,10.892 -2.414,10.896 -3.667,10.901 -3.669,10.523 -3.671,10.181 -3.672,9.802 -2.433,9.798 -1.207,9.794 0.048,9.789 0.047,9.399 0.045,9.045 0.043,8.641 -1.196,8.646 -2.431,8.65 -3.685,8.654 -3.695,6.507 -3.704,4.409 -3.713,2.283 -3.324,2.282 -2.943,2.28 -2.511,2.279 -2.503,3.956 -2.496,5.642 -2.489,7.343 -1.627,7.34 -0.815,7.338 0.032,7.335 0.021,4.899 0.011,2.466 0,0" /></g><g
           transform="translate(162.2297,94.7308)"
           id="g236"><path
             id="path238"
             style="fill:#ffffff;fill-opacity:1;fill-rule:nonzero;stroke:none"
             d="m 0,0 c -0.557,0.002 -1.082,0.004 -1.616,0.006 -0.01,-2.374 -0.02,-4.725 -0.031,-7.082 0.552,-0.002 1.076,-0.004 1.616,-0.006 C -0.021,-4.716 -0.01,-2.373 0,0 M -4.123,1.184 C -2.74,1.179 -1.384,1.174 0.007,1.169 0.011,1.927 0.014,2.658 0.017,3.413 0.729,3.41 1.407,3.408 2.109,3.405 2.091,-0.591 2.074,-4.579 2.056,-8.598 c -2.059,0.007 -4.124,0.014 -6.222,0.022 0.014,3.229 0.028,6.468 0.043,9.76" /></g><g
           transform="translate(181.4369,98.0745)"
           id="g240"><path
             id="path242"
             style="fill:#ffffff;fill-opacity:1;fill-rule:nonzero;stroke:none"
             d="m 0,0 c -0.002,-0.382 -0.003,-0.739 -0.005,-1.136 -1.1,0.004 -2.181,0.007 -3.282,0.011 -0.002,-0.384 -0.003,-0.728 -0.005,-1.1 1.092,-0.004 2.164,-0.008 3.268,-0.012 -0.014,-3.268 -0.028,-6.507 -0.043,-9.771 -1.931,0.006 -3.854,0.013 -5.804,0.02 0.01,2.439 0.021,4.873 0.032,7.322 0.683,-0.002 1.341,-0.005 2.045,-0.007 -0.007,-1.806 -0.015,-3.608 -0.023,-5.433 0.583,-0.002 1.119,-0.004 1.68,-0.006 0.01,2.233 0.019,4.458 0.029,6.719 -1.236,0.004 -2.461,0.009 -3.721,0.013 0.005,1.149 0.01,2.262 0.015,3.401 C -3.888,0.014 -1.964,0.007 0,0" /></g><g
           transform="translate(163.4697,83.8438)"
           id="g244"><path
             id="path246"
             style="fill:#ffffff;fill-opacity:1;fill-rule:nonzero;stroke:none"
             d="M 0,0 C 3.058,-0.011 6.086,-0.022 9.135,-0.032 9.124,-2.53 9.113,-5.011 9.102,-7.51 8.556,-7.508 8.03,-7.506 7.451,-7.504 7.459,-5.522 7.468,-3.545 7.477,-1.547 6.901,-1.545 6.378,-1.543 5.819,-1.541 5.811,-3.531 5.802,-5.5 5.793,-7.492 5.08,-7.49 4.401,-7.487 3.693,-7.485 3.702,-5.507 3.711,-3.536 3.719,-1.54 3.299,-1.538 2.907,-1.537 2.479,-1.535 2.471,-3.513 2.462,-5.482 2.453,-7.477 1.611,-7.474 0.802,-7.472 -0.033,-7.469 -0.022,-4.991 -0.011,-2.509 0,0" /></g><g
           transform="translate(182.1811,73.6392)"
           id="g248"><path
             id="path250"
             style="fill:#ffffff;fill-opacity:1;fill-rule:nonzero;stroke:none"
             d="M 0,0 C -0.002,-0.399 -0.003,-0.743 -0.005,-1.119 1.1,-1.123 2.183,-1.127 3.292,-1.131 3.291,-1.516 3.289,-1.871 3.287,-2.255 2.2,-2.251 1.116,-2.247 0,-2.243 -0.006,-3.63 -0.012,-4.988 -0.018,-6.37 0.362,-6.371 0.745,-6.373 1.169,-6.374 1.173,-5.397 1.177,-4.411 1.182,-3.4 1.9,-3.402 2.579,-3.405 3.283,-3.407 3.276,-4.884 3.27,-6.361 3.263,-7.861 3.165,-7.869 3.065,-7.883 2.966,-7.883 c -1.465,0.004 -2.93,0.009 -4.394,0.015 -0.393,0.002 -1.114,0.615 -1.113,0.956 0.008,2.628 0.02,5.257 0.032,7.886 0,0.034 0.01,0.067 0.02,0.126 C -0.566,1.093 1.357,1.087 3.304,1.08 3.302,0.724 3.301,0.37 3.299,-0.012 2.201,-0.008 1.117,-0.004 0,0" /></g><g
           transform="translate(177.6163,83.7821)"
           id="g252"><path
             id="path254"
             style="fill:#ffffff;fill-opacity:1;fill-rule:nonzero;stroke:none"
             d="m 0,0 c -0.008,-1.743 -0.015,-3.458 -0.023,-5.202 0.42,-0.001 0.823,-0.003 1.26,-0.004 0.008,1.733 0.015,3.456 0.023,5.204 0.841,-0.003 1.65,-0.006 2.485,-0.009 -0.011,-2.478 -0.022,-4.958 -0.033,-7.462 -1.934,0.007 -3.856,0.014 -5.804,0.02 0.011,2.488 0.022,4.969 0.033,7.46 C -1.368,0.005 -0.692,0.002 0,0" /></g><g
           transform="translate(162.2297,94.7308)"
           id="g256"><path
             id="path258"
             style="fill:#000000;fill-opacity:1;fill-rule:nonzero;stroke:none"
             d="m 0,0 c -0.01,-2.373 -0.021,-4.716 -0.031,-7.082 -0.54,0.002 -1.064,0.004 -1.616,0.006 0.011,2.357 0.021,4.708 0.031,7.082 C -1.082,0.004 -0.557,0.002 0,0" /></g></g></g></g></svg>