<?xml version="1.0" encoding="UTF-8" standalone="no"?>
<svg
   xmlns:dc="http://purl.org/dc/elements/1.1/"
   xmlns:cc="http://creativecommons.org/ns#"
   xmlns:rdf="http://www.w3.org/1999/02/22-rdf-syntax-ns#"
   xmlns:svg="http://www.w3.org/2000/svg"
   xmlns="http://www.w3.org/2000/svg"
   viewBox="0 0 320 320"
   height="320"
   width="320"
   xml:space="preserve"
   version="1.1"
   id="svg2"><metadata
     id="metadata8"><rdf:RDF><cc:Work
         rdf:about=""><dc:format>image/svg+xml</dc:format><dc:type
           rdf:resource="http://purl.org/dc/dcmitype/StillImage" /></cc:Work></rdf:RDF></metadata><defs
     id="defs6"><clipPath
       id="clipPath16"
       clipPathUnits="userSpaceOnUse"><path
         id="path18"
         d="M 0,256 256,256 256,0 0,0 0,256 Z" /></clipPath><clipPath
       id="clipPath24"
       clipPathUnits="userSpaceOnUse"><path
         id="path26"
         d="M 52,252 204,252 204,4 52,4 52,252 Z" /></clipPath></defs><g
     transform="matrix(1.25,0,0,-1.25,0,320)"
     id="g10"><g
       id="g12"><g
         clip-path="url(#clipPath16)"
         id="g14"><g
           id="g20"><g
             id="g22" /><g
             id="g28"><g
               style="opacity:0.5"
               id="g30"
               clip-path="url(#clipPath24)"><g
                 id="g32"
                 transform="translate(184.6667,252)"><path
                   id="path34"
                   style="fill:#ffffff;fill-opacity:1;fill-rule:nonzero;stroke:none"
                   d="m 0,0 -113.333,0 c -10.661,0 -19.334,-8.625 -19.334,-19.226 l 0,-194.581 0,-3.741 0,-3.742 c 0,-10.03 9.202,-17.365 27.35,-21.804 12.937,-3.164 30.214,-4.906 48.65,-4.906 18.436,0 35.714,1.742 48.651,4.906 18.148,4.439 27.349,11.774 27.349,21.804 l 0,3.742 0,3.741 0,194.581 C 19.333,-8.625 10.66,0 0,0" /></g></g></g></g><g
           transform="translate(184.6667,244)"
           id="g36"><path
             id="path38"
             style="fill:#2c8bbf;fill-opacity:1;fill-rule:nonzero;stroke:none"
             d="m 0,0 -113.333,0 c -6.26,0 -11.334,-5.026 -11.334,-11.226 l 0,-194.58 0,-3.742 0,-3.742 c 0,-24.947 136,-24.947 136,0 l 0,3.742 0,3.742 0,194.58 C 11.333,-5.026 6.259,0 0,0" /></g><path
           id="path40"
           style="fill:#3096cf;fill-opacity:1;fill-rule:nonzero;stroke:none"
           d="m 172,36 -88,0 0,208 88,0 0,-208 z" /><g
           transform="translate(180.7778,236)"
           id="g42"><path
             id="path44"
             style="fill:#383838;fill-opacity:1;fill-rule:nonzero;stroke:none"
             d="m 0,0 -105.556,0 c -3.988,0 -7.222,-3.222 -7.222,-7.196 l 0,-82.755 0,-2.537 c 0,-4.637 3.773,-8.395 8.426,-8.395 l -0.926,0 c 35,-4.041 70,-4.27 105,0 l -0.926,0 c 4.654,0 8.426,3.758 8.426,8.395 l 0,2.537 0,82.755 C 7.222,-3.222 3.989,0 0,0" /></g><path
           id="path46"
           style="fill:#bfbfbf;fill-opacity:1;fill-rule:nonzero;stroke:none"
           d="m 88,224 80,0 0,-68 -80,0 0,68 z" /><g
           transform="translate(104,100)"
           id="g48"><path
             id="path50"
             style="fill:#333333;fill-opacity:1;fill-rule:nonzero;stroke:none"
             d="m 0,0 -12,0 0,12 -12,0 0,-12 -12,0 0,-12 12,0 0,-12 12,0 0,12 12,0 0,12 z" /></g><g
           transform="translate(90,94)"
           id="g52"><path
             id="path54"
             style="fill:#404040;fill-opacity:1;fill-rule:nonzero;stroke:none"
             d="m 0,0 c 0,-2.209 -1.791,-4 -4,-4 -2.209,0 -4,1.791 -4,4 0,2.209 1.791,4 4,4 2.209,0 4,-1.791 4,-4" /></g><g
           transform="translate(71,94)"
           id="g56"><path
             id="path58"
             style="fill:#404040;fill-opacity:1;fill-rule:nonzero;stroke:none"
             d="M 0,0 5,3 5,-3 0,0 Z" /></g><g
           transform="translate(101,94)"
           id="g60"><path
             id="path62"
             style="fill:#404040;fill-opacity:1;fill-rule:nonzero;stroke:none"
             d="m 0,0 -5,3 0,-6 5,3 z" /></g><g
           transform="translate(86,79)"
           id="g64"><path
             id="path66"
             style="fill:#404040;fill-opacity:1;fill-rule:nonzero;stroke:none"
             d="M 0,0 -3,5 3,5 0,0 Z" /></g><g
           transform="translate(86,109)"
           id="g68"><path
             id="path70"
             style="fill:#404040;fill-opacity:1;fill-rule:nonzero;stroke:none"
             d="M 0,0 -3,-5 3,-5 0,0 Z" /></g><g
           transform="translate(158,90)"
           id="g72"><path
             id="path74"
             style="fill:#333333;fill-opacity:1;fill-rule:nonzero;stroke:none"
             d="m 0,0 c 0,-4.418 -3.582,-8 -8,-8 -4.418,0 -8,3.582 -8,8 0,4.418 3.582,8 8,8 4.418,0 8,-3.582 8,-8" /></g><g
           transform="translate(180,100)"
           id="g76"><path
             id="path78"
             style="fill:#333333;fill-opacity:1;fill-rule:nonzero;stroke:none"
             d="m 0,0 c 0,-4.418 -3.582,-8 -8,-8 -4.418,0 -8,3.582 -8,8 0,4.418 3.582,8 8,8 4.418,0 8,-3.582 8,-8" /></g><g
           transform="translate(116.4632,52)"
           id="g80"><path
             id="path82"
             style="fill:#333333;fill-opacity:1;fill-rule:nonzero;stroke:none"
             d="m 0,0 -8.926,0 c -1.946,0 -3.537,1.35 -3.537,3 l 0,0 c 0,1.65 1.591,3 3.537,3 L 0,6 C 1.945,6 3.537,4.65 3.537,3 l 0,0 C 3.537,1.35 1.945,0 0,0" /></g><g
           transform="translate(144.4632,52)"
           id="g84"><path
             id="path86"
             style="fill:#333333;fill-opacity:1;fill-rule:nonzero;stroke:none"
             d="m 0,0 -8.926,0 c -1.946,0 -3.537,1.35 -3.537,3 l 0,0 c 0,1.65 1.591,3 3.537,3 L 0,6 C 1.945,6 3.537,4.65 3.537,3 l 0,0 C 3.537,1.35 1.945,0 0,0" /></g><g
           transform="translate(162,27)"
           id="g88"><path
             id="path90"
             style="fill:#236f99;fill-opacity:1;fill-rule:nonzero;stroke:none"
             d="m 0,0 c 0,-0.552 -0.448,-1 -1,-1 -0.552,0 -1,0.448 -1,1 0,0.552 0.448,1 1,1 0.552,0 1,-0.448 1,-1" /></g><g
           transform="translate(162,31)"
           id="g92"><path
             id="path94"
             style="fill:#333333;fill-opacity:1;fill-rule:nonzero;stroke:none"
             d="m 0,0 c 0,-0.552 -0.448,-1 -1,-1 -0.552,0 -1,0.448 -1,1 0,0.552 0.448,1 1,1 0.552,0 1,-0.448 1,-1" /></g><g
           transform="translate(162,35)"
           id="g96"><path
             id="path98"
             style="fill:#236f99;fill-opacity:1;fill-rule:nonzero;stroke:none"
             d="m 0,0 c 0,-0.552 -0.448,-1 -1,-1 -0.552,0 -1,0.448 -1,1 0,0.552 0.448,1 1,1 0.552,0 1,-0.448 1,-1" /></g><g
           transform="translate(162,39)"
           id="g100"><path
             id="path102"
             style="fill:#333333;fill-opacity:1;fill-rule:nonzero;stroke:none"
             d="m 0,0 c 0,-0.552 -0.448,-1 -1,-1 -0.552,0 -1,0.448 -1,1 0,0.552 0.448,1 1,1 0.552,0 1,-0.448 1,-1" /></g><g
           transform="translate(162,43)"
           id="g104"><path
             id="path106"
             style="fill:#236f99;fill-opacity:1;fill-rule:nonzero;stroke:none"
             d="m 0,0 c 0,-0.552 -0.448,-1 -1,-1 -0.552,0 -1,0.448 -1,1 0,0.552 0.448,1 1,1 0.552,0 1,-0.448 1,-1" /></g><g
           transform="translate(162,47)"
           id="g108"><path
             id="path110"
             style="fill:#333333;fill-opacity:1;fill-rule:nonzero;stroke:none"
             d="m 0,0 c 0,-0.552 -0.448,-1 -1,-1 -0.552,0 -1,0.448 -1,1 0,0.552 0.448,1 1,1 0.552,0 1,-0.448 1,-1" /></g><g
           transform="translate(162,51)"
           id="g112"><path
             id="path114"
             style="fill:#236f99;fill-opacity:1;fill-rule:nonzero;stroke:none"
             d="m 0,0 c 0,-0.552 -0.448,-1 -1,-1 -0.552,0 -1,0.448 -1,1 0,0.552 0.448,1 1,1 0.552,0 1,-0.448 1,-1" /></g><g
           transform="translate(158,31)"
           id="g116"><path
             id="path118"
             style="fill:#236f99;fill-opacity:1;fill-rule:nonzero;stroke:none"
             d="m 0,0 c 0,-0.552 -0.448,-1 -1,-1 -0.552,0 -1,0.448 -1,1 0,0.552 0.448,1 1,1 0.552,0 1,-0.448 1,-1" /></g><g
           transform="translate(158,35)"
           id="g120"><path
             id="path122"
             style="fill:#333333;fill-opacity:1;fill-rule:nonzero;stroke:none"
             d="m 0,0 c 0,-0.552 -0.448,-1 -1,-1 -0.552,0 -1,0.448 -1,1 0,0.552 0.448,1 1,1 0.552,0 1,-0.448 1,-1" /></g><g
           transform="translate(158,39)"
           id="g124"><path
             id="path126"
             style="fill:#236f99;fill-opacity:1;fill-rule:nonzero;stroke:none"
             d="m 0,0 c 0,-0.552 -0.448,-1 -1,-1 -0.552,0 -1,0.448 -1,1 0,0.552 0.448,1 1,1 0.552,0 1,-0.448 1,-1" /></g><g
           transform="translate(158,43)"
           id="g128"><path
             id="path130"
             style="fill:#333333;fill-opacity:1;fill-rule:nonzero;stroke:none"
             d="m 0,0 c 0,-0.552 -0.448,-1 -1,-1 -0.552,0 -1,0.448 -1,1 0,0.552 0.448,1 1,1 0.552,0 1,-0.448 1,-1" /></g><g
           transform="translate(158,47)"
           id="g132"><path
             id="path134"
             style="fill:#236f99;fill-opacity:1;fill-rule:nonzero;stroke:none"
             d="m 0,0 c 0,-0.552 -0.448,-1 -1,-1 -0.552,0 -1,0.448 -1,1 0,0.552 0.448,1 1,1 0.552,0 1,-0.448 1,-1" /></g><g
           transform="translate(158,51)"
           id="g136"><path
             id="path138"
             style="fill:#333333;fill-opacity:1;fill-rule:nonzero;stroke:none"
             d="m 0,0 c 0,-0.552 -0.448,-1 -1,-1 -0.552,0 -1,0.448 -1,1 0,0.552 0.448,1 1,1 0.552,0 1,-0.448 1,-1" /></g><g
           transform="translate(162,55)"
           id="g140"><path
             id="path142"
             style="fill:#333333;fill-opacity:1;fill-rule:nonzero;stroke:none"
             d="m 0,0 c 0,-0.552 -0.448,-1 -1,-1 -0.552,0 -1,0.448 -1,1 0,0.552 0.448,1 1,1 0.552,0 1,-0.448 1,-1" /></g><g
           transform="translate(166,27)"
           id="g144"><path
             id="path146"
             style="fill:#333333;fill-opacity:1;fill-rule:nonzero;stroke:none"
             d="m 0,0 c 0,-0.552 -0.448,-1 -1,-1 -0.552,0 -1,0.448 -1,1 0,0.552 0.448,1 1,1 0.552,0 1,-0.448 1,-1" /></g><g
           transform="translate(166,31)"
           id="g148"><path
             id="path150"
             style="fill:#236f99;fill-opacity:1;fill-rule:nonzero;stroke:none"
             d="m 0,0 c 0,-0.552 -0.448,-1 -1,-1 -0.552,0 -1,0.448 -1,1 0,0.552 0.448,1 1,1 0.552,0 1,-0.448 1,-1" /></g><g
           transform="translate(166,35)"
           id="g152"><path
             id="path154"
             style="fill:#333333;fill-opacity:1;fill-rule:nonzero;stroke:none"
             d="m 0,0 c 0,-0.552 -0.448,-1 -1,-1 -0.552,0 -1,0.448 -1,1 0,0.552 0.448,1 1,1 0.552,0 1,-0.448 1,-1" /></g><g
           transform="translate(166,39)"
           id="g156"><path
             id="path158"
             style="fill:#236f99;fill-opacity:1;fill-rule:nonzero;stroke:none"
             d="m 0,0 c 0,-0.552 -0.448,-1 -1,-1 -0.552,0 -1,0.448 -1,1 0,0.552 0.448,1 1,1 0.552,0 1,-0.448 1,-1" /></g><g
           transform="translate(166,43)"
           id="g160"><path
             id="path162"
             style="fill:#333333;fill-opacity:1;fill-rule:nonzero;stroke:none"
             d="m 0,0 c 0,-0.552 -0.448,-1 -1,-1 -0.552,0 -1,0.448 -1,1 0,0.552 0.448,1 1,1 0.552,0 1,-0.448 1,-1" /></g><g
           transform="translate(166,47)"
           id="g164"><path
             id="path166"
             style="fill:#236f99;fill-opacity:1;fill-rule:nonzero;stroke:none"
             d="m 0,0 c 0,-0.552 -0.448,-1 -1,-1 -0.552,0 -1,0.448 -1,1 0,0.552 0.448,1 1,1 0.552,0 1,-0.448 1,-1" /></g><g
           transform="translate(166,51)"
           id="g168"><path
             id="path170"
             style="fill:#333333;fill-opacity:1;fill-rule:nonzero;stroke:none"
             d="m 0,0 c 0,-0.552 -0.448,-1 -1,-1 -0.552,0 -1,0.448 -1,1 0,0.552 0.448,1 1,1 0.552,0 1,-0.448 1,-1" /></g><g
           transform="translate(166,55)"
           id="g172"><path
             id="path174"
             style="fill:#236f99;fill-opacity:1;fill-rule:nonzero;stroke:none"
             d="m 0,0 c 0,-0.552 -0.448,-1 -1,-1 -0.552,0 -1,0.448 -1,1 0,0.552 0.448,1 1,1 0.552,0 1,-0.448 1,-1" /></g><g
           transform="translate(170,27)"
           id="g176"><path
             id="path178"
             style="fill:#236f99;fill-opacity:1;fill-rule:nonzero;stroke:none"
             d="m 0,0 c 0,-0.552 -0.448,-1 -1,-1 -0.552,0 -1,0.448 -1,1 0,0.552 0.448,1 1,1 0.552,0 1,-0.448 1,-1" /></g><g
           transform="translate(170,31)"
           id="g180"><path
             id="path182"
             style="fill:#333333;fill-opacity:1;fill-rule:nonzero;stroke:none"
             d="m 0,0 c 0,-0.552 -0.448,-1 -1,-1 -0.552,0 -1,0.448 -1,1 0,0.552 0.448,1 1,1 0.552,0 1,-0.448 1,-1" /></g><g
           transform="translate(170,35)"
           id="g184"><path
             id="path186"
             style="fill:#236f99;fill-opacity:1;fill-rule:nonzero;stroke:none"
             d="m 0,0 c 0,-0.552 -0.448,-1 -1,-1 -0.552,0 -1,0.448 -1,1 0,0.552 0.448,1 1,1 0.552,0 1,-0.448 1,-1" /></g><g
           transform="translate(170,39)"
           id="g188"><path
             id="path190"
             style="fill:#333333;fill-opacity:1;fill-rule:nonzero;stroke:none"
             d="m 0,0 c 0,-0.552 -0.448,-1 -1,-1 -0.552,0 -1,0.448 -1,1 0,0.552 0.448,1 1,1 0.552,0 1,-0.448 1,-1" /></g><g
           transform="translate(170,43)"
           id="g192"><path
             id="path194"
             style="fill:#236f99;fill-opacity:1;fill-rule:nonzero;stroke:none"
             d="m 0,0 c 0,-0.552 -0.448,-1 -1,-1 -0.552,0 -1,0.448 -1,1 0,0.552 0.448,1 1,1 0.552,0 1,-0.448 1,-1" /></g><g
           transform="translate(170,47)"
           id="g196"><path
             id="path198"
             style="fill:#333333;fill-opacity:1;fill-rule:nonzero;stroke:none"
             d="m 0,0 c 0,-0.552 -0.448,-1 -1,-1 -0.552,0 -1,0.448 -1,1 0,0.552 0.448,1 1,1 0.552,0 1,-0.448 1,-1" /></g><g
           transform="translate(170,51)"
           id="g200"><path
             id="path202"
             style="fill:#236f99;fill-opacity:1;fill-rule:nonzero;stroke:none"
             d="m 0,0 c 0,-0.552 -0.448,-1 -1,-1 -0.552,0 -1,0.448 -1,1 0,0.552 0.448,1 1,1 0.552,0 1,-0.448 1,-1" /></g><g
           transform="translate(170,55)"
           id="g204"><path
             id="path206"
             style="fill:#333333;fill-opacity:1;fill-rule:nonzero;stroke:none"
             d="m 0,0 c 0,-0.552 -0.448,-1 -1,-1 -0.552,0 -1,0.448 -1,1 0,0.552 0.448,1 1,1 0.552,0 1,-0.448 1,-1" /></g><g
           transform="translate(174,27)"
           id="g208"><path
             id="path210"
             style="fill:#333333;fill-opacity:1;fill-rule:nonzero;stroke:none"
             d="m 0,0 c 0,-0.552 -0.448,-1 -1,-1 -0.552,0 -1,0.448 -1,1 0,0.552 0.448,1 1,1 0.552,0 1,-0.448 1,-1" /></g><g
           transform="translate(174,31)"
           id="g212"><path
             id="path214"
             style="fill:#236f99;fill-opacity:1;fill-rule:nonzero;stroke:none"
             d="m 0,0 c 0,-0.552 -0.448,-1 -1,-1 -0.552,0 -1,0.448 -1,1 0,0.552 0.448,1 1,1 0.552,0 1,-0.448 1,-1" /></g><g
           transform="translate(174,35)"
           id="g216"><path
             id="path218"
             style="fill:#333333;fill-opacity:1;fill-rule:nonzero;stroke:none"
             d="m 0,0 c 0,-0.552 -0.448,-1 -1,-1 -0.552,0 -1,0.448 -1,1 0,0.552 0.448,1 1,1 0.552,0 1,-0.448 1,-1" /></g><g
           transform="translate(174,39)"
           id="g220"><path
             id="path222"
             style="fill:#236f99;fill-opacity:1;fill-rule:nonzero;stroke:none"
             d="m 0,0 c 0,-0.552 -0.448,-1 -1,-1 -0.552,0 -1,0.448 -1,1 0,0.552 0.448,1 1,1 0.552,0 1,-0.448 1,-1" /></g><g
           transform="translate(174,43)"
           id="g224"><path
             id="path226"
             style="fill:#333333;fill-opacity:1;fill-rule:nonzero;stroke:none"
             d="m 0,0 c 0,-0.552 -0.448,-1 -1,-1 -0.552,0 -1,0.448 -1,1 0,0.552 0.448,1 1,1 0.552,0 1,-0.448 1,-1" /></g><g
           transform="translate(174,47)"
           id="g228"><path
             id="path230"
             style="fill:#236f99;fill-opacity:1;fill-rule:nonzero;stroke:none"
             d="m 0,0 c 0,-0.552 -0.448,-1 -1,-1 -0.552,0 -1,0.448 -1,1 0,0.552 0.448,1 1,1 0.552,0 1,-0.448 1,-1" /></g><g
           transform="translate(174,51)"
           id="g232"><path
             id="path234"
             style="fill:#333333;fill-opacity:1;fill-rule:nonzero;stroke:none"
             d="m 0,0 c 0,-0.552 -0.448,-1 -1,-1 -0.552,0 -1,0.448 -1,1 0,0.552 0.448,1 1,1 0.552,0 1,-0.448 1,-1" /></g><g
           transform="translate(174,55)"
           id="g236"><path
             id="path238"
             style="fill:#236f99;fill-opacity:1;fill-rule:nonzero;stroke:none"
             d="m 0,0 c 0,-0.552 -0.448,-1 -1,-1 -0.552,0 -1,0.448 -1,1 0,0.552 0.448,1 1,1 0.552,0 1,-0.448 1,-1" /></g><g
           transform="translate(178,27)"
           id="g240"><path
             id="path242"
             style="fill:#236f99;fill-opacity:1;fill-rule:nonzero;stroke:none"
             d="m 0,0 c 0,-0.552 -0.448,-1 -1,-1 -0.552,0 -1,0.448 -1,1 0,0.552 0.448,1 1,1 0.552,0 1,-0.448 1,-1" /></g><g
           transform="translate(178,31)"
           id="g244"><path
             id="path246"
             style="fill:#333333;fill-opacity:1;fill-rule:nonzero;stroke:none"
             d="m 0,0 c 0,-0.552 -0.448,-1 -1,-1 -0.552,0 -1,0.448 -1,1 0,0.552 0.448,1 1,1 0.552,0 1,-0.448 1,-1" /></g><g
           transform="translate(178,35)"
           id="g248"><path
             id="path250"
             style="fill:#236f99;fill-opacity:1;fill-rule:nonzero;stroke:none"
             d="m 0,0 c 0,-0.552 -0.448,-1 -1,-1 -0.552,0 -1,0.448 -1,1 0,0.552 0.448,1 1,1 0.552,0 1,-0.448 1,-1" /></g><g
           transform="translate(178,39)"
           id="g252"><path
             id="path254"
             style="fill:#333333;fill-opacity:1;fill-rule:nonzero;stroke:none"
             d="m 0,0 c 0,-0.552 -0.448,-1 -1,-1 -0.552,0 -1,0.448 -1,1 0,0.552 0.448,1 1,1 0.552,0 1,-0.448 1,-1" /></g><g
           transform="translate(178,43)"
           id="g256"><path
             id="path258"
             style="fill:#236f99;fill-opacity:1;fill-rule:nonzero;stroke:none"
             d="m 0,0 c 0,-0.552 -0.448,-1 -1,-1 -0.552,0 -1,0.448 -1,1 0,0.552 0.448,1 1,1 0.552,0 1,-0.448 1,-1" /></g><g
           transform="translate(178,47)"
           id="g260"><path
             id="path262"
             style="fill:#333333;fill-opacity:1;fill-rule:nonzero;stroke:none"
             d="m 0,0 c 0,-0.552 -0.448,-1 -1,-1 -0.552,0 -1,0.448 -1,1 0,0.552 0.448,1 1,1 0.552,0 1,-0.448 1,-1" /></g><g
           transform="translate(178,51)"
           id="g264"><path
             id="path266"
             style="fill:#236f99;fill-opacity:1;fill-rule:nonzero;stroke:none"
             d="m 0,0 c 0,-0.552 -0.448,-1 -1,-1 -0.552,0 -1,0.448 -1,1 0,0.552 0.448,1 1,1 0.552,0 1,-0.448 1,-1" /></g><g
           transform="translate(178,55)"
           id="g268"><path
             id="path270"
             style="fill:#333333;fill-opacity:1;fill-rule:nonzero;stroke:none"
             d="m 0,0 c 0,-0.552 -0.448,-1 -1,-1 -0.552,0 -1,0.448 -1,1 0,0.552 0.448,1 1,1 0.552,0 1,-0.448 1,-1" /></g><g
           transform="translate(182,27)"
           id="g272"><path
             id="path274"
             style="fill:#333333;fill-opacity:1;fill-rule:nonzero;stroke:none"
             d="m 0,0 c 0,-0.552 -0.448,-1 -1,-1 -0.552,0 -1,0.448 -1,1 0,0.552 0.448,1 1,1 0.552,0 1,-0.448 1,-1" /></g><g
           transform="translate(182,31)"
           id="g276"><path
             id="path278"
             style="fill:#236f99;fill-opacity:1;fill-rule:nonzero;stroke:none"
             d="m 0,0 c 0,-0.552 -0.448,-1 -1,-1 -0.552,0 -1,0.448 -1,1 0,0.552 0.448,1 1,1 0.552,0 1,-0.448 1,-1" /></g><g
           transform="translate(182,35)"
           id="g280"><path
             id="path282"
             style="fill:#333333;fill-opacity:1;fill-rule:nonzero;stroke:none"
             d="m 0,0 c 0,-0.552 -0.448,-1 -1,-1 -0.552,0 -1,0.448 -1,1 0,0.552 0.448,1 1,1 0.552,0 1,-0.448 1,-1" /></g><g
           transform="translate(182,39)"
           id="g284"><path
             id="path286"
             style="fill:#236f99;fill-opacity:1;fill-rule:nonzero;stroke:none"
             d="m 0,0 c 0,-0.552 -0.448,-1 -1,-1 -0.552,0 -1,0.448 -1,1 0,0.552 0.448,1 1,1 0.552,0 1,-0.448 1,-1" /></g><g
           transform="translate(182,43)"
           id="g288"><path
             id="path290"
             style="fill:#333333;fill-opacity:1;fill-rule:nonzero;stroke:none"
             d="m 0,0 c 0,-0.552 -0.448,-1 -1,-1 -0.552,0 -1,0.448 -1,1 0,0.552 0.448,1 1,1 0.552,0 1,-0.448 1,-1" /></g><g
           transform="translate(182,47)"
           id="g292"><path
             id="path294"
             style="fill:#236f99;fill-opacity:1;fill-rule:nonzero;stroke:none"
             d="m 0,0 c 0,-0.552 -0.448,-1 -1,-1 -0.552,0 -1,0.448 -1,1 0,0.552 0.448,1 1,1 0.552,0 1,-0.448 1,-1" /></g><g
           transform="translate(182,51)"
           id="g296"><path
             id="path298"
             style="fill:#333333;fill-opacity:1;fill-rule:nonzero;stroke:none"
             d="m 0,0 c 0,-0.552 -0.448,-1 -1,-1 -0.552,0 -1,0.448 -1,1 0,0.552 0.448,1 1,1 0.552,0 1,-0.448 1,-1" /></g><g
           transform="translate(186,31)"
           id="g300"><path
             id="path302"
             style="fill:#333333;fill-opacity:1;fill-rule:nonzero;stroke:none"
             d="m 0,0 c 0,-0.552 -0.448,-1 -1,-1 -0.552,0 -1,0.448 -1,1 0,0.552 0.448,1 1,1 0.552,0 1,-0.448 1,-1" /></g><g
           transform="translate(186,35)"
           id="g304"><path
             id="path306"
             style="fill:#236f99;fill-opacity:1;fill-rule:nonzero;stroke:none"
             d="m 0,0 c 0,-0.552 -0.448,-1 -1,-1 -0.552,0 -1,0.448 -1,1 0,0.552 0.448,1 1,1 0.552,0 1,-0.448 1,-1" /></g><g
           transform="translate(186,39)"
           id="g308"><path
             id="path310"
             style="fill:#333333;fill-opacity:1;fill-rule:nonzero;stroke:none"
             d="m 0,0 c 0,-0.552 -0.448,-1 -1,-1 -0.552,0 -1,0.448 -1,1 0,0.552 0.448,1 1,1 0.552,0 1,-0.448 1,-1" /></g><g
           transform="translate(186,43)"
           id="g312"><path
             id="path314"
             style="fill:#236f99;fill-opacity:1;fill-rule:nonzero;stroke:none"
             d="m 0,0 c 0,-0.552 -0.448,-1 -1,-1 -0.552,0 -1,0.448 -1,1 0,0.552 0.448,1 1,1 0.552,0 1,-0.448 1,-1" /></g><g
           transform="translate(186,47)"
           id="g316"><path
             id="path318"
             style="fill:#333333;fill-opacity:1;fill-rule:nonzero;stroke:none"
             d="m 0,0 c 0,-0.552 -0.448,-1 -1,-1 -0.552,0 -1,0.448 -1,1 0,0.552 0.448,1 1,1 0.552,0 1,-0.448 1,-1" /></g><g
           transform="translate(186,51)"
           id="g320"><path
             id="path322"
             style="fill:#236f99;fill-opacity:1;fill-rule:nonzero;stroke:none"
             d="m 0,0 c 0,-0.552 -0.448,-1 -1,-1 -0.552,0 -1,0.448 -1,1 0,0.552 0.448,1 1,1 0.552,0 1,-0.448 1,-1" /></g><g
           transform="translate(182,55)"
           id="g324"><path
             id="path326"
             style="fill:#236f99;fill-opacity:1;fill-rule:nonzero;stroke:none"
             d="m 0,0 c 0,-0.552 -0.448,-1 -1,-1 -0.552,0 -1,0.448 -1,1 0,0.552 0.448,1 1,1 0.552,0 1,-0.448 1,-1" /></g><g
           transform="translate(80,198)"
           id="g328"><path
             id="path330"
             style="fill:#ff0000;fill-opacity:1;fill-rule:nonzero;stroke:none"
             d="m 0,0 c 0,-1.105 -0.895,-2 -2,-2 -1.105,0 -2,0.895 -2,2 0,1.105 0.895,2 2,2 1.105,0 2,-0.895 2,-2" /></g><g
           transform="translate(90.1475,147.2911)"
           id="g332"><path
             id="path334"
             style="fill:#d9d9d9;fill-opacity:1;fill-rule:nonzero;stroke:none"
             d="M 0,0 0.156,0 C 0.68,0 1.285,0.09 1.392,0.702 1.499,1.313 0.925,1.403 0.401,1.403 l -0.156,0 L 0,0 Z m 2.989,-3.105 -1.999,0 -1.138,2.165 -0.016,0 -0.378,-2.165 -1.605,0 0.982,5.627 2.4,0 C 2.456,2.522 3.289,1.993 3.079,0.791 2.944,0.015 2.351,-0.657 1.45,-0.798 l 1.539,-2.307 z" /></g><g
           transform="translate(95.2619,148.5747)"
           id="g336"><path
             id="path338"
             style="fill:#d9d9d9;fill-opacity:1;fill-rule:nonzero;stroke:none"
             d="m 0,0 -0.164,-0.94 1.81,0 -0.216,-1.239 -1.811,0 -0.169,-0.97 1.909,0 -0.216,-1.239 -3.515,0 0.983,5.627 3.514,0 L 1.909,0 0,0 Z" /></g><g
           transform="translate(99.173,144.1866)"
           id="g340"><path
             id="path342"
             style="fill:#d9d9d9;fill-opacity:1;fill-rule:nonzero;stroke:none"
             d="m 0,0 -1.606,0 0.766,4.388 -1.327,0 0.217,1.239 4.259,0 -0.216,-1.239 -1.327,0 L 0,0 Z" /></g><g
           transform="translate(102.5485,147.2911)"
           id="g344"><path
             id="path346"
             style="fill:#d9d9d9;fill-opacity:1;fill-rule:nonzero;stroke:none"
             d="M 0,0 0.156,0 C 0.68,0 1.285,0.09 1.392,0.702 1.499,1.313 0.925,1.403 0.401,1.403 l -0.156,0 L 0,0 Z m 2.989,-3.105 -1.999,0 -1.138,2.165 -0.016,0 -0.378,-2.165 -1.605,0 0.982,5.627 2.4,0 C 2.456,2.522 3.289,1.993 3.079,0.791 2.944,0.015 2.351,-0.657 1.45,-0.798 l 1.539,-2.307 z" /></g><g
           transform="translate(107.1593,147.0969)"
           id="g348"><path
             id="path350"
             style="fill:#d9d9d9;fill-opacity:1;fill-rule:nonzero;stroke:none"
             d="M 0,0 C -0.169,-0.97 0.493,-1.679 1.452,-1.679 2.41,-1.679 3.32,-0.97 3.49,0 3.625,0.776 2.963,1.485 2.004,1.485 1.046,1.485 0.135,0.776 0,0 M 5.162,0.008 C 4.844,-1.813 3.187,-3.097 1.204,-3.097 c -1.982,0 -3.192,1.284 -2.874,3.105 0.297,1.701 2.144,2.895 3.922,2.895 1.777,0 3.207,-1.194 2.91,-2.895" /></g><g
           transform="translate(116.8919,147.6046)"
           id="g352"><path
             id="path354"
             style="fill:#d9d9d9;fill-opacity:1;fill-rule:nonzero;stroke:none"
             d="M 0,0 0.18,0 C 0.606,0 1.061,0.067 1.144,0.545 1.234,1.059 0.739,1.09 0.305,1.09 L 0.19,1.09 0,0 Z m -0.401,-2.299 0.205,0 c 0.475,0 1.274,-0.022 1.382,0.597 0.118,0.68 -0.688,0.612 -1.212,0.612 l -0.164,0 -0.211,-1.209 z m -1.801,-1.119 0.982,5.627 2.294,0 C 2.172,2.209 2.841,1.821 2.653,0.746 2.565,0.239 2.313,-0.172 1.773,-0.403 L 1.77,-0.418 C 2.637,-0.523 2.918,-1.067 2.781,-1.851 2.576,-3.03 1.402,-3.418 0.271,-3.418 l -2.473,0 z" /></g><g
           transform="translate(121.423,147.0969)"
           id="g356"><path
             id="path358"
             style="fill:#d9d9d9;fill-opacity:1;fill-rule:nonzero;stroke:none"
             d="M 0,0 C -0.169,-0.97 0.494,-1.679 1.452,-1.679 2.411,-1.679 3.32,-0.97 3.49,0 3.625,0.776 2.963,1.485 2.004,1.485 1.046,1.485 0.136,0.776 0,0 M 5.163,0.008 C 4.845,-1.813 3.187,-3.097 1.205,-3.097 c -1.983,0 -3.193,1.284 -2.875,3.105 0.297,1.701 2.144,2.895 3.922,2.895 1.777,0 3.208,-1.194 2.911,-2.895" /></g><g
           transform="translate(125.8394,149.8134)"
           id="g360"><path
             id="path362"
             style="fill:#d9d9d9;fill-opacity:1;fill-rule:nonzero;stroke:none"
             d="M 0,0 1.925,0 2.814,-1.53 4.236,0 6.161,0 3.372,-2.925 2.901,-5.627 l -1.606,0 0.472,2.702 L 0,0 Z" /></g><g
           transform="translate(163.2363,149.8239)"
           id="g364"><path
             id="path366"
             style="fill:#b80000;fill-opacity:1;fill-rule:nonzero;stroke:none"
             d="m 0,0 c 0.07,-0.98 0.072,-0.985 0.9,-0.674 0.24,0.089 0.475,0.198 0.701,0.32 0.19,0.103 0.437,0.25 0.416,0.473 C 1.99,0.409 1.686,0.426 1.46,0.464 1.168,0.513 0.873,0.54 0.578,0.571 0.138,0.619 -0.228,0.585 0,0 m -2.273,-0.244 c 0.016,0.061 0.053,0.127 0.045,0.184 -0.248,1.653 0.551,2.701 2.159,2.847 C 1.215,2.904 2.38,2.577 3.428,1.768 4.028,1.305 4.195,0.814 4.025,0.051 3.858,-0.701 3.436,-1.258 2.877,-1.706 2.539,-1.977 2.173,-2.209 1.769,-2.495 2.789,-3.409 3.776,-4.293 4.764,-5.178 l 0,-0.549 C 4.563,-6.243 4.212,-6.598 3.74,-6.824 l -0.512,0 c -1.02,0.927 -2.04,1.853 -3.205,2.912 0,-0.705 0.029,-1.18 -0.008,-1.648 -0.038,-0.473 -0.203,-0.907 -0.712,-0.999 -0.556,-0.1 -1.015,0.101 -1.289,0.645 -0.2,0.398 -0.21,0.829 -0.055,1.256 0.142,0.389 0.195,0.788 0.128,1.201 -0.068,1.025 -0.063,2.056 -0.258,3.068 -0.003,0.078 0.029,0.185 -0.108,0.158 l 0.006,-0.013 z" /></g><g
           transform="translate(136,147.0931)"
           id="g368"><path
             id="path370"
             style="fill:#3096cf;fill-opacity:1;fill-rule:nonzero;stroke:none"
             d="M 0,0 C 0,0.565 0.121,1.123 0.353,1.631 0.714,2.421 1.103,3.194 1.638,3.878 2.373,4.818 3.156,5.672 4.361,5.87 5.061,5.984 5.724,5.829 6.335,5.485 6.997,5.112 7.236,4.233 6.924,3.539 6.748,3.15 6.449,2.955 6.067,2.925 5.68,2.895 5.309,3.037 5.164,3.43 4.977,3.94 4.692,3.969 4.32,3.746 2.902,2.895 2.095,1.583 1.946,-0.139 1.867,-1.047 2.369,-1.625 3.225,-1.799 4.243,-2.007 5.256,-1.789 6.271,-1.739 6.669,-1.936 6.964,-2.227 7.048,-2.711 6.924,-3.273 6.702,-3.784 6.101,-3.836 5.257,-3.909 4.406,-3.952 3.56,-3.923 1.966,-3.867 0.732,-3.192 0.198,-1.451 0.195,-1.439 0.191,-1.427 0.187,-1.416 0.071,-1.061 0,-0.691 0,-0.315 L 0,0 Z" /></g><g
           transform="translate(147.6757,147.221)"
           id="g372"><path
             id="path374"
             style="fill:#ffff03;fill-opacity:1;fill-rule:nonzero;stroke:none"
             d="M 0,0 C 0.009,1.217 -0.529,2.098 -1.282,2.098 -2.417,2.1 -3.457,1.098 -3.48,-0.018 -3.499,-0.981 -2.768,-1.741 -1.802,-1.761 -0.784,-1.783 -0.008,-1.024 0,0 m 1.933,-0.787 c -1.149,-2.399 -3.058,-3.408 -5.195,-2.766 -0.5,0.151 -0.916,0.464 -1.366,0.714 -0.084,0.485 -0.379,0.775 -0.776,0.972 -0.416,2.447 0.47,4.524 2.37,5.557 1.6,0.87 3.413,0.377 4.442,-1.211 C 1.541,2.275 1.666,2.064 1.794,1.857 1.84,0.975 1.887,0.094 1.933,-0.787" /></g><g
           transform="translate(157.7674,149.1432)"
           id="g376"><path
             id="path378"
             style="fill:#4b5da7;fill-opacity:1;fill-rule:nonzero;stroke:none"
             d="m 0,0 c -1.109,0.014 -2.077,-0.847 -2.029,-1.804 0.049,-0.96 0.844,-1.731 1.751,-1.699 1.13,0.041 2.065,0.989 2.054,2.084 C 1.767,-0.567 1.074,-0.014 0,0 M 3.556,-2.776 C 2.565,-4.586 1.09,-5.528 -0.867,-5.6 c -0.828,-0.03 -1.536,0.269 -2.112,0.913 0.275,1.052 -0.02,1.613 -0.974,1.855 -0.051,2.499 0.932,4.161 2.888,4.695 C 0.598,2.317 2.041,1.822 3.196,0.437 L 3.19,0.449 C 3.226,0.397 3.262,0.344 3.298,0.292 3.492,-0.72 3.488,-1.752 3.556,-2.776" /></g><g
           transform="translate(153.8147,146.311)"
           id="g380"><path
             id="path382"
             style="fill:#16a085;fill-opacity:1;fill-rule:nonzero;stroke:none"
             d="M 0,0 C 0.954,-0.241 1.249,-0.803 0.974,-1.855 0.868,-1.93 0.77,-2.049 0.654,-2.072 c -1.186,-0.245 -2.321,-0.7 -3.493,-0.983 -0.699,-0.168 -0.974,0.121 -1.086,0.882 -0.112,0.762 -0.189,1.53 -0.281,2.295 -0.046,0.882 -0.093,1.763 -0.139,2.645 0.077,0.662 -0.167,1.251 -0.365,1.852 -0.106,0.319 -0.222,0.633 -0.116,0.996 0.249,0.853 1.038,1.108 1.648,0.501 0.532,-0.532 0.699,-1.24 0.731,-1.984 0.057,-1.299 0.109,-2.598 0.126,-3.898 0.008,-0.59 0.15,-0.795 0.709,-0.534 C -1.106,-0.063 -0.569,0.098 0,0" /></g></g></g></g></svg>