<?xml version="1.0" encoding="UTF-8" standalone="no"?>
<svg
   xmlns:dc="http://purl.org/dc/elements/1.1/"
   xmlns:cc="http://creativecommons.org/ns#"
   xmlns:rdf="http://www.w3.org/1999/02/22-rdf-syntax-ns#"
   xmlns:svg="http://www.w3.org/2000/svg"
   xmlns="http://www.w3.org/2000/svg"
   viewBox="0 0 298.66665 330.66665"
   height="330.66666"
   width="298.66666"
   xml:space="preserve"
   id="svg2"
   version="1.1"><metadata
     id="metadata8"><rdf:RDF><cc:Work
         rdf:about=""><dc:format>image/svg+xml</dc:format><dc:type
           rdf:resource="http://purl.org/dc/dcmitype/StillImage" /></cc:Work></rdf:RDF></metadata><defs
     id="defs6"><clipPath
       id="clipPath18"
       clipPathUnits="userSpaceOnUse"><path
         id="path16"
         d="M 0,256 H 256 V 0 H 0 Z" /></clipPath><clipPath
       id="clipPath26"
       clipPathUnits="userSpaceOnUse"><path
         id="path24"
         d="M 16,252 H 240 V 4 H 16 Z" /></clipPath></defs><g
     transform="matrix(1.3333333,0,0,-1.3333333,-21.333333,335.99999)"
     id="g10"><g
       id="g12"><g
         clip-path="url(#clipPath18)"
         id="g14"><g
           id="g20"><g
             id="g22" /><g
             id="g34"><g
               style="opacity:0.5"
               id="g32"
               clip-path="url(#clipPath26)"><g
                 id="g30"
                 transform="translate(208,252)"><path
                   id="path28"
                   style="fill:#ffffff;fill-opacity:1;fill-rule:nonzero;stroke:none"
                   d="m 0,0 h -180 c -6.617,0 -12,-5.383 -12,-12 v -14 c 0,-1.267 0.237,-2.48 0.668,-3.596 -0.43,-1.051 -0.668,-2.2 -0.668,-3.404 v -2 c 0,-1.051 0.181,-2.061 0.514,-3 -0.333,-0.939 -0.514,-1.949 -0.514,-3 v -2 c 0,-1.051 0.181,-2.061 0.514,-3 -0.333,-0.939 -0.514,-1.949 -0.514,-3 v -2 c 0,-1.051 0.181,-2.061 0.514,-3 -0.333,-0.939 -0.514,-1.949 -0.514,-3 v -2 c 0,-0.894 0.131,-1.758 0.375,-2.573 C -191.869,-62.339 -192,-63.154 -192,-64 v -174 c 0,-5.514 4.486,-10 10,-10 h 2 200 2 c 5.514,0 10,4.486 10,10 v 173 c 0,1.051 -0.181,2.061 -0.514,3 0.333,0.939 0.514,1.949 0.514,3 v 2 c 0,1.051 -0.181,2.061 -0.514,3 0.333,0.939 0.514,1.949 0.514,3 v 2 c 0,1.051 -0.181,2.061 -0.514,3 0.333,0.939 0.514,1.949 0.514,3 v 2 c 0,1.051 -0.181,2.061 -0.514,3 0.333,0.939 0.514,1.949 0.514,3 v 2 c 0,1.204 -0.238,2.353 -0.668,3.404 C 31.763,-28.48 32,-27.267 32,-26 v 4 c 0,5.514 -4.486,10 -10,10 H 12 C 12,-5.383 6.617,0 0,0" /></g></g></g></g><g
           transform="translate(232,226)"
           id="g36"><path
             id="path38"
             style="fill:#808080;fill-opacity:1;fill-rule:nonzero;stroke:none"
             d="m 0,0 v 4 c 0,1.105 -0.895,2 -2,2 h -18 v 8 c 0,2.209 -1.791,4 -4,4 h -180 c -2.209,0 -4,-1.791 -4,-4 V 0 c 0,-1.105 0.895,-2 2,-2 h 2 v -4 h -3 c -0.552,0 -1,-0.448 -1,-1 v -2 c 0,-0.552 0.448,-1 1,-1 h 3 v -4 h -3 c -0.552,0 -1,-0.448 -1,-1 v -2 c 0,-0.552 0.448,-1 1,-1 h 3 v -4 h -3 c -0.552,0 -1,-0.448 -1,-1 v -2 c 0,-0.552 0.448,-1 1,-1 h 3 v -4 h -3 c -0.552,0 -1,-0.448 -1,-1 v -2 c 0,-0.552 0.448,-1 1,-1 h 3 v -4 h -4 v -174 c 0,-1.105 0.895,-2 2,-2 h 2 200 2 c 1.105,0 2,0.895 2,2 v 173 c 0,0.552 -0.448,1 -1,1 h -3 v 4 h 3 c 0.552,0 1,0.448 1,1 v 2 c 0,0.552 -0.448,1 -1,1 h -3 v 4 h 3 c 0.552,0 1,0.448 1,1 v 2 c 0,0.552 -0.448,1 -1,1 h -3 v 4 h 3 c 0.552,0 1,0.448 1,1 v 2 c 0,0.552 -0.448,1 -1,1 h -3 v 4 h 3 c 0.552,0 1,0.448 1,1 v 2 c 0,0.552 -0.448,1 -1,1 h -3 v 4 h 2 c 1.105,0 2,0.895 2,2" /></g><g
           transform="translate(68.9524,226)"
           id="g40"><path
             id="path42"
             style="fill:#737373;fill-opacity:1;fill-rule:nonzero;stroke:none"
             d="m 0,0 h 118.095 c 11.572,0 20.953,-8.954 20.953,-20 0,-11.046 -9.381,-20 -20.953,-20 H 0 c -11.572,0 -20.952,8.954 -20.952,20 0,11.046 9.38,20 20.952,20" /></g><g
           transform="translate(141.5791,29.4724)"
           id="g44"><path
             id="path46"
             style="fill:#737373;fill-opacity:1;fill-rule:nonzero;stroke:none"
             d="m 0,0 -12.57,-13.039 c -0.557,-0.578 -1.461,-0.578 -2.018,0 L -27.158,0 c -0.899,0.933 -0.262,2.528 1.009,2.528 h 25.14 C 0.262,2.528 0.899,0.933 0,0" /></g><g
           transform="translate(204.1905,182)"
           id="g48"><path
             id="path50"
             style="fill:#737373;fill-opacity:1;fill-rule:nonzero;stroke:none"
             d="m 0,0 h -152.381 c -3.203,0 -5.809,-2.597 -5.809,-5.789 v -136.422 c 0,-3.192 2.606,-5.789 5.809,-5.789 L 0,-148 c 3.203,0 5.81,2.597 5.81,5.789 V -5.789 C 5.81,-2.597 3.203,0 0,0" /></g><g
           transform="translate(51.8095,180)"
           id="g52"><path
             id="path54"
             style="fill:#b3b3b3;fill-opacity:1;fill-rule:nonzero;stroke:none"
             d="m 0,0 h 152.381 c 2.104,0 3.809,-1.697 3.809,-3.789 v -136.422 c 0,-2.092 -1.705,-3.789 -3.809,-3.789 L 0,-144 c -2.104,0 -3.81,1.697 -3.81,3.789 V -3.789 C -3.81,-1.697 -2.104,0 0,0" /></g><path
           id="path56"
           style="fill:#050050;fill-opacity:1;fill-rule:nonzero;stroke:none"
           d="M 191.967,36 H 64.033 v 144 h 127.934 z" /><g
           transform="translate(89.8339,207.0585)"
           id="g58"><path
             id="path60"
             style="fill:#808080;fill-opacity:1;fill-rule:nonzero;stroke:none"
             d="M 0,0 H 2.355 V -1.038 H 3.628 V -1.803 H 2.355 L 2.357,-6.926 H -0.002 L 0,-1.803 h -1.279 v 0.763 h 1.281 z" /></g><path
           id="path62"
           style="fill:#808080;fill-opacity:1;fill-rule:nonzero;stroke:none"
           d="m 62.253,205.265 h 2.353 v -5.133 h -2.353 z" /><path
           id="path64"
           style="fill:#808080;fill-opacity:1;fill-rule:nonzero;stroke:none"
           d="m 62.248,207.854 h 2.358 v -1.578 h -2.358 z" /><g
           transform="translate(105.5068,202.9152)"
           id="g66"><path
             id="path68"
             style="fill:#808080;fill-opacity:1;fill-rule:nonzero;stroke:none"
             d="m 0,0 v 0.001 c 0,-0.016 -0.002,-0.778 -0.002,-1.085 0,-0.819 -0.49,-1.156 -0.962,-1.156 -0.471,0 -0.963,0.337 -0.963,1.156 v 1.105 c 0,0 0.002,0.761 0.002,1.071 0,0.815 0.492,1.15 0.961,1.15 0.47,0 0.962,-0.335 0.962,-1.15 0,-0.31 0,-0.885 0.002,-1.091 v 0.001 z m -0.945,2.878 c -1.9,0 -3.44,-1.291 -3.44,-2.882 0,-1.593 1.54,-2.883 3.44,-2.883 1.9,0 3.438,1.29 3.438,2.883 0,1.591 -1.538,2.882 -3.438,2.882" /></g><g
           transform="translate(68.3175,203.6574)"
           id="g70"><path
             id="path72"
             style="fill:#808080;fill-opacity:1;fill-rule:nonzero;stroke:none"
             d="m 0,0 c 0,0.796 0.556,0.998 0.922,0.998 0.374,0 0.923,-0.202 0.923,-0.998 0,-0.262 -0.002,-0.913 -0.002,-0.913 0,0 0.002,-0.641 0.002,-0.915 0,-0.792 -0.549,-1 -0.922,-1 -0.367,0 -0.923,0.208 -0.923,1 v 0.911 z m -2.306,4.211 v -7.72 h 2.327 c 0,0 0.002,0.25 0.002,0.296 0.9,-0.556 1.916,-0.555 2.708,-0.192 0.211,0.098 1.609,0.758 1.609,2.546 0,1.354 -1.296,2.835 -2.991,2.687 C 0.791,1.78 0.392,1.579 0.018,1.37 v 2.841 z" /></g><g
           transform="translate(84.1783,204.6873)"
           id="g74"><path
             id="path76"
             style="fill:#808080;fill-opacity:1;fill-rule:nonzero;stroke:none"
             d="M 0,0 C 0.183,0.316 0.521,0.468 0.827,0.468 H 0.826 0.828 0.827 C 1.135,0.468 1.472,0.316 1.656,0 1.804,-0.256 1.812,-0.557 1.808,-1.007 H -0.156 C -0.16,-0.557 -0.15,-0.256 0,0 m 1.802,-2.866 c 0,-0.94 -0.627,-1.148 -0.974,-1.148 -0.348,0 -0.984,0.208 -0.984,1.148 0,0.281 0.002,1.059 0.002,1.059 h 4.432 c 0,1.593 -1.558,2.913 -3.472,2.913 -1.913,0 -3.465,-1.291 -3.465,-2.884 0,-1.591 1.552,-2.881 3.465,-2.881 1.588,0 2.929,0.893 3.339,2.105 L 1.8,-2.556 c 0,0 0.002,-0.021 0.002,-0.31" /></g><g
           transform="translate(58.3565,200.8948)"
           id="g78"><path
             id="path80"
             style="fill:#808080;fill-opacity:1;fill-rule:nonzero;stroke:none"
             d="M 0,0 V 6.994 H -2.357 V 0 -0.763 H 0 2.55 V 0 Z" /></g><g
           transform="translate(98.3964,203.3863)"
           id="g82"><path
             id="path84"
             style="fill:#808080;fill-opacity:1;fill-rule:nonzero;stroke:none"
             d="M 0,0 H 2.306 C 2.068,1.657 0.495,2.137 -0.314,2.116 -1.091,2.093 -1.74,1.763 -2.191,1.34 c -0.002,0.127 0,0.541 0,0.541 L -4.526,1.879 -4.528,-3.254 h 2.337 c 0,0 -0.002,3.153 -0.002,3.371 0,0.446 0.477,0.945 1.117,0.945 C -0.435,1.062 0,0.563 0,0.117 Z" /></g><g
           transform="translate(76.3593,205.2594)"
           id="g86"><path
             id="path88"
             style="fill:#808080;fill-opacity:1;fill-rule:nonzero;stroke:none"
             d="m 0,0 v 0.911 c 0,0.792 0.556,1 0.923,1 0.373,0 0.922,-0.208 0.922,-1 0,-0.273 -0.002,-0.915 -0.002,-0.915 0,0 0.002,-0.651 0.002,-0.913 0,-0.795 -0.549,-0.998 -0.923,-0.998 C 0.556,-1.915 0,-1.712 0,-0.917 Z M 4.34,-0.058 C 4.34,1.73 2.942,2.39 2.731,2.489 1.939,2.851 0.923,2.853 0.023,2.296 c 0,0.046 -0.002,0.297 -0.002,0.297 h -2.327 v -7.72 h 2.324 v 2.841 c 0.009,-0.006 0.02,-0.011 0.03,-0.017 L 1.87,-5.127 h 2.305 l -1.644,2.549 c 1.08,0.417 1.809,1.504 1.809,2.52" /></g><g
           transform="translate(114.5544,206.3052)"
           id="g90"><path
             id="path92"
             style="fill:#808080;fill-opacity:1;fill-rule:nonzero;stroke:none"
             d="M 0,0 H 0.487 C 2.046,0 3.781,0.275 4.091,2.107 4.396,3.908 2.621,4.168 1.111,4.168 H 0.705 Z m 5.063,-6.061 h -1.85 l -2.781,4.87 h -0.634 l -0.823,-4.87 h -1.527 l 1.948,11.512 h 1.851 c 1.088,0 2.254,-0.015 3.14,-0.535 C 5.315,4.352 5.716,3.268 5.53,2.168 5.251,0.519 3.85,-0.855 2.047,-1.054 Z" /></g><g
           transform="translate(122.7715,211.7557)"
           id="g94"><path
             id="path96"
             style="fill:#808080;fill-opacity:1;fill-rule:nonzero;stroke:none"
             d="M 0,0 H 6.576 L 6.354,-1.313 H 1.304 L 0.76,-4.534 H 5.662 L 5.44,-5.847 H 0.537 l -0.736,-4.352 h 5.05 l -0.223,-1.312 h -6.575 z" /></g><g
           transform="translate(132.5844,200.2443)"
           id="g98"><path
             id="path100"
             style="fill:#808080;fill-opacity:1;fill-rule:nonzero;stroke:none"
             d="m 0,0 h -1.526 l 1.724,10.199 h -2.906 l 0.222,1.312 H 4.853 L 4.631,10.199 H 1.725 Z" /></g><g
           transform="translate(139.2468,206.3052)"
           id="g102"><path
             id="path104"
             style="fill:#808080;fill-opacity:1;fill-rule:nonzero;stroke:none"
             d="M 0,0 H 0.487 C 2.046,0 3.781,0.275 4.091,2.107 4.396,3.908 2.621,4.168 1.111,4.168 H 0.705 Z m 5.063,-6.061 h -1.85 l -2.781,4.87 h -0.634 l -0.823,-4.87 h -1.526 l 1.947,11.512 h 1.851 c 1.088,0 2.254,-0.015 3.14,-0.535 C 5.315,4.352 5.716,3.268 5.53,2.168 5.251,0.519 3.85,-0.855 2.047,-1.054 Z" /></g><g
           transform="translate(156.9304,206)"
           id="g106"><path
             id="path108"
             style="fill:#808080;fill-opacity:1;fill-rule:nonzero;stroke:none"
             d="m 0,0 c 0.428,2.534 -1.226,4.657 -4.1,4.657 -2.874,0 -5.246,-2.123 -5.675,-4.657 -0.444,-2.626 1.453,-4.657 4.1,-4.657 2.647,0 5.231,2.031 5.675,4.657 m 1.526,0 c -0.578,-3.42 -3.888,-6 -7.428,-6 -3.539,0 -5.977,2.58 -5.399,6 0.558,3.298 3.921,6 7.429,6 3.506,0 5.956,-2.702 5.398,-6" /></g><g
           transform="translate(166.1431,206.6564)"
           id="g110"><path
             id="path112"
             style="fill:#808080;fill-opacity:1;fill-rule:nonzero;stroke:none"
             d="M 0,0 H 0.39 C 1.835,0 3.066,0.275 3.345,1.924 3.619,3.542 2.497,3.817 1.068,3.817 H 0.646 Z m -0.867,-5.13 h 1.168 c 1.413,0 2.958,0.397 3.234,2.031 0.274,1.618 -1.423,1.954 -2.787,1.954 H -0.193 Z M -0.664,5.099 H 0.83 c 2.306,0 4.386,-0.565 3.947,-3.16 C 4.635,1.1 3.983,0.122 3.093,-0.244 L 3.088,-0.275 C 4.491,-0.519 5.273,-1.847 5.046,-3.191 4.656,-5.496 2.407,-6.412 0.247,-6.412 H -2.61 Z" /></g><g
           transform="translate(183.7672,206)"
           id="g114"><path
             id="path116"
             style="fill:#808080;fill-opacity:1;fill-rule:nonzero;stroke:none"
             d="m 0,0 c 0.428,2.534 -1.226,4.657 -4.1,4.657 -2.874,0 -5.246,-2.123 -5.675,-4.657 -0.444,-2.626 1.453,-4.657 4.101,-4.657 2.645,0 5.23,2.031 5.674,4.657 m 1.526,0 c -0.578,-3.42 -3.888,-6 -7.428,-6 -3.539,0 -5.977,2.58 -5.399,6 0.558,3.298 3.921,6 7.429,6 3.507,0 5.956,-2.702 5.398,-6" /></g><g
           transform="translate(186.4853,211.7557)"
           id="g118"><path
             id="path120"
             style="fill:#808080;fill-opacity:1;fill-rule:nonzero;stroke:none"
             d="M 0,0 H 1.753 L 3.925,-4.916 7.76,0 H 9.515 L 4.421,-6.504 3.573,-11.511 H 2.048 l 0.846,5.007 z" /></g><path
           id="path122"
           style="fill:#b3b3b3;fill-opacity:1;fill-rule:nonzero;stroke:none"
           d="m 188,108 h -24 v 28 h 24 z" /><path
           id="path124"
           style="fill:#191919;fill-opacity:1;fill-rule:nonzero;stroke:none"
           d="m 186,116 h -20 v 16 h 20 z" /><g
           transform="translate(175.9873,53.8581)"
           id="g126"><path
             id="path128"
             style="fill:#ffffff;fill-opacity:1;fill-rule:nonzero;stroke:none"
             d="m 0,0 c 5.356,0 9.698,-2.623 9.698,-5.858 0,-3.235 -4.342,-5.858 -9.698,-5.858 -5.356,0 -9.698,2.623 -9.698,5.858 C -9.698,-2.623 -5.356,0 0,0" /></g><g
           transform="translate(185.685,48.0433)"
           id="g130"><path
             id="path132"
             style="fill:#a3834a;fill-opacity:1;fill-rule:nonzero;stroke:none"
             d="m 0,0 c 0,3.235 -4.342,5.858 -9.698,5.858 -5.355,0 -9.697,-2.623 -9.697,-5.858 0,-3.235 4.342,-5.858 9.697,-5.858 C -4.342,-5.858 0,-3.235 0,0 m 1.155,-0.004 1.16,-1.077 -1.657,-0.863 0.466,-1.668 -1.784,-0.043 -0.122,-1.817 -1.988,0.475 -0.335,-1.714 -1.839,0.633 -0.959,-1.511 -1.437,1.078 -1.252,-1.532 -1.38,1.3 -1.507,-1.214 -0.985,1.43 -1.777,-0.908 -0.614,1.601 -2.058,-0.703 -0.303,1.578 -1.841,-0.1 0.275,1.607 -1.883,0.007 0.44,1.755 -1.46,0.712 1.162,1.145 -1.043,1.592 1.697,0.466 -0.446,1.703 1.861,0.022 0.216,1.689 1.683,-0.484 0.558,1.646 1.7,-0.798 0.704,1.457 1.473,-0.888 1.035,1.385 1.392,-1.206 1.229,1.102 1.078,-1.39 1.684,0.939 0.667,-1.534 1.693,0.694 0.435,-1.6 2.006,0.309 L -0.962,3.705 1.065,3.515 0.49,2.002 2.256,1.346 Z" /></g><g
           transform="translate(167.1235,47.9999)"
           id="g134"><path
             id="path136"
             style="fill:#a3834a;fill-opacity:1;fill-rule:nonzero;stroke:none"
             d="m 0,0 c 0,2.856 3.976,5.179 8.864,5.179 4.887,0 8.864,-2.323 8.864,-5.179 0,-2.856 -3.977,-5.179 -8.864,-5.179 C 3.976,-5.179 0,-2.856 0,0 m 8.864,-5.373 c 5.011,0 9.087,2.41 9.087,5.373 0,2.963 -4.076,5.373 -9.087,5.373 -5.011,0 -9.088,-2.41 -9.088,-5.373 0,-2.963 4.077,-5.373 9.088,-5.373" /></g><g
           transform="translate(181.6127,46.7601)"
           id="g138"><path
             id="path140"
             style="fill:#a3834a;fill-opacity:1;fill-rule:nonzero;stroke:none"
             d="m 0,0 h -11.348 c -0.958,-0.003 -1.54,0.555 -1.54,1.239 0,0.685 0.586,1.238 1.54,1.24 H 0 C 0.955,2.477 1.54,1.924 1.54,1.239 1.54,0.555 0.958,-0.003 0,0 m 0.005,2.883 h -11.358 c -1.202,0.002 -2.01,-0.747 -2.01,-1.646 0,-0.899 0.806,-1.639 2.011,-1.64 H 0.004 c 1.205,0.001 2.011,0.741 2.011,1.64 0,0.899 -0.807,1.648 -2.01,1.646" /></g><g
           transform="translate(177.7243,48.6128)"
           id="g142"><path
             id="path144"
             style="fill:#a3834a;fill-opacity:1;fill-rule:nonzero;stroke:none"
             d="m 0,0 h 0.537 v -0.208 h 0.29 V -0.361 H 0.537 V -1.388 H 0 v 1.027 h -0.291 v 0.153 H 0 Z" /></g><path
           id="path146"
           style="fill:#a3834a;fill-opacity:1;fill-rule:nonzero;stroke:none"
           d="m 171.439,48.253 h 0.536 v -1.028 h -0.536 z" /><path
           id="path148"
           style="fill:#a3834a;fill-opacity:1;fill-rule:nonzero;stroke:none"
           d="m 171.437,48.772 h 0.537 v -0.316 h -0.537 z" /><g
           transform="translate(181.2962,47.7827)"
           id="g150"><path
             id="path152"
             style="fill:#a3834a;fill-opacity:1;fill-rule:nonzero;stroke:none"
             d="m 0,0 v 0 c 0,-0.003 0,-0.156 0,-0.217 0,-0.164 -0.112,-0.232 -0.22,-0.232 -0.107,0 -0.219,0.068 -0.219,0.232 v 0.221 c 0,0 0,0.153 0,0.215 0,0.163 0.112,0.23 0.219,0.23 C -0.113,0.449 0,0.382 0,0.219 0,0.157 0,0.041 0,0 Z m -0.215,0.577 c -0.433,0 -0.784,-0.259 -0.784,-0.578 0,-0.319 0.351,-0.577 0.784,-0.577 0.433,0 0.783,0.258 0.783,0.577 0,0.319 -0.35,0.578 -0.783,0.578" /></g><g
           transform="translate(172.8206,47.9314)"
           id="g154"><path
             id="path156"
             style="fill:#a3834a;fill-opacity:1;fill-rule:nonzero;stroke:none"
             d="m 0,0 c 0,0.159 0.127,0.2 0.21,0.2 0.085,0 0.21,-0.041 0.21,-0.2 0,-0.052 0,-0.183 0,-0.183 0,0 0,-0.128 0,-0.183 0,-0.159 -0.125,-0.2 -0.21,-0.2 -0.083,0 -0.21,0.041 -0.21,0.2 v 0.182 z m -0.525,0.844 v -1.547 h 0.53 c 0,0 0,0.05 0,0.059 0.205,-0.111 0.437,-0.111 0.617,-0.038 0.049,0.019 0.367,0.152 0.367,0.51 0,0.271 -0.295,0.568 -0.682,0.538 C 0.18,0.357 0.089,0.316 0.004,0.274 v 0.57 z" /></g><g
           transform="translate(176.4353,48.1377)"
           id="g158"><path
             id="path160"
             style="fill:#a3834a;fill-opacity:1;fill-rule:nonzero;stroke:none"
             d="m 0,0 c 0.042,0.063 0.119,0.094 0.188,0.094 v 0 H 0.189 0.188 C 0.259,0.094 0.336,0.063 0.377,0 0.411,-0.051 0.413,-0.112 0.412,-0.202 h -0.448 c 0,0.09 0.002,0.151 0.036,0.202 m 0.411,-0.574 c 0,-0.189 -0.143,-0.23 -0.222,-0.23 -0.08,0 -0.225,0.041 -0.225,0.23 0,0.056 10e-4,0.212 10e-4,0.212 h 1.01 c 0,0.319 -0.355,0.584 -0.791,0.584 -0.436,0 -0.79,-0.259 -0.79,-0.578 0,-0.319 0.354,-0.577 0.79,-0.577 0.362,0 0.667,0.179 0.761,0.421 H 0.41 c 0,0 0.001,-0.004 0.001,-0.062" /></g><g
           transform="translate(170.5505,47.3779)"
           id="g162"><path
             id="path164"
             style="fill:#a3834a;fill-opacity:1;fill-rule:nonzero;stroke:none"
             d="M 0,0 V 1.401 H -0.537 V 0 -0.153 H 0 0.581 V 0 Z" /></g><g
           transform="translate(179.6757,47.877)"
           id="g166"><path
             id="path168"
             style="fill:#a3834a;fill-opacity:1;fill-rule:nonzero;stroke:none"
             d="M 0,0 H 0.525 C 0.471,0.332 0.113,0.428 -0.072,0.424 -0.249,0.419 -0.396,0.353 -0.499,0.268 c -0.001,0.026 0,0.109 0,0.109 L -1.031,0.376 -1.032,-0.652 h 0.533 c 0,0 -0.001,0.632 -0.001,0.675 0,0.09 0.109,0.19 0.255,0.19 0.146,0 0.245,-0.1 0.245,-0.19 z" /></g><g
           transform="translate(174.6534,48.2523)"
           id="g170"><path
             id="path172"
             style="fill:#a3834a;fill-opacity:1;fill-rule:nonzero;stroke:none"
             d="m 0,0 v 0.183 c 0,0.158 0.127,0.2 0.21,0.2 0.085,0 0.21,-0.042 0.21,-0.2 0,-0.055 0,-0.184 0,-0.184 0,0 0,-0.13 0,-0.183 0,-0.159 -0.125,-0.2 -0.21,-0.2 -0.083,0 -0.21,0.041 -0.21,0.2 z M 0.989,-0.012 C 0.989,0.347 0.671,0.479 0.622,0.499 0.442,0.571 0.21,0.572 0.005,0.46 c 0,0.009 0,0.059 0,0.059 h -0.53 v -1.546 h 0.529 v 0.569 C 0.006,-0.459 0.009,-0.46 0.011,-0.461 l 0.415,-0.566 h 0.526 l -0.375,0.51 c 0.246,0.084 0.412,0.302 0.412,0.505" /></g><g
           transform="translate(73.4911,65.829)"
           id="g174"><path
             id="path176"
             style="fill:#7d0946;fill-opacity:1;fill-rule:nonzero;stroke:none"
             d="m 0,0 -0.026,-0.171 c -0.312,-2.058 -0.573,-5.658 -3.314,-5.658 -2.442,0 -2.355,2.458 -1.893,5.5 0.458,3.015 1.076,5.558 3.449,5.558 1.46,0 2.038,-0.771 2.175,-2.2 L -0.988,2.472 c -0.029,0.714 -0.113,1.413 -0.959,1.413 -1.118,0 -1.443,-1.599 -1.838,-4.199 -0.568,-3.743 -0.033,-4.171 0.567,-4.171 0.559,0 1.186,0.084 1.576,2.656 l 0.089,0.585 H -2.698 L -2.51,0 Z" /></g><g
           transform="translate(77.0541,63.7573)"
           id="g178"><path
             id="path180"
             style="fill:#7d0946;fill-opacity:1;fill-rule:nonzero;stroke:none"
             d="M 0,0 C 0.087,0.571 0.436,2.515 -0.423,2.515 -1.378,2.515 -1.562,0.586 -1.65,0 c -0.092,-0.6 -0.494,-2.529 0.461,-2.529 0.86,0 1.102,1.958 1.189,2.529 m -0.449,-2.686 h -0.027 c -0.355,-0.628 -0.691,-1.042 -1.427,-1.042 -1.596,0 -1.222,2.643 -1.044,3.814 0.182,1.199 0.592,3.628 2.215,3.628 0.6,0 0.937,-0.385 1.089,-0.914 H 0.384 L 0.505,3.6 H 1.788 L 0.692,-3.614 H -0.59 Z" /></g><g
           transform="translate(81.1786,66.4723)"
           id="g182"><path
             id="path184"
             style="fill:#7d0946;fill-opacity:1;fill-rule:nonzero;stroke:none"
             d="M 0,0 H 0.027 C 0.378,0.599 0.875,0.999 1.529,0.999 2.144,0.999 2.578,0.628 2.619,0 h 0.027 c 0.368,0.628 0.875,0.999 1.571,0.999 1.214,0 1.395,-0.785 1.249,-1.742 L 4.618,-6.329 H 3.336 l 0.768,5.058 C 4.184,-0.743 4.198,-0.2 3.571,-0.2 2.657,-0.2 2.616,-1.1 2.518,-1.744 L 1.821,-6.329 H 0.54 l 0.743,4.899 c 0.074,0.573 0.187,1.23 -0.549,1.23 -0.805,0 -0.892,-0.93 -1.012,-1.544 l -0.697,-4.585 h -1.282 l 1.096,7.214 h 1.295 z" /></g><g
           transform="translate(90.4149,63.7573)"
           id="g186"><path
             id="path188"
             style="fill:#7d0946;fill-opacity:1;fill-rule:nonzero;stroke:none"
             d="M 0,0 C 0.089,0.586 0.491,2.515 -0.464,2.515 -1.324,2.515 -1.564,0.571 -1.65,0 -1.737,-0.571 -2.087,-2.514 -1.23,-2.529 -0.273,-2.514 -0.089,-0.585 0,0 m -1.64,8.243 h 1.282 L -1.185,2.8 h 0.028 c 0.344,0.557 0.712,0.914 1.366,0.914 1.624,0 1.296,-2.429 1.114,-3.628 -0.179,-1.171 -0.607,-3.814 -2.203,-3.814 -0.737,0 -0.947,0.414 -1.11,1.042 h -0.028 l -0.14,-0.928 h -1.283 z" /></g><g
           transform="translate(95.4772,63.7573)"
           id="g190"><path
             id="path192"
             style="fill:#7d0946;fill-opacity:1;fill-rule:nonzero;stroke:none"
             d="M 0,0 C 0.087,0.571 0.436,2.515 -0.423,2.515 -1.377,2.515 -1.562,0.586 -1.65,0 -1.742,-0.6 -2.144,-2.529 -1.188,-2.529 -0.329,-2.529 -0.087,-0.571 0,0 m -0.449,-2.686 h -0.026 c -0.356,-0.628 -0.691,-1.042 -1.428,-1.042 -1.596,0 -1.221,2.643 -1.044,3.814 0.183,1.199 0.592,3.628 2.215,3.628 0.601,0 0.937,-0.385 1.09,-0.914 H 0.384 L 0.506,3.6 H 1.788 L 0.693,-3.614 H -0.59 Z" /></g><g
           transform="translate(100.3075,69.4002)"
           id="g194"><path
             id="path196"
             style="fill:#7d0946;fill-opacity:1;fill-rule:nonzero;stroke:none"
             d="M 0,0 -0.311,-2.043 H 0.372 L 0.211,-3.1 h -0.682 l -0.935,-6.157 h -1.282 l 0.935,6.157 h -0.696 l 0.161,1.057 h 0.695 L -1.283,0 Z" /></g><g
           transform="translate(103.323,69.4002)"
           id="g198"><path
             id="path200"
             style="fill:#7d0946;fill-opacity:1;fill-rule:nonzero;stroke:none"
             d="M 0,0 -0.311,-2.043 H 0.372 L 0.211,-3.1 h -0.682 l -0.935,-6.157 h -1.282 l 0.935,6.157 h -0.696 l 0.161,1.057 h 0.695 L -1.283,0 Z" /></g><g
           transform="translate(106.6783,64.4436)"
           id="g202"><path
             id="path204"
             style="fill:#7d0946;fill-opacity:1;fill-rule:nonzero;stroke:none"
             d="M 0,0 C 0.084,0.557 0.278,1.829 -0.5,1.829 -1.305,1.829 -1.444,0.557 -1.528,0 Z m -1.674,-0.957 c -0.091,-0.601 -0.37,-2.258 0.462,-2.258 0.682,0 0.924,0.786 1.009,1.343 H 0.984 C 0.782,-3.2 0.039,-4.415 -1.407,-4.415 c -1.924,0 -1.776,2.143 -1.544,3.672 0.224,1.471 0.736,3.771 2.633,3.771 1.868,0 1.74,-2.286 1.514,-3.771 L 1.164,-0.957 Z" /></g><g
           transform="translate(70.9424,44.2353)"
           id="g206"><path
             id="path208"
             style="fill:#7d0946;fill-opacity:1;fill-rule:nonzero;stroke:none"
             d="m 0,0 h -2.181 l 1.041,5.534 h -1.802 l 0.294,1.562 H 3.136 L 2.842,5.534 H 1.04 Z" /></g><g
           transform="translate(82.6478,48.1973)"
           id="g210"><path
             id="path212"
             style="fill:#7d0946;fill-opacity:1;fill-rule:nonzero;stroke:none"
             d="m 0,0 c -0.217,-1.035 -0.472,-1.92 -1.384,-2.804 -1.005,-0.97 -2.32,-1.393 -3.721,-1.393 -2.637,0 -4.187,1.515 -3.768,3.746 0.433,2.306 2.565,3.821 5.268,3.821 1.724,0 2.935,-0.659 3.409,-1.986 L -2.403,0.65 c -0.173,0.677 -0.722,1.129 -1.601,1.129 -1.435,0 -2.398,-1.157 -2.601,-2.24 -0.208,-1.101 0.361,-2.221 1.796,-2.221 0.945,0 1.746,0.414 1.989,1.233 H -4.6 L -4.327,0 Z" /></g><g
           transform="translate(85.8996,48.546)"
           id="g214"><path
             id="path216"
             style="fill:#7d0946;fill-opacity:1;fill-rule:nonzero;stroke:none"
             d="M 0,0 H 0.245 C 0.823,0 1.44,0.084 1.553,0.687 1.675,1.337 1.004,1.374 0.414,1.374 H 0.259 Z m -0.545,-2.899 h 0.278 c 0.646,0 1.73,-0.028 1.877,0.753 0.161,0.856 -0.934,0.772 -1.646,0.772 h -0.222 z m -2.445,-1.412 1.333,7.097 h 3.115 c 1.491,0 2.4,-0.49 2.146,-1.845 C 3.483,0.301 3.141,-0.217 2.408,-0.508 L 2.404,-0.527 C 3.581,-0.659 3.963,-1.346 3.778,-2.334 3.498,-3.821 1.904,-4.311 0.369,-4.311 Z" /></g><g
           transform="translate(95.7567,44.9694)"
           id="g218"><path
             id="path220"
             style="fill:#7d0946;fill-opacity:1;fill-rule:nonzero;stroke:none"
             d="M 0,0 C 1.023,0 1.902,0.123 2.785,0.734 3.578,1.28 4.073,2.023 4.222,2.814 4.374,3.623 4.154,4.405 3.532,4.941 2.871,5.515 2.047,5.628 1.057,5.628 H 0.379 L -0.679,0 Z m -0.418,6.362 h 1.58 c 1.257,0 2.254,-0.141 3.11,-0.856 C 5.098,4.81 5.352,3.859 5.155,2.805 4.96,1.77 4.343,0.857 3.289,0.16 2.147,-0.593 1.119,-0.734 -0.194,-0.734 h -1.558 z" /></g><g
           transform="translate(102.7421,46.1933)"
           id="g222"><path
             id="path224"
             style="fill:#7d0946;fill-opacity:1;fill-rule:nonzero;stroke:none"
             d="m 0,0 c -0.139,-0.744 -0.159,-1.384 0.919,-1.384 1.079,0 1.3,0.64 1.44,1.384 l 0.463,2.465 h 0.89 L 3.233,-0.085 C 3.012,-1.261 2.335,-2.081 0.789,-2.081 c -1.546,0 -1.916,0.82 -1.695,1.996 l 0.48,2.55 h 0.89 z" /></g><g
           transform="translate(108.1424,46.4937)"
           id="g226"><path
             id="path228"
             style="fill:#7d0946;fill-opacity:1;fill-rule:nonzero;stroke:none"
             d="m 0,0 c -0.163,-0.865 0.284,-1.684 1.397,-1.684 1.146,0 1.893,0.781 2.06,1.675 0.167,0.885 -0.355,1.6 -1.456,1.6 C 0.966,1.591 0.156,0.828 0,0 M 3.88,-2.258 H 2.991 l 0.114,0.611 H 3.083 c -0.548,-0.489 -1.205,-0.734 -1.94,-0.734 -1.535,0 -2.296,1.101 -2.066,2.325 0.237,1.261 1.386,2.344 2.955,2.344 0.712,0 1.304,-0.283 1.649,-0.754 h 0.023 l 0.118,0.631 h 0.89 z" /></g><g
           transform="translate(114.5399,44.2353)"
           id="g230"><path
             id="path232"
             style="fill:#7d0946;fill-opacity:1;fill-rule:nonzero;stroke:none"
             d="M 0,0 H -0.889 L 0.57,7.765 h 0.89 z" /></g><g
           transform="translate(28,208)"
           id="g234"><path
             id="path236"
             style="fill:#737373;fill-opacity:1;fill-rule:nonzero;stroke:none"
             d="M 0,0 V -4 H 16.095 C 16.038,-3.34 16,-2.674 16,-2 c 0,0.674 0.038,1.34 0.095,2 z" /></g><g
           transform="translate(48.7114,220)"
           id="g238"><path
             id="path240"
             style="fill:#737373;fill-opacity:1;fill-rule:nonzero;stroke:none"
             d="M 0,0 C 1.098,1.464 2.358,2.809 3.763,4 H -20.711 V 0 Z" /></g><g
           transform="translate(28,196)"
           id="g242"><path
             id="path244"
             style="fill:#737373;fill-opacity:1;fill-rule:nonzero;stroke:none"
             d="M 0,0 H 18.275 C 17.663,1.276 17.172,2.615 16.799,4 H 0 Z" /></g><g
           transform="translate(28,212)"
           id="g246"><path
             id="path248"
             style="fill:#737373;fill-opacity:1;fill-rule:nonzero;stroke:none"
             d="m 0,0 h 16.799 c 0.373,1.385 0.864,2.724 1.476,4 H 0 Z" /></g><g
           transform="translate(48.7114,192)"
           id="g250"><path
             id="path252"
             style="fill:#737373;fill-opacity:1;fill-rule:nonzero;stroke:none"
             d="M 0,0 H -20.711 V -4 H 3.763 C 2.358,-2.809 1.098,-1.464 0,0" /></g><g
           transform="translate(211.9046,208)"
           id="g254"><path
             id="path256"
             style="fill:#737373;fill-opacity:1;fill-rule:nonzero;stroke:none"
             d="M 0,0 C 0.057,-0.66 0.095,-1.326 0.095,-2 0.095,-2.674 0.057,-3.34 0,-4 h 16.095 v 4 z" /></g><g
           transform="translate(207.2886,220)"
           id="g258"><path
             id="path260"
             style="fill:#737373;fill-opacity:1;fill-rule:nonzero;stroke:none"
             d="M 0,0 H 20.711 V 4 H -3.763 C -2.358,2.809 -1.098,1.464 0,0" /></g><g
           transform="translate(228,200)"
           id="g262"><path
             id="path264"
             style="fill:#737373;fill-opacity:1;fill-rule:nonzero;stroke:none"
             d="m 0,0 h -16.799 c -0.373,-1.385 -0.864,-2.724 -1.476,-4 H 0 Z" /></g><g
           transform="translate(207.2886,192)"
           id="g266"><path
             id="path268"
             style="fill:#737373;fill-opacity:1;fill-rule:nonzero;stroke:none"
             d="M 0,0 C -1.098,-1.464 -2.358,-2.809 -3.763,-4 H 20.711 V 0 Z" /></g><g
           transform="translate(209.7253,216)"
           id="g270"><path
             id="path272"
             style="fill:#737373;fill-opacity:1;fill-rule:nonzero;stroke:none"
             d="m 0,0 c 0.612,-1.276 1.103,-2.615 1.475,-4 h 16.8 v 4 z" /></g><path
           id="path274"
           style="fill:#777777;fill-opacity:1;fill-rule:nonzero;stroke:none"
           d="m 28,12 h -4 v 140 h 4 z" /><path
           id="path276"
           style="fill:#777777;fill-opacity:1;fill-rule:nonzero;stroke:none"
           d="m 232,12 h -4 v 140 h 4 z" /></g></g></g></svg>