<?xml version="1.0" encoding="UTF-8" standalone="no"?>
<svg
   xmlns:dc="http://purl.org/dc/elements/1.1/"
   xmlns:cc="http://creativecommons.org/ns#"
   xmlns:rdf="http://www.w3.org/1999/02/22-rdf-syntax-ns#"
   xmlns:svg="http://www.w3.org/2000/svg"
   xmlns="http://www.w3.org/2000/svg"
   viewBox="0 0 320 320"
   height="320"
   width="320"
   xml:space="preserve"
   version="1.1"
   id="svg2"><metadata
     id="metadata8"><rdf:RDF><cc:Work
         rdf:about=""><dc:format>image/svg+xml</dc:format><dc:type
           rdf:resource="http://purl.org/dc/dcmitype/StillImage" /></cc:Work></rdf:RDF></metadata><defs
     id="defs6"><clipPath
       id="clipPath16"
       clipPathUnits="userSpaceOnUse"><path
         id="path18"
         d="M 0,256 256,256 256,0 0,0 0,256 Z" /></clipPath><clipPath
       id="clipPath24"
       clipPathUnits="userSpaceOnUse"><path
         id="path26"
         d="M 4,220 252,220 252,36 4,36 4,220 Z" /></clipPath><clipPath
       id="clipPath42"
       clipPathUnits="userSpaceOnUse"><path
         id="path44"
         d="M 0,256 256,256 256,0 0,0 0,256 Z" /></clipPath><clipPath
       id="clipPath536"
       clipPathUnits="userSpaceOnUse"><path
         id="path538"
         d="m 189.048,140.356 0.04,0 0,-0.025 -0.04,0 0,0.025 z" /></clipPath><clipPath
       id="clipPath552"
       clipPathUnits="userSpaceOnUse"><path
         id="path554"
         d="m 187.919,140.176 0.045,0 0,-0.028 -0.045,0 0,0.028 z" /></clipPath></defs><g
     transform="matrix(1.25,0,0,-1.25,0,320)"
     id="g10"><g
       id="g12"><g
         clip-path="url(#clipPath16)"
         id="g14"><g
           id="g20"><g
             id="g22" /><g
             id="g28"><g
               style="opacity:0.5"
               id="g30"
               clip-path="url(#clipPath24)"><g
                 id="g32"
                 transform="translate(243.3089,44.2382)"><path
                   id="path34"
                   style="fill:#ffffff;fill-opacity:1;fill-rule:nonzero;stroke:none"
                   d="M 0,0 C -0.244,-0.151 -0.533,-0.238 -0.834,-0.238 -0.533,-0.238 -0.244,-0.151 0,0 0.163,0.101 0.305,0.23 0.418,0.381 0.305,0.23 0.163,0.101 0,0 m -1.309,171.762 -31.52,0 c -1.616,2.41 -4.366,4 -7.48,4 l -7,0 -4,0 -32,0 -4,0 -72,0 -24,0 -7,0 c -3.114,0 -5.863,-1.59 -7.48,-4 l -31.52,0 c -5.514,0 -10,-4.486 -10,-10 l 0,-20.563 0,-5.437 0,-22.563 0,-5.437 0,-22.563 0,-5.437 0,-22.563 0,-5.437 0,-22.563 0,-5.437 0,-22.563 0,-0.04 0.001,-0.055 c 0.03,-5.137 4.302,-9.342 9.524,-9.342 l 38.475,0 8,0 136,0 8,0 38.475,0 c 5.222,0 9.495,4.205 9.525,9.375 l 0,0.023 0,0.039 0,22.563 0,5.437 0,22.563 0,5.437 0,22.563 0,5.437 0,22.563 0,5.437 0,22.563 0,5.437 0,20.563 c 0,5.514 -4.486,10 -10,10" /></g></g></g></g></g></g><path
       id="path36"
       style="fill:#666666;fill-opacity:1;fill-rule:nonzero;stroke:none"
       d="m 240,64 -224,0 0,124 224,0 0,-124 z" /><g
       id="g38"><g
         clip-path="url(#clipPath42)"
         id="g40"><g
           transform="translate(242.4748,44)"
           id="g46"><path
             id="path48"
             style="fill:#737373;fill-opacity:1;fill-rule:nonzero;stroke:none"
             d="m 0,0 c 0.803,0 1.52,0.619 1.525,1.422 0,0.005 0,0.01 0,0.015 l 0,22.563 -232,0 0,-22.563 c 0,-0.005 0,-0.01 0,-0.015 C -230.47,0.619 -229.752,0 -228.95,0 L 0,0 Z" /></g><g
           transform="translate(243.6875,72)"
           id="g50"><path
             id="path52"
             style="fill:#737373;fill-opacity:1;fill-rule:nonzero;stroke:none"
             d="m 0,0 c 0.162,0.459 0.312,0.927 0.312,1.437 l 0,22.563 -232,0 0,-22.563 c 0,-0.51 0.151,-0.978 0.313,-1.437 L 0,0 Z" /></g><g
           transform="translate(243.6875,100)"
           id="g54"><path
             id="path56"
             style="fill:#737373;fill-opacity:1;fill-rule:nonzero;stroke:none"
             d="m 0,0 c 0.162,0.459 0.312,0.927 0.312,1.437 l 0,22.563 -232,0 0,-22.563 c 0,-0.51 0.151,-0.978 0.313,-1.437 L 0,0 Z" /></g><g
           transform="translate(243.6875,128)"
           id="g58"><path
             id="path60"
             style="fill:#737373;fill-opacity:1;fill-rule:nonzero;stroke:none"
             d="m 0,0 c 0.162,0.459 0.312,0.927 0.312,1.437 l 0,22.563 -232,0 0,-22.563 c 0,-0.51 0.151,-0.978 0.313,-1.437 L 0,0 Z" /></g><g
           transform="translate(243.6875,156)"
           id="g62"><path
             id="path64"
             style="fill:#737373;fill-opacity:1;fill-rule:nonzero;stroke:none"
             d="m 0,0 c 0.162,0.459 0.312,0.927 0.312,1.437 l 0,22.563 -232,0 0,-22.563 c 0,-0.51 0.151,-0.978 0.313,-1.437 L 0,0 Z" /></g><g
           transform="translate(243.6875,184)"
           id="g66"><path
             id="path68"
             style="fill:#737373;fill-opacity:1;fill-rule:nonzero;stroke:none"
             d="m 0,0 c 0.162,0.459 0.312,0.927 0.312,1.437 l 0,20.563 c 0,1.105 -0.895,2 -2,2 l -228,0 c -1.104,0 -2,-0.895 -2,-2 l 0,-20.563 c 0,-0.51 0.151,-0.978 0.313,-1.437 L 0,0 Z" /></g><g
           transform="translate(203.9999,44)"
           id="g70"><path
             id="path72"
             style="fill:#808080;fill-opacity:1;fill-rule:nonzero;stroke:none"
             d="m 0,0 -152,0 0,167 c 0,0.552 0.448,1 1,1 l 150,0 c 0.552,0 1,-0.448 1,-1 L 0,0 Z" /></g><g
           transform="translate(195,132)"
           id="g74"><path
             id="path76"
             style="fill:#191919;fill-opacity:1;fill-rule:nonzero;stroke:none"
             d="m 0,0 -134,0 c -0.552,0 -1,0.448 -1,1 l 0,79 L 1,80 1,1 C 1,0.448 0.552,0 0,0" /></g><path
           id="path78"
           style="fill:#b80000;fill-opacity:1;fill-rule:nonzero;stroke:none"
           d="m 192,210 -32,0 0,2 32,0 0,-2 z" /><path
           id="path80"
           style="fill:#262626;fill-opacity:1;fill-rule:nonzero;stroke:none"
           d="m 156,152 -72,0 0,60 72,0 0,-60 z" /><g
           transform="translate(77.9089,208)"
           id="g82"><path
             id="path84"
             style="fill:#b80000;fill-opacity:1;fill-rule:nonzero;stroke:none"
             d="m 0,0 -11.818,0 c -1.251,0.003 -2.091,-0.91 -2.091,-2.004 0,-1.093 0.839,-1.996 2.093,-1.996 l 11.815,0 c 1.254,0 2.092,0.903 2.092,1.996 C 2.091,-0.91 1.251,0.003 0,0" /></g><g
           transform="translate(77.9033,204.4905)"
           id="g86"><path
             id="path88"
             style="fill:#ffffff;fill-opacity:1;fill-rule:nonzero;stroke:none"
             d="m 0,0 -11.807,0 c -0.997,-0.004 -1.603,0.676 -1.603,1.509 0,0.833 0.61,1.507 1.603,1.509 L 0,3.018 C 0.993,3.016 1.603,2.342 1.603,1.509 1.603,0.676 0.997,-0.004 0,0" /></g><g
           transform="translate(73.8576,206.746)"
           id="g90"><path
             id="path92"
             style="fill:#b80000;fill-opacity:1;fill-rule:nonzero;stroke:none"
             d="m 0,0 0.558,0 0,-0.253 0.302,0 0,-0.187 -0.302,0 0.001,-1.249 -0.559,0 0,1.249 -0.303,0 0,0.186 0.303,0 L 0,0 Z" /></g><path
           id="path94"
           style="fill:#b80000;fill-opacity:1;fill-rule:nonzero;stroke:none"
           d="m 67.318,206.309 0.558,0 0,-1.252 -0.558,0 0,1.252 z" /><path
           id="path96"
           style="fill:#b80000;fill-opacity:1;fill-rule:nonzero;stroke:none"
           d="m 67.316,206.94 0.559,0 0,-0.385 -0.559,0 0,0.385 z" /><g
           transform="translate(77.5736,205.471)"
           id="g98"><path
             id="path100"
             style="fill:#b80000;fill-opacity:1;fill-rule:nonzero;stroke:none"
             d="M 0,0 C 0,-0.2 -0.116,-0.282 -0.228,-0.282 -0.34,-0.282 -0.457,-0.2 -0.457,0 l 0,0.27 c 0,0 0.001,0.185 0.001,0.261 0,0.199 0.117,0.28 0.228,0.28 C -0.117,0.811 0,0.73 0,0.531 0,0.455 0,0.315 0,0.265 0,0.261 0,0.075 0,0 m -0.224,0.966 c -0.45,0 -0.815,-0.314 -0.815,-0.703 0,-0.388 0.365,-0.703 0.815,-0.703 0.451,0 0.816,0.315 0.816,0.703 0,0.389 -0.365,0.703 -0.816,0.703" /></g><g
           transform="translate(69.193,205.4706)"
           id="g102"><path
             id="path104"
             style="fill:#b80000;fill-opacity:1;fill-rule:nonzero;stroke:none"
             d="m 0,0 c 0,-0.193 -0.13,-0.244 -0.218,-0.244 -0.087,0 -0.219,0.051 -0.219,0.244 l 0,0.222 0,0.224 c 0,0.194 0.132,0.243 0.218,0.243 C -0.13,0.689 0,0.64 0,0.446 0,0.382 0,0.223 0,0.223 0,0.223 0,0.067 0,0 M -0.117,0.892 C -0.25,0.88 -0.344,0.831 -0.433,0.78 l 0,0.693 -0.551,0 0,-1.883 0.552,0 c 0,0 0,0.061 0,0.072 0.214,-0.136 0.454,-0.135 0.642,-0.047 0.05,0.024 0.382,0.185 0.382,0.621 0,0.331 -0.308,0.692 -0.709,0.656" /></g><g
           transform="translate(72.5165,206.1677)"
           id="g106"><path
             id="path108"
             style="fill:#b80000;fill-opacity:1;fill-rule:nonzero;stroke:none"
             d="M 0,0 C 0.044,0.077 0.123,0.114 0.196,0.114 0.269,0.114 0.349,0.077 0.393,0 0.428,-0.062 0.43,-0.136 0.429,-0.246 l -0.466,0 C -0.038,-0.136 -0.036,-0.062 0,0 m 0.427,-0.699 c 0,-0.229 -0.148,-0.28 -0.231,-0.28 -0.082,0 -0.233,0.051 -0.233,0.28 0,0.069 0,0.258 0,0.258 l 1.051,0 c 0,0.389 -0.369,0.711 -0.823,0.711 -0.453,0 -0.822,-0.315 -0.822,-0.704 0,-0.388 0.369,-0.703 0.822,-0.703 0.377,0 0.695,0.219 0.792,0.514 l -0.556,0 c 0,0 0,-0.006 0,-0.076" /></g><g
           transform="translate(66.3936,205.2426)"
           id="g110"><path
             id="path112"
             style="fill:#b80000;fill-opacity:1;fill-rule:nonzero;stroke:none"
             d="m 0,0 0,1.706 -0.559,0 0,-1.706 0,-0.186 0.559,0 0.605,0 L 0.605,0 0,0 Z" /></g><g
           transform="translate(75.888,205.8503)"
           id="g114"><path
             id="path116"
             style="fill:#b80000;fill-opacity:1;fill-rule:nonzero;stroke:none"
             d="M 0,0 0.547,0 C 0.49,0.404 0.117,0.521 -0.075,0.516 -0.259,0.51 -0.412,0.43 -0.519,0.327 c -0.001,0.031 0,0.132 0,0.132 l -0.554,-0.001 -0.001,-1.252 0.555,0 c 0,0 -0.001,0.769 -0.001,0.822 0,0.109 0.113,0.231 0.265,0.231 C -0.103,0.259 0,0.137 0,0.028 L 0,0 Z" /></g><g
           transform="translate(71.1,206.0836)"
           id="g118"><path
             id="path120"
             style="fill:#b80000;fill-opacity:1;fill-rule:nonzero;stroke:none"
             d="m 0,0 c 0,-0.194 -0.13,-0.243 -0.219,-0.243 -0.087,0 -0.218,0.049 -0.218,0.243 l 0,0.224 0,0.222 c 0,0.193 0.131,0.244 0.218,0.244 C -0.13,0.69 0,0.639 0,0.446 0,0.379 0,0.223 0,0.223 0,0.223 0,0.064 0,0 m 0.592,0.21 c 0,0.435 -0.332,0.597 -0.382,0.621 -0.188,0.088 -0.429,0.088 -0.642,-0.047 0,0.011 0,0.072 0,0.072 l -0.552,0 0,-1.883 0.551,0 0,0.693 c 0.002,-0.001 0.004,-0.003 0.007,-0.004 l 0.432,-0.689 0.547,0 -0.39,0.622 c 0.256,0.102 0.429,0.367 0.429,0.615" /></g><g
           transform="translate(71.9915,162.3936)"
           id="g122"><path
             id="path124"
             style="fill:#ffffff;fill-opacity:1;fill-rule:nonzero;stroke:none"
             d="M 0,0 C 3.57,0 6.465,-1.967 6.465,-4.393 6.465,-6.82 3.57,-8.787 0,-8.787 c -3.57,0 -6.465,1.967 -6.465,4.394 C -6.465,-1.967 -3.57,0 0,0" /></g><g
           transform="translate(78.4566,158.0324)"
           id="g126"><path
             id="path128"
             style="fill:#a3834a;fill-opacity:1;fill-rule:nonzero;stroke:none"
             d="m 0,0 c 0,2.426 -2.895,4.393 -6.465,4.393 -3.571,0 -6.465,-1.967 -6.465,-4.393 0,-2.426 2.894,-4.394 6.465,-4.394 C -2.895,-4.394 0,-2.426 0,0 m 0.77,-0.003 0.773,-0.808 -1.104,-0.647 0.31,-1.251 -1.189,-0.032 -0.081,-1.363 -1.325,0.356 -0.224,-1.285 -1.226,0.475 -0.639,-1.134 -0.958,0.808 -0.835,-1.148 -0.92,0.975 -1.005,-0.911 -0.656,1.072 -1.185,-0.68 -0.41,1.201 -1.372,-0.528 -0.202,1.184 -1.227,-0.075 0.184,1.205 -1.256,0.005 0.294,1.316 -0.974,0.534 0.775,0.859 -0.695,1.194 1.131,0.35 -0.298,1.277 1.241,0.016 0.144,1.267 1.123,-0.363 0.371,1.235 1.134,-0.599 0.469,1.093 0.982,-0.666 0.69,1.039 0.928,-0.905 0.819,0.827 0.719,-1.042 1.122,0.703 0.446,-1.15 1.128,0.521 0.29,-1.201 1.337,0.232 L -0.642,2.779 0.71,2.636 0.327,1.501 1.504,1.009 0.77,-0.003 Z" /></g><g
           transform="translate(66.0823,157.9999)"
           id="g130"><path
             id="path132"
             style="fill:#a3834a;fill-opacity:1;fill-rule:nonzero;stroke:none"
             d="m 0,0 c 0,2.142 2.651,3.885 5.909,3.885 3.259,0 5.909,-1.743 5.909,-3.885 0,-2.142 -2.65,-3.884 -5.909,-3.884 C 2.651,-3.884 0,-2.142 0,0 m 5.909,-4.03 c 3.341,0 6.058,1.808 6.058,4.03 0,2.222 -2.717,4.03 -6.058,4.03 -3.34,0 -6.058,-1.808 -6.058,-4.03 0,-2.222 2.718,-4.03 6.058,-4.03" /></g><g
           transform="translate(75.7418,157.0701)"
           id="g134"><path
             id="path136"
             style="fill:#a3834a;fill-opacity:1;fill-rule:nonzero;stroke:none"
             d="m 0,0 -7.565,0 c -0.639,-0.002 -1.027,0.416 -1.027,0.929 0,0.514 0.39,0.929 1.027,0.93 L 0,1.859 C 0.637,1.858 1.027,1.443 1.027,0.929 1.027,0.416 0.639,-0.002 0,0 m 0.004,2.162 -7.573,0 c -0.801,0.002 -1.339,-0.56 -1.339,-1.234 0,-0.674 0.537,-1.23 1.34,-1.23 l 7.571,0 c 0.803,0 1.34,0.556 1.34,1.23 0,0.674 -0.538,1.236 -1.339,1.234" /></g><g
           transform="translate(73.1495,158.4596)"
           id="g138"><path
             id="path140"
             style="fill:#a3834a;fill-opacity:1;fill-rule:nonzero;stroke:none"
             d="m 0,0 0.358,0 0,-0.156 0.193,0 0,-0.115 -0.193,0 0,-0.77 -0.358,0 0,0.77 -0.194,0 0,0.115 0.194,0 L 0,0 Z" /></g><path
           id="path142"
           style="fill:#a3834a;fill-opacity:1;fill-rule:nonzero;stroke:none"
           d="m 68.959,158.19 0.357,0 0,-0.771 -0.357,0 0,0.771 z" /><path
           id="path144"
           style="fill:#a3834a;fill-opacity:1;fill-rule:nonzero;stroke:none"
           d="m 68.958,158.579 0.358,0 0,-0.237 -0.358,0 0,0.237 z" /><g
           transform="translate(75.5308,157.837)"
           id="g146"><path
             id="path148"
             style="fill:#a3834a;fill-opacity:1;fill-rule:nonzero;stroke:none"
             d="m 0,0 0,0 c 0,-0.002 0,-0.117 0,-0.163 0,-0.123 -0.075,-0.174 -0.147,-0.174 -0.071,0 -0.146,0.051 -0.146,0.174 l 0,0.166 c 0,0 0.001,0.115 0.001,0.161 0,0.123 0.074,0.173 0.145,0.173 C -0.075,0.337 0,0.287 0,0.164 0,0.118 0,0.031 0,0 l 0,0 z m -0.144,0.432 c -0.288,0 -0.522,-0.194 -0.522,-0.433 0,-0.239 0.234,-0.433 0.522,-0.433 0.289,0 0.523,0.194 0.523,0.433 0,0.239 -0.234,0.433 -0.523,0.433" /></g><g
           transform="translate(69.8804,157.9485)"
           id="g150"><path
             id="path152"
             style="fill:#a3834a;fill-opacity:1;fill-rule:nonzero;stroke:none"
             d="m 0,0 c 0,0.12 0.085,0.15 0.14,0.15 0.057,0 0.14,-0.03 0.14,-0.15 0,-0.039 0,-0.137 0,-0.137 0,0 0,-0.097 0,-0.138 0,-0.119 -0.083,-0.15 -0.14,-0.15 -0.055,0 -0.14,0.031 -0.14,0.15 L 0,-0.138 0,0 Z m -0.35,0.633 0,-1.16 0.353,0 c 0,0 0.001,0.037 0.001,0.044 0.136,-0.083 0.291,-0.083 0.411,-0.029 0.032,0.015 0.244,0.114 0.244,0.383 0,0.203 -0.197,0.426 -0.454,0.404 C 0.12,0.267 0.06,0.237 0.003,0.206 l 0,0.427 -0.353,0 z" /></g><g
           transform="translate(72.2902,158.1033)"
           id="g154"><path
             id="path156"
             style="fill:#a3834a;fill-opacity:1;fill-rule:nonzero;stroke:none"
             d="m 0,0 c 0.028,0.047 0.079,0.07 0.126,0.07 l -0.001,0 0.001,0 0,0 C 0.172,0.07 0.224,0.047 0.252,0 0.274,-0.038 0.275,-0.084 0.275,-0.151 l -0.299,0 c 0,0.067 0.001,0.113 0.024,0.151 m 0.274,-0.431 c 0,-0.141 -0.095,-0.172 -0.148,-0.172 -0.053,0 -0.15,0.031 -0.15,0.172 0,0.043 0.001,0.16 0.001,0.16 l 0.673,0 c 0,0.239 -0.237,0.437 -0.528,0.437 -0.29,0 -0.526,-0.194 -0.526,-0.433 0,-0.239 0.236,-0.433 0.526,-0.433 0.242,0 0.445,0.134 0.508,0.316 l -0.357,0 c 0,0 0.001,-0.003 0.001,-0.047" /></g><g
           transform="translate(68.367,157.5334)"
           id="g158"><path
             id="path160"
             style="fill:#a3834a;fill-opacity:1;fill-rule:nonzero;stroke:none"
             d="m 0,0 0,1.051 -0.358,0 0,-1.051 0,-0.115 0.358,0 0.387,0 L 0.387,0 0,0 Z" /></g><g
           transform="translate(74.4505,157.9078)"
           id="g162"><path
             id="path164"
             style="fill:#a3834a;fill-opacity:1;fill-rule:nonzero;stroke:none"
             d="M 0,0 0.35,0 C 0.314,0.249 0.075,0.321 -0.048,0.318 -0.166,0.314 -0.264,0.265 -0.333,0.201 c 0,0.019 0,0.082 0,0.082 l -0.355,-0.001 0,-0.771 0.355,0 c 0,0 0,0.474 0,0.507 0,0.067 0.072,0.142 0.17,0.142 C -0.066,0.16 0,0.085 0,0.018 L 0,0 Z" /></g><g
           transform="translate(71.1022,158.1892)"
           id="g166"><path
             id="path168"
             style="fill:#a3834a;fill-opacity:1;fill-rule:nonzero;stroke:none"
             d="m 0,0 0,0.137 c 0,0.119 0.085,0.15 0.14,0.15 0.057,0 0.14,-0.031 0.14,-0.15 0,-0.041 0,-0.138 0,-0.138 0,0 0,-0.097 0,-0.137 0,-0.119 -0.083,-0.15 -0.14,-0.15 -0.055,0 -0.14,0.031 -0.14,0.15 L 0,0 Z M 0.659,-0.009 C 0.659,0.26 0.447,0.359 0.415,0.374 0.295,0.428 0.14,0.429 0.004,0.345 0.004,0.352 0.003,0.39 0.003,0.39 l -0.353,0 0,-1.16 0.353,0 0,0.426 c 0.001,0 0.003,-0.001 0.004,-0.002 l 0.277,-0.424 0.35,0 -0.249,0.383 c 0.164,0.062 0.274,0.226 0.274,0.378" /></g><path
           id="path170"
           style="fill:#262626;fill-opacity:1;fill-rule:nonzero;stroke:none"
           d="m 192,168 -20,0 0,28 20,0 0,-28 z" /><g
           transform="translate(178.9094,178.3684)"
           id="g172"><path
             id="path174"
             style="fill:#191919;fill-opacity:1;fill-rule:nonzero;stroke:none"
             d="m 0,0 c 0.633,-1.438 -0.357,-3.399 -2.213,-4.38 -1.855,-0.98 -3.872,-0.61 -4.505,0.828 -0.633,1.438 0.357,3.399 2.212,4.38 C -2.65,1.809 -0.633,1.438 0,0" /></g><g
           transform="translate(187.3529,176.9278)"
           id="g176"><path
             id="path178"
             style="fill:#191919;fill-opacity:1;fill-rule:nonzero;stroke:none"
             d="m 0,0 c 0.633,-1.438 -0.357,-3.399 -2.213,-4.38 -1.855,-0.98 -3.872,-0.61 -4.505,0.828 -0.633,1.438 0.357,3.399 2.212,4.38 C -2.65,1.809 -0.633,1.438 0,0" /></g><g
           transform="translate(183.3653,186.6283)"
           id="g180"><path
             id="path182"
             style="fill:#191919;fill-opacity:1;fill-rule:nonzero;stroke:none"
             d="m 0,0 c 0.633,-1.438 -0.357,-3.399 -2.213,-4.38 -1.855,-0.98 -3.872,-0.61 -4.505,0.828 -0.633,1.438 0.357,3.399 2.212,4.38 C -2.65,1.809 -0.633,1.438 0,0" /></g><g
           transform="translate(191.8088,185.1877)"
           id="g184"><path
             id="path186"
             style="fill:#191919;fill-opacity:1;fill-rule:nonzero;stroke:none"
             d="m 0,0 c 0.633,-1.438 -0.357,-3.399 -2.213,-4.38 -1.855,-0.98 -3.872,-0.61 -4.505,0.828 -0.633,1.438 0.357,3.399 2.212,4.38 C -2.65,1.809 -0.633,1.438 0,0" /></g><g
           transform="translate(66,194)"
           id="g188"><path
             id="path190"
             style="fill:#354f9f;fill-opacity:1;fill-rule:nonzero;stroke:none"
             d="M 0,0 -2,2 2,2 0,0 Z" /></g><g
           transform="translate(146.3558,155.5193)"
           id="g192"><path
             id="path194"
             style="fill:#b80000;fill-opacity:1;fill-rule:nonzero;stroke:none"
             d="m 0,0 -1.917,0 c -0.367,0 -0.514,0.278 -0.402,0.777 l 0.45,2.02 0.951,0 -0.386,-1.731 1.167,0 0.371,1.665 -1.372,2.409 c -0.116,0.188 -0.129,0.355 -0.057,0.677 l 0.421,1.887 c 0.111,0.499 0.382,0.777 0.748,0.777 l 1.918,0 c 0.367,0 0.514,-0.278 0.405,-0.766 l -0.424,-1.898 -0.95,0 0.356,1.598 -1.167,0 L -0.229,5.883 1.145,3.486 C 1.259,3.286 1.272,3.119 1.2,2.797 L 0.749,0.777 C 0.638,0.278 0.367,0 0,0" /></g><g
           transform="translate(150.289,155.5193)"
           id="g196"><path
             id="path198"
             style="fill:#b80000;fill-opacity:1;fill-rule:nonzero;stroke:none"
             d="m 0,0 -2.026,0 c -0.375,0 -0.513,0.278 -0.402,0.777 l 1.719,7.704 0.951,0 -1.65,-7.393 1.284,0 1.649,7.393 0.951,0 L 0.757,0.777 C 0.646,0.278 0.376,0 0,0" /></g><g
           transform="translate(155.4043,162.9125)"
           id="g200"><path
             id="path202"
             style="fill:#b80000;fill-opacity:1;fill-rule:nonzero;stroke:none"
             d="m 0,0 -1.168,0 -0.72,-3.23 1.167,0 L 0,0 Z m -0.588,-4.318 -1.543,0 -0.686,-3.075 -0.95,0 1.892,8.48 2.493,0 c 0.375,0 0.522,-0.277 0.41,-0.776 L 0.171,-3.53 C 0.06,-4.03 -0.213,-4.318 -0.588,-4.318" /></g><g
           transform="translate(155.3791,155.5193)"
           id="g204"><path
             id="path206"
             style="fill:#b80000;fill-opacity:1;fill-rule:nonzero;stroke:none"
             d="m 0,0 1.892,8.481 2.618,0 -0.25,-1.121 -1.668,0 -0.552,-2.476 1.434,0 -0.245,-1.099 -1.435,0 L 1.2,1.121 2.893,1.121 2.643,0 0,0 Z" /></g><g
           transform="translate(164.1366,155.5193)"
           id="g208"><path
             id="path210"
             style="fill:#b80000;fill-opacity:1;fill-rule:nonzero;stroke:none"
             d="m 0,0 1.892,8.481 0.95,0 -1.639,-7.349 1.551,0 L 2.501,0 0,0 Z" /></g><g
           transform="translate(167.2196,155.5193)"
           id="g212"><path
             id="path214"
             style="fill:#b80000;fill-opacity:1;fill-rule:nonzero;stroke:none"
             d="m 0,0 1.892,8.481 0.95,0 L 0.95,0 0,0 Z" /></g><g
           transform="translate(171.8985,159.0051)"
           id="g216"><path
             id="path218"
             style="fill:#b80000;fill-opacity:1;fill-rule:nonzero;stroke:none"
             d="m 0,0 -0.376,0.41 -0.75,0 -0.632,-2.83 1.218,0 L 0,0 Z m 0.851,3.929 -1.192,0 -0.555,-2.486 0.734,0 0.555,0.433 0.458,2.053 z m -1.254,-7.415 -2.543,0 1.892,8.481 2.526,0 c 0.367,0 0.506,-0.277 0.394,-0.777 L 1.378,2.031 C 1.289,1.632 1.163,1.443 0.899,1.265 L 0.435,0.944 0.776,0.599 C 0.961,0.422 1.006,0.211 0.917,-0.189 L 0.354,-2.709 C 0.243,-3.208 -0.028,-3.486 -0.403,-3.486" /></g><g
           transform="translate(175.0789,155.5193)"
           id="g220"><path
             id="path222"
             style="fill:#b80000;fill-opacity:1;fill-rule:nonzero;stroke:none"
             d="m 0,0 -0.171,3.941 0.17,0.766 0.934,0 0.6,2.686 -1.201,0 -1.65,-7.393 -0.95,0 1.892,8.481 2.526,0 c 0.376,0 0.514,-0.278 0.402,-0.777 L 1.864,4.618 C 1.752,4.118 1.493,3.852 1.124,3.841 l -0.325,0 L 1.002,0.045 0.992,0 0,0 Z" /></g><g
           transform="translate(176.6528,155.5193)"
           id="g224"><path
             id="path226"
             style="fill:#b80000;fill-opacity:1;fill-rule:nonzero;stroke:none"
             d="m 0,0 1.892,8.481 2.618,0 -0.25,-1.121 -1.667,0 -0.553,-2.476 1.434,0 -0.245,-1.099 -1.434,0 -0.594,-2.664 1.692,0 L 2.643,0 0,0 Z" /></g><g
           transform="translate(183.3031,162.8791)"
           id="g228"><path
             id="path230"
             style="fill:#b80000;fill-opacity:1;fill-rule:nonzero;stroke:none"
             d="m 0,0 -1.642,-7.36 -0.95,0 1.642,7.36 -1.042,0 0.25,1.121 3.043,0 L 1.05,0 0,0 Z" /></g><g
           transform="translate(185.462,155.5193)"
           id="g232"><path
             id="path234"
             style="fill:#b80000;fill-opacity:1;fill-rule:nonzero;stroke:none"
             d="m 0,0 -0.171,3.941 0.17,0.766 0.934,0 0.6,2.686 -1.201,0 L -1.317,0 l -0.951,0 1.892,8.481 2.526,0 c 0.376,0 0.514,-0.278 0.402,-0.777 L 1.864,4.618 C 1.752,4.118 1.493,3.852 1.124,3.841 l -0.325,0 L 1.002,0.045 0.992,0 0,0 Z" /></g><g
           transform="translate(190.9442,162.9125)"
           id="g236"><path
             id="path238"
             style="fill:#b80000;fill-opacity:1;fill-rule:nonzero;stroke:none"
             d="m 0,0 -1.309,0 -1.407,-6.305 1.309,0 L 0,0 Z m -1.274,-7.393 -2.068,0 c -0.367,0 -0.505,0.277 -0.394,0.777 l 1.546,6.927 c 0.111,0.499 0.373,0.776 0.74,0.776 l 2.068,0 c 0.366,0 0.513,-0.277 0.401,-0.776 l -1.545,-6.927 c -0.111,-0.5 -0.382,-0.777 -0.748,-0.777" /></g><g
           transform="translate(161.7166,159.6822)"
           id="g240"><path
             id="path242"
             style="fill:#b80000;fill-opacity:1;fill-rule:nonzero;stroke:none"
             d="m 0,0 -1.167,0 0.721,3.23 1.167,0 L 0,0 Z m 1.338,4.318 -2.492,0 -1.892,-8.481 0.95,0 0.686,3.075 0.003,0 0.686,-3.075 0.95,0 -0.686,3.075 0.589,0 c 0.376,0 0.648,0.289 0.76,0.788 L 1.749,3.541 C 1.86,4.041 1.714,4.318 1.338,4.318" /></g><path
           id="path244"
           style="fill:#b80000;fill-opacity:1;fill-rule:nonzero;stroke:none"
           d="m 190.944,152 -46.944,0 0,2.854 46.944,0 0,-2.854 z" /><g
           transform="translate(144.7119,152.4678)"
           id="g246"><path
             id="path248"
             style="fill:#191919;fill-opacity:1;fill-rule:nonzero;stroke:none"
             d="m 0,0 0.451,2.022 0.814,0 -0.06,-0.267 -0.518,0 -0.132,-0.59 0.447,0 -0.059,-0.262 -0.446,0 -0.142,-0.635 0.527,0 L 0.822,0 0,0 Z" /></g><g
           transform="translate(148.5171,152.4678)"
           id="g250"><path
             id="path252"
             style="fill:#191919;fill-opacity:1;fill-rule:nonzero;stroke:none"
             d="M 0,0 0.223,0.998 C 0.24,1.075 0.29,1.218 0.29,1.218 l -0.487,-1.033 -0.151,0 -0.026,1.033 c 0,0 -0.014,-0.143 -0.031,-0.22 L -0.628,0 l -0.285,0 0.451,2.022 0.281,0 0.061,-1.117 c 0.001,-0.018 -0.012,-0.092 -0.012,-0.092 0,0 0.018,0.074 0.028,0.092 l 0.56,1.117 0.281,0 L 0.285,0 0,0 Z" /></g><g
           transform="translate(151.7158,152.4678)"
           id="g254"><path
             id="path256"
             style="fill:#191919;fill-opacity:1;fill-rule:nonzero;stroke:none"
             d="m 0,0 -0.63,0 c -0.117,0 -0.164,0.066 -0.137,0.185 l 0.409,1.837 0.296,0 -0.393,-1.763 0.399,0 0.394,1.763 0.295,0 -0.41,-1.837 C 0.197,0.066 0.117,0 0,0" /></g><g
           transform="translate(154.0046,152.4678)"
           id="g258"><path
             id="path260"
             style="fill:#191919;fill-opacity:1;fill-rule:nonzero;stroke:none"
             d="m 0,0 0.451,2.022 0.296,0 L 0.356,0.27 0.838,0.27 0.778,0 0,0 Z" /></g><g
           transform="translate(157.6619,154.0242)"
           id="g262"><path
             id="path264"
             style="fill:#191919;fill-opacity:1;fill-rule:nonzero;stroke:none"
             d="m 0,0 -0.349,-0.913 0.29,0 L 0,0 Z m -0.101,-1.556 0.026,0.383 -0.371,0 -0.145,-0.383 -0.293,0 0.001,0.005 0.834,2.02 0.312,0 -0.07,-2.02 -0.001,-0.005 -0.293,0 z" /></g><g
           transform="translate(160.7026,154.223)"
           id="g266"><path
             id="path268"
             style="fill:#191919;fill-opacity:1;fill-rule:nonzero;stroke:none"
             d="m 0,0 -0.392,-1.755 -0.295,0 0.391,1.755 -0.324,0 0.059,0.267 0.947,0 L 0.327,0 0,0 Z" /></g><g
           transform="translate(162.6617,152.4678)"
           id="g270"><path
             id="path272"
             style="fill:#191919;fill-opacity:1;fill-rule:nonzero;stroke:none"
             d="m 0,0 0.451,2.022 0.296,0 L 0.296,0 0,0 Z" /></g><g
           transform="translate(166.1649,154.2308)"
           id="g274"><path
             id="path276"
             style="fill:#191919;fill-opacity:1;fill-rule:nonzero;stroke:none"
             d="m 0,0 -0.407,0 -0.335,-1.504 0.407,0 L 0,0 Z m -0.276,-1.763 -0.644,0 c -0.114,0 -0.161,0.066 -0.134,0.185 l 0.368,1.652 c 0.027,0.119 0.103,0.185 0.218,0.185 l 0.643,0 c 0.114,0 0.164,-0.066 0.137,-0.185 l -0.368,-1.652 c -0.027,-0.119 -0.107,-0.185 -0.22,-0.185" /></g><g
           transform="translate(168.9179,152.4678)"
           id="g278"><path
             id="path280"
             style="fill:#191919;fill-opacity:1;fill-rule:nonzero;stroke:none"
             d="m 0,0 -0.191,1.273 c 0,0 -0.002,-0.092 -0.014,-0.145 L -0.456,0 l -0.288,0 0.451,2.022 0.259,0 0.197,-1.246 c 0,0 0.002,0.092 0.014,0.145 l 0.246,1.101 0.288,0 L 0.26,0 0,0 Z" /></g><g
           transform="translate(174.4571,152.4678)"
           id="g282"><path
             id="path284"
             style="fill:#191919;fill-opacity:1;fill-rule:nonzero;stroke:none"
             d="M 0,0 -0.596,0 C -0.71,0 -0.761,0.066 -0.734,0.185 l 0.107,0.482 0.296,0 -0.092,-0.413 0.363,0 0.089,0.397 -0.466,0.575 c -0.04,0.045 -0.046,0.084 -0.029,0.161 l 0.101,0.45 c 0.026,0.119 0.106,0.185 0.22,0.185 l 0.596,0 c 0.114,0 0.164,-0.066 0.139,-0.182 l -0.101,-0.453 -0.296,0 0.085,0.381 -0.363,0 L -0.167,1.403 0.3,0.831 C 0.338,0.784 0.345,0.744 0.328,0.667 L 0.22,0.185 C 0.194,0.066 0.114,0 0,0" /></g><g
           transform="translate(177.5102,153.2116)"
           id="g286"><path
             id="path288"
             style="fill:#191919;fill-opacity:1;fill-rule:nonzero;stroke:none"
             d="m 0,0 -0.166,-0.744 -0.298,0 0.166,0.744 -0.109,1.268 0.002,0.011 0.307,0 0.039,-0.879 0.432,0.879 0.304,0 L 0.675,1.268 0,0 Z" /></g><g
           transform="translate(180.5277,152.4678)"
           id="g290"><path
             id="path292"
             style="fill:#191919;fill-opacity:1;fill-rule:nonzero;stroke:none"
             d="m 0,0 -0.596,0 c -0.115,0 -0.165,0.066 -0.138,0.185 l 0.107,0.482 0.296,0 -0.092,-0.413 0.363,0 0.089,0.397 -0.466,0.575 c -0.04,0.045 -0.046,0.084 -0.029,0.161 l 0.101,0.45 c 0.026,0.119 0.106,0.185 0.22,0.185 l 0.596,0 c 0.114,0 0.164,-0.066 0.139,-0.182 l -0.102,-0.453 -0.295,0 0.085,0.381 -0.363,0 L -0.167,1.403 0.3,0.831 C 0.338,0.784 0.345,0.744 0.328,0.667 L 0.22,0.185 C 0.194,0.066 0.114,0 0,0" /></g><g
           transform="translate(183.7366,154.223)"
           id="g294"><path
             id="path296"
             style="fill:#191919;fill-opacity:1;fill-rule:nonzero;stroke:none"
             d="m 0,0 -0.392,-1.755 -0.295,0 0.391,1.755 -0.324,0 0.059,0.267 0.947,0 L 0.327,0 0,0 Z" /></g><g
           transform="translate(185.6906,152.4678)"
           id="g298"><path
             id="path300"
             style="fill:#191919;fill-opacity:1;fill-rule:nonzero;stroke:none"
             d="m 0,0 0.451,2.022 0.815,0 -0.06,-0.267 -0.519,0 -0.132,-0.59 0.447,0 -0.059,-0.262 -0.446,0 -0.142,-0.635 0.527,0 L 0.822,0 0,0 Z" /></g><g
           transform="translate(189.4957,152.4678)"
           id="g302"><path
             id="path304"
             style="fill:#191919;fill-opacity:1;fill-rule:nonzero;stroke:none"
             d="M 0,0 0.223,0.998 C 0.24,1.075 0.29,1.218 0.29,1.218 l -0.487,-1.033 -0.15,0 -0.027,1.033 c 0,0 -0.014,-0.143 -0.031,-0.22 L -0.628,0 l -0.285,0 0.451,2.022 0.281,0 0.061,-1.117 c 0.001,-0.018 -0.012,-0.092 -0.012,-0.092 0,0 0.018,0.074 0.028,0.092 l 0.56,1.117 0.281,0 L 0.285,0 0,0 Z" /></g><g
           transform="translate(195.6478,104)"
           id="g306"><path
             id="path308"
             style="fill:#737373;fill-opacity:1;fill-rule:nonzero;stroke:none"
             d="m 0,0 c -0.829,2.323 -3.049,4 -5.648,4 l -124,0 c -2.598,0 -4.818,-1.677 -5.648,-4 l -0.352,0 0,-60 136,0 0,60 L 0,0 Z" /></g><path
           id="path310"
           style="fill:#666666;fill-opacity:1;fill-rule:nonzero;stroke:none"
           d="m 152,84 -48,0 0,24 48,0 0,-24 z" /><g
           transform="translate(30,62)"
           id="g312"><path
             id="path314"
             style="fill:#666666;fill-opacity:1;fill-rule:nonzero;stroke:none"
             d="m 0,0 c -3.314,0 -6,-2.686 -6,-6 0,-3.314 2.686,-6 6,-6 3.314,0 6,2.686 6,6 0,3.314 -2.686,6 -6,6" /></g><g
           transform="translate(30,60)"
           id="g316"><path
             id="path318"
             style="fill:#a3834a;fill-opacity:1;fill-rule:nonzero;stroke:none"
             d="m 0,0 c 2.209,0 4,-1.791 4,-4 0,-2.209 -1.791,-4 -4,-4 -2.209,0 -4,1.791 -4,4 0,2.209 1.791,4 4,4" /></g><g
           transform="translate(226,62)"
           id="g320"><path
             id="path322"
             style="fill:#666666;fill-opacity:1;fill-rule:nonzero;stroke:none"
             d="m 0,0 c -3.314,0 -6,-2.686 -6,-6 0,-3.314 2.686,-6 6,-6 3.314,0 6,2.686 6,6 0,3.314 -2.686,6 -6,6" /></g><g
           transform="translate(226,60)"
           id="g324"><path
             id="path326"
             style="fill:#a3834a;fill-opacity:1;fill-rule:nonzero;stroke:none"
             d="m 0,0 c 2.209,0 4,-1.791 4,-4 0,-2.209 -1.791,-4 -4,-4 -2.209,0 -4,1.791 -4,4 0,2.209 1.791,4 4,4" /></g><g
           transform="translate(95.7342,143.6366)"
           id="g328"><path
             id="path330"
             style="fill:#354f9f;fill-opacity:1;fill-rule:nonzero;stroke:none"
             d="M 0,0 C 0,0.091 0.003,0.124 -0.001,0.156 -0.026,0.362 -0.085,0.553 -0.224,0.709 -0.662,1.198 -1.193,1.524 -1.817,1.673 -2.111,1.744 -2.273,1.567 -2.22,1.261 -2.202,1.157 -2.176,1.053 -2.134,0.957 -1.938,0.502 -1.69,0.08 -1.378,-0.299 c 0.133,-0.161 0.286,-0.302 0.464,-0.408 0.399,-0.237 0.698,-0.118 0.835,0.336 C -0.037,-0.233 -0.018,-0.086 0,0 m 2.779,-0.705 c 0.266,-0.012 0.499,0.112 0.736,0.209 0.943,0.385 1.793,0.985 2.767,1.302 C 6.509,0.879 6.397,1.014 6.294,1.108 5.911,1.455 5.514,1.784 5.097,2.085 4.871,2.247 4.754,2.206 4.709,1.916 4.632,1.422 4.391,1.046 4.041,0.723 3.867,0.561 3.705,0.383 3.55,0.2 3.294,-0.103 2.996,-0.367 2.783,-0.71 2.777,-0.711 2.77,-0.712 2.765,-0.715 2.763,-0.717 2.764,-0.725 2.764,-0.729 c 0.005,0.008 0.01,0.016 0.015,0.024 m -6.513,-1.567 0,1.271 c 0.089,0.169 0.069,0.361 0.109,0.54 0.292,1.322 0.892,2.454 1.894,3.34 1.429,1.263 3.079,1.72 4.906,1.371 C 4.818,3.935 6.136,3.032 7.009,1.537 8.236,-0.562 8.21,-2.692 7.022,-4.814 6.861,-5.101 6.606,-5.32 6.488,-5.635 5.483,-5.15 4.609,-4.486 3.879,-3.611 3.253,-2.86 2.727,-2.029 2.099,-1.281 2.031,-1.199 2.024,-1.109 2.024,-1.009 2.022,0.413 2.117,1.822 2.549,3.184 2.616,3.398 2.556,3.506 2.359,3.567 1.933,3.7 1.51,3.843 1.083,3.972 0.929,4.018 0.759,4.076 0.622,3.923 0.488,3.773 0.532,3.595 0.594,3.44 0.847,2.806 0.944,2.143 0.978,1.464 1.047,0.075 0.994,-1.304 0.611,-2.648 0.196,-4.109 -0.624,-5.262 -1.854,-6.091 c -0.044,0.056 -0.084,0.116 -0.133,0.167 -0.781,0.817 -1.32,1.774 -1.584,2.9 -0.059,0.25 -0.053,0.515 -0.163,0.752" /></g><g
           transform="translate(102.2219,138.0015)"
           id="g332"><path
             id="path334"
             style="fill:#b80000;fill-opacity:1;fill-rule:nonzero;stroke:none"
             d="m 0,0 c 0.426,-0.21 0.87,-0.372 1.314,-0.532 0.161,-0.057 0.315,-0.126 0.464,-0.211 l 0,-0.097 C 1.703,-0.857 1.629,-0.881 1.553,-0.891 0.617,-1.015 -0.321,-1.09 -1.264,-1 -1.919,-0.802 -2.445,-0.392 -2.922,0.1 -3.505,0.703 -4.01,1.375 -4.51,2.051 -4.641,2.228 -4.772,2.405 -4.932,2.622 -4.969,2.464 -4.993,2.357 -5.018,2.25 -5.246,1.294 -5.66,0.458 -6.422,-0.161 -6.82,-0.484 -7.28,-0.681 -7.739,-0.879 -8.315,-1.025 -8.892,-1.16 -9.542,-1.182 c 0.445,0.237 0.843,0.446 1.2,0.726 1.231,0.829 2.05,1.982 2.466,3.443 C -5.494,4.331 -5.44,5.71 -5.51,7.1 -5.544,7.778 -5.641,8.441 -5.894,9.075 -5.955,9.23 -6,9.408 -5.865,9.558 c 0.137,0.153 0.306,0.095 0.461,0.049 0.427,-0.129 0.85,-0.272 1.276,-0.405 0.196,-0.061 0.257,-0.169 0.189,-0.382 -0.432,-1.363 -0.527,-2.772 -0.525,-4.194 0,-0.1 0.007,-0.19 0.075,-0.271 0.628,-0.748 1.154,-1.58 1.78,-2.331 C -1.879,1.149 -1.005,0.485 0,0" /></g><g
           transform="translate(98.5176,142.927)"
           id="g336"><path
             id="path338"
             style="fill:#b80000;fill-opacity:1;fill-rule:nonzero;stroke:none"
             d="M 0,0 C 0.213,0.342 0.511,0.607 0.767,0.91 0.921,1.092 1.083,1.27 1.258,1.432 1.607,1.756 1.849,2.131 1.926,2.626 1.971,2.915 2.088,2.956 2.313,2.794 2.73,2.494 3.128,2.165 3.51,1.818 3.614,1.724 3.726,1.589 3.498,1.515 2.524,1.199 1.674,0.599 0.731,0.213 0.494,0.116 0.262,-0.007 -0.004,0.004 L 0,0 Z" /></g><g
           transform="translate(95.7342,143.6366)"
           id="g340"><path
             id="path342"
             style="fill:#b80000;fill-opacity:1;fill-rule:nonzero;stroke:none"
             d="m 0,0 c -0.018,-0.086 -0.037,-0.233 -0.079,-0.371 -0.137,-0.454 -0.436,-0.573 -0.835,-0.336 -0.178,0.106 -0.331,0.247 -0.464,0.408 -0.312,0.379 -0.56,0.801 -0.756,1.256 -0.042,0.096 -0.068,0.2 -0.086,0.304 -0.053,0.306 0.109,0.483 0.403,0.412 C -1.193,1.524 -0.662,1.198 -0.224,0.709 -0.085,0.553 -0.026,0.362 -0.001,0.156 0.003,0.124 0,0.091 0,0" /></g><g
           transform="translate(98.5132,142.9312)"
           id="g344"><path
             id="path346"
             style="fill:#b80000;fill-opacity:1;fill-rule:nonzero;stroke:none"
             d="m 0,0 c -0.005,-0.008 -0.01,-0.016 -0.015,-0.024 0,0.005 -0.001,0.012 10e-4,0.014 0.005,0.003 0.012,0.004 0.018,0.006 L 0,0 Z" /></g><g
           transform="translate(100.9577,137.0015)"
           id="g348"><path
             id="path350"
             style="fill:#354f9f;fill-opacity:1;fill-rule:nonzero;stroke:none"
             d="m 0,0 c -0.301,-0.313 -0.692,-0.465 -1.077,-0.606 -1.861,-0.687 -3.632,-0.478 -5.303,0.624 -0.038,0.024 -0.064,0.068 -0.095,0.103 0.46,0.198 0.919,0.395 1.317,0.718 0.763,0.619 1.177,1.455 1.404,2.411 0.025,0.107 0.05,0.214 0.086,0.372 C -3.507,3.405 -3.376,3.228 -3.245,3.051 -2.746,2.374 -2.241,1.703 -1.657,1.1 -1.181,0.608 -0.655,0.198 0,0" /></g><g
           transform="translate(108.2794,141.4715)"
           id="g352"><path
             id="path354"
             style="fill:#808080;fill-opacity:1;fill-rule:nonzero;stroke:none"
             d="m 0,0 c 0.708,-0.074 1.41,-0.122 2.124,-0.122 0.205,0 0.64,0 0.64,0.249 0,0.185 -0.112,0.222 -1.224,0.222 -0.571,0 -1.198,0.164 -1.198,0.757 0,0.815 0.496,1.476 1.242,1.656 C 2,2.862 2.602,2.873 3.062,2.873 3.683,2.873 4.683,2.847 5.59,2.73 L 5.199,1.561 C 4.596,1.624 4,1.677 3.391,1.677 c -0.739,0 -0.913,-0.09 -0.913,-0.269 0,-0.154 0.124,-0.196 1.099,-0.196 0.708,0 1.329,-0.027 1.329,-0.82 0,-0.297 -0.161,-0.71 -0.291,-0.889 -0.385,-0.529 -1.006,-0.63 -2.23,-0.63 -0.994,0 -1.838,0.048 -2.664,0.175 L 0,0 Z" /></g><g
           transform="translate(114.4373,143.6566)"
           id="g356"><path
             id="path358"
             style="fill:#808080;fill-opacity:1;fill-rule:nonzero;stroke:none"
             d="m 0,0 1.801,0 -0.236,-0.751 0.013,0 c 0.378,0.598 0.869,0.862 1.658,0.862 0.621,0 1.174,-0.185 1.174,-0.741 0,-0.211 -0.062,-0.433 -0.137,-0.656 l -0.615,-1.915 -1.875,0 0.316,0.968 c 0.062,0.191 0.168,0.513 0.168,0.635 0,0.206 -0.168,0.27 -0.367,0.27 -0.347,0 -0.515,-0.09 -0.664,-0.577 L 0.838,-3.201 -1,-3.201 0,0 Z" /></g><g
           transform="translate(122.5207,142.4027)"
           id="g360"><path
             id="path362"
             style="fill:#808080;fill-opacity:1;fill-rule:nonzero;stroke:none"
             d="m 0,0 c 0.018,0.095 0.037,0.175 0.037,0.254 0,0.238 -0.31,0.296 -0.472,0.296 C -0.87,0.55 -1.112,0.444 -1.298,0 L 0,0 Z m -1.546,-0.672 c -0.026,-0.069 -0.032,-0.122 -0.032,-0.169 0,-0.344 0.504,-0.355 0.901,-0.355 0.584,0 1.155,0.111 1.708,0.212 L 0.546,-1.825 c -0.67,-0.149 -1.372,-0.233 -2.068,-0.233 -0.851,0 -1.913,0.068 -1.913,1.005 0,0.698 0.367,1.482 0.714,1.836 0.553,0.561 1.224,0.582 2.031,0.582 1.665,0 2.305,-0.249 2.305,-1.111 0,-0.185 -0.199,-0.714 -0.311,-0.926 l -2.85,0 z" /></g><g
           transform="translate(124.3493,141.3446)"
           id="g364"><path
             id="path366"
             style="fill:#808080;fill-opacity:1;fill-rule:nonzero;stroke:none"
             d="m 0,0 c 0.497,-0.074 1,-0.09 1.503,-0.09 0.143,0 0.745,0 0.745,0.201 0,0.116 -0.074,0.148 -0.217,0.148 -0.18,0 -0.435,-0.016 -0.708,-0.016 -0.739,0 -1.161,0.096 -1.161,0.773 0,0.735 0.459,1.407 2.223,1.407 0.615,0 1.609,0 2.416,-0.116 L 4.509,1.328 c -0.354,0.074 -1.143,0.09 -1.373,0.09 -0.26,0 -0.888,-0.011 -0.888,-0.212 0,-0.132 0.081,-0.158 0.311,-0.158 0.136,0 0.348,0.01 0.633,0.01 0.603,0 1.143,-0.048 1.143,-0.693 C 4.335,-0.931 3,-1 1.813,-1 1.118,-1 0.435,-0.953 -0.255,-0.9 L 0,0 Z" /></g><g
           transform="translate(132.482,142.9953)"
           id="g368"><path
             id="path370"
             style="fill:#808080;fill-opacity:1;fill-rule:nonzero;stroke:none"
             d="m 0,0 c 0,0.302 -0.255,0.344 -0.509,0.344 -0.479,0 -0.746,-0.36 -0.746,-0.693 0,-0.244 0.23,-0.312 0.522,-0.312 C -0.143,-0.661 0,-0.196 0,0 m -3.124,-1.577 c 0.46,-0.132 1,-0.211 1.484,-0.211 0.547,0 1.187,0.142 1.292,0.682 l -0.012,0 c -0.274,-0.211 -0.665,-0.275 -1.044,-0.275 -0.72,0 -1.652,0.122 -1.652,0.905 0,0.328 0.087,0.651 0.255,0.947 0.385,0.672 0.932,0.878 2.298,0.878 1.863,0 2.36,-0.381 2.36,-1.27 0,-0.513 -0.273,-1.307 -0.602,-1.857 -0.485,-0.82 -1.895,-0.873 -2.566,-0.873 -0.558,0 -1.335,0.08 -2.074,0.233 l 0.261,0.841 z" /></g><g
           transform="translate(136.8822,141.4133)"
           id="g372"><path
             id="path374"
             style="fill:#808080;fill-opacity:1;fill-rule:nonzero;stroke:none"
             d="m 0,0 -0.826,-0.958 -1.994,0 1.584,1.535 -0.708,1.666 1.901,0 0.279,-1.005 0.838,1.005 2.044,0 -1.708,-1.634 0.689,-1.567 -1.807,0 L 0,0 Z" /></g><g
           transform="translate(65.1985,142.9135)"
           id="g376"><path
             id="path378"
             style="fill:#a3834a;fill-opacity:1;fill-rule:nonzero;stroke:none"
             d="m 0,0 c -0.128,-0.264 -0.197,-0.57 -0.209,-0.919 l 0,-0.181 c 0,-0.062 0.002,-0.124 0.006,-0.187 0.012,-0.13 0.038,-0.257 0.078,-0.381 C -0.086,-1.793 -0.02,-1.903 0.072,-2 0.167,-2.1 0.278,-2.162 0.403,-2.187 0.529,-2.211 0.657,-2.223 0.788,-2.223 l 0.027,0 0.027,0 1.481,0.006 0,-0.697 -1.523,0 c -0.243,0 -0.477,0.021 -0.702,0.062 -0.224,0.04 -0.437,0.135 -0.636,0.284 -0.238,0.182 -0.406,0.404 -0.501,0.666 -0.096,0.262 -0.148,0.53 -0.155,0.805 -0.005,0.059 -0.005,0.117 -0.004,0.172 0.002,0.056 0.006,0.112 0.009,0.167 0.044,0.632 0.228,1.096 0.553,1.393 0.324,0.297 0.811,0.446 1.46,0.446 l 1.499,0.005 0,-0.685 -1.481,0 C 0.408,0.397 0.127,0.264 0,0" /></g><g
           transform="translate(69.2295,141.6656)"
           id="g380"><path
             id="path382"
             style="fill:#a3834a;fill-opacity:1;fill-rule:nonzero;stroke:none"
             d="M 0,0 1.278,0 0.627,1.538 0,0 Z m 1.141,2.334 1.827,-4 -1.003,0 -0.394,0.953 -1.864,0 -0.382,-0.953 -0.949,0 1.809,4 0.956,0 z" /></g><g
           transform="translate(72.0545,143.298)"
           id="g384"><path
             id="path386"
             style="fill:#a3834a;fill-opacity:1;fill-rule:nonzero;stroke:none"
             d="m 0,0 0,0.696 3.703,0 0,-0.696 -1.392,0 0,-3.298 -0.931,0 L 1.38,0 0,0 Z" /></g><g
           transform="translate(77.5905,143.2869)"
           id="g388"><path
             id="path390"
             style="fill:#b80000;fill-opacity:1;fill-rule:nonzero;stroke:none"
             d="m 0,0 c -0.195,-0.004 -0.359,-0.042 -0.493,-0.114 -0.133,-0.073 -0.2,-0.211 -0.2,-0.415 0,-0.156 0.057,-0.268 0.171,-0.334 0.113,-0.067 0.245,-0.101 0.397,-0.101 l 1.194,0.006 c 0.044,-0.004 0.09,-0.006 0.138,-0.006 0.047,0 0.095,-0.002 0.143,-0.005 0.139,-0.008 0.276,-0.029 0.412,-0.064 0.135,-0.036 0.255,-0.1 0.358,-0.193 0.096,-0.081 0.167,-0.18 0.215,-0.295 0.048,-0.115 0.078,-0.234 0.09,-0.356 C 2.429,-1.915 2.432,-1.951 2.434,-1.986 2.436,-2.021 2.437,-2.058 2.437,-2.095 2.429,-2.559 2.291,-2.874 2.025,-3.039 1.758,-3.204 1.396,-3.287 0.938,-3.287 l -2.401,0 0,0.713 2.257,0 c 0.199,-0.004 0.372,0.026 0.517,0.089 0.145,0.063 0.204,0.206 0.176,0.429 -0.02,0.175 -0.089,0.282 -0.209,0.323 -0.119,0.041 -0.261,0.064 -0.424,0.067 l -1.063,0.006 c -0.442,-0.004 -0.791,0.079 -1.048,0.248 -0.257,0.169 -0.383,0.474 -0.379,0.916 0.008,0.464 0.146,0.781 0.415,0.95 0.269,0.169 0.632,0.253 1.09,0.253 L 2.228,0.713 2.228,0 0,0 Z" /></g><g
           transform="translate(81.0633,143.4929)"
           id="g392"><path
             id="path394"
             style="fill:#007b00;fill-opacity:1;fill-rule:nonzero;stroke:none"
             d="m 0,0 c 0.261,0.334 0.833,0.501 1.717,0.501 l 1.374,0.006 0,-0.696 -1.451,0 C 1.261,-0.197 0.983,-0.273 0.806,-0.418 0.629,-0.563 0.531,-0.813 0.511,-1.17 l 2.58,0.006 0,-0.691 -2.58,0 0,-1.638 -0.902,0 0,1.838 c 0,0.769 0.13,1.321 0.391,1.655" /></g><g
           transform="translate(85.6768,142.9135)"
           id="g396"><path
             id="path398"
             style="fill:#354f9f;fill-opacity:1;fill-rule:nonzero;stroke:none"
             d="m 0,0 c -0.128,-0.264 -0.197,-0.57 -0.209,-0.919 l 0,-0.181 c 0,-0.062 0.002,-0.124 0.006,-0.187 0.012,-0.13 0.038,-0.257 0.078,-0.381 C -0.086,-1.793 -0.02,-1.903 0.072,-2 0.167,-2.1 0.278,-2.162 0.403,-2.187 0.529,-2.211 0.657,-2.223 0.788,-2.223 l 0.027,0 0.027,0 1.481,0.006 0,-0.697 -1.523,0 c -0.243,0 -0.477,0.021 -0.702,0.062 -0.224,0.04 -0.437,0.135 -0.636,0.284 -0.238,0.182 -0.406,0.404 -0.501,0.666 -0.096,0.262 -0.148,0.53 -0.155,0.805 -0.005,0.059 -0.005,0.117 -0.004,0.172 0.002,0.056 0.006,0.112 0.009,0.167 0.044,0.632 0.228,1.096 0.553,1.393 0.324,0.297 0.811,0.446 1.46,0.446 l 1.499,0.005 0,-0.685 -1.481,0 C 0.408,0.397 0.127,0.264 0,0" /></g><path
           id="path400"
           style="fill:#354f9f;fill-opacity:1;fill-rule:nonzero;stroke:none"
           d="m 145.848,144.873 -1.313,0 0,-2.67 1.313,0 0,2.67 z m 0.102,-3.149 -1.415,0 0,-2.38 -0.535,0 0,6 1.95,0 c 0.252,0 0.433,-0.172 0.433,-0.424 l 0,-2.764 c 0,-0.251 -0.181,-0.432 -0.433,-0.432" /><path
           id="path402"
           style="fill:#354f9f;fill-opacity:1;fill-rule:nonzero;stroke:none"
           d="m 149.232,144.873 -1.471,0 0,-5.057 1.471,0 0,5.057 z m 0.102,-5.529 -1.683,0 c -0.252,0 -0.425,0.173 -0.425,0.424 l 0,5.152 c 0,0.252 0.173,0.424 0.425,0.424 l 1.683,0 c 0.252,0 0.432,-0.172 0.432,-0.424 l 0,-5.152 c 0,-0.251 -0.18,-0.424 -0.432,-0.424" /><g
           transform="translate(152.7015,139.3444)"
           id="g404"><path
             id="path406"
             style="fill:#354f9f;fill-opacity:1;fill-rule:nonzero;stroke:none"
             d="m 0,0 -1.55,0 c -0.251,0 -0.424,0.173 -0.424,0.424 l 0,5.152 C -1.974,5.827 -1.801,6 -1.55,6 L 0,6 C 0.252,6 0.432,5.827 0.432,5.576 l 0,-1.398 -0.534,0 0,1.351 -1.337,0 0,-5.058 1.337,0 0,1.477 0.534,0 0,-1.524 C 0.432,0.173 0.252,0 0,0" /></g><g
           transform="translate(155.9902,139.3444)"
           id="g408"><path
             id="path410"
             style="fill:#354f9f;fill-opacity:1;fill-rule:nonzero;stroke:none"
             d="m 0,0 -1.384,2.882 0,-2.882 -0.535,0 0,6 0.535,0 0,-2.694 L -0.126,6 0.456,6 0.456,5.969 -0.905,3.11 0.59,0.031 0.59,0 0,0 Z" /></g><g
           transform="translate(157.0698,139.3444)"
           id="g412"><path
             id="path414"
             style="fill:#354f9f;fill-opacity:1;fill-rule:nonzero;stroke:none"
             d="m 0,0 0,6 1.95,0 0,-0.471 -1.415,0 0,-2.238 1.289,0 0,-0.479 -1.289,0 0,-2.341 1.439,0 L 1.974,0 0,0 Z" /></g><g
           transform="translate(161.0194,144.8732)"
           id="g416"><path
             id="path418"
             style="fill:#354f9f;fill-opacity:1;fill-rule:nonzero;stroke:none"
             d="m 0,0 0,-5.529 -0.535,0 0,5.529 -0.936,0 0,0.471 2.399,0 L 0.928,0 0,0 Z" /></g><g
           transform="translate(166.039,139.3444)"
           id="g420"><path
             id="path422"
             style="fill:#b80000;fill-opacity:1;fill-rule:nonzero;stroke:none"
             d="m 0,0 -1.51,0 c -0.252,0 -0.433,0.173 -0.433,0.424 l 0,1.524 0.535,0 0,-1.477 1.298,0 0,1.429 -1.659,2.003 c -0.126,0.149 -0.174,0.252 -0.174,0.456 l 0,1.217 C -1.943,5.827 -1.762,6 -1.51,6 L 0,6 C 0.252,6 0.425,5.827 0.425,5.576 l 0,-1.398 -0.535,0 0,1.351 -1.298,0 0,-1.264 1.667,-2.003 C 0.385,2.113 0.425,2.01 0.425,1.814 l 0,-1.39 C 0.425,0.173 0.252,0 0,0" /></g><g
           transform="translate(169.5166,139.3444)"
           id="g424"><path
             id="path426"
             style="fill:#b80000;fill-opacity:1;fill-rule:nonzero;stroke:none"
             d="m 0,0 -1.605,4.414 0,-4.414 -0.503,0 0,6 0.401,0 1.573,-4.335 0,4.335 0.503,0 0,-6 L 0,0 Z" /></g><g
           transform="translate(170.8472,139.3444)"
           id="g428"><path
             id="path430"
             style="fill:#b80000;fill-opacity:1;fill-rule:nonzero;stroke:none"
             d="m 0,0 0,6 1.95,0 0,-0.471 -1.415,0 0,-2.238 1.289,0 0,-0.479 -1.289,0 0,-2.341 1.439,0 L 1.974,0 0,0 Z" /></g><g
           transform="translate(175.5755,139.3444)"
           id="g432"><path
             id="path434"
             style="fill:#b80000;fill-opacity:1;fill-rule:nonzero;stroke:none"
             d="m 0,0 -1.51,0 c -0.252,0 -0.433,0.173 -0.433,0.424 l 0,1.524 0.535,0 0,-1.477 1.298,0 0,1.429 -1.66,2.003 c -0.125,0.149 -0.173,0.252 -0.173,0.456 l 0,1.217 C -1.943,5.827 -1.762,6 -1.51,6 L 0,6 C 0.252,6 0.425,5.827 0.425,5.576 l 0,-1.398 -0.535,0 0,1.351 -1.298,0 0,-1.264 1.667,-2.003 C 0.385,2.113 0.425,2.01 0.425,1.814 l 0,-1.39 C 0.425,0.173 0.252,0 0,0" /></g><g
           transform="translate(183.8068,139.916)"
           id="g436"><path
             id="path438"
             style="fill:#191919;fill-opacity:1;fill-rule:nonzero;stroke:none"
             d="m 0,0 c -0.064,-0.038 -0.141,-0.042 -0.213,-0.029 0.049,-0.119 0.069,-0.247 0.1,-0.371 0.035,-0.122 0.079,-0.27 0.209,-0.321 0.085,-0.04 0.183,-0.001 0.247,0.061 0.101,0.097 0.162,0.225 0.222,0.349 0.02,0.044 0.04,0.088 0.061,0.132 C 0.534,-0.18 0.444,-0.151 0.365,-0.105 0.288,-0.058 0.271,0.057 0.176,0.079 0.108,0.081 0.057,0.029 0,0 M 4.952,0.864 C 4.702,0.809 4.447,0.727 4.188,0.768 4.21,0.596 4.184,0.421 4.122,0.26 4.09,0.241 4.149,0.216 4.157,0.246 L 4.177,0.234 C 4.199,0.174 4.265,0.152 4.323,0.146 4.473,0.131 4.622,0.164 4.763,0.208 4.729,0.24 4.684,0.27 4.677,0.32 4.682,0.342 4.692,0.361 4.701,0.381 4.804,0.377 4.906,0.36 5.008,0.348 5.147,0.452 5.234,0.629 5.221,0.803 5.219,0.85 5.188,0.897 5.139,0.904 5.075,0.913 5.01,0.889 4.952,0.864 M 5.742,1.143 5.739,1.137 C 5.608,1.097 5.483,1.041 5.353,0.998 5.383,0.808 5.344,0.608 5.252,0.44 5.212,0.414 5.295,0.4 5.279,0.439 5.288,0.44 5.306,0.44 5.315,0.441 5.318,0.406 5.359,0.397 5.387,0.399 5.498,0.408 5.603,0.454 5.7,0.507 5.668,0.533 5.631,0.556 5.611,0.593 5.597,0.618 5.614,0.645 5.621,0.67 5.7,0.668 5.779,0.66 5.858,0.647 5.939,0.743 6,0.87 5.976,0.999 5.962,1.061 5.941,1.131 5.883,1.166 5.836,1.192 5.787,1.159 5.742,1.143 M 6.47,1.46 C 6.342,1.402 6.214,1.342 6.086,1.285 6.136,1.078 6.093,0.859 5.987,0.676 6.014,0.693 6.052,0.699 6.073,0.723 6.116,0.695 6.17,0.698 6.218,0.711 6.312,0.737 6.402,0.779 6.484,0.833 6.437,0.867 6.377,0.924 6.429,0.983 6.488,0.976 6.548,0.971 6.607,0.962 6.681,1.062 6.754,1.187 6.724,1.316 6.69,1.397 6.623,1.468 6.536,1.493 6.514,1.482 6.492,1.471 6.47,1.46 M 2.424,1.738 C 2.312,1.721 2.198,1.692 2.098,1.636 1.981,1.553 1.893,1.415 1.899,1.268 1.904,1.125 1.984,0.998 2.075,0.893 2.244,0.708 2.467,0.562 2.717,0.519 2.905,0.49 3.107,0.494 3.28,0.582 3.441,0.659 3.59,0.791 3.633,0.969 3.674,1.127 3.661,1.32 3.535,1.437 3.383,1.579 3.187,1.668 2.985,1.709 2.801,1.748 2.611,1.765 2.424,1.738 M 7.129,1.814 C 7.02,1.749 6.909,1.687 6.797,1.627 6.849,1.426 6.812,1.212 6.73,1.024 6.764,1.047 6.796,1.072 6.826,1.098 6.879,1.042 6.956,1.09 7.01,1.121 7.256,1.273 7.319,1.616 7.231,1.876 7.197,1.855 7.163,1.835 7.129,1.814 M -1.948,2.061 C -2.079,1.985 -2.194,1.865 -2.224,1.712 -2.259,1.53 -2.187,1.335 -2.054,1.208 -1.969,1.125 -1.856,1.077 -1.741,1.055 L -1.74,1.052 c 0.07,-0.005 0.143,-0.027 0.213,-0.009 0.242,0.007 0.479,0.098 0.673,0.242 0.144,0.111 0.271,0.273 0.272,0.463 0.005,0.093 -0.051,0.175 -0.11,0.242 -0.129,0.135 -0.316,0.195 -0.496,0.217 -0.26,0.027 -0.532,-0.014 -0.76,-0.146 M 7.628,2.168 C 7.575,2.125 7.522,2.08 7.466,2.04 7.54,1.91 7.511,1.754 7.489,1.614 7.511,1.639 7.532,1.665 7.553,1.69 7.555,1.676 7.559,1.649 7.561,1.636 7.598,1.649 7.636,1.671 7.651,1.71 7.697,1.809 7.719,1.92 7.717,2.03 7.719,2.098 7.694,2.163 7.701,2.231 7.676,2.211 7.652,2.19 7.628,2.168 M 0.195,2.686 C 0.2,2.628 0.202,2.569 0.202,2.511 0.193,2.464 0.169,2.424 0.136,2.391 0.129,2.429 0.118,2.466 0.104,2.502 0.083,2.557 0.063,2.612 0.043,2.668 -0.375,2.613 -0.785,2.494 -1.166,2.314 -1.172,2.322 -1.184,2.339 -1.191,2.347 -1.22,2.33 -1.248,2.314 -1.277,2.298 -1.164,2.295 -1.052,2.279 -0.943,2.25 -0.851,2.223 -0.761,2.188 -0.68,2.136 l 0.003,0.002 C -0.632,2.103 -0.588,2.066 -0.549,2.025 -0.445,1.903 -0.429,1.726 -0.49,1.581 -0.601,1.307 -0.831,1.085 -1.108,0.982 -1.217,0.944 -1.332,0.921 -1.448,0.916 -1.579,0.911 -1.71,0.929 -1.834,0.97 -1.924,1.003 -2.008,1.05 -2.084,1.108 -2.073,0.98 -2.037,0.854 -1.98,0.739 -2.032,0.715 -2.1,0.655 -2.054,0.594 c 0.061,-0.065 0.156,-0.082 0.241,-0.099 0.225,-0.278 0.527,-0.483 0.844,-0.643 0.26,-0.132 0.533,-0.236 0.816,-0.308 -0.024,0.075 -0.042,0.152 -0.057,0.23 -0.014,0.069 -0.021,0.14 -0.04,0.208 -0.063,0.05 -0.111,0.115 -0.126,0.195 -0.002,0.054 0.005,0.109 0.034,0.155 -0.007,-0.059 -0.013,-0.119 0.002,-0.177 0.036,-0.08 0.112,-0.14 0.2,-0.15 C -0.089,0 -0.042,0.025 0.002,0.047 0.057,0.078 0.113,0.114 0.177,0.118 0.249,0.114 0.28,0.04 0.316,-0.01 l 0.002,0 c 0.071,-0.081 0.178,-0.14 0.288,-0.124 0.057,0.007 0.105,0.043 0.145,0.081 0.036,0.045 0.065,0.094 0.086,0.146 C 0.84,0.094 0.846,0.095 0.849,0.095 0.846,-0.021 0.764,-0.119 0.663,-0.166 0.653,-0.216 0.637,-0.264 0.622,-0.313 0.582,-0.392 0.54,-0.47 0.489,-0.542 0.466,-0.559 0.497,-0.563 0.508,-0.564 0.68,-0.58 0.852,-0.587 1.024,-0.592 c 0.432,-0.013 0.867,-0.007 1.293,0.075 0.297,0.058 0.589,0.147 0.864,0.273 0.215,0.102 0.424,0.233 0.577,0.42 C 3.894,0.349 3.956,0.587 3.895,0.802 3.846,0.966 3.769,1.121 3.68,1.267 3.707,1.165 3.732,1.059 3.716,0.953 3.711,0.886 3.683,0.826 3.659,0.764 l 0.001,-0.013 -0.008,0 C 3.578,0.632 3.468,0.537 3.341,0.478 2.911,0.279 2.359,0.389 2.041,0.741 1.903,0.895 1.776,1.084 1.779,1.299 1.783,1.472 1.905,1.617 2.051,1.698 2.296,1.835 2.586,1.868 2.862,1.843 2.983,1.827 3.104,1.803 3.215,1.75 3.253,1.732 3.292,1.716 3.332,1.702 3.223,1.826 3.096,1.931 2.967,2.032 2.932,2.059 2.894,2.082 2.856,2.104 2.317,2.416 1.711,2.608 1.093,2.678 1.074,2.627 1.055,2.575 1.037,2.524 1.018,2.474 1.001,2.423 0.985,2.372 0.942,2.414 0.928,2.473 0.922,2.53 0.924,2.585 0.928,2.639 0.933,2.693 0.688,2.711 0.44,2.708 0.195,2.686 M -0.56,2.976 C -0.59,2.912 -0.482,2.935 -0.446,2.938 -0.322,2.943 -0.2,2.962 -0.076,2.975 -0.085,2.993 -0.094,3.01 -0.103,3.027 -0.11,3.046 -0.117,3.066 -0.124,3.086 -0.127,3.094 -0.135,3.11 -0.139,3.118 -0.281,3.077 -0.426,3.04 -0.56,2.976 m 0.169,0.135 c 0.074,0.025 0.148,0.052 0.222,0.078 C -0.177,3.207 -0.185,3.225 -0.193,3.243 -0.26,3.201 -0.328,3.159 -0.391,3.111 M 1.325,3.272 C 1.321,3.261 1.315,3.239 1.311,3.228 l -0.003,0 C 1.302,3.213 1.295,3.197 1.288,3.182 1.281,3.163 1.274,3.144 1.266,3.125 1.261,3.111 1.255,3.098 1.249,3.084 1.239,3.058 1.229,3.032 1.219,3.006 1.75,2.96 2.279,2.84 2.759,2.604 3.358,2.317 3.864,1.851 4.22,1.292 4.241,1.262 4.28,1.201 4.319,1.242 4.369,1.348 4.351,1.471 4.341,1.583 4.313,1.825 4.153,2.023 3.989,2.191 3.734,2.439 3.431,2.634 3.115,2.793 2.557,3.069 1.945,3.234 1.325,3.272 M 0.054,3.172 C 0.056,3.163 0.06,3.145 0.062,3.137 l 0.004,0 C 0.074,3.113 0.083,3.089 0.091,3.065 0.099,3.041 0.107,3.017 0.114,2.993 0.412,3.02 0.711,3.03 1.009,3.017 1.019,3.05 1.029,3.083 1.039,3.116 1.05,3.149 1.061,3.182 1.072,3.215 l 0.002,0 c 0.007,0.023 0.015,0.046 0.022,0.069 -0.35,0 -0.7,-0.035 -1.042,-0.112 M -0.024,3.353 C -0.017,3.337 -0.01,3.321 -0.002,3.305 0.005,3.285 0.014,3.265 0.022,3.245 0.387,3.346 0.765,3.402 1.144,3.408 1.16,3.448 1.177,3.488 1.193,3.528 1.216,3.582 1.239,3.636 1.262,3.69 1.301,3.775 1.343,3.859 1.38,3.945 1.419,4.009 1.447,4.08 1.485,4.145 0.96,3.927 0.457,3.657 -0.024,3.353 m 4.4,0.917 C 3.971,4.186 3.574,4.056 3.207,3.864 3.029,3.767 2.852,3.658 2.72,3.501 2.667,3.436 2.622,3.352 2.641,3.265 2.662,3.184 2.736,3.131 2.81,3.101 3.162,2.962 3.497,2.778 3.799,2.549 4.026,2.375 4.238,2.176 4.398,1.937 4.486,1.801 4.568,1.648 4.563,1.481 4.563,1.414 4.526,1.356 4.498,1.297 4.627,1.32 4.749,1.369 4.872,1.413 5.333,1.586 5.785,1.779 6.234,1.982 6.548,2.127 6.862,2.272 7.16,2.448 7.232,2.49 7.303,2.54 7.344,2.615 7.412,2.728 7.412,2.868 7.386,2.994 7.328,3.243 7.176,3.459 7.005,3.646 6.796,3.869 6.547,4.054 6.28,4.2 6.114,4.267 5.936,4.303 5.76,4.33 5.3,4.396 4.83,4.362 4.376,4.27 M 1.911,4.31 C 1.873,4.295 1.831,4.287 1.797,4.263 1.765,4.213 1.741,4.16 1.714,4.107 1.64,3.969 1.574,3.827 1.507,3.685 1.485,3.638 1.464,3.592 1.444,3.544 l -0.003,0 C 1.423,3.498 1.403,3.451 1.383,3.405 1.511,3.398 1.64,3.386 1.768,3.406 1.866,3.419 1.96,3.451 2.05,3.489 2.721,3.774 3.394,4.06 4.091,4.274 4.526,4.408 4.971,4.512 5.425,4.547 5.383,4.559 5.341,4.574 5.298,4.58 5.098,4.633 4.894,4.666 4.689,4.689 3.749,4.787 2.797,4.623 1.911,4.31 m -5.45,0.971 C -3.625,5.234 -3.693,5.154 -3.722,5.06 -3.745,4.998 -3.749,4.929 -3.736,4.863 c 0.007,-0.03 0.016,-0.06 0.031,-0.087 0.068,-0.17 0.271,-0.262 0.446,-0.222 0.159,0.03 0.292,0.167 0.312,0.328 0.019,0.125 -0.028,0.257 -0.121,0.341 -0.123,0.118 -0.323,0.14 -0.471,0.058 M 4.553,5.668 C 4.471,5.461 4.518,5.198 4.694,5.053 4.788,4.974 4.921,4.94 5.041,4.972 5.189,5.008 5.307,5.129 5.356,5.271 5.369,5.304 5.379,5.339 5.383,5.375 5.399,5.457 5.396,5.544 5.37,5.623 5.329,5.812 5.154,5.974 4.955,5.969 4.773,5.97 4.615,5.833 4.553,5.668 M 2.853,5.66 C 2.448,5.313 2.14,4.869 1.877,4.409 2.796,4.724 3.774,4.884 4.746,4.821 4.563,4.899 4.409,5.048 4.34,5.236 4.289,5.372 4.294,5.531 4.365,5.66 4.443,5.805 4.581,5.908 4.728,5.978 4.739,5.981 4.77,6 4.742,6.006 4.495,6.106 4.227,6.161 3.959,6.145 3.546,6.123 3.162,5.925 2.853,5.66 m 1.349,0.768 0.283,0 C 4.76,6.408 5.056,6.352 5.264,6.157 5.422,6.013 5.484,5.79 5.471,5.581 5.457,5.364 5.417,5.135 5.283,4.958 5.224,4.877 5.135,4.825 5.041,4.793 5.632,4.728 6.218,4.574 6.75,4.305 7.037,4.158 7.308,3.975 7.534,3.744 7.724,3.547 7.885,3.31 7.941,3.038 7.974,2.884 7.964,2.722 7.916,2.572 8.014,2.331 7.993,2.057 7.913,1.814 7.842,1.596 7.707,1.394 7.513,1.268 7.458,1.231 7.389,1.234 7.326,1.241 7.235,1.104 7.124,0.98 6.997,0.876 7.26,0.795 7.514,0.677 7.733,0.507 7.902,0.376 8.049,0.207 8.128,0.005 8.165,-0.088 8.182,-0.187 8.193,-0.285 l 0,-0.118 C 8.185,-0.461 8.174,-0.522 8.136,-0.569 8.092,-0.622 8.002,-0.635 7.95,-0.587 7.926,-0.562 7.934,-0.523 7.933,-0.492 7.946,-0.371 7.891,-0.258 7.857,-0.146 7.783,0.075 7.65,0.281 7.456,0.414 7.27,0.558 7.033,0.604 6.818,0.689 6.734,0.728 6.639,0.718 6.554,0.753 6.482,0.672 6.401,0.599 6.313,0.536 6.603,0.435 6.885,0.296 7.115,0.089 7.315,-0.087 7.47,-0.325 7.506,-0.593 7.52,-0.717 7.535,-0.854 7.472,-0.967 7.429,-1.044 7.298,-1.068 7.247,-0.989 7.223,-0.919 7.255,-0.842 7.233,-0.771 7.175,-0.573 7.112,-0.372 6.993,-0.201 6.883,-0.04 6.726,0.084 6.555,0.173 6.425,0.232 6.288,0.273 6.154,0.321 6.078,0.346 6.002,0.386 5.919,0.376 5.867,0.372 5.818,0.392 5.772,0.413 5.691,0.339 5.599,0.28 5.505,0.224 5.562,0.193 5.626,0.177 5.686,0.151 5.954,0.039 6.212,-0.106 6.426,-0.305 6.624,-0.488 6.783,-0.724 6.837,-0.992 6.865,-1.139 6.884,-1.297 6.835,-1.442 6.815,-1.506 6.762,-1.556 6.697,-1.572 l -0.058,0 c -0.037,0.012 -0.08,0.027 -0.09,0.068 -0.018,0.078 0.014,0.159 -0.01,0.235 -0.072,0.246 -0.151,0.497 -0.31,0.702 -0.128,0.168 -0.303,0.298 -0.492,0.39 C 5.475,-0.068 5.199,0.006 4.938,0.119 4.712,-0.022 4.437,-0.039 4.177,-0.037 4.108,-0.039 4.04,-0.024 3.976,-0.001 3.794,-0.217 3.552,-0.376 3.298,-0.496 3.058,-0.605 2.807,-0.687 2.552,-0.749 2.149,-0.845 1.735,-0.873 1.323,-0.875 c -0.422,0.009 -0.845,0.018 -1.261,0.093 -0.5,0.085 -0.979,0.274 -1.416,0.53 -0.034,-0.115 -0.06,-0.232 -0.085,-0.349 -0.017,-0.079 0.006,-0.16 -0.009,-0.239 -0.011,-0.065 -0.098,-0.088 -0.145,-0.046 -0.064,0.055 -0.073,0.146 -0.082,0.224 -0.012,0.195 0.017,0.39 0.074,0.576 -0.123,0.093 -0.24,0.194 -0.342,0.309 -0.107,-0.104 -0.194,-0.229 -0.255,-0.366 -0.085,-0.189 -0.131,-0.392 -0.174,-0.594 -0.018,-0.083 0.005,-0.168 -0.011,-0.251 -0.015,-0.069 -0.114,-0.08 -0.156,-0.031 -0.058,0.066 -0.066,0.159 -0.072,0.243 -0.007,0.254 0.041,0.512 0.156,0.739 0.087,0.173 0.209,0.326 0.35,0.458 -0.179,0.235 -0.273,0.533 -0.255,0.829 0.004,0.095 0.025,0.189 0.044,0.282 0.055,0.129 0.088,0.267 0.156,0.39 0.061,0.076 0.104,0.172 0.191,0.221 0.101,0.032 0.16,0.126 0.243,0.186 0.099,0.07 0.197,0.144 0.304,0.204 0.065,0.039 0.136,0.07 0.196,0.118 0.314,0.253 0.64,0.492 0.979,0.71 -0.142,0.304 -0.3,0.601 -0.487,0.879 C -0.936,4.539 -1.171,4.821 -1.459,5.041 -1.72,5.243 -2.031,5.386 -2.36,5.424 -2.624,5.458 -2.894,5.422 -3.148,5.344 -3.015,5.283 -2.879,5.204 -2.802,5.074 -2.734,4.962 -2.744,4.814 -2.813,4.704 -2.912,4.544 -3.09,4.438 -3.275,4.413 -3.412,4.394 -3.559,4.437 -3.652,4.542 -3.755,4.655 -3.791,4.811 -3.807,4.959 l 0,0.173 c 0.021,0.139 0.092,0.272 0.209,0.354 0.203,0.145 0.462,0.174 0.705,0.183 0.299,0 0.6,-0.039 0.886,-0.126 0.401,-0.131 0.734,-0.407 1.019,-0.709 0.374,-0.403 0.673,-0.87 0.911,-1.363 0.522,0.323 1.07,0.604 1.643,0.824 0.327,0.577 0.712,1.134 1.215,1.571 0.209,0.178 0.44,0.336 0.7,0.429 0.232,0.081 0.477,0.115 0.721,0.133" /></g><g
           transform="translate(191.5076,142.1474)"
           id="g440"><path
             id="path442"
             style="fill:#74b743;fill-opacity:1;fill-rule:nonzero;stroke:none"
             d="m 0,0 c -0.024,-0.021 -0.049,-0.041 -0.072,-0.063 -0.054,-0.044 -0.106,-0.088 -0.163,-0.128 0.074,-0.13 0.045,-0.286 0.024,-0.427 0.021,0.026 0.042,0.051 0.063,0.076 0.002,-0.013 0.006,-0.04 0.008,-0.054 0.038,0.013 0.075,0.035 0.091,0.074 0.045,0.1 0.068,0.211 0.065,0.32 C 0.018,-0.134 -0.007,-0.068 0,0" /></g><g
           transform="translate(190.9356,141.7305)"
           id="g444"><path
             id="path446"
             style="fill:#74b743;fill-opacity:1;fill-rule:nonzero;stroke:none"
             d="m 0,0 c -0.109,-0.065 -0.22,-0.127 -0.331,-0.187 0.052,-0.201 0.014,-0.416 -0.068,-0.603 0.034,0.022 0.066,0.047 0.096,0.074 0.053,-0.056 0.13,-0.008 0.184,0.022 0.247,0.153 0.31,0.495 0.221,0.756 C 0.068,0.04 0.034,0.02 0,0" /></g><g
           transform="translate(190.4139,140.878)"
           id="g448"><path
             id="path450"
             style="fill:#74b743;fill-opacity:1;fill-rule:nonzero;stroke:none"
             d="M 0,0 C 0.074,0.1 0.147,0.225 0.117,0.354 0.083,0.435 0.016,0.506 -0.071,0.531 -0.093,0.52 -0.115,0.509 -0.138,0.498 -0.266,0.44 -0.393,0.38 -0.521,0.323 c 0.05,-0.207 0.007,-0.426 -0.099,-0.609 0.027,0.017 0.064,0.023 0.085,0.047 0.044,-0.028 0.097,-0.025 0.146,-0.012 0.094,0.026 0.184,0.068 0.266,0.122 -0.047,0.034 -0.107,0.091 -0.055,0.15 C -0.119,0.014 -0.059,0.009 0,0" /></g><g
           transform="translate(189.6898,141.0824)"
           id="g452"><path
             id="path454"
             style="fill:#74b743;fill-opacity:1;fill-rule:nonzero;stroke:none"
             d="m 0,0 c -0.047,0.026 -0.096,-0.007 -0.141,-0.023 l -0.003,-0.006 c -0.131,-0.04 -0.256,-0.096 -0.386,-0.139 0.03,-0.19 -0.009,-0.39 -0.101,-0.559 0.007,0 0.02,0 0.027,0 0.009,0.001 0.027,0.001 0.036,0.001 0.003,-0.034 0.044,-0.043 0.072,-0.041 0.111,0.009 0.216,0.055 0.313,0.108 -0.032,0.026 -0.069,0.049 -0.089,0.085 -0.014,0.026 0.003,0.053 0.01,0.078 0.079,-0.002 0.158,-0.011 0.237,-0.024 0.081,0.097 0.142,0.224 0.118,0.352 C 0.079,-0.105 0.058,-0.035 0,0" /></g><g
           transform="translate(188.9456,140.8198)"
           id="g456"><path
             id="path458"
             style="fill:#74b743;fill-opacity:1;fill-rule:nonzero;stroke:none"
             d="m 0,0 c -0.064,0.009 -0.129,-0.015 -0.187,-0.04 -0.25,-0.055 -0.505,-0.137 -0.764,-0.096 0.023,-0.172 -0.004,-0.347 -0.065,-0.508 0.008,-0.003 0.026,-0.01 0.034,-0.014 l 0.021,-0.011 c 0.021,-0.061 0.088,-0.083 0.146,-0.089 0.149,-0.015 0.298,0.018 0.439,0.062 -0.034,0.032 -0.079,0.062 -0.086,0.112 0.005,0.022 0.015,0.041 0.025,0.061 0.102,-0.004 0.204,-0.021 0.306,-0.033 0.139,0.104 0.226,0.281 0.213,0.456 C 0.081,-0.054 0.049,-0.006 0,0" /></g><g
           transform="translate(182.036,141.968)"
           id="g460"><path
             id="path462"
             style="fill:#ffffff;fill-opacity:1;fill-rule:nonzero;stroke:none"
             d="M 0,0 C 0.218,0.102 0.478,0.084 0.695,-0.012 0.833,-0.073 0.964,-0.172 1.017,-0.318 0.926,-0.255 0.84,-0.184 0.74,-0.134 0.547,-0.031 0.314,0.013 0.102,-0.057 0.204,-0.062 0.307,-0.115 0.342,-0.216 0.352,-0.256 0.357,-0.298 0.359,-0.34 0.338,-0.433 0.271,-0.508 0.181,-0.538 c -0.069,-0.007 -0.144,-0.004 -0.202,0.04 -0.059,0.039 -0.089,0.107 -0.103,0.174 0,0.069 0.027,0.133 0.062,0.191 -0.118,-0.074 -0.21,-0.179 -0.291,-0.292 0.056,0.18 0.18,0.344 0.353,0.425" /></g><g
           transform="translate(186.3379,141.5941)"
           id="g464"><path
             id="path466"
             style="fill:#ffffff;fill-opacity:1;fill-rule:nonzero;stroke:none"
             d="M 0,0 C 0.261,0.05 0.533,-0.031 0.749,-0.178 0.88,-0.269 1.003,-0.396 1.03,-0.56 0.87,-0.378 0.683,-0.21 0.451,-0.128 0.342,-0.089 0.226,-0.074 0.11,-0.078 0.187,-0.138 0.233,-0.243 0.192,-0.338 0.184,-0.355 0.175,-0.372 0.166,-0.389 0.115,-0.454 0.03,-0.473 -0.05,-0.464 c -0.045,0.009 -0.082,0.039 -0.115,0.071 -0.058,0.07 -0.051,0.168 -0.019,0.249 C -0.288,-0.191 -0.38,-0.258 -0.467,-0.33 -0.368,-0.16 -0.194,-0.036 0,0" /></g><g
           transform="translate(188.5004,144.9695)"
           id="g468"><path
             id="path470"
             style="fill:#eac500;fill-opacity:1;fill-rule:nonzero;stroke:none"
             d="M 0,0 C 0.095,-0.08 0.228,-0.113 0.348,-0.082 0.495,-0.045 0.614,0.076 0.662,0.217 0.676,0.251 0.685,0.286 0.69,0.322 0.705,0.404 0.702,0.49 0.676,0.57 0.636,0.759 0.46,0.92 0.262,0.915 0.08,0.917 -0.079,0.78 -0.141,0.615 -0.223,0.408 -0.176,0.145 0,0" /></g><g
           transform="translate(180.7384,145.1395)"
           id="g472"><path
             id="path474"
             style="fill:#eac500;fill-opacity:1;fill-rule:nonzero;stroke:none"
             d="m 0,0 c -0.123,0.117 -0.322,0.139 -0.47,0.057 -0.087,-0.046 -0.155,-0.126 -0.184,-0.22 -0.023,-0.063 -0.027,-0.132 -0.014,-0.197 0.007,-0.03 0.016,-0.06 0.031,-0.087 0.069,-0.17 0.272,-0.263 0.447,-0.222 0.159,0.03 0.291,0.167 0.312,0.328 C 0.14,-0.217 0.094,-0.084 0,0" /></g><g
           transform="translate(185.2483,143.4604)"
           id="g476"><path
             id="path478"
             style="fill:#eac500;fill-opacity:1;fill-rule:nonzero;stroke:none"
             d="m 0,0 c -0.019,-0.047 -0.039,-0.093 -0.059,-0.139 0.129,-0.007 0.258,-0.02 0.385,0 0.098,0.014 0.192,0.046 0.283,0.083 C 1.28,0.23 1.953,0.515 2.65,0.73 3.084,0.863 3.53,0.968 3.984,1.003 3.942,1.015 3.9,1.03 3.857,1.036 3.657,1.089 3.452,1.122 3.247,1.144 2.308,1.243 1.356,1.079 0.47,0.765 0.431,0.75 0.389,0.742 0.356,0.719 0.324,0.669 0.299,0.615 0.272,0.563 0.198,0.425 0.132,0.282 0.065,0.14 0.044,0.094 0.023,0.047 0.003,0 L 0,0 Z" /></g><g
           transform="translate(191.1927,142.9096)"
           id="g480"><path
             id="path482"
             style="fill:#eac500;fill-opacity:1;fill-rule:nonzero;stroke:none"
             d="M 0,0 C -0.058,0.25 -0.21,0.466 -0.381,0.652 -0.59,0.876 -0.839,1.06 -1.106,1.207 -1.272,1.274 -1.45,1.309 -1.626,1.336 -2.086,1.403 -2.556,1.368 -3.01,1.277 -3.415,1.192 -3.812,1.063 -4.179,0.87 -4.357,0.773 -4.534,0.664 -4.665,0.507 -4.719,0.442 -4.764,0.358 -4.745,0.271 -4.724,0.19 -4.65,0.137 -4.576,0.108 c 0.352,-0.139 0.687,-0.324 0.989,-0.553 0.227,-0.174 0.439,-0.372 0.599,-0.611 0.088,-0.136 0.17,-0.29 0.165,-0.456 0,-0.068 -0.037,-0.126 -0.065,-0.184 0.129,0.022 0.251,0.072 0.374,0.116 0.461,0.172 0.913,0.366 1.362,0.568 0.314,0.145 0.628,0.291 0.926,0.467 0.072,0.041 0.143,0.092 0.184,0.166 C 0.026,-0.266 0.026,-0.126 0,0" /></g><g
           transform="translate(183.8286,143.1614)"
           id="g484"><path
             id="path486"
             style="fill:#eac500;fill-opacity:1;fill-rule:nonzero;stroke:none"
             d="m 0,0 c 0.365,0.101 0.743,0.157 1.122,0.163 0.017,0.04 0.033,0.08 0.049,0.12 0.023,0.054 0.047,0.108 0.07,0.162 C 1.279,0.53 1.321,0.614 1.359,0.699 1.398,0.763 1.426,0.835 1.463,0.9 0.938,0.681 0.435,0.412 -0.045,0.108 -0.039,0.092 -0.031,0.076 -0.024,0.059 -0.016,0.04 -0.008,0.02 0,0" /></g><g
           transform="translate(183.8724,143.0535)"
           id="g488"><path
             id="path490"
             style="fill:#eac500;fill-opacity:1;fill-rule:nonzero;stroke:none"
             d="m 0,0 c 0.008,-0.024 0.017,-0.048 0.026,-0.073 0.008,-0.024 0.015,-0.047 0.023,-0.071 0.297,0.026 0.596,0.036 0.894,0.024 0.01,0.033 0.02,0.066 0.03,0.099 0.011,0.033 0.022,0.066 0.033,0.099 l 0.002,0 C 1.016,0.101 1.023,0.123 1.031,0.146 0.68,0.146 0.33,0.111 -0.012,0.034 -0.01,0.025 -0.006,0.008 -0.004,-0.001 L 0,0 Z" /></g><g
           transform="translate(187.7953,142.1066)"
           id="g492"><path
             id="path494"
             style="fill:#eac500;fill-opacity:1;fill-rule:nonzero;stroke:none"
             d="M 0,0 C -0.255,0.249 -0.557,0.443 -0.874,0.603 -1.431,0.878 -2.043,1.043 -2.664,1.081 -2.667,1.07 -2.674,1.048 -2.677,1.037 L -2.68,1.038 C -2.687,1.022 -2.694,1.007 -2.7,0.991 -2.708,0.972 -2.715,0.953 -2.722,0.934 -2.728,0.921 -2.734,0.907 -2.739,0.893 -2.749,0.867 -2.759,0.841 -2.77,0.815 -2.239,0.769 -1.71,0.649 -1.23,0.414 -0.631,0.127 -0.125,-0.34 0.231,-0.899 0.252,-0.928 0.292,-0.989 0.331,-0.948 0.38,-0.843 0.362,-0.72 0.352,-0.607 0.325,-0.365 0.165,-0.167 0,0" /></g><g
           transform="translate(183.6138,143.1594)"
           id="g496"><path
             id="path498"
             style="fill:#eac500;fill-opacity:1;fill-rule:nonzero;stroke:none"
             d="m 0,0 c -0.067,-0.043 -0.135,-0.084 -0.198,-0.133 0.074,0.026 0.148,0.053 0.222,0.078 C 0.016,-0.036 0.008,-0.018 0,0" /></g><g
           transform="translate(181.8382,142.0593)"
           id="g500"><path
             id="path502"
             style="fill:#eac500;fill-opacity:1;fill-rule:nonzero;stroke:none"
             d="M 0,0 C 0.1,0.032 0.16,0.126 0.242,0.185 0.156,0.131 0.079,0.064 0,0" /></g><g
           transform="translate(181.6465,141.8382)"
           id="g504"><path
             id="path506"
             style="fill:#eac500;fill-opacity:1;fill-rule:nonzero;stroke:none"
             d="M 0,0 C -0.083,-0.114 -0.142,-0.248 -0.156,-0.39 -0.101,-0.261 -0.068,-0.123 0,0" /></g><g
           transform="translate(186.7328,139.8395)"
           id="g508"><path
             id="path510"
             style="fill:#eac500;fill-opacity:1;fill-rule:nonzero;stroke:none"
             d="m 0,0 c -0.218,0.009 -0.433,0.061 -0.638,0.135 -0.111,0.043 -0.223,0.091 -0.316,0.167 -0.031,0.028 -0.071,0.065 -0.059,0.112 0.028,0.046 0.088,0.054 0.137,0.06 0.169,0.011 0.337,-0.02 0.5,-0.062 C -0.204,0.366 -0.033,0.308 0.118,0.211 0.167,0.182 0.205,0.136 0.237,0.089 0.199,-0.006 0.083,0.005 0,0 M 0.754,1.344 C 0.781,1.242 0.806,1.136 0.79,1.03 0.785,0.963 0.757,0.902 0.733,0.841 l 0.001,-0.013 -0.008,0 C 0.652,0.708 0.542,0.614 0.415,0.554 -0.015,0.355 -0.566,0.466 -0.885,0.817 -1.023,0.971 -1.15,1.161 -1.147,1.375 -1.143,1.549 -1.021,1.694 -0.875,1.774 -0.63,1.911 -0.34,1.944 -0.064,1.92 0.057,1.904 0.178,1.879 0.289,1.826 0.327,1.808 0.366,1.792 0.406,1.779 0.297,1.902 0.17,2.007 0.041,2.109 0.006,2.136 -0.032,2.159 -0.07,2.181 -0.609,2.492 -1.215,2.685 -1.833,2.754 -1.852,2.703 -1.871,2.652 -1.889,2.6 -1.908,2.55 -1.925,2.5 -1.941,2.449 -1.984,2.49 -1.998,2.549 -2.004,2.607 -2.002,2.661 -1.998,2.715 -1.993,2.769 -2.238,2.788 -2.485,2.785 -2.731,2.762 -2.726,2.704 -2.724,2.646 -2.724,2.587 -2.733,2.541 -2.757,2.501 -2.79,2.468 -2.797,2.505 -2.808,2.542 -2.822,2.578 -2.843,2.633 -2.863,2.689 -2.883,2.744 -3.301,2.689 -3.711,2.571 -4.092,2.391 -4.098,2.399 -4.11,2.415 -4.117,2.424 -4.146,2.407 -4.174,2.391 -4.203,2.374 -4.09,2.372 -3.978,2.355 -3.869,2.327 -3.777,2.3 -3.687,2.264 -3.606,2.213 l 0.003,10e-4 C -3.558,2.18 -3.514,2.143 -3.475,2.101 -3.371,1.979 -3.355,1.802 -3.416,1.657 -3.527,1.384 -3.757,1.161 -4.034,1.059 -4.143,1.02 -4.258,0.997 -4.374,0.992 -4.505,0.987 -4.636,1.006 -4.76,1.046 c -0.09,0.033 -0.174,0.08 -0.25,0.139 0.011,-0.129 0.047,-0.254 0.104,-0.369 0.068,0.032 0.141,0.052 0.214,0.066 0.123,0.022 0.248,0.026 0.373,0.019 C -4.224,0.892 -4.125,0.878 -4.038,0.835 -4.005,0.817 -3.966,0.79 -3.966,0.748 -3.97,0.693 -4.024,0.665 -4.066,0.64 -4.18,0.591 -4.303,0.572 -4.425,0.559 -4.53,0.557 -4.635,0.556 -4.739,0.572 c 0.225,-0.278 0.527,-0.483 0.844,-0.644 0.26,-0.131 0.534,-0.236 0.816,-0.308 -0.024,0.076 -0.041,0.153 -0.057,0.23 -0.014,0.07 -0.021,0.141 -0.04,0.209 -0.063,0.049 -0.111,0.114 -0.126,0.194 -0.002,0.054 0.005,0.109 0.034,0.156 -0.007,-0.059 -0.013,-0.119 0.002,-0.177 0.036,-0.08 0.112,-0.14 0.2,-0.15 0.051,-0.006 0.098,0.02 0.143,0.041 0.054,0.032 0.11,0.067 0.174,0.071 0.072,-0.004 0.103,-0.077 0.139,-0.128 l 0.002,0 c 0.071,-0.08 0.178,-0.139 0.288,-0.124 0.057,0.008 0.105,0.043 0.145,0.082 0.036,0.044 0.065,0.094 0.086,0.146 0.003,0 0.009,0.001 0.012,0.002 -0.003,-0.116 -0.084,-0.214 -0.186,-0.262 -0.01,-0.05 -0.026,-0.098 -0.041,-0.146 -0.04,-0.079 -0.082,-0.157 -0.133,-0.23 -0.023,-0.017 0.008,-0.02 0.019,-0.022 0.172,-0.016 0.344,-0.023 0.516,-0.028 0.432,-0.013 0.867,-0.006 1.293,0.076 0.297,0.058 0.589,0.147 0.864,0.273 C 0.47,-0.065 0.679,0.066 0.832,0.252 0.968,0.426 1.03,0.663 0.969,0.879 0.92,1.043 0.843,1.198 0.754,1.344" /></g><g
           transform="translate(183.3607,142.8543)"
           id="g512"><path
             id="path514"
             style="fill:#eac500;fill-opacity:1;fill-rule:nonzero;stroke:none"
             d="M 0,0 C 0.124,0.004 0.247,0.024 0.37,0.037 0.361,0.054 0.352,0.072 0.343,0.088 0.336,0.108 0.329,0.128 0.322,0.147 0.319,0.156 0.311,0.172 0.307,0.18 0.165,0.138 0.02,0.102 -0.114,0.037 -0.144,-0.027 -0.036,-0.003 0,0" /></g><g
           transform="translate(182.7759,141.8337)"
           id="g516"><path
             id="path518"
             style="fill:#74b743;fill-opacity:1;fill-rule:nonzero;stroke:none"
             d="m 0,0 c -0.193,0.104 -0.426,0.148 -0.638,0.077 0.102,-0.005 0.205,-0.058 0.24,-0.158 0.01,-0.041 0.015,-0.083 0.017,-0.125 -0.021,-0.092 -0.088,-0.168 -0.178,-0.198 -0.069,-0.007 -0.144,-0.004 -0.202,0.04 -0.059,0.039 -0.089,0.107 -0.103,0.174 0,0.069 0.027,0.134 0.062,0.192 -0.118,-0.075 -0.21,-0.18 -0.29,-0.293 0.055,0.181 0.179,0.344 0.352,0.425 0.218,0.102 0.478,0.084 0.695,-0.012 C 0.093,0.061 0.224,-0.038 0.277,-0.183 0.186,-0.121 0.1,-0.05 0,0 m -0.158,0.289 c -0.259,0.027 -0.531,-0.014 -0.759,-0.145 -0.131,-0.076 -0.246,-0.197 -0.277,-0.35 -0.034,-0.182 0.038,-0.377 0.171,-0.503 0.085,-0.083 0.198,-0.132 0.313,-0.154 l 0.001,-0.003 c 0.07,-0.004 0.143,-0.027 0.213,-0.008 0.242,0.007 0.479,0.098 0.673,0.242 0.144,0.11 0.27,0.272 0.272,0.462 C 0.454,-0.076 0.398,0.006 0.339,0.073 0.21,0.207 0.023,0.268 -0.158,0.289" /></g><g
           transform="translate(186.789,141.4656)"
           id="g520"><path
             id="path522"
             style="fill:#74b743;fill-opacity:1;fill-rule:nonzero;stroke:none"
             d="m 0,0 c -0.109,0.039 -0.225,0.055 -0.341,0.051 0.077,-0.061 0.123,-0.166 0.081,-0.261 -0.007,-0.017 -0.016,-0.034 -0.025,-0.05 -0.052,-0.065 -0.136,-0.085 -0.216,-0.076 -0.045,0.009 -0.082,0.04 -0.115,0.071 -0.059,0.071 -0.051,0.169 -0.019,0.249 -0.104,-0.046 -0.196,-0.114 -0.284,-0.186 0.099,0.171 0.274,0.295 0.468,0.33 0.26,0.05 0.533,-0.03 0.749,-0.177 C 0.429,-0.14 0.552,-0.267 0.579,-0.431 0.419,-0.249 0.232,-0.082 0,0 M 0.553,-0.112 C 0.401,0.029 0.205,0.118 0.003,0.159 -0.181,0.198 -0.371,0.215 -0.558,0.189 -0.671,0.172 -0.784,0.143 -0.884,0.087 c -0.117,-0.084 -0.206,-0.221 -0.2,-0.369 0.006,-0.143 0.086,-0.27 0.177,-0.375 0.169,-0.184 0.392,-0.331 0.642,-0.374 0.188,-0.029 0.39,-0.024 0.563,0.063 0.161,0.078 0.309,0.209 0.353,0.388 0.041,0.158 0.028,0.351 -0.098,0.468" /></g><g
           transform="translate(182.0407,140.7214)"
           id="g524"><path
             id="path526"
             style="fill:#ed4792;fill-opacity:1;fill-rule:nonzero;stroke:none"
             d="M 0,0 C 0.123,0.022 0.248,0.026 0.373,0.019 0.469,0.01 0.567,-0.003 0.654,-0.047 0.687,-0.064 0.726,-0.092 0.726,-0.134 0.722,-0.188 0.668,-0.217 0.626,-0.242 0.513,-0.291 0.389,-0.31 0.267,-0.322 0.162,-0.325 0.057,-0.325 -0.047,-0.31 c -0.085,0.016 -0.18,0.033 -0.241,0.098 -0.046,0.061 0.023,0.121 0.075,0.146 C -0.146,-0.033 -0.073,-0.014 0,0" /></g><g
           transform="translate(185.7197,140.2531)"
           id="g528"><path
             id="path530"
             style="fill:#ed4792;fill-opacity:1;fill-rule:nonzero;stroke:none"
             d="M 0,0 C 0.028,0.047 0.088,0.054 0.137,0.06 0.306,0.072 0.474,0.04 0.637,-0.001 0.809,-0.047 0.98,-0.106 1.131,-0.202 1.181,-0.232 1.218,-0.277 1.25,-0.325 1.212,-0.419 1.097,-0.408 1.013,-0.414 0.795,-0.405 0.58,-0.353 0.375,-0.278 0.264,-0.235 0.152,-0.188 0.059,-0.112 0.028,-0.084 -0.011,-0.046 0,0" /></g><g
           id="g532"><g
             id="g534" /><g
             id="g540"><g
               style="opacity:0.53999299"
               id="g542"
               clip-path="url(#clipPath536)"><g
                 id="g544"
                 transform="translate(189.0855,140.3555)"><path
                   id="path546"
                   style="fill:#192112;fill-opacity:1;fill-rule:nonzero;stroke:none"
                   d="M 0,0 C 0.017,-0.039 -0.067,-0.025 -0.027,0 -0.02,0 -0.007,0 0,0" /></g></g></g></g><g
           id="g548"><g
             id="g550" /><g
             id="g556"><g
               style="opacity:0.38999903"
               id="g558"
               clip-path="url(#clipPath552)"><g
                 id="g560"
                 transform="translate(187.964,140.1617)"><path
                   id="path562"
                   style="fill:#283719;fill-opacity:1;fill-rule:nonzero;stroke:none"
                   d="M 0,0 C -0.008,-0.029 -0.067,-0.004 -0.035,0.014 -0.026,0.011 -0.009,0.004 0,0" /></g></g></g></g><g
           transform="translate(184.1723,139.811)"
           id="g564"><path
             id="path566"
             style="fill:#ed4792;fill-opacity:1;fill-rule:nonzero;stroke:none"
             d="M 0,0 C -0.077,0.047 -0.095,0.162 -0.19,0.185 -0.258,0.186 -0.309,0.134 -0.365,0.105 -0.429,0.067 -0.507,0.063 -0.578,0.076 c 0.049,-0.119 0.068,-0.247 0.099,-0.371 0.036,-0.122 0.079,-0.27 0.209,-0.321 0.086,-0.04 0.184,-0.001 0.248,0.061 0.1,0.097 0.162,0.225 0.221,0.349 C 0.22,-0.162 0.24,-0.118 0.26,-0.074 0.169,-0.075 0.079,-0.046 0,0" /></g></g></g></g></svg>