<?xml version="1.0" encoding="UTF-8" standalone="no"?>
<svg
   xmlns:dc="http://purl.org/dc/elements/1.1/"
   xmlns:cc="http://creativecommons.org/ns#"
   xmlns:rdf="http://www.w3.org/1999/02/22-rdf-syntax-ns#"
   xmlns:svg="http://www.w3.org/2000/svg"
   xmlns="http://www.w3.org/2000/svg"
   viewBox="0 0 341.33334 341.33334"
   height="256"
   width="256"
   xml:space="preserve"
   id="svg2"
   version="1.1"><metadata
     id="metadata8"><rdf:RDF><cc:Work
         rdf:about=""><dc:format>image/svg+xml</dc:format><dc:type
           rdf:resource="http://purl.org/dc/dcmitype/StillImage" /></cc:Work></rdf:RDF></metadata><defs
     id="defs6"><clipPath
       id="clipPath18"
       clipPathUnits="userSpaceOnUse"><path
         id="path16"
         d="M 0,256 H 256 V 0 H 0 Z" /></clipPath><clipPath
       id="clipPath26"
       clipPathUnits="userSpaceOnUse"><path
         id="path24"
         d="M 4,212 H 252 V 44 H 4 Z" /></clipPath></defs><g
     transform="matrix(1.3333333,0,0,-1.3333333,0,341.33333)"
     id="g10"><g
       id="g12"><g
         clip-path="url(#clipPath18)"
         id="g14"><g
           id="g20"><g
             id="g22" /><g
             id="g34"><g
               style="opacity:0.5"
               id="g32"
               clip-path="url(#clipPath26)"><g
                 id="g30"
                 transform="translate(128,212)"><path
                   id="path28"
                   style="fill:#ffffff;fill-opacity:1;fill-rule:nonzero;stroke:none"
                   d="m 0,0 c -40.978,0 -81.092,-8.522 -119.226,-25.328 -2.902,-1.279 -4.774,-4.15 -4.774,-7.321 V -160 c 0,-4.418 3.582,-8 8,-8 h 232 c 4.418,0 8,3.582 8,8 v 127.351 c 0,3.171 -1.872,6.042 -4.774,7.321 C 81.092,-8.522 40.978,0 0,0" /></g></g></g></g><g
           transform="translate(12,179.3513)"
           id="g36"><path
             id="path38"
             style="fill:#999999;fill-opacity:1;fill-rule:nonzero;stroke:none"
             d="M 0,0 C 74.571,32.865 157.429,32.865 232,0 V -127.351 H 0 Z" /></g><g
           transform="translate(128,194)"
           id="g40"><path
             id="path42"
             style="fill:#808080;fill-opacity:1;fill-rule:nonzero;stroke:none"
             d="M 0,0 C -15.943,0 -31.412,-1.057 -45.976,-3.142 -51.972,-4.001 -56,-8.142 -56,-13.447 v -108.228 c 0,-5.693 4.624,-10.325 10.308,-10.325 h 91.384 c 5.684,0 10.308,4.632 10.308,10.325 V -13.447 C 56,-8.142 51.972,-4.001 45.976,-3.142 31.412,-1.057 15.943,0 0,0" /></g><g
           transform="translate(82.3077,188.8781)"
           id="g44"><path
             id="path46"
             style="fill:#0000b8;fill-opacity:1;fill-rule:nonzero;stroke:none"
             d="m 0,0 c 29.077,4.163 62.308,4.163 91.385,0 4.556,-0.652 8.307,-3.713 8.307,-8.325 v -108.228 c 0,-4.612 -3.705,-8.325 -8.307,-8.325 H 0 c -4.602,0 -8.308,3.713 -8.308,8.325 V -8.325 c 0,4.612 3.752,7.673 8.308,8.325" /></g><path
           id="path48"
           style="fill:#808080;fill-opacity:1;fill-rule:nonzero;stroke:none"
           d="m 62,51.857 h -2 v 144 h 2 z" /><path
           id="path50"
           style="fill:#808080;fill-opacity:1;fill-rule:nonzero;stroke:none"
           d="m 196,52 h -2 v 144 h 2 z" /><path
           id="path52"
           style="fill:#ffffff;fill-opacity:1;fill-rule:nonzero;stroke:none"
           d="m 177,103 h -30 v 26 h 30 z" /><g
           transform="translate(168.7801,106.9213)"
           id="g54"><path
             id="path56"
             style="fill:#0000b8;fill-opacity:1;fill-rule:nonzero;stroke:none"
             d="M 0,0 -4.383,1.495 V 2.388 L 0.01,3.989 Z" /></g><g
           transform="translate(158.3421,110.544)"
           id="g58"><path
             id="path60"
             style="fill:#007e00;fill-opacity:1;fill-rule:nonzero;stroke:none"
             d="m 0,0 c 0,0 2.858,-1.232 2.858,-0.981 0,0.252 0.01,3.989 0.01,3.989 L -0.061,1.941 Z" /></g><g
           transform="translate(161.2101,115.946)"
           id="g62"><path
             id="path64"
             style="fill:#007e00;fill-opacity:1;fill-rule:nonzero;stroke:none"
             d="M 0,0 -2.868,0.971 -4.393,0.485 v -2.046 z" /></g><g
           transform="translate(161.2001,123.3738)"
           id="g66"><path
             id="path68"
             style="fill:#eac500;fill-opacity:1;fill-rule:nonzero;stroke:none"
             d="m 0,0 -10.69,-3.697 3.158,-1.106 10.536,3.744 z" /></g><g
           transform="translate(158.3421,116.9165)"
           id="g70"><path
             id="path72"
             style="fill:#0000b8;fill-opacity:1;fill-rule:nonzero;stroke:none"
             d="M 0,0 2.868,-0.971 V 1.941 L 0,0.896 Z" /></g><g
           transform="translate(164.1001,113.9599)"
           id="g74"><path
             id="path76"
             style="fill:#ff0000;fill-opacity:1;fill-rule:nonzero;stroke:none"
             d="M 0,0 -2.218,0.933 0,2.957 Z M -2.89,1.986 -7.283,0.425 v 2.872 l 4.393,1.601 z m 0.014,5.311 V 7.296 L -10.432,4.611 V 2.15 -0.694 -3.155 -4.895 l 3.149,1.065 v 1.822 l 4.393,1.6 V -2.255 L -2.9,-2.259 v -2.137 l 0.024,0.009 2.98,1.162 v 11.58 z" /></g><g
           transform="translate(150.4751,124.2975)"
           id="g78"><path
             id="path80"
             style="fill:#0000b8;fill-opacity:1;fill-rule:nonzero;stroke:none"
             d="m 0,0 h -2.475 v 2.843 h 1.091 V 0.696 l 1.384,0 z" /></g><path
           id="path82"
           style="fill:#0000b8;fill-opacity:1;fill-rule:nonzero;stroke:none"
           d="m 151.859,124.298 h -1.091 v 2.843 h 1.091 z" /><g
           transform="translate(153.8608,124.9317)"
           id="g84"><path
             id="path86"
             style="fill:#0000b8;fill-opacity:1;fill-rule:nonzero;stroke:none"
             d="m 0,0 c 0.108,0 0.226,-0.004 0.314,0.054 0.077,0.045 0.129,0.12 0.129,0.199 0,0.095 -0.067,0.182 -0.17,0.224 C 0.18,0.514 0.057,0.514 -0.041,0.514 h -0.427 l 0,-0.514 z m -0.031,1.119 c 0.103,0 0.227,-0.004 0.304,0.054 0.067,0.05 0.103,0.12 0.103,0.186 C 0.376,1.571 0.16,1.6 -0.046,1.6 H -0.468 V 1.119 Z m -1.43,1.09 H 0.262 C 0.53,2.209 0.803,2.193 1.024,2.064 1.261,1.927 1.4,1.695 1.4,1.463 1.4,1.165 1.163,0.912 0.803,0.846 V 0.837 C 1.209,0.779 1.487,0.531 1.487,0.191 1.487,-0.054 1.379,-0.327 1.127,-0.473 0.854,-0.63 0.473,-0.634 0.154,-0.634 h -1.615 z" /></g><g
           transform="translate(157.2724,125.9927)"
           id="g88"><path
             id="path90"
             style="fill:#0000b8;fill-opacity:1;fill-rule:nonzero;stroke:none"
             d="M 0,0 C 0.237,0 0.52,0.029 0.52,0.274 0.52,0.369 0.458,0.46 0.35,0.506 0.257,0.543 0.144,0.543 0.041,0.543 H -0.396 V 0 Z m 0.458,-1.695 -0.515,1.086 h -0.339 v -1.086 h -1.096 v 2.843 h 1.796 c 0.308,0 0.648,-0.033 0.91,-0.174 0.294,-0.149 0.433,-0.402 0.433,-0.68 0,-0.373 -0.206,-0.597 -0.623,-0.75 l 0.638,-1.239 z" /></g><g
           transform="translate(161.9344,124.2975)"
           id="g92"><path
             id="path94"
             style="fill:#0000b8;fill-opacity:1;fill-rule:nonzero;stroke:none"
             d="M 0,0 H -2.65 V 2.843 H 0 V 2.188 H -1.59 V 1.774 h 1.286 V 1.14 H -1.59 V 0.68 l 1.59,0 z" /></g><g
           transform="translate(163.9051,124.2975)"
           id="g96"><path
             id="path98"
             style="fill:#0000b8;fill-opacity:1;fill-rule:nonzero;stroke:none"
             d="M 0,0 H -1.029 V 2.159 H -1.77 V 2.843 H 0.726 V 2.159 H 0 Z" /></g><g
           transform="translate(166.4316,125.9927)"
           id="g100"><path
             id="path102"
             style="fill:#0000b8;fill-opacity:1;fill-rule:nonzero;stroke:none"
             d="M 0,0 C 0.237,0 0.52,0.029 0.52,0.274 0.52,0.369 0.458,0.46 0.35,0.506 0.257,0.543 0.144,0.543 0.041,0.543 H -0.396 V 0 Z m 0.458,-1.695 -0.515,1.086 h -0.339 v -1.086 h -1.096 v 2.843 h 1.796 c 0.308,0 0.648,-0.033 0.91,-0.174 0.294,-0.149 0.433,-0.402 0.433,-0.68 0,-0.373 -0.206,-0.597 -0.623,-0.75 l 0.638,-1.239 z" /></g><g
           transform="translate(169.4623,125.7067)"
           id="g104"><path
             id="path106"
             style="fill:#0000b8;fill-opacity:1;fill-rule:nonzero;stroke:none"
             d="m 0,0 c 0,-0.274 0.036,-0.8 0.53,-0.8 0.494,0 0.53,0.526 0.53,0.8 0,0.278 -0.051,0.833 -0.53,0.833 C 0.051,0.833 0,0.278 0,0 m 2.218,0.004 c 0,-0.808 -0.618,-1.455 -1.688,-1.455 -1.07,0 -1.688,0.647 -1.688,1.455 0,0.85 0.613,1.472 1.688,1.472 1.075,0 1.688,-0.622 1.688,-1.472" /></g><g
           transform="translate(168.7902,113.3037)"
           id="g108"><path
             id="path110"
             style="fill:#ff0000;fill-opacity:1;fill-rule:nonzero;stroke:none"
             d="M 0,0 -2.868,0.971 -4.393,0.485 v -2.046 z" /></g><g
           transform="translate(156.8364,110.1281)"
           id="g112"><path
             id="path114"
             style="fill:#eac500;fill-opacity:1;fill-rule:nonzero;stroke:none"
             d="m 0,0 -3.149,-1.059 0.015,-0.005 -0.006,-0.002 4.394,-1.575 c 0,0 2.358,1.257 2.396,1.309 C 3.687,-1.28 0,0 0,0" /></g><g
           transform="translate(173.0477,126.128)"
           id="g116"><path
             id="path118"
             style="fill:#ff0000;fill-opacity:1;fill-rule:nonzero;stroke:none"
             d="m 0,0 c 0.154,0 0.252,0.142 0.252,0.336 0,0.155 -0.084,0.335 -0.294,0.335 -0.126,0 -0.224,-0.077 -0.266,-0.168 C -0.322,0.478 -0.322,0.439 -0.322,0.374 -0.308,0.194 -0.21,0 0,0 M 0.644,1.394 H 0.434 C -0.056,1.368 -0.238,1.188 -0.308,0.968 h 0.014 c 0.126,0.104 0.266,0.142 0.462,0.142 0.378,0 0.727,-0.258 0.727,-0.736 0,-0.464 -0.377,-0.826 -0.895,-0.826 -0.686,0 -0.979,0.478 -0.979,0.994 0,0.413 0.153,0.775 0.419,0.994 0.252,0.22 0.574,0.323 0.966,0.336 H 0.63 v -0.478 0 z" /></g><g
           transform="translate(175.1465,126.6832)"
           id="g120"><path
             id="path122"
             style="fill:#ff0000;fill-opacity:1;fill-rule:nonzero;stroke:none"
             d="M 0,0 V 0.387 C 0,0.529 0.014,0.684 0.014,0.839 H 0 C -0.07,0.684 -0.14,0.542 -0.224,0.387 L -0.42,0.013 V 0 H 0 Z m 0,-0.968 v 0.503 h -1.021 v 0.4 L -0.21,1.278 H 0.602 V -0.013 H 0.854 V -0.478 H 0.602 v -0.503 h -0.616 z" /></g><g
           transform="translate(158.0902,117.0344)"
           id="g124"><path
             id="path126"
             style="fill:#007e00;fill-opacity:1;fill-rule:nonzero;stroke:none"
             d="m 0,0 v -9.547 l -4.393,1.575 V 1.556 L -4.407,1.58 -7.388,2.639 V -8.942 l 2.981,-1.162 4.393,-1.704 3.162,-1.226 v 11.929 z" /></g><g
           transform="translate(168.8081,118.5773)"
           id="g128"><path
             id="path130"
             style="fill:#0000b8;fill-opacity:1;fill-rule:nonzero;stroke:none"
             d="m 0,0 v -2.132 l -4.379,-1.704 -0.014,2.261 z" /></g><g
           transform="translate(168.7801,120.7316)"
           id="g132"><path
             id="path134"
             style="fill:#eac500;fill-opacity:1;fill-rule:nonzero;stroke:none"
             d="m 0,0 -10.69,-3.697 3.158,-1.106 10.536,3.744 z" /></g><g
           transform="translate(165.9222,114.2742)"
           id="g136"><path
             id="path138"
             style="fill:#0000b8;fill-opacity:1;fill-rule:nonzero;stroke:none"
             d="M 0,0 2.868,-0.971 V 1.941 L 0,0.896 Z" /></g><g
           transform="translate(168.7902,113.3037)"
           id="g140"><path
             id="path142"
             style="fill:#007e00;fill-opacity:1;fill-rule:nonzero;stroke:none"
             d="M 0,0 -4.393,-1.561 V 1.311 L 0,2.912 Z M 0.014,5.311 V 5.31 L -7.542,2.625 V 0.164 -2.68 -5.141 -9.304 l 3.149,1.221 v 2.267 1.822 L 0,-2.394 v -1.847 l -0.01,-0.004 v -2.137 l 0.024,0.009 2.98,1.162 v 11.58 z" /></g><g
           transform="translate(171.7845,111.5301)"
           id="g144"><path
             id="path146"
             style="fill:#0000b8;fill-opacity:1;fill-rule:nonzero;stroke:none"
             d="M 0,0 -2.218,0.933 0,2.957 Z" /></g><g
           transform="translate(153.6684,114.2742)"
           id="g148"><path
             id="path150"
             style="fill:#0000b8;fill-opacity:1;fill-rule:nonzero;stroke:none"
             d="M 0,0 2.218,-0.933 0,-2.957 Z" /></g><g
           transform="translate(158.0902,117.0344)"
           id="g152"><path
             id="path154"
             style="fill:#0000b8;fill-opacity:1;fill-rule:nonzero;stroke:none"
             d="m 0,0 3.158,-1.105 v -11.929 l -3.172,1.226 z" /></g><g
           transform="translate(80,104)"
           id="g156"><path
             id="path158"
             style="fill:#000000;fill-opacity:1;fill-rule:nonzero;stroke:none"
             d="m 0,0 v -5.746 -0.816 -19.72 -0.7 V -32 h 24 v 5.018 0.7 19.72 0.816 V 0 Z" /></g><path
           id="path160"
           style="fill:#ffffff;fill-opacity:1;fill-rule:nonzero;stroke:none"
           d="M 103.2,77.841 H 80.8 V 97.43 h 22.4 z" /><path
           id="path162"
           style="fill:#ffffff;fill-opacity:1;fill-rule:nonzero;stroke:none"
           d="m 80.8,103.268 h 22.4 V 98.254 H 80.8 Z" /><g
           transform="translate(83.5225,75.1773)"
           id="g164"><path
             id="path166"
             style="fill:#ffffff;fill-opacity:1;fill-rule:nonzero;stroke:none"
             d="m 0,0 h 2.521 v -1.867 c -0.759,-0.143 -1.64,-0.237 -2.44,-0.237 -1.762,0 -2.623,0.785 -2.623,1.877 0,1.092 0.861,1.877 2.677,1.877 1.505,0 2.291,-0.36 2.312,-1.195 H 0.63 C 0.624,0.568 0.563,0.642 0.481,0.687 0.4,0.731 0.285,0.751 0.163,0.751 c -0.292,0 -0.481,-0.109 -0.576,-0.252 -0.095,-0.143 -0.122,-0.494 -0.122,-0.795 0,-0.346 0.04,-0.583 0.128,-0.697 0.116,-0.148 0.305,-0.212 0.556,-0.212 0.183,0 0.359,0.02 0.515,0.074 v 0.43 l -0.664,0 z" /></g><g
           transform="translate(89.3751,74.6093)"
           id="g168"><path
             id="path170"
             style="fill:#ffffff;fill-opacity:1;fill-rule:nonzero;stroke:none"
             d="M 0,0 -0.387,1.344 H -0.4 L -0.827,0 Z M -1.607,2.124 H 0.908 L 2.481,-1.442 H 0.474 l -0.189,0.573 h -1.403 l -0.197,-0.573 h -1.857 z" /></g><g
           transform="translate(96.9015,75.7159)"
           id="g172"><path
             id="path174"
             style="fill:#ffffff;fill-opacity:1;fill-rule:nonzero;stroke:none"
             d="M 0,0 H -0.014 L -0.705,-2.549 H -2.481 L -3.172,0 h -0.014 v -2.549 h -1.64 v 3.567 h 2.691 L -1.6,-1.107 h 0.014 l 0.535,2.125 H 1.64 V -2.549 H 0 Z" /></g><g
           transform="translate(99.2371,76.7336)"
           id="g176"><path
             id="path178"
             style="fill:#ffffff;fill-opacity:1;fill-rule:nonzero;stroke:none"
             d="M 0,0 H 3.721 V -0.929 H 1.857 v -0.38 H 3.579 V -2.238 H 1.857 v -0.4 H 3.782 V -3.567 H 0 Z" /></g><g
           transform="translate(84.1926,101.4494)"
           id="g180"><path
             id="path182"
             style="fill:#000000;fill-opacity:1;fill-rule:nonzero;stroke:none"
             d="m 0,0 c -0.022,0.272 -0.24,0.426 -0.603,0.426 -0.51,0 -0.604,-0.564 -0.604,-1.015 0,-0.439 0.102,-0.957 0.604,-0.957 0.373,0 0.585,0.155 0.603,0.443 h 0.932 c 0.013,-0.76 -0.759,-1.027 -1.535,-1.027 -0.999,0 -1.535,0.564 -1.535,1.575 0,1.01 0.536,1.558 1.535,1.566 C 0.173,1.011 0.945,0.76 0.932,0 Z" /></g><g
           transform="translate(85.4546,99.3816)"
           id="g184"><path
             id="path186"
             style="fill:#000000;fill-opacity:1;fill-rule:nonzero;stroke:none"
             d="M 0,0 V 3.016 H 0.887 V 0.585 H 2.338 V 0 Z" /></g><g
           transform="translate(89.9375,100.5555)"
           id="g188"><path
             id="path190"
             style="fill:#000000;fill-opacity:1;fill-rule:nonzero;stroke:none"
             d="M 0,0 -0.408,1.253 H -0.422 L -0.856,0 Z m -2.179,-1.174 1.265,3.016 H 0.169 L 1.433,-1.174 H 0.43 l -0.213,0.589 h -1.3 l -0.208,-0.589 z" /></g><g
           transform="translate(93.2718,101.5122)"
           id="g192"><path
             id="path194"
             style="fill:#000000;fill-opacity:1;fill-rule:nonzero;stroke:none"
             d="m 0,0 c 0.004,0.117 -0.036,0.205 -0.116,0.267 -0.075,0.063 -0.19,0.096 -0.341,0.096 -0.204,0 -0.382,-0.125 -0.382,-0.275 0,-0.222 0.284,-0.293 0.519,-0.351 0.537,-0.13 1.318,-0.18 1.318,-0.994 0,-0.635 -0.665,-0.936 -1.406,-0.936 -0.746,0 -1.402,0.204 -1.416,1.023 h 0.888 c -0.005,-0.284 0.217,-0.438 0.536,-0.438 0.205,0 0.466,0.1 0.466,0.3 0,0.41 -0.656,0.322 -1.353,0.61 -0.324,0.134 -0.484,0.41 -0.484,0.736 0.036,0.714 0.702,0.91 1.371,0.91 0.662,0 1.34,-0.221 1.287,-0.948 z" /></g><g
           transform="translate(96.3215,101.5122)"
           id="g196"><path
             id="path198"
             style="fill:#000000;fill-opacity:1;fill-rule:nonzero;stroke:none"
             d="m 0,0 c 0.004,0.117 -0.036,0.205 -0.116,0.267 -0.075,0.063 -0.19,0.096 -0.341,0.096 -0.204,0 -0.382,-0.125 -0.382,-0.275 0,-0.222 0.284,-0.293 0.519,-0.351 0.537,-0.13 1.318,-0.18 1.318,-0.994 0,-0.635 -0.665,-0.936 -1.406,-0.936 -0.746,0 -1.402,0.204 -1.416,1.023 h 0.888 c -0.005,-0.284 0.217,-0.438 0.536,-0.438 0.205,0 0.466,0.1 0.466,0.3 0,0.41 -0.656,0.322 -1.353,0.61 -0.324,0.134 -0.484,0.41 -0.484,0.736 0.036,0.714 0.702,0.91 1.371,0.91 0.662,0 1.34,-0.221 1.287,-0.948 z" /></g><path
           id="path200"
           style="fill:#000000;fill-opacity:1;fill-rule:nonzero;stroke:none"
           d="m 97.654,102.398 h 0.887 v -3.016 h -0.887 z" /><g
           transform="translate(101.0139,101.4494)"
           id="g202"><path
             id="path204"
             style="fill:#000000;fill-opacity:1;fill-rule:nonzero;stroke:none"
             d="m 0,0 c -0.022,0.272 -0.24,0.426 -0.603,0.426 -0.511,0 -0.604,-0.564 -0.604,-1.015 0,-0.439 0.102,-0.957 0.604,-0.957 0.372,0 0.585,0.155 0.603,0.443 h 0.932 c 0.013,-0.76 -0.759,-1.027 -1.535,-1.027 -0.999,0 -1.536,0.564 -1.536,1.575 0,1.01 0.537,1.558 1.536,1.566 C 0.173,1.011 0.945,0.76 0.932,0 Z" /></g><g
           transform="translate(99.9285,88.2091)"
           id="g206"><path
             id="path208"
             style="fill:#000000;fill-opacity:1;fill-rule:nonzero;stroke:none"
             d="m 0,0 c 1.257,-3.932 -1.53,-6.596 -5.286,-7.661 -5.31,-1.505 -8.738,0.842 -10.184,5.367 -1.569,4.404 0.283,8.204 5.403,9.655 3.82,1.083 7.519,0.537 8.879,-3.647 L -6.686,2.156 c -0.602,1.597 -1.332,1.734 -2.067,1.526 -1.553,-0.44 -1.22,-1.983 -0.487,-4.275 0.695,-2.173 1.339,-3.758 2.85,-3.33 0.776,0.22 1.162,0.804 0.766,2.329 z" /></g><g
           transform="translate(163.9831,88.7872)"
           id="g210"><path
             id="path212"
             style="fill:#ffffff;fill-opacity:1;fill-rule:nonzero;stroke:none"
             d="m 0,0 c 7.141,0 12.93,-3.935 12.93,-8.787 0,-4.853 -5.789,-8.787 -12.93,-8.787 -7.141,0 -12.93,3.934 -12.93,8.787 C -12.93,-3.935 -7.141,0 0,0" /></g><g
           transform="translate(176.9133,80.0649)"
           id="g214"><path
             id="path216"
             style="fill:#a3834a;fill-opacity:1;fill-rule:nonzero;stroke:none"
             d="m 0,0 c 0,4.852 -5.789,8.787 -12.93,8.787 -7.141,0 -12.93,-3.935 -12.93,-8.787 0,-4.853 5.789,-8.788 12.93,-8.788 C -5.789,-8.788 0,-4.853 0,0 m 1.541,-0.006 1.546,-1.616 -2.21,-1.294 0.621,-2.502 -2.377,-0.065 -0.164,-2.724 -2.65,0.712 -0.447,-2.572 -2.452,0.95 -1.279,-2.267 -1.915,1.617 -1.67,-2.298 -1.84,1.95 -2.01,-1.821 -1.312,2.145 -2.37,-1.361 -0.819,2.401 -2.744,-1.055 -0.404,2.368 -2.455,-0.15 0.368,2.411 -2.511,0.01 0.587,2.632 -1.947,1.068 1.55,1.717 -1.392,2.389 2.263,0.698 -0.595,2.555 2.482,0.033 0.287,2.534 2.245,-0.727 0.743,2.47 2.268,-1.197 0.938,2.185 1.964,-1.332 1.38,2.077 1.855,-1.809 1.64,1.654 1.437,-2.085 2.245,1.408 0.89,-2.302 2.257,1.043 0.58,-2.402 2.675,0.465 L -1.283,5.557 1.419,5.273 0.654,3.003 3.008,2.018 Z" /></g><g
           transform="translate(152.1646,79.9999)"
           id="g218"><path
             id="path220"
             style="fill:#a3834a;fill-opacity:1;fill-rule:nonzero;stroke:none"
             d="m 0,0 c 0,4.284 5.302,7.769 11.818,7.769 6.517,0 11.819,-3.485 11.819,-7.769 0,-4.284 -5.302,-7.769 -11.819,-7.769 C 5.302,-7.769 0,-4.284 0,0 m 11.818,-8.06 c 6.681,0 12.117,3.616 12.117,8.06 0,4.444 -5.435,8.06 -12.117,8.06 C 5.137,8.06 -0.298,4.444 -0.298,0 c 0,-4.444 5.435,-8.06 12.116,-8.06" /></g><g
           transform="translate(171.4836,78.1402)"
           id="g222"><path
             id="path224"
             style="fill:#a3834a;fill-opacity:1;fill-rule:nonzero;stroke:none"
             d="m 0,0 h -15.13 c -1.278,-0.005 -2.054,0.832 -2.054,1.859 0,1.027 0.781,1.857 2.054,1.859 H 0 C 1.273,3.716 2.054,2.886 2.054,1.859 2.054,0.832 1.278,-0.005 0,0 m 0.007,4.324 h -15.145 c -1.602,0.003 -2.679,-1.121 -2.679,-2.469 0,-1.347 1.074,-2.459 2.682,-2.459 h 15.14 c 1.608,0 2.682,1.112 2.682,2.459 0,1.348 -1.077,2.472 -2.68,2.469" /></g><g
           transform="translate(166.299,80.9191)"
           id="g226"><path
             id="path228"
             style="fill:#a3834a;fill-opacity:1;fill-rule:nonzero;stroke:none"
             d="m 0,0 h 0.715 v -0.312 h 0.387 v -0.23 H 0.715 l 0.001,-1.54 H -0.001 L 0,-0.542 h -0.389 v 0.229 h 0.39 z" /></g><path
           id="path230"
           style="fill:#a3834a;fill-opacity:1;fill-rule:nonzero;stroke:none"
           d="m 157.918,80.38 h 0.715 v -1.543 h -0.715 z" /><path
           id="path232"
           style="fill:#a3834a;fill-opacity:1;fill-rule:nonzero;stroke:none"
           d="m 157.916,81.158 h 0.717 v -0.474 h -0.717 z" /><g
           transform="translate(171.0615,79.674)"
           id="g234"><path
             id="path236"
             style="fill:#a3834a;fill-opacity:1;fill-rule:nonzero;stroke:none"
             d="m 0,0 v 0 c 0,-0.005 -0.001,-0.234 -0.001,-0.326 0,-0.246 -0.149,-0.347 -0.292,-0.347 -0.143,0 -0.293,0.101 -0.293,0.347 v 0.332 c 0,0 0.001,0.229 0.001,0.322 0,0.245 0.15,0.346 0.292,0.346 0.143,0 0.292,-0.101 0.292,-0.346 0,-0.093 0,-0.266 0.001,-0.328 l 0,0.001 z m -0.287,0.865 c -0.577,0 -1.045,-0.388 -1.045,-0.866 0,-0.479 0.468,-0.867 1.045,-0.867 0.577,0 1.045,0.388 1.045,0.867 0,0.478 -0.468,0.866 -1.045,0.866" /></g><g
           transform="translate(159.7608,79.897)"
           id="g238"><path
             id="path240"
             style="fill:#a3834a;fill-opacity:1;fill-rule:nonzero;stroke:none"
             d="m 0,0 c 0,0.239 0.169,0.3 0.28,0.3 0.114,0 0.281,-0.061 0.281,-0.3 0,-0.079 -0.001,-0.274 -0.001,-0.274 0,0 0.001,-0.193 0.001,-0.275 0,-0.238 -0.167,-0.301 -0.28,-0.301 C 0.169,-0.85 0,-0.787 0,-0.549 v 0.273 z m -0.701,1.265 v -2.32 h 0.708 c 0,0 0,0.076 0,0.089 0.274,-0.167 0.582,-0.166 0.823,-0.057 0.064,0.029 0.489,0.228 0.489,0.765 0,0.407 -0.394,0.852 -0.909,0.807 C 0.24,0.535 0.119,0.475 0.005,0.412 v 0.853 z" /></g><g
           transform="translate(164.5804,80.2066)"
           id="g242"><path
             id="path244"
             style="fill:#a3834a;fill-opacity:1;fill-rule:nonzero;stroke:none"
             d="m 0,0 c 0.056,0.095 0.158,0.141 0.251,0.141 v 0 H 0.252 0.251 C 0.345,0.141 0.447,0.095 0.503,0 0.548,-0.077 0.551,-0.167 0.549,-0.303 H -0.047 C -0.049,-0.167 -0.046,-0.077 0,0 m 0.548,-0.861 c 0,-0.283 -0.191,-0.345 -0.296,-0.345 -0.106,0 -0.299,0.062 -0.299,0.345 0,0.084 0,0.318 0,0.318 H 1.3 c 0,0.479 -0.474,0.875 -1.055,0.875 -0.581,0 -1.053,-0.388 -1.053,-0.866 0,-0.478 0.472,-0.866 1.053,-0.866 0.482,0 0.89,0.268 1.015,0.632 H 0.547 c 0,0 0.001,-0.007 0.001,-0.093" /></g><g
           transform="translate(156.7339,79.0668)"
           id="g246"><path
             id="path248"
             style="fill:#a3834a;fill-opacity:1;fill-rule:nonzero;stroke:none"
             d="M 0,0 V 2.102 H -0.716 V 0 -0.229 H 0 0.775 V 0 Z" /></g><g
           transform="translate(168.9009,79.8156)"
           id="g250"><path
             id="path252"
             style="fill:#a3834a;fill-opacity:1;fill-rule:nonzero;stroke:none"
             d="M 0,0 H 0.701 C 0.629,0.498 0.151,0.642 -0.096,0.636 -0.332,0.629 -0.529,0.53 -0.666,0.403 c 0,0.038 0,0.162 0,0.162 h -0.709 l -10e-4,-1.543 h 0.71 c 0,0 0,0.948 0,1.013 0,0.134 0.145,0.284 0.339,0.284 C -0.132,0.319 0,0.169 0,0.035 Z" /></g><g
           transform="translate(162.2045,80.3785)"
           id="g254"><path
             id="path256"
             style="fill:#a3834a;fill-opacity:1;fill-rule:nonzero;stroke:none"
             d="m 0,0 v 0.274 c 0,0.238 0.169,0.3 0.281,0.3 0.113,0 0.28,-0.062 0.28,-0.3 0,-0.082 -0.001,-0.275 -0.001,-0.275 0,0 0.001,-0.196 0.001,-0.275 0,-0.239 -0.167,-0.299 -0.281,-0.299 -0.111,0 -0.28,0.06 -0.28,0.299 z M 1.319,-0.017 C 1.319,0.52 0.894,0.718 0.83,0.748 0.589,0.857 0.281,0.857 0.007,0.69 c 0,0.014 0,0.089 0,0.089 h -0.708 v -2.32 h 0.706 v 0.854 C 0.008,-0.689 0.011,-0.69 0.014,-0.692 l 0.554,-0.849 h 0.701 l -0.5,0.766 c 0.328,0.126 0.55,0.452 0.55,0.758" /></g><g
           transform="translate(244,100)"
           id="g258"><path
             id="path260"
             style="fill:#808080;fill-opacity:1;fill-rule:nonzero;stroke:none"
             d="M 0,0 -1.097,-0.736 -6.819,-4.574 C -10.015,-6.717 -12,-10.637 -12,-14.805 V -48 h 2.133 v 33.195 c 0,3.353 1.574,6.461 4.145,8.185 L 0,-2.782 Z" /></g><g
           transform="translate(12,100)"
           id="g262"><path
             id="path264"
             style="fill:#808080;fill-opacity:1;fill-rule:nonzero;stroke:none"
             d="M 0,0 1.097,-0.736 6.819,-4.574 C 10.015,-6.717 12,-10.637 12,-14.805 V -48 H 9.867 v 33.195 c 0,3.353 -1.574,6.461 -4.145,8.185 L 0,-2.782 Z" /></g><g
           transform="translate(127.4612,91.8962)"
           id="g266"><path
             id="path268"
             style="fill:#000000;fill-opacity:1;fill-rule:nonzero;stroke:none"
             d="M 0,0 C -0.058,-0.002 -0.115,-0.015 -0.167,-0.039 L -3.01,-1.38 c -0.084,-0.04 -0.153,-0.106 -0.194,-0.187 l -1.909,-3.598 -2.784,1.309 c -0.118,0.056 -0.255,0.056 -0.373,0 l -2.844,-1.341 c -0.148,-0.07 -0.242,-0.215 -0.24,-0.374 v -12.586 c -0.002,-0.159 0.092,-0.305 0.24,-0.374 l 2.844,-1.342 c 0.118,-0.055 0.255,-0.055 0.373,0 l 2.851,1.342 c 0.148,0.069 0.241,0.215 0.24,0.374 v 2.044 c 0.092,-0.021 0.188,-0.012 0.274,0.025 l 1.281,0.594 v -6.481 c -10e-4,-0.159 0.093,-0.304 0.241,-0.374 l 2.843,-1.341 c 0.118,-0.055 0.256,-0.055 0.374,0 l 2.85,1.341 c 0.148,0.07 0.242,0.215 0.241,0.374 v 6.481 l 1.281,-0.594 c 0.083,-0.038 0.177,-0.049 0.267,-0.032 v -2.037 c -0.001,-0.159 0.092,-0.305 0.24,-0.374 l 2.851,-1.342 c 0.118,-0.055 0.256,-0.055 0.374,0 l 2.843,1.342 c 0.148,0.069 0.242,0.215 0.24,0.374 v 12.586 c 0.002,0.159 -0.092,0.304 -0.24,0.374 L 8.311,-3.856 C 8.193,-3.8 8.055,-3.8 7.937,-3.856 L 5.16,-5.165 3.251,-1.567 C 3.209,-1.486 3.141,-1.42 3.057,-1.38 l -2.85,1.341 C 0.142,-0.009 0.071,0.004 0,0" /></g><g
           transform="translate(138.7488,73.7381)"
           id="g270"><path
             id="path272"
             style="fill:#000000;fill-opacity:1;fill-rule:nonzero;stroke:none"
             d="m 0,0 c 0.001,-0.119 -0.07,-0.229 -0.18,-0.281 l -2.844,-1.341 c -0.089,-0.042 -0.191,-0.041 -0.28,0 l -2.85,1.341 c -0.111,0.052 -0.182,0.162 -0.181,0.282 v 2.037 c 0,0.031 -0.014,0.06 -0.039,0.08 -0.025,0.019 -0.057,0.028 -0.088,0.021 -0.068,-0.012 -0.139,-0.004 -0.2,0.024 L -7.944,2.757 C -7.977,2.772 -8.016,2.77 -8.047,2.751 -8.078,2.732 -8.097,2.699 -8.097,2.664 v -6.481 c 10e-4,-0.119 -0.07,-0.229 -0.18,-0.281 l -2.85,-1.341 c -0.09,-0.042 -0.192,-0.042 -0.281,0 l -2.843,1.341 c -0.111,0.052 -0.181,0.162 -0.181,0.281 v 6.481 c 0,0.035 -0.018,0.068 -0.049,0.087 -0.018,0.011 -0.038,0.016 -0.057,0.016 -0.016,0 -0.032,-0.004 -0.047,-0.01 l -1.279,-0.593 c -0.064,-0.028 -0.137,-0.034 -0.205,-0.019 -0.032,0.008 -0.065,0 -0.091,-0.02 -0.026,-0.019 -0.041,-0.049 -0.041,-0.08 V 0 c 0.001,-0.119 -0.069,-0.229 -0.18,-0.281 l -2.85,-1.341 c -0.089,-0.041 -0.191,-0.042 -0.28,0 l -2.844,1.341 c -0.11,0.052 -0.181,0.162 -0.18,0.282 v 12.587 c -0.001,0.118 0.07,0.228 0.18,0.28 l 2.844,1.341 c 0.089,0.042 0.191,0.042 0.28,0 l 2.784,-1.309 c 0.052,-0.024 0.115,-0.004 0.141,0.046 l 1.91,3.599 c 0.031,0.061 0.083,0.111 0.145,0.141 l 2.842,1.34 c 0.039,0.018 0.081,0.028 0.125,0.029 0.001,0 0.002,0 0.003,0 0.053,0.003 0.106,-0.007 0.154,-0.028 l 2.849,-1.341 c 0.063,-0.03 0.114,-0.08 0.146,-0.142 l 1.909,-3.598 c 0.027,-0.05 0.09,-0.07 0.142,-0.045 l 2.777,1.308 c 0.089,0.042 0.191,0.042 0.28,0.001 L -0.18,12.868 C -0.07,12.816 0.001,12.706 0,12.587 Z m -0.087,13.054 -2.843,1.341 c -0.149,0.07 -0.319,0.07 -0.468,0 L -6.08,13.13 -7.941,16.637 c -0.052,0.101 -0.138,0.184 -0.243,0.234 l -2.851,1.342 c -0.08,0.036 -0.17,0.053 -0.258,0.048 -0.072,-0.002 -0.141,-0.019 -0.208,-0.049 l -2.844,-1.341 c -0.105,-0.05 -0.191,-0.133 -0.242,-0.233 l -1.861,-3.508 -2.69,1.265 c -0.148,0.07 -0.318,0.07 -0.467,0 l -2.843,-1.341 c -0.184,-0.087 -0.302,-0.27 -0.301,-0.467 V 10e-4 c -0.001,-0.197 0.117,-0.381 0.3,-0.467 l 2.844,-1.341 c 0.149,-0.07 0.319,-0.07 0.467,0 l 2.851,1.341 c 0.184,0.086 0.302,0.27 0.3,0.467 v 1.93 c 0.073,10e-4 0.145,0.017 0.213,0.046 l 1.129,0.523 v -6.316 c -0.002,-0.197 0.116,-0.381 0.3,-0.467 l 2.844,-1.341 c 0.074,-0.035 0.154,-0.053 0.233,-0.053 0.08,0 0.16,0.018 0.234,0.053 l 2.85,1.341 c 0.184,0.086 0.302,0.27 0.301,0.466 V 2.5 L -6.755,1.977 C -6.69,1.947 -6.619,1.931 -6.548,1.928 V 10e-4 c -0.002,-0.197 0.116,-0.381 0.3,-0.467 l 2.85,-1.341 c 0.149,-0.07 0.319,-0.07 0.468,0 l 2.843,1.341 c 0.184,0.086 0.302,0.27 0.301,0.467 v 12.585 c 0.001,0.198 -0.117,0.381 -0.301,0.468" /></g><g
           transform="translate(127.4819,88.8011)"
           id="g274"><path
             id="path276"
             style="fill:#808080;fill-opacity:1;fill-rule:nonzero;stroke:none"
             d="M 0,0 -2.847,1.341 0,2.682 2.847,1.341 Z" /></g><g
           transform="translate(125.0007,90.1423)"
           id="g278"><path
             id="path280"
             style="fill:#ffffff;fill-opacity:1;fill-rule:nonzero;stroke:none"
             d="M 0,0 2.481,-1.169 4.962,0 2.481,1.169 Z m 2.481,-1.496 c -0.024,0 -0.048,0.005 -0.07,0.016 l -2.847,1.341 c -0.055,0.026 -0.09,0.08 -0.09,0.139 0,0.059 0.035,0.113 0.09,0.139 L 2.411,1.48 c 0.044,0.021 0.096,0.021 0.14,0 L 5.398,0.139 C 5.453,0.113 5.488,0.059 5.488,0 c 0,-0.059 -0.035,-0.113 -0.09,-0.139 L 2.551,-1.48 C 2.529,-1.491 2.505,-1.496 2.481,-1.496" /></g><g
           transform="translate(127.4819,88.8011)"
           id="g282"><path
             id="path284"
             style="fill:#b3b3b3;fill-opacity:1;fill-rule:nonzero;stroke:none"
             d="m 0,0 -2.847,1.341 -2.627,-4.952 2.846,-1.341 z" /></g><g
           transform="translate(122.2246,85.2602)"
           id="g286"><path
             id="path288"
             style="fill:#ffffff;fill-opacity:1;fill-rule:nonzero;stroke:none"
             d="M 0,0 2.559,-1.205 5.04,3.471 2.482,4.676 Z m 2.629,-1.566 c -0.023,0 -0.047,0.005 -0.07,0.016 l -2.846,1.341 c -0.039,0.018 -0.069,0.051 -0.082,0.09 -0.014,0.04 -0.01,0.083 0.009,0.12 l 2.628,4.952 c 0.04,0.074 0.135,0.105 0.213,0.068 L 5.327,3.68 C 5.366,3.662 5.396,3.629 5.409,3.59 5.423,3.55 5.419,3.507 5.4,3.47 L 2.772,-1.482 C 2.744,-1.535 2.688,-1.566 2.629,-1.566" /></g><g
           transform="translate(127.4819,83.8491)"
           id="g290"><path
             id="path292"
             style="fill:#7b0000;fill-opacity:1;fill-rule:nonzero;stroke:none"
             d="M 0,0 V 4.952 L -2.628,0 -5.255,2.476 -3.066,-1.651 Z" /></g><g
           transform="translate(122.8159,85.5535)"
           id="g294"><path
             id="path296"
             style="fill:#ffffff;fill-opacity:1;fill-rule:nonzero;stroke:none"
             d="m 0,0 1.667,-3.142 2.839,1.528 v 4.22 L 2.181,-1.775 C 2.158,-1.819 2.114,-1.849 2.064,-1.857 2.014,-1.865 1.963,-1.85 1.926,-1.815 Z m 1.6,-3.51 c -0.015,0 -0.031,0.002 -0.046,0.007 -0.042,0.012 -0.077,0.04 -0.096,0.077 l -2.19,4.127 c -0.036,0.068 -0.016,0.15 0.047,0.195 0.063,0.045 0.151,0.039 0.207,-0.014 L 1.995,-1.447 4.523,3.318 C 4.557,3.382 4.631,3.415 4.703,3.398 4.775,3.381 4.826,3.319 4.826,3.248 V -1.704 C 4.826,-1.76 4.795,-1.812 4.744,-1.84 L 1.678,-3.49 C 1.654,-3.503 1.627,-3.51 1.6,-3.51" /></g><g
           transform="translate(119.3797,84.9839)"
           id="g298"><path
             id="path300"
             style="fill:#b3b3b3;fill-opacity:1;fill-rule:nonzero;stroke:none"
             d="M 0,0 2.847,1.341 5.474,-3.611 2.628,-4.952 Z" /></g><g
           transform="translate(119.5245,84.9374)"
           id="g302"><path
             id="path304"
             style="fill:#ffffff;fill-opacity:1;fill-rule:nonzero;stroke:none"
             d="m 0,0 2.53,-4.768 2.655,1.25 -2.53,4.769 z m 2.483,-5.009 c -0.039,0 -0.076,0.021 -0.095,0.056 l -2.628,4.952 c -0.013,0.025 -0.015,0.054 -0.006,0.08 0.009,0.026 0.029,0.048 0.054,0.06 L 2.655,1.48 C 2.708,1.505 2.77,1.485 2.797,1.435 L 5.425,-3.517 C 5.438,-3.542 5.44,-3.571 5.431,-3.597 5.422,-3.623 5.402,-3.645 5.377,-3.657 L 2.53,-4.998 C 2.515,-5.005 2.499,-5.009 2.483,-5.009" /></g><g
           transform="translate(122.7395,76.1794)"
           id="g306"><path
             id="path308"
             style="fill:#7b0000;fill-opacity:1;fill-rule:nonzero;stroke:none"
             d="M 0,0 1.896,0.88 V 1.789 Z" /></g><g
           transform="translate(124.475,77.601)"
           id="g310"><path
             id="path312"
             style="fill:#ffffff;fill-opacity:1;fill-rule:nonzero;stroke:none"
             d="M 0,0 -0.926,-0.874 0,-0.444 Z m -1.735,-1.576 c -0.051,0 -0.101,0.023 -0.132,0.066 -0.045,0.062 -0.037,0.146 0.02,0.199 L 0.048,0.478 C 0.094,0.522 0.163,0.534 0.222,0.51 0.282,0.486 0.32,0.43 0.32,0.368 v -0.91 c 0,-0.059 -0.035,-0.113 -0.09,-0.139 l -1.896,-0.88 c -0.022,-0.01 -0.046,-0.015 -0.069,-0.015" /></g><g
           transform="translate(122.2264,76.4211)"
           id="g314"><path
             id="path316"
             style="fill:#7b0000;fill-opacity:1;fill-rule:nonzero;stroke:none"
             d="M 0,0 V -2.682 L -2.847,-4.024 V 4.024" /></g><g
           transform="translate(119.3797,72.2428)"
           id="g318"><path
             id="path320"
             style="fill:#ffffff;fill-opacity:1;fill-rule:nonzero;stroke:none"
             d="M 0,0 C -0.03,0 -0.059,0.008 -0.085,0.024 -0.132,0.052 -0.16,0.101 -0.16,0.155 v 8.047 h 0.32 v -7.8 l 2.527,1.191 v 2.585 h 0.32 V 1.496 C 3.007,1.437 2.972,1.383 2.917,1.357 L 0.07,0.016 C 0.048,0.005 0.024,0 0,0" /></g><g
           transform="translate(124.6352,69.9215)"
           id="g322"><path
             id="path324"
             style="fill:#ff0000;fill-opacity:1;fill-rule:nonzero;stroke:none"
             d="M 0,0 2.847,-1.341 V 11.245 L 0,12.586 -2.628,10.11 -5.255,15.062 -8.102,16.404 V 3.817 l 2.847,-1.341 v 8.047 L -3.355,6.945 -1.896,6.258 0,8.047 Z" /></g><g
           transform="translate(124.7954,70.0182)"
           id="g326"><path
             id="path328"
             style="fill:#ffffff;fill-opacity:1;fill-rule:nonzero;stroke:none"
             d="m 0,0 2.526,-1.19 v 12.242 l -2.655,1.251 -2.547,-2.4 C -2.713,9.869 -2.763,9.853 -2.814,9.861 -2.864,9.869 -2.907,9.899 -2.931,9.943 l -2.603,4.906 -2.568,1.21 V 3.817 l 2.526,-1.19 v 7.799 c 0,0.072 0.051,0.134 0.123,0.151 0.073,0.016 0.146,-0.017 0.18,-0.08 l 1.876,-3.532 1.31,-0.617 1.815,1.713 c 0.046,0.043 0.115,0.056 0.174,0.032 C -0.039,8.069 0,8.013 0,7.95 Z m 2.686,-1.593 c -0.024,0 -0.048,0.006 -0.07,0.016 l -2.846,1.341 c -0.055,0.026 -0.09,0.08 -0.09,0.139 v 7.68 L -1.944,6.05 C -1.993,6.004 -2.066,5.993 -2.126,6.022 L -3.585,6.71 C -3.617,6.724 -3.642,6.748 -3.658,6.778 L -5.256,9.786 V 2.379 C -5.256,2.326 -5.284,2.276 -5.331,2.248 -5.378,2.22 -5.436,2.217 -5.486,2.24 l -2.847,1.341 c -0.055,0.026 -0.09,0.08 -0.09,0.139 v 12.587 c 0,0.053 0.029,0.103 0.076,0.131 0.046,0.029 0.105,0.032 0.155,0.008 l 2.846,-1.341 c 0.032,-0.015 0.057,-0.039 0.073,-0.069 l 2.528,-4.765 2.473,2.33 c 0.048,0.045 0.121,0.056 0.182,0.028 l 2.847,-1.341 c 0.055,-0.026 0.09,-0.08 0.09,-0.139 V -1.438 C 2.847,-1.491 2.818,-1.541 2.771,-1.569 2.745,-1.585 2.716,-1.593 2.686,-1.593" /></g><g
           transform="translate(119.3797,84.9839)"
           id="g330"><path
             id="path332"
             style="fill:#808080;fill-opacity:1;fill-rule:nonzero;stroke:none"
             d="M 0,0 -2.847,1.341 0,2.682 2.847,1.341 Z" /></g><g
           transform="translate(116.8985,86.3251)"
           id="g334"><path
             id="path336"
             style="fill:#ffffff;fill-opacity:1;fill-rule:nonzero;stroke:none"
             d="M 0,0 2.481,-1.169 4.962,0 2.481,1.169 Z m 2.481,-1.496 c -0.024,0 -0.048,0.005 -0.07,0.016 l -2.847,1.341 c -0.055,0.026 -0.09,0.08 -0.09,0.139 0,0.059 0.035,0.113 0.09,0.139 L 2.411,1.48 c 0.044,0.021 0.096,0.021 0.14,0 L 5.398,0.139 C 5.453,0.113 5.488,0.059 5.488,0 c 0,-0.059 -0.035,-0.113 -0.09,-0.139 L 2.551,-1.48 C 2.529,-1.491 2.505,-1.496 2.481,-1.496" /></g><g
           transform="translate(127.4819,88.8011)"
           id="g338"><path
             id="path340"
             style="fill:#b3b3b3;fill-opacity:1;fill-rule:nonzero;stroke:none"
             d="M 0,0 2.847,1.341 5.474,-3.611 2.628,-4.952 Z" /></g><g
           transform="translate(127.699,88.7312)"
           id="g342"><path
             id="path344"
             style="fill:#ffffff;fill-opacity:1;fill-rule:nonzero;stroke:none"
             d="M 0,0 2.481,-4.676 5.04,-3.471 2.559,1.205 Z m 2.411,-5.037 c -0.059,0 -0.115,0.031 -0.143,0.084 l -2.628,4.952 c -0.019,0.037 -0.023,0.08 -0.009,0.12 0.013,0.039 0.043,0.072 0.082,0.09 L 2.559,1.55 C 2.638,1.587 2.733,1.557 2.772,1.482 L 5.4,-3.47 C 5.42,-3.507 5.423,-3.55 5.409,-3.59 5.396,-3.629 5.366,-3.662 5.328,-3.68 L 2.481,-5.021 C 2.458,-5.032 2.434,-5.037 2.411,-5.037" /></g><g
           transform="translate(127.4819,83.8491)"
           id="g346"><path
             id="path348"
             style="fill:#ff0000;fill-opacity:1;fill-rule:nonzero;stroke:none"
             d="M 0,0 V 4.952 L 2.628,0 5.255,2.476 3.066,-1.651 Z" /></g><g
           transform="translate(127.6421,83.94)"
           id="g350"><path
             id="path352"
             style="fill:#ffffff;fill-opacity:1;fill-rule:nonzero;stroke:none"
             d="M 0,0 2.839,-1.528 4.506,1.614 2.579,-0.202 C 2.543,-0.236 2.492,-0.251 2.442,-0.244 2.391,-0.236 2.348,-0.205 2.325,-0.161 L 0,4.22 Z m 2.906,-1.896 c -0.028,0 -0.054,0.006 -0.078,0.019 l -3.066,1.651 c -0.051,0.027 -0.082,0.079 -0.082,0.135 v 4.952 c 0,0.072 0.05,0.134 0.122,0.151 0.072,0.017 0.147,-0.017 0.18,-0.08 L 2.511,0.166 4.983,2.496 C 5.04,2.549 5.128,2.554 5.19,2.51 5.254,2.465 5.274,2.382 5.238,2.315 L 3.048,-1.812 C 3.028,-1.849 2.994,-1.877 2.952,-1.89 2.937,-1.894 2.921,-1.896 2.906,-1.896" /></g><g
           transform="translate(135.584,84.9839)"
           id="g354"><path
             id="path356"
             style="fill:#b3b3b3;fill-opacity:1;fill-rule:nonzero;stroke:none"
             d="m 0,0 -2.847,1.341 -2.627,-4.952 2.846,-1.341 z" /></g><g
           transform="translate(130.2543,81.4196)"
           id="g358"><path
             id="path360"
             style="fill:#ffffff;fill-opacity:1;fill-rule:nonzero;stroke:none"
             d="m 0,0 2.655,-1.251 2.53,4.769 -2.655,1.25 z m 2.702,-1.491 c -0.016,0 -0.032,0.003 -0.047,0.011 l -2.846,1.341 c -0.026,0.012 -0.046,0.034 -0.055,0.06 -0.009,0.026 -0.007,0.055 0.006,0.08 l 2.628,4.952 c 0.027,0.05 0.09,0.07 0.142,0.045 L 5.376,3.657 C 5.402,3.645 5.422,3.623 5.431,3.597 5.44,3.571 5.438,3.542 5.425,3.517 L 2.797,-1.435 C 2.778,-1.47 2.741,-1.491 2.702,-1.491" /></g><g
           transform="translate(132.2242,76.1794)"
           id="g362"><path
             id="path364"
             style="fill:#ff0000;fill-opacity:1;fill-rule:nonzero;stroke:none"
             d="M 0,0 -1.896,0.88 V 1.789 Z" /></g><g
           transform="translate(130.4888,77.1567)"
           id="g366"><path
             id="path368"
             style="fill:#ffffff;fill-opacity:1;fill-rule:nonzero;stroke:none"
             d="M 0,0 0.926,-0.43 0,0.444 Z m 1.735,-1.132 c -0.023,0 -0.047,0.005 -0.069,0.015 l -1.896,0.88 c -0.055,0.026 -0.09,0.08 -0.09,0.14 v 0.909 c 0,0.062 0.038,0.118 0.098,0.142 0.059,0.024 0.128,0.012 0.174,-0.032 L 1.847,-0.867 C 1.903,-0.92 1.912,-1.004 1.867,-1.066 1.836,-1.109 1.786,-1.132 1.735,-1.132" /></g><g
           transform="translate(132.7373,76.4211)"
           id="g370"><path
             id="path372"
             style="fill:#ff0000;fill-opacity:1;fill-rule:nonzero;stroke:none"
             d="M 0,0 V -2.682 L 2.847,-4.024 V 4.024" /></g><g
           transform="translate(135.584,72.2428)"
           id="g374"><path
             id="path376"
             style="fill:#ffffff;fill-opacity:1;fill-rule:nonzero;stroke:none"
             d="m 0,0 c -0.024,0 -0.048,0.005 -0.07,0.016 l -2.847,1.341 c -0.055,0.026 -0.09,0.08 -0.09,0.139 v 2.682 h 0.32 V 1.593 L -0.16,0.402 v 7.8 H 0.16 V 0.155 C 0.16,0.101 0.132,0.052 0.085,0.024 0.059,0.008 0.03,0 0,0" /></g><g
           transform="translate(130.3286,69.9215)"
           id="g378"><path
             id="path380"
             style="fill:#7b0000;fill-opacity:1;fill-rule:nonzero;stroke:none"
             d="M 0,0 -2.847,-1.341 V 11.245 L 0,12.586 2.628,10.11 5.255,15.062 8.102,16.404 V 3.817 L 5.255,2.476 v 8.047 L 3.355,6.945 1.896,6.258 0,8.047 Z" /></g><g
           transform="translate(127.6421,81.07)"
           id="g382"><path
             id="path384"
             style="fill:#ffffff;fill-opacity:1;fill-rule:nonzero;stroke:none"
             d="m 0,0 v -12.242 l 2.526,1.19 v 7.951 c 0,0.062 0.039,0.118 0.098,0.142 0.06,0.024 0.128,0.012 0.175,-0.032 l 1.815,-1.713 1.309,0.617 1.876,3.532 c 0.034,0.064 0.109,0.097 0.18,0.08 0.072,-0.017 0.123,-0.079 0.123,-0.15 v -7.8 l 2.526,1.19 V 5.007 L 8.06,3.797 5.457,-1.109 C 5.434,-1.152 5.39,-1.183 5.34,-1.191 5.29,-1.199 5.239,-1.183 5.202,-1.149 l -2.547,2.4 z m -0.16,-12.644 c -0.03,0 -0.059,0.007 -0.085,0.023 -0.047,0.028 -0.075,0.078 -0.075,0.131 V 0.097 c 0,0.059 0.035,0.113 0.09,0.139 L 2.616,1.577 C 2.677,1.606 2.75,1.594 2.798,1.549 l 2.473,-2.33 2.528,4.766 c 0.016,0.029 0.042,0.053 0.073,0.068 l 2.846,1.341 c 0.05,0.023 0.109,0.021 0.156,-0.008 0.046,-0.028 0.075,-0.078 0.075,-0.131 V -7.331 c 0,-0.06 -0.035,-0.114 -0.09,-0.139 L 8.012,-8.812 C 7.963,-8.835 7.904,-8.832 7.857,-8.804 7.81,-8.775 7.782,-8.726 7.782,-8.673 v 7.407 L 6.184,-4.274 C 6.168,-4.304 6.143,-4.328 6.112,-4.342 L 4.653,-5.03 C 4.591,-5.059 4.519,-5.047 4.47,-5.001 l -1.623,1.532 v -7.68 c 0,-0.059 -0.035,-0.113 -0.09,-0.139 l -2.847,-1.341 c -0.022,-0.01 -0.046,-0.015 -0.07,-0.015" /></g><g
           transform="translate(135.584,84.9839)"
           id="g386"><path
             id="path388"
             style="fill:#808080;fill-opacity:1;fill-rule:nonzero;stroke:none"
             d="M 0,0 2.847,1.341 0,2.682 -2.847,1.341 Z" /></g><g
           transform="translate(133.1027,86.3251)"
           id="g390"><path
             id="path392"
             style="fill:#ffffff;fill-opacity:1;fill-rule:nonzero;stroke:none"
             d="M 0,0 2.481,-1.169 4.963,0 2.481,1.169 Z m 2.481,-1.496 c -0.024,0 -0.048,0.005 -0.07,0.016 l -2.847,1.341 c -0.055,0.026 -0.09,0.08 -0.09,0.139 0,0.059 0.035,0.113 0.09,0.139 L 2.411,1.48 c 0.045,0.021 0.096,0.021 0.141,0 L 5.398,0.139 C 5.453,0.113 5.488,0.059 5.488,0 c 0,-0.059 -0.035,-0.113 -0.09,-0.139 L 2.552,-1.48 C 2.529,-1.491 2.505,-1.496 2.481,-1.496" /></g><g
           transform="translate(127.4819,81.1668)"
           id="g394"><path
             id="path396"
             style="fill:#808080;fill-opacity:1;fill-rule:nonzero;stroke:none"
             d="M 0,0 -2.847,1.341 0,2.682 2.847,1.341 Z" /></g><g
           transform="translate(125.0007,82.5079)"
           id="g398"><path
             id="path400"
             style="fill:#ffffff;fill-opacity:1;fill-rule:nonzero;stroke:none"
             d="M 0,0 2.481,-1.169 4.962,0 2.481,1.169 Z m 2.481,-1.496 c -0.024,0 -0.048,0.005 -0.07,0.016 l -2.847,1.341 c -0.055,0.026 -0.09,0.08 -0.09,0.139 0,0.059 0.035,0.113 0.09,0.139 L 2.411,1.48 c 0.044,0.021 0.096,0.021 0.14,0 L 5.398,0.139 C 5.453,0.113 5.488,0.059 5.488,0 c 0,-0.059 -0.035,-0.113 -0.09,-0.139 L 2.551,-1.48 C 2.529,-1.491 2.505,-1.496 2.481,-1.496" /></g><g
           transform="translate(134.2594,76.4404)"
           id="g402"><path
             id="path404"
             style="fill:#000000;fill-opacity:1;fill-rule:nonzero;stroke:none"
             d="m 0,0 c -0.099,0 -0.195,-0.038 -0.265,-0.105 -0.07,-0.068 -0.109,-0.16 -0.109,-0.256 V -2.534 H -2.63 c -0.099,0 -0.195,-0.038 -0.265,-0.105 -0.07,-0.068 -0.109,-0.16 -0.109,-0.256 v -2.541 c 0,-0.096 0.039,-0.188 0.109,-0.255 0.07,-0.068 0.166,-0.106 0.265,-0.106 h 2.256 v -2.179 c 0,-0.096 0.039,-0.188 0.109,-0.256 C -0.195,-8.3 -0.099,-8.338 0,-8.337 h 2.63 c 0.099,-10e-4 0.195,0.037 0.265,0.105 0.07,0.068 0.109,0.16 0.109,0.256 v 2.179 H 5.26 c 0.099,0 0.195,0.038 0.265,0.106 0.07,0.067 0.109,0.159 0.109,0.255 v 2.541 c 0,0.096 -0.039,0.188 -0.109,0.256 -0.07,0.067 -0.166,0.105 -0.265,0.105 H 3.004 v 2.173 c 0,0.096 -0.039,0.188 -0.109,0.256 C 2.825,-0.038 2.729,0 2.63,0 Z" /></g><g
           transform="translate(134.259,68.2063)"
           id="g406"><path
             id="path408"
             style="fill:#000000;fill-opacity:1;fill-rule:nonzero;stroke:none"
             d="M 0,0 H 2.63 2.631 C 2.702,0 2.77,0.027 2.819,0.075 2.869,0.123 2.898,0.19 2.897,0.258 v 2.179 c 0,0.057 0.048,0.103 0.107,0.103 H 5.26 5.261 c 0.071,0 0.139,0.028 0.188,0.075 0.05,0.049 0.079,0.115 0.078,0.183 V 5.339 C 5.528,5.407 5.499,5.474 5.45,5.521 5.4,5.569 5.332,5.597 5.262,5.597 H 5.261 3.004 C 2.945,5.597 2.897,5.643 2.897,5.7 V 7.873 C 2.898,7.941 2.869,8.008 2.82,8.056 2.77,8.103 2.702,8.131 2.632,8.131 H 2.631 0 c 0,0 -0.001,0 -0.001,0 -0.07,0 -0.138,-0.028 -0.188,-0.075 C -0.239,8.008 -0.267,7.941 -0.267,7.873 V 5.7 c 0,-0.057 -0.047,-0.103 -0.106,-0.103 H -2.63 -2.631 c -0.07,0 -0.138,-0.028 -0.188,-0.075 C -2.869,5.474 -2.897,5.407 -2.897,5.339 V 2.798 c 0,-0.068 0.028,-0.134 0.078,-0.182 0.05,-0.048 0.118,-0.076 0.188,-0.076 h 10e-4 2.257 c 0.059,0 0.106,-0.046 0.106,-0.103 V 0.258 c 0,-0.068 0.028,-0.135 0.078,-0.183 C -0.139,0.027 -0.071,0 -0.001,0 Z m -0.001,-0.206 c -0.126,0 -0.25,0.049 -0.339,0.135 -0.09,0.087 -0.141,0.207 -0.14,0.329 v 2.076 h -2.15 -10e-4 c -0.126,0 -0.25,0.05 -0.339,0.136 -0.089,0.086 -0.141,0.206 -0.14,0.329 v 2.54 c -0.001,0.122 0.051,0.242 0.14,0.329 0.089,0.086 0.22,0.132 0.341,0.135 h 2.149 v 2.07 c -0.001,0.122 0.05,0.242 0.14,0.329 0.089,0.086 0.216,0.134 0.341,0.135 H 2.63 2.632 c 0.126,0 0.25,-0.049 0.339,-0.136 C 3.06,8.115 3.112,7.995 3.111,7.873 V 5.803 H 5.26 C 5.381,5.801 5.511,5.754 5.601,5.667 5.69,5.581 5.742,5.461 5.741,5.339 V 2.798 C 5.742,2.676 5.69,2.556 5.601,2.47 5.512,2.384 5.388,2.334 5.262,2.334 H 5.26 3.111 V 0.258 C 3.112,0.136 3.06,0.016 2.971,-0.071 2.882,-0.157 2.758,-0.206 2.632,-0.206 H 2.63 0 Z" /></g><g
           transform="translate(134.2594,76.0793)"
           id="g410"><path
             id="path412"
             style="fill:#007b00;fill-opacity:1;fill-rule:nonzero;stroke:none"
             d="M 0,0 V -2.534 H -2.63 V -5.075 H 0 v -2.54 h 2.63 v 2.54 h 2.63 v 2.541 H 2.63 V 0 Z" /></g><g
           transform="translate(134.4196,68.619)"
           id="g414"><path
             id="path416"
             style="fill:#ffffff;fill-opacity:1;fill-rule:nonzero;stroke:none"
             d="m 0,0 h 2.31 v 2.386 c 0,0.085 0.071,0.155 0.16,0.155 h 2.47 v 2.23 H 2.47 c -0.089,0 -0.16,0.07 -0.16,0.155 v 2.38 H 0 V 4.926 C 0,4.841 -0.072,4.771 -0.16,4.771 h -2.47 v -2.23 h 2.47 C -0.072,2.541 0,2.471 0,2.386 Z m 2.47,-0.309 h -2.63 c -0.089,0 -0.16,0.069 -0.16,0.154 v 2.386 h -2.47 c -0.089,0 -0.16,0.069 -0.16,0.155 v 2.54 c 0,0.086 0.071,0.155 0.16,0.155 h 2.47 V 7.46 c 0,0.086 0.071,0.155 0.16,0.155 h 2.63 c 0.088,0 0.16,-0.069 0.16,-0.155 V 5.081 H 5.1 c 0.088,0 0.16,-0.069 0.16,-0.155 V 2.386 C 5.26,2.3 5.188,2.231 5.1,2.231 H 2.63 v -2.386 c 0,-0.085 -0.072,-0.154 -0.16,-0.154" /></g></g></g></g></svg>