<?xml version="1.0" encoding="UTF-8" standalone="no"?>
<svg
   xmlns:dc="http://purl.org/dc/elements/1.1/"
   xmlns:cc="http://creativecommons.org/ns#"
   xmlns:rdf="http://www.w3.org/1999/02/22-rdf-syntax-ns#"
   xmlns:svg="http://www.w3.org/2000/svg"
   xmlns="http://www.w3.org/2000/svg"
   viewBox="0 0 320 320"
   height="320"
   width="320"
   xml:space="preserve"
   version="1.1"
   id="svg2"><metadata
     id="metadata8"><rdf:RDF><cc:Work
         rdf:about=""><dc:format>image/svg+xml</dc:format><dc:type
           rdf:resource="http://purl.org/dc/dcmitype/StillImage" /></cc:Work></rdf:RDF></metadata><defs
     id="defs6"><clipPath
       id="clipPath16"
       clipPathUnits="userSpaceOnUse"><path
         id="path18"
         d="M 0,256 256,256 256,0 0,0 0,256 Z" /></clipPath><clipPath
       id="clipPath24"
       clipPathUnits="userSpaceOnUse"><path
         id="path26"
         d="M 28,252 228,252 228,4 28,4 28,252 Z" /></clipPath></defs><g
     transform="matrix(1.25,0,0,-1.25,0,320)"
     id="g10"><g
       id="g12"><g
         clip-path="url(#clipPath16)"
         id="g14"><g
           id="g20"><g
             id="g22" /><g
             id="g28"><g
               style="opacity:0.5"
               id="g30"
               clip-path="url(#clipPath24)"><g
                 id="g32"
                 transform="translate(212,252)"><path
                   id="path34"
                   style="fill:#ffffff;fill-opacity:1;fill-rule:nonzero;stroke:none"
                   d="m 0,0 -168,0 c -6.617,0 -12,-5.383 -12,-12 l 0,-1.07 c -2.391,-1.383 -4,-3.969 -4,-6.93 l 0,-4 c 0,-0.691 0.087,-1.361 0.252,-2 -0.165,-0.639 -0.252,-1.309 -0.252,-2 l 0,-4 c 0,-0.691 0.087,-1.361 0.252,-2 -0.165,-0.639 -0.252,-1.309 -0.252,-2 l 0,-4 c 0,-0.691 0.087,-1.361 0.252,-2 -0.165,-0.639 -0.252,-1.309 -0.252,-2 l 0,-4 c 0,-0.691 0.087,-1.361 0.252,-2 -0.165,-0.639 -0.252,-1.309 -0.252,-2 l 0,-4 c 0,-0.691 0.087,-1.361 0.252,-2 -0.165,-0.639 -0.252,-1.309 -0.252,-2 l 0,-4 c 0,-0.691 0.087,-1.361 0.252,-2 -0.165,-0.639 -0.252,-1.309 -0.252,-2 l 0,-4 c 0,-0.691 0.087,-1.361 0.252,-2 -0.165,-0.639 -0.252,-1.309 -0.252,-2 l 0,-4 c 0,-2.961 1.609,-5.547 4,-6.93 l 0,-149.07 c 0,-6.617 5.383,-12 12,-12 l 168,0 c 6.617,0 12,5.383 12,12 l 0,149.07 c 2.391,1.383 4,3.969 4,6.93 l 0,4 c 0,0.691 -0.087,1.361 -0.252,2 0.165,0.639 0.252,1.309 0.252,2 l 0,4 c 0,0.691 -0.087,1.361 -0.252,2 0.165,0.639 0.252,1.309 0.252,2 l 0,4 c 0,0.691 -0.087,1.361 -0.252,2 0.165,0.639 0.252,1.309 0.252,2 l 0,4 c 0,0.691 -0.087,1.361 -0.252,2 0.165,0.639 0.252,1.309 0.252,2 l 0,4 c 0,0.691 -0.087,1.361 -0.252,2 0.165,0.639 0.252,1.309 0.252,2 l 0,4 c 0,0.691 -0.087,1.361 -0.252,2 0.165,0.639 0.252,1.309 0.252,2 l 0,4 c 0,0.691 -0.087,1.361 -0.252,2 0.165,0.639 0.252,1.309 0.252,2 l 0,4 c 0,2.961 -1.609,5.547 -4,6.93 L 12,-12 C 12,-5.383 6.617,0 0,0" /></g></g></g></g><g
           transform="translate(220,228)"
           id="g36"><path
             id="path38"
             style="fill:#3c3c3c;fill-opacity:1;fill-rule:nonzero;stroke:none"
             d="m 0,0 0,4 -4,0 0,8 c 0,2.209 -1.791,4 -4,4 l -168,0 c -2.209,0 -4,-1.791 -4,-4 l 0,-8 -4,0 0,-4 4,0 0,-4 -4,0 0,-4 4,0 0,-4 -4,0 0,-4 4,0 0,-4 -4,0 0,-4 4,0 0,-4 -4,0 0,-4 4,0 0,-4 -4,0 0,-4 4,0 0,-4 -4,0 0,-4 4,0 0,-4 -4,0 0,-4 4,0 0,-156 c 0,-2.209 1.791,-4 4,-4 l 168,0 c 2.209,0 4,1.791 4,4 l 0,156 4,0 0,4 -4,0 0,4 4,0 0,4 -4,0 0,4 4,0 0,4 -4,0 0,4 4,0 0,4 -4,0 0,4 4,0 0,4 -4,0 0,4 4,0 0,4 -4,0 0,4 4,0 0,4 -4,0 0,4 4,0 z" /></g><g
           transform="translate(50,244)"
           id="g40"><path
             id="path42"
             style="fill:#262626;fill-opacity:1;fill-rule:nonzero;stroke:none"
             d="M 0,0 0,-125.185 C 0,-127.848 2.051,-130 4.588,-130 l 146.824,0 c 2.537,0 4.588,2.152 4.588,4.815 L 156,0 0,0 Z" /></g><g
           transform="translate(198.9333,244)"
           id="g44"><path
             id="path46"
             style="fill:#000000;fill-opacity:1;fill-rule:nonzero;stroke:none"
             d="m 0,0 -141.867,0 c -2.802,0 -5.066,-2.488 -5.066,-5.565 l 0,-116.87 c 0,-3.077 2.264,-5.565 5.066,-5.565 L 0,-128 c 2.802,0 5.067,2.488 5.067,5.565 l 0,116.87 C 5.067,-2.488 2.802,0 0,0" /></g><g
           transform="translate(60,137)"
           id="g48"><path
             id="path50"
             style="fill:#231f20;fill-opacity:1;fill-rule:nonzero;stroke:none"
             d="M 0,0 136,0" /></g><path
           id="path52"
           style="fill:#ffffff;fill-opacity:1;fill-rule:nonzero;stroke:none"
           d="m 196,136 -136,0 0,2 136,0 0,-2 z" /><g
           transform="translate(60,221)"
           id="g54"><path
             id="path56"
             style="fill:#231f20;fill-opacity:1;fill-rule:nonzero;stroke:none"
             d="M 0,0 136,0" /></g><path
           id="path58"
           style="fill:#ffffff;fill-opacity:1;fill-rule:nonzero;stroke:none"
           d="m 196,220 -136,0 0,2 136,0 0,-2 z" /><g
           transform="translate(67.934,235.3369)"
           id="g60"><path
             id="path62"
             style="fill:#ffff00;fill-opacity:1;fill-rule:nonzero;stroke:none"
             d="m 0,0 -2.312,0 0,0.509 c 0,0.514 -0.125,0.96 -0.375,1.336 -0.249,0.376 -0.668,0.563 -1.257,0.563 -0.318,0 -0.578,-0.058 -0.782,-0.176 C -4.931,2.113 -5.089,1.964 -5.202,1.779 -5.315,1.595 -5.395,1.381 -5.441,1.138 -5.486,0.896 -5.508,0.64 -5.508,0.376 c 0,-0.309 0.011,-0.572 0.034,-0.784 0.022,-0.214 0.079,-0.398 0.17,-0.554 0.09,-0.155 0.222,-0.29 0.396,-0.408 0.174,-0.119 0.412,-0.236 0.714,-0.353 l 1.768,-0.685 c 0.514,-0.192 0.93,-0.417 1.247,-0.674 0.318,-0.259 0.563,-0.561 0.736,-0.907 0.175,-0.347 0.292,-0.744 0.352,-1.194 C -0.03,-5.632 0,-6.143 0,-6.719 0,-7.38 -0.068,-7.995 -0.204,-8.564 c -0.136,-0.566 -0.36,-1.052 -0.669,-1.458 -0.309,-0.405 -0.722,-0.725 -1.235,-0.961 -0.514,-0.235 -1.141,-0.354 -1.882,-0.354 -0.559,0 -1.08,0.097 -1.563,0.288 -0.485,0.191 -0.9,0.453 -1.247,0.784 -0.348,0.333 -0.624,0.727 -0.828,1.183 -0.204,0.455 -0.306,0.95 -0.306,1.48 l 0,0.84 2.312,0 0,-0.707 c 0,-0.413 0.125,-0.785 0.374,-1.116 0.25,-0.331 0.669,-0.497 1.258,-0.497 0.393,0 0.699,0.054 0.919,0.166 0.218,0.109 0.384,0.264 0.498,0.464 0.113,0.198 0.185,0.446 0.216,0.741 0.029,0.293 0.045,0.618 0.045,0.971 0,0.412 -0.016,0.751 -0.045,1.016 -0.031,0.266 -0.095,0.48 -0.193,0.642 -0.099,0.162 -0.235,0.295 -0.408,0.397 -0.174,0.103 -0.405,0.214 -0.692,0.331 l -1.654,0.664 c -0.997,0.397 -1.666,0.924 -2.006,1.581 -0.341,0.654 -0.511,1.476 -0.511,2.463 0,0.588 0.083,1.149 0.25,1.68 0.166,0.529 0.412,0.985 0.736,1.368 0.325,0.384 0.737,0.689 1.235,0.918 0.499,0.228 1.081,0.343 1.746,0.343 0.574,0 1.1,-0.104 1.576,-0.309 0.476,-0.207 0.883,-0.48 1.224,-0.818 0.34,-0.339 0.6,-0.718 0.782,-1.139 C -0.091,1.978 0,1.547 0,1.104 L 0,0 Z" /></g><g
           transform="translate(69.5204,236.1551)"
           id="g64"><path
             id="path66"
             style="fill:#ffff00;fill-opacity:1;fill-rule:nonzero;stroke:none"
             d="M 0,0 C 0,0.633 0.113,1.192 0.34,1.68 0.567,2.165 0.865,2.566 1.236,2.883 1.606,3.199 2.021,3.438 2.482,3.602 2.943,3.764 3.408,3.845 3.877,3.845 4.344,3.845 4.809,3.764 5.27,3.602 5.731,3.438 6.146,3.199 6.517,2.883 6.887,2.566 7.186,2.165 7.413,1.68 7.639,1.192 7.752,0.633 7.752,0 l 0,-0.797 -2.312,0 0,0.797 C 5.44,0.545 5.285,0.946 4.976,1.203 4.666,1.462 4.299,1.59 3.877,1.59 3.453,1.59 3.086,1.462 2.777,1.203 2.467,0.946 2.312,0.545 2.312,0 l 0,-8.31 c 0,-0.545 0.155,-0.946 0.465,-1.203 0.309,-0.259 0.676,-0.387 1.1,-0.387 0.422,0 0.789,0.128 1.099,0.387 0.309,0.257 0.464,0.658 0.464,1.203 l 0,2.962 -1.835,0 0,1.989 4.147,0 0,-4.951 c 0,-0.648 -0.113,-1.212 -0.339,-1.691 -0.227,-0.478 -0.526,-0.875 -0.896,-1.192 -0.371,-0.316 -0.786,-0.557 -1.247,-0.719 -0.461,-0.162 -0.926,-0.243 -1.393,-0.243 -0.469,0 -0.934,0.081 -1.395,0.243 -0.461,0.162 -0.876,0.403 -1.246,0.719 -0.371,0.317 -0.669,0.714 -0.896,1.192 C 0.113,-9.522 0,-8.958 0,-8.31 L 0,0 Z" /></g><path
           id="path68"
           style="fill:#ffff00;fill-opacity:1;fill-rule:nonzero;stroke:none"
           d="m 79.222,231.38 6.823,0 0,-2.253 -6.823,0 0,2.253 z" /><g
           transform="translate(90.5553,237.4805)"
           id="g70"><path
             id="path72"
             style="fill:#ffff00;fill-opacity:1;fill-rule:nonzero;stroke:none"
             d="m 0,0 -2.311,-1.658 0,2.386 2.311,1.658 2.312,0 0,-15.733 -2.312,0 L 0,0 Z" /></g><g
           transform="translate(98.5565,227.3809)"
           id="g74"><path
             id="path76"
             style="fill:#ffff00;fill-opacity:1;fill-rule:nonzero;stroke:none"
             d="m 0,0 c 0,-0.324 0.106,-0.593 0.317,-0.806 0.212,-0.214 0.485,-0.32 0.817,-0.32 0.332,0 0.604,0.106 0.816,0.32 0.211,0.213 0.317,0.482 0.317,0.806 l 0,9.238 c 0,0.324 -0.106,0.592 -0.317,0.806 -0.212,0.214 -0.484,0.32 -0.816,0.32 -0.332,0 -0.605,-0.106 -0.817,-0.32 C 0.106,9.83 0,9.562 0,9.238 L 0,0 Z m -2.311,9.238 c 0,0.531 0.094,1.002 0.283,1.414 0.188,0.411 0.442,0.766 0.759,1.061 0.317,0.295 0.683,0.519 1.099,0.674 0.415,0.155 0.851,0.232 1.304,0.232 0.453,0 0.887,-0.077 1.303,-0.232 0.416,-0.155 0.782,-0.379 1.099,-0.674 0.318,-0.295 0.57,-0.65 0.759,-1.061 C 4.484,10.24 4.579,9.769 4.579,9.238 L 4.579,0 C 4.579,-0.531 4.484,-1.002 4.295,-1.414 4.106,-1.827 3.854,-2.18 3.536,-2.475 3.219,-2.769 2.853,-2.994 2.437,-3.149 2.021,-3.304 1.587,-3.381 1.134,-3.381 c -0.453,0 -0.889,0.077 -1.304,0.232 -0.416,0.155 -0.782,0.38 -1.099,0.674 -0.317,0.295 -0.571,0.648 -0.759,1.061 -0.189,0.412 -0.283,0.883 -0.283,1.414 l 0,9.238 z" /></g><g
           transform="translate(106.9886,227.3809)"
           id="g78"><path
             id="path80"
             style="fill:#ffff00;fill-opacity:1;fill-rule:nonzero;stroke:none"
             d="m 0,0 c 0,-0.324 0.106,-0.593 0.317,-0.806 0.212,-0.214 0.485,-0.32 0.817,-0.32 0.332,0 0.604,0.106 0.816,0.32 0.211,0.213 0.317,0.482 0.317,0.806 l 0,9.238 c 0,0.324 -0.106,0.592 -0.317,0.806 -0.212,0.214 -0.484,0.32 -0.816,0.32 -0.332,0 -0.605,-0.106 -0.817,-0.32 C 0.106,9.83 0,9.562 0,9.238 L 0,0 Z m -2.311,9.238 c 0,0.531 0.094,1.002 0.283,1.414 0.188,0.411 0.442,0.766 0.759,1.061 0.317,0.295 0.683,0.519 1.099,0.674 0.415,0.155 0.851,0.232 1.304,0.232 0.453,0 0.887,-0.077 1.303,-0.232 0.416,-0.155 0.782,-0.379 1.099,-0.674 0.318,-0.295 0.57,-0.65 0.759,-1.061 C 4.484,10.24 4.579,9.769 4.579,9.238 L 4.579,0 C 4.579,-0.531 4.484,-1.002 4.295,-1.414 4.106,-1.827 3.854,-2.18 3.536,-2.475 3.219,-2.769 2.853,-2.994 2.437,-3.149 2.021,-3.304 1.587,-3.381 1.134,-3.381 c -0.453,0 -0.889,0.077 -1.304,0.232 -0.416,0.155 -0.782,0.38 -1.099,0.674 -0.317,0.295 -0.571,0.648 -0.759,1.061 -0.189,0.412 -0.283,0.883 -0.283,1.414 l 0,9.238 z" /></g><g
           transform="translate(115.4206,227.3809)"
           id="g82"><path
             id="path84"
             style="fill:#ffff00;fill-opacity:1;fill-rule:nonzero;stroke:none"
             d="m 0,0 c 0,-0.324 0.106,-0.593 0.317,-0.806 0.212,-0.214 0.485,-0.32 0.817,-0.32 0.332,0 0.604,0.106 0.816,0.32 0.211,0.213 0.317,0.482 0.317,0.806 l 0,9.238 c 0,0.324 -0.106,0.592 -0.317,0.806 -0.212,0.214 -0.484,0.32 -0.816,0.32 -0.332,0 -0.605,-0.106 -0.817,-0.32 C 0.106,9.83 0,9.562 0,9.238 L 0,0 Z m -2.311,9.238 c 0,0.531 0.094,1.002 0.283,1.414 0.188,0.411 0.442,0.766 0.759,1.061 0.317,0.295 0.683,0.519 1.099,0.674 0.415,0.155 0.851,0.232 1.304,0.232 0.453,0 0.887,-0.077 1.303,-0.232 0.416,-0.155 0.782,-0.379 1.099,-0.674 0.318,-0.295 0.57,-0.65 0.759,-1.061 C 4.484,10.24 4.579,9.769 4.579,9.238 L 4.579,0 C 4.579,-0.531 4.484,-1.002 4.295,-1.414 4.106,-1.827 3.854,-2.18 3.536,-2.475 3.219,-2.769 2.853,-2.994 2.437,-3.149 2.021,-3.304 1.587,-3.381 1.134,-3.381 c -0.453,0 -0.889,0.077 -1.304,0.232 -0.416,0.155 -0.782,0.38 -1.099,0.674 -0.317,0.295 -0.571,0.648 -0.759,1.061 -0.189,0.412 -0.283,0.883 -0.283,1.414 l 0,9.238 z" /></g><g
           transform="translate(150.4131,120)"
           id="g86"><path
             id="path88"
             style="fill:#354f9f;fill-opacity:1;fill-rule:nonzero;stroke:none"
             d="m 0,0 -1.788,0 -2.234,4.138 0,-4.138 -1.788,0 0,5.793 2.681,0 L 0,0 Z M 0,8.069 C 0,7.554 -0.196,7.115 -0.588,6.752 -0.981,6.389 -1.381,6.207 -1.788,6.207 l -4.469,0 0,-6.207 -1.788,0 0,7.862 5.81,0 c 0.298,0 0.447,0.069 0.447,0.207 0,0.138 -0.149,0.207 -0.447,0.207 l -5.81,0 0,1.655 6.257,0 c 0.407,0 0.807,-0.184 1.2,-0.552 C -0.196,9.011 0,8.575 0,8.069 m 2.235,0 C 2.235,6.984 1.934,6.163 1.333,5.607 0.732,5.051 0.223,4.676 -0.194,4.483 L 2.235,0 0.447,0 l -3.129,5.793 0.894,0 c 0.527,0 1.031,0.223 1.512,0.669 0.482,0.446 0.723,0.982 0.723,1.607 0,0.616 -0.241,1.149 -0.723,1.6 -0.481,0.451 -0.985,0.676 -1.512,0.676 l -6.257,0 0,1.655 6.257,0 C -0.765,12 0.161,11.614 0.991,10.841 1.82,10.069 2.235,9.145 2.235,8.069" /></g><g
           transform="translate(153.5416,128.2759)"
           id="g90"><path
             id="path92"
             style="fill:#354f9f;fill-opacity:1;fill-rule:nonzero;stroke:none"
             d="m 0,0 c 0,2.483 1.341,3.724 4.022,3.724 l 5.364,0 0,-1.655 -5.364,0 C 2.533,2.069 1.788,1.379 1.788,0 l 0,-4.552 c 0,-1.379 0.745,-2.069 2.234,-2.069 l 5.364,0 0,-1.655 -5.364,0 C 1.341,-8.276 0,-7.034 0,-4.552 L 0,0 Z" /></g><g
           transform="translate(155.7762,126.2069)"
           id="g94"><path
             id="path96"
             style="fill:#354f9f;fill-opacity:1;fill-rule:nonzero;stroke:none"
             d="m 0,0 0,2.069 c 0,1.103 0.596,1.655 1.788,1.655 l 5.363,0 0,-1.655 -4.916,0 C 1.937,2.069 1.788,1.931 1.788,1.655 l 4.022,0 L 5.81,0 0,0 Z" /></g><g
           transform="translate(155.7762,125.7931)"
           id="g98"><path
             id="path100"
             style="fill:#354f9f;fill-opacity:1;fill-rule:nonzero;stroke:none"
             d="m 0,0 5.81,0 0,-1.655 -4.022,0 c 0,-0.276 0.149,-0.414 0.447,-0.414 l 4.916,0 0,-1.655 -5.363,0 C 0.596,-3.724 0,-3.172 0,-2.069 L 0,0 Z" /></g><g
           transform="translate(169.1841,129.931)"
           id="g102"><path
             id="path104"
             style="fill:#354f9f;fill-opacity:1;fill-rule:nonzero;stroke:none"
             d="m 0,0 4.916,0 0,-1.655 -3.128,0 0,-8.276 L 0,-9.931 0,0 Z m -0.447,0 0,-9.931 -1.788,0 0,8.276 -3.128,0 0,1.655 4.916,0 z m 5.363,0.414 -10.279,0 0,1.655 10.279,0 0,-1.655 z" /></g><g
           transform="translate(183.039,120)"
           id="g106"><path
             id="path108"
             style="fill:#354f9f;fill-opacity:1;fill-rule:nonzero;stroke:none"
             d="m 0,0 -1.788,0 -2.234,4.138 0,-4.138 -1.788,0 0,5.793 2.681,0 L 0,0 Z M 0,8.069 C 0,7.554 -0.196,7.115 -0.588,6.752 -0.981,6.389 -1.381,6.207 -1.788,6.207 l -4.469,0 0,-6.207 -1.788,0 0,7.862 5.81,0 c 0.298,0 0.447,0.069 0.447,0.207 0,0.138 -0.149,0.207 -0.447,0.207 l -5.81,0 0,1.655 6.257,0 c 0.407,0 0.807,-0.184 1.2,-0.552 C -0.196,9.011 0,8.575 0,8.069 m 2.235,0 C 2.235,6.984 1.934,6.163 1.333,5.607 0.732,5.051 0.223,4.676 -0.194,4.483 L 2.235,0 0.447,0 l -3.129,5.793 0.894,0 c 0.527,0 1.031,0.223 1.512,0.669 0.482,0.446 0.723,0.982 0.723,1.607 0,0.616 -0.241,1.149 -0.723,1.6 -0.481,0.451 -0.985,0.676 -1.512,0.676 l -6.257,0 0,1.655 6.257,0 C -0.765,12 0.161,11.614 0.991,10.841 1.82,10.069 2.235,9.145 2.235,8.069" /></g><g
           transform="translate(191.9776,127.8621)"
           id="g110"><path
             id="path112"
             style="fill:#354f9f;fill-opacity:1;fill-rule:nonzero;stroke:none"
             d="m 0,0 c 0,0.276 -0.149,0.414 -0.447,0.414 l -0.894,0 C -1.639,0.414 -1.788,0.276 -1.788,0 l 0,-3.724 c 0,-0.276 0.149,-0.414 0.447,-0.414 l 0.894,0 C -0.149,-4.138 0,-4 0,-3.724 L 0,0 Z m 1.788,0.414 0,-4.552 C 1.788,-5.241 1.192,-5.793 0,-5.793 l -1.788,0 c -1.192,0 -1.787,0.552 -1.787,1.655 l 0,4.552 c 0,1.103 0.595,1.655 1.787,1.655 l 1.788,0 c 1.192,0 1.788,-0.552 1.788,-1.655 m 0.447,0 C 2.235,1.793 1.49,2.483 0,2.483 l -1.788,0 c -1.489,0 -2.234,-0.69 -2.234,-2.069 l 0,-4.552 c 0,-1.379 0.745,-2.069 2.234,-2.069 l 1.788,0 c 1.49,0 2.235,0.69 2.235,2.069 l 0,4.552 z m 1.787,0 0,-4.552 C 4.022,-6.621 2.682,-7.862 0,-7.862 l -1.788,0 c -2.681,0 -4.022,1.241 -4.022,3.724 l 0,4.552 c 0,2.483 1.341,3.724 4.022,3.724 l 1.788,0 c 2.682,0 4.022,-1.241 4.022,-3.724" /></g><g
           transform="translate(117.951,122.7825)"
           id="g114"><path
             id="path116"
             style="fill:#354f9f;fill-opacity:1;fill-rule:nonzero;stroke:none"
             d="M 0,0 C -0.014,0.036 -0.023,0.076 -0.036,0.114 L 0,0.114 0,0 Z M 2.518,0.942 C 2.22,0.942 2.071,1.08 2.071,1.355 l 0,7.862 -4.022,0 0,-8.275 c 0,-2.483 1.341,-3.725 4.022,-3.725 l 5.364,0 0,3.725 -4.917,0 z" /></g><path
           id="path118"
           style="fill:#354f9f;fill-opacity:1;fill-rule:nonzero;stroke:none"
           d="m 126.279,120 4.022,0 0,12 -4.022,0 0,-12 z" /><g
           transform="translate(137.0051,127.8621)"
           id="g120"><path
             id="path122"
             style="fill:#354f9f;fill-opacity:1;fill-rule:nonzero;stroke:none"
             d="m 0,0 -1.788,0 0,0.414 1.788,0 C 0.298,0.414 0.447,0.345 0.447,0.207 0.447,0.069 0.298,0 0,0 m 0,-4.138 -1.788,0 0,0.414 1.788,0 c 0.298,0 0.447,-0.069 0.447,-0.207 0,-0.138 -0.149,-0.207 -0.447,-0.207 m 4.469,4.345 c 0,1.076 -0.414,2 -1.244,2.772 C 2.396,3.752 1.47,4.138 0.447,4.138 l -6.257,0 0,-12 6.257,0 c 1.023,0 1.949,0.386 2.778,1.159 0.83,0.772 1.244,1.696 1.244,2.772 0,0.782 -0.203,1.467 -0.61,2.055 0.407,0.589 0.61,1.283 0.61,2.083" /></g><path
           id="path124"
           style="fill:#29678f;fill-opacity:1;fill-rule:nonzero;stroke:none"
           d="m 170,140 -20,0 0,20 20,0 0,-20 z" /><g
           transform="translate(165.0345,148.7305)"
           id="g126"><path
             id="path128"
             style="fill:#3096cf;fill-opacity:1;fill-rule:nonzero;stroke:none"
             d="m 0,0 c 0,-0.354 -0.248,-0.642 -0.555,-0.642 l -5.238,0 0,4.301 5.238,0 C -0.248,3.659 0,3.372 0,3.018 L 0,0 Z m 2.746,7.677 -8.508,0 0,3.592 -5.272,0 0,-16 13.78,0 c 1.226,0 2.22,1.15 2.22,2.568 l 0,7.273 c 0,1.418 -0.994,2.567 -2.22,2.567" /></g><path
           id="path130"
           style="fill:#29678f;fill-opacity:1;fill-rule:nonzero;stroke:none"
           d="m 196,156 -24,0 0,4 24,0 0,-4 z" /><path
           id="path132"
           style="fill:#3096cf;fill-opacity:1;fill-rule:nonzero;stroke:none"
           d="m 192,152 -20,0 0,4 20,0 0,-4 z" /><g
           transform="translate(175.5499,156.941)"
           id="g134"><path
             id="path136"
             style="fill:#ffffff;fill-opacity:1;fill-rule:nonzero;stroke:none"
             d="M 0,0 C 0.165,0 0.295,0.045 0.388,0.134 0.481,0.223 0.527,0.346 0.527,0.504 0.527,0.596 0.51,0.672 0.476,0.732 0.442,0.793 0.397,0.84 0.341,0.876 0.284,0.911 0.219,0.936 0.146,0.951 0.072,0.965 -0.004,0.972 -0.083,0.972 l -0.854,0 L -0.937,0 0,0 Z m -0.189,1.287 c 0.213,0 0.365,0.038 0.459,0.113 0.093,0.074 0.139,0.186 0.139,0.336 0,0.1 -0.015,0.179 -0.047,0.236 C 0.331,2.03 0.287,2.075 0.232,2.106 0.177,2.138 0.113,2.158 0.041,2.167 -0.031,2.176 -0.108,2.181 -0.189,2.181 l -0.748,0 0,-0.894 0.748,0 z m -0.102,1.209 c 0.06,0 0.125,-10e-4 0.195,-0.002 C -0.027,2.493 0.042,2.489 0.11,2.482 0.178,2.476 0.242,2.466 0.301,2.453 0.36,2.439 0.411,2.42 0.453,2.393 0.544,2.338 0.623,2.262 0.687,2.165 0.751,2.068 0.783,1.949 0.783,1.807 0.783,1.657 0.747,1.528 0.675,1.419 0.603,1.31 0.5,1.23 0.366,1.177 l 0,-0.008 C 0.539,1.133 0.672,1.054 0.764,0.933 0.856,0.812 0.902,0.665 0.902,0.492 0.902,0.39 0.883,0.29 0.846,0.193 0.81,0.096 0.755,0.01 0.683,-0.065 0.611,-0.14 0.522,-0.2 0.415,-0.246 0.309,-0.292 0.186,-0.315 0.047,-0.315 l -1.358,0 0,2.811 1.02,0 z" /></g><g
           transform="translate(180.9184,159.4369)"
           id="g138"><path
             id="path140"
             style="fill:#ffffff;fill-opacity:1;fill-rule:nonzero;stroke:none"
             d="m 0,0 0,-2.496 1.488,0 0,-0.315 -1.862,0 0,2.811 L 0,0 Z" /></g><g
           transform="translate(187.6421,156.8327)"
           id="g142"><path
             id="path144"
             style="fill:#ffffff;fill-opacity:1;fill-rule:nonzero;stroke:none"
             d="m 0,0 c -0.192,-0.18 -0.465,-0.27 -0.819,-0.27 -0.362,0 -0.645,0.086 -0.848,0.258 -0.204,0.172 -0.305,0.446 -0.305,0.821 l 0,1.795 0.374,0 0,-1.795 c 0,-0.252 0.067,-0.443 0.201,-0.573 0.133,-0.13 0.326,-0.195 0.578,-0.195 0.239,0 0.421,0.065 0.545,0.195 0.125,0.13 0.187,0.321 0.187,0.573 l 0,1.795 0.374,0 0,-1.795 C 0.287,0.449 0.192,0.18 0,0" /></g><g
           transform="translate(193.7492,159.4369)"
           id="g146"><path
             id="path148"
             style="fill:#ffffff;fill-opacity:1;fill-rule:nonzero;stroke:none"
             d="m 0,0 0,-0.315 -1.567,0 0,-0.894 1.461,0 0,-0.315 -1.461,0 0,-0.972 1.579,0 0,-0.315 -1.953,0 0,2.811 L 0,0 Z" /></g><g
           transform="translate(175.3581,155.3624)"
           id="g150"><path
             id="path152"
             style="fill:#ffffff;fill-opacity:1;fill-rule:nonzero;stroke:none"
             d="M 0,0 0.886,-2.362 1.775,0 l 0.512,0 0,-2.811 -0.354,0 0,2.339 -0.008,0 -0.878,-2.339 -0.319,0 -0.878,2.339 -0.007,0 0,-2.339 -0.355,0 0,2.811 L 0,0 Z" /></g><g
           transform="translate(182.2991,154.9786)"
           id="g154"><path
             id="path156"
             style="fill:#ffffff;fill-opacity:1;fill-rule:nonzero;stroke:none"
             d="M 0,0 C -0.125,0.091 -0.284,0.136 -0.478,0.136 -0.557,0.136 -0.635,0.128 -0.711,0.112 -0.787,0.096 -0.854,0.07 -0.913,0.033 -0.972,-0.003 -1.02,-0.053 -1.055,-0.114 c -0.036,-0.062 -0.053,-0.139 -0.053,-0.23 0,-0.087 0.025,-0.157 0.077,-0.211 0.051,-0.054 0.119,-0.098 0.204,-0.132 0.085,-0.034 0.182,-0.062 0.29,-0.085 0.107,-0.022 0.217,-0.046 0.328,-0.072 0.112,-0.027 0.221,-0.058 0.329,-0.093 0.108,-0.035 0.204,-0.083 0.289,-0.144 0.086,-0.06 0.154,-0.136 0.205,-0.228 0.051,-0.092 0.077,-0.207 0.077,-0.346 0,-0.15 -0.034,-0.278 -0.101,-0.384 C 0.523,-2.146 0.438,-2.232 0.333,-2.299 0.228,-2.366 0.11,-2.414 -0.02,-2.445 -0.15,-2.475 -0.279,-2.49 -0.408,-2.49 c -0.157,0 -0.306,0.02 -0.446,0.059 -0.141,0.039 -0.264,0.099 -0.37,0.179 -0.107,0.08 -0.191,0.183 -0.252,0.307 -0.062,0.125 -0.093,0.273 -0.093,0.443 l 0.354,0 c 0,-0.118 0.023,-0.22 0.069,-0.305 0.046,-0.085 0.107,-0.155 0.182,-0.211 0.074,-0.055 0.161,-0.095 0.261,-0.122 0.1,-0.026 0.202,-0.039 0.307,-0.039 0.084,0 0.169,0.008 0.254,0.024 0.085,0.015 0.162,0.042 0.231,0.08 0.068,0.038 0.123,0.09 0.165,0.156 0.042,0.065 0.063,0.149 0.063,0.252 0,0.097 -0.026,0.176 -0.077,0.236 -0.051,0.06 -0.119,0.11 -0.205,0.148 -0.085,0.038 -0.181,0.068 -0.289,0.092 -0.108,0.024 -0.217,0.048 -0.329,0.073 -0.111,0.025 -0.221,0.054 -0.328,0.087 -0.108,0.032 -0.205,0.076 -0.29,0.129 -0.085,0.054 -0.153,0.124 -0.204,0.209 -0.052,0.085 -0.077,0.192 -0.077,0.321 0,0.142 0.029,0.264 0.086,0.368 0.058,0.104 0.135,0.189 0.231,0.256 0.095,0.067 0.204,0.117 0.326,0.15 0.122,0.032 0.248,0.049 0.376,0.049 0.145,0 0.279,-0.017 0.402,-0.051 C 0.062,0.365 0.171,0.312 0.264,0.238 0.357,0.165 0.43,0.072 0.484,-0.039 c 0.054,-0.112 0.084,-0.245 0.089,-0.4 l -0.355,0 C 0.197,-0.237 0.125,-0.09 0,0" /></g><g
           transform="translate(186.7955,155.3624)"
           id="g158"><path
             id="path160"
             style="fill:#ffffff;fill-opacity:1;fill-rule:nonzero;stroke:none"
             d="M 0,0 0.449,0 1.15,-1.098 1.882,0 2.299,0 1.37,-1.366 l 0.988,-1.445 -0.456,0 -0.756,1.162 -0.78,-1.162 -0.417,0 0.976,1.445 L 0,0 Z" /></g></g></g></g></svg>