<?xml version="1.0" encoding="UTF-8" standalone="no"?>
<svg
   xmlns:dc="http://purl.org/dc/elements/1.1/"
   xmlns:cc="http://creativecommons.org/ns#"
   xmlns:rdf="http://www.w3.org/1999/02/22-rdf-syntax-ns#"
   xmlns:svg="http://www.w3.org/2000/svg"
   xmlns="http://www.w3.org/2000/svg"
   viewBox="0 0 320 320"
   height="320"
   width="320"
   xml:space="preserve"
   version="1.1"
   id="svg2"><metadata
     id="metadata8"><rdf:RDF><cc:Work
         rdf:about=""><dc:format>image/svg+xml</dc:format><dc:type
           rdf:resource="http://purl.org/dc/dcmitype/StillImage" /></cc:Work></rdf:RDF></metadata><defs
     id="defs6"><clipPath
       id="clipPath16"
       clipPathUnits="userSpaceOnUse"><path
         id="path18"
         d="M 0,256 256,256 256,0 0,0 0,256 Z" /></clipPath><clipPath
       id="clipPath24"
       clipPathUnits="userSpaceOnUse"><path
         id="path26"
         d="m 10.0048,252 235.9902,0 0,-247.99994 -235.9902,0 0,247.99994 z" /></clipPath></defs><g
     transform="matrix(1.25,0,0,-1.25,0,320)"
     id="g10"><g
       id="g12"><g
         clip-path="url(#clipPath16)"
         id="g14"><g
           id="g20"><g
             id="g22" /><g
             id="g28"><g
               style="opacity:0.5"
               id="g30"
               clip-path="url(#clipPath24)"><g
                 id="g32"
                 transform="translate(243.6578,179.0199)"><path
                   id="path34"
                   style="fill:#ffffff;fill-opacity:1;fill-rule:nonzero;stroke:none"
                   d="m 0,0 c -1.529,7.103 -6.061,28.167 -17.613,29.756 l -24.318,6.887 c -7.954,10.325 -18.067,18.959 -29.5,25.153 -0.245,0.159 -0.622,0.398 -1.126,0.698 -3.11,2.007 -17.756,10.486 -43.101,10.486 -25.345,0 -39.991,-8.479 -43.1,-10.486 -0.504,-0.3 -0.881,-0.539 -1.126,-0.698 -11.463,-6.21 -21.573,-14.837 -29.523,-25.16 l -24.295,-6.88 C -225.253,28.168 -229.787,7.103 -231.315,0 c -5.407,-25.124 0.226,-76.855 0.469,-79.045 l 0.03,-0.274 0.049,-0.271 c 0.495,-2.737 12.34,-67.269 30.537,-90.322 1.921,-2.481 5.501,-5.108 9.85,-5.108 2.602,0 7.48,0.957 10.922,7.364 1.932,3.596 3.324,8.769 4.257,15.814 0.416,3.141 1.078,6.612 1.977,10.364 9.092,2.479 32.99,8.117 62.204,8.117 18.627,0 36.295,-2.265 52.59,-6.737 1.072,-4.287 1.849,-8.224 2.315,-11.744 0.933,-7.045 2.326,-12.217 4.258,-15.814 3.442,-6.407 8.32,-7.364 10.922,-7.364 4.348,0 7.926,2.625 9.848,5.106 18.199,23.049 30.043,87.586 30.539,90.324 l 0.049,0.271 0.03,0.274 C -0.227,-76.855 5.407,-25.124 0,0" /></g></g></g></g><g
           transform="translate(199.4237,208)"
           id="g36"><path
             id="path38"
             style="fill:#d9d9d9;fill-opacity:1;fill-rule:nonzero;stroke:none"
             d="m 0,0 25.179,-7.13 c 0,0 6.039,0.608 11.234,-23.533 5.195,-24.142 -0.599,-76.482 -0.599,-76.482 0,0 -11.79,-65.121 -28.974,-86.828 0,0 -7.593,-9.94 -10.79,14.201 -3.197,24.142 -18.57,58.183 -21.474,58.71 L 0,0 Z" /></g><g
           transform="translate(64,44)"
           id="g40"><path
             id="path42"
             style="fill:#cccccc;fill-opacity:1;fill-rule:nonzero;stroke:none"
             d="m 0,0 c 0,0 63.679,20.847 128,1.292 0,0 -10.005,35.87 -18.274,42.708 L 18.519,44 C 18.519,44 1.929,23.841 0,0" /></g><g
           transform="translate(56.5763,208)"
           id="g44"><path
             id="path46"
             style="fill:#d9d9d9;fill-opacity:1;fill-rule:nonzero;stroke:none"
             d="m 0,0 -25.179,-7.13 c 0,0 -6.039,0.608 -11.234,-23.533 -5.195,-24.142 0.599,-76.482 0.599,-76.482 0,0 11.79,-65.121 28.974,-86.828 0,0 7.593,-9.94 10.79,14.201 3.197,24.142 18.57,58.183 21.474,58.71 L 0,0 Z" /></g><g
           transform="translate(54.8654,206.071)"
           id="g48"><path
             id="path50"
             style="fill:#cccccc;fill-opacity:1;fill-rule:nonzero;stroke:none"
             d="m 0,0 c -8.769,-13.578 -13.865,-29.74 -13.865,-47.071 0,-47.972 39.028,-87 87,-87 47.972,0 87,39.028 87,87 0,17.612 -5.266,34.014 -14.298,47.727 C 86.74,14.227 30.374,6.472 0,0" /></g><g
           transform="translate(213,159)"
           id="g52"><path
             id="path54"
             style="fill:#d9d9d9;fill-opacity:1;fill-rule:nonzero;stroke:none"
             d="m 0,0 c 0,-46.944 -38.056,-85 -85,-85 -46.944,0 -85,38.056 -85,85 0,46.944 38.056,85 85,85 C -38.056,85 0,46.944 0,0" /></g><g
           transform="translate(128,244)"
           id="g56"><path
             id="path58"
             style="fill:#bfbfbf;fill-opacity:1;fill-rule:nonzero;stroke:none"
             d="m 0,0 c -25.509,0 -40,-9.981 -40,-9.981 l 0,-73.759 0,-1 0.183,0 C -38.134,-105.149 -20.826,-121 0,-121 c 20.826,0 38.134,15.851 39.817,36.26 l 0.183,0 0,1 0,73.759 C 40,-9.981 25.509,0 0,0" /></g><g
           transform="translate(128,244)"
           id="g60"><path
             id="path62"
             style="fill:#cccccc;fill-opacity:1;fill-rule:nonzero;stroke:none"
             d="m 0,0 c -25.49,0 -39,-9.364 -39,-9.364 l 0,-74.376 0.115,0 C -37.703,-103.954 -20.773,-120 0,-120 c 20.773,0 37.703,16.046 38.885,36.26 l 0.115,0 0,74.376 C 39,-9.364 25.49,0 0,0" /></g><g
           transform="translate(151.6921,200.5307)"
           id="g64"><path
             id="path66"
             style="fill:#999999;fill-opacity:1;fill-rule:nonzero;stroke:none"
             d="m 0,0 c -10.338,3.265 -23.692,3.469 -23.692,3.469 0,0 -13.354,-0.204 -23.692,-3.469 0,0 -4.308,-2.653 -4.308,-5.918 l 0,-40.817 c 0,0 0.215,-3.673 4.738,-4.898 4.524,-1.224 10.123,-4.898 23.262,-4.898 13.138,0 18.738,3.674 23.261,4.898 4.523,1.225 4.739,4.898 4.739,4.898 l 0,40.817 C 4.308,-2.653 0,0 0,0" /></g><g
           transform="translate(149.6676,152)"
           id="g68"><path
             id="path70"
             style="fill:#0e6654;fill-opacity:1;fill-rule:nonzero;stroke:none"
             d="m 0,0 -43.335,0 c -1.288,0 -2.333,1.084 -2.333,2.421 l 0,39.158 c 0,1.337 1.045,2.421 2.333,2.421 L 0,44 c 1.288,0 2.332,-1.084 2.332,-2.421 l 0,-39.158 C 2.332,1.084 1.288,0 0,0" /></g><g
           transform="translate(149.6676,196)"
           id="g72"><path
             id="path74"
             style="fill:#003d00;fill-opacity:1;fill-rule:nonzero;stroke:none"
             d="m 0,0 -43.335,0 c -1.288,0 -2.333,-1.084 -2.333,-2.421 l 0,-39.158 c 0,-1.337 1.045,-2.421 2.333,-2.421 L 0,-44 c 1.288,0 2.332,1.084 2.332,2.421 l 0,39.158 C 2.332,-1.084 1.288,0 0,0 m 0,-0.471 c 1.036,0 1.878,-0.875 1.878,-1.95 l 0,-39.158 c 0,-1.075 -0.842,-1.95 -1.878,-1.95 l -43.335,0 c -1.036,0 -1.879,0.875 -1.879,1.95 l 0,39.158 c 0,1.075 0.843,1.95 1.879,1.95 l 43.335,0" /></g><g
           transform="translate(202,180)"
           id="g76"><path
             id="path78"
             style="fill:#999999;fill-opacity:1;fill-rule:nonzero;stroke:none"
             d="m 0,0 c -5.514,0 -10,-4.486 -10,-10 0,-5.514 4.486,-10 10,-10 5.514,0 10,4.486 10,10 C 10,-4.486 5.514,0 0,0" /></g><g
           transform="translate(211,170)"
           id="g80"><path
             id="path82"
             style="fill:#00b800;fill-opacity:1;fill-rule:nonzero;stroke:none"
             d="m 0,0 c 0,-4.971 -4.029,-9 -9,-9 -4.971,0 -9,4.029 -9,9 0,4.971 4.029,9 9,9 4.971,0 9,-4.029 9,-9" /></g><g
           transform="translate(202,140)"
           id="g84"><path
             id="path86"
             style="fill:#999999;fill-opacity:1;fill-rule:nonzero;stroke:none"
             d="m 0,0 c -5.514,0 -10,-4.486 -10,-10 0,-5.514 4.486,-10 10,-10 5.514,0 10,4.486 10,10 C 10,-4.486 5.514,0 0,0" /></g><g
           transform="translate(211,130)"
           id="g88"><path
             id="path90"
             style="fill:#b80000;fill-opacity:1;fill-rule:nonzero;stroke:none"
             d="m 0,0 c 0,-4.971 -4.029,-9 -9,-9 -4.971,0 -9,4.029 -9,9 0,4.971 4.029,9 9,9 4.971,0 9,-4.029 9,-9" /></g><g
           transform="translate(182,160)"
           id="g92"><path
             id="path94"
             style="fill:#bfbfbf;fill-opacity:1;fill-rule:nonzero;stroke:none"
             d="m 0,0 c -5.514,0 -10,-4.486 -10,-10 0,-5.514 4.486,-10 10,-10 5.514,0 10,4.486 10,10 C 10,-4.486 5.514,0 0,0" /></g><g
           transform="translate(191,150)"
           id="g96"><path
             id="path98"
             style="fill:#ffff00;fill-opacity:1;fill-rule:nonzero;stroke:none"
             d="m 0,0 c 0,-4.971 -4.029,-9 -9,-9 -4.971,0 -9,4.029 -9,9 0,4.971 4.029,9 9,9 4.971,0 9,-4.029 9,-9" /></g><g
           transform="translate(222,160)"
           id="g100"><path
             id="path102"
             style="fill:#999999;fill-opacity:1;fill-rule:nonzero;stroke:none"
             d="m 0,0 c -5.514,0 -10,-4.486 -10,-10 0,-5.514 4.486,-10 10,-10 5.514,0 10,4.486 10,10 C 10,-4.486 5.514,0 0,0" /></g><g
           transform="translate(231,150)"
           id="g104"><path
             id="path106"
             style="fill:#4b5da7;fill-opacity:1;fill-rule:nonzero;stroke:none"
             d="m 0,0 c 0,-4.971 -4.029,-9 -9,-9 -4.971,0 -9,4.029 -9,9 0,4.971 4.029,9 9,9 4.971,0 9,-4.029 9,-9" /></g><g
           transform="translate(54,168)"
           id="g108"><path
             id="path110"
             style="fill:#b3b3b3;fill-opacity:1;fill-rule:nonzero;stroke:none"
             d="m 0,0 c 0,-7.732 -6.268,-14 -14,-14 -7.732,0 -14,6.268 -14,14 0,7.732 6.268,14 14,14 C -6.268,14 0,7.732 0,0" /></g><g
           transform="translate(40,184)"
           id="g112"><path
             id="path114"
             style="fill:#999999;fill-opacity:1;fill-rule:nonzero;stroke:none"
             d="m 0,0 c -8.822,0 -16,-7.178 -16,-16 0,-8.822 7.178,-16 16,-16 8.822,0 16,7.178 16,16 C 16,-7.178 8.822,0 0,0 m 0,-2 c 7.732,0 14,-6.268 14,-14 0,-7.732 -6.268,-14 -14,-14 -7.732,0 -14,6.268 -14,14 0,7.732 6.268,14 14,14" /></g><g
           transform="translate(76.3636,121.8363)"
           id="g116"><path
             id="path118"
             style="fill:#b3b3b3;fill-opacity:1;fill-rule:nonzero;stroke:none"
             d="m 0,0 -10.527,0 0,10.527 c 0,1.339 -1.086,2.425 -2.425,2.425 l -6.824,0 c -1.339,0 -2.424,-1.086 -2.424,-2.425 L -22.2,0 -32.727,0 c -1.339,0 -2.425,-1.085 -2.425,-2.424 l 0,-6.824 c 0,-1.339 1.086,-2.425 2.425,-2.425 l 10.527,0 0,-10.527 c 0,-1.339 1.085,-2.424 2.424,-2.424 l 6.824,0 c 1.339,0 2.425,1.085 2.425,2.424 l 0,10.527 10.527,0 c 1.339,0 2.424,1.086 2.424,2.425 l 0,6.824 C 2.424,-1.085 1.339,0 0,0" /></g><g
           transform="translate(63.4121,136)"
           id="g120"><path
             id="path122"
             style="fill:#999999;fill-opacity:1;fill-rule:nonzero;stroke:none"
             d="m 0,0 -6.824,0 c -2.005,0 -3.637,-1.631 -3.637,-3.636 l 0,-9.316 -9.315,0 c -2.005,0 -3.636,-1.631 -3.636,-3.636 l 0,-6.824 c 0,-2.005 1.631,-3.636 3.636,-3.636 l 9.315,0 0,-9.316 c 0,-2.005 1.632,-3.636 3.637,-3.636 L 0,-40 c 2.005,0 3.636,1.631 3.636,3.636 l 0,9.316 9.316,0 c 2.005,0 3.636,1.631 3.636,3.636 l 0,6.824 c 0,2.005 -1.631,3.636 -3.636,3.636 l -9.316,0 0,9.316 C 3.636,-1.631 2.005,0 0,0 m 0,-1.212 c 1.339,0 2.424,-1.085 2.424,-2.424 l 0,-10.528 10.528,0 c 1.338,0 2.424,-1.085 2.424,-2.424 l 0,-6.824 c 0,-1.339 -1.086,-2.424 -2.424,-2.424 l -10.528,0 0,-10.528 c 0,-1.338 -1.085,-2.424 -2.424,-2.424 l -6.824,0 c -1.339,0 -2.424,1.086 -2.424,2.424 l 0,10.528 -10.528,0 c -1.339,0 -2.424,1.085 -2.424,2.424 l 0,6.824 c 0,1.339 1.085,2.424 2.424,2.424 l 10.528,0 0,10.528 c 0,1.339 1.085,2.424 2.424,2.424 l 6.824,0" /></g><g
           transform="translate(66,116)"
           id="g124"><path
             id="path126"
             style="fill:#a6a6a6;fill-opacity:1;fill-rule:nonzero;stroke:none"
             d="m 0,0 c 0,-3.314 -2.686,-6 -6,-6 -3.314,0 -6,2.686 -6,6 0,3.314 2.686,6 6,6 3.314,0 6,-2.686 6,-6" /></g><g
           transform="translate(116,66.1763)"
           id="g128"><path
             id="path130"
             style="fill:#a6a6a6;fill-opacity:1;fill-rule:nonzero;stroke:none"
             d="M 0,0 C 0,0 4.647,10.773 12.161,17.824 12.161,17.824 22.27,6.855 24,0 24,0 9.297,-4.897 0,0" /></g><g
           transform="translate(143.8577,227.8735)"
           id="g132"><path
             id="path134"
             style="fill:#bfbfbf;fill-opacity:1;fill-rule:nonzero;stroke:none"
             d="m 0,0 -7.212,0 0,1.955 c 0.043,0.365 0.073,0.735 0.073,1.112 0,5.003 -3.904,9.06 -8.719,9.06 -4.815,0 -8.718,-4.057 -8.718,-9.06 l 0,-3.067 -7.139,0 c -1.183,0 -2.143,-0.997 -2.143,-2.226 l 0,-7.421 c 0,-1.23 0.96,-2.226 2.143,-2.226 l 31.715,0 c 1.183,0 2.142,0.996 2.142,2.226 l 0,7.421 C 2.142,-0.997 1.183,0 0,0" /></g><g
           transform="translate(113.0294,224.4962)"
           id="g136"><path
             id="path138"
             style="fill:#808080;fill-opacity:1;fill-rule:nonzero;stroke:none"
             d="m 0,0 c -0.265,0 -0.428,-0.009 -0.676,-0.125 l 0,-2.296 c 0.119,-0.018 0.351,-0.026 0.556,-0.018 0.882,0.072 1.413,0.552 1.362,1.291 C 1.208,-0.614 1.036,-0.044 0,0 m 2.167,-6.266 -2.569,3.472 c -0.069,0.088 -0.095,0.151 -0.172,0.213 -0.034,0.035 -0.068,0.054 -0.111,0.08 l 0,-3.053 c 0,-0.142 -0.009,-0.222 0.026,-0.365 0.017,-0.124 0.051,-0.195 0.094,-0.32 l -0.942,0 c 0.051,0.107 0.094,0.169 0.102,0.276 0.026,0.134 0.026,0.427 0.026,0.676 l 0,4.771 c 0,0.249 -0.008,0.391 -0.051,0.641 -0.026,0.116 -0.069,0.178 -0.12,0.276 l 1.927,0 c 0.839,0 1.593,-0.579 1.567,-1.531 -0.017,-0.926 -0.796,-1.718 -1.738,-1.567 0.051,-0.044 0.077,-0.08 0.128,-0.124 0.18,-0.178 0.283,-0.294 0.445,-0.508 L 2.304,-5.34 c 0.197,-0.267 0.351,-0.481 0.548,-0.659 0.12,-0.107 0.197,-0.169 0.326,-0.267 l -1.011,0 z" /></g><g
           transform="translate(118.5906,222.1467)"
           id="g140"><path
             id="path142"
             style="fill:#808080;fill-opacity:1;fill-rule:nonzero;stroke:none"
             d="m 0,0 c -0.591,0.009 -1.079,-0.392 -1.199,-0.988 l 2.347,0 C 1.036,-0.401 0.659,0 0,0 m -1.302,-1.424 -0.017,-0.285 c -0.06,-1.006 0.488,-1.833 1.601,-1.833 0.566,0 0.951,0.035 1.397,0.4 L 1.567,-3.694 C 1.062,-3.979 0.676,-3.996 0.103,-3.97 c -1.259,0.054 -2.047,0.775 -2.064,2.297 -0.009,1.121 0.83,2.145 1.944,2.118 1.053,-0.018 1.738,-0.846 1.764,-1.869 l -3.049,0 z" /></g><g
           transform="translate(122.3185,218.2572)"
           id="g144"><path
             id="path146"
             style="fill:#808080;fill-opacity:1;fill-rule:nonzero;stroke:none"
             d="M 0,0 C -0.351,0 -0.591,0.133 -0.771,0.463 -0.925,0.73 -0.925,1.024 -0.925,1.389 l 0,2.491 -0.557,0 0,0.428 0.557,0 0,0.498 c 0,0.089 0,0.151 -0.034,0.223 -0.043,0.071 -0.077,0.107 -0.137,0.142 l 0.805,0.427 0,-1.273 0.951,0 0,-0.445 -0.96,0 0,-2.518 C -0.3,1.068 -0.291,0.757 -0.145,0.614 -0.017,0.472 0.12,0.418 0.3,0.418 l 0.377,0 L 0.677,0 0,0 Z" /></g><g
           transform="translate(124.9151,222.022)"
           id="g148"><path
             id="path150"
             style="fill:#808080;fill-opacity:1;fill-rule:nonzero;stroke:none"
             d="m 0,0 c -0.317,-0.187 -0.531,-0.632 -0.531,-1.112 l 0,-1.896 c 0,-0.178 0.017,-0.276 0.06,-0.437 0.034,-0.133 0.069,-0.213 0.146,-0.338 l -0.985,0 c 0.051,0.089 0.094,0.143 0.111,0.232 0.043,0.151 0.034,0.258 0.034,0.418 l 0,3.044 c 0,0.116 -0.008,0.205 -0.051,0.311 -0.043,0.125 -0.094,0.196 -0.171,0.294 l 0.83,0.098 0,-0.641 c 0.129,0.267 0.275,0.41 0.523,0.561 0.231,0.133 0.471,0.178 0.771,0.125 l 0,-0.588 C 0.463,0.16 0.248,0.142 0,0" /></g><g
           transform="translate(128.3166,222.1467)"
           id="g152"><path
             id="path154"
             style="fill:#808080;fill-opacity:1;fill-rule:nonzero;stroke:none"
             d="m 0,0 c -0.917,0.027 -1.533,-0.846 -1.525,-1.771 0.009,-0.908 0.634,-1.727 1.508,-1.727 0.856,0 1.499,0.801 1.516,1.7 C 1.524,-0.881 0.891,-0.045 0,0 m -0.052,-3.952 c -1.156,0.018 -2.115,1.015 -2.115,2.216 0,1.229 1.002,2.226 2.184,2.208 C 1.19,0.445 2.158,-0.561 2.133,-1.789 2.115,-3 1.148,-3.97 -0.052,-3.952" /></g><g
           transform="translate(134.4856,218.3906)"
           id="g156"><path
             id="path158"
             style="fill:#808080;fill-opacity:1;fill-rule:nonzero;stroke:none"
             d="m 0,0 c -0.428,-0.178 -0.728,-0.169 -1.199,-0.187 -1.37,-0.053 -2.338,0.899 -2.355,2.163 -0.026,1.308 1.002,2.27 2.304,2.234 0.454,-0.009 0.736,-0.009 1.156,-0.187 l 0,-0.596 C -0.385,3.658 -0.839,3.792 -1.242,3.783 -2.235,3.765 -2.921,2.973 -2.921,2.003 -2.938,0.979 -2.158,0.178 -1.199,0.196 -0.676,0.214 -0.18,0.365 0.094,0.57 L 0,0 Z" /></g><g
           transform="translate(137.7082,220.5625)"
           id="g160"><path
             id="path162"
             style="fill:#808080;fill-opacity:1;fill-rule:nonzero;stroke:none"
             d="m 0,0 -0.548,-0.142 -0.779,-0.152 c -0.429,-0.08 -0.72,-0.365 -0.746,-0.783 -0.042,-0.516 0.412,-0.908 0.934,-0.899 C -0.574,-1.967 0,-1.611 0,-1.024 L 0,0 Z m -0.017,-2.323 0,0.4 c -0.36,-0.355 -0.728,-0.445 -1.225,-0.453 -0.736,-0.009 -1.439,0.453 -1.396,1.317 0.026,0.765 0.411,1.059 1.131,1.175 l 0.856,0.151 c 0.317,0.053 0.617,0.142 0.617,0.596 0,0.427 -0.428,0.766 -1.028,0.766 -0.428,0 -0.908,-0.063 -1.225,-0.347 l 0,0.507 c 0.42,0.267 0.84,0.285 1.242,0.285 1.174,-0.045 1.61,-0.517 1.61,-1.424 l 0,-2.323 c 0,-0.125 0.009,-0.205 0.043,-0.321 0.026,-0.124 0.051,-0.196 0.111,-0.311 l -0.736,-0.018 z" /></g><g
           transform="translate(140.2968,218.1503)"
           id="g164"><path
             id="path166"
             style="fill:#808080;fill-opacity:1;fill-rule:nonzero;stroke:none"
             d="m 0,0 c -0.428,0.009 -0.822,0.036 -1.088,0.169 l -0.111,0.668 c 0.197,-0.232 0.651,-0.41 1.156,-0.418 0.488,0 0.977,0.213 0.968,0.827 C 0.908,1.611 0.694,1.86 0.368,1.994 l -0.531,0.231 c -0.522,0.214 -0.916,0.597 -0.908,1.184 0.017,0.73 0.737,1.112 1.456,1.121 0.386,0 0.634,-0.026 0.968,-0.213 l 0,-0.543 c -0.231,0.24 -0.634,0.311 -0.959,0.311 -0.429,0 -0.788,-0.258 -0.788,-0.667 0,-0.321 0.205,-0.534 0.497,-0.659 L 0.625,2.537 C 1.362,2.225 1.55,1.896 1.567,1.308 1.593,0.329 0.659,-0.018 0,0" /></g><g
           transform="translate(143.8444,218.2572)"
           id="g168"><path
             id="path170"
             style="fill:#808080;fill-opacity:1;fill-rule:nonzero;stroke:none"
             d="M 0,0 C -0.351,0 -0.591,0.133 -0.771,0.463 -0.925,0.73 -0.925,1.024 -0.925,1.389 l 0,2.491 -0.557,0 0,0.428 0.557,0 0,0.498 c 0,0.089 0,0.151 -0.034,0.223 -0.043,0.071 -0.077,0.107 -0.137,0.142 l 0.805,0.427 0,-1.273 0.951,0 0,-0.445 -0.96,0 0,-2.518 C -0.3,1.068 -0.291,0.757 -0.146,0.614 -0.017,0.472 0.12,0.418 0.3,0.418 l 0.376,0 L 0.676,0 0,0 Z" /></g><g
           transform="translate(121.4344,230.6933)"
           id="g172"><path
             id="path174"
             style="fill:#d35400;fill-opacity:1;fill-rule:nonzero;stroke:none"
             d="m 0,0 c 0,-0.738 0.125,-1.474 0.375,-2.179 0.543,-1.524 1.681,-2.79 3.123,-3.473 1.394,-0.66 2.928,-0.723 4.32,-0.176 1.328,0.521 2.425,1.602 3.01,2.965 0.563,1.311 0.606,2.747 0.121,4.047 C 10.488,2.419 9.546,3.433 8.364,3.966 7.236,4.475 6.004,4.502 4.896,4.04 3.847,3.603 2.993,2.725 2.552,1.632 2.135,0.596 2.127,-0.527 2.531,-1.53 c 0.382,-0.946 1.13,-1.708 2.052,-2.089 0.865,-0.357 1.794,-0.345 2.617,0.034 0.772,0.356 1.383,1.033 1.675,1.859 0.27,0.762 0.238,1.571 -0.09,2.278 C 8.48,1.211 7.921,1.718 7.252,1.942 6.65,2.143 6.023,2.086 5.487,1.782 4.994,1.502 4.622,1 4.492,0.439 4.379,-0.054 4.462,-0.547 4.727,-0.951 4.973,-1.326 5.406,-1.585 5.83,-1.61 6.183,-1.631 6.501,-1.493 6.727,-1.221 6.902,-1.012 6.88,-0.694 6.678,-0.512 6.476,-0.331 6.17,-0.354 5.995,-0.564 5.976,-0.587 5.951,-0.61 5.885,-0.606 5.76,-0.599 5.603,-0.502 5.526,-0.385 5.386,-0.172 5.399,0.052 5.433,0.203 5.499,0.489 5.697,0.755 5.951,0.899 6.337,1.118 6.71,1.066 6.956,0.984 7.367,0.847 7.725,0.522 7.914,0.116 8.126,-0.344 8.146,-0.875 7.967,-1.378 7.764,-1.95 7.342,-2.42 6.808,-2.666 6.225,-2.934 5.561,-2.941 4.941,-2.685 4.258,-2.403 3.705,-1.84 3.424,-1.142 3.12,-0.389 3.128,0.459 3.445,1.244 3.785,2.09 4.446,2.769 5.256,3.107 6.122,3.468 7.089,3.445 7.979,3.044 8.925,2.617 9.679,1.806 10.047,0.82 10.438,-0.227 10.401,-1.389 9.945,-2.453 9.464,-3.573 8.564,-4.461 7.476,-4.888 6.327,-5.339 5.057,-5.285 3.9,-4.737 2.69,-4.164 1.737,-3.105 1.283,-1.83 0.806,-0.489 0.872,0.987 1.471,2.33 2.092,3.723 3.232,4.818 4.599,5.334 6.03,5.874 7.603,5.788 9.028,5.093 10.5,4.374 11.653,3.064 12.191,1.5 12.281,1.239 12.558,1.103 12.81,1.196 13.062,1.29 13.193,1.578 13.102,1.839 12.478,3.653 11.142,5.171 9.439,6.003 7.78,6.813 5.943,6.911 4.268,6.279 2.661,5.672 1.322,4.387 0.593,2.753 0.199,1.868 0,0.932 0,0" /></g><g
           transform="translate(50.8561,168)"
           id="g176"><path
             id="path178"
             style="fill:#999999;fill-opacity:1;fill-rule:nonzero;stroke:none"
             d="M 0,0 C 0,0.321 0.252,0.572 0.572,0.572 0.891,0.572 1.144,0.321 1.144,0 1.144,-0.297 0.891,-0.572 0.572,-0.572 0.252,-0.572 0,-0.297 0,0" /></g><g
           transform="translate(48.5682,168)"
           id="g180"><path
             id="path182"
             style="fill:#999999;fill-opacity:1;fill-rule:nonzero;stroke:none"
             d="M 0,0 C 0,0.321 0.252,0.572 0.572,0.572 0.891,0.572 1.144,0.321 1.144,0 1.144,-0.297 0.891,-0.572 0.572,-0.572 0.252,-0.572 0,-0.297 0,0" /></g><g
           transform="translate(46.2804,168)"
           id="g184"><path
             id="path186"
             style="fill:#999999;fill-opacity:1;fill-rule:nonzero;stroke:none"
             d="M 0,0 C 0,0.321 0.252,0.572 0.572,0.572 0.891,0.572 1.144,0.321 1.144,0 1.144,-0.297 0.891,-0.572 0.572,-0.572 0.252,-0.572 0,-0.297 0,0" /></g><g
           transform="translate(43.9926,168)"
           id="g188"><path
             id="path190"
             style="fill:#999999;fill-opacity:1;fill-rule:nonzero;stroke:none"
             d="M 0,0 C 0,0.321 0.252,0.572 0.572,0.572 0.891,0.572 1.144,0.321 1.144,0 1.144,-0.297 0.891,-0.572 0.572,-0.572 0.252,-0.572 0,-0.297 0,0" /></g><g
           transform="translate(34.8412,168)"
           id="g192"><path
             id="path194"
             style="fill:#999999;fill-opacity:1;fill-rule:nonzero;stroke:none"
             d="M 0,0 C 0,0.321 0.252,0.572 0.572,0.572 0.891,0.572 1.144,0.321 1.144,0 1.144,-0.297 0.891,-0.572 0.572,-0.572 0.252,-0.572 0,-0.297 0,0" /></g><g
           transform="translate(32.5533,168)"
           id="g196"><path
             id="path198"
             style="fill:#999999;fill-opacity:1;fill-rule:nonzero;stroke:none"
             d="M 0,0 C 0,0.321 0.252,0.572 0.572,0.572 0.891,0.572 1.144,0.321 1.144,0 1.144,-0.297 0.891,-0.572 0.572,-0.572 0.252,-0.572 0,-0.297 0,0" /></g><g
           transform="translate(30.2878,168)"
           id="g200"><path
             id="path202"
             style="fill:#999999;fill-opacity:1;fill-rule:nonzero;stroke:none"
             d="M 0,0 C 0,0.321 0.23,0.572 0.55,0.572 0.869,0.572 1.122,0.321 1.122,0 1.122,-0.297 0.869,-0.572 0.55,-0.572 0.23,-0.572 0,-0.297 0,0" /></g><g
           transform="translate(28,168)"
           id="g204"><path
             id="path206"
             style="fill:#999999;fill-opacity:1;fill-rule:nonzero;stroke:none"
             d="M 0,0 C 0,0.321 0.23,0.572 0.55,0.572 0.869,0.572 1.122,0.321 1.122,0 1.122,-0.297 0.869,-0.572 0.55,-0.572 0.23,-0.572 0,-0.297 0,0" /></g><g
           transform="translate(40,157.1439)"
           id="g208"><path
             id="path210"
             style="fill:#999999;fill-opacity:1;fill-rule:nonzero;stroke:none"
             d="m 0,0 c 0.321,0 0.572,-0.252 0.572,-0.572 0,-0.319 -0.251,-0.572 -0.572,-0.572 -0.297,0 -0.572,0.253 -0.572,0.572 C -0.572,-0.252 -0.297,0 0,0" /></g><g
           transform="translate(40,159.4318)"
           id="g212"><path
             id="path214"
             style="fill:#999999;fill-opacity:1;fill-rule:nonzero;stroke:none"
             d="m 0,0 c 0.321,0 0.572,-0.252 0.572,-0.572 0,-0.319 -0.251,-0.572 -0.572,-0.572 -0.297,0 -0.572,0.253 -0.572,0.572 C -0.572,-0.252 -0.297,0 0,0" /></g><g
           transform="translate(40,161.7196)"
           id="g216"><path
             id="path218"
             style="fill:#999999;fill-opacity:1;fill-rule:nonzero;stroke:none"
             d="m 0,0 c 0.321,0 0.572,-0.252 0.572,-0.572 0,-0.319 -0.251,-0.572 -0.572,-0.572 -0.297,0 -0.572,0.253 -0.572,0.572 C -0.572,-0.252 -0.297,0 0,0" /></g><g
           transform="translate(40,164.0074)"
           id="g220"><path
             id="path222"
             style="fill:#999999;fill-opacity:1;fill-rule:nonzero;stroke:none"
             d="m 0,0 c 0.321,0 0.572,-0.252 0.572,-0.572 0,-0.319 -0.251,-0.572 -0.572,-0.572 -0.297,0 -0.572,0.253 -0.572,0.572 C -0.572,-0.252 -0.297,0 0,0" /></g><g
           transform="translate(40,173.1588)"
           id="g224"><path
             id="path226"
             style="fill:#999999;fill-opacity:1;fill-rule:nonzero;stroke:none"
             d="m 0,0 c 0.321,0 0.572,-0.252 0.572,-0.572 0,-0.319 -0.251,-0.572 -0.572,-0.572 -0.297,0 -0.572,0.253 -0.572,0.572 C -0.572,-0.252 -0.297,0 0,0" /></g><g
           transform="translate(40,175.4467)"
           id="g228"><path
             id="path230"
             style="fill:#999999;fill-opacity:1;fill-rule:nonzero;stroke:none"
             d="m 0,0 c 0.321,0 0.572,-0.252 0.572,-0.572 0,-0.319 -0.251,-0.572 -0.572,-0.572 -0.297,0 -0.572,0.253 -0.572,0.572 C -0.572,-0.252 -0.297,0 0,0" /></g><g
           transform="translate(40,177.7122)"
           id="g232"><path
             id="path234"
             style="fill:#999999;fill-opacity:1;fill-rule:nonzero;stroke:none"
             d="m 0,0 c 0.321,0 0.572,-0.23 0.572,-0.55 0,-0.319 -0.251,-0.572 -0.572,-0.572 -0.297,0 -0.572,0.253 -0.572,0.572 C -0.572,-0.23 -0.297,0 0,0" /></g><g
           transform="translate(40,180)"
           id="g236"><path
             id="path238"
             style="fill:#999999;fill-opacity:1;fill-rule:nonzero;stroke:none"
             d="m 0,0 c 0.321,0 0.572,-0.23 0.572,-0.55 0,-0.319 -0.251,-0.572 -0.572,-0.572 -0.297,0 -0.572,0.253 -0.572,0.572 C -0.572,-0.23 -0.297,0 0,0" /></g><g
           transform="translate(47.6835,175.6775)"
           id="g240"><path
             id="path242"
             style="fill:#999999;fill-opacity:1;fill-rule:nonzero;stroke:none"
             d="m 0,0 c -0.227,0.227 -0.226,0.583 0,0.809 0.226,0.226 0.582,0.227 0.809,0 C 1.019,0.599 1.035,0.226 0.809,0 0.583,-0.226 0.21,-0.21 0,0" /></g><g
           transform="translate(46.0658,174.0597)"
           id="g244"><path
             id="path246"
             style="fill:#999999;fill-opacity:1;fill-rule:nonzero;stroke:none"
             d="m 0,0 c -0.227,0.227 -0.226,0.583 0,0.809 0.226,0.226 0.582,0.227 0.809,0 C 1.019,0.599 1.035,0.226 0.809,0 0.583,-0.226 0.21,-0.21 0,0" /></g><g
           transform="translate(44.448,172.442)"
           id="g248"><path
             id="path250"
             style="fill:#999999;fill-opacity:1;fill-rule:nonzero;stroke:none"
             d="m 0,0 c -0.227,0.227 -0.226,0.583 0,0.809 0.226,0.226 0.582,0.227 0.809,0 C 1.019,0.599 1.035,0.226 0.809,0 0.583,-0.226 0.21,-0.21 0,0" /></g><g
           transform="translate(42.8303,170.8242)"
           id="g252"><path
             id="path254"
             style="fill:#999999;fill-opacity:1;fill-rule:nonzero;stroke:none"
             d="m 0,0 c -0.227,0.227 -0.226,0.583 0,0.809 0.226,0.226 0.582,0.227 0.809,0 C 1.019,0.599 1.035,0.226 0.809,0 0.583,-0.226 0.21,-0.21 0,0" /></g><g
           transform="translate(36.3593,164.3532)"
           id="g256"><path
             id="path258"
             style="fill:#999999;fill-opacity:1;fill-rule:nonzero;stroke:none"
             d="m 0,0 c -0.227,0.227 -0.226,0.583 0,0.809 0.226,0.226 0.582,0.227 0.809,0 C 1.019,0.599 1.035,0.226 0.809,0 0.583,-0.226 0.21,-0.21 0,0" /></g><g
           transform="translate(34.7415,162.7355)"
           id="g260"><path
             id="path262"
             style="fill:#999999;fill-opacity:1;fill-rule:nonzero;stroke:none"
             d="m 0,0 c -0.227,0.227 -0.226,0.583 0,0.809 0.226,0.226 0.582,0.227 0.809,0 C 1.019,0.599 1.035,0.226 0.809,0 0.583,-0.226 0.21,-0.21 0,0" /></g><g
           transform="translate(33.1396,161.1335)"
           id="g264"><path
             id="path266"
             style="fill:#999999;fill-opacity:1;fill-rule:nonzero;stroke:none"
             d="m 0,0 c -0.227,0.227 -0.242,0.567 -0.016,0.793 0.226,0.226 0.582,0.227 0.809,0 0.21,-0.21 0.226,-0.583 0,-0.809 C 0.567,-0.242 0.21,-0.21 0,0" /></g><g
           transform="translate(31.5219,159.5158)"
           id="g268"><path
             id="path270"
             style="fill:#999999;fill-opacity:1;fill-rule:nonzero;stroke:none"
             d="m 0,0 c -0.227,0.227 -0.242,0.567 -0.016,0.793 0.226,0.226 0.582,0.227 0.809,0 0.21,-0.21 0.226,-0.583 0,-0.809 C 0.567,-0.242 0.21,-0.21 0,0" /></g><g
           transform="translate(47.6775,160.3165)"
           id="g272"><path
             id="path274"
             style="fill:#999999;fill-opacity:1;fill-rule:nonzero;stroke:none"
             d="m 0,0 c 0.227,0.227 0.583,0.226 0.809,0 0.226,-0.226 0.227,-0.582 0,-0.809 C 0.599,-1.019 0.226,-1.035 0,-0.809 -0.226,-0.583 -0.21,-0.21 0,0" /></g><g
           transform="translate(46.0597,161.9342)"
           id="g276"><path
             id="path278"
             style="fill:#999999;fill-opacity:1;fill-rule:nonzero;stroke:none"
             d="m 0,0 c 0.227,0.227 0.583,0.226 0.809,0 0.226,-0.226 0.227,-0.582 0,-0.809 C 0.599,-1.019 0.226,-1.035 0,-0.809 -0.226,-0.583 -0.21,-0.21 0,0" /></g><g
           transform="translate(44.442,163.552)"
           id="g280"><path
             id="path282"
             style="fill:#999999;fill-opacity:1;fill-rule:nonzero;stroke:none"
             d="m 0,0 c 0.227,0.227 0.583,0.226 0.809,0 0.226,-0.226 0.227,-0.582 0,-0.809 C 0.599,-1.019 0.226,-1.035 0,-0.809 -0.226,-0.583 -0.21,-0.21 0,0" /></g><g
           transform="translate(42.8242,165.1697)"
           id="g284"><path
             id="path286"
             style="fill:#999999;fill-opacity:1;fill-rule:nonzero;stroke:none"
             d="m 0,0 c 0.227,0.227 0.583,0.226 0.809,0 0.226,-0.226 0.227,-0.582 0,-0.809 C 0.599,-1.019 0.226,-1.035 0,-0.809 -0.226,-0.583 -0.21,-0.21 0,0" /></g><g
           transform="translate(36.3532,171.6407)"
           id="g288"><path
             id="path290"
             style="fill:#999999;fill-opacity:1;fill-rule:nonzero;stroke:none"
             d="m 0,0 c 0.227,0.227 0.583,0.226 0.809,0 0.226,-0.226 0.227,-0.582 0,-0.809 C 0.599,-1.019 0.226,-1.035 0,-0.809 -0.226,-0.583 -0.21,-0.21 0,0" /></g><g
           transform="translate(34.7355,173.2585)"
           id="g292"><path
             id="path294"
             style="fill:#999999;fill-opacity:1;fill-rule:nonzero;stroke:none"
             d="m 0,0 c 0.227,0.227 0.583,0.226 0.809,0 0.226,-0.226 0.227,-0.582 0,-0.809 C 0.599,-1.019 0.226,-1.035 0,-0.809 -0.226,-0.583 -0.21,-0.21 0,0" /></g><g
           transform="translate(33.1335,174.8604)"
           id="g296"><path
             id="path298"
             style="fill:#999999;fill-opacity:1;fill-rule:nonzero;stroke:none"
             d="m 0,0 c 0.227,0.227 0.567,0.242 0.793,0.016 0.226,-0.226 0.227,-0.582 0,-0.809 -0.21,-0.21 -0.583,-0.226 -0.809,0 C -0.242,-0.567 -0.21,-0.21 0,0" /></g><g
           transform="translate(31.5158,176.4781)"
           id="g300"><path
             id="path302"
             style="fill:#999999;fill-opacity:1;fill-rule:nonzero;stroke:none"
             d="m 0,0 c 0.227,0.227 0.567,0.242 0.793,0.016 0.226,-0.226 0.227,-0.582 0,-0.809 -0.21,-0.21 -0.583,-0.226 -0.809,0 C -0.242,-0.567 -0.21,-0.21 0,0" /></g><g
           transform="translate(44.1595,178.0295)"
           id="g304"><path
             id="path306"
             style="fill:#999999;fill-opacity:1;fill-rule:nonzero;stroke:none"
             d="M 0,0 C -0.296,0.123 -0.432,0.452 -0.31,0.747 -0.187,1.042 0.142,1.18 0.438,1.057 0.712,0.943 0.87,0.605 0.747,0.31 0.625,0.014 0.275,-0.114 0,0" /></g><g
           transform="translate(43.284,175.9158)"
           id="g308"><path
             id="path310"
             style="fill:#999999;fill-opacity:1;fill-rule:nonzero;stroke:none"
             d="M 0,0 C -0.296,0.123 -0.432,0.452 -0.31,0.747 -0.187,1.042 0.142,1.18 0.438,1.057 0.712,0.943 0.87,0.605 0.747,0.31 0.625,0.014 0.275,-0.114 0,0" /></g><g
           transform="translate(42.4085,173.8021)"
           id="g312"><path
             id="path314"
             style="fill:#999999;fill-opacity:1;fill-rule:nonzero;stroke:none"
             d="M 0,0 C -0.296,0.123 -0.432,0.452 -0.31,0.747 -0.187,1.042 0.142,1.18 0.438,1.057 0.712,0.943 0.87,0.605 0.747,0.31 0.625,0.014 0.275,-0.114 0,0" /></g><g
           transform="translate(41.533,171.6884)"
           id="g316"><path
             id="path318"
             style="fill:#999999;fill-opacity:1;fill-rule:nonzero;stroke:none"
             d="M 0,0 C -0.296,0.123 -0.432,0.452 -0.31,0.747 -0.187,1.042 0.142,1.18 0.438,1.057 0.712,0.943 0.87,0.605 0.747,0.31 0.625,0.014 0.275,-0.114 0,0" /></g><g
           transform="translate(38.0309,163.2336)"
           id="g320"><path
             id="path322"
             style="fill:#999999;fill-opacity:1;fill-rule:nonzero;stroke:none"
             d="M 0,0 C -0.296,0.123 -0.432,0.452 -0.31,0.747 -0.187,1.042 0.142,1.18 0.438,1.057 0.712,0.943 0.87,0.605 0.747,0.31 0.625,0.014 0.275,-0.114 0,0" /></g><g
           transform="translate(37.1554,161.1199)"
           id="g324"><path
             id="path326"
             style="fill:#999999;fill-opacity:1;fill-rule:nonzero;stroke:none"
             d="M 0,0 C -0.296,0.123 -0.432,0.452 -0.31,0.747 -0.187,1.042 0.142,1.18 0.438,1.057 0.712,0.943 0.87,0.605 0.747,0.31 0.625,0.014 0.275,-0.114 0,0" /></g><g
           transform="translate(36.2884,159.0269)"
           id="g328"><path
             id="path330"
             style="fill:#999999;fill-opacity:1;fill-rule:nonzero;stroke:none"
             d="M 0,0 C -0.296,0.123 -0.44,0.431 -0.318,0.727 -0.196,1.022 0.133,1.159 0.429,1.036 0.704,0.922 0.861,0.584 0.739,0.289 0.616,-0.006 0.275,-0.114 0,0" /></g><g
           transform="translate(35.4129,156.9132)"
           id="g332"><path
             id="path334"
             style="fill:#999999;fill-opacity:1;fill-rule:nonzero;stroke:none"
             d="M 0,0 C -0.296,0.123 -0.44,0.431 -0.318,0.727 -0.196,1.022 0.133,1.159 0.429,1.036 0.704,0.922 0.861,0.584 0.739,0.289 0.616,-0.006 0.275,-0.114 0,0" /></g><g
           transform="translate(50.0295,163.8405)"
           id="g336"><path
             id="path338"
             style="fill:#999999;fill-opacity:1;fill-rule:nonzero;stroke:none"
             d="M 0,0 C 0.123,0.296 0.452,0.432 0.747,0.31 1.042,0.187 1.18,-0.142 1.057,-0.438 0.943,-0.712 0.605,-0.87 0.31,-0.747 0.014,-0.625 -0.114,-0.275 0,0" /></g><g
           transform="translate(47.9158,164.716)"
           id="g340"><path
             id="path342"
             style="fill:#999999;fill-opacity:1;fill-rule:nonzero;stroke:none"
             d="M 0,0 C 0.123,0.296 0.452,0.432 0.747,0.31 1.042,0.187 1.18,-0.142 1.057,-0.438 0.943,-0.712 0.605,-0.87 0.31,-0.747 0.014,-0.625 -0.114,-0.275 0,0" /></g><g
           transform="translate(45.8021,165.5915)"
           id="g344"><path
             id="path346"
             style="fill:#999999;fill-opacity:1;fill-rule:nonzero;stroke:none"
             d="M 0,0 C 0.123,0.296 0.452,0.432 0.747,0.31 1.042,0.187 1.18,-0.142 1.057,-0.438 0.943,-0.712 0.605,-0.87 0.31,-0.747 0.014,-0.625 -0.114,-0.275 0,0" /></g><g
           transform="translate(43.6884,166.467)"
           id="g348"><path
             id="path350"
             style="fill:#999999;fill-opacity:1;fill-rule:nonzero;stroke:none"
             d="M 0,0 C 0.123,0.296 0.452,0.432 0.747,0.31 1.042,0.187 1.18,-0.142 1.057,-0.438 0.943,-0.712 0.605,-0.87 0.31,-0.747 0.014,-0.625 -0.114,-0.275 0,0" /></g><g
           transform="translate(35.2336,169.9691)"
           id="g352"><path
             id="path354"
             style="fill:#999999;fill-opacity:1;fill-rule:nonzero;stroke:none"
             d="M 0,0 C 0.123,0.296 0.452,0.432 0.747,0.31 1.042,0.187 1.18,-0.142 1.057,-0.438 0.943,-0.712 0.605,-0.87 0.31,-0.747 0.014,-0.625 -0.114,-0.275 0,0" /></g><g
           transform="translate(33.1199,170.8447)"
           id="g356"><path
             id="path358"
             style="fill:#999999;fill-opacity:1;fill-rule:nonzero;stroke:none"
             d="M 0,0 C 0.123,0.296 0.452,0.432 0.747,0.31 1.042,0.187 1.18,-0.142 1.057,-0.438 0.943,-0.712 0.605,-0.87 0.31,-0.747 0.014,-0.625 -0.114,-0.275 0,0" /></g><g
           transform="translate(31.0269,171.7116)"
           id="g360"><path
             id="path362"
             style="fill:#999999;fill-opacity:1;fill-rule:nonzero;stroke:none"
             d="M 0,0 C 0.123,0.296 0.431,0.44 0.727,0.318 1.022,0.196 1.159,-0.133 1.036,-0.429 0.922,-0.704 0.584,-0.861 0.289,-0.739 -0.006,-0.616 -0.114,-0.275 0,0" /></g><g
           transform="translate(28.9132,172.5871)"
           id="g364"><path
             id="path366"
             style="fill:#999999;fill-opacity:1;fill-rule:nonzero;stroke:none"
             d="M 0,0 C 0.123,0.296 0.431,0.44 0.727,0.318 1.022,0.196 1.159,-0.133 1.036,-0.429 0.923,-0.704 0.584,-0.861 0.289,-0.739 -0.006,-0.616 -0.114,-0.275 0,0" /></g><g
           transform="translate(50.0333,172.1567)"
           id="g368"><path
             id="path370"
             style="fill:#999999;fill-opacity:1;fill-rule:nonzero;stroke:none"
             d="M 0,0 C -0.123,0.296 0.014,0.625 0.31,0.747 0.605,0.87 0.934,0.734 1.057,0.438 1.171,0.163 1.042,-0.187 0.747,-0.31 0.452,-0.432 0.114,-0.275 0,0" /></g><g
           transform="translate(47.9196,171.2812)"
           id="g372"><path
             id="path374"
             style="fill:#999999;fill-opacity:1;fill-rule:nonzero;stroke:none"
             d="M 0,0 C -0.123,0.296 0.014,0.625 0.31,0.747 0.605,0.87 0.934,0.734 1.057,0.438 1.171,0.163 1.042,-0.187 0.747,-0.31 0.452,-0.432 0.114,-0.275 0,0" /></g><g
           transform="translate(45.8059,170.4057)"
           id="g376"><path
             id="path378"
             style="fill:#999999;fill-opacity:1;fill-rule:nonzero;stroke:none"
             d="M 0,0 C -0.123,0.296 0.014,0.625 0.31,0.747 0.605,0.87 0.934,0.734 1.057,0.438 1.171,0.163 1.042,-0.187 0.747,-0.31 0.452,-0.432 0.114,-0.275 0,0" /></g><g
           transform="translate(43.6922,169.5301)"
           id="g380"><path
             id="path382"
             style="fill:#999999;fill-opacity:1;fill-rule:nonzero;stroke:none"
             d="M 0,0 C -0.123,0.296 0.014,0.625 0.31,0.747 0.605,0.87 0.934,0.734 1.057,0.438 1.171,0.163 1.042,-0.187 0.747,-0.31 0.452,-0.432 0.114,-0.275 0,0" /></g><g
           transform="translate(35.2375,166.0281)"
           id="g384"><path
             id="path386"
             style="fill:#999999;fill-opacity:1;fill-rule:nonzero;stroke:none"
             d="M 0,0 C -0.123,0.296 0.014,0.625 0.31,0.747 0.605,0.87 0.934,0.734 1.057,0.438 1.171,0.163 1.042,-0.187 0.747,-0.31 0.452,-0.432 0.114,-0.275 0,0" /></g><g
           transform="translate(33.1238,165.1525)"
           id="g388"><path
             id="path390"
             style="fill:#999999;fill-opacity:1;fill-rule:nonzero;stroke:none"
             d="M 0,0 C -0.123,0.296 0.014,0.625 0.31,0.747 0.605,0.87 0.934,0.734 1.057,0.438 1.171,0.163 1.042,-0.187 0.747,-0.31 0.452,-0.432 0.114,-0.275 0,0" /></g><g
           transform="translate(31.0307,164.2856)"
           id="g392"><path
             id="path394"
             style="fill:#999999;fill-opacity:1;fill-rule:nonzero;stroke:none"
             d="M 0,0 C -0.123,0.296 -0.006,0.616 0.289,0.739 0.584,0.861 0.914,0.725 1.036,0.429 1.15,0.155 1.022,-0.196 0.727,-0.318 0.431,-0.44 0.114,-0.275 0,0" /></g><g
           transform="translate(28.917,163.41)"
           id="g396"><path
             id="path398"
             style="fill:#999999;fill-opacity:1;fill-rule:nonzero;stroke:none"
             d="M 0,0 C -0.123,0.296 -0.006,0.616 0.289,0.739 0.584,0.861 0.914,0.725 1.036,0.429 1.15,0.155 1.022,-0.196 0.727,-0.318 0.431,-0.44 0.114,-0.275 0,0" /></g><g
           transform="translate(44.1567,157.9667)"
           id="g400"><path
             id="path402"
             style="fill:#999999;fill-opacity:1;fill-rule:nonzero;stroke:none"
             d="M 0,0 C 0.296,0.123 0.625,-0.014 0.747,-0.31 0.87,-0.605 0.734,-0.934 0.438,-1.057 0.163,-1.171 -0.187,-1.042 -0.31,-0.747 -0.432,-0.452 -0.275,-0.114 0,0" /></g><g
           transform="translate(43.2812,160.0804)"
           id="g404"><path
             id="path406"
             style="fill:#999999;fill-opacity:1;fill-rule:nonzero;stroke:none"
             d="M 0,0 C 0.296,0.123 0.625,-0.014 0.747,-0.31 0.87,-0.605 0.734,-0.934 0.438,-1.057 0.163,-1.171 -0.187,-1.042 -0.31,-0.747 -0.432,-0.452 -0.275,-0.114 0,0" /></g><g
           transform="translate(42.4057,162.1941)"
           id="g408"><path
             id="path410"
             style="fill:#999999;fill-opacity:1;fill-rule:nonzero;stroke:none"
             d="M 0,0 C 0.296,0.123 0.625,-0.014 0.747,-0.31 0.87,-0.605 0.734,-0.934 0.438,-1.057 0.163,-1.171 -0.187,-1.042 -0.31,-0.747 -0.432,-0.452 -0.275,-0.114 0,0" /></g><g
           transform="translate(41.5301,164.3078)"
           id="g412"><path
             id="path414"
             style="fill:#999999;fill-opacity:1;fill-rule:nonzero;stroke:none"
             d="M 0,0 C 0.296,0.123 0.625,-0.014 0.747,-0.31 0.87,-0.605 0.734,-0.934 0.438,-1.057 0.163,-1.171 -0.187,-1.042 -0.31,-0.747 -0.432,-0.452 -0.275,-0.114 0,0" /></g><g
           transform="translate(38.0281,172.7625)"
           id="g416"><path
             id="path418"
             style="fill:#999999;fill-opacity:1;fill-rule:nonzero;stroke:none"
             d="M 0,0 C 0.296,0.123 0.625,-0.014 0.747,-0.31 0.87,-0.605 0.734,-0.934 0.438,-1.057 0.163,-1.171 -0.187,-1.042 -0.31,-0.747 -0.432,-0.452 -0.275,-0.114 0,0" /></g><g
           transform="translate(37.1525,174.8762)"
           id="g420"><path
             id="path422"
             style="fill:#999999;fill-opacity:1;fill-rule:nonzero;stroke:none"
             d="M 0,0 C 0.296,0.123 0.625,-0.014 0.747,-0.31 0.87,-0.605 0.734,-0.934 0.438,-1.057 0.163,-1.171 -0.187,-1.042 -0.31,-0.747 -0.432,-0.452 -0.275,-0.114 0,0" /></g><g
           transform="translate(36.2856,176.9693)"
           id="g424"><path
             id="path426"
             style="fill:#999999;fill-opacity:1;fill-rule:nonzero;stroke:none"
             d="M 0,0 C 0.296,0.123 0.616,0.006 0.739,-0.289 0.861,-0.584 0.725,-0.914 0.429,-1.036 0.155,-1.15 -0.196,-1.022 -0.318,-0.727 -0.44,-0.431 -0.275,-0.114 0,0" /></g><g
           transform="translate(35.41,179.083)"
           id="g428"><path
             id="path430"
             style="fill:#999999;fill-opacity:1;fill-rule:nonzero;stroke:none"
             d="M 0,0 C 0.296,0.123 0.616,0.006 0.739,-0.289 0.861,-0.584 0.725,-0.914 0.429,-1.036 0.155,-1.15 -0.196,-1.022 -0.318,-0.727 -0.44,-0.431 -0.275,-0.114 0,0" /></g></g></g></g></svg>