<?xml version="1.0" encoding="UTF-8" standalone="no"?>
<svg
   xmlns:dc="http://purl.org/dc/elements/1.1/"
   xmlns:cc="http://creativecommons.org/ns#"
   xmlns:rdf="http://www.w3.org/1999/02/22-rdf-syntax-ns#"
   xmlns:svg="http://www.w3.org/2000/svg"
   xmlns="http://www.w3.org/2000/svg"
   viewBox="0 0 320 320"
   height="320"
   width="320"
   xml:space="preserve"
   version="1.1"
   id="svg2"><metadata
     id="metadata8"><rdf:RDF><cc:Work
         rdf:about=""><dc:format>image/svg+xml</dc:format><dc:type
           rdf:resource="http://purl.org/dc/dcmitype/StillImage" /></cc:Work></rdf:RDF></metadata><defs
     id="defs6"><clipPath
       id="clipPath16"
       clipPathUnits="userSpaceOnUse"><path
         id="path18"
         d="M 0,256 256,256 256,0 0,0 0,256 Z" /></clipPath><clipPath
       id="clipPath24"
       clipPathUnits="userSpaceOnUse"><path
         id="path26"
         d="M 4,252 252,252 252,4 4,4 4,252 Z" /></clipPath></defs><g
     transform="matrix(1.25,0,0,-1.25,0,320)"
     id="g10"><g
       id="g12"><g
         clip-path="url(#clipPath16)"
         id="g14"><g
           id="g20"><g
             id="g22" /><g
             id="g28"><g
               style="opacity:0.5"
               id="g30"
               clip-path="url(#clipPath24)"><g
                 id="g32"
                 transform="translate(128,108)"><path
                   id="path34"
                   style="fill:#ffffff;fill-opacity:1;fill-rule:nonzero;stroke:none"
                   d="m 0,0 c -11.046,0 -20,8.954 -20,20 0,11.046 8.954,20 20,20 C 11.046,40 20,31.046 20,20 20,8.954 11.046,0 0,0 M 87.676,107.682 C 64.254,131.102 33.116,144 0,144 -33.124,144 -64.264,131.102 -87.683,107.681 -111.103,84.262 -124,53.122 -124,20 c 0,-33.122 12.897,-64.262 36.317,-87.681 C -64.264,-91.102 -33.124,-104 0,-104 c 33.116,0 64.254,12.898 87.676,36.318 C 111.1,-44.26 124,-13.12 124,20 c 0,33.12 -12.9,64.26 -36.324,87.682" /></g></g></g></g><g
           transform="translate(128,84.4951)"
           id="g36"><path
             id="path38"
             style="fill:#bfbfbf;fill-opacity:1;fill-rule:nonzero;stroke:none"
             d="M 0,0 C -23.993,0 -43.505,19.517 -43.505,43.505 -43.505,67.493 -23.993,87.01 0,87.01 23.988,87.01 43.5,67.493 43.5,43.505 43.5,19.517 23.988,0 0,0 m 0,159.505 c -64.071,0 -116,-51.934 -116,-116 0,-64.066 51.929,-116 116,-116 64.051,0 116,51.934 116,116 0,64.066 -51.949,116 -116,116" /></g><g
           transform="translate(92,100)"
           id="g40"><path
             id="path42"
             style="fill:#4b5da7;fill-opacity:1;fill-rule:nonzero;stroke:none"
             d="M 0,0 0,-2.303 0,-20 0,-82.973 C 11.391,-86.233 23.474,-88 36,-88 c 12.525,0 24.608,1.768 36,5.029 L 72,-20 72,-3.866 72,0 0,0 Z" /></g><g
           transform="translate(109.8767,55.5248)"
           id="g44"><path
             id="path46"
             style="fill:#bfbfbf;fill-opacity:1;fill-rule:nonzero;stroke:none"
             d="m 0,0 c -0.321,0 -0.518,-0.01 -0.819,-0.148 l 0,-2.722 c 0.145,-0.021 0.425,-0.032 0.674,-0.021 1.068,0.084 1.711,0.654 1.649,1.53 C 1.462,-0.728 1.255,-0.052 0,0 m 2.623,-7.429 -3.11,4.116 c -0.083,0.105 -0.115,0.179 -0.208,0.253 -0.041,0.042 -0.083,0.063 -0.134,0.095 l 0,-3.62 c 0,-0.169 -0.011,-0.264 0.031,-0.433 0.02,-0.147 0.062,-0.232 0.114,-0.379 l -1.141,0 c 0.062,0.126 0.114,0.2 0.125,0.327 0.031,0.158 0.031,0.506 0.031,0.802 l 0,5.656 c 0,0.295 -0.011,0.464 -0.063,0.76 -0.031,0.137 -0.082,0.211 -0.145,0.327 l 2.333,0 c 1.016,0 1.929,-0.686 1.898,-1.815 C 2.333,-2.438 1.389,-3.377 0.249,-3.197 0.311,-3.25 0.342,-3.292 0.404,-3.345 0.622,-3.556 0.747,-3.694 0.943,-3.947 l 1.846,-2.384 c 0.238,-0.317 0.425,-0.571 0.664,-0.781 0.145,-0.127 0.238,-0.201 0.394,-0.317 l -1.224,0 z" /></g><g
           transform="translate(116.6091,52.7391)"
           id="g48"><path
             id="path50"
             style="fill:#bfbfbf;fill-opacity:1;fill-rule:nonzero;stroke:none"
             d="m 0,0 c -0.715,0.01 -1.306,-0.464 -1.452,-1.172 l 2.841,0 C 1.255,-0.475 0.798,0 0,0 M -1.576,-1.688 -1.597,-2.026 C -1.669,-3.219 -1.006,-4.2 0.342,-4.2 c 0.684,0 1.151,0.042 1.69,0.475 L 1.897,-4.38 C 1.285,-4.717 0.819,-4.738 0.124,-4.707 c -1.524,0.064 -2.478,0.919 -2.498,2.723 -0.011,1.33 1.005,2.543 2.353,2.512 1.276,-0.021 2.105,-1.003 2.136,-2.216 l -3.691,0 z" /></g><g
           transform="translate(121.122,48.1275)"
           id="g52"><path
             id="path54"
             style="fill:#bfbfbf;fill-opacity:1;fill-rule:nonzero;stroke:none"
             d="M 0,0 C -0.425,0 -0.715,0.158 -0.933,0.549 -1.12,0.865 -1.12,1.214 -1.12,1.646 l 0,2.955 -0.674,0 0,0.506 0.674,0 0,0.592 c 0,0.105 0,0.179 -0.041,0.263 -0.052,0.085 -0.094,0.127 -0.166,0.169 l 0.975,0.507 0,-1.51 1.151,0 0,-0.527 -1.162,0 0,-2.986 c 0,-0.348 0.011,-0.718 0.187,-0.887 0.155,-0.169 0.321,-0.232 0.539,-0.232 l 0.456,0 L 0.819,0 0,0 Z" /></g><g
           transform="translate(124.2655,52.5913)"
           id="g56"><path
             id="path58"
             style="fill:#bfbfbf;fill-opacity:1;fill-rule:nonzero;stroke:none"
             d="m 0,0 c -0.384,-0.222 -0.643,-0.749 -0.643,-1.319 l 0,-2.248 c 0,-0.211 0.021,-0.327 0.073,-0.517 0.041,-0.158 0.083,-0.253 0.176,-0.401 l -1.192,0 c 0.062,0.105 0.114,0.169 0.134,0.275 0.052,0.179 0.042,0.306 0.042,0.495 l 0,3.609 c 0,0.138 -0.01,0.243 -0.062,0.37 -0.052,0.148 -0.114,0.232 -0.208,0.348 l 1.006,0.116 0,-0.76 c 0.156,0.317 0.332,0.486 0.633,0.665 0.279,0.158 0.57,0.211 0.933,0.148 l 0,-0.697 C 0.56,0.19 0.301,0.169 0,0" /></g><g
           transform="translate(128.3833,52.7391)"
           id="g60"><path
             id="path62"
             style="fill:#bfbfbf;fill-opacity:1;fill-rule:nonzero;stroke:none"
             d="m 0,0 c -1.11,0.032 -1.856,-1.003 -1.846,-2.1 0.011,-1.077 0.767,-2.047 1.825,-2.047 1.037,0 1.815,0.949 1.835,2.015 C 1.846,-1.045 1.078,-0.053 0,0 m -0.062,-4.686 c -1.4,0.022 -2.561,1.203 -2.561,2.628 0,1.457 1.213,2.638 2.644,2.617 1.42,-0.031 2.591,-1.224 2.561,-2.68 -0.021,-1.435 -1.193,-2.586 -2.644,-2.565" /></g><g
           transform="translate(135.8514,48.2856)"
           id="g64"><path
             id="path66"
             style="fill:#bfbfbf;fill-opacity:1;fill-rule:nonzero;stroke:none"
             d="m 0,0 c -0.518,-0.211 -0.881,-0.2 -1.452,-0.221 -1.659,-0.064 -2.83,1.065 -2.851,2.564 -0.031,1.551 1.214,2.691 2.789,2.648 0.55,-0.01 0.892,-0.01 1.4,-0.221 l 0,-0.707 c -0.352,0.275 -0.902,0.433 -1.389,0.422 -1.203,-0.021 -2.033,-0.96 -2.033,-2.11 -0.02,-1.214 0.923,-2.164 2.084,-2.143 0.633,0.021 1.234,0.201 1.566,0.443 L 0,0 Z" /></g><g
           transform="translate(139.7526,50.8608)"
           id="g68"><path
             id="path70"
             style="fill:#bfbfbf;fill-opacity:1;fill-rule:nonzero;stroke:none"
             d="m 0,0 -0.664,-0.169 -0.943,-0.179 c -0.518,-0.095 -0.871,-0.433 -0.902,-0.929 -0.052,-0.612 0.498,-1.077 1.13,-1.066 C -0.695,-2.332 0,-1.91 0,-1.214 L 0,0 Z m -0.021,-2.754 0,0.474 c -0.435,-0.421 -0.881,-0.527 -1.482,-0.537 -0.892,-0.011 -1.742,0.537 -1.69,1.561 0.031,0.908 0.497,1.256 1.368,1.393 l 1.037,0.18 c 0.384,0.063 0.747,0.168 0.747,0.706 0,0.507 -0.519,0.908 -1.245,0.908 -0.518,0 -1.099,-0.074 -1.482,-0.411 l 0,0.601 C -2.26,2.438 -1.752,2.459 -1.265,2.459 0.156,2.406 0.684,1.847 0.684,0.77 l 0,-2.754 c 0,-0.148 0.011,-0.243 0.052,-0.38 0.031,-0.148 0.062,-0.232 0.135,-0.369 l -0.892,-0.021 z" /></g><g
           transform="translate(142.8864,48.0008)"
           id="g72"><path
             id="path74"
             style="fill:#bfbfbf;fill-opacity:1;fill-rule:nonzero;stroke:none"
             d="m 0,0 c -0.518,0.011 -0.995,0.043 -1.317,0.201 l -0.135,0.791 c 0.239,-0.274 0.788,-0.485 1.4,-0.496 0.591,0 1.182,0.253 1.171,0.981 C 1.099,1.91 0.84,2.206 0.446,2.364 l -0.643,0.274 c -0.632,0.253 -1.109,0.708 -1.099,1.404 0.02,0.865 0.892,1.319 1.762,1.33 0.467,0 0.767,-0.032 1.172,-0.254 l 0,-0.643 C 1.358,4.759 0.87,4.844 0.477,4.844 c -0.519,0 -0.954,-0.306 -0.954,-0.792 0,-0.38 0.249,-0.633 0.601,-0.78 L 0.756,3.008 C 1.649,2.638 1.877,2.248 1.897,1.551 1.928,0.391 0.798,-0.021 0,0" /></g><g
           transform="translate(147.1811,48.1275)"
           id="g76"><path
             id="path78"
             style="fill:#bfbfbf;fill-opacity:1;fill-rule:nonzero;stroke:none"
             d="m 0,0 c -0.425,0 -0.715,0.158 -0.933,0.549 -0.186,0.316 -0.186,0.665 -0.186,1.097 l 0,2.955 -0.675,0 0,0.506 0.675,0 0,0.592 c 0,0.105 0,0.179 -0.042,0.263 -0.052,0.085 -0.094,0.127 -0.166,0.169 l 0.975,0.507 0,-1.51 1.151,0 0,-0.527 -1.162,0 0,-2.986 c 0,-0.348 0.011,-0.718 0.187,-0.887 C -0.02,0.559 0.145,0.496 0.363,0.496 l 0.456,0 L 0.819,0 0,0 Z" /></g><g
           transform="translate(118,65.6169)"
           id="g80"><path
             id="path82"
             style="fill:#bfbfbf;fill-opacity:1;fill-rule:nonzero;stroke:none"
             d="m 0,0 c 0,-1.146 0.19,-2.287 0.572,-3.381 0.826,-2.365 2.56,-4.33 4.756,-5.39 2.124,-1.024 4.46,-1.122 6.58,-0.274 2.022,0.809 3.693,2.487 4.585,4.602 0.857,2.034 0.922,4.264 0.184,6.28 C 15.974,3.753 14.539,5.327 12.74,6.155 11.02,6.945 9.145,6.986 7.457,6.269 5.859,5.591 4.558,4.229 3.887,2.533 3.251,0.925 3.24,-0.817 3.856,-2.375 c 0.58,-1.468 1.719,-2.649 3.125,-3.241 1.316,-0.555 2.732,-0.536 3.986,0.053 1.176,0.552 2.105,1.603 2.551,2.885 0.41,1.182 0.362,2.437 -0.137,3.534 C 12.916,1.88 12.065,2.666 11.045,3.013 10.128,3.325 9.174,3.237 8.357,2.765 7.607,2.331 7.04,1.552 6.842,0.681 6.67,-0.084 6.795,-0.85 7.199,-1.477 c 0.376,-0.581 1.035,-0.983 1.68,-1.022 0.538,-0.032 1.023,0.182 1.368,0.604 0.266,0.325 0.232,0.818 -0.076,1.1 -0.308,0.282 -0.773,0.246 -1.039,-0.08 -0.03,-0.036 -0.068,-0.072 -0.169,-0.066 -0.189,0.012 -0.43,0.163 -0.546,0.344 -0.214,0.33 -0.194,0.678 -0.142,0.912 0.101,0.444 0.403,0.857 0.789,1.08 0.587,0.34 1.156,0.26 1.53,0.132 0.627,-0.213 1.173,-0.717 1.459,-1.347 0.324,-0.714 0.354,-1.537 0.082,-2.319 -0.309,-0.888 -0.952,-1.616 -1.765,-1.998 -0.889,-0.417 -1.899,-0.427 -2.844,-0.029 -1.04,0.438 -1.882,1.31 -2.311,2.394 -0.462,1.169 -0.451,2.484 0.031,3.702 0.519,1.314 1.525,2.367 2.76,2.891 1.319,0.56 2.791,0.525 4.147,-0.098 1.441,-0.662 2.589,-1.92 3.15,-3.451 0.595,-1.623 0.539,-3.428 -0.156,-5.079 -0.733,-1.738 -2.103,-3.115 -3.76,-3.778 -1.75,-0.7 -3.684,-0.617 -5.447,0.234 -1.842,0.889 -3.295,2.533 -3.986,4.512 -0.726,2.08 -0.625,4.371 0.287,6.455 0.946,2.162 2.682,3.86 4.763,4.661 2.18,0.838 4.576,0.706 6.746,-0.374 2.242,-1.115 3.998,-3.148 4.819,-5.575 0.137,-0.405 0.559,-0.617 0.942,-0.472 0.383,0.145 0.584,0.593 0.445,0.998 -0.951,2.815 -2.985,5.17 -5.579,6.461 -2.528,1.258 -5.325,1.41 -7.876,0.429 C 4.054,8.802 2.014,6.808 0.904,4.272 0.303,2.899 0,1.446 0,0" /></g><g
           transform="translate(124.6478,20)"
           id="g84"><path
             id="path86"
             style="fill:#bfbfbf;fill-opacity:1;fill-rule:nonzero;stroke:none"
             d="m 0,0 -1.073,0 -1.34,2.759 0,-2.759 -1.073,0 0,3.862 1.609,0 L 0,0 Z M 0,5.379 C 0,5.036 -0.118,4.743 -0.353,4.501 -0.588,4.259 -0.828,4.138 -1.073,4.138 l -2.681,0 0,-4.138 -1.073,0 0,5.241 3.486,0 c 0.179,0 0.268,0.046 0.268,0.138 0,0.092 -0.089,0.138 -0.268,0.138 l -3.486,0 0,1.104 3.754,0 c 0.245,0 0.485,-0.123 0.72,-0.368 C -0.118,6.008 0,5.716 0,5.379 m 1.341,0 C 1.341,4.656 1.161,4.109 0.8,3.738 0.439,3.367 0.134,3.117 -0.116,2.989 L 1.341,0 0.268,0 l -1.877,3.862 0.536,0 c 0.316,0 0.619,0.149 0.908,0.446 0.289,0.297 0.433,0.654 0.433,1.071 0,0.411 -0.144,0.767 -0.433,1.067 -0.289,0.3 -0.592,0.451 -0.908,0.451 l -3.754,0 0,1.103 3.754,0 C -0.459,8 0.097,7.743 0.594,7.228 1.092,6.713 1.341,6.097 1.341,5.379" /></g><g
           transform="translate(126.5249,25.5172)"
           id="g88"><path
             id="path90"
             style="fill:#bfbfbf;fill-opacity:1;fill-rule:nonzero;stroke:none"
             d="m 0,0 c 0,1.655 0.804,2.483 2.413,2.483 l 3.218,0 0,-1.104 -3.218,0 C 1.52,1.379 1.073,0.92 1.073,0 l 0,-3.034 c 0,-0.92 0.447,-1.38 1.34,-1.38 l 3.218,0 0,-1.103 -3.218,0 C 0.804,-5.517 0,-4.69 0,-3.034 L 0,0 Z" /></g><g
           transform="translate(127.8657,24.1379)"
           id="g92"><path
             id="path94"
             style="fill:#bfbfbf;fill-opacity:1;fill-rule:nonzero;stroke:none"
             d="m 0,0 0,1.379 c 0,0.736 0.358,1.104 1.073,1.104 l 3.218,0 0,-1.104 -2.95,0 C 1.162,1.379 1.073,1.287 1.073,1.103 l 2.413,0 L 3.486,0 0,0 Z" /></g><g
           transform="translate(127.8657,23.8621)"
           id="g96"><path
             id="path98"
             style="fill:#bfbfbf;fill-opacity:1;fill-rule:nonzero;stroke:none"
             d="m 0,0 3.486,0 0,-1.103 -2.413,0 c 0,-0.184 0.089,-0.276 0.268,-0.276 l 2.95,0 0,-1.104 -3.218,0 C 0.358,-2.483 0,-2.115 0,-1.379 L 0,0 Z" /></g><g
           transform="translate(135.9105,26.6207)"
           id="g100"><path
             id="path102"
             style="fill:#bfbfbf;fill-opacity:1;fill-rule:nonzero;stroke:none"
             d="m 0,0 2.95,0 0,-1.103 -1.877,0 0,-5.518 L 0,-6.621 0,0 Z m -0.268,0 0,-6.621 -1.073,0 0,5.518 -1.877,0 0,1.103 2.95,0 z m 3.218,0.276 -6.168,0 0,1.103 6.168,0 0,-1.103 z" /></g><g
           transform="translate(144.2234,20)"
           id="g104"><path
             id="path106"
             style="fill:#bfbfbf;fill-opacity:1;fill-rule:nonzero;stroke:none"
             d="m 0,0 -1.073,0 -1.34,2.759 0,-2.759 -1.073,0 0,3.862 1.609,0 L 0,0 Z M 0,5.379 C 0,5.036 -0.118,4.743 -0.353,4.501 -0.588,4.259 -0.828,4.138 -1.073,4.138 l -2.681,0 0,-4.138 -1.073,0 0,5.241 3.486,0 c 0.179,0 0.268,0.046 0.268,0.138 0,0.092 -0.089,0.138 -0.268,0.138 l -3.486,0 0,1.104 3.754,0 c 0.245,0 0.485,-0.123 0.72,-0.368 C -0.118,6.008 0,5.716 0,5.379 m 1.341,0 C 1.341,4.656 1.161,4.109 0.8,3.738 0.439,3.367 0.134,3.117 -0.116,2.989 L 1.341,0 0.268,0 l -1.877,3.862 0.536,0 c 0.316,0 0.619,0.149 0.908,0.446 0.289,0.297 0.433,0.654 0.433,1.071 0,0.411 -0.144,0.767 -0.433,1.067 -0.289,0.3 -0.592,0.451 -0.908,0.451 l -3.754,0 0,1.103 3.754,0 C -0.459,8 0.097,7.743 0.594,7.228 1.092,6.713 1.341,6.097 1.341,5.379" /></g><g
           transform="translate(149.5866,25.2414)"
           id="g108"><path
             id="path110"
             style="fill:#bfbfbf;fill-opacity:1;fill-rule:nonzero;stroke:none"
             d="m 0,0 c 0,0.184 -0.089,0.276 -0.268,0.276 l -0.536,0 C -0.983,0.276 -1.073,0.184 -1.073,0 l 0,-2.483 c 0,-0.184 0.09,-0.276 0.269,-0.276 l 0.536,0 C -0.089,-2.759 0,-2.667 0,-2.483 L 0,0 Z m 1.073,0.276 0,-3.035 C 1.073,-3.494 0.715,-3.862 0,-3.862 l -1.073,0 c -0.715,0 -1.072,0.368 -1.072,1.103 l 0,3.035 c 0,0.735 0.357,1.103 1.072,1.103 l 1.073,0 c 0.715,0 1.073,-0.368 1.073,-1.103 m 0.268,0 C 1.341,1.195 0.894,1.655 0,1.655 l -1.073,0 c -0.894,0 -1.34,-0.46 -1.34,-1.379 l 0,-3.035 c 0,-0.919 0.446,-1.379 1.34,-1.379 l 1.073,0 c 0.894,0 1.341,0.46 1.341,1.379 l 0,3.035 z m 1.072,0 0,-3.035 C 2.413,-4.414 1.609,-5.241 0,-5.241 l -1.073,0 c -1.609,0 -2.413,0.827 -2.413,2.482 l 0,3.035 c 0,1.655 0.804,2.483 2.413,2.483 l 1.073,0 c 1.609,0 2.413,-0.828 2.413,-2.483" /></g><g
           transform="translate(105.1706,21.855)"
           id="g112"><path
             id="path114"
             style="fill:#bfbfbf;fill-opacity:1;fill-rule:nonzero;stroke:none"
             d="M 0,0 C -0.008,0.024 -0.014,0.051 -0.021,0.076 L 0,0.076 0,0 Z m 1.511,0.628 c -0.179,0 -0.268,0.092 -0.268,0.276 l 0,5.241 -2.414,0 0,-5.517 c 0,-1.655 0.805,-2.483 2.414,-2.483 l 3.218,0 0,2.483 -2.95,0 z" /></g><path
           id="path116"
           style="fill:#bfbfbf;fill-opacity:1;fill-rule:nonzero;stroke:none"
           d="m 110.167,20 2.413,0 0,8 -2.413,0 0,-8 z" /><g
           transform="translate(116.6031,25.2414)"
           id="g118"><path
             id="path120"
             style="fill:#bfbfbf;fill-opacity:1;fill-rule:nonzero;stroke:none"
             d="m 0,0 -1.073,0 0,0.276 1.073,0 C 0.179,0.276 0.268,0.23 0.268,0.138 0.268,0.046 0.179,0 0,0 m 0,-2.759 -1.073,0 0,0.276 1.073,0 c 0.179,0 0.268,-0.046 0.268,-0.138 C 0.268,-2.713 0.179,-2.759 0,-2.759 M 2.682,0.138 C 2.682,0.855 2.433,1.471 1.935,1.986 1.438,2.501 0.882,2.759 0.268,2.759 l -3.754,0 0,-8 3.754,0 c 0.614,0 1.17,0.257 1.667,0.772 0.498,0.515 0.747,1.131 0.747,1.848 0,0.521 -0.123,0.978 -0.367,1.37 0.244,0.393 0.367,0.856 0.367,1.389" /></g><g
           transform="translate(216.5,128.9788)"
           id="g122"><path
             id="path124"
             style="fill:#4b5da7;fill-opacity:1;fill-rule:nonzero;stroke:none"
             d="m 0,0 -1.434,6.325 -6.599,4.969 -7.516,-0.395 -5.164,-5.252 0,-6.494 5.795,-4.913 3.672,0 3.672,1.525 2.295,4.179 -1.262,4.969 -3.443,2.146 -3.155,-0.057 -2.812,-2.597 -0.115,-3.219 3.271,-2.711 c 0,0 2.295,0.17 2.295,0.339 0,0.17 0.402,1.638 0.143,1.638 -0.258,0 -1.692,0.395 -1.692,0.395 l -1.779,1.412 0.746,2.315 2.582,0.395 2.754,-2.202 0,-3.332 -1.492,-2.541 -4.877,-0.734 -4.303,3.784 0,5.703 4.418,3.897 6.082,-0.396 4.877,-4.517 0.287,-6.833 -4.361,-5.422 -6.139,-1.355 -8.09,3.445 L -24.5,0 l 1.377,8.132 7.344,6.324 8.377,0.565 5.91,-2.597 L 2.18,7.68 3.5,0.96 0,0 Z" /></g><g
           transform="translate(194.6806,118.8947)"
           id="g126"><path
             id="path128"
             style="fill:#4b5da7;fill-opacity:1;fill-rule:nonzero;stroke:none"
             d="m 0,0 c -0.151,0.258 -0.488,0.282 -0.79,0.282 l -0.976,0 0,-1.315 0.687,0 c 0.412,0 1.182,0.03 1.182,0.691 C 0.103,-0.216 0.062,-0.102 0,0 m 0.124,-2.823 c -0.262,0.414 -0.853,1.171 -1.114,1.46 l -0.776,0 0,-1.13 0.542,0 0,-0.33 -1.457,0 0,0.33 0.543,0 0,2.775 -0.543,0 0,0.331 2.014,0 c 0.818,0 1.141,-0.427 1.141,-0.943 0,-0.703 -0.605,-0.955 -1.052,-1.021 0.269,-0.295 0.667,-0.811 0.894,-1.142 l 0.694,0 0,-0.33 -0.886,0 z" /></g><g
           transform="translate(197.9061,118.4203)"
           id="g130"><path
             id="path132"
             style="fill:#4b5da7;fill-opacity:1;fill-rule:nonzero;stroke:none"
             d="m 0,0 c -0.777,0 -1.182,-0.402 -1.237,-0.757 l 2.399,0 C 1.162,-0.606 0.949,0 0,0 m 0.034,-2.42 c -1.203,0 -1.677,0.666 -1.677,1.375 0,0.829 0.729,1.381 1.643,1.381 1.106,0 1.567,-0.666 1.567,-1.423 l -2.818,0 0,-0.048 c 0,-0.318 0.206,-0.643 0.454,-0.781 0.261,-0.144 0.57,-0.18 0.893,-0.18 0.323,0 0.859,0.108 1.395,0.372 L 1.608,-2.042 C 1.162,-2.258 0.591,-2.42 0.034,-2.42" /></g><path
           id="path134"
           style="fill:#4b5da7;fill-opacity:1;fill-rule:nonzero;stroke:none"
           d="m 201.757,120 0.488,0 0,-0.739 -0.488,0 0,0.739 z m -1.1,-3.928 0,0.33 1.21,0 0,1.946 -1.044,0 0,0.331 1.422,0 0,-2.277 1.189,0 0,-0.33 -2.777,0 z" /><g
           transform="translate(206.2062,116)"
           id="g136"><path
             id="path138"
             style="fill:#4b5da7;fill-opacity:1;fill-rule:nonzero;stroke:none"
             d="m 0,0 c -0.866,0 -1.629,0.522 -1.629,1.411 0,0.547 0.474,1.346 1.663,1.346 0.399,0 0.729,-0.102 1.045,-0.289 l 0,0.289 0.378,0 0,-1.051 -0.378,0 0,0.414 c -0.296,0.216 -0.66,0.3 -1.052,0.3 -0.783,0 -1.278,-0.492 -1.278,-1.027 0,-0.39 0.296,-1.069 1.368,-1.069 0.557,0 1.093,0.348 1.264,0.481 L 1.533,0.474 C 1.127,0.198 0.639,0 0,0" /></g><g
           transform="translate(211.0675,117.273)"
           id="g140"><path
             id="path142"
             style="fill:#4b5da7;fill-opacity:1;fill-rule:nonzero;stroke:none"
             d="m 0,0 c -0.289,0.042 -0.577,0.078 -0.88,0.078 -0.323,0 -0.694,-0.012 -0.948,-0.168 -0.138,-0.084 -0.248,-0.216 -0.248,-0.379 0,-0.227 0.296,-0.474 0.715,-0.474 0.557,0 1.017,0.282 1.361,0.643 L 0,0 Z m 0.007,-1.201 0,0.505 c -0.378,-0.319 -0.852,-0.577 -1.375,-0.577 -0.701,0 -1.092,0.42 -1.092,0.811 0,0.354 0.364,0.877 1.491,0.877 0.33,0 0.667,-0.042 0.969,-0.084 l 0,0.185 c 0,0.199 -0.048,0.409 -0.227,0.505 -0.199,0.108 -0.426,0.126 -0.66,0.126 -0.467,0 -0.962,-0.162 -1.175,-0.252 l -0.096,0.324 c 0.399,0.144 0.873,0.265 1.34,0.265 0.584,0 0.928,-0.181 1.072,-0.415 0.103,-0.162 0.117,-0.33 0.117,-0.492 l 0,-1.448 0.564,0 0,-0.33 -0.928,0 z" /></g><g
           transform="translate(214.5749,116)"
           id="g144"><path
             id="path146"
             style="fill:#4b5da7;fill-opacity:1;fill-rule:nonzero;stroke:none"
             d="m 0,0 c -0.55,0 -0.886,0.132 -1.223,0.27 l 0,-0.27 -0.378,0 0,1.021 0.378,0 0,-0.354 c 0.33,-0.223 0.708,-0.337 1.141,-0.337 0.254,0 1.01,0.048 1.01,0.493 0,0.036 -0.014,0.132 -0.048,0.174 -0.186,0.228 -0.543,0.186 -0.846,0.21 -0.508,0.036 -1.037,0.012 -1.402,0.3 -0.13,0.102 -0.178,0.265 -0.178,0.415 0,0.516 0.494,0.835 1.251,0.835 0.385,0 0.756,-0.078 1.065,-0.241 l 0,0.241 0.371,0 0,-0.949 -0.371,0 0,0.354 c -0.289,0.162 -0.667,0.264 -1.045,0.264 -0.295,0 -0.9,-0.078 -0.9,-0.45 0,-0.108 0.075,-0.216 0.179,-0.277 C -0.68,1.525 -0.048,1.543 0.426,1.513 0.9,1.483 1.306,1.357 1.306,0.859 1.306,0.342 0.763,0 0,0" /></g><g
           transform="translate(218.5427,116)"
           id="g148"><path
             id="path150"
             style="fill:#4b5da7;fill-opacity:1;fill-rule:nonzero;stroke:none"
             d="m 0,0 c -0.357,0 -1.1,0.108 -1.1,0.786 l 0,1.562 -0.487,0 0,0.331 0.487,0 0,0.774 0.372,0 0,-0.774 1.773,0 0,-0.331 -1.773,0 0,-1.417 c 0,-0.187 0.054,-0.403 0.254,-0.493 0.186,-0.084 0.364,-0.108 0.55,-0.108 0.467,0 0.983,0.21 1.34,0.331 L 1.457,0.336 C 1.024,0.174 0.509,0 0,0" /></g><g
           transform="translate(128.0022,114.2243)"
           id="g152"><path
             id="path154"
             style="fill:#e6e6e6;fill-opacity:1;fill-rule:nonzero;stroke:none"
             d="m 0,0 c -7.596,0 -13.786,6.176 -13.786,13.776 0,7.604 6.19,13.785 13.786,13.785 7.6,0 13.777,-6.181 13.777,-13.785 C 13.777,6.176 7.6,0 0,0 m 0.001,59.776 c -25.364,0 -46.003,-20.651 -46.003,-46 0,-25.349 20.639,-46 46.003,-46 25.338,0 45.997,20.651 45.997,46 0,25.349 -20.659,46 -45.997,46" /></g><g
           transform="translate(128.0023,114.0049)"
           id="g156"><path
             id="path158"
             style="fill:#4b5da7;fill-opacity:1;fill-rule:nonzero;stroke:none"
             d="M 0,0 C -7.716,0 -14.005,6.275 -14.005,13.995 -14.005,21.721 -7.716,28 0,28 7.721,28 13.995,21.721 13.995,13.995 13.995,6.275 7.721,0 0,0 m 0,49.995 c -19.85,0 -36.002,-16.162 -36.002,-36 0,-19.838 16.152,-36 36.002,-36 19.83,0 35.998,16.162 35.998,36 0,19.838 -16.168,36 -35.998,36" /></g></g></g></g></svg>