<?xml version="1.0" encoding="UTF-8" standalone="no"?>
<svg
   xmlns:dc="http://purl.org/dc/elements/1.1/"
   xmlns:cc="http://creativecommons.org/ns#"
   xmlns:rdf="http://www.w3.org/1999/02/22-rdf-syntax-ns#"
   xmlns:svg="http://www.w3.org/2000/svg"
   xmlns="http://www.w3.org/2000/svg"
   viewBox="0 0 320 320"
   height="320"
   width="320"
   xml:space="preserve"
   version="1.1"
   id="svg2"><metadata
     id="metadata8"><rdf:RDF><cc:Work
         rdf:about=""><dc:format>image/svg+xml</dc:format><dc:type
           rdf:resource="http://purl.org/dc/dcmitype/StillImage" /></cc:Work></rdf:RDF></metadata><defs
     id="defs6"><clipPath
       id="clipPath16"
       clipPathUnits="userSpaceOnUse"><path
         id="path18"
         d="M 0,256 256,256 256,0 0,0 0,256 Z" /></clipPath><clipPath
       id="clipPath24"
       clipPathUnits="userSpaceOnUse"><path
         id="path26"
         d="M 4,212 252,212 252,48 4,48 4,212 Z" /></clipPath></defs><g
     transform="matrix(1.25,0,0,-1.25,0,320)"
     id="g10"><g
       id="g12"><g
         clip-path="url(#clipPath16)"
         id="g14"><g
           id="g20"><g
             id="g22" /><g
             id="g28"><g
               style="opacity:0.5"
               id="g30"
               clip-path="url(#clipPath24)"><g
                 id="g32"
                 transform="translate(239.1667,212)"><path
                   id="path34"
                   style="fill:#ffffff;fill-opacity:1;fill-rule:nonzero;stroke:none"
                   d="m 0,0 -222.333,0 c -7.077,0 -12.834,-5.75 -12.834,-12.818 l 0,-135.955 0,-0.5 0.062,-0.496 c 0.573,-4.568 4.416,-8.013 11.422,-10.241 8.325,-2.647 22.139,-3.989 41.061,-3.99 l 142.911,0 c 18.921,0.001 32.736,1.343 41.061,3.99 7.006,2.228 10.848,5.673 11.421,10.241 l 0.062,0.496 0,0.5 0,135.955 C 12.833,-5.75 7.076,0 0,0" /></g></g></g></g><g
           transform="translate(239.1667,204)"
           id="g36"><path
             id="path38"
             style="fill:#262626;fill-opacity:1;fill-rule:nonzero;stroke:none"
             d="m 0,0 -222.333,0 c -2.659,0 -4.834,-2.168 -4.834,-4.818 l 0,-135.955 c 0,0 0.906,-7.226 44.545,-7.227 l 142.911,0 c 43.638,0.001 44.544,7.227 44.544,7.227 l 0,135.955 C 4.833,-2.168 2.658,0 0,0" /></g><g
           transform="translate(211.7778,202.237)"
           id="g40"><path
             id="path42"
             style="fill:#191919;fill-opacity:1;fill-rule:nonzero;stroke:none"
             d="m 0,0 -165.542,0 0,-125.779 c 0,-2.67 2.164,-4.834 4.834,-4.834 l 155.875,0 c 2.669,0 4.833,2.164 4.833,4.834 L 0,0 Z" /></g><g
           transform="translate(208,204)"
           id="g44"><path
             id="path46"
             style="fill:#808080;fill-opacity:1;fill-rule:nonzero;stroke:none"
             d="M 0,0 0,-125.541 C 0,-126.897 -1.079,-128 -2.406,-128 l -155.188,0 c -1.327,0 -2.406,1.103 -2.406,2.459 L -160,0 0,0" /></g><g
           transform="translate(149.5266,96.919)"
           id="g48"><path
             id="path50"
             style="fill:#0000ff;fill-opacity:1;fill-rule:nonzero;stroke:none"
             d="m 0,0 -6.684,11.081 -29.685,0 L -43.053,0 l -58.474,0 0,-20.001 c 0,-0.507 0.43,-0.918 0.959,-0.918 l 158.083,0 c 0.529,0 0.958,0.411 0.958,0.918 L 58.473,0 0,0 Z" /></g><g
           transform="translate(125.8663,98.2242)"
           id="g52"><path
             id="path54"
             style="fill:#ffffff;fill-opacity:1;fill-rule:nonzero;stroke:none"
             d="m 0,0 -0.683,0 -0.853,1.634 0,-1.634 -0.683,0 0,2.287 1.024,0 L 0,0 Z M 0,3.186 C 0,2.983 -0.075,2.809 -0.225,2.666 -0.375,2.522 -0.527,2.451 -0.683,2.451 l -1.707,0 0,-2.451 -0.682,0 0,3.104 2.219,0 c 0.113,0 0.17,0.027 0.17,0.082 0,0.054 -0.057,0.082 -0.17,0.082 l -2.219,0 0,0.653 2.389,0 c 0.156,0 0.308,-0.073 0.458,-0.218 C -0.075,3.558 0,3.386 0,3.186 m 0.853,0 C 0.853,2.757 0.739,2.433 0.509,2.214 0.28,1.994 0.085,1.846 -0.074,1.77 L 0.853,0 0.171,0 l -1.195,2.287 0.341,0 c 0.201,0 0.394,0.088 0.578,0.264 0.184,0.177 0.276,0.388 0.276,0.635 0,0.243 -0.092,0.454 -0.276,0.632 -0.184,0.178 -0.377,0.266 -0.578,0.266 l -2.389,0 0,0.654 2.389,0 c 0.391,0 0.745,-0.152 1.061,-0.457 0.317,-0.305 0.475,-0.67 0.475,-1.095" /></g><g
           transform="translate(127.0611,101.4918)"
           id="g56"><path
             id="path58"
             style="fill:#ffffff;fill-opacity:1;fill-rule:nonzero;stroke:none"
             d="m 0,0 c 0,0.98 0.512,1.47 1.536,1.47 l 2.048,0 0,-0.653 -2.048,0 C 0.967,0.817 0.683,0.545 0.683,0 l 0,-1.797 c 0,-0.545 0.284,-0.817 0.853,-0.817 l 2.048,0 0,-0.654 -2.048,0 C 0.512,-3.268 0,-2.777 0,-1.797 L 0,0 Z" /></g><g
           transform="translate(127.9145,100.6749)"
           id="g60"><path
             id="path62"
             style="fill:#ffffff;fill-opacity:1;fill-rule:nonzero;stroke:none"
             d="M 0,0 0,0.817 C 0,1.253 0.228,1.47 0.683,1.47 l 2.048,0 0,-0.653 -1.878,0 c -0.113,0 -0.17,-0.055 -0.17,-0.163 l 1.536,0 L 2.219,0 0,0 Z" /></g><g
           transform="translate(127.9145,100.5115)"
           id="g64"><path
             id="path66"
             style="fill:#ffffff;fill-opacity:1;fill-rule:nonzero;stroke:none"
             d="m 0,0 2.219,0 0,-0.654 -1.536,0 c 0,-0.108 0.057,-0.163 0.17,-0.163 l 1.878,0 0,-0.653 -2.048,0 C 0.228,-1.47 0,-1.253 0,-0.817 L 0,0 Z" /></g><g
           transform="translate(133.0352,102.1453)"
           id="g68"><path
             id="path70"
             style="fill:#ffffff;fill-opacity:1;fill-rule:nonzero;stroke:none"
             d="m 0,0 1.878,0 0,-0.654 -1.195,0 0,-3.267 L 0,-3.921 0,0 Z m -0.171,0 0,-3.921 -0.682,0 0,3.267 -1.195,0 0,0.654 1.877,0 z m 2.049,0.163 -3.926,0 0,0.654 3.926,0 0,-0.654 z" /></g><g
           transform="translate(138.3265,98.2242)"
           id="g72"><path
             id="path74"
             style="fill:#ffffff;fill-opacity:1;fill-rule:nonzero;stroke:none"
             d="m 0,0 -0.683,0 -0.853,1.634 0,-1.634 -0.683,0 0,2.287 1.024,0 L 0,0 Z M 0,3.186 C 0,2.983 -0.075,2.809 -0.225,2.666 -0.375,2.522 -0.527,2.451 -0.683,2.451 l -1.707,0 0,-2.451 -0.682,0 0,3.104 2.219,0 c 0.113,0 0.17,0.027 0.17,0.082 0,0.054 -0.057,0.082 -0.17,0.082 l -2.219,0 0,0.653 2.389,0 c 0.156,0 0.308,-0.073 0.458,-0.218 C -0.075,3.558 0,3.386 0,3.186 m 0.853,0 C 0.853,2.757 0.739,2.433 0.509,2.214 0.28,1.994 0.085,1.846 -0.074,1.77 L 0.853,0 0.171,0 l -1.195,2.287 0.341,0 c 0.201,0 0.394,0.088 0.578,0.264 0.184,0.177 0.276,0.388 0.276,0.635 0,0.243 -0.092,0.454 -0.276,0.632 -0.184,0.178 -0.377,0.266 -0.578,0.266 l -2.389,0 0,0.654 2.389,0 c 0.391,0 0.745,-0.152 1.061,-0.457 0.317,-0.305 0.475,-0.67 0.475,-1.095" /></g><g
           transform="translate(141.7402,101.3284)"
           id="g76"><path
             id="path78"
             style="fill:#ffffff;fill-opacity:1;fill-rule:nonzero;stroke:none"
             d="m 0,0 c 0,0.109 -0.057,0.163 -0.171,0.163 l -0.341,0 C -0.626,0.163 -0.683,0.109 -0.683,0 l 0,-1.47 c 0,-0.109 0.057,-0.164 0.171,-0.164 l 0.341,0 C -0.057,-1.634 0,-1.579 0,-1.47 L 0,0 Z m 0.683,0.163 0,-1.797 C 0.683,-2.069 0.455,-2.287 0,-2.287 l -0.683,0 c -0.455,0 -0.682,0.218 -0.682,0.653 l 0,1.797 c 0,0.436 0.227,0.654 0.682,0.654 l 0.683,0 c 0.455,0 0.683,-0.218 0.683,-0.654 m 0.17,0 C 0.853,0.708 0.569,0.98 0,0.98 l -0.683,0 c -0.569,0 -0.853,-0.272 -0.853,-0.817 l 0,-1.797 c 0,-0.544 0.284,-0.817 0.853,-0.817 l 0.683,0 c 0.569,0 0.853,0.273 0.853,0.817 l 0,1.797 z m 0.683,0 0,-1.797 c 0,-0.98 -0.512,-1.47 -1.536,-1.47 l -0.683,0 c -1.024,0 -1.536,0.49 -1.536,1.47 l 0,1.797 c 0,0.981 0.512,1.471 1.536,1.471 l 0.683,0 c 1.024,0 1.536,-0.49 1.536,-1.471" /></g><g
           transform="translate(114.4305,99.6946)"
           id="g80"><path
             id="path82"
             style="fill:#ffffff;fill-opacity:1;fill-rule:nonzero;stroke:none"
             d="m 0,0 c -0.114,0 -0.171,0.054 -0.171,0.163 l 0,3.105 -1.536,0 0,-3.268 c 0,-0.98 0.512,-1.47 1.536,-1.47 l 2.049,0 0,1.47 L 0,0 Z" /></g><path
           id="path84"
           style="fill:#ffffff;fill-opacity:1;fill-rule:nonzero;stroke:none"
           d="m 116.649,98.224 1.536,0 0,4.738 -1.536,0 0,-4.738 z" /><g
           transform="translate(120.7457,101.3284)"
           id="g86"><path
             id="path88"
             style="fill:#ffffff;fill-opacity:1;fill-rule:nonzero;stroke:none"
             d="m 0,0 -0.683,0 0,0.163 0.683,0 C 0.114,0.163 0.171,0.136 0.171,0.082 0.171,0.027 0.114,0 0,0 m 0,-1.634 -0.683,0 0,0.164 0.683,0 c 0.114,0 0.171,-0.028 0.171,-0.082 C 0.171,-1.607 0.114,-1.634 0,-1.634 M 1.707,0.082 C 1.707,0.506 1.549,0.871 1.232,1.176 0.915,1.481 0.561,1.634 0.171,1.634 l -2.39,0 0,-4.738 2.39,0 c 0.39,0 0.744,0.152 1.061,0.457 0.317,0.305 0.475,0.67 0.475,1.095 0,0.308 -0.078,0.579 -0.233,0.811 0.155,0.233 0.233,0.507 0.233,0.823" /></g><path
           id="path90"
           style="fill:#ffffff;fill-opacity:1;fill-rule:nonzero;stroke:none"
           d="m 73.072,87.715 4.414,0 0,-6.76 -4.414,0 0,6.76 z m -10.594,0 4.414,0 0,-6.76 -4.414,0 0,6.76 z m -10.594,0 4.414,0 0,-6.76 -4.414,0 0,6.76 z m 0,0.845 0,2.535 23.836,0 c 1.177,0 1.766,-0.845 1.766,-2.535 l -25.602,0 z" /><g
           transform="translate(79.2512,83.4903)"
           id="g92"><path
             id="path94"
             style="fill:#ffffff;fill-opacity:1;fill-rule:nonzero;stroke:none"
             d="m 0,0 0,4.225 4.414,0 C 4.414,3.662 4.708,3.38 5.297,3.38 l 10.593,0 0,-2.535 -11.476,0 C 4.414,0.282 4.708,0 5.297,0 l 11.476,0 0,-2.535 -15.007,0 C 0.589,-2.535 0,-1.69 0,0 m 0,7.605 16.773,0 0,-2.535 L 0,5.07 0,7.605 Z" /></g><g
           transform="translate(97.79,83.4903)"
           id="g96"><path
             id="path98"
             style="fill:#ffffff;fill-opacity:1;fill-rule:nonzero;stroke:none"
             d="m 0,0 0,4.225 4.414,0 0,-4.225 8.828,0 c 0.589,0 0.883,0.141 0.883,0.423 0,0.281 -0.294,0.422 -0.883,0.422 l -5.297,0 0,2.535 7.945,0 c 1.766,0 2.649,-0.845 2.649,-2.535 l 0,-0.845 c 0,-1.69 -0.589,-2.535 -1.766,-2.535 l -15.007,0 C 0.589,-2.535 0,-1.69 0,0 m 0,5.07 c 0,1.69 0.589,2.535 1.766,2.535 l 15.89,0 0,-2.535 L 0,5.07 Z" /></g><g
           transform="translate(132.2192,80.9553)"
           id="g100"><path
             id="path102"
             style="fill:#ffffff;fill-opacity:1;fill-rule:nonzero;stroke:none"
             d="m 0,0 0,1.69 -8.828,0 0,2.535 8.828,0 0,2.535 4.414,0 L 4.414,0 0,0 Z m -14.125,6.76 4.414,0 0,-6.76 -4.414,0 0,6.76 z m 0,0.845 c 0,1.69 0.589,2.535 1.766,2.535 l 15.007,0 c 1.177,0 1.766,-0.845 1.766,-2.535 l -18.539,0 z" /></g><g
           transform="translate(144.8558,83.4903)"
           id="g104"><path
             id="path106"
             style="fill:#ffffff;fill-opacity:1;fill-rule:nonzero;stroke:none"
             d="m 0,0 0,4.225 4.414,0 0,-4.225 8.828,0 c 0.589,0 0.883,0.141 0.883,0.423 0,0.281 -0.294,0.422 -0.883,0.422 l -5.297,0 0,2.535 7.945,0 c 1.766,0 2.649,-0.845 2.649,-2.535 l 0,-0.845 c 0,-1.69 -0.589,-2.535 -1.766,-2.535 l -15.007,0 C 0.589,-2.535 0,-1.69 0,0 m 0,5.07 c 0,1.69 0.589,2.535 1.766,2.535 l 15.89,0 0,-2.535 L 0,5.07 Z" /></g><g
           transform="translate(165.1602,83.4903)"
           id="g108"><path
             id="path110"
             style="fill:#ffffff;fill-opacity:1;fill-rule:nonzero;stroke:none"
             d="m 0,0 0,4.225 4.414,0 C 4.414,3.662 4.708,3.38 5.297,3.38 l 10.593,0 0,-2.535 -11.476,0 C 4.414,0.282 4.708,0 5.297,0 l 11.476,0 0,-2.535 -15.007,0 C 0.589,-2.535 0,-1.69 0,0 m 0,7.605 16.773,0 0,-2.535 L 0,5.07 0,7.605 Z" /></g><path
           id="path112"
           style="fill:#ffffff;fill-opacity:1;fill-rule:nonzero;stroke:none"
           d="m 197.824,87.715 4.414,0 0,-6.76 -4.414,0 0,6.76 z m -14.125,0 4.414,0 0,-6.76 -4.414,0 0,6.76 z m 0,0.845 0,2.535 16.773,0 c 1.177,0 1.766,-0.845 1.766,-2.535 l -18.539,0 z" /><g
           transform="translate(163.9036,100.6761)"
           id="g114"><path
             id="path116"
             style="fill:#c2c2c2;fill-opacity:1;fill-rule:nonzero;stroke:none"
             d="m 0,0 0,0.538 1.936,0 c 0.143,0 0.214,0.059 0.214,0.179 l 0,0.359 1.076,0 0,-0.538 C 3.226,0.179 3.082,0 2.795,0 L 0,0 Z m -1.29,1.076 1.075,0 0,-1.435 -1.075,0 0,1.435 z m 0,0.179 c 0,0.359 0.143,0.538 0.43,0.538 l 3.655,0 c 0.287,0 0.431,-0.179 0.431,-0.538 l -4.516,0 z" /></g><path
           id="path118"
           style="fill:#000000;fill-opacity:1;fill-rule:nonzero;stroke:none"
           d="m 164.085,101.614 1.573,0 0,-0.082 -1.573,0 0,0.082 z m 2.614,1.173 -3.655,0 c -0.194,0 -0.826,-0.062 -0.826,-0.856 0,-0.031 0.005,-0.061 0.016,-0.089 -0.011,-0.029 -0.016,-0.059 -0.016,-0.09 l 0,-1.435 c 0,-0.175 0.177,-0.317 0.396,-0.317 l 1.075,0 c 0.219,0 0.396,0.142 0.396,0.317 l 0,0.042 2.614,0 c 0.194,0 0.826,0.061 0.826,0.855 l 0,0.538 c 0,0.031 -0.005,0.061 -0.016,0.09 0.011,0.028 0.016,0.058 0.016,0.089 0,0.794 -0.632,0.856 -0.826,0.856 m -3.01,-2.47 -1.075,0 0,1.435 1.075,0 0,-1.435 z m 3.44,1.435 0,-0.538 c 0,-0.359 -0.143,-0.538 -0.43,-0.538 l -2.795,0 0,0.538 1.935,0 c 0.144,0 0.215,0.06 0.215,0.179 l 0,0.359 1.075,0 m -0.43,0.718 c 0.287,0 0.43,-0.18 0.43,-0.539 l -4.515,0 c 0,0.359 0.143,0.539 0.43,0.539 l 3.655,0" /><g
           transform="translate(167.9896,100.3173)"
           id="g120"><path
             id="path122"
             style="fill:#c2c2c2;fill-opacity:1;fill-rule:nonzero;stroke:none"
             d="m 0,0 c -0.287,0 -0.43,0.179 -0.43,0.538 l 0,0.897 1.075,0 0,-0.717 c 0,-0.12 0.071,-0.18 0.215,-0.18 l 2.58,0 L 3.44,0 0,0 Z m 0.645,1.614 -1.075,0 0,0.539 1.075,0 0,-0.539 z" /></g><g
           transform="translate(168.6346,102.7869)"
           id="g124"><path
             id="path126"
             style="fill:#000000;fill-opacity:1;fill-rule:nonzero;stroke:none"
             d="m 0,0 -1.075,0 c -0.219,0 -0.396,-0.142 -0.396,-0.317 l 0,-0.539 c 0,-0.031 0.005,-0.061 0.016,-0.089 -0.011,-0.029 -0.016,-0.059 -0.016,-0.09 l 0,-0.897 c 0,-0.793 0.632,-0.855 0.826,-0.855 l 3.44,0 c 0.219,0 0.396,0.142 0.396,0.317 l 0,0.538 c 0,0.176 -0.177,0.318 -0.396,0.318 l -2.399,0 0,0.579 c 0,0.031 -0.006,0.061 -0.016,0.09 0.01,0.028 0.016,0.058 0.016,0.089 l 0,0.539 C 0.396,-0.142 0.219,0 0,0 m 0,-1.035 0,-0.717 c 0,-0.12 0.071,-0.18 0.215,-0.18 l 2.58,0 0,-0.538 -3.44,0 c -0.287,0 -0.43,0.18 -0.43,0.538 l 0,0.897 1.075,0 m 0,0.179 -1.075,0 0,0.539 1.075,0 0,-0.539 z" /></g><path
           id="path128"
           style="fill:#c2c2c2;fill-opacity:1;fill-rule:nonzero;stroke:none"
           d="m 175.301,102.47 1.075,0 0,-0.539 -1.075,0 0,0.539 z m -3.011,-2.153 c -0.286,0 -0.43,0.179 -0.43,0.538 l 0,0.897 1.075,0 0,-0.717 c 0,-0.12 0.072,-0.18 0.215,-0.18 l 1.936,0 c 0.143,0 0.215,0.06 0.215,0.18 l 0,0.717 1.075,0 0,-0.897 c 0,-0.359 -0.144,-0.538 -0.43,-0.538 l -3.656,0 z m 0.645,1.614 -1.075,0 0,0.539 1.075,0 0,-0.539 z" /><g
           transform="translate(176.3757,102.7869)"
           id="g130"><path
             id="path132"
             style="fill:#000000;fill-opacity:1;fill-rule:nonzero;stroke:none"
             d="m 0,0 -1.075,0 c -0.219,0 -0.396,-0.142 -0.396,-0.317 l 0,-0.539 c 0,-0.031 0.005,-0.061 0.016,-0.089 -0.011,-0.029 -0.016,-0.059 -0.016,-0.09 l 0,-0.579 -1.573,0 0,0.579 c 0,0.031 -0.006,0.061 -0.016,0.09 0.01,0.028 0.016,0.058 0.016,0.089 l 0,0.539 C -3.044,-0.142 -3.222,0 -3.44,0 l -1.076,0 c -0.218,0 -0.396,-0.142 -0.396,-0.317 l 0,-0.539 c 0,-0.031 0.006,-0.061 0.016,-0.089 -0.01,-0.029 -0.016,-0.059 -0.016,-0.09 l 0,-0.897 c 0,-0.793 0.633,-0.855 0.827,-0.855 l 3.655,0 c 0.194,0 0.826,0.062 0.826,0.855 l 0,0.897 c 0,0.031 -0.006,0.061 -0.016,0.09 0.01,0.028 0.016,0.058 0.016,0.089 l 0,0.539 C 0.396,-0.142 0.219,0 0,0 M 0,-1.035 0,-1.932 C 0,-2.29 -0.143,-2.47 -0.43,-2.47 l -3.655,0 c -0.287,0 -0.431,0.18 -0.431,0.538 l 0,0.897 1.076,0 0,-0.717 c 0,-0.12 0.071,-0.18 0.214,-0.18 l 1.936,0 c 0.143,0 0.215,0.06 0.215,0.18 l 0,0.717 1.075,0 m -3.44,0.179 -1.075,0 0,0.539 1.075,0 0,-0.539 z m 3.44,0 -1.075,0 0,0.539 1.075,0 0,-0.539 z" /></g><g
           transform="translate(176.8052,101.5729)"
           id="g134"><path
             id="path136"
             style="fill:#c2c2c2;fill-opacity:1;fill-rule:nonzero;stroke:none"
             d="m 0,0 0,0.179 1.075,0 C 1.075,0.059 1.147,0 1.29,0 l 2.581,0 c 0.43,0 0.645,-0.18 0.645,-0.538 l 0,-0.18 c 0,-0.358 -0.144,-0.538 -0.431,-0.538 l -4.085,0 0,0.538 3.226,0 c 0.143,0 0.214,0.03 0.214,0.09 0,0.06 -0.071,0.09 -0.214,0.09 l -2.796,0 C 0.143,-0.538 0,-0.359 0,0 m 0,0.358 c 0,0.359 0.143,0.539 0.43,0.539 l 3.871,0 0,-0.539 -4.301,0 z" /></g><g
           transform="translate(181.106,102.7869)"
           id="g138"><path
             id="path140"
             style="fill:#000000;fill-opacity:1;fill-rule:nonzero;stroke:none"
             d="m 0,0 -3.871,0 c -0.193,0 -0.826,-0.062 -0.826,-0.856 0,-0.031 0.006,-0.061 0.016,-0.089 -0.01,-0.029 -0.016,-0.059 -0.016,-0.09 l 0,-0.179 c 0,-0.213 0.046,-0.373 0.116,-0.493 -0.072,-0.058 -0.116,-0.137 -0.116,-0.225 l 0,-0.538 c 0,-0.175 0.177,-0.317 0.396,-0.317 l 4.086,0 c 0.193,0 0.826,0.062 0.826,0.855 l 0,0.18 c 0,0.295 -0.118,0.524 -0.332,0.671 0.072,0.057 0.117,0.137 0.117,0.225 l 0,0.539 C 0.396,-0.142 0.219,0 0,0 m -3.226,-1.035 c 0,-0.12 0.072,-0.179 0.215,-0.179 l 2.581,0 c 0.43,0 0.645,-0.18 0.645,-0.538 l 0,-0.18 c 0,-0.358 -0.144,-0.538 -0.43,-0.538 l -4.086,0 0,0.538 3.226,0 c 0.143,0 0.215,0.03 0.215,0.09 0,0.06 -0.072,0.09 -0.215,0.09 l -2.796,0 c -0.286,0 -0.43,0.179 -0.43,0.538 l 0,0.179 1.075,0 M 0,-0.317 l 0,-0.539 -4.301,0 c 0,0.359 0.144,0.539 0.43,0.539 l 3.871,0" /></g><g
           transform="translate(183.324,100.8552)"
           id="g142"><path
             id="path144"
             style="fill:#c2c2c2;fill-opacity:1;fill-rule:nonzero;stroke:none"
             d="m 0,0 0,0.897 1.075,0 0,-0.897 2.151,0 C 3.369,0 3.44,0.03 3.44,0.09 3.44,0.149 3.369,0.18 3.226,0.18 l -1.291,0 0,0.538 1.936,0 c 0.43,0 0.645,-0.18 0.645,-0.538 l 0,-0.18 c 0,-0.359 -0.144,-0.538 -0.431,-0.538 l -3.655,0 C 0.143,-0.538 0,-0.359 0,0 m 0,1.076 c 0,0.359 0.143,0.538 0.43,0.538 l 3.871,0 0,-0.538 -4.301,0 z" /></g><g
           transform="translate(184.7953,101.6138)"
           id="g146"><path
             id="path148"
             style="fill:#000000;fill-opacity:1;fill-rule:nonzero;stroke:none"
             d="M 0,0 0.071,0 C 0.069,-0.013 0.068,-0.027 0.068,-0.041 l 0,-0.4 L 0,-0.441 0,0 Z m 2.83,1.173 -3.871,0 c -0.194,0 -0.826,-0.062 -0.826,-0.856 0,-0.031 0.005,-0.061 0.016,-0.089 -0.011,-0.029 -0.016,-0.059 -0.016,-0.09 l 0,-0.897 c 0,-0.793 0.632,-0.855 0.826,-0.855 l 3.655,0 c 0.194,0 0.826,0.062 0.826,0.855 l 0,0.18 c 0,0.295 -0.117,0.524 -0.332,0.671 0.073,0.057 0.118,0.137 0.118,0.225 l 0,0.539 c 0,0.175 -0.178,0.317 -0.396,0.317 m -3.226,-1.035 0,-0.897 2.15,0 c 0.144,0 0.215,0.03 0.215,0.09 0,0.06 -0.071,0.09 -0.215,0.09 l -1.29,0 0,0.538 1.935,0 c 0.431,0 0.645,-0.18 0.645,-0.538 l 0,-0.18 c 0,-0.358 -0.143,-0.537 -0.43,-0.537 l -3.655,0 c -0.287,0 -0.43,0.179 -0.43,0.537 l 0,0.897 1.075,0 m 3.226,0.718 0,-0.539 -4.301,0 c 0,0.359 0.143,0.539 0.43,0.539 l 3.871,0" /></g><g
           transform="translate(192.1099,102.4696)"
           id="g150"><path
             id="path152"
             style="fill:#c2c2c2;fill-opacity:1;fill-rule:nonzero;stroke:none"
             d="m 0,0 1.29,0 -0.959,-0.539 -1.287,0 L 0,0 Z m -0.013,-2.152 -1.262,0.709 -1.263,-0.709 -1.289,0 1.907,1.073 -0.642,0.361 2.574,0 -0.642,-0.361 1.907,-1.073 -1.29,0 z M -2.882,-0.539 -3.84,0 l 1.29,0 0.955,-0.539 -1.287,0 z" /></g><g
           transform="translate(192.1218,101.4347)"
           id="g154"><path
             id="path156"
             style="fill:#000000;fill-opacity:1;fill-rule:nonzero;stroke:none"
             d="M 0,0 0.004,0 0,0 Z m 1.278,0.718 0.004,0 -0.004,0 z m 0,0.634 -1.29,0 c -0.081,0 -0.161,-0.02 -0.228,-0.058 L -1.195,0.756 C -1.231,0.736 -1.262,0.711 -1.287,0.684 -1.312,0.711 -1.343,0.736 -1.379,0.756 L -2.334,1.294 C -2.401,1.332 -2.48,1.352 -2.562,1.352 l -1.29,0 c -0.173,0 -0.326,-0.09 -0.378,-0.222 -0.052,-0.132 0.009,-0.275 0.151,-0.355 l 0.958,-0.538 c 0.056,-0.032 0.122,-0.051 0.19,-0.056 0.028,-0.049 0.072,-0.091 0.129,-0.123 l 0.181,-0.102 -1.446,-0.814 c -0.141,-0.079 -0.202,-0.223 -0.15,-0.355 0.052,-0.132 0.205,-0.222 0.378,-0.222 l 1.29,0 c 0.081,0 0.16,0.02 0.227,0.058 l 1.035,0.582 1.035,-0.582 c 0.067,-0.038 0.146,-0.058 0.227,-0.058 l 1.29,0 c 0.173,0 0.326,0.09 0.378,0.222 0.052,0.132 -0.009,0.276 -0.15,0.355 L 0.047,-0.044 0.228,0.058 C 0.285,0.09 0.329,0.132 0.357,0.181 0.425,0.186 0.491,0.205 0.547,0.237 L 1.505,0.775 C 1.647,0.855 1.708,0.998 1.656,1.13 1.604,1.262 1.451,1.352 1.278,1.352 M 0,0.317 l -0.642,-0.361 1.907,-1.073 -1.29,0 -1.262,0.709 -1.262,-0.709 -1.29,0 1.907,1.073 -0.642,0.361 2.574,0 m -2.562,0.718 0.956,-0.539 -1.287,0 -0.959,0.539 1.29,0 m 3.84,0 -0.958,-0.539 -1.287,0 0.955,0.539 1.29,0" /></g><g
           transform="translate(156.396,103.9247)"
           id="g158"><path
             id="path160"
             style="fill:#9bc2dd;fill-opacity:1;fill-rule:nonzero;stroke:none"
             d="m 0,0 0,2.684 1.826,1.074 4.868,0 -1.217,-0.805 -3.043,0 0,-2.148 1.826,0 0,0.537 -1.522,0 1.217,0.805 2.739,0 0,-1.342 L 5.477,0 0,0 Z" /></g><g
           transform="translate(163.0899,107.3654)"
           id="g162"><path
             id="path164"
             style="fill:#000000;fill-opacity:1;fill-rule:nonzero;stroke:none"
             d="M 0,0 0.004,0 0,0 Z m 0.004,0.635 -0.004,0 -4.868,0 c -0.085,0 -0.167,-0.022 -0.235,-0.062 L -6.928,-0.501 C -7.03,-0.56 -7.09,-0.655 -7.09,-0.756 l 0,-2.685 c 0,-0.175 0.177,-0.317 0.396,-0.317 l 5.477,0 c 0.092,0 0.181,0.026 0.252,0.073 l 1.217,0.805 c 0.091,0.06 0.144,0.15 0.144,0.245 l 0,1.342 c 0,0.175 -0.177,0.317 -0.396,0.317 l -2.738,0 c -0.092,0 -0.182,-0.026 -0.253,-0.073 l -0.873,-0.577 0,0.821 2.647,0 c 0.092,0 0.181,0.025 0.252,0.072 l 1.203,0.796 c 0.097,0.058 0.16,0.15 0.16,0.254 0,0.176 -0.175,0.318 -0.394,0.318 M 0,0.317 l -1.217,-0.805 -3.043,0 0,-2.147 1.826,0 0,0.536 -1.521,0 1.217,0.806 2.738,0 0,-1.342 -1.217,-0.806 -5.477,0 0,2.685 1.826,1.073 4.868,0 m 0,0 0.004,0" /></g><g
           transform="translate(163.3942,103.9247)"
           id="g166"><path
             id="path168"
             style="fill:#9bc2dd;fill-opacity:1;fill-rule:nonzero;stroke:none"
             d="m 0,0 0,2.684 1.826,1.074 4.868,0 -1.217,-0.805 -3.043,0 0,-0.806 3.043,0 -1.217,-0.805 -1.826,0 0,-0.537 4.26,0 L 5.477,0 0,0 Z" /></g><g
           transform="translate(170.0881,107.3654)"
           id="g170"><path
             id="path172"
             style="fill:#000000;fill-opacity:1;fill-rule:nonzero;stroke:none"
             d="M 0,0 0.004,0 0,0 Z m 0.004,0.635 -0.004,0 -4.868,0 c -0.085,0 -0.167,-0.022 -0.235,-0.062 L -6.928,-0.501 C -7.03,-0.56 -7.09,-0.655 -7.09,-0.756 l 0,-2.685 c 0,-0.175 0.177,-0.317 0.396,-0.317 l 5.477,0 c 0.092,0 0.181,0.026 0.252,0.073 l 1.217,0.805 c 0.129,0.085 0.177,0.226 0.121,0.352 -0.057,0.126 -0.206,0.21 -0.373,0.21 l -2.144,0 1.165,0.77 c 0.097,0.058 0.16,0.151 0.16,0.255 0,0.175 -0.175,0.317 -0.394,0.317 l -0.004,0 -2.647,0 0,0.171 2.647,0 c 0.092,0 0.181,0.025 0.252,0.072 l 1.203,0.796 c 0.097,0.058 0.16,0.15 0.16,0.254 0,0.176 -0.175,0.318 -0.394,0.318 m -1.221,-1.928 0.004,0 M 0,0.317 l -1.217,-0.805 -3.043,0 0,-0.805 3.043,0 -1.217,-0.806 -1.826,0 0,-0.536 4.26,0 -1.217,-0.806 -5.477,0 0,2.685 1.826,1.073 4.868,0 m 0,0 0.004,0" /></g><g
           transform="translate(169.7838,103.9247)"
           id="g174"><path
             id="path176"
             style="fill:#9bc2dd;fill-opacity:1;fill-rule:nonzero;stroke:none"
             d="m 0,0 0,3.758 2.434,0 1.826,-0.805 0,0.805 2.434,0 L 6.694,0 4.26,0 4.26,1.879 2.434,2.684 2.434,0 0,0 Z" /></g><g
           transform="translate(176.4777,108)"
           id="g178"><path
             id="path180"
             style="fill:#000000;fill-opacity:1;fill-rule:nonzero;stroke:none"
             d="M 0,0 -2.434,0 C -2.653,0 -2.83,-0.142 -2.83,-0.317 l 0,-0.269 -1.239,0.547 C -4.127,-0.014 -4.193,0 -4.26,0 L -6.694,0 C -6.913,0 -7.09,-0.142 -7.09,-0.317 l 0,-3.758 c 0,-0.176 0.177,-0.318 0.396,-0.318 l 2.434,0 c 0.219,0 0.396,0.142 0.396,0.318 l 0,2.147 1.034,-0.456 0,-1.691 c 0,-0.176 0.177,-0.318 0.396,-0.318 l 2.434,0 c 0.219,0 0.396,0.142 0.396,0.318 l 0,3.758 C 0.396,-0.142 0.219,0 0,0 m 0,-0.317 0,-3.758 -2.434,0 0,1.879 -1.826,0.805 0,-2.684 -2.434,0 0,3.758 2.434,0 1.826,-0.806 0,0.806 2.434,0" /></g><g
           transform="translate(176.7819,103.9247)"
           id="g182"><path
             id="path184"
             style="fill:#9bc2dd;fill-opacity:1;fill-rule:nonzero;stroke:none"
             d="m 0,0 0,2.684 1.826,1.074 4.868,0 -1.217,-0.805 -3.043,0 0,-0.806 3.043,0 -1.217,-0.805 -1.826,0 0,-0.537 4.26,0 L 5.477,0 0,0 Z" /></g><g
           transform="translate(183.4758,107.3654)"
           id="g186"><path
             id="path188"
             style="fill:#000000;fill-opacity:1;fill-rule:nonzero;stroke:none"
             d="M 0,0 0.004,0 0,0 Z m 0.004,0.635 -0.004,0 -4.868,0 c -0.085,0 -0.167,-0.022 -0.235,-0.062 L -6.928,-0.501 C -7.03,-0.56 -7.09,-0.655 -7.09,-0.756 l 0,-2.685 c 0,-0.175 0.177,-0.317 0.396,-0.317 l 5.477,0 c 0.092,0 0.181,0.026 0.252,0.073 l 1.217,0.805 c 0.129,0.085 0.177,0.226 0.121,0.352 -0.057,0.126 -0.206,0.21 -0.373,0.21 l -2.144,0 1.165,0.77 c 0.097,0.058 0.16,0.151 0.16,0.255 0,0.175 -0.175,0.317 -0.394,0.317 l -0.004,0 -2.647,0 0,0.171 2.647,0 c 0.092,0 0.181,0.025 0.252,0.072 l 1.203,0.796 c 0.097,0.058 0.16,0.15 0.16,0.254 0,0.176 -0.175,0.318 -0.394,0.318 m -1.221,-1.928 0.004,0 M 0,0.317 l -1.217,-0.805 -3.043,0 0,-0.805 3.043,0 -1.217,-0.806 -1.826,0 0,-0.536 4.26,0 -1.217,-0.806 -5.477,0 0,2.685 1.826,1.073 4.868,0 m 0,0 0.004,0" /></g><g
           transform="translate(183.1716,105.2668)"
           id="g190"><path
             id="path192"
             style="fill:#9bc2dd;fill-opacity:1;fill-rule:nonzero;stroke:none"
             d="m 0,0 0,1.342 1.826,1.074 4.868,0 -1.217,-0.805 -3.043,0 0,-0.806 4.26,0 0,-1.342 -1.217,-0.805 -5.477,0 1.217,0.805 3.043,0 L 4.26,0 0,0 Z" /></g><g
           transform="translate(189.8654,107.3654)"
           id="g194"><path
             id="path196"
             style="fill:#000000;fill-opacity:1;fill-rule:nonzero;stroke:none"
             d="M 0,0 0.004,0 0,0 Z m 0.004,0.635 -0.004,0 -4.868,0 c -0.085,0 -0.167,-0.022 -0.235,-0.062 L -6.928,-0.501 C -7.03,-0.56 -7.09,-0.655 -7.09,-0.756 l 0,-1.343 c 0,-0.175 0.177,-0.317 0.396,-0.317 l 0.927,0 -1.179,-0.78 c -0.129,-0.085 -0.177,-0.226 -0.121,-0.352 0.057,-0.126 0.206,-0.21 0.373,-0.21 l 5.477,0 c 0.092,0 0.181,0.026 0.252,0.073 l 1.217,0.805 c 0.091,0.06 0.144,0.15 0.144,0.245 l 0,1.342 c 0,0.175 -0.177,0.317 -0.396,0.317 l -3.864,0 0,0.171 2.647,0 c 0.092,0 0.181,0.025 0.252,0.072 l 1.203,0.796 c 0.097,0.058 0.16,0.15 0.16,0.254 0,0.176 -0.175,0.318 -0.394,0.318 M 0,0.317 l -1.217,-0.805 -3.043,0 0,-0.805 4.26,0 0,-1.342 -1.217,-0.806 -5.477,0 1.217,0.806 3.043,0 0,0.536 -4.26,0 0,1.343 1.826,1.073 4.868,0 m 0,0 0.004,0" /></g><path
           id="path198"
           style="fill:#9bc2dd;fill-opacity:1;fill-rule:nonzero;stroke:none"
           d="m 190.17,107.683 2.434,0 0,-3.758 -2.434,0 0,3.758 z" /><g
           transform="translate(192.6038,108)"
           id="g200"><path
             id="path202"
             style="fill:#000000;fill-opacity:1;fill-rule:nonzero;stroke:none"
             d="M 0,0 -2.434,0 C -2.653,0 -2.83,-0.142 -2.83,-0.317 l 0,-3.758 c 0,-0.176 0.177,-0.318 0.396,-0.318 l 2.434,0 c 0.219,0 0.396,0.142 0.396,0.318 l 0,3.758 C 0.396,-0.142 0.219,0 0,0 m 0,-4.075 -2.434,0 0,3.758 2.434,0 0,-3.758 z" /></g><g
           transform="translate(192.9081,105.2668)"
           id="g204"><path
             id="path206"
             style="fill:#9bc2dd;fill-opacity:1;fill-rule:nonzero;stroke:none"
             d="m 0,0 0,1.342 1.826,1.074 4.868,0 -1.217,-0.805 -3.043,0 0,-0.806 4.26,0 0,-1.342 -1.217,-0.805 -5.477,0 1.217,0.805 3.043,0 L 4.26,0 0,0 Z" /></g><g
           transform="translate(199.602,107.3654)"
           id="g208"><path
             id="path210"
             style="fill:#000000;fill-opacity:1;fill-rule:nonzero;stroke:none"
             d="M 0,0 0.004,0 0,0 Z m 0.004,0.635 -0.004,0 -4.868,0 c -0.085,0 -0.167,-0.022 -0.235,-0.062 L -6.928,-0.501 C -7.03,-0.56 -7.09,-0.655 -7.09,-0.756 l 0,-1.343 c 0,-0.175 0.177,-0.317 0.396,-0.317 l 0.927,0 -1.179,-0.78 c -0.129,-0.085 -0.177,-0.226 -0.121,-0.352 0.057,-0.126 0.206,-0.21 0.373,-0.21 l 5.477,0 c 0.092,0 0.181,0.026 0.252,0.073 l 1.217,0.805 c 0.091,0.06 0.144,0.15 0.144,0.245 l 0,1.342 c 0,0.175 -0.177,0.317 -0.396,0.317 l -3.864,0 0,0.171 2.647,0 c 0.092,0 0.181,0.025 0.252,0.072 l 1.203,0.796 c 0.097,0.058 0.16,0.15 0.16,0.254 0,0.176 -0.175,0.318 -0.394,0.318 M 0,0.317 l -1.217,-0.805 -3.043,0 0,-0.805 4.26,0 0,-1.342 -1.217,-0.806 -5.477,0 1.217,0.806 3.043,0 0,0.536 -4.26,0 0,1.343 1.826,1.073 4.868,0 m 0,0 0.004,0" /></g><g
           transform="translate(82.1992,101.8947)"
           id="g212"><path
             id="path214"
             style="fill:#ffffff;fill-opacity:1;fill-rule:nonzero;stroke:none"
             d="m 0,0 -0.551,-0.958 c -0.043,-0.063 -0.108,-0.095 -0.194,-0.095 l -1.814,0 0,2.316 1.814,0 c 0.086,0 0.151,-0.035 0.194,-0.105 L 0,0.211 0.032,0.105 0,0 Z M 1.555,0.211 0.551,1.895 c -0.087,0.14 -0.195,0.21 -0.324,0.21 l -4.341,0 0,-4 4.341,0 c 0.129,0 0.237,0.07 0.324,0.211 L 1.555,0 1.587,0.105 1.555,0.211 Z" /></g><g
           transform="translate(84.3047,104)"
           id="g216"><path
             id="path218"
             style="fill:#ffffff;fill-opacity:1;fill-rule:nonzero;stroke:none"
             d="M 0,0 4.146,0 C 4.276,0 4.384,-0.07 4.47,-0.211 L 5.151,-1.368 5.183,-1.474 5.151,-1.579 4.146,-2.526 5.183,-4 l -1.555,0 -1.49,2 0.777,0 c 0.087,0 0.152,0.018 0.195,0.053 l 0.518,0.473 -0.259,0.527 c -0.043,0.07 -0.108,0.105 -0.194,0.105 l -1.62,0 L 1.555,-4 0,-4 0,0 Z" /></g><g
           transform="translate(91.5609,100)"
           id="g220"><path
             id="path222"
             style="fill:#ffffff;fill-opacity:1;fill-rule:nonzero;stroke:none"
             d="m 0,0 -1.555,0 0,4 L 0,4 0,0 Z" /></g><g
           transform="translate(63.4228,100)"
           id="g224"><path
             id="path226"
             style="fill:#0000ff;fill-opacity:1;fill-rule:nonzero;stroke:none"
             d="m 0,0 -1.555,0 0,4 L 0,4 0,0 Z" /></g><g
           transform="translate(93.6341,102.6842)"
           id="g228"><path
             id="path230"
             style="fill:#ffffff;fill-opacity:1;fill-rule:nonzero;stroke:none"
             d="M 0,0 1.555,-1.842 3.11,0 l 0,1.316 1.555,0 0,-1.474 c 0,-0.14 -0.022,-0.246 -0.065,-0.316 l -1.749,-2.21 -2.592,0 -1.749,2.21 c -0.043,0.07 -0.065,0.176 -0.065,0.316 l 0,1.474 L 0,1.316 0,0 Z" /></g><g
           transform="translate(100.3719,101.5789)"
           id="g232"><path
             id="path234"
             style="fill:#ffffff;fill-opacity:1;fill-rule:nonzero;stroke:none"
             d="m 0,0 0,-0.737 3.628,0 0,-0.842 -5.183,0 0,2.632 c 0,0.07 0.022,0.14 0.065,0.21 l 0.713,1.053 c 0.043,0.07 0.129,0.105 0.259,0.105 l 4.146,0 0,-0.842 -3.11,0 C 0.432,1.579 0.367,1.544 0.324,1.474 L 0,0.842 3.628,0.842 3.11,0 0,0 Z" /></g><g
           transform="translate(58.9154,102)"
           id="g236"><path
             id="path238"
             style="fill:#0000ff;fill-opacity:1;fill-rule:nonzero;stroke:none"
             d="m 0,0 -0.777,0 0.308,-0.414 c 0.05,-0.067 0.14,-0.108 0.236,-0.108 l 1.342,0 c 0.08,0 0.157,0.028 0.209,0.078 L 2.235,0.421 2.268,0.526 2.235,0.632 1.555,1.789 C 1.468,1.93 1.361,2 1.231,2 l -4.146,0 0,-4 1.554,0 0,3.158 1.62,0 c 0.087,0 0.151,-0.035 0.195,-0.105 L 0.713,0.526 0.194,0.053 C 0.151,0.018 0.086,0 0,0" /></g><g
           transform="translate(69.5198,100.8424)"
           id="g240"><path
             id="path242"
             style="fill:#0000ff;fill-opacity:1;fill-rule:nonzero;stroke:none"
             d="m 0,0 -1.304,0 0,0 -2.609,0 0,1.579 0.326,0.631 c 0.043,0.07 0.109,0.106 0.196,0.106 l 3.391,0 0,0.842 -4.435,0 c -0.13,0 -0.217,-0.035 -0.261,-0.106 L -5.413,2 C -5.457,1.93 -5.478,1.859 -5.478,1.789 l 0,-2.421 c 0,-0.14 0.087,-0.21 0.26,-0.21 L 0,-0.842 0,0 Z" /></g><g
           transform="translate(74.6452,101.8947)"
           id="g244"><path
             id="path246"
             style="fill:#0000ff;fill-opacity:1;fill-rule:nonzero;stroke:none"
             d="m 0,0 -0.551,-0.958 c -0.043,-0.063 -0.108,-0.095 -0.194,-0.095 l -0.168,0 -1.441,0 -0.167,0 c -0.087,0 -0.151,0.032 -0.195,0.095 L -3.266,0 l -0.033,0.105 0.033,0.106 0.55,0.947 c 0.044,0.07 0.108,0.105 0.195,0.105 l 0.167,0 1.441,0 0.168,0 c 0.086,0 0.151,-0.035 0.194,-0.105 L 0,0.211 0.032,0.105 0,0 Z M 1.555,0.211 0.551,1.895 c -0.087,0.14 -0.195,0.21 -0.324,0.21 l -3.72,0 c -0.13,0 -0.238,-0.07 -0.324,-0.21 L -4.821,0.211 -4.854,0.105 -4.821,0 -3.817,-1.684 c 0.086,-0.141 0.194,-0.211 0.324,-0.211 l 3.72,0 c 0.129,0 0.237,0.07 0.324,0.211 L 1.555,0 1.587,0.105 1.555,0.211 Z" /></g></g></g></g></svg>