<?xml version="1.0" encoding="UTF-8" standalone="no"?>
<svg
   xmlns:dc="http://purl.org/dc/elements/1.1/"
   xmlns:cc="http://creativecommons.org/ns#"
   xmlns:rdf="http://www.w3.org/1999/02/22-rdf-syntax-ns#"
   xmlns:svg="http://www.w3.org/2000/svg"
   xmlns="http://www.w3.org/2000/svg"
   viewBox="0 0 320 320"
   height="320"
   width="320"
   xml:space="preserve"
   version="1.1"
   id="svg2"><metadata
     id="metadata8"><rdf:RDF><cc:Work
         rdf:about=""><dc:format>image/svg+xml</dc:format><dc:type
           rdf:resource="http://purl.org/dc/dcmitype/StillImage" /></cc:Work></rdf:RDF></metadata><defs
     id="defs6"><clipPath
       id="clipPath16"
       clipPathUnits="userSpaceOnUse"><path
         id="path18"
         d="M 0,256 256,256 256,0 0,0 0,256 Z" /></clipPath><clipPath
       id="clipPath24"
       clipPathUnits="userSpaceOnUse"><path
         id="path26"
         d="M 4,252 252,252 252,4 4,4 4,252 Z" /></clipPath></defs><g
     transform="matrix(1.25,0,0,-1.25,0,320)"
     id="g10"><g
       id="g12"><g
         clip-path="url(#clipPath16)"
         id="g14"><g
           id="g20"><g
             id="g22" /><g
             id="g28"><g
               style="opacity:0.5"
               id="g30"
               clip-path="url(#clipPath24)"><g
                 id="g32"
                 transform="translate(128,108)"><path
                   id="path34"
                   style="fill:#ffffff;fill-opacity:1;fill-rule:nonzero;stroke:none"
                   d="m 0,0 c -11.046,0 -20,8.954 -20,20 0,11.046 8.954,20 20,20 C 11.046,40 20,31.046 20,20 20,8.954 11.046,0 0,0 M 87.676,107.682 C 64.254,131.102 33.116,144 0,144 -33.124,144 -64.264,131.102 -87.683,107.681 -111.103,84.262 -124,53.122 -124,20 c 0,-33.122 12.897,-64.262 36.317,-87.681 C -64.264,-91.102 -33.124,-104 0,-104 c 33.116,0 64.254,12.898 87.676,36.318 C 111.1,-44.26 124,-13.12 124,20 c 0,33.12 -12.9,64.26 -36.324,87.682" /></g></g></g></g><g
           transform="translate(127.9984,114)"
           id="g36"><path
             id="path38"
             style="fill:#bfbfbf;fill-opacity:1;fill-rule:nonzero;stroke:none"
             d="m 0,0 c -7.721,0 -14.001,6.281 -14.001,14 0,7.719 6.28,14 14.001,14 C 7.72,28 13.999,21.719 13.999,14 13.999,6.281 7.72,0 0,0 m 0.002,130 c -64.071,0 -116,-51.934 -116,-116 0,-64.066 51.929,-116 116,-116 64.051,0 116,51.934 116,116 0,64.066 -51.949,116 -116,116" /></g><path
           id="path40"
           style="fill:#e6e6e6;fill-opacity:1;fill-rule:nonzero;stroke:none"
           d="m 240,112 -56,0 0,32 56,0 0,-32 z" /><path
           id="path42"
           style="fill:#f39b11;fill-opacity:1;fill-rule:nonzero;stroke:none"
           d="m 212,120 -28,0 0,8 28,0 0,-8 z" /><g
           transform="translate(208.6478,132)"
           id="g44"><path
             id="path46"
             style="fill:#f39b11;fill-opacity:1;fill-rule:nonzero;stroke:none"
             d="m 0,0 -1.073,0 -1.34,2.759 0,-2.759 -1.073,0 0,3.862 1.609,0 L 0,0 Z M 0,5.379 C 0,5.036 -0.118,4.743 -0.353,4.501 -0.588,4.259 -0.828,4.138 -1.073,4.138 l -2.681,0 0,-4.138 -1.073,0 0,5.241 3.486,0 c 0.179,0 0.268,0.046 0.268,0.138 0,0.092 -0.089,0.138 -0.268,0.138 l -3.486,0 0,1.104 3.754,0 c 0.245,0 0.485,-0.123 0.72,-0.368 C -0.118,6.008 0,5.716 0,5.379 m 1.341,0 C 1.341,4.656 1.161,4.109 0.8,3.738 0.439,3.367 0.134,3.117 -0.116,2.989 L 1.341,0 0.268,0 l -1.877,3.862 0.536,0 c 0.316,0 0.619,0.149 0.908,0.446 0.289,0.297 0.433,0.654 0.433,1.071 0,0.411 -0.144,0.767 -0.433,1.067 -0.289,0.3 -0.592,0.451 -0.908,0.451 l -3.754,0 0,1.103 3.754,0 C -0.459,8 0.097,7.743 0.594,7.228 1.092,6.713 1.341,6.097 1.341,5.379" /></g><g
           transform="translate(210.5249,137.5172)"
           id="g48"><path
             id="path50"
             style="fill:#f39b11;fill-opacity:1;fill-rule:nonzero;stroke:none"
             d="m 0,0 c 0,1.655 0.804,2.483 2.413,2.483 l 3.218,0 0,-1.104 -3.218,0 C 1.52,1.379 1.073,0.92 1.073,0 l 0,-3.034 c 0,-0.92 0.447,-1.38 1.34,-1.38 l 3.218,0 0,-1.103 -3.218,0 C 0.804,-5.517 0,-4.69 0,-3.034 L 0,0 Z" /></g><g
           transform="translate(211.8657,136.1379)"
           id="g52"><path
             id="path54"
             style="fill:#f39b11;fill-opacity:1;fill-rule:nonzero;stroke:none"
             d="m 0,0 0,1.379 c 0,0.736 0.358,1.104 1.073,1.104 l 3.218,0 0,-1.104 -2.95,0 C 1.162,1.379 1.073,1.287 1.073,1.103 l 2.413,0 L 3.486,0 0,0 Z" /></g><g
           transform="translate(211.8657,135.8621)"
           id="g56"><path
             id="path58"
             style="fill:#f39b11;fill-opacity:1;fill-rule:nonzero;stroke:none"
             d="m 0,0 3.486,0 0,-1.103 -2.413,0 c 0,-0.184 0.089,-0.276 0.268,-0.276 l 2.95,0 0,-1.104 -3.218,0 C 0.358,-2.483 0,-2.115 0,-1.379 L 0,0 Z" /></g><g
           transform="translate(219.9105,138.6207)"
           id="g60"><path
             id="path62"
             style="fill:#f39b11;fill-opacity:1;fill-rule:nonzero;stroke:none"
             d="m 0,0 2.95,0 0,-1.103 -1.877,0 0,-5.518 L 0,-6.621 0,0 Z m -0.268,0 0,-6.621 -1.073,0 0,5.518 -1.877,0 0,1.103 2.95,0 z m 3.218,0.276 -6.168,0 0,1.103 6.168,0 0,-1.103 z" /></g><g
           transform="translate(228.2234,132)"
           id="g64"><path
             id="path66"
             style="fill:#f39b11;fill-opacity:1;fill-rule:nonzero;stroke:none"
             d="m 0,0 -1.073,0 -1.34,2.759 0,-2.759 -1.073,0 0,3.862 1.609,0 L 0,0 Z M 0,5.379 C 0,5.036 -0.118,4.743 -0.353,4.501 -0.588,4.259 -0.828,4.138 -1.073,4.138 l -2.681,0 0,-4.138 -1.073,0 0,5.241 3.486,0 c 0.179,0 0.268,0.046 0.268,0.138 0,0.092 -0.089,0.138 -0.268,0.138 l -3.486,0 0,1.104 3.754,0 c 0.245,0 0.485,-0.123 0.72,-0.368 C -0.118,6.008 0,5.716 0,5.379 m 1.341,0 C 1.341,4.656 1.161,4.109 0.8,3.738 0.439,3.367 0.134,3.117 -0.116,2.989 L 1.341,0 0.268,0 l -1.877,3.862 0.536,0 c 0.316,0 0.619,0.149 0.908,0.446 0.289,0.297 0.433,0.654 0.433,1.071 0,0.411 -0.144,0.767 -0.433,1.067 -0.289,0.3 -0.592,0.451 -0.908,0.451 l -3.754,0 0,1.103 3.754,0 C -0.459,8 0.097,7.743 0.594,7.228 1.092,6.713 1.341,6.097 1.341,5.379" /></g><g
           transform="translate(233.5866,137.2414)"
           id="g68"><path
             id="path70"
             style="fill:#f39b11;fill-opacity:1;fill-rule:nonzero;stroke:none"
             d="m 0,0 c 0,0.184 -0.089,0.276 -0.268,0.276 l -0.536,0 C -0.983,0.276 -1.073,0.184 -1.073,0 l 0,-2.483 c 0,-0.184 0.09,-0.276 0.269,-0.276 l 0.536,0 C -0.089,-2.759 0,-2.667 0,-2.483 L 0,0 Z m 1.073,0.276 0,-3.035 C 1.073,-3.494 0.715,-3.862 0,-3.862 l -1.073,0 c -0.715,0 -1.072,0.368 -1.072,1.103 l 0,3.035 c 0,0.735 0.357,1.103 1.072,1.103 l 1.073,0 c 0.715,0 1.073,-0.368 1.073,-1.103 m 0.268,0 C 1.341,1.195 0.894,1.655 0,1.655 l -1.073,0 c -0.894,0 -1.34,-0.46 -1.34,-1.379 l 0,-3.035 c 0,-0.919 0.446,-1.379 1.34,-1.379 l 1.073,0 c 0.894,0 1.341,0.46 1.341,1.379 l 0,3.035 z m 1.072,0 0,-3.035 C 2.413,-4.414 1.609,-5.241 0,-5.241 l -1.073,0 c -1.609,0 -2.413,0.827 -2.413,2.482 l 0,3.035 c 0,1.655 0.804,2.483 2.413,2.483 l 1.073,0 c 1.609,0 2.413,-0.828 2.413,-2.483" /></g><g
           transform="translate(189.1706,133.855)"
           id="g72"><path
             id="path74"
             style="fill:#f39b11;fill-opacity:1;fill-rule:nonzero;stroke:none"
             d="M 0,0 C -0.008,0.024 -0.014,0.051 -0.021,0.076 L 0,0.076 0,0 Z m 1.511,0.628 c -0.179,0 -0.268,0.092 -0.268,0.276 l 0,5.241 -2.414,0 0,-5.517 c 0,-1.655 0.805,-2.483 2.414,-2.483 l 3.218,0 0,2.483 -2.95,0 z" /></g><path
           id="path76"
           style="fill:#f39b11;fill-opacity:1;fill-rule:nonzero;stroke:none"
           d="m 194.167,132 2.413,0 0,8 -2.413,0 0,-8 z" /><g
           transform="translate(200.6031,137.2414)"
           id="g78"><path
             id="path80"
             style="fill:#f39b11;fill-opacity:1;fill-rule:nonzero;stroke:none"
             d="m 0,0 -1.073,0 0,0.276 1.073,0 C 0.179,0.276 0.268,0.23 0.268,0.138 0.268,0.046 0.179,0 0,0 m 0,-2.759 -1.073,0 0,0.276 1.073,0 c 0.179,0 0.268,-0.046 0.268,-0.138 C 0.268,-2.713 0.179,-2.759 0,-2.759 M 2.682,0.138 C 2.682,0.855 2.433,1.471 1.935,1.986 1.438,2.501 0.882,2.759 0.268,2.759 l -3.754,0 0,-8 3.754,0 c 0.614,0 1.17,0.257 1.667,0.772 0.498,0.515 0.747,1.131 0.747,1.848 0,0.521 -0.123,0.978 -0.367,1.37 0.244,0.393 0.367,0.856 0.367,1.389" /></g><g
           transform="translate(216,120.0004)"
           id="g82"><path
             id="path84"
             style="fill:#f39b11;fill-opacity:1;fill-rule:nonzero;stroke:none"
             d="M 0,0 C 0.895,0.364 1.221,1.165 1.539,2.013 2.081,3.463 2.672,4.891 3.246,6.327 3.609,7.237 3.611,7.235 2.807,7.858 4.522,7.961 6.149,8.17 7.762,7.736 8.609,7.507 9.224,6.972 9.438,5.908 8.878,5.881 8.369,5.857 7.839,5.831 7.784,6.072 7.741,6.28 7.691,6.486 7.523,7.177 7.054,7.647 6.45,7.731 5.889,7.809 5.238,7.444 4.976,6.813 4.212,4.97 3.466,3.117 2.743,1.255 2.655,1.028 2.654,0.615 2.784,0.474 2.938,0.306 3.295,0.247 3.535,0.298 5.278,0.665 6.484,1.767 7.209,3.522 7.681,4.666 7.848,4.701 8.934,3.975 8.824,3.742 8.725,3.491 8.594,3.262 7.455,1.274 5.91,0.002 3.654,0 2.436,-0.001 1.218,0 0,0" /></g><g
           transform="translate(235.4667,126.2965)"
           id="g86"><path
             id="path88"
             style="fill:#f39b11;fill-opacity:1;fill-rule:nonzero;stroke:none"
             d="m 0,0 c -0.103,0.193 -0.23,0.377 -0.304,0.581 -0.225,0.617 -0.67,0.942 -1.261,0.771 -0.656,-0.191 -1.37,-0.414 -1.88,-0.85 -1.353,-1.154 -2.023,-2.758 -2.281,-4.529 -0.158,-1.086 0.321,-1.709 1.27,-1.891 0.569,-0.11 1.021,0.064 1.252,0.596 0.277,0.638 0.523,1.305 0.66,1.986 0.042,0.208 -0.319,0.504 -0.499,0.765 0.239,0.212 1.868,0.3 3.164,0.125 C 0.12,-2.483 0.134,-2.546 0.118,-2.555 -0.799,-3.109 -1.265,-3.951 -1.571,-5 -1.692,-5.416 -2.269,-5.805 -2.72,-5.976 -3.833,-6.4 -4.996,-6.396 -6.134,-6.007 c -0.908,0.312 -1.278,0.849 -1.328,1.845 -0.047,0.948 0.233,1.801 0.705,2.593 1.4,2.348 4.316,3.683 6.943,3.159 C 0.329,1.561 0.551,1.298 0.532,1.176 0.472,0.781 0.318,0.401 0.2,0.015 0.133,0.01 0.067,0.005 0,0" /></g><g
           transform="translate(221.7452,124.9655)"
           id="g90"><path
             id="path92"
             style="fill:#f39b11;fill-opacity:1;fill-rule:nonzero;stroke:none"
             d="M 0,0 C 1.775,0.321 3.419,0.707 5.114,0.432 5.29,0.403 5.47,0.363 5.636,0.294 6.258,0.032 6.445,-0.393 6.042,-0.959 5.509,-1.708 4.875,-2.377 4.246,-3.038 3.847,-3.457 3.378,-3.798 2.878,-4.111 3.2,-3.676 3.552,-3.261 3.84,-2.801 4.643,-1.517 4.368,-0.658 2.97,-0.338 2.041,-0.126 1.073,-0.114 0,0" /></g><g
           transform="translate(68.5,128.9788)"
           id="g94"><path
             id="path96"
             style="fill:#f39b11;fill-opacity:1;fill-rule:nonzero;stroke:none"
             d="m 0,0 -1.434,6.325 -6.599,4.969 -7.516,-0.395 -5.164,-5.252 0,-6.494 5.795,-4.913 3.672,0 3.672,1.525 2.295,4.179 -1.262,4.969 -3.443,2.146 -3.155,-0.057 -2.812,-2.597 -0.115,-3.219 3.271,-2.711 c 0,0 2.295,0.17 2.295,0.339 0,0.17 0.402,1.638 0.143,1.638 -0.258,0 -1.692,0.395 -1.692,0.395 l -1.779,1.412 0.746,2.315 2.582,0.395 2.754,-2.202 0,-3.332 -1.492,-2.541 -4.877,-0.734 -4.303,3.784 0,5.703 4.418,3.897 6.082,-0.396 4.877,-4.517 0.287,-6.833 -4.361,-5.422 -6.139,-1.355 -8.09,3.445 L -24.5,0 l 1.377,8.132 7.344,6.324 8.377,0.565 5.91,-2.597 L 2.18,7.68 3.5,0.96 0,0 Z" /></g><g
           transform="translate(46.6806,118.8947)"
           id="g98"><path
             id="path100"
             style="fill:#f39b11;fill-opacity:1;fill-rule:nonzero;stroke:none"
             d="m 0,0 c -0.151,0.258 -0.488,0.282 -0.79,0.282 l -0.976,0 0,-1.315 0.687,0 c 0.412,0 1.182,0.03 1.182,0.691 C 0.103,-0.216 0.062,-0.102 0,0 m 0.124,-2.823 c -0.262,0.414 -0.853,1.171 -1.114,1.46 l -0.776,0 0,-1.13 0.542,0 0,-0.33 -1.457,0 0,0.33 0.543,0 0,2.775 -0.543,0 0,0.331 2.014,0 c 0.818,0 1.141,-0.427 1.141,-0.943 0,-0.703 -0.605,-0.955 -1.052,-1.021 0.269,-0.295 0.667,-0.811 0.894,-1.142 l 0.694,0 0,-0.33 -0.886,0 z" /></g><g
           transform="translate(49.9061,118.4203)"
           id="g102"><path
             id="path104"
             style="fill:#f39b11;fill-opacity:1;fill-rule:nonzero;stroke:none"
             d="m 0,0 c -0.777,0 -1.182,-0.402 -1.237,-0.757 l 2.399,0 C 1.162,-0.606 0.949,0 0,0 m 0.034,-2.42 c -1.203,0 -1.677,0.666 -1.677,1.375 0,0.829 0.729,1.381 1.643,1.381 1.106,0 1.567,-0.666 1.567,-1.423 l -2.818,0 0,-0.048 c 0,-0.318 0.206,-0.643 0.454,-0.781 0.261,-0.144 0.57,-0.18 0.893,-0.18 0.323,0 0.859,0.108 1.395,0.372 L 1.608,-2.042 C 1.162,-2.258 0.591,-2.42 0.034,-2.42" /></g><path
           id="path106"
           style="fill:#f39b11;fill-opacity:1;fill-rule:nonzero;stroke:none"
           d="m 53.757,120 0.488,0 0,-0.739 -0.488,0 0,0.739 z m -1.1,-3.928 0,0.33 1.21,0 0,1.946 -1.044,0 0,0.331 1.422,0 0,-2.277 1.189,0 0,-0.33 -2.777,0 z" /><g
           transform="translate(58.2062,116)"
           id="g108"><path
             id="path110"
             style="fill:#f39b11;fill-opacity:1;fill-rule:nonzero;stroke:none"
             d="m 0,0 c -0.866,0 -1.629,0.522 -1.629,1.411 0,0.547 0.474,1.346 1.663,1.346 0.399,0 0.729,-0.102 1.045,-0.289 l 0,0.289 0.378,0 0,-1.051 -0.378,0 0,0.414 c -0.296,0.216 -0.66,0.3 -1.052,0.3 -0.783,0 -1.278,-0.492 -1.278,-1.027 0,-0.39 0.296,-1.069 1.368,-1.069 0.557,0 1.093,0.348 1.264,0.481 L 1.533,0.474 C 1.127,0.198 0.639,0 0,0" /></g><g
           transform="translate(63.0675,117.273)"
           id="g112"><path
             id="path114"
             style="fill:#f39b11;fill-opacity:1;fill-rule:nonzero;stroke:none"
             d="m 0,0 c -0.289,0.042 -0.577,0.078 -0.88,0.078 -0.323,0 -0.694,-0.012 -0.948,-0.168 -0.138,-0.084 -0.248,-0.216 -0.248,-0.379 0,-0.227 0.296,-0.474 0.715,-0.474 0.557,0 1.017,0.282 1.361,0.643 L 0,0 Z m 0.007,-1.201 0,0.505 c -0.378,-0.319 -0.852,-0.577 -1.375,-0.577 -0.701,0 -1.092,0.42 -1.092,0.811 0,0.354 0.364,0.877 1.491,0.877 0.33,0 0.667,-0.042 0.969,-0.084 l 0,0.185 c 0,0.199 -0.048,0.409 -0.227,0.505 -0.199,0.108 -0.426,0.126 -0.66,0.126 -0.467,0 -0.962,-0.162 -1.175,-0.252 l -0.096,0.324 c 0.399,0.144 0.873,0.265 1.34,0.265 0.584,0 0.928,-0.181 1.072,-0.415 0.103,-0.162 0.117,-0.33 0.117,-0.492 l 0,-1.448 0.564,0 0,-0.33 -0.928,0 z" /></g><g
           transform="translate(66.575,116)"
           id="g116"><path
             id="path118"
             style="fill:#f39b11;fill-opacity:1;fill-rule:nonzero;stroke:none"
             d="m 0,0 c -0.55,0 -0.886,0.132 -1.223,0.27 l 0,-0.27 -0.378,0 0,1.021 0.378,0 0,-0.354 c 0.33,-0.223 0.708,-0.337 1.141,-0.337 0.254,0 1.01,0.048 1.01,0.493 0,0.036 -0.014,0.132 -0.048,0.174 -0.186,0.228 -0.543,0.186 -0.846,0.21 -0.508,0.036 -1.037,0.012 -1.402,0.3 -0.13,0.102 -0.178,0.265 -0.178,0.415 0,0.516 0.494,0.835 1.251,0.835 0.385,0 0.756,-0.078 1.065,-0.241 l 0,0.241 0.371,0 0,-0.949 -0.371,0 0,0.354 c -0.289,0.162 -0.667,0.264 -1.045,0.264 -0.295,0 -0.9,-0.078 -0.9,-0.45 0,-0.108 0.075,-0.216 0.179,-0.277 C -0.68,1.525 -0.048,1.543 0.426,1.513 0.9,1.483 1.306,1.357 1.306,0.859 1.306,0.342 0.763,0 0,0" /></g><g
           transform="translate(70.5427,116)"
           id="g120"><path
             id="path122"
             style="fill:#f39b11;fill-opacity:1;fill-rule:nonzero;stroke:none"
             d="m 0,0 c -0.357,0 -1.1,0.108 -1.1,0.786 l 0,1.562 -0.487,0 0,0.331 0.487,0 0,0.774 0.372,0 0,-0.774 1.773,0 0,-0.331 -1.773,0 0,-1.417 c 0,-0.187 0.054,-0.403 0.254,-0.493 0.186,-0.084 0.364,-0.108 0.55,-0.108 0.467,0 0.983,0.21 1.34,0.331 L 1.457,0.336 C 1.024,0.174 0.509,0 0,0" /></g><g
           transform="translate(176,144)"
           id="g124"><path
             id="path126"
             style="fill:#f39b11;fill-opacity:1;fill-rule:nonzero;stroke:none"
             d="m 0,0 -32,0 c 0,-17.673 14.327,-32 32,-32 l 4,0 0,32 -4,0 z" /></g><g
           transform="translate(158.9384,123.591)"
           id="g128"><path
             id="path130"
             style="fill:#bfbfbf;fill-opacity:1;fill-rule:nonzero;stroke:none"
             d="m 0,0 c -0.161,0 -0.259,-0.005 -0.409,-0.074 l 0,-1.361 c 0.072,-0.011 0.212,-0.016 0.336,-0.011 0.534,0.043 0.856,0.327 0.825,0.765 C 0.731,-0.364 0.627,-0.026 0,0 m 1.312,-3.715 -1.556,2.058 c -0.041,0.053 -0.057,0.09 -0.103,0.127 -0.021,0.021 -0.042,0.032 -0.068,0.047 l 0,-1.809 c 0,-0.085 -0.005,-0.132 0.016,-0.217 0.01,-0.074 0.031,-0.116 0.057,-0.19 l -0.57,0 c 0.031,0.064 0.057,0.101 0.062,0.164 0.015,0.079 0.015,0.253 0.015,0.401 l 0,2.828 c 0,0.148 -0.005,0.232 -0.031,0.38 -0.015,0.069 -0.041,0.105 -0.072,0.164 l 1.166,0 c 0.508,0 0.964,-0.343 0.949,-0.908 -0.01,-0.549 -0.482,-1.018 -1.052,-0.929 0.031,-0.026 0.046,-0.047 0.077,-0.074 0.109,-0.105 0.171,-0.174 0.27,-0.3 l 0.922,-1.193 c 0.12,-0.158 0.213,-0.285 0.332,-0.39 0.073,-0.064 0.12,-0.101 0.197,-0.159 l -0.611,0 z" /></g><g
           transform="translate(162.3046,122.1981)"
           id="g132"><path
             id="path134"
             style="fill:#bfbfbf;fill-opacity:1;fill-rule:nonzero;stroke:none"
             d="m 0,0 c -0.358,0.005 -0.653,-0.232 -0.726,-0.586 l 1.421,0 C 0.627,-0.238 0.399,0 0,0 m -0.788,-0.844 -0.01,-0.169 C -0.835,-1.609 -0.503,-2.1 0.171,-2.1 c 0.342,0 0.576,0.021 0.845,0.237 L 0.949,-2.19 C 0.643,-2.359 0.409,-2.369 0.062,-2.353 -0.7,-2.322 -1.177,-1.894 -1.187,-0.992 -1.192,-0.327 -0.684,0.28 -0.01,0.264 0.627,0.253 1.042,-0.238 1.057,-0.844 l -1.845,0 z" /></g><g
           transform="translate(164.561,119.8923)"
           id="g136"><path
             id="path138"
             style="fill:#bfbfbf;fill-opacity:1;fill-rule:nonzero;stroke:none"
             d="M 0,0 C -0.213,0 -0.358,0.079 -0.466,0.274 -0.56,0.433 -0.56,0.607 -0.56,0.823 l 0,1.477 -0.337,0 0,0.254 0.337,0 0,0.295 c 0,0.053 0,0.09 -0.021,0.132 -0.026,0.042 -0.046,0.064 -0.083,0.085 l 0.488,0.253 0,-0.755 0.575,0 0,-0.264 -0.581,0 0,-1.493 c 0,-0.174 0.006,-0.358 0.094,-0.443 C -0.01,0.28 0.073,0.248 0.182,0.248 l 0.228,0 L 0.41,0 0,0 Z" /></g><g
           transform="translate(166.1328,122.1242)"
           id="g140"><path
             id="path142"
             style="fill:#bfbfbf;fill-opacity:1;fill-rule:nonzero;stroke:none"
             d="m 0,0 c -0.192,-0.111 -0.321,-0.375 -0.321,-0.659 l 0,-1.124 c 0,-0.106 0.01,-0.164 0.036,-0.259 0.021,-0.079 0.041,-0.127 0.088,-0.2 l -0.596,0 c 0.031,0.052 0.057,0.084 0.067,0.137 0.026,0.089 0.021,0.153 0.021,0.248 l 0,1.804 c 0,0.069 -0.005,0.122 -0.031,0.185 -0.026,0.074 -0.057,0.116 -0.104,0.174 l 0.503,0.058 0,-0.38 c 0.078,0.158 0.166,0.243 0.316,0.333 0.14,0.079 0.285,0.105 0.467,0.074 l 0,-0.349 C 0.28,0.095 0.15,0.084 0,0" /></g><g
           transform="translate(168.1916,122.1981)"
           id="g144"><path
             id="path146"
             style="fill:#bfbfbf;fill-opacity:1;fill-rule:nonzero;stroke:none"
             d="m 0,0 c -0.555,0.016 -0.928,-0.501 -0.923,-1.05 0.005,-0.538 0.384,-1.024 0.912,-1.024 0.519,0 0.908,0.475 0.918,1.008 C 0.923,-0.522 0.539,-0.026 0,0 m -0.031,-2.343 c -0.7,0.011 -1.281,0.602 -1.281,1.314 0,0.728 0.607,1.319 1.322,1.309 C 0.721,0.264 1.306,-0.333 1.291,-1.061 1.28,-1.778 0.695,-2.353 -0.031,-2.343" /></g><g
           transform="translate(171.9257,119.9714)"
           id="g148"><path
             id="path150"
             style="fill:#bfbfbf;fill-opacity:1;fill-rule:nonzero;stroke:none"
             d="m 0,0 c -0.259,-0.105 -0.441,-0.1 -0.726,-0.111 -0.829,-0.031 -1.415,0.533 -1.425,1.282 -0.016,0.776 0.606,1.346 1.394,1.325 0.275,-0.005 0.446,-0.005 0.7,-0.111 l 0,-0.354 C -0.233,2.169 -0.508,2.248 -0.752,2.243 -1.353,2.232 -1.768,1.762 -1.768,1.187 -1.778,0.58 -1.306,0.106 -0.726,0.116 -0.409,0.127 -0.109,0.217 0.057,0.338 L 0,0 Z" /></g><g
           transform="translate(173.8763,121.259)"
           id="g152"><path
             id="path154"
             style="fill:#bfbfbf;fill-opacity:1;fill-rule:nonzero;stroke:none"
             d="m 0,0 -0.332,-0.084 -0.471,-0.09 C -1.063,-0.222 -1.239,-0.391 -1.255,-0.638 -1.28,-0.945 -1.006,-1.177 -0.69,-1.171 -0.347,-1.166 0,-0.955 0,-0.607 L 0,0 Z m -0.01,-1.377 0,0.237 c -0.218,-0.211 -0.441,-0.264 -0.742,-0.269 -0.446,-0.005 -0.871,0.269 -0.845,0.781 0.016,0.454 0.249,0.628 0.685,0.697 l 0.518,0.089 c 0.192,0.032 0.373,0.085 0.373,0.354 0,0.253 -0.259,0.454 -0.622,0.454 -0.259,0 -0.549,-0.037 -0.741,-0.206 l 0,0.301 c 0.254,0.158 0.508,0.168 0.752,0.168 0.71,-0.026 0.974,-0.306 0.974,-0.844 l 0,-1.377 c 0,-0.074 0.005,-0.121 0.026,-0.19 0.016,-0.074 0.031,-0.116 0.067,-0.185 l -0.445,-0.01 z" /></g><g
           transform="translate(175.4432,119.829)"
           id="g156"><path
             id="path158"
             style="fill:#bfbfbf;fill-opacity:1;fill-rule:nonzero;stroke:none"
             d="m 0,0 c -0.259,0.005 -0.498,0.021 -0.659,0.1 l -0.067,0.396 c 0.119,-0.137 0.394,-0.243 0.7,-0.248 0.296,0 0.591,0.127 0.586,0.491 C 0.55,0.955 0.42,1.103 0.223,1.182 l -0.322,0.137 c -0.316,0.127 -0.554,0.354 -0.549,0.702 0.01,0.433 0.446,0.659 0.881,0.665 0.233,0 0.384,-0.016 0.586,-0.127 l 0,-0.322 C 0.679,2.38 0.435,2.422 0.238,2.422 c -0.259,0 -0.476,-0.153 -0.476,-0.396 0,-0.19 0.124,-0.316 0.3,-0.39 L 0.378,1.504 C 0.824,1.319 0.938,1.124 0.949,0.776 0.964,0.195 0.399,-0.011 0,0" /></g><g
           transform="translate(177.5905,119.8923)"
           id="g160"><path
             id="path162"
             style="fill:#bfbfbf;fill-opacity:1;fill-rule:nonzero;stroke:none"
             d="M 0,0 C -0.212,0 -0.358,0.079 -0.466,0.274 -0.56,0.433 -0.56,0.607 -0.56,0.823 l 0,1.477 -0.337,0 0,0.254 0.337,0 0,0.295 c 0,0.053 0,0.09 -0.02,0.132 -0.027,0.042 -0.047,0.064 -0.084,0.085 l 0.488,0.253 0,-0.755 0.575,0 0,-0.264 -0.581,0 0,-1.493 c 0,-0.174 0.006,-0.358 0.094,-0.443 C -0.01,0.28 0.073,0.248 0.182,0.248 l 0.227,0 L 0.409,0 0,0 Z" /></g><g
           transform="translate(160,131.6936)"
           id="g164"><path
             id="path166"
             style="fill:#bfbfbf;fill-opacity:1;fill-rule:nonzero;stroke:none"
             d="m 0,0 c 0,-0.917 0.152,-1.83 0.457,-2.705 0.662,-1.892 2.048,-3.464 3.806,-4.312 1.698,-0.819 3.567,-0.897 5.263,-0.219 1.618,0.647 2.955,1.989 3.668,3.681 0.686,1.628 0.738,3.412 0.147,5.024 C 12.78,3.002 11.631,4.262 10.192,4.924 8.816,5.556 7.316,5.588 5.966,5.016 4.687,4.473 3.646,3.383 3.109,2.026 2.601,0.74 2.592,-0.654 3.084,-1.9 3.549,-3.074 4.46,-4.02 5.585,-4.493 6.638,-4.936 7.77,-4.921 8.774,-4.45 c 0.94,0.441 1.684,1.282 2.04,2.308 0.329,0.945 0.29,1.949 -0.109,2.827 C 10.333,1.504 9.652,2.133 8.836,2.41 8.103,2.66 7.339,2.59 6.686,2.212 6.085,1.865 5.632,1.241 5.474,0.545 5.336,-0.067 5.436,-0.68 5.759,-1.181 6.06,-1.647 6.587,-1.968 7.104,-1.999 c 0.429,-0.026 0.818,0.145 1.093,0.483 0.213,0.26 0.186,0.655 -0.06,0.88 C 7.891,-0.41 7.518,-0.439 7.305,-0.7 7.281,-0.729 7.251,-0.757 7.171,-0.753 7.019,-0.743 6.827,-0.623 6.734,-0.478 6.562,-0.213 6.578,0.065 6.62,0.252 6.701,0.607 6.942,0.938 7.251,1.116 7.721,1.388 8.176,1.324 8.475,1.222 8.977,1.051 9.413,0.648 9.643,0.144 9.902,-0.427 9.925,-1.086 9.708,-1.711 9.461,-2.421 8.946,-3.004 8.296,-3.309 7.585,-3.643 6.777,-3.651 6.02,-3.333 c -0.832,0.35 -1.505,1.048 -1.848,1.915 -0.37,0.935 -0.361,1.987 0.025,2.962 0.415,1.051 1.22,1.894 2.208,2.313 1.055,0.448 2.233,0.42 3.317,-0.078 1.153,-0.53 2.072,-1.537 2.52,-2.762 0.476,-1.298 0.432,-2.742 -0.125,-4.063 C 11.531,-4.436 10.435,-5.538 9.109,-6.068 7.71,-6.628 6.162,-6.562 4.752,-5.881 3.278,-5.17 2.116,-3.854 1.564,-2.271 0.982,-0.607 1.063,1.226 1.793,2.893 2.549,4.622 3.938,5.981 5.603,6.621 7.347,7.292 9.264,7.186 11,6.322 12.794,5.43 14.199,3.804 14.855,1.862 14.965,1.538 15.302,1.369 15.609,1.485 15.915,1.601 16.076,1.959 15.965,2.283 15.204,4.535 13.577,6.419 11.502,7.452 9.479,8.458 7.242,8.58 5.201,7.795 3.243,7.042 1.611,5.446 0.723,3.418 0.242,2.319 0,1.156 0,0" /></g></g></g></g></svg>