<?xml version="1.0" encoding="UTF-8" standalone="no"?>
<svg
   xmlns:dc="http://purl.org/dc/elements/1.1/"
   xmlns:cc="http://creativecommons.org/ns#"
   xmlns:rdf="http://www.w3.org/1999/02/22-rdf-syntax-ns#"
   xmlns:svg="http://www.w3.org/2000/svg"
   xmlns="http://www.w3.org/2000/svg"
   viewBox="0 0 320 320"
   height="320"
   width="320"
   xml:space="preserve"
   version="1.1"
   id="svg2"><metadata
     id="metadata8"><rdf:RDF><cc:Work
         rdf:about=""><dc:format>image/svg+xml</dc:format><dc:type
           rdf:resource="http://purl.org/dc/dcmitype/StillImage" /></cc:Work></rdf:RDF></metadata><defs
     id="defs6"><clipPath
       id="clipPath16"
       clipPathUnits="userSpaceOnUse"><path
         id="path18"
         d="M 0,256 256,256 256,0 0,0 0,256 Z" /></clipPath><clipPath
       id="clipPath24"
       clipPathUnits="userSpaceOnUse"><path
         id="path26"
         d="M 4,196 252,196 252,60 4,60 4,196 Z" /></clipPath></defs><g
     transform="matrix(1.25,0,0,-1.25,0,320)"
     id="g10"><g
       id="g12"><g
         clip-path="url(#clipPath16)"
         id="g14"><g
           id="g20"><g
             id="g22" /><g
             id="g28"><g
               style="opacity:0.5"
               id="g30"
               clip-path="url(#clipPath24)"><g
                 id="g32"
                 transform="translate(128,196)"><path
                   id="path34"
                   style="fill:#ffffff;fill-opacity:1;fill-rule:nonzero;stroke:none"
                   d="m 0,0 c -12.933,0 -29.525,-0.924 -44.795,-1.833 -1.238,0.744 -2.661,1.141 -4.117,1.141 -0.17,0 -0.341,-0.005 -0.512,-0.016 l -19.768,-1.268 c -1.687,-0.109 -3.284,-0.747 -4.572,-1.808 -8.872,-0.735 -25.881,-2.234 -27.895,-2.568 -0.799,-0.13 -1.548,-0.24 -2.24,-0.342 -3.533,-0.519 -6.87,-1.009 -9.936,-3.353 -3.818,-2.918 -5.212,-7.319 -6.071,-11.239 C -121.883,-30.295 -124,-56.411 -124,-68 c 0,-12.751 0,-24.795 1.782,-39.57 0.779,-6.44 5.675,-11.723 14.552,-15.706 6.419,-2.88 15.374,-5.325 26.613,-7.267 20.665,-3.57 48.692,-5.457 81.053,-5.457 32.361,0 60.387,1.887 81.051,5.457 11.24,1.942 20.194,4.387 26.613,7.267 8.876,3.982 13.773,9.265 14.554,15.7 C 124,-92.795 124,-80.751 124,-68 c 0,11.568 -2.119,37.676 -4.097,46.704 -0.866,3.929 -2.263,8.329 -6.083,11.245 -3.068,2.341 -6.408,2.831 -9.944,3.35 -0.693,0.102 -1.444,0.211 -2.258,0.344 C 97.967,-5.746 22.687,0 0,0" /></g></g></g></g><g
           transform="translate(240.088,172.992)"
           id="g36"><path
             id="path38"
             style="fill:#333333;fill-opacity:1;fill-rule:nonzero;stroke:none"
             d="m 0,0 c -1.8,8.172 -4.12,7.508 -11.76,8.756 -2.128,0.356 -77.416,6.252 -100.328,6.252 -13.648,0 -31.736,-1.064 -48.824,-2.088 l -0.088,1.396 -19.768,-1.268 0.096,-1.436 c -5.928,-0.424 -29.98,-2.552 -31.768,-2.848 -7.624,-1.248 -9.948,-0.584 -11.74,-8.756 -1.792,-8.168 -3.908,-33.4 -3.908,-45 0,-12.54 0.004,-24.348 1.724,-38.612 1.728,-14.276 52.408,-21.388 114.276,-21.388 61.868,0 112.544,7.112 114.276,21.388 1.72,14.264 1.724,26.072 1.724,38.612 C 3.912,-33.392 1.788,-8.16 0,0" /></g><g
           transform="translate(199.6235,170.993)"
           id="g40"><path
             id="path42"
             style="fill:#0d0d0d;fill-opacity:1;fill-rule:nonzero;stroke:none"
             d="m 0,0 c -1.594,8.24 -27.702,9.007 -27.702,9.007 l -87.843,0 c 0,0 -26.108,-0.767 -27.702,-9.007 -1.594,-8.24 2.391,-14.373 2.391,-14.373 l 14.35,-40.052 c 0,0 2.989,-12.073 23.118,-12.457 7.803,-0.148 55.726,-0.148 63.529,0 20.129,0.384 23.118,12.457 23.118,12.457 l 14.349,40.052 c 0,0 3.986,6.133 2.392,14.373" /></g><g
           transform="translate(168,176)"
           id="g44"><path
             id="path46"
             style="fill:#191919;fill-opacity:1;fill-rule:nonzero;stroke:none"
             d="M 0,0 -5.414,0 -74.586,0 -80,0 l 0,-5.307 0,-49.386 0,-5.307 5.414,0 69.172,0 L 0,-60 0,-54.693 0,-5.307 0,0 Z" /></g><path
           id="path48"
           style="fill:#0d0d0d;fill-opacity:1;fill-rule:nonzero;stroke:none"
           d="m 164,120 -72,0 0,52 72,0 0,-52 z" /><g
           transform="translate(76,151)"
           id="g50"><path
             id="path52"
             style="fill:#ff0000;fill-opacity:1;fill-rule:nonzero;stroke:none"
             d="m 0,0 c 0,-0.552 -0.448,-1 -1,-1 -0.552,0 -1,0.448 -1,1 0,0.552 0.448,1 1,1 0.552,0 1,-0.448 1,-1" /></g><g
           transform="translate(239.4916,147.5763)"
           id="g54"><path
             id="path56"
             style="fill:#262626;fill-opacity:1;fill-rule:nonzero;stroke:none"
             d="m 0,0 c 2.701,-2.251 -5.627,-12.84 -18.602,-23.651 -12.974,-10.812 -25.68,-17.752 -28.381,-15.502 -2.701,2.251 5.627,12.84 18.601,23.652 C -15.408,-4.69 -2.701,2.251 0,0" /></g><g
           transform="translate(216,132)"
           id="g58"><path
             id="path60"
             style="fill:#404040;fill-opacity:1;fill-rule:nonzero;stroke:none"
             d="m 0,0 c 0,-4.418 -3.582,-8 -8,-8 -4.418,0 -8,3.582 -8,8 0,4.418 3.582,8 8,8 4.418,0 8,-3.582 8,-8" /></g><g
           transform="translate(232,144)"
           id="g62"><path
             id="path64"
             style="fill:#404040;fill-opacity:1;fill-rule:nonzero;stroke:none"
             d="m 0,0 c 0,-4.418 -3.582,-8 -8,-8 -4.418,0 -8,3.582 -8,8 0,4.418 3.582,8 8,8 4.418,0 8,-3.582 8,-8" /></g><g
           transform="translate(207.8568,169.2046)"
           id="g66"><path
             id="path68"
             style="fill:#4b5da7;fill-opacity:1;fill-rule:nonzero;stroke:none"
             d="m 0,0 -3.857,-11.235 c 0.77,-0.472 1.64,-0.765 2.579,-0.765 2.994,0 5.421,2.728 5.421,6.094 C 4.143,-3.037 2.375,-0.648 0,0" /></g><g
           transform="translate(156.4358,95)"
           id="g70"><path
             id="path72"
             style="fill:#262626;fill-opacity:1;fill-rule:nonzero;stroke:none"
             d="m 0,0 c -0.208,0 -0.345,0.002 -0.404,0.002 l -58.6,0 c -26.003,0 -30.598,15.212 -30.779,15.859 l -26.653,71.98 2.271,0.159 26.681,-71.406 c 0.196,-0.661 4.413,-14.2 28.48,-14.2 l 58.626,0 C -0.118,2.363 22.45,2.092 28.109,16.613 34.075,31.915 53.078,87.435 53.269,88 l 2.295,-0.127 C 55.371,87.306 36.351,31.105 30.366,15.753 24.459,0.6 3.305,0 0,0" /></g><g
           transform="translate(42,99)"
           id="g74"><path
             id="path76"
             style="fill:#262626;fill-opacity:1;fill-rule:nonzero;stroke:none"
             d="m 0,0 c 0,-0.552 -0.448,-1 -1,-1 -0.552,0 -1,0.448 -1,1 0,0.552 0.448,1 1,1 0.552,0 1,-0.448 1,-1" /></g><g
           transform="translate(46,99)"
           id="g78"><path
             id="path80"
             style="fill:#262626;fill-opacity:1;fill-rule:nonzero;stroke:none"
             d="m 0,0 c 0,-0.552 -0.448,-1 -1,-1 -0.552,0 -1,0.448 -1,1 0,0.552 0.448,1 1,1 0.552,0 1,-0.448 1,-1" /></g><g
           transform="translate(50,99)"
           id="g82"><path
             id="path84"
             style="fill:#262626;fill-opacity:1;fill-rule:nonzero;stroke:none"
             d="m 0,0 c 0,-0.552 -0.448,-1 -1,-1 -0.552,0 -1,0.448 -1,1 0,0.552 0.448,1 1,1 0.552,0 1,-0.448 1,-1" /></g><g
           transform="translate(54,99)"
           id="g86"><path
             id="path88"
             style="fill:#262626;fill-opacity:1;fill-rule:nonzero;stroke:none"
             d="m 0,0 c 0,-0.552 -0.448,-1 -1,-1 -0.552,0 -1,0.448 -1,1 0,0.552 0.448,1 1,1 0.552,0 1,-0.448 1,-1" /></g><g
           transform="translate(58,99)"
           id="g90"><path
             id="path92"
             style="fill:#262626;fill-opacity:1;fill-rule:nonzero;stroke:none"
             d="m 0,0 c 0,-0.552 -0.448,-1 -1,-1 -0.552,0 -1,0.448 -1,1 0,0.552 0.448,1 1,1 0.552,0 1,-0.448 1,-1" /></g><g
           transform="translate(62,99)"
           id="g94"><path
             id="path96"
             style="fill:#262626;fill-opacity:1;fill-rule:nonzero;stroke:none"
             d="m 0,0 c 0,-0.552 -0.448,-1 -1,-1 -0.552,0 -1,0.448 -1,1 0,0.552 0.448,1 1,1 0.552,0 1,-0.448 1,-1" /></g><g
           transform="translate(42,95)"
           id="g98"><path
             id="path100"
             style="fill:#262626;fill-opacity:1;fill-rule:nonzero;stroke:none"
             d="m 0,0 c 0,-0.552 -0.448,-1 -1,-1 -0.552,0 -1,0.448 -1,1 0,0.552 0.448,1 1,1 0.552,0 1,-0.448 1,-1" /></g><g
           transform="translate(46,95)"
           id="g102"><path
             id="path104"
             style="fill:#262626;fill-opacity:1;fill-rule:nonzero;stroke:none"
             d="m 0,0 c 0,-0.552 -0.448,-1 -1,-1 -0.552,0 -1,0.448 -1,1 0,0.552 0.448,1 1,1 0.552,0 1,-0.448 1,-1" /></g><g
           transform="translate(50,95)"
           id="g106"><path
             id="path108"
             style="fill:#262626;fill-opacity:1;fill-rule:nonzero;stroke:none"
             d="m 0,0 c 0,-0.552 -0.448,-1 -1,-1 -0.552,0 -1,0.448 -1,1 0,0.552 0.448,1 1,1 0.552,0 1,-0.448 1,-1" /></g><g
           transform="translate(54,95)"
           id="g110"><path
             id="path112"
             style="fill:#262626;fill-opacity:1;fill-rule:nonzero;stroke:none"
             d="m 0,0 c 0,-0.552 -0.448,-1 -1,-1 -0.552,0 -1,0.448 -1,1 0,0.552 0.448,1 1,1 0.552,0 1,-0.448 1,-1" /></g><g
           transform="translate(58,95)"
           id="g114"><path
             id="path116"
             style="fill:#262626;fill-opacity:1;fill-rule:nonzero;stroke:none"
             d="m 0,0 c 0,-0.552 -0.448,-1 -1,-1 -0.552,0 -1,0.448 -1,1 0,0.552 0.448,1 1,1 0.552,0 1,-0.448 1,-1" /></g><g
           transform="translate(62,95)"
           id="g118"><path
             id="path120"
             style="fill:#262626;fill-opacity:1;fill-rule:nonzero;stroke:none"
             d="m 0,0 c 0,-0.552 -0.448,-1 -1,-1 -0.552,0 -1,0.448 -1,1 0,0.552 0.448,1 1,1 0.552,0 1,-0.448 1,-1" /></g><g
           transform="translate(42,91)"
           id="g122"><path
             id="path124"
             style="fill:#262626;fill-opacity:1;fill-rule:nonzero;stroke:none"
             d="m 0,0 c 0,-0.552 -0.448,-1 -1,-1 -0.552,0 -1,0.448 -1,1 0,0.552 0.448,1 1,1 0.552,0 1,-0.448 1,-1" /></g><g
           transform="translate(46,91)"
           id="g126"><path
             id="path128"
             style="fill:#262626;fill-opacity:1;fill-rule:nonzero;stroke:none"
             d="m 0,0 c 0,-0.552 -0.448,-1 -1,-1 -0.552,0 -1,0.448 -1,1 0,0.552 0.448,1 1,1 0.552,0 1,-0.448 1,-1" /></g><g
           transform="translate(50,91)"
           id="g130"><path
             id="path132"
             style="fill:#262626;fill-opacity:1;fill-rule:nonzero;stroke:none"
             d="m 0,0 c 0,-0.552 -0.448,-1 -1,-1 -0.552,0 -1,0.448 -1,1 0,0.552 0.448,1 1,1 0.552,0 1,-0.448 1,-1" /></g><g
           transform="translate(54,91)"
           id="g134"><path
             id="path136"
             style="fill:#262626;fill-opacity:1;fill-rule:nonzero;stroke:none"
             d="m 0,0 c 0,-0.552 -0.448,-1 -1,-1 -0.552,0 -1,0.448 -1,1 0,0.552 0.448,1 1,1 0.552,0 1,-0.448 1,-1" /></g><g
           transform="translate(58,91)"
           id="g138"><path
             id="path140"
             style="fill:#262626;fill-opacity:1;fill-rule:nonzero;stroke:none"
             d="m 0,0 c 0,-0.552 -0.448,-1 -1,-1 -0.552,0 -1,0.448 -1,1 0,0.552 0.448,1 1,1 0.552,0 1,-0.448 1,-1" /></g><g
           transform="translate(62,91)"
           id="g142"><path
             id="path144"
             style="fill:#262626;fill-opacity:1;fill-rule:nonzero;stroke:none"
             d="m 0,0 c 0,-0.552 -0.448,-1 -1,-1 -0.552,0 -1,0.448 -1,1 0,0.552 0.448,1 1,1 0.552,0 1,-0.448 1,-1" /></g><g
           transform="translate(42,87)"
           id="g146"><path
             id="path148"
             style="fill:#262626;fill-opacity:1;fill-rule:nonzero;stroke:none"
             d="m 0,0 c 0,-0.552 -0.448,-1 -1,-1 -0.552,0 -1,0.448 -1,1 0,0.552 0.448,1 1,1 0.552,0 1,-0.448 1,-1" /></g><g
           transform="translate(38,95)"
           id="g150"><path
             id="path152"
             style="fill:#262626;fill-opacity:1;fill-rule:nonzero;stroke:none"
             d="m 0,0 c 0,-0.552 -0.448,-1 -1,-1 -0.552,0 -1,0.448 -1,1 0,0.552 0.448,1 1,1 0.552,0 1,-0.448 1,-1" /></g><g
           transform="translate(38,91)"
           id="g154"><path
             id="path156"
             style="fill:#262626;fill-opacity:1;fill-rule:nonzero;stroke:none"
             d="m 0,0 c 0,-0.552 -0.448,-1 -1,-1 -0.552,0 -1,0.448 -1,1 0,0.552 0.448,1 1,1 0.552,0 1,-0.448 1,-1" /></g><g
           transform="translate(38,87)"
           id="g158"><path
             id="path160"
             style="fill:#262626;fill-opacity:1;fill-rule:nonzero;stroke:none"
             d="m 0,0 c 0,-0.552 -0.448,-1 -1,-1 -0.552,0 -1,0.448 -1,1 0,0.552 0.448,1 1,1 0.552,0 1,-0.448 1,-1" /></g><g
           transform="translate(46,87)"
           id="g162"><path
             id="path164"
             style="fill:#262626;fill-opacity:1;fill-rule:nonzero;stroke:none"
             d="m 0,0 c 0,-0.552 -0.448,-1 -1,-1 -0.552,0 -1,0.448 -1,1 0,0.552 0.448,1 1,1 0.552,0 1,-0.448 1,-1" /></g><g
           transform="translate(50,87)"
           id="g166"><path
             id="path168"
             style="fill:#262626;fill-opacity:1;fill-rule:nonzero;stroke:none"
             d="m 0,0 c 0,-0.552 -0.448,-1 -1,-1 -0.552,0 -1,0.448 -1,1 0,0.552 0.448,1 1,1 0.552,0 1,-0.448 1,-1" /></g><g
           transform="translate(54,87)"
           id="g170"><path
             id="path172"
             style="fill:#262626;fill-opacity:1;fill-rule:nonzero;stroke:none"
             d="m 0,0 c 0,-0.552 -0.448,-1 -1,-1 -0.552,0 -1,0.448 -1,1 0,0.552 0.448,1 1,1 0.552,0 1,-0.448 1,-1" /></g><g
           transform="translate(58,87)"
           id="g174"><path
             id="path176"
             style="fill:#262626;fill-opacity:1;fill-rule:nonzero;stroke:none"
             d="m 0,0 c 0,-0.552 -0.448,-1 -1,-1 -0.552,0 -1,0.448 -1,1 0,0.552 0.448,1 1,1 0.552,0 1,-0.448 1,-1" /></g><g
           transform="translate(62,87)"
           id="g178"><path
             id="path180"
             style="fill:#262626;fill-opacity:1;fill-rule:nonzero;stroke:none"
             d="m 0,0 c 0,-0.552 -0.448,-1 -1,-1 -0.552,0 -1,0.448 -1,1 0,0.552 0.448,1 1,1 0.552,0 1,-0.448 1,-1" /></g><g
           transform="translate(66,95)"
           id="g182"><path
             id="path184"
             style="fill:#262626;fill-opacity:1;fill-rule:nonzero;stroke:none"
             d="m 0,0 c 0,-0.552 -0.448,-1 -1,-1 -0.552,0 -1,0.448 -1,1 0,0.552 0.448,1 1,1 0.552,0 1,-0.448 1,-1" /></g><g
           transform="translate(66,91)"
           id="g186"><path
             id="path188"
             style="fill:#262626;fill-opacity:1;fill-rule:nonzero;stroke:none"
             d="m 0,0 c 0,-0.552 -0.448,-1 -1,-1 -0.552,0 -1,0.448 -1,1 0,0.552 0.448,1 1,1 0.552,0 1,-0.448 1,-1" /></g><g
           transform="translate(66,87)"
           id="g190"><path
             id="path192"
             style="fill:#262626;fill-opacity:1;fill-rule:nonzero;stroke:none"
             d="m 0,0 c 0,-0.552 -0.448,-1 -1,-1 -0.552,0 -1,0.448 -1,1 0,0.552 0.448,1 1,1 0.552,0 1,-0.448 1,-1" /></g><g
           transform="translate(42,83)"
           id="g194"><path
             id="path196"
             style="fill:#262626;fill-opacity:1;fill-rule:nonzero;stroke:none"
             d="m 0,0 c 0,-0.552 -0.448,-1 -1,-1 -0.552,0 -1,0.448 -1,1 0,0.552 0.448,1 1,1 0.552,0 1,-0.448 1,-1" /></g><g
           transform="translate(46,83)"
           id="g198"><path
             id="path200"
             style="fill:#262626;fill-opacity:1;fill-rule:nonzero;stroke:none"
             d="m 0,0 c 0,-0.552 -0.448,-1 -1,-1 -0.552,0 -1,0.448 -1,1 0,0.552 0.448,1 1,1 0.552,0 1,-0.448 1,-1" /></g><g
           transform="translate(50,83)"
           id="g202"><path
             id="path204"
             style="fill:#262626;fill-opacity:1;fill-rule:nonzero;stroke:none"
             d="m 0,0 c 0,-0.552 -0.448,-1 -1,-1 -0.552,0 -1,0.448 -1,1 0,0.552 0.448,1 1,1 0.552,0 1,-0.448 1,-1" /></g><g
           transform="translate(54,83)"
           id="g206"><path
             id="path208"
             style="fill:#262626;fill-opacity:1;fill-rule:nonzero;stroke:none"
             d="m 0,0 c 0,-0.552 -0.448,-1 -1,-1 -0.552,0 -1,0.448 -1,1 0,0.552 0.448,1 1,1 0.552,0 1,-0.448 1,-1" /></g><g
           transform="translate(58,83)"
           id="g210"><path
             id="path212"
             style="fill:#262626;fill-opacity:1;fill-rule:nonzero;stroke:none"
             d="m 0,0 c 0,-0.552 -0.448,-1 -1,-1 -0.552,0 -1,0.448 -1,1 0,0.552 0.448,1 1,1 0.552,0 1,-0.448 1,-1" /></g><g
           transform="translate(62,83)"
           id="g214"><path
             id="path216"
             style="fill:#262626;fill-opacity:1;fill-rule:nonzero;stroke:none"
             d="m 0,0 c 0,-0.552 -0.448,-1 -1,-1 -0.552,0 -1,0.448 -1,1 0,0.552 0.448,1 1,1 0.552,0 1,-0.448 1,-1" /></g><g
           transform="translate(36,152)"
           id="g218"><path
             id="path220"
             style="fill:#404040;fill-opacity:1;fill-rule:nonzero;stroke:none"
             d="m 0,0 c -8.822,0 -16,-7.178 -16,-16 0,-8.822 7.178,-16 16,-16 8.822,0 16,7.178 16,16 C 16,-7.178 8.822,0 0,0" /></g><g
           transform="translate(50,136)"
           id="g222"><path
             id="path224"
             style="fill:#262626;fill-opacity:1;fill-rule:nonzero;stroke:none"
             d="m 0,0 c 0,-7.732 -6.268,-14 -14,-14 -7.732,0 -14,6.268 -14,14 0,7.732 6.268,14 14,14 C -6.268,14 0,7.732 0,0" /></g><g
           transform="translate(35.969,138)"
           id="g226"><path
             id="path228"
             style="fill:#333333;fill-opacity:1;fill-rule:nonzero;stroke:none"
             d="m 0,0 4.031,3.527 0,4.507 C 4.031,9.12 3.025,10 1.784,10 l -3.506,0 C -2.963,10 -3.969,9.12 -3.969,8.034 l 0,-4.561 L 0,0 Z" /></g><g
           transform="translate(34,136.0321)"
           id="g230"><path
             id="path232"
             style="fill:#333333;fill-opacity:1;fill-rule:nonzero;stroke:none"
             d="m 0,0 -3.471,3.968 -4.563,0 C -9.12,3.968 -10,2.962 -10,1.721 l 0,-3.506 c 0,-1.241 0.88,-2.247 1.966,-2.247 l 4.507,0 L 0,0 Z" /></g><g
           transform="translate(46.045,140.0002)"
           id="g234"><path
             id="path236"
             style="fill:#333333;fill-opacity:1;fill-rule:nonzero;stroke:none"
             d="M 0,0 -4.592,0 -8.045,-3.968 -4.537,-8 0,-8 c 1.08,0 1.955,1.006 1.955,2.247 l 0,3.506 C 1.955,-1.006 1.08,0 0,0" /></g><g
           transform="translate(35.969,134)"
           id="g238"><path
             id="path240"
             style="fill:#333333;fill-opacity:1;fill-rule:nonzero;stroke:none"
             d="m 0,0 -3.969,-3.453 0,-4.592 c 0,-1.08 1.006,-1.955 2.247,-1.955 l 3.506,0 c 1.241,0 2.247,0.875 2.247,1.955 l 0,4.538 L 0,0 Z" /></g><g
           transform="translate(26.8526,145.7592)"
           id="g242"><path
             id="path244"
             style="fill:#333333;fill-opacity:1;fill-rule:nonzero;stroke:none"
             d="M 0,0 2.935,-2.935 1.869,-4 -1.065,-1.065 0,0 Z" /></g><g
           transform="translate(45.1474,126.2408)"
           id="g246"><path
             id="path248"
             style="fill:#333333;fill-opacity:1;fill-rule:nonzero;stroke:none"
             d="M 0,0 -2.935,2.935 -1.869,4 1.065,1.065 0,0 Z" /></g><g
           transform="translate(42.2129,142.8247)"
           id="g250"><path
             id="path252"
             style="fill:#333333;fill-opacity:1;fill-rule:nonzero;stroke:none"
             d="M 0,0 2.935,2.935 4,1.869 1.065,-1.065 0,0 Z" /></g><g
           transform="translate(29.7871,129.1753)"
           id="g254"><path
             id="path256"
             style="fill:#333333;fill-opacity:1;fill-rule:nonzero;stroke:none"
             d="M 0,0 -2.935,-2.935 -4,-1.869 -1.065,1.065 0,0 Z" /></g><g
           transform="translate(182.3239,163.9764)"
           id="g258"><path
             id="path260"
             style="fill:#e6e6e6;fill-opacity:1;fill-rule:nonzero;stroke:none"
             d="m 0,0 -0.536,0 -0.671,1.379 0,-1.379 -0.536,0 0,1.931 0.804,0 L 0,0 Z M 0,2.69 C 0,2.518 -0.059,2.372 -0.177,2.251 -0.294,2.13 -0.414,2.069 -0.536,2.069 l -1.341,0 0,-2.069 -0.536,0 0,2.621 1.743,0 c 0.089,0 0.134,0.023 0.134,0.069 0,0.046 -0.045,0.069 -0.134,0.069 l -1.743,0 0,0.551 1.877,0 c 0.122,0 0.242,-0.061 0.359,-0.184 C -0.059,3.004 0,2.858 0,2.69 m 0.67,0 C 0.67,2.328 0.58,2.054 0.4,1.869 0.22,1.684 0.067,1.559 -0.058,1.494 L 0.67,0 0.134,0 l -0.938,1.931 0.268,0 c 0.158,0 0.309,0.074 0.453,0.223 0.145,0.149 0.217,0.327 0.217,0.536 0,0.205 -0.072,0.383 -0.217,0.533 -0.144,0.15 -0.295,0.225 -0.453,0.225 l -1.877,0 0,0.552 1.877,0 C -0.229,4 0.048,3.871 0.297,3.614 0.546,3.356 0.67,3.048 0.67,2.69" /></g><g
           transform="translate(183.2625,166.735)"
           id="g262"><path
             id="path264"
             style="fill:#e6e6e6;fill-opacity:1;fill-rule:nonzero;stroke:none"
             d="m 0,0 c 0,0.828 0.402,1.241 1.207,1.241 l 1.609,0 0,-0.551 -1.609,0 C 0.76,0.69 0.536,0.46 0.536,0 l 0,-1.517 c 0,-0.46 0.224,-0.69 0.671,-0.69 l 1.609,0 0,-0.552 -1.609,0 C 0.402,-2.759 0,-2.345 0,-1.517 L 0,0 Z" /></g><g
           transform="translate(183.9329,166.0454)"
           id="g266"><path
             id="path268"
             style="fill:#e6e6e6;fill-opacity:1;fill-rule:nonzero;stroke:none"
             d="m 0,0 0,0.69 c 0,0.367 0.179,0.551 0.536,0.551 l 1.609,0 0,-0.551 -1.475,0 C 0.581,0.69 0.536,0.644 0.536,0.552 l 1.207,0 L 1.743,0 0,0 Z" /></g><g
           transform="translate(183.9329,165.9074)"
           id="g270"><path
             id="path272"
             style="fill:#e6e6e6;fill-opacity:1;fill-rule:nonzero;stroke:none"
             d="m 0,0 1.743,0 0,-0.552 -1.207,0 c 0,-0.092 0.045,-0.138 0.134,-0.138 l 1.475,0 0,-0.551 -1.609,0 C 0.179,-1.241 0,-1.057 0,-0.69 L 0,0 Z" /></g><g
           transform="translate(187.9552,167.2867)"
           id="g274"><path
             id="path276"
             style="fill:#e6e6e6;fill-opacity:1;fill-rule:nonzero;stroke:none"
             d="m 0,0 1.475,0 0,-0.552 -0.939,0 0,-2.758 L 0,-3.31 0,0 Z m -0.134,0 0,-3.31 -0.536,0 0,2.758 -0.939,0 0,0.552 1.475,0 z m 1.609,0.138 -3.084,0 0,0.552 3.084,0 0,-0.552 z" /></g><g
           transform="translate(192.1117,163.9764)"
           id="g278"><path
             id="path280"
             style="fill:#e6e6e6;fill-opacity:1;fill-rule:nonzero;stroke:none"
             d="m 0,0 -0.536,0 -0.671,1.379 0,-1.379 -0.536,0 0,1.931 0.804,0 L 0,0 Z M 0,2.69 C 0,2.518 -0.059,2.372 -0.177,2.251 -0.294,2.13 -0.414,2.069 -0.536,2.069 l -1.341,0 0,-2.069 -0.536,0 0,2.621 1.743,0 c 0.089,0 0.134,0.023 0.134,0.069 0,0.046 -0.045,0.069 -0.134,0.069 l -1.743,0 0,0.551 1.877,0 c 0.122,0 0.242,-0.061 0.359,-0.184 C -0.059,3.004 0,2.858 0,2.69 m 0.67,0 C 0.67,2.328 0.58,2.054 0.4,1.869 0.22,1.684 0.067,1.559 -0.058,1.494 L 0.67,0 0.134,0 l -0.938,1.931 0.268,0 c 0.158,0 0.309,0.074 0.453,0.223 0.145,0.149 0.217,0.327 0.217,0.536 0,0.205 -0.072,0.383 -0.217,0.533 -0.144,0.15 -0.295,0.225 -0.453,0.225 l -1.877,0 0,0.552 1.877,0 C -0.229,4 0.048,3.871 0.297,3.614 0.546,3.356 0.67,3.048 0.67,2.69" /></g><g
           transform="translate(194.7933,166.5971)"
           id="g282"><path
             id="path284"
             style="fill:#e6e6e6;fill-opacity:1;fill-rule:nonzero;stroke:none"
             d="m 0,0 c 0,0.092 -0.045,0.138 -0.134,0.138 l -0.268,0 C -0.492,0.138 -0.536,0.092 -0.536,0 l 0,-1.241 c 0,-0.092 0.044,-0.138 0.134,-0.138 l 0.268,0 C -0.045,-1.379 0,-1.333 0,-1.241 L 0,0 Z m 0.536,0.138 0,-1.517 C 0.536,-1.747 0.358,-1.931 0,-1.931 l -0.536,0 c -0.358,0 -0.537,0.184 -0.537,0.552 l 0,1.517 c 0,0.368 0.179,0.552 0.537,0.552 L 0,0.69 c 0.358,0 0.536,-0.184 0.536,-0.552 m 0.134,0 c 0,0.46 -0.223,0.69 -0.67,0.69 l -0.536,0 c -0.447,0 -0.671,-0.23 -0.671,-0.69 l 0,-1.517 c 0,-0.46 0.224,-0.69 0.671,-0.69 l 0.536,0 c 0.447,0 0.67,0.23 0.67,0.69 l 0,1.517 z m 0.537,0 0,-1.517 C 1.207,-2.207 0.804,-2.621 0,-2.621 l -0.536,0 c -0.805,0 -1.207,0.414 -1.207,1.242 l 0,1.517 c 0,0.828 0.402,1.241 1.207,1.241 l 0.536,0 c 0.804,0 1.207,-0.413 1.207,-1.241" /></g><g
           transform="translate(172.5853,164.9039)"
           id="g286"><path
             id="path288"
             style="fill:#e6e6e6;fill-opacity:1;fill-rule:nonzero;stroke:none"
             d="M 0,0 C -0.004,0.012 -0.007,0.025 -0.011,0.038 L 0,0.038 0,0 Z m 0.755,0.314 c -0.089,0 -0.134,0.046 -0.134,0.138 l 0,2.62 -1.206,0 0,-2.758 c 0,-0.828 0.402,-1.242 1.206,-1.242 l 1.609,0 0,1.242 -1.475,0 z" /></g><path
           id="path290"
           style="fill:#e6e6e6;fill-opacity:1;fill-rule:nonzero;stroke:none"
           d="m 175.084,163.976 1.207,0 0,4 -1.207,0 0,-4 z" /><g
           transform="translate(178.3015,166.5971)"
           id="g292"><path
             id="path294"
             style="fill:#e6e6e6;fill-opacity:1;fill-rule:nonzero;stroke:none"
             d="m 0,0 -0.536,0 0,0.138 0.536,0 C 0.089,0.138 0.134,0.115 0.134,0.069 0.134,0.023 0.089,0 0,0 m 0,-1.379 -0.536,0 0,0.138 0.536,0 c 0.089,0 0.134,-0.023 0.134,-0.069 C 0.134,-1.356 0.089,-1.379 0,-1.379 M 1.341,0.069 C 1.341,0.428 1.216,0.736 0.968,0.993 0.719,1.251 0.441,1.379 0.134,1.379 l -1.877,0 0,-4 1.877,0 c 0.307,0 0.585,0.129 0.834,0.387 0.248,0.257 0.373,0.565 0.373,0.924 0,0.26 -0.061,0.489 -0.183,0.685 0.122,0.196 0.183,0.427 0.183,0.694" /></g><g
           transform="translate(65.0918,167.7057)"
           id="g296"><path
             id="path298"
             style="fill:#ffffff;fill-opacity:1;fill-rule:nonzero;stroke:none"
             d="m 0,0 -0.124,-1.017 0.355,0 c 0.136,0 0.259,0.049 0.368,0.147 0.11,0.099 0.173,0.219 0.191,0.361 C 0.808,-0.369 0.774,-0.25 0.688,-0.15 0.602,-0.05 0.482,0 0.328,0 L 0,0 Z m -1.092,-3.197 0.417,3.488 c 0.036,0.29 0.196,0.436 0.48,0.436 l 0.639,0 C 0.772,0.727 1.041,0.605 1.249,0.361 1.458,0.117 1.542,-0.173 1.5,-0.509 1.459,-0.848 1.28,-1.163 0.963,-1.453 1.152,-1.502 1.265,-1.695 1.3,-2.034 l 0.165,-1.163 -0.71,0 -0.147,1.163 c -0.071,0.193 -0.201,0.29 -0.391,0.29 l -0.426,0 -0.173,-1.453 -0.71,0 z" /></g><g
           transform="translate(69.2993,168.4323)"
           id="g300"><path
             id="path302"
             style="fill:#ffffff;fill-opacity:1;fill-rule:nonzero;stroke:none"
             d="m 0,0 -0.089,-0.727 -1.278,0 -0.107,-0.872 1.279,0 -0.085,-0.726 -1.278,0 -0.106,-0.872 1.278,0 -0.084,-0.727 -1.563,0 c -0.284,0 -0.41,0.146 -0.377,0.436 l 0.368,3.052 C -2.006,-0.145 -1.846,0 -1.562,0 L 0,0 Z" /></g><g
           transform="translate(69.4946,167.7057)"
           id="g304"><path
             id="path306"
             style="fill:#ffffff;fill-opacity:1;fill-rule:nonzero;stroke:none"
             d="m 0,0 0.089,0.727 2.13,0 L 2.13,0 1.42,0 1.039,-3.197 0.328,-3.197 0.71,0 0,0 Z" /></g><g
           transform="translate(72.4772,167.7057)"
           id="g308"><path
             id="path310"
             style="fill:#ffffff;fill-opacity:1;fill-rule:nonzero;stroke:none"
             d="m 0,0 -0.124,-1.017 0.355,0 c 0.136,0 0.259,0.049 0.368,0.147 0.11,0.099 0.173,0.219 0.191,0.361 C 0.808,-0.369 0.774,-0.25 0.688,-0.15 0.602,-0.05 0.482,0 0.328,0 L 0,0 Z m -1.092,-3.197 0.417,3.488 c 0.036,0.29 0.196,0.436 0.48,0.436 l 0.639,0 C 0.772,0.727 1.041,0.605 1.249,0.361 1.458,0.117 1.542,-0.173 1.5,-0.509 1.459,-0.848 1.28,-1.163 0.963,-1.453 1.152,-1.502 1.265,-1.695 1.3,-2.034 l 0.165,-1.163 -0.71,0 -0.147,1.163 c -0.071,0.193 -0.201,0.29 -0.391,0.29 l -0.426,0 -0.173,-1.453 -0.71,0 z" /></g><g
           transform="translate(74.7925,166.4705)"
           id="g312"><path
             id="path314"
             style="fill:#ffffff;fill-opacity:1;fill-rule:nonzero;stroke:none"
             d="m 0,0 c -0.041,-0.339 0.027,-0.63 0.206,-0.872 0.179,-0.242 0.415,-0.363 0.708,-0.363 0.29,0 0.555,0.121 0.795,0.363 C 1.948,-0.63 2.089,-0.339 2.13,0 2.169,0.336 2.098,0.626 1.917,0.87 1.737,1.113 1.502,1.235 1.212,1.235 0.919,1.235 0.653,1.113 0.415,0.87 0.177,0.626 0.038,0.336 0,0 m -0.71,0 c 0.062,0.536 0.291,0.997 0.686,1.383 C 0.371,1.769 0.812,1.962 1.3,1.962 1.786,1.962 2.179,1.769 2.481,1.383 2.783,0.997 2.903,0.536 2.841,0 2.775,-0.539 2.545,-1.001 2.15,-1.385 1.755,-1.77 1.315,-1.962 0.83,-1.962 c -0.488,0 -0.883,0.192 -1.185,0.577 -0.302,0.384 -0.42,0.846 -0.355,1.385" /></g><g
           transform="translate(68.4191,162.1253)"
           id="g316"><path
             id="path318"
             style="fill:#ffffff;fill-opacity:1;fill-rule:nonzero;stroke:none"
             d="m 0,0 c 0.068,0.557 0.3,1.035 0.695,1.435 0.395,0.4 0.836,0.599 1.324,0.599 0.486,0 0.838,-0.115 1.057,-0.345 C 3.295,1.459 3.449,1.253 3.537,1.072 L 2.929,0.727 C 2.841,0.884 2.724,1.02 2.581,1.135 2.437,1.25 2.221,1.308 1.931,1.308 1.638,1.308 1.371,1.179 1.132,0.922 0.892,0.665 0.752,0.357 0.71,0 0.666,-0.36 0.731,-0.683 0.905,-0.97 1.08,-1.256 1.314,-1.399 1.607,-1.399 c 0.29,0 0.528,0.097 0.714,0.291 0.187,0.194 0.302,0.369 0.346,0.527 l -0.892,0 0.231,0.726 1.278,0 C 3.474,0.145 3.551,0 3.515,-0.291 3.471,-0.657 3.249,-1.054 2.849,-1.483 2.45,-1.911 2.008,-2.125 1.522,-2.125 1.034,-2.125 0.641,-1.911 0.344,-1.483 0.047,-1.054 -0.068,-0.56 0,0" /></g><g
           transform="translate(74.4596,164.0144)"
           id="g320"><path
             id="path322"
             style="fill:#ffffff;fill-opacity:1;fill-rule:nonzero;stroke:none"
             d="m 0,0 -0.089,-0.727 -1.278,0 -0.107,-0.872 1.279,0 -0.085,-0.726 -1.278,0 -0.106,-0.872 1.278,0 -0.084,-0.727 -1.563,0 c -0.284,0 -0.41,0.146 -0.377,0.436 l 0.368,3.052 C -2.006,-0.145 -1.846,0 -1.562,0 L 0,0 Z" /></g><g
           transform="translate(76.1639,162.5612)"
           id="g324"><path
             id="path326"
             style="fill:#ffffff;fill-opacity:1;fill-rule:nonzero;stroke:none"
             d="m 0,0 -0.479,-1.017 0.572,0 L 0,0 Z m -1.891,-2.47 1.394,3.342 c 0.041,0.157 0.119,0.294 0.233,0.409 0.114,0.115 0.249,0.172 0.406,0.172 0.154,0 0.277,-0.057 0.368,-0.172 C 0.602,1.166 0.657,1.029 0.675,0.872 l 0.275,-3.342 -0.71,0 -0.085,0.726 -0.936,0 -0.293,-0.726 -0.817,0 z" /></g><g
           transform="translate(78.4896,163.2878)"
           id="g328"><path
             id="path330"
             style="fill:#ffffff;fill-opacity:1;fill-rule:nonzero;stroke:none"
             d="m 0,0 -0.124,-1.017 0.355,0 c 0.136,0 0.259,0.049 0.368,0.147 0.11,0.099 0.173,0.219 0.191,0.361 C 0.808,-0.369 0.774,-0.25 0.688,-0.15 0.602,-0.05 0.482,0 0.328,0 L 0,0 Z m -1.092,-3.197 0.417,3.488 c 0.036,0.29 0.196,0.436 0.48,0.436 l 0.639,0 C 0.772,0.727 1.041,0.605 1.249,0.361 1.458,0.117 1.542,-0.173 1.5,-0.509 1.459,-0.848 1.28,-1.163 0.963,-1.453 1.152,-1.502 1.265,-1.695 1.3,-2.034 l 0.165,-1.163 -0.71,0 -0.147,1.163 c -0.071,0.193 -0.201,0.29 -0.391,0.29 l -0.426,0 -0.173,-1.453 -0.71,0 z" /></g><g
           transform="translate(68.3453,171.7534)"
           id="g332"><path
             id="path334"
             style="fill:#0000ff;fill-opacity:1;fill-rule:nonzero;stroke:none"
             d="M 0,0 C 1.035,1.834 1.248,3.689 0.477,4.145 -0.294,4.6 -1.758,3.483 -2.792,1.65 -3.827,-0.184 -4.041,-2.04 -3.27,-2.495 -2.499,-2.951 -1.035,-1.834 0,0" /></g><g
           transform="translate(72.543,171.7534)"
           id="g336"><path
             id="path338"
             style="fill:#00ff00;fill-opacity:1;fill-rule:nonzero;stroke:none"
             d="M 0,0 C 1.035,1.834 1.248,3.689 0.477,4.145 -0.294,4.6 -1.758,3.483 -2.792,1.65 -3.827,-0.184 -4.041,-2.04 -3.27,-2.495 -2.499,-2.951 -1.035,-1.834 0,0" /></g><g
           transform="translate(76.7406,171.7534)"
           id="g340"><path
             id="path342"
             style="fill:#ff0000;fill-opacity:1;fill-rule:nonzero;stroke:none"
             d="M 0,0 C 1.035,1.834 1.248,3.689 0.477,4.145 -0.294,4.6 -1.758,3.483 -2.792,1.65 -3.827,-0.184 -4.041,-2.04 -3.27,-2.495 -2.498,-2.951 -1.035,-1.834 0,0" /></g><g
           transform="translate(55.866,136)"
           id="g344"><path
             id="path346"
             style="fill:#404040;fill-opacity:1;fill-rule:nonzero;stroke:none"
             d="M 0,0 C 0,0 0.839,-20.217 -19.866,-31.998 -18.17,-30.983 1.959,-30.533 0,0" /></g></g></g></g></svg>