<?xml version="1.0" encoding="UTF-8" standalone="no"?>
<svg
   xmlns:dc="http://purl.org/dc/elements/1.1/"
   xmlns:cc="http://creativecommons.org/ns#"
   xmlns:rdf="http://www.w3.org/1999/02/22-rdf-syntax-ns#"
   xmlns:svg="http://www.w3.org/2000/svg"
   xmlns="http://www.w3.org/2000/svg"
   viewBox="0 0 330.66626 320"
   height="320"
   width="330.66626"
   xml:space="preserve"
   id="svg2"
   version="1.1"><metadata
     id="metadata8"><rdf:RDF><cc:Work
         rdf:about=""><dc:format>image/svg+xml</dc:format><dc:type
           rdf:resource="http://purl.org/dc/dcmitype/StillImage" /></cc:Work></rdf:RDF></metadata><defs
     id="defs6"><clipPath
       id="clipPath18"
       clipPathUnits="userSpaceOnUse"><path
         id="path16"
         d="M 0,256 H 256 V 0 H 0 Z" /></clipPath><clipPath
       id="clipPath26"
       clipPathUnits="userSpaceOnUse"><path
         id="path24"
         d="M 4,248 H 252 V 8 H 4 Z" /></clipPath></defs><g
     transform="matrix(1.3333333,0,0,-1.3333333,-5.3337332,330.66666)"
     id="g10"><g
       id="g12"><g
         clip-path="url(#clipPath18)"
         id="g14"><g
           id="g20"><g
             id="g22" /><g
             id="g34"><g
               style="opacity:0.5"
               id="g32"
               clip-path="url(#clipPath26)"><g
                 id="g30"
                 transform="translate(234.3333,248)"><path
                   id="path28"
                   style="fill:#ffffff;fill-opacity:1;fill-rule:nonzero;stroke:none"
                   d="m 0,0 h -212.667 c -9.741,0 -17.666,-7.826 -17.666,-17.447 V -48 -103.647 -227.911 c 0,-6.666 5.757,-12.089 12.833,-12.089 H 4.833 c 7.077,0 12.834,5.423 12.834,12.089 V -103.647 -48 -17.447 C 17.667,-7.826 9.741,0 0,0" /></g></g></g></g><g
           transform="translate(239.1667,16)"
           id="g36"><path
             id="path38"
             style="fill:#191919;fill-opacity:1;fill-rule:nonzero;stroke:none"
             d="m 0,0 h -222.333 c -2.67,0 -4.834,1.831 -4.834,4.089 V 184 h 232 V 4.089 C 4.833,1.831 2.669,0 0,0" /></g><g
           transform="translate(234.3333,240)"
           id="g40"><path
             id="path42"
             style="fill:#262626;fill-opacity:1;fill-rule:nonzero;stroke:none"
             d="m 0,0 h -212.667 c -5.338,0 -9.666,-4.229 -9.666,-9.447 v -86.2 c 0,0 0,-4.723 8.458,-4.33 8.458,0.394 7.25,4.724 7.25,4.724 v 23.9 c 0.403,28.624 32.625,28.45 32.625,28.45 h 135.333 c 0,0 32.223,0.174 32.625,-28.45 v -23.9 c 0,0 -1.208,-4.33 7.25,-4.724 8.459,-0.393 8.459,4.33 8.459,4.33 v 86.2 C 9.667,-4.229 5.339,0 0,0" /></g><path
           id="path44"
           style="fill:#191919;fill-opacity:1;fill-rule:nonzero;stroke:none"
           d="M 184,208 H 72 v 4 h 112 z" /><path
           id="path46"
           style="fill:#191919;fill-opacity:1;fill-rule:nonzero;stroke:none"
           d="M 184,200 H 72 v 4 h 112 z" /><g
           transform="translate(200.2857,188)"
           id="g48"><path
             id="path50"
             style="fill:#808080;fill-opacity:1;fill-rule:nonzero;stroke:none"
             d="m 0,0 c 10.87,0 19.714,-8.585 19.714,-19.138 v -100.077 c 0,-2.643 -2.206,-4.785 -4.928,-4.785 h -174.143 c -2.722,0 -4.929,2.142 -4.929,4.785 v 100.077 c 0,10.57 8.827,19.138 19.715,19.138 L 0,0" /></g><g
           transform="translate(161.7533,28)"
           id="g52"><path
             id="path54"
             style="fill:#0d0d0d;fill-opacity:1;fill-rule:nonzero;stroke:none"
             d="m 0,0 h -67.507 c -6.735,0 -12.246,5.4 -12.246,12 v 0 c 0,6.6 5.511,12 12.246,12 H 0 c 6.736,0 12.247,-5.4 12.247,-12 v 0 C 12.247,5.4 6.736,0 0,0" /></g><g
           transform="translate(122.9718,34)"
           id="g56"><path
             id="path58"
             style="fill:#191919;fill-opacity:1;fill-rule:nonzero;stroke:none"
             d="M 0,0 H -1.609 L -3.62,4.138 V 0 h -1.609 v 5.793 h 2.413 z M 0,8.069 C 0,7.554 -0.177,7.115 -0.53,6.752 -0.883,6.389 -1.242,6.207 -1.609,6.207 H -5.631 V 0 H -7.24 v 7.862 h 5.229 c 0.268,0 0.402,0.069 0.402,0.207 0,0.138 -0.134,0.207 -0.402,0.207 H -7.24 v 1.655 h 5.631 c 0.367,0 0.726,-0.184 1.079,-0.552 C -0.177,9.011 0,8.575 0,8.069 m 2.011,0 C 2.011,6.984 1.741,6.163 1.2,5.607 0.659,5.051 0.201,4.676 -0.174,4.483 L 2.011,0 H 0.402 l -2.815,5.793 h 0.804 c 0.474,0 0.927,0.223 1.361,0.669 0.433,0.446 0.65,0.982 0.65,1.607 0,0.616 -0.217,1.149 -0.65,1.6 -0.434,0.451 -0.887,0.676 -1.361,0.676 H -7.24 V 12 h 5.631 c 0.921,0 1.754,-0.386 2.501,-1.159 0.746,-0.772 1.119,-1.696 1.119,-2.772" /></g><g
           transform="translate(125.7874,42.2759)"
           id="g60"><path
             id="path62"
             style="fill:#191919;fill-opacity:1;fill-rule:nonzero;stroke:none"
             d="M 0,0 C 0,2.483 1.207,3.724 3.62,3.724 H 8.447 V 2.069 H 3.62 C 2.279,2.069 1.609,1.379 1.609,0 v -4.552 c 0,-1.379 0.67,-2.069 2.011,-2.069 H 8.447 V -8.276 H 3.62 C 1.207,-8.276 0,-7.034 0,-4.552 Z" /></g><g
           transform="translate(127.7986,40.2069)"
           id="g64"><path
             id="path66"
             style="fill:#191919;fill-opacity:1;fill-rule:nonzero;stroke:none"
             d="M 0,0 V 2.069 C 0,3.172 0.536,3.724 1.609,3.724 H 6.436 V 2.069 H 2.011 C 1.743,2.069 1.609,1.931 1.609,1.655 h 3.62 V 0 Z" /></g><g
           transform="translate(127.7986,39.7931)"
           id="g68"><path
             id="path70"
             style="fill:#191919;fill-opacity:1;fill-rule:nonzero;stroke:none"
             d="m 0,0 h 5.229 v -1.655 h -3.62 c 0,-0.276 0.134,-0.414 0.402,-0.414 H 6.436 V -3.724 H 1.609 C 0.536,-3.724 0,-3.172 0,-2.069 Z" /></g><g
           transform="translate(139.8657,43.931)"
           id="g72"><path
             id="path74"
             style="fill:#191919;fill-opacity:1;fill-rule:nonzero;stroke:none"
             d="M 0,0 H 4.425 V -1.655 H 1.609 V -9.931 H 0 Z m -0.402,0 v -9.931 h -1.609 v 8.276 H -4.827 V 0 Z m 4.827,0.414 h -9.251 v 1.655 h 9.251 z" /></g><g
           transform="translate(152.3351,34)"
           id="g76"><path
             id="path78"
             style="fill:#191919;fill-opacity:1;fill-rule:nonzero;stroke:none"
             d="M 0,0 H -1.609 L -3.62,4.138 V 0 h -1.609 v 5.793 h 2.413 z M 0,8.069 C 0,7.554 -0.177,7.115 -0.53,6.752 -0.883,6.389 -1.242,6.207 -1.609,6.207 H -5.631 V 0 H -7.24 v 7.862 h 5.229 c 0.268,0 0.402,0.069 0.402,0.207 0,0.138 -0.134,0.207 -0.402,0.207 H -7.24 v 1.655 h 5.631 c 0.367,0 0.726,-0.184 1.079,-0.552 C -0.177,9.011 0,8.575 0,8.069 m 2.011,0 C 2.011,6.984 1.741,6.163 1.2,5.607 0.659,5.051 0.201,4.676 -0.174,4.483 L 2.011,0 H 0.402 l -2.815,5.793 h 0.804 c 0.474,0 0.927,0.223 1.361,0.669 0.433,0.446 0.65,0.982 0.65,1.607 0,0.616 -0.217,1.149 -0.65,1.6 -0.434,0.451 -0.887,0.676 -1.361,0.676 H -7.24 V 12 h 5.631 c 0.921,0 1.754,-0.386 2.501,-1.159 0.746,-0.772 1.119,-1.696 1.119,-2.772" /></g><g
           transform="translate(160.3799,41.8621)"
           id="g80"><path
             id="path82"
             style="fill:#191919;fill-opacity:1;fill-rule:nonzero;stroke:none"
             d="M 0,0 C 0,0.276 -0.134,0.414 -0.402,0.414 H -1.207 C -1.475,0.414 -1.609,0.276 -1.609,0 v -3.724 c 0,-0.276 0.134,-0.414 0.402,-0.414 h 0.805 C -0.134,-4.138 0,-4 0,-3.724 Z M 1.609,0.414 V -4.138 C 1.609,-5.241 1.073,-5.793 0,-5.793 h -1.609 c -1.073,0 -1.609,0.552 -1.609,1.655 v 4.552 c 0,1.103 0.536,1.655 1.609,1.655 H 0 c 1.073,0 1.609,-0.552 1.609,-1.655 m 0.402,0 C 2.011,1.793 1.341,2.483 0,2.483 h -1.609 c -1.341,0 -2.011,-0.69 -2.011,-2.069 v -4.552 c 0,-1.379 0.67,-2.069 2.011,-2.069 H 0 c 1.341,0 2.011,0.69 2.011,2.069 z m 1.609,0 V -4.138 C 3.62,-6.621 2.413,-7.862 0,-7.862 h -1.609 c -2.413,0 -3.62,1.241 -3.62,3.724 v 4.552 c 0,2.483 1.207,3.724 3.62,3.724 H 0 c 2.413,0 3.62,-1.241 3.62,-3.724" /></g><g
           transform="translate(93.7559,36.7825)"
           id="g84"><path
             id="path86"
             style="fill:#191919;fill-opacity:1;fill-rule:nonzero;stroke:none"
             d="M 0,0 C -0.013,0.036 -0.021,0.076 -0.032,0.114 H 0 Z m 2.266,0.942 c -0.268,0 -0.402,0.138 -0.402,0.413 v 7.862 h -3.62 V 0.942 c 0,-2.483 1.207,-3.725 3.62,-3.725 h 4.827 v 3.725 z" /></g><path
           id="path88"
           style="fill:#191919;fill-opacity:1;fill-rule:nonzero;stroke:none"
           d="m 101.251,34 h 3.62 v 12 h -3.62 z" /><g
           transform="translate(110.9046,41.8621)"
           id="g90"><path
             id="path92"
             style="fill:#191919;fill-opacity:1;fill-rule:nonzero;stroke:none"
             d="M 0,0 H -1.609 V 0.414 H 0 C 0.268,0.414 0.402,0.345 0.402,0.207 0.402,0.069 0.268,0 0,0 m 0,-4.138 h -1.609 v 0.414 H 0 c 0.268,0 0.402,-0.069 0.402,-0.207 0,-0.138 -0.134,-0.207 -0.402,-0.207 m 4.022,4.345 c 0,1.076 -0.373,2 -1.119,2.772 -0.747,0.773 -1.58,1.159 -2.501,1.159 h -5.631 v -12 h 5.631 c 0.921,0 1.754,0.386 2.501,1.159 0.746,0.772 1.119,1.696 1.119,2.772 0,0.782 -0.183,1.467 -0.549,2.055 0.366,0.589 0.549,1.283 0.549,2.083" /></g><g
           transform="translate(215.0714,64)"
           id="g94"><path
             id="path96"
             style="fill:#a12868;fill-opacity:1;fill-rule:nonzero;stroke:none"
             d="m 0,0 h -174.143 c -2.722,0 -4.928,2.262 -4.928,5.053 V 24 h 184 V 5.053 C 4.929,2.262 2.722,0 0,0" /></g><g
           transform="translate(125.5348,76.8801)"
           id="g98"><path
             id="path100"
             style="fill:#ffffff;fill-opacity:1;fill-rule:nonzero;stroke:none"
             d="m 0,0 v -0.809 c 0,-0.285 0.021,-0.549 0.051,-0.806 l -0.498,1.144 C -0.307,-0.339 -0.154,-0.171 0,0 m 22.191,0 v -0.809 c 0,-0.285 0.022,-0.549 0.051,-0.806 l -0.498,1.144 c 0.141,0.132 0.294,0.3 0.447,0.471 m 4.745,7.12 H 25.72 C 24.17,7.12 23.108,6.434 22.58,5.176 22.441,5.419 22.28,5.65 22.093,5.868 21.377,6.699 20.552,7.12 19.64,7.12 H 15.385 C 15.277,7.12 15.174,7.094 15.081,7.049 14.987,7.094 14.884,7.12 14.777,7.12 H 7.785 C 7.677,7.12 7.575,7.094 7.481,7.049 7.387,7.094 7.285,7.12 7.177,7.12 H 3.529 C 1.979,7.12 0.917,6.434 0.388,5.176 0.249,5.419 0.089,5.65 -0.099,5.868 -0.814,6.699 -1.639,7.12 -2.551,7.12 H -6.807 C -7.245,7.12 -7.6,6.71 -7.6,6.205 V 5.731 C -7.635,5.775 -7.661,5.825 -7.698,5.868 -8.414,6.699 -9.239,7.12 -10.151,7.12 h -4.256 c -0.107,0 -0.21,-0.026 -0.304,-0.071 -0.093,0.045 -0.196,0.071 -0.304,0.071 h -2.735 c -0.438,0 -0.793,-0.41 -0.793,-0.915 V 0.106 h -2.67 v 6.099 c 0,0.505 -0.355,0.915 -0.793,0.915 h -2.736 c -0.438,0 -0.793,-0.41 -0.793,-0.915 v -7.014 c 0,-2.625 1.253,-4.071 3.529,-4.071 h 3.648 c 0.108,0 0.21,0.026 0.304,0.071 0.093,-0.045 0.196,-0.071 0.304,-0.071 h 2.735 c 0.108,0 0.211,0.026 0.304,0.071 0.094,-0.045 0.197,-0.071 0.304,-0.071 h 4.256 c 0.912,0 1.737,0.421 2.453,1.252 0.037,0.043 0.063,0.093 0.098,0.137 v -0.474 c 0,-0.505 0.355,-0.915 0.793,-0.915 h 1.216 c 0.052,0 0.103,0.006 0.152,0.017 0.049,-0.011 0.1,-0.017 0.152,-0.017 h 1.216 c 0.353,0 0.652,0.266 0.755,0.634 l 0.056,-0.128 c 0.134,-0.31 0.409,-0.506 0.709,-0.506 h 1.216 c 0.052,0 0.102,0.006 0.152,0.017 0.05,-0.011 0.1,-0.017 0.152,-0.017 h 1.216 c 0.275,0 0.53,0.164 0.675,0.434 0.092,0.172 0.124,0.37 0.108,0.565 0.597,-0.652 1.456,-0.999 2.561,-0.999 h 3.648 c 0.438,0 0.793,0.41 0.793,0.915 v 1.403 c 0,0.062 -0.021,0.116 -0.031,0.175 0.01,0.059 0.031,0.113 0.031,0.175 v 1.403 c 0,0.505 -0.355,0.915 -0.793,0.915 H 7.058 v 0.839 c 0,0.062 -0.021,0.116 -0.031,0.175 0.01,0.059 0.031,0.113 0.031,0.175 v 0.839 h 0.119 c 0.108,0 0.21,0.026 0.304,0.071 C 7.575,2.16 7.677,2.134 7.785,2.134 H 9.12 v -6.099 c 0,-0.505 0.355,-0.915 0.793,-0.915 h 1.216 c 0.052,0 0.102,0.006 0.152,0.017 0.049,-0.011 0.1,-0.017 0.152,-0.017 h 1.216 c 0.438,0 0.793,0.41 0.793,0.915 v 6.099 h 1.15 v -6.099 c 0,-0.505 0.355,-0.915 0.793,-0.915 h 1.216 c 0.052,0 0.102,0.006 0.152,0.017 0.049,-0.011 0.1,-0.017 0.152,-0.017 h 1.215 c 0.354,0 0.653,0.266 0.755,0.634 l 0.056,-0.128 c 0.135,-0.31 0.409,-0.506 0.709,-0.506 h 1.216 c 0.052,0 0.103,0.006 0.152,0.017 0.05,-0.011 0.101,-0.017 0.152,-0.017 h 1.216 c 0.275,0 0.531,0.164 0.675,0.434 0.092,0.172 0.124,0.37 0.109,0.565 0.596,-0.652 1.455,-0.999 2.56,-0.999 h 1.216 c 2.276,0 3.529,1.446 3.529,4.071 v 3.858 c 0,2.625 -1.253,4.071 -3.529,4.071" /></g><g
           transform="translate(124.1999,72.9149)"
           id="g102"><path
             id="path104"
             style="fill:#0000ff;fill-opacity:1;fill-rule:nonzero;stroke:none"
             d="m 0,0 h -1.216 l -1.52,3.507 V 0 h -1.216 v 4.91 h 1.824 z M 0,6.839 C 0,6.402 -0.133,6.03 -0.4,5.722 -0.667,5.414 -0.939,5.26 -1.216,5.26 h -3.04 V 0 h -1.216 v 6.663 h 3.952 c 0.203,0 0.304,0.059 0.304,0.176 0,0.117 -0.101,0.175 -0.304,0.175 h -3.952 v 1.403 h 4.256 c 0.277,0 0.549,-0.156 0.816,-0.468 C -0.133,7.637 0,7.267 0,6.839 m 1.52,0 C 1.52,5.919 1.316,5.223 0.907,4.752 0.498,4.28 0.152,3.963 -0.132,3.799 L 1.52,0 H 0.304 l -2.128,4.91 h 0.608 c 0.358,0 0.701,0.189 1.029,0.567 0.327,0.378 0.491,0.832 0.491,1.362 0,0.522 -0.164,0.974 -0.491,1.356 -0.328,0.382 -0.671,0.572 -1.029,0.572 h -4.256 v 1.403 h 4.256 C -0.52,10.17 0.11,9.843 0.674,9.188 1.238,8.534 1.52,7.75 1.52,6.839" /></g><g
           transform="translate(126.3278,79.9288)"
           id="g106"><path
             id="path108"
             style="fill:#0000ff;fill-opacity:1;fill-rule:nonzero;stroke:none"
             d="M 0,0 C 0,2.104 0.912,3.156 2.736,3.156 H 6.384 V 1.753 H 2.736 C 1.723,1.753 1.216,1.169 1.216,0 v -3.858 c 0,-1.169 0.507,-1.753 1.52,-1.753 H 6.384 V -7.014 H 2.736 C 0.912,-7.014 0,-5.962 0,-3.858 Z" /></g><g
           transform="translate(127.8478,78.1754)"
           id="g110"><path
             id="path112"
             style="fill:#0000ff;fill-opacity:1;fill-rule:nonzero;stroke:none"
             d="M 0,0 V 1.753 C 0,2.689 0.405,3.156 1.216,3.156 H 4.864 V 1.753 H 1.52 C 1.317,1.753 1.216,1.637 1.216,1.403 H 3.952 V 0 Z" /></g><g
           transform="translate(127.8478,77.8247)"
           id="g114"><path
             id="path116"
             style="fill:#0000ff;fill-opacity:1;fill-rule:nonzero;stroke:none"
             d="M 0,0 H 3.952 V -1.403 H 1.216 c 0,-0.234 0.101,-0.351 0.304,-0.351 H 4.864 V -3.156 H 1.216 C 0.405,-3.156 0,-2.689 0,-1.754 Z" /></g><g
           transform="translate(136.9675,81.3316)"
           id="g118"><path
             id="path120"
             style="fill:#0000ff;fill-opacity:1;fill-rule:nonzero;stroke:none"
             d="M 0,0 H 3.344 V -1.403 H 1.216 V -8.417 H 0 Z M -0.304,0 V -8.417 H -1.52 v 7.014 H -3.648 V 0 Z m 3.648,0.351 h -6.992 v 1.403 h 6.992 z" /></g><g
           transform="translate(146.3912,72.9149)"
           id="g122"><path
             id="path124"
             style="fill:#0000ff;fill-opacity:1;fill-rule:nonzero;stroke:none"
             d="m 0,0 h -1.216 l -1.52,3.507 V 0 h -1.216 v 4.91 h 1.824 z M 0,6.839 C 0,6.402 -0.133,6.03 -0.4,5.722 -0.667,5.414 -0.939,5.26 -1.216,5.26 h -3.04 V 0 h -1.216 v 6.663 h 3.952 c 0.203,0 0.304,0.059 0.304,0.176 0,0.117 -0.101,0.175 -0.304,0.175 h -3.952 v 1.403 h 4.256 c 0.277,0 0.549,-0.156 0.816,-0.468 C -0.133,7.637 0,7.267 0,6.839 m 1.52,0 C 1.52,5.919 1.316,5.223 0.907,4.752 0.498,4.28 0.152,3.963 -0.132,3.799 L 1.52,0 H 0.304 l -2.128,4.91 h 0.608 c 0.358,0 0.701,0.189 1.029,0.567 0.327,0.378 0.491,0.832 0.491,1.362 0,0.522 -0.164,0.974 -0.491,1.356 -0.328,0.382 -0.671,0.572 -1.029,0.572 h -4.256 v 1.403 h 4.256 C -0.52,10.17 0.11,9.843 0.674,9.188 1.238,8.534 1.52,7.75 1.52,6.839" /></g><g
           transform="translate(152.4711,79.5782)"
           id="g126"><path
             id="path128"
             style="fill:#0000ff;fill-opacity:1;fill-rule:nonzero;stroke:none"
             d="M 0,0 C 0,0.234 -0.101,0.351 -0.304,0.351 H -0.912 C -1.115,0.351 -1.216,0.234 -1.216,0 v -3.156 c 0,-0.234 0.101,-0.351 0.304,-0.351 h 0.608 C -0.101,-3.507 0,-3.39 0,-3.156 Z M 1.216,0.351 V -3.507 C 1.216,-4.442 0.811,-4.91 0,-4.91 h -1.216 c -0.811,0 -1.216,0.468 -1.216,1.403 v 3.858 c 0,0.935 0.405,1.402 1.216,1.402 H 0 c 0.811,0 1.216,-0.467 1.216,-1.402 m 0.304,0 C 1.52,1.52 1.013,2.104 0,2.104 h -1.216 c -1.013,0 -1.52,-0.584 -1.52,-1.753 v -3.858 c 0,-1.169 0.507,-1.753 1.52,-1.753 H 0 c 1.013,0 1.52,0.584 1.52,1.753 z m 1.216,0 V -3.507 C 2.736,-5.611 1.824,-6.663 0,-6.663 h -1.216 c -1.824,0 -2.736,1.052 -2.736,3.156 v 3.858 c 0,2.104 0.912,3.156 2.736,3.156 H 0 c 1.824,0 2.736,-1.052 2.736,-3.156" /></g><g
           transform="translate(103.8329,76.0712)"
           id="g130"><path
             id="path132"
             style="fill:#0000ff;fill-opacity:1;fill-rule:nonzero;stroke:none"
             d="M 0,0 C -0.203,0 -0.304,0.117 -0.304,0.351 V 7.014 H -3.04 V 0 c 0,-2.104 0.912,-3.156 2.736,-3.156 H 3.344 V 0 Z" /></g><path
           id="path134"
           style="fill:#0000ff;fill-opacity:1;fill-rule:nonzero;stroke:none"
           d="m 107.784,72.915 h 2.736 v 10.17 h -2.736 z" /><g
           transform="translate(115.0802,79.5782)"
           id="g136"><path
             id="path138"
             style="fill:#0000ff;fill-opacity:1;fill-rule:nonzero;stroke:none"
             d="M 0,0 H -1.216 V 0.351 H 0 C 0.203,0.351 0.304,0.292 0.304,0.175 0.304,0.058 0.203,0 0,0 m 0,-3.507 h -1.216 v 0.351 H 0 c 0.203,0 0.304,-0.059 0.304,-0.176 C 0.304,-3.449 0.203,-3.507 0,-3.507 M 3.04,0.175 C 3.04,1.087 2.758,1.87 2.194,2.525 1.63,3.18 1,3.507 0.304,3.507 h -4.256 v -10.17 h 4.256 c 0.696,0 1.326,0.327 1.89,0.982 0.564,0.654 0.846,1.438 0.846,2.349 0,0.663 -0.139,1.243 -0.416,1.742 0.277,0.499 0.416,1.087 0.416,1.765" /></g><g
           transform="translate(68,64)"
           id="g140"><path
             id="path142"
             style="fill:#b62971;fill-opacity:1;fill-rule:nonzero;stroke:none"
             d="M 0,0 H -27.352 C -29.919,0 -32,2.142 -32,4.785 v 100.077 c 0,10.57 8.323,19.138 18.59,19.138 H 0 Z" /></g><g
           transform="translate(188,108)"
           id="g144"><path
             id="path146"
             style="fill:#000000;fill-opacity:1;fill-rule:nonzero;stroke:none"
             d="M 0,0 V -5.027 -5.742 -22.997 -23.61 -28 h 20 v 4.39 0.613 17.255 0.715 V 0 Z" /></g><path
           id="path148"
           style="fill:#ffffff;fill-opacity:1;fill-rule:nonzero;stroke:none"
           d="m 207.333,85.111 h -18.667 v 17.141 h 18.667 z" /><path
           id="path150"
           style="fill:#ffffff;fill-opacity:1;fill-rule:nonzero;stroke:none"
           d="m 188.667,107.36 h 18.667 v -4.387 h -18.667 z" /><g
           transform="translate(190.9354,82.7802)"
           id="g152"><path
             id="path154"
             style="fill:#ffffff;fill-opacity:1;fill-rule:nonzero;stroke:none"
             d="M 0,0 H 2.101 V -1.634 C 1.469,-1.759 0.734,-1.841 0.068,-1.841 c -1.469,0 -2.186,0.687 -2.186,1.642 0,0.956 0.717,1.643 2.231,1.643 1.254,0 1.909,-0.316 1.926,-1.046 H 0.525 C 0.52,0.497 0.469,0.562 0.401,0.601 0.333,0.64 0.237,0.657 0.136,0.657 c -0.243,0 -0.401,-0.095 -0.48,-0.22 -0.08,-0.126 -0.102,-0.432 -0.102,-0.696 0,-0.303 0.034,-0.51 0.107,-0.61 0.096,-0.13 0.254,-0.185 0.463,-0.185 0.153,0 0.3,0.017 0.43,0.064 v 0.377 H 0 Z" /></g><g
           transform="translate(195.8126,82.2832)"
           id="g156"><path
             id="path158"
             style="fill:#ffffff;fill-opacity:1;fill-rule:nonzero;stroke:none"
             d="M 0,0 -0.322,1.176 H -0.333 L -0.689,0 Z m -1.339,1.859 h 2.096 l 1.31,-3.121 H 0.395 l -0.158,0.501 h -1.169 l -0.164,-0.501 h -1.548 z" /></g><g
           transform="translate(202.0846,83.2514)"
           id="g160"><path
             id="path162"
             style="fill:#ffffff;fill-opacity:1;fill-rule:nonzero;stroke:none"
             d="m 0,0 h -0.011 l -0.576,-2.23 h -1.48 L -2.643,0 h -0.012 v -2.23 h -1.367 v 3.12 h 2.243 l 0.446,-1.858 h 0.011 L -0.875,0.89 H 1.367 V -2.23 H 0 Z" /></g><g
           transform="translate(204.0309,84.1419)"
           id="g164"><path
             id="path166"
             style="fill:#ffffff;fill-opacity:1;fill-rule:nonzero;stroke:none"
             d="M 0,0 H 3.101 V -0.813 H 1.548 V -1.145 H 2.982 V -1.958 H 1.548 v -0.35 H 3.152 V -3.121 H 0 Z" /></g><g
           transform="translate(191.5649,106.5946)"
           id="g168"><path
             id="path170"
             style="fill:#000000;fill-opacity:1;fill-rule:nonzero;stroke:none"
             d="m 0,0 h 0.734 l -0.97,-2.634 H -1.118 L -2.059,0 h 0.815 l 0.602,-1.908 h 0.007 z" /></g><path
           id="path172"
           style="fill:#000000;fill-opacity:1;fill-rule:nonzero;stroke:none"
           d="m 192.456,106.595 h 0.738 v -2.634 h -0.738 z" /><g
           transform="translate(193.5489,106.5946)"
           id="g174"><path
             id="path176"
             style="fill:#000000;fill-opacity:1;fill-rule:nonzero;stroke:none"
             d="m 0,0 h 1.033 l 0.894,-1.963 0.007,0.007 V 0 H 2.598 V -2.634 H 1.576 L 0.672,-0.617 H 0.664 V -2.634 H 0 Z" /></g><g
           transform="translate(197.1082,106.0838)"
           id="g178"><path
             id="path180"
             style="fill:#000000;fill-opacity:1;fill-rule:nonzero;stroke:none"
             d="M 0,0 H -0.816 V 0.511 H 1.572 V 0 H 0.738 V -2.123 H 0 Z" /></g><g
           transform="translate(200.1654,104.9856)"
           id="g182"><path
             id="path184"
             style="fill:#000000;fill-opacity:1;fill-rule:nonzero;stroke:none"
             d="M 0,0 -0.34,1.095 H -0.351 L -0.712,0 Z m -1.812,-1.025 1.052,2.634 h 0.9 L 1.192,-1.025 H 0.358 l -0.177,0.514 h -1.082 l -0.173,-0.514 z" /></g><g
           transform="translate(203.3596,104.9455)"
           id="g186"><path
             id="path188"
             style="fill:#000000;fill-opacity:1;fill-rule:nonzero;stroke:none"
             d="M 0,0 H -0.543 V 0.511 H 0.738 V -0.897 C 0.14,-0.985 0.026,-1.04 -0.616,-1.04 c -0.831,0.026 -1.336,0.547 -1.336,1.372 0,0.825 0.505,1.346 1.336,1.372 C 0.029,1.722 0.709,1.627 0.72,0.861 h -0.739 c -0.036,0.255 -0.239,0.332 -0.483,0.332 -0.498,0 -0.675,-0.434 -0.675,-0.861 0,-0.518 0.262,-0.861 0.793,-0.861 0.137,0 0.273,0.022 0.384,0.044 z" /></g><g
           transform="translate(204.4646,103.9604)"
           id="g190"><path
             id="path192"
             style="fill:#000000;fill-opacity:1;fill-rule:nonzero;stroke:none"
             d="M 0,0 V 2.634 H 2.03 V 2.123 H 0.738 V 1.58 H 1.927 V 1.069 H 0.738 V 0.511 H 2.03 V 0 Z" /></g><g
           transform="translate(189.9393,97.6964)"
           id="g194"><path
             id="path196"
             style="fill:#000000;fill-opacity:1;fill-rule:nonzero;stroke:none"
             d="m 0,0 5.089,1.515 4.753,-9.22 0.035,0.01 L 8.762,2.607 13.554,4.033 13.822,-9.5 7.351,-11.426 Z" /></g><g
           transform="translate(47.3537,76.4243)"
           id="g198"><path
             id="path200"
             style="fill:#e6e6e6;fill-opacity:1;fill-rule:nonzero;stroke:none"
             d="m 0,0 3.913,-0.504 v 1.439 c 0,0.552 -0.19,1.049 -0.568,1.493 C 2.967,2.872 2.504,3.129 1.956,3.201 1.421,3.273 0.961,3.135 0.576,2.788 0.192,2.44 0,1.954 0,1.331 Z m 12.297,-4.424 -13.415,1.69 c -1.118,0.144 -1.677,0.792 -1.677,1.943 v 2.59 c 0,1.33 0.469,2.418 1.406,3.264 0.938,0.845 2.053,1.184 3.345,1.016 C 3.261,5.911 4.472,5.186 5.59,3.903 5.776,4.67 6.521,5.126 7.825,5.27 l 4.472,0.665 V 3.057 L 7.825,2.464 C 7.08,2.176 6.707,1.649 6.707,0.881 v -1.726 l 5.59,-0.702 z" /></g><g
           transform="translate(44.559,93.4742)"
           id="g202"><path
             id="path204"
             style="fill:#e6e6e6;fill-opacity:1;fill-rule:nonzero;stroke:none"
             d="m 0,0 2.795,-0.36 v -5.179 l 3.353,-0.432 v 5.18 l 2.795,-0.342 v -5.18 l 3.354,-0.431 v 5.179 l 2.795,-0.341 v -6.331 c 0,-1.151 -0.559,-1.661 -1.677,-1.529 L 1.677,-8.273 C 0.559,-8.129 0,-7.482 0,-6.331 Z" /></g><g
           transform="translate(47.3537,94.2655)"
           id="g206"><path
             id="path208"
             style="fill:#e6e6e6;fill-opacity:1;fill-rule:nonzero;stroke:none"
             d="M 0,0 -2.795,0.36 V 8.993 L 0,8.633 V 5.755 L 12.297,4.208 V 1.331 L 0,2.878 Z" /></g><g
           transform="translate(47.3537,106.3515)"
           id="g210"><path
             id="path212"
             style="fill:#e6e6e6;fill-opacity:1;fill-rule:nonzero;stroke:none"
             d="m 0,0 3.913,-0.504 v 1.439 c 0,0.552 -0.19,1.049 -0.568,1.493 C 2.967,2.872 2.504,3.129 1.956,3.201 1.421,3.273 0.961,3.135 0.576,2.788 0.192,2.44 0,1.954 0,1.331 Z m 12.297,-4.424 -13.415,1.69 c -1.118,0.144 -1.677,0.792 -1.677,1.943 v 2.59 c 0,1.33 0.469,2.418 1.406,3.264 0.938,0.845 2.053,1.184 3.345,1.016 C 3.261,5.911 4.472,5.186 5.59,3.903 5.776,4.67 6.521,5.126 7.825,5.27 l 4.472,0.665 V 3.057 L 7.825,2.464 C 7.08,2.176 6.707,1.649 6.707,0.881 v -1.726 l 5.59,-0.702 z" /></g><g
           transform="translate(52.1048,115.7337)"
           id="g214"><path
             id="path216"
             style="fill:#e6e6e6;fill-opacity:1;fill-rule:nonzero;stroke:none"
             d="M 0,0 C 1.304,-0.168 2.422,0.111 3.354,0.836 4.285,1.562 4.751,2.518 4.751,3.705 4.751,4.88 4.285,5.953 3.354,6.924 2.422,7.895 1.304,8.465 0,8.633 -1.293,8.789 -2.408,8.501 -3.345,7.77 -4.282,7.038 -4.751,6.085 -4.751,4.91 -4.751,3.723 -4.282,2.647 -3.345,1.682 -2.408,0.716 -1.293,0.156 0,0 m 0,-2.878 c -2.061,0.252 -3.834,1.178 -5.319,2.779 -1.484,1.601 -2.227,3.39 -2.227,5.369 0,1.966 0.743,3.561 2.227,4.784 C -3.834,11.277 -2.061,11.762 0,11.51 2.073,11.247 3.849,10.314 5.327,8.714 6.806,7.113 7.546,5.33 7.546,3.363 7.546,1.385 6.806,-0.216 5.327,-1.439 3.849,-2.662 2.073,-3.141 0,-2.878" /></g><g
           transform="translate(51.8253,133.0712)"
           id="g218"><path
             id="path220"
             style="fill:#e6e6e6;fill-opacity:1;fill-rule:nonzero;stroke:none"
             d="m 0,0 c -2.143,0.276 -3.983,1.214 -5.52,2.815 -1.537,1.6 -2.305,3.39 -2.305,5.368 0,1.967 0.442,3.393 1.327,4.281 0.885,0.887 1.677,1.51 2.376,1.87 L -2.795,11.87 C -3.4,11.51 -3.924,11.04 -4.367,10.458 -4.809,9.877 -5.031,8.999 -5.031,7.824 -5.031,6.636 -4.536,5.557 -3.546,4.586 -2.556,3.615 -1.374,3.045 0,2.878 1.386,2.698 2.629,2.962 3.729,3.669 4.83,4.376 5.38,5.324 5.38,6.511 5.38,7.686 5.007,8.651 4.262,9.406 3.517,10.162 2.841,10.629 2.236,10.809 V 7.194 l -2.795,0.935 v 5.18 c 0,0.767 0.559,1.079 1.677,0.935 1.409,-0.18 2.937,-1.079 4.585,-2.698 C 7.351,9.928 8.175,8.135 8.175,6.169 8.175,4.191 7.351,2.599 5.703,1.394 4.055,0.189 2.154,-0.276 0,0" /></g><g
           transform="translate(44.559,157.5489)"
           id="g222"><path
             id="path224"
             style="fill:#e6e6e6;fill-opacity:1;fill-rule:nonzero;stroke:none"
             d="m 0,0 2.795,-0.36 v -5.179 l 3.353,-0.432 v 5.18 l 2.795,-0.342 v -5.18 l 3.354,-0.431 v 5.179 l 2.795,-0.341 v -6.331 c 0,-1.151 -0.559,-1.661 -1.677,-1.529 L 1.677,-8.273 C 0.559,-8.129 0,-7.482 0,-6.331 Z" /></g><g
           transform="translate(50.1485,164.4552)"
           id="g226"><path
             id="path228"
             style="fill:#e6e6e6;fill-opacity:1;fill-rule:nonzero;stroke:none"
             d="m 0,0 3.913,-1.942 v 2.32 z m 9.502,-7.662 -12.856,5.648 c -0.605,0.168 -1.129,0.482 -1.572,0.944 -0.442,0.462 -0.664,1.01 -0.664,1.646 0,0.623 0.222,1.121 0.664,1.492 0.443,0.372 0.967,0.594 1.572,0.666 L 9.502,3.849 V 0.971 L 6.707,0.629 v -3.794 l 2.795,-1.187 z" /></g><g
           transform="translate(47.3537,173.8793)"
           id="g230"><path
             id="path232"
             style="fill:#e6e6e6;fill-opacity:1;fill-rule:nonzero;stroke:none"
             d="m 0,0 3.913,-0.504 v 1.439 c 0,0.552 -0.19,1.049 -0.568,1.493 C 2.967,2.872 2.504,3.129 1.956,3.201 1.421,3.273 0.961,3.135 0.576,2.788 0.192,2.44 0,1.954 0,1.331 Z m 12.297,-4.424 -13.415,1.69 c -1.118,0.144 -1.677,0.792 -1.677,1.943 v 2.59 c 0,1.33 0.469,2.418 1.406,3.264 0.938,0.845 2.053,1.184 3.345,1.016 C 3.261,5.911 4.472,5.186 5.59,3.903 5.776,4.67 6.521,5.126 7.825,5.27 l 4.472,0.665 V 3.057 L 7.825,2.464 C 7.08,2.176 6.707,1.649 6.707,0.881 v -1.726 l 5.59,-0.702 z" /></g><g
           transform="translate(88,107.8864)"
           id="g234"><path
             id="path236"
             style="fill:#f39b11;fill-opacity:1;fill-rule:nonzero;stroke:none"
             d="m 0,0 c -7.285,0 -13.212,-5.332 -13.212,-11.886 0,-6.555 5.927,-11.887 13.212,-11.887 7.285,0 13.212,5.332 13.212,11.887 C 13.212,-5.332 7.285,0 0,0" /></g><g
           transform="translate(85.6752,97.022)"
           id="g238"><path
             id="path240"
             style="fill:#e77f22;fill-opacity:1;fill-rule:nonzero;stroke:none"
             d="m 0,0 c 0,0 -9.573,4.155 -9.45,4.365 0.122,0.211 1.36,1.918 1.36,1.918 l 6.028,-4.087 0.253,0.416 -5.016,4.932 0.945,0.743 6.385,-6.773 z" /></g><g
           transform="translate(80.6336,105.8629)"
           id="g242"><path
             id="path244"
             style="fill:#d4a600;fill-opacity:1;fill-rule:nonzero;stroke:none"
             d="m 0,0 3.863,-4.915 2.454,0.7 -1.106,6.08 -2.053,-0.46 1.505,-4.53 -0.631,-0.189 -2.916,3.921 z" /></g><g
           transform="translate(88.4944,98.9526)"
           id="g246"><path
             id="path248"
             style="fill:#d35400;fill-opacity:1;fill-rule:nonzero;stroke:none"
             d="M 0,0 C 0.21,0.416 3.357,8.42 3.509,8.376 3.662,8.331 4.202,8.157 4.202,8.157 4.202,8.157 2.651,5.471 2.819,5.385 2.988,5.3 3.156,5.051 3.156,5.051 L 5.237,7.756 6.705,7.009 4.202,4.188 5.891,1.987 10.062,4.188 11.404,2.213 2.062,-0.909 Z" /></g><g
           transform="translate(100.095,91.2187)"
           id="g250"><path
             id="path252"
             style="fill:#d35400;fill-opacity:1;fill-rule:nonzero;stroke:none"
             d="m 0,0 -3.48,0.75 c 0,0 -1.178,-0.534 -0.967,-0.75 0.21,-0.216 3.166,-2.039 3.166,-2.039 l -1.46,-1.566 -2.972,2.671 c 0,0 -0.846,-0.282 -0.67,-0.494 0.175,-0.212 2.724,-2.932 2.724,-2.932 l -1.237,-0.928 -2.16,3.019 -2.062,-1.013 0.887,-3.304 -2.606,-0.465 -0.932,8.804 10.867,0.416 1.237,-1.419 z" /></g><g
           transform="translate(83.0664,94.0694)"
           id="g254"><path
             id="path256"
             style="fill:#e77f22;fill-opacity:1;fill-rule:nonzero;stroke:none"
             d="m 0,0 -6.843,-3.293 c 0,0 0.469,-0.922 0.584,-1.085 0.115,-0.163 2.514,1.463 2.514,1.463 0,0 0.395,-0.757 0.324,-0.833 -0.071,-0.075 -2.131,-1.544 -2.131,-1.544 l 0.986,-1.029 2.133,1.741 1.044,-0.871 -1.681,-2.069 0.637,-0.412 1.634,2.027 0.799,-0.416 -1.284,-2.234 0.779,-0.347 1.231,2.315 1.21,-0.34 -0.859,-2.512 1.101,-0.256 0.936,2.578 0.338,3.672 z" /></g><g
           transform="translate(99.4451,96)"
           id="g258"><path
             id="path260"
             style="fill:#ffff00;fill-opacity:1;fill-rule:nonzero;stroke:none"
             d="m 0,0 c 0,-5.687 -5.124,-10.297 -11.445,-10.297 -6.321,0 -11.445,4.61 -11.445,10.297 0,5.687 5.124,10.297 11.445,10.297 C -5.124,10.297 0,5.687 0,0" /></g><g
           transform="translate(86.9505,107.7275)"
           id="g262"><path
             id="path264"
             style="fill:#d9d9d9;fill-opacity:1;fill-rule:nonzero;stroke:none"
             d="M 0,0 0.744,-11.084 1.461,-23.608 2.308,-23.56 1.049,-11.046 1.845,0.137 Z" /></g><g
           transform="translate(80.6336,103.8798)"
           id="g266"><path
             id="path268"
             style="fill:#d4a600;fill-opacity:1;fill-rule:nonzero;stroke:none"
             d="M 0,0 6.809,-7.426 11.3,-17.552 c 0,0 2.131,0.721 3.266,1.669 l -7.2,8.685 -5.627,8.285 z" /></g><g
           transform="translate(87.4425,96.4542)"
           id="g270"><path
             id="path272"
             style="fill:#e6e6e6;fill-opacity:1;fill-rule:nonzero;stroke:none"
             d="M 0,0 -0.924,9.756 1.346,9.842 0.926,0 0.842,-4.486 1.816,-10.689 h -2.279 l 0.909,6.411 z" /></g><g
           transform="translate(88.3642,96.242)"
           id="g274"><path
             id="path276"
             style="fill:#eac500;fill-opacity:1;fill-rule:nonzero;stroke:none"
             d="m 0,0 -7.211,-8.494 -2.418,2.208 8.918,7.255 3.66,-0.984 6.346,-5.753 -1.635,-1.815 z" /></g><g
           transform="translate(88.9573,98.6877)"
           id="g278"><path
             id="path280"
             style="fill:#e6e6e6;fill-opacity:1;fill-rule:nonzero;stroke:none"
             d="M 0,0 6.242,5.316 7.478,4.271 1.346,-0.795 Z" /></g><g
           transform="translate(88,106.2965)"
           id="g282"><path
             id="path284"
             style="fill:#ffff00;fill-opacity:1;fill-rule:nonzero;stroke:none"
             d="m 0,0 c -6.321,0 -11.445,-4.61 -11.445,-10.297 0,-5.686 5.124,-10.296 11.445,-10.296 6.321,0 11.445,4.61 11.445,10.296 C 11.445,-4.61 6.321,0 0,0 m 0,-0.227 c 6.172,0 11.193,-4.517 11.193,-10.07 0,-5.552 -5.021,-10.069 -11.193,-10.069 -6.172,0 -11.193,4.517 -11.193,10.069 0,5.553 5.021,10.07 11.193,10.07" /></g><g
           transform="translate(88,107.7729)"
           id="g286"><path
             id="path288"
             style="fill:#f39b11;fill-opacity:1;fill-rule:nonzero;stroke:none"
             d="m 0,0 c -7.216,0 -13.086,-5.281 -13.086,-11.773 0,-6.492 5.87,-11.773 13.086,-11.773 7.216,0 13.086,5.281 13.086,11.773 C 13.086,-5.281 7.216,0 0,0 m 0,-23.773 c -7.355,0 -13.339,5.383 -13.339,12 0,6.617 5.984,12 13.339,12 7.355,0 13.339,-5.383 13.339,-12 0,-6.617 -5.984,-12 -13.339,-12" /></g><g
           transform="translate(101.2328,100.94)"
           id="g290"><path
             id="path292"
             style="fill:#eac500;fill-opacity:1;fill-rule:nonzero;stroke:none"
             d="m 0,0 h -0.325 -25.689 -0.314 l -0.221,-0.2 -2.462,-2.214 -0.222,-0.2 v -0.282 -2.953 -0.268 l 0.203,-0.196 2.525,-2.441 0.224,-0.218 h 0.33 25.689 0.331 l 0.225,0.22 2.272,2.214 0.201,0.196 v 0.266 3.18 0.272 l -0.208,0.197 -2.335,2.215 z" /></g><g
           transform="translate(72.7574,98.0441)"
           id="g294"><path
             id="path296"
             style="fill:#ffff00;fill-opacity:1;fill-rule:nonzero;stroke:none"
             d="M 0,0 2.462,2.215 H 28.15 L 30.485,0 V -3.18 L 28.213,-5.394 H 2.525 L 0,-2.953 Z" /></g><g
           transform="translate(103.2426,98.0441)"
           id="g298"><path
             id="path300"
             style="fill:#d4a600;fill-opacity:1;fill-rule:nonzero;stroke:none"
             d="m 0,0 v -3.18 l -2.272,-2.214 h -25.689 l -2.524,2.441 -0.758,-0.258 v -0.01 l 0.203,-0.196 2.525,-2.441 0.225,-0.218 h 0.329 25.689 0.331 l 0.225,0.219 2.273,2.215 0.2,0.196 V -3.18 0 0.237 Z" /></g><g
           transform="translate(86.3656,94.5966)"
           id="g302"><path
             id="path304"
             style="fill:#262626;fill-opacity:1;fill-rule:nonzero;stroke:none"
             d="M 0,0 H -0.61 L -1.372,1.371 V 0 h -0.609 v 1.92 h 0.914 z M 0,2.674 C 0,2.503 -0.067,2.358 -0.201,2.237 -0.334,2.117 -0.471,2.057 -0.61,2.057 H -2.134 V 0 h -0.61 v 2.605 h 1.982 c 0.102,0 0.152,0.023 0.152,0.069 0,0.046 -0.05,0.068 -0.152,0.068 h -1.982 v 0.549 h 2.134 c 0.139,0 0.276,-0.061 0.409,-0.183 C -0.067,2.986 0,2.842 0,2.674 m 0.762,0 C 0.762,2.314 0.66,2.042 0.455,1.858 0.25,1.674 0.076,1.55 -0.066,1.486 L 0.762,0 h -0.61 l -1.067,1.92 h 0.305 c 0.18,0 0.352,0.074 0.516,0.221 0.164,0.148 0.246,0.326 0.246,0.533 0,0.204 -0.082,0.381 -0.246,0.53 -0.164,0.149 -0.336,0.224 -0.516,0.224 h -2.134 v 0.549 h 2.134 c 0.349,0 0.665,-0.128 0.948,-0.384 C 0.621,3.337 0.762,3.03 0.762,2.674" /></g><g
           transform="translate(87.4326,97.3391)"
           id="g306"><path
             id="path308"
             style="fill:#262626;fill-opacity:1;fill-rule:nonzero;stroke:none"
             d="M 0,0 C 0,0.823 0.457,1.234 1.372,1.234 H 3.201 V 0.686 H 1.372 C 0.864,0.686 0.61,0.457 0.61,0 v -1.508 c 0,-0.457 0.254,-0.686 0.762,-0.686 H 3.201 V -2.742 H 1.372 C 0.457,-2.742 0,-2.331 0,-1.508 Z" /></g><g
           transform="translate(88.1947,96.6535)"
           id="g310"><path
             id="path312"
             style="fill:#262626;fill-opacity:1;fill-rule:nonzero;stroke:none"
             d="M 0,0 V 0.686 C 0,1.051 0.203,1.234 0.61,1.234 H 2.439 V 0.686 H 0.762 C 0.66,0.686 0.61,0.64 0.61,0.549 H 1.981 V 0 Z" /></g><g
           transform="translate(88.1947,96.5164)"
           id="g314"><path
             id="path316"
             style="fill:#262626;fill-opacity:1;fill-rule:nonzero;stroke:none"
             d="M 0,0 H 1.981 V -0.549 H 0.61 c 0,-0.091 0.05,-0.137 0.152,-0.137 H 2.439 V -1.234 H 0.61 C 0.203,-1.234 0,-1.051 0,-0.686 Z" /></g><g
           transform="translate(92.7673,97.8876)"
           id="g318"><path
             id="path320"
             style="fill:#262626;fill-opacity:1;fill-rule:nonzero;stroke:none"
             d="M 0,0 H 1.677 V -0.549 H 0.61 V -3.291 H 0 Z m -0.152,0 v -3.291 h -0.61 v 2.742 H -1.829 V 0 Z m 1.829,0.137 h -3.506 v 0.549 h 3.506 z" /></g><g
           transform="translate(97.4924,94.5966)"
           id="g322"><path
             id="path324"
             style="fill:#262626;fill-opacity:1;fill-rule:nonzero;stroke:none"
             d="M 0,0 H -0.61 L -1.372,1.371 V 0 h -0.609 v 1.92 h 0.914 z M 0,2.674 C 0,2.503 -0.067,2.358 -0.201,2.237 -0.334,2.117 -0.471,2.057 -0.61,2.057 H -2.134 V 0 h -0.61 v 2.605 h 1.982 c 0.102,0 0.152,0.023 0.152,0.069 0,0.046 -0.05,0.068 -0.152,0.068 h -1.982 v 0.549 h 2.134 c 0.139,0 0.276,-0.061 0.409,-0.183 C -0.067,2.986 0,2.842 0,2.674 m 0.762,0 C 0.762,2.314 0.66,2.042 0.455,1.858 0.25,1.674 0.076,1.55 -0.066,1.486 L 0.762,0 h -0.61 l -1.067,1.92 h 0.305 c 0.18,0 0.352,0.074 0.516,0.221 0.164,0.148 0.246,0.326 0.246,0.533 0,0.204 -0.082,0.381 -0.246,0.53 -0.164,0.149 -0.336,0.224 -0.516,0.224 h -2.134 v 0.549 h 2.134 c 0.349,0 0.665,-0.128 0.948,-0.384 C 0.621,3.337 0.762,3.03 0.762,2.674" /></g><g
           transform="translate(100.5408,97.202)"
           id="g326"><path
             id="path328"
             style="fill:#262626;fill-opacity:1;fill-rule:nonzero;stroke:none"
             d="M 0,0 C 0,0.091 -0.051,0.137 -0.152,0.137 H -0.457 C -0.559,0.137 -0.61,0.091 -0.61,0 v -1.234 c 0,-0.092 0.051,-0.137 0.153,-0.137 h 0.305 C -0.051,-1.371 0,-1.326 0,-1.234 Z M 0.61,0.137 V -1.371 C 0.61,-1.737 0.406,-1.92 0,-1.92 h -0.61 c -0.406,0 -0.609,0.183 -0.609,0.549 v 1.508 c 0,0.366 0.203,0.549 0.609,0.549 H 0 c 0.406,0 0.61,-0.183 0.61,-0.549 m 0.152,0 C 0.762,0.594 0.508,0.823 0,0.823 h -0.61 c -0.508,0 -0.762,-0.229 -0.762,-0.686 v -1.508 c 0,-0.457 0.254,-0.686 0.762,-0.686 H 0 c 0.508,0 0.762,0.229 0.762,0.686 z m 0.61,0 V -1.371 C 1.372,-2.194 0.915,-2.605 0,-2.605 h -0.61 c -0.914,0 -1.371,0.411 -1.371,1.234 v 1.508 c 0,0.823 0.457,1.234 1.371,1.234 H 0 c 0.915,0 1.372,-0.411 1.372,-1.234" /></g><g
           transform="translate(75.2948,95.5187)"
           id="g330"><path
             id="path332"
             style="fill:#262626;fill-opacity:1;fill-rule:nonzero;stroke:none"
             d="M 0,0 C -0.005,0.012 -0.008,0.025 -0.012,0.038 H 0 Z m 0.859,0.312 c -0.102,0 -0.153,0.046 -0.153,0.137 V 3.055 H -0.665 V 0.312 c 0,-0.823 0.457,-1.234 1.371,-1.234 h 1.829 v 1.234 z" /></g><path
           id="path334"
           style="fill:#262626;fill-opacity:1;fill-rule:nonzero;stroke:none"
           d="m 78.135,94.597 h 1.372 v 3.977 h -1.372 z" /><g
           transform="translate(81.793,97.202)"
           id="g336"><path
             id="path338"
             style="fill:#262626;fill-opacity:1;fill-rule:nonzero;stroke:none"
             d="M 0,0 H -0.61 V 0.137 H 0 C 0.102,0.137 0.152,0.114 0.152,0.069 0.152,0.023 0.102,0 0,0 m 0,-1.371 h -0.61 v 0.137 H 0 c 0.102,0 0.152,-0.023 0.152,-0.069 0,-0.045 -0.05,-0.068 -0.152,-0.068 m 1.524,1.44 C 1.524,0.425 1.383,0.731 1.1,0.987 0.817,1.243 0.501,1.371 0.152,1.371 h -2.133 v -3.976 h 2.133 c 0.349,0 0.665,0.128 0.948,0.384 0.283,0.256 0.424,0.562 0.424,0.918 0,0.259 -0.069,0.486 -0.208,0.681 0.139,0.195 0.208,0.425 0.208,0.691" /></g><g
           transform="translate(129,237)"
           id="g340"><path
             id="path342"
             style="fill:#191919;fill-opacity:1;fill-rule:nonzero;stroke:none"
             d="m 0,0 c 0,-0.552 -0.448,-1 -1,-1 -0.552,0 -1,0.448 -1,1 0,0.552 0.448,1 1,1 0.552,0 1,-0.448 1,-1" /></g><g
           transform="translate(137,237)"
           id="g344"><path
             id="path346"
             style="fill:#191919;fill-opacity:1;fill-rule:nonzero;stroke:none"
             d="m 0,0 c 0,-0.552 -0.448,-1 -1,-1 -0.552,0 -1,0.448 -1,1 0,0.552 0.448,1 1,1 0.552,0 1,-0.448 1,-1" /></g><g
           transform="translate(145,237)"
           id="g348"><path
             id="path350"
             style="fill:#191919;fill-opacity:1;fill-rule:nonzero;stroke:none"
             d="m 0,0 c 0,-0.552 -0.448,-1 -1,-1 -0.552,0 -1,0.448 -1,1 0,0.552 0.448,1 1,1 0.552,0 1,-0.448 1,-1" /></g><g
           transform="translate(153,237)"
           id="g352"><path
             id="path354"
             style="fill:#191919;fill-opacity:1;fill-rule:nonzero;stroke:none"
             d="m 0,0 c 0,-0.552 -0.448,-1 -1,-1 -0.552,0 -1,0.448 -1,1 0,0.552 0.448,1 1,1 0.552,0 1,-0.448 1,-1" /></g><g
           transform="translate(121,237)"
           id="g356"><path
             id="path358"
             style="fill:#191919;fill-opacity:1;fill-rule:nonzero;stroke:none"
             d="m 0,0 c 0,-0.552 -0.448,-1 -1,-1 -0.552,0 -1,0.448 -1,1 0,0.552 0.448,1 1,1 0.552,0 1,-0.448 1,-1" /></g><g
           transform="translate(113,237)"
           id="g360"><path
             id="path362"
             style="fill:#191919;fill-opacity:1;fill-rule:nonzero;stroke:none"
             d="m 0,0 c 0,-0.552 -0.448,-1 -1,-1 -0.552,0 -1,0.448 -1,1 0,0.552 0.448,1 1,1 0.552,0 1,-0.448 1,-1" /></g><g
           transform="translate(105,237)"
           id="g364"><path
             id="path366"
             style="fill:#191919;fill-opacity:1;fill-rule:nonzero;stroke:none"
             d="m 0,0 c 0,-0.552 -0.448,-1 -1,-1 -0.552,0 -1,0.448 -1,1 0,0.552 0.448,1 1,1 0.552,0 1,-0.448 1,-1" /></g><g
           transform="translate(141.3406,93.0142)"
           id="g368"><path
             id="path370"
             style="fill:#c2c2c2;fill-opacity:1;fill-rule:nonzero;stroke:none"
             d="m 0,0 v 0.807 h 2.288 c 0.169,0 0.253,0.089 0.253,0.269 V 1.614 H 3.812 V 0.807 C 3.812,0.269 3.643,0 3.304,0 Z m -1.524,1.614 h 1.271 v -2.152 h -1.271 z m 0,0.268 c 0,0.539 0.169,0.808 0.508,0.808 h 4.32 c 0.339,0 0.508,-0.269 0.508,-0.808 z" /></g><path
           id="path372"
           style="fill:#000000;fill-opacity:1;fill-rule:nonzero;stroke:none"
           d="m 141.555,94.421 h 1.859 v -0.124 h -1.859 z m 3.089,1.759 h -4.319 c -0.23,0 -0.977,-0.092 -0.977,-1.283 0,-0.047 0.007,-0.092 0.019,-0.135 -0.012,-0.042 -0.019,-0.087 -0.019,-0.134 v -2.152 c 0,-0.263 0.21,-0.476 0.468,-0.476 h 1.271 c 0.258,0 0.468,0.213 0.468,0.476 v 0.062 h 3.089 c 0.229,0 0.977,0.093 0.977,1.283 v 0.807 c 0,0.047 -0.007,0.092 -0.019,0.134 0.012,0.043 0.019,0.088 0.019,0.135 0,1.191 -0.748,1.283 -0.977,1.283 m -3.557,-3.704 h -1.271 v 2.152 h 1.271 z m 4.066,2.152 v -0.807 c 0,-0.538 -0.17,-0.807 -0.509,-0.807 h -3.303 v 0.807 h 2.287 c 0.17,0 0.254,0.089 0.254,0.269 v 0.538 h 1.271 m -0.509,1.076 c 0.339,0 0.509,-0.269 0.509,-0.807 h -5.337 c 0,0.538 0.17,0.807 0.509,0.807 h 4.319" /><g
           transform="translate(146.1696,92.476)"
           id="g374"><path
             id="path376"
             style="fill:#c2c2c2;fill-opacity:1;fill-rule:nonzero;stroke:none"
             d="m 0,0 c -0.339,0 -0.508,0.269 -0.508,0.807 v 1.345 h 1.27 V 1.076 c 0,-0.179 0.085,-0.269 0.254,-0.269 h 3.05 V 0 Z m 0.762,2.421 h -1.271 v 0.808 h 1.271 z" /></g><g
           transform="translate(146.9318,96.1803)"
           id="g378"><path
             id="path380"
             style="fill:#000000;fill-opacity:1;fill-rule:nonzero;stroke:none"
             d="m 0,0 h -1.271 c -0.258,0 -0.468,-0.213 -0.468,-0.476 v -0.808 c 0,-0.046 0.007,-0.091 0.019,-0.134 -0.012,-0.043 -0.019,-0.088 -0.019,-0.134 v -1.346 c 0,-1.19 0.748,-1.282 0.977,-1.282 h 4.066 c 0.258,0 0.468,0.213 0.468,0.476 v 0.806 c 0,0.263 -0.21,0.476 -0.468,0.476 H 0.468 v 0.87 c 0,0.046 -0.007,0.091 -0.019,0.134 0.012,0.043 0.019,0.088 0.019,0.134 v 0.808 C 0.468,-0.213 0.258,0 0,0 m 0,-1.552 v -1.076 c 0,-0.179 0.084,-0.27 0.254,-0.27 h 3.05 v -0.806 h -4.066 c -0.339,0 -0.509,0.268 -0.509,0.806 v 1.346 H 0 m 0,0.268 h -1.271 v 0.808 H 0 Z" /></g><path
           id="path382"
           style="fill:#c2c2c2;fill-opacity:1;fill-rule:nonzero;stroke:none"
           d="m 154.81,95.704 h 1.271 v -0.808 h -1.271 z m -3.558,-3.228 c -0.339,0 -0.508,0.269 -0.508,0.807 v 1.345 h 1.271 v -1.076 c 0,-0.179 0.084,-0.269 0.253,-0.269 h 2.288 c 0.169,0 0.254,0.09 0.254,0.269 v 1.076 h 1.27 v -1.345 c 0,-0.538 -0.169,-0.807 -0.508,-0.807 z m 0.763,2.421 h -1.271 v 0.808 h 1.271 z" /><g
           transform="translate(156.0804,96.1803)"
           id="g384"><path
             id="path386"
             style="fill:#000000;fill-opacity:1;fill-rule:nonzero;stroke:none"
             d="m 0,0 h -1.271 c -0.258,0 -0.468,-0.213 -0.468,-0.476 v -0.808 c 0,-0.046 0.007,-0.091 0.019,-0.134 -0.012,-0.043 -0.019,-0.088 -0.019,-0.134 v -0.87 h -1.859 v 0.87 c 0,0.046 -0.006,0.091 -0.019,0.134 0.013,0.043 0.019,0.088 0.019,0.134 v 0.808 C -3.598,-0.213 -3.807,0 -4.066,0 h -1.271 c -0.258,0 -0.468,-0.213 -0.468,-0.476 v -0.808 c 0,-0.046 0.007,-0.091 0.019,-0.134 -0.012,-0.043 -0.019,-0.088 -0.019,-0.134 v -1.346 c 0,-1.19 0.748,-1.282 0.977,-1.282 h 4.32 c 0.229,0 0.976,0.092 0.976,1.282 v 1.346 c 0,0.046 -0.007,0.091 -0.019,0.134 0.012,0.043 0.019,0.088 0.019,0.134 v 0.808 C 0.468,-0.213 0.258,0 0,0 m 0,-1.552 v -1.346 c 0,-0.538 -0.169,-0.806 -0.508,-0.806 h -4.32 c -0.339,0 -0.509,0.268 -0.509,0.806 v 1.346 h 1.271 v -1.076 c 0,-0.179 0.084,-0.27 0.254,-0.27 h 2.288 c 0.169,0 0.253,0.091 0.253,0.27 v 1.076 H 0 m -4.066,0.268 h -1.271 v 0.808 h 1.271 z m 4.066,0 h -1.271 v 0.808 H 0 Z" /></g><g
           transform="translate(156.588,94.3593)"
           id="g388"><path
             id="path390"
             style="fill:#c2c2c2;fill-opacity:1;fill-rule:nonzero;stroke:none"
             d="M 0,0 V 0.269 H 1.271 C 1.271,0.089 1.355,0 1.524,0 h 3.05 c 0.509,0 0.763,-0.27 0.763,-0.807 v -0.269 c 0,-0.539 -0.17,-0.807 -0.509,-0.807 H 0 v 0.807 h 3.812 c 0.17,0 0.254,0.044 0.254,0.134 0,0.09 -0.084,0.135 -0.254,0.135 H 0.508 C 0.169,-0.807 0,-0.538 0,0 M 0,0.537 C 0,1.076 0.169,1.345 0.508,1.345 H 5.083 V 0.537 Z" /></g><g
           transform="translate(161.6708,96.1803)"
           id="g392"><path
             id="path394"
             style="fill:#000000;fill-opacity:1;fill-rule:nonzero;stroke:none"
             d="m 0,0 h -4.574 c -0.229,0 -0.977,-0.093 -0.977,-1.284 0,-0.046 0.007,-0.091 0.019,-0.134 -0.012,-0.043 -0.019,-0.088 -0.019,-0.134 v -0.269 c 0,-0.319 0.054,-0.56 0.137,-0.74 -0.085,-0.086 -0.137,-0.205 -0.137,-0.337 v -0.806 c 0,-0.263 0.21,-0.476 0.468,-0.476 h 4.828 c 0.229,0 0.977,0.092 0.977,1.282 v 0.27 c 0,0.442 -0.139,0.786 -0.393,1.006 0.086,0.086 0.139,0.206 0.139,0.338 v 0.808 C 0.468,-0.213 0.258,0 0,0 m -3.812,-1.552 c 0,-0.18 0.084,-0.269 0.254,-0.269 h 3.05 c 0.508,0 0.762,-0.27 0.762,-0.807 v -0.27 c 0,-0.538 -0.17,-0.806 -0.509,-0.806 h -4.828 v 0.806 h 3.812 c 0.17,0 0.254,0.045 0.254,0.135 0,0.09 -0.084,0.135 -0.254,0.135 h -3.303 c -0.339,0 -0.509,0.269 -0.509,0.807 v 0.269 h 1.271 M 0,-0.476 v -0.808 h -5.083 c 0,0.538 0.17,0.808 0.509,0.808 H 0" /></g><g
           transform="translate(164.2921,93.2828)"
           id="g396"><path
             id="path398"
             style="fill:#c2c2c2;fill-opacity:1;fill-rule:nonzero;stroke:none"
             d="M 0,0 V 1.345 H 1.271 V 0 h 2.541 c 0.17,0 0.254,0.045 0.254,0.135 0,0.089 -0.084,0.135 -0.254,0.135 H 2.287 v 0.806 h 2.287 c 0.509,0 0.763,-0.269 0.763,-0.806 V 0 c 0,-0.538 -0.17,-0.807 -0.509,-0.807 H 0.508 C 0.169,-0.807 0,-0.538 0,0 M 0,1.614 C 0,2.152 0.169,2.422 0.508,2.422 H 5.083 V 1.614 Z" /></g><g
           transform="translate(166.0308,94.4206)"
           id="g400"><path
             id="path402"
             style="fill:#000000;fill-opacity:1;fill-rule:nonzero;stroke:none"
             d="M 0,0 H 0.084 C 0.081,-0.02 0.08,-0.041 0.08,-0.061 V -0.662 H 0 Z M 3.344,1.76 H -1.23 c -0.229,0 -0.977,-0.093 -0.977,-1.284 0,-0.047 0.007,-0.092 0.019,-0.134 C -2.2,0.299 -2.207,0.254 -2.207,0.207 v -1.345 c 0,-1.19 0.748,-1.283 0.977,-1.283 h 4.319 c 0.229,0 0.977,0.093 0.977,1.283 v 0.27 c 0,0.442 -0.139,0.786 -0.393,1.006 0.086,0.086 0.139,0.206 0.139,0.338 V 1.284 C 3.812,1.547 3.603,1.76 3.344,1.76 M -0.468,0.207 v -1.345 h 2.541 c 0.17,0 0.254,0.045 0.254,0.135 0,0.089 -0.084,0.135 -0.254,0.135 H 0.548 v 0.807 h 2.288 c 0.508,0 0.762,-0.27 0.762,-0.807 v -0.27 c 0,-0.538 -0.17,-0.807 -0.509,-0.807 H -1.23 c -0.339,0 -0.509,0.269 -0.509,0.807 v 1.345 h 1.271 M 3.344,1.284 V 0.476 h -5.083 c 0,0.538 0.17,0.808 0.509,0.808 h 4.574" /></g><g
           transform="translate(174.6754,95.7044)"
           id="g404"><path
             id="path406"
             style="fill:#c2c2c2;fill-opacity:1;fill-rule:nonzero;stroke:none"
             d="M 0,0 H 1.524 L 0.392,-0.808 h -1.521 z m -0.015,-3.228 -1.492,1.064 -1.492,-1.064 h -1.524 l 2.254,1.61 -0.759,0.542 h 3.042 l -0.759,-0.542 2.255,-1.61 z m -3.39,2.42 L -4.538,0 h 1.524 l 1.129,-0.808 z" /></g><g
           transform="translate(174.6894,94.152)"
           id="g408"><path
             id="path410"
             style="fill:#000000;fill-opacity:1;fill-rule:nonzero;stroke:none"
             d="m 0,0 h 0.005 z m 1.51,1.076 h 0.005 z m 0,0.952 h -1.524 c -0.096,0 -0.19,-0.03 -0.269,-0.086 L -1.413,1.134 C -1.455,1.103 -1.491,1.067 -1.521,1.026 -1.55,1.067 -1.587,1.103 -1.629,1.134 l -1.13,0.808 C -2.837,1.998 -2.931,2.028 -3.028,2.028 H -4.552 C -4.757,2.028 -4.937,1.894 -4.999,1.696 -5.06,1.498 -4.988,1.282 -4.821,1.163 L -3.688,0.355 C -3.622,0.308 -3.545,0.279 -3.464,0.271 -3.43,0.199 -3.378,0.135 -3.311,0.086 l 0.213,-0.152 -1.708,-1.221 c -0.168,-0.119 -0.239,-0.335 -0.178,-0.532 0.062,-0.198 0.242,-0.333 0.447,-0.333 h 1.524 c 0.096,0 0.19,0.03 0.269,0.086 l 1.223,0.873 1.223,-0.873 c 0.079,-0.056 0.173,-0.086 0.269,-0.086 h 1.524 c 0.205,0 0.385,0.135 0.447,0.333 0.061,0.197 -0.01,0.413 -0.177,0.532 L 0.056,-0.066 0.269,0.086 C 0.337,0.135 0.389,0.199 0.422,0.271 0.503,0.279 0.58,0.308 0.646,0.355 L 1.779,1.163 C 1.946,1.282 2.018,1.498 1.957,1.696 1.895,1.894 1.715,2.028 1.51,2.028 M 0,0.476 -0.759,-0.066 1.495,-1.676 h -1.524 l -1.492,1.064 -1.492,-1.064 h -1.524 l 2.254,1.61 -0.759,0.542 H 0 M -3.028,1.552 -1.899,0.745 H -3.42 l -1.132,0.807 h 1.524 m 4.538,0 -1.132,-0.807 h -1.521 l 1.129,0.807 H 1.51" /></g><g
           transform="translate(132.468,97.8871)"
           id="g412"><path
             id="path414"
             style="fill:#9bc2dd;fill-opacity:1;fill-rule:nonzero;stroke:none"
             d="M 0,0 V 4.026 L 2.158,5.637 H 7.911 L 6.473,4.429 H 2.877 V 1.208 H 5.034 V 2.013 H 3.236 L 4.675,3.221 H 7.911 V 1.208 L 6.473,0 Z" /></g><g
           transform="translate(140.379,103.0481)"
           id="g416"><path
             id="path418"
             style="fill:#000000;fill-opacity:1;fill-rule:nonzero;stroke:none"
             d="M 0,0 H 0.005 Z M 0.005,0.952 H 0 -5.753 c -0.1,0 -0.197,-0.032 -0.277,-0.092 l -2.158,-1.611 c -0.12,-0.09 -0.191,-0.232 -0.191,-0.384 v -4.026 c 0,-0.263 0.21,-0.476 0.468,-0.476 h 6.473 c 0.108,0 0.214,0.039 0.298,0.109 l 1.438,1.208 c 0.108,0.09 0.17,0.225 0.17,0.367 v 2.013 c 0,0.263 -0.21,0.476 -0.468,0.476 h -3.236 c -0.109,0 -0.214,-0.039 -0.298,-0.109 l -1.032,-0.866 v 1.231 h 3.128 c 0.108,0 0.214,0.039 0.298,0.109 L 0.281,0.094 C 0.396,0.181 0.47,0.32 0.47,0.476 0.47,0.739 0.263,0.952 0.005,0.952 M 0,0.476 -1.438,-0.732 h -3.596 v -3.221 h 2.157 v 0.805 h -1.798 l 1.439,1.208 H 0 v -2.013 l -1.438,-1.208 h -6.473 v 4.026 l 2.158,1.611 H 0 m 0,0 h 0.005" /></g><g
           transform="translate(140.7386,97.8871)"
           id="g420"><path
             id="path422"
             style="fill:#9bc2dd;fill-opacity:1;fill-rule:nonzero;stroke:none"
             d="M 0,0 V 4.026 L 2.158,5.637 H 7.911 L 6.473,4.429 H 2.877 V 3.221 H 6.473 L 5.034,2.013 H 2.877 V 1.208 H 7.911 L 6.473,0 Z" /></g><g
           transform="translate(148.6495,103.0481)"
           id="g424"><path
             id="path426"
             style="fill:#000000;fill-opacity:1;fill-rule:nonzero;stroke:none"
             d="M 0,0 H 0.005 Z M 0.005,0.952 H 0 -5.753 c -0.1,0 -0.197,-0.032 -0.277,-0.092 l -2.158,-1.611 c -0.12,-0.09 -0.191,-0.232 -0.191,-0.384 v -4.026 c 0,-0.263 0.21,-0.476 0.468,-0.476 h 6.473 c 0.108,0 0.214,0.039 0.298,0.109 L 0.298,-4.32 C 0.45,-4.192 0.507,-3.981 0.44,-3.792 0.374,-3.603 0.197,-3.477 0,-3.477 h -2.534 l 1.376,1.156 c 0.115,0.086 0.19,0.225 0.19,0.381 0,0.263 -0.207,0.476 -0.466,0.476 h -0.004 -3.128 v 0.256 h 3.128 c 0.108,0 0.214,0.039 0.298,0.109 L 0.281,0.094 C 0.396,0.181 0.47,0.32 0.47,0.476 0.47,0.739 0.263,0.952 0.005,0.952 M -1.438,-1.94 h 0.004 M 0,0.476 -1.438,-0.732 H -5.034 V -1.94 h 3.596 L -2.877,-3.148 H -5.034 V -3.953 H 0 l -1.438,-1.208 h -6.473 v 4.026 l 2.158,1.611 H 0 m 0,0 h 0.005" /></g><g
           transform="translate(148.2899,97.8871)"
           id="g428"><path
             id="path430"
             style="fill:#9bc2dd;fill-opacity:1;fill-rule:nonzero;stroke:none"
             d="M 0,0 V 5.637 H 2.877 L 5.034,4.429 V 5.637 H 7.911 V 0 H 5.034 V 2.818 L 2.877,4.026 V 0 Z" /></g><g
           transform="translate(156.2009,104)"
           id="g432"><path
             id="path434"
             style="fill:#000000;fill-opacity:1;fill-rule:nonzero;stroke:none"
             d="m 0,0 h -2.877 c -0.258,0 -0.468,-0.213 -0.468,-0.476 v -0.403 l -1.463,0.82 C -4.878,-0.02 -4.955,0 -5.034,0 h -2.877 c -0.258,0 -0.468,-0.213 -0.468,-0.476 v -5.637 c 0,-0.263 0.21,-0.476 0.468,-0.476 h 2.877 c 0.258,0 0.468,0.213 0.468,0.476 v 3.221 l 1.221,-0.684 v -2.537 c 0,-0.263 0.21,-0.476 0.468,-0.476 H 0 c 0.258,0 0.468,0.213 0.468,0.476 v 5.637 C 0.468,-0.213 0.258,0 0,0 m 0,-0.476 v -5.637 h -2.877 v 2.819 l -2.157,1.207 v -4.026 h -2.877 v 5.637 h 2.877 l 2.157,-1.208 v 1.208 H 0" /></g><g
           transform="translate(156.5605,97.8871)"
           id="g436"><path
             id="path438"
             style="fill:#9bc2dd;fill-opacity:1;fill-rule:nonzero;stroke:none"
             d="M 0,0 V 4.026 L 2.158,5.637 H 7.911 L 6.473,4.429 H 2.877 V 3.221 H 6.473 L 5.034,2.013 H 2.877 V 1.208 H 7.911 L 6.473,0 Z" /></g><g
           transform="translate(164.4714,103.0481)"
           id="g440"><path
             id="path442"
             style="fill:#000000;fill-opacity:1;fill-rule:nonzero;stroke:none"
             d="M 0,0 H 0.005 Z M 0.005,0.952 H 0 -5.753 c -0.1,0 -0.197,-0.032 -0.277,-0.092 l -2.158,-1.611 c -0.12,-0.09 -0.191,-0.232 -0.191,-0.384 v -4.026 c 0,-0.263 0.21,-0.476 0.468,-0.476 h 6.473 c 0.108,0 0.214,0.039 0.298,0.109 L 0.298,-4.32 C 0.45,-4.192 0.507,-3.981 0.44,-3.792 0.374,-3.603 0.197,-3.477 0,-3.477 h -2.534 l 1.376,1.156 c 0.115,0.086 0.19,0.225 0.19,0.381 0,0.263 -0.207,0.476 -0.466,0.476 h -0.004 -3.128 v 0.256 h 3.128 c 0.108,0 0.214,0.039 0.298,0.109 L 0.281,0.094 C 0.396,0.181 0.47,0.32 0.47,0.476 0.47,0.739 0.263,0.952 0.005,0.952 M -1.438,-1.94 h 0.004 M 0,0.476 -1.438,-0.732 H -5.034 V -1.94 h 3.596 L -2.877,-3.148 H -5.034 V -3.953 H 0 l -1.438,-1.208 h -6.473 v 4.026 l 2.158,1.611 H 0 m 0,0 h 0.005" /></g><g
           transform="translate(164.1118,99.9003)"
           id="g444"><path
             id="path446"
             style="fill:#9bc2dd;fill-opacity:1;fill-rule:nonzero;stroke:none"
             d="M 0,0 V 2.013 L 2.158,3.624 H 7.911 L 6.473,2.416 H 2.877 V 1.208 H 7.911 V -0.805 L 6.473,-2.013 H 0 l 1.438,1.208 H 5.034 V 0 Z" /></g><g
           transform="translate(172.0228,103.0481)"
           id="g448"><path
             id="path450"
             style="fill:#000000;fill-opacity:1;fill-rule:nonzero;stroke:none"
             d="M 0,0 H 0.005 Z M 0.005,0.952 H 0 -5.753 c -0.1,0 -0.197,-0.032 -0.277,-0.092 l -2.158,-1.611 c -0.12,-0.09 -0.191,-0.232 -0.191,-0.384 v -2.013 c 0,-0.263 0.21,-0.476 0.468,-0.476 h 1.096 l -1.394,-1.17 c -0.152,-0.128 -0.209,-0.339 -0.142,-0.528 0.066,-0.189 0.243,-0.315 0.44,-0.315 h 6.473 c 0.108,0 0.214,0.039 0.298,0.109 l 1.438,1.208 c 0.108,0.09 0.17,0.225 0.17,0.367 v 2.013 c 0,0.263 -0.21,0.476 -0.468,0.476 h -4.566 v 0.256 h 3.128 c 0.108,0 0.214,0.039 0.298,0.109 L 0.281,0.094 C 0.396,0.181 0.47,0.32 0.47,0.476 0.47,0.739 0.263,0.952 0.005,0.952 M 0,0.476 -1.438,-0.732 H -5.034 V -1.94 H 0 v -2.013 l -1.438,-1.208 h -6.473 l 1.438,1.208 h 3.596 v 0.805 h -5.034 v 2.013 l 2.158,1.611 H 0 m 0,0 h 0.005" /></g><path
           id="path452"
           style="fill:#9bc2dd;fill-opacity:1;fill-rule:nonzero;stroke:none"
           d="m 172.382,103.524 h 2.877 v -5.637 h -2.877 z" /><g
           transform="translate(175.2591,104)"
           id="g454"><path
             id="path456"
             style="fill:#000000;fill-opacity:1;fill-rule:nonzero;stroke:none"
             d="m 0,0 h -2.877 c -0.258,0 -0.468,-0.213 -0.468,-0.476 v -5.637 c 0,-0.263 0.21,-0.476 0.468,-0.476 H 0 c 0.258,0 0.468,0.213 0.468,0.476 v 5.637 C 0.468,-0.213 0.258,0 0,0 m 0,-6.113 h -2.877 v 5.637 H 0 Z" /></g><g
           transform="translate(175.6187,99.9003)"
           id="g458"><path
             id="path460"
             style="fill:#9bc2dd;fill-opacity:1;fill-rule:nonzero;stroke:none"
             d="M 0,0 V 2.013 L 2.158,3.624 H 7.911 L 6.473,2.416 H 2.877 V 1.208 H 7.911 V -0.805 L 6.473,-2.013 H 0 l 1.438,1.208 H 5.034 V 0 Z" /></g><g
           transform="translate(183.5296,103.0481)"
           id="g462"><path
             id="path464"
             style="fill:#000000;fill-opacity:1;fill-rule:nonzero;stroke:none"
             d="M 0,0 H 0.005 Z M 0.005,0.952 H 0 -5.753 c -0.1,0 -0.197,-0.032 -0.277,-0.092 l -2.158,-1.611 c -0.12,-0.09 -0.191,-0.232 -0.191,-0.384 v -2.013 c 0,-0.263 0.21,-0.476 0.468,-0.476 h 1.096 l -1.394,-1.17 c -0.152,-0.128 -0.209,-0.339 -0.142,-0.528 0.066,-0.189 0.243,-0.315 0.44,-0.315 h 6.473 c 0.108,0 0.214,0.039 0.298,0.109 l 1.438,1.208 c 0.108,0.09 0.17,0.225 0.17,0.367 v 2.013 c 0,0.263 -0.21,0.476 -0.468,0.476 h -4.566 v 0.256 h 3.128 c 0.108,0 0.214,0.039 0.298,0.109 L 0.281,0.094 C 0.396,0.181 0.47,0.32 0.47,0.476 0.47,0.739 0.263,0.952 0.005,0.952 M 0,0.476 -1.438,-0.732 H -5.034 V -1.94 H 0 v -2.013 l -1.438,-1.208 h -6.473 l 1.438,1.208 h 3.596 v 0.805 h -5.034 v 2.013 l 2.158,1.611 H 0 m 0,0 h 0.005" /></g></g></g></g></svg>