<?xml version="1.0" encoding="UTF-8" standalone="no"?>
<svg
   xmlns:dc="http://purl.org/dc/elements/1.1/"
   xmlns:cc="http://creativecommons.org/ns#"
   xmlns:rdf="http://www.w3.org/1999/02/22-rdf-syntax-ns#"
   xmlns:svg="http://www.w3.org/2000/svg"
   xmlns="http://www.w3.org/2000/svg"
   viewBox="0 0 341.33334 341.33334"
   height="256"
   width="256"
   xml:space="preserve"
   id="svg2"
   version="1.1"><metadata
     id="metadata8"><rdf:RDF><cc:Work
         rdf:about=""><dc:format>image/svg+xml</dc:format><dc:type
           rdf:resource="http://purl.org/dc/dcmitype/StillImage" /></cc:Work></rdf:RDF></metadata><defs
     id="defs6"><clipPath
       id="clipPath18"
       clipPathUnits="userSpaceOnUse"><path
         id="path16"
         d="M 0,256 H 256 V 0 H 0 Z" /></clipPath><clipPath
       id="clipPath26"
       clipPathUnits="userSpaceOnUse"><path
         id="path24"
         d="M 4,206 H 252 V 50 H 4 Z" /></clipPath></defs><g
     transform="matrix(1.3333333,0,0,-1.3333333,0,341.33333)"
     id="g10"><g
       id="g12"><g
         clip-path="url(#clipPath18)"
         id="g14"><g
           id="g20"><g
             id="g22" /><g
             id="g34"><g
               style="opacity:0.5"
               id="g32"
               clip-path="url(#clipPath26)"><g
                 id="g30"
                 transform="translate(252,168)"><path
                   id="path28"
                   style="fill:#f5f5f5;fill-opacity:1;fill-rule:nonzero;stroke:none"
                   d="m 0,0 c 0,2.029 -0.755,3.881 -2,5.292 v 8.065 C -2,24.719 -10.294,34.154 -21.063,35.759 -22.649,37.154 -24.727,38 -27,38 h -9 -2 -136 -4 -28 -4 -2 -9 c -2.273,0 -4.351,-0.846 -5.937,-2.241 C -237.706,34.154 -246,24.719 -246,13.357 V 5.292 C -247.245,3.881 -248,2.029 -248,0 v -2 c 0,-0.339 0.021,-0.672 0.062,-1 -0.041,-0.328 -0.062,-0.661 -0.062,-1 v -2 c 0,-0.339 0.021,-0.672 0.062,-1 -0.041,-0.328 -0.062,-0.661 -0.062,-1 v -2 c 0,-0.339 0.021,-0.672 0.062,-1 -0.041,-0.328 -0.062,-0.661 -0.062,-1 v -2 c 0,-0.339 0.021,-0.672 0.062,-1 -0.041,-0.328 -0.062,-0.661 -0.062,-1 v -2 c 0,-0.339 0.021,-0.672 0.062,-1 -0.041,-0.328 -0.062,-0.661 -0.062,-1 v -2 c 0,-0.339 0.021,-0.672 0.062,-1 -0.041,-0.328 -0.062,-0.661 -0.062,-1 v -2 c 0,-0.339 0.021,-0.672 0.062,-1 -0.041,-0.328 -0.062,-0.661 -0.062,-1 v -2 c 0,-0.339 0.021,-0.672 0.062,-1 -0.041,-0.328 -0.062,-0.661 -0.062,-1 v -2 c 0,-0.339 0.021,-0.672 0.062,-1 -0.041,-0.328 -0.062,-0.661 -0.062,-1 v -2 c 0,-0.339 0.021,-0.672 0.062,-1 -0.041,-0.328 -0.062,-0.661 -0.062,-1 v -2 c 0,-0.339 0.021,-0.672 0.062,-1 -0.041,-0.328 -0.062,-0.661 -0.062,-1 v -2 c 0,-1.892 0.657,-3.63 1.755,-5 -1.098,-1.37 -1.755,-3.108 -1.755,-5 v -2 c 0,-0.339 0.021,-0.672 0.062,-1 -0.041,-0.328 -0.062,-0.661 -0.062,-1 v -2 c 0,-0.339 0.021,-0.672 0.062,-1 -0.041,-0.328 -0.062,-0.661 -0.062,-1 v -2 c 0,-0.339 0.021,-0.672 0.062,-1 -0.041,-0.328 -0.062,-0.661 -0.062,-1 v -2 c 0,-2.029 0.755,-3.881 2,-5.292 v -10.065 c 0,-10.258 6.761,-18.945 16,-21.718 V -109 c 0,-4.963 4.037,-9 9,-9 h 194 c 4.963,0 9,4.037 9,9 v 1.925 c 9.239,2.773 16,11.46 16,21.718 v 10.065 c 1.245,1.411 2,3.263 2,5.292 v 2 c 0,0.339 -0.021,0.672 -0.062,1 0.041,0.328 0.062,0.661 0.062,1 v 2 c 0,0.339 -0.021,0.672 -0.062,1 0.041,0.328 0.062,0.661 0.062,1 v 2 c 0,0.339 -0.021,0.672 -0.062,1 0.041,0.328 0.062,0.661 0.062,1 v 2 c 0,0.339 -0.021,0.672 -0.062,1 0.041,0.328 0.062,0.661 0.062,1 v 2 c 0,0.339 -0.021,0.672 -0.062,1 0.041,0.328 0.062,0.661 0.062,1 v 2 c 0,0.339 -0.021,0.672 -0.062,1 0.041,0.328 0.062,0.661 0.062,1 v 2 c 0,0.339 -0.021,0.672 -0.062,1 0.041,0.328 0.062,0.661 0.062,1 v 2 c 0,0.339 -0.021,0.672 -0.062,1 0.041,0.328 0.062,0.661 0.062,1 v 2 c 0,0.339 -0.021,0.672 -0.062,1 0.041,0.328 0.062,0.661 0.062,1 v 2 c 0,0.339 -0.021,0.672 -0.062,1 0.041,0.328 0.062,0.661 0.062,1 v 2 c 0,0.339 -0.021,0.672 -0.062,1 0.041,0.328 0.062,0.661 0.062,1 v 2 c 0,0.339 -0.021,0.672 -0.062,1 0.041,0.328 0.062,0.661 0.062,1 v 2 c 0,0.339 -0.021,0.672 -0.062,1 0.041,0.328 0.062,0.661 0.062,1 v 2 c 0,0.339 -0.021,0.672 -0.062,1 0.041,0.328 0.062,0.661 0.062,1 v 2 c 0,0.339 -0.021,0.672 -0.062,1 0.041,0.328 0.062,0.661 0.062,1 v 2 c 0,0.339 -0.021,0.672 -0.062,1 C -0.021,-6.672 0,-6.339 0,-6 v 2 c 0,0.339 -0.021,0.672 -0.062,1 C -0.021,-2.672 0,-2.339 0,-2 Z" /></g></g></g></g><g
           transform="translate(227.6754,196)"
           id="g36"><path
             id="path38"
             style="fill:#333333;fill-opacity:1;fill-rule:nonzero;stroke:none"
             d="m 0,0 h -199.351 c -7.911,0 -14.324,-6.556 -14.324,-14.643 V -74 h 12 v -10 h -12 v -29.357 c 0,-8.087 6.413,-14.643 14.324,-14.643 H 0 c 7.911,0 14.325,6.556 14.325,14.643 v 98.714 C 14.325,-6.556 7.911,0 0,0" /></g><g
           transform="translate(225,58)"
           id="g40"><path
             id="path42"
             style="fill:#262626;fill-opacity:1;fill-rule:nonzero;stroke:none"
             d="m 0,0 h -194 c -0.552,0 -1,0.448 -1,1 v 138 c 0,0.552 0.448,1 1,1 H 0 c 0.552,0 1,-0.448 1,-1 V 1 C 1,0.448 0.552,0 0,0" /></g><g
           transform="translate(204.3275,78)"
           id="g44"><path
             id="path46"
             style="fill:#808080;fill-opacity:1;fill-rule:nonzero;stroke:none"
             d="m 0,0 h -154.327 c -4.419,0 -8,3.582 -8,8 v 112 h 172 V 9.673 C 9.673,4.331 5.342,0 0,0" /></g><g
           transform="translate(242,172)"
           id="g48"><path
             id="path50"
             style="fill:#262626;fill-opacity:1;fill-rule:nonzero;stroke:none"
             d="M 0,0 H -6.353 C -9.472,0 -12,-2.201 -12,-4.917 V -71.083 C -12,-73.799 -9.472,-76 -6.353,-76 H 0 Z" /></g><path
           id="path52"
           style="fill:#333333;fill-opacity:1;fill-rule:nonzero;stroke:none"
           d="m 244,166 h -12 v 2 h 12 z" /><path
           id="path54"
           style="fill:#333333;fill-opacity:1;fill-rule:nonzero;stroke:none"
           d="m 244,162 h -12 v 2 h 12 z" /><path
           id="path56"
           style="fill:#333333;fill-opacity:1;fill-rule:nonzero;stroke:none"
           d="m 244,158 h -12 v 2 h 12 z" /><path
           id="path58"
           style="fill:#333333;fill-opacity:1;fill-rule:nonzero;stroke:none"
           d="m 244,154 h -12 v 2 h 12 z" /><path
           id="path60"
           style="fill:#333333;fill-opacity:1;fill-rule:nonzero;stroke:none"
           d="m 244,150 h -12 v 2 h 12 z" /><path
           id="path62"
           style="fill:#333333;fill-opacity:1;fill-rule:nonzero;stroke:none"
           d="m 244,146 h -12 v 2 h 12 z" /><path
           id="path64"
           style="fill:#333333;fill-opacity:1;fill-rule:nonzero;stroke:none"
           d="m 244,142 h -12 v 2 h 12 z" /><path
           id="path66"
           style="fill:#333333;fill-opacity:1;fill-rule:nonzero;stroke:none"
           d="m 244,138 h -12 v 2 h 12 z" /><path
           id="path68"
           style="fill:#333333;fill-opacity:1;fill-rule:nonzero;stroke:none"
           d="m 244,134 h -12 v 2 h 12 z" /><path
           id="path70"
           style="fill:#333333;fill-opacity:1;fill-rule:nonzero;stroke:none"
           d="m 244,130 h -12 v 2 h 12 z" /><path
           id="path72"
           style="fill:#333333;fill-opacity:1;fill-rule:nonzero;stroke:none"
           d="m 244,126 h -12 v 2 h 12 z" /><path
           id="path74"
           style="fill:#333333;fill-opacity:1;fill-rule:nonzero;stroke:none"
           d="m 244,122 h -12 v 2 h 12 z" /><path
           id="path76"
           style="fill:#333333;fill-opacity:1;fill-rule:nonzero;stroke:none"
           d="m 244,118 h -12 v 2 h 12 z" /><path
           id="path78"
           style="fill:#333333;fill-opacity:1;fill-rule:nonzero;stroke:none"
           d="m 244,114 h -12 v 2 h 12 z" /><path
           id="path80"
           style="fill:#333333;fill-opacity:1;fill-rule:nonzero;stroke:none"
           d="m 244,110 h -12 v 2 h 12 z" /><path
           id="path82"
           style="fill:#333333;fill-opacity:1;fill-rule:nonzero;stroke:none"
           d="m 244,106 h -12 v 2 h 12 z" /><path
           id="path84"
           style="fill:#333333;fill-opacity:1;fill-rule:nonzero;stroke:none"
           d="m 244,102 h -12 v 2 h 12 z" /><path
           id="path86"
           style="fill:#333333;fill-opacity:1;fill-rule:nonzero;stroke:none"
           d="m 244,98 h -12 v 2 h 12 z" /><g
           transform="translate(26,122)"
           id="g88"><path
             id="path90"
             style="fill:#262626;fill-opacity:1;fill-rule:nonzero;stroke:none"
             d="M 0,0 V 45.11 C 0,47.811 -2.528,50 -5.647,50 H -12 V 0 Z" /></g><g
           transform="translate(14,112)"
           id="g92"><path
             id="path94"
             style="fill:#262626;fill-opacity:1;fill-rule:nonzero;stroke:none"
             d="M 0,0 V -16 H 6.353 C 9.472,-16 12,-13.548 12,-10.524 V 0 Z" /></g><path
           id="path96"
           style="fill:#333333;fill-opacity:1;fill-rule:nonzero;stroke:none"
           d="M 24,166 H 12 v 2 h 12 z" /><path
           id="path98"
           style="fill:#333333;fill-opacity:1;fill-rule:nonzero;stroke:none"
           d="M 24,162 H 12 v 2 h 12 z" /><path
           id="path100"
           style="fill:#333333;fill-opacity:1;fill-rule:nonzero;stroke:none"
           d="M 24,158 H 12 v 2 h 12 z" /><path
           id="path102"
           style="fill:#333333;fill-opacity:1;fill-rule:nonzero;stroke:none"
           d="M 24,154 H 12 v 2 h 12 z" /><path
           id="path104"
           style="fill:#333333;fill-opacity:1;fill-rule:nonzero;stroke:none"
           d="M 24,150 H 12 v 2 h 12 z" /><path
           id="path106"
           style="fill:#333333;fill-opacity:1;fill-rule:nonzero;stroke:none"
           d="M 24,146 H 12 v 2 h 12 z" /><path
           id="path108"
           style="fill:#333333;fill-opacity:1;fill-rule:nonzero;stroke:none"
           d="M 24,142 H 12 v 2 h 12 z" /><path
           id="path110"
           style="fill:#333333;fill-opacity:1;fill-rule:nonzero;stroke:none"
           d="M 24,138 H 12 v 2 h 12 z" /><path
           id="path112"
           style="fill:#333333;fill-opacity:1;fill-rule:nonzero;stroke:none"
           d="M 24,134 H 12 v 2 h 12 z" /><path
           id="path114"
           style="fill:#333333;fill-opacity:1;fill-rule:nonzero;stroke:none"
           d="M 24,130 H 12 v 2 h 12 z" /><path
           id="path116"
           style="fill:#333333;fill-opacity:1;fill-rule:nonzero;stroke:none"
           d="M 24,126 H 12 v 2 h 12 z" /><path
           id="path118"
           style="fill:#333333;fill-opacity:1;fill-rule:nonzero;stroke:none"
           d="M 24,122 H 12 v 2 h 12 z" /><path
           id="path120"
           style="fill:#333333;fill-opacity:1;fill-rule:nonzero;stroke:none"
           d="M 24,110 H 12 v 2 h 12 z" /><path
           id="path122"
           style="fill:#333333;fill-opacity:1;fill-rule:nonzero;stroke:none"
           d="M 24,106 H 12 v 2 h 12 z" /><path
           id="path124"
           style="fill:#333333;fill-opacity:1;fill-rule:nonzero;stroke:none"
           d="M 24,102 H 12 v 2 h 12 z" /><path
           id="path126"
           style="fill:#333333;fill-opacity:1;fill-rule:nonzero;stroke:none"
           d="M 24,98 H 12 v 2 h 12 z" /><g
           transform="translate(78,78)"
           id="g128"><path
             id="path130"
             style="fill:#0000ff;fill-opacity:1;fill-rule:nonzero;stroke:none"
             d="m 0,0 h -28 c -4.418,0 -8,3.582 -8,8 V 120 H 0 Z" /></g><g
           transform="translate(139.3587,84.8801)"
           id="g132"><path
             id="path134"
             style="fill:#ffffff;fill-opacity:1;fill-rule:nonzero;stroke:none"
             d="m 0,0 v -0.809 c 0,-0.285 0.023,-0.549 0.054,-0.806 l -0.533,1.144 C -0.328,-0.339 -0.165,-0.171 0,0 m 23.776,0 v -0.809 c 0,-0.285 0.023,-0.549 0.055,-0.806 l -0.533,1.144 c 0.15,0.132 0.314,0.3 0.478,0.471 M 28.86,7.12 H 27.557 C 25.896,7.12 24.758,6.434 24.192,5.176 24.044,5.419 23.872,5.65 23.671,5.868 22.904,6.699 22.02,7.12 21.043,7.12 H 16.484 C 16.368,7.12 16.258,7.094 16.158,7.049 16.057,7.094 15.948,7.12 15.832,7.12 H 8.341 C 8.225,7.12 8.116,7.094 8.015,7.049 7.915,7.094 7.805,7.12 7.689,7.12 H 3.781 C 2.12,7.12 0.982,6.434 0.416,5.176 0.267,5.419 0.095,5.65 -0.106,5.868 -0.873,6.699 -1.757,7.12 -2.733,7.12 h -4.56 c -0.469,0 -0.85,-0.41 -0.85,-0.915 V 5.731 C -8.181,5.775 -8.208,5.825 -8.248,5.868 -9.015,6.699 -9.899,7.12 -10.876,7.12 h -4.56 c -0.115,0 -0.225,-0.026 -0.325,-0.071 -0.101,0.045 -0.21,0.071 -0.326,0.071 h -2.931 c -0.47,0 -0.85,-0.41 -0.85,-0.915 V 0.106 h -2.86 v 6.099 c 0,0.505 -0.38,0.915 -0.85,0.915 h -2.931 c -0.469,0 -0.85,-0.41 -0.85,-0.915 v -7.014 c 0,-2.625 1.343,-4.071 3.781,-4.071 h 3.909 c 0.115,0 0.225,0.026 0.325,0.071 0.101,-0.045 0.21,-0.071 0.326,-0.071 h 2.931 c 0.116,0 0.225,0.026 0.326,0.071 0.1,-0.045 0.21,-0.071 0.325,-0.071 h 4.56 c 0.977,0 1.861,0.421 2.628,1.252 0.04,0.043 0.067,0.093 0.105,0.137 v -0.474 c 0,-0.505 0.381,-0.915 0.85,-0.915 h 1.303 c 0.056,0 0.11,0.006 0.163,0.017 0.052,-0.011 0.107,-0.017 0.163,-0.017 h 1.302 c 0.379,0 0.699,0.266 0.809,0.634 l 0.06,-0.128 c 0.144,-0.31 0.438,-0.506 0.76,-0.506 h 1.303 c 0.055,0 0.109,0.006 0.163,0.017 0.053,-0.011 0.107,-0.017 0.162,-0.017 h 1.303 c 0.295,0 0.569,0.164 0.723,0.434 0.099,0.172 0.133,0.37 0.117,0.565 0.639,-0.652 1.559,-0.999 2.743,-0.999 h 3.908 c 0.47,0 0.85,0.41 0.85,0.915 v 1.403 c 0,0.062 -0.022,0.116 -0.033,0.175 0.011,0.059 0.033,0.113 0.033,0.175 v 1.403 c 0,0.505 -0.38,0.915 -0.85,0.915 H 7.562 V 0.945 C 7.562,1.007 7.54,1.061 7.529,1.12 7.54,1.179 7.562,1.233 7.562,1.295 v 0.839 h 0.127 c 0.116,0 0.226,0.026 0.326,0.071 C 8.116,2.16 8.225,2.134 8.341,2.134 h 1.43 v -6.099 c 0,-0.505 0.381,-0.915 0.85,-0.915 h 1.303 c 0.055,0 0.11,0.006 0.162,0.017 0.053,-0.011 0.108,-0.017 0.163,-0.017 h 1.303 c 0.469,0 0.85,0.41 0.85,0.915 v 6.099 h 1.232 v -6.099 c 0,-0.505 0.38,-0.915 0.85,-0.915 h 1.302 c 0.056,0 0.11,0.006 0.163,0.017 0.053,-0.011 0.107,-0.017 0.163,-0.017 h 1.303 c 0.378,0 0.699,0.266 0.809,0.634 l 0.059,-0.128 c 0.144,-0.31 0.439,-0.506 0.76,-0.506 h 1.303 c 0.055,0 0.11,0.006 0.163,0.017 0.053,-0.011 0.108,-0.017 0.163,-0.017 h 1.303 c 0.294,0 0.568,0.164 0.723,0.434 0.098,0.172 0.133,0.37 0.116,0.565 0.639,-0.652 1.559,-0.999 2.743,-0.999 h 1.303 c 2.438,0 3.781,1.446 3.781,4.071 v 3.858 c 0,2.625 -1.343,4.071 -3.781,4.071" /></g><g
           transform="translate(137.9285,80.9149)"
           id="g136"><path
             id="path138"
             style="fill:#0000ff;fill-opacity:1;fill-rule:nonzero;stroke:none"
             d="M 0,0 H -1.303 L -2.931,3.507 V 0 H -4.234 V 4.91 H -2.28 Z M 0,6.839 C 0,6.402 -0.143,6.03 -0.429,5.722 -0.715,5.414 -1.006,5.26 -1.303,5.26 H -4.56 V 0 h -1.303 v 6.663 h 4.234 c 0.218,0 0.326,0.059 0.326,0.176 0,0.117 -0.108,0.175 -0.326,0.175 h -4.234 v 1.403 h 4.56 c 0.297,0 0.588,-0.156 0.874,-0.468 C -0.143,7.637 0,7.267 0,6.839 m 1.629,0 C 1.629,5.919 1.41,5.223 0.972,4.752 0.534,4.28 0.163,3.963 -0.141,3.799 L 1.629,0 H 0.326 l -2.28,4.91 h 0.651 c 0.384,0 0.751,0.189 1.102,0.567 0.351,0.378 0.527,0.832 0.527,1.362 0,0.522 -0.176,0.974 -0.527,1.356 -0.351,0.382 -0.718,0.572 -1.102,0.572 h -4.56 v 1.403 h 4.56 c 0.746,0 1.421,-0.327 2.025,-0.982 C 1.326,8.534 1.629,7.75 1.629,6.839" /></g><g
           transform="translate(140.2084,87.9288)"
           id="g140"><path
             id="path142"
             style="fill:#0000ff;fill-opacity:1;fill-rule:nonzero;stroke:none"
             d="M 0,0 C 0,2.104 0.977,3.156 2.931,3.156 H 6.84 V 1.753 H 2.931 C 1.846,1.753 1.303,1.169 1.303,0 v -3.858 c 0,-1.169 0.543,-1.753 1.628,-1.753 H 6.84 V -7.014 H 2.931 C 0.977,-7.014 0,-5.962 0,-3.858 Z" /></g><g
           transform="translate(141.8369,86.1754)"
           id="g144"><path
             id="path146"
             style="fill:#0000ff;fill-opacity:1;fill-rule:nonzero;stroke:none"
             d="M 0,0 V 1.753 C 0,2.689 0.434,3.156 1.303,3.156 H 5.211 V 1.753 H 1.629 C 1.411,1.753 1.303,1.637 1.303,1.403 H 4.234 V 0 Z" /></g><g
           transform="translate(141.8369,85.8247)"
           id="g148"><path
             id="path150"
             style="fill:#0000ff;fill-opacity:1;fill-rule:nonzero;stroke:none"
             d="M 0,0 H 4.234 V -1.403 H 1.303 c 0,-0.234 0.108,-0.351 0.326,-0.351 H 5.211 V -3.156 H 1.303 C 0.434,-3.156 0,-2.689 0,-1.754 Z" /></g><g
           transform="translate(151.608,89.3316)"
           id="g152"><path
             id="path154"
             style="fill:#0000ff;fill-opacity:1;fill-rule:nonzero;stroke:none"
             d="M 0,0 H 3.583 V -1.403 H 1.303 V -8.417 H 0 Z m -0.326,0 v -8.417 h -1.303 v 7.014 H -3.908 V 0 Z m 3.909,0.351 h -7.491 v 1.403 h 7.491 z" /></g><g
           transform="translate(161.7049,80.9149)"
           id="g156"><path
             id="path158"
             style="fill:#0000ff;fill-opacity:1;fill-rule:nonzero;stroke:none"
             d="M 0,0 H -1.303 L -2.931,3.507 V 0 H -4.234 V 4.91 H -2.28 Z M 0,6.839 C 0,6.402 -0.143,6.03 -0.429,5.722 -0.715,5.414 -1.006,5.26 -1.303,5.26 H -4.56 V 0 h -1.303 v 6.663 h 4.234 c 0.218,0 0.326,0.059 0.326,0.176 0,0.117 -0.108,0.175 -0.326,0.175 h -4.234 v 1.403 h 4.56 c 0.297,0 0.588,-0.156 0.874,-0.468 C -0.143,7.637 0,7.267 0,6.839 m 1.629,0 C 1.629,5.919 1.41,5.223 0.972,4.752 0.534,4.28 0.163,3.963 -0.141,3.799 L 1.629,0 H 0.326 l -2.28,4.91 h 0.651 c 0.384,0 0.751,0.189 1.102,0.567 0.351,0.378 0.527,0.832 0.527,1.362 0,0.522 -0.176,0.974 -0.527,1.356 -0.351,0.382 -0.718,0.572 -1.102,0.572 h -4.56 v 1.403 h 4.56 c 0.746,0 1.421,-0.327 2.025,-0.982 C 1.326,8.534 1.629,7.75 1.629,6.839" /></g><g
           transform="translate(168.219,87.5782)"
           id="g160"><path
             id="path162"
             style="fill:#0000ff;fill-opacity:1;fill-rule:nonzero;stroke:none"
             d="M 0,0 C 0,0.234 -0.109,0.351 -0.326,0.351 H -0.977 C -1.194,0.351 -1.303,0.234 -1.303,0 v -3.156 c 0,-0.234 0.109,-0.351 0.326,-0.351 h 0.651 C -0.109,-3.507 0,-3.39 0,-3.156 Z M 1.303,0.351 V -3.507 C 1.303,-4.442 0.869,-4.91 0,-4.91 h -1.303 c -0.868,0 -1.303,0.468 -1.303,1.403 v 3.858 c 0,0.935 0.435,1.402 1.303,1.402 H 0 c 0.869,0 1.303,-0.467 1.303,-1.402 m 0.326,0 C 1.629,1.52 1.086,2.104 0,2.104 h -1.303 c -1.086,0 -1.628,-0.584 -1.628,-1.753 v -3.858 c 0,-1.169 0.542,-1.753 1.628,-1.753 H 0 c 1.086,0 1.629,0.584 1.629,1.753 z m 1.302,0 V -3.507 C 2.931,-5.611 1.954,-6.663 0,-6.663 h -1.303 c -1.954,0 -2.931,1.052 -2.931,3.156 v 3.858 c 0,2.104 0.977,3.156 2.931,3.156 H 0 c 1.954,0 2.931,-1.052 2.931,-3.156" /></g><g
           transform="translate(116.1067,84.0712)"
           id="g164"><path
             id="path166"
             style="fill:#0000ff;fill-opacity:1;fill-rule:nonzero;stroke:none"
             d="M 0,0 C -0.217,0 -0.326,0.117 -0.326,0.351 V 7.014 H -3.257 V 0 c 0,-2.104 0.977,-3.156 2.931,-3.156 h 3.909 l 0,3.156 z" /></g><path
           id="path168"
           style="fill:#0000ff;fill-opacity:1;fill-rule:nonzero;stroke:none"
           d="m 120.34,80.915 h 2.931 v 10.17 h -2.931 z" /><g
           transform="translate(128.1573,87.5782)"
           id="g170"><path
             id="path172"
             style="fill:#0000ff;fill-opacity:1;fill-rule:nonzero;stroke:none"
             d="M 0,0 H -1.303 V 0.351 H 0 C 0.217,0.351 0.326,0.292 0.326,0.175 0.326,0.058 0.217,0 0,0 m 0,-3.507 h -1.303 v 0.351 H 0 c 0.217,0 0.326,-0.059 0.326,-0.176 C 0.326,-3.449 0.217,-3.507 0,-3.507 M 3.257,0.175 C 3.257,1.087 2.955,1.87 2.35,2.525 1.746,3.18 1.071,3.507 0.326,3.507 h -4.56 v -10.17 h 4.56 c 0.745,0 1.42,0.327 2.024,0.982 0.605,0.654 0.907,1.438 0.907,2.349 0,0.663 -0.148,1.243 -0.445,1.742 0.297,0.499 0.445,1.087 0.445,1.765" /></g><path
           id="path174"
           style="fill:#262626;fill-opacity:1;fill-rule:nonzero;stroke:none"
           d="M 74,186 H 46 v 12 h 28 z" /><g
           transform="translate(53.5483,196)"
           id="g176"><path
             id="path178"
             style="fill:#ff0000;fill-opacity:1;fill-rule:nonzero;stroke:none"
             d="M 0,0 V -8 H -5.548 Z" /></g><g
           transform="translate(58.1912,196)"
           id="g180"><path
             id="path182"
             style="fill:#ff0000;fill-opacity:1;fill-rule:nonzero;stroke:none"
             d="M 0,0 V -8 H -5.548 Z" /></g><g
           transform="translate(68.7459,196)"
           id="g184"><path
             id="path186"
             style="fill:#00b800;fill-opacity:1;fill-rule:nonzero;stroke:none"
             d="M 0,0 H -0.603 L -2.96,-1.714 h 0.602 z" /></g><g
           transform="translate(69.6352,196)"
           id="g188"><path
             id="path190"
             style="fill:#00b800;fill-opacity:1;fill-rule:nonzero;stroke:none"
             d="M 0,0 H -0.603 L -2.96,-1.714 h 0.602 z" /></g><g
           transform="translate(67.254,196)"
           id="g192"><path
             id="path194"
             style="fill:#00b800;fill-opacity:1;fill-rule:nonzero;stroke:none"
             d="m 0,0 -2.358,-1.714 h 0.603 L 0.603,0 Z" /></g><g
           transform="translate(64.3375,190.8571)"
           id="g196"><path
             id="path198"
             style="fill:#00b800;fill-opacity:1;fill-rule:nonzero;stroke:none"
             d="M 0,0 H 2.947 V -1.143 H -0.589 V 3.429 H 0.272 L 2.63,5.143 H -1.768 L -5.305,2.857 v -5.714 h 10.61 l 2.357,1.714 V 1.714 H 2.358 Z" /></g><g
           transform="translate(70.5245,196)"
           id="g200"><path
             id="path202"
             style="fill:#00b800;fill-opacity:1;fill-rule:nonzero;stroke:none"
             d="M 0,0 H -0.603 L -2.96,-1.714 h 0.602 z" /></g><g
           transform="translate(72,196)"
           id="g204"><path
             id="path206"
             style="fill:#00b800;fill-opacity:1;fill-rule:nonzero;stroke:none"
             d="m 0,0 h -1.189 l -2.357,-1.714 h 1.188 z" /></g><g
           transform="translate(171.9036,96.6761)"
           id="g208"><path
             id="path210"
             style="fill:#c2c2c2;fill-opacity:1;fill-rule:nonzero;stroke:none"
             d="m 0,0 v 0.538 h 1.936 c 0.143,0 0.214,0.059 0.214,0.179 V 1.076 H 3.226 V 0.538 C 3.226,0.179 3.082,0 2.795,0 Z m -1.29,1.076 h 1.075 V -0.359 H -1.29 Z m 0,0.179 c 0,0.359 0.143,0.538 0.43,0.538 h 3.655 c 0.287,0 0.431,-0.179 0.431,-0.538 z" /></g><path
           id="path212"
           style="fill:#000000;fill-opacity:1;fill-rule:nonzero;stroke:none"
           d="m 172.085,97.614 h 1.573 v -0.082 h -1.573 z m 2.614,1.173 h -3.655 c -0.194,0 -0.826,-0.062 -0.826,-0.856 0,-0.031 0.005,-0.061 0.016,-0.089 -0.011,-0.029 -0.016,-0.059 -0.016,-0.09 v -1.435 c 0,-0.175 0.177,-0.317 0.396,-0.317 h 1.075 c 0.219,0 0.396,0.142 0.396,0.317 v 0.042 h 2.614 c 0.194,0 0.826,0.061 0.826,0.855 v 0.538 c 0,0.031 -0.005,0.061 -0.016,0.09 0.011,0.028 0.016,0.058 0.016,0.089 0,0.794 -0.632,0.856 -0.826,0.856 m -3.01,-2.47 h -1.075 v 1.435 h 1.075 z m 3.44,1.435 v -0.538 c 0,-0.359 -0.143,-0.538 -0.43,-0.538 h -2.795 v 0.538 h 1.935 c 0.144,0 0.215,0.06 0.215,0.179 v 0.359 h 1.075 m -0.43,0.718 c 0.287,0 0.43,-0.18 0.43,-0.539 h -4.515 c 0,0.359 0.143,0.539 0.43,0.539 h 3.655" /><g
           transform="translate(175.9896,96.3173)"
           id="g214"><path
             id="path216"
             style="fill:#c2c2c2;fill-opacity:1;fill-rule:nonzero;stroke:none"
             d="M 0,0 C -0.287,0 -0.43,0.179 -0.43,0.538 V 1.435 H 0.645 V 0.718 c 0,-0.12 0.071,-0.18 0.215,-0.18 H 3.44 V 0 Z M 0.645,1.614 H -0.43 v 0.539 h 1.075 z" /></g><g
           transform="translate(176.6346,98.7869)"
           id="g218"><path
             id="path220"
             style="fill:#000000;fill-opacity:1;fill-rule:nonzero;stroke:none"
             d="m 0,0 h -1.075 c -0.219,0 -0.396,-0.142 -0.396,-0.317 v -0.539 c 0,-0.031 0.005,-0.061 0.016,-0.089 -0.011,-0.029 -0.016,-0.059 -0.016,-0.09 v -0.897 c 0,-0.793 0.632,-0.855 0.826,-0.855 h 3.44 c 0.219,0 0.396,0.142 0.396,0.317 v 0.538 c 0,0.176 -0.177,0.318 -0.396,0.318 H 0.396 v 0.579 c 0,0.031 -0.006,0.061 -0.016,0.09 0.01,0.028 0.016,0.058 0.016,0.089 v 0.539 C 0.396,-0.142 0.219,0 0,0 m 0,-1.035 v -0.717 c 0,-0.12 0.071,-0.18 0.215,-0.18 h 2.58 V -2.47 h -3.44 c -0.287,0 -0.43,0.18 -0.43,0.538 v 0.897 H 0 m 0,0.179 h -1.075 v 0.539 H 0 Z" /></g><path
           id="path222"
           style="fill:#c2c2c2;fill-opacity:1;fill-rule:nonzero;stroke:none"
           d="m 183.301,98.47 h 1.075 v -0.539 h -1.075 z m -3.011,-2.153 c -0.286,0 -0.43,0.179 -0.43,0.538 v 0.897 h 1.075 v -0.717 c 0,-0.12 0.072,-0.18 0.215,-0.18 h 1.936 c 0.143,0 0.215,0.06 0.215,0.18 v 0.717 h 1.075 v -0.897 c 0,-0.359 -0.144,-0.538 -0.43,-0.538 z m 0.645,1.614 h -1.075 v 0.539 h 1.075 z" /><g
           transform="translate(184.3757,98.7869)"
           id="g224"><path
             id="path226"
             style="fill:#000000;fill-opacity:1;fill-rule:nonzero;stroke:none"
             d="m 0,0 h -1.075 c -0.219,0 -0.396,-0.142 -0.396,-0.317 v -0.539 c 0,-0.031 0.005,-0.061 0.016,-0.089 -0.011,-0.029 -0.016,-0.059 -0.016,-0.09 v -0.579 h -1.573 v 0.579 c 0,0.031 -0.006,0.061 -0.016,0.09 0.01,0.028 0.016,0.058 0.016,0.089 v 0.539 C -3.044,-0.142 -3.222,0 -3.44,0 h -1.076 c -0.218,0 -0.396,-0.142 -0.396,-0.317 v -0.539 c 0,-0.031 0.006,-0.061 0.016,-0.089 -0.01,-0.029 -0.016,-0.059 -0.016,-0.09 v -0.897 c 0,-0.793 0.633,-0.855 0.827,-0.855 h 3.655 c 0.194,0 0.826,0.062 0.826,0.855 v 0.897 c 0,0.031 -0.006,0.061 -0.016,0.09 0.01,0.028 0.016,0.058 0.016,0.089 v 0.539 C 0.396,-0.142 0.219,0 0,0 M 0,-1.035 V -1.932 C 0,-2.29 -0.143,-2.47 -0.43,-2.47 h -3.655 c -0.287,0 -0.431,0.18 -0.431,0.538 v 0.897 h 1.076 v -0.717 c 0,-0.12 0.071,-0.18 0.214,-0.18 h 1.936 c 0.143,0 0.215,0.06 0.215,0.18 v 0.717 H 0 m -3.44,0.179 h -1.075 v 0.539 h 1.075 z m 3.44,0 h -1.075 v 0.539 H 0 Z" /></g><g
           transform="translate(184.8052,97.5729)"
           id="g228"><path
             id="path230"
             style="fill:#c2c2c2;fill-opacity:1;fill-rule:nonzero;stroke:none"
             d="M 0,0 V 0.179 H 1.075 C 1.075,0.059 1.147,0 1.29,0 h 2.581 c 0.43,0 0.645,-0.18 0.645,-0.538 v -0.18 c 0,-0.358 -0.144,-0.538 -0.431,-0.538 H 0 v 0.538 h 3.226 c 0.143,0 0.214,0.03 0.214,0.09 0,0.06 -0.071,0.09 -0.214,0.09 H 0.43 C 0.143,-0.538 0,-0.359 0,0 M 0,0.358 C 0,0.717 0.143,0.897 0.43,0.897 H 4.301 V 0.358 Z" /></g><g
           transform="translate(189.106,98.7869)"
           id="g232"><path
             id="path234"
             style="fill:#000000;fill-opacity:1;fill-rule:nonzero;stroke:none"
             d="m 0,0 h -3.871 c -0.193,0 -0.826,-0.062 -0.826,-0.856 0,-0.031 0.006,-0.061 0.016,-0.089 -0.01,-0.029 -0.016,-0.059 -0.016,-0.09 v -0.179 c 0,-0.213 0.046,-0.373 0.116,-0.493 -0.072,-0.058 -0.116,-0.137 -0.116,-0.225 V -2.47 c 0,-0.175 0.177,-0.317 0.396,-0.317 h 4.086 c 0.193,0 0.826,0.062 0.826,0.855 v 0.18 c 0,0.295 -0.118,0.524 -0.332,0.671 0.072,0.057 0.117,0.137 0.117,0.225 v 0.539 C 0.396,-0.142 0.219,0 0,0 m -3.226,-1.035 c 0,-0.12 0.072,-0.179 0.215,-0.179 h 2.581 c 0.43,0 0.645,-0.18 0.645,-0.538 v -0.18 c 0,-0.358 -0.144,-0.538 -0.43,-0.538 h -4.086 v 0.538 h 3.226 c 0.143,0 0.215,0.03 0.215,0.09 0,0.06 -0.072,0.09 -0.215,0.09 h -2.796 c -0.286,0 -0.43,0.179 -0.43,0.538 v 0.179 h 1.075 M 0,-0.317 v -0.539 h -4.301 c 0,0.359 0.144,0.539 0.43,0.539 H 0" /></g><g
           transform="translate(191.324,96.8552)"
           id="g236"><path
             id="path238"
             style="fill:#c2c2c2;fill-opacity:1;fill-rule:nonzero;stroke:none"
             d="M 0,0 V 0.897 H 1.075 V 0 H 3.226 C 3.369,0 3.44,0.03 3.44,0.09 3.44,0.149 3.369,0.18 3.226,0.18 H 1.935 v 0.538 h 1.936 c 0.43,0 0.645,-0.18 0.645,-0.538 V 0 c 0,-0.359 -0.144,-0.538 -0.431,-0.538 H 0.43 C 0.143,-0.538 0,-0.359 0,0 M 0,1.076 C 0,1.435 0.143,1.614 0.43,1.614 H 4.301 V 1.076 Z" /></g><g
           transform="translate(192.7953,97.6138)"
           id="g240"><path
             id="path242"
             style="fill:#000000;fill-opacity:1;fill-rule:nonzero;stroke:none"
             d="M 0,0 H 0.071 C 0.069,-0.013 0.068,-0.027 0.068,-0.041 v -0.4 H 0 Z m 2.83,1.173 h -3.871 c -0.194,0 -0.826,-0.062 -0.826,-0.856 0,-0.031 0.005,-0.061 0.016,-0.089 -0.011,-0.029 -0.016,-0.059 -0.016,-0.09 v -0.897 c 0,-0.793 0.632,-0.855 0.826,-0.855 h 3.655 c 0.194,0 0.826,0.062 0.826,0.855 v 0.18 c 0,0.295 -0.117,0.524 -0.332,0.671 0.073,0.057 0.118,0.137 0.118,0.225 v 0.539 c 0,0.175 -0.178,0.317 -0.396,0.317 M -0.396,0.138 v -0.897 h 2.15 c 0.144,0 0.215,0.03 0.215,0.09 0,0.06 -0.071,0.09 -0.215,0.09 h -1.29 v 0.538 h 1.935 c 0.431,0 0.645,-0.18 0.645,-0.538 v -0.18 c 0,-0.358 -0.143,-0.537 -0.43,-0.537 h -3.655 c -0.287,0 -0.43,0.179 -0.43,0.537 v 0.897 h 1.075 M 2.83,0.856 V 0.317 h -4.301 c 0,0.359 0.143,0.539 0.43,0.539 H 2.83" /></g><g
           transform="translate(200.1099,98.4696)"
           id="g244"><path
             id="path246"
             style="fill:#c2c2c2;fill-opacity:1;fill-rule:nonzero;stroke:none"
             d="M 0,0 H 1.29 L 0.331,-0.539 h -1.287 z m -0.013,-2.152 -1.262,0.709 -1.263,-0.709 h -1.289 l 1.907,1.073 -0.642,0.361 H 0.012 L -0.63,-1.079 1.277,-2.152 Z M -2.882,-0.539 -3.84,0 h 1.29 l 0.955,-0.539 z" /></g><g
           transform="translate(200.1218,97.4347)"
           id="g248"><path
             id="path250"
             style="fill:#000000;fill-opacity:1;fill-rule:nonzero;stroke:none"
             d="m 0,0 h 0.004 z m 1.278,0.718 h 0.004 z m 0,0.634 h -1.29 c -0.081,0 -0.161,-0.02 -0.228,-0.058 L -1.195,0.756 C -1.231,0.736 -1.262,0.711 -1.287,0.684 -1.312,0.711 -1.343,0.736 -1.379,0.756 L -2.334,1.294 C -2.401,1.332 -2.48,1.352 -2.562,1.352 h -1.29 c -0.173,0 -0.326,-0.09 -0.378,-0.222 -0.052,-0.132 0.009,-0.275 0.151,-0.355 l 0.958,-0.538 c 0.056,-0.032 0.122,-0.051 0.19,-0.056 0.028,-0.049 0.072,-0.091 0.129,-0.123 l 0.181,-0.102 -1.446,-0.814 c -0.141,-0.079 -0.202,-0.223 -0.15,-0.355 0.052,-0.132 0.205,-0.222 0.378,-0.222 h 1.29 c 0.081,0 0.16,0.02 0.227,0.058 l 1.035,0.582 1.035,-0.582 c 0.067,-0.038 0.146,-0.058 0.227,-0.058 h 1.29 c 0.173,0 0.326,0.09 0.378,0.222 0.052,0.132 -0.009,0.276 -0.15,0.355 L 0.047,-0.044 0.228,0.058 C 0.285,0.09 0.329,0.132 0.357,0.181 0.425,0.186 0.491,0.205 0.547,0.237 L 1.505,0.775 C 1.647,0.855 1.708,0.998 1.656,1.13 1.604,1.262 1.451,1.352 1.278,1.352 M 0,0.317 -0.642,-0.044 1.265,-1.117 h -1.29 l -1.262,0.709 -1.262,-0.709 h -1.29 l 1.907,1.073 -0.642,0.361 H 0 m -2.562,0.718 0.956,-0.539 h -1.287 l -0.959,0.539 h 1.29 m 3.84,0 L 0.32,0.496 h -1.287 l 0.955,0.539 h 1.29" /></g><g
           transform="translate(164.396,99.9247)"
           id="g252"><path
             id="path254"
             style="fill:#6897ff;fill-opacity:1;fill-rule:nonzero;stroke:none"
             d="M 0,0 V 2.684 L 1.826,3.758 H 6.694 L 5.477,2.953 H 2.434 V 0.805 H 4.26 V 1.342 H 2.738 L 3.955,2.147 H 6.694 V 0.805 L 5.477,0 Z" /></g><g
           transform="translate(171.0899,103.3654)"
           id="g256"><path
             id="path258"
             style="fill:#000000;fill-opacity:1;fill-rule:nonzero;stroke:none"
             d="M 0,0 H 0.004 Z M 0.004,0.635 H 0 -4.868 c -0.085,0 -0.167,-0.022 -0.235,-0.062 L -6.928,-0.501 C -7.03,-0.56 -7.09,-0.655 -7.09,-0.756 v -2.685 c 0,-0.175 0.177,-0.317 0.396,-0.317 h 5.477 c 0.092,0 0.181,0.026 0.252,0.073 l 1.217,0.805 c 0.091,0.06 0.144,0.15 0.144,0.245 v 1.342 c 0,0.175 -0.177,0.317 -0.396,0.317 h -2.738 c -0.092,0 -0.182,-0.026 -0.253,-0.073 l -0.873,-0.577 v 0.821 h 2.647 c 0.092,0 0.181,0.025 0.252,0.072 l 1.203,0.796 c 0.097,0.058 0.16,0.15 0.16,0.254 0,0.176 -0.175,0.318 -0.394,0.318 M 0,0.317 -1.217,-0.488 H -4.26 v -2.147 h 1.826 v 0.536 h -1.521 l 1.217,0.806 H 0 v -1.342 l -1.217,-0.806 h -5.477 v 2.685 l 1.826,1.073 H 0 m 0,0 h 0.004" /></g><g
           transform="translate(171.3942,99.9247)"
           id="g260"><path
             id="path262"
             style="fill:#6897ff;fill-opacity:1;fill-rule:nonzero;stroke:none"
             d="M 0,0 V 2.684 L 1.826,3.758 H 6.694 L 5.477,2.953 H 2.434 V 2.147 H 5.477 L 4.26,1.342 H 2.434 V 0.805 h 4.26 L 5.477,0 Z" /></g><g
           transform="translate(178.0881,103.3654)"
           id="g264"><path
             id="path266"
             style="fill:#000000;fill-opacity:1;fill-rule:nonzero;stroke:none"
             d="M 0,0 H 0.004 Z M 0.004,0.635 H 0 -4.868 c -0.085,0 -0.167,-0.022 -0.235,-0.062 L -6.928,-0.501 C -7.03,-0.56 -7.09,-0.655 -7.09,-0.756 v -2.685 c 0,-0.175 0.177,-0.317 0.396,-0.317 h 5.477 c 0.092,0 0.181,0.026 0.252,0.073 l 1.217,0.805 c 0.129,0.085 0.177,0.226 0.121,0.352 -0.057,0.126 -0.206,0.21 -0.373,0.21 h -2.144 l 1.165,0.77 c 0.097,0.058 0.16,0.151 0.16,0.255 0,0.175 -0.175,0.317 -0.394,0.317 h -0.004 -2.647 v 0.171 h 2.647 c 0.092,0 0.181,0.025 0.252,0.072 l 1.203,0.796 c 0.097,0.058 0.16,0.15 0.16,0.254 0,0.176 -0.175,0.318 -0.394,0.318 m -1.221,-1.928 h 0.004 M 0,0.317 -1.217,-0.488 H -4.26 v -0.805 h 3.043 L -2.434,-2.099 H -4.26 V -2.635 H 0 l -1.217,-0.806 h -5.477 v 2.685 l 1.826,1.073 H 0 m 0,0 h 0.004" /></g><g
           transform="translate(177.7838,99.9247)"
           id="g268"><path
             id="path270"
             style="fill:#6897ff;fill-opacity:1;fill-rule:nonzero;stroke:none"
             d="M 0,0 V 3.758 H 2.434 L 4.26,2.953 V 3.758 H 6.694 V 0 H 4.26 V 1.879 L 2.434,2.684 V 0 Z" /></g><g
           transform="translate(184.4777,104)"
           id="g272"><path
             id="path274"
             style="fill:#000000;fill-opacity:1;fill-rule:nonzero;stroke:none"
             d="M 0,0 H -2.434 C -2.653,0 -2.83,-0.142 -2.83,-0.317 v -0.269 l -1.239,0.547 C -4.127,-0.014 -4.193,0 -4.26,0 H -6.694 C -6.913,0 -7.09,-0.142 -7.09,-0.317 v -3.758 c 0,-0.176 0.177,-0.318 0.396,-0.318 h 2.434 c 0.219,0 0.396,0.142 0.396,0.318 v 2.147 l 1.034,-0.456 v -1.691 c 0,-0.176 0.177,-0.318 0.396,-0.318 H 0 c 0.219,0 0.396,0.142 0.396,0.318 v 3.758 C 0.396,-0.142 0.219,0 0,0 m 0,-0.317 v -3.758 h -2.434 v 1.879 l -1.826,0.805 v -2.684 h -2.434 v 3.758 h 2.434 l 1.826,-0.806 v 0.806 H 0" /></g><g
           transform="translate(184.7819,99.9247)"
           id="g276"><path
             id="path278"
             style="fill:#6897ff;fill-opacity:1;fill-rule:nonzero;stroke:none"
             d="M 0,0 V 2.684 L 1.826,3.758 H 6.694 L 5.477,2.953 H 2.434 V 2.147 H 5.477 L 4.26,1.342 H 2.434 V 0.805 h 4.26 L 5.477,0 Z" /></g><g
           transform="translate(191.4758,103.3654)"
           id="g280"><path
             id="path282"
             style="fill:#000000;fill-opacity:1;fill-rule:nonzero;stroke:none"
             d="M 0,0 H 0.004 Z M 0.004,0.635 H 0 -4.868 c -0.085,0 -0.167,-0.022 -0.235,-0.062 L -6.928,-0.501 C -7.03,-0.56 -7.09,-0.655 -7.09,-0.756 v -2.685 c 0,-0.175 0.177,-0.317 0.396,-0.317 h 5.477 c 0.092,0 0.181,0.026 0.252,0.073 l 1.217,0.805 c 0.129,0.085 0.177,0.226 0.121,0.352 -0.057,0.126 -0.206,0.21 -0.373,0.21 h -2.144 l 1.165,0.77 c 0.097,0.058 0.16,0.151 0.16,0.255 0,0.175 -0.175,0.317 -0.394,0.317 h -0.004 -2.647 v 0.171 h 2.647 c 0.092,0 0.181,0.025 0.252,0.072 l 1.203,0.796 c 0.097,0.058 0.16,0.15 0.16,0.254 0,0.176 -0.175,0.318 -0.394,0.318 m -1.221,-1.928 h 0.004 M 0,0.317 -1.217,-0.488 H -4.26 v -0.805 h 3.043 L -2.434,-2.099 H -4.26 V -2.635 H 0 l -1.217,-0.806 h -5.477 v 2.685 l 1.826,1.073 H 0 m 0,0 h 0.004" /></g><g
           transform="translate(191.1716,101.2668)"
           id="g284"><path
             id="path286"
             style="fill:#6897ff;fill-opacity:1;fill-rule:nonzero;stroke:none"
             d="M 0,0 V 1.342 L 1.826,2.416 H 6.694 L 5.477,1.611 H 2.434 V 0.805 h 4.26 V -0.537 L 5.477,-1.342 H 0 l 1.217,0.805 H 4.26 V 0 Z" /></g><g
           transform="translate(197.8654,103.3654)"
           id="g288"><path
             id="path290"
             style="fill:#000000;fill-opacity:1;fill-rule:nonzero;stroke:none"
             d="M 0,0 H 0.004 Z M 0.004,0.635 H 0 -4.868 c -0.085,0 -0.167,-0.022 -0.235,-0.062 L -6.928,-0.501 C -7.03,-0.56 -7.09,-0.655 -7.09,-0.756 v -1.343 c 0,-0.175 0.177,-0.317 0.396,-0.317 h 0.927 l -1.179,-0.78 c -0.129,-0.085 -0.177,-0.226 -0.121,-0.352 0.057,-0.126 0.206,-0.21 0.373,-0.21 h 5.477 c 0.092,0 0.181,0.026 0.252,0.073 l 1.217,0.805 c 0.091,0.06 0.144,0.15 0.144,0.245 v 1.342 c 0,0.175 -0.177,0.317 -0.396,0.317 h -3.864 v 0.171 h 2.647 c 0.092,0 0.181,0.025 0.252,0.072 l 1.203,0.796 c 0.097,0.058 0.16,0.15 0.16,0.254 0,0.176 -0.175,0.318 -0.394,0.318 M 0,0.317 -1.217,-0.488 H -4.26 V -1.293 H 0 v -1.342 l -1.217,-0.806 h -5.477 l 1.217,0.806 h 3.043 v 0.536 h -4.26 v 1.343 l 1.826,1.073 H 0 m 0,0 h 0.004" /></g><path
           id="path292"
           style="fill:#6897ff;fill-opacity:1;fill-rule:nonzero;stroke:none"
           d="m 198.17,103.683 h 2.434 v -3.758 h -2.434 z" /><g
           transform="translate(200.6038,104)"
           id="g294"><path
             id="path296"
             style="fill:#000000;fill-opacity:1;fill-rule:nonzero;stroke:none"
             d="M 0,0 H -2.434 C -2.653,0 -2.83,-0.142 -2.83,-0.317 v -3.758 c 0,-0.176 0.177,-0.318 0.396,-0.318 H 0 c 0.219,0 0.396,0.142 0.396,0.318 v 3.758 C 0.396,-0.142 0.219,0 0,0 m 0,-4.075 h -2.434 v 3.758 H 0 Z" /></g><g
           transform="translate(200.9081,101.2668)"
           id="g298"><path
             id="path300"
             style="fill:#6897ff;fill-opacity:1;fill-rule:nonzero;stroke:none"
             d="M 0,0 V 1.342 L 1.826,2.416 H 6.694 L 5.477,1.611 H 2.434 V 0.805 h 4.26 V -0.537 L 5.477,-1.342 H 0 l 1.217,0.805 H 4.26 V 0 Z" /></g><g
           transform="translate(207.602,103.3654)"
           id="g302"><path
             id="path304"
             style="fill:#000000;fill-opacity:1;fill-rule:nonzero;stroke:none"
             d="M 0,0 H 0.004 Z M 0.004,0.635 H 0 -4.868 c -0.085,0 -0.167,-0.022 -0.235,-0.062 L -6.928,-0.501 C -7.03,-0.56 -7.09,-0.655 -7.09,-0.756 v -1.343 c 0,-0.175 0.177,-0.317 0.396,-0.317 h 0.927 l -1.179,-0.78 c -0.129,-0.085 -0.177,-0.226 -0.121,-0.352 0.057,-0.126 0.206,-0.21 0.373,-0.21 h 5.477 c 0.092,0 0.181,0.026 0.252,0.073 l 1.217,0.805 c 0.091,0.06 0.144,0.15 0.144,0.245 v 1.342 c 0,0.175 -0.177,0.317 -0.396,0.317 h -3.864 v 0.171 h 2.647 c 0.092,0 0.181,0.025 0.252,0.072 l 1.203,0.796 c 0.097,0.058 0.16,0.15 0.16,0.254 0,0.176 -0.175,0.318 -0.394,0.318 M 0,0.317 -1.217,-0.488 H -4.26 V -1.293 H 0 v -1.342 l -1.217,-0.806 h -5.477 l 1.217,0.806 h 3.043 v 0.536 h -4.26 v 1.343 l 1.826,1.073 H 0 m 0,0 h 0.004" /></g><g
           transform="translate(106.1992,97.8947)"
           id="g306"><path
             id="path308"
             style="fill:#ffffff;fill-opacity:1;fill-rule:nonzero;stroke:none"
             d="m 0,0 -0.551,-0.958 c -0.043,-0.063 -0.108,-0.095 -0.194,-0.095 h -1.814 v 2.316 h 1.814 c 0.086,0 0.151,-0.035 0.194,-0.105 L 0,0.211 0.032,0.105 Z M 1.555,0.211 0.551,1.895 c -0.087,0.14 -0.195,0.21 -0.324,0.21 h -4.341 v -4 h 4.341 c 0.129,0 0.237,0.07 0.324,0.211 L 1.555,0 1.587,0.105 Z" /></g><g
           transform="translate(108.3047,100)"
           id="g310"><path
             id="path312"
             style="fill:#ffffff;fill-opacity:1;fill-rule:nonzero;stroke:none"
             d="M 0,0 H 4.146 C 4.276,0 4.384,-0.07 4.47,-0.211 L 5.151,-1.368 5.183,-1.474 5.151,-1.579 4.146,-2.526 5.183,-4 H 3.628 l -1.49,2 h 0.777 c 0.087,0 0.152,0.018 0.195,0.053 l 0.518,0.473 -0.259,0.527 c -0.043,0.07 -0.108,0.105 -0.194,0.105 H 1.555 L 1.555,-4 H 0 Z" /></g><g
           transform="translate(115.5609,96)"
           id="g314"><path
             id="path316"
             style="fill:#ffffff;fill-opacity:1;fill-rule:nonzero;stroke:none"
             d="M 0,0 H -1.555 V 4 H 0 Z" /></g><g
           transform="translate(87.4228,96)"
           id="g318"><path
             id="path320"
             style="fill:#0000ff;fill-opacity:1;fill-rule:nonzero;stroke:none"
             d="M 0,0 H -1.555 V 4 H 0 Z" /></g><g
           transform="translate(117.6341,98.6842)"
           id="g322"><path
             id="path324"
             style="fill:#ffffff;fill-opacity:1;fill-rule:nonzero;stroke:none"
             d="M 0,0 1.555,-1.842 3.11,0 v 1.316 h 1.555 v -1.474 c 0,-0.14 -0.022,-0.246 -0.065,-0.316 L 2.851,-2.684 H 0.259 l -1.749,2.21 c -0.043,0.07 -0.065,0.176 -0.065,0.316 v 1.474 l 1.555,0 z" /></g><g
           transform="translate(124.3719,97.5789)"
           id="g326"><path
             id="path328"
             style="fill:#ffffff;fill-opacity:1;fill-rule:nonzero;stroke:none"
             d="m 0,0 v -0.737 h 3.628 v -0.842 h -5.183 v 2.632 c 0,0.07 0.022,0.14 0.065,0.21 l 0.713,1.053 c 0.043,0.07 0.129,0.105 0.259,0.105 H 3.628 V 1.579 H 0.518 C 0.432,1.579 0.367,1.544 0.324,1.474 L 0,0.842 H 3.628 L 3.11,0 Z" /></g><g
           transform="translate(82.9154,98)"
           id="g330"><path
             id="path332"
             style="fill:#0000ff;fill-opacity:1;fill-rule:nonzero;stroke:none"
             d="m 0,0 h -0.777 l 0.308,-0.414 c 0.05,-0.067 0.14,-0.108 0.236,-0.108 h 1.342 c 0.08,0 0.157,0.028 0.209,0.078 L 2.235,0.421 2.268,0.526 2.235,0.632 1.555,1.789 C 1.468,1.93 1.361,2 1.231,2 h -4.146 v -4 h 1.554 v 3.158 h 1.62 c 0.087,0 0.151,-0.035 0.195,-0.105 L 0.713,0.526 0.194,0.053 C 0.151,0.018 0.086,0 0,0" /></g><g
           transform="translate(93.5198,96.8424)"
           id="g334"><path
             id="path336"
             style="fill:#0000ff;fill-opacity:1;fill-rule:nonzero;stroke:none"
             d="m 0,0 h -1.304 v 0 h -2.609 v 1.579 l 0.326,0.631 c 0.043,0.07 0.109,0.106 0.196,0.106 H 0 v 0.842 h -4.435 c -0.13,0 -0.217,-0.035 -0.261,-0.106 L -5.413,2 C -5.457,1.93 -5.478,1.859 -5.478,1.789 v -2.421 c 0,-0.14 0.087,-0.21 0.26,-0.21 l 5.218,0 z" /></g><g
           transform="translate(98.6452,97.8947)"
           id="g338"><path
             id="path340"
             style="fill:#0000ff;fill-opacity:1;fill-rule:nonzero;stroke:none"
             d="m 0,0 -0.551,-0.958 c -0.043,-0.063 -0.108,-0.095 -0.194,-0.095 h -0.168 -1.441 -0.167 c -0.087,0 -0.151,0.032 -0.195,0.095 L -3.266,0 l -0.033,0.105 0.033,0.106 0.55,0.947 c 0.044,0.07 0.108,0.105 0.195,0.105 h 0.167 1.441 0.168 c 0.086,0 0.151,-0.035 0.194,-0.105 L 0,0.211 0.032,0.105 Z M 1.555,0.211 0.551,1.895 c -0.087,0.14 -0.195,0.21 -0.324,0.21 h -3.72 c -0.13,0 -0.238,-0.07 -0.324,-0.21 L -4.821,0.211 -4.854,0.105 -4.821,0 -3.817,-1.684 c 0.086,-0.141 0.194,-0.211 0.324,-0.211 h 3.72 c 0.129,0 0.237,0.07 0.324,0.211 L 1.555,0 1.587,0.105 Z" /></g><g
           transform="translate(66,84)"
           id="g342"><path
             id="path344"
             style="fill:#ffffff;fill-opacity:1;fill-rule:nonzero;stroke:none"
             d="M 0,0 -11.052,5.71 C -11.684,5.982 -12,6.254 -12,6.526 v 4.078 h 1.469 l -0.521,0.272 C -11.684,11.148 -12,11.42 -12,11.692 v 4.894 H 0 V 13.323 H -9.474 L 0,8.429 V 5.166 L -9.474,10.06 V 8.429 c 0,-0.181 0.106,-0.363 0.316,-0.544 L 0,3.263 Z" /></g><g
           transform="translate(61.2632,104.9363)"
           id="g346"><path
             id="path348"
             style="fill:#ffffff;fill-opacity:1;fill-rule:nonzero;stroke:none"
             d="M 0,0 H 2.21 V 7.613 H 4.737 V -3.263 h -7.895 c -0.21,0 -0.421,0.046 -0.631,0.136 l -3.158,1.496 c -0.211,0.09 -0.316,0.272 -0.316,0.543 v 8.701 h 2.526 V 1.088 c 0,-0.182 0.105,-0.318 0.316,-0.408 L -2.526,0 V 7.613 L 0,6.526 Z" /></g><g
           transform="translate(63.4737,116.8999)"
           id="g350"><path
             id="path352"
             style="fill:#ffffff;fill-opacity:1;fill-rule:nonzero;stroke:none"
             d="M 0,0 V 5.438 H -2.21 V 3.263 L -4.737,4.35 v 4.351 h 6.632 c 0.421,0 0.631,-0.181 0.631,-0.544 V -2.719 c 0,-0.363 -0.21,-0.544 -0.631,-0.544 h -7.263 c -0.211,0 -0.421,0.046 -0.632,0.136 l -3.158,1.496 c -0.21,0.09 -0.316,0.272 -0.316,0.543 v 9.245 h 2.527 V 1.088 c 0,-0.182 0.105,-0.318 0.316,-0.408 L -4.737,0 Z" /></g><g
           transform="translate(63.4737,146.692)"
           id="g354"><path
             id="path356"
             style="fill:#ffffff;fill-opacity:1;fill-rule:nonzero;stroke:none"
             d="M 0,0 V 5.438 H -2.21 V 3.263 L -4.737,4.35 v 4.351 h 6.632 c 0.421,0 0.631,-0.181 0.631,-0.544 V -2.719 c 0,-0.363 -0.21,-0.544 -0.631,-0.544 h -7.263 c -0.211,0 -0.421,0.046 -0.632,0.136 l -3.158,1.496 c -0.21,0.09 -0.316,0.272 -0.316,0.543 v 9.245 h 2.527 V 1.088 c 0,-0.182 0.105,-0.318 0.316,-0.408 L -4.737,0 Z" /></g><g
           transform="translate(60.9474,133.4722)"
           id="g358"><path
             id="path360"
             style="fill:#ffffff;fill-opacity:1;fill-rule:nonzero;stroke:none"
             d="m 0,0 v -3.521 h -4.421 v 0.544 c 0,0.181 0.105,0.362 0.316,0.543 z M -6,0.286 C -6.631,0.014 -6.947,-0.258 -6.947,-0.53 v -6.254 h 12 v 3.263 H 0.237 l 2.289,1.087 v 3.943 l 2.527,1.496 v 3.806 z" /></g><g
           transform="translate(54,176.7588)"
           id="g362"><path
             id="path364"
             style="fill:#ffffff;fill-opacity:1;fill-rule:nonzero;stroke:none"
             d="M 0,0 H 5.726 L 0.948,-2.469 C 0.316,-2.741 0,-3.012 0,-3.284 v -4.895 h 12 v 3.263 H 2.526 L 12,-0.022 V 0 3.241 H 0 Z" /></g><g
           transform="translate(61.2632,159.4241)"
           id="g366"><path
             id="path368"
             style="fill:#ffffff;fill-opacity:1;fill-rule:nonzero;stroke:none"
             d="M 0,0 H 2.211 V 7.563 H 4.737 V -3.241 h -7.895 c -0.21,0 -0.421,0.045 -0.631,0.135 l -3.158,1.485 c -0.211,0.09 -0.316,0.27 -0.316,0.541 v 8.643 h 2.526 V 1.08 c 0,-0.18 0.105,-0.315 0.316,-0.405 L -2.526,0 V 7.563 L 0,6.482 Z" /></g><g
           transform="translate(214,87.6725)"
           id="g370"><path
             id="path372"
             style="fill:#191919;fill-opacity:1;fill-rule:nonzero;stroke:none"
             d="M 0,0 C 0,-5.342 -4.331,-9.673 -9.673,-9.673 H -164 c -4.418,0 -8,3.582 -8,8 v 112 h -2 v -112 c 0,-5.514 4.486,-10 10,-10 H -9.673 C -3.236,-11.673 2,-6.436 2,0 V 110.327 H 0 Z" /></g></g></g></g></svg>