<?xml version="1.0" encoding="UTF-8" standalone="no"?>
<svg
   xmlns:dc="http://purl.org/dc/elements/1.1/"
   xmlns:cc="http://creativecommons.org/ns#"
   xmlns:rdf="http://www.w3.org/1999/02/22-rdf-syntax-ns#"
   xmlns:svg="http://www.w3.org/2000/svg"
   xmlns="http://www.w3.org/2000/svg"
   viewBox="0 0 341.33334 341.33334"
   height="256"
   width="256"
   xml:space="preserve"
   id="svg2"
   version="1.1"><metadata
     id="metadata8"><rdf:RDF><cc:Work
         rdf:about=""><dc:format>image/svg+xml</dc:format><dc:type
           rdf:resource="http://purl.org/dc/dcmitype/StillImage" /></cc:Work></rdf:RDF></metadata><defs
     id="defs6"><clipPath
       id="clipPath18"
       clipPathUnits="userSpaceOnUse"><path
         id="path16"
         d="M 0,256 H 256 V 0 H 0 Z" /></clipPath><clipPath
       id="clipPath26"
       clipPathUnits="userSpaceOnUse"><path
         id="path24"
         d="M 4,208 H 252 V 48 H 4 Z" /></clipPath><clipPath
       id="clipPath44"
       clipPathUnits="userSpaceOnUse"><path
         id="path42"
         d="M 0,256 H 256 V 0 H 0 Z" /></clipPath></defs><g
     transform="matrix(1.3333333,0,0,-1.3333333,0,341.33333)"
     id="g10"><g
       id="g12"><g
         clip-path="url(#clipPath18)"
         id="g14"><g
           id="g20"><g
             id="g22" /><g
             id="g34"><g
               style="opacity:0.5"
               id="g32"
               clip-path="url(#clipPath26)"><g
                 id="g30"
                 transform="translate(244,208)"><path
                   id="path28"
                   style="fill:#fcfcfc;fill-opacity:1;fill-rule:nonzero;stroke:none"
                   d="m 0,0 h -232 c -4.418,0 -8,-3.582 -8,-8 v -144 c 0,-4.418 3.582,-8 8,-8 H 0 c 4.418,0 8,3.582 8,8 V -8 C 8,-3.582 4.418,0 0,0" /></g></g></g></g></g></g><path
       id="path36"
       style="fill:#262626;fill-opacity:1;fill-rule:nonzero;stroke:none"
       d="M 244,56 H 12 v 144 h 232 z" /><g
       id="g38"><g
         clip-path="url(#clipPath44)"
         id="g40"><g
           transform="translate(244,56)"
           id="g46"><path
             id="path48"
             style="fill:#191919;fill-opacity:1;fill-rule:nonzero;stroke:none"
             d="m 0,0 h -232 v 91 c 0,2.761 2.239,5 5,5 H -5 c 2.761,0 5,-2.239 5,-5 z" /></g><path
           id="path50"
           style="fill:#4c4c4c;fill-opacity:1;fill-rule:nonzero;stroke:none"
           d="M 36,132 H 20 v 12 h 16 z" /><path
           id="path52"
           style="fill:#4c4c4c;fill-opacity:1;fill-rule:nonzero;stroke:none"
           d="M 56,132 H 40 v 12 h 16 z" /><path
           id="path54"
           style="fill:#4c4c4c;fill-opacity:1;fill-rule:nonzero;stroke:none"
           d="M 76,132 H 60 v 12 h 16 z" /><path
           id="path56"
           style="fill:#4c4c4c;fill-opacity:1;fill-rule:nonzero;stroke:none"
           d="M 96,132 H 80 v 12 h 16 z" /><path
           id="path58"
           style="fill:#4c4c4c;fill-opacity:1;fill-rule:nonzero;stroke:none"
           d="m 116,132 h -16 v 12 h 16 z" /><path
           id="path60"
           style="fill:#4c4c4c;fill-opacity:1;fill-rule:nonzero;stroke:none"
           d="m 136,132 h -16 v 12 h 16 z" /><path
           id="path62"
           style="fill:#4c4c4c;fill-opacity:1;fill-rule:nonzero;stroke:none"
           d="m 156,132 h -16 v 12 h 16 z" /><path
           id="path64"
           style="fill:#4c4c4c;fill-opacity:1;fill-rule:nonzero;stroke:none"
           d="m 176,132 h -16 v 12 h 16 z" /><path
           id="path66"
           style="fill:#4c4c4c;fill-opacity:1;fill-rule:nonzero;stroke:none"
           d="m 196,132 h -16 v 12 h 16 z" /><path
           id="path68"
           style="fill:#4c4c4c;fill-opacity:1;fill-rule:nonzero;stroke:none"
           d="m 216,132 h -16 v 12 h 16 z" /><path
           id="path70"
           style="fill:#4c4c4c;fill-opacity:1;fill-rule:nonzero;stroke:none"
           d="M 48,112 H 32 v 12 h 16 z" /><path
           id="path72"
           style="fill:#4c4c4c;fill-opacity:1;fill-rule:nonzero;stroke:none"
           d="M 68,112 H 52 v 12 h 16 z" /><path
           id="path74"
           style="fill:#4c4c4c;fill-opacity:1;fill-rule:nonzero;stroke:none"
           d="M 88,112 H 72 v 12 h 16 z" /><path
           id="path76"
           style="fill:#4c4c4c;fill-opacity:1;fill-rule:nonzero;stroke:none"
           d="M 108,112 H 92 v 12 h 16 z" /><path
           id="path78"
           style="fill:#4c4c4c;fill-opacity:1;fill-rule:nonzero;stroke:none"
           d="m 128,112 h -16 v 12 h 16 z" /><path
           id="path80"
           style="fill:#4c4c4c;fill-opacity:1;fill-rule:nonzero;stroke:none"
           d="m 148,112 h -16 v 12 h 16 z" /><path
           id="path82"
           style="fill:#4c4c4c;fill-opacity:1;fill-rule:nonzero;stroke:none"
           d="m 168,112 h -16 v 12 h 16 z" /><path
           id="path84"
           style="fill:#4c4c4c;fill-opacity:1;fill-rule:nonzero;stroke:none"
           d="m 188,112 h -16 v 12 h 16 z" /><path
           id="path86"
           style="fill:#4c4c4c;fill-opacity:1;fill-rule:nonzero;stroke:none"
           d="m 208,112 h -16 v 12 h 16 z" /><path
           id="path88"
           style="fill:#4c4c4c;fill-opacity:1;fill-rule:nonzero;stroke:none"
           d="m 228,112 h -16 v 12 h 16 z" /><path
           id="path90"
           style="fill:#4c4c4c;fill-opacity:1;fill-rule:nonzero;stroke:none"
           d="m 40.24,72 h -16 v 12 h 16 z" /><path
           id="path92"
           style="fill:#4c4c4c;fill-opacity:1;fill-rule:nonzero;stroke:none"
           d="M 60,72 H 44 v 12 h 16 z" /><path
           id="path94"
           style="fill:#4c4c4c;fill-opacity:1;fill-rule:nonzero;stroke:none"
           d="m 79.76,72 h -16 v 12 h 16 z" /><path
           id="path96"
           style="fill:#4c4c4c;fill-opacity:1;fill-rule:nonzero;stroke:none"
           d="m 99.52,72 h -16 v 12 h 16 z" /><path
           id="path98"
           style="fill:#4c4c4c;fill-opacity:1;fill-rule:nonzero;stroke:none"
           d="m 119.28,72 h -16 v 12 h 16 z" /><path
           id="path100"
           style="fill:#4c4c4c;fill-opacity:1;fill-rule:nonzero;stroke:none"
           d="m 139.041,72 h -16 v 12 h 16 z" /><path
           id="path102"
           style="fill:#4c4c4c;fill-opacity:1;fill-rule:nonzero;stroke:none"
           d="m 158.801,72 h -16 v 12 h 16 z" /><path
           id="path104"
           style="fill:#4c4c4c;fill-opacity:1;fill-rule:nonzero;stroke:none"
           d="m 178.561,72 h -16 v 12 h 16 z" /><path
           id="path106"
           style="fill:#4c4c4c;fill-opacity:1;fill-rule:nonzero;stroke:none"
           d="m 198.321,72 h -16 v 12 h 16 z" /><path
           id="path108"
           style="fill:#191919;fill-opacity:1;fill-rule:nonzero;stroke:none"
           d="m 20,196 h 1.333 v -8 H 20 Z" /><path
           id="path110"
           style="fill:#191919;fill-opacity:1;fill-rule:nonzero;stroke:none"
           d="M 22.667,193.714 H 24 V 188 h -1.333 z m 0,2.286 H 24 v -1.143 h -1.333 z" /><path
           id="path112"
           style="fill:#191919;fill-opacity:1;fill-rule:nonzero;stroke:none"
           d="m 36,192.571 h -9.333 v -3.429 H 36 Z M 25.333,188 v 8 h 1.334 v -2.286 H 37.333 V 188 Z" /><g
           transform="translate(38.6665,188)"
           id="g114"><path
             id="path116"
             style="fill:#191919;fill-opacity:1;fill-rule:nonzero;stroke:none"
             d="M 0,0 V 5.714 H 12 V 4.571 H 1.333 L 1.333,0 Z" /></g><path
           id="path118"
           style="fill:#191919;fill-opacity:1;fill-rule:nonzero;stroke:none"
           d="m 62.666,192.571 h -9.333 v -1.143 h 9.333 z M 64,189.143 V 188 H 52 v 5.714 h 12 v -3.428 H 53.333 v -1.143 z" /><g
           transform="translate(77.3327,189.1429)"
           id="g120"><path
             id="path122"
             style="fill:#191919;fill-opacity:1;fill-rule:nonzero;stroke:none"
             d="m 0,0 v -1.143 h -12 v 8 h 1.333 V 4.571 H 0 V 3.429 H -10.667 V 0 Z" /></g><g
           transform="translate(78.6661,188)"
           id="g124"><path
             id="path126"
             style="fill:#191919;fill-opacity:1;fill-rule:nonzero;stroke:none"
             d="M 0,0 V 5.714 H 12 V 4.571 H 1.333 L 1.333,0 Z" /></g><path
           id="path128"
           style="fill:#191919;fill-opacity:1;fill-rule:nonzero;stroke:none"
           d="m 102.667,192.571 h -9.334 v -3.429 h 9.334 z m -10.668,1.143 H 104 V 188 H 91.999 Z" /><g
           transform="translate(25.5364,182.5307)"
           id="g130"><path
             id="path132"
             style="fill:#d9d9d9;fill-opacity:1;fill-rule:nonzero;stroke:none"
             d="M 0,0 C 0.216,0 0.387,0.039 0.512,0.116 0.638,0.193 0.701,0.332 0.701,0.534 0.701,0.751 0.613,0.898 0.437,0.977 0.343,1.018 0.217,1.039 0.06,1.039 H -1.063 V 0 Z M -1.536,1.393 H 0.051 C 0.313,1.393 0.528,1.359 0.697,1.291 1.02,1.161 1.181,0.922 1.181,0.573 1.181,0.391 1.138,0.242 1.052,0.126 0.965,0.01 0.844,-0.083 0.689,-0.153 0.825,-0.202 0.928,-0.265 0.997,-0.344 1.066,-0.422 1.104,-0.55 1.112,-0.726 L 1.128,-1.134 C 1.133,-1.25 1.145,-1.336 1.162,-1.393 1.19,-1.489 1.241,-1.551 1.314,-1.579 v -0.068 h -0.58 c -0.016,0.026 -0.029,0.06 -0.038,0.101 -0.009,0.042 -0.017,0.122 -0.024,0.24 l -0.028,0.507 c -0.011,0.199 -0.094,0.332 -0.247,0.4 -0.088,0.037 -0.226,0.055 -0.414,0.055 h -1.046 v -1.303 h -0.473 z" /></g><g
           transform="translate(29.1284,182.1687)"
           id="g134"><path
             id="path136"
             style="fill:#d9d9d9;fill-opacity:1;fill-rule:nonzero;stroke:none"
             d="m 0,0 c -0.017,0.161 -0.058,0.29 -0.12,0.387 -0.117,0.179 -0.311,0.269 -0.583,0.269 -0.194,0 -0.358,-0.062 -0.49,-0.185 C -1.325,0.347 -1.395,0.19 -1.403,0 Z M -0.153,0.87 C 0.015,0.796 0.144,0.701 0.232,0.584 0.317,0.472 0.373,0.341 0.402,0.192 0.427,0.09 0.44,-0.072 0.44,-0.296 h -1.852 c 0.008,-0.225 0.068,-0.406 0.181,-0.543 0.113,-0.136 0.289,-0.204 0.526,-0.204 0.222,0 0.399,0.065 0.531,0.193 0.074,0.075 0.126,0.162 0.157,0.26 h 0.421 c -0.011,-0.081 -0.048,-0.172 -0.11,-0.272 -0.063,-0.1 -0.133,-0.182 -0.21,-0.245 -0.129,-0.11 -0.289,-0.185 -0.479,-0.224 -0.102,-0.022 -0.218,-0.033 -0.347,-0.033 -0.315,0 -0.582,0.101 -0.801,0.301 -0.219,0.201 -0.328,0.482 -0.328,0.844 0,0.356 0.11,0.645 0.33,0.867 0.221,0.222 0.509,0.333 0.865,0.333 0.18,0 0.354,-0.037 0.523,-0.111" /></g><g
           transform="translate(30.1956,183.7184)"
           id="g138"><path
             id="path140"
             style="fill:#d9d9d9;fill-opacity:1;fill-rule:nonzero;stroke:none"
             d="M 0,0 H 0.433 V -0.618 H 0.839 V -0.923 H 0.433 v -1.446 c 0,-0.078 0.03,-0.129 0.09,-0.156 0.033,-0.015 0.089,-0.022 0.166,-0.022 0.021,0 0.043,0 0.067,0.001 0.024,10e-4 0.052,0.003 0.083,0.007 V -2.835 C 0.79,-2.847 0.739,-2.856 0.686,-2.862 0.633,-2.867 0.575,-2.87 0.514,-2.87 c -0.2,0 -0.336,0.045 -0.407,0.133 C 0.036,-2.648 0,-2.532 0,-2.39 v 1.467 h -0.345 v 0.305 H 0 Z" /></g><g
           transform="translate(31.475,183.0999)"
           id="g142"><path
             id="path144"
             style="fill:#d9d9d9;fill-opacity:1;fill-rule:nonzero;stroke:none"
             d="m 0,0 h 0.406 v -0.383 c 0.033,0.075 0.116,0.165 0.245,0.272 0.13,0.107 0.28,0.161 0.45,0.161 0.008,0 0.021,-0.001 0.04,-0.002 C 1.16,0.046 1.193,0.044 1.239,0.039 V -0.354 C 1.213,-0.35 1.19,-0.347 1.169,-0.346 1.147,-0.344 1.124,-0.344 1.098,-0.344 0.883,-0.344 0.717,-0.404 0.601,-0.525 0.486,-0.645 0.428,-0.784 0.428,-0.942 V -2.216 H 0 Z" /></g><g
           transform="translate(34.6638,181.4057)"
           id="g146"><path
             id="path148"
             style="fill:#d9d9d9;fill-opacity:1;fill-rule:nonzero;stroke:none"
             d="m 0,0 c 0.105,0.187 0.157,0.394 0.157,0.623 0,0.207 -0.038,0.375 -0.113,0.504 -0.119,0.204 -0.325,0.307 -0.616,0.307 -0.259,0 -0.447,-0.087 -0.565,-0.261 -0.117,-0.174 -0.176,-0.383 -0.176,-0.628 0,-0.236 0.059,-0.432 0.176,-0.589 0.118,-0.158 0.305,-0.236 0.56,-0.236 0.281,0 0.473,0.093 0.577,0.28 m 0.266,1.473 c 0.225,-0.19 0.338,-0.47 0.338,-0.839 0,-0.357 -0.099,-0.652 -0.298,-0.885 -0.198,-0.233 -0.506,-0.35 -0.923,-0.35 -0.348,0 -0.624,0.103 -0.829,0.309 -0.205,0.207 -0.307,0.483 -0.307,0.83 0,0.373 0.108,0.669 0.324,0.889 0.216,0.221 0.505,0.331 0.869,0.331 0.326,0 0.601,-0.095 0.826,-0.285" /></g><g
           transform="translate(36.1588,181.8646)"
           id="g150"><path
             id="path152"
             style="fill:#d9d9d9;fill-opacity:1;fill-rule:nonzero;stroke:none"
             d="m 0,0 c 0.011,-0.172 0.056,-0.312 0.135,-0.42 0.151,-0.201 0.418,-0.302 0.799,-0.302 0.171,0 0.327,0.022 0.468,0.066 0.272,0.086 0.407,0.239 0.407,0.459 0,0.166 -0.057,0.284 -0.173,0.354 C 1.52,0.226 1.337,0.286 1.088,0.337 L 0.63,0.431 c -0.299,0.06 -0.511,0.127 -0.636,0.2 -0.215,0.127 -0.322,0.317 -0.322,0.569 0,0.273 0.105,0.498 0.317,0.673 0.211,0.175 0.51,0.262 0.898,0.262 0.356,0 0.658,-0.076 0.908,-0.23 0.249,-0.154 0.373,-0.4 0.373,-0.738 H 1.724 C 1.701,1.33 1.652,1.455 1.578,1.542 1.44,1.7 1.205,1.78 0.873,1.78 0.606,1.78 0.414,1.728 0.297,1.627 0.18,1.524 0.121,1.406 0.121,1.27 0.121,1.121 0.191,1.013 0.329,0.944 0.419,0.899 0.624,0.844 0.944,0.778 L 1.418,0.681 C 1.647,0.634 1.824,0.57 1.948,0.488 2.163,0.346 2.271,0.14 2.271,-0.131 2.271,-0.467 2.133,-0.708 1.859,-0.852 1.585,-0.997 1.266,-1.07 0.903,-1.07 c -0.424,0 -0.755,0.096 -0.995,0.29 -0.24,0.191 -0.357,0.452 -0.353,0.78 z" /></g><g
           transform="translate(40.6147,181.3524)"
           id="g154"><path
             id="path156"
             style="fill:#d9d9d9;fill-opacity:1;fill-rule:nonzero;stroke:none"
             d="M 0,0 C 0.133,0.146 0.199,0.363 0.199,0.653 0.199,0.829 0.17,0.981 0.111,1.108 0,1.352 -0.204,1.474 -0.5,1.474 -0.797,1.474 -1.001,1.345 -1.111,1.087 -1.169,0.949 -1.199,0.774 -1.199,0.562 c 0,-0.171 0.03,-0.317 0.088,-0.437 0.112,-0.229 0.315,-0.343 0.611,-0.343 0.201,0 0.367,0.072 0.5,0.218 m -1.61,1.737 h 0.418 V 1.443 c 0.086,0.101 0.18,0.179 0.282,0.234 0.144,0.083 0.314,0.124 0.51,0.124 0.289,0 0.534,-0.096 0.736,-0.288 C 0.538,1.32 0.639,1.045 0.639,0.688 0.639,0.205 0.494,-0.14 0.202,-0.347 0.018,-0.478 -0.197,-0.543 -0.442,-0.543 c -0.193,0 -0.354,0.037 -0.485,0.11 -0.076,0.041 -0.161,0.112 -0.255,0.213 V -1.352 H -1.61 Z" /></g><g
           transform="translate(43.4748,182.1687)"
           id="g158"><path
             id="path160"
             style="fill:#d9d9d9;fill-opacity:1;fill-rule:nonzero;stroke:none"
             d="m 0,0 c -0.017,0.161 -0.058,0.29 -0.12,0.387 -0.117,0.179 -0.311,0.269 -0.583,0.269 -0.194,0 -0.358,-0.062 -0.49,-0.185 C -1.325,0.347 -1.395,0.19 -1.403,0 Z M -0.153,0.87 C 0.015,0.796 0.144,0.701 0.232,0.584 0.317,0.472 0.373,0.341 0.402,0.192 0.427,0.09 0.44,-0.072 0.44,-0.296 h -1.852 c 0.008,-0.225 0.068,-0.406 0.181,-0.543 0.113,-0.136 0.289,-0.204 0.526,-0.204 0.222,0 0.399,0.065 0.531,0.193 0.074,0.075 0.126,0.162 0.157,0.26 h 0.421 c -0.011,-0.081 -0.048,-0.172 -0.11,-0.272 -0.063,-0.1 -0.133,-0.182 -0.21,-0.245 -0.129,-0.11 -0.289,-0.185 -0.479,-0.224 -0.102,-0.022 -0.218,-0.033 -0.347,-0.033 -0.315,0 -0.582,0.101 -0.801,0.301 -0.219,0.201 -0.328,0.482 -0.328,0.844 0,0.356 0.11,0.645 0.33,0.867 0.221,0.222 0.509,0.333 0.865,0.333 0.18,0 0.354,-0.037 0.523,-0.111" /></g><g
           transform="translate(46.1393,182.9817)"
           id="g162"><path
             id="path164"
             style="fill:#d9d9d9;fill-opacity:1;fill-rule:nonzero;stroke:none"
             d="m 0,0 c 0.18,-0.121 0.288,-0.33 0.324,-0.627 h -0.416 c -0.025,0.137 -0.083,0.25 -0.174,0.341 -0.09,0.09 -0.235,0.135 -0.434,0.135 -0.273,0 -0.468,-0.116 -0.585,-0.347 -0.076,-0.15 -0.115,-0.336 -0.115,-0.556 0,-0.222 0.055,-0.409 0.162,-0.56 0.108,-0.152 0.277,-0.228 0.509,-0.228 0.178,0 0.318,0.048 0.422,0.142 0.104,0.094 0.175,0.222 0.215,0.386 h 0.416 c -0.047,-0.294 -0.166,-0.509 -0.356,-0.645 -0.191,-0.135 -0.434,-0.203 -0.73,-0.203 -0.333,0 -0.599,0.106 -0.797,0.318 -0.198,0.211 -0.297,0.476 -0.297,0.793 0,0.389 0.109,0.692 0.326,0.909 0.217,0.216 0.493,0.324 0.83,0.324 0.286,0 0.52,-0.061 0.7,-0.182" /></g><g
           transform="translate(46.9773,183.7184)"
           id="g166"><path
             id="path168"
             style="fill:#d9d9d9;fill-opacity:1;fill-rule:nonzero;stroke:none"
             d="M 0,0 H 0.433 V -0.618 H 0.839 V -0.923 H 0.433 v -1.446 c 0,-0.078 0.03,-0.129 0.09,-0.156 0.033,-0.015 0.089,-0.022 0.166,-0.022 0.021,0 0.043,0 0.067,0.001 0.024,10e-4 0.052,0.003 0.083,0.007 V -2.835 C 0.79,-2.847 0.739,-2.856 0.686,-2.862 0.633,-2.867 0.575,-2.87 0.514,-2.87 c -0.2,0 -0.336,0.045 -0.407,0.133 C 0.036,-2.648 0,-2.532 0,-2.39 v 1.467 h -0.345 v 0.305 H 0 Z" /></g><g
           transform="translate(48.2562,183.0999)"
           id="g170"><path
             id="path172"
             style="fill:#d9d9d9;fill-opacity:1;fill-rule:nonzero;stroke:none"
             d="m 0,0 h 0.406 v -0.383 c 0.033,0.075 0.116,0.165 0.245,0.272 0.13,0.107 0.28,0.161 0.45,0.161 0.008,0 0.021,-0.001 0.04,-0.002 C 1.16,0.046 1.193,0.044 1.239,0.039 V -0.354 C 1.213,-0.35 1.19,-0.347 1.169,-0.346 1.147,-0.344 1.124,-0.344 1.098,-0.344 0.883,-0.344 0.717,-0.404 0.601,-0.525 0.486,-0.645 0.428,-0.784 0.428,-0.942 V -2.216 H 0 Z" /></g><g
           transform="translate(50.2939,183.0999)"
           id="g174"><path
             id="path176"
             style="fill:#d9d9d9;fill-opacity:1;fill-rule:nonzero;stroke:none"
             d="m 0,0 v -1.471 c 0,-0.114 0.02,-0.206 0.06,-0.278 0.074,-0.132 0.213,-0.198 0.415,-0.198 0.29,0 0.487,0.116 0.593,0.347 0.057,0.125 0.085,0.295 0.085,0.512 V 0 H 1.581 V -2.216 H 1.177 l 0.005,0.327 C 1.127,-1.973 1.06,-2.045 0.979,-2.103 0.819,-2.218 0.624,-2.276 0.395,-2.276 c -0.356,0 -0.598,0.105 -0.727,0.316 -0.07,0.113 -0.106,0.265 -0.106,0.453 l 0,1.507 z" /></g><g
           transform="translate(52.574,183.0999)"
           id="g178"><path
             id="path180"
             style="fill:#d9d9d9;fill-opacity:1;fill-rule:nonzero;stroke:none"
             d="m 0,0 h 0.423 v -0.315 c 0.101,0.109 0.193,0.189 0.276,0.238 C 0.84,0.007 1,0.05 1.179,0.05 c 0.203,0 0.366,-0.044 0.49,-0.131 0.07,-0.05 0.133,-0.123 0.19,-0.219 0.095,0.119 0.207,0.206 0.335,0.264 0.129,0.057 0.273,0.086 0.433,0.086 0.343,0 0.575,-0.108 0.699,-0.323 0.067,-0.116 0.1,-0.272 0.1,-0.468 V -2.216 H 2.981 v 1.539 c 0,0.148 -0.042,0.249 -0.127,0.304 C 2.769,-0.317 2.666,-0.29 2.544,-0.29 2.376,-0.29 2.231,-0.339 2.11,-0.437 1.989,-0.535 1.928,-0.698 1.928,-0.927 V -2.216 H 1.493 v 1.446 c 0,0.151 -0.021,0.26 -0.062,0.329 -0.065,0.104 -0.186,0.155 -0.364,0.155 -0.162,0 -0.308,-0.054 -0.441,-0.163 C 0.494,-0.558 0.428,-0.755 0.428,-1.041 V -2.216 H 0 Z" /></g><g
           transform="translate(240,128)"
           id="g182"><path
             id="path184"
             style="fill:#ff0000;fill-opacity:1;fill-rule:nonzero;stroke:none"
             d="m 0,0 -32,-72 h 4 L 0,-8 h 4 v 8 z" /></g><g
           transform="translate(240,120)"
           id="g186"><path
             id="path188"
             style="fill:#ffff00;fill-opacity:1;fill-rule:nonzero;stroke:none"
             d="m 0,0 -28,-64 h 4 L 0,-8 h 4 v 8 z" /></g><g
           transform="translate(240,112)"
           id="g190"><path
             id="path192"
             style="fill:#00ff00;fill-opacity:1;fill-rule:nonzero;stroke:none"
             d="m 0,0 -24,-56 h 4 L 0,-8 h 4 v 8 z" /></g><g
           transform="translate(240,104)"
           id="g194"><path
             id="path196"
             style="fill:#2c8bbf;fill-opacity:1;fill-rule:nonzero;stroke:none"
             d="m 0,0 -20,-48 h 4 L 0,-8 h 4 v 8 z" /></g><path
           id="path198"
           style="fill:#4c4c4c;fill-opacity:1;fill-rule:nonzero;stroke:none"
           d="M 52,92 H 36 v 12 h 16 z" /><path
           id="path200"
           style="fill:#4c4c4c;fill-opacity:1;fill-rule:nonzero;stroke:none"
           d="M 72,92 H 56 v 12 h 16 z" /><path
           id="path202"
           style="fill:#4c4c4c;fill-opacity:1;fill-rule:nonzero;stroke:none"
           d="M 92,92 H 76 v 12 h 16 z" /><path
           id="path204"
           style="fill:#4c4c4c;fill-opacity:1;fill-rule:nonzero;stroke:none"
           d="M 112,92 H 96 v 12 h 16 z" /><path
           id="path206"
           style="fill:#4c4c4c;fill-opacity:1;fill-rule:nonzero;stroke:none"
           d="m 132,92 h -16 v 12 h 16 z" /><path
           id="path208"
           style="fill:#4c4c4c;fill-opacity:1;fill-rule:nonzero;stroke:none"
           d="m 152,92 h -16 v 12 h 16 z" /><path
           id="path210"
           style="fill:#4c4c4c;fill-opacity:1;fill-rule:nonzero;stroke:none"
           d="m 172,92 h -16 v 12 h 16 z" /><path
           id="path212"
           style="fill:#4c4c4c;fill-opacity:1;fill-rule:nonzero;stroke:none"
           d="m 192,92 h -16 v 12 h 16 z" /><path
           id="path214"
           style="fill:#4c4c4c;fill-opacity:1;fill-rule:nonzero;stroke:none"
           d="m 212,92 h -16 v 12 h 16 z" /><path
           id="path216"
           style="fill:#4c4c4c;fill-opacity:1;fill-rule:nonzero;stroke:none"
           d="m 232,92 h -16 v 12 h 16 z" /><path
           id="path218"
           style="fill:#4c4c4c;fill-opacity:1;fill-rule:nonzero;stroke:none"
           d="M 232,72 H 202.081 V 84 H 232 Z" /></g></g></g></svg>