<?xml version="1.0" encoding="UTF-8" standalone="no"?>
<svg
   xmlns:dc="http://purl.org/dc/elements/1.1/"
   xmlns:cc="http://creativecommons.org/ns#"
   xmlns:rdf="http://www.w3.org/1999/02/22-rdf-syntax-ns#"
   xmlns:svg="http://www.w3.org/2000/svg"
   xmlns="http://www.w3.org/2000/svg"
   viewBox="0 0 320 320"
   height="320"
   width="320"
   xml:space="preserve"
   version="1.1"
   id="svg2"><metadata
     id="metadata8"><rdf:RDF><cc:Work
         rdf:about=""><dc:format>image/svg+xml</dc:format><dc:type
           rdf:resource="http://purl.org/dc/dcmitype/StillImage" /></cc:Work></rdf:RDF></metadata><defs
     id="defs6"><clipPath
       id="clipPath16"
       clipPathUnits="userSpaceOnUse"><path
         id="path18"
         d="M 0,256 256,256 256,0 0,0 0,256 Z" /></clipPath><clipPath
       id="clipPath24"
       clipPathUnits="userSpaceOnUse"><path
         id="path26"
         d="M 4,208 252,208 252,48 4,48 4,208 Z" /></clipPath></defs><g
     transform="matrix(1.25,0,0,-1.25,0,320)"
     id="g10"><g
       id="g12"><g
         clip-path="url(#clipPath16)"
         id="g14"><g
           id="g20"><g
             id="g22" /><g
             id="g28"><g
               style="opacity:0.5"
               id="g30"
               clip-path="url(#clipPath24)"><g
                 id="g32"
                 transform="translate(235.4075,208)"><path
                   id="path34"
                   style="fill:#ffffff;fill-opacity:1;fill-rule:nonzero;stroke:none"
                   d="m 0,0 -214.815,0 c -9.149,0 -16.592,-7.389 -16.592,-16.471 l 0,-127.058 c 0,-9.082 7.443,-16.471 16.592,-16.471 l 25.778,0 163.259,0 25.778,0 c 9.149,0 16.593,7.389 16.593,16.471 l 0,127.058 C 16.593,-7.389 9.149,0 0,0" /></g></g></g></g><g
           transform="translate(174,128)"
           id="g36"><path
             id="path38"
             style="fill:#333333;fill-opacity:1;fill-rule:nonzero;stroke:none"
             d="m 0,0 c -7.728,0 -14,6.268 -14,14 0,7.733 6.272,14 14,14 C 7.728,28 14,21.733 14,14 14,6.268 7.728,0 0,0 m -92,0 c -7.728,0 -14,6.267 -14,14 0,7.733 6.272,14 14,14 7.728,0 14,-6.267 14,-14 C -78,6.267 -84.272,0 -92,0 M 61.407,72 -153.407,72 C -158.15,72 -162,68.205 -162,63.529 l 0,-127.058 c 0,-4.676 3.85,-8.471 8.593,-8.471 l 25.777,0 163.26,0 25.777,0 C 66.15,-72 70,-68.205 70,-63.529 L 70,63.529 C 70,68.205 66.15,72 61.407,72" /></g><g
           transform="translate(174,128)"
           id="g40"><path
             id="path42"
             style="fill:#d9d9d9;fill-opacity:1;fill-rule:nonzero;stroke:none"
             d="m 0,0 c -7.728,0 -14,6.267 -14,14 0,7.733 6.272,14 14,14 C 7.728,28 14,21.733 14,14 14,6.267 7.728,0 0,0 m -92,0 c -7.728,0 -14,6.267 -14,14 0,7.733 6.272,14 14,14 7.728,0 14,-6.267 14,-14 C -78,6.267 -84.272,0 -92,0 M 49.333,60 -141.333,60 C -146.117,60 -150,56.058 -150,51.2 l 0,-70.4 c 0,-4.858 3.883,-8.8 8.667,-8.8 l 190.666,0 c 4.784,0 8.667,3.942 8.667,8.8 l 0,70.4 c 0,4.858 -3.883,8.8 -8.667,8.8" /></g><g
           transform="translate(199.7778,76)"
           id="g44"><path
             id="path46"
             style="fill:#404040;fill-opacity:1;fill-rule:nonzero;stroke:none"
             d="m 0,0 c 0,0 0,4 -4.235,4 l -135.098,0 c -4.223,0 -4.223,-4 -4.223,-4 l -4.222,-20 152,0 L 0,0 Z" /></g><g
           transform="translate(72,60)"
           id="g48"><path
             id="path50"
             style="fill:#0d0d0d;fill-opacity:1;fill-rule:nonzero;stroke:none"
             d="M 0,0 C -2.212,0 -4,1.788 -4,4 -4,6.212 -2.212,8 0,8 2.212,8 4,6.212 4,4 4,1.788 2.212,0 0,0" /></g><g
           transform="translate(92,64)"
           id="g52"><path
             id="path54"
             style="fill:#0d0d0d;fill-opacity:1;fill-rule:nonzero;stroke:none"
             d="M 0,0 C -2.212,0 -4,1.788 -4,4 -4,6.212 -2.212,8 0,8 2.212,8 4,6.212 4,4 4,1.788 2.212,0 0,0" /></g><g
           transform="translate(128,68)"
           id="g56"><path
             id="path58"
             style="fill:#0d0d0d;fill-opacity:1;fill-rule:nonzero;stroke:none"
             d="M 0,0 C -2.212,0 -4,1.788 -4,4 -4,6.212 -2.212,8 0,8 2.212,8 4,6.212 4,4 4,1.788 2.212,0 0,0" /></g><g
           transform="translate(164,64)"
           id="g60"><path
             id="path62"
             style="fill:#0d0d0d;fill-opacity:1;fill-rule:nonzero;stroke:none"
             d="M 0,0 C -2.212,0 -4,1.788 -4,4 -4,6.212 -2.212,8 0,8 2.212,8 4,6.212 4,4 4,1.788 2.212,0 0,0" /></g><g
           transform="translate(184,60)"
           id="g64"><path
             id="path66"
             style="fill:#0d0d0d;fill-opacity:1;fill-rule:nonzero;stroke:none"
             d="M 0,0 C -2.212,0 -4,1.788 -4,4 -4,6.212 -2.212,8 0,8 2.212,8 4,6.212 4,4 4,1.788 2.212,0 0,0" /></g><g
           transform="translate(18.0349,60.0003)"
           id="g68"><path
             id="path70"
             style="fill:#191919;fill-opacity:1;fill-rule:nonzero;stroke:none"
             d="M 0,0 C -1.104,-0.019 -2.015,0.861 -2.035,1.965 -2.054,3.069 -1.174,3.98 -0.07,3.999 1.034,4.019 1.946,3.138 1.965,2.035 1.984,0.931 1.104,0.019 0,0" /></g><g
           transform="translate(18,192)"
           id="g72"><path
             id="path74"
             style="fill:#191919;fill-opacity:1;fill-rule:nonzero;stroke:none"
             d="M 0,0 C -1.104,0 -2,0.896 -2,2 -2,3.104 -1.104,4 0,4 1.104,4 2,3.104 2,2 2,0.896 1.104,0 0,0" /></g><g
           transform="translate(238,60)"
           id="g76"><path
             id="path78"
             style="fill:#191919;fill-opacity:1;fill-rule:nonzero;stroke:none"
             d="M 0,0 C -1.104,0 -2,0.896 -2,2 -2,3.104 -1.104,4 0,4 1.104,4 2,3.104 2,2 2,0.896 1.104,0 0,0" /></g><g
           transform="translate(238,192)"
           id="g80"><path
             id="path82"
             style="fill:#191919;fill-opacity:1;fill-rule:nonzero;stroke:none"
             d="M 0,0 C -1.104,0 -2,0.896 -2,2 -2,3.104 -1.104,4 0,4 1.104,4 2,3.104 2,2 2,0.896 1.104,0 0,0" /></g><g
           transform="translate(82,156)"
           id="g84"><path
             id="path86"
             style="fill:#0d0d0d;fill-opacity:1;fill-rule:nonzero;stroke:none"
             d="m 0,0 c -7.728,0 -14,-6.267 -14,-14 0,-7.733 6.272,-14 14,-14 7.728,0 14,6.267 14,14 C 14,-6.267 7.728,0 0,0 m 0,-4 c 5.514,0 10,-4.486 10,-10 0,-5.514 -4.486,-10 -10,-10 -5.514,0 -10,4.486 -10,10 0,5.514 4.486,10 10,10" /></g><g
           transform="translate(174,156)"
           id="g88"><path
             id="path90"
             style="fill:#0d0d0d;fill-opacity:1;fill-rule:nonzero;stroke:none"
             d="m 0,0 c -7.728,0 -14,-6.267 -14,-14 0,-7.733 6.272,-14 14,-14 7.728,0 14,6.267 14,14 C 14,-6.267 7.728,0 0,0 m 0,-4 c 5.514,0 10,-4.486 10,-10 0,-5.514 -4.486,-10 -10,-10 -5.514,0 -10,4.486 -10,10 0,5.514 4.486,10 10,10" /></g><g
           transform="translate(156.0001,132)"
           id="g92"><path
             id="path94"
             style="fill:#808080;fill-opacity:1;fill-rule:nonzero;stroke:none"
             d="m 0,0 c 0,-2.212 -2.086,-4 -4.667,-4 l -46.666,0 C -53.914,-4 -56,-2.212 -56,0 l 0,16 c 0,2.212 2.086,4 4.667,4 l 46.666,0 C -2.086,20 0,18.212 0,16 L 0,0 Z" /></g><g
           transform="translate(100,147.9999)"
           id="g96"><path
             id="path98"
             style="fill:#0d0d0d;fill-opacity:1;fill-rule:nonzero;stroke:none"
             d="m 0,0 0,-16 c 0,-2.212 2.486,-4 5.561,-4 l 2.737,0 C 10.65,-16.346 12,-12.291 12,-8 12,-3.709 10.65,0.346 8.298,4 L 5.561,4 C 2.486,4 0,2.212 0,0" /></g><path
           id="path100"
           style="fill:#2c8bbf;fill-opacity:1;fill-rule:nonzero;stroke:none"
           d="m 32,184 1.333,0 0,-8 -1.333,0 0,8 z" /><path
           id="path102"
           style="fill:#2c8bbf;fill-opacity:1;fill-rule:nonzero;stroke:none"
           d="m 34.667,181.714 1.333,0 0,-5.714 -1.333,0 0,5.714 z m 0,2.286 1.333,0 0,-1.143 -1.333,0 0,1.143 z" /><path
           id="path104"
           style="fill:#2c8bbf;fill-opacity:1;fill-rule:nonzero;stroke:none"
           d="m 48,180.571 -9.333,0 0,-3.429 9.333,0 0,3.429 z M 37.333,176 l 0,8 1.334,0 0,-2.286 10.666,0 0,-5.714 -12,0 z" /><g
           transform="translate(50.6665,176)"
           id="g106"><path
             id="path108"
             style="fill:#2c8bbf;fill-opacity:1;fill-rule:nonzero;stroke:none"
             d="m 0,0 0,5.714 12,0 0,-1.143 -10.667,0 L 1.333,0 0,0 Z" /></g><path
           id="path110"
           style="fill:#2c8bbf;fill-opacity:1;fill-rule:nonzero;stroke:none"
           d="m 74.666,180.571 -9.333,0 0,-1.143 9.333,0 0,1.143 z M 76,177.143 76,176 l -12,0 0,5.714 12,0 0,-3.428 -10.667,0 0,-1.143 10.667,0 z" /><g
           transform="translate(89.3327,177.1429)"
           id="g112"><path
             id="path114"
             style="fill:#2c8bbf;fill-opacity:1;fill-rule:nonzero;stroke:none"
             d="m 0,0 0,-1.143 -12,0 0,8 1.333,0 0,-2.286 10.667,0 0,-1.142 -10.667,0 0,-3.429 L 0,0 Z" /></g><g
           transform="translate(90.6661,176)"
           id="g116"><path
             id="path118"
             style="fill:#2c8bbf;fill-opacity:1;fill-rule:nonzero;stroke:none"
             d="m 0,0 0,5.714 12,0 0,-1.143 -10.667,0 L 1.333,0 0,0 Z" /></g><path
           id="path120"
           style="fill:#2c8bbf;fill-opacity:1;fill-rule:nonzero;stroke:none"
           d="m 114.667,180.571 -9.334,0 0,-3.429 9.334,0 0,3.429 z m -10.668,1.143 12.001,0 0,-5.714 -12.001,0 0,5.714 z" /><g
           transform="translate(232,176)"
           id="g122"><path
             id="path124"
             style="fill:#2c8bbf;fill-opacity:1;fill-rule:nonzero;stroke:none"
             d="m 0,0 -12,0 0,12 4,0 C -3.582,12 0,8.418 0,4 L 0,0 Z" /></g><g
           transform="translate(74.6887,169.0614)"
           id="g126"><path
             id="path128"
             style="fill:#2c8bbf;fill-opacity:1;fill-rule:nonzero;stroke:none"
             d="m 0,0 c 0.378,0 0.677,0.077 0.896,0.232 0.221,0.155 0.33,0.433 0.33,0.836 0,0.433 -0.153,0.728 -0.461,0.886 C 0.6,2.037 0.38,2.078 0.106,2.078 l -1.967,0 L -1.861,0 0,0 Z m -2.689,2.785 2.778,0 C 0.547,2.785 0.924,2.718 1.221,2.582 1.785,2.323 2.066,1.844 2.066,1.147 2.066,0.782 1.991,0.484 1.84,0.253 1.688,0.021 1.477,-0.165 1.206,-0.306 1.444,-0.403 1.623,-0.529 1.745,-0.687 1.865,-0.844 1.932,-1.099 1.946,-1.452 L 1.975,-2.268 C 1.983,-2.499 2.003,-2.672 2.033,-2.785 2.083,-2.978 2.172,-3.102 2.3,-3.158 l 0,-0.136 -1.016,0 c -0.027,0.052 -0.049,0.12 -0.066,0.203 -0.016,0.083 -0.03,0.243 -0.042,0.48 l -0.05,1.014 C 1.107,-1.2 0.963,-0.934 0.694,-0.799 0.541,-0.724 0.299,-0.687 -0.03,-0.687 l -1.831,0 0,-2.607 -0.828,0 0,6.079 z" /></g><g
           transform="translate(80.9748,168.3374)"
           id="g130"><path
             id="path132"
             style="fill:#2c8bbf;fill-opacity:1;fill-rule:nonzero;stroke:none"
             d="m 0,0 c -0.031,0.323 -0.101,0.58 -0.21,0.774 -0.204,0.359 -0.543,0.538 -1.02,0.538 -0.34,0 -0.627,-0.123 -0.858,-0.37 C -2.319,0.694 -2.441,0.381 -2.455,0 L 0,0 Z M -0.268,1.74 C 0.026,1.592 0.252,1.401 0.406,1.167 0.555,0.944 0.654,0.683 0.703,0.385 0.748,0.181 0.77,-0.144 0.77,-0.592 l -3.242,0 c 0.014,-0.45 0.12,-0.812 0.318,-1.085 0.198,-0.273 0.505,-0.409 0.921,-0.409 0.388,0 0.697,0.129 0.928,0.387 0.13,0.149 0.222,0.322 0.276,0.519 l 0.736,0 c -0.02,-0.162 -0.084,-0.343 -0.193,-0.544 -0.11,-0.2 -0.232,-0.363 -0.367,-0.49 -0.225,-0.221 -0.505,-0.37 -0.839,-0.447 -0.178,-0.045 -0.381,-0.067 -0.606,-0.067 -0.551,0 -1.019,0.201 -1.402,0.603 -0.383,0.401 -0.575,0.964 -0.575,1.687 0,0.711 0.193,1.289 0.579,1.733 0.386,0.444 0.89,0.667 1.513,0.667 0.315,0 0.619,-0.074 0.915,-0.222" /></g><g
           transform="translate(82.8423,171.4369)"
           id="g134"><path
             id="path136"
             style="fill:#2c8bbf;fill-opacity:1;fill-rule:nonzero;stroke:none"
             d="m 0,0 0.758,0 0,-1.237 0.711,0 0,-0.608 -0.711,0 0,-2.894 c 0,-0.154 0.052,-0.258 0.157,-0.31 0.059,-0.03 0.155,-0.045 0.292,-0.045 0.036,0 0.075,0.001 0.116,0.002 0.042,0.002 0.091,0.007 0.146,0.014 l 0,-0.592 C 1.383,-5.694 1.293,-5.712 1.201,-5.724 1.108,-5.734 1.007,-5.74 0.899,-5.74 0.55,-5.74 0.312,-5.651 0.187,-5.473 0.063,-5.295 0,-5.064 0,-4.78 l 0,2.935 -0.603,0 0,0.608 0.603,0 L 0,0 Z" /></g><g
           transform="translate(85.0813,170.1999)"
           id="g138"><path
             id="path140"
             style="fill:#2c8bbf;fill-opacity:1;fill-rule:nonzero;stroke:none"
             d="m 0,0 0.711,0 0,-0.766 c 0.058,0.15 0.202,0.331 0.429,0.544 0.227,0.214 0.489,0.321 0.786,0.321 0.014,0 0.037,-0.001 0.071,-0.004 C 2.03,0.092 2.087,0.087 2.168,0.079 l 0,-0.787 c -0.045,0.009 -0.086,0.014 -0.123,0.017 -0.038,0.002 -0.078,0.004 -0.123,0.004 -0.377,0 -0.667,-0.121 -0.87,-0.362 C 0.85,-1.29 0.749,-1.569 0.749,-1.883 l 0,-2.55 L 0,-4.433 0,0 Z" /></g><g
           transform="translate(90.6617,166.8114)"
           id="g142"><path
             id="path144"
             style="fill:#2c8bbf;fill-opacity:1;fill-rule:nonzero;stroke:none"
             d="m 0,0 c 0.183,0.373 0.274,0.789 0.274,1.246 0,0.414 -0.066,0.75 -0.197,1.009 -0.209,0.408 -0.568,0.612 -1.078,0.612 -0.453,0 -0.782,-0.174 -0.988,-0.521 -0.205,-0.347 -0.309,-0.766 -0.309,-1.257 0,-0.471 0.104,-0.863 0.309,-1.178 0.206,-0.314 0.532,-0.471 0.98,-0.471 0.491,0 0.827,0.187 1.009,0.56 m 0.465,2.946 c 0.394,-0.381 0.591,-0.94 0.591,-1.679 0,-0.714 -0.173,-1.304 -0.52,-1.769 -0.347,-0.467 -0.886,-0.7 -1.615,-0.7 -0.609,0 -1.093,0.206 -1.451,0.618 -0.358,0.413 -0.538,0.967 -0.538,1.661 0,0.744 0.189,1.337 0.567,1.778 0.378,0.441 0.884,0.662 1.521,0.662 0.57,0 1.052,-0.191 1.445,-0.571" /></g><g
           transform="translate(93.2778,167.7291)"
           id="g146"><path
             id="path148"
             style="fill:#2c8bbf;fill-opacity:1;fill-rule:nonzero;stroke:none"
             d="m 0,0 c 0.019,-0.345 0.097,-0.625 0.236,-0.841 0.265,-0.402 0.731,-0.604 1.399,-0.604 0.299,0 0.572,0.045 0.818,0.133 0.476,0.171 0.714,0.477 0.714,0.919 0,0.331 -0.101,0.567 -0.303,0.707 C 2.66,0.452 2.34,0.572 1.905,0.675 L 1.103,0.861 C 0.579,0.982 0.208,1.116 -0.01,1.262 -0.386,1.516 -0.574,1.895 -0.574,2.4 c 0,0.547 0.184,0.995 0.554,1.346 0.37,0.349 0.894,0.525 1.571,0.525 0.624,0 1.153,-0.154 1.59,-0.461 0.436,-0.308 0.654,-0.8 0.654,-1.476 l -0.779,0 C 2.977,2.66 2.892,2.909 2.761,3.083 2.52,3.4 2.109,3.559 1.528,3.559 1.06,3.559 0.724,3.457 0.519,3.253 0.314,3.049 0.212,2.811 0.212,2.541 0.212,2.243 0.333,2.025 0.575,1.887 0.734,1.798 1.093,1.688 1.651,1.556 L 2.482,1.362 C 2.883,1.267 3.191,1.139 3.409,0.977 3.785,0.692 3.974,0.28 3.974,-0.261 3.974,-0.934 3.734,-1.415 3.253,-1.705 2.773,-1.995 2.215,-2.14 1.58,-2.14 c -0.742,0 -1.322,0.193 -1.741,0.58 -0.42,0.383 -0.625,0.903 -0.617,1.56 L 0,0 Z" /></g><g
           transform="translate(101.0757,166.7047)"
           id="g150"><path
             id="path152"
             style="fill:#2c8bbf;fill-opacity:1;fill-rule:nonzero;stroke:none"
             d="m 0,0 c 0.233,0.291 0.349,0.726 0.349,1.306 0,0.353 -0.052,0.657 -0.154,0.91 -0.196,0.489 -0.552,0.733 -1.07,0.733 -0.52,0 -0.876,-0.258 -1.068,-0.775 -0.103,-0.275 -0.155,-0.626 -0.155,-1.05 0,-0.343 0.052,-0.634 0.155,-0.874 0.194,-0.458 0.551,-0.687 1.068,-0.687 0.351,0 0.643,0.146 0.875,0.437 m -2.817,3.475 0.732,0 0,-0.588 c 0.15,0.201 0.314,0.357 0.492,0.467 0.253,0.166 0.551,0.249 0.892,0.249 0.507,0 0.936,-0.193 1.289,-0.577 0.354,-0.385 0.53,-0.935 0.53,-1.65 0,-0.966 -0.254,-1.655 -0.764,-2.07 -0.323,-0.261 -0.699,-0.393 -1.127,-0.393 -0.338,0 -0.62,0.074 -0.849,0.22 -0.133,0.083 -0.283,0.225 -0.447,0.426 l 0,-2.264 -0.748,0 0,6.18 z" /></g><g
           transform="translate(106.081,168.3374)"
           id="g154"><path
             id="path156"
             style="fill:#2c8bbf;fill-opacity:1;fill-rule:nonzero;stroke:none"
             d="m 0,0 c -0.031,0.323 -0.101,0.58 -0.21,0.774 -0.204,0.359 -0.543,0.538 -1.02,0.538 -0.34,0 -0.627,-0.123 -0.858,-0.37 C -2.319,0.694 -2.441,0.381 -2.455,0 L 0,0 Z M -0.268,1.74 C 0.026,1.592 0.252,1.401 0.406,1.167 0.555,0.944 0.654,0.683 0.703,0.385 0.748,0.181 0.77,-0.144 0.77,-0.592 l -3.242,0 c 0.014,-0.45 0.12,-0.812 0.318,-1.085 0.198,-0.273 0.505,-0.409 0.921,-0.409 0.388,0 0.697,0.129 0.928,0.387 0.13,0.149 0.222,0.322 0.276,0.519 l 0.736,0 c -0.02,-0.162 -0.084,-0.343 -0.193,-0.544 -0.11,-0.2 -0.232,-0.363 -0.367,-0.49 -0.225,-0.221 -0.505,-0.37 -0.839,-0.447 -0.178,-0.045 -0.381,-0.067 -0.606,-0.067 -0.551,0 -1.019,0.201 -1.402,0.603 -0.383,0.401 -0.575,0.964 -0.575,1.687 0,0.711 0.193,1.289 0.579,1.733 0.386,0.444 0.89,0.667 1.513,0.667 0.315,0 0.619,-0.074 0.915,-0.222" /></g><g
           transform="translate(110.7437,169.9635)"
           id="g158"><path
             id="path160"
             style="fill:#2c8bbf;fill-opacity:1;fill-rule:nonzero;stroke:none"
             d="m 0,0 c 0.314,-0.242 0.503,-0.661 0.568,-1.253 l -0.729,0 c -0.044,0.272 -0.145,0.499 -0.304,0.68 -0.157,0.181 -0.411,0.271 -0.761,0.271 -0.477,0 -0.818,-0.232 -1.023,-0.695 -0.134,-0.3 -0.2,-0.67 -0.2,-1.111 0,-0.444 0.095,-0.818 0.283,-1.12 0.189,-0.303 0.485,-0.455 0.89,-0.455 0.311,0 0.557,0.094 0.739,0.282 0.181,0.189 0.307,0.446 0.376,0.773 l 0.729,0 C 0.484,-3.215 0.276,-3.645 -0.056,-3.917 -0.39,-4.189 -0.815,-4.324 -1.334,-4.324 c -0.582,0 -1.047,0.212 -1.393,0.635 -0.348,0.424 -0.521,0.952 -0.521,1.587 0,0.778 0.19,1.384 0.57,1.817 0.38,0.433 0.864,0.649 1.452,0.649 C -0.724,0.364 -0.315,0.243 0,0" /></g><g
           transform="translate(112.2102,171.4369)"
           id="g162"><path
             id="path164"
             style="fill:#2c8bbf;fill-opacity:1;fill-rule:nonzero;stroke:none"
             d="m 0,0 0.758,0 0,-1.237 0.711,0 0,-0.608 -0.711,0 0,-2.894 c 0,-0.154 0.052,-0.258 0.157,-0.31 0.059,-0.03 0.155,-0.045 0.292,-0.045 0.036,0 0.075,0.001 0.116,0.002 0.042,0.002 0.091,0.007 0.146,0.014 l 0,-0.592 C 1.383,-5.694 1.293,-5.712 1.201,-5.724 1.108,-5.734 1.007,-5.74 0.899,-5.74 0.55,-5.74 0.312,-5.651 0.187,-5.473 0.063,-5.295 0,-5.064 0,-4.78 l 0,2.935 -0.603,0 0,0.608 0.603,0 L 0,0 Z" /></g><g
           transform="translate(114.4483,170.1999)"
           id="g166"><path
             id="path168"
             style="fill:#2c8bbf;fill-opacity:1;fill-rule:nonzero;stroke:none"
             d="m 0,0 0.711,0 0,-0.766 c 0.058,0.15 0.202,0.331 0.429,0.544 0.227,0.214 0.489,0.321 0.786,0.321 0.014,0 0.037,-0.001 0.071,-0.004 C 2.03,0.092 2.087,0.087 2.168,0.079 l 0,-0.787 c -0.045,0.009 -0.086,0.014 -0.123,0.017 -0.038,0.002 -0.078,0.004 -0.123,0.004 -0.377,0 -0.667,-0.121 -0.87,-0.362 C 0.85,-1.29 0.749,-1.569 0.749,-1.883 l 0,-2.55 L 0,-4.433 0,0 Z" /></g><g
           transform="translate(118.0143,170.1999)"
           id="g170"><path
             id="path172"
             style="fill:#2c8bbf;fill-opacity:1;fill-rule:nonzero;stroke:none"
             d="m 0,0 0,-2.943 c 0,-0.226 0.035,-0.411 0.106,-0.555 0.129,-0.264 0.371,-0.397 0.725,-0.397 0.508,0 0.853,0.232 1.037,0.695 0.1,0.249 0.15,0.59 0.15,1.023 l 0,2.177 0.749,0 0,-4.433 -0.707,0 0.008,0.655 C 1.972,-3.947 1.854,-4.089 1.712,-4.205 1.433,-4.437 1.092,-4.552 0.692,-4.552 c -0.624,0 -1.048,0.211 -1.274,0.632 -0.122,0.227 -0.184,0.529 -0.184,0.907 L -0.766,0 0,0 Z" /></g><g
           transform="translate(122.0045,170.1999)"
           id="g174"><path
             id="path176"
             style="fill:#2c8bbf;fill-opacity:1;fill-rule:nonzero;stroke:none"
             d="m 0,0 0.74,0 0,-0.63 c 0.178,0.219 0.339,0.377 0.483,0.476 0.247,0.169 0.527,0.253 0.84,0.253 0.355,0 0.641,-0.087 0.858,-0.261 0.122,-0.099 0.232,-0.245 0.332,-0.438 0.167,0.237 0.362,0.413 0.587,0.528 0.224,0.114 0.477,0.171 0.758,0.171 0.599,0 1.006,-0.215 1.223,-0.646 0.116,-0.231 0.175,-0.543 0.175,-0.935 l 0,-2.951 -0.779,0 0,3.079 c 0,0.296 -0.074,0.499 -0.222,0.609 -0.149,0.11 -0.33,0.165 -0.544,0.165 -0.293,0 -0.547,-0.097 -0.759,-0.293 C 3.48,-1.07 3.374,-1.396 3.374,-1.854 l 0,-2.579 -0.761,0 0,2.893 c 0,0.301 -0.037,0.52 -0.108,0.658 -0.114,0.207 -0.326,0.311 -0.637,0.311 -0.283,0 -0.54,-0.109 -0.772,-0.327 C 0.864,-1.116 0.749,-1.51 0.749,-2.082 l 0,-2.351 L 0,-4.433 0,0 Z" /></g><path
           id="path178"
           style="fill:#2c8bbf;fill-opacity:1;fill-rule:nonzero;stroke:none"
           d="m 197.44,107.146 -0.695,0 0,4.621 0.695,0 0,-4.621 z" /><path
           id="path180"
           style="fill:#2c8bbf;fill-opacity:1;fill-rule:nonzero;stroke:none"
           d="m 199.263,111.786 -1.788,0 0,0.835 1.788,0 0,-0.835 z" /><path
           id="path182"
           style="fill:#2c8bbf;fill-opacity:1;fill-rule:nonzero;stroke:none"
           d="m 198.238,110.058 -0.851,0 0,0.68 0.851,0 0,-0.68 z" /><path
           id="path184"
           style="fill:#2c8bbf;fill-opacity:1;fill-rule:nonzero;stroke:none"
           d="m 201.277,108.019 -0.886,0 0,3.845 0.886,0 0,-3.845 z" /><path
           id="path186"
           style="fill:#2c8bbf;fill-opacity:1;fill-rule:nonzero;stroke:none"
           d="m 204.646,107.942 -0.625,0 0,3.961 0.625,0 0,-3.961 z" /><path
           id="path188"
           style="fill:#2c8bbf;fill-opacity:1;fill-rule:nonzero;stroke:none"
           d="m 203.743,106.99 -2.587,0 0,0.66 2.587,0 0,-0.66 z" /><path
           id="path190"
           style="fill:#2c8bbf;fill-opacity:1;fill-rule:nonzero;stroke:none"
           d="m 209.217,106.99 -3.425,0 0,0.66 3.425,0 0,-0.66 z" /><path
           id="path192"
           style="fill:#2c8bbf;fill-opacity:1;fill-rule:nonzero;stroke:none"
           d="m 215.468,106.99 -3.425,0 0,0.66 3.425,0 0,-0.66 z" /><path
           id="path194"
           style="fill:#2c8bbf;fill-opacity:1;fill-rule:nonzero;stroke:none"
           d="m 209.225,109.107 -2.617,0 0,0.66 2.617,0 0,-0.66 z" /><path
           id="path196"
           style="fill:#2c8bbf;fill-opacity:1;fill-rule:nonzero;stroke:none"
           d="m 209.225,111.049 -2.617,0 0,0.66 2.617,0 0,-0.66 z" /><path
           id="path198"
           style="fill:#2c8bbf;fill-opacity:1;fill-rule:nonzero;stroke:none"
           d="m 206.625,109.942 -0.851,0 0,0.951 0.851,0 0,-0.951 z" /><path
           id="path200"
           style="fill:#2c8bbf;fill-opacity:1;fill-rule:nonzero;stroke:none"
           d="m 214.66,109.107 -2.617,0 0,0.66 2.617,0 0,-0.66 z" /><path
           id="path202"
           style="fill:#2c8bbf;fill-opacity:1;fill-rule:nonzero;stroke:none"
           d="m 214.66,111.049 -2.617,0 0,0.66 2.617,0 0,-0.66 z" /><path
           id="path204"
           style="fill:#2c8bbf;fill-opacity:1;fill-rule:nonzero;stroke:none"
           d="m 212.06,107.948 -0.851,0 0,2.945 0.851,0 0,-2.945 z" /><path
           id="path206"
           style="fill:#2c8bbf;fill-opacity:1;fill-rule:nonzero;stroke:none"
           d="m 210.184,107.971 -0.851,0 0,0.951 0.851,0 0,-0.951 z" /><path
           id="path208"
           style="fill:#2c8bbf;fill-opacity:1;fill-rule:nonzero;stroke:none"
           d="m 215.66,109.95 -0.851,0 0,0.951 0.851,0 0,-0.951 z" /><g
           transform="translate(195.9811,110)"
           id="g210"><path
             id="path212"
             style="fill:#2c8bbf;fill-opacity:1;fill-rule:nonzero;stroke:none"
             d="m 0,0 c 0,3.227 -0.863,5.852 -1.945,5.987 l 0,0.013 -8.004,0 c -1.123,0 -2.032,-2.686 -2.032,-6 0,-3.314 0.909,-6 2.032,-6 l 8.004,0 0,0.013 C -0.863,-5.852 0,-3.227 0,0" /></g><g
           transform="translate(228,110)"
           id="g214"><path
             id="path216"
             style="fill:#2c8bbf;fill-opacity:1;fill-rule:nonzero;stroke:none"
             d="m 0,0 c 0,3.227 -0.863,5.852 -1.945,5.987 l 0,0.013 -8.004,0 c -1.122,0 -2.032,-2.686 -2.032,-6 0,-3.314 0.91,-6 2.032,-6 l 8.004,0 0,0.013 C -0.863,-5.852 0,-3.227 0,0" /></g><path
           id="path218"
           style="fill:#2c8bbf;fill-opacity:1;fill-rule:nonzero;stroke:none"
           d="m 195.009,105.553 22.226,0 0,8.777 -22.226,0 0,-8.777 z m 22.642,-0.466 -23.059,0 0,9.709 23.059,0 0,-9.709 z" /><g
           transform="translate(34.2936,112.0916)"
           id="g220"><path
             id="path222"
             style="fill:#2c8bbf;fill-opacity:1;fill-rule:nonzero;stroke:none"
             d="m 0,0 c 0.121,-0.238 0.287,-0.436 0.494,-0.591 0.208,-0.157 0.453,-0.274 0.735,-0.35 0.281,-0.078 0.581,-0.118 0.899,-0.118 0.624,0 1.138,0.167 1.541,0.501 0.403,0.334 0.606,0.8 0.606,1.4 0,0.6 -0.206,1.053 -0.615,1.358 C 3.249,2.506 2.727,2.659 2.091,2.659 1.784,2.659 1.492,2.62 1.211,2.542 0.929,2.464 0.687,2.347 0.485,2.192 0.284,2.036 0.121,1.847 0,1.625 -0.122,1.403 -0.184,1.142 -0.184,0.842 -0.184,0.52 -0.122,0.239 0,0 m 0.137,-6.25 c 0.52,-0.405 1.183,-0.609 1.991,-0.609 0.391,0 0.749,0.059 1.073,0.175 0.325,0.117 0.605,0.278 0.844,0.485 0.239,0.204 0.423,0.446 0.551,0.724 0.129,0.278 0.193,0.583 0.193,0.917 0,0.321 -0.072,0.618 -0.212,0.891 -0.141,0.273 -0.333,0.509 -0.578,0.709 -0.245,0.2 -0.529,0.358 -0.853,0.475 -0.324,0.117 -0.67,0.175 -1.036,0.175 -0.379,0 -0.738,-0.053 -1.074,-0.159 -0.337,-0.105 -0.63,-0.257 -0.881,-0.458 -0.251,-0.199 -0.446,-0.44 -0.587,-0.716 -0.141,-0.278 -0.212,-0.59 -0.212,-0.933 0,-0.713 0.26,-1.27 0.781,-1.676 m -1.66,8.434 c 0.207,0.372 0.488,0.685 0.844,0.941 0.353,0.256 0.761,0.45 1.22,0.583 0.458,0.134 0.939,0.2 1.441,0.2 0.709,0 1.314,-0.086 1.815,-0.258 C 4.299,3.478 4.705,3.251 5.017,2.967 5.329,2.684 5.559,2.361 5.706,2 5.852,1.639 5.927,1.27 5.927,0.892 5.927,0.359 5.764,-0.127 5.44,-0.566 5.116,-1.006 4.678,-1.335 4.127,-1.558 4.91,-1.78 5.492,-2.144 5.871,-2.65 6.251,-3.156 6.44,-3.776 6.44,-4.508 6.44,-5.086 6.327,-5.597 6.1,-6.042 5.874,-6.486 5.568,-6.861 5.183,-7.166 4.798,-7.473 4.342,-7.704 3.815,-7.858 3.29,-8.014 2.727,-8.092 2.128,-8.092 c -0.624,0 -1.205,0.072 -1.743,0.217 -0.539,0.144 -1.006,0.367 -1.403,0.666 -0.399,0.3 -0.711,0.676 -0.937,1.126 -0.227,0.449 -0.339,0.974 -0.339,1.575 0,0.7 0.195,1.308 0.587,1.824 0.391,0.517 0.954,0.893 1.688,1.126 -0.55,0.2 -0.99,0.525 -1.322,0.975 -0.33,0.451 -0.494,0.942 -0.494,1.475 0,0.489 0.103,0.919 0.312,1.292" /></g><g
           transform="translate(46.4396,104.1831)"
           id="g224"><path
             id="path226"
             style="fill:#2c8bbf;fill-opacity:1;fill-rule:nonzero;stroke:none"
             d="m 0,0 0,8.467 -3.376,0 0,1.134 c 0.44,0 0.869,0.03 1.284,0.091 0.417,0.061 0.793,0.175 1.129,0.342 0.336,0.167 0.621,0.394 0.852,0.683 0.233,0.289 0.392,0.656 0.478,1.1 l 1.193,0 L 1.56,0 0,0 Z" /></g></g></g></g></svg>