<?xml version="1.0" encoding="UTF-8" standalone="no"?>
<svg
   xmlns:dc="http://purl.org/dc/elements/1.1/"
   xmlns:cc="http://creativecommons.org/ns#"
   xmlns:rdf="http://www.w3.org/1999/02/22-rdf-syntax-ns#"
   xmlns:svg="http://www.w3.org/2000/svg"
   xmlns="http://www.w3.org/2000/svg"
   viewBox="0 0 320 320"
   height="320"
   width="320"
   xml:space="preserve"
   version="1.1"
   id="svg2"><metadata
     id="metadata8"><rdf:RDF><cc:Work
         rdf:about=""><dc:format>image/svg+xml</dc:format><dc:type
           rdf:resource="http://purl.org/dc/dcmitype/StillImage" /></cc:Work></rdf:RDF></metadata><defs
     id="defs6"><clipPath
       id="clipPath16"
       clipPathUnits="userSpaceOnUse"><path
         id="path18"
         d="M 0,256 256,256 256,0 0,0 0,256 Z" /></clipPath><clipPath
       id="clipPath24"
       clipPathUnits="userSpaceOnUse"><path
         id="path26"
         d="m 5.5,188 245,0 0,-116.0098 -245,0 L 5.5,188 Z" /></clipPath></defs><g
     transform="matrix(1.25,0,0,-1.25,0,320)"
     id="g10"><g
       id="g12"><g
         clip-path="url(#clipPath16)"
         id="g14"><g
           id="g20"><g
             id="g22" /><g
             id="g28"><g
               style="opacity:0.5"
               id="g30"
               clip-path="url(#clipPath24)"><g
                 id="g32"
                 transform="translate(235.0656,176.5264)"><path
                   id="path34"
                   style="fill:#ffffff;fill-opacity:1;fill-rule:nonzero;stroke:none"
                   d="m 0,0 c -0.139,0.201 -0.287,0.396 -0.444,0.584 -0.202,0.244 -2.05,2.441 -4.466,4.71 -4.552,4.274 -8.278,6.18 -12.082,6.18 l -17.757,0 -144.634,0 -17.756,0 c -3.804,0 -7.53,-1.906 -12.082,-6.18 -2.416,-2.269 -4.264,-4.466 -4.466,-4.71 -0.157,-0.188 -0.305,-0.383 -0.444,-0.584 -18.035,-26.167 -17.028,-50.181 -13.008,-65.719 3.885,-15.012 11.262,-25.119 13.05,-27.415 0.121,-0.172 0.25,-0.34 0.386,-0.503 0.203,-0.243 2.051,-2.44 4.467,-4.709 4.552,-4.274 8.278,-6.18 12.082,-6.18 l 17.374,0 c 0.132,-0.007 0.264,-0.01 0.397,-0.01 l 144.634,0 c 2.554,0 4.955,1.208 6.469,3.255 1.622,2.149 4.462,4.545 5.643,4.755 l 16.012,0 c 2.398,0 4.671,1.067 6.198,2.909 0.369,0.445 9.088,11.101 13.435,27.898 C 17.028,-50.181 18.035,-26.167 0,0" /></g></g></g></g><g
           transform="translate(38.3214,180)"
           id="g36"><path
             id="path38"
             style="fill:#e6e6e6;fill-opacity:1;fill-rule:nonzero;stroke:none"
             d="m 0,0 c -3.678,0 -10.321,-8 -10.321,-8 l 28,0 0,8 L 0,0 Z" /></g><g
           transform="translate(217.6786,180)"
           id="g40"><path
             id="path42"
             style="fill:#e6e6e6;fill-opacity:1;fill-rule:nonzero;stroke:none"
             d="m 0,0 c 3.678,0 10.321,-8 10.321,-8 l -28,0 0,8 L 0,0 Z" /></g><g
           transform="translate(48.6953,81)"
           id="g44"><path
             id="path46"
             style="fill:#404040;fill-opacity:1;fill-rule:nonzero;stroke:none"
             d="m 0,0 -7.631,0 c -1.676,0 -4.326,1.344 -5.915,3 -1.591,1.656 -1.521,3 0.154,3 L -5.76,6 C -4.083,6 -1.434,4.656 0.156,3 1.745,1.344 1.678,0 0,0 m 3.305,7 -24,0 c 0,0 8.085,-8 12,-8 l 16,0 c 0,0 -0.323,8 -4,8" /></g><g
           transform="translate(228,172)"
           id="g48"><path
             id="path50"
             style="fill:#262626;fill-opacity:1;fill-rule:nonzero;stroke:none"
             d="m 0,0 -16,0 c 0,0 -5.414,1.414 -12,8 l -144,0 c -6.586,-6.586 -12,-8 -12,-8 l -16,0 c -31.466,-45.857 0,-84 0,-84 l 16,0 c 6.098,0 12,-8.01 12,-8.01 l 144,0 c 0,0 5.901,8.01 12,8.01 l 16,0 c 0,0 31.466,38.143 0,84" /></g><g
           transform="translate(18.7347,136)"
           id="g52"><path
             id="path54"
             style="fill:#191919;fill-opacity:1;fill-rule:nonzero;stroke:none"
             d="m 0,0 c 0,9.521 7.746,17.265 17.265,17.265 9.521,0 17.266,-7.744 17.266,-17.265 0,-9.521 -7.745,-17.265 -17.266,-17.265 C 7.746,-17.265 0,-9.521 0,0 m -0.735,0 c 0,-9.926 8.075,-18 18,-18 9.926,0 18,8.074 18,18 0,9.926 -8.074,18 -18,18 -9.925,0 -18,-8.074 -18,-18" /></g><g
           transform="translate(44,104)"
           id="g56"><path
             id="path58"
             style="fill:#404040;fill-opacity:1;fill-rule:nonzero;stroke:none"
             d="m 0,0 c 0,-4.418 -3.582,-8 -8,-8 -4.418,0 -8,3.582 -8,8 0,4.418 3.582,8 8,8 4.418,0 8,-3.582 8,-8" /></g><g
           transform="translate(202.7619,134)"
           id="g60"><path
             id="path62"
             style="fill:#191919;fill-opacity:1;fill-rule:nonzero;stroke:none"
             d="M 0,0 C 0,8.402 6.836,15.238 15.238,15.238 23.64,15.238 30.476,8.402 30.476,0 30.476,-8.402 23.64,-15.238 15.238,-15.238 6.836,-15.238 0,-8.402 0,0 m -0.762,0 c 0,-8.821 7.177,-16 16,-16 8.823,0 16,7.179 16,16 0,8.821 -7.177,16 -16,16 -8.823,0 -16,-7.179 -16,-16" /></g><g
           transform="translate(224,148)"
           id="g64"><path
             id="path66"
             style="fill:#404040;fill-opacity:1;fill-rule:nonzero;stroke:none"
             d="m 0,0 c 0,-3.314 -2.686,-6 -6,-6 -3.314,0 -6,2.686 -6,6 0,3.314 2.686,6 6,6 3.314,0 6,-2.686 6,-6" /></g><g
           transform="translate(224,120)"
           id="g68"><path
             id="path70"
             style="fill:#404040;fill-opacity:1;fill-rule:nonzero;stroke:none"
             d="m 0,0 c 0,-3.313 -2.686,-6 -6,-6 -3.314,0 -6,2.687 -6,6 0,3.313 2.686,6 6,6 3.314,0 6,-2.687 6,-6" /></g><g
           transform="translate(210,134)"
           id="g72"><path
             id="path74"
             style="fill:#404040;fill-opacity:1;fill-rule:nonzero;stroke:none"
             d="m 0,0 c 0,-3.313 -2.686,-6 -6,-6 -3.314,0 -6,2.687 -6,6 0,3.314 2.686,6 6,6 3.314,0 6,-2.686 6,-6" /></g><g
           transform="translate(238,134)"
           id="g76"><path
             id="path78"
             style="fill:#404040;fill-opacity:1;fill-rule:nonzero;stroke:none"
             d="m 0,0 c 0,-3.313 -2.686,-6 -6,-6 -3.314,0 -6,2.687 -6,6 0,3.314 2.686,6 6,6 3.314,0 6,-2.686 6,-6" /></g><path
           id="path80"
           style="fill:#191919;fill-opacity:1;fill-rule:nonzero;stroke:none"
           d="m 196,96 -136,0 0,76 136,0 0,-76 z" /><g
           transform="translate(238,111.0001)"
           id="g82"><path
             id="path84"
             style="fill:#00ff00;fill-opacity:1;fill-rule:nonzero;stroke:none"
             d="m 0,0 c 0,-0.552 -0.447,-1 -1,-1 -0.553,0 -1,0.448 -1,1 0,0.553 0.447,1 1,1 0.553,0 1,-0.447 1,-1" /></g><g
           transform="translate(234,103)"
           id="g86"><path
             id="path88"
             style="fill:#404040;fill-opacity:1;fill-rule:nonzero;stroke:none"
             d="m 0,0 c 0,-0.552 -0.447,-1 -1,-1 -0.553,0 -1,0.448 -1,1 0,0.553 0.447,1 1,1 0.553,0 1,-0.447 1,-1" /></g><g
           transform="translate(20,111)"
           id="g90"><path
             id="path92"
             style="fill:#404040;fill-opacity:1;fill-rule:nonzero;stroke:none"
             d="m 0,0 c 0,-0.553 -0.448,-1 -1,-1 -0.552,0 -1,0.447 -1,1 0,0.552 0.448,1 1,1 0.552,0 1,-0.448 1,-1" /></g><g
           transform="translate(24,101.0006)"
           id="g94"><path
             id="path96"
             style="fill:#404040;fill-opacity:1;fill-rule:nonzero;stroke:none"
             d="m 0,0 c 0,-0.552 -0.448,-1.001 -1,-1.001 -0.552,0 -1,0.449 -1,1.001 0,0.552 0.448,0.999 1,0.999 0.552,0 1,-0.447 1,-0.999" /></g><g
           transform="translate(194,84)"
           id="g98"><path
             id="path100"
             style="fill:#404040;fill-opacity:1;fill-rule:nonzero;stroke:none"
             d="M 0,0 C 3.314,0 6,2.686 6,6 L -6,6 C -6,2.686 -3.314,0 0,0" /></g><g
           transform="translate(178,84)"
           id="g102"><path
             id="path104"
             style="fill:#404040;fill-opacity:1;fill-rule:nonzero;stroke:none"
             d="M 0,0 C 3.314,0 6,2.686 6,6 L -6,6 C -6,2.686 -3.314,0 0,0" /></g><g
           transform="translate(66,84)"
           id="g106"><path
             id="path108"
             style="fill:#404040;fill-opacity:1;fill-rule:nonzero;stroke:none"
             d="M 0,0 C 3.314,0 6,2.686 6,6 L -6,6 C -6,2.686 -3.314,0 0,0" /></g><g
           transform="translate(84,86)"
           id="g110"><path
             id="path112"
             style="fill:#404040;fill-opacity:1;fill-rule:nonzero;stroke:none"
             d="m 0,0 c 0,-1.104 -0.951,-2 -2.124,-2 l -3.752,0 C -7.049,-2 -8,-1.104 -8,0 c 0,1.105 0.951,2 2.124,2 l 3.752,0 C -0.951,2 0,1.105 0,0" /></g><g
           transform="translate(96,86)"
           id="g114"><path
             id="path116"
             style="fill:#404040;fill-opacity:1;fill-rule:nonzero;stroke:none"
             d="m 0,0 c 0,-1.104 -0.951,-2 -2.124,-2 l -3.752,0 C -7.049,-2 -8,-1.104 -8,0 c 0,1.105 0.951,2 2.124,2 l 3.752,0 C -0.951,2 0,1.105 0,0" /></g><g
           transform="translate(156,85.9986)"
           id="g118"><path
             id="path120"
             style="fill:#404040;fill-opacity:1;fill-rule:nonzero;stroke:none"
             d="m 0,0 c 0,-1.104 -0.95,-1.999 -2.123,-1.999 l -3.754,0 C -7.047,-1.999 -8,-1.104 -8,0 c 0,1.105 0.953,2.001 2.123,2.001 l 3.754,0 C -0.95,2.001 0,1.105 0,0" /></g><g
           transform="translate(168,85.9986)"
           id="g122"><path
             id="path124"
             style="fill:#404040;fill-opacity:1;fill-rule:nonzero;stroke:none"
             d="m 0,0 c 0,-1.104 -0.95,-1.999 -2.123,-1.999 l -3.754,0 C -7.047,-1.999 -8,-1.104 -8,0 c 0,1.105 0.953,2.001 2.123,2.001 l 3.754,0 C -0.95,2.001 0,1.105 0,0" /></g><g
           transform="translate(52,135.4697)"
           id="g126"><path
             id="path128"
             style="fill:#404040;fill-opacity:1;fill-rule:nonzero;stroke:none"
             d="m 0,0 c 0,2.457 -0.687,4.484 -1.584,4.88 l 0,0.082 -6.019,0 -2.957,-3.063 c 0,0 -2.059,-1.846 0,-3.907 l 2.957,-3.061 6.019,0 0,0.189 C -0.687,-4.485 0,-2.458 0,0" /></g><g
           transform="translate(20,135.4697)"
           id="g130"><path
             id="path132"
             style="fill:#404040;fill-opacity:1;fill-rule:nonzero;stroke:none"
             d="m 0,0 c 0,2.457 0.686,4.484 1.584,4.88 l 0,0.082 6.019,0 2.956,-3.063 c 0,0 2.059,-1.846 0,-3.907 l -2.956,-3.061 -6.019,0 0,0.189 C 0.686,-4.485 0,-2.458 0,0" /></g><g
           transform="translate(36.052,120)"
           id="g134"><path
             id="path136"
             style="fill:#404040;fill-opacity:1;fill-rule:nonzero;stroke:none"
             d="m 0,0 c 2.458,0 4.485,0.687 4.88,1.584 l 0.084,0 0,6.02 -3.063,2.956 c 0,0 -1.848,2.059 -3.907,0 l -3.063,-2.956 0,-6.02 0.189,0 C -4.485,0.687 -2.459,0 0,0" /></g><g
           transform="translate(36.052,152)"
           id="g138"><path
             id="path140"
             style="fill:#404040;fill-opacity:1;fill-rule:nonzero;stroke:none"
             d="m 0,0 c 2.458,0 4.485,-0.687 4.88,-1.584 l 0.084,0 0,-6.02 -3.063,-2.956 c 0,0 -1.848,-2.059 -3.907,0 l -3.063,2.956 0,6.02 0.189,0 C -4.485,-0.687 -2.459,0 0,0" /></g><path
           id="path142"
           style="fill:#ffffff;fill-opacity:1;fill-rule:nonzero;stroke:none"
           d="m 201.252,131.252 5.496,0 0,5.497 -5.496,0 0,-5.497 z m 6.078,-0.582 -6.66,0 0,6.66 6.66,0 0,-6.66 z" /><g
           transform="translate(232,137.5189)"
           id="g144"><path
             id="path146"
             style="fill:#ffffff;fill-opacity:1;fill-rule:nonzero;stroke:none"
             d="m 0,0 c -1.944,0 -3.527,-1.582 -3.527,-3.527 0,-1.944 1.583,-3.526 3.527,-3.526 1.944,0 3.527,1.582 3.527,3.526 C 3.527,-1.582 1.944,0 0,0 m 0,-7.635 c -2.265,0 -4.109,1.843 -4.109,4.108 0,2.266 1.844,4.109 4.109,4.109 2.265,0 4.109,-1.843 4.109,-4.109 0,-2.265 -1.844,-4.108 -4.109,-4.108" /></g><g
           transform="translate(217.9192,152.2827)"
           id="g148"><path
             id="path150"
             style="fill:#ffffff;fill-opacity:1;fill-rule:nonzero;stroke:none"
             d="m 0,0 -3.993,-6.854 8.148,0 L 0,0 Z m 0.01,-1.139 3.111,-5.133 -6.101,0 2.99,5.133 z" /></g><g
           transform="translate(221.4066,122.9952)"
           id="g152"><path
             id="path154"
             style="fill:#ffffff;fill-opacity:1;fill-rule:nonzero;stroke:none"
             d="M 0,0 -0.411,0.411 -3.407,-2.584 -6.402,0.411 -6.813,0 -3.818,-2.995 -6.813,-5.99 -6.402,-6.402 -3.407,-3.407 -0.411,-6.402 0,-5.99 -2.995,-2.995 0,0 Z" /></g><g
           transform="translate(127.4713,92)"
           id="g156"><path
             id="path158"
             style="fill:#ffffff;fill-opacity:1;fill-rule:nonzero;stroke:none"
             d="m 0,0 0,-5.333 -4.344,0 -1.458,2 1.806,0 0,3.333 -9.475,0 0,-0.667 8.843,0 0,-2 -8.843,0 0,-3.333 0.631,0 0,2.667 6.356,0 1.944,-2.667 5.172,0 0,5.333 13.265,0 0,-2 -8.844,0 0,-3.333 0.632,0 0,2.667 8.844,0 0,3.333 L 0,0 Z" /></g><g
           transform="translate(35.542,165.7509)"
           id="g160"><path
             id="path162"
             style="fill:#ffffff;fill-opacity:1;fill-rule:nonzero;stroke:none"
             d="m 0,0 c -0.09,0.27 -0.241,0.515 -0.451,0.735 -0.115,0.12 -0.238,0.223 -0.37,0.31 -0.131,0.086 -0.264,0.16 -0.396,0.224 -0.074,0.038 -2.335,0.98 -2.335,0.98 l 0,-5.305 -0.976,-0.654 c -0.16,-0.106 -0.344,-0.182 -0.55,-0.229 -0.208,-0.047 -0.412,-0.032 -0.616,0.045 -0.265,0.1 -0.375,0.215 -0.328,0.344 0.046,0.129 0.17,0.263 0.372,0.402 l 1.725,1.144 c 0.253,0.169 0.212,0.577 -0.069,0.684 l -0.068,0.025 c -0.101,0.038 -0.213,0.025 -0.304,-0.036 L -6.71,-2.893 c -0.484,-0.321 -0.758,-0.617 -0.823,-0.889 -0.064,-0.271 0.202,-0.524 0.798,-0.758 0.571,-0.22 1.102,-0.281 1.594,-0.184 0.492,0.097 0.969,0.302 1.431,0.614 l 0.996,0.654 0.011,-0.005 0,0.012 0.125,0.082 c 0.177,0.113 0.356,0.201 0.536,0.265 0.053,0.018 0.11,0.03 0.169,0.037 l -0.124,0.769 c -0.158,-0.03 -0.308,-0.068 -0.444,-0.124 -0.091,-0.037 -0.178,-0.077 -0.262,-0.118 l 0,3.635 1.003,-0.421 0,-0.006 c 0.22,-0.093 0.417,-0.215 0.591,-0.367 0.174,-0.152 0.258,-0.374 0.25,-0.665 0,-0.264 -0.079,-0.408 -0.235,-0.432 -0.156,-0.023 -0.341,0.012 -0.554,0.104 l -0.191,0.083 0,-0.771 -0.001,10e-4 0.001,-0.039 0.131,-0.839 c -0.001,0 -0.002,0 -0.003,0 l 0.065,-0.402 0.187,-1.198 -1.757,-1.165 c -0.253,-0.169 -0.212,-0.578 0.069,-0.684 l 0.068,-0.025 c 0.101,-0.039 0.213,-0.026 0.304,0.035 l 2.21,1.466 -0.003,0.007 0.009,-0.003 -1.259,2.799 0.164,-0.074 c 0.046,-0.021 0.093,-0.041 0.139,-0.062 0.047,-0.02 0.093,-0.041 0.14,-0.062 0.179,-0.07 0.356,-0.126 0.531,-0.167 0.175,-0.041 0.338,-0.037 0.488,0.012 0.179,0.063 0.308,0.184 0.386,0.366 0.078,0.181 0.115,0.389 0.111,0.623 C 0.137,-0.534 0.09,-0.27 0,0" /></g><g
           transform="translate(35.1962,163.2837)"
           id="g164"><path
             id="path166"
             style="fill:#ffffff;fill-opacity:1;fill-rule:nonzero;stroke:none"
             d="M 0,0 C -0.048,0.018 -0.096,0.035 -0.144,0.051 -0.192,0.067 -0.243,0.083 -0.295,0.098 -0.442,0.142 -0.604,0.171 -0.772,0.194 L 0.027,-1.594 C 0.47,-1.29 0.73,-1.009 0.794,-0.753 0.861,-0.485 0.596,-0.234 0,0" /></g><g
           transform="translate(199.9038,164.6027)"
           id="g168"><path
             id="path170"
             style="fill:#ffffff;fill-opacity:1;fill-rule:nonzero;stroke:none"
             d="m 0,0 0.301,0 c 0.142,0 0.214,0.075 0.214,0.225 l 0,2.362 c 0,0.15 -0.067,0.225 -0.201,0.225 l -0.314,0 0,0.507 1.996,0 0,-0.507 -0.307,0 C 1.551,2.812 1.481,2.737 1.481,2.587 L 1.481,0 2.028,0 c 0.286,0 0.484,0.091 0.593,0.273 0.095,0.159 0.143,0.424 0.143,0.796 l 0.484,0 0,-1.575 L 0,-0.506 0,0 Z" /></g><g
           transform="translate(203.4232,164.6027)"
           id="g172"><path
             id="path174"
             style="fill:#ffffff;fill-opacity:1;fill-rule:nonzero;stroke:none"
             d="m 0,0 0.301,0 c 0.142,0 0.214,0.075 0.214,0.225 l 0,2.407 c 0,0.12 -0.067,0.18 -0.201,0.18 l -0.314,0 0,0.507 1.996,0 0,-0.507 -0.307,0 C 1.607,2.812 1.552,2.795 1.524,2.762 1.495,2.73 1.481,2.672 1.481,2.587 l 0,-2.362 C 1.481,0.075 1.548,0 1.682,0 l 0.314,0 0,-0.506 L 0,-0.506 0,0 Z" /></g><g
           transform="translate(207.0807,164.6027)"
           id="g176"><path
             id="path178"
             style="fill:#ffffff;fill-opacity:1;fill-rule:nonzero;stroke:none"
             d="m 0,0 0.339,0 c 0.442,0 0.663,0.206 0.663,0.619 0,0.405 -0.222,0.607 -0.666,0.607 L 0,1.226 0,0 Z m 0,2.812 0,-1.08 0.279,0 c 0.401,0 0.602,0.182 0.602,0.546 0,0.356 -0.201,0.534 -0.602,0.534 L 0,2.812 Z m -1.451,-3.318 0,0.506 0.276,0 c 0.139,0 0.209,0.075 0.209,0.225 l 0,2.362 c 0,0.15 -0.068,0.225 -0.204,0.225 l -0.296,0 0,0.507 2.202,0 c 0.366,0 0.643,-0.08 0.83,-0.24 C 1.754,2.922 1.848,2.701 1.848,2.416 1.848,2.172 1.776,1.972 1.634,1.817 1.494,1.663 1.313,1.562 1.092,1.513 1.455,1.404 1.699,1.273 1.825,1.119 1.951,0.966 2.013,0.766 2.013,0.52 2.013,0.17 1.913,-0.089 1.712,-0.256 1.513,-0.423 1.135,-0.506 0.58,-0.506 l -2.031,0 z" /></g><g
           transform="translate(213.2437,164.6027)"
           id="g180"><path
             id="path182"
             style="fill:#ffffff;fill-opacity:1;fill-rule:nonzero;stroke:none"
             d="m 0,0 0.301,0 c 0.142,0 0.214,0.075 0.214,0.225 l 0,2.362 c 0,0.15 -0.067,0.225 -0.201,0.225 l -0.314,0 0,0.507 3.409,0 0,-1.485 -0.485,0 c 0,0.399 -0.077,0.667 -0.231,0.804 -0.12,0.116 -0.34,0.174 -0.659,0.174 l -0.553,0 0,-1.119 0.146,0 c 0.166,0 0.28,0.04 0.342,0.121 0.055,0.071 0.082,0.195 0.082,0.371 l 0,0.138 0.421,0 0,-1.766 -0.421,0 0,0.146 c 0,0.15 -0.026,0.268 -0.077,0.354 -0.051,0.087 -0.114,0.13 -0.19,0.13 l -0.303,0 0,-1.187 0.61,0 c 0.326,0 0.547,0.077 0.661,0.231 0.115,0.153 0.172,0.433 0.172,0.838 l 0.485,0 0,-1.575 L 0,-0.506 0,0 Z" /></g><g
           transform="translate(217.0338,166.4364)"
           id="g184"><path
             id="path186"
             style="fill:#ffffff;fill-opacity:1;fill-rule:nonzero;stroke:none"
             d="m 0,0 0,1.485 3.376,0 L 3.376,0 2.892,0 C 2.892,0.356 2.834,0.608 2.719,0.757 2.605,0.905 2.422,0.979 2.171,0.979 l 0,-2.588 c 0,-0.15 0.067,-0.225 0.201,-0.225 l 0.314,0 0,-0.506 -1.996,0 0,0.506 0.304,0 c 0.141,0 0.211,0.075 0.211,0.225 l 0,2.588 C 0.927,0.979 0.737,0.894 0.635,0.726 0.535,0.559 0.484,0.317 0.484,0 L 0,0 Z" /></g><g
           transform="translate(225.3706,166)"
           id="g188"><path
             id="path190"
             style="fill:#ffffff;fill-opacity:1;fill-rule:nonzero;stroke:none"
             d="m 0,0 c 0,-0.972 0.242,-1.458 0.726,-1.458 0.482,0 0.723,0.486 0.723,1.458 0,0.972 -0.24,1.458 -0.718,1.458 C 0.244,1.458 0,0.972 0,0 m -1.084,0 c 0,0.593 0.16,1.075 0.48,1.443 C -0.284,1.815 0.16,2 0.726,2 1.295,2 1.738,1.816 2.056,1.449 2.374,1.082 2.533,0.599 2.533,0 2.533,-0.616 2.37,-1.103 2.044,-1.463 1.718,-1.821 1.284,-2 0.738,-2 c -0.56,0 -1.005,0.181 -1.332,0.542 -0.327,0.362 -0.49,0.848 -0.49,1.458" /></g><g
           transform="translate(223.1487,166.4617)"
           id="g192"><path
             id="path194"
             style="fill:#ffffff;fill-opacity:1;fill-rule:nonzero;stroke:none"
             d="m 0,0 c -0.079,-0.084 -0.222,-0.127 -0.429,-0.127 l -0.532,0 0,1.08 0.371,0 c 0.264,0 0.449,-0.038 0.552,-0.115 C 0.068,0.761 0.12,0.622 0.12,0.422 0.12,0.225 0.08,0.084 0,0 m 1.138,-1.859 c -0.092,0 -0.154,0.02 -0.186,0.059 -0.032,0.04 -0.048,0.11 -0.048,0.211 l 0.002,0.495 c 0,0.233 -0.047,0.399 -0.143,0.501 C 0.668,-0.49 0.509,-0.408 0.286,-0.346 0.82,-0.265 1.087,0.023 1.087,0.52 1.087,0.835 0.984,1.071 0.778,1.226 0.574,1.382 0.3,1.46 -0.043,1.46 l -2.4,0 0,-0.507 0.294,0 c 0.147,0 0.221,-0.075 0.221,-0.225 l 0,-2.317 c 0,-0.18 -0.076,-0.27 -0.228,-0.27 l -0.287,0 0,-0.506 1.996,0 0,0.506 -0.281,0 c -0.092,0 -0.154,0.02 -0.186,0.059 -0.032,0.04 -0.047,0.11 -0.047,0.211 l 0,0.956 0.376,0 c 0.221,0 0.363,-0.022 0.427,-0.067 0.065,-0.045 0.098,-0.158 0.098,-0.338 l -0.002,-0.551 c 0,-0.18 -0.076,-0.27 -0.228,-0.27 l 0,-0.506 1.624,0 0,0.506 -0.196,0 z" /></g><g
           transform="translate(211.8001,166.4617)"
           id="g196"><path
             id="path198"
             style="fill:#ffffff;fill-opacity:1;fill-rule:nonzero;stroke:none"
             d="m 0,0 c -0.079,-0.084 -0.222,-0.127 -0.429,-0.127 l -0.532,0 0,1.08 0.371,0 c 0.264,0 0.449,-0.038 0.552,-0.115 C 0.068,0.761 0.12,0.622 0.12,0.422 0.12,0.225 0.08,0.084 0,0 m 1.138,-1.859 c -0.092,0 -0.154,0.02 -0.186,0.059 -0.032,0.04 -0.048,0.11 -0.048,0.211 l 0.002,0.495 c 0,0.233 -0.047,0.399 -0.143,0.501 C 0.668,-0.49 0.509,-0.408 0.286,-0.346 0.82,-0.265 1.087,0.023 1.087,0.52 1.087,0.835 0.984,1.071 0.778,1.226 0.574,1.382 0.3,1.46 -0.043,1.46 l -2.4,0 0,-0.507 0.294,0 c 0.147,0 0.221,-0.075 0.221,-0.225 l 0,-2.317 c 0,-0.18 -0.076,-0.27 -0.228,-0.27 l -0.287,0 0,-0.506 1.996,0 0,0.506 -0.281,0 c -0.092,0 -0.154,0.02 -0.186,0.059 -0.031,0.04 -0.047,0.11 -0.047,0.211 l 0,0.956 0.376,0 c 0.221,0 0.363,-0.022 0.427,-0.067 0.065,-0.045 0.098,-0.158 0.098,-0.338 l -0.002,-0.551 c 0,-0.18 -0.076,-0.27 -0.228,-0.27 l 0,-0.506 1.585,0 0,0.506 -0.157,0 z" /></g><path
           id="path200"
           style="fill:#2c8bbf;fill-opacity:1;fill-rule:nonzero;stroke:none"
           d="m 194,98 -132,0 0,11.686 132,0 L 194,98 Z" /><g
           transform="translate(62,101.1565)"
           id="g202"><path
             id="path204"
             style="fill:#3096cf;fill-opacity:1;fill-rule:nonzero;stroke:none"
             d="m 0,0 c 0,0 98.453,10.951 132,3.65 l 0,6.917 c 0,0 -24.976,19.98 -67.866,14.217 C 21.245,19.02 0,11.527 0,11.527 L 0,0 Z" /></g><g
           transform="translate(62,111.7232)"
           id="g206"><path
             id="path208"
             style="fill:#2c8bbf;fill-opacity:1;fill-rule:nonzero;stroke:none"
             d="M 0,0 C 0,0 85.426,24.592 132,0 L 132,37.464 53.713,46.493 0,33.237 0,0 Z" /></g><path
           id="path210"
           style="fill:#2c3e50;fill-opacity:1;fill-rule:nonzero;stroke:none"
           d="m 194,158.217 -132,0 0,11.783 132,0 0,-11.783 z" /><g
           transform="translate(62,160.522)"
           id="g212"><path
             id="path214"
             style="fill:#29678f;fill-opacity:1;fill-rule:nonzero;stroke:none"
             d="M 0,0 C 0,0 29.261,3.458 53.713,-2.305 L 0,-17.867 0,0 Z" /></g><g
           transform="translate(115.7125,158.2166)"
           id="g216"><path
             id="path218"
             style="fill:#29678f;fill-opacity:1;fill-rule:nonzero;stroke:none"
             d="m 0,0 c 0,0 36.724,-9.99 78.287,-9.03 l 0,13.641 C 78.287,4.611 47.5,10.567 0,0" /></g><g
           transform="translate(98.6754,148.6198)"
           id="g220"><path
             id="path222"
             style="fill:#ffffff;fill-opacity:1;fill-rule:nonzero;stroke:none"
             d="m 0,0 c 0,-1.112 0.003,-2.178 -0.001,-3.244 -0.01,-3.033 -0.078,-6.066 -0.018,-9.097 0.043,-2.19 -1.288,-3.237 -2.965,-3.596 -0.628,-0.134 -1.32,-0.13 -1.956,-0.026 -1.301,0.214 -1.998,1.61 -1.49,2.832 0.822,1.978 3.162,2.902 5.118,2.022 0.131,-0.059 0.261,-0.119 0.483,-0.22 l 0,8.566 c -0.564,-0.122 -1.176,-0.252 -1.786,-0.388 -2.392,-0.532 -4.782,-1.072 -7.177,-1.591 -0.347,-0.075 -0.454,-0.208 -0.455,-0.57 -0.015,-3.032 -0.047,-6.064 -0.088,-9.096 -0.033,-2.415 -1.947,-4.203 -4.276,-4.013 -1.47,0.119 -2.375,1.43 -1.966,2.847 0.614,2.122 3.053,3.129 5.001,2.065 0.124,-0.067 0.247,-0.136 0.46,-0.254 0,0.632 -0.007,1.194 10e-4,1.755 0.042,3.045 0.089,6.09 0.126,9.135 0.003,0.247 0.059,0.373 0.323,0.433 3.493,0.798 6.984,1.608 10.475,2.414 0.049,0.011 0.1,0.014 0.191,0.026" /></g><g
           transform="translate(133.7779,135.8177)"
           id="g224"><path
             id="path226"
             style="fill:#f2f2f2;fill-opacity:1;fill-rule:nonzero;stroke:none"
             d="m 0,0 1.024,0 c 0.284,0 0.512,-0.228 0.512,-0.512 l 0,-1.024 c 0,-0.284 -0.228,-0.512 -0.512,-0.512 l -1.024,0 c -0.284,0 -0.512,0.228 -0.512,0.512 l 0,1.024 C -0.512,-0.228 -0.284,0 0,0 m -14.338,0 1.024,0 c 0.283,0 0.512,-0.228 0.512,-0.512 l 0,-1.024 c 0,-0.284 -0.229,-0.512 -0.512,-0.512 l -1.024,0 c -0.284,0 -0.513,0.228 -0.513,0.512 l 0,1.024 c 0,0.284 0.229,0.512 0.513,0.512 M 0,3.073 l 1.024,0 c 0.284,0 0.512,-0.229 0.512,-0.513 l 0,-1.024 C 1.536,1.253 1.308,1.024 1.024,1.024 L 0,1.024 c -0.284,0 -0.512,0.229 -0.512,0.512 l 0,1.024 c 0,0.284 0.228,0.513 0.512,0.513 m -14.338,0 1.024,0 c 0.283,0 0.512,-0.229 0.512,-0.513 l 0,-1.024 c 0,-0.283 -0.229,-0.512 -0.512,-0.512 l -1.024,0 c -0.284,0 -0.513,0.229 -0.513,0.512 l 0,1.024 c 0,0.284 0.229,0.513 0.513,0.513 m 5.633,2.56 0,-4.097 4.096,2.049 -4.096,2.048 z M 0,6.145 l 1.024,0 c 0.284,0 0.512,-0.228 0.512,-0.512 l 0,-1.024 C 1.536,4.325 1.308,4.097 1.024,4.097 L 0,4.097 c -0.284,0 -0.512,0.228 -0.512,0.512 l 0,1.024 c 0,0.284 0.228,0.512 0.512,0.512 m -14.338,0 1.024,0 c 0.283,0 0.512,-0.228 0.512,-0.512 l 0,-1.024 c 0,-0.284 -0.229,-0.512 -0.512,-0.512 l -1.024,0 c -0.284,0 -0.513,0.228 -0.513,0.512 l 0,1.024 c 0,0.284 0.229,0.512 0.513,0.512 M 0,9.218 l 1.024,0 c 0.284,0 0.512,-0.229 0.512,-0.513 l 0,-1.024 C 1.536,7.398 1.308,7.169 1.024,7.169 L 0,7.169 c -0.284,0 -0.512,0.229 -0.512,0.512 l 0,1.024 c 0,0.284 0.228,0.513 0.512,0.513 m -11.266,0 9.218,0 c 0.283,0 0.512,-0.229 0.512,-0.513 l 0,-10.241 c 0,-0.284 -0.229,-0.512 -0.512,-0.512 l -9.218,0 c -0.284,0 -0.512,0.228 -0.512,0.512 l 0,10.241 c 0,0.284 0.228,0.513 0.512,0.513 m -3.072,0 1.024,0 c 0.283,0 0.512,-0.229 0.512,-0.513 l 0,-1.024 c 0,-0.283 -0.229,-0.512 -0.512,-0.512 l -1.024,0 c -0.284,0 -0.513,0.229 -0.513,0.512 l 0,1.024 c 0,0.284 0.229,0.513 0.513,0.513 m -0.513,1.536 c -0.567,0 -1.024,-0.457 -1.024,-1.024 l 0,-12.29 c 0,-0.568 0.457,-1.025 1.024,-1.025 0,0.284 0.229,0.512 0.513,0.512 l 1.024,0 c 0.283,0 0.512,-0.228 0.512,-0.512 l 12.29,0 c 0,0.284 0.228,0.512 0.512,0.512 l 1.024,0 c 0.284,0 0.512,-0.228 0.512,-0.512 0.568,0 1.024,0.457 1.024,1.025 l 0,12.29 c 0,0.567 -0.456,1.024 -1.024,1.024 0,-0.284 -0.228,-0.512 -0.512,-0.512 l -1.024,0 c -0.284,0 -0.512,0.228 -0.512,0.512 l -12.29,0 c 0,-0.284 -0.229,-0.512 -0.512,-0.512 l -1.024,0 c -0.284,0 -0.513,0.228 -0.513,0.512" /></g><g
           transform="translate(173.6766,141.8514)"
           id="g228"><path
             id="path230"
             style="fill:#ffffff;fill-opacity:1;fill-rule:nonzero;stroke:none"
             d="M 0,0 -0.015,0 C -0.122,1.175 -0.809,2.183 -1.79,2.741 l -0.265,1.062 c -1.028,0.404 -2.014,0.347 -2.974,0 L -5.289,2.762 C -5.753,2.505 -6.152,2.149 -6.458,1.721 l -4.872,0 c -0.306,0.428 -0.706,0.784 -1.169,1.041 l -0.261,1.041 c -1.028,0.404 -2.013,0.347 -2.973,0 L -15.998,2.741 C -16.979,2.183 -17.666,1.175 -17.773,0 l -0.015,0 -0.324,-6.737 c 0,-1.24 1.014,-2.246 2.264,-2.246 1.054,0 1.938,0.715 2.19,1.682 0.041,0.158 0.094,0.313 0.156,0.464 l 1.19,2.876 c 0.142,0.099 0.275,0.21 0.399,0.33 l 6.038,0 c 0.123,-0.12 0.257,-0.231 0.399,-0.33 l 1.19,-2.876 c 0.062,-0.151 0.115,-0.306 0.156,-0.464 0.252,-0.967 1.136,-1.682 2.189,-1.682 1.251,0 2.264,1.006 2.264,2.246 L 0,0 Z" /></g></g></g></g></svg>