<?xml version="1.0" encoding="UTF-8" standalone="no"?>
<svg
   xmlns:dc="http://purl.org/dc/elements/1.1/"
   xmlns:cc="http://creativecommons.org/ns#"
   xmlns:rdf="http://www.w3.org/1999/02/22-rdf-syntax-ns#"
   xmlns:svg="http://www.w3.org/2000/svg"
   xmlns="http://www.w3.org/2000/svg"
   viewBox="0 0 320 320"
   height="320"
   width="320"
   xml:space="preserve"
   version="1.1"
   id="svg2"><metadata
     id="metadata8"><rdf:RDF><cc:Work
         rdf:about=""><dc:format>image/svg+xml</dc:format><dc:type
           rdf:resource="http://purl.org/dc/dcmitype/StillImage" /></cc:Work></rdf:RDF></metadata><defs
     id="defs6"><clipPath
       id="clipPath16"
       clipPathUnits="userSpaceOnUse"><path
         id="path18"
         d="M 0,256 256,256 256,0 0,0 0,256 Z" /></clipPath><clipPath
       id="clipPath24"
       clipPathUnits="userSpaceOnUse"><path
         id="path26"
         d="M 4,252 252,252 252,4 4,4 4,252 Z" /></clipPath><clipPath
       id="clipPath140"
       clipPathUnits="userSpaceOnUse"><path
         id="path142"
         d="m 205.293,148.604 -20.837,-20.649 c -0.391,-0.387 -0.391,-1.014 0,-1.402 l 0,0 20.837,-20.648 c 0.39,-0.387 1.024,-0.387 1.415,0 l 0,0 20.836,20.648 c 0.391,0.388 0.391,1.015 0,1.402 l 0,0 -20.836,20.649 c -0.196,0.194 -0.452,0.291 -0.708,0.291 l 0,0 c -0.256,0 -0.512,-0.097 -0.707,-0.291" /></clipPath><linearGradient
       id="linearGradient148"
       spreadMethod="pad"
       gradientTransform="matrix(0,-43.279766,-43.279766,0,206,148.89432)"
       gradientUnits="userSpaceOnUse"
       y2="0"
       x2="1"
       y1="0"
       x1="0"><stop
         id="stop150"
         offset="0"
         style="stop-opacity:1;stop-color:#737577" /><stop
         id="stop152"
         offset="0.502313"
         style="stop-opacity:1;stop-color:#7e8083" /><stop
         id="stop154"
         offset="1"
         style="stop-opacity:1;stop-color:#737577" /></linearGradient><clipPath
       id="clipPath162"
       clipPathUnits="userSpaceOnUse"><path
         id="path164"
         d="m 206.089,127.282 6.981,-6.92 6.982,6.92 -13.963,0 z" /></clipPath><linearGradient
       id="linearGradient170"
       spreadMethod="pad"
       gradientTransform="matrix(0,-6.9185276,6.9185276,0,213.07043,127.28133)"
       gradientUnits="userSpaceOnUse"
       y2="0"
       x2="1"
       y1="0"
       x1="0"><stop
         id="stop172"
         offset="0"
         style="stop-opacity:1;stop-color:#7e8083" /><stop
         id="stop174"
         offset="1"
         style="stop-opacity:1;stop-color:#d7d8d9" /></linearGradient><clipPath
       id="clipPath182"
       clipPathUnits="userSpaceOnUse"><path
         id="path184"
         d="m 191.948,127.228 13.963,0 -6.981,6.918 -6.982,-6.918 z" /></clipPath><linearGradient
       id="linearGradient190"
       spreadMethod="pad"
       gradientTransform="matrix(0,-6.9185276,6.9185276,0,198.92957,134.14606)"
       gradientUnits="userSpaceOnUse"
       y2="0"
       x2="1"
       y1="0"
       x1="0"><stop
         id="stop192"
         offset="0"
         style="stop-opacity:1;stop-color:#d7d8d9" /><stop
         id="stop194"
         offset="1"
         style="stop-opacity:1;stop-color:#7e8083" /></linearGradient><clipPath
       id="clipPath202"
       clipPathUnits="userSpaceOnUse"><path
         id="path204"
         d="M 0,256 256,256 256,0 0,0 0,256 Z" /></clipPath><clipPath
       id="clipPath446"
       clipPathUnits="userSpaceOnUse"><path
         id="path448"
         d="m 135.144,26.0339 0.119,0 0,-0.0738 -0.119,0 0,0.0738 z" /></clipPath><clipPath
       id="clipPath462"
       clipPathUnits="userSpaceOnUse"><path
         id="path464"
         d="m 131.758,25.4951 0.134,0 0,-0.0839 -0.134,0 0,0.0839 z" /></clipPath><clipPath
       id="clipPath494"
       clipPathUnits="userSpaceOnUse"><path
         id="path496"
         d="m 138.485,63.682 -8.367,8.318 -1.149,-1.143 8.366,-8.318 -8.366,-8.318 1.149,-1.142 8.367,8.318 8.365,-8.318 1.15,1.142 -8.366,8.318 8.366,8.318 -1.15,1.143 -8.365,-8.318 z" /></clipPath><linearGradient
       id="linearGradient502"
       spreadMethod="pad"
       gradientTransform="matrix(19.030697,0,0,-19.030697,128.9693,62.539486)"
       gradientUnits="userSpaceOnUse"
       y2="0"
       x2="1"
       y1="0"
       x1="0"><stop
         id="stop504"
         offset="0"
         style="stop-opacity:1;stop-color:#737577" /><stop
         id="stop506"
         offset="0.502313"
         style="stop-opacity:1;stop-color:#7e8083" /><stop
         id="stop508"
         offset="1"
         style="stop-opacity:1;stop-color:#737577" /></linearGradient><clipPath
       id="clipPath516"
       clipPathUnits="userSpaceOnUse"><path
         id="path518"
         d="M 0,256 256,256 256,0 0,0 0,256 Z" /></clipPath><clipPath
       id="clipPath532"
       clipPathUnits="userSpaceOnUse"><path
         id="path534"
         d="m 113.455,55.623 c -0.135,-0.059 -0.252,-0.137 -0.35,-0.237 l 0,0 c -0.099,-0.1 -0.178,-0.219 -0.239,-0.355 l 0,0 c -0.059,-0.136 -0.089,-0.281 -0.089,-0.435 l 0,0 0,-2.283 c 0,-0.078 0.027,-0.144 0.081,-0.203 l 0,0 c 0.054,-0.058 0.122,-0.086 0.204,-0.086 l 0,0 c 0.084,0 0.155,0.027 0.214,0.083 l 0,0 c 0.057,0.056 0.087,0.125 0.087,0.206 l 0,0 0,0.841 1.055,0 0,-0.841 c 0,-0.081 0.027,-0.15 0.081,-0.206 l 0,0 c 0.055,-0.056 0.126,-0.083 0.215,-0.083 l 0,0 c 0.081,0 0.149,0.027 0.206,0.083 l 0,0 c 0.056,0.056 0.084,0.125 0.084,0.206 l 0,0 0,2.271 0,0.029 c 0,0.15 -0.03,0.292 -0.09,0.427 l 0,0 c -0.06,0.134 -0.14,0.251 -0.24,0.349 l 0,0 c -0.101,0.098 -0.219,0.175 -0.354,0.234 l 0,0 c -0.136,0.057 -0.281,0.086 -0.435,0.086 l 0,0 c -0.151,0 -0.294,-0.029 -0.43,-0.086 m -0.092,-1.027 c 0,0.146 0.05,0.27 0.15,0.371 l 0,0 c 0.101,0.102 0.225,0.153 0.372,0.153 l 0,0 c 0.073,0 0.143,-0.013 0.208,-0.04 l 0,0 c 0.066,-0.027 0.123,-0.065 0.171,-0.113 l 0,0 c 0.049,-0.047 0.086,-0.103 0.113,-0.166 l 0,0 c 0.027,-0.064 0.041,-0.132 0.041,-0.205 l 0,0 0,-0.843 -1.055,0 0,0.843 z" /></clipPath><linearGradient
       id="linearGradient540"
       spreadMethod="pad"
       gradientTransform="matrix(2.2268288,0,0,-2.2268288,112.77702,53.866367)"
       gradientUnits="userSpaceOnUse"
       y2="0"
       x2="1"
       y1="0"
       x1="0"><stop
         id="stop542"
         offset="0"
         style="stop-opacity:1;stop-color:#737577" /><stop
         id="stop544"
         offset="0.502313"
         style="stop-opacity:1;stop-color:#7e8083" /><stop
         id="stop546"
         offset="1"
         style="stop-opacity:1;stop-color:#737577" /></linearGradient><clipPath
       id="clipPath554"
       clipPathUnits="userSpaceOnUse"><path
         id="path556"
         d="m 115.978,55.605 c -0.154,-0.07 -0.29,-0.162 -0.406,-0.279 l 0,0 c -0.116,-0.118 -0.206,-0.253 -0.272,-0.407 l 0,0 c -0.067,-0.154 -0.101,-0.315 -0.105,-0.485 l 0,0 0,-2.116 c 0,-0.085 0.029,-0.155 0.087,-0.211 l 0,0 c 0.058,-0.056 0.126,-0.083 0.203,-0.083 l 0,0 c 0.081,0 0.151,0.027 0.209,0.083 l 0,0 c 0.058,0.056 0.087,0.126 0.087,0.211 l 0,0 0,1.003 1.224,-1.216 c 0.031,-0.031 0.063,-0.053 0.099,-0.063 l 0,0 c 0.035,-0.012 0.069,-0.018 0.104,-0.018 l 0,0 c 0.039,0 0.076,0.006 0.112,0.018 l 0,0 c 0.037,0.01 0.072,0.032 0.102,0.063 l 0,0 c 0.027,0.027 0.047,0.058 0.059,0.095 l 0,0 c 0.011,0.037 0.017,0.074 0.017,0.113 l 0,0 c 0,0.037 -0.006,0.075 -0.017,0.112 l 0,0 c -0.012,0.036 -0.032,0.068 -0.059,0.095 l 0,0 -0.649,0.646 c 0.294,0.127 0.529,0.301 0.708,0.524 l 0,0 c 0.177,0.224 0.266,0.471 0.266,0.744 l 0,0 c 0,0.177 -0.034,0.344 -0.104,0.499 l 0,0 c -0.07,0.156 -0.162,0.291 -0.278,0.407 l 0,0 c -0.117,0.114 -0.251,0.205 -0.404,0.271 l 0,0 c -0.153,0.065 -0.312,0.098 -0.478,0.098 l 0,0 c -0.182,0 -0.351,-0.035 -0.505,-0.104 m 0.232,-1.807 c -0.085,0.035 -0.159,0.086 -0.223,0.149 l 0,0 c -0.063,0.064 -0.114,0.138 -0.151,0.222 l 0,0 c -0.037,0.085 -0.055,0.173 -0.055,0.265 l 0,0 c 0,0.096 0.018,0.186 0.055,0.269 l 0,0 c 0.037,0.082 0.087,0.154 0.148,0.216 l 0,0 c 0.062,0.061 0.135,0.111 0.22,0.147 l 0,0 c 0.086,0.037 0.178,0.054 0.279,0.054 l 0,0 c 0.092,0 0.18,-0.017 0.264,-0.054 l 0,0 c 0.083,-0.036 0.156,-0.086 0.221,-0.147 l 0,0 c 0.063,-0.062 0.113,-0.134 0.15,-0.216 l 0,0 c 0.037,-0.083 0.055,-0.173 0.055,-0.269 l 0,0 c 0,-0.1 -0.018,-0.191 -0.055,-0.274 l 0,0 c -0.037,-0.083 -0.087,-0.155 -0.15,-0.219 l 0,0 c -0.065,-0.063 -0.138,-0.112 -0.221,-0.147 l 0,0 c -0.084,-0.034 -0.172,-0.051 -0.264,-0.051 l 0,0 c -0.097,0 -0.188,0.018 -0.273,0.055" /></clipPath><linearGradient
       id="linearGradient562"
       spreadMethod="pad"
       gradientTransform="matrix(2.5515552,0,0,-2.5515552,115.19547,53.866367)"
       gradientUnits="userSpaceOnUse"
       y2="0"
       x2="1"
       y1="0"
       x1="0"><stop
         id="stop564"
         offset="0"
         style="stop-opacity:1;stop-color:#737577" /><stop
         id="stop566"
         offset="0.502313"
         style="stop-opacity:1;stop-color:#7e8083" /><stop
         id="stop568"
         offset="1"
         style="stop-opacity:1;stop-color:#737577" /></linearGradient><clipPath
       id="clipPath576"
       clipPathUnits="userSpaceOnUse"><path
         id="path578"
         d="m 120.281,55.607 c -0.139,-0.066 -0.274,-0.153 -0.405,-0.256 l 0,0 c -0.14,0.111 -0.28,0.199 -0.422,0.263 l 0,0 c -0.14,0.063 -0.279,0.095 -0.414,0.095 l 0,0 c -0.158,0 -0.307,-0.032 -0.443,-0.095 l 0,0 c -0.138,-0.064 -0.257,-0.147 -0.357,-0.251 l 0,0 c -0.101,-0.104 -0.18,-0.223 -0.238,-0.358 l 0,0 c -0.058,-0.135 -0.087,-0.275 -0.087,-0.421 l 0,0 0,-2.266 c 0,-0.085 0.029,-0.155 0.087,-0.211 l 0,0 c 0.058,-0.056 0.126,-0.083 0.203,-0.083 l 0,0 c 0.085,0 0.156,0.027 0.212,0.083 l 0,0 c 0.055,0.056 0.084,0.126 0.084,0.211 l 0,0 0,2.214 c 0,0.074 0.015,0.143 0.043,0.211 l 0,0 c 0.029,0.067 0.068,0.125 0.117,0.172 l 0,0 c 0.047,0.049 0.105,0.088 0.17,0.116 l 0,0 c 0.066,0.029 0.136,0.044 0.209,0.044 l 0,0 c 0.073,0 0.144,-0.015 0.212,-0.044 l 0,0 c 0.067,-0.028 0.125,-0.067 0.174,-0.116 l 0,0 c 0.048,-0.047 0.087,-0.105 0.116,-0.172 l 0,0 c 0.028,-0.068 0.044,-0.137 0.044,-0.211 l 0,0 0,-2.214 c 0,-0.085 0.028,-0.155 0.083,-0.211 l 0,0 c 0.056,-0.056 0.125,-0.083 0.207,-0.083 l 0,0 c 0.08,0 0.149,0.027 0.205,0.083 l 0,0 c 0.056,0.056 0.084,0.126 0.084,0.211 l 0,0 0,2.214 c 0,0.074 0.015,0.143 0.043,0.211 l 0,0 c 0.029,0.067 0.069,0.125 0.12,0.172 l 0,0 c 0.05,0.049 0.108,0.088 0.174,0.116 l 0,0 c 0.066,0.029 0.135,0.044 0.209,0.044 l 0,0 c 0.073,0 0.143,-0.015 0.209,-0.044 l 0,0 c 0.065,-0.028 0.122,-0.067 0.17,-0.116 l 0,0 c 0.049,-0.047 0.088,-0.105 0.117,-0.172 l 0,0 c 0.028,-0.068 0.043,-0.137 0.043,-0.211 l 0,0 0,-2.214 c 0,-0.085 0.028,-0.155 0.084,-0.211 l 0,0 c 0.056,-0.056 0.126,-0.083 0.212,-0.083 l 0,0 c 0.077,0 0.145,0.027 0.202,0.083 l 0,0 c 0.059,0.056 0.088,0.126 0.088,0.211 l 0,0 0,2.261 c -0.008,0.154 -0.043,0.299 -0.102,0.434 l 0,0 c -0.06,0.137 -0.14,0.258 -0.24,0.361 l 0,0 c -0.101,0.105 -0.219,0.186 -0.354,0.246 l 0,0 c -0.136,0.058 -0.279,0.089 -0.429,0.089 l 0,0 c -0.148,0 -0.291,-0.034 -0.43,-0.102" /></clipPath><linearGradient
       id="linearGradient584"
       spreadMethod="pad"
       gradientTransform="matrix(3.9207859,0,0,-3.9207859,117.91505,53.866367)"
       gradientUnits="userSpaceOnUse"
       y2="0"
       x2="1"
       y1="0"
       x1="0"><stop
         id="stop586"
         offset="0"
         style="stop-opacity:1;stop-color:#737577" /><stop
         id="stop588"
         offset="0.502313"
         style="stop-opacity:1;stop-color:#7e8083" /><stop
         id="stop590"
         offset="1"
         style="stop-opacity:1;stop-color:#737577" /></linearGradient><clipPath
       id="clipPath598"
       clipPathUnits="userSpaceOnUse"><path
         id="path600"
         d="M 0,256 256,256 256,0 0,0 0,256 Z" /></clipPath></defs><g
     transform="matrix(1.25,0,0,-1.25,0,320)"
     id="g10"><g
       id="g12"><g
         clip-path="url(#clipPath16)"
         id="g14"><g
           id="g20"><g
             id="g22" /><g
             id="g28"><g
               style="opacity:0.5"
               id="g30"
               clip-path="url(#clipPath24)"><g
                 id="g32"
                 transform="translate(252,128)"><path
                   id="path34"
                   style="fill:#ffffff;fill-opacity:1;fill-rule:nonzero;stroke:none"
                   d="m 0,0 c 0,-68.483 -55.517,-124 -124,-124 -68.483,0 -124,55.517 -124,124 0,68.483 55.517,124 124,124 C -55.517,124 0,68.483 0,0" /></g></g></g></g><g
           transform="translate(128,142.9677)"
           id="g36"><path
             id="path38"
             style="fill:#3b3b3b;fill-opacity:1;fill-rule:nonzero;stroke:none"
             d="m 0,0 c 8.266,0 14.968,-6.701 14.968,-14.968 0,-8.266 -6.702,-14.967 -14.968,-14.967 -8.266,0 -14.968,6.701 -14.968,14.967 C -14.968,-6.701 -8.266,0 0,0 m 0,101.032 c -64.065,0 -116,-51.935 -116,-116 0,-64.065 51.935,-116 116,-116 64.065,0 116,51.935 116,116 0,64.065 -51.935,116 -116,116" /></g><g
           transform="translate(128,142.9333)"
           id="g40"><path
             id="path42"
             style="fill:#c2c2c2;fill-opacity:1;fill-rule:nonzero;stroke:none"
             d="m 0,0 c 8.247,0 14.933,-6.686 14.933,-14.933 0,-8.248 -6.686,-14.934 -14.933,-14.934 -8.247,0 -14.933,6.686 -14.933,14.934 C -14.933,-6.686 -8.247,0 0,0 m 0,97.067 c -61.856,0 -112,-50.144 -112,-112 0,-61.856 50.144,-112 112,-112 61.856,0 112,50.144 112,112 0,61.856 -50.144,112 -112,112" /></g><g
           transform="translate(128,143.3333)"
           id="g44"><path
             id="path46"
             style="fill:#454545;fill-opacity:1;fill-rule:nonzero;stroke:none"
             d="m 0,0 c 8.468,0 15.333,-6.865 15.333,-15.333 0,-8.469 -6.865,-15.334 -15.333,-15.334 -8.468,0 -15.333,6.865 -15.333,15.334 C -15.333,-6.865 -8.468,0 0,0 m 0,30.667 c -25.405,0 -46,-20.595 -46,-46 0,-25.405 20.595,-46 46,-46 25.405,0 46,20.595 46,46 0,25.405 -20.595,46 -46,46" /></g><g
           transform="translate(128,140)"
           id="g48"><path
             id="path50"
             style="fill:#3b3b3b;fill-opacity:1;fill-rule:nonzero;stroke:none"
             d="m 0,0 c -6.616,0 -12,-5.384 -12,-12 0,-6.616 5.384,-12 12,-12 6.616,0 12,5.384 12,12 C 12,-5.384 6.616,0 0,0 m 0,-28 c -8.823,0 -16,7.177 -16,16 0,8.823 7.177,16 16,16 8.823,0 16,-7.177 16,-16 0,-8.823 -7.177,-16 -16,-16 m 0,60 c -24.262,0 -44,-19.739 -44,-44 0,-24.261 19.738,-44 44,-44 24.262,0 44,19.739 44,44 0,24.261 -19.738,44 -44,44 m 0,-92 c -26.467,0 -48,21.533 -48,48 0,26.467 21.533,48 48,48 26.467,0 48,-21.533 48,-48 0,-26.467 -21.533,-48 -48,-48" /></g><path
           id="path52"
           style="fill:#3b3b3b;fill-opacity:1;fill-rule:nonzero;stroke:none"
           d="m 72,111.667 -44,0 0,44.333 44,0 0,-44.333 z" /><g
           transform="translate(61.3036,124.9732)"
           id="g54"><path
             id="path56"
             style="fill:#4b5da7;fill-opacity:1;fill-rule:nonzero;stroke:none"
             d="M 0,0 C 0.273,0.286 0.563,0.556 0.777,0.895 1.09,1.392 1.027,1.734 0.535,2.067 0.03,2.409 -0.551,2.56 -1.126,2.731 -2.624,3.178 -4.023,2.897 -5.366,2.169 -5.434,2.132 -5.507,2.105 -5.577,2.073 -5.605,2.093 -5.629,2.12 -5.659,2.132 -6.065,2.286 -6.472,2.437 -6.879,2.589 -7.89,2.965 -8.901,3.34 -9.911,3.717 c -0.052,0.019 -0.109,0.036 -0.121,0.105 1.564,1.006 3.158,1.956 4.95,2.498 1.983,0.599 3.999,0.704 6.04,0.348 C 2.734,6.358 4.425,5.801 6.016,4.947 6.553,4.659 7.058,4.323 7.482,3.876 8.125,3.201 8.244,2.554 7.879,1.696 7.654,1.168 7.317,0.713 6.935,0.292 6.227,-0.488 5.413,-1.141 4.54,-1.722 4.496,-1.647 4.416,-1.637 4.344,-1.611 3.778,-1.399 3.214,-1.183 2.648,-0.974 1.766,-0.647 0.883,-0.324 0,0" /></g><g
           transform="translate(38.5066,126.4155)"
           id="g58"><path
             id="path60"
             style="fill:#eac500;fill-opacity:1;fill-rule:nonzero;stroke:none"
             d="m 0,0 c -0.176,-0.239 -0.358,-0.473 -0.482,-0.747 -0.163,-0.36 -0.102,-0.676 0.16,-0.96 0.18,-0.194 0.399,-0.336 0.63,-0.461 1.574,-0.85 3.188,-0.865 4.834,-0.238 0.21,0.08 0.42,0.163 0.629,0.244 C 6.693,-2.506 7.616,-2.849 8.537,-3.196 9.098,-3.407 9.655,-3.625 10.214,-3.84 9.265,-4.473 8.255,-4.989 7.207,-5.433 5.917,-5.98 4.582,-6.38 3.196,-6.589 2.053,-6.762 0.903,-6.753 -0.24,-6.593 c -1.9,0.266 -3.703,0.852 -5.41,1.734 -0.599,0.309 -1.166,0.668 -1.632,1.165 -0.386,0.41 -0.654,0.878 -0.606,1.468 0.032,0.396 0.184,0.757 0.376,1.099 0.516,0.921 1.268,1.627 2.073,2.281 0.247,0.201 0.492,0.404 0.764,0.57 0.756,-0.24 1.487,-0.548 2.232,-0.82 C -1.627,0.607 -0.814,0.302 0,0" /></g><g
           transform="translate(40.7324,132.7226)"
           id="g62"><path
             id="path64"
             style="fill:#4b5da7;fill-opacity:1;fill-rule:nonzero;stroke:none"
             d="M 0,0 C 1.23,0.815 2.459,1.63 3.689,2.444 4.201,2.783 4.712,3.124 5.226,3.46 6.077,4.016 7.353,3.735 7.919,2.869 8.502,1.976 8.257,0.818 7.354,0.22 6.418,-0.399 5.479,-1.014 4.54,-1.63 4.5,-1.656 4.455,-1.677 4.412,-1.7 3.269,-1.271 2.124,-0.846 0.984,-0.409 0.653,-0.282 0.299,-0.207 0,0" /></g><g
           transform="translate(58.9883,118.7374)"
           id="g66"><path
             id="path68"
             style="fill:#eac500;fill-opacity:1;fill-rule:nonzero;stroke:none"
             d="m 0,0 c -0.617,-0.411 -1.233,-0.823 -1.851,-1.231 -1.115,-0.735 -2.236,-1.46 -3.345,-2.205 -0.73,-0.49 -1.442,-0.345 -2.133,0.045 -0.645,0.363 -0.913,0.969 -0.887,1.698 0.019,0.534 0.214,1.017 0.654,1.329 1.008,0.716 2.049,1.382 3.094,2.042 0.027,-0.007 0.056,-0.01 0.081,-0.02 C -3.393,1.286 -2.4,0.914 -1.408,0.54 -0.938,0.362 -0.469,0.18 0,0" /></g><g
           transform="translate(55.6443,127.105)"
           id="g70"><path
             id="path72"
             style="fill:#1abf9f;fill-opacity:1;fill-rule:nonzero;stroke:none"
             d="m 0,0 c -0.406,0.154 -0.813,0.306 -1.22,0.457 -1.011,0.376 -2.021,0.752 -3.032,1.128 -0.051,0.02 -0.109,0.037 -0.121,0.105 -0.847,-0.561 -4.122,-2.734 -4.913,-3.259 -0.02,-0.005 -1.37,-0.921 -2.08,-1.282 0.922,-0.345 1.845,-0.688 2.766,-1.035 0.56,-0.211 1.117,-0.429 1.676,-0.643 0.65,0.398 6.08,3.979 7.006,4.47 C 0.055,-0.039 0.03,-0.012 0,0" /></g><g
           transform="translate(65.6475,123.3627)"
           id="g74"><path
             id="path76"
             style="fill:#1abf9f;fill-opacity:1;fill-rule:nonzero;stroke:none"
             d="m 0,0 c -0.566,0.211 -1.13,0.427 -1.696,0.637 -0.882,0.326 -1.765,0.649 -2.648,0.974 -0.52,-0.445 -6.199,-4.146 -6.783,-4.559 0.027,-0.006 0.055,-0.009 0.081,-0.019 0.993,-0.372 1.987,-0.744 2.979,-1.118 0.47,-0.178 0.939,-0.36 1.408,-0.54 0.575,0.352 6.295,4.107 6.855,4.513 C 0.152,-0.036 0.072,-0.027 0,0" /></g><g
           transform="translate(41.7168,132.3135)"
           id="g78"><path
             id="path80"
             style="fill:#1abf9f;fill-opacity:1;fill-rule:nonzero;stroke:none"
             d="M 0,0 C -0.331,0.127 -0.685,0.202 -0.984,0.409 -1.56,0.04 -7.252,-3.698 -7.885,-4.174 c 0.756,-0.24 1.487,-0.548 2.231,-0.82 0.816,-0.297 1.629,-0.602 2.444,-0.904 0.147,0.141 0.293,0.283 0.442,0.423 0.365,0.343 5.626,3.783 6.195,4.184 C 2.285,-0.862 1.14,-0.437 0,0" /></g><g
           transform="translate(67.1669,141.7988)"
           id="g82"><path
             id="path84"
             style="fill:#b80000;fill-opacity:1;fill-rule:nonzero;stroke:none"
             d="m 0,0 c -0.436,1.226 -1.166,2.341 -2.185,3.342 -0.556,0.546 -1.154,1.017 -1.794,1.409 -0.637,0.394 -1.278,0.732 -1.921,1.02 -0.359,0.177 -11.314,4.46 -11.314,4.46 l 0,-24.167 4.113,-1.808 0,20.735 4.859,-1.917 0,-0.028 c 1.069,-0.422 2.026,-0.978 2.867,-1.669 0.845,-0.691 1.249,-1.701 1.21,-3.022 0,-1.202 -0.38,-1.857 -1.139,-1.965 -0.757,-0.108 -1.653,0.05 -2.684,0.471 l -0.925,0.377 0,-3.679 0.896,-0.378 c 0.226,-0.094 0.45,-0.187 0.676,-0.281 0.225,-0.093 0.451,-0.187 0.677,-0.281 0.868,-0.323 1.726,-0.578 2.571,-0.763 0.849,-0.186 1.638,-0.169 2.369,0.054 0.868,0.288 1.491,0.84 1.868,1.665 0.379,0.825 0.559,1.771 0.54,2.835 C 0.665,-2.428 0.436,-1.23 0,0" /></g><g
           transform="translate(31.862,108.7416)"
           id="g86"><path
             id="path88"
             style="fill:#3b3b3b;fill-opacity:1;fill-rule:nonzero;stroke:none"
             d="m 0,0 c 0,-0.308 -0.023,-0.562 -0.069,-0.762 -0.046,-0.201 -0.107,-0.361 -0.183,-0.481 -0.077,-0.12 -0.165,-0.21 -0.266,-0.268 -0.101,-0.059 -0.204,-0.103 -0.308,-0.134 0.104,-0.037 0.207,-0.088 0.308,-0.153 0.101,-0.064 0.189,-0.157 0.266,-0.277 0.076,-0.12 0.139,-0.276 0.188,-0.467 0.049,-0.191 0.073,-0.428 0.073,-0.711 l 0,-1.489 -0.963,0 0,1.489 c 0,0.258 -0.015,0.472 -0.046,0.642 -0.031,0.169 -0.078,0.305 -0.142,0.407 -0.064,0.101 -0.142,0.174 -0.234,0.217 -0.092,0.043 -0.202,0.065 -0.33,0.065 l -0.798,0 0,0.545 0.816,0 c 0.116,0 0.219,0.022 0.308,0.065 0.088,0.043 0.163,0.114 0.224,0.212 0.061,0.099 0.107,0.23 0.138,0.393 0.03,0.163 0.046,0.368 0.046,0.615 0,0.246 -0.016,0.451 -0.046,0.614 -0.031,0.164 -0.077,0.295 -0.138,0.393 -0.061,0.099 -0.136,0.168 -0.224,0.208 -0.089,0.04 -0.192,0.06 -0.308,0.06 l -1.211,0 0,-5.925 -0.963,0 0,6.48 2.367,0 c 0.538,0 0.922,-0.136 1.151,-0.407 C -0.115,1.06 0,0.616 0,0" /></g><g
           transform="translate(34.1461,106.1446)"
           id="g90"><path
             id="path92"
             style="fill:#3b3b3b;fill-opacity:1;fill-rule:nonzero;stroke:none"
             d="m 0,0 0,0.536 0.523,0 c 0.165,0 0.298,0.012 0.399,0.037 0.101,0.025 0.179,0.063 0.234,0.116 0.055,0.052 0.093,0.121 0.115,0.208 0.021,0.086 0.032,0.194 0.032,0.323 l 0,0.499 c 0,0.136 -0.011,0.25 -0.032,0.342 C 1.249,2.154 1.211,2.227 1.156,2.283 1.101,2.338 1.023,2.377 0.922,2.398 0.821,2.42 0.688,2.431 0.523,2.431 l -0.385,0 C -0.027,2.431 -0.161,2.418 -0.261,2.394 -0.362,2.369 -0.44,2.321 -0.495,2.251 -0.55,2.18 -0.589,2.079 -0.61,1.95 -0.632,1.821 -0.642,1.654 -0.642,1.451 l 0,-2.061 c 0,-0.204 0.01,-0.37 0.032,-0.499 0.021,-0.13 0.06,-0.23 0.115,-0.301 0.055,-0.071 0.133,-0.118 0.234,-0.143 0.1,-0.025 0.234,-0.037 0.399,-0.037 l 1.734,0 0,-0.555 -2.065,0 c -0.275,0 -0.501,0.028 -0.678,0.084 -0.178,0.055 -0.32,0.146 -0.427,0.272 -0.107,0.127 -0.181,0.288 -0.22,0.485 -0.04,0.198 -0.06,0.441 -0.06,0.731 l 0,1.987 c 0,0.283 0.02,0.525 0.06,0.726 0.039,0.2 0.113,0.363 0.22,0.49 0.107,0.126 0.249,0.217 0.427,0.272 0.177,0.056 0.403,0.084 0.678,0.084 l 1.046,0 C 1.128,2.986 1.355,2.959 1.532,2.907 1.709,2.854 1.851,2.778 1.959,2.676 2.066,2.574 2.139,2.448 2.179,2.297 2.218,2.146 2.239,1.972 2.239,1.774 l 0,-0.563 C 2.239,1.014 2.218,0.839 2.179,0.689 2.139,0.537 2.066,0.411 1.959,0.31 1.851,0.208 1.709,0.131 1.532,0.079 1.355,0.026 1.128,0 0.853,0 L 0,0 Z" /></g><g
           transform="translate(39.256,108.5753)"
           id="g94"><path
             id="path96"
             style="fill:#3b3b3b;fill-opacity:1;fill-rule:nonzero;stroke:none"
             d="m 0,0 -1.275,0 0,-3.272 c 0,-0.296 0.041,-0.495 0.124,-0.596 0.082,-0.102 0.243,-0.153 0.481,-0.153 l 0.413,0 0,-0.554 -0.789,0 c -0.22,0 -0.405,0.031 -0.555,0.092 -0.15,0.061 -0.269,0.148 -0.358,0.259 -0.088,0.111 -0.152,0.242 -0.192,0.393 -0.04,0.151 -0.06,0.316 -0.06,0.494 l 0,5.241 0.936,0 0,-1.349 L 0,0.555 0,0 Z" /></g><g
           transform="translate(39.8477,108.2842)"
           id="g98"><path
             id="path100"
             style="fill:#3b3b3b;fill-opacity:1;fill-rule:nonzero;stroke:none"
             d="M 0,0 C 0.04,0.2 0.113,0.364 0.22,0.49 0.327,0.616 0.469,0.707 0.647,0.762 0.824,0.818 1.05,0.846 1.326,0.846 l 0.954,0 0,-0.555 -0.624,0 C 1.491,0.291 1.358,0.279 1.257,0.254 1.156,0.229 1.078,0.182 1.023,0.111 0.968,0.04 0.929,-0.06 0.908,-0.19 0.887,-0.319 0.876,-0.485 0.876,-0.689 l 0,-3.595 -0.936,0 0,3.558 C -0.06,-0.442 -0.04,-0.2 0,0" /></g><g
           transform="translate(43.4577,105.5345)"
           id="g102"><path
             id="path104"
             style="fill:#3b3b3b;fill-opacity:1;fill-rule:nonzero;stroke:none"
             d="M 0,0 C 0,-0.203 0.01,-0.37 0.032,-0.499 0.053,-0.629 0.092,-0.729 0.147,-0.8 0.202,-0.871 0.28,-0.918 0.381,-0.943 0.482,-0.968 0.615,-0.98 0.78,-0.98 l 0.569,0 c 0.165,0 0.298,0.012 0.399,0.037 0.101,0.025 0.179,0.072 0.233,0.143 0.056,0.071 0.094,0.171 0.115,0.301 C 2.118,-0.37 2.128,-0.203 2.128,0 l 0,2.061 c 0,0.204 -0.01,0.37 -0.032,0.499 C 2.075,2.69 2.037,2.79 1.981,2.861 1.927,2.931 1.849,2.979 1.748,3.004 1.647,3.028 1.514,3.041 1.349,3.041 l -0.569,0 C 0.615,3.041 0.482,3.028 0.381,3.004 0.28,2.979 0.202,2.931 0.147,2.861 0.092,2.79 0.053,2.69 0.032,2.56 0.01,2.431 0,2.265 0,2.061 L 0,0 Z M 1.679,3.596 C 1.954,3.596 2.18,3.568 2.358,3.512 2.535,3.457 2.677,3.366 2.784,3.24 2.891,3.113 2.965,2.95 3.005,2.75 3.044,2.549 3.064,2.307 3.064,2.024 l 0,-1.987 c 0,-0.29 -0.02,-0.533 -0.059,-0.731 C 2.965,-0.891 2.891,-1.052 2.784,-1.179 2.677,-1.305 2.535,-1.396 2.358,-1.451 2.18,-1.507 1.954,-1.535 1.679,-1.535 l -1.23,0 c -0.275,0 -0.501,0.028 -0.678,0.084 -0.178,0.055 -0.32,0.146 -0.427,0.272 -0.107,0.127 -0.181,0.288 -0.22,0.485 -0.04,0.198 -0.06,0.441 -0.06,0.731 l 0,1.987 c 0,0.283 0.02,0.525 0.06,0.726 0.039,0.2 0.113,0.363 0.22,0.49 0.107,0.126 0.249,0.217 0.427,0.272 0.177,0.056 0.403,0.084 0.678,0.084 l 1.23,0 z" /></g><g
           transform="translate(50.8335,105.9505)"
           id="g106"><path
             id="path108"
             style="fill:#3b3b3b;fill-opacity:1;fill-rule:nonzero;stroke:none"
             d="M 0,0 C 0,-0.672 -0.113,-1.165 -0.34,-1.479 -0.566,-1.793 -0.951,-1.95 -1.495,-1.95 l -2.055,0 0,0.554 1.871,0 c 0.128,0 0.243,0.015 0.344,0.046 0.101,0.031 0.183,0.093 0.248,0.185 0.064,0.093 0.113,0.221 0.146,0.384 0.034,0.163 0.051,0.377 0.051,0.642 0,0.228 -0.012,0.415 -0.037,0.559 -0.024,0.145 -0.069,0.256 -0.133,0.333 -0.064,0.077 -0.153,0.13 -0.266,0.157 -0.113,0.028 -0.261,0.042 -0.445,0.042 l -0.697,0 c -0.232,0 -0.428,0.031 -0.587,0.092 -0.159,0.062 -0.288,0.162 -0.385,0.301 -0.098,0.138 -0.169,0.32 -0.211,0.545 -0.043,0.225 -0.065,0.504 -0.065,0.836 0,0.568 0.106,1.009 0.317,1.327 0.211,0.317 0.576,0.476 1.096,0.476 l 1.789,0 0,-0.555 -1.56,0 c -0.128,0 -0.238,-0.017 -0.33,-0.05 C -2.495,3.89 -2.573,3.831 -2.638,3.748 -2.702,3.665 -2.749,3.551 -2.78,3.406 -2.81,3.261 -2.826,3.078 -2.826,2.856 -2.826,2.64 -2.816,2.463 -2.798,2.324 -2.78,2.186 -2.745,2.078 -2.693,2.001 -2.641,1.924 -2.566,1.87 -2.468,1.839 -2.37,1.808 -2.239,1.793 -2.074,1.793 l 0.652,0 c 0.244,0 0.457,-0.025 0.637,-0.074 C -0.604,1.67 -0.456,1.58 -0.34,1.451 -0.224,1.322 -0.138,1.14 -0.083,0.906 -0.028,0.671 0,0.37 0,0" /></g><g
           transform="translate(53.7138,108.5753)"
           id="g110"><path
             id="path112"
             style="fill:#3b3b3b;fill-opacity:1;fill-rule:nonzero;stroke:none"
             d="m 0,0 -1.275,0 0,-3.272 c 0,-0.296 0.041,-0.495 0.124,-0.596 0.082,-0.102 0.243,-0.153 0.481,-0.153 l 0.413,0 0,-0.554 -0.789,0 c -0.22,0 -0.405,0.031 -0.555,0.092 -0.15,0.061 -0.269,0.148 -0.358,0.259 -0.088,0.111 -0.152,0.242 -0.192,0.393 -0.04,0.151 -0.06,0.316 -0.06,0.494 l 0,5.241 0.936,0 0,-1.349 L 0,0.555 0,0 Z" /></g><g
           transform="translate(56.0897,107.0781)"
           id="g114"><path
             id="path116"
             style="fill:#3b3b3b;fill-opacity:1;fill-rule:nonzero;stroke:none"
             d="m 0,0 0,-0.536 -0.394,0 c -0.166,0 -0.298,-0.013 -0.399,-0.037 -0.101,-0.025 -0.179,-0.063 -0.234,-0.116 -0.055,-0.052 -0.094,-0.122 -0.115,-0.208 -0.022,-0.086 -0.032,-0.194 -0.032,-0.323 l 0,-0.592 c 0,-0.142 0.01,-0.257 0.032,-0.346 0.021,-0.09 0.06,-0.162 0.115,-0.217 0.055,-0.056 0.133,-0.095 0.234,-0.116 0.101,-0.022 0.233,-0.032 0.399,-0.032 l 1.036,0 0,3.041 C 0.642,0.721 0.632,0.887 0.61,1.017 0.589,1.146 0.551,1.246 0.496,1.317 0.44,1.388 0.362,1.436 0.262,1.46 0.161,1.485 0.028,1.497 -0.137,1.497 l -1.321,0 0,0.555 1.651,0 C 0.468,2.052 0.694,2.024 0.872,1.969 1.049,1.913 1.191,1.822 1.298,1.696 1.405,1.57 1.479,1.406 1.519,1.206 1.558,1.006 1.578,0.764 1.578,0.481 l 0,-3.559 -2.303,0 c -0.275,0 -0.501,0.026 -0.679,0.079 -0.177,0.052 -0.319,0.129 -0.426,0.23 -0.107,0.102 -0.181,0.228 -0.22,0.38 -0.04,0.15 -0.06,0.325 -0.06,0.522 l 0,0.656 c 0,0.197 0.02,0.371 0.06,0.522 0.039,0.151 0.113,0.278 0.22,0.379 0.107,0.102 0.249,0.179 0.426,0.231 C -1.226,-0.026 -1,0 -0.725,0 L 0,0 Z" /></g><g
           transform="translate(60.7226,108.5753)"
           id="g118"><path
             id="path120"
             style="fill:#3b3b3b;fill-opacity:1;fill-rule:nonzero;stroke:none"
             d="m 0,0 -1.275,0 0,-3.272 c 0,-0.296 0.041,-0.495 0.124,-0.596 0.082,-0.102 0.243,-0.153 0.481,-0.153 l 0.413,0 0,-0.554 -0.789,0 c -0.22,0 -0.405,0.031 -0.555,0.092 -0.15,0.061 -0.269,0.148 -0.358,0.259 -0.088,0.111 -0.152,0.242 -0.192,0.393 -0.04,0.151 -0.06,0.316 -0.06,0.494 l 0,5.241 0.936,0 0,-1.349 L 0,0.555 0,0 Z" /></g><path
           id="path122"
           style="fill:#3b3b3b;fill-opacity:1;fill-rule:nonzero;stroke:none"
           d="m 62.246,104 -0.936,0 0,5.13 0.936,0 0,-5.13 z m 0,5.786 -0.936,0 0,0.887 0.936,0 0,-0.887 z" /><g
           transform="translate(64.0437,105.5345)"
           id="g124"><path
             id="path126"
             style="fill:#3b3b3b;fill-opacity:1;fill-rule:nonzero;stroke:none"
             d="M 0,0 C 0,-0.203 0.01,-0.37 0.032,-0.499 0.053,-0.629 0.092,-0.729 0.147,-0.8 0.202,-0.871 0.28,-0.918 0.381,-0.943 0.482,-0.968 0.615,-0.98 0.78,-0.98 l 0.569,0 c 0.165,0 0.298,0.012 0.399,0.037 0.101,0.025 0.179,0.072 0.233,0.143 0.056,0.071 0.094,0.171 0.115,0.301 C 2.118,-0.37 2.128,-0.203 2.128,0 l 0,2.061 c 0,0.204 -0.01,0.37 -0.032,0.499 C 2.075,2.69 2.037,2.79 1.981,2.861 1.927,2.931 1.849,2.979 1.748,3.004 1.647,3.028 1.514,3.041 1.349,3.041 l -0.569,0 C 0.615,3.041 0.482,3.028 0.381,3.004 0.28,2.979 0.202,2.931 0.147,2.861 0.092,2.79 0.053,2.69 0.032,2.56 0.01,2.431 0,2.265 0,2.061 L 0,0 Z M 1.679,3.596 C 1.954,3.596 2.18,3.568 2.358,3.512 2.535,3.457 2.677,3.366 2.784,3.24 2.891,3.113 2.965,2.95 3.005,2.75 3.044,2.549 3.064,2.307 3.064,2.024 l 0,-1.987 c 0,-0.29 -0.02,-0.533 -0.059,-0.731 C 2.965,-0.891 2.891,-1.052 2.784,-1.179 2.677,-1.305 2.535,-1.396 2.358,-1.451 2.18,-1.507 1.954,-1.535 1.679,-1.535 l -1.23,0 c -0.275,0 -0.501,0.028 -0.678,0.084 -0.178,0.055 -0.32,0.146 -0.427,0.272 -0.107,0.127 -0.181,0.288 -0.22,0.485 -0.04,0.198 -0.06,0.441 -0.06,0.731 l 0,1.987 c 0,0.283 0.02,0.525 0.06,0.726 0.039,0.2 0.113,0.363 0.22,0.49 0.107,0.126 0.249,0.217 0.427,0.272 0.177,0.056 0.403,0.084 0.678,0.084 l 1.23,0 z" /></g><g
           transform="translate(68.8874,108.5753)"
           id="g128"><path
             id="path130"
             style="fill:#3b3b3b;fill-opacity:1;fill-rule:nonzero;stroke:none"
             d="m 0,0 0,-4.575 -0.936,0 0,5.13 2.514,0 c 0.275,0 0.501,-0.028 0.679,-0.084 0.177,-0.055 0.319,-0.146 0.426,-0.272 0.107,-0.126 0.18,-0.29 0.22,-0.49 0.04,-0.201 0.06,-0.442 0.06,-0.726 l 0,-3.558 -0.936,0 0,3.595 c 0,0.204 -0.011,0.37 -0.032,0.499 -0.021,0.13 -0.06,0.23 -0.114,0.301 C 1.825,-0.109 1.747,-0.062 1.647,-0.037 1.546,-0.012 1.413,0 1.248,0 L 0,0 Z" /></g><g
           transform="translate(58.2536,135.3574)"
           id="g132"><path
             id="path134"
             style="fill:#b80000;fill-opacity:1;fill-rule:nonzero;stroke:none"
             d="M 0,0 1.841,-11.096 6.203,-12.775 -0.004,0.179 0,0 Z" /></g></g></g><g
       id="g136"><g
         clip-path="url(#clipPath140)"
         id="g138"><g
           id="g144"><g
             id="g146"><path
               id="path156"
               style="fill:url(#linearGradient148);stroke:none"
               d="m 205.293,148.604 -20.837,-20.649 c -0.391,-0.387 -0.391,-1.014 0,-1.402 l 0,0 20.837,-20.648 c 0.39,-0.387 1.024,-0.387 1.415,0 l 0,0 20.836,20.648 c 0.391,0.388 0.391,1.015 0,1.402 l 0,0 -20.836,20.649 c -0.196,0.194 -0.452,0.291 -0.708,0.291 l 0,0 c -0.256,0 -0.512,-0.097 -0.707,-0.291" /></g></g></g></g><g
       id="g158"><g
         clip-path="url(#clipPath162)"
         id="g160"><g
           id="g166"><g
             id="g168"><path
               id="path176"
               style="fill:url(#linearGradient170);stroke:none"
               d="m 206.089,127.282 6.981,-6.92 6.982,6.92 -13.963,0 z" /></g></g></g></g><g
       id="g178"><g
         clip-path="url(#clipPath182)"
         id="g180"><g
           id="g186"><g
             id="g188"><path
               id="path196"
               style="fill:url(#linearGradient190);stroke:none"
               d="m 191.948,127.228 13.963,0 -6.981,6.918 -6.982,-6.918 z" /></g></g></g></g><g
       id="g198"><g
         clip-path="url(#clipPath202)"
         id="g200"><g
           transform="translate(184,151.4746)"
           id="g206"><path
             id="path208"
             style="fill:#404040;fill-opacity:1;fill-rule:nonzero;stroke:none"
             d="m 0,0 0.454,0 c 0.214,0 0.321,0.1 0.321,0.3 l 0,3.146 c 0,0.2 -0.101,0.3 -0.302,0.3 l -0.473,0 0,0.675 3.005,0 0,-0.675 -0.461,0 c -0.209,0 -0.314,-0.1 -0.314,-0.3 L 2.23,0 3.055,0 c 0.43,0 0.728,0.121 0.892,0.363 0.143,0.213 0.215,0.566 0.215,1.061 l 0.73,0 0,-2.098 L 0,-0.674 0,0 Z" /></g><g
           transform="translate(189.3,151.4746)"
           id="g210"><path
             id="path212"
             style="fill:#404040;fill-opacity:1;fill-rule:nonzero;stroke:none"
             d="m 0,0 0.454,0 c 0.214,0 0.321,0.1 0.321,0.3 l 0,3.206 c 0,0.16 -0.101,0.24 -0.302,0.24 l -0.473,0 0,0.675 3.005,0 0,-0.675 -0.461,0 C 2.421,3.746 2.338,3.724 2.295,3.679 2.252,3.636 2.23,3.559 2.23,3.446 L 2.23,0.3 C 2.23,0.1 2.331,0 2.533,0 l 0.472,0 0,-0.674 L 0,-0.674 0,0 Z" /></g><g
           transform="translate(194.808,151.4746)"
           id="g214"><path
             id="path216"
             style="fill:#404040;fill-opacity:1;fill-rule:nonzero;stroke:none"
             d="m 0,0 0.51,0 c 0.666,0 0.998,0.275 0.998,0.824 0,0.54 -0.334,0.809 -1.001,0.809 L 0,1.633 0,0 Z m 0,3.746 0,-1.438 0.42,0 c 0.604,0 0.907,0.242 0.907,0.726 0,0.475 -0.303,0.712 -0.907,0.712 l -0.42,0 z m -2.185,-4.42 0,0.674 0.416,0 c 0.209,0 0.314,0.1 0.314,0.3 l 0,3.146 c 0,0.2 -0.102,0.3 -0.307,0.3 l -0.446,0 0,0.675 3.316,0 C 1.66,4.421 2.077,4.314 2.359,4.102 2.641,3.892 2.782,3.598 2.782,3.218 2.782,2.893 2.675,2.627 2.461,2.42 2.249,2.215 1.977,2.08 1.644,2.015 2.191,1.871 2.559,1.696 2.748,1.491 2.937,1.286 3.032,1.02 3.032,0.693 3.032,0.226 2.881,-0.119 2.578,-0.341 2.278,-0.563 1.71,-0.674 0.873,-0.674 l -3.058,0 z" /></g><g
           transform="translate(200.4672,153.7823)"
           id="g218"><path
             id="path220"
             style="fill:#404040;fill-opacity:1;fill-rule:nonzero;stroke:none"
             d="M 0,0 0.801,0 C 1.114,0 1.329,0.056 1.448,0.169 1.569,0.281 1.629,0.468 1.629,0.73 1.629,0.998 1.55,1.183 1.391,1.285 1.235,1.387 0.958,1.439 0.559,1.439 L 0,1.439 0,0 Z m -2.23,-2.308 0.431,0 c 0.229,0 0.344,0.12 0.344,0.36 l 0,3.087 c 0,0.2 -0.111,0.3 -0.333,0.3 l -0.442,0 0,0.674 3.614,0 C 1.9,2.113 2.312,2.009 2.62,1.802 2.93,1.595 3.085,1.281 3.085,0.862 3.085,0.2 2.683,-0.185 1.879,-0.292 2.214,-0.375 2.453,-0.485 2.597,-0.622 2.741,-0.757 2.813,-0.979 2.813,-1.289 l 0,-0.726 0,-0.023 c 0,-0.172 0.085,-0.258 0.257,-0.258 0.179,0 0.268,0.157 0.268,0.472 l 0,0.296 0.522,0 0,-0.27 c 0,-0.859 -0.417,-1.289 -1.252,-1.289 -0.834,0 -1.251,0.421 -1.251,1.263 l 0,0.61 c 0,0.24 -0.049,0.39 -0.147,0.45 -0.096,0.06 -0.31,0.09 -0.643,0.09 l -0.567,0 0,-1.274 c 0,-0.135 0.024,-0.229 0.072,-0.281 0.048,-0.052 0.141,-0.079 0.28,-0.079 l 0.423,0 0,-0.674 -3.005,0 0,0.674 z" /></g><g
           transform="translate(204.686,151.4746)"
           id="g222"><path
             id="path224"
             style="fill:#404040;fill-opacity:1;fill-rule:nonzero;stroke:none"
             d="m 0,0 0.454,0 c 0.214,0 0.321,0.1 0.321,0.3 l 0,3.146 c 0,0.2 -0.101,0.3 -0.302,0.3 l -0.473,0 0,0.675 5.134,0 0,-1.978 -0.731,0 C 4.403,2.974 4.288,3.332 4.056,3.514 3.874,3.669 3.544,3.746 3.063,3.746 l -0.833,0 0,-1.491 0.22,0 c 0.25,0 0.421,0.054 0.514,0.161 0.084,0.095 0.124,0.26 0.124,0.495 l 0,0.183 0.635,0 0,-2.352 -0.635,0 0,0.195 C 3.088,1.136 3.05,1.294 2.972,1.409 2.896,1.523 2.801,1.581 2.687,1.581 L 2.23,1.581 2.23,0 3.148,0 C 3.64,0 3.973,0.102 4.144,0.307 4.318,0.512 4.403,0.884 4.403,1.424 l 0.731,0 0,-2.098 L 0,-0.674 0,0 Z" /></g><g
           transform="translate(210.3937,153.9171)"
           id="g226"><path
             id="path228"
             style="fill:#404040;fill-opacity:1;fill-rule:nonzero;stroke:none"
             d="m 0,0 0,1.978 5.085,0 0,-1.978 -0.73,0 C 4.355,0.475 4.268,0.81 4.094,1.008 3.923,1.205 3.648,1.304 3.27,1.304 l 0,-3.447 c 0,-0.2 0.101,-0.3 0.302,-0.3 l 0.473,0 0,-0.674 -3.005,0 0,0.674 0.457,0 c 0.212,0 0.318,0.1 0.318,0.3 l 0,3.447 C 1.396,1.304 1.11,1.191 0.956,0.967 0.805,0.744 0.73,0.422 0.73,0 L 0,0 Z" /></g><g
           transform="translate(218.0993,153.7823)"
           id="g230"><path
             id="path232"
             style="fill:#404040;fill-opacity:1;fill-rule:nonzero;stroke:none"
             d="M 0,0 0.801,0 C 1.114,0 1.329,0.056 1.448,0.169 1.569,0.281 1.629,0.468 1.629,0.73 1.629,0.998 1.55,1.183 1.391,1.285 1.235,1.387 0.958,1.439 0.559,1.439 L 0,1.439 0,0 Z m -2.23,-2.308 0.431,0 c 0.229,0 0.344,0.12 0.344,0.36 l 0,3.087 c 0,0.2 -0.111,0.3 -0.333,0.3 l -0.442,0 0,0.674 3.614,0 C 1.9,2.113 2.312,2.009 2.62,1.802 2.93,1.595 3.085,1.281 3.085,0.862 3.085,0.2 2.683,-0.185 1.879,-0.292 2.214,-0.375 2.453,-0.485 2.597,-0.622 2.741,-0.757 2.813,-0.979 2.813,-1.289 l 0,-0.726 0,-0.023 c 0,-0.172 0.085,-0.258 0.257,-0.258 0.179,0 0.268,0.157 0.268,0.472 l 0,0.296 0.522,0 0,-0.27 c 0,-0.859 -0.417,-1.289 -1.252,-1.289 -0.834,0 -1.251,0.421 -1.251,1.263 l 0,0.61 c 0,0.24 -0.049,0.39 -0.147,0.45 -0.096,0.06 -0.31,0.09 -0.643,0.09 l -0.567,0 0,-1.274 c 0,-0.135 0.024,-0.229 0.072,-0.281 0.048,-0.052 0.141,-0.079 0.28,-0.079 l 0.423,0 0,-0.674 -3.005,0 0,0.674 z" /></g><g
           transform="translate(224.0685,153.3477)"
           id="g234"><path
             id="path236"
             style="fill:#404040;fill-opacity:1;fill-rule:nonzero;stroke:none"
             d="m 0,0 c 0,-1.289 0.376,-1.933 1.127,-1.933 0.748,0 1.122,0.644 1.122,1.933 0,1.289 -0.371,1.933 -1.115,1.933 C 0.378,1.933 0,1.289 0,0 m -1.682,0 c 0,0.787 0.248,1.425 0.744,1.914 0.497,0.492 1.185,0.738 2.065,0.738 0.882,0 1.57,-0.243 2.064,-0.73 C 3.685,1.435 3.932,0.794 3.932,0 c 0,-0.817 -0.254,-1.464 -0.76,-1.941 -0.504,-0.474 -1.18,-0.711 -2.027,-0.711 -0.869,0 -1.558,0.239 -2.067,0.719 -0.507,0.479 -0.76,1.124 -0.76,1.933" /></g><g
           transform="translate(189.0703,99.2091)"
           id="g238"><path
             id="path240"
             style="fill:#3b3b3b;fill-opacity:1;fill-rule:nonzero;stroke:none"
             d="m 0,0 c -0.144,-0.985 -1.082,-1.364 -2.189,-1.364 -1.614,0 -2.359,1.122 -2.359,2.356 0,1.066 0.645,2.355 2.54,2.355 1.07,0 1.889,-0.533 1.945,-1.295 l -0.725,0 c -0.113,0.582 -0.644,0.787 -1.27,0.787 -1.032,0 -1.801,-0.589 -1.801,-1.847 0,-1.258 0.769,-1.847 1.801,-1.847 0.619,0 1.22,0.272 1.332,0.855 L 0,0 Z" /></g><g
           transform="translate(192.501,98.3536)"
           id="g242"><path
             id="path244"
             style="fill:#3b3b3b;fill-opacity:1;fill-rule:nonzero;stroke:none"
             d="M 0,0 C 1.095,0 1.852,0.744 1.852,1.847 1.852,2.95 1.095,3.694 0,3.694 -1.094,3.694 -1.851,2.95 -1.851,1.847 -1.851,0.744 -1.094,0 0,0 m 0,4.203 c 1.896,0 2.539,-1.29 2.539,-2.356 0,-1.066 -0.643,-2.355 -2.539,-2.355 -1.895,0 -2.539,1.289 -2.539,2.355 0,1.066 0.644,2.356 2.539,2.356" /></g><g
           transform="translate(196.8514,101.9799)"
           id="g246"><path
             id="path248"
             style="fill:#3b3b3b;fill-opacity:1;fill-rule:nonzero;stroke:none"
             d="m 0,0 -0.012,0 0,-4.017 -0.651,0 0,4.476 1.038,0 1.989,-3.93 1.99,3.93 1.038,0 0,-4.476 -0.651,0 0,4.017 -0.012,0 -2.021,-4.017 -0.688,0 L 0,0 Z" /></g><g
           transform="translate(205.7932,100.4363)"
           id="g250"><path
             id="path252"
             style="fill:#3b3b3b;fill-opacity:1;fill-rule:nonzero;stroke:none"
             d="m 0,0 c 0.751,0 1.088,0.26 1.088,0.793 0,0.484 -0.281,0.701 -1.138,0.701 l -1.414,0 L -1.464,0 0,0 Z m -2.114,2.002 2.076,0 c 1.358,0 1.814,-0.403 1.814,-1.209 0,-0.78 -0.519,-1.301 -1.614,-1.301 l -1.626,0 0,-1.965 -0.65,0 0,4.475 z" /></g><g
           transform="translate(212.2451,102.4384)"
           id="g254"><path
             id="path256"
             style="fill:#3b3b3b;fill-opacity:1;fill-rule:nonzero;stroke:none"
             d="m 0,0 0.65,0 0,-2.671 c 0,-1.277 -0.875,-1.922 -2.101,-1.922 -1.226,0 -2.102,0.645 -2.102,1.922 l 0,2.671 0.651,0 0,-2.702 c 0,-0.856 0.519,-1.383 1.451,-1.383 0.932,0 1.451,0.527 1.451,1.383 L 0,0 Z" /></g><g
           transform="translate(215.5626,101.8931)"
           id="g258"><path
             id="path260"
             style="fill:#3b3b3b;fill-opacity:1;fill-rule:nonzero;stroke:none"
             d="m 0,0 -1.914,0 0,0.545 4.479,0 0,-0.545 -1.914,0 0,-3.93 L 0,-3.93 0,0 Z" /></g><g
           transform="translate(218.8802,102.4384)"
           id="g262"><path
             id="path264"
             style="fill:#3b3b3b;fill-opacity:1;fill-rule:nonzero;stroke:none"
             d="m 0,0 3.378,0 0,-0.508 -2.727,0 0,-1.413 2.551,0 0,-0.509 -2.551,0 0,-1.537 2.802,0 0,-0.508 L 0,-4.475 0,0 Z" /></g><g
           transform="translate(224.0868,100.4673)"
           id="g266"><path
             id="path268"
             style="fill:#3b3b3b;fill-opacity:1;fill-rule:nonzero;stroke:none"
             d="M 0,0 1.483,0 C 2.171,0 2.59,0.161 2.59,0.732 2.59,1.277 2.289,1.463 1.495,1.463 L 0,1.463 0,0 Z m 0,-2.504 -0.65,0 0,4.475 2.22,0 c 1.395,0 1.708,-0.465 1.708,-1.184 0,-0.545 -0.4,-0.954 -1.033,-1.041 l 0,-0.012 c 0.607,-0.075 0.77,-0.317 0.889,-1.073 0.075,-0.477 0.131,-0.874 0.256,-1.165 l -0.688,0 C 2.583,-2.188 2.514,-1.562 2.396,-1.06 2.321,-0.738 2.108,-0.508 1.257,-0.508 l -1.257,0 0,-1.996 z" /></g><g
           transform="translate(184.3551,96.5569)"
           id="g270"><path
             id="path272"
             style="fill:#3b3b3b;fill-opacity:1;fill-rule:nonzero;stroke:none"
             d="m 0,0 3.351,0 0,-0.504 -2.705,0 0,-1.402 2.531,0 0,-0.505 -2.531,0 0,-1.525 2.78,0 0,-0.504 L 0,-4.44 0,0 Z" /></g><g
           transform="translate(189.608,96.1017)"
           id="g274"><path
             id="path276"
             style="fill:#3b3b3b;fill-opacity:1;fill-rule:nonzero;stroke:none"
             d="m 0,0 -0.012,0 0,-3.985 -0.646,0 0,4.44 1.03,0 1.974,-3.899 1.974,3.899 1.03,0 0,-4.44 -0.646,0 0,3.985 -0.012,0 -2.005,-3.985 -0.682,0 L 0,0 Z" /></g><g
           transform="translate(199.8272,96.5569)"
           id="g278"><path
             id="path280"
             style="fill:#3b3b3b;fill-opacity:1;fill-rule:nonzero;stroke:none"
             d="m 0,0 0.645,0 0,-2.651 c 0,-1.266 -0.868,-1.906 -2.085,-1.906 -1.216,0 -2.085,0.64 -2.085,1.906 l 0,2.651 0.646,0 0,-2.682 c 0,-0.848 0.515,-1.371 1.439,-1.371 0.925,0 1.44,0.523 1.44,1.371 L 0,0 Z" /></g><g
           transform="translate(201.8965,96.5569)"
           id="g282"><path
             id="path284"
             style="fill:#3b3b3b;fill-opacity:1;fill-rule:nonzero;stroke:none"
             d="m 0,0 0.645,0 0,-3.936 2.582,0 0,-0.504 L 0,-4.44 0,0 Z" /></g><g
           transform="translate(209.1595,93.7772)"
           id="g286"><path
             id="path288"
             style="fill:#3b3b3b;fill-opacity:1;fill-rule:nonzero;stroke:none"
             d="M 0,0 -1.117,2.239 -2.24,0 0,0 Z m 0.249,-0.504 -2.75,0 -0.577,-1.157 -0.72,0 2.303,4.441 0.757,0 2.302,-4.441 -0.738,0 -0.577,1.157 z" /></g><g
           transform="translate(212.3153,96.0159)"
           id="g290"><path
             id="path292"
             style="fill:#3b3b3b;fill-opacity:1;fill-rule:nonzero;stroke:none"
             d="m 0,0 -1.899,0 0,0.541 4.444,0 0,-0.541 -1.899,0 0,-3.899 L 0,-3.899 0,0 Z" /></g><path
           id="path294"
           style="fill:#3b3b3b;fill-opacity:1;fill-rule:nonzero;stroke:none"
           d="m 215.533,96.557 0.645,0 0,-4.44 -0.645,0 0,4.44 z" /><g
           transform="translate(219.7598,92.5043)"
           id="g296"><path
             id="path298"
             style="fill:#3b3b3b;fill-opacity:1;fill-rule:nonzero;stroke:none"
             d="M 0,0 C 1.086,0 1.837,0.738 1.837,1.833 1.837,2.927 1.086,3.665 0,3.665 -1.086,3.665 -1.837,2.927 -1.837,1.833 -1.837,0.738 -1.086,0 0,0 m 0,4.17 c 1.88,0 2.52,-1.28 2.52,-2.337 0,-1.058 -0.64,-2.337 -2.52,-2.337 -1.88,0 -2.52,1.279 -2.52,2.337 0,1.057 0.64,2.337 2.52,2.337" /></g><g
           transform="translate(226.9996,96.5569)"
           id="g300"><path
             id="path302"
             style="fill:#3b3b3b;fill-opacity:1;fill-rule:nonzero;stroke:none"
             d="m 0,0 0.645,0 0,-4.44 -0.881,0 -2.743,3.788 -0.013,0 0,-3.788 -0.645,0 0,4.44 0.881,0 2.743,-3.788 0.013,0 L 0,0 Z" /></g><g
           transform="translate(70.2475,77.4767)"
           id="g304"><path
             id="path306"
             style="fill:#3b3b3b;fill-opacity:1;fill-rule:nonzero;stroke:none"
             d="m 0,0 0.668,0 c 0.383,0 0.507,0.13 0.507,0.367 0,0.303 -0.219,0.359 -0.623,0.359 L 0,0.726 0,0 Z m -0.84,1.331 1.763,0 c 0.696,0 1.092,-0.272 1.092,-0.817 0,-0.397 -0.3,-0.674 -0.732,-0.756 l 0,-0.009 c 0.244,-0.017 0.472,-0.078 0.568,-0.272 0.14,-0.285 0.156,-0.942 0.276,-1.267 l -0.892,0 c -0.092,0.303 -0.08,0.753 -0.159,0.969 -0.053,0.142 -0.181,0.216 -0.516,0.216 l -0.56,0 0,-1.185 -0.84,0 0,3.121 z" /></g><g
           transform="translate(72.964,78.808)"
           id="g308"><path
             id="path310"
             style="fill:#3b3b3b;fill-opacity:1;fill-rule:nonzero;stroke:none"
             d="m 0,0 2.479,0 0,-0.64 -1.639,0 0,-0.579 1.551,0 0,-0.64 -1.551,0 0,-0.622 1.675,0 0,-0.64 L 0,-3.121 0,0 Z" /></g><g
           transform="translate(77.0356,78.1683)"
           id="g312"><path
             id="path314"
             style="fill:#3b3b3b;fill-opacity:1;fill-rule:nonzero;stroke:none"
             d="m 0,0 -1.111,0 0,0.64 3.062,0 0,-0.64 -1.111,0 0,-2.481 -0.84,0 L 0,0 Z" /></g><g
           transform="translate(80.3272,77.4767)"
           id="g316"><path
             id="path318"
             style="fill:#3b3b3b;fill-opacity:1;fill-rule:nonzero;stroke:none"
             d="m 0,0 0.668,0 c 0.383,0 0.507,0.13 0.507,0.367 0,0.303 -0.22,0.359 -0.623,0.359 L 0,0.726 0,0 Z m -0.84,1.331 1.764,0 c 0.695,0 1.091,-0.272 1.091,-0.817 0,-0.397 -0.3,-0.674 -0.732,-0.756 l 0,-0.009 c 0.244,-0.017 0.472,-0.078 0.568,-0.272 0.14,-0.285 0.156,-0.942 0.276,-1.267 l -0.892,0 c -0.091,0.303 -0.08,0.753 -0.159,0.969 -0.053,0.142 -0.18,0.216 -0.516,0.216 l -0.56,0 0,-1.185 -0.84,0 0,3.121 z" /></g><g
           transform="translate(84.571,76.2448)"
           id="g320"><path
             id="path322"
             style="fill:#3b3b3b;fill-opacity:1;fill-rule:nonzero;stroke:none"
             d="M 0,0 C 0.64,0 0.851,0.454 0.851,1.003 0.851,1.552 0.64,2.006 0,2.006 -0.64,2.006 -0.852,1.552 -0.852,1.003 -0.852,0.454 -0.64,0 0,0 m 0,2.645 c 1.207,0 1.715,-0.7 1.715,-1.642 C 1.715,0.06 1.207,-0.64 0,-0.64 c -1.207,0 -1.715,0.7 -1.715,1.643 0,0.942 0.508,1.642 1.715,1.642" /></g><g
           transform="translate(77.1988,67.0149)"
           id="g324"><path
             id="path326"
             style="fill:#3b3b3b;fill-opacity:1;fill-rule:nonzero;stroke:none"
             d="M 0,0 C 0.943,0.279 1.542,0.833 1.297,1.831 1.057,2.81 0.372,2.826 -0.587,2.541 L -1.033,2.409 -0.411,-0.122 0,0 Z M -6.576,4.015 0.743,6.186 C 3.399,6.974 5.172,6.568 5.789,4.055 6.166,2.522 5.852,1.18 4.119,0.151 L 4.128,0.114 C 5.355,0.359 6.147,-0.02 6.636,-0.966 7.192,-2.029 7.62,-3.924 8.681,-5.77 l -4.8,-1.424 C 3.345,-6.282 2.778,-4.647 2.325,-3.552 2.059,-2.918 1.687,-2.751 0.898,-2.984 L 0.333,-3.152 1.499,-7.9 -3.301,-9.323 -6.576,4.015 Z" /></g><g
           transform="translate(75.4368,55.4591)"
           id="g328"><path
             id="path330"
             style="fill:#3b3b3b;fill-opacity:1;fill-rule:nonzero;stroke:none"
             d="m 0,0 -0.356,-1.176 0.689,0 L 0.011,0 0,0 Z" /></g><path
           id="path332"
           style="fill:#3b3b3b;fill-opacity:1;fill-rule:nonzero;stroke:none"
           d="m 87.333,74.973 -18.667,0 0,4.387 18.667,0 0,-4.387 z m 0,-17.862 -18.667,0 0,17.141 18.667,0 0,-17.141 z m -0.193,-4.09 -3.151,0 0,3.121 3.101,0 0,-0.813 -1.554,0 0,-0.332 1.435,0 0,-0.813 -1.435,0 0,-0.35 1.604,0 0,-0.813 z m -3.731,0 -1.367,0 0,2.23 -0.011,0 -0.576,-2.23 -1.48,0 -0.576,2.23 -0.012,0 0,-2.23 -1.366,0 0,3.121 2.242,0 0.446,-1.859 0.012,0 0.446,1.859 2.242,0 0,-3.121 z m -7.243,0 -0.159,0.502 -1.169,0 -0.164,-0.502 -1.547,0 1.304,3.121 2.096,0 1.31,-3.121 -1.671,0 z m -3.172,0.125 c -0.632,-0.125 -1.367,-0.207 -2.033,-0.207 -1.469,0 -2.186,0.687 -2.186,1.643 0,0.955 0.717,1.642 2.231,1.642 1.254,0 1.909,-0.315 1.926,-1.046 l -1.514,0 c -0.005,0.099 -0.056,0.164 -0.124,0.203 -0.068,0.039 -0.164,0.056 -0.265,0.056 -0.243,0 -0.401,-0.095 -0.48,-0.22 -0.08,-0.125 -0.102,-0.432 -0.102,-0.696 0,-0.303 0.034,-0.51 0.107,-0.61 0.096,-0.129 0.254,-0.185 0.463,-0.185 0.153,0 0.3,0.017 0.43,0.064 l 0,0.377 -0.554,0 0,0.613 2.101,0 0,-1.634 z M 68,80 l 0,-5.027 0,-0.715 0,-17.255 0,-0.613 0,-4.39 20,0 0,4.39 0,0.613 0,17.255 0,0.715 0,5.027 -20,0 z" /><g
           transform="translate(185.9094,56.6979)"
           id="g334"><path
             id="path336"
             style="fill:#3b3b3b;fill-opacity:1;fill-rule:nonzero;stroke:none"
             d="m 0,0 -5.477,0.006 c -0.792,0 -1.435,0.601 -1.435,1.342 l 0,7.798 c 0,0.742 0.643,1.342 1.435,1.342 l 3.428,0.004 c 0.412,0 0.745,0.312 0.745,0.697 l 0.01,3.118 c 0,0.162 0.14,0.292 0.313,0.292 l 2.009,0 c 0.173,0 0.313,-0.13 0.313,-0.292 L 1.361,0.291 C 1.361,0.13 1.222,-0.001 1.049,-0.001 L 0,0 l -0.025,-0.696 1.37,0 c 0.412,0 0.746,0.312 0.746,0.697 l 0,14.604 c 0,0.385 -0.334,0.697 -0.746,0.697 l -2.636,0 c -0.412,0 -0.746,-0.312 -0.746,-0.697 l 0.004,-3.126 c 0,-0.161 -0.14,-0.292 -0.312,-0.292 l -3.132,0.005 c -1.208,0 -2.187,-0.916 -2.187,-2.046 l 0,-7.798 c 0,-1.13 0.979,-2.046 2.187,-2.046 L -0.025,-0.696 0,0 Z" /></g><g
           transform="translate(183.8726,59.5683)"
           id="g338"><path
             id="path340"
             style="fill:#3b3b3b;fill-opacity:1;fill-rule:nonzero;stroke:none"
             d="m 0,0 0,5.045 c 0,0.423 -0.366,0.766 -0.819,0.766 -0.451,0 -0.818,-0.343 -0.818,-0.766 l 0,-5.446 c 0,-0.423 0.367,-0.765 0.818,-0.765 0.453,0 0.819,0.342 0.819,0.765 L 0,0 l 0.744,-0.024 0,-0.377 c 0,-0.807 -0.7,-1.461 -1.563,-1.461 -0.862,0 -1.562,0.654 -1.562,1.461 l 0,5.446 c 0,0.807 0.7,1.461 1.562,1.461 0.863,0 1.563,-0.654 1.563,-1.461 l 0,-5.069 L 0,0 Z" /></g><g
           transform="translate(175.1091,63.2976)"
           id="g342"><path
             id="path344"
             style="fill:#3b3b3b;fill-opacity:1;fill-rule:nonzero;stroke:none"
             d="M 0,0 0.948,0 C 1.121,0 1.261,0.131 1.261,0.292 L 1.257,2.547 c 0,0.741 -0.643,1.342 -1.435,1.342 l -4.744,0 c -0.792,0 -1.435,-0.601 -1.435,-1.342 l 0,-7.799 c 0,-0.741 0.643,-1.342 1.435,-1.342 l 4.744,0 c 0.792,0 1.435,0.601 1.435,1.342 l 0.004,2.144 c 0,0.161 -0.14,0.292 -0.313,0.292 l -1.789,0 c -0.173,0 -0.313,-0.131 -0.313,-0.292 l 0.01,-1.022 c 0,-0.807 -0.543,-1.462 -1.406,-1.462 -0.863,0 -1.406,0.655 -1.406,1.462 l 0,5.446 c 0,0.807 0.543,1.461 1.406,1.461 0.863,0 1.406,-0.654 1.406,-1.461 L -1.154,0.292 C -1.154,0.131 -1.014,0 -0.841,0 L 0,0 l -0.026,-0.703 -1.125,0 c -0.412,0 -0.746,0.312 -0.746,0.698 l 0.009,1.321 c 0,0.422 -0.21,0.765 -0.662,0.765 -0.452,0 -0.662,-0.343 -0.662,-0.765 l 0,-5.446 c 0,-0.423 0.21,-0.766 0.662,-0.766 0.452,0 0.662,0.343 0.662,0.766 l -0.009,1.32 c 0,0.385 0.334,0.697 0.746,0.697 l 2.416,0 c 0.412,0 0.746,-0.312 0.746,-0.697 L 2.009,-5.252 c 0,-1.129 -0.979,-2.046 -2.187,-2.046 l -4.744,0 c -1.208,0 -2.187,0.917 -2.187,2.046 l 0,7.799 c 0,1.13 0.979,2.046 2.187,2.046 l 4.744,0 c 1.208,0 2.187,-0.916 2.187,-2.046 l 0.002,-2.552 c 0,-0.385 -0.334,-0.698 -0.746,-0.698 l -1.291,0 L 0,0 Z" /></g><g
           transform="translate(119.4204,24.7149)"
           id="g346"><path
             id="path348"
             style="fill:#3b3b3b;fill-opacity:1;fill-rule:nonzero;stroke:none"
             d="m 0,0 c -0.191,-0.113 -0.424,-0.125 -0.638,-0.087 0.146,-0.358 0.206,-0.741 0.299,-1.114 0.106,-0.366 0.236,-0.81 0.626,-0.962 0.257,-0.119 0.551,-0.004 0.743,0.182 0.301,0.291 0.486,0.675 0.665,1.047 0.061,0.133 0.121,0.265 0.183,0.396 C 1.602,-0.539 1.332,-0.453 1.096,-0.315 0.865,-0.173 0.812,0.17 0.527,0.239 0.324,0.241 0.17,0.088 0,0 M 14.856,2.592 C 14.105,2.426 13.341,2.18 12.563,2.303 12.631,1.789 12.553,1.263 12.367,0.78 12.269,0.723 12.448,0.649 12.472,0.737 l 0.06,-0.034 c 0.064,-0.181 0.264,-0.248 0.438,-0.266 0.448,-0.044 0.895,0.054 1.319,0.187 -0.102,0.095 -0.238,0.186 -0.258,0.336 0.014,0.065 0.045,0.123 0.073,0.182 0.308,-0.012 0.613,-0.063 0.919,-0.098 0.417,0.311 0.679,0.843 0.64,1.366 -0.005,0.14 -0.1,0.282 -0.247,0.301 -0.192,0.028 -0.386,-0.044 -0.56,-0.119 m 2.371,0.837 -0.01,-0.018 C 16.824,3.292 16.448,3.124 16.059,2.994 c 0.089,-0.57 -0.026,-1.17 -0.303,-1.675 -0.12,-0.076 0.13,-0.118 0.08,-10e-4 0.028,0.002 0.083,0.003 0.11,0.004 0.007,-0.104 0.13,-0.13 0.214,-0.124 0.334,0.027 0.648,0.164 0.939,0.324 -0.094,0.078 -0.207,0.146 -0.267,0.256 -0.041,0.077 0.011,0.158 0.03,0.233 0.239,-0.007 0.476,-0.032 0.712,-0.071 0.243,0.289 0.425,0.671 0.353,1.056 -0.04,0.187 -0.105,0.398 -0.278,0.503 -0.141,0.077 -0.289,-0.022 -0.422,-0.07 m 2.182,0.95 C 19.025,4.205 18.643,4.027 18.258,3.855 c 0.15,-0.62 0.021,-1.279 -0.297,-1.826 0.08,0.049 0.194,0.067 0.257,0.14 0.13,-0.084 0.291,-0.074 0.436,-0.035 0.283,0.077 0.553,0.202 0.797,0.365 -0.14,0.103 -0.32,0.274 -0.164,0.449 0.178,-0.02 0.357,-0.036 0.534,-0.062 0.222,0.3 0.44,0.675 0.352,1.061 -0.104,0.245 -0.304,0.458 -0.564,0.532 -0.067,-0.033 -0.133,-0.067 -0.2,-0.1 M 7.273,5.215 C 6.935,5.164 6.594,5.077 6.293,4.909 5.943,4.658 5.678,4.245 5.696,3.803 5.713,3.374 5.952,2.993 6.226,2.679 6.733,2.124 7.402,1.685 8.151,1.556 8.716,1.469 9.322,1.483 9.841,1.746 10.322,1.978 10.769,2.372 10.9,2.908 11.022,3.382 10.983,3.961 10.604,4.312 10.149,4.736 9.561,5.004 8.955,5.126 8.404,5.244 7.833,5.294 7.273,5.215 M 21.386,5.443 C 21.06,5.247 20.728,5.061 20.392,4.881 20.548,4.279 20.436,3.635 20.191,3.072 c 0.1,0.068 0.196,0.143 0.286,0.223 0.16,-0.168 0.391,-0.025 0.552,0.067 0.74,0.458 0.929,1.486 0.663,2.266 C 21.591,5.565 21.489,5.504 21.386,5.443 M -5.844,6.184 C -6.237,5.956 -6.583,5.594 -6.673,5.136 -6.777,4.59 -6.562,4.004 -6.162,3.625 -5.907,3.376 -5.569,3.23 -5.222,3.165 l 0.003,-0.009 c 0.21,-0.014 0.429,-0.082 0.637,-0.026 0.727,0.021 1.439,0.294 2.02,0.726 0.433,0.332 0.812,0.818 0.815,1.387 C -1.73,5.524 -1.898,5.77 -2.077,5.971 -2.463,6.374 -3.023,6.556 -3.565,6.62 -4.343,6.701 -5.161,6.579 -5.844,6.184 M 22.885,6.505 C 22.725,6.374 22.567,6.24 22.398,6.121 c 0.222,-0.39 0.134,-0.859 0.07,-1.28 0.064,0.076 0.127,0.153 0.192,0.228 0.005,-0.04 0.016,-0.122 0.022,-0.162 0.114,0.039 0.226,0.105 0.272,0.222 0.136,0.299 0.204,0.631 0.197,0.96 0.005,0.204 -0.07,0.401 -0.049,0.605 C 23.029,6.632 22.956,6.57 22.885,6.505 M 0.585,8.057 C 0.601,7.883 0.606,7.708 0.606,7.533 0.58,7.393 0.508,7.272 0.408,7.174 0.386,7.287 0.354,7.397 0.312,7.505 0.249,7.67 0.19,7.836 0.128,8.003 -1.125,7.838 -2.354,7.482 -3.497,6.943 -3.516,6.967 -3.553,7.016 -3.572,7.041 -3.659,6.991 -3.745,6.942 -3.832,6.893 -3.493,6.886 -3.156,6.836 -2.828,6.751 -2.552,6.67 -2.283,6.563 -2.04,6.409 l 0.008,0.004 C -1.895,6.31 -1.764,6.199 -1.646,6.075 -1.335,5.708 -1.286,5.178 -1.469,4.742 -1.802,3.922 -2.492,3.254 -3.323,2.947 -3.651,2.832 -3.995,2.763 -4.343,2.748 -4.736,2.733 -5.129,2.788 -5.502,2.91 -5.772,3.008 -6.024,3.149 -6.252,3.325 -6.218,2.94 -6.111,2.563 -5.939,2.217 -6.095,2.144 -6.301,1.964 -6.163,1.781 -5.978,1.586 -5.694,1.535 -5.44,1.486 c 0.675,-0.834 1.582,-1.449 2.532,-1.931 0.78,-0.395 1.601,-0.708 2.45,-0.923 -0.073,0.226 -0.126,0.457 -0.172,0.69 -0.041,0.207 -0.063,0.42 -0.12,0.624 -0.188,0.149 -0.333,0.344 -0.377,0.585 -0.007,0.162 0.015,0.326 0.1,0.466 C -1.046,0.82 -1.065,0.64 -1.02,0.465 c 0.108,-0.239 0.337,-0.419 0.6,-0.449 0.154,-0.017 0.295,0.06 0.427,0.125 0.164,0.093 0.332,0.2 0.525,0.213 0.214,-0.012 0.309,-0.233 0.417,-0.385 l 0.005,0 C 1.167,-0.272 1.489,-0.449 1.818,-0.402 1.99,-0.38 2.132,-0.273 2.254,-0.158 2.361,-0.025 2.447,0.123 2.512,0.28 2.52,0.281 2.537,0.284 2.546,0.285 2.538,-0.062 2.293,-0.356 1.989,-0.499 1.96,-0.649 1.912,-0.793 1.867,-0.938 1.747,-1.175 1.621,-1.41 1.466,-1.627 1.397,-1.678 1.492,-1.688 1.525,-1.693 2.039,-1.74 2.556,-1.762 3.073,-1.777 c 1.295,-0.039 2.601,-0.02 3.878,0.227 0.89,0.174 1.766,0.441 2.592,0.818 0.646,0.306 1.272,0.7 1.73,1.259 0.41,0.521 0.594,1.233 0.413,1.879 -0.147,0.493 -0.378,0.958 -0.647,1.396 0.082,-0.307 0.157,-0.624 0.11,-0.943 -0.017,-0.2 -0.101,-0.382 -0.171,-0.567 l 10e-4,-0.038 -0.023,0 C 10.734,1.895 10.404,1.611 10.023,1.433 8.733,0.836 7.079,1.168 6.122,2.222 5.71,2.685 5.329,3.252 5.337,3.896 5.348,4.416 5.716,4.851 6.153,5.093 6.887,5.504 7.759,5.604 8.586,5.53 8.948,5.481 9.312,5.408 9.644,5.25 9.758,5.195 9.876,5.147 9.997,5.107 9.67,5.477 9.288,5.792 8.901,6.097 8.795,6.178 8.682,6.247 8.567,6.313 6.95,7.248 5.133,7.824 3.279,8.034 3.223,7.88 3.166,7.726 3.11,7.572 3.055,7.422 3.003,7.27 2.956,7.117 2.826,7.242 2.784,7.418 2.765,7.59 2.772,7.754 2.784,7.916 2.8,8.078 2.063,8.133 1.321,8.124 0.585,8.057 M -1.68,8.927 C -1.77,8.735 -1.447,8.806 -1.338,8.815 -0.966,8.828 -0.599,8.887 -0.229,8.924 -0.254,8.978 -0.281,9.029 -0.31,9.08 -0.33,9.139 -0.351,9.198 -0.371,9.257 -0.382,9.281 -0.406,9.331 -0.417,9.355 -0.842,9.23 -1.279,9.12 -1.68,8.927 m 0.507,0.405 C -0.951,9.408 -0.73,9.489 -0.508,9.566 -0.532,9.621 -0.556,9.676 -0.579,9.73 -0.78,9.602 -0.983,9.477 -1.173,9.332 M 3.974,9.816 C 3.964,9.783 3.944,9.717 3.934,9.684 L 3.925,9.685 C 3.905,9.638 3.885,9.592 3.865,9.545 3.842,9.488 3.821,9.431 3.799,9.374 3.782,9.334 3.765,9.293 3.748,9.251 3.717,9.174 3.687,9.096 3.657,9.018 5.249,8.88 6.836,8.519 8.276,7.812 c 1.798,-0.86 3.315,-2.26 4.384,-3.936 0.063,-0.09 0.181,-0.272 0.298,-0.15 0.148,0.318 0.095,0.687 0.064,1.024 C 12.94,5.476 12.46,6.069 11.966,6.572 11.201,7.318 10.294,7.901 9.344,8.38 7.672,9.206 5.836,9.701 3.974,9.816 M 0.161,9.515 C 0.167,9.488 0.179,9.436 0.185,9.41 L 0.197,9.412 C 0.222,9.34 0.248,9.267 0.274,9.194 0.297,9.122 0.32,9.051 0.343,8.979 c 0.892,0.08 1.789,0.11 2.683,0.072 0.031,0.099 0.061,0.198 0.091,0.297 0.032,0.1 0.065,0.199 0.098,0.298 l 0.007,0 C 3.244,9.715 3.266,9.783 3.289,9.851 2.238,9.851 1.187,9.746 0.161,9.515 m -0.232,0.545 c 0.021,-0.049 0.042,-0.098 0.064,-0.146 0.023,-0.06 0.048,-0.119 0.072,-0.178 1.096,0.303 2.229,0.47 3.367,0.489 0.049,0.119 0.098,0.239 0.147,0.359 0.069,0.162 0.139,0.324 0.208,0.486 0.115,0.256 0.242,0.507 0.354,0.764 0.117,0.192 0.201,0.406 0.314,0.602 C 2.88,11.78 1.37,10.972 -0.071,10.06 m 13.198,2.75 C 11.913,12.557 10.721,12.169 9.621,11.592 9.088,11.3 8.555,10.974 8.161,10.502 8.001,10.307 7.865,10.055 7.922,9.795 7.985,9.552 8.207,9.392 8.43,9.304 c 1.057,-0.417 2.062,-0.97 2.967,-1.657 0.68,-0.523 1.317,-1.119 1.796,-1.835 0.264,-0.408 0.511,-0.868 0.495,-1.368 0,-0.203 -0.111,-0.376 -0.194,-0.553 0.387,0.069 0.753,0.217 1.121,0.348 1.383,0.519 2.741,1.099 4.086,1.707 0.942,0.434 1.884,0.871 2.778,1.399 0.217,0.124 0.429,0.276 0.553,0.499 0.204,0.339 0.203,0.759 0.126,1.137 -0.175,0.749 -0.631,1.397 -1.144,1.956 -0.626,0.67 -1.372,1.224 -2.175,1.664 -0.498,0.2 -1.03,0.308 -1.56,0.389 -1.38,0.199 -2.789,0.096 -4.152,-0.18 M 5.733,12.929 C 5.619,12.884 5.493,12.86 5.391,12.79 5.296,12.64 5.222,12.479 5.141,12.322 4.919,11.907 4.721,11.48 4.521,11.054 4.456,10.915 4.393,10.775 4.332,10.633 l -0.008,0 c -0.056,-0.14 -0.116,-0.279 -0.176,-0.418 0.385,-0.021 0.773,-0.058 1.156,0.002 0.293,0.04 0.575,0.137 0.847,0.249 2.013,0.856 4.031,1.713 6.123,2.357 1.303,0.4 2.639,0.714 4.001,0.819 -0.126,0.036 -0.251,0.081 -0.381,0.098 -0.599,0.16 -1.213,0.258 -1.828,0.326 -2.819,0.295 -5.674,-0.196 -8.333,-1.137 m -16.349,2.912 c -0.26,-0.138 -0.463,-0.378 -0.55,-0.661 -0.069,-0.187 -0.082,-0.394 -0.042,-0.59 0.021,-0.09 0.047,-0.181 0.092,-0.262 0.206,-0.509 0.814,-0.787 1.34,-0.666 0.477,0.09 0.875,0.501 0.935,0.984 0.057,0.374 -0.083,0.771 -0.364,1.024 -0.369,0.352 -0.968,0.418 -1.411,0.171 m 24.275,1.164 c -0.246,-0.622 -0.106,-1.41 0.422,-1.845 0.284,-0.238 0.682,-0.339 1.043,-0.245 0.442,0.109 0.798,0.472 0.944,0.897 0.039,0.101 0.068,0.206 0.082,0.314 0.046,0.246 0.037,0.506 -0.041,0.744 -0.122,0.567 -0.648,1.051 -1.243,1.036 C 14.32,17.91 13.845,17.5 13.659,17.005 M 8.558,16.981 C 7.345,15.939 6.42,14.608 5.632,13.228 c 2.756,0.943 5.69,1.423 8.605,1.234 -0.548,0.235 -1.01,0.683 -1.217,1.246 -0.154,0.409 -0.139,0.885 0.074,1.271 0.235,0.435 0.65,0.745 1.089,0.954 0.034,0.009 0.128,0.067 0.043,0.085 -0.742,0.3 -1.546,0.465 -2.349,0.416 -1.238,-0.065 -2.391,-0.658 -3.319,-1.453 m 4.048,2.304 0.849,0 c 0.825,-0.061 1.713,-0.229 2.338,-0.815 0.474,-0.432 0.659,-1.101 0.619,-1.727 -0.041,-0.652 -0.162,-1.337 -0.564,-1.87 -0.177,-0.243 -0.444,-0.397 -0.724,-0.494 1.773,-0.196 3.53,-0.657 5.125,-1.465 0.862,-0.44 1.676,-0.989 2.354,-1.681 0.569,-0.592 1.051,-1.304 1.219,-2.119 0.1,-0.463 0.07,-0.949 -0.075,-1.399 C 24.042,6.992 23.979,6.172 23.74,5.442 23.527,4.788 23.121,4.181 22.539,3.803 22.373,3.692 22.168,3.701 21.979,3.722 21.705,3.312 21.373,2.94 20.991,2.627 21.78,2.385 22.543,2.03 23.198,1.522 c 0.509,-0.395 0.95,-0.901 1.186,-1.507 0.11,-0.278 0.162,-0.575 0.196,-0.871 l 0,-0.353 c -0.025,-0.174 -0.057,-0.358 -0.172,-0.497 -0.131,-0.161 -0.401,-0.198 -0.557,-0.055 -0.074,0.076 -0.049,0.191 -0.053,0.285 0.041,0.363 -0.124,0.701 -0.228,1.038 -0.222,0.663 -0.62,1.28 -1.201,1.681 C 21.809,1.675 21.1,1.812 20.454,2.067 20.203,2.184 19.916,2.153 19.662,2.26 19.447,2.015 19.204,1.797 18.939,1.609 c 0.87,-0.303 1.715,-0.721 2.406,-1.341 0.599,-0.529 1.064,-1.244 1.172,-2.048 0.043,-0.371 0.088,-0.782 -0.102,-1.121 -0.127,-0.232 -0.521,-0.303 -0.675,-0.066 -0.07,0.211 0.024,0.441 -0.042,0.655 -0.174,0.594 -0.362,1.197 -0.719,1.71 -0.33,0.482 -0.8,0.854 -1.315,1.12 -0.388,0.179 -0.8,0.3 -1.202,0.444 -0.229,0.076 -0.456,0.197 -0.705,0.167 -0.156,-0.014 -0.302,0.048 -0.441,0.11 -0.244,-0.221 -0.52,-0.399 -0.802,-0.566 0.171,-0.094 0.364,-0.142 0.543,-0.22 0.805,-0.335 1.578,-0.772 2.22,-1.368 0.596,-0.548 1.072,-1.257 1.233,-2.061 0.084,-0.442 0.142,-0.915 -0.005,-1.35 -0.061,-0.192 -0.219,-0.343 -0.415,-0.389 l -0.173,0 c -0.11,0.035 -0.241,0.079 -0.27,0.204 -0.053,0.232 0.042,0.475 -0.03,0.705 -0.216,0.736 -0.453,1.49 -0.929,2.106 -0.386,0.503 -0.909,0.893 -1.476,1.17 -0.787,0.326 -1.614,0.547 -2.397,0.887 -0.68,-0.424 -1.505,-0.475 -2.285,-0.468 -0.206,-0.006 -0.41,0.038 -0.602,0.109 C 11.382,-0.651 10.656,-1.128 9.893,-1.487 9.175,-1.814 8.421,-2.06 7.655,-2.247 6.448,-2.534 5.205,-2.62 3.968,-2.624 c -1.264,0.027 -2.534,0.053 -3.781,0.278 -1.501,0.255 -2.938,0.822 -4.248,1.589 -0.104,-0.344 -0.181,-0.695 -0.255,-1.047 -0.051,-0.236 0.016,-0.48 -0.027,-0.717 -0.033,-0.195 -0.294,-0.263 -0.436,-0.138 -0.191,0.165 -0.219,0.439 -0.246,0.674 -0.035,0.583 0.05,1.17 0.222,1.727 C -5.171,0.021 -5.522,0.324 -5.829,0.67 -6.151,0.356 -6.412,-0.019 -6.595,-0.43 -6.848,-0.997 -6.986,-1.606 -7.116,-2.211 -7.171,-2.46 -7.1,-2.716 -7.15,-2.964 -7.195,-3.17 -7.49,-3.205 -7.618,-3.056 c -0.174,0.197 -0.197,0.477 -0.215,0.727 -0.022,0.762 0.122,1.536 0.469,2.218 0.259,0.519 0.626,0.979 1.049,1.373 -0.537,0.707 -0.82,1.6 -0.766,2.487 0.012,0.287 0.076,0.568 0.132,0.848 0.165,0.387 0.265,0.799 0.468,1.169 0.183,0.227 0.314,0.516 0.575,0.664 0.301,0.095 0.48,0.378 0.727,0.556 0.299,0.212 0.593,0.432 0.912,0.614 0.196,0.116 0.409,0.208 0.588,0.352 0.942,0.76 1.921,1.476 2.938,2.132 -0.427,0.91 -0.9,1.8 -1.461,2.635 -0.605,0.898 -1.31,1.744 -2.174,2.405 -0.783,0.605 -1.716,1.034 -2.703,1.149 -0.794,0.1 -1.603,-0.007 -2.364,-0.242 0.399,-0.183 0.805,-0.42 1.036,-0.808 0.204,-0.337 0.175,-0.781 -0.032,-1.11 -0.296,-0.482 -0.83,-0.8 -1.387,-0.874 -0.409,-0.058 -0.852,0.073 -1.13,0.386 -0.309,0.341 -0.417,0.808 -0.464,1.253 l 0,0.518 c 0.063,0.418 0.276,0.817 0.627,1.061 0.608,0.437 1.385,0.524 2.113,0.549 0.898,0.001 1.8,-0.116 2.66,-0.377 1.201,-0.393 2.2,-1.222 3.057,-2.128 1.12,-1.207 2.017,-2.61 2.732,-4.089 1.565,0.97 3.21,1.814 4.929,2.474 0.982,1.73 2.136,3.4 3.646,4.713 0.626,0.534 1.32,1.007 2.099,1.287 0.696,0.241 1.431,0.344 2.163,0.399" /></g><g
           transform="translate(142.5227,31.409)"
           id="g350"><path
             id="path352"
             style="fill:#969696;fill-opacity:1;fill-rule:nonzero;stroke:none"
             d="m 0,0 c -0.073,-0.062 -0.146,-0.124 -0.217,-0.189 -0.16,-0.131 -0.318,-0.265 -0.488,-0.384 0.223,-0.39 0.135,-0.859 0.071,-1.28 0.064,0.076 0.127,0.153 0.191,0.228 0.006,-0.041 0.017,-0.122 0.023,-0.163 0.113,0.04 0.225,0.106 0.272,0.223 0.136,0.299 0.204,0.631 0.196,0.96 C 0.054,-0.401 -0.021,-0.204 0,0" /></g><g
           transform="translate(140.8068,30.1582)"
           id="g354"><path
             id="path356"
             style="fill:#969696;fill-opacity:1;fill-rule:nonzero;stroke:none"
             d="m 0,0 c -0.326,-0.196 -0.659,-0.382 -0.994,-0.562 0.156,-0.602 0.043,-1.246 -0.202,-1.809 0.101,0.068 0.197,0.142 0.287,0.223 0.16,-0.168 0.391,-0.025 0.552,0.067 0.74,0.458 0.929,1.485 0.662,2.266 C 0.205,0.121 0.103,0.06 0,0" /></g><g
           transform="translate(139.2418,27.6008)"
           id="g358"><path
             id="path360"
             style="fill:#969696;fill-opacity:1;fill-rule:nonzero;stroke:none"
             d="M 0,0 C 0.222,0.3 0.44,0.675 0.352,1.061 0.248,1.306 0.048,1.519 -0.213,1.593 -0.28,1.56 -0.346,1.526 -0.413,1.493 -0.797,1.319 -1.179,1.141 -1.563,0.969 c 0.149,-0.62 0.021,-1.279 -0.298,-1.826 0.081,0.049 0.194,0.067 0.257,0.14 0.131,-0.084 0.291,-0.074 0.436,-0.035 0.284,0.077 0.554,0.202 0.798,0.365 -0.141,0.103 -0.321,0.274 -0.164,0.449 C -0.357,0.042 -0.178,0.026 0,0" /></g><g
           transform="translate(137.0694,28.2138)"
           id="g362"><path
             id="path364"
             style="fill:#969696;fill-opacity:1;fill-rule:nonzero;stroke:none"
             d="m 0,0 c -0.141,0.077 -0.289,-0.022 -0.422,-0.07 l -0.01,-0.018 c -0.393,-0.119 -0.769,-0.287 -1.158,-0.417 0.089,-0.57 -0.026,-1.17 -0.303,-1.675 0.02,0 0.06,0 0.08,0 0.028,0.001 0.083,0.002 0.11,0.003 0.007,-0.104 0.13,-0.13 0.214,-0.124 0.334,0.027 0.649,0.164 0.939,0.324 -0.094,0.078 -0.207,0.146 -0.267,0.256 -0.041,0.077 0.011,0.158 0.03,0.233 0.239,-0.007 0.476,-0.032 0.712,-0.071 0.243,0.289 0.426,0.671 0.353,1.056 C 0.238,-0.316 0.173,-0.105 0,0" /></g><g
           transform="translate(134.8367,27.4261)"
           id="g366"><path
             id="path368"
             style="fill:#969696;fill-opacity:1;fill-rule:nonzero;stroke:none"
             d="m 0,0 c -0.193,0.028 -0.386,-0.044 -0.561,-0.119 -0.751,-0.166 -1.514,-0.412 -2.292,-0.289 0.068,-0.515 -0.011,-1.04 -0.196,-1.523 0.026,-0.011 0.078,-0.032 0.104,-0.043 l 0.061,-0.034 c 0.063,-0.181 0.264,-0.248 0.438,-0.267 0.447,-0.043 0.894,0.055 1.319,0.188 -0.102,0.095 -0.238,0.186 -0.259,0.336 0.015,0.065 0.046,0.123 0.074,0.182 0.308,-0.012 0.613,-0.063 0.919,-0.099 0.416,0.312 0.679,0.843 0.639,1.367 C 0.241,-0.161 0.146,-0.019 0,0" /></g><g
           transform="translate(114.108,30.8707)"
           id="g370"><path
             id="path372"
             style="fill:#ffffff;fill-opacity:1;fill-rule:nonzero;stroke:none"
             d="M 0,0 C 0.655,0.306 1.435,0.252 2.086,-0.037 2.498,-0.22 2.892,-0.516 3.051,-0.953 2.777,-0.766 2.519,-0.553 2.22,-0.403 1.641,-0.092 0.942,0.04 0.306,-0.171 0.612,-0.187 0.921,-0.345 1.026,-0.647 1.057,-0.769 1.072,-0.895 1.077,-1.021 1.015,-1.298 0.812,-1.524 0.543,-1.615 0.336,-1.635 0.11,-1.626 -0.063,-1.494 c -0.178,0.116 -0.268,0.32 -0.308,0.522 -0.001,0.207 0.079,0.4 0.184,0.574 C -0.54,-0.622 -0.817,-0.937 -1.058,-1.275 -0.891,-0.734 -0.519,-0.243 0,0" /></g><g
           transform="translate(127.0138,29.7489)"
           id="g374"><path
             id="path376"
             style="fill:#ffffff;fill-opacity:1;fill-rule:nonzero;stroke:none"
             d="M 0,0 C 0.782,0.149 1.599,-0.092 2.247,-0.533 2.641,-0.807 3.01,-1.187 3.089,-1.679 2.611,-1.133 2.048,-0.63 1.353,-0.385 1.026,-0.268 0.677,-0.222 0.331,-0.233 0.561,-0.415 0.7,-0.729 0.575,-1.014 0.552,-1.066 0.526,-1.117 0.499,-1.167 0.344,-1.361 0.089,-1.42 -0.149,-1.393 c -0.137,0.028 -0.248,0.119 -0.345,0.213 -0.176,0.212 -0.153,0.506 -0.057,0.747 -0.312,-0.14 -0.588,-0.342 -0.851,-0.557 0.297,0.51 0.82,0.883 1.402,0.99" /></g><g
           transform="translate(133.5013,39.8752)"
           id="g378"><path
             id="path380"
             style="fill:#b6b6b6;fill-opacity:1;fill-rule:nonzero;stroke:none"
             d="m 0,0 c 0.284,-0.238 0.683,-0.34 1.044,-0.245 0.441,0.109 0.797,0.472 0.943,0.897 0.04,0.1 0.068,0.206 0.082,0.313 C 2.115,1.212 2.106,1.471 2.028,1.71 1.907,2.277 1.38,2.76 0.785,2.746 0.239,2.75 -0.236,2.339 -0.422,1.844 -0.668,1.223 -0.528,0.434 0,0" /></g><g
           transform="translate(110.2153,40.3851)"
           id="g382"><path
             id="path384"
             style="fill:#b6b6b6;fill-opacity:1;fill-rule:nonzero;stroke:none"
             d="m 0,0 c -0.369,0.352 -0.967,0.418 -1.411,0.171 -0.26,-0.138 -0.463,-0.379 -0.55,-0.661 -0.069,-0.188 -0.081,-0.394 -0.042,-0.591 0.021,-0.09 0.048,-0.18 0.092,-0.261 0.206,-0.509 0.815,-0.787 1.34,-0.666 0.477,0.089 0.875,0.501 0.935,0.984 C 0.421,-0.65 0.281,-0.253 0,0" /></g><g
           transform="translate(123.7449,35.3481)"
           id="g386"><path
             id="path388"
             style="fill:#b6b6b6;fill-opacity:1;fill-rule:nonzero;stroke:none"
             d="m 0,0 c -0.057,-0.14 -0.116,-0.279 -0.176,-0.418 0.385,-0.021 0.773,-0.059 1.155,0.002 0.294,0.04 0.576,0.137 0.848,0.249 2.012,0.856 4.031,1.713 6.123,2.356 1.302,0.401 2.639,0.715 4.001,0.82 C 11.825,3.045 11.7,3.09 11.57,3.107 10.971,3.267 10.357,3.365 9.741,3.433 6.923,3.728 4.067,3.237 1.409,2.296 1.294,2.251 1.168,2.227 1.067,2.157 0.971,2.007 0.897,1.846 0.816,1.688 0.595,1.274 0.396,0.847 0.196,0.421 0.132,0.281 0.068,0.141 0.008,0 L 0,0 Z" /></g><g
           transform="translate(141.5781,33.6954)"
           id="g390"><path
             id="path392"
             style="fill:#b6b6b6;fill-opacity:1;fill-rule:nonzero;stroke:none"
             d="M 0,0 C -0.175,0.749 -0.63,1.398 -1.143,1.956 -1.77,2.627 -2.516,3.18 -3.319,3.62 -3.817,3.821 -4.349,3.928 -4.878,4.009 -6.258,4.208 -7.668,4.105 -9.03,3.83 -10.244,3.577 -11.436,3.188 -12.536,2.611 -13.07,2.32 -13.602,1.993 -13.996,1.522 c -0.161,-0.196 -0.297,-0.447 -0.24,-0.708 0.064,-0.243 0.286,-0.403 0.508,-0.491 1.057,-0.416 2.062,-0.97 2.967,-1.657 0.68,-0.523 1.317,-1.118 1.796,-1.834 0.265,-0.408 0.511,-0.869 0.495,-1.369 0.001,-0.202 -0.111,-0.376 -0.193,-0.552 0.386,0.068 0.752,0.216 1.12,0.348 1.383,0.518 2.742,1.099 4.086,1.706 0.942,0.434 1.885,0.872 2.778,1.399 0.217,0.124 0.43,0.276 0.554,0.499 C 0.078,-0.797 0.077,-0.377 0,0" /></g><g
           transform="translate(119.4856,34.4508)"
           id="g394"><path
             id="path396"
             style="fill:#b6b6b6;fill-opacity:1;fill-rule:nonzero;stroke:none"
             d="M 0,0 C 1.096,0.303 2.229,0.471 3.366,0.489 3.416,0.608 3.465,0.728 3.513,0.848 3.583,1.01 3.653,1.172 3.722,1.334 3.837,1.59 3.963,1.841 4.076,2.098 4.193,2.29 4.277,2.504 4.39,2.7 2.814,2.044 1.305,1.236 -0.136,0.324 -0.116,0.275 -0.094,0.227 -0.073,0.178 -0.049,0.119 -0.024,0.059 0,0" /></g><g
           transform="translate(119.6171,34.1271)"
           id="g398"><path
             id="path400"
             style="fill:#b6b6b6;fill-opacity:1;fill-rule:nonzero;stroke:none"
             d="m 0,0 c 0.025,-0.073 0.051,-0.145 0.078,-0.219 0.023,-0.071 0.045,-0.142 0.068,-0.214 0.892,0.079 1.789,0.11 2.684,0.072 0.03,0.099 0.06,0.198 0.09,0.297 0.032,0.099 0.066,0.198 0.098,0.298 l 0.007,0 C 3.047,0.302 3.07,0.37 3.093,0.439 2.041,0.439 0.99,0.334 -0.036,0.103 -0.03,0.076 -0.017,0.024 -0.011,-0.002 L 0,0 Z" /></g><g
           transform="translate(131.3861,31.2865)"
           id="g402"><path
             id="path404"
             style="fill:#b6b6b6;fill-opacity:1;fill-rule:nonzero;stroke:none"
             d="M 0,0 C -0.764,0.746 -1.672,1.329 -2.622,1.808 -4.294,2.634 -6.13,3.129 -7.992,3.244 -8.002,3.211 -8.022,3.145 -8.032,3.112 L -8.04,3.113 C -8.061,3.067 -8.081,3.02 -8.101,2.974 -8.123,2.917 -8.145,2.86 -8.167,2.803 -8.184,2.762 -8.201,2.721 -8.218,2.68 -8.248,2.602 -8.279,2.524 -8.309,2.446 -6.717,2.308 -5.13,1.947 -3.69,1.241 -1.892,0.38 -0.375,-1.019 0.694,-2.696 0.757,-2.785 0.875,-2.968 0.992,-2.845 1.141,-2.528 1.087,-2.159 1.057,-1.821 0.974,-1.096 0.494,-0.502 0,0" /></g><g
           transform="translate(118.8413,34.4448)"
           id="g406"><path
             id="path408"
             style="fill:#b6b6b6;fill-opacity:1;fill-rule:nonzero;stroke:none"
             d="m 0,0 c -0.201,-0.128 -0.404,-0.253 -0.594,-0.398 0.223,0.076 0.443,0.157 0.665,0.234 C 0.047,-0.109 0.023,-0.054 0,0" /></g><g
           transform="translate(113.5145,31.1446)"
           id="g410"><path
             id="path412"
             style="fill:#b6b6b6;fill-opacity:1;fill-rule:nonzero;stroke:none"
             d="M 0,0 C 0.301,0.095 0.48,0.378 0.727,0.556 0.469,0.393 0.237,0.193 0,0" /></g><g
           transform="translate(112.9394,30.4813)"
           id="g414"><path
             id="path416"
             style="fill:#b6b6b6;fill-opacity:1;fill-rule:nonzero;stroke:none"
             d="M 0,0 C -0.25,-0.342 -0.426,-0.745 -0.468,-1.169 -0.303,-0.783 -0.203,-0.37 0,0" /></g><g
           transform="translate(128.1983,24.4853)"
           id="g418"><path
             id="path420"
             style="fill:#b6b6b6;fill-opacity:1;fill-rule:nonzero;stroke:none"
             d="m 0,0 c -0.655,0.027 -1.3,0.182 -1.914,0.406 -0.333,0.129 -0.669,0.272 -0.948,0.499 -0.094,0.084 -0.212,0.196 -0.177,0.336 0.084,0.14 0.263,0.163 0.411,0.18 0.506,0.035 1.011,-0.06 1.5,-0.184 C -0.613,1.098 -0.099,0.923 0.353,0.634 0.502,0.545 0.614,0.409 0.71,0.266 0.596,-0.017 0.25,0.016 0,0 M 2.262,4.031 C 2.343,3.725 2.418,3.407 2.371,3.089 2.354,2.889 2.27,2.706 2.2,2.522 L 2.201,2.484 2.178,2.483 C 1.956,2.124 1.626,1.841 1.245,1.663 -0.045,1.065 -1.699,1.398 -2.656,2.451 c -0.412,0.463 -0.793,1.031 -0.785,1.675 0.011,0.52 0.379,0.955 0.816,1.197 0.734,0.411 1.606,0.51 2.433,0.437 C 0.17,5.711 0.534,5.638 0.866,5.479 0.98,5.424 1.098,5.376 1.219,5.336 0.892,5.707 0.51,6.022 0.123,6.327 0.017,6.407 -0.096,6.477 -0.211,6.543 -1.828,7.477 -3.645,8.054 -5.499,8.263 -5.555,8.109 -5.612,7.955 -5.668,7.801 -5.723,7.651 -5.774,7.5 -5.822,7.346 -5.952,7.471 -5.994,7.648 -6.013,7.82 -6.006,7.983 -5.994,8.146 -5.978,8.308 -6.715,8.363 -7.456,8.354 -8.193,8.287 -8.177,8.113 -8.171,7.937 -8.171,7.762 -8.198,7.623 -8.27,7.502 -8.37,7.403 -8.392,7.516 -8.424,7.627 -8.466,7.734 -8.529,7.9 -8.588,8.066 -8.649,8.232 c -1.254,-0.164 -2.483,-0.52 -3.626,-1.06 -0.019,0.025 -0.056,0.074 -0.075,0.099 -0.087,-0.05 -0.173,-0.099 -0.26,-0.149 0.339,-0.007 0.676,-0.057 1.004,-0.141 0.276,-0.081 0.545,-0.188 0.788,-0.343 l 0.008,0.004 c 0.137,-0.103 0.268,-0.214 0.386,-0.338 0.311,-0.366 0.36,-0.897 0.177,-1.333 -0.333,-0.819 -1.023,-1.488 -1.854,-1.795 -0.328,-0.115 -0.672,-0.183 -1.02,-0.199 -0.393,-0.015 -0.786,0.041 -1.159,0.162 -0.27,0.099 -0.522,0.239 -0.75,0.415 0.034,-0.385 0.142,-0.761 0.313,-1.107 0.202,0.098 0.421,0.156 0.641,0.198 0.368,0.067 0.745,0.078 1.118,0.058 0.287,-0.027 0.582,-0.067 0.843,-0.197 0.101,-0.054 0.216,-0.136 0.218,-0.262 -0.013,-0.164 -0.176,-0.249 -0.302,-0.323 -0.34,-0.148 -0.709,-0.205 -1.076,-0.242 -0.315,-0.008 -0.631,-0.01 -0.943,0.036 0.675,-0.834 1.582,-1.448 2.532,-1.93 0.78,-0.395 1.602,-0.709 2.45,-0.924 -0.073,0.226 -0.125,0.458 -0.172,0.69 -0.041,0.208 -0.063,0.421 -0.12,0.625 -0.188,0.148 -0.333,0.344 -0.377,0.584 -0.007,0.162 0.015,0.326 0.1,0.466 -0.019,-0.176 -0.038,-0.356 0.007,-0.531 0.108,-0.24 0.337,-0.42 0.6,-0.449 0.154,-0.017 0.295,0.059 0.428,0.124 0.163,0.094 0.331,0.201 0.524,0.213 0.214,-0.012 0.309,-0.232 0.417,-0.384 l 0.005,-0.001 c 0.213,-0.241 0.535,-0.418 0.864,-0.371 0.172,0.022 0.314,0.129 0.436,0.245 0.107,0.133 0.193,0.281 0.258,0.438 0.009,0.001 0.025,0.004 0.034,0.005 -0.008,-0.347 -0.252,-0.641 -0.557,-0.785 -0.029,-0.149 -0.077,-0.293 -0.122,-0.438 -0.12,-0.238 -0.246,-0.472 -0.401,-0.689 -0.069,-0.051 0.026,-0.062 0.059,-0.066 0.514,-0.048 1.031,-0.07 1.548,-0.085 1.295,-0.039 2.601,-0.019 3.878,0.228 0.89,0.174 1.766,0.44 2.592,0.818 0.646,0.306 1.273,0.699 1.73,1.259 0.41,0.52 0.594,1.233 0.413,1.879 C 2.761,3.129 2.53,3.594 2.262,4.031" /></g><g
           transform="translate(118.082,33.5296)"
           id="g422"><path
             id="path424"
             style="fill:#b6b6b6;fill-opacity:1;fill-rule:nonzero;stroke:none"
             d="M 0,0 C 0.372,0.013 0.74,0.073 1.11,0.11 1.084,0.163 1.057,0.215 1.028,0.265 1.008,0.325 0.988,0.383 0.967,0.442 0.956,0.467 0.933,0.516 0.921,0.54 0.496,0.415 0.059,0.305 -0.341,0.112 -0.431,-0.08 -0.109,-0.009 0,0" /></g><g
           transform="translate(116.3278,30.4679)"
           id="g426"><path
             id="path428"
             style="fill:#969696;fill-opacity:1;fill-rule:nonzero;stroke:none"
             d="m 0,0 c -0.579,0.311 -1.278,0.443 -1.914,0.232 0.306,-0.016 0.615,-0.174 0.72,-0.476 0.031,-0.122 0.046,-0.248 0.051,-0.374 -0.062,-0.277 -0.265,-0.503 -0.534,-0.594 -0.207,-0.02 -0.433,-0.011 -0.605,0.121 -0.179,0.116 -0.268,0.32 -0.309,0.522 -10e-4,0.207 0.079,0.4 0.184,0.574 -0.353,-0.224 -0.63,-0.539 -0.87,-0.877 0.166,0.541 0.538,1.032 1.057,1.275 0.655,0.306 1.435,0.252 2.086,-0.038 C 0.278,0.183 0.672,-0.114 0.832,-0.55 0.557,-0.363 0.299,-0.15 0,0 M -0.473,0.867 C -1.25,0.948 -2.068,0.826 -2.751,0.431 c -0.393,-0.228 -0.739,-0.59 -0.83,-1.048 -0.104,-0.546 0.112,-1.132 0.512,-1.511 0.254,-0.249 0.593,-0.395 0.94,-0.46 l 0.002,-0.009 c 0.211,-0.014 0.43,-0.082 0.638,-0.026 0.726,0.021 1.439,0.294 2.019,0.726 0.434,0.332 0.812,0.818 0.816,1.387 C 1.362,-0.229 1.195,0.017 1.016,0.218 0.629,0.621 0.07,0.803 -0.473,0.867" /></g><g
           transform="translate(128.3671,29.3635)"
           id="g430"><path
             id="path432"
             style="fill:#969696;fill-opacity:1;fill-rule:nonzero;stroke:none"
             d="m 0,0 c -0.327,0.118 -0.676,0.164 -1.023,0.153 0.23,-0.182 0.369,-0.497 0.244,-0.782 -0.023,-0.052 -0.048,-0.102 -0.075,-0.152 -0.156,-0.194 -0.41,-0.254 -0.649,-0.226 -0.136,0.027 -0.247,0.119 -0.344,0.213 -0.177,0.211 -0.154,0.506 -0.057,0.747 -0.313,-0.14 -0.588,-0.342 -0.852,-0.558 0.297,0.511 0.821,0.884 1.403,0.99 C -0.572,0.534 0.245,0.294 0.894,-0.147 1.288,-0.421 1.657,-0.802 1.736,-1.294 1.258,-0.747 0.695,-0.245 0,0 M 1.658,-0.337 C 1.202,0.087 0.614,0.356 0.008,0.477 -0.543,0.595 -1.113,0.645 -1.674,0.567 -2.012,0.516 -2.353,0.429 -2.653,0.26 c -0.35,-0.251 -0.616,-0.663 -0.598,-1.106 0.017,-0.428 0.256,-0.81 0.53,-1.124 0.507,-0.554 1.176,-0.993 1.925,-1.123 0.565,-0.087 1.171,-0.072 1.691,0.19 0.481,0.232 0.927,0.626 1.058,1.163 0.122,0.474 0.084,1.052 -0.295,1.403" /></g><g
           transform="translate(114.122,27.1308)"
           id="g434"><path
             id="path436"
             style="fill:#818181;fill-opacity:1;fill-rule:nonzero;stroke:none"
             d="M 0,0 C 0.368,0.066 0.745,0.078 1.118,0.057 1.406,0.031 1.7,-0.01 1.961,-0.14 2.062,-0.193 2.177,-0.275 2.179,-0.401 2.166,-0.565 2.004,-0.65 1.878,-0.724 1.538,-0.872 1.168,-0.929 0.802,-0.967 0.486,-0.975 0.17,-0.976 -0.142,-0.93 c -0.254,0.049 -0.538,0.1 -0.723,0.295 -0.138,0.183 0.069,0.363 0.225,0.436 C -0.439,-0.1 -0.22,-0.042 0,0" /></g><g
           transform="translate(125.159,25.7261)"
           id="g438"><path
             id="path440"
             style="fill:#818181;fill-opacity:1;fill-rule:nonzero;stroke:none"
             d="M 0,0 C 0.084,0.14 0.263,0.163 0.411,0.18 0.918,0.216 1.423,0.12 1.912,-0.003 2.426,-0.142 2.94,-0.318 3.392,-0.607 3.542,-0.696 3.654,-0.832 3.749,-0.974 3.635,-1.258 3.29,-1.225 3.039,-1.241 2.385,-1.214 1.739,-1.059 1.125,-0.835 0.792,-0.706 0.457,-0.563 0.177,-0.336 0.083,-0.251 -0.034,-0.139 0,0" /></g><g
           id="g442"><g
             id="g444" /><g
             id="g450"><g
               style="opacity:0.53999299"
               id="g452"
               clip-path="url(#clipPath446)"><g
                 id="g454"
                 transform="translate(135.2564,26.0334)"><path
                   id="path456"
                   style="fill:#1d1d1d;fill-opacity:1;fill-rule:nonzero;stroke:none"
                   d="M 0,0 C 0.05,-0.118 -0.2,-0.076 -0.08,0.001 -0.06,0.001 -0.02,0 0,0" /></g></g></g></g><g
           id="g458"><g
             id="g460" /><g
             id="g466"><g
               style="opacity:0.38999903"
               id="g468"
               clip-path="url(#clipPath462)"><g
                 id="g470"
                 transform="translate(131.892,25.4518)"><path
                   id="path472"
                   style="fill:#2f2f2f;fill-opacity:1;fill-rule:nonzero;stroke:none"
                   d="M 0,0 C -0.024,-0.088 -0.202,-0.013 -0.105,0.043 -0.078,0.032 -0.026,0.011 0,0" /></g></g></g></g><g
           transform="translate(120.5168,24.3997)"
           id="g474"><path
             id="path476"
             style="fill:#818181;fill-opacity:1;fill-rule:nonzero;stroke:none"
             d="M 0,0 C -0.231,0.142 -0.284,0.485 -0.569,0.554 -0.773,0.557 -0.926,0.403 -1.096,0.315 -1.288,0.202 -1.52,0.19 -1.734,0.228 c 0.146,-0.357 0.205,-0.741 0.298,-1.114 0.107,-0.366 0.237,-0.809 0.627,-0.962 0.257,-0.119 0.551,-0.004 0.742,0.182 0.302,0.291 0.487,0.675 0.666,1.048 0.06,0.132 0.121,0.264 0.182,0.395 C 0.506,-0.224 0.236,-0.138 0,0" /></g><g
           transform="translate(111.8396,61.8363)"
           id="g478"><path
             id="path480"
             style="fill:#3b3b3b;fill-opacity:1;fill-rule:nonzero;stroke:none"
             d="M 0,0 C 0.291,0 0.561,0.052 0.811,0.155 1.061,0.26 1.283,0.408 1.474,0.599 1.666,0.789 1.818,1.008 1.929,1.258 2.04,1.507 2.095,1.781 2.095,2.082 2.095,2.371 2.04,2.641 1.929,2.89 1.818,3.138 1.666,3.354 1.474,3.541 1.283,3.726 1.061,3.872 0.811,3.983 0.561,4.093 0.291,4.148 0,4.148 -0.291,4.148 -0.561,4.093 -0.811,3.983 -1.063,3.872 -1.28,3.726 -1.466,3.541 -1.652,3.354 -1.801,3.138 -1.912,2.89 -2.023,2.641 -2.077,2.371 -2.077,2.082 c 0,-0.301 0.054,-0.575 0.165,-0.824 0.111,-0.25 0.26,-0.469 0.446,-0.659 C -1.28,0.408 -1.063,0.26 -0.811,0.155 -0.561,0.052 -0.291,0 0,0 M 0,5.918 C 0.5,5.918 0.983,5.819 1.449,5.622 1.913,5.426 2.324,5.153 2.679,4.807 3.034,4.46 3.317,4.052 3.526,3.583 3.736,3.116 3.84,2.614 3.84,2.082 3.84,1.549 3.742,1.049 3.543,0.58 3.345,0.113 3.075,-0.295 2.732,-0.643 2.388,-0.99 1.984,-1.264 1.518,-1.467 1.053,-1.669 0.547,-1.771 0,-1.771 c -0.244,0 -0.541,0.079 -0.891,0.234 -0.348,0.157 -0.744,0.403 -1.186,0.739 l 0,-3.488 c 0,-0.256 -0.088,-0.466 -0.263,-0.634 -0.174,-0.168 -0.383,-0.252 -0.627,-0.252 -0.245,0 -0.452,0.084 -0.62,0.252 -0.169,0.168 -0.253,0.378 -0.253,0.634 l 0,6.351 c 0.012,0.497 0.12,0.977 0.323,1.44 0.203,0.464 0.48,0.873 0.829,1.232 0.348,0.359 0.753,0.645 1.214,0.86 0.458,0.213 0.95,0.321 1.474,0.321" /></g><g
           transform="translate(121.6479,59.9791)"
           id="g482"><path
             id="path484"
             style="fill:#3b3b3b;fill-opacity:1;fill-rule:nonzero;stroke:none"
             d="m 0,0 c 0.256,0 0.472,-0.086 0.646,-0.26 0.175,-0.174 0.262,-0.383 0.262,-0.626 0,-0.046 -0.006,-0.11 -0.017,-0.19 C 0.879,-1.157 0.855,-1.215 0.821,-1.25 0.565,-1.863 0.158,-2.36 -0.401,-2.741 c -0.558,-0.383 -1.187,-0.574 -1.885,-0.574 -0.454,0 -0.882,0.086 -1.284,0.26 -0.4,0.174 -0.753,0.411 -1.055,0.712 -0.303,0.301 -0.544,0.654 -0.725,1.059 -0.18,0.404 -0.277,0.839 -0.288,1.301 l 0,4.426 c 0,0.381 0.058,0.729 0.175,1.041 0.116,0.336 0.277,0.643 0.48,0.919 0.203,0.279 0.445,0.519 0.724,0.721 0.28,0.202 0.586,0.361 0.917,0.477 0.332,0.116 0.683,0.174 1.056,0.174 0.348,0 0.684,-0.053 1.003,-0.157 0.32,-0.103 0.614,-0.246 0.882,-0.425 C -0.134,7.013 0.105,6.797 0.315,6.543 0.524,6.288 0.693,6.011 0.821,5.71 0.832,5.699 0.838,5.675 0.838,5.641 0.885,5.547 0.908,5.449 0.908,5.346 0.908,5.103 0.821,4.894 0.646,4.72 0.472,4.546 0.256,4.46 0,4.46 c -0.175,0 -0.334,0.047 -0.48,0.138 -0.145,0.094 -0.259,0.215 -0.34,0.365 0,0.024 -0.005,0.041 -0.017,0.052 -0.012,0.011 -0.024,0.03 -0.035,0.052 C -1,5.333 -1.189,5.553 -1.439,5.727 -1.69,5.901 -1.972,5.987 -2.286,5.987 -2.484,5.987 -2.673,5.95 -2.854,5.874 -3.034,5.799 -3.193,5.699 -3.334,5.57 -3.473,5.443 -3.587,5.293 -3.673,5.12 -3.761,4.946 -3.811,4.766 -3.822,4.581 l 0,-4.702 c 0.024,-0.394 0.183,-0.726 0.48,-0.999 0.296,-0.271 0.649,-0.407 1.056,-0.407 0.314,0 0.596,0.086 0.847,0.26 0.25,0.174 0.439,0.393 0.567,0.66 0.011,0.022 0.023,0.041 0.035,0.052 0.012,0.011 0.017,0.028 0.017,0.052 0.081,0.15 0.195,0.271 0.34,0.365 C -0.334,-0.047 -0.175,0 0,0" /></g><g
           transform="translate(125.2006,65.5591)"
           id="g486"><path
             id="path488"
             style="fill:#3b3b3b;fill-opacity:1;fill-rule:nonzero;stroke:none"
             d="m 0,0 c -0.273,-0.284 -0.416,-0.64 -0.428,-1.068 0.023,-0.381 0.169,-0.711 0.437,-0.99 0.268,-0.277 0.605,-0.415 1.012,-0.415 l 1.274,0 c 0.408,0 0.803,-0.085 1.188,-0.253 0.384,-0.166 0.724,-0.395 1.02,-0.685 C 4.8,-3.7 5.038,-4.042 5.219,-4.435 5.399,-4.829 5.49,-5.251 5.49,-5.701 5.49,-6.141 5.405,-6.552 5.237,-6.933 5.068,-7.316 4.841,-7.65 4.555,-7.94 4.271,-8.229 3.933,-8.458 3.544,-8.626 3.153,-8.793 2.737,-8.883 2.295,-8.895 l -3.316,0 c -0.267,0 -0.483,0.081 -0.645,0.243 -0.164,0.163 -0.245,0.376 -0.245,0.643 0,0.23 0.084,0.433 0.253,0.607 0.168,0.174 0.381,0.26 0.637,0.26 l 3.316,0 c 0.187,0 0.37,0.038 0.55,0.113 0.181,0.075 0.338,0.179 0.472,0.312 0.133,0.133 0.241,0.287 0.322,0.461 0.081,0.173 0.122,0.358 0.122,0.555 0,0.207 -0.041,0.399 -0.122,0.572 -0.081,0.173 -0.186,0.327 -0.314,0.46 -0.128,0.133 -0.282,0.237 -0.463,0.312 -0.18,0.075 -0.363,0.119 -0.549,0.13 l -1.292,0 c -0.419,0.013 -0.824,0.099 -1.213,0.261 -0.39,0.161 -0.733,0.384 -1.03,0.668 -0.296,0.284 -0.532,0.619 -0.707,1.007 -0.175,0.387 -0.261,0.807 -0.261,1.257 0,0.417 0.083,0.819 0.252,1.206 0.169,0.389 0.4,0.732 0.691,1.034 0.29,0.301 0.63,0.54 1.02,0.72 0.39,0.178 0.807,0.269 1.248,0.269 l 3.317,0 C 4.571,2.195 4.769,2.104 4.932,1.926 5.094,1.746 5.188,1.53 5.21,1.275 5.199,1.032 5.111,0.829 4.949,0.668 4.786,0.506 4.582,0.425 4.338,0.425 l -3.317,0 C 0.614,0.425 0.274,0.282 0,0" /></g></g></g><g
       id="g490"><g
         clip-path="url(#clipPath494)"
         id="g492"><g
           id="g498"><g
             id="g500"><path
               id="path510"
               style="fill:url(#linearGradient502);stroke:none"
               d="m 138.485,63.682 -8.367,8.318 -1.149,-1.143 8.366,-8.318 -8.366,-8.318 1.149,-1.142 8.367,8.318 8.365,-8.318 1.15,1.142 -8.366,8.318 8.366,8.318 -1.15,1.143 -8.365,-8.318 z" /></g></g></g></g><g
       id="g512"><g
         clip-path="url(#clipPath516)"
         id="g514"><g
           transform="translate(108.5952,52.0184)"
           id="g520"><path
             id="path522"
             style="fill:#3b3b3b;fill-opacity:1;fill-rule:nonzero;stroke:none"
             d="M 0,0 C -0.074,0 -0.136,0.027 -0.189,0.081 -0.241,0.134 -0.273,0.2 -0.284,0.277 l 0,1.158 C -0.28,1.624 -0.241,1.799 -0.165,1.961 -0.09,2.122 0.011,2.263 0.139,2.384 0.267,2.505 0.414,2.602 0.583,2.672 0.751,2.744 0.93,2.783 1.119,2.791 1.193,2.787 1.256,2.756 1.311,2.698 1.365,2.641 1.398,2.577 1.409,2.508 1.401,2.435 1.371,2.371 1.316,2.315 1.262,2.259 1.196,2.229 1.119,2.226 1.007,2.226 0.901,2.205 0.8,2.162 0.699,2.12 0.612,2.061 0.536,1.986 0.461,1.911 0.401,1.824 0.357,1.724 0.312,1.624 0.29,1.514 0.29,1.395 l 0,-1.147 C 0.278,0.183 0.246,0.125 0.194,0.075 0.142,0.025 0.077,0 0,0" /></g><g
           transform="translate(112.0459,53.7251)"
           id="g524"><path
             id="path526"
             style="fill:#3b3b3b;fill-opacity:1;fill-rule:nonzero;stroke:none"
             d="m 0,0 c -0.093,0.154 -0.211,0.28 -0.356,0.378 -0.145,0.098 -0.305,0.147 -0.479,0.147 -0.182,0 -0.345,-0.05 -0.49,-0.15 C -1.47,0.275 -1.583,0.152 -1.664,0.006 -1.672,-0.002 -1.676,-0.01 -1.676,-0.017 l 1.682,0 C 0.002,-0.017 0,-0.015 0,-0.012 L 0,0 Z m -0.835,1.101 c 0.186,0 0.364,-0.039 0.537,-0.118 C -0.126,0.904 0.025,0.801 0.154,0.672 0.283,0.543 0.388,0.393 0.467,0.222 0.546,0.051 0.586,-0.127 0.586,-0.312 0.586,-0.389 0.557,-0.457 0.499,-0.516 0.441,-0.576 0.368,-0.603 0.278,-0.6 l -1.948,0 c 0.112,-0.2 0.243,-0.342 0.391,-0.426 0.149,-0.085 0.297,-0.127 0.444,-0.127 0.081,0 0.151,0.009 0.209,0.029 0.058,0.019 0.108,0.036 0.151,0.051 0.05,0.035 0.106,0.052 0.168,0.052 0.085,-0.008 0.154,-0.041 0.206,-0.101 0.052,-0.059 0.078,-0.123 0.078,-0.193 0,-0.03 -0.005,-0.063 -0.014,-0.098 -0.01,-0.034 -0.03,-0.065 -0.061,-0.092 l 0.005,0.011 c -0.1,-0.08 -0.214,-0.138 -0.342,-0.172 -0.127,-0.035 -0.263,-0.054 -0.406,-0.058 -0.189,-0.008 -0.37,0.026 -0.542,0.101 -0.172,0.075 -0.323,0.178 -0.453,0.308 -0.129,0.131 -0.231,0.283 -0.307,0.456 -0.075,0.173 -0.113,0.355 -0.113,0.547 0,0.185 0.038,0.363 0.113,0.534 0.076,0.171 0.179,0.321 0.31,0.45 0.132,0.129 0.283,0.232 0.453,0.311 0.17,0.079 0.352,0.118 0.545,0.118" /></g></g></g><g
       id="g528"><g
         clip-path="url(#clipPath532)"
         id="g530"><g
           id="g536"><g
             id="g538"><path
               id="path548"
               style="fill:url(#linearGradient540);stroke:none"
               d="m 113.455,55.623 c -0.135,-0.059 -0.252,-0.137 -0.35,-0.237 l 0,0 c -0.099,-0.1 -0.178,-0.219 -0.239,-0.355 l 0,0 c -0.059,-0.136 -0.089,-0.281 -0.089,-0.435 l 0,0 0,-2.283 c 0,-0.078 0.027,-0.144 0.081,-0.203 l 0,0 c 0.054,-0.058 0.122,-0.086 0.204,-0.086 l 0,0 c 0.084,0 0.155,0.027 0.214,0.083 l 0,0 c 0.057,0.056 0.087,0.125 0.087,0.206 l 0,0 0,0.841 1.055,0 0,-0.841 c 0,-0.081 0.027,-0.15 0.081,-0.206 l 0,0 c 0.055,-0.056 0.126,-0.083 0.215,-0.083 l 0,0 c 0.081,0 0.149,0.027 0.206,0.083 l 0,0 c 0.056,0.056 0.084,0.125 0.084,0.206 l 0,0 0,2.271 0,0.029 c 0,0.15 -0.03,0.292 -0.09,0.427 l 0,0 c -0.06,0.134 -0.14,0.251 -0.24,0.349 l 0,0 c -0.101,0.098 -0.219,0.175 -0.354,0.234 l 0,0 c -0.136,0.057 -0.281,0.086 -0.435,0.086 l 0,0 c -0.151,0 -0.294,-0.029 -0.43,-0.086 m -0.092,-1.027 c 0,0.146 0.05,0.27 0.15,0.371 l 0,0 c 0.101,0.102 0.225,0.153 0.372,0.153 l 0,0 c 0.073,0 0.143,-0.013 0.208,-0.04 l 0,0 c 0.066,-0.027 0.123,-0.065 0.171,-0.113 l 0,0 c 0.049,-0.047 0.086,-0.103 0.113,-0.166 l 0,0 c 0.027,-0.064 0.041,-0.132 0.041,-0.205 l 0,0 0,-0.843 -1.055,0 0,0.843 z" /></g></g></g></g><g
       id="g550"><g
         clip-path="url(#clipPath554)"
         id="g552"><g
           id="g558"><g
             id="g560"><path
               id="path570"
               style="fill:url(#linearGradient562);stroke:none"
               d="m 115.978,55.605 c -0.154,-0.07 -0.29,-0.162 -0.406,-0.279 l 0,0 c -0.116,-0.118 -0.206,-0.253 -0.272,-0.407 l 0,0 c -0.067,-0.154 -0.101,-0.315 -0.105,-0.485 l 0,0 0,-2.116 c 0,-0.085 0.029,-0.155 0.087,-0.211 l 0,0 c 0.058,-0.056 0.126,-0.083 0.203,-0.083 l 0,0 c 0.081,0 0.151,0.027 0.209,0.083 l 0,0 c 0.058,0.056 0.087,0.126 0.087,0.211 l 0,0 0,1.003 1.224,-1.216 c 0.031,-0.031 0.063,-0.053 0.099,-0.063 l 0,0 c 0.035,-0.012 0.069,-0.018 0.104,-0.018 l 0,0 c 0.039,0 0.076,0.006 0.112,0.018 l 0,0 c 0.037,0.01 0.072,0.032 0.102,0.063 l 0,0 c 0.027,0.027 0.047,0.058 0.059,0.095 l 0,0 c 0.011,0.037 0.017,0.074 0.017,0.113 l 0,0 c 0,0.037 -0.006,0.075 -0.017,0.112 l 0,0 c -0.012,0.036 -0.032,0.068 -0.059,0.095 l 0,0 -0.649,0.646 c 0.294,0.127 0.529,0.301 0.708,0.524 l 0,0 c 0.177,0.224 0.266,0.471 0.266,0.744 l 0,0 c 0,0.177 -0.034,0.344 -0.104,0.499 l 0,0 c -0.07,0.156 -0.162,0.291 -0.278,0.407 l 0,0 c -0.117,0.114 -0.251,0.205 -0.404,0.271 l 0,0 c -0.153,0.065 -0.312,0.098 -0.478,0.098 l 0,0 c -0.182,0 -0.351,-0.035 -0.505,-0.104 m 0.232,-1.807 c -0.085,0.035 -0.159,0.086 -0.223,0.149 l 0,0 c -0.063,0.064 -0.114,0.138 -0.151,0.222 l 0,0 c -0.037,0.085 -0.055,0.173 -0.055,0.265 l 0,0 c 0,0.096 0.018,0.186 0.055,0.269 l 0,0 c 0.037,0.082 0.087,0.154 0.148,0.216 l 0,0 c 0.062,0.061 0.135,0.111 0.22,0.147 l 0,0 c 0.086,0.037 0.178,0.054 0.279,0.054 l 0,0 c 0.092,0 0.18,-0.017 0.264,-0.054 l 0,0 c 0.083,-0.036 0.156,-0.086 0.221,-0.147 l 0,0 c 0.063,-0.062 0.113,-0.134 0.15,-0.216 l 0,0 c 0.037,-0.083 0.055,-0.173 0.055,-0.269 l 0,0 c 0,-0.1 -0.018,-0.191 -0.055,-0.274 l 0,0 c -0.037,-0.083 -0.087,-0.155 -0.15,-0.219 l 0,0 c -0.065,-0.063 -0.138,-0.112 -0.221,-0.147 l 0,0 c -0.084,-0.034 -0.172,-0.051 -0.264,-0.051 l 0,0 c -0.097,0 -0.188,0.018 -0.273,0.055" /></g></g></g></g><g
       id="g572"><g
         clip-path="url(#clipPath576)"
         id="g574"><g
           id="g580"><g
             id="g582"><path
               id="path592"
               style="fill:url(#linearGradient584);stroke:none"
               d="m 120.281,55.607 c -0.139,-0.066 -0.274,-0.153 -0.405,-0.256 l 0,0 c -0.14,0.111 -0.28,0.199 -0.422,0.263 l 0,0 c -0.14,0.063 -0.279,0.095 -0.414,0.095 l 0,0 c -0.158,0 -0.307,-0.032 -0.443,-0.095 l 0,0 c -0.138,-0.064 -0.257,-0.147 -0.357,-0.251 l 0,0 c -0.101,-0.104 -0.18,-0.223 -0.238,-0.358 l 0,0 c -0.058,-0.135 -0.087,-0.275 -0.087,-0.421 l 0,0 0,-2.266 c 0,-0.085 0.029,-0.155 0.087,-0.211 l 0,0 c 0.058,-0.056 0.126,-0.083 0.203,-0.083 l 0,0 c 0.085,0 0.156,0.027 0.212,0.083 l 0,0 c 0.055,0.056 0.084,0.126 0.084,0.211 l 0,0 0,2.214 c 0,0.074 0.015,0.143 0.043,0.211 l 0,0 c 0.029,0.067 0.068,0.125 0.117,0.172 l 0,0 c 0.047,0.049 0.105,0.088 0.17,0.116 l 0,0 c 0.066,0.029 0.136,0.044 0.209,0.044 l 0,0 c 0.073,0 0.144,-0.015 0.212,-0.044 l 0,0 c 0.067,-0.028 0.125,-0.067 0.174,-0.116 l 0,0 c 0.048,-0.047 0.087,-0.105 0.116,-0.172 l 0,0 c 0.028,-0.068 0.044,-0.137 0.044,-0.211 l 0,0 0,-2.214 c 0,-0.085 0.028,-0.155 0.083,-0.211 l 0,0 c 0.056,-0.056 0.125,-0.083 0.207,-0.083 l 0,0 c 0.08,0 0.149,0.027 0.205,0.083 l 0,0 c 0.056,0.056 0.084,0.126 0.084,0.211 l 0,0 0,2.214 c 0,0.074 0.015,0.143 0.043,0.211 l 0,0 c 0.029,0.067 0.069,0.125 0.12,0.172 l 0,0 c 0.05,0.049 0.108,0.088 0.174,0.116 l 0,0 c 0.066,0.029 0.135,0.044 0.209,0.044 l 0,0 c 0.073,0 0.143,-0.015 0.209,-0.044 l 0,0 c 0.065,-0.028 0.122,-0.067 0.17,-0.116 l 0,0 c 0.049,-0.047 0.088,-0.105 0.117,-0.172 l 0,0 c 0.028,-0.068 0.043,-0.137 0.043,-0.211 l 0,0 0,-2.214 c 0,-0.085 0.028,-0.155 0.084,-0.211 l 0,0 c 0.056,-0.056 0.126,-0.083 0.212,-0.083 l 0,0 c 0.077,0 0.145,0.027 0.202,0.083 l 0,0 c 0.059,0.056 0.088,0.126 0.088,0.211 l 0,0 0,2.261 c -0.008,0.154 -0.043,0.299 -0.102,0.434 l 0,0 c -0.06,0.137 -0.14,0.258 -0.24,0.361 l 0,0 c -0.101,0.105 -0.219,0.186 -0.354,0.246 l 0,0 c -0.136,0.058 -0.279,0.089 -0.429,0.089 l 0,0 c -0.148,0 -0.291,-0.034 -0.43,-0.102" /></g></g></g></g><g
       id="g594"><g
         clip-path="url(#clipPath598)"
         id="g596"><g
           transform="translate(124.26,53.7251)"
           id="g602"><path
             id="path604"
             style="fill:#3b3b3b;fill-opacity:1;fill-rule:nonzero;stroke:none"
             d="m 0,0 c -0.093,0.154 -0.211,0.28 -0.356,0.378 -0.145,0.098 -0.305,0.147 -0.479,0.147 -0.182,0 -0.345,-0.05 -0.49,-0.15 C -1.47,0.275 -1.583,0.152 -1.664,0.006 -1.672,-0.002 -1.676,-0.01 -1.676,-0.017 l 1.682,0 C 0.002,-0.017 0,-0.015 0,-0.012 L 0,0 Z m -0.835,1.101 c 0.186,0 0.364,-0.039 0.537,-0.118 C -0.126,0.904 0.025,0.801 0.154,0.672 0.283,0.543 0.388,0.393 0.467,0.222 0.546,0.051 0.586,-0.127 0.586,-0.312 0.586,-0.389 0.557,-0.457 0.499,-0.516 0.441,-0.576 0.368,-0.603 0.278,-0.6 l -1.948,0 c 0.112,-0.2 0.243,-0.342 0.391,-0.426 0.149,-0.085 0.297,-0.127 0.444,-0.127 0.081,0 0.151,0.009 0.209,0.029 0.058,0.019 0.108,0.036 0.151,0.051 0.05,0.035 0.106,0.052 0.168,0.052 0.085,-0.008 0.154,-0.041 0.206,-0.101 0.052,-0.059 0.078,-0.123 0.078,-0.193 0,-0.03 -0.005,-0.063 -0.014,-0.098 -0.01,-0.034 -0.031,-0.065 -0.061,-0.092 l 0.005,0.011 c -0.1,-0.08 -0.214,-0.138 -0.342,-0.172 -0.127,-0.035 -0.263,-0.054 -0.406,-0.058 -0.189,-0.008 -0.37,0.026 -0.542,0.101 -0.172,0.075 -0.323,0.178 -0.453,0.308 -0.129,0.131 -0.231,0.283 -0.307,0.456 -0.075,0.173 -0.113,0.355 -0.113,0.547 0,0.185 0.038,0.363 0.113,0.534 0.076,0.171 0.179,0.321 0.31,0.45 0.132,0.129 0.283,0.232 0.453,0.311 0.17,0.079 0.352,0.118 0.545,0.118" /></g><g
           transform="translate(127.166,53.4196)"
           id="g606"><path
             id="path608"
             style="fill:#3b3b3b;fill-opacity:1;fill-rule:nonzero;stroke:none"
             d="M 0,0 C 0,0.104 -0.023,0.206 -0.067,0.305 -0.111,0.405 -0.172,0.495 -0.25,0.573 -0.327,0.652 -0.416,0.715 -0.516,0.761 -0.617,0.807 -0.723,0.83 -0.835,0.83 -0.948,0.83 -1.055,0.808 -1.157,0.764 -1.26,0.72 -1.348,0.66 -1.424,0.585 -1.499,0.51 -1.559,0.422 -1.604,0.32 -1.648,0.218 -1.67,0.111 -1.67,0 c 0,-0.115 0.022,-0.223 0.066,-0.323 0.045,-0.1 0.105,-0.188 0.18,-0.263 0.076,-0.074 0.164,-0.134 0.267,-0.178 0.102,-0.045 0.209,-0.067 0.322,-0.067 0.112,0 0.218,0.022 0.319,0.067 0.1,0.044 0.189,0.104 0.266,0.178 0.078,0.075 0.139,0.163 0.183,0.263 C -0.023,-0.223 0,-0.115 0,0 M 0.302,2.283 C 0.367,2.287 0.429,2.261 0.487,2.206 0.545,2.15 0.574,2.089 0.574,2.024 L 0.574,0 c 0,-0.189 -0.039,-0.367 -0.116,-0.536 -0.078,-0.17 -0.182,-0.318 -0.313,-0.444 -0.132,-0.127 -0.281,-0.228 -0.45,-0.303 -0.168,-0.075 -0.345,-0.113 -0.53,-0.113 -0.19,0 -0.369,0.037 -0.54,0.11 -0.17,0.073 -0.318,0.173 -0.446,0.3 -0.128,0.127 -0.229,0.275 -0.305,0.444 -0.075,0.169 -0.113,0.35 -0.113,0.542 0,0.207 0.034,0.39 0.101,0.548 0.068,0.157 0.17,0.305 0.305,0.444 l 0,-0.006 c 0.143,0.135 0.3,0.236 0.473,0.305 0.172,0.07 0.349,0.104 0.53,0.104 0.109,0 0.237,-0.017 0.386,-0.051 C -0.295,1.309 -0.147,1.242 0,1.142 l 0,0.853 c 0,0.038 0.008,0.075 0.023,0.11 0.015,0.034 0.036,0.066 0.061,0.095 0.025,0.029 0.055,0.051 0.09,0.066 0.035,0.016 0.07,0.021 0.104,0.017 l 0.024,0 z" /></g></g></g></g></svg>