<?xml version="1.0" encoding="UTF-8"?>
<svg id="Layer_1" xmlns="http://www.w3.org/2000/svg" version="1.1" viewBox="0 0 352 390">
  <!-- Generator: Adobe Illustrator 29.3.0, SVG Export Plug-In . SVG Version: 2.1.0 Build 146)  -->
  <defs>
    <style>
      .st0 {
        fill: #76c043;
      }

      .st1 {
        fill: #24baa3;
      }

      .st2 {
        fill: #c5d92d;
      }

      .st3 {
        fill: #fef7e2;
      }

      .st4 {
        fill: #fee900;
      }

      .st5 {
        fill: #f9c02c;
      }

      .st6 {
        fill: #beddf4;
      }

      .st7 {
        fill: #e7e9f5;
      }

      .st8 {
        fill: #0797a7;
      }

      .st9 {
        fill: #7a86c2;
      }

      .st10 {
        fill: #4f352e;
      }

      .st11 {
        fill: #d8cdc9;
      }

      .st12 {
        fill: #5ecae7;
      }

      .st13 {
        fill: #f2f8e9;
      }

      .st14 {
        fill: #ffcb29;
      }

      .st15 {
        fill: #b29dcb;
      }

      .st16 {
        fill: #b8d54b;
      }

      .st17 {
        fill: #4d62ad;
      }

      .st18 {
        fill: #d32e2e;
      }

      .st19 {
        fill: #f48fb1;
      }

      .st20 {
        fill: #eeedee;
      }

      .st21 {
        fill: #c694c3;
      }

      .st22 {
        fill: #bee1c2;
      }

      .st23 {
        fill: #43b3e6;
      }

      .st24 {
        fill: #bdbdbd;
      }

      .st25 {
        fill: #56a0d7;
      }

      .st26 {
        fill: #d81a60;
      }

      .st27 {
        fill: #95c8ec;
      }

      .st28 {
        fill: #ed6d23;
      }

      .st29 {
        fill: #44a9df;
      }

      .st30 {
        fill: #f37046;
      }

      .st31 {
        fill: #b72025;
      }

      .st32 {
        fill: #004d41;
      }

      .st33 {
        fill: #cee18b;
      }

      .st34 {
        fill: #edeff0;
      }

      .st35 {
        fill: #8bc349;
      }

      .st36 {
        fill: #9f4f9e;
      }

      .st37 {
        fill: #ffc50d;
      }

      .st38 {
        fill: #616262;
      }

      .st39 {
        fill: #f99f1b;
      }

      .st40 {
        fill: #89d0c2;
      }

      .st41 {
        fill: #231f20;
      }

      .st42 {
        fill: #4a72b8;
      }

      .st43 {
        fill: #e2f3f7;
      }

      .st44 {
        fill: #fae8e6;
      }

      .st45 {
        fill: #404da1;
      }

      .st46 {
        fill: #25a69a;
      }

      .st47 {
        fill: #faaa43;
      }

      .st48 {
        fill: #f78f1e;
      }

      .st49 {
        fill: #3374ba;
      }

      .st50 {
        fill: #afd136;
      }

      .st51 {
        fill: #f0ed84;
      }

      .st52 {
        fill: #8351a1;
      }

      .st53 {
        fill: #feea39;
      }

      .st54 {
        fill: #5e6bb2;
      }

      .st55 {
        fill: #ffdf81;
      }

      .st56 {
        fill: #f9fae8;
      }

      .st57 {
        fill: #ee9a9b;
      }

      .st58 {
        fill: #692c91;
      }

      .st59 {
        fill: #e82064;
      }

      .st60 {
        fill: #84d2f6;
      }

      .st61 {
        fill: #ee2649;
      }

      .st62 {
        fill: #c52928;
      }

      .st63 {
        fill: #f47c20;
      }

      .st64 {
        fill: #fee580;
      }

      .st65 {
        fill: #feed58;
      }

      .st66 {
        fill: #43a047;
      }

      .st67 {
        fill: #e8e73e;
      }

      .st68 {
        fill: #9e89c0;
      }

      .st69 {
        fill: #4b2d87;
      }

      .st70 {
        fill: #356a34;
      }

      .st71 {
        fill: #f8aa92;
      }

      .st72 {
        fill: #e45325;
      }

      .st73 {
        fill: #263238;
      }

      .st74 {
        fill: #e54c25;
      }

      .st75 {
        fill: #fcb216;
      }

      .st76 {
        fill: #fafbfc;
      }

      .st77 {
        fill: #a5d5a7;
      }

      .st78 {
        fill: #c5e0a6;
      }

      .st79 {
        fill: #07bcd4;
      }

      .st80 {
        fill: #b3e0dc;
      }

      .st81 {
        fill: #fbaa19;
      }

      .st82 {
        fill: #e6eb9d;
      }

      .st83 {
        fill: #ae1f59;
      }

      .st84 {
        fill: #543d98;
      }

      .st85 {
        fill: #398bcb;
      }

      .st86 {
        fill: #15499e;
      }

      .st87 {
        fill: #e0f2f0;
      }

      .st88 {
        fill: #fce3ea;
      }

      .st89 {
        fill: #3d83c4;
      }

      .st90 {
        fill: #ede6f3;
      }

      .st91 {
        fill: #dcecc8;
      }

      .st92 {
        fill: #00acc1;
      }

      .st93 {
        fill: #fff278;
      }

      .st94 {
        fill: #f79d80;
      }

      .st95 {
        fill: #bdaaa4;
      }

      .st96 {
        fill: #c21e5c;
      }

      .st97 {
        fill: #568b3e;
      }

      .st98 {
        fill: #b0bec5;
      }

      .st99 {
        fill: #4caf4e;
      }

      .st100 {
        fill: #66499d;
      }

      .st101 {
        fill: #a1a8d5;
      }

      .st102 {
        fill: #fed600;
      }

      .st103 {
        fill: #1b87c9;
      }

      .st104 {
        fill: #f8bbcf;
      }

      .st105 {
        fill: #71b2e2;
      }

      .st106 {
        fill: #37474f;
      }

      .st107 {
        fill: #66bc6a;
      }

      .st108 {
        fill: #90a4ae;
      }

      .st109 {
        fill: #f57f20;
      }

      .st110 {
        fill: #c0ca32;
      }

      .st111 {
        fill: #881a51;
      }

      .st112 {
        fill: #fecc81;
      }

      .st113 {
        fill: #9b51a0;
      }

      .st114 {
        fill: #212120;
      }

      .st115 {
        fill: #f36e21;
      }

      .st116 {
        fill: #009689;
      }

      .st117 {
        fill: #fef59f;
      }

      .st118 {
        fill: #d74527;
      }

      .st119 {
        fill: #fff3e1;
      }

      .st120 {
        fill: #85d5f7;
      }

      .st121 {
        fill: #7a5649;
      }

      .st122 {
        fill: #e57373;
      }

      .st123 {
        fill: #fff;
      }

      .st124 {
        fill: #8d6e63;
      }

      .st125 {
        fill: #b3dfda;
      }

      .st126 {
        fill: #f8981d;
      }

      .st127 {
        fill: #58c1ef;
      }

      .st128 {
        fill: #e9f4e9;
      }

      .st129 {
        fill: #2d2f78;
      }

      .st130 {
        fill: #006064;
      }

      .st131 {
        fill: #4cb6ac;
      }

      .st132 {
        fill: #5ac7da;
      }

      .st133 {
        fill: #f280aa;
      }

      .st134 {
        fill: #2b98d4;
      }

      .st135 {
        fill: #faccd2;
      }

      .st136 {
        fill: #c489bc;
      }

      .st137 {
        fill: #03838f;
      }

      .st138 {
        fill: #fdd836;
      }

      .st139 {
        fill: #33429b;
      }

      .st140 {
        fill: #ef4581;
      }

      .st141 {
        fill: #6d4d41;
      }

      .st142 {
        fill: #84cba1;
      }

      .st143 {
        fill: #00589b;
      }

      .st144 {
        fill: #c51e64;
      }

      .st145 {
        fill: #5cbc6b;
      }

      .st146 {
        fill: #d4e05a;
      }

      .st147 {
        fill: #c8e5c9;
      }

      .st148 {
        fill: #e2f4fd;
      }

      .st149 {
        fill: #82782f;
      }

      .st150 {
        fill: #596ab2;
      }

      .st151 {
        fill: #b4e4fa;
      }

      .st152 {
        fill: #9c9d36;
      }

      .st153 {
        fill: #2a66b1;
      }

      .st154 {
        fill: #41b655;
      }

      .st155 {
        fill: #362f8a;
      }

      .st156 {
        fill: #a85ca4;
      }

      .st157 {
        fill: #9ccc65;
      }

      .st158 {
        fill: #4554a5;
      }

      .st159 {
        fill: #a1887f;
      }

      .st160 {
        fill: #775ca7;
      }

      .st161 {
        fill: #00695d;
      }

      .st162 {
        fill: #78909c;
      }

      .st163 {
        fill: #5c55a4;
      }

      .st164 {
        fill: #82c785;
      }

      .st165 {
        fill: #b6e2eb;
      }

      .st166 {
        fill: #546e7a;
      }

      .st167 {
        fill: #767576;
      }

      .st168 {
        fill: #ef5451;
      }

      .st169 {
        fill: #faf391;
      }

      .st170 {
        fill: #be3a26;
      }

      .st171 {
        fill: #293991;
      }

      .st172 {
        fill: #d1c4e0;
      }

      .st173 {
        fill: #f6eb14;
      }

      .st174 {
        fill: #c5cae6;
      }

      .st175 {
        fill: #4766b0;
      }

      .st176 {
        fill: #d42027;
      }

      .st177 {
        fill: #f58a67;
      }

      .st178 {
        fill: #ffe0b2;
      }

      .st179 {
        fill: #327d3d;
      }

      .st180 {
        fill: #faa629;
      }

      .st181 {
        fill: #ffecb2;
      }

      .st182 {
        fill: #ddbddb;
      }

      .st183 {
        fill: #fdebee;
      }

      .st184 {
        fill: #8f99cd;
      }

      .st185 {
        fill: #853b96;
      }

      .st186 {
        fill: #9175b5;
      }

      .st187 {
        fill: #e63a34;
      }

      .st188 {
        fill: #1e5f30;
      }

      .st189 {
        fill: #efebe9;
      }

      .st190 {
        fill: #f58981;
      }

      .st191 {
        fill: #679f42;
      }

      .st192 {
        fill: #5f449b;
      }

      .st193 {
        fill: #ed1459;
      }

      .st194 {
        fill: #f06392;
      }

      .st195 {
        fill: #0477be;
      }

      .st196 {
        fill: #dce578;
      }

      .st197 {
        fill: #378e43;
      }

      .st198 {
        fill: #ffd54f;
      }

      .st199 {
        fill: #71cddd;
      }

      .st200 {
        fill: #f36e44;
      }

      .st201 {
        fill: #f1592b;
      }

      .st202 {
        fill: #9e9e9e;
      }

      .st203 {
        fill: #55c0ee;
      }

      .st204 {
        fill: #cfd9dc;
      }

      .st205 {
        fill: #afb436;
      }

      .st206 {
        fill: #ffd181;
      }

      .st207 {
        fill: #80cac3;
      }

      .st208 {
        fill: #00b7d3;
      }

      .st209 {
        fill: #434343;
      }

      .st210 {
        fill: #f9a823;
      }

      .st211 {
        fill: #ec417a;
      }

      .st212 {
        fill: #f7911e;
      }

      .st213 {
        fill: #f2e4f0;
      }

      .st214 {
        fill: #62c3a6;
      }

      .st215 {
        fill: #5881c1;
      }

      .st216 {
        fill: #485fab;
      }

      .st217 {
        fill: #5d4ea0;
      }

      .st218 {
        fill: #6b5ea9;
      }

      .st219 {
        fill: #f0f3c5;
      }

      .st220 {
        fill: #9cdae5;
      }

      .st221 {
        fill: #ac6cad;
      }

      .st222 {
        fill: #06897b;
      }

      .st223 {
        fill: #fdc012;
      }

      .st224 {
        fill: #3e2723;
      }

      .st225 {
        fill: #ef4423;
      }

      .st226 {
        fill: #fef8c5;
      }

      .st227 {
        fill: #fbccbd;
      }

      .st228 {
        fill: #89d4e2;
      }

      .st229 {
        fill: #ffd741;
      }

      .st230 {
        fill: #5e4137;
      }

      .st231 {
        fill: #465b65;
      }

      .st232 {
        fill: #37c2d6;
      }

      .st233 {
        fill: #ef4538;
      }

      .st234 {
        fill: #fffce9;
      }

      .st235 {
        fill: #fcb64d;
      }

      .st236 {
        fill: #f68c1f;
      }

      .st237 {
        fill: #f37021;
      }

      .st238 {
        fill: #f05223;
      }

      .st239 {
        fill: #8ec73f;
      }

      .st240 {
        fill: #e0e0e0;
      }

      .st241 {
        fill: #007a6c;
      }

      .st242 {
        fill: #7cb342;
      }

      .st243 {
        fill: #607d8b;
      }

      .st244 {
        fill: #cedd37;
      }

      .st245 {
        fill: #f5f6f6;
      }

      .st246 {
        fill: #db3226;
      }

      .st247 {
        fill: #903f98;
      }

      .st248 {
        fill: #e4f2fc;
      }

      .st249 {
        fill: #f05455;
      }

      .st250 {
        fill: #4a3594;
      }

      .st251 {
        fill: #488fcc;
      }

      .st252 {
        fill: #8caedb;
      }

      .st253 {
        fill: #38a4dd;
      }

      .st254 {
        fill: #add580;
      }

      .st255 {
        fill: #783293;
      }
    </style>
  </defs>
  <g>
    <rect class="st183" x="71.4" y="8.8" width="21" height="21"/>
    <path class="st123" d="M91.9,9.3v20h-20V9.3h20M92.9,8.3h-22v22h22V8.3h0Z"/>
  </g>
  <g>
    <rect class="st135" x="91.4" y="8.8" width="21" height="21"/>
    <path class="st123" d="M111.9,9.3v20h-20V9.3h20M112.9,8.3h-22v22h22V8.3h0Z"/>
  </g>
  <g>
    <rect class="st57" x="111.4" y="8.8" width="21" height="21"/>
    <path class="st123" d="M131.9,9.3v20h-20V9.3h20M132.9,8.3h-22v22h22V8.3h0Z"/>
  </g>
  <g>
    <rect class="st122" x="131.4" y="8.8" width="21" height="21"/>
    <path class="st123" d="M151.9,9.3v20h-20V9.3h20M152.9,8.3h-22v22h22V8.3h0Z"/>
  </g>
  <g>
    <rect class="st168" x="151.4" y="8.8" width="21" height="21"/>
    <path class="st123" d="M171.9,9.3v20h-20V9.3h20M172.9,8.3h-22v22h22V8.3h0Z"/>
  </g>
  <g>
    <rect class="st233" x="171.4" y="8.8" width="21" height="21"/>
    <path class="st123" d="M191.9,9.3v20h-20V9.3h20M192.9,8.3h-22v22h22V8.3h0Z"/>
  </g>
  <g>
    <rect class="st187" x="191.4" y="8.8" width="21" height="21"/>
    <path class="st123" d="M211.9,9.3v20h-20V9.3h20M212.9,8.3h-22v22h22V8.3h0Z"/>
  </g>
  <g>
    <rect class="st18" x="211.4" y="8.8" width="21" height="21"/>
    <path class="st123" d="M231.9,9.3v20h-20V9.3h20M232.9,8.3h-22v22h22V8.3h0Z"/>
  </g>
  <g>
    <rect class="st62" x="231.4" y="8.8" width="21" height="21"/>
    <path class="st123" d="M251.9,9.3v20h-20V9.3h20M252.9,8.3h-22v22h22V8.3h0Z"/>
  </g>
  <g>
    <rect class="st31" x="251.4" y="8.8" width="21" height="21"/>
    <path class="st123" d="M271.9,9.3v20h-20V9.3h20M272.9,8.3h-22v22h22V8.3h0Z"/>
  </g>
  <g>
    <rect class="st190" x="271.4" y="8.8" width="21" height="21"/>
    <path class="st123" d="M291.9,9.3v20h-20V9.3h20M292.9,8.3h-22v22h22V8.3h0Z"/>
  </g>
  <g>
    <rect class="st249" x="291.4" y="8.8" width="21" height="21"/>
    <path class="st123" d="M311.9,9.3v20h-20V9.3h20M312.9,8.3h-22v22h22V8.3h0Z"/>
  </g>
  <g>
    <rect class="st61" x="311.4" y="8.8" width="21" height="21"/>
    <path class="st123" d="M331.9,9.3v20h-20V9.3h20M332.9,8.3h-22v22h22V8.3h0Z"/>
  </g>
  <g>
    <rect class="st176" x="331.4" y="8.8" width="21" height="21"/>
    <path class="st123" d="M351.9,9.3v20h-20V9.3h20M352.9,8.3h-22v22h22V8.3h0Z"/>
  </g>
  <g>
    <rect class="st88" x="71.4" y="28.8" width="21" height="21"/>
    <path class="st123" d="M91.9,29.3v20h-20v-20h20M92.9,28.3h-22v22h22v-22h0Z"/>
  </g>
  <g>
    <rect class="st104" x="91.4" y="28.8" width="21" height="21"/>
    <path class="st123" d="M111.9,29.3v20h-20v-20h20M112.9,28.3h-22v22h22v-22h0Z"/>
  </g>
  <g>
    <rect class="st19" x="111.4" y="28.8" width="21" height="21"/>
    <path class="st123" d="M131.9,29.3v20h-20v-20h20M132.9,28.3h-22v22h22v-22h0Z"/>
  </g>
  <g>
    <rect class="st194" x="131.4" y="28.8" width="21" height="21"/>
    <path class="st123" d="M151.9,29.3v20h-20v-20h20M152.9,28.3h-22v22h22v-22h0Z"/>
  </g>
  <g>
    <rect class="st211" x="151.4" y="28.8" width="21" height="21"/>
    <path class="st123" d="M171.9,29.3v20h-20v-20h20M172.9,28.3h-22v22h22v-22h0Z"/>
  </g>
  <g>
    <rect class="st59" x="171.4" y="28.8" width="21" height="21"/>
    <path class="st123" d="M191.9,29.3v20h-20v-20h20M192.9,28.3h-22v22h22v-22h0Z"/>
  </g>
  <g>
    <rect class="st26" x="191.4" y="28.8" width="21" height="21"/>
    <path class="st123" d="M211.9,29.3v20h-20v-20h20M212.9,28.3h-22v22h22v-22h0Z"/>
  </g>
  <g>
    <rect class="st96" x="211.4" y="28.8" width="21" height="21"/>
    <path class="st123" d="M231.9,29.3v20h-20v-20h20M232.9,28.3h-22v22h22v-22h0Z"/>
  </g>
  <g>
    <rect class="st83" x="231.4" y="28.8" width="21" height="21"/>
    <path class="st123" d="M251.9,29.3v20h-20v-20h20M252.9,28.3h-22v22h22v-22h0Z"/>
  </g>
  <g>
    <rect class="st111" x="251.4" y="28.8" width="21" height="21"/>
    <path class="st123" d="M271.9,29.3v20h-20v-20h20M272.9,28.3h-22v22h22v-22h0Z"/>
  </g>
  <g>
    <rect class="st133" x="271.4" y="28.8" width="21" height="21"/>
    <path class="st123" d="M291.9,29.3v20h-20v-20h20M292.9,28.3h-22v22h22v-22h0Z"/>
  </g>
  <g>
    <rect class="st140" x="291.4" y="28.8" width="21" height="21"/>
    <path class="st123" d="M311.9,29.3v20h-20v-20h20M312.9,28.3h-22v22h22v-22h0Z"/>
  </g>
  <g>
    <rect class="st193" x="311.4" y="28.8" width="21" height="21"/>
    <path class="st123" d="M331.9,29.3v20h-20v-20h20M332.9,28.3h-22v22h22v-22h0Z"/>
  </g>
  <g>
    <rect class="st144" x="331.4" y="28.8" width="21" height="21"/>
    <path class="st123" d="M351.9,29.3v20h-20v-20h20M352.9,28.3h-22v22h22v-22h0Z"/>
  </g>
  <g>
    <rect class="st213" x="71.4" y="48.8" width="21" height="21"/>
    <path class="st123" d="M91.9,49.3v20h-20v-20h20M92.9,48.3h-22v22h22v-22h0Z"/>
  </g>
  <g>
    <rect class="st182" x="91.4" y="48.8" width="21" height="21"/>
    <path class="st123" d="M111.9,49.3v20h-20v-20h20M112.9,48.3h-22v22h22v-22h0Z"/>
  </g>
  <g>
    <rect class="st21" x="111.4" y="48.8" width="21" height="21"/>
    <path class="st123" d="M131.9,49.3v20h-20v-20h20M132.9,48.3h-22v22h22v-22h0Z"/>
  </g>
  <g>
    <rect class="st221" x="131.4" y="48.8" width="21" height="21"/>
    <path class="st123" d="M151.9,49.3v20h-20v-20h20M152.9,48.3h-22v22h22v-22h0Z"/>
  </g>
  <g>
    <rect class="st113" x="151.4" y="48.8" width="21" height="21"/>
    <path class="st123" d="M171.9,49.3v20h-20v-20h20M172.9,48.3h-22v22h22v-22h0Z"/>
  </g>
  <g>
    <rect class="st247" x="171.4" y="48.8" width="21" height="21"/>
    <path class="st123" d="M191.9,49.3v20h-20v-20h20M192.9,48.3h-22v22h22v-22h0Z"/>
  </g>
  <g>
    <rect class="st185" x="191.4" y="48.8" width="21" height="21"/>
    <path class="st123" d="M211.9,49.3v20h-20v-20h20M212.9,48.3h-22v22h22v-22h0Z"/>
  </g>
  <g>
    <rect class="st255" x="211.4" y="48.8" width="21" height="21"/>
    <path class="st123" d="M231.9,49.3v20h-20v-20h20M232.9,48.3h-22v22h22v-22h0Z"/>
  </g>
  <g>
    <rect class="st58" x="231.4" y="48.8" width="21" height="21"/>
    <path class="st123" d="M251.9,49.3v20h-20v-20h20M252.9,48.3h-22v22h22v-22h0Z"/>
  </g>
  <g>
    <rect class="st69" x="251.4" y="48.8" width="21" height="21"/>
    <path class="st123" d="M271.9,49.3v20h-20v-20h20M272.9,48.3h-22v22h22v-22h0Z"/>
  </g>
  <g>
    <rect class="st136" x="271.4" y="48.8" width="21" height="21"/>
    <path class="st123" d="M291.9,49.3v20h-20v-20h20M292.9,48.3h-22v22h22v-22h0Z"/>
  </g>
  <g>
    <rect class="st156" x="291.4" y="48.8" width="21" height="21"/>
    <path class="st123" d="M311.9,49.3v20h-20v-20h20M312.9,48.3h-22v22h22v-22h0Z"/>
  </g>
  <g>
    <rect class="st36" x="311.4" y="48.8" width="21" height="21"/>
    <path class="st123" d="M331.9,49.3v20h-20v-20h20M332.9,48.3h-22v22h22v-22h0Z"/>
  </g>
  <g>
    <rect class="st52" x="331.4" y="48.8" width="21" height="21"/>
    <path class="st123" d="M351.9,49.3v20h-20v-20h20M352.9,48.3h-22v22h22v-22h0Z"/>
  </g>
  <g>
    <rect class="st90" x="71.4" y="68.8" width="21" height="21"/>
    <path class="st123" d="M91.9,69.3v20h-20v-20h20M92.9,68.3h-22v22h22v-22h0Z"/>
  </g>
  <g>
    <rect class="st172" x="91.4" y="68.8" width="21" height="21"/>
    <path class="st123" d="M111.9,69.3v20h-20v-20h20M112.9,68.3h-22v22h22v-22h0Z"/>
  </g>
  <g>
    <rect class="st15" x="111.4" y="68.8" width="21" height="21"/>
    <path class="st123" d="M131.9,69.3v20h-20v-20h20M132.9,68.3h-22v22h22v-22h0Z"/>
  </g>
  <g>
    <rect class="st186" x="131.4" y="68.8" width="21" height="21"/>
    <path class="st123" d="M151.9,69.3v20h-20v-20h20M152.9,68.3h-22v22h22v-22h0Z"/>
  </g>
  <g>
    <rect class="st160" x="151.4" y="68.8" width="21" height="21"/>
    <path class="st123" d="M171.9,69.3v20h-20v-20h20M172.9,68.3h-22v22h22v-22h0Z"/>
  </g>
  <g>
    <rect class="st100" x="171.4" y="68.8" width="21" height="21"/>
    <path class="st123" d="M191.9,69.3v20h-20v-20h20M192.9,68.3h-22v22h22v-22h0Z"/>
  </g>
  <g>
    <rect class="st192" x="191.4" y="68.8" width="21" height="21"/>
    <path class="st123" d="M211.9,69.3v20h-20v-20h20M212.9,68.3h-22v22h22v-22h0Z"/>
  </g>
  <g>
    <rect class="st84" x="211.4" y="68.8" width="21" height="21"/>
    <path class="st123" d="M231.9,69.3v20h-20v-20h20M232.9,68.3h-22v22h22v-22h0Z"/>
  </g>
  <g>
    <rect class="st250" x="231.4" y="68.8" width="21" height="21"/>
    <path class="st123" d="M251.9,69.3v20h-20v-20h20M252.9,68.3h-22v22h22v-22h0Z"/>
  </g>
  <g>
    <rect class="st155" x="251.4" y="68.8" width="21" height="21"/>
    <path class="st123" d="M271.9,69.3v20h-20v-20h20M272.9,68.3h-22v22h22v-22h0Z"/>
  </g>
  <g>
    <rect class="st68" x="271.4" y="68.8" width="21" height="21"/>
    <path class="st123" d="M291.9,69.3v20h-20v-20h20M292.9,68.3h-22v22h22v-22h0Z"/>
  </g>
  <g>
    <rect class="st218" x="291.4" y="68.8" width="21" height="21"/>
    <path class="st123" d="M311.9,69.3v20h-20v-20h20M312.9,68.3h-22v22h22v-22h0Z"/>
  </g>
  <g>
    <rect class="st163" x="311.4" y="68.8" width="21" height="21"/>
    <path class="st123" d="M331.9,69.3v20h-20v-20h20M332.9,68.3h-22v22h22v-22h0Z"/>
  </g>
  <g>
    <rect class="st217" x="331.4" y="68.8" width="21" height="21"/>
    <path class="st123" d="M351.9,69.3v20h-20v-20h20M352.9,68.3h-22v22h22v-22h0Z"/>
  </g>
  <g>
    <rect class="st7" x="71.4" y="88.8" width="21" height="21"/>
    <path class="st123" d="M91.9,89.3v20h-20v-20h20M92.9,88.3h-22v22h22v-22h0Z"/>
  </g>
  <g>
    <rect class="st174" x="91.4" y="88.8" width="21" height="21"/>
    <path class="st123" d="M111.9,89.3v20h-20v-20h20M112.9,88.3h-22v22h22v-22h0Z"/>
  </g>
  <g>
    <rect class="st101" x="111.4" y="88.8" width="21" height="21"/>
    <path class="st123" d="M131.9,89.3v20h-20v-20h20M132.9,88.3h-22v22h22v-22h0Z"/>
  </g>
  <g>
    <rect class="st9" x="131.4" y="88.8" width="21" height="21"/>
    <path class="st123" d="M151.9,89.3v20h-20v-20h20M152.9,88.3h-22v22h22v-22h0Z"/>
  </g>
  <g>
    <rect class="st54" x="151.4" y="88.8" width="21" height="21"/>
    <path class="st123" d="M171.9,89.3v20h-20v-20h20M172.9,88.3h-22v22h22v-22h0Z"/>
  </g>
  <g>
    <rect class="st158" x="171.4" y="88.8" width="21" height="21"/>
    <path class="st123" d="M191.9,89.3v20h-20v-20h20M192.9,88.3h-22v22h22v-22h0Z"/>
  </g>
  <g>
    <rect class="st45" x="191.4" y="88.8" width="21" height="21"/>
    <path class="st123" d="M211.9,89.3v20h-20v-20h20M212.9,88.3h-22v22h22v-22h0Z"/>
  </g>
  <g>
    <rect class="st139" x="211.4" y="88.8" width="21" height="21"/>
    <path class="st123" d="M231.9,89.3v20h-20v-20h20M232.9,88.3h-22v22h22v-22h0Z"/>
  </g>
  <g>
    <rect class="st171" x="231.4" y="88.8" width="21" height="21"/>
    <path class="st123" d="M251.9,89.3v20h-20v-20h20M252.9,88.3h-22v22h22v-22h0Z"/>
  </g>
  <g>
    <rect class="st129" x="251.4" y="88.8" width="21" height="21"/>
    <path class="st123" d="M271.9,89.3v20h-20v-20h20M272.9,88.3h-22v22h22v-22h0Z"/>
  </g>
  <g>
    <rect class="st184" x="271.4" y="88.8" width="21" height="21"/>
    <path class="st123" d="M291.9,89.3v20h-20v-20h20M292.9,88.3h-22v22h22v-22h0Z"/>
  </g>
  <g>
    <rect class="st150" x="291.4" y="88.8" width="21" height="21"/>
    <path class="st123" d="M311.9,89.3v20h-20v-20h20M312.9,88.3h-22v22h22v-22h0Z"/>
  </g>
  <g>
    <rect class="st17" x="311.4" y="88.8" width="21" height="21"/>
    <path class="st123" d="M331.9,89.3v20h-20v-20h20M332.9,88.3h-22v22h22v-22h0Z"/>
  </g>
  <g>
    <rect class="st216" x="331.4" y="88.8" width="21" height="21"/>
    <path class="st123" d="M351.9,89.3v20h-20v-20h20M352.9,88.3h-22v22h22v-22h0Z"/>
  </g>
  <g>
    <rect class="st248" x="71.4" y="108.8" width="21" height="21"/>
    <path class="st123" d="M91.9,109.3v20h-20v-20h20M92.9,108.3h-22v22h22v-22h0Z"/>
  </g>
  <g>
    <rect class="st6" x="91.4" y="108.8" width="21" height="21"/>
    <path class="st123" d="M111.9,109.3v20h-20v-20h20M112.9,108.3h-22v22h22v-22h0Z"/>
  </g>
  <g>
    <rect class="st27" x="111.4" y="108.8" width="21" height="21"/>
    <path class="st123" d="M131.9,109.3v20h-20v-20h20M132.9,108.3h-22v22h22v-22h0Z"/>
  </g>
  <g>
    <rect class="st105" x="131.4" y="108.8" width="21" height="21"/>
    <path class="st123" d="M151.9,109.3v20h-20v-20h20M152.9,108.3h-22v22h22v-22h0Z"/>
  </g>
  <g>
    <rect class="st25" x="151.4" y="108.8" width="21" height="21"/>
    <path class="st123" d="M171.9,109.3v20h-20v-20h20M172.9,108.3h-22v22h22v-22h0Z"/>
  </g>
  <g>
    <rect class="st251" x="171.4" y="108.8" width="21" height="21"/>
    <path class="st123" d="M191.9,109.3v20h-20v-20h20M192.9,108.3h-22v22h22v-22h0Z"/>
  </g>
  <g>
    <rect class="st89" x="191.4" y="108.8" width="21" height="21"/>
    <path class="st123" d="M211.9,109.3v20h-20v-20h20M212.9,108.3h-22v22h22v-22h0Z"/>
  </g>
  <g>
    <rect class="st49" x="211.4" y="108.8" width="21" height="21"/>
    <path class="st123" d="M231.9,109.3v20h-20v-20h20M232.9,108.3h-22v22h22v-22h0Z"/>
  </g>
  <g>
    <rect class="st153" x="231.4" y="108.8" width="21" height="21"/>
    <path class="st123" d="M251.9,109.3v20h-20v-20h20M252.9,108.3h-22v22h22v-22h0Z"/>
  </g>
  <g>
    <rect class="st86" x="251.4" y="108.8" width="21" height="21"/>
    <path class="st123" d="M271.9,109.3v20h-20v-20h20M272.9,108.3h-22v22h22v-22h0Z"/>
  </g>
  <g>
    <rect class="st252" x="271.4" y="108.8" width="21" height="21"/>
    <path class="st123" d="M291.9,109.3v20h-20v-20h20M292.9,108.3h-22v22h22v-22h0Z"/>
  </g>
  <g>
    <rect class="st215" x="291.4" y="108.8" width="21" height="21"/>
    <path class="st123" d="M311.9,109.3v20h-20v-20h20M312.9,108.3h-22v22h22v-22h0Z"/>
  </g>
  <g>
    <rect class="st42" x="311.4" y="108.8" width="21" height="21"/>
    <path class="st123" d="M331.9,109.3v20h-20v-20h20M332.9,108.3h-22v22h22v-22h0Z"/>
  </g>
  <g>
    <rect class="st175" x="331.4" y="108.8" width="21" height="21"/>
    <path class="st123" d="M351.9,109.3v20h-20v-20h20M352.9,108.3h-22v22h22v-22h0Z"/>
  </g>
  <g>
    <rect class="st148" x="71.4" y="128.8" width="21" height="21"/>
    <path class="st123" d="M91.9,129.3v20h-20v-20h20M92.9,128.3h-22v22h22v-22h0Z"/>
  </g>
  <g>
    <rect class="st151" x="91.4" y="128.8" width="21" height="21"/>
    <path class="st123" d="M111.9,129.3v20h-20v-20h20M112.9,128.3h-22v22h22v-22h0Z"/>
  </g>
  <g>
    <rect class="st60" x="111.4" y="128.8" width="21" height="21"/>
    <path class="st123" d="M131.9,129.3v20h-20v-20h20M132.9,128.3h-22v22h22v-22h0Z"/>
  </g>
  <g>
    <rect class="st127" x="131.4" y="128.8" width="21" height="21"/>
    <path class="st123" d="M151.9,129.3v20h-20v-20h20M152.9,128.3h-22v22h22v-22h0Z"/>
  </g>
  <g>
    <rect class="st23" x="151.4" y="128.8" width="21" height="21"/>
    <path class="st123" d="M171.9,129.3v20h-20v-20h20M172.9,128.3h-22v22h22v-22h0Z"/>
  </g>
  <g>
    <rect class="st253" x="171.4" y="128.8" width="21" height="21"/>
    <path class="st123" d="M191.9,129.3v20h-20v-20h20M192.9,128.3h-22v22h22v-22h0Z"/>
  </g>
  <g>
    <rect class="st134" x="191.4" y="128.8" width="21" height="21"/>
    <path class="st123" d="M211.9,129.3v20h-20v-20h20M212.9,128.3h-22v22h22v-22h0Z"/>
  </g>
  <g>
    <rect class="st103" x="211.4" y="128.8" width="21" height="21"/>
    <path class="st123" d="M231.9,129.3v20h-20v-20h20M232.9,128.3h-22v22h22v-22h0Z"/>
  </g>
  <g>
    <rect class="st195" x="231.4" y="128.8" width="21" height="21"/>
    <path class="st123" d="M251.9,129.3v20h-20v-20h20M252.9,128.3h-22v22h22v-22h0Z"/>
  </g>
  <g>
    <rect class="st143" x="251.4" y="128.8" width="21" height="21"/>
    <path class="st123" d="M271.9,129.3v20h-20v-20h20M272.9,128.3h-22v22h22v-22h0Z"/>
  </g>
  <g>
    <rect class="st120" x="271.4" y="128.8" width="21" height="21"/>
    <path class="st123" d="M291.9,129.3v20h-20v-20h20M292.9,128.3h-22v22h22v-22h0Z"/>
  </g>
  <g>
    <rect class="st203" x="291.4" y="128.8" width="21" height="21"/>
    <path class="st123" d="M311.9,129.3v20h-20v-20h20M312.9,128.3h-22v22h22v-22h0Z"/>
  </g>
  <g>
    <rect class="st29" x="311.4" y="128.8" width="21" height="21"/>
    <path class="st123" d="M331.9,129.3v20h-20v-20h20M332.9,128.3h-22v22h22v-22h0Z"/>
  </g>
  <g>
    <rect class="st85" x="331.4" y="128.8" width="21" height="21"/>
    <path class="st123" d="M351.9,129.3v20h-20v-20h20M352.9,128.3h-22v22h22v-22h0Z"/>
  </g>
  <g>
    <path class="st41" d="M50.8,16.1h2.4c.5,0,1,0,1.4.2s.7.4.8.7.3.7.3,1.2,0,.6-.2.9-.3.5-.6.7-.5.3-.9.4h-.3c0,.1-2.2.1-2.2.1v-.8s1.7,0,1.7,0c.3,0,.6,0,.8-.2s.4-.3.5-.5.2-.4.2-.7,0-.5-.2-.7-.3-.4-.5-.5-.5-.2-.9-.2h-1.4v6.3h-.9v-7.1ZM54.9,23.2l-1.7-3.2h1s1.8,3.2,1.8,3.2h0c0,0-1,0-1,0Z"/>
    <path class="st41" d="M57.9,16.1v7.1h-.9v-7.1h.9ZM61.4,16.1v.8h-3.7v-.8h3.7ZM60.9,19.1v.8h-3.3v-.8h3.3ZM61.4,22.4v.8h-3.8v-.8h3.8Z"/>
    <path class="st41" d="M63.5,16.1v7.1h-.9v-7.1h.9ZM64.5,23.2h-1.5v-.8h1.5c.5,0,.9-.1,1.3-.3s.6-.5.8-.9.3-.8.3-1.4v-.4c0-.4,0-.8-.1-1.1s-.2-.6-.4-.8-.4-.4-.7-.5-.6-.2-.9-.2h-1.6v-.8h1.6c.5,0,.9,0,1.3.2s.7.4,1,.7.5.6.6,1.1.2.9.2,1.4v.4c0,.5,0,1-.2,1.4s-.4.8-.6,1.1-.6.5-1,.7-.8.2-1.3.2Z"/>
  </g>
  <g>
    <path class="st41" d="M49.2,40.4h-1.9v-.8h1.9c.4,0,.7,0,.9-.2s.4-.3.5-.5.2-.4.2-.7,0-.5-.2-.7-.3-.4-.5-.5-.5-.2-.9-.2h-1.7v6.3h-.9v-7.1h2.6c.5,0,1,0,1.4.3s.7.4.8.8.3.7.3,1.1,0,.8-.3,1.2-.5.6-.8.7-.8.3-1.4.3Z"/>
    <path class="st41" d="M53.9,36.1v7.1h-.9v-7.1h.9Z"/>
    <path class="st41" d="M61.1,36.1v7.1h-.9l-3.6-5.5v5.5h-.9v-7.1h.9l3.6,5.5v-5.5h.9Z"/>
    <path class="st41" d="M63.7,36.1v7.1h-.9v-7.1h.9ZM68,36.1l-3,3.3-1.7,1.7-.2-1,1.2-1.4,2.4-2.7h1.1ZM67.1,43.2l-2.6-3.5.6-.7,3.2,4.2h-1.1Z"/>
  </g>
  <g>
    <path class="st41" d="M35.3,60.4h-1.9v-.8h1.9c.4,0,.7,0,.9-.2s.4-.3.5-.5.2-.4.2-.7,0-.5-.2-.7-.3-.4-.5-.5-.5-.2-.9-.2h-1.7v6.3h-.9v-7.1h2.6c.5,0,1,0,1.4.3s.7.4.8.8.3.7.3,1.1,0,.8-.3,1.2-.5.6-.8.7-.8.3-1.4.3Z"/>
    <path class="st41" d="M43.1,56.1h.9v4.8c0,.5-.1,1-.4,1.3s-.6.6-.9.8-.8.3-1.3.3-.9,0-1.3-.3-.7-.4-.9-.8-.3-.8-.3-1.3v-4.8h.9v4.8c0,.4,0,.7.2.9s.3.4.6.5.5.2.9.2.6,0,.9-.2.4-.3.6-.5.2-.5.2-.9v-4.8Z"/>
    <path class="st41" d="M45.5,56.1h2.4c.5,0,1,0,1.4.2s.7.4.8.7.3.7.3,1.2,0,.6-.2.9-.3.5-.6.7-.5.3-.9.4h-.3c0,.1-2.2.1-2.2.1v-.8s1.7,0,1.7,0c.3,0,.6,0,.8-.2s.4-.3.5-.5.2-.4.2-.7,0-.5-.2-.7-.3-.4-.5-.5-.5-.2-.9-.2h-1.4v6.3h-.9v-7.1ZM49.6,63.2l-1.7-3.2h1s1.8,3.2,1.8,3.2h0c0,0-1,0-1,0Z"/>
    <path class="st41" d="M54.3,60.4h-1.9v-.8h1.9c.4,0,.7,0,.9-.2s.4-.3.5-.5.2-.4.2-.7,0-.5-.2-.7-.3-.4-.5-.5-.5-.2-.9-.2h-1.7v6.3h-.9v-7.1h2.6c.5,0,1,0,1.4.3s.7.4.8.8.3.7.3,1.1,0,.8-.3,1.2-.5.6-.8.7-.8.3-1.4.3Z"/>
    <path class="st41" d="M58.9,56.1v7.1h-.9v-7.1h.9ZM62.3,62.4v.8h-3.6v-.8h3.6Z"/>
    <path class="st41" d="M64.3,56.1v7.1h-.9v-7.1h.9ZM67.8,56.1v.8h-3.7v-.8h3.7ZM67.4,59.2v.8h-3.3v-.8h3.3ZM67.9,62.4v.8h-3.8v-.8h3.8Z"/>
  </g>
  <g>
    <path class="st41" d="M6.9,76.1v7.1h-.9v-7.1h.9ZM7.9,83.2h-1.5v-.8h1.5c.5,0,.9-.1,1.3-.3s.6-.5.8-.9.3-.8.3-1.4v-.4c0-.4,0-.8-.1-1.1s-.2-.6-.4-.8-.4-.4-.7-.5-.6-.2-.9-.2h-1.6v-.8h1.6c.5,0,.9,0,1.3.2s.7.4,1,.7.5.6.6,1.1.2.9.2,1.4v.4c0,.5,0,1-.2,1.4s-.4.8-.6,1.1-.6.5-1,.7-.8.2-1.3.2Z"/>
    <path class="st41" d="M13.5,76.1v7.1h-.9v-7.1h.9ZM17,76.1v.8h-3.7v-.8h3.7ZM16.6,79.2v.8h-3.3v-.8h3.3ZM17.1,82.5v.8h-3.8v-.8h3.8Z"/>
    <path class="st41" d="M19.2,76.1v7.1h-.9v-7.1h.9ZM22.7,76.1v.8h-3.7v-.8h3.7ZM22.2,79.2v.8h-3.3v-.8h3.3ZM22.7,82.5v.8h-3.8v-.8h3.8Z"/>
    <path class="st41" d="M26.5,80.4h-1.9v-.8h1.9c.4,0,.7,0,.9-.2s.4-.3.5-.5.2-.4.2-.7,0-.5-.2-.7-.3-.4-.5-.5-.5-.2-.9-.2h-1.7v6.3h-.9v-7.1h2.6c.5,0,1,0,1.4.3s.7.4.8.8.3.7.3,1.1,0,.8-.3,1.2-.5.6-.8.7-.8.3-1.4.3Z"/>
    <path class="st41" d="M35.3,80.4h-1.9v-.8h1.9c.4,0,.7,0,.9-.2s.4-.3.5-.5.2-.4.2-.7,0-.5-.2-.7-.3-.4-.5-.5-.5-.2-.9-.2h-1.7v6.3h-.9v-7.1h2.6c.5,0,1,0,1.4.3s.7.4.8.8.3.7.3,1.1,0,.8-.3,1.2-.5.6-.8.7-.8.3-1.4.3Z"/>
    <path class="st41" d="M43.1,76.1h.9v4.8c0,.5-.1,1-.4,1.3s-.6.6-.9.8-.8.3-1.3.3-.9,0-1.3-.3-.7-.4-.9-.8-.3-.8-.3-1.3v-4.8h.9v4.8c0,.4,0,.7.2.9s.3.4.6.5.5.2.9.2.6,0,.9-.2.4-.3.6-.5.2-.5.2-.9v-4.8Z"/>
    <path class="st41" d="M45.5,76.1h2.4c.5,0,1,0,1.4.2s.7.4.8.7.3.7.3,1.2,0,.6-.2.9-.3.5-.6.7-.5.3-.9.4h-.3c0,.1-2.2.1-2.2.1v-.8s1.7,0,1.7,0c.3,0,.6,0,.8-.2s.4-.3.5-.5.2-.4.2-.7,0-.5-.2-.7-.3-.4-.5-.5-.5-.2-.9-.2h-1.4v6.3h-.9v-7.1ZM49.6,83.2l-1.7-3.2h1s1.8,3.2,1.8,3.2h0c0,0-1,0-1,0Z"/>
    <path class="st41" d="M54.3,80.4h-1.9v-.8h1.9c.4,0,.7,0,.9-.2s.4-.3.5-.5.2-.4.2-.7,0-.5-.2-.7-.3-.4-.5-.5-.5-.2-.9-.2h-1.7v6.3h-.9v-7.1h2.6c.5,0,1,0,1.4.3s.7.4.8.8.3.7.3,1.1,0,.8-.3,1.2-.5.6-.8.7-.8.3-1.4.3Z"/>
    <path class="st41" d="M58.9,76.1v7.1h-.9v-7.1h.9ZM62.3,82.5v.8h-3.6v-.8h3.6Z"/>
    <path class="st41" d="M64.3,76.1v7.1h-.9v-7.1h.9ZM67.8,76.1v.8h-3.7v-.8h3.7ZM67.4,79.2v.8h-3.3v-.8h3.3ZM67.9,82.5v.8h-3.8v-.8h3.8Z"/>
  </g>
  <g>
    <path class="st41" d="M37.2,96.1v7.1h-.9v-7.1h.9Z"/>
    <path class="st41" d="M44.4,96.1v7.1h-.9l-3.6-5.5v5.5h-.9v-7.1h.9l3.6,5.5v-5.5h.9Z"/>
    <path class="st41" d="M47,96.1v7.1h-.9v-7.1h.9ZM48,103.3h-1.5v-.8h1.5c.5,0,.9-.1,1.3-.3s.6-.5.8-.9.3-.8.3-1.4v-.4c0-.4,0-.8-.1-1.1s-.2-.6-.4-.8-.4-.4-.7-.5-.6-.2-.9-.2h-1.6v-.8h1.6c.5,0,.9,0,1.3.2s.7.4,1,.7.5.6.6,1.1.2.9.2,1.4v.4c0,.5,0,1-.2,1.4s-.4.8-.6,1.1-.6.5-1,.7-.8.2-1.3.2Z"/>
    <path class="st41" d="M53.6,96.1v7.1h-.9v-7.1h.9Z"/>
    <path class="st41" d="M60.6,99.7v2.6c0,.1-.2.3-.4.4s-.5.3-.8.4-.8.2-1.3.2-.8,0-1.2-.2-.7-.4-.9-.7-.5-.6-.6-1.1-.2-.9-.2-1.4v-.6c0-.5,0-1,.2-1.4s.3-.8.6-1.1.5-.5.9-.7.8-.2,1.2-.2,1,0,1.4.3.7.4.9.8.3.7.4,1.1h-.9c0-.3-.1-.5-.3-.7s-.3-.4-.5-.5-.5-.2-.9-.2-.6,0-.9.2-.4.3-.6.5-.3.5-.3.8-.1.7-.1,1.1v.6c0,.4,0,.8.1,1.1s.2.6.4.8.4.4.6.5.5.2.8.2.6,0,.8,0,.4-.1.5-.2.2-.2.3-.2v-1.6h-1.6v-.8h2.6Z"/>
    <path class="st41" d="M67.6,99.5v.4c0,.5,0,1-.2,1.4s-.3.8-.6,1.1-.6.5-.9.7-.7.2-1.2.2-.8,0-1.2-.2-.7-.4-.9-.7-.5-.7-.6-1.1-.2-.9-.2-1.4v-.4c0-.5,0-1,.2-1.4s.3-.8.6-1.1.6-.5.9-.7.7-.2,1.2-.2.8,0,1.2.2.7.4.9.7.4.7.6,1.1.2.9.2,1.4ZM66.7,99.9v-.5c0-.4,0-.8-.1-1.1s-.2-.6-.4-.8-.4-.4-.6-.5-.5-.2-.8-.2-.6,0-.8.2-.4.3-.6.5-.3.5-.4.8-.1.7-.1,1.1v.5c0,.4,0,.8.1,1.1s.2.6.4.8.4.4.6.5.5.2.8.2.6,0,.8-.2.4-.3.6-.5.3-.5.4-.8.1-.7.1-1.1Z"/>
  </g>
  <g>
    <path class="st41" d="M48,119.9h-1.8v-.8s1.6,0,1.6,0c.3,0,.5,0,.7-.1s.4-.2.5-.4.2-.4.2-.6,0-.5-.1-.6-.3-.3-.5-.4-.5-.1-.8-.1h-1.4v6.3h-.9v-7.1h2.3c.4,0,.7,0,1,.1s.5.2.7.3.4.4.5.6.2.5.2.9,0,.6-.2.8-.4.4-.6.6-.6.2-.9.3l-.3.2ZM48,123.3h-2.1l.5-.8h1.6c.3,0,.6,0,.8-.2s.4-.3.5-.4.2-.4.2-.7,0-.5-.1-.7-.2-.3-.4-.4-.5-.2-.8-.2h-1.3v-.8h1.8l.2.3c.3,0,.6.1.9.3s.4.4.5.6.2.5.2.8c0,.4,0,.8-.3,1.1s-.5.5-.8.7-.8.2-1.2.2Z"/>
    <path class="st41" d="M52.7,116.2v7.1h-.9v-7.1h.9ZM56,122.5v.8h-3.6v-.8h3.6Z"/>
    <path class="st41" d="M60.9,116.2h.9v4.8c0,.5-.1,1-.4,1.3s-.6.6-.9.8-.8.3-1.3.3-.9,0-1.3-.3-.7-.4-.9-.8-.3-.8-.3-1.3v-4.8h.9v4.8c0,.4,0,.7.2.9s.3.4.6.5.5.2.9.2.6,0,.9-.2.4-.3.6-.5.2-.5.2-.9v-4.8Z"/>
    <path class="st41" d="M64.3,116.2v7.1h-.9v-7.1h.9ZM67.8,116.2v.8h-3.7v-.8h3.7ZM67.4,119.2v.8h-3.3v-.8h3.3ZM67.9,122.5v.8h-3.8v-.8h3.8Z"/>
  </g>
  <g>
    <path class="st41" d="M16.3,136.2v7.1h-.9v-7.1h.9ZM19.7,142.5v.8h-3.6v-.8h3.6Z"/>
    <path class="st41" d="M21.7,136.2v7.1h-.9v-7.1h.9Z"/>
    <path class="st41" d="M28.7,139.8v2.6c0,.1-.2.3-.4.4s-.5.3-.8.4-.8.2-1.3.2-.8,0-1.2-.2-.7-.4-.9-.7-.5-.6-.6-1.1-.2-.9-.2-1.4v-.6c0-.5,0-1,.2-1.4s.3-.8.6-1.1.5-.5.9-.7.8-.2,1.2-.2,1,0,1.4.3.7.4.9.8.3.7.4,1.1h-.9c0-.3-.1-.5-.3-.7s-.3-.4-.5-.5-.5-.2-.9-.2-.6,0-.9.2-.4.3-.6.5-.3.5-.3.8-.1.7-.1,1.1v.6c0,.4,0,.8.1,1.1s.2.6.4.8.4.4.6.5.5.2.8.2.6,0,.8,0,.4-.1.5-.2.2-.2.3-.2v-1.6h-1.6v-.8h2.6Z"/>
    <path class="st41" d="M31.2,136.2v7.1h-.9v-7.1h.9ZM34.9,139.2v.8h-3.8v-.8h3.8ZM35.7,136.2v7.1h-.9v-7.1h.9Z"/>
    <path class="st41" d="M42.2,136.2v.8h-5.5v-.8h5.5ZM39.9,136.2v7.1h-.9v-7.1h.9Z"/>
    <path class="st41" d="M48,140h-1.8v-.8s1.6,0,1.6,0c.3,0,.5,0,.7-.1s.4-.2.5-.4.2-.4.2-.6,0-.5-.1-.6-.3-.3-.5-.4-.5-.1-.8-.1h-1.4v6.3h-.9v-7.1h2.3c.4,0,.7,0,1,.1s.5.2.7.3.4.4.5.6.2.5.2.9,0,.6-.2.8-.4.4-.6.6-.6.2-.9.3l-.3.2ZM48,143.3h-2.1l.5-.8h1.6c.3,0,.6,0,.8-.2s.4-.3.5-.4.2-.4.2-.7,0-.5-.1-.7-.2-.3-.4-.4-.5-.2-.8-.2h-1.3v-.8h1.8l.2.3c.3,0,.6.1.9.3s.4.4.5.6.2.5.2.8c0,.4,0,.8-.3,1.1s-.5.5-.8.7-.8.2-1.2.2Z"/>
    <path class="st41" d="M52.7,136.2v7.1h-.9v-7.1h.9ZM56,142.5v.8h-3.6v-.8h3.6Z"/>
    <path class="st41" d="M60.9,136.2h.9v4.8c0,.5-.1,1-.4,1.3s-.6.6-.9.8-.8.3-1.3.3-.9,0-1.3-.3-.7-.4-.9-.8-.3-.8-.3-1.3v-4.8h.9v4.8c0,.4,0,.7.2.9s.3.4.6.5.5.2.9.2.6,0,.9-.2.4-.3.6-.5.2-.5.2-.9v-4.8Z"/>
    <path class="st41" d="M64.3,136.2v7.1h-.9v-7.1h.9ZM67.8,136.2v.8h-3.7v-.8h3.7ZM67.4,139.2v.8h-3.3v-.8h3.3ZM67.9,142.5v.8h-3.8v-.8h3.8Z"/>
  </g>
  <g>
    <rect class="st43" x="71.4" y="148.8" width="21" height="21"/>
    <path class="st123" d="M91.9,149.3v20h-20v-20h20M92.9,148.3h-22v22h22v-22h0Z"/>
  </g>
  <g>
    <rect class="st165" x="91.4" y="148.8" width="21" height="21"/>
    <path class="st123" d="M111.9,149.3v20h-20v-20h20M112.9,148.3h-22v22h22v-22h0Z"/>
  </g>
  <g>
    <rect class="st228" x="111.4" y="148.8" width="21" height="21"/>
    <path class="st123" d="M131.9,149.3v20h-20v-20h20M132.9,148.3h-22v22h22v-22h0Z"/>
  </g>
  <g>
    <rect class="st132" x="131.4" y="148.8" width="21" height="21"/>
    <path class="st123" d="M151.9,149.3v20h-20v-20h20M152.9,148.3h-22v22h22v-22h0Z"/>
  </g>
  <g>
    <rect class="st232" x="151.4" y="148.8" width="21" height="21"/>
    <path class="st123" d="M171.9,149.3v20h-20v-20h20M172.9,148.3h-22v22h22v-22h0Z"/>
  </g>
  <g>
    <rect class="st79" x="171.4" y="148.8" width="21" height="21"/>
    <path class="st123" d="M191.9,149.3v20h-20v-20h20M192.9,148.3h-22v22h22v-22h0Z"/>
  </g>
  <g>
    <rect class="st92" x="191.4" y="148.8" width="21" height="21"/>
    <path class="st123" d="M211.9,149.3v20h-20v-20h20M212.9,148.3h-22v22h22v-22h0Z"/>
  </g>
  <g>
    <rect class="st8" x="211.4" y="148.8" width="21" height="21"/>
    <path class="st123" d="M231.9,149.3v20h-20v-20h20M232.9,148.3h-22v22h22v-22h0Z"/>
  </g>
  <g>
    <rect class="st137" x="231.4" y="148.8" width="21" height="21"/>
    <path class="st123" d="M251.9,149.3v20h-20v-20h20M252.9,148.3h-22v22h22v-22h0Z"/>
  </g>
  <g>
    <rect class="st130" x="251.4" y="148.8" width="21" height="21"/>
    <path class="st123" d="M271.9,149.3v20h-20v-20h20M272.9,148.3h-22v22h22v-22h0Z"/>
  </g>
  <g>
    <rect class="st220" x="271.4" y="148.8" width="21" height="21"/>
    <path class="st123" d="M291.9,149.3v20h-20v-20h20M292.9,148.3h-22v22h22v-22h0Z"/>
  </g>
  <g>
    <rect class="st199" x="291.4" y="148.8" width="21" height="21"/>
    <path class="st123" d="M311.9,149.3v20h-20v-20h20M312.9,148.3h-22v22h22v-22h0Z"/>
  </g>
  <g>
    <rect class="st12" x="311.4" y="148.8" width="21" height="21"/>
    <path class="st123" d="M331.9,149.3v20h-20v-20h20M332.9,148.3h-22v22h22v-22h0Z"/>
  </g>
  <g>
    <rect class="st208" x="331.4" y="148.8" width="21" height="21"/>
    <path class="st123" d="M351.9,149.3v20h-20v-20h20M352.9,148.3h-22v22h22v-22h0Z"/>
  </g>
  <g>
    <path class="st41" d="M47.6,161h.9c0,.4-.2.9-.4,1.2s-.5.6-.9.8-.9.3-1.4.3-.8,0-1.1-.2-.6-.4-.9-.7-.4-.6-.6-1-.2-.9-.2-1.4v-.7c0-.5,0-.9.2-1.4s.3-.8.6-1,.5-.5.9-.7.7-.2,1.2-.2,1,.1,1.4.3.7.5.9.8.3.8.4,1.2h-.9c0-.3-.1-.6-.3-.9s-.3-.4-.5-.6-.5-.2-.9-.2-.6,0-.8.2-.4.3-.6.5-.3.5-.4.8-.1.7-.1,1v.7c0,.3,0,.7.1,1s.2.6.3.8.3.4.6.5.5.2.8.2.7,0,1-.2.4-.3.5-.5.2-.5.3-.9Z"/>
    <path class="st41" d="M50.1,156.2l1.8,3.6,1.9-3.6h1.1l-2.5,4.5v2.7h-.9v-2.7l-2.5-4.5h1.1Z"/>
    <path class="st41" d="M58,156.8l-2.4,6.5h-1l2.7-7.1h.6v.6ZM59.9,160.7v.8h-4v-.8h4ZM60,163.3l-2.4-6.5v-.6s.6,0,.6,0l2.7,7.1h-1Z"/>
    <path class="st41" d="M67.4,156.2v7.1h-.9l-3.6-5.5v5.5h-.9v-7.1h.9l3.6,5.5v-5.5h.9Z"/>
  </g>
  <g>
    <rect class="st87" x="71.4" y="168.8" width="21" height="21"/>
    <path class="st123" d="M91.9,169.3v20h-20v-20h20M92.9,168.3h-22v22h22v-22h0Z"/>
  </g>
  <g>
    <rect class="st80" x="91.4" y="168.8" width="21" height="21"/>
    <path class="st123" d="M111.9,169.3v20h-20v-20h20M112.9,168.3h-22v22h22v-22h0Z"/>
  </g>
  <g>
    <rect class="st207" x="111.4" y="168.8" width="21" height="21"/>
    <path class="st123" d="M131.9,169.3v20h-20v-20h20M132.9,168.3h-22v22h22v-22h0Z"/>
  </g>
  <g>
    <rect class="st131" x="131.4" y="168.8" width="21" height="21"/>
    <path class="st123" d="M151.9,169.3v20h-20v-20h20M152.9,168.3h-22v22h22v-22h0Z"/>
  </g>
  <g>
    <rect class="st46" x="151.4" y="168.8" width="21" height="21"/>
    <path class="st123" d="M171.9,169.3v20h-20v-20h20M172.9,168.3h-22v22h22v-22h0Z"/>
  </g>
  <g>
    <rect class="st116" x="171.4" y="168.8" width="21" height="21"/>
    <path class="st123" d="M191.9,169.3v20h-20v-20h20M192.9,168.3h-22v22h22v-22h0Z"/>
  </g>
  <g>
    <rect class="st222" x="191.4" y="168.8" width="21" height="21"/>
    <path class="st123" d="M211.9,169.3v20h-20v-20h20M212.9,168.3h-22v22h22v-22h0Z"/>
  </g>
  <g>
    <rect class="st241" x="211.4" y="168.8" width="21" height="21"/>
    <path class="st123" d="M231.9,169.3v20h-20v-20h20M232.9,168.3h-22v22h22v-22h0Z"/>
  </g>
  <g>
    <rect class="st161" x="231.4" y="168.8" width="21" height="21"/>
    <path class="st123" d="M251.9,169.3v20h-20v-20h20M252.9,168.3h-22v22h22v-22h0Z"/>
  </g>
  <g>
    <rect class="st32" x="251.4" y="168.8" width="21" height="21"/>
    <path class="st123" d="M271.9,169.3v20h-20v-20h20M272.9,168.3h-22v22h22v-22h0Z"/>
  </g>
  <g>
    <rect class="st125" x="271.4" y="168.8" width="21" height="21"/>
    <path class="st123" d="M291.9,169.3v20h-20v-20h20M292.9,168.3h-22v22h22v-22h0Z"/>
  </g>
  <g>
    <rect class="st40" x="291.4" y="168.8" width="21" height="21"/>
    <path class="st123" d="M311.9,169.3v20h-20v-20h20M312.9,168.3h-22v22h22v-22h0Z"/>
  </g>
  <g>
    <rect class="st214" x="311.4" y="168.8" width="21" height="21"/>
    <path class="st123" d="M331.9,169.3v20h-20v-20h20M332.9,168.3h-22v22h22v-22h0Z"/>
  </g>
  <g>
    <rect class="st1" x="331.4" y="168.8" width="21" height="21"/>
    <path class="st123" d="M351.9,169.3v20h-20v-20h20M352.9,168.3h-22v22h22v-22h0Z"/>
  </g>
  <g>
    <path class="st41" d="M50.4,176.2v.8h-5.5v-.8h5.5ZM48.1,176.2v7.1h-.9v-7.1h.9Z"/>
    <path class="st41" d="M52.4,176.2v7.1h-.9v-7.1h.9ZM55.9,176.2v.8h-3.7v-.8h3.7ZM55.5,179.2v.8h-3.3v-.8h3.3ZM56,182.5v.8h-3.8v-.8h3.8Z"/>
    <path class="st41" d="M59.7,176.8l-2.4,6.5h-1l2.7-7.1h.6v.6ZM61.6,180.7v.8h-4v-.8h4ZM61.7,183.3l-2.4-6.5v-.6s.6,0,.6,0l2.7,7.1h-1Z"/>
    <path class="st41" d="M64.6,176.2v7.1h-.9v-7.1h.9ZM68,182.5v.8h-3.6v-.8h3.6Z"/>
  </g>
  <g>
    <rect class="st128" x="71.4" y="188.8" width="21" height="21"/>
    <path class="st123" d="M91.9,189.3v20h-20v-20h20M92.9,188.3h-22v22h22v-22h0Z"/>
  </g>
  <g>
    <rect class="st147" x="91.4" y="188.8" width="21" height="21"/>
    <path class="st123" d="M111.9,189.3v20h-20v-20h20M112.9,188.3h-22v22h22v-22h0Z"/>
  </g>
  <g>
    <rect class="st77" x="111.4" y="188.8" width="21" height="21"/>
    <path class="st123" d="M131.9,189.3v20h-20v-20h20M132.9,188.3h-22v22h22v-22h0Z"/>
  </g>
  <g>
    <rect class="st164" x="131.4" y="188.8" width="21" height="21"/>
    <path class="st123" d="M151.9,189.3v20h-20v-20h20M152.9,188.3h-22v22h22v-22h0Z"/>
  </g>
  <g>
    <rect class="st107" x="151.4" y="188.8" width="21" height="21"/>
    <path class="st123" d="M171.9,189.3v20h-20v-20h20M172.9,188.3h-22v22h22v-22h0Z"/>
  </g>
  <g>
    <rect class="st99" x="171.4" y="188.8" width="21" height="21"/>
    <path class="st123" d="M191.9,189.3v20h-20v-20h20M192.9,188.3h-22v22h22v-22h0Z"/>
  </g>
  <g>
    <rect class="st66" x="191.4" y="188.8" width="21" height="21"/>
    <path class="st123" d="M211.9,189.3v20h-20v-20h20M212.9,188.3h-22v22h22v-22h0Z"/>
  </g>
  <g>
    <rect class="st197" x="211.4" y="188.8" width="21" height="21"/>
    <path class="st123" d="M231.9,189.3v20h-20v-20h20M232.9,188.3h-22v22h22v-22h0Z"/>
  </g>
  <g>
    <rect class="st179" x="231.4" y="188.8" width="21" height="21"/>
    <path class="st123" d="M251.9,189.3v20h-20v-20h20M252.9,188.3h-22v22h22v-22h0Z"/>
  </g>
  <g>
    <rect class="st188" x="251.4" y="188.8" width="21" height="21"/>
    <path class="st123" d="M271.9,189.3v20h-20v-20h20M272.9,188.3h-22v22h22v-22h0Z"/>
  </g>
  <g>
    <rect class="st22" x="271.4" y="188.8" width="21" height="21"/>
    <path class="st123" d="M291.9,189.3v20h-20v-20h20M292.9,188.3h-22v22h22v-22h0Z"/>
  </g>
  <g>
    <rect class="st142" x="291.4" y="188.8" width="21" height="21"/>
    <path class="st123" d="M311.9,189.3v20h-20v-20h20M312.9,188.3h-22v22h22v-22h0Z"/>
  </g>
  <g>
    <rect class="st145" x="311.4" y="188.8" width="21" height="21"/>
    <path class="st123" d="M331.9,189.3v20h-20v-20h20M332.9,188.3h-22v22h22v-22h0Z"/>
  </g>
  <g>
    <rect class="st154" x="331.4" y="188.8" width="21" height="21"/>
    <path class="st123" d="M351.9,189.3v20h-20v-20h20M352.9,188.3h-22v22h22v-22h0Z"/>
  </g>
  <g>
    <path class="st41" d="M42.8,199.8v2.6c0,.1-.2.3-.4.4s-.5.3-.8.4-.8.2-1.3.2-.8,0-1.2-.2-.7-.4-.9-.7-.5-.6-.6-1.1-.2-.9-.2-1.4v-.6c0-.5,0-1,.2-1.4s.3-.8.6-1.1.5-.5.9-.7.8-.2,1.2-.2,1,0,1.4.3.7.4.9.8.3.7.4,1.1h-.9c0-.3-.1-.5-.3-.7s-.3-.4-.5-.5-.5-.2-.9-.2-.6,0-.9.2-.4.3-.6.5-.3.5-.3.8-.1.7-.1,1.1v.6c0,.4,0,.8.1,1.1s.2.6.4.8.4.4.6.5.5.2.8.2.6,0,.8,0,.4-.1.5-.2.2-.2.3-.2v-1.6h-1.6v-.8h2.6Z"/>
    <path class="st41" d="M44.4,196.2h2.4c.5,0,1,0,1.4.2s.7.4.8.7.3.7.3,1.2,0,.6-.2.9-.3.5-.6.7-.5.3-.9.4h-.3c0,.1-2.2.1-2.2.1v-.8s1.7,0,1.7,0c.3,0,.6,0,.8-.2s.4-.3.5-.5.2-.4.2-.7,0-.5-.2-.7-.3-.4-.5-.5-.5-.2-.9-.2h-1.4v6.3h-.9v-7.1ZM48.5,203.3l-1.7-3.2h1s1.8,3.2,1.8,3.2h0c0,0-1,0-1,0Z"/>
    <path class="st41" d="M51.5,196.2v7.1h-.9v-7.1h.9ZM55,196.2v.8h-3.7v-.8h3.7ZM54.5,199.2v.8h-3.3v-.8h3.3ZM55,202.5v.8h-3.8v-.8h3.8Z"/>
    <path class="st41" d="M57.2,196.2v7.1h-.9v-7.1h.9ZM60.7,196.2v.8h-3.7v-.8h3.7ZM60.2,199.2v.8h-3.3v-.8h3.3ZM60.7,202.5v.8h-3.8v-.8h3.8Z"/>
    <path class="st41" d="M67.4,196.2v7.1h-.9l-3.6-5.5v5.5h-.9v-7.1h.9l3.6,5.5v-5.5h.9Z"/>
  </g>
  <g>
    <rect class="st13" x="71.4" y="208.8" width="21" height="21"/>
    <path class="st123" d="M91.9,209.3v20h-20v-20h20M92.9,208.3h-22v22h22v-22h0Z"/>
  </g>
  <g>
    <rect class="st91" x="91.4" y="208.8" width="21" height="21"/>
    <path class="st123" d="M111.9,209.3v20h-20v-20h20M112.9,208.3h-22v22h22v-22h0Z"/>
  </g>
  <g>
    <rect class="st78" x="111.4" y="208.8" width="21" height="21"/>
    <path class="st123" d="M131.9,209.3v20h-20v-20h20M132.9,208.3h-22v22h22v-22h0Z"/>
  </g>
  <g>
    <rect class="st254" x="131.4" y="208.8" width="21" height="21"/>
    <path class="st123" d="M151.9,209.3v20h-20v-20h20M152.9,208.3h-22v22h22v-22h0Z"/>
  </g>
  <g>
    <rect class="st157" x="151.4" y="208.8" width="21" height="21"/>
    <path class="st123" d="M171.9,209.3v20h-20v-20h20M172.9,208.3h-22v22h22v-22h0Z"/>
  </g>
  <g>
    <rect class="st35" x="171.4" y="208.8" width="21" height="21"/>
    <path class="st123" d="M191.9,209.3v20h-20v-20h20M192.9,208.3h-22v22h22v-22h0Z"/>
  </g>
  <g>
    <rect class="st242" x="191.4" y="208.8" width="21" height="21"/>
    <path class="st123" d="M211.9,209.3v20h-20v-20h20M212.9,208.3h-22v22h22v-22h0Z"/>
  </g>
  <g>
    <rect class="st191" x="211.4" y="208.8" width="21" height="21"/>
    <path class="st123" d="M231.9,209.3v20h-20v-20h20M232.9,208.3h-22v22h22v-22h0Z"/>
  </g>
  <g>
    <rect class="st97" x="231.4" y="208.8" width="21" height="21"/>
    <path class="st123" d="M251.9,209.3v20h-20v-20h20M252.9,208.3h-22v22h22v-22h0Z"/>
  </g>
  <g>
    <rect class="st70" x="251.4" y="208.8" width="21" height="21"/>
    <path class="st123" d="M271.9,209.3v20h-20v-20h20M272.9,208.3h-22v22h22v-22h0Z"/>
  </g>
  <g>
    <rect class="st33" x="271.4" y="208.8" width="21" height="21"/>
    <path class="st123" d="M291.9,209.3v20h-20v-20h20M292.9,208.3h-22v22h22v-22h0Z"/>
  </g>
  <g>
    <rect class="st16" x="291.4" y="208.8" width="21" height="21"/>
    <path class="st123" d="M311.9,209.3v20h-20v-20h20M312.9,208.3h-22v22h22v-22h0Z"/>
  </g>
  <g>
    <rect class="st239" x="311.4" y="208.8" width="21" height="21"/>
    <path class="st123" d="M331.9,209.3v20h-20v-20h20M332.9,208.3h-22v22h22v-22h0Z"/>
  </g>
  <g>
    <rect class="st0" x="331.4" y="208.8" width="21" height="21"/>
    <path class="st123" d="M351.9,209.3v20h-20v-20h20M352.9,208.3h-22v22h22v-22h0Z"/>
  </g>
  <g>
    <path class="st41" d="M8.3,216.2v7.1h-.9v-7.1h.9ZM11.7,222.5v.8h-3.6v-.8h3.6Z"/>
    <path class="st41" d="M13.8,216.2v7.1h-.9v-7.1h.9Z"/>
    <path class="st41" d="M20.8,219.8v2.6c0,.1-.2.3-.4.4s-.5.3-.8.4c-.3.1-.8.2-1.3.2s-.8,0-1.2-.2-.7-.4-.9-.7c-.3-.3-.5-.6-.6-1.1-.1-.4-.2-.9-.2-1.4v-.6c0-.5,0-1,.2-1.4.1-.4.3-.8.6-1.1.2-.3.5-.5.9-.7s.8-.2,1.2-.2,1,0,1.4.3c.4.2.7.4.9.8.2.3.3.7.4,1.1h-.9c0-.3-.1-.5-.3-.7-.1-.2-.3-.4-.5-.5-.2-.1-.5-.2-.9-.2s-.6,0-.9.2c-.2.1-.4.3-.6.5s-.3.5-.3.8c0,.3-.1.7-.1,1.1v.6c0,.4,0,.8.1,1.1s.2.6.4.8c.2.2.4.4.6.5s.5.2.8.2.6,0,.8,0c.2,0,.4-.1.5-.2.1,0,.2-.2.3-.2v-1.6h-1.6v-.8h2.6Z"/>
    <path class="st41" d="M23.2,216.2v7.1h-.9v-7.1h.9ZM27,219.2v.8h-3.8v-.8h3.8ZM27.8,216.2v7.1h-.9v-7.1h.9Z"/>
    <path class="st41" d="M34.2,216.2v.8h-5.5v-.8h5.5ZM31.9,216.2v7.1h-.9v-7.1h.9Z"/>
    <path class="st41" d="M42.8,219.8v2.6c0,.1-.2.3-.4.4s-.5.3-.8.4c-.3.1-.8.2-1.3.2s-.8,0-1.2-.2-.7-.4-.9-.7c-.3-.3-.5-.6-.6-1.1-.1-.4-.2-.9-.2-1.4v-.6c0-.5,0-1,.2-1.4.1-.4.3-.8.6-1.1.2-.3.5-.5.9-.7s.8-.2,1.2-.2,1,0,1.4.3c.4.2.7.4.9.8.2.3.3.7.4,1.1h-.9c0-.3-.1-.5-.3-.7-.1-.2-.3-.4-.5-.5-.2-.1-.5-.2-.9-.2s-.6,0-.9.2c-.2.1-.4.3-.6.5s-.3.5-.3.8c0,.3-.1.7-.1,1.1v.6c0,.4,0,.8.1,1.1s.2.6.4.8c.2.2.4.4.6.5s.5.2.8.2.6,0,.8,0c.2,0,.4-.1.5-.2.1,0,.2-.2.3-.2v-1.6h-1.6v-.8h2.6Z"/>
    <path class="st41" d="M44.4,216.2h2.4c.5,0,1,0,1.4.2.4.2.7.4.8.7s.3.7.3,1.2,0,.6-.2.9-.3.5-.6.7c-.2.2-.5.3-.9.4h-.3c0,.1-2.2.1-2.2.1v-.8s1.7,0,1.7,0c.3,0,.6,0,.8-.2.2-.1.4-.3.5-.5.1-.2.2-.4.2-.7s0-.5-.2-.7-.3-.4-.5-.5-.5-.2-.9-.2h-1.4v6.3h-.9v-7.1ZM48.5,223.3l-1.7-3.2h1s1.8,3.2,1.8,3.2h0c0,0-1,0-1,0Z"/>
    <path class="st41" d="M51.5,216.2v7.1h-.9v-7.1h.9ZM55,216.2v.8h-3.7v-.8h3.7ZM54.5,219.2v.8h-3.3v-.8h3.3ZM55,222.5v.8h-3.8v-.8h3.8Z"/>
    <path class="st41" d="M57.2,216.2v7.1h-.9v-7.1h.9ZM60.7,216.2v.8h-3.7v-.8h3.7ZM60.2,219.2v.8h-3.3v-.8h3.3ZM60.7,222.5v.8h-3.8v-.8h3.8Z"/>
    <path class="st41" d="M67.4,216.2v7.1h-.9l-3.6-5.5v5.5h-.9v-7.1h.9l3.6,5.5v-5.5h.9Z"/>
  </g>
  <g>
    <rect class="st56" x="71.4" y="228.8" width="21" height="21"/>
    <path class="st123" d="M91.9,229.3v20h-20v-20h20M92.9,228.3h-22v22h22v-22h0Z"/>
  </g>
  <g>
    <rect class="st219" x="91.4" y="228.8" width="21" height="21"/>
    <path class="st123" d="M111.9,229.3v20h-20v-20h20M112.9,228.3h-22v22h22v-22h0Z"/>
  </g>
  <g>
    <rect class="st82" x="111.4" y="228.8" width="21" height="21"/>
    <path class="st123" d="M131.9,229.3v20h-20v-20h20M132.9,228.3h-22v22h22v-22h0Z"/>
  </g>
  <g>
    <rect class="st196" x="131.4" y="228.8" width="21" height="21"/>
    <path class="st123" d="M151.9,229.3v20h-20v-20h20M152.9,228.3h-22v22h22v-22h0Z"/>
  </g>
  <g>
    <rect class="st146" x="151.4" y="228.8" width="21" height="21"/>
    <path class="st123" d="M171.9,229.3v20h-20v-20h20M172.9,228.3h-22v22h22v-22h0Z"/>
  </g>
  <g>
    <rect class="st244" x="171.4" y="228.8" width="21" height="21"/>
    <path class="st123" d="M191.9,229.3v20h-20v-20h20M192.9,228.3h-22v22h22v-22h0Z"/>
  </g>
  <g>
    <rect class="st110" x="191.4" y="228.8" width="21" height="21"/>
    <path class="st123" d="M211.9,229.3v20h-20v-20h20M212.9,228.3h-22v22h22v-22h0Z"/>
  </g>
  <g>
    <rect class="st205" x="211.4" y="228.8" width="21" height="21"/>
    <path class="st123" d="M231.9,229.3v20h-20v-20h20M232.9,228.3h-22v22h22v-22h0Z"/>
  </g>
  <g>
    <rect class="st152" x="231.4" y="228.8" width="21" height="21"/>
    <path class="st123" d="M251.9,229.3v20h-20v-20h20M252.9,228.3h-22v22h22v-22h0Z"/>
  </g>
  <g>
    <rect class="st149" x="251.4" y="228.8" width="21" height="21"/>
    <path class="st123" d="M271.9,229.3v20h-20v-20h20M272.9,228.3h-22v22h22v-22h0Z"/>
  </g>
  <g>
    <rect class="st51" x="271.4" y="228.8" width="21" height="21"/>
    <path class="st123" d="M291.9,229.3v20h-20v-20h20M292.9,228.3h-22v22h22v-22h0Z"/>
  </g>
  <g>
    <rect class="st67" x="291.4" y="228.8" width="21" height="21"/>
    <path class="st123" d="M311.9,229.3v20h-20v-20h20M312.9,228.3h-22v22h22v-22h0Z"/>
  </g>
  <g>
    <rect class="st2" x="311.4" y="228.8" width="21" height="21"/>
    <path class="st123" d="M331.9,229.3v20h-20v-20h20M332.9,228.3h-22v22h22v-22h0Z"/>
  </g>
  <g>
    <rect class="st50" x="331.4" y="228.8" width="21" height="21"/>
    <path class="st123" d="M351.9,229.3v20h-20v-20h20M352.9,228.3h-22v22h22v-22h0Z"/>
  </g>
  <g>
    <path class="st41" d="M47.4,236.2v7.1h-.9v-7.1h.9ZM50.8,242.5v.8h-3.6v-.8h3.6Z"/>
    <path class="st41" d="M52.9,236.2v7.1h-.9v-7.1h.9Z"/>
    <path class="st41" d="M54.6,236.2h.8v4.3c.1,0,.1,2.8.1,2.8h-.9v-7.1ZM54.9,236.2h.9l2.3,5.8,2.3-5.8h.9l-2.9,7.1h-.7l-2.9-7.1ZM60.9,236.2h.8v7.1h-.9v-7.1Z"/>
    <path class="st41" d="M64.3,236.2v7.1h-.9v-7.1h.9ZM67.8,236.2v.8h-3.7v-.8h3.7ZM67.4,239.2v.8h-3.3v-.8h3.3ZM67.9,242.5v.8h-3.8v-.8h3.8Z"/>
  </g>
  <g>
    <rect class="st234" x="71.4" y="248.8" width="21" height="21"/>
    <path class="st123" d="M91.9,249.3v20h-20v-20h20M92.9,248.3h-22v22h22v-22h0Z"/>
  </g>
  <g>
    <rect class="st226" x="91.4" y="248.8" width="21" height="21"/>
    <path class="st123" d="M111.9,249.3v20h-20v-20h20M112.9,248.3h-22v22h22v-22h0Z"/>
  </g>
  <g>
    <rect class="st117" x="111.4" y="248.8" width="21" height="21"/>
    <path class="st123" d="M131.9,249.3v20h-20v-20h20M132.9,248.3h-22v22h22v-22h0Z"/>
  </g>
  <g>
    <rect class="st93" x="131.4" y="248.8" width="21" height="21"/>
    <path class="st123" d="M151.9,249.3v20h-20v-20h20M152.9,248.3h-22v22h22v-22h0Z"/>
  </g>
  <g>
    <rect class="st65" x="151.4" y="248.8" width="21" height="21"/>
    <path class="st123" d="M171.9,249.3v20h-20v-20h20M172.9,248.3h-22v22h22v-22h0Z"/>
  </g>
  <g>
    <rect class="st53" x="171.4" y="248.8" width="21" height="21"/>
    <path class="st123" d="M191.9,249.3v20h-20v-20h20M192.9,248.3h-22v22h22v-22h0Z"/>
  </g>
  <g>
    <rect class="st138" x="191.4" y="248.8" width="21" height="21"/>
    <path class="st123" d="M211.9,249.3v20h-20v-20h20M212.9,248.3h-22v22h22v-22h0Z"/>
  </g>
  <g>
    <rect class="st5" x="211.4" y="248.8" width="21" height="21"/>
    <path class="st123" d="M231.9,249.3v20h-20v-20h20M232.9,248.3h-22v22h22v-22h0Z"/>
  </g>
  <g>
    <rect class="st210" x="231.4" y="248.8" width="21" height="21"/>
    <path class="st123" d="M251.9,249.3v20h-20v-20h20M252.9,248.3h-22v22h22v-22h0Z"/>
  </g>
  <g>
    <rect class="st109" x="251.4" y="248.8" width="21" height="21"/>
    <path class="st123" d="M271.9,249.3v20h-20v-20h20M272.9,248.3h-22v22h22v-22h0Z"/>
  </g>
  <g>
    <rect class="st169" x="271.4" y="248.8" width="21" height="21"/>
    <path class="st123" d="M291.9,249.3v20h-20v-20h20M292.9,248.3h-22v22h22v-22h0Z"/>
  </g>
  <g>
    <rect class="st173" x="291.4" y="248.8" width="21" height="21"/>
    <path class="st123" d="M311.9,249.3v20h-20v-20h20M312.9,248.3h-22v22h22v-22h0Z"/>
  </g>
  <g>
    <rect class="st4" x="311.4" y="248.8" width="21" height="21"/>
    <path class="st123" d="M331.9,249.3v20h-20v-20h20M332.9,248.3h-22v22h22v-22h0Z"/>
  </g>
  <g>
    <rect class="st102" x="331.4" y="248.8" width="21" height="21"/>
    <path class="st123" d="M351.9,249.3v20h-20v-20h20M352.9,248.3h-22v22h22v-22h0Z"/>
  </g>
  <g>
    <path class="st41" d="M31.5,256.2l1.8,3.6,1.9-3.6h1.1l-2.5,4.5v2.7h-.9v-2.7l-2.5-4.5h1.1Z"/>
    <path class="st41" d="M38.1,256.2v7.1h-.9v-7.1h.9ZM41.6,256.2v.8h-3.7v-.8h3.7ZM41.2,259.2v.8h-3.3v-.8h3.3ZM41.7,262.5v.8h-3.8v-.8h3.8Z"/>
    <path class="st41" d="M43.8,256.2v7.1h-.9v-7.1h.9ZM47.1,262.5v.8h-3.6v-.8h3.6Z"/>
    <path class="st41" d="M49.1,256.2v7.1h-.9v-7.1h.9ZM52.5,262.5v.8h-3.6v-.8h3.6Z"/>
    <path class="st41" d="M58.7,259.5v.4c0,.5,0,1-.2,1.4-.1.4-.3.8-.6,1.1-.3.3-.6.5-.9.7s-.7.2-1.2.2-.8,0-1.2-.2-.7-.4-.9-.7c-.3-.3-.5-.7-.6-1.1-.1-.4-.2-.9-.2-1.4v-.4c0-.5,0-1,.2-1.4.1-.4.3-.8.6-1.1s.6-.5.9-.7.7-.2,1.2-.2.8,0,1.2.2.7.4.9.7.4.7.6,1.1c.1.4.2.9.2,1.4ZM57.8,260v-.5c0-.4,0-.8-.1-1.1,0-.3-.2-.6-.4-.8-.2-.2-.4-.4-.6-.5-.2-.1-.5-.2-.8-.2s-.6,0-.8.2c-.2.1-.4.3-.6.5-.2.2-.3.5-.4.8,0,.3-.1.7-.1,1.1v.5c0,.4,0,.8.1,1.1s.2.6.4.8c.2.2.4.4.6.5.2.1.5.2.8.2s.6,0,.8-.2c.2-.1.4-.3.6-.5.2-.2.3-.5.4-.8s.1-.7.1-1.1Z"/>
    <path class="st41" d="M60.6,256.2l1.1,4.9.3,2.2h-.7l-1.7-7.1h.9ZM62,261.1l1.4-5h.7l-.4,1.9-1.5,5.2h-.7l.5-2.1ZM64.2,256.2l1.4,5,.5,2.1h-.7l-1.5-5.2-.4-1.9h.7ZM65.9,261l1.1-4.9h.9l-1.7,7.1h-.7l.4-2.3Z"/>
  </g>
  <g>
    <rect class="st3" x="71.4" y="268.8" width="21" height="21"/>
    <path class="st123" d="M91.9,269.3v20h-20v-20h20M92.9,268.3h-22v22h22v-22h0Z"/>
  </g>
  <g>
    <rect class="st181" x="91.4" y="268.8" width="21" height="21"/>
    <path class="st123" d="M111.9,269.3v20h-20v-20h20M112.9,268.3h-22v22h22v-22h0Z"/>
  </g>
  <g>
    <rect class="st55" x="111.4" y="268.8" width="21" height="21"/>
    <path class="st123" d="M131.9,269.3v20h-20v-20h20M132.9,268.3h-22v22h22v-22h0Z"/>
  </g>
  <g>
    <rect class="st198" x="131.4" y="268.8" width="21" height="21"/>
    <path class="st123" d="M151.9,269.3v20h-20v-20h20M152.9,268.3h-22v22h22v-22h0Z"/>
  </g>
  <g>
    <rect class="st14" x="151.4" y="268.8" width="21" height="21"/>
    <path class="st123" d="M171.9,269.3v20h-20v-20h20M172.9,268.3h-22v22h22v-22h0Z"/>
  </g>
  <g>
    <rect class="st223" x="171.4" y="268.8" width="21" height="21"/>
    <path class="st123" d="M191.9,269.3v20h-20v-20h20M192.9,268.3h-22v22h22v-22h0Z"/>
  </g>
  <g>
    <rect class="st75" x="191.4" y="268.8" width="21" height="21"/>
    <path class="st123" d="M211.9,269.3v20h-20v-20h20M212.9,268.3h-22v22h22v-22h0Z"/>
  </g>
  <g>
    <rect class="st39" x="211.4" y="268.8" width="21" height="21"/>
    <path class="st123" d="M231.9,269.3v20h-20v-20h20M232.9,268.3h-22v22h22v-22h0Z"/>
  </g>
  <g>
    <rect class="st48" x="231.4" y="268.8" width="21" height="21"/>
    <path class="st123" d="M251.9,269.3v20h-20v-20h20M252.9,268.3h-22v22h22v-22h0Z"/>
  </g>
  <g>
    <rect class="st237" x="251.4" y="268.8" width="21" height="21"/>
    <path class="st123" d="M271.9,269.3v20h-20v-20h20M272.9,268.3h-22v22h22v-22h0Z"/>
  </g>
  <g>
    <rect class="st64" x="271.4" y="268.8" width="21" height="21"/>
    <path class="st123" d="M291.9,269.3v20h-20v-20h20M292.9,268.3h-22v22h22v-22h0Z"/>
  </g>
  <g>
    <rect class="st229" x="291.4" y="268.8" width="21" height="21"/>
    <path class="st123" d="M311.9,269.3v20h-20v-20h20M312.9,268.3h-22v22h22v-22h0Z"/>
  </g>
  <g>
    <rect class="st37" x="311.4" y="268.8" width="21" height="21"/>
    <path class="st123" d="M331.9,269.3v20h-20v-20h20M332.9,268.3h-22v22h22v-22h0Z"/>
  </g>
  <g>
    <rect class="st81" x="331.4" y="268.8" width="21" height="21"/>
    <path class="st123" d="M351.9,269.3v20h-20v-20h20M352.9,268.3h-22v22h22v-22h0Z"/>
  </g>
  <g>
    <path class="st41" d="M38.3,276.8l-2.4,6.5h-1l2.7-7.1h.6v.6ZM40.2,280.7v.8h-4v-.8h4ZM40.3,283.3l-2.4-6.5v-.6s.6,0,.6,0l2.7,7.1h-1Z"/>
    <path class="st41" d="M42.2,276.2h.8v4.3c.1,0,.1,2.8.1,2.8h-.9v-7.1ZM42.5,276.2h.9l2.3,5.8,2.3-5.8h.9l-2.9,7.1h-.7l-2.9-7.1ZM48.5,276.2h.8v7.1h-.9v-7.1Z"/>
    <path class="st41" d="M53.5,280h-1.8v-.8s1.6,0,1.6,0c.3,0,.5,0,.7-.1.2,0,.4-.2.5-.4s.2-.4.2-.6,0-.5-.1-.6c0-.2-.3-.3-.5-.4-.2,0-.5-.1-.8-.1h-1.4v6.3h-.9v-7.1h2.3c.4,0,.7,0,1,.1s.5.2.7.3c.2.2.4.4.5.6.1.2.2.5.2.9s0,.6-.2.8c-.1.2-.4.4-.6.6-.3.2-.6.2-.9.3l-.3.2ZM53.4,283.3h-2.1l.5-.8h1.6c.3,0,.6,0,.8-.2.2-.1.4-.3.5-.4s.2-.4.2-.7,0-.5-.1-.7c0-.2-.2-.3-.4-.4-.2-.1-.5-.2-.8-.2h-1.3v-.8h1.8l.2.3c.3,0,.6.1.9.3.2.2.4.4.5.6s.2.5.2.8c0,.4,0,.8-.3,1.1-.2.3-.5.5-.8.7-.4.2-.8.2-1.2.2Z"/>
    <path class="st41" d="M58.1,276.2v7.1h-.9v-7.1h.9ZM61.6,276.2v.8h-3.7v-.8h3.7ZM61.2,279.2v.8h-3.3v-.8h3.3ZM61.7,282.5v.8h-3.8v-.8h3.8Z"/>
    <path class="st41" d="M62.9,276.2h2.4c.5,0,1,0,1.4.2.4.2.7.4.8.7s.3.7.3,1.2,0,.6-.2.9-.3.5-.6.7c-.2.2-.5.3-.9.4h-.3c0,.1-2.2.1-2.2.1v-.8s1.7,0,1.7,0c.3,0,.6,0,.8-.2.2-.1.4-.3.5-.5.1-.2.2-.4.2-.7s0-.5-.2-.7-.3-.4-.5-.5-.5-.2-.9-.2h-1.4v6.3h-.9v-7.1ZM67,283.3l-1.7-3.2h1s1.8,3.2,1.8,3.2h0c0,0-1,0-1,0Z"/>
  </g>
  <g>
    <rect class="st119" x="71.4" y="288.8" width="21" height="21"/>
    <path class="st123" d="M91.9,289.3v20h-20v-20h20M92.9,288.3h-22v22h22v-22h0Z"/>
  </g>
  <g>
    <rect class="st178" x="91.4" y="288.8" width="21" height="21"/>
    <path class="st123" d="M111.9,289.3v20h-20v-20h20M112.9,288.3h-22v22h22v-22h0Z"/>
  </g>
  <g>
    <rect class="st112" x="111.4" y="288.8" width="21" height="21"/>
    <path class="st123" d="M131.9,289.3v20h-20v-20h20M132.9,288.3h-22v22h22v-22h0Z"/>
  </g>
  <g>
    <rect class="st235" x="131.4" y="288.8" width="21" height="21"/>
    <path class="st123" d="M151.9,289.3v20h-20v-20h20M152.9,288.3h-22v22h22v-22h0Z"/>
  </g>
  <g>
    <rect class="st180" x="151.4" y="288.8" width="21" height="21"/>
    <path class="st123" d="M171.9,289.3v20h-20v-20h20M172.9,288.3h-22v22h22v-22h0Z"/>
  </g>
  <g>
    <rect class="st126" x="171.4" y="288.8" width="21" height="21"/>
    <path class="st123" d="M191.9,289.3v20h-20v-20h20M192.9,288.3h-22v22h22v-22h0Z"/>
  </g>
  <g>
    <rect class="st236" x="191.4" y="288.8" width="21" height="21"/>
    <path class="st123" d="M211.9,289.3v20h-20v-20h20M212.9,288.3h-22v22h22v-22h0Z"/>
  </g>
  <g>
    <rect class="st63" x="211.4" y="288.8" width="21" height="21"/>
    <path class="st123" d="M231.9,289.3v20h-20v-20h20M232.9,288.3h-22v22h22v-22h0Z"/>
  </g>
  <g>
    <rect class="st28" x="231.4" y="288.8" width="21" height="21"/>
    <path class="st123" d="M251.9,289.3v20h-20v-20h20M252.9,288.3h-22v22h22v-22h0Z"/>
  </g>
  <g>
    <rect class="st72" x="251.4" y="288.8" width="21" height="21"/>
    <path class="st123" d="M271.9,289.3v20h-20v-20h20M272.9,288.3h-22v22h22v-22h0Z"/>
  </g>
  <g>
    <rect class="st206" x="271.4" y="288.8" width="21" height="21"/>
    <path class="st123" d="M291.9,289.3v20h-20v-20h20M292.9,288.3h-22v22h22v-22h0Z"/>
  </g>
  <g>
    <rect class="st47" x="291.4" y="288.8" width="21" height="21"/>
    <path class="st123" d="M311.9,289.3v20h-20v-20h20M312.9,288.3h-22v22h22v-22h0Z"/>
  </g>
  <g>
    <rect class="st212" x="311.4" y="288.8" width="21" height="21"/>
    <path class="st123" d="M331.9,289.3v20h-20v-20h20M332.9,288.3h-22v22h22v-22h0Z"/>
  </g>
  <g>
    <rect class="st115" x="331.4" y="288.8" width="21" height="21"/>
    <path class="st123" d="M351.9,289.3v20h-20v-20h20M352.9,288.3h-22v22h22v-22h0Z"/>
  </g>
  <g>
    <path class="st41" d="M35.3,299.5v.4c0,.5,0,1-.2,1.4-.1.4-.3.8-.6,1.1-.3.3-.6.5-.9.7s-.7.2-1.2.2-.8,0-1.2-.2-.7-.4-.9-.7c-.3-.3-.5-.7-.6-1.1-.1-.4-.2-.9-.2-1.4v-.4c0-.5,0-1,.2-1.4.1-.4.3-.8.6-1.1s.6-.5.9-.7.7-.2,1.2-.2.8,0,1.2.2.7.4.9.7.4.7.6,1.1c.1.4.2.9.2,1.4ZM34.4,300v-.5c0-.4,0-.8-.1-1.1,0-.3-.2-.6-.4-.8-.2-.2-.4-.4-.6-.5-.2-.1-.5-.2-.8-.2s-.6,0-.8.2c-.2.1-.4.3-.6.5-.2.2-.3.5-.4.8,0,.3-.1.7-.1,1.1v.5c0,.4,0,.8.1,1.1s.2.6.4.8c.2.2.4.4.6.5.2.1.5.2.8.2s.6,0,.8-.2c.2-.1.4-.3.6-.5.2-.2.3-.5.4-.8s.1-.7.1-1.1Z"/>
    <path class="st41" d="M36.7,296.2h2.4c.5,0,1,0,1.4.2.4.2.7.4.8.7s.3.7.3,1.2,0,.6-.2.9-.3.5-.6.7c-.2.2-.5.3-.9.4h-.3c0,.1-2.2.1-2.2.1v-.8s1.7,0,1.7,0c.3,0,.6,0,.8-.2.2-.1.4-.3.5-.5.1-.2.2-.4.2-.7s0-.5-.2-.7-.3-.4-.5-.5-.5-.2-.9-.2h-1.4v6.3h-.9v-7.1ZM40.9,303.3l-1.7-3.2h1s1.8,3.2,1.8,3.2h0c0,0-1,0-1,0Z"/>
    <path class="st41" d="M45.5,296.8l-2.4,6.5h-1l2.7-7.1h.6v.6ZM47.4,300.7v.8h-4v-.8h4ZM47.5,303.3l-2.4-6.5v-.6s.6,0,.6,0l2.7,7.1h-1Z"/>
    <path class="st41" d="M54.9,296.2v7.1h-.9l-3.6-5.5v5.5h-.9v-7.1h.9l3.6,5.5v-5.5h.9Z"/>
    <path class="st41" d="M61.8,299.8v2.6c0,.1-.2.3-.4.4s-.5.3-.8.4c-.3.1-.8.2-1.3.2s-.8,0-1.2-.2-.7-.4-.9-.7c-.3-.3-.5-.6-.6-1.1-.1-.4-.2-.9-.2-1.4v-.6c0-.5,0-1,.2-1.4.1-.4.3-.8.6-1.1.2-.3.5-.5.9-.7s.8-.2,1.2-.2,1,0,1.4.3c.4.2.7.4.9.8.2.3.3.7.4,1.1h-.9c0-.3-.1-.5-.3-.7-.1-.2-.3-.4-.5-.5-.2-.1-.5-.2-.9-.2s-.6,0-.9.2c-.2.1-.4.3-.6.5s-.3.5-.3.8c0,.3-.1.7-.1,1.1v.6c0,.4,0,.8.1,1.1s.2.6.4.8c.2.2.4.4.6.5s.5.2.8.2.6,0,.8,0c.2,0,.4-.1.5-.2.1,0,.2-.2.3-.2v-1.6h-1.6v-.8h2.6Z"/>
    <path class="st41" d="M64.3,296.2v7.1h-.9v-7.1h.9ZM67.8,296.2v.8h-3.7v-.8h3.7ZM67.4,299.2v.8h-3.3v-.8h3.3ZM67.9,302.5v.8h-3.8v-.8h3.8Z"/>
  </g>
  <g>
    <rect class="st44" x="71.4" y="308.8" width="21" height="21"/>
    <path class="st123" d="M91.9,309.3v20h-20v-20h20M92.9,308.3h-22v22h22v-22h0Z"/>
  </g>
  <g>
    <rect class="st227" x="91.4" y="308.8" width="21" height="21"/>
    <path class="st123" d="M111.9,309.3v20h-20v-20h20M112.9,308.3h-22v22h22v-22h0Z"/>
  </g>
  <g>
    <rect class="st71" x="111.4" y="308.8" width="21" height="21"/>
    <path class="st123" d="M131.9,309.3v20h-20v-20h20M132.9,308.3h-22v22h22v-22h0Z"/>
  </g>
  <g>
    <rect class="st177" x="131.4" y="308.8" width="21" height="21"/>
    <path class="st123" d="M151.9,309.3v20h-20v-20h20M152.9,308.3h-22v22h22v-22h0Z"/>
  </g>
  <g>
    <rect class="st30" x="151.4" y="308.8" width="21" height="21"/>
    <path class="st123" d="M171.9,309.3v20h-20v-20h20M172.9,308.3h-22v22h22v-22h0Z"/>
  </g>
  <g>
    <rect class="st201" x="171.4" y="308.8" width="21" height="21"/>
    <path class="st123" d="M191.9,309.3v20h-20v-20h20M192.9,308.3h-22v22h22v-22h0Z"/>
  </g>
  <g>
    <rect class="st238" x="191.4" y="308.8" width="21" height="21"/>
    <path class="st123" d="M211.9,309.3v20h-20v-20h20M212.9,308.3h-22v22h22v-22h0Z"/>
  </g>
  <g>
    <rect class="st74" x="211.4" y="308.8" width="21" height="21"/>
    <path class="st123" d="M231.9,309.3v20h-20v-20h20M232.9,308.3h-22v22h22v-22h0Z"/>
  </g>
  <g>
    <rect class="st118" x="231.4" y="308.8" width="21" height="21"/>
    <path class="st123" d="M251.9,309.3v20h-20v-20h20M252.9,308.3h-22v22h22v-22h0Z"/>
  </g>
  <g>
    <rect class="st170" x="251.4" y="308.8" width="21" height="21"/>
    <path class="st123" d="M271.9,309.3v20h-20v-20h20M272.9,308.3h-22v22h22v-22h0Z"/>
  </g>
  <g>
    <rect class="st94" x="271.4" y="308.8" width="21" height="21"/>
    <path class="st123" d="M291.9,309.3v20h-20v-20h20M292.9,308.3h-22v22h22v-22h0Z"/>
  </g>
  <g>
    <rect class="st200" x="291.4" y="308.8" width="21" height="21"/>
    <path class="st123" d="M311.9,309.3v20h-20v-20h20M312.9,308.3h-22v22h22v-22h0Z"/>
  </g>
  <g>
    <rect class="st225" x="311.4" y="308.8" width="21" height="21"/>
    <path class="st123" d="M331.9,309.3v20h-20v-20h20M332.9,308.3h-22v22h22v-22h0Z"/>
  </g>
  <g>
    <rect class="st246" x="331.4" y="308.8" width="21" height="21"/>
    <path class="st123" d="M351.9,309.3v20h-20v-20h20M352.9,308.3h-22v22h22v-22h0Z"/>
  </g>
  <g>
    <path class="st41" d="M4.1,316.2v7.1h-.9v-7.1h.9ZM5,323.3h-1.5v-.8h1.5c.5,0,.9-.1,1.3-.3.3-.2.6-.5.8-.9s.3-.8.3-1.4v-.4c0-.4,0-.8-.1-1.1s-.2-.6-.4-.8-.4-.4-.7-.5c-.3-.1-.6-.2-.9-.2h-1.6v-.8h1.6c.5,0,.9,0,1.3.2.4.2.7.4,1,.7.3.3.5.6.6,1.1.1.4.2.9.2,1.4v.4c0,.5,0,1-.2,1.4-.1.4-.4.8-.6,1.1-.3.3-.6.5-1,.7-.4.2-.8.2-1.3.2Z"/>
    <path class="st41" d="M10.6,316.2v7.1h-.9v-7.1h.9ZM14.1,316.2v.8h-3.7v-.8h3.7ZM13.7,319.2v.8h-3.3v-.8h3.3ZM14.2,322.5v.8h-3.8v-.8h3.8Z"/>
    <path class="st41" d="M16.3,316.2v7.1h-.9v-7.1h.9ZM19.8,316.2v.8h-3.7v-.8h3.7ZM19.4,319.2v.8h-3.3v-.8h3.3ZM19.9,322.5v.8h-3.8v-.8h3.8Z"/>
    <path class="st41" d="M23.7,320.5h-1.9v-.8h1.9c.4,0,.7,0,.9-.2s.4-.3.5-.5c.1-.2.2-.4.2-.7s0-.5-.2-.7-.3-.4-.5-.5-.5-.2-.9-.2h-1.7v6.3h-.9v-7.1h2.6c.5,0,1,0,1.4.3s.7.4.8.8.3.7.3,1.1,0,.8-.3,1.2-.5.6-.8.7c-.4.2-.8.3-1.4.3Z"/>
    <path class="st41" d="M35.3,319.5v.4c0,.5,0,1-.2,1.4-.1.4-.3.8-.6,1.1-.3.3-.6.5-.9.7s-.7.2-1.2.2-.8,0-1.2-.2-.7-.4-.9-.7c-.3-.3-.5-.7-.6-1.1-.1-.4-.2-.9-.2-1.4v-.4c0-.5,0-1,.2-1.4.1-.4.3-.8.6-1.1s.6-.5.9-.7.7-.2,1.2-.2.8,0,1.2.2.7.4.9.7.4.7.6,1.1c.1.4.2.9.2,1.4ZM34.4,320v-.5c0-.4,0-.8-.1-1.1,0-.3-.2-.6-.4-.8-.2-.2-.4-.4-.6-.5-.2-.1-.5-.2-.8-.2s-.6,0-.8.2c-.2.1-.4.3-.6.5-.2.2-.3.5-.4.8,0,.3-.1.7-.1,1.1v.5c0,.4,0,.8.1,1.1s.2.6.4.8c.2.2.4.4.6.5.2.1.5.2.8.2s.6,0,.8-.2c.2-.1.4-.3.6-.5.2-.2.3-.5.4-.8s.1-.7.1-1.1Z"/>
    <path class="st41" d="M36.7,316.2h2.4c.5,0,1,0,1.4.2.4.2.7.4.8.7s.3.7.3,1.2,0,.6-.2.9-.3.5-.6.7c-.2.2-.5.3-.9.4h-.3c0,.1-2.2.1-2.2.1v-.8s1.7,0,1.7,0c.3,0,.6,0,.8-.2.2-.1.4-.3.5-.5.1-.2.2-.4.2-.7s0-.5-.2-.7-.3-.4-.5-.5-.5-.2-.9-.2h-1.4v6.3h-.9v-7.1ZM40.9,323.3l-1.7-3.2h1s1.8,3.2,1.8,3.2h0c0,0-1,0-1,0Z"/>
    <path class="st41" d="M45.5,316.8l-2.4,6.5h-1l2.7-7.1h.6v.6ZM47.4,320.7v.8h-4v-.8h4ZM47.5,323.3l-2.4-6.5v-.6s.6,0,.6,0l2.7,7.1h-1Z"/>
    <path class="st41" d="M54.9,316.2v7.1h-.9l-3.6-5.5v5.5h-.9v-7.1h.9l3.6,5.5v-5.5h.9Z"/>
    <path class="st41" d="M61.8,319.8v2.6c0,.1-.2.3-.4.4s-.5.3-.8.4c-.3.1-.8.2-1.3.2s-.8,0-1.2-.2-.7-.4-.9-.7c-.3-.3-.5-.6-.6-1.1-.1-.4-.2-.9-.2-1.4v-.6c0-.5,0-1,.2-1.4.1-.4.3-.8.6-1.1.2-.3.5-.5.9-.7s.8-.2,1.2-.2,1,0,1.4.3c.4.2.7.4.9.8.2.3.3.7.4,1.1h-.9c0-.3-.1-.5-.3-.7-.1-.2-.3-.4-.5-.5-.2-.1-.5-.2-.9-.2s-.6,0-.9.2c-.2.1-.4.3-.6.5s-.3.5-.3.8c0,.3-.1.7-.1,1.1v.6c0,.4,0,.8.1,1.1s.2.6.4.8c.2.2.4.4.6.5s.5.2.8.2.6,0,.8,0c.2,0,.4-.1.5-.2.1,0,.2-.2.3-.2v-1.6h-1.6v-.8h2.6Z"/>
    <path class="st41" d="M64.3,316.2v7.1h-.9v-7.1h.9ZM67.8,316.2v.8h-3.7v-.8h3.7ZM67.4,319.2v.8h-3.3v-.8h3.3ZM67.9,322.5v.8h-3.8v-.8h3.8Z"/>
  </g>
  <g>
    <rect class="st189" x="71.4" y="328.8" width="21" height="21"/>
    <path class="st123" d="M91.9,329.3v20h-20v-20h20M92.9,328.3h-22v22h22v-22h0Z"/>
  </g>
  <g>
    <rect class="st11" x="91.4" y="328.8" width="21" height="21"/>
    <path class="st123" d="M111.9,329.3v20h-20v-20h20M112.9,328.3h-22v22h22v-22h0Z"/>
  </g>
  <g>
    <rect class="st95" x="111.4" y="328.8" width="21" height="21"/>
    <path class="st123" d="M131.9,329.3v20h-20v-20h20M132.9,328.3h-22v22h22v-22h0Z"/>
  </g>
  <g>
    <rect class="st159" x="131.4" y="328.8" width="21" height="21"/>
    <path class="st123" d="M151.9,329.3v20h-20v-20h20M152.9,328.3h-22v22h22v-22h0Z"/>
  </g>
  <g>
    <rect class="st124" x="151.4" y="328.8" width="21" height="21"/>
    <path class="st123" d="M171.9,329.3v20h-20v-20h20M172.9,328.3h-22v22h22v-22h0Z"/>
  </g>
  <g>
    <rect class="st121" x="171.4" y="328.8" width="21" height="21"/>
    <path class="st123" d="M191.9,329.3v20h-20v-20h20M192.9,328.3h-22v22h22v-22h0Z"/>
  </g>
  <g>
    <rect class="st141" x="191.4" y="328.8" width="21" height="21"/>
    <path class="st123" d="M211.9,329.3v20h-20v-20h20M212.9,328.3h-22v22h22v-22h0Z"/>
  </g>
  <g>
    <rect class="st230" x="211.4" y="328.8" width="21" height="21"/>
    <path class="st123" d="M231.9,329.3v20h-20v-20h20M232.9,328.3h-22v22h22v-22h0Z"/>
  </g>
  <g>
    <rect class="st10" x="231.4" y="328.8" width="21" height="21"/>
    <path class="st123" d="M251.9,329.3v20h-20v-20h20M252.9,328.3h-22v22h22v-22h0Z"/>
  </g>
  <g>
    <rect class="st224" x="251.4" y="328.8" width="21" height="21"/>
    <path class="st123" d="M271.9,329.3v20h-20v-20h20M272.9,328.3h-22v22h22v-22h0Z"/>
  </g>
  <path class="st123" d="M291.9,329.3v20h-20v-20h20M292.9,328.3h-22v22h22v-22h0Z"/>
  <path class="st123" d="M311.9,329.3v20h-20v-20h20M312.9,328.3h-22v22h22v-22h0Z"/>
  <path class="st123" d="M331.9,329.3v20h-20v-20h20M332.9,328.3h-22v22h22v-22h0Z"/>
  <path class="st123" d="M351.9,329.3v20h-20v-20h20M352.9,328.3h-22v22h22v-22h0Z"/>
  <g>
    <path class="st41" d="M36.3,340h-1.8v-.8s1.6,0,1.6,0c.3,0,.5,0,.7-.1.2,0,.4-.2.5-.4s.2-.4.2-.6,0-.5-.1-.6c0-.2-.3-.3-.5-.4-.2,0-.5-.1-.8-.1h-1.4v6.3h-.9v-7.1h2.3c.4,0,.7,0,1,.1s.5.2.7.3c.2.2.4.4.5.6.1.2.2.5.2.9s0,.6-.2.8c-.1.2-.4.4-.6.6-.3.2-.6.2-.9.3l-.3.2ZM36.2,343.3h-2.1l.5-.8h1.6c.3,0,.6,0,.8-.2.2-.1.4-.3.5-.4s.2-.4.2-.7,0-.5-.1-.7c0-.2-.2-.3-.4-.4-.2-.1-.5-.2-.8-.2h-1.3v-.8h1.8l.2.3c.3,0,.6.1.9.3.2.2.4.4.5.6s.2.5.2.8c0,.4,0,.8-.3,1.1-.2.3-.5.5-.8.7-.4.2-.8.2-1.2.2Z"/>
    <path class="st41" d="M40,336.2h2.4c.5,0,1,0,1.4.2.4.2.7.4.8.7s.3.7.3,1.2,0,.6-.2.9-.3.5-.6.7c-.2.2-.5.3-.9.4h-.3c0,.1-2.2.1-2.2.1v-.8s1.7,0,1.7,0c.3,0,.6,0,.8-.2.2-.1.4-.3.5-.5.1-.2.2-.4.2-.7s0-.5-.2-.7-.3-.4-.5-.5-.5-.2-.9-.2h-1.4v6.3h-.9v-7.1ZM44.1,343.3l-1.7-3.2h1s1.8,3.2,1.8,3.2h0c0,0-1,0-1,0Z"/>
    <path class="st41" d="M51.6,339.5v.4c0,.5,0,1-.2,1.4-.1.4-.3.8-.6,1.1-.3.3-.6.5-.9.7s-.7.2-1.2.2-.8,0-1.2-.2-.7-.4-.9-.7c-.3-.3-.5-.7-.6-1.1-.1-.4-.2-.9-.2-1.4v-.4c0-.5,0-1,.2-1.4.1-.4.3-.8.6-1.1s.6-.5.9-.7.7-.2,1.2-.2.8,0,1.2.2.7.4.9.7.4.7.6,1.1c.1.4.2.9.2,1.4ZM50.7,340v-.5c0-.4,0-.8-.1-1.1,0-.3-.2-.6-.4-.8-.2-.2-.4-.4-.6-.5-.2-.1-.5-.2-.8-.2s-.6,0-.8.2c-.2.1-.4.3-.6.5-.2.2-.3.5-.4.8,0,.3-.1.7-.1,1.1v.5c0,.4,0,.8.1,1.1s.2.6.4.8c.2.2.4.4.6.5.2.1.5.2.8.2s.6,0,.8-.2c.2-.1.4-.3.6-.5.2-.2.3-.5.4-.8s.1-.7.1-1.1Z"/>
    <path class="st41" d="M53.4,336.2l1.1,4.9.3,2.2h-.7l-1.7-7.1h.9ZM54.9,341.1l1.4-5h.7l-.4,1.9-1.5,5.2h-.7l.5-2.1ZM57.1,336.2l1.4,5,.5,2.1h-.7l-1.5-5.2-.4-1.9h.7ZM58.8,341l1.1-4.9h.9l-1.7,7.1h-.7l.4-2.3Z"/>
    <path class="st41" d="M67.4,336.2v7.1h-.9l-3.6-5.5v5.5h-.9v-7.1h.9l3.6,5.5v-5.5h.9Z"/>
  </g>
  <g>
    <rect class="st76" x="71.4" y="348.8" width="21" height="21"/>
    <path class="st123" d="M91.9,349.3v20h-20v-20h20M92.9,348.3h-22v22h22v-22h0Z"/>
  </g>
  <g>
    <rect class="st245" x="91.4" y="348.8" width="21" height="21"/>
    <path class="st123" d="M111.9,349.3v20h-20v-20h20M112.9,348.3h-22v22h22v-22h0Z"/>
  </g>
  <g>
    <rect class="st20" x="111.4" y="348.8" width="21" height="21"/>
    <path class="st123" d="M131.9,349.3v20h-20v-20h20M132.9,348.3h-22v22h22v-22h0Z"/>
  </g>
  <g>
    <rect class="st240" x="131.4" y="348.8" width="21" height="21"/>
    <path class="st123" d="M151.9,349.3v20h-20v-20h20M152.9,348.3h-22v22h22v-22h0Z"/>
  </g>
  <g>
    <rect class="st24" x="151.4" y="348.8" width="21" height="21"/>
    <path class="st123" d="M171.9,349.3v20h-20v-20h20M172.9,348.3h-22v22h22v-22h0Z"/>
  </g>
  <g>
    <rect class="st202" x="171.4" y="348.8" width="21" height="21"/>
    <path class="st123" d="M191.9,349.3v20h-20v-20h20M192.9,348.3h-22v22h22v-22h0Z"/>
  </g>
  <g>
    <rect class="st167" x="191.4" y="348.8" width="21" height="21"/>
    <path class="st123" d="M211.9,349.3v20h-20v-20h20M212.9,348.3h-22v22h22v-22h0Z"/>
  </g>
  <g>
    <rect class="st38" x="211.4" y="348.8" width="21" height="21"/>
    <path class="st123" d="M231.9,349.3v20h-20v-20h20M232.9,348.3h-22v22h22v-22h0Z"/>
  </g>
  <g>
    <rect class="st209" x="231.4" y="348.8" width="21" height="21"/>
    <path class="st123" d="M251.9,349.3v20h-20v-20h20M252.9,348.3h-22v22h22v-22h0Z"/>
  </g>
  <g>
    <rect class="st114" x="251.4" y="348.8" width="21" height="21"/>
    <path class="st123" d="M271.9,349.3v20h-20v-20h20M272.9,348.3h-22v22h22v-22h0Z"/>
  </g>
  <path class="st123" d="M291.9,349.3v20h-20v-20h20M292.9,348.3h-22v22h22v-22h0Z"/>
  <path class="st123" d="M311.9,349.3v20h-20v-20h20M312.9,348.3h-22v22h22v-22h0Z"/>
  <path class="st123" d="M331.9,349.3v20h-20v-20h20M332.9,348.3h-22v22h22v-22h0Z"/>
  <path class="st123" d="M351.9,349.3v20h-20v-20h20M352.9,348.3h-22v22h22v-22h0Z"/>
  <g>
    <path class="st41" d="M49.6,359.8v2.6c0,.1-.2.3-.4.4s-.5.3-.8.4c-.3.1-.8.2-1.3.2s-.8,0-1.2-.2-.7-.4-.9-.7c-.3-.3-.5-.6-.6-1.1-.1-.4-.2-.9-.2-1.4v-.6c0-.5,0-1,.2-1.4.1-.4.3-.8.6-1.1.2-.3.5-.5.9-.7s.8-.2,1.2-.2,1,0,1.4.3c.4.2.7.4.9.8.2.3.3.7.4,1.1h-.9c0-.3-.1-.5-.3-.7-.1-.2-.3-.4-.5-.5-.2-.1-.5-.2-.9-.2s-.6,0-.9.2c-.2.1-.4.3-.6.5s-.3.5-.3.8c0,.3-.1.7-.1,1.1v.6c0,.4,0,.8.1,1.1s.2.6.4.8c.2.2.4.4.6.5s.5.2.8.2.6,0,.8,0c.2,0,.4-.1.5-.2.1,0,.2-.2.3-.2v-1.6h-1.6v-.8h2.6Z"/>
    <path class="st41" d="M51.2,356.2h2.4c.5,0,1,0,1.4.2.4.2.7.4.8.7s.3.7.3,1.2,0,.6-.2.9-.3.5-.6.7c-.2.2-.5.3-.9.4h-.3c0,.1-2.2.1-2.2.1v-.8s1.7,0,1.7,0c.3,0,.6,0,.8-.2.2-.1.4-.3.5-.5.1-.2.2-.4.2-.7s0-.5-.2-.7-.3-.4-.5-.5-.5-.2-.9-.2h-1.4v6.3h-.9v-7.1ZM55.3,363.3l-1.7-3.2h1s1.8,3.2,1.8,3.2h0c0,0-1,0-1,0Z"/>
    <path class="st41" d="M58.3,356.2v7.1h-.9v-7.1h.9ZM61.8,356.2v.8h-3.7v-.8h3.7ZM61.4,359.2v.8h-3.3v-.8h3.3ZM61.9,362.5v.8h-3.8v-.8h3.8Z"/>
    <path class="st41" d="M63.3,356.2l1.8,3.6,1.9-3.6h1.1l-2.5,4.5v2.7h-.9v-2.7l-2.5-4.5h1.1Z"/>
  </g>
  <g>
    <rect class="st34" x="71.4" y="368.8" width="21" height="21"/>
    <path class="st123" d="M91.9,369.3v20h-20v-20h20M92.9,368.3h-22v22h22v-22h0Z"/>
  </g>
  <g>
    <rect class="st204" x="91.4" y="368.8" width="21" height="21"/>
    <path class="st123" d="M111.9,369.3v20h-20v-20h20M112.9,368.3h-22v22h22v-22h0Z"/>
  </g>
  <g>
    <rect class="st98" x="111.4" y="368.8" width="21" height="21"/>
    <path class="st123" d="M131.9,369.3v20h-20v-20h20M132.9,368.3h-22v22h22v-22h0Z"/>
  </g>
  <g>
    <rect class="st108" x="131.4" y="368.8" width="21" height="21"/>
    <path class="st123" d="M151.9,369.3v20h-20v-20h20M152.9,368.3h-22v22h22v-22h0Z"/>
  </g>
  <g>
    <rect class="st162" x="151.4" y="368.8" width="21" height="21"/>
    <path class="st123" d="M171.9,369.3v20h-20v-20h20M172.9,368.3h-22v22h22v-22h0Z"/>
  </g>
  <g>
    <rect class="st243" x="171.4" y="368.8" width="21" height="21"/>
    <path class="st123" d="M191.9,369.3v20h-20v-20h20M192.9,368.3h-22v22h22v-22h0Z"/>
  </g>
  <g>
    <rect class="st166" x="191.4" y="368.8" width="21" height="21"/>
    <path class="st123" d="M211.9,369.3v20h-20v-20h20M212.9,368.3h-22v22h22v-22h0Z"/>
  </g>
  <g>
    <rect class="st231" x="211.4" y="368.8" width="21" height="21"/>
    <path class="st123" d="M231.9,369.3v20h-20v-20h20M232.9,368.3h-22v22h22v-22h0Z"/>
  </g>
  <g>
    <rect class="st106" x="231.4" y="368.8" width="21" height="21"/>
    <path class="st123" d="M251.9,369.3v20h-20v-20h20M252.9,368.3h-22v22h22v-22h0Z"/>
  </g>
  <g>
    <rect class="st73" x="251.4" y="368.8" width="21" height="21"/>
    <path class="st123" d="M271.9,369.3v20h-20v-20h20M272.9,368.3h-22v22h22v-22h0Z"/>
  </g>
  <path class="st123" d="M291.9,369.3v20h-20v-20h20M292.9,368.3h-22v22h22v-22h0Z"/>
  <path class="st123" d="M311.9,369.3v20h-20v-20h20M312.9,368.3h-22v22h22v-22h0Z"/>
  <path class="st123" d="M331.9,369.3v20h-20v-20h20M332.9,368.3h-22v22h22v-22h0Z"/>
  <path class="st123" d="M351.9,369.3v20h-20v-20h20M352.9,368.3h-22v22h22v-22h0Z"/>
  <g>
    <path class="st41" d="M20.9,380h-1.8v-.8s1.6,0,1.6,0c.3,0,.5,0,.7-.1.2,0,.4-.2.5-.4s.2-.4.2-.6,0-.5-.1-.6c0-.2-.3-.3-.5-.4-.2,0-.5-.1-.8-.1h-1.4v6.3h-.9v-7.1h2.3c.4,0,.7,0,1,.1s.5.2.7.3c.2.2.4.4.5.6.1.2.2.5.2.9s0,.6-.2.8c-.1.2-.4.4-.6.6-.3.2-.6.2-.9.3l-.3.2ZM20.9,383.3h-2.1l.5-.8h1.6c.3,0,.6,0,.8-.2.2-.1.4-.3.5-.4s.2-.4.2-.7,0-.5-.1-.7c0-.2-.2-.3-.4-.4-.2-.1-.5-.2-.8-.2h-1.3v-.8h1.8l.2.3c.3,0,.6.1.9.3.2.2.4.4.5.6s.2.5.2.8c0,.4,0,.8-.3,1.1-.2.3-.5.5-.8.7-.4.2-.8.2-1.2.2Z"/>
    <path class="st41" d="M25.5,376.2v7.1h-.9v-7.1h.9ZM28.9,382.5v.8h-3.6v-.8h3.6Z"/>
    <path class="st41" d="M33.8,376.2h.9v4.8c0,.5-.1,1-.4,1.3-.2.4-.6.6-.9.8-.4.2-.8.3-1.3.3s-.9,0-1.3-.3c-.4-.2-.7-.4-.9-.8-.2-.4-.3-.8-.3-1.3v-4.8h.9v4.8c0,.4,0,.7.2.9.1.2.3.4.6.5s.5.2.9.2.6,0,.9-.2.4-.3.6-.5c.1-.2.2-.5.2-.9v-4.8Z"/>
    <path class="st41" d="M37.1,376.2v7.1h-.9v-7.1h.9ZM40.7,376.2v.8h-3.7v-.8h3.7ZM40.2,379.2v.8h-3.3v-.8h3.3ZM40.7,382.5v.8h-3.8v-.8h3.8Z"/>
    <path class="st41" d="M49.6,379.8v2.6c0,.1-.2.3-.4.4s-.5.3-.8.4c-.3.1-.8.2-1.3.2s-.8,0-1.2-.2-.7-.4-.9-.7c-.3-.3-.5-.6-.6-1.1-.1-.4-.2-.9-.2-1.4v-.6c0-.5,0-1,.2-1.4.1-.4.3-.8.6-1.1.2-.3.5-.5.9-.7s.8-.2,1.2-.2,1,0,1.4.3c.4.2.7.4.9.8.2.3.3.7.4,1.1h-.9c0-.3-.1-.5-.3-.7-.1-.2-.3-.4-.5-.5-.2-.1-.5-.2-.9-.2s-.6,0-.9.2c-.2.1-.4.3-.6.5s-.3.5-.3.8c0,.3-.1.7-.1,1.1v.6c0,.4,0,.8.1,1.1s.2.6.4.8c.2.2.4.4.6.5s.5.2.8.2.6,0,.8,0c.2,0,.4-.1.5-.2.1,0,.2-.2.3-.2v-1.6h-1.6v-.8h2.6Z"/>
    <path class="st41" d="M51.2,376.2h2.4c.5,0,1,0,1.4.2.4.2.7.4.8.7s.3.7.3,1.2,0,.6-.2.9-.3.5-.6.7c-.2.2-.5.3-.9.4h-.3c0,.1-2.2.1-2.2.1v-.8s1.7,0,1.7,0c.3,0,.6,0,.8-.2.2-.1.4-.3.5-.5.1-.2.2-.4.2-.7s0-.5-.2-.7-.3-.4-.5-.5-.5-.2-.9-.2h-1.4v6.3h-.9v-7.1ZM55.3,383.3l-1.7-3.2h1s1.8,3.2,1.8,3.2h0c0,0-1,0-1,0Z"/>
    <path class="st41" d="M58.3,376.2v7.1h-.9v-7.1h.9ZM61.8,376.2v.8h-3.7v-.8h3.7ZM61.4,379.2v.8h-3.3v-.8h3.3ZM61.9,382.5v.8h-3.8v-.8h3.8Z"/>
    <path class="st41" d="M63.3,376.2l1.8,3.6,1.9-3.6h1.1l-2.5,4.5v2.7h-.9v-2.7l-2.5-4.5h1.1Z"/>
  </g>
  <g>
    <path class="st41" d="M79.3,6.3h-.5c0-.1.2-2.6.2-2.6h2.6v.6h-2l-.2,1.4c0,0,.2-.1.3-.1.1,0,.3,0,.5,0s.4,0,.6.1c.2,0,.3.2.5.3.1.1.2.3.3.5s.1.4.1.7,0,.5,0,.7c0,.2-.2.4-.3.5-.1.1-.3.3-.5.3-.2,0-.4.1-.7.1s-.4,0-.6,0c-.2,0-.3-.1-.5-.3-.1-.1-.3-.3-.3-.4,0-.2-.1-.4-.2-.6h.6c0,.2,0,.3.2.5s.2.2.3.3c.1,0,.3,0,.5,0s.3,0,.4,0,.2-.1.3-.2.1-.2.2-.4c0-.1,0-.3,0-.5s0-.3,0-.4-.1-.3-.2-.4c0-.1-.2-.2-.3-.2-.1,0-.3,0-.4,0s-.4,0-.5,0c-.1,0-.2.1-.3.2Z"/>
    <path class="st41" d="M85.5,5.8v.8c0,.4,0,.8-.1,1s-.2.5-.3.7-.3.3-.5.4c-.2,0-.4.1-.7.1s-.4,0-.5,0-.3-.1-.4-.2c-.1-.1-.2-.2-.3-.4s-.2-.4-.2-.6,0-.5,0-.9v-.8c0-.4,0-.7.1-1,0-.3.2-.5.3-.7.1-.2.3-.3.5-.4.2,0,.4-.1.6-.1s.4,0,.5,0c.2,0,.3.1.4.2.1.1.2.2.3.4,0,.2.2.4.2.6s0,.5,0,.9ZM84.9,6.6v-1c0-.2,0-.4,0-.6,0-.2,0-.3-.1-.4s-.1-.2-.2-.3c0,0-.2-.1-.3-.2,0,0-.2,0-.3,0s-.3,0-.4,0c-.1,0-.2.1-.3.3,0,.1-.1.3-.2.5s0,.4,0,.7v1c0,.2,0,.4,0,.6,0,.2,0,.3.1.4,0,.1.1.2.2.3s.2.1.3.2c0,0,.2,0,.3,0s.3,0,.4,0,.2-.2.3-.3c0-.1.1-.3.2-.5,0-.2,0-.4,0-.7Z"/>
  </g>
  <g>
    <path class="st41" d="M98.6,3.7v5h-.6v-4.2l-1.3.5v-.6l1.8-.7h0Z"/>
    <path class="st41" d="M103.6,5.8v.8c0,.4,0,.8-.1,1s-.2.5-.3.7-.3.3-.5.4c-.2,0-.4.1-.7.1s-.4,0-.5,0-.3-.1-.4-.2c-.1-.1-.2-.2-.3-.4s-.2-.4-.2-.6,0-.5,0-.9v-.8c0-.4,0-.7.1-1,0-.3.2-.5.3-.7.1-.2.3-.3.5-.4.2,0,.4-.1.6-.1s.4,0,.5,0c.2,0,.3.1.4.2.1.1.2.2.3.4,0,.2.2.4.2.6s0,.5,0,.9ZM102.9,6.6v-1c0-.2,0-.4,0-.6,0-.2,0-.3-.1-.4s-.1-.2-.2-.3c0,0-.2-.1-.3-.2,0,0-.2,0-.3,0s-.3,0-.4,0c-.1,0-.2.1-.3.3,0,.1-.1.3-.2.5s0,.4,0,.7v1c0,.2,0,.4,0,.6,0,.2,0,.3.1.4,0,.1.1.2.2.3s.2.1.3.2c0,0,.2,0,.3,0s.3,0,.4,0,.2-.2.3-.3c0-.1.1-.3.2-.5,0-.2,0-.4,0-.7Z"/>
    <path class="st41" d="M107.5,5.8v.8c0,.4,0,.8-.1,1s-.2.5-.3.7-.3.3-.5.4c-.2,0-.4.1-.7.1s-.4,0-.5,0-.3-.1-.4-.2c-.1-.1-.2-.2-.3-.4s-.2-.4-.2-.6,0-.5,0-.9v-.8c0-.4,0-.7.1-1,0-.3.2-.5.3-.7.1-.2.3-.3.5-.4.2,0,.4-.1.6-.1s.4,0,.5,0c.2,0,.3.1.4.2.1.1.2.2.3.4,0,.2.2.4.2.6s0,.5,0,.9ZM106.9,6.6v-1c0-.2,0-.4,0-.6,0-.2,0-.3-.1-.4s-.1-.2-.2-.3c0,0-.2-.1-.3-.2,0,0-.2,0-.3,0s-.3,0-.4,0c-.1,0-.2.1-.3.3,0,.1-.1.3-.2.5s0,.4,0,.7v1c0,.2,0,.4,0,.6,0,.2,0,.3.1.4,0,.1.1.2.2.3s.2.1.3.2c0,0,.2,0,.3,0s.3,0,.4,0,.2-.2.3-.3c0-.1.1-.3.2-.5,0-.2,0-.4,0-.7Z"/>
  </g>
  <g>
    <path class="st41" d="M119.8,8.1v.5h-3.3v-.5l1.6-1.8c.2-.2.4-.4.5-.6.1-.2.2-.3.2-.4,0-.1,0-.3,0-.4s0-.3-.1-.4c0-.1-.2-.2-.3-.3s-.3-.1-.5-.1-.4,0-.6.1c-.1,0-.3.2-.3.4s-.1.3-.1.5h-.6c0-.3,0-.5.2-.8s.3-.4.5-.6c.2-.1.5-.2.9-.2s.6,0,.8.2c.2.1.4.3.5.5.1.2.2.4.2.7s0,.3,0,.4c0,.1-.1.3-.2.4,0,.1-.2.3-.3.4-.1.1-.2.3-.4.4l-1.3,1.4h2.5Z"/>
    <path class="st41" d="M123.6,5.8v.8c0,.4,0,.8-.1,1s-.2.5-.3.7-.3.3-.5.4c-.2,0-.4.1-.7.1s-.4,0-.5,0-.3-.1-.4-.2c-.1-.1-.2-.2-.3-.4s-.2-.4-.2-.6,0-.5,0-.9v-.8c0-.4,0-.7.1-1,0-.3.2-.5.3-.7.1-.2.3-.3.5-.4.2,0,.4-.1.6-.1s.4,0,.5,0c.2,0,.3.1.4.2.1.1.2.2.3.4,0,.2.2.4.2.6s0,.5,0,.9ZM122.9,6.6v-1c0-.2,0-.4,0-.6,0-.2,0-.3-.1-.4s-.1-.2-.2-.3c0,0-.2-.1-.3-.2,0,0-.2,0-.3,0s-.3,0-.4,0c-.1,0-.2.1-.3.3,0,.1-.1.3-.2.5s0,.4,0,.7v1c0,.2,0,.4,0,.6,0,.2,0,.3.1.4,0,.1.1.2.2.3s.2.1.3.2c0,0,.2,0,.3,0s.3,0,.4,0,.2-.2.3-.3c0-.1.1-.3.2-.5,0-.2,0-.4,0-.7Z"/>
    <path class="st41" d="M127.5,5.8v.8c0,.4,0,.8-.1,1s-.2.5-.3.7-.3.3-.5.4c-.2,0-.4.1-.7.1s-.4,0-.5,0-.3-.1-.4-.2c-.1-.1-.2-.2-.3-.4s-.2-.4-.2-.6,0-.5,0-.9v-.8c0-.4,0-.7.1-1,0-.3.2-.5.3-.7.1-.2.3-.3.5-.4.2,0,.4-.1.6-.1s.4,0,.5,0c.2,0,.3.1.4.2.1.1.2.2.3.4,0,.2.2.4.2.6s0,.5,0,.9ZM126.9,6.6v-1c0-.2,0-.4,0-.6,0-.2,0-.3-.1-.4s-.1-.2-.2-.3c0,0-.2-.1-.3-.2,0,0-.2,0-.3,0s-.3,0-.4,0c-.1,0-.2.1-.3.3,0,.1-.1.3-.2.5s0,.4,0,.7v1c0,.2,0,.4,0,.6,0,.2,0,.3.1.4,0,.1.1.2.2.3s.2.1.3.2c0,0,.2,0,.3,0s.3,0,.4,0,.2-.2.3-.3c0-.1.1-.3.2-.5,0-.2,0-.4,0-.7Z"/>
  </g>
  <g>
    <path class="st41" d="M137.4,6.4v-.4h.5c.3,0,.6,0,.8.1s.4.2.5.3c.1.1.2.3.3.4,0,.1,0,.3,0,.4,0,.2,0,.4-.1.6,0,.2-.2.3-.3.5-.1.1-.3.2-.5.3s-.4,0-.6,0-.4,0-.6,0c-.2,0-.4-.2-.5-.3-.1-.1-.3-.3-.3-.4,0-.2-.1-.4-.1-.6h.6c0,.2,0,.3.1.5,0,.1.2.2.3.3.1,0,.3.1.5.1s.4,0,.5-.1c.1,0,.2-.2.3-.3,0-.1.1-.3.1-.5s0-.4-.1-.5c0-.1-.2-.2-.4-.3-.2,0-.3,0-.6,0h-.5ZM137.4,5.9h.5c.2,0,.4,0,.5-.1.1,0,.3-.2.3-.3,0-.1.1-.3.1-.4s0-.4,0-.5-.2-.2-.3-.3-.3,0-.5,0-.3,0-.5.1c-.1,0-.2.2-.3.3,0,.1-.1.3-.1.5h-.6c0-.3,0-.5.2-.7s.3-.4.5-.5c.2-.1.5-.2.8-.2s.6,0,.8.2c.2.1.4.3.5.5.1.2.2.5.2.8s0,.3,0,.4c0,.1-.1.3-.3.4-.1.1-.3.2-.5.3-.2,0-.4.1-.7.1h-.5v-.4Z"/>
    <path class="st41" d="M143.6,5.8v.8c0,.4,0,.8-.1,1s-.2.5-.3.7-.3.3-.5.4c-.2,0-.4.1-.7.1s-.4,0-.5,0-.3-.1-.4-.2c-.1-.1-.2-.2-.3-.4s-.2-.4-.2-.6,0-.5,0-.9v-.8c0-.4,0-.7.1-1,0-.3.2-.5.3-.7.1-.2.3-.3.5-.4.2,0,.4-.1.6-.1s.4,0,.5,0c.2,0,.3.1.4.2.1.1.2.2.3.4,0,.2.2.4.2.6s0,.5,0,.9ZM142.9,6.6v-1c0-.2,0-.4,0-.6,0-.2,0-.3-.1-.4s-.1-.2-.2-.3c0,0-.2-.1-.3-.2,0,0-.2,0-.3,0s-.3,0-.4,0c-.1,0-.2.1-.3.3,0,.1-.1.3-.2.5s0,.4,0,.7v1c0,.2,0,.4,0,.6,0,.2,0,.3.1.4,0,.1.1.2.2.3s.2.1.3.2c0,0,.2,0,.3,0s.3,0,.4,0,.2-.2.3-.3c0-.1.1-.3.2-.5,0-.2,0-.4,0-.7Z"/>
    <path class="st41" d="M147.5,5.8v.8c0,.4,0,.8-.1,1s-.2.5-.3.7-.3.3-.5.4c-.2,0-.4.1-.7.1s-.4,0-.5,0-.3-.1-.4-.2c-.1-.1-.2-.2-.3-.4s-.2-.4-.2-.6,0-.5,0-.9v-.8c0-.4,0-.7.1-1,0-.3.2-.5.3-.7.1-.2.3-.3.5-.4.2,0,.4-.1.6-.1s.4,0,.5,0c.2,0,.3.1.4.2.1.1.2.2.3.4,0,.2.2.4.2.6s0,.5,0,.9ZM146.9,6.6v-1c0-.2,0-.4,0-.6,0-.2,0-.3-.1-.4s-.1-.2-.2-.3c0,0-.2-.1-.3-.2,0,0-.2,0-.3,0s-.3,0-.4,0c-.1,0-.2.1-.3.3,0,.1-.1.3-.2.5s0,.4,0,.7v1c0,.2,0,.4,0,.6,0,.2,0,.3.1.4,0,.1.1.2.2.3s.2.1.3.2c0,0,.2,0,.3,0s.3,0,.4,0,.2-.2.3-.3c0-.1.1-.3.2-.5,0-.2,0-.4,0-.7Z"/>
  </g>
  <g>
    <path class="st41" d="M159.9,7v.5h-3.6v-.4l2.2-3.4h.5l-.6,1-1.5,2.3h2.9ZM159.2,3.7v5h-.6V3.7h.6Z"/>
    <path class="st41" d="M163.6,5.8v.8c0,.4,0,.8-.1,1s-.2.5-.3.7-.3.3-.5.4c-.2,0-.4.1-.7.1s-.4,0-.5,0-.3-.1-.4-.2c-.1-.1-.2-.2-.3-.4s-.2-.4-.2-.6,0-.5,0-.9v-.8c0-.4,0-.7.1-1,0-.3.2-.5.3-.7.1-.2.3-.3.5-.4.2,0,.4-.1.6-.1s.4,0,.5,0c.2,0,.3.1.4.2.1.1.2.2.3.4,0,.2.2.4.2.6s0,.5,0,.9ZM162.9,6.6v-1c0-.2,0-.4,0-.6,0-.2,0-.3-.1-.4s-.1-.2-.2-.3c0,0-.2-.1-.3-.2,0,0-.2,0-.3,0s-.3,0-.4,0c-.1,0-.2.1-.3.3,0,.1-.1.3-.2.5s0,.4,0,.7v1c0,.2,0,.4,0,.6,0,.2,0,.3.1.4,0,.1.1.2.2.3s.2.1.3.2c0,0,.2,0,.3,0s.3,0,.4,0,.2-.2.3-.3c0-.1.1-.3.2-.5,0-.2,0-.4,0-.7Z"/>
    <path class="st41" d="M167.5,5.8v.8c0,.4,0,.8-.1,1s-.2.5-.3.7-.3.3-.5.4c-.2,0-.4.1-.7.1s-.4,0-.5,0-.3-.1-.4-.2c-.1-.1-.2-.2-.3-.4s-.2-.4-.2-.6,0-.5,0-.9v-.8c0-.4,0-.7.1-1,0-.3.2-.5.3-.7.1-.2.3-.3.5-.4.2,0,.4-.1.6-.1s.4,0,.5,0c.2,0,.3.1.4.2.1.1.2.2.3.4,0,.2.2.4.2.6s0,.5,0,.9ZM166.9,6.6v-1c0-.2,0-.4,0-.6,0-.2,0-.3-.1-.4s-.1-.2-.2-.3c0,0-.2-.1-.3-.2,0,0-.2,0-.3,0s-.3,0-.4,0c-.1,0-.2.1-.3.3,0,.1-.1.3-.2.5s0,.4,0,.7v1c0,.2,0,.4,0,.6,0,.2,0,.3.1.4,0,.1.1.2.2.3s.2.1.3.2c0,0,.2,0,.3,0s.3,0,.4,0,.2-.2.3-.3c0-.1.1-.3.2-.5,0-.2,0-.4,0-.7Z"/>
  </g>
  <g>
    <path class="st41" d="M177.3,6.3h-.5c0-.1.2-2.6.2-2.6h2.6v.6h-2l-.2,1.4c0,0,.2-.1.3-.1.1,0,.3,0,.5,0s.4,0,.6.1c.2,0,.3.2.5.3.1.1.2.3.3.5s.1.4.1.7,0,.5,0,.7c0,.2-.2.4-.3.5-.1.1-.3.3-.5.3-.2,0-.4.1-.7.1s-.4,0-.6,0c-.2,0-.3-.1-.5-.3-.1-.1-.3-.3-.3-.4,0-.2-.1-.4-.2-.6h.6c0,.2,0,.3.2.5s.2.2.3.3c.1,0,.3,0,.5,0s.3,0,.4,0,.2-.1.3-.2.1-.2.2-.4c0-.1,0-.3,0-.5s0-.3,0-.4-.1-.3-.2-.4c0-.1-.2-.2-.3-.2-.1,0-.3,0-.4,0s-.4,0-.5,0c-.1,0-.2.1-.3.2Z"/>
    <path class="st41" d="M183.6,5.8v.8c0,.4,0,.8-.1,1s-.2.5-.3.7-.3.3-.5.4c-.2,0-.4.1-.7.1s-.4,0-.5,0-.3-.1-.4-.2c-.1-.1-.2-.2-.3-.4s-.2-.4-.2-.6,0-.5,0-.9v-.8c0-.4,0-.7.1-1,0-.3.2-.5.3-.7.1-.2.3-.3.5-.4.2,0,.4-.1.6-.1s.4,0,.5,0c.2,0,.3.1.4.2.1.1.2.2.3.4,0,.2.2.4.2.6s0,.5,0,.9ZM182.9,6.6v-1c0-.2,0-.4,0-.6,0-.2,0-.3-.1-.4s-.1-.2-.2-.3c0,0-.2-.1-.3-.2,0,0-.2,0-.3,0s-.3,0-.4,0c-.1,0-.2.1-.3.3,0,.1-.1.3-.2.5s0,.4,0,.7v1c0,.2,0,.4,0,.6,0,.2,0,.3.1.4,0,.1.1.2.2.3s.2.1.3.2c0,0,.2,0,.3,0s.3,0,.4,0,.2-.2.3-.3c0-.1.1-.3.2-.5,0-.2,0-.4,0-.7Z"/>
    <path class="st41" d="M187.5,5.8v.8c0,.4,0,.8-.1,1s-.2.5-.3.7-.3.3-.5.4c-.2,0-.4.1-.7.1s-.4,0-.5,0-.3-.1-.4-.2c-.1-.1-.2-.2-.3-.4s-.2-.4-.2-.6,0-.5,0-.9v-.8c0-.4,0-.7.1-1,0-.3.2-.5.3-.7.1-.2.3-.3.5-.4.2,0,.4-.1.6-.1s.4,0,.5,0c.2,0,.3.1.4.2.1.1.2.2.3.4,0,.2.2.4.2.6s0,.5,0,.9ZM186.9,6.6v-1c0-.2,0-.4,0-.6,0-.2,0-.3-.1-.4s-.1-.2-.2-.3c0,0-.2-.1-.3-.2,0,0-.2,0-.3,0s-.3,0-.4,0c-.1,0-.2.1-.3.3,0,.1-.1.3-.2.5s0,.4,0,.7v1c0,.2,0,.4,0,.6,0,.2,0,.3.1.4,0,.1.1.2.2.3s.2.1.3.2c0,0,.2,0,.3,0s.3,0,.4,0,.2-.2.3-.3c0-.1.1-.3.2-.5,0-.2,0-.4,0-.7Z"/>
  </g>
  <g>
    <path class="st41" d="M198.9,3.7h0v.5h0c-.3,0-.6,0-.8.2-.2.1-.4.3-.5.4-.1.2-.2.4-.3.6,0,.2,0,.5,0,.7v.7c0,.2,0,.4,0,.6,0,.2.1.3.2.4s.2.2.3.3c.1,0,.2,0,.4,0s.3,0,.4,0c.1,0,.2-.1.3-.2,0-.1.1-.2.2-.4s0-.3,0-.5,0-.3,0-.4c0-.1,0-.3-.2-.4,0-.1-.2-.2-.3-.3-.1,0-.2,0-.4,0s-.3,0-.5.1c-.2,0-.3.2-.4.3,0,.1-.2.3-.2.4h-.3c0-.3,0-.5.2-.7,0-.2.2-.3.3-.4.1-.1.3-.2.4-.3.2,0,.3,0,.5,0s.5,0,.6.1.3.2.4.4c.1.2.2.3.3.5,0,.2,0,.4,0,.6s0,.5,0,.7-.2.4-.3.5c-.1.2-.3.3-.5.4s-.4.1-.7.1-.5,0-.7-.2c-.2-.1-.4-.3-.5-.4s-.2-.4-.3-.6,0-.5,0-.7v-.3c0-.4,0-.7.1-1s.2-.6.4-.9c.2-.3.4-.5.7-.7s.7-.2,1.2-.2Z"/>
    <path class="st41" d="M203.6,5.8v.8c0,.4,0,.8-.1,1s-.2.5-.3.7-.3.3-.5.4c-.2,0-.4.1-.7.1s-.4,0-.5,0-.3-.1-.4-.2c-.1-.1-.2-.2-.3-.4s-.2-.4-.2-.6,0-.5,0-.9v-.8c0-.4,0-.7.1-1,0-.3.2-.5.3-.7.1-.2.3-.3.5-.4.2,0,.4-.1.6-.1s.4,0,.5,0c.2,0,.3.1.4.2.1.1.2.2.3.4,0,.2.2.4.2.6s0,.5,0,.9ZM202.9,6.6v-1c0-.2,0-.4,0-.6,0-.2,0-.3-.1-.4s-.1-.2-.2-.3c0,0-.2-.1-.3-.2,0,0-.2,0-.3,0s-.3,0-.4,0c-.1,0-.2.1-.3.3,0,.1-.1.3-.2.5s0,.4,0,.7v1c0,.2,0,.4,0,.6,0,.2,0,.3.1.4,0,.1.1.2.2.3s.2.1.3.2c0,0,.2,0,.3,0s.3,0,.4,0,.2-.2.3-.3c0-.1.1-.3.2-.5,0-.2,0-.4,0-.7Z"/>
    <path class="st41" d="M207.5,5.8v.8c0,.4,0,.8-.1,1s-.2.5-.3.7-.3.3-.5.4c-.2,0-.4.1-.7.1s-.4,0-.5,0-.3-.1-.4-.2c-.1-.1-.2-.2-.3-.4s-.2-.4-.2-.6,0-.5,0-.9v-.8c0-.4,0-.7.1-1,0-.3.2-.5.3-.7.1-.2.3-.3.5-.4.2,0,.4-.1.6-.1s.4,0,.5,0c.2,0,.3.1.4.2.1.1.2.2.3.4,0,.2.2.4.2.6s0,.5,0,.9ZM206.9,6.6v-1c0-.2,0-.4,0-.6,0-.2,0-.3-.1-.4s-.1-.2-.2-.3c0,0-.2-.1-.3-.2,0,0-.2,0-.3,0s-.3,0-.4,0c-.1,0-.2.1-.3.3,0,.1-.1.3-.2.5s0,.4,0,.7v1c0,.2,0,.4,0,.6,0,.2,0,.3.1.4,0,.1.1.2.2.3s.2.1.3.2c0,0,.2,0,.3,0s.3,0,.4,0,.2-.2.3-.3c0-.1.1-.3.2-.5,0-.2,0-.4,0-.7Z"/>
  </g>
  <g>
    <path class="st41" d="M219.7,3.7v.4l-2.1,4.6h-.7l2.1-4.5h-2.7v-.5h3.4Z"/>
    <path class="st41" d="M223.6,5.8v.8c0,.4,0,.8-.1,1,0,.3-.2.5-.3.7s-.3.3-.5.4c-.2,0-.4.1-.7.1s-.4,0-.5,0c-.2,0-.3-.1-.4-.2-.1-.1-.2-.2-.3-.4,0-.2-.2-.4-.2-.6s0-.5,0-.9v-.8c0-.4,0-.7.1-1s.2-.5.3-.7c.1-.2.3-.3.5-.4.2,0,.4-.1.6-.1s.4,0,.5,0c.2,0,.3.1.4.2.1.1.2.2.3.4,0,.2.2.4.2.6s0,.5,0,.9ZM222.9,6.6v-1c0-.2,0-.4,0-.6,0-.2,0-.3-.1-.4,0-.1-.1-.2-.2-.3,0,0-.2-.1-.3-.2,0,0-.2,0-.3,0s-.3,0-.4,0c-.1,0-.2.1-.3.3,0,.1-.1.3-.2.5s0,.4,0,.7v1c0,.2,0,.4,0,.6,0,.2,0,.3.1.4,0,.1.1.2.2.3s.2.1.3.2c0,0,.2,0,.3,0s.3,0,.4,0,.2-.2.3-.3c0-.1.1-.3.2-.5,0-.2,0-.4,0-.7Z"/>
    <path class="st41" d="M227.5,5.8v.8c0,.4,0,.8-.1,1,0,.3-.2.5-.3.7s-.3.3-.5.4c-.2,0-.4.1-.7.1s-.4,0-.5,0c-.2,0-.3-.1-.4-.2-.1-.1-.2-.2-.3-.4,0-.2-.2-.4-.2-.6s0-.5,0-.9v-.8c0-.4,0-.7.1-1,0-.3.2-.5.3-.7.1-.2.3-.3.5-.4s.4-.1.6-.1.4,0,.5,0c.2,0,.3.1.4.2.1.1.2.2.3.4,0,.2.2.4.2.6s0,.5,0,.9ZM226.9,6.6v-1c0-.2,0-.4,0-.6,0-.2,0-.3-.1-.4,0-.1-.1-.2-.2-.3s-.2-.1-.3-.2c0,0-.2,0-.3,0s-.3,0-.4,0c-.1,0-.2.1-.3.3,0,.1-.1.3-.2.5s0,.4,0,.7v1c0,.2,0,.4,0,.6s0,.3.1.4c0,.1.1.2.2.3s.2.1.3.2c0,0,.2,0,.3,0s.3,0,.4,0,.2-.2.3-.3c0-.1.1-.3.2-.5,0-.2,0-.4,0-.7Z"/>
  </g>
  <g>
    <path class="st41" d="M239.7,7.3c0,.3,0,.6-.2.8-.1.2-.3.4-.6.5-.2.1-.5.2-.8.2s-.6,0-.8-.2-.4-.3-.6-.5c-.1-.2-.2-.5-.2-.8s0-.4.1-.5c0-.2.2-.3.3-.4.1-.1.3-.2.5-.3.2,0,.4-.1.6-.1s.6,0,.8.2c.2.1.4.3.6.5s.2.4.2.7ZM239.5,5c0,.2,0,.5-.2.7-.1.2-.3.3-.5.5-.2.1-.5.2-.8.2s-.5,0-.8-.2c-.2-.1-.4-.3-.5-.5-.1-.2-.2-.4-.2-.7s0-.5.2-.7c.1-.2.3-.4.5-.5.2-.1.5-.2.8-.2s.5,0,.8.2c.2.1.4.3.5.5.1.2.2.4.2.7ZM239,7.3c0-.2,0-.3-.1-.5,0-.1-.2-.3-.3-.3s-.3-.1-.5-.1-.4,0-.5.1c-.1,0-.2.2-.3.3,0,.1-.1.3-.1.5s0,.4.1.5c0,.1.2.2.3.3.1,0,.3.1.5.1s.4,0,.5-.1c.1,0,.2-.2.3-.3,0-.1.1-.3.1-.5ZM238.9,5c0-.2,0-.3-.1-.4,0-.1-.2-.2-.3-.3-.1,0-.3-.1-.4-.1s-.3,0-.4.1c-.1,0-.2.2-.3.3s-.1.3-.1.5,0,.3.1.4.2.2.3.3c.1,0,.3.1.4.1s.3,0,.4-.1c.1,0,.2-.2.3-.3,0-.1.1-.3.1-.4Z"/>
    <path class="st41" d="M243.6,5.8v.8c0,.4,0,.8-.1,1,0,.3-.2.5-.3.7s-.3.3-.5.4c-.2,0-.4.1-.7.1s-.4,0-.5,0c-.2,0-.3-.1-.4-.2-.1-.1-.2-.2-.3-.4,0-.2-.2-.4-.2-.6s0-.5,0-.9v-.8c0-.4,0-.7.1-1s.2-.5.3-.7c.1-.2.3-.3.5-.4.2,0,.4-.1.6-.1s.4,0,.5,0c.2,0,.3.1.4.2.1.1.2.2.3.4,0,.2.2.4.2.6s0,.5,0,.9ZM242.9,6.6v-1c0-.2,0-.4,0-.6,0-.2,0-.3-.1-.4,0-.1-.1-.2-.2-.3,0,0-.2-.1-.3-.2,0,0-.2,0-.3,0s-.3,0-.4,0c-.1,0-.2.1-.3.3,0,.1-.1.3-.2.5s0,.4,0,.7v1c0,.2,0,.4,0,.6,0,.2,0,.3.1.4,0,.1.1.2.2.3s.2.1.3.2c0,0,.2,0,.3,0s.3,0,.4,0,.2-.2.3-.3c0-.1.1-.3.2-.5,0-.2,0-.4,0-.7Z"/>
    <path class="st41" d="M247.5,5.8v.8c0,.4,0,.8-.1,1,0,.3-.2.5-.3.7s-.3.3-.5.4c-.2,0-.4.1-.7.1s-.4,0-.5,0c-.2,0-.3-.1-.4-.2-.1-.1-.2-.2-.3-.4,0-.2-.2-.4-.2-.6s0-.5,0-.9v-.8c0-.4,0-.7.1-1,0-.3.2-.5.3-.7.1-.2.3-.3.5-.4s.4-.1.6-.1.4,0,.5,0c.2,0,.3.1.4.2.1.1.2.2.3.4,0,.2.2.4.2.6s0,.5,0,.9ZM246.9,6.6v-1c0-.2,0-.4,0-.6,0-.2,0-.3-.1-.4,0-.1-.1-.2-.2-.3s-.2-.1-.3-.2c0,0-.2,0-.3,0s-.3,0-.4,0c-.1,0-.2.1-.3.3,0,.1-.1.3-.2.5s0,.4,0,.7v1c0,.2,0,.4,0,.6s0,.3.1.4c0,.1.1.2.2.3s.2.1.3.2c0,0,.2,0,.3,0s.3,0,.4,0,.2-.2.3-.3c0-.1.1-.3.2-.5,0-.2,0-.4,0-.7Z"/>
  </g>
  <g>
    <path class="st41" d="M257.1,8.1h0c.4,0,.7,0,.9-.2.2-.1.4-.2.5-.4s.2-.4.3-.6c0-.2,0-.4,0-.7v-.8c0-.2,0-.4,0-.6,0-.2-.1-.3-.2-.4,0-.1-.2-.2-.3-.3-.1,0-.2,0-.4,0s-.3,0-.4,0c-.1,0-.2.1-.3.2,0,.1-.1.2-.2.4s0,.3,0,.5,0,.3,0,.4c0,.1,0,.3.2.4s.2.2.3.3c.1,0,.2,0,.4,0s.3,0,.4,0c.1,0,.2-.1.3-.2,0,0,.2-.2.2-.3,0-.1,0-.3.1-.4h.3c0,.2,0,.4-.1.6,0,.2-.2.4-.3.5-.1.2-.3.3-.5.4-.2,0-.4.1-.6.1s-.5,0-.6-.1c-.2,0-.3-.2-.4-.4-.1-.2-.2-.3-.3-.5,0-.2,0-.4,0-.6s0-.5,0-.7c0-.2.2-.4.3-.5.1-.2.3-.3.5-.4s.4-.1.7-.1.5,0,.7.2c.2.1.4.3.5.5.1.2.2.4.3.6,0,.2,0,.5,0,.7v.2c0,.3,0,.5,0,.8,0,.3,0,.5-.2.8,0,.2-.2.5-.4.6-.2.2-.4.3-.7.5-.3.1-.6.2-1,.2h0v-.5Z"/>
    <path class="st41" d="M263.6,5.8v.8c0,.4,0,.8-.1,1,0,.3-.2.5-.3.7s-.3.3-.5.4c-.2,0-.4.1-.7.1s-.4,0-.5,0c-.2,0-.3-.1-.4-.2-.1-.1-.2-.2-.3-.4,0-.2-.2-.4-.2-.6s0-.5,0-.9v-.8c0-.4,0-.7.1-1s.2-.5.3-.7c.1-.2.3-.3.5-.4.2,0,.4-.1.6-.1s.4,0,.5,0c.2,0,.3.1.4.2.1.1.2.2.3.4,0,.2.2.4.2.6s0,.5,0,.9ZM262.9,6.6v-1c0-.2,0-.4,0-.6,0-.2,0-.3-.1-.4,0-.1-.1-.2-.2-.3,0,0-.2-.1-.3-.2,0,0-.2,0-.3,0s-.3,0-.4,0c-.1,0-.2.1-.3.3,0,.1-.1.3-.2.5s0,.4,0,.7v1c0,.2,0,.4,0,.6,0,.2,0,.3.1.4,0,.1.1.2.2.3s.2.1.3.2c0,0,.2,0,.3,0s.3,0,.4,0,.2-.2.3-.3c0-.1.1-.3.2-.5,0-.2,0-.4,0-.7Z"/>
    <path class="st41" d="M267.5,5.8v.8c0,.4,0,.8-.1,1,0,.3-.2.5-.3.7s-.3.3-.5.4c-.2,0-.4.1-.7.1s-.4,0-.5,0c-.2,0-.3-.1-.4-.2-.1-.1-.2-.2-.3-.4,0-.2-.2-.4-.2-.6s0-.5,0-.9v-.8c0-.4,0-.7.1-1,0-.3.2-.5.3-.7.1-.2.3-.3.5-.4s.4-.1.6-.1.4,0,.5,0c.2,0,.3.1.4.2.1.1.2.2.3.4,0,.2.2.4.2.6s0,.5,0,.9ZM266.9,6.6v-1c0-.2,0-.4,0-.6,0-.2,0-.3-.1-.4,0-.1-.1-.2-.2-.3s-.2-.1-.3-.2c0,0-.2,0-.3,0s-.3,0-.4,0c-.1,0-.2.1-.3.3,0,.1-.1.3-.2.5s0,.4,0,.7v1c0,.2,0,.4,0,.6s0,.3.1.4c0,.1.1.2.2.3s.2.1.3.2c0,0,.2,0,.3,0s.3,0,.4,0,.2-.2.3-.3c0-.1.1-.3.2-.5,0-.2,0-.4,0-.7Z"/>
  </g>
  <g>
    <path class="st41" d="M276.2,4.1l-1.6,4.5h-.7l1.9-5h.4v.4ZM277.5,6.8v.5h-2.8v-.5h2.8ZM277.6,8.7l-1.7-4.5v-.4s.4,0,.4,0l1.9,5h-.7Z"/>
    <path class="st41" d="M280.9,3.7v5h-.6v-4.2l-1.3.5v-.6l1.8-.7h0Z"/>
    <path class="st41" d="M285.9,5.8v.8c0,.4,0,.8-.1,1,0,.3-.2.5-.3.7s-.3.3-.5.4c-.2,0-.4.1-.7.1s-.4,0-.5,0c-.2,0-.3-.1-.4-.2-.1-.1-.2-.2-.3-.4,0-.2-.2-.4-.2-.6s0-.5,0-.9v-.8c0-.4,0-.7.1-1s.2-.5.3-.7c.1-.2.3-.3.5-.4.2,0,.4-.1.6-.1s.4,0,.5,0c.2,0,.3.1.4.2.1.1.2.2.3.4,0,.2.2.4.2.6s0,.5,0,.9ZM285.2,6.6v-1c0-.2,0-.4,0-.6,0-.2,0-.3-.1-.4,0-.1-.1-.2-.2-.3,0,0-.2-.1-.3-.2,0,0-.2,0-.3,0s-.3,0-.4,0c-.1,0-.2.1-.3.3,0,.1-.1.3-.2.5s0,.4,0,.7v1c0,.2,0,.4,0,.6,0,.2,0,.3.1.4,0,.1.1.2.2.3s.2.1.3.2c0,0,.2,0,.3,0s.3,0,.4,0,.2-.2.3-.3c0-.1.1-.3.2-.5,0-.2,0-.4,0-.7Z"/>
    <path class="st41" d="M289.8,5.8v.8c0,.4,0,.8-.1,1,0,.3-.2.5-.3.7s-.3.3-.5.4c-.2,0-.4.1-.7.1s-.4,0-.5,0c-.2,0-.3-.1-.4-.2-.1-.1-.2-.2-.3-.4,0-.2-.2-.4-.2-.6s0-.5,0-.9v-.8c0-.4,0-.7.1-1,0-.3.2-.5.3-.7.1-.2.3-.3.5-.4s.4-.1.6-.1.4,0,.5,0c.2,0,.3.1.4.2.1.1.2.2.3.4,0,.2.2.4.2.6s0,.5,0,.9ZM289.2,6.6v-1c0-.2,0-.4,0-.6,0-.2,0-.3-.1-.4,0-.1-.1-.2-.2-.3s-.2-.1-.3-.2c0,0-.2,0-.3,0s-.3,0-.4,0c-.1,0-.2.1-.3.3,0,.1-.1.3-.2.5s0,.4,0,.7v1c0,.2,0,.4,0,.6s0,.3.1.4c0,.1.1.2.2.3s.2.1.3.2c0,0,.2,0,.3,0s.3,0,.4,0,.2-.2.3-.3c0-.1.1-.3.2-.5,0-.2,0-.4,0-.7Z"/>
  </g>
  <g>
    <path class="st41" d="M296.2,4.1l-1.6,4.5h-.7l1.9-5h.4v.4ZM297.5,6.8v.5h-2.8v-.5h2.8ZM297.6,8.7l-1.7-4.5v-.4s.4,0,.4,0l1.9,5h-.7Z"/>
    <path class="st41" d="M302.1,8.1v.5h-3.3v-.5l1.6-1.8c.2-.2.4-.4.5-.6.1-.2.2-.3.2-.4,0-.1,0-.3,0-.4s0-.3-.1-.4c0-.1-.2-.2-.3-.3s-.3-.1-.5-.1-.4,0-.6.1c-.1,0-.3.2-.3.4,0,.2-.1.3-.1.5h-.6c0-.3,0-.5.2-.8s.3-.4.5-.6c.2-.1.5-.2.9-.2s.6,0,.8.2c.2.1.4.3.5.5.1.2.2.4.2.7s0,.3,0,.4c0,.1-.1.3-.2.4,0,.1-.2.3-.3.4-.1.1-.2.3-.4.4l-1.3,1.4h2.5Z"/>
    <path class="st41" d="M305.9,5.8v.8c0,.4,0,.8-.1,1,0,.3-.2.5-.3.7s-.3.3-.5.4c-.2,0-.4.1-.7.1s-.4,0-.5,0c-.2,0-.3-.1-.4-.2-.1-.1-.2-.2-.3-.4,0-.2-.2-.4-.2-.6s0-.5,0-.9v-.8c0-.4,0-.7.1-1s.2-.5.3-.7c.1-.2.3-.3.5-.4.2,0,.4-.1.6-.1s.4,0,.5,0c.2,0,.3.1.4.2.1.1.2.2.3.4,0,.2.2.4.2.6s0,.5,0,.9ZM305.2,6.6v-1c0-.2,0-.4,0-.6,0-.2,0-.3-.1-.4,0-.1-.1-.2-.2-.3,0,0-.2-.1-.3-.2,0,0-.2,0-.3,0s-.3,0-.4,0c-.1,0-.2.1-.3.3,0,.1-.1.3-.2.5s0,.4,0,.7v1c0,.2,0,.4,0,.6,0,.2,0,.3.1.4,0,.1.1.2.2.3s.2.1.3.2c0,0,.2,0,.3,0s.3,0,.4,0,.2-.2.3-.3c0-.1.1-.3.2-.5,0-.2,0-.4,0-.7Z"/>
    <path class="st41" d="M309.8,5.8v.8c0,.4,0,.8-.1,1,0,.3-.2.5-.3.7s-.3.3-.5.4c-.2,0-.4.1-.7.1s-.4,0-.5,0c-.2,0-.3-.1-.4-.2-.1-.1-.2-.2-.3-.4,0-.2-.2-.4-.2-.6s0-.5,0-.9v-.8c0-.4,0-.7.1-1,0-.3.2-.5.3-.7.1-.2.3-.3.5-.4s.4-.1.6-.1.4,0,.5,0c.2,0,.3.1.4.2.1.1.2.2.3.4,0,.2.2.4.2.6s0,.5,0,.9ZM309.2,6.6v-1c0-.2,0-.4,0-.6,0-.2,0-.3-.1-.4,0-.1-.1-.2-.2-.3s-.2-.1-.3-.2c0,0-.2,0-.3,0s-.3,0-.4,0c-.1,0-.2.1-.3.3,0,.1-.1.3-.2.5s0,.4,0,.7v1c0,.2,0,.4,0,.6s0,.3.1.4c0,.1.1.2.2.3s.2.1.3.2c0,0,.2,0,.3,0s.3,0,.4,0,.2-.2.3-.3c0-.1.1-.3.2-.5,0-.2,0-.4,0-.7Z"/>
  </g>
  <g>
    <path class="st41" d="M316.2,4.1l-1.6,4.5h-.7l1.9-5h.4v.4ZM317.5,6.8v.5h-2.8v-.5h2.8ZM317.6,8.7l-1.7-4.5v-.4s.4,0,.4,0l1.9,5h-.7Z"/>
    <path class="st41" d="M322.2,7v.5h-3.6v-.4l2.2-3.4h.5l-.6,1-1.5,2.3h2.9ZM321.5,3.7v5h-.6V3.7h.6Z"/>
    <path class="st41" d="M325.9,5.8v.8c0,.4,0,.8-.1,1,0,.3-.2.5-.3.7s-.3.3-.5.4c-.2,0-.4.1-.7.1s-.4,0-.5,0c-.2,0-.3-.1-.4-.2-.1-.1-.2-.2-.3-.4,0-.2-.2-.4-.2-.6s0-.5,0-.9v-.8c0-.4,0-.7.1-1s.2-.5.3-.7c.1-.2.3-.3.5-.4.2,0,.4-.1.6-.1s.4,0,.5,0c.2,0,.3.1.4.2.1.1.2.2.3.4,0,.2.2.4.2.6s0,.5,0,.9ZM325.2,6.6v-1c0-.2,0-.4,0-.6,0-.2,0-.3-.1-.4,0-.1-.1-.2-.2-.3,0,0-.2-.1-.3-.2,0,0-.2,0-.3,0s-.3,0-.4,0c-.1,0-.2.1-.3.3,0,.1-.1.3-.2.5s0,.4,0,.7v1c0,.2,0,.4,0,.6,0,.2,0,.3.1.4,0,.1.1.2.2.3s.2.1.3.2c0,0,.2,0,.3,0s.3,0,.4,0,.2-.2.3-.3c0-.1.1-.3.2-.5,0-.2,0-.4,0-.7Z"/>
    <path class="st41" d="M329.8,5.8v.8c0,.4,0,.8-.1,1,0,.3-.2.5-.3.7s-.3.3-.5.4c-.2,0-.4.1-.7.1s-.4,0-.5,0c-.2,0-.3-.1-.4-.2-.1-.1-.2-.2-.3-.4,0-.2-.2-.4-.2-.6s0-.5,0-.9v-.8c0-.4,0-.7.1-1,0-.3.2-.5.3-.7.1-.2.3-.3.5-.4s.4-.1.6-.1.4,0,.5,0c.2,0,.3.1.4.2.1.1.2.2.3.4,0,.2.2.4.2.6s0,.5,0,.9ZM329.2,6.6v-1c0-.2,0-.4,0-.6,0-.2,0-.3-.1-.4,0-.1-.1-.2-.2-.3s-.2-.1-.3-.2c0,0-.2,0-.3,0s-.3,0-.4,0c-.1,0-.2.1-.3.3,0,.1-.1.3-.2.5s0,.4,0,.7v1c0,.2,0,.4,0,.6s0,.3.1.4c0,.1.1.2.2.3s.2.1.3.2c0,0,.2,0,.3,0s.3,0,.4,0,.2-.2.3-.3c0-.1.1-.3.2-.5,0-.2,0-.4,0-.7Z"/>
  </g>
  <g>
    <path class="st41" d="M336.2,4.1l-1.6,4.5h-.7l1.9-5h.4v.4ZM337.5,6.8v.5h-2.8v-.5h2.8ZM337.6,8.7l-1.7-4.5v-.4s.4,0,.4,0l1.9,5h-.7Z"/>
    <path class="st41" d="M342,3.7v.4l-2.1,4.6h-.7l2.1-4.5h-2.7v-.5h3.4Z"/>
    <path class="st41" d="M345.9,5.8v.8c0,.4,0,.8-.1,1,0,.3-.2.5-.3.7s-.3.3-.5.4c-.2,0-.4.1-.7.1s-.4,0-.5,0c-.2,0-.3-.1-.4-.2-.1-.1-.2-.2-.3-.4,0-.2-.2-.4-.2-.6s0-.5,0-.9v-.8c0-.4,0-.7.1-1s.2-.5.3-.7c.1-.2.3-.3.5-.4.2,0,.4-.1.6-.1s.4,0,.5,0c.2,0,.3.1.4.2.1.1.2.2.3.4,0,.2.2.4.2.6s0,.5,0,.9ZM345.2,6.6v-1c0-.2,0-.4,0-.6,0-.2,0-.3-.1-.4,0-.1-.1-.2-.2-.3,0,0-.2-.1-.3-.2,0,0-.2,0-.3,0s-.3,0-.4,0c-.1,0-.2.1-.3.3,0,.1-.1.3-.2.5s0,.4,0,.7v1c0,.2,0,.4,0,.6,0,.2,0,.3.1.4,0,.1.1.2.2.3s.2.1.3.2c0,0,.2,0,.3,0s.3,0,.4,0,.2-.2.3-.3c0-.1.1-.3.2-.5,0-.2,0-.4,0-.7Z"/>
    <path class="st41" d="M349.8,5.8v.8c0,.4,0,.8-.1,1,0,.3-.2.5-.3.7s-.3.3-.5.4c-.2,0-.4.1-.7.1s-.4,0-.5,0c-.2,0-.3-.1-.4-.2-.1-.1-.2-.2-.3-.4,0-.2-.2-.4-.2-.6s0-.5,0-.9v-.8c0-.4,0-.7.1-1,0-.3.2-.5.3-.7.1-.2.3-.3.5-.4s.4-.1.6-.1.4,0,.5,0c.2,0,.3.1.4.2.1.1.2.2.3.4,0,.2.2.4.2.6s0,.5,0,.9ZM349.2,6.6v-1c0-.2,0-.4,0-.6,0-.2,0-.3-.1-.4,0-.1-.1-.2-.2-.3s-.2-.1-.3-.2c0,0-.2,0-.3,0s-.3,0-.4,0c-.1,0-.2.1-.3.3,0,.1-.1.3-.2.5s0,.4,0,.7v1c0,.2,0,.4,0,.6s0,.3.1.4c0,.1.1.2.2.3s.2.1.3.2c0,0,.2,0,.3,0s.3,0,.4,0,.2-.2.3-.3c0-.1.1-.3.2-.5,0-.2,0-.4,0-.7Z"/>
  </g>
</svg>