<svg height="320" viewBox="0 0 320 320" width="320" xmlns="http://www.w3.org/2000/svg" xmlns:xlink="http://www.w3.org/1999/xlink"><clipPath id="a"><path d="m0 256h256v-256h-256z"/></clipPath><g clip-path="url(#a)" fill="#fff" transform="matrix(1.3333333 0 0 -1.3333333 -10.666666 330.66653)"><path d="m0 0c0-2.916-2.357-5.273-5.273-5.273h-14.727v82.133c0 5.441-4.555 9.867-10.154 9.867h-147.692c-5.599 0-10.154-4.426-10.154-9.867v-82.133h-22.909l-21.091 26.364v200.364c0 2.915 2.357 5.272 5.273 5.272h22.727v-110.2c0-5.404 4.011-9.8 8.941-9.8h158.118c4.93 0 8.941 4.396 8.941 9.8v110.2h22.727c2.916 0 5.273-2.357 5.273-5.272zm-52-5.273v72.728c0 6.321-4.153 11.272-9.454 11.272h-109.092c-5.301 0-9.454-4.951-9.454-11.272v-72.728h-4v82.133c0 3.245 2.751 5.867 6.154 5.867h147.692c3.403 0 6.154-2.622 6.154-5.867v-82.133zm-124 0v72.728c0 4.021 2.438 7.272 5.454 7.272h109.092c3.016 0 5.454-3.251 5.454-7.272v-72.728zm144 232v-110.2c0-3.207-2.209-5.8-4.941-5.8h-158.118c-2.732 0-4.941 2.593-4.941 5.8v110.2zm26.727 4h-22.727-4-168-4-22.727c-5.113 0-9.273-4.16-9.273-9.272v-200.364-1.403l.877-1.096 21.091-26.364 1.2-1.501h1.923 22.909 4 4 4 120 4 28 4 14.727c5.113 0 9.273 4.16 9.273 9.273v221.455c0 5.112-4.16 9.272-9.273 9.272" transform="translate(244 17.2729)"/><path d="m236 212h-12v12h12zm-12 15.464h-3.464v-3.464-12-3.464h3.464 12 3.464v3.464 12 3.464h-3.464z"/><path d="m84 76h28v-52h-28zm-4-56h36v60h-36z"/></g></svg>