<svg height="245.33333" viewBox="0 0 320.62799 245.33333" width="320.62799" xmlns="http://www.w3.org/2000/svg" xmlns:xlink="http://www.w3.org/1999/xlink"><clipPath id="a"><path d="m0 256h256v-256h-256z"/></clipPath><g clip-path="url(#a)" fill="#fff" transform="matrix(1.3333333 0 0 -1.3333333 -10.352666 293.33306)"><path d="m0 0c-.986-.493-2.144-.756-3.328-.756h-180.468c-1.098 0-2.152.218-2.928.607l-22.788 11.393h17.136l9.73-7.578c.351-.273.784-.422 1.229-.422h175.811c.445 0 .878.149 1.229.422l9.73 7.578h17.135zm-1.157 11.244-5.136-4h-174.437l-5.136 4zm-200.893 134.571c.302 5.292 4.682 9.429 9.983 9.429h28.428l-5.618-53.372c-.157-1.496.258-2.993 1.145-4.193-.729-.657-1.3-1.487-1.622-2.453l-1.361-4.083c-.799.06-1.603.101-2.417.101-17.644 0-32-14.355-32-32s14.356-32 32-32c.217 0 .431.011.647.015.623-1.14 1.665-2.078 3.027-2.596l.279-.106.291-.063 23.473-5.11c.628-.198 1.284-.298 1.955-.298l54.34.158 54.305-.158c.681 0 1.339.1 1.967.298l23.473 5.11.291.063.278.106c1.721.654 2.934 1.975 3.423 3.535 13.912 3.474 24.251 16.073 24.251 31.046 0 17.121-13.515 31.143-30.437 31.961l-1.34 4.021c-.322.966-.893 1.796-1.622 2.453.887 1.2 1.302 2.697 1.145 4.193l-5.618 53.372h24.428c5.301 0 9.681-4.137 9.983-9.429l7.461-130.571h-17.822-196.355-17.823zm186.472-56.373 9.294-27.881c.385-1.155-.576-2.317-1.916-2.317h-33.312-4-96-4-29.311c-1.34 0-2.301 1.162-1.916 2.317l10.8 32.4c.254.762 1.032 1.283 1.916 1.283h.733 143.557.733c.884 0 1.662-.521 1.916-1.283l.945-2.834zm-164.169-31.715c.054-.076.118-.142.176-.215-1.194-1.118-1.941-2.68-1.941-4.41v-15.715c0-2.885 2.069-5.305 4.845-5.961-13.978 1.568-24.845 13.422-24.845 27.818 0 15.464 12.536 28 28 28 .372 0 .741-.012 1.109-.026l-8.131-24.392c-.58-1.741-.294-3.6.787-5.099m169.141-29.324-23.694-5.159c-.274-.104-.576-.158-.883-.158l-54.329.158-54.328-.158c-.307 0-.609.054-.883.158l-23.694 5.159c-1.864.707-1.201 2.841.883 2.841h78.022 78.023c2.084 0 2.747-2.134.883-2.841m2.744 26.841c1.296 0 2.35-.961 2.35-2.142v-15.715c0-1.182-1.054-2.143-2.35-2.143h-3.627-16.448-6.707-54.868-62.867-6.707-8.448-7.627c-1.296 0-2.351.961-2.351 2.143v15.715c0 1.181 1.055 2.142 2.351 2.142h.338 29.022 4.031 96.517 4.031 33.022zm4.41 2.268c.058.073.122.139.176.215 1.081 1.499 1.367 3.358.787 5.099l-8.088 24.265c14.084-1.467 25.065-13.374 25.065-27.847 0-11.831-7.341-21.94-17.713-26.041 1.059 1.098 1.713 2.567 1.713 4.184v15.715c0 1.73-.746 3.292-1.94 4.41m-155.998 99.315.254 2.417.742 7.047c.536 5.089 4.827 8.953 9.945 8.953h113.995c5.117 0 9.409-3.864 9.945-8.953l.742-7.047.254-2.417 5.829-55.373c.124-1.181-.802-2.21-1.989-2.21h-143.557c-1.187 0-2.113 1.029-1.989 2.21zm186.174-145.583-.242 4.228-7.461 130.571c-.423 7.402-6.563 13.201-13.977 13.201h-24.849l-.786 7.466c-.752 7.146-6.738 12.534-13.923 12.534h-113.995c-7.185 0-13.171-5.388-13.923-12.534l-.786-7.466h-28.849c-7.414 0-13.554-5.799-13.977-13.201l-7.461-130.571-.242-4.228h.235v-2.472l2.212-1.105 22.787-11.394c1.326-.663 3.002-1.029 4.717-1.029h180.468c1.806 0 3.575.408 5.117 1.178l22.488 11.245 2.211 1.105v2.472z" transform="translate(221.5115 40.7558)"/><path d="m0 0c0 1.105-.895 2-2 2h-8c-1.105 0-2-.895-2-2s.895-2 2-2h8c1.105 0 2 .895 2 2" transform="translate(32 62)"/></g></svg>