<svg height="224" viewBox="0 0 224 224" width="224" xmlns="http://www.w3.org/2000/svg" xmlns:xlink="http://www.w3.org/1999/xlink"><clipPath id="a"><path d="m0 256h256v-256h-256z"/></clipPath><g clip-path="url(#a)" fill="#fff" transform="matrix(1.3333333 0 0 -1.3333333 -58.666665 282.66666)"><path d="m0 0h-16c-4.418 0-8-3.582-8-8v-48h-24l40.016-48 39.984 48h-24v48c0 4.418-3.582 8-8 8m0-4c2.206 0 4-1.794 4-4v-48-4h4 15.462l-31.447-37.752-31.473 37.752h15.458 4v4 48c0 2.206 1.794 4 4 4z" transform="translate(136 176)"/><path d="m0 0h-72c-4.411 0-8-3.589-8-8s3.589-8 8-8h72c4.411 0 8 3.589 8 8s-3.589 8-8 8m0-4c2.209 0 4-1.791 4-4s-1.791-4-4-4h-72c-2.209 0-4 1.791-4 4s1.791 4 4 4z" transform="translate(164 68)"/><path d="m0 0h-4-160-4v-4-160-4h4 160 4v4 160zm-4-164h-160v160h160z" transform="translate(212 212)"/><path d="m0 0c-3.562 16.331-18.244 28.276-35.419 28.276-10.933 0-19.45-3.929-25.973-12h-6.027c-9.773 0-17.932-7.047-19.662-16.326-20.636-2.773-36.338-20.451-36.338-41.674 0-11.295 3.977-21.804 11.197-29.59 7.421-8.003 17.65-12.41 28.803-12.41h24v4h-24c-20.987 0-36 17.014-36 38 0 20.317 15.942 36.961 36 38 0 8.836 7.164 16 16 16h8c5.817 8.003 13.349 12 24 12 16.333 0 30.05-12.195 32-28 20.175-.914 36-17.6 36-38 0-20.986-15.014-38-36-38h-24v-4h24c11.153 0 21.382 4.407 28.803 12.41 7.22 7.786 11.197 18.295 11.197 29.59 0 21.435-15.822 39.171-36.581 41.724" transform="translate(171.4189 175.7241)"/></g></svg>