<svg height="213.33333" viewBox="0 0 320 213.33333" width="320" xmlns="http://www.w3.org/2000/svg" xmlns:xlink="http://www.w3.org/1999/xlink"><clipPath id="a"><path d="m0 256h256v-256h-256z"/></clipPath><g clip-path="url(#a)" fill="#fff" transform="matrix(1.3333333 0 0 -1.3333333 -10.666666 277.33333)"><path d="m0 0h-60-60c-.909 0-22.414-.249-35.43-21.942-12.143-20.238-20.045-66.592-20.505-69.338-.295-1.488-4.065-20.806-4.065-36.72 0-17.645 8.972-32 20-32h8.209c3.614 0 6.999 1.604 9.287 4.401l28.799 35.198c2.288 2.797 5.673 4.401 9.287 4.401h88.836c3.614 0 6.999-1.604 9.287-4.401l28.798-35.198c2.289-2.797 5.674-4.401 9.288-4.401h8.209c11.028 0 20 14.355 20 32 0 15.914-3.77 35.232-4.065 36.72-.46 2.746-8.362 49.1-20.505 69.338-13.016 21.693-34.521 21.942-35.43 21.942m0-4s20 0 32-20 20-68 20-68 4-20 4-36-8-28-16-28h-8.209c-2.399 0-4.672 1.077-6.192 2.934l-28.798 35.198c-3.039 3.714-7.584 5.868-12.383 5.868h-88.836c-4.799 0-9.344-2.154-12.383-5.868l-28.798-35.198c-1.52-1.857-3.793-2.934-6.192-2.934h-8.209c-8 0-16 12-16 28s4 36 4 36 8 48 20 68 32 20 32 20h60z" transform="translate(188 208)"/><path d="m0 0h-16-96-16c-17.645 0-32-14.355-32-32 0-2.788 1.083-12.246 4.57-18.058 9.802-16.337 29.733-42.683 37.846-53.252 2.255-2.937 5.812-4.69 9.517-4.69h44.067 44.067c3.705 0 7.262 1.753 9.517 4.69 8.113 10.569 28.044 36.915 37.846 53.252 3.487 5.812 4.57 15.27 4.57 18.058 0 17.645-14.355 32-32 32m0-4c15.464 0 28-12.536 28-28 0-2.827-1.158-11.263-4-16-9.865-16.442-30.544-43.697-37.589-52.875-1.514-1.971-3.858-3.125-6.344-3.125h-44.067-44.067c-2.486 0-4.83 1.154-6.344 3.125-7.045 9.178-27.724 36.433-37.589 52.875-2.842 4.737-4 13.173-4 16 0 15.464 12.536 28 28 28h16 96z" transform="translate(192 200)"/><path d="m0 0c-7.72 0-14-6.28-14-14s6.28-14 14-14 14 6.28 14 14-6.28 14-14 14m0-4c5.523 0 10-4.477 10-10s-4.477-10-10-10-10 4.477-10 10 4.477 10 10 10" transform="translate(66 182)"/><path d="m0 0c-7.72 0-14-6.28-14-14s6.28-14 14-14 14 6.28 14 14-6.28 14-14 14m0-4c5.523 0 10-4.477 10-10s-4.477-10-10-10-10 4.477-10 10 4.477 10 10 10" transform="translate(160 142)"/><path d="m0 0c-13.234 0-24-10.766-24-24s10.766-24 24-24 24 10.766 24 24-10.766 24-24 24m0-4c11.046 0 20-8.954 20-20s-8.954-20-20-20-20 8.954-20 20 8.954 20 20 20" transform="translate(96 152)"/><path d="m0 0c-3.321 0-6.552-.676-9.603-2.01l-2.397-1.049v-2.616-6.325h-6.325-2.616l-1.049-2.397c-1.334-3.051-2.01-6.282-2.01-9.603s.676-6.552 2.01-9.603l1.049-2.397h2.616 6.325v-6.325-2.616l2.397-1.049c3.051-1.334 6.282-2.01 9.603-2.01s6.552.676 9.603 2.01l2.397 1.049v2.616 6.325h6.325 2.616l1.049 2.397c1.334 3.051 2.01 6.282 2.01 9.603s-.676 6.552-2.01 9.603l-1.049 2.397h-2.616-6.325v6.325 2.616l-2.397 1.049c-3.051 1.334-6.282 2.01-9.603 2.01m0-4c2.846 0 5.549-.604 8-1.675v-10.325h10.325c1.071-2.451 1.675-5.154 1.675-8s-.604-5.549-1.675-8h-10.325v-10.325c-2.451-1.071-5.154-1.675-8-1.675s-5.549.604-8 1.675v10.325h-10.325c-1.071 2.451-1.675 5.154-1.675 8s.604 5.549 1.675 8h10.325v10.325c2.451 1.071 5.154 1.675 8 1.675" transform="translate(96 152)"/><path d="m0 0c-4.411 0-8-3.589-8-8s3.589-8 8-8 8 3.589 8 8-3.589 8-8 8m0-4c2.209 0 4-1.791 4-4s-1.791-4-4-4-4 1.791-4 4 1.791 4 4 4" transform="translate(128 164)"/><path d="m0 0c-4.411 0-8-3.589-8-8s3.589-8 8-8 8 3.589 8 8-3.589 8-8 8m0-4c2.209 0 4-1.791 4-4s-1.791-4-4-4-4 1.791-4 4 1.791 4 4 4" transform="translate(108 184)"/><path d="m0 0c-4.411 0-8-3.589-8-8s3.589-8 8-8 8 3.589 8 8-3.589 8-8 8m0-4c2.209 0 4-1.791 4-4s-1.791-4-4-4-4 1.791-4 4 1.791 4 4 4" transform="translate(148 184)"/><path d="m0 0c-6.617 0-12-5.383-12-12s5.383-12 12-12 12 5.383 12 12-5.383 12-12 12m0-4c4.418 0 8-3.582 8-8s-3.582-8-8-8-8 3.582-8 8 3.582 8 8 8" transform="translate(128 188)"/><path d="m0 0c-6.617 0-12-5.383-12-12s5.383-12 12-12 12 5.383 12 12-5.383 12-12 12m0-4c4.418 0 8-3.582 8-8s-3.582-8-8-8-8 3.582-8 8 3.582 8 8 8" transform="translate(172 176)"/><path d="m0 0c-6.617 0-12-5.383-12-12s5.383-12 12-12 12 5.383 12 12-5.383 12-12 12m0-4c4.418 0 8-3.582 8-8s-3.582-8-8-8-8 3.582-8 8 3.582 8 8 8" transform="translate(204 176)"/><path d="m0 0c-6.617 0-12-5.383-12-12s5.383-12 12-12 12 5.383 12 12-5.383 12-12 12m0-4c4.418 0 8-3.582 8-8s-3.582-8-8-8-8 3.582-8 8 3.582 8 8 8" transform="translate(188 192)"/><path d="m0 0c-6.617 0-12-5.383-12-12s5.383-12 12-12 12 5.383 12 12-5.383 12-12 12m0-4c4.418 0 8-3.582 8-8s-3.582-8-8-8-8 3.582-8 8 3.582 8 8 8" transform="translate(188 160)"/></g></svg>