<svg height="202.66666" viewBox="0 0 320 202.66665" width="320" xmlns="http://www.w3.org/2000/svg" xmlns:xlink="http://www.w3.org/1999/xlink"><clipPath id="a"><path d="m0 256h256v-256h-256z"/></clipPath><g clip-path="url(#a)" fill="#fff" transform="matrix(1.3333333 0 0 -1.3333333 -10.666666 271.99933)"><path d="m0 0c0-4.676-3.849-8.471-8.593-8.471h-25.777-1.542l-.174.827-4.151 19.663c-.232 3.728-3.096 7.51-8.22 7.51h-135.099c-5.116 0-7.975-3.782-8.207-7.51l-4.151-19.663-.174-.827h-1.542-25.777c-4.744 0-8.593 3.795-8.593 8.471v127.059c0 4.676 3.849 8.47 8.593 8.47h214.814c4.744 0 8.593-3.794 8.593-8.47zm-60-8.471h-112-20l4.222 20s0 4 4.222 4h67.556 67.543c4.235 0 4.235-4 4.235-4l4.222-20zm51.407 148h-214.814c-6.944 0-12.593-5.594-12.593-12.47v-127.059c0-6.876 5.649-12.471 12.593-12.471h25.777.697 4.933 152 4.933.697 25.777c6.944 0 12.593 5.595 12.593 12.471v127.059c0 6.876-5.649 12.47-12.593 12.47" transform="translate(244 64.4705)"/><path d="m0 0c-1.196.507-2.274 1.24-3.179 2.145-.226.226-.442.464-.646.711-.408.494-.769 1.028-1.078 1.594-.77 1.417-1.208 3.04-1.208 4.763 0 1.378.28 2.693.787 3.889.127.299.267.59.421.874.309.566.67 1.1 1.078 1.594.204.247.42.484.646.711.905.905 1.983 1.638 3.179 2.145 1.196.506 2.51.787 3.889.787 4.135 0 7.692-2.523 9.213-6.111.506-1.196.787-2.511.787-3.889 0-2.412-.859-4.628-2.287-6.357-.204-.247-.419-.485-.646-.711-.226-.226-.463-.442-.71-.646-.494-.408-1.028-.769-1.595-1.077-1.416-.771-3.039-1.209-4.762-1.209-1.379 0-2.693.28-3.889.787m-14.111 2.546c0-1.843-2.086-3.333-4.667-3.333h-46.667c-2.58 0-4.666 1.49-4.666 3.333v13.334c0 1.843 2.086 3.333 4.666 3.333h46.667c2.581 0 4.667-1.49 4.667-3.333zm19.431 20.595c-.471.047-.948.072-1.431.072s-.961-.025-1.431-.072c-5.646-.574-10.303-4.504-11.94-9.765-.272-.876-.461-1.79-.557-2.732-.048-.469-.072-.946-.072-1.429v6.665c0 4.112-3.807 7.333-8.667 7.333h-46.667c-4.859 0-8.666-3.221-8.666-7.333v-13.334c0-4.112 3.807-7.333 8.666-7.333h46.667c4.86 0 8.667 3.221 8.667 7.333v6.664c0-2.78.822-5.365 2.221-7.543.141-.22.289-.434.442-.645.386-.532.803-1.038 1.258-1.51.062-.065.117-.135.181-.199.063-.063.135-.119.2-.181.471-.454.977-.872 1.508-1.256.358-.259.728-.501 1.11-.725.137-.081.268-.172.408-.249 1.088-.591 2.268-1.029 3.506-1.316.568-.131 1.144-.241 1.735-.301.47-.048.948-.072 1.431-.072s.96.024 1.431.072c7.056.717 12.569 6.678 12.569 13.928 0 .483-.025.961-.073 1.431-.095.942-.284 1.856-.557 2.732-1.637 5.261-6.294 9.191-11.939 9.765" transform="translate(170.1113 132.7871)"/><path d="m0 0c0-4.858-3.883-8.8-8.667-8.8h-190.666c-4.784 0-8.667 3.942-8.667 8.8v70.4l8.667 8.8h190.666l8.667-8.8zm-5.817 82.007-1.175 1.193h-1.675-190.666-1.675l-1.175-1.193-8.667-8.8-1.15-1.168v-1.639-70.4c0-7.058 5.682-12.8 12.667-12.8h190.666c6.985 0 12.667 5.742 12.667 12.8v70.4 1.639l-1.15 1.168z" transform="translate(232 108.8)"/><path d="m0 0c0-9.9-8.1-18-18-18h-92c-9.9 0-18 8.1-18 18 0 9.9 8.1 18 18 18h92c9.9 0 18-8.1 18-18zm-18 22h-92c-12.131 0-22-9.869-22-22s9.869-22 22-22h92c12.131 0 22 9.869 22 22s-9.869 22-22 22" transform="translate(192 142)"/><path d="m0 0c-2.212 0-4 1.788-4 4s1.788 4 4 4 4-1.788 4-4-1.788-4-4-4m8 4c0 4.411-3.589 8-8 8s-8-3.589-8-8 3.589-8 8-8 8 3.589 8 8" transform="translate(72 60)"/><path d="m0 0c-2.212 0-4 1.788-4 4s1.788 4 4 4 4-1.788 4-4-1.788-4-4-4m0 12c-4.411 0-8-3.589-8-8s3.589-8 8-8 8 3.589 8 8-3.589 8-8 8" transform="translate(92 64)"/><path d="m0 0c2.212 0 4-1.788 4-4s-1.788-4-4-4-4 1.788-4 4 1.788 4 4 4m-8-4c0-4.411 3.589-8 8-8s8 3.589 8 8c0 4.411-3.589 8-8 8s-8-3.589-8-8" transform="translate(128 76)"/><path d="m0 0c-2.212 0-4 1.788-4 4s1.788 4 4 4 4-1.788 4-4-1.788-4-4-4m0 12c-4.411 0-8-3.589-8-8s3.589-8 8-8 8 3.589 8 8-3.589 8-8 8" transform="translate(164 64)"/><path d="m0 0c-2.212 0-4 1.788-4 4s1.788 4 4 4 4-1.788 4-4-1.788-4-4-4m8 4c0 4.411-3.589 8-8 8s-8-3.589-8-8 3.589-8 8-8 8 3.589 8 8" transform="translate(184 60)"/><path d="m0 0c-1.378 0-2.693.28-3.889.787s-2.273 1.24-3.179 2.145c-.226.227-.442.464-.646.711-.408.494-.769 1.028-1.077 1.594-.771 1.417-1.209 3.04-1.209 4.763 0 1.379.28 2.693.787 3.889.127.299.268.59.422.874.308.566.669 1.1 1.077 1.594.204.247.42.484.646.711.906.905 1.983 1.638 3.179 2.145s2.511.787 3.889.787 2.693-.28 3.889-.787 2.273-1.24 3.179-2.145c.226-.227.442-.464.646-.711.408-.494.769-1.028 1.077-1.594.154-.284.295-.575.422-.874.507-1.196.787-2.51.787-3.889 0-1.723-.438-3.346-1.209-4.763-.308-.566-.669-1.1-1.077-1.594-.204-.247-.42-.484-.646-.711-.906-.905-1.983-1.638-3.179-2.145s-2.511-.787-3.889-.787m11.005 18.634c-.095.121-.186.244-.285.362-.716.851-1.537 1.608-2.433 2.268-.516.381-1.049.739-1.616 1.046-.793.431-1.633.788-2.509 1.061-.877.272-1.79.461-2.731.557-.471.048-.948.072-1.431.072-2.898 0-5.591-.881-7.826-2.391-3.724-2.516-6.174-6.776-6.174-11.609 0-.967.098-1.91.285-2.822.093-.455.208-.903.345-1.341.682-2.192 1.888-4.153 3.472-5.737 2.534-2.533 6.034-4.1 9.898-4.1.483 0 .96.024 1.431.072.941.096 1.854.285 2.731.557.876.273 1.716.63 2.509 1.061.794.431 1.541.936 2.233 1.507.345.285.677.587.994.903 1.584 1.584 2.79 3.545 3.472 5.737.137.438.252.886.345 1.341.187.912.285 1.855.285 2.822 0 3.261-1.125 6.254-2.995 8.634" transform="translate(82 132)"/></g></svg>