<svg enable-background="new 0 0 256 256" viewBox="0 0 256 256" xmlns="http://www.w3.org/2000/svg"><path d="m128 12c-44.742 0-98.367 5.923-112.466 7.576-2.016.236-3.534 1.943-3.534 3.973v8.451 195.056c0 .621.145 1.233.422 1.789l6.472 12.944c.678 1.355 2.063 2.211 3.578 2.211h211.056c1.515 0 2.9-.856 3.578-2.211l6.472-12.944c.278-.555.422-1.168.422-1.789v-195.056-8.451c0-2.029-1.518-3.736-3.534-3.973-14.099-1.653-67.724-7.576-112.466-7.576z" fill="#2b3e51"/><path d="m228 156h-200c-2.209 0-4-1.791-4-4v-104c0-2.209 1.791-4 4-4h200c2.209 0 4 1.791 4 4v104c0 2.209-1.791 4-4 4z" fill="#223140"/><path d="m104 200h48l-24 24z" fill="#223140"/><path d="m224 48h-16-4-172c-2.209 0-4 1.791-4 4v96c0 2.209 1.791 4 4 4h172 4 16c2.209 0 4-1.791 4-4v-96c0-2.209-1.791-4-4-4z" fill="#1b80bb"/></svg>