<svg enable-background="new 0 0 256 256" viewBox="0 0 256 256" xmlns="http://www.w3.org/2000/svg"><path d="m200 16c-28 0-16 8-36 8s-16-8-36-8-16 8-36 8-8-8-36-8c-23.081 0-35.29 21.745-38.867 29.384-.748 1.596-1.133 3.33-1.133 5.092v157.524h224v-157.524c0-1.762-.385-3.495-1.133-5.091-3.577-7.64-15.786-29.385-38.867-29.385z" fill="#9259a2"/><path d="m228 48h-200c-2.209 0-4 1.791-4 4v92c0 11.046 8.954 20 20 20h168c11.046 0 20-8.954 20-20v-92c0-2.209-1.791-4-4-4z" fill="#854b9c"/><path d="m228 52v92c0 8.822-7.178 16-16 16h-168c-8.822 0-16-7.178-16-16v-92z" fill="#1b80bb"/><path d="m224 240h-192v-60c0-4.418 3.582-8 8-8h176c4.418 0 8 3.582 8 8z" fill="#854b9c"/><path d="m220 208h-184v-28c0-2.209 1.791-4 4-4h176c2.209 0 4 1.791 4 4z" fill="#9259a2"/><path d="m52 200v-4h-4v4h-4l6 4 6-4z" fill="#854b9c"/></svg>