<svg enable-background="new 0 0 256 256" viewBox="0 0 256 256" xmlns="http://www.w3.org/2000/svg"><path d="m156 12h-48c-44.183 0-80 35.817-80 80v124 12c0 6.627 13.431 12 30 12 11.973 0 22.302-2.806 27.114-6.864.835-.704 1.864-1.136 2.955-1.136h11.908c1.135 0 2.21.431 3.1 1.135 5.132 4.058 16.151 6.865 28.923 6.865s23.791-2.807 28.922-6.865c.89-.704 1.965-1.135 3.1-1.135h11.908c1.092 0 2.121.432 2.955 1.136 4.813 4.058 15.142 6.864 27.115 6.864 16.569 0 30-5.373 30-12v-12-124c0-44.183-35.817-80-80-80zm-120 194c0 1.105-.895 2-2 2s-2-.895-2-2v-58h4z" fill="#e77f25"/><path d="m138 28c-47.501 0-86 38.503-86 86s38.499 86 86 86c47.486 0 86-38.503 86-86s-38.514-86-86-86zm0 118.254c-17.788 0-32.254-14.47-32.254-32.254s14.466-32.254 32.254-32.254c17.784 0 32.25 14.47 32.25 32.254s-14.466 32.254-32.25 32.254z" fill="#1b80bb"/><path d="m138 28c47.486 0 86 38.503 86 86s-38.514 86-86 86c-47.501 0-86-38.503-86-86s38.499-86 86-86m0 118.254c17.784 0 32.25-14.47 32.25-32.254s-14.466-32.254-32.25-32.254c-17.788 0-32.254 14.47-32.254 32.254s14.466 32.254 32.254 32.254m0-122.254c-49.626 0-90 40.374-90 90s40.374 90 90 90 90-40.374 90-90-40.374-90-90-90zm0 118.254c-15.579 0-28.254-12.675-28.254-28.254s12.675-28.254 28.254-28.254c15.577 0 28.25 12.674 28.25 28.254s-12.673 28.254-28.25 28.254z" fill="#edefef"/><path d="m138.002 79.897c-18.747 0-34.002 15.264-34.002 34s15.255 34 34.002 34c18.728 0 33.998-15.264 33.998-34s-15.27-34-33.998-34zm0 43.997c-5.512 0-10.005-4.482-10.005-9.998 0-5.519 4.493-10.004 10.005-10.004 5.516 0 9.998 4.486 9.998 10.004 0 5.516-4.483 9.998-9.998 9.998z" fill="#edefef"/><path d="m224 160c0-2.209-1.791-4-4-4h-168c-2.209 0-4 1.791-4 4v46c0 7.732 39.399 14 88 14s88-6.268 88-14c0-.679 0-46 0-46z" fill="#f19c21"/><g fill="#d35627"><path d="m28 84v2h10v60h-10v2h12v-64z"/><path d="m52 46c1.103 0 2 .897 2 2s-.897 2-2 2-2-.897-2-2 .897-2 2-2m0-2c-2.209 0-4 1.791-4 4s1.791 4 4 4 4-1.791 4-4-1.791-4-4-4z"/><path d="m82 26c2.206 0 4 1.794 4 4s-1.794 4-4 4-4-1.794-4-4 1.794-4 4-4m0-2c-3.314 0-6 2.686-6 6s2.686 6 6 6 6-2.686 6-6-2.686-6-6-6z"/><path d="m184 26c1.103 0 2 .897 2 2s-.897 2-2 2-2-.897-2-2 .897-2 2-2m0-2c-2.209 0-4 1.791-4 4s1.791 4 4 4 4-1.791 4-4-1.791-4-4-4z"/></g></svg>