<?xml version="1.0" encoding="UTF-8" standalone="no"?>
<svg
   xmlns:dc="http://purl.org/dc/elements/1.1/"
   xmlns:cc="http://creativecommons.org/ns#"
   xmlns:rdf="http://www.w3.org/1999/02/22-rdf-syntax-ns#"
   xmlns:svg="http://www.w3.org/2000/svg"
   xmlns="http://www.w3.org/2000/svg"
   viewBox="0 0 320 320"
   height="320"
   width="320"
   xml:space="preserve"
   version="1.1"
   id="svg2"><metadata
     id="metadata8"><rdf:RDF><cc:Work
         rdf:about=""><dc:format>image/svg+xml</dc:format><dc:type
           rdf:resource="http://purl.org/dc/dcmitype/StillImage" /></cc:Work></rdf:RDF></metadata><defs
     id="defs6"><clipPath
       id="clipPath16"
       clipPathUnits="userSpaceOnUse"><path
         id="path18"
         d="M 0,256 256,256 256,0 0,0 0,256 Z" /></clipPath><clipPath
       id="clipPath24"
       clipPathUnits="userSpaceOnUse"><path
         id="path26"
         d="m 68,252 120,0 0,-247.99988 -120,0 L 68,252 Z" /></clipPath><clipPath
       id="clipPath82"
       clipPathUnits="userSpaceOnUse"><path
         id="path84"
         d="M 0,256 256,256 256,0 0,0 0,256 Z" /></clipPath></defs><g
     transform="matrix(1.25,0,0,-1.25,0,320)"
     id="g10"><g
       id="g12"><g
         clip-path="url(#clipPath16)"
         id="g14"><g
           id="g20"><g
             id="g22" /><g
             id="g28"><g
               style="opacity:0.5"
               id="g30"
               clip-path="url(#clipPath24)"><g
                 id="g32"
                 transform="translate(187.9727,191.4951)"><path
                   id="path34"
                   style="fill:#ffffff;fill-opacity:1;fill-rule:nonzero;stroke:none"
                   d="m 0,0 -3.556,42.806 c -0.228,2.752 -1.859,5.191 -4.315,6.453 l -1.351,0.695 c -0.527,0.88 -1.223,1.66 -2.061,2.29 l -8.864,6.658 c -1.385,1.04 -3.071,1.603 -4.804,1.603 l -35.022,0 -35.021,0 c -1.733,0 -3.419,-0.563 -4.804,-1.603 l -8.864,-6.658 c -0.838,-0.63 -1.535,-1.41 -2.061,-2.29 l -1.351,-0.695 c -2.456,-1.262 -4.087,-3.701 -4.316,-6.453 L -119.945,0 c -0.242,-2.915 1.126,-5.731 3.569,-7.341 l 0.44,-0.29 10.743,-168.548 c 0.182,-2.862 1.882,-5.407 4.455,-6.671 l 7.781,-3.825 c 1.098,-0.539 2.306,-0.82 3.529,-0.82 l 29.455,0 29.456,0 c 1.223,0 2.43,0.281 3.528,0.82 l 7.782,3.825 c 2.573,1.264 4.273,3.809 4.455,6.671 l 10.743,168.548 0.44,0.29 C -1.126,-5.731 0.242,-2.915 0,0" /></g></g></g></g></g></g><g
       transform="translate(171.8848,237.3425)"
       id="g36"><path
         id="path38"
         style="fill:#262626;fill-opacity:1;fill-rule:nonzero;stroke:none"
         d="m 0,0 -8.864,6.658 -35.021,0 -35.021,0 L -87.77,0 l -4.115,-52.656 10.763,-168.862 7.782,-3.824 29.455,0 29.456,0 7.781,3.824 L 4.115,-52.656 0,0 Z" /></g><path
       id="path40"
       style="fill:#999999;fill-opacity:1;fill-rule:nonzero;stroke:none"
       d="m 158,12 -60,0 0,116 60,0 0,-116 z" /><g
       transform="translate(79.5556,233.6393)"
       id="g42"><path
         id="path44"
         style="fill:#ff0000;fill-opacity:1;fill-rule:nonzero;stroke:none"
         d="M 0,0 4.593,2.361 8.444,-1.574 6.222,-38.715 0.741,-45.639 -3.556,-42.807 0,0 Z" /></g><g
       transform="translate(176.4444,233.6393)"
       id="g46"><path
         id="path48"
         style="fill:#ff0000;fill-opacity:1;fill-rule:nonzero;stroke:none"
         d="m 0,0 -4.593,2.361 -3.851,-3.935 2.222,-37.141 5.481,-6.924 4.297,2.832 L 0,0 Z" /></g><path
       id="path50"
       style="fill:#191919;fill-opacity:1;fill-rule:nonzero;stroke:none"
       d="m 158,240 -60,0 0,4 60,0 0,-4 z" /><path
       id="path52"
       style="fill:#191919;fill-opacity:1;fill-rule:nonzero;stroke:none"
       d="m 158,232 -60,0 0,4 60,0 0,-4 z" /><path
       id="path54"
       style="fill:#191919;fill-opacity:1;fill-rule:nonzero;stroke:none"
       d="m 158,224 -60,0 0,4 60,0 0,-4 z" /><path
       id="path56"
       style="fill:#191919;fill-opacity:1;fill-rule:nonzero;stroke:none"
       d="m 158,216 -60,0 0,4 60,0 0,-4 z" /><path
       id="path58"
       style="fill:#191919;fill-opacity:1;fill-rule:nonzero;stroke:none"
       d="m 158,208 -60,0 0,4 60,0 0,-4 z" /><path
       id="path60"
       style="fill:#191919;fill-opacity:1;fill-rule:nonzero;stroke:none"
       d="m 158,200 -60,0 0,4 60,0 0,-4 z" /><path
       id="path62"
       style="fill:#191919;fill-opacity:1;fill-rule:nonzero;stroke:none"
       d="m 158,192 -60,0 0,4 60,0 0,-4 z" /><path
       id="path64"
       style="fill:#404040;fill-opacity:1;fill-rule:nonzero;stroke:none"
       d="m 158,128 -60,0 0,60 60,0 0,-60 z" /><g
       transform="translate(128,158)"
       id="g66"><path
         id="path68"
         style="fill:#4c4c4c;fill-opacity:1;fill-rule:nonzero;stroke:none"
         d="M 0,0 30,30 -30,30 0,0 Z" /></g><g
       transform="translate(128,158)"
       id="g70"><path
         id="path72"
         style="fill:#262626;fill-opacity:1;fill-rule:nonzero;stroke:none"
         d="M 0,0 -30,-30 30,-30 0,0 Z" /></g><g
       transform="translate(157.9999,188)"
       id="g74"><path
         id="path76"
         style="fill:#333333;fill-opacity:1;fill-rule:nonzero;stroke:none"
         d="M 0,0 -6.324,0 -30.015,-23.72 -53.974,0 -60,0 -60,-6.26 -36.288,-30 -60,-53.74 l 0,-6.26 6.026,0 23.959,23.72 L -6.324,-60 0,-60 0,-53.437 -23.672,-30 0,-6.563 0,0 Z" /></g><g
       id="g78"><g
         clip-path="url(#clipPath82)"
         id="g80"><g
           transform="translate(148,158)"
           id="g86"><path
             id="path88"
             style="fill:#191919;fill-opacity:1;fill-rule:nonzero;stroke:none"
             d="m 0,0 c 0,-11.046 -8.954,-20 -20,-20 -11.046,0 -20,8.954 -20,20 0,11.046 8.954,20 20,20 C -8.954,20 0,11.046 0,0" /></g><g
           transform="translate(142,158)"
           id="g90"><path
             id="path92"
             style="fill:#262626;fill-opacity:1;fill-rule:nonzero;stroke:none"
             d="m 0,0 c 0,-7.732 -6.268,-14 -14,-14 -7.732,0 -14,6.268 -14,14 0,7.732 6.268,14 14,14 C -6.268,14 0,7.732 0,0" /></g></g></g></g></svg>