<?xml version="1.0" encoding="UTF-8" standalone="no"?>
<svg
   xmlns:dc="http://purl.org/dc/elements/1.1/"
   xmlns:cc="http://creativecommons.org/ns#"
   xmlns:rdf="http://www.w3.org/1999/02/22-rdf-syntax-ns#"
   xmlns:svg="http://www.w3.org/2000/svg"
   xmlns="http://www.w3.org/2000/svg"
   viewBox="0 0 320 320"
   height="320"
   width="320"
   xml:space="preserve"
   version="1.1"
   id="svg2"><metadata
     id="metadata8"><rdf:RDF><cc:Work
         rdf:about=""><dc:format>image/svg+xml</dc:format><dc:type
           rdf:resource="http://purl.org/dc/dcmitype/StillImage" /></cc:Work></rdf:RDF></metadata><defs
     id="defs6"><clipPath
       id="clipPath16"
       clipPathUnits="userSpaceOnUse"><path
         id="path18"
         d="M 0,256 256,256 256,0 0,0 0,256 Z" /></clipPath><clipPath
       id="clipPath24"
       clipPathUnits="userSpaceOnUse"><path
         id="path26"
         d="m 72,252 112,0 0,-247.9998 -112,0 L 72,252 Z" /></clipPath><clipPath
       id="clipPath48"
       clipPathUnits="userSpaceOnUse"><path
         id="path50"
         d="M 0,256 256,256 256,0 0,0 0,256 Z" /></clipPath></defs><g
     transform="matrix(1.25,0,0,-1.25,0,320)"
     id="g10"><g
       id="g12"><g
         clip-path="url(#clipPath16)"
         id="g14"><g
           id="g20"><g
             id="g22" /><g
             id="g28"><g
               style="opacity:0.5"
               id="g30"
               clip-path="url(#clipPath24)"><g
                 id="g32"
                 transform="translate(176,252.0002)"><path
                   id="path34"
                   style="fill:#ffffff;fill-opacity:1;fill-rule:nonzero;stroke:none"
                   d="m 0,0 -96,0 c -4.418,0 -8,-3.582 -8,-8 l 0,-66.783 c 0,-1.875 0.659,-3.69 1.861,-5.129 l 0.628,-0.752 0,-40.857 -0.386,-0.421 c -1.352,-1.476 -2.103,-3.405 -2.103,-5.407 L -104,-240 c 0,-2.122 0.843,-4.157 2.344,-5.657 1.5,-1.5 3.535,-2.343 5.656,-2.343 l 0.001,0 96,0.016 c 4.418,0 7.999,3.582 7.999,8 l 0,112.721 c 0,2.026 -0.768,3.976 -2.15,5.457 l -0.316,0.339 0,40.835 0.618,0.743 C 7.346,-78.452 8,-76.643 8,-74.775 L 8,-8 C 8,-3.582 4.418,0 0,0" /></g></g></g></g></g></g><g
       transform="translate(176,177.2255)"
       id="g36"><path
         id="path38"
         style="fill:#191919;fill-opacity:1;fill-rule:nonzero;stroke:none"
         d="m 0,0 0,66.775 -96,0 0,-66.783 2.489,-2.979 0,-46.872 -2.489,-2.715 0,-112.651 96,0.015 0,112.722 -2.466,2.643 0,46.879 L 0,0 Z" /></g><g
       transform="translate(80,244.0002)"
       id="g40"><path
         id="path42"
         style="fill:#262626;fill-opacity:1;fill-rule:nonzero;stroke:none"
         d="m 0,0 0,-66.783 10.324,-12.395 0,-3.993 3.875,0 -0.187,-21.477 -3.874,0 0,-3.611 L 0,-119.349 0,-232 l 95.712,0.016 0,112.721 -10.293,11.067 0,3.681 -3.859,0 0,21.398 3.859,0 0,3.924 10.293,12.418 L 95.712,0 0,0 Z" /></g><g
       id="g44"><g
         clip-path="url(#clipPath48)"
         id="g46"><g
           transform="translate(124.6642,40)"
           id="g52"><path
             id="path54"
             style="fill:#cccccc;fill-opacity:1;fill-rule:nonzero;stroke:none"
             d="m 0,0 6.672,0 c 3.687,0 6.664,-1.283 6.664,-2.863 l 0,-14.282 C 13.336,-18.725 10.359,-20 6.672,-20 L 0,-20 c -3.687,0 -6.664,1.275 -6.664,2.855 l 0,14.282 C -6.664,-1.283 -3.687,0 0,0" /></g><path
           id="path56"
           style="fill:#b3b3b3;fill-opacity:1;fill-rule:nonzero;stroke:none"
           d="m 120,22 16,0 0,16 -16,0 0,-16 z" /><g
           transform="translate(124.6642,112)"
           id="g58"><path
             id="path60"
             style="fill:#cccccc;fill-opacity:1;fill-rule:nonzero;stroke:none"
             d="m 0,0 6.672,0 c 3.687,0 6.664,-1.283 6.664,-2.863 l 0,-14.282 C 13.336,-18.725 10.359,-20 6.672,-20 L 0,-20 c -3.687,0 -6.664,1.275 -6.664,2.855 l 0,14.282 C -6.664,-1.283 -3.687,0 0,0" /></g><path
           id="path62"
           style="fill:#b3b3b3;fill-opacity:1;fill-rule:nonzero;stroke:none"
           d="m 120,94 16,0 0,16 -16,0 0,-16 z" /><g
           transform="translate(128,236)"
           id="g64"><path
             id="path66"
             style="fill:#333333;fill-opacity:1;fill-rule:nonzero;stroke:none"
             d="m 0,0 c 17.672,0 32,-14.328 32,-32 0,-17.672 -14.328,-32 -32,-32 -17.672,0 -32,14.328 -32,32 0,17.672 14.328,32 32,32" /></g><g
           transform="translate(127.9962,232)"
           id="g68"><path
             id="path70"
             style="fill:#191919;fill-opacity:1;fill-rule:nonzero;stroke:none"
             d="M 0,0 C -15.463,-0.002 -27.997,-12.538 -27.996,-28 -27.997,-43.462 -15.463,-55.998 0,-56 15.466,-56.002 28.004,-43.465 28.004,-28 28.004,-12.535 15.466,0.002 0,0" /></g><g
           transform="translate(128,228)"
           id="g72"><path
             id="path74"
             style="fill:#262626;fill-opacity:1;fill-rule:nonzero;stroke:none"
             d="m 0,0 c 13.255,0 24,-10.745 24,-24 0,-13.255 -10.745,-24 -24,-24 -13.255,0 -24,10.745 -24,24 0,13.255 10.745,24 24,24" /></g><g
           transform="translate(128.0038,224)"
           id="g76"><path
             id="path78"
             style="fill:#b3b3b3;fill-opacity:1;fill-rule:nonzero;stroke:none"
             d="M 0,0 C -11.046,0.002 -20.001,-8.951 -20.004,-19.996 -20.005,-31.045 -11.048,-40.002 0,-40 c 11.046,0.002 19.998,8.958 19.996,20.004 C 19.994,-8.954 11.043,-0.002 0,0" /></g><g
           transform="translate(82.4819,169.4335)"
           id="g80"><path
             id="path82"
             style="fill:#808080;fill-opacity:1;fill-rule:nonzero;stroke:none"
             d="m 0,0 0,-37.381 5.306,5.596 0,3.743 3.439,0 0.124,16.889 -3.563,0 0,4.987 L 0,0 Z" /></g><g
           transform="translate(173.771,169.4335)"
           id="g84"><path
             id="path86"
             style="fill:#808080;fill-opacity:1;fill-rule:nonzero;stroke:none"
             d="m 0,0 -5.314,-6.166 0,-4.987 -3.563,0 0.124,-16.889 3.439,0 0,-3.743 L 0,-37.381 0,0 Z" /></g><g
           transform="translate(107.913,160)"
           id="g88"><path
             id="path90"
             style="fill:#191919;fill-opacity:1;fill-rule:nonzero;stroke:none"
             d="m 0,0 40.174,0 c 1.061,0 1.913,-1.077 1.913,-2.406 l 0,-7.198 C 42.087,-10.933 41.235,-12 40.174,-12 L 0,-12 c -1.061,0 -1.913,1.067 -1.913,2.396 l 0,7.198 C -1.913,-1.077 -1.061,0 0,0" /></g><g
           transform="translate(109.6286,158)"
           id="g92"><path
             id="path94"
             style="fill:#262626;fill-opacity:1;fill-rule:nonzero;stroke:none"
             d="m 0,0 c -0.901,0 -1.629,-0.992 -1.629,-2.222 l 0,-3.567 C -1.629,-7.019 -0.901,-8 0,-8 l 36.743,0 c 0.901,0 1.628,0.981 1.628,2.211 l 0,3.567 C 38.371,-0.992 37.644,0 36.743,0 L 0,0 Z" /></g><g
           transform="translate(94.6642,112)"
           id="g96"><path
             id="path98"
             style="fill:#cccccc;fill-opacity:1;fill-rule:nonzero;stroke:none"
             d="m 0,0 6.672,0 c 3.687,0 6.664,-1.283 6.664,-2.863 l 0,-14.282 C 13.336,-18.725 10.359,-20 6.672,-20 L 0,-20 c -3.687,0 -6.664,1.275 -6.664,2.855 l 0,14.282 C -6.664,-1.283 -3.687,0 0,0" /></g><path
           id="path100"
           style="fill:#b3b3b3;fill-opacity:1;fill-rule:nonzero;stroke:none"
           d="m 90,94 16,0 0,16 -16,0 0,-16 z" /><g
           transform="translate(94.6642,88)"
           id="g102"><path
             id="path104"
             style="fill:#cccccc;fill-opacity:1;fill-rule:nonzero;stroke:none"
             d="m 0,0 6.672,0 c 3.687,0 6.664,-1.283 6.664,-2.863 l 0,-14.282 C 13.336,-18.725 10.359,-20 6.672,-20 L 0,-20 c -3.687,0 -6.664,1.275 -6.664,2.855 l 0,14.282 C -6.664,-1.283 -3.687,0 0,0" /></g><path
           id="path106"
           style="fill:#b3b3b3;fill-opacity:1;fill-rule:nonzero;stroke:none"
           d="m 90,70 16,0 0,16 -16,0 0,-16 z" /><g
           transform="translate(94.6642,64)"
           id="g108"><path
             id="path110"
             style="fill:#cccccc;fill-opacity:1;fill-rule:nonzero;stroke:none"
             d="m 0,0 6.672,0 c 3.687,0 6.664,-1.283 6.664,-2.863 l 0,-14.282 C 13.336,-18.725 10.359,-20 6.672,-20 L 0,-20 c -3.687,0 -6.664,1.275 -6.664,2.855 l 0,14.282 C -6.664,-1.283 -3.687,0 0,0" /></g><path
           id="path112"
           style="fill:#b3b3b3;fill-opacity:1;fill-rule:nonzero;stroke:none"
           d="m 90,46 16,0 0,16 -16,0 0,-16 z" /><g
           transform="translate(94.6642,40)"
           id="g114"><path
             id="path116"
             style="fill:#191919;fill-opacity:1;fill-rule:nonzero;stroke:none"
             d="m 0,0 6.672,0 c 3.687,0 6.664,-1.283 6.664,-2.863 l 0,-14.282 C 13.336,-18.725 10.359,-20 6.672,-20 L 0,-20 c -3.687,0 -6.664,1.275 -6.664,2.855 l 0,14.282 C -6.664,-1.283 -3.687,0 0,0" /></g><g
           transform="translate(124.6642,88)"
           id="g118"><path
             id="path120"
             style="fill:#cccccc;fill-opacity:1;fill-rule:nonzero;stroke:none"
             d="m 0,0 6.672,0 c 3.687,0 6.664,-1.283 6.664,-2.863 l 0,-14.282 C 13.336,-18.725 10.359,-20 6.672,-20 L 0,-20 c -3.687,0 -6.664,1.275 -6.664,2.855 l 0,14.282 C -6.664,-1.283 -3.687,0 0,0" /></g><path
           id="path122"
           style="fill:#b3b3b3;fill-opacity:1;fill-rule:nonzero;stroke:none"
           d="m 120,70 16,0 0,16 -16,0 0,-16 z" /><g
           transform="translate(124.6642,64)"
           id="g124"><path
             id="path126"
             style="fill:#cccccc;fill-opacity:1;fill-rule:nonzero;stroke:none"
             d="m 0,0 6.672,0 c 3.687,0 6.664,-1.283 6.664,-2.863 l 0,-14.282 C 13.336,-18.725 10.359,-20 6.672,-20 L 0,-20 c -3.687,0 -6.664,1.275 -6.664,2.855 l 0,14.282 C -6.664,-1.283 -3.687,0 0,0" /></g><path
           id="path128"
           style="fill:#b3b3b3;fill-opacity:1;fill-rule:nonzero;stroke:none"
           d="m 120,46 16,0 0,16 -16,0 0,-16 z" /><g
           transform="translate(154.6642,40)"
           id="g130"><path
             id="path132"
             style="fill:#191919;fill-opacity:1;fill-rule:nonzero;stroke:none"
             d="m 0,0 6.672,0 c 3.687,0 6.664,-1.283 6.664,-2.863 l 0,-14.282 C 13.336,-18.725 10.359,-20 6.672,-20 L 0,-20 c -3.687,0 -6.664,1.275 -6.664,2.855 l 0,14.282 C -6.664,-1.283 -3.687,0 0,0" /></g><g
           transform="translate(154.6642,112)"
           id="g134"><path
             id="path136"
             style="fill:#cccccc;fill-opacity:1;fill-rule:nonzero;stroke:none"
             d="m 0,0 6.672,0 c 3.687,0 6.664,-1.283 6.664,-2.863 l 0,-14.282 C 13.336,-18.725 10.359,-20 6.672,-20 L 0,-20 c -3.687,0 -6.664,1.275 -6.664,2.855 l 0,14.282 C -6.664,-1.283 -3.687,0 0,0" /></g><path
           id="path138"
           style="fill:#b3b3b3;fill-opacity:1;fill-rule:nonzero;stroke:none"
           d="m 150,94 16,0 0,16 -16,0 0,-16 z" /><g
           transform="translate(154.6642,88)"
           id="g140"><path
             id="path142"
             style="fill:#cccccc;fill-opacity:1;fill-rule:nonzero;stroke:none"
             d="m 0,0 6.672,0 c 3.687,0 6.664,-1.283 6.664,-2.863 l 0,-14.282 C 13.336,-18.725 10.359,-20 6.672,-20 L 0,-20 c -3.687,0 -6.664,1.275 -6.664,2.855 l 0,14.282 C -6.664,-1.283 -3.687,0 0,0" /></g><path
           id="path144"
           style="fill:#b3b3b3;fill-opacity:1;fill-rule:nonzero;stroke:none"
           d="m 150,70 16,0 0,16 -16,0 0,-16 z" /><g
           transform="translate(154.6642,64)"
           id="g146"><path
             id="path148"
             style="fill:#cccccc;fill-opacity:1;fill-rule:nonzero;stroke:none"
             d="m 0,0 6.672,0 c 3.687,0 6.664,-1.283 6.664,-2.863 l 0,-14.282 C 13.336,-18.725 10.359,-20 6.672,-20 L 0,-20 c -3.687,0 -6.664,1.275 -6.664,2.855 l 0,14.282 C -6.664,-1.283 -3.687,0 0,0" /></g><path
           id="path150"
           style="fill:#b3b3b3;fill-opacity:1;fill-rule:nonzero;stroke:none"
           d="m 150,46 16,0 0,16 -16,0 0,-16 z" /></g></g></g></svg>