<?xml version="1.0" encoding="UTF-8" standalone="no"?>
<svg
   xmlns:dc="http://purl.org/dc/elements/1.1/"
   xmlns:cc="http://creativecommons.org/ns#"
   xmlns:rdf="http://www.w3.org/1999/02/22-rdf-syntax-ns#"
   xmlns:svg="http://www.w3.org/2000/svg"
   xmlns="http://www.w3.org/2000/svg"
   viewBox="0 0 320 320"
   height="320"
   width="320"
   xml:space="preserve"
   version="1.1"
   id="svg2"><metadata
     id="metadata8"><rdf:RDF><cc:Work
         rdf:about=""><dc:format>image/svg+xml</dc:format><dc:type
           rdf:resource="http://purl.org/dc/dcmitype/StillImage" /></cc:Work></rdf:RDF></metadata><defs
     id="defs6"><clipPath
       id="clipPath16"
       clipPathUnits="userSpaceOnUse"><path
         id="path18"
         d="M 0,256 256,256 256,0 0,0 0,256 Z" /></clipPath><clipPath
       id="clipPath24"
       clipPathUnits="userSpaceOnUse"><path
         id="path26"
         d="m 76,180 104,0 0,-104 -104,0 0,104 z" /></clipPath></defs><g
     transform="matrix(1.25,0,0,-1.25,0,320)"
     id="g10"><g
       id="g12"><g
         clip-path="url(#clipPath16)"
         id="g14"><g
           id="g20"><g
             id="g22" /><g
             id="g28"><g
               style="opacity:0.5"
               id="g30"
               clip-path="url(#clipPath24)"><g
                 id="g32"
                 transform="translate(160,180)"><path
                   id="path34"
                   style="fill:#ffffff;fill-opacity:1;fill-rule:nonzero;stroke:none"
                   d="m 0,0 -64,0 c -11.028,0 -20,-8.972 -20,-20 l 0,-64 c 0,-11.028 8.972,-20 20,-20 l 64,0 c 11.028,0 20,8.972 20,20 l 0,64 C 20,-8.972 11.028,0 0,0" /></g></g></g></g><g
           transform="translate(160,84)"
           id="g36"><path
             id="path38"
             style="fill:#0e6654;fill-opacity:1;fill-rule:nonzero;stroke:none"
             d="m 0,0 -64,0 c -6.627,0 -12,5.373 -12,12 l 0,64 c 0,6.627 5.373,12 12,12 L 0,88 C 6.627,88 12,82.627 12,76 L 12,12 C 12,5.373 6.627,0 0,0" /></g><path
           id="path40"
           style="fill:#a3834a;fill-opacity:1;fill-rule:nonzero;stroke:none"
           d="m 100.11,156 -2,0 0,8 2,0 0,-8 z" /><path
           id="path42"
           style="fill:#a3834a;fill-opacity:1;fill-rule:nonzero;stroke:none"
           d="m 104.11,156 -2,0 0,8 2,0 0,-8 z" /><path
           id="path44"
           style="fill:#a3834a;fill-opacity:1;fill-rule:nonzero;stroke:none"
           d="m 108.11,156 -2,0 0,8 2,0 0,-8 z" /><path
           id="path46"
           style="fill:#a3834a;fill-opacity:1;fill-rule:nonzero;stroke:none"
           d="m 112.11,156 -2,0 0,8 2,0 0,-8 z" /><path
           id="path48"
           style="fill:#a3834a;fill-opacity:1;fill-rule:nonzero;stroke:none"
           d="m 116.11,156 -2,0 0,8 2,0 0,-8 z" /><path
           id="path50"
           style="fill:#a3834a;fill-opacity:1;fill-rule:nonzero;stroke:none"
           d="m 120.11,156 -2,0 0,8 2,0 0,-8 z" /><path
           id="path52"
           style="fill:#a3834a;fill-opacity:1;fill-rule:nonzero;stroke:none"
           d="m 124.11,156 -2,0 0,8 2,0 0,-8 z" /><path
           id="path54"
           style="fill:#a3834a;fill-opacity:1;fill-rule:nonzero;stroke:none"
           d="m 128.11,156 -2,0 0,8 2,0 0,-8 z" /><path
           id="path56"
           style="fill:#a3834a;fill-opacity:1;fill-rule:nonzero;stroke:none"
           d="m 132.11,156 -2,0 0,8 2,0 0,-8 z" /><path
           id="path58"
           style="fill:#a3834a;fill-opacity:1;fill-rule:nonzero;stroke:none"
           d="m 136.11,156 -2,0 0,8 2,0 0,-8 z" /><path
           id="path60"
           style="fill:#a3834a;fill-opacity:1;fill-rule:nonzero;stroke:none"
           d="m 140.11,156 -2,0 0,8 2,0 0,-8 z" /><path
           id="path62"
           style="fill:#a3834a;fill-opacity:1;fill-rule:nonzero;stroke:none"
           d="m 144.11,156 -2,0 0,8 2,0 0,-8 z" /><path
           id="path64"
           style="fill:#a3834a;fill-opacity:1;fill-rule:nonzero;stroke:none"
           d="m 148.11,156 -2,0 0,8 2,0 0,-8 z" /><path
           id="path66"
           style="fill:#a3834a;fill-opacity:1;fill-rule:nonzero;stroke:none"
           d="m 152.11,156 -2,0 0,8 2,0 0,-8 z" /><path
           id="path68"
           style="fill:#a3834a;fill-opacity:1;fill-rule:nonzero;stroke:none"
           d="m 156,156 -2,0 0,8 2,0 0,-8 z" /><path
           id="path70"
           style="fill:#a3834a;fill-opacity:1;fill-rule:nonzero;stroke:none"
           d="m 159.89,156 -2,0 0,8 2,0 0,-8 z" /><path
           id="path72"
           style="fill:#a3834a;fill-opacity:1;fill-rule:nonzero;stroke:none"
           d="m 106,92 -2,0 0,8 2,0 0,-8 z" /><path
           id="path74"
           style="fill:#a3834a;fill-opacity:1;fill-rule:nonzero;stroke:none"
           d="m 102,92 -2,0 0,8 2,0 0,-8 z" /><path
           id="path76"
           style="fill:#a3834a;fill-opacity:1;fill-rule:nonzero;stroke:none"
           d="m 98,92 -2,0 0,8 2,0 0,-8 z" /><path
           id="path78"
           style="fill:#a3834a;fill-opacity:1;fill-rule:nonzero;stroke:none"
           d="m 110,92 -2,0 0,8 2,0 0,-8 z" /><path
           id="path80"
           style="fill:#a3834a;fill-opacity:1;fill-rule:nonzero;stroke:none"
           d="m 114,92 -2,0 0,8 2,0 0,-8 z" /><path
           id="path82"
           style="fill:#a3834a;fill-opacity:1;fill-rule:nonzero;stroke:none"
           d="m 118,92 -2,0 0,8 2,0 0,-8 z" /><path
           id="path84"
           style="fill:#a3834a;fill-opacity:1;fill-rule:nonzero;stroke:none"
           d="m 122,92 -2,0 0,8 2,0 0,-8 z" /><path
           id="path86"
           style="fill:#a3834a;fill-opacity:1;fill-rule:nonzero;stroke:none"
           d="m 126,92 -2,0 0,8 2,0 0,-8 z" /><path
           id="path88"
           style="fill:#a3834a;fill-opacity:1;fill-rule:nonzero;stroke:none"
           d="m 130,92 -2,0 0,8 2,0 0,-8 z" /><path
           id="path90"
           style="fill:#a3834a;fill-opacity:1;fill-rule:nonzero;stroke:none"
           d="m 134,92 -2,0 0,8 2,0 0,-8 z" /><path
           id="path92"
           style="fill:#a3834a;fill-opacity:1;fill-rule:nonzero;stroke:none"
           d="m 138,92 -2,0 0,8 2,0 0,-8 z" /><path
           id="path94"
           style="fill:#a3834a;fill-opacity:1;fill-rule:nonzero;stroke:none"
           d="m 142,92 -2,0 0,8 2,0 0,-8 z" /><path
           id="path96"
           style="fill:#a3834a;fill-opacity:1;fill-rule:nonzero;stroke:none"
           d="m 146,92 -2,0 0,8 2,0 0,-8 z" /><path
           id="path98"
           style="fill:#a3834a;fill-opacity:1;fill-rule:nonzero;stroke:none"
           d="m 150,92 -2,0 0,8 2,0 0,-8 z" /><path
           id="path100"
           style="fill:#a3834a;fill-opacity:1;fill-rule:nonzero;stroke:none"
           d="m 154,92 -2,0 0,8 2,0 0,-8 z" /><path
           id="path102"
           style="fill:#a3834a;fill-opacity:1;fill-rule:nonzero;stroke:none"
           d="m 158,92 -2,0 0,8 2,0 0,-8 z" /><path
           id="path104"
           style="fill:#a3834a;fill-opacity:1;fill-rule:nonzero;stroke:none"
           d="m 156,150 8.11,0 0,-2 -8.11,0 0,2 z" /><path
           id="path106"
           style="fill:#a3834a;fill-opacity:1;fill-rule:nonzero;stroke:none"
           d="m 155.89,154 8.11,0 0,-2 -8.11,0 0,2 z" /><path
           id="path108"
           style="fill:#a3834a;fill-opacity:1;fill-rule:nonzero;stroke:none"
           d="m 155.779,158 8.11,0 0,-2 -8.11,0 0,2 z" /><path
           id="path110"
           style="fill:#a3834a;fill-opacity:1;fill-rule:nonzero;stroke:none"
           d="m 156,146 8.11,0 0,-2 -8.11,0 0,2 z" /><path
           id="path112"
           style="fill:#a3834a;fill-opacity:1;fill-rule:nonzero;stroke:none"
           d="m 156,142 8.11,0 0,-2 -8.11,0 0,2 z" /><path
           id="path114"
           style="fill:#a3834a;fill-opacity:1;fill-rule:nonzero;stroke:none"
           d="m 156,138 8.11,0 0,-2 -8.11,0 0,2 z" /><path
           id="path116"
           style="fill:#a3834a;fill-opacity:1;fill-rule:nonzero;stroke:none"
           d="m 156,134 8.11,0 0,-2 -8.11,0 0,2 z" /><path
           id="path118"
           style="fill:#a3834a;fill-opacity:1;fill-rule:nonzero;stroke:none"
           d="m 156,130 8.11,0 0,-2 -8.11,0 0,2 z" /><path
           id="path120"
           style="fill:#a3834a;fill-opacity:1;fill-rule:nonzero;stroke:none"
           d="m 156,126 8.11,0 0,-2 -8.11,0 0,2 z" /><path
           id="path122"
           style="fill:#a3834a;fill-opacity:1;fill-rule:nonzero;stroke:none"
           d="m 156,122 8.11,0 0,-2 -8.11,0 0,2 z" /><path
           id="path124"
           style="fill:#a3834a;fill-opacity:1;fill-rule:nonzero;stroke:none"
           d="m 156,118 8.11,0 0,-2 -8.11,0 0,2 z" /><path
           id="path126"
           style="fill:#a3834a;fill-opacity:1;fill-rule:nonzero;stroke:none"
           d="m 156,114 8.11,0 0,-2 -8.11,0 0,2 z" /><path
           id="path128"
           style="fill:#a3834a;fill-opacity:1;fill-rule:nonzero;stroke:none"
           d="m 156,110 8.11,0 0,-2 -8.11,0 0,2 z" /><path
           id="path130"
           style="fill:#a3834a;fill-opacity:1;fill-rule:nonzero;stroke:none"
           d="m 156,106 8.11,0 0,-2 -8.11,0 0,2 z" /><path
           id="path132"
           style="fill:#a3834a;fill-opacity:1;fill-rule:nonzero;stroke:none"
           d="m 156,102 8.11,0 0,-2 -8.11,0 0,2 z" /><path
           id="path134"
           style="fill:#a3834a;fill-opacity:1;fill-rule:nonzero;stroke:none"
           d="m 156,98 8.11,0 0,-2 -8.11,0 0,2 z" /><path
           id="path136"
           style="fill:#a3834a;fill-opacity:1;fill-rule:nonzero;stroke:none"
           d="m 92,160 8.11,0 0,-2 -8.11,0 0,2 z" /><path
           id="path138"
           style="fill:#a3834a;fill-opacity:1;fill-rule:nonzero;stroke:none"
           d="m 92,156 8.11,0 0,-2 -8.11,0 0,2 z" /><path
           id="path140"
           style="fill:#a3834a;fill-opacity:1;fill-rule:nonzero;stroke:none"
           d="m 92,152 8.11,0 0,-2 -8.11,0 0,2 z" /><path
           id="path142"
           style="fill:#a3834a;fill-opacity:1;fill-rule:nonzero;stroke:none"
           d="m 92,148 8.11,0 0,-2 -8.11,0 0,2 z" /><path
           id="path144"
           style="fill:#a3834a;fill-opacity:1;fill-rule:nonzero;stroke:none"
           d="m 92,144 8.11,0 0,-2 -8.11,0 0,2 z" /><path
           id="path146"
           style="fill:#a3834a;fill-opacity:1;fill-rule:nonzero;stroke:none"
           d="m 92,140 8.11,0 0,-2 -8.11,0 0,2 z" /><path
           id="path148"
           style="fill:#a3834a;fill-opacity:1;fill-rule:nonzero;stroke:none"
           d="m 92,136 8.11,0 0,-2 -8.11,0 0,2 z" /><path
           id="path150"
           style="fill:#a3834a;fill-opacity:1;fill-rule:nonzero;stroke:none"
           d="m 92,132 8.11,0 0,-2 -8.11,0 0,2 z" /><path
           id="path152"
           style="fill:#a3834a;fill-opacity:1;fill-rule:nonzero;stroke:none"
           d="m 92,128 8.11,0 0,-2 -8.11,0 0,2 z" /><path
           id="path154"
           style="fill:#a3834a;fill-opacity:1;fill-rule:nonzero;stroke:none"
           d="m 92,124 8.11,0 0,-2 -8.11,0 0,2 z" /><path
           id="path156"
           style="fill:#a3834a;fill-opacity:1;fill-rule:nonzero;stroke:none"
           d="m 92,120 8.11,0 0,-2 -8.11,0 0,2 z" /><path
           id="path158"
           style="fill:#a3834a;fill-opacity:1;fill-rule:nonzero;stroke:none"
           d="m 92,116 8.11,0 0,-2 -8.11,0 0,2 z" /><path
           id="path160"
           style="fill:#a3834a;fill-opacity:1;fill-rule:nonzero;stroke:none"
           d="m 92,112 8.11,0 0,-2 -8.11,0 0,2 z" /><path
           id="path162"
           style="fill:#a3834a;fill-opacity:1;fill-rule:nonzero;stroke:none"
           d="m 92,108 8.11,0 0,-2 -8.11,0 0,2 z" /><path
           id="path164"
           style="fill:#a3834a;fill-opacity:1;fill-rule:nonzero;stroke:none"
           d="m 92,104 8.11,0 0,-2 -8.11,0 0,2 z" /><path
           id="path166"
           style="fill:#a3834a;fill-opacity:1;fill-rule:nonzero;stroke:none"
           d="m 92,100 8.11,0 0,-2 -8.11,0 0,2 z" /><path
           id="path168"
           style="fill:#262626;fill-opacity:1;fill-rule:nonzero;stroke:none"
           d="m 160,96 -63.89,0 0,64 63.89,0 0,-64 z" /><g
           transform="translate(135.5596,138.1118)"
           id="g170"><path
             id="path172"
             style="fill:#404040;fill-opacity:1;fill-rule:nonzero;stroke:none"
             d="m 0,0 -0.715,9.888 -9.198,0 c -3.062,0 -5.676,-1.834 -5.846,-4.191 L -16.171,0 -29.788,0 -31.467,-8.659 c -0.618,-3.187 1.933,-5.897 5.728,-5.897 l 8.516,0 -1.124,-15.556 12.806,0 c 4.262,0 7.471,3.409 7.183,7.395 l -0.59,8.161 15.388,0 -1.84,9.493 C 14.046,-2.211 10.895,0 7.537,0 L 0,0 Z" /></g><g
           transform="translate(113.144,127)"
           id="g174"><path
             id="path176"
             style="fill:#262626;fill-opacity:1;fill-rule:nonzero;stroke:none"
             d="M 0,0 -4.144,4.142 0.856,8 0,0 Z" /></g><g
           transform="translate(128,144.606)"
           id="g178"><path
             id="path180"
             style="fill:#262626;fill-opacity:1;fill-rule:nonzero;stroke:none"
             d="m 0,0 4.5,-3 -9,0 4.5,3 z" /></g><g
           transform="translate(128,114)"
           id="g182"><path
             id="path184"
             style="fill:#262626;fill-opacity:1;fill-rule:nonzero;stroke:none"
             d="M 0,0 -5.5,5 5.5,5 0,0 Z" /></g><g
           transform="translate(128,127)"
           id="g186"><path
             id="path188"
             style="fill:#262626;fill-opacity:1;fill-rule:nonzero;stroke:none"
             d="M 0,0 C -2.862,0 -5.098,1.893 -4.997,4.144 -4.899,6.307 -2.663,8 0,8 2.664,8 4.899,6.307 4.997,4.144 5.098,1.893 2.863,0 0,0" /></g><g
           transform="translate(141.8555,127)"
           id="g190"><path
             id="path192"
             style="fill:#262626;fill-opacity:1;fill-rule:nonzero;stroke:none"
             d="m 0,0 -0.855,8 5,-3.858 L 0,0 Z" /></g></g></g></g></svg>