<?xml version="1.0" encoding="UTF-8" standalone="no"?>
<svg
   xmlns:dc="http://purl.org/dc/elements/1.1/"
   xmlns:cc="http://creativecommons.org/ns#"
   xmlns:rdf="http://www.w3.org/1999/02/22-rdf-syntax-ns#"
   xmlns:svg="http://www.w3.org/2000/svg"
   xmlns="http://www.w3.org/2000/svg"
   viewBox="0 0 341.33334 341.33334"
   height="256"
   width="256"
   xml:space="preserve"
   id="svg2"
   version="1.1"><metadata
     id="metadata8"><rdf:RDF><cc:Work
         rdf:about=""><dc:format>image/svg+xml</dc:format><dc:type
           rdf:resource="http://purl.org/dc/dcmitype/StillImage" /></cc:Work></rdf:RDF></metadata><defs
     id="defs6"><clipPath
       id="clipPath18"
       clipPathUnits="userSpaceOnUse"><path
         id="path16"
         d="M 0,256 H 256 V 0 H 0 Z" /></clipPath><clipPath
       id="clipPath26"
       clipPathUnits="userSpaceOnUse"><path
         id="path24"
         d="M 76,180 H 180 V 76 H 76 Z" /></clipPath></defs><g
     transform="matrix(1.3333333,0,0,-1.3333333,0,341.33333)"
     id="g10"><g
       id="g12"><g
         clip-path="url(#clipPath18)"
         id="g14"><g
           id="g20"><g
             id="g22" /><g
             id="g34"><g
               style="opacity:0.5"
               id="g32"
               clip-path="url(#clipPath26)"><g
                 id="g30"
                 transform="translate(160,180)"><path
                   id="path28"
                   style="fill:#ffffff;fill-opacity:1;fill-rule:nonzero;stroke:none"
                   d="m 0,0 h -64 c -11.028,0 -20,-8.972 -20,-20 v -64 c 0,-11.028 8.972,-20 20,-20 H 0 c 11.028,0 20,8.972 20,20 v 64 C 20,-8.972 11.028,0 0,0" /></g></g></g></g><g
           transform="translate(160,84)"
           id="g36"><path
             id="path38"
             style="fill:#ffcc99;fill-opacity:1;fill-rule:nonzero;stroke:none"
             d="m 0,0 h -64 c -6.627,0 -12,5.373 -12,12 v 64 c 0,6.627 5.373,12 12,12 H 0 C 6.627,88 12,82.627 12,76 V 12 C 12,5.373 6.627,0 0,0" /></g><g
           transform="translate(170.8281,130.8281)"
           id="g40"><path
             id="path42"
             style="fill:#cca37a;fill-opacity:1;fill-rule:nonzero;stroke:none"
             d="m 0,0 c -12.035,12.037 -24.844,17.172 -42.828,17.172 -17.985,0 -30.793,-5.135 -42.828,-17.172 -1.563,-1.562 -1.563,-4.094 0,-5.656 12.035,-12.037 24.843,-17.172 42.828,-17.172 17.984,0 30.793,5.135 42.828,17.172 1.562,1.562 1.562,4.094 0,5.656" /></g><g
           transform="translate(94,128)"
           id="g44"><path
             id="path46"
             style="fill:#e6e6e6;fill-opacity:1;fill-rule:nonzero;stroke:none"
             d="M 0,0 C 9.568,8.466 19.706,12 34,12 48.294,12 58.432,8.466 68,0 58.432,-8.466 48.294,-12 34,-12 19.706,-12 9.568,-8.466 0,0" /></g><g
           transform="translate(140,128)"
           id="g48"><path
             id="path50"
             style="fill:#00b800;fill-opacity:1;fill-rule:nonzero;stroke:none"
             d="m 0,0 c 0,-6.627 -5.373,-12 -12,-12 -6.627,0 -12,5.373 -12,12 0,6.627 5.373,12 12,12 C -5.373,12 0,6.627 0,0" /></g><g
           transform="translate(136,128.0825)"
           id="g52"><path
             id="path54"
             style="fill:#000000;fill-opacity:1;fill-rule:nonzero;stroke:none"
             d="m 0,0 c 0,-4.418 -3.582,-8 -8,-8 -4.418,0 -8,3.582 -8,8 0,4.418 3.582,8 8,8 4.418,0 8,-3.582 8,-8" /></g></g></g></g></svg>