<?xml version="1.0" encoding="UTF-8" standalone="no"?>
<svg
   xmlns:dc="http://purl.org/dc/elements/1.1/"
   xmlns:cc="http://creativecommons.org/ns#"
   xmlns:rdf="http://www.w3.org/1999/02/22-rdf-syntax-ns#"
   xmlns:svg="http://www.w3.org/2000/svg"
   xmlns="http://www.w3.org/2000/svg"
   viewBox="0 0 341.33334 341.33334"
   height="256"
   width="256"
   xml:space="preserve"
   id="svg2"
   version="1.1"><metadata
     id="metadata8"><rdf:RDF><cc:Work
         rdf:about=""><dc:format>image/svg+xml</dc:format><dc:type
           rdf:resource="http://purl.org/dc/dcmitype/StillImage" /></cc:Work></rdf:RDF></metadata><defs
     id="defs6"><clipPath
       id="clipPath18"
       clipPathUnits="userSpaceOnUse"><path
         id="path16"
         d="M 0,256 H 256 V 0 H 0 Z" /></clipPath><clipPath
       id="clipPath26"
       clipPathUnits="userSpaceOnUse"><path
         id="path24"
         d="M 76,180 H 180 V 76 H 76 Z" /></clipPath></defs><g
     transform="matrix(1.3333333,0,0,-1.3333333,0,341.33333)"
     id="g10"><g
       id="g12"><g
         clip-path="url(#clipPath18)"
         id="g14"><g
           id="g20"><g
             id="g22" /><g
             id="g34"><g
               style="opacity:0.5"
               id="g32"
               clip-path="url(#clipPath26)"><g
                 id="g30"
                 transform="translate(160,180)"><path
                   id="path28"
                   style="fill:#ffffff;fill-opacity:1;fill-rule:nonzero;stroke:none"
                   d="m 0,0 h -64 c -11.028,0 -20,-8.972 -20,-20 v -64 c 0,-11.028 8.972,-20 20,-20 H 0 c 11.028,0 20,8.972 20,20 v 64 C 20,-8.972 11.028,0 0,0" /></g></g></g></g><g
           transform="translate(160,84)"
           id="g36"><path
             id="path38"
             style="fill:#eac500;fill-opacity:1;fill-rule:nonzero;stroke:none"
             d="m 0,0 h -64 c -6.627,0 -12,5.373 -12,12 v 64 c 0,6.627 5.373,12 12,12 H 0 C 6.627,88 12,82.627 12,76 V 12 C 12,5.373 6.627,0 0,0" /></g><g
           transform="translate(163.46,122.6504)"
           id="g40"><path
             id="path42"
             style="fill:#808080;fill-opacity:1;fill-rule:nonzero;stroke:none"
             d="M 0,0 C 0.267,1.757 0.54,3.514 0.54,5.35 0.54,7.186 0.267,8.942 0,10.699 l -7.444,1.088 c -0.728,3.168 -1.981,6.119 -3.659,8.791 l 4.522,6.084 c -2.131,2.887 -4.673,5.428 -7.567,7.567 l -6.084,-4.522 c -2.671,1.67 -5.616,2.931 -8.791,3.665 l -1.087,7.438 c -1.757,0.266 -3.514,0.54 -5.35,0.54 -1.836,0 -3.593,-0.274 -5.35,-0.54 l -1.087,-7.438 c -3.168,-0.734 -6.12,-1.987 -8.791,-3.665 l -6.084,4.522 c -2.887,-2.139 -5.436,-4.673 -7.567,-7.567 l 4.522,-6.084 c -1.671,-2.672 -2.931,-5.617 -3.658,-8.791 l -7.445,-1.088 c -0.267,-1.757 -0.54,-3.513 -0.54,-5.349 0,-1.836 0.273,-3.593 0.54,-5.35 l 7.445,-1.087 c 0.727,-3.168 1.98,-6.12 3.658,-8.791 l -4.522,-6.085 c 2.131,-2.887 4.672,-5.429 7.567,-7.566 l 6.084,4.521 c 2.671,-1.671 5.616,-2.93 8.791,-3.665 l 1.087,-7.437 c 1.757,-0.267 3.514,-0.54 5.35,-0.54 1.836,0 3.593,0.273 5.35,0.54 l 1.087,7.437 c 3.168,0.735 6.12,1.987 8.791,3.665 l 6.085,-4.521 c 2.886,2.137 5.435,4.673 7.566,7.567 l -4.522,6.084 c 1.671,2.671 2.931,5.615 3.659,8.791 z" /></g><g
           transform="translate(128,154)"
           id="g44"><path
             id="path46"
             style="fill:#666666;fill-opacity:1;fill-rule:nonzero;stroke:none"
             d="m 0,0 c -14.336,0 -26,-11.664 -26,-26 0,-14.337 11.664,-26 26,-26 14.337,0 26,11.663 26,26 C 26,-11.664 14.337,0 0,0 m 0,-10 c 8.832,0 16,-7.168 16,-16 0,-8.832 -7.168,-16 -16,-16 -8.832,0 -16,7.168 -16,16 0,8.832 7.168,16 16,16" /></g><g
           transform="translate(128,116)"
           id="g48"><path
             id="path50"
             style="fill:#eac500;fill-opacity:1;fill-rule:nonzero;stroke:none"
             d="m 0,0 c -6.624,0 -12,5.376 -12,12 0,6.624 5.376,12 12,12 C 6.624,24 12,18.624 12,12 12,5.376 6.624,0 0,0" /></g></g></g></g></svg>