<?xml version="1.0" encoding="UTF-8" standalone="no"?>
<svg
   xmlns:dc="http://purl.org/dc/elements/1.1/"
   xmlns:cc="http://creativecommons.org/ns#"
   xmlns:rdf="http://www.w3.org/1999/02/22-rdf-syntax-ns#"
   xmlns:svg="http://www.w3.org/2000/svg"
   xmlns="http://www.w3.org/2000/svg"
   viewBox="0 0 320 320"
   height="320"
   width="320"
   xml:space="preserve"
   version="1.1"
   id="svg2"><metadata
     id="metadata8"><rdf:RDF><cc:Work
         rdf:about=""><dc:format>image/svg+xml</dc:format><dc:type
           rdf:resource="http://purl.org/dc/dcmitype/StillImage" /></cc:Work></rdf:RDF></metadata><defs
     id="defs6"><clipPath
       id="clipPath16"
       clipPathUnits="userSpaceOnUse"><path
         id="path18"
         d="M 0,256 256,256 256,0 0,0 0,256 Z" /></clipPath><clipPath
       id="clipPath24"
       clipPathUnits="userSpaceOnUse"><path
         id="path26"
         d="M 8,180 248,180 248,76 8,76 8,180 Z" /></clipPath></defs><g
     transform="matrix(1.25,0,0,-1.25,0,320)"
     id="g10"><g
       id="g12"><g
         clip-path="url(#clipPath16)"
         id="g14"><g
           id="g20"><g
             id="g22" /><g
             id="g28"><g
               style="opacity:0.5"
               id="g30"
               clip-path="url(#clipPath24)"><g
                 id="g32"
                 transform="translate(236.3871,180)"><path
                   id="path34"
                   style="fill:#ffffff;fill-opacity:1;fill-rule:nonzero;stroke:none"
                   d="m 0,0 -216.774,0 c -6.404,0 -11.613,-5.234 -11.613,-11.667 l 0,-80.666 c 0,-6.433 5.209,-11.667 11.613,-11.667 L 0,-104 c 6.403,0 11.613,5.234 11.613,11.667 l 0,80.666 C 11.613,-5.234 6.403,0 0,0" /></g></g></g></g><g
           transform="translate(19.6129,172)"
           id="g36"><path
             id="path38"
             style="fill:#191919;fill-opacity:1;fill-rule:nonzero;stroke:none"
             d="m 0,0 216.774,0 c 1.996,0 3.613,-1.642 3.613,-3.667 l 0,-80.666 c 0,-2.025 -1.617,-3.667 -3.613,-3.667 L 0,-88 c -1.995,0 -3.613,1.642 -3.613,3.667 l 0,80.666 C -3.613,-1.642 -1.995,0 0,0" /></g><g
           transform="translate(19.6129,172)"
           id="g40"><path
             id="path42"
             style="fill:#191919;fill-opacity:1;fill-rule:nonzero;stroke:none"
             d="m 0,0 216.774,0 c 1.996,0 3.613,-1.642 3.613,-3.667 l 0,-80.666 c 0,-2.025 -1.617,-3.667 -3.613,-3.667 L 0,-88 c -1.995,0 -3.613,1.642 -3.613,3.667 l 0,80.666 C -3.613,-1.642 -1.995,0 0,0" /></g><g
           transform="translate(23.7241,160)"
           id="g44"><path
             id="path46"
             style="fill:#333333;fill-opacity:1;fill-rule:nonzero;stroke:none"
             d="m 0,0 208.552,0 c 2.057,0 3.724,-1.686 3.724,-3.765 l 0,-56.47 c 0,-2.079 -1.667,-3.765 -3.724,-3.765 L 0,-64 c -2.057,0 -3.724,1.686 -3.724,3.765 l 0,56.47 C -3.724,-1.686 -2.057,0 0,0" /></g><path
           id="path48"
           style="fill:#999999;fill-opacity:1;fill-rule:nonzero;stroke:none"
           d="m 236,108 -216,0 0,4 216,0 0,-4 z" /><path
           id="path50"
           style="fill:#808080;fill-opacity:1;fill-rule:nonzero;stroke:none"
           d="m 236,104 -216,0 0,4 216,0 0,-4 z" /><g
           transform="translate(148,172.0002)"
           id="g52"><path
             id="path54"
             style="fill:#0d0d0d;fill-opacity:1;fill-rule:nonzero;stroke:none"
             d="m 0,0 -24,0 0,-17.821 0.022,0 C -23.979,-17.882 -24,-17.939 -24,-18 c 0,-5.523 5.373,-10 12,-10 6.627,0 12,4.477 12,10 0,0.061 -0.02,0.118 -0.022,0.179 L 0,-17.821 0,0 Z" /></g><g
           transform="translate(215.2258,129.8709)"
           id="g56"><path
             id="path58"
             style="fill:#191919;fill-opacity:1;fill-rule:nonzero;stroke:none"
             d="m 0,0 c 0,-5.523 -4.477,-10 -10,-10 -5.523,0 -10,4.477 -10,10 0,5.523 4.477,10 10,10 C -4.477,10 0,5.523 0,0" /></g><g
           transform="translate(90,129.8709)"
           id="g60"><path
             id="path62"
             style="fill:#191919;fill-opacity:1;fill-rule:nonzero;stroke:none"
             d="m 0,0 c 0,-11.046 -8.954,-20 -20,-20 -11.046,0 -20,8.954 -20,20 0,11.046 8.954,20 20,20 C -8.954,20 0,11.046 0,0" /></g><g
           transform="translate(84,130)"
           id="g64"><path
             id="path66"
             style="fill:#262626;fill-opacity:1;fill-rule:nonzero;stroke:none"
             d="m 0,0 c 0,-7.732 -6.268,-14 -14,-14 -7.732,0 -14,6.268 -14,14 0,7.732 6.268,14 14,14 C -6.268,14 0,7.732 0,0" /></g><g
           transform="translate(80,130)"
           id="g68"><path
             id="path70"
             style="fill:#191919;fill-opacity:1;fill-rule:nonzero;stroke:none"
             d="m 0,0 c 0,-5.523 -4.477,-10 -10,-10 -5.523,0 -10,4.477 -10,10 0,5.523 4.477,10 10,10 C -4.477,10 0,5.523 0,0" /></g><g
           transform="translate(76,130)"
           id="g72"><path
             id="path74"
             style="fill:#bfbfbf;fill-opacity:1;fill-rule:nonzero;stroke:none"
             d="m 0,0 c 0,-3.314 -2.686,-6 -6,-6 -3.314,0 -6,2.686 -6,6 0,3.314 2.686,6 6,6 3.314,0 6,-2.686 6,-6" /></g><g
           transform="translate(70,136)"
           id="g76"><path
             id="path78"
             style="fill:#d9d9d9;fill-opacity:1;fill-rule:nonzero;stroke:none"
             d="m 0,0 c -3.314,0 -6,-2.686 -6,-6 0,-3.314 2.686,-6 6,-6 3.314,0 6,2.686 6,6 0,3.314 -2.686,6 -6,6 m 0,-1.292 c 2.596,0 4.708,-2.112 4.708,-4.708 0,-2.596 -2.112,-4.708 -4.708,-4.708 -2.596,0 -4.708,2.112 -4.708,4.708 0,2.596 2.112,4.708 4.708,4.708" /></g><g
           transform="translate(132.3871,129.8709)"
           id="g80"><path
             id="path82"
             style="fill:#191919;fill-opacity:1;fill-rule:nonzero;stroke:none"
             d="m 0,0 c 0,-5.523 -4.477,-10 -10,-10 -5.523,0 -10,4.477 -10,10 0,5.523 4.477,10 10,10 C -4.477,10 0,5.523 0,0" /></g><g
           transform="translate(160,129.8709)"
           id="g84"><path
             id="path86"
             style="fill:#191919;fill-opacity:1;fill-rule:nonzero;stroke:none"
             d="m 0,0 c 0,-5.523 -4.477,-10 -10,-10 -5.523,0 -10,4.477 -10,10 0,5.523 4.477,10 10,10 C -4.477,10 0,5.523 0,0" /></g><g
           transform="translate(187.6129,129.8709)"
           id="g88"><path
             id="path90"
             style="fill:#191919;fill-opacity:1;fill-rule:nonzero;stroke:none"
             d="m 0,0 c 0,-5.523 -4.477,-10 -10,-10 -5.523,0 -10,4.477 -10,10 0,5.523 4.477,10 10,10 C -4.477,10 0,5.523 0,0" /></g><path
           id="path92"
           style="fill:#999999;fill-opacity:1;fill-rule:nonzero;stroke:none"
           d="m 236,148 -28,0 0,4 28,0 0,-4 z" /><path
           id="path94"
           style="fill:#808080;fill-opacity:1;fill-rule:nonzero;stroke:none"
           d="m 236,144 -28,0 0,4 28,0 0,-4 z" /></g></g></g></svg>