<svg height="330.66666" viewBox="0 0 277.33267 330.66665" width="277.33267" xmlns="http://www.w3.org/2000/svg" xmlns:xlink="http://www.w3.org/1999/xlink"><clipPath id="a"><path d="m0 256h256v-256h-256z"/></clipPath><clipPath id="b"><path d="m24 252h208v-248h-208z"/></clipPath><g clip-path="url(#a)" transform="matrix(1.3333333 0 0 -1.3333333 -31.999999 335.99999)"><g clip-path="url(#b)" opacity=".5"><path d="m0 0h3.313 155.999c4.274 0 8.292 1.665 11.315 4.687 3.021 3.023 4.685 7.042 4.685 11.316l.001 219.997c0 6.617-5.382 12-12 12h-184c-6.616 0-12-5.383-12-12v-200-3.313l2.344-2.344 28-28z" fill="#fff" transform="translate(56.6865 4)"/></g><path d="m0 0 28-28h155.998c4.419 0 8.001 3.583 8 8.002l.002 219.998c0 2.209-1.791 4-4 4h-184c-2.209 0-4-1.791-4-4z" fill="#262626" transform="translate(32 40)"/><path d="m0 0h120c6.627 0 12-5.373 12-12v-64c0-6.627-5.373-12-12-12h-120c-6.627 0-12 5.373-12 12v64c0 6.627 5.373 12 12 12" fill="#a3834a" transform="translate(68 128)"/><path d="m0 0c.028 13.255 10.797 23.977 24.052 23.949 13.254-.029 23.976-10.797 23.948-24.052-.028-13.254-10.797-23.977-24.051-23.948-13.236.028-23.95 10.766-23.949 24.002" fill="#191919" transform="translate(60 156.0513)"/><path d="m0 0h132v-52c0-4.418-3.582-8-8-8h-116c-4.418 0-8 3.582-8 8z" fill="#e6e6e6" transform="translate(62 244)"/><path d="m0 0h112c6.627 0 12-5.373 12-12v-56c0-6.627-5.373-12-12-12h-112c-6.627 0-12 5.373-12 12v56c0 6.627 5.373 12 12 12" fill="#bf9a57" transform="translate(72 124)"/><path d="m120 164h72v-24h-72z" fill="#191919"/><g fill="#a3834a"><path d="m0 0v39.365c3.913.852 8.032 1.614 12 2.096v-41.461h2v41.671c2.08.203 4.103.329 6 .329 2.007 0 4.018-.132 6-.358v-41.642h2v41.378c4.324-.637 8.444-1.687 12-2.798v-38.58h2v37.931c5.689-1.918 9.515-3.804 9.628-3.86.158-.062 1.003-.397 2.372-.896v-33.175h2v32.466c2.964-1.027 7.196-2.383 12-3.589v-28.877h2v28.393c3.83-.897 7.938-1.662 12-2.071v-26.322h2v26.152c1.349-.095 2.687-.152 4-.152 2.605 0 5.304.207 8 .553v-26.553h2v26.834c4.184.638 8.304 1.574 12 2.564v-29.398h2v24 5.949 2.102c-6.988-2.011-16.037-4.051-24-4.051-15.618 0-35.43 7.85-35.553 7.895-.662.331-16.395 8.105-32.447 8.105-6.765 0-14.849-1.386-22-3.007v-.993-1.078-38.922z" transform="translate(74 40)"/><path d="m0 0c7.176 1.647 15.325 3.078 22 3.078 15.569 0 31.395-7.815 31.628-7.929.825-.329 20.364-8.071 36.372-8.071 8.051 0 16.993 1.958 24 3.947v.053 2.051 29.949h-2v-30.503c-3.69-1.005-7.814-1.96-12-2.62v41.123h-2v-41.409c-2.709-.359-5.412-.591-8-.591-1.309 0-2.647.06-4 .16v41.84h-2v-41.663c-4.048.426-8.169 1.217-12 2.13v39.533h-2v-39.037c-4.898 1.252-9.178 2.644-12 3.63v35.407h-2v-34.691c-.974.358-1.533.578-1.553.586-.331.165-4.427 2.19-10.447 4.174v29.931h-2v-29.298c-3.571 1.089-7.676 2.099-12 2.707v26.591h-2v-26.338c-1.976.215-3.985.338-6 .338-1.911 0-3.929-.113-6-.307v26.307h-2v-26.518c-3.979-.467-8.092-1.208-12-2.047v28.565h-2v-20-9.007z" transform="translate(72 96.9219)"/><path d="m0 0c.238.08 24.344 7.949 40 7.949 15.569 0 31.395-7.815 31.628-7.928.825-.33 20.364-8.072 36.372-8.072 15.003 0 33.107 6.8 36 7.925v2.004c-.199-.079-20.382-7.929-36-7.929s-35.43 7.85-35.553 7.895c-.662.331-16.395 8.105-32.447 8.105-15.198 0-37.051-6.981-40-7.947z" transform="translate(56 83.0508)"/></g></g></svg>