<?xml version="1.0" encoding="UTF-8" standalone="no"?>
<svg
   xmlns:dc="http://purl.org/dc/elements/1.1/"
   xmlns:cc="http://creativecommons.org/ns#"
   xmlns:rdf="http://www.w3.org/1999/02/22-rdf-syntax-ns#"
   xmlns:svg="http://www.w3.org/2000/svg"
   xmlns="http://www.w3.org/2000/svg"
   viewBox="0 0 330.66665 224"
   height="224"
   width="330.66666"
   xml:space="preserve"
   id="svg2"
   version="1.1"><metadata
     id="metadata8"><rdf:RDF><cc:Work
         rdf:about=""><dc:format>image/svg+xml</dc:format><dc:type
           rdf:resource="http://purl.org/dc/dcmitype/StillImage" /></cc:Work></rdf:RDF></metadata><defs
     id="defs6"><clipPath
       id="clipPath18"
       clipPathUnits="userSpaceOnUse"><path
         id="path16"
         d="M 0,256 H 256 V 0 H 0 Z" /></clipPath><clipPath
       id="clipPath26"
       clipPathUnits="userSpaceOnUse"><path
         id="path24"
         d="M 4,212 H 252 V 44 H 4 Z" /></clipPath></defs><g
     transform="matrix(1.3333333,0,0,-1.3333333,-5.3333332,282.66666)"
     id="g10"><g
       id="g12"><g
         clip-path="url(#clipPath18)"
         id="g14"><g
           id="g20"><g
             id="g22" /><g
             id="g34"><g
               style="opacity:0.5"
               id="g32"
               clip-path="url(#clipPath26)"><g
                 id="g30"
                 transform="translate(240.224,212)"><path
                   id="path28"
                   style="fill:#ffffff;fill-opacity:1;fill-rule:nonzero;stroke:none"
                   d="m 0,0 h -224.448 c -6.493,0 -11.776,-5.316 -11.776,-11.85 v -144.3 c 0,-6.534 5.283,-11.85 11.776,-11.85 H 0 c 6.493,0 11.776,5.316 11.776,11.85 v 144.3 C 11.776,-5.316 6.493,0 0,0" /></g></g></g></g><g
           transform="translate(240.224,52)"
           id="g36"><path
             id="path38"
             style="fill:#333333;fill-opacity:1;fill-rule:nonzero;stroke:none"
             d="m 0,0 h -224.448 c -2.085,0 -3.776,1.724 -3.776,3.85 v 144.3 c 0,2.126 1.691,3.85 3.776,3.85 H 0 c 2.085,0 3.776,-1.724 3.776,-3.85 V 3.85 C 3.776,1.724 2.085,0 0,0" /></g><g
           transform="translate(132.9119,134.691)"
           id="g40"><path
             id="path42"
             style="fill:#262626;fill-opacity:1;fill-rule:nonzero;stroke:none"
             d="m 0,0 c 0,0 22.641,42.71 55.034,52.316 0,0 14.787,5.025 18.85,-7.537 4.063,-12.562 -3.461,-15.89 -3.461,-15.89 0,0 -29.042,-9.972 -45.745,-41.451 0,0 -7.072,-10.197 -18.132,-4.286 C -4.514,-10.936 0,0 0,0" /></g><g
           transform="translate(112,150)"
           id="g44"><path
             id="path46"
             style="fill:#262626;fill-opacity:1;fill-rule:nonzero;stroke:none"
             d="m 0,0 c 0,-16.569 -13.431,-30 -30,-30 -16.569,0 -30,13.431 -30,30 0,16.569 13.431,30 30,30 C -13.431,30 0,16.569 0,0" /></g><g
           transform="translate(95.375,149.9234)"
           id="g48"><path
             id="path50"
             style="fill:#191919;fill-opacity:1;fill-rule:nonzero;stroke:none"
             d="m 0,0 c 0,-7.257 -5.883,-13.141 -13.141,-13.141 -7.257,0 -13.14,5.884 -13.14,13.141 0,7.257 5.883,13.141 13.14,13.141 C -5.883,13.141 0,7.257 0,0" /></g><g
           transform="translate(82,162)"
           id="g52"><path
             id="path54"
             style="fill:#0d0d0d;fill-opacity:1;fill-rule:nonzero;stroke:none"
             d="m 0,0 c -6.617,0 -12,-5.383 -12,-12 0,-6.617 5.383,-12 12,-12 6.617,0 12,5.383 12,12 C 12,-5.383 6.617,0 0,0 m 0,-26 c -7.72,0 -14,6.28 -14,14 0,7.72 6.28,14 14,14 7.72,0 14,-6.28 14,-14 0,-7.72 -6.28,-14 -14,-14" /></g><g
           transform="translate(154,130)"
           id="g56"><path
             id="path58"
             style="fill:#333333;fill-opacity:1;fill-rule:nonzero;stroke:none"
             d="m 0,0 c 0,-4.418 -3.582,-8 -8,-8 -4.418,0 -8,3.582 -8,8 0,4.418 3.582,8 8,8 4.418,0 8,-3.582 8,-8" /></g><g
           transform="translate(168,148)"
           id="g60"><path
             id="path62"
             style="fill:#333333;fill-opacity:1;fill-rule:nonzero;stroke:none"
             d="m 0,0 c 0,-4.418 -3.582,-8 -8,-8 -4.418,0 -8,3.582 -8,8 0,4.418 3.582,8 8,8 4.418,0 8,-3.582 8,-8" /></g><g
           transform="translate(184,164)"
           id="g64"><path
             id="path66"
             style="fill:#333333;fill-opacity:1;fill-rule:nonzero;stroke:none"
             d="m 0,0 c 0,-4.418 -3.582,-8 -8,-8 -4.418,0 -8,3.582 -8,8 0,4.418 3.582,8 8,8 4.418,0 8,-3.582 8,-8" /></g><g
           transform="translate(204,176)"
           id="g68"><path
             id="path70"
             style="fill:#333333;fill-opacity:1;fill-rule:nonzero;stroke:none"
             d="m 0,0 c 0,-4.418 -3.582,-8 -8,-8 -4.418,0 -8,3.582 -8,8 0,4.418 3.582,8 8,8 4.418,0 8,-3.582 8,-8" /></g><g
           transform="translate(124.595,184)"
           id="g72"><path
             id="path74"
             style="fill:#262626;fill-opacity:1;fill-rule:nonzero;stroke:none"
             d="m 0,0 c -0.074,0 -0.149,0.003 -0.224,0.008 l -9.183,0.644 c -0.906,0.063 -1.736,0.505 -2.338,1.245 -0.603,0.741 -0.902,1.687 -0.843,2.663 0.059,0.977 0.469,1.873 1.155,2.523 0.686,0.649 1.563,0.972 2.467,0.909 L 0.217,7.349 C 1.123,7.286 1.952,6.843 2.555,6.103 3.157,5.362 3.457,4.417 3.398,3.44 3.339,2.463 2.929,1.568 2.243,0.917 1.614,0.321 0.824,0 0,0" /></g><g
           transform="translate(115.4921,191)"
           id="g76"><path
             id="path78"
             style="fill:#333333;fill-opacity:1;fill-rule:nonzero;stroke:none"
             d="m 0,0 c -0.603,0 -1.18,-0.235 -1.641,-0.671 -0.503,-0.475 -0.803,-1.129 -0.846,-1.841 -0.043,-0.713 0.176,-1.403 0.618,-1.944 0.441,-0.541 1.048,-0.864 1.71,-0.91 l 9.011,-0.63 c 0.658,-0.037 1.301,0.189 1.805,0.664 0.503,0.476 0.802,1.13 0.846,1.842 0.043,0.713 -0.176,1.402 -0.618,1.944 -0.441,0.541 -1.049,0.863 -1.71,0.91 l -9.011,0.63 C 0.11,-0.003 0.055,0 0,0" /></g><g
           transform="translate(143.4049,184)"
           id="g80"><path
             id="path82"
             style="fill:#262626;fill-opacity:1;fill-rule:nonzero;stroke:none"
             d="m 0,0 c -1.779,0 -3.281,1.496 -3.398,3.44 -0.121,2.024 1.306,3.777 3.18,3.908 L 8.965,7.991 C 10.871,8.132 12.466,6.584 12.588,4.559 12.71,2.536 11.282,0.782 9.408,0.651 L 0.225,0.008 C 0.149,0.003 0.074,0 0,0" /></g><g
           transform="translate(152.5062,191)"
           id="g84"><path
             id="path86"
             style="fill:#333333;fill-opacity:1;fill-rule:nonzero;stroke:none"
             d="m 0,0 c -0.053,0 -0.108,-0.003 -0.163,-0.006 l -9.009,-0.63 c -1.372,-0.095 -2.417,-1.374 -2.329,-2.852 0.091,-1.476 1.263,-2.618 2.651,-2.504 l 9.009,0.629 c 1.372,0.096 2.418,1.375 2.33,2.853 C 2.402,-1.093 1.302,0 0,0" /></g><g
           transform="translate(16,204)"
           id="g88"><path
             id="path90"
             style="fill:#4c4c4c;fill-opacity:1;fill-rule:nonzero;stroke:none"
             d="M 0,0 C 0,0 104.021,-8.196 117.269,-7.996 130.516,-7.796 224,0 224,0 Z" /></g><g
           transform="translate(242.112,52)"
           id="g92"><path
             id="path94"
             style="fill:#262626;fill-opacity:1;fill-rule:nonzero;stroke:none"
             d="m 0,0 h -228.224 c -1.038,0 -1.888,0.819 -1.888,1.82 v 4.36 c 0,1.001 0.85,1.82 1.888,1.82 H 0 C 1.038,8 1.888,7.181 1.888,6.18 V 1.82 C 1.888,0.819 1.038,0 0,0" /></g><path
           id="path96"
           style="fill:#ffffff;fill-opacity:1;fill-rule:nonzero;stroke:none"
           d="m 24.062,200 h 2.414 v -8 h -2.414 z" /><g
           transform="translate(33.0627,194.2805)"
           id="g98"><path
             id="path100"
             style="fill:#ffffff;fill-opacity:1;fill-rule:nonzero;stroke:none"
             d="m 0,0 c -0.054,-0.025 -0.117,-0.035 -0.176,-0.043 -0.061,-0.007 -0.122,-0.002 -0.183,-0.002 -1.043,0 -2.087,0 -3.13,0 v 0.647 h 3.387 C -0.071,0.597 -0.041,0.59 -0.012,0.579 0.107,0.533 0.194,0.403 0.187,0.283 0.18,0.15 0.114,0.053 0,0 m -0.394,3.498 c 0.068,0 0.136,0.004 0.203,-0.002 C -0.13,3.491 -0.068,3.483 -0.012,3.462 0.107,3.416 0.194,3.286 0.187,3.166 0.18,3.033 0.114,2.935 0,2.883 -0.054,2.858 -0.117,2.847 -0.176,2.84 -0.201,2.837 -0.227,2.837 -0.252,2.837 h -0.023 c -0.028,0 -0.056,10e-4 -0.084,10e-4 -1.043,0 -2.087,0 -3.13,0 v 0.66 c 1.032,0 2.063,0 3.095,0 M 2.563,1.738 C 2.622,1.842 2.675,1.953 2.722,2.072 3.014,2.813 3.007,3.566 2.714,4.304 2.439,4.999 1.947,5.449 1.253,5.644 1.022,5.709 -5.904,5.72 -5.904,5.72 v -8 c 0,0 5.391,0 6.879,0 0.068,0.026 0.135,0.06 0.206,0.078 0.737,0.188 1.252,0.658 1.541,1.391 C 3.014,-0.07 3.007,0.683 2.714,1.421 2.67,1.533 2.619,1.638 2.563,1.738" /></g><g
           transform="translate(18.4144,193.3259)"
           id="g102"><path
             id="path104"
             style="fill:#ffffff;fill-opacity:1;fill-rule:nonzero;stroke:none"
             d="m 0,0 v 6.674 h -2.414 v -8 H 5.119 V 0 Z" /></g><g
           transform="translate(98.4955,84)"
           id="g106"><path
             id="path108"
             style="fill:#a3834a;fill-opacity:1;fill-rule:nonzero;stroke:none"
             d="m 0,0 3.471,-4.851 v 3.363 c 0,0.469 -0.061,0.786 -0.182,0.952 -0.166,0.223 -0.444,0.33 -0.835,0.323 V 0 H 4.778 V -0.213 C 4.481,-0.256 4.281,-0.311 4.179,-0.378 4.077,-0.445 3.997,-0.555 3.94,-0.707 3.883,-0.858 3.855,-1.119 3.855,-1.488 V -8 H 3.678 l -4.757,6.512 V -6.46 c 0,-0.45 0.092,-0.754 0.277,-0.911 0.185,-0.158 0.397,-0.237 0.636,-0.237 H 0 v -0.213 h -2.495 v 0.213 c 0.387,0.004 0.657,0.092 0.809,0.266 0.152,0.173 0.228,0.467 0.228,0.882 v 5.52 l -0.15,0.207 c -0.149,0.208 -0.28,0.345 -0.395,0.41 -0.114,0.065 -0.278,0.102 -0.492,0.11 V 0 Z" /></g><g
           transform="translate(106.4177,83.5398)"
           id="g110"><path
             id="path112"
             style="fill:#a3834a;fill-opacity:1;fill-rule:nonzero;stroke:none"
             d="m 0,0 v -3.257 h 0.14 c 0.446,0 0.77,0.16 0.97,0.478 0.201,0.319 0.329,0.789 0.384,1.41 H 1.691 V -5.558 H 1.494 C 1.453,-5.101 1.365,-4.728 1.232,-4.437 1.099,-4.146 0.944,-3.95 0.768,-3.85 0.591,-3.749 0.335,-3.699 0,-3.699 v -2.254 c 0,-0.44 0.016,-0.71 0.049,-0.808 0.033,-0.098 0.095,-0.179 0.184,-0.242 0.09,-0.063 0.236,-0.094 0.436,-0.094 H 1.09 c 0.657,0 1.183,0.173 1.579,0.519 0.396,0.346 0.681,0.873 0.854,1.581 H 3.715 L 3.398,-7.54 h -6.08 v 0.218 h 0.233 c 0.204,0 0.369,0.042 0.493,0.124 0.09,0.055 0.159,0.15 0.208,0.284 0.038,0.094 0.057,0.342 0.057,0.743 v 5.262 c 0,0.362 -0.009,0.585 -0.026,0.667 -0.035,0.138 -0.099,0.244 -0.192,0.319 -0.132,0.11 -0.312,0.165 -0.54,0.165 H -2.682 V 0.46 H 3.206 V -1.906 H 3.009 c -0.1,0.579 -0.241,0.994 -0.423,1.245 -0.181,0.252 -0.438,0.437 -0.77,0.555 C 1.622,-0.035 1.259,0 0.726,0 Z" /></g><g
           transform="translate(114.7757,83.6322)"
           id="g114"><path
             id="path116"
             style="fill:#a3834a;fill-opacity:1;fill-rule:nonzero;stroke:none"
             d="m 0,0 c -0.643,0 -1.133,-0.36 -1.468,-1.081 -0.273,-0.591 -0.41,-1.44 -0.41,-2.547 0,-1.316 0.211,-2.289 0.633,-2.918 0.294,-0.44 0.705,-0.66 1.235,-0.66 0.356,0 0.653,0.095 0.892,0.285 0.304,0.242 0.541,0.63 0.711,1.163 0.169,0.532 0.254,1.227 0.254,2.084 0,1.02 -0.087,1.783 -0.259,2.289 C 1.415,-0.879 1.194,-0.521 0.926,-0.313 0.658,-0.104 0.349,0 0,0 M -0.062,0.364 C 1.058,0.409 1.969,0.051 2.669,-0.711 3.37,-1.473 3.72,-2.427 3.72,-3.572 3.72,-4.55 3.459,-5.41 2.936,-6.154 2.245,-7.139 1.268,-7.632 0.005,-7.632 c -1.266,0 -2.245,0.47 -2.936,1.41 -0.547,0.743 -0.82,1.625 -0.82,2.645 0,1.145 0.355,2.099 1.066,2.863 0.711,0.764 1.585,1.123 2.623,1.078" /></g><g
           transform="translate(120.7576,81.6474)"
           id="g118"><path
             id="path120"
             style="fill:#a3834a;fill-opacity:1;fill-rule:nonzero;stroke:none"
             d="m 0,0 c 0.412,0 0.761,-0.158 1.048,-0.475 0.287,-0.316 0.431,-0.7 0.431,-1.152 0,-0.447 -0.145,-0.83 -0.434,-1.148 C 0.757,-3.094 0.408,-3.253 0,-3.253 c -0.412,0 -0.762,0.159 -1.051,0.478 -0.288,0.318 -0.433,0.701 -0.433,1.148 0,0.452 0.144,0.836 0.431,1.152 C -0.766,-0.158 -0.415,0 0,0" /></g><g
           transform="translate(125.4161,83.5693)"
           id="g122"><path
             id="path124"
             style="fill:#a3834a;fill-opacity:1;fill-rule:nonzero;stroke:none"
             d="m 0,0 v -3.504 h 0.296 c 0.48,0 0.84,0.05 1.079,0.15 0.239,0.1 0.427,0.281 0.564,0.543 0.136,0.261 0.204,0.603 0.204,1.023 0,0.61 -0.125,1.06 -0.376,1.351 C 1.517,-0.146 1.112,0 0.555,0 Z m 0,-3.923 v -2.242 c 0,-0.433 0.024,-0.705 0.071,-0.817 0.047,-0.112 0.128,-0.202 0.245,-0.269 0.118,-0.067 0.338,-0.1 0.659,-0.1 v -0.218 h -3.6 v 0.218 c 0.325,0 0.546,0.034 0.662,0.103 0.116,0.069 0.197,0.159 0.244,0.269 0.047,0.11 0.069,0.381 0.069,0.814 v 5.192 c 0,0.432 -0.022,0.705 -0.069,0.817 -0.047,0.112 -0.13,0.201 -0.247,0.268 -0.118,0.067 -0.338,0.1 -0.659,0.1 V 0.431 H 0.643 C 1.494,0.431 2.117,0.364 2.511,0.23 2.905,0.096 3.227,-0.15 3.476,-0.51 3.725,-0.87 3.85,-1.292 3.85,-1.776 3.85,-2.366 3.663,-2.853 3.289,-3.239 3.051,-3.483 2.717,-3.666 2.288,-3.788 L 3.979,-6.496 C 4.201,-6.846 4.358,-7.064 4.451,-7.15 4.593,-7.272 4.757,-7.339 4.944,-7.351 V -7.569 H 2.729 l -2.267,3.646 z" /></g><g
           transform="translate(133.1619,83.5398)"
           id="g126"><path
             id="path128"
             style="fill:#a3834a;fill-opacity:1;fill-rule:nonzero;stroke:none"
             d="m 0,0 v -3.257 h 0.14 c 0.446,0 0.77,0.16 0.97,0.478 0.201,0.319 0.329,0.789 0.384,1.41 H 1.691 V -5.558 H 1.494 C 1.453,-5.101 1.365,-4.728 1.232,-4.437 1.099,-4.146 0.944,-3.95 0.768,-3.85 0.591,-3.749 0.335,-3.699 0,-3.699 v -2.254 c 0,-0.44 0.016,-0.71 0.049,-0.808 0.033,-0.098 0.095,-0.179 0.184,-0.242 0.09,-0.063 0.236,-0.094 0.436,-0.094 H 1.09 c 0.657,0 1.183,0.173 1.579,0.519 0.396,0.346 0.681,0.873 0.854,1.581 H 3.715 L 3.398,-7.54 h -6.08 v 0.218 h 0.233 c 0.204,0 0.369,0.042 0.493,0.124 0.09,0.055 0.159,0.15 0.208,0.284 0.038,0.094 0.057,0.342 0.057,0.743 v 5.262 c 0,0.362 -0.009,0.585 -0.026,0.667 -0.035,0.138 -0.099,0.244 -0.192,0.319 -0.132,0.11 -0.312,0.165 -0.54,0.165 H -2.682 V 0.46 H 3.206 V -1.906 H 3.009 c -0.1,0.579 -0.241,0.994 -0.423,1.245 -0.181,0.252 -0.438,0.437 -0.77,0.555 C 1.622,-0.035 1.259,0 0.726,0 Z" /></g><g
           transform="translate(144.057,84)"
           id="g130"><path
             id="path132"
             style="fill:#a3834a;fill-opacity:1;fill-rule:nonzero;stroke:none"
             d="m 0,0 v -2.165 h -0.187 c -0.11,0.499 -0.233,0.858 -0.368,1.077 -0.135,0.218 -0.32,0.392 -0.555,0.522 -0.132,0.07 -0.362,0.106 -0.69,0.106 h -0.524 v -6.171 c 0,-0.409 0.02,-0.665 0.059,-0.767 0.04,-0.102 0.118,-0.192 0.234,-0.269 0.116,-0.076 0.274,-0.115 0.475,-0.115 h 0.233 V -8 h -3.684 v 0.218 h 0.234 c 0.204,0 0.368,0.042 0.493,0.124 0.09,0.055 0.161,0.15 0.213,0.283 0.038,0.095 0.057,0.343 0.057,0.744 v 6.171 h -0.509 c -0.474,0 -0.818,-0.114 -1.032,-0.342 -0.301,-0.319 -0.491,-0.773 -0.571,-1.363 H -6.319 V 0 Z" /></g><g
           transform="translate(147.2632,83.5693)"
           id="g134"><path
             id="path136"
             style="fill:#a3834a;fill-opacity:1;fill-rule:nonzero;stroke:none"
             d="m 0,0 v -3.504 h 0.296 c 0.48,0 0.84,0.05 1.079,0.15 0.238,0.1 0.426,0.281 0.563,0.543 0.136,0.261 0.205,0.603 0.205,1.023 0,0.61 -0.126,1.06 -0.376,1.351 C 1.516,-0.146 1.112,0 0.555,0 Z m 0,-3.923 v -2.242 c 0,-0.433 0.023,-0.705 0.07,-0.817 0.047,-0.112 0.129,-0.202 0.246,-0.269 0.118,-0.067 0.338,-0.1 0.659,-0.1 v -0.218 h -3.6 v 0.218 c 0.325,0 0.545,0.034 0.661,0.103 0.116,0.069 0.197,0.159 0.244,0.269 0.047,0.11 0.07,0.381 0.07,0.814 v 5.192 c 0,0.432 -0.023,0.705 -0.07,0.817 -0.047,0.112 -0.129,0.201 -0.246,0.268 -0.118,0.067 -0.338,0.1 -0.659,0.1 V 0.431 H 0.643 C 1.494,0.431 2.117,0.364 2.511,0.23 2.905,0.096 3.227,-0.15 3.476,-0.51 3.725,-0.87 3.85,-1.292 3.85,-1.776 3.85,-2.366 3.663,-2.853 3.289,-3.239 3.051,-3.483 2.717,-3.666 2.288,-3.788 L 3.979,-6.496 C 4.201,-6.846 4.358,-7.064 4.451,-7.15 4.593,-7.272 4.757,-7.339 4.944,-7.351 V -7.569 H 2.729 l -2.267,3.646 z" /></g><g
           transform="translate(156.2801,83.6322)"
           id="g138"><path
             id="path140"
             style="fill:#a3834a;fill-opacity:1;fill-rule:nonzero;stroke:none"
             d="m 0,0 c -0.643,0 -1.133,-0.36 -1.468,-1.081 -0.273,-0.591 -0.41,-1.44 -0.41,-2.547 0,-1.316 0.211,-2.289 0.633,-2.918 0.294,-0.44 0.705,-0.66 1.235,-0.66 0.356,0 0.653,0.095 0.892,0.285 0.304,0.242 0.541,0.63 0.711,1.163 0.169,0.532 0.254,1.227 0.254,2.084 0,1.02 -0.087,1.783 -0.259,2.289 C 1.415,-0.879 1.194,-0.521 0.926,-0.313 0.658,-0.104 0.349,0 0,0 M -0.062,0.364 C 1.058,0.409 1.969,0.051 2.669,-0.711 3.37,-1.473 3.72,-2.427 3.72,-3.572 3.72,-4.55 3.459,-5.41 2.936,-6.154 2.245,-7.139 1.268,-7.632 0.005,-7.632 c -1.266,0 -2.245,0.47 -2.936,1.41 -0.547,0.743 -0.82,1.625 -0.82,2.645 0,1.145 0.355,2.099 1.066,2.863 0.711,0.764 1.585,1.123 2.623,1.078" /></g><g
           transform="translate(118.7048,73.0388)"
           id="g142"><path
             id="path144"
             style="fill:#ffffff;fill-opacity:1;fill-rule:nonzero;stroke:none"
             d="M 0,0 C 0.135,-0.002 0.235,0.028 0.297,0.088 0.36,0.149 0.391,0.237 0.391,0.351 0.391,0.465 0.36,0.552 0.297,0.612 0.235,0.672 0.135,0.702 0,0.702 H -0.466 V 0 Z m 0.08,0.916 c 0.181,0 0.318,-0.05 0.41,-0.149 C 0.583,0.668 0.63,0.529 0.63,0.351 0.63,0.172 0.583,0.033 0.49,-0.067 0.398,-0.167 0.261,-0.216 0.08,-0.214 h -0.546 v -0.782 h -0.239 v 1.912 z" /></g><g
           transform="translate(120.5182,73.0872)"
           id="g146"><path
             id="path148"
             style="fill:#ffffff;fill-opacity:1;fill-rule:nonzero;stroke:none"
             d="m 0,0 c 0.05,0.009 0.094,0.026 0.132,0.052 0.037,0.026 0.067,0.061 0.09,0.105 0.023,0.043 0.034,0.1 0.034,0.17 0,0.096 -0.025,0.175 -0.075,0.235 C 0.13,0.623 0.049,0.653 -0.063,0.653 h -0.592 v -0.667 h 0.497 C -0.103,-0.014 -0.05,-0.009 0,0 m -0.05,0.867 c 0.17,0 0.304,-0.044 0.4,-0.134 C 0.446,0.644 0.494,0.522 0.494,0.367 0.494,0.251 0.469,0.149 0.42,0.061 0.371,-0.026 0.292,-0.086 0.183,-0.118 V -0.123 C 0.235,-0.134 0.277,-0.152 0.31,-0.177 0.342,-0.202 0.368,-0.232 0.387,-0.266 0.407,-0.301 0.421,-0.34 0.43,-0.383 0.439,-0.426 0.447,-0.47 0.452,-0.517 0.455,-0.563 0.457,-0.611 0.459,-0.659 0.461,-0.707 0.465,-0.754 0.472,-0.801 0.478,-0.847 0.488,-0.891 0.5,-0.933 0.513,-0.975 0.532,-1.012 0.557,-1.044 H 0.291 c -0.017,0.019 -0.028,0.046 -0.034,0.08 -0.006,0.034 -0.009,0.072 -0.011,0.114 -0.002,0.042 -0.004,0.087 -0.005,0.135 -0.002,0.048 -0.007,0.096 -0.015,0.142 -0.007,0.046 -0.015,0.091 -0.025,0.132 -0.01,0.042 -0.026,0.079 -0.048,0.11 -0.022,0.031 -0.05,0.056 -0.085,0.075 -0.035,0.019 -0.082,0.028 -0.141,0.028 h -0.582 v -0.816 h -0.238 v 1.911 z" /></g><g
           transform="translate(121.5166,72.7136)"
           id="g150"><path
             id="path152"
             style="fill:#ffffff;fill-opacity:1;fill-rule:nonzero;stroke:none"
             d="m 0,0 c 0.023,-0.094 0.06,-0.178 0.11,-0.253 0.05,-0.075 0.115,-0.135 0.193,-0.181 0.079,-0.045 0.173,-0.068 0.281,-0.068 0.109,0 0.203,0.023 0.281,0.068 0.079,0.046 0.143,0.106 0.193,0.181 C 1.109,-0.178 1.145,-0.094 1.169,0 1.192,0.094 1.204,0.189 1.204,0.285 1.204,0.381 1.192,0.477 1.169,0.57 1.145,0.664 1.109,0.748 1.058,0.823 1.008,0.898 0.944,0.959 0.865,1.004 0.787,1.05 0.693,1.072 0.584,1.072 0.476,1.072 0.382,1.05 0.303,1.004 0.225,0.959 0.16,0.898 0.11,0.823 0.06,0.748 0.023,0.664 0,0.57 -0.024,0.477 -0.035,0.381 -0.035,0.285 -0.035,0.189 -0.024,0.094 0,0 m -0.219,0.661 c 0.035,0.121 0.089,0.227 0.161,0.32 0.072,0.093 0.162,0.167 0.269,0.223 0.107,0.055 0.231,0.082 0.373,0.082 0.143,0 0.267,-0.027 0.374,-0.082 C 1.065,1.148 1.155,1.074 1.226,0.981 1.298,0.888 1.352,0.782 1.388,0.661 1.424,0.541 1.442,0.415 1.442,0.285 1.442,0.155 1.424,0.03 1.388,-0.091 1.352,-0.212 1.298,-0.318 1.226,-0.411 1.155,-0.504 1.065,-0.577 0.958,-0.632 0.851,-0.686 0.727,-0.714 0.584,-0.714 c -0.142,0 -0.266,0.028 -0.373,0.082 -0.107,0.055 -0.197,0.128 -0.269,0.221 -0.072,0.093 -0.126,0.199 -0.161,0.32 -0.036,0.121 -0.054,0.246 -0.054,0.376 0,0.13 0.018,0.256 0.054,0.376" /></g><path
           id="path154"
           style="fill:#ffffff;fill-opacity:1;fill-rule:nonzero;stroke:none"
           d="m 123.904,72.68 h -0.725 v 0.214 h 0.725 z" /><g
           transform="translate(125.3038,72.0656)"
           id="g156"><path
             id="path158"
             style="fill:#ffffff;fill-opacity:1;fill-rule:nonzero;stroke:none"
             d="m 0,0 c -0.104,-0.044 -0.208,-0.066 -0.314,-0.066 -0.133,0 -0.253,0.027 -0.358,0.079 -0.106,0.053 -0.195,0.124 -0.269,0.213 -0.073,0.09 -0.129,0.192 -0.168,0.308 -0.038,0.116 -0.057,0.237 -0.057,0.362 0,0.139 0.018,0.271 0.054,0.397 0.035,0.126 0.089,0.236 0.16,0.331 0.071,0.094 0.16,0.17 0.266,0.226 0.106,0.056 0.23,0.084 0.372,0.084 0.097,0 0.189,-0.012 0.275,-0.036 C 0.047,1.874 0.124,1.836 0.192,1.785 0.26,1.733 0.316,1.667 0.362,1.588 0.408,1.508 0.44,1.412 0.456,1.3 H 0.218 C 0.206,1.373 0.185,1.436 0.153,1.489 0.121,1.541 0.082,1.585 0.035,1.619 -0.012,1.653 -0.065,1.678 -0.124,1.695 -0.184,1.712 -0.247,1.72 -0.314,1.72 -0.422,1.72 -0.515,1.697 -0.593,1.651 -0.671,1.604 -0.735,1.543 -0.784,1.467 -0.833,1.391 -0.87,1.305 -0.893,1.207 -0.916,1.11 -0.928,1.011 -0.928,0.909 c 0,-0.1 0.013,-0.196 0.04,-0.288 0.027,-0.092 0.066,-0.173 0.118,-0.243 0.052,-0.071 0.116,-0.127 0.192,-0.169 0.076,-0.042 0.164,-0.063 0.264,-0.063 0.094,0 0.177,0.016 0.249,0.048 C 0.007,0.226 0.067,0.27 0.117,0.327 0.166,0.383 0.203,0.449 0.228,0.525 0.253,0.601 0.264,0.682 0.261,0.77 H -0.311 V 0.984 H 0.474 V -0.023 H 0.324 L 0.261,0.215 C 0.191,0.116 0.104,0.044 0,0" /></g><g
           transform="translate(127.3655,73.9545)"
           id="g160"><path
             id="path162"
             style="fill:#ffffff;fill-opacity:1;fill-rule:nonzero;stroke:none"
             d="m 0,0 v -0.214 h -0.998 v -0.608 h 0.93 v -0.214 h -0.93 V -1.697 H 0.008 V -1.912 H -1.237 V 0 Z" /></g><g
           transform="translate(128.577,72.8328)"
           id="g164"><path
             id="path166"
             style="fill:#ffffff;fill-opacity:1;fill-rule:nonzero;stroke:none"
             d="M 0,0 -0.298,0.892 H -0.303 L -0.607,0 Z m -0.166,1.122 0.7,-1.912 H 0.271 L 0.075,-0.214 H -0.682 L -0.883,-0.79 h -0.243 l 0.697,1.912 z" /></g><g
           transform="translate(130.1796,73.0872)"
           id="g168"><path
             id="path170"
             style="fill:#ffffff;fill-opacity:1;fill-rule:nonzero;stroke:none"
             d="m 0,0 c 0.05,0.009 0.094,0.026 0.132,0.052 0.037,0.026 0.067,0.061 0.09,0.105 0.023,0.043 0.034,0.1 0.034,0.17 0,0.096 -0.025,0.175 -0.075,0.235 C 0.13,0.623 0.049,0.653 -0.063,0.653 h -0.592 v -0.667 h 0.497 C -0.103,-0.014 -0.05,-0.009 0,0 m -0.05,0.867 c 0.17,0 0.304,-0.044 0.4,-0.134 C 0.446,0.644 0.494,0.522 0.494,0.367 0.494,0.251 0.469,0.149 0.42,0.061 0.371,-0.026 0.292,-0.086 0.183,-0.118 V -0.123 C 0.235,-0.134 0.277,-0.152 0.31,-0.177 0.342,-0.202 0.368,-0.232 0.387,-0.266 0.407,-0.301 0.421,-0.34 0.43,-0.383 0.439,-0.426 0.447,-0.47 0.452,-0.517 0.455,-0.563 0.457,-0.611 0.459,-0.659 0.461,-0.707 0.465,-0.754 0.472,-0.801 0.478,-0.847 0.488,-0.891 0.5,-0.933 0.513,-0.975 0.532,-1.012 0.557,-1.044 H 0.291 c -0.017,0.019 -0.028,0.046 -0.034,0.08 -0.006,0.034 -0.01,0.072 -0.011,0.114 -0.002,0.042 -0.004,0.087 -0.005,0.135 -0.002,0.048 -0.007,0.096 -0.015,0.142 -0.007,0.046 -0.015,0.091 -0.025,0.132 -0.01,0.042 -0.026,0.079 -0.048,0.11 -0.022,0.031 -0.05,0.056 -0.085,0.075 -0.035,0.019 -0.082,0.028 -0.141,0.028 h -0.582 v -0.816 h -0.238 v 1.911 z" /></g><g
           transform="translate(132.5987,73.6936)"
           id="g172"><path
             id="path174"
             style="fill:#ffffff;fill-opacity:1;fill-rule:nonzero;stroke:none"
             d="m 0,0 c -0.079,0.061 -0.181,0.092 -0.305,0.092 -0.05,0 -0.099,-0.005 -0.148,-0.016 -0.048,-0.01 -0.091,-0.028 -0.129,-0.053 -0.038,-0.025 -0.068,-0.059 -0.09,-0.101 -0.023,-0.041 -0.034,-0.094 -0.034,-0.156 0,-0.059 0.016,-0.107 0.049,-0.144 0.033,-0.036 0.076,-0.066 0.13,-0.089 0.055,-0.024 0.116,-0.043 0.185,-0.058 0.068,-0.015 0.138,-0.031 0.209,-0.049 0.071,-0.018 0.141,-0.039 0.21,-0.063 C 0.145,-0.661 0.206,-0.694 0.261,-0.735 0.315,-0.776 0.359,-0.828 0.391,-0.89 0.424,-0.953 0.44,-1.031 0.44,-1.126 0.44,-1.228 0.419,-1.315 0.376,-1.387 0.334,-1.459 0.279,-1.518 0.212,-1.564 0.145,-1.609 0.07,-1.642 -0.012,-1.663 c -0.083,-0.02 -0.166,-0.031 -0.248,-0.031 -0.1,0 -0.195,0.014 -0.284,0.041 -0.09,0.026 -0.168,0.067 -0.236,0.122 -0.068,0.054 -0.121,0.123 -0.161,0.208 -0.039,0.085 -0.058,0.186 -0.058,0.301 h 0.225 c 0,-0.08 0.015,-0.149 0.044,-0.207 0.029,-0.058 0.068,-0.106 0.115,-0.143 0.048,-0.038 0.104,-0.065 0.167,-0.083 0.064,-0.018 0.129,-0.027 0.196,-0.027 0.053,0 0.107,0.005 0.162,0.016 0.054,0.011 0.103,0.029 0.146,0.055 0.044,0.026 0.079,0.061 0.106,0.106 0.026,0.044 0.04,0.101 0.04,0.171 0,0.066 -0.016,0.12 -0.049,0.161 -0.033,0.041 -0.076,0.074 -0.13,0.1 -0.055,0.026 -0.116,0.047 -0.185,0.063 -0.068,0.016 -0.138,0.033 -0.209,0.05 -0.071,0.017 -0.141,0.036 -0.21,0.058 -0.068,0.023 -0.13,0.052 -0.184,0.089 -0.054,0.036 -0.098,0.084 -0.13,0.142 -0.033,0.058 -0.049,0.131 -0.049,0.218 0,0.096 0.018,0.18 0.055,0.25 0.037,0.071 0.085,0.129 0.147,0.174 0.061,0.046 0.13,0.08 0.208,0.102 0.078,0.022 0.157,0.033 0.239,0.033 0.092,0 0.178,-0.011 0.256,-0.034 C 0.04,0.249 0.109,0.212 0.168,0.162 0.227,0.112 0.274,0.049 0.309,-0.027 0.343,-0.103 0.362,-0.193 0.365,-0.299 H 0.139 C 0.126,-0.161 0.079,-0.062 0,0" /></g><g
           transform="translate(134.0321,73.0388)"
           id="g176"><path
             id="path178"
             style="fill:#ffffff;fill-opacity:1;fill-rule:nonzero;stroke:none"
             d="M 0,0 C 0.135,-0.002 0.235,0.028 0.297,0.088 0.36,0.149 0.391,0.237 0.391,0.351 0.391,0.465 0.36,0.552 0.297,0.612 0.235,0.672 0.135,0.702 0,0.702 H -0.466 V 0 Z m 0.08,0.916 c 0.181,0 0.318,-0.05 0.41,-0.149 C 0.583,0.668 0.63,0.529 0.63,0.351 0.63,0.172 0.583,0.033 0.49,-0.067 0.398,-0.167 0.261,-0.216 0.08,-0.214 h -0.546 v -0.782 h -0.239 v 1.912 z" /></g><g
           transform="translate(136.1892,73.9545)"
           id="g180"><path
             id="path182"
             style="fill:#ffffff;fill-opacity:1;fill-rule:nonzero;stroke:none"
             d="m 0,0 v -0.214 h -0.998 v -0.608 h 0.93 v -0.214 h -0.93 V -1.697 H 0.008 V -1.912 H -1.237 V 0 Z" /></g><g
           transform="translate(137.5674,73.6841)"
           id="g184"><path
             id="path186"
             style="fill:#ffffff;fill-opacity:1;fill-rule:nonzero;stroke:none"
             d="m 0,0 c -0.091,0.068 -0.2,0.102 -0.325,0.102 -0.107,0 -0.198,-0.022 -0.274,-0.065 -0.077,-0.042 -0.139,-0.1 -0.189,-0.172 -0.049,-0.072 -0.085,-0.155 -0.109,-0.248 -0.023,-0.093 -0.035,-0.189 -0.035,-0.289 0,-0.109 0.012,-0.212 0.035,-0.309 0.024,-0.098 0.06,-0.182 0.109,-0.255 0.05,-0.072 0.113,-0.129 0.19,-0.172 0.077,-0.043 0.169,-0.065 0.276,-0.065 0.078,0 0.148,0.014 0.209,0.042 0.061,0.028 0.114,0.066 0.158,0.115 0.044,0.049 0.079,0.107 0.104,0.175 0.025,0.068 0.04,0.141 0.045,0.22 H 0.433 C 0.409,-1.162 0.331,-1.349 0.199,-1.483 0.067,-1.617 -0.113,-1.684 -0.342,-1.684 c -0.139,0 -0.26,0.025 -0.364,0.076 -0.104,0.051 -0.19,0.121 -0.258,0.21 -0.069,0.09 -0.12,0.195 -0.155,0.316 -0.034,0.122 -0.051,0.252 -0.051,0.391 0,0.14 0.018,0.27 0.055,0.392 0.037,0.123 0.091,0.229 0.162,0.32 0.071,0.091 0.16,0.163 0.266,0.216 0.106,0.053 0.227,0.079 0.365,0.079 0.093,0 0.182,-0.013 0.266,-0.04 C 0.027,0.249 0.102,0.21 0.167,0.158 0.232,0.106 0.286,0.042 0.33,-0.036 0.373,-0.114 0.402,-0.203 0.415,-0.305 H 0.177 C 0.15,-0.17 0.091,-0.068 0,0" /></g><g
           transform="translate(109.1635,68.8328)"
           id="g188"><path
             id="path190"
             style="fill:#ffffff;fill-opacity:1;fill-rule:nonzero;stroke:none"
             d="M 0,0 -0.308,0.892 H -0.314 L -0.627,0 Z M -0.171,1.122 0.552,-0.79 H 0.28 L 0.078,-0.214 H -0.705 L -0.912,-0.79 h -0.252 l 0.721,1.912 z" /></g><g
           transform="translate(110.5524,68.257)"
           id="g192"><path
             id="path194"
             style="fill:#ffffff;fill-opacity:1;fill-rule:nonzero;stroke:none"
             d="M 0,0 C 0.028,0 0.062,0.002 0.104,0.007 0.145,0.011 0.189,0.022 0.236,0.039 0.282,0.056 0.329,0.08 0.374,0.112 0.42,0.145 0.461,0.188 0.497,0.244 0.534,0.299 0.564,0.368 0.587,0.451 0.61,0.534 0.622,0.635 0.622,0.753 0.622,0.867 0.611,0.969 0.589,1.059 0.568,1.149 0.533,1.226 0.483,1.289 0.434,1.353 0.371,1.401 0.293,1.434 0.215,1.467 0.119,1.483 0.005,1.483 H -0.409 V 0 Z M -0.021,1.697 C 0.264,1.697 0.484,1.623 0.637,1.473 0.791,1.323 0.868,1.094 0.868,0.787 0.868,0.626 0.851,0.484 0.816,0.36 0.782,0.236 0.728,0.132 0.656,0.047 0.583,-0.038 0.491,-0.102 0.378,-0.147 0.266,-0.192 0.133,-0.214 -0.021,-0.214 h -0.635 v 1.911 z" /></g><g
           transform="translate(112.1692,68.0429)"
           id="g196"><path
             id="path198"
             style="fill:#ffffff;fill-opacity:1;fill-rule:nonzero;stroke:none"
             d="m 0,0 -0.65,1.912 h 0.264 L 0.143,0.254 H 0.148 L 0.682,1.912 H 0.938 L 0.28,0 Z" /></g><g
           transform="translate(114.1308,68.8328)"
           id="g200"><path
             id="path202"
             style="fill:#ffffff;fill-opacity:1;fill-rule:nonzero;stroke:none"
             d="M 0,0 -0.308,0.892 H -0.314 L -0.627,0 Z M -0.171,1.122 0.552,-0.79 H 0.28 L 0.078,-0.214 H -0.705 L -0.912,-0.79 h -0.251 l 0.72,1.912 z" /></g><g
           transform="translate(115.1231,69.9545)"
           id="g204"><path
             id="path206"
             style="fill:#ffffff;fill-opacity:1;fill-rule:nonzero;stroke:none"
             d="M 0,0 0.974,-1.55 H 0.98 V 0 h 0.233 v -1.912 h -0.27 l -0.966,1.535 H -0.028 V -1.912 H -0.262 V 0 Z" /></g><g
           transform="translate(117.853,69.6841)"
           id="g208"><path
             id="path210"
             style="fill:#ffffff;fill-opacity:1;fill-rule:nonzero;stroke:none"
             d="m 0,0 c -0.094,0.068 -0.206,0.102 -0.336,0.102 -0.11,0 -0.205,-0.022 -0.283,-0.065 -0.079,-0.042 -0.144,-0.1 -0.195,-0.172 -0.051,-0.072 -0.088,-0.155 -0.112,-0.248 -0.025,-0.093 -0.037,-0.189 -0.037,-0.289 0,-0.109 0.012,-0.212 0.037,-0.309 0.024,-0.098 0.061,-0.182 0.112,-0.255 0.051,-0.072 0.116,-0.129 0.196,-0.172 0.079,-0.043 0.174,-0.065 0.285,-0.065 0.081,0 0.153,0.014 0.216,0.042 0.063,0.028 0.118,0.066 0.164,0.115 0.045,0.049 0.081,0.107 0.107,0.175 0.026,0.068 0.042,0.141 0.047,0.22 H 0.447 C 0.423,-1.162 0.342,-1.349 0.206,-1.483 c -0.137,-0.134 -0.323,-0.201 -0.56,-0.201 -0.143,0 -0.268,0.025 -0.376,0.076 -0.107,0.051 -0.196,0.121 -0.266,0.21 -0.071,0.09 -0.124,0.195 -0.16,0.316 -0.035,0.122 -0.053,0.252 -0.053,0.391 0,0.14 0.019,0.27 0.057,0.392 0.038,0.123 0.094,0.229 0.167,0.32 0.074,0.091 0.165,0.163 0.275,0.216 0.11,0.053 0.235,0.079 0.377,0.079 0.097,0 0.188,-0.013 0.275,-0.04 C 0.028,0.249 0.105,0.21 0.172,0.158 0.24,0.106 0.296,0.042 0.341,-0.036 0.386,-0.114 0.415,-0.203 0.429,-0.305 H 0.183 C 0.155,-0.17 0.094,-0.068 0,0" /></g><g
           transform="translate(119.8831,69.9545)"
           id="g212"><path
             id="path214"
             style="fill:#ffffff;fill-opacity:1;fill-rule:nonzero;stroke:none"
             d="M 0,0 V -0.214 H -1.031 V -0.822 H -0.07 V -1.036 H -1.031 V -1.697 H 0.008 V -1.912 H -1.278 V 0 Z" /></g><g
           transform="translate(120.8445,68.257)"
           id="g216"><path
             id="path218"
             style="fill:#ffffff;fill-opacity:1;fill-rule:nonzero;stroke:none"
             d="M 0,0 C 0.028,0 0.062,0.002 0.104,0.007 0.145,0.011 0.189,0.022 0.236,0.039 0.282,0.056 0.329,0.08 0.374,0.112 0.42,0.145 0.461,0.188 0.497,0.244 0.534,0.299 0.564,0.368 0.587,0.451 0.61,0.534 0.622,0.635 0.622,0.753 0.622,0.867 0.611,0.969 0.589,1.059 0.568,1.149 0.533,1.226 0.483,1.289 0.434,1.353 0.371,1.401 0.293,1.434 0.215,1.467 0.119,1.483 0.005,1.483 H -0.409 V 0 Z M -0.021,1.697 C 0.264,1.697 0.484,1.623 0.637,1.473 0.791,1.323 0.868,1.094 0.868,0.787 0.868,0.626 0.851,0.484 0.816,0.36 0.782,0.236 0.728,0.132 0.656,0.047 0.583,-0.038 0.491,-0.102 0.378,-0.147 0.266,-0.192 0.133,-0.214 -0.021,-0.214 h -0.635 v 1.911 z" /></g><g
           transform="translate(124.0109,69.9545)"
           id="g220"><path
             id="path222"
             style="fill:#ffffff;fill-opacity:1;fill-rule:nonzero;stroke:none"
             d="M 0,0 V -0.214 H -1.031 V -0.822 H -0.07 V -1.036 H -1.031 V -1.697 H 0.008 V -1.912 H -1.278 V 0 Z" /></g><g
           transform="translate(124.6587,69.9545)"
           id="g224"><path
             id="path226"
             style="fill:#ffffff;fill-opacity:1;fill-rule:nonzero;stroke:none"
             d="M 0,0 0.583,-1.606 1.169,0 H 1.506 V -1.912 H 1.272 v 1.591 H 1.267 L 0.689,-1.912 h -0.21 l -0.577,1.591 H -0.104 V -1.912 H -0.337 V 0 Z" /></g><g
           transform="translate(127.8614,68.1836)"
           id="g228"><path
             id="path230"
             style="fill:#ffffff;fill-opacity:1;fill-rule:nonzero;stroke:none"
             d="m 0,0 c -0.126,-0.122 -0.306,-0.184 -0.539,-0.184 -0.238,0 -0.424,0.059 -0.558,0.176 -0.134,0.117 -0.201,0.303 -0.201,0.558 v 1.221 h 0.246 V 0.55 c 0,-0.171 0.044,-0.301 0.132,-0.389 0.088,-0.089 0.215,-0.133 0.381,-0.133 0.157,0 0.277,0.044 0.359,0.133 0.082,0.088 0.123,0.218 0.123,0.389 V 1.771 H 0.189 V 0.55 C 0.189,0.306 0.126,0.122 0,0" /></g><g
           transform="translate(128.6905,69.9545)"
           id="g232"><path
             id="path234"
             style="fill:#ffffff;fill-opacity:1;fill-rule:nonzero;stroke:none"
             d="M 0,0 V -1.697 H 0.979 V -1.912 H -0.246 V 0 Z" /></g><g
           transform="translate(130.8309,68.8328)"
           id="g236"><path
             id="path238"
             style="fill:#ffffff;fill-opacity:1;fill-rule:nonzero;stroke:none"
             d="M 0,0 -0.308,0.892 H -0.314 L -0.627,0 Z M -0.171,1.122 0.552,-0.79 H 0.28 L 0.078,-0.214 H -0.705 L -0.912,-0.79 h -0.252 l 0.721,1.912 z" /></g><g
           transform="translate(131.1289,69.7404)"
           id="g240"><path
             id="path242"
             style="fill:#ffffff;fill-opacity:1;fill-rule:nonzero;stroke:none"
             d="M 0,0 V 0.214 H 1.48 V 0 H 0.863 V -1.697 H 0.617 V 0 Z" /></g><path
           id="path244"
           style="fill:#ffffff;fill-opacity:1;fill-rule:nonzero;stroke:none"
           d="m 133.07,68.043 h -0.246 v 1.912 h 0.246 z" /><g
           transform="translate(133.663,68.7136)"
           id="g246"><path
             id="path248"
             style="fill:#ffffff;fill-opacity:1;fill-rule:nonzero;stroke:none"
             d="m 0,0 c 0.024,-0.094 0.062,-0.178 0.114,-0.253 0.052,-0.075 0.118,-0.135 0.2,-0.181 0.081,-0.045 0.177,-0.068 0.29,-0.068 0.112,0 0.209,0.023 0.29,0.068 0.081,0.046 0.148,0.106 0.199,0.181 C 1.145,-0.178 1.183,-0.094 1.207,0 1.232,0.094 1.244,0.189 1.244,0.285 1.244,0.381 1.232,0.477 1.207,0.57 1.183,0.664 1.145,0.748 1.093,0.823 1.042,0.898 0.975,0.959 0.894,1.004 0.813,1.05 0.716,1.072 0.604,1.072 0.491,1.072 0.395,1.05 0.314,1.004 0.232,0.959 0.166,0.898 0.114,0.823 0.062,0.748 0.024,0.664 0,0.57 -0.024,0.477 -0.036,0.381 -0.036,0.285 -0.036,0.189 -0.024,0.094 0,0 m -0.227,0.661 c 0.037,0.121 0.093,0.227 0.167,0.32 0.075,0.093 0.167,0.167 0.278,0.223 0.11,0.055 0.239,0.082 0.386,0.082 0.147,0 0.275,-0.027 0.386,-0.082 C 1.1,1.148 1.193,1.074 1.267,0.981 1.341,0.888 1.397,0.782 1.434,0.661 1.471,0.541 1.49,0.415 1.49,0.285 1.49,0.155 1.471,0.03 1.434,-0.091 1.397,-0.212 1.341,-0.318 1.267,-0.411 1.193,-0.504 1.1,-0.577 0.99,-0.632 0.879,-0.686 0.751,-0.714 0.604,-0.714 c -0.147,0 -0.276,0.028 -0.386,0.082 -0.111,0.055 -0.203,0.128 -0.278,0.221 -0.074,0.093 -0.13,0.199 -0.167,0.32 -0.037,0.121 -0.056,0.246 -0.056,0.376 0,0.13 0.019,0.256 0.056,0.376" /></g><g
           transform="translate(135.7126,69.9545)"
           id="g250"><path
             id="path252"
             style="fill:#ffffff;fill-opacity:1;fill-rule:nonzero;stroke:none"
             d="M 0,0 0.974,-1.55 H 0.98 V 0 h 0.233 v -1.912 h -0.27 l -0.966,1.535 H -0.028 V -1.912 H -0.262 V 0 Z" /></g><g
           transform="translate(138.9709,69.6936)"
           id="g254"><path
             id="path256"
             style="fill:#ffffff;fill-opacity:1;fill-rule:nonzero;stroke:none"
             d="m 0,0 c -0.082,0.061 -0.187,0.092 -0.315,0.092 -0.052,0 -0.103,-0.005 -0.153,-0.016 -0.05,-0.01 -0.094,-0.028 -0.133,-0.053 -0.039,-0.025 -0.07,-0.059 -0.093,-0.101 -0.024,-0.041 -0.035,-0.094 -0.035,-0.156 0,-0.059 0.016,-0.107 0.05,-0.144 0.034,-0.036 0.079,-0.066 0.135,-0.089 0.056,-0.024 0.12,-0.043 0.19,-0.058 0.071,-0.015 0.143,-0.031 0.217,-0.049 0.073,-0.018 0.145,-0.039 0.216,-0.063 C 0.15,-0.661 0.213,-0.694 0.27,-0.735 0.326,-0.776 0.371,-0.828 0.404,-0.89 0.438,-0.953 0.455,-1.031 0.455,-1.126 0.455,-1.228 0.433,-1.315 0.389,-1.387 0.345,-1.459 0.288,-1.518 0.219,-1.564 0.15,-1.609 0.072,-1.642 -0.013,-1.663 c -0.085,-0.02 -0.171,-0.031 -0.255,-0.031 -0.104,0 -0.202,0.014 -0.294,0.041 -0.093,0.026 -0.174,0.067 -0.244,0.122 -0.07,0.054 -0.125,0.123 -0.166,0.208 -0.04,0.085 -0.061,0.186 -0.061,0.301 h 0.234 c 0,-0.08 0.015,-0.149 0.045,-0.207 0.03,-0.058 0.07,-0.106 0.119,-0.143 0.049,-0.038 0.107,-0.065 0.172,-0.083 0.066,-0.018 0.134,-0.027 0.203,-0.027 0.055,0 0.111,0.005 0.167,0.016 0.056,0.011 0.106,0.029 0.151,0.055 0.045,0.026 0.081,0.061 0.109,0.106 0.028,0.044 0.042,0.101 0.042,0.171 0,0.066 -0.017,0.12 -0.051,0.161 -0.034,0.041 -0.079,0.074 -0.135,0.1 -0.056,0.026 -0.119,0.047 -0.19,0.063 -0.071,0.016 -0.143,0.033 -0.216,0.05 -0.074,0.017 -0.146,0.036 -0.217,0.058 -0.071,0.023 -0.134,0.052 -0.19,0.089 -0.056,0.036 -0.101,0.084 -0.135,0.142 -0.034,0.058 -0.051,0.131 -0.051,0.218 0,0.096 0.019,0.18 0.057,0.25 0.038,0.071 0.089,0.129 0.152,0.174 0.063,0.046 0.135,0.08 0.215,0.102 0.08,0.022 0.163,0.033 0.248,0.033 0.094,0 0.183,-0.011 0.264,-0.034 C 0.041,0.249 0.112,0.212 0.174,0.162 0.235,0.112 0.283,0.049 0.319,-0.027 0.354,-0.103 0.374,-0.193 0.377,-0.299 H 0.144 C 0.13,-0.161 0.082,-0.062 0,0" /></g><g
           transform="translate(140.4881,68.0429)"
           id="g258"><path
             id="path260"
             style="fill:#ffffff;fill-opacity:1;fill-rule:nonzero;stroke:none"
             d="m 0,0 h -0.246 v 0.782 l -0.715,1.13 h 0.292 L -0.114,1.001 0.428,1.912 H 0.707 L 0,0.782 Z" /></g><g
           transform="translate(142.3291,69.6936)"
           id="g262"><path
             id="path264"
             style="fill:#ffffff;fill-opacity:1;fill-rule:nonzero;stroke:none"
             d="m 0,0 c -0.082,0.061 -0.187,0.092 -0.315,0.092 -0.052,0 -0.103,-0.005 -0.153,-0.016 -0.05,-0.01 -0.094,-0.028 -0.133,-0.053 -0.039,-0.025 -0.07,-0.059 -0.093,-0.101 -0.024,-0.041 -0.035,-0.094 -0.035,-0.156 0,-0.059 0.016,-0.107 0.05,-0.144 0.034,-0.036 0.079,-0.066 0.135,-0.089 0.056,-0.024 0.12,-0.043 0.19,-0.058 0.071,-0.015 0.143,-0.031 0.217,-0.049 0.073,-0.018 0.145,-0.039 0.216,-0.063 C 0.15,-0.661 0.213,-0.694 0.27,-0.735 0.326,-0.776 0.371,-0.828 0.404,-0.89 0.438,-0.953 0.455,-1.031 0.455,-1.126 0.455,-1.228 0.433,-1.315 0.389,-1.387 0.345,-1.459 0.288,-1.518 0.219,-1.564 0.15,-1.609 0.072,-1.642 -0.013,-1.663 c -0.085,-0.02 -0.171,-0.031 -0.255,-0.031 -0.104,0 -0.202,0.014 -0.294,0.041 -0.093,0.026 -0.174,0.067 -0.244,0.122 -0.07,0.054 -0.125,0.123 -0.166,0.208 -0.04,0.085 -0.061,0.186 -0.061,0.301 h 0.234 c 0,-0.08 0.015,-0.149 0.045,-0.207 0.03,-0.058 0.07,-0.106 0.119,-0.143 0.049,-0.038 0.107,-0.065 0.172,-0.083 0.066,-0.018 0.134,-0.027 0.203,-0.027 0.055,0 0.111,0.005 0.167,0.016 0.056,0.011 0.106,0.029 0.151,0.055 0.045,0.026 0.081,0.061 0.109,0.106 0.028,0.044 0.042,0.101 0.042,0.171 0,0.066 -0.017,0.12 -0.051,0.161 -0.034,0.041 -0.079,0.074 -0.135,0.1 -0.056,0.026 -0.119,0.047 -0.19,0.063 -0.071,0.016 -0.143,0.033 -0.216,0.05 -0.074,0.017 -0.146,0.036 -0.217,0.058 -0.071,0.023 -0.134,0.052 -0.19,0.089 -0.056,0.036 -0.101,0.084 -0.135,0.142 -0.034,0.058 -0.051,0.131 -0.051,0.218 0,0.096 0.019,0.18 0.057,0.25 0.038,0.071 0.089,0.129 0.152,0.174 0.063,0.046 0.135,0.08 0.215,0.102 0.08,0.022 0.163,0.033 0.248,0.033 0.094,0 0.183,-0.011 0.264,-0.034 C 0.041,0.249 0.112,0.212 0.174,0.162 0.235,0.112 0.283,0.049 0.319,-0.027 0.354,-0.103 0.374,-0.193 0.377,-0.299 H 0.144 C 0.13,-0.161 0.082,-0.062 0,0" /></g><g
           transform="translate(142.8849,69.7404)"
           id="g266"><path
             id="path268"
             style="fill:#ffffff;fill-opacity:1;fill-rule:nonzero;stroke:none"
             d="M 0,0 V 0.214 H 1.48 V 0 H 0.863 V -1.697 H 0.617 V 0 Z" /></g><g
           transform="translate(145.8467,69.9545)"
           id="g270"><path
             id="path272"
             style="fill:#ffffff;fill-opacity:1;fill-rule:nonzero;stroke:none"
             d="M 0,0 V -0.214 H -1.031 V -0.822 H -0.07 V -1.036 H -1.031 V -1.697 H 0.008 V -1.912 H -1.278 V 0 Z" /></g><g
           transform="translate(146.4945,69.9545)"
           id="g274"><path
             id="path276"
             style="fill:#ffffff;fill-opacity:1;fill-rule:nonzero;stroke:none"
             d="M 0,0 0.583,-1.606 1.169,0 H 1.506 V -1.912 H 1.272 v 1.591 H 1.267 L 0.689,-1.912 h -0.21 l -0.577,1.591 H -0.104 V -1.912 H -0.337 V 0 Z" /></g></g></g></g></svg>