<?xml version="1.0" encoding="UTF-8" standalone="no"?>
<svg
   xmlns:dc="http://purl.org/dc/elements/1.1/"
   xmlns:cc="http://creativecommons.org/ns#"
   xmlns:rdf="http://www.w3.org/1999/02/22-rdf-syntax-ns#"
   xmlns:svg="http://www.w3.org/2000/svg"
   xmlns="http://www.w3.org/2000/svg"
   viewBox="0 0 330.66665 250.66665"
   height="250.66666"
   width="330.66666"
   xml:space="preserve"
   id="svg2"
   version="1.1"><metadata
     id="metadata8"><rdf:RDF><cc:Work
         rdf:about=""><dc:format>image/svg+xml</dc:format><dc:type
           rdf:resource="http://purl.org/dc/dcmitype/StillImage" /></cc:Work></rdf:RDF></metadata><defs
     id="defs6"><clipPath
       id="clipPath18"
       clipPathUnits="userSpaceOnUse"><path
         id="path16"
         d="M 0,256 H 256 V 0 H 0 Z" /></clipPath><clipPath
       id="clipPath26"
       clipPathUnits="userSpaceOnUse"><path
         id="path24"
         d="M 4,220 H 252 V 32 H 4 Z" /></clipPath><clipPath
       id="clipPath156"
       clipPathUnits="userSpaceOnUse"><path
         id="path154"
         d="m 213.05,136.166 h 0.048 v -0.03 h -0.048 z" /></clipPath><clipPath
       id="clipPath172"
       clipPathUnits="userSpaceOnUse"><path
         id="path170"
         d="m 211.676,135.948 h 0.054 v -0.034 h -0.054 z" /></clipPath><clipPath
       id="clipPath500"
       clipPathUnits="userSpaceOnUse"><path
         id="path498"
         d="m 209.048,138.356 h 0.04 v -0.025 h -0.04 z" /></clipPath><clipPath
       id="clipPath516"
       clipPathUnits="userSpaceOnUse"><path
         id="path514"
         d="m 207.919,138.176 h 0.045 v -0.028 h -0.045 z" /></clipPath></defs><g
     transform="matrix(1.3333333,0,0,-1.3333333,-5.3333332,293.33333)"
     id="g10"><g
       id="g12"><g
         clip-path="url(#clipPath18)"
         id="g14"><g
           id="g20"><g
             id="g22" /><g
             id="g34"><g
               style="opacity:0.5"
               id="g32"
               clip-path="url(#clipPath26)"><g
                 id="g30"
                 transform="translate(242,220)"><path
                   id="path28"
                   style="fill:#ffffff;fill-opacity:1;fill-rule:nonzero;stroke:none"
                   d="m 0,0 h -40 -2 -144 -2 -40 c -5.514,0 -10,-4.486 -10,-10 v -6 -8 -8 -8 -8 -8 -122 c 0,-5.514 4.486,-10 10,-10 h 40 2 144 2 40 c 5.514,0 10,4.486 10,10 v 122 8 8 8 8 8 6 C 10,-4.486 5.514,0 0,0" /></g></g></g></g><g
           transform="translate(12,210)"
           id="g36"><path
             id="path38"
             style="fill:#999999;fill-opacity:1;fill-rule:nonzero;stroke:none"
             d="m 0,0 v -10 c 1.105,0 2,-0.895 2,-2 0,-1.105 -0.895,-2 -2,-2 v -4 c 1.105,0 2,-0.895 2,-2 0,-1.105 -0.895,-2 -2,-2 v -4 c 1.105,0 2,-0.895 2,-2 0,-1.105 -0.895,-2 -2,-2 v -4 c 1.105,0 2,-0.895 2,-2 0,-1.105 -0.895,-2 -2,-2 v -4 c 1.105,0 2,-0.895 2,-2 0,-1.105 -0.895,-2 -2,-2 v -120 c 0,-2.209 1.791,-4 4,-4 h 224 c 2.209,0 4,1.791 4,4 v 120 c -1.105,0 -2,0.895 -2,2 0,1.105 0.895,2 2,2 v 4 c -1.105,0 -2,0.895 -2,2 0,1.105 0.895,2 2,2 v 4 c -1.105,0 -2,0.895 -2,2 0,1.105 0.895,2 2,2 v 4 c -1.105,0 -2,0.895 -2,2 0,1.105 0.895,2 2,2 v 4 c -1.105,0 -2,0.895 -2,2 0,1.105 0.895,2 2,2 V 0 c 0,1.105 -0.895,2 -2,2 H 2 C 0.895,2 0,1.105 0,0" /></g><path
           id="path40"
           style="fill:#808080;fill-opacity:1;fill-rule:nonzero;stroke:none"
           d="m 56,40 h -2 v 172 h 2 z" /><path
           id="path42"
           style="fill:#808080;fill-opacity:1;fill-rule:nonzero;stroke:none"
           d="m 202,40 h -2 v 172 h 2 z" /><g
           transform="translate(209.7776,202)"
           id="g44"><path
             id="path46"
             style="fill:#d9d9d9;fill-opacity:1;fill-rule:nonzero;stroke:none"
             d="m 0,0 h -163.555 c -7.099,0 -10.223,-2.926 -10.223,-9.578 v -52.844 c 0,-6.652 3.123,-9.578 10.223,-9.578 H 0 c 7.099,0 10.222,2.926 10.222,9.578 V -9.578 C 10.222,-2.926 7.1,0 0,0" /></g><g
           transform="translate(190,92)"
           id="g48"><path
             id="path50"
             style="fill:#737373;fill-opacity:1;fill-rule:nonzero;stroke:none"
             d="m 0,0 h -124 c -3.3,0 -6,2.7 -6,6 v 0 c 0,3.3 2.7,6 6,6 H 0 C 3.3,12 6,9.3 6,6 V 6 C 6,2.7 3.3,0 0,0" /></g><path
           id="path52"
           style="fill:#666666;fill-opacity:1;fill-rule:nonzero;stroke:none"
           d="m 152,92 h -48 v 12 h 48 z" /><g
           transform="translate(206.6695,135.6312)"
           id="g54"><path
             id="path56"
             style="fill:#191919;fill-opacity:1;fill-rule:nonzero;stroke:none"
             d="m 0,0 c -0.078,-0.046 -0.172,-0.051 -0.259,-0.035 0.059,-0.145 0.084,-0.301 0.121,-0.452 0.044,-0.149 0.096,-0.329 0.255,-0.391 0.104,-0.048 0.223,-0.001 0.301,0.074 0.122,0.118 0.197,0.274 0.27,0.425 0.024,0.054 0.049,0.107 0.074,0.161 C 0.65,-0.219 0.541,-0.184 0.445,-0.128 0.351,-0.07 0.33,0.069 0.214,0.097 0.131,0.098 0.069,0.036 0,0 M 6.028,1.052 C 5.724,0.985 5.414,0.885 5.098,0.934 5.126,0.726 5.094,0.513 5.018,0.317 4.979,0.294 5.051,0.263 5.061,0.299 L 5.085,0.285 C 5.111,0.212 5.193,0.185 5.263,0.177 5.445,0.16 5.626,0.199 5.798,0.253 5.757,0.292 5.702,0.329 5.693,0.39 5.699,0.416 5.712,0.439 5.723,0.463 5.848,0.458 5.972,0.438 6.096,0.424 6.265,0.55 6.372,0.766 6.356,0.978 6.354,1.035 6.315,1.092 6.256,1.1 6.178,1.111 6.099,1.082 6.028,1.052 M 6.991,1.392 6.986,1.384 C 6.827,1.336 6.675,1.268 6.517,1.215 6.553,0.984 6.506,0.74 6.394,0.535 6.345,0.504 6.446,0.487 6.426,0.535 6.437,0.535 6.46,0.536 6.471,0.536 6.473,0.494 6.523,0.484 6.558,0.486 6.693,0.497 6.821,0.553 6.939,0.618 6.9,0.649 6.855,0.677 6.83,0.721 6.813,0.753 6.835,0.786 6.842,0.816 6.939,0.813 7.036,0.803 7.131,0.787 7.23,0.904 7.304,1.059 7.274,1.216 7.258,1.292 7.232,1.377 7.162,1.42 7.105,1.451 7.044,1.411 6.991,1.392 M 7.876,1.777 C 7.72,1.706 7.565,1.634 7.409,1.564 7.47,1.313 7.418,1.045 7.288,0.823 7.321,0.843 7.367,0.851 7.392,0.88 7.445,0.846 7.511,0.85 7.569,0.866 7.684,0.897 7.794,0.948 7.893,1.014 7.836,1.056 7.763,1.125 7.826,1.196 7.899,1.188 7.971,1.182 8.043,1.171 8.133,1.293 8.222,1.445 8.186,1.602 8.144,1.701 8.063,1.787 7.957,1.818 7.93,1.804 7.903,1.79 7.876,1.777 M 2.951,2.116 C 2.814,2.096 2.676,2.06 2.554,1.992 2.412,1.89 2.304,1.723 2.311,1.543 2.318,1.369 2.415,1.215 2.526,1.087 2.732,0.862 3.003,0.684 3.307,0.631 3.537,0.596 3.783,0.602 3.994,0.708 4.189,0.803 4.37,0.963 4.423,1.18 4.473,1.373 4.457,1.607 4.303,1.75 4.118,1.922 3.88,2.031 3.634,2.08 3.41,2.128 3.179,2.148 2.951,2.116 M 8.678,2.209 C 8.546,2.129 8.411,2.054 8.275,1.981 8.338,1.736 8.293,1.475 8.193,1.247 8.234,1.274 8.273,1.304 8.309,1.337 8.374,1.269 8.468,1.327 8.533,1.364 8.834,1.55 8.91,1.967 8.802,2.284 8.761,2.258 8.72,2.233 8.678,2.209 m -11.049,0.3 C -2.531,2.417 -2.671,2.27 -2.708,2.084 -2.75,1.863 -2.663,1.625 -2.5,1.471 -2.397,1.37 -2.26,1.311 -2.119,1.284 l 0.001,-0.003 c 0.086,-0.006 0.174,-0.034 0.259,-0.011 0.295,0.009 0.584,0.119 0.819,0.295 0.176,0.134 0.33,0.332 0.331,0.563 C -0.702,2.242 -0.77,2.342 -0.843,2.423 -1,2.586 -1.227,2.66 -1.447,2.686 -1.762,2.719 -2.094,2.67 -2.371,2.509 M 9.287,2.64 C 9.222,2.586 9.157,2.532 9.089,2.484 9.179,2.325 9.143,2.135 9.117,1.965 9.143,1.995 9.169,2.026 9.195,2.057 9.197,2.041 9.202,2.008 9.204,1.991 9.25,2.007 9.296,2.034 9.315,2.081 9.37,2.203 9.397,2.337 9.394,2.471 9.396,2.554 9.366,2.634 9.375,2.716 9.345,2.691 9.315,2.666 9.287,2.64 M 0.237,3.27 C 0.244,3.199 0.246,3.128 0.246,3.057 0.235,3 0.206,2.951 0.166,2.911 0.157,2.957 0.143,3.002 0.127,3.045 0.101,3.112 0.077,3.18 0.052,3.247 -0.456,3.181 -0.955,3.036 -1.419,2.817 -1.427,2.827 -1.442,2.847 -1.45,2.857 -1.485,2.837 -1.52,2.817 -1.555,2.797 -1.417,2.794 -1.281,2.774 -1.147,2.74 -1.036,2.707 -0.926,2.663 -0.828,2.601 l 0.003,10e-4 C -0.769,2.56 -0.716,2.515 -0.668,2.465 -0.542,2.316 -0.522,2.101 -0.596,1.924 -0.731,1.592 -1.011,1.32 -1.348,1.196 -1.482,1.149 -1.621,1.121 -1.762,1.115 -1.922,1.109 -2.081,1.132 -2.233,1.181 -2.342,1.221 -2.445,1.278 -2.537,1.349 -2.523,1.193 -2.48,1.04 -2.41,0.9 -2.473,0.87 -2.557,0.797 -2.501,0.723 c 0.075,-0.079 0.19,-0.1 0.293,-0.12 0.275,-0.339 0.642,-0.588 1.028,-0.783 0.317,-0.161 0.65,-0.288 0.994,-0.375 -0.029,0.091 -0.051,0.185 -0.07,0.28 -0.016,0.084 -0.025,0.17 -0.048,0.253 -0.077,0.06 -0.136,0.14 -0.153,0.237 -0.003,0.066 0.006,0.133 0.04,0.19 C -0.425,0.333 -0.432,0.26 -0.414,0.189 -0.37,0.092 -0.277,0.019 -0.17,0.007 -0.108,0 -0.051,0.031 0.003,0.057 0.07,0.095 0.138,0.138 0.216,0.143 0.303,0.139 0.341,0.049 0.385,-0.013 h 0.002 c 0.087,-0.098 0.217,-0.169 0.351,-0.15 0.07,0.009 0.127,0.052 0.177,0.099 0.043,0.054 0.078,0.114 0.104,0.178 0.004,0 0.011,0.001 0.014,0.002 C 1.03,-0.025 0.931,-0.144 0.807,-0.203 0.795,-0.263 0.776,-0.322 0.757,-0.38 0.709,-0.477 0.658,-0.572 0.595,-0.66 0.567,-0.681 0.606,-0.685 0.619,-0.687 c 0.208,-0.019 0.418,-0.028 0.628,-0.034 0.525,-0.016 1.056,-0.008 1.574,0.092 0.361,0.071 0.716,0.179 1.051,0.332 0.263,0.124 0.517,0.284 0.702,0.511 0.167,0.211 0.241,0.5 0.168,0.763 C 4.682,1.177 4.589,1.365 4.48,1.543 4.513,1.418 4.543,1.29 4.524,1.16 4.517,1.079 4.483,1.005 4.455,0.93 V 0.915 L 4.446,0.914 C 4.356,0.769 4.222,0.654 4.067,0.582 3.544,0.339 2.872,0.474 2.484,0.902 2.317,1.089 2.162,1.32 2.166,1.581 2.17,1.792 2.32,1.969 2.497,2.067 2.795,2.233 3.149,2.274 3.484,2.244 3.631,2.224 3.779,2.194 3.913,2.13 3.96,2.108 4.007,2.088 4.057,2.072 3.924,2.223 3.769,2.35 3.612,2.474 3.569,2.507 3.523,2.535 3.477,2.562 2.82,2.941 2.083,3.175 1.331,3.26 1.308,3.197 1.285,3.135 1.262,3.073 1.24,3.012 1.219,2.95 1.199,2.888 1.147,2.939 1.13,3.01 1.122,3.08 1.125,3.146 1.13,3.212 1.136,3.278 0.837,3.3 0.536,3.297 0.237,3.27 m -0.919,0.352 c -0.036,-0.078 0.095,-0.049 0.139,-0.045 0.151,0.005 0.3,0.029 0.45,0.044 -0.01,0.022 -0.021,0.043 -0.033,0.064 -0.008,0.024 -0.016,0.048 -0.025,0.071 -0.004,0.01 -0.014,0.03 -0.018,0.04 -0.173,-0.051 -0.35,-0.095 -0.513,-0.174 m 0.206,0.165 c 0.09,0.031 0.18,0.064 0.27,0.095 -0.01,0.022 -0.019,0.044 -0.029,0.066 C -0.316,3.896 -0.399,3.846 -0.476,3.787 M 1.613,3.983 C 1.609,3.97 1.6,3.943 1.596,3.93 H 1.593 C 1.584,3.911 1.576,3.892 1.568,3.873 1.559,3.85 1.55,3.827 1.541,3.804 1.535,3.787 1.528,3.771 1.521,3.754 1.509,3.723 1.496,3.691 1.484,3.659 2.13,3.603 2.774,3.457 3.358,3.17 4.088,2.821 4.703,2.253 5.137,1.573 5.163,1.536 5.211,1.462 5.258,1.512 5.318,1.641 5.297,1.791 5.284,1.928 5.251,2.222 5.056,2.463 4.856,2.667 4.545,2.969 4.177,3.206 3.792,3.4 3.113,3.736 2.368,3.937 1.613,3.983 M 0.065,3.861 C 0.068,3.85 0.073,3.829 0.075,3.818 L 0.08,3.819 C 0.09,3.79 0.101,3.76 0.111,3.731 0.121,3.702 0.13,3.673 0.139,3.644 c 0.362,0.032 0.726,0.044 1.089,0.029 0.012,0.04 0.025,0.08 0.037,0.12 0.013,0.041 0.026,0.081 0.04,0.121 H 1.307 C 1.316,3.942 1.325,3.97 1.335,3.997 0.908,3.997 0.482,3.955 0.065,3.861 M -0.029,4.082 C -0.02,4.062 -0.012,4.043 -0.003,4.023 0.007,3.999 0.017,3.975 0.026,3.951 0.471,4.074 0.931,4.142 1.393,4.149 1.413,4.198 1.432,4.246 1.452,4.295 1.48,4.361 1.509,4.426 1.537,4.492 1.583,4.596 1.635,4.698 1.68,4.802 1.728,4.88 1.762,4.967 1.808,5.046 1.168,4.78 0.556,4.452 -0.029,4.082 M 5.327,5.198 C 4.834,5.096 4.351,4.938 3.904,4.704 3.688,4.586 3.472,4.453 3.312,4.262 3.247,4.182 3.191,4.08 3.215,3.975 3.24,3.876 3.33,3.811 3.421,3.775 3.85,3.606 4.257,3.382 4.625,3.103 4.901,2.891 5.159,2.649 5.354,2.359 5.461,2.193 5.561,2.006 5.554,1.803 5.555,1.721 5.509,1.651 5.476,1.579 5.633,1.607 5.781,1.667 5.931,1.72 6.492,1.931 7.043,2.166 7.589,2.413 7.971,2.589 8.353,2.766 8.716,2.98 8.804,3.031 8.89,3.092 8.94,3.183 9.023,3.321 9.023,3.491 8.991,3.644 8.92,3.948 8.736,4.211 8.527,4.438 8.273,4.71 7.97,4.935 7.645,5.113 7.442,5.195 7.227,5.238 7.012,5.271 6.452,5.352 5.88,5.31 5.327,5.198 M 2.326,5.246 C 2.28,5.228 2.229,5.219 2.188,5.19 2.149,5.129 2.119,5.064 2.086,5 1.996,4.832 1.916,4.659 1.834,4.486 1.808,4.429 1.783,4.372 1.758,4.315 H 1.755 C 1.732,4.258 1.708,4.201 1.683,4.145 1.839,4.137 1.997,4.121 2.152,4.146 2.271,4.162 2.386,4.202 2.496,4.247 3.313,4.594 4.132,4.942 4.981,5.203 5.509,5.366 6.052,5.493 6.604,5.536 6.553,5.55 6.502,5.569 6.45,5.576 6.207,5.64 5.958,5.68 5.708,5.708 4.564,5.828 3.405,5.628 2.326,5.246 M -4.308,6.428 C -4.413,6.372 -4.496,6.275 -4.531,6.16 -4.559,6.084 -4.564,6 -4.548,5.92 -4.54,5.884 -4.529,5.847 -4.511,5.814 c 0.084,-0.206 0.331,-0.319 0.544,-0.27 0.193,0.036 0.355,0.203 0.38,0.399 0.023,0.152 -0.034,0.313 -0.148,0.416 -0.15,0.142 -0.393,0.169 -0.573,0.069 M 5.542,6.9 C 5.443,6.648 5.5,6.328 5.714,6.152 5.829,6.055 5.991,6.014 6.137,6.052 6.317,6.097 6.461,6.244 6.52,6.416 6.536,6.457 6.548,6.5 6.554,6.544 6.572,6.644 6.569,6.749 6.537,6.846 6.487,7.076 6.274,7.272 6.032,7.266 5.811,7.268 5.618,7.101 5.542,6.9 M 3.473,6.891 C 2.981,6.468 2.605,5.928 2.285,5.368 3.404,5.75 4.594,5.945 5.777,5.869 5.555,5.964 5.368,6.146 5.283,6.374 5.221,6.54 5.227,6.733 5.313,6.89 5.409,7.067 5.577,7.192 5.755,7.277 5.769,7.281 5.807,7.304 5.773,7.312 5.472,7.433 5.145,7.5 4.82,7.48 4.317,7.454 3.849,7.213 3.473,6.891 M 5.115,7.826 H 5.46 C 5.795,7.801 6.155,7.733 6.408,7.495 6.601,7.32 6.676,7.048 6.66,6.794 6.643,6.53 6.594,6.252 6.431,6.035 6.359,5.937 6.251,5.874 6.137,5.835 6.857,5.755 7.569,5.568 8.217,5.24 8.566,5.062 8.897,4.839 9.172,4.558 9.403,4.318 9.598,4.029 9.667,3.698 9.707,3.51 9.695,3.313 9.636,3.131 9.756,2.837 9.73,2.504 9.633,2.208 9.547,1.943 9.382,1.697 9.146,1.543 9.079,1.498 8.996,1.502 8.919,1.511 8.808,1.344 8.673,1.193 8.518,1.066 8.838,0.968 9.148,0.824 9.414,0.618 9.62,0.457 9.799,0.252 9.895,0.006 9.939,-0.107 9.961,-0.227 9.974,-0.347 V -0.491 C 9.964,-0.561 9.951,-0.636 9.904,-0.692 9.851,-0.758 9.742,-0.773 9.678,-0.714 c -0.03,0.03 -0.02,0.077 -0.021,0.115 0.016,0.147 -0.05,0.284 -0.093,0.421 C 9.474,0.091 9.313,0.342 9.077,0.504 8.85,0.68 8.562,0.735 8.3,0.839 8.198,0.886 8.082,0.873 7.979,0.917 7.892,0.818 7.793,0.729 7.685,0.653 8.038,0.53 8.381,0.36 8.662,0.109 8.905,-0.106 9.093,-0.396 9.137,-0.722 9.155,-0.873 9.173,-1.04 9.096,-1.177 9.044,-1.271 8.884,-1.3 8.822,-1.204 8.793,-1.118 8.832,-1.025 8.805,-0.938 8.734,-0.697 8.658,-0.452 8.513,-0.244 8.379,-0.049 8.189,0.102 7.979,0.21 7.822,0.283 7.655,0.332 7.491,0.39 7.399,0.421 7.307,0.47 7.206,0.458 7.142,0.452 7.083,0.477 7.027,0.503 6.928,0.413 6.816,0.341 6.701,0.273 6.771,0.235 6.849,0.215 6.921,0.184 7.248,0.048 7.562,-0.129 7.822,-0.371 8.064,-0.594 8.257,-0.882 8.323,-1.207 8.357,-1.387 8.38,-1.579 8.32,-1.756 8.296,-1.833 8.232,-1.894 8.152,-1.913 H 8.082 C 8.038,-1.899 7.984,-1.881 7.973,-1.83 7.951,-1.736 7.99,-1.638 7.96,-1.544 7.873,-1.246 7.776,-0.94 7.583,-0.69 7.427,-0.486 7.215,-0.328 6.985,-0.215 6.665,-0.083 6.329,0.007 6.012,0.145 5.736,-0.027 5.401,-0.048 5.084,-0.045 5.001,-0.047 4.918,-0.029 4.84,-0.001 4.618,-0.264 4.324,-0.458 4.015,-0.603 3.723,-0.736 3.417,-0.836 3.106,-0.912 2.617,-1.028 2.112,-1.063 1.61,-1.065 c -0.513,0.011 -1.028,0.022 -1.534,0.113 -0.609,0.103 -1.192,0.334 -1.724,0.645 -0.042,-0.14 -0.073,-0.282 -0.103,-0.425 -0.021,-0.096 0.006,-0.195 -0.011,-0.291 -0.014,-0.079 -0.12,-0.107 -0.177,-0.056 -0.078,0.067 -0.089,0.178 -0.1,0.274 -0.014,0.236 0.02,0.474 0.09,0.7 -0.149,0.113 -0.292,0.237 -0.416,0.377 -0.131,-0.128 -0.237,-0.28 -0.311,-0.447 -0.103,-0.23 -0.159,-0.477 -0.212,-0.722 -0.022,-0.101 0.007,-0.205 -0.013,-0.306 -0.018,-0.083 -0.138,-0.098 -0.19,-0.037 -0.071,0.08 -0.08,0.193 -0.088,0.295 -0.008,0.309 0.05,0.623 0.191,0.9 0.105,0.21 0.254,0.397 0.425,0.557 -0.217,0.287 -0.332,0.649 -0.31,1.009 0.004,0.117 0.03,0.231 0.053,0.345 0.067,0.156 0.108,0.324 0.19,0.474 0.074,0.092 0.127,0.209 0.233,0.269 0.122,0.039 0.195,0.153 0.295,0.226 0.122,0.086 0.241,0.175 0.371,0.249 0.079,0.047 0.165,0.084 0.238,0.143 0.382,0.308 0.78,0.599 1.192,0.865 -0.173,0.369 -0.365,0.731 -0.592,1.069 -0.246,0.365 -0.532,0.708 -0.883,0.976 -0.317,0.246 -0.696,0.42 -1.097,0.466 C -3.195,6.644 -3.523,6.601 -3.832,6.505 -3.67,6.431 -3.505,6.335 -3.412,6.177 -3.329,6.041 -3.341,5.86 -3.424,5.727 -3.544,5.531 -3.761,5.402 -3.987,5.372 -4.153,5.349 -4.333,5.402 -4.446,5.529 -4.571,5.667 -4.615,5.857 -4.634,6.037 v 0.21 c 0.025,0.17 0.112,0.332 0.254,0.431 0.247,0.177 0.562,0.213 0.858,0.223 0.364,0 0.73,-0.047 1.079,-0.153 0.487,-0.16 0.893,-0.496 1.241,-0.864 0.454,-0.49 0.818,-1.059 1.108,-1.659 0.635,0.394 1.303,0.736 2.001,1.004 0.398,0.702 0.866,1.38 1.479,1.913 0.254,0.216 0.536,0.408 0.852,0.522 0.282,0.098 0.58,0.139 0.877,0.162" /></g><g
           transform="translate(216.0441,138.3475)"
           id="g58"><path
             id="path60"
             style="fill:#74b743;fill-opacity:1;fill-rule:nonzero;stroke:none"
             d="m 0,0 c -0.03,-0.025 -0.059,-0.051 -0.088,-0.077 -0.065,-0.053 -0.129,-0.107 -0.198,-0.156 0.09,-0.158 0.055,-0.348 0.029,-0.519 0.026,0.031 0.051,0.062 0.077,0.093 0.003,-0.017 0.007,-0.05 0.009,-0.066 0.047,0.016 0.092,0.042 0.111,0.09 0.055,0.121 0.083,0.256 0.08,0.39 C 0.022,-0.163 -0.008,-0.083 0,0" /></g><g
           transform="translate(215.3478,137.84)"
           id="g62"><path
             id="path64"
             style="fill:#74b743;fill-opacity:1;fill-rule:nonzero;stroke:none"
             d="m 0,0 c -0.132,-0.08 -0.267,-0.155 -0.403,-0.228 0.063,-0.244 0.017,-0.506 -0.082,-0.734 0.04,0.028 0.079,0.058 0.116,0.09 0.065,-0.068 0.159,-0.01 0.224,0.028 0.3,0.185 0.377,0.602 0.269,0.919 C 0.083,0.049 0.042,0.024 0,0" /></g><g
           transform="translate(214.7128,136.8023)"
           id="g66"><path
             id="path68"
             style="fill:#74b743;fill-opacity:1;fill-rule:nonzero;stroke:none"
             d="M 0,0 C 0.09,0.122 0.178,0.274 0.143,0.431 0.101,0.53 0.019,0.616 -0.086,0.647 -0.114,0.633 -0.14,0.619 -0.168,0.606 -0.323,0.535 -0.478,0.463 -0.634,0.393 c 0.06,-0.252 0.008,-0.519 -0.121,-0.741 0.033,0.02 0.079,0.028 0.104,0.057 0.053,-0.034 0.118,-0.03 0.177,-0.014 0.115,0.031 0.225,0.082 0.324,0.148 -0.057,0.042 -0.13,0.111 -0.067,0.182 C -0.145,0.017 -0.072,0.011 0,0" /></g><g
           transform="translate(213.8312,137.051)"
           id="g70"><path
             id="path72"
             style="fill:#74b743;fill-opacity:1;fill-rule:nonzero;stroke:none"
             d="m 0,0 c -0.057,0.031 -0.117,-0.009 -0.171,-0.028 l -0.004,-0.008 c -0.16,-0.048 -0.312,-0.116 -0.47,-0.169 0.036,-0.231 -0.011,-0.475 -0.123,-0.68 0.008,0 0.024,0 0.032,0 0.012,0.001 0.034,0.001 0.045,0.002 0.003,-0.042 0.053,-0.053 0.087,-0.051 0.135,0.011 0.263,0.067 0.381,0.132 -0.038,0.032 -0.084,0.059 -0.109,0.103 -0.016,0.032 0.005,0.065 0.013,0.095 0.097,-0.003 0.193,-0.013 0.288,-0.028 0.099,0.117 0.173,0.272 0.144,0.428 C 0.097,-0.128 0.07,-0.043 0,0" /></g><g
           transform="translate(212.9252,136.7313)"
           id="g74"><path
             id="path76"
             style="fill:#74b743;fill-opacity:1;fill-rule:nonzero;stroke:none"
             d="m 0,0 c -0.078,0.011 -0.157,-0.018 -0.228,-0.048 -0.304,-0.068 -0.614,-0.168 -0.93,-0.118 0.028,-0.208 -0.004,-0.422 -0.079,-0.618 0.01,-0.004 0.032,-0.013 0.042,-0.017 l 0.025,-0.014 c 0.025,-0.073 0.107,-0.1 0.178,-0.108 0.181,-0.018 0.362,0.022 0.535,0.076 -0.042,0.039 -0.097,0.076 -0.105,0.137 0.006,0.026 0.018,0.049 0.03,0.073 0.125,-0.005 0.248,-0.025 0.372,-0.04 0.169,0.127 0.276,0.342 0.26,0.555 C 0.098,-0.065 0.059,-0.008 0,0" /></g><g
           transform="translate(204.5138,138.1291)"
           id="g78"><path
             id="path80"
             style="fill:#ffffff;fill-opacity:1;fill-rule:nonzero;stroke:none"
             d="M 0,0 C 0.266,0.124 0.582,0.102 0.846,-0.015 1.014,-0.089 1.174,-0.21 1.238,-0.387 1.127,-0.311 1.022,-0.224 0.901,-0.163 0.666,-0.037 0.382,0.016 0.124,-0.07 0.248,-0.076 0.374,-0.14 0.416,-0.263 0.429,-0.312 0.435,-0.363 0.437,-0.414 0.412,-0.527 0.33,-0.618 0.22,-0.655 0.136,-0.663 0.044,-0.66 -0.025,-0.606 c -0.073,0.047 -0.109,0.13 -0.126,0.212 0,0.084 0.033,0.162 0.075,0.233 C -0.219,-0.252 -0.332,-0.38 -0.429,-0.517 -0.361,-0.298 -0.211,-0.099 0,0" /></g><g
           transform="translate(209.7508,137.6739)"
           id="g82"><path
             id="path84"
             style="fill:#ffffff;fill-opacity:1;fill-rule:nonzero;stroke:none"
             d="M 0,0 C 0.317,0.06 0.649,-0.037 0.912,-0.216 1.072,-0.327 1.221,-0.482 1.254,-0.681 1.06,-0.46 0.831,-0.256 0.549,-0.156 0.416,-0.109 0.275,-0.09 0.134,-0.094 0.228,-0.168 0.284,-0.296 0.233,-0.412 0.224,-0.433 0.214,-0.453 0.203,-0.473 0.139,-0.552 0.036,-0.576 -0.061,-0.565 c -0.055,0.011 -0.1,0.048 -0.139,0.086 -0.072,0.086 -0.063,0.206 -0.023,0.303 C -0.35,-0.232 -0.462,-0.314 -0.569,-0.402 -0.449,-0.195 -0.236,-0.043 0,0" /></g><g
           transform="translate(212.3833,141.7831)"
           id="g86"><path
             id="path88"
             style="fill:#eac500;fill-opacity:1;fill-rule:nonzero;stroke:none"
             d="M 0,0 C 0.115,-0.097 0.277,-0.138 0.424,-0.1 0.603,-0.055 0.747,0.092 0.806,0.264 0.822,0.305 0.834,0.348 0.84,0.392 0.858,0.492 0.855,0.597 0.823,0.694 0.774,0.924 0.56,1.12 0.319,1.114 0.097,1.116 -0.096,0.949 -0.171,0.748 -0.271,0.496 -0.214,0.176 0,0" /></g><g
           transform="translate(202.9342,141.9899)"
           id="g90"><path
             id="path92"
             style="fill:#eac500;fill-opacity:1;fill-rule:nonzero;stroke:none"
             d="m 0,0 c -0.15,0.143 -0.393,0.17 -0.572,0.07 -0.106,-0.057 -0.188,-0.154 -0.224,-0.269 -0.028,-0.076 -0.033,-0.16 -0.017,-0.239 0.009,-0.037 0.02,-0.074 0.038,-0.107 0.083,-0.206 0.33,-0.319 0.543,-0.27 0.194,0.036 0.355,0.204 0.38,0.4 C 0.171,-0.264 0.114,-0.103 0,0" /></g><g
           transform="translate(208.4243,139.946)"
           id="g94"><path
             id="path96"
             style="fill:#eac500;fill-opacity:1;fill-rule:nonzero;stroke:none"
             d="m 0,0 c -0.023,-0.057 -0.047,-0.113 -0.072,-0.17 0.157,-0.008 0.314,-0.023 0.469,0.001 0.119,0.016 0.234,0.056 0.344,0.101 0.817,0.347 1.636,0.695 2.485,0.956 0.529,0.163 1.071,0.29 1.623,0.333 C 4.798,1.236 4.748,1.254 4.695,1.261 4.452,1.326 4.203,1.365 3.953,1.393 2.809,1.513 1.65,1.314 0.572,0.932 0.525,0.913 0.474,0.904 0.433,0.875 0.394,0.814 0.364,0.749 0.331,0.685 0.241,0.517 0.161,0.344 0.08,0.171 0.054,0.114 0.028,0.057 0.003,0 Z" /></g><g
           transform="translate(215.6608,139.2754)"
           id="g98"><path
             id="path100"
             style="fill:#eac500;fill-opacity:1;fill-rule:nonzero;stroke:none"
             d="M 0,0 C -0.071,0.304 -0.256,0.567 -0.464,0.794 -0.718,1.066 -1.021,1.291 -1.347,1.469 -1.549,1.55 -1.765,1.594 -1.98,1.627 -2.54,1.708 -3.112,1.666 -3.664,1.554 -4.157,1.451 -4.641,1.294 -5.087,1.06 -5.303,0.941 -5.52,0.809 -5.679,0.617 -5.745,0.538 -5.8,0.436 -5.777,0.33 c 0.026,-0.098 0.116,-0.163 0.206,-0.199 0.429,-0.169 0.837,-0.393 1.204,-0.672 0.276,-0.212 0.535,-0.454 0.729,-0.745 0.108,-0.165 0.208,-0.352 0.201,-0.555 0,-0.082 -0.045,-0.152 -0.079,-0.224 0.157,0.028 0.306,0.088 0.455,0.141 0.561,0.21 1.113,0.446 1.658,0.692 0.382,0.177 0.765,0.354 1.128,0.568 0.087,0.051 0.174,0.112 0.224,0.203 C 0.032,-0.323 0.031,-0.153 0,0" /></g><g
           transform="translate(206.696,139.5819)"
           id="g102"><path
             id="path104"
             style="fill:#eac500;fill-opacity:1;fill-rule:nonzero;stroke:none"
             d="m 0,0 c 0.445,0.123 0.905,0.191 1.366,0.198 0.02,0.049 0.04,0.097 0.06,0.146 C 1.454,0.41 1.482,0.476 1.51,0.541 1.557,0.645 1.608,0.747 1.654,0.851 1.701,0.929 1.736,1.016 1.781,1.096 1.142,0.83 0.53,0.501 -0.055,0.132 -0.047,0.112 -0.038,0.092 -0.03,0.072 -0.02,0.048 -0.01,0.024 0,0" /></g><g
           transform="translate(206.7493,139.4506)"
           id="g106"><path
             id="path108"
             style="fill:#eac500;fill-opacity:1;fill-rule:nonzero;stroke:none"
             d="m 0,0 c 0.01,-0.029 0.021,-0.059 0.032,-0.089 0.009,-0.029 0.018,-0.058 0.027,-0.087 0.362,0.033 0.726,0.045 1.089,0.03 0.013,0.04 0.025,0.08 0.037,0.12 0.013,0.04 0.027,0.081 0.04,0.121 h 0.002 c 0.01,0.028 0.019,0.055 0.028,0.083 -0.427,0 -0.853,-0.042 -1.27,-0.136 0.003,-0.011 0.008,-0.032 0.01,-0.043 z" /></g><g
           transform="translate(211.525,138.2979)"
           id="g110"><path
             id="path112"
             style="fill:#eac500;fill-opacity:1;fill-rule:nonzero;stroke:none"
             d="M 0,0 C -0.31,0.303 -0.678,0.539 -1.064,0.734 -1.742,1.069 -2.487,1.27 -3.243,1.316 -3.247,1.303 -3.255,1.276 -3.259,1.263 H -3.263 C -3.271,1.244 -3.279,1.226 -3.287,1.207 -3.296,1.184 -3.305,1.16 -3.314,1.137 -3.321,1.121 -3.328,1.104 -3.335,1.087 -3.347,1.056 -3.359,1.024 -3.372,0.993 c 0.646,-0.056 1.29,-0.203 1.875,-0.489 0.729,-0.35 1.345,-0.918 1.779,-1.598 0.025,-0.036 0.073,-0.11 0.12,-0.061 0.061,0.129 0.039,0.279 0.027,0.416 C 0.395,-0.445 0.2,-0.204 0,0" /></g><g
           transform="translate(206.4345,139.5795)"
           id="g114"><path
             id="path116"
             style="fill:#eac500;fill-opacity:1;fill-rule:nonzero;stroke:none"
             d="m 0,0 c -0.081,-0.052 -0.164,-0.103 -0.241,-0.161 0.09,0.03 0.18,0.063 0.27,0.094 C 0.019,-0.044 0.009,-0.022 0,0" /></g><g
           transform="translate(204.2729,138.2403)"
           id="g118"><path
             id="path120"
             style="fill:#eac500;fill-opacity:1;fill-rule:nonzero;stroke:none"
             d="M 0,0 C 0.122,0.039 0.195,0.153 0.295,0.226 0.19,0.159 0.096,0.078 0,0" /></g><g
           transform="translate(204.0396,137.9711)"
           id="g122"><path
             id="path124"
             style="fill:#eac500;fill-opacity:1;fill-rule:nonzero;stroke:none"
             d="M 0,0 C -0.102,-0.139 -0.173,-0.302 -0.19,-0.474 -0.123,-0.318 -0.082,-0.15 0,0" /></g><g
           transform="translate(210.2315,135.538)"
           id="g126"><path
             id="path128"
             style="fill:#eac500;fill-opacity:1;fill-rule:nonzero;stroke:none"
             d="m 0,0 c -0.266,0.011 -0.528,0.074 -0.777,0.165 -0.135,0.052 -0.271,0.11 -0.384,0.202 -0.039,0.034 -0.086,0.08 -0.072,0.137 0.034,0.056 0.107,0.066 0.167,0.072 0.205,0.015 0.41,-0.024 0.608,-0.074 C -0.249,0.446 -0.04,0.375 0.143,0.257 0.204,0.221 0.249,0.166 0.288,0.108 0.242,-0.007 0.102,0.006 0,0 M 0.918,1.636 C 0.951,1.512 0.981,1.383 0.962,1.253 0.955,1.172 0.921,1.098 0.893,1.023 V 1.008 H 0.884 C 0.794,0.862 0.66,0.747 0.505,0.675 -0.018,0.432 -0.69,0.567 -1.078,0.995 -1.245,1.183 -1.4,1.413 -1.396,1.674 c 0.004,0.211 0.154,0.388 0.331,0.486 0.298,0.167 0.652,0.207 0.987,0.177 C 0.069,2.317 0.217,2.288 0.351,2.223 0.398,2.201 0.446,2.182 0.495,2.165 0.362,2.316 0.207,2.444 0.05,2.567 0.007,2.6 -0.039,2.628 -0.085,2.655 -0.742,3.034 -1.479,3.268 -2.231,3.353 -2.254,3.291 -2.277,3.228 -2.3,3.166 -2.322,3.105 -2.343,3.043 -2.363,2.981 -2.415,3.032 -2.432,3.103 -2.44,3.173 -2.437,3.24 -2.432,3.305 -2.426,3.371 -2.725,3.393 -3.026,3.39 -3.325,3.363 -3.318,3.292 -3.316,3.221 -3.316,3.15 -3.327,3.093 -3.356,3.044 -3.396,3.004 -3.405,3.05 -3.419,3.095 -3.435,3.138 -3.461,3.206 -3.485,3.273 -3.51,3.341 -4.018,3.274 -4.517,3.129 -4.981,2.91 -4.989,2.92 -5.004,2.94 -5.011,2.95 -5.047,2.93 -5.082,2.91 -5.117,2.89 -4.979,2.887 -4.843,2.867 -4.709,2.833 -4.597,2.8 -4.488,2.756 -4.39,2.694 l 0.003,10e-4 C -4.331,2.654 -4.278,2.608 -4.23,2.558 -4.104,2.409 -4.084,2.194 -4.158,2.017 -4.293,1.685 -4.573,1.414 -4.91,1.289 -5.044,1.242 -5.183,1.214 -5.324,1.208 c -0.16,-0.006 -0.319,0.017 -0.471,0.066 -0.109,0.04 -0.212,0.097 -0.304,0.168 0.014,-0.156 0.057,-0.309 0.127,-0.449 0.082,0.04 0.171,0.063 0.26,0.081 0.15,0.026 0.302,0.031 0.454,0.023 0.116,-0.011 0.236,-0.028 0.342,-0.08 C -4.875,0.995 -4.829,0.962 -4.828,0.911 -4.833,0.844 -4.899,0.81 -4.95,0.78 -5.088,0.72 -5.238,0.696 -5.387,0.681 -5.515,0.678 -5.643,0.677 -5.77,0.696 c 0.275,-0.338 0.643,-0.588 1.028,-0.783 0.317,-0.161 0.65,-0.288 0.994,-0.375 -0.029,0.092 -0.051,0.186 -0.07,0.28 -0.016,0.084 -0.025,0.17 -0.048,0.253 -0.077,0.061 -0.136,0.14 -0.153,0.238 -0.003,0.065 0.006,0.132 0.04,0.189 -0.007,-0.072 -0.015,-0.145 0.003,-0.216 0.044,-0.097 0.137,-0.17 0.244,-0.182 0.062,-0.007 0.119,0.024 0.173,0.05 0.067,0.038 0.135,0.082 0.213,0.087 0.087,-0.005 0.125,-0.095 0.169,-0.156 L -3.175,0.08 c 0.087,-0.097 0.217,-0.169 0.351,-0.15 0.07,0.009 0.127,0.052 0.177,0.099 0.043,0.054 0.078,0.114 0.104,0.178 0.004,0 0.011,0.002 0.014,0.002 -0.003,-0.141 -0.102,-0.26 -0.226,-0.319 -0.011,-0.06 -0.031,-0.119 -0.049,-0.177 -0.049,-0.097 -0.1,-0.192 -0.163,-0.28 -0.028,-0.021 0.011,-0.025 0.024,-0.027 0.208,-0.019 0.418,-0.028 0.628,-0.034 0.525,-0.016 1.056,-0.008 1.574,0.092 0.361,0.071 0.716,0.179 1.051,0.332 C 0.573,-0.08 0.827,0.08 1.012,0.307 1.179,0.518 1.253,0.807 1.18,1.07 1.12,1.27 1.027,1.458 0.918,1.636" /></g><g
           transform="translate(206.1264,139.2081)"
           id="g130"><path
             id="path132"
             style="fill:#eac500;fill-opacity:1;fill-rule:nonzero;stroke:none"
             d="M 0,0 C 0.151,0.005 0.3,0.029 0.45,0.044 0.44,0.066 0.429,0.087 0.417,0.108 0.409,0.132 0.401,0.156 0.393,0.179 0.388,0.189 0.378,0.209 0.374,0.219 0.201,0.168 0.024,0.124 -0.138,0.045 -0.175,-0.033 -0.044,-0.004 0,0" /></g><g
           transform="translate(205.4146,137.9657)"
           id="g134"><path
             id="path136"
             style="fill:#74b743;fill-opacity:1;fill-rule:nonzero;stroke:none"
             d="m 0,0 c -0.235,0.126 -0.518,0.18 -0.776,0.094 0.124,-0.007 0.249,-0.07 0.292,-0.193 0.012,-0.05 0.018,-0.101 0.02,-0.152 -0.025,-0.112 -0.107,-0.204 -0.216,-0.241 -0.084,-0.008 -0.176,-0.004 -0.246,0.049 -0.073,0.047 -0.109,0.13 -0.125,0.212 -0.001,0.084 0.032,0.162 0.074,0.233 -0.143,-0.091 -0.255,-0.219 -0.353,-0.356 0.068,0.22 0.219,0.419 0.429,0.517 0.266,0.125 0.583,0.103 0.847,-0.015 C 0.113,0.074 0.273,-0.046 0.337,-0.223 0.226,-0.147 0.121,-0.061 0,0 m -0.192,0.352 c -0.315,0.033 -0.647,-0.017 -0.924,-0.177 -0.16,-0.093 -0.3,-0.239 -0.337,-0.425 -0.042,-0.222 0.045,-0.46 0.208,-0.614 0.103,-0.101 0.24,-0.16 0.381,-0.186 l 0.001,-0.004 c 0.086,-0.006 0.174,-0.033 0.259,-0.01 0.294,0.008 0.584,0.119 0.819,0.294 0.176,0.135 0.33,0.332 0.331,0.563 C 0.553,-0.093 0.485,0.007 0.412,0.088 0.255,0.252 0.028,0.326 -0.192,0.352" /></g><g
           transform="translate(210.3,137.5175)"
           id="g138"><path
             id="path140"
             style="fill:#74b743;fill-opacity:1;fill-rule:nonzero;stroke:none"
             d="m 0,0 c -0.133,0.048 -0.274,0.066 -0.415,0.062 0.093,-0.074 0.15,-0.202 0.099,-0.317 -0.009,-0.021 -0.02,-0.042 -0.031,-0.062 -0.063,-0.079 -0.166,-0.103 -0.263,-0.092 -0.055,0.011 -0.1,0.049 -0.14,0.087 -0.071,0.085 -0.062,0.205 -0.023,0.303 -0.127,-0.057 -0.238,-0.139 -0.345,-0.226 0.12,0.207 0.333,0.358 0.569,0.401 C -0.232,0.217 0.1,0.119 0.363,-0.06 0.523,-0.171 0.672,-0.325 0.704,-0.525 0.51,-0.303 0.282,-0.099 0,0 M 0.673,-0.137 C 0.488,0.035 0.249,0.144 0.003,0.194 -0.22,0.241 -0.452,0.262 -0.679,0.23 -0.816,0.209 -0.955,0.174 -1.077,0.106 c -0.142,-0.102 -0.249,-0.27 -0.242,-0.449 0.007,-0.174 0.104,-0.329 0.215,-0.456 0.206,-0.225 0.477,-0.403 0.781,-0.456 0.229,-0.035 0.475,-0.029 0.686,0.077 0.195,0.094 0.377,0.254 0.43,0.472 0.049,0.192 0.033,0.427 -0.12,0.569" /></g><g
           transform="translate(204.5195,136.6115)"
           id="g142"><path
             id="path144"
             style="fill:#ed4792;fill-opacity:1;fill-rule:nonzero;stroke:none"
             d="M 0,0 C 0.15,0.027 0.302,0.032 0.454,0.023 0.57,0.013 0.69,-0.004 0.796,-0.057 0.837,-0.078 0.883,-0.112 0.884,-0.163 0.879,-0.229 0.813,-0.264 0.762,-0.294 0.624,-0.354 0.474,-0.377 0.325,-0.392 0.197,-0.396 0.069,-0.396 -0.058,-0.377 c -0.103,0.02 -0.218,0.04 -0.293,0.119 -0.056,0.075 0.028,0.147 0.091,0.177 0.082,0.04 0.171,0.064 0.26,0.081" /></g><g
           transform="translate(208.9981,136.0415)"
           id="g146"><path
             id="path148"
             style="fill:#ed4792;fill-opacity:1;fill-rule:nonzero;stroke:none"
             d="M 0,0 C 0.034,0.057 0.107,0.066 0.167,0.073 0.372,0.087 0.577,0.049 0.776,-0.001 0.985,-0.058 1.193,-0.129 1.376,-0.246 1.437,-0.282 1.483,-0.337 1.521,-0.395 1.475,-0.511 1.335,-0.497 1.233,-0.504 0.968,-0.493 0.706,-0.43 0.457,-0.339 0.321,-0.286 0.185,-0.228 0.072,-0.136 0.034,-0.102 -0.014,-0.057 0,0" /></g><g
           id="g150"><g
             id="g152" /><g
             id="g164"><g
               style="opacity:0.53999299"
               id="g162"
               clip-path="url(#clipPath156)"><g
                 id="g160"
                 transform="translate(213.0956,136.1662)"><path
                   id="path158"
                   style="fill:#192112;fill-opacity:1;fill-rule:nonzero;stroke:none"
                   d="M 0,0 C 0.02,-0.048 -0.081,-0.031 -0.032,0 -0.024,0 -0.008,0 0,0" /></g></g></g></g><g
           id="g166"><g
             id="g168" /><g
             id="g180"><g
               style="opacity:0.38999903"
               id="g178"
               clip-path="url(#clipPath172)"><g
                 id="g176"
                 transform="translate(211.7303,135.9302)"><path
                   id="path174"
                   style="fill:#283719;fill-opacity:1;fill-rule:nonzero;stroke:none"
                   d="M 0,0 C -0.01,-0.036 -0.082,-0.005 -0.042,0.018 -0.032,0.013 -0.01,0.004 0,0" /></g></g></g></g><g
           transform="translate(207.1144,135.5033)"
           id="g182"><path
             id="path184"
             style="fill:#ed4792;fill-opacity:1;fill-rule:nonzero;stroke:none"
             d="M 0,0 C -0.094,0.058 -0.115,0.197 -0.231,0.225 -0.314,0.226 -0.376,0.164 -0.445,0.128 -0.523,0.082 -0.617,0.077 -0.704,0.093 c 0.059,-0.146 0.084,-0.301 0.121,-0.452 0.044,-0.149 0.096,-0.329 0.255,-0.391 0.104,-0.048 0.223,-0.001 0.301,0.074 0.122,0.118 0.197,0.274 0.27,0.425 0.025,0.054 0.049,0.107 0.074,0.161 C 0.205,-0.091 0.096,-0.056 0,0" /></g><g
           transform="translate(30,58)"
           id="g186"><path
             id="path188"
             style="fill:#808080;fill-opacity:1;fill-rule:nonzero;stroke:none"
             d="m 0,0 c -3.314,0 -6,-2.686 -6,-6 0,-3.314 2.686,-6 6,-6 3.314,0 6,2.686 6,6 0,3.314 -2.686,6 -6,6" /></g><g
           transform="translate(30,56)"
           id="g190"><path
             id="path192"
             style="fill:#a3834a;fill-opacity:1;fill-rule:nonzero;stroke:none"
             d="m 0,0 c 2.209,0 4,-1.791 4,-4 0,-2.209 -1.791,-4 -4,-4 -2.209,0 -4,1.791 -4,4 0,2.209 1.791,4 4,4" /></g><g
           transform="translate(226,58)"
           id="g194"><path
             id="path196"
             style="fill:#808080;fill-opacity:1;fill-rule:nonzero;stroke:none"
             d="m 0,0 c -3.314,0 -6,-2.686 -6,-6 0,-3.314 2.686,-6 6,-6 3.314,0 6,2.686 6,6 0,3.314 -2.686,6 -6,6" /></g><g
           transform="translate(226,56)"
           id="g198"><path
             id="path200"
             style="fill:#a3834a;fill-opacity:1;fill-rule:nonzero;stroke:none"
             d="m 0,0 c 2.209,0 4,-1.791 4,-4 0,-2.209 -1.791,-4 -4,-4 -2.209,0 -4,1.791 -4,4 0,2.209 1.791,4 4,4" /></g><path
           id="path202"
           style="fill:#191919;fill-opacity:1;fill-rule:nonzero;stroke:none"
           d="M 64,182 H 44 v 16 h 20 z" /><g
           transform="translate(63,190)"
           id="g204"><path
             id="path206"
             style="fill:#b80000;fill-opacity:1;fill-rule:nonzero;stroke:none"
             d="m 0,0 c 0,-1.105 -1.343,-2 -3,-2 -1.657,0 -3,0.895 -3,2 0,1.105 1.343,2 3,2 1.657,0 3,-0.895 3,-2" /></g><g
           transform="translate(51,190)"
           id="g208"><path
             id="path210"
             style="fill:#007b00;fill-opacity:1;fill-rule:nonzero;stroke:none"
             d="m 0,0 c 0,-1.105 -1.343,-2 -3,-2 -1.657,0 -3,0.895 -3,2 0,1.105 1.343,2 3,2 1.657,0 3,-0.895 3,-2" /></g><g
           transform="translate(57,194)"
           id="g212"><path
             id="path214"
             style="fill:#354f9f;fill-opacity:1;fill-rule:nonzero;stroke:none"
             d="m 0,0 c 0,-1.105 -1.343,-2 -3,-2 -1.657,0 -3,0.895 -3,2 0,1.105 1.343,2 3,2 1.657,0 3,-0.895 3,-2" /></g><g
           transform="translate(57,186)"
           id="g216"><path
             id="path218"
             style="fill:#eac500;fill-opacity:1;fill-rule:nonzero;stroke:none"
             d="m 0,0 c 0,-1.105 -1.343,-2 -3,-2 -1.657,0 -3,0.895 -3,2 0,1.105 1.343,2 3,2 1.657,0 3,-0.895 3,-2" /></g><g
           transform="translate(44.8424,179.6329)"
           id="g220"><path
             id="path222"
             style="fill:#191919;fill-opacity:1;fill-rule:nonzero;stroke:none"
             d="m 0,0 c -0.1,-0.002 -0.185,-0.021 -0.253,-0.057 -0.069,-0.036 -0.103,-0.105 -0.103,-0.206 0,-0.078 0.029,-0.133 0.087,-0.166 0.059,-0.033 0.127,-0.05 0.205,-0.05 l 0.614,0.003 c 0.023,-0.002 0.046,-0.003 0.071,-0.003 0.024,0 0.049,-0.001 0.073,-0.003 0.072,-0.003 0.143,-0.014 0.212,-0.032 0.07,-0.017 0.131,-0.049 0.186,-0.095 0.049,-0.041 0.086,-0.089 0.11,-0.146 0.025,-0.058 0.04,-0.117 0.046,-0.178 C 1.25,-0.951 1.252,-0.969 1.253,-0.986 1.254,-1.004 1.255,-1.022 1.255,-1.041 1.25,-1.271 1.18,-1.427 1.042,-1.51 0.904,-1.592 0.718,-1.633 0.482,-1.633 h -1.234 v 0.354 h 1.161 c 0.102,-0.002 0.191,0.013 0.265,0.045 0.075,0.031 0.105,0.102 0.091,0.213 -0.01,0.086 -0.046,0.14 -0.107,0.16 -0.062,0.02 -0.135,0.032 -0.219,0.034 l -0.546,0.002 c -0.228,-0.002 -0.407,0.039 -0.539,0.123 -0.133,0.084 -0.198,0.236 -0.196,0.456 0.005,0.23 0.076,0.387 0.214,0.472 0.138,0.083 0.325,0.125 0.561,0.125 L 1.147,0.354 V 0 Z" /></g><g
           transform="translate(47.2024,178)"
           id="g224"><path
             id="path226"
             style="fill:#191919;fill-opacity:1;fill-rule:nonzero;stroke:none"
             d="m 0,0 c -0.277,0.002 -0.493,0.054 -0.648,0.155 -0.155,0.1 -0.231,0.292 -0.231,0.576 v 1.256 h 0.555 V 0.792 c 0,-0.138 0.023,-0.231 0.072,-0.279 0.048,-0.048 0.147,-0.072 0.296,-0.072 L 0.492,0.438 V 1.987 H 1.047 V 0 Z" /></g><g
           transform="translate(49.5808,179.6329)"
           id="g228"><path
             id="path230"
             style="fill:#191919;fill-opacity:1;fill-rule:nonzero;stroke:none"
             d="m 0,0 h -0.536 v -0.587 h 0.563 c 0.112,0 0.209,0.02 0.291,0.06 0.081,0.04 0.122,0.117 0.122,0.231 0.004,0.127 -0.039,0.208 -0.129,0.242 C 0.219,-0.02 0.117,-0.003 0,-0.003 Z M 0.006,0.354 C 0.008,0.352 0.011,0.351 0.014,0.351 H 0.021 0.137 C 0.176,0.351 0.215,0.35 0.254,0.346 0.323,0.342 0.391,0.333 0.46,0.32 0.529,0.306 0.593,0.283 0.651,0.252 0.76,0.195 0.837,0.116 0.883,0.017 0.928,-0.083 0.952,-0.187 0.954,-0.296 0.956,-0.396 0.937,-0.492 0.897,-0.584 0.858,-0.676 0.792,-0.753 0.7,-0.814 0.623,-0.864 0.539,-0.896 0.448,-0.912 0.358,-0.927 0.265,-0.937 0.171,-0.941 H 0.098 0.024 l -0.56,0.003 v -0.695 h -0.462 v 1.987 z" /></g><g
           transform="translate(51.4133,179.518)"
           id="g232"><path
             id="path234"
             style="fill:#191919;fill-opacity:1;fill-rule:nonzero;stroke:none"
             d="m 0,0 c -0.084,-0.08 -0.131,-0.194 -0.142,-0.342 l 1.284,0.003 v -0.346 h -1.287 c 0,-0.07 0.009,-0.138 0.026,-0.202 0.018,-0.065 0.053,-0.124 0.106,-0.177 0.048,-0.05 0.103,-0.081 0.168,-0.093 0.064,-0.012 0.13,-0.018 0.198,-0.018 h 0.014 0.014 l 0.761,0.003 V -1.518 H 0.359 c -0.125,0 -0.245,0.01 -0.361,0.031 -0.116,0.02 -0.225,0.067 -0.327,0.141 -0.123,0.09 -0.209,0.2 -0.258,0.33 -0.049,0.13 -0.076,0.264 -0.08,0.4 -0.002,0.03 -0.003,0.058 -0.001,0.086 0.001,0.028 0.002,0.055 0.004,0.083 0.023,0.314 0.117,0.544 0.284,0.692 0.167,0.147 0.418,0.221 0.751,0.221 L 1.142,0.469 V 0.123 H 0.381 C 0.211,0.121 0.084,0.08 0,0" /></g><g
           transform="translate(53.9451,179.6329)"
           id="g236"><path
             id="path238"
             style="fill:#191919;fill-opacity:1;fill-rule:nonzero;stroke:none"
             d="M 0,0 H -0.601 V -0.501 H 0 c 0.004,-0.002 0.008,-0.003 0.013,-0.003 h 0.012 c 0.104,0 0.199,0.013 0.285,0.04 0.085,0.027 0.126,0.098 0.124,0.212 0,0.118 -0.044,0.189 -0.134,0.213 C 0.21,-0.015 0.11,-0.003 0,-0.003 Z M 0.116,0.354 C 0.14,0.352 0.164,0.351 0.186,0.351 0.209,0.351 0.232,0.35 0.256,0.349 0.344,0.345 0.432,0.333 0.518,0.313 0.602,0.292 0.678,0.255 0.743,0.199 0.801,0.151 0.845,0.095 0.874,0.031 0.903,-0.034 0.921,-0.1 0.927,-0.169 0.927,-0.182 0.929,-0.195 0.93,-0.208 0.931,-0.221 0.931,-0.233 0.931,-0.246 0.933,-0.385 0.896,-0.504 0.819,-0.605 0.742,-0.705 0.622,-0.772 0.461,-0.805 L 1.042,-1.633 H 0.489 l -0.512,0.781 h -0.578 v -0.781 h -0.49 v 1.987 z" /></g><g
           transform="translate(56.3816,179.7351)"
           id="g240"><path
             id="path242"
             style="fill:#191919;fill-opacity:1;fill-rule:nonzero;stroke:none"
             d="M 0,0 C 0.136,0.166 0.435,0.249 0.896,0.249 L 1.614,0.252 V -0.094 H 0.856 C 0.659,-0.098 0.514,-0.136 0.421,-0.208 0.329,-0.279 0.277,-0.404 0.267,-0.581 l 1.347,0.003 V -0.922 H 0.267 v -0.813 h -0.471 v 0.913 C -0.204,-0.44 -0.136,-0.166 0,0" /></g><g
           transform="translate(62.3657,180)"
           id="g244"><path
             id="path246"
             style="fill:#191919;fill-opacity:1;fill-rule:nonzero;stroke:none"
             d="M 0,0 C 0.238,-0.005 0.424,-0.058 0.559,-0.158 0.695,-0.259 0.763,-0.45 0.766,-0.732 v -1.255 h -0.49 v 1.192 c 0,0.186 -0.037,0.293 -0.11,0.322 -0.074,0.029 -0.184,0.04 -0.331,0.035 -0.023,-0.002 -0.047,-0.003 -0.072,-0.003 h -0.075 v -1.546 h -0.497 v 1.549 h -0.57 v -1.549 h -0.49 V 0 Z" /></g><path
           id="path248"
           style="fill:#191919;fill-opacity:1;fill-rule:nonzero;stroke:none"
           d="M 63.438,179.987 H 64 V 178 h -0.562 z" /><g
           transform="translate(59.0055,178.3995)"
           id="g250"><path
             id="path252"
             style="fill:#191919;fill-opacity:1;fill-rule:nonzero;stroke:none"
             d="M 0,0 H 0.646 V 0.411 H 0.037 C 0.033,0.409 0.028,0.407 0.023,0.407 H 0.008 C -0.062,0.405 -0.126,0.392 -0.185,0.368 -0.244,0.344 -0.275,0.288 -0.278,0.2 -0.283,0.102 -0.256,0.044 -0.198,0.026 -0.14,0.009 -0.074,-0.001 0,-0.004 Z M 0.372,1.588 C 0.485,1.585 0.594,1.572 0.7,1.548 0.805,1.524 0.899,1.469 0.984,1.384 1.055,1.313 1.105,1.23 1.134,1.135 1.161,1.04 1.176,0.941 1.176,0.841 V -0.4 h -1.387 c -0.201,0 -0.354,0.056 -0.46,0.168 -0.107,0.112 -0.155,0.268 -0.144,0.466 0.017,0.239 0.1,0.393 0.248,0.464 0.148,0.07 0.326,0.105 0.531,0.105 L 0.642,0.807 C 0.65,0.97 0.608,1.072 0.518,1.113 0.427,1.152 0.313,1.173 0.175,1.173 l -0.861,0.003 v 0.412 z" /></g><g
           transform="translate(211.8066,190.981)"
           id="g254"><path
             id="path256"
             style="fill:#191919;fill-opacity:1;fill-rule:nonzero;stroke:none"
             d="m 0,0 h -23.613 c -1.995,-0.008 -3.206,1.351 -3.206,3.017 0,1.667 1.219,3.014 3.206,3.018 H 0 C 1.987,6.031 3.205,4.684 3.205,3.017 3.205,1.351 1.994,-0.008 0,0 m 0.011,7.019 h -23.636 c -2.501,0.006 -4.182,-1.819 -4.182,-4.007 0,-2.188 1.677,-3.992 4.185,-3.993 h 23.63 c 2.509,0.001 4.185,1.805 4.185,3.993 0,2.188 -1.68,4.013 -4.182,4.007" /></g><g
           transform="translate(203.7152,195.492)"
           id="g258"><path
             id="path260"
             style="fill:#191919;fill-opacity:1;fill-rule:nonzero;stroke:none"
             d="M 0,0 H 1.117 V -0.506 H 1.72 V -0.88 H 1.117 L 1.118,-3.379 H -0.001 L 0,-0.88 h -0.606 v 0.373 h 0.607 z" /></g><path
           id="path262"
           style="fill:#191919;fill-opacity:1;fill-rule:nonzero;stroke:none"
           d="m 190.635,194.617 h 1.116 v -2.504 h -1.116 z" /><path
           id="path264"
           style="fill:#191919;fill-opacity:1;fill-rule:nonzero;stroke:none"
           d="m 190.633,195.88 h 1.118 v -0.77 h -1.118 z" /><g
           transform="translate(211.148,193.4708)"
           id="g266"><path
             id="path268"
             style="fill:#191919;fill-opacity:1;fill-rule:nonzero;stroke:none"
             d="m 0,0 v 0 c 0,-0.007 -0.001,-0.379 -0.001,-0.529 0,-0.399 -0.232,-0.564 -0.456,-0.564 -0.224,0 -0.457,0.165 -0.457,0.564 V 0.01 c 0,0 0.001,0.371 0.001,0.523 0,0.397 0.233,0.561 0.456,0.561 0.223,0 0.456,-0.164 0.456,-0.561 0,-0.151 0,-0.432 0.001,-0.533 v 0.001 z m -0.448,1.404 c -0.901,0 -1.632,-0.63 -1.632,-1.406 0,-0.777 0.731,-1.406 1.632,-1.406 0.901,0 1.63,0.629 1.63,1.406 0,0.776 -0.729,1.406 -1.63,1.406" /></g><g
           transform="translate(193.5112,193.8329)"
           id="g270"><path
             id="path272"
             style="fill:#191919;fill-opacity:1;fill-rule:nonzero;stroke:none"
             d="m 0,0 c 0,0.388 0.264,0.487 0.437,0.487 0.178,0 0.438,-0.099 0.438,-0.487 0,-0.128 -0.001,-0.445 -0.001,-0.445 0,0 0.001,-0.313 0.001,-0.447 0,-0.386 -0.26,-0.487 -0.437,-0.487 C 0.264,-1.379 0,-1.278 0,-0.892 v 0.445 z M -1.093,2.054 V -1.712 H 0.01 c 0,0 10e-4,0.122 10e-4,0.145 0.427,-0.272 0.908,-0.271 1.284,-0.094 0.1,0.048 0.763,0.37 0.763,1.242 0,0.66 -0.615,1.383 -1.418,1.311 C 0.375,0.868 0.186,0.77 0.008,0.668 v 1.386 z" /></g><g
           transform="translate(201.033,194.3353)"
           id="g274"><path
             id="path276"
             style="fill:#191919;fill-opacity:1;fill-rule:nonzero;stroke:none"
             d="m 0,0 c 0.087,0.154 0.247,0.228 0.392,0.228 v 0 H 0.393 0.392 C 0.538,0.228 0.698,0.154 0.785,0 0.856,-0.125 0.859,-0.272 0.857,-0.491 H -0.074 C -0.076,-0.272 -0.071,-0.125 0,0 m 0.855,-1.398 c 0,-0.459 -0.298,-0.56 -0.462,-0.56 -0.165,0 -0.467,0.101 -0.467,0.56 0,0.137 0.001,0.517 0.001,0.517 h 2.102 c 0,0.777 -0.739,1.42 -1.647,1.42 -0.907,0 -1.643,-0.629 -1.643,-1.406 0,-0.776 0.736,-1.406 1.643,-1.406 0.753,0 1.389,0.436 1.584,1.027 L 0.854,-1.247 c 0,0 0.001,-0.01 0.001,-0.151" /></g><g
           transform="translate(188.7872,192.4852)"
           id="g278"><path
             id="path280"
             style="fill:#191919;fill-opacity:1;fill-rule:nonzero;stroke:none"
             d="M 0,0 V 3.412 H -1.118 V 0 -0.372 H 0 1.209 V 0 Z" /></g><g
           transform="translate(207.7759,193.7006)"
           id="g282"><path
             id="path284"
             style="fill:#191919;fill-opacity:1;fill-rule:nonzero;stroke:none"
             d="M 0,0 H 1.093 C 0.981,0.808 0.235,1.043 -0.149,1.032 -0.518,1.021 -0.825,0.86 -1.039,0.653 c -0.001,0.062 0,0.265 0,0.265 L -2.146,0.917 -2.147,-1.588 h 1.108 c 0,0 -0.001,1.539 -0.001,1.645 0,0.218 0.226,0.461 0.53,0.461 C -0.206,0.518 0,0.275 0,0.057 Z" /></g><g
           transform="translate(197.3249,194.6144)"
           id="g286"><path
             id="path288"
             style="fill:#191919;fill-opacity:1;fill-rule:nonzero;stroke:none"
             d="m 0,0 v 0.444 c 0,0.387 0.264,0.488 0.438,0.488 0.177,0 0.437,-0.101 0.437,-0.488 0,-0.133 -0.001,-0.446 -0.001,-0.446 0,0 0.001,-0.317 0.001,-0.445 0,-0.388 -0.26,-0.487 -0.438,-0.487 C 0.264,-0.934 0,-0.835 0,-0.447 Z M 2.058,-0.028 C 2.058,0.844 1.395,1.166 1.295,1.214 0.919,1.391 0.438,1.392 0.011,1.12 0.011,1.143 0.01,1.265 0.01,1.265 h -1.103 v -3.766 h 1.101 v 1.386 c 0.005,-0.003 0.01,-0.006 0.015,-0.008 L 0.887,-2.501 H 1.98 L 1.2,-1.258 c 0.512,0.204 0.858,0.734 0.858,1.23" /></g><g
           transform="translate(115.7342,141.6366)"
           id="g290"><path
             id="path292"
             style="fill:#354f9f;fill-opacity:1;fill-rule:nonzero;stroke:none"
             d="M 0,0 C 0,0.091 0.003,0.124 -0.001,0.156 -0.026,0.362 -0.085,0.553 -0.224,0.709 -0.662,1.198 -1.193,1.524 -1.817,1.673 -2.111,1.744 -2.273,1.567 -2.22,1.261 -2.202,1.157 -2.176,1.053 -2.134,0.957 -1.938,0.502 -1.69,0.08 -1.378,-0.299 c 0.133,-0.161 0.286,-0.302 0.464,-0.408 0.399,-0.237 0.698,-0.118 0.835,0.336 C -0.037,-0.233 -0.018,-0.086 0,0 m 2.779,-0.705 c 0.266,-0.012 0.499,0.112 0.736,0.209 0.943,0.385 1.793,0.985 2.767,1.302 C 6.509,0.879 6.397,1.014 6.294,1.108 5.911,1.455 5.514,1.784 5.097,2.085 4.871,2.247 4.754,2.206 4.709,1.916 4.632,1.422 4.391,1.046 4.041,0.723 3.867,0.561 3.705,0.383 3.55,0.2 3.294,-0.103 2.996,-0.367 2.783,-0.71 2.777,-0.711 2.77,-0.712 2.765,-0.715 2.763,-0.717 2.764,-0.725 2.764,-0.729 c 0.005,0.008 0.01,0.016 0.015,0.024 m -6.513,-1.567 v 1.271 c 0.089,0.169 0.069,0.361 0.109,0.54 0.292,1.322 0.892,2.454 1.894,3.34 1.429,1.263 3.079,1.72 4.906,1.371 C 4.818,3.935 6.136,3.032 7.009,1.537 8.236,-0.562 8.21,-2.692 7.022,-4.814 6.861,-5.101 6.606,-5.32 6.488,-5.635 5.483,-5.15 4.609,-4.486 3.879,-3.611 3.253,-2.86 2.727,-2.029 2.099,-1.281 2.031,-1.199 2.024,-1.109 2.024,-1.009 2.022,0.413 2.117,1.822 2.549,3.184 2.616,3.398 2.556,3.506 2.359,3.567 1.933,3.7 1.51,3.843 1.083,3.972 0.929,4.018 0.759,4.076 0.622,3.923 0.488,3.773 0.532,3.595 0.594,3.44 0.847,2.806 0.944,2.143 0.978,1.464 1.047,0.075 0.994,-1.304 0.611,-2.648 0.196,-4.109 -0.624,-5.262 -1.854,-6.091 c -0.044,0.056 -0.084,0.116 -0.133,0.167 -0.781,0.817 -1.32,1.774 -1.584,2.9 -0.059,0.25 -0.053,0.515 -0.163,0.752" /></g><g
           transform="translate(122.2219,136.0015)"
           id="g294"><path
             id="path296"
             style="fill:#b80000;fill-opacity:1;fill-rule:nonzero;stroke:none"
             d="M 0,0 C 0.426,-0.21 0.87,-0.372 1.314,-0.532 1.475,-0.589 1.629,-0.658 1.778,-0.743 V -0.84 C 1.703,-0.857 1.629,-0.881 1.553,-0.891 0.617,-1.015 -0.321,-1.09 -1.264,-1 -1.919,-0.802 -2.445,-0.392 -2.922,0.1 -3.505,0.703 -4.01,1.375 -4.51,2.051 -4.641,2.228 -4.772,2.405 -4.932,2.622 -4.969,2.464 -4.993,2.357 -5.018,2.25 -5.246,1.294 -5.66,0.458 -6.422,-0.161 -6.82,-0.484 -7.28,-0.681 -7.739,-0.879 -8.315,-1.025 -8.892,-1.16 -9.542,-1.182 c 0.445,0.237 0.843,0.446 1.2,0.726 1.231,0.829 2.05,1.982 2.466,3.443 C -5.494,4.331 -5.44,5.71 -5.51,7.1 -5.544,7.778 -5.641,8.441 -5.894,9.075 -5.955,9.23 -6,9.408 -5.865,9.558 c 0.137,0.153 0.306,0.095 0.461,0.049 0.427,-0.129 0.85,-0.272 1.276,-0.405 0.196,-0.061 0.257,-0.169 0.189,-0.382 -0.432,-1.363 -0.527,-2.772 -0.525,-4.194 0,-0.1 0.007,-0.19 0.075,-0.271 0.628,-0.748 1.154,-1.58 1.78,-2.331 C -1.879,1.149 -1.005,0.485 0,0" /></g><g
           transform="translate(118.5176,140.927)"
           id="g298"><path
             id="path300"
             style="fill:#b80000;fill-opacity:1;fill-rule:nonzero;stroke:none"
             d="M 0,0 C 0.213,0.342 0.511,0.607 0.767,0.91 0.921,1.092 1.083,1.27 1.258,1.432 1.607,1.756 1.849,2.131 1.926,2.626 1.971,2.915 2.088,2.956 2.313,2.794 2.73,2.494 3.128,2.165 3.51,1.818 3.614,1.724 3.726,1.589 3.498,1.515 2.524,1.199 1.674,0.599 0.731,0.213 0.494,0.116 0.262,-0.007 -0.004,0.004 Z" /></g><g
           transform="translate(115.7342,141.6366)"
           id="g302"><path
             id="path304"
             style="fill:#b80000;fill-opacity:1;fill-rule:nonzero;stroke:none"
             d="m 0,0 c -0.018,-0.086 -0.037,-0.233 -0.079,-0.371 -0.137,-0.454 -0.436,-0.573 -0.835,-0.336 -0.178,0.106 -0.331,0.247 -0.464,0.408 -0.312,0.379 -0.56,0.801 -0.756,1.256 -0.042,0.096 -0.068,0.2 -0.086,0.304 -0.053,0.306 0.109,0.483 0.403,0.412 C -1.193,1.524 -0.662,1.198 -0.224,0.709 -0.085,0.553 -0.026,0.362 -0.001,0.156 0.003,0.124 0,0.091 0,0" /></g><g
           transform="translate(118.5132,140.9312)"
           id="g306"><path
             id="path308"
             style="fill:#b80000;fill-opacity:1;fill-rule:nonzero;stroke:none"
             d="m 0,0 c -0.005,-0.008 -0.01,-0.016 -0.015,-0.024 0,0.005 -0.001,0.012 10e-4,0.014 0.005,0.003 0.012,0.004 0.018,0.006 z" /></g><g
           transform="translate(120.9577,135.0015)"
           id="g310"><path
             id="path312"
             style="fill:#354f9f;fill-opacity:1;fill-rule:nonzero;stroke:none"
             d="m 0,0 c -0.301,-0.313 -0.692,-0.465 -1.077,-0.606 -1.861,-0.687 -3.632,-0.478 -5.303,0.624 -0.038,0.024 -0.064,0.068 -0.095,0.103 0.46,0.198 0.919,0.395 1.317,0.718 0.763,0.619 1.177,1.455 1.404,2.411 0.025,0.107 0.05,0.214 0.086,0.372 C -3.507,3.405 -3.376,3.228 -3.245,3.051 -2.746,2.374 -2.241,1.703 -1.657,1.1 -1.181,0.608 -0.655,0.198 0,0" /></g><g
           transform="translate(128.2794,139.4715)"
           id="g314"><path
             id="path316"
             style="fill:#808080;fill-opacity:1;fill-rule:nonzero;stroke:none"
             d="m 0,0 c 0.708,-0.074 1.41,-0.122 2.124,-0.122 0.205,0 0.64,0 0.64,0.249 0,0.185 -0.112,0.222 -1.224,0.222 -0.571,0 -1.198,0.164 -1.198,0.757 0,0.815 0.496,1.476 1.242,1.656 C 2,2.862 2.602,2.873 3.062,2.873 3.683,2.873 4.683,2.847 5.59,2.73 L 5.199,1.561 C 4.596,1.624 4,1.677 3.391,1.677 c -0.739,0 -0.913,-0.09 -0.913,-0.269 0,-0.154 0.124,-0.196 1.099,-0.196 0.708,0 1.329,-0.027 1.329,-0.82 0,-0.297 -0.161,-0.71 -0.291,-0.889 -0.385,-0.529 -1.006,-0.63 -2.23,-0.63 -0.994,0 -1.838,0.048 -2.664,0.175 z" /></g><g
           transform="translate(134.4373,141.6566)"
           id="g318"><path
             id="path320"
             style="fill:#808080;fill-opacity:1;fill-rule:nonzero;stroke:none"
             d="M 0,0 H 1.801 L 1.565,-0.751 h 0.013 c 0.378,0.598 0.869,0.862 1.658,0.862 0.621,0 1.174,-0.185 1.174,-0.741 0,-0.211 -0.062,-0.433 -0.137,-0.656 L 3.658,-3.201 H 1.783 l 0.316,0.968 c 0.062,0.191 0.168,0.513 0.168,0.635 0,0.206 -0.168,0.27 -0.367,0.27 -0.347,0 -0.515,-0.09 -0.664,-0.577 L 0.838,-3.201 H -1 Z" /></g><g
           transform="translate(142.5206,140.4027)"
           id="g322"><path
             id="path324"
             style="fill:#808080;fill-opacity:1;fill-rule:nonzero;stroke:none"
             d="m 0,0 c 0.018,0.095 0.037,0.175 0.037,0.254 0,0.238 -0.31,0.296 -0.472,0.296 C -0.87,0.55 -1.112,0.444 -1.298,0 Z m -1.546,-0.672 c -0.026,-0.069 -0.032,-0.122 -0.032,-0.169 0,-0.344 0.504,-0.355 0.901,-0.355 0.584,0 1.155,0.111 1.708,0.212 L 0.546,-1.825 c -0.67,-0.149 -1.372,-0.233 -2.068,-0.233 -0.851,0 -1.913,0.068 -1.913,1.005 0,0.698 0.367,1.482 0.714,1.836 0.553,0.561 1.224,0.582 2.031,0.582 1.665,0 2.305,-0.249 2.305,-1.111 0,-0.185 -0.199,-0.714 -0.311,-0.926 z" /></g><g
           transform="translate(144.3493,139.3446)"
           id="g326"><path
             id="path328"
             style="fill:#808080;fill-opacity:1;fill-rule:nonzero;stroke:none"
             d="m 0,0 c 0.497,-0.074 1,-0.09 1.503,-0.09 0.143,0 0.745,0 0.745,0.201 0,0.116 -0.074,0.148 -0.217,0.148 -0.18,0 -0.435,-0.016 -0.708,-0.016 -0.739,0 -1.161,0.096 -1.161,0.773 0,0.735 0.459,1.407 2.223,1.407 0.615,0 1.609,0 2.416,-0.116 L 4.509,1.328 c -0.354,0.074 -1.143,0.09 -1.373,0.09 -0.26,0 -0.888,-0.011 -0.888,-0.212 0,-0.132 0.081,-0.158 0.311,-0.158 0.136,0 0.348,0.01 0.633,0.01 0.603,0 1.143,-0.048 1.143,-0.693 C 4.335,-0.931 3,-1 1.814,-1 1.118,-1 0.435,-0.953 -0.255,-0.9 Z" /></g><g
           transform="translate(152.482,140.9953)"
           id="g330"><path
             id="path332"
             style="fill:#808080;fill-opacity:1;fill-rule:nonzero;stroke:none"
             d="m 0,0 c 0,0.302 -0.255,0.344 -0.509,0.344 -0.479,0 -0.746,-0.36 -0.746,-0.693 0,-0.244 0.23,-0.312 0.522,-0.312 C -0.143,-0.661 0,-0.196 0,0 m -3.124,-1.577 c 0.46,-0.132 1,-0.211 1.484,-0.211 0.547,0 1.187,0.142 1.292,0.682 H -0.36 c -0.274,-0.211 -0.665,-0.275 -1.044,-0.275 -0.72,0 -1.652,0.122 -1.652,0.905 0,0.328 0.087,0.651 0.255,0.947 0.385,0.672 0.932,0.878 2.298,0.878 1.863,0 2.36,-0.381 2.36,-1.27 0,-0.513 -0.273,-1.307 -0.602,-1.857 -0.485,-0.82 -1.895,-0.873 -2.566,-0.873 -0.558,0 -1.335,0.08 -2.074,0.233 z" /></g><g
           transform="translate(156.8822,139.4133)"
           id="g334"><path
             id="path336"
             style="fill:#808080;fill-opacity:1;fill-rule:nonzero;stroke:none"
             d="M 0,0 -0.826,-0.958 H -2.82 l 1.584,1.535 -0.708,1.666 h 1.901 L 0.236,1.238 1.074,2.243 H 3.118 L 1.41,0.609 2.099,-0.958 H 0.292 Z" /></g><g
           transform="translate(85.1985,140.9135)"
           id="g338"><path
             id="path340"
             style="fill:#a3834a;fill-opacity:1;fill-rule:nonzero;stroke:none"
             d="M 0,0 C -0.128,-0.264 -0.197,-0.57 -0.209,-0.919 V -1.1 c 0,-0.062 0.002,-0.124 0.006,-0.187 0.012,-0.13 0.038,-0.257 0.078,-0.381 C -0.086,-1.793 -0.02,-1.903 0.072,-2 0.167,-2.1 0.278,-2.162 0.403,-2.187 0.529,-2.211 0.657,-2.223 0.788,-2.223 h 0.027 0.027 l 1.481,0.006 V -2.914 H 0.8 c -0.243,0 -0.477,0.021 -0.702,0.062 -0.224,0.04 -0.437,0.135 -0.636,0.284 -0.238,0.182 -0.406,0.404 -0.501,0.666 -0.096,0.262 -0.148,0.53 -0.155,0.805 -0.005,0.059 -0.005,0.117 -0.004,0.172 0.002,0.056 0.006,0.112 0.009,0.167 0.044,0.632 0.228,1.096 0.553,1.393 0.324,0.297 0.811,0.446 1.46,0.446 L 2.323,1.086 V 0.401 H 0.842 C 0.408,0.397 0.127,0.264 0,0" /></g><g
           transform="translate(89.2295,139.6656)"
           id="g342"><path
             id="path344"
             style="fill:#a3834a;fill-opacity:1;fill-rule:nonzero;stroke:none"
             d="M 0,0 H 1.278 L 0.627,1.538 Z m 1.141,2.334 1.827,-4 H 1.965 l -0.394,0.953 h -1.864 l -0.382,-0.953 h -0.949 l 1.809,4 z" /></g><g
           transform="translate(92.0545,141.298)"
           id="g346"><path
             id="path348"
             style="fill:#a3834a;fill-opacity:1;fill-rule:nonzero;stroke:none"
             d="M 0,0 V 0.696 H 3.703 V 0 H 2.311 V -3.298 H 1.38 V 0 Z" /></g><g
           transform="translate(97.5905,141.2869)"
           id="g350"><path
             id="path352"
             style="fill:#b80000;fill-opacity:1;fill-rule:nonzero;stroke:none"
             d="m 0,0 c -0.195,-0.004 -0.359,-0.042 -0.493,-0.114 -0.133,-0.073 -0.2,-0.211 -0.2,-0.415 0,-0.156 0.057,-0.268 0.171,-0.334 0.113,-0.067 0.245,-0.101 0.397,-0.101 l 1.194,0.006 c 0.044,-0.004 0.09,-0.006 0.138,-0.006 0.047,0 0.095,-0.002 0.143,-0.005 0.139,-0.008 0.276,-0.029 0.412,-0.064 0.135,-0.036 0.255,-0.1 0.358,-0.193 0.096,-0.081 0.167,-0.18 0.215,-0.295 0.048,-0.115 0.078,-0.234 0.09,-0.356 C 2.429,-1.915 2.432,-1.951 2.434,-1.986 2.436,-2.021 2.437,-2.058 2.437,-2.095 2.429,-2.559 2.291,-2.874 2.025,-3.039 1.758,-3.204 1.396,-3.287 0.938,-3.287 h -2.401 v 0.713 h 2.257 c 0.199,-0.004 0.372,0.026 0.517,0.089 0.145,0.063 0.204,0.206 0.176,0.429 -0.02,0.175 -0.089,0.282 -0.209,0.323 -0.119,0.041 -0.261,0.064 -0.424,0.067 l -1.063,0.006 c -0.442,-0.004 -0.791,0.079 -1.048,0.248 -0.257,0.169 -0.383,0.474 -0.379,0.916 0.008,0.464 0.146,0.781 0.415,0.95 0.269,0.169 0.632,0.253 1.09,0.253 L 2.228,0.713 V 0 Z" /></g><g
           transform="translate(101.0633,141.4929)"
           id="g354"><path
             id="path356"
             style="fill:#007b00;fill-opacity:1;fill-rule:nonzero;stroke:none"
             d="M 0,0 C 0.261,0.334 0.833,0.501 1.717,0.501 L 3.091,0.507 V -0.189 H 1.64 C 1.261,-0.197 0.983,-0.273 0.806,-0.418 0.629,-0.563 0.531,-0.813 0.511,-1.17 l 2.58,0.006 v -0.691 h -2.58 v -1.638 h -0.902 v 1.838 c 0,0.769 0.13,1.321 0.391,1.655" /></g><g
           transform="translate(105.6768,140.9135)"
           id="g358"><path
             id="path360"
             style="fill:#354f9f;fill-opacity:1;fill-rule:nonzero;stroke:none"
             d="M 0,0 C -0.128,-0.264 -0.197,-0.57 -0.209,-0.919 V -1.1 c 0,-0.062 0.002,-0.124 0.006,-0.187 0.012,-0.13 0.038,-0.257 0.078,-0.381 C -0.086,-1.793 -0.02,-1.903 0.072,-2 0.167,-2.1 0.278,-2.162 0.403,-2.187 0.529,-2.211 0.657,-2.223 0.788,-2.223 h 0.027 0.027 l 1.481,0.006 V -2.914 H 0.8 c -0.243,0 -0.477,0.021 -0.702,0.062 -0.224,0.04 -0.437,0.135 -0.636,0.284 -0.238,0.182 -0.406,0.404 -0.501,0.666 -0.096,0.262 -0.148,0.53 -0.155,0.805 -0.005,0.059 -0.005,0.117 -0.004,0.172 0.002,0.056 0.006,0.112 0.009,0.167 0.044,0.632 0.228,1.096 0.553,1.393 0.324,0.297 0.811,0.446 1.46,0.446 L 2.323,1.086 V 0.401 H 0.842 C 0.408,0.397 0.127,0.264 0,0" /></g><path
           id="path362"
           style="fill:#354f9f;fill-opacity:1;fill-rule:nonzero;stroke:none"
           d="m 165.848,142.873 h -1.313 v -2.67 h 1.313 z m 0.102,-3.149 h -1.415 v -2.38 H 164 v 6 h 1.95 c 0.252,0 0.433,-0.172 0.433,-0.424 v -2.764 c 0,-0.251 -0.181,-0.432 -0.433,-0.432" /><path
           id="path364"
           style="fill:#354f9f;fill-opacity:1;fill-rule:nonzero;stroke:none"
           d="m 169.232,142.873 h -1.471 v -5.057 h 1.471 z m 0.102,-5.529 h -1.683 c -0.252,0 -0.425,0.173 -0.425,0.424 v 5.152 c 0,0.252 0.173,0.424 0.425,0.424 h 1.683 c 0.252,0 0.432,-0.172 0.432,-0.424 v -5.152 c 0,-0.251 -0.18,-0.424 -0.432,-0.424" /><g
           transform="translate(172.7015,137.3444)"
           id="g366"><path
             id="path368"
             style="fill:#354f9f;fill-opacity:1;fill-rule:nonzero;stroke:none"
             d="M 0,0 H -1.55 C -1.801,0 -1.974,0.173 -1.974,0.424 V 5.576 C -1.974,5.827 -1.801,6 -1.55,6 H 0 C 0.252,6 0.432,5.827 0.432,5.576 V 4.178 H -0.102 V 5.529 H -1.439 V 0.471 h 1.337 V 1.948 H 0.432 V 0.424 C 0.432,0.173 0.252,0 0,0" /></g><g
           transform="translate(175.9902,137.3444)"
           id="g370"><path
             id="path372"
             style="fill:#354f9f;fill-opacity:1;fill-rule:nonzero;stroke:none"
             d="M 0,0 -1.384,2.882 V 0 h -0.535 v 6 h 0.535 V 3.306 L -0.126,6 H 0.456 V 5.969 L -0.905,3.11 0.59,0.031 V 0 Z" /></g><g
           transform="translate(177.0698,137.3444)"
           id="g374"><path
             id="path376"
             style="fill:#354f9f;fill-opacity:1;fill-rule:nonzero;stroke:none"
             d="M 0,0 V 6 H 1.95 V 5.529 H 0.535 V 3.291 H 1.824 V 2.812 H 0.535 V 0.471 H 1.974 V 0 Z" /></g><g
           transform="translate(181.0194,142.8732)"
           id="g378"><path
             id="path380"
             style="fill:#354f9f;fill-opacity:1;fill-rule:nonzero;stroke:none"
             d="M 0,0 V -5.529 H -0.535 V 0 H -1.471 V 0.471 H 0.928 V 0 Z" /></g><g
           transform="translate(186.039,137.3444)"
           id="g382"><path
             id="path384"
             style="fill:#b80000;fill-opacity:1;fill-rule:nonzero;stroke:none"
             d="m 0,0 h -1.51 c -0.252,0 -0.433,0.173 -0.433,0.424 v 1.524 h 0.535 V 0.471 H -0.11 V 1.9 L -1.769,3.903 C -1.895,4.052 -1.943,4.155 -1.943,4.359 V 5.576 C -1.943,5.827 -1.762,6 -1.51,6 H 0 C 0.252,6 0.425,5.827 0.425,5.576 V 4.178 H -0.11 V 5.529 H -1.408 V 4.265 L 0.259,2.262 C 0.385,2.113 0.425,2.01 0.425,1.814 V 0.424 C 0.425,0.173 0.252,0 0,0" /></g><g
           transform="translate(189.5166,137.3444)"
           id="g386"><path
             id="path388"
             style="fill:#b80000;fill-opacity:1;fill-rule:nonzero;stroke:none"
             d="M 0,0 -1.605,4.414 V 0 h -0.503 v 6 h 0.401 L -0.134,1.665 V 6 H 0.369 V 0 Z" /></g><g
           transform="translate(190.8472,137.3444)"
           id="g390"><path
             id="path392"
             style="fill:#b80000;fill-opacity:1;fill-rule:nonzero;stroke:none"
             d="M 0,0 V 6 H 1.95 V 5.529 H 0.535 V 3.291 H 1.824 V 2.812 H 0.535 V 0.471 H 1.974 V 0 Z" /></g><g
           transform="translate(195.5755,137.3444)"
           id="g394"><path
             id="path396"
             style="fill:#b80000;fill-opacity:1;fill-rule:nonzero;stroke:none"
             d="m 0,0 h -1.51 c -0.252,0 -0.433,0.173 -0.433,0.424 v 1.524 h 0.535 V 0.471 H -0.11 V 1.9 L -1.77,3.903 C -1.895,4.052 -1.943,4.155 -1.943,4.359 V 5.576 C -1.943,5.827 -1.762,6 -1.51,6 H 0 C 0.252,6 0.425,5.827 0.425,5.576 V 4.178 H -0.11 V 5.529 H -1.408 V 4.265 L 0.259,2.262 C 0.385,2.113 0.425,2.01 0.425,1.814 V 0.424 C 0.425,0.173 0.252,0 0,0" /></g><g
           transform="translate(203.8068,137.916)"
           id="g398"><path
             id="path400"
             style="fill:#191919;fill-opacity:1;fill-rule:nonzero;stroke:none"
             d="m 0,0 c -0.064,-0.038 -0.141,-0.042 -0.213,-0.029 0.049,-0.119 0.069,-0.247 0.1,-0.371 0.035,-0.122 0.079,-0.27 0.209,-0.321 0.085,-0.04 0.183,-0.001 0.247,0.061 0.101,0.097 0.162,0.225 0.222,0.349 0.02,0.044 0.04,0.088 0.061,0.132 C 0.534,-0.18 0.444,-0.151 0.365,-0.105 0.288,-0.058 0.271,0.057 0.176,0.079 0.108,0.081 0.057,0.029 0,0 M 4.952,0.864 C 4.702,0.809 4.447,0.727 4.188,0.768 4.21,0.596 4.184,0.421 4.122,0.26 4.09,0.241 4.149,0.216 4.157,0.246 L 4.177,0.234 C 4.199,0.174 4.265,0.152 4.323,0.146 4.473,0.131 4.622,0.164 4.763,0.208 4.729,0.24 4.684,0.27 4.677,0.32 4.682,0.342 4.692,0.361 4.701,0.381 4.804,0.377 4.906,0.36 5.008,0.348 5.147,0.452 5.234,0.629 5.221,0.803 5.219,0.85 5.188,0.897 5.139,0.904 5.075,0.913 5.01,0.889 4.952,0.864 M 5.742,1.143 5.739,1.137 C 5.608,1.097 5.483,1.041 5.353,0.998 5.383,0.808 5.344,0.608 5.252,0.44 5.212,0.414 5.295,0.4 5.279,0.439 5.288,0.44 5.306,0.44 5.315,0.441 5.318,0.406 5.359,0.397 5.387,0.399 5.498,0.408 5.603,0.454 5.7,0.507 5.668,0.533 5.631,0.556 5.611,0.593 5.597,0.618 5.614,0.645 5.621,0.67 5.7,0.668 5.779,0.66 5.858,0.647 5.939,0.743 6,0.87 5.976,0.999 5.962,1.061 5.941,1.131 5.883,1.166 5.836,1.192 5.787,1.159 5.742,1.143 M 6.47,1.46 C 6.342,1.402 6.214,1.342 6.086,1.285 6.136,1.078 6.093,0.859 5.987,0.676 6.014,0.693 6.052,0.699 6.073,0.723 6.116,0.695 6.17,0.698 6.218,0.711 6.312,0.737 6.402,0.779 6.484,0.833 6.437,0.867 6.377,0.924 6.429,0.983 6.488,0.976 6.548,0.971 6.607,0.962 6.681,1.062 6.754,1.187 6.724,1.316 6.69,1.397 6.623,1.468 6.536,1.493 6.514,1.482 6.492,1.471 6.47,1.46 M 2.424,1.738 C 2.312,1.721 2.198,1.692 2.098,1.636 1.981,1.553 1.893,1.415 1.899,1.268 1.904,1.125 1.984,0.998 2.075,0.893 2.244,0.708 2.467,0.562 2.717,0.519 2.905,0.49 3.107,0.494 3.28,0.582 3.441,0.659 3.59,0.791 3.633,0.969 3.674,1.127 3.661,1.32 3.535,1.437 3.383,1.579 3.187,1.668 2.985,1.709 2.801,1.748 2.611,1.765 2.424,1.738 M 7.129,1.814 C 7.02,1.749 6.909,1.687 6.797,1.627 6.849,1.426 6.812,1.212 6.73,1.024 6.764,1.047 6.796,1.072 6.826,1.098 6.879,1.042 6.956,1.09 7.01,1.121 7.256,1.273 7.319,1.616 7.231,1.876 7.197,1.855 7.163,1.835 7.129,1.814 M -1.948,2.061 C -2.079,1.985 -2.194,1.865 -2.224,1.712 -2.259,1.53 -2.187,1.335 -2.054,1.208 -1.969,1.125 -1.856,1.077 -1.741,1.055 L -1.74,1.052 c 0.07,-0.005 0.143,-0.027 0.213,-0.009 0.242,0.007 0.479,0.098 0.673,0.242 0.144,0.111 0.271,0.273 0.272,0.463 0.005,0.093 -0.051,0.175 -0.11,0.242 -0.129,0.135 -0.316,0.195 -0.496,0.217 -0.26,0.027 -0.532,-0.014 -0.76,-0.146 M 7.628,2.168 C 7.575,2.125 7.522,2.08 7.466,2.04 7.54,1.91 7.511,1.754 7.489,1.614 7.511,1.639 7.532,1.665 7.553,1.69 7.555,1.676 7.559,1.649 7.561,1.636 7.598,1.649 7.636,1.671 7.651,1.71 7.697,1.809 7.719,1.92 7.717,2.03 7.719,2.098 7.694,2.163 7.701,2.231 7.676,2.211 7.652,2.19 7.628,2.168 M 0.195,2.686 C 0.2,2.628 0.202,2.569 0.202,2.511 0.193,2.464 0.169,2.424 0.136,2.391 0.129,2.429 0.118,2.466 0.104,2.502 0.083,2.557 0.063,2.612 0.043,2.668 -0.375,2.613 -0.785,2.494 -1.166,2.314 -1.172,2.322 -1.184,2.339 -1.191,2.347 -1.22,2.33 -1.248,2.314 -1.277,2.298 -1.164,2.295 -1.052,2.279 -0.943,2.25 -0.851,2.223 -0.761,2.188 -0.68,2.136 l 0.003,0.002 C -0.632,2.103 -0.588,2.066 -0.549,2.025 -0.445,1.903 -0.429,1.726 -0.49,1.581 -0.601,1.307 -0.831,1.085 -1.108,0.982 -1.217,0.944 -1.332,0.921 -1.448,0.916 -1.579,0.911 -1.71,0.929 -1.834,0.97 -1.924,1.003 -2.008,1.05 -2.084,1.108 -2.073,0.98 -2.037,0.854 -1.98,0.739 -2.032,0.715 -2.1,0.655 -2.054,0.594 c 0.061,-0.065 0.156,-0.082 0.241,-0.099 0.225,-0.278 0.527,-0.483 0.844,-0.643 0.26,-0.132 0.533,-0.236 0.816,-0.308 -0.024,0.075 -0.042,0.152 -0.057,0.23 -0.014,0.069 -0.021,0.14 -0.04,0.208 -0.063,0.05 -0.111,0.115 -0.126,0.195 -0.002,0.054 0.005,0.109 0.034,0.155 -0.007,-0.059 -0.013,-0.119 0.002,-0.177 0.036,-0.08 0.112,-0.14 0.2,-0.15 C -0.089,0 -0.042,0.025 0.002,0.047 0.057,0.078 0.113,0.114 0.177,0.118 0.249,0.114 0.28,0.04 0.316,-0.01 h 0.002 c 0.071,-0.081 0.178,-0.14 0.288,-0.124 0.057,0.007 0.105,0.043 0.145,0.081 0.036,0.045 0.065,0.094 0.086,0.146 C 0.84,0.094 0.846,0.095 0.849,0.095 0.846,-0.021 0.764,-0.119 0.663,-0.166 0.653,-0.216 0.637,-0.264 0.622,-0.313 0.582,-0.392 0.54,-0.47 0.489,-0.542 0.466,-0.559 0.497,-0.563 0.508,-0.564 0.68,-0.58 0.852,-0.587 1.024,-0.592 c 0.432,-0.013 0.867,-0.007 1.293,0.075 0.297,0.058 0.589,0.147 0.864,0.273 0.215,0.102 0.424,0.233 0.577,0.42 C 3.894,0.349 3.956,0.587 3.895,0.802 3.846,0.966 3.769,1.121 3.68,1.267 3.707,1.165 3.732,1.059 3.716,0.953 3.711,0.886 3.683,0.826 3.659,0.764 L 3.66,0.751 H 3.652 C 3.578,0.632 3.468,0.537 3.341,0.478 2.911,0.279 2.359,0.389 2.041,0.741 1.903,0.895 1.776,1.084 1.779,1.299 1.783,1.472 1.905,1.617 2.051,1.698 2.296,1.835 2.586,1.868 2.862,1.843 2.983,1.827 3.104,1.803 3.215,1.75 3.253,1.732 3.292,1.716 3.332,1.702 3.223,1.826 3.096,1.931 2.967,2.032 2.932,2.059 2.894,2.082 2.856,2.104 2.317,2.416 1.711,2.608 1.093,2.678 1.074,2.627 1.055,2.575 1.037,2.524 1.018,2.474 1.001,2.423 0.985,2.372 0.942,2.414 0.928,2.473 0.922,2.53 0.924,2.585 0.928,2.639 0.933,2.693 0.688,2.711 0.44,2.708 0.195,2.686 M -0.56,2.976 C -0.59,2.912 -0.482,2.935 -0.446,2.938 -0.322,2.943 -0.2,2.962 -0.076,2.975 -0.085,2.993 -0.094,3.01 -0.103,3.027 -0.11,3.046 -0.117,3.066 -0.124,3.086 -0.127,3.094 -0.135,3.11 -0.139,3.118 -0.281,3.077 -0.426,3.04 -0.56,2.976 m 0.169,0.135 c 0.074,0.025 0.148,0.052 0.222,0.078 C -0.177,3.207 -0.185,3.225 -0.193,3.243 -0.26,3.201 -0.328,3.159 -0.391,3.111 M 1.325,3.272 C 1.321,3.261 1.315,3.239 1.311,3.228 H 1.308 C 1.302,3.213 1.295,3.197 1.288,3.182 1.281,3.163 1.274,3.144 1.266,3.125 1.261,3.111 1.255,3.098 1.249,3.084 1.239,3.058 1.229,3.032 1.219,3.006 1.75,2.96 2.279,2.84 2.759,2.604 3.358,2.317 3.864,1.851 4.22,1.292 4.241,1.262 4.28,1.201 4.319,1.242 4.369,1.348 4.351,1.471 4.341,1.583 4.313,1.825 4.153,2.023 3.989,2.191 3.734,2.439 3.431,2.634 3.115,2.793 2.557,3.069 1.945,3.234 1.325,3.272 M 0.054,3.172 C 0.056,3.163 0.06,3.145 0.062,3.137 H 0.066 C 0.074,3.113 0.083,3.089 0.091,3.065 0.099,3.041 0.107,3.017 0.114,2.993 0.412,3.02 0.711,3.03 1.009,3.017 1.019,3.05 1.029,3.083 1.039,3.116 1.05,3.149 1.061,3.182 1.072,3.215 h 0.002 c 0.007,0.023 0.015,0.046 0.022,0.069 -0.35,0 -0.7,-0.035 -1.042,-0.112 M -0.024,3.353 C -0.017,3.337 -0.01,3.321 -0.002,3.305 0.005,3.285 0.014,3.265 0.022,3.245 0.387,3.346 0.765,3.402 1.144,3.408 1.16,3.448 1.177,3.488 1.193,3.528 1.216,3.582 1.239,3.636 1.262,3.69 1.301,3.775 1.343,3.859 1.38,3.945 1.419,4.009 1.447,4.08 1.485,4.145 0.96,3.927 0.457,3.657 -0.024,3.353 m 4.4,0.917 C 3.971,4.186 3.574,4.056 3.207,3.864 3.029,3.767 2.852,3.658 2.72,3.501 2.667,3.436 2.622,3.352 2.641,3.265 2.662,3.184 2.736,3.131 2.81,3.101 3.162,2.962 3.497,2.778 3.799,2.549 4.026,2.375 4.238,2.176 4.398,1.937 4.486,1.801 4.568,1.648 4.563,1.481 4.563,1.414 4.526,1.356 4.498,1.297 4.627,1.32 4.749,1.369 4.872,1.413 5.333,1.586 5.785,1.779 6.234,1.982 6.548,2.127 6.862,2.272 7.16,2.448 7.232,2.49 7.303,2.54 7.344,2.615 7.412,2.728 7.412,2.868 7.386,2.994 7.328,3.243 7.176,3.459 7.005,3.646 6.796,3.869 6.547,4.054 6.28,4.2 6.114,4.267 5.936,4.303 5.76,4.33 5.3,4.396 4.83,4.362 4.376,4.27 M 1.911,4.31 C 1.873,4.295 1.831,4.287 1.797,4.263 1.765,4.213 1.741,4.16 1.714,4.107 1.64,3.969 1.574,3.827 1.507,3.685 1.485,3.638 1.464,3.592 1.444,3.544 H 1.441 C 1.423,3.498 1.403,3.451 1.383,3.405 1.511,3.398 1.64,3.386 1.768,3.406 1.866,3.419 1.96,3.451 2.05,3.489 2.721,3.774 3.394,4.06 4.091,4.274 4.526,4.408 4.971,4.512 5.425,4.547 5.383,4.559 5.341,4.574 5.298,4.58 5.098,4.633 4.894,4.666 4.689,4.689 3.749,4.787 2.797,4.623 1.911,4.31 m -5.45,0.971 C -3.625,5.234 -3.693,5.154 -3.722,5.06 -3.745,4.998 -3.749,4.929 -3.736,4.863 c 0.007,-0.03 0.016,-0.06 0.031,-0.087 0.068,-0.17 0.271,-0.262 0.446,-0.222 0.159,0.03 0.292,0.167 0.312,0.328 0.019,0.125 -0.028,0.257 -0.121,0.341 -0.123,0.118 -0.323,0.14 -0.471,0.058 M 4.553,5.668 C 4.471,5.461 4.518,5.198 4.694,5.053 4.788,4.974 4.921,4.94 5.041,4.972 5.189,5.008 5.307,5.129 5.356,5.271 5.369,5.304 5.379,5.339 5.383,5.375 5.399,5.457 5.396,5.544 5.37,5.623 5.329,5.812 5.154,5.974 4.955,5.969 4.773,5.97 4.615,5.833 4.553,5.668 M 2.853,5.66 C 2.448,5.313 2.14,4.869 1.877,4.409 2.796,4.724 3.774,4.884 4.746,4.821 4.563,4.899 4.409,5.048 4.34,5.236 4.289,5.372 4.294,5.531 4.365,5.66 4.443,5.805 4.581,5.908 4.728,5.978 4.739,5.981 4.77,6 4.742,6.006 4.495,6.106 4.227,6.161 3.959,6.145 3.546,6.123 3.162,5.925 2.853,5.66 M 4.202,6.428 H 4.485 C 4.76,6.408 5.056,6.352 5.264,6.157 5.422,6.013 5.484,5.79 5.471,5.581 5.457,5.364 5.417,5.135 5.283,4.958 5.224,4.877 5.135,4.825 5.041,4.793 5.632,4.728 6.218,4.574 6.75,4.305 7.037,4.158 7.308,3.975 7.534,3.744 7.724,3.547 7.885,3.31 7.941,3.038 7.974,2.884 7.964,2.722 7.916,2.572 8.014,2.331 7.993,2.057 7.913,1.814 7.842,1.596 7.707,1.394 7.513,1.268 7.458,1.231 7.389,1.234 7.326,1.241 7.235,1.104 7.124,0.98 6.997,0.876 7.26,0.795 7.514,0.677 7.733,0.507 7.902,0.376 8.049,0.207 8.128,0.005 8.165,-0.088 8.182,-0.187 8.193,-0.285 V -0.403 C 8.185,-0.461 8.174,-0.522 8.136,-0.569 8.092,-0.622 8.002,-0.635 7.95,-0.587 7.926,-0.562 7.934,-0.523 7.933,-0.492 7.946,-0.371 7.891,-0.258 7.857,-0.146 7.783,0.075 7.65,0.281 7.456,0.414 7.27,0.558 7.033,0.604 6.818,0.689 6.734,0.728 6.639,0.718 6.554,0.753 6.482,0.672 6.401,0.599 6.313,0.536 6.603,0.435 6.885,0.296 7.115,0.089 7.315,-0.087 7.47,-0.325 7.506,-0.593 7.52,-0.717 7.535,-0.854 7.472,-0.967 7.429,-1.044 7.298,-1.068 7.247,-0.989 7.223,-0.919 7.255,-0.842 7.233,-0.771 7.175,-0.573 7.112,-0.372 6.993,-0.201 6.883,-0.04 6.726,0.084 6.555,0.173 6.425,0.232 6.288,0.273 6.154,0.321 6.078,0.346 6.002,0.386 5.919,0.376 5.867,0.372 5.818,0.392 5.772,0.413 5.691,0.339 5.599,0.28 5.505,0.224 5.562,0.193 5.626,0.177 5.686,0.151 5.954,0.039 6.212,-0.106 6.426,-0.305 6.624,-0.488 6.783,-0.724 6.837,-0.992 6.865,-1.139 6.884,-1.297 6.835,-1.442 6.815,-1.506 6.762,-1.556 6.697,-1.572 H 6.639 c -0.037,0.012 -0.08,0.027 -0.09,0.068 -0.018,0.078 0.014,0.159 -0.01,0.235 -0.072,0.246 -0.151,0.497 -0.31,0.702 -0.128,0.168 -0.303,0.298 -0.492,0.39 C 5.475,-0.068 5.199,0.006 4.938,0.119 4.712,-0.022 4.437,-0.039 4.177,-0.037 4.108,-0.039 4.04,-0.024 3.976,-0.001 3.794,-0.217 3.552,-0.376 3.298,-0.496 3.058,-0.605 2.807,-0.687 2.552,-0.749 2.149,-0.845 1.735,-0.873 1.323,-0.875 c -0.422,0.009 -0.845,0.018 -1.261,0.093 -0.5,0.085 -0.979,0.274 -1.416,0.53 -0.034,-0.115 -0.06,-0.232 -0.085,-0.349 -0.017,-0.079 0.006,-0.16 -0.009,-0.239 -0.011,-0.065 -0.098,-0.088 -0.145,-0.046 -0.064,0.055 -0.073,0.146 -0.082,0.224 -0.012,0.195 0.017,0.39 0.074,0.576 -0.123,0.093 -0.24,0.194 -0.342,0.309 -0.107,-0.104 -0.194,-0.229 -0.255,-0.366 -0.085,-0.189 -0.131,-0.392 -0.174,-0.594 -0.018,-0.083 0.005,-0.168 -0.011,-0.251 -0.015,-0.069 -0.114,-0.08 -0.156,-0.031 -0.058,0.066 -0.066,0.159 -0.072,0.243 -0.007,0.254 0.041,0.512 0.156,0.739 0.087,0.173 0.209,0.326 0.35,0.458 -0.179,0.235 -0.273,0.533 -0.255,0.829 0.004,0.095 0.025,0.189 0.044,0.282 0.055,0.129 0.088,0.267 0.156,0.39 0.061,0.076 0.104,0.172 0.191,0.221 0.101,0.032 0.16,0.126 0.243,0.186 0.099,0.07 0.197,0.144 0.304,0.204 0.065,0.039 0.136,0.07 0.196,0.118 0.314,0.253 0.64,0.492 0.979,0.71 -0.142,0.304 -0.3,0.601 -0.487,0.879 C -0.936,4.539 -1.171,4.821 -1.459,5.041 -1.72,5.243 -2.031,5.386 -2.36,5.424 -2.624,5.458 -2.894,5.422 -3.148,5.344 -3.015,5.283 -2.879,5.204 -2.802,5.074 -2.734,4.962 -2.744,4.814 -2.813,4.704 -2.912,4.544 -3.09,4.438 -3.275,4.413 -3.412,4.394 -3.559,4.437 -3.652,4.542 -3.755,4.655 -3.791,4.811 -3.807,4.959 v 0.173 c 0.021,0.139 0.092,0.272 0.209,0.354 0.203,0.145 0.462,0.174 0.705,0.183 0.299,0 0.6,-0.039 0.886,-0.126 0.401,-0.131 0.734,-0.407 1.019,-0.709 0.374,-0.403 0.673,-0.87 0.911,-1.363 0.522,0.323 1.07,0.604 1.643,0.824 0.327,0.577 0.712,1.134 1.215,1.571 0.209,0.178 0.44,0.336 0.7,0.429 0.232,0.081 0.477,0.115 0.721,0.133" /></g><g
           transform="translate(211.5076,140.1474)"
           id="g402"><path
             id="path404"
             style="fill:#74b743;fill-opacity:1;fill-rule:nonzero;stroke:none"
             d="m 0,0 c -0.024,-0.021 -0.049,-0.041 -0.072,-0.063 -0.054,-0.044 -0.106,-0.088 -0.163,-0.128 0.074,-0.13 0.045,-0.286 0.024,-0.427 0.021,0.026 0.042,0.051 0.063,0.076 0.002,-0.013 0.006,-0.04 0.008,-0.054 0.038,0.013 0.075,0.035 0.091,0.074 0.045,0.1 0.068,0.211 0.065,0.32 C 0.018,-0.134 -0.007,-0.068 0,0" /></g><g
           transform="translate(210.9356,139.7305)"
           id="g406"><path
             id="path408"
             style="fill:#74b743;fill-opacity:1;fill-rule:nonzero;stroke:none"
             d="m 0,0 c -0.109,-0.065 -0.22,-0.127 -0.331,-0.187 0.052,-0.201 0.014,-0.416 -0.068,-0.603 0.034,0.022 0.066,0.047 0.096,0.074 0.053,-0.056 0.13,-0.008 0.184,0.022 0.247,0.153 0.31,0.495 0.221,0.756 C 0.068,0.04 0.034,0.02 0,0" /></g><g
           transform="translate(210.4139,138.878)"
           id="g410"><path
             id="path412"
             style="fill:#74b743;fill-opacity:1;fill-rule:nonzero;stroke:none"
             d="M 0,0 C 0.074,0.1 0.147,0.225 0.117,0.354 0.083,0.435 0.016,0.506 -0.071,0.531 -0.093,0.52 -0.115,0.509 -0.138,0.498 -0.266,0.44 -0.393,0.38 -0.521,0.323 c 0.05,-0.207 0.007,-0.426 -0.099,-0.609 0.027,0.017 0.064,0.023 0.085,0.047 0.044,-0.028 0.097,-0.025 0.146,-0.012 0.094,0.026 0.184,0.068 0.266,0.122 -0.047,0.034 -0.107,0.091 -0.055,0.15 C -0.119,0.014 -0.059,0.009 0,0" /></g><g
           transform="translate(209.6898,139.0824)"
           id="g414"><path
             id="path416"
             style="fill:#74b743;fill-opacity:1;fill-rule:nonzero;stroke:none"
             d="m 0,0 c -0.047,0.026 -0.096,-0.007 -0.141,-0.023 l -0.003,-0.006 c -0.131,-0.04 -0.256,-0.096 -0.386,-0.139 0.03,-0.19 -0.009,-0.39 -0.101,-0.559 0.007,0 0.02,0 0.027,0 0.009,0.001 0.027,0.001 0.036,0.001 0.003,-0.034 0.044,-0.043 0.072,-0.041 0.111,0.009 0.216,0.055 0.313,0.108 -0.032,0.026 -0.069,0.049 -0.089,0.085 -0.014,0.026 0.003,0.053 0.01,0.078 0.079,-0.002 0.158,-0.011 0.237,-0.024 0.081,0.097 0.142,0.224 0.118,0.352 C 0.079,-0.105 0.058,-0.035 0,0" /></g><g
           transform="translate(208.9456,138.8198)"
           id="g418"><path
             id="path420"
             style="fill:#74b743;fill-opacity:1;fill-rule:nonzero;stroke:none"
             d="m 0,0 c -0.064,0.009 -0.129,-0.015 -0.187,-0.04 -0.25,-0.055 -0.505,-0.137 -0.764,-0.096 0.023,-0.172 -0.004,-0.347 -0.065,-0.508 0.008,-0.003 0.026,-0.01 0.034,-0.014 l 0.021,-0.011 c 0.021,-0.061 0.088,-0.083 0.146,-0.089 0.149,-0.015 0.298,0.018 0.439,0.062 -0.034,0.032 -0.079,0.062 -0.086,0.112 0.005,0.022 0.015,0.041 0.025,0.061 0.102,-0.004 0.204,-0.021 0.306,-0.033 0.139,0.104 0.226,0.281 0.213,0.456 C 0.081,-0.054 0.049,-0.006 0,0" /></g><g
           transform="translate(202.036,139.968)"
           id="g422"><path
             id="path424"
             style="fill:#ffffff;fill-opacity:1;fill-rule:nonzero;stroke:none"
             d="M 0,0 C 0.218,0.102 0.478,0.084 0.695,-0.012 0.833,-0.073 0.964,-0.172 1.017,-0.318 0.926,-0.255 0.84,-0.184 0.74,-0.134 0.547,-0.031 0.314,0.013 0.102,-0.057 0.204,-0.062 0.307,-0.115 0.342,-0.216 0.352,-0.256 0.357,-0.298 0.359,-0.34 0.338,-0.433 0.271,-0.508 0.181,-0.538 c -0.069,-0.007 -0.144,-0.004 -0.202,0.04 -0.059,0.039 -0.089,0.107 -0.103,0.174 0,0.069 0.027,0.133 0.062,0.191 -0.118,-0.074 -0.21,-0.179 -0.291,-0.292 0.056,0.18 0.18,0.344 0.353,0.425" /></g><g
           transform="translate(206.3379,139.5941)"
           id="g426"><path
             id="path428"
             style="fill:#ffffff;fill-opacity:1;fill-rule:nonzero;stroke:none"
             d="M 0,0 C 0.261,0.05 0.533,-0.031 0.749,-0.178 0.88,-0.269 1.003,-0.396 1.03,-0.56 0.87,-0.378 0.683,-0.21 0.451,-0.128 0.342,-0.089 0.226,-0.074 0.11,-0.078 0.187,-0.138 0.233,-0.243 0.192,-0.338 0.184,-0.355 0.175,-0.372 0.166,-0.389 0.115,-0.454 0.03,-0.473 -0.05,-0.464 c -0.045,0.009 -0.082,0.039 -0.115,0.071 -0.058,0.07 -0.051,0.168 -0.019,0.249 C -0.288,-0.191 -0.38,-0.258 -0.467,-0.33 -0.368,-0.16 -0.194,-0.036 0,0" /></g><g
           transform="translate(208.5004,142.9695)"
           id="g430"><path
             id="path432"
             style="fill:#eac500;fill-opacity:1;fill-rule:nonzero;stroke:none"
             d="M 0,0 C 0.095,-0.08 0.228,-0.113 0.348,-0.082 0.495,-0.045 0.614,0.076 0.662,0.217 0.676,0.251 0.685,0.286 0.69,0.322 0.705,0.404 0.702,0.49 0.676,0.57 0.636,0.759 0.46,0.92 0.262,0.915 0.08,0.917 -0.079,0.78 -0.141,0.615 -0.223,0.408 -0.176,0.145 0,0" /></g><g
           transform="translate(200.7384,143.1395)"
           id="g434"><path
             id="path436"
             style="fill:#eac500;fill-opacity:1;fill-rule:nonzero;stroke:none"
             d="m 0,0 c -0.123,0.117 -0.322,0.139 -0.47,0.057 -0.087,-0.046 -0.155,-0.126 -0.184,-0.22 -0.023,-0.063 -0.027,-0.132 -0.014,-0.197 0.007,-0.03 0.016,-0.06 0.031,-0.087 0.069,-0.17 0.272,-0.263 0.447,-0.222 0.159,0.03 0.291,0.167 0.312,0.328 C 0.14,-0.217 0.094,-0.084 0,0" /></g><g
           transform="translate(205.2483,141.4604)"
           id="g438"><path
             id="path440"
             style="fill:#eac500;fill-opacity:1;fill-rule:nonzero;stroke:none"
             d="m 0,0 c -0.019,-0.047 -0.039,-0.093 -0.059,-0.139 0.129,-0.007 0.258,-0.02 0.385,0 0.098,0.014 0.192,0.046 0.283,0.083 C 1.28,0.23 1.953,0.515 2.65,0.73 3.084,0.863 3.53,0.968 3.984,1.003 3.942,1.015 3.9,1.03 3.857,1.036 3.657,1.089 3.452,1.122 3.247,1.144 2.308,1.243 1.356,1.079 0.47,0.765 0.431,0.75 0.389,0.742 0.356,0.719 0.324,0.669 0.299,0.615 0.272,0.563 0.198,0.425 0.132,0.282 0.065,0.14 0.044,0.094 0.023,0.047 0.003,0 Z" /></g><g
           transform="translate(211.1927,140.9096)"
           id="g442"><path
             id="path444"
             style="fill:#eac500;fill-opacity:1;fill-rule:nonzero;stroke:none"
             d="M 0,0 C -0.058,0.25 -0.21,0.466 -0.381,0.652 -0.59,0.876 -0.839,1.06 -1.106,1.207 -1.272,1.274 -1.45,1.309 -1.626,1.336 -2.086,1.403 -2.556,1.368 -3.01,1.277 -3.415,1.192 -3.812,1.063 -4.179,0.87 -4.357,0.773 -4.534,0.664 -4.665,0.507 -4.719,0.442 -4.764,0.358 -4.745,0.271 -4.724,0.19 -4.65,0.137 -4.576,0.108 c 0.352,-0.139 0.687,-0.324 0.989,-0.553 0.227,-0.174 0.439,-0.372 0.599,-0.611 0.088,-0.136 0.17,-0.29 0.165,-0.456 0,-0.068 -0.037,-0.126 -0.065,-0.184 0.129,0.022 0.251,0.072 0.374,0.116 0.461,0.172 0.913,0.366 1.362,0.568 0.314,0.145 0.628,0.291 0.926,0.467 0.072,0.041 0.143,0.092 0.184,0.166 C 0.026,-0.266 0.026,-0.126 0,0" /></g><g
           transform="translate(203.8286,141.1614)"
           id="g446"><path
             id="path448"
             style="fill:#eac500;fill-opacity:1;fill-rule:nonzero;stroke:none"
             d="m 0,0 c 0.365,0.101 0.743,0.157 1.122,0.163 0.017,0.04 0.033,0.08 0.049,0.12 0.023,0.054 0.047,0.108 0.07,0.162 C 1.279,0.53 1.321,0.614 1.359,0.699 1.398,0.763 1.426,0.835 1.463,0.9 0.938,0.681 0.435,0.412 -0.045,0.108 -0.039,0.092 -0.031,0.076 -0.024,0.059 -0.016,0.04 -0.008,0.02 0,0" /></g><g
           transform="translate(203.8724,141.0535)"
           id="g450"><path
             id="path452"
             style="fill:#eac500;fill-opacity:1;fill-rule:nonzero;stroke:none"
             d="m 0,0 c 0.008,-0.024 0.017,-0.048 0.026,-0.073 0.008,-0.024 0.015,-0.047 0.023,-0.071 0.297,0.026 0.596,0.036 0.894,0.024 0.01,0.033 0.02,0.066 0.03,0.099 0.011,0.033 0.022,0.066 0.033,0.099 H 1.008 C 1.016,0.101 1.023,0.123 1.031,0.146 0.68,0.146 0.33,0.111 -0.012,0.034 -0.01,0.025 -0.006,0.008 -0.004,-0.001 Z" /></g><g
           transform="translate(207.7953,140.1066)"
           id="g454"><path
             id="path456"
             style="fill:#eac500;fill-opacity:1;fill-rule:nonzero;stroke:none"
             d="M 0,0 C -0.255,0.249 -0.557,0.443 -0.874,0.603 -1.431,0.878 -2.043,1.043 -2.664,1.081 -2.667,1.07 -2.674,1.048 -2.677,1.037 L -2.68,1.038 C -2.687,1.022 -2.694,1.007 -2.7,0.991 -2.708,0.972 -2.715,0.953 -2.722,0.934 -2.728,0.921 -2.734,0.907 -2.739,0.893 -2.749,0.867 -2.759,0.841 -2.77,0.815 -2.239,0.769 -1.71,0.649 -1.23,0.414 -0.631,0.127 -0.125,-0.34 0.231,-0.899 0.252,-0.928 0.292,-0.989 0.331,-0.948 0.38,-0.843 0.362,-0.72 0.352,-0.607 0.325,-0.365 0.165,-0.167 0,0" /></g><g
           transform="translate(203.6138,141.1594)"
           id="g458"><path
             id="path460"
             style="fill:#eac500;fill-opacity:1;fill-rule:nonzero;stroke:none"
             d="m 0,0 c -0.067,-0.043 -0.135,-0.084 -0.198,-0.133 0.074,0.026 0.148,0.053 0.222,0.078 C 0.016,-0.036 0.008,-0.018 0,0" /></g><g
           transform="translate(201.8382,140.0593)"
           id="g462"><path
             id="path464"
             style="fill:#eac500;fill-opacity:1;fill-rule:nonzero;stroke:none"
             d="M 0,0 C 0.1,0.032 0.16,0.126 0.242,0.185 0.156,0.131 0.079,0.064 0,0" /></g><g
           transform="translate(201.6465,139.8382)"
           id="g466"><path
             id="path468"
             style="fill:#eac500;fill-opacity:1;fill-rule:nonzero;stroke:none"
             d="M 0,0 C -0.083,-0.114 -0.142,-0.248 -0.156,-0.39 -0.101,-0.261 -0.068,-0.123 0,0" /></g><g
           transform="translate(206.7328,137.8395)"
           id="g470"><path
             id="path472"
             style="fill:#eac500;fill-opacity:1;fill-rule:nonzero;stroke:none"
             d="m 0,0 c -0.218,0.009 -0.433,0.061 -0.638,0.135 -0.111,0.043 -0.223,0.091 -0.316,0.167 -0.031,0.028 -0.071,0.065 -0.059,0.112 0.028,0.046 0.088,0.054 0.137,0.06 0.169,0.011 0.337,-0.02 0.5,-0.062 C -0.204,0.366 -0.033,0.308 0.118,0.211 0.167,0.182 0.205,0.136 0.237,0.089 0.199,-0.006 0.083,0.005 0,0 M 0.754,1.344 C 0.781,1.242 0.806,1.136 0.79,1.03 0.785,0.963 0.757,0.902 0.733,0.841 L 0.734,0.828 H 0.726 C 0.652,0.708 0.542,0.614 0.415,0.554 -0.015,0.355 -0.566,0.466 -0.885,0.817 -1.023,0.971 -1.15,1.161 -1.147,1.375 -1.143,1.549 -1.021,1.694 -0.875,1.774 -0.63,1.911 -0.34,1.944 -0.064,1.92 0.057,1.904 0.178,1.879 0.289,1.826 0.327,1.808 0.366,1.792 0.406,1.779 0.297,1.902 0.17,2.007 0.041,2.109 0.006,2.136 -0.032,2.159 -0.07,2.181 -0.609,2.492 -1.215,2.685 -1.833,2.754 -1.852,2.703 -1.871,2.652 -1.889,2.6 -1.908,2.55 -1.925,2.5 -1.941,2.449 -1.984,2.49 -1.998,2.549 -2.004,2.607 -2.002,2.661 -1.998,2.715 -1.993,2.769 -2.238,2.788 -2.485,2.785 -2.731,2.762 -2.726,2.704 -2.724,2.646 -2.724,2.587 -2.733,2.541 -2.757,2.501 -2.79,2.468 -2.797,2.505 -2.808,2.542 -2.822,2.578 -2.843,2.633 -2.863,2.689 -2.883,2.744 -3.301,2.689 -3.711,2.571 -4.092,2.391 -4.098,2.399 -4.11,2.415 -4.117,2.424 -4.146,2.407 -4.174,2.391 -4.203,2.374 -4.09,2.372 -3.978,2.355 -3.869,2.327 -3.777,2.3 -3.687,2.264 -3.606,2.213 l 0.003,10e-4 C -3.558,2.18 -3.514,2.143 -3.475,2.101 -3.371,1.979 -3.355,1.802 -3.416,1.657 -3.527,1.384 -3.757,1.161 -4.034,1.059 -4.143,1.02 -4.258,0.997 -4.374,0.992 -4.505,0.987 -4.636,1.006 -4.76,1.046 c -0.09,0.033 -0.174,0.08 -0.25,0.139 0.011,-0.129 0.047,-0.254 0.104,-0.369 0.068,0.032 0.141,0.052 0.214,0.066 0.123,0.022 0.248,0.026 0.373,0.019 C -4.224,0.892 -4.125,0.878 -4.038,0.835 -4.005,0.817 -3.966,0.79 -3.966,0.748 -3.97,0.693 -4.024,0.665 -4.066,0.64 -4.18,0.591 -4.303,0.572 -4.425,0.559 -4.53,0.557 -4.635,0.556 -4.739,0.572 c 0.225,-0.278 0.527,-0.483 0.844,-0.644 0.26,-0.131 0.534,-0.236 0.816,-0.308 -0.024,0.076 -0.041,0.153 -0.057,0.23 -0.014,0.07 -0.021,0.141 -0.04,0.209 -0.063,0.049 -0.111,0.114 -0.126,0.194 -0.002,0.054 0.005,0.109 0.034,0.156 -0.007,-0.059 -0.013,-0.119 0.002,-0.177 0.036,-0.08 0.112,-0.14 0.2,-0.15 0.051,-0.006 0.098,0.02 0.143,0.041 0.054,0.032 0.11,0.067 0.174,0.071 0.072,-0.004 0.103,-0.077 0.139,-0.128 h 0.002 c 0.071,-0.08 0.178,-0.139 0.288,-0.124 0.057,0.008 0.105,0.043 0.145,0.082 0.036,0.044 0.065,0.094 0.086,0.146 0.003,0 0.009,0.001 0.012,0.002 -0.003,-0.116 -0.084,-0.214 -0.186,-0.262 -0.01,-0.05 -0.026,-0.098 -0.041,-0.146 -0.04,-0.079 -0.082,-0.157 -0.133,-0.23 -0.023,-0.017 0.008,-0.02 0.019,-0.022 0.172,-0.016 0.344,-0.023 0.516,-0.028 0.432,-0.013 0.867,-0.006 1.293,0.076 0.297,0.058 0.589,0.147 0.864,0.273 C 0.47,-0.065 0.679,0.066 0.832,0.252 0.968,0.426 1.03,0.663 0.969,0.879 0.92,1.043 0.843,1.198 0.754,1.344" /></g><g
           transform="translate(203.3607,140.8543)"
           id="g474"><path
             id="path476"
             style="fill:#eac500;fill-opacity:1;fill-rule:nonzero;stroke:none"
             d="M 0,0 C 0.124,0.004 0.247,0.024 0.37,0.037 0.361,0.054 0.352,0.072 0.343,0.088 0.336,0.108 0.329,0.128 0.322,0.147 0.319,0.156 0.311,0.172 0.307,0.18 0.165,0.138 0.02,0.102 -0.114,0.037 -0.144,-0.027 -0.036,-0.003 0,0" /></g><g
           transform="translate(202.7759,139.8337)"
           id="g478"><path
             id="path480"
             style="fill:#74b743;fill-opacity:1;fill-rule:nonzero;stroke:none"
             d="m 0,0 c -0.193,0.104 -0.426,0.148 -0.638,0.077 0.102,-0.005 0.205,-0.058 0.24,-0.158 0.01,-0.041 0.015,-0.083 0.017,-0.125 -0.021,-0.092 -0.088,-0.168 -0.178,-0.198 -0.069,-0.007 -0.144,-0.004 -0.202,0.04 -0.059,0.039 -0.089,0.107 -0.103,0.174 0,0.069 0.027,0.134 0.062,0.192 -0.118,-0.075 -0.21,-0.18 -0.29,-0.293 0.055,0.181 0.179,0.344 0.352,0.425 0.218,0.102 0.478,0.084 0.695,-0.012 C 0.093,0.061 0.224,-0.038 0.277,-0.183 0.186,-0.121 0.1,-0.05 0,0 m -0.158,0.289 c -0.259,0.027 -0.531,-0.014 -0.759,-0.145 -0.131,-0.076 -0.246,-0.197 -0.277,-0.35 -0.034,-0.182 0.038,-0.377 0.171,-0.503 0.085,-0.083 0.198,-0.132 0.313,-0.154 l 0.001,-0.003 c 0.07,-0.004 0.143,-0.027 0.213,-0.008 0.242,0.007 0.479,0.098 0.673,0.242 0.144,0.11 0.27,0.272 0.272,0.462 C 0.454,-0.076 0.398,0.006 0.339,0.073 0.21,0.207 0.023,0.268 -0.158,0.289" /></g><g
           transform="translate(206.789,139.4656)"
           id="g482"><path
             id="path484"
             style="fill:#74b743;fill-opacity:1;fill-rule:nonzero;stroke:none"
             d="m 0,0 c -0.109,0.039 -0.225,0.055 -0.341,0.051 0.077,-0.061 0.123,-0.166 0.081,-0.261 -0.007,-0.017 -0.016,-0.034 -0.025,-0.05 -0.052,-0.065 -0.136,-0.085 -0.216,-0.076 -0.045,0.009 -0.082,0.04 -0.115,0.071 -0.059,0.071 -0.051,0.169 -0.019,0.249 -0.104,-0.046 -0.196,-0.114 -0.284,-0.186 0.099,0.171 0.274,0.295 0.468,0.33 0.26,0.05 0.533,-0.03 0.749,-0.177 C 0.429,-0.14 0.552,-0.267 0.579,-0.431 0.419,-0.249 0.232,-0.082 0,0 M 0.553,-0.112 C 0.401,0.029 0.205,0.118 0.003,0.159 -0.181,0.198 -0.371,0.215 -0.558,0.189 -0.671,0.172 -0.784,0.143 -0.884,0.087 c -0.117,-0.084 -0.206,-0.221 -0.2,-0.369 0.006,-0.143 0.086,-0.27 0.177,-0.375 0.169,-0.184 0.392,-0.331 0.642,-0.374 0.188,-0.029 0.39,-0.024 0.563,0.063 0.161,0.078 0.309,0.209 0.353,0.388 0.041,0.158 0.028,0.351 -0.098,0.468" /></g><g
           transform="translate(202.0407,138.7214)"
           id="g486"><path
             id="path488"
             style="fill:#ed4792;fill-opacity:1;fill-rule:nonzero;stroke:none"
             d="M 0,0 C 0.123,0.022 0.248,0.026 0.373,0.019 0.469,0.01 0.567,-0.003 0.654,-0.047 0.687,-0.064 0.726,-0.092 0.726,-0.134 0.722,-0.188 0.668,-0.217 0.626,-0.242 0.513,-0.291 0.389,-0.31 0.267,-0.322 0.162,-0.325 0.057,-0.325 -0.047,-0.31 c -0.085,0.016 -0.18,0.033 -0.241,0.098 -0.046,0.061 0.023,0.121 0.075,0.146 C -0.146,-0.033 -0.073,-0.014 0,0" /></g><g
           transform="translate(205.7197,138.2531)"
           id="g490"><path
             id="path492"
             style="fill:#ed4792;fill-opacity:1;fill-rule:nonzero;stroke:none"
             d="M 0,0 C 0.028,0.047 0.088,0.054 0.137,0.06 0.306,0.072 0.474,0.04 0.637,-0.001 0.809,-0.047 0.98,-0.106 1.131,-0.202 1.181,-0.232 1.218,-0.277 1.25,-0.325 1.212,-0.419 1.097,-0.408 1.013,-0.414 0.795,-0.405 0.58,-0.353 0.375,-0.278 0.264,-0.235 0.152,-0.188 0.059,-0.112 0.028,-0.084 -0.011,-0.046 0,0" /></g><g
           id="g494"><g
             id="g496" /><g
             id="g508"><g
               style="opacity:0.53999299"
               id="g506"
               clip-path="url(#clipPath500)"><g
                 id="g504"
                 transform="translate(209.0855,138.3555)"><path
                   id="path502"
                   style="fill:#192112;fill-opacity:1;fill-rule:nonzero;stroke:none"
                   d="M 0,0 C 0.017,-0.039 -0.067,-0.025 -0.027,0 -0.02,0 -0.007,0 0,0" /></g></g></g></g><g
           id="g510"><g
             id="g512" /><g
             id="g524"><g
               style="opacity:0.38999903"
               id="g522"
               clip-path="url(#clipPath516)"><g
                 id="g520"
                 transform="translate(207.964,138.1617)"><path
                   id="path518"
                   style="fill:#283719;fill-opacity:1;fill-rule:nonzero;stroke:none"
                   d="M 0,0 C -0.008,-0.029 -0.067,-0.004 -0.035,0.014 -0.026,0.011 -0.009,0.004 0,0" /></g></g></g></g><g
           transform="translate(204.1723,137.811)"
           id="g526"><path
             id="path528"
             style="fill:#ed4792;fill-opacity:1;fill-rule:nonzero;stroke:none"
             d="M 0,0 C -0.077,0.047 -0.095,0.162 -0.19,0.185 -0.258,0.186 -0.309,0.134 -0.365,0.105 -0.429,0.067 -0.507,0.063 -0.578,0.076 c 0.049,-0.119 0.068,-0.247 0.099,-0.371 0.036,-0.122 0.079,-0.27 0.209,-0.321 0.086,-0.04 0.184,-0.001 0.248,0.061 0.1,0.097 0.162,0.225 0.221,0.349 C 0.22,-0.162 0.24,-0.118 0.26,-0.074 0.169,-0.075 0.079,-0.046 0,0" /></g><g
           transform="translate(12,200)"
           id="g530"><path
             id="path532"
             style="fill:#808080;fill-opacity:1;fill-rule:nonzero;stroke:none"
             d="M 0,0 C 1.105,0 2,-0.895 2,-2 2,-3.105 1.105,-4 0,-4 h 10 c 1.105,0 2,0.895 2,2 0,1.105 -0.895,2 -2,2 z" /></g><g
           transform="translate(12,192)"
           id="g534"><path
             id="path536"
             style="fill:#808080;fill-opacity:1;fill-rule:nonzero;stroke:none"
             d="M 0,0 C 1.105,0 2,-0.895 2,-2 2,-3.105 1.105,-4 0,-4 h 10 c 1.105,0 2,0.895 2,2 0,1.105 -0.895,2 -2,2 z" /></g><g
           transform="translate(12,184)"
           id="g538"><path
             id="path540"
             style="fill:#808080;fill-opacity:1;fill-rule:nonzero;stroke:none"
             d="M 0,0 C 1.105,0 2,-0.895 2,-2 2,-3.105 1.105,-4 0,-4 h 10 c 1.105,0 2,0.895 2,2 0,1.105 -0.895,2 -2,2 z" /></g><g
           transform="translate(12,176)"
           id="g542"><path
             id="path544"
             style="fill:#808080;fill-opacity:1;fill-rule:nonzero;stroke:none"
             d="M 0,0 C 1.105,0 2,-0.895 2,-2 2,-3.105 1.105,-4 0,-4 h 10 c 1.105,0 2,0.895 2,2 0,1.105 -0.895,2 -2,2 z" /></g><g
           transform="translate(12,168)"
           id="g546"><path
             id="path548"
             style="fill:#808080;fill-opacity:1;fill-rule:nonzero;stroke:none"
             d="M 0,0 C 1.105,0 2,-0.895 2,-2 2,-3.105 1.105,-4 0,-4 h 10 c 1.105,0 2,0.895 2,2 0,1.105 -0.895,2 -2,2 z" /></g><g
           transform="translate(244,200)"
           id="g550"><path
             id="path552"
             style="fill:#808080;fill-opacity:1;fill-rule:nonzero;stroke:none"
             d="m 0,0 c -1.105,0 -2,-0.895 -2,-2 0,-1.105 0.895,-2 2,-2 h -10 c -1.105,0 -2,0.895 -2,2 0,1.105 0.895,2 2,2 z" /></g><g
           transform="translate(244,192)"
           id="g554"><path
             id="path556"
             style="fill:#808080;fill-opacity:1;fill-rule:nonzero;stroke:none"
             d="m 0,0 c -1.105,0 -2,-0.895 -2,-2 0,-1.105 0.895,-2 2,-2 h -10 c -1.105,0 -2,0.895 -2,2 0,1.105 0.895,2 2,2 z" /></g><g
           transform="translate(244,184)"
           id="g558"><path
             id="path560"
             style="fill:#808080;fill-opacity:1;fill-rule:nonzero;stroke:none"
             d="m 0,0 c -1.105,0 -2,-0.895 -2,-2 0,-1.105 0.895,-2 2,-2 h -10 c -1.105,0 -2,0.895 -2,2 0,1.105 0.895,2 2,2 z" /></g><g
           transform="translate(244,176)"
           id="g562"><path
             id="path564"
             style="fill:#808080;fill-opacity:1;fill-rule:nonzero;stroke:none"
             d="m 0,0 c -1.105,0 -2,-0.895 -2,-2 0,-1.105 0.895,-2 2,-2 h -10 c -1.105,0 -2,0.895 -2,2 0,1.105 0.895,2 2,2 z" /></g><g
           transform="translate(244,168)"
           id="g566"><path
             id="path568"
             style="fill:#808080;fill-opacity:1;fill-rule:nonzero;stroke:none"
             d="m 0,0 c -1.105,0 -2,-0.895 -2,-2 0,-1.105 0.895,-2 2,-2 h -10 c -1.105,0 -2,0.895 -2,2 0,1.105 0.895,2 2,2 z" /></g></g></g></g></svg>