<svg height="330.66666" viewBox="0 0 330.66665 330.66665" width="330.66666" xmlns="http://www.w3.org/2000/svg" xmlns:xlink="http://www.w3.org/1999/xlink"><clipPath id="a"><path d="m0 256h256v-256h-256z"/></clipPath><clipPath id="b"><path d="m4 252h248v-248h-248z"/></clipPath><g clip-path="url(#a)" transform="matrix(1.3333333 0 0 -1.3333333 -5.333333 335.99999)"><g clip-path="url(#b)" opacity=".5"><path d="m0 0c-11.046 0-20 8.954-20 20s8.954 20 20 20 20-8.954 20-20-8.954-20-20-20m87.676 107.682c-23.422 23.42-54.56 36.318-87.676 36.318-33.124 0-64.264-12.898-87.683-36.319-23.42-23.419-36.317-54.559-36.317-87.681s12.897-64.262 36.317-87.681c23.419-23.421 54.559-36.319 87.683-36.319 33.116 0 64.254 12.898 87.676 36.318 23.424 23.422 36.324 54.562 36.324 87.682s-12.9 64.26-36.324 87.682" fill="#fff" transform="translate(128 108)"/></g><path d="m0 0c-7.721 0-14.001 6.281-14.001 14s6.28 14 14.001 14c7.72 0 13.999-6.281 13.999-14s-6.279-14-13.999-14m.002 130c-64.071 0-116-51.934-116-116s51.929-116 116-116c64.051 0 116 51.934 116 116s-51.949 116-116 116" fill="#bfbfbf" transform="translate(127.9984 114)"/><path d="m240 112h-56v32h56z" fill="#e6e6e6"/><path d="m0 0h-32c0-17.673 14.327-32 32-32h4v32z" fill="#f39b11" transform="translate(176 144)"/></g></svg>