<svg enable-background="new 0 0 256 256" viewBox="0 0 256 256" xmlns="http://www.w3.org/2000/svg"><path d="m252 46.236v-.005c0-5.514-4.486-10-10-10h-56c-4.829 0-8.87-.79-9.799 3.769h-88.402c-.929-4.559-4.97-3.769-9.799-3.769h-56c-5.514 0-10 4.486-10 10v.005c-2.428 1.826-4 4.73-4 7.995v2 4 4 4 4 4 4 4 4 4 4 4 4 4 4 4 4 4 4 4 4 4 4 4 4 4 4 4 4 4 4 4 4 4 4 4 4 2c0 3.265 1.572 6.169 4 7.995v.005c0 5.514 4.486 10 10 10h24 4 28c4.829 0 8.87.328 9.799-4.231h88.402c.929 4.559 4.97 4.231 9.799 4.231h56c5.514 0 10-4.486 10-10v-.005c2.428-1.826 4-4.73 4-7.995v-2-4-4-4-4-4-4-4-4-4-4-4-4-4-4-4-4-4-4-4-4-4-4-4-4-4-4-4-4-4-4-4-4-4-4-4-4-2c0-3.265-1.572-6.169-4-7.995z" fill="#fff" opacity=".5"/><path d="m68 48h120v160h-120z" fill="#4b5da7"/><path d="m18 204h-4c-1.105 0-2-.895-2-2v-148c0-1.105.895-2 2-2h4c1.105 0 2 .895 2 2v148c0 1.105-.895 2-2 2z" fill="#263979"/><path d="m242 204h-4c-1.105 0-2-.895-2-2v-148c0-1.105.895-2 2-2h4c1.105 0 2 .895 2 2v148c0 1.105-.895 2-2 2z" fill="#263979"/><path d="m74 212h-56c-1.105 0-2-.895-2-2v-164c0-1.105.895-2 2-2h56c1.105 0 2 .895 2 2v164c0 1.105-.895 2-2 2z" fill="#354f9f"/><path d="m36 138c-5.514 0-10 4.486-10 10s4.486 10 10 10 10-4.486 10-10-4.486-10-10-10z" fill="#263979"/><g fill="#4b5da7"><circle cx="36" cy="148" r="8"/><path d="m12 196h4v4h-4z"/><path d="m12 188h4v4h-4z"/><path d="m12 180h4v4h-4z"/><path d="m12 172h4v4h-4z"/><path d="m12 164h4v4h-4z"/><path d="m12 156h4v4h-4z"/><path d="m12 148h4v4h-4z"/><path d="m12 140h4v4h-4z"/><path d="m12 132h4v4h-4z"/><path d="m12 124h4v4h-4z"/><path d="m12 116h4v4h-4z"/><path d="m12 108h4v4h-4z"/><path d="m12 100h4v4h-4z"/><path d="m12 92h4v4h-4z"/><path d="m12 84h4v4h-4z"/><path d="m12 76h4v4h-4z"/><path d="m12 68h4v4h-4z"/><path d="m12 60h4v4h-4z"/><path d="m16 56h-4v-2c0-1.105.895-2 2-2h2z"/><path d="m42 200h4v4h-4z"/></g><path d="m42 204h4v8h-4z" fill="#0f0"/><path d="m44 166c-9.925 0-18 8.075-18 18s8.075 18 18 18 18-8.075 18-18-8.075-18-18-18z" fill="#263979"/><circle cx="44" cy="184" fill="#4b5da7" r="16"/><path d="m182 212h56c1.105 0 2-.895 2-2v-164c0-1.105-.895-2-2-2h-56c-1.105 0-2 .895-2 2v164c0 1.105.895 2 2 2z" fill="#354f9f"/><path d="m240 196h4v4h-4z" fill="#4b5da7" transform="matrix(-1 -0 0 -1 484 396)"/><path d="m240 188h4v4h-4z" fill="#4b5da7" transform="matrix(-1 -0 0 -1 484 380)"/><path d="m240 180h4v4h-4z" fill="#4b5da7" transform="matrix(-1 -0 0 -1 484 364)"/><path d="m240 172h4v4h-4z" fill="#4b5da7" transform="matrix(-1 -0 0 -1 484 348)"/><path d="m240 164h4v4h-4z" fill="#4b5da7" transform="matrix(-1 -0 0 -1 484 332)"/><path d="m240 156h4v4h-4z" fill="#4b5da7" transform="matrix(-1 -0 0 -1 484 316)"/><path d="m240 148h4v4h-4z" fill="#4b5da7" transform="matrix(-1 -0 0 -1 484 300)"/><path d="m240 140h4v4h-4z" fill="#4b5da7" transform="matrix(-1 -0 0 -1 484 284)"/><path d="m240 132h4v4h-4z" fill="#4b5da7" transform="matrix(-1 -0 0 -1 484 268)"/><path d="m240 124h4v4h-4z" fill="#4b5da7" transform="matrix(-1 -0 0 -1 484 252)"/><path d="m240 116h4v4h-4z" fill="#4b5da7" transform="matrix(-1 -0 0 -1 484 236)"/><path d="m240 108h4v4h-4z" fill="#4b5da7" transform="matrix(-1 -0 0 -1 484 220)"/><path d="m240 100h4v4h-4z" fill="#4b5da7" transform="matrix(-1 -0 0 -1 484 204)"/><path d="m240 92h4v4h-4z" fill="#4b5da7" transform="matrix(-1 -0 0 -1 484 188)"/><path d="m128 202c20.252 0 38.625-8.184 52-21.411v-2.819c-13.107 13.69-31.55 22.23-52 22.23s-38.893-8.539-52-22.23v2.819c13.375 13.227 31.748 21.411 52 21.411z" fill="#263979"/><path d="m128 56c20.45 0 38.893 8.539 52 22.23v-2.819c-13.375-13.227-31.748-21.411-52-21.411s-38.625 8.184-52 21.411v2.819c13.107-13.691 31.55-22.23 52-22.23z" fill="#263979"/><path d="m240 84h4v4h-4z" fill="#4b5da7" transform="matrix(-1 -0 0 -1 484 172)"/><path d="m76 48h2v160h-2z" fill="#2c3e50"/><path d="m178 48h2v160h-2z" fill="#2c3e50"/><path d="m240 76h4v4h-4z" fill="#4b5da7" transform="matrix(-1 -0 0 -1 484 156)"/><path d="m240 68h4v4h-4z" fill="#4b5da7" transform="matrix(-1 -0 0 -1 484 140)"/><path d="m240 60h4v4h-4z" fill="#4b5da7" transform="matrix(-1 -0 0 -1 484 124)"/><path d="m240 56h4v-2c0-1.105-.895-2-2-2h-2z" fill="#4b5da7"/><circle cx="128" cy="128" fill="#4b5da7" r="72"/><path d="m193 164.789h2v14.422h-2z" fill="#2c3e50" transform="matrix(.5547 -.8321 .8321 .5547 -56.7245 238.0093)"/><path d="m212 166c-9.925 0-18 8.075-18 18s8.075 18 18 18 18-8.075 18-18-8.075-18-18-18z" fill="#263979"/><circle cx="212" cy="184" fill="#4b5da7" r="16"/><path d="m76 177.77c-12.38-12.931-20-30.455-20-49.77s7.62-36.839 20-49.77v-2.819c-13.573 13.422-22 32.038-22 52.589s8.427 39.167 22 52.589z" fill="#2c3e50"/><path d="m180 75.411v2.819c12.38 12.931 20 30.455 20 49.77s-7.62 36.839-20 49.77v2.819c13.573-13.422 22-32.037 22-52.589s-8.427-39.167-22-52.589z" fill="#2c3e50"/><path d="m42 210h4v2h-4z" fill="#00b800"/></svg>