<svg height="330.66666" viewBox="0 0 261.33331 330.66665" width="261.33331" xmlns="http://www.w3.org/2000/svg" xmlns:xlink="http://www.w3.org/1999/xlink"><clipPath id="a"><path d="m0 256h256v-256h-256z"/></clipPath><clipPath id="b"><path d="m30 252h196v-248h-196z"/></clipPath><clipPath id="c"><path d="m0 256h256v-256h-256z"/></clipPath><clipPath id="d"><path d="m72 126.069h116v-1.966h-116z"/></clipPath><g transform="matrix(1.3333333 0 0 -1.3333333 -39.999999 335.99999)"><g clip-path="url(#a)"><g clip-path="url(#b)" opacity=".5"><path d="m0 0h-6-16-8-2-2-2-2-2-2-2-2-2-2-2-2-2-2-2-2-2-2-2-2-2-2-2-2-2-2-2-2-2-2-2-2-2-2-2-2-2-2-2-2-2-2-2-2-2-2-2-2-2-2-2-2-2-2-2-2-2-2-2-10-16-6-8v-8-228-8h8 6 16 4v-4h8 112 8v4h4 16 6 8v8 228 8z" fill="#fff" transform="translate(218 252)"/></g></g><path d="m180 12h-104v8h104z" fill="#191919"/><path d="m184 12h-112v2h112z" fill="#333"/><path d="m218 16h-180v228h180z" fill="#333"/><path d="m72 16h-2v228h2z" fill="#191919"/><g fill="#262626"><path d="m76 16h-2v228h2z"/><path d="m80 16h-2v228h2z"/><path d="m84 16h-2v228h2z"/><path d="m88 16h-2v228h2z"/><path d="m92 16h-2v228h2z"/><path d="m96 16h-2v228h2z"/><path d="m100 16h-2v228h2z"/><path d="m104 16h-2v228h2z"/><path d="m108 16h-2v228h2z"/><path d="m112 16h-2v228h2z"/><path d="m116 16h-2v228h2z"/><path d="m120 16h-2v228h2z"/><path d="m124 16h-2v228h2z"/><path d="m128 16h-2v228h2z"/><path d="m132 16h-2v228h2z"/><path d="m136 16h-2v228h2z"/><path d="m140 16h-2v228h2z"/><path d="m144 16h-2v228h2z"/><path d="m148 16h-2v228h2z"/><path d="m152 16h-2v228h2z"/><path d="m156 16h-2v228h2z"/><path d="m160 16h-2v228h2z"/><path d="m164 16h-2v228h2z"/><path d="m168 16h-2v228h2z"/><path d="m172 16h-2v228h2z"/><path d="m176 16h-2v228h2z"/><path d="m180 16h-2v228h2z"/><path d="m184 16h-2v228h2z"/></g><path d="m188 16h-2v228h2z" fill="#191919"/><g clip-path="url(#c)"><g clip-path="url(#d)" opacity=".899994"><path d="m188 124.104h-116v1.966h116z" fill="#191919"/></g></g><path d="m60 16h-16v228h16z" fill="#404040"/><path d="m212 16h-16v228h16z" fill="#404040"/></g></svg>