<?xml version="1.0" encoding="UTF-8" standalone="no"?>
<svg
   xmlns:dc="http://purl.org/dc/elements/1.1/"
   xmlns:cc="http://creativecommons.org/ns#"
   xmlns:rdf="http://www.w3.org/1999/02/22-rdf-syntax-ns#"
   xmlns:svg="http://www.w3.org/2000/svg"
   xmlns="http://www.w3.org/2000/svg"
   viewBox="0 0 320 320"
   height="320"
   width="320"
   xml:space="preserve"
   version="1.1"
   id="svg2"><metadata
     id="metadata8"><rdf:RDF><cc:Work
         rdf:about=""><dc:format>image/svg+xml</dc:format><dc:type
           rdf:resource="http://purl.org/dc/dcmitype/StillImage" /></cc:Work></rdf:RDF></metadata><defs
     id="defs6"><clipPath
       id="clipPath16"
       clipPathUnits="userSpaceOnUse"><path
         id="path18"
         d="M 0,256 256,256 256,0 0,0 0,256 Z" /></clipPath><clipPath
       id="clipPath24"
       clipPathUnits="userSpaceOnUse"><path
         id="path26"
         d="m 76,180 104,0 0,-104 -104,0 0,104 z" /></clipPath></defs><g
     transform="matrix(1.25,0,0,-1.25,0,320)"
     id="g10"><g
       id="g12"><g
         clip-path="url(#clipPath16)"
         id="g14"><g
           id="g20"><g
             id="g22" /><g
             id="g28"><g
               style="opacity:0.5"
               id="g30"
               clip-path="url(#clipPath24)"><g
                 id="g32"
                 transform="translate(160,180)"><path
                   id="path34"
                   style="fill:#ffffff;fill-opacity:1;fill-rule:nonzero;stroke:none"
                   d="m 0,0 -64,0 c -11.028,0 -20,-8.972 -20,-20 l 0,-64 c 0,-11.028 8.972,-20 20,-20 l 64,0 c 11.028,0 20,8.972 20,20 l 0,64 C 20,-8.972 11.028,0 0,0" /></g></g></g></g><g
           transform="translate(160,84)"
           id="g36"><path
             id="path38"
             style="fill:#757575;fill-opacity:1;fill-rule:nonzero;stroke:none"
             d="m 0,0 -64,0 c -6.627,0 -12,5.373 -12,12 l 0,64 c 0,6.627 5.373,12 12,12 L 0,88 C 6.627,88 12,82.627 12,76 L 12,12 C 12,5.373 6.627,0 0,0" /></g><path
           id="path40"
           style="fill:#d2a62a;fill-opacity:1;fill-rule:nonzero;stroke:none"
           d="m 152,148 -48,0 0,4 48,0 0,-4 z" /><g
           transform="translate(120,100)"
           id="g42"><path
             id="path44"
             style="fill:#e8c41e;fill-opacity:1;fill-rule:nonzero;stroke:none"
             d="m 0,0 16,0 c -4,4.174 -6,12.521 -6,20.869 -2,4.175 -2,4.175 -4,0 C 6,12.521 4,4.174 0,0" /></g><g
           transform="translate(128,128)"
           id="g46"><path
             id="path48"
             style="fill:#d2a62a;fill-opacity:1;fill-rule:nonzero;stroke:none"
             d="m 0,0 c -11.028,0 -20,8.972 -20,20 l -4,0 C -24,6.745 -13.255,-4 0,-4 13.255,-4 24,6.745 24,20 l -4,0 C 20,8.972 11.028,0 0,0" /></g><g
           transform="translate(132,120)"
           id="g50"><path
             id="path52"
             style="fill:#d2a62a;fill-opacity:1;fill-rule:nonzero;stroke:none"
             d="m 0,0 c 0,-2.209 -1.791,-4 -4,-4 -2.209,0 -4,1.791 -4,4 0,2.209 1.791,4 4,4 2.209,0 4,-1.791 4,-4" /></g><g
           transform="translate(128,152)"
           id="g54"><path
             id="path56"
             style="fill:#e8c41e;fill-opacity:1;fill-rule:nonzero;stroke:none"
             d="m 0,0 -16,0 c 0,-9.143 4,-32 16,-32 12,0 16,22.857 16,32 L 0,0 Z" /></g></g></g></g></svg>