<?xml version="1.0" encoding="UTF-8" standalone="no"?>
<svg
   xmlns:dc="http://purl.org/dc/elements/1.1/"
   xmlns:cc="http://creativecommons.org/ns#"
   xmlns:rdf="http://www.w3.org/1999/02/22-rdf-syntax-ns#"
   xmlns:svg="http://www.w3.org/2000/svg"
   xmlns="http://www.w3.org/2000/svg"
   viewBox="0 0 320 320"
   height="320"
   width="320"
   xml:space="preserve"
   version="1.1"
   id="svg2"><metadata
     id="metadata8"><rdf:RDF><cc:Work
         rdf:about=""><dc:format>image/svg+xml</dc:format><dc:type
           rdf:resource="http://purl.org/dc/dcmitype/StillImage" /></cc:Work></rdf:RDF></metadata><defs
     id="defs6"><clipPath
       id="clipPath16"
       clipPathUnits="userSpaceOnUse"><path
         id="path18"
         d="M 0,256 256,256 256,0 0,0 0,256 Z" /></clipPath><clipPath
       id="clipPath24"
       clipPathUnits="userSpaceOnUse"><path
         id="path26"
         d="m 31,225 194,0 0,-194 -194,0 0,194 z" /></clipPath></defs><g
     transform="matrix(1.25,0,0,-1.25,0,320)"
     id="g10"><g
       id="g12"><g
         clip-path="url(#clipPath16)"
         id="g14"><g
           id="g20"><g
             id="g22" /><g
             id="g28"><g
               style="opacity:0.5"
               id="g30"
               clip-path="url(#clipPath24)"><g
                 id="g32"
                 transform="translate(128,225)"><path
                   id="path34"
                   style="fill:#ffffff;fill-opacity:1;fill-rule:nonzero;stroke:none"
                   d="m 0,0 c -53.486,0 -97,-43.514 -97,-97 0,-53.486 43.514,-97 97,-97 53.486,0 97,43.514 97,97 C 97,-43.514 53.486,0 0,0" /></g></g></g></g><g
           transform="translate(217,128)"
           id="g36"><path
             id="path38"
             style="fill:#7b0000;fill-opacity:1;fill-rule:nonzero;stroke:none"
             d="m 0,0 c 0,-49.153 -39.847,-89 -89,-89 -49.153,0 -89,39.847 -89,89 0,49.153 39.847,89 89,89 C -39.847,89 0,49.153 0,0" /></g><g
           transform="translate(128.1175,216.593)"
           id="g40"><path
             id="path42"
             style="fill:#3d0000;fill-opacity:1;fill-rule:nonzero;stroke:none"
             d="m 0,0 c 22.371,-0.03 43.908,-8.482 60.327,-23.677 l -27,-32.475 c -4.333,3.869 -9.18,6.471 -13.098,7.413 -11.789,2.832 -19.347,-4.596 -23.068,-9.751 -3.033,4.202 -8.575,9.893 -16.939,10.344 -1.898,0.102 -3.93,-0.069 -6.111,-0.593 -15.87,-3.815 -47.427,-33.777 4.976,-72.674 l -32.276,-38.821 c -22.499,16.773 -35.771,43.175 -35.807,71.238 C -88.995,-39.845 -49.151,-0.001 0,0 Z" /></g><g
           transform="translate(190.8403,190.6707)"
           id="g44"><path
             id="path46"
             style="fill:#3d0000;fill-opacity:1;fill-rule:nonzero;stroke:none"
             d="m 0,0 0.009,0 c 16.801,-16.692 26.255,-39.39 26.272,-63.073 0,-49.152 -39.844,-88.996 -88.995,-88.996 -18.055,0.034 -35.676,5.563 -50.517,15.845 l 32.267,38.821 c 4.555,-3.235 9.623,-6.532 15.403,-9.876 -0.009,-0.004 -0.015,-0.013 -0.026,-0.017 l 0.059,0 c -0.01,0.003 -0.016,0.013 -0.025,0.017 56.392,32.629 51.843,60.553 38.537,74.786 L 0,0 Z" /></g></g></g></g></svg>