<?xml version="1.0" encoding="UTF-8" standalone="no"?>
<svg
   xmlns:dc="http://purl.org/dc/elements/1.1/"
   xmlns:cc="http://creativecommons.org/ns#"
   xmlns:rdf="http://www.w3.org/1999/02/22-rdf-syntax-ns#"
   xmlns:svg="http://www.w3.org/2000/svg"
   xmlns="http://www.w3.org/2000/svg"
   viewBox="0 0 320 320"
   height="320"
   width="320"
   xml:space="preserve"
   version="1.1"
   id="svg2"><metadata
     id="metadata8"><rdf:RDF><cc:Work
         rdf:about=""><dc:format>image/svg+xml</dc:format><dc:type
           rdf:resource="http://purl.org/dc/dcmitype/StillImage" /></cc:Work></rdf:RDF></metadata><defs
     id="defs6"><clipPath
       id="clipPath16"
       clipPathUnits="userSpaceOnUse"><path
         id="path18"
         d="M 0,256 256,256 256,0 0,0 0,256 Z" /></clipPath><clipPath
       id="clipPath24"
       clipPathUnits="userSpaceOnUse"><path
         id="path26"
         d="M 4,180 252,180 252,76 4,76 4,180 Z" /></clipPath><clipPath
       id="clipPath194"
       clipPathUnits="userSpaceOnUse"><path
         id="path196"
         d="M 0,256 256,256 256,0 0,0 0,256 Z" /></clipPath></defs><g
     transform="matrix(1.25,0,0,-1.25,0,320)"
     id="g10"><g
       id="g12"><g
         clip-path="url(#clipPath16)"
         id="g14"><g
           id="g20"><g
             id="g22" /><g
             id="g28"><g
               style="opacity:0.5"
               id="g30"
               clip-path="url(#clipPath24)"><g
                 id="g32"
                 transform="translate(244,180)"><path
                   id="path34"
                   style="fill:#ffffff;fill-opacity:1;fill-rule:nonzero;stroke:none"
                   d="m 0,0 -36,0 -4,0 -192,0 -8,0 0,-8 0,-84 0,-4 0,-8 8,0 192,0 4,0 32,0 4,0 8,0 0,8 0,88 0,8 -8,0 z" /></g></g></g></g></g></g><path
       id="path36"
       style="fill:#cccccc;fill-opacity:1;fill-rule:nonzero;stroke:none"
       d="m 208,84 -196,0 0,88 196,0 0,-88 z" /><path
       id="path38"
       style="fill:#262626;fill-opacity:1;fill-rule:nonzero;stroke:none"
       d="m 132,152 -76,0 0,8 76,0 0,-8 z" /><path
       id="path40"
       style="fill:#b3b3b3;fill-opacity:1;fill-rule:nonzero;stroke:none"
       d="m 244,84 -40,0 0,88 40,0 0,-88 z" /><path
       id="path42"
       style="fill:#bfbfbf;fill-opacity:1;fill-rule:nonzero;stroke:none"
       d="m 240,124 -32,0 0,24 32,0 0,-24 z" /><path
       id="path44"
       style="fill:#737373;fill-opacity:1;fill-rule:nonzero;stroke:none"
       d="m 164,152 -20,0 0,8 20,0 0,-8 z" /><path
       id="path46"
       style="fill:#737373;fill-opacity:1;fill-rule:nonzero;stroke:none"
       d="m 44,152 -24,0 0,8 24,0 0,-8 z" /><path
       id="path48"
       style="fill:#737373;fill-opacity:1;fill-rule:nonzero;stroke:none"
       d="m 200,140 -32,0 0,20 32,0 0,-20 z" /><path
       id="path50"
       style="fill:#b3b3b3;fill-opacity:1;fill-rule:nonzero;stroke:none"
       d="m 164,100 -144,0 0,52 144,0 0,-52 z" /><path
       id="path52"
       style="fill:#121212;fill-opacity:1;fill-rule:nonzero;stroke:none"
       d="m 136,164 -116,0 0,4 116,0 0,-4 z" /><path
       id="path54"
       style="fill:#8c8c8c;fill-opacity:1;fill-rule:nonzero;stroke:none"
       d="m 28,152 -8,0 0,8 8,0 0,-8 z" /><path
       id="path56"
       style="fill:#d9d9d9;fill-opacity:1;fill-rule:nonzero;stroke:none"
       d="m 28,140 -8,0 0,8 8,0 0,-8 z" /><path
       id="path58"
       style="fill:#d9d9d9;fill-opacity:1;fill-rule:nonzero;stroke:none"
       d="m 40,140 -8,0 0,8 8,0 0,-8 z" /><path
       id="path60"
       style="fill:#d9d9d9;fill-opacity:1;fill-rule:nonzero;stroke:none"
       d="m 52,140 -8,0 0,8 8,0 0,-8 z" /><path
       id="path62"
       style="fill:#d9d9d9;fill-opacity:1;fill-rule:nonzero;stroke:none"
       d="m 64,140 -8,0 0,8 8,0 0,-8 z" /><path
       id="path64"
       style="fill:#d9d9d9;fill-opacity:1;fill-rule:nonzero;stroke:none"
       d="m 76,140 -8,0 0,8 8,0 0,-8 z" /><path
       id="path66"
       style="fill:#d9d9d9;fill-opacity:1;fill-rule:nonzero;stroke:none"
       d="m 88,140 -8,0 0,8 8,0 0,-8 z" /><path
       id="path68"
       style="fill:#d9d9d9;fill-opacity:1;fill-rule:nonzero;stroke:none"
       d="m 100,140 -8,0 0,8 8,0 0,-8 z" /><path
       id="path70"
       style="fill:#d9d9d9;fill-opacity:1;fill-rule:nonzero;stroke:none"
       d="m 112,140 -8,0 0,8 8,0 0,-8 z" /><path
       id="path72"
       style="fill:#d9d9d9;fill-opacity:1;fill-rule:nonzero;stroke:none"
       d="m 124,140 -8,0 0,8 8,0 0,-8 z" /><path
       id="path74"
       style="fill:#d9d9d9;fill-opacity:1;fill-rule:nonzero;stroke:none"
       d="m 136,140 -8,0 0,8 8,0 0,-8 z" /><path
       id="path76"
       style="fill:#d9d9d9;fill-opacity:1;fill-rule:nonzero;stroke:none"
       d="m 148,140 -8,0 0,8 8,0 0,-8 z" /><path
       id="path78"
       style="fill:#d9d9d9;fill-opacity:1;fill-rule:nonzero;stroke:none"
       d="m 160,140 -8,0 0,8 8,0 0,-8 z" /><path
       id="path80"
       style="fill:#8c8c8c;fill-opacity:1;fill-rule:nonzero;stroke:none"
       d="m 32,128 -12,0 0,8 12,0 0,-8 z" /><path
       id="path82"
       style="fill:#8c8c8c;fill-opacity:1;fill-rule:nonzero;stroke:none"
       d="m 36,116 -16,0 0,8 16,0 0,-8 z" /><path
       id="path84"
       style="fill:#8c8c8c;fill-opacity:1;fill-rule:nonzero;stroke:none"
       d="m 32,92 -8,0 0,8 8,0 0,-8 z" /><path
       id="path86"
       style="fill:#d9d9d9;fill-opacity:1;fill-rule:nonzero;stroke:none"
       d="m 44,128 -8,0 0,8 8,0 0,-8 z" /><path
       id="path88"
       style="fill:#d9d9d9;fill-opacity:1;fill-rule:nonzero;stroke:none"
       d="m 56,128 -8,0 0,8 8,0 0,-8 z" /><path
       id="path90"
       style="fill:#d9d9d9;fill-opacity:1;fill-rule:nonzero;stroke:none"
       d="m 68,128 -8,0 0,8 8,0 0,-8 z" /><path
       id="path92"
       style="fill:#d9d9d9;fill-opacity:1;fill-rule:nonzero;stroke:none"
       d="m 80,128 -8,0 0,8 8,0 0,-8 z" /><path
       id="path94"
       style="fill:#d9d9d9;fill-opacity:1;fill-rule:nonzero;stroke:none"
       d="m 92,128 -8,0 0,8 8,0 0,-8 z" /><path
       id="path96"
       style="fill:#d9d9d9;fill-opacity:1;fill-rule:nonzero;stroke:none"
       d="m 104,128 -8,0 0,8 8,0 0,-8 z" /><path
       id="path98"
       style="fill:#d9d9d9;fill-opacity:1;fill-rule:nonzero;stroke:none"
       d="m 116,128 -8,0 0,8 8,0 0,-8 z" /><path
       id="path100"
       style="fill:#d9d9d9;fill-opacity:1;fill-rule:nonzero;stroke:none"
       d="m 128,128 -8,0 0,8 8,0 0,-8 z" /><path
       id="path102"
       style="fill:#d9d9d9;fill-opacity:1;fill-rule:nonzero;stroke:none"
       d="m 140,128 -8,0 0,8 8,0 0,-8 z" /><path
       id="path104"
       style="fill:#d9d9d9;fill-opacity:1;fill-rule:nonzero;stroke:none"
       d="m 152,128 -8,0 0,8 8,0 0,-8 z" /><path
       id="path106"
       style="fill:#d9d9d9;fill-opacity:1;fill-rule:nonzero;stroke:none"
       d="m 48,116 -8,0 0,8 8,0 0,-8 z" /><path
       id="path108"
       style="fill:#d9d9d9;fill-opacity:1;fill-rule:nonzero;stroke:none"
       d="m 60,116 -8,0 0,8 8,0 0,-8 z" /><path
       id="path110"
       style="fill:#d9d9d9;fill-opacity:1;fill-rule:nonzero;stroke:none"
       d="m 72,116 -8,0 0,8 8,0 0,-8 z" /><path
       id="path112"
       style="fill:#d9d9d9;fill-opacity:1;fill-rule:nonzero;stroke:none"
       d="m 84,116 -8,0 0,8 8,0 0,-8 z" /><path
       id="path114"
       style="fill:#d9d9d9;fill-opacity:1;fill-rule:nonzero;stroke:none"
       d="m 96,116 -8,0 0,8 8,0 0,-8 z" /><path
       id="path116"
       style="fill:#d9d9d9;fill-opacity:1;fill-rule:nonzero;stroke:none"
       d="m 108,116 -8,0 0,8 8,0 0,-8 z" /><path
       id="path118"
       style="fill:#d9d9d9;fill-opacity:1;fill-rule:nonzero;stroke:none"
       d="m 120,116 -8,0 0,8 8,0 0,-8 z" /><path
       id="path120"
       style="fill:#d9d9d9;fill-opacity:1;fill-rule:nonzero;stroke:none"
       d="m 132,116 -8,0 0,8 8,0 0,-8 z" /><path
       id="path122"
       style="fill:#d9d9d9;fill-opacity:1;fill-rule:nonzero;stroke:none"
       d="m 144,116 -8,0 0,8 8,0 0,-8 z" /><path
       id="path124"
       style="fill:#d9d9d9;fill-opacity:1;fill-rule:nonzero;stroke:none"
       d="m 52,104 -8,0 0,8 8,0 0,-8 z" /><path
       id="path126"
       style="fill:#d9d9d9;fill-opacity:1;fill-rule:nonzero;stroke:none"
       d="m 64,104 -8,0 0,8 8,0 0,-8 z" /><path
       id="path128"
       style="fill:#d9d9d9;fill-opacity:1;fill-rule:nonzero;stroke:none"
       d="m 76,104 -8,0 0,8 8,0 0,-8 z" /><path
       id="path130"
       style="fill:#d9d9d9;fill-opacity:1;fill-rule:nonzero;stroke:none"
       d="m 88,104 -8,0 0,8 8,0 0,-8 z" /><path
       id="path132"
       style="fill:#d9d9d9;fill-opacity:1;fill-rule:nonzero;stroke:none"
       d="m 100,104 -8,0 0,8 8,0 0,-8 z" /><path
       id="path134"
       style="fill:#d9d9d9;fill-opacity:1;fill-rule:nonzero;stroke:none"
       d="m 112,104 -8,0 0,8 8,0 0,-8 z" /><path
       id="path136"
       style="fill:#d9d9d9;fill-opacity:1;fill-rule:nonzero;stroke:none"
       d="m 124,104 -8,0 0,8 8,0 0,-8 z" /><path
       id="path138"
       style="fill:#d9d9d9;fill-opacity:1;fill-rule:nonzero;stroke:none"
       d="m 136,104 -8,0 0,8 8,0 0,-8 z" /><g
       transform="translate(156,136)"
       id="g140"><path
         id="path142"
         style="fill:#8c8c8c;fill-opacity:1;fill-rule:nonzero;stroke:none"
         d="m 0,0 0,-12 -8,0 0,-8 16,0 0,4 0,4 0,12 -8,0 z" /></g><path
       id="path144"
       style="fill:#8c8c8c;fill-opacity:1;fill-rule:nonzero;stroke:none"
       d="m 40,152 -8,0 0,8 8,0 0,-8 z" /><path
       id="path146"
       style="fill:#8c8c8c;fill-opacity:1;fill-rule:nonzero;stroke:none"
       d="m 152,152 -8,0 0,8 8,0 0,-8 z" /><path
       id="path148"
       style="fill:#8c8c8c;fill-opacity:1;fill-rule:nonzero;stroke:none"
       d="m 164,152 -8,0 0,8 8,0 0,-8 z" /><path
       id="path150"
       style="fill:#8c8c8c;fill-opacity:1;fill-rule:nonzero;stroke:none"
       d="m 176,152 -8,0 0,8 8,0 0,-8 z" /><path
       id="path152"
       style="fill:#8c8c8c;fill-opacity:1;fill-rule:nonzero;stroke:none"
       d="m 188,152 -8,0 0,8 8,0 0,-8 z" /><path
       id="path154"
       style="fill:#8c8c8c;fill-opacity:1;fill-rule:nonzero;stroke:none"
       d="m 200,152 -8,0 0,8 8,0 0,-8 z" /><path
       id="path156"
       style="fill:#8c8c8c;fill-opacity:1;fill-rule:nonzero;stroke:none"
       d="m 176,140 -8,0 0,8 8,0 0,-8 z" /><path
       id="path158"
       style="fill:#8c8c8c;fill-opacity:1;fill-rule:nonzero;stroke:none"
       d="m 188,140 -8,0 0,8 8,0 0,-8 z" /><path
       id="path160"
       style="fill:#8c8c8c;fill-opacity:1;fill-rule:nonzero;stroke:none"
       d="m 188,124 -8,0 0,8 8,0 0,-8 z" /><path
       id="path162"
       style="fill:#8c8c8c;fill-opacity:1;fill-rule:nonzero;stroke:none"
       d="m 188,100 -8,0 0,8 8,0 0,-8 z" /><path
       id="path164"
       style="fill:#8c8c8c;fill-opacity:1;fill-rule:nonzero;stroke:none"
       d="m 188,112 -8,0 0,8 8,0 0,-8 z" /><path
       id="path166"
       style="fill:#8c8c8c;fill-opacity:1;fill-rule:nonzero;stroke:none"
       d="m 200,112 -8,0 0,8 8,0 0,-8 z" /><path
       id="path168"
       style="fill:#8c8c8c;fill-opacity:1;fill-rule:nonzero;stroke:none"
       d="m 176,112 -8,0 0,8 8,0 0,-8 z" /><path
       id="path170"
       style="fill:#8c8c8c;fill-opacity:1;fill-rule:nonzero;stroke:none"
       d="m 200,140 -8,0 0,8 8,0 0,-8 z" /><path
       id="path172"
       style="fill:#333333;fill-opacity:1;fill-rule:nonzero;stroke:none"
       d="m 60,152 -12,0 0,8 12,0 0,-8 z" /><path
       id="path174"
       style="fill:#333333;fill-opacity:1;fill-rule:nonzero;stroke:none"
       d="m 76,152 -12,0 0,8 12,0 0,-8 z" /><path
       id="path176"
       style="fill:#333333;fill-opacity:1;fill-rule:nonzero;stroke:none"
       d="m 92,152 -12,0 0,8 12,0 0,-8 z" /><path
       id="path178"
       style="fill:#333333;fill-opacity:1;fill-rule:nonzero;stroke:none"
       d="m 108,152 -12,0 0,8 12,0 0,-8 z" /><path
       id="path180"
       style="fill:#333333;fill-opacity:1;fill-rule:nonzero;stroke:none"
       d="m 124,152 -12,0 0,8 12,0 0,-8 z" /><path
       id="path182"
       style="fill:#333333;fill-opacity:1;fill-rule:nonzero;stroke:none"
       d="m 140,152 -12,0 0,8 12,0 0,-8 z" /><path
       id="path184"
       style="fill:#d9d9d9;fill-opacity:1;fill-rule:nonzero;stroke:none"
       d="m 132,92 -76,0 0,8 76,0 0,-8 z" /><g
       transform="translate(208,168)"
       id="g186"><path
         id="path188"
         style="fill:#cccccc;fill-opacity:1;fill-rule:nonzero;stroke:none"
         d="m 0,0 0,-23.028 3.452,-4.275 0,-1.377 1.295,0 -0.062,-7.405 -1.295,0 0,-1.246 L 0,-41.155 0,-80 l 32,0.006 0,38.869 -3.441,3.816 0,1.269 -1.29,0 0,7.379 1.29,0 0,1.353 L 32,-23.026 32,0 0,0 Z" /></g><g
       id="g190"><g
         clip-path="url(#clipPath194)"
         id="g192"><g
           transform="translate(222.666,128)"
           id="g198"><path
             id="path200"
             style="fill:#8c8c8c;fill-opacity:1;fill-rule:nonzero;stroke:none"
             d="m 0,0 2.668,0 c 1.476,0 2.666,-0.513 2.666,-1.146 l 0,-5.712 C 5.334,-7.49 4.144,-8 2.668,-8 L 0,-8 c -1.476,0 -2.666,0.51 -2.666,1.142 l 0,5.712 C -2.666,-0.513 -1.476,0 0,0" /></g><g
           transform="translate(232.666,128)"
           id="g202"><path
             id="path204"
             style="fill:#8c8c8c;fill-opacity:1;fill-rule:nonzero;stroke:none"
             d="m 0,0 2.668,0 c 1.476,0 2.666,-0.513 2.666,-1.146 l 0,-5.712 C 5.334,-7.49 4.144,-8 2.668,-8 L 0,-8 c -1.476,0 -2.666,0.51 -2.666,1.142 l 0,5.712 C -2.666,-0.513 -1.476,0 0,0" /></g><g
           transform="translate(212.666,128)"
           id="g206"><path
             id="path208"
             style="fill:#8c8c8c;fill-opacity:1;fill-rule:nonzero;stroke:none"
             d="m 0,0 2.668,0 c 1.476,0 2.666,-0.513 2.666,-1.146 l 0,-5.712 C 5.334,-7.49 4.144,-8 2.668,-8 L 0,-8 c -1.476,0 -2.666,0.51 -2.666,1.142 l 0,5.712 C -2.666,-0.513 -1.476,0 0,0" /></g><g
           transform="translate(222.666,118)"
           id="g210"><path
             id="path212"
             style="fill:#8c8c8c;fill-opacity:1;fill-rule:nonzero;stroke:none"
             d="m 0,0 2.668,0 c 1.476,0 2.666,-0.513 2.666,-1.146 l 0,-5.712 C 5.334,-7.49 4.144,-8 2.668,-8 L 0,-8 c -1.476,0 -2.666,0.51 -2.666,1.142 l 0,5.712 C -2.666,-0.513 -1.476,0 0,0" /></g><g
           transform="translate(232.666,118)"
           id="g214"><path
             id="path216"
             style="fill:#8c8c8c;fill-opacity:1;fill-rule:nonzero;stroke:none"
             d="m 0,0 2.668,0 c 1.476,0 2.666,-0.513 2.666,-1.146 l 0,-5.712 C 5.334,-7.49 4.144,-8 2.668,-8 L 0,-8 c -1.476,0 -2.666,0.51 -2.666,1.142 l 0,5.712 C -2.666,-0.513 -1.476,0 0,0" /></g><g
           transform="translate(212.666,118)"
           id="g218"><path
             id="path220"
             style="fill:#8c8c8c;fill-opacity:1;fill-rule:nonzero;stroke:none"
             d="m 0,0 2.668,0 c 1.476,0 2.666,-0.513 2.666,-1.146 l 0,-5.712 C 5.334,-7.49 4.144,-8 2.668,-8 L 0,-8 c -1.476,0 -2.666,0.51 -2.666,1.142 l 0,5.712 C -2.666,-0.513 -1.476,0 0,0" /></g><g
           transform="translate(222.666,108)"
           id="g222"><path
             id="path224"
             style="fill:#8c8c8c;fill-opacity:1;fill-rule:nonzero;stroke:none"
             d="m 0,0 2.668,0 c 1.476,0 2.666,-0.513 2.666,-1.146 l 0,-5.712 C 5.334,-7.49 4.144,-8 2.668,-8 L 0,-8 c -1.476,0 -2.666,0.51 -2.666,1.142 l 0,5.712 C -2.666,-0.513 -1.476,0 0,0" /></g><g
           transform="translate(232.666,108)"
           id="g226"><path
             id="path228"
             style="fill:#8c8c8c;fill-opacity:1;fill-rule:nonzero;stroke:none"
             d="m 0,0 2.668,0 c 1.476,0 2.666,-0.513 2.666,-1.146 l 0,-5.712 C 5.334,-7.49 4.144,-8 2.668,-8 L 0,-8 c -1.476,0 -2.666,0.51 -2.666,1.142 l 0,5.712 C -2.666,-0.513 -1.476,0 0,0" /></g><g
           transform="translate(212.666,108)"
           id="g230"><path
             id="path232"
             style="fill:#8c8c8c;fill-opacity:1;fill-rule:nonzero;stroke:none"
             d="m 0,0 2.668,0 c 1.476,0 2.666,-0.513 2.666,-1.146 l 0,-5.712 C 5.334,-7.49 4.144,-8 2.668,-8 L 0,-8 c -1.476,0 -2.666,0.51 -2.666,1.142 l 0,5.712 C -2.666,-0.513 -1.476,0 0,0" /></g><g
           transform="translate(222.666,98)"
           id="g234"><path
             id="path236"
             style="fill:#8c8c8c;fill-opacity:1;fill-rule:nonzero;stroke:none"
             d="m 0,0 2.668,0 c 1.476,0 2.666,-0.513 2.666,-1.146 l 0,-5.712 C 5.334,-7.49 4.144,-8 2.668,-8 L 0,-8 c -1.476,0 -2.666,0.51 -2.666,1.142 l 0,5.712 C -2.666,-0.513 -1.476,0 0,0" /></g><g
           transform="translate(232.666,98)"
           id="g238"><path
             id="path240"
             style="fill:#333333;fill-opacity:1;fill-rule:nonzero;stroke:none"
             d="m 0,0 2.668,0 c 1.476,0 2.666,-0.513 2.666,-1.146 l 0,-5.712 C 5.334,-7.49 4.144,-8 2.668,-8 L 0,-8 c -1.476,0 -2.666,0.51 -2.666,1.142 l 0,5.712 C -2.666,-0.513 -1.476,0 0,0" /></g><g
           transform="translate(212.666,98)"
           id="g242"><path
             id="path244"
             style="fill:#333333;fill-opacity:1;fill-rule:nonzero;stroke:none"
             d="m 0,0 2.668,0 c 1.476,0 2.666,-0.513 2.666,-1.146 l 0,-5.712 C 5.334,-7.49 4.144,-8 2.668,-8 L 0,-8 c -1.476,0 -2.666,0.51 -2.666,1.142 l 0,5.712 C -2.666,-0.513 -1.476,0 0,0" /></g><g
           transform="translate(224.5518,165.2412)"
           id="g246"><path
             id="path248"
             style="fill:#a6a6a6;fill-opacity:1;fill-rule:nonzero;stroke:none"
             d="m 0,0 c 6.094,0 11.034,-4.94 11.034,-11.034 0,-6.094 -4.94,-11.035 -11.034,-11.035 -6.094,0 -11.034,4.941 -11.034,11.035 C -11.034,-4.94 -6.094,0 0,0" /></g><g
           transform="translate(224.5508,163.8618)"
           id="g250"><path
             id="path252"
             style="fill:#8c8c8c;fill-opacity:1;fill-rule:nonzero;stroke:none"
             d="m 0,0 c -5.332,0 -9.654,-4.323 -9.654,-9.655 0,-5.332 4.322,-9.655 9.654,-9.655 5.333,-0.001 9.656,4.322 9.656,9.655 C 9.656,-4.322 5.333,0.001 0,0" /></g><g
           transform="translate(224.5518,162.4829)"
           id="g254"><path
             id="path256"
             style="fill:#999999;fill-opacity:1;fill-rule:nonzero;stroke:none"
             d="m 0,0 c 4.57,0 8.275,-3.706 8.275,-8.276 0,-4.571 -3.705,-8.276 -8.275,-8.276 -4.57,0 -8.276,3.705 -8.276,8.276 C -8.276,-3.706 -4.57,0 0,0" /></g><g
           transform="translate(224.5527,161.1035)"
           id="g258"><path
             id="path260"
             style="fill:#8c8c8c;fill-opacity:1;fill-rule:nonzero;stroke:none"
             d="m 0,0 c -3.809,0 -6.896,-3.086 -6.897,-6.896 -10e-4,-3.809 3.087,-6.898 6.897,-6.897 3.81,10e-4 6.896,3.089 6.896,6.897 C 6.895,-3.087 3.808,-0.001 0,0" /></g><g
           transform="translate(208,142.2871)"
           id="g262"><path
             id="path264"
             style="fill:#8c8c8c;fill-opacity:1;fill-rule:nonzero;stroke:none"
             d="m 0,0 0,-12.89 1.83,1.93 0,1.291 1.186,0 0.043,5.823 -1.229,0 0,1.72 L 0,0 Z" /></g><g
           transform="translate(240,142.2871)"
           id="g266"><path
             id="path268"
             style="fill:#8c8c8c;fill-opacity:1;fill-rule:nonzero;stroke:none"
             d="m 0,0 -1.832,-2.126 0,-1.72 -1.23,0 0.043,-5.823 1.187,0 0,-1.291 L 0,-12.89 0,0 Z" /></g><g
           transform="translate(216.6953,138)"
           id="g270"><path
             id="path272"
             style="fill:#bfbfbf;fill-opacity:1;fill-rule:nonzero;stroke:none"
             d="m 0,0 14.609,0 c 0.386,0 0.696,-0.359 0.696,-0.802 l 0,-2.399 C 15.305,-3.645 14.995,-4 14.609,-4 L 0,-4 c -0.386,0 -0.695,0.355 -0.695,0.799 l 0,2.399 C -0.695,-0.359 -0.386,0 0,0" /></g><path
           id="path274"
           style="fill:#d4d4d4;fill-opacity:1;fill-rule:nonzero;stroke:none"
           d="m 240,84 -32,0 0,4 32,0 0,-4 z" /><path
           id="path276"
           style="fill:#d4d4d4;fill-opacity:1;fill-rule:nonzero;stroke:none"
           d="m 204,88 -192,0 0,-4 192,0 0,4 z" /><path
           id="path278"
           style="fill:#8c8c8c;fill-opacity:1;fill-rule:nonzero;stroke:none"
           d="m 40,104 -20,0 0,8 20,0 0,-8 z" /><path
           id="path280"
           style="fill:#8c8c8c;fill-opacity:1;fill-rule:nonzero;stroke:none"
           d="m 164,104 -24,0 0,8 24,0 0,-8 z" /></g></g></g></svg>