<?xml version="1.0" encoding="UTF-8" standalone="no"?>
<svg
   xmlns:dc="http://purl.org/dc/elements/1.1/"
   xmlns:cc="http://creativecommons.org/ns#"
   xmlns:rdf="http://www.w3.org/1999/02/22-rdf-syntax-ns#"
   xmlns:svg="http://www.w3.org/2000/svg"
   xmlns="http://www.w3.org/2000/svg"
   viewBox="0 0 320 320"
   height="320"
   width="320"
   xml:space="preserve"
   version="1.1"
   id="svg2"><metadata
     id="metadata8"><rdf:RDF><cc:Work
         rdf:about=""><dc:format>image/svg+xml</dc:format><dc:type
           rdf:resource="http://purl.org/dc/dcmitype/StillImage" /></cc:Work></rdf:RDF></metadata><defs
     id="defs6"><clipPath
       id="clipPath16"
       clipPathUnits="userSpaceOnUse"><path
         id="path18"
         d="M 0,256 256,256 256,0 0,0 0,256 Z" /></clipPath><clipPath
       id="clipPath24"
       clipPathUnits="userSpaceOnUse"><path
         id="path26"
         d="m 76,180 104,0 0,-104 -104,0 0,104 z" /></clipPath></defs><g
     transform="matrix(1.25,0,0,-1.25,0,320)"
     id="g10"><g
       id="g12"><g
         clip-path="url(#clipPath16)"
         id="g14"><g
           id="g20"><g
             id="g22" /><g
             id="g28"><g
               style="opacity:0.5"
               id="g30"
               clip-path="url(#clipPath24)"><g
                 id="g32"
                 transform="translate(160,180)"><path
                   id="path34"
                   style="fill:#ffffff;fill-opacity:1;fill-rule:nonzero;stroke:none"
                   d="m 0,0 -64,0 c -11.028,0 -20,-8.972 -20,-20 l 0,-64 c 0,-11.028 8.972,-20 20,-20 l 64,0 c 11.028,0 20,8.972 20,20 l 0,64 C 20,-8.972 11.028,0 0,0" /></g></g></g></g><g
           transform="translate(160,84)"
           id="g36"><path
             id="path38"
             style="fill:#b80000;fill-opacity:1;fill-rule:nonzero;stroke:none"
             d="m 0,0 -64,0 c -6.627,0 -12,5.373 -12,12 l 0,64 c 0,6.627 5.373,12 12,12 L 0,88 C 6.627,88 12,82.627 12,76 L 12,12 C 12,5.373 6.627,0 0,0" /></g><g
           transform="translate(128,164)"
           id="g40"><path
             id="path42"
             style="fill:#e6e6e6;fill-opacity:1;fill-rule:nonzero;stroke:none"
             d="m 0,0 c -19.886,0 -36,-16.114 -36,-36 0,-19.887 16.114,-36 36,-36 19.887,0 36,16.113 36,36 C 36,-16.114 19.887,0 0,0" /></g><g
           transform="translate(128,116)"
           id="g44"><path
             id="path46"
             style="fill:#f2f2f2;fill-opacity:1;fill-rule:nonzero;stroke:none"
             d="m 0,0 c -6.63,0 -12,5.37 -12,12 0,6.63 5.37,12 12,12 C 6.63,24 12,18.63 12,12 12,5.37 6.63,0 0,0" /></g><g
           transform="translate(134,128)"
           id="g48"><path
             id="path50"
             style="fill:#999999;fill-opacity:1;fill-rule:nonzero;stroke:none"
             d="m 0,0 c 0,-3.318 -2.682,-6 -6,-6 -3.318,0 -6,2.682 -6,6 0,3.318 2.682,6 6,6 3.318,0 6,-2.682 6,-6" /></g></g></g></g></svg>