<?xml version="1.0" encoding="UTF-8" standalone="no"?>
<svg
   xmlns:dc="http://purl.org/dc/elements/1.1/"
   xmlns:cc="http://creativecommons.org/ns#"
   xmlns:rdf="http://www.w3.org/1999/02/22-rdf-syntax-ns#"
   xmlns:svg="http://www.w3.org/2000/svg"
   xmlns="http://www.w3.org/2000/svg"
   viewBox="0 0 320 320"
   height="320"
   width="320"
   xml:space="preserve"
   version="1.1"
   id="svg2"><metadata
     id="metadata8"><rdf:RDF><cc:Work
         rdf:about=""><dc:format>image/svg+xml</dc:format><dc:type
           rdf:resource="http://purl.org/dc/dcmitype/StillImage" /></cc:Work></rdf:RDF></metadata><defs
     id="defs6"><clipPath
       id="clipPath16"
       clipPathUnits="userSpaceOnUse"><path
         id="path18"
         d="M 0,256 256,256 256,0 0,0 0,256 Z" /></clipPath><clipPath
       id="clipPath24"
       clipPathUnits="userSpaceOnUse"><path
         id="path26"
         d="m 58.9042,252 138.1918,0 0,-248 -138.1918,0 0,248 z" /></clipPath></defs><g
     transform="matrix(1.25,0,0,-1.25,0,320)"
     id="g10"><g
       id="g12"><g
         clip-path="url(#clipPath16)"
         id="g14"><g
           id="g20"><g
             id="g22" /><g
             id="g28"><g
               style="opacity:0.5"
               id="g30"
               clip-path="url(#clipPath24)"><g
                 id="g32"
                 transform="translate(192.001,175.0645)"><path
                   id="path34"
                   style="fill:#ffffff;fill-opacity:1;fill-rule:nonzero;stroke:none"
                   d="m 0,0 0,36.936 0,4 0,28 0,8 -8,0 -112,0 -8,0 0,-8 0,-28 0,-4 L -128,0 c -5.494,-6.77 -6.636,-13.998 -2.991,-19.146 -1.93,-3.069 -4.487,-9.966 2.991,-19.01 l 0,-36.908 0,-4 0,-84 0,-8 8,0 112,0 8,0 0,8 0,84 0,4 0,36.908 c 7.478,9.045 4.92,15.942 2.989,19.011 C 6.634,-13.994 5.491,-6.768 0,0" /></g></g></g></g><g
           transform="translate(72,172)"
           id="g36"><path
             id="path38"
             style="fill:#b80000;fill-opacity:1;fill-rule:nonzero;stroke:none"
             d="m 0,0 c 0,0 -8,-8 -4,-12 4,-4 0,-8 0,-8 0,0 -4,-4 4,-12 l 4,0 0,32 -4,0 z" /></g><g
           transform="translate(184,172)"
           id="g40"><path
             id="path42"
             style="fill:#b80000;fill-opacity:1;fill-rule:nonzero;stroke:none"
             d="m 0,0 c 0,0 8,-8 4,-12 -4,-4 0,-8 0,-8 0,0 4,-4 -4,-12 l -4,0 0,32 4,0 z" /></g><path
           id="path44"
           style="fill:#595959;fill-opacity:1;fill-rule:nonzero;stroke:none"
           d="m 184,96 -112,0 0,120 112,0 0,-120 z" /><path
           id="path46"
           style="fill:#666666;fill-opacity:1;fill-rule:nonzero;stroke:none"
           d="m 176,92 -96,0 0,128 96,0 0,-128 z" /><path
           id="path48"
           style="fill:#737373;fill-opacity:1;fill-rule:nonzero;stroke:none"
           d="m 184,212 -112,0 0,32 112,0 0,-32 z" /><path
           id="path50"
           style="fill:#737373;fill-opacity:1;fill-rule:nonzero;stroke:none"
           d="m 184,12 -112,0 0,88 112,0 0,-88 z" /><path
           id="path52"
           style="fill:#d9d9d9;fill-opacity:1;fill-rule:nonzero;stroke:none"
           d="m 168,100 -80,0 0,112 80,0 0,-112 z" /><g
           transform="translate(104,200)"
           id="g54"><path
             id="path56"
             style="fill:#808080;fill-opacity:1;fill-rule:nonzero;stroke:none"
             d="m 0,0 c -4.418,0 -8,-3.582 -8,-8 0,-4.418 3.582,-8 8,-8 4.418,0 8,3.582 8,8 0,4.418 -3.582,8 -8,8 m 0,-2 c 3.309,0 6,-2.691 6,-6 0,-3.309 -2.691,-6 -6,-6 -3.309,0 -6,2.691 -6,6 0,3.309 2.691,6 6,6" /></g><g
           transform="translate(128,200)"
           id="g58"><path
             id="path60"
             style="fill:#808080;fill-opacity:1;fill-rule:nonzero;stroke:none"
             d="m 0,0 c -4.418,0 -8,-3.582 -8,-8 0,-4.418 3.582,-8 8,-8 4.418,0 8,3.582 8,8 0,4.418 -3.582,8 -8,8 m 0,-2 c 3.309,0 6,-2.691 6,-6 0,-3.309 -2.691,-6 -6,-6 -3.309,0 -6,2.691 -6,6 0,3.309 2.691,6 6,6" /></g><g
           transform="translate(152,200)"
           id="g62"><path
             id="path64"
             style="fill:#808080;fill-opacity:1;fill-rule:nonzero;stroke:none"
             d="m 0,0 c -4.418,0 -8,-3.582 -8,-8 0,-4.418 3.582,-8 8,-8 4.418,0 8,3.582 8,8 0,4.418 -3.582,8 -8,8 m 0,-2 c 3.309,0 6,-2.691 6,-6 0,-3.309 -2.691,-6 -6,-6 -3.309,0 -6,2.691 -6,6 0,3.309 2.691,6 6,6" /></g><g
           transform="translate(104,176)"
           id="g66"><path
             id="path68"
             style="fill:#808080;fill-opacity:1;fill-rule:nonzero;stroke:none"
             d="m 0,0 c -4.418,0 -8,-3.582 -8,-8 0,-4.418 3.582,-8 8,-8 4.418,0 8,3.582 8,8 0,4.418 -3.582,8 -8,8 m 0,-2 c 3.309,0 6,-2.691 6,-6 0,-3.309 -2.691,-6 -6,-6 -3.309,0 -6,2.691 -6,6 0,3.309 2.691,6 6,6" /></g><g
           transform="translate(128,176)"
           id="g70"><path
             id="path72"
             style="fill:#808080;fill-opacity:1;fill-rule:nonzero;stroke:none"
             d="m 0,0 c -4.418,0 -8,-3.582 -8,-8 0,-4.418 3.582,-8 8,-8 4.418,0 8,3.582 8,8 0,4.418 -3.582,8 -8,8 m 0,-2 c 3.309,0 6,-2.691 6,-6 0,-3.309 -2.691,-6 -6,-6 -3.309,0 -6,2.691 -6,6 0,3.309 2.691,6 6,6" /></g><g
           transform="translate(152,176)"
           id="g74"><path
             id="path76"
             style="fill:#808080;fill-opacity:1;fill-rule:nonzero;stroke:none"
             d="m 0,0 c -4.418,0 -8,-3.582 -8,-8 0,-4.418 3.582,-8 8,-8 4.418,0 8,3.582 8,8 0,4.418 -3.582,8 -8,8 m 0,-2 c 3.309,0 6,-2.691 6,-6 0,-3.309 -2.691,-6 -6,-6 -3.309,0 -6,2.691 -6,6 0,3.309 2.691,6 6,6" /></g><g
           transform="translate(104,152)"
           id="g78"><path
             id="path80"
             style="fill:#808080;fill-opacity:1;fill-rule:nonzero;stroke:none"
             d="m 0,0 c -4.418,0 -8,-3.582 -8,-8 0,-4.418 3.582,-8 8,-8 4.418,0 8,3.582 8,8 0,4.418 -3.582,8 -8,8 m 0,-2 c 3.309,0 6,-2.691 6,-6 0,-3.309 -2.691,-6 -6,-6 -3.309,0 -6,2.691 -6,6 0,3.309 2.691,6 6,6" /></g><g
           transform="translate(128,152)"
           id="g82"><path
             id="path84"
             style="fill:#808080;fill-opacity:1;fill-rule:nonzero;stroke:none"
             d="m 0,0 c -4.418,0 -8,-3.582 -8,-8 0,-4.418 3.582,-8 8,-8 4.418,0 8,3.582 8,8 0,4.418 -3.582,8 -8,8 m 0,-2 c 3.309,0 6,-2.691 6,-6 0,-3.309 -2.691,-6 -6,-6 -3.309,0 -6,2.691 -6,6 0,3.309 2.691,6 6,6" /></g><g
           transform="translate(152,152)"
           id="g86"><path
             id="path88"
             style="fill:#808080;fill-opacity:1;fill-rule:nonzero;stroke:none"
             d="m 0,0 c -4.418,0 -8,-3.582 -8,-8 0,-4.418 3.582,-8 8,-8 4.418,0 8,3.582 8,8 0,4.418 -3.582,8 -8,8 m 0,-2 c 3.309,0 6,-2.691 6,-6 0,-3.309 -2.691,-6 -6,-6 -3.309,0 -6,2.691 -6,6 0,3.309 2.691,6 6,6" /></g><g
           transform="translate(104,128)"
           id="g90"><path
             id="path92"
             style="fill:#808080;fill-opacity:1;fill-rule:nonzero;stroke:none"
             d="m 0,0 c -4.418,0 -8,-3.582 -8,-8 0,-4.418 3.582,-8 8,-8 4.418,0 8,3.582 8,8 0,4.418 -3.582,8 -8,8 m 0,-2 c 3.309,0 6,-2.691 6,-6 0,-3.309 -2.691,-6 -6,-6 -3.309,0 -6,2.691 -6,6 0,3.309 2.691,6 6,6" /></g><g
           transform="translate(128,128)"
           id="g94"><path
             id="path96"
             style="fill:#808080;fill-opacity:1;fill-rule:nonzero;stroke:none"
             d="m 0,0 c -4.418,0 -8,-3.582 -8,-8 0,-4.418 3.582,-8 8,-8 4.418,0 8,3.582 8,8 0,4.418 -3.582,8 -8,8 m 0,-2 c 3.309,0 6,-2.691 6,-6 0,-3.309 -2.691,-6 -6,-6 -3.309,0 -6,2.691 -6,6 0,3.309 2.691,6 6,6" /></g><g
           transform="translate(152,128)"
           id="g98"><path
             id="path100"
             style="fill:#808080;fill-opacity:1;fill-rule:nonzero;stroke:none"
             d="m 0,0 c -4.418,0 -8,-3.582 -8,-8 0,-4.418 3.582,-8 8,-8 4.418,0 8,3.582 8,8 0,4.418 -3.582,8 -8,8 m 0,-2 c 3.309,0 6,-2.691 6,-6 0,-3.309 -2.691,-6 -6,-6 -3.309,0 -6,2.691 -6,6 0,3.309 2.691,6 6,6" /></g><g
           transform="translate(128,86)"
           id="g102"><path
             id="path104"
             style="fill:#4c4c4c;fill-opacity:1;fill-rule:nonzero;stroke:none"
             d="m 0,0 c -18.748,0 -34,-15.252 -34,-34 0,-18.748 15.252,-34 34,-34 18.748,0 34,15.252 34,34 C 34,-15.252 18.748,0 0,0" /></g><g
           transform="translate(128,90)"
           id="g106"><path
             id="path108"
             style="fill:#595959;fill-opacity:1;fill-rule:nonzero;stroke:none"
             d="m 0,0 c -20.953,0 -38,-17.047 -38,-38 0,-20.953 17.047,-38 38,-38 20.953,0 38,17.047 38,38 C 38,-17.047 20.953,0 0,0 m 0,-2 c 19.851,0 36,-16.149 36,-36 0,-19.851 -16.149,-36 -36,-36 -19.851,0 -36,16.149 -36,36 0,19.851 16.149,36 36,36" /></g><g
           transform="translate(160,52)"
           id="g110"><path
             id="path112"
             style="fill:#d9d9d9;fill-opacity:1;fill-rule:nonzero;stroke:none"
             d="m 0,0 c 0,-17.673 -14.327,-32 -32,-32 -17.673,0 -32,14.327 -32,32 0,17.673 14.327,32 32,32 C -14.327,32 0,17.673 0,0" /></g><g
           transform="translate(136,52)"
           id="g114"><path
             id="path116"
             style="fill:#595959;fill-opacity:1;fill-rule:nonzero;stroke:none"
             d="m 0,0 c 0,-4.418 -3.582,-8 -8,-8 -4.418,0 -8,3.582 -8,8 0,4.418 3.582,8 8,8 4.418,0 8,-3.582 8,-8" /></g><g
           transform="translate(132,52)"
           id="g118"><path
             id="path120"
             style="fill:#4c4c4c;fill-opacity:1;fill-rule:nonzero;stroke:none"
             d="m 0,0 c 0,-2.209 -1.791,-4 -4,-4 -2.209,0 -4,1.791 -4,4 0,2.209 1.791,4 4,4 2.209,0 4,-1.791 4,-4" /></g><path
           id="path122"
           style="fill:#d9d9d9;fill-opacity:1;fill-rule:nonzero;stroke:none"
           d="m 176,220 -96,0 0,16 96,0 0,-16 z" /><path
           id="path124"
           style="fill:#666666;fill-opacity:1;fill-rule:nonzero;stroke:none"
           d="m 76,100 -4,0 0,112 4,0 0,-112 z" /><path
           id="path126"
           style="fill:#666666;fill-opacity:1;fill-rule:nonzero;stroke:none"
           d="m 184,100 -4,0 0,112 4,0 0,-112 z" /></g></g></g></svg>