<?xml version="1.0" encoding="UTF-8" standalone="no"?>
<svg
   xmlns:dc="http://purl.org/dc/elements/1.1/"
   xmlns:cc="http://creativecommons.org/ns#"
   xmlns:rdf="http://www.w3.org/1999/02/22-rdf-syntax-ns#"
   xmlns:svg="http://www.w3.org/2000/svg"
   xmlns="http://www.w3.org/2000/svg"
   viewBox="0 0 320 320"
   height="320"
   width="320"
   xml:space="preserve"
   version="1.1"
   id="svg2"><metadata
     id="metadata8"><rdf:RDF><cc:Work
         rdf:about=""><dc:format>image/svg+xml</dc:format><dc:type
           rdf:resource="http://purl.org/dc/dcmitype/StillImage" /></cc:Work></rdf:RDF></metadata><defs
     id="defs6"><clipPath
       id="clipPath16"
       clipPathUnits="userSpaceOnUse"><path
         id="path18"
         d="M 0,256 256,256 256,0 0,0 0,256 Z" /></clipPath><clipPath
       id="clipPath24"
       clipPathUnits="userSpaceOnUse"><path
         id="path26"
         d="M 40,252 216,252 216,4 40,4 40,252 Z" /></clipPath><clipPath
       id="clipPath136"
       clipPathUnits="userSpaceOnUse"><path
         id="path138"
         d="M 0,256 256,256 256,0 0,0 0,256 Z" /></clipPath></defs><g
     transform="matrix(1.25,0,0,-1.25,0,320)"
     id="g10"><g
       id="g12"><g
         clip-path="url(#clipPath16)"
         id="g14"><g
           id="g20"><g
             id="g22" /><g
             id="g28"><g
               style="opacity:0.5"
               id="g30"
               clip-path="url(#clipPath24)"><g
                 id="g32"
                 transform="translate(199.3135,252)"><path
                   id="path34"
                   style="fill:#ffffff;fill-opacity:1;fill-rule:nonzero;stroke:none"
                   d="m 0,0 -3.313,0 -8,0 -8,0 -100,0 -8,0 -12,0 -3.314,0 -2.343,-2.343 -12,-12 -2.343,-2.344 0,-3.313 0,-8 0,-4 0,-4 0,-4 0,-4 0,-4 0,-4 0,-4 0,-16 0,-44 0,-4 0,-4 0,-4 0,-4 0,-4 0,-4 0,-4 0,-4 0,-4 0,-4 0,-4 0,-4 0,-4 0,-4 0,-4 0,-4 0,-4 0,-4 0,-4 0,-4 0,-4 0,-4 0,-4 0,-8 0,-0.662 0.108,-0.653 4,-24 1.115,-6.685 6.777,0 152,0 6.777,0 1.114,6.685 4,24 0.109,0.653 0,0.662 0,8 0,4 0,4 0,4 0,4 0,4 0,4 0,4 0,4 0,4 0,4 0,4 0,4 0,4 0,4 0,4 0,4 0,4 0,4 0,4 0,4 0,4 0,4 0,4 0,44 0,16 0,4 0,4 0,4 0,4 0,4 0,4 0,4 0,8 0,3.313 -2.343,2.344 -12,12 L 0,0 Z" /></g></g></g></g></g></g><path
       id="path36"
       style="fill:#d35400;fill-opacity:1;fill-rule:nonzero;stroke:none"
       d="m 188,176 -120,0 0,64 120,0 0,-64 z" /><g
       transform="translate(180,180)"
       id="g38"><path
         id="path40"
         style="fill:#bfbfbf;fill-opacity:1;fill-rule:nonzero;stroke:none"
         d="m 0,0 0,64 -104,0 0,-64 -28,0 0,-144 160,0 L 28,0 0,0 Z" /></g><g
       transform="translate(184,244)"
       id="g42"><path
         id="path44"
         style="fill:#e77f22;fill-opacity:1;fill-rule:nonzero;stroke:none"
         d="M 0,0 12,0 24,-12 24,-64 0,-64 0,0 Z" /></g><g
       transform="translate(72,244)"
       id="g46"><path
         id="path48"
         style="fill:#e77f22;fill-opacity:1;fill-rule:nonzero;stroke:none"
         d="m 0,0 -12,0 -12,-12 0,-52 24,0 0,64 z" /></g><path
       id="path50"
       style="fill:#a6a6a6;fill-opacity:1;fill-rule:nonzero;stroke:none"
       d="m 180,212 -104,0 0,4 104,0 0,-4 z" /><path
       id="path52"
       style="fill:#a6a6a6;fill-opacity:1;fill-rule:nonzero;stroke:none"
       d="m 180,220 -104,0 0,4 104,0 0,-4 z" /><path
       id="path54"
       style="fill:#a6a6a6;fill-opacity:1;fill-rule:nonzero;stroke:none"
       d="m 180,204 -104,0 0,4 104,0 0,-4 z" /><path
       id="path56"
       style="fill:#a6a6a6;fill-opacity:1;fill-rule:nonzero;stroke:none"
       d="m 180,196 -104,0 0,4 104,0 0,-4 z" /><path
       id="path58"
       style="fill:#d35400;fill-opacity:1;fill-rule:nonzero;stroke:none"
       d="m 72,220 -24,0 0,4 24,0 0,-4 z" /><path
       id="path60"
       style="fill:#d35400;fill-opacity:1;fill-rule:nonzero;stroke:none"
       d="m 72,212 -24,0 0,4 24,0 0,-4 z" /><path
       id="path62"
       style="fill:#d35400;fill-opacity:1;fill-rule:nonzero;stroke:none"
       d="m 72,204 -24,0 0,4 24,0 0,-4 z" /><path
       id="path64"
       style="fill:#d35400;fill-opacity:1;fill-rule:nonzero;stroke:none"
       d="m 72,196 -24,0 0,4 24,0 0,-4 z" /><path
       id="path66"
       style="fill:#d35400;fill-opacity:1;fill-rule:nonzero;stroke:none"
       d="m 208,220 -24,0 0,4 24,0 0,-4 z" /><path
       id="path68"
       style="fill:#d35400;fill-opacity:1;fill-rule:nonzero;stroke:none"
       d="m 208,212 -24,0 0,4 24,0 0,-4 z" /><path
       id="path70"
       style="fill:#d35400;fill-opacity:1;fill-rule:nonzero;stroke:none"
       d="m 208,204 -24,0 0,4 24,0 0,-4 z" /><path
       id="path72"
       style="fill:#d35400;fill-opacity:1;fill-rule:nonzero;stroke:none"
       d="m 208,196 -24,0 0,4 24,0 0,-4 z" /><path
       id="path74"
       style="fill:#ff0000;fill-opacity:1;fill-rule:nonzero;stroke:none"
       d="m 196,144 -136,0 0,32 136,0 0,-32 z" /><g
       transform="translate(180,160)"
       id="g76"><path
         id="path78"
         style="fill:#333333;fill-opacity:1;fill-rule:nonzero;stroke:none"
         d="M 0,0 -104,0 -116,16 12,16 0,0 Z" /></g><g
       transform="translate(204,12)"
       id="g80"><path
         id="path82"
         style="fill:#a6a6a6;fill-opacity:1;fill-rule:nonzero;stroke:none"
         d="M 0,0 -152,0 -156,24 4,24 0,0 Z" /></g><path
       id="path84"
       style="fill:#a6a6a6;fill-opacity:1;fill-rule:nonzero;stroke:none"
       d="m 72,132 -24,0 0,4 24,0 0,-4 z" /><path
       id="path86"
       style="fill:#a6a6a6;fill-opacity:1;fill-rule:nonzero;stroke:none"
       d="m 72,124 -24,0 0,4 24,0 0,-4 z" /><path
       id="path88"
       style="fill:#a6a6a6;fill-opacity:1;fill-rule:nonzero;stroke:none"
       d="m 72,116 -24,0 0,4 24,0 0,-4 z" /><path
       id="path90"
       style="fill:#a6a6a6;fill-opacity:1;fill-rule:nonzero;stroke:none"
       d="m 72,108 -24,0 0,4 24,0 0,-4 z" /><path
       id="path92"
       style="fill:#a6a6a6;fill-opacity:1;fill-rule:nonzero;stroke:none"
       d="m 72,100 -24,0 0,4 24,0 0,-4 z" /><path
       id="path94"
       style="fill:#a6a6a6;fill-opacity:1;fill-rule:nonzero;stroke:none"
       d="m 72,92 -24,0 0,4 24,0 0,-4 z" /><path
       id="path96"
       style="fill:#a6a6a6;fill-opacity:1;fill-rule:nonzero;stroke:none"
       d="m 72,84 -24,0 0,4 24,0 0,-4 z" /><path
       id="path98"
       style="fill:#a6a6a6;fill-opacity:1;fill-rule:nonzero;stroke:none"
       d="m 72,76 -24,0 0,4 24,0 0,-4 z" /><path
       id="path100"
       style="fill:#a6a6a6;fill-opacity:1;fill-rule:nonzero;stroke:none"
       d="m 72,68 -24,0 0,4 24,0 0,-4 z" /><path
       id="path102"
       style="fill:#a6a6a6;fill-opacity:1;fill-rule:nonzero;stroke:none"
       d="m 72,60 -24,0 0,4 24,0 0,-4 z" /><path
       id="path104"
       style="fill:#a6a6a6;fill-opacity:1;fill-rule:nonzero;stroke:none"
       d="m 72,52 -24,0 0,4 24,0 0,-4 z" /><path
       id="path106"
       style="fill:#a6a6a6;fill-opacity:1;fill-rule:nonzero;stroke:none"
       d="m 72,44 -24,0 0,4 24,0 0,-4 z" /><path
       id="path108"
       style="fill:#a6a6a6;fill-opacity:1;fill-rule:nonzero;stroke:none"
       d="m 208,132 -24,0 0,4 24,0 0,-4 z" /><path
       id="path110"
       style="fill:#a6a6a6;fill-opacity:1;fill-rule:nonzero;stroke:none"
       d="m 208,124 -24,0 0,4 24,0 0,-4 z" /><path
       id="path112"
       style="fill:#a6a6a6;fill-opacity:1;fill-rule:nonzero;stroke:none"
       d="m 208,116 -24,0 0,4 24,0 0,-4 z" /><path
       id="path114"
       style="fill:#a6a6a6;fill-opacity:1;fill-rule:nonzero;stroke:none"
       d="m 208,108 -24,0 0,4 24,0 0,-4 z" /><path
       id="path116"
       style="fill:#a6a6a6;fill-opacity:1;fill-rule:nonzero;stroke:none"
       d="m 208,100 -24,0 0,4 24,0 0,-4 z" /><path
       id="path118"
       style="fill:#a6a6a6;fill-opacity:1;fill-rule:nonzero;stroke:none"
       d="m 208,92 -24,0 0,4 24,0 0,-4 z" /><path
       id="path120"
       style="fill:#a6a6a6;fill-opacity:1;fill-rule:nonzero;stroke:none"
       d="m 208,84 -24,0 0,4 24,0 0,-4 z" /><path
       id="path122"
       style="fill:#a6a6a6;fill-opacity:1;fill-rule:nonzero;stroke:none"
       d="m 208,76 -24,0 0,4 24,0 0,-4 z" /><path
       id="path124"
       style="fill:#a6a6a6;fill-opacity:1;fill-rule:nonzero;stroke:none"
       d="m 208,68 -24,0 0,4 24,0 0,-4 z" /><path
       id="path126"
       style="fill:#a6a6a6;fill-opacity:1;fill-rule:nonzero;stroke:none"
       d="m 208,60 -24,0 0,4 24,0 0,-4 z" /><path
       id="path128"
       style="fill:#a6a6a6;fill-opacity:1;fill-rule:nonzero;stroke:none"
       d="m 208,52 -24,0 0,4 24,0 0,-4 z" /><path
       id="path130"
       style="fill:#a6a6a6;fill-opacity:1;fill-rule:nonzero;stroke:none"
       d="m 208,44 -24,0 0,4 24,0 0,-4 z" /><g
       id="g132"><g
         clip-path="url(#clipPath136)"
         id="g134"><g
           transform="translate(170,90)"
           id="g140"><path
             id="path142"
             style="fill:#b3b3b3;fill-opacity:1;fill-rule:nonzero;stroke:none"
             d="m 0,0 c 0,-23.196 -18.804,-42 -42,-42 -23.196,0 -42,18.804 -42,42 0,23.196 18.804,42 42,42 C -18.804,42 0,23.196 0,0" /></g><g
           transform="translate(146,90)"
           id="g144"><path
             id="path146"
             style="fill:#404040;fill-opacity:1;fill-rule:nonzero;stroke:none"
             d="m 0,0 c 0,-9.941 -8.059,-18 -18,-18 -9.941,0 -18,8.059 -18,18 0,9.941 8.059,18 18,18 C -8.059,18 0,9.941 0,0" /></g><g
           transform="translate(142,90)"
           id="g148"><path
             id="path150"
             style="fill:#595959;fill-opacity:1;fill-rule:nonzero;stroke:none"
             d="m 0,0 c 0,-7.732 -6.268,-14 -14,-14 -7.732,0 -14,6.268 -14,14 0,7.732 6.268,14 14,14 C -6.268,14 0,7.732 0,0" /></g><g
           transform="translate(144.918,104.0889)"
           id="g152"><path
             id="path154"
             style="fill:#a6a6a6;fill-opacity:1;fill-rule:nonzero;stroke:none"
             d="m 0,0 10.002,10.002 c 0.753,0.754 0.753,1.976 0,2.729 l -0.1,0.1 c -0.754,0.753 -1.975,0.753 -2.729,0 L -2.829,2.829 C -3.596,2.062 -3.562,0.832 -2.794,0.066 -2.784,0.056 -2.773,0.045 -2.763,0.035 -1.997,-0.732 -0.768,-0.767 0,0" /></g><g
           transform="translate(108,90)"
           id="g156"><path
             id="path158"
             style="fill:#a6a6a6;fill-opacity:1;fill-rule:nonzero;stroke:none"
             d="M 0,0 0,0.021 C 0.001,1.105 -0.843,2 -1.929,2 L -16.07,2 C -17.136,2 -18,1.136 -18,0.07 l 0,-0.14 c 0,-1.066 0.864,-1.93 1.93,-1.93 l 14.141,0 c 1.086,0 1.93,0.895 1.929,1.979 L 0,0 Z" /></g><g
           transform="translate(128,110)"
           id="g160"><path
             id="path162"
             style="fill:#a6a6a6;fill-opacity:1;fill-rule:nonzero;stroke:none"
             d="M 0,0 0.021,0 C 1.105,-0.001 2,0.844 2,1.929 L 2,16.07 C 2,17.136 1.136,18 0.07,18 l -0.14,0 C -1.136,18 -2,17.136 -2,16.07 L -2,1.929 C -2,0.844 -1.106,-0.001 -0.021,0 L 0,0 Z" /></g><g
           transform="translate(113.9111,106.918)"
           id="g164"><path
             id="path166"
             style="fill:#a6a6a6;fill-opacity:1;fill-rule:nonzero;stroke:none"
             d="m 0,0 -10.002,10.002 c -0.754,0.753 -1.976,0.753 -2.73,0 l -0.099,-0.1 c -0.753,-0.754 -0.753,-1.975 0,-2.729 L -2.829,-2.829 c 0.767,-0.767 1.997,-0.733 2.763,0.035 0.01,0.01 0.021,0.021 0.031,0.031 C 0.733,-1.997 0.767,-0.768 0,0" /></g><g
           transform="translate(149.9287,92)"
           id="g168"><path
             id="path170"
             style="fill:#a6a6a6;fill-opacity:1;fill-rule:nonzero;stroke:none"
             d="m 0,0 c -1.085,0 -1.93,-0.895 -1.929,-1.979 l 0,-0.021 0,-0.021 C -1.93,-3.105 -1.085,-4 0,-4 l 14.142,0 c 1.065,0 1.929,0.864 1.929,1.93 l 0,0.14 C 16.071,-0.864 15.207,0 14.142,0 L 0,0 Z" /></g><g
           transform="translate(142.0889,73.082)"
           id="g172"><path
             id="path174"
             style="fill:#a6a6a6;fill-opacity:1;fill-rule:nonzero;stroke:none"
             d="m 0,0 10.002,-10.002 c 0.754,-0.753 1.976,-0.753 2.729,0 l 0.1,0.1 c 0.753,0.754 0.753,1.975 0,2.729 L 2.829,2.829 C 2.062,3.596 0.832,3.562 0.066,2.794 0.056,2.784 0.046,2.773 0.035,2.763 -0.732,1.997 -0.767,0.768 0,0" /></g><g
           transform="translate(111.0825,75.9111)"
           id="g176"><path
             id="path178"
             style="fill:#a6a6a6;fill-opacity:1;fill-rule:nonzero;stroke:none"
             d="m 0,0 -10.002,-10.002 c -0.754,-0.754 -0.754,-1.976 0,-2.729 l 0.099,-0.1 c 0.754,-0.753 1.976,-0.753 2.729,0 L 2.828,-2.829 c 0.767,0.767 0.734,1.997 -0.035,2.763 -0.01,0.01 -0.02,0.021 -0.03,0.031 C 1.996,0.732 0.767,0.767 0,0" /></g><g
           transform="translate(128,70)"
           id="g180"><path
             id="path182"
             style="fill:#a6a6a6;fill-opacity:1;fill-rule:nonzero;stroke:none"
             d="M 0,0 -0.021,0 C -1.106,0.001 -2,-0.844 -2,-1.929 l 0,-14.141 c 0,-1.066 0.864,-1.93 1.93,-1.93 l 0.14,0 C 1.136,-18 2,-17.136 2,-16.07 L 2,-1.929 C 2,-0.844 1.105,0.001 0.021,0 L 0,0 Z" /></g></g></g></g></svg>