<?xml version="1.0" encoding="UTF-8" standalone="no"?>
<svg
   xmlns:dc="http://purl.org/dc/elements/1.1/"
   xmlns:cc="http://creativecommons.org/ns#"
   xmlns:rdf="http://www.w3.org/1999/02/22-rdf-syntax-ns#"
   xmlns:svg="http://www.w3.org/2000/svg"
   xmlns="http://www.w3.org/2000/svg"
   viewBox="0 0 320 320"
   height="320"
   width="320"
   xml:space="preserve"
   version="1.1"
   id="svg2"><metadata
     id="metadata8"><rdf:RDF><cc:Work
         rdf:about=""><dc:format>image/svg+xml</dc:format><dc:type
           rdf:resource="http://purl.org/dc/dcmitype/StillImage" /></cc:Work></rdf:RDF></metadata><defs
     id="defs6"><clipPath
       id="clipPath16"
       clipPathUnits="userSpaceOnUse"><path
         id="path18"
         d="M 0,256 256,256 256,0 0,0 0,256 Z" /></clipPath><clipPath
       id="clipPath24"
       clipPathUnits="userSpaceOnUse"><path
         id="path26"
         d="M 28,252 228,252 228,4 28,4 28,252 Z" /></clipPath><clipPath
       id="clipPath42"
       clipPathUnits="userSpaceOnUse"><path
         id="path44"
         d="M 0,256 256,256 256,0 0,0 0,256 Z" /></clipPath></defs><g
     transform="matrix(1.25,0,0,-1.25,0,320)"
     id="g10"><g
       id="g12"><g
         clip-path="url(#clipPath16)"
         id="g14"><g
           id="g20"><g
             id="g22" /><g
             id="g28"><g
               style="opacity:0.5"
               id="g30"
               clip-path="url(#clipPath24)"><g
                 id="g32"
                 transform="translate(228,252)"><path
                   id="path34"
                   style="fill:#ffffff;fill-opacity:1;fill-rule:nonzero;stroke:none"
                   d="m 0,0 -8,0 -184,0 -8,0 0,-8 0,-232 0,-8 8,0 184,0 8,0 0,8 0,232 0,8 z" /></g></g></g></g></g></g><path
       id="path36"
       style="fill:#737373;fill-opacity:1;fill-rule:nonzero;stroke:none"
       d="m 220,12 -184,0 0,232 184,0 0,-232 z" /><g
       id="g38"><g
         clip-path="url(#clipPath42)"
         id="g40"><g
           transform="translate(194.4437,44)"
           id="g46"><path
             id="path48"
             style="fill:#8c8c8c;fill-opacity:1;fill-rule:nonzero;stroke:none"
             d="m 0,0 -132.887,0 c -3.069,0 -5.557,2.429 -5.557,5.425 l 0,173.15 c 0,2.996 2.488,5.425 5.557,5.425 L 0,184 c 3.069,0 5.556,-2.429 5.556,-5.425 l 0,-173.15 C 5.556,2.429 3.069,0 0,0" /></g><g
           transform="translate(194.4437,232)"
           id="g50"><path
             id="path52"
             style="fill:#808080;fill-opacity:1;fill-rule:nonzero;stroke:none"
             d="m 0,0 -132.887,0 c -5.27,0 -9.557,-4.228 -9.557,-9.425 l 0,-173.15 c 0,-5.197 4.287,-9.425 9.557,-9.425 L 0,-192 c 5.269,0 9.556,4.228 9.556,9.425 l 0,173.15 C 9.556,-4.228 5.269,0 0,0 m 0,-4 c 3.069,0 5.556,-2.429 5.556,-5.425 l 0,-173.15 C 5.556,-185.571 3.069,-188 0,-188 l -132.887,0 c -3.069,0 -5.557,2.429 -5.557,5.425 l 0,173.15 c 0,2.996 2.488,5.425 5.557,5.425 L 0,-4" /></g><path
           id="path54"
           style="fill:#999999;fill-opacity:1;fill-rule:nonzero;stroke:none"
           d="m 192,96 -128,0 0,84 128,0 0,-84 z" /><path
           id="path56"
           style="fill:#808080;fill-opacity:1;fill-rule:nonzero;stroke:none"
           d="m 192,90 -128,0 0,2 128,0 0,-2 z" /><path
           id="path58"
           style="fill:#808080;fill-opacity:1;fill-rule:nonzero;stroke:none"
           d="m 192,86 -128,0 0,2 128,0 0,-2 z" /><path
           id="path60"
           style="fill:#808080;fill-opacity:1;fill-rule:nonzero;stroke:none"
           d="m 192,82 -128,0 0,2 128,0 0,-2 z" /><path
           id="path62"
           style="fill:#808080;fill-opacity:1;fill-rule:nonzero;stroke:none"
           d="m 192,78 -128,0 0,2 128,0 0,-2 z" /><path
           id="path64"
           style="fill:#808080;fill-opacity:1;fill-rule:nonzero;stroke:none"
           d="m 192,74 -128,0 0,2 128,0 0,-2 z" /><path
           id="path66"
           style="fill:#808080;fill-opacity:1;fill-rule:nonzero;stroke:none"
           d="m 192,70 -128,0 0,2 128,0 0,-2 z" /><path
           id="path68"
           style="fill:#808080;fill-opacity:1;fill-rule:nonzero;stroke:none"
           d="m 192,66 -128,0 0,2 128,0 0,-2 z" /><path
           id="path70"
           style="fill:#808080;fill-opacity:1;fill-rule:nonzero;stroke:none"
           d="m 192,62 -128,0 0,2 128,0 0,-2 z" /><path
           id="path72"
           style="fill:#808080;fill-opacity:1;fill-rule:nonzero;stroke:none"
           d="m 192,58 -128,0 0,2 128,0 0,-2 z" /><path
           id="path74"
           style="fill:#808080;fill-opacity:1;fill-rule:nonzero;stroke:none"
           d="m 192,54 -128,0 0,2 128,0 0,-2 z" /><path
           id="path76"
           style="fill:#808080;fill-opacity:1;fill-rule:nonzero;stroke:none"
           d="m 192,50 -128,0 0,2 128,0 0,-2 z" /><path
           id="path78"
           style="fill:#808080;fill-opacity:1;fill-rule:nonzero;stroke:none"
           d="m 192,222 -88,0 0,2 88,0 0,-2 z" /><path
           id="path80"
           style="fill:#808080;fill-opacity:1;fill-rule:nonzero;stroke:none"
           d="m 192,218 -88,0 0,2 88,0 0,-2 z" /><path
           id="path82"
           style="fill:#808080;fill-opacity:1;fill-rule:nonzero;stroke:none"
           d="m 192,214 -88,0 0,2 88,0 0,-2 z" /><path
           id="path84"
           style="fill:#808080;fill-opacity:1;fill-rule:nonzero;stroke:none"
           d="m 192,210 -88,0 0,2 88,0 0,-2 z" /><path
           id="path86"
           style="fill:#808080;fill-opacity:1;fill-rule:nonzero;stroke:none"
           d="m 192,206 -88,0 0,2 88,0 0,-2 z" /><path
           id="path88"
           style="fill:#808080;fill-opacity:1;fill-rule:nonzero;stroke:none"
           d="m 192,202 -88,0 0,2 88,0 0,-2 z" /><path
           id="path90"
           style="fill:#808080;fill-opacity:1;fill-rule:nonzero;stroke:none"
           d="m 192,198 -88,0 0,2 88,0 0,-2 z" /><path
           id="path92"
           style="fill:#808080;fill-opacity:1;fill-rule:nonzero;stroke:none"
           d="m 192,194 -88,0 0,2 88,0 0,-2 z" /><path
           id="path94"
           style="fill:#808080;fill-opacity:1;fill-rule:nonzero;stroke:none"
           d="m 192,190 -88,0 0,2 88,0 0,-2 z" /><path
           id="path96"
           style="fill:#808080;fill-opacity:1;fill-rule:nonzero;stroke:none"
           d="m 192,186 -88,0 0,2 88,0 0,-2 z" /><g
           transform="translate(100,184)"
           id="g98"><path
             id="path100"
             style="fill:#ff0000;fill-opacity:1;fill-rule:nonzero;stroke:none"
             d="m 0,0 -44,0 0,38.383 c 0,3.102 2.364,5.617 5.28,5.617 L 0,44 0,0 Z" /></g><g
           transform="translate(138.302,161.8751)"
           id="g102"><path
             id="path104"
             style="fill:#0d0d0d;fill-opacity:1;fill-rule:nonzero;stroke:none"
             d="m 0,0 11.009,1.089 c 1.204,0.119 2.209,-0.906 2.067,-2.108 l -1.305,-10.986 c -0.076,-0.641 0.18,-1.277 0.68,-1.687 l 8.554,-7.015 c 0.936,-0.767 0.922,-2.202 -0.029,-2.951 l -8.69,-6.846 c -0.508,-0.399 -0.776,-1.03 -0.713,-1.673 l 1.089,-11.01 c 0.119,-1.203 -0.906,-2.208 -2.108,-2.066 l -10.986,1.305 c -0.641,0.076 -1.277,-0.18 -1.687,-0.68 l -7.015,-8.554 c -0.767,-0.936 -2.202,-0.922 -2.951,0.029 l -6.846,8.69 c -0.399,0.508 -1.03,0.776 -1.673,0.713 l -11.01,-1.089 c -1.203,-0.119 -2.208,0.906 -2.066,2.107 l 1.305,10.986 c 0.076,0.642 -0.18,1.278 -0.68,1.687 l -8.554,7.016 c -0.936,0.767 -0.922,2.202 0.029,2.951 l 8.69,6.845 c 0.508,0.4 0.776,1.031 0.713,1.674 l -1.089,11.009 c -0.119,1.204 0.906,2.209 2.107,2.067 l 10.986,-1.305 c 0.642,-0.076 1.278,0.18 1.688,0.68 l 7.015,8.554 c 0.767,0.936 2.202,0.921 2.951,-0.029 L -1.673,0.712 C -1.274,0.205 -0.643,-0.064 0,0" /></g><g
           transform="translate(152,140)"
           id="g106"><path
             id="path108"
             style="fill:#191919;fill-opacity:1;fill-rule:nonzero;stroke:none"
             d="m 0,0 c 0,-13.255 -10.745,-24 -24,-24 -13.255,0 -24,10.745 -24,24 0,13.255 10.745,24 24,24 C -10.745,24 0,13.255 0,0" /></g><g
           transform="translate(140,140)"
           id="g110"><path
             id="path112"
             style="fill:#262626;fill-opacity:1;fill-rule:nonzero;stroke:none"
             d="m 0,0 c 0,-6.627 -5.373,-12 -12,-12 -6.627,0 -12,5.373 -12,12 0,6.627 5.373,12 12,12 C -5.373,12 0,6.627 0,0" /></g><g
           transform="translate(136,140)"
           id="g114"><path
             id="path116"
             style="fill:#333333;fill-opacity:1;fill-rule:nonzero;stroke:none"
             d="m 0,0 c 0,-4.418 -3.582,-8 -8,-8 -4.418,0 -8,3.582 -8,8 0,4.418 3.582,8 8,8 4.418,0 8,-3.582 8,-8" /></g><path
           id="path118"
           style="fill:#b80000;fill-opacity:1;fill-rule:nonzero;stroke:none"
           d="m 96,222 -36,0 0,2 36,0 0,-2 z" /><path
           id="path120"
           style="fill:#b80000;fill-opacity:1;fill-rule:nonzero;stroke:none"
           d="m 96,218 -36,0 0,2 36,0 0,-2 z" /><path
           id="path122"
           style="fill:#b80000;fill-opacity:1;fill-rule:nonzero;stroke:none"
           d="m 96,214 -36,0 0,2 36,0 0,-2 z" /><path
           id="path124"
           style="fill:#b80000;fill-opacity:1;fill-rule:nonzero;stroke:none"
           d="m 96,210 -36,0 0,2 36,0 0,-2 z" /><path
           id="path126"
           style="fill:#b80000;fill-opacity:1;fill-rule:nonzero;stroke:none"
           d="m 96,198 -36,0 0,2 36,0 0,-2 z" /><path
           id="path128"
           style="fill:#b80000;fill-opacity:1;fill-rule:nonzero;stroke:none"
           d="m 96,194 -36,0 0,2 36,0 0,-2 z" /><path
           id="path130"
           style="fill:#b80000;fill-opacity:1;fill-rule:nonzero;stroke:none"
           d="m 96,190 -36,0 0,2 36,0 0,-2 z" /><path
           id="path132"
           style="fill:#b80000;fill-opacity:1;fill-rule:nonzero;stroke:none"
           d="m 96,186 -36,0 0,2 36,0 0,-2 z" /></g></g></g></svg>