<?xml version="1.0" encoding="UTF-8" standalone="no"?>
<svg
   xmlns:dc="http://purl.org/dc/elements/1.1/"
   xmlns:cc="http://creativecommons.org/ns#"
   xmlns:rdf="http://www.w3.org/1999/02/22-rdf-syntax-ns#"
   xmlns:svg="http://www.w3.org/2000/svg"
   xmlns="http://www.w3.org/2000/svg"
   viewBox="0 0 320 320"
   height="320"
   width="320"
   xml:space="preserve"
   version="1.1"
   id="svg2"><metadata
     id="metadata8"><rdf:RDF><cc:Work
         rdf:about=""><dc:format>image/svg+xml</dc:format><dc:type
           rdf:resource="http://purl.org/dc/dcmitype/StillImage" /></cc:Work></rdf:RDF></metadata><defs
     id="defs6"><clipPath
       id="clipPath16"
       clipPathUnits="userSpaceOnUse"><path
         id="path18"
         d="M 0,256 256,256 256,0 0,0 0,256 Z" /></clipPath><clipPath
       id="clipPath24"
       clipPathUnits="userSpaceOnUse"><path
         id="path26"
         d="M 4,200 252,200 252,56 4,56 4,200 Z" /></clipPath></defs><g
     transform="matrix(1.25,0,0,-1.25,0,320)"
     id="g10"><g
       id="g12"><g
         clip-path="url(#clipPath16)"
         id="g14"><g
           id="g20"><g
             id="g22" /><g
             id="g28"><g
               style="opacity:0.5"
               id="g30"
               clip-path="url(#clipPath24)"><g
                 id="g32"
                 transform="translate(240,200)"><path
                   id="path34"
                   style="fill:#ffffff;fill-opacity:1;fill-rule:nonzero;stroke:none"
                   d="m 0,0 -224,0 c -6.617,0 -12,-5.383 -12,-12 l 0,-120 c 0,-6.617 5.383,-12 12,-12 l 224,0 c 6.617,0 12,5.383 12,12 l 0,120 C 12,-5.383 6.617,0 0,0" /></g></g></g></g><g
           transform="translate(240,64)"
           id="g36"><path
             id="path38"
             style="fill:#a6a6a6;fill-opacity:1;fill-rule:nonzero;stroke:none"
             d="m 0,0 -224,0 c -2.209,0 -4,1.791 -4,4 l 0,120 c 0,2.209 1.791,4 4,4 l 224,0 c 2.209,0 4,-1.791 4,-4 L 4,4 C 4,1.791 2.209,0 0,0" /></g><path
           id="path40"
           style="fill:#8c8c8c;fill-opacity:1;fill-rule:nonzero;stroke:none"
           d="m 240,152 -220,0 0,12 220,0 0,-12 z" /><g
           transform="translate(240,148)"
           id="g42"><path
             id="path44"
             style="fill:#8c8c8c;fill-opacity:1;fill-rule:nonzero;stroke:none"
             d="m 0,0 -8,0 -12,0 -200,0 0,-60 36,0 0,-16 148,0 0,16 28,0 0,40 8,0 0,20 z" /></g><path
           id="path46"
           style="fill:#bfbfbf;fill-opacity:1;fill-rule:nonzero;stroke:none"
           d="m 32,152 -12,0 0,12 12,0 0,-12 z" /><path
           id="path48"
           style="fill:#666666;fill-opacity:1;fill-rule:nonzero;stroke:none"
           d="m 36,136 -16,0 0,12 16,0 0,-12 z" /><path
           id="path50"
           style="fill:#666666;fill-opacity:1;fill-rule:nonzero;stroke:none"
           d="m 36,120 -16,0 0,12 16,0 0,-12 z" /><path
           id="path52"
           style="fill:#666666;fill-opacity:1;fill-rule:nonzero;stroke:none"
           d="m 36,88 -16,0 0,12 16,0 0,-12 z" /><path
           id="path54"
           style="fill:#666666;fill-opacity:1;fill-rule:nonzero;stroke:none"
           d="m 40,104 -20,0 0,12 20,0 0,-12 z" /><path
           id="path56"
           style="fill:#bfbfbf;fill-opacity:1;fill-rule:nonzero;stroke:none"
           d="m 48,152 -12,0 0,12 12,0 0,-12 z" /><path
           id="path58"
           style="fill:#bfbfbf;fill-opacity:1;fill-rule:nonzero;stroke:none"
           d="m 52,136 -12,0 0,12 12,0 0,-12 z" /><path
           id="path60"
           style="fill:#bfbfbf;fill-opacity:1;fill-rule:nonzero;stroke:none"
           d="m 68,136 -12,0 0,12 12,0 0,-12 z" /><path
           id="path62"
           style="fill:#bfbfbf;fill-opacity:1;fill-rule:nonzero;stroke:none"
           d="m 84,136 -12,0 0,12 12,0 0,-12 z" /><path
           id="path64"
           style="fill:#bfbfbf;fill-opacity:1;fill-rule:nonzero;stroke:none"
           d="m 100,136 -12,0 0,12 12,0 0,-12 z" /><path
           id="path66"
           style="fill:#bfbfbf;fill-opacity:1;fill-rule:nonzero;stroke:none"
           d="m 116,136 -12,0 0,12 12,0 0,-12 z" /><path
           id="path68"
           style="fill:#666666;fill-opacity:1;fill-rule:nonzero;stroke:none"
           d="m 136,136 -16,0 0,12 16,0 0,-12 z" /><path
           id="path70"
           style="fill:#bfbfbf;fill-opacity:1;fill-rule:nonzero;stroke:none"
           d="m 52,120 -12,0 0,12 12,0 0,-12 z" /><path
           id="path72"
           style="fill:#bfbfbf;fill-opacity:1;fill-rule:nonzero;stroke:none"
           d="m 56,104 -12,0 0,12 12,0 0,-12 z" /><path
           id="path74"
           style="fill:#bfbfbf;fill-opacity:1;fill-rule:nonzero;stroke:none"
           d="m 52,88 -12,0 0,12 12,0 0,-12 z" /><path
           id="path76"
           style="fill:#bfbfbf;fill-opacity:1;fill-rule:nonzero;stroke:none"
           d="m 68,88 -12,0 0,12 12,0 0,-12 z" /><path
           id="path78"
           style="fill:#666666;fill-opacity:1;fill-rule:nonzero;stroke:none"
           d="m 68,72 -12,0 0,12 12,0 0,-12 z" /><path
           id="path80"
           style="fill:#666666;fill-opacity:1;fill-rule:nonzero;stroke:none"
           d="m 88,72 -16,0 0,12 16,0 0,-12 z" /><path
           id="path82"
           style="fill:#666666;fill-opacity:1;fill-rule:nonzero;stroke:none"
           d="m 108,72 -16,0 0,12 16,0 0,-12 z" /><path
           id="path84"
           style="fill:#666666;fill-opacity:1;fill-rule:nonzero;stroke:none"
           d="m 124,72 -12,0 0,12 12,0 0,-12 z" /><path
           id="path86"
           style="fill:#bfbfbf;fill-opacity:1;fill-rule:nonzero;stroke:none"
           d="m 148,72 -20,0 0,12 20,0 0,-12 z" /><path
           id="path88"
           style="fill:#666666;fill-opacity:1;fill-rule:nonzero;stroke:none"
           d="m 168,72 -16,0 0,12 16,0 0,-12 z" /><path
           id="path90"
           style="fill:#666666;fill-opacity:1;fill-rule:nonzero;stroke:none"
           d="m 188,72 -16,0 0,12 16,0 0,-12 z" /><path
           id="path92"
           style="fill:#666666;fill-opacity:1;fill-rule:nonzero;stroke:none"
           d="m 204,72 -12,0 0,12 12,0 0,-12 z" /><path
           id="path94"
           style="fill:#bfbfbf;fill-opacity:1;fill-rule:nonzero;stroke:none"
           d="m 84,88 -12,0 0,12 12,0 0,-12 z" /><path
           id="path96"
           style="fill:#bfbfbf;fill-opacity:1;fill-rule:nonzero;stroke:none"
           d="m 100,88 -12,0 0,12 12,0 0,-12 z" /><path
           id="path98"
           style="fill:#bfbfbf;fill-opacity:1;fill-rule:nonzero;stroke:none"
           d="m 116,88 -12,0 0,12 12,0 0,-12 z" /><path
           id="path100"
           style="fill:#666666;fill-opacity:1;fill-rule:nonzero;stroke:none"
           d="m 128,88 -8,0 0,12 8,0 0,-12 z" /><path
           id="path102"
           style="fill:#666666;fill-opacity:1;fill-rule:nonzero;stroke:none"
           d="m 144,88 -12,0 0,12 12,0 0,-12 z" /><path
           id="path104"
           style="fill:#666666;fill-opacity:1;fill-rule:nonzero;stroke:none"
           d="m 156,88 -8,0 0,12 8,0 0,-12 z" /><path
           id="path106"
           style="fill:#bfbfbf;fill-opacity:1;fill-rule:nonzero;stroke:none"
           d="m 164,88 -4,0 0,12 4,0 0,-12 z" /><path
           id="path108"
           style="fill:#bfbfbf;fill-opacity:1;fill-rule:nonzero;stroke:none"
           d="m 180,88 -12,0 0,12 12,0 0,-12 z" /><path
           id="path110"
           style="fill:#bfbfbf;fill-opacity:1;fill-rule:nonzero;stroke:none"
           d="m 196,88 -12,0 0,12 12,0 0,-12 z" /><path
           id="path112"
           style="fill:#bfbfbf;fill-opacity:1;fill-rule:nonzero;stroke:none"
           d="m 212,88 -12,0 0,12 12,0 0,-12 z" /><path
           id="path114"
           style="fill:#666666;fill-opacity:1;fill-rule:nonzero;stroke:none"
           d="m 232,88 -16,0 0,12 16,0 0,-12 z" /><path
           id="path116"
           style="fill:#bfbfbf;fill-opacity:1;fill-rule:nonzero;stroke:none"
           d="m 72,104 -12,0 0,12 12,0 0,-12 z" /><path
           id="path118"
           style="fill:#bfbfbf;fill-opacity:1;fill-rule:nonzero;stroke:none"
           d="m 88,104 -12,0 0,12 12,0 0,-12 z" /><path
           id="path120"
           style="fill:#bfbfbf;fill-opacity:1;fill-rule:nonzero;stroke:none"
           d="m 104,104 -12,0 0,12 12,0 0,-12 z" /><path
           id="path122"
           style="fill:#bfbfbf;fill-opacity:1;fill-rule:nonzero;stroke:none"
           d="m 116,104 -8,0 0,12 8,0 0,-12 z" /><path
           id="path124"
           style="fill:#bfbfbf;fill-opacity:1;fill-rule:nonzero;stroke:none"
           d="m 68,120 -12,0 0,12 12,0 0,-12 z" /><path
           id="path126"
           style="fill:#bfbfbf;fill-opacity:1;fill-rule:nonzero;stroke:none"
           d="m 84,120 -12,0 0,12 12,0 0,-12 z" /><path
           id="path128"
           style="fill:#bfbfbf;fill-opacity:1;fill-rule:nonzero;stroke:none"
           d="m 100,120 -12,0 0,12 12,0 0,-12 z" /><path
           id="path130"
           style="fill:#bfbfbf;fill-opacity:1;fill-rule:nonzero;stroke:none"
           d="m 116,120 -12,0 0,12 12,0 0,-12 z" /><path
           id="path132"
           style="fill:#666666;fill-opacity:1;fill-rule:nonzero;stroke:none"
           d="m 156,120 -36,0 0,12 36,0 0,-12 z" /><path
           id="path134"
           style="fill:#666666;fill-opacity:1;fill-rule:nonzero;stroke:none"
           d="m 156,136 -16,0 0,12 16,0 0,-12 z" /><path
           id="path136"
           style="fill:#666666;fill-opacity:1;fill-rule:nonzero;stroke:none"
           d="m 136,104 -16,0 0,12 16,0 0,-12 z" /><path
           id="path138"
           style="fill:#666666;fill-opacity:1;fill-rule:nonzero;stroke:none"
           d="m 156,104 -16,0 0,12 16,0 0,-12 z" /><path
           id="path140"
           style="fill:#bfbfbf;fill-opacity:1;fill-rule:nonzero;stroke:none"
           d="m 172,136 -12,0 0,12 12,0 0,-12 z" /><path
           id="path142"
           style="fill:#bfbfbf;fill-opacity:1;fill-rule:nonzero;stroke:none"
           d="m 188,136 -12,0 0,12 12,0 0,-12 z" /><path
           id="path144"
           style="fill:#bfbfbf;fill-opacity:1;fill-rule:nonzero;stroke:none"
           d="m 204,136 -12,0 0,12 12,0 0,-12 z" /><path
           id="path146"
           style="fill:#bfbfbf;fill-opacity:1;fill-rule:nonzero;stroke:none"
           d="m 220,136 -12,0 0,12 12,0 0,-12 z" /><path
           id="path148"
           style="fill:#666666;fill-opacity:1;fill-rule:nonzero;stroke:none"
           d="m 240,136 -16,0 0,12 16,0 0,-12 z" /><path
           id="path150"
           style="fill:#bfbfbf;fill-opacity:1;fill-rule:nonzero;stroke:none"
           d="m 172,104 -12,0 0,12 12,0 0,-12 z" /><path
           id="path152"
           style="fill:#bfbfbf;fill-opacity:1;fill-rule:nonzero;stroke:none"
           d="m 188,104 -12,0 0,12 12,0 0,-12 z" /><path
           id="path154"
           style="fill:#bfbfbf;fill-opacity:1;fill-rule:nonzero;stroke:none"
           d="m 204,104 -12,0 0,12 12,0 0,-12 z" /><path
           id="path156"
           style="fill:#bfbfbf;fill-opacity:1;fill-rule:nonzero;stroke:none"
           d="m 224,104 -16,0 0,12 16,0 0,-12 z" /><path
           id="path158"
           style="fill:#bfbfbf;fill-opacity:1;fill-rule:nonzero;stroke:none"
           d="m 172,120 -12,0 0,12 12,0 0,-12 z" /><path
           id="path160"
           style="fill:#bfbfbf;fill-opacity:1;fill-rule:nonzero;stroke:none"
           d="m 188,120 -12,0 0,12 12,0 0,-12 z" /><path
           id="path162"
           style="fill:#bfbfbf;fill-opacity:1;fill-rule:nonzero;stroke:none"
           d="m 204,120 -12,0 0,12 12,0 0,-12 z" /><path
           id="path164"
           style="fill:#bfbfbf;fill-opacity:1;fill-rule:nonzero;stroke:none"
           d="m 220,120 -12,0 0,12 12,0 0,-12 z" /><path
           id="path166"
           style="fill:#bfbfbf;fill-opacity:1;fill-rule:nonzero;stroke:none"
           d="m 64,152 -12,0 0,12 12,0 0,-12 z" /><path
           id="path168"
           style="fill:#bfbfbf;fill-opacity:1;fill-rule:nonzero;stroke:none"
           d="m 80,152 -12,0 0,12 12,0 0,-12 z" /><path
           id="path170"
           style="fill:#bfbfbf;fill-opacity:1;fill-rule:nonzero;stroke:none"
           d="m 96,152 -12,0 0,12 12,0 0,-12 z" /><path
           id="path172"
           style="fill:#bfbfbf;fill-opacity:1;fill-rule:nonzero;stroke:none"
           d="m 112,152 -12,0 0,12 12,0 0,-12 z" /><path
           id="path174"
           style="fill:#bfbfbf;fill-opacity:1;fill-rule:nonzero;stroke:none"
           d="m 128,152 -12,0 0,12 12,0 0,-12 z" /><path
           id="path176"
           style="fill:#bfbfbf;fill-opacity:1;fill-rule:nonzero;stroke:none"
           d="m 144,152 -12,0 0,12 12,0 0,-12 z" /><path
           id="path178"
           style="fill:#bfbfbf;fill-opacity:1;fill-rule:nonzero;stroke:none"
           d="m 160,152 -12,0 0,12 12,0 0,-12 z" /><path
           id="path180"
           style="fill:#bfbfbf;fill-opacity:1;fill-rule:nonzero;stroke:none"
           d="m 176,152 -12,0 0,12 12,0 0,-12 z" /><path
           id="path182"
           style="fill:#bfbfbf;fill-opacity:1;fill-rule:nonzero;stroke:none"
           d="m 192,152 -12,0 0,12 12,0 0,-12 z" /><path
           id="path184"
           style="fill:#bfbfbf;fill-opacity:1;fill-rule:nonzero;stroke:none"
           d="m 208,152 -12,0 0,12 12,0 0,-12 z" /><path
           id="path186"
           style="fill:#bfbfbf;fill-opacity:1;fill-rule:nonzero;stroke:none"
           d="m 224,152 -12,0 0,12 12,0 0,-12 z" /><path
           id="path188"
           style="fill:#bfbfbf;fill-opacity:1;fill-rule:nonzero;stroke:none"
           d="m 240,152 -12,0 0,12 12,0 0,-12 z" /><g
           transform="translate(228,132)"
           id="g190"><path
             id="path192"
             style="fill:#666666;fill-opacity:1;fill-rule:nonzero;stroke:none"
             d="m 0,0 -4,0 0,-12 4,0 0,-16 12,0 0,16 0,12 -12,0 z" /></g><path
           id="path194"
           style="fill:#999999;fill-opacity:1;fill-rule:nonzero;stroke:none"
           d="m 224,172 -36,0 0,12 36,0 0,-12 z" /><path
           id="path196"
           style="fill:#00ff00;fill-opacity:1;fill-rule:nonzero;stroke:none"
           d="m 220,176 -4,0 0,4 4,0 0,-4 z" /></g></g></g></svg>