<?xml version="1.0" encoding="UTF-8" standalone="no"?>
<svg
   xmlns:dc="http://purl.org/dc/elements/1.1/"
   xmlns:cc="http://creativecommons.org/ns#"
   xmlns:rdf="http://www.w3.org/1999/02/22-rdf-syntax-ns#"
   xmlns:svg="http://www.w3.org/2000/svg"
   xmlns="http://www.w3.org/2000/svg"
   viewBox="0 0 320 320"
   height="320"
   width="320"
   xml:space="preserve"
   version="1.1"
   id="svg2"><metadata
     id="metadata8"><rdf:RDF><cc:Work
         rdf:about=""><dc:format>image/svg+xml</dc:format><dc:type
           rdf:resource="http://purl.org/dc/dcmitype/StillImage" /></cc:Work></rdf:RDF></metadata><defs
     id="defs6"><clipPath
       id="clipPath16"
       clipPathUnits="userSpaceOnUse"><path
         id="path18"
         d="M 0,256 256,256 256,0 0,0 0,256 Z" /></clipPath><clipPath
       id="clipPath24"
       clipPathUnits="userSpaceOnUse"><path
         id="path26"
         d="M 12,252 244,252 244,4 12,4 12,252 Z" /></clipPath><clipPath
       id="clipPath42"
       clipPathUnits="userSpaceOnUse"><path
         id="path44"
         d="M 0,256 256,256 256,0 0,0 0,256 Z" /></clipPath></defs><g
     transform="matrix(1.25,0,0,-1.25,0,320)"
     id="g10"><g
       id="g12"><g
         clip-path="url(#clipPath16)"
         id="g14"><g
           id="g20"><g
             id="g22" /><g
             id="g28"><g
               style="opacity:0.5"
               id="g30"
               clip-path="url(#clipPath24)"><g
                 id="g32"
                 transform="translate(243.9297,128)"><path
                   id="path34"
                   style="fill:#ffffff;fill-opacity:1;fill-rule:nonzero;stroke:none"
                   d="m 0,0 0,8 0,93.555 C 0,113.931 -10.066,124 -22.438,124 l -187.054,0 c -12.372,0 -22.438,-10.069 -22.438,-22.445 l 0,-93.555 0,-8 0,-8 0,-8 0.071,0 0,-85.354 c 0,-12.487 10.065,-22.646 22.438,-22.646 l 187.053,0 c 12.373,0 22.438,10.159 22.438,22.646 L 0.07,-8 0.07,0 0,0 Z" /></g></g></g></g></g></g><path
       id="path36"
       style="fill:#d9d9d9;fill-opacity:1;fill-rule:nonzero;stroke:none"
       d="m 46,140 164,0 0,-20 -164,0 0,20 z" /><g
       id="g38"><g
         clip-path="url(#clipPath42)"
         id="g40"><g
           transform="translate(221.6254,12)"
           id="g46"><path
             id="path48"
             style="fill:#e6e6e6;fill-opacity:1;fill-rule:nonzero;stroke:none"
             d="m 0,0 -187.11,0 c -7.978,0 -14.445,6.557 -14.445,14.646 l 0,93.354 216,0 0,-93.354 C 14.445,6.557 7.978,0 0,0" /></g><g
           transform="translate(236,136)"
           id="g50"><path
             id="path52"
             style="fill:#e6e6e6;fill-opacity:1;fill-rule:nonzero;stroke:none"
             d="m 0,0 -216,0 0,93.555 c 0,7.978 6.467,14.445 14.445,14.445 l 187.11,0 C -6.467,108 0,101.533 0,93.555 L 0,0 Z" /></g><g
           transform="translate(188,236)"
           id="g54"><path
             id="path56"
             style="fill:#d9d9d9;fill-opacity:1;fill-rule:nonzero;stroke:none"
             d="m 0,0 -2.518,0 -114.964,0 -2.518,0 0,-2.633 0,-90.734 0,-2.633 2.518,0 114.964,0 L 0,-96 0,-93.367 0,-2.633 0,0 Z" /></g><path
           id="path58"
           style="fill:#191919;fill-opacity:1;fill-rule:nonzero;stroke:none"
           d="m 184,144 -112,0 0,88 112,0 0,-88 z" /><g
           transform="translate(185.5833,116)"
           id="g60"><path
             id="path62"
             style="fill:#d9d9d9;fill-opacity:1;fill-rule:nonzero;stroke:none"
             d="m 0,0 -2.417,0 -110.333,0 -2.417,0 c -1.334,0 -2.416,-1.117 -2.416,-2.496 l 0,-2.496 0,-86.016 0,-2.496 c 0,-1.379 1.082,-2.496 2.416,-2.496 l 2.417,0 110.333,0 2.417,0 c 1.335,0 2.417,1.117 2.417,2.496 l 0,2.496 0,86.016 0,2.496 C 2.417,-1.117 1.335,0 0,0" /></g><g
           transform="translate(186,114)"
           id="g64"><path
             id="path66"
             style="fill:#e6e6e6;fill-opacity:1;fill-rule:nonzero;stroke:none"
             d="m 0,0 -2.434,0 -111.132,0 -2.434,0 0,-2.523 0,-86.954 0,-2.523 2.434,0 111.132,0 L 0,-92 0,-89.477 0,-2.523 0,0 Z" /></g><path
           id="path68"
           style="fill:#191919;fill-opacity:1;fill-rule:nonzero;stroke:none"
           d="m 184,24 -112,0 0,88 112,0 0,-88 z" /><g
           transform="translate(48,120)"
           id="g70"><path
             id="path72"
             style="fill:#cccccc;fill-opacity:1;fill-rule:nonzero;stroke:none"
             d="m 0,0 -28,0 0,11.359 c 0,2.563 2.351,4.641 5.251,4.641 L 0,16 0,0 Z" /></g><g
           transform="translate(208,120)"
           id="g74"><path
             id="path76"
             style="fill:#cccccc;fill-opacity:1;fill-rule:nonzero;stroke:none"
             d="m 0,0 28,0 0,11.359 C 28,13.922 25.649,16 22.749,16 L 0,16 0,0 Z" /></g><g
           transform="translate(44,179)"
           id="g78"><path
             id="path80"
             style="fill:#191919;fill-opacity:1;fill-rule:nonzero;stroke:none"
             d="m 0,0 c 0,-0.552 -0.448,-1 -1,-1 -0.552,0 -1,0.448 -1,1 0,0.552 0.448,1 1,1 0.552,0 1,-0.448 1,-1" /></g><g
           transform="translate(48,179)"
           id="g82"><path
             id="path84"
             style="fill:#191919;fill-opacity:1;fill-rule:nonzero;stroke:none"
             d="m 0,0 c 0,-0.552 -0.448,-1 -1,-1 -0.552,0 -1,0.448 -1,1 0,0.552 0.448,1 1,1 0.552,0 1,-0.448 1,-1" /></g><g
           transform="translate(46,175)"
           id="g86"><path
             id="path88"
             style="fill:#191919;fill-opacity:1;fill-rule:nonzero;stroke:none"
             d="m 0,0 c 0,-0.552 -0.448,-1 -1,-1 -0.552,0 -1,0.448 -1,1 0,0.552 0.448,1 1,1 0.552,0 1,-0.448 1,-1" /></g><g
           transform="translate(42,175)"
           id="g90"><path
             id="path92"
             style="fill:#191919;fill-opacity:1;fill-rule:nonzero;stroke:none"
             d="m 0,0 c 0,-0.552 -0.448,-1 -1,-1 -0.552,0 -1,0.448 -1,1 0,0.552 0.448,1 1,1 0.552,0 1,-0.448 1,-1" /></g><g
           transform="translate(46,183)"
           id="g94"><path
             id="path96"
             style="fill:#191919;fill-opacity:1;fill-rule:nonzero;stroke:none"
             d="m 0,0 c 0,-0.552 -0.448,-1 -1,-1 -0.552,0 -1,0.448 -1,1 0,0.552 0.448,1 1,1 0.552,0 1,-0.448 1,-1" /></g><g
           transform="translate(42,183)"
           id="g98"><path
             id="path100"
             style="fill:#191919;fill-opacity:1;fill-rule:nonzero;stroke:none"
             d="m 0,0 c 0,-0.552 -0.448,-1 -1,-1 -0.552,0 -1,0.448 -1,1 0,0.552 0.448,1 1,1 0.552,0 1,-0.448 1,-1" /></g><g
           transform="translate(40,179)"
           id="g102"><path
             id="path104"
             style="fill:#191919;fill-opacity:1;fill-rule:nonzero;stroke:none"
             d="m 0,0 c 0,-0.552 -0.448,-1 -1,-1 -0.552,0 -1,0.448 -1,1 0,0.552 0.448,1 1,1 0.552,0 1,-0.448 1,-1" /></g><g
           transform="translate(214,179)"
           id="g106"><path
             id="path108"
             style="fill:#191919;fill-opacity:1;fill-rule:nonzero;stroke:none"
             d="m 0,0 c 0,-0.552 -0.448,-1 -1,-1 -0.552,0 -1,0.448 -1,1 0,0.552 0.448,1 1,1 0.552,0 1,-0.448 1,-1" /></g><g
           transform="translate(218,179)"
           id="g110"><path
             id="path112"
             style="fill:#191919;fill-opacity:1;fill-rule:nonzero;stroke:none"
             d="m 0,0 c 0,-0.552 -0.448,-1 -1,-1 -0.552,0 -1,0.448 -1,1 0,0.552 0.448,1 1,1 0.552,0 1,-0.448 1,-1" /></g><g
           transform="translate(216,175)"
           id="g114"><path
             id="path116"
             style="fill:#191919;fill-opacity:1;fill-rule:nonzero;stroke:none"
             d="m 0,0 c 0,-0.552 -0.448,-1 -1,-1 -0.552,0 -1,0.448 -1,1 0,0.552 0.448,1 1,1 0.552,0 1,-0.448 1,-1" /></g><g
           transform="translate(212,175)"
           id="g118"><path
             id="path120"
             style="fill:#191919;fill-opacity:1;fill-rule:nonzero;stroke:none"
             d="m 0,0 c 0,-0.552 -0.448,-1 -1,-1 -0.552,0 -1,0.448 -1,1 0,0.552 0.448,1 1,1 0.552,0 1,-0.448 1,-1" /></g><g
           transform="translate(216,183)"
           id="g122"><path
             id="path124"
             style="fill:#191919;fill-opacity:1;fill-rule:nonzero;stroke:none"
             d="m 0,0 c 0,-0.552 -0.448,-1 -1,-1 -0.552,0 -1,0.448 -1,1 0,0.552 0.448,1 1,1 0.552,0 1,-0.448 1,-1" /></g><g
           transform="translate(212,183)"
           id="g126"><path
             id="path128"
             style="fill:#191919;fill-opacity:1;fill-rule:nonzero;stroke:none"
             d="m 0,0 c 0,-0.552 -0.448,-1 -1,-1 -0.552,0 -1,0.448 -1,1 0,0.552 0.448,1 1,1 0.552,0 1,-0.448 1,-1" /></g><g
           transform="translate(210,179)"
           id="g130"><path
             id="path132"
             style="fill:#191919;fill-opacity:1;fill-rule:nonzero;stroke:none"
             d="m 0,0 c 0,-0.552 -0.448,-1 -1,-1 -0.552,0 -1,0.448 -1,1 0,0.552 0.448,1 1,1 0.552,0 1,-0.448 1,-1" /></g><path
           id="path134"
           style="fill:#d9d9d9;fill-opacity:1;fill-rule:nonzero;stroke:none"
           d="m 44,232 -4,0 0,4 4,0 0,-4 z" /><path
           id="path136"
           style="fill:#d9d9d9;fill-opacity:1;fill-rule:nonzero;stroke:none"
           d="m 216,232 -4,0 0,4 4,0 0,-4 z" /><path
           id="path138"
           style="fill:#d9d9d9;fill-opacity:1;fill-rule:nonzero;stroke:none"
           d="m 44,140 -4,0 0,4 4,0 0,-4 z" /><path
           id="path140"
           style="fill:#d9d9d9;fill-opacity:1;fill-rule:nonzero;stroke:none"
           d="m 216,140 -4,0 0,4 4,0 0,-4 z" /><g
           transform="translate(140,128)"
           id="g142"><path
             id="path144"
             style="fill:#191919;fill-opacity:1;fill-rule:nonzero;stroke:none"
             d="m 0,0 c 0,-1.105 -0.895,-2 -2,-2 -1.105,0 -2,0.895 -2,2 0,1.105 0.895,2 2,2 1.105,0 2,-0.895 2,-2" /></g><g
           transform="translate(132,128)"
           id="g146"><path
             id="path148"
             style="fill:#191919;fill-opacity:1;fill-rule:nonzero;stroke:none"
             d="m 0,0 c 0,-2.209 -1.791,-4 -4,-4 -2.209,0 -4,1.791 -4,4 0,2.209 1.791,4 4,4 2.209,0 4,-1.791 4,-4" /></g><g
           transform="translate(60,32)"
           id="g150"><path
             id="path152"
             style="fill:#d9d9d9;fill-opacity:1;fill-rule:nonzero;stroke:none"
             d="m 0,0 c 0,-2.209 -1.791,-4 -4,-4 -2.209,0 -4,1.791 -4,4 0,2.209 1.791,4 4,4 2.209,0 4,-1.791 4,-4" /></g><g
           transform="translate(46.5581,100)"
           id="g154"><path
             id="path156"
             style="fill:#d9d9d9;fill-opacity:1;fill-rule:nonzero;stroke:none"
             d="m 0,0 -9.116,0 c -0.72,0 -1.303,-0.583 -1.303,-1.302 l 0,-6.838 -6.837,0 c -0.719,0 -1.302,-0.583 -1.302,-1.302 l 0,-9.116 c 0,-0.719 0.583,-1.302 1.302,-1.302 l 6.837,0 0,-6.838 c 0,-0.719 0.583,-1.302 1.303,-1.302 L 0,-28 c 0.719,0 1.302,0.583 1.302,1.302 l 0,6.838 6.838,0 c 0.719,0 1.302,0.583 1.302,1.302 l 0,9.116 c 0,0.719 -0.583,1.302 -1.302,1.302 l -6.838,0 0,6.838 C 1.302,-0.583 0.719,0 0,0 m 0,-1.302 0,-8.14 8.14,0 0,-9.116 -8.14,0 0,-8.14 -9.116,0 0,8.14 -8.14,0 0,9.116 8.14,0 0,8.14 9.116,0" /></g><g
           transform="translate(35.5556,85)"
           id="g158"><path
             id="path160"
             style="fill:#b3b3b3;fill-opacity:1;fill-rule:nonzero;stroke:none"
             d="m 0,0 -3.111,0 c -0.245,0 -0.445,0.449 -0.445,1 0,0.551 0.2,1 0.445,1 L 0,2 C 0.245,2 0.444,1.551 0.444,1 0.444,0.449 0.245,0 0,0" /></g><g
           transform="translate(51.5556,85)"
           id="g162"><path
             id="path164"
             style="fill:#b3b3b3;fill-opacity:1;fill-rule:nonzero;stroke:none"
             d="m 0,0 -3.111,0 c -0.245,0 -0.445,0.449 -0.445,1 0,0.551 0.2,1 0.445,1 L 0,2 C 0.245,2 0.444,1.551 0.444,1 0.444,0.449 0.245,0 0,0" /></g><g
           transform="translate(41,92.4444)"
           id="g166"><path
             id="path168"
             style="fill:#b3b3b3;fill-opacity:1;fill-rule:nonzero;stroke:none"
             d="m 0,0 0,3.111 c 0,0.245 0.449,0.445 1,0.445 0.551,0 1,-0.2 1,-0.445 L 2,0 C 2,-0.245 1.551,-0.444 1,-0.444 0.449,-0.444 0,-0.245 0,0" /></g><g
           transform="translate(41,76.4444)"
           id="g170"><path
             id="path172"
             style="fill:#b3b3b3;fill-opacity:1;fill-rule:nonzero;stroke:none"
             d="m 0,0 0,3.111 c 0,0.245 0.449,0.445 1,0.445 0.551,0 1,-0.2 1,-0.445 L 2,0 C 2,-0.245 1.551,-0.444 1,-0.444 0.449,-0.444 0,-0.245 0,0" /></g><g
           transform="translate(204,40)"
           id="g174"><path
             id="path176"
             style="fill:#d9d9d9;fill-opacity:1;fill-rule:nonzero;stroke:none"
             d="m 0,0 c 0,-2.209 -1.791,-4 -4,-4 -2.209,0 -4,1.791 -4,4 0,2.209 1.791,4 4,4 2.209,0 4,-1.791 4,-4" /></g><g
           transform="translate(204,28)"
           id="g178"><path
             id="path180"
             style="fill:#d9d9d9;fill-opacity:1;fill-rule:nonzero;stroke:none"
             d="m 0,0 c 0,-2.209 -1.791,-4 -4,-4 -2.209,0 -4,1.791 -4,4 0,2.209 1.791,4 4,4 2.209,0 4,-1.791 4,-4" /></g><g
           transform="translate(212,82)"
           id="g182"><path
             id="path184"
             style="fill:#d9d9d9;fill-opacity:1;fill-rule:nonzero;stroke:none"
             d="m 0,0 c -3.308,0 -6,-2.692 -6,-6 0,-3.308 2.692,-6 6,-6 3.308,0 6,2.692 6,6 0,3.308 -2.692,6 -6,6" /></g><g
           transform="translate(217,76)"
           id="g186"><path
             id="path188"
             style="fill:#e6e6e6;fill-opacity:1;fill-rule:nonzero;stroke:none"
             d="m 0,0 c 0,-2.761 -2.239,-5 -5,-5 -2.761,0 -5,2.239 -5,5 0,2.761 2.239,5 5,5 2.761,0 5,-2.239 5,-5" /></g><g
           transform="translate(212,102)"
           id="g190"><path
             id="path192"
             style="fill:#d9d9d9;fill-opacity:1;fill-rule:nonzero;stroke:none"
             d="m 0,0 c -3.308,0 -6,-2.692 -6,-6 0,-3.308 2.692,-6 6,-6 3.308,0 6,2.692 6,6 0,3.308 -2.692,6 -6,6" /></g><g
           transform="translate(217,96)"
           id="g194"><path
             id="path196"
             style="fill:#e6e6e6;fill-opacity:1;fill-rule:nonzero;stroke:none"
             d="m 0,0 c 0,-2.761 -2.239,-5 -5,-5 -2.761,0 -5,2.239 -5,5 0,2.761 2.239,5 5,5 2.761,0 5,-2.239 5,-5" /></g><g
           transform="translate(202,92)"
           id="g198"><path
             id="path200"
             style="fill:#d9d9d9;fill-opacity:1;fill-rule:nonzero;stroke:none"
             d="m 0,0 c -3.308,0 -6,-2.692 -6,-6 0,-3.308 2.692,-6 6,-6 3.308,0 6,2.692 6,6 0,3.308 -2.692,6 -6,6" /></g><g
           transform="translate(207,86)"
           id="g202"><path
             id="path204"
             style="fill:#e6e6e6;fill-opacity:1;fill-rule:nonzero;stroke:none"
             d="m 0,0 c 0,-2.761 -2.239,-5 -5,-5 -2.761,0 -5,2.239 -5,5 0,2.761 2.239,5 5,5 2.761,0 5,-2.239 5,-5" /></g><g
           transform="translate(222,92)"
           id="g206"><path
             id="path208"
             style="fill:#d9d9d9;fill-opacity:1;fill-rule:nonzero;stroke:none"
             d="m 0,0 c -3.308,0 -6,-2.692 -6,-6 0,-3.308 2.692,-6 6,-6 3.308,0 6,2.692 6,6 0,3.308 -2.692,6 -6,6" /></g><g
           transform="translate(227,86)"
           id="g210"><path
             id="path212"
             style="fill:#e6e6e6;fill-opacity:1;fill-rule:nonzero;stroke:none"
             d="m 0,0 c 0,-2.761 -2.239,-5 -5,-5 -2.761,0 -5,2.239 -5,5 0,2.761 2.239,5 5,5 2.761,0 5,-2.239 5,-5" /></g><g
           transform="translate(42,124)"
           id="g214"><path
             id="path216"
             style="fill:#3b96cc;fill-opacity:1;fill-rule:nonzero;stroke:none"
             d="m 0,0 0,0 c -1.1,0 -2,0.9 -2,2 l 0,4 c 0,1.1 0.9,2 2,2 L 0,8 C 1.1,8 2,7.1 2,6 L 2,2 C 2,0.9 1.1,0 0,0" /></g><g
           transform="translate(34,124)"
           id="g218"><path
             id="path220"
             style="fill:#b3b3b3;fill-opacity:1;fill-rule:nonzero;stroke:none"
             d="m 0,0 0,0 c -1.1,0 -2,0.9 -2,2 l 0,4 c 0,1.1 0.9,2 2,2 L 0,8 C 1.1,8 2,7.1 2,6 L 2,2 C 2,0.9 1.1,0 0,0" /></g><g
           transform="translate(26,124)"
           id="g222"><path
             id="path224"
             style="fill:#b3b3b3;fill-opacity:1;fill-rule:nonzero;stroke:none"
             d="m 0,0 0,0 c -1.1,0 -2,0.9 -2,2 l 0,4 c 0,1.1 0.9,2 2,2 L 0,8 C 1.1,8 2,7.1 2,6 L 2,2 C 2,0.9 1.1,0 0,0" /></g></g></g></g></svg>