<?xml version="1.0" encoding="UTF-8" standalone="no"?>
<svg
   xmlns:dc="http://purl.org/dc/elements/1.1/"
   xmlns:cc="http://creativecommons.org/ns#"
   xmlns:rdf="http://www.w3.org/1999/02/22-rdf-syntax-ns#"
   xmlns:svg="http://www.w3.org/2000/svg"
   xmlns="http://www.w3.org/2000/svg"
   viewBox="0 0 320 320"
   height="320"
   width="320"
   xml:space="preserve"
   version="1.1"
   id="svg2"><metadata
     id="metadata8"><rdf:RDF><cc:Work
         rdf:about=""><dc:format>image/svg+xml</dc:format><dc:type
           rdf:resource="http://purl.org/dc/dcmitype/StillImage" /></cc:Work></rdf:RDF></metadata><defs
     id="defs6"><clipPath
       id="clipPath16"
       clipPathUnits="userSpaceOnUse"><path
         id="path18"
         d="M 0,256 256,256 256,0 0,0 0,256 Z" /></clipPath><clipPath
       id="clipPath24"
       clipPathUnits="userSpaceOnUse"><path
         id="path26"
         d="M 4,252 252,252 252,4 4,4 4,252 Z" /></clipPath></defs><g
     transform="matrix(1.25,0,0,-1.25,0,320)"
     id="g10"><g
       id="g12"><g
         clip-path="url(#clipPath16)"
         id="g14"><g
           id="g20"><g
             id="g22" /><g
             id="g28"><g
               style="opacity:0.5"
               id="g30"
               clip-path="url(#clipPath24)"><g
                 id="g32"
                 transform="translate(224,252)"><path
                   id="path34"
                   style="fill:#ffffff;fill-opacity:1;fill-rule:nonzero;stroke:none"
                   d="m 0,0 -192,0 c -15.439,0 -28,-12.561 -28,-28 l 0,-192 c 0,-15.439 12.561,-28 28,-28 l 192,0 c 15.439,0 28,12.561 28,28 l 0,192 C 28,-12.561 15.439,0 0,0" /></g></g></g></g><g
           transform="translate(224,12)"
           id="g36"><path
             id="path38"
             style="fill:#000000;fill-opacity:1;fill-rule:nonzero;stroke:none"
             d="m 0,0 -192,0 c -11.046,0 -20,8.954 -20,20 l 0,192 c 0,11.046 8.954,20 20,20 l 192,0 c 11.046,0 20,-8.954 20,-20 L 20,20 C 20,8.954 11.046,0 0,0" /></g><g
           transform="translate(128,244)"
           id="g40"><path
             id="path42"
             style="fill:#000000;fill-opacity:1;fill-rule:nonzero;stroke:none"
             d="M 0,0 C -96.301,0 -116,-19.565 -116,-116.004 -116,-212.443 -96.606,-232 0,-232 c 96.619,0 116,19.519 116,115.996 C 116,-19.518 96.302,0 0,0" /></g><g
           transform="translate(89.3457,177.3916)"
           id="g44"><path
             id="path46"
             style="fill:#3b96cc;fill-opacity:1;fill-rule:nonzero;stroke:none"
             d="m 0,0 9.261,0 c 2.281,0 4.429,-1.074 5.798,-2.899 l 10.711,-14.281 25.769,0 10.711,14.281 C 63.618,-1.074 65.767,0 68.048,0 l 9.261,0 -12.885,-17.18 25.769,0 7.382,-20.401 16.107,0 -6.309,20.401 12.885,0 10.086,-33.619 c 1.395,-4.65 -2.087,-9.33 -6.943,-9.33 l -20.323,0 4.295,-17.18 -25.769,0 17.179,-21.474 -21.206,0 -17.448,21.474 -42.949,0 L 0,-98.783 l -21.475,0 17.18,21.474 -25.77,0 4.295,17.18 -20.323,0 c -4.855,0 -8.337,4.68 -6.942,9.33 l 10.085,33.619 12.885,0 -6.308,-20.401 16.106,0 7.382,20.401 25.77,0 L 0,0 Z" /></g><g
           transform="translate(89.3457,141.8916)"
           id="g48"><path
             id="path50"
             style="fill:#000000;fill-opacity:1;fill-rule:nonzero;stroke:none"
             d="m 0,0 0,-6.308 c 0,-3.003 2.434,-5.436 5.436,-5.436 l 6.308,0 c 3.002,0 5.436,2.433 5.436,5.436 l 0,6.308 c 0,3.002 -2.434,5.436 -5.436,5.436 l -6.308,0 C 2.434,5.436 0,3.002 0,0" /></g><g
           transform="translate(149.4746,141.8916)"
           id="g52"><path
             id="path54"
             style="fill:#000000;fill-opacity:1;fill-rule:nonzero;stroke:none"
             d="m 0,0 0,-6.308 c 0,-3.003 2.434,-5.436 5.436,-5.436 l 6.308,0 c 3.002,0 5.436,2.433 5.436,5.436 l 0,6.308 c 0,3.002 -2.434,5.436 -5.436,5.436 l -6.308,0 C 2.434,5.436 0,3.002 0,0" /></g></g></g></g></svg>