<?xml version="1.0" encoding="UTF-8" standalone="no"?>
<svg
   xmlns:dc="http://purl.org/dc/elements/1.1/"
   xmlns:cc="http://creativecommons.org/ns#"
   xmlns:rdf="http://www.w3.org/1999/02/22-rdf-syntax-ns#"
   xmlns:svg="http://www.w3.org/2000/svg"
   xmlns="http://www.w3.org/2000/svg"
   viewBox="0 0 320 320"
   height="320"
   width="320"
   xml:space="preserve"
   version="1.1"
   id="svg2"><metadata
     id="metadata8"><rdf:RDF><cc:Work
         rdf:about=""><dc:format>image/svg+xml</dc:format><dc:type
           rdf:resource="http://purl.org/dc/dcmitype/StillImage" /></cc:Work></rdf:RDF></metadata><defs
     id="defs6"><clipPath
       id="clipPath16"
       clipPathUnits="userSpaceOnUse"><path
         id="path18"
         d="M 0,256 256,256 256,0 0,0 0,256 Z" /></clipPath><clipPath
       id="clipPath24"
       clipPathUnits="userSpaceOnUse"><path
         id="path26"
         d="M 4,184 252,184 252,72 4,72 4,184 Z" /></clipPath></defs><g
     transform="matrix(1.25,0,0,-1.25,0,320)"
     id="g10"><g
       id="g12"><g
         clip-path="url(#clipPath16)"
         id="g14"><g
           id="g20"><g
             id="g22" /><g
             id="g28"><g
               style="opacity:0.5"
               id="g30"
               clip-path="url(#clipPath24)"><g
                 id="g32"
                 transform="translate(228,184)"><path
                   id="path34"
                   style="fill:#ffffff;fill-opacity:1;fill-rule:nonzero;stroke:none"
                   d="m 0,0 -200,0 c -13.234,0 -24,-10.766 -24,-24 l 0,-64 c 0,-13.234 10.766,-24 24,-24 l 200,0 c 13.234,0 24,10.766 24,24 l 0,64 C 24,-10.766 13.234,0 0,0" /></g></g></g></g><g
           transform="translate(228,176)"
           id="g36"><path
             id="path38"
             style="fill:#999999;fill-opacity:1;fill-rule:nonzero;stroke:none"
             d="m 0,0 -200,0 c -8.836,0 -16,-7.164 -16,-16 l 0,-64 c 0,-8.836 7.164,-16 16,-16 l 200,0 c 8.836,0 16,7.164 16,16 l 0,64 C 16,-7.164 8.836,0 0,0" /></g><g
           transform="translate(68,96)"
           id="g40"><path
             id="path42"
             style="fill:#262626;fill-opacity:1;fill-rule:nonzero;stroke:none"
             d="M 0,0 C -17.672,0 -32,14.328 -32,32 -32,49.672 -17.672,64 0,64 17.672,64 32,49.672 32,32 32,14.328 17.672,0 0,0" /></g><g
           transform="translate(180,112)"
           id="g44"><path
             id="path46"
             style="fill:#262626;fill-opacity:1;fill-rule:nonzero;stroke:none"
             d="m 0,0 c 0,-6.628 -5.372,-12 -12,-12 -6.628,0 -12,5.372 -12,12 l 0,12 c 0,6.628 5.372,12 12,12 6.628,0 12,-5.372 12,-12 L 0,0 Z" /></g><g
           transform="translate(168,136)"
           id="g48"><path
             id="path50"
             style="fill:#000000;fill-opacity:1;fill-rule:nonzero;stroke:none"
             d="m 0,0 c -6.628,0 -12,-5.372 -12,-12 l 0,-12 c 0,-6.628 5.372,-12 12,-12 6.628,0 12,5.372 12,12 l 0,12 C 12,-5.372 6.628,0 0,0 m 0,-2 c 5.514,0 10,-4.613 10,-10.283 l 0,-11.434 C 10,-29.387 5.514,-34 0,-34 c -5.514,0 -10,4.613 -10,10.283 l 0,11.434 C -10,-6.613 -5.514,-2 0,-2" /></g><g
           transform="translate(220,112)"
           id="g52"><path
             id="path54"
             style="fill:#262626;fill-opacity:1;fill-rule:nonzero;stroke:none"
             d="m 0,0 c 0,-6.628 -5.372,-12 -12,-12 -6.628,0 -12,5.372 -12,12 l 0,12 c 0,6.628 5.372,12 12,12 6.628,0 12,-5.372 12,-12 L 0,0 Z" /></g><g
           transform="translate(208,136)"
           id="g56"><path
             id="path58"
             style="fill:#000000;fill-opacity:1;fill-rule:nonzero;stroke:none"
             d="m 0,0 c -6.628,0 -12,-5.372 -12,-12 l 0,-12 c 0,-6.628 5.372,-12 12,-12 6.628,0 12,5.372 12,12 l 0,12 C 12,-5.372 6.628,0 0,0 m 0,-2 c 5.514,0 10,-4.613 10,-10.283 l 0,-11.434 C 10,-29.387 5.514,-34 0,-34 c -5.514,0 -10,4.613 -10,10.283 l 0,11.434 C -10,-6.613 -5.514,-2 0,-2" /></g><g
           transform="translate(76,128)"
           id="g60"><path
             id="path62"
             style="fill:#0d0d0d;fill-opacity:1;fill-rule:nonzero;stroke:none"
             d="m 0,0 c 0,-4.416 -3.584,-8 -8,-8 -4.416,0 -8,3.584 -8,8 0,4.416 3.584,8 8,8 4.416,0 8,-3.584 8,-8" /></g><g
           transform="translate(72,144)"
           id="g64"><path
             id="path66"
             style="fill:#191919;fill-opacity:1;fill-rule:nonzero;stroke:none"
             d="m 0,0 c 0,-2.212 -1.788,-4 -4,-4 -2.212,0 -4,1.788 -4,4 l 0,8 c 0,2.212 1.788,4 4,4 2.212,0 4,-1.788 4,-4 L 0,0 Z" /></g><g
           transform="translate(72,104)"
           id="g68"><path
             id="path70"
             style="fill:#191919;fill-opacity:1;fill-rule:nonzero;stroke:none"
             d="m 0,0 c 0,-2.212 -1.788,-4 -4,-4 -2.212,0 -4,1.788 -4,4 l 0,8 c 0,2.212 1.788,4 4,4 2.212,0 4,-1.788 4,-4 L 0,0 Z" /></g><g
           transform="translate(52,132)"
           id="g72"><path
             id="path74"
             style="fill:#191919;fill-opacity:1;fill-rule:nonzero;stroke:none"
             d="M 0,0 C 2.212,0 4,-1.788 4,-4 4,-6.212 2.212,-8 0,-8 l -8,0 c -2.212,0 -4,1.788 -4,4 0,2.212 1.788,4 4,4 l 8,0 z" /></g><g
           transform="translate(92,132)"
           id="g76"><path
             id="path78"
             style="fill:#191919;fill-opacity:1;fill-rule:nonzero;stroke:none"
             d="M 0,0 C 2.212,0 4,-1.788 4,-4 4,-6.212 2.212,-8 0,-8 l -8,0 c -2.212,0 -4,1.788 -4,4 0,2.212 1.788,4 4,4 l 8,0 z" /></g><path
           id="path80"
           style="fill:#b3b3b3;fill-opacity:1;fill-rule:nonzero;stroke:none"
           d="m 219.999,148 -64,0 0,4.127 64,0 0,-4.127 z" /><path
           id="path82"
           style="fill:#191919;fill-opacity:1;fill-rule:nonzero;stroke:none"
           d="m 219.999,152 -64,0 0,16 64,0 0,-16 z" /></g></g></g></svg>