<?xml version="1.0" encoding="UTF-8" standalone="no"?>
<svg
   xmlns:dc="http://purl.org/dc/elements/1.1/"
   xmlns:cc="http://creativecommons.org/ns#"
   xmlns:rdf="http://www.w3.org/1999/02/22-rdf-syntax-ns#"
   xmlns:svg="http://www.w3.org/2000/svg"
   xmlns="http://www.w3.org/2000/svg"
   viewBox="0 0 320 320"
   height="320"
   width="320"
   xml:space="preserve"
   version="1.1"
   id="svg2"><metadata
     id="metadata8"><rdf:RDF><cc:Work
         rdf:about=""><dc:format>image/svg+xml</dc:format><dc:type
           rdf:resource="http://purl.org/dc/dcmitype/StillImage" /></cc:Work></rdf:RDF></metadata><defs
     id="defs6"><clipPath
       id="clipPath16"
       clipPathUnits="userSpaceOnUse"><path
         id="path18"
         d="M 0,256 256,256 256,0 0,0 0,256 Z" /></clipPath><clipPath
       id="clipPath24"
       clipPathUnits="userSpaceOnUse"><path
         id="path26"
         d="M 64,252 192,252 192,4 64,4 64,252 Z" /></clipPath></defs><g
     transform="matrix(1.25,0,0,-1.25,0,320)"
     id="g10"><g
       id="g12"><g
         clip-path="url(#clipPath16)"
         id="g14"><g
           id="g20"><g
             id="g22" /><g
             id="g28"><g
               style="opacity:0.5"
               id="g30"
               clip-path="url(#clipPath24)"><g
                 id="g32"
                 transform="translate(182.5879,252)"><path
                   id="path34"
                   style="fill:#ffffff;fill-opacity:1;fill-rule:nonzero;stroke:none"
                   d="m 0,0 -109.176,0 c -5.19,0 -9.412,-4.486 -9.412,-10 l 0,-228 c 0,-5.514 4.222,-10 9.412,-10 L 0,-248 c 5.19,0 9.412,4.486 9.412,10 l 0,228 C 9.412,-4.486 5.19,0 0,0" /></g></g></g></g><g
           transform="translate(182,12)"
           id="g36"><path
             id="path38"
             style="fill:#333333;fill-opacity:1;fill-rule:nonzero;stroke:none"
             d="m 0,0 -108,0 c -1.104,0 -2,0.896 -2,2 l 0,228 c 0,1.104 0.896,2 2,2 l 108,0 c 1.104,0 2,-0.896 2,-2 L 2,2 C 2,0.896 1.104,0 0,0" /></g><g
           transform="translate(172,16)"
           id="g40"><path
             id="path42"
             style="fill:#262626;fill-opacity:1;fill-rule:nonzero;stroke:none"
             d="m 0,0 -88,0 0,145.967 c 0,2.24 1.713,2.028 3.826,2.028 l 80.348,0 c 2.113,0 3.826,0.212 3.826,-2.028 L 0,0 Z" /></g><g
           transform="translate(127.9961,224)"
           id="g44"><path
             id="path46"
             style="fill:#262626;fill-opacity:1;fill-rule:nonzero;stroke:none"
             d="M 0,0 C -15.463,-0.002 -27.997,-12.538 -27.996,-28 -27.997,-43.462 -15.463,-55.998 0,-56 15.466,-56.002 28.004,-43.465 28.004,-28 28.004,-12.535 15.466,0.002 0,0" /></g><g
           transform="translate(128,220)"
           id="g48"><path
             id="path50"
             style="fill:#191919;fill-opacity:1;fill-rule:nonzero;stroke:none"
             d="m 0,0 c 13.255,0 24,-10.745 24,-24 0,-13.255 -10.745,-24 -24,-24 -13.255,0 -24,10.745 -24,24 0,13.255 10.745,24 24,24" /></g><g
           transform="translate(128.0039,216)"
           id="g52"><path
             id="path54"
             style="fill:#262626;fill-opacity:1;fill-rule:nonzero;stroke:none"
             d="M 0,0 C -11.046,0.002 -20.001,-8.951 -20.004,-19.996 -20.006,-31.045 -11.049,-40.002 0,-40 c 11.045,0.002 19.998,8.958 19.996,20.004 C 19.994,-8.954 11.042,-0.002 0,0" /></g><g
           transform="translate(136,214.3247)"
           id="g56"><path
             id="path58"
             style="fill:#333333;fill-opacity:1;fill-rule:nonzero;stroke:none"
             d="m 0,0 c -1.271,0.556 -2.607,0.991 -4,1.273 l 0,-3.598 4,0 L 0,0 Z" /></g><g
           transform="translate(108.4019,200)"
           id="g60"><path
             id="path62"
             style="fill:#333333;fill-opacity:1;fill-rule:nonzero;stroke:none"
             d="m 0,0 c -0.262,-1.292 -0.401,-2.627 -0.402,-3.996 l 0,-0.004 4,0 0,4 L 0,0 Z" /></g><g
           transform="translate(109.6753,204)"
           id="g64"><path
             id="path66"
             style="fill:#333333;fill-opacity:1;fill-rule:nonzero;stroke:none"
             d="m 0,0 2.325,0 0,3.963 C 1.409,2.74 0.62,1.417 0,0" /></g><path
           id="path68"
           style="fill:#333333;fill-opacity:1;fill-rule:nonzero;stroke:none"
           d="m 128,200 -4,0 0,-4 4,0 0,4 z" /><g
           transform="translate(108.4014,192)"
           id="g70"><path
             id="path72"
             style="fill:#333333;fill-opacity:1;fill-rule:nonzero;stroke:none"
             d="m 0,0 c 0.283,-1.393 0.718,-2.729 1.274,-4 l 2.325,0 0,4 L 0,0 Z" /></g><g
           transform="translate(147.5986,192)"
           id="g74"><path
             id="path76"
             style="fill:#333333;fill-opacity:1;fill-rule:nonzero;stroke:none"
             d="m 0,0 c 0.263,1.292 0.401,2.63 0.401,4 l -4,0 0,-4 L 0,0 Z" /></g><path
           id="path78"
           style="fill:#333333;fill-opacity:1;fill-rule:nonzero;stroke:none"
           d="m 124,188 4,0 0,4 -4,0 0,-4 z" /><g
           transform="translate(120,177.6758)"
           id="g80"><path
             id="path82"
             style="fill:#333333;fill-opacity:1;fill-rule:nonzero;stroke:none"
             d="m 0,0 c 1.271,-0.556 2.607,-0.991 4,-1.274 l 0,3.598 -4,0 L 0,0 Z" /></g><path
           id="path84"
           style="fill:#333333;fill-opacity:1;fill-rule:nonzero;stroke:none"
           d="m 128,192 4,0 0,4 -4,0 0,-4 z" /><g
           transform="translate(116.0366,212)"
           id="g86"><path
             id="path88"
             style="fill:#333333;fill-opacity:1;fill-rule:nonzero;stroke:none"
             d="m 0,0 3.963,0 0,2.324 C 2.546,1.705 1.224,0.916 0,0" /></g><g
           transform="translate(143.9727,184)"
           id="g90"><path
             id="path92"
             style="fill:#333333;fill-opacity:1;fill-rule:nonzero;stroke:none"
             d="m 0,0 -3.973,0 0,-3.973 C -2.468,-2.84 -1.133,-1.504 0,0" /></g><g
           transform="translate(146.3242,188)"
           id="g94"><path
             id="path96"
             style="fill:#333333;fill-opacity:1;fill-rule:nonzero;stroke:none"
             d="m 0,0 -2.324,0 0,-3.963 C -1.408,-2.74 -0.62,-1.417 0,0" /></g><g
           transform="translate(139.9629,180)"
           id="g98"><path
             id="path100"
             style="fill:#333333;fill-opacity:1;fill-rule:nonzero;stroke:none"
             d="m 0,0 -3.963,0 0,-2.325 C -2.546,-1.705 -1.223,-0.916 0,0" /></g><g
           transform="translate(128,216)"
           id="g102"><path
             id="path104"
             style="fill:#333333;fill-opacity:1;fill-rule:nonzero;stroke:none"
             d="M 0,0 C -1.37,0 -2.708,-0.139 -4,-0.401 L -4,-4 0,-4 0,0 Z" /></g><path
           id="path106"
           style="fill:#333333;fill-opacity:1;fill-rule:nonzero;stroke:none"
           d="m 120,192 4,0 0,4 -4,0 0,-4 z" /><path
           id="path108"
           style="fill:#333333;fill-opacity:1;fill-rule:nonzero;stroke:none"
           d="m 132,180 4,0 0,4 -4,0 0,-4 z" /><g
           transform="translate(112.0273,208)"
           id="g110"><path
             id="path112"
             style="fill:#333333;fill-opacity:1;fill-rule:nonzero;stroke:none"
             d="m 0,0 3.973,0 0,3.973 C 2.468,2.84 1.132,1.504 0,0" /></g><path
           id="path114"
           style="fill:#333333;fill-opacity:1;fill-rule:nonzero;stroke:none"
           d="m 136,200 -4,0 0,-4 4,0 0,4 z" /><path
           id="path116"
           style="fill:#333333;fill-opacity:1;fill-rule:nonzero;stroke:none"
           d="m 132,204 -4,0 0,-4 4,0 0,4 z" /><g
           transform="translate(147.5977,200)"
           id="g118"><path
             id="path120"
             style="fill:#333333;fill-opacity:1;fill-rule:nonzero;stroke:none"
             d="m 0,0 c -0.282,1.393 -0.717,2.729 -1.273,4 l -2.325,0 0,-4 L 0,0 Z" /></g><g
           transform="translate(140,208)"
           id="g122"><path
             id="path124"
             style="fill:#333333;fill-opacity:1;fill-rule:nonzero;stroke:none"
             d="M 0,0 0,3.973 C -0.013,3.981 -0.024,3.991 -0.037,4 L -4,4 -4,0 0,0 Z" /></g><path
           id="path126"
           style="fill:#333333;fill-opacity:1;fill-rule:nonzero;stroke:none"
           d="m 124,212 -4,0 0,-4 4,0 0,4 z" /><path
           id="path128"
           style="fill:#333333;fill-opacity:1;fill-rule:nonzero;stroke:none"
           d="m 120,208 -4,0 0,-4 4,0 0,4 z" /><path
           id="path130"
           style="fill:#333333;fill-opacity:1;fill-rule:nonzero;stroke:none"
           d="m 132,212 -4,0 0,-4 4,0 0,4 z" /><path
           id="path132"
           style="fill:#333333;fill-opacity:1;fill-rule:nonzero;stroke:none"
           d="m 116,204 -4,0 0,-4 4,0 0,4 z" /><g
           transform="translate(144,204)"
           id="g134"><path
             id="path136"
             style="fill:#333333;fill-opacity:1;fill-rule:nonzero;stroke:none"
             d="M 0,0 0,3.963 C -0.009,3.976 -0.019,3.988 -0.027,4 L -4,4 -4,0 0,0 Z" /></g><g
           transform="translate(112,188)"
           id="g138"><path
             id="path140"
             style="fill:#333333;fill-opacity:1;fill-rule:nonzero;stroke:none"
             d="M 0,0 0,-3.963 C 0.009,-3.976 0.019,-3.988 0.027,-4 L 4,-4 4,0 0,0 Z" /></g><path
           id="path142"
           style="fill:#333333;fill-opacity:1;fill-rule:nonzero;stroke:none"
           d="m 132,188 4,0 0,4 -4,0 0,-4 z" /><path
           id="path144"
           style="fill:#333333;fill-opacity:1;fill-rule:nonzero;stroke:none"
           d="m 124,180 4,0 0,4 -4,0 0,-4 z" /><path
           id="path146"
           style="fill:#333333;fill-opacity:1;fill-rule:nonzero;stroke:none"
           d="m 140,196 4,0 0,4 -4,0 0,-4 z" /><g
           transform="translate(116,184)"
           id="g148"><path
             id="path150"
             style="fill:#333333;fill-opacity:1;fill-rule:nonzero;stroke:none"
             d="M 0,0 0,-3.973 C 0.012,-3.981 0.024,-3.991 0.037,-4 L 4,-4 4,0 0,0 Z" /></g><path
           id="path152"
           style="fill:#333333;fill-opacity:1;fill-rule:nonzero;stroke:none"
           d="m 116,196 -4,0 0,-4 4,0 0,4 z" /><g
           transform="translate(132,180)"
           id="g154"><path
             id="path156"
             style="fill:#333333;fill-opacity:1;fill-rule:nonzero;stroke:none"
             d="m 0,0 -4,0 0,-4 0.004,0 c 1.368,0 2.705,0.14 3.996,0.402 L 0,0 Z" /></g><path
           id="path158"
           style="fill:#333333;fill-opacity:1;fill-rule:nonzero;stroke:none"
           d="m 136,208 -4,0 0,-4 4,0 0,4 z" /><path
           id="path160"
           style="fill:#333333;fill-opacity:1;fill-rule:nonzero;stroke:none"
           d="m 128,208 -4,0 0,-4 4,0 0,4 z" /><path
           id="path162"
           style="fill:#333333;fill-opacity:1;fill-rule:nonzero;stroke:none"
           d="m 124,204 -4,0 0,-4 4,0 0,4 z" /><path
           id="path164"
           style="fill:#333333;fill-opacity:1;fill-rule:nonzero;stroke:none"
           d="m 140,188 4,0 0,4 -4,0 0,-4 z" /><path
           id="path166"
           style="fill:#333333;fill-opacity:1;fill-rule:nonzero;stroke:none"
           d="m 136,192 4,0 0,4 -4,0 0,-4 z" /><path
           id="path168"
           style="fill:#333333;fill-opacity:1;fill-rule:nonzero;stroke:none"
           d="m 140,204 -4,0 0,-4 4,0 0,4 z" /><path
           id="path170"
           style="fill:#333333;fill-opacity:1;fill-rule:nonzero;stroke:none"
           d="m 128,184 4,0 0,4 -4,0 0,-4 z" /><path
           id="path172"
           style="fill:#333333;fill-opacity:1;fill-rule:nonzero;stroke:none"
           d="m 136,184 4,0 0,4 -4,0 0,-4 z" /><path
           id="path174"
           style="fill:#333333;fill-opacity:1;fill-rule:nonzero;stroke:none"
           d="m 116,188 4,0 0,4 -4,0 0,-4 z" /><path
           id="path176"
           style="fill:#333333;fill-opacity:1;fill-rule:nonzero;stroke:none"
           d="m 120,200 -4,0 0,-4 4,0 0,4 z" /><path
           id="path178"
           style="fill:#333333;fill-opacity:1;fill-rule:nonzero;stroke:none"
           d="m 120,184 4,0 0,4 -4,0 0,-4 z" /><g
           transform="translate(138,196)"
           id="g180"><path
             id="path182"
             style="fill:#191919;fill-opacity:1;fill-rule:nonzero;stroke:none"
             d="m 0,0 c 0,-5.523 -4.478,-10 -10,-10 -5.523,0 -10,4.477 -10,10 0,5.523 4.477,10 10,10 C -4.478,10 0,5.523 0,0" /></g><path
           id="path184"
           style="fill:#cca37a;fill-opacity:1;fill-rule:nonzero;stroke:none"
           d="m 108,140 -16,0 0,20 16,0 0,-20 z" /><path
           id="path186"
           style="fill:#cca37a;fill-opacity:1;fill-rule:nonzero;stroke:none"
           d="m 128,140 -16,0 0,20 16,0 0,-20 z" /><path
           id="path188"
           style="fill:#cca37a;fill-opacity:1;fill-rule:nonzero;stroke:none"
           d="m 148,140 -16,0 0,20 16,0 0,-20 z" /><path
           id="path190"
           style="fill:#cca37a;fill-opacity:1;fill-rule:nonzero;stroke:none"
           d="m 168,140 -16,0 0,20 16,0 0,-20 z" /><path
           id="path192"
           style="fill:#cca37a;fill-opacity:1;fill-rule:nonzero;stroke:none"
           d="m 108,116 -16,0 0,20 16,0 0,-20 z" /><path
           id="path194"
           style="fill:#cca37a;fill-opacity:1;fill-rule:nonzero;stroke:none"
           d="m 128,116 -16,0 0,20 16,0 0,-20 z" /><path
           id="path196"
           style="fill:#cca37a;fill-opacity:1;fill-rule:nonzero;stroke:none"
           d="m 148,116 -16,0 0,20 16,0 0,-20 z" /><path
           id="path198"
           style="fill:#cca37a;fill-opacity:1;fill-rule:nonzero;stroke:none"
           d="m 168,116 -16,0 0,20 16,0 0,-20 z" /><path
           id="path200"
           style="fill:#cca37a;fill-opacity:1;fill-rule:nonzero;stroke:none"
           d="m 108,92 -16,0 0,20 16,0 0,-20 z" /><path
           id="path202"
           style="fill:#cca37a;fill-opacity:1;fill-rule:nonzero;stroke:none"
           d="m 128,92 -16,0 0,20 16,0 0,-20 z" /><path
           id="path204"
           style="fill:#cca37a;fill-opacity:1;fill-rule:nonzero;stroke:none"
           d="m 148,92 -16,0 0,20 16,0 0,-20 z" /><path
           id="path206"
           style="fill:#cca37a;fill-opacity:1;fill-rule:nonzero;stroke:none"
           d="m 168,92 -16,0 0,20 16,0 0,-20 z" /><path
           id="path208"
           style="fill:#cca37a;fill-opacity:1;fill-rule:nonzero;stroke:none"
           d="m 108,68 -16,0 0,20 16,0 0,-20 z" /><path
           id="path210"
           style="fill:#cca37a;fill-opacity:1;fill-rule:nonzero;stroke:none"
           d="m 128,68 -16,0 0,20 16,0 0,-20 z" /><path
           id="path212"
           style="fill:#cca37a;fill-opacity:1;fill-rule:nonzero;stroke:none"
           d="m 148,68 -16,0 0,20 16,0 0,-20 z" /><path
           id="path214"
           style="fill:#cca37a;fill-opacity:1;fill-rule:nonzero;stroke:none"
           d="m 168,68 -16,0 0,20 16,0 0,-20 z" /><path
           id="path216"
           style="fill:#cca37a;fill-opacity:1;fill-rule:nonzero;stroke:none"
           d="m 108,44 -16,0 0,20 16,0 0,-20 z" /><path
           id="path218"
           style="fill:#cca37a;fill-opacity:1;fill-rule:nonzero;stroke:none"
           d="m 128,44 -16,0 0,20 16,0 0,-20 z" /><path
           id="path220"
           style="fill:#cca37a;fill-opacity:1;fill-rule:nonzero;stroke:none"
           d="m 148,44 -16,0 0,20 16,0 0,-20 z" /><path
           id="path222"
           style="fill:#cca37a;fill-opacity:1;fill-rule:nonzero;stroke:none"
           d="m 168,44 -16,0 0,20 16,0 0,-20 z" /><path
           id="path224"
           style="fill:#cca37a;fill-opacity:1;fill-rule:nonzero;stroke:none"
           d="m 108,20 -16,0 0,20 16,0 0,-20 z" /><path
           id="path226"
           style="fill:#cca37a;fill-opacity:1;fill-rule:nonzero;stroke:none"
           d="m 128,20 -16,0 0,20 16,0 0,-20 z" /><path
           id="path228"
           style="fill:#cca37a;fill-opacity:1;fill-rule:nonzero;stroke:none"
           d="m 148,20 -16,0 0,20 16,0 0,-20 z" /><path
           id="path230"
           style="fill:#cca37a;fill-opacity:1;fill-rule:nonzero;stroke:none"
           d="m 168,20 -16,0 0,20 16,0 0,-20 z" /><path
           id="path232"
           style="fill:#d9d9d9;fill-opacity:1;fill-rule:nonzero;stroke:none"
           d="m 104,144 -8,0 0,12 8,0 0,-12 z" /><path
           id="path234"
           style="fill:#d9d9d9;fill-opacity:1;fill-rule:nonzero;stroke:none"
           d="m 124,144 -8,0 0,12 8,0 0,-12 z" /><path
           id="path236"
           style="fill:#d9d9d9;fill-opacity:1;fill-rule:nonzero;stroke:none"
           d="m 144,144 -8,0 0,12 8,0 0,-12 z" /><path
           id="path238"
           style="fill:#d9d9d9;fill-opacity:1;fill-rule:nonzero;stroke:none"
           d="m 164,144 -8,0 0,12 8,0 0,-12 z" /><path
           id="path240"
           style="fill:#d35400;fill-opacity:1;fill-rule:nonzero;stroke:none"
           d="m 104,120 -8,0 0,12 8,0 0,-12 z" /><path
           id="path242"
           style="fill:#d35400;fill-opacity:1;fill-rule:nonzero;stroke:none"
           d="m 124,120 -8,0 0,12 8,0 0,-12 z" /><path
           id="path244"
           style="fill:#d35400;fill-opacity:1;fill-rule:nonzero;stroke:none"
           d="m 144,120 -8,0 0,12 8,0 0,-12 z" /><path
           id="path246"
           style="fill:#d9d9d9;fill-opacity:1;fill-rule:nonzero;stroke:none"
           d="m 164,120 -8,0 0,12 8,0 0,-12 z" /><path
           id="path248"
           style="fill:#d35400;fill-opacity:1;fill-rule:nonzero;stroke:none"
           d="m 104,96 -8,0 0,12 8,0 0,-12 z" /><path
           id="path250"
           style="fill:#d35400;fill-opacity:1;fill-rule:nonzero;stroke:none"
           d="m 124,96 -8,0 0,12 8,0 0,-12 z" /><path
           id="path252"
           style="fill:#d35400;fill-opacity:1;fill-rule:nonzero;stroke:none"
           d="m 144,96 -8,0 0,12 8,0 0,-12 z" /><path
           id="path254"
           style="fill:#d9d9d9;fill-opacity:1;fill-rule:nonzero;stroke:none"
           d="m 164,96 -8,0 0,12 8,0 0,-12 z" /><path
           id="path256"
           style="fill:#d35400;fill-opacity:1;fill-rule:nonzero;stroke:none"
           d="m 104,72 -8,0 0,12 8,0 0,-12 z" /><path
           id="path258"
           style="fill:#d35400;fill-opacity:1;fill-rule:nonzero;stroke:none"
           d="m 124,72 -8,0 0,12 8,0 0,-12 z" /><path
           id="path260"
           style="fill:#d35400;fill-opacity:1;fill-rule:nonzero;stroke:none"
           d="m 144,72 -8,0 0,12 8,0 0,-12 z" /><path
           id="path262"
           style="fill:#d9d9d9;fill-opacity:1;fill-rule:nonzero;stroke:none"
           d="m 164,72 -8,0 0,12 8,0 0,-12 z" /><path
           id="path264"
           style="fill:#d35400;fill-opacity:1;fill-rule:nonzero;stroke:none"
           d="m 104,48 -8,0 0,12 8,0 0,-12 z" /><path
           id="path266"
           style="fill:#d35400;fill-opacity:1;fill-rule:nonzero;stroke:none"
           d="m 124,48 -8,0 0,12 8,0 0,-12 z" /><path
           id="path268"
           style="fill:#d35400;fill-opacity:1;fill-rule:nonzero;stroke:none"
           d="m 144,48 -8,0 0,12 8,0 0,-12 z" /><path
           id="path270"
           style="fill:#d9d9d9;fill-opacity:1;fill-rule:nonzero;stroke:none"
           d="m 164,48 -8,0 0,12 8,0 0,-12 z" /><path
           id="path272"
           style="fill:#d35400;fill-opacity:1;fill-rule:nonzero;stroke:none"
           d="m 104,24 -8,0 0,12 8,0 0,-12 z" /><path
           id="path274"
           style="fill:#d35400;fill-opacity:1;fill-rule:nonzero;stroke:none"
           d="m 124,24 -8,0 0,12 8,0 0,-12 z" /><path
           id="path276"
           style="fill:#d35400;fill-opacity:1;fill-rule:nonzero;stroke:none"
           d="m 144,24 -8,0 0,12 8,0 0,-12 z" /><path
           id="path278"
           style="fill:#d9d9d9;fill-opacity:1;fill-rule:nonzero;stroke:none"
           d="m 164,24 -8,0 0,12 8,0 0,-12 z" /></g></g></g></svg>