<?xml version="1.0" encoding="UTF-8" standalone="no"?>
<svg
   xmlns:dc="http://purl.org/dc/elements/1.1/"
   xmlns:cc="http://creativecommons.org/ns#"
   xmlns:rdf="http://www.w3.org/1999/02/22-rdf-syntax-ns#"
   xmlns:svg="http://www.w3.org/2000/svg"
   xmlns="http://www.w3.org/2000/svg"
   viewBox="0 0 341.33334 341.33334"
   height="256"
   width="256"
   xml:space="preserve"
   id="svg2"
   version="1.1"><metadata
     id="metadata8"><rdf:RDF><cc:Work
         rdf:about=""><dc:format>image/svg+xml</dc:format><dc:type
           rdf:resource="http://purl.org/dc/dcmitype/StillImage" /></cc:Work></rdf:RDF></metadata><defs
     id="defs6"><clipPath
       id="clipPath18"
       clipPathUnits="userSpaceOnUse"><path
         id="path16"
         d="M 0,256 H 256 V 0 H 0 Z" /></clipPath><clipPath
       id="clipPath26"
       clipPathUnits="userSpaceOnUse"><path
         id="path24"
         d="M 4,252 H 252 V 4 H 4 Z" /></clipPath><clipPath
       id="clipPath208"
       clipPathUnits="userSpaceOnUse"><path
         id="path206"
         d="m 69.8637,72.4006 h 0.1368 v -0.0759 h -0.1368 z" /></clipPath><clipPath
       id="clipPath224"
       clipPathUnits="userSpaceOnUse"><path
         id="path222"
         d="m 65.9892,71.8457 h 0.1529 v -0.0864 h -0.1529 z" /></clipPath></defs><g
     transform="matrix(1.3333333,0,0,-1.3333333,0,341.33333)"
     id="g10"><g
       id="g12"><g
         clip-path="url(#clipPath18)"
         id="g14"><g
           id="g20"><g
             id="g22" /><g
             id="g34"><g
               style="opacity:0.5"
               id="g32"
               clip-path="url(#clipPath26)"><g
                 id="g30"
                 transform="translate(128,108)"><path
                   id="path28"
                   style="fill:#ffffff;fill-opacity:1;fill-rule:nonzero;stroke:none"
                   d="m 0,0 c -11.046,0 -20,8.954 -20,20 0,11.046 8.954,20 20,20 C 11.046,40 20,31.046 20,20 20,8.954 11.046,0 0,0 M 87.676,107.682 C 64.254,131.102 33.116,144 0,144 -33.124,144 -64.264,131.102 -87.683,107.681 -111.103,84.262 -124,53.122 -124,20 c 0,-33.122 12.897,-64.262 36.317,-87.681 C -64.264,-91.102 -33.124,-104 0,-104 c 33.116,0 64.254,12.898 87.676,36.318 C 111.1,-44.26 124,-13.12 124,20 c 0,33.12 -12.9,64.26 -36.324,87.682" /></g></g></g></g><g
           transform="translate(128,84.4951)"
           id="g36"><path
             id="path38"
             style="fill:#bfbfbf;fill-opacity:1;fill-rule:nonzero;stroke:none"
             d="M 0,0 C -23.993,0 -43.505,19.517 -43.505,43.505 -43.505,67.493 -23.993,87.01 0,87.01 23.988,87.01 43.5,67.493 43.5,43.505 43.5,19.517 23.988,0 0,0 m 0,159.505 c -64.071,0 -116,-51.934 -116,-116 0,-64.066 51.929,-116 116,-116 64.051,0 116,51.934 116,116 0,64.066 -51.949,116 -116,116" /></g><g
           transform="translate(57.4912,120.8723)"
           id="g40"><path
             id="path42"
             style="fill:#191919;fill-opacity:1;fill-rule:nonzero;stroke:none"
             d="m 0,0 -6.572,0.007 c -0.951,0 -1.722,0.752 -1.722,1.678 v 9.748 c 0,0.926 0.771,1.677 1.722,1.677 l 4.113,0.005 c 0.494,0 0.895,0.39 0.895,0.872 l 0.012,3.897 c 0,0.202 0.167,0.365 0.375,0.365 h 2.411 c 0.207,0 0.375,-0.163 0.375,-0.365 L 1.634,0.364 c 0,-0.202 -0.168,-0.365 -0.375,-0.365 L 0,0 -0.031,-0.87 h 1.645 c 0.494,0 0.895,0.39 0.895,0.872 v 18.254 c 0,0.481 -0.401,0.872 -0.895,0.872 h -3.163 c -0.494,0 -0.895,-0.391 -0.895,-0.872 l 0.005,-3.907 c 0,-0.202 -0.168,-0.365 -0.376,-0.365 l -3.757,0.006 c -1.45,0 -2.625,-1.145 -2.625,-2.557 V 1.685 c 0,-1.412 1.175,-2.557 2.625,-2.557 l 6.541,0.002 z" /></g><g
           transform="translate(55.0471,124.4604)"
           id="g44"><path
             id="path46"
             style="fill:#191919;fill-opacity:1;fill-rule:nonzero;stroke:none"
             d="m 0,0 v 6.306 c 0,0.529 -0.44,0.957 -0.982,0.957 -0.543,0 -0.982,-0.428 -0.982,-0.957 v -6.807 c 0,-0.528 0.439,-0.957 0.982,-0.957 C -0.44,-1.458 0,-1.03 0,-0.501 V 0 l 0.893,-0.03 v -0.471 c 0,-1.009 -0.84,-1.827 -1.875,-1.827 -1.036,0 -1.875,0.818 -1.875,1.827 v 6.807 c 0,1.009 0.839,1.827 1.875,1.827 1.035,0 1.875,-0.818 1.875,-1.827 V -0.03 Z" /></g><g
           transform="translate(44.5309,129.122)"
           id="g48"><path
             id="path50"
             style="fill:#191919;fill-opacity:1;fill-rule:nonzero;stroke:none"
             d="M 0,0 H 1.138 C 1.345,0 1.513,0.164 1.513,0.365 L 1.508,3.183 c 0,0.927 -0.771,1.678 -1.722,1.678 h -5.692 c -0.951,0 -1.722,-0.751 -1.722,-1.678 v -9.747 c 0,-0.927 0.771,-1.678 1.722,-1.678 h 5.692 c 0.951,0 1.722,0.751 1.722,1.678 l 0.005,2.679 c 0,0.202 -0.168,0.365 -0.375,0.365 H -1.01 c -0.207,0 -0.375,-0.163 -0.375,-0.365 l 0.013,-1.278 c 0,-1.009 -0.653,-1.827 -1.688,-1.827 -1.035,0 -1.687,0.818 -1.687,1.827 v 6.808 c 0,1.008 0.652,1.826 1.687,1.826 1.036,0 1.688,-0.818 1.688,-1.826 L -1.384,0.365 C -1.384,0.164 -1.217,0 -1.01,0 H 0 l -0.031,-0.878 h -1.351 c -0.494,0 -0.894,0.39 -0.894,0.871 l 0.011,1.652 c 0,0.528 -0.252,0.956 -0.795,0.956 -0.542,10e-4 -0.795,-0.428 -0.795,-0.956 v -6.808 c 0,-0.528 0.253,-0.957 0.795,-0.957 0.543,0 0.795,0.429 0.795,0.957 l -0.011,1.65 c 0,0.481 0.4,0.872 0.894,0.872 h 2.9 c 0.494,0 0.895,-0.391 0.895,-0.872 L 2.411,-6.564 c 0,-1.413 -1.175,-2.558 -2.625,-2.558 h -5.692 c -1.45,0 -2.625,1.145 -2.625,2.558 v 9.747 c 0,1.413 1.175,2.558 2.625,2.558 h 5.692 c 1.45,0 2.625,-1.145 2.625,-2.558 l 0.002,-3.19 c 0,-0.481 -0.401,-0.871 -0.895,-0.871 h -1.549 z" /></g><g
           transform="translate(128.0022,114.2243)"
           id="g52"><path
             id="path54"
             style="fill:#e6e6e6;fill-opacity:1;fill-rule:nonzero;stroke:none"
             d="m 0,0 c -7.596,0 -13.786,6.176 -13.786,13.776 0,7.604 6.19,13.785 13.786,13.785 7.6,0 13.777,-6.181 13.777,-13.785 C 13.777,6.176 7.6,0 0,0 m 0.001,59.776 c -25.364,0 -46.003,-20.651 -46.003,-46 0,-25.349 20.639,-46 46.003,-46 25.338,0 45.997,20.651 45.997,46 0,25.349 -20.659,46 -45.997,46" /></g><g
           transform="translate(114.0697,40)"
           id="g56"><path
             id="path58"
             style="fill:#808080;fill-opacity:1;fill-rule:nonzero;stroke:none"
             d="m 0,0 v -9.1 c 0,-0.301 0.182,-0.551 0.551,-0.748 0.327,-0.172 0.674,-0.259 1.043,-0.259 h 9.258 v -1.772 L 4.046,-12 c -0.274,0 -1.846,0.04 -4.722,0.121 -3.598,0.104 -5.394,1.064 -5.394,2.883 V 0 Z" /></g><g
           transform="translate(133.0349,28.1208)"
           id="g60"><path
             id="path62"
             style="fill:#808080;fill-opacity:1;fill-rule:nonzero;stroke:none"
             d="M 0,0 H -0.676 C -1.18,0 -1.861,0.064 -2.719,0.191 -3.795,0.354 -4.585,0.613 -5.089,0.973 -5.743,1.401 -6.07,2.037 -6.07,2.883 v 8.996 H 0 Z" /></g><g
           transform="translate(141.1478,30.0141)"
           id="g64"><path
             id="path66"
             style="fill:#808080;fill-opacity:1;fill-rule:nonzero;stroke:none"
             d="M 0,0 H 4.426 C 5.531,0 6.289,0.047 6.698,0.138 7.574,0.335 8.011,0.77 8.011,1.442 v 0.712 c 0,0.693 -0.507,1.141 -1.517,1.338 -0.397,0.068 -1.23,0.104 -2.5,0.104 H 0 Z M 8.011,6.774 C 8.011,7.503 7.512,7.955 6.519,8.129 6.192,8.186 5.354,8.216 4.004,8.216 H 0 V 5.262 h 4.433 c 1.145,0 1.916,0.047 2.31,0.14 0.846,0.208 1.268,0.666 1.268,1.372 M 8.869,4.707 c 0.748,-0.418 1.225,-0.723 1.429,-0.92 0.37,-0.361 0.554,-0.84 0.554,-1.442 V 1.111 C 10.852,0 10.238,-0.782 9.011,-1.234 8.303,-1.488 7.118,-1.669 5.456,-1.772 3.874,-1.864 2.532,-1.91 1.43,-1.91 c -2.331,0 -3.905,0.087 -4.721,0.261 -1.853,0.381 -2.779,1.261 -2.779,2.639 V 9.986 H 5.456 c 1.43,0 2.61,-0.178 3.535,-0.539 1.24,-0.498 1.861,-1.278 1.861,-2.345 0,-0.682 -0.147,-1.208 -0.441,-1.579 C 10.119,5.152 9.605,4.881 8.869,4.707" /></g><g
           transform="translate(192,147.0882)"
           id="g68"><path
             id="path70"
             style="fill:#eac500;fill-opacity:1;fill-rule:nonzero;stroke:none"
             d="m 0,0 v -15.088 l 16,8.294 V 8.912 Z" /></g><g
           transform="translate(208,131.6906)"
           id="g72"><path
             id="path74"
             style="fill:#7b0000;fill-opacity:1;fill-rule:nonzero;stroke:none"
             d="M 0,0 V -7.691 L -16,1.061 V 8.309 Z" /></g><g
           transform="translate(224.0191,132.3094)"
           id="g76"><path
             id="path78"
             style="fill:#00007b;fill-opacity:1;fill-rule:nonzero;stroke:none"
             d="M 0,0 V 7.691 L -16,-0.53 v -7.779 z" /></g><g
           transform="translate(214.7519,146.8757)"
           id="g80"><path
             id="path82"
             style="fill:#7b0000;fill-opacity:1;fill-rule:nonzero;stroke:none"
             d="M 0,0 C 1.447,0.856 2.197,2.019 2.158,3.44 2.14,4.065 1.85,4.67 1.296,5.237 -0.332,6.903 -3.998,7.96 -7.239,7.689 -12.621,7.243 -15.677,5.51 -16.322,2.538 -16.376,2.285 -16.4,2.035 -16.397,1.79 c 0.791,-0.748 1.679,-1.388 2.634,-1.905 1.418,1.557 3.865,2.602 6.477,2.646 0.048,10e-4 0.097,0.002 0.146,0.002 C -4.761,2.533 -1.485,1.587 0,0 m -7.27,1.294 c -2.071,-0.035 -4.107,-0.816 -5.374,-1.948 1.68,-0.709 3.51,-1.062 5.348,-0.992 2.534,0.095 4.61,0.472 6.165,1.095 -1.336,1.06 -3.978,1.89 -6.139,1.845 m -8.606,-1.476 c 0.172,-0.341 0.367,-0.65 0.558,-0.917 0.164,-0.23 0.342,-0.453 0.533,-0.669 0.006,0.02 0.013,0.038 0.02,0.057 0.08,0.211 0.176,0.416 0.289,0.617 -0.484,0.275 -0.952,0.58 -1.4,0.912 m 2.406,-1.431 c -0.12,-0.19 -0.219,-0.386 -0.294,-0.586 -0.054,-0.144 -0.082,-0.309 -0.083,-0.489 0.496,-0.424 1.04,-0.806 1.613,-1.135 0.468,0.52 1.116,0.918 1.924,1.182 -1.09,0.213 -2.153,0.56 -3.16,1.028 m 9.056,-1.028 c 1.048,-0.258 2.052,-0.669 2.713,-1.286 0.802,0.481 1.338,1.137 1.411,2.03 0.01,0.113 -0.005,0.231 -0.044,0.352 -1.044,-0.473 -2.379,-0.857 -4.08,-1.096 m -8.706,-2.058 c 0.065,-0.098 0.133,-0.194 0.205,-0.29 0.016,0.045 0.032,0.09 0.049,0.135 -0.085,0.05 -0.17,0.102 -0.254,0.155 m 5.83,1.197 c -0.733,0.021 -2.66,-0.025 -3.815,-0.884 1.249,-0.534 2.573,-0.814 3.807,-0.767 1.451,0.061 3.043,0.24 4.343,0.67 -0.972,0.546 -2.586,0.938 -4.335,0.981 m 0.031,-2.887 c -1.518,-0.065 -3.129,0.31 -4.617,1.009 -0.06,-0.161 -0.103,-0.335 -0.125,-0.524 -0.003,-0.022 -0.005,-0.043 -0.007,-0.064 1.174,-1.046 2.83,-1.831 4.713,-1.762 2.791,0.094 4.498,0.527 5.073,1.287 0.186,0.246 0.251,0.525 0.21,0.907 -0.004,0.034 -0.01,0.068 -0.018,0.102 -1.301,-0.545 -3.046,-0.865 -5.229,-0.955 m -1.556,-4.483 c -0.098,0.014 -2.4,0.339 -3.599,2.094 -0.446,0.652 -0.681,1.408 -0.703,2.254 -0.427,0.443 -0.778,0.907 -1.046,1.354 -0.369,0.617 -0.609,1.238 -0.713,1.824 -0.478,0.451 -0.912,0.942 -1.287,1.466 -0.712,0.995 -1.144,2.042 -1.277,3.058 -0.133,0.135 -0.263,0.273 -0.39,0.415 -1.903,2.111 -2.941,4.68 -2.922,7.235 0.049,6.442 10.896,8.218 11.358,8.29 0.295,0.047 0.572,-0.189 0.613,-0.528 0.041,-0.338 -0.166,-0.65 -0.464,-0.698 -0.104,-0.016 -10.377,-1.696 -10.418,-7.075 -0.016,-2.075 0.793,-4.183 2.284,-5.982 0.772,3.551 4.157,5.599 10.061,6.089 C -3.762,9.217 0.17,8.055 2.024,6.157 2.808,5.355 3.219,4.454 3.246,3.479 3.282,2.179 2.86,0.347 0.653,-1.022 c 0.143,-0.386 0.162,-0.729 0.141,-0.99 -0.1,-1.221 -0.711,-2.191 -1.829,-2.907 0.052,-0.148 0.086,-0.304 0.104,-0.468 0.077,-0.726 -0.079,-1.352 -0.466,-1.862 -0.815,-1.079 -2.624,-1.608 -5.865,-1.718 -1.776,-0.052 -3.294,0.496 -4.497,1.304 0.058,-0.122 0.125,-0.239 0.202,-0.352 0.916,-1.344 2.85,-1.625 2.87,-1.627 0.298,-0.042 0.511,-0.35 0.475,-0.688 -0.033,-0.315 -0.267,-0.546 -0.539,-0.546 -0.021,0 -0.043,10e-4 -0.064,0.004" /></g><g
           transform="translate(208,164)"
           id="g84"><path
             id="path86"
             style="fill:#00007b;fill-opacity:1;fill-rule:nonzero;stroke:none"
             d="M 0,0 C 0,-1.105 0.895,-2 2,-2 3.105,-2 4,-1.105 4,0 4,1.105 3.105,2 2,2 0.895,2 0,1.105 0,0" /></g><g
           transform="translate(192.9874,122.5942)"
           id="g88"><path
             id="path90"
             style="fill:#808080;fill-opacity:1;fill-rule:nonzero;stroke:none"
             d="m 0,0 v -3.883 l 1.702,-0.016 c 0.659,0 1.147,0.072 1.464,0.217 0.316,0.145 0.562,0.377 0.74,0.696 0.177,0.318 0.265,0.674 0.265,1.068 0,0.383 -0.089,0.731 -0.269,1.044 -0.18,0.313 -0.415,0.537 -0.706,0.672 C 2.904,-0.067 2.419,0 1.743,0 Z m -0.987,1.118 h 1.968 c 1.097,0 1.84,-0.051 2.23,-0.155 0.586,-0.155 1.063,-0.489 1.43,-0.999 0.367,-0.512 0.551,-1.139 0.551,-1.886 0,-0.623 -0.126,-1.169 -0.379,-1.642 C 4.56,-4.035 4.198,-4.391 3.728,-4.633 3.258,-4.874 2.608,-4.997 1.78,-5.002 l 3.553,-5.305 H 4.112 L 0.559,-5.002 H 0 v -5.305 h -0.987 z" /></g><g
           transform="translate(204.0992,113.0796)"
           id="g92"><path
             id="path94"
             style="fill:#808080;fill-opacity:1;fill-rule:nonzero;stroke:none"
             d="M 0,0 C -1.258,0 -2.301,0.466 -3.127,1.398 -3.842,2.205 -4.229,3.196 -4.325,4.35 H 2.12 v 1.141 h -6.455 c 0.065,0.683 0.237,1.312 0.523,1.884 0.37,0.738 0.89,1.325 1.562,1.763 0.672,0.437 1.401,0.656 2.19,0.656 0.72,0 1.382,-0.167 1.984,-0.501 C 2.527,8.959 3.043,8.469 3.473,7.821 L 4.252,8.513 C 3.777,9.274 3.168,9.865 2.425,10.287 1.681,10.709 0.849,10.92 -0.074,10.92 -1.601,10.92 -2.871,10.35 -3.886,9.208 -4.9,8.066 -5.407,6.659 -5.407,4.986 c 0,-1.589 0.419,-2.946 1.256,-4.069 0.999,-1.331 2.362,-1.997 4.091,-1.997 0.909,0 1.731,0.198 2.468,0.595 0.737,0.396 1.351,0.956 1.844,1.681 L 3.473,1.88 C 2.541,0.627 1.384,0 0,0" /></g><g
           transform="translate(209.4816,123.7126)"
           id="g96"><path
             id="path98"
             style="fill:#808080;fill-opacity:1;fill-rule:nonzero;stroke:none"
             d="M 0,0 H 4.903 V -2.12 H 1.867 v -2.074 h 3.036 v -2.09 H 1.867 v -5.141 H 0 Z" /></g><g
           transform="translate(215.4159,123.7126)"
           id="g100"><path
             id="path102"
             style="fill:#808080;fill-opacity:1;fill-rule:nonzero;stroke:none"
             d="M 0,0 H 2.116 L 4.192,-3.669 6.273,0 H 8.387 L 5.251,-5.539 8.584,-11.425 H 6.468 l -2.273,4.017 -2.274,-4.017 h -2.129 l 3.341,5.89 z" /></g><path
           id="path104"
           style="fill:#808080;fill-opacity:1;fill-rule:nonzero;stroke:none"
           d="m 208.833,116.661 h -1.415 v 2.657 h 1.415 z" /><g
           transform="translate(51.8681,71.0419)"
           id="g106"><path
             id="path108"
             style="fill:#010101;fill-opacity:1;fill-rule:nonzero;stroke:none"
             d="m 0,0 c -0.219,-0.116 -0.485,-0.129 -0.73,-0.09 0.167,-0.368 0.235,-0.763 0.342,-1.147 0.122,-0.377 0.27,-0.834 0.717,-0.992 0.294,-0.122 0.63,-0.003 0.85,0.188 0.344,0.3 0.556,0.696 0.761,1.079 0.069,0.137 0.138,0.273 0.209,0.408 C 1.834,-0.555 1.525,-0.467 1.255,-0.325 0.99,-0.178 0.929,0.175 0.604,0.246 0.37,0.249 0.195,0.091 0,0 M 17.003,2.67 C 16.143,2.499 15.27,2.245 14.379,2.372 14.457,1.842 14.367,1.301 14.154,0.804 14.043,0.745 14.247,0.668 14.274,0.759 l 0.069,-0.035 c 0.073,-0.186 0.303,-0.255 0.502,-0.274 0.512,-0.045 1.023,0.056 1.51,0.193 -0.118,0.098 -0.273,0.191 -0.297,0.346 0.017,0.067 0.053,0.127 0.085,0.187 0.352,-0.012 0.701,-0.064 1.051,-0.101 0.477,0.321 0.777,0.868 0.732,1.407 C 17.921,2.627 17.812,2.773 17.644,2.793 17.424,2.821 17.202,2.747 17.003,2.67 M 19.717,3.532 19.705,3.513 C 19.255,3.391 18.826,3.218 18.38,3.084 18.482,2.497 18.35,1.879 18.033,1.359 17.896,1.28 18.182,1.237 18.125,1.358 c 0.032,10e-4 0.094,0.003 0.126,0.004 0.007,-0.107 0.148,-0.134 0.245,-0.128 0.381,0.028 0.742,0.169 1.074,0.334 -0.108,0.08 -0.237,0.15 -0.306,0.263 -0.047,0.08 0.013,0.163 0.035,0.241 0.273,-0.008 0.545,-0.033 0.815,-0.073 0.278,0.297 0.487,0.69 0.404,1.087 -0.046,0.193 -0.12,0.41 -0.318,0.518 -0.162,0.08 -0.332,-0.022 -0.483,-0.072 m 2.497,0.979 C 21.774,4.331 21.337,4.148 20.897,3.971 21.068,3.332 20.921,2.653 20.556,2.09 20.649,2.14 20.779,2.159 20.85,2.235 21,2.148 21.184,2.158 21.35,2.198 21.674,2.277 21.983,2.407 22.263,2.574 22.101,2.68 21.896,2.856 22.075,3.037 22.278,3.016 22.483,3 22.686,2.973 22.94,3.282 23.189,3.668 23.088,4.066 22.97,4.318 22.741,4.537 22.443,4.614 22.366,4.58 22.291,4.545 22.214,4.511 M 8.324,5.372 C 7.937,5.32 7.547,5.23 7.203,5.057 6.802,4.798 6.498,4.373 6.519,3.917 6.538,3.476 6.812,3.083 7.126,2.759 7.706,2.188 8.471,1.736 9.328,1.603 c 0.647,-0.09 1.341,-0.075 1.936,0.195 0.55,0.239 1.062,0.645 1.211,1.198 0.14,0.488 0.096,1.084 -0.338,1.446 C 11.616,4.878 10.943,5.155 10.249,5.28 9.619,5.401 8.965,5.453 8.324,5.372 M 24.477,5.607 C 24.104,5.405 23.723,5.214 23.339,5.028 c 0.179,-0.62 0.05,-1.283 -0.23,-1.863 0.114,0.07 0.224,0.146 0.328,0.229 0.182,-0.173 0.447,-0.026 0.632,0.07 0.846,0.471 1.062,1.53 0.758,2.333 -0.116,-0.065 -0.232,-0.128 -0.35,-0.19 M -6.688,6.37 C -7.138,6.135 -7.534,5.762 -7.638,5.291 -7.757,4.728 -7.51,4.124 -7.052,3.734 -6.761,3.477 -6.374,3.327 -5.976,3.26 l 0.002,-0.009 c 0.242,-0.015 0.492,-0.084 0.73,-0.026 0.831,0.021 1.647,0.302 2.311,0.747 0.497,0.342 0.93,0.843 0.934,1.429 C -1.98,5.691 -2.172,5.944 -2.377,6.15 -2.819,6.566 -3.46,6.753 -4.08,6.819 -4.971,6.902 -5.906,6.776 -6.688,6.37 M 26.193,6.701 C 26.01,6.566 25.828,6.428 25.635,6.305 25.889,5.903 25.788,5.42 25.716,4.987 c 0.072,0.078 0.145,0.157 0.218,0.235 0.007,-0.042 0.019,-0.126 0.026,-0.168 0.13,0.041 0.258,0.108 0.312,0.229 0.155,0.309 0.233,0.65 0.224,0.989 0.007,0.21 -0.079,0.413 -0.055,0.623 C 26.357,6.831 26.274,6.767 26.193,6.701 M 0.67,8.3 C 0.688,8.12 0.694,7.94 0.694,7.759 0.664,7.616 0.582,7.491 0.467,7.389 0.442,7.506 0.405,7.62 0.357,7.73 0.285,7.901 0.217,8.072 0.147,8.243 -1.287,8.074 -2.694,7.707 -4.002,7.151 -4.024,7.176 -4.067,7.227 -4.088,7.253 -4.188,7.202 -4.287,7.151 -4.386,7.1 -3.998,7.093 -3.612,7.041 -3.236,6.954 -2.921,6.871 -2.613,6.76 -2.335,6.602 l 0.009,0.004 C -2.169,6.499 -2.019,6.385 -1.883,6.257 -1.528,5.88 -1.471,5.334 -1.681,4.884 -2.063,4.04 -2.852,3.352 -3.803,3.035 -4.179,2.917 -4.573,2.846 -4.971,2.83 -5.42,2.815 -5.87,2.872 -6.297,2.997 -6.607,3.098 -6.895,3.244 -7.155,3.425 -7.116,3.028 -6.994,2.64 -6.797,2.284 -6.975,2.208 -7.212,2.023 -7.054,1.835 -6.842,1.634 -6.517,1.581 -6.227,1.53 c 0.774,-0.859 1.812,-1.492 2.899,-1.988 0.893,-0.407 1.833,-0.73 2.804,-0.951 -0.083,0.232 -0.144,0.471 -0.197,0.71 -0.047,0.214 -0.072,0.433 -0.137,0.644 -0.216,0.152 -0.382,0.354 -0.432,0.602 -0.008,0.166 0.017,0.336 0.114,0.48 -0.021,-0.182 -0.043,-0.367 0.009,-0.548 0.123,-0.247 0.386,-0.432 0.687,-0.462 0.176,-0.018 0.336,0.061 0.489,0.128 0.187,0.096 0.379,0.206 0.6,0.219 0.245,-0.012 0.354,-0.239 0.477,-0.396 h 0.006 c 0.244,-0.249 0.613,-0.431 0.989,-0.382 0.197,0.022 0.359,0.132 0.499,0.251 0.122,0.137 0.221,0.29 0.295,0.452 C 2.885,0.29 2.904,0.293 2.914,0.294 2.905,-0.064 2.625,-0.367 2.277,-0.514 2.244,-0.668 2.188,-0.817 2.137,-0.966 2,-1.21 1.856,-1.452 1.678,-1.676 c -0.079,-0.052 0.03,-0.063 0.067,-0.068 0.589,-0.049 1.18,-0.071 1.772,-0.087 1.482,-0.04 2.977,-0.02 4.439,0.235 1.019,0.179 2.02,0.453 2.966,0.842 0.74,0.315 1.456,0.721 1.98,1.297 0.469,0.536 0.68,1.27 0.473,1.936 -0.168,0.508 -0.432,0.987 -0.74,1.437 C 12.728,3.601 12.814,3.273 12.76,2.945 12.741,2.739 12.645,2.551 12.565,2.361 L 12.566,2.322 12.539,2.321 C 12.286,1.952 11.908,1.66 11.471,1.476 9.995,0.861 8.102,1.203 7.007,2.289 6.535,2.766 6.099,3.35 6.108,4.013 6.121,4.549 6.542,4.997 7.043,5.246 7.883,5.67 8.881,5.772 9.827,5.696 10.241,5.646 10.657,5.571 11.038,5.407 11.169,5.351 11.303,5.301 11.442,5.26 11.068,5.642 10.63,5.967 10.187,6.28 10.066,6.364 9.937,6.435 9.805,6.503 7.954,7.466 5.875,8.06 3.753,8.275 3.688,8.117 3.624,7.958 3.559,7.8 3.496,7.645 3.438,7.489 3.383,7.331 3.235,7.46 3.186,7.641 3.165,7.819 3.173,7.987 3.186,8.154 3.205,8.321 2.361,8.378 1.512,8.368 0.67,8.3 m -2.592,0.895 c -0.103,-0.198 0.265,-0.124 0.39,-0.115 0.426,0.013 0.847,0.075 1.27,0.113 -0.029,0.055 -0.06,0.108 -0.093,0.16 -0.023,0.061 -0.046,0.122 -0.07,0.182 C -0.438,9.56 -0.464,9.611 -0.478,9.636 -0.964,9.507 -1.464,9.394 -1.922,9.195 m 0.58,0.418 c 0.254,0.078 0.507,0.162 0.761,0.24 -0.028,0.057 -0.055,0.114 -0.082,0.17 -0.229,-0.132 -0.463,-0.261 -0.679,-0.41 m 5.89,0.498 C 4.537,10.077 4.514,10.009 4.503,9.975 L 4.492,9.976 C 4.469,9.928 4.446,9.88 4.423,9.832 4.398,9.774 4.373,9.715 4.348,9.656 4.328,9.614 4.309,9.572 4.29,9.53 4.255,9.45 4.22,9.369 4.185,9.289 6.007,9.147 7.824,8.775 9.472,8.047 11.53,7.161 13.266,5.719 14.489,3.992 14.562,3.9 14.697,3.712 14.83,3.839 15.001,4.165 14.94,4.545 14.904,4.893 14.81,5.64 14.26,6.252 13.695,6.769 12.82,7.538 11.782,8.138 10.694,8.632 8.781,9.482 6.679,9.993 4.548,10.111 M 0.184,9.801 C 0.191,9.774 0.205,9.72 0.212,9.693 L 0.225,9.695 C 0.254,9.62 0.284,9.546 0.314,9.47 0.34,9.397 0.366,9.323 0.393,9.249 1.413,9.331 2.44,9.362 3.464,9.323 3.499,9.426 3.533,9.527 3.567,9.629 3.604,9.732 3.642,9.834 3.68,9.936 h 0.007 c 0.026,0.071 0.051,0.141 0.078,0.211 -1.204,0 -2.406,-0.108 -3.581,-0.346 m -0.265,0.562 c 0.023,-0.051 0.048,-0.101 0.072,-0.151 0.028,-0.061 0.056,-0.122 0.084,-0.183 1.254,0.312 2.551,0.484 3.853,0.503 0.056,0.123 0.112,0.247 0.168,0.37 0.079,0.167 0.159,0.334 0.239,0.501 0.131,0.263 0.276,0.522 0.405,0.787 0.134,0.198 0.23,0.418 0.359,0.62 -1.803,-0.675 -3.531,-1.508 -5.18,-2.447 m 15.105,2.832 c -1.389,-0.26 -2.753,-0.66 -4.012,-1.255 -0.61,-0.3 -1.22,-0.636 -1.671,-1.122 -0.183,-0.201 -0.34,-0.461 -0.274,-0.729 0.072,-0.25 0.326,-0.415 0.581,-0.506 1.21,-0.428 2.36,-0.999 3.396,-1.706 0.778,-0.539 1.507,-1.152 2.056,-1.89 0.302,-0.42 0.584,-0.894 0.566,-1.409 10e-4,-0.209 -0.127,-0.388 -0.222,-0.57 0.443,0.071 0.862,0.223 1.283,0.359 1.583,0.534 3.138,1.132 4.677,1.758 1.077,0.447 2.156,0.897 3.179,1.441 0.248,0.127 0.491,0.284 0.633,0.514 0.233,0.349 0.232,0.782 0.144,1.171 -0.2,0.772 -0.722,1.439 -1.309,2.015 -0.716,0.69 -1.571,1.26 -2.489,1.714 -0.571,0.206 -1.179,0.317 -1.785,0.4 -1.58,0.205 -3.193,0.099 -4.753,-0.185 M 6.562,13.318 C 6.431,13.272 6.286,13.247 6.17,13.174 6.061,13.02 5.976,12.854 5.883,12.692 5.63,12.265 5.403,11.825 5.174,11.387 5.1,11.243 5.028,11.099 4.959,10.953 H 4.949 C 4.884,10.808 4.817,10.665 4.748,10.522 c 0.44,-0.021 0.884,-0.06 1.322,0.002 0.336,0.042 0.659,0.142 0.97,0.257 2.304,0.881 4.614,1.764 7.008,2.427 1.491,0.413 3.021,0.736 4.579,0.844 -0.144,0.037 -0.287,0.083 -0.436,0.101 -0.685,0.165 -1.388,0.266 -2.092,0.336 -3.226,0.304 -6.495,-0.202 -9.537,-1.171 m -18.712,3 c -0.297,-0.143 -0.53,-0.39 -0.63,-0.681 -0.079,-0.194 -0.093,-0.407 -0.048,-0.609 0.024,-0.092 0.055,-0.185 0.105,-0.269 0.236,-0.524 0.933,-0.811 1.534,-0.686 0.546,0.092 1.001,0.516 1.071,1.014 0.065,0.385 -0.096,0.793 -0.417,1.054 -0.423,0.363 -1.108,0.431 -1.615,0.177 m 27.783,1.198 c -0.282,-0.64 -0.121,-1.453 0.483,-1.9 0.325,-0.245 0.781,-0.35 1.194,-0.253 0.506,0.113 0.913,0.487 1.08,0.925 0.045,0.103 0.078,0.212 0.094,0.323 0.053,0.254 0.042,0.521 -0.047,0.766 -0.139,0.585 -0.741,1.083 -1.422,1.067 -0.626,0.004 -1.169,-0.418 -1.382,-0.928 M 9.795,17.491 c -1.388,-1.073 -2.447,-2.444 -3.35,-3.865 3.155,0.971 6.514,1.466 9.849,1.271 -0.627,0.242 -1.155,0.703 -1.393,1.283 -0.175,0.422 -0.158,0.912 0.085,1.31 0.27,0.448 0.744,0.767 1.247,0.982 0.038,0.01 0.146,0.07 0.049,0.088 -0.849,0.308 -1.77,0.479 -2.689,0.428 -1.417,-0.066 -2.736,-0.677 -3.798,-1.497 m 4.633,2.374 h 0.971 c 0.945,-0.063 1.961,-0.236 2.676,-0.84 0.543,-0.445 0.755,-1.134 0.708,-1.778 -0.046,-0.672 -0.184,-1.377 -0.644,-1.927 -0.203,-0.25 -0.508,-0.409 -0.829,-0.509 2.029,-0.202 4.04,-0.677 5.865,-1.509 0.986,-0.453 1.918,-1.018 2.695,-1.732 0.651,-0.609 1.202,-1.343 1.394,-2.182 C 27.379,8.911 27.345,8.411 27.179,7.947 27.517,7.203 27.445,6.357 27.17,5.606 26.927,4.932 26.462,4.307 25.796,3.917 25.607,3.803 25.372,3.812 25.156,3.834 24.842,3.411 24.462,3.029 24.024,2.706 24.928,2.457 25.801,2.091 26.551,1.568 27.133,1.161 27.638,0.64 27.908,0.016 c 0.126,-0.287 0.186,-0.592 0.224,-0.898 v -0.364 c -0.028,-0.178 -0.065,-0.368 -0.197,-0.512 -0.149,-0.165 -0.459,-0.203 -0.637,-0.056 -0.085,0.078 -0.056,0.196 -0.06,0.294 0.046,0.374 -0.142,0.721 -0.262,1.069 C 26.722,0.232 26.267,0.867 25.602,1.28 24.96,1.725 24.149,1.867 23.41,2.129 23.123,2.25 22.794,2.217 22.504,2.328 22.258,2.076 21.98,1.851 21.676,1.657 22.672,1.345 23.639,0.914 24.43,0.276 c 0.685,-0.545 1.217,-1.282 1.341,-2.11 0.049,-0.381 0.101,-0.805 -0.117,-1.155 -0.145,-0.238 -0.596,-0.311 -0.772,-0.067 -0.081,0.217 0.028,0.454 -0.049,0.675 -0.198,0.611 -0.414,1.233 -0.822,1.761 -0.377,0.496 -0.915,0.88 -1.505,1.153 C 22.061,0.718 21.59,0.843 21.13,0.991 20.868,1.069 20.608,1.194 20.323,1.163 20.144,1.148 19.977,1.212 19.819,1.276 19.54,1.049 19.223,0.865 18.9,0.693 c 0.197,-0.097 0.417,-0.146 0.622,-0.226 0.921,-0.346 1.807,-0.795 2.541,-1.41 0.682,-0.564 1.227,-1.295 1.411,-2.122 0.096,-0.456 0.163,-0.943 -0.006,-1.392 -0.07,-0.197 -0.25,-0.352 -0.475,-0.4 h -0.198 c -0.125,0.036 -0.275,0.082 -0.308,0.211 -0.061,0.239 0.048,0.488 -0.035,0.725 -0.247,0.759 -0.519,1.536 -1.063,2.169 -0.442,0.519 -1.04,0.921 -1.689,1.206 -0.902,0.336 -1.848,0.564 -2.744,0.913 -0.779,-0.436 -1.723,-0.488 -2.615,-0.481 -0.236,-0.006 -0.469,0.039 -0.689,0.112 -0.626,-0.668 -1.456,-1.16 -2.329,-1.53 C 10.501,-1.868 9.638,-2.122 8.761,-2.315 7.38,-2.61 5.957,-2.699 4.541,-2.703 c -1.446,0.028 -2.9,0.055 -4.327,0.287 -1.717,0.262 -3.362,0.846 -4.862,1.636 -0.119,-0.354 -0.207,-0.716 -0.292,-1.078 -0.058,-0.244 0.019,-0.495 -0.031,-0.739 -0.038,-0.201 -0.336,-0.271 -0.499,-0.142 -0.219,0.17 -0.251,0.452 -0.281,0.695 -0.04,0.6 0.057,1.205 0.253,1.778 -0.42,0.288 -0.823,0.6 -1.174,0.956 -0.368,-0.323 -0.667,-0.71 -0.876,-1.133 -0.29,-0.584 -0.448,-1.212 -0.597,-1.835 -0.062,-0.256 0.018,-0.519 -0.039,-0.775 -0.05,-0.212 -0.389,-0.249 -0.535,-0.095 -0.199,0.203 -0.226,0.491 -0.246,0.749 -0.025,0.785 0.14,1.582 0.537,2.285 0.296,0.534 0.716,1.009 1.2,1.414 -0.614,0.729 -0.938,1.648 -0.876,2.562 0.013,0.296 0.086,0.585 0.151,0.874 0.189,0.398 0.303,0.822 0.535,1.204 0.21,0.233 0.359,0.531 0.659,0.683 0.344,0.098 0.548,0.389 0.832,0.573 0.342,0.218 0.678,0.445 1.044,0.632 0.224,0.12 0.468,0.215 0.672,0.363 1.078,0.783 2.199,1.52 3.363,2.196 -0.488,0.937 -1.03,1.855 -1.672,2.714 -0.693,0.925 -1.499,1.797 -2.489,2.478 -0.896,0.623 -1.963,1.065 -3.093,1.184 -0.908,0.102 -1.835,-0.008 -2.705,-0.25 0.456,-0.188 0.921,-0.433 1.184,-0.832 0.235,-0.347 0.201,-0.805 -0.035,-1.143 -0.339,-0.497 -0.95,-0.825 -1.588,-0.901 -0.468,-0.06 -0.975,0.075 -1.293,0.397 -0.354,0.352 -0.477,0.833 -0.532,1.291 v 0.534 c 0.072,0.43 0.317,0.842 0.718,1.093 0.697,0.45 1.586,0.54 2.419,0.565 1.027,0.002 2.059,-0.119 3.043,-0.388 1.375,-0.405 2.519,-1.258 3.5,-2.192 1.282,-1.244 2.308,-2.688 3.127,-4.212 1.791,0.999 3.674,1.869 5.641,2.548 1.124,1.783 2.444,3.502 4.173,4.855 0.716,0.551 1.511,1.037 2.402,1.326 0.797,0.248 1.638,0.354 2.476,0.411" /></g><g
           transform="translate(78.3092,77.9373)"
           id="g110"><path
             id="path112"
             style="fill:#bfbfbf;fill-opacity:1;fill-rule:nonzero;stroke:none"
             d="m 0,0 c -0.084,-0.064 -0.167,-0.128 -0.248,-0.194 -0.183,-0.136 -0.365,-0.273 -0.558,-0.396 0.254,-0.402 0.153,-0.885 0.081,-1.318 0.072,0.077 0.145,0.156 0.218,0.234 0.007,-0.042 0.019,-0.125 0.026,-0.167 0.13,0.04 0.258,0.108 0.312,0.228 0.155,0.309 0.233,0.651 0.224,0.99 C 0.062,-0.413 -0.024,-0.21 0,0" /></g><g
           transform="translate(76.3453,76.6489)"
           id="g114"><path
             id="path116"
             style="fill:#bfbfbf;fill-opacity:1;fill-rule:nonzero;stroke:none"
             d="m 0,0 c -0.373,-0.202 -0.754,-0.393 -1.138,-0.579 0.179,-0.62 0.05,-1.283 -0.23,-1.863 0.114,0.07 0.224,0.146 0.327,0.229 0.183,-0.173 0.448,-0.026 0.632,0.07 0.847,0.471 1.063,1.53 0.758,2.333 C 0.234,0.125 0.117,0.062 0,0" /></g><g
           transform="translate(74.5542,74.0147)"
           id="g118"><path
             id="path120"
             style="fill:#bfbfbf;fill-opacity:1;fill-rule:nonzero;stroke:none"
             d="M 0,0 C 0.254,0.309 0.503,0.695 0.402,1.093 0.284,1.345 0.055,1.564 -0.243,1.641 -0.32,1.607 -0.395,1.572 -0.472,1.538 -0.912,1.359 -1.349,1.176 -1.789,0.999 c 0.171,-0.64 0.024,-1.319 -0.341,-1.882 0.093,0.051 0.223,0.07 0.294,0.145 0.15,-0.087 0.334,-0.076 0.5,-0.037 0.324,0.08 0.633,0.209 0.913,0.376 -0.162,0.107 -0.367,0.283 -0.188,0.463 C -0.408,0.044 -0.203,0.027 0,0" /></g><g
           transform="translate(72.0678,74.6461)"
           id="g122"><path
             id="path124"
             style="fill:#bfbfbf;fill-opacity:1;fill-rule:nonzero;stroke:none"
             d="m 0,0 c -0.161,0.079 -0.331,-0.023 -0.483,-0.072 l -0.012,-0.019 c -0.449,-0.122 -0.879,-0.295 -1.325,-0.429 0.102,-0.587 -0.029,-1.205 -0.346,-1.725 0.023,0 0.068,-10e-4 0.091,-10e-4 0.032,10e-4 0.095,0.003 0.126,0.004 0.007,-0.107 0.149,-0.134 0.245,-0.128 0.382,0.028 0.742,0.169 1.075,0.334 -0.108,0.08 -0.237,0.15 -0.306,0.263 -0.047,0.08 0.012,0.163 0.035,0.24 0.273,-0.007 0.544,-0.032 0.814,-0.072 0.279,0.297 0.487,0.69 0.404,1.087 C 0.272,-0.325 0.198,-0.108 0,0" /></g><g
           transform="translate(69.5124,73.8347)"
           id="g126"><path
             id="path128"
             style="fill:#bfbfbf;fill-opacity:1;fill-rule:nonzero;stroke:none"
             d="M 0,0 C -0.221,0.029 -0.442,-0.046 -0.642,-0.123 -1.501,-0.293 -2.375,-0.547 -3.265,-0.421 -3.187,-0.95 -3.277,-1.492 -3.49,-1.989 -3.46,-2 -3.4,-2.022 -3.37,-2.034 l 0.069,-0.035 c 0.073,-0.186 0.302,-0.255 0.502,-0.274 0.511,-0.045 1.023,0.057 1.509,0.193 -0.117,0.098 -0.273,0.192 -0.296,0.347 0.017,0.066 0.052,0.126 0.084,0.186 0.353,-0.012 0.702,-0.064 1.052,-0.101 0.477,0.321 0.777,0.869 0.732,1.408 C 0.276,-0.166 0.168,-0.019 0,0" /></g><g
           transform="translate(45.788,77.3829)"
           id="g130"><path
             id="path132"
             style="fill:#ffffff;fill-opacity:1;fill-rule:nonzero;stroke:none"
             d="M 0,0 C 0.749,0.315 1.642,0.26 2.387,-0.038 2.859,-0.227 3.31,-0.532 3.492,-0.982 3.178,-0.789 2.882,-0.569 2.541,-0.415 1.878,-0.095 1.078,0.041 0.35,-0.176 0.7,-0.193 1.054,-0.355 1.175,-0.667 1.21,-0.792 1.227,-0.922 1.233,-1.051 1.161,-1.337 0.929,-1.57 0.622,-1.664 c -0.237,-0.02 -0.497,-0.011 -0.694,0.125 -0.204,0.119 -0.306,0.33 -0.353,0.538 -0.001,0.213 0.091,0.412 0.211,0.591 C -0.618,-0.641 -0.935,-0.965 -1.21,-1.313 -1.02,-0.756 -0.594,-0.25 0,0" /></g><g
           transform="translate(60.5589,76.2273)"
           id="g134"><path
             id="path136"
             style="fill:#ffffff;fill-opacity:1;fill-rule:nonzero;stroke:none"
             d="m 0,0 c 0.895,0.153 1.83,-0.094 2.572,-0.549 0.451,-0.282 0.873,-0.674 0.964,-1.18 -0.548,0.562 -1.192,1.08 -1.987,1.332 -0.374,0.121 -0.774,0.169 -1.171,0.157 0.264,-0.187 0.423,-0.511 0.28,-0.805 -0.027,-0.053 -0.056,-0.105 -0.086,-0.157 -0.179,-0.2 -0.47,-0.261 -0.743,-0.233 -0.156,0.029 -0.283,0.123 -0.394,0.22 -0.202,0.217 -0.176,0.521 -0.065,0.769 C -0.988,-0.59 -1.303,-0.798 -1.605,-1.02 -1.265,-0.494 -0.666,-0.11 0,0" /></g><g
           transform="translate(67.984,86.6581)"
           id="g138"><path
             id="path140"
             style="fill:#bfbfbf;fill-opacity:1;fill-rule:nonzero;stroke:none"
             d="M 0,0 C 0.325,-0.246 0.781,-0.35 1.194,-0.253 1.7,-0.141 2.107,0.233 2.274,0.671 2.319,0.775 2.352,0.884 2.368,0.995 2.421,1.248 2.411,1.516 2.321,1.761 2.182,2.345 1.58,2.843 0.899,2.828 0.274,2.832 -0.27,2.41 -0.483,1.9 -0.765,1.26 -0.604,0.447 0,0" /></g><g
           transform="translate(41.3327,87.1833)"
           id="g142"><path
             id="path144"
             style="fill:#bfbfbf;fill-opacity:1;fill-rule:nonzero;stroke:none"
             d="m 0,0 c -0.422,0.362 -1.107,0.43 -1.614,0.176 -0.298,-0.142 -0.53,-0.39 -0.63,-0.681 -0.079,-0.193 -0.094,-0.406 -0.049,-0.608 0.025,-0.093 0.055,-0.186 0.106,-0.27 0.236,-0.523 0.932,-0.81 1.533,-0.686 0.546,0.093 1.002,0.517 1.071,1.014 C 0.482,-0.669 0.322,-0.261 0,0" /></g><g
           transform="translate(56.8176,81.9949)"
           id="g146"><path
             id="path148"
             style="fill:#bfbfbf;fill-opacity:1;fill-rule:nonzero;stroke:none"
             d="m 0,0 c -0.065,-0.145 -0.133,-0.288 -0.202,-0.431 0.441,-0.021 0.885,-0.06 1.323,0.002 0.336,0.042 0.658,0.142 0.97,0.257 2.303,0.881 4.613,1.764 7.008,2.427 1.491,0.413 3.02,0.736 4.579,0.844 C 13.534,3.136 13.391,3.183 13.242,3.2 12.556,3.365 11.854,3.466 11.149,3.536 7.923,3.84 4.655,3.334 1.612,2.365 1.481,2.319 1.337,2.294 1.221,2.221 1.112,2.067 1.027,1.901 0.934,1.739 0.68,1.312 0.454,0.872 0.225,0.434 0.151,0.29 0.078,0.146 0.009,0 Z" /></g><g
           transform="translate(77.2281,80.2926)"
           id="g150"><path
             id="path152"
             style="fill:#bfbfbf;fill-opacity:1;fill-rule:nonzero;stroke:none"
             d="m 0,0 c -0.2,0.772 -0.721,1.44 -1.308,2.015 -0.717,0.691 -1.572,1.261 -2.49,1.714 -0.571,0.206 -1.179,0.317 -1.785,0.401 -1.58,0.204 -3.193,0.099 -4.752,-0.185 -1.39,-0.261 -2.754,-0.661 -4.013,-1.255 -0.61,-0.3 -1.22,-0.637 -1.671,-1.123 -0.183,-0.201 -0.34,-0.46 -0.274,-0.728 0.072,-0.251 0.327,-0.415 0.581,-0.506 1.21,-0.429 2.36,-0.999 3.396,-1.707 0.778,-0.539 1.507,-1.152 2.056,-1.89 0.302,-0.42 0.584,-0.894 0.566,-1.409 0.001,-0.209 -0.127,-0.387 -0.221,-0.569 0.442,0.07 0.861,0.223 1.282,0.358 1.583,0.534 3.138,1.132 4.677,1.758 1.078,0.447 2.156,0.897 3.179,1.441 0.248,0.128 0.491,0.284 0.633,0.514 C 0.089,-0.821 0.088,-0.389 0,0" /></g><g
           transform="translate(51.9428,81.0706)"
           id="g154"><path
             id="path156"
             style="fill:#bfbfbf;fill-opacity:1;fill-rule:nonzero;stroke:none"
             d="M 0,0 C 1.254,0.312 2.551,0.485 3.853,0.504 3.909,0.627 3.965,0.75 4.021,0.873 4.1,1.041 4.181,1.207 4.26,1.374 4.392,1.638 4.536,1.896 4.665,2.161 4.799,2.359 4.895,2.579 5.024,2.781 3.221,2.106 1.494,1.273 -0.156,0.334 -0.132,0.284 -0.108,0.233 -0.083,0.183 -0.056,0.122 -0.028,0.061 0,0" /></g><g
           transform="translate(52.0932,80.7372)"
           id="g158"><path
             id="path160"
             style="fill:#bfbfbf;fill-opacity:1;fill-rule:nonzero;stroke:none"
             d="m 0,0 c 0.029,-0.075 0.059,-0.15 0.089,-0.225 0.026,-0.074 0.052,-0.147 0.079,-0.221 1.02,0.082 2.047,0.113 3.071,0.074 0.034,0.102 0.069,0.204 0.103,0.306 0.037,0.102 0.075,0.204 0.113,0.307 h 0.007 c 0.026,0.07 0.051,0.141 0.078,0.211 -1.204,0 -2.407,-0.108 -3.581,-0.346 0.007,-0.028 0.021,-0.081 0.028,-0.109 z" /></g><g
           transform="translate(65.5631,77.8112)"
           id="g162"><path
             id="path164"
             style="fill:#bfbfbf;fill-opacity:1;fill-rule:nonzero;stroke:none"
             d="M 0,0 C -0.875,0.768 -1.913,1.369 -3.001,1.862 -4.914,2.713 -7.016,3.224 -9.147,3.342 -9.158,3.308 -9.181,3.239 -9.192,3.206 L -9.203,3.207 C -9.226,3.159 -9.249,3.111 -9.271,3.063 -9.297,3.005 -9.322,2.946 -9.347,2.887 -9.367,2.845 -9.386,2.803 -9.405,2.76 -9.44,2.68 -9.475,2.6 -9.51,2.52 c 1.822,-0.142 3.639,-0.515 5.287,-1.242 2.058,-0.886 3.794,-2.328 5.017,-4.055 0.073,-0.092 0.208,-0.28 0.341,-0.154 0.171,0.327 0.11,0.707 0.074,1.055 C 1.115,-1.129 0.565,-0.518 0,0" /></g><g
           transform="translate(51.2054,81.0645)"
           id="g166"><path
             id="path168"
             style="fill:#bfbfbf;fill-opacity:1;fill-rule:nonzero;stroke:none"
             d="m 0,0 c -0.23,-0.132 -0.463,-0.261 -0.679,-0.41 0.254,0.078 0.506,0.162 0.76,0.241 C 0.054,-0.112 0.027,-0.056 0,0" /></g><g
           transform="translate(45.1087,77.665)"
           id="g170"><path
             id="path172"
             style="fill:#bfbfbf;fill-opacity:1;fill-rule:nonzero;stroke:none"
             d="M 0,0 C 0.344,0.098 0.549,0.389 0.832,0.573 0.536,0.405 0.271,0.199 0,0" /></g><g
           transform="translate(44.4505,76.9818)"
           id="g174"><path
             id="path176"
             style="fill:#bfbfbf;fill-opacity:1;fill-rule:nonzero;stroke:none"
             d="M 0,0 C -0.287,-0.352 -0.488,-0.767 -0.536,-1.204 -0.346,-0.806 -0.233,-0.382 0,0" /></g><g
           transform="translate(61.9147,70.8055)"
           id="g178"><path
             id="path180"
             style="fill:#bfbfbf;fill-opacity:1;fill-rule:nonzero;stroke:none"
             d="m 0,0 c -0.749,0.028 -1.488,0.187 -2.191,0.419 -0.381,0.132 -0.765,0.28 -1.085,0.513 -0.107,0.087 -0.242,0.203 -0.203,0.346 0.097,0.145 0.302,0.168 0.471,0.185 C -2.428,1.5 -1.85,1.402 -1.291,1.275 -0.702,1.131 -0.113,0.951 0.403,0.653 0.575,0.562 0.703,0.422 0.813,0.274 0.682,-0.018 0.287,0.016 0,0 M 2.588,4.152 C 2.681,3.837 2.768,3.51 2.713,3.182 2.694,2.976 2.598,2.788 2.518,2.598 L 2.519,2.558 H 2.493 C 2.239,2.188 1.861,1.896 1.425,1.713 -0.052,1.097 -1.945,1.44 -3.04,2.525 -3.512,3.002 -3.948,3.587 -3.938,4.25 c 0.012,0.535 0.434,0.984 0.934,1.233 0.84,0.423 1.838,0.526 2.785,0.45 C 0.195,5.882 0.611,5.807 0.991,5.644 1.122,5.588 1.257,5.538 1.395,5.497 1.021,5.878 0.584,6.203 0.141,6.517 0.02,6.6 -0.11,6.671 -0.241,6.739 -2.092,7.702 -4.172,8.296 -6.293,8.512 -6.358,8.353 -6.423,8.195 -6.488,8.036 -6.55,7.881 -6.609,7.725 -6.664,7.567 -6.812,7.696 -6.86,7.878 -6.882,8.055 c 0.008,0.168 0.022,0.335 0.041,0.503 -0.844,0.056 -1.693,0.047 -2.536,-0.022 0.018,-0.179 0.025,-0.36 0.025,-0.54 -0.031,-0.144 -0.113,-0.269 -0.227,-0.37 -0.026,0.116 -0.063,0.23 -0.11,0.341 -0.073,0.17 -0.14,0.341 -0.211,0.513 -1.434,-0.17 -2.84,-0.536 -4.149,-1.092 -0.021,0.025 -0.064,0.076 -0.086,0.101 -0.099,-0.051 -0.198,-0.102 -0.297,-0.153 0.388,-0.007 0.774,-0.058 1.149,-0.145 0.316,-0.084 0.624,-0.194 0.902,-0.353 l 0.009,0.004 c 0.156,-0.106 0.306,-0.22 0.442,-0.348 0.355,-0.378 0.412,-0.924 0.202,-1.373 -0.382,-0.844 -1.171,-1.533 -2.121,-1.849 -0.377,-0.119 -0.77,-0.189 -1.169,-0.205 -0.449,-0.016 -0.899,0.042 -1.326,0.167 -0.309,0.101 -0.598,0.246 -0.858,0.427 0.039,-0.396 0.162,-0.784 0.358,-1.141 0.231,0.102 0.482,0.161 0.733,0.205 0.422,0.068 0.853,0.08 1.28,0.059 0.329,-0.027 0.666,-0.069 0.965,-0.203 0.115,-0.055 0.247,-0.14 0.25,-0.269 -0.016,-0.169 -0.201,-0.257 -0.346,-0.333 -0.389,-0.153 -0.812,-0.211 -1.231,-0.25 -0.361,-0.008 -0.723,-0.01 -1.08,0.038 0.773,-0.859 1.811,-1.492 2.898,-1.989 0.893,-0.407 1.833,-0.729 2.804,-0.951 -0.083,0.233 -0.143,0.471 -0.196,0.711 -0.048,0.214 -0.073,0.433 -0.138,0.643 -0.215,0.153 -0.382,0.354 -0.431,0.602 -0.009,0.167 0.016,0.336 0.114,0.48 -0.022,-0.182 -0.044,-0.367 0.008,-0.548 0.123,-0.246 0.386,-0.431 0.687,-0.462 0.176,-0.018 0.337,0.061 0.489,0.129 0.188,0.096 0.38,0.206 0.601,0.219 0.245,-0.013 0.353,-0.239 0.477,-0.396 l 0.005,-0.001 c 0.244,-0.248 0.613,-0.43 0.99,-0.382 0.196,0.023 0.359,0.133 0.498,0.252 0.122,0.137 0.221,0.289 0.296,0.451 0.009,0.001 0.029,0.004 0.038,0.005 -0.008,-0.357 -0.289,-0.66 -0.637,-0.808 -0.033,-0.154 -0.089,-0.302 -0.14,-0.451 -0.137,-0.245 -0.281,-0.487 -0.458,-0.71 -0.08,-0.053 0.029,-0.064 0.066,-0.068 0.589,-0.049 1.181,-0.072 1.772,-0.087 1.483,-0.041 2.978,-0.021 4.439,0.234 1.019,0.179 2.021,0.454 2.966,0.842 0.74,0.316 1.457,0.721 1.98,1.298 0.47,0.536 0.68,1.27 0.473,1.935 C 3.16,3.223 2.896,3.702 2.588,4.152" /></g><g
           transform="translate(50.3363,80.1218)"
           id="g182"><path
             id="path184"
             style="fill:#bfbfbf;fill-opacity:1;fill-rule:nonzero;stroke:none"
             d="M 0,0 C 0.426,0.013 0.847,0.075 1.27,0.113 1.241,0.168 1.21,0.221 1.177,0.273 1.154,0.334 1.131,0.395 1.107,0.455 1.094,0.481 1.067,0.531 1.054,0.556 0.568,0.427 0.068,0.314 -0.39,0.115 -0.494,-0.083 -0.125,-0.009 0,0" /></g><g
           transform="translate(48.3286,76.968)"
           id="g186"><path
             id="path188"
             style="fill:#bfbfbf;fill-opacity:1;fill-rule:nonzero;stroke:none"
             d="m 0,0 c -0.663,0.32 -1.462,0.456 -2.19,0.238 0.35,-0.016 0.703,-0.178 0.824,-0.49 0.035,-0.126 0.052,-0.255 0.058,-0.385 -0.071,-0.285 -0.303,-0.518 -0.611,-0.612 -0.237,-0.02 -0.496,-0.011 -0.693,0.125 -0.204,0.119 -0.307,0.33 -0.354,0.538 -10e-4,0.213 0.091,0.412 0.211,0.591 -0.404,-0.231 -0.721,-0.555 -0.996,-0.903 0.191,0.557 0.617,1.063 1.21,1.313 0.75,0.315 1.643,0.259 2.388,-0.039 C 0.318,0.188 0.769,-0.117 0.952,-0.567 0.638,-0.374 0.342,-0.154 0,0 M -0.541,0.893 C -1.431,0.976 -2.367,0.85 -3.149,0.444 -3.598,0.209 -3.995,-0.164 -4.098,-0.635 c -0.119,-0.563 0.128,-1.167 0.585,-1.557 0.291,-0.257 0.679,-0.407 1.076,-0.474 l 0.003,-0.009 c 0.241,-0.015 0.491,-0.084 0.729,-0.026 0.832,0.021 1.647,0.302 2.312,0.747 0.496,0.342 0.929,0.843 0.933,1.429 C 1.559,-0.235 1.367,0.018 1.163,0.224 0.72,0.64 0.08,0.827 -0.541,0.893" /></g><g
           transform="translate(62.1079,75.8304)"
           id="g190"><path
             id="path192"
             style="fill:#bfbfbf;fill-opacity:1;fill-rule:nonzero;stroke:none"
             d="m 0,0 c -0.374,0.121 -0.774,0.169 -1.171,0.157 0.264,-0.187 0.423,-0.511 0.28,-0.805 -0.027,-0.053 -0.056,-0.105 -0.086,-0.157 -0.179,-0.2 -0.47,-0.261 -0.743,-0.233 -0.156,0.029 -0.283,0.123 -0.394,0.22 -0.202,0.217 -0.176,0.521 -0.065,0.769 -0.358,-0.144 -0.673,-0.352 -0.975,-0.574 0.34,0.526 0.939,0.91 1.605,1.02 C -0.654,0.55 0.281,0.303 1.023,-0.152 1.474,-0.434 1.896,-0.826 1.987,-1.333 1.44,-0.77 0.795,-0.252 0,0 M 1.897,-0.347 C 1.376,0.09 0.703,0.366 0.009,0.491 -0.621,0.613 -1.274,0.665 -1.915,0.584 -2.303,0.531 -2.693,0.442 -3.037,0.268 -3.438,0.01 -3.741,-0.415 -3.721,-0.871 c 0.02,-0.441 0.293,-0.834 0.607,-1.158 0.58,-0.571 1.346,-1.023 2.203,-1.157 0.647,-0.089 1.34,-0.074 1.935,0.196 0.551,0.239 1.062,0.645 1.212,1.197 0.139,0.489 0.095,1.085 -0.339,1.446" /></g><g
           transform="translate(45.804,73.5305)"
           id="g194"><path
             id="path196"
             style="fill:#808080;fill-opacity:1;fill-rule:nonzero;stroke:none"
             d="M 0,0 C 0.422,0.068 0.853,0.08 1.28,0.059 1.609,0.032 1.946,-0.01 2.245,-0.144 2.36,-0.199 2.492,-0.284 2.494,-0.413 2.479,-0.582 2.293,-0.67 2.149,-0.746 1.76,-0.899 1.337,-0.957 0.918,-0.996 c -0.361,-0.008 -0.723,-0.01 -1.08,0.038 -0.291,0.051 -0.616,0.103 -0.828,0.304 -0.158,0.189 0.079,0.373 0.257,0.449 C -0.502,-0.103 -0.251,-0.044 0,0" /></g><g
           transform="translate(58.4361,72.0836)"
           id="g198"><path
             id="path200"
             style="fill:#808080;fill-opacity:1;fill-rule:nonzero;stroke:none"
             d="M 0,0 C 0.096,0.145 0.301,0.168 0.471,0.185 1.05,0.222 1.628,0.124 2.188,-0.004 2.777,-0.147 3.365,-0.327 3.882,-0.625 4.054,-0.717 4.182,-0.857 4.291,-1.004 4.16,-1.296 3.765,-1.262 3.479,-1.278 2.729,-1.25 1.991,-1.091 1.288,-0.86 0.907,-0.727 0.523,-0.58 0.203,-0.346 0.095,-0.259 -0.039,-0.144 0,0" /></g><g
           id="g202"><g
             id="g204" /><g
             id="g216"><g
               style="opacity:0.53999299"
               id="g214"
               clip-path="url(#clipPath208)"><g
                 id="g212"
                 transform="translate(69.9928,72.4001)"><path
                   id="path210"
                   style="fill:#1c2316;fill-opacity:1;fill-rule:nonzero;stroke:none"
                   d="M 0,0 C 0.058,-0.121 -0.229,-0.078 -0.091,0.001 -0.068,0.001 -0.023,0 0,0" /></g></g></g></g><g
           id="g218"><g
             id="g220" /><g
             id="g232"><g
               style="opacity:0.38999903"
               id="g230"
               clip-path="url(#clipPath224)"><g
                 id="g228"
                 transform="translate(66.1421,71.801)"><path
                   id="path226"
                   style="fill:#2a381d;fill-opacity:1;fill-rule:nonzero;stroke:none"
                   d="M 0,0 C -0.027,-0.091 -0.231,-0.014 -0.12,0.045 -0.089,0.033 -0.03,0.011 0,0" /></g></g></g></g><g
           transform="translate(53.123,70.7173)"
           id="g234"><path
             id="path236"
             style="fill:#808080;fill-opacity:1;fill-rule:nonzero;stroke:none"
             d="M 0,0 C -0.264,0.147 -0.325,0.5 -0.651,0.57 -0.884,0.573 -1.06,0.415 -1.255,0.325 -1.474,0.208 -1.74,0.196 -1.985,0.235 c 0.167,-0.368 0.235,-0.763 0.342,-1.147 0.122,-0.377 0.27,-0.834 0.717,-0.992 0.294,-0.122 0.63,-0.003 0.85,0.188 0.344,0.299 0.556,0.695 0.761,1.079 0.07,0.136 0.138,0.272 0.209,0.408 C 0.579,-0.231 0.27,-0.142 0,0" /></g></g></g></g></svg>