<?xml version="1.0" encoding="UTF-8" standalone="no"?>
<svg
   xmlns:dc="http://purl.org/dc/elements/1.1/"
   xmlns:cc="http://creativecommons.org/ns#"
   xmlns:rdf="http://www.w3.org/1999/02/22-rdf-syntax-ns#"
   xmlns:svg="http://www.w3.org/2000/svg"
   xmlns="http://www.w3.org/2000/svg"
   viewBox="0 0 341.33334 341.33334"
   height="256"
   width="256"
   xml:space="preserve"
   id="svg2"
   version="1.1"><metadata
     id="metadata8"><rdf:RDF><cc:Work
         rdf:about=""><dc:format>image/svg+xml</dc:format><dc:type
           rdf:resource="http://purl.org/dc/dcmitype/StillImage" /></cc:Work></rdf:RDF></metadata><defs
     id="defs6"><clipPath
       id="clipPath18"
       clipPathUnits="userSpaceOnUse"><path
         id="path16"
         d="M 0,256 H 256 V 0 H 0 Z" /></clipPath><clipPath
       id="clipPath26"
       clipPathUnits="userSpaceOnUse"><path
         id="path24"
         d="M 4,252 H 252 V 4 H 4 Z" /></clipPath><clipPath
       id="clipPath158"
       clipPathUnits="userSpaceOnUse"><path
         id="path156"
         d="m 69.8637,72.4006 h 0.1368 v -0.0759 h -0.1368 z" /></clipPath><clipPath
       id="clipPath174"
       clipPathUnits="userSpaceOnUse"><path
         id="path172"
         d="m 65.9892,71.8457 h 0.1529 v -0.0864 h -0.1529 z" /></clipPath></defs><g
     transform="matrix(1.3333333,0,0,-1.3333333,0,341.33333)"
     id="g10"><g
       id="g12"><g
         clip-path="url(#clipPath18)"
         id="g14"><g
           id="g20"><g
             id="g22" /><g
             id="g34"><g
               style="opacity:0.5"
               id="g32"
               clip-path="url(#clipPath26)"><g
                 id="g30"
                 transform="translate(128,108)"><path
                   id="path28"
                   style="fill:#ffffff;fill-opacity:1;fill-rule:nonzero;stroke:none"
                   d="m 0,0 c -11.046,0 -20,8.954 -20,20 0,11.046 8.954,20 20,20 C 11.046,40 20,31.046 20,20 20,8.954 11.046,0 0,0 M 87.676,107.682 C 64.254,131.102 33.116,144 0,144 -33.124,144 -64.264,131.102 -87.683,107.681 -111.103,84.262 -124,53.122 -124,20 c 0,-33.122 12.897,-64.262 36.317,-87.681 C -64.264,-91.102 -33.124,-104 0,-104 c 33.116,0 64.254,12.898 87.676,36.318 C 111.1,-44.26 124,-13.12 124,20 c 0,33.12 -12.9,64.26 -36.324,87.682" /></g></g></g></g><g
           transform="translate(128,84.4951)"
           id="g36"><path
             id="path38"
             style="fill:#bfbfbf;fill-opacity:1;fill-rule:nonzero;stroke:none"
             d="M 0,0 C -23.993,0 -43.505,19.517 -43.505,43.505 -43.505,67.493 -23.993,87.01 0,87.01 23.988,87.01 43.5,67.493 43.5,43.505 43.5,19.517 23.988,0 0,0 m 0,159.505 c -64.071,0 -116,-51.934 -116,-116 0,-64.066 51.929,-116 116,-116 64.051,0 116,51.934 116,116 0,64.066 -51.949,116 -116,116" /></g><g
           transform="translate(57.4912,120.8723)"
           id="g40"><path
             id="path42"
             style="fill:#191919;fill-opacity:1;fill-rule:nonzero;stroke:none"
             d="m 0,0 -6.572,0.007 c -0.951,0 -1.722,0.752 -1.722,1.678 v 9.748 c 0,0.926 0.771,1.677 1.722,1.677 l 4.113,0.005 c 0.494,0 0.895,0.39 0.895,0.872 l 0.012,3.897 c 0,0.202 0.167,0.365 0.375,0.365 h 2.411 c 0.207,0 0.375,-0.163 0.375,-0.365 L 1.634,0.364 c 0,-0.202 -0.168,-0.365 -0.375,-0.365 L 0,0 -0.031,-0.87 h 1.645 c 0.494,0 0.895,0.39 0.895,0.872 v 18.254 c 0,0.481 -0.401,0.872 -0.895,0.872 h -3.163 c -0.494,0 -0.895,-0.391 -0.895,-0.872 l 0.005,-3.907 c 0,-0.202 -0.168,-0.365 -0.376,-0.365 l -3.757,0.006 c -1.45,0 -2.625,-1.145 -2.625,-2.557 V 1.685 c 0,-1.412 1.175,-2.557 2.625,-2.557 l 6.541,0.002 z" /></g><g
           transform="translate(55.0471,124.4604)"
           id="g44"><path
             id="path46"
             style="fill:#191919;fill-opacity:1;fill-rule:nonzero;stroke:none"
             d="m 0,0 v 6.306 c 0,0.529 -0.44,0.957 -0.982,0.957 -0.543,0 -0.982,-0.428 -0.982,-0.957 v -6.807 c 0,-0.528 0.439,-0.957 0.982,-0.957 C -0.44,-1.458 0,-1.03 0,-0.501 V 0 l 0.893,-0.03 v -0.471 c 0,-1.009 -0.84,-1.827 -1.875,-1.827 -1.036,0 -1.875,0.818 -1.875,1.827 v 6.807 c 0,1.009 0.839,1.827 1.875,1.827 1.035,0 1.875,-0.818 1.875,-1.827 V -0.03 Z" /></g><g
           transform="translate(44.5309,129.122)"
           id="g48"><path
             id="path50"
             style="fill:#191919;fill-opacity:1;fill-rule:nonzero;stroke:none"
             d="M 0,0 H 1.138 C 1.345,0 1.513,0.164 1.513,0.365 L 1.508,3.183 c 0,0.927 -0.771,1.678 -1.722,1.678 h -5.692 c -0.951,0 -1.722,-0.751 -1.722,-1.678 v -9.747 c 0,-0.927 0.771,-1.678 1.722,-1.678 h 5.692 c 0.951,0 1.722,0.751 1.722,1.678 l 0.005,2.679 c 0,0.202 -0.168,0.365 -0.375,0.365 H -1.01 c -0.207,0 -0.375,-0.163 -0.375,-0.365 l 0.013,-1.278 c 0,-1.009 -0.653,-1.827 -1.688,-1.827 -1.035,0 -1.687,0.818 -1.687,1.827 v 6.808 c 0,1.008 0.652,1.826 1.687,1.826 1.036,0 1.688,-0.818 1.688,-1.826 L -1.384,0.365 C -1.384,0.164 -1.217,0 -1.01,0 H 0 l -0.031,-0.878 h -1.351 c -0.494,0 -0.894,0.39 -0.894,0.871 l 0.011,1.652 c 0,0.528 -0.252,0.956 -0.795,0.956 -0.542,10e-4 -0.795,-0.428 -0.795,-0.956 v -6.808 c 0,-0.528 0.253,-0.957 0.795,-0.957 0.543,0 0.795,0.429 0.795,0.957 l -0.011,1.65 c 0,0.481 0.4,0.872 0.894,0.872 h 2.9 c 0.494,0 0.895,-0.391 0.895,-0.872 L 2.411,-6.564 c 0,-1.413 -1.175,-2.558 -2.625,-2.558 h -5.692 c -1.45,0 -2.625,1.145 -2.625,2.558 v 9.747 c 0,1.413 1.175,2.558 2.625,2.558 h 5.692 c 1.45,0 2.625,-1.145 2.625,-2.558 l 0.002,-3.19 c 0,-0.481 -0.401,-0.871 -0.895,-0.871 h -1.549 z" /></g><g
           transform="translate(128.0022,114.2243)"
           id="g52"><path
             id="path54"
             style="fill:#e6e6e6;fill-opacity:1;fill-rule:nonzero;stroke:none"
             d="m 0,0 c -7.596,0 -13.786,6.176 -13.786,13.776 0,7.604 6.19,13.785 13.786,13.785 7.6,0 13.777,-6.181 13.777,-13.785 C 13.777,6.176 7.6,0 0,0 m 0.001,59.776 c -25.364,0 -46.003,-20.651 -46.003,-46 0,-25.349 20.639,-46 46.003,-46 25.338,0 45.997,20.651 45.997,46 0,25.349 -20.659,46 -45.997,46" /></g><g
           transform="translate(51.8681,71.0419)"
           id="g56"><path
             id="path58"
             style="fill:#010101;fill-opacity:1;fill-rule:nonzero;stroke:none"
             d="m 0,0 c -0.219,-0.116 -0.485,-0.129 -0.73,-0.09 0.167,-0.368 0.235,-0.763 0.342,-1.147 0.122,-0.377 0.27,-0.834 0.717,-0.992 0.294,-0.122 0.63,-0.003 0.85,0.188 0.344,0.3 0.556,0.696 0.761,1.079 0.069,0.137 0.138,0.273 0.209,0.408 C 1.834,-0.555 1.525,-0.467 1.255,-0.325 0.99,-0.178 0.929,0.175 0.604,0.246 0.37,0.249 0.195,0.091 0,0 M 17.003,2.67 C 16.143,2.499 15.27,2.245 14.379,2.372 14.457,1.842 14.367,1.301 14.154,0.804 14.043,0.745 14.247,0.668 14.274,0.759 l 0.069,-0.035 c 0.073,-0.186 0.303,-0.255 0.502,-0.274 0.512,-0.045 1.023,0.056 1.51,0.193 -0.118,0.098 -0.273,0.191 -0.297,0.346 0.017,0.067 0.053,0.127 0.085,0.187 0.352,-0.012 0.701,-0.064 1.051,-0.101 0.477,0.321 0.777,0.868 0.732,1.407 C 17.921,2.627 17.812,2.773 17.644,2.793 17.424,2.821 17.202,2.747 17.003,2.67 M 19.717,3.532 19.705,3.513 C 19.255,3.391 18.826,3.218 18.38,3.084 18.482,2.497 18.35,1.879 18.033,1.359 17.896,1.28 18.182,1.237 18.125,1.358 c 0.032,10e-4 0.094,0.003 0.126,0.004 0.007,-0.107 0.148,-0.134 0.245,-0.128 0.381,0.028 0.742,0.169 1.074,0.334 -0.108,0.08 -0.237,0.15 -0.306,0.263 -0.047,0.08 0.013,0.163 0.035,0.241 0.273,-0.008 0.545,-0.033 0.815,-0.073 0.278,0.297 0.487,0.69 0.404,1.087 -0.046,0.193 -0.12,0.41 -0.318,0.518 -0.162,0.08 -0.332,-0.022 -0.483,-0.072 m 2.497,0.979 C 21.774,4.331 21.337,4.148 20.897,3.971 21.068,3.332 20.921,2.653 20.556,2.09 20.649,2.14 20.779,2.159 20.85,2.235 21,2.148 21.184,2.158 21.35,2.198 21.674,2.277 21.983,2.407 22.263,2.574 22.101,2.68 21.896,2.856 22.075,3.037 22.278,3.016 22.483,3 22.686,2.973 22.94,3.282 23.189,3.668 23.088,4.066 22.97,4.318 22.741,4.537 22.443,4.614 22.366,4.58 22.291,4.545 22.214,4.511 M 8.324,5.372 C 7.937,5.32 7.547,5.23 7.203,5.057 6.802,4.798 6.498,4.373 6.519,3.917 6.538,3.476 6.812,3.083 7.126,2.759 7.706,2.188 8.471,1.736 9.328,1.603 c 0.647,-0.09 1.341,-0.075 1.936,0.195 0.55,0.239 1.062,0.645 1.211,1.198 0.14,0.488 0.096,1.084 -0.338,1.446 C 11.616,4.878 10.943,5.155 10.249,5.28 9.619,5.401 8.965,5.453 8.324,5.372 M 24.477,5.607 C 24.104,5.405 23.723,5.214 23.339,5.028 c 0.179,-0.62 0.05,-1.283 -0.23,-1.863 0.114,0.07 0.224,0.146 0.328,0.229 0.182,-0.173 0.447,-0.026 0.632,0.07 0.846,0.471 1.062,1.53 0.758,2.333 -0.116,-0.065 -0.232,-0.128 -0.35,-0.19 M -6.688,6.37 C -7.138,6.135 -7.534,5.762 -7.638,5.291 -7.757,4.728 -7.51,4.124 -7.052,3.734 -6.761,3.477 -6.374,3.327 -5.976,3.26 l 0.002,-0.009 c 0.242,-0.015 0.492,-0.084 0.73,-0.026 0.831,0.021 1.647,0.302 2.311,0.747 0.497,0.342 0.93,0.843 0.934,1.429 C -1.98,5.691 -2.172,5.944 -2.377,6.15 -2.819,6.566 -3.46,6.753 -4.08,6.819 -4.971,6.902 -5.906,6.776 -6.688,6.37 M 26.193,6.701 C 26.01,6.566 25.828,6.428 25.635,6.305 25.889,5.903 25.788,5.42 25.716,4.987 c 0.072,0.078 0.145,0.157 0.218,0.235 0.007,-0.042 0.019,-0.126 0.026,-0.168 0.13,0.041 0.258,0.108 0.312,0.229 0.155,0.309 0.233,0.65 0.224,0.989 0.007,0.21 -0.079,0.413 -0.055,0.623 C 26.357,6.831 26.274,6.767 26.193,6.701 M 0.67,8.3 C 0.688,8.12 0.694,7.94 0.694,7.759 0.664,7.616 0.582,7.491 0.467,7.389 0.442,7.506 0.405,7.62 0.357,7.73 0.285,7.901 0.217,8.072 0.147,8.243 -1.287,8.074 -2.694,7.707 -4.002,7.151 -4.024,7.176 -4.067,7.227 -4.088,7.253 -4.188,7.202 -4.287,7.151 -4.386,7.1 -3.998,7.093 -3.612,7.041 -3.236,6.954 -2.921,6.871 -2.613,6.76 -2.335,6.602 l 0.009,0.004 C -2.169,6.499 -2.019,6.385 -1.883,6.257 -1.528,5.88 -1.471,5.334 -1.681,4.884 -2.063,4.04 -2.852,3.352 -3.803,3.035 -4.179,2.917 -4.573,2.846 -4.971,2.83 -5.42,2.815 -5.87,2.872 -6.297,2.997 -6.607,3.098 -6.895,3.244 -7.155,3.425 -7.116,3.028 -6.994,2.64 -6.797,2.284 -6.975,2.208 -7.212,2.023 -7.054,1.835 -6.842,1.634 -6.517,1.581 -6.227,1.53 c 0.774,-0.859 1.812,-1.492 2.899,-1.988 0.893,-0.407 1.833,-0.73 2.804,-0.951 -0.083,0.232 -0.144,0.471 -0.197,0.71 -0.047,0.214 -0.072,0.433 -0.137,0.644 -0.216,0.152 -0.382,0.354 -0.432,0.602 -0.008,0.166 0.017,0.336 0.114,0.48 -0.021,-0.182 -0.043,-0.367 0.009,-0.548 0.123,-0.247 0.386,-0.432 0.687,-0.462 0.176,-0.018 0.336,0.061 0.489,0.128 0.187,0.096 0.379,0.206 0.6,0.219 0.245,-0.012 0.354,-0.239 0.477,-0.396 h 0.006 c 0.244,-0.249 0.613,-0.431 0.989,-0.382 0.197,0.022 0.359,0.132 0.499,0.251 0.122,0.137 0.221,0.29 0.295,0.452 C 2.885,0.29 2.904,0.293 2.914,0.294 2.905,-0.064 2.625,-0.367 2.277,-0.514 2.244,-0.668 2.188,-0.817 2.137,-0.966 2,-1.21 1.856,-1.452 1.678,-1.676 c -0.079,-0.052 0.03,-0.063 0.067,-0.068 0.589,-0.049 1.18,-0.071 1.772,-0.087 1.482,-0.04 2.977,-0.02 4.439,0.235 1.019,0.179 2.02,0.453 2.966,0.842 0.74,0.315 1.456,0.721 1.98,1.297 0.469,0.536 0.68,1.27 0.473,1.936 -0.168,0.508 -0.432,0.987 -0.74,1.437 C 12.728,3.601 12.814,3.273 12.76,2.945 12.741,2.739 12.645,2.551 12.565,2.361 L 12.566,2.322 12.539,2.321 C 12.286,1.952 11.908,1.66 11.471,1.476 9.995,0.861 8.102,1.203 7.007,2.289 6.535,2.766 6.099,3.35 6.108,4.013 6.121,4.549 6.542,4.997 7.043,5.246 7.883,5.67 8.881,5.772 9.827,5.696 10.241,5.646 10.657,5.571 11.038,5.407 11.169,5.351 11.303,5.301 11.442,5.26 11.068,5.642 10.63,5.967 10.187,6.28 10.066,6.364 9.937,6.435 9.805,6.503 7.954,7.466 5.875,8.06 3.753,8.275 3.688,8.117 3.624,7.958 3.559,7.8 3.496,7.645 3.438,7.489 3.383,7.331 3.235,7.46 3.186,7.641 3.165,7.819 3.173,7.987 3.186,8.154 3.205,8.321 2.361,8.378 1.512,8.368 0.67,8.3 m -2.592,0.895 c -0.103,-0.198 0.265,-0.124 0.39,-0.115 0.426,0.013 0.847,0.075 1.27,0.113 -0.029,0.055 -0.06,0.108 -0.093,0.16 -0.023,0.061 -0.046,0.122 -0.07,0.182 C -0.438,9.56 -0.464,9.611 -0.478,9.636 -0.964,9.507 -1.464,9.394 -1.922,9.195 m 0.58,0.418 c 0.254,0.078 0.507,0.162 0.761,0.24 -0.028,0.057 -0.055,0.114 -0.082,0.17 -0.229,-0.132 -0.463,-0.261 -0.679,-0.41 m 5.89,0.498 C 4.537,10.077 4.514,10.009 4.503,9.975 L 4.492,9.976 C 4.469,9.928 4.446,9.88 4.423,9.832 4.398,9.774 4.373,9.715 4.348,9.656 4.328,9.614 4.309,9.572 4.29,9.53 4.255,9.45 4.22,9.369 4.185,9.289 6.007,9.147 7.824,8.775 9.472,8.047 11.53,7.161 13.266,5.719 14.489,3.992 14.562,3.9 14.697,3.712 14.83,3.839 15.001,4.165 14.94,4.545 14.904,4.893 14.81,5.64 14.26,6.252 13.695,6.769 12.82,7.538 11.782,8.138 10.694,8.632 8.781,9.482 6.679,9.993 4.548,10.111 M 0.184,9.801 C 0.191,9.774 0.205,9.72 0.212,9.693 L 0.225,9.695 C 0.254,9.62 0.284,9.546 0.314,9.47 0.34,9.397 0.366,9.323 0.393,9.249 1.413,9.331 2.44,9.362 3.464,9.323 3.499,9.426 3.533,9.527 3.567,9.629 3.604,9.732 3.642,9.834 3.68,9.936 h 0.007 c 0.026,0.071 0.051,0.141 0.078,0.211 -1.204,0 -2.406,-0.108 -3.581,-0.346 m -0.265,0.562 c 0.023,-0.051 0.048,-0.101 0.072,-0.151 0.028,-0.061 0.056,-0.122 0.084,-0.183 1.254,0.312 2.551,0.484 3.853,0.503 0.056,0.123 0.112,0.247 0.168,0.37 0.079,0.167 0.159,0.334 0.239,0.501 0.131,0.263 0.276,0.522 0.405,0.787 0.134,0.198 0.23,0.418 0.359,0.62 -1.803,-0.675 -3.531,-1.508 -5.18,-2.447 m 15.105,2.832 c -1.389,-0.26 -2.753,-0.66 -4.012,-1.255 -0.61,-0.3 -1.22,-0.636 -1.671,-1.122 -0.183,-0.201 -0.34,-0.461 -0.274,-0.729 0.072,-0.25 0.326,-0.415 0.581,-0.506 1.21,-0.428 2.36,-0.999 3.396,-1.706 0.778,-0.539 1.507,-1.152 2.056,-1.89 0.302,-0.42 0.584,-0.894 0.566,-1.409 10e-4,-0.209 -0.127,-0.388 -0.222,-0.57 0.443,0.071 0.862,0.223 1.283,0.359 1.583,0.534 3.138,1.132 4.677,1.758 1.077,0.447 2.156,0.897 3.179,1.441 0.248,0.127 0.491,0.284 0.633,0.514 0.233,0.349 0.232,0.782 0.144,1.171 -0.2,0.772 -0.722,1.439 -1.309,2.015 -0.716,0.69 -1.571,1.26 -2.489,1.714 -0.571,0.206 -1.179,0.317 -1.785,0.4 -1.58,0.205 -3.193,0.099 -4.753,-0.185 M 6.562,13.318 C 6.431,13.272 6.286,13.247 6.17,13.174 6.061,13.02 5.976,12.854 5.883,12.692 5.63,12.265 5.403,11.825 5.174,11.387 5.1,11.243 5.028,11.099 4.959,10.953 H 4.949 C 4.884,10.808 4.817,10.665 4.748,10.522 c 0.44,-0.021 0.884,-0.06 1.322,0.002 0.336,0.042 0.659,0.142 0.97,0.257 2.304,0.881 4.614,1.764 7.008,2.427 1.491,0.413 3.021,0.736 4.579,0.844 -0.144,0.037 -0.287,0.083 -0.436,0.101 -0.685,0.165 -1.388,0.266 -2.092,0.336 -3.226,0.304 -6.495,-0.202 -9.537,-1.171 m -18.712,3 c -0.297,-0.143 -0.53,-0.39 -0.63,-0.681 -0.079,-0.194 -0.093,-0.407 -0.048,-0.609 0.024,-0.092 0.055,-0.185 0.105,-0.269 0.236,-0.524 0.933,-0.811 1.534,-0.686 0.546,0.092 1.001,0.516 1.071,1.014 0.065,0.385 -0.096,0.793 -0.417,1.054 -0.423,0.363 -1.108,0.431 -1.615,0.177 m 27.783,1.198 c -0.282,-0.64 -0.121,-1.453 0.483,-1.9 0.325,-0.245 0.781,-0.35 1.194,-0.253 0.506,0.113 0.913,0.487 1.08,0.925 0.045,0.103 0.078,0.212 0.094,0.323 0.053,0.254 0.042,0.521 -0.047,0.766 -0.139,0.585 -0.741,1.083 -1.422,1.067 -0.626,0.004 -1.169,-0.418 -1.382,-0.928 M 9.795,17.491 c -1.388,-1.073 -2.447,-2.444 -3.35,-3.865 3.155,0.971 6.514,1.466 9.849,1.271 -0.627,0.242 -1.155,0.703 -1.393,1.283 -0.175,0.422 -0.158,0.912 0.085,1.31 0.27,0.448 0.744,0.767 1.247,0.982 0.038,0.01 0.146,0.07 0.049,0.088 -0.849,0.308 -1.77,0.479 -2.689,0.428 -1.417,-0.066 -2.736,-0.677 -3.798,-1.497 m 4.633,2.374 h 0.971 c 0.945,-0.063 1.961,-0.236 2.676,-0.84 0.543,-0.445 0.755,-1.134 0.708,-1.778 -0.046,-0.672 -0.184,-1.377 -0.644,-1.927 -0.203,-0.25 -0.508,-0.409 -0.829,-0.509 2.029,-0.202 4.04,-0.677 5.865,-1.509 0.986,-0.453 1.918,-1.018 2.695,-1.732 0.651,-0.609 1.202,-1.343 1.394,-2.182 C 27.379,8.911 27.345,8.411 27.179,7.947 27.517,7.203 27.445,6.357 27.17,5.606 26.927,4.932 26.462,4.307 25.796,3.917 25.607,3.803 25.372,3.812 25.156,3.834 24.842,3.411 24.462,3.029 24.024,2.706 24.928,2.457 25.801,2.091 26.551,1.568 27.133,1.161 27.638,0.64 27.908,0.016 c 0.126,-0.287 0.186,-0.592 0.224,-0.898 v -0.364 c -0.028,-0.178 -0.065,-0.368 -0.197,-0.512 -0.149,-0.165 -0.459,-0.203 -0.637,-0.056 -0.085,0.078 -0.056,0.196 -0.06,0.294 0.046,0.374 -0.142,0.721 -0.262,1.069 C 26.722,0.232 26.267,0.867 25.602,1.28 24.96,1.725 24.149,1.867 23.41,2.129 23.123,2.25 22.794,2.217 22.504,2.328 22.258,2.076 21.98,1.851 21.676,1.657 22.672,1.345 23.639,0.914 24.43,0.276 c 0.685,-0.545 1.217,-1.282 1.341,-2.11 0.049,-0.381 0.101,-0.805 -0.117,-1.155 -0.145,-0.238 -0.596,-0.311 -0.772,-0.067 -0.081,0.217 0.028,0.454 -0.049,0.675 -0.198,0.611 -0.414,1.233 -0.822,1.761 -0.377,0.496 -0.915,0.88 -1.505,1.153 C 22.061,0.718 21.59,0.843 21.13,0.991 20.868,1.069 20.608,1.194 20.323,1.163 20.144,1.148 19.977,1.212 19.819,1.276 19.54,1.049 19.223,0.865 18.9,0.693 c 0.197,-0.097 0.417,-0.146 0.622,-0.226 0.921,-0.346 1.807,-0.795 2.541,-1.41 0.682,-0.564 1.227,-1.295 1.411,-2.122 0.096,-0.456 0.163,-0.943 -0.006,-1.392 -0.07,-0.197 -0.25,-0.352 -0.475,-0.4 h -0.198 c -0.125,0.036 -0.275,0.082 -0.308,0.211 -0.061,0.239 0.048,0.488 -0.035,0.725 -0.247,0.759 -0.519,1.536 -1.063,2.169 -0.442,0.519 -1.04,0.921 -1.689,1.206 -0.902,0.336 -1.848,0.564 -2.744,0.913 -0.779,-0.436 -1.723,-0.488 -2.615,-0.481 -0.236,-0.006 -0.469,0.039 -0.689,0.112 -0.626,-0.668 -1.456,-1.16 -2.329,-1.53 C 10.501,-1.868 9.638,-2.122 8.761,-2.315 7.38,-2.61 5.957,-2.699 4.541,-2.703 c -1.446,0.028 -2.9,0.055 -4.327,0.287 -1.717,0.262 -3.362,0.846 -4.862,1.636 -0.119,-0.354 -0.207,-0.716 -0.292,-1.078 -0.058,-0.244 0.019,-0.495 -0.031,-0.739 -0.038,-0.201 -0.336,-0.271 -0.499,-0.142 -0.219,0.17 -0.251,0.452 -0.281,0.695 -0.04,0.6 0.057,1.205 0.253,1.778 -0.42,0.288 -0.823,0.6 -1.174,0.956 -0.368,-0.323 -0.667,-0.71 -0.876,-1.133 -0.29,-0.584 -0.448,-1.212 -0.597,-1.835 -0.062,-0.256 0.018,-0.519 -0.039,-0.775 -0.05,-0.212 -0.389,-0.249 -0.535,-0.095 -0.199,0.203 -0.226,0.491 -0.246,0.749 -0.025,0.785 0.14,1.582 0.537,2.285 0.296,0.534 0.716,1.009 1.2,1.414 -0.614,0.729 -0.938,1.648 -0.876,2.562 0.013,0.296 0.086,0.585 0.151,0.874 0.189,0.398 0.303,0.822 0.535,1.204 0.21,0.233 0.359,0.531 0.659,0.683 0.344,0.098 0.548,0.389 0.832,0.573 0.342,0.218 0.678,0.445 1.044,0.632 0.224,0.12 0.468,0.215 0.672,0.363 1.078,0.783 2.199,1.52 3.363,2.196 -0.488,0.937 -1.03,1.855 -1.672,2.714 -0.693,0.925 -1.499,1.797 -2.489,2.478 -0.896,0.623 -1.963,1.065 -3.093,1.184 -0.908,0.102 -1.835,-0.008 -2.705,-0.25 0.456,-0.188 0.921,-0.433 1.184,-0.832 0.235,-0.347 0.201,-0.805 -0.035,-1.143 -0.339,-0.497 -0.95,-0.825 -1.588,-0.901 -0.468,-0.06 -0.975,0.075 -1.293,0.397 -0.354,0.352 -0.477,0.833 -0.532,1.291 v 0.534 c 0.072,0.43 0.317,0.842 0.718,1.093 0.697,0.45 1.586,0.54 2.419,0.565 1.027,0.002 2.059,-0.119 3.043,-0.388 1.375,-0.405 2.519,-1.258 3.5,-2.192 1.282,-1.244 2.308,-2.688 3.127,-4.212 1.791,0.999 3.674,1.869 5.641,2.548 1.124,1.783 2.444,3.502 4.173,4.855 0.716,0.551 1.511,1.037 2.402,1.326 0.797,0.248 1.638,0.354 2.476,0.411" /></g><g
           transform="translate(78.3092,77.9373)"
           id="g60"><path
             id="path62"
             style="fill:#bfbfbf;fill-opacity:1;fill-rule:nonzero;stroke:none"
             d="m 0,0 c -0.084,-0.064 -0.167,-0.128 -0.248,-0.194 -0.183,-0.136 -0.365,-0.273 -0.558,-0.396 0.254,-0.402 0.153,-0.885 0.081,-1.318 0.072,0.077 0.145,0.156 0.218,0.234 0.007,-0.042 0.019,-0.125 0.026,-0.167 0.13,0.04 0.258,0.108 0.312,0.228 0.155,0.309 0.233,0.651 0.224,0.99 C 0.062,-0.413 -0.024,-0.21 0,0" /></g><g
           transform="translate(76.3453,76.6489)"
           id="g64"><path
             id="path66"
             style="fill:#bfbfbf;fill-opacity:1;fill-rule:nonzero;stroke:none"
             d="m 0,0 c -0.373,-0.202 -0.754,-0.393 -1.138,-0.579 0.179,-0.62 0.05,-1.283 -0.23,-1.863 0.114,0.07 0.224,0.146 0.327,0.229 0.183,-0.173 0.448,-0.026 0.632,0.07 0.847,0.471 1.063,1.53 0.758,2.333 C 0.234,0.125 0.117,0.062 0,0" /></g><g
           transform="translate(74.5542,74.0147)"
           id="g68"><path
             id="path70"
             style="fill:#bfbfbf;fill-opacity:1;fill-rule:nonzero;stroke:none"
             d="M 0,0 C 0.254,0.309 0.503,0.695 0.402,1.093 0.284,1.345 0.055,1.564 -0.243,1.641 -0.32,1.607 -0.395,1.572 -0.472,1.538 -0.912,1.359 -1.349,1.176 -1.789,0.999 c 0.171,-0.64 0.024,-1.319 -0.341,-1.882 0.093,0.051 0.223,0.07 0.294,0.145 0.15,-0.087 0.334,-0.076 0.5,-0.037 0.324,0.08 0.633,0.209 0.913,0.376 -0.162,0.107 -0.367,0.283 -0.188,0.463 C -0.408,0.044 -0.203,0.027 0,0" /></g><g
           transform="translate(72.0678,74.6461)"
           id="g72"><path
             id="path74"
             style="fill:#bfbfbf;fill-opacity:1;fill-rule:nonzero;stroke:none"
             d="m 0,0 c -0.161,0.079 -0.331,-0.023 -0.483,-0.072 l -0.012,-0.019 c -0.449,-0.122 -0.879,-0.295 -1.325,-0.429 0.102,-0.587 -0.029,-1.205 -0.346,-1.725 0.023,0 0.068,-10e-4 0.091,-10e-4 0.032,10e-4 0.095,0.003 0.126,0.004 0.007,-0.107 0.149,-0.134 0.245,-0.128 0.382,0.028 0.742,0.169 1.075,0.334 -0.108,0.08 -0.237,0.15 -0.306,0.263 -0.047,0.08 0.012,0.163 0.035,0.24 0.273,-0.007 0.544,-0.032 0.814,-0.072 0.279,0.297 0.487,0.69 0.404,1.087 C 0.272,-0.325 0.198,-0.108 0,0" /></g><g
           transform="translate(69.5124,73.8347)"
           id="g76"><path
             id="path78"
             style="fill:#bfbfbf;fill-opacity:1;fill-rule:nonzero;stroke:none"
             d="M 0,0 C -0.221,0.029 -0.442,-0.046 -0.642,-0.123 -1.501,-0.293 -2.375,-0.547 -3.265,-0.421 -3.187,-0.95 -3.277,-1.492 -3.49,-1.989 -3.46,-2 -3.4,-2.022 -3.37,-2.034 l 0.069,-0.035 c 0.073,-0.186 0.302,-0.255 0.502,-0.274 0.511,-0.045 1.023,0.057 1.509,0.193 -0.117,0.098 -0.273,0.192 -0.296,0.347 0.017,0.066 0.052,0.126 0.084,0.186 0.353,-0.012 0.702,-0.064 1.052,-0.101 0.477,0.321 0.777,0.869 0.732,1.408 C 0.276,-0.166 0.168,-0.019 0,0" /></g><g
           transform="translate(45.788,77.3829)"
           id="g80"><path
             id="path82"
             style="fill:#ffffff;fill-opacity:1;fill-rule:nonzero;stroke:none"
             d="M 0,0 C 0.749,0.315 1.642,0.26 2.387,-0.038 2.859,-0.227 3.31,-0.532 3.492,-0.982 3.178,-0.789 2.882,-0.569 2.541,-0.415 1.878,-0.095 1.078,0.041 0.35,-0.176 0.7,-0.193 1.054,-0.355 1.175,-0.667 1.21,-0.792 1.227,-0.922 1.233,-1.051 1.161,-1.337 0.929,-1.57 0.622,-1.664 c -0.237,-0.02 -0.497,-0.011 -0.694,0.125 -0.204,0.119 -0.306,0.33 -0.353,0.538 -0.001,0.213 0.091,0.412 0.211,0.591 C -0.618,-0.641 -0.935,-0.965 -1.21,-1.313 -1.02,-0.756 -0.594,-0.25 0,0" /></g><g
           transform="translate(60.5589,76.2273)"
           id="g84"><path
             id="path86"
             style="fill:#ffffff;fill-opacity:1;fill-rule:nonzero;stroke:none"
             d="m 0,0 c 0.895,0.153 1.83,-0.094 2.572,-0.549 0.451,-0.282 0.873,-0.674 0.964,-1.18 -0.548,0.562 -1.192,1.08 -1.987,1.332 -0.374,0.121 -0.774,0.169 -1.171,0.157 0.264,-0.187 0.423,-0.511 0.28,-0.805 -0.027,-0.053 -0.056,-0.105 -0.086,-0.157 -0.179,-0.2 -0.47,-0.261 -0.743,-0.233 -0.156,0.029 -0.283,0.123 -0.394,0.22 -0.202,0.217 -0.176,0.521 -0.065,0.769 C -0.988,-0.59 -1.303,-0.798 -1.605,-1.02 -1.265,-0.494 -0.666,-0.11 0,0" /></g><g
           transform="translate(67.984,86.6581)"
           id="g88"><path
             id="path90"
             style="fill:#bfbfbf;fill-opacity:1;fill-rule:nonzero;stroke:none"
             d="M 0,0 C 0.325,-0.246 0.781,-0.35 1.194,-0.253 1.7,-0.141 2.107,0.233 2.274,0.671 2.319,0.775 2.352,0.884 2.368,0.995 2.421,1.248 2.411,1.516 2.321,1.761 2.182,2.345 1.58,2.843 0.899,2.828 0.274,2.832 -0.27,2.41 -0.483,1.9 -0.765,1.26 -0.604,0.447 0,0" /></g><g
           transform="translate(41.3327,87.1833)"
           id="g92"><path
             id="path94"
             style="fill:#bfbfbf;fill-opacity:1;fill-rule:nonzero;stroke:none"
             d="m 0,0 c -0.422,0.362 -1.107,0.43 -1.614,0.176 -0.298,-0.142 -0.53,-0.39 -0.63,-0.681 -0.079,-0.193 -0.094,-0.406 -0.049,-0.608 0.025,-0.093 0.055,-0.186 0.106,-0.27 0.236,-0.523 0.932,-0.81 1.533,-0.686 0.546,0.093 1.002,0.517 1.071,1.014 C 0.482,-0.669 0.322,-0.261 0,0" /></g><g
           transform="translate(56.8176,81.9949)"
           id="g96"><path
             id="path98"
             style="fill:#bfbfbf;fill-opacity:1;fill-rule:nonzero;stroke:none"
             d="m 0,0 c -0.065,-0.145 -0.133,-0.288 -0.202,-0.431 0.441,-0.021 0.885,-0.06 1.323,0.002 0.336,0.042 0.658,0.142 0.97,0.257 2.303,0.881 4.613,1.764 7.008,2.427 1.491,0.413 3.02,0.736 4.579,0.844 C 13.534,3.136 13.391,3.183 13.242,3.2 12.556,3.365 11.854,3.466 11.149,3.536 7.923,3.84 4.655,3.334 1.612,2.365 1.481,2.319 1.337,2.294 1.221,2.221 1.112,2.067 1.027,1.901 0.934,1.739 0.68,1.312 0.454,0.872 0.225,0.434 0.151,0.29 0.078,0.146 0.009,0 Z" /></g><g
           transform="translate(77.2281,80.2926)"
           id="g100"><path
             id="path102"
             style="fill:#bfbfbf;fill-opacity:1;fill-rule:nonzero;stroke:none"
             d="m 0,0 c -0.2,0.772 -0.721,1.44 -1.308,2.015 -0.717,0.691 -1.572,1.261 -2.49,1.714 -0.571,0.206 -1.179,0.317 -1.785,0.401 -1.58,0.204 -3.193,0.099 -4.752,-0.185 -1.39,-0.261 -2.754,-0.661 -4.013,-1.255 -0.61,-0.3 -1.22,-0.637 -1.671,-1.123 -0.183,-0.201 -0.34,-0.46 -0.274,-0.728 0.072,-0.251 0.327,-0.415 0.581,-0.506 1.21,-0.429 2.36,-0.999 3.396,-1.707 0.778,-0.539 1.507,-1.152 2.056,-1.89 0.302,-0.42 0.584,-0.894 0.566,-1.409 0.001,-0.209 -0.127,-0.387 -0.221,-0.569 0.442,0.07 0.861,0.223 1.282,0.358 1.583,0.534 3.138,1.132 4.677,1.758 1.078,0.447 2.156,0.897 3.179,1.441 0.248,0.128 0.491,0.284 0.633,0.514 C 0.089,-0.821 0.088,-0.389 0,0" /></g><g
           transform="translate(51.9428,81.0706)"
           id="g104"><path
             id="path106"
             style="fill:#bfbfbf;fill-opacity:1;fill-rule:nonzero;stroke:none"
             d="M 0,0 C 1.254,0.312 2.551,0.485 3.853,0.504 3.909,0.627 3.965,0.75 4.021,0.873 4.1,1.041 4.181,1.207 4.26,1.374 4.392,1.638 4.536,1.896 4.665,2.161 4.799,2.359 4.895,2.579 5.024,2.781 3.221,2.106 1.494,1.273 -0.156,0.334 -0.132,0.284 -0.108,0.233 -0.083,0.183 -0.056,0.122 -0.028,0.061 0,0" /></g><g
           transform="translate(52.0932,80.7372)"
           id="g108"><path
             id="path110"
             style="fill:#bfbfbf;fill-opacity:1;fill-rule:nonzero;stroke:none"
             d="m 0,0 c 0.029,-0.075 0.059,-0.15 0.089,-0.225 0.026,-0.074 0.052,-0.147 0.079,-0.221 1.02,0.082 2.047,0.113 3.071,0.074 0.034,0.102 0.069,0.204 0.103,0.306 0.037,0.102 0.075,0.204 0.113,0.307 h 0.007 c 0.026,0.07 0.051,0.141 0.078,0.211 -1.204,0 -2.407,-0.108 -3.581,-0.346 0.007,-0.028 0.021,-0.081 0.028,-0.109 z" /></g><g
           transform="translate(65.5631,77.8112)"
           id="g112"><path
             id="path114"
             style="fill:#bfbfbf;fill-opacity:1;fill-rule:nonzero;stroke:none"
             d="M 0,0 C -0.875,0.768 -1.913,1.369 -3.001,1.862 -4.914,2.713 -7.016,3.224 -9.147,3.342 -9.158,3.308 -9.181,3.239 -9.192,3.206 L -9.203,3.207 C -9.226,3.159 -9.249,3.111 -9.271,3.063 -9.297,3.005 -9.322,2.946 -9.347,2.887 -9.367,2.845 -9.386,2.803 -9.405,2.76 -9.44,2.68 -9.475,2.6 -9.51,2.52 c 1.822,-0.142 3.639,-0.515 5.287,-1.242 2.058,-0.886 3.794,-2.328 5.017,-4.055 0.073,-0.092 0.208,-0.28 0.341,-0.154 0.171,0.327 0.11,0.707 0.074,1.055 C 1.115,-1.129 0.565,-0.518 0,0" /></g><g
           transform="translate(51.2054,81.0645)"
           id="g116"><path
             id="path118"
             style="fill:#bfbfbf;fill-opacity:1;fill-rule:nonzero;stroke:none"
             d="m 0,0 c -0.23,-0.132 -0.463,-0.261 -0.679,-0.41 0.254,0.078 0.506,0.162 0.76,0.241 C 0.054,-0.112 0.027,-0.056 0,0" /></g><g
           transform="translate(45.1087,77.665)"
           id="g120"><path
             id="path122"
             style="fill:#bfbfbf;fill-opacity:1;fill-rule:nonzero;stroke:none"
             d="M 0,0 C 0.344,0.098 0.549,0.389 0.832,0.573 0.536,0.405 0.271,0.199 0,0" /></g><g
           transform="translate(44.4505,76.9818)"
           id="g124"><path
             id="path126"
             style="fill:#bfbfbf;fill-opacity:1;fill-rule:nonzero;stroke:none"
             d="M 0,0 C -0.287,-0.352 -0.488,-0.767 -0.536,-1.204 -0.346,-0.806 -0.233,-0.382 0,0" /></g><g
           transform="translate(61.9147,70.8055)"
           id="g128"><path
             id="path130"
             style="fill:#bfbfbf;fill-opacity:1;fill-rule:nonzero;stroke:none"
             d="m 0,0 c -0.749,0.028 -1.488,0.187 -2.191,0.419 -0.381,0.132 -0.765,0.28 -1.085,0.513 -0.107,0.087 -0.242,0.203 -0.203,0.346 0.097,0.145 0.302,0.168 0.471,0.185 C -2.428,1.5 -1.85,1.402 -1.291,1.275 -0.702,1.131 -0.113,0.951 0.403,0.653 0.575,0.562 0.703,0.422 0.813,0.274 0.682,-0.018 0.287,0.016 0,0 M 2.588,4.152 C 2.681,3.837 2.768,3.51 2.713,3.182 2.694,2.976 2.598,2.788 2.518,2.598 L 2.519,2.558 H 2.493 C 2.239,2.188 1.861,1.896 1.425,1.713 -0.052,1.097 -1.945,1.44 -3.04,2.525 -3.512,3.002 -3.948,3.587 -3.938,4.25 c 0.012,0.535 0.434,0.984 0.934,1.233 0.84,0.423 1.838,0.526 2.785,0.45 C 0.195,5.882 0.611,5.807 0.991,5.644 1.122,5.588 1.257,5.538 1.395,5.497 1.021,5.878 0.584,6.203 0.141,6.517 0.02,6.6 -0.11,6.671 -0.241,6.739 -2.092,7.702 -4.172,8.296 -6.293,8.512 -6.358,8.353 -6.423,8.195 -6.488,8.036 -6.55,7.881 -6.609,7.725 -6.664,7.567 -6.812,7.696 -6.86,7.878 -6.882,8.055 c 0.008,0.168 0.022,0.335 0.041,0.503 -0.844,0.056 -1.693,0.047 -2.536,-0.022 0.018,-0.179 0.025,-0.36 0.025,-0.54 -0.031,-0.144 -0.113,-0.269 -0.227,-0.37 -0.026,0.116 -0.063,0.23 -0.11,0.341 -0.073,0.17 -0.14,0.341 -0.211,0.513 -1.434,-0.17 -2.84,-0.536 -4.149,-1.092 -0.021,0.025 -0.064,0.076 -0.086,0.101 -0.099,-0.051 -0.198,-0.102 -0.297,-0.153 0.388,-0.007 0.774,-0.058 1.149,-0.145 0.316,-0.084 0.624,-0.194 0.902,-0.353 l 0.009,0.004 c 0.156,-0.106 0.306,-0.22 0.442,-0.348 0.355,-0.378 0.412,-0.924 0.202,-1.373 -0.382,-0.844 -1.171,-1.533 -2.121,-1.849 -0.377,-0.119 -0.77,-0.189 -1.169,-0.205 -0.449,-0.016 -0.899,0.042 -1.326,0.167 -0.309,0.101 -0.598,0.246 -0.858,0.427 0.039,-0.396 0.162,-0.784 0.358,-1.141 0.231,0.102 0.482,0.161 0.733,0.205 0.422,0.068 0.853,0.08 1.28,0.059 0.329,-0.027 0.666,-0.069 0.965,-0.203 0.115,-0.055 0.247,-0.14 0.25,-0.269 -0.016,-0.169 -0.201,-0.257 -0.346,-0.333 -0.389,-0.153 -0.812,-0.211 -1.231,-0.25 -0.361,-0.008 -0.723,-0.01 -1.08,0.038 0.773,-0.859 1.811,-1.492 2.898,-1.989 0.893,-0.407 1.833,-0.729 2.804,-0.951 -0.083,0.233 -0.143,0.471 -0.196,0.711 -0.048,0.214 -0.073,0.433 -0.138,0.643 -0.215,0.153 -0.382,0.354 -0.431,0.602 -0.009,0.167 0.016,0.336 0.114,0.48 -0.022,-0.182 -0.044,-0.367 0.008,-0.548 0.123,-0.246 0.386,-0.431 0.687,-0.462 0.176,-0.018 0.337,0.061 0.489,0.129 0.188,0.096 0.38,0.206 0.601,0.219 0.245,-0.013 0.353,-0.239 0.477,-0.396 l 0.005,-0.001 c 0.244,-0.248 0.613,-0.43 0.99,-0.382 0.196,0.023 0.359,0.133 0.498,0.252 0.122,0.137 0.221,0.289 0.296,0.451 0.009,0.001 0.029,0.004 0.038,0.005 -0.008,-0.357 -0.289,-0.66 -0.637,-0.808 -0.033,-0.154 -0.089,-0.302 -0.14,-0.451 -0.137,-0.245 -0.281,-0.487 -0.458,-0.71 -0.08,-0.053 0.029,-0.064 0.066,-0.068 0.589,-0.049 1.181,-0.072 1.772,-0.087 1.483,-0.041 2.978,-0.021 4.439,0.234 1.019,0.179 2.021,0.454 2.966,0.842 0.74,0.316 1.457,0.721 1.98,1.298 0.47,0.536 0.68,1.27 0.473,1.935 C 3.16,3.223 2.896,3.702 2.588,4.152" /></g><g
           transform="translate(50.3363,80.1218)"
           id="g132"><path
             id="path134"
             style="fill:#bfbfbf;fill-opacity:1;fill-rule:nonzero;stroke:none"
             d="M 0,0 C 0.426,0.013 0.847,0.075 1.27,0.113 1.241,0.168 1.21,0.221 1.177,0.273 1.154,0.334 1.131,0.395 1.107,0.455 1.094,0.481 1.067,0.531 1.054,0.556 0.568,0.427 0.068,0.314 -0.39,0.115 -0.494,-0.083 -0.125,-0.009 0,0" /></g><g
           transform="translate(48.3286,76.968)"
           id="g136"><path
             id="path138"
             style="fill:#bfbfbf;fill-opacity:1;fill-rule:nonzero;stroke:none"
             d="m 0,0 c -0.663,0.32 -1.462,0.456 -2.19,0.238 0.35,-0.016 0.703,-0.178 0.824,-0.49 0.035,-0.126 0.052,-0.255 0.058,-0.385 -0.071,-0.285 -0.303,-0.518 -0.611,-0.612 -0.237,-0.02 -0.496,-0.011 -0.693,0.125 -0.204,0.119 -0.307,0.33 -0.354,0.538 -10e-4,0.213 0.091,0.412 0.211,0.591 -0.404,-0.231 -0.721,-0.555 -0.996,-0.903 0.191,0.557 0.617,1.063 1.21,1.313 0.75,0.315 1.643,0.259 2.388,-0.039 C 0.318,0.188 0.769,-0.117 0.952,-0.567 0.638,-0.374 0.342,-0.154 0,0 M -0.541,0.893 C -1.431,0.976 -2.367,0.85 -3.149,0.444 -3.598,0.209 -3.995,-0.164 -4.098,-0.635 c -0.119,-0.563 0.128,-1.167 0.585,-1.557 0.291,-0.257 0.679,-0.407 1.076,-0.474 l 0.003,-0.009 c 0.241,-0.015 0.491,-0.084 0.729,-0.026 0.832,0.021 1.647,0.302 2.312,0.747 0.496,0.342 0.929,0.843 0.933,1.429 C 1.559,-0.235 1.367,0.018 1.163,0.224 0.72,0.64 0.08,0.827 -0.541,0.893" /></g><g
           transform="translate(62.1079,75.8304)"
           id="g140"><path
             id="path142"
             style="fill:#bfbfbf;fill-opacity:1;fill-rule:nonzero;stroke:none"
             d="m 0,0 c -0.374,0.121 -0.774,0.169 -1.171,0.157 0.264,-0.187 0.423,-0.511 0.28,-0.805 -0.027,-0.053 -0.056,-0.105 -0.086,-0.157 -0.179,-0.2 -0.47,-0.261 -0.743,-0.233 -0.156,0.029 -0.283,0.123 -0.394,0.22 -0.202,0.217 -0.176,0.521 -0.065,0.769 -0.358,-0.144 -0.673,-0.352 -0.975,-0.574 0.34,0.526 0.939,0.91 1.605,1.02 C -0.654,0.55 0.281,0.303 1.023,-0.152 1.474,-0.434 1.896,-0.826 1.987,-1.333 1.44,-0.77 0.795,-0.252 0,0 M 1.897,-0.347 C 1.376,0.09 0.703,0.366 0.009,0.491 -0.621,0.613 -1.274,0.665 -1.915,0.584 -2.303,0.531 -2.693,0.442 -3.037,0.268 -3.438,0.01 -3.741,-0.415 -3.721,-0.871 c 0.02,-0.441 0.293,-0.834 0.607,-1.158 0.58,-0.571 1.346,-1.023 2.203,-1.157 0.647,-0.089 1.34,-0.074 1.935,0.196 0.551,0.239 1.062,0.645 1.212,1.197 0.139,0.489 0.095,1.085 -0.339,1.446" /></g><g
           transform="translate(45.804,73.5305)"
           id="g144"><path
             id="path146"
             style="fill:#808080;fill-opacity:1;fill-rule:nonzero;stroke:none"
             d="M 0,0 C 0.422,0.068 0.853,0.08 1.28,0.059 1.609,0.032 1.946,-0.01 2.245,-0.144 2.36,-0.199 2.492,-0.284 2.494,-0.413 2.479,-0.582 2.293,-0.67 2.149,-0.746 1.76,-0.899 1.337,-0.957 0.918,-0.996 c -0.361,-0.008 -0.723,-0.01 -1.08,0.038 -0.291,0.051 -0.616,0.103 -0.828,0.304 -0.158,0.189 0.079,0.373 0.257,0.449 C -0.502,-0.103 -0.251,-0.044 0,0" /></g><g
           transform="translate(58.4361,72.0836)"
           id="g148"><path
             id="path150"
             style="fill:#808080;fill-opacity:1;fill-rule:nonzero;stroke:none"
             d="M 0,0 C 0.096,0.145 0.301,0.168 0.471,0.185 1.05,0.222 1.628,0.124 2.188,-0.004 2.777,-0.147 3.365,-0.327 3.882,-0.625 4.054,-0.717 4.182,-0.857 4.291,-1.004 4.16,-1.296 3.765,-1.262 3.479,-1.278 2.729,-1.25 1.991,-1.091 1.288,-0.86 0.907,-0.727 0.523,-0.58 0.203,-0.346 0.095,-0.259 -0.039,-0.144 0,0" /></g><g
           id="g152"><g
             id="g154" /><g
             id="g166"><g
               style="opacity:0.53999299"
               id="g164"
               clip-path="url(#clipPath158)"><g
                 id="g162"
                 transform="translate(69.9928,72.4001)"><path
                   id="path160"
                   style="fill:#1c2316;fill-opacity:1;fill-rule:nonzero;stroke:none"
                   d="M 0,0 C 0.058,-0.121 -0.229,-0.078 -0.091,0.001 -0.068,0.001 -0.023,0 0,0" /></g></g></g></g><g
           id="g168"><g
             id="g170" /><g
             id="g182"><g
               style="opacity:0.38999903"
               id="g180"
               clip-path="url(#clipPath174)"><g
                 id="g178"
                 transform="translate(66.1421,71.801)"><path
                   id="path176"
                   style="fill:#2a381d;fill-opacity:1;fill-rule:nonzero;stroke:none"
                   d="M 0,0 C -0.027,-0.091 -0.231,-0.014 -0.12,0.045 -0.089,0.033 -0.03,0.011 0,0" /></g></g></g></g><g
           transform="translate(53.123,70.7173)"
           id="g184"><path
             id="path186"
             style="fill:#808080;fill-opacity:1;fill-rule:nonzero;stroke:none"
             d="M 0,0 C -0.264,0.147 -0.325,0.5 -0.651,0.57 -0.884,0.573 -1.06,0.415 -1.255,0.325 -1.474,0.208 -1.74,0.196 -1.985,0.235 c 0.167,-0.368 0.235,-0.763 0.342,-1.147 0.122,-0.377 0.27,-0.834 0.717,-0.992 0.294,-0.122 0.63,-0.003 0.85,0.188 0.344,0.299 0.556,0.695 0.761,1.079 0.07,0.136 0.138,0.272 0.209,0.408 C 0.579,-0.231 0.27,-0.142 0,0" /></g><g
           transform="translate(121.1367,59.9258)"
           id="g188"><path
             id="path190"
             style="fill:#010101;fill-opacity:1;fill-rule:nonzero;stroke:none"
             d="M 0,0 C 0.386,-0.194 0.772,-0.388 1.026,-0.671 1.279,-0.954 1.594,-1.315 1.52,-1.7 L 0.538,-6.839 C 0.461,-7.241 0.123,-9.011 0.05,-9.333 l -1.126,-5.008 c -0.103,-0.461 -0.578,-0.75 -0.914,-1.001 -0.337,-0.252 -0.721,-0.38 -1.105,-0.508 l 8.209,-0.076 c -0.328,0.13 -0.657,0.259 -0.889,0.513 -0.231,0.254 -0.585,0.546 -0.501,1.011 l 0.744,4.13 0.71,3.529 1.087,5.102 c 0.083,0.388 0.541,0.752 0.906,1.038 0.366,0.286 0.827,0.482 1.288,0.677 z" /></g><g
           transform="translate(116.4767,46.3395)"
           id="g192"><path
             id="path194"
             style="fill:#010101;fill-opacity:1;fill-rule:nonzero;stroke:none"
             d="m 0,0 c -0.881,-0.666 -2.092,-1.253 -3.371,-1.253 h -2.463 l 2.658,13.198 h 0.06 c 0.082,0.389 0.54,0.753 0.906,1.038 0.365,0.286 0.826,0.482 1.287,0.678 l -8.459,-0.075 c 0.386,-0.194 0.773,-0.387 1.026,-0.671 0.253,-0.283 0.568,-0.644 0.495,-1.028 L -8.844,6.747 C -8.921,6.346 -9.259,4.575 -9.331,4.253 l -1.126,-5.007 c -0.104,-0.461 -0.579,-0.751 -0.915,-1.002 -0.337,-0.252 -0.721,-0.38 -1.105,-0.508 h 13.45 l 0.944,5.01 C 1.399,1.706 0.881,0.666 0,0" /></g><g
           transform="translate(139.1667,46.8561)"
           id="g196"><path
             id="path198"
             style="fill:#010101;fill-opacity:1;fill-rule:nonzero;stroke:none"
             d="m 0,0 c -0.567,-1.384 -1.606,-2.076 -3.118,-2.076 -0.412,0 -0.716,0.031 -0.914,0.093 -0.129,0.042 -0.235,0.099 -0.32,0.17 l 1.299,6.964 C -2.012,5.088 -1.278,4.955 -0.852,4.751 -0.076,4.374 0.349,3.644 0.422,2.56 0.481,1.676 0.34,0.823 0,0 m -1.05,12.216 c 0.872,0 1.47,-0.217 1.794,-0.651 C 1.069,11.131 1.254,10.569 1.301,9.879 1.332,9.418 1.297,8.954 1.197,8.485 1.043,7.764 0.752,7.2 0.322,6.793 -0.021,6.47 -0.404,6.261 -0.827,6.165 -1.215,6.076 -1.911,5.99 -2.913,5.904 l 1.133,6.076 c 0.136,0.157 0.379,0.236 0.73,0.236 m 3.907,-7.7 C 2.415,4.87 1.683,5.224 0.66,5.578 1.735,5.84 2.584,6.166 3.208,6.558 4.367,7.28 4.906,8.244 4.825,9.451 4.742,10.695 4.192,11.596 3.175,12.153 2.158,12.71 0.76,12.989 -1.021,12.989 h -0.566 l -0.039,-0.183 0.039,0.21 h -6.425 c 0.386,-0.194 0.772,-0.388 1.025,-0.671 0.254,-0.283 0.569,-0.644 0.495,-1.028 0,0 -0.993,-5.187 -1,-5.211 l -0.039,-0.2 C -7.798,5.743 -8.115,5.691 -8.433,5.641 c 0.286,-0.111 0.57,-0.222 0.77,-0.42 l -1.425,-6.546 c -0.104,-0.461 -0.578,-0.75 -0.915,-1.001 -0.337,-0.252 -0.721,-0.38 -1.104,-0.508 h 6.565 l 0.004,0.02 h 1.932 c 2.523,0 4.289,0.491 5.299,1.472 1.01,0.981 1.472,2.122 1.384,3.423 -0.069,1.031 -0.476,1.843 -1.22,2.435" /></g><g
           transform="translate(201.4891,83.4952)"
           id="g200"><path
             id="path202"
             style="fill:#010101;fill-opacity:1;fill-rule:nonzero;stroke:none"
             d="M 0,0 C 0,-0.643 -0.386,-1.058 -1.159,-1.247 -1.521,-1.336 -2.191,-1.38 -3.17,-1.38 h -1.284 c -0.818,0.244 -1.685,0.38 -2.627,0.41 v 2.715 0.749 c 0,0.174 0.153,0.315 0.342,0.315 h 3.189 c 1.123,0 1.86,-0.033 2.21,-0.099 C -0.447,2.521 0,2.094 0,1.43 Z M 0.849,3.973 C 0.018,4.327 -1.018,4.505 -2.258,4.505 h -9.592 -0.254 c -0.189,0 -0.342,-0.141 -0.342,-0.315 v -5.887 c -0.929,-0.24 -1.92,-0.538 -2.984,-0.897 -3.197,-1.077 -5.75,-1.586 -7.75,-1.777 v 6.116 2.212 c 0,0.302 -0.266,0.548 -0.595,0.548 h -4.174 -10e-4 c -0.328,0 -0.595,-0.246 -0.595,-0.548 v -7.956 c -0.143,0.048 -0.266,0.094 -0.367,0.136 -0.194,0.08 -0.411,-0.062 -0.433,-0.282 l -0.142,-1.398 c -0.012,-0.116 0.036,-0.229 0.125,-0.297 0.143,-0.109 0.401,-0.288 0.817,-0.464 v -0.013 c 0,-0.303 0.267,-0.548 0.595,-0.548 h 4.174 0.001 c 0.179,0 0.339,0.073 0.448,0.188 2.036,0.269 4.699,0.938 8.163,2.302 0.945,0.372 1.85,0.653 2.718,0.857 V -4.106 -6.55 c 0,-0.174 0.153,-0.315 0.342,-0.315 h 4.679 10e-4 v 0 c 0.189,0 0.343,0.141 0.343,0.315 v 3.16 c 0,0.073 0.028,0.14 0.074,0.193 3.468,-0.458 5.933,-2.163 7.381,-3.51 0.11,-0.102 0.258,-0.158 0.411,-0.158 h 1.114 c 0.249,0 0.388,0.277 0.233,0.465 -1.148,1.388 -2.245,2.511 -3.385,3.367 0.812,0.072 1.513,0.235 2.102,0.49 1.108,0.465 1.662,1.207 1.662,2.227 v 2.061 c 0,1.009 -0.554,1.751 -1.662,2.228" /></g><g
           transform="translate(176.4075,74.1146)"
           id="g204"><path
             id="path206"
             style="fill:#010101;fill-opacity:1;fill-rule:nonzero;stroke:none"
             d="m 0,0 c -0.023,0.046 -0.069,0.089 -0.138,0.127 -0.146,0.08 -0.404,0.12 -0.774,0.12 h -2.664 c -0.082,0 -0.148,0.061 -0.148,0.137 v 0.002 c 0,0.075 0.066,0.136 0.148,0.136 h 3.433 c 0.082,0 0.148,0.061 0.148,0.137 v 0.268 c 0,0.075 -0.066,0.136 -0.148,0.136 H -3.606 C -3.831,1.063 -4.008,1.034 -4.139,0.975 -4.207,0.946 -4.267,0.891 -4.317,0.809 -4.377,0.713 -4.408,0.574 -4.408,0.391 c 0,-0.316 0.078,-0.517 0.234,-0.601 0.136,-0.073 0.36,-0.109 0.673,-0.109 h 2.755 c 0.082,0 0.148,-0.061 0.148,-0.136 v -0.03 c 0,-0.076 -0.066,-0.137 -0.148,-0.137 h -3.486 c -0.081,0 -0.148,-0.061 -0.148,-0.136 v -0.316 c 0,-0.076 0.067,-0.137 0.148,-0.137 h 3.491 c 0.216,0 0.382,0.02 0.499,0.059 0.116,0.039 0.203,0.105 0.26,0.198 0.053,0.084 0.08,0.215 0.08,0.392 0,0.104 -0.01,0.211 -0.029,0.323 C 0.05,-0.128 0.027,-0.048 0,0" /></g><g
           transform="translate(181.3978,75.1776)"
           id="g208"><path
             id="path210"
             style="fill:#010101;fill-opacity:1;fill-rule:nonzero;stroke:none"
             d="M 0,0 H -0.451 C -0.496,0 -0.539,-0.019 -0.567,-0.052 L -1.93,-1.63 c -0.057,-0.066 -0.165,-0.069 -0.227,-0.005 l -1.541,1.589 C -3.726,-0.017 -3.766,0 -3.809,0 h -0.538 c -0.129,0 -0.196,-0.141 -0.109,-0.229 l 1.952,-1.959 c 0.049,-0.05 0.052,-0.125 0.007,-0.177 L -3.003,-2.957 C -3.08,-3.046 -3.01,-3.178 -2.886,-3.178 h 0.457 c 0.046,0 0.09,0.02 0.118,0.054 L 0.118,-0.22 C 0.193,-0.13 0.123,0 0,0" /></g><g
           transform="translate(186.4958,74.1146)"
           id="g212"><path
             id="path214"
             style="fill:#010101;fill-opacity:1;fill-rule:nonzero;stroke:none"
             d="m 0,0 c -0.023,0.046 -0.069,0.089 -0.138,0.127 -0.146,0.08 -0.404,0.12 -0.774,0.12 h -2.664 c -0.082,0 -0.148,0.061 -0.148,0.137 v 0.002 c 0,0.075 0.066,0.136 0.148,0.136 h 3.433 c 0.082,0 0.148,0.061 0.148,0.137 v 0.268 c 0,0.075 -0.066,0.136 -0.148,0.136 H -3.606 C -3.831,1.063 -4.008,1.034 -4.139,0.975 -4.207,0.946 -4.267,0.891 -4.317,0.809 -4.377,0.713 -4.408,0.574 -4.408,0.391 c 0,-0.316 0.078,-0.517 0.234,-0.601 0.136,-0.073 0.36,-0.109 0.673,-0.109 h 2.755 c 0.082,0 0.148,-0.061 0.148,-0.136 v -0.03 c 0,-0.076 -0.066,-0.137 -0.148,-0.137 h -3.486 c -0.081,0 -0.148,-0.061 -0.148,-0.136 v -0.316 c 0,-0.076 0.067,-0.137 0.148,-0.137 h 3.491 c 0.216,0 0.382,0.02 0.499,0.059 0.116,0.039 0.203,0.105 0.26,0.198 0.053,0.084 0.08,0.215 0.08,0.392 0,0.104 -0.01,0.211 -0.029,0.323 C 0.05,-0.128 0.027,-0.048 0,0" /></g><g
           transform="translate(191.9981,75.1776)"
           id="g216"><path
             id="path218"
             style="fill:#010101;fill-opacity:1;fill-rule:nonzero;stroke:none"
             d="m 0,0 h -3.563 c -0.082,0 -0.149,0.061 -0.149,0.136 v 0.657 c 0,0.075 -0.066,0.136 -0.148,0.136 h -0.437 c -0.082,0 -0.148,-0.061 -0.148,-0.136 V 0.136 C -4.445,0.061 -4.511,0 -4.593,0 h -0.201 c -0.082,0 -0.148,-0.061 -0.148,-0.136 v -0.282 c 0,-0.076 0.066,-0.137 0.148,-0.137 h 0.201 c 0.082,0 0.148,-0.061 0.148,-0.136 v -0.8 c 0.002,-0.215 0.038,-0.383 0.108,-0.503 0.035,-0.065 0.1,-0.122 0.193,-0.171 0.119,-0.071 0.338,-0.108 0.656,-0.109 H 0 c 0.082,0 0.148,0.061 0.148,0.136 v 0.331 c 0,0.075 -0.066,0.136 -0.148,0.136 h -3.563 c -0.082,0 -0.149,0.061 -0.149,0.137 v 0.843 c 0,0.075 0.067,0.136 0.149,0.136 H 0 c 0.082,0 0.148,0.061 0.148,0.137 v 0.282 C 0.148,-0.061 0.082,0 0,0" /></g><g
           transform="translate(196.7448,74.4729)"
           id="g220"><path
             id="path222"
             style="fill:#010101;fill-opacity:1;fill-rule:nonzero;stroke:none"
             d="m 0,0 c 0,-0.075 -0.066,-0.136 -0.148,-0.136 h -2.896 c -0.082,0 -0.148,0.061 -0.148,0.136 v 0.027 c 0,0.076 0.066,0.137 0.148,0.137 h 2.896 C -0.066,0.164 0,0.103 0,0.027 Z M 0.424,0.628 C 0.326,0.678 0.075,0.703 -0.326,0.705 H -3.192 C -3.436,0.705 -3.617,0.657 -3.734,0.561 -3.862,0.46 -3.925,0.303 -3.925,0.092 V -0.86 c 0,-0.231 0.056,-0.404 0.168,-0.52 0.119,-0.126 0.307,-0.189 0.565,-0.189 h 3.687 c 0.082,0 0.148,0.061 0.148,0.136 v 0.317 c 0,0.075 -0.066,0.136 -0.148,0.136 h -3.539 c -0.082,0 -0.148,0.061 -0.148,0.136 v 0.03 c 0,0.076 0.066,0.137 0.148,0.137 h 3.591 c 0.082,0 0.149,0.061 0.149,0.136 v 0.465 c 0,0.255 -0.025,0.429 -0.073,0.52 C 0.581,0.527 0.515,0.588 0.424,0.628" /></g><g
           transform="translate(203.2192,75.1776)"
           id="g224"><path
             id="path226"
             style="fill:#010101;fill-opacity:1;fill-rule:nonzero;stroke:none"
             d="M 0,0 H -4.892 C -4.974,0 -5.04,-0.061 -5.04,-0.136 v -2.002 c 0,-0.075 0.066,-0.136 0.148,-0.136 h 0.409 c 0.082,0 0.148,0.061 0.148,0.136 v 1.461 c 0,0.075 0.067,0.136 0.149,0.136 h 1.536 c 0.082,0 0.149,-0.061 0.149,-0.136 v -1.461 c 0,-0.075 0.066,-0.136 0.148,-0.136 h 0.409 c 0.082,0 0.148,0.061 0.148,0.136 v 1.461 c 0,0.075 0.067,0.136 0.149,0.136 h 1.499 C -0.066,-0.541 0,-0.602 0,-0.677 v -1.461 c 0,-0.075 0.066,-0.136 0.148,-0.136 h 0.409 c 0.082,0 0.149,0.061 0.149,0.136 v 1.597 c 0,0.164 -0.045,0.29 -0.133,0.379 C 0.479,-0.055 0.288,-0.002 0,0" /></g><g
           transform="translate(192.8843,118.5949)"
           id="g228"><path
             id="path230"
             style="fill:#231f20;fill-opacity:1;fill-rule:evenodd;stroke:none"
             d="M 0,0 C 0.368,-3.952 3.032,-6.541 7.626,-6.594 12.319,-6.648 17.944,-4.04 22.733,0 Z" /></g><g
           transform="translate(211.3744,125.5296)"
           id="g232"><path
             id="path234"
             style="fill:#231f20;fill-opacity:1;fill-rule:nonzero;stroke:none"
             d="m 0,0 c -0.003,-0.003 -0.006,-0.005 -0.009,-0.007 v 5.705 c 0,0.128 0.101,0.233 0.224,0.233 h 1.319 c 0.104,0 0.227,0.067 0.29,0.274 C 1.867,6.35 2.097,7.195 2.247,7.754 2.273,7.726 2.299,7.699 2.324,7.67 3.783,5.927 2.742,2.493 0,0 m 16.977,8.223 c -1.589,0 -2.498,-0.566 -3.014,-1.24 1.896,6.579 -0.775,11.414 -7.07,11.487 -6.736,0.078 -15.391,-5.323 -20.741,-12.579 -0.416,1.686 -2.042,2.332 -3.047,2.332 h -3.675 c -0.305,0 -0.373,-0.096 -0.448,-0.329 -0.076,-0.234 -0.404,-1.466 -0.422,-1.593 -0.018,-0.127 -0.12,-0.288 0.224,-0.288 0.344,0 0.382,-0.048 0.382,-0.343 0,-0.295 0.013,-5.774 0.013,-6.027 0,-0.252 0.14,-0.412 0.316,-0.412 h 1.884 c 0.099,0 0.237,0.098 0.237,0.234 v 2.183 c 0,0.187 0.154,0.219 0.29,0.219 0.137,0 0.239,-0.025 0.303,-0.164 0.036,-0.078 0.389,-0.79 0.698,-1.412 -0.152,-0.356 -0.296,-0.711 -0.423,-1.06 h 1.095 2.437 2.387 3.619 1.137 c 0.127,0 0.234,0.059 0.29,0.22 0.056,0.161 0.447,1.553 0.474,1.702 0.026,0.15 -0.081,0.33 -0.277,0.33 h -1.832 c 0.084,0.48 0.235,0.979 0.453,1.482 h 1.129 c 0.132,0 0.229,0.073 0.277,0.234 0.056,0.192 0.253,0.956 0.276,1.071 0.023,0.115 -0.082,0.274 -0.276,0.274 h -0.519 c 0.432,0.616 0.955,1.215 1.563,1.767 0.268,0.244 0.542,0.467 0.82,0.674 L -4.466,1.214 c 0,-0.26 0.202,-0.471 0.451,-0.471 h 1.455 v -1.278 c 0,-0.129 0.1,-0.234 0.224,-0.234 h 1.388 0.716 5.06 1.884 2.2 1.095 1.342 c 0.107,0 0.12,0.248 0.066,0.344 -0.039,0.069 -0.28,0.462 -0.551,0.9 0.395,0.602 0.769,1.212 1.114,1.833 0.525,0.947 0.963,1.873 1.325,2.775 -0.001,-0.035 -0.002,-0.069 -0.002,-0.1 V 2.454 c 0,-0.748 0.343,-3.24 3.676,-3.24 3.339,0 3.649,2.451 3.649,3.213 v 2.584 c 0,0.762 -0.31,3.212 -3.649,3.212" /></g><g
           transform="translate(213.5596,141.1999)"
           id="g236"><path
             id="path238"
             style="fill:#bfbfbf;fill-opacity:1;fill-rule:evenodd;stroke:none"
             d="m 0,0 c 0.06,0.204 0.1,0.278 0.222,0.382 0.123,0.103 0.734,0.34 0.929,0.34 0.194,0 0.289,-0.09 0.222,-0.286 C 1.306,0.24 -0.994,-6.213 -1.072,-6.431 -1.093,-6.489 -1.2,-6.556 -1.254,-6.556 c -0.078,0 -0.301,0.225 -0.338,0.276 -0.029,0.041 -0.027,0.091 -0.016,0.135 C -1.567,-5.983 -0.06,-0.204 0,0" /></g><g
           transform="translate(221.8431,142.5693)"
           id="g240"><path
             id="path242"
             style="fill:#bfbfbf;fill-opacity:1;fill-rule:evenodd;stroke:none"
             d="m 0,0 c 0.037,-0.014 0.196,-0.138 0.039,-0.347 -0.157,-0.21 -5.644,-6.817 -5.707,-6.888 h -1.079 c -0.142,0 -0.191,-0.087 -0.216,-0.164 -0.024,-0.076 -0.48,-1.711 -0.51,-1.819 -0.029,-0.107 -0.117,-0.163 -0.23,-0.163 h -0.515 c -0.324,0 -0.53,0.322 -0.53,0.49 v 0.245 c 0,0.261 3.423,8.196 3.472,8.319 0.049,0.123 0.128,0.209 0.177,0.225 C -4.06,0.245 -1.373,0.497 0,0" /></g><g
           transform="translate(189.2362,121.6997)"
           id="g244"><path
             id="path246"
             style="fill:#231f20;fill-opacity:1;fill-rule:evenodd;stroke:none"
             d="m 0,0 c 0,1.473 1.319,2.051 1.857,2.051 0.194,0 0.301,-0.034 0.301,-0.232 V 1.274 C 2.158,1.177 2.153,1.08 1.958,1.08 1.764,1.08 1.04,0.772 1.04,0.055 c 0,-0.728 0.575,-1.07 0.902,-1.07 0.149,0 0.189,-0.077 0.189,-0.205 V -1.894 C 2.131,-1.976 2.056,-2.017 1.85,-2.017 1.281,-2.017 0,-1.398 0,0" /></g><g
           transform="translate(193.1262,120.705)"
           id="g248"><path
             id="path250"
             style="fill:#231f20;fill-opacity:1;fill-rule:evenodd;stroke:none"
             d="M 0,0 C -0.255,0 -0.284,0.184 -0.284,0.235 V 1.87 c 0,0.107 0.044,0.143 0.318,0.143 0.29,0 0.898,-0.22 0.898,-0.996 C 0.932,0.286 0.24,0 0,0 m -0.033,3.059 h -1.092 c -0.081,0 -0.209,-0.078 -0.209,-0.238 v -3.618 c 0,-0.119 0.1,-0.225 0.209,-0.225 h 1.138 c 0.791,0 2.001,0.756 2.001,2.071 0,1.172 -1.131,2.01 -2.047,2.01" /></g><g
           transform="translate(195.9702,121.1709)"
           id="g252"><path
             id="path254"
             style="fill:#231f20;fill-opacity:1;fill-rule:evenodd;stroke:none"
             d="M 0,0 C 0.306,0 0.555,0.246 0.555,0.549 0.555,0.852 0.306,1.098 0,1.098 -0.306,1.098 -0.555,0.852 -0.555,0.549 -0.555,0.246 -0.306,0 0,0" /></g><g
           transform="translate(198.1081,121.7831)"
           id="g256"><path
             id="path258"
             style="fill:#231f20;fill-opacity:1;fill-rule:evenodd;stroke:none"
             d="m 0,0 c -0.108,0 -0.154,0.086 -0.167,0.133 -0.054,0.204 -0.049,0.45 0,0.618 C -0.156,0.787 -0.118,0.889 0,0.889 0.118,0.889 0.417,0.726 0.417,0.445 0.417,0.164 0.108,0 0,0 m 1.138,-0.654 c 0,0.148 0.379,0.445 0.379,1.068 0,1.328 -1.149,1.553 -1.667,1.553 h -0.922 c -0.131,0 -0.209,-0.087 -0.209,-0.225 v -3.679 c 0,-0.148 0.089,-0.272 0.183,-0.272 h 0.693 c 0.109,0 0.202,0.083 0.202,0.191 v 0.606 c 0,0.126 0.046,0.191 0.196,0.191 0.184,0 0.399,-0.067 0.399,-0.588 v -0.134 c 0,-0.166 0.113,-0.28 0.216,-0.28 h 0.608 c 0.177,0 0.248,0.087 0.248,0.205 v 0.163 c 0,0.869 -0.326,1.022 -0.326,1.14 z" /></g><g
           transform="translate(202.0177,120.596)"
           id="g260"><path
             id="path262"
             style="fill:#231f20;fill-opacity:1;fill-rule:evenodd;stroke:none"
             d="m 0,0 c -0.635,0 -1.151,0.482 -1.151,1.076 0,0.595 0.516,1.077 1.151,1.077 0.635,0 1.151,-0.482 1.151,-1.077 C 1.151,0.482 0.635,0 0,0 m 0.013,3.188 c -1.205,0 -2.182,-0.958 -2.182,-2.139 0,-1.181 0.977,-2.139 2.182,-2.139 1.205,0 2.182,0.958 2.182,2.139 0,1.181 -0.977,2.139 -2.182,2.139" /></g><g
           transform="translate(206.9734,123.5767)"
           id="g264"><path
             id="path266"
             style="fill:#231f20;fill-opacity:1;fill-rule:evenodd;stroke:none"
             d="m 0,0 c 0.235,0 0.152,0.194 1,0.194 0.922,0 1.511,-0.679 1.511,-1.206 v -2.841 c 0,-0.087 -0.03,-0.173 -0.157,-0.173 H 1.628 c -0.128,0 -0.167,0.086 -0.167,0.173 v 2.524 c 0,0.169 -0.113,0.491 -0.451,0.491 -0.338,0 -0.471,-0.266 -0.471,-0.434 v -2.54 c 0,-0.097 -0.103,-0.204 -0.255,-0.204 h -0.617 c -0.138,0 -0.226,0.107 -0.226,0.225 v 2.585 c 0,0.245 -0.152,0.378 -0.451,0.378 -0.299,0 -0.441,-0.271 -0.441,-0.429 v -2.575 c 0,-0.118 -0.084,-0.184 -0.216,-0.184 h -0.638 c -0.157,0 -0.215,0.117 -0.215,0.225 v 2.698 c 0,0.332 0.235,1.297 1.569,1.297 C -0.211,0.204 -0.235,0 0,0" /></g><g
           transform="translate(211.386,120.5483)"
           id="g268"><path
             id="path270"
             style="fill:#231f20;fill-opacity:1;fill-rule:evenodd;stroke:none"
             d="m 0,0 h 1.053 c 0.157,0 0.32,0.095 0.32,0.293 0,0.278 -0.367,0.302 -0.615,0.375 -0.259,0.076 -1.019,0.357 -1.019,1.274 0,0.928 0.833,1.212 1.353,1.212 h 0.556 c 0.16,0 0.255,-0.092 0.255,-0.252 V 2.425 C 1.903,2.282 1.795,2.187 1.693,2.187 H 1.183 C 1.004,2.187 0.85,2.063 0.85,1.914 0.85,1.536 1.197,1.611 1.419,1.54 1.651,1.465 2.484,1.26 2.484,0.32 2.484,-0.502 1.955,-1.001 1.19,-1.001 h -1.249 c -0.114,0 -0.202,0.085 -0.202,0.238 v 0.518 C -0.261,-0.083 -0.18,0 0,0" /></g><g
           transform="translate(214.6615,121.5225)"
           id="g272"><path
             id="path274"
             style="fill:#231f20;fill-opacity:1;fill-rule:evenodd;stroke:none"
             d="m 0,0 c 0,0.107 -0.021,0.167 -0.065,0.273 -0.045,0.105 -0.858,1.476 -0.903,1.601 -0.044,0.124 -0.07,0.151 -0.052,0.224 0.018,0.074 0.077,0.075 0.131,0.075 h 0.771 c 0.072,0 0.107,-0.025 0.131,-0.054 0.025,-0.029 0.412,-0.566 0.49,-0.566 0.079,0 0.422,0.51 0.452,0.539 0.029,0.029 0.088,0.075 0.156,0.075 h 0.674 c 0.072,0 0.126,0 0.185,-0.082 C 2.013,2.024 1.987,1.908 1.955,1.799 1.922,1.69 1.168,0.343 1.131,0.266 1.087,0.174 1.059,0.118 1.059,0.014 v -1.797 c 0,-0.126 -0.046,-0.2 -0.144,-0.2 H 0.163 c -0.101,0 -0.156,0.094 -0.156,0.218 C 0.007,-1.64 0,-0.107 0,0" /></g><g
           transform="translate(216.8092,120.5347)"
           id="g276"><path
             id="path278"
             style="fill:#231f20;fill-opacity:1;fill-rule:evenodd;stroke:none"
             d="m 0,0 h 1.053 c 0.157,0 0.32,0.095 0.32,0.293 0,0.278 -0.367,0.302 -0.615,0.375 -0.259,0.076 -1.02,0.357 -1.02,1.274 0,0.928 0.834,1.212 1.354,1.212 h 0.556 c 0.16,0 0.255,-0.092 0.255,-0.252 V 2.425 C 1.903,2.282 1.795,2.187 1.693,2.187 H 1.183 C 1.004,2.187 0.85,2.063 0.85,1.914 0.85,1.536 1.197,1.611 1.419,1.54 1.651,1.465 2.484,1.26 2.484,0.32 2.484,-0.502 1.955,-1.002 1.19,-1.002 h -1.249 c -0.114,0 -0.203,0.086 -0.203,0.239 v 0.518 C -0.262,-0.083 -0.18,0 0,0" /></g><g
           transform="translate(219.0307,123.3947)"
           id="g280"><path
             id="path282"
             style="fill:#231f20;fill-opacity:1;fill-rule:evenodd;stroke:none"
             d="M 0,0 C -0.001,0.162 0.125,0.294 0.281,0.294 H 2.795 C 2.95,0.294 3.077,0.162 3.077,0 v -0.413 c 0,-0.162 -0.127,-0.294 -0.282,-0.294 H 2.294 c -0.155,0 -0.282,-0.133 -0.282,-0.294 v -2.6 c 0,-0.162 -0.127,-0.295 -0.283,-0.295 H 1.281 c -0.156,0 -0.283,0.133 -0.283,0.295 v 2.6 c 0,0.161 -0.127,0.294 -0.282,0.294 H 0.287 c -0.155,0 -0.283,0.132 -0.284,0.294 z" /></g><g
           transform="translate(222.5932,123.7094)"
           id="g284"><path
             id="path286"
             style="fill:#231f20;fill-opacity:1;fill-rule:evenodd;stroke:none"
             d="m 0,0 c -0.155,0 -0.283,-0.132 -0.283,-0.294 v -3.608 c 0,-0.162 0.128,-0.295 0.283,-0.295 h 2.083 c 0.155,0 0.282,0.133 0.282,0.295 v 0.433 c 0,0.162 -0.127,0.294 -0.282,0.294 H 1.085 c -0.178,0 -0.282,0.121 -0.282,0.269 0,0.195 0.085,0.269 0.282,0.269 h 0.449 c 0.155,0 0.282,0.133 0.282,0.295 v 0.46 c 0,0.162 -0.127,0.295 -0.282,0.295 H 1.079 c -0.204,0 -0.283,0.102 -0.283,0.282 0,0.188 0.085,0.283 0.283,0.283 h 0.984 c 0.156,0 0.283,0.133 0.283,0.294 v 0.434 C 2.346,-0.132 2.219,0 2.063,0 Z" /></g><g
           transform="translate(227.6391,123.5562)"
           id="g288"><path
             id="path290"
             style="fill:#231f20;fill-opacity:1;fill-rule:evenodd;stroke:none"
             d="m 0,0 c 0.235,0 0.152,0.194 1,0.194 0.922,0 1.51,-0.679 1.51,-1.206 V -3.853 C 2.51,-3.94 2.481,-4.026 2.354,-4.026 H 1.628 c -0.128,0 -0.167,0.086 -0.167,0.173 v 2.524 c 0,0.169 -0.113,0.491 -0.451,0.491 -0.338,0 -0.471,-0.266 -0.471,-0.434 v -2.54 c 0,-0.097 -0.103,-0.204 -0.255,-0.204 h -0.617 c -0.138,0 -0.226,0.107 -0.226,0.225 v 2.585 c 0,0.245 -0.152,0.378 -0.451,0.378 -0.299,0 -0.441,-0.271 -0.441,-0.429 v -2.575 c 0,-0.118 -0.084,-0.184 -0.216,-0.184 h -0.638 c -0.157,0 -0.215,0.117 -0.215,0.225 v 2.698 c 0,0.332 0.235,1.297 1.569,1.297 C -0.211,0.204 -0.235,0 0,0" /></g><g
           transform="translate(197.7828,126.8808)"
           id="g292"><path
             id="path294"
             style="fill:#bfbfbf;fill-opacity:1;fill-rule:nonzero;stroke:none"
             d="m 0,0 c 0,0.202 0.04,5.939 0.04,6.136 0,0.213 -0.094,0.198 -0.264,0.206 -0.151,0.008 -0.303,0.081 -0.303,0.33 0,0.249 0.346,1.393 0.422,1.647 0.075,0.254 0.112,0.329 0.434,0.329 0.323,0 3.126,-0.049 3.518,-0.054 0.14,0.185 0.219,0.329 0.329,0.329 0.32,0 1.596,-0.014 1.765,-0.014 0.17,0 0.246,-0.094 0.198,-0.274 C 6.091,8.455 5.648,6.811 5.586,6.603 5.523,6.395 5.4,6.328 5.296,6.328 H 2.859 C 2.697,6.328 2.556,6.267 2.556,6.081 V 5.258 c 0,-0.206 0.163,-0.316 0.303,-0.316 H 5.586 C 5.78,4.942 5.885,4.782 5.862,4.667 5.839,4.552 5.643,3.789 5.586,3.597 5.538,3.435 5.441,3.363 5.309,3.363 H 2.859 C 2.697,3.363 2.542,3.274 2.542,3.102 V 2.169 c 0,-0.216 0.165,-0.288 0.264,-0.288 H 5.559 C 5.755,1.881 5.862,1.7 5.836,1.551 5.81,1.402 5.418,0.01 5.362,-0.151 5.306,-0.312 5.199,-0.371 5.072,-0.371 H 0.316 C 0.114,-0.371 0,-0.202 0,0" /></g><g
           transform="translate(201.9589,136.0413)"
           id="g296"><path
             id="path298"
             style="fill:#231f20;fill-opacity:1;fill-rule:nonzero;stroke:none"
             d="m 0,0 c -0.203,0 -0.323,-0.165 -0.439,-0.325 0,-0.001 -0.001,-0.002 -0.002,-0.003 -0.189,0.003 -0.528,0.009 -0.923,0.015 -0.957,0.017 -2.267,0.038 -2.483,0.038 -0.431,0 -0.55,-0.153 -0.652,-0.496 l -0.013,-0.042 c -0.29,-0.97 -0.419,-1.487 -0.419,-1.676 0,-0.333 0.199,-0.55 0.52,-0.567 l 0.043,-10e-4 c 0.001,-10e-4 0.002,-10e-4 0.003,-10e-4 -10e-4,-0.247 -0.01,-1.646 -0.019,-3.002 -0.01,-1.474 -0.02,-2.998 -0.02,-3.101 0,-0.352 0.229,-0.608 0.544,-0.608 h 4.756 c 0.237,0 0.421,0.137 0.504,0.377 0.052,0.149 0.452,1.557 0.484,1.74 0.026,0.146 -0.015,0.304 -0.109,0.422 -0.097,0.121 -0.236,0.188 -0.392,0.188 H -1.37 c -0.036,10e-4 -0.036,0.03 -0.036,0.05 v 0.934 c 0.004,0.004 0.035,0.023 0.089,0.023 h 2.45 c 0.239,0 0.419,0.146 0.494,0.401 0.057,0.191 0.257,0.967 0.282,1.092 C 1.934,-4.417 1.9,-4.283 1.816,-4.175 1.72,-4.052 1.572,-3.981 1.41,-3.981 h -2.727 c -0.001,0 -0.075,10e-4 -0.075,0.078 v 0.824 0 c 0.013,0.004 0.037,0.009 0.075,0.009 H 1.12 c 0.234,0 0.424,0.165 0.507,0.441 0.064,0.213 0.51,1.866 0.556,2.04 0.054,0.204 -10e-4,0.336 -0.055,0.411 -0.055,0.075 -0.162,0.164 -0.363,0.164 -0.071,0 -0.338,0.003 -0.647,0.006 C 0.691,-0.005 0.185,0 0,0 m 0,-0.238 c 0.319,0 1.596,-0.013 1.765,-0.013 0.17,0 0.246,-0.095 0.198,-0.275 C 1.915,-0.706 1.472,-2.35 1.41,-2.558 1.347,-2.765 1.224,-2.832 1.12,-2.832 h -2.437 c -0.162,0 -0.303,-0.062 -0.303,-0.247 v -0.824 c 0,-0.206 0.163,-0.316 0.303,-0.316 H 1.41 c 0.194,0 0.299,-0.159 0.276,-0.274 C 1.663,-4.608 1.467,-5.371 1.41,-5.564 1.362,-5.725 1.265,-5.797 1.133,-5.797 h -2.45 c -0.162,0 -0.317,-0.09 -0.317,-0.261 v -0.934 c 0,-0.216 0.165,-0.288 0.264,-0.288 h 2.753 c 0.196,0 0.303,-0.18 0.277,-0.329 C 1.634,-7.759 1.242,-9.15 1.186,-9.312 1.13,-9.473 1.023,-9.531 0.896,-9.531 H -3.86 c -0.202,0 -0.316,0.168 -0.316,0.37 0,0.203 0.039,5.939 0.039,6.137 0,0.213 -0.093,0.197 -0.263,0.206 -0.151,0.007 -0.303,0.08 -0.303,0.329 0,0.249 0.346,1.394 0.422,1.647 0.075,0.254 0.112,0.33 0.434,0.33 0.323,0 3.126,-0.05 3.518,-0.055 0.14,0.185 0.219,0.329 0.329,0.329" /></g><g
           transform="translate(192.4337,131.0506)"
           id="g300"><path
             id="path302"
             style="fill:#bfbfbf;fill-opacity:1;fill-rule:nonzero;stroke:none"
             d="M 0,0 H -0.924 C -1.057,0 -1.141,0.036 -1.141,0.17 V 2.1 c 0,0.129 0.084,0.201 0.217,0.201 h 0.87 c 0.089,0 1.175,0 1.175,-1.143 C 1.121,0.093 0.321,0 0,0 m 1.948,-1.932 c -0.038,0.06 -0.089,0.118 0.04,0.274 0.283,0.344 1.528,0.92 1.528,2.924 0,2.327 -1.99,3.185 -3.149,3.185 H -3.308 C -3.613,4.451 -3.68,4.355 -3.756,4.122 -3.832,3.888 -4.16,2.656 -4.178,2.529 -4.196,2.402 -4.298,2.241 -3.954,2.241 c 0.344,0 0.382,-0.048 0.382,-0.343 0,-0.295 0.013,-5.774 0.013,-6.027 0,-0.252 0.14,-0.411 0.317,-0.411 h 1.883 c 0.099,0 0.238,0.097 0.238,0.233 v 2.183 c 0,0.187 0.153,0.219 0.289,0.219 0.137,0 0.239,-0.025 0.303,-0.164 0.065,-0.139 1.142,-2.307 1.173,-2.362 0.031,-0.055 0.087,-0.109 0.197,-0.109 h 2.438 c 0.107,0 0.12,0.247 0.065,0.343 -0.094,0.167 -1.358,2.205 -1.396,2.265" /></g><g
           transform="translate(191.5205,133.1142)"
           id="g304"><path
             id="path306"
             style="fill:#231f20;fill-opacity:1;fill-rule:nonzero;stroke:none"
             d="m 0,0 h 0.859 c 0.285,0 0.948,-0.088 0.948,-0.905 0,-0.611 -0.301,-0.921 -0.894,-0.921 H 0 Z m 1.28,2.625 h -3.675 c -0.422,0 -0.563,-0.18 -0.664,-0.491 C -3.126,1.928 -3.467,0.659 -3.49,0.501 -3.492,0.488 -3.495,0.475 -3.498,0.461 -3.518,0.38 -3.553,0.23 -3.452,0.095 c 0.104,-0.139 0.285,-0.155 0.411,-0.155 0.078,0 0.124,-0.003 0.152,-0.006 10e-4,-0.021 0.003,-0.053 0.003,-0.1 0,-0.153 0.003,-1.706 0.007,-3.199 0.003,-1.379 0.006,-2.706 0.006,-2.827 0,-0.376 0.229,-0.65 0.544,-0.65 h 1.884 c 0.219,0 0.465,0.202 0.465,0.471 v 2.161 c 0.013,0.002 0.033,0.004 0.062,0.004 0.067,0 0.083,-0.008 0.085,-0.009 0,0 0.005,-0.005 0.012,-0.021 0.063,-0.135 1.145,-2.315 1.182,-2.379 0.083,-0.146 0.223,-0.227 0.394,-0.227 h 2.437 c 0.109,0 0.208,0.063 0.265,0.167 0.081,0.148 0.08,0.388 -0.003,0.535 -0.097,0.171 -1.251,2.032 -1.389,2.253 0.003,0.004 0.006,0.007 0.009,0.011 0.039,0.048 0.121,0.116 0.216,0.195 0.477,0.399 1.367,1.141 1.367,2.884 0,2.36 -1.975,3.422 -3.377,3.422 m -1.291,-4.689 h 0.924 c 0.321,0 1.122,0.093 1.122,1.159 0,1.143 -1.087,1.143 -1.176,1.143 h -0.87 c -0.133,0 -0.217,-0.073 -0.217,-0.201 v -1.931 c 0,-0.134 0.084,-0.17 0.217,-0.17 M 1.28,2.388 c 1.16,0 3.149,-0.858 3.149,-3.185 0,-2.004 -1.245,-2.581 -1.528,-2.924 C 2.772,-3.877 2.823,-3.936 2.861,-3.996 2.899,-4.056 4.163,-6.093 4.258,-6.261 4.312,-6.357 4.299,-6.604 4.192,-6.604 H 1.755 c -0.111,0 -0.167,0.055 -0.198,0.11 -0.031,0.055 -1.108,2.222 -1.172,2.361 -0.065,0.139 -0.167,0.165 -0.303,0.165 -0.137,0 -0.29,-0.033 -0.29,-0.22 v -2.183 c 0,-0.135 -0.138,-0.233 -0.237,-0.233 h -1.884 c -0.176,0 -0.316,0.16 -0.316,0.412 0,0.252 -0.013,5.731 -0.013,6.026 0,0.295 -0.038,0.344 -0.383,0.344 -0.344,0 -0.242,0.161 -0.223,0.288 0.018,0.127 0.345,1.359 0.421,1.592 0.076,0.234 0.143,0.33 0.448,0.33 H 1.28" /></g><g
           transform="translate(217.7665,131.0506)"
           id="g308"><path
             id="path310"
             style="fill:#bfbfbf;fill-opacity:1;fill-rule:nonzero;stroke:none"
             d="M 0,0 H -0.924 C -1.057,0 -1.141,0.036 -1.141,0.17 V 2.1 c 0,0.129 0.084,0.201 0.217,0.201 h 0.87 c 0.089,0 1.175,0 1.175,-1.143 C 1.121,0.093 0.321,0 0,0 m 1.948,-1.932 c -0.038,0.06 -0.089,0.118 0.04,0.274 0.283,0.344 1.528,0.92 1.528,2.924 0,2.327 -1.99,3.185 -3.149,3.185 H -3.308 C -3.613,4.451 -3.68,4.355 -3.756,4.122 -3.832,3.888 -4.16,2.656 -4.178,2.529 -4.196,2.402 -4.298,2.241 -3.954,2.241 c 0.344,0 0.382,-0.048 0.382,-0.343 0,-0.295 0.013,-5.774 0.013,-6.027 0,-0.252 0.14,-0.411 0.317,-0.411 h 1.883 c 0.099,0 0.238,0.097 0.238,0.233 v 2.183 c 0,0.187 0.153,0.219 0.289,0.219 0.137,0 0.239,-0.025 0.303,-0.164 0.065,-0.139 1.142,-2.307 1.173,-2.362 0.031,-0.055 0.087,-0.109 0.197,-0.109 h 2.438 c 0.107,0 0.12,0.247 0.065,0.343 -0.094,0.167 -1.358,2.205 -1.396,2.265" /></g><g
           transform="translate(216.8533,133.1142)"
           id="g312"><path
             id="path314"
             style="fill:#231f20;fill-opacity:1;fill-rule:nonzero;stroke:none"
             d="m 0,0 h 0.859 c 0.285,0 0.948,-0.088 0.948,-0.905 0,-0.611 -0.301,-0.921 -0.894,-0.921 H 0 Z m 1.28,2.625 h -3.675 c -0.422,0 -0.563,-0.18 -0.664,-0.491 C -3.126,1.928 -3.467,0.659 -3.49,0.501 -3.492,0.488 -3.495,0.475 -3.498,0.461 -3.518,0.38 -3.553,0.23 -3.452,0.095 c 0.104,-0.139 0.285,-0.155 0.411,-0.155 0.078,0 0.124,-0.003 0.152,-0.006 10e-4,-0.021 0.003,-0.053 0.003,-0.1 0,-0.153 0.003,-1.706 0.007,-3.199 0.003,-1.379 0.006,-2.706 0.006,-2.827 0,-0.376 0.229,-0.65 0.544,-0.65 h 1.884 c 0.219,0 0.465,0.202 0.465,0.471 v 2.161 c 0.013,0.002 0.033,0.004 0.062,0.004 0.067,0 0.083,-0.008 0.085,-0.009 0,0 0.005,-0.005 0.012,-0.021 0.063,-0.135 1.145,-2.315 1.182,-2.379 0.083,-0.146 0.223,-0.227 0.394,-0.227 h 2.437 c 0.109,0 0.208,0.063 0.265,0.167 0.081,0.148 0.08,0.388 -0.003,0.535 -0.097,0.171 -1.251,2.032 -1.389,2.253 0.003,0.004 0.005,0.007 0.009,0.011 0.039,0.048 0.121,0.116 0.216,0.195 0.477,0.399 1.367,1.141 1.367,2.884 0,2.36 -1.975,3.422 -3.377,3.422 m -1.291,-4.689 h 0.924 c 0.321,0 1.122,0.093 1.122,1.159 0,1.143 -1.087,1.143 -1.176,1.143 h -0.87 c -0.133,0 -0.217,-0.073 -0.217,-0.201 v -1.931 c 0,-0.134 0.084,-0.17 0.217,-0.17 M 1.28,2.388 c 1.16,0 3.149,-0.858 3.149,-3.185 0,-2.004 -1.245,-2.581 -1.528,-2.924 C 2.772,-3.877 2.823,-3.936 2.861,-3.996 2.899,-4.056 4.163,-6.093 4.258,-6.261 4.312,-6.357 4.299,-6.604 4.192,-6.604 H 1.755 c -0.111,0 -0.167,0.055 -0.198,0.11 -0.031,0.055 -1.108,2.222 -1.172,2.361 -0.065,0.139 -0.167,0.165 -0.303,0.165 -0.137,0 -0.29,-0.033 -0.29,-0.22 v -2.183 c 0,-0.135 -0.138,-0.233 -0.237,-0.233 h -1.884 c -0.176,0 -0.316,0.16 -0.316,0.412 0,0.252 -0.013,5.731 -0.013,6.026 0,0.295 -0.038,0.344 -0.383,0.344 -0.344,0 -0.242,0.161 -0.223,0.288 0.018,0.127 0.345,1.359 0.421,1.592 0.076,0.234 0.143,0.33 0.448,0.33 H 1.28" /></g><g
           transform="translate(211.8754,135.7901)"
           id="g316"><path
             id="path318"
             style="fill:#bfbfbf;fill-opacity:1;fill-rule:nonzero;stroke:none"
             d="m 0,0 c -0.17,0 -1.446,0.014 -1.765,0.014 -0.111,0 -0.19,-0.144 -0.33,-0.33 -0.392,0.005 -3.194,0.055 -3.517,0.055 -0.323,0 -0.359,-0.075 -0.435,-0.329 -0.075,-0.254 -0.421,-1.399 -0.421,-1.648 0,-0.248 0.151,-0.321 0.303,-0.329 0.065,-0.003 0.118,-0.003 0.16,-0.014 h 1.042 c 0.123,0 0.223,-0.104 0.223,-0.233 v -6.233 c 0,-0.129 0.101,-0.233 0.224,-0.233 h 2.104 c 0.124,0 0.224,0.104 0.224,0.233 v 6.233 c 0,0.129 0.1,0.233 0.224,0.233 h 1.318 c 0.104,0 0.228,0.067 0.29,0.275 0.063,0.207 0.506,1.851 0.554,2.031 C 0.245,-0.094 0.17,0 0,0" /></g><g
           transform="translate(210.1101,136.0413)"
           id="g320"><path
             id="path322"
             style="fill:#231f20;fill-opacity:1;fill-rule:nonzero;stroke:none"
             d="m 0,0 c -0.203,0 -0.323,-0.165 -0.439,-0.325 0,-0.001 -0.001,-0.002 -0.002,-0.003 -0.189,0.003 -0.528,0.009 -0.922,0.015 -0.957,0.016 -2.268,0.038 -2.484,0.038 -0.431,0 -0.55,-0.153 -0.652,-0.496 l -0.013,-0.042 c -0.29,-0.97 -0.419,-1.487 -0.419,-1.676 0,-0.333 0.199,-0.55 0.52,-0.567 l 0.04,-10e-4 c 0.028,-0.002 0.066,-0.003 0.078,-0.006 l 0.026,-0.006 0.027,-10e-4 h 1.042 l -0.004,-6.228 c 0,-0.26 0.202,-0.471 0.451,-0.471 h 2.105 c 0.249,0 0.451,0.211 0.451,0.471 v 6.233 L 1.12,-3.07 c 0.234,0 0.424,0.165 0.507,0.441 0.064,0.212 0.51,1.866 0.556,2.04 0.054,0.204 -10e-4,0.336 -0.055,0.411 -0.055,0.075 -0.162,0.164 -0.363,0.164 -0.071,0 -0.338,0.003 -0.647,0.006 C 0.691,-0.005 0.185,0 0,0 m 0,-0.238 c 0.32,0 1.596,-0.013 1.765,-0.013 0.17,0 0.246,-0.095 0.198,-0.275 C 1.915,-0.706 1.472,-2.35 1.41,-2.558 1.347,-2.765 1.224,-2.832 1.12,-2.832 h -1.319 c -0.124,0 -0.224,-0.104 -0.224,-0.233 v -6.233 c 0,-0.129 -0.1,-0.233 -0.223,-0.233 h -2.105 c -0.123,0 -0.223,0.104 -0.223,0.233 v 6.233 c 0,0.129 -0.1,0.233 -0.224,0.233 H -4.24 c -0.041,0.01 -0.095,0.01 -0.16,0.014 -0.151,0.007 -0.303,0.08 -0.303,0.329 0,0.249 0.346,1.394 0.422,1.647 0.075,0.254 0.112,0.33 0.434,0.33 0.323,0 3.126,-0.05 3.518,-0.055 0.14,0.185 0.219,0.329 0.329,0.329" /></g><g
           transform="translate(227.924,129.87)"
           id="g324"><path
             id="path326"
             style="fill:#bfbfbf;fill-opacity:1;fill-rule:nonzero;stroke:none"
             d="m 0,0 c 0,-0.225 -0.336,-1.153 -1.265,-1.153 -0.983,0 -1.198,0.923 -1.198,1.139 v 2.283 c 0,0.216 0.215,1.139 1.198,1.139 C -0.336,3.408 0,2.48 0,2.255 Z m -1.252,5.632 c -3.332,0 -3.675,-2.492 -3.675,-3.24 v -2.529 c 0,-0.748 0.343,-3.24 3.675,-3.24 3.34,0 3.65,2.45 3.65,3.212 V 2.42 c 0,0.761 -0.31,3.212 -3.65,3.212" /></g><g
           transform="translate(226.6593,128.9544)"
           id="g328"><path
             id="path330"
             style="fill:#231f20;fill-opacity:1;fill-rule:nonzero;stroke:none"
             d="m 0,0 c -0.883,0 -0.971,0.893 -0.971,0.902 v 2.282 c 0,0.009 0.088,0.902 0.971,0.902 0.8,0 1.035,-0.822 1.037,-0.916 V 0.916 C 1.035,0.822 0.8,0 0,0 m 0.013,6.785 c -2.881,0 -3.903,-1.873 -3.903,-3.477 v -2.53 c 0,-1.604 1.022,-3.477 3.903,-3.477 3.69,0 3.877,2.874 3.877,3.45 v 2.584 c 0,0.576 -0.187,3.45 -3.877,3.45 M 0,-0.238 c 0.929,0 1.265,0.929 1.265,1.154 V 3.17 C 1.265,3.395 0.929,4.323 0,4.323 -0.983,4.323 -1.199,3.4 -1.199,3.184 V 0.902 c 0,-0.216 0.216,-1.14 1.199,-1.14 m 0.013,6.785 c 3.34,0 3.649,-2.45 3.649,-3.212 V 0.751 c 0,-0.762 -0.309,-3.212 -3.649,-3.212 -3.333,0 -3.675,2.491 -3.675,3.239 v 2.53 c 0,0.748 0.342,3.239 3.675,3.239" /></g><g
           transform="translate(199.253,103.9319)"
           id="g332"><path
             id="path334"
             style="fill:#231f20;fill-opacity:1;fill-rule:nonzero;stroke:none"
             d="m 0,0 c 0.206,0.109 0.448,0.05 0.67,0.065 0.227,-0.016 0.474,0.047 0.683,-0.069 0.213,-0.122 0.384,-0.348 0.38,-0.6 0,-0.394 -0.001,-0.787 -0.001,-1.181 -0.231,0 -0.462,0 -0.693,0 0,0.387 0,0.775 -10e-4,1.162 -0.258,0 -0.517,0 -0.775,0 C 0.262,-2.777 0.262,-4.932 0.262,-7.087 h 0.794 c 0,1.044 10e-4,2.088 0,3.131 -0.117,0 -0.233,0 -0.35,0 0,0.208 0,0.416 0,0.624 0.342,0 0.685,10e-4 1.027,-0.001 -0.001,-1.462 -0.001,-2.923 -0.001,-4.385 -0.477,-0.001 -0.955,0 -1.433,-0.001 -0.277,-10e-4 -0.553,0.175 -0.655,0.432 -0.054,0.133 -0.037,0.279 -0.039,0.419 0.001,2.088 0,4.176 0.001,6.264 C -0.393,-0.35 -0.224,-0.115 0,0" /></g><g
           transform="translate(191.0239,102.6867)"
           id="g336"><path
             id="path338"
             style="fill:#231f20;fill-opacity:1;fill-rule:nonzero;stroke:none"
             d="m 0,0 c 0.467,-0.003 0.935,0.005 1.402,-0.004 0.33,-0.005 0.683,-0.253 0.685,-0.603 0.002,-0.647 -0.001,-1.294 10e-4,-1.941 0,-0.109 0.005,-0.22 -0.018,-0.328 -0.052,-0.254 -0.244,-0.49 -0.511,-0.538 0.22,-1.023 0.44,-2.046 0.657,-3.069 -0.211,0.002 -0.422,10e-4 -0.632,10e-4 -0.234,1.011 -0.472,2.02 -0.705,3.03 -0.078,10e-4 -0.155,10e-4 -0.233,10e-4 v -3.031 c -0.215,0 -0.431,0 -0.646,0 0,2.161 0,4.321 0,6.482 m 0.674,-0.64 c 0,-0.706 0,-1.411 0,-2.116 0.25,0 0.499,0 0.749,0 0,0.705 0,1.411 0,2.116 -0.25,0 -0.499,0.001 -0.749,0" /></g><g
           transform="translate(180,103.9955)"
           id="g340"><path
             id="path342"
             style="fill:#231f20;fill-opacity:1;fill-rule:nonzero;stroke:none"
             d="m 0,0 c 0.467,-0.003 0.935,0.006 1.402,-0.004 0.33,-0.007 0.683,-0.305 0.685,-0.725 0.002,-0.778 -0.001,-1.556 10e-4,-2.333 0,-0.132 0.005,-0.265 -0.018,-0.394 -0.052,-0.306 -0.244,-0.589 -0.511,-0.647 0.22,-1.23 0.44,-2.459 0.657,-3.689 -0.211,0.003 -0.422,10e-4 -0.632,10e-4 -0.234,1.215 -0.472,2.428 -0.705,3.643 -0.078,0 -0.155,0 -0.233,0 v -3.643 c -0.215,0 -0.431,0 -0.646,0 0,2.597 0,5.194 0,7.791 m 0.674,-0.769 c 0,-0.848 0,-1.696 0,-2.543 0.25,0 0.499,0 0.749,0 0,0.847 0,1.695 0,2.543 -0.25,0 -0.499,0 -0.749,0" /></g><g
           transform="translate(195.2807,102.6504)"
           id="g344"><path
             id="path346"
             style="fill:#231f20;fill-opacity:1;fill-rule:nonzero;stroke:none"
             d="m 0,0 c 0.199,0.057 0.409,0.03 0.614,0.036 0.225,-0.004 0.468,0.028 0.673,-0.085 0.204,-0.108 0.386,-0.314 0.379,-0.555 -10e-4,-1.709 -10e-4,-3.418 0,-5.127 0.024,-0.335 -0.251,-0.652 -0.579,-0.71 -0.268,-0.012 -0.537,0 -0.805,-0.006 -0.378,-0.031 -0.75,0.301 -0.741,0.68 0.001,1.721 0,3.442 0,5.163 C -0.461,-0.332 -0.252,-0.089 0,0 m 0.252,-0.613 c 0,-1.719 0,-3.437 0,-5.156 0.24,0 0.481,0 0.721,0 0,1.719 0,3.437 0,5.156 H 0.252" /></g><g
           transform="translate(202.7762,102.687)"
           id="g348"><path
             id="path350"
             style="fill:#231f20;fill-opacity:1;fill-rule:nonzero;stroke:none"
             d="m 0,0 c 0.453,0 0.906,0.003 1.358,-0.001 0.28,0.004 0.567,-0.147 0.686,-0.404 0.048,-0.096 0.036,-0.204 0.037,-0.308 -10e-4,-0.672 0,-1.344 0,-2.017 0.002,-0.303 -0.212,-0.616 -0.524,-0.672 0.225,-1.023 0.44,-2.047 0.659,-3.072 -0.212,0 -0.424,0 -0.635,0 -0.236,1.014 -0.473,2.028 -0.708,3.041 -0.075,-0.001 -0.15,-0.001 -0.224,-0.001 -0.001,-1.017 0,-2.033 -0.001,-3.049 -0.216,0 -0.432,-0.001 -0.648,0 0,2.161 0,4.322 0,6.483 m 0.657,-0.633 v -2.104 c 0.252,0 0.505,0 0.757,0 0.001,0.702 0.001,1.403 0,2.104 -0.252,0 -0.505,0 -0.757,0" /></g><g
           transform="translate(206.6121,102.0849)"
           id="g352"><path
             id="path354"
             style="fill:#231f20;fill-opacity:1;fill-rule:nonzero;stroke:none"
             d="M 0,0 C 0.001,0.296 0.25,0.58 0.554,0.592 0.838,0.596 1.122,0.591 1.406,0.594 1.553,0.598 1.707,0.575 1.83,0.491 1.993,0.385 2.082,0.189 2.079,-0.001 c 0,-1.957 0,-3.914 0,-5.871 H 1.442 v 3.077 c -0.266,-10e-4 -0.53,0 -0.795,-10e-4 0.001,-1.025 0.001,-2.05 0,-3.076 L 0,-5.872 V 0 m 0.665,-0.067 c 0,-0.693 0,-1.385 0.001,-2.077 0.252,0 0.504,0 0.756,0 0,0.692 0.001,1.384 0,2.077 -0.252,0 -0.505,0 -0.757,0" /></g><g
           transform="translate(210.3375,102.2629)"
           id="g356"><path
             id="path358"
             style="fill:#231f20;fill-opacity:1;fill-rule:nonzero;stroke:none"
             d="m 0,0 c 0.069,0.224 0.28,0.413 0.523,0.415 0.364,0.001 0.729,0 1.093,0 0,-0.192 0,-0.385 0,-0.577 -0.327,-0.001 -0.653,0 -0.98,-0.001 v -2.169 c 0.268,0 0.536,0 0.805,0 v -0.641 c -0.269,0 -0.537,0 -0.805,0 V -6.05 c -0.219,0 -0.438,0 -0.657,10e-4 0,1.906 0.001,3.813 0,5.72 C -0.019,-0.22 -0.033,-0.107 0,0" /></g><g
           transform="translate(213.5791,102.6783)"
           id="g360"><path
             id="path362"
             style="fill:#231f20;fill-opacity:1;fill-rule:nonzero;stroke:none"
             d="m 0,0 h 0.684 c 0.002,-0.593 -0.003,-1.186 0.003,-1.778 0.104,-0.204 0.255,-0.384 0.376,-0.58 0.111,0.17 0.232,0.333 0.34,0.504 0.036,0.046 0.027,0.107 0.03,0.161 C 1.431,-1.128 1.432,-0.564 1.432,0 1.66,0 1.889,0 2.117,0 V -1.289 C 2.115,-1.488 2.136,-1.694 2.063,-1.885 1.912,-2.287 1.684,-2.654 1.456,-3.017 c 0.256,-0.41 0.537,-0.825 0.655,-1.299 0.015,-0.719 0.002,-1.439 0.006,-2.159 -0.213,10e-4 -0.426,0 -0.639,10e-4 -0.002,0.722 0.005,1.444 -0.003,2.166 -0.107,0.219 -0.267,0.41 -0.398,0.617 C 0.952,-3.896 0.797,-4.082 0.68,-4.292 0.669,-5.019 0.679,-5.747 0.676,-6.474 0.451,-6.475 0.225,-6.475 0,-6.474 c 0.001,0.702 -0.004,1.404 0.002,2.106 0.062,0.334 0.255,0.625 0.419,0.918 0.09,0.149 0.184,0.295 0.282,0.439 -0.22,0.323 -0.436,0.65 -0.599,1.005 C 0.051,-1.884 -0.003,-1.758 0,-1.623 0,-1.082 0,-0.541 0,0" /></g><g
           transform="translate(185.6947,102.0468)"
           id="g364"><path
             id="path366"
             style="fill:#231f20;fill-opacity:1;fill-rule:nonzero;stroke:none"
             d="m 0,0 h 0.001 v 0.641 c 0,0 -1.014,-0.001 -1.64,-0.001 -0.245,0 -0.443,-0.197 -0.443,-0.44 -0.001,-1.867 0,-3.735 0,-5.603 0,-0.243 0.198,-0.439 0.442,-0.44 0.629,0 1.641,-0.002 1.641,-0.002 v 0.643 c 0,0 -1.328,0 -1.409,0 -0.001,0 -0.001,0 -0.001,0 0,0.803 0,1.606 0.001,2.409 0.249,0 1.381,0 1.381,0 v 0.677 h -1.381 -0.001 v 0 0 c 0.001,0.706 0,1.411 0,2.116 z" /></g><g
           transform="translate(189.1792,102.6866)"
           id="g368"><path
             id="path370"
             style="fill:#231f20;fill-opacity:1;fill-rule:nonzero;stroke:none"
             d="m 0,0 h -2.087 v -0.733 h 0.707 v -5.751 h 0.673 v 5.751 H 0 Z" /></g><path
           id="path372"
           style="fill:#231f20;fill-opacity:1;fill-rule:nonzero;stroke:none"
           d="m 221.727,98.086 h 0.765 v 2.628 h -0.765 z" /><g
           transform="translate(223.257,98.0863)"
           id="g374"><path
             id="path376"
             style="fill:#231f20;fill-opacity:1;fill-rule:nonzero;stroke:none"
             d="m 0,0 c 0,-0.096 -0.074,-0.177 -0.222,-0.244 -0.149,-0.066 -0.329,-0.1 -0.543,-0.1 h -1.53 v 3.316 h 1.53 c 0.214,0 0.394,-0.034 0.543,-0.1 C -0.074,2.805 0,2.724 0,2.628 Z m -2.873,2.108 h -0.765 v 0.52 H -4.403 V 0 h 0.765 v 0.52 h 0.765 V 0.144 c 0,-0.071 -0.032,-0.138 -0.094,-0.2 -0.062,-0.062 -0.144,-0.116 -0.248,-0.162 -0.103,-0.047 -0.224,-0.084 -0.361,-0.112 -0.138,-0.028 -0.286,-0.041 -0.445,-0.041 -0.158,0 -0.307,0.013 -0.444,0.041 -0.138,0.028 -0.259,0.065 -0.362,0.112 -0.103,0.046 -0.186,0.1 -0.248,0.162 -0.062,0.062 -0.093,0.129 -0.093,0.2 v 2.34 c 0,0.071 0.031,0.138 0.093,0.2 0.062,0.062 0.145,0.116 0.248,0.162 0.103,0.047 0.224,0.084 0.362,0.112 C -4.328,2.986 -4.179,3 -4.021,3 -3.862,3 -3.714,2.986 -3.576,2.958 -3.439,2.93 -3.318,2.893 -3.215,2.846 -3.111,2.8 -3.029,2.746 -2.967,2.684 -2.905,2.622 -2.873,2.555 -2.873,2.484 Z M 0.494,2.631 C 0.254,3.219 -0.15,3.741 -0.668,4.115 -1.407,4.66 -2.372,4.888 -3.28,4.738 -4.117,4.61 -4.895,4.157 -5.425,3.502 -6.184,2.589 -6.395,1.275 -5.981,0.168 c 0.357,-0.985 1.194,-1.781 2.201,-2.094 0.901,-0.283 1.919,-0.19 2.744,0.271 0.717,0.395 1.287,1.049 1.566,1.815 0.297,0.79 0.282,1.689 -0.036,2.471" /></g></g></g></g></svg>