<?xml version="1.0" encoding="UTF-8" standalone="no"?>
<svg
   xmlns:dc="http://purl.org/dc/elements/1.1/"
   xmlns:cc="http://creativecommons.org/ns#"
   xmlns:rdf="http://www.w3.org/1999/02/22-rdf-syntax-ns#"
   xmlns:svg="http://www.w3.org/2000/svg"
   xmlns="http://www.w3.org/2000/svg"
   viewBox="0 0 341.33334 341.33334"
   height="256"
   width="256"
   xml:space="preserve"
   id="svg2"
   version="1.1"><metadata
     id="metadata8"><rdf:RDF><cc:Work
         rdf:about=""><dc:format>image/svg+xml</dc:format><dc:type
           rdf:resource="http://purl.org/dc/dcmitype/StillImage" /></cc:Work></rdf:RDF></metadata><defs
     id="defs6"><clipPath
       id="clipPath18"
       clipPathUnits="userSpaceOnUse"><path
         id="path16"
         d="M 0,256 H 256 V 0 H 0 Z" /></clipPath><clipPath
       id="clipPath26"
       clipPathUnits="userSpaceOnUse"><path
         id="path24"
         d="M 4,252 H 252 V 4 H 4 Z" /></clipPath></defs><g
     transform="matrix(1.3333333,0,0,-1.3333333,0,341.33333)"
     id="g10"><g
       id="g12"><g
         clip-path="url(#clipPath18)"
         id="g14"><g
           id="g20"><g
             id="g22" /><g
             id="g34"><g
               style="opacity:0.5"
               id="g32"
               clip-path="url(#clipPath26)"><g
                 id="g30"
                 transform="translate(252,128)"><path
                   id="path28"
                   style="fill:#ffffff;fill-opacity:1;fill-rule:nonzero;stroke:none"
                   d="m 0,0 c 0,-68.483 -55.517,-124 -124,-124 -68.483,0 -124,55.517 -124,124 0,68.483 55.517,124 124,124 C -55.517,124 0,68.483 0,0" /></g></g></g></g><g
           transform="translate(128.0024,113.5)"
           id="g36"><path
             id="path38"
             style="fill:#e6e6e6;fill-opacity:1;fill-rule:nonzero;stroke:none"
             d="m 0,0 c -7.994,0 -14.51,6.501 -14.51,14.5 0,8.004 6.516,14.51 14.51,14.51 7.999,0 14.5,-6.506 14.5,-14.51 C 14.5,6.501 7.999,0 0,0 m 0.001,60.338 c -25.273,0 -45.838,-20.578 -45.838,-45.838 0,-25.26 20.565,-45.838 45.838,-45.838 25.247,0 45.831,20.578 45.831,45.838 0,25.26 -20.584,45.838 -45.831,45.838" /></g><g
           transform="translate(128,84.4951)"
           id="g40"><path
             id="path42"
             style="fill:#d9d9d9;fill-opacity:1;fill-rule:nonzero;stroke:none"
             d="M 0,0 C -23.993,0 -43.505,19.517 -43.505,43.505 -43.505,67.493 -23.993,87.01 0,87.01 23.988,87.01 43.5,67.493 43.5,43.505 43.5,19.517 23.988,0 0,0 m 0,159.505 c -64.071,0 -116,-51.934 -116,-116 0,-64.066 51.929,-116 116,-116 64.051,0 116,51.934 116,116 0,64.066 -51.949,116 -116,116" /></g><g
           transform="translate(212,142)"
           id="g44"><path
             id="path46"
             style="fill:#bfbfbf;fill-opacity:1;fill-rule:nonzero;stroke:none"
             d="M 0,0 V -5.027 -5.742 -22.997 -23.61 -28 h 20 v 4.39 0.613 17.255 0.715 V 0 Z" /></g><path
           id="path48"
           style="fill:#e6e6e6;fill-opacity:1;fill-rule:nonzero;stroke:none"
           d="m 231.333,119.111 h -18.667 v 17.141 h 18.667 z" /><path
           id="path50"
           style="fill:#bfbfbf;fill-opacity:1;fill-rule:nonzero;stroke:none"
           d="m 212.667,141.36 h 18.667 v -4.387 h -18.667 z" /><g
           transform="translate(214.9354,116.7802)"
           id="g52"><path
             id="path54"
             style="fill:#e6e6e6;fill-opacity:1;fill-rule:nonzero;stroke:none"
             d="M 0,0 H 2.101 V -1.634 C 1.469,-1.759 0.734,-1.841 0.068,-1.841 c -1.469,0 -2.186,0.687 -2.186,1.642 0,0.956 0.717,1.643 2.231,1.643 1.254,0 1.909,-0.316 1.926,-1.046 H 0.525 C 0.52,0.497 0.469,0.562 0.401,0.601 0.333,0.64 0.237,0.657 0.136,0.657 c -0.243,0 -0.401,-0.095 -0.48,-0.22 -0.08,-0.126 -0.102,-0.432 -0.102,-0.696 0,-0.303 0.034,-0.51 0.107,-0.61 0.096,-0.13 0.254,-0.185 0.463,-0.185 0.153,0 0.3,0.017 0.43,0.064 v 0.377 l -0.554,0 z" /></g><g
           transform="translate(219.8126,116.2832)"
           id="g56"><path
             id="path58"
             style="fill:#e6e6e6;fill-opacity:1;fill-rule:nonzero;stroke:none"
             d="M 0,0 -0.322,1.176 H -0.333 L -0.689,0 Z m -1.339,1.859 h 2.096 l 1.31,-3.121 H 0.395 l -0.158,0.501 h -1.169 l -0.164,-0.501 h -1.548 z" /></g><g
           transform="translate(226.0846,117.2514)"
           id="g60"><path
             id="path62"
             style="fill:#e6e6e6;fill-opacity:1;fill-rule:nonzero;stroke:none"
             d="m 0,0 h -0.011 l -0.576,-2.23 h -1.48 L -2.643,0 h -0.012 v -2.23 h -1.367 v 3.12 h 2.243 l 0.446,-1.858 h 0.011 L -0.875,0.89 H 1.367 V -2.23 H 0 Z" /></g><g
           transform="translate(228.0309,118.1419)"
           id="g64"><path
             id="path66"
             style="fill:#e6e6e6;fill-opacity:1;fill-rule:nonzero;stroke:none"
             d="M 0,0 H 3.101 V -0.813 H 1.548 V -1.145 H 2.982 V -1.958 H 1.548 v -0.35 h 1.604 v -0.813 l -3.152,0 z" /></g><g
           transform="translate(215.4938,139.7682)"
           id="g68"><path
             id="path70"
             style="fill:#e6e6e6;fill-opacity:1;fill-rule:nonzero;stroke:none"
             d="m 0,0 c -0.018,0.238 -0.2,0.373 -0.503,0.373 -0.425,0 -0.503,-0.494 -0.503,-0.888 0,-0.384 0.085,-0.837 0.503,-0.837 0.311,0 0.488,0.135 0.503,0.387 h 0.776 c 0.012,-0.665 -0.632,-0.899 -1.279,-0.899 -0.832,0 -1.279,0.493 -1.279,1.378 0,0.885 0.447,1.363 1.279,1.371 0.647,0 1.291,-0.22 1.279,-0.885 z" /></g><g
           transform="translate(216.5455,137.9589)"
           id="g72"><path
             id="path74"
             style="fill:#e6e6e6;fill-opacity:1;fill-rule:nonzero;stroke:none"
             d="M 0,0 V 2.639 H 0.739 V 0.512 h 1.21 L 1.949,0 Z" /></g><g
           transform="translate(220.2812,138.986)"
           id="g76"><path
             id="path78"
             style="fill:#e6e6e6;fill-opacity:1;fill-rule:nonzero;stroke:none"
             d="M 0,0 -0.34,1.097 H -0.351 L -0.714,0 Z m -1.815,-1.027 1.053,2.639 H 0.141 L 1.194,-1.027 H 0.359 l -0.178,0.515 h -1.083 l -0.174,-0.515 z" /></g><g
           transform="translate(223.0599,139.8231)"
           id="g80"><path
             id="path82"
             style="fill:#e6e6e6;fill-opacity:1;fill-rule:nonzero;stroke:none"
             d="m 0,0 c 0.004,0.102 -0.03,0.179 -0.096,0.234 -0.063,0.055 -0.159,0.084 -0.285,0.084 -0.17,0 -0.318,-0.11 -0.318,-0.241 0,-0.194 0.237,-0.256 0.433,-0.307 0.447,-0.114 1.098,-0.158 1.098,-0.87 0,-0.556 -0.555,-0.819 -1.172,-0.819 -0.621,0 -1.169,0.179 -1.18,0.895 h 0.74 c -0.004,-0.248 0.181,-0.383 0.447,-0.383 0.17,0 0.388,0.087 0.388,0.263 0,0.358 -0.547,0.281 -1.127,0.534 -0.27,0.117 -0.404,0.358 -0.404,0.643 0.03,0.625 0.585,0.797 1.143,0.797 0.551,0 1.117,-0.194 1.072,-0.83 z" /></g><g
           transform="translate(225.6012,139.8231)"
           id="g84"><path
             id="path86"
             style="fill:#e6e6e6;fill-opacity:1;fill-rule:nonzero;stroke:none"
             d="m 0,0 c 0.004,0.102 -0.03,0.179 -0.096,0.234 -0.063,0.055 -0.159,0.084 -0.285,0.084 -0.17,0 -0.318,-0.11 -0.318,-0.241 0,-0.194 0.237,-0.256 0.433,-0.307 0.447,-0.114 1.098,-0.158 1.098,-0.87 0,-0.556 -0.555,-0.819 -1.172,-0.819 -0.621,0 -1.169,0.179 -1.18,0.895 h 0.74 c -0.004,-0.248 0.181,-0.383 0.447,-0.383 0.17,0 0.388,0.087 0.388,0.263 0,0.358 -0.547,0.281 -1.127,0.534 -0.27,0.117 -0.404,0.358 -0.404,0.643 0.03,0.625 0.585,0.797 1.143,0.797 0.551,0 1.117,-0.194 1.072,-0.83 z" /></g><path
           id="path88"
           style="fill:#e6e6e6;fill-opacity:1;fill-rule:nonzero;stroke:none"
           d="m 226.712,140.598 h 0.739 v -2.639 h -0.739 z" /><g
           transform="translate(229.5116,139.7682)"
           id="g90"><path
             id="path92"
             style="fill:#e6e6e6;fill-opacity:1;fill-rule:nonzero;stroke:none"
             d="m 0,0 c -0.018,0.238 -0.2,0.373 -0.503,0.373 -0.425,0 -0.503,-0.494 -0.503,-0.888 0,-0.384 0.085,-0.837 0.503,-0.837 0.311,0 0.488,0.135 0.503,0.387 h 0.776 c 0.012,-0.665 -0.632,-0.899 -1.279,-0.899 -0.832,0 -1.279,0.493 -1.279,1.378 0,0.885 0.447,1.363 1.279,1.371 0.647,0 1.291,-0.22 1.279,-0.885 z" /></g><g
           transform="translate(228.6071,128.183)"
           id="g94"><path
             id="path96"
             style="fill:#bfbfbf;fill-opacity:1;fill-rule:nonzero;stroke:none"
             d="m 0,0 c 1.048,-3.44 -1.275,-5.772 -4.405,-6.703 -4.425,-1.317 -7.281,0.736 -8.487,4.695 -1.307,3.854 0.236,7.179 4.503,8.449 3.183,0.947 6.266,0.47 7.399,-3.191 L -5.572,1.887 C -6.073,3.283 -6.682,3.404 -7.294,3.222 -8.588,2.837 -8.311,1.487 -7.7,-0.519 c 0.579,-1.901 1.116,-3.288 2.375,-2.913 0.647,0.192 0.969,0.702 0.639,2.037 z" /></g><g
           transform="translate(191.9873,135.3227)"
           id="g98"><path
             id="path100"
             style="fill:#e6e6e6;fill-opacity:1;fill-rule:nonzero;stroke:none"
             d="m 0,0 c 5.356,0 9.698,-3.279 9.698,-7.322 0,-4.044 -4.342,-7.323 -9.698,-7.323 -5.356,0 -9.698,3.278 -9.698,7.323 C -9.698,-3.279 -5.356,0 0,0" /></g><g
           transform="translate(201.685,128.0541)"
           id="g102"><path
             id="path104"
             style="fill:#bfbfbf;fill-opacity:1;fill-rule:nonzero;stroke:none"
             d="m 0,0 c 0,4.043 -4.342,7.322 -9.698,7.322 -5.355,0 -9.697,-3.279 -9.697,-7.322 0,-4.044 4.342,-7.323 9.697,-7.323 C -4.342,-7.323 0,-4.044 0,0 m 1.155,-0.005 1.16,-1.347 -1.657,-1.078 0.466,-2.085 -1.784,-0.054 -0.122,-2.27 -1.988,0.593 -0.335,-2.143 -1.839,0.792 -0.959,-1.89 -1.437,1.348 -1.252,-1.915 -1.38,1.625 -1.507,-1.517 -0.985,1.787 -1.777,-1.134 -0.614,2.001 -2.058,-0.88 -0.303,1.973 -1.841,-0.124 0.275,2.009 -1.883,0.008 0.44,2.193 -1.46,0.89 1.162,1.432 -1.043,1.99 1.697,0.582 -0.446,2.129 1.861,0.027 0.216,2.112 1.683,-0.606 0.558,2.059 1.7,-0.998 0.704,1.821 1.473,-1.11 1.035,1.731 1.392,-1.508 1.229,1.379 1.078,-1.738 1.684,1.173 0.667,-1.917 1.693,0.868 0.435,-2.001 2.006,0.387 L -0.962,4.631 1.065,4.394 0.49,2.502 2.256,1.682 Z" /></g><g
           transform="translate(183.1235,127.9999)"
           id="g106"><path
             id="path108"
             style="fill:#bfbfbf;fill-opacity:1;fill-rule:nonzero;stroke:none"
             d="m 0,0 c 0,3.57 3.976,6.474 8.864,6.474 4.887,0 8.864,-2.904 8.864,-6.474 0,-3.57 -3.977,-6.474 -8.864,-6.474 C 3.976,-6.474 0,-3.57 0,0 m 8.864,-6.716 c 5.011,0 9.087,3.013 9.087,6.716 0,3.703 -4.076,6.717 -9.087,6.717 -5.011,0 -9.088,-3.013 -9.088,-6.717 0,-3.703 4.077,-6.716 9.088,-6.716" /></g><g
           transform="translate(197.6127,126.4501)"
           id="g110"><path
             id="path112"
             style="fill:#bfbfbf;fill-opacity:1;fill-rule:nonzero;stroke:none"
             d="m 0,0 h -11.348 c -0.958,-0.004 -1.54,0.694 -1.54,1.549 0,0.856 0.586,1.547 1.54,1.549 H 0 C 0.955,3.096 1.54,2.405 1.54,1.549 1.54,0.694 0.958,-0.004 0,0 m 0.005,3.603 h -11.358 c -1.202,0.003 -2.01,-0.934 -2.01,-2.057 0,-1.123 0.806,-2.049 2.011,-2.05 H 0.004 c 1.205,0.001 2.011,0.927 2.011,2.05 0,1.123 -0.807,2.06 -2.01,2.057" /></g><g
           transform="translate(193.7243,128.7659)"
           id="g114"><path
             id="path116"
             style="fill:#bfbfbf;fill-opacity:1;fill-rule:nonzero;stroke:none"
             d="m 0,0 h 0.537 v -0.26 h 0.29 V -0.452 H 0.537 V -1.735 H 0 v 1.283 h -0.291 v 0.192 l 0.291,0 z" /></g><path
           id="path118"
           style="fill:#bfbfbf;fill-opacity:1;fill-rule:nonzero;stroke:none"
           d="m 187.439,128.317 h 0.536 v -1.286 h -0.536 z" /><path
           id="path120"
           style="fill:#bfbfbf;fill-opacity:1;fill-rule:nonzero;stroke:none"
           d="m 187.437,128.965 h 0.537 v -0.395 h -0.537 z" /><g
           transform="translate(197.2962,127.7283)"
           id="g122"><path
             id="path124"
             style="fill:#bfbfbf;fill-opacity:1;fill-rule:nonzero;stroke:none"
             d="m 0,0 v 0 c 0,-0.004 0,-0.195 0,-0.272 0,-0.205 -0.112,-0.289 -0.22,-0.289 -0.107,0 -0.219,0.084 -0.219,0.289 v 0.277 c 0,0 0,0.191 0,0.268 0,0.205 0.112,0.288 0.219,0.288 C -0.113,0.561 0,0.478 0,0.273 0,0.196 0,0.052 0,0 Z m -0.215,0.721 c -0.433,0 -0.784,-0.324 -0.784,-0.722 0,-0.399 0.351,-0.722 0.784,-0.722 0.433,0 0.783,0.323 0.783,0.722 0,0.398 -0.35,0.722 -0.783,0.722" /></g><g
           transform="translate(188.8206,127.9142)"
           id="g126"><path
             id="path128"
             style="fill:#bfbfbf;fill-opacity:1;fill-rule:nonzero;stroke:none"
             d="m 0,0 c 0,0.199 0.127,0.25 0.21,0.25 0.085,0 0.21,-0.051 0.21,-0.25 0,-0.066 0,-0.229 0,-0.229 0,0 0,-0.16 0,-0.229 0,-0.198 -0.125,-0.25 -0.21,-0.25 -0.083,0 -0.21,0.052 -0.21,0.25 v 0.228 z m -0.525,1.054 v -1.933 h 0.53 c 0,0 0,0.063 0,0.074 0.205,-0.139 0.437,-0.139 0.617,-0.048 0.049,0.025 0.367,0.19 0.367,0.638 0,0.339 -0.295,0.71 -0.682,0.673 C 0.18,0.446 0.089,0.396 0.004,0.343 v 0.711 z" /></g><g
           transform="translate(192.4353,128.1721)"
           id="g130"><path
             id="path132"
             style="fill:#bfbfbf;fill-opacity:1;fill-rule:nonzero;stroke:none"
             d="m 0,0 c 0.042,0.079 0.119,0.117 0.188,0.117 v 0 H 0.189 0.188 C 0.259,0.117 0.336,0.079 0.377,0 0.411,-0.064 0.413,-0.139 0.412,-0.252 h -0.448 c 0,0.113 0.002,0.188 0.036,0.252 m 0.411,-0.718 c 0,-0.235 -0.143,-0.287 -0.222,-0.287 -0.08,0 -0.225,0.052 -0.225,0.287 0,0.071 10e-4,0.266 10e-4,0.266 h 1.01 c 0,0.398 -0.355,0.729 -0.791,0.729 -0.436,0 -0.79,-0.323 -0.79,-0.722 0,-0.399 0.354,-0.722 0.79,-0.722 0.362,0 0.667,0.224 0.761,0.527 H 0.41 c 0,0 0.001,-0.005 0.001,-0.078" /></g><g
           transform="translate(186.5505,127.2224)"
           id="g134"><path
             id="path136"
             style="fill:#bfbfbf;fill-opacity:1;fill-rule:nonzero;stroke:none"
             d="M 0,0 V 1.751 H -0.537 V 0 -0.191 H 0 0.581 V 0 Z" /></g><g
           transform="translate(195.6757,127.8463)"
           id="g138"><path
             id="path140"
             style="fill:#bfbfbf;fill-opacity:1;fill-rule:nonzero;stroke:none"
             d="M 0,0 H 0.525 C 0.471,0.415 0.113,0.535 -0.072,0.53 -0.249,0.524 -0.396,0.442 -0.499,0.335 c -0.001,0.032 0,0.136 0,0.136 h -0.532 l -0.001,-1.286 h 0.533 c 0,0 -0.001,0.79 -0.001,0.844 0,0.112 0.109,0.237 0.255,0.237 C -0.099,0.266 0,0.141 0,0.029 Z" /></g><g
           transform="translate(190.6534,128.3154)"
           id="g142"><path
             id="path144"
             style="fill:#bfbfbf;fill-opacity:1;fill-rule:nonzero;stroke:none"
             d="m 0,0 v 0.228 c 0,0.198 0.127,0.251 0.21,0.251 0.085,0 0.21,-0.053 0.21,-0.251 0,-0.068 0,-0.229 0,-0.229 0,0 0,-0.163 0,-0.229 0,-0.199 -0.125,-0.249 -0.21,-0.249 -0.083,0 -0.21,0.05 -0.21,0.249 z m 0.989,-0.014 c 0,0.447 -0.318,0.613 -0.367,0.637 -0.18,0.091 -0.412,0.091 -0.617,-0.048 0,0.012 0,0.074 0,0.074 h -0.53 v -1.933 h 0.529 v 0.711 c 0.002,-0.001 0.005,-0.002 0.007,-0.004 l 0.415,-0.707 h 0.526 l -0.375,0.638 c 0.246,0.105 0.412,0.377 0.412,0.632" /></g><g
           transform="translate(32,122.5898)"
           id="g146"><path
             id="path148"
             style="fill:#bfbfbf;fill-opacity:1;fill-rule:nonzero;stroke:none"
             d="M 0,0 V 14.202 H 4.051 V 0.323 c 0,-0.574 0.342,-0.86 1.026,-0.86 h 7.211 L 12.26,-4.59 H 4.726 c -0.269,0 -0.504,0.009 -0.702,0.026 C 2.566,-4.437 1.531,-4.013 0.919,-3.288 0.307,-2.563 0,-1.468 0,0" /></g><path
           id="path150"
           style="fill:#bfbfbf;fill-opacity:1;fill-rule:nonzero;stroke:none"
           d="M 45.988,132.093 H 49.58 V 118 h -3.592 z m -0.459,3.598 c -0.036,0.644 0.166,1.188 0.608,1.636 0.441,0.448 0.986,0.673 1.634,0.673 0.611,0 1.138,-0.221 1.579,-0.658 0.44,-0.439 0.661,-0.963 0.661,-1.57 0,-0.627 -0.221,-1.156 -0.661,-1.584 -0.441,-0.43 -0.977,-0.645 -1.607,-0.645 -0.612,0 -1.125,0.206 -1.539,0.616 -0.414,0.413 -0.639,0.922 -0.675,1.532" /><g
           transform="translate(55.7096,122.1835)"
           id="g152"><path
             id="path154"
             style="fill:#bfbfbf;fill-opacity:1;fill-rule:nonzero;stroke:none"
             d="M 0,0 C 0.073,-0.284 0.279,-0.472 0.622,-0.559 0.657,-0.577 0.73,-0.585 0.837,-0.585 h 2.944 c 0.09,0 0.161,0.008 0.216,0.026 0.467,0.07 0.701,0.258 0.701,0.559 V 5.3 C 4.698,5.389 4.69,5.451 4.672,5.488 4.6,6.036 4.294,6.313 3.753,6.313 H 0.972 C 0.432,6.313 0.099,6.036 -0.026,5.488 -0.045,5.451 -0.054,5.398 -0.054,5.326 V 0.24 C -0.054,0.133 -0.036,0.052 0,0 m -3.646,-0.398 v 15.57 h 3.592 V 9.909 H 5.05 c 0.954,0 1.733,-0.34 2.336,-1.02 C 7.989,8.21 8.29,7.386 8.29,6.421 V -0.64 C 8.29,-1.357 8.138,-1.981 7.833,-2.519 7.205,-3.629 6.272,-4.184 5.034,-4.184 h -5.088 c -1.125,0 -2.031,0.354 -2.72,1.06 -0.689,0.708 -0.979,1.617 -0.872,2.726" /></g><g
           transform="translate(145.7099,29.4715)"
           id="g156"><path
             id="path158"
             style="fill:#e6e6e6;fill-opacity:1;fill-rule:nonzero;stroke:none"
             d="m 0,0 h -35.42 c -2.991,-0.011 -4.809,2.027 -4.809,4.526 0,2.5 1.829,4.521 4.809,4.527 H 0 C 2.98,9.047 4.808,7.026 4.808,4.526 4.808,2.027 2.992,-0.011 0,0 m 0.017,10.529 h -35.455 c -3.751,0.008 -6.272,-2.729 -6.272,-6.012 0,-3.281 2.515,-5.987 6.278,-5.988 H 0.012 c 3.763,0.001 6.278,2.707 6.278,5.988 0,3.283 -2.521,6.02 -6.273,6.012" /></g><g
           transform="translate(133.5728,36.238)"
           id="g160"><path
             id="path162"
             style="fill:#e6e6e6;fill-opacity:1;fill-rule:nonzero;stroke:none"
             d="M 0,0 H 1.675 V -0.76 H 2.58 V -1.319 H 1.675 L 1.676,-5.068 H -0.001 L 0,-1.319 h -0.91 v 0.558 h 0.911 z" /></g><path
           id="path164"
           style="fill:#e6e6e6;fill-opacity:1;fill-rule:nonzero;stroke:none"
           d="m 113.953,34.926 h 1.674 V 31.17 h -1.674 z" /><path
           id="path166"
           style="fill:#e6e6e6;fill-opacity:1;fill-rule:nonzero;stroke:none"
           d="m 113.949,36.82 h 1.678 v -1.154 h -1.678 z" /><g
           transform="translate(144.722,33.2062)"
           id="g168"><path
             id="path170"
             style="fill:#e6e6e6;fill-opacity:1;fill-rule:nonzero;stroke:none"
             d="m 0,0 v 0 c 0,-0.011 -0.001,-0.569 -0.001,-0.794 0,-0.599 -0.349,-0.845 -0.685,-0.845 -0.335,0 -0.685,0.246 -0.685,0.845 v 0.81 c 0,0 0.002,0.556 0.002,0.783 0,0.596 0.35,0.842 0.683,0.842 0.335,0 0.685,-0.246 0.685,-0.842 0,-0.227 0,-0.648 0.001,-0.799 l 0,0.001 z m -0.672,2.106 c -1.352,0 -2.447,-0.945 -2.447,-2.109 0,-1.165 1.095,-2.11 2.447,-2.11 1.351,0 2.446,0.945 2.446,2.11 0,1.164 -1.095,2.109 -2.446,2.109" /></g><g
           transform="translate(118.2668,33.7493)"
           id="g172"><path
             id="path174"
             style="fill:#e6e6e6;fill-opacity:1;fill-rule:nonzero;stroke:none"
             d="m 0,0 c 0,0.582 0.396,0.73 0.656,0.73 0.266,0 0.656,-0.148 0.656,-0.73 0,-0.192 -0.001,-0.668 -0.001,-0.668 0,0 0.001,-0.469 0.001,-0.67 0,-0.579 -0.39,-0.731 -0.655,-0.731 C 0.396,-2.069 0,-1.917 0,-1.338 v 0.667 z m -1.64,3.081 v -5.649 h 1.655 c 0,0 0.002,0.183 0.002,0.217 0.64,-0.407 1.362,-0.406 1.926,-0.141 0.15,0.072 1.144,0.555 1.144,1.863 0,0.991 -0.922,2.075 -2.127,1.967 C 0.562,1.302 0.279,1.156 0.012,1.002 v 2.079 z" /></g><g
           transform="translate(129.5496,34.5029)"
           id="g176"><path
             id="path178"
             style="fill:#e6e6e6;fill-opacity:1;fill-rule:nonzero;stroke:none"
             d="M 0,0 C 0.13,0.231 0.37,0.342 0.588,0.342 H 0.587 0.589 0.588 C 0.807,0.342 1.047,0.231 1.178,0 1.283,-0.187 1.289,-0.407 1.286,-0.737 H -0.111 C -0.114,-0.407 -0.107,-0.187 0,0 m 1.282,-2.097 c 0,-0.688 -0.446,-0.84 -0.693,-0.84 -0.247,0 -0.7,0.152 -0.7,0.84 0,0.206 0.001,0.775 0.001,0.775 h 3.153 c 0,1.166 -1.108,2.131 -2.469,2.131 -1.361,0 -2.466,-0.944 -2.466,-2.11 0,-1.164 1.105,-2.108 2.466,-2.108 1.129,0 2.083,0.654 2.375,1.54 L 1.281,-1.87 c 0,0 0.001,-0.016 0.001,-0.227" /></g><g
           transform="translate(111.1808,31.7278)"
           id="g180"><path
             id="path182"
             style="fill:#e6e6e6;fill-opacity:1;fill-rule:nonzero;stroke:none"
             d="M 0,0 V 5.117 H -1.676 V 0 -0.558 H 0 1.814 V 0 Z" /></g><g
           transform="translate(139.6638,33.5509)"
           id="g184"><path
             id="path186"
             style="fill:#e6e6e6;fill-opacity:1;fill-rule:nonzero;stroke:none"
             d="M 0,0 H 1.64 C 1.471,1.213 0.352,1.564 -0.224,1.548 -0.776,1.531 -1.237,1.29 -1.558,0.98 c -0.002,0.093 0,0.396 0,0.396 L -3.219,1.375 -3.221,-2.381 h 1.663 c 0,0 -0.002,2.307 -0.002,2.466 0,0.327 0.339,0.692 0.795,0.692 C -0.31,0.777 0,0.412 0,0.085 Z" /></g><g
           transform="translate(123.9874,34.9216)"
           id="g188"><path
             id="path190"
             style="fill:#e6e6e6;fill-opacity:1;fill-rule:nonzero;stroke:none"
             d="m 0,0 v 0.667 c 0,0.579 0.396,0.731 0.657,0.731 0.265,0 0.655,-0.152 0.655,-0.731 0,-0.2 -0.001,-0.67 -0.001,-0.67 0,0 0.001,-0.476 0.001,-0.668 0,-0.582 -0.39,-0.73 -0.656,-0.73 C 0.396,-1.401 0,-1.253 0,-0.671 Z M 3.087,-0.042 C 3.087,1.266 2.093,1.749 1.943,1.821 1.379,2.086 0.657,2.087 0.017,1.68 0.017,1.714 0.015,1.897 0.015,1.897 H -1.64 v -5.649 h 1.652 v 2.079 C 0.02,-1.677 0.027,-1.681 0.034,-1.685 L 1.33,-3.752 H 2.97 L 1.8,-1.886 c 0.769,0.305 1.287,1.1 1.287,1.844" /></g></g></g></g></svg>