<?xml version="1.0" encoding="UTF-8" standalone="no"?>
<svg
   xmlns:dc="http://purl.org/dc/elements/1.1/"
   xmlns:cc="http://creativecommons.org/ns#"
   xmlns:rdf="http://www.w3.org/1999/02/22-rdf-syntax-ns#"
   xmlns:svg="http://www.w3.org/2000/svg"
   xmlns="http://www.w3.org/2000/svg"
   viewBox="0 0 341.33334 341.33334"
   height="256"
   width="256"
   xml:space="preserve"
   id="svg2"
   version="1.1"><metadata
     id="metadata8"><rdf:RDF><cc:Work
         rdf:about=""><dc:format>image/svg+xml</dc:format><dc:type
           rdf:resource="http://purl.org/dc/dcmitype/StillImage" /></cc:Work></rdf:RDF></metadata><defs
     id="defs6"><clipPath
       id="clipPath18"
       clipPathUnits="userSpaceOnUse"><path
         id="path16"
         d="M 0,256 H 256 V 0 H 0 Z" /></clipPath><clipPath
       id="clipPath26"
       clipPathUnits="userSpaceOnUse"><path
         id="path24"
         d="M 55.9999,252 H 200 V 4 H 55.9999 Z" /></clipPath></defs><g
     transform="matrix(1.3333333,0,0,-1.3333333,0,341.33333)"
     id="g10"><g
       id="g12"><g
         clip-path="url(#clipPath18)"
         id="g14"><g
           id="g20"><g
             id="g22" /><g
             id="g34"><g
               style="opacity:0.5"
               id="g32"
               clip-path="url(#clipPath26)"><g
                 id="g30"
                 transform="translate(200,236)"><path
                   id="path28"
                   style="fill:#ffffff;fill-opacity:1;fill-rule:nonzero;stroke:none"
                   d="m 0,0 c 0,8.822 -7.178,16 -16,16 h -112 c -8.823,0 -16,-7.178 -16,-16 v -92 c 0,-2.836 0.742,-5.502 2.041,-7.815 -1.296,-2.396 -2.041,-5.195 -2.041,-8.184 0,-2.907 0.705,-5.636 1.936,-7.988 -1.264,-2.268 -1.935,-4.832 -1.935,-7.499 v -93.029 c 0,-8.539 6.968,-15.485 15.534,-15.485 h 112.931 c 8.566,0 15.533,6.946 15.533,15.485 l -0.001,87.792 c 0.001,0.051 0.001,0.102 0.001,0.154 l -0.001,2.802 v 2.28 c 0.001,2.667 -0.671,5.232 -1.936,7.503 1.23,2.35 1.936,5.076 1.938,7.98 0.001,2.921 -0.708,5.751 -2.03,8.21 C -0.737,-97.486 0,-94.828 0,-92 Z" /></g></g></g></g><g
           transform="translate(184.4649,120)"
           id="g36"><path
             id="path38"
             style="fill:#595959;fill-opacity:1;fill-rule:nonzero;stroke:none"
             d="M 0,0 H 1.062 C 4.637,0.001 7.532,3.581 7.535,8.001 7.536,12.417 4.635,16 1.063,15.998 H -0.465 V 24 h -112 v -8 h -1.527 c -3.574,-0.002 -6.473,-3.581 -6.473,-7.999 0,-4.417 2.899,-8 6.473,-7.998 L -112.93,0 c -4.159,0 -7.535,-3.354 -7.535,-7.486 v -93.029 c 0,-4.136 3.376,-7.486 7.536,-7.485 H 0.002 c 4.16,-0.001 7.533,3.349 7.533,7.485 L 7.534,-7.487 C 7.535,-3.354 4.161,0.001 0,0" /></g><g
           transform="translate(172.7371,76.4942)"
           id="g40"><path
             id="path42"
             style="fill:#4c4c4c;fill-opacity:1;fill-rule:nonzero;stroke:none"
             d="M 0,0 C 0.002,0 0.004,0 0.007,0 0.005,0 0.004,0 0.003,0 0.002,0 0.001,0 0,0 m -2.735,17.506 h -0.001 c -0.856,0 -1.726,-0.116 -2.587,-0.345 l -20.373,-6.25 c -2.007,-0.629 -3.845,-1.794 -5.093,-3.487 -1.233,-1.673 -1.947,-3.729 -1.948,-5.917 0.002,-5.359 4.239,-9.747 9.536,-9.99 0.519,0.036 1.037,0.072 1.557,0.108 l 0.688,0.101 c 0.48,0.071 0.95,0.175 1.415,0.314 3.64,1.092 20.368,6.113 20.519,6.193 3.765,1.516 6.281,5.212 6.285,9.269 -0.005,5.516 -4.49,10.002 -9.998,10.004" /></g><g
           transform="translate(184,136)"
           id="g44"><path
             id="path46"
             style="fill:#666666;fill-opacity:1;fill-rule:nonzero;stroke:none"
             d="m 0,0 h -112 c -4.418,0 -8,3.582 -8,8 v 92 c 0,4.418 3.582,8 8,8 H 0 c 4.418,0 8,-3.582 8,-8 V 8 C 8,3.582 4.418,0 0,0" /></g><g
           transform="translate(183.9984,155.5833)"
           id="g48"><path
             id="path50"
             style="fill:#191919;fill-opacity:1;fill-rule:nonzero;stroke:none"
             d="m 0,0 c 0.003,-4.189 -3.375,-7.585 -7.544,-7.583 h -96.911 c -4.164,0 -7.542,3.395 -7.543,7.583 v 68.832 c -0.002,4.188 3.379,7.583 7.543,7.583 l 96.913,0.002 c 4.165,-0.002 7.543,-3.397 7.544,-7.584 z" /></g><g
           transform="translate(76,237.9986)"
           id="g52"><path
             id="path54"
             style="fill:#595959;fill-opacity:1;fill-rule:nonzero;stroke:none"
             d="m 0,0 c -0.001,-1.103 -0.895,-2 -2,-1.999 -1.106,-10e-4 -2,0.896 -2,2 -0.001,1.103 0.895,2 1.999,2 1.106,0 2,-0.896 2.001,-2.001" /></g><g
           transform="translate(76,142.0005)"
           id="g56"><path
             id="path58"
             style="fill:#595959;fill-opacity:1;fill-rule:nonzero;stroke:none"
             d="M 0,0 C 0,-1.104 -0.896,-2 -2.001,-2.001 -3.105,-2.001 -4,-1.104 -4,0 c 0,1.104 0.895,1.999 2,1.999 1.105,0 2,-0.895 2,-1.999" /></g><g
           transform="translate(184,238)"
           id="g60"><path
             id="path62"
             style="fill:#595959;fill-opacity:1;fill-rule:nonzero;stroke:none"
             d="m 0,0 c -0.001,-1.105 -0.895,-2.001 -2,-2 -1.105,-10e-4 -2.001,0.895 -2,2 0,1.105 0.895,1.999 2,2 1.105,10e-4 2,-0.895 2,-2" /></g><g
           transform="translate(130,237.9996)"
           id="g64"><path
             id="path66"
             style="fill:#595959;fill-opacity:1;fill-rule:nonzero;stroke:none"
             d="m 0,0 c 0.001,-1.103 -0.895,-2 -2,-2 -1.105,0 -2.001,0.896 -2,2.001 -0.001,1.103 0.896,2 2,1.999 1.104,0 2,-0.896 2,-2" /></g><g
           transform="translate(184,142)"
           id="g68"><path
             id="path70"
             style="fill:#595959;fill-opacity:1;fill-rule:nonzero;stroke:none"
             d="M 0,0 C 0.001,-1.105 -0.895,-2.001 -2.001,-2 -3.106,-2.001 -4.001,-1.106 -4,-0.001 -4.001,1.104 -3.105,2 -2,2 -0.894,2 0,1.105 0,0" /></g><g
           transform="translate(112,26.0006)"
           id="g72"><path
             id="path74"
             style="fill:#4c4c4c;fill-opacity:1;fill-rule:nonzero;stroke:none"
             d="M 0,0 C 0,3.307 2.692,5.999 5.999,5.999 9.308,6 12,3.308 12,-0.001 12,-3.308 9.308,-6 6.001,-6.001 2.691,-6.001 -0.001,-3.309 0,0" /></g><g
           transform="translate(128.0001,113)"
           id="g76"><path
             id="path78"
             style="fill:#4c4c4c;fill-opacity:1;fill-rule:nonzero;stroke:none"
             d="M 0,0 C -2.757,0 -5,-2.242 -5,-4.997 -5,-7.756 -2.757,-10 0,-10 2.756,-9.998 4.998,-7.756 5,-5.001 5,-3.665 4.48,-2.409 3.535,-1.465 2.591,-0.52 1.335,0 0,0" /></g><g
           transform="translate(132,108.0001)"
           id="g80"><path
             id="path82"
             style="fill:#a6a6a6;fill-opacity:1;fill-rule:nonzero;stroke:none"
             d="M 0,0 C -0.001,-2.207 -1.793,-3.999 -4,-4 -6.208,-4 -8,-2.208 -8,0.003 -8,2.208 -6.208,4 -4,4 -1.792,4 0,2.208 0,0" /></g><g
           transform="translate(122,26.0006)"
           id="g84"><path
             id="path86"
             style="fill:#a6a6a6;fill-opacity:1;fill-rule:nonzero;stroke:none"
             d="m 0,0 c 0.002,-2.21 -1.79,-4.002 -4,-4.001 -2.208,0 -3.999,1.791 -4,4.001 0,2.209 1.792,4.001 4.001,3.999 C -1.79,3.999 0,2.209 0,0" /></g><g
           transform="translate(132,26.0006)"
           id="g88"><path
             id="path90"
             style="fill:#4c4c4c;fill-opacity:1;fill-rule:nonzero;stroke:none"
             d="M 0,0 C 0,3.307 2.692,5.999 5.999,5.999 9.308,6 12,3.308 12,-0.001 12,-3.308 9.308,-6 6.001,-6.001 2.691,-6.001 -0.001,-3.309 0,0" /></g><g
           transform="translate(142,26.0006)"
           id="g92"><path
             id="path94"
             style="fill:#a6a6a6;fill-opacity:1;fill-rule:nonzero;stroke:none"
             d="m 0,0 c 0.002,-2.21 -1.79,-4.002 -4,-4.001 -2.208,0 -3.999,1.791 -4,4.001 0,2.209 1.792,4.001 4.001,3.999 C -1.79,3.999 0,2.209 0,0" /></g><g
           transform="translate(76,80.0014)"
           id="g96"><path
             id="path98"
             style="fill:#4c4c4c;fill-opacity:1;fill-rule:nonzero;stroke:none"
             d="M 0,0 C 0,11.027 8.972,19.999 19.999,19.999 31.028,19.997 40,11.026 40,-0.001 c 0,-11.028 -8.973,-20 -20.001,-20 C 8.974,-20.001 0.001,-11.029 0,0" /></g><g
           transform="translate(156,78)"
           id="g100"><path
             id="path102"
             style="fill:#a6a6a6;fill-opacity:1;fill-rule:nonzero;stroke:none"
             d="m 0,0 c -0.001,-3.314 -2.686,-5.999 -6,-6 -3.312,0 -5.999,2.686 -6,6 10e-4,3.314 2.686,5.999 6,6 3.315,0 6.001,-2.686 6,-6" /></g><g
           transform="translate(176,84)"
           id="g104"><path
             id="path106"
             style="fill:#a6a6a6;fill-opacity:1;fill-rule:nonzero;stroke:none"
             d="m 0,0 c -0.003,-3.315 -2.689,-5.998 -6,-6 -3.315,0 -6,2.685 -6,6 -10e-4,3.314 2.685,6 6,6 3.311,-0.001 5.997,-2.688 6,-6" /></g><g
           transform="translate(191.9994,107.4266)"
           id="g108"><path
             id="path110"
             style="fill:#00ff00;fill-opacity:1;fill-rule:nonzero;stroke:none"
             d="m 0,0 h -4.909 l -0.002,3.113 h 4.909 z" /></g><g
           transform="translate(191.9203,99.2998)"
           id="g112"><path
             id="path114"
             style="fill:#b3b3b3;fill-opacity:1;fill-rule:nonzero;stroke:none"
             d="M 0,0 H -4.909 V 3.111 L 0,3.114 Z" /></g><g
           transform="translate(120,62.9987)"
           id="g116"><path
             id="path118"
             style="fill:#191919;fill-opacity:1;fill-rule:nonzero;stroke:none"
             d="M 0,0 C 0.001,-0.55 -0.448,-0.999 -0.999,-0.999 -1.552,-0.999 -2.001,-0.55 -2,0 -2,0.554 -1.551,1.003 -0.999,1.001 -0.447,1.001 -0.001,0.552 0,0" /></g><g
           transform="translate(120,56.9987)"
           id="g120"><path
             id="path122"
             style="fill:#191919;fill-opacity:1;fill-rule:nonzero;stroke:none"
             d="M 0,0 C 0.001,-0.55 -0.448,-0.999 -0.999,-0.999 -1.552,-0.999 -2.001,-0.55 -2,0 -2,0.554 -1.551,1.003 -0.999,1.001 -0.447,1.001 -0.001,0.552 0,0" /></g><g
           transform="translate(120,50.9987)"
           id="g124"><path
             id="path126"
             style="fill:#191919;fill-opacity:1;fill-rule:nonzero;stroke:none"
             d="M 0,0 C 0.001,-0.55 -0.448,-0.999 -0.999,-0.999 -1.552,-0.999 -2.001,-0.55 -2,0 -2,0.554 -1.551,1.003 -0.999,1.001 -0.447,1.001 -0.001,0.552 0,0" /></g><g
           transform="translate(120,44.9987)"
           id="g128"><path
             id="path130"
             style="fill:#191919;fill-opacity:1;fill-rule:nonzero;stroke:none"
             d="M 0,0 C 0.001,-0.55 -0.448,-0.999 -0.999,-0.999 -1.552,-0.999 -2.001,-0.55 -2,0 -2,0.554 -1.551,1.003 -0.999,1.001 -0.447,1.001 -0.001,0.552 0,0" /></g><g
           transform="translate(126,62.9987)"
           id="g132"><path
             id="path134"
             style="fill:#191919;fill-opacity:1;fill-rule:nonzero;stroke:none"
             d="M 0,0 C 0.001,-0.55 -0.448,-0.999 -0.999,-0.999 -1.552,-0.999 -2.001,-0.55 -2,0 -2,0.554 -1.551,1.003 -0.999,1.001 -0.447,1.001 -0.001,0.552 0,0" /></g><g
           transform="translate(126,56.9987)"
           id="g136"><path
             id="path138"
             style="fill:#191919;fill-opacity:1;fill-rule:nonzero;stroke:none"
             d="M 0,0 C 0.001,-0.55 -0.448,-0.999 -0.999,-0.999 -1.552,-0.999 -2.001,-0.55 -2,0 -2,0.554 -1.551,1.003 -0.999,1.001 -0.447,1.001 -0.001,0.552 0,0" /></g><g
           transform="translate(126,50.9987)"
           id="g140"><path
             id="path142"
             style="fill:#191919;fill-opacity:1;fill-rule:nonzero;stroke:none"
             d="M 0,0 C 0.001,-0.55 -0.448,-0.999 -0.999,-0.999 -1.552,-0.999 -2.001,-0.55 -2,0 -2,0.554 -1.551,1.003 -0.999,1.001 -0.447,1.001 -0.001,0.552 0,0" /></g><g
           transform="translate(126,44.9987)"
           id="g144"><path
             id="path146"
             style="fill:#191919;fill-opacity:1;fill-rule:nonzero;stroke:none"
             d="M 0,0 C 0.001,-0.55 -0.448,-0.999 -0.999,-0.999 -1.552,-0.999 -2.001,-0.55 -2,0 -2,0.554 -1.551,1.003 -0.999,1.001 -0.447,1.001 -0.001,0.552 0,0" /></g><g
           transform="translate(132,62.9987)"
           id="g148"><path
             id="path150"
             style="fill:#191919;fill-opacity:1;fill-rule:nonzero;stroke:none"
             d="M 0,0 C 0.001,-0.55 -0.448,-0.999 -0.999,-0.999 -1.552,-0.999 -2.001,-0.55 -2,0 -2,0.554 -1.551,1.003 -0.999,1.001 -0.447,1.001 -0.001,0.552 0,0" /></g><g
           transform="translate(132,56.9987)"
           id="g152"><path
             id="path154"
             style="fill:#191919;fill-opacity:1;fill-rule:nonzero;stroke:none"
             d="M 0,0 C 0.001,-0.55 -0.448,-0.999 -0.999,-0.999 -1.552,-0.999 -2.001,-0.55 -2,0 -2,0.554 -1.551,1.003 -0.999,1.001 -0.447,1.001 -0.001,0.552 0,0" /></g><g
           transform="translate(132,50.9987)"
           id="g156"><path
             id="path158"
             style="fill:#191919;fill-opacity:1;fill-rule:nonzero;stroke:none"
             d="M 0,0 C 0.001,-0.55 -0.448,-0.999 -0.999,-0.999 -1.552,-0.999 -2.001,-0.55 -2,0 -2,0.554 -1.551,1.003 -0.999,1.001 -0.447,1.001 -0.001,0.552 0,0" /></g><g
           transform="translate(132,44.9987)"
           id="g160"><path
             id="path162"
             style="fill:#191919;fill-opacity:1;fill-rule:nonzero;stroke:none"
             d="M 0,0 C 0.001,-0.55 -0.448,-0.999 -0.999,-0.999 -1.552,-0.999 -2.001,-0.55 -2,0 -2,0.554 -1.551,1.003 -0.999,1.001 -0.447,1.001 -0.001,0.552 0,0" /></g><g
           transform="translate(138,62.9987)"
           id="g164"><path
             id="path166"
             style="fill:#191919;fill-opacity:1;fill-rule:nonzero;stroke:none"
             d="M 0,0 C 0.001,-0.55 -0.448,-0.999 -0.999,-0.999 -1.552,-0.999 -2.001,-0.55 -2,0 -2,0.554 -1.551,1.003 -0.999,1.001 -0.447,1.001 -0.001,0.552 0,0" /></g><g
           transform="translate(138,56.9987)"
           id="g168"><path
             id="path170"
             style="fill:#191919;fill-opacity:1;fill-rule:nonzero;stroke:none"
             d="M 0,0 C 0.001,-0.55 -0.448,-0.999 -0.999,-0.999 -1.552,-0.999 -2.001,-0.55 -2,0 -2,0.554 -1.551,1.003 -0.999,1.001 -0.447,1.001 -0.001,0.552 0,0" /></g><g
           transform="translate(138,50.9987)"
           id="g172"><path
             id="path174"
             style="fill:#191919;fill-opacity:1;fill-rule:nonzero;stroke:none"
             d="M 0,0 C 0.001,-0.55 -0.448,-0.999 -0.999,-0.999 -1.552,-0.999 -2.001,-0.55 -2,0 -2,0.554 -1.551,1.003 -0.999,1.001 -0.447,1.001 -0.001,0.552 0,0" /></g><g
           transform="translate(138,44.9987)"
           id="g176"><path
             id="path178"
             style="fill:#191919;fill-opacity:1;fill-rule:nonzero;stroke:none"
             d="M 0,0 C 0.001,-0.55 -0.448,-0.999 -0.999,-0.999 -1.552,-0.999 -2.001,-0.55 -2,0 -2,0.554 -1.551,1.003 -0.999,1.001 -0.447,1.001 -0.001,0.552 0,0" /></g><g
           transform="translate(111,85)"
           id="g180"><path
             id="path182"
             style="fill:#a6a6a6;fill-opacity:1;fill-rule:nonzero;stroke:none"
             d="m 0,0 h -10 v 10 c 0,0.552 -2.239,1 -5,1 -2.761,0 -5,-0.448 -5,-1 V 0 h -10 c -0.552,0 -1,-2.239 -1,-5 0,-2.761 0.448,-5 1,-5 h 10 v -10 c 0,-0.552 2.239,-1 5,-1 2.761,0 5,0.448 5,1 v 10 H 0 c 0.552,0 1,2.239 1,5 0,2.761 -0.448,5 -1,5" /></g><g
           transform="translate(100,79.9994)"
           id="g184"><path
             id="path186"
             style="fill:#999999;fill-opacity:1;fill-rule:nonzero;stroke:none"
             d="m 0,0 c -0.001,-2.21 -1.792,-4.001 -4.001,-3.999 -2.21,0 -4,1.791 -3.999,4 0,2.209 1.79,4 3.998,4 C -1.794,4.001 -0.001,2.21 0,0" /></g><g
           transform="translate(176,160)"
           id="g188"><path
             id="path190"
             style="fill:#b3b3b3;fill-opacity:1;fill-rule:nonzero;stroke:none"
             d="M 0,0 -96,0.003 V 64 H 0 Z" /></g><g
           transform="translate(105.2259,154.194)"
           id="g192"><path
             id="path194"
             style="fill:#ffffff;fill-opacity:1;fill-rule:nonzero;stroke:none"
             d="M 0,0 H 0.089 C 0.388,0 0.734,0.06 0.795,0.468 0.856,0.876 0.528,0.935 0.229,0.935 H 0.14 Z M 1.706,-2.07 H 0.565 l -0.649,1.443 h -0.01 L -0.309,-2.07 h -0.917 l 0.561,3.752 h 1.37 C 1.402,1.682 1.877,1.328 1.758,0.527 1.68,0.01 1.342,-0.438 0.828,-0.532 Z" /></g><g
           transform="translate(108.1454,155.0498)"
           id="g196"><path
             id="path198"
             style="fill:#ffffff;fill-opacity:1;fill-rule:nonzero;stroke:none"
             d="M 0,0 -0.094,-0.627 H 0.94 L 0.816,-1.453 H -0.217 L -0.314,-2.1 h 1.09 L 0.652,-2.925 h -2.006 l 0.561,3.751 H 1.213 L 1.09,0 Z" /></g><g
           transform="translate(110.378,152.1244)"
           id="g200"><path
             id="path202"
             style="fill:#ffffff;fill-opacity:1;fill-rule:nonzero;stroke:none"
             d="m 0,0 h -0.917 l 0.438,2.925 h -0.758 l 0.124,0.826 H 1.318 L 1.195,2.925 H 0.437 Z" /></g><g
           transform="translate(112.3049,154.194)"
           id="g204"><path
             id="path206"
             style="fill:#ffffff;fill-opacity:1;fill-rule:nonzero;stroke:none"
             d="M 0,0 H 0.089 C 0.388,0 0.734,0.06 0.795,0.468 0.856,0.876 0.528,0.935 0.229,0.935 H 0.14 Z M 1.706,-2.07 H 0.565 l -0.649,1.443 h -0.01 L -0.309,-2.07 h -0.917 l 0.561,3.752 h 1.37 C 1.402,1.682 1.877,1.328 1.758,0.527 1.68,0.01 1.342,-0.438 0.828,-0.532 Z" /></g><g
           transform="translate(114.9369,154.0646)"
           id="g208"><path
             id="path210"
             style="fill:#ffffff;fill-opacity:1;fill-rule:nonzero;stroke:none"
             d="M 0,0 C -0.097,-0.647 0.282,-1.119 0.829,-1.119 1.376,-1.119 1.895,-0.647 1.992,0 2.069,0.518 1.691,0.99 1.144,0.99 0.597,0.99 0.077,0.518 0,0 m 2.947,0.005 c -0.182,-1.214 -1.128,-2.07 -2.26,-2.07 -1.131,0 -1.822,0.856 -1.64,2.07 0.169,1.134 1.224,1.93 2.238,1.93 1.015,0 1.831,-0.796 1.662,-1.93" /></g><g
           transform="translate(120.4927,154.4031)"
           id="g212"><path
             id="path214"
             style="fill:#ffffff;fill-opacity:1;fill-rule:nonzero;stroke:none"
             d="M 0,0 H 0.103 C 0.346,0 0.605,0.045 0.653,0.363 0.704,0.706 0.422,0.726 0.174,0.726 H 0.109 Z m -0.229,-1.533 h 0.117 c 0.271,0 0.727,-0.014 0.789,0.399 0.067,0.452 -0.393,0.407 -0.692,0.407 h -0.094 z m -1.028,-0.746 0.561,3.752 H 0.613 C 1.24,1.473 1.622,1.214 1.515,0.497 1.464,0.159 1.32,-0.114 1.012,-0.269 L 1.011,-0.279 C 1.505,-0.348 1.666,-0.712 1.588,-1.234 1.471,-2.02 0.8,-2.279 0.155,-2.279 Z" /></g><g
           transform="translate(123.0792,154.0646)"
           id="g216"><path
             id="path218"
             style="fill:#ffffff;fill-opacity:1;fill-rule:nonzero;stroke:none"
             d="M 0,0 C -0.096,-0.647 0.282,-1.119 0.829,-1.119 1.376,-1.119 1.895,-0.647 1.992,0 2.069,0.518 1.691,0.99 1.144,0.99 0.597,0.99 0.078,0.518 0,0 m 2.947,0.005 c -0.181,-1.214 -1.128,-2.07 -2.259,-2.07 -1.132,0 -1.823,0.856 -1.641,2.07 0.169,1.134 1.224,1.93 2.238,1.93 1.015,0 1.832,-0.796 1.662,-1.93" /></g><g
           transform="translate(125.6003,155.8756)"
           id="g220"><path
             id="path222"
             style="fill:#ffffff;fill-opacity:1;fill-rule:nonzero;stroke:none"
             d="M 0,0 H 1.099 L 1.606,-1.02 2.418,0 H 3.517 L 1.925,-1.95 1.656,-3.751 H 0.739 l 0.27,1.801 z" /></g><g
           transform="translate(133.2125,153.1991)"
           id="g224"><path
             id="path226"
             style="fill:#ffffff;fill-opacity:1;fill-rule:nonzero;stroke:none"
             d="M 0,0 H -0.725 V 1.627 H 0.271 C 0.8,1.627 1.066,1.348 1.066,0.826 1.066,0.189 0.711,0 0,0 M 3.712,2.084 2.781,0.229 1.804,2.084 H 1.163 L 1.437,1.579 C 1.217,1.904 0.823,2.084 0.267,2.084 H -1.286 V 0.071 l -1.093,2.013 h -0.388 l -1.328,-2.567 h 0.561 L -2.604,1.373 -1.881,0 h -1.116 v -0.483 h 1.711 0.3 1.108 c 0.43,0 0.757,0.045 0.991,0.199 0.337,0.219 0.533,0.617 0.533,1.1 0,0.254 -0.054,0.47 -0.149,0.654 l 1.06,-1.953 h 0.388 l 1.328,2.567 z" /></g><g
           transform="translate(141.7778,153.9354)"
           id="g228"><path
             id="path230"
             style="fill:#ffffff;fill-opacity:1;fill-rule:nonzero;stroke:none"
             d="m 0,0 c 0,-0.08 0.009,-0.229 0.023,-0.443 -0.084,0.105 -0.178,0.194 -0.276,0.279 L -1.95,1.348 h -0.384 v -2.113 l -1.147,2.113 h -0.388 l -1.328,-2.567 h 0.561 l 0.931,1.856 0.723,-1.373 h -1.116 v -0.483 h 1.764 0.247 0.259 v 1.388 c 0,0.075 -0.005,0.209 -0.024,0.408 0.065,-0.08 0.131,-0.144 0.201,-0.209 L 0.121,-1.219 H 0.505 V 1.348 L 0,1.348 Z" /></g><g
           transform="translate(144.6222,155.2836)"
           id="g232"><path
             id="path234"
             style="fill:#ffffff;fill-opacity:1;fill-rule:nonzero;stroke:none"
             d="M 0,0 H -1.44 C -1.894,0 -2.039,-0.124 -2.039,-0.607 V -1.96 c 0,-0.483 0.145,-0.607 0.599,-0.607 H 0 c 0.453,0 0.599,0.124 0.599,0.607 v 0.303 H 0.037 v -0.427 h -1.515 v 1.626 h 1.515 v -0.393 h 0.562 v 0.244 C 0.599,-0.124 0.453,0 0,0" /></g><g
           transform="translate(146.0688,153.1991)"
           id="g236"><path
             id="path238"
             style="fill:#ffffff;fill-opacity:1;fill-rule:nonzero;stroke:none"
             d="M 0,0 V 0.637 H 1.113 V 1.075 H 0 V 1.647 H 1.908 V 2.084 H -0.561 V -0.483 H 1.931 V 0 Z" /></g><path
           id="path240"
           style="fill:#666666;fill-opacity:1;fill-rule:nonzero;stroke:none"
           d="m 76,120 h 52 v 14 H 76 Z" /><path
           id="path242"
           style="fill:#666666;fill-opacity:1;fill-rule:nonzero;stroke:none"
           d="m 174,120 h 10 v 14 h -10 z" /><path
           id="path244"
           style="fill:#666666;fill-opacity:1;fill-rule:nonzero;stroke:none"
           d="m 130,120 h 42 v 14 h -42 z" /></g></g></g></svg>