<?xml version="1.0" encoding="UTF-8" standalone="no"?>
<svg
   xmlns:dc="http://purl.org/dc/elements/1.1/"
   xmlns:cc="http://creativecommons.org/ns#"
   xmlns:rdf="http://www.w3.org/1999/02/22-rdf-syntax-ns#"
   xmlns:svg="http://www.w3.org/2000/svg"
   xmlns="http://www.w3.org/2000/svg"
   viewBox="0 0 341.33334 341.33334"
   height="256"
   width="256"
   xml:space="preserve"
   id="svg2"
   version="1.1"><metadata
     id="metadata8"><rdf:RDF><cc:Work
         rdf:about=""><dc:format>image/svg+xml</dc:format><dc:type
           rdf:resource="http://purl.org/dc/dcmitype/StillImage" /></cc:Work></rdf:RDF></metadata><defs
     id="defs6"><clipPath
       id="clipPath18"
       clipPathUnits="userSpaceOnUse"><path
         id="path16"
         d="M 0,256 H 256 V 0 H 0 Z" /></clipPath><clipPath
       id="clipPath26"
       clipPathUnits="userSpaceOnUse"><path
         id="path24"
         d="M 4,252 H 252 V 4 H 4 Z" /></clipPath></defs><g
     transform="matrix(1.3333333,0,0,-1.3333333,0,341.33333)"
     id="g10"><g
       id="g12"><g
         clip-path="url(#clipPath18)"
         id="g14"><g
           id="g20"><g
             id="g22" /><g
             id="g34"><g
               style="opacity:0.5"
               id="g32"
               clip-path="url(#clipPath26)"><g
                 id="g30"
                 transform="translate(252,128)"><path
                   id="path28"
                   style="fill:#ffffff;fill-opacity:1;fill-rule:nonzero;stroke:none"
                   d="m 0,0 c 0,-68.483 -55.517,-124 -124,-124 -68.483,0 -124,55.517 -124,124 0,68.483 55.517,124 124,124 C -55.517,124 0,68.483 0,0" /></g></g></g></g><g
           transform="translate(128.1634,84.4955)"
           id="g36"><path
             id="path38"
             style="fill:#35509e;fill-opacity:1;fill-rule:nonzero;stroke:none"
             d="m 0,0 c -23.992,-0.09 -43.578,19.354 -43.668,43.341 -0.09,23.988 19.349,43.578 43.341,43.668 C 23.661,87.099 43.246,67.655 43.336,43.668 43.426,19.68 23.988,0.09 0,0 m -0.599,159.504 c -64.07,-0.241 -115.804,-52.37 -115.564,-116.435 0.241,-64.065 52.365,-115.804 116.435,-115.564 64.051,0.241 115.804,52.37 115.564,116.435 -0.241,64.066 -52.384,115.804 -116.435,115.564" /></g><g
           transform="translate(160.1966,98.779)"
           id="g40"><path
             id="path42"
             style="fill:#191919;fill-opacity:1;fill-rule:nonzero;stroke:none"
             d="m 0,0 c -7.926,-8.728 -19.341,-14.236 -32.033,-14.283 -12.693,-0.048 -24.151,5.374 -32.143,14.042 l -80.158,-0.301 c 13.183,-49.808 58.642,-86.439 112.574,-86.236 53.915,0.202 99.108,37.174 111.921,87.079 z" /></g><g
           transform="translate(128.0785,108.0068)"
           id="g44"><path
             id="path46"
             style="fill:#e6e6e6;fill-opacity:1;fill-rule:nonzero;stroke:none"
             d="M 0,0 C -11.023,-0.041 -20.04,8.888 -20.082,19.918 -20.123,30.954 -11.173,39.958 -0.15,40 10.879,40.041 19.877,31.104 19.918,20.068 19.959,9.039 11.03,0.041 0,0 m -0.248,65.996 c -25.364,-0.095 -45.925,-20.825 -45.83,-46.176 0.095,-25.35 20.812,-45.925 46.176,-45.83 25.337,0.095 45.918,20.825 45.823,46.176 -0.095,25.35 -20.831,45.925 -46.169,45.83" /></g><g
           transform="translate(91.6646,38.6502)"
           id="g48"><path
             id="path50"
             style="fill:#bfbfbf;fill-opacity:1;fill-rule:nonzero;stroke:none"
             d="m 0,0 0.008,-2.24 3.753,0.015 c 0.515,0.003 0.751,0.112 0.749,0.641 L 4.507,-0.619 C 4.505,-0.09 4.268,0.018 3.754,0.016 Z M -1.646,1.378 4.5,1.404 C 5.598,1.408 6.114,0.975 6.118,-0.145 L 6.124,-2.028 C 6.128,-3.148 5.615,-3.586 4.517,-3.59 L 3.572,-3.594 6.891,-6.614 4.499,-6.625 1.597,-3.603 0.012,-3.609 0.022,-6.643 -1.619,-6.65 Z" /></g><g
           transform="translate(114.8491,36.5072)"
           id="g52"><path
             id="path54"
             style="fill:#bfbfbf;fill-opacity:1;fill-rule:nonzero;stroke:none"
             d="M 0,0 -0.008,2.24 3.747,2.256 C 4.261,2.258 4.498,2.15 4.499,1.621 L 4.503,0.657 C 4.504,0.128 4.268,0.018 3.754,0.016 Z m 3.564,-1.354 0.945,0.004 c 1.099,0.005 1.612,0.442 1.608,1.563 L 6.111,2.095 C 6.107,3.216 5.591,3.649 4.493,3.644 l -20.559,-0.086 0.027,-8.028 7.411,0.031 -0.005,1.509 -5.742,-0.024 -0.007,1.992 3.31,0.013 -0.005,1.369 -3.309,-0.014 -0.006,1.79 4.814,0.02 3.296,-0.048 0.022,-6.597 1.669,0.007 -0.023,6.597 2.966,0.012 0.022,-6.597 1.641,0.007 -0.01,3.034 1.585,0.007 2.902,-3.022 2.392,0.01 z" /></g><g
           transform="translate(129.004,33.6732)"
           id="g56"><path
             id="path58"
             style="fill:#bfbfbf;fill-opacity:1;fill-rule:nonzero;stroke:none"
             d="m 0,0 -0.017,5.088 -5.506,-0.023 0.017,-5.088 z m -5.417,6.496 5.284,0.022 C 1.216,6.524 1.648,6.137 1.653,4.628 L 1.667,0.396 c 0.006,-1.51 -0.424,-1.9 -1.773,-1.906 L -5.39,-1.532 c -1.348,-0.006 -1.781,0.381 -1.786,1.891 L -7.19,4.591 c -0.005,1.508 0.425,1.899 1.773,1.905" /></g><g
           transform="translate(133.3027,38.7789)"
           id="g60"><path
             id="path62"
             style="fill:#bfbfbf;fill-opacity:1;fill-rule:nonzero;stroke:none"
             d="m 0,0 0.017,-5.088 4.505,0.019 -0.005,1.339 1.669,0.006 0.003,-0.949 C 6.194,-6.182 5.764,-6.573 4.415,-6.579 L 0.133,-6.597 c -1.348,-0.005 -1.781,0.382 -1.786,1.891 l -0.014,4.232 c -0.005,1.509 0.425,1.9 1.773,1.905 L 4.389,1.449 C 5.738,1.455 6.17,1.068 6.175,-0.441 L 6.177,-1.204 4.509,-1.21 4.505,0.019 Z" /></g><g
           transform="translate(142.223,33.7287)"
           id="g64"><path
             id="path66"
             style="fill:#bfbfbf;fill-opacity:1;fill-rule:nonzero;stroke:none"
             d="M 0,0 4.755,0.02 4.733,6.539 6.402,6.546 6.423,0.416 C 6.428,-1.094 5.998,-1.484 4.649,-1.49 L 0.116,-1.509 c -1.348,-0.006 -1.781,0.381 -1.786,1.891 l -0.021,6.13 1.669,0.007 z" /></g><g
           transform="translate(151.5652,35.7436)"
           id="g68"><path
             id="path70"
             style="fill:#bfbfbf;fill-opacity:1;fill-rule:nonzero;stroke:none"
             d="m 0,0 0.007,-2.038 3.81,0.016 c 0.57,0.002 0.805,0.128 0.803,0.719 L 4.618,-0.696 C 4.616,-0.105 4.38,0.018 3.81,0.016 Z M -0.011,3.236 -0.004,1.323 3.805,1.339 C 4.32,1.341 4.57,1.451 4.568,1.918 L 4.566,2.68 C 4.564,3.146 4.313,3.254 3.799,3.252 Z m -1.645,1.3 6.146,0.026 C 5.588,4.566 6.104,4.133 6.108,3.013 L 6.111,2.033 C 6.113,1.255 5.67,0.786 4.878,0.674 5.713,0.553 6.173,-0.005 6.176,-0.861 L 6.18,-1.888 C 6.183,-2.961 5.476,-3.462 4.072,-3.468 l -5.701,-0.024 z" /></g><g
           transform="translate(158.562,40.316)"
           id="g72"><path
             id="path74"
             style="fill:#bfbfbf;fill-opacity:1;fill-rule:nonzero;stroke:none"
             d="M 0,0 7.341,0.031 7.346,-1.338 1.673,-1.362 1.679,-3.151 4.989,-3.137 4.993,-4.506 1.684,-4.52 1.691,-6.512 7.433,-6.487 7.438,-7.997 0.027,-8.028 Z" /></g><g
           transform="translate(93.9412,41.4837)"
           id="g76"><path
             id="path78"
             style="fill:#bfbfbf;fill-opacity:1;fill-rule:nonzero;stroke:none"
             d="m 0,0 -3.92,-0.016 -0.021,6.21 0.992,0.005 0.017,-5.101 2.928,0.012 z" /></g><g
           transform="translate(100.4144,47.7218)"
           id="g80"><path
             id="path82"
             style="fill:#bfbfbf;fill-opacity:1;fill-rule:nonzero;stroke:none"
             d="M 0,0 0.992,0.004 1.013,-6.207 0.021,-6.211 Z" /></g><g
           transform="translate(109.3769,44.2661)"
           id="g84"><path
             id="path86"
             style="fill:#bfbfbf;fill-opacity:1;fill-rule:nonzero;stroke:none"
             d="m 0,0 0.006,-1.84 0.951,0.004 c 0.289,0.001 0.498,0.076 0.625,0.224 0.128,0.148 0.191,0.392 0.19,0.734 -0.002,0.59 -0.264,0.884 -0.786,0.882 z m -0.009,2.64 0.006,-1.685 1.08,0.004 C 1.276,0.96 1.428,1.036 1.532,1.187 1.636,1.339 1.688,1.529 1.687,1.757 1.686,2.049 1.623,2.269 1.497,2.42 1.371,2.57 1.208,2.645 1.008,2.644 Z m 1.219,-5.352 -2.207,-0.01 -0.021,6.219 2.213,0.01 C 1.607,3.508 1.938,3.409 2.189,3.208 2.509,2.955 2.67,2.52 2.672,1.904 2.673,1.489 2.619,1.181 2.508,0.978 2.389,0.744 2.176,0.593 1.872,0.524 2.052,0.494 2.196,0.435 2.303,0.347 2.381,0.28 2.467,0.166 2.56,0.006 2.704,-0.242 2.777,-0.597 2.779,-1.058 2.781,-1.737 2.559,-2.21 2.111,-2.475 1.843,-2.632 1.543,-2.711 1.21,-2.712" /></g><g
           transform="translate(120.0464,46.8572)"
           id="g88"><path
             id="path90"
             style="fill:#bfbfbf;fill-opacity:1;fill-rule:nonzero;stroke:none"
             d="m 0,0 0.006,-1.77 1.043,0.005 c 0.18,0 0.325,0.092 0.435,0.274 0.1,0.162 0.151,0.349 0.15,0.562 -0.002,0.624 -0.22,0.935 -0.653,0.933 z M 1.86,-5.256 0.875,-2.721 0.009,-2.725 0.018,-5.264 -0.989,-5.268 -1.009,0.951 1.079,0.96 C 2.06,0.964 2.552,0.349 2.556,-0.885 2.558,-1.366 2.471,-1.758 2.297,-2.059 2.181,-2.257 2.018,-2.418 1.806,-2.543 l 1.043,-2.709 z" /></g><g
           transform="translate(130.6151,44.3244)"
           id="g92"><path
             id="path94"
             style="fill:#bfbfbf;fill-opacity:1;fill-rule:nonzero;stroke:none"
             d="m 0,0 0.002,-0.45 c 0.001,-0.373 0.066,-0.672 0.193,-0.896 0.128,-0.225 0.294,-0.337 0.498,-0.336 l 2.393,0.01 0.004,-1.002 -2.762,-0.011 c -0.333,-0.002 -0.618,0.182 -0.855,0.552 -0.237,0.37 -0.357,0.816 -0.359,1.339 l -0.008,2.496 c -0.002,0.518 0.114,0.952 0.346,1.303 0.232,0.351 0.518,0.527 0.855,0.529 L 3.069,3.545 3.066,2.512 0.72,2.503 C 0.507,2.502 0.336,2.405 0.208,2.212 0.065,1.998 -0.006,1.709 -0.005,1.345 L -0.003,0.916 3.078,0.929 3.081,0.013 Z" /></g><g
           transform="translate(142.9052,41.6895)"
           id="g96"><path
             id="path98"
             style="fill:#bfbfbf;fill-opacity:1;fill-rule:nonzero;stroke:none"
             d="M 0,0 -0.992,-0.004 -1.009,5.105 -2.55,5.098 -2.553,6.208 1.589,6.226 1.593,5.116 -0.017,5.109 Z" /></g><g
           transform="translate(152.1918,46.9923)"
           id="g100"><path
             id="path102"
             style="fill:#bfbfbf;fill-opacity:1;fill-rule:nonzero;stroke:none"
             d="m 0,0 0.006,-1.77 1.043,0.005 c 0.18,0 0.325,0.092 0.435,0.274 0.1,0.162 0.151,0.349 0.15,0.562 -0.002,0.624 -0.22,0.935 -0.653,0.933 z M 1.86,-5.256 0.875,-2.721 0.009,-2.725 0.018,-5.264 -0.989,-5.268 -1.009,0.951 1.079,0.96 C 2.06,0.964 2.552,0.349 2.556,-0.885 2.558,-1.366 2.471,-1.758 2.297,-2.059 2.182,-2.257 2.018,-2.418 1.806,-2.543 l 1.043,-2.709 z" /></g><g
           transform="translate(164.9905,45.7394)"
           id="g104"><path
             id="path106"
             style="fill:#bfbfbf;fill-opacity:1;fill-rule:nonzero;stroke:none"
             d="m 0,0 c -0.001,0.373 -0.072,0.671 -0.211,0.894 -0.14,0.222 -0.314,0.333 -0.522,0.332 L -1.503,1.223 C -1.711,1.222 -1.885,1.11 -2.026,0.886 -2.166,0.663 -2.236,0.364 -2.234,-0.009 l 0.005,-1.711 c 0.002,-0.374 0.067,-0.674 0.194,-0.902 0.128,-0.227 0.294,-0.341 0.498,-0.34 l 0.777,0.003 c 0.208,10e-4 0.388,0.117 0.54,0.349 0.152,0.231 0.227,0.531 0.226,0.899 z M 0.902,-2.049 C 0.904,-2.572 0.786,-3.021 0.549,-3.395 0.312,-3.769 0.027,-3.957 -0.306,-3.958 l -1.589,-0.007 c -0.337,-0.002 -0.625,0.184 -0.862,0.556 -0.237,0.372 -0.357,0.82 -0.359,1.343 l -0.008,2.41 c -10e-4,0.529 0.115,0.979 0.35,1.35 0.235,0.372 0.521,0.558 0.858,0.56 l 1.589,0.007 C 0.006,2.262 0.292,2.077 0.532,1.708 0.771,1.339 0.892,0.89 0.894,0.361 Z" /></g><g
           transform="translate(180,91.8942)"
           id="g108"><path
             id="path110"
             style="fill:#191919;fill-opacity:1;fill-rule:nonzero;stroke:none"
             d="m 0,0 0.027,-7.163 0.003,-1.018 0.092,-24.585 0.003,-0.873 0.023,-6.255 27.852,0.106 -0.023,6.255 -0.003,0.873 -0.092,24.584 -0.004,1.019 -0.026,7.163 z" /></g><g
           transform="translate(206.9539,83.8064)"
           id="g112"><path
             id="path114"
             style="fill:#bfbfbf;fill-opacity:1;fill-rule:nonzero;stroke:none"
             d="m 0,0 0.091,-24.422 -25.995,-0.099 -0.091,24.422 z" /></g><g
           transform="translate(180.955,84.7347)"
           id="g116"><path
             id="path118"
             style="fill:#bfbfbf;fill-opacity:1;fill-rule:nonzero;stroke:none"
             d="m 0,0 -0.023,6.251 25.995,0.098 0.023,-6.25 z" /></g><g
           transform="translate(184.2212,55.9767)"
           id="g120"><path
             id="path122"
             style="fill:#bfbfbf;fill-opacity:1;fill-rule:nonzero;stroke:none"
             d="M 0,0 2.926,0.011 2.935,-2.317 C 2.054,-2.499 1.032,-2.619 0.104,-2.623 -1.941,-2.631 -2.944,-1.656 -2.949,-0.294 -2.954,1.067 -1.959,2.05 0.15,2.058 1.896,2.064 2.81,1.618 2.837,0.577 L 0.729,0.569 C 0.721,0.711 0.65,0.803 0.555,0.859 0.461,0.913 0.327,0.938 0.185,0.937 -0.153,0.936 -0.373,0.799 -0.482,0.621 -0.592,0.442 -0.621,0.004 -0.62,-0.371 c 0.002,-0.432 0.05,-0.727 0.153,-0.868 0.134,-0.185 0.355,-0.264 0.646,-0.263 0.212,0.001 0.416,0.026 0.597,0.095 L 0.774,-0.871 0.003,-0.874 Z" /></g><g
           transform="translate(190.0561,55.2908)"
           id="g124"><path
             id="path126"
             style="fill:#bfbfbf;fill-opacity:1;fill-rule:nonzero;stroke:none"
             d="M 0,0 0.489,1.677 H 0.505 L 0.96,0.004 Z m 2.004,2.656 -2.919,-0.011 -1.8,-4.454 2.155,0.009 0.226,0.715 1.628,0.006 0.223,-0.714 2.328,0.009 z" /></g><g
           transform="translate(199.745,56.7071)"
           id="g128"><path
             id="path130"
             style="fill:#bfbfbf;fill-opacity:1;fill-rule:nonzero;stroke:none"
             d="m 0,0 h -0.016 l -0.79,-3.181 -2.061,-0.008 -0.814,3.175 h -0.016 l 0.012,-3.178 -1.904,-0.007 -0.016,4.446 3.123,0.012 0.631,-2.646 h 0.016 l 0.611,2.651 3.123,0.012 0.016,-4.447 -1.903,-0.007 z" /></g><g
           transform="translate(202.4508,57.9862)"
           id="g132"><path
             id="path134"
             style="fill:#bfbfbf;fill-opacity:1;fill-rule:nonzero;stroke:none"
             d="M 0,0 4.318,0.016 4.323,-1.142 2.16,-1.15 2.161,-1.624 4.159,-1.616 4.164,-2.774 2.166,-2.782 2.167,-3.281 4.401,-3.272 4.406,-4.43 0.017,-4.447 Z" /></g><g
           transform="translate(184.8773,88.7329)"
           id="g136"><path
             id="path138"
             style="fill:#191919;fill-opacity:1;fill-rule:nonzero;stroke:none"
             d="M 0,0 C -0.027,0.339 -0.28,0.53 -0.702,0.529 -1.294,0.526 -1.4,-0.177 -1.398,-0.74 c 0.002,-0.546 0.123,-1.192 0.705,-1.19 0.433,0.002 0.679,0.196 0.698,0.555 l 1.081,0.004 c 0.019,-0.947 -0.875,-1.284 -1.776,-1.288 -1.159,-0.004 -1.784,0.697 -1.789,1.957 -0.005,1.26 0.616,1.945 1.774,1.96 0.901,0.003 1.798,-0.306 1.786,-1.254 z" /></g><g
           transform="translate(186.3514,86.1605)"
           id="g140"><path
             id="path142"
             style="fill:#191919;fill-opacity:1;fill-rule:nonzero;stroke:none"
             d="M 0,0 -0.014,3.76 1.016,3.764 1.027,0.733 2.711,0.74 2.714,0.01 Z" /></g><g
           transform="translate(190.5546,87.64)"
           id="g144"><path
             id="path146"
             style="fill:#191919;fill-opacity:1;fill-rule:nonzero;stroke:none"
             d="m 0,0 0.499,1.564 h 0.015 l 0.48,-1.56 z m 1.181,2.301 -1.257,-0.004 -1.453,-3.766 1.03,0.004 0.239,0.735 1.509,0.005 0.25,-0.733 1.163,0.005 z" /></g><g
           transform="translate(195.4134,88.8511)"
           id="g148"><path
             id="path150"
             style="fill:#191919;fill-opacity:1;fill-rule:nonzero;stroke:none"
             d="M 0,0 C 0.004,0.146 -0.042,0.255 -0.135,0.333 -0.223,0.411 -0.357,0.452 -0.532,0.451 -0.769,0.45 -0.974,0.293 -0.974,0.106 c 0.001,-0.276 0.331,-0.364 0.604,-0.436 0.624,-0.159 1.531,-0.218 1.534,-1.233 0.003,-0.792 -0.768,-1.17 -1.628,-1.173 -0.865,-0.003 -1.628,0.249 -1.647,1.27 l 1.03,0.003 c -0.004,-0.354 0.254,-0.545 0.625,-0.544 0.237,0.001 0.54,0.127 0.539,0.377 -0.002,0.511 -0.764,0.398 -1.573,0.755 -0.377,0.165 -0.564,0.508 -0.565,0.914 0.038,0.891 0.81,1.139 1.587,1.142 C 0.299,1.183 1.088,0.91 1.03,0.004 Z" /></g><g
           transform="translate(198.9525,88.8646)"
           id="g152"><path
             id="path154"
             style="fill:#191919;fill-opacity:1;fill-rule:nonzero;stroke:none"
             d="M 0,0 C 0.004,0.146 -0.042,0.255 -0.135,0.333 -0.223,0.411 -0.357,0.452 -0.532,0.451 -0.769,0.45 -0.974,0.293 -0.974,0.106 c 0.001,-0.276 0.331,-0.364 0.604,-0.436 0.624,-0.159 1.531,-0.218 1.534,-1.233 0.003,-0.792 -0.768,-1.17 -1.628,-1.173 -0.865,-0.003 -1.628,0.249 -1.647,1.27 l 1.03,0.003 c -0.004,-0.354 0.254,-0.545 0.625,-0.544 0.237,0.001 0.54,0.127 0.539,0.377 -0.002,0.511 -0.764,0.398 -1.573,0.755 -0.377,0.165 -0.564,0.508 -0.565,0.914 0.038,0.891 0.81,1.139 1.587,1.142 C 0.299,1.183 1.088,0.91 1.03,0.004 Z" /></g><g
           transform="translate(200.5091,86.2143)"
           id="g156"><path
             id="path158"
             style="fill:#191919;fill-opacity:1;fill-rule:nonzero;stroke:none"
             d="M 0,0 -0.014,3.76 1.016,3.764 1.03,0.004 Z" /></g><g
           transform="translate(204.3984,88.807)"
           id="g160"><path
             id="path162"
             style="fill:#191919;fill-opacity:1;fill-rule:nonzero;stroke:none"
             d="M 0,0 C -0.027,0.339 -0.28,0.53 -0.702,0.529 -1.295,0.526 -1.4,-0.177 -1.398,-0.74 c 0.002,-0.546 0.123,-1.192 0.705,-1.19 0.432,0.002 0.679,0.196 0.698,0.555 l 1.081,0.004 c 0.019,-0.947 -0.875,-1.284 -1.776,-1.288 -1.159,-0.004 -1.785,0.697 -1.79,1.957 -0.004,1.26 0.616,1.945 1.775,1.96 0.901,0.003 1.798,-0.306 1.786,-1.254 z" /></g><g
           transform="translate(203.2,72.2957)"
           id="g164"><path
             id="path166"
             style="fill:#191919;fill-opacity:1;fill-rule:nonzero;stroke:none"
             d="m 0,0 c 1.477,-4.896 -1.744,-8.231 -6.099,-9.574 -6.155,-1.9 -10.144,1.011 -11.844,6.645 -1.84,5.484 0.291,10.23 6.227,12.062 4.427,1.366 8.723,0.702 10.32,-4.508 L -7.769,2.658 c -0.706,1.988 -1.554,2.156 -2.406,1.894 -1.8,-0.555 -1.406,-2.478 -0.545,-5.332 0.817,-2.706 1.571,-4.679 3.323,-4.139 0.9,0.278 1.345,1.007 0.878,2.907 z" /></g><g
           transform="translate(59.9295,80.2578)"
           id="g168"><path
             id="path170"
             style="fill:#191919;fill-opacity:1;fill-rule:nonzero;stroke:none"
             d="m 0,0 c 8.926,0.031 16.181,-4.537 16.205,-10.201 0.023,-5.665 -7.194,-10.282 -16.12,-10.313 -8.926,-0.03 -16.182,4.537 -16.205,10.202 C -16.144,-4.648 -8.926,-0.031 0,0" /></g><g
           transform="translate(76.1339,70.1319)"
           id="g172"><path
             id="path174"
             style="fill:#bfbfbf;fill-opacity:1;fill-rule:nonzero;stroke:none"
             d="m 0,0 c -0.023,5.664 -7.279,10.232 -16.205,10.201 -8.926,-0.03 -16.143,-4.648 -16.12,-10.312 0.023,-5.664 7.279,-10.232 16.205,-10.202 C -7.194,-10.282 0.023,-5.665 0,0 m 1.926,-0.001 1.94,-1.879 -2.755,-1.52 0.788,-2.918 -2.972,-0.085 -0.191,-3.182 -3.316,0.82 -0.546,-3.003 -3.071,1.098 -1.587,-2.652 -2.402,1.879 -2.076,-2.689 -2.309,2.269 -2.504,-2.134 -1.65,2.497 -2.956,-1.599 -1.036,2.8 -3.424,-1.243 -0.517,2.761 -3.067,-0.185 0.448,2.816 -3.139,0.001 0.721,3.075 -2.439,1.238 1.929,2.011 -1.75,2.782 2.825,0.825 -0.757,2.98 3.102,0.048 0.347,2.96 2.81,-0.839 0.917,2.886 2.84,-1.387 1.163,2.554 2.461,-1.546 1.715,2.43 2.328,-2.104 2.041,1.938 1.806,-2.427 2.8,1.652 1.124,-2.682 2.815,1.226 0.738,-2.8 3.34,0.553 L -1.631,6.481 1.749,6.161 0.803,3.508 3.75,2.369 Z" /></g><g
           transform="translate(45.1989,69.9501)"
           id="g176"><path
             id="path178"
             style="fill:#bfbfbf;fill-opacity:1;fill-rule:nonzero;stroke:none"
             d="m 0,0 c -0.021,5 6.59,9.091 14.735,9.119 8.146,0.028 14.79,-4.018 14.81,-9.018 0.021,-5 -6.589,-9.091 -14.735,-9.119 C 6.664,-9.046 0.021,-5 0,0 m 14.811,-9.357 c 8.352,0.029 15.128,4.272 15.107,9.459 C 29.896,5.29 23.085,9.487 14.734,9.458 6.383,9.43 -0.394,5.186 -0.373,-0.001 -0.351,-5.189 6.46,-9.386 14.811,-9.357" /></g><g
           transform="translate(69.3561,67.862)"
           id="g180"><path
             id="path182"
             style="fill:#bfbfbf;fill-opacity:1;fill-rule:nonzero;stroke:none"
             d="m 0,0 -18.912,-0.065 c -1.598,-0.011 -2.572,0.963 -2.577,2.161 -0.005,1.199 0.967,2.171 2.559,2.179 L -0.018,4.34 C 1.574,4.343 2.553,3.377 2.558,2.178 2.563,0.98 1.597,0 0,0 M -0.012,5.047 -18.943,4.983 c -2.003,-0.003 -3.343,-1.32 -3.337,-2.894 0.007,-1.573 1.355,-2.865 3.364,-2.859 L 0.01,-0.705 c 2.008,0.007 3.346,1.309 3.34,2.882 -0.007,1.574 -1.358,2.881 -3.362,2.87" /></g><g
           transform="translate(62.8622,71.0836)"
           id="g184"><path
             id="path186"
             style="fill:#bfbfbf;fill-opacity:1;fill-rule:nonzero;stroke:none"
             d="M 0,0 0.894,0.003 0.896,-0.361 1.379,-0.359 1.38,-0.628 0.897,-0.629 0.905,-2.427 0.009,-2.43 l -0.006,1.798 -0.486,-0.002 -0.001,0.267 0.486,0.002 z" /></g><g
           transform="translate(52.3888,70.4187)"
           id="g188"><path
             id="path190"
             style="fill:#bfbfbf;fill-opacity:1;fill-rule:nonzero;stroke:none"
             d="M 0,0 0.894,0.003 0.901,-1.798 0.007,-1.801 Z" /></g><g
           transform="translate(52.3829,71.3268)"
           id="g192"><path
             id="path194"
             style="fill:#bfbfbf;fill-opacity:1;fill-rule:nonzero;stroke:none"
             d="M 0,0 0.896,0.003 0.898,-0.55 0.002,-0.553 Z" /></g><g
           transform="translate(68.8212,69.6506)"
           id="g196"><path
             id="path198"
             style="fill:#bfbfbf;fill-opacity:1;fill-rule:nonzero;stroke:none"
             d="m 0,0 v 0 c 0,-0.005 0,-0.273 0.001,-0.38 0.001,-0.288 -0.185,-0.406 -0.364,-0.407 -0.179,-0.001 -0.366,0.117 -0.367,0.404 -0.001,0.109 -0.002,0.388 -0.002,0.388 0,0 0,0.267 -0.001,0.376 -0.001,0.285 0.185,0.404 0.363,0.404 0.179,0.001 0.367,-0.116 0.368,-0.402 C -0.002,0.274 -0.001,0.073 0,0 v 0.001 z m -0.363,1.008 c -0.722,-0.002 -1.305,-0.457 -1.303,-1.015 0.003,-0.559 0.59,-1.01 1.311,-1.007 0.722,0.002 1.304,0.457 1.302,1.016 -0.002,0.558 -0.589,1.009 -1.31,1.006" /></g><g
           transform="translate(54.6945,69.8626)"
           id="g200"><path
             id="path202"
             style="fill:#bfbfbf;fill-opacity:1;fill-rule:nonzero;stroke:none"
             d="M 0,0 C -0.001,0.279 0.21,0.351 0.349,0.351 0.491,0.352 0.7,0.281 0.701,0.002 c 0,-0.091 0,-0.32 0,-0.32 0,0 0.002,-0.225 0.002,-0.321 0.002,-0.278 -0.207,-0.351 -0.348,-0.352 -0.14,0 -0.351,0.072 -0.352,0.35 C 0.002,-0.525 0.001,-0.322 0.001,-0.322 0.001,-0.322 0,-0.095 0,0 m -0.882,1.474 0.011,-2.708 0.884,0.003 c 0,0 0.001,0.088 0.001,0.104 0.342,-0.194 0.728,-0.192 1.028,-0.064 0.08,0.035 0.61,0.268 0.608,0.895 C 1.648,0.179 1.153,0.697 0.51,0.643 0.298,0.625 0.147,0.555 0.005,0.48 0.003,0.897 0.001,1.477 0.001,1.477 Z" /></g><g
           transform="translate(60.7174,70.2445)"
           id="g204"><path
             id="path206"
             style="fill:#bfbfbf;fill-opacity:1;fill-rule:nonzero;stroke:none"
             d="m 0,0 c 0.069,0.111 0.197,0.165 0.313,0.165 v 0 H 0.314 0.313 C 0.43,0.166 0.559,0.113 0.629,0.002 0.686,-0.088 0.689,-0.193 0.688,-0.351 L -0.058,-0.354 C -0.06,-0.195 -0.057,-0.09 0,0 M 0.689,-1.003 C 0.69,-1.333 0.452,-1.407 0.32,-1.407 c -0.132,0 -0.374,0.072 -0.375,0.401 -0.001,0.099 -0.001,0.372 -0.001,0.372 l 1.683,0.006 C 1.625,-0.069 1.031,0.391 0.305,0.389 -0.422,0.386 -1.01,-0.068 -1.007,-0.627 c 0.002,-0.558 0.593,-1.009 1.32,-1.006 0.603,0.002 1.111,0.317 1.265,0.742 L 0.687,-0.894 c 0,0 10e-4,-0.008 0.002,-0.109" /></g><g
           transform="translate(50.915,68.8805)"
           id="g208"><path
             id="path210"
             style="fill:#bfbfbf;fill-opacity:1;fill-rule:nonzero;stroke:none"
             d="m 0,0 -0.01,2.453 -0.895,-0.003 0.01,-2.453 0.001,-0.268 0.895,0.003 0.969,0.004 -0.002,0.267 z" /></g><g
           transform="translate(66.1198,69.8066)"
           id="g212"><path
             id="path214"
             style="fill:#bfbfbf;fill-opacity:1;fill-rule:nonzero;stroke:none"
             d="M 0,0 0.876,0.003 C 0.783,0.584 0.185,0.75 -0.122,0.742 -0.418,0.733 -0.663,0.616 -0.834,0.467 c -0.001,0.045 -0.001,0.19 -0.001,0.19 l -0.887,-0.004 0.007,-1.8 0.888,0.003 c 0,0 -0.006,1.106 -0.006,1.182 -0.001,0.157 0.18,0.332 0.423,0.333 C -0.167,0.372 -0.001,0.198 0,0.041 0,0.032 0,0.018 0,0" /></g><g
           transform="translate(57.7467,70.435)"
           id="g216"><path
             id="path218"
             style="fill:#bfbfbf;fill-opacity:1;fill-rule:nonzero;stroke:none"
             d="M 0,0 C 0,0 -0.001,0.203 -0.001,0.32 -0.002,0.597 0.209,0.671 0.348,0.671 0.49,0.672 0.698,0.6 0.699,0.322 0.7,0.226 0.7,0.001 0.7,0.001 c 0,0 0.002,-0.228 0.002,-0.32 C 0.703,-0.598 0.495,-0.67 0.353,-0.67 0.214,-0.671 0.002,-0.601 0.001,-0.322 0.001,-0.226 0,0 0,0 M 1.649,-0.015 C 1.646,0.612 1.114,0.842 1.034,0.877 0.732,1.003 0.347,1.002 0.006,0.805 c 0,0.017 -0.002,0.104 -0.002,0.104 l -0.884,-0.003 0.012,-2.708 0.882,0.003 c 0,0 -0.002,0.58 -0.004,0.997 0.004,-0.002 0.008,-0.004 0.011,-0.006 l 0.697,-0.988 0.875,0.003 -0.628,0.892 c 0.41,0.148 0.685,0.53 0.684,0.886" /></g><g
           transform="translate(132.909,72.2405)"
           id="g220"><path
             id="path222"
             style="fill:#bfbfbf;fill-opacity:1;fill-rule:nonzero;stroke:none"
             d="m 0,0 3.982,2.421 -9.083,5.188 -11.662,-6.97 3.715,-2.45 8.019,5.078 z" /></g><g
           transform="translate(116.427,72.8742)"
           id="g224"><path
             id="path226"
             style="fill:#141414;fill-opacity:1;fill-rule:nonzero;stroke:none"
             d="m 0,0 3.435,-2.267 7.942,5.028 c 0.048,0.03 0.108,0.028 0.154,-0.001 l 4.954,-3.218 3.684,2.241 -8.787,5.019 z m 3.434,-2.595 c -0.027,0 -0.055,0.008 -0.079,0.023 l -3.715,2.451 c -0.043,0.029 -0.068,0.078 -0.067,0.13 0.001,0.053 0.029,0.101 0.073,0.127 l 11.661,6.97 c 0.045,0.026 0.099,0.027 0.145,0.001 L 20.535,1.92 C 20.58,1.893 20.609,1.843 20.61,1.789 20.611,1.735 20.583,1.686 20.538,1.658 l -3.982,-2.421 c -0.047,-0.03 -0.106,-0.029 -0.152,0.002 L 11.453,2.455 3.51,-2.573 C 3.487,-2.588 3.461,-2.595 3.434,-2.595" /></g><g
           transform="translate(119.8608,70.4295)"
           id="g228"><path
             id="path230"
             style="fill:#bfbfbf;fill-opacity:1;fill-rule:nonzero;stroke:none"
             d="m 0,0 0.034,-9.39 7.941,-4.664 0.016,-4.225 -11.654,6.704 -0.051,14.025 z" /></g><g
           transform="translate(116.3435,58.9432)"
           id="g232"><path
             id="path234"
             style="fill:#141414;fill-opacity:1;fill-rule:nonzero;stroke:none"
             d="m 0,0 11.361,-6.536 -0.014,3.881 -7.868,4.62 C 3.434,1.992 3.405,2.042 3.405,2.096 l -0.034,9.307 -3.421,2.258 z m 11.509,-6.943 c -0.025,0 -0.05,0.005 -0.073,0.02 l -11.653,6.702 c -0.046,0.027 -0.075,0.078 -0.075,0.132 l -0.051,14.025 c -10e-4,0.056 0.028,0.106 0.076,0.132 0.045,0.03 0.104,0.024 0.149,-0.004 l 3.714,-2.45 c 0.042,-0.028 0.067,-0.076 0.068,-0.127 l 0.033,-9.303 7.868,-4.621 c 0.045,-0.027 0.074,-0.076 0.074,-0.13 l 0.015,-4.225 c 0,-0.053 -0.027,-0.104 -0.072,-0.131 -0.023,-0.013 -0.048,-0.02 -0.073,-0.02" /></g><g
           transform="translate(131.1539,61.9151)"
           id="g236"><path
             id="path238"
             style="fill:#bfbfbf;fill-opacity:1;fill-rule:nonzero;stroke:none"
             d="M 0,0 -0.053,1.811 5.138,4.987 5.145,3.076 C 3.538,2.128 1.611,0.982 0,0 M 8.7,-2.441 8.609,0.669 5.778,1.48 8.484,5 8.422,11.055 c 0,0 -0.04,-0.023 -0.112,-0.065 l -0.002,0.065 c 0,0 -11.661,-6.975 -11.66,-7.205 l 0.022,-6.044 0.028,-7.57 3.527,2.008 -0.105,3.615 5.04,3.084 0.012,-3.393 z" /></g><g
           transform="translate(131.2504,63.6424)"
           id="g240"><path
             id="path242"
             style="fill:#141414;fill-opacity:1;fill-rule:nonzero;stroke:none"
             d="m 0,0 0.042,-1.468 c 1.285,0.781 2.878,1.733 4.86,2.904 l -0.006,1.56 z m -0.096,-1.878 c -0.025,0 -0.049,0.006 -0.071,0.018 -0.045,0.026 -0.075,0.074 -0.076,0.128 L -0.295,0.08 c -0.002,0.054 0.026,0.106 0.071,0.133 L 4.967,3.389 C 5.012,3.417 5.069,3.416 5.114,3.391 5.16,3.364 5.188,3.314 5.188,3.26 L 5.195,1.35 C 5.195,1.295 5.167,1.245 5.122,1.219 2.995,-0.037 1.312,-1.043 -0.022,-1.857 -0.045,-1.871 -0.07,-1.878 -0.096,-1.878 m -3.206,3.944 0.048,-13.303 3.233,1.842 -0.102,3.522 c -0.001,0.054 0.026,0.106 0.072,0.133 l 5.04,3.085 c 0.045,0.028 0.102,0.027 0.147,0.002 C 5.182,-2.68 5.21,-2.73 5.21,-2.784 l 0.011,-3.139 3.233,1.842 -0.084,2.906 -2.728,0.783 c -0.047,0.012 -0.084,0.05 -0.1,0.098 -0.015,0.048 -0.006,0.1 0.025,0.14 L 8.241,3.324 8.182,9.116 C 8.175,9.118 8.167,9.121 8.161,9.123 3.748,6.482 -2.756,2.538 -3.302,2.066 m -0.096,-13.708 c -0.026,-0.001 -0.052,0.006 -0.075,0.02 -0.044,0.027 -0.072,0.077 -0.072,0.13 l -0.05,13.615 c 0,0.119 -10e-4,0.316 11.733,7.335 0.04,0.023 0.088,0.029 0.13,0.009 C 8.31,9.487 8.358,9.481 8.399,9.459 8.444,9.432 8.472,9.383 8.472,9.33 L 8.534,3.274 C 8.534,3.24 8.523,3.206 8.502,3.179 L 5.932,-0.163 8.553,-0.914 C 8.614,-0.932 8.657,-0.989 8.659,-1.055 L 8.75,-4.164 C 8.751,-4.221 8.722,-4.273 8.674,-4.3 L 5.147,-6.309 C 5.102,-6.336 5.046,-6.335 5.002,-6.307 4.958,-6.28 4.93,-6.231 4.93,-6.178 L 4.918,-3.048 0.173,-5.953 0.275,-9.479 C 0.276,-9.535 0.247,-9.587 0.199,-9.614 l -3.527,-2.009 c -0.022,-0.013 -0.046,-0.019 -0.07,-0.019" /></g><g
           transform="translate(127.8019,65.7654)"
           id="g244"><path
             id="path246"
             style="fill:#bfbfbf;fill-opacity:1;fill-rule:nonzero;stroke:none"
             d="m 0,0 -5.485,3.324 0.023,-6.338 5.486,-3.441 z" /></g><g
           transform="translate(122.4863,62.8367)"
           id="g248"><path
             id="path250"
             style="fill:#141414;fill-opacity:1;fill-rule:nonzero;stroke:none"
             d="M 0,0 5.192,-3.258 5.169,2.843 -0.022,5.989 Z m 5.34,-3.677 c -0.027,0 -0.054,0.007 -0.077,0.022 l -5.485,3.441 c -0.044,0.027 -0.07,0.076 -0.07,0.128 l -0.023,6.338 c -0.001,0.054 0.027,0.104 0.073,0.131 0.046,0.026 0.101,0.028 0.147,0 L 5.39,3.059 C 5.434,3.032 5.462,2.983 5.462,2.93 L 5.485,-3.526 C 5.485,-3.58 5.457,-3.631 5.411,-3.658 5.389,-3.671 5.364,-3.677 5.34,-3.677" /></g><g
           transform="translate(122.317,69.0893)"
           id="g252"><path
             id="path254"
             style="fill:#bfbfbf;fill-opacity:1;fill-rule:nonzero;stroke:none"
             d="M 0,0 C 0.296,-0.179 5.175,3.482 5.46,3.366 5.746,3.25 10.754,0.042 10.754,0.042 L 5.485,-3.324 Z" /></g><g
           transform="translate(122.3887,69.2204)"
           id="g256"><path
             id="path258"
             style="fill:#141414;fill-opacity:1;fill-rule:nonzero;stroke:none"
             d="m 0,0 0.003,-0.001 z m 0.287,-0.173 5.124,-3.105 4.995,3.189 C 8.462,1.155 5.702,2.906 5.359,3.083 5.111,3.013 3.91,2.196 2.94,1.537 1.444,0.52 0.69,0.025 0.287,-0.173 m 5.127,-3.432 c -0.026,0 -0.052,0.007 -0.075,0.021 l -5.485,3.323 c -0.07,0.043 -0.092,0.135 -0.052,0.206 0.035,0.061 0.106,0.091 0.165,0.069 0.268,0.045 1.736,1.042 2.812,1.775 2.087,1.42 2.487,1.655 2.663,1.586 0.29,-0.118 4.804,-3.007 5.318,-3.337 0.043,-0.027 0.069,-0.075 0.069,-0.128 0,-0.052 -0.026,-0.1 -0.069,-0.127 L 5.49,-3.583 C 5.467,-3.598 5.44,-3.605 5.414,-3.605" /></g></g></g></g></svg>