<?xml version="1.0" encoding="UTF-8" standalone="no"?>
<svg
   xmlns:dc="http://purl.org/dc/elements/1.1/"
   xmlns:cc="http://creativecommons.org/ns#"
   xmlns:rdf="http://www.w3.org/1999/02/22-rdf-syntax-ns#"
   xmlns:svg="http://www.w3.org/2000/svg"
   xmlns="http://www.w3.org/2000/svg"
   viewBox="0 0 341.33334 341.33334"
   height="256"
   width="256"
   xml:space="preserve"
   id="svg2"
   version="1.1"><metadata
     id="metadata8"><rdf:RDF><cc:Work
         rdf:about=""><dc:format>image/svg+xml</dc:format><dc:type
           rdf:resource="http://purl.org/dc/dcmitype/StillImage" /></cc:Work></rdf:RDF></metadata><defs
     id="defs6"><clipPath
       id="clipPath18"
       clipPathUnits="userSpaceOnUse"><path
         id="path16"
         d="M 0,256 H 256 V 0 H 0 Z" /></clipPath><clipPath
       id="clipPath26"
       clipPathUnits="userSpaceOnUse"><path
         id="path24"
         d="M 4,204 H 252 V 52 H 4 Z" /></clipPath></defs><g
     transform="matrix(1.3333333,0,0,-1.3333333,0,341.33333)"
     id="g10"><g
       id="g12"><g
         clip-path="url(#clipPath18)"
         id="g14"><g
           id="g20"><g
             id="g22" /><g
             id="g34"><g
               style="opacity:0.5"
               id="g32"
               clip-path="url(#clipPath26)"><g
                 id="g30"
                 transform="translate(240,204)"><path
                   id="path28"
                   style="fill:#ffffff;fill-opacity:1;fill-rule:nonzero;stroke:none"
                   d="m 0,0 h -224 c -6.617,0 -12,-5.383 -12,-12 v -20 c 0,-3.546 1.546,-6.738 4,-8.937 V -140 c 0,-6.617 5.383,-12 12,-12 H -4 c 6.617,0 12,5.383 12,12 v 99.063 c 2.454,2.199 4,5.391 4,8.937 v 20 C 12,-5.383 6.617,0 0,0" /></g></g></g></g><g
           transform="translate(240,196)"
           id="g36"><path
             id="path38"
             style="fill:#595959;fill-opacity:1;fill-rule:nonzero;stroke:none"
             d="m 0,0 h -224 c -2.209,0 -4,-1.791 -4,-4 v -20 c 0,-2.209 1.791,-4 4,-4 v -104 c 0,-2.209 1.791,-4 4,-4 H -4 c 2.209,0 4,1.791 4,4 v 104 c 2.209,0 4,1.791 4,4 V -4 C 4,-1.791 2.209,0 0,0" /></g><g
           transform="translate(47.8261,160)"
           id="g40"><path
             id="path42"
             style="fill:#cccccc;fill-opacity:1;fill-rule:nonzero;stroke:none"
             d="m 0,0 h 168.348 c 2.113,0 3.826,-1.635 3.826,-3.652 v -76.696 c 0,-2.017 -1.713,-3.652 -3.826,-3.652 H 0 c -2.113,0 -3.826,1.635 -3.826,3.652 V -3.652 C -3.826,-1.635 -2.113,0 0,0" /></g><g
           transform="translate(216.1739,162)"
           id="g44"><path
             id="path46"
             style="fill:#404040;fill-opacity:1;fill-rule:nonzero;stroke:none"
             d="m 0,0 h -168.348 c -3.212,0 -5.826,-2.536 -5.826,-5.652 v -76.696 c 0,-3.116 2.614,-5.652 5.826,-5.652 H 0 c 3.212,0 5.826,2.536 5.826,5.652 V -5.652 C 5.826,-2.536 3.212,0 0,0 m 0,-2 c 2.113,0 3.826,-1.635 3.826,-3.652 V -82.348 C 3.826,-84.365 2.113,-86 0,-86 h -168.348 c -2.113,0 -3.826,1.635 -3.826,3.652 v 76.696 c 0,2.017 1.713,3.652 3.826,3.652 L 0,-2" /></g><g
           transform="translate(102,72)"
           id="g48"><path
             id="path50"
             style="fill:#404040;fill-opacity:1;fill-rule:nonzero;stroke:none"
             d="M 0,0 H 52 L 26,-8 Z" /></g><g
           transform="translate(50,176)"
           id="g52"><path
             id="path54"
             style="fill:#404040;fill-opacity:1;fill-rule:nonzero;stroke:none"
             d="M 0,0 C 48.286,16 107.714,16 156,0 107.714,9.6 48.286,9.6 0,0" /></g><g
           transform="translate(102.1439,176)"
           id="g56"><path
             id="path58"
             style="fill:#404040;fill-opacity:1;fill-rule:nonzero;stroke:none"
             d="m 0,0 c -1.92,0 -3.688,-0.775 -5.028,-1.958 -0.1,0.162 -0.206,0.307 -0.311,0.425 -0.717,0.805 -1.865,1.231 -3.317,1.231 h -3.541 -0.151 -6.148 -0.252 -5.155 c -0.535,0 -0.955,-0.358 -1.111,-0.834 -0.704,0.5 -1.582,0.834 -2.72,0.834 h -3.691 c -0.595,0 -1.099,-0.413 -1.193,-0.974 l -1.511,-9.087 c -0.055,-0.334 0.044,-0.672 0.275,-0.929 0.229,-0.257 0.564,-0.406 0.917,-0.406 h 2.471 c 0.552,0 1.028,0.356 1.167,0.857 l 0.099,-0.201 c 0.2,-0.401 0.625,-0.656 1.089,-0.656 h 2.697 0.379 5.028 c 0.358,0 0.646,0.178 0.868,0.42 0.004,-0.004 10e-4,-0.01 0.005,-0.014 0.228,-0.257 0.563,-0.406 0.917,-0.406 h 2.468 c 0.407,0 0.715,0.232 0.935,0.535 0.027,-0.039 0.006,-0.093 0.038,-0.129 0.229,-0.257 0.564,-0.406 0.917,-0.406 h 2.468 c 0.552,0 1.028,0.359 1.167,0.859 l 0.102,-0.203 c 0.2,-0.401 0.624,-0.656 1.089,-0.656 h 3.076 c 0.436,0 0.839,0.226 1.051,0.589 0.017,0.028 0.011,0.063 0.025,0.092 0.932,-0.576 1.999,-0.983 3.271,-0.983 3.64,0 6.702,2.519 7.282,5.986 v 0.003 C 5.926,-4.471 5.519,-3.006 4.521,-1.89 3.451,-0.688 1.803,0 0,0" /></g><g
           transform="translate(137.9917,175.0214)"
           id="g60"><path
             id="path62"
             style="fill:#404040;fill-opacity:1;fill-rule:nonzero;stroke:none"
             d="m 0,0 c -0.196,0.413 -0.625,0.676 -1.099,0.676 h -2.96 c -0.356,0 -0.691,-0.148 -0.922,-0.408 L -6.016,-0.9 -6.546,0.061 c -0.21,0.379 -0.62,0.615 -1.068,0.615 h -2.961 c -0.266,0 -0.501,-0.106 -0.707,-0.253 -0.796,0.35 -1.681,0.556 -2.621,0.556 -2.073,0 -3.949,-0.918 -5.312,-2.268 -0.113,0.324 -0.234,0.643 -0.464,0.899 -0.632,0.708 -1.643,1.066 -3.008,1.066 h -3.529 c -0.594,0 -1.098,-0.412 -1.193,-0.974 l -1.511,-9.086 c -0.054,-0.334 0.045,-0.672 0.276,-0.929 0.229,-0.257 0.564,-0.406 0.917,-0.406 h 3.805 c 1.754,0 3.09,0.563 3.978,1.485 1.038,-1.15 2.606,-1.787 4.428,-1.787 2.491,0 4.643,1.232 5.982,3.084 l -0.242,-1.447 c -0.054,-0.334 0.045,-0.672 0.276,-0.929 0.229,-0.257 0.563,-0.406 0.917,-0.406 h 2.47 c 0.595,0 1.099,0.412 1.193,0.974 l 0.672,4.036 4.062,4.473 C 0.123,-0.893 0.196,-0.41 0,0" /></g><g
           transform="translate(186.793,169.2131)"
           id="g64"><path
             id="path66"
             style="fill:#404040;fill-opacity:1;fill-rule:nonzero;stroke:none"
             d="m 0,0 h -1.07 c 0.045,0.122 0.071,0.253 0.071,0.39 v 1.06 c 0,0.079 -0.01,0.158 -0.024,0.232 h 0.959 c 0.667,0 1.207,0.516 1.207,1.155 v 1.059 c 0,0.638 -0.54,1.155 -1.207,1.155 h -6.654 c -0.316,0 -0.593,-0.13 -0.808,-0.32 -0.502,0.232 -1.068,0.32 -1.578,0.32 h -3.88 c -0.517,0 -1.091,-0.088 -1.597,-0.327 -0.217,0.197 -0.504,0.327 -0.826,0.327 h -1.361 c -0.667,0 -1.207,-0.517 -1.207,-1.155 V 2.158 l -3.274,2.624 c -0.217,0.174 -0.493,0.269 -0.775,0.269 h -1.033 c -0.667,0 -1.207,-0.517 -1.207,-1.155 V 3.082 l -0.842,1.392 c -0.214,0.356 -0.612,0.577 -1.044,0.577 h -1.044 c -0.202,0 -0.391,-0.06 -0.562,-0.148 -0.175,0.092 -0.372,0.148 -0.579,0.148 h -1.513 c -0.446,0 -0.856,-0.235 -1.066,-0.611 l -1.469,-2.634 -1.553,2.654 c -0.215,0.365 -0.618,0.591 -1.054,0.591 h -1.728 c -0.245,0 -0.481,-0.072 -0.679,-0.199 -0.492,0.124 -1.067,0.199 -1.735,0.199 h -4.184 c -0.667,0 -1.207,-0.517 -1.207,-1.155 V 3.324 l -0.695,1.15 c -0.215,0.356 -0.613,0.577 -1.044,0.577 h -1.047 c -0.441,0 -0.846,-0.23 -1.059,-0.598 l -3.578,-6.219 c -0.205,-0.358 -0.198,-0.793 0.019,-1.145 0.217,-0.349 0.613,-0.566 1.039,-0.566 h 1.514 c 0.266,0 0.518,0.084 0.724,0.23 0.202,-0.144 0.452,-0.23 0.723,-0.23 h 8.404 c 1.089,0 2.336,0.079 3.3,0.652 0.573,0.333 1.035,0.784 1.375,1.321 l 0.844,-1.396 c 0.214,-0.356 0.612,-0.577 1.044,-0.577 h 1.044 c 0.202,0 0.391,0.06 0.562,0.148 0.175,-0.093 0.373,-0.148 0.579,-0.148 h 1.514 c 0.266,0 0.518,0.084 0.723,0.232 0.203,-0.146 0.455,-0.232 0.726,-0.232 h 6.115 c 0.667,0 1.207,0.516 1.207,1.155 v 1.749 l 3.27,-2.633 c 0.219,-0.174 0.492,-0.271 0.778,-0.271 h 1.035 c 0.322,0 0.609,0.13 0.826,0.327 0.506,-0.239 1.08,-0.327 1.597,-0.327 h 3.88 c 0.51,0 1.076,0.088 1.578,0.32 0.215,-0.19 0.492,-0.32 0.808,-0.32 H 0 c 0.667,0 1.207,0.516 1.207,1.155 v 1.168 C 1.207,-0.516 0.667,0 0,0" /></g><g
           transform="translate(72.5111,170.4701)"
           id="g68"><path
             id="path70"
             style="fill:#595959;fill-opacity:1;fill-rule:nonzero;stroke:none"
             d="M 0,0 H 0.24 C 1.046,0 1.977,0.145 2.142,1.133 2.306,2.121 1.423,2.266 0.616,2.266 H 0.377 Z M 4.598,-5.014 H 1.523 l -1.75,3.495 h -0.025 l -0.582,-3.495 h -2.47 l 1.511,9.088 H 1.9 C 3.778,4.074 5.059,3.218 4.737,1.278 4.528,0.024 3.617,-1.06 2.23,-1.29 Z" /></g><g
           transform="translate(80.3787,172.5435)"
           id="g72"><path
             id="path74"
             style="fill:#595959;fill-opacity:1;fill-rule:nonzero;stroke:none"
             d="M 0,0 -0.252,-1.519 H 2.532 L 2.2,-3.52 H -0.585 L -0.846,-5.087 H 2.091 L 1.758,-7.088 h -5.406 l 1.511,9.089 H 3.269 L 2.936,0 Z" /></g><g
           transform="translate(86.3953,165.4558)"
           id="g76"><path
             id="path78"
             style="fill:#595959;fill-opacity:1;fill-rule:nonzero;stroke:none"
             d="m 0,0 h -2.47 l 1.178,7.088 h -2.041 l 0.333,2 h 6.552 l -0.332,-2 H 1.178 Z" /></g><g
           transform="translate(91.5879,170.4701)"
           id="g80"><path
             id="path82"
             style="fill:#595959;fill-opacity:1;fill-rule:nonzero;stroke:none"
             d="M 0,0 H 0.24 C 1.046,0 1.977,0.145 2.142,1.133 2.306,2.121 1.423,2.266 0.616,2.266 H 0.377 Z M 4.598,-5.014 H 1.523 l -1.75,3.495 h -0.025 l -0.582,-3.495 h -2.47 l 1.511,9.088 H 1.9 C 3.778,4.074 5.059,3.218 4.737,1.278 4.528,0.024 3.617,-1.06 2.23,-1.29 Z" /></g><g
           transform="translate(98.6809,170.1565)"
           id="g84"><path
             id="path86"
             style="fill:#595959;fill-opacity:1;fill-rule:nonzero;stroke:none"
             d="M 0,0 C -0.261,-1.567 0.759,-2.712 2.233,-2.712 3.708,-2.712 5.108,-1.567 5.368,0 5.577,1.254 4.557,2.399 3.083,2.399 1.608,2.399 0.208,1.254 0,0 M 7.941,0.012 C 7.452,-2.929 4.902,-5.002 1.853,-5.002 c -3.05,0 -4.911,2.073 -4.422,5.014 0.457,2.748 3.298,4.677 6.033,4.677 2.734,0 4.934,-1.929 4.477,-4.677" /></g><g
           transform="translate(113.6528,170.9766)"
           id="g88"><path
             id="path90"
             style="fill:#595959;fill-opacity:1;fill-rule:nonzero;stroke:none"
             d="M 0,0 H 0.277 C 0.933,0 1.632,0.108 1.76,0.88 1.898,1.711 1.137,1.76 0.469,1.76 H 0.292 Z m -0.617,-3.713 h 0.315 c 0.731,0 1.96,-0.036 2.126,0.964 0.182,1.098 -1.058,0.989 -1.864,0.989 h -0.252 z m -2.771,-1.808 1.511,9.089 H 1.652 C 3.341,3.568 4.37,2.941 4.082,1.205 3.945,0.386 3.559,-0.277 2.727,-0.651 L 2.723,-0.675 C 4.056,-0.844 4.489,-1.724 4.279,-2.99 3.963,-4.894 2.157,-5.521 0.418,-5.521 Z" /></g><g
           transform="translate(120.6232,170.1565)"
           id="g92"><path
             id="path94"
             style="fill:#595959;fill-opacity:1;fill-rule:nonzero;stroke:none"
             d="M 0,0 C -0.26,-1.567 0.759,-2.712 2.234,-2.712 3.708,-2.712 5.108,-1.567 5.369,0 5.577,1.254 4.558,2.399 3.083,2.399 1.609,2.399 0.209,1.254 0,0 M 7.942,0.012 C 7.453,-2.929 4.903,-5.002 1.853,-5.002 c -3.049,0 -4.911,2.073 -4.421,5.014 0.456,2.748 3.298,4.677 6.032,4.677 2.735,0 4.935,-1.929 4.478,-4.677" /></g><g
           transform="translate(127.417,174.5442)"
           id="g96"><path
             id="path98"
             style="fill:#595959;fill-opacity:1;fill-rule:nonzero;stroke:none"
             d="M 0,0 H 2.961 L 4.328,-2.471 6.516,0 H 9.477 L 5.188,-4.725 4.463,-9.088 h -2.47 l 0.725,4.363 z" /></g><g
           transform="translate(146.942,168.0596)"
           id="g100"><path
             id="path102"
             style="fill:#595959;fill-opacity:1;fill-rule:nonzero;stroke:none"
             d="M 0,0 H -1.953 V 3.942 H 0.731 C 2.155,3.942 2.873,3.266 2.873,2.001 2.873,0.458 1.915,0 0,0 M 10.003,5.05 7.495,0.554 4.861,5.05 H 3.134 L 3.874,3.826 C 3.279,4.612 2.218,5.05 0.718,5.05 H -3.466 V 0.172 L -6.411,5.05 h -1.047 l -3.579,-6.219 h 1.513 L -7.016,3.327 -5.068,0 h -3.007 v -1.169 h 4.609 0.81 2.984 c 1.159,0 2.041,0.108 2.671,0.482 0.907,0.53 1.437,1.494 1.437,2.664 0,0.615 -0.145,1.14 -0.402,1.584 l 2.856,-4.73 h 1.046 l 3.579,6.219 z" /></g><g
           transform="translate(170.0244,169.8435)"
           id="g104"><path
             id="path106"
             style="fill:#595959;fill-opacity:1;fill-rule:nonzero;stroke:none"
             d="m 0,0 c 0,-0.193 0.025,-0.555 0.063,-1.073 -0.227,0.253 -0.48,0.47 -0.744,0.675 l -4.575,3.664 h -1.033 v -5.12 l -3.091,5.12 h -1.046 l -3.579,-6.219 h 1.512 l 2.508,4.496 1.949,-3.327 h -3.008 v -1.169 h 4.755 0.665 0.697 V 0.41 c 0,0.18 -0.014,0.506 -0.064,0.988 0.177,-0.193 0.353,-0.349 0.542,-0.506 L 0.327,-2.953 H 1.361 V 3.266 H 0 Z" /></g><g
           transform="translate(177.6897,173.1098)"
           id="g108"><path
             id="path110"
             style="fill:#595959;fill-opacity:1;fill-rule:nonzero;stroke:none"
             d="m 0,0 h -3.882 c -1.222,0 -1.613,-0.301 -1.613,-1.47 v -3.279 c 0,-1.169 0.391,-1.471 1.613,-1.471 H 0 c 1.222,0 1.613,0.302 1.613,1.471 v 0.735 L 0.101,-4.013 V -5.05 h -4.083 v 3.941 H 0.101 V -2.061 H 1.613 V -1.47 C 1.613,-0.301 1.222,0 0,0" /></g><g
           transform="translate(181.5878,168.0596)"
           id="g112"><path
             id="path114"
             style="fill:#595959;fill-opacity:1;fill-rule:nonzero;stroke:none"
             d="m 0,0 v 1.543 h 2.999 v 1.06 H 0 V 3.99 h 5.142 v 1.06 h -6.654 v -6.219 h 6.716 l 0,1.169 z" /></g><path
           id="path116"
           style="fill:#000000;fill-opacity:1;fill-rule:nonzero;stroke:none"
           d="m 192.667,107.36 h 18.667 v -4.387 h -18.667 z m 18.666,-22.249 h -18.667 v 17.141 h 18.667 z M 192,108 V 102.973 102.258 85.003 84.39 80 h 20 v 4.39 0.613 17.255 0.715 5.027 z" /><g
           transform="translate(194.9354,82.7802)"
           id="g118"><path
             id="path120"
             style="fill:#cccccc;fill-opacity:1;fill-rule:nonzero;stroke:none"
             d="M 0,0 H 2.101 V -1.634 C 1.469,-1.759 0.734,-1.841 0.068,-1.841 c -1.469,0 -2.186,0.687 -2.186,1.642 0,0.956 0.717,1.643 2.231,1.643 1.254,0 1.909,-0.316 1.926,-1.046 H 0.525 C 0.52,0.497 0.469,0.562 0.401,0.601 0.333,0.64 0.237,0.657 0.136,0.657 c -0.243,0 -0.401,-0.095 -0.48,-0.22 -0.08,-0.126 -0.102,-0.432 -0.102,-0.696 0,-0.303 0.034,-0.51 0.107,-0.61 0.096,-0.13 0.254,-0.185 0.463,-0.185 0.153,0 0.3,0.017 0.43,0.064 v 0.377 l -0.554,0 z" /></g><g
           transform="translate(199.8126,82.2832)"
           id="g122"><path
             id="path124"
             style="fill:#cccccc;fill-opacity:1;fill-rule:nonzero;stroke:none"
             d="M 0,0 -0.322,1.176 H -0.333 L -0.689,0 Z m -1.339,1.859 h 2.096 l 1.31,-3.121 H 0.395 l -0.158,0.501 h -1.169 l -0.164,-0.501 h -1.548 z" /></g><g
           transform="translate(206.0846,83.2514)"
           id="g126"><path
             id="path128"
             style="fill:#cccccc;fill-opacity:1;fill-rule:nonzero;stroke:none"
             d="m 0,0 h -0.011 l -0.576,-2.23 h -1.48 L -2.643,0 h -0.012 v -2.23 h -1.367 v 3.12 h 2.243 l 0.446,-1.858 h 0.011 L -0.875,0.89 H 1.367 V -2.23 H 0 Z" /></g><g
           transform="translate(208.0309,84.1419)"
           id="g130"><path
             id="path132"
             style="fill:#cccccc;fill-opacity:1;fill-rule:nonzero;stroke:none"
             d="M 0,0 H 3.101 V -0.813 H 1.548 V -1.145 H 2.982 V -1.958 H 1.548 v -0.35 h 1.604 v -0.813 l -3.152,0 z" /></g><g
           transform="translate(195.4938,105.7682)"
           id="g134"><path
             id="path136"
             style="fill:#000000;fill-opacity:1;fill-rule:nonzero;stroke:none"
             d="m 0,0 c -0.018,0.238 -0.2,0.373 -0.503,0.373 -0.425,0 -0.503,-0.494 -0.503,-0.888 0,-0.384 0.085,-0.837 0.503,-0.837 0.311,0 0.488,0.135 0.503,0.387 h 0.776 c 0.012,-0.665 -0.632,-0.899 -1.279,-0.899 -0.832,0 -1.279,0.493 -1.279,1.378 0,0.885 0.447,1.363 1.279,1.371 0.647,0 1.291,-0.22 1.279,-0.885 z" /></g><g
           transform="translate(196.5455,103.9589)"
           id="g138"><path
             id="path140"
             style="fill:#000000;fill-opacity:1;fill-rule:nonzero;stroke:none"
             d="M 0,0 V 2.639 H 0.739 V 0.512 h 1.21 L 1.949,0 Z" /></g><g
           transform="translate(200.2812,104.986)"
           id="g142"><path
             id="path144"
             style="fill:#000000;fill-opacity:1;fill-rule:nonzero;stroke:none"
             d="M 0,0 -0.34,1.097 H -0.351 L -0.714,0 Z m -1.815,-1.027 1.053,2.639 H 0.141 L 1.194,-1.027 H 0.359 l -0.178,0.515 h -1.083 l -0.174,-0.515 z" /></g><g
           transform="translate(203.0599,105.8231)"
           id="g146"><path
             id="path148"
             style="fill:#000000;fill-opacity:1;fill-rule:nonzero;stroke:none"
             d="m 0,0 c 0.004,0.102 -0.03,0.179 -0.096,0.234 -0.063,0.055 -0.159,0.084 -0.285,0.084 -0.17,0 -0.318,-0.11 -0.318,-0.241 0,-0.194 0.237,-0.256 0.433,-0.307 0.447,-0.114 1.098,-0.158 1.098,-0.87 0,-0.556 -0.555,-0.819 -1.172,-0.819 -0.621,0 -1.169,0.179 -1.18,0.895 h 0.74 c -0.004,-0.248 0.181,-0.383 0.447,-0.383 0.17,0 0.388,0.087 0.388,0.263 0,0.358 -0.547,0.281 -1.127,0.534 -0.27,0.117 -0.404,0.358 -0.404,0.643 0.03,0.625 0.585,0.797 1.143,0.797 0.551,0 1.117,-0.194 1.072,-0.83 z" /></g><g
           transform="translate(205.6012,105.8231)"
           id="g150"><path
             id="path152"
             style="fill:#000000;fill-opacity:1;fill-rule:nonzero;stroke:none"
             d="m 0,0 c 0.004,0.102 -0.03,0.179 -0.096,0.234 -0.063,0.055 -0.159,0.084 -0.285,0.084 -0.17,0 -0.318,-0.11 -0.318,-0.241 0,-0.194 0.237,-0.256 0.433,-0.307 0.447,-0.114 1.098,-0.158 1.098,-0.87 0,-0.556 -0.555,-0.819 -1.172,-0.819 -0.621,0 -1.169,0.179 -1.18,0.895 h 0.74 c -0.004,-0.248 0.181,-0.383 0.447,-0.383 0.17,0 0.388,0.087 0.388,0.263 0,0.358 -0.547,0.281 -1.127,0.534 -0.27,0.117 -0.404,0.358 -0.404,0.643 0.03,0.625 0.585,0.797 1.143,0.797 0.551,0 1.117,-0.194 1.072,-0.83 z" /></g><path
           id="path154"
           style="fill:#000000;fill-opacity:1;fill-rule:nonzero;stroke:none"
           d="m 206.712,106.598 h 0.739 v -2.639 h -0.739 z" /><g
           transform="translate(209.5116,105.7682)"
           id="g156"><path
             id="path158"
             style="fill:#000000;fill-opacity:1;fill-rule:nonzero;stroke:none"
             d="m 0,0 c -0.018,0.238 -0.2,0.373 -0.503,0.373 -0.425,0 -0.503,-0.494 -0.503,-0.888 0,-0.384 0.085,-0.837 0.503,-0.837 0.311,0 0.488,0.135 0.503,0.387 h 0.776 c 0.012,-0.665 -0.632,-0.899 -1.279,-0.899 -0.832,0 -1.279,0.493 -1.279,1.378 0,0.885 0.447,1.363 1.279,1.371 0.647,0 1.291,-0.22 1.279,-0.885 z" /></g><g
           transform="translate(208.6071,94.183)"
           id="g160"><path
             id="path162"
             style="fill:#000000;fill-opacity:1;fill-rule:nonzero;stroke:none"
             d="m 0,0 c 1.048,-3.44 -1.275,-5.772 -4.405,-6.703 -4.425,-1.317 -7.281,0.736 -8.487,4.695 -1.307,3.854 0.236,7.179 4.503,8.449 3.183,0.947 6.266,0.47 7.399,-3.191 L -5.572,1.887 C -6.073,3.283 -6.682,3.404 -7.294,3.222 -8.588,2.837 -8.311,1.487 -7.7,-0.519 c 0.579,-1.901 1.116,-3.288 2.375,-2.913 0.647,0.192 0.969,0.702 0.639,2.037 z" /></g><g
           transform="translate(59.9831,100.7872)"
           id="g164"><path
             id="path166"
             style="fill:#ffffff;fill-opacity:1;fill-rule:nonzero;stroke:none"
             d="m 0,0 c 7.141,0 12.93,-3.935 12.93,-8.787 0,-4.853 -5.789,-8.787 -12.93,-8.787 -7.141,0 -12.93,3.934 -12.93,8.787 C -12.93,-3.935 -7.141,0 0,0" /></g><g
           transform="translate(72.9133,92.0649)"
           id="g168"><path
             id="path170"
             style="fill:#a3834a;fill-opacity:1;fill-rule:nonzero;stroke:none"
             d="m 0,0 c 0,4.852 -5.789,8.787 -12.93,8.787 -7.141,0 -12.93,-3.935 -12.93,-8.787 0,-4.853 5.789,-8.788 12.93,-8.788 C -5.789,-8.788 0,-4.853 0,0 m 1.541,-0.006 1.546,-1.616 -2.21,-1.294 0.621,-2.502 -2.377,-0.065 -0.164,-2.724 -2.65,0.712 -0.447,-2.572 -2.452,0.95 -1.279,-2.267 -1.915,1.617 -1.67,-2.298 -1.84,1.95 -2.01,-1.821 -1.312,2.145 -2.37,-1.361 -0.819,2.401 -2.744,-1.055 -0.404,2.368 -2.455,-0.15 0.368,2.411 -2.511,0.01 0.587,2.632 -1.947,1.068 1.55,1.717 -1.392,2.389 2.263,0.698 -0.595,2.555 2.482,0.033 0.287,2.534 2.245,-0.727 0.743,2.47 2.268,-1.197 0.938,2.185 1.964,-1.332 1.38,2.077 1.855,-1.809 1.64,1.654 1.437,-2.085 2.245,1.408 0.89,-2.302 2.257,1.043 0.58,-2.402 2.675,0.465 L -1.283,5.557 1.419,5.273 0.654,3.003 3.008,2.018 Z" /></g><g
           transform="translate(48.1646,91.9999)"
           id="g172"><path
             id="path174"
             style="fill:#a3834a;fill-opacity:1;fill-rule:nonzero;stroke:none"
             d="m 0,0 c 0,4.284 5.302,7.769 11.818,7.769 6.517,0 11.819,-3.485 11.819,-7.769 0,-4.284 -5.302,-7.769 -11.819,-7.769 C 5.302,-7.769 0,-4.284 0,0 m 11.818,-8.06 c 6.681,0 12.117,3.616 12.117,8.06 0,4.444 -5.435,8.06 -12.117,8.06 C 5.137,8.06 -0.298,4.444 -0.298,0 c 0,-4.444 5.435,-8.06 12.116,-8.06" /></g><g
           transform="translate(67.4836,90.1402)"
           id="g176"><path
             id="path178"
             style="fill:#a3834a;fill-opacity:1;fill-rule:nonzero;stroke:none"
             d="m 0,0 h -15.13 c -1.278,-0.005 -2.054,0.832 -2.054,1.859 0,1.027 0.781,1.857 2.054,1.859 H 0 C 1.273,3.716 2.054,2.886 2.054,1.859 2.054,0.832 1.278,-0.005 0,0 m 0.007,4.324 h -15.145 c -1.602,0.003 -2.679,-1.121 -2.679,-2.469 0,-1.347 1.074,-2.459 2.682,-2.459 h 15.14 c 1.608,0 2.682,1.112 2.682,2.459 0,1.348 -1.077,2.472 -2.68,2.469" /></g><g
           transform="translate(62.299,92.9191)"
           id="g180"><path
             id="path182"
             style="fill:#a3834a;fill-opacity:1;fill-rule:nonzero;stroke:none"
             d="m 0,0 h 0.715 v -0.312 h 0.387 v -0.23 H 0.715 l 0.001,-1.54 H -0.001 L 0,-0.542 h -0.389 v 0.229 h 0.39 z" /></g><path
           id="path184"
           style="fill:#a3834a;fill-opacity:1;fill-rule:nonzero;stroke:none"
           d="m 53.918,92.38 h 0.715 v -1.543 h -0.715 z" /><path
           id="path186"
           style="fill:#a3834a;fill-opacity:1;fill-rule:nonzero;stroke:none"
           d="m 53.916,93.158 h 0.717 v -0.474 h -0.717 z" /><g
           transform="translate(67.0616,91.674)"
           id="g188"><path
             id="path190"
             style="fill:#a3834a;fill-opacity:1;fill-rule:nonzero;stroke:none"
             d="m 0,0 v 0 c 0,-0.005 -0.001,-0.234 -0.001,-0.326 0,-0.246 -0.149,-0.347 -0.292,-0.347 -0.143,0 -0.293,0.101 -0.293,0.347 v 0.332 c 0,0 0.001,0.229 0.001,0.322 0,0.245 0.15,0.346 0.292,0.346 0.143,0 0.292,-0.101 0.292,-0.346 0,-0.093 0,-0.266 0.001,-0.328 l 0,0.001 z m -0.287,0.865 c -0.577,0 -1.045,-0.388 -1.045,-0.866 0,-0.479 0.468,-0.867 1.045,-0.867 0.577,0 1.045,0.388 1.045,0.867 0,0.478 -0.468,0.866 -1.045,0.866" /></g><g
           transform="translate(55.7608,91.897)"
           id="g192"><path
             id="path194"
             style="fill:#a3834a;fill-opacity:1;fill-rule:nonzero;stroke:none"
             d="m 0,0 c 0,0.239 0.169,0.3 0.28,0.3 0.114,0 0.281,-0.061 0.281,-0.3 0,-0.079 -0.001,-0.274 -0.001,-0.274 0,0 0.001,-0.193 0.001,-0.275 0,-0.238 -0.167,-0.301 -0.28,-0.301 C 0.169,-0.85 0,-0.787 0,-0.549 v 0.273 z m -0.701,1.265 v -2.32 h 0.708 c 0,0 0,0.076 0,0.089 0.274,-0.167 0.582,-0.166 0.823,-0.057 0.064,0.029 0.489,0.228 0.489,0.765 0,0.407 -0.394,0.852 -0.909,0.807 C 0.24,0.535 0.119,0.475 0.005,0.412 v 0.853 z" /></g><g
           transform="translate(60.5804,92.2066)"
           id="g196"><path
             id="path198"
             style="fill:#a3834a;fill-opacity:1;fill-rule:nonzero;stroke:none"
             d="m 0,0 c 0.056,0.095 0.158,0.141 0.251,0.141 v 0 H 0.252 0.251 C 0.345,0.141 0.447,0.095 0.503,0 0.548,-0.077 0.551,-0.167 0.549,-0.303 H -0.047 C -0.049,-0.167 -0.046,-0.077 0,0 m 0.548,-0.861 c 0,-0.283 -0.191,-0.345 -0.296,-0.345 -0.106,0 -0.299,0.062 -0.299,0.345 0,0.084 0,0.318 0,0.318 H 1.3 c 0,0.479 -0.474,0.875 -1.055,0.875 -0.581,0 -1.053,-0.388 -1.053,-0.866 0,-0.478 0.472,-0.866 1.053,-0.866 0.482,0 0.89,0.268 1.015,0.632 H 0.547 c 0,0 0.001,-0.007 0.001,-0.093" /></g><g
           transform="translate(52.7339,91.0668)"
           id="g200"><path
             id="path202"
             style="fill:#a3834a;fill-opacity:1;fill-rule:nonzero;stroke:none"
             d="M 0,0 V 2.102 H -0.716 V 0 -0.229 H 0 0.775 V 0 Z" /></g><g
           transform="translate(64.9009,91.8156)"
           id="g204"><path
             id="path206"
             style="fill:#a3834a;fill-opacity:1;fill-rule:nonzero;stroke:none"
             d="M 0,0 H 0.701 C 0.628,0.498 0.151,0.642 -0.096,0.636 -0.332,0.629 -0.529,0.53 -0.666,0.403 c 0,0.038 0,0.162 0,0.162 h -0.709 l -10e-4,-1.543 h 0.71 c 0,0 0,0.948 0,1.013 0,0.134 0.145,0.284 0.339,0.284 C -0.132,0.319 0,0.169 0,0.035 Z" /></g><g
           transform="translate(58.2045,92.3785)"
           id="g208"><path
             id="path210"
             style="fill:#a3834a;fill-opacity:1;fill-rule:nonzero;stroke:none"
             d="m 0,0 v 0.274 c 0,0.238 0.169,0.3 0.281,0.3 0.113,0 0.28,-0.062 0.28,-0.3 0,-0.082 -0.001,-0.275 -0.001,-0.275 0,0 0.001,-0.196 0.001,-0.275 0,-0.239 -0.167,-0.299 -0.281,-0.299 -0.111,0 -0.28,0.06 -0.28,0.299 z M 1.319,-0.017 C 1.319,0.52 0.894,0.718 0.83,0.748 0.589,0.857 0.281,0.857 0.007,0.69 c 0,0.014 0,0.089 0,0.089 h -0.708 v -2.32 h 0.706 v 0.854 C 0.008,-0.689 0.011,-0.69 0.014,-0.692 l 0.554,-0.849 h 0.701 l -0.5,0.766 c 0.328,0.126 0.55,0.452 0.55,0.758" /></g><g
           transform="translate(94.5852,98.5015)"
           id="g212"><path
             id="path214"
             style="fill:#191919;fill-opacity:1;fill-rule:nonzero;stroke:none"
             d="m 0,0 v -1.616 h 3.972 c 1.196,0 1.591,-0.363 1.591,-1.776 v -1.034 c 0,-1.411 -0.395,-1.775 -1.591,-1.775 H 0.037 c -1.197,0 -1.591,0.364 -1.591,1.775 v 0.204 h 1.307 V -4.79 h 4.503 v 1.718 H 0.283 c -1.196,0 -1.579,0.364 -1.579,1.776 v 0.83 c 0,1.412 0.383,1.776 1.579,1.776 h 3.615 c 1.135,0 1.579,-0.35 1.579,-1.645 v -0.16 H 4.17 V 0 Z" /></g><g
           transform="translate(102.5724,98.5157)"
           id="g216"><path
             id="path218"
             style="fill:#191919;fill-opacity:1;fill-rule:nonzero;stroke:none"
             d="m 0,0 v -1.994 h 3.33 c 0.457,0 0.667,0.102 0.667,0.597 v 0.801 C 3.997,-0.102 3.787,0 3.33,0 Z m -1.456,1.295 h 5.453 c 0.975,0 1.431,-0.407 1.431,-1.455 v -1.674 c 0,-1.049 -0.456,-1.455 -1.431,-1.455 H 0 v -2.927 h -1.456 z" /></g><g
           transform="translate(86.7777,96.4375)"
           id="g220"><path
             id="path222"
             style="fill:#354f9f;fill-opacity:1;fill-rule:nonzero;stroke:none"
             d="m 0,0 c -0.164,-1.095 -0.358,-2.03 -1.049,-2.965 -0.762,-1.024 -1.759,-1.473 -2.821,-1.473 -1.999,0 -3.174,1.602 -2.856,3.961 0.328,2.438 1.944,4.039 3.993,4.039 1.307,0 2.225,-0.696 2.584,-2.099 L -1.822,0.687 c -0.131,0.716 -0.547,1.194 -1.214,1.194 -1.087,0 -1.817,-1.224 -1.972,-2.368 -0.156,-1.164 0.274,-2.349 1.362,-2.349 0.717,0 1.324,0.439 1.508,1.304 H -3.487 L -3.28,0 Z" /></g><g
           transform="translate(89.1758,96.3087)"
           id="g224"><path
             id="path226"
             style="fill:#354f9f;fill-opacity:1;fill-rule:nonzero;stroke:none"
             d="M 0,0 H 0.278 C 0.877,0 1.467,0 1.591,0.916 1.718,1.86 1.171,1.871 0.53,1.871 H 0.252 Z m -1.189,3.443 h 2.53 c 1.366,0 2.21,-0.747 1.978,-2.468 C 3.08,-0.796 2.166,-1.573 0.724,-1.573 H -0.212 L -0.547,-4.06 H -2.2 Z" /></g><g
           transform="translate(143.0428,100)"
           id="g228"><path
             id="path230"
             style="fill:#4b5da7;fill-opacity:1;fill-rule:nonzero;stroke:none"
             d="m 0,0 h -1.102 c -0.299,0 -0.58,-0.142 -0.761,-0.384 l -1.979,-2.649 -2.027,2.656 C -6.05,-0.139 -6.329,0 -6.624,0 H -7.738 C -8.266,0 -8.695,-0.437 -8.695,-0.977 V -2.42 h -1.538 c -0.158,0 -0.3,-0.048 -0.432,-0.117 l -1.095,2.031 C -11.928,-0.194 -12.249,0 -12.598,0 h -0.953 c -0.342,0 -0.658,-0.186 -0.829,-0.488 l -1.011,-1.787 v 0.126 c 0,0.646 -0.223,2.149 -2.289,2.149 h -6.149 c -0.354,0 -0.678,-0.199 -0.845,-0.517 l -1.46,-2.794 -1.544,2.812 C -27.847,-0.191 -28.166,0 -28.513,0 h -1.573 c -0.342,0 -0.658,-0.186 -0.829,-0.488 -0.171,-0.303 -0.171,-0.675 10e-4,-0.978 l 3.42,-6.046 C -27.323,-7.814 -27.007,-8 -26.665,-8 h 0.953 c 0.349,0 0.67,0.194 0.839,0.506 l 1.161,2.153 v -1.682 c 0,-0.54 0.429,-0.977 0.957,-0.977 h 10.525 c 0.308,0 0.582,0.148 0.757,0.379 0.18,-0.237 0.458,-0.379 0.757,-0.379 h 1.378 c 0.33,0 0.634,0.176 0.809,0.46 0.17,-0.27 0.453,-0.46 0.791,-0.46 h 1.114 c 0.528,0 0.957,0.437 0.957,0.977 v 1.265 l 0.825,-1.125 c 0.181,-0.246 0.465,-0.391 0.766,-0.391 H -3.8 c 0.301,0 0.584,0.144 0.765,0.39 l 0.803,1.09 V -7.023 C -2.232,-7.563 -1.803,-8 -1.275,-8 H 0 c 0.529,0 0.957,0.437 0.957,0.977 v 6.046 C 0.957,-0.437 0.529,0 0,0" /></g><g
           transform="translate(135.3052,99.023)"
           id="g232"><path
             id="path234"
             style="fill:#ffffff;fill-opacity:1;fill-rule:nonzero;stroke:none"
             d="M 0,0 H 1.113 L 3.903,-3.656 6.635,0 H 7.738 V -6.046 H 6.463 v 3.738 c 0,0.117 0.012,0.328 0.046,0.644 C 6.383,-1.933 6.268,-2.156 6.165,-2.296 L 3.938,-5.32 H 3.662 L 1.435,-2.285 C 1.297,-2.097 1.171,-1.898 1.079,-1.664 1.102,-1.91 1.113,-2.109 1.113,-2.308 v -3.738 l -1.113,0 z" /></g><path
           id="path236"
           style="fill:#ffffff;fill-opacity:1;fill-rule:nonzero;stroke:none"
           d="m 132.81,96.603 h 2.151 v -1.207 h -2.151 z" /><g
           transform="translate(125.4542,94.6056)"
           id="g238"><path
             id="path240"
             style="fill:#ffffff;fill-opacity:1;fill-rule:nonzero;stroke:none"
             d="m 0,0 c 0,-0.446 -0.195,-0.539 -0.666,-0.539 h -3.145 v 1.535 h 3.145 C -0.195,0.996 0,0.903 0,0.457 Z m -3.811,3.433 h 3.145 c 0.425,0 0.632,-0.081 0.632,-0.433 V 2.425 c 0,-0.351 -0.207,-0.433 -0.632,-0.433 H -3.811 Z M 6.873,-1.629 H 8.251 L 4.99,4.417 H 4.037 L 1.286,-0.445 v 0.773 c 0,0.644 -0.379,1.067 -1.068,1.16 C 0.873,1.57 1.24,1.922 1.24,2.507 v 0.739 c 0,0.843 -0.425,1.171 -1.332,1.171 h -6.149 l -2.284,-4.37 -2.399,4.37 h -1.573 l 3.421,-6.046 h 0.953 l 2.957,5.484 V -1.629 H 5.359 v 1.207 H 2.852 l 1.736,3.164 z" /></g><g
           transform="translate(162.1719,94.155)"
           id="g242"><path
             id="path244"
             style="fill:#191919;fill-opacity:1;fill-rule:nonzero;stroke:none"
             d="m 0,0 c 0,-0.59 -0.221,-0.713 -0.755,-0.713 h -3.567 v 2.031 h 3.567 C -0.221,1.318 0,1.194 0,0.605 Z m -4.322,4.542 h 3.567 c 0.482,0 0.716,-0.107 0.716,-0.573 v -0.76 c 0,-0.464 -0.234,-0.573 -0.716,-0.573 H -4.322 Z M 7.794,-2.155 h 1.563 l -3.698,8 H 4.578 l -3.12,-6.434 v 1.023 c 0,0.852 -0.429,1.412 -1.21,1.535 0.742,0.109 1.158,0.574 1.158,1.349 v 0.977 c 0,1.116 -0.482,1.55 -1.51,1.55 h -6.973 l -2.591,-5.783 -2.72,5.783 h -1.784 l 3.879,-8 h 1.081 l 3.354,7.256 V -2.155 H 6.077 v 1.597 H 3.234 l 1.969,4.186 z" /></g><g
           transform="translate(172.7313,99.9999)"
           id="g246"><path
             id="path248"
             style="fill:#a3834a;fill-opacity:1;fill-rule:nonzero;stroke:none"
             d="m 0,0 1.012,-4.828 0.021,0.022 c -0.029,0.382 -10e-4,0.796 0.054,1.21 L 1.568,0 H 2.895 L 1.827,-8 H 0.571 L -0.424,-3.172 -0.444,-3.194 -0.49,-4 -0.525,-4.329 -1.015,-8 h -1.327 l 1.068,8 z" /></g><g
           transform="translate(179.2376,99.9999)"
           id="g250"><path
             id="path252"
             style="fill:#a3834a;fill-opacity:1;fill-rule:nonzero;stroke:none"
             d="m 0,0 -0.198,-1.485 h -1.346 l -0.232,-1.74 h 1.185 L -0.79,-4.711 h -1.184 l -0.241,-1.804 h 1.363 L -1.05,-8 h -2.691 l 1.068,8 z" /></g><g
           transform="translate(181.2797,99.9999)"
           id="g254"><path
             id="path256"
             style="fill:#a3834a;fill-opacity:1;fill-rule:nonzero;stroke:none"
             d="M 0,0 0.234,-1.114 C 0.298,-1.507 0.376,-1.92 0.392,-2.334 H 0.41 c 0.126,0.414 0.287,0.817 0.466,1.22 L 1.425,0 H 2.86 L 0.908,-3.873 1.898,-8 H 0.357 L 0.1,-6.726 c -0.071,0.402 -0.099,0.795 -0.134,1.199 H -0.052 C -0.204,-5.931 -0.337,-6.324 -0.506,-6.726 L -1.068,-8 H -2.565 L -0.588,-3.873 -1.497,0 Z" /></g><g
           transform="translate(188,99.9999)"
           id="g258"><path
             id="path260"
             style="fill:#a3834a;fill-opacity:1;fill-rule:nonzero;stroke:none"
             d="M 0,0 -0.198,-1.485 H -1.25 L -2.12,-8 h -1.327 l 0.87,6.515 H -3.619 L -3.421,0 Z" /></g><g
           transform="translate(133.4225,88)"
           id="g262"><path
             id="path264"
             style="fill:#263979;fill-opacity:1;fill-rule:nonzero;stroke:none"
             d="m 0,0 h 3.288 l 1.213,-4.202 h 0.081 c 0.058,0.35 0.117,0.722 0.222,1.061 L 5.794,0 h 3.254 l 1.445,-8 H 7.404 L 6.972,-3.618 H 6.914 C 6.856,-3.883 6.797,-4.159 6.704,-4.413 L 5.433,-8 H 3.568 L 2.425,-4.615 C 2.332,-4.275 2.25,-3.958 2.227,-3.618 H 2.122 C 2.099,-3.936 2.075,-4.266 2.041,-4.583 L 1.667,-8 h -3.089 z" /></g><g
           transform="translate(148.3296,83.6498)"
           id="g266"><path
             id="path268"
             style="fill:#263979;fill-opacity:1;fill-rule:nonzero;stroke:none"
             d="M 0,0 C 0,0.382 -0.303,0.732 -0.734,0.732 -1.189,0.732 -1.411,0.392 -1.411,0 Z m -1.411,-1.167 c 0,-0.456 0.082,-0.965 0.711,-0.965 0.315,0 0.548,0.201 0.606,0.466 H 2.833 C 2.436,-3.024 0.77,-3.65 -0.653,-3.65 c -1.947,0 -3.731,0.912 -3.731,2.854 0,1.868 1.585,3.035 3.556,3.035 2.203,0 3.941,-1.295 3.789,-3.406 z" /></g><g
           transform="translate(154.9794,85.5597)"
           id="g270"><path
             id="path272"
             style="fill:#263979;fill-opacity:1;fill-rule:nonzero;stroke:none"
             d="M 0,0 1.002,0.043 V -2.111 L 0,-2.059 V -5.56 h -3.032 v 3.501 L -3.766,-2.111 V 0.043 L -3.032,0 v 1.889 l 3.032,0 z" /></g><g
           transform="translate(160.0764,83.6498)"
           id="g274"><path
             id="path276"
             style="fill:#263979;fill-opacity:1;fill-rule:nonzero;stroke:none"
             d="M 0,0 C 0,0.382 -0.303,0.732 -0.734,0.732 -1.189,0.732 -1.41,0.392 -1.41,0 Z m -1.41,-1.167 c 0,-0.456 0.081,-0.965 0.711,-0.965 0.315,0 0.547,0.201 0.606,0.466 H 2.833 C 2.437,-3.024 0.77,-3.65 -0.652,-3.65 c -1.947,0 -3.731,0.912 -3.731,2.854 0,1.868 1.585,3.035 3.556,3.035 2.203,0 3.94,-1.295 3.788,-3.406 z" /></g><g
           transform="translate(166.0388,82.9174)"
           id="g278"><path
             id="path280"
             style="fill:#263979;fill-opacity:1;fill-rule:nonzero;stroke:none"
             d="m 0,0 c 0,-0.445 0.373,-0.774 0.839,-0.774 0.467,0 0.84,0.329 0.84,0.774 0,0.457 -0.338,0.828 -0.84,0.828 C 0.338,0.828 0,0.457 0,0 m 4.594,-0.042 c 0,-1.867 -1.819,-2.875 -3.755,-2.875 -1.935,0 -3.753,1.008 -3.753,2.875 0,1.973 1.713,3.014 3.753,3.014 2.041,0 3.755,-1.041 3.755,-3.014" /></g><g
           transform="translate(176,82.9814)"
           id="g282"><path
             id="path284"
             style="fill:#263979;fill-opacity:1;fill-rule:nonzero;stroke:none"
             d="m 0,0 c -0.315,0.17 -0.537,0.308 -0.921,0.308 -0.782,0 -1.178,-0.425 -1.178,-1.125 v -2.164 h -3.008 v 5.634 h 3.008 l -0.07,-0.754 h 0.07 C -1.563,2.642 -1.015,2.801 0,2.78 Z" /></g><path
           id="path286"
           style="fill:#191919;fill-opacity:1;fill-rule:nonzero;stroke:none"
           d="m 122.947,84.68 h -2.655 v 1.907 h 2.655 z M 124,88 h -6.06 v -8 h 2.352 v 3.267 h 2.655 V 80 h 1.037 z" /><g
           transform="translate(96,87.1902)"
           id="g288"><path
             id="path290"
             style="fill:#191919;fill-opacity:1;fill-rule:nonzero;stroke:none"
             d="m 0,0 v -7.19 h 2.119 v 5.777 H 3.267 V -7.19 h 1.037 v 5.777 H 5.452 V -7.19 H 6.489 V -1.413 0 Z" /></g><g
           transform="translate(105.7678,81.4131)"
           id="g292"><path
             id="path294"
             style="fill:#191919;fill-opacity:1;fill-rule:nonzero;stroke:none"
             d="M 0,0 V 5.174 H 3.841 V 6.587 H 0 -0.85 -2.351 v -8 H -0.85 0 2.803 3.841 V 0 1.88 3.108 3.293 H 1.432 V 1.88 h 1.371 l 0,-1.88 z" /></g><g
           transform="translate(113.0077,81.4131)"
           id="g296"><path
             id="path298"
             style="fill:#191919;fill-opacity:1;fill-rule:nonzero;stroke:none"
             d="M 0,0 V 1.854 H 2.655 2.671 V 0 Z M 0,5.174 H 2.671 V 3.267 H 2.655 0 Z m -2.351,1.413 v -8 h 6.059 v 3.38 L 3.19,2.56 3.708,3.251 v 1.923 1.413 z" /></g></g></g></g></svg>