<?xml version="1.0" encoding="UTF-8" standalone="no"?>
<svg
   xmlns:dc="http://purl.org/dc/elements/1.1/"
   xmlns:cc="http://creativecommons.org/ns#"
   xmlns:rdf="http://www.w3.org/1999/02/22-rdf-syntax-ns#"
   xmlns:svg="http://www.w3.org/2000/svg"
   xmlns="http://www.w3.org/2000/svg"
   viewBox="0 0 341.33334 341.33334"
   height="256"
   width="256"
   xml:space="preserve"
   id="svg2"
   version="1.1"><metadata
     id="metadata8"><rdf:RDF><cc:Work
         rdf:about=""><dc:format>image/svg+xml</dc:format><dc:type
           rdf:resource="http://purl.org/dc/dcmitype/StillImage" /></cc:Work></rdf:RDF></metadata><defs
     id="defs6"><clipPath
       id="clipPath18"
       clipPathUnits="userSpaceOnUse"><path
         id="path16"
         d="M 0,256 H 256 V 0 H 0 Z" /></clipPath><clipPath
       id="clipPath26"
       clipPathUnits="userSpaceOnUse"><path
         id="path24"
         d="M 16,252 H 240 V 4 H 16 Z" /></clipPath><clipPath
       id="clipPath46"
       clipPathUnits="userSpaceOnUse"><path
         id="path44"
         d="M 40,228 H 216 V 24 H 40 Z" /></clipPath><clipPath
       id="clipPath120"
       clipPathUnits="userSpaceOnUse"><path
         id="path118"
         d="M 50,228 H 206 V 176 H 50 Z" /></clipPath></defs><g
     transform="matrix(1.3333333,0,0,-1.3333333,0,341.33333)"
     id="g10"><g
       id="g12"><g
         clip-path="url(#clipPath18)"
         id="g14"><g
           id="g20"><g
             id="g22" /><g
             id="g34"><g
               style="opacity:0.5"
               id="g32"
               clip-path="url(#clipPath26)"><g
                 id="g30"
                 transform="translate(240,218.4907)"><path
                   id="path28"
                   style="fill:#ffffff;fill-opacity:1;fill-rule:nonzero;stroke:none"
                   d="m 0,0 c 0,3.137 -1.575,5.924 -4,7.658 v 2.884 c 0,12.664 -10.235,22.967 -22.815,22.967 h -170.37 C -209.765,33.509 -220,23.206 -220,10.542 V 7.657 c -2.425,-1.733 -4,-4.52 -4,-7.657 v -0.981 c 0,-1.239 0.246,-2.423 0.692,-3.51 C -223.754,-5.577 -224,-6.761 -224,-8 v -0.981 c 0,-1.239 0.246,-2.423 0.692,-3.51 -0.446,-1.086 -0.692,-2.27 -0.692,-3.509 v -0.981 c 0,-1.239 0.246,-2.423 0.692,-3.51 -0.446,-1.086 -0.692,-2.27 -0.692,-3.509 v -0.981 c 0,-1.239 0.246,-2.423 0.692,-3.51 -0.446,-1.086 -0.692,-2.27 -0.692,-3.509 v -0.981 c 0,-3.138 1.575,-5.925 4,-7.658 v -83.529 -67.355 -14.968 c 0,-4.418 3.582,-8 8,-8 h 14.815 170.37 H -12 c 4.418,0 8,3.582 8,8 v 14.968 67.355 83.529 c 2.425,1.733 4,4.52 4,7.658 L 0,-32 c 0,1.239 -0.246,2.423 -0.692,3.509 0.446,1.087 0.692,2.271 0.692,3.51 V -24 c 0,1.239 -0.246,2.423 -0.692,3.509 0.446,1.087 0.692,2.271 0.692,3.51 V -16 c 0,1.239 -0.246,2.423 -0.692,3.509 C -0.246,-11.404 0,-10.22 0,-8.981 V -8 c 0,1.239 -0.246,2.423 -0.692,3.509 C -0.246,-3.404 0,-2.22 0,-0.981 Z" /></g></g></g></g><g
           transform="translate(213.1853,244)"
           id="g36"><path
             id="path38"
             style="fill:#8c8c8c;fill-opacity:1;fill-rule:nonzero;stroke:none"
             d="m 0,0 h -170.37 c -8.183,0 -14.815,-6.701 -14.815,-14.968 V -149.677 -217.032 -232 H -170.37 0 14.815 v 14.968 67.355 134.709 C 14.815,-6.701 8.182,0 0,0" /></g><g
           id="g40"><g
             id="g42" /><g
             id="g74"><g
               style="opacity:0.97491503"
               id="g72"
               clip-path="url(#clipPath46)"><g
                 id="g50"
                 transform="translate(49.3721,56)"><path
                   id="path48"
                   style="fill:#1d8047;fill-opacity:1;fill-rule:nonzero;stroke:none"
                   d="m 0,0 h 157.256 c 0.758,0 1.372,-0.601 1.372,-1.342 v -29.316 c 0,-0.741 -0.614,-1.342 -1.372,-1.342 L 0,-32 c -0.758,0 -1.372,0.601 -1.372,1.342 V -1.342 C -1.372,-0.601 -0.758,0 0,0" /></g><g
                 id="g54"
                 transform="translate(208,64)"><path
                   id="path52"
                   style="fill:#176639;fill-opacity:1;fill-rule:nonzero;stroke:none"
                   d="m 0,0 c 2.209,0 4,-1.791 4,-4 0,-2.209 -1.791,-4 -4,-4 -2.209,0 -4,1.791 -4,4 0,2.209 1.791,4 4,4 m -166.625,164 c -0.766,0 -1.375,-0.609 -1.375,-1.375 v -173.25 c 0,-0.766 0.609,-1.375 1.375,-1.375 H 6.625 C 7.391,-12 8,-11.391 8,-10.625 v 173.25 C 8,163.391 7.391,164 6.625,164 Z" /></g><g
                 id="g58"
                 transform="translate(184,182)"><path
                   id="path56"
                   style="fill:#666666;fill-opacity:1;fill-rule:nonzero;stroke:none"
                   d="m 0,0 c 0,-14.359 -11.641,-26 -26,-26 -14.359,0 -26,11.641 -26,26 0,14.359 11.641,26 26,26 C -11.641,26 0,14.359 0,0" /></g><g
                 id="g62"
                 transform="translate(69.3207,208)"><path
                   id="path60"
                   style="fill:#404040;fill-opacity:1;fill-rule:nonzero;stroke:none"
                   d="m 0,0 h 25.359 c 0.729,0 1.32,-0.676 1.32,-1.509 v -16.982 c 0,-0.833 -0.591,-1.509 -1.32,-1.509 H 0 c -0.729,0 -1.321,0.676 -1.321,1.509 V -1.509 C -1.321,-0.676 -0.729,0 0,0" /></g><g
                 id="g66"
                 transform="translate(149.3932,144)"><path
                   id="path64"
                   style="fill:#404040;fill-opacity:1;fill-rule:nonzero;stroke:none"
                   d="m 0,0 h 45.214 c 0.769,0 1.393,-0.601 1.393,-1.342 V -62.658 C 46.607,-63.399 45.983,-64 45.214,-64 H 0 c -0.769,0 -1.393,0.601 -1.393,1.342 V -1.342 C -1.393,-0.601 -0.769,0 0,0" /></g><g
                 id="g70"
                 transform="translate(81.3836,140)"><path
                   id="path68"
                   style="fill:#404040;fill-opacity:1;fill-rule:nonzero;stroke:none"
                   d="m 0,0 h 41.233 c 0.764,0 1.383,-0.676 1.383,-1.509 V -30.491 C 42.616,-31.324 41.997,-32 41.233,-32 H 0 c -0.764,0 -1.384,0.676 -1.384,1.509 V -1.509 C -1.384,-0.676 -0.764,0 0,0" /></g></g></g></g><path
           id="path76"
           style="fill:#a3834a;fill-opacity:1;fill-rule:nonzero;stroke:none"
           d="m 56,28 h -4 v 20 h 4 z" /><path
           id="path78"
           style="fill:#a3834a;fill-opacity:1;fill-rule:nonzero;stroke:none"
           d="m 64,28 h -4 v 20 h 4 z" /><path
           id="path80"
           style="fill:#a3834a;fill-opacity:1;fill-rule:nonzero;stroke:none"
           d="m 72,28 h -4 v 20 h 4 z" /><path
           id="path82"
           style="fill:#a3834a;fill-opacity:1;fill-rule:nonzero;stroke:none"
           d="m 80,28 h -4 v 20 h 4 z" /><path
           id="path84"
           style="fill:#a3834a;fill-opacity:1;fill-rule:nonzero;stroke:none"
           d="m 88,28 h -4 v 20 h 4 z" /><path
           id="path86"
           style="fill:#a3834a;fill-opacity:1;fill-rule:nonzero;stroke:none"
           d="m 96,28 h -4 v 20 h 4 z" /><path
           id="path88"
           style="fill:#a3834a;fill-opacity:1;fill-rule:nonzero;stroke:none"
           d="m 104,28 h -4 v 20 h 4 z" /><path
           id="path90"
           style="fill:#a3834a;fill-opacity:1;fill-rule:nonzero;stroke:none"
           d="m 112,28 h -4 v 20 h 4 z" /><path
           id="path92"
           style="fill:#a3834a;fill-opacity:1;fill-rule:nonzero;stroke:none"
           d="m 120,28 h -4 v 20 h 4 z" /><path
           id="path94"
           style="fill:#a3834a;fill-opacity:1;fill-rule:nonzero;stroke:none"
           d="m 128,28 h -4 v 20 h 4 z" /><path
           id="path96"
           style="fill:#a3834a;fill-opacity:1;fill-rule:nonzero;stroke:none"
           d="m 136,28 h -4 v 20 h 4 z" /><path
           id="path98"
           style="fill:#a3834a;fill-opacity:1;fill-rule:nonzero;stroke:none"
           d="m 144,28 h -4 v 20 h 4 z" /><path
           id="path100"
           style="fill:#a3834a;fill-opacity:1;fill-rule:nonzero;stroke:none"
           d="m 152,28 h -4 v 20 h 4 z" /><path
           id="path102"
           style="fill:#a3834a;fill-opacity:1;fill-rule:nonzero;stroke:none"
           d="m 160,28 h -4 v 20 h 4 z" /><path
           id="path104"
           style="fill:#a3834a;fill-opacity:1;fill-rule:nonzero;stroke:none"
           d="m 168,28 h -4 v 20 h 4 z" /><path
           id="path106"
           style="fill:#a3834a;fill-opacity:1;fill-rule:nonzero;stroke:none"
           d="m 176,28 h -4 v 20 h 4 z" /><path
           id="path108"
           style="fill:#a3834a;fill-opacity:1;fill-rule:nonzero;stroke:none"
           d="m 184,28 h -4 v 20 h 4 z" /><path
           id="path110"
           style="fill:#a3834a;fill-opacity:1;fill-rule:nonzero;stroke:none"
           d="m 192,28 h -4 v 20 h 4 z" /><path
           id="path112"
           style="fill:#a3834a;fill-opacity:1;fill-rule:nonzero;stroke:none"
           d="m 200,28 h -4 v 20 h 4 z" /><g
           id="g114"><g
             id="g116" /><g
             id="g128"><g
               style="opacity:0.75"
               id="g126"
               clip-path="url(#clipPath120)"><g
                 id="g124"
                 transform="translate(53.7143,228)"><path
                   id="path122"
                   style="fill:#8c8c8c;fill-opacity:1;fill-rule:nonzero;stroke:none"
                   d="m 0,0 h 148.571 c 2.052,0 3.715,-1.663 3.715,-3.714 v -44.572 c 0,-2.051 -1.663,-3.714 -3.715,-3.714 H 0 c -2.051,0 -3.714,1.663 -3.714,3.714 V -3.714 C -3.714,-1.663 -2.051,0 0,0" /></g></g></g></g><g
           transform="translate(221.8112,220)"
           id="g130"><path
             id="path132"
             style="fill:#808080;fill-opacity:1;fill-rule:nonzero;stroke:none"
             d="m 0,0 h 8.378 c 1,0 1.811,-0.676 1.811,-1.509 V -2.491 C 10.189,-3.324 9.378,-4 8.378,-4 H 0 c -1,0 -1.811,0.676 -1.811,1.509 v 0.982 C -1.811,-0.676 -1,0 0,0" /></g><g
           transform="translate(221.8112,212)"
           id="g134"><path
             id="path136"
             style="fill:#808080;fill-opacity:1;fill-rule:nonzero;stroke:none"
             d="m 0,0 h 8.378 c 1,0 1.811,-0.676 1.811,-1.509 V -2.491 C 10.189,-3.324 9.378,-4 8.378,-4 H 0 c -1,0 -1.811,0.676 -1.811,1.509 v 0.982 C -1.811,-0.676 -1,0 0,0" /></g><g
           transform="translate(221.8112,204)"
           id="g138"><path
             id="path140"
             style="fill:#808080;fill-opacity:1;fill-rule:nonzero;stroke:none"
             d="m 0,0 h 8.378 c 1,0 1.811,-0.676 1.811,-1.509 V -2.491 C 10.189,-3.324 9.378,-4 8.378,-4 H 0 c -1,0 -1.811,0.676 -1.811,1.509 v 0.982 C -1.811,-0.676 -1,0 0,0" /></g><g
           transform="translate(221.8112,196)"
           id="g142"><path
             id="path144"
             style="fill:#808080;fill-opacity:1;fill-rule:nonzero;stroke:none"
             d="m 0,0 h 8.378 c 1,0 1.811,-0.676 1.811,-1.509 V -2.491 C 10.189,-3.324 9.378,-4 8.378,-4 H 0 c -1,0 -1.811,0.676 -1.811,1.509 v 0.982 C -1.811,-0.676 -1,0 0,0" /></g><g
           transform="translate(221.8112,188)"
           id="g146"><path
             id="path148"
             style="fill:#808080;fill-opacity:1;fill-rule:nonzero;stroke:none"
             d="m 0,0 h 8.378 c 1,0 1.811,-0.676 1.811,-1.509 V -2.491 C 10.189,-3.324 9.378,-4 8.378,-4 H 0 c -1,0 -1.811,0.676 -1.811,1.509 v 0.982 C -1.811,-0.676 -1,0 0,0" /></g><g
           transform="translate(25.8112,220)"
           id="g150"><path
             id="path152"
             style="fill:#808080;fill-opacity:1;fill-rule:nonzero;stroke:none"
             d="m 0,0 h 8.378 c 1,0 1.811,-0.676 1.811,-1.509 V -2.491 C 10.189,-3.324 9.378,-4 8.378,-4 H 0 c -1,0 -1.811,0.676 -1.811,1.509 v 0.982 C -1.811,-0.676 -1,0 0,0" /></g><g
           transform="translate(25.8112,212)"
           id="g154"><path
             id="path156"
             style="fill:#808080;fill-opacity:1;fill-rule:nonzero;stroke:none"
             d="m 0,0 h 8.378 c 1,0 1.811,-0.676 1.811,-1.509 V -2.491 C 10.189,-3.324 9.378,-4 8.378,-4 H 0 c -1,0 -1.811,0.676 -1.811,1.509 v 0.982 C -1.811,-0.676 -1,0 0,0" /></g><g
           transform="translate(25.8112,204)"
           id="g158"><path
             id="path160"
             style="fill:#808080;fill-opacity:1;fill-rule:nonzero;stroke:none"
             d="m 0,0 h 8.378 c 1,0 1.811,-0.676 1.811,-1.509 V -2.491 C 10.189,-3.324 9.378,-4 8.378,-4 H 0 c -1,0 -1.811,0.676 -1.811,1.509 v 0.982 C -1.811,-0.676 -1,0 0,0" /></g><g
           transform="translate(25.8112,196)"
           id="g162"><path
             id="path164"
             style="fill:#808080;fill-opacity:1;fill-rule:nonzero;stroke:none"
             d="m 0,0 h 8.378 c 1,0 1.811,-0.676 1.811,-1.509 V -2.491 C 10.189,-3.324 9.378,-4 8.378,-4 H 0 c -1,0 -1.811,0.676 -1.811,1.509 v 0.982 C -1.811,-0.676 -1,0 0,0" /></g><g
           transform="translate(25.8112,188)"
           id="g166"><path
             id="path168"
             style="fill:#808080;fill-opacity:1;fill-rule:nonzero;stroke:none"
             d="m 0,0 h 8.378 c 1,0 1.811,-0.676 1.811,-1.509 V -2.491 C 10.189,-3.324 9.378,-4 8.378,-4 H 0 c -1,0 -1.811,0.676 -1.811,1.509 v 0.982 C -1.811,-0.676 -1,0 0,0" /></g><g
           transform="translate(59.2381,164)"
           id="g170"><path
             id="path172"
             style="fill:#b3b3b3;fill-opacity:1;fill-rule:nonzero;stroke:none"
             d="m 0,0 h 137.524 c 3.997,0 7.238,-3.098 7.238,-6.919 v -114.162 c 0,-3.821 -3.241,-6.919 -7.238,-6.919 H 0 c -3.997,0 -7.238,3.098 -7.238,6.919 V -6.919 C -7.238,-3.098 -3.997,0 0,0" /></g><path
           id="path174"
           style="fill:#2c8bbf;fill-opacity:1;fill-rule:nonzero;stroke:none"
           d="M 192,36 H 64 v 128 h 128 z" /><g
           transform="translate(204.255,176)"
           id="g176"><path
             id="path178"
             style="fill:#8c8c8c;fill-opacity:1;fill-rule:nonzero;stroke:none"
             d="m 0,0 c -5.9,8.29 -5.442,26.325 0,52 2.089,0 3.745,-1.646 3.745,-3.714 V 3.714 C 3.745,1.607 2.179,0 0,0" /></g><g
           transform="translate(52.9063,176)"
           id="g180"><path
             id="path182"
             style="fill:#8c8c8c;fill-opacity:1;fill-rule:nonzero;stroke:none"
             d="m 0,0 c 5.9,8.29 5.442,26.325 0,52 -2.089,0 -3.745,-1.646 -3.745,-3.714 V 3.714 C -3.745,1.607 -2.179,0 0,0" /></g><g
           transform="translate(90.0851,203.9852)"
           id="g184"><path
             id="path186"
             style="fill:#999999;fill-opacity:1;fill-rule:nonzero;stroke:none"
             d="m 0,0 c -0.175,-1.224 -1.166,-1.403 -2.024,-1.403 h -0.255 l 0.402,2.806 h 0.254 C -0.765,1.403 0.175,1.224 0,0 m -20.293,0 c -0.175,-1.224 -1.165,-1.403 -2.023,-1.403 h -0.255 l 0.401,2.806 h 0.254 c 0.858,0 1.798,-0.179 1.623,-1.403 M 2.76,0.179 C 3.103,2.582 1.74,3.642 -0.258,3.642 h -3.765 -0.162 -6.54 -0.269 -5.482 l -1.523,-10.669 -2.2,4.027 c 1.475,0.284 2.445,1.627 2.666,3.179 0.344,2.403 -1.02,3.463 -3.017,3.463 h -3.928 l -1.607,-11.254 h 2.627 l 0.618,4.328 h 0.027 l 1.862,-4.328 h 2.868 0.403 5.348 l 0.354,2.477 h -3.123 l 0.276,1.941 h 2.963 l 0.354,2.478 h -2.963 l 0.269,1.88 h 2.854 0.269 1.903 l -1.253,-8.776 h 2.627 l 1.254,8.776 h 2.009 l -1.254,-8.776 h 2.628 l 0.618,4.328 h 0.027 l 1.861,-4.328 H 2.612 L 0.094,-3 c 1.475,0.284 2.444,1.627 2.666,3.179" /></g><g
           transform="translate(101.0618,202.1938)"
           id="g188"><path
             id="path190"
             style="fill:#999999;fill-opacity:1;fill-rule:nonzero;stroke:none"
             d="m 0,0 c -0.277,-1.94 -1.766,-3.358 -3.335,-3.358 -1.568,0 -2.652,1.418 -2.375,3.358 0.221,1.553 1.711,2.97 3.279,2.97 C -0.862,2.97 0.222,1.553 0,0 m -2.026,5.806 c -2.909,0 -5.93,-2.388 -6.417,-5.791 -0.52,-3.641 1.459,-6.209 4.703,-6.209 3.244,0 5.957,2.568 6.477,6.209 0.486,3.403 -1.854,5.791 -4.763,5.791" /></g><g
           transform="translate(113.2183,199.8058)"
           id="g192"><path
             id="path194"
             style="fill:#999999;fill-opacity:1;fill-rule:nonzero;stroke:none"
             d="m 0,0 c -0.177,-1.238 -1.484,-1.194 -2.262,-1.194 h -0.335 l 0.345,2.418 h 0.269 C -1.125,1.224 0.193,1.359 0,0 m -1.63,5.583 h 0.188 c 0.711,0 1.521,-0.061 1.373,-1.09 -0.136,-0.955 -0.879,-1.09 -1.577,-1.09 H -1.941 Z M 0.956,2.567 0.961,2.597 C 1.845,3.06 2.256,3.881 2.401,4.896 2.708,7.045 1.613,7.821 -0.183,7.821 H -3.937 L -5.544,-3.433 h 4.048 c 1.85,0 3.771,0.776 4.107,3.135 0.224,1.567 -0.237,2.656 -1.655,2.865" /></g><g
           transform="translate(124.4028,202.1938)"
           id="g196"><path
             id="path198"
             style="fill:#999999;fill-opacity:1;fill-rule:nonzero;stroke:none"
             d="m 0,0 c -0.277,-1.94 -1.766,-3.358 -3.334,-3.358 -1.569,0 -2.653,1.418 -2.377,3.358 0.223,1.553 1.712,2.97 3.28,2.97 C -0.862,2.97 0.222,1.553 0,0 m -2.026,5.806 c -2.909,0 -5.931,-2.388 -6.417,-5.791 -0.52,-3.641 1.46,-6.209 4.704,-6.209 3.243,0 5.956,2.568 6.476,6.209 0.486,3.403 -1.854,5.791 -4.763,5.791" /></g><g
           transform="translate(132.8499,207.6269)"
           id="g200"><path
             id="path202"
             style="fill:#999999;fill-opacity:1;fill-rule:nonzero;stroke:none"
             d="M 0,0 -2.327,-3.06 -3.781,0 h -3.15 l 2.891,-5.851 -0.771,-5.403 h 2.627 L -1.412,-5.851 3.15,0 Z" /></g><g
           transform="translate(185.7222,203.8395)"
           id="g204"><path
             id="path206"
             style="fill:#999999;fill-opacity:1;fill-rule:nonzero;stroke:none"
             d="m 0,0 c -1.347,-0.497 -1.349,-0.49 -1.463,1.079 -0.371,0.936 0.224,0.989 0.94,0.914 C -0.045,1.942 0.435,1.899 0.91,1.821 1.277,1.76 1.77,1.734 1.815,1.269 1.849,0.912 1.446,0.677 1.138,0.513 0.771,0.317 0.389,0.143 0,0 m -5.157,0.688 v 0 z m -5.644,-6.302 c -1.474,-0.053 -2.767,1.182 -2.846,2.718 -0.079,1.531 1.495,2.908 3.297,2.886 1.746,-0.022 2.871,-0.908 2.885,-2.271 0.019,-1.751 -1.5,-3.268 -3.336,-3.333 m -18.876,-0.29 c -1.571,0.033 -2.758,1.248 -2.726,2.79 0.037,1.786 1.726,3.388 3.571,3.386 1.223,-0.002 2.097,-1.411 2.083,-3.358 -0.012,-1.638 -1.274,-2.853 -2.928,-2.818 m 31.088,2.991 c 0.657,0.457 1.252,0.828 1.802,1.262 0.907,0.717 1.592,1.609 1.865,2.812 C 5.354,2.381 5.082,3.167 4.107,3.908 2.404,5.202 0.511,5.725 -1.575,5.538 -4.189,5.304 -5.486,3.627 -5.084,0.983 -5.071,0.897 -5.122,0.801 -5.15,0.708 c 0.198,0.028 0.154,-0.131 0.159,-0.251 -0.055,0.078 -0.11,0.157 -0.164,0.236 0.001,0.005 0.003,0.01 0.005,0.015 -0.007,-0.001 -0.009,0.002 -0.016,0 l 0.009,-0.02 c -1.877,2.216 -4.222,3.009 -6.923,2.283 -3.18,-0.854 -4.776,-3.514 -4.693,-7.513 -0.925,0.157 -1.797,-0.101 -2.62,-0.48 -0.908,-0.417 -1.139,-0.089 -1.152,0.855 -0.028,2.079 -0.113,4.158 -0.205,6.236 -0.052,1.191 -0.322,2.324 -1.188,3.174 -0.991,0.973 -2.273,0.564 -2.677,-0.801 -0.172,-0.58 0.016,-1.083 0.188,-1.593 0.322,-0.962 0.718,-1.904 0.594,-2.964 -0.209,0.332 -0.413,0.669 -0.628,0.996 -1.672,2.54 -4.618,3.329 -7.219,1.937 -3.086,-1.653 -4.526,-4.976 -3.851,-8.892 -1.65,-0.079 -3.297,-0.428 -4.951,-0.096 -1.391,0.28 -2.207,1.205 -2.079,2.657 0.243,2.755 1.554,4.854 3.859,6.216 0.605,0.357 1.067,0.31 1.372,-0.505 0.235,-0.629 0.838,-0.857 1.467,-0.808 0.62,0.048 1.107,0.359 1.391,0.981 0.509,1.112 0.12,2.517 -0.956,3.114 -0.993,0.55 -2.07,0.799 -3.207,0.616 -1.959,-0.316 -3.23,-1.682 -4.425,-3.187 -0.87,-1.095 -1.502,-2.331 -2.089,-3.595 -0.377,-0.812 -0.573,-1.705 -0.573,-2.61 v -0.504 c 0,-0.602 0.114,-1.194 0.304,-1.761 0.006,-0.018 0.012,-0.037 0.018,-0.056 0.867,-2.786 2.872,-3.865 5.463,-3.955 1.374,-0.048 2.758,0.021 4.129,0.138 0.977,0.083 1.338,0.902 1.538,1.801 0.731,-0.4 1.407,-0.901 2.22,-1.142 3.473,-1.028 6.575,0.587 8.441,4.424 0.15,-1.225 0.275,-2.454 0.458,-3.673 0.182,-1.217 0.629,-1.68 1.764,-1.41 1.905,0.453 3.749,1.18 5.677,1.571 0.187,0.038 0.347,0.228 0.519,0.348 0.936,-1.03 2.087,-1.509 3.432,-1.46 3.179,0.115 5.576,1.622 7.187,4.518 0.108,-0.662 0.022,-1.3 -0.207,-1.923 -0.252,-0.682 -0.237,-1.371 0.089,-2.008 0.445,-0.872 1.191,-1.192 2.094,-1.032 0.827,0.147 1.096,0.84 1.157,1.598 0.061,0.749 0.013,1.508 0.013,2.636 1.894,-1.694 3.551,-3.176 5.208,-4.659 h 0.832 c 0.767,0.361 1.338,0.93 1.664,1.756 v 0.878 c -1.605,1.416 -3.21,2.831 -4.867,4.293" /></g><path
           id="path208"
           style="fill:#e6e6e6;fill-opacity:1;fill-rule:nonzero;stroke:none"
           d="M 84,68 H 68 v 24 h 16 z" /><path
           id="path210"
           style="fill:#000000;fill-opacity:1;fill-rule:nonzero;stroke:none"
           d="m 68.533,91.451 h 14.933 v -3.76 H 68.533 Z M 83.467,72.381 H 68.534 V 87.073 H 83.467 Z M 68,92 V 87.691 87.078 72.288 71.763 68 h 16 v 3.763 0.525 14.79 0.613 V 92 Z" /><g
           transform="translate(70.3483,70.383)"
           id="g212"><path
             id="path214"
             style="fill:#e6e6e6;fill-opacity:1;fill-rule:nonzero;stroke:none"
             d="M 0,0 H 1.681 V -1.4 C 1.175,-1.508 0.587,-1.578 0.054,-1.578 c -1.175,0 -1.749,0.589 -1.749,1.408 0,0.819 0.574,1.408 1.785,1.408 1.004,0 1.528,-0.271 1.541,-0.897 H 0.42 C 0.416,0.426 0.375,0.482 0.321,0.515 0.267,0.548 0.19,0.563 0.109,0.563 c -0.195,0 -0.321,-0.081 -0.385,-0.189 -0.063,-0.107 -0.081,-0.37 -0.081,-0.596 0,-0.259 0.027,-0.437 0.086,-0.523 0.077,-0.111 0.203,-0.159 0.37,-0.159 0.122,0 0.24,0.015 0.344,0.056 v 0.322 H 0 Z" /></g><g
           transform="translate(74.2501,69.957)"
           id="g216"><path
             id="path218"
             style="fill:#e6e6e6;fill-opacity:1;fill-rule:nonzero;stroke:none"
             d="M 0,0 -0.258,1.008 H -0.267 L -0.551,0 Z M -1.071,1.593 H 0.605 L 1.654,-1.082 H 0.316 l -0.126,0.43 h -0.936 l -0.131,-0.43 h -1.238 z" /></g><g
           transform="translate(79.2677,70.7869)"
           id="g220"><path
             id="path222"
             style="fill:#e6e6e6;fill-opacity:1;fill-rule:nonzero;stroke:none"
             d="M 0,0 H -0.009 L -0.47,-1.912 H -1.654 L -2.115,0 h -0.009 v -1.912 h -1.093 v 2.675 h 1.794 l 0.357,-1.593 h 0.009 L -0.7,0.763 H 1.094 V -1.912 H 0 Z" /></g><g
           transform="translate(80.8248,71.5502)"
           id="g224"><path
             id="path226"
             style="fill:#e6e6e6;fill-opacity:1;fill-rule:nonzero;stroke:none"
             d="M 0,0 H 2.481 V -0.697 H 1.238 V -0.982 H 2.386 V -1.678 H 1.238 v -0.3 H 2.521 V -2.675 H 0 Z" /></g><g
           transform="translate(70.7951,90.0871)"
           id="g228"><path
             id="path230"
             style="fill:#000000;fill-opacity:1;fill-rule:nonzero;stroke:none"
             d="m 0,0 c -0.015,0.204 -0.16,0.32 -0.402,0.32 -0.34,0 -0.402,-0.423 -0.402,-0.762 0,-0.329 0.067,-0.717 0.402,-0.717 0.248,0 0.39,0.116 0.402,0.332 h 0.621 c 0.009,-0.57 -0.506,-0.771 -1.023,-0.771 -0.666,0 -1.024,0.423 -1.024,1.181 0,0.759 0.358,1.169 1.024,1.175 C 0.115,0.758 0.63,0.57 0.621,0 Z" /></g><g
           transform="translate(71.6364,88.5362)"
           id="g232"><path
             id="path234"
             style="fill:#000000;fill-opacity:1;fill-rule:nonzero;stroke:none"
             d="M 0,0 V 2.262 H 0.592 V 0.439 H 1.559 V 0 Z" /></g><g
           transform="translate(74.625,89.4166)"
           id="g236"><path
             id="path238"
             style="fill:#000000;fill-opacity:1;fill-rule:nonzero;stroke:none"
             d="M 0,0 -0.272,0.94 H -0.281 L -0.571,0 Z m -1.452,-0.88 0.843,2.262 H 0.112 L 0.955,-0.88 H 0.287 L 0.145,-0.439 H -0.722 L -0.861,-0.88 Z" /></g><g
           transform="translate(76.8479,90.1341)"
           id="g240"><path
             id="path242"
             style="fill:#000000;fill-opacity:1;fill-rule:nonzero;stroke:none"
             d="m 0,0 c 0.003,0.088 -0.024,0.153 -0.077,0.201 -0.05,0.046 -0.127,0.072 -0.228,0.072 -0.136,0 -0.254,-0.094 -0.254,-0.207 0,-0.166 0.189,-0.22 0.346,-0.263 0.358,-0.098 0.878,-0.135 0.878,-0.746 0,-0.476 -0.443,-0.702 -0.937,-0.702 -0.497,0 -0.935,0.154 -0.944,0.768 h 0.592 c -0.003,-0.213 0.145,-0.329 0.358,-0.329 0.136,0 0.31,0.075 0.31,0.225 0,0.307 -0.438,0.242 -0.902,0.458 -0.216,0.1 -0.322,0.307 -0.322,0.551 0.023,0.536 0.467,0.683 0.914,0.683 0.44,0 0.893,-0.166 0.858,-0.711 z" /></g><g
           transform="translate(78.881,90.1341)"
           id="g244"><path
             id="path246"
             style="fill:#000000;fill-opacity:1;fill-rule:nonzero;stroke:none"
             d="m 0,0 c 0.003,0.088 -0.024,0.153 -0.077,0.201 -0.05,0.046 -0.127,0.072 -0.228,0.072 -0.136,0 -0.254,-0.094 -0.254,-0.207 0,-0.166 0.189,-0.22 0.346,-0.263 0.358,-0.098 0.878,-0.135 0.878,-0.746 0,-0.476 -0.443,-0.702 -0.937,-0.702 -0.497,0 -0.935,0.154 -0.944,0.768 h 0.592 c -0.003,-0.213 0.145,-0.329 0.358,-0.329 0.136,0 0.31,0.075 0.31,0.225 0,0.307 -0.438,0.242 -0.902,0.458 -0.216,0.1 -0.322,0.307 -0.322,0.551 0.023,0.536 0.467,0.683 0.914,0.683 0.44,0 0.893,-0.166 0.858,-0.711 z" /></g><path
           id="path248"
           style="fill:#000000;fill-opacity:1;fill-rule:nonzero;stroke:none"
           d="m 79.77,90.798 h 0.592 V 88.536 H 79.77 Z" /><g
           transform="translate(82.0093,90.0871)"
           id="g250"><path
             id="path252"
             style="fill:#000000;fill-opacity:1;fill-rule:nonzero;stroke:none"
             d="m 0,0 c -0.015,0.204 -0.16,0.32 -0.402,0.32 -0.341,0 -0.403,-0.423 -0.403,-0.762 0,-0.329 0.068,-0.717 0.403,-0.717 0.248,0 0.39,0.116 0.402,0.332 h 0.621 c 0.009,-0.57 -0.506,-0.771 -1.023,-0.771 -0.666,0 -1.024,0.423 -1.024,1.181 0,0.759 0.358,1.169 1.024,1.175 C 0.115,0.758 0.63,0.57 0.621,0 Z" /></g><g
           transform="translate(81.2857,80.1569)"
           id="g254"><path
             id="path256"
             style="fill:#000000;fill-opacity:1;fill-rule:nonzero;stroke:none"
             d="m 0,0 c 0.838,-2.949 -1.02,-4.947 -3.524,-5.746 -3.54,-1.129 -5.825,0.632 -6.79,4.025 -1.045,3.303 0.189,6.153 3.603,7.242 2.546,0.812 5.013,0.402 5.919,-2.735 L -4.457,1.617 c -0.402,1.197 -0.889,1.301 -1.378,1.145 -1.036,-0.33 -0.813,-1.488 -0.325,-3.207 0.463,-1.63 0.893,-2.818 1.9,-2.497 0.518,0.165 0.775,0.602 0.511,1.746 z" /></g><g
           transform="translate(171.9829,56.7872)"
           id="g258"><path
             id="path260"
             style="fill:#ffffff;fill-opacity:1;fill-rule:nonzero;stroke:none"
             d="m 0,0 c 7.141,0 12.93,-3.935 12.93,-8.787 0,-4.853 -5.789,-8.787 -12.93,-8.787 -7.141,0 -12.93,3.934 -12.93,8.787 C -12.93,-3.935 -7.141,0 0,0" /></g><g
           transform="translate(184.9133,48.0649)"
           id="g262"><path
             id="path264"
             style="fill:#a3834a;fill-opacity:1;fill-rule:nonzero;stroke:none"
             d="m 0,0 c 0,4.852 -5.789,8.787 -12.93,8.787 -7.141,0 -12.931,-3.935 -12.931,-8.787 0,-4.853 5.79,-8.788 12.931,-8.788 C -5.789,-8.788 0,-4.853 0,0 m 1.541,-0.006 1.546,-1.616 -2.21,-1.294 0.621,-2.502 -2.377,-0.065 -0.164,-2.724 -2.65,0.712 -0.447,-2.572 -2.453,0.95 -1.278,-2.267 -1.915,1.617 -1.671,-2.298 -1.839,1.95 -2.01,-1.821 -1.312,2.145 -2.37,-1.361 -0.82,2.401 -2.743,-1.055 -0.404,2.368 -2.455,-0.15 0.367,2.411 -2.511,0.01 0.588,2.632 -1.948,1.068 1.55,1.717 -1.391,2.389 2.263,0.698 -0.596,2.555 2.482,0.033 0.288,2.534 2.245,-0.727 0.743,2.47 2.267,-1.197 0.939,2.185 1.964,-1.332 1.38,2.077 1.855,-1.809 1.639,1.654 1.438,-2.085 2.245,1.408 0.89,-2.302 2.257,1.043 0.58,-2.402 2.675,0.465 L -1.283,5.557 1.419,5.273 0.654,3.003 3.008,2.018 Z" /></g><g
           transform="translate(160.1643,47.9999)"
           id="g266"><path
             id="path268"
             style="fill:#a3834a;fill-opacity:1;fill-rule:nonzero;stroke:none"
             d="m 0,0 c 0,4.284 5.302,7.769 11.818,7.769 6.517,0 11.819,-3.485 11.819,-7.769 0,-4.284 -5.302,-7.769 -11.819,-7.769 C 5.302,-7.769 0,-4.284 0,0 m 11.818,-8.06 c 6.682,0 12.117,3.616 12.117,8.06 0,4.444 -5.435,8.06 -12.117,8.06 C 5.137,8.06 -0.298,4.444 -0.298,0 c 0,-4.444 5.435,-8.06 12.116,-8.06" /></g><g
           transform="translate(179.4835,46.1402)"
           id="g270"><path
             id="path272"
             style="fill:#a3834a;fill-opacity:1;fill-rule:nonzero;stroke:none"
             d="m 0,0 h -15.13 c -1.278,-0.005 -2.055,0.832 -2.055,1.859 0,1.027 0.782,1.857 2.055,1.859 H 0 C 1.273,3.716 2.054,2.886 2.054,1.859 2.054,0.832 1.278,-0.005 0,0 m 0.007,4.324 h -15.145 c -1.602,0.003 -2.679,-1.121 -2.679,-2.469 0,-1.347 1.074,-2.459 2.681,-2.459 H 0.005 c 1.608,0 2.682,1.112 2.682,2.459 0,1.348 -1.077,2.472 -2.68,2.469" /></g><g
           transform="translate(174.2989,48.9191)"
           id="g274"><path
             id="path276"
             style="fill:#a3834a;fill-opacity:1;fill-rule:nonzero;stroke:none"
             d="m 0,0 h 0.715 v -0.312 h 0.387 v -0.23 H 0.715 l 0.001,-1.54 H -0.001 L 0,-0.542 h -0.389 v 0.229 h 0.39 z" /></g><path
           id="path278"
           style="fill:#a3834a;fill-opacity:1;fill-rule:nonzero;stroke:none"
           d="m 165.918,48.38 h 0.715 v -1.543 h -0.715 z" /><path
           id="path280"
           style="fill:#a3834a;fill-opacity:1;fill-rule:nonzero;stroke:none"
           d="m 165.916,49.158 h 0.717 v -0.474 h -0.717 z" /><g
           transform="translate(179.0614,47.674)"
           id="g282"><path
             id="path284"
             style="fill:#a3834a;fill-opacity:1;fill-rule:nonzero;stroke:none"
             d="m 0,0 v 0 c 0,-0.005 -0.001,-0.234 -0.001,-0.326 0,-0.246 -0.149,-0.347 -0.292,-0.347 -0.143,0 -0.293,0.101 -0.293,0.347 v 0.332 c 0,0 0.001,0.229 0.001,0.322 0,0.245 0.15,0.346 0.292,0.346 0.143,0 0.292,-0.101 0.292,-0.346 0,-0.093 0,-0.266 0.001,-0.328 l 0,0.001 z m -0.287,0.865 c -0.577,0 -1.045,-0.388 -1.045,-0.866 0,-0.479 0.468,-0.867 1.045,-0.867 0.577,0 1.045,0.388 1.045,0.867 0,0.478 -0.468,0.866 -1.045,0.866" /></g><g
           transform="translate(167.7606,47.897)"
           id="g286"><path
             id="path288"
             style="fill:#a3834a;fill-opacity:1;fill-rule:nonzero;stroke:none"
             d="m 0,0 c 0,0.239 0.169,0.3 0.28,0.3 0.114,0 0.281,-0.061 0.281,-0.3 0,-0.079 -0.001,-0.274 -0.001,-0.274 0,0 0.001,-0.193 0.001,-0.275 0,-0.238 -0.167,-0.301 -0.28,-0.301 C 0.169,-0.85 0,-0.787 0,-0.549 v 0.273 z m -0.701,1.265 v -2.32 h 0.708 c 0,0 0,0.076 0,0.089 0.274,-0.167 0.582,-0.166 0.823,-0.057 0.064,0.029 0.489,0.228 0.489,0.765 0,0.407 -0.394,0.852 -0.909,0.807 C 0.24,0.535 0.119,0.475 0.005,0.412 v 0.853 z" /></g><g
           transform="translate(172.5802,48.2066)"
           id="g290"><path
             id="path292"
             style="fill:#a3834a;fill-opacity:1;fill-rule:nonzero;stroke:none"
             d="m 0,0 c 0.056,0.095 0.158,0.141 0.251,0.141 v 0 H 0.252 0.251 C 0.345,0.141 0.447,0.095 0.503,0 0.548,-0.077 0.551,-0.167 0.549,-0.303 H -0.047 C -0.049,-0.167 -0.046,-0.077 0,0 m 0.548,-0.861 c 0,-0.283 -0.191,-0.345 -0.296,-0.345 -0.106,0 -0.299,0.062 -0.299,0.345 0,0.084 0,0.318 0,0.318 H 1.3 c 0,0.479 -0.474,0.875 -1.055,0.875 -0.581,0 -1.053,-0.388 -1.053,-0.866 0,-0.478 0.472,-0.866 1.053,-0.866 0.482,0 0.89,0.268 1.015,0.632 H 0.547 c 0,0 0.001,-0.007 0.001,-0.093" /></g><g
           transform="translate(164.7337,47.0668)"
           id="g294"><path
             id="path296"
             style="fill:#a3834a;fill-opacity:1;fill-rule:nonzero;stroke:none"
             d="M 0,0 V 2.102 H -0.716 V 0 -0.229 H 0 0.775 V 0 Z" /></g><g
           transform="translate(176.9008,47.8156)"
           id="g298"><path
             id="path300"
             style="fill:#a3834a;fill-opacity:1;fill-rule:nonzero;stroke:none"
             d="M 0,0 H 0.701 C 0.629,0.498 0.151,0.642 -0.096,0.636 -0.332,0.629 -0.529,0.53 -0.666,0.403 c 0,0.038 0,0.162 0,0.162 h -0.709 l -10e-4,-1.543 h 0.71 c 0,0 0,0.948 0,1.013 0,0.134 0.145,0.284 0.339,0.284 C -0.132,0.319 0,0.169 0,0.035 Z" /></g><g
           transform="translate(170.2043,48.3785)"
           id="g302"><path
             id="path304"
             style="fill:#a3834a;fill-opacity:1;fill-rule:nonzero;stroke:none"
             d="m 0,0 v 0.274 c 0,0.238 0.169,0.3 0.281,0.3 0.113,0 0.28,-0.062 0.28,-0.3 0,-0.082 -0.001,-0.275 -0.001,-0.275 0,0 0.001,-0.196 0.001,-0.275 0,-0.239 -0.167,-0.299 -0.281,-0.299 -0.111,0 -0.28,0.06 -0.28,0.299 z M 1.319,-0.017 C 1.319,0.52 0.894,0.718 0.83,0.748 0.589,0.857 0.281,0.857 0.007,0.69 c 0,0.014 0,0.089 0,0.089 h -0.708 v -2.32 h 0.706 v 0.854 C 0.008,-0.689 0.011,-0.69 0.014,-0.692 l 0.554,-0.849 h 0.701 l -0.5,0.766 c 0.328,0.126 0.55,0.452 0.55,0.758" /></g><g
           transform="translate(72.942,59.886)"
           id="g306"><path
             id="path308"
             style="fill:#b3b3b3;fill-opacity:1;fill-rule:nonzero;stroke:none"
             d="m 0,0 -0.023,-0.114 c -0.281,-1.372 -0.516,-3.772 -2.983,-3.772 -2.198,0 -2.12,1.639 -1.704,3.667 0.412,2.01 0.969,3.705 3.104,3.705 1.314,0 1.834,-0.514 1.958,-1.467 L -0.89,1.648 c -0.025,0.476 -0.101,0.942 -0.862,0.942 -1.007,0 -1.299,-1.066 -1.655,-2.799 -0.511,-2.496 -0.03,-2.781 0.511,-2.781 0.503,0 1.067,0.056 1.419,1.771 l 0.08,0.39 H -2.429 L -2.259,0 Z" /></g><g
           transform="translate(76.1487,58.5049)"
           id="g310"><path
             id="path312"
             style="fill:#b3b3b3;fill-opacity:1;fill-rule:nonzero;stroke:none"
             d="M 0,0 C 0.078,0.381 0.392,1.677 -0.381,1.677 -1.24,1.677 -1.405,0.391 -1.485,0 -1.567,-0.4 -1.929,-1.686 -1.07,-1.686 -0.296,-1.686 -0.078,-0.381 0,0 m -0.404,-1.791 h -0.025 c -0.319,-0.418 -0.621,-0.694 -1.284,-0.694 -1.436,0 -1.099,1.761 -0.939,2.542 0.164,0.8 0.532,2.419 1.993,2.419 0.541,0 0.843,-0.257 0.98,-0.609 H 0.346 L 0.455,2.4 H 1.609 L 0.623,-2.409 h -1.154 z" /></g><g
           transform="translate(79.8607,60.3148)"
           id="g314"><path
             id="path316"
             style="fill:#b3b3b3;fill-opacity:1;fill-rule:nonzero;stroke:none"
             d="M 0,0 H 0.024 C 0.34,0.399 0.787,0.666 1.376,0.666 1.929,0.666 2.32,0.419 2.357,0 h 0.025 c 0.331,0.419 0.787,0.666 1.413,0.666 1.093,0 1.255,-0.523 1.125,-1.162 L 4.156,-4.219 H 3.002 l 0.692,3.371 c 0.071,0.352 0.084,0.715 -0.48,0.715 -0.823,0 -0.86,-0.601 -0.948,-1.029 L 1.639,-4.219 H 0.486 l 0.669,3.266 c 0.066,0.381 0.168,0.82 -0.495,0.82 -0.724,0 -0.802,-0.62 -0.91,-1.029 l -0.627,-3.057 h -1.154 l 0.986,4.809 h 1.166 z" /></g><g
           transform="translate(88.1734,58.5049)"
           id="g318"><path
             id="path320"
             style="fill:#b3b3b3;fill-opacity:1;fill-rule:nonzero;stroke:none"
             d="M 0,0 C 0.08,0.391 0.442,1.677 -0.418,1.677 -1.192,1.677 -1.407,0.381 -1.485,0 -1.563,-0.381 -1.878,-1.676 -1.107,-1.686 -0.246,-1.676 -0.08,-0.39 0,0 m -1.476,5.495 h 1.154 L -1.067,1.867 h 0.025 c 0.31,0.371 0.641,0.609 1.23,0.609 1.461,0 1.166,-1.619 1.003,-2.419 -0.161,-0.781 -0.546,-2.542 -1.983,-2.542 -0.663,0 -0.852,0.276 -0.999,0.694 h -0.025 l -0.126,-0.618 h -1.155 z" /></g><g
           transform="translate(92.7295,58.5049)"
           id="g322"><path
             id="path324"
             style="fill:#b3b3b3;fill-opacity:1;fill-rule:nonzero;stroke:none"
             d="M 0,0 C 0.078,0.381 0.393,1.677 -0.381,1.677 -1.24,1.677 -1.405,0.391 -1.485,0 -1.567,-0.4 -1.929,-1.686 -1.07,-1.686 -0.296,-1.686 -0.078,-0.381 0,0 m -0.404,-1.791 h -0.024 c -0.32,-0.418 -0.622,-0.694 -1.284,-0.694 -1.437,0 -1.1,1.761 -0.94,2.542 0.164,0.8 0.533,2.419 1.993,2.419 0.541,0 0.844,-0.257 0.981,-0.609 H 0.346 L 0.456,2.4 H 1.609 L 0.624,-2.409 h -1.155 z" /></g><g
           transform="translate(97.0768,62.2668)"
           id="g326"><path
             id="path328"
             style="fill:#b3b3b3;fill-opacity:1;fill-rule:nonzero;stroke:none"
             d="M 0,0 -0.28,-1.362 H 0.335 L 0.19,-2.067 h -0.614 l -0.841,-4.104 h -1.154 l 0.842,4.104 h -0.627 l 0.145,0.705 h 0.626 L -1.155,0 Z" /></g><g
           transform="translate(99.7907,62.2668)"
           id="g330"><path
             id="path332"
             style="fill:#b3b3b3;fill-opacity:1;fill-rule:nonzero;stroke:none"
             d="M 0,0 -0.28,-1.362 H 0.335 L 0.19,-2.067 h -0.614 l -0.841,-4.104 h -1.154 l 0.842,4.104 h -0.627 l 0.145,0.705 h 0.626 L -1.155,0 Z" /></g><g
           transform="translate(102.8105,58.9624)"
           id="g334"><path
             id="path336"
             style="fill:#b3b3b3;fill-opacity:1;fill-rule:nonzero;stroke:none"
             d="M 0,0 C 0.076,0.371 0.25,1.219 -0.45,1.219 -1.175,1.219 -1.299,0.371 -1.375,0 Z m -1.506,-0.638 c -0.082,-0.4 -0.333,-1.505 0.415,-1.505 0.614,0 0.832,0.524 0.908,0.895 h 1.069 c -0.182,-0.885 -0.851,-1.695 -2.152,-1.695 -1.732,0 -1.599,1.428 -1.39,2.447 0.202,0.981 0.663,2.515 2.37,2.515 1.681,0 1.565,-1.524 1.363,-2.515 L 1.048,-0.638 Z" /></g><g
           transform="translate(70.9424,40.2353)"
           id="g338"><path
             id="path340"
             style="fill:#b3b3b3;fill-opacity:1;fill-rule:nonzero;stroke:none"
             d="m 0,0 h -2.181 l 1.041,5.534 h -1.802 l 0.294,1.562 H 3.136 L 2.842,5.534 H 1.04 Z" /></g><g
           transform="translate(82.6478,44.1973)"
           id="g342"><path
             id="path344"
             style="fill:#b3b3b3;fill-opacity:1;fill-rule:nonzero;stroke:none"
             d="m 0,0 c -0.217,-1.035 -0.472,-1.92 -1.384,-2.804 -1.005,-0.97 -2.32,-1.393 -3.721,-1.393 -2.637,0 -4.187,1.515 -3.768,3.746 0.433,2.306 2.565,3.821 5.268,3.821 1.724,0 2.935,-0.659 3.409,-1.986 L -2.403,0.65 c -0.173,0.677 -0.722,1.129 -1.601,1.129 -1.435,0 -2.398,-1.157 -2.601,-2.24 -0.208,-1.101 0.361,-2.221 1.796,-2.221 0.945,0 1.746,0.414 1.989,1.233 H -4.6 L -4.327,0 Z" /></g><g
           transform="translate(85.8996,44.546)"
           id="g346"><path
             id="path348"
             style="fill:#b3b3b3;fill-opacity:1;fill-rule:nonzero;stroke:none"
             d="M 0,0 H 0.245 C 0.823,0 1.44,0.084 1.553,0.687 1.675,1.337 1.004,1.374 0.414,1.374 H 0.259 Z m -0.545,-2.899 h 0.278 c 0.646,0 1.73,-0.028 1.877,0.753 0.161,0.856 -0.934,0.772 -1.646,0.772 h -0.222 z m -2.445,-1.412 1.333,7.097 h 3.115 c 1.491,0 2.4,-0.49 2.146,-1.845 C 3.483,0.301 3.141,-0.217 2.408,-0.508 L 2.404,-0.527 C 3.581,-0.659 3.963,-1.346 3.778,-2.334 3.498,-3.821 1.904,-4.311 0.369,-4.311 Z" /></g><g
           transform="translate(95.7567,40.9694)"
           id="g350"><path
             id="path352"
             style="fill:#b3b3b3;fill-opacity:1;fill-rule:nonzero;stroke:none"
             d="M 0,0 C 1.023,0 1.902,0.123 2.785,0.734 3.578,1.28 4.073,2.023 4.222,2.814 4.374,3.623 4.154,4.405 3.532,4.941 2.871,5.515 2.047,5.628 1.057,5.628 H 0.379 L -0.679,0 Z m -0.418,6.362 h 1.58 c 1.257,0 2.254,-0.141 3.11,-0.856 C 5.098,4.81 5.352,3.859 5.155,2.805 4.96,1.77 4.343,0.857 3.289,0.16 2.147,-0.593 1.119,-0.734 -0.194,-0.734 h -1.558 z" /></g><g
           transform="translate(102.7421,42.1933)"
           id="g354"><path
             id="path356"
             style="fill:#b3b3b3;fill-opacity:1;fill-rule:nonzero;stroke:none"
             d="m 0,0 c -0.139,-0.744 -0.159,-1.384 0.919,-1.384 1.079,0 1.3,0.64 1.44,1.384 l 0.463,2.465 h 0.89 L 3.233,-0.085 C 3.012,-1.261 2.335,-2.081 0.789,-2.081 c -1.546,0 -1.916,0.82 -1.695,1.996 l 0.48,2.55 h 0.89 z" /></g><g
           transform="translate(108.1424,42.4937)"
           id="g358"><path
             id="path360"
             style="fill:#b3b3b3;fill-opacity:1;fill-rule:nonzero;stroke:none"
             d="m 0,0 c -0.163,-0.865 0.284,-1.684 1.397,-1.684 1.146,0 1.893,0.781 2.06,1.675 0.167,0.885 -0.355,1.6 -1.456,1.6 C 0.966,1.591 0.156,0.828 0,0 M 3.88,-2.258 H 2.991 l 0.114,0.611 H 3.083 c -0.548,-0.489 -1.205,-0.734 -1.94,-0.734 -1.535,0 -2.296,1.101 -2.066,2.325 0.237,1.261 1.386,2.344 2.955,2.344 0.712,0 1.304,-0.283 1.649,-0.754 h 0.023 l 0.118,0.631 h 0.89 z" /></g><g
           transform="translate(114.5399,40.2353)"
           id="g362"><path
             id="path364"
             style="fill:#b3b3b3;fill-opacity:1;fill-rule:nonzero;stroke:none"
             d="M 0,0 H -0.889 L 0.57,7.765 h 0.89 z" /></g></g></g></g></svg>