<?xml version="1.0" encoding="UTF-8" standalone="no"?>
<svg
   xmlns:dc="http://purl.org/dc/elements/1.1/"
   xmlns:cc="http://creativecommons.org/ns#"
   xmlns:rdf="http://www.w3.org/1999/02/22-rdf-syntax-ns#"
   xmlns:svg="http://www.w3.org/2000/svg"
   xmlns="http://www.w3.org/2000/svg"
   viewBox="0 0 341.33334 341.33334"
   height="256"
   width="256"
   xml:space="preserve"
   id="svg2"
   version="1.1"><metadata
     id="metadata8"><rdf:RDF><cc:Work
         rdf:about=""><dc:format>image/svg+xml</dc:format><dc:type
           rdf:resource="http://purl.org/dc/dcmitype/StillImage" /></cc:Work></rdf:RDF></metadata><defs
     id="defs6"><clipPath
       id="clipPath18"
       clipPathUnits="userSpaceOnUse"><path
         id="path16"
         d="M 0,256 H 256 V 0 H 0 Z" /></clipPath><clipPath
       id="clipPath26"
       clipPathUnits="userSpaceOnUse"><path
         id="path24"
         d="M 4,252 H 252 V 4 H 4 Z" /></clipPath></defs><g
     transform="matrix(1.3333333,0,0,-1.3333333,0,341.33333)"
     id="g10"><g
       id="g12"><g
         clip-path="url(#clipPath18)"
         id="g14"><g
           id="g20"><g
             id="g22" /><g
             id="g34"><g
               style="opacity:0.5"
               id="g32"
               clip-path="url(#clipPath26)"><g
                 id="g30"
                 transform="translate(128,108)"><path
                   id="path28"
                   style="fill:#ffffff;fill-opacity:1;fill-rule:nonzero;stroke:none"
                   d="m 0,0 c -11.046,0 -20,8.954 -20,20 0,11.046 8.954,20 20,20 C 11.046,40 20,31.046 20,20 20,8.954 11.046,0 0,0 M 87.676,107.682 C 64.254,131.102 33.116,144 0,144 -33.124,144 -64.264,131.102 -87.683,107.681 -111.103,84.262 -124,53.122 -124,20 c 0,-33.122 12.897,-64.262 36.317,-87.681 C -64.264,-91.102 -33.124,-104 0,-104 c 33.116,0 64.254,12.898 87.676,36.318 C 111.1,-44.26 124,-13.12 124,20 c 0,33.12 -12.9,64.26 -36.324,87.682" /></g></g></g></g><g
           transform="translate(128,84.4951)"
           id="g36"><path
             id="path38"
             style="fill:#bfbfbf;fill-opacity:1;fill-rule:nonzero;stroke:none"
             d="M 0,0 C -23.993,0 -43.505,19.517 -43.505,43.505 -43.505,67.493 -23.993,87.01 0,87.01 23.988,87.01 43.5,67.493 43.5,43.505 43.5,19.517 23.988,0 0,0 m 0,159.505 c -64.071,0 -116,-51.934 -116,-116 0,-64.066 51.929,-116 116,-116 64.051,0 116,51.934 116,116 0,64.066 -51.949,116 -116,116" /></g><g
           transform="translate(194.697,156.7558)"
           id="g40"><path
             id="path42"
             style="fill:#191919;fill-opacity:1;fill-rule:nonzero;stroke:none"
             d="m 0,0 h 0.801 c 0.461,0 0.61,0.167 0.61,0.472 0,0.389 -0.264,0.462 -0.749,0.462 L 0,0.934 Z m -1.007,1.712 h 2.115 c 0.835,0 1.31,-0.35 1.31,-1.051 0,-0.511 -0.36,-0.867 -0.878,-0.972 v -0.011 c 0.293,-0.023 0.566,-0.1 0.681,-0.35 0.168,-0.367 0.187,-1.212 0.331,-1.629 h -1.07 c -0.11,0.389 -0.095,0.967 -0.191,1.245 -0.063,0.184 -0.216,0.278 -0.619,0.278 H 0 v -1.523 h -1.007 z" /></g><g
           transform="translate(197.9568,158.4675)"
           id="g44"><path
             id="path46"
             style="fill:#191919;fill-opacity:1;fill-rule:nonzero;stroke:none"
             d="M 0,0 H 2.974 V -0.822 H 1.007 V -1.567 H 2.869 V -2.39 H 1.007 v -0.8 H 3.018 V -4.013 H 0 Z" /></g><g
           transform="translate(202.8427,157.645)"
           id="g48"><path
             id="path50"
             style="fill:#191919;fill-opacity:1;fill-rule:nonzero;stroke:none"
             d="M 0,0 H -1.334 V 0.822 H 2.341 V 0 H 1.007 V -3.19 H 0 Z" /></g><g
           transform="translate(206.7927,156.7558)"
           id="g52"><path
             id="path54"
             style="fill:#191919;fill-opacity:1;fill-rule:nonzero;stroke:none"
             d="m 0,0 h 0.801 c 0.461,0 0.61,0.167 0.61,0.472 0,0.389 -0.265,0.462 -0.749,0.462 L 0,0.934 Z m -1.007,1.712 h 2.115 c 0.835,0 1.31,-0.35 1.31,-1.051 0,-0.511 -0.36,-0.867 -0.878,-0.972 v -0.011 c 0.293,-0.023 0.566,-0.1 0.681,-0.35 0.168,-0.367 0.187,-1.212 0.331,-1.629 h -1.07 c -0.11,0.389 -0.096,0.967 -0.191,1.245 -0.063,0.184 -0.216,0.278 -0.619,0.278 H 0 v -1.523 h -1.007 z" /></g><g
           transform="translate(211.8853,155.1719)"
           id="g56"><path
             id="path58"
             style="fill:#191919;fill-opacity:1;fill-rule:nonzero;stroke:none"
             d="m 0,0 c 0.768,0 1.021,0.584 1.021,1.289 0,0.706 -0.253,1.29 -1.021,1.29 -0.768,0 -1.022,-0.584 -1.022,-1.29 C -1.022,0.584 -0.768,0 0,0 m 0,3.401 c 1.449,0 2.058,-0.9 2.058,-2.112 0,-1.211 -0.609,-2.112 -2.058,-2.112 -1.449,0 -2.058,0.901 -2.058,2.112 0,1.212 0.609,2.112 2.058,2.112" /></g><g
           transform="translate(203.0385,143.3049)"
           id="g60"><path
             id="path62"
             style="fill:#191919;fill-opacity:1;fill-rule:nonzero;stroke:none"
             d="M 0,0 C 1.131,0.359 1.851,1.071 1.557,2.355 1.268,3.613 0.447,3.633 -0.705,3.267 L -1.24,3.097 -0.494,-0.157 Z M -7.892,5.162 0.891,7.953 C 4.079,8.966 6.207,8.444 6.947,5.214 7.399,3.243 7.022,1.518 4.943,0.194 l 0.01,-0.047 c 1.473,0.315 2.423,-0.173 3.011,-1.389 0.666,-1.367 1.18,-3.804 2.453,-6.177 l -5.759,-1.83 c -0.644,1.172 -1.325,3.275 -1.868,4.682 -0.319,0.816 -0.766,1.03 -1.712,0.73 l -0.679,-0.216 1.4,-6.104 -5.76,-1.83 z" /></g><g
           transform="translate(200.9242,128.4474)"
           id="g64"><path
             id="path66"
             style="fill:#191919;fill-opacity:1;fill-rule:nonzero;stroke:none"
             d="M 0,0 -0.427,-1.512 H 0.4 L 0.013,0 Z" /></g><path
           id="path68"
           style="fill:#191919;fill-opacity:1;fill-rule:nonzero;stroke:none"
           d="m 215.2,153.536 h -22.4 v 5.64 h 22.4 z m 0,-22.965 h -22.4 v 22.038 h 22.4 z m -0.231,-5.258 h -3.783 v 4.012 h 3.721 v -1.045 h -1.864 v -0.427 h 1.722 v -1.045 h -1.722 v -0.45 h 1.926 z m -4.478,0 h -1.64 v 2.867 h -0.014 l -0.691,-2.867 h -1.776 l -0.691,2.867 h -0.014 v -2.867 h -1.64 v 4.012 h 2.69 l 0.536,-2.389 h 0.014 l 0.535,2.389 h 2.691 z m -8.692,0 -0.19,0.645 h -1.403 l -0.197,-0.645 h -1.857 l 1.566,4.012 h 2.514 l 1.573,-4.012 z m -3.806,0.161 c -0.759,-0.161 -1.64,-0.267 -2.44,-0.267 -1.762,0 -2.623,0.884 -2.623,2.112 0,1.228 0.861,2.112 2.677,2.112 1.505,0 2.291,-0.406 2.312,-1.345 h -1.817 c -0.007,0.128 -0.068,0.211 -0.149,0.261 -0.081,0.05 -0.197,0.072 -0.319,0.072 -0.291,0 -0.481,-0.122 -0.576,-0.283 -0.095,-0.161 -0.122,-0.556 -0.122,-0.895 0,-0.389 0.041,-0.656 0.129,-0.783 0.115,-0.167 0.305,-0.239 0.556,-0.239 0.183,0 0.359,0.022 0.515,0.083 v 0.484 h -0.664 v 0.788 h 2.521 z M 192,160 v -6.464 -0.919 -22.185 -0.787 V 124 h 24 v 5.645 0.787 22.185 0.919 6.464 z" /><g
           transform="translate(213.4912,96.8723)"
           id="g70"><path
             id="path72"
             style="fill:#191919;fill-opacity:1;fill-rule:nonzero;stroke:none"
             d="m 0,0 -6.572,0.007 c -0.951,0 -1.722,0.752 -1.722,1.678 v 9.748 c 0,0.926 0.771,1.677 1.722,1.677 l 4.113,0.005 c 0.494,0 0.895,0.39 0.895,0.872 l 0.012,3.897 c 0,0.202 0.167,0.365 0.375,0.365 h 2.411 c 0.207,0 0.375,-0.163 0.375,-0.365 L 1.634,0.364 c 0,-0.202 -0.168,-0.365 -0.375,-0.365 L 0,0 -0.031,-0.87 h 1.645 c 0.494,0 0.895,0.39 0.895,0.872 v 18.254 c 0,0.481 -0.401,0.872 -0.895,0.872 h -3.163 c -0.494,0 -0.895,-0.391 -0.895,-0.872 l 0.005,-3.907 c 0,-0.202 -0.168,-0.365 -0.376,-0.365 l -3.757,0.006 c -1.45,0 -2.625,-1.145 -2.625,-2.557 V 1.685 c 0,-1.412 1.175,-2.557 2.625,-2.557 l 6.541,0.002 z" /></g><g
           transform="translate(211.0471,100.4604)"
           id="g74"><path
             id="path76"
             style="fill:#191919;fill-opacity:1;fill-rule:nonzero;stroke:none"
             d="m 0,0 v 6.306 c 0,0.529 -0.44,0.957 -0.982,0.957 -0.543,0 -0.982,-0.428 -0.982,-0.957 v -6.807 c 0,-0.528 0.439,-0.957 0.982,-0.957 C -0.44,-1.458 0,-1.03 0,-0.501 V 0 l 0.893,-0.03 v -0.471 c 0,-1.009 -0.84,-1.827 -1.875,-1.827 -1.036,0 -1.875,0.818 -1.875,1.827 v 6.807 c 0,1.009 0.839,1.827 1.875,1.827 1.035,0 1.875,-0.818 1.875,-1.827 V -0.03 Z" /></g><g
           transform="translate(200.5309,105.122)"
           id="g78"><path
             id="path80"
             style="fill:#191919;fill-opacity:1;fill-rule:nonzero;stroke:none"
             d="M 0,0 H 1.138 C 1.345,0 1.513,0.164 1.513,0.365 L 1.508,3.183 c 0,0.927 -0.771,1.678 -1.722,1.678 h -5.692 c -0.951,0 -1.722,-0.751 -1.722,-1.678 v -9.747 c 0,-0.927 0.771,-1.678 1.722,-1.678 h 5.692 c 0.951,0 1.722,0.751 1.722,1.678 l 0.005,2.679 c 0,0.202 -0.168,0.365 -0.375,0.365 H -1.01 c -0.207,0 -0.375,-0.163 -0.375,-0.365 l 0.013,-1.278 c 0,-1.009 -0.653,-1.827 -1.688,-1.827 -1.035,0 -1.687,0.818 -1.687,1.827 v 6.808 c 0,1.008 0.652,1.826 1.687,1.826 1.036,0 1.688,-0.818 1.688,-1.826 L -1.384,0.365 C -1.384,0.164 -1.217,0 -1.01,0 H 0 l -0.031,-0.878 h -1.351 c -0.494,0 -0.894,0.39 -0.894,0.871 l 0.011,1.652 c 0,0.528 -0.252,0.956 -0.795,0.956 -0.542,10e-4 -0.795,-0.428 -0.795,-0.956 v -6.808 c 0,-0.528 0.253,-0.957 0.795,-0.957 0.543,0 0.795,0.429 0.795,0.957 l -0.011,1.65 c 0,0.481 0.4,0.872 0.894,0.872 h 2.9 c 0.494,0 0.895,-0.391 0.895,-0.872 L 2.411,-6.564 c 0,-1.413 -1.175,-2.558 -2.625,-2.558 h -5.692 c -1.45,0 -2.625,1.145 -2.625,2.558 v 9.747 c 0,1.413 1.175,2.558 2.625,2.558 h 5.692 c 1.45,0 2.625,-1.145 2.625,-2.558 l 0.002,-3.19 c 0,-0.481 -0.401,-0.871 -0.895,-0.871 h -1.549 z" /></g><g
           transform="translate(128.0022,114.2243)"
           id="g82"><path
             id="path84"
             style="fill:#e6e6e6;fill-opacity:1;fill-rule:nonzero;stroke:none"
             d="m 0,0 c -7.596,0 -13.786,6.176 -13.786,13.776 0,7.604 6.19,13.785 13.786,13.785 7.6,0 13.777,-6.181 13.777,-13.785 C 13.777,6.176 7.6,0 0,0 m 0.001,59.776 c -25.364,0 -46.003,-20.651 -46.003,-46 0,-25.349 20.639,-46 46.003,-46 25.338,0 45.997,20.651 45.997,46 0,25.349 -20.659,46 -45.997,46" /></g><g
           transform="translate(142.016,51.7361)"
           id="g86"><path
             id="path88"
             style="fill:#191919;fill-opacity:1;fill-rule:nonzero;stroke:none"
             d="m 0,0 c 0.482,-3.483 11.759,-4.694 25.8,-2.937 0.163,0.021 0.288,0.167 0.288,0.339 v 0.906 c 0,0.197 -0.161,0.351 -0.349,0.337 -8.601,-0.672 -15.427,0.857 -15.758,3.712 -0.348,3.007 6.635,6.396 15.829,7.789 0.159,0.024 0.278,0.166 0.278,0.334 v 0.003 c 0,0.209 -0.18,0.369 -0.376,0.337 C 10.901,8.39 -0.503,3.63 0,0" /></g><g
           transform="translate(197.984,60.2655)"
           id="g90"><path
             id="path92"
             style="fill:#191919;fill-opacity:1;fill-rule:nonzero;stroke:none"
             d="m 0,0 c -0.487,3.516 -11.974,4.714 -26.199,2.884 -0.193,-0.025 -0.34,-0.197 -0.34,-0.402 V 2.479 c 0,-0.234 0.192,-0.417 0.415,-0.4 8.608,0.675 15.443,-0.854 15.774,-3.711 0.323,-2.791 -5.673,-5.911 -13.89,-7.458 l -2.299,6.55 v -6.934 -1.478 C -11.328,-8.567 0.512,-3.697 0,0" /></g><g
           transform="translate(88.8841,53.7535)"
           id="g94"><path
             id="path96"
             style="fill:#191919;fill-opacity:1;fill-rule:nonzero;stroke:none"
             d="m 0,0 v -1.823 c 0,-0.31 0.243,-0.562 0.544,-0.562 h 10.353 c 0.3,0 0.543,-0.252 0.543,-0.562 v -2.244 c 0,-0.311 -0.243,-0.563 -0.543,-0.563 H -4.359 c -0.301,0 -0.544,0.252 -0.544,0.563 v 9.964 c 0,0.28 0.068,0.561 0.204,0.842 l 2.248,4.21 c 0.136,0.281 0.408,0.421 0.817,0.421 h 12.531 c 0.3,0 0.543,-0.251 0.543,-0.562 V 7.44 c 0,-0.31 -0.243,-0.562 -0.543,-0.562 H 1.634 C 1.362,6.878 1.158,6.738 1.021,6.457 L 0.315,4.71 C 0.165,4.339 0.428,3.931 0.817,3.931 h 9.742 c 0.405,0 0.668,-0.441 0.486,-0.815 L 9.956,0.872 C 9.864,0.682 9.676,0.562 9.47,0.562 H 0.544 C 0.243,0.562 0,0.311 0,0" /></g><g
           transform="translate(106.8618,51.3684)"
           id="g98"><path
             id="path100"
             style="fill:#191919;fill-opacity:1;fill-rule:nonzero;stroke:none"
             d="m 0,0 h 7.628 c 0.3,0 0.544,0.252 0.544,0.562 v 1.823 c 0,0.311 -0.244,0.562 -0.544,0.562 H 5.784 c -0.404,0 -0.667,0.441 -0.486,0.815 l 1.089,2.244 c 0.092,0.19 0.28,0.31 0.486,0.31 h 5.658 c 0.3,0 0.544,-0.252 0.544,-0.562 v -8.28 c 0,-0.562 -0.273,-0.842 -0.818,-0.842 H -4.086 c -0.545,0 -0.817,0.28 -0.817,0.842 v 9.684 c 0,0.281 0.068,0.561 0.204,0.842 l 2.247,4.211 c 0.137,0.28 0.409,0.421 0.818,0.421 h 13.348 c 0.3,0 0.543,-0.252 0.543,-0.563 V 9.825 c 0,-0.31 -0.243,-0.562 -0.543,-0.562 H 1.634 C 1.362,9.263 1.158,9.123 1.021,8.842 L 0.042,6.42 C 0.014,6.351 0,6.277 0,6.203 Z" /></g><g
           transform="translate(131.765,54.7368)"
           id="g102"><path
             id="path104"
             style="fill:#191919;fill-opacity:1;fill-rule:nonzero;stroke:none"
             d="m 0,0 h -5.291 v 5.332 c 0,0.311 0.243,0.563 0.544,0.563 h 0.273 c 0.272,0 0.545,-0.141 0.817,-0.421 z M 0.429,8 C 0.02,8.842 -0.388,9.263 -0.797,9.263 H -9.65 c -0.301,0 -0.544,-0.252 -0.544,-0.562 V -6.175 c 0,-0.31 0.243,-0.562 0.544,-0.562 h 3.815 c 0.3,0 0.544,0.252 0.544,0.562 v 5.859 l 1.479,-2.762 c 0.096,-0.179 0.278,-0.29 0.476,-0.29 H 2.268 L 4.353,-6.494 C 4.454,-6.646 4.622,-6.737 4.8,-6.737 h 5.435 v 0 z" /></g><g
           transform="translate(58,48)"
           id="g106"><path
             id="path108"
             style="fill:#191919;fill-opacity:1;fill-rule:nonzero;stroke:none"
             d="M 0,0 8.262,14.737 C 8.656,15.579 9.049,16 9.443,16 h 5.586 c 0.174,0 0.315,-0.152 0.315,-0.339 v -1.619 l 0.394,0.695 C 16.131,15.579 16.525,16 16.918,16 h 6.766 C 23.859,16 24,15.848 24,15.661 V 0.339 C 24,0.152 23.859,0 23.684,0 h -4.09 C 19.42,0 19.279,0.152 19.279,0.339 v 11.072 c 0,0.344 -0.421,0.469 -0.586,0.175 L 12.289,0.164 C 12.232,0.062 12.129,0 12.018,0 H 8.034 C 7.788,0 7.637,0.288 7.763,0.514 l 6.506,11.604 c 0.127,0.226 -0.025,0.514 -0.27,0.514 h -1.802 c -0.263,0 -0.525,-0.141 -0.787,-0.421 L 4.813,0.167 C 4.756,0.064 4.653,0 4.541,0 Z" /></g><g
           transform="translate(124.0891,28)"
           id="g110"><path
             id="path112"
             style="fill:#191919;fill-opacity:1;fill-rule:nonzero;stroke:none"
             d="M 0,0 H -1.251 L -2.816,2.759 V 0 H -4.067 V 3.862 H -2.19 Z M 0,5.379 C 0,5.036 -0.137,4.743 -0.412,4.501 -0.687,4.259 -0.966,4.138 -1.251,4.138 H -4.38 V 0 h -1.251 v 5.241 h 4.067 c 0.208,0 0.313,0.046 0.313,0.138 0,0.092 -0.105,0.138 -0.313,0.138 h -4.067 v 1.104 h 4.38 c 0.285,0 0.564,-0.123 0.839,-0.368 C -0.137,6.008 0,5.716 0,5.379 m 1.564,0 C 1.564,4.656 1.354,4.109 0.933,3.738 0.513,3.367 0.156,3.117 -0.136,2.989 L 1.564,0 H 0.313 l -2.19,3.862 h 0.626 c 0.368,0 0.721,0.149 1.058,0.446 0.337,0.297 0.506,0.654 0.506,1.071 0,0.411 -0.169,0.767 -0.506,1.067 -0.337,0.3 -0.69,0.451 -1.058,0.451 h -4.38 V 8 h 4.38 C -0.535,8 0.113,7.743 0.693,7.228 1.274,6.713 1.564,6.097 1.564,5.379" /></g><g
           transform="translate(126.2791,33.5172)"
           id="g114"><path
             id="path116"
             style="fill:#191919;fill-opacity:1;fill-rule:nonzero;stroke:none"
             d="M 0,0 C 0,1.655 0.939,2.483 2.816,2.483 H 6.57 V 1.379 H 2.816 C 1.773,1.379 1.251,0.92 1.251,0 v -3.034 c 0,-0.92 0.522,-1.38 1.565,-1.38 H 6.57 V -5.517 H 2.816 C 0.939,-5.517 0,-4.69 0,-3.034 Z" /></g><g
           transform="translate(127.8434,32.1379)"
           id="g118"><path
             id="path120"
             style="fill:#191919;fill-opacity:1;fill-rule:nonzero;stroke:none"
             d="M 0,0 V 1.379 C 0,2.115 0.417,2.483 1.251,2.483 H 5.006 V 1.379 H 1.564 C 1.356,1.379 1.251,1.287 1.251,1.103 H 4.067 V 0 Z" /></g><g
           transform="translate(127.8434,31.8621)"
           id="g122"><path
             id="path124"
             style="fill:#191919;fill-opacity:1;fill-rule:nonzero;stroke:none"
             d="M 0,0 H 4.067 V -1.103 H 1.251 c 0,-0.184 0.105,-0.276 0.313,-0.276 H 5.006 V -2.483 H 1.251 C 0.417,-2.483 0,-2.115 0,-1.379 Z" /></g><g
           transform="translate(137.2289,34.6207)"
           id="g126"><path
             id="path128"
             style="fill:#191919;fill-opacity:1;fill-rule:nonzero;stroke:none"
             d="m 0,0 h 3.441 v -1.103 h -2.19 v -5.518 l -1.251,0 z m -0.313,0 v -6.621 h -1.251 v 5.518 h -2.19 V 0 Z m 3.754,0.276 h -7.196 v 1.103 h 7.196 z" /></g><g
           transform="translate(146.9273,28)"
           id="g130"><path
             id="path132"
             style="fill:#191919;fill-opacity:1;fill-rule:nonzero;stroke:none"
             d="M 0,0 H -1.251 L -2.816,2.759 V 0 H -4.067 V 3.862 H -2.19 Z M 0,5.379 C 0,5.036 -0.137,4.743 -0.412,4.501 -0.687,4.259 -0.966,4.138 -1.251,4.138 H -4.38 V 0 h -1.251 v 5.241 h 4.067 c 0.208,0 0.313,0.046 0.313,0.138 0,0.092 -0.105,0.138 -0.313,0.138 h -4.067 v 1.104 h 4.38 c 0.285,0 0.564,-0.123 0.839,-0.368 C -0.137,6.008 0,5.716 0,5.379 m 1.564,0 C 1.564,4.656 1.354,4.109 0.933,3.738 0.513,3.367 0.156,3.117 -0.136,2.989 L 1.564,0 H 0.313 l -2.19,3.862 h 0.626 c 0.368,0 0.721,0.149 1.058,0.446 0.337,0.297 0.506,0.654 0.506,1.071 0,0.411 -0.169,0.767 -0.506,1.067 -0.337,0.3 -0.69,0.451 -1.058,0.451 h -4.38 V 8 h 4.38 C -0.535,8 0.113,7.743 0.693,7.228 1.274,6.713 1.564,6.097 1.564,5.379" /></g><g
           transform="translate(153.1843,33.2414)"
           id="g134"><path
             id="path136"
             style="fill:#191919;fill-opacity:1;fill-rule:nonzero;stroke:none"
             d="M 0,0 C 0,0.184 -0.104,0.276 -0.313,0.276 H -0.939 C -1.147,0.276 -1.251,0.184 -1.251,0 v -2.483 c 0,-0.184 0.104,-0.276 0.312,-0.276 h 0.626 C -0.104,-2.759 0,-2.667 0,-2.483 Z M 1.251,0.276 V -2.759 C 1.251,-3.494 0.834,-3.862 0,-3.862 h -1.251 c -0.835,0 -1.252,0.368 -1.252,1.103 v 3.035 c 0,0.735 0.417,1.103 1.252,1.103 H 0 c 0.834,0 1.251,-0.368 1.251,-1.103 m 0.313,0 C 1.564,1.195 1.043,1.655 0,1.655 h -1.251 c -1.043,0 -1.565,-0.46 -1.565,-1.379 v -3.035 c 0,-0.919 0.522,-1.379 1.565,-1.379 H 0 c 1.043,0 1.564,0.46 1.564,1.379 z m 1.252,0 V -2.759 C 2.816,-4.414 1.877,-5.241 0,-5.241 h -1.251 c -1.878,0 -2.816,0.827 -2.816,2.482 v 3.035 c 0,1.655 0.938,2.483 2.816,2.483 H 0 c 1.877,0 2.816,-0.828 2.816,-2.483" /></g><g
           transform="translate(101.3657,29.855)"
           id="g138"><path
             id="path140"
             style="fill:#191919;fill-opacity:1;fill-rule:nonzero;stroke:none"
             d="M 0,0 C -0.01,0.024 -0.016,0.051 -0.025,0.076 H 0 Z M 1.763,0.628 C 1.554,0.628 1.45,0.72 1.45,0.904 V 6.145 H -1.366 V 0.628 c 0,-1.655 0.939,-2.483 2.816,-2.483 h 3.754 v 2.483 z" /></g><path
           id="path142"
           style="fill:#191919;fill-opacity:1;fill-rule:nonzero;stroke:none"
           d="m 107.195,28 h 2.816 v 8 h -2.816 z" /><g
           transform="translate(114.7036,33.2414)"
           id="g144"><path
             id="path146"
             style="fill:#191919;fill-opacity:1;fill-rule:nonzero;stroke:none"
             d="M 0,0 H -1.251 V 0.276 H 0 C 0.209,0.276 0.313,0.23 0.313,0.138 0.313,0.046 0.209,0 0,0 m 0,-2.759 h -1.251 v 0.276 H 0 c 0.209,0 0.313,-0.046 0.313,-0.138 C 0.313,-2.713 0.209,-2.759 0,-2.759 M 3.129,0.138 C 3.129,0.855 2.838,1.471 2.258,1.986 1.677,2.501 1.029,2.759 0.313,2.759 h -4.38 v -8 h 4.38 c 0.716,0 1.364,0.257 1.945,0.772 0.58,0.515 0.871,1.131 0.871,1.848 0,0.521 -0.143,0.978 -0.428,1.37 0.285,0.393 0.428,0.856 0.428,1.389" /></g><g
           transform="translate(43.9036,80.6761)"
           id="g148"><path
             id="path150"
             style="fill:#bfbfbf;fill-opacity:1;fill-rule:nonzero;stroke:none"
             d="m 0,0 v 0.538 h 1.936 c 0.143,0 0.214,0.059 0.214,0.179 V 1.076 H 3.226 V 0.538 C 3.226,0.179 3.082,0 2.795,0 Z m -1.29,1.076 h 1.075 V -0.359 H -1.29 Z m 0,0.179 c 0,0.359 0.143,0.538 0.43,0.538 h 3.655 c 0.287,0 0.431,-0.179 0.431,-0.538 z" /></g><path
           id="path152"
           style="fill:#000000;fill-opacity:1;fill-rule:nonzero;stroke:none"
           d="m 44.085,81.614 h 1.573 v -0.082 h -1.573 z m 2.614,1.173 h -3.655 c -0.194,0 -0.826,-0.062 -0.826,-0.856 0,-0.031 0.005,-0.061 0.016,-0.089 -0.011,-0.029 -0.016,-0.059 -0.016,-0.09 V 80.317 C 42.218,80.142 42.395,80 42.614,80 h 1.075 c 0.219,0 0.396,0.142 0.396,0.317 v 0.042 h 2.614 c 0.194,0 0.826,0.061 0.826,0.855 v 0.538 c 0,0.031 -0.005,0.061 -0.016,0.09 0.011,0.028 0.016,0.058 0.016,0.089 0,0.794 -0.632,0.856 -0.826,0.856 m -3.01,-2.47 h -1.075 v 1.435 h 1.075 z m 3.44,1.435 v -0.538 c 0,-0.359 -0.143,-0.538 -0.43,-0.538 h -2.795 v 0.538 h 1.935 c 0.144,0 0.215,0.06 0.215,0.179 v 0.359 h 1.075 m -0.43,0.718 c 0.287,0 0.43,-0.18 0.43,-0.539 h -4.515 c 0,0.359 0.143,0.539 0.43,0.539 h 3.655" /><g
           transform="translate(47.9896,80.3173)"
           id="g154"><path
             id="path156"
             style="fill:#bfbfbf;fill-opacity:1;fill-rule:nonzero;stroke:none"
             d="M 0,0 C -0.287,0 -0.43,0.179 -0.43,0.538 V 1.435 H 0.645 V 0.718 c 0,-0.12 0.071,-0.18 0.215,-0.18 H 3.44 V 0 Z M 0.645,1.614 H -0.43 v 0.539 h 1.075 z" /></g><g
           transform="translate(48.6346,82.7869)"
           id="g158"><path
             id="path160"
             style="fill:#000000;fill-opacity:1;fill-rule:nonzero;stroke:none"
             d="m 0,0 h -1.075 c -0.219,0 -0.396,-0.142 -0.396,-0.317 v -0.539 c 0,-0.031 0.005,-0.061 0.016,-0.089 -0.011,-0.029 -0.016,-0.059 -0.016,-0.09 v -0.897 c 0,-0.793 0.632,-0.855 0.826,-0.855 h 3.44 c 0.219,0 0.396,0.142 0.396,0.317 v 0.538 c 0,0.176 -0.177,0.318 -0.396,0.318 H 0.396 v 0.579 c 0,0.031 -0.006,0.061 -0.016,0.09 0.01,0.028 0.016,0.058 0.016,0.089 v 0.539 C 0.396,-0.142 0.219,0 0,0 m 0,-1.035 v -0.717 c 0,-0.12 0.071,-0.18 0.215,-0.18 h 2.58 V -2.47 h -3.44 c -0.287,0 -0.43,0.18 -0.43,0.538 v 0.897 H 0 m 0,0.179 h -1.075 v 0.539 H 0 Z" /></g><path
           id="path162"
           style="fill:#bfbfbf;fill-opacity:1;fill-rule:nonzero;stroke:none"
           d="m 55.301,82.47 h 1.075 V 81.931 H 55.301 Z M 52.29,80.317 c -0.286,0 -0.43,0.179 -0.43,0.538 v 0.897 h 1.075 v -0.717 c 0,-0.12 0.072,-0.18 0.215,-0.18 h 1.936 c 0.143,0 0.215,0.06 0.215,0.18 v 0.717 h 1.075 v -0.897 c 0,-0.359 -0.144,-0.538 -0.43,-0.538 z m 0.645,1.614 H 51.86 v 0.539 h 1.075 z" /><g
           transform="translate(56.3757,82.7869)"
           id="g164"><path
             id="path166"
             style="fill:#000000;fill-opacity:1;fill-rule:nonzero;stroke:none"
             d="m 0,0 h -1.075 c -0.219,0 -0.396,-0.142 -0.396,-0.317 v -0.539 c 0,-0.031 0.005,-0.061 0.016,-0.089 -0.011,-0.029 -0.016,-0.059 -0.016,-0.09 v -0.579 h -1.573 v 0.579 c 0,0.031 -0.006,0.061 -0.016,0.09 0.01,0.028 0.016,0.058 0.016,0.089 v 0.539 C -3.044,-0.142 -3.222,0 -3.44,0 h -1.076 c -0.218,0 -0.396,-0.142 -0.396,-0.317 v -0.539 c 0,-0.031 0.006,-0.061 0.016,-0.089 -0.01,-0.029 -0.016,-0.059 -0.016,-0.09 v -0.897 c 0,-0.793 0.633,-0.855 0.827,-0.855 h 3.655 c 0.194,0 0.826,0.062 0.826,0.855 v 0.897 c 0,0.031 -0.006,0.061 -0.016,0.09 0.01,0.028 0.016,0.058 0.016,0.089 v 0.539 C 0.396,-0.142 0.219,0 0,0 M 0,-1.035 V -1.932 C 0,-2.29 -0.143,-2.47 -0.43,-2.47 h -3.655 c -0.287,0 -0.431,0.18 -0.431,0.538 v 0.897 h 1.076 v -0.717 c 0,-0.12 0.071,-0.18 0.214,-0.18 h 1.936 c 0.143,0 0.215,0.06 0.215,0.18 v 0.717 H 0 m -3.44,0.179 h -1.075 v 0.539 h 1.075 z m 3.44,0 h -1.075 v 0.539 H 0 Z" /></g><g
           transform="translate(56.8052,81.5729)"
           id="g168"><path
             id="path170"
             style="fill:#bfbfbf;fill-opacity:1;fill-rule:nonzero;stroke:none"
             d="M 0,0 V 0.179 H 1.075 C 1.075,0.059 1.147,0 1.29,0 h 2.581 c 0.43,0 0.645,-0.18 0.645,-0.538 v -0.18 c 0,-0.358 -0.144,-0.538 -0.431,-0.538 H 0 v 0.538 h 3.226 c 0.143,0 0.214,0.03 0.214,0.09 0,0.06 -0.071,0.09 -0.214,0.09 H 0.43 C 0.143,-0.538 0,-0.359 0,0 M 0,0.358 C 0,0.717 0.143,0.897 0.43,0.897 H 4.301 V 0.358 Z" /></g><g
           transform="translate(61.106,82.7869)"
           id="g172"><path
             id="path174"
             style="fill:#000000;fill-opacity:1;fill-rule:nonzero;stroke:none"
             d="m 0,0 h -3.871 c -0.193,0 -0.826,-0.062 -0.826,-0.856 0,-0.031 0.006,-0.061 0.016,-0.089 -0.01,-0.029 -0.016,-0.059 -0.016,-0.09 v -0.179 c 0,-0.213 0.046,-0.373 0.116,-0.493 -0.072,-0.058 -0.116,-0.137 -0.116,-0.225 V -2.47 c 0,-0.175 0.177,-0.317 0.396,-0.317 h 4.086 c 0.193,0 0.826,0.062 0.826,0.855 v 0.18 c 0,0.295 -0.118,0.524 -0.332,0.671 0.072,0.057 0.117,0.137 0.117,0.225 v 0.539 C 0.396,-0.142 0.219,0 0,0 m -3.226,-1.035 c 0,-0.12 0.072,-0.179 0.215,-0.179 h 2.581 c 0.43,0 0.645,-0.18 0.645,-0.538 v -0.18 c 0,-0.358 -0.144,-0.538 -0.43,-0.538 h -4.086 v 0.538 h 3.226 c 0.143,0 0.215,0.03 0.215,0.09 0,0.06 -0.072,0.09 -0.215,0.09 h -2.796 c -0.286,0 -0.43,0.179 -0.43,0.538 v 0.179 h 1.075 M 0,-0.317 v -0.539 h -4.301 c 0,0.359 0.144,0.539 0.43,0.539 H 0" /></g><g
           transform="translate(63.3241,80.8552)"
           id="g176"><path
             id="path178"
             style="fill:#bfbfbf;fill-opacity:1;fill-rule:nonzero;stroke:none"
             d="M 0,0 V 0.897 H 1.075 V 0 H 3.226 C 3.369,0 3.44,0.03 3.44,0.09 3.44,0.149 3.369,0.18 3.226,0.18 H 1.935 v 0.538 h 1.936 c 0.43,0 0.645,-0.18 0.645,-0.538 V 0 c 0,-0.359 -0.144,-0.538 -0.431,-0.538 H 0.43 C 0.143,-0.538 0,-0.359 0,0 M 0,1.076 C 0,1.435 0.143,1.614 0.43,1.614 H 4.301 V 1.076 Z" /></g><g
           transform="translate(64.7953,81.6138)"
           id="g180"><path
             id="path182"
             style="fill:#000000;fill-opacity:1;fill-rule:nonzero;stroke:none"
             d="M 0,0 H 0.071 C 0.069,-0.013 0.068,-0.027 0.068,-0.041 v -0.4 H 0 Z m 2.83,1.173 h -3.871 c -0.194,0 -0.826,-0.062 -0.826,-0.856 0,-0.031 0.005,-0.061 0.016,-0.089 -0.011,-0.029 -0.016,-0.059 -0.016,-0.09 v -0.897 c 0,-0.793 0.632,-0.855 0.826,-0.855 h 3.655 c 0.194,0 0.826,0.062 0.826,0.855 v 0.18 c 0,0.295 -0.117,0.524 -0.332,0.671 0.073,0.057 0.118,0.137 0.118,0.225 v 0.539 c 0,0.175 -0.178,0.317 -0.396,0.317 M -0.396,0.138 v -0.897 h 2.15 c 0.144,0 0.215,0.03 0.215,0.09 0,0.06 -0.071,0.09 -0.215,0.09 h -1.29 v 0.538 h 1.935 c 0.431,0 0.645,-0.18 0.645,-0.538 v -0.18 c 0,-0.358 -0.143,-0.537 -0.43,-0.537 h -3.655 c -0.287,0 -0.43,0.179 -0.43,0.537 v 0.897 h 1.075 M 2.83,0.856 V 0.317 h -4.301 c 0,0.359 0.143,0.539 0.43,0.539 H 2.83" /></g><g
           transform="translate(72.1099,82.4696)"
           id="g184"><path
             id="path186"
             style="fill:#bfbfbf;fill-opacity:1;fill-rule:nonzero;stroke:none"
             d="M 0,0 H 1.29 L 0.331,-0.539 h -1.287 z m -0.013,-2.152 -1.262,0.709 -1.263,-0.709 h -1.289 l 1.907,1.073 -0.642,0.361 H 0.012 L -0.63,-1.079 1.277,-2.152 Z M -2.882,-0.539 -3.84,0 h 1.29 l 0.955,-0.539 z" /></g><g
           transform="translate(72.1218,81.4347)"
           id="g188"><path
             id="path190"
             style="fill:#000000;fill-opacity:1;fill-rule:nonzero;stroke:none"
             d="m 0,0 h 0.004 z m 1.278,0.718 h 0.004 z m 0,0.634 h -1.29 c -0.081,0 -0.161,-0.02 -0.228,-0.058 L -1.195,0.756 C -1.231,0.736 -1.262,0.711 -1.287,0.684 -1.312,0.711 -1.343,0.736 -1.379,0.756 L -2.334,1.294 C -2.401,1.332 -2.48,1.352 -2.562,1.352 h -1.29 c -0.173,0 -0.326,-0.09 -0.378,-0.222 -0.052,-0.132 0.009,-0.275 0.151,-0.355 l 0.958,-0.538 c 0.056,-0.032 0.122,-0.051 0.19,-0.056 0.028,-0.049 0.072,-0.091 0.129,-0.123 l 0.181,-0.102 -1.446,-0.814 c -0.141,-0.079 -0.202,-0.223 -0.15,-0.355 0.052,-0.132 0.205,-0.222 0.378,-0.222 h 1.29 c 0.081,0 0.16,0.02 0.227,0.058 l 1.035,0.582 1.035,-0.582 c 0.067,-0.038 0.146,-0.058 0.227,-0.058 h 1.29 c 0.173,0 0.326,0.09 0.378,0.222 0.052,0.132 -0.009,0.276 -0.15,0.355 L 0.047,-0.044 0.228,0.058 C 0.285,0.09 0.329,0.132 0.357,0.181 0.425,0.186 0.491,0.205 0.547,0.237 L 1.505,0.775 C 1.647,0.855 1.708,0.998 1.656,1.13 1.604,1.262 1.451,1.352 1.278,1.352 M 0,0.317 -0.642,-0.044 1.265,-1.117 h -1.29 l -1.262,0.709 -1.262,-0.709 h -1.29 l 1.907,1.073 -0.642,0.361 H 0 m -2.562,0.718 0.956,-0.539 h -1.287 l -0.959,0.539 h 1.29 m 3.84,0 L 0.32,0.496 h -1.287 l 0.955,0.539 h 1.29" /></g><g
           transform="translate(36.396,83.9247)"
           id="g192"><path
             id="path194"
             style="fill:#bfbfbf;fill-opacity:1;fill-rule:nonzero;stroke:none"
             d="M 0,0 V 2.684 L 1.826,3.758 H 6.694 L 5.477,2.953 H 2.434 V 0.805 H 4.26 V 1.342 H 2.738 L 3.955,2.147 H 6.694 V 0.805 L 5.477,0 Z" /></g><g
           transform="translate(43.0899,87.3654)"
           id="g196"><path
             id="path198"
             style="fill:#000000;fill-opacity:1;fill-rule:nonzero;stroke:none"
             d="M 0,0 H 0.004 Z M 0.004,0.635 H 0 -4.868 c -0.085,0 -0.167,-0.022 -0.235,-0.062 L -6.928,-0.501 C -7.03,-0.56 -7.09,-0.655 -7.09,-0.756 v -2.685 c 0,-0.175 0.177,-0.317 0.396,-0.317 h 5.477 c 0.092,0 0.181,0.026 0.252,0.073 l 1.217,0.805 c 0.091,0.06 0.144,0.15 0.144,0.245 v 1.342 c 0,0.175 -0.177,0.317 -0.396,0.317 h -2.738 c -0.092,0 -0.182,-0.026 -0.253,-0.073 l -0.873,-0.577 v 0.821 h 2.647 c 0.092,0 0.181,0.025 0.252,0.072 l 1.203,0.796 c 0.097,0.058 0.16,0.15 0.16,0.254 0,0.176 -0.175,0.318 -0.394,0.318 M 0,0.317 -1.217,-0.488 H -4.26 v -2.147 h 1.826 v 0.536 h -1.521 l 1.217,0.806 H 0 v -1.342 l -1.217,-0.806 h -5.477 v 2.685 l 1.826,1.073 H 0 m 0,0 h 0.004" /></g><g
           transform="translate(43.3942,83.9247)"
           id="g200"><path
             id="path202"
             style="fill:#bfbfbf;fill-opacity:1;fill-rule:nonzero;stroke:none"
             d="M 0,0 V 2.684 L 1.826,3.758 H 6.694 L 5.477,2.953 H 2.434 V 2.147 H 5.477 L 4.26,1.342 H 2.434 V 0.805 h 4.26 L 5.477,0 Z" /></g><g
           transform="translate(50.0881,87.3654)"
           id="g204"><path
             id="path206"
             style="fill:#000000;fill-opacity:1;fill-rule:nonzero;stroke:none"
             d="M 0,0 H 0.004 Z M 0.004,0.635 H 0 -4.868 c -0.085,0 -0.167,-0.022 -0.235,-0.062 L -6.928,-0.501 C -7.03,-0.56 -7.09,-0.655 -7.09,-0.756 v -2.685 c 0,-0.175 0.177,-0.317 0.396,-0.317 h 5.477 c 0.092,0 0.181,0.026 0.252,0.073 l 1.217,0.805 c 0.129,0.085 0.177,0.226 0.121,0.352 -0.057,0.126 -0.206,0.21 -0.373,0.21 h -2.144 l 1.165,0.77 c 0.097,0.058 0.16,0.151 0.16,0.255 0,0.175 -0.175,0.317 -0.394,0.317 h -0.004 -2.647 v 0.171 h 2.647 c 0.092,0 0.181,0.025 0.252,0.072 l 1.203,0.796 c 0.097,0.058 0.16,0.15 0.16,0.254 0,0.176 -0.175,0.318 -0.394,0.318 m -1.221,-1.928 h 0.004 M 0,0.317 -1.217,-0.488 H -4.26 v -0.805 h 3.043 L -2.434,-2.099 H -4.26 V -2.635 H 0 l -1.217,-0.806 h -5.477 v 2.685 l 1.826,1.073 H 0 m 0,0 h 0.004" /></g><g
           transform="translate(49.7838,83.9247)"
           id="g208"><path
             id="path210"
             style="fill:#bfbfbf;fill-opacity:1;fill-rule:nonzero;stroke:none"
             d="M 0,0 V 3.758 H 2.434 L 4.26,2.953 V 3.758 H 6.694 V 0 H 4.26 V 1.879 L 2.434,2.684 V 0 Z" /></g><g
           transform="translate(56.4777,88)"
           id="g212"><path
             id="path214"
             style="fill:#000000;fill-opacity:1;fill-rule:nonzero;stroke:none"
             d="M 0,0 H -2.434 C -2.653,0 -2.83,-0.142 -2.83,-0.317 v -0.269 l -1.239,0.547 C -4.127,-0.014 -4.193,0 -4.26,0 H -6.694 C -6.913,0 -7.09,-0.142 -7.09,-0.317 v -3.758 c 0,-0.176 0.177,-0.318 0.396,-0.318 h 2.434 c 0.219,0 0.396,0.142 0.396,0.318 v 2.147 l 1.034,-0.456 v -1.691 c 0,-0.176 0.177,-0.318 0.396,-0.318 H 0 c 0.219,0 0.396,0.142 0.396,0.318 v 3.758 C 0.396,-0.142 0.219,0 0,0 m 0,-0.317 v -3.758 h -2.434 v 1.879 l -1.826,0.805 v -2.684 h -2.434 v 3.758 h 2.434 l 1.826,-0.806 v 0.806 H 0" /></g><g
           transform="translate(56.7819,83.9247)"
           id="g216"><path
             id="path218"
             style="fill:#bfbfbf;fill-opacity:1;fill-rule:nonzero;stroke:none"
             d="M 0,0 V 2.684 L 1.826,3.758 H 6.694 L 5.477,2.953 H 2.434 V 2.147 H 5.477 L 4.26,1.342 H 2.434 V 0.805 h 4.26 L 5.477,0 Z" /></g><g
           transform="translate(63.4758,87.3654)"
           id="g220"><path
             id="path222"
             style="fill:#000000;fill-opacity:1;fill-rule:nonzero;stroke:none"
             d="M 0,0 H 0.004 Z M 0.004,0.635 H 0 -4.868 c -0.085,0 -0.167,-0.022 -0.235,-0.062 L -6.928,-0.501 C -7.03,-0.56 -7.09,-0.655 -7.09,-0.756 v -2.685 c 0,-0.175 0.177,-0.317 0.396,-0.317 h 5.477 c 0.092,0 0.181,0.026 0.252,0.073 l 1.217,0.805 c 0.129,0.085 0.177,0.226 0.121,0.352 -0.057,0.126 -0.206,0.21 -0.373,0.21 h -2.144 l 1.165,0.77 c 0.097,0.058 0.16,0.151 0.16,0.255 0,0.175 -0.175,0.317 -0.394,0.317 h -0.004 -2.647 v 0.171 h 2.647 c 0.092,0 0.181,0.025 0.252,0.072 l 1.203,0.796 c 0.097,0.058 0.16,0.15 0.16,0.254 0,0.176 -0.175,0.318 -0.394,0.318 m -1.221,-1.928 h 0.004 M 0,0.317 -1.217,-0.488 H -4.26 v -0.805 h 3.043 L -2.434,-2.099 H -4.26 V -2.635 H 0 l -1.217,-0.806 h -5.477 v 2.685 l 1.826,1.073 H 0 m 0,0 h 0.004" /></g><g
           transform="translate(63.1716,85.2668)"
           id="g224"><path
             id="path226"
             style="fill:#bfbfbf;fill-opacity:1;fill-rule:nonzero;stroke:none"
             d="M 0,0 V 1.342 L 1.826,2.416 H 6.694 L 5.477,1.611 H 2.434 V 0.805 h 4.26 V -0.537 L 5.477,-1.342 H 0 l 1.217,0.805 H 4.26 V 0 Z" /></g><g
           transform="translate(69.8654,87.3654)"
           id="g228"><path
             id="path230"
             style="fill:#000000;fill-opacity:1;fill-rule:nonzero;stroke:none"
             d="M 0,0 H 0.004 Z M 0.004,0.635 H 0 -4.868 c -0.085,0 -0.167,-0.022 -0.235,-0.062 L -6.928,-0.501 C -7.03,-0.56 -7.09,-0.655 -7.09,-0.756 v -1.343 c 0,-0.175 0.177,-0.317 0.396,-0.317 h 0.927 l -1.179,-0.78 c -0.129,-0.085 -0.177,-0.226 -0.121,-0.352 0.057,-0.126 0.206,-0.21 0.373,-0.21 h 5.477 c 0.092,0 0.181,0.026 0.252,0.073 l 1.217,0.805 c 0.091,0.06 0.144,0.15 0.144,0.245 v 1.342 c 0,0.175 -0.177,0.317 -0.396,0.317 h -3.864 v 0.171 h 2.647 c 0.092,0 0.181,0.025 0.252,0.072 l 1.203,0.796 c 0.097,0.058 0.16,0.15 0.16,0.254 0,0.176 -0.175,0.318 -0.394,0.318 M 0,0.317 -1.217,-0.488 H -4.26 V -1.293 H 0 v -1.342 l -1.217,-0.806 h -5.477 l 1.217,0.806 h 3.043 v 0.536 h -4.26 v 1.343 l 1.826,1.073 H 0 m 0,0 h 0.004" /></g><path
           id="path232"
           style="fill:#bfbfbf;fill-opacity:1;fill-rule:nonzero;stroke:none"
           d="m 70.17,87.683 h 2.434 V 83.925 H 70.17 Z" /><g
           transform="translate(72.6038,88)"
           id="g234"><path
             id="path236"
             style="fill:#000000;fill-opacity:1;fill-rule:nonzero;stroke:none"
             d="M 0,0 H -2.434 C -2.653,0 -2.83,-0.142 -2.83,-0.317 v -3.758 c 0,-0.176 0.177,-0.318 0.396,-0.318 H 0 c 0.219,0 0.396,0.142 0.396,0.318 v 3.758 C 0.396,-0.142 0.219,0 0,0 m 0,-4.075 h -2.434 v 3.758 H 0 Z" /></g><g
           transform="translate(72.9081,85.2668)"
           id="g238"><path
             id="path240"
             style="fill:#bfbfbf;fill-opacity:1;fill-rule:nonzero;stroke:none"
             d="M 0,0 V 1.342 L 1.826,2.416 H 6.694 L 5.477,1.611 H 2.434 V 0.805 h 4.26 V -0.537 L 5.477,-1.342 H 0 l 1.217,0.805 H 4.26 V 0 Z" /></g><g
           transform="translate(79.602,87.3654)"
           id="g242"><path
             id="path244"
             style="fill:#000000;fill-opacity:1;fill-rule:nonzero;stroke:none"
             d="M 0,0 H 0.004 Z M 0.004,0.635 H 0 -4.868 c -0.085,0 -0.167,-0.022 -0.235,-0.062 L -6.928,-0.501 C -7.03,-0.56 -7.09,-0.655 -7.09,-0.756 v -1.343 c 0,-0.175 0.177,-0.317 0.396,-0.317 h 0.927 l -1.179,-0.78 c -0.129,-0.085 -0.177,-0.226 -0.121,-0.352 0.057,-0.126 0.206,-0.21 0.373,-0.21 h 5.477 c 0.092,0 0.181,0.026 0.252,0.073 l 1.217,0.805 c 0.091,0.06 0.144,0.15 0.144,0.245 v 1.342 c 0,0.175 -0.177,0.317 -0.396,0.317 h -3.864 v 0.171 h 2.647 c 0.092,0 0.181,0.025 0.252,0.072 l 1.203,0.796 c 0.097,0.058 0.16,0.15 0.16,0.254 0,0.176 -0.175,0.318 -0.394,0.318 M 0,0.317 -1.217,-0.488 H -4.26 V -1.293 H 0 v -1.342 l -1.217,-0.806 h -5.477 l 1.217,0.806 h 3.043 v 0.536 h -4.26 v 1.343 l 1.826,1.073 H 0 m 0,0 h 0.004" /></g><g
           transform="translate(54.1992,101.8947)"
           id="g246"><path
             id="path248"
             style="fill:#191919;fill-opacity:1;fill-rule:nonzero;stroke:none"
             d="m 0,0 -0.551,-0.958 c -0.043,-0.063 -0.108,-0.095 -0.194,-0.095 h -1.814 v 2.316 h 1.814 c 0.086,0 0.151,-0.035 0.194,-0.105 L 0,0.211 0.032,0.105 Z M 1.555,0.211 0.551,1.895 c -0.087,0.14 -0.195,0.21 -0.324,0.21 h -4.341 v -4 h 4.341 c 0.129,0 0.237,0.07 0.324,0.211 L 1.555,0 1.587,0.105 Z" /></g><g
           transform="translate(56.3047,104)"
           id="g250"><path
             id="path252"
             style="fill:#191919;fill-opacity:1;fill-rule:nonzero;stroke:none"
             d="M 0,0 H 4.146 C 4.276,0 4.384,-0.07 4.47,-0.211 L 5.151,-1.368 5.183,-1.474 5.151,-1.579 4.146,-2.526 5.183,-4 H 3.628 l -1.49,2 h 0.777 c 0.087,0 0.152,0.018 0.195,0.053 l 0.518,0.473 -0.259,0.527 c -0.043,0.07 -0.108,0.105 -0.194,0.105 H 1.555 L 1.555,-4 H 0 Z" /></g><g
           transform="translate(63.5609,100)"
           id="g254"><path
             id="path256"
             style="fill:#191919;fill-opacity:1;fill-rule:nonzero;stroke:none"
             d="M 0,0 H -1.555 V 4 H 0 Z" /></g><g
           transform="translate(35.4228,100)"
           id="g258"><path
             id="path260"
             style="fill:#191919;fill-opacity:1;fill-rule:nonzero;stroke:none"
             d="M 0,0 H -1.555 V 4 H 0 Z" /></g><g
           transform="translate(65.6341,102.6842)"
           id="g262"><path
             id="path264"
             style="fill:#191919;fill-opacity:1;fill-rule:nonzero;stroke:none"
             d="M 0,0 1.555,-1.842 3.11,0 v 1.316 h 1.555 v -1.474 c 0,-0.14 -0.022,-0.246 -0.065,-0.316 L 2.851,-2.684 H 0.259 l -1.749,2.21 c -0.043,0.07 -0.065,0.176 -0.065,0.316 v 1.474 l 1.555,0 z" /></g><g
           transform="translate(72.3719,101.5789)"
           id="g266"><path
             id="path268"
             style="fill:#191919;fill-opacity:1;fill-rule:nonzero;stroke:none"
             d="m 0,0 v -0.737 h 3.628 v -0.842 h -5.183 v 2.632 c 0,0.07 0.022,0.14 0.065,0.21 l 0.713,1.053 c 0.043,0.07 0.129,0.105 0.259,0.105 H 3.628 V 1.579 H 0.518 C 0.432,1.579 0.367,1.544 0.324,1.474 L 0,0.842 H 3.628 L 3.11,0 Z" /></g><g
           transform="translate(30.9154,102)"
           id="g270"><path
             id="path272"
             style="fill:#191919;fill-opacity:1;fill-rule:nonzero;stroke:none"
             d="m 0,0 h -0.777 l 0.308,-0.414 c 0.05,-0.067 0.14,-0.108 0.236,-0.108 h 1.342 c 0.08,0 0.157,0.028 0.209,0.078 L 2.235,0.421 2.268,0.526 2.235,0.632 1.555,1.789 C 1.468,1.93 1.361,2 1.231,2 h -4.146 v -4 h 1.554 v 3.158 h 1.62 c 0.087,0 0.151,-0.035 0.195,-0.105 L 0.713,0.526 0.194,0.053 C 0.151,0.018 0.086,0 0,0" /></g><g
           transform="translate(41.5198,100.8424)"
           id="g274"><path
             id="path276"
             style="fill:#191919;fill-opacity:1;fill-rule:nonzero;stroke:none"
             d="m 0,0 h -1.304 v 0 h -2.609 v 1.579 l 0.326,0.631 c 0.043,0.07 0.109,0.106 0.196,0.106 H 0 v 0.842 h -4.435 c -0.13,0 -0.217,-0.035 -0.261,-0.106 L -5.413,2 C -5.457,1.93 -5.478,1.859 -5.478,1.789 v -2.421 c 0,-0.14 0.087,-0.21 0.26,-0.21 l 5.218,0 z" /></g><g
           transform="translate(46.6452,101.8947)"
           id="g278"><path
             id="path280"
             style="fill:#191919;fill-opacity:1;fill-rule:nonzero;stroke:none"
             d="m 0,0 -0.551,-0.958 c -0.043,-0.063 -0.108,-0.095 -0.194,-0.095 h -0.168 -1.441 -0.167 c -0.087,0 -0.151,0.032 -0.195,0.095 L -3.266,0 l -0.033,0.105 0.033,0.106 0.55,0.947 c 0.044,0.07 0.108,0.105 0.195,0.105 h 0.167 1.441 0.168 c 0.086,0 0.151,-0.035 0.194,-0.105 L 0,0.211 0.032,0.105 Z M 1.555,0.211 0.551,1.895 c -0.087,0.14 -0.195,0.21 -0.324,0.21 h -3.72 c -0.13,0 -0.238,-0.07 -0.324,-0.21 L -4.821,0.211 -4.854,0.105 -4.821,0 -3.817,-1.684 c 0.086,-0.141 0.194,-0.211 0.324,-0.211 h 3.72 c 0.129,0 0.237,0.07 0.324,0.211 L 1.555,0 1.587,0.105 Z" /></g></g></g></g></svg>