<svg height="90.666664" viewBox="0 0 309.33331 90.666663" width="309.33331" xmlns="http://www.w3.org/2000/svg" xmlns:xlink="http://www.w3.org/1999/xlink"><clipPath id="a"><path d="m240 152h-224v8h224z"/></clipPath><linearGradient id="b"><stop offset="0" stop-color="#e6e7e8"/><stop offset="1" stop-color="#d1d3d4"/></linearGradient><linearGradient id="c" gradientTransform="matrix(-115.99999 115.99999 115.99999 115.99999 186 98)" gradientUnits="userSpaceOnUse" spreadMethod="pad" x1="0" x2="1" xlink:href="#b" y1="0" y2="0"/><clipPath id="d"><path d="m234 160v-4h-2v4h-2v-4h-2v4h-2v-4h-2v4h-2v-4h-2v4h-2v-4h-2v4h-2v-4h-2v4h-2v-4h-2v4h-2v-4h-2v4h-2v-4h-2v4h-2v-4h-2v4h-2v-4h-2v4h-2v-4h-2v4h-2v-4h-2v4h-2v-4h-2v4h-2v-4h-2v4h-2v-4h-2v4h-2v-4h-2v4h-2v-4h-2v4h-2v-4h-2v4h-2v-4h-2v4h-2v-4h-2v4h-2v-4h-2v4h-2v-4h-2v4h-2v-4h-2v4h-2v-4h-2v4h-2v-4h-2v4h-2v-4h-2v4h-2v-4h-2v4h-2v-4h-2v4h-2v-4h-2v4h-2v-4h-2v4h-2v-4h-2v4h-2v-4h-2v4h-2v-4h-2v4h-2v-4h-2v4h-2v-4h-2v4h-2v-4h-2v4h-2v-4h-2v4h-2v-4h-2v4h-2v-4h-2v4h-2v-4h-2v4h-2v-4h-2v4h-2v-4h-2v4h-2v-4h-2v4h-2v-4h-2v4h-2v-4h-2v4h-2v-4h-2v4h-2v-4h-2v4h-2v-4h-2v4h-2v-4h-2v4h-2v-4h-2v4h-2v-4h-2v4h-2v-4h-2v4h-2v-4h-2v4h-8v-60-4-4h232v4 4 60z"/></clipPath><linearGradient id="e" gradientTransform="matrix(150 -150 -150 -150 53 201)" gradientUnits="userSpaceOnUse" spreadMethod="pad" x1="0" x2="1" xlink:href="#b" y1="0" y2="0"/><clipPath id="f"><path d="m236 108h-48v20h48z"/></clipPath><linearGradient id="g" gradientTransform="matrix(-34 34 34 34 229 101)" gradientUnits="userSpaceOnUse" spreadMethod="pad" x1="0" x2="1" xlink:href="#b" y1="0" y2="0"/><clipPath id="h"><path d="m236 124h-48v20h48z"/></clipPath><linearGradient id="i" gradientTransform="matrix(-34 34 34 34 229 117)" gradientUnits="userSpaceOnUse" spreadMethod="pad" x1="0" x2="1" xlink:href="#b" y1="0" y2="0"/><clipPath id="j"><path d="m232 128h-40v12h40z"/></clipPath><linearGradient id="k" gradientTransform="matrix(26 -26 -26 -26 199 147)" gradientUnits="userSpaceOnUse" spreadMethod="pad" x1="0" x2="1" xlink:href="#b" y1="0" y2="0"/><clipPath id="l"><path d="m0 256h256v-256h-256z"/></clipPath><g transform="matrix(1.3333333 0 0 -1.3333333 -16 213.33333)"><g clip-path="url(#a)"><path d="m240 152h-224v8h224z" fill="url(#c)"/></g><g clip-path="url(#d)"><path d="m234 160v-4h-2v4h-2v-4h-2v4h-2v-4h-2v4h-2v-4h-2v4h-2v-4h-2v4h-2v-4h-2v4h-2v-4h-2v4h-2v-4h-2v4h-2v-4h-2v4h-2v-4h-2v4h-2v-4h-2v4h-2v-4h-2v4h-2v-4h-2v4h-2v-4h-2v4h-2v-4h-2v4h-2v-4h-2v4h-2v-4h-2v4h-2v-4h-2v4h-2v-4h-2v4h-2v-4h-2v4h-2v-4h-2v4h-2v-4h-2v4h-2v-4h-2v4h-2v-4h-2v4h-2v-4h-2v4h-2v-4h-2v4h-2v-4h-2v4h-2v-4h-2v4h-2v-4h-2v4h-2v-4h-2v4h-2v-4h-2v4h-2v-4h-2v4h-2v-4h-2v4h-2v-4h-2v4h-2v-4h-2v4h-2v-4h-2v4h-2v-4h-2v4h-2v-4h-2v4h-2v-4h-2v4h-2v-4h-2v4h-2v-4h-2v4h-2v-4h-2v4h-2v-4h-2v4h-2v-4h-2v4h-2v-4h-2v4h-2v-4h-2v4h-2v-4h-2v4h-2v-4h-2v4h-2v-4h-2v4h-2v-4h-2v4h-2v-4h-2v4h-2v-4h-2v4h-2v-4h-2v4h-2v-4h-2v4h-8v-60-4-4h232v4 4 60z" fill="url(#e)"/></g><g fill="#999"><path d="m148 144h-124v8h124z"/><path d="m32 132h-8v8h8z"/><path d="m32 120h-8v8h8z"/><path d="m44 132h-8v8h8z"/><path d="m44 120h-8v8h8z"/><path d="m52 108.075h-8v8h8z"/><path d="m64 108.075h-8v8h8z"/><path d="m76 108.075h-8v8h8z"/><path d="m88 108.075h-8v8h8z"/><path d="m100 108.075h-8v8h8z"/><path d="m112 108.075h-8v8h8z"/><path d="m124 108.075h-8v8h8z"/><path d="m136 108h-8v8h8z"/><path d="m128 96h-8v8h8z"/><path d="m56 120h-8v8h8z"/><path d="m68 120h-8v8h8z"/><path d="m80 120h-8v8h8z"/><path d="m92 120h-8v8h8z"/><path d="m104 120h-8v8h8z"/><path d="m116 120h-8v8h8z"/><path d="m128 120h-8v8h8z"/><path d="m0 0v-8h8v-11.925h8v19.925z" transform="translate(132 128)"/><path d="m56 132h-8v8h8z"/><path d="m68 132h-8v8h8z"/><path d="m80 132h-8v8h8z"/><path d="m92 132h-8v8h8z"/><path d="m104 132h-8v8h8z"/><path d="m116 132h-8v8h8z"/><path d="m128 132h-8v8h8z"/><path d="m0 0v8h-8v-8h-8v-8h8v-8h8v8h8v8z" transform="translate(172 148)"/><path d="m148 132h-12v8h12z"/><path d="m40 108.075h-16v8.074h16z"/><path d="m116 96h-68v8.075h68z"/><path d="m160 120h-8v8h8z"/><path d="m172 120h-8v8h8z"/><path d="m184 120h-8v8h8z"/><path d="m160 108h-8v8h8z"/><path d="m172 108h-8v8h8z"/><path d="m184 108h-8v8h8z"/><path d="m160 96h-8v8h8z"/><path d="m172 96h-8v8h8z"/><path d="m184 96h-8v8h8z"/><path d="m200 96h-8v8h8z"/><path d="m212 96h-8v8h8z"/><path d="m224 96h-8v8h8z"/><path d="m236 96h-8v8h8z"/></g><g clip-path="url(#f)"><path d="m236 108h-48v20h48z" fill="url(#g)"/></g><g clip-path="url(#h)"><path d="m236 124h-48v20h48z" fill="url(#i)"/></g><g clip-path="url(#j)"><path d="m232 128h-40v12h40z" fill="url(#k)"/></g><g clip-path="url(#l)"><g fill="#999"><path d="m0 0c0-1.104-.896-2-2-2s-2 .896-2 2 .896 2 2 2 2-.896 2-2" transform="translate(204 130)"/><path d="m0 0c0-1.104-.896-2-2-2s-2 .896-2 2 .896 2 2 2 2-.896 2-2" transform="translate(224 130)"/><path d="m216 128h-8v4h8z"/></g><path d="m232 116h-40v-4h40z" fill="#fff"/><path d="m0 0c0-.552-.447-1-1-1s-1 .448-1 1 .447 1 1 1 1-.448 1-1" fill="#fff" transform="translate(143 150)"/></g></g></svg>