<svg height="309.33331" viewBox="0 0 277.33331 309.33331" width="277.33331" xmlns="http://www.w3.org/2000/svg" xmlns:xlink="http://www.w3.org/1999/xlink"><clipPath id="a"><path d="m42.815 244c-8.182 0-14.815-6.702-14.815-14.968v-134.709-67.355-14.968h14.815 170.371 14.814v14.968 67.355 134.709c0 8.266-6.633 14.968-14.814 14.968z"/></clipPath><linearGradient id="b"><stop offset="0" stop-color="#e6e7e8"/><stop offset="1" stop-color="#d1d3d4"/></linearGradient><linearGradient id="c" gradientTransform="matrix(211.63858 -211.63858 -211.63858 -211.63858 22.180674 229.45789)" gradientUnits="userSpaceOnUse" spreadMethod="pad" x1="0" x2="1" xlink:href="#b" y1="0" y2="0"/><clipPath id="d"><path d="m0 256h256v-256h-256z"/></clipPath><clipPath id="e"><path d="m40 228h176v-204h-176z"/></clipPath><clipPath id="f"><path d="m49.372 56h157.256c.758 0 1.372-.601 1.372-1.342v-29.316c0-.741-.614-1.342-1.372-1.342h-157.256c-.758 0-1.372.601-1.372 1.342v29.316c0 .741.614 1.342 1.372 1.342"/></clipPath><linearGradient id="g" gradientTransform="matrix(-95.205276 95.205276 95.205276 95.205276 175.60265 -7.602641)" gradientUnits="userSpaceOnUse" spreadMethod="pad" x1="0" x2="1" xlink:href="#b" y1="0" y2="0"/><clipPath id="h"><path d="m208 64c2.209 0 4-1.791 4-4s-1.791-4-4-4-4 1.791-4 4 1.791 4 4 4m-166.625 164c-.766 0-1.375-.608-1.375-1.375v-173.25c0-.766.609-1.375 1.375-1.375h173.25c.767 0 1.375.609 1.375 1.375v173.25c0 .767-.608 1.375-1.375 1.375z"/></clipPath><linearGradient id="i" gradientTransform="matrix(-175.19987 175.19987 175.19987 175.19987 215.59993 52.400063)" gradientUnits="userSpaceOnUse" spreadMethod="pad" x1="0" x2="1" xlink:href="#b" y1="0" y2="0"/><clipPath id="j"><path d="m184 182c0-14.359-11.641-26-26-26s-26 11.641-26 26 11.641 26 26 26 26-11.641 26-26"/></clipPath><linearGradient id="k" gradientTransform="matrix(36.76955 -36.76955 -36.76955 -36.76955 139.61522 200.38478)" gradientUnits="userSpaceOnUse" spreadMethod="pad" x1="0" x2="1" xlink:href="#b" y1="0" y2="0"/><clipPath id="l"><path d="m69.321 208h25.358c.73 0 1.321-.676 1.321-1.509v-16.982c0-.833-.591-1.509-1.321-1.509h-25.358c-.73 0-1.321.676-1.321 1.509v16.982c0 .833.591 1.509 1.321 1.509"/></clipPath><linearGradient id="m" gradientTransform="matrix(23.175577 -23.175577 -23.175577 -23.175577 70.412209 209.58778)" gradientUnits="userSpaceOnUse" spreadMethod="pad" x1="0" x2="1" xlink:href="#b" y1="0" y2="0"/><clipPath id="n"><path d="m149.393 144h45.214c.769 0 1.393-.601 1.393-1.342v-61.316c0-.741-.624-1.342-1.393-1.342h-45.214c-.769 0-1.393.601-1.393 1.342v61.316c0 .741.624 1.342 1.393 1.342"/></clipPath><linearGradient id="o" gradientTransform="matrix(55.199322 -55.199322 -55.199322 -55.199322 144.40034 139.59966)" gradientUnits="userSpaceOnUse" spreadMethod="pad" x1="0" x2="1" xlink:href="#b" y1="0" y2="0"/><clipPath id="p"><path d="m81.384 140h41.232c.765 0 1.384-.676 1.384-1.509v-28.982c0-.833-.619-1.509-1.384-1.509h-41.232c-.765 0-1.384.676-1.384 1.509v28.982c0 .833.619 1.509 1.384 1.509"/></clipPath><linearGradient id="q" gradientTransform="matrix(37.154629 -37.154629 -37.154629 -37.154629 83.422684 142.57732)" gradientUnits="userSpaceOnUse" spreadMethod="pad" x1="0" x2="1" xlink:href="#b" y1="0" y2="0"/><clipPath id="r"><path d="m52 28h4v20h-4z"/></clipPath><linearGradient id="s" gradientTransform="matrix(11.999999 -11.999999 -11.999999 -11.999999 48 44)" gradientUnits="userSpaceOnUse" spreadMethod="pad" x1="0" x2="1" xlink:href="#b" y1="0" y2="0"/><clipPath id="t"><path d="m60 28h4v20h-4z"/></clipPath><linearGradient id="u" gradientTransform="matrix(11.999999 -11.999999 -11.999999 -11.999999 56 44)" gradientUnits="userSpaceOnUse" spreadMethod="pad" x1="0" x2="1" xlink:href="#b" y1="0" y2="0"/><clipPath id="v"><path d="m68 28h4v20h-4z"/></clipPath><linearGradient id="w" gradientTransform="matrix(11.999999 -11.999999 -11.999999 -11.999999 64 44)" gradientUnits="userSpaceOnUse" spreadMethod="pad" x1="0" x2="1" xlink:href="#b" y1="0" y2="0"/><clipPath id="x"><path d="m76 28h4.001v20h-4.001z"/></clipPath><linearGradient id="y" gradientTransform="matrix(11.999999 -11.999999 -11.999999 -11.999999 72 44)" gradientUnits="userSpaceOnUse" spreadMethod="pad" x1="0" x2="1" xlink:href="#b" y1="0" y2="0"/><clipPath id="z"><path d="m84 28h4.001v20h-4.001z"/></clipPath><linearGradient id="A" gradientTransform="matrix(11.999999 -11.999999 -11.999999 -11.999999 80 44)" gradientUnits="userSpaceOnUse" spreadMethod="pad" x1="0" x2="1" xlink:href="#b" y1="0" y2="0"/><clipPath id="B"><path d="m92 28h4.001v20h-4.001z"/></clipPath><linearGradient id="C" gradientTransform="matrix(11.999999 -11.999999 -11.999999 -11.999999 88 44)" gradientUnits="userSpaceOnUse" spreadMethod="pad" x1="0" x2="1" xlink:href="#b" y1="0" y2="0"/><clipPath id="D"><path d="m100 28h4.001v20h-4.001z"/></clipPath><linearGradient id="E" gradientTransform="matrix(11.999999 -11.999999 -11.999999 -11.999999 96 44)" gradientUnits="userSpaceOnUse" spreadMethod="pad" x1="0" x2="1" xlink:href="#b" y1="0" y2="0"/><clipPath id="F"><path d="m108 28h4v20h-4z"/></clipPath><linearGradient id="G" gradientTransform="matrix(11.999999 -11.999999 -11.999999 -11.999999 104 44)" gradientUnits="userSpaceOnUse" spreadMethod="pad" x1="0" x2="1" xlink:href="#b" y1="0" y2="0"/><clipPath id="H"><path d="m116 28h4v20h-4z"/></clipPath><linearGradient id="I" gradientTransform="matrix(11.999999 -11.999999 -11.999999 -11.999999 112 44)" gradientUnits="userSpaceOnUse" spreadMethod="pad" x1="0" x2="1" xlink:href="#b" y1="0" y2="0"/><clipPath id="J"><path d="m124 28h4v20h-4z"/></clipPath><linearGradient id="K" gradientTransform="matrix(11.999999 -11.999999 -11.999999 -11.999999 120 44)" gradientUnits="userSpaceOnUse" spreadMethod="pad" x1="0" x2="1" xlink:href="#b" y1="0" y2="0"/><clipPath id="L"><path d="m132 28h4v20h-4z"/></clipPath><linearGradient id="M" gradientTransform="matrix(11.999999 -11.999999 -11.999999 -11.999999 128 44)" gradientUnits="userSpaceOnUse" spreadMethod="pad" x1="0" x2="1" xlink:href="#b" y1="0" y2="0"/><clipPath id="N"><path d="m140 28h4v20h-4z"/></clipPath><linearGradient id="O" gradientTransform="matrix(11.999999 -11.999999 -11.999999 -11.999999 136 44)" gradientUnits="userSpaceOnUse" spreadMethod="pad" x1="0" x2="1" xlink:href="#b" y1="0" y2="0"/><clipPath id="P"><path d="m148 28h4v20h-4z"/></clipPath><linearGradient id="Q" gradientTransform="matrix(11.999999 -11.999999 -11.999999 -11.999999 144 44)" gradientUnits="userSpaceOnUse" spreadMethod="pad" x1="0" x2="1" xlink:href="#b" y1="0" y2="0"/><clipPath id="R"><path d="m156 28h4.001v20h-4.001z"/></clipPath><linearGradient id="S" gradientTransform="matrix(11.999999 -11.999999 -11.999999 -11.999999 152 44)" gradientUnits="userSpaceOnUse" spreadMethod="pad" x1="0" x2="1" xlink:href="#b" y1="0" y2="0"/><clipPath id="T"><path d="m164 28h4v20h-4z"/></clipPath><linearGradient id="U" gradientTransform="matrix(11.999999 -11.999999 -11.999999 -11.999999 160 44)" gradientUnits="userSpaceOnUse" spreadMethod="pad" x1="0" x2="1" xlink:href="#b" y1="0" y2="0"/><clipPath id="V"><path d="m172 28h4.001v20h-4.001z"/></clipPath><linearGradient id="W" gradientTransform="matrix(11.999999 -11.999999 -11.999999 -11.999999 168 44)" gradientUnits="userSpaceOnUse" spreadMethod="pad" x1="0" x2="1" xlink:href="#b" y1="0" y2="0"/><clipPath id="X"><path d="m180 28h4v20h-4z"/></clipPath><linearGradient id="Y" gradientTransform="matrix(11.999999 -11.999999 -11.999999 -11.999999 176 44)" gradientUnits="userSpaceOnUse" spreadMethod="pad" x1="0" x2="1" xlink:href="#b" y1="0" y2="0"/><clipPath id="Z"><path d="m188 28h4v20h-4z"/></clipPath><linearGradient id="aa" gradientTransform="matrix(11.999999 -11.999999 -11.999999 -11.999999 184 44)" gradientUnits="userSpaceOnUse" spreadMethod="pad" x1="0" x2="1" xlink:href="#b" y1="0" y2="0"/><clipPath id="ab"><path d="m196 28h4v20h-4z"/></clipPath><linearGradient id="ac" gradientTransform="matrix(11.999999 -11.999999 -11.999999 -11.999999 192 44)" gradientUnits="userSpaceOnUse" spreadMethod="pad" x1="0" x2="1" xlink:href="#b" y1="0" y2="0"/><clipPath id="ad"><path d="m221.811 220c-1 0-1.811-.675-1.811-1.51v-.981c0-.833.811-1.509 1.811-1.509h8.377c1.001 0 1.812.676 1.812 1.509v.981c0 .835-.811 1.51-1.812 1.51z"/></clipPath><linearGradient id="ae" gradientTransform="matrix(-7.0371757 7.0371757 7.0371757 7.0371757 229.51859 214.48141)" gradientUnits="userSpaceOnUse" spreadMethod="pad" x1="0" x2="1" xlink:href="#b" y1="0" y2="0"/><clipPath id="af"><path d="m221.811 212c-1 0-1.811-.676-1.811-1.509v-.982c0-.833.811-1.509 1.811-1.509h8.377c1.001 0 1.812.676 1.812 1.509v.982c0 .833-.811 1.509-1.812 1.509z"/></clipPath><linearGradient id="ag" gradientTransform="matrix(-7.0371757 7.0371757 7.0371757 7.0371757 229.51859 206.48141)" gradientUnits="userSpaceOnUse" spreadMethod="pad" x1="0" x2="1" xlink:href="#b" y1="0" y2="0"/><clipPath id="ah"><path d="m221.811 204c-1 0-1.811-.676-1.811-1.509v-.982c0-.833.811-1.509 1.811-1.509h8.377c1.001 0 1.812.676 1.812 1.509v.982c0 .833-.811 1.509-1.812 1.509z"/></clipPath><linearGradient id="ai" gradientTransform="matrix(-7.0371757 7.0371757 7.0371757 7.0371757 229.51859 198.48141)" gradientUnits="userSpaceOnUse" spreadMethod="pad" x1="0" x2="1" xlink:href="#b" y1="0" y2="0"/><clipPath id="aj"><path d="m221.811 196c-1 0-1.811-.676-1.811-1.509v-.982c0-.833.811-1.509 1.811-1.509h8.377c1.001 0 1.812.676 1.812 1.509v.982c0 .833-.811 1.509-1.812 1.509z"/></clipPath><linearGradient id="ak" gradientTransform="matrix(-7.0371757 7.0371757 7.0371757 7.0371757 229.51859 190.48141)" gradientUnits="userSpaceOnUse" spreadMethod="pad" x1="0" x2="1" xlink:href="#b" y1="0" y2="0"/><clipPath id="al"><path d="m221.811 188c-1 0-1.811-.676-1.811-1.509v-.982c0-.834.811-1.509 1.811-1.509h8.377c1.001 0 1.812.675 1.812 1.509v.982c0 .833-.811 1.509-1.812 1.509z"/></clipPath><linearGradient id="am" gradientTransform="matrix(-7.0371757 7.0371757 7.0371757 7.0371757 229.51859 182.48141)" gradientUnits="userSpaceOnUse" spreadMethod="pad" x1="0" x2="1" xlink:href="#b" y1="0" y2="0"/><clipPath id="an"><path d="m25.811 220c-1 0-1.811-.675-1.811-1.51v-.981c0-.833.811-1.509 1.811-1.509h8.378c1 0 1.811.676 1.811 1.509v.981c0 .835-.811 1.51-1.811 1.51z"/></clipPath><linearGradient id="ao" gradientTransform="matrix(-7.0371757 7.0371757 7.0371757 7.0371757 33.518589 214.48141)" gradientUnits="userSpaceOnUse" spreadMethod="pad" x1="0" x2="1" xlink:href="#b" y1="0" y2="0"/><clipPath id="ap"><path d="m25.811 212c-1 0-1.811-.676-1.811-1.509v-.982c0-.833.811-1.509 1.811-1.509h8.378c1 0 1.811.676 1.811 1.509v.982c0 .833-.811 1.509-1.811 1.509z"/></clipPath><linearGradient id="aq" gradientTransform="matrix(-7.0371757 7.0371757 7.0371757 7.0371757 33.518589 206.48141)" gradientUnits="userSpaceOnUse" spreadMethod="pad" x1="0" x2="1" xlink:href="#b" y1="0" y2="0"/><clipPath id="ar"><path d="m25.811 204c-1 0-1.811-.676-1.811-1.509v-.982c0-.833.811-1.509 1.811-1.509h8.378c1 0 1.811.676 1.811 1.509v.982c0 .833-.811 1.509-1.811 1.509z"/></clipPath><linearGradient id="as" gradientTransform="matrix(-7.0371757 7.0371757 7.0371757 7.0371757 33.518589 198.48141)" gradientUnits="userSpaceOnUse" spreadMethod="pad" x1="0" x2="1" xlink:href="#b" y1="0" y2="0"/><clipPath id="at"><path d="m25.811 196c-1 0-1.811-.676-1.811-1.509v-.982c0-.833.811-1.509 1.811-1.509h8.378c1 0 1.811.676 1.811 1.509v.982c0 .833-.811 1.509-1.811 1.509z"/></clipPath><linearGradient id="au" gradientTransform="matrix(-7.0371757 7.0371757 7.0371757 7.0371757 33.518589 190.48141)" gradientUnits="userSpaceOnUse" spreadMethod="pad" x1="0" x2="1" xlink:href="#b" y1="0" y2="0"/><clipPath id="av"><path d="m25.811 188c-1 0-1.811-.676-1.811-1.509v-.982c0-.834.811-1.509 1.811-1.509h8.378c1 0 1.811.675 1.811 1.509v.982c0 .833-.811 1.509-1.811 1.509z"/></clipPath><linearGradient id="aw" gradientTransform="matrix(-7.0371757 7.0371757 7.0371757 7.0371757 33.518589 182.48141)" gradientUnits="userSpaceOnUse" spreadMethod="pad" x1="0" x2="1" xlink:href="#b" y1="0" y2="0"/><clipPath id="ax"><path d="m0 256h256v-256h-256z"/></clipPath><clipPath id="ay"><path d="m52 176h152v12h-152z"/></clipPath><linearGradient id="az" gradientTransform="matrix(82 -82 -82 -82 87 223)" gradientUnits="userSpaceOnUse" spreadMethod="pad" x1="0" x2="1" xlink:href="#b" y1="0" y2="0"/><clipPath id="aA"><path d="m0 256h256v-256h-256z"/></clipPath><g transform="matrix(1.3333333 0 0 -1.3333333 -31.999999 325.33333)"><g clip-path="url(#a)"><path d="m42.815 244c-8.182 0-14.815-6.702-14.815-14.968v-134.709-67.355-14.968h14.815 170.371 14.814v14.968 67.355 134.709c0 8.266-6.633 14.968-14.814 14.968z" fill="url(#c)"/></g><g clip-path="url(#d)"><g clip-path="url(#e)" opacity=".974915"><g clip-path="url(#f)"><path d="m49.372 56h157.256c.758 0 1.372-.601 1.372-1.342v-29.316c0-.741-.614-1.342-1.372-1.342h-157.256c-.758 0-1.372.601-1.372 1.342v29.316c0 .741.614 1.342 1.372 1.342" fill="url(#g)"/></g><g clip-path="url(#h)"><path d="m208 64c2.209 0 4-1.791 4-4s-1.791-4-4-4-4 1.791-4 4 1.791 4 4 4m-166.625 164c-.766 0-1.375-.608-1.375-1.375v-173.25c0-.766.609-1.375 1.375-1.375h173.25c.767 0 1.375.609 1.375 1.375v173.25c0 .767-.608 1.375-1.375 1.375z" fill="url(#i)"/></g><g clip-path="url(#j)"><path d="m184 182c0-14.359-11.641-26-26-26s-26 11.641-26 26 11.641 26 26 26 26-11.641 26-26" fill="url(#k)"/></g><g clip-path="url(#l)"><path d="m69.321 208h25.358c.73 0 1.321-.676 1.321-1.509v-16.982c0-.833-.591-1.509-1.321-1.509h-25.358c-.73 0-1.321.676-1.321 1.509v16.982c0 .833.591 1.509 1.321 1.509" fill="url(#m)"/></g><g clip-path="url(#n)"><path d="m149.393 144h45.214c.769 0 1.393-.601 1.393-1.342v-61.316c0-.741-.624-1.342-1.393-1.342h-45.214c-.769 0-1.393.601-1.393 1.342v61.316c0 .741.624 1.342 1.393 1.342" fill="url(#o)"/></g><g clip-path="url(#p)"><path d="m81.384 140h41.232c.765 0 1.384-.676 1.384-1.509v-28.982c0-.833-.619-1.509-1.384-1.509h-41.232c-.765 0-1.384.676-1.384 1.509v28.982c0 .833.619 1.509 1.384 1.509" fill="url(#q)"/></g></g></g><g clip-path="url(#r)"><path d="m52 28h4v20h-4z" fill="url(#s)"/></g><g clip-path="url(#t)"><path d="m60 28h4v20h-4z" fill="url(#u)"/></g><g clip-path="url(#v)"><path d="m68 28h4v20h-4z" fill="url(#w)"/></g><g clip-path="url(#x)"><path d="m76 28h4.001v20h-4.001z" fill="url(#y)"/></g><g clip-path="url(#z)"><path d="m84 28h4.001v20h-4.001z" fill="url(#A)"/></g><g clip-path="url(#B)"><path d="m92 28h4.001v20h-4.001z" fill="url(#C)"/></g><g clip-path="url(#D)"><path d="m100 28h4.001v20h-4.001z" fill="url(#E)"/></g><g clip-path="url(#F)"><path d="m108 28h4v20h-4z" fill="url(#G)"/></g><g clip-path="url(#H)"><path d="m116 28h4v20h-4z" fill="url(#I)"/></g><g clip-path="url(#J)"><path d="m124 28h4v20h-4z" fill="url(#K)"/></g><g clip-path="url(#L)"><path d="m132 28h4v20h-4z" fill="url(#M)"/></g><g clip-path="url(#N)"><path d="m140 28h4v20h-4z" fill="url(#O)"/></g><g clip-path="url(#P)"><path d="m148 28h4v20h-4z" fill="url(#Q)"/></g><g clip-path="url(#R)"><path d="m156 28h4.001v20h-4.001z" fill="url(#S)"/></g><g clip-path="url(#T)"><path d="m164 28h4v20h-4z" fill="url(#U)"/></g><g clip-path="url(#V)"><path d="m172 28h4.001v20h-4.001z" fill="url(#W)"/></g><g clip-path="url(#X)"><path d="m180 28h4v20h-4z" fill="url(#Y)"/></g><g clip-path="url(#Z)"><path d="m188 28h4v20h-4z" fill="url(#aa)"/></g><g clip-path="url(#ab)"><path d="m196 28h4v20h-4z" fill="url(#ac)"/></g><g clip-path="url(#ad)"><path d="m221.811 220c-1 0-1.811-.675-1.811-1.51v-.981c0-.833.811-1.509 1.811-1.509h8.377c1.001 0 1.812.676 1.812 1.509v.981c0 .835-.811 1.51-1.812 1.51z" fill="url(#ae)"/></g><g clip-path="url(#af)"><path d="m221.811 212c-1 0-1.811-.676-1.811-1.509v-.982c0-.833.811-1.509 1.811-1.509h8.377c1.001 0 1.812.676 1.812 1.509v.982c0 .833-.811 1.509-1.812 1.509z" fill="url(#ag)"/></g><g clip-path="url(#ah)"><path d="m221.811 204c-1 0-1.811-.676-1.811-1.509v-.982c0-.833.811-1.509 1.811-1.509h8.377c1.001 0 1.812.676 1.812 1.509v.982c0 .833-.811 1.509-1.812 1.509z" fill="url(#ai)"/></g><g clip-path="url(#aj)"><path d="m221.811 196c-1 0-1.811-.676-1.811-1.509v-.982c0-.833.811-1.509 1.811-1.509h8.377c1.001 0 1.812.676 1.812 1.509v.982c0 .833-.811 1.509-1.812 1.509z" fill="url(#ak)"/></g><g clip-path="url(#al)"><path d="m221.811 188c-1 0-1.811-.676-1.811-1.509v-.982c0-.834.811-1.509 1.811-1.509h8.377c1.001 0 1.812.675 1.812 1.509v.982c0 .833-.811 1.509-1.812 1.509z" fill="url(#am)"/></g><g clip-path="url(#an)"><path d="m25.811 220c-1 0-1.811-.675-1.811-1.51v-.981c0-.833.811-1.509 1.811-1.509h8.378c1 0 1.811.676 1.811 1.509v.981c0 .835-.811 1.51-1.811 1.51z" fill="url(#ao)"/></g><g clip-path="url(#ap)"><path d="m25.811 212c-1 0-1.811-.676-1.811-1.509v-.982c0-.833.811-1.509 1.811-1.509h8.378c1 0 1.811.676 1.811 1.509v.982c0 .833-.811 1.509-1.811 1.509z" fill="url(#aq)"/></g><g clip-path="url(#ar)"><path d="m25.811 204c-1 0-1.811-.676-1.811-1.509v-.982c0-.833.811-1.509 1.811-1.509h8.378c1 0 1.811.676 1.811 1.509v.982c0 .833-.811 1.509-1.811 1.509z" fill="url(#as)"/></g><g clip-path="url(#at)"><path d="m25.811 196c-1 0-1.811-.676-1.811-1.509v-.982c0-.833.811-1.509 1.811-1.509h8.378c1 0 1.811.676 1.811 1.509v.982c0 .833-.811 1.509-1.811 1.509z" fill="url(#au)"/></g><g clip-path="url(#av)"><path d="m25.811 188c-1 0-1.811-.676-1.811-1.509v-.982c0-.834.811-1.509 1.811-1.509h8.378c1 0 1.811.675 1.811 1.509v.982c0 .833-.811 1.509-1.811 1.509z" fill="url(#aw)"/></g><g clip-path="url(#ax)"><path d="m0 0h137.524c3.997 0 7.238-3.098 7.238-6.919v-114.162c0-3.821-3.241-6.919-7.238-6.919h-137.524c-3.997 0-7.238 3.098-7.238 6.919v114.162c0 3.821 3.241 6.919 7.238 6.919" fill="#999" transform="translate(59.2381 164)"/><path d="m192 36h-128v128h128z" fill="#fff"/></g><g clip-path="url(#ay)"><path d="m52 176h152v12h-152z" fill="url(#az)"/></g><g clip-path="url(#aA)" fill="#999"><path d="m0 0c-5.9 8.29-5.442 26.325 0 52 2.089 0 3.745-1.646 3.745-3.714v-44.572c0-2.107-1.566-3.714-3.745-3.714" transform="translate(204.255 176)"/><path d="m0 0c5.9 8.29 5.442 26.325 0 52-2.089 0-3.745-1.646-3.745-3.714v-44.572c0-2.107 1.566-3.714 3.745-3.714" transform="translate(52.9063 176)"/></g></g></svg>