<svg height="218.66666" viewBox="0 0 309.33331 218.66665" width="309.33331" xmlns="http://www.w3.org/2000/svg" xmlns:xlink="http://www.w3.org/1999/xlink"><clipPath id="a"><path d="m160.888 159.003h-65.777c-7.059 10.254-19.023 16.997-32.595 16.997-15.36 0-28.652-8.641-35.113-21.228h-11.333l-4.07-83.079c0-15.295 12.755-27.693 28.491-27.693 13.262 0 24.382 8.816 27.554 20.743.519 1.949 16.943 41.184 16.943 41.184 1.785 1.223 3.463 2.584 5.015 4.073h75.994c1.551-1.489 3.229-2.85 5.014-4.073s16.425-39.235 16.942-41.184c3.174-11.927 14.293-20.743 27.556-20.743 15.734 0 28.491 12.398 28.491 27.693l-4.071 83.079h-11.333c-6.462 12.587-19.753 21.228-35.112 21.228-13.572 0-25.537-6.743-32.596-16.997"/></clipPath><linearGradient id="b"><stop offset="0" stop-color="#e6e7e8"/><stop offset="1" stop-color="#d1d3d4"/></linearGradient><linearGradient id="c" gradientTransform="matrix(-161.12491 161.12491 161.12491 161.12491 208.56213 25.014408)" gradientUnits="userSpaceOnUse" spreadMethod="pad" x1="0" x2="1" xlink:href="#b" y1="0" y2="0"/><clipPath id="d"><path d="m84 126h88v66h-88z"/></clipPath><linearGradient id="e" gradientTransform="matrix(-77 77 77 77 166.5 120.5)" gradientUnits="userSpaceOnUse" spreadMethod="pad" x1="0" x2="1" xlink:href="#b" y1="0" y2="0"/><clipPath id="f"><path d="m40.118 204.169-3.666-16.169h44l-3.667 16.169c-6.1 2.64-12.077 3.831-17.957 3.831-6.341 0-12.568-1.385-18.71-3.831"/></clipPath><linearGradient id="g" gradientTransform="matrix(-28.251076 28.251076 28.251076 28.251076 72.577148 180.12553)" gradientUnits="userSpaceOnUse" spreadMethod="pad" x1="0" x2="1" xlink:href="#b" y1="0" y2="0"/><clipPath id="h"><path d="m177.666 204.169-3.666-16.169h44l-3.667 16.169c-6.1 2.64-12.077 3.831-17.957 3.831-6.34 0-12.568-1.385-18.71-3.831"/></clipPath><linearGradient id="i" gradientTransform="matrix(-28.251076 28.251076 28.251076 28.251076 210.12553 180.12553)" gradientUnits="userSpaceOnUse" spreadMethod="pad" x1="0" x2="1" xlink:href="#b" y1="0" y2="0"/><clipPath id="j"><path d="m16 156c0-24.3 19.699-44 44-44 24.3 0 44 19.7 44 44 0 24.301-19.7 44-44 44-24.301 0-44-19.699-44-44"/></clipPath><linearGradient id="k" gradientTransform="matrix(62.225395 -62.225395 -62.225395 -62.225395 28.8873 187.1127)" gradientUnits="userSpaceOnUse" spreadMethod="pad" x1="0" x2="1" xlink:href="#b" y1="0" y2="0"/><clipPath id="l"><path d="m152 156c0-24.3 19.699-44 44-44 24.3 0 44 19.7 44 44 0 24.301-19.7 44-44 44-24.301 0-44-19.699-44-44"/></clipPath><linearGradient id="m" gradientTransform="matrix(62.225395 -62.225395 -62.225395 -62.225395 164.8873 187.1127)" gradientUnits="userSpaceOnUse" spreadMethod="pad" x1="0" x2="1" xlink:href="#b" y1="0" y2="0"/><clipPath id="n"><path d="m0 256h256v-256h-256z"/></clipPath><clipPath id="o"><path d="m184.366 190c-.598 0-1.082-.484-1.082-1.082v-20.202h-20.202c-.598 0-1.082-.484-1.082-1.082v-23.268c0-.597.484-1.082 1.082-1.082h20.202v-20.202c0-.597.484-1.082 1.082-1.082h23.268c.598 0 1.082.485 1.082 1.082v20.202h20.202c.597 0 1.082.485 1.082 1.082v23.268c0 .598-.485 1.082-1.082 1.082h-20.202v20.202c0 .598-.484 1.082-1.082 1.082zm-21.366-45.536v23.073c0 .197.16.357.358.357h20.032.716v.716 20.033c0 .197.16.357.357.357h23.073c.197 0 .359-.16.359-.357v-20.033-.716h.715 20.032c.197 0 .358-.16.358-.357v-23.073c0-.198-.161-.359-.358-.359h-20.032-.715v-.714-20.033c0-.197-.162-.358-.359-.358h-23.073c-.197 0-.357.161-.357.358v20.033.714h-.716-20.032c-.198 0-.358.161-.358.359"/></clipPath><linearGradient id="p" gradientTransform="matrix(-46.08223 46.08223 46.08223 46.08223 219.04111 132.95889)" gradientUnits="userSpaceOnUse" spreadMethod="pad" x1="0" x2="1" xlink:href="#b" y1="0" y2="0"/><clipPath id="q"><path d="m48.366 190c-.598 0-1.082-.484-1.082-1.082v-20.202h-20.202c-.598 0-1.082-.484-1.082-1.082v-23.268c0-.597.484-1.082 1.082-1.082h20.202v-20.202c0-.597.484-1.082 1.082-1.082h23.268c.597 0 1.082.485 1.082 1.082v20.202h20.202c.597 0 1.082.485 1.082 1.082v23.268c0 .598-.485 1.082-1.082 1.082h-20.202v20.202c0 .598-.485 1.082-1.082 1.082zm-21.366-45.536v23.073c0 .197.16.357.357.357h20.033.716v.716 20.033c0 .197.16.357.357.357h23.073c.198 0 .359-.16.359-.357v-20.033-.716h.715 20.032c.198 0 .358-.16.358-.357v-23.073c0-.198-.16-.359-.358-.359h-20.032-.715v-.714-20.033c0-.197-.161-.358-.359-.358h-23.073c-.197 0-.357.161-.357.358v20.033.714h-.716-20.033c-.197 0-.357.161-.357.359"/></clipPath><linearGradient id="r" gradientTransform="matrix(-46.08223 46.08223 46.08223 46.08223 83.041115 132.95889)" gradientUnits="userSpaceOnUse" spreadMethod="pad" x1="0" x2="1" xlink:href="#b" y1="0" y2="0"/><clipPath id="s"><path d="m0 256h256v-256h-256z"/></clipPath><clipPath id="t"><path d="m88 152 4 4-4 4z"/></clipPath><linearGradient id="u" gradientTransform="matrix(-3.9999998 3.9999998 3.9999998 3.9999998 90 154)" gradientUnits="userSpaceOnUse" spreadMethod="pad" x1="0" x2="1" xlink:href="#b" y1="0" y2="0"/><clipPath id="v"><path d="m28 156 4-4v8z"/></clipPath><linearGradient id="w" gradientTransform="matrix(-3.9999998 3.9999998 3.9999998 3.9999998 34 154)" gradientUnits="userSpaceOnUse" spreadMethod="pad" x1="0" x2="1" xlink:href="#b" y1="0" y2="0"/><clipPath id="x"><path d="m56 128 4-4 4 4z"/></clipPath><linearGradient id="y" gradientTransform="matrix(-3.9999998 3.9999998 3.9999998 3.9999998 62 126)" gradientUnits="userSpaceOnUse" spreadMethod="pad" x1="0" x2="1" xlink:href="#b" y1="0" y2="0"/><clipPath id="z"><path d="m56 184h8l-4 4z"/></clipPath><linearGradient id="A" gradientTransform="matrix(-3.9999998 3.9999998 3.9999998 3.9999998 62 182)" gradientUnits="userSpaceOnUse" spreadMethod="pad" x1="0" x2="1" xlink:href="#b" y1="0" y2="0"/><clipPath id="B"><path d="m0 256h256v-256h-256z"/></clipPath><clipPath id="C"><path d="m36 164h20v-16h-20z"/></clipPath><g transform="matrix(1.3333333 0 0 -1.3333333 -16 277.33333)"><g clip-path="url(#a)"><path d="m160.888 159.003h-65.777c-7.059 10.254-19.023 16.997-32.595 16.997-15.36 0-28.652-8.641-35.113-21.228h-11.333l-4.07-83.079c0-15.295 12.755-27.693 28.491-27.693 13.262 0 24.382 8.816 27.554 20.743.519 1.949 16.943 41.184 16.943 41.184 1.785 1.223 3.463 2.584 5.015 4.073h75.994c1.551-1.489 3.229-2.85 5.014-4.073s16.425-39.235 16.942-41.184c3.174-11.927 14.293-20.743 27.556-20.743 15.734 0 28.491 12.398 28.491 27.693l-4.071 83.079h-11.333c-6.462 12.587-19.753 21.228-35.112 21.228-13.572 0-25.537-6.743-32.596-16.997" fill="url(#c)"/></g><g clip-path="url(#d)"><path d="m84 126h88v66h-88z" fill="url(#e)"/></g><g clip-path="url(#f)"><path d="m40.118 204.169-3.666-16.169h44l-3.667 16.169c-6.1 2.64-12.077 3.831-17.957 3.831-6.341 0-12.568-1.385-18.71-3.831" fill="url(#g)"/></g><g clip-path="url(#h)"><path d="m177.666 204.169-3.666-16.169h44l-3.667 16.169c-6.1 2.64-12.077 3.831-17.957 3.831-6.34 0-12.568-1.385-18.71-3.831" fill="url(#i)"/></g><g clip-path="url(#j)"><path d="m16 156c0-24.3 19.699-44 44-44 24.3 0 44 19.7 44 44 0 24.301-19.7 44-44 44-24.301 0-44-19.699-44-44" fill="url(#k)"/></g><g clip-path="url(#l)"><path d="m152 156c0-24.3 19.699-44 44-44 24.3 0 44 19.7 44 44 0 24.301-19.7 44-44 44-24.301 0-44-19.699-44-44" fill="url(#m)"/></g><g clip-path="url(#n)"><path d="m0 0h12c1.105 0 2-.895 2-2v-4c0-1.105-.895-2-2-2h-12c-1.105 0-2 .895-2 2v4c0 1.105.895 2 2 2" fill="#999" transform="translate(110 148)"/></g><g clip-path="url(#o)"><path d="m184.366 190c-.598 0-1.082-.484-1.082-1.082v-20.202h-20.202c-.598 0-1.082-.484-1.082-1.082v-23.268c0-.597.484-1.082 1.082-1.082h20.202v-20.202c0-.597.484-1.082 1.082-1.082h23.268c.598 0 1.082.485 1.082 1.082v20.202h20.202c.597 0 1.082.485 1.082 1.082v23.268c0 .598-.485 1.082-1.082 1.082h-20.202v20.202c0 .598-.484 1.082-1.082 1.082zm-21.366-45.536v23.073c0 .197.16.357.358.357h20.032.716v.716 20.033c0 .197.16.357.357.357h23.073c.197 0 .359-.16.359-.357v-20.033-.716h.715 20.032c.197 0 .358-.16.358-.357v-23.073c0-.198-.161-.359-.358-.359h-20.032-.715v-.714-20.033c0-.197-.162-.358-.359-.358h-23.073c-.197 0-.357.161-.357.358v20.033.714h-.716-20.032c-.198 0-.358.161-.358.359" fill="url(#p)"/></g><g clip-path="url(#q)"><path d="m48.366 190c-.598 0-1.082-.484-1.082-1.082v-20.202h-20.202c-.598 0-1.082-.484-1.082-1.082v-23.268c0-.597.484-1.082 1.082-1.082h20.202v-20.202c0-.597.484-1.082 1.082-1.082h23.268c.597 0 1.082.485 1.082 1.082v20.202h20.202c.597 0 1.082.485 1.082 1.082v23.268c0 .598-.485 1.082-1.082 1.082h-20.202v20.202c0 .598-.485 1.082-1.082 1.082zm-21.366-45.536v23.073c0 .197.16.357.357.357h20.033.716v.716 20.033c0 .197.16.357.357.357h23.073c.198 0 .359-.16.359-.357v-20.033-.716h.715 20.032c.198 0 .358-.16.358-.357v-23.073c0-.198-.16-.359-.358-.359h-20.032-.715v-.714-20.033c0-.197-.161-.358-.359-.358h-23.073c-.197 0-.357.161-.357.358v20.033.714h-.716-20.033c-.197 0-.357.161-.357.359" fill="url(#r)"/></g><g clip-path="url(#s)" fill="#999"><path d="m0 0c0-5.523-4.477-10-10-10s-10 4.477-10 10 4.477 10 10 10 10-4.477 10-10" transform="translate(206 178)"/><path d="m0 0c0-5.523-4.477-10-10-10s-10 4.477-10 10 4.477 10 10 10 10-4.477 10-10" transform="translate(206 134)"/><path d="m0 0c0-5.523-4.477-10-10-10s-10 4.477-10 10 4.477 10 10 10 10-4.477 10-10" transform="translate(228 156)"/><path d="m0 0c0-5.523-4.477-10-10-10s-10 4.477-10 10 4.477 10 10 10 10-4.477 10-10" transform="translate(184 156)"/></g><g clip-path="url(#t)"><path d="m88 152 4 4-4 4z" fill="url(#u)"/></g><g clip-path="url(#v)"><path d="m28 156 4-4v8z" fill="url(#w)"/></g><g clip-path="url(#x)"><path d="m56 128 4-4 4 4z" fill="url(#y)"/></g><g clip-path="url(#z)"><path d="m56 184h8l-4 4z" fill="url(#A)"/></g><g clip-path="url(#B)"><g clip-path="url(#C)"><path d="m0 0v-13.515c0-.686.615-1.242 1.373-1.242h8.959c1.133 0 2.241.309 3.162.906 2.308 1.493 6.506 4.559 6.506 7.094 0 2.421-3.378 5.327-5.454 6.884-.974.731-2.204 1.116-3.469 1.116h-9.704c-.758 0-1.373-.557-1.373-1.243" fill="#999" transform="translate(36 162.7573)"/></g><g fill="#999"><path d="m0 0v13.515c0 .686-.615 1.242-1.373 1.242h-8.959c-1.133 0-2.241-.309-3.162-.906-2.308-1.493-6.506-4.559-6.506-7.094 0-2.421 3.378-5.327 5.454-6.884.974-.731 2.204-1.116 3.469-1.116h9.704c.758 0 1.373.557 1.373 1.243" transform="translate(84 149.2427)"/><path d="m0 0h-13.515c-.686 0-1.242-.615-1.242-1.373v-8.959c0-1.133.309-2.241.906-3.162 1.493-2.308 4.559-6.506 7.094-6.506 2.421 0 5.327 3.378 6.884 5.454.731.974 1.116 2.204 1.116 3.469v9.704c0 .758-.557 1.373-1.243 1.373" transform="translate(66.7573 180)"/><path d="m0 0h13.515c.686 0 1.242.615 1.242 1.373v8.959c0 1.133-.309 2.241-.906 3.162-1.493 2.308-4.559 6.506-7.094 6.506-2.421 0-5.327-3.378-6.884-5.454-.731-.974-1.116-2.204-1.116-3.469v-9.704c0-.758.557-1.373 1.243-1.373" transform="translate(53.2427 132)"/><path d="m0 0 13.515-2.924c1.255-.272 1.255-1.815 0-2.087l-13.515-2.924c-.784-.169-1.544.344-1.544 1.044v5.848c0 .699.76 1.213 1.544 1.043" transform="translate(131.9823 147.9674)"/></g></g></g></svg>