<?xml version="1.0" encoding="UTF-8" standalone="no"?>
<svg
   xmlns:dc="http://purl.org/dc/elements/1.1/"
   xmlns:cc="http://creativecommons.org/ns#"
   xmlns:rdf="http://www.w3.org/1999/02/22-rdf-syntax-ns#"
   xmlns:svg="http://www.w3.org/2000/svg"
   xmlns="http://www.w3.org/2000/svg"
   xmlns:sodipodi="http://sodipodi.sourceforge.net/DTD/sodipodi-0.dtd"
   xmlns:inkscape="http://www.inkscape.org/namespaces/inkscape"
   viewBox="0 0 255.99999 255.99999"
   height="256"
   width="256"
   xml:space="preserve"
   id="svg2"
   version="1.1"
   sodipodi:docname="TIC-80-content.svg"
   inkscape:version="0.92.4 (5da689c313, 2019-01-14)"
   inkscape:export-filename="/Users/margetts/Documents/GitHub/Working/neoactive/src/svg/TIC-80-content.png"
   inkscape:export-xdpi="96"
   inkscape:export-ydpi="96"><sodipodi:namedview
     pagecolor="#ffffff"
     bordercolor="#666666"
     borderopacity="1"
     objecttolerance="10"
     gridtolerance="10"
     guidetolerance="10"
     inkscape:pageopacity="0"
     inkscape:pageshadow="2"
     inkscape:window-width="640"
     inkscape:window-height="480"
     id="namedview3894"
     showgrid="false"
     inkscape:zoom="3.6732956"
     inkscape:cx="104.55065"
     inkscape:cy="95.55452"
     inkscape:current-layer="svg2" /><metadata
     id="metadata8"><rdf:RDF><cc:Work
         rdf:about=""><dc:format>image/svg+xml</dc:format><dc:type
           rdf:resource="http://purl.org/dc/dcmitype/StillImage" /><dc:title></dc:title></cc:Work></rdf:RDF></metadata><defs
     id="defs6"><clipPath
       id="clipPath18"
       clipPathUnits="userSpaceOnUse"><path
         id="path16"
         d="M 208,216 H 64 48 V 72 H 64 V 56 40 h 144 v 16 16 h 16 v 124 4 16 z"
         inkscape:connector-curvature="0" /></clipPath><linearGradient
       id="linearGradient28"
       spreadMethod="pad"
       gradientTransform="matrix(168,-168,-168,-168,52,220)"
       gradientUnits="userSpaceOnUse"
       y2="0"
       x2="1"
       y1="0"
       x1="0"><stop
         id="stop24"
         offset="0"
         style="stop-opacity:1;stop-color:#e6e7e8" /><stop
         id="stop26"
         offset="1"
         style="stop-opacity:1;stop-color:#d1d3d4" /></linearGradient></defs><g
     transform="matrix(1,0,0,-1,0,256)"
     id="g10"><g
       id="g12"><g
         clip-path="url(#clipPath18)"
         id="g14"><g
           id="g20"><g
             id="g22"><path
               id="path30"
               style="fill:url(#linearGradient28);stroke:none"
               d="M 208,216 H 64 48 V 72 H 64 V 56 40 h 144 v 16 16 h 16 v 124 4 16 z"
               inkscape:connector-curvature="0" /></g></g></g></g><path
       id="path32"
       style="fill:#ffffff;fill-opacity:1;fill-rule:nonzero;stroke:none"
       d="M 208,120 H 64 v 80 h 144 z"
       inkscape:connector-curvature="0" /><path
       id="path34"
       style="fill:#999999;fill-opacity:1;fill-rule:nonzero;stroke:none"
       d="M 48,140 H 32 v -16 h 16 z m -16,0 H 16 v 48 h 16 z"
       inkscape:connector-curvature="0" /><path
       id="path36"
       style="fill:#999999;fill-opacity:1;fill-rule:nonzero;stroke:none"
       d="m 240,72 h -16 v 128 h 16 z"
       inkscape:connector-curvature="0" /><path
       id="path38"
       style="fill:#999999;fill-opacity:1;fill-rule:nonzero;stroke:none"
       d="m 224,56 h -16 v 16 h 16 z"
       inkscape:connector-curvature="0" /><g
       transform="translate(112,184)"
       id="g40"><path
         id="path42"
         style="fill:#999999;fill-opacity:1;fill-rule:nonzero;stroke:none"
         d="M 0,0 V -16 H -16 V 0 h -16 v -32 h 16 V -48 H 0 v 16 H 16 V 0 Z"
         inkscape:connector-curvature="0" /></g><g
       transform="translate(176,184)"
       id="g44"><path
         id="path46"
         style="fill:#999999;fill-opacity:1;fill-rule:nonzero;stroke:none"
         d="M 0,0 V -16 H -16 V 0 h -16 v -32 h 16 V -48 H 0 v 16 H 16 V 0 Z"
         inkscape:connector-curvature="0" /></g><g
       transform="translate(176,104)"
       id="g48"><path
         id="path50"
         style="fill:#ffffff;fill-opacity:1;fill-rule:nonzero;stroke:none"
         d="m 0,0 h -80 v -16 h 16 v -16 h 48 v 16 H 0 Z"
         inkscape:connector-curvature="0" /></g></g></svg>