<?xml version="1.0" encoding="UTF-8" standalone="no"?>
<svg
   xmlns:dc="http://purl.org/dc/elements/1.1/"
   xmlns:cc="http://creativecommons.org/ns#"
   xmlns:rdf="http://www.w3.org/1999/02/22-rdf-syntax-ns#"
   xmlns:svg="http://www.w3.org/2000/svg"
   xmlns="http://www.w3.org/2000/svg"
   viewBox="0 0 320 320"
   height="320"
   width="320"
   xml:space="preserve"
   version="1.1"
   id="svg2"><metadata
     id="metadata8"><rdf:RDF><cc:Work
         rdf:about=""><dc:format>image/svg+xml</dc:format><dc:type
           rdf:resource="http://purl.org/dc/dcmitype/StillImage" /></cc:Work></rdf:RDF></metadata><defs
     id="defs6"><clipPath
       id="clipPath16"
       clipPathUnits="userSpaceOnUse"><path
         id="path18"
         d="M 0,256 256,256 256,0 0,0 0,256 Z" /></clipPath><clipPath
       id="clipPath24"
       clipPathUnits="userSpaceOnUse"><path
         id="path26"
         d="M 16,252 240,252 240,4 16,4 16,252 Z" /></clipPath></defs><g
     transform="matrix(1.25,0,0,-1.25,0,320)"
     id="g10"><g
       id="g12"><g
         clip-path="url(#clipPath16)"
         id="g14"><g
           id="g20"><g
             id="g22" /><g
             id="g28"><g
               style="opacity:0.5"
               id="g30"
               clip-path="url(#clipPath24)"><g
                 id="g32"
                 transform="translate(226.8,252)"><path
                   id="path34"
                   style="fill:#ffffff;fill-opacity:1;fill-rule:nonzero;stroke:none"
                   d="m 0,0 -197.6,0 c -7.279,0 -13.2,-5.851 -13.2,-13.044 l 0,-221.913 c 0,-7.192 5.921,-13.043 13.2,-13.043 L 0,-248 c 7.279,0 13.2,5.851 13.2,13.043 l 0,221.913 C 13.2,-5.851 7.279,0 0,0" /></g></g></g></g><g
           transform="translate(226.8,244)"
           id="g36"><path
             id="path38"
             style="fill:#191919;fill-opacity:1;fill-rule:nonzero;stroke:none"
             d="m 0,0 -197.6,0 c -2.876,0 -5.2,-2.254 -5.2,-5.043 l 0,-221.914 c 0,-2.789 2.324,-5.043 5.2,-5.043 L 0,-232 c 2.876,0 5.2,2.254 5.2,5.043 l 0,221.914 C 5.2,-2.254 2.876,0 0,0" /></g><g
           transform="translate(212.4083,224)"
           id="g40"><path
             id="path42"
             style="fill:#0d0d0d;fill-opacity:1;fill-rule:nonzero;stroke:none"
             d="m 0,0 -168.817,0 c -4.186,0 -7.591,-3.37 -7.591,-7.513 l 0,-188.974 c 0,-4.143 3.405,-7.513 7.591,-7.513 L 0,-204 c 4.186,0 7.592,3.37 7.592,7.513 l 0,188.974 C 7.592,-3.37 4.186,0 0,0" /></g><g
           transform="translate(218.0355,27.5133)"
           id="g44"><path
             id="path46"
             style="fill:#191919;fill-opacity:1;fill-rule:nonzero;stroke:none"
             d="m 0,0 c 0,-3.074 -2.515,-5.558 -5.627,-5.558 l -168.817,0 c -3.112,0 -5.627,2.484 -5.627,5.558 l 0,188.973 c 0,3.074 2.515,5.558 5.627,5.558 l 168.817,0 c 3.112,0 5.627,-2.484 5.627,-5.558 L 0,0 Z" /></g><g
           transform="translate(64.9999,172)"
           id="g48"><path
             id="path50"
             style="fill:#f39b11;fill-opacity:1;fill-rule:nonzero;stroke:none"
             d="m 0,0 126,0 c 4.971,0 9,-3.582 9,-8 l 0,-112 c 0,-4.418 -4.029,-8 -9,-8 l -126,0 c -4.971,0 -9,3.582 -9,8 l 0,112 c 0,4.418 4.029,8 9,8" /></g><g
           transform="translate(126.2581,164)"
           id="g52"><path
             id="path54"
             style="fill:#ffffff;fill-opacity:1;fill-rule:nonzero;stroke:none"
             d="m 0,0 c 0.361,-10.366 0.466,-20.732 -0.032,-31.096 -0.481,-10.002 -1.358,-19.96 -3.665,-29.747 -2.344,-9.946 -6.992,-18.785 -13.331,-26.799 -5.615,-7.098 -12.271,-13.059 -20.23,-17.54 -7.339,-4.131 -15.184,-6.61 -23.696,-6.814 -0.382,-0.009 -0.764,-0.001 -1.23,-0.001 -0.023,0.325 -0.058,0.605 -0.058,0.885 -0.004,4.833 0.009,9.666 -0.016,14.499 -0.004,0.683 0.141,0.946 0.911,0.998 2.672,0.183 5.161,1.094 7.578,2.151 9.427,4.122 17.508,10.119 24.634,17.391 4.541,4.633 8.611,9.622 11.372,15.528 2.37,5.071 3.914,10.4 5.093,15.84 1.609,7.422 2.658,14.927 3.028,22.5 0.36,7.396 0.483,14.803 0.71,22.205 L 0,0 Z" /></g><g
           transform="translate(129.7417,164)"
           id="g56"><path
             id="path58"
             style="fill:#ffffff;fill-opacity:1;fill-rule:nonzero;stroke:none"
             d="m 0,0 c -0.361,-10.366 -0.466,-20.732 0.032,-31.096 0.481,-10.002 1.358,-19.96 3.665,-29.747 2.344,-9.946 6.992,-18.785 13.331,-26.799 5.615,-7.098 12.271,-13.059 20.23,-17.54 7.339,-4.131 15.184,-6.61 23.696,-6.814 0.382,-0.009 0.764,-0.001 1.23,-0.001 0.023,0.325 0.058,0.605 0.058,0.885 0.004,4.833 -0.009,9.666 0.016,14.499 0.004,0.683 -0.141,0.946 -0.911,0.998 -2.672,0.183 -5.161,1.094 -7.578,2.151 -9.427,4.122 -17.508,10.119 -24.634,17.391 -4.541,4.633 -8.611,9.622 -11.372,15.528 -2.37,5.071 -3.914,10.4 -5.093,15.84 -1.609,7.422 -2.658,14.927 -3.028,22.5 C 9.282,-14.809 9.159,-7.402 8.932,0 L 0,0 Z" /></g><g
           transform="translate(97.0529,212.7159)"
           id="g60"><path
             id="path62"
             style="fill:#ffffff;fill-opacity:1;fill-rule:nonzero;stroke:none"
             d="m 0,0 0,-1.85 c -0.282,-0.108 -0.55,-0.161 -0.806,-0.161 -0.628,0 -1.159,0.245 -1.594,0.738 -0.435,0.493 -0.653,1.095 -0.653,1.808 0,0.771 0.261,1.42 0.784,1.95 0.524,0.529 1.168,0.794 1.931,0.794 0.405,0 0.794,-0.087 1.165,-0.254 C 1.198,2.855 1.49,2.627 1.702,2.343 2.054,1.872 2.231,1.189 2.231,0.292 l 0,-1.771 c 0,-0.958 -0.26,-1.738 -0.786,-2.34 -0.527,-0.599 -1.211,-0.897 -2.055,-0.897 -0.255,0 -0.579,0.067 -0.972,0.201 l 0,1.833 c 0.253,-0.143 0.511,-0.215 0.771,-0.215 0.349,0 0.62,0.12 0.811,0.359 0.191,0.24 0.287,0.583 0.287,1.028 l 0,2.023 c 0,0.565 -0.22,0.849 -0.66,0.849 -0.188,0 -0.352,-0.075 -0.494,-0.226 -0.14,-0.147 -0.21,-0.32 -0.21,-0.515 0,-0.203 0.067,-0.376 0.202,-0.512 0.131,-0.137 0.298,-0.204 0.496,-0.204 0.132,0 0.258,0.031 0.379,0.095" /></g><g
           transform="translate(103.3119,212.5181)"
           id="g64"><path
             id="path66"
             style="fill:#ffffff;fill-opacity:1;fill-rule:nonzero;stroke:none"
             d="m 0,0 0,-2.089 c -0.161,-0.031 -0.306,-0.045 -0.438,-0.045 -0.781,0 -1.431,0.268 -1.952,0.8 -0.518,0.532 -0.778,1.2 -0.778,2.003 0,0.779 0.26,1.442 0.786,1.986 0.527,0.543 1.166,0.816 1.917,0.816 0.841,0 1.501,-0.257 1.987,-0.766 C 2.006,2.198 2.247,1.501 2.247,0.621 l 0,-2.641 -1.946,0 0,2.494 c 0,0.284 -0.067,0.512 -0.199,0.679 -0.134,0.17 -0.314,0.254 -0.54,0.254 -0.204,0 -0.381,-0.076 -0.531,-0.232 -0.148,-0.153 -0.223,-0.337 -0.223,-0.551 0,-0.223 0.067,-0.407 0.204,-0.549 0.134,-0.145 0.306,-0.217 0.513,-0.217 0.172,0 0.327,0.047 0.475,0.142" /></g><g
           transform="translate(113.8106,210.4986)"
           id="g68"><path
             id="path70"
             style="fill:#ffffff;fill-opacity:1;fill-rule:nonzero;stroke:none"
             d="m 0,0 -1.947,0 0,2.905 c 0,0.223 -0.021,0.376 -0.067,0.463 -0.045,0.086 -0.126,0.131 -0.244,0.131 -0.218,0 -0.328,-0.201 -0.328,-0.599 l 0,-2.9 -1.946,0 0,2.905 c 0,0.223 -0.022,0.376 -0.07,0.463 -0.046,0.086 -0.129,0.131 -0.247,0.131 -0.215,0 -0.322,-0.201 -0.322,-0.599 l 0,-2.9 -1.947,0 0,3.315 c 0,0.604 0.196,1.117 0.588,1.54 0.392,0.424 0.867,0.635 1.426,0.635 0.577,0 1.092,-0.253 1.552,-0.757 0.507,0.504 1.017,0.757 1.527,0.757 0.65,0 1.171,-0.245 1.563,-0.735 C -0.153,4.373 0,3.819 0,3.086 L 0,0 Z" /></g><g
           transform="translate(120.0507,212.8635)"
           id="g72"><path
             id="path74"
             style="fill:#ffffff;fill-opacity:1;fill-rule:nonzero;stroke:none"
             d="m 0,0 -2.951,0 c -0.043,0.153 -0.067,0.295 -0.067,0.426 0,0.178 0.032,0.357 0.094,0.529 l 0.988,0 c -0.067,0.399 -0.285,0.599 -0.65,0.599 -0.241,0 -0.44,-0.108 -0.593,-0.32 -0.153,-0.214 -0.228,-0.49 -0.228,-0.825 0,-0.348 0.072,-0.632 0.22,-0.846 0.147,-0.218 0.341,-0.323 0.58,-0.323 0.196,0 0.381,0.1 0.564,0.3 l 1.106,-1.381 c -0.516,-0.421 -1.09,-0.633 -1.721,-0.633 -0.771,0 -1.418,0.268 -1.942,0.805 -0.523,0.535 -0.784,1.201 -0.784,1.992 0,0.788 0.264,1.454 0.792,1.997 0.529,0.544 1.179,0.816 1.95,0.816 0.752,0 1.385,-0.267 1.896,-0.796 C -0.234,1.808 0.021,1.153 0.021,0.376 0.021,0.298 0.013,0.173 0,0" /></g><g
           transform="translate(125.3511,208.507)"
           id="g76"><path
             id="path78"
             style="fill:#ffffff;fill-opacity:1;fill-rule:nonzero;stroke:none"
             d="m 0,0 -1.944,0 0,4.49 c 0,0.825 0.207,1.496 0.623,2.014 0.239,0.298 0.545,0.535 0.913,0.713 0.37,0.176 0.749,0.265 1.138,0.265 0.774,0 1.426,-0.27 1.955,-0.811 C 3.217,6.131 3.483,5.471 3.483,4.685 3.483,3.922 3.217,3.265 2.69,2.71 2.164,2.156 1.539,1.877 0.819,1.877 0.701,1.877 0.526,1.891 0.298,1.916 l 0,2.223 c 0.158,-0.133 0.32,-0.197 0.478,-0.197 0.201,0 0.373,0.075 0.518,0.231 0.143,0.153 0.215,0.337 0.215,0.548 0,0.215 -0.075,0.396 -0.223,0.544 C 1.136,5.415 0.959,5.49 0.749,5.49 0.25,5.49 0,5.131 0,4.415 L 0,0 Z" /></g><g
           transform="translate(132.531,215.9332)"
           id="g80"><path
             id="path82"
             style="fill:#ffffff;fill-opacity:1;fill-rule:nonzero;stroke:none"
             d="m 0,0 0,-2.159 c -0.134,0.081 -0.258,0.12 -0.368,0.12 -0.354,0 -0.532,-0.281 -0.532,-0.841 l 0,-2.555 -1.946,0 0,2.942 c 0,0.777 0.204,1.398 0.615,1.861 0.408,0.462 0.956,0.693 1.638,0.693 C -0.44,0.061 -0.242,0.042 0,0" /></g><g
           transform="translate(135.5115,214.0028)"
           id="g84"><path
             id="path86"
             style="fill:#ffffff;fill-opacity:1;fill-rule:nonzero;stroke:none"
             d="m 0,0 c -0.207,0 -0.384,-0.081 -0.529,-0.237 -0.148,-0.156 -0.22,-0.348 -0.22,-0.574 0,-0.222 0.075,-0.415 0.223,-0.571 0.147,-0.158 0.322,-0.239 0.526,-0.239 0.209,0 0.387,0.081 0.534,0.239 0.148,0.156 0.221,0.349 0.221,0.571 0,0.226 -0.073,0.418 -0.218,0.574 C 0.392,-0.081 0.212,0 0,0 m 0.054,1.992 c 0.735,0 1.364,-0.276 1.89,-0.825 0.526,-0.549 0.789,-1.206 0.789,-1.972 0,-0.777 -0.265,-1.44 -0.8,-1.986 C 1.402,-3.34 0.76,-3.613 0.005,-3.613 c -0.751,0 -1.396,0.276 -1.93,0.825 -0.535,0.548 -0.8,1.209 -0.8,1.983 0,0.788 0.265,1.451 0.8,1.989 0.534,0.537 1.195,0.808 1.979,0.808" /></g><g
           transform="translate(141.8241,212.7159)"
           id="g88"><path
             id="path90"
             style="fill:#ffffff;fill-opacity:1;fill-rule:nonzero;stroke:none"
             d="m 0,0 0,-1.85 c -0.282,-0.108 -0.55,-0.161 -0.806,-0.161 -0.628,0 -1.159,0.245 -1.594,0.738 -0.435,0.493 -0.653,1.095 -0.653,1.808 0,0.771 0.261,1.42 0.784,1.95 0.524,0.529 1.168,0.794 1.931,0.794 0.405,0 0.794,-0.087 1.165,-0.254 C 1.198,2.855 1.49,2.627 1.702,2.343 2.054,1.872 2.231,1.189 2.231,0.292 l 0,-1.771 c 0,-0.958 -0.26,-1.738 -0.786,-2.34 -0.527,-0.599 -1.211,-0.897 -2.055,-0.897 -0.255,0 -0.579,0.067 -0.972,0.201 l 0,1.833 c 0.253,-0.143 0.511,-0.215 0.771,-0.215 0.349,0 0.62,0.12 0.811,0.359 0.191,0.24 0.287,0.583 0.287,1.028 l 0,2.023 c 0,0.565 -0.22,0.849 -0.66,0.849 -0.188,0 -0.352,-0.075 -0.494,-0.226 -0.14,-0.147 -0.21,-0.32 -0.21,-0.515 0,-0.203 0.067,-0.376 0.202,-0.512 0.131,-0.137 0.298,-0.204 0.496,-0.204 0.132,0 0.258,0.031 0.379,0.095" /></g><g
           transform="translate(148.0455,215.9332)"
           id="g92"><path
             id="path94"
             style="fill:#ffffff;fill-opacity:1;fill-rule:nonzero;stroke:none"
             d="m 0,0 0,-2.159 c -0.134,0.081 -0.258,0.12 -0.368,0.12 -0.354,0 -0.532,-0.281 -0.532,-0.841 l 0,-2.555 -1.946,0 0,2.942 c 0,0.777 0.204,1.398 0.615,1.861 0.408,0.462 0.956,0.693 1.638,0.693 C -0.44,0.061 -0.242,0.042 0,0" /></g><g
           transform="translate(151.5039,212.5181)"
           id="g96"><path
             id="path98"
             style="fill:#ffffff;fill-opacity:1;fill-rule:nonzero;stroke:none"
             d="m 0,0 0,-2.089 c -0.161,-0.031 -0.306,-0.045 -0.438,-0.045 -0.781,0 -1.431,0.268 -1.952,0.8 -0.518,0.532 -0.778,1.2 -0.778,2.003 0,0.779 0.26,1.442 0.786,1.986 0.527,0.543 1.166,0.816 1.917,0.816 0.841,0 1.501,-0.257 1.987,-0.766 C 2.006,2.198 2.247,1.501 2.247,0.621 l 0,-2.641 -1.946,0 0,2.494 c 0,0.284 -0.067,0.512 -0.199,0.679 -0.134,0.17 -0.314,0.254 -0.54,0.254 -0.204,0 -0.381,-0.076 -0.531,-0.232 -0.148,-0.153 -0.223,-0.337 -0.223,-0.551 0,-0.223 0.067,-0.407 0.204,-0.549 0.134,-0.145 0.306,-0.217 0.513,-0.217 0.172,0 0.327,0.047 0.475,0.142" /></g><g
           transform="translate(161.9999,210.4986)"
           id="g100"><path
             id="path102"
             style="fill:#ffffff;fill-opacity:1;fill-rule:nonzero;stroke:none"
             d="m 0,0 -1.947,0 0,2.905 c 0,0.223 -0.021,0.376 -0.067,0.463 -0.045,0.086 -0.126,0.131 -0.244,0.131 -0.218,0 -0.328,-0.201 -0.328,-0.599 l 0,-2.9 -1.946,0 0,2.905 c 0,0.223 -0.022,0.376 -0.07,0.463 -0.046,0.086 -0.129,0.131 -0.247,0.131 -0.215,0 -0.322,-0.201 -0.322,-0.599 l 0,-2.9 -1.947,0 0,3.315 c 0,0.604 0.196,1.117 0.588,1.54 0.392,0.424 0.867,0.635 1.426,0.635 0.577,0 1.092,-0.253 1.552,-0.757 0.507,0.504 1.017,0.757 1.527,0.757 0.65,0 1.171,-0.245 1.563,-0.735 C -0.153,4.373 0,3.819 0,3.086 L 0,0 Z" /></g><g
           transform="translate(94.7825,182.4681)"
           id="g104"><path
             id="path106"
             style="fill:#f39b11;fill-opacity:1;fill-rule:nonzero;stroke:none"
             d="M 0,0 0,-1.96 C 0,-2.096 -0.048,-2.215 -0.144,-2.316 -0.239,-2.417 -0.352,-2.468 -0.48,-2.468 l -4.303,0 0,0.76 4.065,0 0,1.708 L 0,0 Z" /></g><path
           id="path108"
           style="fill:#f39b11;fill-opacity:1;fill-rule:nonzero;stroke:none"
           d="m 94.782,182.942 -4.783,0 0,0.76 4.783,0 0,-0.76 z" /><g
           transform="translate(93.4686,186.6742)"
           id="g110"><path
             id="path112"
             style="fill:#f39b11;fill-opacity:1;fill-rule:nonzero;stroke:none"
             d="m 0,0 c -0.156,0 -0.295,-0.064 -0.417,-0.193 -0.121,-0.128 -0.182,-0.275 -0.182,-0.441 l 0,-0.948 1.195,0 0,0.948 c 0,0.166 -0.061,0.313 -0.183,0.441 C 0.292,-0.064 0.154,0 0,0 m -2.155,-0.319 c -0.154,0 -0.292,-0.064 -0.413,-0.192 -0.124,-0.131 -0.186,-0.277 -0.186,-0.438 l 0,-0.633 1.437,0 c -0.124,0.842 -0.403,1.263 -0.838,1.263 M 0,0.76 c 0.346,0 0.652,-0.141 0.918,-0.423 0.264,-0.279 0.396,-0.603 0.396,-0.971 l 0,-1.2 C 1.314,-1.97 1.266,-2.089 1.17,-2.19 1.074,-2.291 0.962,-2.342 0.834,-2.342 l -3.826,0 c -0.126,0 -0.237,0.051 -0.333,0.152 -0.096,0.101 -0.144,0.22 -0.144,0.356 l 0,0.885 c 0,0.356 0.125,0.677 0.375,0.964 0.248,0.284 0.541,0.426 0.88,0.426 0.427,0 0.766,-0.188 1.016,-0.563 0.093,0.254 0.252,0.465 0.476,0.633 0.22,0.166 0.46,0.249 0.722,0.249" /></g><g
           transform="translate(94.7825,190.9433)"
           id="g114"><path
             id="path116"
             style="fill:#f39b11;fill-opacity:1;fill-rule:nonzero;stroke:none"
             d="m 0,0 0,-0.886 -1.549,-1.045 c -0.219,-0.148 -0.386,-0.222 -0.501,-0.222 -0.217,0 -0.379,0.072 -0.487,0.215 -0.007,0.01 -0.094,0.176 -0.262,0.5 -0.194,0.368 -0.417,0.552 -0.67,0.552 -0.151,0 -0.289,-0.065 -0.413,-0.196 -0.124,-0.131 -0.186,-0.277 -0.186,-0.437 l 0,-0.76 4.068,0 0,-0.76 -4.306,0 c -0.126,0 -0.237,0.051 -0.333,0.152 -0.096,0.101 -0.144,0.22 -0.144,0.356 l 0,1.012 c 0,0.355 0.125,0.677 0.375,0.963 0.248,0.284 0.541,0.426 0.88,0.426 0.336,0 0.64,-0.12 0.911,-0.359 0.271,-0.242 0.455,-0.535 0.553,-0.878 L 0,0 Z" /></g><g
           transform="translate(94.7825,193.882)"
           id="g118"><path
             id="path120"
             style="fill:#f39b11;fill-opacity:1;fill-rule:nonzero;stroke:none"
             d="M 0,0 0,-1.96 C 0,-2.096 -0.048,-2.215 -0.144,-2.316 -0.239,-2.417 -0.352,-2.468 -0.48,-2.468 l -3.826,0 c -0.126,0 -0.237,0.051 -0.333,0.152 -0.096,0.101 -0.144,0.22 -0.144,0.356 l 0,1.96 0.715,0 0,-1.708 1.318,0 0,1.074 0.718,0 0,-1.074 1.314,0 0,1.708 L 0,0 Z" /></g><g
           transform="translate(90.7147,197.043)"
           id="g122"><path
             id="path124"
             style="fill:#f39b11;fill-opacity:1;fill-rule:nonzero;stroke:none"
             d="m 0,0 0,-1.012 4.068,0 0,-0.759 -4.068,0 0,-1.012 -0.715,0 0,2.783 L 0,0 Z" /></g><g
           transform="translate(94.7825,200.4598)"
           id="g126"><path
             id="path128"
             style="fill:#f39b11;fill-opacity:1;fill-rule:nonzero;stroke:none"
             d="m 0,0 0,-0.886 -1.549,-1.045 c -0.219,-0.148 -0.386,-0.222 -0.501,-0.222 -0.217,0 -0.379,0.072 -0.487,0.215 -0.007,0.01 -0.094,0.176 -0.262,0.5 -0.194,0.368 -0.417,0.552 -0.67,0.552 -0.151,0 -0.289,-0.065 -0.413,-0.196 -0.124,-0.131 -0.186,-0.277 -0.186,-0.437 l 0,-0.76 4.068,0 0,-0.76 -4.306,0 c -0.126,0 -0.237,0.051 -0.333,0.152 -0.096,0.101 -0.144,0.22 -0.144,0.356 l 0,1.012 c 0,0.355 0.125,0.677 0.375,0.963 0.248,0.284 0.541,0.426 0.88,0.426 0.336,0 0.64,-0.12 0.911,-0.359 0.271,-0.242 0.455,-0.535 0.553,-0.878 L 0,0 Z" /></g><g
           transform="translate(93.4686,202.7982)"
           id="g130"><path
             id="path132"
             style="fill:#f39b11;fill-opacity:1;fill-rule:nonzero;stroke:none"
             d="m 0,0 -2.155,0 c -0.154,0 -0.292,-0.064 -0.413,-0.193 -0.124,-0.131 -0.186,-0.278 -0.186,-0.441 0,-0.163 0.062,-0.31 0.186,-0.441 0.121,-0.128 0.259,-0.192 0.413,-0.192 l 2.155,0 c 0.154,0 0.292,0.064 0.413,0.192 0.122,0.129 0.183,0.276 0.183,0.441 0,0.166 -0.061,0.313 -0.183,0.441 C 0.292,-0.064 0.154,0 0,0 M 0,0.76 C 0.346,0.76 0.652,0.619 0.918,0.337 1.182,0.058 1.314,-0.266 1.314,-0.634 1.314,-0.997 1.182,-1.32 0.918,-1.605 0.649,-1.884 0.343,-2.023 0,-2.023 l -2.155,0 c -0.345,0 -0.65,0.139 -0.914,0.418 -0.266,0.282 -0.4,0.606 -0.4,0.971 0,0.368 0.134,0.692 0.4,0.971 0.264,0.282 0.569,0.423 0.914,0.423 L 0,0.76 Z" /></g><g
           transform="translate(110.89,187.1546)"
           id="g134"><path
             id="path136"
             style="fill:#f39b11;fill-opacity:1;fill-rule:nonzero;stroke:none"
             d="m 0,0 0,-6.587 -13.908,0 6.907,13.709 0.237,0.467 c 0.189,0.367 0.283,0.728 0.283,1.084 0,0.9 -0.499,1.351 -1.498,1.351 -0.388,0 -0.727,-0.153 -1.017,-0.459 -0.289,-0.306 -0.433,-0.664 -0.433,-1.075 0,-0.467 0.189,-0.89 0.568,-1.268 l -2.76,-5.203 c -1.157,0.755 -2.045,1.717 -2.665,2.885 -0.621,1.167 -0.93,2.457 -0.93,3.869 0,2.191 0.731,4.067 2.192,5.629 1.46,1.562 3.227,2.343 5.297,2.343 2.082,0 3.851,-0.773 5.307,-2.318 1.456,-1.546 2.183,-3.425 2.183,-5.638 0,-1.267 -0.268,-2.446 -0.804,-3.535 L -3.595,0 0,0 Z" /></g><g
           transform="translate(118.1907,204)"
           id="g138"><path
             id="path140"
             style="fill:#f39b11;fill-opacity:1;fill-rule:nonzero;stroke:none"
             d="M 0,0 5.661,-2.118 1.466,-14.56 c -0.125,-0.356 -0.189,-0.673 -0.189,-0.95 0,-0.601 0.21,-1.119 0.631,-1.552 0.42,-0.434 0.92,-0.65 1.498,-0.65 0.578,0 1.07,0.219 1.474,0.659 0.405,0.439 0.607,0.969 0.607,1.592 0,0.623 -0.202,1.151 -0.607,1.585 -0.404,0.434 -0.896,0.65 -1.474,0.65 -0.137,0 -0.342,-0.022 -0.615,-0.066 l 2.571,6.537 c 2.228,-1.023 3.834,-2.198 4.816,-3.527 0.984,-1.329 1.475,-2.977 1.475,-4.945 0,-2.468 -0.797,-4.547 -2.389,-6.238 C 7.671,-23.155 5.719,-24 3.406,-24 c -2.187,0 -4.097,0.848 -5.732,2.543 -1.635,1.696 -2.452,3.678 -2.452,5.947 0,1.045 0.384,2.69 1.152,4.936 L 0,0 Z" /></g><g
           transform="translate(138.4378,195.7941)"
           id="g142"><path
             id="path144"
             style="fill:#f39b11;fill-opacity:1;fill-rule:nonzero;stroke:none"
             d="m 0,0 0,-7.672 c 0,-1.39 0.509,-2.085 1.529,-2.085 1.031,0 1.546,0.695 1.546,2.085 L 3.075,0 C 3.075,1.39 2.56,2.085 1.529,2.085 0.509,2.085 0,1.39 0,0 m -6.134,-6.337 0,5.003 c 0,2.913 0.686,5.214 2.058,6.905 1.372,1.69 3.24,2.535 5.605,2.535 2.365,0 4.237,-0.845 5.614,-2.535 C 8.52,3.88 9.209,1.579 9.209,-1.334 l 0,-5.003 c 0,-2.913 -0.689,-5.218 -2.066,-6.914 -1.377,-1.695 -3.249,-2.543 -5.614,-2.543 -2.365,0 -4.233,0.848 -5.605,2.543 -1.372,1.696 -2.058,4.001 -2.058,6.914" /></g><g
           transform="translate(156.7918,195.7941)"
           id="g146"><path
             id="path148"
             style="fill:#f39b11;fill-opacity:1;fill-rule:nonzero;stroke:none"
             d="m 0,0 0,-7.672 c 0,-1.39 0.509,-2.085 1.53,-2.085 1.029,0 1.544,0.695 1.544,2.085 L 3.074,0 C 3.074,1.39 2.559,2.085 1.53,2.085 0.509,2.085 0,1.39 0,0 m -6.134,-6.337 0,5.003 c 0,2.913 0.686,5.214 2.058,6.905 1.372,1.69 3.241,2.535 5.606,2.535 2.365,0 4.237,-0.845 5.614,-2.535 C 8.521,3.88 9.208,1.579 9.208,-1.334 l 0,-5.003 c 0,-2.913 -0.687,-5.218 -2.064,-6.914 -1.377,-1.695 -3.249,-2.543 -5.614,-2.543 -2.365,0 -4.234,0.848 -5.606,2.543 -1.372,1.696 -2.058,4.001 -2.058,6.914" /></g><g
           transform="translate(116.2892,35.8437)"
           id="g150"><path
             id="path152"
             style="fill:#ffffff;fill-opacity:1;fill-rule:nonzero;stroke:none"
             d="m 0,0 0,-2.172 c -0.177,0.056 -0.314,0.084 -0.411,0.084 -0.185,0 -0.344,-0.063 -0.477,-0.19 -0.133,-0.126 -0.199,-0.279 -0.199,-0.458 0,-0.152 0.072,-0.346 0.217,-0.58 l 0.187,-0.302 c 0.339,-0.543 0.508,-1.068 0.508,-1.574 0,-0.741 -0.285,-1.368 -0.855,-1.881 -0.57,-0.514 -1.266,-0.771 -2.087,-0.771 -0.395,0 -0.786,0.084 -1.172,0.252 l 0,2.205 c 0.233,-0.138 0.441,-0.207 0.622,-0.207 0.213,0 0.392,0.057 0.535,0.17 0.143,0.114 0.214,0.256 0.214,0.427 0,0.112 -0.115,0.356 -0.344,0.732 -0.367,0.595 -0.55,1.191 -0.55,1.786 0,0.719 0.277,1.337 0.831,1.857 0.553,0.519 1.215,0.778 1.984,0.778 C -0.658,0.156 -0.326,0.104 0,0" /></g><g
           transform="translate(121.1221,33.6218)"
           id="g154"><path
             id="path156"
             style="fill:#ffffff;fill-opacity:1;fill-rule:nonzero;stroke:none"
             d="m 0,0 0,-5.432 -2.453,0 0,5.432 -1.879,0 0,2.188 6.205,0 L 1.873,0 0,0 Z" /></g><g
           transform="translate(128.299,32.8458)"
           id="g158"><path
             id="path160"
             style="fill:#ffffff;fill-opacity:1;fill-rule:nonzero;stroke:none"
             d="m 0,0 0,-1.697 -1.601,0 c -0.217,0 -0.371,-0.03 -0.462,-0.089 -0.091,-0.06 -0.136,-0.161 -0.136,-0.302 0,-0.16 0.046,-0.265 0.139,-0.315 0.093,-0.051 0.282,-0.076 0.568,-0.076 l 1.649,0 0,-2.177 -1.927,0 c -0.906,0 -1.599,0.2 -2.078,0.6 -0.479,0.4 -0.719,0.978 -0.719,1.734 l 0,2.986 c 0,0.73 0.226,1.296 0.68,1.697 0.453,0.402 1.09,0.603 1.912,0.603 l 2.132,0 0,-2.188 -1.565,0 c -0.422,0 -0.634,-0.127 -0.634,-0.38 0,-0.149 0.05,-0.252 0.151,-0.309 C -1.79,0.029 -1.611,0 -1.353,0 L 0,0 Z" /></g><g
           transform="translate(129.6945,35.8102)"
           id="g162"><path
             id="path164"
             style="fill:#ffffff;fill-opacity:1;fill-rule:nonzero;stroke:none"
             d="m 0,0 2.453,0 0,-4.528 c 0,-0.353 0.061,-0.589 0.184,-0.706 C 2.76,-5.351 3.002,-5.41 3.365,-5.41 l 0.127,0 0,-2.21 -0.653,0 c -0.894,0 -1.59,0.241 -2.09,0.723 C 0.25,-6.415 0,-5.746 0,-4.89 L 0,0 Z" /></g><g
           transform="translate(133.8448,35.8102)"
           id="g166"><path
             id="path168"
             style="fill:#ffffff;fill-opacity:1;fill-rule:nonzero;stroke:none"
             d="m 0,0 2.453,0 0,-4.528 c 0,-0.353 0.061,-0.589 0.184,-0.706 C 2.76,-5.351 3.002,-5.41 3.365,-5.41 l 0.127,0 0,-2.21 -0.653,0 c -0.894,0 -1.59,0.241 -2.09,0.723 C 0.25,-6.415 0,-5.746 0,-4.89 L 0,0 Z" /></g><g
           transform="translate(141.1546,32.014)"
           id="g170"><path
             id="path172"
             style="fill:#ffffff;fill-opacity:1;fill-rule:nonzero;stroke:none"
             d="m 0,0 0,-2.01 -0.707,0 0,-1.814 -2.453,0 0,4.846 c 0,0.938 0.277,1.666 0.831,2.185 0.554,0.519 1.332,0.779 2.335,0.779 0.967,0 1.681,-0.235 2.145,-0.706 C 2.614,2.809 2.845,2.082 2.845,1.1 l 0,-4.924 -2.452,0 0,4.773 c 0,0.298 -0.039,0.504 -0.115,0.62 -0.077,0.115 -0.214,0.173 -0.411,0.173 -0.383,0 -0.574,-0.264 -0.574,-0.793 L -0.707,0 0,0 Z" /></g></g></g></g></svg>