<?xml version="1.0" encoding="UTF-8" standalone="no"?>
<svg
   xmlns:dc="http://purl.org/dc/elements/1.1/"
   xmlns:cc="http://creativecommons.org/ns#"
   xmlns:rdf="http://www.w3.org/1999/02/22-rdf-syntax-ns#"
   xmlns:svg="http://www.w3.org/2000/svg"
   xmlns="http://www.w3.org/2000/svg"
   viewBox="0 0 320 320"
   height="320"
   width="320"
   xml:space="preserve"
   version="1.1"
   id="svg2"><metadata
     id="metadata8"><rdf:RDF><cc:Work
         rdf:about=""><dc:format>image/svg+xml</dc:format><dc:type
           rdf:resource="http://purl.org/dc/dcmitype/StillImage" /></cc:Work></rdf:RDF></metadata><defs
     id="defs6"><clipPath
       id="clipPath16"
       clipPathUnits="userSpaceOnUse"><path
         id="path18"
         d="M 0,256 256,256 256,0 0,0 0,256 Z" /></clipPath><clipPath
       id="clipPath24"
       clipPathUnits="userSpaceOnUse"><path
         id="path26"
         d="m 27.2,252 201.6,0 0,-248 -201.6,0 0,248 z" /></clipPath></defs><g
     transform="matrix(1.25,0,0,-1.25,0,320)"
     id="g10"><g
       id="g12"><g
         clip-path="url(#clipPath16)"
         id="g14"><g
           id="g20"><g
             id="g22" /><g
             id="g28"><g
               style="opacity:0.5"
               id="g30"
               clip-path="url(#clipPath24)"><g
                 id="g32"
                 transform="translate(211.52,252)"><path
                   id="path34"
                   style="fill:#ffffff;fill-opacity:1;fill-rule:nonzero;stroke:none"
                   d="m 0,0 -4.64,0 -157.76,0 -4.64,0 c -6.97,0 -12.64,-5.67 -12.64,-12.64 l 0,-2.018 c -2.74,-1.269 -4.64,-4.044 -4.64,-7.262 l 0,-4.64 c 0,-0.807 0.119,-1.586 0.342,-2.32 -0.223,-0.734 -0.342,-1.513 -0.342,-2.32 l 0,-4.64 c 0,-0.807 0.119,-1.586 0.342,-2.32 -0.223,-0.734 -0.342,-1.513 -0.342,-2.32 l 0,-4.64 c 0,-0.807 0.119,-1.586 0.342,-2.32 -0.223,-0.734 -0.342,-1.513 -0.342,-2.32 l 0,-4.64 c 0,-0.807 0.119,-1.586 0.342,-2.32 -0.223,-0.734 -0.342,-1.513 -0.342,-2.32 l 0,-4.64 c 0,-0.807 0.119,-1.586 0.342,-2.32 -0.223,-0.734 -0.342,-1.513 -0.342,-2.32 l 0,-4.64 c 0,-3.226 1.91,-6.007 4.661,-7.272 0.08,-31.083 0.048,-63.964 0.015,-98.632 -0.018,-18.699 -0.036,-37.613 -0.036,-56.496 0,-6.97 5.67,-12.64 12.64,-12.64 L 0,-248 c 6.97,0 12.64,5.67 12.64,12.64 l 0,155.138 c 2.74,1.269 4.64,4.044 4.64,7.262 l 0,4.64 c 0,0.807 -0.119,1.586 -0.342,2.32 0.223,0.734 0.342,1.513 0.342,2.32 l 0,4.64 c 0,0.807 -0.119,1.586 -0.342,2.32 0.223,0.734 0.342,1.513 0.342,2.32 l 0,4.64 c 0,0.807 -0.119,1.586 -0.342,2.32 0.223,0.734 0.342,1.513 0.342,2.32 l 0,4.64 c 0,0.807 -0.119,1.586 -0.342,2.32 0.223,0.734 0.342,1.513 0.342,2.32 l 0,4.64 c 0,0.807 -0.119,1.586 -0.342,2.32 0.223,0.734 0.342,1.513 0.342,2.32 l 0,4.64 c 0,3.218 -1.9,5.993 -4.64,7.262 l 0,2.018 C 12.64,-5.67 6.97,0 0,0" /></g></g></g></g><g
           transform="translate(220.8,225.44)"
           id="g36"><path
             id="path38"
             style="fill:#262626;fill-opacity:1;fill-rule:nonzero;stroke:none"
             d="m 0,0 0,4.64 -4.64,0 0,9.28 c 0,2.566 -2.074,4.64 -4.64,4.64 l -4.64,0 -157.76,0 -4.64,0 c -2.566,0 -4.64,-2.074 -4.64,-4.64 l 0,-9.28 -4.64,0 0,-4.64 4.64,0 0,-4.64 -4.64,0 0,-4.64 4.64,0 0,-4.64 -4.64,0 0,-4.64 4.64,0 0,-4.64 -4.64,0 0,-4.64 4.64,0 0,-4.64 -4.64,0 0,-4.64 4.64,0 0,-4.64 -4.64,0 0,-4.64 4.64,0 c 0.16,-50.117 0,-106.397 0,-162.4 0,-2.566 2.074,-4.64 4.64,-4.64 l 167.04,0 c 2.566,0 4.64,2.074 4.64,4.64 l 0,162.4 4.64,0 0,4.64 -4.64,0 0,4.64 4.64,0 0,4.64 -4.64,0 0,4.64 4.64,0 0,4.64 -4.64,0 0,4.64 4.64,0 0,4.64 -4.64,0 0,4.64 4.64,0 0,4.64 -4.64,0 0,4.64 L 0,0 Z" /></g><g
           transform="translate(206,73.0286)"
           id="g40"><path
             id="path42"
             style="fill:#191919;fill-opacity:1;fill-rule:nonzero;stroke:none"
             d="m 0,0 c 0,-2.781 -2.051,-5.029 -4.588,-5.029 l -146.824,0 c -2.537,0 -4.588,2.248 -4.588,5.029 l 0,165.943 c 0,2.781 2.051,5.028 4.588,5.028 l 146.824,0 c 2.537,0 4.588,-2.247 4.588,-5.028 L 0,0 Z" /></g><g
           transform="translate(197.0667,240)"
           id="g44"><path
             id="path46"
             style="fill:#262626;fill-opacity:1;fill-rule:nonzero;stroke:none"
             d="m 0,0 -138.133,0 c -2.728,0 -4.934,-2.422 -4.934,-5.419 l 0,-157.162 c 0,-2.997 2.206,-5.419 4.934,-5.419 L 0,-168 c 2.728,0 4.933,2.422 4.933,5.419 l 0,157.162 C 4.933,-2.422 2.728,0 0,0" /></g><g
           transform="translate(65.4188,214.1087)"
           id="g48"><path
             id="path50"
             style="fill:#ffffff;fill-opacity:1;fill-rule:nonzero;stroke:none"
             d="m 0,0 c -1.941,0 -3.521,-1.575 -3.521,-3.509 l 0,-129.199 c 0,-1.936 1.58,-3.509 3.521,-3.509 l 125.162,0 c 1.943,0 3.522,1.573 3.522,3.509 l 0,129.199 c 0,1.934 -1.579,3.509 -3.522,3.509 L 0,0 Z m 125.162,-138.109 -125.162,0 c -2.988,0 -5.419,2.424 -5.419,5.401 l 0,129.199 c 0,2.978 2.431,5.4 5.419,5.4 l 125.162,0 c 2.988,0 5.419,-2.422 5.419,-5.4 l 0,-129.199 c 0,-2.977 -2.431,-5.401 -5.419,-5.401" /></g><g
           transform="translate(127.7751,188)"
           id="g52"><path
             id="path54"
             style="fill:#ffffff;fill-opacity:1;fill-rule:nonzero;stroke:none"
             d="m 0,0 0,-3.444 -9.893,0 c -1.131,0 -1.068,-1.112 0,-1.112 l 6.52,0 c 5.08,0 5.079,-7.444 0,-7.444 l -10.231,0 0,3.333 9.782,0 c 1.17,0 1.091,1.111 0,1.111 l -6.071,0 c -5.221,0 -5.203,7.556 0,7.556 L 0,0 Z" /></g><g
           transform="translate(150.4852,188)"
           id="g56"><path
             id="path58"
             style="fill:#ffffff;fill-opacity:1;fill-rule:nonzero;stroke:none"
             d="m 0,0 11.58,0 c 2.078,0 3.93,-1.595 3.935,-3.778 l 0,-8.222 -4.16,0 0,7.111 c 0,1.187 -0.714,1.428 -1.574,1.445 l -5.621,0 L 4.16,-12 0,-12 0,0 Z" /></g><g
           transform="translate(145.6509,180.8889)"
           id="g60"><path
             id="path62"
             style="fill:#ffffff;fill-opacity:1;fill-rule:nonzero;stroke:none"
             d="m 0,0 c 0,-1.19 -0.915,-1.556 -1.462,-1.556 l -4.609,0 c -0.771,0 -1.574,0.633 -1.574,1.556 l 0,2.222 c 0,0.85 0.469,1.536 1.574,1.542 l 4.609,0.027 C -0.461,3.797 0,2.97 0,2.222 L 0,0 Z m 0.112,7.111 -7.757,0 c -1.843,0 -4.16,-1.108 -4.16,-3.667 l 0,-4.444 c 0,-1.572 1.246,-3.889 4.16,-3.889 l 7.757,0 c 1.293,0 4.048,0.737 4.048,3.889 l 0,4.444 c 0,2.01 -1.585,3.667 -4.048,3.667" /></g><path
           id="path64"
           style="fill:#ffffff;fill-opacity:1;fill-rule:nonzero;stroke:none"
           d="m 128.899,188 4.16,0 0,-12 -4.16,0 0,12 z" /><path
           id="path66"
           style="fill:#ffffff;fill-opacity:1;fill-rule:nonzero;stroke:none"
           d="m 108.989,188 4.16,0 0,-12 -4.16,0 0,12 z" /><g
           transform="translate(90,188)"
           id="g68"><path
             id="path70"
             style="fill:#ffffff;fill-opacity:1;fill-rule:nonzero;stroke:none"
             d="M 0,0 4.609,0 9.107,-7.778 14.391,0 18.213,0 11.018,-12 7.238,-12 0,0 Z" /></g><g
           transform="translate(111.3138,200.5305)"
           id="g72"><path
             id="path74"
             style="fill:#ffffff;fill-opacity:1;fill-rule:nonzero;stroke:none"
             d="m 0,0 5.894,0 c 1.155,0 1.091,-1.082 0,-1.082 L 0,-1.082 0,0 Z m 5.894,3.353 -10.102,0 -0.04,0 0,-11.681 4.248,0 0,4.326 2.395,0 3.243,-4.529 4.248,0 -3.288,4.591 c 4.602,0.627 4.359,7.293 -0.704,7.293" /></g><g
           transform="translate(154.9293,200.5305)"
           id="g76"><path
             id="path78"
             style="fill:#ffffff;fill-opacity:1;fill-rule:nonzero;stroke:none"
             d="m 0,0 5.894,0 c 1.155,0 1.091,-1.082 0,-1.082 L 0,-1.082 0,0 Z m 5.894,3.353 -10.102,0 -0.04,0 0,-11.681 4.248,0 0,4.326 2.395,0 3.243,-4.529 4.248,0 -3.288,4.591 c 4.602,0.627 4.359,7.293 -0.704,7.293" /></g><g
           transform="translate(177.7522,196.9614)"
           id="g80"><path
             id="path82"
             style="fill:#ffffff;fill-opacity:1;fill-rule:nonzero;stroke:none"
             d="m 0,0 c 0,-1.158 -0.934,-1.514 -1.492,-1.514 l -4.707,0 c -0.788,0 -1.608,0.615 -1.608,1.514 l 0,2.163 c 0,0.827 0.479,1.495 1.608,1.501 L -1.492,3.69 C -0.471,3.696 0,2.891 0,2.163 L 0,0 Z m 0.115,6.922 -7.922,0 c -1.881,0 -4.248,-1.078 -4.248,-3.569 l 0,-4.326 c 0,-1.531 1.273,-3.786 4.248,-3.786 l 7.922,0 c 1.319,0 4.133,0.718 4.133,3.786 l 0,4.326 c 0,1.956 -1.619,3.569 -4.133,3.569" /></g><g
           transform="translate(122.0724,203.8835)"
           id="g84"><path
             id="path86"
             style="fill:#ffffff;fill-opacity:1;fill-rule:nonzero;stroke:none"
             d="m 0,0 13.432,0 0,-2.92 -9.299,0 0,-1.082 9.299,0 0,-2.92 -9.299,0 c 0,-1.074 0.837,-1.514 1.722,-1.514 l 7.577,0 0,-3.137 -9.758,0 c -2.187,0 -3.69,1.71 -3.685,3.569 L 0,0 Z" /></g><g
           transform="translate(149.7989,203.8835)"
           id="g88"><path
             id="path90"
             style="fill:#ffffff;fill-opacity:1;fill-rule:nonzero;stroke:none"
             d="m 0,0 -13.432,0 0,-2.92 4.592,0 0,-8.761 4.248,0 0,8.761 L 0,-2.92 0,0 Z" /></g><path
           id="path92"
           style="fill:#ffffff;fill-opacity:1;fill-rule:nonzero;stroke:none"
           d="m 85.669,204 4.321,0 0,-11.883 -4.321,0 0,11.883 z" /><g
           transform="translate(74,204)"
           id="g94"><path
             id="path96"
             style="fill:#ffffff;fill-opacity:1;fill-rule:nonzero;stroke:none"
             d="m 0,0 4.205,0 0,-7.042 c 0,-1.012 0.809,-1.551 1.751,-1.54 l 4.555,0 0,-3.191 -6.54,0 C 2.114,-11.773 0,-10.987 0,-8.142 L 0,0 Z" /></g><g
           transform="translate(101.3565,195.5864)"
           id="g98"><path
             id="path100"
             style="fill:#ffffff;fill-opacity:1;fill-rule:nonzero;stroke:none"
             d="m 0,0 -5.742,0 0,1.079 5.742,0 C 1.111,1.079 1.192,0 0,0 m 0,5.178 c 1.192,0 1.111,-1.079 0,-1.079 l -5.742,0 0,1.079 5.742,0 z m 0.458,3.236 -10.419,0 -0.018,0 0,-11.65 0.018,0 10.419,0 c 3.718,0 4.749,3.725 3.122,5.825 1.627,2.1 0.596,5.825 -3.122,5.825" /></g><g
           transform="translate(68,88)"
           id="g102"><path
             id="path104"
             style="fill:#ffffff;fill-opacity:1;fill-rule:nonzero;stroke:none"
             d="m 0,0 14.062,12 0,-5.243 5.947,5.243 0,-8.054 c 0,0 4.088,7.676 4.336,7.676 0.248,0 9.726,-0.054 9.726,-0.054 l -1.549,-2.811 -5.637,0 -0.805,-1.514 3.159,0 -1.858,-3.135 -2.416,0 -0.682,-1.243 11.398,0 0.744,1.189 -5.699,0 4.398,7.622 9.911,0 -1.734,-2.973 -5.637,0 -0.929,-1.46 5.823,0 L 38.469,0 15.735,0 15.858,3.892 11.336,0 11.15,3.946 6.628,0 0,0 Z" /></g><g
           transform="translate(113.0354,99.5676)"
           id="g106"><path
             id="path108"
             style="fill:#ffffff;fill-opacity:1;fill-rule:nonzero;stroke:none"
             d="M 0,0 C 0,0 -0.044,0 -0.121,0.001 L -1.215,-2.205 0,0 Z" /></g><g
           transform="translate(122.2655,96.7027)"
           id="g110"><path
             id="path112"
             style="fill:#ffffff;fill-opacity:1;fill-rule:nonzero;stroke:none"
             d="m 0,0 1.735,2.973 -9.912,0 -4.398,-7.622 5.699,0 -0.743,-1.189 -5.493,0 -1.684,-2.865 9.964,0 4.089,7.244 -5.823,0 L -5.637,0 0,0 Z" /></g><path
           id="path114"
           style="fill:#29678f;fill-opacity:1;fill-rule:nonzero;stroke:none"
           d="m 164,88 -20,0 0,20 20,0 0,-20 z" /><g
           transform="translate(159.0345,96.7305)"
           id="g116"><path
             id="path118"
             style="fill:#3096cf;fill-opacity:1;fill-rule:nonzero;stroke:none"
             d="m 0,0 c 0,-0.354 -0.248,-0.642 -0.555,-0.642 l -5.238,0 0,4.301 5.238,0 C -0.248,3.659 0,3.372 0,3.018 L 0,0 Z m 2.746,7.677 -8.508,0 0,3.592 -5.272,0 0,-16 13.78,0 c 1.226,0 2.22,1.15 2.22,2.568 l 0,7.273 c 0,1.418 -0.994,2.567 -2.22,2.567" /></g><path
           id="path120"
           style="fill:#29678f;fill-opacity:1;fill-rule:nonzero;stroke:none"
           d="m 190,104 -24,0 0,4 24,0 0,-4 z" /><path
           id="path122"
           style="fill:#3096cf;fill-opacity:1;fill-rule:nonzero;stroke:none"
           d="m 186,100 -20,0 0,4 20,0 0,-4 z" /><g
           transform="translate(169.5499,104.941)"
           id="g124"><path
             id="path126"
             style="fill:#ffffff;fill-opacity:1;fill-rule:nonzero;stroke:none"
             d="M 0,0 C 0.165,0 0.295,0.045 0.388,0.134 0.481,0.223 0.527,0.346 0.527,0.504 0.527,0.596 0.51,0.672 0.476,0.732 0.442,0.793 0.397,0.84 0.341,0.876 0.284,0.911 0.219,0.936 0.146,0.951 0.072,0.965 -0.004,0.972 -0.083,0.972 l -0.854,0 L -0.937,0 0,0 Z m -0.189,1.287 c 0.213,0 0.365,0.038 0.459,0.113 0.093,0.074 0.139,0.186 0.139,0.336 0,0.1 -0.015,0.179 -0.047,0.236 C 0.331,2.03 0.287,2.075 0.232,2.106 0.177,2.138 0.113,2.158 0.041,2.167 -0.031,2.176 -0.108,2.181 -0.189,2.181 l -0.748,0 0,-0.894 0.748,0 z m -0.102,1.209 c 0.06,0 0.125,-10e-4 0.195,-0.002 C -0.027,2.493 0.042,2.489 0.11,2.482 0.178,2.475 0.242,2.466 0.301,2.453 0.36,2.439 0.411,2.42 0.453,2.393 0.544,2.338 0.623,2.262 0.687,2.165 0.751,2.068 0.783,1.949 0.783,1.807 0.783,1.657 0.747,1.528 0.675,1.419 0.603,1.31 0.5,1.23 0.366,1.177 l 0,-0.008 C 0.539,1.133 0.672,1.054 0.764,0.933 0.856,0.812 0.902,0.665 0.902,0.492 0.902,0.39 0.883,0.29 0.846,0.193 0.81,0.096 0.755,0.01 0.683,-0.065 0.611,-0.14 0.522,-0.2 0.415,-0.246 0.309,-0.292 0.186,-0.315 0.047,-0.315 l -1.358,0 0,2.811 1.02,0 z" /></g><g
           transform="translate(174.9184,107.4369)"
           id="g128"><path
             id="path130"
             style="fill:#ffffff;fill-opacity:1;fill-rule:nonzero;stroke:none"
             d="m 0,0 0,-2.496 1.488,0 0,-0.315 -1.862,0 0,2.811 L 0,0 Z" /></g><g
           transform="translate(181.6421,104.8327)"
           id="g132"><path
             id="path134"
             style="fill:#ffffff;fill-opacity:1;fill-rule:nonzero;stroke:none"
             d="m 0,0 c -0.192,-0.18 -0.465,-0.27 -0.819,-0.27 -0.362,0 -0.645,0.086 -0.848,0.258 -0.204,0.172 -0.305,0.446 -0.305,0.821 l 0,1.795 0.374,0 0,-1.795 c 0,-0.252 0.067,-0.443 0.201,-0.573 0.133,-0.13 0.326,-0.195 0.578,-0.195 0.239,0 0.421,0.065 0.545,0.195 0.125,0.13 0.187,0.321 0.187,0.573 l 0,1.795 0.374,0 0,-1.795 C 0.287,0.449 0.192,0.18 0,0" /></g><g
           transform="translate(187.7492,107.4369)"
           id="g136"><path
             id="path138"
             style="fill:#ffffff;fill-opacity:1;fill-rule:nonzero;stroke:none"
             d="m 0,0 0,-0.315 -1.567,0 0,-0.894 1.461,0 0,-0.315 -1.461,0 0,-0.972 1.579,0 0,-0.315 -1.953,0 0,2.811 L 0,0 Z" /></g><g
           transform="translate(169.3581,103.3624)"
           id="g140"><path
             id="path142"
             style="fill:#ffffff;fill-opacity:1;fill-rule:nonzero;stroke:none"
             d="M 0,0 0.886,-2.362 1.775,0 l 0.512,0 0,-2.811 -0.354,0 0,2.339 -0.008,0 -0.878,-2.339 -0.319,0 -0.878,2.339 -0.007,0 0,-2.339 -0.355,0 0,2.811 L 0,0 Z" /></g><g
           transform="translate(176.2991,102.9786)"
           id="g144"><path
             id="path146"
             style="fill:#ffffff;fill-opacity:1;fill-rule:nonzero;stroke:none"
             d="M 0,0 C -0.125,0.09 -0.284,0.136 -0.478,0.136 -0.557,0.136 -0.635,0.128 -0.711,0.112 -0.787,0.096 -0.854,0.07 -0.913,0.033 -0.972,-0.003 -1.02,-0.053 -1.055,-0.114 c -0.036,-0.062 -0.053,-0.139 -0.053,-0.23 0,-0.087 0.025,-0.157 0.077,-0.211 0.051,-0.054 0.119,-0.098 0.204,-0.132 0.085,-0.034 0.182,-0.062 0.29,-0.085 0.107,-0.022 0.217,-0.046 0.328,-0.072 0.112,-0.027 0.221,-0.058 0.329,-0.093 0.108,-0.035 0.204,-0.083 0.289,-0.144 0.086,-0.06 0.154,-0.136 0.205,-0.228 0.051,-0.092 0.077,-0.207 0.077,-0.346 0,-0.15 -0.034,-0.278 -0.101,-0.384 C 0.523,-2.146 0.438,-2.232 0.333,-2.299 0.228,-2.366 0.11,-2.414 -0.02,-2.445 -0.15,-2.475 -0.279,-2.49 -0.408,-2.49 c -0.157,0 -0.306,0.02 -0.446,0.059 -0.141,0.039 -0.264,0.099 -0.37,0.179 -0.107,0.08 -0.191,0.183 -0.252,0.307 -0.062,0.125 -0.093,0.272 -0.093,0.443 l 0.354,0 c 0,-0.118 0.023,-0.22 0.069,-0.305 0.046,-0.085 0.107,-0.155 0.182,-0.211 0.074,-0.055 0.161,-0.095 0.261,-0.122 0.1,-0.026 0.202,-0.039 0.307,-0.039 0.084,0 0.169,0.008 0.254,0.024 0.085,0.015 0.162,0.042 0.231,0.08 0.068,0.038 0.123,0.09 0.165,0.156 0.042,0.065 0.063,0.149 0.063,0.252 0,0.097 -0.026,0.176 -0.077,0.236 -0.051,0.06 -0.119,0.11 -0.205,0.148 -0.085,0.038 -0.181,0.068 -0.289,0.092 -0.108,0.024 -0.217,0.048 -0.329,0.073 -0.111,0.025 -0.221,0.054 -0.328,0.087 -0.108,0.032 -0.205,0.076 -0.29,0.129 -0.085,0.054 -0.153,0.124 -0.204,0.209 -0.052,0.085 -0.077,0.192 -0.077,0.321 0,0.142 0.029,0.264 0.086,0.368 0.058,0.104 0.135,0.189 0.231,0.256 0.095,0.067 0.204,0.117 0.326,0.15 0.122,0.032 0.248,0.049 0.376,0.049 0.145,0 0.279,-0.017 0.402,-0.051 C 0.062,0.365 0.171,0.312 0.264,0.238 0.357,0.165 0.43,0.072 0.484,-0.039 c 0.054,-0.112 0.084,-0.245 0.089,-0.4 l -0.355,0 C 0.197,-0.237 0.125,-0.091 0,0" /></g><g
           transform="translate(180.7955,103.3624)"
           id="g148"><path
             id="path150"
             style="fill:#ffffff;fill-opacity:1;fill-rule:nonzero;stroke:none"
             d="M 0,0 0.449,0 1.15,-1.098 1.882,0 2.299,0 1.37,-1.366 l 0.988,-1.445 -0.456,0 -0.756,1.162 -0.78,-1.162 -0.417,0 0.976,1.445 L 0,0 Z" /></g></g></g></g></svg>