<?xml version="1.0" encoding="UTF-8" standalone="no"?>
<svg
   xmlns:dc="http://purl.org/dc/elements/1.1/"
   xmlns:cc="http://creativecommons.org/ns#"
   xmlns:rdf="http://www.w3.org/1999/02/22-rdf-syntax-ns#"
   xmlns:svg="http://www.w3.org/2000/svg"
   xmlns="http://www.w3.org/2000/svg"
   viewBox="0 0 320 320"
   height="320"
   width="320"
   xml:space="preserve"
   version="1.1"
   id="svg2"><metadata
     id="metadata8"><rdf:RDF><cc:Work
         rdf:about=""><dc:format>image/svg+xml</dc:format><dc:type
           rdf:resource="http://purl.org/dc/dcmitype/StillImage" /></cc:Work></rdf:RDF></metadata><defs
     id="defs6"><clipPath
       id="clipPath16"
       clipPathUnits="userSpaceOnUse"><path
         id="path18"
         d="M 0,256 256,256 256,0 0,0 0,256 Z" /></clipPath><clipPath
       id="clipPath24"
       clipPathUnits="userSpaceOnUse"><path
         id="path26"
         d="M 4,252 252,252 252,4 4,4 4,252 Z" /></clipPath></defs><g
     transform="matrix(1.25,0,0,-1.25,0,320)"
     id="g10"><g
       id="g12"><g
         clip-path="url(#clipPath16)"
         id="g14"><g
           id="g20"><g
             id="g22" /><g
             id="g28"><g
               style="opacity:0.5"
               id="g30"
               clip-path="url(#clipPath24)"><path
                 id="path32"
                 style="fill:#ffffff;fill-opacity:1;fill-rule:nonzero;stroke:none"
                 d="m 240,212 -16,0 0,12 16,0 0,-12 z m -1.273,40 -221.454,0 C 9.954,252 4,246.046 4,238.727 L 4,38.364 4,35.557 5.753,33.366 26.844,7.002 29.246,4 33.091,4 238.727,4 C 246.046,4 252,9.954 252,17.273 l 0,221.454 C 252,246.046 246.046,252 238.727,252" /></g></g></g><path
           id="path34"
           style="fill:#263979;fill-opacity:1;fill-rule:nonzero;stroke:none"
           d="m 240,212 -16,0 0,12 16,0 0,-12 z m -1.273,32 -221.454,0 C 14.357,244 12,241.643 12,238.727 L 12,38.364 33.091,12 238.727,12 c 2.916,0 5.273,2.357 5.273,5.273 l 0,221.454 c 0,2.916 -2.357,5.273 -5.273,5.273" /><g
           transform="translate(216,12)"
           id="g36"><path
             id="path38"
             style="fill:#354f9f;fill-opacity:1;fill-rule:nonzero;stroke:none"
             d="m 0,0 -156,0 0,78.4 c 0,3.097 2.682,5.6 6,5.6 l 144,0 c 3.318,0 6,-2.503 6,-5.6 L 0,0 Z" /></g><g
           transform="translate(35.9998,244)"
           id="g40"><path
             id="path42"
             style="fill:#e6e6e6;fill-opacity:1;fill-rule:nonzero;stroke:none"
             d="m 0,0 184,0 0,-110.2 c 0,-3.207 -2.419,-5.8 -5.412,-5.8 L 5.412,-116 C 2.419,-116 0,-113.407 0,-110.2 L 0,0 Z" /></g><path
           id="path44"
           style="fill:#a6a6a6;fill-opacity:1;fill-rule:nonzero;stroke:none"
           d="m 120,20 -36,0 0,64 36,0 0,-64 z M 182.727,92 77.273,92 C 74.357,92 72,88.749 72,84.727 L 72,12 l 116,0 0,72.727 C 188,88.749 185.643,92 182.727,92" /><g
           transform="translate(56.7387,231.6277)"
           id="g46"><path
             id="path48"
             style="fill:#354f9f;fill-opacity:1;fill-rule:nonzero;stroke:none"
             d="M 0,0 9.834,-11.624 4.143,-11.628 -5.556,-0.004 0,0 Z" /></g><g
           transform="translate(49.5562,231.6277)"
           id="g50"><path
             id="path52"
             style="fill:#354f9f;fill-opacity:1;fill-rule:nonzero;stroke:none"
             d="M 0,0 9.834,-11.624 4.143,-11.628 -5.556,-0.004 0,0 Z" /></g><g
           transform="translate(64.434,231.6277)"
           id="g54"><path
             id="path56"
             style="fill:#354f9f;fill-opacity:1;fill-rule:nonzero;stroke:none"
             d="M 0,0 9.834,-11.624 4.143,-11.628 -5.556,-0.004 0,0 Z" /></g><g
           transform="translate(81.4951,243.9953)"
           id="g58"><path
             id="path60"
             style="fill:#ff0000;fill-opacity:1;fill-rule:nonzero;stroke:none"
             d="M 0,0 6.505,0.005 -2.89,-23.99 -9.666,-23.995 0,0 Z" /></g><g
           transform="translate(65.6688,243.9953)"
           id="g62"><path
             id="path64"
             style="fill:#ff0000;fill-opacity:1;fill-rule:nonzero;stroke:none"
             d="M 0,0 6.505,0.005 -2.89,-23.99 -9.666,-23.995 0,0 Z" /></g><g
           transform="translate(73.7999,243.9953)"
           id="g66"><path
             id="path68"
             style="fill:#ff0000;fill-opacity:1;fill-rule:nonzero;stroke:none"
             d="M 0,0 6.505,0.005 -2.89,-23.99 -9.666,-23.995 0,0 Z" /></g><path
           id="path70"
           style="fill:#263979;fill-opacity:1;fill-rule:nonzero;stroke:none"
           d="m 173.43,136.07 -1.43,0 0,7.93 1.43,0 0,-7.93 z" /><path
           id="path72"
           style="fill:#263979;fill-opacity:1;fill-rule:nonzero;stroke:none"
           d="m 176.265,136.07 -1.43,0 0,5.554 1.43,0 0,-5.554 z m 0,6.82 -1.43,0 0,1.11 1.43,0 0,-1.11 z" /><g
           transform="translate(180.5121,140.642)"
           id="g74"><path
             id="path76"
             style="fill:#263979;fill-opacity:1;fill-rule:nonzero;stroke:none"
             d="m 0,0 c -0.928,0 -1.393,-0.536 -1.393,-1.609 0,-0.841 0.079,-1.38 0.238,-1.618 0.158,-0.238 0.516,-0.358 1.074,-0.358 0.583,0 0.955,0.11 1.118,0.329 0.162,0.218 0.243,0.719 0.243,1.501 0,0.729 -0.08,1.203 -0.24,1.424 C 0.88,-0.11 0.533,0 0,0 m -2.842,-4.572 0,7.93 1.431,0 0,-3.172 0.031,-0.012 c 0.245,0.585 0.868,0.878 1.867,0.878 0.858,0 1.446,-0.195 1.764,-0.584 0.319,-0.39 0.478,-1.111 0.478,-2.164 0,-1.151 -0.161,-1.928 -0.484,-2.333 -0.323,-0.405 -0.942,-0.607 -1.858,-0.607 -0.928,0 -1.538,0.314 -1.83,0.941 l -0.031,0 0.063,-0.877 -1.431,0 z" /></g><g
           transform="translate(184.4715,141.6238)"
           id="g78"><path
             id="path80"
             style="fill:#263979;fill-opacity:1;fill-rule:nonzero;stroke:none"
             d="M 0,0 1.43,0 1.343,-0.779 1.374,-0.784 c 0.341,0.581 0.878,0.871 1.611,0.871 1.049,0 1.574,-0.616 1.574,-1.847 l 0,-0.39 -1.349,0 c 0.017,0.151 0.025,0.25 0.025,0.297 0,0.592 -0.248,0.889 -0.743,0.889 -0.708,0 -1.062,-0.44 -1.062,-1.319 l 0,-3.271 -1.43,0 L 0,0 Z" /></g><g
           transform="translate(193.6831,139.4219)"
           id="g82"><path
             id="path84"
             style="fill:#263979;fill-opacity:1;fill-rule:nonzero;stroke:none"
             d="m 0,0 -0.006,0.221 c 0,0.441 -0.082,0.728 -0.247,0.86 -0.164,0.131 -0.521,0.197 -1.071,0.197 -0.533,0 -0.879,-0.079 -1.04,-0.238 C -2.524,0.881 -2.604,0.534 -2.604,0 L 0,0 Z m -0.012,-1.574 1.436,0 0,-0.215 c 0,-1.085 -0.874,-1.627 -2.623,-1.627 -1.187,0 -1.963,0.188 -2.329,0.563 -0.367,0.376 -0.55,1.172 -0.55,2.388 0,1.081 0.191,1.807 0.574,2.179 0.384,0.372 1.131,0.558 2.242,0.558 1.066,0 1.78,-0.181 2.143,-0.544 0.362,-0.362 0.543,-1.073 0.543,-2.135 l 0,-0.406 -4.041,0 c -0.008,-0.124 -0.012,-0.206 -0.012,-0.244 0,-0.546 0.09,-0.911 0.271,-1.093 0.182,-0.182 0.543,-0.273 1.084,-0.273 0.525,0 0.866,0.054 1.024,0.16 0.158,0.107 0.238,0.336 0.238,0.689" /></g><g
           transform="translate(200.153,141.6238)"
           id="g86"><path
             id="path88"
             style="fill:#263979;fill-opacity:1;fill-rule:nonzero;stroke:none"
             d="m 0,0 0,-1.011 -2.298,0 0,-2.789 c 0,-0.515 0.21,-0.772 0.631,-0.772 0.462,0 0.693,0.312 0.693,0.935 l 0,0.221 1.218,0 0,-0.279 c 0,-0.256 -0.009,-0.474 -0.025,-0.657 -0.08,-0.848 -0.758,-1.272 -2.036,-1.272 -1.274,0 -1.911,0.544 -1.911,1.633 l 0,2.98 -0.775,0 0,1.011 0.775,0 0,1.243 1.43,0 L -2.298,0 0,0 Z" /></g><g
           transform="translate(201.2209,141.6238)"
           id="g90"><path
             id="path92"
             style="fill:#263979;fill-opacity:1;fill-rule:nonzero;stroke:none"
             d="M 0,0 1.43,0 1.343,-0.779 1.374,-0.784 c 0.341,0.581 0.878,0.871 1.611,0.871 1.049,0 1.574,-0.616 1.574,-1.847 l 0,-0.39 -1.349,0 c 0.017,0.151 0.025,0.25 0.025,0.297 0,0.592 -0.248,0.889 -0.743,0.889 -0.708,0 -1.062,-0.44 -1.062,-1.319 l 0,-3.271 -1.43,0 L 0,0 Z" /></g><g
           transform="translate(209.1835,140.6362)"
           id="g94"><path
             id="path96"
             style="fill:#263979;fill-opacity:1;fill-rule:nonzero;stroke:none"
             d="m 0,0 c -0.595,0 -0.974,-0.1 -1.137,-0.299 -0.162,-0.2 -0.243,-0.665 -0.243,-1.397 0,-0.837 0.077,-1.36 0.231,-1.569 0.154,-0.209 0.539,-0.314 1.155,-0.314 0.596,0 0.971,0.111 1.127,0.331 0.157,0.221 0.235,0.752 0.235,1.592 0,0.709 -0.082,1.162 -0.244,1.36 C 0.962,-0.099 0.587,0 0,0 m 0.012,1.052 c 1.154,0 1.909,-0.172 2.267,-0.515 0.359,-0.342 0.538,-1.066 0.538,-2.17 0,-1.231 -0.175,-2.039 -0.525,-2.422 -0.35,-0.384 -1.087,-0.575 -2.211,-0.575 -1.22,0 -2.01,0.178 -2.37,0.534 -0.36,0.356 -0.54,1.141 -0.54,2.353 0,1.166 0.177,1.923 0.531,2.272 0.354,0.348 1.124,0.523 2.31,0.523" /></g><g
           transform="translate(164,142)"
           id="g98"><path
             id="path100"
             style="fill:#263979;fill-opacity:1;fill-rule:nonzero;stroke:none"
             d="M 0,0 4,0 2.131,-2 0,-2 0,0 Z" /></g><g
           transform="translate(164,138)"
           id="g102"><path
             id="path104"
             style="fill:#ff0000;fill-opacity:1;fill-rule:nonzero;stroke:none"
             d="M 0,0 4,0 2.131,2 0,2 0,0 Z" /></g><g
           transform="translate(158.7889,137.935)"
           id="g106"><path
             id="path108"
             style="fill:#263979;fill-opacity:1;fill-rule:nonzero;stroke:none"
             d="m 0,0 0,6.065 -2.789,0 0,-6.065 0,-0.824 0,-1.111 8,0 L 5.211,0 0,0 Z" /></g><g
           transform="translate(90.6183,230.7497)"
           id="g110"><path
             id="path112"
             style="fill:#00003d;fill-opacity:1;fill-rule:nonzero;stroke:none"
             d="m 0,0 c -0.571,0 -0.602,-0.102 -0.737,-0.561 l -1.023,-3.65 c -0.136,-0.493 -0.031,-0.561 0.662,-0.561 1.43,0 2.514,1.478 2.514,2.972 C 1.416,-0.917 1.099,0 0,0 m -3.01,-1.63 c 0.331,1.154 0.331,1.409 -0.151,1.545 l -0.481,0.136 c -0.135,0.136 -0.09,0.492 0.09,0.577 0.889,0.086 1.822,0.153 2.981,0.153 1.234,0 2.212,-0.153 2.935,-0.543 0.693,-0.391 1.249,-1.189 1.249,-2.293 0,-1.681 -1.28,-2.564 -2.439,-2.904 -0.271,-0.085 -0.271,-0.186 -0.24,-0.39 0.345,-2.191 0.632,-3.736 0.993,-4.161 0.196,-0.238 0.617,-0.339 0.903,-0.407 0.136,-0.119 0.091,-0.408 -0.044,-0.527 -0.302,-0.085 -0.738,-0.102 -1.385,-0.102 -0.542,0 -0.949,0.085 -1.19,0.255 -0.3,0.221 -0.587,0.645 -0.737,1.545 l -0.421,2.48 c -0.106,0.577 -0.287,0.747 -0.738,0.747 -0.376,0 -0.422,-0.051 -0.527,-0.391 l -0.617,-2.123 c -0.406,-1.375 -0.392,-1.664 0.377,-1.834 l 0.391,-0.085 c 0.134,-0.084 0.09,-0.475 -0.075,-0.577 -0.738,0.034 -1.49,0.051 -2.214,0.051 -0.721,0 -1.399,-0.017 -2.152,-0.051 -0.15,0.102 -0.165,0.543 0.015,0.577 l 0.467,0.085 c 0.647,0.119 0.753,0.255 1.204,1.834 l 1.806,6.403 z" /></g><g
           transform="translate(101.8371,231.4798)"
           id="g114"><path
             id="path116"
             style="fill:#00003d;fill-opacity:1;fill-rule:nonzero;stroke:none"
             d="M 0,0 C 0.963,0 1.821,0.017 2.047,0.051 1.941,-0.238 1.55,-1.46 1.279,-2.615 1.204,-2.802 0.813,-2.819 0.707,-2.683 c 0.046,0.612 0,1.104 -0.06,1.308 -0.12,0.39 -0.512,0.594 -1.265,0.594 l -1.174,0 c -0.511,0 -0.556,-0.034 -0.736,-0.679 l -0.829,-2.955 c -0.135,-0.476 -0.105,-0.51 0.287,-0.51 l 0.993,0 c 0.783,0 0.978,0.136 1.37,0.952 l 0.195,0.407 c 0.15,0.153 0.527,0.136 0.572,-0.017 -0.18,-0.527 -0.361,-1.155 -0.556,-1.8 C -0.678,-6.028 -0.813,-6.64 -0.949,-7.184 -1.069,-7.319 -1.46,-7.336 -1.52,-7.2 l 0.044,0.424 c 0.091,0.816 -0.06,0.951 -0.842,0.951 l -0.993,0 c -0.391,0 -0.451,-0.05 -0.573,-0.509 l -0.571,-2.072 c -0.227,-0.798 -0.331,-1.325 -0.211,-1.614 0.135,-0.288 0.377,-0.407 1.475,-0.407 1.31,0 1.837,0.051 3.071,1.953 0.165,0.136 0.511,0.102 0.602,-0.102 -0.256,-0.849 -0.829,-2.224 -1.16,-2.683 -0.465,0.017 -1.068,0.034 -1.701,0.034 -0.631,0.017 -1.309,0.017 -1.926,0.017 l -1.956,0 c -0.753,0 -1.431,-0.017 -2.183,-0.051 -0.151,0.102 -0.135,0.527 0.076,0.594 l 0.511,0.085 c 0.707,0.119 0.828,0.238 1.265,1.817 l 1.761,6.318 c 0.376,1.375 0.391,1.698 -0.316,1.834 l -0.362,0.068 c -0.136,0.118 -0.105,0.509 0.105,0.594 C -4.696,0.017 -3.928,0 -3.342,0 L 0,0 Z" /></g><g
           transform="translate(112.8746,231.4798)"
           id="g118"><path
             id="path120"
             style="fill:#00003d;fill-opacity:1;fill-rule:nonzero;stroke:none"
             d="M 0,0 C 0.618,0 0.843,0.136 1.054,0.442 1.174,0.543 1.49,0.51 1.55,0.391 1.265,-0.272 0.783,-1.732 0.618,-2.547 c -0.106,-0.17 -0.513,-0.17 -0.602,0 0.045,0.611 0.06,1.273 -0.136,1.46 -0.286,0.255 -0.693,0.306 -1.084,0.306 l -0.661,0 c -0.453,0 -0.467,0 -0.603,-0.475 l -2.047,-7.507 c -0.376,-1.375 -0.391,-1.698 0.376,-1.817 l 0.558,-0.085 c 0.089,-0.101 0.044,-0.492 -0.091,-0.594 -0.948,0.034 -1.716,0.051 -2.408,0.051 -0.723,0 -1.4,-0.017 -2.303,-0.051 -0.151,0.102 -0.165,0.527 0.046,0.594 l 0.587,0.085 c 0.647,0.102 0.767,0.238 1.203,1.817 l 2.092,7.507 c 0.12,0.424 0.105,0.475 -0.391,0.475 l -0.618,0 c -0.42,0 -0.857,-0.034 -1.263,-0.391 -0.302,-0.272 -0.678,-0.662 -1.069,-1.426 -0.136,-0.102 -0.557,-0.017 -0.557,0.204 0.467,1.087 0.873,2.055 1.128,2.836 0.091,0.101 0.287,0.101 0.422,0.016 C -6.803,0.119 -6.652,0 -5.629,0 L 0,0 Z" /></g><g
           transform="translate(118.734,230.7497)"
           id="g122"><path
             id="path124"
             style="fill:#00003d;fill-opacity:1;fill-rule:nonzero;stroke:none"
             d="m 0,0 c -0.571,0 -0.602,-0.102 -0.737,-0.561 l -1.023,-3.65 c -0.136,-0.493 -0.031,-0.561 0.662,-0.561 1.43,0 2.514,1.478 2.514,2.972 C 1.416,-0.917 1.099,0 0,0 m -3.01,-1.63 c 0.331,1.154 0.331,1.409 -0.151,1.545 l -0.481,0.136 c -0.135,0.136 -0.09,0.492 0.09,0.577 0.889,0.086 1.822,0.153 2.981,0.153 1.234,0 2.212,-0.153 2.935,-0.543 0.693,-0.391 1.249,-1.189 1.249,-2.293 0,-1.681 -1.28,-2.564 -2.439,-2.904 -0.271,-0.085 -0.271,-0.186 -0.24,-0.39 0.345,-2.191 0.632,-3.736 0.993,-4.161 0.196,-0.238 0.617,-0.339 0.903,-0.407 0.136,-0.119 0.091,-0.408 -0.046,-0.527 -0.3,-0.085 -0.736,-0.102 -1.383,-0.102 -0.543,0 -0.949,0.085 -1.19,0.255 -0.3,0.221 -0.587,0.645 -0.737,1.545 l -0.421,2.48 c -0.106,0.577 -0.287,0.747 -0.738,0.747 -0.376,0 -0.422,-0.051 -0.527,-0.391 l -0.617,-2.123 c -0.406,-1.375 -0.392,-1.664 0.377,-1.834 l 0.391,-0.085 c 0.134,-0.084 0.09,-0.475 -0.075,-0.577 -0.738,0.034 -1.49,0.051 -2.214,0.051 -0.721,0 -1.399,-0.017 -2.152,-0.051 -0.15,0.102 -0.165,0.543 0.015,0.577 l 0.467,0.085 c 0.647,0.119 0.753,0.255 1.204,1.834 l 1.806,6.403 z" /></g><g
           transform="translate(127.6352,230.2401)"
           id="g126"><path
             id="path128"
             style="fill:#00003d;fill-opacity:1;fill-rule:nonzero;stroke:none"
             d="m 0,0 c -1.203,-1.087 -2.528,-3.838 -2.528,-6.623 0,-1.63 0.661,-2.836 1.926,-2.836 0.602,0 1.355,0.306 2.063,1.223 1.369,1.783 1.971,4.093 1.971,6.165 C 3.432,-0.085 2.664,0.73 1.61,0.73 1.039,0.73 0.482,0.425 0,0 m -2.272,-0.017 c 1.249,1.155 2.619,1.528 3.717,1.528 1.837,0 4.14,-1.12 4.14,-4.788 0,-1.783 -0.738,-3.736 -1.852,-5.027 -0.767,-0.883 -2.288,-1.936 -4.124,-1.936 -3.446,0 -4.289,2.683 -4.289,4.534 0,2.14 0.918,4.314 2.408,5.689" /></g><g
           transform="translate(136.5965,229.0516)"
           id="g130"><path
             id="path132"
             style="fill:#00003d;fill-opacity:1;fill-rule:nonzero;stroke:none"
             d="m 0,0 c 0.452,1.341 0.422,1.698 -0.3,1.817 l -0.422,0.068 c -0.136,0.102 -0.091,0.493 0.12,0.594 0.829,-0.034 1.596,-0.051 2.319,-0.051 0.526,0 0.842,0.017 1.384,0.051 C 2.8,1.63 2.995,0 3.071,-0.832 l 0.12,-1.393 c 0.091,-0.985 0.166,-1.936 0.257,-2.547 0.301,0.475 0.707,1.07 1.308,2.021 L 6.488,0.017 C 7.406,1.477 7.586,2.174 7.692,2.479 8.023,2.445 8.58,2.428 9.137,2.428 c 0.737,0 1.37,0.017 2.122,0.051 0.18,-0.101 0.135,-0.526 -0.06,-0.594 L 10.778,1.817 C 10.145,1.715 9.889,1.579 9.453,-0.255 L 7.993,-6.334 C 7.662,-7.727 7.602,-7.999 8.369,-8.151 L 8.791,-8.236 C 8.866,-8.338 8.82,-8.729 8.67,-8.831 7.873,-8.797 7.105,-8.78 6.383,-8.78 5.66,-8.78 4.998,-8.797 4.26,-8.831 4.064,-8.746 4.08,-8.304 4.291,-8.236 l 0.436,0.085 c 0.647,0.118 0.813,0.22 1.249,1.817 l 1.325,4.908 c 0.24,0.916 0.376,1.46 0.511,1.986 L 7.782,0.594 C 7.421,0.068 7.105,-0.442 6.594,-1.274 L 4.44,-4.789 C 3.673,-6.029 2.995,-7.235 2.303,-8.508 2.108,-8.644 1.777,-8.61 1.626,-8.44 c 0.03,0.611 -0.045,1.935 -0.15,3.464 L 1.31,-2.479 C 1.235,-1.307 1.114,-0.17 1.054,0.425 l -0.029,0 C 0.814,-0.17 0.512,-1.07 0.136,-2.259 l -0.767,-2.462 c -0.678,-2.191 -0.798,-2.615 -0.814,-2.955 -0.015,-0.17 0.045,-0.34 0.362,-0.408 l 0.723,-0.152 c 0.074,-0.153 0.045,-0.51 -0.076,-0.595 -0.647,0.017 -1.294,0.051 -1.987,0.051 -0.662,0 -1.129,-0.034 -1.656,-0.051 -0.12,0.136 -0.12,0.493 0.031,0.595 l 0.362,0.067 c 0.451,0.085 0.692,0.204 0.872,0.374 0.271,0.289 0.511,0.832 1.069,2.514 L 0,0 Z" /></g><g
           transform="translate(150.829,220.8151)"
           id="g134"><path
             id="path136"
             style="fill:#00003d;fill-opacity:1;fill-rule:nonzero;stroke:none"
             d="m 0,0 c 0.089,-0.102 0.044,-0.492 -0.105,-0.595 -0.798,0.034 -1.567,0.052 -2.259,0.052 -0.753,0 -1.429,-0.018 -2.182,-0.052 -0.15,0.103 -0.136,0.544 0.106,0.595 l 0.405,0.085 c 0.648,0.136 0.769,0.238 1.205,1.817 l 1.761,6.317 c 0.377,1.376 0.391,1.664 -0.376,1.817 l -0.422,0.085 c -0.105,0.103 -0.09,0.51 0.106,0.595 0.842,-0.034 1.596,-0.051 2.317,-0.051 0.693,0 1.371,0.017 2.123,0.051 0.15,-0.102 0.12,-0.526 -0.076,-0.595 L 2.167,10.036 C 1.52,9.917 1.4,9.799 0.963,8.219 L -0.798,1.902 C -1.19,0.526 -1.19,0.238 -0.422,0.085 L 0,0 Z" /></g><g
           transform="translate(162.6311,224.7042)"
           id="g138"><path
             id="path140"
             style="fill:#00003d;fill-opacity:1;fill-rule:nonzero;stroke:none"
             d="m 0,0 c -0.482,-0.085 -0.571,-0.306 -0.798,-1.189 l -0.331,-1.29 c -0.196,-0.765 -0.285,-1.087 0,-1.156 0.046,-0.067 0.015,-0.356 -0.15,-0.407 -0.286,-0.051 -0.798,-0.187 -1.009,-0.255 -0.693,-0.254 -1.716,-0.407 -2.468,-0.407 -3.176,0 -4.635,1.902 -4.635,4.585 0,2.106 0.932,3.973 2.106,5.129 1.024,1.002 2.694,2.037 5.193,2.037 1.49,0 2.544,-0.39 3.07,-0.628 C 0.647,5.57 0.422,4.653 0.226,3.753 c -0.106,-0.187 -0.497,-0.187 -0.557,0 0.151,1.732 -0.436,2.513 -1.926,2.513 -2.68,0 -4.877,-3.481 -4.877,-6.809 0,-2.582 1.294,-3.38 2.604,-3.38 0.813,0 1.069,0.221 1.34,1.256 l 0.391,1.461 c 0.24,0.9 0.06,1.07 -0.647,1.189 l -0.482,0.085 c -0.181,0.101 -0.136,0.492 0.045,0.594 1.024,-0.034 1.776,-0.051 2.498,-0.051 0.603,0 1.356,0.017 1.761,0.051 C 0.542,0.56 0.496,0.169 0.362,0.068 L 0,0 Z" /></g><g
           transform="translate(168.5237,225.0098)"
           id="g142"><path
             id="path144"
             style="fill:#00003d;fill-opacity:1;fill-rule:nonzero;stroke:none"
             d="m 0,0 c 0.36,0 0.376,0.034 0.391,0.458 l 0.091,2.089 c 0.014,0.51 0.044,1.444 0.074,1.818 l -0.03,0 C 0.3,3.957 -0.061,3.328 -0.422,2.7 L -1.732,0.373 C -1.912,0.068 -1.867,0 -1.445,0 L 0,0 Z m -1.988,-0.9 c -0.451,0 -0.481,0.017 -0.662,-0.34 l -0.994,-1.8 c -0.255,-0.51 -0.285,-0.645 -0.285,-0.747 0,-0.136 0.225,-0.255 0.496,-0.306 l 0.543,-0.084 c 0.15,-0.119 0.106,-0.527 -0.076,-0.612 -0.752,0.034 -1.369,0.051 -2.032,0.051 -0.527,0 -1.023,-0.017 -1.445,-0.051 -0.211,0.085 -0.211,0.493 -0.075,0.612 l 0.361,0.067 c 0.753,0.136 0.934,0.289 1.701,1.546 1.339,2.241 2.71,4.483 4.049,6.725 0.467,0.798 0.903,1.528 0.963,1.851 0.844,0.067 1.551,0.73 1.565,0.73 l 0.031,0 c 0.151,0 0.271,-0.085 0.271,-0.272 0,-3.005 -0.105,-6.028 -0.105,-9.034 0,-1.189 0,-1.478 0.721,-1.579 l 0.362,-0.052 c 0.12,-0.101 0.091,-0.526 -0.045,-0.594 -0.557,0.034 -1.369,0.051 -2.122,0.051 -0.843,0 -1.521,-0.017 -1.988,-0.051 -0.195,0.068 -0.165,0.475 -0.074,0.594 l 0.346,0.052 c 0.692,0.101 0.768,0.322 0.782,0.73 l 0.06,2.156 C 0.376,-0.917 0.346,-0.9 -0.121,-0.9 l -1.867,0 z" /></g><g
           transform="translate(47.2692,142.2085)"
           id="g146"><path
             id="path148"
             style="fill:#00003d;fill-opacity:1;fill-rule:nonzero;stroke:none"
             d="m 0,0 c 0.3,0.786 0.314,0.971 -0.164,1.063 l -0.437,0.081 c -0.122,0.093 -0.081,0.336 0.083,0.393 0.75,0.058 1.596,0.104 2.661,0.104 1.078,0 2.006,-0.092 2.675,-0.404 0.669,-0.313 1.133,-0.879 1.133,-1.642 0,-1.711 -2.034,-2.451 -3.836,-2.451 -0.15,0 -0.313,0 -0.436,0.011 -0.096,0.081 -0.096,0.22 0,0.324 1.474,0.197 2.334,1.191 2.334,2.428 C 4.013,0.601 3.59,1.11 2.716,1.11 2.266,1.11 2.238,1.075 2.115,0.751 L 0.218,-4.36 C -0.137,-5.295 -0.137,-5.516 0.56,-5.608 l 0.423,-0.057 c 0.082,-0.059 0.041,-0.324 -0.096,-0.394 -0.791,0.024 -1.447,0.035 -2.102,0.035 -0.655,0 -1.269,-0.011 -1.952,-0.035 -0.136,0.07 -0.15,0.37 0.041,0.394 l 0.396,0.057 c 0.587,0.081 0.683,0.173 1.092,1.248 L 0,0 Z" /></g><g
           transform="translate(58.3973,143.3994)"
           id="g150"><path
             id="path152"
             style="fill:#00003d;fill-opacity:1;fill-rule:nonzero;stroke:none"
             d="M 0,0 C -0.573,-0.093 -0.682,-0.174 -1.078,-1.249 L -2.061,-3.92 c -0.123,-0.335 -0.273,-0.913 -0.287,-1.272 -0.013,-0.983 0.533,-1.583 1.761,-1.583 1.638,0 2.416,1.272 2.921,2.658 l 0.601,1.631 c 0.272,0.751 0.477,1.445 0.532,1.653 C 3.604,-0.255 3.59,-0.104 2.893,0 L 2.484,0.057 C 2.402,0.161 2.402,0.369 2.552,0.45 3.29,0.427 3.754,0.416 4.272,0.416 4.859,0.416 5.228,0.427 5.855,0.45 5.979,0.381 5.979,0.138 5.828,0.057 L 5.501,-0.012 C 4.887,-0.139 4.668,-0.255 4.422,-0.821 4.313,-1.052 4.026,-1.735 3.754,-2.486 L 3.126,-4.185 C 2.771,-5.146 2.402,-6 1.556,-6.626 0.928,-7.099 -0.136,-7.399 -1.187,-7.399 c -1.72,0 -3.044,0.508 -3.044,2.034 0,0.324 0.109,0.81 0.26,1.226 l 1.05,2.89 c 0.342,0.936 0.355,1.156 -0.341,1.26 L -3.59,0.057 c -0.136,0.07 -0.081,0.324 0.123,0.393 0.655,-0.023 1.324,-0.034 1.979,-0.034 0.669,0 1.256,0.011 1.898,0.034 C 0.546,0.381 0.519,0.104 0.341,0.057 L 0,0 Z" /></g><g
           transform="translate(67.261,139.4097)"
           id="g154"><path
             id="path156"
             style="fill:#00003d;fill-opacity:1;fill-rule:nonzero;stroke:none"
             d="m 0,0 c 0.328,0 0.341,0.024 0.355,0.313 l 0.082,1.422 c 0.014,0.346 0.041,0.983 0.068,1.237 l -0.027,0 C 0.273,2.694 -0.054,2.267 -0.382,1.839 L -1.57,0.255 C -1.733,0.047 -1.693,0 -1.31,0 L 0,0 Z m -1.802,-0.612 c -0.409,0 -0.436,0.011 -0.6,-0.231 l -0.901,-1.226 c -0.232,-0.347 -0.259,-0.44 -0.259,-0.509 0,-0.092 0.205,-0.173 0.45,-0.208 l 0.491,-0.058 c 0.137,-0.081 0.096,-0.358 -0.068,-0.416 -0.682,0.023 -1.242,0.035 -1.843,0.035 -0.477,0 -0.928,-0.012 -1.31,-0.035 -0.191,0.058 -0.191,0.335 -0.068,0.416 l 0.328,0.046 c 0.682,0.093 0.846,0.197 1.542,1.053 1.215,1.526 2.457,3.052 3.672,4.578 0.422,0.544 0.819,1.041 0.873,1.26 0.764,0.046 1.406,0.497 1.419,0.497 l 0.028,0 c 0.136,0 0.246,-0.057 0.246,-0.184 0,-2.047 -0.096,-4.105 -0.096,-6.151 0,-0.81 0,-1.006 0.655,-1.075 l 0.328,-0.035 c 0.109,-0.07 0.082,-0.359 -0.041,-0.405 -0.505,0.023 -1.242,0.035 -1.925,0.035 -0.764,0 -1.379,-0.012 -1.801,-0.035 -0.178,0.046 -0.15,0.324 -0.069,0.405 l 0.314,0.035 c 0.628,0.069 0.696,0.219 0.71,0.497 l 0.055,1.468 c 0.013,0.231 -0.014,0.243 -0.437,0.243 l -1.693,0 z" /></g><g
           transform="translate(78.144,143.8155)"
           id="g158"><path
             id="path160"
             style="fill:#00003d;fill-opacity:1;fill-rule:nonzero;stroke:none"
             d="M 0,0 C 0.874,0 1.651,0.011 1.856,0.034 1.76,-0.162 1.406,-0.995 1.16,-1.781 1.092,-1.908 0.737,-1.92 0.641,-1.827 c 0.041,0.416 0,0.751 -0.054,0.89 -0.109,0.266 -0.464,0.405 -1.147,0.405 l -1.064,0 c -0.464,0 -0.505,-0.023 -0.669,-0.463 l -0.751,-2.012 c -0.123,-0.323 -0.095,-0.346 0.259,-0.346 l 0.901,0 c 0.71,0 0.888,0.092 1.242,0.647 l 0.178,0.278 c 0.136,0.104 0.477,0.092 0.518,-0.012 -0.163,-0.358 -0.327,-0.786 -0.505,-1.226 -0.163,-0.439 -0.286,-0.855 -0.409,-1.225 -0.109,-0.093 -0.464,-0.104 -0.519,-0.012 l 0.041,0.289 c 0.082,0.556 -0.054,0.648 -0.764,0.648 l -0.901,0 c -0.355,0 -0.409,-0.035 -0.518,-0.347 L -4.04,-5.724 c -0.205,-0.543 -0.3,-0.902 -0.192,-1.097 0.124,-0.197 0.342,-0.278 1.339,-0.278 1.187,0 1.664,0.035 2.784,1.329 0.15,0.093 0.464,0.07 0.546,-0.069 -0.233,-0.578 -0.751,-1.514 -1.051,-1.827 -0.423,0.011 -0.969,0.024 -1.543,0.024 -0.573,0.011 -1.187,0.011 -1.747,0.011 l -1.774,0 c -0.682,0 -1.297,-0.011 -1.979,-0.035 -0.136,0.07 -0.123,0.359 0.068,0.405 l 0.464,0.057 c 0.642,0.081 0.751,0.162 1.146,1.237 l 1.597,4.302 c 0.342,0.936 0.356,1.156 -0.286,1.249 L -4.996,-0.37 C -5.118,-0.289 -5.091,-0.024 -4.9,0.034 -4.259,0.011 -3.562,0 -3.03,0 L 0,0 Z" /></g><g
           transform="translate(44,152)"
           id="g162"><path
             id="path164"
             style="fill:#00003d;fill-opacity:1;fill-rule:nonzero;stroke:none"
             d="m 0,0 9.04,8 0,-3.495 3.823,3.495 0,-5.369 c 0,0 2.628,5.117 2.787,5.117 0.16,0 6.253,-0.036 6.253,-0.036 l -0.996,-1.874 -3.624,0 -0.518,-1.009 2.031,0 -1.194,-2.09 -1.553,0 -0.438,-0.829 7.327,0 0.478,0.793 -3.664,0 2.828,5.081 6.371,0 -1.115,-1.982 -3.624,0 -0.597,-0.973 3.743,0 L 24.73,0 10.115,0 10.195,2.595 7.288,0 7.168,2.631 4.261,0 0,0 Z" /></g><g
           transform="translate(72.9513,159.7117)"
           id="g166"><path
             id="path168"
             style="fill:#00003d;fill-opacity:1;fill-rule:nonzero;stroke:none"
             d="M 0,0 C 0,0 -0.028,0 -0.078,0 L -0.781,-1.47 0,0 Z" /></g><g
           transform="translate(78.8849,157.8018)"
           id="g170"><path
             id="path172"
             style="fill:#00003d;fill-opacity:1;fill-rule:nonzero;stroke:none"
             d="m 0,0 1.115,1.982 -6.372,0 -2.827,-5.081 3.664,0 -0.478,-0.793 -3.531,0 -1.083,-1.91 6.406,0 2.628,4.829 -3.743,0 L -3.624,0 0,0 Z" /></g></g></g></g></svg>