<?xml version="1.0" encoding="UTF-8" standalone="no"?>
<svg
   xmlns:dc="http://purl.org/dc/elements/1.1/"
   xmlns:cc="http://creativecommons.org/ns#"
   xmlns:rdf="http://www.w3.org/1999/02/22-rdf-syntax-ns#"
   xmlns:svg="http://www.w3.org/2000/svg"
   xmlns="http://www.w3.org/2000/svg"
   viewBox="0 0 320 320"
   height="320"
   width="320"
   xml:space="preserve"
   version="1.1"
   id="svg2"><metadata
     id="metadata8"><rdf:RDF><cc:Work
         rdf:about=""><dc:format>image/svg+xml</dc:format><dc:type
           rdf:resource="http://purl.org/dc/dcmitype/StillImage" /></cc:Work></rdf:RDF></metadata><defs
     id="defs6"><clipPath
       id="clipPath16"
       clipPathUnits="userSpaceOnUse"><path
         id="path18"
         d="M 0,256 256,256 256,0 0,0 0,256 Z" /></clipPath><clipPath
       id="clipPath24"
       clipPathUnits="userSpaceOnUse"><path
         id="path26"
         d="M 4,252 252,252 252,4 4,4 4,252 Z" /></clipPath><clipPath
       id="clipPath40"
       clipPathUnits="userSpaceOnUse"><path
         id="path42"
         d="m 94.8573,161.143 66.2857,0 0,-66.2859 -66.2857,0 0,66.2859 z" /></clipPath></defs><g
     transform="matrix(1.25,0,0,-1.25,0,320)"
     id="g10"><g
       id="g12"><g
         clip-path="url(#clipPath16)"
         id="g14"><g
           id="g20"><g
             id="g22" /><g
             id="g28"><g
               style="opacity:0.5"
               id="g30"
               clip-path="url(#clipPath24)"><g
                 id="g32"
                 transform="translate(128,98)"><path
                   id="path34"
                   style="fill:#ffffff;fill-opacity:1;fill-rule:nonzero;stroke:none"
                   d="M 0,0 C -16.569,0 -30,13.431 -30,30 -30,46.568 -16.569,60 0,60 16.569,60 30,46.568 30,30 30,13.431 16.569,0 0,0 m 111.857,154 -223.714,0 C -118.553,154 -124,148.553 -124,141.857 l 0,-223.714 c 0,-6.696 5.447,-12.143 12.143,-12.143 l 79.857,0 8,0 48,0 8,0 79.857,0 c 6.696,0 12.143,5.447 12.143,12.143 L 124,82 l 0,8 0,51.857 C 124,148.553 118.553,154 111.857,154" /></g></g></g></g><g
           id="g36"><g
             id="g38" /><g
             id="g44"><g
               style="opacity:0.5"
               id="g46"
               clip-path="url(#clipPath40)"><g
                 id="g48"
                 transform="translate(128.0001,152.8571)"><path
                   id="path50"
                   style="fill:#efefef;fill-opacity:1;fill-rule:nonzero;stroke:none"
                   d="m 0,0 c 13.728,0 24.857,-11.129 24.857,-24.857 0,-13.728 -11.129,-24.857 -24.857,-24.857 -13.728,0 -24.857,11.129 -24.857,24.857 C -24.857,-11.129 -13.728,0 0,0 m 0,8.286 c -18.304,0 -33.143,-14.839 -33.143,-33.143 C -33.143,-43.161 -18.304,-58 0,-58 18.304,-58 33.143,-43.161 33.143,-24.857 33.143,-6.553 18.304,8.286 0,8.286" /></g></g></g></g><g
           transform="translate(128.0001,157)"
           id="g52"><path
             id="path54"
             style="fill:#454545;fill-opacity:1;fill-rule:nonzero;stroke:none"
             d="m 0,0 c 16.016,0 29,-12.984 29,-29 0,-16.016 -12.984,-29 -29,-29 -16.016,0 -29,12.984 -29,29 0,16.016 12.984,29 29,29 m 0,87 c -64.065,0 -116,-51.935 -116,-116 0,-64.065 51.935,-116 116,-116 64.065,0 116,51.935 116,116 C 116,35.065 64.065,87 0,87" /></g><g
           transform="translate(128.0001,156)"
           id="g56"><path
             id="path58"
             style="fill:#4f4f4f;fill-opacity:1;fill-rule:nonzero;stroke:none"
             d="m 0,0 c 15.464,0 28,-12.536 28,-28 0,-15.464 -12.536,-28 -28,-28 -15.464,0 -28,12.536 -28,28 0,15.464 12.536,28 28,28 m 0,30 c -32.033,0 -58,-25.967 -58,-58 0,-32.033 25.967,-58 58,-58 32.033,0 58,25.967 58,58 C 58,4.033 32.033,30 0,30" /></g><g
           transform="translate(128.0001,76)"
           id="g60"><path
             id="path62"
             style="fill:#3b3b3b;fill-opacity:1;fill-rule:nonzero;stroke:none"
             d="m 0,0 c 6.648,0 12,-5.352 12,-12 l 0,-32 c 0,-6.648 -5.352,-12 -12,-12 -6.648,0 -12,5.352 -12,12 l 0,32 c 0,6.648 5.352,12 12,12 m 42,43.5 c 3.314,0 6,-2.686 6,-6 0,-3.314 -2.686,-6 -6,-6 -3.314,0 -6,2.686 -6,6 0,3.314 2.686,6 6,6 M 0,84 C 17.673,84 32,69.673 32,52 32,34.327 17.673,20 0,20 c -17.673,0 -32,14.327 -32,32 0,17.673 14.327,32 32,32 m -111.857,84 c -2.295,0 -4.143,-1.848 -4.143,-4.143 l 0,-223.714 c 0,-2.295 1.848,-4.143 4.143,-4.143 L -32,-64 c 0,2.288 1.712,4.143 4,4.143 2.288,0 4,-1.855 4,-4.143 l 48,0 c 0,2.288 1.712,4.143 4,4.143 2.288,0 4,-1.855 4,-4.143 l 79.857,0 c 2.295,0 4.143,1.848 4.143,4.143 l 0,163.857 -4.143,0 0,8 4.143,0 0,51.857 c 0,2.295 -1.848,4.143 -4.143,4.143 l -223.714,0 z" /></g><g
           transform="translate(24.154,236)"
           id="g64"><path
             id="path66"
             style="fill:#00007b;fill-opacity:1;fill-rule:nonzero;stroke:none"
             d="m 0,0 207.692,0 c 2.294,0 4.154,-1.791 4.154,-4 l 0,-48 c 0,-2.209 -1.86,-4 -4.154,-4 L 0,-56 c -2.294,0 -4.154,1.791 -4.154,4 l 0,48 c 0,2.209 1.86,4 4.154,4" /></g><g
           transform="translate(227,184)"
           id="g68"><path
             id="path70"
             style="fill:#d9d9d9;fill-opacity:1;fill-rule:nonzero;stroke:none"
             d="m 0,0 -78,0 c -0.55,0 -1,0.45 -1,1 l 0,46 c 0,0.55 0.45,1 1,1 l 78,0 c 0.55,0 1,-0.45 1,-1 L 1,1 C 1,0.45 0.55,0 0,0" /></g><path
           id="path72"
           style="fill:#cccccc;fill-opacity:1;fill-rule:nonzero;stroke:none"
           d="m 228,220 -80,0 0,4 80,0 0,-4 z" /><path
           id="path74"
           style="fill:#cccccc;fill-opacity:1;fill-rule:nonzero;stroke:none"
           d="m 228,212 -80,0 0,4 80,0 0,-4 z" /><path
           id="path76"
           style="fill:#cccccc;fill-opacity:1;fill-rule:nonzero;stroke:none"
           d="m 228,204 -80,0 0,4 80,0 0,-4 z" /><path
           id="path78"
           style="fill:#cccccc;fill-opacity:1;fill-rule:nonzero;stroke:none"
           d="m 228,196 -80,0 0,4 80,0 0,-4 z" /><path
           id="path80"
           style="fill:#cccccc;fill-opacity:1;fill-rule:nonzero;stroke:none"
           d="m 228,188 -80,0 0,4 80,0 0,-4 z" /><g
           transform="translate(64.1904,220.969)"
           id="g82"><path
             id="path84"
             style="fill:#0000b8;fill-opacity:1;fill-rule:nonzero;stroke:none"
             d="m 0,0 -0.001,3.401 -3.116,0 -11.164,-10.816 -11.164,10.816 -3.116,0 0,-3.401 11.199,-10.4 -11.199,-10.851 0,-3.681 2.207,0 12.073,11.577 12.073,-11.577 2.207,0 0,3.681 L -11.2,-10.4 0,0 Z" /></g><g
           transform="translate(68,228)"
           id="g86"><path
             id="path88"
             style="fill:#00003d;fill-opacity:1;fill-rule:nonzero;stroke:none"
             d="m 0,0 -3.63,0 -28.74,0 -3.63,0 0,-3.63 0,-28.74 0,-3.63 3.63,0 28.74,0 3.63,0 0,3.63 L 0,-3.63 0,0 Z m -3.63,-32.37 -28.74,0 0,28.74 28.74,0 0,-28.74 z" /></g><g
           transform="translate(50.1465,207.8628)"
           id="g90"><path
             id="path92"
             style="fill:#ffffff;fill-opacity:1;fill-rule:nonzero;stroke:none"
             d="m 0,0 c 0.604,0 1.114,0.211 1.532,0.632 0.418,0.422 0.626,1.186 0.626,2.294 0,0.9 -0.172,1.606 -0.517,2.118 C 1.296,5.555 0.76,5.811 0.034,5.811 -1.4,5.811 -2.118,4.836 -2.118,2.885 -2.118,1.939 -1.935,1.221 -1.569,0.733 -1.204,0.244 -0.681,0 0,0 m -0.014,-1.138 c -1.234,0 -2.196,0.391 -2.883,1.173 -0.688,0.781 -1.032,1.747 -1.032,2.896 0,1.142 0.366,2.097 1.096,2.866 0.731,0.768 1.696,1.152 2.894,1.152 1.208,0 2.162,-0.384 2.863,-1.152 C 3.626,5.028 3.976,4.068 3.976,2.914 3.976,1.703 3.612,0.725 2.884,-0.02 2.155,-0.765 1.189,-1.138 -0.014,-1.138" /></g><g
           transform="translate(57.4751,209.0671)"
           id="g94"><path
             id="path96"
             style="fill:#ffffff;fill-opacity:1;fill-rule:nonzero;stroke:none"
             d="m 0,0 1.605,0.001 c 0.187,-0.778 0.905,-1.205 2.154,-1.205 0.57,0 1.008,0.099 1.315,0.299 0.306,0.199 0.46,0.446 0.46,0.741 0,0.215 -0.07,0.413 -0.209,0.595 C 5.186,0.613 4.888,0.756 4.431,0.859 L 2.728,1.25 C 2.145,1.384 1.714,1.537 1.436,1.707 1.157,1.878 0.934,2.118 0.767,2.428 0.599,2.739 0.516,3.07 0.516,3.423 c 0,0.701 0.296,1.263 0.887,1.687 0.592,0.423 1.349,0.635 2.271,0.635 0.765,0 1.45,-0.148 2.052,-0.443 0.602,-0.295 1.277,-1.37 1.442,-1.91 L 5.361,3.408 C 5.126,4.002 4.568,4.607 3.706,4.607 3.206,4.607 2.825,4.515 2.561,4.331 2.298,4.147 2.167,3.913 2.167,3.63 2.167,3.181 2.58,2.867 3.406,2.687 L 4.92,2.354 C 5.838,2.151 6.454,1.851 6.767,1.454 7.08,1.058 7.237,0.62 7.237,0.141 c 0,-0.77 -0.33,-1.377 -0.989,-1.819 -0.659,-0.443 -1.513,-0.664 -2.561,-0.664 -0.883,0 -1.656,0.163 -2.32,0.488 C 0.704,-1.528 0.217,-0.69 0,0" /></g><g
           transform="translate(54.5163,195.477)"
           id="g98"><path
             id="path100"
             style="fill:#ffffff;fill-opacity:1;fill-rule:nonzero;stroke:none"
             d="M 0,0 -2.199,0 -4.513,3.554 -6.965,0 -8.72,0 l 3.31,4.696 -2.843,4.32 2.192,0 1.931,-2.999 2.046,2.999 1.762,0 L -3.234,4.901 0,0 Z" /></g><g
           transform="translate(40.8652,208.7135)"
           id="g102"><path
             id="path104"
             style="fill:#ffffff;fill-opacity:1;fill-rule:nonzero;stroke:none"
             d="m 0,0 c -0.395,-0.475 -0.875,-0.713 -1.441,-0.713 l -0.798,0 -0.022,0 0,5.576 0.969,0 c 0.566,0 1.022,-0.266 1.367,-0.796 C 0.419,3.536 0.592,2.887 0.592,2.121 0.592,1.182 0.395,0.475 0,0 m 1.096,4.843 c -0.58,0.756 -1.348,1.135 -2.305,1.135 l -4.413,0 0,-1.115 1.096,0 0,-5.576 -1.14,0 0,-1.161 4.173,0.006 c 1.112,0 1.966,0.374 2.563,1.121 0.597,0.747 0.896,1.676 0.896,2.788 0,1.111 -0.29,2.045 -0.87,2.802" /></g><g
           transform="translate(52.5466,218.4812)"
           id="g106"><path
             id="path108"
             style="fill:#ffffff;fill-opacity:1;fill-rule:nonzero;stroke:none"
             d="m 0,0 c -0.235,-0.205 -0.556,-0.307 -0.961,-0.307 l -1.917,0 0,2.272 1.923,0 c 0.394,0 0.71,-0.106 0.949,-0.318 C 0.233,1.434 0.352,1.161 0.352,0.829 0.352,0.481 0.235,0.205 0,0 m -2.878,5.288 1.778,0 c 0.33,0 0.617,-0.086 0.862,-0.258 C 0.007,4.858 0.13,4.59 0.13,4.227 0.13,3.898 0.022,3.627 -0.193,3.415 -0.408,3.202 -0.7,3.096 -1.07,3.096 l -1.808,0 0,2.192 z M 1.413,1.931 C 1.116,2.286 0.678,2.512 0.099,2.609 c 0.467,0.089 0.832,0.295 1.097,0.617 0.265,0.323 0.398,0.703 0.398,1.14 0,0.464 -0.131,0.867 -0.392,1.212 -0.261,0.343 -0.57,0.57 -0.928,0.678 -0.357,0.108 -0.807,0.162 -1.35,0.162 l -5.177,0 0,-1.13 1.107,0 0,-5.639 -1.107,0 0,-1.13 5.569,-0.015 c 0.864,0 1.504,0.208 1.919,0.623 0.416,0.416 0.624,0.929 0.624,1.54 0,0.487 -0.148,0.908 -0.446,1.264" /></g></g></g></g></svg>