<?xml version="1.0" encoding="UTF-8" standalone="no"?>
<svg
   xmlns:dc="http://purl.org/dc/elements/1.1/"
   xmlns:cc="http://creativecommons.org/ns#"
   xmlns:rdf="http://www.w3.org/1999/02/22-rdf-syntax-ns#"
   xmlns:svg="http://www.w3.org/2000/svg"
   xmlns="http://www.w3.org/2000/svg"
   viewBox="0 0 320 320"
   height="320"
   width="320"
   xml:space="preserve"
   version="1.1"
   id="svg2"><metadata
     id="metadata8"><rdf:RDF><cc:Work
         rdf:about=""><dc:format>image/svg+xml</dc:format><dc:type
           rdf:resource="http://purl.org/dc/dcmitype/StillImage" /></cc:Work></rdf:RDF></metadata><defs
     id="defs6"><clipPath
       id="clipPath16"
       clipPathUnits="userSpaceOnUse"><path
         id="path18"
         d="M 0,256 256,256 256,0 0,0 0,256 Z" /></clipPath><clipPath
       id="clipPath24"
       clipPathUnits="userSpaceOnUse"><path
         id="path26"
         d="M 4,200 252,200 252,56 4,56 4,200 Z" /></clipPath><clipPath
       id="clipPath216"
       clipPathUnits="userSpaceOnUse"><path
         id="path218"
         d="M 0,256 256,256 256,0 0,0 0,256 Z" /></clipPath></defs><g
     transform="matrix(1.25,0,0,-1.25,0,320)"
     id="g10"><g
       id="g12"><g
         clip-path="url(#clipPath16)"
         id="g14"><g
           id="g20"><g
             id="g22" /><g
             id="g28"><g
               style="opacity:0.5"
               id="g30"
               clip-path="url(#clipPath24)"><g
                 id="g32"
                 transform="translate(244,196)"><path
                   id="path34"
                   style="fill:#ffffff;fill-opacity:1;fill-rule:nonzero;stroke:none"
                   d="m 0,0 -124,0 0,4 -8,0 -88,0 -8,0 0,-4 -4,0 -8,0 0,-8 0,-4 0,-24 0,-8 0,-8 4,0 0,-80 0,-8 8,0 224,0 8,0 0,8 0,80 4,0 0,8 0,8 0,24 0,4 0,8 -8,0 z" /></g></g></g></g></g></g><path
       id="path36"
       style="fill:#8c8c8c;fill-opacity:1;fill-rule:nonzero;stroke:none"
       d="m 240,64 -224,0 0,88 224,0 0,-88 z" /><path
       id="path38"
       style="fill:#808080;fill-opacity:1;fill-rule:nonzero;stroke:none"
       d="m 244,152 -232,0 0,36 232,0 0,-36 z" /><path
       id="path40"
       style="fill:#8c8c8c;fill-opacity:1;fill-rule:nonzero;stroke:none"
       d="m 244,160 -232,0 0,24 232,0 0,-24 z" /><path
       id="path42"
       style="fill:#999999;fill-opacity:1;fill-rule:nonzero;stroke:none"
       d="m 236,164 -88,0 0,16 88,0 0,-16 z" /><g
       transform="translate(222.8185,176)"
       id="g44"><path
         id="path46"
         style="fill:#333333;fill-opacity:1;fill-rule:nonzero;stroke:none"
         d="m 0,0 -61.637,0 -1.181,0 0,-0.762 0,-6.476 0,-0.762 1.181,0 61.637,0 1.182,0 0,0.762 0,6.476 L 1.182,0 0,0 Z" /></g><path
       id="path48"
       style="fill:#404040;fill-opacity:1;fill-rule:nonzero;stroke:none"
       d="m 112,152 -88,0 0,32 88,0 0,-32 z" /><path
       id="path50"
       style="fill:#b3b3b3;fill-opacity:1;fill-rule:nonzero;stroke:none"
       d="m 112,150 -88,0 0,12 88,0 0,-12 z" /><path
       id="path52"
       style="fill:#b3b3b3;fill-opacity:1;fill-rule:nonzero;stroke:none"
       d="m 112,184 -88,0 0,8 88,0 0,-8 z" /><path
       id="path54"
       style="fill:#b3b3b3;fill-opacity:1;fill-rule:nonzero;stroke:none"
       d="m 112,180 -88,0 0,2 88,0 0,-2 z" /><path
       id="path56"
       style="fill:#b3b3b3;fill-opacity:1;fill-rule:nonzero;stroke:none"
       d="m 112,176 -88,0 0,2 88,0 0,-2 z" /><path
       id="path58"
       style="fill:#b3b3b3;fill-opacity:1;fill-rule:nonzero;stroke:none"
       d="m 112,172 -88,0 0,2 88,0 0,-2 z" /><path
       id="path60"
       style="fill:#b3b3b3;fill-opacity:1;fill-rule:nonzero;stroke:none"
       d="m 112,168 -88,0 0,2 88,0 0,-2 z" /><path
       id="path62"
       style="fill:#b3b3b3;fill-opacity:1;fill-rule:nonzero;stroke:none"
       d="m 112,164 -88,0 0,2 88,0 0,-2 z" /><path
       id="path64"
       style="fill:#4c4c4c;fill-opacity:1;fill-rule:nonzero;stroke:none"
       d="m 236,72 -216,0 0,80 216,0 0,-80 z" /><path
       id="path66"
       style="fill:#999999;fill-opacity:1;fill-rule:nonzero;stroke:none"
       d="m 48,144 -12,0 0,4 12,0 0,-4 z" /><path
       id="path68"
       style="fill:#999999;fill-opacity:1;fill-rule:nonzero;stroke:none"
       d="m 64,144 -12,0 0,4 12,0 0,-4 z" /><path
       id="path70"
       style="fill:#999999;fill-opacity:1;fill-rule:nonzero;stroke:none"
       d="m 80,144 -12,0 0,4 12,0 0,-4 z" /><path
       id="path72"
       style="fill:#999999;fill-opacity:1;fill-rule:nonzero;stroke:none"
       d="m 96,144 -12,0 0,4 12,0 0,-4 z" /><path
       id="path74"
       style="fill:#999999;fill-opacity:1;fill-rule:nonzero;stroke:none"
       d="m 112,144 -12,0 0,4 12,0 0,-4 z" /><path
       id="path76"
       style="fill:#999999;fill-opacity:1;fill-rule:nonzero;stroke:none"
       d="m 168,144 -12,0 0,4 12,0 0,-4 z" /><path
       id="path78"
       style="fill:#999999;fill-opacity:1;fill-rule:nonzero;stroke:none"
       d="m 184,144 -12,0 0,4 12,0 0,-4 z" /><path
       id="path80"
       style="fill:#999999;fill-opacity:1;fill-rule:nonzero;stroke:none"
       d="m 232,144 -12,0 0,4 12,0 0,-4 z" /><path
       id="path82"
       style="fill:#999999;fill-opacity:1;fill-rule:nonzero;stroke:none"
       d="m 216,144 -12,0 0,4 12,0 0,-4 z" /><path
       id="path84"
       style="fill:#999999;fill-opacity:1;fill-rule:nonzero;stroke:none"
       d="m 200,144 -12,0 0,4 12,0 0,-4 z" /><g
       transform="translate(198.17,125.3449)"
       id="g86"><path
         id="path88"
         style="fill:#3b96cc;fill-opacity:1;fill-rule:nonzero;stroke:none"
         d="m 0,0 -2.17,-1.79 0,-23.11 L 0,-26.69 13.067,-13.345 0,0 Z" /></g><g
       transform="translate(225.83,98.6551)"
       id="g90"><path
         id="path92"
         style="fill:#3b96cc;fill-opacity:1;fill-rule:nonzero;stroke:none"
         d="M 0,0 2.17,1.79 2.17,24.9 0,26.69 -13.067,13.345 0,0 Z" /></g><g
       transform="translate(225.3449,125.83)"
       id="g94"><path
         id="path96"
         style="fill:#3b96cc;fill-opacity:1;fill-rule:nonzero;stroke:none"
         d="M 0,0 -1.79,2.17 -24.9,2.17 -26.69,0 -13.345,-13.067 0,0 Z" /></g><g
       transform="translate(198.6551,98.17)"
       id="g98"><path
         id="path100"
         style="fill:#3b96cc;fill-opacity:1;fill-rule:nonzero;stroke:none"
         d="m 0,0 1.79,-2.17 23.11,0 L 26.69,0 13.345,13.067 0,0 Z" /></g><path
       id="path102"
       style="fill:#999999;fill-opacity:1;fill-rule:nonzero;stroke:none"
       d="m 32,128 -8,0 0,8 8,0 0,-8 z" /><path
       id="path104"
       style="fill:#d9d9d9;fill-opacity:1;fill-rule:nonzero;stroke:none"
       d="m 44,128 -8,0 0,8 8,0 0,-8 z" /><path
       id="path106"
       style="fill:#d9d9d9;fill-opacity:1;fill-rule:nonzero;stroke:none"
       d="m 56,128 -8,0 0,8 8,0 0,-8 z" /><path
       id="path108"
       style="fill:#d9d9d9;fill-opacity:1;fill-rule:nonzero;stroke:none"
       d="m 68,128 -8,0 0,8 8,0 0,-8 z" /><path
       id="path110"
       style="fill:#d9d9d9;fill-opacity:1;fill-rule:nonzero;stroke:none"
       d="m 80,128 -8,0 0,8 8,0 0,-8 z" /><path
       id="path112"
       style="fill:#d9d9d9;fill-opacity:1;fill-rule:nonzero;stroke:none"
       d="m 92,128 -8,0 0,8 8,0 0,-8 z" /><path
       id="path114"
       style="fill:#d9d9d9;fill-opacity:1;fill-rule:nonzero;stroke:none"
       d="m 104,128 -8,0 0,8 8,0 0,-8 z" /><path
       id="path116"
       style="fill:#d9d9d9;fill-opacity:1;fill-rule:nonzero;stroke:none"
       d="m 116,128 -8,0 0,8 8,0 0,-8 z" /><path
       id="path118"
       style="fill:#d9d9d9;fill-opacity:1;fill-rule:nonzero;stroke:none"
       d="m 128,128 -8,0 0,8 8,0 0,-8 z" /><path
       id="path120"
       style="fill:#d9d9d9;fill-opacity:1;fill-rule:nonzero;stroke:none"
       d="m 140,128 -8,0 0,8 8,0 0,-8 z" /><path
       id="path122"
       style="fill:#d9d9d9;fill-opacity:1;fill-rule:nonzero;stroke:none"
       d="m 152,128 -8,0 0,8 8,0 0,-8 z" /><path
       id="path124"
       style="fill:#d9d9d9;fill-opacity:1;fill-rule:nonzero;stroke:none"
       d="m 164,128 -8,0 0,8 8,0 0,-8 z" /><path
       id="path126"
       style="fill:#d9d9d9;fill-opacity:1;fill-rule:nonzero;stroke:none"
       d="m 48,116 -8,0 0,8 8,0 0,-8 z" /><path
       id="path128"
       style="fill:#999999;fill-opacity:1;fill-rule:nonzero;stroke:none"
       d="m 36,116 -12,0 0,8 12,0 0,-8 z" /><path
       id="path130"
       style="fill:#999999;fill-opacity:1;fill-rule:nonzero;stroke:none"
       d="m 40,104 -16,0 0,8 16,0 0,-8 z" /><path
       id="path132"
       style="fill:#999999;fill-opacity:1;fill-rule:nonzero;stroke:none"
       d="m 48,92 -24,0 0,8 24,0 0,-8 z" /><path
       id="path134"
       style="fill:#d9d9d9;fill-opacity:1;fill-rule:nonzero;stroke:none"
       d="m 60,116 -8,0 0,8 8,0 0,-8 z" /><path
       id="path136"
       style="fill:#d9d9d9;fill-opacity:1;fill-rule:nonzero;stroke:none"
       d="m 72,116 -8,0 0,8 8,0 0,-8 z" /><path
       id="path138"
       style="fill:#d9d9d9;fill-opacity:1;fill-rule:nonzero;stroke:none"
       d="m 84,116 -8,0 0,8 8,0 0,-8 z" /><path
       id="path140"
       style="fill:#d9d9d9;fill-opacity:1;fill-rule:nonzero;stroke:none"
       d="m 96,116 -8,0 0,8 8,0 0,-8 z" /><path
       id="path142"
       style="fill:#d9d9d9;fill-opacity:1;fill-rule:nonzero;stroke:none"
       d="m 108,116 -8,0 0,8 8,0 0,-8 z" /><path
       id="path144"
       style="fill:#d9d9d9;fill-opacity:1;fill-rule:nonzero;stroke:none"
       d="m 120,116 -8,0 0,8 8,0 0,-8 z" /><path
       id="path146"
       style="fill:#d9d9d9;fill-opacity:1;fill-rule:nonzero;stroke:none"
       d="m 132,116 -8,0 0,8 8,0 0,-8 z" /><path
       id="path148"
       style="fill:#d9d9d9;fill-opacity:1;fill-rule:nonzero;stroke:none"
       d="m 144,116 -8,0 0,8 8,0 0,-8 z" /><path
       id="path150"
       style="fill:#d9d9d9;fill-opacity:1;fill-rule:nonzero;stroke:none"
       d="m 156,116 -8,0 0,8 8,0 0,-8 z" /><path
       id="path152"
       style="fill:#d9d9d9;fill-opacity:1;fill-rule:nonzero;stroke:none"
       d="m 168,116 -8,0 0,8 8,0 0,-8 z" /><path
       id="path154"
       style="fill:#d9d9d9;fill-opacity:1;fill-rule:nonzero;stroke:none"
       d="m 60,92 -8,0 0,8 8,0 0,-8 z" /><path
       id="path156"
       style="fill:#d9d9d9;fill-opacity:1;fill-rule:nonzero;stroke:none"
       d="m 148,80 -96,0 0,8 96,0 0,-8 z" /><path
       id="path158"
       style="fill:#d9d9d9;fill-opacity:1;fill-rule:nonzero;stroke:none"
       d="m 72,92 -8,0 0,8 8,0 0,-8 z" /><path
       id="path160"
       style="fill:#d9d9d9;fill-opacity:1;fill-rule:nonzero;stroke:none"
       d="m 84,92 -8,0 0,8 8,0 0,-8 z" /><path
       id="path162"
       style="fill:#d9d9d9;fill-opacity:1;fill-rule:nonzero;stroke:none"
       d="m 96,92 -8,0 0,8 8,0 0,-8 z" /><path
       id="path164"
       style="fill:#d9d9d9;fill-opacity:1;fill-rule:nonzero;stroke:none"
       d="m 108,92 -8,0 0,8 8,0 0,-8 z" /><path
       id="path166"
       style="fill:#d9d9d9;fill-opacity:1;fill-rule:nonzero;stroke:none"
       d="m 120,92 -8,0 0,8 8,0 0,-8 z" /><path
       id="path168"
       style="fill:#d9d9d9;fill-opacity:1;fill-rule:nonzero;stroke:none"
       d="m 132,92 -8,0 0,8 8,0 0,-8 z" /><path
       id="path170"
       style="fill:#d9d9d9;fill-opacity:1;fill-rule:nonzero;stroke:none"
       d="m 144,92 -8,0 0,8 8,0 0,-8 z" /><path
       id="path172"
       style="fill:#d9d9d9;fill-opacity:1;fill-rule:nonzero;stroke:none"
       d="m 156,92 -8,0 0,8 8,0 0,-8 z" /><path
       id="path174"
       style="fill:#d9d9d9;fill-opacity:1;fill-rule:nonzero;stroke:none"
       d="m 168,92 -8,0 0,8 8,0 0,-8 z" /><path
       id="path176"
       style="fill:#d9d9d9;fill-opacity:1;fill-rule:nonzero;stroke:none"
       d="m 52,104 -8,0 0,8 8,0 0,-8 z" /><path
       id="path178"
       style="fill:#d9d9d9;fill-opacity:1;fill-rule:nonzero;stroke:none"
       d="m 64,104 -8,0 0,8 8,0 0,-8 z" /><path
       id="path180"
       style="fill:#d9d9d9;fill-opacity:1;fill-rule:nonzero;stroke:none"
       d="m 76,104 -8,0 0,8 8,0 0,-8 z" /><path
       id="path182"
       style="fill:#d9d9d9;fill-opacity:1;fill-rule:nonzero;stroke:none"
       d="m 88,104 -8,0 0,8 8,0 0,-8 z" /><path
       id="path184"
       style="fill:#d9d9d9;fill-opacity:1;fill-rule:nonzero;stroke:none"
       d="m 100,104 -8,0 0,8 8,0 0,-8 z" /><path
       id="path186"
       style="fill:#d9d9d9;fill-opacity:1;fill-rule:nonzero;stroke:none"
       d="m 112,104 -8,0 0,8 8,0 0,-8 z" /><path
       id="path188"
       style="fill:#d9d9d9;fill-opacity:1;fill-rule:nonzero;stroke:none"
       d="m 124,104 -8,0 0,8 8,0 0,-8 z" /><path
       id="path190"
       style="fill:#d9d9d9;fill-opacity:1;fill-rule:nonzero;stroke:none"
       d="m 136,104 -8,0 0,8 8,0 0,-8 z" /><path
       id="path192"
       style="fill:#d9d9d9;fill-opacity:1;fill-rule:nonzero;stroke:none"
       d="m 148,104 -8,0 0,8 8,0 0,-8 z" /><path
       id="path194"
       style="fill:#d9d9d9;fill-opacity:1;fill-rule:nonzero;stroke:none"
       d="m 160,104 -8,0 0,8 8,0 0,-8 z" /><path
       id="path196"
       style="fill:#999999;fill-opacity:1;fill-rule:nonzero;stroke:none"
       d="m 160,80 -8,0 0,8 8,0 0,-8 z" /><path
       id="path198"
       style="fill:#999999;fill-opacity:1;fill-rule:nonzero;stroke:none"
       d="m 48,80 -8,0 0,8 8,0 0,-8 z" /><path
       id="path200"
       style="fill:#999999;fill-opacity:1;fill-rule:nonzero;stroke:none"
       d="m 36,80 -8,0 0,8 8,0 0,-8 z" /><path
       id="path202"
       style="fill:#d9d9d9;fill-opacity:1;fill-rule:nonzero;stroke:none"
       d="m 172,104 -8,0 0,8 8,0 0,-8 z" /><path
       id="path204"
       style="fill:#999999;fill-opacity:1;fill-rule:nonzero;stroke:none"
       d="m 184,104 -8,0 0,12 8,0 0,-12 z" /><path
       id="path206"
       style="fill:#999999;fill-opacity:1;fill-rule:nonzero;stroke:none"
       d="m 184,128 -16,0 0,8 16,0 0,-8 z" /><path
       id="path208"
       style="fill:#999999;fill-opacity:1;fill-rule:nonzero;stroke:none"
       d="m 184,92 -12,0 0,8 12,0 0,-8 z" /><path
       id="path210"
       style="fill:#999999;fill-opacity:1;fill-rule:nonzero;stroke:none"
       d="m 184,116 -12,0 0,8 12,0 0,-8 z" /><g
       id="g212"><g
         clip-path="url(#clipPath216)"
         id="g214"><g
           transform="translate(220.3545,84.1522)"
           id="g220"><path
             id="path222"
             style="fill:#d9d9d9;fill-opacity:1;fill-rule:nonzero;stroke:none"
             d="M 0,0 3.372,3.829 0.296,3.848 -1.549,1.749 -3.44,3.829 -10.872,3.824 c -1.845,0 -3.287,-1.052 -3.3,-2.388 -0.064,-1.457 1.255,-2.55 2.506,-2.541 l 2.914,-0.031 c 0.596,0 0.564,-0.877 0.039,-0.882 l -9.317,-0.007 0,5.873 -2.324,0 0,-7.98 11.803,0 c 0.941,-0.042 2.895,0.759 2.878,2.512 0.04,1.508 -1.58,2.474 -2.731,2.48 l -2.721,0.034 c -0.685,-0.017 -0.711,0.879 -0.006,0.884 l 6.46,0.008 1.55,-1.823 -3.555,-4.105 3.122,-0.003 2.018,2.383 2.122,-2.383 3.06,-0.007 L 0,0 Z" /></g><g
           transform="translate(28,190.2853)"
           id="g224"><path
             id="path226"
             style="fill:#404040;fill-opacity:1;fill-rule:nonzero;stroke:none"
             d="m 0,0 1.107,0 0,-4.186 2.645,0 0,-0.917 L 0,-5.103 0,0 Z" /></g><path
           id="path228"
           style="fill:#404040;fill-opacity:1;fill-rule:nonzero;stroke:none"
           d="m 32.001,188.956 1.039,0 0,-3.774 -1.039,0 0,3.774 z m 1.038,0.45 -1.039,0 0,0.911 1.039,0 0,-0.911 z" /><g
           transform="translate(36.0925,186.2034)"
           id="g230"><path
             id="path232"
             style="fill:#404040;fill-opacity:1;fill-rule:nonzero;stroke:none"
             d="m 0,0 c 0.147,0.205 0.221,0.475 0.221,0.81 0,0.268 -0.036,0.489 -0.109,0.665 -0.137,0.332 -0.391,0.498 -0.761,0.498 -0.374,0 -0.631,-0.162 -0.771,-0.488 -0.073,-0.173 -0.109,-0.397 -0.109,-0.671 0,-0.324 0.075,-0.591 0.225,-0.804 0.149,-0.212 0.377,-0.318 0.684,-0.318 0.266,0 0.473,0.103 0.62,0.308 M 0.856,2.299 C 1.149,1.941 1.295,1.479 1.295,0.914 1.295,0.328 1.151,-0.158 0.862,-0.544 0.573,-0.929 0.17,-1.122 -0.348,-1.122 c -0.325,0 -0.586,0.063 -0.784,0.187 -0.118,0.074 -0.246,0.203 -0.383,0.388 l 0,-0.474 -1.01,0 0,5.096 1.025,0 0,-1.814 c 0.13,0.175 0.273,0.309 0.43,0.401 0.186,0.116 0.422,0.173 0.709,0.173 0.518,0 0.924,-0.178 1.217,-0.536" /></g><g
           transform="translate(39.8488,189.0441)"
           id="g234"><path
             id="path236"
             style="fill:#404040;fill-opacity:1;fill-rule:nonzero;stroke:none"
             d="m 0,0 c 0.013,-0.001 0.043,-0.003 0.088,-0.005 l 0,-1.011 c -0.065,0.007 -0.122,0.011 -0.172,0.014 -0.051,0.002 -0.091,0.003 -0.123,0.003 -0.412,0 -0.688,-0.129 -0.83,-0.388 -0.079,-0.145 -0.118,-0.369 -0.118,-0.671 l 0,-1.804 -1.032,0 0,3.774 0.978,0 0,-0.658 c 0.158,0.251 0.296,0.423 0.413,0.516 0.192,0.154 0.441,0.232 0.747,0.232 C -0.029,0.002 -0.013,0.001 0,0" /></g><g
           transform="translate(41.1299,188.0268)"
           id="g238"><path
             id="path240"
             style="fill:#404040;fill-opacity:1;fill-rule:nonzero;stroke:none"
             d="m 0,0 c -0.144,-0.144 -0.235,-0.338 -0.273,-0.584 l 1.765,0 C 1.473,-0.322 1.382,-0.123 1.219,0.013 1.056,0.148 0.853,0.216 0.612,0.216 0.349,0.216 0.145,0.144 0,0 M 1.532,0.853 C 1.806,0.735 2.032,0.548 2.209,0.294 2.369,0.07 2.474,-0.19 2.522,-0.486 2.549,-0.659 2.56,-0.909 2.555,-1.235 l -2.853,0 c 0.016,-0.378 0.153,-0.644 0.41,-0.796 0.156,-0.095 0.344,-0.142 0.565,-0.142 0.233,0 0.423,0.058 0.568,0.173 0.08,0.062 0.151,0.149 0.211,0.26 l 1.046,0 C 2.474,-1.964 2.348,-2.192 2.122,-2.422 1.771,-2.789 1.28,-2.973 0.648,-2.973 c -0.521,0 -0.981,0.155 -1.379,0.464 -0.399,0.31 -0.598,0.814 -0.598,1.511 0,0.654 0.18,1.155 0.54,1.504 0.359,0.349 0.826,0.523 1.4,0.523 0.341,0 0.648,-0.058 0.921,-0.176" /></g><g
           transform="translate(43.3735,188.2184)"
           id="g242"><path
             id="path244"
             style="fill:#404040;fill-opacity:1;fill-rule:nonzero;stroke:none"
             d="m 0,0 0,0.703 0.546,0 0,1.052 1.014,0 0,-1.052 0.636,0 0,-0.703 -0.636,0 0,-1.994 c 0,-0.155 0.02,-0.251 0.061,-0.289 0.04,-0.038 0.165,-0.057 0.373,-0.057 0.032,0 0.065,0 0.1,10e-4 0.035,10e-4 0.068,0.003 0.102,0.006 l 0,-0.738 -0.485,-0.017 C 1.227,-3.104 0.896,-3.024 0.719,-2.846 0.604,-2.733 0.546,-2.559 0.546,-2.323 L 0.546,0 0,0 Z" /></g><g
           transform="translate(47.9763,189.0441)"
           id="g246"><path
             id="path248"
             style="fill:#404040;fill-opacity:1;fill-rule:nonzero;stroke:none"
             d="m 0,0 c 0.013,-0.001 0.043,-0.003 0.088,-0.005 l 0,-1.011 c -0.065,0.007 -0.122,0.011 -0.172,0.014 -0.051,0.002 -0.091,0.003 -0.123,0.003 -0.412,0 -0.688,-0.129 -0.83,-0.388 -0.079,-0.145 -0.118,-0.369 -0.118,-0.671 l 0,-1.804 -1.032,0 0,3.774 0.978,0 0,-0.658 c 0.158,0.251 0.296,0.423 0.413,0.516 0.192,0.154 0.441,0.232 0.747,0.232 C -0.029,0.002 -0.013,0.001 0,0" /></g><g
           transform="translate(50.6847,186.189)"
           id="g250"><path
             id="path252"
             style="fill:#404040;fill-opacity:1;fill-rule:nonzero;stroke:none"
             d="m 0,0 c 0.161,0.205 0.241,0.497 0.241,0.875 0,0.378 -0.08,0.669 -0.241,0.873 -0.161,0.203 -0.391,0.306 -0.69,0.306 -0.299,0 -0.53,-0.103 -0.692,-0.306 -0.161,-0.204 -0.242,-0.495 -0.242,-0.873 0,-0.378 0.081,-0.67 0.242,-0.875 0.162,-0.205 0.393,-0.308 0.692,-0.308 0.299,0 0.529,0.103 0.69,0.308 m 0.819,-0.545 c -0.33,-0.394 -0.832,-0.59 -1.505,-0.59 -0.674,0 -1.175,0.196 -1.506,0.59 -0.331,0.393 -0.496,0.866 -0.496,1.42 0,0.544 0.165,1.016 0.496,1.415 0.331,0.398 0.832,0.598 1.506,0.598 0.673,0 1.175,-0.2 1.505,-0.598 C 1.15,1.891 1.315,1.419 1.315,0.875 1.315,0.321 1.15,-0.152 0.819,-0.545" /></g></g></g></g></svg>