<?xml version="1.0" encoding="UTF-8" standalone="no"?>
<svg
   xmlns:dc="http://purl.org/dc/elements/1.1/"
   xmlns:cc="http://creativecommons.org/ns#"
   xmlns:rdf="http://www.w3.org/1999/02/22-rdf-syntax-ns#"
   xmlns:svg="http://www.w3.org/2000/svg"
   xmlns="http://www.w3.org/2000/svg"
   viewBox="0 0 320 320"
   height="320"
   width="320"
   xml:space="preserve"
   version="1.1"
   id="svg2"><metadata
     id="metadata8"><rdf:RDF><cc:Work
         rdf:about=""><dc:format>image/svg+xml</dc:format><dc:type
           rdf:resource="http://purl.org/dc/dcmitype/StillImage" /></cc:Work></rdf:RDF></metadata><defs
     id="defs6"><clipPath
       id="clipPath16"
       clipPathUnits="userSpaceOnUse"><path
         id="path18"
         d="M 0,256 256,256 256,0 0,0 0,256 Z" /></clipPath><clipPath
       id="clipPath24"
       clipPathUnits="userSpaceOnUse"><path
         id="path26"
         d="M 4,213 252,213 252,43 4,43 4,213 Z" /></clipPath></defs><g
     transform="matrix(1.25,0,0,-1.25,0,320)"
     id="g10"><g
       id="g12"><g
         clip-path="url(#clipPath16)"
         id="g14"><g
           id="g20"><g
             id="g22" /><g
             id="g28"><g
               style="opacity:0.5"
               id="g30"
               clip-path="url(#clipPath24)"><g
                 id="g32"
                 transform="translate(237.1259,213)"><path
                   id="path34"
                   style="fill:#ffffff;fill-opacity:1;fill-rule:nonzero;stroke:none"
                   d="m 0,0 -218.252,0 c -8.201,0 -14.874,-6.84 -14.874,-15.247 l 0,-9.753 0,-8 0,-8 0,-8 0,-8 0,-105 0,-8 8,0 232,0 8,0 0,8 0,146.753 C 14.874,-6.84 8.202,0 0,0" /></g></g></g></g><g
           transform="translate(32,172)"
           id="g36"><path
             id="path38"
             style="fill:#191919;fill-opacity:1;fill-rule:nonzero;stroke:none"
             d="M 0,0 C -2.209,0 -4,1.791 -4,4 -4,6.209 -2.209,8 0,8 2.209,8 4,6.209 4,4 4,1.791 2.209,0 0,0 m 0,-92 c -4.418,0 -8,3.582 -8,8 0,4.418 3.582,8 8,8 4.418,0 8,-3.582 8,-8 0,-4.418 -3.582,-8 -8,-8 M 205.126,33 -13.126,33 C -16.922,33 -20,29.756 -20,25.753 l 0,-9.753 4,0 0,-4 -4,0 0,-4 4,0 0,-4 -4,0 0,-4 4,0 0,-4 -4,0 0,-4 4,0 0,-4 -4,0 0,-109 232,0 0,146.753 C 212,29.756 208.923,33 205.126,33" /></g><g
           transform="translate(231,68)"
           id="g40"><path
             id="path42"
             style="fill:#d9d9d9;fill-opacity:1;fill-rule:nonzero;stroke:none"
             d="m 0,0 -186,0 c -0.552,0 -1,0.448 -1,1 l 0,131 L 1,132 1,1 C 1,0.448 0.552,0 0,0" /></g><path
           id="path44"
           style="fill:#191919;fill-opacity:1;fill-rule:nonzero;stroke:none"
           d="m 74.175,76 -24,0 0,12 24,0 0,-12 z" /><g
           transform="translate(68.9621,82.1522)"
           id="g46"><path
             id="path48"
             style="fill:#d9d9d9;fill-opacity:1;fill-rule:nonzero;stroke:none"
             d="M 0,0 2.81,3.829 0.247,3.848 -1.291,1.749 -2.867,3.829 -9.06,3.824 c -1.537,0 -2.739,-1.052 -2.75,-2.388 -0.053,-1.457 1.046,-2.55 2.089,-2.541 l 2.428,-0.031 c 0.497,0 0.47,-0.877 0.032,-0.882 l -7.764,-0.007 0,5.873 -1.937,0 0,-7.98 9.836,0 c 0.784,-0.042 2.413,0.759 2.398,2.512 0.034,1.508 -1.316,2.474 -2.275,2.48 L -9.271,0.894 C -9.842,0.877 -9.863,1.773 -9.276,1.778 l 5.384,0.008 1.291,-1.823 -2.962,-4.105 2.601,-0.003 1.682,2.383 1.768,-2.383 2.55,-0.007 L 0,0 Z" /></g><g
           transform="translate(180.4204,81.5016)"
           id="g50"><path
             id="path52"
             style="fill:#ff0000;fill-opacity:1;fill-rule:nonzero;stroke:none"
             d="M 0,0 C 0.305,0.723 -0.039,1.463 0.049,2.193 0.058,2.268 0.007,2.401 -0.05,2.426 -0.73,2.72 -0.639,3.45 -0.873,3.987 -1.047,4.389 -0.516,5.113 -0.013,5.252 0.83,5.485 0.973,5.713 1.028,6.637 1.049,6.99 1.042,7.419 1.42,7.632 1.639,7.755 1.537,7.934 1.561,8.098 1.617,8.492 1.739,8.809 2.237,8.688 2.493,8.625 2.696,8.68 2.602,9.03 2.579,9.117 2.517,9.213 2.641,9.237 c 0.509,0.1 0.509,0.963 1.176,0.826 0.146,-0.03 0.157,0.083 0.175,0.209 0.036,0.262 0.23,0.266 0.395,0.165 0.55,-0.335 1.07,-0.574 1.729,-0.191 0.138,0.081 0.628,-0.15 0.799,-0.448 C 7.22,9.269 7.4,8.679 7.561,8.087 7.672,7.678 7.255,7.417 7.28,7.02 7.287,6.922 7.11,6.911 7.022,7.021 6.559,7.601 6.572,7.036 6.505,6.775 6.473,6.651 6.536,6.493 6.37,6.439 6.169,6.375 6.11,6.537 6.031,6.68 5.725,7.238 5.243,7.641 4.837,8.112 4.75,8.213 4.703,8.277 4.589,8.181 4.398,8.021 4.199,7.775 4.23,7.575 4.31,7.059 4.216,6.754 3.729,6.49 3.493,6.362 3.517,5.754 3.668,5.612 3.924,5.375 4.094,4.925 4.563,4.972 4.831,4.999 5.132,5.307 5.361,4.993 5.662,4.58 5.876,4.1 5.802,3.559 5.772,3.344 5.642,3.149 5.704,2.91 5.72,2.847 5.633,2.756 5.593,2.678 5.18,3.092 4.699,2.385 4.284,2.763 4.26,3.016 4.075,3.297 3.912,3.046 3.581,2.536 3.333,2.931 2.958,3.097 3.063,2.814 3.128,2.635 3.194,2.456 3.188,2.4 3.183,2.344 3.177,2.288 3.089,2.248 3.025,2.192 3.046,2.079 3.013,1.394 2.755,0.729 2.729,0.072 2.695,-0.776 2.521,-1.595 2.469,-2.432 2.443,-2.838 2.435,-3.216 2.174,-3.568 1.972,-3.842 1.981,-4.209 1.944,-4.553 1.838,-5.526 1.515,-6.458 0.882,-7.157 0.62,-7.447 0.109,-7.562 -0.136,-7.976 -0.169,-8.03 -0.267,-8.067 -0.269,-8.114 c -0.029,-0.751 -0.558,-0.78 -1.083,-0.793 -0.23,-0.006 -0.363,0.082 -0.336,-0.329 0.035,-0.531 -0.419,-0.11 -0.484,-0.063 -0.231,0.164 -0.347,0.283 -0.636,0.028 -0.315,-0.278 -0.644,-0.238 -0.873,0.252 -0.409,0.879 -0.861,1.724 -0.709,2.759 0.033,0.225 0.111,0.291 0.276,0.247 0.206,-0.056 0.357,-0.127 0.576,0.05 0.278,0.225 0.372,-0.09 0.449,-0.295 0.08,-0.213 0.111,-0.452 0.388,-0.497 0.045,-0.082 0.036,-0.261 0.193,-0.169 0.119,0.07 0.073,0.186 -0.013,0.275 -0.064,0.467 0.18,0.38 0.427,0.242 0.286,-0.161 0.577,-0.302 0.85,-0.019 0.267,0.277 0.308,0.575 0.273,1.011 -0.052,0.629 -0.139,1.394 0.541,1.851 0.068,0.046 0.179,0.15 0.167,0.177 -0.25,0.557 0.023,1.136 -0.079,1.701 -0.108,0.603 -0.109,1.207 0.349,1.699 0.031,-0.024 0.061,-0.047 0.091,-0.071 0.001,0.022 0.01,0.049 0.001,0.065 C 0.067,0.064 0.031,0.06 0,0" /></g><g
           transform="translate(184,76.0424)"
           id="g54"><path
             id="path56"
             style="fill:#191919;fill-opacity:1;fill-rule:nonzero;stroke:none"
             d="m 0,0 3.47,11.958 3.218,0 1.672,-5.22 1.735,5.22 3.028,0 2.839,-8.81 6.927,0.012 c 0.727,0.006 0.772,1.322 -0.054,1.322 l -4.034,0.047 c -1.732,-0.015 -3.559,1.626 -3.47,3.811 0.019,2.004 2.015,3.582 4.569,3.582 L 30.189,11.93 32.808,8.809 35.363,11.958 39.621,11.93 34.953,6.186 40,-0.042 35.764,-0.031 32.826,3.543 30.032,-0.031 25.71,-0.028 30.631,6.131 28.486,8.865 19.541,8.853 C 18.565,8.845 18.601,7.501 19.549,7.526 l 3.769,-0.05 c 1.592,-0.009 3.836,-1.458 3.78,-3.72 0.024,-2.63 -2.682,-3.832 -3.984,-3.767 l -9.865,-0.012 -1.64,5.38 -1.641,-5.368 -3.113,0 L 5.142,5.33 3.637,-0.02 0,0 Z" /></g><path
           id="path58"
           style="fill:#29678f;fill-opacity:1;fill-rule:nonzero;stroke:none"
           d="m 200,96 -20,0 0,20 20,0 0,-20 z" /><g
           transform="translate(195.0345,104.7305)"
           id="g60"><path
             id="path62"
             style="fill:#3096cf;fill-opacity:1;fill-rule:nonzero;stroke:none"
             d="m 0,0 c 0,-0.354 -0.248,-0.642 -0.555,-0.642 l -5.238,0 0,4.301 5.238,0 C -0.248,3.659 0,3.372 0,3.018 L 0,0 Z m 2.746,7.677 -8.508,0 0,3.592 -5.272,0 0,-16 13.78,0 c 1.226,0 2.22,1.15 2.22,2.568 l 0,7.273 c 0,1.418 -0.994,2.567 -2.22,2.567" /></g><path
           id="path64"
           style="fill:#29678f;fill-opacity:1;fill-rule:nonzero;stroke:none"
           d="m 226,112 -24,0 0,4 24,0 0,-4 z" /><path
           id="path66"
           style="fill:#3096cf;fill-opacity:1;fill-rule:nonzero;stroke:none"
           d="m 222,108 -20,0 0,4 20,0 0,-4 z" /><g
           transform="translate(205.5499,112.941)"
           id="g68"><path
             id="path70"
             style="fill:#ffffff;fill-opacity:1;fill-rule:nonzero;stroke:none"
             d="M 0,0 C 0.165,0 0.295,0.045 0.388,0.134 0.481,0.223 0.527,0.346 0.527,0.504 0.527,0.596 0.51,0.672 0.476,0.732 0.442,0.793 0.397,0.84 0.341,0.876 0.284,0.911 0.219,0.936 0.146,0.951 0.072,0.965 -0.004,0.972 -0.083,0.972 l -0.854,0 L -0.937,0 0,0 Z m -0.189,1.287 c 0.213,0 0.365,0.038 0.459,0.113 0.093,0.074 0.139,0.186 0.139,0.336 0,0.1 -0.015,0.179 -0.047,0.236 C 0.331,2.03 0.287,2.075 0.232,2.106 0.177,2.138 0.113,2.158 0.041,2.167 -0.031,2.176 -0.108,2.181 -0.189,2.181 l -0.748,0 0,-0.894 0.748,0 z m -0.102,1.209 c 0.06,0 0.125,-10e-4 0.195,-0.002 C -0.027,2.493 0.042,2.489 0.11,2.482 0.178,2.475 0.242,2.466 0.301,2.453 0.36,2.439 0.411,2.42 0.453,2.393 0.544,2.338 0.623,2.262 0.687,2.165 0.751,2.068 0.783,1.949 0.783,1.807 0.783,1.657 0.747,1.528 0.675,1.419 0.603,1.31 0.5,1.23 0.366,1.177 l 0,-0.008 C 0.539,1.133 0.672,1.054 0.764,0.933 0.856,0.812 0.902,0.665 0.902,0.492 0.902,0.39 0.883,0.29 0.846,0.193 0.81,0.096 0.755,0.01 0.683,-0.065 0.611,-0.14 0.522,-0.2 0.415,-0.246 0.309,-0.292 0.186,-0.315 0.047,-0.315 l -1.358,0 0,2.811 1.02,0 z" /></g><g
           transform="translate(210.9184,115.4369)"
           id="g72"><path
             id="path74"
             style="fill:#ffffff;fill-opacity:1;fill-rule:nonzero;stroke:none"
             d="m 0,0 0,-2.496 1.488,0 0,-0.315 -1.862,0 0,2.811 L 0,0 Z" /></g><g
           transform="translate(217.6421,112.8327)"
           id="g76"><path
             id="path78"
             style="fill:#ffffff;fill-opacity:1;fill-rule:nonzero;stroke:none"
             d="m 0,0 c -0.192,-0.18 -0.465,-0.27 -0.819,-0.27 -0.362,0 -0.645,0.086 -0.848,0.258 -0.204,0.172 -0.305,0.446 -0.305,0.821 l 0,1.795 0.374,0 0,-1.795 c 0,-0.252 0.067,-0.443 0.201,-0.573 0.133,-0.13 0.326,-0.195 0.578,-0.195 0.239,0 0.421,0.065 0.545,0.195 0.125,0.13 0.187,0.321 0.187,0.573 l 0,1.795 0.374,0 0,-1.795 C 0.287,0.449 0.192,0.18 0,0" /></g><g
           transform="translate(223.7492,115.4369)"
           id="g80"><path
             id="path82"
             style="fill:#ffffff;fill-opacity:1;fill-rule:nonzero;stroke:none"
             d="m 0,0 0,-0.315 -1.567,0 0,-0.894 1.461,0 0,-0.315 -1.461,0 0,-0.972 1.579,0 0,-0.315 -1.953,0 0,2.811 L 0,0 Z" /></g><g
           transform="translate(205.3581,111.3624)"
           id="g84"><path
             id="path86"
             style="fill:#ffffff;fill-opacity:1;fill-rule:nonzero;stroke:none"
             d="M 0,0 0.886,-2.362 1.775,0 l 0.512,0 0,-2.811 -0.354,0 0,2.339 -0.008,0 -0.878,-2.339 -0.319,0 -0.878,2.339 -0.007,0 0,-2.339 -0.355,0 0,2.811 L 0,0 Z" /></g><g
           transform="translate(212.2991,110.9786)"
           id="g88"><path
             id="path90"
             style="fill:#ffffff;fill-opacity:1;fill-rule:nonzero;stroke:none"
             d="M 0,0 C -0.125,0.09 -0.284,0.136 -0.478,0.136 -0.557,0.136 -0.635,0.128 -0.711,0.112 -0.787,0.096 -0.854,0.07 -0.913,0.033 -0.972,-0.003 -1.02,-0.053 -1.055,-0.114 c -0.036,-0.062 -0.053,-0.139 -0.053,-0.23 0,-0.087 0.025,-0.157 0.077,-0.211 0.051,-0.054 0.119,-0.098 0.204,-0.132 0.085,-0.034 0.182,-0.062 0.29,-0.085 0.107,-0.022 0.217,-0.046 0.328,-0.072 0.112,-0.027 0.221,-0.058 0.329,-0.093 0.108,-0.035 0.204,-0.083 0.289,-0.144 0.086,-0.06 0.154,-0.136 0.205,-0.228 0.051,-0.092 0.077,-0.207 0.077,-0.346 0,-0.15 -0.034,-0.278 -0.101,-0.384 C 0.523,-2.146 0.438,-2.232 0.333,-2.299 0.228,-2.366 0.11,-2.414 -0.02,-2.445 -0.15,-2.475 -0.279,-2.49 -0.408,-2.49 c -0.157,0 -0.306,0.02 -0.446,0.059 -0.141,0.039 -0.264,0.099 -0.37,0.179 -0.107,0.08 -0.191,0.183 -0.252,0.307 -0.062,0.125 -0.093,0.272 -0.093,0.443 l 0.354,0 c 0,-0.118 0.023,-0.22 0.069,-0.305 0.046,-0.085 0.107,-0.155 0.182,-0.211 0.074,-0.055 0.161,-0.095 0.261,-0.122 0.1,-0.026 0.202,-0.039 0.307,-0.039 0.084,0 0.169,0.008 0.254,0.024 0.085,0.015 0.162,0.042 0.231,0.08 0.068,0.038 0.123,0.09 0.165,0.156 0.042,0.065 0.063,0.149 0.063,0.252 0,0.097 -0.026,0.176 -0.077,0.236 -0.051,0.06 -0.119,0.11 -0.205,0.148 -0.085,0.038 -0.181,0.068 -0.289,0.092 -0.108,0.024 -0.217,0.048 -0.329,0.073 -0.111,0.025 -0.221,0.054 -0.328,0.087 -0.108,0.032 -0.205,0.076 -0.29,0.129 -0.085,0.054 -0.153,0.124 -0.204,0.209 -0.052,0.085 -0.077,0.192 -0.077,0.321 0,0.142 0.029,0.264 0.086,0.368 0.058,0.104 0.135,0.189 0.231,0.256 0.095,0.067 0.204,0.117 0.326,0.15 0.122,0.032 0.248,0.049 0.376,0.049 0.145,0 0.279,-0.017 0.402,-0.051 C 0.062,0.365 0.171,0.312 0.264,0.238 0.357,0.165 0.43,0.072 0.484,-0.039 c 0.054,-0.112 0.084,-0.245 0.089,-0.4 l -0.355,0 C 0.197,-0.237 0.125,-0.091 0,0" /></g><g
           transform="translate(216.7955,111.3624)"
           id="g92"><path
             id="path94"
             style="fill:#ffffff;fill-opacity:1;fill-rule:nonzero;stroke:none"
             d="M 0,0 0.449,0 1.15,-1.098 1.882,0 2.299,0 1.37,-1.366 l 0.988,-1.445 -0.456,0 -0.756,1.162 -0.78,-1.162 -0.417,0 0.976,1.445 L 0,0 Z" /></g></g></g></g></svg>