<?xml version="1.0" encoding="UTF-8" standalone="no"?>
<svg
   xmlns:dc="http://purl.org/dc/elements/1.1/"
   xmlns:cc="http://creativecommons.org/ns#"
   xmlns:rdf="http://www.w3.org/1999/02/22-rdf-syntax-ns#"
   xmlns:svg="http://www.w3.org/2000/svg"
   xmlns="http://www.w3.org/2000/svg"
   viewBox="0 0 320 320"
   height="320"
   width="320"
   xml:space="preserve"
   version="1.1"
   id="svg2"><metadata
     id="metadata8"><rdf:RDF><cc:Work
         rdf:about=""><dc:format>image/svg+xml</dc:format><dc:type
           rdf:resource="http://purl.org/dc/dcmitype/StillImage" /></cc:Work></rdf:RDF></metadata><defs
     id="defs6"><clipPath
       id="clipPath16"
       clipPathUnits="userSpaceOnUse"><path
         id="path18"
         d="M 0,256 256,256 256,0 0,0 0,256 Z" /></clipPath><clipPath
       id="clipPath24"
       clipPathUnits="userSpaceOnUse"><path
         id="path26"
         d="M 4,224 252,224 252,32 4,32 4,224 Z" /></clipPath><clipPath
       id="clipPath44"
       clipPathUnits="userSpaceOnUse"><path
         id="path46"
         d="M 0,256 256,256 256,0 0,0 0,256 Z" /></clipPath></defs><g
     transform="matrix(1.25,0,0,-1.25,0,320)"
     id="g10"><g
       id="g12"><g
         clip-path="url(#clipPath16)"
         id="g14"><g
           id="g20"><g
             id="g22" /><g
             id="g28"><g
               style="opacity:0.5"
               id="g30"
               clip-path="url(#clipPath24)"><g
                 id="g32"
                 transform="translate(188,224)"><path
                   id="path34"
                   style="fill:#ffffff;fill-opacity:1;fill-rule:nonzero;stroke:none"
                   d="m 0,0 -120,0 c -0.654,0 -1.306,-0.08 -1.94,-0.239 L -136.985,-4 -176,-4 c -4.418,0 -8,-3.582 -8,-8 l 0,-124 c 0,-0.691 0.087,-1.361 0.252,-2 -0.165,-0.639 -0.252,-1.309 -0.252,-2 l 0,-4 c 0,-0.691 0.087,-1.361 0.252,-2 -0.165,-0.639 -0.252,-1.309 -0.252,-2 l 0,-4 c 0,-0.691 0.087,-1.361 0.252,-2 -0.165,-0.639 -0.252,-1.309 -0.252,-2 l 0,-0.133 0,-3.867 c 0,-0.691 0.087,-1.361 0.252,-2 -0.165,-0.639 -0.252,-1.309 -0.252,-2 l 0,-4 c 0,-0.691 0.087,-1.361 0.252,-2 -0.165,-0.639 -0.252,-1.309 -0.252,-2 l 0,-4 c 0,-0.691 0.087,-1.361 0.252,-2 -0.165,-0.639 -0.252,-1.309 -0.252,-2 l 0,-4 c 0,-4.418 3.582,-8 8,-8 l 232,0 c 4.418,0 8,3.582 8,8 l 0,4 c 0,0.691 -0.087,1.361 -0.252,2 0.165,0.639 0.252,1.309 0.252,2 l 0,4 c 0,0.691 -0.087,1.361 -0.252,2 0.165,0.639 0.252,1.309 0.252,2 l 0,4 c 0,0.691 -0.087,1.361 -0.252,2 0.165,0.639 0.252,1.309 0.252,2 l 0,4 c 0,0.691 -0.087,1.361 -0.252,2 0.165,0.639 0.252,1.309 0.252,2 l 0,4 c 0,0.691 -0.087,1.361 -0.252,2 0.165,0.639 0.252,1.309 0.252,2 l 0,4 c 0,0.691 -0.087,1.361 -0.252,2 0.165,0.639 0.252,1.309 0.252,2 l 0,124 c 0,4.418 -3.582,8 -8,8 L 16.985,-4 1.94,-0.239 C 1.306,-0.08 0.654,0 0,0" /></g></g></g></g></g></g><g
       transform="translate(244,44)"
       id="g36"><path
         id="path38"
         style="fill:#262626;fill-opacity:1;fill-rule:nonzero;stroke:none"
         d="m 0,0 -4,0 0,4 4,0 0,4 -4,0 0,4 4,0 0,4 -4,0 0,4 4,0 0,4 -4,0 0,4 4,0 0,4 -4,0 0,4 4,0 0,4 -4,0 0,4 4,0 0,124 -40,0 -16,4 -120,0 -16,-4 -40,0 0,-124 4,0 0,-4 -4,0 0,-4 4,0 0,-4 -4,0 0,-4 4,0 0,-4 -4,0 0,-0.133 0,-3.867 4,0 0,-4 -4,0 0,-4 4,0 0,-4 -4,0 0,-4 4,0 0,-4 -4,0 0,-4 232,0 0,4 z" /></g><g
       id="g40"><g
         clip-path="url(#clipPath44)"
         id="g42"><g
           transform="translate(186,216)"
           id="g48"><path
             id="path50"
             style="fill:#191919;fill-opacity:1;fill-rule:nonzero;stroke:none"
             d="m 0,0 -116,0 0,-72.386 c 0,-3.095 2.619,-5.614 5.839,-5.614 l 104.322,0 C -2.619,-78 0,-75.481 0,-72.386 L 0,0 Z" /></g><g
           transform="translate(180,140)"
           id="g52"><path
             id="path54"
             style="fill:#3096cf;fill-opacity:1;fill-rule:nonzero;stroke:none"
             d="M 0,0 -76,0 -76,76 4,76 4,4 C 4,1.791 2.209,0 0,0" /></g><path
           id="path56"
           style="fill:#191919;fill-opacity:1;fill-rule:nonzero;stroke:none"
           d="m 240,44 -24,0 0,4 24,0 0,-4 z" /><path
           id="path58"
           style="fill:#191919;fill-opacity:1;fill-rule:nonzero;stroke:none"
           d="m 240,52 -24,0 0,4 24,0 0,-4 z" /><path
           id="path60"
           style="fill:#191919;fill-opacity:1;fill-rule:nonzero;stroke:none"
           d="m 240,60 -24,0 0,4 24,0 0,-4 z" /><path
           id="path62"
           style="fill:#191919;fill-opacity:1;fill-rule:nonzero;stroke:none"
           d="m 240,68 -24,0 0,4 24,0 0,-4 z" /><path
           id="path64"
           style="fill:#191919;fill-opacity:1;fill-rule:nonzero;stroke:none"
           d="m 240,76 -24,0 0,4 24,0 0,-4 z" /><path
           id="path66"
           style="fill:#191919;fill-opacity:1;fill-rule:nonzero;stroke:none"
           d="m 240,84 -24,0 0,4 24,0 0,-4 z" /><path
           id="path68"
           style="fill:#191919;fill-opacity:1;fill-rule:nonzero;stroke:none"
           d="m 208,44 -76,0 0,4 76,0 0,-4 z" /><path
           id="path70"
           style="fill:#191919;fill-opacity:1;fill-rule:nonzero;stroke:none"
           d="m 208,52 -76,0 0,4 76,0 0,-4 z" /><path
           id="path72"
           style="fill:#191919;fill-opacity:1;fill-rule:nonzero;stroke:none"
           d="m 208,60 -76,0 0,4 76,0 0,-4 z" /><path
           id="path74"
           style="fill:#191919;fill-opacity:1;fill-rule:nonzero;stroke:none"
           d="m 208,68 -76,0 0,4 76,0 0,-4 z" /><path
           id="path76"
           style="fill:#191919;fill-opacity:1;fill-rule:nonzero;stroke:none"
           d="m 208,76 -76,0 0,4 76,0 0,-4 z" /><path
           id="path78"
           style="fill:#191919;fill-opacity:1;fill-rule:nonzero;stroke:none"
           d="m 208,84 -76,0 0,4 76,0 0,-4 z" /><path
           id="path80"
           style="fill:#191919;fill-opacity:1;fill-rule:nonzero;stroke:none"
           d="m 124,44 -76,0 0,4 76,0 0,-4 z" /><path
           id="path82"
           style="fill:#191919;fill-opacity:1;fill-rule:nonzero;stroke:none"
           d="m 124,52 -76,0 0,4 76,0 0,-4 z" /><path
           id="path84"
           style="fill:#191919;fill-opacity:1;fill-rule:nonzero;stroke:none"
           d="m 124,60 -76,0 0,4 76,0 0,-4 z" /><path
           id="path86"
           style="fill:#191919;fill-opacity:1;fill-rule:nonzero;stroke:none"
           d="m 124,68 -76,0 0,4 76,0 0,-4 z" /><path
           id="path88"
           style="fill:#191919;fill-opacity:1;fill-rule:nonzero;stroke:none"
           d="m 124,76 -76,0 0,4 76,0 0,-4 z" /><path
           id="path90"
           style="fill:#191919;fill-opacity:1;fill-rule:nonzero;stroke:none"
           d="m 124,84 -76,0 0,4 76,0 0,-4 z" /><path
           id="path92"
           style="fill:#191919;fill-opacity:1;fill-rule:nonzero;stroke:none"
           d="m 40,44 -24,0 0,4 24,0 0,-4 z" /><path
           id="path94"
           style="fill:#191919;fill-opacity:1;fill-rule:nonzero;stroke:none"
           d="m 40,52 -24,0 0,4 24,0 0,-4 z" /><path
           id="path96"
           style="fill:#191919;fill-opacity:1;fill-rule:nonzero;stroke:none"
           d="m 40,60 -24,0 0,4 24,0 0,-4 z" /><path
           id="path98"
           style="fill:#191919;fill-opacity:1;fill-rule:nonzero;stroke:none"
           d="m 40,68 -24,0 0,4 24,0 0,-4 z" /><path
           id="path100"
           style="fill:#191919;fill-opacity:1;fill-rule:nonzero;stroke:none"
           d="m 40,76 -24,0 0,4 24,0 0,-4 z" /><path
           id="path102"
           style="fill:#191919;fill-opacity:1;fill-rule:nonzero;stroke:none"
           d="m 40,84 -24,0 0,4 24,0 0,-4 z" /><g
           transform="translate(76,140)"
           id="g104"><path
             id="path106"
             style="fill:#262626;fill-opacity:1;fill-rule:nonzero;stroke:none"
             d="M 0,0 28,0 28,76 -4,76 -4,4 C -4,1.791 -2.209,0 0,0" /></g><g
           transform="translate(88.0021,144)"
           id="g108"><path
             id="path110"
             style="fill:#191919;fill-opacity:1;fill-rule:nonzero;stroke:none"
             d="M 0,0 C -6.64,-0.003 -12.018,5.38 -12.002,12.013 -11.986,18.654 -6.64,23.995 -0.004,24 6.634,24.005 12.015,18.62 11.998,11.987 11.981,5.346 6.634,0.003 0,0" /></g><g
           transform="translate(98.2451,157.692)"
           id="g112"><path
             id="path114"
             style="fill:#3096cf;fill-opacity:1;fill-rule:nonzero;stroke:none"
             d="M 0,0 C 0.012,-0.046 -0.054,-0.111 -0.108,-0.181 -0.79,-1.06 -1.475,-1.937 -2.15,-2.821 -2.253,-2.956 -2.339,-2.98 -2.497,-2.923 c -0.549,0.201 -1.104,0.389 -1.659,0.575 -0.12,0.041 -0.205,0.107 -0.281,0.204 -0.727,0.932 -1.458,1.86 -2.184,2.793 -0.078,0.1 -0.138,0.215 -0.19,0.33 -0.38,0.84 -0.752,1.684 -1.136,2.522 -0.072,0.158 -0.074,0.276 0.029,0.429 0.53,0.793 1.051,1.592 1.564,2.396 0.101,0.157 0.19,0.204 0.38,0.156 0.963,-0.244 1.929,-0.475 2.896,-0.704 0.125,-0.029 0.21,-0.086 0.285,-0.188 0.731,-1.001 1.467,-1.999 2.202,-2.999 0.034,-0.047 0.079,-0.096 0.09,-0.149 C -0.335,1.647 -0.174,0.851 0,0" /></g><g
           transform="translate(94.4033,160.8162)"
           id="g116"><path
             id="path118"
             style="fill:#3096cf;fill-opacity:1;fill-rule:nonzero;stroke:none"
             d="M 0,0 C 0.235,-0.002 0.526,0.277 0.518,0.497 0.511,0.672 0.15,1.01 -0.031,1.01 -0.206,1.009 -0.503,0.708 -0.516,0.519 -0.53,0.324 -0.208,0.001 0,0" /></g><g
           transform="translate(92.5186,160.6092)"
           id="g120"><path
             id="path122"
             style="fill:#3096cf;fill-opacity:1;fill-rule:nonzero;stroke:none"
             d="m 0,0 c -0.17,-0.007 -0.302,-0.176 -0.302,-0.361 0,-0.229 0.194,-0.253 0.335,-0.307 C 0.14,-0.71 0.437,-0.415 0.428,-0.306 0.407,-0.034 0.185,-0.043 0,0" /></g><g
           transform="translate(97.2725,150.4846)"
           id="g124"><path
             id="path126"
             style="fill:#eac500;fill-opacity:1;fill-rule:nonzero;stroke:none"
             d="m 0,0 c 0.013,-0.138 -0.022,-0.24 -0.115,-0.344 -1.025,-1.144 -2.047,-2.293 -3.068,-3.441 -0.08,-0.091 -0.171,-0.148 -0.289,-0.186 -0.623,-0.202 -1.246,-0.407 -1.864,-0.626 -0.161,-0.057 -0.272,-0.025 -0.399,0.073 -0.326,0.25 -0.657,0.495 -0.994,0.731 -0.127,0.088 -0.168,0.194 -0.18,0.341 -0.067,0.84 -0.14,1.678 -0.218,2.517 -0.014,0.145 0.017,0.263 0.095,0.384 0.834,1.291 1.665,2.584 2.492,3.88 0.076,0.119 0.162,0.175 0.302,0.189 1.266,0.131 2.532,0.263 3.796,0.408 C -0.23,3.951 -0.205,3.873 -0.193,3.695 -0.151,3.08 -0.058,0.614 0,0" /></g><g
           transform="translate(93.5371,147.631)"
           id="g128"><path
             id="path130"
             style="fill:#191919;fill-opacity:1;fill-rule:nonzero;stroke:none"
             d="M 0,0 C 0.45,0.276 0.707,0.755 1.049,1.146 1.138,1.247 1.025,1.335 0.941,1.401 0.7,1.588 0.454,1.766 0.22,1.963 0.08,2.081 0.002,2.044 -0.101,1.93 -0.677,1.299 -0.679,1.303 -1.471,1.76 -1.537,1.798 -1.632,1.908 -1.682,1.826 -1.865,1.523 -2.23,1.343 -2.179,0.877 -2.15,0.619 -2.076,0.424 -1.886,0.24 -1.411,-0.222 -1.416,-0.235 -0.873,0.045 -0.746,0.11 -0.639,0.132 -0.518,0.026 -0.344,-0.125 -0.173,-0.148 0,0" /></g><g
           transform="translate(93.8039,151.5409)"
           id="g132"><path
             id="path134"
             style="fill:#eac500;fill-opacity:1;fill-rule:nonzero;stroke:none"
             d="M 0,0 C 0.448,-0.005 0.775,0.273 0.852,0.727 0.88,0.891 0.667,1.321 0.548,1.341 0.16,1.406 -0.198,1.226 -0.373,0.877 -0.4,0.825 -0.427,0.773 -0.451,0.72 -0.543,0.523 -0.216,0.003 0,0" /></g><g
           transform="translate(96.0932,151.0131)"
           id="g136"><path
             id="path138"
             style="fill:#eac500;fill-opacity:1;fill-rule:nonzero;stroke:none"
             d="M 0,0 C 0.001,0.233 -0.092,0.309 -0.444,0.303 -0.609,0.3 -0.806,0.286 -0.804,0.029 -0.802,-0.225 -0.57,-0.509 -0.347,-0.518 -0.22,-0.524 -0.001,-0.196 0,0" /></g><g
           transform="translate(90.39,166.5321)"
           id="g140"><path
             id="path142"
             style="fill:#3096cf;fill-opacity:1;fill-rule:nonzero;stroke:none"
             d="m 0,0 c -0.253,-0.163 -0.506,-0.326 -0.811,-0.522 l 0.609,0 c 0.012,-0.024 0.023,-0.047 0.035,-0.071 -0.326,-0.243 -0.653,-0.487 -1.032,-0.769 0.414,-0.034 0.764,0.039 1.117,0.048 -0.003,-0.117 -0.1,-0.126 -0.16,-0.163 -1.048,-0.65 -2.099,-1.296 -3.149,-1.944 -0.058,-0.036 -0.117,-0.071 -0.174,-0.109 -0.076,-0.051 -0.153,-0.118 -0.126,-0.213 0.036,-0.125 0.147,-0.057 0.227,-0.051 1.211,0.086 2.422,0.174 3.633,0.259 0.054,0.004 0.114,0.032 0.182,-0.037 -0.075,-0.06 -0.145,-0.121 -0.22,-0.176 -1.154,-0.86 -2.303,-1.728 -3.469,-2.572 -0.237,-0.172 -0.317,-0.345 -0.297,-0.629 0.039,-0.579 0.024,-0.578 0.585,-0.478 0.799,0.142 1.598,0.281 2.427,0.374 -0.243,-0.174 -0.486,-0.348 -0.78,-0.558 0.22,-0.048 0.366,0.063 0.523,10e-4 -0.035,-0.13 -0.197,-0.139 -0.263,-0.283 0.19,-0.027 0.381,0.049 0.62,-0.027 -1.47,-1.11 -2.899,-2.19 -4.37,-3.301 -0.024,0.688 -0.049,1.319 -0.069,1.95 -0.076,2.477 -0.147,4.954 -0.231,7.431 -0.008,0.226 0.048,0.315 0.27,0.382 1.535,0.467 3.065,0.952 4.597,1.43 0.101,0.031 0.204,0.055 0.306,0.082 C -0.013,0.036 -0.007,0.018 0,0" /></g><g
           transform="translate(85.2636,146.2451)"
           id="g144"><path
             id="path146"
             style="fill:#eac500;fill-opacity:1;fill-rule:nonzero;stroke:none"
             d="m 0,0 c -0.108,-0.051 -0.224,0.026 -0.341,-0.071 0.112,-0.061 0.255,-0.068 0.343,-0.202 -0.381,0.076 -0.735,0.146 -1.089,0.216 -0.856,0.169 -1.711,0.341 -2.569,0.505 -0.116,0.022 -0.15,0.067 -0.147,0.184 0.046,1.611 0.088,3.222 0.124,4.832 0.003,0.138 0.041,0.173 0.183,0.178 0.741,0.026 1.484,0.063 2.24,0.097 C -1.3,5.64 -1.414,5.659 -1.455,5.568 -1.203,5.518 -0.953,5.467 -0.679,5.412 -0.864,5.291 -1.06,5.274 -1.227,5.131 -1.092,5.116 -0.974,5.103 -0.851,5.089 -0.898,4.979 -0.985,4.981 -1.049,4.957 -1.59,4.753 -2.133,4.553 -2.676,4.352 -2.773,4.316 -2.892,4.293 -2.909,4.171 -2.927,4.041 -2.812,4.016 -2.714,3.986 -2.05,3.784 -1.385,3.582 -0.72,3.38 -0.661,3.362 -0.603,3.343 -0.538,3.322 -0.763,3.15 -0.97,2.984 -1.185,2.83 -1.628,2.513 -2.076,2.203 -2.522,1.888 -2.782,1.704 -2.779,1.603 -2.506,1.499 -1.826,1.242 -1.146,0.987 -0.466,0.732 -0.307,0.672 -0.149,0.611 0.028,0.544 -0.099,0.415 -0.264,0.388 -0.402,0.277 -0.261,0.192 -0.128,0.111 0.006,0.03 0.004,0.02 0.002,0.01 0,0" /></g><g
           transform="translate(83.776,164.3172)"
           id="g148"><path
             id="path150"
             style="fill:#3096cf;fill-opacity:1;fill-rule:nonzero;stroke:none"
             d="m 0,0 c 0.038,-0.159 0.071,-0.296 0.113,-0.47 0.15,0.205 0.274,0.375 0.442,0.605 0.083,-2.787 0.164,-5.501 0.244,-8.216 -0.111,-0.038 -0.159,0.056 -0.222,0.105 -1.319,1.016 -2.638,2.03 -3.949,3.054 -0.186,0.145 -0.256,0.158 -0.347,-0.09 -0.473,-1.285 -0.963,-2.563 -1.448,-3.844 -0.027,-0.071 -0.057,-0.14 -0.105,-0.257 0,0.464 -0.01,0.876 0.002,1.287 0.045,1.634 0.107,3.268 0.137,4.903 0.006,0.34 0.1,0.583 0.349,0.812 0.437,0.402 0.424,0.414 0.895,0.07 0.821,-0.601 1.643,-1.202 2.466,-1.802 0.061,-0.044 0.126,-0.084 0.229,-0.152 0.188,1.499 0.373,2.963 0.557,4.428 0.184,-0.263 0.151,-0.569 0.239,-0.861 C -0.219,-0.346 -0.183,-0.136 0,0" /></g><g
           transform="translate(96.8271,159.3476)"
           id="g152"><path
             id="path154"
             style="fill:#191919;fill-opacity:1;fill-rule:nonzero;stroke:none"
             d="m 0,0 c -0.098,-0.642 -0.23,-1.197 -0.558,-1.68 -0.271,-0.399 -1.26,-0.649 -1.716,-0.516 -0.094,0.027 -0.183,0.059 -0.267,0.097 -0.305,0.137 -0.125,0.597 0.189,0.483 0.004,-0.002 0.007,-0.003 0.011,-0.004 0.374,-0.137 0.684,-0.025 0.998,0.15 0.371,0.207 0.648,0.509 0.883,0.857 C -0.332,-0.422 -0.184,-0.244 0,0" /></g><g
           transform="translate(92.2575,159.9043)"
           id="g156"><path
             id="path158"
             style="fill:#191919;fill-opacity:1;fill-rule:nonzero;stroke:none"
             d="M 0,0 C -0.155,0.14 -0.18,0.594 -0.04,0.731 0.096,0.864 0.518,0.89 0.649,0.774 0.784,0.655 0.829,0.161 0.717,0.026 0.577,-0.143 0.175,-0.158 0,0" /></g><g
           transform="translate(94.4459,161.8259)"
           id="g160"><path
             id="path162"
             style="fill:#191919;fill-opacity:1;fill-rule:nonzero;stroke:none"
             d="M 0,0 C 0.185,-0.044 0.407,-0.035 0.428,-0.306 0.437,-0.415 0.14,-0.71 0.033,-0.669 -0.109,-0.615 -0.302,-0.591 -0.302,-0.362 -0.303,-0.176 -0.17,-0.008 0,0" /></g><g
           transform="translate(95.4551,150.649)"
           id="g164"><path
             id="path166"
             style="fill:#191919;fill-opacity:1;fill-rule:nonzero;stroke:none"
             d="m 0,0 c -0.216,-0.016 -0.586,0.474 -0.512,0.678 0.02,0.055 0.043,0.109 0.064,0.164 C -0.304,1.204 0.038,1.414 0.43,1.384 0.55,1.374 0.8,0.963 0.786,0.798 0.748,0.339 0.447,0.033 0,0" /></g><g
           transform="translate(94.2039,152.3717)"
           id="g168"><path
             id="path170"
             style="fill:#191919;fill-opacity:1;fill-rule:nonzero;stroke:none"
             d="m 0,0 c 0.016,-0.195 -0.174,-0.541 -0.301,-0.547 -0.223,-0.009 -0.478,0.254 -0.503,0.506 -0.024,0.256 0.171,0.288 0.335,0.305 C -0.118,0.3 -0.019,0.232 0,0" /></g><g
           transform="translate(87.7597,153.7327)"
           id="g172"><path
             id="path174"
             style="fill:#eac500;fill-opacity:1;fill-rule:nonzero;stroke:none"
             d="M 0,0 0.397,0.397 0,0.397 0.397,1.149 -0.725,0.731 c 0,0.003 -0.001,0.008 -0.001,0.008 0,0 -0.429,-0.166 -0.886,-0.339 l -0.008,-0.003 0,0 C -1.74,0.352 -1.861,0.306 -1.978,0.263 -2.064,0.231 -3.629,-0.257 -3.629,-0.257 l 0.589,-0.421 -0.641,-0.301 c -0.036,-0.017 -0.033,-0.078 0.004,-0.089 l 0.637,-0.2 c 0,0 -0.423,-0.548 -0.237,-0.555 0.108,-0.004 1.156,0.37 1.156,0.37 L -2.477,-6.55 c -0.006,-0.083 0.88,-0.155 0.894,0.044 l 0.379,5.417 1.695,0.692 L 0,0 Z" /></g><g
           transform="translate(81.3671,154.3874)"
           id="g176"><path
             id="path178"
             style="fill:#eac500;fill-opacity:1;fill-rule:nonzero;stroke:none"
             d="m 0,0 c -0.05,-0.213 -0.27,-0.504 -0.659,-0.873 -0.389,-0.369 -0.682,-0.576 -0.877,-0.621 l 0.275,1.165 C -0.657,0.054 -0.26,0.222 -0.068,0.177 0.001,0.161 0.024,0.102 0,0 M 0.925,0.086 C 0.921,0.104 0.838,0.271 0.676,0.588 0.614,0.71 0.548,0.832 0.479,0.956 0.409,1.08 0.32,1.17 0.213,1.228 0.152,1.259 0.09,1.281 0.029,1.296 -0.13,1.333 -0.333,1.31 -0.579,1.227 -0.825,1.143 -0.983,1.106 -1.054,1.118 -1.128,1.13 -1.246,1.186 -1.405,1.286 c -0.16,0.099 -0.265,0.149 -0.316,0.151 -0.166,0.012 -1.563,-5.669 -1.563,-5.669 -0.015,-0.066 -0.034,-0.119 -0.054,-0.16 -0.02,-0.041 -0.033,-0.074 -0.039,-0.099 -0.02,-0.081 1.485,1.497 1.485,1.497 l 0.936,-1.805 0.347,-0.61 0.117,0.688 0.281,-0.089 0,0.298 0.22,0 0.017,0.389 c -0.407,0.884 -0.674,1.443 -0.799,1.677 1.051,0.726 1.634,1.387 1.749,1.982 0.036,0.189 0.019,0.373 -0.051,0.55" /></g><g
           transform="translate(89.9614,152.2406)"
           id="g180"><path
             id="path182"
             style="fill:#eac500;fill-opacity:1;fill-rule:nonzero;stroke:none"
             d="m 0,0 c -0.438,-0.394 -0.751,-0.611 -0.939,-0.653 l 0.523,1.284 C 0.219,1.031 0.618,1.202 0.781,1.143 0.84,1.122 0.846,1.055 0.801,0.943 0.705,0.708 0.438,0.394 0,0 M 1.549,1.568 C 1.522,1.706 1.492,1.846 1.457,1.986 1.423,2.127 1.364,2.231 1.281,2.3 1.233,2.336 1.182,2.364 1.13,2.383 0.995,2.431 0.807,2.414 0.565,2.331 0.323,2.249 -0.048,2.315 -0.169,2.432 -0.29,2.549 -0.374,2.61 -0.419,2.614 -0.566,2.634 -3.16,-3.624 -3.16,-3.624 c 0,0 -0.424,-0.835 -0.353,-0.783 0.071,0.051 0.609,0.547 0.617,0.423 0.008,-0.125 0.074,-0.381 0.074,-0.381 l 0.173,0.397 c 0,0 0.197,-0.747 0.192,-0.677 -0.004,0.07 0.214,0.787 0.214,0.787 l 0.632,1.552 c 0,0 0.137,0.096 0.324,0.229 L 0.041,-7.025 -0.52,-1.516 C 0.345,-0.87 1.43,-0.003 1.574,0.386 1.652,0.595 1.679,0.8 1.658,1 c 0,0.02 -0.037,0.209 -0.109,0.568" /></g><path
           id="path184"
           style="fill:#ffffff;fill-opacity:1;fill-rule:nonzero;stroke:none"
           d="m 86.063,208 2.414,0 0,-8 -2.414,0 0,8 z" /><g
           transform="translate(95.0627,202.2805)"
           id="g186"><path
             id="path188"
             style="fill:#ffffff;fill-opacity:1;fill-rule:nonzero;stroke:none"
             d="m 0,0 c -0.054,-0.025 -0.117,-0.035 -0.176,-0.043 -0.061,-0.007 -0.122,-0.002 -0.183,-0.002 -1.043,0 -2.087,0 -3.13,0 l 0,0.647 3.387,0 C -0.071,0.597 -0.041,0.59 -0.012,0.579 0.107,0.533 0.194,0.403 0.187,0.283 0.18,0.15 0.114,0.053 0,0 m -0.394,3.498 c 0.068,0 0.136,0.004 0.203,-0.002 C -0.13,3.491 -0.068,3.483 -0.012,3.462 0.107,3.416 0.194,3.286 0.187,3.166 0.18,3.033 0.114,2.935 0,2.883 -0.054,2.858 -0.117,2.847 -0.176,2.84 -0.201,2.837 -0.227,2.837 -0.252,2.837 l -0.023,0 c -0.028,0 -0.056,10e-4 -0.084,10e-4 -1.043,0 -2.087,0 -3.13,0 l 0,0.66 c 1.032,0 2.063,0 3.095,0 M 2.563,1.738 C 2.622,1.842 2.675,1.953 2.722,2.072 3.014,2.813 3.007,3.566 2.714,4.304 2.439,4.999 1.947,5.449 1.253,5.644 1.022,5.709 -5.904,5.72 -5.904,5.72 l 0,-8 c 0,0 5.391,0 6.879,0 0.068,0.026 0.135,0.06 0.206,0.078 0.737,0.188 1.252,0.658 1.541,1.391 C 3.014,-0.07 3.007,0.683 2.714,1.421 2.67,1.533 2.619,1.638 2.563,1.738" /></g><g
           transform="translate(80.4144,201.3259)"
           id="g190"><path
             id="path192"
             style="fill:#ffffff;fill-opacity:1;fill-rule:nonzero;stroke:none"
             d="m 0,0 0,6.674 -2.414,0 0,-8 7.533,0 L 5.119,0 0,0 Z" /></g><path
           id="path194"
           style="fill:#eac500;fill-opacity:1;fill-rule:nonzero;stroke:none"
           d="m 156,160 -52,0 0,4 52,0 0,-4 z" /><path
           id="path196"
           style="fill:#eac500;fill-opacity:1;fill-rule:nonzero;stroke:none"
           d="m 156,152 -52,0 0,4 52,0 0,-4 z" /><g
           transform="translate(168.2272,167.9973)"
           id="g198"><path
             id="path200"
             style="fill:#eac500;fill-opacity:1;fill-rule:nonzero;stroke:none"
             d="m 0,0 c 2.635,0 5.269,-0.002 7.904,0.001 0.899,0.001 1.679,-0.306 2.352,-0.883 0.779,-0.667 1.248,-1.522 1.505,-2.498 0.01,-0.036 0.009,-0.074 0.009,-0.112 0.001,-0.914 -10e-4,-1.829 0.003,-2.743 0,-0.089 -0.02,-0.112 -0.112,-0.112 -2.048,0.003 -4.095,0.002 -6.142,0.001 -0.056,0 -0.109,0.009 -0.161,0.026 -3.118,0.978 -6.236,1.956 -9.354,2.934 -1.363,0.427 -2.725,0.857 -4.09,1.279 -0.114,0.035 -0.142,0.083 -0.141,0.196 0.006,0.595 0.005,1.19 0,1.785 0,0.1 0.02,0.129 0.127,0.129 C -5.4,-0.001 -2.7,0 0,0" /></g><g
           transform="translate(166.6405,163.4883)"
           id="g202"><path
             id="path204"
             style="fill:#eac500;fill-opacity:1;fill-rule:nonzero;stroke:none"
             d="M 0,0 C 0.375,-0.118 0.737,-0.232 1.1,-0.345 2.512,-0.788 3.923,-1.232 5.337,-1.671 5.436,-1.702 5.465,-1.743 5.465,-1.846 5.461,-3.492 5.462,-5.138 5.463,-6.783 c 0,-0.154 -0.022,-0.132 0.138,-0.133 0.508,-10e-4 1.017,-0.002 1.525,0.002 0.081,0 0.112,-0.012 0.112,-0.103 -0.004,-1.455 -0.004,-2.911 -0.001,-4.366 0,-0.086 -0.024,-0.105 -0.108,-0.105 -3.123,0.002 -6.246,0.002 -9.369,0 -0.091,0 -0.113,0.022 -0.112,0.111 0.004,0.714 0.003,1.429 0,2.143 0,0.071 0.023,0.106 0.088,0.138 0.724,0.359 1.446,0.722 2.17,1.081 0.071,0.035 0.096,0.073 0.096,0.154 C 0,-5.287 0,-2.713 0,-0.139 L 0,0 Z" /></g><g
           transform="translate(176.3591,161.1626)"
           id="g206"><path
             id="path208"
             style="fill:#eac500;fill-opacity:1;fill-rule:nonzero;stroke:none"
             d="m 0,0 c 1.175,0 2.349,-0.001 3.524,0.002 0.095,0.001 0.117,-0.025 0.117,-0.117 -0.003,-1.264 -0.003,-2.529 0,-3.793 0,-0.087 -0.017,-0.114 -0.111,-0.114 -2.353,0.003 -4.705,0.003 -7.058,0.001 -0.092,-0.001 -0.112,0.023 -0.112,0.112 0.003,1.264 0.003,2.529 0,3.793 0,0.09 0.019,0.119 0.116,0.118 C -2.349,-0.001 -1.175,0 0,0" /></g></g></g></g></svg>