<?xml version="1.0" encoding="UTF-8" standalone="no"?>
<svg
   xmlns:dc="http://purl.org/dc/elements/1.1/"
   xmlns:cc="http://creativecommons.org/ns#"
   xmlns:rdf="http://www.w3.org/1999/02/22-rdf-syntax-ns#"
   xmlns:svg="http://www.w3.org/2000/svg"
   xmlns="http://www.w3.org/2000/svg"
   viewBox="0 0 320 320"
   height="320"
   width="320"
   xml:space="preserve"
   version="1.1"
   id="svg2"><metadata
     id="metadata8"><rdf:RDF><cc:Work
         rdf:about=""><dc:format>image/svg+xml</dc:format><dc:type
           rdf:resource="http://purl.org/dc/dcmitype/StillImage" /></cc:Work></rdf:RDF></metadata><defs
     id="defs6"><clipPath
       id="clipPath16"
       clipPathUnits="userSpaceOnUse"><path
         id="path18"
         d="M 0,256 256,256 256,0 0,0 0,256 Z" /></clipPath><clipPath
       id="clipPath24"
       clipPathUnits="userSpaceOnUse"><path
         id="path26"
         d="M 3.99983,186 252,186 252,72 3.99983,72 l 0,114 z" /></clipPath></defs><g
     transform="matrix(1.25,0,0,-1.25,0,320)"
     id="g10"><g
       id="g12"><g
         clip-path="url(#clipPath16)"
         id="g14"><g
           id="g20"><g
             id="g22" /><g
             id="g28"><g
               style="opacity:0.5"
               id="g30"
               clip-path="url(#clipPath24)"><g
                 id="g32"
                 transform="translate(242.5274,159.3912)"><path
                   id="path34"
                   style="fill:#ffffff;fill-opacity:1;fill-rule:nonzero;stroke:none"
                   d="m 0,0 c -6.088,9.118 -14.563,16.141 -24.541,20.343 -5.395,3.17 -11.252,5.054 -17.419,5.605 -4.916,0.438 -9.931,0.661 -14.905,0.661 -8.546,0 -14.079,-0.66 -14.311,-0.688 l -0.238,-0.029 -0.237,-0.043 c -0.639,-0.117 -2.014,-0.441 -3.504,-1.24 l -78.745,0 c -1.49,0.799 -2.865,1.123 -3.504,1.24 l -0.236,0.043 -0.239,0.029 c -0.231,0.028 -5.766,0.688 -14.31,0.688 -4.974,0 -9.989,-0.223 -14.905,-0.661 -6.507,-0.581 -12.656,-2.642 -18.285,-6.129 -19.599,-8.745 -32.58,-28.193 -33.129,-49.727 -0.394,-15.425 5.266,-29.948 15.937,-40.895 10.427,-10.697 24.329,-16.588 39.145,-16.588 11.313,0 22.187,3.462 31.445,10.012 1.299,0.919 2.885,1.405 4.585,1.405 l 65.767,0 c 1.68,0 3.262,-0.49 4.575,-1.419 9.254,-6.541 20.121,-9.998 31.425,-9.998 l 0.404,0.001 c 14.464,0.106 28.115,5.917 38.437,16.364 C 3.496,-60.618 9.269,-46.821 9.467,-32.177 9.624,-20.637 6.35,-9.51 0,0" /></g></g></g></g><g
           transform="translate(224,164)"
           id="g36"><path
             id="path38"
             style="fill:#999999;fill-opacity:1;fill-rule:nonzero;stroke:none"
             d="m 0,0 c 0,0 -8.273,11.954 -24.144,13.371 -15.871,1.416 -27.541,0 -27.541,0 0,0 -2.296,-0.405 -2.315,-2.024 L 0,0" /></g><g
           transform="translate(32,164)"
           id="g40"><path
             id="path42"
             style="fill:#999999;fill-opacity:1;fill-rule:nonzero;stroke:none"
             d="m 0,0 c 0,0 8.273,11.954 24.144,13.371 15.871,1.416 27.541,0 27.541,0 0,0 2.296,-0.405 2.315,-2.024 L 0,0" /></g><g
           transform="translate(196.8988,176)"
           id="g44"><path
             id="path46"
             style="fill:#a6a6a6;fill-opacity:1;fill-rule:nonzero;stroke:none"
             d="m 0,0 -137.299,0 c -25.608,0 -46.918,-20.632 -47.583,-46.721 -0.692,-27.094 20.654,-49.279 47.084,-49.279 9.969,0 19.213,3.158 26.825,8.543 2.695,1.907 5.924,2.874 9.206,2.874 l 65.767,0 c 3.279,0 6.498,-0.981 9.192,-2.886 7.697,-5.44 17.059,-8.603 27.152,-8.53 25.498,0.186 46.401,21.338 46.753,47.321 C 47.46,-21.858 26.235,0 0,0" /></g><g
           transform="translate(240,128)"
           id="g48"><path
             id="path50"
             style="fill:#737373;fill-opacity:1;fill-rule:nonzero;stroke:none"
             d="m 0,0 c 0,-24.301 -19.699,-44 -44,-44 -24.301,0 -44,19.699 -44,44 0,24.301 19.699,44 44,44 C -19.699,44 0,24.301 0,0" /></g><g
           transform="translate(78,136)"
           id="g52"><path
             id="path54"
             style="fill:#191919;fill-opacity:1;fill-rule:nonzero;stroke:none"
             d="m 0,0 -10,0 0,10 c 0,1.105 -0.895,2 -2,2 l -12,0 c -1.105,0 -2,-0.895 -2,-2 l 0,-10 -10,0 c -1.105,0 -2,-0.895 -2,-2 l 0,-12 c 0,-1.105 0.895,-2 2,-2 l 10,0 0,-10 c 0,-1.105 0.895,-2 2,-2 l 12,0 c 1.105,0 2,0.895 2,2 l 0,10 10,0 c 1.105,0 2,0.895 2,2 L 2,-2 C 2,-0.895 1.105,0 0,0" /></g><g
           transform="translate(56,128)"
           id="g56"><path
             id="path58"
             style="fill:#262626;fill-opacity:1;fill-rule:nonzero;stroke:none"
             d="M 0,0 C 0,2.209 1.791,4 4,4 6.209,4 8,2.209 8,0 8,-2.209 6.209,-4 4,-4 1.791,-4 0,-2.209 0,0" /></g><g
           transform="translate(208,144)"
           id="g60"><path
             id="path62"
             style="fill:#b3b3b3;fill-opacity:1;fill-rule:nonzero;stroke:none"
             d="m 0,0 c 0,6.617 -5.383,12 -12,12 -2.455,0 -4.739,-0.744 -6.643,-2.015 l -10e-4,0.002 -0.02,-0.015 C -18.717,9.937 -18.767,9.898 -18.82,9.862 L -41.795,-6.499 c -0.773,-0.428 -1.487,-0.945 -2.144,-1.527 L -44,-8.069 -43.995,-8.076 C -46.446,-10.275 -48,-13.456 -48,-17 c 0,-6.617 5.383,-12 12,-12 2.185,0 4.229,0.596 5.995,1.621 l 0.005,-0.007 0.102,0.071 c 0.575,0.342 1.123,0.723 1.631,1.153 l 22.769,16.091 c 0.235,0.152 0.46,0.315 0.683,0.483 l 0.004,0.002 0,10e-4 C -1.897,-7.394 0,-3.919 0,0" /></g><g
           transform="translate(172.0001,135)"
           id="g64"><path
             id="path66"
             style="fill:#007b00;fill-opacity:1;fill-rule:nonzero;stroke:none"
             d="m 0,0 c -4.418,0 -8,-3.582 -8,-8 0,-4.418 3.582,-8 8,-8 4.418,0 8,3.582 8,8 0,4.418 -3.582,8 -8,8" /></g><g
           transform="translate(172.0001,136)"
           id="g68"><path
             id="path70"
             style="fill:#003d00;fill-opacity:1;fill-rule:nonzero;stroke:none"
             d="m 0,0 c -4.963,0 -9,-4.037 -9,-9 0,-4.963 4.037,-9 9,-9 4.963,0 9,4.037 9,9 0,4.963 -4.037,9 -9,9 m 0,-1 c 4.418,0 8,-3.582 8,-8 0,-4.418 -3.582,-8 -8,-8 -4.418,0 -8,3.582 -8,8 0,4.418 3.582,8 8,8" /></g><g
           transform="translate(196.0001,152)"
           id="g72"><path
             id="path74"
             style="fill:#354f9f;fill-opacity:1;fill-rule:nonzero;stroke:none"
             d="m 0,0 c -4.418,0 -8,-3.582 -8,-8 0,-4.418 3.582,-8 8,-8 4.418,0 8,3.582 8,8 0,4.418 -3.582,8 -8,8" /></g><g
           transform="translate(196.0001,153)"
           id="g76"><path
             id="path78"
             style="fill:#263979;fill-opacity:1;fill-rule:nonzero;stroke:none"
             d="m 0,0 c -4.963,0 -9,-4.037 -9,-9 0,-4.963 4.037,-9 9,-9 4.963,0 9,4.037 9,9 0,4.963 -4.037,9 -9,9 m 0,-1 c 4.418,0 8,-3.582 8,-8 0,-4.418 -3.582,-8 -8,-8 -4.418,0 -8,3.582 -8,8 0,4.418 3.582,8 8,8" /></g><g
           transform="translate(232,125)"
           id="g80"><path
             id="path82"
             style="fill:#b3b3b3;fill-opacity:1;fill-rule:nonzero;stroke:none"
             d="m 0,0 c 0,6.617 -5.383,12 -12,12 -2.455,0 -4.739,-0.744 -6.643,-2.015 l -10e-4,0.002 -0.02,-0.015 C -18.717,9.937 -18.767,9.898 -18.82,9.862 L -41.795,-6.499 c -0.773,-0.428 -1.487,-0.945 -2.144,-1.527 L -44,-8.069 -43.995,-8.076 C -46.446,-10.275 -48,-13.456 -48,-17 c 0,-6.617 5.383,-12 12,-12 2.185,0 4.229,0.596 5.995,1.621 l 0.005,-0.007 0.102,0.071 c 0.575,0.342 1.123,0.723 1.631,1.153 l 22.769,16.091 c 0.235,0.152 0.46,0.315 0.683,0.483 l 0.004,0.002 0,10e-4 C -1.897,-7.394 0,-3.919 0,0" /></g><g
           transform="translate(195.9999,116)"
           id="g84"><path
             id="path86"
             style="fill:#eac500;fill-opacity:1;fill-rule:nonzero;stroke:none"
             d="m 0,0 c -4.418,0 -8,-3.582 -8,-8 0,-4.418 3.582,-8 8,-8 4.418,0 8,3.582 8,8 0,4.418 -3.582,8 -8,8" /></g><g
           transform="translate(195.9999,117)"
           id="g88"><path
             id="path90"
             style="fill:#d4a600;fill-opacity:1;fill-rule:nonzero;stroke:none"
             d="m 0,0 c -4.963,0 -9,-4.037 -9,-9 0,-4.963 4.037,-9 9,-9 4.963,0 9,4.037 9,9 0,4.963 -4.037,9 -9,9 m 0,-1 c 4.418,0 8,-3.582 8,-8 0,-4.418 -3.582,-8 -8,-8 -4.418,0 -8,3.582 -8,8 0,4.418 3.582,8 8,8" /></g><g
           transform="translate(220.0001,133)"
           id="g92"><path
             id="path94"
             style="fill:#b80000;fill-opacity:1;fill-rule:nonzero;stroke:none"
             d="m 0,0 c -4.418,0 -8,-3.582 -8,-8 0,-4.418 3.582,-8 8,-8 4.418,0 8,3.582 8,8 0,4.418 -3.582,8 -8,8" /></g><g
           transform="translate(220.0001,134)"
           id="g96"><path
             id="path98"
             style="fill:#7b0000;fill-opacity:1;fill-rule:nonzero;stroke:none"
             d="m 0,0 c -4.963,0 -9,-4.037 -9,-9 0,-4.963 4.037,-9 9,-9 4.963,0 9,4.037 9,9 0,4.963 -4.037,9 -9,9 m 0,-1 c 4.418,0 8,-3.582 8,-8 0,-4.418 -3.582,-8 -8,-8 -4.418,0 -8,3.582 -8,8 0,4.418 3.582,8 8,8" /></g><g
           transform="translate(139.3874,118.9889)"
           id="g100"><path
             id="path102"
             style="fill:#191919;fill-opacity:1;fill-rule:nonzero;stroke:none"
             d="m 0,0 c -0.567,0.643 -1.427,1.011 -2.36,1.011 -0.658,0 -1.283,-0.184 -1.806,-0.534 l -10.249,-6.833 c -1.3,-0.867 -1.546,-2.492 -0.549,-3.622 0.567,-0.642 1.427,-1.011 2.36,-1.011 0.658,0 1.283,0.185 1.806,0.534 l 10.249,6.833 C 0.751,-2.755 0.997,-1.13 0,0" /></g><g
           transform="translate(137.0276,121)"
           id="g104"><path
             id="path106"
             style="fill:#999999;fill-opacity:1;fill-rule:nonzero;stroke:none"
             d="M 0,0 C -0.857,0 -1.674,-0.243 -2.362,-0.702 L -12.61,-7.535 c -0.875,-0.584 -1.451,-1.481 -1.579,-2.461 -0.125,-0.96 0.171,-1.902 0.835,-2.654 0.757,-0.858 1.89,-1.35 3.11,-1.35 0.856,0 1.672,0.243 2.361,0.702 l 10.249,6.833 c 0.875,0.584 1.451,1.481 1.579,2.461 C 4.07,-3.044 3.773,-2.102 3.11,-1.349 2.353,-0.492 1.22,0 0,0 m 0,-1 c 0.933,0 1.793,-0.368 2.36,-1.011 0.997,-1.13 0.751,-2.755 -0.549,-3.622 L -8.438,-12.466 C -8.961,-12.815 -9.586,-13 -10.244,-13 c -0.933,0 -1.793,0.369 -2.36,1.011 -0.997,1.13 -0.751,2.755 0.549,3.622 l 10.249,6.833 C -1.283,-1.184 -0.658,-1 0,-1" /></g><g
           transform="translate(113.2183,120)"
           id="g108"><path
             id="path110"
             style="fill:#191919;fill-opacity:1;fill-rule:nonzero;stroke:none"
             d="m 0,0 c -0.658,0 -1.283,-0.184 -1.806,-0.534 l -10.249,-6.833 c -0.63,-0.42 -1.034,-1.028 -1.137,-1.712 -0.104,-0.684 0.105,-1.362 0.588,-1.91 0.567,-0.642 1.427,-1.011 2.36,-1.011 0.658,0 1.283,0.185 1.806,0.534 l 10.249,6.833 c 0.629,0.42 1.033,1.028 1.137,1.712 0.104,0.684 -0.105,1.362 -0.588,1.91 C 1.793,-0.368 0.933,0 0,0" /></g><g
           transform="translate(113.2183,121)"
           id="g112"><path
             id="path114"
             style="fill:#999999;fill-opacity:1;fill-rule:nonzero;stroke:none"
             d="M 0,0 C -0.857,0 -1.674,-0.243 -2.362,-0.702 L -12.61,-7.535 c -0.866,-0.578 -1.425,-1.428 -1.571,-2.394 -0.149,-0.982 0.145,-1.948 0.827,-2.721 0.757,-0.858 1.89,-1.35 3.11,-1.35 0.856,0 1.672,0.243 2.361,0.702 L 2.365,-6.465 C 3.232,-5.887 3.79,-5.037 3.937,-4.071 4.086,-3.089 3.792,-2.123 3.11,-1.35 2.353,-0.492 1.219,0 0,0 M 0,-1 C 0.933,-1 1.793,-1.368 2.36,-2.011 2.843,-2.559 3.052,-3.237 2.948,-3.921 2.844,-4.605 2.44,-5.213 1.811,-5.633 L -8.438,-12.466 C -8.961,-12.815 -9.586,-13 -10.244,-13 c -0.933,0 -1.793,0.369 -2.36,1.011 -0.483,0.548 -0.692,1.226 -0.588,1.91 0.103,0.684 0.507,1.292 1.137,1.712 l 10.249,6.833 C -1.283,-1.184 -0.658,-1 0,-1" /></g><g
           transform="translate(42.417,128.6431)"
           id="g116"><path
             id="path118"
             style="fill:#262626;fill-opacity:1;fill-rule:nonzero;stroke:none"
             d="M 0,0 6.332,3.256 C 6.888,3.542 7.583,3.185 7.583,2.613 l 0,-6.512 c 0,-0.572 -0.695,-0.929 -1.251,-0.644 L 0,-1.287 C -0.556,-1.001 -0.556,-0.286 0,0" /></g><g
           transform="translate(77.583,127.3569)"
           id="g120"><path
             id="path122"
             style="fill:#262626;fill-opacity:1;fill-rule:nonzero;stroke:none"
             d="m 0,0 -6.332,-3.256 c -0.556,-0.286 -1.251,0.071 -1.251,0.643 l 0,6.512 c 0,0.572 0.695,0.929 1.251,0.644 L 0,1.287 C 0.556,1.001 0.556,0.286 0,0" /></g><g
           transform="translate(60.6431,145.583)"
           id="g124"><path
             id="path126"
             style="fill:#262626;fill-opacity:1;fill-rule:nonzero;stroke:none"
             d="M 0,0 3.256,-6.332 C 3.542,-6.888 3.185,-7.583 2.613,-7.583 l -6.512,0 c -0.572,0 -0.929,0.695 -0.644,1.251 L -1.287,0 C -1.001,0.556 -0.286,0.556 0,0" /></g><g
           transform="translate(59.3569,110.417)"
           id="g128"><path
             id="path130"
             style="fill:#262626;fill-opacity:1;fill-rule:nonzero;stroke:none"
             d="m 0,0 -3.256,6.332 c -0.286,0.556 0.071,1.251 0.643,1.251 l 6.512,0 c 0.572,0 0.929,-0.695 0.644,-1.251 L 1.287,0 C 1.001,-0.556 0.286,-0.556 0,0" /></g><g
           transform="translate(60,156)"
           id="g132"><path
             id="path134"
             style="fill:#999999;fill-opacity:1;fill-rule:nonzero;stroke:none"
             d="m 0,0 c -15.464,0 -28,-12.536 -28,-28 0,-15.464 12.536,-28 28,-28 15.464,0 28,12.536 28,28 C 28,-12.536 15.464,0 0,0 m 0,-2 c 14.336,0 26,-11.664 26,-26 0,-14.336 -11.664,-26 -26,-26 -14.336,0 -26,11.664 -26,26 0,14.336 11.664,26 26,26" /></g><path
           id="path136"
           style="fill:#999999;fill-opacity:1;fill-rule:nonzero;stroke:none"
           d="m 132,174 -8,0 0,2 8,0 0,-2 z" /><g
           transform="translate(100,162)"
           id="g138"><path
             id="path140"
             style="fill:#808080;fill-opacity:1;fill-rule:nonzero;stroke:none"
             d="m 0,0 c 0,-1.105 -1.343,-2 -3,-2 -1.657,0 -3,0.895 -3,2 0,1.105 1.343,2 3,2 1.657,0 3,-0.895 3,-2" /></g><g
           transform="translate(94,158)"
           id="g142"><path
             id="path144"
             style="fill:#808080;fill-opacity:1;fill-rule:nonzero;stroke:none"
             d="m 0,0 c 0,-1.105 -1.343,-2 -3,-2 -1.657,0 -3,0.895 -3,2 0,1.105 1.343,2 3,2 1.657,0 3,-0.895 3,-2" /></g><g
           transform="translate(106,158)"
           id="g146"><path
             id="path148"
             style="fill:#808080;fill-opacity:1;fill-rule:nonzero;stroke:none"
             d="m 0,0 c 0,-1.105 -1.343,-2 -3,-2 -1.657,0 -3,0.895 -3,2 0,1.105 1.343,2 3,2 1.657,0 3,-0.895 3,-2" /></g><g
           transform="translate(100,154)"
           id="g150"><path
             id="path152"
             style="fill:#808080;fill-opacity:1;fill-rule:nonzero;stroke:none"
             d="m 0,0 c 0,-1.105 -1.343,-2 -3,-2 -1.657,0 -3,0.895 -3,2 0,1.105 1.343,2 3,2 1.657,0 3,-0.895 3,-2" /></g><g
           transform="translate(110.1559,155.5193)"
           id="g154"><path
             id="path156"
             style="fill:#808080;fill-opacity:1;fill-rule:nonzero;stroke:none"
             d="m 0,0 -1.758,0 c -0.336,0 -0.47,0.278 -0.368,0.777 l 0.413,2.02 0.872,0 -0.354,-1.731 1.069,0 0.341,1.665 -1.258,2.409 c -0.106,0.188 -0.118,0.355 -0.052,0.677 l 0.386,1.887 c 0.102,0.499 0.349,0.777 0.686,0.777 l 1.757,0 c 0.337,0 0.471,-0.278 0.372,-0.766 l -0.389,-1.898 -0.871,0 0.327,1.598 -1.07,0 L -0.21,5.883 1.049,3.486 C 1.154,3.286 1.166,3.119 1.1,2.797 L 0.687,0.777 C 0.585,0.278 0.336,0 0,0" /></g><g
           transform="translate(113.7613,155.5193)"
           id="g158"><path
             id="path160"
             style="fill:#808080;fill-opacity:1;fill-rule:nonzero;stroke:none"
             d="m 0,0 -1.857,0 c -0.344,0 -0.471,0.278 -0.368,0.777 l 1.575,7.704 0.871,0 -1.511,-7.393 1.176,0 1.512,7.393 0.871,0 L 0.694,0.777 C 0.592,0.278 0.344,0 0,0" /></g><g
           transform="translate(118.4503,162.9125)"
           id="g162"><path
             id="path164"
             style="fill:#808080;fill-opacity:1;fill-rule:nonzero;stroke:none"
             d="m 0,0 -1.07,0 -0.661,-3.23 1.07,0 L 0,0 Z m -0.539,-4.318 -1.414,0 -0.629,-3.075 -0.871,0 1.734,8.48 2.285,0 C 0.91,1.087 1.045,0.81 0.942,0.311 L 0.157,-3.53 c -0.102,-0.5 -0.352,-0.788 -0.696,-0.788" /></g><g
           transform="translate(118.4272,155.5193)"
           id="g166"><path
             id="path168"
             style="fill:#808080;fill-opacity:1;fill-rule:nonzero;stroke:none"
             d="m 0,0 1.734,8.481 2.4,0 L 3.905,7.36 2.376,7.36 1.87,4.884 3.184,4.884 2.96,3.785 1.645,3.785 1.1,1.121 2.652,1.121 2.422,0 0,0 Z" /></g><g
           transform="translate(126.455,155.5193)"
           id="g170"><path
             id="path172"
             style="fill:#808080;fill-opacity:1;fill-rule:nonzero;stroke:none"
             d="m 0,0 1.734,8.481 0.871,0 -1.503,-7.349 1.422,0 L 2.293,0 0,0 Z" /></g><g
           transform="translate(129.2811,155.5193)"
           id="g174"><path
             id="path176"
             style="fill:#808080;fill-opacity:1;fill-rule:nonzero;stroke:none"
             d="m 0,0 1.734,8.481 0.871,0 L 0.871,0 0,0 Z" /></g><g
           transform="translate(133.57,159.0051)"
           id="g178"><path
             id="path180"
             style="fill:#808080;fill-opacity:1;fill-rule:nonzero;stroke:none"
             d="m 0,0 -0.344,0.41 -0.688,0 -0.579,-2.83 1.116,0 L 0,0 Z m 0.78,3.929 -1.093,0 -0.508,-2.486 0.672,0 0.509,0.433 0.42,2.053 z m -1.149,-7.415 -2.331,0 1.734,8.481 2.316,0 c 0.336,0 0.463,-0.277 0.361,-0.777 L 1.263,2.031 C 1.182,1.632 1.066,1.443 0.824,1.265 L 0.399,0.944 0.711,0.599 C 0.881,0.422 0.922,0.211 0.84,-0.189 l -0.515,-2.52 c -0.102,-0.499 -0.35,-0.777 -0.694,-0.777" /></g><g
           transform="translate(136.4854,155.5193)"
           id="g182"><path
             id="path184"
             style="fill:#808080;fill-opacity:1;fill-rule:nonzero;stroke:none"
             d="M 0,0 -0.157,3.941 0,4.707 l 0.856,0 0.549,2.686 -1.101,0 L -1.208,0 l -0.871,0 1.735,8.481 2.315,0 c 0.344,0 0.471,-0.278 0.368,-0.777 L 1.708,4.618 C 1.606,4.118 1.369,3.852 1.03,3.841 l -0.298,0 L 0.919,0.045 0.91,0 0,0 Z" /></g><g
           transform="translate(137.9281,155.5193)"
           id="g186"><path
             id="path188"
             style="fill:#808080;fill-opacity:1;fill-rule:nonzero;stroke:none"
             d="m 0,0 1.734,8.481 2.4,0 -0.229,-1.121 -1.528,0 -0.507,-2.476 1.314,0 -0.224,-1.099 -1.314,0 -0.545,-2.664 1.551,0 L 2.422,0 0,0 Z" /></g><g
           transform="translate(144.0242,162.8791)"
           id="g190"><path
             id="path192"
             style="fill:#808080;fill-opacity:1;fill-rule:nonzero;stroke:none"
             d="m 0,0 -1.505,-7.36 -0.871,0 1.505,7.36 -0.955,0 0.229,1.121 2.789,0 L 0.963,0 0,0 Z" /></g><g
           transform="translate(146.0033,155.5193)"
           id="g194"><path
             id="path196"
             style="fill:#808080;fill-opacity:1;fill-rule:nonzero;stroke:none"
             d="M 0,0 -0.157,3.941 0,4.707 l 0.856,0 0.549,2.686 -1.1,0 L -1.207,0 l -0.872,0 1.735,8.481 2.315,0 c 0.344,0 0.471,-0.278 0.368,-0.777 L 1.708,4.618 C 1.606,4.118 1.369,3.852 1.03,3.841 l -0.298,0 L 0.919,0.045 0.91,0 0,0 Z" /></g><g
           transform="translate(151.0285,162.9125)"
           id="g198"><path
             id="path200"
             style="fill:#808080;fill-opacity:1;fill-rule:nonzero;stroke:none"
             d="m 0,0 -1.2,0 -1.289,-6.305 1.2,0 L 0,0 Z m -1.168,-7.393 -1.895,0 c -0.337,0 -0.463,0.277 -0.361,0.777 l 1.416,6.927 c 0.102,0.499 0.343,0.776 0.679,0.776 l 1.895,0 c 0.336,0 0.471,-0.277 0.368,-0.776 l -1.416,-6.927 c -0.102,-0.5 -0.35,-0.777 -0.686,-0.777" /></g><g
           transform="translate(124.2366,159.6822)"
           id="g202"><path
             id="path204"
             style="fill:#808080;fill-opacity:1;fill-rule:nonzero;stroke:none"
             d="m 0,0 -1.07,0 0.661,3.23 1.07,0 L 0,0 Z m 1.227,4.318 -2.285,0 -1.734,-8.481 0.871,0 0.629,3.075 0.002,0 0.629,-3.075 0.871,0 -0.629,3.075 0.54,0 c 0.345,0 0.594,0.289 0.697,0.788 l 0.785,3.841 c 0.102,0.5 -0.032,0.777 -0.376,0.777" /></g><path
           id="path206"
           style="fill:#808080;fill-opacity:1;fill-rule:nonzero;stroke:none"
           d="m 151.029,152 -43.032,0 0,2.854 43.032,0 0,-2.854 z" /><g
           transform="translate(108.649,152.4678)"
           id="g208"><path
             id="path210"
             style="fill:#a6a6a6;fill-opacity:1;fill-rule:nonzero;stroke:none"
             d="m 0,0 0.414,2.022 0.746,0 -0.055,-0.267 -0.475,0 -0.121,-0.59 0.409,0 -0.053,-0.262 -0.409,0 -0.13,-0.635 0.482,0 L 0.753,0 0,0 Z" /></g><g
           transform="translate(112.137,152.4678)"
           id="g212"><path
             id="path214"
             style="fill:#a6a6a6;fill-opacity:1;fill-rule:nonzero;stroke:none"
             d="m 0,0 0.204,0.998 c 0.016,0.077 0.062,0.22 0.062,0.22 l -0.447,-1.033 -0.138,0 -0.024,1.033 c 0,0 -0.012,-0.143 -0.028,-0.22 L -0.575,0 l -0.262,0 0.414,2.022 0.257,0 0.056,-1.117 c 0.001,-0.018 -0.011,-0.092 -0.011,-0.092 0,0 0.017,0.074 0.025,0.092 l 0.514,1.117 0.257,0 L 0.262,0 0,0 Z" /></g><g
           transform="translate(115.0692,152.4678)"
           id="g216"><path
             id="path218"
             style="fill:#a6a6a6;fill-opacity:1;fill-rule:nonzero;stroke:none"
             d="m 0,0 -0.577,0 c -0.108,0 -0.151,0.066 -0.126,0.185 l 0.375,1.837 0.271,0 -0.36,-1.763 0.366,0 0.36,1.763 0.271,0 L 0.205,0.185 C 0.18,0.066 0.107,0 0,0" /></g><g
           transform="translate(117.1673,152.4678)"
           id="g220"><path
             id="path222"
             style="fill:#a6a6a6;fill-opacity:1;fill-rule:nonzero;stroke:none"
             d="m 0,0 0.414,2.022 0.27,0 L 0.326,0.27 0.769,0.27 0.713,0 0,0 Z" /></g><g
           transform="translate(120.5198,154.0242)"
           id="g224"><path
             id="path226"
             style="fill:#a6a6a6;fill-opacity:1;fill-rule:nonzero;stroke:none"
             d="m 0,0 -0.32,-0.913 0.266,0 L 0,0 Z m -0.093,-1.556 0.024,0.383 -0.34,0 -0.133,-0.383 -0.269,0 0.001,0.005 0.765,2.02 0.286,0 -0.064,-2.02 -0.001,-0.005 -0.269,0 z" /></g><g
           transform="translate(123.3071,154.223)"
           id="g228"><path
             id="path230"
             style="fill:#a6a6a6;fill-opacity:1;fill-rule:nonzero;stroke:none"
             d="m 0,0 -0.359,-1.755 -0.271,0 0.359,1.755 -0.298,0 0.055,0.267 0.868,0 L 0.3,0 0,0 Z" /></g><g
           transform="translate(125.1029,152.4678)"
           id="g232"><path
             id="path234"
             style="fill:#a6a6a6;fill-opacity:1;fill-rule:nonzero;stroke:none"
             d="m 0,0 0.414,2.022 0.27,0 L 0.271,0 0,0 Z" /></g><g
           transform="translate(128.3142,154.2308)"
           id="g236"><path
             id="path238"
             style="fill:#a6a6a6;fill-opacity:1;fill-rule:nonzero;stroke:none"
             d="m 0,0 -0.373,0 -0.308,-1.504 0.374,0 L 0,0 Z m -0.253,-1.763 -0.59,0 c -0.105,0 -0.148,0.066 -0.124,0.185 l 0.338,1.652 c 0.025,0.119 0.095,0.185 0.2,0.185 l 0.589,0 c 0.105,0 0.15,-0.066 0.126,-0.185 l -0.338,-1.652 c -0.024,-0.119 -0.097,-0.185 -0.201,-0.185" /></g><g
           transform="translate(130.8378,152.4678)"
           id="g240"><path
             id="path242"
             style="fill:#a6a6a6;fill-opacity:1;fill-rule:nonzero;stroke:none"
             d="m 0,0 -0.175,1.273 c 0,0 -0.002,-0.092 -0.013,-0.145 L -0.418,0 l -0.264,0 0.414,2.022 0.237,0 0.18,-1.246 c 0,0 0.003,0.092 0.013,0.145 l 0.226,1.101 0.264,0 L 0.238,0 0,0 Z" /></g><g
           transform="translate(135.9154,152.4678)"
           id="g244"><path
             id="path246"
             style="fill:#a6a6a6;fill-opacity:1;fill-rule:nonzero;stroke:none"
             d="m 0,0 -0.547,0 c -0.104,0 -0.15,0.066 -0.126,0.185 l 0.099,0.482 0.271,0 -0.085,-0.413 0.333,0 0.081,0.397 -0.427,0.575 C -0.437,1.271 -0.443,1.31 -0.427,1.387 l 0.092,0.45 c 0.024,0.119 0.097,0.185 0.202,0.185 l 0.547,0 c 0.104,0 0.15,-0.066 0.126,-0.182 l -0.092,-0.453 -0.271,0 0.078,0.381 -0.333,0 L -0.153,1.403 0.275,0.831 C 0.31,0.784 0.316,0.744 0.301,0.667 L 0.202,0.185 C 0.178,0.066 0.105,0 0,0" /></g><g
           transform="translate(138.7141,153.2116)"
           id="g248"><path
             id="path250"
             style="fill:#a6a6a6;fill-opacity:1;fill-rule:nonzero;stroke:none"
             d="m 0,0 -0.152,-0.744 -0.274,0 0.152,0.744 -0.099,1.268 0.002,0.011 0.281,0 0.036,-0.879 0.396,0.879 0.278,0 L 0.618,1.268 0,0 Z" /></g><g
           transform="translate(141.4801,152.4678)"
           id="g252"><path
             id="path254"
             style="fill:#a6a6a6;fill-opacity:1;fill-rule:nonzero;stroke:none"
             d="m 0,0 -0.547,0 c -0.104,0 -0.15,0.066 -0.126,0.185 l 0.099,0.482 0.271,0 -0.085,-0.413 0.333,0 0.081,0.397 -0.427,0.575 C -0.437,1.271 -0.443,1.31 -0.427,1.387 l 0.092,0.45 c 0.024,0.119 0.097,0.185 0.202,0.185 l 0.547,0 c 0.104,0 0.15,-0.066 0.126,-0.182 l -0.092,-0.453 -0.271,0 0.078,0.381 -0.333,0 L -0.153,1.403 0.275,0.831 C 0.31,0.784 0.316,0.744 0.301,0.667 L 0.202,0.185 C 0.178,0.066 0.105,0 0,0" /></g><g
           transform="translate(144.4216,154.223)"
           id="g256"><path
             id="path258"
             style="fill:#a6a6a6;fill-opacity:1;fill-rule:nonzero;stroke:none"
             d="m 0,0 -0.359,-1.755 -0.271,0 0.359,1.755 -0.298,0 0.055,0.267 0.868,0 L 0.3,0 0,0 Z" /></g><g
           transform="translate(146.2127,152.4678)"
           id="g260"><path
             id="path262"
             style="fill:#a6a6a6;fill-opacity:1;fill-rule:nonzero;stroke:none"
             d="m 0,0 0.414,2.022 0.746,0 -0.054,-0.267 -0.476,0 -0.121,-0.59 0.409,0 -0.053,-0.262 -0.409,0 -0.13,-0.635 0.482,0 L 0.753,0 0,0 Z" /></g><g
           transform="translate(149.7008,152.4678)"
           id="g264"><path
             id="path266"
             style="fill:#a6a6a6;fill-opacity:1;fill-rule:nonzero;stroke:none"
             d="m 0,0 0.204,0.998 c 0.016,0.077 0.062,0.22 0.062,0.22 l -0.447,-1.033 -0.137,0 -0.025,1.033 c 0,0 -0.012,-0.143 -0.028,-0.22 L -0.575,0 l -0.262,0 0.414,2.022 0.257,0 0.056,-1.117 c 0.001,-0.018 -0.011,-0.092 -0.011,-0.092 0,0 0.017,0.074 0.026,0.092 l 0.513,1.117 0.257,0 L 0.262,0 0,0 Z" /></g></g></g></g></svg>