<?xml version="1.0" encoding="UTF-8" standalone="no"?>
<svg
   xmlns:dc="http://purl.org/dc/elements/1.1/"
   xmlns:cc="http://creativecommons.org/ns#"
   xmlns:rdf="http://www.w3.org/1999/02/22-rdf-syntax-ns#"
   xmlns:svg="http://www.w3.org/2000/svg"
   xmlns="http://www.w3.org/2000/svg"
   viewBox="0 0 320 320"
   height="320"
   width="320"
   xml:space="preserve"
   version="1.1"
   id="svg2"><metadata
     id="metadata8"><rdf:RDF><cc:Work
         rdf:about=""><dc:format>image/svg+xml</dc:format><dc:type
           rdf:resource="http://purl.org/dc/dcmitype/StillImage" /></cc:Work></rdf:RDF></metadata><defs
     id="defs6"><clipPath
       id="clipPath16"
       clipPathUnits="userSpaceOnUse"><path
         id="path18"
         d="M 0,256 256,256 256,0 0,0 0,256 Z" /></clipPath><clipPath
       id="clipPath24"
       clipPathUnits="userSpaceOnUse"><path
         id="path26"
         d="M 3.99983,186 252,186 252,72 3.99983,72 l 0,114 z" /></clipPath></defs><g
     transform="matrix(1.25,0,0,-1.25,0,320)"
     id="g10"><g
       id="g12"><g
         clip-path="url(#clipPath16)"
         id="g14"><g
           id="g20"><g
             id="g22" /><g
             id="g28"><g
               style="opacity:0.5"
               id="g30"
               clip-path="url(#clipPath24)"><g
                 id="g32"
                 transform="translate(242.5274,159.3912)"><path
                   id="path34"
                   style="fill:#ffffff;fill-opacity:1;fill-rule:nonzero;stroke:none"
                   d="m 0,0 c -6.088,9.118 -14.563,16.141 -24.541,20.343 -5.395,3.17 -11.252,5.054 -17.419,5.605 -4.916,0.438 -9.931,0.661 -14.905,0.661 -8.546,0 -14.079,-0.66 -14.311,-0.688 l -0.238,-0.029 -0.237,-0.043 c -0.639,-0.117 -2.014,-0.441 -3.504,-1.24 l -78.745,0 c -1.49,0.799 -2.865,1.123 -3.504,1.24 l -0.236,0.043 -0.239,0.029 c -0.231,0.028 -5.766,0.688 -14.31,0.688 -4.974,0 -9.989,-0.223 -14.905,-0.661 -6.507,-0.581 -12.656,-2.642 -18.285,-6.129 -19.599,-8.745 -32.58,-28.193 -33.129,-49.727 -0.394,-15.425 5.266,-29.948 15.937,-40.895 10.427,-10.697 24.329,-16.588 39.145,-16.588 11.313,0 22.187,3.462 31.445,10.012 1.299,0.919 2.885,1.405 4.585,1.405 l 65.767,0 c 1.68,0 3.262,-0.49 4.575,-1.419 9.254,-6.541 20.121,-9.998 31.425,-9.998 l 0.404,0.001 c 14.464,0.106 28.115,5.917 38.437,16.364 C 3.496,-60.618 9.269,-46.821 9.467,-32.177 9.624,-20.637 6.35,-9.51 0,0" /></g></g></g></g><g
           transform="translate(224,164)"
           id="g36"><path
             id="path38"
             style="fill:#999999;fill-opacity:1;fill-rule:nonzero;stroke:none"
             d="m 0,0 c 0,0 -8.273,11.954 -24.144,13.371 -15.871,1.416 -27.541,0 -27.541,0 0,0 -2.296,-0.405 -2.315,-2.024 L 0,0" /></g><g
           transform="translate(32,164)"
           id="g40"><path
             id="path42"
             style="fill:#999999;fill-opacity:1;fill-rule:nonzero;stroke:none"
             d="m 0,0 c 0,0 8.273,11.954 24.144,13.371 15.871,1.416 27.541,0 27.541,0 0,0 2.296,-0.405 2.315,-2.024 L 0,0" /></g><g
           transform="translate(196.8988,176)"
           id="g44"><path
             id="path46"
             style="fill:#bfbfbf;fill-opacity:1;fill-rule:nonzero;stroke:none"
             d="m 0,0 -137.299,0 c -25.608,0 -46.918,-20.632 -47.583,-46.721 -0.692,-27.094 20.654,-49.279 47.084,-49.279 9.969,0 19.213,3.158 26.825,8.543 2.695,1.907 5.924,2.874 9.206,2.874 l 65.767,0 c 3.279,0 6.498,-0.981 9.192,-2.886 7.697,-5.44 17.059,-8.603 27.152,-8.53 25.498,0.186 46.401,21.338 46.753,47.321 C 47.46,-21.858 26.235,0 0,0" /></g><g
           transform="translate(240,128)"
           id="g48"><path
             id="path50"
             style="fill:#737373;fill-opacity:1;fill-rule:nonzero;stroke:none"
             d="m 0,0 c 0,-24.301 -19.699,-44 -44,-44 -24.301,0 -44,19.699 -44,44 0,24.301 19.699,44 44,44 C -19.699,44 0,24.301 0,0" /></g><g
           transform="translate(78,136)"
           id="g52"><path
             id="path54"
             style="fill:#191919;fill-opacity:1;fill-rule:nonzero;stroke:none"
             d="m 0,0 -10,0 0,10 c 0,1.105 -0.895,2 -2,2 l -12,0 c -1.105,0 -2,-0.895 -2,-2 l 0,-10 -10,0 c -1.105,0 -2,-0.895 -2,-2 l 0,-12 c 0,-1.105 0.895,-2 2,-2 l 10,0 0,-10 c 0,-1.105 0.895,-2 2,-2 l 12,0 c 1.105,0 2,0.895 2,2 l 0,10 10,0 c 1.105,0 2,0.895 2,2 L 2,-2 C 2,-0.895 1.105,0 0,0" /></g><g
           transform="translate(56,128)"
           id="g56"><path
             id="path58"
             style="fill:#262626;fill-opacity:1;fill-rule:nonzero;stroke:none"
             d="M 0,0 C 0,2.209 1.791,4 4,4 6.209,4 8,2.209 8,0 8,-2.209 6.209,-4 4,-4 1.791,-4 0,-2.209 0,0" /></g><g
           transform="translate(208,144)"
           id="g60"><path
             id="path62"
             style="fill:#b3b3b3;fill-opacity:1;fill-rule:nonzero;stroke:none"
             d="m 0,0 c 0,6.617 -5.383,12 -12,12 -2.455,0 -4.739,-0.744 -6.643,-2.015 l -10e-4,0.002 -0.02,-0.015 C -18.717,9.937 -18.767,9.898 -18.82,9.862 L -41.795,-6.499 c -0.773,-0.428 -1.487,-0.945 -2.144,-1.527 L -44,-8.069 -43.995,-8.076 C -46.446,-10.275 -48,-13.456 -48,-17 c 0,-6.617 5.383,-12 12,-12 2.185,0 4.229,0.596 5.995,1.621 l 0.005,-0.007 0.102,0.071 c 0.575,0.342 1.123,0.723 1.631,1.153 l 22.769,16.091 c 0.235,0.152 0.46,0.315 0.683,0.483 l 0.004,0.002 0,10e-4 C -1.897,-7.394 0,-3.919 0,0" /></g><g
           transform="translate(172.0001,135)"
           id="g64"><path
             id="path66"
             style="fill:#4b5da7;fill-opacity:1;fill-rule:nonzero;stroke:none"
             d="m 0,0 c -4.418,0 -8,-3.582 -8,-8 0,-4.418 3.582,-8 8,-8 4.418,0 8,3.582 8,8 0,4.418 -3.582,8 -8,8" /></g><g
           transform="translate(172.0001,136)"
           id="g68"><path
             id="path70"
             style="fill:#263979;fill-opacity:1;fill-rule:nonzero;stroke:none"
             d="m 0,0 c -4.963,0 -9,-4.037 -9,-9 0,-4.963 4.037,-9 9,-9 4.963,0 9,4.037 9,9 0,4.963 -4.037,9 -9,9 m 0,-1 c 4.418,0 8,-3.582 8,-8 0,-4.418 -3.582,-8 -8,-8 -4.418,0 -8,3.582 -8,8 0,4.418 3.582,8 8,8" /></g><g
           transform="translate(196.0001,152)"
           id="g72"><path
             id="path74"
             style="fill:#354f9f;fill-opacity:1;fill-rule:nonzero;stroke:none"
             d="m 0,0 c -4.418,0 -8,-3.582 -8,-8 0,-4.418 3.582,-8 8,-8 4.418,0 8,3.582 8,8 0,4.418 -3.582,8 -8,8" /></g><g
           transform="translate(196.0001,153)"
           id="g76"><path
             id="path78"
             style="fill:#263979;fill-opacity:1;fill-rule:nonzero;stroke:none"
             d="m 0,0 c -4.963,0 -9,-4.037 -9,-9 0,-4.963 4.037,-9 9,-9 4.963,0 9,4.037 9,9 0,4.963 -4.037,9 -9,9 m 0,-1 c 4.418,0 8,-3.582 8,-8 0,-4.418 -3.582,-8 -8,-8 -4.418,0 -8,3.582 -8,8 0,4.418 3.582,8 8,8" /></g><g
           transform="translate(232,125)"
           id="g80"><path
             id="path82"
             style="fill:#b3b3b3;fill-opacity:1;fill-rule:nonzero;stroke:none"
             d="m 0,0 c 0,6.617 -5.383,12 -12,12 -2.455,0 -4.739,-0.744 -6.643,-2.015 l -10e-4,0.002 -0.02,-0.015 C -18.717,9.937 -18.767,9.898 -18.82,9.862 L -41.795,-6.499 c -0.773,-0.428 -1.487,-0.945 -2.144,-1.527 L -44,-8.069 -43.995,-8.076 C -46.446,-10.275 -48,-13.456 -48,-17 c 0,-6.617 5.383,-12 12,-12 2.185,0 4.229,0.596 5.995,1.621 l 0.005,-0.007 0.102,0.071 c 0.575,0.342 1.123,0.723 1.631,1.153 l 22.769,16.091 c 0.235,0.152 0.46,0.315 0.683,0.483 l 0.004,0.002 0,10e-4 C -1.897,-7.394 0,-3.919 0,0" /></g><g
           transform="translate(195.9999,116)"
           id="g84"><path
             id="path86"
             style="fill:#263979;fill-opacity:1;fill-rule:nonzero;stroke:none"
             d="m 0,0 c -4.418,0 -8,-3.582 -8,-8 0,-4.418 3.582,-8 8,-8 4.418,0 8,3.582 8,8 0,4.418 -3.582,8 -8,8" /></g><g
           transform="translate(195.9999,117)"
           id="g88"><path
             id="path90"
             style="fill:#4b5da7;fill-opacity:1;fill-rule:nonzero;stroke:none"
             d="m 0,0 c -4.963,0 -9,-4.037 -9,-9 0,-4.963 4.037,-9 9,-9 4.963,0 9,4.037 9,9 0,4.963 -4.037,9 -9,9 m 0,-1 c 4.418,0 8,-3.582 8,-8 0,-4.418 -3.582,-8 -8,-8 -4.418,0 -8,3.582 -8,8 0,4.418 3.582,8 8,8" /></g><g
           transform="translate(220.0001,133)"
           id="g92"><path
             id="path94"
             style="fill:#263979;fill-opacity:1;fill-rule:nonzero;stroke:none"
             d="m 0,0 c -4.418,0 -8,-3.582 -8,-8 0,-4.418 3.582,-8 8,-8 4.418,0 8,3.582 8,8 0,4.418 -3.582,8 -8,8" /></g><g
           transform="translate(220.0001,134)"
           id="g96"><path
             id="path98"
             style="fill:#4b5da7;fill-opacity:1;fill-rule:nonzero;stroke:none"
             d="m 0,0 c -4.963,0 -9,-4.037 -9,-9 0,-4.963 4.037,-9 9,-9 4.963,0 9,4.037 9,9 0,4.963 -4.037,9 -9,9 m 0,-1 c 4.418,0 8,-3.582 8,-8 0,-4.418 -3.582,-8 -8,-8 -4.418,0 -8,3.582 -8,8 0,4.418 3.582,8 8,8" /></g><g
           transform="translate(139.3874,118.9889)"
           id="g100"><path
             id="path102"
             style="fill:#191919;fill-opacity:1;fill-rule:nonzero;stroke:none"
             d="m 0,0 c -0.567,0.643 -1.427,1.011 -2.36,1.011 -0.658,0 -1.283,-0.184 -1.806,-0.534 l -10.249,-6.833 c -1.3,-0.867 -1.546,-2.492 -0.549,-3.622 0.567,-0.642 1.427,-1.011 2.36,-1.011 0.658,0 1.283,0.185 1.806,0.534 l 10.249,6.833 C 0.751,-2.755 0.997,-1.13 0,0" /></g><g
           transform="translate(137.0276,121)"
           id="g104"><path
             id="path106"
             style="fill:#999999;fill-opacity:1;fill-rule:nonzero;stroke:none"
             d="M 0,0 C -0.857,0 -1.674,-0.243 -2.362,-0.702 L -12.61,-7.535 c -0.875,-0.584 -1.451,-1.481 -1.579,-2.461 -0.125,-0.96 0.171,-1.902 0.835,-2.654 0.757,-0.858 1.89,-1.35 3.11,-1.35 0.856,0 1.672,0.243 2.361,0.702 l 10.249,6.833 c 0.875,0.584 1.451,1.481 1.579,2.461 C 4.07,-3.044 3.773,-2.102 3.11,-1.349 2.353,-0.492 1.22,0 0,0 m 0,-1 c 0.933,0 1.793,-0.368 2.36,-1.011 0.997,-1.13 0.751,-2.755 -0.549,-3.622 L -8.438,-12.466 C -8.961,-12.815 -9.586,-13 -10.244,-13 c -0.933,0 -1.793,0.369 -2.36,1.011 -0.997,1.13 -0.751,2.755 0.549,3.622 l 10.249,6.833 C -1.283,-1.184 -0.658,-1 0,-1" /></g><g
           transform="translate(113.2183,120)"
           id="g108"><path
             id="path110"
             style="fill:#191919;fill-opacity:1;fill-rule:nonzero;stroke:none"
             d="m 0,0 c -0.658,0 -1.283,-0.184 -1.806,-0.534 l -10.249,-6.833 c -0.63,-0.42 -1.034,-1.028 -1.137,-1.712 -0.104,-0.684 0.105,-1.362 0.588,-1.91 0.567,-0.642 1.427,-1.011 2.36,-1.011 0.658,0 1.283,0.185 1.806,0.534 l 10.249,6.833 c 0.629,0.42 1.033,1.028 1.137,1.712 0.104,0.684 -0.105,1.362 -0.588,1.91 C 1.793,-0.368 0.933,0 0,0" /></g><g
           transform="translate(113.2183,121)"
           id="g112"><path
             id="path114"
             style="fill:#999999;fill-opacity:1;fill-rule:nonzero;stroke:none"
             d="M 0,0 C -0.857,0 -1.674,-0.243 -2.362,-0.702 L -12.61,-7.535 c -0.866,-0.578 -1.425,-1.428 -1.571,-2.394 -0.149,-0.982 0.145,-1.948 0.827,-2.721 0.757,-0.858 1.89,-1.35 3.11,-1.35 0.856,0 1.672,0.243 2.361,0.702 L 2.365,-6.465 C 3.232,-5.887 3.79,-5.037 3.937,-4.071 4.086,-3.089 3.792,-2.123 3.11,-1.35 2.353,-0.492 1.219,0 0,0 M 0,-1 C 0.933,-1 1.793,-1.368 2.36,-2.011 2.843,-2.559 3.052,-3.237 2.948,-3.921 2.844,-4.605 2.44,-5.213 1.811,-5.633 L -8.438,-12.466 C -8.961,-12.815 -9.586,-13 -10.244,-13 c -0.933,0 -1.793,0.369 -2.36,1.011 -0.483,0.548 -0.692,1.226 -0.588,1.91 0.103,0.684 0.507,1.292 1.137,1.712 l 10.249,6.833 C -1.283,-1.184 -0.658,-1 0,-1" /></g><g
           transform="translate(42.417,128.6431)"
           id="g116"><path
             id="path118"
             style="fill:#262626;fill-opacity:1;fill-rule:nonzero;stroke:none"
             d="M 0,0 6.332,3.256 C 6.888,3.542 7.583,3.185 7.583,2.613 l 0,-6.512 c 0,-0.572 -0.695,-0.929 -1.251,-0.644 L 0,-1.287 C -0.556,-1.001 -0.556,-0.286 0,0" /></g><g
           transform="translate(77.583,127.3569)"
           id="g120"><path
             id="path122"
             style="fill:#262626;fill-opacity:1;fill-rule:nonzero;stroke:none"
             d="m 0,0 -6.332,-3.256 c -0.556,-0.286 -1.251,0.071 -1.251,0.643 l 0,6.512 c 0,0.572 0.695,0.929 1.251,0.644 L 0,1.287 C 0.556,1.001 0.556,0.286 0,0" /></g><g
           transform="translate(60.6431,145.583)"
           id="g124"><path
             id="path126"
             style="fill:#262626;fill-opacity:1;fill-rule:nonzero;stroke:none"
             d="M 0,0 3.256,-6.332 C 3.542,-6.888 3.185,-7.583 2.613,-7.583 l -6.512,0 c -0.572,0 -0.929,0.695 -0.644,1.251 L -1.287,0 C -1.001,0.556 -0.286,0.556 0,0" /></g><g
           transform="translate(59.3569,110.417)"
           id="g128"><path
             id="path130"
             style="fill:#262626;fill-opacity:1;fill-rule:nonzero;stroke:none"
             d="m 0,0 -3.256,6.332 c -0.286,0.556 0.071,1.251 0.643,1.251 l 6.512,0 c 0.572,0 0.929,-0.695 0.644,-1.251 L 1.287,0 C 1.001,-0.556 0.286,-0.556 0,0" /></g><g
           transform="translate(60,156)"
           id="g132"><path
             id="path134"
             style="fill:#999999;fill-opacity:1;fill-rule:nonzero;stroke:none"
             d="m 0,0 c -15.464,0 -28,-12.536 -28,-28 0,-15.464 12.536,-28 28,-28 15.464,0 28,12.536 28,28 C 28,-12.536 15.464,0 0,0 m 0,-2 c 14.336,0 26,-11.664 26,-26 0,-14.336 -11.664,-26 -26,-26 -14.336,0 -26,11.664 -26,26 0,14.336 11.664,26 26,26" /></g><path
           id="path136"
           style="fill:#999999;fill-opacity:1;fill-rule:nonzero;stroke:none"
           d="m 132,174 -8,0 0,2 8,0 0,-2 z" /><g
           transform="translate(94.9447,153.6924)"
           id="g138"><path
             id="path140"
             style="fill:#808080;fill-opacity:1;fill-rule:nonzero;stroke:none"
             d="m 0,0 -2.397,0 c -0.458,0 -0.641,0.37 -0.502,1.036 l 0.563,2.694 1.189,0 -0.483,-2.309 1.459,0 0.464,2.22 -1.715,3.212 c -0.145,0.251 -0.161,0.474 -0.072,0.903 l 0.527,2.516 c 0.139,0.666 0.476,1.036 0.935,1.036 l 2.397,0 c 0.459,0 0.642,-0.37 0.506,-1.021 l -0.529,-2.531 -1.189,0 0.446,2.131 -1.459,0 L -0.287,7.844 1.431,4.648 C 1.573,4.381 1.59,4.159 1.5,3.73 L 0.936,1.036 C 0.797,0.37 0.459,0 0,0" /></g><g
           transform="translate(99.8613,153.6924)"
           id="g142"><path
             id="path144"
             style="fill:#808080;fill-opacity:1;fill-rule:nonzero;stroke:none"
             d="m 0,0 -2.532,0 c -0.469,0 -0.642,0.37 -0.503,1.036 l 2.149,10.272 1.188,0 -2.062,-9.857 1.605,0 2.061,9.857 1.189,0 L 0.946,1.036 C 0.807,0.37 0.47,0 0,0" /></g><g
           transform="translate(106.2553,163.55)"
           id="g146"><path
             id="path148"
             style="fill:#808080;fill-opacity:1;fill-rule:nonzero;stroke:none"
             d="m 0,0 -1.46,0 -0.9,-4.307 1.459,0 L 0,0 Z m -0.736,-5.758 -1.928,0 -0.857,-4.1 -1.188,0 2.365,11.308 3.116,0 c 0.469,0 0.652,-0.37 0.513,-1.036 L 0.214,-4.707 c -0.139,-0.666 -0.48,-1.051 -0.95,-1.051" /></g><g
           transform="translate(106.2238,153.6924)"
           id="g150"><path
             id="path152"
             style="fill:#808080;fill-opacity:1;fill-rule:nonzero;stroke:none"
             d="m 0,0 2.365,11.308 3.272,0 -0.312,-1.495 -2.085,0 -0.69,-3.3 1.792,0 -0.306,-1.466 -1.793,0 L 1.5,1.495 3.616,1.495 3.303,0 0,0 Z" /></g><g
           transform="translate(117.1708,153.6924)"
           id="g154"><path
             id="path156"
             style="fill:#808080;fill-opacity:1;fill-rule:nonzero;stroke:none"
             d="m 0,0 2.365,11.308 1.187,0 -2.049,-9.799 1.939,0 L 3.127,0 0,0 Z" /></g><g
           transform="translate(121.0246,153.6924)"
           id="g158"><path
             id="path160"
             style="fill:#808080;fill-opacity:1;fill-rule:nonzero;stroke:none"
             d="m 0,0 2.365,11.308 1.187,0 L 1.188,0 0,0 Z" /></g><g
           transform="translate(126.8731,158.3402)"
           id="g162"><path
             id="path164"
             style="fill:#808080;fill-opacity:1;fill-rule:nonzero;stroke:none"
             d="m 0,0 -0.47,0.547 -0.938,0 -0.789,-3.774 1.522,0 L 0,0 Z m 1.064,5.239 -1.491,0 -0.693,-3.315 0.917,0 0.694,0.577 0.573,2.738 z m -1.567,-9.887 -3.179,0 2.365,11.308 3.158,0 c 0.458,0 0.631,-0.37 0.492,-1.036 L 1.723,2.708 C 1.612,2.176 1.454,1.924 1.124,1.687 L 0.544,1.258 0.97,0.799 C 1.201,0.562 1.257,0.281 1.146,-0.252 L 0.443,-3.612 C 0.304,-4.277 -0.035,-4.648 -0.503,-4.648" /></g><g
           transform="translate(130.8486,153.6924)"
           id="g166"><path
             id="path168"
             style="fill:#808080;fill-opacity:1;fill-rule:nonzero;stroke:none"
             d="m 0,0 -0.214,5.254 0.213,1.021 1.168,0 0.749,3.583 -1.501,0 L -1.647,0 l -1.188,0 2.365,11.308 3.158,0 c 0.469,0 0.642,-0.37 0.502,-1.036 L 2.33,6.157 C 2.19,5.491 1.867,5.136 1.405,5.121 l -0.407,0 L 1.253,0.059 1.24,0 0,0 Z" /></g><g
           transform="translate(132.816,153.6924)"
           id="g170"><path
             id="path172"
             style="fill:#808080;fill-opacity:1;fill-rule:nonzero;stroke:none"
             d="m 0,0 2.365,11.308 3.272,0 -0.312,-1.495 -2.084,0 -0.691,-3.3 1.792,0 -0.306,-1.466 -1.792,0 -0.743,-3.552 2.115,0 L 3.303,0 0,0 Z" /></g><g
           transform="translate(141.1289,163.5055)"
           id="g174"><path
             id="path176"
             style="fill:#808080;fill-opacity:1;fill-rule:nonzero;stroke:none"
             d="m 0,0 -2.052,-9.813 -1.188,0 2.052,9.813 -1.303,0 0.313,1.495 3.804,0 L 1.313,0 0,0 Z" /></g><g
           transform="translate(143.8275,153.6924)"
           id="g178"><path
             id="path180"
             style="fill:#808080;fill-opacity:1;fill-rule:nonzero;stroke:none"
             d="m 0,0 -0.214,5.254 0.213,1.021 1.168,0 0.749,3.583 -1.5,0 L -1.646,0 l -1.189,0 2.365,11.308 3.158,0 c 0.469,0 0.642,-0.37 0.502,-1.036 L 2.33,6.157 C 2.19,5.491 1.867,5.136 1.405,5.121 l -0.407,0 L 1.253,0.059 1.24,0 0,0 Z" /></g><g
           transform="translate(150.6802,163.55)"
           id="g182"><path
             id="path184"
             style="fill:#808080;fill-opacity:1;fill-rule:nonzero;stroke:none"
             d="m 0,0 -1.636,0 -1.758,-8.407 1.636,0 L 0,0 Z m -1.593,-9.858 -2.584,0 c -0.459,0 -0.632,0.371 -0.493,1.036 l 1.932,9.236 c 0.139,0.666 0.467,1.036 0.926,1.036 l 2.584,0 c 0.459,0 0.641,-0.37 0.502,-1.036 l -1.932,-9.236 c -0.139,-0.665 -0.476,-1.036 -0.935,-1.036" /></g><g
           transform="translate(114.1458,159.2429)"
           id="g186"><path
             id="path188"
             style="fill:#808080;fill-opacity:1;fill-rule:nonzero;stroke:none"
             d="m 0,0 -1.459,0 0.901,4.307 1.459,0 L 0,0 Z m 1.673,5.757 -3.116,0 -2.365,-11.307 1.188,0 0.858,4.099 0.003,0 0.857,-4.099 1.188,0 -0.858,4.099 0.737,0 c 0.47,0 0.811,0.386 0.95,1.051 L 2.186,4.721 C 2.325,5.388 2.142,5.757 1.673,5.757" /></g><path
           id="path190"
           style="fill:#808080;fill-opacity:1;fill-rule:nonzero;stroke:none"
           d="m 150.68,149 -58.68,0 0,3.805 58.68,0 0,-3.805 z" /><g
           transform="translate(92.8899,149.6237)"
           id="g192"><path
             id="path194"
             style="fill:#bfbfbf;fill-opacity:1;fill-rule:nonzero;stroke:none"
             d="m 0,0 0.564,2.696 1.017,0 -0.074,-0.356 -0.648,0 -0.165,-0.787 0.558,0 -0.073,-0.349 -0.558,0 -0.177,-0.847 0.658,0 L 1.027,0 0,0 Z" /></g><g
           transform="translate(97.6463,149.6237)"
           id="g196"><path
             id="path198"
             style="fill:#bfbfbf;fill-opacity:1;fill-rule:nonzero;stroke:none"
             d="M 0,0 0.278,1.331 C 0.3,1.433 0.362,1.623 0.362,1.623 l -0.609,-1.376 -0.188,0 -0.033,1.376 c 0,0 -0.017,-0.19 -0.038,-0.292 L -0.784,0 l -0.357,0 0.564,2.696 0.35,0 0.077,-1.489 c 0.001,-0.024 -0.016,-0.124 -0.016,-0.124 0,0 0.024,0.1 0.035,0.124 l 0.701,1.489 0.351,0 L 0.357,0 0,0 Z" /></g><g
           transform="translate(101.6448,149.6237)"
           id="g200"><path
             id="path202"
             style="fill:#bfbfbf;fill-opacity:1;fill-rule:nonzero;stroke:none"
             d="m 0,0 -0.787,0 c -0.147,0 -0.206,0.088 -0.172,0.247 l 0.512,2.449 0.369,0 -0.491,-2.35 0.499,0 0.492,2.35 0.369,0 L 0.279,0.247 C 0.246,0.088 0.146,0 0,0" /></g><g
           transform="translate(104.5057,149.6237)"
           id="g204"><path
             id="path206"
             style="fill:#bfbfbf;fill-opacity:1;fill-rule:nonzero;stroke:none"
             d="m 0,0 0.564,2.696 0.369,0 L 0.445,0.36 1.048,0.36 0.973,0 0,0 Z" /></g><g
           transform="translate(109.0774,151.6989)"
           id="g208"><path
             id="path210"
             style="fill:#bfbfbf;fill-opacity:1;fill-rule:nonzero;stroke:none"
             d="m 0,0 -0.437,-1.218 0.363,0 L 0,0 Z m -0.126,-2.075 0.032,0.512 -0.463,0 -0.182,-0.512 -0.367,0 0.002,0.007 1.043,2.693 0.389,0 -0.086,-2.693 -0.002,-0.007 -0.366,0 z" /></g><g
           transform="translate(112.8783,151.964)"
           id="g212"><path
             id="path214"
             style="fill:#bfbfbf;fill-opacity:1;fill-rule:nonzero;stroke:none"
             d="m 0,0 -0.489,-2.34 -0.37,0 0.49,2.34 -0.406,0 0.074,0.356 1.184,0 L 0.409,0 0,0 Z" /></g><g
           transform="translate(115.3271,149.6237)"
           id="g216"><path
             id="path218"
             style="fill:#bfbfbf;fill-opacity:1;fill-rule:nonzero;stroke:none"
             d="m 0,0 0.564,2.696 0.369,0 L 0.369,0 0,0 Z" /></g><g
           transform="translate(119.7062,151.9744)"
           id="g220"><path
             id="path222"
             style="fill:#bfbfbf;fill-opacity:1;fill-rule:nonzero;stroke:none"
             d="m 0,0 -0.509,0 -0.419,-2.005 0.509,0 L 0,0 Z m -0.345,-2.351 -0.805,0 c -0.142,0 -0.201,0.089 -0.168,0.248 l 0.461,2.202 c 0.033,0.159 0.129,0.247 0.271,0.247 l 0.805,0 c 0.142,0 0.204,-0.088 0.171,-0.247 l -0.46,-2.202 c -0.034,-0.159 -0.133,-0.248 -0.275,-0.248" /></g><g
           transform="translate(123.1474,149.6237)"
           id="g224"><path
             id="path226"
             style="fill:#bfbfbf;fill-opacity:1;fill-rule:nonzero;stroke:none"
             d="m 0,0 -0.238,1.698 c 0,0 -0.003,-0.124 -0.018,-0.194 L -0.571,0 -0.93,0 l 0.564,2.696 0.324,0 0.246,-1.662 c 0,0 0.003,0.124 0.017,0.194 l 0.307,1.468 0.361,0 L 0.325,0 0,0 Z" /></g><g
           transform="translate(130.0714,149.6237)"
           id="g228"><path
             id="path230"
             style="fill:#bfbfbf;fill-opacity:1;fill-rule:nonzero;stroke:none"
             d="m 0,0 -0.745,0 c -0.143,0 -0.206,0.088 -0.172,0.247 l 0.134,0.642 0.369,0 -0.115,-0.55 0.454,0 0.111,0.529 -0.582,0.766 c -0.05,0.06 -0.058,0.113 -0.036,0.215 l 0.125,0.601 c 0.033,0.158 0.133,0.246 0.276,0.246 l 0.745,0 c 0.143,0 0.205,-0.088 0.173,-0.243 l -0.126,-0.604 -0.37,0 0.106,0.509 -0.454,0 L -0.208,1.871 0.375,1.108 C 0.422,1.045 0.431,0.992 0.41,0.889 L 0.276,0.247 C 0.242,0.088 0.143,0 0,0" /></g><g
           transform="translate(133.8878,150.6155)"
           id="g232"><path
             id="path234"
             style="fill:#bfbfbf;fill-opacity:1;fill-rule:nonzero;stroke:none"
             d="m 0,0 -0.207,-0.992 -0.374,0 0.208,0.992 -0.136,1.691 0.003,0.014 0.383,0 0.05,-1.172 0.54,1.172 0.379,0 L 0.843,1.691 0,0 Z" /></g><g
           transform="translate(137.6597,149.6237)"
           id="g236"><path
             id="path238"
             style="fill:#bfbfbf;fill-opacity:1;fill-rule:nonzero;stroke:none"
             d="m 0,0 -0.745,0 c -0.143,0 -0.206,0.088 -0.172,0.247 l 0.134,0.642 0.369,0 -0.115,-0.55 0.454,0 0.111,0.529 -0.582,0.766 c -0.05,0.06 -0.058,0.113 -0.036,0.215 l 0.125,0.601 c 0.033,0.158 0.133,0.246 0.276,0.246 l 0.745,0 c 0.143,0 0.205,-0.088 0.173,-0.243 l -0.126,-0.604 -0.37,0 0.106,0.509 -0.454,0 L -0.208,1.871 0.375,1.108 C 0.422,1.045 0.431,0.992 0.41,0.889 L 0.276,0.247 C 0.242,0.088 0.143,0 0,0" /></g><g
           transform="translate(141.6707,151.964)"
           id="g240"><path
             id="path242"
             style="fill:#bfbfbf;fill-opacity:1;fill-rule:nonzero;stroke:none"
             d="m 0,0 -0.489,-2.34 -0.37,0 0.49,2.34 -0.406,0 0.074,0.356 1.184,0 L 0.409,0 0,0 Z" /></g><g
           transform="translate(144.1132,149.6237)"
           id="g244"><path
             id="path246"
             style="fill:#bfbfbf;fill-opacity:1;fill-rule:nonzero;stroke:none"
             d="m 0,0 0.564,2.696 1.018,0 -0.074,-0.356 -0.649,0 -0.165,-0.787 0.558,0 -0.073,-0.349 -0.558,0 -0.177,-0.847 0.658,0 L 1.027,0 0,0 Z" /></g><g
           transform="translate(148.8696,149.6237)"
           id="g248"><path
             id="path250"
             style="fill:#bfbfbf;fill-opacity:1;fill-rule:nonzero;stroke:none"
             d="M 0,0 0.278,1.331 C 0.3,1.433 0.362,1.623 0.362,1.623 l -0.609,-1.376 -0.187,0 -0.034,1.376 c 0,0 -0.017,-0.19 -0.038,-0.292 L -0.784,0 l -0.357,0 0.564,2.696 0.35,0 0.077,-1.489 c 0.001,-0.024 -0.016,-0.124 -0.016,-0.124 0,0 0.024,0.1 0.036,0.124 l 0.7,1.489 0.351,0 L 0.357,0 0,0 Z" /></g></g></g></g></svg>