<?xml version="1.0" encoding="UTF-8" standalone="no"?>
<svg
   xmlns:dc="http://purl.org/dc/elements/1.1/"
   xmlns:cc="http://creativecommons.org/ns#"
   xmlns:rdf="http://www.w3.org/1999/02/22-rdf-syntax-ns#"
   xmlns:svg="http://www.w3.org/2000/svg"
   xmlns="http://www.w3.org/2000/svg"
   viewBox="0 0 320 320"
   height="320"
   width="320"
   xml:space="preserve"
   version="1.1"
   id="svg2"><metadata
     id="metadata8"><rdf:RDF><cc:Work
         rdf:about=""><dc:format>image/svg+xml</dc:format><dc:type
           rdf:resource="http://purl.org/dc/dcmitype/StillImage" /></cc:Work></rdf:RDF></metadata><defs
     id="defs6"><clipPath
       id="clipPath16"
       clipPathUnits="userSpaceOnUse"><path
         id="path18"
         d="M 0,256 256,256 256,0 0,0 0,256 Z" /></clipPath><clipPath
       id="clipPath24"
       clipPathUnits="userSpaceOnUse"><path
         id="path26"
         d="m 20,252 216,0 0,-248.00002 -216,0 L 20,252 Z" /></clipPath></defs><g
     transform="matrix(1.25,0,0,-1.25,0,320)"
     id="g10"><g
       id="g12"><g
         clip-path="url(#clipPath16)"
         id="g14"><g
           id="g20"><g
             id="g22" /><g
             id="g28"><g
               style="opacity:0.5"
               id="g30"
               clip-path="url(#clipPath24)"><g
                 id="g32"
                 transform="translate(223.6316,252)"><path
                   id="path34"
                   style="fill:#ffffff;fill-opacity:1;fill-rule:nonzero;stroke:none"
                   d="m 0,0 c -0.225,0 -0.452,-0.006 -0.678,-0.019 l -18.763,0 c -2.051,0 -4.023,-0.788 -5.51,-2.2 L -26.826,-4 l -41.579,0 -1.447,1.512 c -1.509,1.577 -3.597,2.469 -5.78,2.469 l -40,0 c -2.182,0 -4.27,-0.892 -5.779,-2.469 l -1.447,-1.512 -41.299,0 -2.534,2.119 c -1.439,1.203 -3.255,1.862 -5.131,1.862 l -19.048,0 c -7.037,0 -12.762,-5.67 -12.762,-12.64 l 0,-222.701 c 0,-6.615 6.083,-12.64 12.762,-12.64 l 190.476,0 c 7.276,0 12.762,5.434 12.762,12.64 l 0,222.701 C 12.368,-5.679 6.82,0 0,0" /></g></g></g></g><g
           transform="translate(223.2381,243.9808)"
           id="g36"><path
             id="path38"
             style="fill:#eac500;fill-opacity:1;fill-rule:nonzero;stroke:none"
             d="m 0,0 -19.048,0 -4.19,-3.981 -48.191,0 -3.809,3.981 -40,0 -3.81,-3.981 -47.619,0 -4.762,3.981 -19.047,0 c -2.634,0 -4.762,-2.074 -4.762,-4.64 l 0,-222.701 c 0,-2.187 2.517,-4.64 4.762,-4.64 l 190.476,0 c 3.188,0 4.762,2.09 4.762,4.64 l 0,222.701 C 4.762,-2.074 2.62,0.255 0,0" /></g><g
           transform="translate(152,240)"
           id="g40"><path
             id="path42"
             style="fill:#d4a600;fill-opacity:1;fill-rule:nonzero;stroke:none"
             d="m 0,0 0,0 -4,3.981 -40,0 L -48,0 -48,-102.73 C -48,-117.094 -38.401,-128 -24.038,-128 -9.914,-128 0,-116.854 0,-102.73 L 0,0 Z" /></g><path
           id="path44"
           style="fill:#303121;fill-opacity:1;fill-rule:nonzero;stroke:none"
           d="m 136,168 -16,0 0,68 16,0 0,-68 z" /><g
           transform="translate(188.9231,102)"
           id="g46"><path
             id="path48"
             style="fill:#d4a600;fill-opacity:1;fill-rule:nonzero;stroke:none"
             d="m 0,0 -121.846,0 c -3.902,0 -7.077,-3.688 -7.077,-8.222 l 0,-43.556 c 0,-4.534 3.175,-8.222 7.077,-8.222 L 0,-60 c 3.902,0 7.077,3.688 7.077,8.222 l 0,43.556 C 7.077,-3.688 3.902,0 0,0" /></g><g
           transform="translate(188.9231,100)"
           id="g50"><path
             id="path52"
             style="fill:#f2f2f2;fill-opacity:1;fill-rule:nonzero;stroke:none"
             d="m 0,0 c 2.808,0 5.077,-2.781 5.077,-6.222 l 0,-43.556 C 5.077,-53.219 2.808,-56 0,-56 l -121.846,0 c -2.808,0 -5.077,2.781 -5.077,6.222 l 0,43.556 c 0,3.441 2.269,6.222 5.077,6.222 L 0,0 Z" /></g><g
           transform="translate(72,16.0273)"
           id="g54"><path
             id="path56"
             style="fill:#d4a600;fill-opacity:1;fill-rule:nonzero;stroke:none"
             d="m 0,0 -8,-0.027 0,20 8,0 L 0,0 Z" /></g><g
           transform="translate(168,36)"
           id="g58"><path
             id="path60"
             style="fill:#d4a600;fill-opacity:1;fill-rule:nonzero;stroke:none"
             d="m 0,0 -20,0 0,-5.614 6.814,0 0,-14.386 6.372,0 0,14.386 6.814,0 L 0,0 Z" /></g><g
           transform="translate(144,30.386)"
           id="g62"><path
             id="path64"
             style="fill:#d4a600;fill-opacity:1;fill-rule:nonzero;stroke:none"
             d="m 0,0 0,5.614 -13.628,0 -6.372,0 0,-20 6.372,0 13.628,0 0,5.614 -13.628,0 0,1.579 13.628,0 0,5.614 -13.628,0 0,1.579 L 0,0 Z" /></g><path
           id="path66"
           style="fill:#d4a600;fill-opacity:1;fill-rule:nonzero;stroke:none"
           d="m 211.045,20.885 -10.091,0 0,10.091 10.091,0 0,-10.091 z m -0.5,15.045 -9.09,0 c -3,0 -5.455,-2.455 -5.455,-5.455 l 0,-9.09 c 0,-3 2.455,-5.455 5.455,-5.455 l 9.09,0 c 3,0 5.455,2.455 5.455,5.455 l 0,9.09 c 0,3 -2.455,5.455 -5.455,5.455" /><path
           id="path68"
           style="fill:#d4a600;fill-opacity:1;fill-rule:nonzero;stroke:none"
           d="m 114.504,28.982 -8.26,0 0,1.404 8.26,0 0,-1.404 z M 120,29.597 c 0,3.4 -2.663,6.173 -6.025,6.383 l 0.001,0.02 -7.632,0 -6.344,0 0,-20 6.344,0 0,5.614 0,0.921 0,0.658 2.843,0 3.5,-7.193 6.344,0 -3.634,7.469 c 2.659,0.784 4.603,3.225 4.603,6.128" /><path
           id="path70"
           style="fill:#d4a600;fill-opacity:1;fill-rule:nonzero;stroke:none"
           d="m 186.504,28.982 -8.26,0 0,1.404 8.26,0 0,-1.404 z M 192,29.597 c 0,3.4 -2.663,6.173 -6.025,6.383 l 0.001,0.02 -7.632,0 -6.344,0 0,-20 6.344,0 0,5.614 0,0.921 0,0.658 2.843,0 3.5,-7.193 6.344,0 -3.634,7.469 c 2.659,0.784 4.603,3.225 4.603,6.128" /><path
           id="path72"
           style="fill:#d4a600;fill-opacity:1;fill-rule:nonzero;stroke:none"
           d="m 90.555,28.982 -8.233,0 0,1.404 8.233,0 0,-1.404 z m 0,-7.368 -8.233,0 0,1.404 8.233,0 0,-1.404 z m 2.241,4.298 C 94.679,26.711 96,28.575 96,30.748 96,33.649 93.646,36 90.742,36 l -8.419,0 -6.323,0 0,-20 6.323,0 2.524,0 4.614,0 2.562,0 c 2.281,0.574 3.977,2.62 3.977,5.077 0,2.172 -1.321,4.036 -3.204,4.835" /><g
           transform="translate(48,20)"
           id="g74"><path
             id="path76"
             style="fill:#d4a600;fill-opacity:1;fill-rule:nonzero;stroke:none"
             d="M 0,0 0,16 -4,16 -8,16 -8,1.614 -8,0 -8,-4 -1.628,-4 12,-4 12,0 0,0 Z" /></g><path
           id="path78"
           style="fill:#d4a600;fill-opacity:1;fill-rule:nonzero;stroke:none"
           d="m 52,44 -20,0 0,12 20,0 0,-12 z" /><path
           id="path80"
           style="fill:#d4a600;fill-opacity:1;fill-rule:nonzero;stroke:none"
           d="m 224,42 -20,0 0,14 20,0 0,-14 z" /><path
           id="path82"
           style="fill:#d4a600;fill-opacity:1;fill-rule:nonzero;stroke:none"
           d="m 48,191.81 -20,0 0,12 20,0 0,-12 z" /><g
           transform="translate(189,100)"
           id="g84"><path
             id="path86"
             style="fill:#262626;fill-opacity:1;fill-rule:nonzero;stroke:none"
             d="m 0,0 -122,0 c -2.761,0 -5,-2.239 -5,-5 l 0,-7 132,0 0,7 C 5,-2.239 2.761,0 0,0" /></g><path
           id="path88"
           style="fill:#d4a600;fill-opacity:1;fill-rule:nonzero;stroke:none"
           d="m 228,192 -20,0 0,12 20,0 0,-12 z" /><g
           transform="translate(106,136)"
           id="g90"><path
             id="path92"
             style="fill:#303121;fill-opacity:1;fill-rule:nonzero;stroke:none"
             d="M 0,0 C 0,12.529 10.068,22 22,22 33.932,22 44,12.305 44,0 44,-12.305 34.081,-22 22,-22 9.919,-22 0,-12.529 0,0" /></g><g
           transform="translate(128,118)"
           id="g94"><path
             id="path96"
             style="fill:#f2f2f2;fill-opacity:1;fill-rule:nonzero;stroke:none"
             d="m 0,0 c -10.22,0 -18,8.066 -18,18 0,9.934 8.142,18 18,18 C 9.858,36 18,28.22 18,18 18,7.78 10.22,0 0,0" /></g><g
           transform="translate(128,144)"
           id="g98"><path
             id="path100"
             style="fill:#d9d9d9;fill-opacity:1;fill-rule:nonzero;stroke:none"
             d="m 0,0 c -4.475,0 -8,-3.525 -8,-8 0,-4.475 3.525,-8 8,-8 4.475,0 8,3.559 8,8 0,4.441 -3.525,8 -8,8" /></g><g
           transform="translate(194,56)"
           id="g102"><path
             id="path104"
             style="fill:#262626;fill-opacity:1;fill-rule:nonzero;stroke:none"
             d="m 0,0 -132,0 0,-7 c 0,-2.761 2.239,-5 5,-5 l 122,0 c 2.761,0 5,2.239 5,5 l 0,7 z" /></g><path
           id="path106"
           style="fill:#262626;fill-opacity:1;fill-rule:nonzero;stroke:none"
           d="m 80,64 -16,0 0,16 16,0 0,-16 z" /><g
           transform="translate(75.5494,90.9914)"
           id="g108"><path
             id="path110"
             style="fill:#eac500;fill-opacity:1;fill-rule:nonzero;stroke:none"
             d="m 0,0 c -0.344,0.111 -0.285,0.376 -0.285,0.641 0,0.115 0.003,0.23 0.001,0.345 l 0.005,0 c -0.001,0.042 -0.002,0.084 -0.004,0.126 -0.005,0.117 0.036,0.177 0.126,0.237 0.804,0.532 0.812,1.554 0.013,2.101 -0.124,0.085 -0.139,0.177 -0.138,0.312 0.002,0.795 0.003,1.589 0,2.384 -0.002,0.581 -0.256,0.861 -0.773,0.862 -0.824,0.001 -1.648,0 -2.473,0 -0.824,0 -1.649,0.001 -2.473,0 -0.577,0 -0.811,-0.268 -0.812,-0.93 0,-0.757 -0.004,-1.515 0.003,-2.272 10e-4,-0.059 -0.004,-0.11 -0.014,-0.155 l -0.024,0 0.011,-0.043 C -6.864,3.533 -6.914,3.473 -7,3.413 -7.656,2.962 -7.75,1.977 -7.145,1.521 -7.039,1.442 -6.965,1.36 -6.913,1.274 l -0.004,0 C -6.815,1.104 -6.8,0.915 -6.816,0.684 -6.823,0.583 -6.824,0.48 -6.815,0.379 -6.8,0.21 -6.841,0.121 -7.005,0.066 -7.241,-0.012 -7.35,-0.259 -7.314,-0.521 c 0.038,-0.277 0.184,-0.422 0.451,-0.443 0.709,-0.054 1.419,-0.009 2.129,-0.026 0.112,-0.003 0.175,0.039 0.223,0.161 0.179,0.459 0.5,0.695 0.941,0.703 0.462,0.008 0.796,-0.232 0.986,-0.712 0.042,-0.108 0.097,-0.154 0.203,-0.152 0.717,0.017 1.435,-0.022 2.153,0.024 C 0,-0.952 0.139,-0.827 0.199,-0.59 0.261,-0.341 0.208,-0.067 0,0" /></g><path
           id="path112"
           style="fill:#262626;fill-opacity:1;fill-rule:nonzero;stroke:none"
           d="m 75.642,94.557 -7.282,0 0,0.947 7.282,0 0,-0.947 z" /><g
           transform="translate(74.8315,95.0487)"
           id="g114"><path
             id="path116"
             style="fill:#262626;fill-opacity:1;fill-rule:nonzero;stroke:none"
             d="m 0,0 c -0.002,-0.903 -0.654,-1.635 -1.45,-1.63 -0.796,0.006 -1.443,0.749 -1.435,1.648 0.008,0.887 0.655,1.614 1.44,1.617 C -0.65,1.638 0.002,0.9 0,0" /></g><g
           transform="translate(72.0532,95.0487)"
           id="g118"><path
             id="path120"
             style="fill:#262626;fill-opacity:1;fill-rule:nonzero;stroke:none"
             d="m 0,0 c -0.002,-0.903 -0.654,-1.635 -1.45,-1.63 -0.796,0.006 -1.443,0.749 -1.435,1.648 0.008,0.887 0.655,1.614 1.44,1.617 C -0.65,1.638 0.002,0.9 0,0" /></g><g
           transform="translate(74.6862,95.0535)"
           id="g122"><path
             id="path124"
             style="fill:#ffffff;fill-opacity:1;fill-rule:nonzero;stroke:none"
             d="m 0,0 c 0,-0.811 -0.581,-1.468 -1.297,-1.468 -0.716,0 -1.297,0.657 -1.297,1.468 0,0.811 0.581,1.468 1.297,1.468 C -0.581,1.468 0,0.811 0,0" /></g><g
           transform="translate(73.7975,94.4729)"
           id="g126"><path
             id="path128"
             style="fill:#262626;fill-opacity:1;fill-rule:nonzero;stroke:none"
             d="m 0,0 c 0,-0.255 -0.183,-0.462 -0.408,-0.462 -0.226,0 -0.409,0.207 -0.409,0.462 0,0.255 0.183,0.462 0.409,0.462 C -0.183,0.462 0,0.255 0,0" /></g><g
           transform="translate(71.9079,95.0535)"
           id="g130"><path
             id="path132"
             style="fill:#ffffff;fill-opacity:1;fill-rule:nonzero;stroke:none"
             d="m 0,0 c 0,-0.811 -0.581,-1.468 -1.297,-1.468 -0.716,0 -1.297,0.657 -1.297,1.468 0,0.811 0.581,1.468 1.297,1.468 C -0.581,1.468 0,0.811 0,0" /></g><g
           transform="translate(71.0192,94.4729)"
           id="g134"><path
             id="path136"
             style="fill:#262626;fill-opacity:1;fill-rule:nonzero;stroke:none"
             d="m 0,0 c 0,-0.255 -0.183,-0.462 -0.408,-0.462 -0.226,0 -0.409,0.207 -0.409,0.462 0,0.255 0.183,0.462 0.409,0.462 C -0.183,0.462 0,0.255 0,0" /></g><g
           transform="translate(72.9194,92.6276)"
           id="g138"><path
             id="path140"
             style="fill:#262626;fill-opacity:1;fill-rule:nonzero;stroke:none"
             d="m 0,0 c -0.18,-0.165 -0.524,-0.277 -0.919,-0.277 -0.396,0 -0.74,0.112 -0.92,0.277 -0.084,-0.077 -0.132,-0.166 -0.132,-0.261 0,-0.297 0.471,-0.538 1.052,-0.538 0.581,0 1.051,0.241 1.051,0.538 C 0.132,-0.166 0.084,-0.077 0,0" /></g><g
           transform="translate(88.8209,51.5292)"
           id="g142"><path
             id="path144"
             style="fill:#333333;fill-opacity:1;fill-rule:nonzero;stroke:none"
             d="m 0,0 1.449,0 0,-0.519 0.783,0 0,-0.382 -0.783,0 10e-4,-2.562 -1.451,0 0.001,2.562 -0.787,0 0,0.381 0.788,0 L 0,0 Z" /></g><path
           id="path146"
           style="fill:#333333;fill-opacity:1;fill-rule:nonzero;stroke:none"
           d="m 71.848,50.633 1.448,0 0,-2.567 -1.448,0 0,2.567 z" /><path
           id="path148"
           style="fill:#333333;fill-opacity:1;fill-rule:nonzero;stroke:none"
           d="m 71.845,51.927 1.451,0 0,-0.789 -1.451,0 0,0.789 z" /><g
           transform="translate(98.4657,49.4576)"
           id="g150"><path
             id="path152"
             style="fill:#333333;fill-opacity:1;fill-rule:nonzero;stroke:none"
             d="m 0,0 0,0 c 0,-0.007 -0.001,-0.389 -0.001,-0.542 0,-0.41 -0.302,-0.578 -0.593,-0.578 -0.289,0 -0.592,0.168 -0.592,0.578 l 0,0.553 c 0,0 10e-4,0.38 10e-4,0.535 0,0.407 0.303,0.575 0.591,0.575 0.29,0 0.593,-0.168 0.593,-0.575 0,-0.155 0,-0.443 0.001,-0.546 L 0,0.001 0,0 Z m -0.581,1.439 c -1.17,0 -2.117,-0.645 -2.117,-1.441 0,-0.796 0.947,-1.442 2.117,-1.442 1.169,0 2.115,0.646 2.115,1.442 0,0.796 -0.946,1.441 -2.115,1.441" /></g><g
           transform="translate(75.58,49.8287)"
           id="g154"><path
             id="path156"
             style="fill:#333333;fill-opacity:1;fill-rule:nonzero;stroke:none"
             d="m 0,0 c 0,0.398 0.342,0.499 0.567,0.499 0.231,0 0.568,-0.101 0.568,-0.499 0,-0.131 -0.001,-0.456 -0.001,-0.456 0,0 0.001,-0.321 0.001,-0.458 0,-0.396 -0.337,-0.5 -0.567,-0.5 C 0.342,-1.414 0,-1.31 0,-0.914 L 0,-0.458 0,0 Z m -1.419,2.105 0,-3.86 1.432,0 c 0,0 0.001,0.125 0.001,0.149 0.554,-0.279 1.179,-0.278 1.667,-0.097 0.13,0.049 0.99,0.38 0.99,1.273 0,0.678 -0.798,1.418 -1.841,1.344 C 0.487,0.89 0.241,0.79 0.011,0.685 l 0,1.42 -1.43,0 z" /></g><g
           transform="translate(85.3405,50.3437)"
           id="g158"><path
             id="path160"
             style="fill:#333333;fill-opacity:1;fill-rule:nonzero;stroke:none"
             d="m 0,0 c 0.113,0.158 0.32,0.234 0.509,0.234 l -0.001,0 0.001,0 0,0 C 0.698,0.234 0.906,0.158 1.019,0 1.11,-0.128 1.115,-0.278 1.113,-0.504 l -1.209,0 C -0.099,-0.278 -0.093,-0.128 0,0 m 1.109,-1.433 c 0,-0.47 -0.386,-0.574 -0.6,-0.574 -0.213,0 -0.605,0.104 -0.605,0.574 0,0.141 0.001,0.53 0.001,0.53 0,0 2.727,-0.001 2.727,0 0,0.796 -0.958,1.456 -2.136,1.456 -1.177,0 -2.132,-0.645 -2.132,-1.442 0,-0.795 0.955,-1.441 2.132,-1.441 0.977,0 1.802,0.447 2.055,1.053 L 1.108,-1.278 c 0,0 10e-4,-0.011 10e-4,-0.155" /></g><g
           transform="translate(69.4502,48.4474)"
           id="g162"><path
             id="path164"
             style="fill:#333333;fill-opacity:1;fill-rule:nonzero;stroke:none"
             d="m 0,0 0,3.497 -1.45,0 0,-3.497 0,-0.381 1.45,0 1.569,0 L 1.569,0 0,0 Z" /></g><g
           transform="translate(94.0901,49.6931)"
           id="g166"><path
             id="path168"
             style="fill:#333333;fill-opacity:1;fill-rule:nonzero;stroke:none"
             d="M 0,0 1.419,0 C 1.273,0.829 0.305,1.069 -0.193,1.058 -0.672,1.046 -1.07,0.882 -1.348,0.67 c -10e-4,0.063 0,0.27 0,0.27 l -1.437,-0.001 -10e-4,-2.566 1.438,0 c 0,0 -10e-4,1.576 -10e-4,1.685 0,0.224 0.293,0.473 0.687,0.473 C -0.268,0.531 0,0.282 0,0.058 L 0,0 Z" /></g><g
           transform="translate(80.5288,50.6297)"
           id="g170"><path
             id="path172"
             style="fill:#333333;fill-opacity:1;fill-rule:nonzero;stroke:none"
             d="m 0,0 0,0.456 c 0,0.395 0.342,0.499 0.568,0.499 0.23,0 0.567,-0.104 0.567,-0.499 0,-0.137 -0.001,-0.458 -0.001,-0.458 0,0 0.001,-0.325 0.001,-0.456 0,-0.398 -0.337,-0.499 -0.568,-0.499 C 0.342,-0.957 0,-0.856 0,-0.458 L 0,0 Z m 2.671,-0.029 c 0,0.894 -0.86,1.224 -0.99,1.273 -0.488,0.181 -1.113,0.182 -1.667,-0.096 0,0.023 -0.001,0.148 -0.001,0.148 l -1.432,0 0,-3.86 1.43,0 0,1.421 c 0.006,-0.003 0.012,-0.006 0.018,-0.008 l 1.122,-1.413 1.419,0 -1.013,1.275 c 0.665,0.209 1.114,0.752 1.114,1.26" /></g><g
           transform="translate(82.2433,95.9532)"
           id="g174"><path
             id="path176"
             style="fill:#eac500;fill-opacity:1;fill-rule:nonzero;stroke:none"
             d="m 0,0 0,-0.488 -1.668,0 0,-1.205 1.606,0 0,-0.486 -1.606,0 0,-1.705 -0.575,0 0,3.884 L 0,0 Z" /></g><g
           transform="translate(84.0686,93.7868)"
           id="g178"><path
             id="path180"
             style="fill:#eac500;fill-opacity:1;fill-rule:nonzero;stroke:none"
             d="m 0,0 1.054,0 0,1.395 L 0,0 Z m -1.29,-1.718 -0.681,0 2.931,3.884 0.669,0 0,-3.884 -0.575,0 0,1.232 -1.416,0 -0.928,-1.232 z" /></g><g
           transform="translate(86.4013,92.069)"
           id="g182"><path
             id="path184"
             style="fill:#eac500;fill-opacity:1;fill-rule:nonzero;stroke:none"
             d="m 0,0 0,3.884 0.772,0 1.44,-3.069 1.446,3.069 0.772,0 0,-3.884 -0.576,0 0,3.059 L 2.439,0 1.98,0 0.576,3.056 0.576,0 0,0 Z" /></g><path
           id="path186"
           style="fill:#eac500;fill-opacity:1;fill-rule:nonzero;stroke:none"
           d="m 92.088,92.069 -0.576,0 0,3.884 0.576,0 0,-3.884 z" /><g
           transform="translate(97.998,92.6654)"
           id="g188"><path
             id="path190"
             style="fill:#eac500;fill-opacity:1;fill-rule:nonzero;stroke:none"
             d="m 0,0 c -0.444,-0.444 -0.992,-0.665 -1.646,-0.665 -0.393,0 -0.762,0.089 -1.108,0.268 -0.351,0.183 -0.623,0.427 -0.816,0.735 -0.193,0.307 -0.289,0.64 -0.289,1 0,0.363 0.098,0.699 0.293,1.006 0.196,0.307 0.466,0.548 0.812,0.722 0.353,0.177 0.722,0.266 1.105,0.266 0.408,0 0.79,-0.092 1.147,-0.276 0.374,-0.194 0.664,-0.49 0.869,-0.887 l -0.63,0 C -0.388,2.323 -0.499,2.437 -0.595,2.511 -0.877,2.736 -1.216,2.849 -1.611,2.849 -1.916,2.849 -2.198,2.78 -2.456,2.643 -2.714,2.506 -2.916,2.317 -3.062,2.075 -3.208,1.834 -3.281,1.586 -3.281,1.331 c 0,-0.409 0.163,-0.763 0.489,-1.06 0.326,-0.297 0.714,-0.446 1.165,-0.446 0.379,0 0.722,0.117 1.03,0.35 0.105,0.08 0.225,0.202 0.361,0.365 l 0.038,-0.025 0.584,0 C 0.23,0.272 0.101,0.1 0,0" /></g><g
           transform="translate(102.5606,93.984)"
           id="g192"><path
             id="path194"
             style="fill:#eac500;fill-opacity:1;fill-rule:nonzero;stroke:none"
             d="M 0,0 C 0,0.345 -0.11,0.648 -0.331,0.909 -0.677,1.319 -1.123,1.523 -1.67,1.523 -2.137,1.523 -2.539,1.37 -2.876,1.065 -3.188,0.782 -3.343,0.421 -3.343,-0.02 l -0.014,-0.024 c 0.006,-0.411 0.173,-0.759 0.501,-1.044 0.329,-0.285 0.72,-0.428 1.175,-0.428 0.465,0 0.862,0.149 1.189,0.448 C -0.164,-0.77 0,-0.414 0,0 m -3.897,-0.2 -0.022,-0.024 c 0,0.703 0.208,1.244 0.625,1.621 0.454,0.413 0.996,0.619 1.626,0.619 0.621,0 1.151,-0.195 1.589,-0.584 0.438,-0.389 0.657,-0.859 0.657,-1.41 0,-0.555 -0.212,-1.021 -0.638,-1.397 -0.451,-0.401 -0.987,-0.602 -1.608,-0.602 -0.621,0 -1.151,0.199 -1.591,0.597 -0.371,0.333 -0.584,0.727 -0.638,1.18" /></g><g
           transform="translate(103.666,92.069)"
           id="g196"><path
             id="path198"
             style="fill:#eac500;fill-opacity:1;fill-rule:nonzero;stroke:none"
             d="m 0,0 0,3.884 0.772,0 1.44,-3.069 1.446,3.069 0.772,0 0,-3.884 -0.576,0 0,3.059 L 2.439,0 1.98,0 0.576,3.056 0.576,0 0,0 Z" /></g><g
           transform="translate(109.8527,94.053)"
           id="g200"><path
             id="path202"
             style="fill:#eac500;fill-opacity:1;fill-rule:nonzero;stroke:none"
             d="m 0,0 c 0.255,0 0.424,0.004 0.505,0.012 0.275,0.027 0.477,0.142 0.606,0.345 0.067,0.106 0.1,0.219 0.1,0.34 0,0.196 -0.067,0.355 -0.201,0.476 C 0.885,1.286 0.714,1.356 0.497,1.38 0.455,1.385 0.289,1.39 -0.003,1.395 L -0.513,1.402 -0.513,0 0,0 Z M 0.139,1.883 C 0.68,1.883 1.077,1.786 1.331,1.592 1.637,1.359 1.79,1.061 1.79,0.7 1.79,0.49 1.732,0.292 1.616,0.108 1.495,-0.085 1.332,-0.228 1.127,-0.318 0.883,-0.426 0.556,-0.481 0.147,-0.481 l -0.652,0 0,-1.501 -0.584,-0.022 0,3.887 1.228,0 z" /></g><g
           transform="translate(112.6337,93.5625)"
           id="g204"><path
             id="path206"
             style="fill:#eac500;fill-opacity:1;fill-rule:nonzero;stroke:none"
             d="m 0,0 c 0,-0.705 0.308,-1.057 0.925,-1.057 0.276,0 0.493,0.085 0.651,0.255 0.157,0.17 0.235,0.434 0.235,0.792 l 0,2.403 0.574,0 0,-2.403 c 0,-0.565 -0.177,-0.981 -0.53,-1.247 -0.263,-0.199 -0.579,-0.298 -0.951,-0.298 -0.269,0 -0.522,0.06 -0.757,0.18 -0.248,0.125 -0.431,0.295 -0.549,0.51 -0.109,0.199 -0.164,0.483 -0.166,0.853 L -0.578,2.403 0,2.403 0,0 Z" /></g><g
           transform="translate(115.3224,95.4652)"
           id="g208"><path
             id="path210"
             style="fill:#eac500;fill-opacity:1;fill-rule:nonzero;stroke:none"
             d="m 0,0 0,0.488 2.461,0 0,-0.488 -0.94,0 0,-3.396 -0.576,0 L 0.945,0 0,0 Z" /></g><g
           transform="translate(120.4581,95.9532)"
           id="g212"><path
             id="path214"
             style="fill:#eac500;fill-opacity:1;fill-rule:nonzero;stroke:none"
             d="m 0,0 0,-0.488 -1.839,0 0,-1.193 1.779,0 0,-0.488 -1.779,0 0,-1.23 1.839,0 0,-0.485 -2.414,0 0,3.884 L 0,0 Z" /></g><g
           transform="translate(122.1419,95.9532)"
           id="g216"><path
             id="path218"
             style="fill:#eac500;fill-opacity:1;fill-rule:nonzero;stroke:none"
             d="m 0,0 c 0.523,0 0.941,-0.088 1.255,-0.264 0.38,-0.213 0.57,-0.544 0.57,-0.993 0,-0.447 -0.193,-0.782 -0.579,-1.003 C 1.083,-2.356 0.895,-2.421 0.681,-2.455 l 1.177,-1.409 -0.723,0 -1.518,1.838 c 0.432,0 0.688,0.003 0.767,0.008 0.252,0.014 0.453,0.083 0.605,0.207 0.179,0.142 0.268,0.326 0.268,0.549 0,0.261 -0.112,0.464 -0.339,0.609 -0.171,0.11 -0.446,0.165 -0.824,0.165 l -0.634,0 0,-3.396 -0.587,0 0,3.884 L 0,0 Z" /></g><g
           transform="translate(129.5139,93.0195)"
           id="g220"><path
             id="path222"
             style="fill:#eac500;fill-opacity:1;fill-rule:nonzero;stroke:none"
             d="m 0,0 c 0.01,0 0.03,0.009 0.058,0.027 0.028,0.018 0.04,0.065 0.035,0.141 l 0,0.204 0,0.324 0,0.374 0,0.357 0,0.273 0,0.123 C 0.093,1.843 0.09,1.868 0.085,1.898 0.08,1.928 0.067,1.953 0.046,1.973 0.026,1.981 0.005,1.985 -0.015,1.985 l -0.155,0 L -0.17,0 0,0 Z m -0.402,-0.174 0,2.339 0.387,0 C 0.077,2.165 0.152,2.141 0.208,2.093 0.265,2.041 0.297,1.984 0.305,1.922 0.313,1.86 0.317,1.825 0.317,1.817 l 0,-0.372 0,-0.359 0,-0.381 0,-0.33 0,-0.207 C 0.317,0.1 0.306,0.045 0.286,0.003 0.265,-0.039 0.24,-0.074 0.208,-0.102 0.178,-0.13 0.144,-0.149 0.108,-0.159 0.072,-0.169 0.039,-0.174 0.008,-0.174 l -0.41,0 z M 0.672,-0.84 c 0.015,0 0.055,0.003 0.12,0.009 0.064,0.006 0.132,0.025 0.204,0.057 0.072,0.032 0.137,0.081 0.193,0.147 0.057,0.066 0.085,0.159 0.085,0.279 l 0,2.687 C 1.274,2.351 1.269,2.382 1.259,2.432 1.249,2.482 1.22,2.534 1.174,2.588 1.128,2.642 1.057,2.691 0.962,2.735 0.866,2.779 0.734,2.801 0.564,2.801 l -1.846,0 0,-3.641 1.954,0 z m -2.186,-0.179 0,4 2.078,0 c 0.231,0 0.412,-0.034 0.54,-0.099 C 1.233,2.816 1.327,2.743 1.386,2.663 1.446,2.583 1.485,2.475 1.506,2.339 l 0,-2.687 C 1.506,-0.48 1.476,-0.589 1.417,-0.674 1.358,-0.761 1.285,-0.829 1.197,-0.882 1.11,-0.934 1.018,-0.97 0.923,-0.989 0.828,-1.01 0.744,-1.019 0.672,-1.019 l -2.186,0 z" /></g><path
           id="path224"
           style="fill:#eac500;fill-opacity:1;fill-rule:nonzero;stroke:none"
           d="m 132.511,95.82 -0.958,0 0,-3.634 0.958,0 0,3.634 z m -1.182,0.18 1.414,0 0,-3.994 -1.414,0 0,3.994 z" /><g
           transform="translate(133.2984,92.7258)"
           id="g226"><path
             id="path228"
             style="fill:#eac500;fill-opacity:1;fill-rule:nonzero;stroke:none"
             d="M 0,0 C 0,-0.06 0.005,-0.111 0.015,-0.153 0.026,-0.195 0.042,-0.239 0.066,-0.285 0.089,-0.331 0.124,-0.374 0.17,-0.414 0.268,-0.498 0.412,-0.54 0.602,-0.54 l 0.008,0 1.468,0 c 0.01,0 0.041,0.003 0.092,0.009 0.052,0.006 0.106,0.024 0.163,0.054 0.056,0.03 0.106,0.077 0.15,0.141 0.044,0.064 0.066,0.152 0.066,0.264 l 0,0.816 C 2.538,0.795 2.522,0.841 2.498,0.882 2.475,0.921 2.439,0.966 2.39,1.016 2.341,1.066 2.271,1.117 2.178,1.169 l -1.282,0.636 0,0.36 c 0,0.02 0.005,0.048 0.015,0.084 0.01,0.036 0.036,0.072 0.078,0.108 0.025,0.02 0.06,0.042 0.104,0.066 C 1.137,2.447 1.2,2.459 1.282,2.459 1.354,2.459 1.409,2.45 1.448,2.432 1.487,2.414 1.516,2.395 1.537,2.375 1.588,2.331 1.618,2.287 1.626,2.243 1.633,2.199 1.637,2.171 1.637,2.159 l 0,-0.09 0.912,-0.456 0,1.008 C 2.549,2.632 2.543,2.664 2.533,2.713 2.523,2.764 2.496,2.818 2.452,2.875 2.408,2.933 2.34,2.984 2.247,3.028 2.155,3.072 2.026,3.095 1.861,3.095 l -1.321,0 C 0.525,3.095 0.489,3.091 0.432,3.085 0.376,3.079 0.315,3.061 0.251,3.031 0.186,3.001 0.129,2.957 0.077,2.897 0.026,2.837 0,2.753 0,2.645 L 0,1.739 C 0.015,1.679 0.036,1.627 0.062,1.583 0.087,1.539 0.13,1.491 0.189,1.439 0.248,1.387 0.329,1.337 0.432,1.289 l 1.205,-0.588 0,-0.335 C 1.637,0.346 1.635,0.311 1.63,0.261 1.624,0.211 1.596,0.162 1.545,0.114 1.519,0.094 1.487,0.075 1.448,0.057 1.409,0.039 1.354,0.03 1.282,0.03 1.21,0.03 1.151,0.039 1.104,0.057 1.058,0.075 1.022,0.094 0.996,0.114 0.94,0.158 0.909,0.205 0.904,0.255 0.898,0.305 0.896,0.334 0.896,0.342 l 0,0.114 L 0,0.882 0,0 Z m 0.602,-0.72 c -0.262,0 -0.463,0.062 -0.602,0.186 -0.062,0.052 -0.108,0.107 -0.139,0.165 -0.031,0.058 -0.054,0.114 -0.069,0.168 -0.016,0.054 -0.024,0.1 -0.024,0.138 l 0,0.069 0,1.199 1.359,-0.648 0,-0.221 C 1.127,0.304 1.138,0.275 1.159,0.249 1.179,0.223 1.218,0.21 1.274,0.21 c 0.093,0 0.139,0.046 0.139,0.138 l 0,0.012 0,0.24 -1.104,0.539 C 0.175,1.199 0.072,1.264 0,1.334 c -0.072,0.07 -0.126,0.134 -0.162,0.192 -0.036,0.058 -0.057,0.107 -0.062,0.147 -0.005,0.04 -0.008,0.062 -0.008,0.066 l 0,0.906 c 0,0.187 0.072,0.337 0.217,0.45 C 0.041,3.138 0.102,3.172 0.166,3.196 0.23,3.22 0.29,3.238 0.344,3.25 0.398,3.262 0.463,3.27 0.54,3.274 l 1.321,0 c 0.18,0 0.33,-0.023 0.448,-0.069 C 2.428,3.159 2.522,3.103 2.591,3.034 2.661,2.966 2.71,2.894 2.738,2.819 2.766,2.743 2.78,2.677 2.78,2.621 l 0,-1.338 -1.367,0.69 0,0.192 C 1.413,2.197 1.402,2.224 1.379,2.246 1.356,2.268 1.318,2.279 1.267,2.279 1.21,2.279 1.173,2.265 1.155,2.237 1.137,2.209 1.127,2.185 1.127,2.165 l 0,-0.258 1.174,-0.588 C 2.42,1.251 2.511,1.184 2.576,1.118 2.64,1.053 2.688,0.992 2.719,0.939 2.749,0.885 2.768,0.839 2.773,0.804 2.778,0.768 2.78,0.747 2.78,0.744 l 0,-0.816 C 2.78,-0.232 2.744,-0.356 2.672,-0.444 2.6,-0.532 2.52,-0.596 2.433,-0.636 2.345,-0.676 2.227,-0.704 2.078,-0.72 l -1.476,0 z" /></g><g
           transform="translate(139.0831,92.1858)"
           id="g230"><path
             id="path232"
             style="fill:#eac500;fill-opacity:1;fill-rule:nonzero;stroke:none"
             d="M 0,0 0,1.331 -0.656,1.835 0,2.345 l 0,1.289 -0.88,0 0,-0.983 -0.68,-0.552 0,1.535 -0.912,0 0,-3.634 0.912,0 0,1.493 L -0.934,1.032 -0.919,0 0,0 Z m -1.143,-0.18 -0.016,1.134 -0.169,0.126 0,-1.26 -1.375,0 0,3.994 1.375,0 0,-1.265 0.224,0.174 0,1.091 1.336,0 0,-1.547 -0.564,-0.432 0.564,-0.432 0,-1.583 -1.375,0 z" /></g><g
           transform="translate(142.0952,92.7258)"
           id="g234"><path
             id="path236"
             style="fill:#eac500;fill-opacity:1;fill-rule:nonzero;stroke:none"
             d="M 0,0 C 0,-0.06 0.005,-0.111 0.015,-0.153 0.026,-0.195 0.042,-0.239 0.066,-0.285 0.089,-0.331 0.124,-0.374 0.17,-0.414 0.268,-0.498 0.412,-0.54 0.602,-0.54 l 0.008,0 1.468,0 c 0.01,0 0.041,0.003 0.092,0.009 0.052,0.006 0.106,0.024 0.163,0.054 0.056,0.03 0.106,0.077 0.15,0.141 0.044,0.064 0.066,0.152 0.066,0.264 l 0,0.816 C 2.538,0.795 2.522,0.841 2.498,0.882 2.475,0.921 2.439,0.966 2.39,1.016 2.341,1.066 2.271,1.117 2.178,1.169 l -1.282,0.636 0,0.36 c 0,0.02 0.005,0.048 0.015,0.084 0.01,0.036 0.036,0.072 0.078,0.108 0.025,0.02 0.06,0.042 0.104,0.066 C 1.137,2.447 1.2,2.459 1.282,2.459 1.354,2.459 1.409,2.45 1.448,2.432 1.487,2.414 1.516,2.395 1.537,2.375 1.588,2.331 1.618,2.287 1.626,2.243 1.633,2.199 1.637,2.171 1.637,2.159 l 0,-0.09 0.912,-0.456 0,1.008 C 2.549,2.632 2.543,2.664 2.533,2.713 2.523,2.764 2.496,2.818 2.452,2.875 2.408,2.933 2.34,2.984 2.247,3.028 2.155,3.072 2.026,3.095 1.861,3.095 l -1.32,0 C 0.525,3.095 0.489,3.091 0.432,3.085 0.376,3.079 0.315,3.061 0.251,3.031 0.186,3.001 0.129,2.957 0.077,2.897 0.026,2.837 0,2.753 0,2.645 L 0,1.739 C 0.015,1.679 0.036,1.627 0.062,1.583 0.087,1.539 0.13,1.491 0.189,1.439 0.248,1.387 0.329,1.337 0.432,1.289 l 1.205,-0.588 0,-0.335 C 1.637,0.346 1.635,0.311 1.63,0.261 1.624,0.211 1.596,0.162 1.545,0.114 1.519,0.094 1.487,0.075 1.448,0.057 1.409,0.039 1.354,0.03 1.282,0.03 1.21,0.03 1.151,0.039 1.104,0.057 1.058,0.075 1.022,0.094 0.996,0.114 0.94,0.158 0.909,0.205 0.904,0.255 0.898,0.305 0.896,0.334 0.896,0.342 l 0,0.114 L 0,0.882 0,0 Z m 0.602,-0.72 c -0.262,0 -0.463,0.062 -0.602,0.186 -0.062,0.052 -0.108,0.107 -0.139,0.165 -0.031,0.058 -0.054,0.114 -0.069,0.168 -0.016,0.054 -0.024,0.1 -0.024,0.138 l 0,0.069 0,1.199 1.36,-0.648 0,-0.221 c 0,-0.032 0.01,-0.061 0.031,-0.087 0.02,-0.026 0.059,-0.039 0.115,-0.039 0.093,0 0.139,0.046 0.139,0.138 l 0,0.012 0,0.24 -1.104,0.539 C 0.175,1.199 0.072,1.264 0,1.334 c -0.072,0.07 -0.126,0.134 -0.162,0.192 -0.036,0.058 -0.057,0.107 -0.062,0.147 -0.005,0.04 -0.008,0.062 -0.008,0.066 l 0,0.906 c 0,0.187 0.072,0.337 0.217,0.45 C 0.041,3.138 0.102,3.172 0.166,3.196 0.23,3.22 0.29,3.238 0.344,3.25 0.398,3.262 0.463,3.27 0.541,3.274 l 1.32,0 c 0.18,0 0.33,-0.023 0.448,-0.069 C 2.428,3.159 2.522,3.103 2.591,3.034 2.661,2.966 2.71,2.894 2.738,2.819 2.766,2.743 2.78,2.677 2.78,2.621 l 0,-1.338 -1.367,0.69 0,0.192 C 1.413,2.197 1.402,2.224 1.379,2.246 1.356,2.268 1.318,2.279 1.267,2.279 1.21,2.279 1.173,2.265 1.155,2.237 1.137,2.209 1.128,2.185 1.128,2.165 l 0,-0.258 1.173,-0.588 C 2.42,1.251 2.511,1.184 2.576,1.118 2.64,1.053 2.688,0.992 2.719,0.939 2.749,0.885 2.768,0.839 2.773,0.804 2.778,0.768 2.78,0.747 2.78,0.744 l 0,-0.816 C 2.78,-0.232 2.744,-0.356 2.672,-0.444 2.6,-0.532 2.52,-0.596 2.433,-0.636 2.345,-0.676 2.227,-0.704 2.078,-0.72 l -1.476,0 z" /></g><path
           id="path238"
           style="fill:#eac500;fill-opacity:1;fill-rule:nonzero;stroke:none"
           d="m 146.359,95.82 -0.958,0 0,-3.634 0.958,0 0,3.634 z m -1.182,0.18 1.414,0 0,-3.994 -1.414,0 0,3.994 z" /><g
           transform="translate(150.3747,92.1858)"
           id="g240"><path
             id="path242"
             style="fill:#eac500;fill-opacity:1;fill-rule:nonzero;stroke:none"
             d="m 0,0 0.911,0 0,3.221 C 0.911,3.32 0.886,3.397 0.834,3.451 0.783,3.505 0.725,3.546 0.66,3.574 0.596,3.602 0.535,3.619 0.479,3.625 0.422,3.631 0.389,3.634 0.379,3.634 l -0.997,0 C -0.7,3.634 -0.771,3.624 -0.83,3.604 -0.889,3.584 -0.938,3.562 -0.977,3.538 -1.016,3.514 -1.053,3.48 -1.089,3.437 L -1.189,3.292 -1.29,3.443 C -1.321,3.49 -1.359,3.527 -1.406,3.553 -1.452,3.579 -1.498,3.598 -1.545,3.61 -1.591,3.622 -1.65,3.63 -1.722,3.634 l -1.514,0 0,-3.634 0.826,0 0,2.615 c -0.005,0.012 -0.002,0.047 0.008,0.105 0.01,0.058 0.046,0.111 0.108,0.159 0.021,0.019 0.053,0.039 0.097,0.057 0.043,0.018 0.101,0.027 0.173,0.027 0.078,0 0.138,-0.01 0.182,-0.03 0.044,-0.02 0.078,-0.04 0.104,-0.06 0.057,-0.044 0.088,-0.094 0.093,-0.15 0.005,-0.056 0.008,-0.09 0.008,-0.102 l 0,-2.621 0.896,0 0,2.615 c -0.006,0.016 -0.006,0.049 0,0.099 0.005,0.05 0.036,0.097 0.092,0.141 0.026,0.02 0.062,0.04 0.109,0.06 0.046,0.02 0.107,0.03 0.185,0.03 0.072,0 0.13,-0.009 0.173,-0.027 C -0.138,2.9 -0.103,2.881 -0.077,2.861 -0.031,2.817 -0.005,2.772 0,2.726 0.005,2.68 0.005,2.649 0,2.633 L 0,0 Z m 1.143,-0.18 -1.367,0 0,2.825 c 0.005,0.008 0.006,0.023 0.004,0.045 -0.003,0.022 -0.012,0.041 -0.027,0.057 -0.021,0.016 -0.057,0.024 -0.108,0.024 -0.042,0 -0.07,-0.003 -0.085,-0.009 C -0.456,2.756 -0.466,2.749 -0.471,2.741 -0.497,2.713 -0.51,2.689 -0.51,2.669 -0.515,2.653 -0.515,2.641 -0.51,2.633 l 0,-0.012 0,-2.801 -1.359,0 0,2.813 c 0,0.008 -0.001,0.026 -0.004,0.054 -0.002,0.028 -0.014,0.052 -0.035,0.072 -0.01,0.004 -0.022,0.01 -0.035,0.018 -0.012,0.008 -0.039,0.012 -0.081,0.012 -0.035,0 -0.06,-0.004 -0.073,-0.012 C -2.11,2.769 -2.119,2.763 -2.124,2.759 -2.15,2.739 -2.166,2.714 -2.174,2.684 -2.182,2.654 -2.183,2.633 -2.178,2.621 l 0,-0.006 0,-2.795 -1.29,0 0,3.994 1.746,0 C -1.645,3.81 -1.579,3.802 -1.525,3.79 -1.471,3.778 -1.413,3.76 -1.352,3.736 -1.29,3.712 -1.231,3.678 -1.174,3.634 c 0.047,0.044 0.116,0.085 0.208,0.123 0.093,0.038 0.209,0.057 0.348,0.057 l 0.997,0 C 0.445,3.814 0.523,3.805 0.61,3.787 0.698,3.769 0.781,3.737 0.861,3.691 0.941,3.645 1.008,3.584 1.062,3.508 1.116,3.432 1.143,3.337 1.143,3.221 l 0,-3.401 z" /></g><g
           transform="translate(152.0584,92.7315)"
           id="g244"><path
             id="path246"
             style="fill:#eac500;fill-opacity:1;fill-rule:nonzero;stroke:none"
             d="M 0,0 C 0,-0.136 0.024,-0.241 0.073,-0.315 0.122,-0.389 0.176,-0.443 0.236,-0.476 0.295,-0.511 0.35,-0.53 0.402,-0.537 0.453,-0.543 0.482,-0.546 0.487,-0.546 l 1.49,0 c 0.139,0 0.247,0.022 0.325,0.066 0.077,0.045 0.132,0.092 0.166,0.144 0.033,0.052 0.054,0.101 0.062,0.147 0.007,0.046 0.011,0.071 0.011,0.075 l 0,3.203 -0.919,0 0,-2.771 C 1.622,0.214 1.581,0.14 1.498,0.096 1.416,0.052 1.339,0.03 1.267,0.03 1.164,0.03 1.075,0.058 1,0.114 0.926,0.17 0.888,0.238 0.888,0.318 l 0,2.771 L 0,3.089 0,0 Z M 0.487,-0.725 C 0.332,-0.709 0.211,-0.679 0.124,-0.633 0.036,-0.587 -0.045,-0.514 -0.12,-0.416 -0.194,-0.319 -0.232,-0.18 -0.232,0 l 0,3.269 1.352,0 0,-2.951 C 1.12,0.29 1.134,0.265 1.162,0.243 1.191,0.221 1.225,0.21 1.267,0.21 c 0.025,0 0.054,0.007 0.085,0.021 0.03,0.014 0.046,0.043 0.046,0.087 l 0,2.951 1.375,0 0,-3.383 C 2.773,-0.166 2.761,-0.227 2.738,-0.297 2.715,-0.367 2.674,-0.434 2.614,-0.497 2.555,-0.562 2.474,-0.616 2.371,-0.66 2.268,-0.704 2.137,-0.725 1.977,-0.725 l -1.49,0 z" /></g><g
           transform="translate(157.287,92.1797)"
           id="g248"><path
             id="path250"
             style="fill:#eac500;fill-opacity:1;fill-rule:nonzero;stroke:none"
             d="m 0,0 0,0.6 -0.981,0 0,3.041 -0.934,0 L -1.915,0 0,0 Z m -2.147,-0.18 0,4 1.398,0 0,-3.04 0.981,0 0,-0.96 -2.379,0 z" /></g><g
           transform="translate(159.3646,94.075)"
           id="g252"><path
             id="path254"
             style="fill:#eac500;fill-opacity:1;fill-rule:nonzero;stroke:none"
             d="m 0,0 0,0.809 c 0,0.008 -0.003,0.024 -0.008,0.046 -0.005,0.022 -0.015,0.041 -0.031,0.057 -0.005,0.003 -0.015,0.008 -0.03,0.014 -0.016,0.006 -0.039,0.01 -0.07,0.01 C -0.201,0.936 -0.24,0.92 -0.255,0.888 -0.27,0.855 -0.278,0.829 -0.278,0.809 L -0.278,0 0,0 Z m -0.51,-0.18 0,0.989 c 0,0.008 0.005,0.038 0.016,0.087 0.01,0.051 0.043,0.097 0.1,0.141 0.062,0.052 0.147,0.078 0.255,0.078 0.072,0 0.129,-0.009 0.17,-0.027 C 0.072,1.07 0.105,1.051 0.131,1.031 0.188,0.988 0.219,0.94 0.224,0.891 0.229,0.841 0.232,0.812 0.232,0.804 l 0,-0.984 -0.742,0 z m 1.661,-1.709 0,3.136 C 1.151,1.371 1.124,1.466 1.07,1.532 1.016,1.598 0.956,1.647 0.892,1.679 0.828,1.711 0.767,1.73 0.711,1.736 0.654,1.742 0.623,1.745 0.618,1.745 l -1.46,0 c -0.149,0 -0.27,-0.036 -0.363,-0.108 C -1.251,1.601 -1.287,1.561 -1.313,1.517 -1.339,1.473 -1.358,1.431 -1.371,1.391 -1.384,1.351 -1.39,1.303 -1.39,1.247 l 0,-3.136 0.88,0 0,0.965 0.742,0 0,-0.965 0.919,0 z M 0,-2.069 l 0,0.966 -0.278,0 0,-0.966 -1.344,0 0,3.316 c 0,0.004 0.001,0.024 0.004,0.06 0.002,0.036 0.011,0.079 0.027,0.129 0.015,0.05 0.04,0.105 0.073,0.165 0.034,0.06 0.081,0.114 0.143,0.162 0.139,0.108 0.317,0.162 0.533,0.162 l 1.46,0 C 0.777,1.909 0.905,1.879 1,1.835 1.095,1.791 1.183,1.724 1.263,1.634 1.343,1.544 1.382,1.415 1.382,1.247 l 0,-3.316 -1.382,0 z" /></g><g
           transform="translate(162.8247,92.1858)"
           id="g256"><path
             id="path258"
             style="fill:#eac500;fill-opacity:1;fill-rule:nonzero;stroke:none"
             d="m 0,0 0,2.945 0.641,0 0,0.689 -2.232,0 0,-0.683 0.61,0 L -0.981,0 0,0 Z m -1.213,-0.18 0,2.951 -0.61,0 0,1.043 2.696,0 0,-1.049 -0.641,0 0,-2.945 -1.445,0 z" /></g><path
           id="path260"
           style="fill:#eac500;fill-opacity:1;fill-rule:nonzero;stroke:none"
           d="m 165.134,95.82 -0.958,0 0,-3.634 0.958,0 0,3.634 z m -1.182,0.18 1.414,0 0,-3.994 -1.414,0 0,3.994 z" /><g
           transform="translate(167.1653,95.0105)"
           id="g262"><path
             id="path264"
             style="fill:#eac500;fill-opacity:1;fill-rule:nonzero;stroke:none"
             d="M 0,0 C -0.021,0 -0.049,-0.006 -0.085,-0.018 -0.121,-0.03 -0.139,-0.062 -0.139,-0.114 l 0,-1.847 c 0,-0.028 0.013,-0.053 0.038,-0.075 0.026,-0.022 0.06,-0.033 0.101,-0.033 0.026,0 0.055,0.007 0.089,0.021 0.033,0.014 0.05,0.043 0.05,0.087 l 0,1.847 c 0,0.052 -0.017,0.084 -0.05,0.096 C 0.055,-0.006 0.026,0 0,0 m 0.008,-2.249 c -0.103,0 -0.192,0.028 -0.267,0.084 -0.075,0.056 -0.112,0.124 -0.112,0.204 l 0,1.847 c 0,0.052 0.013,0.097 0.039,0.135 0.026,0.038 0.058,0.069 0.096,0.093 0.039,0.024 0.08,0.041 0.124,0.051 0.044,0.01 0.084,0.015 0.12,0.015 0.072,0 0.149,-0.022 0.231,-0.066 0.083,-0.044 0.124,-0.12 0.124,-0.228 l 0,-1.847 C 0.363,-2.065 0.322,-2.139 0.239,-2.183 0.157,-2.227 0.08,-2.249 0.008,-2.249 M -0.703,0.81 C -0.842,0.81 -0.949,0.788 -1.024,0.744 -1.098,0.7 -1.152,0.651 -1.185,0.597 -1.219,0.543 -1.24,0.493 -1.247,0.447 -1.255,0.401 -1.259,0.376 -1.259,0.372 l 0,-2.651 c 0,-0.136 0.024,-0.241 0.074,-0.315 0.048,-0.074 0.102,-0.128 0.161,-0.162 0.06,-0.034 0.115,-0.054 0.167,-0.06 0.051,-0.006 0.079,-0.009 0.085,-0.009 l 1.49,0 c 0.139,0 0.248,0.022 0.325,0.066 0.077,0.044 0.132,0.092 0.166,0.144 0.033,0.052 0.054,0.101 0.061,0.147 0.008,0.046 0.012,0.071 0.012,0.075 l 0,2.687 c 0,0.124 -0.03,0.22 -0.089,0.291 C 1.134,0.655 1.067,0.706 0.992,0.738 0.918,0.769 0.847,0.79 0.78,0.798 0.713,0.806 0.672,0.81 0.656,0.81 l -1.359,0 z m -0.069,-3.814 c -0.155,0.016 -0.276,0.046 -0.363,0.092 -0.088,0.046 -0.169,0.118 -0.244,0.216 -0.074,0.098 -0.112,0.237 -0.112,0.417 l 0,2.651 c 0,0.052 0.012,0.114 0.035,0.186 0.023,0.072 0.066,0.14 0.128,0.203 0.061,0.064 0.143,0.119 0.243,0.162 0.1,0.044 0.228,0.066 0.382,0.066 l 1.359,0 C 0.728,0.989 0.814,0.98 0.911,0.959 1.009,0.939 1.103,0.902 1.193,0.848 1.283,0.795 1.359,0.723 1.421,0.633 1.483,0.543 1.514,0.43 1.514,0.294 l 0,-2.687 C 1.514,-2.445 1.502,-2.506 1.479,-2.576 1.456,-2.646 1.415,-2.713 1.356,-2.776 1.296,-2.841 1.215,-2.895 1.112,-2.939 1.009,-2.983 0.878,-3.004 0.718,-3.004 l -1.49,0 z" /></g><g
           transform="translate(171.768,92.1858)"
           id="g266"><path
             id="path268"
             style="fill:#eac500;fill-opacity:1;fill-rule:nonzero;stroke:none"
             d="M 0,0 0,3.058 C 0,3.199 -0.034,3.307 -0.104,3.386 -0.173,3.463 -0.251,3.52 -0.336,3.556 -0.421,3.592 -0.503,3.614 -0.583,3.622 -0.663,3.63 -0.71,3.634 -0.726,3.634 l -1.823,0 0,-3.634 0.881,0 0,3.004 0.355,0 c 0.108,0 0.193,-0.027 0.255,-0.083 0.057,-0.048 0.089,-0.1 0.097,-0.156 C -0.954,2.709 -0.95,2.673 -0.95,2.657 L -0.95,0 0,0 Z m -1.174,-0.18 0,2.843 c 0,0.012 -0.001,0.034 -0.004,0.066 -0.002,0.032 -0.016,0.058 -0.042,0.078 -0.01,0.004 -0.022,0.008 -0.035,0.012 -0.013,0.003 -0.032,0.006 -0.058,0.006 l -0.123,0 0,-3.005 -1.344,0 0,3.994 2.054,0 c 0.011,0 0.063,-0.005 0.159,-0.015 0.095,-0.01 0.201,-0.037 0.32,-0.081 C -0.196,3.698 -0.141,3.67 -0.085,3.634 -0.028,3.598 0.023,3.554 0.069,3.502 0.116,3.45 0.155,3.387 0.185,3.313 0.216,3.239 0.232,3.155 0.232,3.058 l 0,-3.238 -1.406,0 z" /></g><g
           transform="translate(163.0801,63.9966)"
           id="g270"><path
             id="path272"
             style="fill:#eac500;fill-opacity:1;fill-rule:nonzero;stroke:none"
             d="m 0,0 c 0.704,0 1.409,-0.003 2.113,0.003 0.12,0.001 0.142,-0.033 0.14,-0.126 -0.005,-0.304 -0.007,-0.609 0,-0.914 0.003,-0.102 -0.036,-0.122 -0.145,-0.121 -0.911,0.004 -1.822,0 -2.732,0.004 -0.106,0 -0.152,-0.011 -0.157,-0.115 -0.006,-0.113 0.056,-0.118 0.154,-0.118 0.898,0.002 1.797,-0.002 2.695,0.004 C 2.21,-1.382 2.26,-1.406 2.255,-1.539 2.243,-1.838 2.246,-2.138 2.253,-2.437 2.256,-2.541 2.224,-2.571 2.103,-2.57 c -0.911,0.005 -1.822,0.002 -2.732,0.002 -0.045,0 -0.104,0.03 -0.13,-0.023 -0.029,-0.061 0.024,-0.1 0.067,-0.137 0.078,-0.066 0.176,-0.063 0.274,-0.063 0.826,0 1.651,-0.003 2.477,0.003 0.152,0.002 0.2,-0.035 0.195,-0.169 -0.01,-0.305 -0.006,-0.61 -0.002,-0.914 0.001,-0.081 -0.02,-0.111 -0.121,-0.11 -0.746,0.004 -1.494,-0.01 -2.24,0.006 -1.12,0.023 -2.104,0.864 -2.148,1.849 -0.03,0.678 -0.008,1.358 -0.015,2.037 C -2.273,0.017 -2.205,0 -2.131,0 -1.421,-0.001 -0.71,-0.001 0,-0.001 L 0,0 Z" /></g><g
           transform="translate(168.5984,62.6124)"
           id="g274"><path
             id="path276"
             style="fill:#eac500;fill-opacity:1;fill-rule:nonzero;stroke:none"
             d="M 0,0 C 0.461,0 0.923,-0.003 1.384,0.002 1.501,0.004 1.546,-0.022 1.542,-0.131 1.528,-0.451 1.561,-0.77 1.474,-1.088 1.256,-1.89 0.381,-2.558 -0.563,-2.587 c -0.765,-0.024 -1.53,-0.005 -2.295,-0.01 -0.114,0 -0.123,0.042 -0.121,0.126 0.006,0.305 0.011,0.61 0,0.914 -0.005,0.123 0.035,0.154 0.171,0.153 0.813,-0.006 1.627,-0.002 2.441,-0.004 0.107,0 0.206,0.01 0.283,0.084 0.036,0.033 0.055,0.071 0.036,0.116 -0.022,0.05 -0.07,0.027 -0.11,0.027 -0.887,-0.002 -1.773,0 -2.659,-0.006 -0.143,-10e-4 -0.17,0.037 -0.162,0.155 0.021,0.298 -0.016,0.596 0.066,0.893 0.24,0.869 1.123,1.505 2.147,1.519 C -0.037,1.391 0.692,1.382 1.42,1.387 1.524,1.388 1.542,1.353 1.541,1.275 1.538,0.965 1.533,0.655 1.542,0.345 1.545,0.236 1.495,0.227 1.393,0.227 0.5,0.23 -0.392,0.228 -1.285,0.227 -1.327,0.227 -1.371,0.231 -1.412,0.225 -1.514,0.209 -1.552,0.131 -1.555,0.06 -1.559,-0.031 -1.46,0 -1.403,0 -0.935,-0.002 -0.468,-0.001 0,-0.001 L 0,0 Z" /></g><g
           transform="translate(182.2757,61.8127)"
           id="g278"><path
             id="path280"
             style="fill:#262626;fill-opacity:1;fill-rule:nonzero;stroke:none"
             d="M 0,0 C 0.17,0 0.34,-0.003 0.509,0.001 0.682,0.004 0.804,0.096 0.832,0.233 0.873,0.44 0.68,0.783 0.475,0.894 0.128,1.083 -0.251,1.033 -0.622,1.011 -0.768,1.002 -0.84,0.884 -0.843,0.753 -0.847,0.603 -0.847,0.454 -0.845,0.304 -0.842,0.107 -0.721,0.003 -0.491,0 -0.328,-0.001 -0.164,0 0,0 m -2.228,0.212 c 0,0.62 0.003,1.24 -0.002,1.86 -10e-4,0.094 0.028,0.114 0.132,0.114 C -1.394,2.181 -0.69,2.185 0.014,2.182 1.312,2.175 2.307,1.277 2.291,0.131 2.286,-0.195 2.285,-0.521 2.292,-0.847 2.294,-0.937 2.276,-0.962 2.168,-0.961 1.3,-0.956 0.432,-0.958 -0.436,-0.958 c -0.297,0.001 -0.405,-0.096 -0.41,-0.353 -0.004,-0.158 0.081,-0.375 -0.033,-0.458 -0.109,-0.08 -0.346,-0.026 -0.527,-0.027 -0.231,-10e-4 -0.461,0.004 -0.692,-10e-4 -0.101,-0.002 -0.134,0.023 -0.133,0.117 0.005,0.631 0.003,1.261 0.003,1.892" /></g><g
           transform="translate(160.5206,62.0061)"
           id="g282"><path
             id="path284"
             style="fill:#eac500;fill-opacity:1;fill-rule:nonzero;stroke:none"
             d="m 0,0 c 0,-0.609 -0.005,-1.219 0.004,-1.828 0.002,-0.138 -0.048,-0.167 -0.193,-0.163 -0.352,0.009 -0.704,0.008 -1.056,0.002 -0.109,-0.002 -0.143,0.015 -0.143,0.12 0.007,0.785 0.004,1.571 0.004,2.357 0,0.255 -0.104,0.35 -0.394,0.345 C -2.073,0.828 -2.37,0.865 -2.649,0.726 -2.952,0.575 -3.051,0.335 -3.055,0.057 c -0.009,-0.631 -0.008,-1.261 -10e-4,-1.892 0.002,-0.129 -0.039,-0.16 -0.182,-0.157 -0.382,0.01 -0.765,0.005 -1.147,0.002 -0.095,-0.001 -0.137,0.014 -0.136,0.114 0.007,0.62 0.004,1.24 0.004,1.86 0.001,1.085 0.954,1.97 2.183,2 0.74,0.019 1.481,0.003 2.222,0.01 C 0.019,1.995 0,1.929 0.001,1.86 c 0,-0.62 0,-1.24 0,-1.86 L 0,0 Z" /></g><g
           transform="translate(176.5526,61.9442)"
           id="g286"><path
             id="path288"
             style="fill:#262626;fill-opacity:1;fill-rule:nonzero;stroke:none"
             d="m 0,0 c -0.001,-0.462 0.419,-0.834 0.944,-0.836 0.521,-0.002 0.95,0.374 0.95,0.832 0,0.46 -0.422,0.834 -0.946,0.838 C 0.429,0.838 0.001,0.462 0,0 m -1.311,0.069 c 0.003,1.094 1.02,1.984 2.264,1.982 C 2.19,2.048 3.209,1.146 3.205,0.056 3.201,-1.031 2.174,-1.93 0.938,-1.928 c -1.237,0.003 -2.252,0.903 -2.249,1.997" /></g><g
           transform="translate(171.707,63.9949)"
           id="g290"><path
             id="path292"
             style="fill:#262626;fill-opacity:1;fill-rule:nonzero;stroke:none"
             d="M 0,0 C 0.334,0 0.668,0.003 1.001,-0.001 2.263,-0.014 3.259,-0.924 3.243,-2.036 3.234,-2.639 3.239,-3.243 3.245,-3.847 3.246,-3.955 3.209,-3.981 3.091,-3.979 c -0.388,0.006 -0.776,0.004 -1.165,0 -0.102,-10e-4 -0.147,0.011 -0.146,0.12 0.008,0.631 0.005,1.261 0.005,1.892 0,0.508 -0.337,0.809 -0.912,0.811 -0.661,0.003 -1.323,0.005 -1.984,-0.001 -0.134,-10e-4 -0.175,0.025 -0.17,0.15 0.014,0.293 0.012,0.588 10e-4,0.882 -0.005,0.111 0.034,0.131 0.151,0.128 C -0.753,-0.004 -0.376,0.001 0,0.001 L 0,0 Z" /></g><g
           transform="translate(189.6793,61.8129)"
           id="g294"><path
             id="path296"
             style="fill:#262626;fill-opacity:1;fill-rule:nonzero;stroke:none"
             d="M 0,0 C 0.182,0 0.364,-0.004 0.546,0.001 0.715,0.005 0.836,0.102 0.86,0.241 0.897,0.456 0.707,0.783 0.494,0.898 0.152,1.083 -0.222,1.031 -0.587,1.012 -0.741,1.004 -0.816,0.883 -0.819,0.745 c -0.003,-0.15 -0.004,-0.3 0,-0.449 C -0.814,0.109 -0.69,0.004 -0.473,0 -0.315,-0.002 -0.158,0 0,0 m -2.199,0.195 c 0,0.625 0.003,1.25 -0.003,1.875 -10e-4,0.095 0.026,0.116 0.13,0.115 C -1.356,2.181 -0.64,2.188 0.076,2.181 1.34,2.169 2.334,1.261 2.319,0.149 2.311,-0.45 2.314,-1.048 2.321,-1.647 2.322,-1.765 2.289,-1.802 2.149,-1.799 c -0.363,0.01 -0.728,0.009 -1.092,0 -0.151,-0.003 -0.225,0.019 -0.201,0.174 0.019,0.126 0.009,0.256 0.004,0.384 -0.007,0.17 -0.129,0.28 -0.324,0.283 -0.345,0.004 -0.691,0.005 -1.037,-0.001 -0.19,-0.003 -0.313,-0.119 -0.318,-0.289 -0.004,-0.149 -0.004,-0.299 0.002,-0.449 0.003,-0.071 -0.006,-0.103 -0.105,-0.102 -0.382,0.007 -0.764,0.005 -1.147,0.002 -0.097,-0.001 -0.135,0.019 -0.134,0.116 0.006,0.625 0.004,1.25 0.004,1.876 z" /></g><g
           transform="translate(186.7527,63.8818)"
           id="g298"><path
             id="path300"
             style="fill:#262626;fill-opacity:1;fill-rule:nonzero;stroke:none"
             d="m 0,0 c 0,-0.198 0,-0.367 0,-0.536 0,-1.058 -0.004,-2.117 0.002,-3.175 0.001,-0.132 -0.043,-0.159 -0.182,-0.156 -0.383,0.008 -0.765,0.005 -1.148,10e-4 -0.099,-10e-4 -0.135,0.02 -0.134,0.116 0.006,0.647 -0.011,1.294 0.009,1.941 0.022,0.745 0.45,1.287 1.16,1.669 C -0.211,-0.095 -0.124,-0.059 0,0" /></g><g
           transform="translate(182.0416,75.9556)"
           id="g302"><path
             id="path304"
             style="fill:#000000;fill-opacity:1;fill-rule:nonzero;stroke:none"
             d="m 0,0 0,-0.488 -1.518,0 0,-1.206 1.461,0 0,-0.486 -1.461,0 0,-1.707 -0.524,0 0,3.887 L 0,0 Z" /></g><g
           transform="translate(185.843,72.6658)"
           id="g306"><path
             id="path308"
             style="fill:#000000;fill-opacity:1;fill-rule:nonzero;stroke:none"
             d="m 0,0 c -0.404,-0.444 -0.903,-0.666 -1.498,-0.666 -0.357,0 -0.694,0.09 -1.008,0.269 -0.32,0.182 -0.568,0.427 -0.743,0.735 -0.176,0.307 -0.263,0.641 -0.263,1.001 0,0.363 0.089,0.699 0.267,1.006 0.178,0.308 0.424,0.549 0.739,0.723 0.321,0.177 0.656,0.266 1.006,0.266 0.37,0 0.718,-0.092 1.043,-0.276 0.341,-0.194 0.604,-0.49 0.791,-0.888 l -0.574,0 c -0.113,0.155 -0.214,0.269 -0.301,0.343 -0.257,0.225 -0.565,0.338 -0.925,0.338 -0.278,0 -0.535,-0.069 -0.77,-0.206 C -2.47,2.508 -2.654,2.318 -2.787,2.076 -2.919,1.835 -2.986,1.587 -2.986,1.332 c 0,-0.41 0.149,-0.763 0.445,-1.061 0.297,-0.297 0.65,-0.446 1.06,-0.446 0.345,0 0.657,0.117 0.937,0.35 0.096,0.081 0.205,0.202 0.329,0.365 l 0.035,-0.025 0.531,0 C 0.209,0.272 0.092,0.1 0,0" /></g><g
           transform="translate(188.767,75.9556)"
           id="g310"><path
             id="path312"
             style="fill:#000000;fill-opacity:1;fill-rule:nonzero;stroke:none"
             d="m 0,0 0,-0.488 -1.673,0 0,-1.194 1.619,0 0,-0.488 -1.619,0 0,-1.231 1.673,0 0,-0.486 -2.197,0 0,3.887 L 0,0 Z" /></g><g
           transform="translate(189.8299,73.5635)"
           id="g314"><path
             id="path316"
             style="fill:#000000;fill-opacity:1;fill-rule:nonzero;stroke:none"
             d="m 0,0 c 0,-0.705 0.281,-1.058 0.842,-1.058 0.251,0 0.449,0.085 0.592,0.255 0.143,0.17 0.215,0.435 0.215,0.793 l 0,2.405 0.521,0 0,-2.405 c 0,-0.565 -0.161,-0.981 -0.482,-1.248 -0.239,-0.199 -0.527,-0.298 -0.865,-0.298 -0.245,0 -0.475,0.06 -0.69,0.18 -0.225,0.125 -0.392,0.295 -0.499,0.51 -0.099,0.199 -0.149,0.484 -0.151,0.854 L -0.526,2.404 0,2.404 0,0 Z" /></g><g
           transform="translate(185.2531,68)"
           id="g318"><path
             id="path320"
             style="fill:#eac500;fill-opacity:1;fill-rule:nonzero;stroke:none"
             d="M 0,0 0,3.15 -2.034,0 -2.59,0 -2.59,3.157 -4.641,0 l -0.612,0 2.602,4 0.573,0 0,-3.136 L -0.053,4 0.51,4 0.51,0 0,0 Z" /></g><g
           transform="translate(186.2366,68)"
           id="g322"><path
             id="path324"
             style="fill:#eac500;fill-opacity:1;fill-rule:nonzero;stroke:none"
             d="M 0,0 0,4 0.563,4 2.588,0.864 2.588,4 3.161,4 5.763,0 5.151,0 3.101,3.157 3.101,0 2.544,0 0.51,3.15 0.51,0 0,0 Z" /></g><g
           transform="translate(32,224)"
           id="g326"><path
             id="path328"
             style="fill:#d4a600;fill-opacity:1;fill-rule:nonzero;stroke:none"
             d="m 0,0 0,-12 2,0 0,10 12,0 0,-10 2,0 0,12 -16,0 z" /></g><g
           transform="translate(208,224)"
           id="g330"><path
             id="path332"
             style="fill:#d4a600;fill-opacity:1;fill-rule:nonzero;stroke:none"
             d="m 0,0 0,-12 2,0 0,10 12,0 0,-10 2,0 0,12 -16,0 z" /></g></g></g></g></svg>