<?xml version="1.0" encoding="UTF-8" standalone="no"?>
<svg
   xmlns:dc="http://purl.org/dc/elements/1.1/"
   xmlns:cc="http://creativecommons.org/ns#"
   xmlns:rdf="http://www.w3.org/1999/02/22-rdf-syntax-ns#"
   xmlns:svg="http://www.w3.org/2000/svg"
   xmlns="http://www.w3.org/2000/svg"
   viewBox="0 0 320 320"
   height="320"
   width="320"
   xml:space="preserve"
   version="1.1"
   id="svg2"><metadata
     id="metadata8"><rdf:RDF><cc:Work
         rdf:about=""><dc:format>image/svg+xml</dc:format><dc:type
           rdf:resource="http://purl.org/dc/dcmitype/StillImage" /></cc:Work></rdf:RDF></metadata><defs
     id="defs6"><clipPath
       id="clipPath16"
       clipPathUnits="userSpaceOnUse"><path
         id="path18"
         d="M 0,256 256,256 256,0 0,0 0,256 Z" /></clipPath><clipPath
       id="clipPath24"
       clipPathUnits="userSpaceOnUse"><path
         id="path26"
         d="M 4,184 252,184 252,68 4,68 4,184 Z" /></clipPath></defs><g
     transform="matrix(1.25,0,0,-1.25,0,320)"
     id="g10"><g
       id="g12"><g
         clip-path="url(#clipPath16)"
         id="g14"><g
           id="g20"><g
             id="g22" /><g
             id="g28"><g
               style="opacity:0.5"
               id="g30"
               clip-path="url(#clipPath24)"><g
                 id="g32"
                 transform="translate(239.1667,184)"><path
                   id="path34"
                   style="fill:#ffffff;fill-opacity:1;fill-rule:nonzero;stroke:none"
                   d="m 0,0 -222.333,0 c -7.077,0 -12.834,-5.742 -12.834,-12.8 l 0,-90.4 c 0,-7.058 5.757,-12.8 12.834,-12.8 L 0,-116 c 7.076,0 12.833,5.742 12.833,12.8 l 0,90.4 C 12.833,-5.742 7.076,0 0,0" /></g></g></g></g><g
           transform="translate(239.1667,76)"
           id="g36"><path
             id="path38"
             style="fill:#cccccc;fill-opacity:1;fill-rule:nonzero;stroke:none"
             d="m 0,0 -222.333,0 c -2.67,0 -4.834,2.149 -4.834,4.8 l 0,90.4 c 0,2.651 2.164,4.8 4.834,4.8 L 0,100 c 2.669,0 4.833,-2.149 4.833,-4.8 l 0,-90.4 C 4.833,2.149 2.669,0 0,0" /></g><path
           id="path40"
           style="fill:#262626;fill-opacity:1;fill-rule:nonzero;stroke:none"
           d="m 236,84 -216,0 0,80 216,0 0,-80 z" /><g
           transform="translate(64.2399,146)"
           id="g42"><path
             id="path44"
             style="fill:#cccccc;fill-opacity:1;fill-rule:nonzero;stroke:none"
             d="m 0,0 -16.48,0 c -1.04,0 -1.882,-0.843 -1.882,-1.882 l 0,-11.996 -11.996,0 c -1.039,0 -1.882,-0.843 -1.882,-1.882 l 0,-16.48 c 0,-1.04 0.843,-1.882 1.882,-1.882 l 11.996,0 0,-11.996 c 0,-1.039 0.842,-1.882 1.882,-1.882 L 0,-48 c 1.039,0 1.882,0.843 1.882,1.882 l 0,11.996 11.996,0 c 1.039,0 1.882,0.842 1.882,1.882 l 0,16.48 c 0,1.039 -0.843,1.882 -1.882,1.882 l -11.996,0 0,11.996 C 1.882,-0.843 1.039,0 0,0" /></g><g
           transform="translate(78,130.196)"
           id="g46"><path
             id="path48"
             style="fill:#191919;fill-opacity:1;fill-rule:nonzero;stroke:none"
             d="m 0,0 -13.804,0 0,13.804 -16.392,0 0,-13.804 -13.804,0 0,-16.392 13.804,0 0,-13.804 16.392,0 0,13.804 13.804,0 L 0,0 Z" /></g><g
           transform="translate(192,98.4392)"
           id="g50"><path
             id="path52"
             style="fill:#cccccc;fill-opacity:1;fill-rule:nonzero;stroke:none"
             d="m 0,0 c 0,-1.347 -1.092,-2.439 -2.439,-2.439 l -19.122,0 C -22.908,-2.439 -24,-1.347 -24,0 l 0,19.122 c 0,1.347 1.092,2.439 2.439,2.439 l 19.122,0 C -1.092,21.561 0,20.469 0,19.122 L 0,0 Z" /></g><g
           transform="translate(191,108)"
           id="g54"><path
             id="path56"
             style="fill:#7b0000;fill-opacity:1;fill-rule:nonzero;stroke:none"
             d="m 0,0 c 0,6.065 -4.935,11 -11,11 -6.065,0 -11,-4.935 -11,-11 0,-6.065 4.935,-11 11,-11 6.065,0 11,4.935 11,11" /></g><g
           transform="translate(190,108)"
           id="g58"><path
             id="path60"
             style="fill:#b80000;fill-opacity:1;fill-rule:nonzero;stroke:none"
             d="m 0,0 c 0,-5.523 -4.477,-10 -10,-10 -5.523,0 -10,4.477 -10,10 0,5.523 4.477,10 10,10 C -4.477,10 0,5.523 0,0" /></g><g
           transform="translate(224,98.4392)"
           id="g62"><path
             id="path64"
             style="fill:#cccccc;fill-opacity:1;fill-rule:nonzero;stroke:none"
             d="m 0,0 c 0,-1.347 -1.092,-2.439 -2.439,-2.439 l -19.122,0 C -22.908,-2.439 -24,-1.347 -24,0 l 0,19.122 c 0,1.347 1.092,2.439 2.439,2.439 l 19.122,0 C -1.092,21.561 0,20.469 0,19.122 L 0,0 Z" /></g><g
           transform="translate(223,108)"
           id="g66"><path
             id="path68"
             style="fill:#7b0000;fill-opacity:1;fill-rule:nonzero;stroke:none"
             d="m 0,0 c 0,6.065 -4.935,11 -11,11 -6.065,0 -11,-4.935 -11,-11 0,-6.065 4.935,-11 11,-11 6.065,0 11,4.935 11,11" /></g><g
           transform="translate(222,108)"
           id="g70"><path
             id="path72"
             style="fill:#b80000;fill-opacity:1;fill-rule:nonzero;stroke:none"
             d="m 0,0 c 0,-5.523 -4.477,-10 -10,-10 -5.523,0 -10,4.477 -10,10 0,5.523 4.477,10 10,10 C -4.477,10 0,5.523 0,0" /></g><g
           transform="translate(152,96)"
           id="g74"><path
             id="path76"
             style="fill:#cccccc;fill-opacity:1;fill-rule:nonzero;stroke:none"
             d="m 0,0 -56,0 c -2.209,0 -4,1.791 -4,4 l 0,16 c 0,2.209 1.791,4 4,4 l 56,0 c 2.209,0 4,-1.791 4,-4 L 4,4 C 4,1.791 2.209,0 0,0" /></g><g
           transform="translate(120,108)"
           id="g78"><path
             id="path80"
             style="fill:#191919;fill-opacity:1;fill-rule:nonzero;stroke:none"
             d="m 0,0 c 0,-2.209 -1.78,-4 -3.976,-4 l -12.048,0 C -18.22,-4 -20,-2.209 -20,0 c 0,2.209 1.78,4 3.976,4 L -3.976,4 C -1.78,4 0,2.209 0,0" /></g><g
           transform="translate(148,108)"
           id="g82"><path
             id="path84"
             style="fill:#191919;fill-opacity:1;fill-rule:nonzero;stroke:none"
             d="m 0,0 c 0,-2.209 -1.78,-4 -3.976,-4 l -12.048,0 C -18.22,-4 -20,-2.209 -20,0 c 0,2.209 1.78,4 3.976,4 L -3.976,4 C -1.78,4 0,2.209 0,0" /></g><g
           transform="translate(60,122)"
           id="g86"><path
             id="path88"
             style="fill:#262626;fill-opacity:1;fill-rule:nonzero;stroke:none"
             d="m 0,0 c 0,-2.209 -1.791,-4 -4,-4 -2.209,0 -4,1.791 -4,4 0,2.209 1.791,4 4,4 2.209,0 4,-1.791 4,-4" /></g><g
           transform="translate(54.1263,106.7519)"
           id="g90"><path
             id="path92"
             style="fill:#262626;fill-opacity:1;fill-rule:nonzero;stroke:none"
             d="m 0,0 0,3.248 3.949,0 0,-3.248 1.924,0 -4,-4.752 L -2.127,0 0,0 Z" /></g><g
           transform="translate(57.8731,137.2481)"
           id="g94"><path
             id="path96"
             style="fill:#262626;fill-opacity:1;fill-rule:nonzero;stroke:none"
             d="m 0,0 0,-3.248 -3.949,0 0,3.248 -1.924,0 4,4.752 L 2.127,0 0,0 Z" /></g><g
           transform="translate(40.7519,123.8737)"
           id="g98"><path
             id="path100"
             style="fill:#262626;fill-opacity:1;fill-rule:nonzero;stroke:none"
             d="m 0,0 3.248,0 0,-3.949 -3.248,0 0,-1.924 -4.752,4 L 0,2.127 0,0 Z" /></g><g
           transform="translate(71.248,120.1269)"
           id="g102"><path
             id="path104"
             style="fill:#262626;fill-opacity:1;fill-rule:nonzero;stroke:none"
             d="m 0,0 -3.248,0 0,3.949 3.248,0 0,1.924 4.752,-4 L 0,-2.127 0,0 Z" /></g><g
           transform="translate(156,126.8457)"
           id="g106"><path
             id="path108"
             style="fill:#808080;fill-opacity:1;fill-rule:nonzero;stroke:none"
             d="m 0,0 c 0,-1.572 -1.174,-2.846 -2.623,-2.846 l -58.754,0 C -62.826,-2.846 -64,-1.572 -64,0 l 0,6.309 c 0,1.571 1.174,2.845 2.623,2.845 l 58.754,0 C -1.174,9.154 0,7.88 0,6.309 L 0,0 Z" /></g><g
           transform="translate(156,142.8457)"
           id="g110"><path
             id="path112"
             style="fill:#808080;fill-opacity:1;fill-rule:nonzero;stroke:none"
             d="m 0,0 c 0,-1.572 -1.174,-2.846 -2.623,-2.846 l -58.754,0 C -62.826,-2.846 -64,-1.572 -64,0 l 0,6.309 c 0,1.571 1.174,2.845 2.623,2.845 l 58.754,0 C -1.174,9.154 0,7.88 0,6.309 L 0,0 Z" /></g><g
           transform="translate(92,164)"
           id="g114"><path
             id="path116"
             style="fill:#808080;fill-opacity:1;fill-rule:nonzero;stroke:none"
             d="M 0,0 0,-5.154 C 0,-6.726 1.174,-8 2.623,-8 l 58.754,0 C 62.826,-8 64,-6.726 64,-5.154 L 64,0 0,0 Z" /></g><g
           transform="translate(153.3768,92)"
           id="g118"><path
             id="path120"
             style="fill:#808080;fill-opacity:1;fill-rule:nonzero;stroke:none"
             d="m 0,0 -58.754,0 c -1.448,0 -2.623,-1.274 -2.623,-2.846 l 0,-5.154 64,0 0,5.154 C 2.623,-1.274 1.449,0 0,0" /></g><path
           id="path122"
           style="fill:#b3b3b3;fill-opacity:1;fill-rule:nonzero;stroke:none"
           d="m 92,172 -12,0 0,4 12,0 0,-4 z" /><g
           transform="translate(203.2313,147.0585)"
           id="g124"><path
             id="path126"
             style="fill:#b80000;fill-opacity:1;fill-rule:nonzero;stroke:none"
             d="m 0,0 2.173,0 0,-1.038 1.175,0 0,-0.765 -1.175,0 0.002,-5.123 -2.177,0 0.002,5.123 -1.18,0 0,0.763 1.182,0 L 0,0 Z" /></g><path
           id="path128"
           style="fill:#b80000;fill-opacity:1;fill-rule:nonzero;stroke:none"
           d="m 177.772,145.265 2.172,0 0,-5.133 -2.172,0 0,5.133 z" /><path
           id="path130"
           style="fill:#b80000;fill-opacity:1;fill-rule:nonzero;stroke:none"
           d="m 177.767,147.854 2.177,0 0,-1.578 -2.177,0 0,1.578 z" /><g
           transform="translate(217.6986,142.9152)"
           id="g132"><path
             id="path134"
             style="fill:#b80000;fill-opacity:1;fill-rule:nonzero;stroke:none"
             d="m 0,0 0,0.001 c 0,-0.016 -0.002,-0.778 -0.002,-1.085 0,-0.819 -0.452,-1.156 -0.888,-1.156 -0.435,0 -0.889,0.337 -0.889,1.156 l 0,1.105 c 0,0 0.002,0.761 0.002,1.071 0,0.815 0.454,1.15 0.887,1.15 0.434,0 0.888,-0.335 0.888,-1.15 0,-0.31 0,-0.885 0.002,-1.091 L 0,0.002 0,0 Z m -0.872,2.878 c -1.754,0 -3.176,-1.291 -3.176,-2.882 0,-1.593 1.422,-2.883 3.176,-2.883 1.753,0 3.173,1.29 3.173,2.883 0,1.591 -1.42,2.882 -3.173,2.882" /></g><g
           transform="translate(183.37,143.6574)"
           id="g136"><path
             id="path138"
             style="fill:#b80000;fill-opacity:1;fill-rule:nonzero;stroke:none"
             d="m 0,0 c 0,0.796 0.514,0.998 0.851,0.998 0.346,0 0.852,-0.202 0.852,-0.998 0,-0.262 -0.002,-0.913 -0.002,-0.913 0,0 0.002,-0.641 0.002,-0.915 0,-0.792 -0.506,-1 -0.851,-1 -0.338,0 -0.852,0.208 -0.852,1 L 0,-0.917 0,0 Z m -2.128,4.211 0,-7.72 2.148,0 c 0,0 0.002,0.25 0.002,0.296 0.83,-0.556 1.768,-0.555 2.499,-0.192 0.195,0.098 1.485,0.758 1.485,2.546 0,1.354 -1.196,2.835 -2.761,2.687 C 0.73,1.78 0.362,1.579 0.016,1.37 l 0,2.841 -2.144,0 z" /></g><g
           transform="translate(198.0107,144.6873)"
           id="g140"><path
             id="path142"
             style="fill:#b80000;fill-opacity:1;fill-rule:nonzero;stroke:none"
             d="m 0,0 c 0.169,0.316 0.481,0.468 0.763,0.468 l 0,0 0.001,0 0,0 C 1.048,0.468 1.359,0.316 1.528,0 1.665,-0.256 1.672,-0.557 1.669,-1.007 l -1.813,0 C -0.148,-0.557 -0.139,-0.256 0,0 m 1.663,-2.866 c 0,-0.94 -0.578,-1.148 -0.899,-1.148 -0.321,0 -0.908,0.208 -0.908,1.148 0,0.281 0.002,1.059 0.002,1.059 0,0 4.091,-0.002 4.091,0 0,1.593 -1.439,2.913 -3.205,2.913 -1.766,0 -3.199,-1.291 -3.199,-2.884 0,-1.591 1.433,-2.881 3.199,-2.881 1.465,0 2.704,0.893 3.082,2.105 L 1.662,-2.556 c 0,0 0.001,-0.021 0.001,-0.31" /></g><g
           transform="translate(174.1752,140.8948)"
           id="g144"><path
             id="path146"
             style="fill:#b80000;fill-opacity:1;fill-rule:nonzero;stroke:none"
             d="m 0,0 0,6.994 -2.175,0 0,-6.994 0,-0.763 2.175,0 2.354,0 L 2.354,0 0,0 Z" /></g><g
           transform="translate(211.1352,143.3863)"
           id="g148"><path
             id="path150"
             style="fill:#b80000;fill-opacity:1;fill-rule:nonzero;stroke:none"
             d="M 0,0 2.128,0 C 1.909,1.657 0.457,2.137 -0.29,2.116 -1.007,2.093 -1.606,1.763 -2.022,1.34 c -0.002,0.127 0,0.541 0,0.541 l -2.155,-0.002 -0.002,-5.133 2.157,0 c 0,0 -0.002,3.153 -0.002,3.371 0,0.446 0.44,0.945 1.031,0.945 C -0.402,1.062 0,0.563 0,0.117 L 0,0 Z" /></g><g
           transform="translate(190.7932,145.2594)"
           id="g152"><path
             id="path154"
             style="fill:#b80000;fill-opacity:1;fill-rule:nonzero;stroke:none"
             d="m 0,0 0,0.911 c 0,0.792 0.514,1 0.852,1 0.345,0 0.851,-0.208 0.851,-1 0,-0.273 -0.002,-0.915 -0.002,-0.915 0,0 0.002,-0.651 0.002,-0.913 0,-0.795 -0.506,-0.998 -0.852,-0.998 C 0.514,-1.915 0,-1.712 0,-0.917 L 0,0 Z M 4.006,-0.058 C 4.006,1.73 2.716,2.39 2.521,2.489 1.79,2.851 0.852,2.853 0.022,2.296 0.022,2.342 0.02,2.593 0.02,2.593 l -2.148,0 0,-7.72 2.144,0 0,2.841 c 0.009,-0.006 0.019,-0.011 0.028,-0.017 l 1.682,-2.824 2.128,0 -1.518,2.549 c 0.997,0.417 1.67,1.504 1.67,2.52" /></g><path
           id="path156"
           style="fill:#3d0000;fill-opacity:1;fill-rule:nonzero;stroke:none"
           d="m 264,116 -8,0 0,8 8,0 0,-8 z" /><path
           id="path158"
           style="fill:#d4a600;fill-opacity:1;fill-rule:nonzero;stroke:none"
           d="m 264,108 -8,0 0,8 8,0 0,-8 z" /><path
           id="path160"
           style="fill:#0e6654;fill-opacity:1;fill-rule:nonzero;stroke:none"
           d="m 264,100 -8,0 0,8 8,0 0,-8 z" /><path
           id="path162"
           style="fill:#2c3e50;fill-opacity:1;fill-rule:nonzero;stroke:none"
           d="m 264,92 -8,0 0,8 8,0 0,-8 z" /><path
           id="path164"
           style="fill:#f2f2f2;fill-opacity:1;fill-rule:nonzero;stroke:none"
           d="m 264,84 -8,0 0,8 8,0 0,-8 z" /><path
           id="path166"
           style="fill:#737373;fill-opacity:1;fill-rule:nonzero;stroke:none"
           d="m 264,76 -8,0 0,8 8,0 0,-8 z" /></g></g></g></svg>