<?xml version="1.0" encoding="UTF-8" standalone="no"?>
<svg
   xmlns:dc="http://purl.org/dc/elements/1.1/"
   xmlns:cc="http://creativecommons.org/ns#"
   xmlns:rdf="http://www.w3.org/1999/02/22-rdf-syntax-ns#"
   xmlns:svg="http://www.w3.org/2000/svg"
   xmlns="http://www.w3.org/2000/svg"
   viewBox="0 0 320 320"
   height="320"
   width="320"
   xml:space="preserve"
   version="1.1"
   id="svg2"><metadata
     id="metadata8"><rdf:RDF><cc:Work
         rdf:about=""><dc:format>image/svg+xml</dc:format><dc:type
           rdf:resource="http://purl.org/dc/dcmitype/StillImage" /></cc:Work></rdf:RDF></metadata><defs
     id="defs6"><clipPath
       id="clipPath16"
       clipPathUnits="userSpaceOnUse"><path
         id="path18"
         d="M 0,256 256,256 256,0 0,0 0,256 Z" /></clipPath><clipPath
       id="clipPath24"
       clipPathUnits="userSpaceOnUse"><path
         id="path26"
         d="M 4,252 252,252 252,4 4,4 4,252 Z" /></clipPath><clipPath
       id="clipPath138"
       clipPathUnits="userSpaceOnUse"><path
         id="path140"
         d="m 102.911,58.63 c -1.027,-0.945 -1.63,-1.894 -1.809,-2.846 l 0,0 c -0.238,-0.953 -0.238,-2.143 0,-3.572 l 0,0 1.697,-5 c 1.071,-2.396 1.547,-4.23 1.428,-5.502 l 0,0 c -0.119,-1.273 -1.101,-2.832 -2.946,-4.677 l 0,0 c -0.03,-0.209 0.089,-0.298 0.357,-0.268 l 0,0 c 2.009,0.759 3.586,1.86 4.732,3.304 l 0,0 c 1.414,2.307 1.533,4.687 0.357,7.143 l 0,0 -2.142,5.714 -0.358,1.429 c -0.237,1.19 -0.119,2.262 0.358,3.214 l 0,0 c 0.476,0.953 1.295,1.801 2.455,2.545 l 0,0 c 0.029,0.208 -0.06,0.313 -0.268,0.313 l 0,0 c -1.548,-0.253 -2.835,-0.852 -3.861,-1.797" /></clipPath><linearGradient
       id="linearGradient146"
       spreadMethod="pad"
       gradientTransform="matrix(9.1323996,-16.475285,-16.475285,-9.1323996,99.516975,56.964649)"
       gradientUnits="userSpaceOnUse"
       y2="0"
       x2="1"
       y1="0"
       x1="0"><stop
         id="stop148"
         offset="0"
         style="stop-opacity:1;stop-color:#354f9f" /><stop
         id="stop150"
         offset="1"
         style="stop-opacity:1;stop-color:#58595b" /></linearGradient><clipPath
       id="clipPath158"
       clipPathUnits="userSpaceOnUse"><path
         id="path160"
         d="M 0,256 256,256 256,0 0,0 0,256 Z" /></clipPath></defs><g
     transform="matrix(1.25,0,0,-1.25,0,320)"
     id="g10"><g
       id="g12"><g
         clip-path="url(#clipPath16)"
         id="g14"><g
           id="g20"><g
             id="g22" /><g
             id="g28"><g
               style="opacity:0.5"
               id="g30"
               clip-path="url(#clipPath24)"><g
                 id="g32"
                 transform="translate(128,108)"><path
                   id="path34"
                   style="fill:#ffffff;fill-opacity:1;fill-rule:nonzero;stroke:none"
                   d="m 0,0 c -11.046,0 -20,8.954 -20,20 0,11.046 8.954,20 20,20 C 11.046,40 20,31.046 20,20 20,8.954 11.046,0 0,0 M 87.676,107.682 C 64.254,131.102 33.116,144 0,144 -33.124,144 -64.264,131.102 -87.683,107.681 -111.103,84.262 -124,53.122 -124,20 c 0,-33.122 12.897,-64.262 36.317,-87.681 C -64.264,-91.102 -33.124,-104 0,-104 c 33.116,0 64.254,12.898 87.676,36.318 C 111.1,-44.26 124,-13.12 124,20 c 0,33.12 -12.9,64.26 -36.324,87.682" /></g></g></g></g><g
           transform="translate(127.9999,85.9977)"
           id="g36"><path
             id="path38"
             style="fill:#bfbfbf;fill-opacity:1;fill-rule:nonzero;stroke:none"
             d="m 0,0 c -23.164,0 -42.002,18.843 -42.002,42.002 0,23.16 18.838,42.003 42.002,42.003 23.159,0 41.998,-18.843 41.998,-42.003 C 41.998,18.843 23.159,0 0,0 m 0,158.002 c -64.071,0 -116,-51.934 -116,-116 0,-64.066 51.929,-116 116,-116 64.051,0 116,51.934 116,116 0,64.066 -51.949,116 -116,116" /></g><g
           transform="translate(128.0022,114.2243)"
           id="g40"><path
             id="path42"
             style="fill:#e6e6e6;fill-opacity:1;fill-rule:nonzero;stroke:none"
             d="m 0,0 c -7.596,0 -13.786,6.176 -13.786,13.776 0,7.604 6.19,13.785 13.786,13.785 7.6,0 13.777,-6.181 13.777,-13.785 C 13.777,6.176 7.6,0 0,0 m 0.001,55.776 c -23.159,0 -42.003,-18.856 -42.003,-42 0,-23.145 18.844,-42 42.003,-42 23.134,0 41.997,18.855 41.997,42 0,23.144 -18.863,42 -41.997,42" /></g><g
           transform="translate(29.584,67.6167)"
           id="g44"><path
             id="path46"
             style="fill:#333333;fill-opacity:1;fill-rule:nonzero;stroke:none"
             d="m 0,0 196.83,0 c 3.533,5.652 6.588,11.629 9.119,17.878 l -215.066,0 C -6.587,11.629 -3.533,5.652 0,0" /></g><g
           transform="translate(57.543,71.8537)"
           id="g48"><path
             id="path50"
             style="fill:#bfbfbf;fill-opacity:1;fill-rule:nonzero;stroke:none"
             d="m 0,0 -1.297,0 -1.622,3.243 0,-3.243 -1.297,0 0,4.54 1.946,0 L 0,0 Z M 0,6.324 C 0,5.92 -0.142,5.576 -0.427,5.291 -0.712,5.007 -1.002,4.864 -1.297,4.864 l -3.243,0 0,-4.864 -1.297,0 0,6.161 4.216,0 c 0.216,0 0.324,0.055 0.324,0.163 0,0.108 -0.108,0.162 -0.324,0.162 l -4.216,0 0,1.297 4.54,0 c 0.295,0 0.585,-0.144 0.87,-0.432 C -0.142,7.062 0,6.72 0,6.324 m 1.621,0 C 1.621,5.473 1.403,4.83 0.967,4.394 0.531,3.958 0.162,3.664 -0.141,3.513 L 1.621,0 0.324,0 l -2.27,4.54 0.649,0 c 0.382,0 0.748,0.175 1.097,0.524 0.35,0.35 0.524,0.77 0.524,1.26 0,0.482 -0.174,0.9 -0.524,1.254 -0.349,0.353 -0.715,0.529 -1.097,0.529 l -4.54,0 0,1.297 4.54,0 c 0.742,0 1.414,-0.302 2.016,-0.908 C 1.321,7.891 1.621,7.167 1.621,6.324" /></g><g
           transform="translate(59.813,78.3395)"
           id="g52"><path
             id="path54"
             style="fill:#bfbfbf;fill-opacity:1;fill-rule:nonzero;stroke:none"
             d="m 0,0 c 0,1.946 0.973,2.919 2.919,2.919 l 3.891,0 0,-1.298 -3.891,0 C 1.838,1.621 1.297,1.081 1.297,0 l 0,-3.567 c 0,-1.081 0.541,-1.622 1.622,-1.622 l 3.891,0 0,-1.297 -3.891,0 C 0.973,-6.486 0,-5.513 0,-3.567 L 0,0 Z" /></g><g
           transform="translate(61.4344,76.7181)"
           id="g56"><path
             id="path58"
             style="fill:#bfbfbf;fill-opacity:1;fill-rule:nonzero;stroke:none"
             d="m 0,0 0,1.621 c 0,0.865 0.432,1.298 1.297,1.298 l 3.892,0 0,-1.298 -3.568,0 C 1.405,1.621 1.297,1.513 1.297,1.297 l 2.919,0 L 4.216,0 0,0 Z" /></g><g
           transform="translate(61.4344,76.3938)"
           id="g60"><path
             id="path62"
             style="fill:#bfbfbf;fill-opacity:1;fill-rule:nonzero;stroke:none"
             d="m 0,0 4.216,0 0,-1.297 -2.919,0 c 0,-0.216 0.108,-0.324 0.324,-0.324 l 3.568,0 0,-1.298 -3.892,0 C 0.432,-2.919 0,-2.486 0,-1.621 L 0,0 Z" /></g><g
           transform="translate(71.1631,79.6367)"
           id="g64"><path
             id="path66"
             style="fill:#bfbfbf;fill-opacity:1;fill-rule:nonzero;stroke:none"
             d="m 0,0 3.567,0 0,-1.297 -2.27,0 0,-6.486 L 0,-7.783 0,0 Z m -0.324,0 0,-7.783 -1.297,0 0,6.486 -2.27,0 0,1.297 3.567,0 z m 3.891,0.324 -7.459,0 0,1.297 7.459,0 0,-1.297 z" /></g><g
           transform="translate(81.216,71.8537)"
           id="g68"><path
             id="path70"
             style="fill:#bfbfbf;fill-opacity:1;fill-rule:nonzero;stroke:none"
             d="m 0,0 -1.297,0 -1.622,3.243 0,-3.243 -1.297,0 0,4.54 1.946,0 L 0,0 Z M 0,6.324 C 0,5.92 -0.142,5.576 -0.427,5.291 -0.712,5.007 -1.002,4.864 -1.297,4.864 l -3.243,0 0,-4.864 -1.297,0 0,6.161 4.216,0 c 0.216,0 0.324,0.055 0.324,0.163 0,0.108 -0.108,0.162 -0.324,0.162 l -4.216,0 0,1.297 4.54,0 c 0.295,0 0.585,-0.144 0.87,-0.432 C -0.142,7.062 0,6.72 0,6.324 m 1.621,0 C 1.621,5.473 1.403,4.83 0.967,4.394 0.531,3.958 0.162,3.664 -0.141,3.513 L 1.621,0 0.324,0 l -2.27,4.54 0.649,0 c 0.382,0 0.748,0.175 1.097,0.524 0.35,0.35 0.524,0.77 0.524,1.26 0,0.482 -0.174,0.9 -0.524,1.254 -0.349,0.353 -0.715,0.529 -1.097,0.529 l -4.54,0 0,1.297 4.54,0 c 0.742,0 1.414,-0.302 2.016,-0.908 C 1.321,7.891 1.621,7.167 1.621,6.324" /></g><g
           transform="translate(87.7018,78.0152)"
           id="g72"><path
             id="path74"
             style="fill:#bfbfbf;fill-opacity:1;fill-rule:nonzero;stroke:none"
             d="m 0,0 c 0,0.216 -0.108,0.324 -0.324,0.324 l -0.649,0 C -1.189,0.324 -1.297,0.216 -1.297,0 l 0,-2.919 c 0,-0.216 0.108,-0.324 0.324,-0.324 l 0.649,0 C -0.108,-3.243 0,-3.135 0,-2.919 L 0,0 Z m 1.297,0.324 0,-3.567 C 1.297,-4.108 0.865,-4.54 0,-4.54 l -1.297,0 c -0.865,0 -1.297,0.432 -1.297,1.297 l 0,3.567 c 0,0.865 0.432,1.297 1.297,1.297 l 1.297,0 c 0.865,0 1.297,-0.432 1.297,-1.297 m 0.324,0 C 1.621,1.405 1.081,1.946 0,1.946 l -1.297,0 c -1.081,0 -1.622,-0.541 -1.622,-1.622 l 0,-3.567 c 0,-1.081 0.541,-1.621 1.622,-1.621 l 1.297,0 c 1.081,0 1.621,0.54 1.621,1.621 l 0,3.567 z m 1.298,0 0,-3.567 C 2.919,-5.189 1.946,-6.161 0,-6.161 l -1.297,0 c -1.946,0 -2.919,0.972 -2.919,2.918 l 0,3.567 c 0,1.946 0.973,2.919 2.919,2.919 l 1.297,0 c 1.946,0 2.919,-0.973 2.919,-2.919" /></g><g
           transform="translate(33.9888,74.0344)"
           id="g76"><path
             id="path78"
             style="fill:#bfbfbf;fill-opacity:1;fill-rule:nonzero;stroke:none"
             d="M 0,0 C -0.01,0.028 -0.017,0.06 -0.026,0.089 L 0,0.089 0,0 Z m 1.827,0.738 c -0.216,0 -0.324,0.108 -0.324,0.324 l 0,6.162 -2.919,0 0,-6.486 c 0,-1.946 0.973,-2.919 2.919,-2.919 l 3.891,0 0,2.919 -3.567,0 z" /></g><path
           id="path80"
           style="fill:#bfbfbf;fill-opacity:1;fill-rule:nonzero;stroke:none"
           d="m 40.031,71.854 2.919,0 0,9.404 -2.919,0 0,-9.404 z" /><g
           transform="translate(47.8143,78.0152)"
           id="g82"><path
             id="path84"
             style="fill:#bfbfbf;fill-opacity:1;fill-rule:nonzero;stroke:none"
             d="m 0,0 -1.297,0 0,0.324 1.297,0 C 0.216,0.324 0.324,0.27 0.324,0.162 0.324,0.054 0.216,0 0,0 m 0,-3.243 -1.297,0 0,0.324 1.297,0 c 0.216,0 0.324,-0.054 0.324,-0.162 C 0.324,-3.189 0.216,-3.243 0,-3.243 M 3.243,0.162 C 3.243,1.005 2.942,1.73 2.34,2.335 1.739,2.94 1.067,3.243 0.324,3.243 l -4.54,0 0,-9.404 4.54,0 c 0.743,0 1.415,0.302 2.016,0.908 0.602,0.605 0.903,1.329 0.903,2.172 0,0.613 -0.148,1.15 -0.443,1.611 0.295,0.461 0.443,1.005 0.443,1.632" /></g><g
           transform="translate(196.9294,70.3968)"
           id="g86"><path
             id="path88"
             style="fill:#bfbfbf;fill-opacity:1;fill-rule:nonzero;stroke:none"
             d="m 0,0 -4.431,0.005 c -0.641,0 -1.16,0.52 -1.16,1.161 l 0,6.744 c 0,0.641 0.519,1.161 1.16,1.161 l 2.773,0.003 c 0.333,0 0.603,0.27 0.603,0.603 l 0.008,2.696 c 0,0.14 0.114,0.253 0.253,0.253 l 1.626,0 c 0.139,0 0.253,-0.113 0.253,-0.253 L 1.101,0.252 c 0,-0.14 -0.113,-0.253 -0.252,-0.253 L 0,0 l -0.021,-0.602 1.109,0 c 0.333,0 0.603,0.27 0.603,0.603 l 0,12.63 c 0,0.333 -0.27,0.603 -0.603,0.603 l -2.133,0 c -0.333,0 -0.603,-0.27 -0.603,-0.603 l 0.003,-2.703 c 0,-0.14 -0.113,-0.253 -0.252,-0.253 L -4.431,9.679 C -5.408,9.679 -6.2,8.887 -6.2,7.91 l 0,-6.744 c 0,-0.977 0.792,-1.77 1.769,-1.77 l 4.41,0.002 L 0,0 Z" /></g><g
           transform="translate(195.2818,72.8792)"
           id="g90"><path
             id="path92"
             style="fill:#bfbfbf;fill-opacity:1;fill-rule:nonzero;stroke:none"
             d="m 0,0 0,4.363 c 0,0.366 -0.296,0.662 -0.662,0.662 -0.366,0 -0.662,-0.296 -0.662,-0.662 l 0,-4.71 c 0,-0.365 0.296,-0.662 0.662,-0.662 0.366,0 0.662,0.297 0.662,0.662 L 0,0 l 0.602,-0.021 0,-0.326 c 0,-0.698 -0.566,-1.264 -1.264,-1.264 -0.698,0 -1.264,0.566 -1.264,1.264 l 0,4.71 c 0,0.698 0.566,1.264 1.264,1.264 0.698,0 1.264,-0.566 1.264,-1.264 l 0,-4.384 L 0,0 Z" /></g><g
           transform="translate(188.1926,76.1044)"
           id="g94"><path
             id="path96"
             style="fill:#bfbfbf;fill-opacity:1;fill-rule:nonzero;stroke:none"
             d="M 0,0 0.767,0 C 0.907,0 1.02,0.113 1.02,0.253 L 1.017,2.202 c 0,0.641 -0.52,1.161 -1.161,1.161 l -3.837,0 c -0.641,0 -1.161,-0.52 -1.161,-1.161 l 0,-6.744 c 0,-0.641 0.52,-1.16 1.161,-1.16 l 3.837,0 c 0.641,0 1.161,0.519 1.161,1.16 l 0.003,1.854 c 0,0.14 -0.113,0.253 -0.253,0.253 l -1.448,0 c -0.139,0 -0.252,-0.113 -0.252,-0.253 l 0.008,-0.884 c 0,-0.698 -0.44,-1.264 -1.138,-1.264 -0.698,0 -1.137,0.566 -1.137,1.264 l 0,4.71 c 0,0.698 0.439,1.264 1.137,1.264 0.698,0 1.138,-0.566 1.138,-1.264 L -0.933,0.253 C -0.933,0.113 -0.82,0 -0.681,0 L 0,0 l -0.021,-0.608 -0.91,0 c -0.333,0 -0.603,0.27 -0.603,0.603 l 0.007,1.143 c 0,0.365 -0.17,0.662 -0.536,0.662 -0.365,0 -0.536,-0.297 -0.536,-0.662 l 0,-4.71 c 0,-0.365 0.171,-0.662 0.536,-0.662 0.366,0 0.536,0.296 0.536,0.662 l -0.007,1.141 c 0,0.333 0.27,0.604 0.603,0.604 l 1.954,0 c 0.334,0 0.603,-0.271 0.603,-0.604 L 1.625,-4.542 c 0,-0.977 -0.792,-1.769 -1.769,-1.769 l -3.837,0 c -0.978,0 -1.77,0.792 -1.77,1.769 l 0,6.744 c 0,0.978 0.792,1.77 1.77,1.77 l 3.837,0 c 0.977,0 1.769,-0.792 1.769,-1.77 l 10e-4,-2.207 c 0,-0.333 -0.27,-0.603 -0.603,-0.603 l -1.044,0 L 0,0 Z" /></g><g
           transform="translate(213.7164,144.2086)"
           id="g98"><path
             id="path100"
             style="fill:#354f9f;fill-opacity:1;fill-rule:nonzero;stroke:none"
             d="m 0,0 c -0.104,-0.214 -0.22,-0.421 -0.383,-0.598 -0.167,-0.029 -0.333,-0.071 -0.501,-0.084 -2.17,-0.167 -4.306,-0.528 -6.391,-1.15 -0.701,-0.209 -1.429,-0.365 -2.068,-0.753 -0.466,0.644 -0.835,1.346 -1.217,2.04 1.658,0.512 3.352,0.85 5.073,1.076 1.441,0.191 2.885,0.268 4.336,0.255 C -0.336,0.778 -0.294,0.755 0,0" /></g><g
           transform="translate(222.9728,131.7288)"
           id="g102"><path
             id="path104"
             style="fill:#354f9f;fill-opacity:1;fill-rule:nonzero;stroke:none"
             d="m 0,0 c -3.729,0 -6.763,-3.034 -6.763,-6.763 0,-3.73 3.034,-6.764 6.763,-6.764 3.729,0 6.764,3.034 6.764,6.764 C 6.764,-3.034 3.729,0 0,0" /></g><g
           transform="translate(195.146,116.4376)"
           id="g106"><path
             id="path108"
             style="fill:#354f9f;fill-opacity:1;fill-rule:nonzero;stroke:none"
             d="m 0,0 c -0.984,0.333 -1.988,0.604 -2.926,1.067 -2.357,1.164 -4.132,2.845 -4.819,5.467 -0.577,2.199 -0.23,4.333 0.592,6.405 1.265,3.187 3.418,5.705 6.019,7.876 0.164,0.137 0.321,0.282 0.481,0.423 0.048,-0.073 0.096,-0.146 0.143,-0.219 -0.623,-0.547 -1.192,-1.147 -1.732,-1.775 -1.609,-1.87 -2.902,-3.92 -3.551,-6.327 -0.504,-1.866 -0.545,-3.727 0.259,-5.526 1.049,-2.35 2.995,-3.625 5.366,-4.364 1.785,-0.566 3.62,-0.774 5.486,-0.766 2.071,-0.043 4.135,0.097 6.189,0.328 2.562,0.287 5.084,0.823 7.594,1.41 0.637,0.149 1.285,0.267 1.943,0.289 C 21.55,4.306 21.939,4.075 22.032,3.707 22.148,3.246 21.864,2.988 21.527,2.767 21.408,2.689 21.283,2.619 21.156,2.555 20.613,2.277 20.068,2.003 19.523,1.728 18.14,1.211 16.748,0.722 15.309,0.371 14.27,0.119 13.22,-0.066 12.172,-0.27 11.453,-0.351 10.734,-0.441 10.014,-0.51 8.765,-0.63 7.512,-0.678 6.258,-0.691 4.98,-0.634 3.699,-0.616 2.432,-0.423 1.618,-0.3 0.81,-0.142 0,0" /></g><g
           transform="translate(212.3671,115.7555)"
           id="g110"><path
             id="path112"
             style="fill:#333333;fill-opacity:1;fill-rule:nonzero;stroke:none"
             d="M 0,0 C 0.547,0.194 1.096,0.383 1.641,0.584 1.894,0.677 1.886,0.532 1.885,0.357 1.881,-0.3 1.884,-0.956 1.884,-1.613 c 0,-1.298 -0.007,-2.597 0.005,-3.896 0.003,-0.274 -0.035,-0.398 -0.36,-0.397 -3.868,0.011 -7.736,0.007 -11.604,0.008 -0.165,0 -0.355,-0.049 -0.349,0.231 0.026,1.397 -0.045,2.795 0.038,4.192 0.15,0.009 0.3,0.018 0.45,0.028 0.463,-0.007 0.926,-0.015 1.388,-0.022 -10e-4,-0.726 0.012,-1.453 -0.01,-2.179 -0.009,-0.302 0.087,-0.383 0.384,-0.381 2.607,0.01 5.214,0.009 7.82,0 0.273,-0.001 0.368,0.067 0.364,0.354 C -0.006,-2.45 0.001,-1.225 0,0" /></g><g
           transform="translate(212.3671,115.7555)"
           id="g114"><path
             id="path116"
             style="fill:#354f9f;fill-opacity:1;fill-rule:nonzero;stroke:none"
             d="m 0,0 c 0.001,-1.225 -0.006,-2.45 0.01,-3.675 0.004,-0.287 -0.091,-0.355 -0.364,-0.354 -2.606,0.009 -5.213,0.01 -7.82,0 -0.297,-0.002 -0.393,0.079 -0.384,0.381 0.022,0.726 0.009,1.453 0.01,2.179 0.621,0.062 1.242,0.122 1.863,0.186 1.24,0.129 2.476,0.289 3.69,0.582 0.122,0.019 0.251,0.003 0.358,0.083 l 0.034,-0.011 0.024,0.03 c 0.247,-0.01 0.472,0.089 0.707,0.137 0.024,0.011 0.049,0.021 0.074,0.031 C -1.199,-0.287 -0.599,-0.144 0,0" /></g><g
           transform="translate(210.569,115.3248)"
           id="g118"><path
             id="path120"
             style="fill:#f1dcd7;fill-opacity:1;fill-rule:nonzero;stroke:none"
             d="M 0,0 C -0.025,-0.01 -0.05,-0.021 -0.074,-0.031 -0.049,-0.021 -0.025,-0.01 0,0" /></g><g
           transform="translate(209.7883,115.1566)"
           id="g122"><path
             id="path124"
             style="fill:#f1dcd7;fill-opacity:1;fill-rule:nonzero;stroke:none"
             d="m 0,0 -0.024,-0.03 -0.034,0.011 C -0.043,0 -0.023,0.006 0,0" /></g><g
           transform="translate(189.204,144.796)"
           id="g126"><path
             id="path128"
             style="fill:#333333;fill-opacity:1;fill-rule:nonzero;stroke:none"
             d="m 0,0 c -1.003,1.358 -2.011,2.713 -3.061,4.128 l 0.439,0 c 4.369,0 8.739,-0.003 13.108,0.007 0.293,0.001 0.45,-0.09 0.594,-0.341 0.948,-1.648 6.368,-10.887 7.512,-12.845 0.165,-0.281 0.456,-0.283 0.627,-0.009 1.639,2.624 3.275,5.25 4.911,7.875 0.162,0.177 0.278,0.383 0.382,0.598 0.921,1.467 1.847,2.931 2.754,4.407 0.147,0.24 0.301,0.315 0.576,0.314 4.155,-0.009 8.31,-0.006 12.466,-0.006 l 0,-0.772 c -0.03,-0.027 -0.066,-0.051 -0.089,-0.083 -1.818,-2.46 -3.635,-4.92 -5.451,-7.381 -3.167,-4.294 -6.334,-8.588 -9.501,-12.881 -0.117,-0.158 -0.222,-0.305 -0.221,-0.529 0.012,-1.755 0.008,-3.511 0.008,-5.266 -0.61,-0.216 -1.243,-0.334 -1.882,-0.427 -0.006,0.457 -8.571,1.189 -8.57,-1.283 -0.619,-0.039 -1.236,-0.126 -1.859,-0.079 -0.007,2.355 -0.018,4.71 -0.018,7.066 0,0.241 -0.06,0.434 -0.205,0.627 -0.711,0.943 -1.409,1.897 -2.115,2.844 C 9.037,-12.199 1.471,-1.992 0,0" /></g><g
           transform="translate(203.8788,127.5582)"
           id="g130"><path
             id="path132"
             style="fill:#354f9f;fill-opacity:1;fill-rule:nonzero;stroke:none"
             d="M 0,0 C 0,-0.016 0,-0.032 0.001,-0.049 0,-0.032 0,-0.016 0,0 m 0.011,0.293 c 0,0.018 0,0.035 -10e-4,0.052 C 0.011,0.328 0.011,0.311 0.011,0.293 m -0.002,-0.438 0,0 C 0.011,-1.001 0.012,-1.857 0.013,-2.712 0.012,-1.857 0.011,-1.001 0.009,-0.145 M 22.302,19.47 c -2.754,0.005 -5.507,0.008 -8.261,0.015 -0.145,0 -0.237,-0.05 -0.311,-0.174 C 13.388,18.736 5.792,6.638 5.756,6.549 5.607,6.182 5.346,6.065 4.957,6.102 4.59,6.137 4.211,6.152 3.848,6.101 3.217,6.012 2.753,6.173 2.515,6.801 c -0.384,0.62 -6.982,11.868 -7.197,12.346 -0.126,0.278 -0.317,0.343 -0.607,0.342 -2.756,-0.01 -5.512,-0.005 -8.268,-0.009 -0.117,0 -0.251,0.055 -0.378,-0.076 C -13.262,18.498 -0.523,1.283 -0.06,0.628 -0.025,0.563 -0.006,0.495 0.003,0.427 -0.006,0.495 -0.025,0.563 -0.06,0.628 -0.065,0.472 -0.075,0.315 -0.075,0.159 c 0,-2.472 0.001,-4.944 0.002,-7.416 0.198,0.006 0.397,0.005 0.595,0.019 1.646,0.122 3.283,0.334 4.908,0.605 1.028,0.171 2.063,0.358 3.068,0.66 -0.007,0.457 -0.02,5.028 -0.02,5.914 -0.067,0.484 0.146,0.859 0.437,1.222 0.28,0.348 13.152,17.824 13.468,18.256 -0.059,0.038 -0.07,0.051 -0.081,0.051" /></g></g></g><g
       id="g134"><g
         clip-path="url(#clipPath138)"
         id="g136"><g
           id="g142"><g
             id="g144"><path
               id="path152"
               style="fill:url(#linearGradient146);stroke:none"
               d="m 102.911,58.63 c -1.027,-0.945 -1.63,-1.894 -1.809,-2.846 l 0,0 c -0.238,-0.953 -0.238,-2.143 0,-3.572 l 0,0 1.697,-5 c 1.071,-2.396 1.547,-4.23 1.428,-5.502 l 0,0 c -0.119,-1.273 -1.101,-2.832 -2.946,-4.677 l 0,0 c -0.03,-0.209 0.089,-0.298 0.357,-0.268 l 0,0 c 2.009,0.759 3.586,1.86 4.732,3.304 l 0,0 c 1.414,2.307 1.533,4.687 0.357,7.143 l 0,0 -2.142,5.714 -0.358,1.429 c -0.237,1.19 -0.119,2.262 0.358,3.214 l 0,0 c 0.476,0.953 1.295,1.801 2.455,2.545 l 0,0 c 0.029,0.208 -0.06,0.313 -0.268,0.313 l 0,0 c -1.548,-0.253 -2.835,-0.852 -3.861,-1.797" /></g></g></g></g><g
       id="g154"><g
         clip-path="url(#clipPath158)"
         id="g156"><g
           transform="translate(178.6452,48.8351)"
           id="g162"><path
             id="path164"
             style="fill:#333333;fill-opacity:1;fill-rule:nonzero;stroke:none"
             d="m 0,0 c 0,-1.267 0.2,-2.35 0.603,-3.255 0.403,-0.904 0.883,-1.355 1.446,-1.355 0.555,0 1.035,0.451 1.441,1.355 C 3.895,-2.35 4.098,-1.267 4.098,0 4.098,1.259 3.895,2.342 3.49,3.25 3.084,4.157 2.604,4.61 2.049,4.61 1.486,4.61 1.006,4.157 0.603,3.25 0.2,2.342 0,1.259 0,0 m -3.074,0 c 0,1.443 0.502,2.687 1.505,3.73 1.003,1.043 2.209,1.563 3.618,1.563 1.401,0 2.607,-0.52 3.612,-1.563 C 6.667,2.687 7.172,1.443 7.172,0 7.172,-1.451 6.667,-2.697 5.661,-3.735 4.656,-4.773 3.45,-5.293 2.049,-5.293 c -1.409,0 -2.615,0.52 -3.618,1.558 -1.003,1.038 -1.505,2.284 -1.505,3.735" /></g><g
           transform="translate(177.3104,43.926)"
           id="g166"><path
             id="path168"
             style="fill:#333333;fill-opacity:1;fill-rule:nonzero;stroke:none"
             d="m 0,0 -0.491,0.192 c -1.379,0.755 -2.425,1.785 -3.137,3.095 -0.371,0.584 -0.611,0.91 -0.726,0.982 -0.115,0.072 -0.2,0.157 -0.256,0.256 0.84,-0.056 1.526,0.173 2.059,0.694 0.534,0.52 0.801,1.155 0.801,1.91 0,0.747 -0.28,1.39 -0.838,1.926 -0.558,0.536 -1.518,0.806 -2.876,0.806 l -6.494,0 -0.165,0 -19.165,0 c -0.227,-0.056 -0.342,-0.128 -0.342,-0.214 0,-0.085 0.072,-0.162 0.214,-0.234 0.541,-0.158 0.811,-0.691 0.811,-1.601 l 0,-6.83 c 0,-0.113 -0.068,-0.217 -0.201,-0.312 -1.035,0.701 -1.903,1.541 -2.488,2.617 -0.371,0.584 -0.611,0.91 -0.726,0.982 -0.115,0.072 -0.2,0.157 -0.256,0.256 0.84,-0.056 1.526,0.173 2.059,0.694 0.534,0.52 0.801,1.155 0.801,1.91 0,0.747 -0.28,1.39 -0.838,1.926 -0.558,0.536 -1.518,0.806 -2.876,0.806 l -6.126,0 -0.533,0 -3.01,0 c -0.227,-0.2 -0.227,-0.371 0,-0.512 0.683,-0.115 1.025,-0.398 1.025,-0.854 l 0,-4.632 c -0.008,-1.208 -0.238,-2.027 -0.689,-2.454 -0.45,-0.427 -1.005,-0.641 -1.659,-0.641 -0.662,0 -1.225,0.214 -1.692,0.641 -0.466,0.427 -0.712,0.968 -0.741,1.622 l 0,5.464 c 0,0.456 0.341,0.739 1.024,0.854 0.256,0.141 0.256,0.312 0,0.512 l -4.397,0 -0.555,0 -8.665,0 c -0.227,0 -0.392,-0.072 -0.491,-0.214 l -0.875,-1.323 c 0.029,-0.2 0.256,-0.184 0.683,0.043 0.683,0.384 1.707,0.653 3.073,0.811 l 0.683,0 0,-7.769 c 0,-0.457 -0.341,-0.798 -1.024,-1.025 -0.019,-0.006 -0.012,-0.018 -0.028,-0.025 -0.019,0.007 -0.014,0.019 -0.036,0.025 -0.499,0.299 -0.819,0.611 -0.961,0.939 l -3.991,8.901 c -0.128,0.098 -0.248,0.149 -0.363,0.149 -0.114,0 -0.221,-0.051 -0.32,-0.149 L -69.6,1.195 c -0.243,-0.384 -0.555,-0.661 -0.939,-0.832 -0.142,-0.099 -0.115,-0.235 0.085,-0.406 l 4.525,0 c 0.2,0.171 0.171,0.312 -0.085,0.427 -0.457,0.286 -0.641,0.512 -0.555,0.683 l 0.021,0.214 2.753,5.079 2.199,-4.951 c 0.072,-0.243 0.056,-0.435 -0.043,-0.577 -0.099,-0.141 -0.307,-0.277 -0.619,-0.405 -0.427,-0.142 -0.483,-0.299 -0.171,-0.47 l 3.33,0 0.043,0 5.079,0 c 0.257,0.2 0.257,0.342 0,0.427 -0.683,0.227 -1.024,0.568 -1.024,1.025 l 0,7.769 0.683,0 c 1.252,-0.144 2.182,-0.395 2.86,-0.73 l 0,-5.417 c 0.021,-0.931 0.44,-1.713 1.254,-2.343 0.814,-0.629 1.948,-0.957 3.399,-0.987 1.31,0 2.348,0.331 3.116,0.993 0.768,0.661 1.139,1.334 1.11,2.017 l 0,5.784 c 0,0.38 0.344,0.622 0.995,0.745 0.63,-0.128 0.99,-0.468 0.99,-1.087 l 0,-6.744 c 0,-0.457 -0.342,-0.769 -1.025,-0.939 -0.256,-0.086 -0.256,-0.257 0,-0.513 l 5.123,0 c 0.256,0.256 0.256,0.427 0,0.513 -0.683,0.17 -1.025,0.482 -1.025,0.939 l 0,7.086 c 0,0.213 0.075,0.403 0.225,0.565 0.328,0.214 0.707,0.297 1.141,0.246 0.513,0 0.953,-0.174 1.324,-0.523 0.371,-0.35 0.555,-0.899 0.555,-1.654 0,-0.563 -0.206,-1.038 -0.619,-1.425 -0.414,-0.387 -0.833,-0.539 -1.26,-0.453 l -0.49,0.085 c -0.286,0.184 -0.377,0.035 -0.278,-0.448 0.171,-1.011 0.483,-1.857 0.939,-2.54 1.776,-2.107 4.014,-2.357 4.68,-2.385 0.007,-0.002 0.009,-0.004 0.016,-0.006 l 0.197,0 1.446,0 7.15,0 c 0.227,0 0.377,0.064 0.449,0.192 0.611,0.867 0.99,1.892 1.131,3.074 0,0.184 -0.072,0.2 -0.214,0.043 -0.541,-0.47 -0.939,-0.835 -1.195,-1.1 -0.256,-0.264 -0.672,-0.544 -1.248,-0.843 -0.577,-0.299 -1.326,-0.483 -2.252,-0.555 l -0.683,0 c -0.91,0 -1.366,0.299 -1.366,0.897 l 0,2.903 c 0.115,0.114 0.256,0.178 0.427,0.192 0.17,0.013 0.547,-0.086 1.131,-0.299 0.584,-0.214 1.203,-0.619 1.857,-1.217 0.227,0 0.341,0.115 0.341,0.342 l 0,2.988 c 0,0.227 -0.114,0.341 -0.341,0.341 -0.654,-0.597 -1.273,-1.003 -1.857,-1.216 -0.584,-0.214 -0.961,-0.312 -1.131,-0.299 -0.171,0.013 -0.312,0.077 -0.427,0.192 l 0,2.561 c 0,0.683 0.456,1.025 1.366,1.025 l 0.683,0 c 0.926,-0.072 1.675,-0.243 2.252,-0.512 0.576,-0.27 0.992,-0.537 1.248,-0.801 0.256,-0.264 0.611,-0.651 1.067,-1.163 0.142,-0.171 0.214,-0.171 0.214,0 -0.08,0.674 -0.238,1.266 -0.441,1.809 0.668,0.299 1.532,0.533 2.696,0.667 l 0.683,0 0,-7.769 c 0,-0.457 -0.341,-0.798 -1.024,-1.025 -0.256,-0.085 -0.256,-0.227 0,-0.427 l 5.122,0 c 0.256,0.2 0.256,0.342 0,0.427 -0.683,0.227 -1.024,0.568 -1.024,1.025 l 0,7.769 0.683,0 c 1.366,-0.158 2.39,-0.427 3.073,-0.811 0.136,-0.072 0.216,-0.086 0.312,-0.115 0.002,-0.04 0.035,-0.057 0.035,-0.099 l 0,-6.744 c 0,-0.457 -0.342,-0.769 -1.025,-0.939 -0.256,-0.086 -0.256,-0.257 0,-0.513 l 5.123,0 c 0.256,0.256 0.256,0.427 0,0.513 -0.683,0.17 -1.025,0.482 -1.025,0.939 l 0,7.086 c 0,0.213 0.075,0.403 0.225,0.565 0.328,0.214 0.707,0.297 1.141,0.246 0.513,0 0.953,-0.174 1.324,-0.523 0.371,-0.35 0.555,-0.899 0.555,-1.654 0,-0.563 -0.206,-1.038 -0.619,-1.425 -0.414,-0.387 -0.833,-0.539 -1.26,-0.453 l -0.49,0.085 c -0.286,0.184 -0.377,0.035 -0.278,-0.448 0.171,-1.011 0.483,-1.857 0.939,-2.54 0.542,-0.953 1.238,-1.652 2.092,-2.092 0.854,-0.44 2.057,-0.747 3.607,-0.918 l 0.448,0 c 0.227,0.099 0.342,0.206 0.342,0.32 C 0.171,-0.227 0.115,-0.115 0,0" /></g><g
           transform="translate(75.1957,43.9477)"
           id="g170"><path
             id="path172"
             style="fill:#354f9f;fill-opacity:1;fill-rule:nonzero;stroke:none"
             d="M 0,0 C 2.061,-4.976 7.766,-7.339 12.741,-5.278 17.717,-3.217 20.08,2.488 18.019,7.464 15.958,12.44 10.253,14.802 5.278,12.741 0.302,10.68 -2.061,4.976 0,0" /></g><g
           transform="translate(70.3299,39.0441)"
           id="g174"><path
             id="path176"
             style="fill:#333333;fill-opacity:1;fill-rule:nonzero;stroke:none"
             d="M 0,0 C 0.465,-1.124 1.773,-1.689 3.927,-1.695 5.949,-1.7 8.082,-1.279 10.317,-0.463 8.895,0.093 7.608,0.985 6.572,2.15 6.465,2.384 6.469,2.702 6.469,2.702 L 6.475,2.701 C 6.439,2.85 6.555,3.166 6.83,3.659 7.12,4.18 8.135,4.8 9.866,5.517 l 9.096,3.768 c 1.691,0.7 3.122,1.388 4.315,2.064 -0.001,0.004 -0.003,0.008 -0.004,0.012 1.373,0.783 2.426,1.549 3.129,2.298 1.315,1.402 1.741,2.666 1.275,3.789 -0.46,1.111 -1.742,1.617 -3.852,1.516 -2.056,-0.098 -4.185,-0.531 -6.384,-1.285 1.383,-0.547 2.635,-1.414 3.654,-2.539 0.066,-0.17 0.16,-0.413 0.16,-0.413 0.227,-0.67 0.05,-1.193 -0.572,-1.558 -0.665,-0.391 -1.813,-0.906 -3.446,-1.558 L 7.573,7.608 C 6.405,7.136 5.38,6.616 4.453,6.064 c 0,-0.001 0,-0.002 10e-4,-0.003 C 3.272,5.357 2.265,4.596 1.476,3.763 0.07,2.278 -0.423,1.022 0,0" /></g></g></g></g></svg>