<?xml version="1.0" encoding="UTF-8" standalone="no"?>
<svg
   xmlns:dc="http://purl.org/dc/elements/1.1/"
   xmlns:cc="http://creativecommons.org/ns#"
   xmlns:rdf="http://www.w3.org/1999/02/22-rdf-syntax-ns#"
   xmlns:svg="http://www.w3.org/2000/svg"
   xmlns="http://www.w3.org/2000/svg"
   viewBox="0 0 320 320"
   height="320"
   width="320"
   xml:space="preserve"
   version="1.1"
   id="svg2"><metadata
     id="metadata8"><rdf:RDF><cc:Work
         rdf:about=""><dc:format>image/svg+xml</dc:format><dc:type
           rdf:resource="http://purl.org/dc/dcmitype/StillImage" /></cc:Work></rdf:RDF></metadata><defs
     id="defs6"><clipPath
       id="clipPath16"
       clipPathUnits="userSpaceOnUse"><path
         id="path18"
         d="M 0,256 256,256 256,0 0,0 0,256 Z" /></clipPath><clipPath
       id="clipPath24"
       clipPathUnits="userSpaceOnUse"><path
         id="path26"
         d="M 4,184 252,184 252,72 4,72 4,184 Z" /></clipPath></defs><g
     transform="matrix(1.25,0,0,-1.25,0,320)"
     id="g10"><g
       id="g12"><g
         clip-path="url(#clipPath16)"
         id="g14"><g
           id="g20"><g
             id="g22" /><g
             id="g28"><g
               style="opacity:0.5"
               id="g30"
               clip-path="url(#clipPath24)"><g
                 id="g32"
                 transform="translate(238.6581,184)"><path
                   id="path34"
                   style="fill:#ffffff;fill-opacity:1;fill-rule:nonzero;stroke:none"
                   d="m 0,0 -221.316,0 c -7.357,0 -13.342,-5.958 -13.342,-13.28 l 0,-85.44 c 0,-7.322 5.985,-13.28 13.342,-13.28 L 0,-112 c 7.357,0 13.342,5.958 13.342,13.28 l 0,85.44 C 13.342,-5.958 7.357,0 0,0" /></g></g></g></g><g
           transform="translate(238.6581,80)"
           id="g36"><path
             id="path38"
             style="fill:#191919;fill-opacity:1;fill-rule:nonzero;stroke:none"
             d="m 0,0 -221.316,0 c -2.95,0 -5.342,2.364 -5.342,5.28 l 0,85.44 c 0,2.916 2.392,5.28 5.342,5.28 L 0,96 c 2.95,0 5.342,-2.364 5.342,-5.28 l 0,-85.44 C 5.342,2.364 2.95,0 0,0" /></g><g
           transform="translate(32,172)"
           id="g40"><path
             id="path42"
             style="fill:#262626;fill-opacity:1;fill-rule:nonzero;stroke:none"
             d="m 0,0 0,-88 84,0 0,12 124,0 -0.078,48 L 84,-28 84,0 0,0 Z" /></g><path
           id="path44"
           style="fill:#4c4c4c;fill-opacity:1;fill-rule:nonzero;stroke:none"
           d="m 188,100 -32,0 0,32 32,0 0,-32 z" /><g
           transform="translate(185.5682,115.9999)"
           id="g46"><path
             id="path48"
             style="fill:#191919;fill-opacity:1;fill-rule:nonzero;stroke:none"
             d="m 0,0 c 0,-7.494 -6.075,-13.568 -13.568,-13.568 -7.494,0 -13.568,6.074 -13.568,13.568 0,7.493 6.074,13.568 13.568,13.568 C -6.075,13.568 0,7.493 0,0" /></g><g
           transform="translate(172,129.1362)"
           id="g50"><path
             id="path52"
             style="fill:#231f20;fill-opacity:1;fill-rule:nonzero;stroke:none"
             d="m 0,0 c -7.243,0 -13.136,-5.893 -13.136,-13.136 0,-7.244 5.893,-13.136 13.136,-13.136 7.243,0 13.136,5.892 13.136,13.136 C 13.136,-5.893 7.243,0 0,0 m 0,-27.136 c -7.72,0 -14,6.28 -14,14 0,7.719 6.28,14 14,14 7.72,0 14,-6.281 14,-14 0,-7.72 -6.28,-14 -14,-14" /></g><g
           transform="translate(184,116)"
           id="g54"><path
             id="path56"
             style="fill:#4c4c4c;fill-opacity:1;fill-rule:nonzero;stroke:none"
             d="m 0,0 c 0,-6.627 -5.373,-12 -12,-12 -6.627,0 -12,5.373 -12,12 0,6.627 5.373,12 12,12 C -5.373,12 0,6.627 0,0" /></g><path
           id="path58"
           style="fill:#b80000;fill-opacity:1;fill-rule:nonzero;stroke:none"
           d="m 188,136 -32,0 0,4 32,0 0,-4 z" /><path
           id="path60"
           style="fill:#4c4c4c;fill-opacity:1;fill-rule:nonzero;stroke:none"
           d="m 228,100 -32,0 0,32 32,0 0,-32 z" /><g
           transform="translate(225.5681,115.9999)"
           id="g62"><path
             id="path64"
             style="fill:#191919;fill-opacity:1;fill-rule:nonzero;stroke:none"
             d="m 0,0 c 0,-7.494 -6.075,-13.568 -13.568,-13.568 -7.494,0 -13.568,6.074 -13.568,13.568 0,7.493 6.074,13.568 13.568,13.568 C -6.075,13.568 0,7.493 0,0" /></g><g
           transform="translate(212.0001,129.1362)"
           id="g66"><path
             id="path68"
             style="fill:#231f20;fill-opacity:1;fill-rule:nonzero;stroke:none"
             d="m 0,0 c -7.243,0 -13.136,-5.893 -13.136,-13.136 0,-7.244 5.893,-13.136 13.136,-13.136 7.243,0 13.136,5.892 13.136,13.136 C 13.136,-5.893 7.243,0 0,0 m 0,-27.136 c -7.72,0 -14,6.28 -14,14 0,7.719 6.28,14 14,14 7.72,0 14,-6.281 14,-14 0,-7.72 -6.28,-14 -14,-14" /></g><g
           transform="translate(224,116)"
           id="g70"><path
             id="path72"
             style="fill:#4c4c4c;fill-opacity:1;fill-rule:nonzero;stroke:none"
             d="m 0,0 c 0,-6.627 -5.373,-12 -12,-12 -6.627,0 -12,5.373 -12,12 0,6.627 5.373,12 12,12 C -5.373,12 0,6.627 0,0" /></g><path
           id="path74"
           style="fill:#b80000;fill-opacity:1;fill-rule:nonzero;stroke:none"
           d="m 228,136 -32,0 0,4 32,0 0,-4 z" /><path
           id="path76"
           style="fill:#4c4c4c;fill-opacity:1;fill-rule:nonzero;stroke:none"
           d="m 154,100 -2,0 0,32 2,0 0,-32 z" /><path
           id="path78"
           style="fill:#4c4c4c;fill-opacity:1;fill-rule:nonzero;stroke:none"
           d="m 150,100 -2,0 0,32 2,0 0,-32 z" /><path
           id="path80"
           style="fill:#4c4c4c;fill-opacity:1;fill-rule:nonzero;stroke:none"
           d="m 146,100 -2,0 0,32 2,0 0,-32 z" /><path
           id="path82"
           style="fill:#4c4c4c;fill-opacity:1;fill-rule:nonzero;stroke:none"
           d="m 142,100 -2,0 0,32 2,0 0,-32 z" /><path
           id="path84"
           style="fill:#4c4c4c;fill-opacity:1;fill-rule:nonzero;stroke:none"
           d="m 138,100 -2,0 0,32 2,0 0,-32 z" /><path
           id="path86"
           style="fill:#4c4c4c;fill-opacity:1;fill-rule:nonzero;stroke:none"
           d="m 134,100 -2,0 0,32 2,0 0,-32 z" /><path
           id="path88"
           style="fill:#4c4c4c;fill-opacity:1;fill-rule:nonzero;stroke:none"
           d="m 130,100 -2,0 0,32 2,0 0,-32 z" /><path
           id="path90"
           style="fill:#4c4c4c;fill-opacity:1;fill-rule:nonzero;stroke:none"
           d="m 126,100 -2,0 0,32 2,0 0,-32 z" /><path
           id="path92"
           style="fill:#4c4c4c;fill-opacity:1;fill-rule:nonzero;stroke:none"
           d="m 122,100 -2,0 0,32 2,0 0,-32 z" /><path
           id="path94"
           style="fill:#4c4c4c;fill-opacity:1;fill-rule:nonzero;stroke:none"
           d="m 118,100 -2,0 0,32 2,0 0,-32 z" /><g
           transform="translate(42.4797,162)"
           id="g96"><path
             id="path98"
             style="fill:#b80000;fill-opacity:1;fill-rule:nonzero;stroke:none"
             d="m 0,0 c -2.47,0 -4.48,-1.938 -4.48,-4.32 l 0,-63.36 C -4.48,-70.062 -2.47,-72 0,-72 l 63.04,0 c 2.471,0 4.48,1.938 4.48,4.32 l 0,63.36 C 67.52,-1.938 65.511,0 63.04,0 L 0,0 Z m 63.606,-74 -64.171,0 c -3.262,0 -5.915,2.562 -5.915,5.711 l 0,64.578 C -6.48,-0.562 -3.827,2 -0.565,2 l 64.171,0 c 3.261,0 5.914,-2.562 5.914,-5.711 l 0,-64.578 C 69.52,-71.438 66.867,-74 63.606,-74" /></g><g
           transform="translate(103.8755,157.3406)"
           id="g100"><path
             id="path102"
             style="fill:#333333;fill-opacity:1;fill-rule:nonzero;stroke:none"
             d="m 0,0 c -0.681,0.411 -1.477,0.659 -2.337,0.659 l -55.077,0 c -0.992,0 -1.9,-0.326 -2.641,-0.86 L -29.878,-30.759 0,0 Z" /></g><g
           transform="translate(104.5358,156.853)"
           id="g104"><path
             id="path106"
             style="fill:#333333;fill-opacity:1;fill-rule:nonzero;stroke:none"
             d="M 0,0 -29.966,-30.851 0.26,-61.459 c 0.741,0.777 1.204,1.81 1.204,2.954 l 0,55.304 C 1.464,-1.929 0.894,-0.795 0,0" /></g><g
           transform="translate(43.4471,95.1607)"
           id="g108"><path
             id="path110"
             style="fill:#333333;fill-opacity:1;fill-rule:nonzero;stroke:none"
             d="m 0,0 29.968,30.852 -30.21,30.593 c -0.742,-0.776 -1.205,-1.809 -1.205,-2.954 l 0,-55.304 C -1.447,1.923 -0.884,0.794 0,0" /></g><g
           transform="translate(73.9872,125.4342)"
           id="g112"><path
             id="path114"
             style="fill:#333333;fill-opacity:1;fill-rule:nonzero;stroke:none"
             d="m 0,0 -29.883,-30.764 c 0.686,-0.418 1.489,-0.67 2.358,-0.67 l 55.076,0 c 0.992,0 1.9,0.326 2.641,0.86 L 0,0 Z" /></g><g
           transform="translate(87.3951,98.9105)"
           id="g116"><path
             id="path118"
             style="fill:#333333;fill-opacity:1;fill-rule:nonzero;stroke:none"
             d="m 0,0 -27.066,0 c -8.021,0 -14.522,6.278 -14.522,14.022 l 0,26.135 c 0,7.744 6.501,14.022 14.522,14.022 l 27.066,0 c 8.02,0 14.522,-6.278 14.522,-14.022 l 0,-26.135 C 14.522,6.278 8.02,0 0,0" /></g><g
           transform="translate(61.4487,150.8316)"
           id="g120"><path
             id="path122"
             style="fill:#333333;fill-opacity:1;fill-rule:nonzero;stroke:none"
             d="m 0,0 c -6.771,0 -12.28,-5.509 -12.28,-12.28 l 0,-25.103 c 0,-6.771 5.509,-12.28 12.28,-12.28 l 25.103,0 c 6.771,0 12.28,5.509 12.28,12.28 l 0,25.103 C 37.383,-5.509 31.874,0 25.103,0 L 0,0 Z M 25.103,-52.04 0,-52.04 c -8.082,0 -14.657,6.575 -14.657,14.657 l 0,25.103 c 0,8.081 6.575,14.656 14.657,14.656 l 25.103,0 c 8.081,0 14.656,-6.575 14.656,-14.656 l 0,-25.103 c 0,-8.082 -6.575,-14.657 -14.656,-14.657" /></g><g
           transform="translate(61.4487,150.0395)"
           id="g124"><path
             id="path126"
             style="fill:#262626;fill-opacity:1;fill-rule:nonzero;stroke:none"
             d="m 0,0 c -6.335,0 -11.488,-5.153 -11.488,-11.488 l 0,-25.103 c 0,-6.334 5.153,-11.488 11.488,-11.488 l 25.103,0 c 6.334,0 11.488,5.154 11.488,11.488 l 0,25.103 C 36.591,-5.153 31.437,0 25.103,0 L 0,0 Z m 25.103,-49.663 -25.103,0 c -7.208,0 -13.072,5.864 -13.072,13.072 l 0,25.103 c 0,7.208 5.864,13.072 13.072,13.072 l 25.103,0 c 7.208,0 13.072,-5.864 13.072,-13.072 l 0,-25.103 c 0,-7.208 -5.864,-13.072 -13.072,-13.072 M 0,2.376 c -7.645,0 -13.865,-6.219 -13.865,-13.864 l 0,-25.103 c 0,-7.645 6.22,-13.864 13.865,-13.864 l 25.103,0 c 7.645,0 13.864,6.219 13.864,13.864 l 0,25.103 c 0,7.645 -6.219,13.864 -13.864,13.864 L 0,2.376 Z M 25.103,-52.04 0,-52.04 c -8.518,0 -15.449,6.931 -15.449,15.449 l 0,25.103 C -15.449,-2.97 -8.518,3.96 0,3.96 l 25.103,0 c 8.518,0 15.448,-6.93 15.448,-15.448 l 0,-25.103 c 0,-8.518 -6.93,-15.449 -15.448,-15.449" /></g><g
           transform="translate(82.5447,126.0001)"
           id="g128"><path
             id="path130"
             style="fill:#333333;fill-opacity:1;fill-rule:nonzero;stroke:none"
             d="m 0,0 c 0,-4.63 -3.887,-8.384 -8.683,-8.384 -4.795,0 -8.683,3.754 -8.683,8.384 0,4.63 3.888,8.384 8.683,8.384 C -3.887,8.384 0,4.63 0,0" /></g><g
           transform="translate(73.8619,134.0001)"
           id="g132"><path
             id="path134"
             style="fill:#404040;fill-opacity:1;fill-rule:nonzero;stroke:none"
             d="m 0,0 c -4.411,0 -8,-3.589 -8,-8 0,-4.411 3.589,-8 8,-8 4.411,0 8,3.589 8,8 0,4.411 -3.589,8 -8,8 m 0,-18 c -5.514,0 -10,4.486 -10,10 0,5.514 4.486,10 10,10 5.514,0 10,-4.486 10,-10 0,-5.514 -4.486,-10 -10,-10" /></g><g
           transform="translate(75,141.193)"
           id="g136"><path
             id="path138"
             style="fill:#404040;fill-opacity:1;fill-rule:nonzero;stroke:none"
             d="m 0,0 c 0,-0.659 -0.448,-1.193 -1,-1.193 -0.552,0 -1,0.534 -1,1.193 l 0,5.614 c 0,0.659 0.448,1.193 1,1.193 0.552,0 1,-0.534 1,-1.193 L 0,0 Z" /></g><g
           transform="translate(75,105.193)"
           id="g140"><path
             id="path142"
             style="fill:#404040;fill-opacity:1;fill-rule:nonzero;stroke:none"
             d="m 0,0 c 0,-0.659 -0.448,-1.193 -1,-1.193 -0.552,0 -1,0.534 -1,1.193 l 0,5.614 c 0,0.659 0.448,1.193 1,1.193 0.552,0 1,-0.534 1,-1.193 L 0,0 Z" /></g><g
           transform="translate(63.9663,137.7625)"
           id="g144"><path
             id="path146"
             style="fill:#404040;fill-opacity:1;fill-rule:nonzero;stroke:none"
             d="m 0,0 c 0.295,-0.295 -1.434,-2.023 -1.729,-1.729 0,0 -2.657,3.432 -2.18,3.909 C -3.432,2.658 0,0 0,0" /></g><g
           transform="translate(87.9284,112.0716)"
           id="g148"><path
             id="path150"
             style="fill:#404040;fill-opacity:1;fill-rule:nonzero;stroke:none"
             d="m 0,0 0,0 c -0.524,-0.524 -3.899,2.001 -3.899,2.001 -0.286,0.285 1.613,2.184 1.898,1.898 0,0 2.525,-3.375 2.001,-3.899" /></g><g
           transform="translate(85.9821,136.0278)"
           id="g152"><path
             id="path154"
             style="fill:#404040;fill-opacity:1;fill-rule:nonzero;stroke:none"
             d="m 0,0 c -0.282,-0.282 -2.237,1.672 -1.954,1.954 0,0 3.355,2.481 3.895,1.941 C 2.481,3.356 0,0 0,0" /></g><g
           transform="translate(60.0768,112.0768)"
           id="g156"><path
             id="path158"
             style="fill:#404040;fill-opacity:1;fill-rule:nonzero;stroke:none"
             d="M 0,0 0,0 C -0.54,0.54 1.941,3.895 1.941,3.895 2.224,4.178 4.178,2.224 3.895,1.941 3.895,1.941 0.54,-0.54 0,0" /></g><g
           transform="translate(89.193,125.0001)"
           id="g160"><path
             id="path162"
             style="fill:#404040;fill-opacity:1;fill-rule:nonzero;stroke:none"
             d="m 0,0 c -0.659,0 -1.193,0.448 -1.193,1 0,0.552 0.534,1 1.193,1 L 5.614,2 C 6.273,2 6.807,1.552 6.807,1 6.807,0.448 6.273,0 5.614,0 L 0,0 Z" /></g><g
           transform="translate(53.193,125.0001)"
           id="g164"><path
             id="path166"
             style="fill:#404040;fill-opacity:1;fill-rule:nonzero;stroke:none"
             d="m 0,0 c -0.659,0 -1.193,0.448 -1.193,1 0,0.552 0.534,1 1.193,1 L 5.614,2 C 6.273,2 6.807,1.552 6.807,1 6.807,0.448 6.273,0 5.614,0 L 0,0 Z" /></g><g
           transform="translate(75,154)"
           id="g168"><path
             id="path170"
             style="fill:#ffffff;fill-opacity:1;fill-rule:nonzero;stroke:none"
             d="M 0,0 -2,0 -0.995,2 0,0 Z" /></g><g
           transform="translate(73,98)"
           id="g172"><path
             id="path174"
             style="fill:#ffffff;fill-opacity:1;fill-rule:nonzero;stroke:none"
             d="M 0,0 2,0 0.995,-2 0,0 Z" /></g><g
           transform="translate(102,125.0001)"
           id="g176"><path
             id="path178"
             style="fill:#ffffff;fill-opacity:1;fill-rule:nonzero;stroke:none"
             d="M 0,0 0,2 2,0.995 0,0 Z" /></g><g
           transform="translate(46,127.0001)"
           id="g180"><path
             id="path182"
             style="fill:#ffffff;fill-opacity:1;fill-rule:nonzero;stroke:none"
             d="M 0,0 0,-2 -2,-0.995 0,0 Z" /></g><g
           transform="translate(132.3462,112)"
           id="g184"><path
             id="path186"
             style="fill:#ffffff;fill-opacity:1;fill-rule:nonzero;stroke:none"
             d="m 0,0 -0.849,0 -1.062,2.759 0,-2.759 -0.849,0 0,3.862 1.274,0 L 0,0 Z M 0,5.379 C 0,5.036 -0.093,4.743 -0.28,4.501 -0.466,4.259 -0.656,4.138 -0.849,4.138 l -2.123,0 0,-4.138 -0.849,0 0,5.241 2.76,0 c 0.141,0 0.212,0.046 0.212,0.138 0,0.092 -0.071,0.138 -0.212,0.138 l -2.76,0 0,1.104 2.972,0 c 0.193,0 0.383,-0.123 0.569,-0.368 C -0.093,6.008 0,5.716 0,5.379 m 1.061,0 C 1.061,4.656 0.919,4.109 0.633,3.738 0.348,3.367 0.106,3.117 -0.092,2.989 L 1.061,0 0.212,0 l -1.486,3.862 0.425,0 c 0.25,0 0.489,0.149 0.718,0.446 0.229,0.297 0.343,0.654 0.343,1.071 0,0.411 -0.114,0.767 -0.343,1.067 -0.229,0.3 -0.468,0.451 -0.718,0.451 l -2.972,0 0,1.103 2.972,0 C -0.363,8 0.077,7.743 0.471,7.228 0.865,6.713 1.061,6.097 1.061,5.379" /></g><g
           transform="translate(133.8322,117.5172)"
           id="g188"><path
             id="path190"
             style="fill:#ffffff;fill-opacity:1;fill-rule:nonzero;stroke:none"
             d="m 0,0 c 0,1.655 0.637,2.483 1.911,2.483 l 2.547,0 0,-1.104 -2.547,0 C 1.203,1.379 0.849,0.92 0.849,0 l 0,-3.034 c 0,-0.92 0.354,-1.38 1.062,-1.38 l 2.547,0 0,-1.103 -2.547,0 C 0.637,-5.517 0,-4.69 0,-3.034 L 0,0 Z" /></g><g
           transform="translate(134.8937,116.1379)"
           id="g192"><path
             id="path194"
             style="fill:#ffffff;fill-opacity:1;fill-rule:nonzero;stroke:none"
             d="m 0,0 0,1.379 c 0,0.736 0.283,1.104 0.849,1.104 l 2.548,0 0,-1.104 -2.336,0 C 0.92,1.379 0.849,1.287 0.849,1.103 l 1.911,0 L 2.76,0 0,0 Z" /></g><g
           transform="translate(134.8937,115.8621)"
           id="g196"><path
             id="path198"
             style="fill:#ffffff;fill-opacity:1;fill-rule:nonzero;stroke:none"
             d="m 0,0 2.76,0 0,-1.103 -1.911,0 c 0,-0.184 0.071,-0.276 0.212,-0.276 l 2.336,0 0,-1.104 -2.548,0 C 0.283,-2.483 0,-2.115 0,-1.379 L 0,0 Z" /></g><g
           transform="translate(141.2625,118.6207)"
           id="g200"><path
             id="path202"
             style="fill:#ffffff;fill-opacity:1;fill-rule:nonzero;stroke:none"
             d="m 0,0 2.335,0 0,-1.103 -1.486,0 0,-5.518 L 0,-6.621 0,0 Z m -0.212,0 0,-6.621 -0.849,0 0,5.518 -1.487,0 0,1.103 2.336,0 z m 2.547,0.276 -4.883,0 0,1.103 4.883,0 0,-1.103 z" /></g><g
           transform="translate(147.8435,112)"
           id="g204"><path
             id="path206"
             style="fill:#ffffff;fill-opacity:1;fill-rule:nonzero;stroke:none"
             d="m 0,0 -0.849,0 -1.062,2.759 0,-2.759 -0.849,0 0,3.862 1.274,0 L 0,0 Z M 0,5.379 C 0,5.036 -0.093,4.743 -0.28,4.501 -0.466,4.259 -0.656,4.138 -0.849,4.138 l -2.123,0 0,-4.138 -0.849,0 0,5.241 2.76,0 c 0.141,0 0.212,0.046 0.212,0.138 0,0.092 -0.071,0.138 -0.212,0.138 l -2.76,0 0,1.104 2.972,0 c 0.193,0 0.383,-0.123 0.569,-0.368 C -0.093,6.008 0,5.716 0,5.379 m 1.061,0 C 1.061,4.656 0.919,4.109 0.633,3.738 0.348,3.367 0.106,3.117 -0.092,2.989 L 1.061,0 0.212,0 l -1.486,3.862 0.425,0 c 0.25,0 0.489,0.149 0.718,0.446 0.229,0.297 0.343,0.654 0.343,1.071 0,0.411 -0.114,0.767 -0.343,1.067 -0.229,0.3 -0.468,0.451 -0.718,0.451 l -2.972,0 0,1.103 2.972,0 C -0.363,8 0.077,7.743 0.471,7.228 0.865,6.713 1.061,6.097 1.061,5.379" /></g><g
           transform="translate(152.0894,117.2414)"
           id="g208"><path
             id="path210"
             style="fill:#ffffff;fill-opacity:1;fill-rule:nonzero;stroke:none"
             d="m 0,0 c 0,0.184 -0.071,0.276 -0.212,0.276 l -0.425,0 C -0.778,0.276 -0.849,0.184 -0.849,0 l 0,-2.483 c 0,-0.184 0.071,-0.276 0.212,-0.276 l 0.425,0 C -0.071,-2.759 0,-2.667 0,-2.483 L 0,0 Z m 0.849,0.276 0,-3.035 C 0.849,-3.494 0.566,-3.862 0,-3.862 l -0.849,0 c -0.566,0 -0.849,0.368 -0.849,1.103 l 0,3.035 c 0,0.736 0.283,1.103 0.849,1.103 l 0.849,0 c 0.566,0 0.849,-0.367 0.849,-1.103 m 0.212,0 C 1.061,1.195 0.708,1.655 0,1.655 l -0.849,0 c -0.708,0 -1.062,-0.46 -1.062,-1.379 l 0,-3.035 c 0,-0.919 0.354,-1.379 1.062,-1.379 l 0.849,0 c 0.708,0 1.061,0.46 1.061,1.379 l 0,3.035 z m 0.85,0 0,-3.035 C 1.911,-4.414 1.274,-5.241 0,-5.241 l -0.849,0 c -1.274,0 -1.911,0.827 -1.911,2.482 l 0,3.035 c 0,1.655 0.637,2.483 1.911,2.483 l 0.849,0 c 1.274,0 1.911,-0.828 1.911,-2.483" /></g><g
           transform="translate(116.9267,113.855)"
           id="g212"><path
             id="path214"
             style="fill:#ffffff;fill-opacity:1;fill-rule:nonzero;stroke:none"
             d="M 0,0 C -0.007,0.024 -0.011,0.051 -0.017,0.076 L 0,0.076 0,0 Z m 1.196,0.628 c -0.141,0 -0.212,0.092 -0.212,0.276 l 0,5.241 -1.911,0 0,-5.517 c 0,-1.655 0.637,-2.483 1.911,-2.483 l 2.547,0 0,2.483 -2.335,0 z" /></g><path
           id="path216"
           style="fill:#ffffff;fill-opacity:1;fill-rule:nonzero;stroke:none"
           d="m 120.882,112 1.911,0 0,8 -1.911,0 0,-8 z" /><g
           transform="translate(125.9774,117.2414)"
           id="g218"><path
             id="path220"
             style="fill:#ffffff;fill-opacity:1;fill-rule:nonzero;stroke:none"
             d="m 0,0 -0.849,0 0,0.276 0.849,0 C 0.142,0.276 0.212,0.23 0.212,0.138 0.212,0.046 0.142,0 0,0 m 0,-2.759 -0.849,0 0,0.276 0.849,0 c 0.142,0 0.212,-0.046 0.212,-0.138 0,-0.092 -0.07,-0.138 -0.212,-0.138 m 2.123,2.897 c 0,0.717 -0.197,1.333 -0.591,1.848 -0.394,0.515 -0.834,0.773 -1.32,0.773 l -2.972,0 0,-8 2.972,0 c 0.486,0 0.926,0.257 1.32,0.772 0.394,0.515 0.591,1.131 0.591,1.848 0,0.521 -0.097,0.978 -0.29,1.37 0.193,0.393 0.29,0.856 0.29,1.389" /></g></g></g></g></svg>