<?xml version="1.0" encoding="UTF-8" standalone="no"?>
<svg
   xmlns:dc="http://purl.org/dc/elements/1.1/"
   xmlns:cc="http://creativecommons.org/ns#"
   xmlns:rdf="http://www.w3.org/1999/02/22-rdf-syntax-ns#"
   xmlns:svg="http://www.w3.org/2000/svg"
   xmlns="http://www.w3.org/2000/svg"
   viewBox="0 0 320 320"
   height="320"
   width="320"
   xml:space="preserve"
   version="1.1"
   id="svg2"><metadata
     id="metadata8"><rdf:RDF><cc:Work
         rdf:about=""><dc:format>image/svg+xml</dc:format><dc:type
           rdf:resource="http://purl.org/dc/dcmitype/StillImage" /></cc:Work></rdf:RDF></metadata><defs
     id="defs6"><clipPath
       id="clipPath16"
       clipPathUnits="userSpaceOnUse"><path
         id="path18"
         d="M 0,256 256,256 256,0 0,0 0,256 Z" /></clipPath><clipPath
       id="clipPath24"
       clipPathUnits="userSpaceOnUse"><path
         id="path26"
         d="M 4,252 252,252 252,4 4,4 4,252 Z" /></clipPath></defs><g
     transform="matrix(1.25,0,0,-1.25,0,320)"
     id="g10"><g
       id="g12"><g
         clip-path="url(#clipPath16)"
         id="g14"><g
           id="g20"><g
             id="g22" /><g
             id="g28"><g
               style="opacity:0.5"
               id="g30"
               clip-path="url(#clipPath24)"><g
                 id="g32"
                 transform="translate(128,108)"><path
                   id="path34"
                   style="fill:#ffffff;fill-opacity:1;fill-rule:nonzero;stroke:none"
                   d="m 0,0 c -11.046,0 -20,8.954 -20,20 0,11.046 8.954,20 20,20 C 11.046,40 20,31.046 20,20 20,8.954 11.046,0 0,0 M 87.676,107.682 C 64.254,131.102 33.116,144 0,144 -33.124,144 -64.264,131.102 -87.683,107.681 -111.103,84.262 -124,53.122 -124,20 c 0,-33.122 12.897,-64.262 36.317,-87.681 C -64.264,-91.102 -33.124,-104 0,-104 c 33.116,0 64.254,12.898 87.676,36.318 C 111.1,-44.26 124,-13.12 124,20 c 0,33.12 -12.9,64.26 -36.324,87.682" /></g></g></g></g><g
           transform="translate(128,84.4951)"
           id="g36"><path
             id="path38"
             style="fill:#bfbfbf;fill-opacity:1;fill-rule:nonzero;stroke:none"
             d="M 0,0 C -23.993,0 -43.505,19.517 -43.505,43.505 -43.505,67.493 -23.993,87.01 0,87.01 23.988,87.01 43.5,67.493 43.5,43.505 43.5,19.517 23.988,0 0,0 m 0,159.505 c -64.071,0 -116,-51.934 -116,-116 0,-64.066 51.929,-116 116,-116 64.051,0 116,51.934 116,116 0,64.066 -51.949,116 -116,116" /></g><g
           transform="translate(186.0977,101.4767)"
           id="g40"><path
             id="path42"
             style="fill:#191919;fill-opacity:1;fill-rule:nonzero;stroke:none"
             d="m 0,0 0.623,0 c 0.358,0 0.474,0.13 0.474,0.367 0,0.303 -0.205,0.359 -0.582,0.359 L 0,0.726 0,0 Z m -0.784,1.331 1.646,0 c 0.649,0 1.019,-0.272 1.019,-0.817 0,-0.397 -0.28,-0.674 -0.683,-0.756 l 0,-0.009 c 0.227,-0.017 0.44,-0.078 0.53,-0.272 0.13,-0.285 0.145,-0.942 0.257,-1.267 l -0.832,0 c -0.086,0.303 -0.075,0.753 -0.149,0.969 -0.049,0.142 -0.168,0.216 -0.482,0.216 l -0.522,0 0,-1.185 -0.784,0 0,3.121 z" /></g><g
           transform="translate(188.6331,102.808)"
           id="g44"><path
             id="path46"
             style="fill:#191919;fill-opacity:1;fill-rule:nonzero;stroke:none"
             d="m 0,0 2.313,0 0,-0.64 -1.529,0 0,-0.579 1.447,0 0,-0.64 -1.447,0 0,-0.622 1.563,0 0,-0.64 L 0,-3.121 0,0 Z" /></g><g
           transform="translate(192.4332,102.1683)"
           id="g48"><path
             id="path50"
             style="fill:#191919;fill-opacity:1;fill-rule:nonzero;stroke:none"
             d="m 0,0 -1.037,0 0,0.64 2.858,0 0,-0.64 -1.037,0 0,-2.481 L 0,-2.481 0,0 Z" /></g><g
           transform="translate(195.5054,101.4767)"
           id="g52"><path
             id="path54"
             style="fill:#191919;fill-opacity:1;fill-rule:nonzero;stroke:none"
             d="m 0,0 0.623,0 c 0.358,0 0.474,0.13 0.474,0.367 0,0.303 -0.205,0.359 -0.582,0.359 L 0,0.726 0,0 Z m -0.784,1.331 1.646,0 c 0.649,0 1.019,-0.272 1.019,-0.817 0,-0.397 -0.28,-0.674 -0.683,-0.756 l 0,-0.009 c 0.228,-0.017 0.44,-0.078 0.53,-0.272 0.13,-0.285 0.145,-0.942 0.257,-1.267 l -0.832,0 c -0.086,0.303 -0.075,0.753 -0.149,0.969 -0.049,0.142 -0.168,0.216 -0.481,0.216 l -0.523,0 0,-1.185 -0.784,0 0,3.121 z" /></g><g
           transform="translate(199.4663,100.2448)"
           id="g56"><path
             id="path58"
             style="fill:#191919;fill-opacity:1;fill-rule:nonzero;stroke:none"
             d="M 0,0 C 0.597,0 0.794,0.454 0.794,1.003 0.794,1.552 0.597,2.006 0,2.006 -0.597,2.006 -0.795,1.552 -0.795,1.003 -0.795,0.454 -0.597,0 0,0 m 0,2.645 c 1.127,0 1.601,-0.7 1.601,-1.642 C 1.601,0.06 1.127,-0.64 0,-0.64 c -1.127,0 -1.601,0.7 -1.601,1.643 0,0.942 0.474,1.642 1.601,1.642" /></g><g
           transform="translate(192.5855,91.0149)"
           id="g60"><path
             id="path62"
             style="fill:#191919;fill-opacity:1;fill-rule:nonzero;stroke:none"
             d="M 0,0 C 0.88,0.279 1.439,0.833 1.211,1.831 0.986,2.81 0.348,2.826 -0.548,2.541 L -0.964,2.409 -0.384,-0.122 0,0 Z M -6.138,4.015 0.693,6.186 C 3.173,6.974 4.827,6.568 5.403,4.055 5.755,2.522 5.462,1.18 3.844,0.151 L 3.853,0.114 C 4.998,0.359 5.737,-0.02 6.194,-0.966 6.712,-2.029 7.112,-3.924 8.102,-5.77 L 3.623,-7.194 C 3.122,-6.282 2.593,-4.647 2.17,-3.552 1.922,-2.918 1.575,-2.751 0.838,-2.984 L 0.31,-3.152 1.399,-7.9 -3.08,-9.323 -6.138,4.015 Z" /></g><g
           transform="translate(190.941,79.4591)"
           id="g64"><path
             id="path66"
             style="fill:#191919;fill-opacity:1;fill-rule:nonzero;stroke:none"
             d="m 0,0 -0.332,-1.176 0.643,0 L 0.01,0 0,0 Z" /></g><path
           id="path68"
           style="fill:#191919;fill-opacity:1;fill-rule:nonzero;stroke:none"
           d="m 202.044,98.973 -17.422,0 0,4.387 17.422,0 0,-4.387 z m 0,-17.862 -17.422,0 0,17.141 17.422,0 0,-17.141 z m -0.18,-4.09 -2.941,0 0,3.121 2.894,0 0,-0.813 -1.45,0 0,-0.332 1.339,0 0,-0.813 -1.339,0 0,-0.35 1.497,0 0,-0.813 z m -3.482,0 -1.276,0 0,2.23 -0.011,0 -0.537,-2.23 -1.381,0 -0.538,2.23 -0.011,0 0,-2.23 -1.275,0 0,3.121 2.092,0 0.417,-1.859 0.011,0 0.416,1.859 2.093,0 0,-3.121 z m -6.761,0 -0.147,0.502 -1.092,0 -0.153,-0.502 -1.444,0 1.218,3.121 1.956,0 1.222,-3.121 -1.56,0 z m -2.96,0.125 c -0.59,-0.125 -1.276,-0.207 -1.898,-0.207 -1.37,0 -2.04,0.687 -2.04,1.643 0,0.955 0.67,1.642 2.083,1.642 1.17,0 1.781,-0.315 1.797,-1.046 l -1.413,0 c -0.005,0.099 -0.052,0.164 -0.116,0.203 -0.063,0.039 -0.152,0.056 -0.247,0.056 -0.227,0 -0.375,-0.095 -0.448,-0.22 -0.074,-0.125 -0.095,-0.432 -0.095,-0.696 0,-0.303 0.031,-0.51 0.1,-0.61 0.09,-0.129 0.237,-0.185 0.432,-0.185 0.143,0 0.279,0.017 0.401,0.064 l 0,0.377 -0.517,0 0,0.613 1.961,0 0,-1.634 z M 184,104 l 0,-5.027 0,-0.715 0,-17.255 0,-0.613 0,-4.39 18.667,0 0,4.39 0,0.613 0,17.255 0,0.715 0,5.027 -18.667,0 z" /><g
           transform="translate(108.8151,63.2872)"
           id="g70"><path
             id="path72"
             style="fill:#d05627;fill-opacity:1;fill-rule:nonzero;stroke:none"
             d="m 0,0 c -0.482,0 -0.778,-0.015 -1.228,-0.222 l 0,-4.084 c 0.217,-0.031 0.637,-0.047 1.01,-0.031 1.602,0.127 2.566,0.981 2.473,2.295 C 2.193,-1.092 1.882,-0.079 0,0 m 3.935,-11.144 -4.666,6.174 c -0.124,0.158 -0.171,0.269 -0.311,0.38 -0.062,0.063 -0.124,0.095 -0.202,0.142 l 0,-5.429 c 0,-0.254 -0.016,-0.396 0.047,-0.649 0.031,-0.222 0.093,-0.348 0.171,-0.57 l -1.711,0 c 0.093,0.19 0.171,0.301 0.187,0.49 0.046,0.238 0.046,0.76 0.046,1.204 l 0,8.484 c 0,0.443 -0.015,0.696 -0.093,1.14 -0.047,0.206 -0.124,0.316 -0.218,0.491 l 3.499,0 c 1.525,0 2.893,-1.029 2.847,-2.723 C 3.5,-3.657 2.084,-5.065 0.374,-4.796 0.467,-4.875 0.514,-4.938 0.607,-5.018 0.933,-5.334 1.12,-5.54 1.415,-5.92 l 2.768,-3.577 c 0.358,-0.475 0.638,-0.855 0.996,-1.172 0.218,-0.19 0.358,-0.301 0.591,-0.475 l -1.835,0 z" /></g><g
           transform="translate(118.9137,59.1087)"
           id="g74"><path
             id="path76"
             style="fill:#d05627;fill-opacity:1;fill-rule:nonzero;stroke:none"
             d="m 0,0 c -1.073,0.015 -1.96,-0.697 -2.178,-1.757 l 4.262,0 C 1.882,-0.713 1.197,0 0,0 M -2.364,-2.533 -2.395,-3.039 C -2.504,-4.828 -1.509,-6.3 0.513,-6.3 c 1.026,0 1.727,0.063 2.535,0.712 L 2.846,-6.569 C 1.928,-7.076 1.228,-7.108 0.186,-7.06 c -2.286,0.095 -3.717,1.377 -3.748,4.084 -0.015,1.995 1.509,3.815 3.531,3.767 1.913,-0.031 3.157,-1.504 3.203,-3.324 l -5.536,0 z" /></g><g
           transform="translate(125.683,52.1913)"
           id="g78"><path
             id="path80"
             style="fill:#d05627;fill-opacity:1;fill-rule:nonzero;stroke:none"
             d="M 0,0 C -0.638,0 -1.073,0.237 -1.399,0.823 -1.68,1.298 -1.68,1.821 -1.68,2.469 l 0,4.432 -1.01,0 0,0.76 1.01,0 0,0.887 c 0,0.158 0,0.269 -0.062,0.396 -0.078,0.126 -0.14,0.19 -0.249,0.253 l 1.462,0.76 0,-2.264 1.727,0 0,-0.792 -1.743,0 0,-4.479 c 0,-0.522 0.016,-1.076 0.281,-1.33 0.233,-0.253 0.482,-0.348 0.809,-0.348 l 0.684,0 L 1.229,0 0,0 Z" /></g><g
           transform="translate(130.3983,58.887)"
           id="g82"><path
             id="path84"
             style="fill:#d05627;fill-opacity:1;fill-rule:nonzero;stroke:none"
             d="m 0,0 c -0.576,-0.333 -0.964,-1.124 -0.964,-1.978 l 0,-3.372 c 0,-0.317 0.031,-0.491 0.109,-0.776 0.062,-0.237 0.124,-0.38 0.264,-0.601 l -1.788,0 c 0.093,0.158 0.17,0.253 0.201,0.411 0.078,0.269 0.063,0.459 0.063,0.744 l 0,5.413 c 0,0.207 -0.016,0.365 -0.094,0.555 -0.077,0.221 -0.17,0.348 -0.31,0.522 l 1.508,0.174 0,-1.14 c 0.233,0.475 0.498,0.729 0.949,0.998 0.42,0.237 0.855,0.316 1.4,0.222 l 0,-1.046 C 0.84,0.285 0.451,0.253 0,0" /></g><g
           transform="translate(136.5749,59.1087)"
           id="g86"><path
             id="path88"
             style="fill:#d05627;fill-opacity:1;fill-rule:nonzero;stroke:none"
             d="m 0,0 c -1.665,0.048 -2.784,-1.504 -2.769,-3.15 0.016,-1.615 1.151,-3.071 2.737,-3.071 1.556,0 2.722,1.424 2.753,3.023 C 2.768,-1.567 1.617,-0.079 0,0 m -0.094,-7.028 c -2.099,0.031 -3.841,1.804 -3.841,3.941 0,2.185 1.82,3.958 3.966,3.926 C 2.162,0.791 3.919,-0.998 3.873,-3.182 3.841,-5.335 2.084,-7.06 -0.094,-7.028" /></g><g
           transform="translate(147.7771,52.4284)"
           id="g90"><path
             id="path92"
             style="fill:#d05627;fill-opacity:1;fill-rule:nonzero;stroke:none"
             d="m 0,0 c -0.778,-0.316 -1.322,-0.3 -2.177,-0.332 -2.489,-0.095 -4.246,1.598 -4.277,3.846 -0.047,2.327 1.82,4.037 4.183,3.973 0.825,-0.015 1.338,-0.015 2.1,-0.332 l 0,-1.061 C -0.7,6.506 -1.524,6.743 -2.255,6.728 -4.059,6.696 -5.303,5.287 -5.303,3.562 -5.335,1.741 -3.919,0.317 -2.177,0.349 -1.228,0.38 -0.327,0.65 0.171,1.013 L 0,0 Z" /></g><g
           transform="translate(153.629,56.2912)"
           id="g94"><path
             id="path96"
             style="fill:#d05627;fill-opacity:1;fill-rule:nonzero;stroke:none"
             d="m 0,0 -0.995,-0.253 -1.416,-0.27 C -3.188,-0.665 -3.717,-1.172 -3.764,-1.915 -3.841,-2.834 -3.017,-3.53 -2.069,-3.514 -1.042,-3.499 0,-2.865 0,-1.821 L 0,0 Z m -0.031,-4.132 0,0.713 c -0.653,-0.633 -1.322,-0.792 -2.224,-0.807 -1.338,-0.016 -2.613,0.807 -2.535,2.342 0.047,1.361 0.747,1.884 2.053,2.09 l 1.555,0.269 c 0.575,0.095 1.12,0.253 1.12,1.06 0,0.76 -0.778,1.362 -1.867,1.362 -0.777,0 -1.648,-0.111 -2.223,-0.618 l 0,0.903 C -3.39,3.657 -2.628,3.688 -1.897,3.688 0.234,3.609 1.026,2.77 1.026,1.155 l 0,-4.131 c 0,-0.222 0.016,-0.364 0.078,-0.57 0.047,-0.221 0.093,-0.348 0.202,-0.554 l -1.337,-0.032 z" /></g><g
           transform="translate(158.3297,52.0011)"
           id="g98"><path
             id="path100"
             style="fill:#d05627;fill-opacity:1;fill-rule:nonzero;stroke:none"
             d="m 0,0 c -0.778,0.016 -1.493,0.064 -1.976,0.301 l -0.202,1.187 c 0.358,-0.411 1.183,-0.728 2.1,-0.744 0.887,0 1.774,0.38 1.757,1.472 -0.03,0.649 -0.419,1.093 -1.01,1.33 l -0.965,0.412 c -0.948,0.379 -1.664,1.06 -1.649,2.105 0.032,1.298 1.338,1.978 2.645,1.994 0.699,0 1.15,-0.047 1.757,-0.38 l 0,-0.965 C 2.038,7.139 1.306,7.265 0.715,7.265 c -0.778,0 -1.43,-0.458 -1.43,-1.187 0,-0.569 0.372,-0.949 0.901,-1.171 L 1.135,4.512 C 2.473,3.958 2.815,3.372 2.846,2.327 2.892,0.586 1.197,-0.032 0,0" /></g><g
           transform="translate(164.7716,52.1913)"
           id="g102"><path
             id="path104"
             style="fill:#d05627;fill-opacity:1;fill-rule:nonzero;stroke:none"
             d="m 0,0 c -0.637,0 -1.073,0.237 -1.399,0.823 -0.28,0.475 -0.28,0.998 -0.28,1.646 l 0,4.432 -1.012,0 0,0.76 1.012,0 0,0.887 c 0,0.158 0,0.269 -0.062,0.396 -0.079,0.126 -0.141,0.19 -0.25,0.253 l 1.463,0.76 0,-2.264 1.726,0 0,-0.792 -1.743,0 0,-4.479 c 0,-0.522 0.017,-1.076 0.28,-1.33 0.235,-0.253 0.483,-0.348 0.81,-0.348 l 0.683,0 L 1.228,0 0,0 Z" /></g><g
           transform="translate(80,57.6169)"
           id="g106"><path
             id="path108"
             style="fill:#d05627;fill-opacity:1;fill-rule:nonzero;stroke:none"
             d="m 0,0 c 0,-1.146 0.19,-2.287 0.572,-3.381 0.826,-2.365 2.56,-4.33 4.756,-5.39 2.124,-1.024 4.46,-1.122 6.58,-0.274 2.022,0.809 3.693,2.487 4.585,4.602 0.857,2.034 0.922,4.264 0.184,6.28 C 15.974,3.753 14.539,5.327 12.74,6.155 11.02,6.945 9.145,6.986 7.457,6.269 5.859,5.591 4.558,4.229 3.887,2.533 3.251,0.925 3.24,-0.817 3.856,-2.375 c 0.58,-1.468 1.719,-2.649 3.125,-3.241 1.316,-0.555 2.732,-0.536 3.986,0.053 1.176,0.552 2.105,1.603 2.551,2.885 0.41,1.182 0.362,2.437 -0.137,3.534 C 12.916,1.88 12.065,2.666 11.045,3.013 10.128,3.325 9.174,3.237 8.357,2.765 7.607,2.331 7.04,1.552 6.842,0.681 6.67,-0.084 6.795,-0.85 7.199,-1.477 c 0.376,-0.581 1.035,-0.983 1.68,-1.022 0.538,-0.032 1.023,0.182 1.368,0.604 0.266,0.325 0.232,0.818 -0.076,1.1 -0.308,0.282 -0.773,0.246 -1.039,-0.08 -0.03,-0.036 -0.068,-0.072 -0.169,-0.066 -0.189,0.012 -0.43,0.163 -0.546,0.344 -0.214,0.33 -0.194,0.678 -0.142,0.912 0.101,0.444 0.403,0.857 0.789,1.08 0.587,0.34 1.156,0.26 1.53,0.132 0.627,-0.213 1.173,-0.717 1.459,-1.347 0.324,-0.714 0.354,-1.537 0.082,-2.319 -0.309,-0.888 -0.952,-1.616 -1.765,-1.998 -0.889,-0.417 -1.899,-0.427 -2.844,-0.029 -1.04,0.438 -1.882,1.31 -2.311,2.394 -0.462,1.169 -0.451,2.484 0.031,3.702 0.519,1.314 1.525,2.367 2.76,2.891 1.319,0.56 2.791,0.525 4.147,-0.098 1.441,-0.662 2.589,-1.92 3.15,-3.451 0.595,-1.623 0.539,-3.428 -0.156,-5.079 -0.733,-1.738 -2.103,-3.115 -3.76,-3.778 -1.75,-0.7 -3.684,-0.617 -5.447,0.234 -1.842,0.889 -3.295,2.533 -3.986,4.512 -0.726,2.08 -0.625,4.371 0.287,6.455 0.946,2.162 2.682,3.86 4.763,4.661 2.18,0.838 4.576,0.706 6.746,-0.374 2.242,-1.115 3.998,-3.148 4.819,-5.575 0.137,-0.405 0.559,-0.617 0.942,-0.472 0.383,0.145 0.584,0.593 0.445,0.998 -0.951,2.815 -2.985,5.17 -5.579,6.461 -2.528,1.258 -5.325,1.41 -7.876,0.429 C 4.054,8.802 2.014,6.808 0.904,4.272 0.303,2.899 0,1.446 0,0" /></g><g
           transform="translate(124.6478,32)"
           id="g110"><path
             id="path112"
             style="fill:#d05627;fill-opacity:1;fill-rule:nonzero;stroke:none"
             d="m 0,0 -1.073,0 -1.34,2.759 0,-2.759 -1.073,0 0,3.862 1.609,0 L 0,0 Z M 0,5.379 C 0,5.036 -0.118,4.743 -0.353,4.501 -0.588,4.259 -0.828,4.138 -1.073,4.138 l -2.681,0 0,-4.138 -1.073,0 0,5.241 3.486,0 c 0.179,0 0.268,0.046 0.268,0.138 0,0.092 -0.089,0.138 -0.268,0.138 l -3.486,0 0,1.104 3.754,0 c 0.245,0 0.485,-0.123 0.72,-0.368 C -0.118,6.008 0,5.716 0,5.379 m 1.341,0 C 1.341,4.656 1.161,4.109 0.8,3.738 0.439,3.367 0.134,3.117 -0.116,2.989 L 1.341,0 0.268,0 l -1.877,3.862 0.536,0 c 0.316,0 0.619,0.149 0.908,0.446 0.289,0.297 0.433,0.654 0.433,1.071 0,0.411 -0.144,0.767 -0.433,1.067 -0.289,0.3 -0.592,0.451 -0.908,0.451 l -3.754,0 0,1.103 3.754,0 C -0.459,8 0.097,7.743 0.594,7.228 1.092,6.713 1.341,6.097 1.341,5.379" /></g><g
           transform="translate(126.5249,37.5172)"
           id="g114"><path
             id="path116"
             style="fill:#d05627;fill-opacity:1;fill-rule:nonzero;stroke:none"
             d="m 0,0 c 0,1.655 0.804,2.483 2.413,2.483 l 3.218,0 0,-1.104 -3.218,0 C 1.52,1.379 1.073,0.92 1.073,0 l 0,-3.034 c 0,-0.92 0.447,-1.38 1.34,-1.38 l 3.218,0 0,-1.103 -3.218,0 C 0.804,-5.517 0,-4.69 0,-3.034 L 0,0 Z" /></g><g
           transform="translate(127.8657,36.1379)"
           id="g118"><path
             id="path120"
             style="fill:#d05627;fill-opacity:1;fill-rule:nonzero;stroke:none"
             d="m 0,0 0,1.379 c 0,0.736 0.358,1.104 1.073,1.104 l 3.218,0 0,-1.104 -2.95,0 C 1.162,1.379 1.073,1.287 1.073,1.103 l 2.413,0 L 3.486,0 0,0 Z" /></g><g
           transform="translate(127.8657,35.8621)"
           id="g122"><path
             id="path124"
             style="fill:#d05627;fill-opacity:1;fill-rule:nonzero;stroke:none"
             d="m 0,0 3.486,0 0,-1.103 -2.413,0 c 0,-0.184 0.089,-0.276 0.268,-0.276 l 2.95,0 0,-1.104 -3.218,0 C 0.358,-2.483 0,-2.115 0,-1.379 L 0,0 Z" /></g><g
           transform="translate(135.9105,38.6207)"
           id="g126"><path
             id="path128"
             style="fill:#d05627;fill-opacity:1;fill-rule:nonzero;stroke:none"
             d="m 0,0 2.95,0 0,-1.103 -1.877,0 0,-5.518 L 0,-6.621 0,0 Z m -0.268,0 0,-6.621 -1.073,0 0,5.518 -1.877,0 0,1.103 2.95,0 z m 3.218,0.276 -6.168,0 0,1.103 6.168,0 0,-1.103 z" /></g><g
           transform="translate(144.2234,32)"
           id="g130"><path
             id="path132"
             style="fill:#d05627;fill-opacity:1;fill-rule:nonzero;stroke:none"
             d="m 0,0 -1.073,0 -1.34,2.759 0,-2.759 -1.073,0 0,3.862 1.609,0 L 0,0 Z M 0,5.379 C 0,5.036 -0.118,4.743 -0.353,4.501 -0.588,4.259 -0.828,4.138 -1.073,4.138 l -2.681,0 0,-4.138 -1.073,0 0,5.241 3.486,0 c 0.179,0 0.268,0.046 0.268,0.138 0,0.092 -0.089,0.138 -0.268,0.138 l -3.486,0 0,1.104 3.754,0 c 0.245,0 0.485,-0.123 0.72,-0.368 C -0.118,6.008 0,5.716 0,5.379 m 1.341,0 C 1.341,4.656 1.161,4.109 0.8,3.738 0.439,3.367 0.134,3.117 -0.116,2.989 L 1.341,0 0.268,0 l -1.877,3.862 0.536,0 c 0.316,0 0.619,0.149 0.908,0.446 0.289,0.297 0.433,0.654 0.433,1.071 0,0.411 -0.144,0.767 -0.433,1.067 -0.289,0.3 -0.592,0.451 -0.908,0.451 l -3.754,0 0,1.103 3.754,0 C -0.459,8 0.097,7.743 0.594,7.228 1.092,6.713 1.341,6.097 1.341,5.379" /></g><g
           transform="translate(149.5866,37.2414)"
           id="g134"><path
             id="path136"
             style="fill:#d05627;fill-opacity:1;fill-rule:nonzero;stroke:none"
             d="m 0,0 c 0,0.184 -0.089,0.276 -0.268,0.276 l -0.536,0 C -0.983,0.276 -1.073,0.184 -1.073,0 l 0,-2.483 c 0,-0.184 0.09,-0.276 0.269,-0.276 l 0.536,0 C -0.089,-2.759 0,-2.667 0,-2.483 L 0,0 Z m 1.073,0.276 0,-3.035 C 1.073,-3.494 0.715,-3.862 0,-3.862 l -1.073,0 c -0.715,0 -1.072,0.368 -1.072,1.103 l 0,3.035 c 0,0.735 0.357,1.103 1.072,1.103 l 1.073,0 c 0.715,0 1.073,-0.368 1.073,-1.103 m 0.268,0 C 1.341,1.195 0.894,1.655 0,1.655 l -1.073,0 c -0.894,0 -1.34,-0.46 -1.34,-1.379 l 0,-3.035 c 0,-0.919 0.446,-1.379 1.34,-1.379 l 1.073,0 c 0.894,0 1.341,0.46 1.341,1.379 l 0,3.035 z m 1.072,0 0,-3.035 C 2.413,-4.414 1.609,-5.241 0,-5.241 l -1.073,0 c -1.609,0 -2.413,0.827 -2.413,2.482 l 0,3.035 c 0,1.655 0.804,2.483 2.413,2.483 l 1.073,0 c 1.609,0 2.413,-0.828 2.413,-2.483" /></g><g
           transform="translate(105.1706,33.855)"
           id="g138"><path
             id="path140"
             style="fill:#d05627;fill-opacity:1;fill-rule:nonzero;stroke:none"
             d="M 0,0 C -0.008,0.024 -0.014,0.051 -0.021,0.076 L 0,0.076 0,0 Z m 1.511,0.628 c -0.179,0 -0.268,0.092 -0.268,0.276 l 0,5.241 -2.414,0 0,-5.517 c 0,-1.655 0.805,-2.483 2.414,-2.483 l 3.218,0 0,2.483 -2.95,0 z" /></g><path
           id="path142"
           style="fill:#d05627;fill-opacity:1;fill-rule:nonzero;stroke:none"
           d="m 110.167,32 2.413,0 0,8 -2.413,0 0,-8 z" /><g
           transform="translate(116.6031,37.2414)"
           id="g144"><path
             id="path146"
             style="fill:#d05627;fill-opacity:1;fill-rule:nonzero;stroke:none"
             d="m 0,0 -1.073,0 0,0.276 1.073,0 C 0.179,0.276 0.268,0.23 0.268,0.138 0.268,0.046 0.179,0 0,0 m 0,-2.759 -1.073,0 0,0.276 1.073,0 c 0.179,0 0.268,-0.046 0.268,-0.138 C 0.268,-2.713 0.179,-2.759 0,-2.759 M 2.682,0.138 C 2.682,0.855 2.433,1.471 1.935,1.986 1.438,2.501 0.882,2.759 0.268,2.759 l -3.754,0 0,-8 3.754,0 c 0.614,0 1.17,0.257 1.667,0.772 0.498,0.515 0.747,1.131 0.747,1.848 0,0.521 -0.123,0.978 -0.367,1.37 0.244,0.393 0.367,0.856 0.367,1.389" /></g><g
           transform="translate(216.5,128.9788)"
           id="g148"><path
             id="path150"
             style="fill:#d05627;fill-opacity:1;fill-rule:nonzero;stroke:none"
             d="m 0,0 -1.434,6.325 -6.599,4.969 -7.516,-0.395 -5.164,-5.252 0,-6.494 5.795,-4.913 3.672,0 3.672,1.525 2.295,4.179 -1.262,4.969 -3.443,2.146 -3.155,-0.057 -2.812,-2.597 -0.115,-3.219 3.271,-2.711 c 0,0 2.295,0.17 2.295,0.339 0,0.17 0.402,1.638 0.143,1.638 -0.258,0 -1.692,0.395 -1.692,0.395 l -1.779,1.412 0.746,2.315 2.582,0.395 2.754,-2.202 0,-3.332 -1.492,-2.541 -4.877,-0.734 -4.303,3.784 0,5.703 4.418,3.897 6.082,-0.396 4.877,-4.517 0.287,-6.833 -4.361,-5.422 -6.139,-1.355 -8.09,3.445 L -24.5,0 l 1.377,8.132 7.344,6.324 8.377,0.565 5.91,-2.597 L 2.18,7.68 3.5,0.96 0,0 Z" /></g><g
           transform="translate(194.6806,118.8947)"
           id="g152"><path
             id="path154"
             style="fill:#d05627;fill-opacity:1;fill-rule:nonzero;stroke:none"
             d="m 0,0 c -0.151,0.258 -0.488,0.282 -0.79,0.282 l -0.976,0 0,-1.315 0.687,0 c 0.412,0 1.182,0.03 1.182,0.691 C 0.103,-0.216 0.062,-0.102 0,0 m 0.124,-2.823 c -0.262,0.414 -0.853,1.171 -1.114,1.46 l -0.776,0 0,-1.13 0.542,0 0,-0.33 -1.457,0 0,0.33 0.543,0 0,2.775 -0.543,0 0,0.331 2.014,0 c 0.818,0 1.141,-0.427 1.141,-0.943 0,-0.703 -0.605,-0.955 -1.052,-1.021 0.269,-0.295 0.667,-0.811 0.894,-1.142 l 0.694,0 0,-0.33 -0.886,0 z" /></g><g
           transform="translate(197.9061,118.4203)"
           id="g156"><path
             id="path158"
             style="fill:#d05627;fill-opacity:1;fill-rule:nonzero;stroke:none"
             d="m 0,0 c -0.777,0 -1.182,-0.402 -1.237,-0.757 l 2.399,0 C 1.162,-0.606 0.949,0 0,0 m 0.034,-2.42 c -1.203,0 -1.677,0.666 -1.677,1.375 0,0.829 0.729,1.381 1.643,1.381 1.106,0 1.567,-0.666 1.567,-1.423 l -2.818,0 0,-0.048 c 0,-0.318 0.206,-0.643 0.454,-0.781 0.261,-0.144 0.57,-0.18 0.893,-0.18 0.323,0 0.859,0.108 1.395,0.372 L 1.608,-2.042 C 1.162,-2.258 0.591,-2.42 0.034,-2.42" /></g><path
           id="path160"
           style="fill:#d05627;fill-opacity:1;fill-rule:nonzero;stroke:none"
           d="m 201.757,120 0.488,0 0,-0.739 -0.488,0 0,0.739 z m -1.1,-3.928 0,0.33 1.21,0 0,1.946 -1.044,0 0,0.331 1.422,0 0,-2.277 1.189,0 0,-0.33 -2.777,0 z" /><g
           transform="translate(206.2062,116)"
           id="g162"><path
             id="path164"
             style="fill:#d05627;fill-opacity:1;fill-rule:nonzero;stroke:none"
             d="m 0,0 c -0.866,0 -1.629,0.522 -1.629,1.411 0,0.547 0.474,1.346 1.663,1.346 0.399,0 0.729,-0.102 1.045,-0.289 l 0,0.289 0.378,0 0,-1.051 -0.378,0 0,0.414 c -0.296,0.216 -0.66,0.3 -1.052,0.3 -0.783,0 -1.278,-0.492 -1.278,-1.027 0,-0.39 0.296,-1.069 1.368,-1.069 0.557,0 1.093,0.348 1.264,0.481 L 1.533,0.474 C 1.127,0.198 0.639,0 0,0" /></g><g
           transform="translate(211.0675,117.273)"
           id="g166"><path
             id="path168"
             style="fill:#d05627;fill-opacity:1;fill-rule:nonzero;stroke:none"
             d="m 0,0 c -0.289,0.042 -0.577,0.078 -0.88,0.078 -0.323,0 -0.694,-0.012 -0.948,-0.168 -0.138,-0.084 -0.248,-0.216 -0.248,-0.379 0,-0.227 0.296,-0.474 0.715,-0.474 0.557,0 1.017,0.282 1.361,0.643 L 0,0 Z m 0.007,-1.201 0,0.505 c -0.378,-0.319 -0.852,-0.577 -1.375,-0.577 -0.701,0 -1.092,0.42 -1.092,0.811 0,0.354 0.364,0.877 1.491,0.877 0.33,0 0.667,-0.042 0.969,-0.084 l 0,0.185 c 0,0.199 -0.048,0.409 -0.227,0.505 -0.199,0.108 -0.426,0.126 -0.66,0.126 -0.467,0 -0.962,-0.162 -1.175,-0.252 l -0.096,0.324 c 0.399,0.144 0.873,0.265 1.34,0.265 0.584,0 0.928,-0.181 1.072,-0.415 0.103,-0.162 0.117,-0.33 0.117,-0.492 l 0,-1.448 0.564,0 0,-0.33 -0.928,0 z" /></g><g
           transform="translate(214.5749,116)"
           id="g170"><path
             id="path172"
             style="fill:#d05627;fill-opacity:1;fill-rule:nonzero;stroke:none"
             d="m 0,0 c -0.55,0 -0.886,0.132 -1.223,0.27 l 0,-0.27 -0.378,0 0,1.021 0.378,0 0,-0.354 c 0.33,-0.223 0.708,-0.337 1.141,-0.337 0.254,0 1.01,0.048 1.01,0.493 0,0.036 -0.014,0.132 -0.048,0.174 -0.186,0.228 -0.543,0.186 -0.846,0.21 -0.508,0.036 -1.037,0.012 -1.402,0.3 -0.13,0.102 -0.178,0.265 -0.178,0.415 0,0.516 0.494,0.835 1.251,0.835 0.385,0 0.756,-0.078 1.065,-0.241 l 0,0.241 0.371,0 0,-0.949 -0.371,0 0,0.354 c -0.289,0.162 -0.667,0.264 -1.045,0.264 -0.295,0 -0.9,-0.078 -0.9,-0.45 0,-0.108 0.075,-0.216 0.179,-0.277 C -0.68,1.525 -0.048,1.543 0.426,1.513 0.9,1.483 1.306,1.357 1.306,0.859 1.306,0.342 0.763,0 0,0" /></g><g
           transform="translate(218.5427,116)"
           id="g174"><path
             id="path176"
             style="fill:#d05627;fill-opacity:1;fill-rule:nonzero;stroke:none"
             d="m 0,0 c -0.357,0 -1.1,0.108 -1.1,0.786 l 0,1.562 -0.487,0 0,0.331 0.487,0 0,0.774 0.372,0 0,-0.774 1.773,0 0,-0.331 -1.773,0 0,-1.417 c 0,-0.187 0.054,-0.403 0.254,-0.493 0.186,-0.084 0.364,-0.108 0.55,-0.108 0.467,0 0.983,0.21 1.34,0.331 L 1.457,0.336 C 1.024,0.174 0.509,0 0,0" /></g><g
           transform="translate(128.0022,114.2243)"
           id="g178"><path
             id="path180"
             style="fill:#e6e6e6;fill-opacity:1;fill-rule:nonzero;stroke:none"
             d="m 0,0 c -7.596,0 -13.786,6.176 -13.786,13.776 0,7.604 6.19,13.785 13.786,13.785 7.6,0 13.777,-6.181 13.777,-13.785 C 13.777,6.176 7.6,0 0,0 m 0.001,59.776 c -25.364,0 -46.003,-20.651 -46.003,-46 0,-25.349 20.639,-46 46.003,-46 25.338,0 45.997,20.651 45.997,46 0,25.349 -20.659,46 -45.997,46" /></g></g></g></g></svg>