<?xml version="1.0" encoding="UTF-8" standalone="no"?>
<svg
   xmlns:dc="http://purl.org/dc/elements/1.1/"
   xmlns:cc="http://creativecommons.org/ns#"
   xmlns:rdf="http://www.w3.org/1999/02/22-rdf-syntax-ns#"
   xmlns:svg="http://www.w3.org/2000/svg"
   xmlns="http://www.w3.org/2000/svg"
   viewBox="0 0 320 320"
   height="320"
   width="320"
   xml:space="preserve"
   version="1.1"
   id="svg2"><metadata
     id="metadata8"><rdf:RDF><cc:Work
         rdf:about=""><dc:format>image/svg+xml</dc:format><dc:type
           rdf:resource="http://purl.org/dc/dcmitype/StillImage" /></cc:Work></rdf:RDF></metadata><defs
     id="defs6"><clipPath
       id="clipPath16"
       clipPathUnits="userSpaceOnUse"><path
         id="path18"
         d="M 0,256 256,256 256,0 0,0 0,256 Z" /></clipPath><clipPath
       id="clipPath24"
       clipPathUnits="userSpaceOnUse"><path
         id="path26"
         d="M 4,212 252,212 252,44 4,44 4,212 Z" /></clipPath></defs><g
     transform="matrix(1.25,0,0,-1.25,0,320)"
     id="g10"><g
       id="g12"><g
         clip-path="url(#clipPath16)"
         id="g14"><g
           id="g20"><g
             id="g22" /><g
             id="g28"><g
               style="opacity:0.5"
               id="g30"
               clip-path="url(#clipPath24)"><g
                 id="g32"
                 transform="translate(240.2581,212)"><path
                   id="path34"
                   style="fill:#ffffff;fill-opacity:1;fill-rule:nonzero;stroke:none"
                   d="m 0,0 -224.516,0 c -6.475,0 -11.742,-5.293 -11.742,-11.8 l 0,-32.2 c 0,-0.838 0.129,-1.645 0.367,-2.404 -0.239,-0.808 -0.367,-1.665 -0.367,-2.55 l 0,-2.092 c 0,-1.034 0.175,-2.028 0.497,-2.954 -0.322,-0.925 -0.497,-1.919 -0.497,-2.954 l 0,-2.092 c 0,-0.885 0.128,-1.742 0.367,-2.55 -0.238,-0.759 -0.367,-1.566 -0.367,-2.404 l 0,-92.2 c 0,-6.507 5.267,-11.8 11.742,-11.8 L 0,-168 c 6.475,0 11.742,5.293 11.742,11.8 l 0,92.2 c 0,0.838 -0.129,1.645 -0.367,2.404 0.238,0.808 0.367,1.665 0.367,2.55 l 0,2.092 c 0,1.035 -0.175,2.029 -0.497,2.954 0.322,0.926 0.497,1.92 0.497,2.954 l 0,2.092 c 0,0.885 -0.128,1.742 -0.367,2.55 0.238,0.759 0.367,1.566 0.367,2.404 l 0,32.2 C 11.742,-5.293 6.475,0 0,0" /></g></g></g></g><g
           transform="translate(244,168)"
           id="g36"><path
             id="path38"
             style="fill:#191919;fill-opacity:1;fill-rule:nonzero;stroke:none"
             d="M 0,0 0,32.2 C 0,34.305 -1.669,36 -3.742,36 l -224.516,0 C -230.331,36 -232,34.305 -232,32.2 l 0,-32.2 4,0 0,-4 -3.107,0 C -231.6,-4 -232,-4.427 -232,-4.954 l 0,-2.092 c 0,-0.527 0.4,-0.954 0.893,-0.954 l 3.107,0 0,-4 -3.107,0 c -0.493,0 -0.893,-0.427 -0.893,-0.954 l 0,-2.092 c 0,-0.527 0.4,-0.954 0.893,-0.954 l 3.107,0 0,-4 -4,0 0,-92.2 c 0,-2.105 1.669,-3.8 3.742,-3.8 l 224.516,0 c 2.073,0 3.742,1.695 3.742,3.8 l 0,92.2 -4,0 0,4 3.107,0 C -0.4,-16 0,-15.573 0,-15.046 l 0,2.092 C 0,-12.427 -0.4,-12 -0.893,-12 l -3.107,0 0,4 3.107,0 C -0.4,-8 0,-7.573 0,-7.046 l 0,2.092 C 0,-4.427 -0.4,-4 -0.893,-4 L -4,-4 -4,0 0,0 Z" /></g><path
           id="path40"
           style="fill:#000000;fill-opacity:1;fill-rule:nonzero;stroke:none"
           d="m 16,160 224,0 0,-4 -224,0 0,4 z" /><path
           id="path42"
           style="fill:#000000;fill-opacity:1;fill-rule:nonzero;stroke:none"
           d="m 16,152 224,0 0,-4 -224,0 0,4 z" /><path
           id="path44"
           style="fill:#000000;fill-opacity:1;fill-rule:nonzero;stroke:none"
           d="m 16,168 224,0 0,-4 -224,0 0,4 z" /><g
           transform="translate(236.2667,204)"
           id="g46"><path
             id="path48"
             style="fill:#b80000;fill-opacity:1;fill-rule:nonzero;stroke:none"
             d="m 0,0 -216.533,0 -3.734,0 0,-3.556 0,-24.888 c 0,-1.964 1.672,-3.556 3.734,-3.556 L 0,-32 c 2.062,0 3.733,1.592 3.733,3.556 l 0,24.888 L 3.733,0 0,0 Z" /></g><g
           transform="translate(201.8098,192)"
           id="g50"><path
             id="path52"
             style="fill:#ffffff;fill-opacity:1;fill-rule:nonzero;stroke:none"
             d="m 0,0 -1.341,0 -1.676,2.759 0,-2.759 -1.341,0 0,3.862 2.012,0 L 0,0 Z M 0,5.379 C 0,5.036 -0.147,4.743 -0.441,4.501 -0.736,4.259 -1.035,4.138 -1.341,4.138 l -3.352,0 0,-4.138 -1.341,0 0,5.241 4.358,0 c 0.223,0 0.335,0.046 0.335,0.138 0,0.092 -0.112,0.138 -0.335,0.138 l -4.358,0 0,1.104 4.693,0 c 0.306,0 0.605,-0.123 0.9,-0.368 C -0.147,6.008 0,5.716 0,5.379 m 1.676,0 C 1.676,4.656 1.451,4.109 1,3.738 0.549,3.367 0.168,3.117 -0.145,2.989 L 1.676,0 0.335,0 l -2.346,3.862 0.67,0 c 0.395,0 0.773,0.149 1.134,0.446 0.362,0.297 0.542,0.654 0.542,1.071 0,0.411 -0.18,0.767 -0.542,1.067 -0.361,0.3 -0.739,0.451 -1.134,0.451 l -4.693,0 0,1.103 4.693,0 C -0.574,8 0.121,7.743 0.743,7.228 1.365,6.713 1.676,6.097 1.676,5.379" /></g><g
           transform="translate(204.1562,197.5172)"
           id="g54"><path
             id="path56"
             style="fill:#ffffff;fill-opacity:1;fill-rule:nonzero;stroke:none"
             d="m 0,0 c 0,1.655 1.006,2.483 3.017,2.483 l 4.022,0 0,-1.104 -4.022,0 C 1.899,1.379 1.341,0.92 1.341,0 l 0,-3.034 c 0,-0.92 0.558,-1.38 1.676,-1.38 l 4.022,0 0,-1.103 -4.022,0 C 1.006,-5.517 0,-4.69 0,-3.034 L 0,0 Z" /></g><g
           transform="translate(205.8322,196.1379)"
           id="g58"><path
             id="path60"
             style="fill:#ffffff;fill-opacity:1;fill-rule:nonzero;stroke:none"
             d="m 0,0 0,1.379 c 0,0.736 0.447,1.104 1.341,1.104 l 4.022,0 0,-1.104 -3.687,0 C 1.453,1.379 1.341,1.287 1.341,1.103 l 3.017,0 L 4.358,0 0,0 Z" /></g><g
           transform="translate(205.8322,195.8621)"
           id="g62"><path
             id="path64"
             style="fill:#ffffff;fill-opacity:1;fill-rule:nonzero;stroke:none"
             d="m 0,0 4.358,0 0,-1.103 -3.017,0 c 0,-0.184 0.112,-0.276 0.335,-0.276 l 3.687,0 0,-1.104 -4.022,0 C 0.447,-2.483 0,-2.115 0,-1.379 L 0,0 Z" /></g><g
           transform="translate(215.8881,198.6207)"
           id="g66"><path
             id="path68"
             style="fill:#ffffff;fill-opacity:1;fill-rule:nonzero;stroke:none"
             d="m 0,0 3.687,0 0,-1.103 -2.346,0 0,-5.518 L 0,-6.621 0,0 Z m -0.335,0 0,-6.621 -1.341,0 0,5.518 -2.346,0 0,1.103 3.687,0 z m 4.022,0.276 -7.71,0 0,1.103 7.71,0 0,-1.103 z" /></g><g
           transform="translate(226.2793,192)"
           id="g70"><path
             id="path72"
             style="fill:#ffffff;fill-opacity:1;fill-rule:nonzero;stroke:none"
             d="m 0,0 -1.341,0 -1.676,2.759 0,-2.759 -1.341,0 0,3.862 2.012,0 L 0,0 Z M 0,5.379 C 0,5.036 -0.147,4.743 -0.441,4.501 -0.736,4.259 -1.035,4.138 -1.341,4.138 l -3.352,0 0,-4.138 -1.341,0 0,5.241 4.358,0 c 0.223,0 0.335,0.046 0.335,0.138 0,0.092 -0.112,0.138 -0.335,0.138 l -4.358,0 0,1.104 4.693,0 c 0.306,0 0.605,-0.123 0.9,-0.368 C -0.147,6.008 0,5.716 0,5.379 m 1.676,0 C 1.676,4.656 1.451,4.109 1,3.738 0.549,3.367 0.168,3.117 -0.145,2.989 L 1.676,0 0.335,0 l -2.346,3.862 0.67,0 c 0.395,0 0.773,0.149 1.134,0.446 0.362,0.297 0.542,0.654 0.542,1.071 0,0.411 -0.18,0.767 -0.542,1.067 -0.361,0.3 -0.739,0.451 -1.134,0.451 l -4.693,0 0,1.103 4.693,0 C -0.574,8 0.121,7.743 0.743,7.228 1.365,6.713 1.676,6.097 1.676,5.379" /></g><g
           transform="translate(232.9832,197.2414)"
           id="g74"><path
             id="path76"
             style="fill:#ffffff;fill-opacity:1;fill-rule:nonzero;stroke:none"
             d="m 0,0 c 0,0.184 -0.112,0.276 -0.335,0.276 l -0.671,0 C -1.229,0.276 -1.341,0.184 -1.341,0 l 0,-2.483 c 0,-0.184 0.112,-0.276 0.335,-0.276 l 0.671,0 C -0.112,-2.759 0,-2.667 0,-2.483 L 0,0 Z m 1.341,0.276 0,-3.035 C 1.341,-3.494 0.894,-3.862 0,-3.862 l -1.341,0 c -0.894,0 -1.341,0.368 -1.341,1.103 l 0,3.035 c 0,0.735 0.447,1.103 1.341,1.103 l 1.341,0 c 0.894,0 1.341,-0.368 1.341,-1.103 m 0.335,0 C 1.676,1.195 1.117,1.655 0,1.655 l -1.341,0 c -1.117,0 -1.676,-0.46 -1.676,-1.379 l 0,-3.035 c 0,-0.919 0.559,-1.379 1.676,-1.379 l 1.341,0 c 1.117,0 1.676,0.46 1.676,1.379 l 0,3.035 z m 1.341,0 0,-3.035 C 3.017,-4.414 2.011,-5.241 0,-5.241 l -1.341,0 c -2.011,0 -3.017,0.827 -3.017,2.482 l 0,3.035 c 0,1.655 1.006,2.483 3.017,2.483 l 1.341,0 c 2.011,0 3.017,-0.828 3.017,-2.483" /></g><g
           transform="translate(177.4632,193.855)"
           id="g78"><path
             id="path80"
             style="fill:#ffffff;fill-opacity:1;fill-rule:nonzero;stroke:none"
             d="M 0,0 C -0.01,0.024 -0.018,0.051 -0.027,0.076 L 0,0.076 0,0 Z m 1.889,0.628 c -0.224,0 -0.335,0.092 -0.335,0.276 l 0,5.241 -3.017,0 0,-5.517 c 0,-1.655 1.005,-2.483 3.017,-2.483 l 4.022,0 0,2.483 -3.687,0 z" /></g><path
           id="path82"
           style="fill:#ffffff;fill-opacity:1;fill-rule:nonzero;stroke:none"
           d="m 183.709,192 3.017,0 0,8 -3.017,0 0,-8 z" /><g
           transform="translate(191.7538,197.2414)"
           id="g84"><path
             id="path86"
             style="fill:#ffffff;fill-opacity:1;fill-rule:nonzero;stroke:none"
             d="m 0,0 -1.341,0 0,0.276 1.341,0 C 0.223,0.276 0.335,0.23 0.335,0.138 0.335,0.046 0.223,0 0,0 m 0,-2.759 -1.341,0 0,0.276 1.341,0 c 0.223,0 0.335,-0.046 0.335,-0.138 C 0.335,-2.713 0.223,-2.759 0,-2.759 M 3.352,0.138 C 3.352,0.855 3.041,1.471 2.419,1.986 1.797,2.501 1.102,2.759 0.335,2.759 l -4.693,0 0,-8 4.693,0 c 0.767,0 1.462,0.257 2.084,0.772 0.622,0.515 0.933,1.131 0.933,1.848 0,0.521 -0.153,0.978 -0.458,1.37 0.305,0.393 0.458,0.856 0.458,1.389" /></g><g
           transform="translate(24.4836,191.8554)"
           id="g88"><path
             id="path90"
             style="fill:#ffffff;fill-opacity:1;fill-rule:nonzero;stroke:none"
             d="M 0,0 2.893,-8.448 5.308,0 l 4.759,0 0,-0.164 C 9.025,-0.164 8.338,-0.236 8.006,-0.381 7.891,-0.43 7.823,-0.479 7.8,-0.527 7.742,-0.637 7.714,-0.855 7.714,-1.182 l 0,-9.311 c 0,-0.364 0.023,-0.588 0.068,-0.673 0.023,-0.048 0.107,-0.1 0.25,-0.154 0.142,-0.055 0.392,-0.1 0.747,-0.137 0.355,-0.036 0.784,-0.054 1.288,-0.054 l 0,-0.181 -6.631,0 0,0.181 c 0.412,0 0.793,0.018 1.143,0.054 0.349,0.037 0.59,0.082 0.721,0.136 0.131,0.055 0.209,0.107 0.232,0.154 0.046,0.098 0.069,0.321 0.069,0.672 l -0.017,9.878 c 0,0.205 -0.023,0.309 -0.069,0.309 -0.046,0 -0.098,-0.091 -0.154,-0.272 l -3.137,-11.112 -0.377,0 -3.703,11.112 -0.136,0.272 c -0.035,0 -0.052,-0.104 -0.052,-0.309 l 0,-7.595 c 0,-1.341 0.169,-2.226 0.507,-2.656 0.337,-0.429 0.976,-0.643 1.915,-0.643 l 0,-0.181 -4.862,0 0,0.181 c 0.802,0 1.369,0.218 1.701,0.654 0.332,0.437 0.499,1.177 0.499,2.219 l 0,5.62 c 0,1.066 -0.155,1.809 -0.465,2.227 -0.309,0.419 -0.887,0.627 -1.735,0.627 l 0,0.182 L 0,0 Z" /></g><g
           transform="translate(37.7057,182.1479)"
           id="g92"><path
             id="path94"
             style="fill:#ffffff;fill-opacity:1;fill-rule:nonzero;stroke:none"
             d="M 0,0 0,2.423 C -0.137,2.229 -0.341,2.11 -0.61,2.068 -0.879,2.025 -1.139,1.986 -1.392,1.949 -1.724,1.865 -1.987,1.671 -2.182,1.367 -2.411,1.002 -2.526,0.492 -2.526,-0.163 c 0,-0.705 0.067,-1.182 0.198,-1.43 0.132,-0.25 0.341,-0.373 0.627,-0.373 0.436,0 0.828,0.191 1.177,0.573 C -0.175,-1.011 0,-0.547 0,0 m 0.052,3.279 0,1.057 c 0,0.485 -0.074,0.813 -0.22,0.983 -0.146,0.17 -0.461,0.255 -0.944,0.255 -0.394,0 -0.74,-0.08 -1.036,-0.24 -0.297,-0.161 -0.492,-0.377 -0.583,-0.648 0.045,0.012 0.103,0.018 0.171,0.018 0.218,0 0.396,-0.09 0.533,-0.272 0.138,-0.181 0.206,-0.387 0.206,-0.616 0,-0.266 -0.087,-0.484 -0.26,-0.652 -0.173,-0.17 -0.376,-0.254 -0.607,-0.254 -0.151,0 -0.284,0.042 -0.4,0.127 -0.335,0.229 -0.502,0.519 -0.502,0.869 0,0.169 0.034,0.363 0.103,0.581 0.16,0.471 0.561,0.816 1.203,1.032 0.457,0.158 0.921,0.236 1.391,0.236 0.847,0 1.489,-0.168 1.924,-0.506 C 1.42,4.948 1.615,4.568 1.615,4.11 l 0,-3.996 c 0,-0.724 0.017,-1.17 0.051,-1.339 0.08,-0.41 0.286,-0.615 0.619,-0.615 0.298,0 0.498,0.162 0.601,0.486 0.103,0.325 0.349,1.302 0.361,1.073 0,-0.701 -0.081,-1.172 -0.242,-1.414 -0.207,-0.302 -0.628,-0.453 -1.261,-0.453 -0.495,0 -0.863,0.09 -1.105,0.269 -0.288,0.216 -0.478,0.582 -0.57,1.096 -0.241,-0.587 -0.602,-0.982 -1.083,-1.186 -0.286,-0.119 -0.669,-0.179 -1.15,-0.179 -0.482,0 -0.9,0.121 -1.254,0.363 -0.493,0.327 -0.739,0.823 -0.739,1.488 0,0.654 0.239,1.204 0.718,1.652 0.479,0.436 1.061,0.684 1.745,0.744 0.685,0.061 1.147,0.157 1.386,0.291 0.24,0.133 0.36,0.429 0.36,0.889" /></g><g
           transform="translate(44.4657,187.3413)"
           id="g96"><path
             id="path98"
             style="fill:#ffffff;fill-opacity:1;fill-rule:nonzero;stroke:none"
             d="m 0,0 c 0.447,0.35 0.682,0.538 0.705,0.562 l 0,-2.719 -0.138,0.036 c -0.161,0.725 -0.447,1.317 -0.859,1.777 -0.447,0.495 -0.939,0.743 -1.477,0.743 -0.413,0 -0.751,-0.085 -1.014,-0.254 -0.355,-0.23 -0.533,-0.61 -0.533,-1.142 0,-0.435 0.194,-0.773 0.582,-1.015 0.274,-0.169 0.821,-0.356 1.644,-0.562 0.821,-0.205 1.397,-0.447 1.728,-0.725 0.468,-0.387 0.702,-1.003 0.702,-1.849 0,-0.786 -0.252,-1.366 -0.756,-1.74 -0.401,-0.302 -0.905,-0.453 -1.512,-0.453 -0.504,0 -0.864,0.036 -1.082,0.108 -0.321,0.109 -0.67,0.369 -1.048,0.78 -0.458,-0.568 -0.699,-0.864 -0.722,-0.888 l 0,3.208 0.121,0 c 0.195,-0.749 0.356,-1.269 0.483,-1.559 0.172,-0.398 0.356,-0.695 0.552,-0.888 0.264,-0.266 0.514,-0.432 0.75,-0.499 0.235,-0.066 0.589,-0.099 1.061,-0.099 0.357,0 0.649,0.096 0.88,0.29 0.276,0.229 0.414,0.556 0.414,0.978 0,0.545 -0.184,0.949 -0.552,1.215 -0.288,0.205 -0.796,0.387 -1.526,0.544 -0.73,0.157 -1.296,0.411 -1.699,0.761 -0.483,0.423 -0.724,0.985 -0.724,1.686 0,0.629 0.203,1.163 0.61,1.604 0.406,0.442 0.902,0.662 1.486,0.662 0.446,0 0.836,-0.079 1.168,-0.236 C -0.321,0.121 -0.069,0.012 0,0" /></g><g
           transform="translate(50.541,184.0243)"
           id="g100"><path
             id="path102"
             style="fill:#ffffff;fill-opacity:1;fill-rule:nonzero;stroke:none"
             d="m 0,0 0,-0.834 c 0,-0.278 0.006,-0.544 0.017,-0.798 0,-0.846 -0.091,-1.426 -0.274,-1.74 -0.253,-0.435 -0.739,-0.652 -1.461,-0.652 -0.687,0 -1.191,0.174 -1.512,0.526 -0.32,0.35 -0.48,0.852 -0.48,1.504 l 0,5.148 -1.375,0 0,0.163 c 0.94,0.243 1.647,0.819 2.123,1.73 0.383,0.728 0.574,1.547 0.574,2.457 l 0.292,0 0,-3.824 1.976,0 0,-0.526 -1.976,0 0,-4.918 c 0,-0.651 0.023,-1.073 0.067,-1.265 0.113,-0.458 0.366,-0.687 0.76,-0.687 0.461,0 0.765,0.264 0.911,0.794 0.101,0.36 0.152,1.046 0.152,2.056 L -0.206,0 0,0 Z" /></g><g
           transform="translate(55.0653,184.1151)"
           id="g104"><path
             id="path106"
             style="fill:#ffffff;fill-opacity:1;fill-rule:nonzero;stroke:none"
             d="m 0,0 c 0,1.171 -0.099,2.065 -0.297,2.682 -0.198,0.617 -0.518,0.925 -0.96,0.925 -0.622,0 -1.061,-0.293 -1.315,-0.879 C -2.828,2.142 -2.955,1.233 -2.955,0 L 0,0 Z m -2.955,-0.218 c 0,-1.299 0.146,-2.24 0.438,-2.823 0.293,-0.584 0.737,-0.875 1.332,-0.875 0.629,0 1.185,0.225 1.667,0.675 0.583,0.547 0.876,1.289 0.876,2.225 l 0.137,0 c 0,-0.905 -0.275,-1.649 -0.825,-2.229 -0.55,-0.58 -1.282,-0.87 -2.199,-0.87 -0.767,0 -1.466,0.308 -2.095,0.924 -0.745,0.725 -1.118,1.674 -1.118,2.847 0,1.268 0.367,2.302 1.1,3.099 0.642,0.689 1.363,1.033 2.165,1.033 0.744,0 1.362,-0.229 1.855,-0.689 C 1.1,2.422 1.46,1.317 1.46,-0.218 l -4.415,0 z" /></g><g
           transform="translate(58.1804,186.7011)"
           id="g108"><path
             id="path110"
             style="fill:#ffffff;fill-opacity:1;fill-rule:nonzero;stroke:none"
             d="M 0,0 C 0,0.243 -0.023,0.395 -0.069,0.457 -0.15,0.578 -0.224,0.651 -0.292,0.676 -0.498,0.737 -0.968,0.767 -1.701,0.767 l 0,0.163 3.316,0.272 0,-2.302 c 0.045,0.495 0.206,0.961 0.481,1.396 0.377,0.604 0.853,0.906 1.426,0.906 0.217,0 0.452,-0.076 0.704,-0.226 0.251,-0.151 0.42,-0.342 0.506,-0.571 0.086,-0.23 0.13,-0.435 0.13,-0.617 0,-0.483 -0.191,-0.815 -0.573,-0.997 -0.093,-0.048 -0.214,-0.072 -0.365,-0.072 -0.231,0 -0.427,0.084 -0.589,0.254 -0.162,0.168 -0.243,0.422 -0.243,0.761 0,0.217 0.078,0.435 0.234,0.652 C 3.483,0.604 3.664,0.688 3.873,0.64 3.804,0.894 3.599,1.021 3.257,1.021 2.926,1.021 2.596,0.766 2.265,0.256 1.831,-0.4 1.615,-1.244 1.615,-2.276 l 0,-3.389 c 0,-0.242 0.017,-0.4 0.051,-0.473 0.023,-0.036 0.075,-0.073 0.155,-0.109 0.24,-0.085 0.738,-0.128 1.494,-0.128 l 0,-0.163 -5.016,0 0,0.163 c 0.332,0 0.633,0.012 0.902,0.037 0.269,0.024 0.501,0.073 0.696,0.146 C -0.035,-6.132 0,-5.955 0,-5.663 L 0,0 Z" /></g><g
           transform="translate(71.9401,191.8554)"
           id="g112"><path
             id="path114"
             style="fill:#ffffff;fill-opacity:1;fill-rule:nonzero;stroke:none"
             d="M 0,0 2.893,-8.448 5.308,0 l 4.759,0 0,-0.164 C 9.024,-0.164 8.338,-0.236 8.005,-0.381 7.891,-0.43 7.822,-0.479 7.8,-0.527 7.742,-0.637 7.714,-0.855 7.714,-1.182 l 0,-9.311 c 0,-0.364 0.023,-0.588 0.069,-0.673 0.022,-0.048 0.105,-0.1 0.249,-0.154 0.142,-0.055 0.391,-0.1 0.746,-0.137 0.356,-0.036 0.785,-0.054 1.289,-0.054 l 0,-0.181 -6.631,0 0,0.181 c 0.413,0 0.793,0.018 1.143,0.054 0.349,0.037 0.59,0.082 0.721,0.136 0.131,0.055 0.208,0.107 0.232,0.154 0.046,0.098 0.069,0.321 0.069,0.672 l -0.017,9.878 c 0,0.205 -0.024,0.309 -0.069,0.309 -0.046,0 -0.098,-0.091 -0.155,-0.272 l -3.136,-11.112 -0.377,0 -3.703,11.112 -0.136,0.272 c -0.035,0 -0.052,-0.104 -0.052,-0.309 l 0,-7.595 c 0,-1.341 0.169,-2.226 0.508,-2.656 0.336,-0.429 0.975,-0.643 1.915,-0.643 l 0,-0.181 -4.863,0 0,0.181 c 0.802,0 1.369,0.218 1.701,0.654 0.332,0.437 0.499,1.177 0.499,2.219 l 0,5.62 c 0,1.066 -0.155,1.809 -0.465,2.227 -0.309,0.419 -0.887,0.627 -1.735,0.627 l 0,0.182 L 0,0 Z" /></g><g
           transform="translate(84.9749,182.1479)"
           id="g116"><path
             id="path118"
             style="fill:#ffffff;fill-opacity:1;fill-rule:nonzero;stroke:none"
             d="M 0,0 0,2.423 C -0.137,2.229 -0.341,2.11 -0.61,2.068 -0.879,2.025 -1.139,1.986 -1.391,1.949 -1.724,1.865 -1.987,1.671 -2.182,1.367 -2.41,1.002 -2.525,0.492 -2.525,-0.163 c 0,-0.705 0.066,-1.182 0.197,-1.43 0.132,-0.25 0.341,-0.373 0.628,-0.373 0.435,0 0.826,0.191 1.176,0.573 C -0.175,-1.011 0,-0.547 0,0 m 0.052,3.279 0,1.057 c 0,0.485 -0.073,0.813 -0.22,0.983 -0.147,0.17 -0.461,0.255 -0.945,0.255 -0.393,0 -0.738,-0.08 -1.036,-0.24 -0.296,-0.161 -0.491,-0.377 -0.583,-0.648 0.046,0.012 0.104,0.018 0.172,0.018 0.218,0 0.396,-0.09 0.533,-0.272 C -1.89,4.251 -1.82,4.045 -1.82,3.816 -1.82,3.55 -1.908,3.332 -2.082,3.164 -2.255,2.994 -2.458,2.91 -2.688,2.91 c -0.151,0 -0.284,0.042 -0.399,0.127 -0.335,0.229 -0.503,0.519 -0.503,0.869 0,0.169 0.033,0.363 0.103,0.581 0.16,0.471 0.561,0.816 1.203,1.032 0.457,0.158 0.921,0.236 1.391,0.236 0.847,0 1.489,-0.168 1.923,-0.506 C 1.42,4.948 1.615,4.568 1.615,4.11 l 0,-3.996 c 0,-0.724 0.017,-1.17 0.051,-1.339 0.08,-0.41 0.287,-0.615 0.618,-0.615 0.298,0 0.538,-0.058 0.403,-0.129 -0.23,-0.119 -0.544,-0.179 -0.942,-0.179 -0.497,0 -0.864,0.09 -1.106,0.269 -0.288,0.216 -0.478,0.582 -0.57,1.096 -0.241,-0.587 -0.602,-0.982 -1.083,-1.186 -0.286,-0.119 -0.669,-0.179 -1.15,-0.179 -0.481,0 -0.899,0.121 -1.254,0.363 -0.494,0.327 -0.74,0.823 -0.74,1.488 0,0.654 0.241,1.204 0.719,1.652 0.479,0.436 1.061,0.684 1.746,0.744 0.684,0.061 1.146,0.157 1.385,0.291 0.24,0.133 0.36,0.429 0.36,0.889" /></g><g
           transform="translate(88.765,186.7011)"
           id="g120"><path
             id="path122"
             style="fill:#ffffff;fill-opacity:1;fill-rule:nonzero;stroke:none"
             d="M 0,0 C 0,0.243 -0.022,0.395 -0.069,0.457 -0.148,0.578 -0.222,0.651 -0.292,0.676 -0.498,0.737 -0.967,0.767 -1.7,0.767 l 0,0.163 3.315,0.272 0,-2.302 C 1.661,-0.605 1.822,-0.139 2.096,0.296 2.475,0.9 2.95,1.202 3.522,1.202 3.74,1.202 3.975,1.126 4.226,0.976 4.478,0.825 4.647,0.634 4.734,0.405 4.819,0.175 4.862,-0.03 4.862,-0.212 4.862,-0.695 4.671,-1.027 4.289,-1.209 4.197,-1.257 4.075,-1.281 3.926,-1.281 c -0.232,0 -0.428,0.084 -0.59,0.254 -0.162,0.168 -0.244,0.422 -0.244,0.761 0,0.217 0.079,0.435 0.235,0.652 C 3.483,0.604 3.664,0.688 3.873,0.64 3.804,0.894 3.6,1.021 3.257,1.021 2.926,1.021 2.596,0.766 2.265,0.256 1.831,-0.4 1.615,-1.244 1.615,-2.276 l 0,-3.389 c 0,-0.242 0.018,-0.4 0.051,-0.473 0.024,-0.036 0.075,-0.073 0.156,-0.109 0.24,-0.085 0.738,-0.128 1.494,-0.128 l 0,-0.163 -5.016,0 0,0.163 c 0.331,0 0.632,0.012 0.902,0.037 0.268,0.024 0.5,0.073 0.696,0.146 C -0.034,-6.132 0,-5.955 0,-5.663 L 0,0 Z" /></g><g
           transform="translate(95.7858,183.4261)"
           id="g124"><path
             id="path126"
             style="fill:#ffffff;fill-opacity:1;fill-rule:nonzero;stroke:none"
             d="M 0,0 0,-2.389 C 0,-2.632 0.017,-2.79 0.052,-2.863 0.074,-2.9 0.129,-2.936 0.215,-2.973 0.301,-3.009 0.452,-3.039 0.67,-3.063 0.888,-3.088 1.065,-3.1 1.202,-3.1 l 0,-0.163 -4.432,0 0,0.163 c 0.687,0 1.151,0.042 1.392,0.127 l 0.12,0.055 c 0.068,0.061 0.103,0.236 0.103,0.527 l 0,9.712 c 0,0.242 -0.035,0.415 -0.103,0.518 -0.069,0.103 -0.132,0.16 -0.189,0.173 -0.183,0.06 -0.618,0.091 -1.306,0.091 l 0,0.163 L 0,8.574 0,0.326 2.164,2.613 c 0.344,0.354 0.516,0.671 0.516,0.951 0,0.232 -0.12,0.412 -0.361,0.54 -0.24,0.128 -0.608,0.192 -1.1,0.192 l 0,0.181 3.934,0 0,-0.181 C 4.718,4.296 4.377,4.229 4.131,4.095 3.885,3.962 3.55,3.689 3.126,3.276 L 2.061,2.165 4.26,-2.462 C 4.386,-2.73 4.544,-2.903 4.732,-2.981 4.921,-3.06 5.234,-3.1 5.669,-3.1 l 0,-0.163 -4.191,0 0,0.163 c 0.377,0 0.669,0.009 0.875,0.027 0.207,0.019 0.31,0.106 0.31,0.265 0,0.072 -0.046,0.206 -0.138,0.4 L 0.91,0.979 0,0 Z" /></g><g
           transform="translate(110.2669,190.7099)"
           id="g128"><path
             id="path130"
             style="fill:#ffffff;fill-opacity:1;fill-rule:nonzero;stroke:none"
             d="m 0,0 0,-9.348 c 0,-0.351 0.024,-0.575 0.07,-0.672 0.022,-0.049 0.091,-0.097 0.205,-0.146 0.332,-0.133 1.014,-0.199 2.044,-0.199 l 0,-0.182 -6.768,0 0,0.182 c 0.493,0 0.919,0.017 1.28,0.053 0.36,0.037 0.606,0.082 0.739,0.138 0.132,0.053 0.217,0.121 0.257,0.199 0.041,0.079 0.061,0.288 0.061,0.627 l 0,9.348 c 0,0.339 -0.024,0.552 -0.069,0.637 -0.024,0.048 -0.098,0.096 -0.224,0.145 -0.332,0.133 -1.013,0.2 -2.044,0.2 l 0,0.163 6.787,0 0,-0.163 C 1.844,0.982 1.418,0.963 1.057,0.927 0.696,0.891 0.442,0.842 0.292,0.782 L 0.12,0.71 C 0.041,0.637 0,0.4 0,0" /></g><g
           transform="translate(115.9654,190.7099)"
           id="g132"><path
             id="path134"
             style="fill:#ffffff;fill-opacity:1;fill-rule:nonzero;stroke:none"
             d="m 0,0 0,-9.348 c 0,-0.351 0.024,-0.575 0.07,-0.672 0.022,-0.049 0.091,-0.097 0.205,-0.146 0.332,-0.133 1.014,-0.199 2.044,-0.199 l 0,-0.182 -6.768,0 0,0.182 c 0.493,0 0.919,0.017 1.28,0.053 0.36,0.037 0.606,0.082 0.739,0.138 0.132,0.053 0.217,0.121 0.257,0.199 0.041,0.079 0.061,0.288 0.061,0.627 l 0,9.348 c 0,0.339 -0.024,0.552 -0.069,0.637 -0.024,0.048 -0.098,0.096 -0.224,0.145 -0.332,0.133 -1.013,0.2 -2.044,0.2 l 0,0.163 6.787,0 0,-0.163 C 1.844,0.982 1.418,0.963 1.057,0.927 0.696,0.891 0.442,0.842 0.292,0.782 L 0.12,0.71 C 0.041,0.637 0,0.4 0,0" /></g><g
           transform="translate(121.6624,190.7099)"
           id="g136"><path
             id="path138"
             style="fill:#ffffff;fill-opacity:1;fill-rule:nonzero;stroke:none"
             d="m 0,0 0,-9.348 c 0,-0.351 0.024,-0.575 0.07,-0.672 0.022,-0.049 0.091,-0.097 0.205,-0.146 0.332,-0.133 1.014,-0.199 2.044,-0.199 l 0,-0.182 -6.768,0 0,0.182 c 0.493,0 0.919,0.017 1.28,0.053 0.36,0.037 0.606,0.082 0.739,0.138 0.132,0.053 0.217,0.121 0.257,0.199 0.041,0.079 0.061,0.288 0.061,0.627 l 0,9.348 c 0,0.339 -0.024,0.552 -0.069,0.637 -0.024,0.048 -0.098,0.096 -0.224,0.145 -0.332,0.133 -1.013,0.2 -2.044,0.2 l 0,0.163 6.787,0 0,-0.163 C 1.844,0.982 1.418,0.963 1.057,0.927 0.696,0.891 0.442,0.842 0.292,0.782 L 0.12,0.71 C 0.041,0.637 0,0.4 0,0" /></g><g
           transform="translate(191.6455,176.3897)"
           id="g140"><path
             id="path142"
             style="fill:#ffffff;fill-opacity:1;fill-rule:nonzero;stroke:none"
             d="m 0,0 0,0.584 1.971,0 c 0.146,0 0.219,0.065 0.219,0.195 l 0,0.39 1.095,0 0,-0.585 C 3.285,0.195 3.139,0 2.847,0 L 0,0 Z m -1.314,1.169 1.095,0 0,-1.558 -1.095,0 0,1.558 z m 0,0.194 c 0,0.39 0.146,0.585 0.438,0.585 l 3.723,0 c 0.292,0 0.438,-0.195 0.438,-0.585 l -4.599,0 z" /></g><g
           transform="translate(195.8067,176)"
           id="g144"><path
             id="path146"
             style="fill:#ffffff;fill-opacity:1;fill-rule:nonzero;stroke:none"
             d="m 0,0 c -0.292,0 -0.438,0.195 -0.438,0.584 l 0,0.974 1.095,0 0,-0.779 c 0,-0.129 0.072,-0.195 0.219,-0.195 l 2.628,0 L 3.504,0 0,0 Z m 0.657,1.753 -1.095,0 0,0.585 1.095,0 0,-0.585 z" /></g><path
           id="path148"
           style="fill:#ffffff;fill-opacity:1;fill-rule:nonzero;stroke:none"
           d="m 203.252,178.338 1.095,0 0,-0.585 -1.095,0 0,0.585 z M 200.186,176 c -0.292,0 -0.438,0.195 -0.438,0.584 l 0,0.974 1.095,0 0,-0.779 c 0,-0.129 0.073,-0.195 0.219,-0.195 l 1.971,0 c 0.146,0 0.219,0.066 0.219,0.195 l 0,0.779 1.095,0 0,-0.974 c 0,-0.389 -0.146,-0.584 -0.438,-0.584 l -3.723,0 z m 0.657,1.753 -1.095,0 0,0.585 1.095,0 0,-0.585 z" /><g
           transform="translate(204.7843,177.3637)"
           id="g150"><path
             id="path152"
             style="fill:#ffffff;fill-opacity:1;fill-rule:nonzero;stroke:none"
             d="m 0,0 0,0.195 1.095,0 C 1.095,0.065 1.168,0 1.314,0 L 3.942,0 C 4.38,0 4.599,-0.195 4.599,-0.584 l 0,-0.195 c 0,-0.39 -0.147,-0.585 -0.439,-0.585 l -4.16,0 0,0.585 3.285,0 c 0.146,0 0.219,0.032 0.219,0.097 0,0.065 -0.073,0.098 -0.219,0.098 l -2.847,0 C 0.146,-0.584 0,-0.39 0,0 m 0,0.389 c 0,0.39 0.146,0.585 0.438,0.585 l 3.942,0 0,-0.585 -4.38,0 z" /></g><g
           transform="translate(211.4229,176.5843)"
           id="g154"><path
             id="path156"
             style="fill:#ffffff;fill-opacity:1;fill-rule:nonzero;stroke:none"
             d="m 0,0 0,0.974 1.095,0 0,-0.974 2.19,0 c 0.146,0 0.219,0.032 0.219,0.098 0,0.064 -0.073,0.097 -0.219,0.097 l -1.315,0 0,0.584 1.972,0 c 0.438,0 0.657,-0.195 0.657,-0.584 L 4.599,0 c 0,-0.39 -0.147,-0.584 -0.439,-0.584 l -3.722,0 C 0.146,-0.584 0,-0.39 0,0 m 0,1.169 c 0,0.389 0.146,0.584 0.438,0.584 l 3.942,0 0,-0.584 -4.38,0 z" /></g><g
           transform="translate(220.3703,178.3377)"
           id="g158"><path
             id="path160"
             style="fill:#ffffff;fill-opacity:1;fill-rule:nonzero;stroke:none"
             d="m 0,0 1.314,0 -0.977,-0.585 -1.31,0 L 0,0 Z m -0.013,-2.338 -1.286,0.771 -1.285,-0.771 -1.314,0 1.943,1.166 -0.654,0.393 2.621,0 -0.654,-0.393 1.943,-1.166 -1.314,0 z M -2.935,-0.585 -3.911,0 l 1.314,0 0.973,-0.585 -1.311,0 z" /></g><g
           transform="translate(184,179.9182)"
           id="g162"><path
             id="path164"
             style="fill:#ffffff;fill-opacity:1;fill-rule:nonzero;stroke:none"
             d="m 0,0 0,2.916 1.859,1.166 4.958,0 -1.24,-0.875 -3.098,0 0,-2.332 1.859,0 0,0.583 -1.549,0 1.239,0.874 2.789,0 0,-1.457 L 5.577,0 0,0 Z" /></g><g
           transform="translate(191.1268,179.9182)"
           id="g166"><path
             id="path168"
             style="fill:#ffffff;fill-opacity:1;fill-rule:nonzero;stroke:none"
             d="m 0,0 0,2.916 1.859,1.166 4.958,0 -1.24,-0.875 -3.098,0 0,-0.875 3.098,0 -1.239,-0.874 -1.859,0 0,-0.583 4.338,0 L 5.577,0 0,0 Z" /></g><g
           transform="translate(197.6338,179.9182)"
           id="g170"><path
             id="path172"
             style="fill:#ffffff;fill-opacity:1;fill-rule:nonzero;stroke:none"
             d="m 0,0 0,4.082 2.479,0 1.859,-0.875 0,0.875 2.479,0 0,-4.082 -2.479,0 0,2.041 L 2.479,2.916 2.479,0 0,0 Z" /></g><g
           transform="translate(204.7606,179.9182)"
           id="g174"><path
             id="path176"
             style="fill:#ffffff;fill-opacity:1;fill-rule:nonzero;stroke:none"
             d="m 0,0 0,2.916 1.859,1.166 4.958,0 -1.24,-0.875 -3.098,0 0,-0.875 3.098,0 -1.239,-0.874 -1.859,0 0,-0.583 4.338,0 L 5.577,0 0,0 Z" /></g><g
           transform="translate(211.2676,181.376)"
           id="g178"><path
             id="path180"
             style="fill:#ffffff;fill-opacity:1;fill-rule:nonzero;stroke:none"
             d="m 0,0 0,1.458 1.859,1.166 4.958,0 -1.24,-0.875 -3.098,0 0,-0.874 4.338,0 0,-1.458 -1.24,-0.875 -5.577,0 1.239,0.875 3.099,0 L 4.338,0 0,0 Z" /></g><path
           id="path182"
           style="fill:#ffffff;fill-opacity:1;fill-rule:nonzero;stroke:none"
           d="m 218.394,184 2.479,0 0,-4.082 -2.479,0 0,4.082 z" /><g
           transform="translate(221.1831,181.376)"
           id="g184"><path
             id="path186"
             style="fill:#ffffff;fill-opacity:1;fill-rule:nonzero;stroke:none"
             d="m 0,0 0,1.458 1.859,1.166 4.958,0 -1.24,-0.875 -3.098,0 0,-0.874 4.338,0 0,-1.458 -1.24,-0.875 -5.577,0 1.239,0.875 3.099,0 L 4.338,0 0,0 Z" /></g></g></g></g></svg>