<?xml version="1.0" encoding="UTF-8" standalone="no"?>
<svg
   xmlns:dc="http://purl.org/dc/elements/1.1/"
   xmlns:cc="http://creativecommons.org/ns#"
   xmlns:rdf="http://www.w3.org/1999/02/22-rdf-syntax-ns#"
   xmlns:svg="http://www.w3.org/2000/svg"
   xmlns="http://www.w3.org/2000/svg"
   viewBox="0 0 320 320"
   height="320"
   width="320"
   xml:space="preserve"
   version="1.1"
   id="svg2"><metadata
     id="metadata8"><rdf:RDF><cc:Work
         rdf:about=""><dc:format>image/svg+xml</dc:format><dc:type
           rdf:resource="http://purl.org/dc/dcmitype/StillImage" /></cc:Work></rdf:RDF></metadata><defs
     id="defs6"><clipPath
       id="clipPath16"
       clipPathUnits="userSpaceOnUse"><path
         id="path18"
         d="M 0,256 256,256 256,0 0,0 0,256 Z" /></clipPath><clipPath
       id="clipPath24"
       clipPathUnits="userSpaceOnUse"><path
         id="path26"
         d="M 4,248 252,248 252,8 4,8 4,248 Z" /></clipPath></defs><g
     transform="matrix(1.25,0,0,-1.25,0,320)"
     id="g10"><g
       id="g12"><g
         clip-path="url(#clipPath16)"
         id="g14"><g
           id="g20"><g
             id="g22" /><g
             id="g28"><g
               style="opacity:0.5"
               id="g30"
               clip-path="url(#clipPath24)"><g
                 id="g32"
                 transform="translate(234.3333,248)"><path
                   id="path34"
                   style="fill:#ffffff;fill-opacity:1;fill-rule:nonzero;stroke:none"
                   d="m 0,0 -212.667,0 c -9.741,0 -17.666,-7.826 -17.666,-17.447 l 0,-30.553 0,-55.647 0,-124.264 c 0,-6.666 5.757,-12.089 12.833,-12.089 l 222.333,0 c 7.077,0 12.834,5.423 12.834,12.089 l 0,124.264 0,55.647 0,30.553 C 17.667,-7.826 9.741,0 0,0" /></g></g></g></g><g
           transform="translate(239.1667,16)"
           id="g36"><path
             id="path38"
             style="fill:#191919;fill-opacity:1;fill-rule:nonzero;stroke:none"
             d="m 0,0 -222.333,0 c -2.67,0 -4.834,1.831 -4.834,4.089 l 0,179.911 232,0 0,-179.911 C 4.833,1.831 2.669,0 0,0" /></g><g
           transform="translate(234.3333,240)"
           id="g40"><path
             id="path42"
             style="fill:#262626;fill-opacity:1;fill-rule:nonzero;stroke:none"
             d="m 0,0 -212.667,0 c -5.338,0 -9.666,-4.229 -9.666,-9.447 l 0,-86.2 c 0,0 0,-4.723 8.458,-4.33 8.458,0.394 7.25,4.724 7.25,4.724 l 0,23.9 c 0.403,28.624 32.625,28.45 32.625,28.45 l 135.333,0 c 0,0 32.223,0.174 32.625,-28.45 l 0,-23.9 c 0,0 -1.208,-4.33 7.25,-4.724 8.459,-0.393 8.459,4.33 8.459,4.33 l 0,86.2 C 9.667,-4.229 5.339,0 0,0" /></g><path
           id="path44"
           style="fill:#191919;fill-opacity:1;fill-rule:nonzero;stroke:none"
           d="m 184,208 -112,0 0,4 112,0 0,-4 z" /><path
           id="path46"
           style="fill:#191919;fill-opacity:1;fill-rule:nonzero;stroke:none"
           d="m 184,200 -112,0 0,4 112,0 0,-4 z" /><g
           transform="translate(200.2857,188)"
           id="g48"><path
             id="path50"
             style="fill:#808080;fill-opacity:1;fill-rule:nonzero;stroke:none"
             d="m 0,0 c 10.87,0 19.714,-8.585 19.714,-19.138 l 0,-100.077 c 0,-2.643 -2.206,-4.785 -4.928,-4.785 l -174.143,0 c -2.722,0 -4.929,2.142 -4.929,4.785 l 0,100.077 c 0,10.57 8.827,19.138 19.715,19.138 L 0,0" /></g><g
           transform="translate(161.7533,28)"
           id="g52"><path
             id="path54"
             style="fill:#0d0d0d;fill-opacity:1;fill-rule:nonzero;stroke:none"
             d="m 0,0 -67.507,0 c -6.735,0 -12.246,5.4 -12.246,12 l 0,0 c 0,6.6 5.511,12 12.246,12 L 0,24 c 6.736,0 12.247,-5.4 12.247,-12 l 0,0 C 12.247,5.4 6.736,0 0,0" /></g><g
           transform="translate(122.9718,34)"
           id="g56"><path
             id="path58"
             style="fill:#191919;fill-opacity:1;fill-rule:nonzero;stroke:none"
             d="m 0,0 -1.609,0 -2.011,4.138 0,-4.138 -1.609,0 0,5.793 2.413,0 L 0,0 Z M 0,8.069 C 0,7.554 -0.177,7.115 -0.53,6.752 -0.883,6.389 -1.242,6.207 -1.609,6.207 l -4.022,0 0,-6.207 -1.609,0 0,7.862 5.229,0 c 0.268,0 0.402,0.069 0.402,0.207 0,0.138 -0.134,0.207 -0.402,0.207 l -5.229,0 0,1.655 5.631,0 c 0.367,0 0.726,-0.184 1.079,-0.552 C -0.177,9.011 0,8.575 0,8.069 m 2.011,0 C 2.011,6.984 1.741,6.163 1.2,5.607 0.659,5.051 0.201,4.676 -0.174,4.483 L 2.011,0 0.402,0 l -2.815,5.793 0.804,0 c 0.474,0 0.927,0.223 1.361,0.669 0.433,0.446 0.65,0.982 0.65,1.607 0,0.616 -0.217,1.149 -0.65,1.6 -0.434,0.451 -0.887,0.676 -1.361,0.676 l -5.631,0 0,1.655 5.631,0 c 0.921,0 1.754,-0.386 2.501,-1.159 0.746,-0.772 1.119,-1.696 1.119,-2.772" /></g><g
           transform="translate(125.7874,42.2759)"
           id="g60"><path
             id="path62"
             style="fill:#191919;fill-opacity:1;fill-rule:nonzero;stroke:none"
             d="m 0,0 c 0,2.483 1.207,3.724 3.62,3.724 l 4.827,0 0,-1.655 -4.827,0 C 2.279,2.069 1.609,1.379 1.609,0 l 0,-4.552 c 0,-1.379 0.67,-2.069 2.011,-2.069 l 4.827,0 0,-1.655 -4.827,0 C 1.207,-8.276 0,-7.034 0,-4.552 L 0,0 Z" /></g><g
           transform="translate(127.7986,40.2069)"
           id="g64"><path
             id="path66"
             style="fill:#191919;fill-opacity:1;fill-rule:nonzero;stroke:none"
             d="m 0,0 0,2.069 c 0,1.103 0.536,1.655 1.609,1.655 l 4.827,0 0,-1.655 -4.425,0 C 1.743,2.069 1.609,1.931 1.609,1.655 l 3.62,0 L 5.229,0 0,0 Z" /></g><g
           transform="translate(127.7986,39.7931)"
           id="g68"><path
             id="path70"
             style="fill:#191919;fill-opacity:1;fill-rule:nonzero;stroke:none"
             d="m 0,0 5.229,0 0,-1.655 -3.62,0 c 0,-0.276 0.134,-0.414 0.402,-0.414 l 4.425,0 0,-1.655 -4.827,0 C 0.536,-3.724 0,-3.172 0,-2.069 L 0,0 Z" /></g><g
           transform="translate(139.8657,43.931)"
           id="g72"><path
             id="path74"
             style="fill:#191919;fill-opacity:1;fill-rule:nonzero;stroke:none"
             d="m 0,0 4.425,0 0,-1.655 -2.816,0 0,-8.276 L 0,-9.931 0,0 Z m -0.402,0 0,-9.931 -1.609,0 0,8.276 -2.816,0 0,1.655 4.425,0 z m 4.827,0.414 -9.251,0 0,1.655 9.251,0 0,-1.655 z" /></g><g
           transform="translate(152.3351,34)"
           id="g76"><path
             id="path78"
             style="fill:#191919;fill-opacity:1;fill-rule:nonzero;stroke:none"
             d="m 0,0 -1.609,0 -2.011,4.138 0,-4.138 -1.609,0 0,5.793 2.413,0 L 0,0 Z M 0,8.069 C 0,7.554 -0.177,7.115 -0.53,6.752 -0.883,6.389 -1.242,6.207 -1.609,6.207 l -4.022,0 0,-6.207 -1.609,0 0,7.862 5.229,0 c 0.268,0 0.402,0.069 0.402,0.207 0,0.138 -0.134,0.207 -0.402,0.207 l -5.229,0 0,1.655 5.631,0 c 0.367,0 0.726,-0.184 1.079,-0.552 C -0.177,9.011 0,8.575 0,8.069 m 2.011,0 C 2.011,6.984 1.741,6.163 1.2,5.607 0.659,5.051 0.201,4.676 -0.174,4.483 L 2.011,0 0.402,0 l -2.815,5.793 0.804,0 c 0.474,0 0.927,0.223 1.361,0.669 0.433,0.446 0.65,0.982 0.65,1.607 0,0.616 -0.217,1.149 -0.65,1.6 -0.434,0.451 -0.887,0.676 -1.361,0.676 l -5.631,0 0,1.655 5.631,0 c 0.921,0 1.754,-0.386 2.501,-1.159 0.746,-0.772 1.119,-1.696 1.119,-2.772" /></g><g
           transform="translate(160.3799,41.8621)"
           id="g80"><path
             id="path82"
             style="fill:#191919;fill-opacity:1;fill-rule:nonzero;stroke:none"
             d="m 0,0 c 0,0.276 -0.134,0.414 -0.402,0.414 l -0.805,0 C -1.475,0.414 -1.609,0.276 -1.609,0 l 0,-3.724 c 0,-0.276 0.134,-0.414 0.402,-0.414 l 0.805,0 C -0.134,-4.138 0,-4 0,-3.724 L 0,0 Z m 1.609,0.414 0,-4.552 C 1.609,-5.241 1.073,-5.793 0,-5.793 l -1.609,0 c -1.073,0 -1.609,0.552 -1.609,1.655 l 0,4.552 c 0,1.103 0.536,1.655 1.609,1.655 l 1.609,0 c 1.073,0 1.609,-0.552 1.609,-1.655 m 0.402,0 C 2.011,1.793 1.341,2.483 0,2.483 l -1.609,0 c -1.341,0 -2.011,-0.69 -2.011,-2.069 l 0,-4.552 c 0,-1.379 0.67,-2.069 2.011,-2.069 l 1.609,0 c 1.341,0 2.011,0.69 2.011,2.069 l 0,4.552 z m 1.609,0 0,-4.552 C 3.62,-6.621 2.413,-7.862 0,-7.862 l -1.609,0 c -2.413,0 -3.62,1.241 -3.62,3.724 l 0,4.552 c 0,2.483 1.207,3.724 3.62,3.724 l 1.609,0 c 2.413,0 3.62,-1.241 3.62,-3.724" /></g><g
           transform="translate(93.7559,36.7825)"
           id="g84"><path
             id="path86"
             style="fill:#191919;fill-opacity:1;fill-rule:nonzero;stroke:none"
             d="M 0,0 C -0.013,0.036 -0.021,0.076 -0.032,0.114 L 0,0.114 0,0 Z m 2.266,0.942 c -0.268,0 -0.402,0.138 -0.402,0.413 l 0,7.862 -3.62,0 0,-8.275 c 0,-2.483 1.207,-3.725 3.62,-3.725 l 4.827,0 0,3.725 -4.425,0 z" /></g><path
           id="path88"
           style="fill:#191919;fill-opacity:1;fill-rule:nonzero;stroke:none"
           d="m 101.251,34 3.62,0 0,12 -3.62,0 0,-12 z" /><g
           transform="translate(110.9046,41.8621)"
           id="g90"><path
             id="path92"
             style="fill:#191919;fill-opacity:1;fill-rule:nonzero;stroke:none"
             d="m 0,0 -1.609,0 0,0.414 1.609,0 C 0.268,0.414 0.402,0.345 0.402,0.207 0.402,0.069 0.268,0 0,0 m 0,-4.138 -1.609,0 0,0.414 1.609,0 c 0.268,0 0.402,-0.069 0.402,-0.207 0,-0.138 -0.134,-0.207 -0.402,-0.207 m 4.022,4.345 c 0,1.076 -0.373,2 -1.119,2.772 -0.747,0.773 -1.58,1.159 -2.501,1.159 l -5.631,0 0,-12 5.631,0 c 0.921,0 1.754,0.386 2.501,1.159 0.746,0.772 1.119,1.696 1.119,2.772 0,0.782 -0.183,1.467 -0.549,2.055 0.366,0.589 0.549,1.283 0.549,2.083" /></g><g
           transform="translate(215.0714,64)"
           id="g94"><path
             id="path96"
             style="fill:#a12868;fill-opacity:1;fill-rule:nonzero;stroke:none"
             d="m 0,0 -174.143,0 c -2.722,0 -4.928,2.262 -4.928,5.053 l 0,18.947 184,0 0,-18.947 C 4.929,2.262 2.722,0 0,0" /></g><g
           transform="translate(125.5348,76.8801)"
           id="g98"><path
             id="path100"
             style="fill:#ffffff;fill-opacity:1;fill-rule:nonzero;stroke:none"
             d="m 0,0 0,-0.809 c 0,-0.285 0.021,-0.549 0.051,-0.806 l -0.498,1.144 C -0.307,-0.339 -0.154,-0.171 0,0 m 22.191,0 0,-0.809 c 0,-0.285 0.022,-0.549 0.051,-0.806 l -0.498,1.144 c 0.141,0.132 0.294,0.3 0.447,0.471 m 4.745,7.12 -1.216,0 C 24.17,7.12 23.108,6.434 22.58,5.176 22.441,5.419 22.28,5.65 22.093,5.868 21.377,6.699 20.552,7.12 19.64,7.12 l -4.255,0 C 15.277,7.12 15.174,7.094 15.081,7.049 14.987,7.094 14.884,7.12 14.777,7.12 l -6.992,0 C 7.677,7.12 7.575,7.094 7.481,7.049 7.387,7.094 7.285,7.12 7.177,7.12 l -3.648,0 C 1.979,7.12 0.917,6.434 0.388,5.176 0.249,5.419 0.089,5.65 -0.099,5.868 -0.814,6.699 -1.639,7.12 -2.551,7.12 l -4.256,0 C -7.245,7.12 -7.6,6.71 -7.6,6.205 l 0,-0.474 C -7.635,5.775 -7.661,5.825 -7.698,5.868 -8.414,6.699 -9.239,7.12 -10.151,7.12 l -4.256,0 c -0.107,0 -0.21,-0.026 -0.304,-0.071 -0.093,0.045 -0.196,0.071 -0.304,0.071 l -2.735,0 c -0.438,0 -0.793,-0.41 -0.793,-0.915 l 0,-6.099 -2.67,0 0,6.099 c 0,0.505 -0.355,0.915 -0.793,0.915 l -2.736,0 c -0.438,0 -0.793,-0.41 -0.793,-0.915 l 0,-7.014 c 0,-2.625 1.253,-4.071 3.529,-4.071 l 3.648,0 c 0.108,0 0.21,0.026 0.304,0.071 0.093,-0.045 0.196,-0.071 0.304,-0.071 l 2.735,0 c 0.108,0 0.211,0.026 0.304,0.071 0.094,-0.045 0.197,-0.071 0.304,-0.071 l 4.256,0 c 0.912,0 1.737,0.421 2.453,1.252 0.037,0.043 0.063,0.093 0.098,0.137 l 0,-0.474 c 0,-0.505 0.355,-0.915 0.793,-0.915 l 1.216,0 c 0.052,0 0.103,0.006 0.152,0.017 0.049,-0.011 0.1,-0.017 0.152,-0.017 l 1.216,0 c 0.353,0 0.652,0.266 0.755,0.634 l 0.056,-0.128 c 0.134,-0.31 0.409,-0.506 0.709,-0.506 l 1.216,0 c 0.052,0 0.102,0.006 0.152,0.017 0.05,-0.011 0.1,-0.017 0.152,-0.017 l 1.216,0 c 0.275,0 0.53,0.164 0.675,0.434 0.092,0.172 0.124,0.37 0.108,0.565 0.597,-0.652 1.456,-0.999 2.561,-0.999 l 3.648,0 c 0.438,0 0.793,0.41 0.793,0.915 l 0,1.403 c 0,0.062 -0.021,0.116 -0.031,0.175 0.01,0.059 0.031,0.113 0.031,0.175 l 0,1.403 c 0,0.505 -0.355,0.915 -0.793,0.915 l -0.119,0 0,0.839 c 0,0.062 -0.021,0.116 -0.031,0.175 0.01,0.059 0.031,0.113 0.031,0.175 l 0,0.839 0.119,0 c 0.108,0 0.21,0.026 0.304,0.071 C 7.575,2.16 7.677,2.134 7.785,2.134 l 1.335,0 0,-6.099 c 0,-0.505 0.355,-0.915 0.793,-0.915 l 1.216,0 c 0.052,0 0.102,0.006 0.152,0.017 0.049,-0.011 0.1,-0.017 0.152,-0.017 l 1.216,0 c 0.438,0 0.793,0.41 0.793,0.915 l 0,6.099 1.15,0 0,-6.099 c 0,-0.505 0.355,-0.915 0.793,-0.915 l 1.216,0 c 0.052,0 0.102,0.006 0.152,0.017 0.049,-0.011 0.1,-0.017 0.152,-0.017 l 1.215,0 c 0.354,0 0.653,0.266 0.755,0.634 l 0.056,-0.128 c 0.135,-0.31 0.409,-0.506 0.709,-0.506 l 1.216,0 c 0.052,0 0.103,0.006 0.152,0.017 0.05,-0.011 0.101,-0.017 0.152,-0.017 l 1.216,0 c 0.275,0 0.531,0.164 0.675,0.434 0.092,0.172 0.124,0.37 0.109,0.565 0.596,-0.652 1.455,-0.999 2.56,-0.999 l 1.216,0 c 2.276,0 3.529,1.446 3.529,4.071 l 0,3.858 c 0,2.625 -1.253,4.071 -3.529,4.071" /></g><g
           transform="translate(124.1999,72.9149)"
           id="g102"><path
             id="path104"
             style="fill:#0000ff;fill-opacity:1;fill-rule:nonzero;stroke:none"
             d="m 0,0 -1.216,0 -1.52,3.507 0,-3.507 -1.216,0 0,4.91 1.824,0 L 0,0 Z M 0,6.839 C 0,6.402 -0.133,6.03 -0.4,5.722 -0.667,5.414 -0.939,5.26 -1.216,5.26 l -3.04,0 0,-5.26 -1.216,0 0,6.663 3.952,0 c 0.203,0 0.304,0.059 0.304,0.176 0,0.117 -0.101,0.175 -0.304,0.175 l -3.952,0 0,1.403 4.256,0 c 0.277,0 0.549,-0.156 0.816,-0.468 C -0.133,7.637 0,7.267 0,6.839 m 1.52,0 C 1.52,5.919 1.316,5.223 0.907,4.752 0.498,4.28 0.152,3.963 -0.132,3.799 L 1.52,0 0.304,0 l -2.128,4.91 0.608,0 c 0.358,0 0.701,0.189 1.029,0.567 0.327,0.378 0.491,0.832 0.491,1.362 0,0.522 -0.164,0.974 -0.491,1.356 -0.328,0.382 -0.671,0.572 -1.029,0.572 l -4.256,0 0,1.403 4.256,0 C -0.52,10.17 0.11,9.843 0.674,9.188 1.238,8.534 1.52,7.75 1.52,6.839" /></g><g
           transform="translate(126.3278,79.9288)"
           id="g106"><path
             id="path108"
             style="fill:#0000ff;fill-opacity:1;fill-rule:nonzero;stroke:none"
             d="m 0,0 c 0,2.104 0.912,3.156 2.736,3.156 l 3.648,0 0,-1.403 -3.648,0 C 1.723,1.753 1.216,1.169 1.216,0 l 0,-3.858 c 0,-1.169 0.507,-1.753 1.52,-1.753 l 3.648,0 0,-1.403 -3.648,0 C 0.912,-7.014 0,-5.962 0,-3.858 L 0,0 Z" /></g><g
           transform="translate(127.8478,78.1754)"
           id="g110"><path
             id="path112"
             style="fill:#0000ff;fill-opacity:1;fill-rule:nonzero;stroke:none"
             d="m 0,0 0,1.753 c 0,0.936 0.405,1.403 1.216,1.403 l 3.648,0 0,-1.403 -3.344,0 c -0.203,0 -0.304,-0.116 -0.304,-0.35 l 2.736,0 L 3.952,0 0,0 Z" /></g><g
           transform="translate(127.8478,77.8247)"
           id="g114"><path
             id="path116"
             style="fill:#0000ff;fill-opacity:1;fill-rule:nonzero;stroke:none"
             d="m 0,0 3.952,0 0,-1.403 -2.736,0 c 0,-0.234 0.101,-0.351 0.304,-0.351 l 3.344,0 0,-1.402 -3.648,0 C 0.405,-3.156 0,-2.689 0,-1.754 L 0,0 Z" /></g><g
           transform="translate(136.9675,81.3316)"
           id="g118"><path
             id="path120"
             style="fill:#0000ff;fill-opacity:1;fill-rule:nonzero;stroke:none"
             d="m 0,0 3.344,0 0,-1.403 -2.128,0 0,-7.014 L 0,-8.417 0,0 Z m -0.304,0 0,-8.417 -1.216,0 0,7.014 -2.128,0 0,1.403 3.344,0 z m 3.648,0.351 -6.992,0 0,1.403 6.992,0 0,-1.403 z" /></g><g
           transform="translate(146.3912,72.9149)"
           id="g122"><path
             id="path124"
             style="fill:#0000ff;fill-opacity:1;fill-rule:nonzero;stroke:none"
             d="m 0,0 -1.216,0 -1.52,3.507 0,-3.507 -1.216,0 0,4.91 1.824,0 L 0,0 Z M 0,6.839 C 0,6.402 -0.133,6.03 -0.4,5.722 -0.667,5.414 -0.939,5.26 -1.216,5.26 l -3.04,0 0,-5.26 -1.216,0 0,6.663 3.952,0 c 0.203,0 0.304,0.059 0.304,0.176 0,0.117 -0.101,0.175 -0.304,0.175 l -3.952,0 0,1.403 4.256,0 c 0.277,0 0.549,-0.156 0.816,-0.468 C -0.133,7.637 0,7.267 0,6.839 m 1.52,0 C 1.52,5.919 1.316,5.223 0.907,4.752 0.498,4.28 0.152,3.963 -0.132,3.799 L 1.52,0 0.304,0 l -2.128,4.91 0.608,0 c 0.358,0 0.701,0.189 1.029,0.567 0.327,0.378 0.491,0.832 0.491,1.362 0,0.522 -0.164,0.974 -0.491,1.356 -0.328,0.382 -0.671,0.572 -1.029,0.572 l -4.256,0 0,1.403 4.256,0 C -0.52,10.17 0.11,9.843 0.674,9.188 1.238,8.534 1.52,7.75 1.52,6.839" /></g><g
           transform="translate(152.4711,79.5782)"
           id="g126"><path
             id="path128"
             style="fill:#0000ff;fill-opacity:1;fill-rule:nonzero;stroke:none"
             d="m 0,0 c 0,0.234 -0.101,0.351 -0.304,0.351 l -0.608,0 C -1.115,0.351 -1.216,0.234 -1.216,0 l 0,-3.156 c 0,-0.234 0.101,-0.351 0.304,-0.351 l 0.608,0 C -0.101,-3.507 0,-3.39 0,-3.156 L 0,0 Z m 1.216,0.351 0,-3.858 C 1.216,-4.442 0.811,-4.91 0,-4.91 l -1.216,0 c -0.811,0 -1.216,0.468 -1.216,1.403 l 0,3.858 c 0,0.935 0.405,1.402 1.216,1.402 l 1.216,0 c 0.811,0 1.216,-0.467 1.216,-1.402 m 0.304,0 C 1.52,1.52 1.013,2.104 0,2.104 l -1.216,0 c -1.013,0 -1.52,-0.584 -1.52,-1.753 l 0,-3.858 c 0,-1.169 0.507,-1.753 1.52,-1.753 l 1.216,0 c 1.013,0 1.52,0.584 1.52,1.753 l 0,3.858 z m 1.216,0 0,-3.858 C 2.736,-5.611 1.824,-6.663 0,-6.663 l -1.216,0 c -1.824,0 -2.736,1.052 -2.736,3.156 l 0,3.858 c 0,2.104 0.912,3.156 2.736,3.156 l 1.216,0 c 1.824,0 2.736,-1.052 2.736,-3.156" /></g><g
           transform="translate(103.8329,76.0712)"
           id="g130"><path
             id="path132"
             style="fill:#0000ff;fill-opacity:1;fill-rule:nonzero;stroke:none"
             d="m 0,0 c -0.203,0 -0.304,0.117 -0.304,0.351 l 0,6.663 -2.736,0 0,-7.014 c 0,-2.104 0.912,-3.156 2.736,-3.156 l 3.648,0 L 3.344,0 0,0 Z" /></g><path
           id="path134"
           style="fill:#0000ff;fill-opacity:1;fill-rule:nonzero;stroke:none"
           d="m 107.784,72.915 2.736,0 0,10.17 -2.736,0 0,-10.17 z" /><g
           transform="translate(115.0802,79.5782)"
           id="g136"><path
             id="path138"
             style="fill:#0000ff;fill-opacity:1;fill-rule:nonzero;stroke:none"
             d="m 0,0 -1.216,0 0,0.351 1.216,0 C 0.203,0.351 0.304,0.292 0.304,0.175 0.304,0.058 0.203,0 0,0 m 0,-3.507 -1.216,0 0,0.351 1.216,0 c 0.203,0 0.304,-0.059 0.304,-0.176 C 0.304,-3.449 0.203,-3.507 0,-3.507 M 3.04,0.175 C 3.04,1.087 2.758,1.87 2.194,2.525 1.63,3.18 1,3.507 0.304,3.507 l -4.256,0 0,-10.17 4.256,0 c 0.696,0 1.326,0.327 1.89,0.982 0.564,0.654 0.846,1.438 0.846,2.349 0,0.663 -0.139,1.243 -0.416,1.742 0.277,0.499 0.416,1.087 0.416,1.765" /></g><g
           transform="translate(68,64)"
           id="g140"><path
             id="path142"
             style="fill:#b62971;fill-opacity:1;fill-rule:nonzero;stroke:none"
             d="M 0,0 -27.352,0 C -29.919,0 -32,2.142 -32,4.785 l 0,100.077 c 0,10.57 8.323,19.138 18.59,19.138 L 0,124 0,0 Z" /></g><g
           transform="translate(188,108)"
           id="g144"><path
             id="path146"
             style="fill:#000000;fill-opacity:1;fill-rule:nonzero;stroke:none"
             d="m 0,0 0,-5.027 0,-0.715 0,-17.255 0,-0.613 0,-4.39 20,0 0,4.39 0,0.613 0,17.255 0,0.715 L 20,0 0,0 Z" /></g><path
           id="path148"
           style="fill:#ffffff;fill-opacity:1;fill-rule:nonzero;stroke:none"
           d="m 207.333,85.111 -18.667,0 0,17.141 18.667,0 0,-17.141 z" /><path
           id="path150"
           style="fill:#ffffff;fill-opacity:1;fill-rule:nonzero;stroke:none"
           d="m 188.667,107.36 18.667,0 0,-4.387 -18.667,0 0,4.387 z" /><g
           transform="translate(190.9354,82.7802)"
           id="g152"><path
             id="path154"
             style="fill:#ffffff;fill-opacity:1;fill-rule:nonzero;stroke:none"
             d="m 0,0 2.101,0 0,-1.634 C 1.469,-1.759 0.734,-1.841 0.068,-1.841 c -1.469,0 -2.186,0.687 -2.186,1.642 0,0.956 0.717,1.643 2.231,1.643 1.254,0 1.909,-0.316 1.926,-1.046 l -1.514,0 C 0.52,0.497 0.469,0.562 0.401,0.601 0.333,0.64 0.237,0.657 0.136,0.657 c -0.243,0 -0.401,-0.095 -0.48,-0.22 -0.08,-0.126 -0.102,-0.432 -0.102,-0.696 0,-0.303 0.034,-0.51 0.107,-0.61 0.096,-0.13 0.254,-0.185 0.463,-0.185 0.153,0 0.3,0.017 0.43,0.064 l 0,0.377 L 0,-0.613 0,0 Z" /></g><g
           transform="translate(195.8126,82.2832)"
           id="g156"><path
             id="path158"
             style="fill:#ffffff;fill-opacity:1;fill-rule:nonzero;stroke:none"
             d="m 0,0 -0.322,1.176 -0.011,0 L -0.689,0 0,0 Z m -1.339,1.859 2.096,0 1.31,-3.121 -1.672,0 -0.158,0.501 -1.169,0 -0.164,-0.501 -1.548,0 1.305,3.121 z" /></g><g
           transform="translate(202.0846,83.2514)"
           id="g160"><path
             id="path162"
             style="fill:#ffffff;fill-opacity:1;fill-rule:nonzero;stroke:none"
             d="m 0,0 -0.011,0 -0.576,-2.23 -1.48,0 -0.576,2.23 -0.012,0 0,-2.23 -1.367,0 0,3.12 2.243,0 0.446,-1.858 0.011,0 0.447,1.858 2.242,0 0,-3.12 L 0,-2.23 0,0 Z" /></g><g
           transform="translate(204.0309,84.1419)"
           id="g164"><path
             id="path166"
             style="fill:#ffffff;fill-opacity:1;fill-rule:nonzero;stroke:none"
             d="m 0,0 3.101,0 0,-0.813 -1.553,0 0,-0.332 1.434,0 0,-0.813 -1.434,0 0,-0.35 1.604,0 0,-0.813 L 0,-3.121 0,0 Z" /></g><g
           transform="translate(191.5649,106.5946)"
           id="g168"><path
             id="path170"
             style="fill:#000000;fill-opacity:1;fill-rule:nonzero;stroke:none"
             d="m 0,0 0.734,0 -0.97,-2.634 -0.882,0 -0.941,2.634 0.815,0 0.602,-1.908 0.007,0 L 0,0 Z" /></g><path
           id="path172"
           style="fill:#000000;fill-opacity:1;fill-rule:nonzero;stroke:none"
           d="m 192.456,106.595 0.738,0 0,-2.634 -0.738,0 0,2.634 z" /><g
           transform="translate(193.5489,106.5946)"
           id="g174"><path
             id="path176"
             style="fill:#000000;fill-opacity:1;fill-rule:nonzero;stroke:none"
             d="m 0,0 1.033,0 0.894,-1.963 0.007,0.007 0,1.956 0.664,0 0,-2.634 -1.022,0 -0.904,2.017 -0.008,0 0,-2.017 L 0,-2.634 0,0 Z" /></g><g
           transform="translate(197.1082,106.0838)"
           id="g178"><path
             id="path180"
             style="fill:#000000;fill-opacity:1;fill-rule:nonzero;stroke:none"
             d="m 0,0 -0.816,0 0,0.511 2.388,0 0,-0.511 -0.834,0 0,-2.123 L 0,-2.123 0,0 Z" /></g><g
           transform="translate(200.1654,104.9856)"
           id="g182"><path
             id="path184"
             style="fill:#000000;fill-opacity:1;fill-rule:nonzero;stroke:none"
             d="m 0,0 -0.34,1.095 -0.011,0 L -0.712,0 0,0 Z m -1.812,-1.025 1.052,2.634 0.9,0 1.052,-2.634 -0.834,0 -0.177,0.514 -1.082,0 -0.173,-0.514 -0.738,0 z" /></g><g
           transform="translate(203.3596,104.9455)"
           id="g186"><path
             id="path188"
             style="fill:#000000;fill-opacity:1;fill-rule:nonzero;stroke:none"
             d="m 0,0 -0.543,0 0,0.511 1.281,0 0,-1.408 C 0.14,-0.985 0.026,-1.04 -0.616,-1.04 c -0.831,0.026 -1.336,0.547 -1.336,1.372 0,0.825 0.505,1.346 1.336,1.372 C 0.029,1.722 0.709,1.627 0.72,0.861 l -0.739,0 c -0.036,0.255 -0.239,0.332 -0.483,0.332 -0.498,0 -0.675,-0.434 -0.675,-0.861 0,-0.518 0.262,-0.861 0.793,-0.861 0.137,0 0.273,0.022 0.384,0.044 L 0,0 Z" /></g><g
           transform="translate(204.4646,103.9604)"
           id="g190"><path
             id="path192"
             style="fill:#000000;fill-opacity:1;fill-rule:nonzero;stroke:none"
             d="m 0,0 0,2.634 2.03,0 0,-0.511 -1.292,0 0,-0.543 1.189,0 0,-0.511 -1.189,0 0,-0.558 1.292,0 L 2.03,0 0,0 Z" /></g><g
           transform="translate(189.9393,97.6964)"
           id="g194"><path
             id="path196"
             style="fill:#000000;fill-opacity:1;fill-rule:nonzero;stroke:none"
             d="m 0,0 5.089,1.515 4.753,-9.22 0.035,0.01 L 8.762,2.607 13.554,4.033 13.822,-9.5 7.351,-11.426 0,0 Z" /></g><g
           transform="translate(47.3537,76.4243)"
           id="g198"><path
             id="path200"
             style="fill:#e6e6e6;fill-opacity:1;fill-rule:nonzero;stroke:none"
             d="m 0,0 3.913,-0.504 0,1.439 c 0,0.552 -0.19,1.049 -0.568,1.493 C 2.967,2.872 2.504,3.129 1.956,3.201 1.421,3.273 0.961,3.135 0.576,2.788 0.192,2.44 0,1.954 0,1.331 L 0,0 Z m 12.297,-4.424 -13.415,1.69 c -1.118,0.144 -1.677,0.792 -1.677,1.943 l 0,2.59 c 0,1.33 0.469,2.418 1.406,3.264 0.938,0.845 2.053,1.184 3.345,1.016 C 3.261,5.911 4.472,5.186 5.59,3.903 5.776,4.67 6.521,5.126 7.825,5.27 l 4.472,0.665 0,-2.878 L 7.825,2.464 C 7.08,2.176 6.707,1.649 6.707,0.881 l 0,-1.726 5.59,-0.702 0,-2.877 z" /></g><g
           transform="translate(44.559,93.4742)"
           id="g202"><path
             id="path204"
             style="fill:#e6e6e6;fill-opacity:1;fill-rule:nonzero;stroke:none"
             d="m 0,0 2.795,-0.36 0,-5.179 3.353,-0.432 0,5.18 2.795,-0.342 0,-5.18 3.354,-0.431 0,5.179 2.795,-0.341 0,-6.331 c 0,-1.151 -0.559,-1.661 -1.677,-1.529 L 1.677,-8.273 C 0.559,-8.129 0,-7.482 0,-6.331 L 0,0 Z" /></g><g
           transform="translate(47.3537,94.2655)"
           id="g206"><path
             id="path208"
             style="fill:#e6e6e6;fill-opacity:1;fill-rule:nonzero;stroke:none"
             d="m 0,0 -2.795,0.36 0,8.633 L 0,8.633 0,5.755 12.297,4.208 12.297,1.331 0,2.878 0,0 Z" /></g><g
           transform="translate(47.3537,106.3515)"
           id="g210"><path
             id="path212"
             style="fill:#e6e6e6;fill-opacity:1;fill-rule:nonzero;stroke:none"
             d="m 0,0 3.913,-0.504 0,1.439 c 0,0.552 -0.19,1.049 -0.568,1.493 C 2.967,2.872 2.504,3.129 1.956,3.201 1.421,3.273 0.961,3.135 0.576,2.788 0.192,2.44 0,1.954 0,1.331 L 0,0 Z m 12.297,-4.424 -13.415,1.69 c -1.118,0.144 -1.677,0.792 -1.677,1.943 l 0,2.59 c 0,1.33 0.469,2.418 1.406,3.264 0.938,0.845 2.053,1.184 3.345,1.016 C 3.261,5.911 4.472,5.186 5.59,3.903 5.776,4.67 6.521,5.126 7.825,5.27 l 4.472,0.665 0,-2.878 L 7.825,2.464 C 7.08,2.176 6.707,1.649 6.707,0.881 l 0,-1.726 5.59,-0.702 0,-2.877 z" /></g><g
           transform="translate(52.1048,115.7337)"
           id="g214"><path
             id="path216"
             style="fill:#e6e6e6;fill-opacity:1;fill-rule:nonzero;stroke:none"
             d="M 0,0 C 1.304,-0.168 2.422,0.111 3.354,0.836 4.285,1.562 4.751,2.518 4.751,3.705 4.751,4.88 4.285,5.953 3.354,6.924 2.422,7.895 1.304,8.465 0,8.633 -1.293,8.789 -2.408,8.501 -3.345,7.77 -4.282,7.038 -4.751,6.085 -4.751,4.91 -4.751,3.723 -4.282,2.647 -3.345,1.682 -2.408,0.716 -1.293,0.156 0,0 m 0,-2.878 c -2.061,0.252 -3.834,1.178 -5.319,2.779 -1.484,1.601 -2.227,3.39 -2.227,5.369 0,1.966 0.743,3.561 2.227,4.784 C -3.834,11.277 -2.061,11.762 0,11.51 2.073,11.247 3.849,10.314 5.327,8.714 6.806,7.113 7.546,5.33 7.546,3.363 7.546,1.385 6.806,-0.216 5.327,-1.439 3.849,-2.662 2.073,-3.141 0,-2.878" /></g><g
           transform="translate(51.8253,133.0712)"
           id="g218"><path
             id="path220"
             style="fill:#e6e6e6;fill-opacity:1;fill-rule:nonzero;stroke:none"
             d="m 0,0 c -2.143,0.276 -3.983,1.214 -5.52,2.815 -1.537,1.6 -2.305,3.39 -2.305,5.368 0,1.967 0.442,3.393 1.327,4.281 0.885,0.887 1.677,1.51 2.376,1.87 L -2.795,11.87 C -3.4,11.51 -3.924,11.04 -4.367,10.458 -4.809,9.877 -5.031,8.999 -5.031,7.824 -5.031,6.636 -4.536,5.557 -3.546,4.586 -2.556,3.615 -1.374,3.045 0,2.878 1.386,2.698 2.629,2.962 3.729,3.669 4.83,4.376 5.38,5.324 5.38,6.511 c 0,1.175 -0.373,2.14 -1.118,2.895 -0.745,0.756 -1.421,1.223 -2.026,1.403 l 0,-3.615 -2.795,0.935 0,5.18 c 0,0.767 0.559,1.079 1.677,0.935 1.409,-0.18 2.937,-1.079 4.585,-2.698 C 7.351,9.928 8.175,8.135 8.175,6.169 8.175,4.191 7.351,2.599 5.703,1.394 4.055,0.189 2.154,-0.276 0,0" /></g><g
           transform="translate(44.559,157.5489)"
           id="g222"><path
             id="path224"
             style="fill:#e6e6e6;fill-opacity:1;fill-rule:nonzero;stroke:none"
             d="m 0,0 2.795,-0.36 0,-5.179 3.353,-0.432 0,5.18 2.795,-0.342 0,-5.18 3.354,-0.431 0,5.179 2.795,-0.341 0,-6.331 c 0,-1.151 -0.559,-1.661 -1.677,-1.529 L 1.677,-8.273 C 0.559,-8.129 0,-7.482 0,-6.331 L 0,0 Z" /></g><g
           transform="translate(50.1485,164.4552)"
           id="g226"><path
             id="path228"
             style="fill:#e6e6e6;fill-opacity:1;fill-rule:nonzero;stroke:none"
             d="m 0,0 3.913,-1.942 0,2.32 L 0,0 Z m 9.502,-7.662 -12.856,5.648 c -0.605,0.168 -1.129,0.482 -1.572,0.944 -0.442,0.462 -0.664,1.01 -0.664,1.646 0,0.623 0.222,1.121 0.664,1.492 0.443,0.372 0.967,0.594 1.572,0.666 l 12.856,1.115 0,-2.878 -2.795,-0.342 0,-3.794 2.795,-1.187 0,-3.31 z" /></g><g
           transform="translate(47.3537,173.8793)"
           id="g230"><path
             id="path232"
             style="fill:#e6e6e6;fill-opacity:1;fill-rule:nonzero;stroke:none"
             d="m 0,0 3.913,-0.504 0,1.439 c 0,0.552 -0.19,1.049 -0.568,1.493 C 2.967,2.872 2.504,3.129 1.956,3.201 1.421,3.273 0.961,3.135 0.576,2.788 0.192,2.44 0,1.954 0,1.331 L 0,0 Z m 12.297,-4.424 -13.415,1.69 c -1.118,0.144 -1.677,0.792 -1.677,1.943 l 0,2.59 c 0,1.33 0.469,2.418 1.406,3.264 0.938,0.845 2.053,1.184 3.345,1.016 C 3.261,5.911 4.472,5.186 5.59,3.903 5.776,4.67 6.521,5.126 7.825,5.27 l 4.472,0.665 0,-2.878 L 7.825,2.464 C 7.08,2.176 6.707,1.649 6.707,0.881 l 0,-1.726 5.59,-0.702 0,-2.877 z" /></g><g
           transform="translate(88,107.8864)"
           id="g234"><path
             id="path236"
             style="fill:#f39b11;fill-opacity:1;fill-rule:nonzero;stroke:none"
             d="m 0,0 c -7.285,0 -13.212,-5.332 -13.212,-11.886 0,-6.555 5.927,-11.887 13.212,-11.887 7.285,0 13.212,5.332 13.212,11.887 C 13.212,-5.332 7.285,0 0,0" /></g><g
           transform="translate(85.6752,97.022)"
           id="g238"><path
             id="path240"
             style="fill:#e77f22;fill-opacity:1;fill-rule:nonzero;stroke:none"
             d="m 0,0 c 0,0 -9.573,4.155 -9.45,4.365 0.122,0.211 1.36,1.918 1.36,1.918 L -2.062,2.196 -1.809,2.612 -6.825,7.544 -5.88,8.287 0.505,1.514 0,0 Z" /></g><g
           transform="translate(80.6336,105.8629)"
           id="g242"><path
             id="path244"
             style="fill:#d4a600;fill-opacity:1;fill-rule:nonzero;stroke:none"
             d="m 0,0 3.863,-4.915 2.454,0.7 L 5.211,1.865 3.158,1.405 4.663,-3.125 4.032,-3.314 1.116,0.607 0,0 Z" /></g><g
           transform="translate(88.4944,98.9526)"
           id="g246"><path
             id="path248"
             style="fill:#d35400;fill-opacity:1;fill-rule:nonzero;stroke:none"
             d="M 0,0 C 0.21,0.416 3.357,8.42 3.509,8.376 3.662,8.331 4.202,8.157 4.202,8.157 4.202,8.157 2.651,5.471 2.819,5.385 2.988,5.3 3.156,5.051 3.156,5.051 L 5.237,7.756 6.705,7.009 4.202,4.188 5.891,1.987 10.062,4.188 11.404,2.213 2.062,-0.909 0,0 Z" /></g><g
           transform="translate(100.095,91.2187)"
           id="g250"><path
             id="path252"
             style="fill:#d35400;fill-opacity:1;fill-rule:nonzero;stroke:none"
             d="m 0,0 -3.48,0.75 c 0,0 -1.178,-0.534 -0.967,-0.75 0.21,-0.216 3.166,-2.039 3.166,-2.039 l -1.46,-1.566 -2.972,2.671 c 0,0 -0.846,-0.282 -0.67,-0.494 0.175,-0.212 2.724,-2.932 2.724,-2.932 l -1.237,-0.928 -2.16,3.019 -2.062,-1.013 0.887,-3.304 -2.606,-0.465 -0.932,8.804 L -0.902,2.169 0.335,0.75 0,0 Z" /></g><g
           transform="translate(83.0664,94.0694)"
           id="g254"><path
             id="path256"
             style="fill:#e77f22;fill-opacity:1;fill-rule:nonzero;stroke:none"
             d="m 0,0 -6.843,-3.293 c 0,0 0.469,-0.922 0.584,-1.085 0.115,-0.163 2.514,1.463 2.514,1.463 0,0 0.395,-0.757 0.324,-0.833 -0.071,-0.075 -2.131,-1.544 -2.131,-1.544 l 0.986,-1.029 2.133,1.741 1.044,-0.871 -1.681,-2.069 0.637,-0.412 1.634,2.027 0.799,-0.416 -1.284,-2.234 0.779,-0.347 1.231,2.315 1.21,-0.34 -0.859,-2.512 1.101,-0.256 0.936,2.578 0.338,3.672 L 0,0 Z" /></g><g
           transform="translate(99.4451,96)"
           id="g258"><path
             id="path260"
             style="fill:#ffff00;fill-opacity:1;fill-rule:nonzero;stroke:none"
             d="m 0,0 c 0,-5.687 -5.124,-10.297 -11.445,-10.297 -6.321,0 -11.445,4.61 -11.445,10.297 0,5.687 5.124,10.297 11.445,10.297 C -5.124,10.297 0,5.687 0,0" /></g><g
           transform="translate(86.9505,107.7275)"
           id="g262"><path
             id="path264"
             style="fill:#d9d9d9;fill-opacity:1;fill-rule:nonzero;stroke:none"
             d="M 0,0 0.744,-11.084 1.461,-23.608 2.308,-23.56 1.049,-11.046 1.845,0.137 0,0 Z" /></g><g
           transform="translate(80.6336,103.8798)"
           id="g266"><path
             id="path268"
             style="fill:#d4a600;fill-opacity:1;fill-rule:nonzero;stroke:none"
             d="M 0,0 6.809,-7.426 11.3,-17.552 c 0,0 2.131,0.721 3.266,1.669 L 7.366,-7.198 1.739,1.087 0,0 Z" /></g><g
           transform="translate(87.4425,96.4542)"
           id="g270"><path
             id="path272"
             style="fill:#e6e6e6;fill-opacity:1;fill-rule:nonzero;stroke:none"
             d="M 0,0 -0.924,9.756 1.346,9.842 0.926,0 0.842,-4.486 l 0.974,-6.203 -2.279,0 0.909,6.411 L 0,0 Z" /></g><g
           transform="translate(88.3642,96.242)"
           id="g274"><path
             id="path276"
             style="fill:#eac500;fill-opacity:1;fill-rule:nonzero;stroke:none"
             d="m 0,0 -7.211,-8.494 -2.418,2.208 8.918,7.255 3.66,-0.984 L 9.295,-5.768 7.66,-7.583 0,0 Z" /></g><g
           transform="translate(88.9573,98.6877)"
           id="g278"><path
             id="path280"
             style="fill:#e6e6e6;fill-opacity:1;fill-rule:nonzero;stroke:none"
             d="M 0,0 6.242,5.316 7.478,4.271 1.346,-0.795 0,0 Z" /></g><g
           transform="translate(88,106.2965)"
           id="g282"><path
             id="path284"
             style="fill:#ffff00;fill-opacity:1;fill-rule:nonzero;stroke:none"
             d="m 0,0 c -6.321,0 -11.445,-4.61 -11.445,-10.297 0,-5.686 5.124,-10.296 11.445,-10.296 6.321,0 11.445,4.61 11.445,10.296 C 11.445,-4.61 6.321,0 0,0 m 0,-0.227 c 6.172,0 11.193,-4.517 11.193,-10.07 0,-5.552 -5.021,-10.069 -11.193,-10.069 -6.172,0 -11.193,4.517 -11.193,10.069 0,5.553 5.021,10.07 11.193,10.07" /></g><g
           transform="translate(88,107.7729)"
           id="g286"><path
             id="path288"
             style="fill:#f39b11;fill-opacity:1;fill-rule:nonzero;stroke:none"
             d="m 0,0 c -7.216,0 -13.086,-5.281 -13.086,-11.773 0,-6.492 5.87,-11.773 13.086,-11.773 7.216,0 13.086,5.281 13.086,11.773 C 13.086,-5.281 7.216,0 0,0 m 0,-23.773 c -7.355,0 -13.339,5.383 -13.339,12 0,6.617 5.984,12 13.339,12 7.355,0 13.339,-5.383 13.339,-12 0,-6.617 -5.984,-12 -13.339,-12" /></g><g
           transform="translate(101.2328,100.94)"
           id="g290"><path
             id="path292"
             style="fill:#eac500;fill-opacity:1;fill-rule:nonzero;stroke:none"
             d="m 0,0 -0.325,0 -25.689,0 -0.314,0 -0.221,-0.2 -2.462,-2.214 -0.222,-0.2 0,-0.282 0,-2.953 0,-0.268 0.203,-0.196 2.525,-2.441 0.224,-0.218 0.33,0 25.689,0 0.331,0 0.225,0.22 2.272,2.214 0.201,0.196 0,0.266 0,3.18 0,0.272 L 2.559,-2.427 0.224,-0.212 0,0 Z" /></g><g
           transform="translate(72.7574,98.0441)"
           id="g294"><path
             id="path296"
             style="fill:#ffff00;fill-opacity:1;fill-rule:nonzero;stroke:none"
             d="m 0,0 2.462,2.215 25.688,0 2.335,-2.215 0,-3.18 -2.272,-2.214 -25.688,0 L 0,-2.953 0,0 Z" /></g><g
           transform="translate(103.2426,98.0441)"
           id="g298"><path
             id="path300"
             style="fill:#d4a600;fill-opacity:1;fill-rule:nonzero;stroke:none"
             d="m 0,0 0,-3.18 -2.272,-2.214 -25.689,0 -2.524,2.441 -0.758,-0.258 0,-0.01 0.203,-0.196 2.525,-2.441 0.225,-0.218 0.329,0 25.689,0 0.331,0 0.225,0.219 2.273,2.215 0.2,0.196 0,0.266 0,3.18 0,0.237 L 0,0 Z" /></g><g
           transform="translate(86.3656,94.5966)"
           id="g302"><path
             id="path304"
             style="fill:#262626;fill-opacity:1;fill-rule:nonzero;stroke:none"
             d="m 0,0 -0.61,0 -0.762,1.371 0,-1.371 -0.609,0 0,1.92 0.914,0 L 0,0 Z M 0,2.674 C 0,2.503 -0.067,2.358 -0.201,2.237 -0.334,2.117 -0.471,2.057 -0.61,2.057 l -1.524,0 0,-2.057 -0.61,0 0,2.605 1.982,0 c 0.102,0 0.152,0.023 0.152,0.069 0,0.046 -0.05,0.068 -0.152,0.068 l -1.982,0 0,0.549 2.134,0 c 0.139,0 0.276,-0.061 0.409,-0.183 C -0.067,2.986 0,2.842 0,2.674 m 0.762,0 C 0.762,2.314 0.66,2.042 0.455,1.858 0.25,1.674 0.076,1.55 -0.066,1.486 L 0.762,0 l -0.61,0 -1.067,1.92 0.305,0 c 0.18,0 0.352,0.074 0.516,0.221 0.164,0.148 0.246,0.326 0.246,0.533 0,0.204 -0.082,0.381 -0.246,0.53 -0.164,0.149 -0.336,0.224 -0.516,0.224 l -2.134,0 0,0.549 2.134,0 c 0.349,0 0.665,-0.128 0.948,-0.384 C 0.621,3.337 0.762,3.03 0.762,2.674" /></g><g
           transform="translate(87.4326,97.3391)"
           id="g306"><path
             id="path308"
             style="fill:#262626;fill-opacity:1;fill-rule:nonzero;stroke:none"
             d="m 0,0 c 0,0.823 0.457,1.234 1.372,1.234 l 1.829,0 0,-0.548 -1.829,0 C 0.864,0.686 0.61,0.457 0.61,0 l 0,-1.508 c 0,-0.457 0.254,-0.686 0.762,-0.686 l 1.829,0 0,-0.548 -1.829,0 C 0.457,-2.742 0,-2.331 0,-1.508 L 0,0 Z" /></g><g
           transform="translate(88.1947,96.6535)"
           id="g310"><path
             id="path312"
             style="fill:#262626;fill-opacity:1;fill-rule:nonzero;stroke:none"
             d="m 0,0 0,0.686 c 0,0.365 0.203,0.548 0.61,0.548 l 1.829,0 0,-0.548 -1.677,0 C 0.66,0.686 0.61,0.64 0.61,0.549 l 1.371,0 L 1.981,0 0,0 Z" /></g><g
           transform="translate(88.1947,96.5164)"
           id="g314"><path
             id="path316"
             style="fill:#262626;fill-opacity:1;fill-rule:nonzero;stroke:none"
             d="m 0,0 1.981,0 0,-0.549 -1.371,0 c 0,-0.091 0.05,-0.137 0.152,-0.137 l 1.677,0 0,-0.548 -1.829,0 C 0.203,-1.234 0,-1.051 0,-0.686 L 0,0 Z" /></g><g
           transform="translate(92.7673,97.8876)"
           id="g318"><path
             id="path320"
             style="fill:#262626;fill-opacity:1;fill-rule:nonzero;stroke:none"
             d="m 0,0 1.677,0 0,-0.549 -1.067,0 0,-2.742 -0.61,0 L 0,0 Z m -0.152,0 0,-3.291 -0.61,0 0,2.742 -1.067,0 0,0.549 1.677,0 z m 1.829,0.137 -3.506,0 0,0.549 3.506,0 0,-0.549 z" /></g><g
           transform="translate(97.4924,94.5966)"
           id="g322"><path
             id="path324"
             style="fill:#262626;fill-opacity:1;fill-rule:nonzero;stroke:none"
             d="m 0,0 -0.61,0 -0.762,1.371 0,-1.371 -0.609,0 0,1.92 0.914,0 L 0,0 Z M 0,2.674 C 0,2.503 -0.067,2.358 -0.201,2.237 -0.334,2.117 -0.471,2.057 -0.61,2.057 l -1.524,0 0,-2.057 -0.61,0 0,2.605 1.982,0 c 0.102,0 0.152,0.023 0.152,0.069 0,0.046 -0.05,0.068 -0.152,0.068 l -1.982,0 0,0.549 2.134,0 c 0.139,0 0.276,-0.061 0.409,-0.183 C -0.067,2.986 0,2.842 0,2.674 m 0.762,0 C 0.762,2.314 0.66,2.042 0.455,1.858 0.25,1.674 0.076,1.55 -0.066,1.486 L 0.762,0 l -0.61,0 -1.067,1.92 0.305,0 c 0.18,0 0.352,0.074 0.516,0.221 0.164,0.148 0.246,0.326 0.246,0.533 0,0.204 -0.082,0.381 -0.246,0.53 -0.164,0.149 -0.336,0.224 -0.516,0.224 l -2.134,0 0,0.549 2.134,0 c 0.349,0 0.665,-0.128 0.948,-0.384 C 0.621,3.337 0.762,3.03 0.762,2.674" /></g><g
           transform="translate(100.5408,97.202)"
           id="g326"><path
             id="path328"
             style="fill:#262626;fill-opacity:1;fill-rule:nonzero;stroke:none"
             d="m 0,0 c 0,0.091 -0.051,0.137 -0.152,0.137 l -0.305,0 C -0.559,0.137 -0.61,0.091 -0.61,0 l 0,-1.234 c 0,-0.092 0.051,-0.137 0.153,-0.137 l 0.305,0 C -0.051,-1.371 0,-1.326 0,-1.234 L 0,0 Z m 0.61,0.137 0,-1.508 C 0.61,-1.737 0.406,-1.92 0,-1.92 l -0.61,0 c -0.406,0 -0.609,0.183 -0.609,0.549 l 0,1.508 c 0,0.366 0.203,0.549 0.609,0.549 l 0.61,0 c 0.406,0 0.61,-0.183 0.61,-0.549 m 0.152,0 C 0.762,0.594 0.508,0.823 0,0.823 l -0.61,0 c -0.508,0 -0.762,-0.229 -0.762,-0.686 l 0,-1.508 c 0,-0.457 0.254,-0.686 0.762,-0.686 l 0.61,0 c 0.508,0 0.762,0.229 0.762,0.686 l 0,1.508 z m 0.61,0 0,-1.508 C 1.372,-2.194 0.915,-2.605 0,-2.605 l -0.61,0 c -0.914,0 -1.371,0.411 -1.371,1.234 l 0,1.508 c 0,0.823 0.457,1.234 1.371,1.234 l 0.61,0 c 0.915,0 1.372,-0.411 1.372,-1.234" /></g><g
           transform="translate(75.2948,95.5187)"
           id="g330"><path
             id="path332"
             style="fill:#262626;fill-opacity:1;fill-rule:nonzero;stroke:none"
             d="M 0,0 C -0.005,0.012 -0.008,0.025 -0.012,0.038 L 0,0.038 0,0 Z m 0.859,0.312 c -0.102,0 -0.153,0.046 -0.153,0.137 l 0,2.606 -1.371,0 0,-2.743 c 0,-0.823 0.457,-1.234 1.371,-1.234 l 1.829,0 0,1.234 -1.676,0 z" /></g><path
           id="path334"
           style="fill:#262626;fill-opacity:1;fill-rule:nonzero;stroke:none"
           d="m 78.135,94.597 1.372,0 0,3.977 -1.372,0 0,-3.977 z" /><g
           transform="translate(81.793,97.202)"
           id="g336"><path
             id="path338"
             style="fill:#262626;fill-opacity:1;fill-rule:nonzero;stroke:none"
             d="m 0,0 -0.61,0 0,0.137 0.61,0 C 0.102,0.137 0.152,0.114 0.152,0.069 0.152,0.023 0.102,0 0,0 m 0,-1.371 -0.61,0 0,0.137 0.61,0 c 0.102,0 0.152,-0.023 0.152,-0.069 0,-0.045 -0.05,-0.068 -0.152,-0.068 m 1.524,1.44 C 1.524,0.425 1.383,0.731 1.1,0.987 0.817,1.243 0.501,1.371 0.152,1.371 l -2.133,0 0,-3.976 2.133,0 c 0.349,0 0.665,0.128 0.948,0.384 0.283,0.256 0.424,0.562 0.424,0.918 0,0.259 -0.069,0.486 -0.208,0.681 0.139,0.195 0.208,0.425 0.208,0.691" /></g><g
           transform="translate(129,237)"
           id="g340"><path
             id="path342"
             style="fill:#191919;fill-opacity:1;fill-rule:nonzero;stroke:none"
             d="m 0,0 c 0,-0.552 -0.448,-1 -1,-1 -0.552,0 -1,0.448 -1,1 0,0.552 0.448,1 1,1 0.552,0 1,-0.448 1,-1" /></g><g
           transform="translate(137,237)"
           id="g344"><path
             id="path346"
             style="fill:#191919;fill-opacity:1;fill-rule:nonzero;stroke:none"
             d="m 0,0 c 0,-0.552 -0.448,-1 -1,-1 -0.552,0 -1,0.448 -1,1 0,0.552 0.448,1 1,1 0.552,0 1,-0.448 1,-1" /></g><g
           transform="translate(145,237)"
           id="g348"><path
             id="path350"
             style="fill:#191919;fill-opacity:1;fill-rule:nonzero;stroke:none"
             d="m 0,0 c 0,-0.552 -0.448,-1 -1,-1 -0.552,0 -1,0.448 -1,1 0,0.552 0.448,1 1,1 0.552,0 1,-0.448 1,-1" /></g><g
           transform="translate(153,237)"
           id="g352"><path
             id="path354"
             style="fill:#191919;fill-opacity:1;fill-rule:nonzero;stroke:none"
             d="m 0,0 c 0,-0.552 -0.448,-1 -1,-1 -0.552,0 -1,0.448 -1,1 0,0.552 0.448,1 1,1 0.552,0 1,-0.448 1,-1" /></g><g
           transform="translate(121,237)"
           id="g356"><path
             id="path358"
             style="fill:#191919;fill-opacity:1;fill-rule:nonzero;stroke:none"
             d="m 0,0 c 0,-0.552 -0.448,-1 -1,-1 -0.552,0 -1,0.448 -1,1 0,0.552 0.448,1 1,1 0.552,0 1,-0.448 1,-1" /></g><g
           transform="translate(113,237)"
           id="g360"><path
             id="path362"
             style="fill:#191919;fill-opacity:1;fill-rule:nonzero;stroke:none"
             d="m 0,0 c 0,-0.552 -0.448,-1 -1,-1 -0.552,0 -1,0.448 -1,1 0,0.552 0.448,1 1,1 0.552,0 1,-0.448 1,-1" /></g><g
           transform="translate(105,237)"
           id="g364"><path
             id="path366"
             style="fill:#191919;fill-opacity:1;fill-rule:nonzero;stroke:none"
             d="m 0,0 c 0,-0.552 -0.448,-1 -1,-1 -0.552,0 -1,0.448 -1,1 0,0.552 0.448,1 1,1 0.552,0 1,-0.448 1,-1" /></g><g
           transform="translate(141.3406,93.0142)"
           id="g368"><path
             id="path370"
             style="fill:#c2c2c2;fill-opacity:1;fill-rule:nonzero;stroke:none"
             d="m 0,0 0,0.807 2.288,0 c 0.169,0 0.253,0.089 0.253,0.269 l 0,0.538 1.271,0 0,-0.807 C 3.812,0.269 3.643,0 3.304,0 L 0,0 Z m -1.524,1.614 1.271,0 0,-2.152 -1.271,0 0,2.152 z m 0,0.268 c 0,0.539 0.169,0.808 0.508,0.808 l 4.32,0 c 0.339,0 0.508,-0.269 0.508,-0.808 l -5.336,0 z" /></g><path
           id="path372"
           style="fill:#000000;fill-opacity:1;fill-rule:nonzero;stroke:none"
           d="m 141.555,94.421 1.859,0 0,-0.124 -1.859,0 0,0.124 z m 3.089,1.759 -4.319,0 c -0.23,0 -0.977,-0.092 -0.977,-1.283 0,-0.047 0.007,-0.092 0.019,-0.135 -0.012,-0.042 -0.019,-0.087 -0.019,-0.134 l 0,-2.152 c 0,-0.263 0.21,-0.476 0.468,-0.476 l 1.271,0 c 0.258,0 0.468,0.213 0.468,0.476 l 0,0.062 3.089,0 c 0.229,0 0.977,0.093 0.977,1.283 l 0,0.807 c 0,0.047 -0.007,0.092 -0.019,0.134 0.012,0.043 0.019,0.088 0.019,0.135 0,1.191 -0.748,1.283 -0.977,1.283 m -3.557,-3.704 -1.271,0 0,2.152 1.271,0 0,-2.152 z m 4.066,2.152 0,-0.807 c 0,-0.538 -0.17,-0.807 -0.509,-0.807 l -3.303,0 0,0.807 2.287,0 c 0.17,0 0.254,0.089 0.254,0.269 l 0,0.538 1.271,0 m -0.509,1.076 c 0.339,0 0.509,-0.269 0.509,-0.807 l -5.337,0 c 0,0.538 0.17,0.807 0.509,0.807 l 4.319,0" /><g
           transform="translate(146.1696,92.476)"
           id="g374"><path
             id="path376"
             style="fill:#c2c2c2;fill-opacity:1;fill-rule:nonzero;stroke:none"
             d="m 0,0 c -0.339,0 -0.508,0.269 -0.508,0.807 l 0,1.345 1.27,0 0,-1.076 c 0,-0.179 0.085,-0.269 0.254,-0.269 l 3.05,0 L 4.066,0 0,0 Z m 0.762,2.421 -1.271,0 0,0.808 1.271,0 0,-0.808 z" /></g><g
           transform="translate(146.9318,96.1803)"
           id="g378"><path
             id="path380"
             style="fill:#000000;fill-opacity:1;fill-rule:nonzero;stroke:none"
             d="m 0,0 -1.271,0 c -0.258,0 -0.468,-0.213 -0.468,-0.476 l 0,-0.808 c 0,-0.046 0.007,-0.091 0.019,-0.134 -0.012,-0.043 -0.019,-0.088 -0.019,-0.134 l 0,-1.346 c 0,-1.19 0.748,-1.282 0.977,-1.282 l 4.066,0 c 0.258,0 0.468,0.213 0.468,0.476 l 0,0.806 c 0,0.263 -0.21,0.476 -0.468,0.476 l -2.836,0 0,0.87 c 0,0.046 -0.007,0.091 -0.019,0.134 0.012,0.043 0.019,0.088 0.019,0.134 l 0,0.808 C 0.468,-0.213 0.258,0 0,0 m 0,-1.552 0,-1.076 c 0,-0.179 0.084,-0.27 0.254,-0.27 l 3.05,0 0,-0.806 -4.066,0 c -0.339,0 -0.509,0.268 -0.509,0.806 l 0,1.346 1.271,0 m 0,0.268 -1.271,0 0,0.808 1.271,0 0,-0.808 z" /></g><path
           id="path382"
           style="fill:#c2c2c2;fill-opacity:1;fill-rule:nonzero;stroke:none"
           d="m 154.81,95.704 1.271,0 0,-0.808 -1.271,0 0,0.808 z m -3.558,-3.228 c -0.339,0 -0.508,0.269 -0.508,0.807 l 0,1.345 1.271,0 0,-1.076 c 0,-0.179 0.084,-0.269 0.253,-0.269 l 2.288,0 c 0.169,0 0.254,0.09 0.254,0.269 l 0,1.076 1.27,0 0,-1.345 c 0,-0.538 -0.169,-0.807 -0.508,-0.807 l -4.32,0 z m 0.763,2.421 -1.271,0 0,0.808 1.271,0 0,-0.808 z" /><g
           transform="translate(156.0804,96.1803)"
           id="g384"><path
             id="path386"
             style="fill:#000000;fill-opacity:1;fill-rule:nonzero;stroke:none"
             d="m 0,0 -1.271,0 c -0.258,0 -0.468,-0.213 -0.468,-0.476 l 0,-0.808 c 0,-0.046 0.007,-0.091 0.019,-0.134 -0.012,-0.043 -0.019,-0.088 -0.019,-0.134 l 0,-0.87 -1.859,0 0,0.87 c 0,0.046 -0.006,0.091 -0.019,0.134 0.013,0.043 0.019,0.088 0.019,0.134 l 0,0.808 C -3.598,-0.213 -3.807,0 -4.066,0 l -1.271,0 c -0.258,0 -0.468,-0.213 -0.468,-0.476 l 0,-0.808 c 0,-0.046 0.007,-0.091 0.019,-0.134 -0.012,-0.043 -0.019,-0.088 -0.019,-0.134 l 0,-1.346 c 0,-1.19 0.748,-1.282 0.977,-1.282 l 4.32,0 c 0.229,0 0.976,0.092 0.976,1.282 l 0,1.346 c 0,0.046 -0.007,0.091 -0.019,0.134 0.012,0.043 0.019,0.088 0.019,0.134 l 0,0.808 C 0.468,-0.213 0.258,0 0,0 m 0,-1.552 0,-1.346 c 0,-0.538 -0.169,-0.806 -0.508,-0.806 l -4.32,0 c -0.339,0 -0.509,0.268 -0.509,0.806 l 0,1.346 1.271,0 0,-1.076 c 0,-0.179 0.084,-0.27 0.254,-0.27 l 2.288,0 c 0.169,0 0.253,0.091 0.253,0.27 l 0,1.076 1.271,0 m -4.066,0.268 -1.271,0 0,0.808 1.271,0 0,-0.808 z m 4.066,0 -1.271,0 0,0.808 1.271,0 0,-0.808 z" /></g><g
           transform="translate(156.588,94.3593)"
           id="g388"><path
             id="path390"
             style="fill:#c2c2c2;fill-opacity:1;fill-rule:nonzero;stroke:none"
             d="m 0,0 0,0.269 1.271,0 C 1.271,0.089 1.355,0 1.524,0 l 3.05,0 c 0.509,0 0.763,-0.27 0.763,-0.807 l 0,-0.269 c 0,-0.539 -0.17,-0.807 -0.509,-0.807 l -4.828,0 0,0.807 3.812,0 c 0.17,0 0.254,0.044 0.254,0.134 0,0.09 -0.084,0.135 -0.254,0.135 l -3.304,0 C 0.169,-0.807 0,-0.538 0,0 m 0,0.537 c 0,0.539 0.169,0.808 0.508,0.808 l 4.575,0 0,-0.808 -5.083,0 z" /></g><g
           transform="translate(161.6708,96.1803)"
           id="g392"><path
             id="path394"
             style="fill:#000000;fill-opacity:1;fill-rule:nonzero;stroke:none"
             d="m 0,0 -4.574,0 c -0.229,0 -0.977,-0.093 -0.977,-1.284 0,-0.046 0.007,-0.091 0.019,-0.134 -0.012,-0.043 -0.019,-0.088 -0.019,-0.134 l 0,-0.269 c 0,-0.319 0.054,-0.56 0.137,-0.74 -0.085,-0.086 -0.137,-0.205 -0.137,-0.337 l 0,-0.806 c 0,-0.263 0.21,-0.476 0.468,-0.476 l 4.828,0 c 0.229,0 0.977,0.092 0.977,1.282 l 0,0.27 c 0,0.442 -0.139,0.786 -0.393,1.006 0.086,0.086 0.139,0.206 0.139,0.338 l 0,0.808 C 0.468,-0.213 0.258,0 0,0 m -3.812,-1.552 c 0,-0.18 0.084,-0.269 0.254,-0.269 l 3.05,0 c 0.508,0 0.762,-0.27 0.762,-0.807 l 0,-0.27 c 0,-0.538 -0.17,-0.806 -0.509,-0.806 l -4.828,0 0,0.806 3.812,0 c 0.17,0 0.254,0.045 0.254,0.135 0,0.09 -0.084,0.135 -0.254,0.135 l -3.303,0 c -0.339,0 -0.509,0.269 -0.509,0.807 l 0,0.269 1.271,0 M 0,-0.476 l 0,-0.808 -5.083,0 c 0,0.538 0.17,0.808 0.509,0.808 l 4.574,0" /></g><g
           transform="translate(164.2921,93.2828)"
           id="g396"><path
             id="path398"
             style="fill:#c2c2c2;fill-opacity:1;fill-rule:nonzero;stroke:none"
             d="m 0,0 0,1.345 1.271,0 0,-1.345 2.541,0 c 0.17,0 0.254,0.045 0.254,0.135 0,0.089 -0.084,0.135 -0.254,0.135 l -1.525,0 0,0.806 2.287,0 c 0.509,0 0.763,-0.269 0.763,-0.806 l 0,-0.27 c 0,-0.538 -0.17,-0.807 -0.509,-0.807 l -4.32,0 C 0.169,-0.807 0,-0.538 0,0 m 0,1.614 c 0,0.538 0.169,0.808 0.508,0.808 l 4.575,0 0,-0.808 -5.083,0 z" /></g><g
           transform="translate(166.0308,94.4206)"
           id="g400"><path
             id="path402"
             style="fill:#000000;fill-opacity:1;fill-rule:nonzero;stroke:none"
             d="M 0,0 0.084,0 C 0.081,-0.02 0.08,-0.041 0.08,-0.061 l 0,-0.601 -0.08,0 L 0,0 Z m 3.344,1.76 -4.574,0 c -0.229,0 -0.977,-0.093 -0.977,-1.284 0,-0.047 0.007,-0.092 0.019,-0.134 C -2.2,0.299 -2.207,0.254 -2.207,0.207 l 0,-1.345 c 0,-1.19 0.748,-1.283 0.977,-1.283 l 4.319,0 c 0.229,0 0.977,0.093 0.977,1.283 l 0,0.27 c 0,0.442 -0.139,0.786 -0.393,1.006 0.086,0.086 0.139,0.206 0.139,0.338 l 0,0.808 c 0,0.263 -0.209,0.476 -0.468,0.476 m -3.812,-1.553 0,-1.345 2.541,0 c 0.17,0 0.254,0.045 0.254,0.135 0,0.089 -0.084,0.135 -0.254,0.135 l -1.525,0 0,0.807 2.288,0 c 0.508,0 0.762,-0.27 0.762,-0.807 l 0,-0.27 c 0,-0.538 -0.17,-0.807 -0.509,-0.807 l -4.319,0 c -0.339,0 -0.509,0.269 -0.509,0.807 l 0,1.345 1.271,0 m 3.812,1.077 0,-0.808 -5.083,0 c 0,0.538 0.17,0.808 0.509,0.808 l 4.574,0" /></g><g
           transform="translate(174.6754,95.7044)"
           id="g404"><path
             id="path406"
             style="fill:#c2c2c2;fill-opacity:1;fill-rule:nonzero;stroke:none"
             d="m 0,0 1.524,0 -1.132,-0.808 -1.521,0 L 0,0 Z m -0.015,-3.228 -1.492,1.064 -1.492,-1.064 -1.524,0 2.254,1.61 -0.759,0.542 3.042,0 -0.759,-0.542 2.255,-1.61 -1.525,0 z m -3.39,2.42 -1.133,0.808 1.524,0 1.129,-0.808 -1.52,0 z" /></g><g
           transform="translate(174.6894,94.152)"
           id="g408"><path
             id="path410"
             style="fill:#000000;fill-opacity:1;fill-rule:nonzero;stroke:none"
             d="M 0,0 0.005,0 0,0 Z m 1.51,1.076 0.005,0 -0.005,0 z m 0,0.952 -1.524,0 c -0.096,0 -0.19,-0.03 -0.269,-0.086 L -1.413,1.134 C -1.455,1.103 -1.491,1.067 -1.521,1.026 -1.55,1.067 -1.587,1.103 -1.629,1.134 l -1.13,0.808 c -0.078,0.056 -0.172,0.086 -0.269,0.086 l -1.524,0 C -4.757,2.028 -4.937,1.894 -4.999,1.696 -5.06,1.498 -4.988,1.282 -4.821,1.163 L -3.688,0.355 C -3.622,0.308 -3.545,0.279 -3.464,0.271 -3.43,0.199 -3.378,0.135 -3.311,0.086 l 0.213,-0.152 -1.708,-1.221 c -0.168,-0.119 -0.239,-0.335 -0.178,-0.532 0.062,-0.198 0.242,-0.333 0.447,-0.333 l 1.524,0 c 0.096,0 0.19,0.03 0.269,0.086 l 1.223,0.873 1.223,-0.873 c 0.079,-0.056 0.173,-0.086 0.269,-0.086 l 1.524,0 c 0.205,0 0.385,0.135 0.447,0.333 0.061,0.197 -0.01,0.413 -0.177,0.532 L 0.056,-0.066 0.269,0.086 C 0.337,0.135 0.389,0.199 0.422,0.271 0.503,0.279 0.58,0.308 0.646,0.355 L 1.779,1.163 C 1.946,1.282 2.018,1.498 1.957,1.696 1.895,1.894 1.715,2.028 1.51,2.028 M 0,0.476 l -0.759,-0.542 2.254,-1.61 -1.524,0 -1.492,1.064 -1.492,-1.064 -1.524,0 2.254,1.61 -0.759,0.542 3.042,0 m -3.028,1.076 1.129,-0.807 -1.521,0 -1.132,0.807 1.524,0 m 4.538,0 -1.132,-0.807 -1.521,0 1.129,0.807 1.524,0" /></g><g
           transform="translate(132.468,97.8871)"
           id="g412"><path
             id="path414"
             style="fill:#9bc2dd;fill-opacity:1;fill-rule:nonzero;stroke:none"
             d="m 0,0 0,4.026 2.158,1.611 5.753,0 -1.438,-1.208 -3.596,0 0,-3.221 2.157,0 0,0.805 -1.798,0 1.439,1.208 3.236,0 0,-2.013 L 6.473,0 0,0 Z" /></g><g
           transform="translate(140.379,103.0481)"
           id="g416"><path
             id="path418"
             style="fill:#000000;fill-opacity:1;fill-rule:nonzero;stroke:none"
             d="M 0,0 0.005,0 0,0 Z m 0.005,0.952 -0.005,0 -5.753,0 c -0.1,0 -0.197,-0.032 -0.277,-0.092 l -2.158,-1.611 c -0.12,-0.09 -0.191,-0.232 -0.191,-0.384 l 0,-4.026 c 0,-0.263 0.21,-0.476 0.468,-0.476 l 6.473,0 c 0.108,0 0.214,0.039 0.298,0.109 l 1.438,1.208 c 0.108,0.09 0.17,0.225 0.17,0.367 l 0,2.013 c 0,0.263 -0.21,0.476 -0.468,0.476 l -3.236,0 c -0.109,0 -0.214,-0.039 -0.298,-0.109 l -1.032,-0.866 0,1.231 3.128,0 c 0.108,0 0.214,0.039 0.298,0.109 L 0.281,0.094 C 0.396,0.181 0.47,0.32 0.47,0.476 0.47,0.739 0.263,0.952 0.005,0.952 M 0,0.476 l -1.438,-1.208 -3.596,0 0,-3.221 2.157,0 0,0.805 -1.798,0 1.439,1.208 3.236,0 0,-2.013 -1.438,-1.208 -6.473,0 0,4.026 2.158,1.611 5.753,0 m 0,0 0.005,0" /></g><g
           transform="translate(140.7386,97.8871)"
           id="g420"><path
             id="path422"
             style="fill:#9bc2dd;fill-opacity:1;fill-rule:nonzero;stroke:none"
             d="m 0,0 0,4.026 2.158,1.611 5.753,0 -1.438,-1.208 -3.596,0 0,-1.208 3.596,0 -1.439,-1.208 -2.157,0 0,-0.805 5.034,0 L 6.473,0 0,0 Z" /></g><g
           transform="translate(148.6495,103.0481)"
           id="g424"><path
             id="path426"
             style="fill:#000000;fill-opacity:1;fill-rule:nonzero;stroke:none"
             d="M 0,0 0.005,0 0,0 Z m 0.005,0.952 -0.005,0 -5.753,0 c -0.1,0 -0.197,-0.032 -0.277,-0.092 l -2.158,-1.611 c -0.12,-0.09 -0.191,-0.232 -0.191,-0.384 l 0,-4.026 c 0,-0.263 0.21,-0.476 0.468,-0.476 l 6.473,0 c 0.108,0 0.214,0.039 0.298,0.109 L 0.298,-4.32 C 0.45,-4.192 0.507,-3.981 0.44,-3.792 0.374,-3.603 0.197,-3.477 0,-3.477 l -2.534,0 1.376,1.156 c 0.115,0.086 0.19,0.225 0.19,0.381 0,0.263 -0.207,0.476 -0.466,0.476 l -0.004,0 -3.128,0 0,0.256 3.128,0 c 0.108,0 0.214,0.039 0.298,0.109 L 0.281,0.094 C 0.396,0.181 0.47,0.32 0.47,0.476 0.47,0.739 0.263,0.952 0.005,0.952 m -1.443,-2.892 0.004,0 M 0,0.476 l -1.438,-1.208 -3.596,0 0,-1.208 3.596,0 -1.439,-1.208 -2.157,0 0,-0.805 5.034,0 -1.438,-1.208 -6.473,0 0,4.026 2.158,1.611 5.753,0 m 0,0 0.005,0" /></g><g
           transform="translate(148.2899,97.8871)"
           id="g428"><path
             id="path430"
             style="fill:#9bc2dd;fill-opacity:1;fill-rule:nonzero;stroke:none"
             d="m 0,0 0,5.637 2.877,0 2.157,-1.208 0,1.208 2.877,0 0,-5.637 -2.877,0 0,2.818 L 2.877,4.026 2.877,0 0,0 Z" /></g><g
           transform="translate(156.2009,104)"
           id="g432"><path
             id="path434"
             style="fill:#000000;fill-opacity:1;fill-rule:nonzero;stroke:none"
             d="m 0,0 -2.877,0 c -0.258,0 -0.468,-0.213 -0.468,-0.476 l 0,-0.403 -1.463,0.82 C -4.878,-0.02 -4.955,0 -5.034,0 l -2.877,0 c -0.258,0 -0.468,-0.213 -0.468,-0.476 l 0,-5.637 c 0,-0.263 0.21,-0.476 0.468,-0.476 l 2.877,0 c 0.258,0 0.468,0.213 0.468,0.476 l 0,3.221 1.221,-0.684 0,-2.537 c 0,-0.263 0.21,-0.476 0.468,-0.476 l 2.877,0 c 0.258,0 0.468,0.213 0.468,0.476 l 0,5.637 C 0.468,-0.213 0.258,0 0,0 m 0,-0.476 0,-5.637 -2.877,0 0,2.819 -2.157,1.207 0,-4.026 -2.877,0 0,5.637 2.877,0 2.157,-1.208 0,1.208 2.877,0" /></g><g
           transform="translate(156.5605,97.8871)"
           id="g436"><path
             id="path438"
             style="fill:#9bc2dd;fill-opacity:1;fill-rule:nonzero;stroke:none"
             d="m 0,0 0,4.026 2.158,1.611 5.753,0 -1.438,-1.208 -3.596,0 0,-1.208 3.596,0 -1.439,-1.208 -2.157,0 0,-0.805 5.034,0 L 6.473,0 0,0 Z" /></g><g
           transform="translate(164.4714,103.0481)"
           id="g440"><path
             id="path442"
             style="fill:#000000;fill-opacity:1;fill-rule:nonzero;stroke:none"
             d="M 0,0 0.005,0 0,0 Z m 0.005,0.952 -0.005,0 -5.753,0 c -0.1,0 -0.197,-0.032 -0.277,-0.092 l -2.158,-1.611 c -0.12,-0.09 -0.191,-0.232 -0.191,-0.384 l 0,-4.026 c 0,-0.263 0.21,-0.476 0.468,-0.476 l 6.473,0 c 0.108,0 0.214,0.039 0.298,0.109 L 0.298,-4.32 C 0.45,-4.192 0.507,-3.981 0.44,-3.792 0.374,-3.603 0.197,-3.477 0,-3.477 l -2.534,0 1.376,1.156 c 0.115,0.086 0.19,0.225 0.19,0.381 0,0.263 -0.207,0.476 -0.466,0.476 l -0.004,0 -3.128,0 0,0.256 3.128,0 c 0.108,0 0.214,0.039 0.298,0.109 L 0.281,0.094 C 0.396,0.181 0.47,0.32 0.47,0.476 0.47,0.739 0.263,0.952 0.005,0.952 m -1.443,-2.892 0.004,0 M 0,0.476 l -1.438,-1.208 -3.596,0 0,-1.208 3.596,0 -1.439,-1.208 -2.157,0 0,-0.805 5.034,0 -1.438,-1.208 -6.473,0 0,4.026 2.158,1.611 5.753,0 m 0,0 0.005,0" /></g><g
           transform="translate(164.1118,99.9003)"
           id="g444"><path
             id="path446"
             style="fill:#9bc2dd;fill-opacity:1;fill-rule:nonzero;stroke:none"
             d="m 0,0 0,2.013 2.158,1.611 5.753,0 -1.438,-1.208 -3.596,0 0,-1.208 5.034,0 0,-2.013 -1.438,-1.208 -6.473,0 1.438,1.208 3.596,0 L 5.034,0 0,0 Z" /></g><g
           transform="translate(172.0228,103.0481)"
           id="g448"><path
             id="path450"
             style="fill:#000000;fill-opacity:1;fill-rule:nonzero;stroke:none"
             d="M 0,0 0.005,0 0,0 Z m 0.005,0.952 -0.005,0 -5.753,0 c -0.1,0 -0.197,-0.032 -0.277,-0.092 l -2.158,-1.611 c -0.12,-0.09 -0.191,-0.232 -0.191,-0.384 l 0,-2.013 c 0,-0.263 0.21,-0.476 0.468,-0.476 l 1.096,0 -1.394,-1.17 c -0.152,-0.128 -0.209,-0.339 -0.142,-0.528 0.066,-0.189 0.243,-0.315 0.44,-0.315 l 6.473,0 c 0.108,0 0.214,0.039 0.298,0.109 l 1.438,1.208 c 0.108,0.09 0.17,0.225 0.17,0.367 l 0,2.013 c 0,0.263 -0.21,0.476 -0.468,0.476 l -4.566,0 0,0.256 3.128,0 c 0.108,0 0.214,0.039 0.298,0.109 L 0.281,0.094 C 0.396,0.181 0.47,0.32 0.47,0.476 0.47,0.739 0.263,0.952 0.005,0.952 M 0,0.476 l -1.438,-1.208 -3.596,0 0,-1.208 5.034,0 0,-2.013 -1.438,-1.208 -6.473,0 1.438,1.208 3.596,0 0,0.805 -5.034,0 0,2.013 2.158,1.611 5.753,0 m 0,0 0.005,0" /></g><path
           id="path452"
           style="fill:#9bc2dd;fill-opacity:1;fill-rule:nonzero;stroke:none"
           d="m 172.382,103.524 2.877,0 0,-5.637 -2.877,0 0,5.637 z" /><g
           transform="translate(175.2591,104)"
           id="g454"><path
             id="path456"
             style="fill:#000000;fill-opacity:1;fill-rule:nonzero;stroke:none"
             d="m 0,0 -2.877,0 c -0.258,0 -0.468,-0.213 -0.468,-0.476 l 0,-5.637 c 0,-0.263 0.21,-0.476 0.468,-0.476 l 2.877,0 c 0.258,0 0.468,0.213 0.468,0.476 l 0,5.637 C 0.468,-0.213 0.258,0 0,0 m 0,-6.113 -2.877,0 0,5.637 2.877,0 0,-5.637 z" /></g><g
           transform="translate(175.6187,99.9003)"
           id="g458"><path
             id="path460"
             style="fill:#9bc2dd;fill-opacity:1;fill-rule:nonzero;stroke:none"
             d="m 0,0 0,2.013 2.158,1.611 5.753,0 -1.438,-1.208 -3.596,0 0,-1.208 5.034,0 0,-2.013 -1.438,-1.208 -6.473,0 1.438,1.208 3.596,0 L 5.034,0 0,0 Z" /></g><g
           transform="translate(183.5296,103.0481)"
           id="g462"><path
             id="path464"
             style="fill:#000000;fill-opacity:1;fill-rule:nonzero;stroke:none"
             d="M 0,0 0.005,0 0,0 Z m 0.005,0.952 -0.005,0 -5.753,0 c -0.1,0 -0.197,-0.032 -0.277,-0.092 l -2.158,-1.611 c -0.12,-0.09 -0.191,-0.232 -0.191,-0.384 l 0,-2.013 c 0,-0.263 0.21,-0.476 0.468,-0.476 l 1.096,0 -1.394,-1.17 c -0.152,-0.128 -0.209,-0.339 -0.142,-0.528 0.066,-0.189 0.243,-0.315 0.44,-0.315 l 6.473,0 c 0.108,0 0.214,0.039 0.298,0.109 l 1.438,1.208 c 0.108,0.09 0.17,0.225 0.17,0.367 l 0,2.013 c 0,0.263 -0.21,0.476 -0.468,0.476 l -4.566,0 0,0.256 3.128,0 c 0.108,0 0.214,0.039 0.298,0.109 L 0.281,0.094 C 0.396,0.181 0.47,0.32 0.47,0.476 0.47,0.739 0.263,0.952 0.005,0.952 M 0,0.476 l -1.438,-1.208 -3.596,0 0,-1.208 5.034,0 0,-2.013 -1.438,-1.208 -6.473,0 1.438,1.208 3.596,0 0,0.805 -5.034,0 0,2.013 2.158,1.611 5.753,0 m 0,0 0.005,0" /></g></g></g></g></svg>