<?xml version="1.0" encoding="UTF-8" standalone="no"?>
<svg
   xmlns:dc="http://purl.org/dc/elements/1.1/"
   xmlns:cc="http://creativecommons.org/ns#"
   xmlns:rdf="http://www.w3.org/1999/02/22-rdf-syntax-ns#"
   xmlns:svg="http://www.w3.org/2000/svg"
   xmlns="http://www.w3.org/2000/svg"
   viewBox="0 0 320 320"
   height="320"
   width="320"
   xml:space="preserve"
   version="1.1"
   id="svg2"><metadata
     id="metadata8"><rdf:RDF><cc:Work
         rdf:about=""><dc:format>image/svg+xml</dc:format><dc:type
           rdf:resource="http://purl.org/dc/dcmitype/StillImage" /></cc:Work></rdf:RDF></metadata><defs
     id="defs6"><clipPath
       id="clipPath16"
       clipPathUnits="userSpaceOnUse"><path
         id="path18"
         d="M 0,256 256,256 256,0 0,0 0,256 Z" /></clipPath><clipPath
       id="clipPath24"
       clipPathUnits="userSpaceOnUse"><path
         id="path26"
         d="M 4,208 252,208 252,48 4,48 4,208 Z" /></clipPath></defs><g
     transform="matrix(1.25,0,0,-1.25,0,320)"
     id="g10"><g
       id="g12"><g
         clip-path="url(#clipPath16)"
         id="g14"><g
           id="g20"><g
             id="g22" /><g
             id="g28"><g
               style="opacity:0.5"
               id="g30"
               clip-path="url(#clipPath24)"><g
                 id="g32"
                 transform="translate(232.7742,208)"><path
                   id="path34"
                   style="fill:#ffffff;fill-opacity:1;fill-rule:nonzero;stroke:none"
                   d="m 0,0 -209.548,0 c -3.126,0 -6.965,-0.769 -10.02,-2.006 -8.309,-3.366 -9.206,-9.288 -9.206,-11.678 l 0,-117.476 c 0,-12.497 15.029,-21.881 25.805,-23.107 33.891,-3.858 65.916,-5.733 97.906,-5.733 31.987,0 64.198,1.875 98.474,5.732 10.779,1.213 25.815,10.591 25.815,23.108 l 0,117.476 c 0,2.39 -0.897,8.312 -9.206,11.678 C 6.965,-0.769 3.125,0 0,0" /></g></g></g></g><g
           transform="translate(23.2258,200)"
           id="g36"><path
             id="path38"
             style="fill:#404040;fill-opacity:1;fill-rule:nonzero;stroke:none"
             d="m 0,0 209.548,0 c 3.742,0 11.226,-1.895 11.226,-5.684 l 0,-117.476 c 0,-7.579 -11.271,-14.321 -18.709,-15.158 -67.355,-7.58 -128.059,-7.572 -194.581,0 -7.449,0.847 -18.71,7.579 -18.71,15.158 l 0,117.476 C -11.226,-1.895 -3.742,0 0,0" /></g><g
           transform="translate(26.8387,200)"
           id="g40"><path
             id="path42"
             style="fill:#595959;fill-opacity:1;fill-rule:nonzero;stroke:none"
             d="m 0,0 202.323,0 c 3.612,0 10.838,-1.895 10.838,-5.684 l 0,-117.476 c 0,-7.579 -10.883,-14.321 -18.064,-15.158 -65.032,-7.58 -123.643,-7.572 -187.871,0 -7.192,0.847 -18.065,7.579 -18.065,15.158 l 0,117.476 C -10.839,-1.895 -3.613,0 0,0" /></g><g
           transform="translate(71.7098,196)"
           id="g44"><path
             id="path46"
             style="fill:#191919;fill-opacity:1;fill-rule:nonzero;stroke:none"
             d="m 0,0 112.546,0 c 2.065,0 3.727,-1.686 3.727,-3.78 l 0,-113.385 c 0,-3.78 -120,-3.78 -120,0 l 0,113.385 C -3.727,-1.686 -2.065,0 0,0" /></g><path
           id="path48"
           style="fill:#7f8c8d;fill-opacity:1;fill-rule:nonzero;stroke:none"
           d="m 83.983,176 88,0 0,-84 -88,0 0,84 z" /><g
           transform="translate(151.9827,76.2049)"
           id="g50"><path
             id="path52"
             style="fill:#191919;fill-opacity:1;fill-rule:nonzero;stroke:none"
             d="m 0,0 0,10.399 -48,0 L -48,0 c 15.216,-0.273 32.784,-0.273 48,0" /></g><g
           transform="translate(108.3068,80.1244)"
           id="g54"><path
             id="path56"
             style="fill:#ffffff;fill-opacity:1;fill-rule:nonzero;stroke:none"
             d="m 0,0 -0.162,0 -0.162,0 0,3.903 0.22,0 0.221,0 1.807,-3.226 0,3.226 0.162,0 0.162,0 L 2.248,0 2.086,0 1.921,0 0,3.428 0,0 Z" /></g><g
           transform="translate(111.1921,80.1244)"
           id="g58"><path
             id="path60"
             style="fill:#ffffff;fill-opacity:1;fill-rule:nonzero;stroke:none"
             d="m 0,0 0,3.903 1.77,0 0,-0.175 0,-0.178 -1.446,0 0,-1.404 1.401,0 0,-0.175 0,-0.178 -1.401,0 0,-1.44 1.446,0 0,-0.175 L 1.77,0 0,0 Z" /></g><g
           transform="translate(116.1087,80.8909)"
           id="g62"><path
             id="path64"
             style="fill:#ffffff;fill-opacity:1;fill-rule:nonzero;stroke:none"
             d="M 0,0 C 0.267,0.322 0.4,0.717 0.4,1.184 0.4,1.651 0.267,2.046 0,2.369 -0.267,2.692 -0.594,2.854 -0.982,2.854 -1.369,2.854 -1.696,2.692 -1.963,2.369 -2.23,2.046 -2.364,1.651 -2.364,1.184 -2.364,0.717 -2.23,0.322 -1.963,0 c 0.267,-0.322 0.594,-0.483 0.981,-0.483 0.388,0 0.715,0.161 0.982,0.483 m -2.195,-0.249 c -0.332,0.39 -0.497,0.868 -0.497,1.433 0,0.565 0.165,1.043 0.497,1.434 0.331,0.391 0.735,0.586 1.213,0.586 0.479,0 0.884,-0.195 1.214,-0.586 0.331,-0.391 0.496,-0.869 0.496,-1.434 0,-0.565 -0.165,-1.043 -0.496,-1.433 -0.33,-0.39 -0.735,-0.585 -1.214,-0.585 -0.478,0 -0.882,0.195 -1.213,0.585" /></g><g
           transform="translate(120.957,80.1244)"
           id="g66"><path
             id="path68"
             style="fill:#ffffff;fill-opacity:1;fill-rule:nonzero;stroke:none"
             d="m 0,0 0,3.903 1.77,0 0,-0.175 0,-0.178 -1.446,0 0,-1.404 1.401,0 0,-0.175 0,-0.178 -1.401,0 0,-1.44 1.446,0 0,-0.175 L 1.77,0 0,0 Z" /></g><g
           transform="translate(123.7592,83.6749)"
           id="g70"><path
             id="path72"
             style="fill:#ffffff;fill-opacity:1;fill-rule:nonzero;stroke:none"
             d="m 0,0 -0.74,0 0,0.175 0,0.178 1.804,0 0,-0.175 0,-0.178 -0.74,0 0,-3.55 -0.162,0 L 0,-3.55 0,0 Z" /></g><g
           transform="translate(125.1581,84.0279)"
           id="g74"><path
             id="path76"
             style="fill:#ffffff;fill-opacity:1;fill-rule:nonzero;stroke:none"
             d="m 0,0 0.162,0 0.823,0 c 0.378,0 0.674,-0.11 0.887,-0.329 0.214,-0.219 0.32,-0.523 0.32,-0.913 0,-0.388 -0.106,-0.691 -0.32,-0.909 C 1.707,-2.318 1.493,-2.422 1.23,-2.463 l 0.924,-1.44 -0.205,0 -0.205,0 -1.106,1.775 0.347,0 c 0.276,0 0.491,0.078 0.646,0.234 0.155,0.157 0.233,0.374 0.233,0.652 0,0.28 -0.078,0.499 -0.233,0.656 -0.155,0.157 -0.37,0.236 -0.646,0.236 l -0.661,0 0,-3.553 -0.162,0 L 0,-3.903 0,0 Z" /></g><g
           transform="translate(130.3839,80.8909)"
           id="g78"><path
             id="path80"
             style="fill:#ffffff;fill-opacity:1;fill-rule:nonzero;stroke:none"
             d="M 0,0 C 0.267,0.322 0.4,0.717 0.4,1.184 0.4,1.651 0.267,2.046 0,2.369 -0.267,2.692 -0.594,2.854 -0.982,2.854 -1.369,2.854 -1.696,2.692 -1.963,2.369 -2.23,2.046 -2.364,1.651 -2.364,1.184 -2.364,0.717 -2.23,0.322 -1.963,0 c 0.267,-0.322 0.594,-0.483 0.981,-0.483 0.388,0 0.715,0.161 0.982,0.483 m -2.195,-0.249 c -0.332,0.39 -0.497,0.868 -0.497,1.433 0,0.565 0.165,1.043 0.497,1.434 0.331,0.391 0.735,0.586 1.213,0.586 0.479,0 0.884,-0.195 1.214,-0.586 0.331,-0.391 0.496,-0.869 0.496,-1.434 0,-0.565 -0.165,-1.043 -0.496,-1.433 -0.33,-0.39 -0.735,-0.585 -1.214,-0.585 -0.478,0 -0.882,0.195 -1.213,0.585" /></g><g
           transform="translate(131.9524,82.0414)"
           id="g82"><path
             id="path84"
             style="fill:#ffffff;fill-opacity:1;fill-rule:nonzero;stroke:none"
             d="M 0,0 0.635,0 C 0.901,0 1.109,0.072 1.258,0.216 1.407,0.361 1.482,0.561 1.482,0.817 1.482,1.073 1.407,1.273 1.258,1.418 1.109,1.564 0.901,1.636 0.635,1.636 L 0,1.636 0,0 Z m -0.324,1.987 0.162,0 0.797,0 C 1.004,1.987 1.292,1.883 1.499,1.676 1.707,1.469 1.811,1.183 1.811,0.817 1.811,0.451 1.707,0.165 1.499,-0.041 1.292,-0.247 1.004,-0.35 0.635,-0.35 l -0.635,0 0,-1.567 -0.162,0 -0.162,0 0,3.904 z" /></g><g
           transform="translate(136.7645,80.8909)"
           id="g86"><path
             id="path88"
             style="fill:#ffffff;fill-opacity:1;fill-rule:nonzero;stroke:none"
             d="M 0,0 C 0.267,0.322 0.4,0.717 0.4,1.184 0.4,1.651 0.267,2.046 0,2.369 -0.267,2.692 -0.594,2.854 -0.982,2.854 -1.369,2.854 -1.696,2.692 -1.963,2.369 -2.23,2.046 -2.364,1.651 -2.364,1.184 -2.364,0.717 -2.23,0.322 -1.963,0 c 0.267,-0.322 0.594,-0.483 0.981,-0.483 0.388,0 0.715,0.161 0.982,0.483 m -2.195,-0.249 c -0.332,0.39 -0.497,0.868 -0.497,1.433 0,0.565 0.165,1.043 0.497,1.434 0.331,0.391 0.735,0.586 1.213,0.586 0.479,0 0.884,-0.195 1.214,-0.586 0.331,-0.391 0.496,-0.869 0.496,-1.434 0,-0.565 -0.165,-1.043 -0.496,-1.433 -0.33,-0.39 -0.735,-0.585 -1.214,-0.585 -0.478,0 -0.882,0.195 -1.213,0.585" /></g><g
           transform="translate(141.0476,81.1473)"
           id="g90"><path
             id="path92"
             style="fill:#ffffff;fill-opacity:1;fill-rule:nonzero;stroke:none"
             d="M 0,0 C -0.118,-0.316 -0.316,-0.577 -0.595,-0.782 -0.874,-0.987 -1.169,-1.09 -1.48,-1.09 c -0.475,0 -0.877,0.195 -1.206,0.585 -0.329,0.39 -0.494,0.867 -0.494,1.433 0,0.565 0.165,1.043 0.494,1.433 0.329,0.391 0.731,0.587 1.206,0.587 0.304,0 0.593,-0.101 0.865,-0.302 0.272,-0.201 0.466,-0.457 0.583,-0.768 l -0.35,0 C -0.484,2.09 -0.638,2.262 -0.843,2.396 -1.049,2.53 -1.261,2.597 -1.48,2.597 -1.864,2.597 -2.188,2.436 -2.453,2.113 -2.719,1.79 -2.851,1.395 -2.851,0.928 c 0,-0.468 0.132,-0.862 0.398,-1.184 0.265,-0.322 0.589,-0.483 0.973,-0.483 0.226,0 0.445,0.069 0.656,0.207 0.211,0.138 0.369,0.316 0.474,0.532 L 0,0 Z" /></g><g
           transform="translate(141.585,84.0279)"
           id="g94"><path
             id="path96"
             style="fill:#ffffff;fill-opacity:1;fill-rule:nonzero;stroke:none"
             d="m 0,0 0.162,0 0.162,0 0,-2.251 L 1.821,0 2.024,0 2.226,0 0.932,-1.912 l 1.294,-1.991 -0.204,0 -0.205,0 -1.083,1.704 -0.41,-0.604 0,-1.1 -0.162,0 L 0,-3.903 0,0 Z" /></g><g
           transform="translate(144.1164,80.1244)"
           id="g98"><path
             id="path100"
             style="fill:#ffffff;fill-opacity:1;fill-rule:nonzero;stroke:none"
             d="m 0,0 0,3.903 1.77,0 0,-0.175 0,-0.178 -1.446,0 0,-1.404 1.401,0 0,-0.175 0,-0.178 -1.401,0 0,-1.44 1.446,0 0,-0.175 L 1.77,0 0,0 Z" /></g><g
           transform="translate(146.9185,83.6749)"
           id="g102"><path
             id="path104"
             style="fill:#ffffff;fill-opacity:1;fill-rule:nonzero;stroke:none"
             d="m 0,0 -0.74,0 0,0.175 0,0.178 1.804,0 0,-0.175 0,-0.178 -0.74,0 0,-3.55 -0.162,0 L 0,-3.55 0,0 Z" /></g><g
           transform="translate(118.9574,82.6929)"
           id="g106"><path
             id="path108"
             style="fill:#ff0000;fill-opacity:1;fill-rule:nonzero;stroke:none"
             d="M 0,0 C 0.312,0.254 0.529,0.546 0.653,0.875 0.812,1.303 0.793,1.752 0.596,2.22 0.398,2.69 0.108,2.975 -0.272,3.073 -0.653,3.172 -1.082,3.074 -1.56,2.78 l -1.041,-0.639 -0.205,-0.126 1.982,-4.708 0.205,0.126 0.204,0.126 -1.803,4.285 0.835,0.514 c 0.349,0.214 0.661,0.286 0.937,0.217 C -0.17,2.506 0.038,2.303 0.181,1.965 0.322,1.629 0.334,1.307 0.218,0.998 0.12,0.739 -0.064,0.515 -0.325,0.323 l -0.626,0.624 0.085,0.581 0.657,-0.048 0,0.702 -1.007,0 c 0,0 -0.376,-1.332 -0.296,-1.429 0.08,-0.097 0.541,-0.654 0.593,-0.809 L 1.38,-1.338 1.639,-1.179 1.898,-1.02 0,0 Z" /></g><g
           transform="translate(118.7484,88)"
           id="g110"><path
             id="path112"
             style="fill:#ff0000;fill-opacity:1;fill-rule:nonzero;stroke:none"
             d="m 0,0 0.601,0 -0.441,-1.526 -0.405,0 L 0,0 Z" /></g><g
           transform="translate(119.3498,86.3044)"
           id="g114"><path
             id="path116"
             style="fill:#ff0000;fill-opacity:1;fill-rule:nonzero;stroke:none"
             d="M 0,0 0.2,-0.242 1.163,0.933 0.581,1.526 0,0 Z" /></g><g
           transform="translate(119.851,85.8032)"
           id="g118"><path
             id="path120"
             style="fill:#ff0000;fill-opacity:1;fill-rule:nonzero;stroke:none"
             d="M 0,0 1.005,1.058 1.263,0.114 0.2,-0.395 0,0 Z" /></g><path
           id="path122"
           style="fill:#404040;fill-opacity:1;fill-rule:nonzero;stroke:none"
           d="m 126.063,72 2.414,0 0,-8 -2.414,0 0,8 z" /><g
           transform="translate(135.0627,66.2805)"
           id="g124"><path
             id="path126"
             style="fill:#404040;fill-opacity:1;fill-rule:nonzero;stroke:none"
             d="m 0,0 c -0.054,-0.025 -0.117,-0.035 -0.176,-0.043 -0.061,-0.007 -0.122,-0.002 -0.183,-0.002 -1.043,0 -2.087,0 -3.13,0 l 0,0.647 3.387,0 C -0.071,0.597 -0.041,0.59 -0.012,0.579 0.107,0.533 0.194,0.403 0.187,0.283 0.18,0.15 0.114,0.053 0,0 m -0.394,3.498 c 0.068,0 0.136,0.004 0.203,-0.002 C -0.13,3.491 -0.068,3.483 -0.012,3.462 0.107,3.416 0.194,3.286 0.187,3.166 0.18,3.033 0.114,2.935 0,2.883 -0.054,2.858 -0.117,2.847 -0.176,2.84 -0.201,2.837 -0.227,2.837 -0.252,2.837 c -0.008,0 -0.015,0 -0.023,0 -0.028,0 -0.056,10e-4 -0.084,10e-4 -1.043,0 -2.087,0 -3.13,0 l 0,0.66 c 1.032,0 2.063,0 3.095,0 M 2.563,1.738 C 2.622,1.842 2.675,1.953 2.722,2.072 3.014,2.813 3.007,3.566 2.714,4.304 2.439,4.999 1.947,5.449 1.253,5.644 1.022,5.709 -5.904,5.72 -5.904,5.72 l 0,-8 c 0,0 5.391,0 6.879,0 0.068,0.026 0.135,0.06 0.206,0.078 0.737,0.188 1.252,0.658 1.541,1.391 C 3.014,-0.07 3.007,0.683 2.714,1.421 2.67,1.533 2.619,1.638 2.563,1.738" /></g><g
           transform="translate(120.4144,65.3259)"
           id="g128"><path
             id="path130"
             style="fill:#404040;fill-opacity:1;fill-rule:nonzero;stroke:none"
             d="m 0,0 0,6.674 -2.414,0 0,-8 7.533,0 L 5.119,0 0,0 Z" /></g><g
           transform="translate(26.6691,176)"
           id="g132"><path
             id="path134"
             style="fill:#404040;fill-opacity:1;fill-rule:nonzero;stroke:none"
             d="m 0,0 8.049,0 c 2.195,0 3.975,-1.791 3.975,-4 0,-2.209 -1.78,-4 -3.975,-4 L 0,-8 c -2.196,0 -3.976,1.791 -3.976,4 0,2.209 1.78,4 3.976,4" /></g><g
           transform="translate(55.9756,176)"
           id="g136"><path
             id="path138"
             style="fill:#404040;fill-opacity:1;fill-rule:nonzero;stroke:none"
             d="m 0,0 0.049,0 c 2.195,0 3.975,-1.791 3.975,-4 0,-2.209 -1.78,-4 -3.975,-4 L 0,-8 c -2.196,0 -3.976,1.791 -3.976,4 0,2.209 1.78,4 3.976,4" /></g><g
           transform="translate(214,138)"
           id="g140"><path
             id="path142"
             style="fill:#404040;fill-opacity:1;fill-rule:nonzero;stroke:none"
             d="m 0,0 c 0,-5.523 -4.477,-10 -10,-10 -5.523,0 -10,4.477 -10,10 0,5.523 4.477,10 10,10 C -4.477,10 0,5.523 0,0" /></g><g
           transform="translate(234,154)"
           id="g144"><path
             id="path146"
             style="fill:#404040;fill-opacity:1;fill-rule:nonzero;stroke:none"
             d="m 0,0 c 0,-5.523 -4.477,-10 -10,-10 -5.523,0 -10,4.477 -10,10 0,5.523 4.477,10 10,10 C -4.477,10 0,5.523 0,0" /></g><g
           transform="translate(60,140)"
           id="g148"><path
             id="path150"
             style="fill:#4c4c4c;fill-opacity:1;fill-rule:nonzero;stroke:none"
             d="m 0,0 c 0,-11.046 -8.954,-20 -20,-20 -11.046,0 -20,8.954 -20,20 0,11.046 8.954,20 20,20 C -8.954,20 0,11.046 0,0" /></g><g
           transform="translate(52,140)"
           id="g152"><path
             id="path154"
             style="fill:#404040;fill-opacity:1;fill-rule:nonzero;stroke:none"
             d="m 0,0 c 0,-6.627 -5.373,-12 -12,-12 -6.627,0 -12,5.373 -12,12 0,6.627 5.373,12 12,12 C -5.373,12 0,6.627 0,0" /></g><g
           transform="translate(232,182)"
           id="g156"><path
             id="path158"
             style="fill:#404040;fill-opacity:1;fill-rule:nonzero;stroke:none"
             d="m 0,0 c 0,-3.314 -2.686,-6 -6,-6 -3.314,0 -6,2.686 -6,6 0,3.314 2.686,6 6,6 3.314,0 6,-2.686 6,-6" /></g><g
           transform="translate(34,100)"
           id="g160"><path
             id="path162"
             style="fill:#404040;fill-opacity:1;fill-rule:nonzero;stroke:none"
             d="m 0,0 c 0,-1.105 -0.895,-2 -2,-2 -1.105,0 -2,0.895 -2,2 0,1.105 0.895,2 2,2 1.105,0 2,-0.895 2,-2" /></g><g
           transform="translate(40,100)"
           id="g164"><path
             id="path166"
             style="fill:#404040;fill-opacity:1;fill-rule:nonzero;stroke:none"
             d="m 0,0 c 0,-1.105 -0.895,-2 -2,-2 -1.105,0 -2,0.895 -2,2 0,1.105 0.895,2 2,2 1.105,0 2,-0.895 2,-2" /></g><g
           transform="translate(46,100)"
           id="g168"><path
             id="path170"
             style="fill:#404040;fill-opacity:1;fill-rule:nonzero;stroke:none"
             d="m 0,0 c 0,-1.105 -0.895,-2 -2,-2 -1.105,0 -2,0.895 -2,2 0,1.105 0.895,2 2,2 1.105,0 2,-0.895 2,-2" /></g><g
           transform="translate(52,100)"
           id="g172"><path
             id="path174"
             style="fill:#404040;fill-opacity:1;fill-rule:nonzero;stroke:none"
             d="m 0,0 c 0,-1.105 -0.895,-2 -2,-2 -1.105,0 -2,0.895 -2,2 0,1.105 0.895,2 2,2 1.105,0 2,-0.895 2,-2" /></g><g
           transform="translate(58,100)"
           id="g176"><path
             id="path178"
             style="fill:#404040;fill-opacity:1;fill-rule:nonzero;stroke:none"
             d="m 0,0 c 0,-1.105 -0.895,-2 -2,-2 -1.105,0 -2,0.895 -2,2 0,1.105 0.895,2 2,2 1.105,0 2,-0.895 2,-2" /></g><g
           transform="translate(34,94)"
           id="g180"><path
             id="path182"
             style="fill:#404040;fill-opacity:1;fill-rule:nonzero;stroke:none"
             d="m 0,0 c 0,-1.105 -0.895,-2 -2,-2 -1.105,0 -2,0.895 -2,2 0,1.105 0.895,2 2,2 1.105,0 2,-0.895 2,-2" /></g><g
           transform="translate(40,94)"
           id="g184"><path
             id="path186"
             style="fill:#404040;fill-opacity:1;fill-rule:nonzero;stroke:none"
             d="m 0,0 c 0,-1.105 -0.895,-2 -2,-2 -1.105,0 -2,0.895 -2,2 0,1.105 0.895,2 2,2 1.105,0 2,-0.895 2,-2" /></g><g
           transform="translate(46,94)"
           id="g188"><path
             id="path190"
             style="fill:#404040;fill-opacity:1;fill-rule:nonzero;stroke:none"
             d="m 0,0 c 0,-1.105 -0.895,-2 -2,-2 -1.105,0 -2,0.895 -2,2 0,1.105 0.895,2 2,2 1.105,0 2,-0.895 2,-2" /></g><g
           transform="translate(52,94)"
           id="g192"><path
             id="path194"
             style="fill:#404040;fill-opacity:1;fill-rule:nonzero;stroke:none"
             d="m 0,0 c 0,-1.105 -0.895,-2 -2,-2 -1.105,0 -2,0.895 -2,2 0,1.105 0.895,2 2,2 1.105,0 2,-0.895 2,-2" /></g><g
           transform="translate(58,94)"
           id="g196"><path
             id="path198"
             style="fill:#404040;fill-opacity:1;fill-rule:nonzero;stroke:none"
             d="m 0,0 c 0,-1.105 -0.895,-2 -2,-2 -1.105,0 -2,0.895 -2,2 0,1.105 0.895,2 2,2 1.105,0 2,-0.895 2,-2" /></g><g
           transform="translate(34,88)"
           id="g200"><path
             id="path202"
             style="fill:#404040;fill-opacity:1;fill-rule:nonzero;stroke:none"
             d="m 0,0 c 0,-1.105 -0.895,-2 -2,-2 -1.105,0 -2,0.895 -2,2 0,1.105 0.895,2 2,2 1.105,0 2,-0.895 2,-2" /></g><g
           transform="translate(40,88)"
           id="g204"><path
             id="path206"
             style="fill:#404040;fill-opacity:1;fill-rule:nonzero;stroke:none"
             d="m 0,0 c 0,-1.105 -0.895,-2 -2,-2 -1.105,0 -2,0.895 -2,2 0,1.105 0.895,2 2,2 1.105,0 2,-0.895 2,-2" /></g><g
           transform="translate(46,88)"
           id="g208"><path
             id="path210"
             style="fill:#404040;fill-opacity:1;fill-rule:nonzero;stroke:none"
             d="m 0,0 c 0,-1.105 -0.895,-2 -2,-2 -1.105,0 -2,0.895 -2,2 0,1.105 0.895,2 2,2 1.105,0 2,-0.895 2,-2" /></g><g
           transform="translate(52,88)"
           id="g212"><path
             id="path214"
             style="fill:#404040;fill-opacity:1;fill-rule:nonzero;stroke:none"
             d="m 0,0 c 0,-1.105 -0.895,-2 -2,-2 -1.105,0 -2,0.895 -2,2 0,1.105 0.895,2 2,2 1.105,0 2,-0.895 2,-2" /></g><g
           transform="translate(58,88)"
           id="g216"><path
             id="path218"
             style="fill:#404040;fill-opacity:1;fill-rule:nonzero;stroke:none"
             d="m 0,0 c 0,-1.105 -0.895,-2 -2,-2 -1.105,0 -2,0.895 -2,2 0,1.105 0.895,2 2,2 1.105,0 2,-0.895 2,-2" /></g><g
           transform="translate(34,82)"
           id="g220"><path
             id="path222"
             style="fill:#404040;fill-opacity:1;fill-rule:nonzero;stroke:none"
             d="m 0,0 c 0,-1.105 -0.895,-2 -2,-2 -1.105,0 -2,0.895 -2,2 0,1.105 0.895,2 2,2 1.105,0 2,-0.895 2,-2" /></g><g
           transform="translate(40,82)"
           id="g224"><path
             id="path226"
             style="fill:#404040;fill-opacity:1;fill-rule:nonzero;stroke:none"
             d="m 0,0 c 0,-1.105 -0.895,-2 -2,-2 -1.105,0 -2,0.895 -2,2 0,1.105 0.895,2 2,2 1.105,0 2,-0.895 2,-2" /></g><g
           transform="translate(46,82)"
           id="g228"><path
             id="path230"
             style="fill:#404040;fill-opacity:1;fill-rule:nonzero;stroke:none"
             d="m 0,0 c 0,-1.105 -0.895,-2 -2,-2 -1.105,0 -2,0.895 -2,2 0,1.105 0.895,2 2,2 1.105,0 2,-0.895 2,-2" /></g><g
           transform="translate(52,82)"
           id="g232"><path
             id="path234"
             style="fill:#404040;fill-opacity:1;fill-rule:nonzero;stroke:none"
             d="m 0,0 c 0,-1.105 -0.895,-2 -2,-2 -1.105,0 -2,0.895 -2,2 0,1.105 0.895,2 2,2 1.105,0 2,-0.895 2,-2" /></g><g
           transform="translate(58,82)"
           id="g236"><path
             id="path238"
             style="fill:#404040;fill-opacity:1;fill-rule:nonzero;stroke:none"
             d="m 0,0 c 0,-1.105 -0.895,-2 -2,-2 -1.105,0 -2,0.895 -2,2 0,1.105 0.895,2 2,2 1.105,0 2,-0.895 2,-2" /></g><g
           transform="translate(200,102)"
           id="g240"><path
             id="path242"
             style="fill:#404040;fill-opacity:1;fill-rule:nonzero;stroke:none"
             d="m 0,0 c 0,-1.105 -0.895,-2 -2,-2 -1.105,0 -2,0.895 -2,2 0,1.105 0.895,2 2,2 1.105,0 2,-0.895 2,-2" /></g><g
           transform="translate(216,102)"
           id="g244"><path
             id="path246"
             style="fill:#404040;fill-opacity:1;fill-rule:nonzero;stroke:none"
             d="m 0,0 c 0,-1.105 -0.895,-2 -2,-2 -1.105,0 -2,0.895 -2,2 0,1.105 0.895,2 2,2 1.105,0 2,-0.895 2,-2" /></g><g
           transform="translate(232,102)"
           id="g248"><path
             id="path250"
             style="fill:#404040;fill-opacity:1;fill-rule:nonzero;stroke:none"
             d="m 0,0 c 0,-1.105 -0.895,-2 -2,-2 -1.105,0 -2,0.895 -2,2 0,1.105 0.895,2 2,2 1.105,0 2,-0.895 2,-2" /></g><g
           transform="translate(200,90)"
           id="g252"><path
             id="path254"
             style="fill:#404040;fill-opacity:1;fill-rule:nonzero;stroke:none"
             d="m 0,0 c 0,-1.105 -0.895,-2 -2,-2 -1.105,0 -2,0.895 -2,2 0,1.105 0.895,2 2,2 1.105,0 2,-0.895 2,-2" /></g><g
           transform="translate(216,90)"
           id="g256"><path
             id="path258"
             style="fill:#404040;fill-opacity:1;fill-rule:nonzero;stroke:none"
             d="m 0,0 c 0,-1.105 -0.895,-2 -2,-2 -1.105,0 -2,0.895 -2,2 0,1.105 0.895,2 2,2 1.105,0 2,-0.895 2,-2" /></g><g
           transform="translate(232,90)"
           id="g260"><path
             id="path262"
             style="fill:#404040;fill-opacity:1;fill-rule:nonzero;stroke:none"
             d="m 0,0 c 0,-1.105 -0.895,-2 -2,-2 -1.105,0 -2,0.895 -2,2 0,1.105 0.895,2 2,2 1.105,0 2,-0.895 2,-2" /></g><g
           transform="translate(200,78)"
           id="g264"><path
             id="path266"
             style="fill:#404040;fill-opacity:1;fill-rule:nonzero;stroke:none"
             d="m 0,0 c 0,-1.105 -0.895,-2 -2,-2 -1.105,0 -2,0.895 -2,2 0,1.105 0.895,2 2,2 1.105,0 2,-0.895 2,-2" /></g><g
           transform="translate(216,78)"
           id="g268"><path
             id="path270"
             style="fill:#404040;fill-opacity:1;fill-rule:nonzero;stroke:none"
             d="m 0,0 c 0,-1.105 -0.895,-2 -2,-2 -1.105,0 -2,0.895 -2,2 0,1.105 0.895,2 2,2 1.105,0 2,-0.895 2,-2" /></g><g
           transform="translate(232,78)"
           id="g272"><path
             id="path274"
             style="fill:#404040;fill-opacity:1;fill-rule:nonzero;stroke:none"
             d="m 0,0 c 0,-1.105 -0.895,-2 -2,-2 -1.105,0 -2,0.895 -2,2 0,1.105 0.895,2 2,2 1.105,0 2,-0.895 2,-2" /></g></g></g></g></svg>