<?xml version="1.0" encoding="UTF-8" standalone="no"?>
<svg
   xmlns:dc="http://purl.org/dc/elements/1.1/"
   xmlns:cc="http://creativecommons.org/ns#"
   xmlns:rdf="http://www.w3.org/1999/02/22-rdf-syntax-ns#"
   xmlns:svg="http://www.w3.org/2000/svg"
   xmlns="http://www.w3.org/2000/svg"
   viewBox="0 0 320 320"
   height="320"
   width="320"
   xml:space="preserve"
   version="1.1"
   id="svg2"><metadata
     id="metadata8"><rdf:RDF><cc:Work
         rdf:about=""><dc:format>image/svg+xml</dc:format><dc:type
           rdf:resource="http://purl.org/dc/dcmitype/StillImage" /></cc:Work></rdf:RDF></metadata><defs
     id="defs6"><clipPath
       id="clipPath16"
       clipPathUnits="userSpaceOnUse"><path
         id="path18"
         d="M 0,256 256,256 256,0 0,0 0,256 Z" /></clipPath><clipPath
       id="clipPath24"
       clipPathUnits="userSpaceOnUse"><path
         id="path26"
         d="M 4,216 252,216 252,36 4,36 4,216 Z" /></clipPath><clipPath
       id="clipPath122"
       clipPathUnits="userSpaceOnUse"><path
         id="path124"
         d="m 36,164 20,0 0,-16 -20,0 0,16 z" /></clipPath></defs><g
     transform="matrix(1.25,0,0,-1.25,0,320)"
     id="g10"><g
       id="g12"><g
         clip-path="url(#clipPath16)"
         id="g14"><g
           id="g20"><g
             id="g22" /><g
             id="g28"><g
               style="opacity:0.5"
               id="g30"
               clip-path="url(#clipPath24)"><g
                 id="g32"
                 transform="translate(251.9904,72.0844)"><path
                   id="path34"
                   style="fill:#ffffff;fill-opacity:1;fill-rule:nonzero;stroke:none"
                   d="m 0,0 -4.027,82.199 c 0.021,0.558 0.037,1.118 0.037,1.717 0,18.11 -9.317,34.703 -24.556,44.165 l -1.309,5.773 c -0.564,2.488 -2.282,4.558 -4.624,5.572 -6.881,2.979 -13.992,4.49 -21.134,4.49 -7.049,0 -14.34,-1.48 -21.67,-4.399 -2.448,-0.975 -4.259,-3.093 -4.842,-5.663 l -1.311,-5.778 c -0.085,-0.053 -0.17,-0.107 -0.255,-0.16 l -80.598,0 c -0.673,0.425 -1.356,0.834 -2.046,1.227 l -1.068,4.711 c -0.565,2.488 -2.282,4.558 -4.624,5.572 -6.882,2.979 -13.992,4.489 -21.134,4.49 -7.049,0 -14.34,-1.48 -21.67,-4.399 -2.449,-0.975 -4.26,-3.093 -4.843,-5.663 l -1.579,-6.963 c -14.109,-9.634 -22.737,-25.787 -22.737,-42.975 0,-0.592 0.016,-1.15 0.037,-1.708 L -247.981,0 c -0.006,-0.13 -0.009,-0.261 -0.009,-0.391 0,-19.682 16.37,-35.693 36.491,-35.693 16.518,0 30.97,10.871 35.226,26.465 1.004,2.812 9.824,24.049 15.785,38.303 0.524,0.4 1.039,0.811 1.545,1.232 l 69.905,0 c 0.506,-0.421 1.021,-0.832 1.545,-1.232 5.961,-14.254 14.781,-35.491 15.785,-38.303 4.257,-15.594 18.708,-26.465 35.226,-26.465 20.122,0 36.492,16.011 36.492,35.693 C 0.01,-0.261 0.006,-0.13 0,0" /></g></g></g></g><g
           transform="translate(239.9295,154.7719)"
           id="g36"><path
             id="path38"
             style="fill:#a6a6a6;fill-opacity:1;fill-rule:nonzero;stroke:none"
             d="m 0,0 -11.334,0 c -6.461,12.587 -19.753,21.228 -35.112,21.228 -13.572,0 -25.536,-6.743 -32.595,-16.997 l -65.777,0 c -7.059,10.254 -19.024,16.997 -32.596,16.997 -15.359,0 -28.651,-8.641 -35.112,-21.228 l -11.334,0 -4.07,-83.079 c 0,-15.294 12.756,-27.693 28.491,-27.693 13.263,0 24.383,8.816 27.555,20.743 0.518,1.949 16.943,41.184 16.943,41.184 1.785,1.222 3.462,2.584 5.014,4.073 l 75.994,0 c 1.552,-1.489 3.229,-2.851 5.014,-4.073 0,0 16.425,-39.235 16.943,-41.184 3.173,-11.927 14.292,-20.743 27.555,-20.743 15.735,0 28.491,12.399 28.491,27.693 L 0,0 Z" /></g><g
           transform="translate(84,192)"
           id="g40"><path
             id="path42"
             style="fill:#b3b3b3;fill-opacity:1;fill-rule:nonzero;stroke:none"
             d="M 0,0 88,0 88,-66 0,-66 0,0" /></g><g
           transform="translate(80.4516,188)"
           id="g44"><path
             id="path46"
             style="fill:#a6a6a6;fill-opacity:1;fill-rule:nonzero;stroke:none"
             d="m 0,0 -44,0 3.667,16.169 c 11.837,4.713 23.988,5.488 36.666,0 L 0,0" /></g><g
           transform="translate(218,188)"
           id="g48"><path
             id="path50"
             style="fill:#a6a6a6;fill-opacity:1;fill-rule:nonzero;stroke:none"
             d="m 0,0 -44,0 3.667,16.169 c 11.837,4.713 23.988,5.488 36.666,0 L 0,0" /></g><g
           transform="translate(104,156)"
           id="g52"><path
             id="path54"
             style="fill:#bfbfbf;fill-opacity:1;fill-rule:nonzero;stroke:none"
             d="m 0,0 c 0,-24.301 -19.699,-44 -44,-44 -24.301,0 -44,19.699 -44,44 0,24.301 19.699,44 44,44 C -19.699,44 0,24.301 0,0" /></g><g
           transform="translate(152,156)"
           id="g56"><path
             id="path58"
             style="fill:#bfbfbf;fill-opacity:1;fill-rule:nonzero;stroke:none"
             d="M 0,0 C 0,-24.301 19.699,-44 44,-44 68.301,-44 88,-24.301 88,0 88,24.301 68.301,44 44,44 19.699,44 0,24.301 0,0" /></g><g
           transform="translate(110,148)"
           id="g60"><path
             id="path62"
             style="fill:#404040;fill-opacity:1;fill-rule:nonzero;stroke:none"
             d="m 0,0 12,0 c 1.105,0 2,-0.895 2,-2 l 0,-4 c 0,-1.105 -0.895,-2 -2,-2 L 0,-8 c -1.105,0 -2,0.895 -2,2 l 0,4 c 0,1.105 0.895,2 2,2" /></g><g
           transform="translate(207.634,190)"
           id="g64"><path
             id="path66"
             style="fill:#b3b3b3;fill-opacity:1;fill-rule:nonzero;stroke:none"
             d="m 0,0 -23.268,0 c -0.598,0 -1.082,-0.485 -1.082,-1.082 l 0,-20.202 -20.202,0 c -0.597,0 -1.082,-0.484 -1.082,-1.082 l 0,-23.268 c 0,-0.598 0.485,-1.082 1.082,-1.082 l 20.202,0 0,-20.202 c 0,-0.597 0.484,-1.082 1.082,-1.082 L 0,-68 c 0.598,0 1.082,0.485 1.082,1.082 l 0,20.202 20.202,0 c 0.598,0 1.082,0.484 1.082,1.082 l 0,23.268 c 0,0.598 -0.484,1.082 -1.082,1.082 l -20.202,0 0,20.202 C 1.082,-0.485 0.598,0 0,0 M -0.097,-1 C 0.1,-1 0.26,-1.16 0.26,-1.358 l 0,-20.032 0,-0.716 0.716,0 20.032,0 c 0.198,0 0.358,-0.16 0.358,-0.357 l 0,-23.074 c 0,-0.197 -0.16,-0.357 -0.358,-0.357 l -20.032,0 -0.716,0 0,-0.716 0,-20.032 C 0.26,-66.84 0.1,-67 -0.097,-67 l -23.074,0 c -0.197,0 -0.357,0.16 -0.357,0.358 l 0,20.032 0,0.716 -0.716,0 -20.032,0 c -0.197,0 -0.358,0.16 -0.358,0.357 l 0,23.074 c 0,0.197 0.161,0.357 0.358,0.357 l 20.032,0 0.716,0 0,0.716 0,20.032 c 0,0.198 0.16,0.358 0.357,0.358 l 23.074,0" /></g><g
           transform="translate(71.634,190)"
           id="g68"><path
             id="path70"
             style="fill:#b3b3b3;fill-opacity:1;fill-rule:nonzero;stroke:none"
             d="m 0,0 -23.268,0 c -0.598,0 -1.082,-0.485 -1.082,-1.082 l 0,-20.202 -20.202,0 c -0.597,0 -1.082,-0.484 -1.082,-1.082 l 0,-23.268 c 0,-0.598 0.485,-1.082 1.082,-1.082 l 20.202,0 0,-20.202 c 0,-0.597 0.484,-1.082 1.082,-1.082 L 0,-68 c 0.598,0 1.082,0.485 1.082,1.082 l 0,20.202 20.202,0 c 0.598,0 1.082,0.484 1.082,1.082 l 0,23.268 c 0,0.598 -0.484,1.082 -1.082,1.082 l -20.202,0 0,20.202 C 1.082,-0.485 0.598,0 0,0 M -0.097,-1 C 0.1,-1 0.26,-1.16 0.26,-1.358 l 0,-20.032 0,-0.716 0.716,0 20.032,0 c 0.198,0 0.358,-0.16 0.358,-0.357 l 0,-23.074 c 0,-0.197 -0.16,-0.357 -0.358,-0.357 l -20.032,0 -0.716,0 0,-0.716 0,-20.032 C 0.26,-66.84 0.1,-67 -0.097,-67 l -23.074,0 c -0.197,0 -0.357,0.16 -0.357,0.358 l 0,20.032 0,0.716 -0.716,0 -20.032,0 c -0.197,0 -0.358,0.16 -0.358,0.357 l 0,23.074 c 0,0.197 0.161,0.357 0.358,0.357 l 20.032,0 0.716,0 0,0.716 0,20.032 c 0,0.198 0.16,0.358 0.357,0.358 l 23.074,0" /></g><g
           transform="translate(206,178)"
           id="g72"><path
             id="path74"
             style="fill:#3b3b3b;fill-opacity:1;fill-rule:nonzero;stroke:none"
             d="m 0,0 c 0,-5.523 -4.477,-10 -10,-10 -5.523,0 -10,4.477 -10,10 0,5.523 4.477,10 10,10 C -4.477,10 0,5.523 0,0" /></g><g
           transform="translate(206,134)"
           id="g76"><path
             id="path78"
             style="fill:#3b3b3b;fill-opacity:1;fill-rule:nonzero;stroke:none"
             d="m 0,0 c 0,-5.523 -4.477,-10 -10,-10 -5.523,0 -10,4.477 -10,10 0,5.523 4.477,10 10,10 C -4.477,10 0,5.523 0,0" /></g><g
           transform="translate(228,156)"
           id="g80"><path
             id="path82"
             style="fill:#3b3b3b;fill-opacity:1;fill-rule:nonzero;stroke:none"
             d="m 0,0 c 0,-5.523 -4.477,-10 -10,-10 -5.523,0 -10,4.477 -10,10 0,5.523 4.477,10 10,10 C -4.477,10 0,5.523 0,0" /></g><g
           transform="translate(184,156)"
           id="g84"><path
             id="path86"
             style="fill:#3b3b3b;fill-opacity:1;fill-rule:nonzero;stroke:none"
             d="m 0,0 c 0,-5.523 -4.477,-10 -10,-10 -5.523,0 -10,4.477 -10,10 0,5.523 4.477,10 10,10 C -4.477,10 0,5.523 0,0" /></g><path
           id="path88"
           style="fill:#ed4792;fill-opacity:1;fill-rule:nonzero;stroke:none"
           d="m 169.443,151.677 8.854,0 0,8.854 -8.854,0 0,-8.854 z m 9.791,-0.937 -10.729,0 0,10.729 10.729,0 0,-10.729 z" /><g
           transform="translate(218.1079,161.573)"
           id="g90"><path
             id="path92"
             style="fill:#b80000;fill-opacity:1;fill-rule:nonzero;stroke:none"
             d="m 0,0 c -3.132,0 -5.681,-2.549 -5.681,-5.681 0,-3.132 2.549,-5.681 5.681,-5.681 3.132,0 5.681,2.549 5.681,5.681 C 5.681,-2.549 3.132,0 0,0 m 0,-12.299 c -3.649,0 -6.618,2.969 -6.618,6.618 0,3.649 2.969,6.618 6.618,6.618 3.649,0 6.618,-2.969 6.618,-6.618 0,-3.649 -2.969,-6.618 -6.618,-6.618" /></g><g
           transform="translate(196,185.3958)"
           id="g94"><path
             id="path96"
             style="fill:#1abf9f;fill-opacity:1;fill-rule:nonzero;stroke:none"
             d="m 0,0 -6.432,-11.042 13.125,0 L 0,0 Z m 0.016,-1.835 5.012,-8.269 -9.829,0 4.817,8.269 z" /></g><g
           transform="translate(201.5657,138.8769)"
           id="g98"><path
             id="path100"
             style="fill:#9bc2dd;fill-opacity:1;fill-rule:nonzero;stroke:none"
             d="M 0,0 -0.663,0.663 -5.488,-4.162 -10.313,0.663 -10.975,0 l 4.824,-4.825 -4.824,-4.825 0.662,-0.663 4.825,4.825 4.825,-4.825 L 0,-9.65 -4.825,-4.825 0,0 Z" /></g><g
           transform="translate(88,152)"
           id="g102"><path
             id="path104"
             style="fill:#b3b3b3;fill-opacity:1;fill-rule:nonzero;stroke:none"
             d="M 0,0 0,8 4,4 0,0 Z" /></g><g
           transform="translate(32,160)"
           id="g106"><path
             id="path108"
             style="fill:#b3b3b3;fill-opacity:1;fill-rule:nonzero;stroke:none"
             d="m 0,0 0,-8 -4,4 4,4 z" /></g><g
           transform="translate(56,128)"
           id="g110"><path
             id="path112"
             style="fill:#b3b3b3;fill-opacity:1;fill-rule:nonzero;stroke:none"
             d="M 0,0 8,0 4,-4 0,0 Z" /></g><g
           transform="translate(64,184)"
           id="g114"><path
             id="path116"
             style="fill:#b3b3b3;fill-opacity:1;fill-rule:nonzero;stroke:none"
             d="M 0,0 -8,0 -4,4 0,0 Z" /></g><g
           id="g118"><g
             id="g120" /><g
             id="g126"><g
               id="g128"
               clip-path="url(#clipPath122)"><g
                 id="g130"
                 transform="translate(36,162.7573)"><path
                   id="path132"
                   style="fill:#404040;fill-opacity:1;fill-rule:nonzero;stroke:none"
                   d="m 0,0 0,-13.515 c 0,-0.686 0.615,-1.242 1.373,-1.242 l 8.959,0 c 1.133,0 2.241,0.309 3.162,0.906 2.308,1.493 6.506,4.559 6.506,7.094 0,2.421 -3.378,5.327 -5.454,6.884 -0.974,0.731 -2.204,1.116 -3.469,1.116 l -9.704,0 C 0.615,1.243 0,0.686 0,0" /></g></g></g></g><g
           transform="translate(84,149.2427)"
           id="g134"><path
             id="path136"
             style="fill:#404040;fill-opacity:1;fill-rule:nonzero;stroke:none"
             d="m 0,0 0,13.515 c 0,0.686 -0.615,1.242 -1.373,1.242 l -8.959,0 c -1.133,0 -2.241,-0.309 -3.162,-0.906 C -15.802,12.358 -20,9.292 -20,6.757 c 0,-2.421 3.378,-5.327 5.454,-6.884 0.974,-0.731 2.204,-1.116 3.469,-1.116 l 9.704,0 C -0.615,-1.243 0,-0.686 0,0" /></g><g
           transform="translate(66.7573,180)"
           id="g138"><path
             id="path140"
             style="fill:#404040;fill-opacity:1;fill-rule:nonzero;stroke:none"
             d="m 0,0 -13.515,0 c -0.686,0 -1.242,-0.615 -1.242,-1.373 l 0,-8.959 c 0,-1.133 0.309,-2.241 0.906,-3.162 1.493,-2.308 4.559,-6.506 7.094,-6.506 2.421,0 5.327,3.378 6.884,5.454 0.731,0.974 1.116,2.204 1.116,3.469 l 0,9.704 C 1.243,-0.615 0.686,0 0,0" /></g><g
           transform="translate(53.2427,132)"
           id="g142"><path
             id="path144"
             style="fill:#404040;fill-opacity:1;fill-rule:nonzero;stroke:none"
             d="m 0,0 13.515,0 c 0.686,0 1.242,0.615 1.242,1.373 l 0,8.959 c 0,1.133 -0.309,2.241 -0.906,3.162 C 12.358,15.802 9.292,20 6.757,20 4.336,20 1.43,16.622 -0.127,14.546 -0.858,13.572 -1.243,12.342 -1.243,11.077 l 0,-9.704 C -1.243,0.615 -0.686,0 0,0" /></g><g
           transform="translate(106.0025,180.6027)"
           id="g146"><path
             id="path148"
             style="fill:#404040;fill-opacity:1;fill-rule:nonzero;stroke:none"
             d="m 0,0 0.473,0 c 0.224,0 0.336,0.075 0.336,0.225 l 0,2.362 c 0,0.15 -0.106,0.225 -0.316,0.225 l -0.493,0 0,0.507 3.136,0 0,-0.507 -0.481,0 C 2.437,2.812 2.327,2.737 2.327,2.587 l 0,-2.587 0.86,0 c 0.45,0 0.76,0.091 0.931,0.273 0.15,0.159 0.225,0.424 0.225,0.796 l 0.762,0 0,-1.575 L 0,-0.506 0,0 Z" /></g><g
           transform="translate(111.5331,180.6027)"
           id="g150"><path
             id="path152"
             style="fill:#404040;fill-opacity:1;fill-rule:nonzero;stroke:none"
             d="m 0,0 0.473,0 c 0.224,0 0.336,0.075 0.336,0.225 l 0,2.407 c 0,0.12 -0.106,0.18 -0.316,0.18 l -0.493,0 0,0.507 3.136,0 0,-0.507 -0.481,0 C 2.526,2.812 2.439,2.795 2.394,2.762 2.35,2.73 2.327,2.672 2.327,2.587 l 0,-2.362 C 2.327,0.075 2.433,0 2.643,0 l 0.493,0 0,-0.506 L 0,-0.506 0,0 Z" /></g><g
           transform="translate(117.2806,180.6027)"
           id="g154"><path
             id="path156"
             style="fill:#404040;fill-opacity:1;fill-rule:nonzero;stroke:none"
             d="m 0,0 0.533,0 c 0.694,0 1.041,0.206 1.041,0.619 0,0.405 -0.348,0.607 -1.045,0.607 L 0,1.226 0,0 Z m 0,2.812 0,-1.08 0.438,0 c 0.631,0 0.947,0.182 0.947,0.546 0,0.356 -0.316,0.534 -0.947,0.534 L 0,2.812 Z m -2.28,-3.318 0,0.506 0.434,0 c 0.218,0 0.327,0.075 0.327,0.225 l 0,2.362 c 0,0.15 -0.106,0.225 -0.319,0.225 l -0.466,0 0,0.507 3.46,0 c 0.576,0 1.011,-0.08 1.306,-0.24 C 2.756,2.922 2.903,2.701 2.903,2.416 2.903,2.172 2.792,1.972 2.568,1.817 2.347,1.663 2.063,1.562 1.716,1.513 2.287,1.404 2.671,1.273 2.868,1.119 3.065,0.966 3.164,0.766 3.164,0.52 3.164,0.17 3.006,-0.089 2.69,-0.256 2.377,-0.423 1.784,-0.506 0.911,-0.506 l -3.191,0 z" /></g><g
           transform="translate(126.9652,180.6027)"
           id="g158"><path
             id="path160"
             style="fill:#404040;fill-opacity:1;fill-rule:nonzero;stroke:none"
             d="m 0,0 0.473,0 c 0.224,0 0.336,0.075 0.336,0.225 l 0,2.362 c 0,0.15 -0.106,0.225 -0.316,0.225 l -0.493,0 0,0.507 5.358,0 0,-1.485 -0.763,0 C 4.595,2.233 4.474,2.501 4.232,2.638 4.043,2.754 3.698,2.812 3.196,2.812 l -0.869,0 0,-1.119 0.229,0 c 0.261,0 0.44,0.04 0.537,0.121 0.087,0.071 0.129,0.195 0.129,0.371 l 0,0.138 0.663,0 0,-1.766 -0.663,0 0,0.146 c 0,0.15 -0.039,0.268 -0.121,0.354 -0.079,0.087 -0.179,0.13 -0.297,0.13 l -0.477,0 0,-1.187 0.958,0 c 0.513,0 0.86,0.077 1.039,0.231 0.182,0.153 0.271,0.433 0.271,0.838 l 0.763,0 0,-1.575 L 0,-0.506 0,0 Z" /></g><g
           transform="translate(132.9211,182.4364)"
           id="g162"><path
             id="path164"
             style="fill:#404040;fill-opacity:1;fill-rule:nonzero;stroke:none"
             d="m 0,0 0,1.485 5.306,0 0,-1.485 -0.762,0 c 0,0.356 -0.09,0.608 -0.272,0.757 -0.179,0.148 -0.465,0.222 -0.86,0.222 l 0,-2.588 c 0,-0.15 0.105,-0.225 0.316,-0.225 l 0.493,0 0,-0.506 -3.136,0 0,0.506 0.477,0 c 0.221,0 0.331,0.075 0.331,0.225 l 0,2.588 C 1.457,0.979 1.158,0.894 0.998,0.726 0.84,0.559 0.761,0.317 0.761,0 L 0,0 Z" /></g><g
           transform="translate(146.0218,182)"
           id="g166"><path
             id="path168"
             style="fill:#404040;fill-opacity:1;fill-rule:nonzero;stroke:none"
             d="M 0,0 C 0,-0.972 0.381,-1.458 1.141,-1.458 1.898,-1.458 2.277,-0.972 2.277,0 2.277,0.972 1.9,1.458 1.148,1.458 0.383,1.458 0,0.972 0,0 m -1.703,0 c 0,0.593 0.25,1.075 0.754,1.443 C -0.446,1.815 0.251,2 1.141,2 2.034,2 2.731,1.816 3.23,1.449 3.73,1.082 3.981,0.599 3.981,0 3.981,-0.616 3.724,-1.103 3.211,-1.463 2.7,-1.821 2.017,-2 1.16,-2 0.279,-2 -0.419,-1.819 -0.934,-1.458 -1.447,-1.096 -1.703,-0.61 -1.703,0" /></g><g
           transform="translate(142.5303,182.4617)"
           id="g170"><path
             id="path172"
             style="fill:#404040;fill-opacity:1;fill-rule:nonzero;stroke:none"
             d="m 0,0 c -0.124,-0.084 -0.348,-0.127 -0.675,-0.127 l -0.836,0 0,1.08 0.584,0 c 0.415,0 0.705,-0.038 0.868,-0.115 C 0.107,0.761 0.189,0.622 0.189,0.422 0.189,0.225 0.126,0.084 0,0 m 1.788,-1.859 c -0.144,0 -0.242,0.02 -0.292,0.059 -0.05,0.04 -0.075,0.11 -0.075,0.211 l 0.003,0.495 c 0,0.233 -0.075,0.399 -0.225,0.501 -0.15,0.103 -0.4,0.185 -0.749,0.247 0.839,0.081 1.258,0.369 1.258,0.866 0,0.315 -0.162,0.551 -0.485,0.706 C 0.902,1.382 0.472,1.46 -0.067,1.46 l -3.771,0 0,-0.507 0.461,0 c 0.232,0 0.347,-0.075 0.347,-0.225 l 0,-2.317 c 0,-0.18 -0.119,-0.27 -0.359,-0.27 l -0.449,0 0,-0.506 3.136,0 0,0.506 -0.442,0 c -0.145,0 -0.242,0.02 -0.292,0.059 -0.05,0.04 -0.075,0.11 -0.075,0.211 l 0,0.956 0.592,0 c 0.347,0 0.571,-0.022 0.67,-0.067 0.103,-0.045 0.154,-0.158 0.154,-0.338 l -0.002,-0.551 c 0,-0.18 -0.12,-0.27 -0.359,-0.27 l 0,-0.506 2.553,0 0,0.506 -0.309,0 z" /></g><g
           transform="translate(124.6967,182.4617)"
           id="g174"><path
             id="path176"
             style="fill:#404040;fill-opacity:1;fill-rule:nonzero;stroke:none"
             d="m 0,0 c -0.124,-0.084 -0.348,-0.127 -0.674,-0.127 l -0.837,0 0,1.08 0.584,0 c 0.415,0 0.705,-0.038 0.868,-0.115 C 0.107,0.761 0.189,0.622 0.189,0.422 0.189,0.225 0.126,0.084 0,0 m 1.788,-1.859 c -0.144,0 -0.242,0.02 -0.292,0.059 -0.05,0.04 -0.075,0.11 -0.075,0.211 l 0.003,0.495 c 0,0.233 -0.075,0.399 -0.225,0.501 -0.15,0.103 -0.4,0.185 -0.749,0.247 0.839,0.081 1.258,0.369 1.258,0.866 0,0.315 -0.162,0.551 -0.485,0.706 C 0.902,1.382 0.472,1.46 -0.067,1.46 l -3.771,0 0,-0.507 0.461,0 c 0.232,0 0.347,-0.075 0.347,-0.225 l 0,-2.317 c 0,-0.18 -0.119,-0.27 -0.359,-0.27 l -0.449,0 0,-0.506 3.136,0 0,0.506 -0.442,0 c -0.145,0 -0.242,0.02 -0.292,0.059 -0.05,0.04 -0.075,0.11 -0.075,0.211 l 0,0.956 0.592,0 c 0.347,0 0.571,-0.022 0.67,-0.067 0.103,-0.045 0.154,-0.158 0.154,-0.338 l -0.002,-0.551 c 0,-0.18 -0.12,-0.27 -0.359,-0.27 l 0,-0.506 2.492,0 0,0.506 -0.248,0 z" /></g><g
           transform="translate(121.4116,157.5795)"
           id="g178"><path
             id="path180"
             style="fill:#3b3b3b;fill-opacity:1;fill-rule:nonzero;stroke:none"
             d="m 0,0 c 0,-0.103 -0.008,-0.187 -0.025,-0.254 -0.017,-0.067 -0.039,-0.12 -0.067,-0.16 -0.028,-0.04 -0.06,-0.07 -0.097,-0.089 -0.037,-0.02 -0.074,-0.035 -0.112,-0.045 0.038,-0.012 0.075,-0.029 0.112,-0.051 0.037,-0.021 0.069,-0.052 0.097,-0.092 0.028,-0.04 0.051,-0.092 0.069,-0.156 0.017,-0.063 0.026,-0.142 0.026,-0.237 l 0,-0.496 -0.351,0 0,0.496 c 0,0.086 -0.006,0.158 -0.017,0.214 -0.011,0.057 -0.028,0.102 -0.052,0.136 -0.023,0.033 -0.052,0.058 -0.085,0.072 -0.034,0.014 -0.074,0.022 -0.121,0.022 l -0.291,0 0,0.181 0.298,0 c 0.042,0 0.08,0.007 0.112,0.022 0.033,0.014 0.06,0.038 0.082,0.071 0.023,0.032 0.039,0.076 0.05,0.13 0.012,0.055 0.017,0.123 0.017,0.205 0,0.082 -0.005,0.151 -0.017,0.205 -0.011,0.054 -0.027,0.098 -0.05,0.131 -0.022,0.033 -0.049,0.056 -0.082,0.069 -0.032,0.014 -0.07,0.02 -0.112,0.02 l -0.442,0 0,-1.974 -0.351,0 0,2.159 0.863,0 c 0.197,0 0.337,-0.045 0.421,-0.136 C -0.042,0.353 0,0.205 0,0" /></g><g
           transform="translate(122.2451,156.7144)"
           id="g182"><path
             id="path184"
             style="fill:#3b3b3b;fill-opacity:1;fill-rule:nonzero;stroke:none"
             d="m 0,0 0,0.179 0.191,0 c 0.06,0 0.109,0.004 0.145,0.012 0.037,0.008 0.066,0.021 0.086,0.038 0.02,0.018 0.034,0.041 0.042,0.07 0.007,0.028 0.011,0.064 0.011,0.107 l 0,0.167 C 0.475,0.618 0.471,0.656 0.464,0.687 0.456,0.717 0.442,0.742 0.422,0.761 0.402,0.779 0.373,0.792 0.336,0.799 0.3,0.806 0.251,0.81 0.191,0.81 l -0.141,0 C -0.01,0.81 -0.059,0.806 -0.095,0.797 -0.132,0.789 -0.161,0.773 -0.181,0.75 -0.201,0.726 -0.215,0.693 -0.223,0.65 -0.23,0.607 -0.234,0.551 -0.234,0.483 l 0,-0.686 c 0,-0.068 0.004,-0.123 0.011,-0.166 0.008,-0.044 0.022,-0.077 0.042,-0.101 0.02,-0.023 0.049,-0.039 0.086,-0.047 0.036,-0.009 0.085,-0.013 0.145,-0.013 l 0.633,0 0,-0.184 -0.753,0 c -0.101,0 -0.183,0.009 -0.248,0.027 -0.065,0.019 -0.117,0.049 -0.156,0.091 -0.039,0.042 -0.065,0.096 -0.08,0.162 -0.015,0.066 -0.022,0.147 -0.022,0.243 l 0,0.662 c 0,0.094 0.007,0.175 0.022,0.242 0.015,0.066 0.041,0.121 0.08,0.163 0.039,0.042 0.091,0.072 0.156,0.091 0.065,0.018 0.147,0.028 0.248,0.028 l 0.381,0 C 0.412,0.995 0.494,0.986 0.559,0.968 0.624,0.951 0.676,0.925 0.715,0.891 0.754,0.857 0.78,0.815 0.795,0.765 0.809,0.715 0.817,0.657 0.817,0.591 l 0,-0.188 C 0.817,0.338 0.809,0.28 0.795,0.229 0.78,0.179 0.754,0.137 0.715,0.103 0.676,0.069 0.624,0.044 0.559,0.026 0.494,0.009 0.412,0 0.311,0 L 0,0 Z" /></g><g
           transform="translate(124.1095,157.5242)"
           id="g186"><path
             id="path188"
             style="fill:#3b3b3b;fill-opacity:1;fill-rule:nonzero;stroke:none"
             d="m 0,0 -0.465,0 0,-1.09 c 0,-0.099 0.015,-0.165 0.045,-0.199 0.03,-0.033 0.089,-0.05 0.176,-0.05 l 0.15,0 0,-0.185 -0.288,0 c -0.08,0 -0.147,0.01 -0.202,0.031 -0.055,0.02 -0.098,0.049 -0.131,0.086 -0.032,0.037 -0.055,0.08 -0.07,0.131 -0.015,0.05 -0.022,0.105 -0.022,0.164 l 0,1.746 0.342,0 0,-0.449 L 0,0.185 0,0 Z" /></g><g
           transform="translate(124.3254,157.4272)"
           id="g190"><path
             id="path192"
             style="fill:#3b3b3b;fill-opacity:1;fill-rule:nonzero;stroke:none"
             d="m 0,0 c 0.015,0.067 0.041,0.121 0.08,0.163 0.039,0.042 0.091,0.073 0.156,0.091 0.065,0.019 0.147,0.028 0.248,0.028 l 0.348,0 0,-0.185 -0.228,0 C 0.544,0.097 0.495,0.093 0.459,0.085 0.422,0.076 0.393,0.061 0.373,0.037 0.353,0.013 0.339,-0.02 0.331,-0.063 0.324,-0.106 0.32,-0.162 0.32,-0.229 l 0,-1.198 -0.342,0 0,1.185 c 0,0.095 0.007,0.175 0.022,0.242" /></g><g
           transform="translate(125.6426,156.5112)"
           id="g194"><path
             id="path196"
             style="fill:#3b3b3b;fill-opacity:1;fill-rule:nonzero;stroke:none"
             d="m 0,0 c 0,-0.068 0.004,-0.123 0.012,-0.166 0.007,-0.043 0.021,-0.077 0.042,-0.1 0.02,-0.024 0.048,-0.04 0.085,-0.048 0.037,-0.008 0.085,-0.012 0.146,-0.012 l 0.207,0 c 0.06,0 0.109,0.004 0.146,0.012 0.036,0.008 0.065,0.024 0.085,0.048 0.02,0.023 0.034,0.057 0.042,0.1 0.008,0.043 0.012,0.098 0.012,0.166 l 0,0.687 C 0.777,0.754 0.773,0.81 0.765,0.853 0.757,0.896 0.743,0.929 0.723,0.953 0.703,0.977 0.674,0.992 0.638,1.001 0.601,1.009 0.552,1.013 0.492,1.013 l -0.207,0 C 0.224,1.013 0.176,1.009 0.139,1.001 0.102,0.992 0.074,0.977 0.054,0.953 0.033,0.929 0.019,0.896 0.012,0.853 0.004,0.81 0,0.754 0,0.687 L 0,0 Z M 0.613,1.198 C 0.713,1.198 0.796,1.189 0.86,1.17 0.925,1.152 0.977,1.121 1.016,1.079 1.055,1.037 1.082,0.983 1.096,0.916 1.111,0.849 1.118,0.769 1.118,0.674 l 0,-0.662 C 1.118,-0.084 1.111,-0.165 1.096,-0.231 1.082,-0.297 1.055,-0.351 1.016,-0.393 0.977,-0.435 0.925,-0.465 0.86,-0.483 0.796,-0.502 0.713,-0.511 0.613,-0.511 l -0.449,0 c -0.1,0 -0.183,0.009 -0.248,0.028 -0.064,0.018 -0.116,0.048 -0.155,0.09 -0.039,0.042 -0.066,0.096 -0.081,0.162 -0.014,0.066 -0.021,0.147 -0.021,0.243 l 0,0.662 c 0,0.095 0.007,0.175 0.021,0.242 0.015,0.067 0.042,0.121 0.081,0.163 0.039,0.042 0.091,0.073 0.155,0.091 0.065,0.019 0.148,0.028 0.248,0.028 l 0.449,0 z" /></g><g
           transform="translate(128.3339,156.6498)"
           id="g198"><path
             id="path200"
             style="fill:#3b3b3b;fill-opacity:1;fill-rule:nonzero;stroke:none"
             d="M 0,0 C 0,-0.224 -0.041,-0.388 -0.124,-0.493 -0.206,-0.597 -0.347,-0.65 -0.546,-0.65 l -0.749,0 0,0.185 0.682,0 c 0.047,0 0.089,0.005 0.126,0.015 0.037,0.011 0.067,0.031 0.09,0.062 0.024,0.031 0.042,0.073 0.054,0.128 0.012,0.054 0.018,0.125 0.018,0.214 0,0.076 -0.004,0.138 -0.013,0.186 -0.009,0.048 -0.025,0.085 -0.049,0.111 -0.023,0.026 -0.056,0.043 -0.097,0.052 -0.041,0.009 -0.095,0.014 -0.162,0.014 l -0.254,0 c -0.085,0 -0.157,0.01 -0.215,0.031 -0.058,0.02 -0.105,0.054 -0.14,0.1 -0.036,0.046 -0.062,0.107 -0.077,0.182 -0.016,0.074 -0.024,0.167 -0.024,0.278 0,0.189 0.039,0.336 0.116,0.442 0.077,0.106 0.21,0.159 0.4,0.159 l 0.652,0 0,-0.185 -0.569,0 c -0.046,0 -0.087,-0.006 -0.12,-0.017 C -0.911,1.296 -0.939,1.276 -0.962,1.249 -0.986,1.221 -1.003,1.183 -1.014,1.135 -1.025,1.086 -1.031,1.025 -1.031,0.951 c 0,-0.071 0.003,-0.13 0.01,-0.177 0.007,-0.046 0.02,-0.082 0.038,-0.107 0.019,-0.026 0.047,-0.044 0.083,-0.054 0.035,-0.011 0.083,-0.016 0.143,-0.016 l 0.238,0 c 0.089,0 0.167,-0.008 0.233,-0.024 0.065,-0.017 0.12,-0.047 0.162,-0.09 C -0.082,0.44 -0.05,0.38 -0.03,0.302 -0.01,0.224 0,0.123 0,0" /></g><g
           transform="translate(129.3848,157.5242)"
           id="g202"><path
             id="path204"
             style="fill:#3b3b3b;fill-opacity:1;fill-rule:nonzero;stroke:none"
             d="m 0,0 -0.465,0 0,-1.09 c 0,-0.099 0.015,-0.165 0.045,-0.199 0.03,-0.033 0.089,-0.05 0.176,-0.05 l 0.15,0 0,-0.185 -0.288,0 c -0.08,0 -0.147,0.01 -0.202,0.031 -0.055,0.02 -0.098,0.049 -0.131,0.086 -0.032,0.037 -0.055,0.08 -0.07,0.131 -0.015,0.05 -0.022,0.105 -0.022,0.164 l 0,1.746 0.342,0 0,-0.449 L 0,0.185 0,0 Z" /></g><g
           transform="translate(130.2517,157.0254)"
           id="g206"><path
             id="path208"
             style="fill:#3b3b3b;fill-opacity:1;fill-rule:nonzero;stroke:none"
             d="m 0,0 0,-0.179 -0.144,0 c -0.06,0 -0.109,-0.004 -0.145,-0.012 -0.037,-0.008 -0.066,-0.021 -0.086,-0.038 -0.02,-0.018 -0.034,-0.041 -0.042,-0.07 -0.008,-0.028 -0.011,-0.064 -0.011,-0.107 l 0,-0.198 c 0,-0.047 0.003,-0.085 0.011,-0.115 0.008,-0.03 0.022,-0.054 0.042,-0.072 0.02,-0.019 0.049,-0.032 0.086,-0.039 0.036,-0.007 0.085,-0.011 0.145,-0.011 l 0.378,0 0,1.013 C 0.234,0.24 0.23,0.296 0.223,0.339 0.215,0.382 0.201,0.415 0.181,0.439 0.161,0.462 0.132,0.478 0.095,0.487 0.059,0.495 0.01,0.499 -0.05,0.499 l -0.482,0 0,0.185 0.602,0 c 0.101,0 0.183,-0.01 0.248,-0.028 C 0.383,0.637 0.435,0.607 0.474,0.565 0.513,0.523 0.54,0.468 0.554,0.402 0.569,0.335 0.576,0.254 0.576,0.16 l 0,-1.185 -0.84,0 c -0.101,0 -0.183,0.008 -0.248,0.026 -0.065,0.017 -0.117,0.043 -0.156,0.077 -0.039,0.034 -0.066,0.076 -0.08,0.126 -0.015,0.05 -0.022,0.108 -0.022,0.174 l 0,0.219 c 0,0.065 0.007,0.123 0.022,0.174 0.014,0.05 0.041,0.092 0.08,0.126 0.039,0.034 0.091,0.059 0.156,0.077 C -0.447,-0.009 -0.365,0 -0.264,0 L 0,0 Z" /></g><g
           transform="translate(131.9421,157.5242)"
           id="g210"><path
             id="path212"
             style="fill:#3b3b3b;fill-opacity:1;fill-rule:nonzero;stroke:none"
             d="m 0,0 -0.465,0 0,-1.09 c 0,-0.099 0.015,-0.165 0.045,-0.199 0.03,-0.033 0.089,-0.05 0.176,-0.05 l 0.15,0 0,-0.185 -0.288,0 c -0.08,0 -0.147,0.01 -0.202,0.031 -0.055,0.02 -0.098,0.049 -0.131,0.086 -0.032,0.037 -0.055,0.08 -0.07,0.131 -0.015,0.05 -0.022,0.105 -0.022,0.164 l 0,1.746 0.342,0 0,-0.449 L 0,0.185 0,0 Z" /></g><path
           id="path214"
           style="fill:#3b3b3b;fill-opacity:1;fill-rule:nonzero;stroke:none"
           d="m 132.498,156 -0.341,0 0,1.709 0.341,0 0,-1.709 z m 0,1.928 -0.341,0 0,0.296 0.341,0 0,-0.296 z" /><g
           transform="translate(133.1539,156.5112)"
           id="g216"><path
             id="path218"
             style="fill:#3b3b3b;fill-opacity:1;fill-rule:nonzero;stroke:none"
             d="m 0,0 c 0,-0.068 0.004,-0.123 0.012,-0.166 0.007,-0.043 0.022,-0.077 0.042,-0.1 0.02,-0.024 0.048,-0.04 0.085,-0.048 0.037,-0.008 0.085,-0.012 0.146,-0.012 l 0.207,0 c 0.06,0 0.109,0.004 0.146,0.012 0.036,0.008 0.065,0.024 0.085,0.048 0.02,0.023 0.034,0.057 0.042,0.1 0.008,0.043 0.012,0.098 0.012,0.166 l 0,0.687 C 0.777,0.754 0.773,0.81 0.765,0.853 0.757,0.896 0.743,0.929 0.723,0.953 0.703,0.977 0.674,0.992 0.638,1.001 0.601,1.009 0.552,1.013 0.492,1.013 l -0.207,0 C 0.224,1.013 0.176,1.009 0.139,1.001 0.102,0.992 0.074,0.977 0.054,0.953 0.034,0.929 0.019,0.896 0.012,0.853 0.004,0.81 0,0.754 0,0.687 L 0,0 Z M 0.613,1.198 C 0.713,1.198 0.796,1.189 0.86,1.17 0.925,1.152 0.977,1.121 1.016,1.079 1.055,1.037 1.082,0.983 1.096,0.916 1.111,0.849 1.118,0.769 1.118,0.674 l 0,-0.662 C 1.118,-0.084 1.111,-0.165 1.096,-0.231 1.082,-0.297 1.055,-0.351 1.016,-0.393 0.977,-0.435 0.925,-0.465 0.86,-0.483 0.796,-0.502 0.713,-0.511 0.613,-0.511 l -0.449,0 c -0.1,0 -0.183,0.009 -0.248,0.028 -0.064,0.018 -0.116,0.048 -0.155,0.09 -0.039,0.042 -0.066,0.096 -0.081,0.162 -0.014,0.066 -0.021,0.147 -0.021,0.243 l 0,0.662 c 0,0.095 0.007,0.175 0.021,0.242 0.015,0.067 0.042,0.121 0.081,0.163 0.039,0.042 0.091,0.073 0.155,0.091 0.065,0.019 0.148,0.028 0.248,0.028 l 0.449,0 z" /></g><g
           transform="translate(134.9213,157.5242)"
           id="g220"><path
             id="path222"
             style="fill:#3b3b3b;fill-opacity:1;fill-rule:nonzero;stroke:none"
             d="m 0,0 0,-1.524 -0.341,0 0,1.709 0.917,0 c 0.1,0 0.183,-0.009 0.247,-0.028 C 0.888,0.139 0.94,0.108 0.979,0.066 1.018,0.024 1.045,-0.03 1.059,-0.097 1.074,-0.164 1.081,-0.244 1.081,-0.339 l 0,-1.185 -0.341,0 0,1.198 c 0,0.067 -0.004,0.123 -0.012,0.166 -0.008,0.043 -0.022,0.076 -0.042,0.1 -0.02,0.024 -0.048,0.039 -0.085,0.048 C 0.564,-0.004 0.515,0 0.455,0 L 0,0 Z" /></g><g
           transform="translate(134.2663,168.5917)"
           id="g224"><path
             id="path226"
             style="fill:#404040;fill-opacity:1;fill-rule:nonzero;stroke:none"
             d="M 0,0 C -0.159,0.408 -0.425,0.78 -0.797,1.113 -1,1.295 -1.218,1.452 -1.452,1.583 -1.684,1.714 -1.918,1.826 -2.153,1.923 -2.284,1.981 -6.281,3.408 -6.281,3.408 l 0,-8.039 -1.726,-0.991 c -0.283,-0.161 -0.608,-0.276 -0.974,-0.347 -0.367,-0.071 -0.728,-0.048 -1.088,0.068 -0.47,0.152 -0.664,0.326 -0.581,0.522 0.083,0.195 0.302,0.398 0.658,0.608 l 3.05,1.734 c 0.449,0.255 0.376,0.875 -0.121,1.036 l -0.119,0.039 c -0.18,0.058 -0.378,0.038 -0.54,-0.055 l -4.143,-2.367 c -0.857,-0.487 -1.342,-0.936 -1.456,-1.347 -0.114,-0.412 0.356,-0.795 1.41,-1.149 1.01,-0.333 1.949,-0.426 2.819,-0.279 0.87,0.147 1.713,0.458 2.531,0.93 l 1.762,0.992 0.019,-0.008 0,0.018 0.221,0.125 c 0.313,0.17 0.63,0.304 0.947,0.401 0.094,0.028 0.195,0.045 0.3,0.056 l -0.22,1.166 C -3.81,-3.524 -4.076,-3.582 -4.316,-3.667 -4.478,-3.723 -4.632,-3.783 -4.78,-3.846 l 0,5.509 1.773,-0.639 0,-0.009 c 0.39,-0.141 0.739,-0.326 1.046,-0.556 0.308,-0.231 0.455,-0.567 0.441,-1.007 0,-0.401 -0.139,-0.619 -0.415,-0.655 -0.276,-0.035 -0.603,0.017 -0.98,0.157 l -0.337,0.126 0,-1.169 -0.002,0.003 0.002,-0.06 0.231,-1.271 c -0.002,0 -0.003,0 -0.004,-0.001 l 0.115,-0.609 0.329,-1.815 -3.106,-1.766 c -0.448,-0.255 -0.375,-0.875 0.122,-1.035 l 0.12,-0.039 c 0.179,-0.058 0.377,-0.038 0.538,0.053 l 3.908,2.222 -0.005,0.011 0.015,-0.005 -2.226,4.241 0.29,-0.112 c 0.082,-0.031 0.164,-0.062 0.246,-0.093 0.082,-0.031 0.165,-0.062 0.248,-0.094 0.316,-0.107 0.629,-0.192 0.938,-0.254 0.309,-0.062 0.597,-0.056 0.864,0.018 0.317,0.096 0.544,0.28 0.682,0.555 0.138,0.275 0.203,0.59 0.196,0.944 C 0.242,-0.809 0.159,-0.41 0,0" /></g><g
           transform="translate(133.6547,164.8529)"
           id="g228"><path
             id="path230"
             style="fill:#404040;fill-opacity:1;fill-rule:nonzero;stroke:none"
             d="m 0,0 c -0.085,0.027 -0.17,0.053 -0.255,0.078 -0.085,0.024 -0.174,0.047 -0.267,0.071 -0.26,0.067 -0.547,0.11 -0.842,0.145 l 1.412,-2.709 c 0.784,0.46 1.243,0.886 1.356,1.274 C 1.522,-0.735 1.054,-0.354 0,0" /></g><g
           transform="translate(131.9823,147.9674)"
           id="g232"><path
             id="path234"
             style="fill:#404040;fill-opacity:1;fill-rule:nonzero;stroke:none"
             d="m 0,0 13.515,-2.924 c 1.255,-0.272 1.255,-1.815 0,-2.087 L 0,-7.935 c -0.784,-0.169 -1.544,0.344 -1.544,1.044 l 0,5.848 C -1.544,-0.344 -0.784,0.17 0,0" /></g></g></g></g></svg>