<?xml version="1.0" encoding="UTF-8" standalone="no"?>
<svg
   xmlns:dc="http://purl.org/dc/elements/1.1/"
   xmlns:cc="http://creativecommons.org/ns#"
   xmlns:rdf="http://www.w3.org/1999/02/22-rdf-syntax-ns#"
   xmlns:svg="http://www.w3.org/2000/svg"
   xmlns="http://www.w3.org/2000/svg"
   viewBox="0 0 341.33334 341.33334"
   height="256"
   width="256"
   xml:space="preserve"
   id="svg2"
   version="1.1"><metadata
     id="metadata8"><rdf:RDF><cc:Work
         rdf:about=""><dc:format>image/svg+xml</dc:format><dc:type
           rdf:resource="http://purl.org/dc/dcmitype/StillImage" /></cc:Work></rdf:RDF></metadata><defs
     id="defs6"><clipPath
       id="clipPath18"
       clipPathUnits="userSpaceOnUse"><path
         id="path16"
         d="M 0,256 H 256 V 0 H 0 Z" /></clipPath><clipPath
       id="clipPath26"
       clipPathUnits="userSpaceOnUse"><path
         id="path24"
         d="M 4,187 H 252 V 69 H 4 Z" /></clipPath><clipPath
       id="clipPath246"
       clipPathUnits="userSpaceOnUse"><path
         id="path244"
         d="M 0,256 H 256 V 0 H 0 Z" /></clipPath></defs><g
     transform="matrix(1.3333333,0,0,-1.3333333,0,341.33333)"
     id="g10"><g
       id="g12"><g
         clip-path="url(#clipPath18)"
         id="g14"><g
           id="g20"><g
             id="g22" /><g
             id="g32"><g
               style="opacity:0.5"
               id="g30"
               clip-path="url(#clipPath26)"><path
                 id="path28"
                 style="fill:#ffffff;fill-opacity:1;fill-rule:nonzero;stroke:none"
                 d="M 4,69 H 252 V 187 H 4 Z" /></g></g></g></g></g><path
       id="path34"
       style="fill:#b3b3b3;fill-opacity:1;fill-rule:nonzero;stroke:none"
       d="M 242,125.501 H 14 V 156 h 228 z" /><path
       id="path36"
       style="fill:#bfbfbf;fill-opacity:1;fill-rule:nonzero;stroke:none"
       d="M 244,152 H 12 v 28 h 232 z" /><g
       transform="translate(244,128)"
       id="g38"><path
         id="path40"
         style="fill:#bfbfbf;fill-opacity:1;fill-rule:nonzero;stroke:none"
         d="M 0,0 H -218.407 -232 V -52 H 0 Z" /></g><g
       transform="translate(32.2328,156)"
       id="g42"><path
         id="path44"
         style="fill:#808080;fill-opacity:1;fill-rule:nonzero;stroke:none"
         d="M 0,0 31.408,24 H 27.175 L -4.233,0 Z" /></g><g
       transform="translate(41.6657,156)"
       id="g46"><path
         id="path48"
         style="fill:#808080;fill-opacity:1;fill-rule:nonzero;stroke:none"
         d="M 0,0 31.408,24 H 27.175 L -4.233,0 Z" /></g><g
       transform="translate(51.0986,156)"
       id="g50"><path
         id="path52"
         style="fill:#808080;fill-opacity:1;fill-rule:nonzero;stroke:none"
         d="M 0,0 31.408,24 H 27.175 L -4.233,0 Z" /></g><g
       transform="translate(60.5315,156)"
       id="g54"><path
         id="path56"
         style="fill:#808080;fill-opacity:1;fill-rule:nonzero;stroke:none"
         d="M 0,0 31.408,24 H 27.175 L -4.233,0 Z" /></g><g
       transform="translate(69.9644,156)"
       id="g58"><path
         id="path60"
         style="fill:#808080;fill-opacity:1;fill-rule:nonzero;stroke:none"
         d="M 0,0 31.408,24 H 27.175 L -4.233,0 Z" /></g><g
       transform="translate(79.3973,156)"
       id="g62"><path
         id="path64"
         style="fill:#808080;fill-opacity:1;fill-rule:nonzero;stroke:none"
         d="M 0,0 31.408,24 H 27.175 L -4.233,0 Z" /></g><g
       transform="translate(88.8302,156)"
       id="g66"><path
         id="path68"
         style="fill:#808080;fill-opacity:1;fill-rule:nonzero;stroke:none"
         d="M 0,0 31.408,24 H 27.175 L -4.233,0 Z" /></g><g
       transform="translate(98.2631,156)"
       id="g70"><path
         id="path72"
         style="fill:#808080;fill-opacity:1;fill-rule:nonzero;stroke:none"
         d="M 0,0 31.408,24 H 27.175 L -4.233,0 Z" /></g><g
       transform="translate(107.696,156)"
       id="g74"><path
         id="path76"
         style="fill:#808080;fill-opacity:1;fill-rule:nonzero;stroke:none"
         d="M 0,0 31.408,24 H 27.175 L -4.233,0 Z" /></g><g
       transform="translate(117.1288,156)"
       id="g78"><path
         id="path80"
         style="fill:#808080;fill-opacity:1;fill-rule:nonzero;stroke:none"
         d="M 0,0 31.408,24 H 27.175 L -4.233,0 Z" /></g><g
       transform="translate(126.5618,156)"
       id="g82"><path
         id="path84"
         style="fill:#808080;fill-opacity:1;fill-rule:nonzero;stroke:none"
         d="M 0,0 31.408,24 H 27.175 L -4.233,0 Z" /></g><g
       transform="translate(135.9946,156)"
       id="g86"><path
         id="path88"
         style="fill:#808080;fill-opacity:1;fill-rule:nonzero;stroke:none"
         d="M 0,0 31.408,24 H 27.175 L -4.233,0 Z" /></g><g
       transform="translate(145.4275,156)"
       id="g90"><path
         id="path92"
         style="fill:#808080;fill-opacity:1;fill-rule:nonzero;stroke:none"
         d="M 0,0 31.408,24 H 27.175 L -4.233,0 Z" /></g><g
       transform="translate(154.8604,156)"
       id="g94"><path
         id="path96"
         style="fill:#808080;fill-opacity:1;fill-rule:nonzero;stroke:none"
         d="M 0,0 31.408,24 H 27.175 L -4.233,0 Z" /></g><g
       transform="translate(164.2933,156)"
       id="g98"><path
         id="path100"
         style="fill:#808080;fill-opacity:1;fill-rule:nonzero;stroke:none"
         d="M 0,0 31.408,24 H 27.175 L -4.233,0 Z" /></g><g
       transform="translate(173.7262,156)"
       id="g102"><path
         id="path104"
         style="fill:#808080;fill-opacity:1;fill-rule:nonzero;stroke:none"
         d="M 0,0 31.408,24 H 27.175 L -4.233,0 Z" /></g><g
       transform="translate(183.1591,156)"
       id="g106"><path
         id="path108"
         style="fill:#808080;fill-opacity:1;fill-rule:nonzero;stroke:none"
         d="M 0,0 31.408,24 H 27.175 L -4.233,0 Z" /></g><g
       transform="translate(192.592,156)"
       id="g110"><path
         id="path112"
         style="fill:#808080;fill-opacity:1;fill-rule:nonzero;stroke:none"
         d="M 0,0 31.408,24 H 27.175 L -4.233,0 Z" /></g><path
       id="path114"
       style="fill:#bfbfbf;fill-opacity:1;fill-rule:nonzero;stroke:none"
       d="M 244,148 H 12 v -16 h 232 z" /><g
       transform="translate(156.706,129.6914)"
       id="g116"><path
         id="path118"
         style="fill:#808080;fill-opacity:1;fill-rule:nonzero;stroke:none"
         d="m 0,0 h -11.471 l 4.556,3.668 4.028,2.949 H 9.039 Z m -13.236,0 h -11.472 l 4.555,3.667 4.03,2.95 H -4.502 L -7.551,4.162 Z m -13.237,0 h -11.471 l 4.556,3.668 4.029,2.949 h 11.621 L -20.789,4.161 Z M -39.709,0 H -51.18 l 4.556,3.668 4.028,2.949 h 11.622 l -3.05,-2.455 z m -13.236,0 h -11.472 l 4.555,3.667 4.03,2.95 h 11.621 L -47.26,4.162 Z m -13.237,0 h -11.471 l 4.556,3.668 4.029,2.949 h 11.621 l -3.051,-2.456 z m -13.236,0 h -11.471 l 4.556,3.668 4.028,2.949 h 11.622 l -3.05,-2.455 z m -13.236,0 h -11.472 l 4.555,3.667 4.03,2.95 h 11.621 l -3.049,-2.455 z m -13.237,0 h -11.471 l 4.556,3.668 4.029,2.949 h 11.621 l -3.051,-2.456 z m -13.236,0 h -11.471 l 8.218,6.617 h 11.988 l -3.05,-2.455 z m -3.643,7.309 -9.936,-8 H 0.365 l 10.929,8 z" /></g><g
       transform="translate(176,138)"
       id="g120"><path
         id="path122"
         style="fill:#b3b3b3;fill-opacity:1;fill-rule:nonzero;stroke:none"
         d="M 0,0 3.805,4 H 52 L 48.119,0 Z" /></g><path
       id="path124"
       style="fill:#d9d9d9;fill-opacity:1;fill-rule:nonzero;stroke:none"
       d="m 24,116.075 h -8 v 8 h 8 z" /><path
       id="path126"
       style="fill:#d9d9d9;fill-opacity:1;fill-rule:nonzero;stroke:none"
       d="M 28,104.075 H 16 v 8 h 12 z" /><path
       id="path128"
       style="fill:#d9d9d9;fill-opacity:1;fill-rule:nonzero;stroke:none"
       d="m 36,116.075 h -8 v 8 h 8 z" /><path
       id="path130"
       style="fill:#d9d9d9;fill-opacity:1;fill-rule:nonzero;stroke:none"
       d="m 40,104.075 h -8 v 8 h 8 z" /><path
       id="path132"
       style="fill:#d9d9d9;fill-opacity:1;fill-rule:nonzero;stroke:none"
       d="m 44,92.075 h -8 v 8 h 8 z" /><path
       id="path134"
       style="fill:#d9d9d9;fill-opacity:1;fill-rule:nonzero;stroke:none"
       d="m 56,92.075 h -8 v 8 h 8 z" /><path
       id="path136"
       style="fill:#d9d9d9;fill-opacity:1;fill-rule:nonzero;stroke:none"
       d="m 68,92.075 h -8 v 8 h 8 z" /><path
       id="path138"
       style="fill:#d9d9d9;fill-opacity:1;fill-rule:nonzero;stroke:none"
       d="m 80,92.075 h -8 v 8 h 8 z" /><path
       id="path140"
       style="fill:#d9d9d9;fill-opacity:1;fill-rule:nonzero;stroke:none"
       d="m 92,92.075 h -8 v 8 h 8 z" /><path
       id="path142"
       style="fill:#d9d9d9;fill-opacity:1;fill-rule:nonzero;stroke:none"
       d="m 104,92.075 h -8 v 8 h 8 z" /><path
       id="path144"
       style="fill:#d9d9d9;fill-opacity:1;fill-rule:nonzero;stroke:none"
       d="m 116,92.075 h -8 v 8 h 8 z" /><path
       id="path146"
       style="fill:#d9d9d9;fill-opacity:1;fill-rule:nonzero;stroke:none"
       d="m 128,92.075 h -8 v 8 h 8 z" /><path
       id="path148"
       style="fill:#d9d9d9;fill-opacity:1;fill-rule:nonzero;stroke:none"
       d="m 140,92.075 h -8 v 8 h 8 z" /><path
       id="path150"
       style="fill:#d9d9d9;fill-opacity:1;fill-rule:nonzero;stroke:none"
       d="m 52,104.075 h -8 v 8 h 8 z" /><path
       id="path152"
       style="fill:#d9d9d9;fill-opacity:1;fill-rule:nonzero;stroke:none"
       d="m 64,104.075 h -8 v 8 h 8 z" /><path
       id="path154"
       style="fill:#d9d9d9;fill-opacity:1;fill-rule:nonzero;stroke:none"
       d="m 76,104.075 h -8 v 8 h 8 z" /><path
       id="path156"
       style="fill:#d9d9d9;fill-opacity:1;fill-rule:nonzero;stroke:none"
       d="m 88,104.075 h -8 v 8 h 8 z" /><path
       id="path158"
       style="fill:#d9d9d9;fill-opacity:1;fill-rule:nonzero;stroke:none"
       d="m 100,104.075 h -8 v 8 h 8 z" /><path
       id="path160"
       style="fill:#d9d9d9;fill-opacity:1;fill-rule:nonzero;stroke:none"
       d="m 112,104.075 h -8 v 8 h 8 z" /><path
       id="path162"
       style="fill:#d9d9d9;fill-opacity:1;fill-rule:nonzero;stroke:none"
       d="m 124,104.075 h -8 v 8 h 8 z" /><path
       id="path164"
       style="fill:#d9d9d9;fill-opacity:1;fill-rule:nonzero;stroke:none"
       d="m 136,104.075 h -8 v 8 h 8 z" /><path
       id="path166"
       style="fill:#d9d9d9;fill-opacity:1;fill-rule:nonzero;stroke:none"
       d="m 164,104.075 h -8 v 8 h 8 z" /><path
       id="path168"
       style="fill:#d9d9d9;fill-opacity:1;fill-rule:nonzero;stroke:none"
       d="m 204,116.075 h -8 v 8 h 8 z" /><path
       id="path170"
       style="fill:#d9d9d9;fill-opacity:1;fill-rule:nonzero;stroke:none"
       d="m 216,116.075 h -8 v 8 h 8 z" /><path
       id="path172"
       style="fill:#d9d9d9;fill-opacity:1;fill-rule:nonzero;stroke:none"
       d="m 228,116.075 h -8 v 8 h 8 z" /><path
       id="path174"
       style="fill:#d9d9d9;fill-opacity:1;fill-rule:nonzero;stroke:none"
       d="m 240,116.075 h -8 v 8 h 8 z" /><path
       id="path176"
       style="fill:#d9d9d9;fill-opacity:1;fill-rule:nonzero;stroke:none"
       d="m 204,104.075 h -8 v 8 h 8 z" /><path
       id="path178"
       style="fill:#d9d9d9;fill-opacity:1;fill-rule:nonzero;stroke:none"
       d="m 216,104.075 h -8 v 8 h 8 z" /><path
       id="path180"
       style="fill:#d9d9d9;fill-opacity:1;fill-rule:nonzero;stroke:none"
       d="m 228,104.075 h -8 v 8 h 8 z" /><path
       id="path182"
       style="fill:#d9d9d9;fill-opacity:1;fill-rule:nonzero;stroke:none"
       d="m 240,104.075 h -8 v 8 h 8 z" /><path
       id="path184"
       style="fill:#d9d9d9;fill-opacity:1;fill-rule:nonzero;stroke:none"
       d="m 204,92.075 h -8 v 8 h 8 z" /><path
       id="path186"
       style="fill:#d9d9d9;fill-opacity:1;fill-rule:nonzero;stroke:none"
       d="m 216,92.075 h -8 v 8 h 8 z" /><path
       id="path188"
       style="fill:#d9d9d9;fill-opacity:1;fill-rule:nonzero;stroke:none"
       d="m 228,92.075 h -8 v 8 h 8 z" /><path
       id="path190"
       style="fill:#d9d9d9;fill-opacity:1;fill-rule:nonzero;stroke:none"
       d="m 204,80.075 h -8 v 8 h 8 z" /><path
       id="path192"
       style="fill:#d9d9d9;fill-opacity:1;fill-rule:nonzero;stroke:none"
       d="m 216,80.075 h -8 v 8 h 8 z" /><path
       id="path194"
       style="fill:#d9d9d9;fill-opacity:1;fill-rule:nonzero;stroke:none"
       d="m 228,80.075 h -8 v 8 h 8 z" /><path
       id="path196"
       style="fill:#d9d9d9;fill-opacity:1;fill-rule:nonzero;stroke:none"
       d="m 240,80.075 h -8 v 20 h 8 z" /><path
       id="path198"
       style="fill:#d9d9d9;fill-opacity:1;fill-rule:nonzero;stroke:none"
       d="m 176,104.075 h -8 v 8 h 8 z" /><path
       id="path200"
       style="fill:#d9d9d9;fill-opacity:1;fill-rule:nonzero;stroke:none"
       d="m 188,104.075 h -8 v 8 h 8 z" /><path
       id="path202"
       style="fill:#d9d9d9;fill-opacity:1;fill-rule:nonzero;stroke:none"
       d="m 164,92.075 h -8 v 8 h 8 z" /><path
       id="path204"
       style="fill:#d9d9d9;fill-opacity:1;fill-rule:nonzero;stroke:none"
       d="m 176,92.075 h -8 v 8 h 8 z" /><path
       id="path206"
       style="fill:#d9d9d9;fill-opacity:1;fill-rule:nonzero;stroke:none"
       d="m 188,92.075 h -8 v 8 h 8 z" /><path
       id="path208"
       style="fill:#d9d9d9;fill-opacity:1;fill-rule:nonzero;stroke:none"
       d="m 148,92.075 h -8 v 20 h 8 z" /><path
       id="path210"
       style="fill:#d9d9d9;fill-opacity:1;fill-rule:nonzero;stroke:none"
       d="m 48,116.075 h -8 v 8 h 8 z" /><path
       id="path212"
       style="fill:#d9d9d9;fill-opacity:1;fill-rule:nonzero;stroke:none"
       d="m 60,116.075 h -8 v 8 h 8 z" /><path
       id="path214"
       style="fill:#d9d9d9;fill-opacity:1;fill-rule:nonzero;stroke:none"
       d="m 72,116.075 h -8 v 8 h 8 z" /><path
       id="path216"
       style="fill:#d9d9d9;fill-opacity:1;fill-rule:nonzero;stroke:none"
       d="m 84,116.075 h -8 v 8 h 8 z" /><path
       id="path218"
       style="fill:#d9d9d9;fill-opacity:1;fill-rule:nonzero;stroke:none"
       d="m 96,116.075 h -8 v 8 h 8 z" /><path
       id="path220"
       style="fill:#d9d9d9;fill-opacity:1;fill-rule:nonzero;stroke:none"
       d="m 108,116.075 h -8 v 8 h 8 z" /><path
       id="path222"
       style="fill:#d9d9d9;fill-opacity:1;fill-rule:nonzero;stroke:none"
       d="m 120,116.075 h -8 v 8 h 8 z" /><path
       id="path224"
       style="fill:#d9d9d9;fill-opacity:1;fill-rule:nonzero;stroke:none"
       d="m 132,116.075 h -8 v 8 h 8 z" /><path
       id="path226"
       style="fill:#d9d9d9;fill-opacity:1;fill-rule:nonzero;stroke:none"
       d="m 148,116.075 h -12 v 8 h 12 z" /><path
       id="path228"
       style="fill:#d9d9d9;fill-opacity:1;fill-rule:nonzero;stroke:none"
       d="m 168,116.075 h -12 v 8 h 12 z" /><path
       id="path230"
       style="fill:#d9d9d9;fill-opacity:1;fill-rule:nonzero;stroke:none"
       d="m 188,116.075 h -12 v 8 h 12 z" /><path
       id="path232"
       style="fill:#d9d9d9;fill-opacity:1;fill-rule:nonzero;stroke:none"
       d="M 32,92.075 H 16 v 8.075 h 16 z" /><path
       id="path234"
       style="fill:#d9d9d9;fill-opacity:1;fill-rule:nonzero;stroke:none"
       d="M 32,80 H 16 v 8.075 h 16 z" /><path
       id="path236"
       style="fill:#d9d9d9;fill-opacity:1;fill-rule:nonzero;stroke:none"
       d="m 136,80 h -16 v 8.075 h 16 z" /><path
       id="path238"
       style="fill:#d9d9d9;fill-opacity:1;fill-rule:nonzero;stroke:none"
       d="M 116,80 H 36 v 8.075 h 80 z" /><g
       id="g240"><g
         clip-path="url(#clipPath246)"
         id="g242"><g
           transform="translate(180.9184,142.9903)"
           id="g248"><path
             id="path250"
             style="fill:#808080;fill-opacity:1;fill-rule:nonzero;stroke:none"
             d="m 0,0 c 0.017,-0.555 0.022,-1.111 -0.001,-1.666 -0.023,-0.536 -0.064,-1.069 -0.172,-1.593 -0.11,-0.533 -0.328,-1.007 -0.625,-1.436 -0.263,-0.38 -0.575,-0.7 -0.948,-0.94 C -2.09,-5.856 -2.458,-5.989 -2.857,-6 c -0.018,0 -0.036,0 -0.058,0 -10e-4,0.018 -0.003,0.033 -0.003,0.048 0,0.259 0.001,0.517 0,0.776 -10e-4,0.037 0.006,0.051 0.042,0.054 0.126,0.01 0.242,0.058 0.356,0.115 0.441,0.221 0.82,0.542 1.154,0.932 0.213,0.248 0.404,0.515 0.533,0.832 0.111,0.271 0.184,0.557 0.239,0.848 0.076,0.398 0.125,0.8 0.142,1.205 0.017,0.397 0.023,0.793 0.033,1.19 z" /></g><g
           transform="translate(181.0816,142.9903)"
           id="g252"><path
             id="path254"
             style="fill:#808080;fill-opacity:1;fill-rule:nonzero;stroke:none"
             d="m 0,0 c -0.017,-0.555 -0.022,-1.111 0.001,-1.666 0.023,-0.536 0.064,-1.069 0.172,-1.593 0.11,-0.533 0.328,-1.007 0.625,-1.436 0.263,-0.38 0.575,-0.7 0.948,-0.94 C 2.09,-5.856 2.458,-5.989 2.857,-6 c 0.018,0 0.036,0 0.058,0 10e-4,0.018 0.003,0.033 0.003,0.048 0,0.259 -0.001,0.517 0,0.776 10e-4,0.037 -0.006,0.051 -0.042,0.054 C 2.75,-5.112 2.634,-5.064 2.52,-5.007 2.079,-4.786 1.7,-4.465 1.366,-4.075 1.153,-3.827 0.962,-3.56 0.833,-3.243 0.722,-2.972 0.649,-2.686 0.594,-2.395 0.518,-1.997 0.469,-1.595 0.452,-1.19 0.435,-0.793 0.429,-0.397 0.419,0 Z" /></g><g
           transform="translate(188.2005,137.8253)"
           id="g256"><path
             id="path258"
             style="fill:#808080;fill-opacity:1;fill-rule:nonzero;stroke:none"
             d="M 0,0 H -1.997 C -2.136,0 -2.256,0.04 -2.36,0.12 -2.463,0.2 -2.514,0.294 -2.514,0.401 V 4 H -1.74 V 0.601 H 0 Z" /></g><path
           id="path260"
           style="fill:#808080;fill-opacity:1;fill-rule:nonzero;stroke:none"
           d="m 189.458,137.825 h -0.774 v 4 h 0.774 z" /><g
           transform="translate(192.4855,138.9242)"
           id="g262"><path
             id="path264"
             style="fill:#808080;fill-opacity:1;fill-rule:nonzero;stroke:none"
             d="m 0,0 c 0,0.131 -0.065,0.247 -0.196,0.349 -0.131,0.101 -0.281,0.152 -0.45,0.152 h -0.966 v -0.999 h 0.966 c 0.169,0 0.319,0.051 0.45,0.152 C -0.065,-0.244 0,-0.129 0,0 m -0.325,1.802 c 0,0.129 -0.065,0.244 -0.196,0.346 -0.133,0.104 -0.282,0.155 -0.445,0.155 H -1.612 V 1.102 c 0.858,0.103 1.287,0.337 1.287,0.7 M 0.774,0 c 0,-0.289 -0.144,-0.545 -0.43,-0.768 -0.285,-0.221 -0.615,-0.331 -0.99,-0.331 h -1.223 c -0.138,0 -0.259,0.04 -0.362,0.12 -0.103,0.08 -0.155,0.174 -0.155,0.282 v 3.2 c 0,0.105 0.052,0.198 0.155,0.278 0.103,0.08 0.224,0.12 0.362,0.12 h 0.903 c 0.362,0 0.689,-0.104 0.981,-0.313 C 0.305,2.38 0.449,2.135 0.449,1.852 0.449,1.495 0.258,1.211 -0.125,1.002 0.135,0.924 0.35,0.791 0.521,0.604 0.69,0.42 0.774,0.219 0.774,0" /></g><g
           transform="translate(196.8347,137.8253)"
           id="g266"><path
             id="path268"
             style="fill:#808080;fill-opacity:1;fill-rule:nonzero;stroke:none"
             d="m 0,0 h -0.902 l -1.065,1.295 c -0.151,0.184 -0.226,0.324 -0.226,0.419 0,0.182 0.073,0.318 0.218,0.408 0.011,0.005 0.18,0.079 0.51,0.219 0.375,0.163 0.563,0.349 0.563,0.56 0,0.127 -0.067,0.242 -0.2,0.346 -0.134,0.103 -0.282,0.155 -0.446,0.155 H -2.322 V 0 h -0.774 v 3.601 c 0,0.106 0.052,0.199 0.155,0.279 C -2.838,3.96 -2.717,4 -2.579,4 h 1.031 c 0.363,0 0.69,-0.105 0.982,-0.314 0.289,-0.207 0.434,-0.452 0.434,-0.735 0,-0.281 -0.122,-0.535 -0.366,-0.762 C -0.745,1.962 -1.043,1.808 -1.393,1.726 Z" /></g><g
           transform="translate(199.8286,137.8253)"
           id="g270"><path
             id="path272"
             style="fill:#808080;fill-opacity:1;fill-rule:nonzero;stroke:none"
             d="M 0,0 H -1.997 C -2.136,0 -2.256,0.04 -2.36,0.12 -2.463,0.2 -2.514,0.294 -2.514,0.401 v 3.2 c 0,0.106 0.051,0.199 0.154,0.279 C -2.256,3.96 -2.136,4 -1.997,4 H 0 V 3.402 H -1.74 V 2.3 h 1.094 V 1.7 H -1.74 V 0.601 H 0 Z" /></g><g
           transform="translate(203.049,141.2275)"
           id="g274"><path
             id="path276"
             style="fill:#808080;fill-opacity:1;fill-rule:nonzero;stroke:none"
             d="M 0,0 H -1.031 V -3.402 H -1.805 V 0 h -1.03 V 0.598 H 0 Z" /></g><g
           transform="translate(206.5299,137.8253)"
           id="g278"><path
             id="path280"
             style="fill:#808080;fill-opacity:1;fill-rule:nonzero;stroke:none"
             d="m 0,0 h -0.902 l -1.065,1.295 c -0.151,0.184 -0.226,0.324 -0.226,0.419 0,0.182 0.073,0.318 0.218,0.408 0.011,0.005 0.18,0.079 0.51,0.219 0.375,0.163 0.563,0.349 0.563,0.56 0,0.127 -0.067,0.242 -0.2,0.346 -0.134,0.103 -0.282,0.155 -0.446,0.155 H -2.322 V 0 h -0.774 v 3.601 c 0,0.106 0.052,0.199 0.155,0.279 C -2.838,3.96 -2.717,4 -2.579,4 h 1.031 c 0.363,0 0.69,-0.105 0.982,-0.314 0.289,-0.207 0.434,-0.452 0.434,-0.735 0,-0.281 -0.122,-0.535 -0.366,-0.762 C -0.745,1.962 -1.043,1.808 -1.393,1.726 Z" /></g><g
           transform="translate(208.9121,138.9242)"
           id="g282"><path
             id="path284"
             style="fill:#808080;fill-opacity:1;fill-rule:nonzero;stroke:none"
             d="M 0,0 V 1.802 C 0,1.931 -0.065,2.046 -0.196,2.148 -0.33,2.252 -0.479,2.303 -0.646,2.303 -0.812,2.303 -0.961,2.252 -1.095,2.148 -1.226,2.046 -1.291,1.931 -1.291,1.802 V 0 c 0,-0.129 0.065,-0.244 0.196,-0.346 0.131,-0.101 0.281,-0.152 0.449,-0.152 0.169,0 0.319,0.051 0.45,0.152 C -0.065,-0.244 0,-0.129 0,0 m 0.774,0 c 0,-0.289 -0.144,-0.545 -0.43,-0.768 -0.285,-0.221 -0.615,-0.331 -0.99,-0.331 -0.37,0 -0.699,0.11 -0.989,0.331 -0.284,0.225 -0.426,0.481 -0.426,0.768 v 1.802 c 0,0.289 0.142,0.544 0.426,0.765 0.287,0.223 0.617,0.334 0.989,0.334 0.375,0 0.705,-0.111 0.99,-0.334 0.286,-0.221 0.43,-0.476 0.43,-0.765 z" /></g><g
           transform="translate(216.3846,143.9985)"
           id="g286"><path
             id="path288"
             style="fill:#354ea1;fill-opacity:1;fill-rule:nonzero;stroke:none"
             d="m 0,0 c -1.709,0.036 -3.19,-0.591 -3.2,-1.899 0,-0.781 0.424,-1.272 1.109,-1.762 l 0.765,-0.528 c 0.301,-0.218 0.685,-0.399 0.632,-0.717 -0.062,-0.318 -0.527,-0.291 -0.87,-0.291 -0.817,0.027 -1.958,0.4 -1.958,0.409 l 0.166,-1.971 c 0.922,-0.182 1.492,-0.2 2.445,-0.237 1.554,-0.054 3.355,0.682 3.231,2.153 -0.061,0.654 -0.558,1.146 -1.119,1.527 l -0.558,0.382 c -0.384,0.272 -0.943,0.572 -0.839,0.853 0.155,0.4 0.745,0.282 1.098,0.264 C 1.544,-1.863 5.03,-1.872 5.03,-1.872 L 4.751,-6.85 h 3.003 l 0.249,4.978 2.372,-0.045 0.103,1.799 c 0,0 -9.183,0.1 -10.478,0.118" /></g></g></g></g></svg>