<?xml version="1.0" encoding="UTF-8" standalone="no"?>
<svg
   xmlns:dc="http://purl.org/dc/elements/1.1/"
   xmlns:cc="http://creativecommons.org/ns#"
   xmlns:rdf="http://www.w3.org/1999/02/22-rdf-syntax-ns#"
   xmlns:svg="http://www.w3.org/2000/svg"
   xmlns="http://www.w3.org/2000/svg"
   viewBox="0 0 341.33334 341.33334"
   height="256"
   width="256"
   xml:space="preserve"
   id="svg2"
   version="1.1"><metadata
     id="metadata8"><rdf:RDF><cc:Work
         rdf:about=""><dc:format>image/svg+xml</dc:format><dc:type
           rdf:resource="http://purl.org/dc/dcmitype/StillImage" /></cc:Work></rdf:RDF></metadata><defs
     id="defs6"><clipPath
       id="clipPath18"
       clipPathUnits="userSpaceOnUse"><path
         id="path16"
         d="M 0,256 H 256 V 0 H 0 Z" /></clipPath><clipPath
       id="clipPath26"
       clipPathUnits="userSpaceOnUse"><path
         id="path24"
         d="M 4,252 H 252 V 3.99997 H 4 Z" /></clipPath><clipPath
       id="clipPath258"
       clipPathUnits="userSpaceOnUse"><path
         id="path256"
         d="m 217.176,64.4061 h 0.146 v -0.086 h -0.146 z" /></clipPath><clipPath
       id="clipPath274"
       clipPathUnits="userSpaceOnUse"><path
         id="path272"
         d="m 213.038,63.7776 h 0.163 v -0.0979 h -0.163 z" /></clipPath></defs><g
     transform="matrix(1.3333333,0,0,-1.3333333,0,341.33333)"
     id="g10"><g
       id="g12"><g
         clip-path="url(#clipPath18)"
         id="g14"><g
           id="g20"><g
             id="g22" /><g
             id="g34"><g
               style="opacity:0.5"
               id="g32"
               clip-path="url(#clipPath26)"><g
                 id="g30"
                 transform="translate(239.5385,252)"><path
                   id="path28"
                   style="fill:#ffffff;fill-opacity:1;fill-rule:nonzero;stroke:none"
                   d="m 0,0 h -223.077 c -6.871,0 -12.461,-5.59 -12.461,-12.462 v -223.076 c 0,-6.872 5.59,-12.462 12.461,-12.462 L 0,-248 c 6.871,0 12.462,5.59 12.462,12.462 V -12.462 C 12.462,-5.59 6.871,0 0,0" /></g></g></g></g><g
           transform="translate(16.4615,244)"
           id="g36"><path
             id="path38"
             style="fill:#3b3b3b;fill-opacity:1;fill-rule:nonzero;stroke:none"
             d="m 0,0 h 223.077 c 2.464,0 4.461,-1.997 4.461,-4.462 v -223.076 c 0,-2.465 -1.997,-4.462 -4.461,-4.462 L 0,-232 c -2.464,0 -4.462,1.997 -4.462,4.462 V -4.462 C -4.462,-1.997 -2.464,0 0,0" /></g><g
           transform="translate(17.89,44)"
           id="g40"><path
             id="path42"
             style="fill:#454545;fill-opacity:1;fill-rule:nonzero;stroke:none"
             d="m 0,0 h 220.22 c 1.044,0 1.89,-0.881 1.89,-1.969 v -24.062 c 0,-1.088 -0.846,-1.969 -1.89,-1.969 L 0,-28 c -1.044,0 -1.89,0.881 -1.89,1.969 V -1.969 C -1.89,-0.881 -1.044,0 0,0" /></g><path
           id="path44"
           style="fill:#a3834a;fill-opacity:1;fill-rule:nonzero;stroke:none"
           d="m 26,16 h -4 v 28 h 4 z" /><path
           id="path46"
           style="fill:#a3834a;fill-opacity:1;fill-rule:nonzero;stroke:none"
           d="m 34,16 h -4 v 28 h 4 z" /><path
           id="path48"
           style="fill:#a3834a;fill-opacity:1;fill-rule:nonzero;stroke:none"
           d="m 42,20 h -4 v 24 h 4 z" /><path
           id="path50"
           style="fill:#a3834a;fill-opacity:1;fill-rule:nonzero;stroke:none"
           d="m 50,20 h -4 v 24 h 4 z" /><path
           id="path52"
           style="fill:#a3834a;fill-opacity:1;fill-rule:nonzero;stroke:none"
           d="m 58,20 h -4 v 24 h 4 z" /><path
           id="path54"
           style="fill:#a3834a;fill-opacity:1;fill-rule:nonzero;stroke:none"
           d="m 66,20 h -4 v 24 h 4 z" /><path
           id="path56"
           style="fill:#a3834a;fill-opacity:1;fill-rule:nonzero;stroke:none"
           d="m 74,20 h -4 v 24 h 4 z" /><path
           id="path58"
           style="fill:#a3834a;fill-opacity:1;fill-rule:nonzero;stroke:none"
           d="m 82,20 h -4 v 24 h 4 z" /><path
           id="path60"
           style="fill:#a3834a;fill-opacity:1;fill-rule:nonzero;stroke:none"
           d="m 90,20 h -4 v 24 h 4 z" /><path
           id="path62"
           style="fill:#a3834a;fill-opacity:1;fill-rule:nonzero;stroke:none"
           d="m 98,20 h -4 v 24 h 4 z" /><path
           id="path64"
           style="fill:#a3834a;fill-opacity:1;fill-rule:nonzero;stroke:none"
           d="m 106,20 h -4 v 24 h 4 z" /><path
           id="path66"
           style="fill:#a3834a;fill-opacity:1;fill-rule:nonzero;stroke:none"
           d="m 114,20 h -4 v 24 h 4 z" /><path
           id="path68"
           style="fill:#a3834a;fill-opacity:1;fill-rule:nonzero;stroke:none"
           d="m 122,20 h -4 v 24 h 4 z" /><path
           id="path70"
           style="fill:#a3834a;fill-opacity:1;fill-rule:nonzero;stroke:none"
           d="m 130,20 h -4 v 24 h 4 z" /><path
           id="path72"
           style="fill:#a3834a;fill-opacity:1;fill-rule:nonzero;stroke:none"
           d="m 138,20 h -4 v 24 h 4 z" /><path
           id="path74"
           style="fill:#a3834a;fill-opacity:1;fill-rule:nonzero;stroke:none"
           d="m 146,20 h -4 v 24 h 4 z" /><path
           id="path76"
           style="fill:#a3834a;fill-opacity:1;fill-rule:nonzero;stroke:none"
           d="m 154,20 h -4 v 24 h 4 z" /><path
           id="path78"
           style="fill:#a3834a;fill-opacity:1;fill-rule:nonzero;stroke:none"
           d="m 162,20 h -4 v 24 h 4 z" /><path
           id="path80"
           style="fill:#a3834a;fill-opacity:1;fill-rule:nonzero;stroke:none"
           d="m 170,20 h -4 v 24 h 4 z" /><path
           id="path82"
           style="fill:#a3834a;fill-opacity:1;fill-rule:nonzero;stroke:none"
           d="m 178,20 h -4 v 24 h 4 z" /><path
           id="path84"
           style="fill:#a3834a;fill-opacity:1;fill-rule:nonzero;stroke:none"
           d="m 186,20 h -4 v 24 h 4 z" /><path
           id="path86"
           style="fill:#a3834a;fill-opacity:1;fill-rule:nonzero;stroke:none"
           d="m 194,20 h -4 v 24 h 4 z" /><path
           id="path88"
           style="fill:#a3834a;fill-opacity:1;fill-rule:nonzero;stroke:none"
           d="m 202,20 h -4 v 24 h 4 z" /><path
           id="path90"
           style="fill:#a3834a;fill-opacity:1;fill-rule:nonzero;stroke:none"
           d="m 210,20 h -4 v 24 h 4 z" /><path
           id="path92"
           style="fill:#a3834a;fill-opacity:1;fill-rule:nonzero;stroke:none"
           d="m 218,20 h -4 v 24 h 4 z" /><path
           id="path94"
           style="fill:#a3834a;fill-opacity:1;fill-rule:nonzero;stroke:none"
           d="m 226,20 h -4 v 24 h 4 z" /><path
           id="path96"
           style="fill:#a3834a;fill-opacity:1;fill-rule:nonzero;stroke:none"
           d="m 234,16 h -4 v 28 h 4 z" /><g
           transform="translate(22.4,196)"
           id="g98"><path
             id="path100"
             style="fill:#252525;fill-opacity:1;fill-rule:nonzero;stroke:none"
             d="m 0,0 h 211.2 c 2.43,0 4.4,-2.008 4.4,-4.485 v -139.03 c 0,-2.477 -1.97,-4.485 -4.4,-4.485 L 0,-148 c -2.43,0 -4.4,2.008 -4.4,4.485 V -4.485 C -4.4,-2.008 -2.43,0 0,0" /></g><path
           id="path102"
           style="fill:#191919;fill-opacity:1;fill-rule:nonzero;stroke:none"
           d="M 234,152 H 22 v 40 h 212 z" /><path
           id="path104"
           style="fill:#e8c41e;fill-opacity:1;fill-rule:nonzero;stroke:none"
           d="M 234,52 H 22 v 100 h 212 z" /><g
           transform="translate(93.6716,156)"
           id="g106"><path
             id="path108"
             style="fill:#e8c41e;fill-opacity:1;fill-rule:nonzero;stroke:none"
             d="m 0,0 c -0.095,2.962 -0.123,5.924 0.008,8.885 0.128,2.857 0.359,5.702 0.969,8.499 0.619,2.841 1.847,5.367 3.522,7.656 1.484,2.029 3.242,3.732 5.345,5.012 1.939,1.18 4.012,1.888 6.261,1.947 0.101,0.002 0.202,0 0.325,0 0.006,-0.093 0.015,-0.173 0.015,-0.253 0.001,-1.381 -0.002,-2.762 0.004,-4.142 10e-4,-0.195 -0.037,-0.271 -0.24,-0.286 C 15.503,27.266 14.845,27.006 14.207,26.704 11.716,25.526 9.581,23.813 7.698,21.735 6.498,20.411 5.423,18.986 4.693,17.299 4.067,15.85 3.659,14.327 3.347,12.773 2.923,10.652 2.645,8.508 2.548,6.344 2.452,4.231 2.42,2.115 2.36,0 Z" /></g><g
           transform="translate(92.7512,156)"
           id="g110"><path
             id="path112"
             style="fill:#e8c41e;fill-opacity:1;fill-rule:nonzero;stroke:none"
             d="m 0,0 c 0.095,2.962 0.123,5.924 -0.008,8.885 -0.128,2.857 -0.359,5.702 -0.969,8.499 -0.619,2.841 -1.847,5.367 -3.522,7.656 -1.484,2.029 -3.242,3.732 -5.345,5.012 -1.939,1.18 -4.012,1.888 -6.261,1.947 -0.101,0.002 -0.202,0 -0.325,0 -0.006,-0.093 -0.015,-0.173 -0.015,-0.253 -0.001,-1.381 0.002,-2.762 -0.004,-4.142 -10e-4,-0.195 0.037,-0.271 0.24,-0.286 0.706,-0.052 1.364,-0.312 2.002,-0.614 2.491,-1.178 4.626,-2.891 6.509,-4.969 1.2,-1.324 2.275,-2.749 3.005,-4.436 0.626,-1.449 1.034,-2.972 1.346,-4.526 0.424,-2.121 0.702,-4.265 0.799,-6.429 C -2.452,4.231 -2.42,2.115 -2.36,0 Z" /></g><g
           transform="translate(157.59,187.4248)"
           id="g114"><path
             id="path116"
             style="fill:#e8c41e;fill-opacity:1;fill-rule:nonzero;stroke:none"
             d="M 0,0 V -20.216 L -28.418,0 h -16.191 v -30.237 h 16.191 v 20.041 C -28.418,-10.899 0,-30.237 0,-30.237 H 7.931 V 0 Z" /></g><g
           transform="translate(167.6202,157.8181)"
           id="g118"><path
             id="path120"
             style="fill:#e8c41e;fill-opacity:1;fill-rule:nonzero;stroke:none"
             d="m 0,0 21.405,9.76 -13.76,7.483 h 15.289 c 0,0 -24.463,13.34 -22.934,12.364 1.529,-0.976 22.934,0 22.934,0 0,0 8.562,-7.158 10.396,-6.182 1.835,0.976 8.562,6.182 8.562,6.182 H 62.38 L 40.363,19.846 52.901,13.339 36.388,13.014 60.239,0 C 60.239,0 38.223,-1.302 37,0 35.777,1.301 27.521,6.181 27.521,6.181 L 19.57,0 Z" /></g><g
           transform="translate(51.3946,163.8186)"
           id="g122"><path
             id="path124"
             style="fill:#e8c41e;fill-opacity:1;fill-rule:nonzero;stroke:none"
             d="M 0,0 V 23.742 H -16.131 V -6.579 H -1.344 0 26.078 V 0 Z" /></g><g
           transform="translate(32.1539,160.5378)"
           id="g126"><path
             id="path128"
             style="fill:#e8c41e;fill-opacity:1;fill-rule:nonzero;stroke:none"
             d="m 0,0 v -2.538 c 0,-0.175 -0.062,-0.329 -0.185,-0.46 -0.123,-0.131 -0.267,-0.197 -0.433,-0.197 h -5.536 v 0.984 h 5.23 V 0 Z" /></g><path
           id="path130"
           style="fill:#e8c41e;fill-opacity:1;fill-rule:nonzero;stroke:none"
           d="M 32.154,161.152 H 26 v 0.983 h 6.154 z" /><g
           transform="translate(30.4633,165.9823)"
           id="g132"><path
             id="path134"
             style="fill:#e8c41e;fill-opacity:1;fill-rule:nonzero;stroke:none"
             d="M 0,0 C -0.201,0 -0.38,-0.083 -0.536,-0.249 -0.693,-0.416 -0.771,-0.606 -0.771,-0.82 v -1.228 h 1.537 v 1.228 c 0,0.214 -0.078,0.404 -0.234,0.571 C 0.376,-0.083 0.198,0 0,0 m -2.773,-0.413 c -0.198,0 -0.375,-0.083 -0.532,-0.249 -0.159,-0.169 -0.239,-0.358 -0.239,-0.566 v -0.82 h 1.849 c -0.159,1.09 -0.519,1.635 -1.078,1.635 M 0,0.983 c 0.445,0 0.839,-0.182 1.181,-0.546 0.34,-0.362 0.51,-0.781 0.51,-1.257 V -2.374 C 1.691,-2.55 1.629,-2.704 1.506,-2.835 1.383,-2.966 1.238,-3.032 1.073,-3.032 H -3.85 c -0.162,0 -0.305,0.066 -0.428,0.197 -0.124,0.131 -0.185,0.285 -0.185,0.461 v 1.146 c 0,0.46 0.161,0.876 0.482,1.247 0.319,0.368 0.696,0.552 1.132,0.552 0.55,0 0.986,-0.243 1.307,-0.729 0.12,0.329 0.325,0.603 0.613,0.82 0.283,0.214 0.592,0.321 0.929,0.321" /></g><g
           transform="translate(32.1539,171.5083)"
           id="g136"><path
             id="path138"
             style="fill:#e8c41e;fill-opacity:1;fill-rule:nonzero;stroke:none"
             d="m 0,0 v -1.146 l -1.993,-1.353 c -0.282,-0.192 -0.497,-0.288 -0.644,-0.288 -0.28,0 -0.489,0.093 -0.627,0.278 -0.009,0.013 -0.122,0.229 -0.338,0.648 -0.25,0.476 -0.537,0.715 -0.861,0.715 -0.196,0 -0.373,-0.085 -0.532,-0.255 -0.16,-0.169 -0.239,-0.358 -0.239,-0.566 V -2.95 H 0 v -0.983 h -5.541 c -0.162,0 -0.305,0.065 -0.428,0.196 -0.123,0.131 -0.185,0.285 -0.185,0.461 v 1.309 c 0,0.461 0.161,0.877 0.482,1.247 0.319,0.368 0.696,0.552 1.132,0.552 0.433,0 0.824,-0.155 1.172,-0.465 0.349,-0.314 0.586,-0.693 0.713,-1.137 z" /></g><g
           transform="translate(32.1539,175.3123)"
           id="g140"><path
             id="path142"
             style="fill:#e8c41e;fill-opacity:1;fill-rule:nonzero;stroke:none"
             d="m 0,0 v -2.538 c 0,-0.175 -0.062,-0.329 -0.185,-0.46 -0.123,-0.131 -0.267,-0.197 -0.433,-0.197 h -4.923 c -0.162,0 -0.305,0.066 -0.428,0.197 -0.123,0.131 -0.185,0.285 -0.185,0.46 V 0 h 0.92 v -2.211 h 1.695 v 1.391 h 0.924 v -1.391 h 1.691 V 0 Z" /></g><g
           transform="translate(26.9197,179.404)"
           id="g144"><path
             id="path146"
             style="fill:#e8c41e;fill-opacity:1;fill-rule:nonzero;stroke:none"
             d="M 0,0 V -1.31 H 5.234 V -2.293 H 0 V -3.602 H -0.92 V 0 Z" /></g><g
           transform="translate(32.1539,183.8268)"
           id="g148"><path
             id="path150"
             style="fill:#e8c41e;fill-opacity:1;fill-rule:nonzero;stroke:none"
             d="m 0,0 v -1.146 l -1.993,-1.353 c -0.282,-0.192 -0.497,-0.288 -0.644,-0.288 -0.28,0 -0.489,0.093 -0.627,0.278 -0.009,0.013 -0.122,0.229 -0.338,0.648 -0.25,0.476 -0.537,0.715 -0.861,0.715 -0.196,0 -0.373,-0.085 -0.532,-0.255 -0.16,-0.169 -0.239,-0.358 -0.239,-0.566 V -2.95 H 0 v -0.983 h -5.541 c -0.162,0 -0.305,0.065 -0.428,0.196 -0.123,0.131 -0.185,0.285 -0.185,0.461 v 1.309 c 0,0.461 0.161,0.877 0.482,1.247 0.319,0.368 0.696,0.552 1.132,0.552 0.433,0 0.824,-0.155 1.172,-0.465 0.349,-0.314 0.586,-0.693 0.713,-1.137 z" /></g><g
           transform="translate(30.4633,186.8536)"
           id="g152"><path
             id="path154"
             style="fill:#e8c41e;fill-opacity:1;fill-rule:nonzero;stroke:none"
             d="m 0,0 h -2.773 c -0.198,0 -0.375,-0.083 -0.532,-0.249 -0.159,-0.17 -0.239,-0.36 -0.239,-0.571 0,-0.211 0.08,-0.402 0.239,-0.571 0.157,-0.166 0.334,-0.25 0.532,-0.25 H 0 c 0.198,0 0.376,0.084 0.532,0.25 0.156,0.166 0.234,0.356 0.234,0.571 0,0.214 -0.078,0.404 -0.234,0.571 C 0.376,-0.083 0.198,0 0,0 m 0,0.983 c 0.445,0 0.839,-0.182 1.181,-0.546 0.34,-0.362 0.51,-0.781 0.51,-1.257 0,-0.47 -0.17,-0.889 -0.51,-1.257 C 0.836,-2.438 0.442,-2.619 0,-2.619 h -2.773 c -0.444,0 -0.837,0.181 -1.176,0.542 -0.343,0.365 -0.514,0.783 -0.514,1.257 0,0.476 0.171,0.895 0.514,1.257 0.339,0.364 0.732,0.546 1.176,0.546 z" /></g><g
           transform="translate(197.9583,62.8673)"
           id="g156"><path
             id="path158"
             style="fill:#191919;fill-opacity:1;fill-rule:nonzero;stroke:none"
             d="m 0,0 c -0.234,-0.132 -0.518,-0.146 -0.78,-0.102 0.179,-0.417 0.252,-0.864 0.366,-1.299 0.13,-0.427 0.288,-0.945 0.765,-1.123 0.314,-0.138 0.673,-0.004 0.908,0.213 0.368,0.339 0.594,0.787 0.813,1.222 0.074,0.154 0.147,0.308 0.223,0.462 C 1.958,-0.629 1.629,-0.529 1.34,-0.368 1.058,-0.202 0.993,0.199 0.644,0.278 0.396,0.282 0.208,0.103 0,0 M 18.157,3.024 C 17.239,2.831 16.306,2.543 15.355,2.687 15.438,2.087 15.342,1.474 15.115,0.91 14.996,0.844 15.214,0.757 15.243,0.86 l 0.074,-0.04 c 0.078,-0.211 0.323,-0.289 0.536,-0.311 0.546,-0.05 1.093,0.064 1.612,0.219 -0.125,0.111 -0.292,0.217 -0.317,0.393 0.018,0.075 0.056,0.142 0.091,0.211 0.376,-0.014 0.749,-0.073 1.122,-0.114 0.51,0.363 0.83,0.983 0.782,1.594 C 19.137,2.975 19.021,3.141 18.842,3.163 18.607,3.196 18.37,3.111 18.157,3.024 M 21.055,4.001 21.043,3.979 C 20.563,3.84 20.104,3.645 19.628,3.493 19.737,2.828 19.596,2.128 19.258,1.539 19.11,1.45 19.417,1.401 19.355,1.538 c 0.034,10e-4 0.101,0.003 0.135,0.004 0.008,-0.121 0.158,-0.151 0.261,-0.144 0.408,0.032 0.793,0.191 1.148,0.378 -0.116,0.091 -0.253,0.169 -0.327,0.298 -0.05,0.09 0.014,0.185 0.037,0.272 0.292,-0.008 0.582,-0.037 0.87,-0.082 0.298,0.336 0.52,0.782 0.432,1.231 -0.049,0.219 -0.128,0.465 -0.34,0.587 -0.172,0.09 -0.354,-0.025 -0.516,-0.081 m 2.667,1.108 C 23.252,4.906 22.786,4.698 22.315,4.498 22.498,3.774 22.341,3.005 21.952,2.367 c 0.099,0.057 0.237,0.079 0.314,0.164 0.159,-0.099 0.356,-0.087 0.533,-0.042 0.346,0.09 0.676,0.237 0.975,0.427 -0.172,0.12 -0.392,0.319 -0.201,0.524 0.217,-0.024 0.436,-0.042 0.653,-0.073 0.271,0.35 0.538,0.787 0.43,1.238 C 24.529,4.89 24.285,5.139 23.966,5.226 23.884,5.187 23.804,5.147 23.722,5.109 M 8.889,6.084 C 8.476,6.025 8.059,5.924 7.692,5.727 7.264,5.434 6.94,4.953 6.962,4.436 6.982,3.937 7.274,3.492 7.61,3.125 8.229,2.478 9.046,1.966 9.962,1.815 c 0.691,-0.101 1.431,-0.084 2.066,0.222 0.588,0.27 1.134,0.73 1.294,1.356 0.149,0.553 0.102,1.228 -0.361,1.638 C 12.405,5.525 11.686,5.838 10.945,5.98 10.272,6.118 9.574,6.176 8.889,6.084 m 17.25,0.267 C 25.74,6.122 25.334,5.905 24.924,5.695 25.115,4.992 24.977,4.241 24.678,3.584 c 0.122,0.08 0.24,0.166 0.35,0.26 0.195,-0.196 0.477,-0.029 0.675,0.079 0.904,0.534 1.135,1.733 0.809,2.643 C 26.389,6.492 26.264,6.421 26.139,6.351 M -7.142,7.214 C -7.622,6.949 -8.046,6.527 -8.156,5.992 -8.283,5.355 -8.02,4.671 -7.531,4.229 -7.22,3.939 -6.806,3.768 -6.382,3.693 l 0.003,-0.011 c 0.257,-0.016 0.525,-0.095 0.779,-0.03 0.888,0.025 1.759,0.342 2.468,0.847 0.53,0.387 0.993,0.954 0.997,1.618 0.02,0.328 -0.185,0.615 -0.403,0.849 -0.473,0.47 -1.157,0.682 -1.819,0.757 -0.951,0.094 -1.95,-0.048 -2.785,-0.509 M 27.971,7.59 C 27.775,7.436 27.582,7.281 27.375,7.141 c 0.272,-0.455 0.164,-1.002 0.086,-1.493 0.078,0.089 0.156,0.178 0.234,0.266 0.007,-0.047 0.02,-0.142 0.027,-0.19 0.139,0.046 0.276,0.123 0.333,0.259 0.166,0.35 0.249,0.737 0.24,1.121 C 28.302,7.342 28.211,7.572 28.236,7.81 28.147,7.737 28.058,7.665 27.971,7.59 M 0.715,9.4 C 0.735,9.197 0.741,8.993 0.741,8.788 0.709,8.625 0.621,8.484 0.499,8.369 0.472,8.501 0.432,8.63 0.382,8.756 0.304,8.948 0.232,9.142 0.157,9.336 -1.375,9.145 -2.877,8.729 -4.274,8.1 -4.297,8.128 -4.343,8.186 -4.366,8.215 -4.472,8.157 -4.578,8.099 -4.684,8.042 c 0.415,-0.009 0.827,-0.067 1.228,-0.165 0.337,-0.095 0.666,-0.22 0.963,-0.4 l 0.009,0.005 C -2.316,7.361 -2.156,7.232 -2.011,7.087 -1.632,6.66 -1.571,6.041 -1.795,5.532 -2.203,4.576 -3.046,3.796 -4.061,3.438 -4.463,3.304 -4.883,3.223 -5.309,3.205 -5.788,3.188 -6.269,3.253 -6.725,3.395 -7.055,3.509 -7.363,3.674 -7.641,3.879 -7.599,3.43 -7.468,2.991 -7.258,2.587 -7.449,2.501 -7.702,2.292 -7.533,2.078 -7.307,1.85 -6.96,1.791 -6.649,1.733 -5.823,0.76 -4.715,0.044 -3.554,-0.519 -2.6,-0.98 -1.597,-1.345 -0.56,-1.596 c -0.089,0.263 -0.153,0.534 -0.21,0.805 -0.05,0.242 -0.077,0.49 -0.147,0.728 -0.23,0.173 -0.407,0.402 -0.46,0.682 -0.009,0.189 0.017,0.381 0.122,0.544 -0.024,-0.206 -0.047,-0.416 0.009,-0.62 0.131,-0.28 0.412,-0.49 0.733,-0.524 0.188,-0.02 0.36,0.069 0.522,0.145 0.2,0.109 0.405,0.234 0.642,0.248 0.261,-0.014 0.377,-0.27 0.509,-0.448 l 0.006,-0.001 c 0.26,-0.281 0.654,-0.487 1.057,-0.432 0.209,0.025 0.383,0.15 0.532,0.285 0.13,0.155 0.236,0.327 0.315,0.511 C 3.081,0.328 3.101,0.332 3.112,0.333 3.103,-0.072 2.803,-0.415 2.431,-0.583 2.396,-0.757 2.336,-0.925 2.282,-1.094 2.135,-1.371 1.982,-1.645 1.792,-1.898 1.707,-1.957 1.824,-1.97 1.863,-1.975 2.492,-2.03 3.124,-2.056 3.756,-2.073 c 1.582,-0.046 3.179,-0.024 4.74,0.265 1.088,0.203 2.158,0.514 3.167,0.954 0.79,0.357 1.556,0.816 2.115,1.469 0.501,0.607 0.726,1.439 0.505,2.193 -0.18,0.575 -0.462,1.117 -0.79,1.627 C 13.592,4.078 13.684,3.707 13.626,3.336 13.606,3.103 13.503,2.889 13.418,2.675 L 13.419,2.63 13.39,2.629 C 13.12,2.21 12.716,1.88 12.25,1.672 10.673,0.975 8.652,1.363 7.482,2.592 6.979,3.132 6.513,3.795 6.523,4.546 6.536,5.152 6.986,5.66 7.521,5.942 8.418,6.421 9.483,6.538 10.494,6.452 10.937,6.395 11.381,6.309 11.787,6.125 11.927,6.061 12.07,6.004 12.218,5.958 11.819,6.39 11.352,6.758 10.879,7.113 10.75,7.207 10.611,7.288 10.471,7.365 8.494,8.456 6.274,9.128 4.008,9.372 3.939,9.193 3.87,9.013 3.801,8.834 3.734,8.659 3.671,8.482 3.613,8.303 3.454,8.449 3.403,8.654 3.379,8.855 3.388,9.046 3.403,9.235 3.423,9.425 2.521,9.489 1.615,9.478 0.715,9.4 m -2.768,1.015 c -0.11,-0.225 0.284,-0.142 0.417,-0.131 0.455,0.015 0.904,0.085 1.357,0.128 -0.031,0.062 -0.065,0.122 -0.1,0.182 -0.024,0.069 -0.049,0.137 -0.074,0.206 -0.014,0.028 -0.043,0.086 -0.057,0.114 -0.52,-0.146 -1.053,-0.274 -1.543,-0.499 m 0.62,0.472 c 0.271,0.089 0.541,0.184 0.812,0.273 -0.029,0.064 -0.058,0.128 -0.087,0.192 -0.245,-0.15 -0.494,-0.295 -0.725,-0.465 m 6.29,0.565 C 4.845,11.413 4.821,11.336 4.808,11.298 L 4.797,11.299 C 4.772,11.245 4.748,11.191 4.724,11.136 4.696,11.07 4.67,11.003 4.643,10.937 4.622,10.889 4.601,10.842 4.581,10.793 4.544,10.703 4.507,10.612 4.469,10.521 6.415,10.36 8.355,9.938 10.115,9.115 12.313,8.111 14.166,6.478 15.473,4.522 15.55,4.417 15.695,4.205 15.837,4.348 c 0.182,0.37 0.117,0.8 0.079,1.194 -0.101,0.846 -0.688,1.539 -1.291,2.125 -0.934,0.87 -2.043,1.55 -3.205,2.109 -2.043,0.964 -4.287,1.542 -6.563,1.676 M 0.197,11.101 C 0.204,11.07 0.219,11.009 0.226,10.978 l 0.014,0.003 c 0.031,-0.085 0.063,-0.17 0.095,-0.255 0.028,-0.083 0.056,-0.167 0.084,-0.25 1.09,0.093 2.186,0.128 3.28,0.084 0.037,0.115 0.074,0.23 0.111,0.346 0.039,0.116 0.079,0.232 0.12,0.348 l 0.007,-10e-4 c 0.028,0.081 0.055,0.16 0.083,0.24 -1.285,0 -2.569,-0.122 -3.823,-0.392 m -0.284,0.636 c 0.026,-0.057 0.052,-0.114 0.078,-0.171 0.029,-0.069 0.059,-0.138 0.089,-0.207 1.339,0.353 2.724,0.549 4.114,0.57 0.061,0.139 0.12,0.279 0.18,0.419 0.084,0.189 0.17,0.378 0.255,0.567 0.14,0.298 0.295,0.591 0.433,0.891 0.143,0.225 0.245,0.473 0.383,0.702 C 3.519,13.744 1.675,12.8 -0.087,11.737 m 16.131,3.208 C 14.561,14.65 13.104,14.197 11.76,13.524 11.108,13.184 10.457,12.803 9.975,12.253 9.779,12.025 9.612,11.731 9.682,11.427 c 0.078,-0.283 0.349,-0.47 0.621,-0.573 1.292,-0.485 2.52,-1.131 3.627,-1.933 0.83,-0.61 1.609,-1.305 2.195,-2.14 0.323,-0.476 0.624,-1.013 0.605,-1.596 0,-0.237 -0.136,-0.439 -0.237,-0.645 0.473,0.079 0.92,0.253 1.37,0.406 1.69,0.605 3.35,1.282 4.994,1.991 1.151,0.506 2.303,1.016 3.395,1.632 0.265,0.145 0.525,0.322 0.676,0.582 0.249,0.396 0.248,0.886 0.154,1.326 -0.214,0.875 -0.771,1.631 -1.398,2.283 -0.765,0.782 -1.678,1.428 -2.659,1.941 -0.609,0.234 -1.259,0.359 -1.906,0.454 -1.687,0.232 -3.409,0.112 -5.075,-0.21 M 7.007,15.084 C 6.867,15.032 6.713,15.004 6.589,14.921 6.473,14.747 6.382,14.559 6.283,14.375 6.012,13.891 5.77,13.394 5.525,12.897 5.447,12.734 5.369,12.57 5.295,12.405 H 5.285 C 5.216,12.242 5.144,12.079 5.07,11.917 c 0.47,-0.024 0.945,-0.068 1.413,0.003 0.358,0.047 0.702,0.16 1.035,0.29 2.46,0.999 4.927,1.999 7.484,2.75 1.592,0.467 3.225,0.833 4.89,0.956 -0.154,0.042 -0.307,0.094 -0.466,0.114 -0.732,0.187 -1.482,0.301 -2.234,0.381 -3.445,0.344 -6.936,-0.229 -10.185,-1.327 m -19.982,3.398 c -0.317,-0.162 -0.566,-0.442 -0.672,-0.772 -0.085,-0.219 -0.1,-0.46 -0.052,-0.689 0.026,-0.105 0.058,-0.21 0.113,-0.305 0.252,-0.593 0.995,-0.918 1.637,-0.777 0.583,0.105 1.069,0.585 1.144,1.149 0.069,0.436 -0.102,0.898 -0.446,1.194 -0.451,0.41 -1.182,0.487 -1.724,0.2 m 29.669,1.357 c -0.301,-0.725 -0.129,-1.645 0.516,-2.152 0.347,-0.278 0.834,-0.396 1.275,-0.286 0.54,0.127 0.975,0.55 1.153,1.046 0.049,0.118 0.084,0.241 0.101,0.366 0.056,0.288 0.045,0.591 -0.05,0.869 -0.149,0.662 -0.792,1.226 -1.519,1.208 -0.668,0.005 -1.249,-0.474 -1.476,-1.051 M 10.46,19.811 C 8.978,18.596 7.847,17.042 6.883,15.433 c 3.369,1.1 6.955,1.66 10.517,1.44 -0.669,0.274 -1.233,0.796 -1.487,1.453 -0.187,0.478 -0.169,1.033 0.091,1.483 0.288,0.508 0.794,0.869 1.331,1.113 0.041,0.011 0.156,0.079 0.053,0.099 -0.908,0.35 -1.891,0.542 -2.872,0.486 -1.513,-0.076 -2.921,-0.768 -4.056,-1.696 m 4.947,2.688 h 1.038 c 1.009,-0.071 2.093,-0.267 2.857,-0.951 0.58,-0.504 0.806,-1.284 0.757,-2.014 -0.05,-0.761 -0.198,-1.56 -0.689,-2.182 -0.216,-0.284 -0.543,-0.464 -0.885,-0.576 2.167,-0.229 4.314,-0.767 6.263,-1.71 1.054,-0.513 2.049,-1.153 2.878,-1.961 0.695,-0.691 1.284,-1.522 1.489,-2.473 C 29.238,10.093 29.202,9.526 29.024,9.001 29.385,8.158 29.308,7.2 29.015,6.349 28.755,5.586 28.259,4.878 27.547,4.436 27.345,4.307 27.094,4.318 26.864,4.343 26.528,3.864 26.122,3.43 25.655,3.065 26.62,2.783 27.553,2.368 28.354,1.776 c 0.621,-0.461 1.161,-1.051 1.449,-1.758 0.134,-0.325 0.198,-0.671 0.239,-1.017 v -0.412 c -0.03,-0.202 -0.07,-0.417 -0.21,-0.58 -0.16,-0.187 -0.49,-0.23 -0.681,-0.063 -0.09,0.088 -0.06,0.222 -0.064,0.332 0.049,0.424 -0.152,0.818 -0.279,1.211 C 28.536,0.263 28.05,0.982 27.34,1.45 26.655,1.954 25.789,2.115 25,2.411 24.693,2.548 24.342,2.511 24.031,2.636 23.769,2.351 23.472,2.097 23.147,1.877 c 1.065,-0.353 2.097,-0.841 2.941,-1.564 0.733,-0.617 1.3,-1.452 1.432,-2.39 0.053,-0.432 0.108,-0.912 -0.124,-1.308 -0.156,-0.27 -0.637,-0.353 -0.824,-0.077 -0.087,0.247 0.029,0.515 -0.053,0.765 -0.212,0.692 -0.442,1.396 -0.878,1.995 -0.403,0.561 -0.977,0.996 -1.607,1.306 -0.475,0.209 -0.978,0.35 -1.47,0.518 -0.28,0.089 -0.557,0.23 -0.861,0.196 -0.191,-0.017 -0.369,0.055 -0.539,0.127 -0.298,-0.257 -0.636,-0.465 -0.981,-0.66 0.21,-0.109 0.445,-0.166 0.664,-0.256 0.984,-0.392 1.93,-0.901 2.713,-1.597 0.729,-0.639 1.311,-1.467 1.508,-2.404 0.103,-0.516 0.173,-1.067 -0.007,-1.576 -0.074,-0.223 -0.267,-0.399 -0.507,-0.453 h -0.212 c -0.133,0.041 -0.294,0.093 -0.329,0.239 -0.065,0.27 0.052,0.553 -0.037,0.821 -0.263,0.86 -0.554,1.739 -1.135,2.457 -0.472,0.587 -1.111,1.042 -1.804,1.366 -0.963,0.38 -1.973,0.638 -2.93,1.034 -0.831,-0.494 -1.84,-0.553 -2.793,-0.545 -0.252,-0.007 -0.501,0.044 -0.736,0.127 -0.667,-0.757 -1.554,-1.314 -2.486,-1.733 -0.878,-0.381 -1.8,-0.669 -2.736,-0.887 C 7.881,-2.956 6.361,-3.057 4.85,-3.061 3.305,-3.03 1.752,-2.999 0.228,-2.737 c -1.833,0.297 -3.59,0.959 -5.192,1.853 -0.127,-0.4 -0.221,-0.811 -0.311,-1.221 -0.063,-0.276 0.02,-0.56 -0.033,-0.836 -0.041,-0.228 -0.36,-0.307 -0.533,-0.162 -0.234,0.193 -0.268,0.513 -0.3,0.787 -0.043,0.68 0.061,1.366 0.27,2.015 C -6.32,0.024 -6.75,0.378 -7.125,0.781 -7.518,0.415 -7.837,-0.023 -8.061,-0.502 -8.37,-1.164 -8.539,-1.874 -8.698,-2.58 c -0.066,-0.29 0.02,-0.588 -0.041,-0.878 -0.054,-0.24 -0.416,-0.281 -0.572,-0.108 -0.213,0.23 -0.241,0.557 -0.263,0.849 -0.026,0.889 0.15,1.792 0.574,2.588 0.316,0.605 0.764,1.142 1.281,1.602 -0.656,0.825 -1.001,1.866 -0.936,2.901 0.015,0.335 0.093,0.663 0.162,0.99 0.202,0.45 0.323,0.931 0.572,1.364 0.223,0.264 0.383,0.601 0.703,0.773 0.367,0.111 0.586,0.441 0.888,0.649 0.366,0.247 0.725,0.504 1.115,0.716 0.24,0.136 0.5,0.243 0.718,0.411 1.152,0.887 2.348,1.722 3.591,2.488 -0.521,1.061 -1.099,2.1 -1.785,3.074 -0.74,1.047 -1.601,2.035 -2.658,2.806 -0.956,0.705 -2.096,1.206 -3.303,1.34 -0.97,0.117 -1.959,-0.008 -2.889,-0.282 0.487,-0.214 0.983,-0.49 1.265,-0.943 0.25,-0.392 0.214,-0.911 -0.038,-1.295 -0.362,-0.563 -1.015,-0.934 -1.695,-1.02 -0.5,-0.067 -1.041,0.085 -1.381,0.451 -0.378,0.397 -0.51,0.942 -0.568,1.462 v 0.604 c 0.077,0.487 0.338,0.954 0.767,1.238 0.743,0.51 1.693,0.611 2.582,0.64 1.098,0.002 2.2,-0.135 3.251,-0.44 1.468,-0.458 2.69,-1.425 3.736,-2.482 1.37,-1.409 2.466,-3.045 3.34,-4.771 1.912,1.132 3.923,2.117 6.025,2.886 1.2,2.019 2.609,3.967 4.455,5.499 0.765,0.624 1.614,1.175 2.566,1.501 0.85,0.282 1.749,0.402 2.643,0.466" /></g><g
           transform="translate(226.1944,70.6771)"
           id="g160"><path
             id="path162"
             style="fill:#74b743;fill-opacity:1;fill-rule:nonzero;stroke:none"
             d="m 0,0 c -0.089,-0.073 -0.178,-0.145 -0.265,-0.22 -0.196,-0.154 -0.389,-0.309 -0.596,-0.449 0.272,-0.455 0.164,-1.002 0.086,-1.493 0.078,0.089 0.155,0.178 0.234,0.266 0.007,-0.047 0.02,-0.142 0.027,-0.189 0.139,0.045 0.276,0.122 0.333,0.259 0.166,0.349 0.249,0.736 0.24,1.12 C 0.066,-0.468 -0.026,-0.238 0,0" /></g><g
           transform="translate(224.0972,69.2178)"
           id="g164"><path
             id="path166"
             style="fill:#74b743;fill-opacity:1;fill-rule:nonzero;stroke:none"
             d="m 0,0 c -0.399,-0.229 -0.805,-0.446 -1.215,-0.656 0.191,-0.702 0.053,-1.453 -0.246,-2.11 0.122,0.079 0.24,0.166 0.35,0.26 0.195,-0.196 0.477,-0.03 0.675,0.078 0.904,0.534 1.135,1.733 0.809,2.644 C 0.25,0.142 0.125,0.07 0,0" /></g><g
           transform="translate(222.1844,66.2342)"
           id="g168"><path
             id="path170"
             style="fill:#74b743;fill-opacity:1;fill-rule:nonzero;stroke:none"
             d="M 0,0 C 0.271,0.35 0.537,0.787 0.43,1.238 0.303,1.523 0.058,1.772 -0.26,1.859 -0.342,1.82 -0.422,1.78 -0.505,1.742 -0.974,1.539 -1.44,1.331 -1.911,1.131 -1.728,0.407 -1.885,-0.362 -2.274,-1 c 0.098,0.057 0.237,0.079 0.314,0.164 0.159,-0.099 0.356,-0.086 0.533,-0.042 0.346,0.09 0.676,0.237 0.975,0.427 -0.172,0.12 -0.392,0.319 -0.201,0.524 C -0.436,0.049 -0.217,0.031 0,0" /></g><g
           transform="translate(219.5292,66.9493)"
           id="g172"><path
             id="path174"
             style="fill:#74b743;fill-opacity:1;fill-rule:nonzero;stroke:none"
             d="m 0,0 c -0.172,0.09 -0.354,-0.026 -0.515,-0.081 l -0.013,-0.022 c -0.48,-0.139 -0.939,-0.334 -1.415,-0.486 0.109,-0.665 -0.032,-1.365 -0.37,-1.954 0.024,0 0.073,-10e-4 0.097,-10e-4 0.034,10e-4 0.101,0.003 0.135,0.004 0.008,-0.121 0.159,-0.151 0.261,-0.144 0.408,0.032 0.793,0.191 1.148,0.378 -0.115,0.091 -0.253,0.169 -0.327,0.298 -0.05,0.09 0.014,0.185 0.037,0.272 0.292,-0.008 0.582,-0.037 0.87,-0.082 0.298,0.336 0.52,0.782 0.432,1.231 C 0.291,-0.368 0.212,-0.123 0,0" /></g><g
           transform="translate(216.8004,66.0303)"
           id="g176"><path
             id="path178"
             style="fill:#74b743;fill-opacity:1;fill-rule:nonzero;stroke:none"
             d="m 0,0 c -0.236,0.033 -0.472,-0.052 -0.685,-0.139 -0.918,-0.193 -1.851,-0.481 -2.802,-0.337 0.083,-0.6 -0.013,-1.213 -0.24,-1.777 0.032,-0.013 0.096,-0.038 0.128,-0.05 l 0.074,-0.04 c 0.077,-0.211 0.323,-0.289 0.536,-0.311 0.546,-0.05 1.093,0.064 1.612,0.219 -0.126,0.111 -0.292,0.217 -0.317,0.393 0.018,0.074 0.056,0.142 0.09,0.211 0.377,-0.014 0.75,-0.073 1.123,-0.114 0.51,0.363 0.83,0.983 0.782,1.594 C 0.295,-0.188 0.179,-0.022 0,0" /></g><g
           transform="translate(191.4654,70.0491)"
           id="g180"><path
             id="path182"
             style="fill:#ffffff;fill-opacity:1;fill-rule:nonzero;stroke:none"
             d="M 0,0 C 0.8,0.357 1.754,0.294 2.549,-0.044 3.053,-0.257 3.535,-0.602 3.729,-1.112 3.394,-0.893 3.078,-0.645 2.713,-0.47 2.005,-0.107 1.151,0.046 0.374,-0.2 0.748,-0.218 1.125,-0.402 1.254,-0.755 1.292,-0.898 1.31,-1.044 1.316,-1.191 1.24,-1.514 0.993,-1.778 0.664,-1.884 c -0.253,-0.023 -0.53,-0.013 -0.741,0.141 -0.218,0.135 -0.327,0.374 -0.377,0.609 -0.001,0.242 0.097,0.467 0.225,0.67 C -0.66,-0.726 -0.999,-1.093 -1.293,-1.487 -1.089,-0.856 -0.634,-0.283 0,0" /></g><g
           transform="translate(207.2391,68.7403)"
           id="g184"><path
             id="path186"
             style="fill:#ffffff;fill-opacity:1;fill-rule:nonzero;stroke:none"
             d="m 0,0 c 0.955,0.174 1.954,-0.107 2.747,-0.622 0.481,-0.319 0.932,-0.763 1.029,-1.337 -0.585,0.637 -1.273,1.224 -2.122,1.509 -0.4,0.137 -0.826,0.191 -1.25,0.179 0.281,-0.213 0.451,-0.58 0.298,-0.912 C 0.674,-1.244 0.643,-1.303 0.61,-1.361 0.42,-1.588 0.109,-1.657 -0.183,-1.625 c -0.166,0.032 -0.302,0.139 -0.421,0.249 -0.215,0.246 -0.187,0.59 -0.069,0.871 -0.382,-0.163 -0.719,-0.399 -1.041,-0.65 C -1.351,-0.559 -0.711,-0.124 0,0" /></g><g
           transform="translate(215.1682,80.5543)"
           id="g188"><path
             id="path190"
             style="fill:#e8c41e;fill-opacity:1;fill-rule:nonzero;stroke:none"
             d="M 0,0 C 0.348,-0.278 0.834,-0.396 1.276,-0.286 1.815,-0.159 2.25,0.264 2.428,0.76 2.477,0.878 2.512,1.001 2.529,1.126 2.585,1.414 2.574,1.717 2.479,1.995 2.33,2.657 1.687,3.221 0.96,3.203 0.292,3.208 -0.288,2.729 -0.516,2.152 -0.817,1.427 -0.645,0.507 0,0" /></g><g
           transform="translate(186.7076,81.1492)"
           id="g192"><path
             id="path194"
             style="fill:#e8c41e;fill-opacity:1;fill-rule:nonzero;stroke:none"
             d="m 0,0 c -0.451,0.41 -1.182,0.487 -1.724,0.2 -0.318,-0.162 -0.566,-0.442 -0.673,-0.772 -0.084,-0.219 -0.099,-0.46 -0.051,-0.689 0.026,-0.105 0.058,-0.21 0.112,-0.305 0.252,-0.593 0.996,-0.918 1.638,-0.777 0.583,0.105 1.069,0.585 1.143,1.149 C 0.515,-0.758 0.344,-0.296 0,0" /></g><g
           transform="translate(203.2438,75.2727)"
           id="g196"><path
             id="path198"
             style="fill:#e8c41e;fill-opacity:1;fill-rule:nonzero;stroke:none"
             d="m 0,0 c -0.069,-0.164 -0.142,-0.326 -0.215,-0.488 0.47,-0.024 0.944,-0.068 1.412,0.002 0.359,0.047 0.703,0.161 1.036,0.291 2.46,0.998 4.926,1.998 7.484,2.749 1.592,0.467 3.225,0.834 4.889,0.956 C 14.452,3.552 14.3,3.605 14.141,3.625 13.409,3.811 12.658,3.926 11.906,4.005 8.461,4.349 4.971,3.777 1.722,2.679 1.582,2.626 1.428,2.598 1.304,2.516 1.187,2.342 1.097,2.153 0.997,1.97 0.727,1.486 0.484,0.988 0.24,0.491 0.161,0.328 0.083,0.165 0.01,0 Z" /></g><g
           transform="translate(225.0399,73.3446)"
           id="g200"><path
             id="path202"
             style="fill:#e8c41e;fill-opacity:1;fill-rule:nonzero;stroke:none"
             d="m 0,0 c -0.214,0.874 -0.77,1.631 -1.397,2.282 -0.766,0.782 -1.678,1.428 -2.659,1.942 -0.609,0.233 -1.259,0.359 -1.906,0.454 -1.687,0.231 -3.41,0.112 -5.075,-0.21 -1.484,-0.295 -2.941,-0.748 -4.285,-1.422 -0.652,-0.34 -1.303,-0.721 -1.784,-1.271 -0.196,-0.227 -0.363,-0.521 -0.293,-0.825 0.077,-0.284 0.349,-0.47 0.621,-0.573 1.292,-0.486 2.52,-1.132 3.626,-1.933 0.831,-0.61 1.609,-1.305 2.195,-2.14 0.323,-0.476 0.625,-1.013 0.605,-1.597 10e-4,-0.236 -0.136,-0.438 -0.237,-0.644 0.473,0.079 0.92,0.252 1.37,0.406 1.69,0.604 3.351,1.282 4.994,1.99 1.151,0.507 2.303,1.017 3.396,1.633 0.264,0.144 0.524,0.322 0.676,0.582 C 0.096,-0.93 0.094,-0.44 0,0" /></g><g
           transform="translate(198.038,74.2259)"
           id="g204"><path
             id="path206"
             style="fill:#e8c41e;fill-opacity:1;fill-rule:nonzero;stroke:none"
             d="M 0,0 C 1.339,0.353 2.725,0.549 4.115,0.57 4.175,0.71 4.234,0.849 4.294,0.989 4.379,1.179 4.465,1.367 4.549,1.556 4.69,1.855 4.844,2.148 4.982,2.447 5.125,2.672 5.228,2.921 5.365,3.15 3.44,2.385 1.595,1.442 -0.167,0.378 -0.141,0.321 -0.115,0.264 -0.089,0.207 -0.06,0.138 -0.03,0.069 0,0" /></g><g
           transform="translate(198.1987,73.8483)"
           id="g208"><path
             id="path210"
             style="fill:#e8c41e;fill-opacity:1;fill-rule:nonzero;stroke:none"
             d="m 0,0 c 0.031,-0.085 0.063,-0.17 0.095,-0.255 0.028,-0.083 0.056,-0.167 0.084,-0.25 1.09,0.093 2.186,0.128 3.28,0.084 0.037,0.115 0.074,0.23 0.11,0.346 0.039,0.116 0.08,0.232 0.12,0.348 L 3.697,0.272 c 0.027,0.081 0.055,0.16 0.083,0.24 -1.285,0 -2.57,-0.122 -3.824,-0.392 0.007,-0.031 0.023,-0.092 0.03,-0.123 z" /></g><g
           transform="translate(212.583,70.5341)"
           id="g212"><path
             id="path214"
             style="fill:#e8c41e;fill-opacity:1;fill-rule:nonzero;stroke:none"
             d="M 0,0 C -0.934,0.87 -2.043,1.55 -3.205,2.109 -5.248,3.073 -7.492,3.651 -9.768,3.785 -9.78,3.746 -9.804,3.669 -9.816,3.631 L -9.827,3.632 C -9.852,3.578 -9.877,3.524 -9.901,3.469 -9.928,3.403 -9.955,3.336 -9.982,3.27 -10.003,3.222 -10.023,3.175 -10.044,3.126 -10.081,3.036 -10.118,2.945 -10.155,2.854 -8.21,2.693 -6.27,2.271 -4.51,1.448 -2.312,0.444 -0.458,-1.189 0.848,-3.145 0.926,-3.25 1.07,-3.462 1.212,-3.319 c 0.182,0.37 0.117,0.8 0.079,1.194 C 1.19,-1.279 0.604,-0.586 0,0" /></g><g
           transform="translate(197.2505,74.2189)"
           id="g216"><path
             id="path218"
             style="fill:#e8c41e;fill-opacity:1;fill-rule:nonzero;stroke:none"
             d="m 0,0 c -0.245,-0.149 -0.494,-0.295 -0.725,-0.464 0.271,0.088 0.541,0.183 0.812,0.272 C 0.058,-0.127 0.029,-0.063 0,0" /></g><g
           transform="translate(190.74,70.3686)"
           id="g220"><path
             id="path222"
             style="fill:#e8c41e;fill-opacity:1;fill-rule:nonzero;stroke:none"
             d="M 0,0 C 0.368,0.111 0.586,0.441 0.889,0.649 0.573,0.458 0.289,0.225 0,0" /></g><g
           transform="translate(190.0371,69.5948)"
           id="g224"><path
             id="path226"
             style="fill:#e8c41e;fill-opacity:1;fill-rule:nonzero;stroke:none"
             d="M 0,0 C -0.306,-0.399 -0.521,-0.869 -0.572,-1.364 -0.37,-0.913 -0.248,-0.432 0,0" /></g><g
           transform="translate(208.6869,62.5995)"
           id="g228"><path
             id="path230"
             style="fill:#e8c41e;fill-opacity:1;fill-rule:nonzero;stroke:none"
             d="m 0,0 c -0.8,0.031 -1.589,0.212 -2.339,0.474 -0.408,0.15 -0.818,0.317 -1.159,0.582 -0.115,0.098 -0.259,0.229 -0.217,0.392 0.103,0.163 0.322,0.19 0.503,0.209 0.619,0.042 1.236,-0.069 1.834,-0.213 C -0.749,1.281 -0.121,1.077 0.431,0.74 0.614,0.636 0.751,0.478 0.868,0.311 0.728,-0.02 0.306,0.019 0,0 M 2.764,4.703 C 2.863,4.346 2.956,3.975 2.897,3.603 2.877,3.37 2.774,3.157 2.689,2.942 L 2.691,2.898 2.662,2.897 C 2.391,2.478 1.988,2.148 1.521,1.94 -0.055,1.243 -2.077,1.631 -3.246,2.86 -3.75,3.4 -4.216,4.062 -4.206,4.813 -4.192,5.42 -3.742,5.928 -3.208,6.21 -2.311,6.689 -1.245,6.805 -0.234,6.719 0.208,6.662 0.652,6.577 1.058,6.392 1.198,6.328 1.342,6.272 1.49,6.226 1.091,6.658 0.623,7.026 0.15,7.381 0.021,7.475 -0.117,7.556 -0.257,7.633 -2.234,8.724 -4.455,9.396 -6.72,9.64 -6.79,9.461 -6.859,9.281 -6.928,9.102 -6.995,8.926 -7.058,8.75 -7.116,8.571 c -0.158,0.146 -0.21,0.351 -0.233,0.552 0.008,0.191 0.023,0.38 0.043,0.57 -0.901,0.063 -1.807,0.053 -2.708,-0.025 0.02,-0.203 0.027,-0.408 0.027,-0.612 -0.033,-0.163 -0.12,-0.304 -0.243,-0.419 -0.027,0.132 -0.066,0.261 -0.117,0.386 -0.077,0.193 -0.15,0.387 -0.225,0.581 -1.531,-0.191 -3.033,-0.607 -4.431,-1.237 -0.023,0.029 -0.068,0.086 -0.091,0.115 -0.106,-0.058 -0.212,-0.115 -0.318,-0.173 0.414,-0.008 0.826,-0.066 1.227,-0.165 0.337,-0.094 0.666,-0.219 0.963,-0.399 l 0.01,0.004 c 0.167,-0.12 0.327,-0.249 0.472,-0.394 0.379,-0.428 0.44,-1.046 0.216,-1.555 -0.408,-0.956 -1.25,-1.736 -2.266,-2.094 -0.401,-0.135 -0.822,-0.215 -1.247,-0.233 -0.48,-0.017 -0.961,0.048 -1.416,0.19 -0.331,0.114 -0.639,0.278 -0.917,0.484 0.042,-0.449 0.173,-0.889 0.383,-1.292 0.246,0.115 0.514,0.182 0.783,0.231 0.45,0.078 0.91,0.091 1.366,0.067 0.352,-0.031 0.711,-0.078 1.031,-0.23 0.123,-0.062 0.263,-0.158 0.266,-0.305 -0.016,-0.191 -0.215,-0.29 -0.368,-0.377 -0.416,-0.172 -0.868,-0.239 -1.316,-0.283 -0.385,-0.009 -0.771,-0.011 -1.153,0.043 0.826,-0.973 1.934,-1.69 3.095,-2.252 0.954,-0.461 1.958,-0.827 2.995,-1.078 -0.089,0.264 -0.154,0.534 -0.21,0.806 -0.051,0.242 -0.078,0.49 -0.147,0.728 -0.23,0.173 -0.408,0.401 -0.461,0.682 -0.009,0.189 0.018,0.381 0.122,0.544 -0.023,-0.206 -0.046,-0.416 0.009,-0.621 0.132,-0.279 0.412,-0.489 0.733,-0.523 0.188,-0.02 0.36,0.069 0.523,0.145 0.2,0.109 0.405,0.234 0.641,0.248 0.262,-0.014 0.377,-0.27 0.509,-0.448 l 0.006,-0.001 c 0.261,-0.281 0.655,-0.487 1.057,-0.433 0.21,0.026 0.383,0.151 0.532,0.286 0.131,0.155 0.237,0.327 0.316,0.511 0.01,0.001 0.031,0.005 0.041,0.006 -0.009,-0.405 -0.308,-0.749 -0.68,-0.916 -0.036,-0.174 -0.095,-0.342 -0.15,-0.511 -0.146,-0.277 -0.3,-0.551 -0.489,-0.804 -0.086,-0.059 0.031,-0.072 0.071,-0.077 0.629,-0.055 1.26,-0.081 1.892,-0.098 1.583,-0.046 3.18,-0.024 4.74,0.265 1.088,0.203 2.158,0.514 3.168,0.954 C 1.725,-0.229 2.49,0.23 3.049,0.883 3.55,1.49 3.775,2.321 3.554,3.075 3.375,3.65 3.093,4.193 2.764,4.703" /></g><g
           transform="translate(196.3224,73.1512)"
           id="g232"><path
             id="path234"
             style="fill:#e8c41e;fill-opacity:1;fill-rule:nonzero;stroke:none"
             d="M 0,0 C 0.455,0.015 0.904,0.085 1.357,0.128 1.325,0.19 1.292,0.25 1.257,0.31 1.232,0.379 1.207,0.447 1.182,0.516 1.168,0.544 1.14,0.602 1.126,0.63 0.606,0.484 0.072,0.356 -0.417,0.131 -0.527,-0.094 -0.133,-0.01 0,0" /></g><g
           transform="translate(194.1784,69.5791)"
           id="g236"><path
             id="path238"
             style="fill:#74b743;fill-opacity:1;fill-rule:nonzero;stroke:none"
             d="m 0,0 c -0.708,0.362 -1.562,0.516 -2.339,0.27 0.374,-0.018 0.751,-0.202 0.88,-0.555 0.038,-0.143 0.056,-0.289 0.062,-0.436 -0.076,-0.323 -0.323,-0.587 -0.652,-0.694 -0.253,-0.022 -0.53,-0.012 -0.741,0.142 -0.218,0.135 -0.327,0.374 -0.377,0.609 -0.001,0.242 0.097,0.466 0.225,0.67 -0.431,-0.262 -0.77,-0.629 -1.064,-1.023 0.204,0.631 0.659,1.203 1.293,1.487 0.8,0.357 1.754,0.294 2.549,-0.044 C 0.34,0.213 0.822,-0.132 1.016,-0.642 0.681,-0.423 0.365,-0.175 0,0 M -0.578,1.011 C -1.528,1.105 -2.527,0.963 -3.362,0.502 -3.843,0.237 -4.266,-0.185 -4.376,-0.72 c -0.127,-0.637 0.136,-1.321 0.625,-1.763 0.311,-0.29 0.725,-0.461 1.149,-0.536 l 0.003,-0.01 c 0.257,-0.017 0.524,-0.096 0.779,-0.031 0.888,0.025 1.759,0.342 2.468,0.847 0.53,0.387 0.993,0.954 0.997,1.618 0.02,0.328 -0.185,0.615 -0.403,0.849 -0.473,0.47 -1.157,0.682 -1.82,0.757" /></g><g
           transform="translate(208.8932,68.2907)"
           id="g240"><path
             id="path242"
             style="fill:#74b743;fill-opacity:1;fill-rule:nonzero;stroke:none"
             d="m 0,0 c -0.4,0.137 -0.826,0.191 -1.25,0.178 0.281,-0.212 0.451,-0.579 0.298,-0.912 -0.028,-0.06 -0.059,-0.119 -0.092,-0.177 -0.19,-0.227 -0.501,-0.296 -0.793,-0.264 -0.166,0.032 -0.302,0.139 -0.421,0.248 -0.215,0.247 -0.187,0.591 -0.069,0.872 -0.382,-0.163 -0.719,-0.399 -1.041,-0.651 0.363,0.596 1.003,1.031 1.714,1.156 C -0.699,0.623 0.3,0.343 1.092,-0.172 1.574,-0.491 2.025,-0.935 2.121,-1.509 1.537,-0.872 0.849,-0.286 0,0 M 2.026,-0.393 C 1.47,0.102 0.751,0.415 0.01,0.557 -0.663,0.694 -1.361,0.753 -2.045,0.661 -2.459,0.602 -2.876,0.5 -3.243,0.304 c -0.428,-0.293 -0.752,-0.775 -0.73,-1.291 0.02,-0.5 0.312,-0.945 0.648,-1.311 0.619,-0.647 1.437,-1.159 2.352,-1.31 0.691,-0.102 1.431,-0.085 2.067,0.221 0.587,0.271 1.133,0.731 1.293,1.357 0.15,0.553 0.102,1.228 -0.361,1.637" /></g><g
           transform="translate(191.4824,65.6859)"
           id="g244"><path
             id="path246"
             style="fill:#ed4792;fill-opacity:1;fill-rule:nonzero;stroke:none"
             d="M 0,0 C 0.45,0.077 0.91,0.091 1.367,0.067 1.718,0.036 2.078,-0.012 2.397,-0.163 2.52,-0.225 2.661,-0.321 2.664,-0.468 2.647,-0.659 2.449,-0.759 2.295,-0.845 1.879,-1.018 1.428,-1.084 0.98,-1.128 0.595,-1.137 0.208,-1.139 -0.173,-1.085 c -0.311,0.057 -0.658,0.117 -0.884,0.344 -0.169,0.214 0.084,0.423 0.274,0.509 C -0.536,-0.117 -0.268,-0.049 0,0" /></g><g
           transform="translate(204.9721,64.0471)"
           id="g248"><path
             id="path250"
             style="fill:#ed4792;fill-opacity:1;fill-rule:nonzero;stroke:none"
             d="M 0,0 C 0.103,0.164 0.322,0.191 0.503,0.21 1.122,0.252 1.739,0.14 2.336,-0.004 2.966,-0.166 3.594,-0.371 4.146,-0.708 4.329,-0.812 4.466,-0.97 4.583,-1.137 4.443,-1.468 4.021,-1.429 3.715,-1.448 2.914,-1.416 2.126,-1.236 1.375,-0.974 0.968,-0.823 0.558,-0.656 0.217,-0.392 0.102,-0.293 -0.042,-0.163 0,0" /></g><g
           id="g252"><g
             id="g254" /><g
             id="g266"><g
               style="opacity:0.53999299"
               id="g264"
               clip-path="url(#clipPath258)"><g
                 id="g262"
                 transform="translate(217.3134,64.4055)"><path
                   id="path260"
                   style="fill:#192112;fill-opacity:1;fill-rule:nonzero;stroke:none"
                   d="M 0,0 C 0.061,-0.137 -0.245,-0.088 -0.097,0.001 -0.073,0.001 -0.024,0 0,0" /></g></g></g></g><g
           id="g268"><g
             id="g270" /><g
             id="g282"><g
               style="opacity:0.38999903"
               id="g280"
               clip-path="url(#clipPath274)"><g
                 id="g278"
                 transform="translate(213.2013,63.727)"><path
                   id="path276"
                   style="fill:#283719;fill-opacity:1;fill-rule:nonzero;stroke:none"
                   d="M 0,0 C -0.029,-0.103 -0.247,-0.016 -0.128,0.051 -0.096,0.038 -0.032,0.013 0,0" /></g></g></g></g><g
           transform="translate(199.2984,62.4995)"
           id="g284"><path
             id="path286"
             style="fill:#ed4792;fill-opacity:1;fill-rule:nonzero;stroke:none"
             d="M 0,0 C -0.282,0.166 -0.348,0.566 -0.696,0.646 -0.945,0.649 -1.132,0.471 -1.34,0.368 -1.574,0.236 -1.858,0.222 -2.12,0.266 c 0.179,-0.417 0.252,-0.864 0.365,-1.299 0.131,-0.427 0.289,-0.945 0.766,-1.123 0.314,-0.139 0.673,-0.004 0.907,0.212 0.369,0.34 0.595,0.788 0.814,1.223 0.074,0.154 0.147,0.308 0.223,0.461 C 0.618,-0.261 0.288,-0.161 0,0" /></g><path
           id="path288"
           style="fill:#191919;fill-opacity:1;fill-rule:nonzero;stroke:none"
           d="M 38.619,60.143 H 35.727 V 72 h 2.892 z" /><g
           transform="translate(34.6604,67.2384)"
           id="g290"><path
             id="path292"
             style="fill:#191919;fill-opacity:1;fill-rule:nonzero;stroke:none"
             d="M 0,0 H -3.768 V 4.762 H -6.66 V -7.095 h 2.892 v 4.478 H 0 Z" /></g><g
           transform="translate(46.5717,72)"
           id="g294"><path
             id="path296"
             style="fill:#191919;fill-opacity:1;fill-rule:nonzero;stroke:none"
             d="m 0,0 c 0.038,-1.111 0.049,-2.221 -0.003,-3.332 -0.051,-1.071 -0.145,-2.138 -0.389,-3.187 -0.249,-1.066 -0.742,-2.013 -1.415,-2.871 -0.596,-0.761 -1.302,-1.399 -2.147,-1.879 -0.778,-0.443 -1.611,-0.709 -2.514,-0.731 -0.041,-10e-4 -0.081,0 -0.131,0 -0.002,0.035 -0.006,0.065 -0.006,0.095 0,0.518 0.001,1.036 -0.002,1.554 0,0.073 0.015,0.101 0.097,0.107 0.284,0.019 0.548,0.117 0.804,0.23 1.001,0.442 1.858,1.084 2.614,1.863 0.482,0.497 0.914,1.031 1.207,1.664 0.252,0.543 0.415,1.114 0.541,1.697 0.17,0.795 0.282,1.599 0.321,2.411 0.038,0.792 0.051,1.586 0.075,2.379 z" /></g><g
           transform="translate(46.9413,72)"
           id="g298"><path
             id="path300"
             style="fill:#191919;fill-opacity:1;fill-rule:nonzero;stroke:none"
             d="m 0,0 c -0.038,-1.111 -0.049,-2.221 0.003,-3.332 0.051,-1.071 0.145,-2.138 0.389,-3.187 0.249,-1.066 0.742,-2.013 1.415,-2.871 0.596,-0.761 1.302,-1.399 2.147,-1.879 0.778,-0.443 1.611,-0.709 2.514,-0.731 0.041,-10e-4 0.081,0 0.131,0 0.002,0.035 0.006,0.065 0.006,0.095 0,0.518 -0.001,1.036 0.002,1.554 0,0.073 -0.015,0.101 -0.097,0.107 -0.284,0.019 -0.548,0.117 -0.804,0.23 C 4.705,-9.572 3.848,-8.93 3.092,-8.151 2.61,-7.654 2.178,-7.12 1.885,-6.487 1.633,-5.944 1.47,-5.373 1.344,-4.79 1.174,-3.995 1.062,-3.191 1.023,-2.379 0.985,-1.587 0.972,-0.793 0.948,0 Z" /></g><g
           transform="translate(60.2504,72)"
           id="g302"><path
             id="path304"
             style="fill:#191919;fill-opacity:1;fill-rule:nonzero;stroke:none"
             d="m 0,0 h -2.41 -0.365 -2.527 v -11.857 h 2.892 v 8.924 h 1.826 c 0,0 0.964,0.127 0.993,-1.292 l -0.146,-7.632 h 3.009 v 7.978 C 3.272,-3.879 3.564,0 0,0" /></g><g
           transform="translate(68.7512,71.8739)"
           id="g306"><path
             id="path308"
             style="fill:#191919;fill-opacity:1;fill-rule:nonzero;stroke:none"
             d="m 0,0 h -3.695 v -2.712 h 3.578 c 0,0 2.775,-0.063 2.775,-3.311 0,-3.248 -3.461,-3.08 -3.461,-3.08 v 5.004 h -2.892 v -7.631 h 2.892 c 0,0 6.47,-0.694 6.47,5.612 C 5.667,0.189 0,0 0,0" /></g><path
           id="path310"
           style="fill:#191919;fill-opacity:1;fill-rule:nonzero;stroke:none"
           d="m 82.043,60.143 h -4.94 v 2.628 h 4.94 z" /><g
           transform="translate(75.1779,71.8745)"
           id="g312"><path
             id="path314"
             style="fill:#191919;fill-opacity:1;fill-rule:nonzero;stroke:none"
             d="m 0,0 h 3.009 v -3.249 c 0,0 0.113,-1.765 1.386,-1.765 1.272,0 1.498,1.617 1.498,1.617 V 0 h 2.929 v -3.595 c 0,0 -0.555,-4.005 -4.411,-4.005 C 0.555,-7.6 0,-3.8 0,-3.8 Z" /></g></g></g></g></svg>