<?xml version="1.0" encoding="UTF-8" standalone="no"?>
<svg
   xmlns:dc="http://purl.org/dc/elements/1.1/"
   xmlns:cc="http://creativecommons.org/ns#"
   xmlns:rdf="http://www.w3.org/1999/02/22-rdf-syntax-ns#"
   xmlns:svg="http://www.w3.org/2000/svg"
   xmlns="http://www.w3.org/2000/svg"
   viewBox="0 0 341.33334 341.33334"
   height="256"
   width="256"
   xml:space="preserve"
   id="svg2"
   version="1.1"><metadata
     id="metadata8"><rdf:RDF><cc:Work
         rdf:about=""><dc:format>image/svg+xml</dc:format><dc:type
           rdf:resource="http://purl.org/dc/dcmitype/StillImage" /></cc:Work></rdf:RDF></metadata><defs
     id="defs6"><clipPath
       id="clipPath18"
       clipPathUnits="userSpaceOnUse"><path
         id="path16"
         d="M 0,256 H 256 V 0 H 0 Z" /></clipPath><clipPath
       id="clipPath26"
       clipPathUnits="userSpaceOnUse"><path
         id="path24"
         d="M 4,224 H 252 V 20.0001 H 4 Z" /></clipPath></defs><g
     transform="matrix(1.3333333,0,0,-1.3333333,0,341.33333)"
     id="g10"><g
       id="g12"><g
         clip-path="url(#clipPath18)"
         id="g14"><g
           id="g20"><g
             id="g22" /><g
             id="g34"><g
               style="opacity:0.5"
               id="g32"
               clip-path="url(#clipPath26)"><g
                 id="g30"
                 transform="translate(242.817,127.3378)"><path
                   id="path28"
                   style="fill:#ffffff;fill-opacity:1;fill-rule:nonzero;stroke:none"
                   d="m 0,0 c -1.703,4.672 -3.861,8.971 -5.947,13.128 -0.425,0.847 -0.851,1.694 -1.271,2.544 -2.044,4.126 -2.274,8.595 -0.699,14.308 9.26,9.777 11.74,25.687 6.091,40.449 -6.192,16.181 -20.276,26.233 -36.756,26.233 -9.959,0 -20.505,-3.516 -31.346,-10.45 l -8.913,-5.55 h -71.951 l -8.915,5.551 c -10.84,6.934 -21.385,10.449 -31.344,10.449 -16.482,10e-4 -30.567,-10.05 -36.759,-26.23 -5.649,-14.762 -3.168,-30.674 6.093,-40.452 1.575,-5.713 1.345,-10.183 -0.698,-14.308 -0.421,-0.851 -0.847,-1.699 -1.273,-2.547 -2.086,-4.156 -4.243,-8.454 -5.946,-13.126 -10.969,-30.092 -9.626,-49.908 -8.326,-69.072 0.234,-3.458 0.477,-7.035 0.633,-10.574 0.3,-6.812 2.32,-12.848 5.84,-17.456 5.041,-6.6 11.828,-10.235 19.111,-10.235 7.281,0 14.067,3.633 19.107,10.229 3.428,4.486 5.542,10.29 6.113,16.786 3.241,36.84 3.407,38.438 6.893,70.875 3.085,8.956 8.121,12.995 10.793,12.995 h 4.655 v -23.198 -5.15 c 0,-5.81 4.675,-10.537 10.421,-10.537 h 79.154 c 5.746,0 10.421,4.727 10.421,10.537 v 5.15 23.198 h 4.655 c 2.672,0 7.708,-4.039 10.793,-12.995 3.486,-32.437 3.652,-34.035 6.893,-70.876 0.571,-6.495 2.685,-12.3 6.113,-16.785 5.041,-6.596 11.826,-10.229 19.107,-10.229 7.283,0 14.07,3.635 19.111,10.235 3.52,4.608 5.54,10.645 5.84,17.458 0.156,3.539 0.399,7.114 0.633,10.573 C 9.626,-49.909 10.969,-30.092 0,0" /></g></g></g></g><g
           transform="translate(235.3061,124.5979)"
           id="g36"><path
             id="path38"
             style="fill:#333333;fill-opacity:1;fill-rule:nonzero;stroke:none"
             d="m 0,0 c 12.375,-33.949 8.216,-53.914 7.218,-76.553 -0.205,-4.648 -1.416,-9.302 -4.206,-12.954 -7.221,-9.453 -18.284,-9.455 -25.507,-0.004 -2.732,3.575 -4.1,8.091 -4.5,12.628 -3.276,37.238 -3.429,38.669 -7,71.886 -3.731,11.57 -11.193,19.284 -18.655,19.284 h -18.656 c 5.298,38.439 60.043,43.66 67.16,30.855 C -10.414,32.184 -10.824,22.841 -6.871,14.86 -4.448,9.968 -1.875,5.143 0,0" /></g><g
           transform="translate(20.6935,124.5969)"
           id="g40"><path
             id="path42"
             style="fill:#333333;fill-opacity:1;fill-rule:nonzero;stroke:none"
             d="m 0,0 c -12.375,-33.95 -8.216,-53.915 -7.217,-76.553 0.205,-4.648 1.416,-9.302 4.205,-12.953 7.222,-9.453 18.285,-9.455 25.507,-0.004 2.732,3.575 4.101,8.091 4.5,12.628 3.276,37.238 3.43,38.669 7,71.886 3.731,11.57 11.194,19.284 18.656,19.284 H 71.307 C 66.008,52.727 11.264,57.948 4.146,45.143 10.414,32.185 10.825,22.842 6.872,14.861 4.448,9.969 1.875,5.144 0,0" /></g><g
           transform="translate(89.6654,200)"
           id="g44"><path
             id="path46"
             style="fill:#333333;fill-opacity:1;fill-rule:nonzero;stroke:none"
             d="m 0,0 h 76.669 c 2.024,0 3.666,-1.65 3.666,-3.686 V -92.314 C 80.335,-94.35 78.693,-96 76.669,-96 H 0 c -2.024,0 -3.665,1.65 -3.665,3.686 V -3.686 C -3.665,-1.65 -2.024,0 0,0" /></g><g
           transform="translate(109.6797,187.5829)"
           id="g48"><path
             id="path50"
             style="fill:#404040;fill-opacity:1;fill-rule:nonzero;stroke:none"
             d="m 0,0 c 23.131,-23.042 3.855,-49.925 -23.131,-42.245 l -50.117,11.522 c -34.697,11.521 -11.566,84.489 42.407,49.925 z" /></g><g
           transform="translate(65.7583,193.9999)"
           id="g52"><path
             id="path54"
             style="fill:#262626;fill-opacity:1;fill-rule:nonzero;stroke:none"
             d="M 0,0 H -7.758 V 7.759 C -7.758,8.996 -8.762,10 -10,10 h -7.517 c -1.238,0 -2.241,-1.004 -2.241,-2.241 V 0 h -7.759 c -1.238,0 -2.241,-1.004 -2.241,-2.241 v -7.518 c 0,-1.238 1.003,-2.241 2.241,-2.241 h 7.759 v -7.759 c 0,-1.238 1.003,-2.241 2.241,-2.241 H -10 c 1.238,0 2.242,1.003 2.242,2.241 V -12 H 0 c 1.238,0 2.242,1.003 2.242,2.241 v 7.518 C 2.242,-1.004 1.238,0 0,0" /></g><g
           transform="translate(88,174)"
           id="g56"><path
             id="path58"
             style="fill:#a6a6a6;fill-opacity:1;fill-rule:nonzero;stroke:none"
             d="m 0,0 c 0,-3.314 -2.686,-6 -6,-6 -3.314,0 -6,2.686 -6,6 0,3.314 2.686,6 6,6 3.314,0 6,-2.686 6,-6" /></g><g
           transform="translate(104,166)"
           id="g60"><path
             id="path62"
             style="fill:#a6a6a6;fill-opacity:1;fill-rule:nonzero;stroke:none"
             d="m 0,0 c 0,-3.314 -2.686,-6 -6,-6 -3.314,0 -6,2.686 -6,6 0,3.314 2.686,6 6,6 3.314,0 6,-2.686 6,-6" /></g><g
           transform="translate(146.3203,187.5829)"
           id="g64"><path
             id="path66"
             style="fill:#404040;fill-opacity:1;fill-rule:nonzero;stroke:none"
             d="m 0,0 c -23.131,-23.042 -3.855,-49.925 23.131,-42.245 l 50.117,11.522 c 34.697,11.521 11.566,84.489 -42.407,49.925 z" /></g><g
           transform="translate(217.7583,193.9999)"
           id="g68"><path
             id="path70"
             style="fill:#262626;fill-opacity:1;fill-rule:nonzero;stroke:none"
             d="M 0,0 H -7.758 V 7.759 C -7.758,8.996 -8.762,10 -10,10 h -7.517 c -1.238,0 -2.241,-1.004 -2.241,-2.241 V 0 h -7.759 c -1.238,0 -2.241,-1.004 -2.241,-2.241 v -7.518 c 0,-1.238 1.003,-2.241 2.241,-2.241 h 7.759 v -7.759 c 0,-1.238 1.003,-2.241 2.241,-2.241 H -10 c 1.238,0 2.242,1.003 2.242,2.241 V -12 H 0 c 1.238,0 2.242,1.003 2.242,2.241 v 7.518 C 2.242,-1.004 1.238,0 0,0" /></g><g
           transform="translate(168,174)"
           id="g72"><path
             id="path74"
             style="fill:#b80000;fill-opacity:1;fill-rule:nonzero;stroke:none"
             d="m 0,0 c 0,-3.314 2.686,-6 6,-6 3.314,0 6,2.686 6,6 C 12,3.314 9.314,6 6,6 2.686,6 0,3.314 0,0" /></g><g
           transform="translate(152,166)"
           id="g76"><path
             id="path78"
             style="fill:#b80000;fill-opacity:1;fill-rule:nonzero;stroke:none"
             d="m 0,0 c 0,-3.314 2.686,-6 6,-6 3.314,0 6,2.686 6,6 C 12,3.314 9.314,6 6,6 2.686,6 0,3.314 0,0" /></g><g
           transform="translate(141.4613,192)"
           id="g80"><path
             id="path82"
             style="fill:#8c8c8c;fill-opacity:1;fill-rule:nonzero;stroke:none"
             d="m 0,0 h -23.114 c -1.076,0 -2.025,-0.644 -2.338,-1.588 -0.312,-0.944 0.089,-1.964 0.983,-2.51 l 5.779,-3.526 C -18.29,-7.869 -17.817,-8 -17.335,-8 h 11.557 c 0.482,0 0.954,0.131 1.355,0.376 l 5.778,3.526 c 0.895,0.546 1.296,1.566 0.983,2.51 C 2.026,-0.644 1.076,0 0,0" /></g><g
           transform="translate(133.5717,192)"
           id="g84"><path
             id="path86"
             style="fill:#a6a6a6;fill-opacity:1;fill-rule:nonzero;stroke:none"
             d="m 0,0 h -19.143 c -1.07,0 -2.014,-0.644 -2.324,-1.588 -0.311,-0.944 0.088,-1.964 0.977,-2.51 l 5.743,-3.526 C -14.349,-7.869 -13.879,-8 -13.4,-8 h 7.657 c 0.479,0 0.948,0.131 1.347,0.376 l 5.743,3.526 c 0.889,0.546 1.287,1.566 0.977,2.51 C 2.013,-0.644 1.069,0 0,0" /></g><g
           transform="translate(118.2785,124)"
           id="g88"><path
             id="path90"
             style="fill:#b3b3b3;fill-opacity:1;fill-rule:nonzero;stroke:none"
             d="m 0,0 -2.278,12 h 1.215 L 0,5.387 1.063,12 h 1.215 z" /></g><g
           transform="translate(120.8608,124)"
           id="g92"><path
             id="path94"
             style="fill:#b3b3b3;fill-opacity:1;fill-rule:nonzero;stroke:none"
             d="M 0,0 V 12 H 2.127 C 3.058,11.911 3.565,11.356 3.646,10.333 V 7 C 3.605,6.289 3.277,5.844 2.661,5.667 L 3.949,0 H 2.734 L 1.221,6.667 H 2.43 v 4 H 1.215 V 0 Z" /></g><path
           id="path96"
           style="fill:#b3b3b3;fill-opacity:1;fill-rule:nonzero;stroke:none"
           d="m 128.152,125.333 h 1.215 v 4 h -1.215 z m 1.215,9.334 h -1.215 v -4 h 1.215 z m -2.43,1.333 h 2.126 c 0.932,-0.089 1.438,-0.644 1.519,-1.667 V 131 c 0,-0.356 -0.101,-0.689 -0.304,-1 0.203,-0.311 0.304,-0.644 0.304,-1 v -3.333 c -0.081,-1.023 -0.587,-1.578 -1.519,-1.667 h -2.126 z" /><path
           id="path98"
           style="fill:#b3b3b3;fill-opacity:1;fill-rule:nonzero;stroke:none"
           d="m 132.405,125.333 h 1.215 v 9.333 h -1.215 z m 2.43,0.334 c -0.081,-1.023 -0.587,-1.578 -1.519,-1.667 h -0.607 c -0.932,0.089 -1.438,0.644 -1.519,1.667 v 8.666 c 0.081,1.023 0.587,1.578 1.519,1.667 h 0.607 c 0.932,-0.089 1.438,-0.644 1.519,-1.667 z" /><g
           transform="translate(136.962,128.6667)"
           id="g100"><path
             id="path102"
             style="fill:#b3b3b3;fill-opacity:1;fill-rule:nonzero;stroke:none"
             d="m 0,0 -1.823,7.333 h 1.215 L 0.608,2.447 1.823,7.333 H 3.038 L 1.215,0.013 v -4.68 H 0 Z" /></g><g
           transform="translate(60.2759,188.4126)"
           id="g104"><path
             id="path106"
             style="fill:#191919;fill-opacity:1;fill-rule:nonzero;stroke:none"
             d="m 0,0 c 0,-4.563 -3.713,-8.276 -8.276,-8.276 -4.563,0 -8.276,3.713 -8.276,8.276 0,2.16 0.851,4.112 2.211,5.587 h -2.21 C -17.631,3.992 -18.264,2.069 -18.264,0 c 0,-2.453 0.923,-4.672 2.395,-6.413 h 1.593 v -1.521 c 1.675,-1.271 3.739,-2.054 6,-2.054 2.26,0 4.324,0.783 6,2.054 v 1.521 h 1.593 c 1.472,1.741 2.395,3.96 2.395,6.413 0,2.069 -0.632,3.992 -1.713,5.587 h -2.21 C -0.851,4.112 0,2.16 0,0" /></g><g
           transform="translate(45.9998,200.3435)"
           id="g108"><path
             id="path110"
             style="fill:#191919;fill-opacity:1;fill-rule:nonzero;stroke:none"
             d="m 0,0 v -1.939 c 1.76,1.061 3.799,1.709 6,1.709 2.201,0 4.24,-0.648 6,-1.709 V 0 C 10.186,0.917 8.167,1.482 6,1.482 3.833,1.482 1.814,0.917 0,0" /></g><g
           transform="translate(63.7002,188.4126)"
           id="g112"><path
             id="path114"
             style="fill:#191919;fill-opacity:1;fill-rule:nonzero;stroke:none"
             d="m 0,0 c 0,-2.369 -0.718,-4.569 -1.933,-6.413 h 1.939 c 1.053,1.914 1.706,4.078 1.706,6.413 0,2 -0.469,3.881 -1.257,5.587 h -1.94 C -0.568,3.919 0,2.034 0,0" /></g><g
           transform="translate(51.9998,198.4009)"
           id="g116"><path
             id="path118"
             style="fill:#191919;fill-opacity:1;fill-rule:nonzero;stroke:none"
             d="m 0,0 c -2.261,0 -4.324,-0.784 -6,-2.055 v -2.267 c 1.51,1.598 3.633,2.61 6,2.61 2.367,0 4.49,-1.012 6,-2.61 v 2.268 C 4.324,-0.783 2.261,0 0,0" /></g><g
           transform="translate(40.2995,188.4126)"
           id="g120"><path
             id="path122"
             style="fill:#191919;fill-opacity:1;fill-rule:nonzero;stroke:none"
             d="m 0,0 c 0,2.034 0.568,3.919 1.485,5.587 h -1.94 C -1.243,3.881 -1.712,2 -1.712,0 c 0,-2.335 0.653,-4.499 1.706,-6.413 H 1.933 C 0.718,-4.569 0,-2.369 0,0" /></g><g
           transform="translate(51.9998,183.5614)"
           id="g124"><path
             id="path126"
             style="fill:#191919;fill-opacity:1;fill-rule:nonzero;stroke:none"
             d="m 0,0 c -2.679,0 -4.851,2.172 -4.851,4.851 0,2.68 2.172,4.852 4.851,4.852 2.68,0 4.852,-2.172 4.852,-4.852 C 4.852,2.172 2.68,0 0,0 m 0,11.415 c -3.619,0 -6.564,-2.944 -6.564,-6.564 0,-3.619 2.945,-6.563 6.564,-6.563 3.619,0 6.564,2.944 6.564,6.563 0,3.62 -2.945,6.564 -6.564,6.564" /></g><g
           transform="translate(51.9998,189.8396)"
           id="g128"><path
             id="path130"
             style="fill:#191919;fill-opacity:1;fill-rule:nonzero;stroke:none"
             d="m 0,0 c -0.788,0 -1.427,-0.639 -1.427,-1.427 0,-0.788 0.639,-1.427 1.427,-1.427 0.788,0 1.427,0.639 1.427,1.427 C 1.427,-0.639 0.788,0 0,0" /></g><g
           transform="translate(57.9999,176.4821)"
           id="g132"><path
             id="path134"
             style="fill:#191919;fill-opacity:1;fill-rule:nonzero;stroke:none"
             d="M 0,0 V 1.939 C -1.76,0.878 -3.799,0.23 -6,0.23 c -2.201,0 -4.24,0.648 -6,1.709 V 0 c 1.814,-0.917 3.833,-1.482 6,-1.482 2.167,0 4.186,0.565 6,1.482" /></g><g
           transform="translate(212.2759,188.4126)"
           id="g136"><path
             id="path138"
             style="fill:#191919;fill-opacity:1;fill-rule:nonzero;stroke:none"
             d="m 0,0 c 0,-4.563 -3.713,-8.276 -8.276,-8.276 -4.563,0 -8.276,3.713 -8.276,8.276 0,2.16 0.851,4.112 2.211,5.587 h -2.21 C -17.631,3.992 -18.264,2.069 -18.264,0 c 0,-2.453 0.923,-4.672 2.395,-6.413 h 1.593 v -1.521 c 1.675,-1.271 3.739,-2.054 6,-2.054 2.26,0 4.324,0.783 6,2.054 v 1.521 h 1.593 c 1.472,1.741 2.395,3.96 2.395,6.413 0,2.069 -0.632,3.992 -1.713,5.587 h -2.21 C -0.851,4.112 0,2.16 0,0" /></g><g
           transform="translate(197.9998,200.3435)"
           id="g140"><path
             id="path142"
             style="fill:#191919;fill-opacity:1;fill-rule:nonzero;stroke:none"
             d="m 0,0 v -1.939 c 1.76,1.061 3.799,1.709 6,1.709 2.201,0 4.24,-0.648 6,-1.709 V 0 C 10.186,0.917 8.167,1.482 6,1.482 3.833,1.482 1.814,0.917 0,0" /></g><g
           transform="translate(215.7002,188.4126)"
           id="g144"><path
             id="path146"
             style="fill:#191919;fill-opacity:1;fill-rule:nonzero;stroke:none"
             d="m 0,0 c 0,-2.369 -0.718,-4.569 -1.933,-6.413 h 1.939 c 1.053,1.914 1.706,4.078 1.706,6.413 0,2 -0.469,3.881 -1.257,5.587 h -1.94 C -0.568,3.919 0,2.034 0,0" /></g><g
           transform="translate(203.9998,198.4009)"
           id="g148"><path
             id="path150"
             style="fill:#191919;fill-opacity:1;fill-rule:nonzero;stroke:none"
             d="m 0,0 c -2.261,0 -4.324,-0.784 -6,-2.055 v -2.267 c 1.51,1.598 3.633,2.61 6,2.61 2.367,0 4.49,-1.012 6,-2.61 v 2.268 C 4.324,-0.783 2.261,0 0,0" /></g><g
           transform="translate(192.2995,188.4126)"
           id="g152"><path
             id="path154"
             style="fill:#191919;fill-opacity:1;fill-rule:nonzero;stroke:none"
             d="m 0,0 c 0,2.034 0.568,3.919 1.485,5.587 h -1.94 C -1.243,3.881 -1.712,2 -1.712,0 c 0,-2.335 0.653,-4.499 1.706,-6.413 H 1.933 C 0.718,-4.569 0,-2.369 0,0" /></g><g
           transform="translate(203.9998,183.5614)"
           id="g156"><path
             id="path158"
             style="fill:#191919;fill-opacity:1;fill-rule:nonzero;stroke:none"
             d="m 0,0 c -2.679,0 -4.851,2.172 -4.851,4.851 0,2.68 2.172,4.852 4.851,4.852 2.68,0 4.852,-2.172 4.852,-4.852 C 4.852,2.172 2.68,0 0,0 m 0,11.415 c -3.619,0 -6.564,-2.944 -6.564,-6.564 0,-3.619 2.945,-6.563 6.564,-6.563 3.619,0 6.564,2.944 6.564,6.563 0,3.62 -2.945,6.564 -6.564,6.564" /></g><g
           transform="translate(203.9998,189.8396)"
           id="g160"><path
             id="path162"
             style="fill:#191919;fill-opacity:1;fill-rule:nonzero;stroke:none"
             d="m 0,0 c -0.788,0 -1.427,-0.639 -1.427,-1.427 0,-0.788 0.639,-1.427 1.427,-1.427 0.788,0 1.427,0.639 1.427,1.427 C 1.427,-0.639 0.788,0 0,0" /></g><g
           transform="translate(209.9999,176.4821)"
           id="g164"><path
             id="path166"
             style="fill:#191919;fill-opacity:1;fill-rule:nonzero;stroke:none"
             d="M 0,0 V 1.939 C -1.76,0.878 -3.799,0.23 -6,0.23 c -2.201,0 -4.24,0.648 -6,1.709 V 0 c 1.814,-0.917 3.833,-1.482 6,-1.482 2.167,0 4.186,0.565 6,1.482" /></g><g
           transform="translate(165.0223,117.8946)"
           id="g168"><path
             id="path170"
             style="fill:#404040;fill-opacity:1;fill-rule:nonzero;stroke:none"
             d="m 0,0 h -74.045 l -4.977,22.105 v -37.463 c 0,-1.401 1.084,-2.537 2.421,-2.537 H 2.556 c 1.337,0 2.422,1.136 2.422,2.537 v 37.463 z" /></g><g
           transform="translate(141.2825,104.9809)"
           id="g172"><path
             id="path174"
             style="fill:#333333;fill-opacity:1;fill-rule:nonzero;stroke:none"
             d="m 0,0 h -26.565 c -2.244,-0.007 -3.607,1.351 -3.607,3.017 0,1.667 1.372,3.015 3.607,3.018 H 0 C 2.235,6.032 3.606,4.684 3.606,3.017 3.606,1.351 2.244,-0.007 0,0 m 0.012,7.019 h -26.59 c -2.814,0.006 -4.704,-1.819 -4.704,-4.007 0,-2.188 1.886,-3.992 4.708,-3.993 H 0.009 c 2.822,0.001 4.709,1.805 4.709,3.993 0,2.188 -1.891,4.013 -4.706,4.007" /></g><g
           transform="translate(132.1796,109.492)"
           id="g176"><path
             id="path178"
             style="fill:#333333;fill-opacity:1;fill-rule:nonzero;stroke:none"
             d="M 0,0 H 1.256 V -0.506 H 1.935 V -0.88 H 1.256 L 1.257,-3.379 H -0.001 L 0,-0.88 h -0.682 v 0.373 h 0.683 z" /></g><path
           id="path180"
           style="fill:#333333;fill-opacity:1;fill-rule:nonzero;stroke:none"
           d="m 117.465,108.617 h 1.255 v -2.504 h -1.255 z" /><path
           id="path182"
           style="fill:#333333;fill-opacity:1;fill-rule:nonzero;stroke:none"
           d="m 117.462,109.88 h 1.258 v -0.77 h -1.258 z" /><g
           transform="translate(140.5405,106.942)"
           id="g184"><path
             id="path186"
             style="fill:#333333;fill-opacity:1;fill-rule:nonzero;stroke:none"
             d="m 0,0 c 0,-0.399 -0.261,-0.564 -0.514,-0.564 -0.251,0 -0.513,0.165 -0.513,0.564 v 0.539 c 0,0 10e-4,0.371 10e-4,0.523 0,0.397 0.262,0.56 0.512,0.56 C -0.263,1.622 0,1.459 0,1.062 0,0.91 0,0.63 0.001,0.529 0.001,0.522 0,0.15 0,0 m -0.503,1.933 c -1.014,0 -1.835,-0.63 -1.835,-1.406 0,-0.777 0.821,-1.407 1.835,-1.407 1.013,0 1.834,0.63 1.834,1.407 0,0.776 -0.821,1.406 -1.834,1.406" /></g><g
           transform="translate(121.6843,106.9411)"
           id="g188"><path
             id="path190"
             style="fill:#333333;fill-opacity:1;fill-rule:nonzero;stroke:none"
             d="m 0,0 c 0,-0.386 -0.293,-0.488 -0.491,-0.488 -0.196,0 -0.493,0.102 -0.493,0.488 v 0.444 0.448 c 0,0.388 0.297,0.487 0.492,0.487 C -0.293,1.379 0,1.28 0,0.892 0,0.764 -0.001,0.447 -0.001,0.447 -0.001,0.447 0,0.134 0,0 M -0.264,1.783 C -0.562,1.76 -0.775,1.662 -0.975,1.56 v 1.386 h -1.24 V -0.82 h 1.242 c 0,0 0.001,0.122 0.001,0.145 0.481,-0.272 1.022,-0.271 1.445,-0.094 0.113,0.047 0.858,0.37 0.858,1.242 0,0.66 -0.691,1.383 -1.595,1.31" /></g><g
           transform="translate(129.1621,108.3353)"
           id="g192"><path
             id="path194"
             style="fill:#333333;fill-opacity:1;fill-rule:nonzero;stroke:none"
             d="M 0,0 C 0.098,0.154 0.278,0.228 0.441,0.228 0.606,0.228 0.786,0.154 0.883,0 0.962,-0.125 0.967,-0.272 0.965,-0.491 H -0.083 C -0.085,-0.272 -0.08,-0.125 0,0 m 0.961,-1.398 c 0,-0.459 -0.334,-0.56 -0.519,-0.56 -0.186,0 -0.525,0.101 -0.525,0.56 0,0.137 0.001,0.517 0.001,0.517 h 2.364 c 0,0.777 -0.831,1.42 -1.852,1.42 -1.02,0 -1.849,-0.629 -1.849,-1.406 0,-0.776 0.829,-1.406 1.849,-1.406 0.847,0 1.563,0.436 1.782,1.027 L 0.961,-1.247 c 0,0 0,-0.01 0,-0.151" /></g><g
           transform="translate(115.3857,106.4852)"
           id="g196"><path
             id="path198"
             style="fill:#333333;fill-opacity:1;fill-rule:nonzero;stroke:none"
             d="M 0,0 V 3.412 H -1.257 V 0 -0.372 H 0 1.36 V 0 Z" /></g><g
           transform="translate(136.7479,107.7006)"
           id="g200"><path
             id="path202"
             style="fill:#333333;fill-opacity:1;fill-rule:nonzero;stroke:none"
             d="M 0,0 H 1.23 C 1.104,0.808 0.264,1.043 -0.168,1.032 -0.582,1.021 -0.928,0.86 -1.169,0.654 c -10e-4,0.062 0,0.264 0,0.264 L -2.415,0.917 -2.416,-1.588 h 1.247 c 0,0 -10e-4,1.539 -10e-4,1.645 0,0.218 0.254,0.461 0.596,0.461 C -0.232,0.518 0,0.275 0,0.057 Z" /></g><g
           transform="translate(125.9749,108.1671)"
           id="g204"><path
             id="path206"
             style="fill:#333333;fill-opacity:1;fill-rule:nonzero;stroke:none"
             d="m 0,0 c 0,-0.388 -0.293,-0.487 -0.493,-0.487 -0.195,0 -0.491,0.099 -0.491,0.487 v 0.447 0.445 c 0,0.386 0.296,0.487 0.492,0.487 C -0.293,1.379 0,1.278 0,0.892 0,0.758 -0.001,0.445 -0.001,0.445 -0.001,0.445 0,0.128 0,0 m 1.331,0.419 c 0,0.872 -0.746,1.195 -0.858,1.242 -0.423,0.177 -0.965,0.178 -1.445,-0.094 0,0.023 -0.001,0.145 -0.001,0.145 h -1.241 v -3.766 h 1.239 v 1.386 c 0.005,-0.003 0.011,-0.005 0.016,-0.008 l 0.972,-1.378 h 1.23 L 0.366,-0.81 c 0.576,0.203 0.965,0.734 0.965,1.229" /></g><g
           transform="translate(121.9583,190.8086)"
           id="g208"><path
             id="path210"
             style="fill:#333333;fill-opacity:1;fill-rule:nonzero;stroke:none"
             d="M 0,0 V -8.49" /></g><path
           id="path212"
           style="fill:#8c8c8c;fill-opacity:1;fill-rule:nonzero;stroke:none"
           d="m 129,184 h -2 v 8 h 2 z" /><path
           id="path214"
           style="fill:#8c8c8c;fill-opacity:1;fill-rule:nonzero;stroke:none"
           d="m 125,184 h -2 v 8 h 2 z" /><path
           id="path216"
           style="fill:#8c8c8c;fill-opacity:1;fill-rule:nonzero;stroke:none"
           d="m 121,184 h -2 v 8 h 2 z" /></g></g></g></svg>