<?xml version="1.0" encoding="UTF-8" standalone="no"?>
<svg
   xmlns:dc="http://purl.org/dc/elements/1.1/"
   xmlns:cc="http://creativecommons.org/ns#"
   xmlns:rdf="http://www.w3.org/1999/02/22-rdf-syntax-ns#"
   xmlns:svg="http://www.w3.org/2000/svg"
   xmlns="http://www.w3.org/2000/svg"
   viewBox="0 0 341.33334 341.33334"
   height="256"
   width="256"
   xml:space="preserve"
   id="svg2"
   version="1.1"><metadata
     id="metadata8"><rdf:RDF><cc:Work
         rdf:about=""><dc:format>image/svg+xml</dc:format><dc:type
           rdf:resource="http://purl.org/dc/dcmitype/StillImage" /></cc:Work></rdf:RDF></metadata><defs
     id="defs6"><clipPath
       id="clipPath18"
       clipPathUnits="userSpaceOnUse"><path
         id="path16"
         d="M 0,256 H 256 V 0 H 0 Z" /></clipPath><clipPath
       id="clipPath26"
       clipPathUnits="userSpaceOnUse"><path
         id="path24"
         d="M 16,252 H 240 V 4 H 16 Z" /></clipPath></defs><g
     transform="matrix(1.3333333,0,0,-1.3333333,0,341.33333)"
     id="g10"><g
       id="g12"><g
         clip-path="url(#clipPath18)"
         id="g14"><g
           id="g20"><g
             id="g22" /><g
             id="g34"><g
               style="opacity:0.5"
               id="g32"
               clip-path="url(#clipPath26)"><g
                 id="g30"
                 transform="translate(230,252)"><path
                   id="path28"
                   style="fill:#ffffff;fill-opacity:1;fill-rule:nonzero;stroke:none"
                   d="m 0,0 h -204 c -5.514,0 -10,-4.486 -10,-10 v -188 c 0,-5.013 3.707,-9.176 8.523,-9.891 l -0.489,-29.946 c -0.043,-2.662 1.003,-5.278 2.87,-7.176 1.868,-1.898 4.466,-2.987 7.129,-2.987 L -12,-248 c 5.514,0 10,4.486 10,10 v 30 h 2 c 5.514,0 10,4.486 10,10 V -10 C 10,-4.486 5.514,0 0,0" /></g></g></g></g><g
           transform="translate(230,244)"
           id="g36"><path
             id="path38"
             style="fill:#808080;fill-opacity:1;fill-rule:nonzero;stroke:none"
             d="m 0,0 h -204 c -1.105,0 -2,-0.895 -2,-2 v -188 c 0,-1.105 0.895,-2 2,-2 h 6.653 l -0.62,-37.967 c -0.018,-1.118 0.883,-2.033 2,-2.033 L -12,-232 c 1.105,0 2,0.895 2,2 v 38 H 0 c 1.105,0 2,0.895 2,2 V -2 C 2,-0.895 1.105,0 0,0" /></g><path
           id="path40"
           style="fill:#737373;fill-opacity:1;fill-rule:nonzero;stroke:none"
           d="M 100,36 H 56 v 4 h 44 z" /><path
           id="path42"
           style="fill:#666666;fill-opacity:1;fill-rule:nonzero;stroke:none"
           d="M 100,40 H 56 v 4 h 44 z" /><path
           id="path44"
           style="fill:#737373;fill-opacity:1;fill-rule:nonzero;stroke:none"
           d="M 100,44 H 56 v 4 h 44 z" /><path
           id="path46"
           style="fill:#666666;fill-opacity:1;fill-rule:nonzero;stroke:none"
           d="M 100,48 H 56 v 4 h 44 z" /><path
           id="path48"
           style="fill:#737373;fill-opacity:1;fill-rule:nonzero;stroke:none"
           d="M 100,52 H 56 v 4 h 44 z" /><path
           id="path50"
           style="fill:#666666;fill-opacity:1;fill-rule:nonzero;stroke:none"
           d="M 100,56 H 56 v 4 h 44 z" /><path
           id="path52"
           style="fill:#737373;fill-opacity:1;fill-rule:nonzero;stroke:none"
           d="M 100,60 H 56 v 4 h 44 z" /><path
           id="path54"
           style="fill:#666666;fill-opacity:1;fill-rule:nonzero;stroke:none"
           d="M 100,64 H 56 v 4 h 44 z" /><path
           id="path56"
           style="fill:#737373;fill-opacity:1;fill-rule:nonzero;stroke:none"
           d="M 100,68 H 56 v 4 h 44 z" /><path
           id="path58"
           style="fill:#666666;fill-opacity:1;fill-rule:nonzero;stroke:none"
           d="M 100,72 H 56 v 4 h 44 z" /><path
           id="path60"
           style="fill:#737373;fill-opacity:1;fill-rule:nonzero;stroke:none"
           d="M 100,76 H 56 v 4 h 44 z" /><path
           id="path62"
           style="fill:#666666;fill-opacity:1;fill-rule:nonzero;stroke:none"
           d="M 100,80 H 56 v 4 h 44 z" /><path
           id="path64"
           style="fill:#737373;fill-opacity:1;fill-rule:nonzero;stroke:none"
           d="M 100,84 H 56 v 4 h 44 z" /><path
           id="path66"
           style="fill:#666666;fill-opacity:1;fill-rule:nonzero;stroke:none"
           d="M 100,88 H 56 v 4 h 44 z" /><path
           id="path68"
           style="fill:#737373;fill-opacity:1;fill-rule:nonzero;stroke:none"
           d="M 100,92 H 56 v 4 h 44 z" /><path
           id="path70"
           style="fill:#666666;fill-opacity:1;fill-rule:nonzero;stroke:none"
           d="M 100,96 H 56 v 4 h 44 z" /><path
           id="path72"
           style="fill:#737373;fill-opacity:1;fill-rule:nonzero;stroke:none"
           d="M 100,100 H 56 v 4 h 44 z" /><path
           id="path74"
           style="fill:#666666;fill-opacity:1;fill-rule:nonzero;stroke:none"
           d="M 100,104 H 56 v 4 h 44 z" /><path
           id="path76"
           style="fill:#737373;fill-opacity:1;fill-rule:nonzero;stroke:none"
           d="M 100,108 H 56 v 4 h 44 z" /><path
           id="path78"
           style="fill:#666666;fill-opacity:1;fill-rule:nonzero;stroke:none"
           d="M 100,112 H 56 v 4 h 44 z" /><path
           id="path80"
           style="fill:#737373;fill-opacity:1;fill-rule:nonzero;stroke:none"
           d="M 100,116 H 56 v 4 h 44 z" /><path
           id="path82"
           style="fill:#666666;fill-opacity:1;fill-rule:nonzero;stroke:none"
           d="M 100,120 H 56 v 4 h 44 z" /><path
           id="path84"
           style="fill:#737373;fill-opacity:1;fill-rule:nonzero;stroke:none"
           d="M 100,124 H 56 v 4 h 44 z" /><path
           id="path86"
           style="fill:#666666;fill-opacity:1;fill-rule:nonzero;stroke:none"
           d="M 100,128 H 56 v 4 h 44 z" /><path
           id="path88"
           style="fill:#737373;fill-opacity:1;fill-rule:nonzero;stroke:none"
           d="M 100,132 H 56 v 4 h 44 z" /><path
           id="path90"
           style="fill:#666666;fill-opacity:1;fill-rule:nonzero;stroke:none"
           d="M 100,136 H 56 v 4 h 44 z" /><path
           id="path92"
           style="fill:#737373;fill-opacity:1;fill-rule:nonzero;stroke:none"
           d="M 100,140 H 56 v 4 h 44 z" /><path
           id="path94"
           style="fill:#666666;fill-opacity:1;fill-rule:nonzero;stroke:none"
           d="M 100,144 H 56 v 4 h 44 z" /><path
           id="path96"
           style="fill:#737373;fill-opacity:1;fill-rule:nonzero;stroke:none"
           d="M 100,148 H 56 v 4 h 44 z" /><path
           id="path98"
           style="fill:#666666;fill-opacity:1;fill-rule:nonzero;stroke:none"
           d="M 100,152 H 56 v 4 h 44 z" /><path
           id="path100"
           style="fill:#737373;fill-opacity:1;fill-rule:nonzero;stroke:none"
           d="M 100,156 H 56 v 4 h 44 z" /><path
           id="path102"
           style="fill:#666666;fill-opacity:1;fill-rule:nonzero;stroke:none"
           d="M 100,160 H 56 v 4 h 44 z" /><path
           id="path104"
           style="fill:#737373;fill-opacity:1;fill-rule:nonzero;stroke:none"
           d="M 100,164 H 56 v 4 h 44 z" /><path
           id="path106"
           style="fill:#666666;fill-opacity:1;fill-rule:nonzero;stroke:none"
           d="M 100,168 H 56 v 4 h 44 z" /><path
           id="path108"
           style="fill:#737373;fill-opacity:1;fill-rule:nonzero;stroke:none"
           d="M 100,172 H 56 v 4 h 44 z" /><path
           id="path110"
           style="fill:#666666;fill-opacity:1;fill-rule:nonzero;stroke:none"
           d="M 100,176 H 56 v 4 h 44 z" /><path
           id="path112"
           style="fill:#737373;fill-opacity:1;fill-rule:nonzero;stroke:none"
           d="M 100,180 H 56 v 4 h 44 z" /><path
           id="path114"
           style="fill:#666666;fill-opacity:1;fill-rule:nonzero;stroke:none"
           d="M 100,184 H 56 v 4 h 44 z" /><path
           id="path116"
           style="fill:#737373;fill-opacity:1;fill-rule:nonzero;stroke:none"
           d="M 100,188 H 56 v 4 h 44 z" /><path
           id="path118"
           style="fill:#666666;fill-opacity:1;fill-rule:nonzero;stroke:none"
           d="M 100,192 H 56 v 4 h 44 z" /><path
           id="path120"
           style="fill:#737373;fill-opacity:1;fill-rule:nonzero;stroke:none"
           d="M 100,196 H 56 v 4 h 44 z" /><path
           id="path122"
           style="fill:#666666;fill-opacity:1;fill-rule:nonzero;stroke:none"
           d="M 100,200 H 56 v 4 h 44 z" /><path
           id="path124"
           style="fill:#737373;fill-opacity:1;fill-rule:nonzero;stroke:none"
           d="M 100,204 H 56 v 4 h 44 z" /><path
           id="path126"
           style="fill:#595959;fill-opacity:1;fill-rule:nonzero;stroke:none"
           d="M 100,208 H 56 v 4 h 44 z" /><path
           id="path128"
           style="fill:#4c4c4c;fill-opacity:1;fill-rule:nonzero;stroke:none"
           d="M 100,212 H 56 v 4 h 44 z" /><path
           id="path130"
           style="fill:#595959;fill-opacity:1;fill-rule:nonzero;stroke:none"
           d="M 100,216 H 56 v 4 h 44 z" /><path
           id="path132"
           style="fill:#4c4c4c;fill-opacity:1;fill-rule:nonzero;stroke:none"
           d="M 100,220 H 56 v 4 h 44 z" /><path
           id="path134"
           style="fill:#595959;fill-opacity:1;fill-rule:nonzero;stroke:none"
           d="M 100,224 H 56 v 4 h 44 z" /><path
           id="path136"
           style="fill:#4c4c4c;fill-opacity:1;fill-rule:nonzero;stroke:none"
           d="M 100,228 H 56 v 4 h 44 z" /><path
           id="path138"
           style="fill:#595959;fill-opacity:1;fill-rule:nonzero;stroke:none"
           d="M 100,232 H 56 v 4 h 44 z" /><path
           id="path140"
           style="fill:#595959;fill-opacity:1;fill-rule:nonzero;stroke:none"
           d="M 100,240 H 56 v 4 h 44 z" /><path
           id="path142"
           style="fill:#4c4c4c;fill-opacity:1;fill-rule:nonzero;stroke:none"
           d="M 100,236 H 56 v 4 h 44 z" /><path
           id="path144"
           style="fill:#737373;fill-opacity:1;fill-rule:nonzero;stroke:none"
           d="M 100,12 H 56 v 24.33 h 44 z" /><g
           transform="translate(203,88)"
           id="g146"><path
             id="path148"
             style="fill:#191919;fill-opacity:1;fill-rule:nonzero;stroke:none"
             d="m 0,0 h -94 c -0.552,0 -1,0.448 -1,1 V 156 H 1 V 1 C 1,0.448 0.552,0 0,0" /></g><path
           id="path150"
           style="fill:#666666;fill-opacity:1;fill-rule:nonzero;stroke:none"
           d="m 224,240 h -12 v 4 h 12 z" /><path
           id="path152"
           style="fill:#666666;fill-opacity:1;fill-rule:nonzero;stroke:none"
           d="M 44,240 H 32 v 4 h 12 z" /><g
           transform="translate(128,56)"
           id="g154"><path
             id="path156"
             style="fill:#737373;fill-opacity:1;fill-rule:nonzero;stroke:none"
             d="M 0,0 -10,16 H 10 Z" /></g><g
           transform="translate(147.8935,151.3145)"
           id="g158"><path
             id="path160"
             style="fill:#b80000;fill-opacity:1;fill-rule:nonzero;stroke:none"
             d="m 0,0 -26.425,-5.988 c -2.23,-0.515 -3.893,0.833 -4.27,2.863 -0.377,2.031 0.683,3.982 2.905,4.491 L -1.365,7.354 C 0.86,7.853 2.528,6.52 2.905,4.489 3.282,2.459 2.234,0.497 0,0 M -1.575,8.555 -28.026,2.561 c -2.8,-0.627 -4.268,-3.276 -3.773,-5.943 0.495,-2.665 2.779,-4.438 5.587,-3.803 l 26.443,5.992 c 2.807,0.637 4.275,3.26 3.781,5.926 -0.495,2.666 -2.788,4.463 -5.587,3.822" /></g><g
           transform="translate(137.8185,154.7592)"
           id="g162"><path
             id="path164"
             style="fill:#b80000;fill-opacity:1;fill-rule:nonzero;stroke:none"
             d="M 0,0 1.25,0.283 1.364,-0.334 2.04,-0.181 2.124,-0.635 1.448,-0.788 2.015,-3.834 0.763,-4.117 0.199,-1.072 -0.48,-1.225 l -0.084,0.453 0.68,0.154 z" /></g><g
           transform="translate(123.379,150.3765)"
           id="g166"><path
             id="path168"
             style="fill:#b80000;fill-opacity:1;fill-rule:nonzero;stroke:none"
             d="M 0,0 1.249,0.283 1.815,-2.768 0.566,-3.051 Z" /></g><g
           transform="translate(123.0903,151.9145)"
           id="g170"><path
             id="path172"
             style="fill:#b80000;fill-opacity:1;fill-rule:nonzero;stroke:none"
             d="M 0,0 1.252,0.284 1.426,-0.654 0.174,-0.938 Z" /></g><g
           transform="translate(146.5934,154.1813)"
           id="g174"><path
             id="path176"
             style="fill:#b80000;fill-opacity:1;fill-rule:nonzero;stroke:none"
             d="m 0,0 c 0,0 0,0 0,0 0.002,-0.009 0.085,-0.462 0.119,-0.645 0.09,-0.486 -0.133,-0.746 -0.384,-0.802 -0.249,-0.057 -0.548,0.084 -0.638,0.571 -0.034,0.184 -0.122,0.657 -0.122,0.657 0,0 -0.083,0.452 -0.117,0.637 -0.09,0.484 0.134,0.742 0.383,0.799 0.25,0.056 0.548,-0.084 0.637,-0.568 C -0.087,0.465 -0.024,0.123 0,0 V 0.001 Z M -0.819,1.597 C -1.827,1.368 -2.502,0.416 -2.327,-0.53 c 0.176,-0.946 1.136,-1.528 2.144,-1.3 1.008,0.229 1.682,1.181 1.507,2.128 -0.176,0.945 -1.135,1.527 -2.143,1.299" /></g><g
           transform="translate(126.7747,150.1501)"
           id="g178"><path
             id="path180"
             style="fill:#b80000;fill-opacity:1;fill-rule:nonzero;stroke:none"
             d="m 0,0 c -0.088,0.473 0.185,0.66 0.379,0.704 0.199,0.045 0.512,-0.009 0.6,-0.482 0.029,-0.156 0.1,-0.543 0.1,-0.543 0,0 0.072,-0.381 0.102,-0.544 C 1.268,-1.335 1,-1.525 0.802,-1.57 0.607,-1.614 0.289,-1.557 0.202,-1.087 0.165,-0.89 0.101,-0.545 0.101,-0.545 0.101,-0.545 0.03,-0.161 0,0 m -1.688,2.225 0.851,-4.588 1.236,0.28 c 0,0 -0.027,0.149 -0.032,0.176 0.539,-0.223 1.078,-0.099 1.458,0.211 0.101,0.084 0.77,0.645 0.573,1.707 C 2.249,0.816 1.397,1.541 0.514,1.249 0.223,1.153 0.034,0.986 -0.142,0.816 -0.273,1.523 -0.455,2.505 -0.455,2.505 Z" /></g><g
           transform="translate(135.0786,152.6696)"
           id="g182"><path
             id="path184"
             style="fill:#b80000;fill-opacity:1;fill-rule:nonzero;stroke:none"
             d="m 0,0 c 0.062,0.21 0.225,0.341 0.387,0.378 v 0 H 0.388 0.387 C 0.551,0.414 0.747,0.365 0.879,0.199 0.986,0.065 1.023,-0.113 1.071,-0.381 L 0.028,-0.618 C -0.024,-0.35 -0.052,-0.17 0,0 M 1.273,-1.487 C 1.376,-2.046 1.067,-2.245 0.882,-2.286 0.698,-2.328 0.337,-2.281 0.233,-1.722 c -0.031,0.167 -0.116,0.63 -0.116,0.63 0,0 2.353,0.531 2.353,0.533 -0.176,0.946 -1.149,1.543 -2.164,1.313 -1.015,-0.23 -1.697,-1.184 -1.521,-2.131 0.175,-0.945 1.142,-1.526 2.157,-1.296 0.842,0.191 1.456,0.884 1.539,1.653 L 1.237,-1.303 c 0,0 0.004,-0.012 0.036,-0.184" /></g><g
           transform="translate(121.793,147.31)"
           id="g186"><path
             id="path188"
             style="fill:#b80000;fill-opacity:1;fill-rule:nonzero;stroke:none"
             d="m 0,0 -0.772,4.157 -1.25,-0.283 0.771,-4.157 0.085,-0.454 1.25,0.284 1.353,0.306 -0.084,0.454 z" /></g><g
           transform="translate(142.7679,153.6062)"
           id="g190"><path
             id="path192"
             style="fill:#b80000;fill-opacity:1;fill-rule:nonzero;stroke:none"
             d="M 0,0 1.224,0.277 C 0.915,1.234 0.027,1.33 -0.4,1.22 -0.81,1.113 -1.118,0.839 -1.31,0.533 -1.325,0.608 -1.37,0.855 -1.37,0.855 l -1.239,-0.282 0.565,-3.052 1.24,0.281 c 0,0 -0.348,1.874 -0.372,2.004 -0.05,0.265 0.148,0.619 0.488,0.696 0.34,0.077 0.626,-0.167 0.675,-0.433 C -0.01,0.055 -0.006,0.031 0,0" /></g><g
           transform="translate(130.8658,152.0694)"
           id="g194"><path
             id="path196"
             style="fill:#b80000;fill-opacity:1;fill-rule:nonzero;stroke:none"
             d="m 0,0 c 0,0 -0.064,0.345 -0.101,0.542 -0.087,0.47 0.186,0.661 0.38,0.705 0.198,0.045 0.512,-0.013 0.6,-0.484 0.03,-0.162 0.1,-0.544 0.1,-0.544 0,0 0.072,-0.386 0.101,-0.542 C 1.168,-0.796 0.899,-0.982 0.7,-1.027 0.507,-1.071 0.189,-1.018 0.101,-0.545 0.071,-0.384 0,0 0,0 M 2.31,0.488 C 2.113,1.55 1.298,1.775 1.175,1.808 c -0.461,0.12 -1,-0.001 -1.416,-0.44 -0.005,0.027 -0.034,0.176 -0.034,0.176 l -1.235,-0.28 0.852,-4.589 1.233,0.279 c 0,0 -0.182,0.983 -0.313,1.689 0.005,-0.002 0.011,-0.004 0.017,-0.006 l 1.279,-1.46 1.224,0.277 -1.154,1.318 c 0.527,0.378 0.794,1.112 0.682,1.716" /></g><g
           transform="translate(156.0475,162.1873)"
           id="g198"><path
             id="path200"
             style="fill:#eac500;fill-opacity:1;fill-rule:nonzero;stroke:none"
             d="M 0,0 3.62,0.89 3.604,-0.054 0.997,-0.695 0.977,-1.851 3.363,-1.265 3.348,-2.194 0.961,-2.781 0.938,-4.178 3.671,-3.506 3.654,-4.511 -0.091,-5.432 Z" /></g><g
           transform="translate(160.5767,163.3009)"
           id="g202"><path
             id="path204"
             style="fill:#eac500;fill-opacity:1;fill-rule:nonzero;stroke:none"
             d="M 0,0 1.519,0.373 2.441,-3.515 3.488,0.858 5.014,1.233 4.923,-4.199 3.959,-4.436 4.032,-0.054 2.946,-4.685 1.899,-4.943 0.946,-0.813 0.873,-5.195 -0.091,-5.432 Z" /></g><g
           transform="translate(167.6309,165.0503)"
           id="g206"><path
             id="path208"
             style="fill:#eac500;fill-opacity:1;fill-rule:nonzero;stroke:none"
             d="m 0,0 -0.057,-3.407 c -0.014,-0.816 0.257,-1.141 0.943,-0.972 0.694,0.17 0.978,0.624 0.992,1.447 L 1.935,0.476 2.961,0.728 2.902,-2.8 C 2.879,-4.145 2.153,-5.046 0.877,-5.359 c -1.29,-0.318 -1.993,0.232 -1.97,1.577 l 0.059,3.528 z" /></g><g
           transform="translate(171.5981,166.0108)"
           id="g210"><path
             id="path212"
             style="fill:#eac500;fill-opacity:1;fill-rule:nonzero;stroke:none"
             d="M 0,0 1.026,0.252 0.952,-4.175 3.386,-3.576 3.369,-4.581 -0.091,-5.432 Z" /></g><g
           transform="translate(176.729,163.8865)"
           id="g214"><path
             id="path216"
             style="fill:#eac500;fill-opacity:1;fill-rule:nonzero;stroke:none"
             d="M 0,0 1.387,0.341 0.732,2.482 Z M 1.34,3.715 3.046,-1.275 1.97,-1.539 1.649,-0.505 -0.286,-0.981 -0.631,-2.179 -1.713,-2.445 0.154,3.424 Z" /></g><g
           transform="translate(181.1384,167.3936)"
           id="g218"><path
             id="path220"
             style="fill:#eac500;fill-opacity:1;fill-rule:nonzero;stroke:none"
             d="M 0,0 -1.477,-0.363 -1.461,0.604 2.513,1.581 2.497,0.614 1.026,0.252 0.951,-4.213 -0.075,-4.465 Z" /></g><g
           transform="translate(184.2759,169.1281)"
           id="g222"><path
             id="path224"
             style="fill:#eac500;fill-opacity:1;fill-rule:nonzero;stroke:none"
             d="M 0,0 1.027,0.252 0.936,-5.18 -0.091,-5.432 Z" /></g><g
           transform="translate(188.5126,165.5801)"
           id="g226"><path
             id="path228"
             style="fill:#eac500;fill-opacity:1;fill-rule:nonzero;stroke:none"
             d="M 0,0 C 0.874,0.215 1.412,1.024 1.433,2.233 1.453,3.442 0.937,3.993 0.064,3.778 -0.803,3.565 -1.335,2.757 -1.355,1.548 -1.376,0.339 -0.867,-0.213 0,0 M 0.08,4.752 C 1.571,5.119 2.502,4.242 2.473,2.489 2.443,0.736 1.475,-0.608 -0.016,-0.974 -1.508,-1.341 -2.433,-0.463 -2.403,1.29 -2.374,3.043 -1.412,4.385 0.08,4.752" /></g><g
           transform="translate(191.8432,170.9887)"
           id="g230"><path
             id="path232"
             style="fill:#eac500;fill-opacity:1;fill-rule:nonzero;stroke:none"
             d="M 0,0 1.075,0.264 3.037,-2.97 3.1,0.762 4.113,1.011 4.022,-4.421 2.96,-4.682 0.984,-1.451 0.921,-5.183 -0.091,-5.432 Z" /></g><g
           transform="translate(163.9147,153.6644)"
           id="g234"><path
             id="path236"
             style="fill:#eac500;fill-opacity:1;fill-rule:nonzero;stroke:none"
             d="m 0,0 c 0.066,-0.586 0.436,-0.766 1.123,-0.597 0.603,0.148 0.905,0.456 0.913,0.91 C 2.044,0.811 1.63,0.807 0.718,0.809 0.318,0.808 -0.056,0.791 -0.378,0.938 -0.728,1.092 -0.908,1.47 -0.898,2.036 -0.88,3.086 -0.205,3.839 1.051,4.148 2.223,4.436 2.892,3.969 2.908,2.889 L 1.923,2.647 C 1.897,3.168 1.563,3.364 0.945,3.212 0.404,3.079 0.102,2.764 0.095,2.348 0.086,1.834 0.468,1.928 1.289,1.904 1.759,1.892 2.145,1.882 2.454,1.77 2.859,1.621 3.054,1.262 3.044,0.703 3.025,-0.415 2.3,-1.255 1.01,-1.573 c -1.27,-0.312 -1.986,0.182 -2.022,1.324 z" /></g><g
           transform="translate(168.9359,153.2286)"
           id="g238"><path
             id="path240"
             style="fill:#eac500;fill-opacity:1;fill-rule:nonzero;stroke:none"
             d="M 0,0 0.034,2.025 -1.719,4.987 -0.464,5.296 0.565,3.216 1.59,5.801 2.761,6.089 1.06,2.277 1.026,0.252 Z" /></g><g
           transform="translate(172.8552,155.8627)"
           id="g242"><path
             id="path244"
             style="fill:#eac500;fill-opacity:1;fill-rule:nonzero;stroke:none"
             d="m 0,0 c 0.066,-0.586 0.436,-0.766 1.123,-0.597 0.603,0.148 0.905,0.456 0.913,0.91 C 2.044,0.811 1.63,0.807 0.718,0.809 0.318,0.808 -0.055,0.791 -0.378,0.938 -0.728,1.092 -0.908,1.47 -0.898,2.036 -0.88,3.086 -0.205,3.839 1.051,4.148 2.223,4.436 2.892,3.969 2.908,2.889 L 1.923,2.647 C 1.897,3.168 1.563,3.364 0.945,3.212 0.404,3.079 0.102,2.764 0.095,2.348 0.086,1.834 0.468,1.928 1.289,1.904 1.759,1.892 2.145,1.882 2.454,1.77 2.859,1.621 3.054,1.262 3.044,0.703 3.025,-0.415 2.3,-1.255 1.01,-1.573 c -1.27,-0.312 -1.986,0.182 -2.022,1.324 z" /></g><g
           transform="translate(177.7782,159.8494)"
           id="g246"><path
             id="path248"
             style="fill:#eac500;fill-opacity:1;fill-rule:nonzero;stroke:none"
             d="M 0,0 -1.477,-0.363 -1.461,0.604 2.513,1.581 2.497,0.614 1.026,0.252 0.951,-4.213 -0.075,-4.465 Z" /></g><g
           transform="translate(180.8813,161.5755)"
           id="g250"><path
             id="path252"
             style="fill:#eac500;fill-opacity:1;fill-rule:nonzero;stroke:none"
             d="M 0,0 3.62,0.89 3.604,-0.054 0.997,-0.695 0.977,-1.851 3.363,-1.265 3.348,-2.194 0.961,-2.781 0.938,-4.178 3.671,-3.506 3.654,-4.511 -0.091,-5.432 Z" /></g><g
           transform="translate(185.4106,162.6891)"
           id="g254"><path
             id="path256"
             style="fill:#eac500;fill-opacity:1;fill-rule:nonzero;stroke:none"
             d="M 0,0 1.519,0.373 2.441,-3.515 3.488,0.858 5.014,1.233 4.923,-4.199 3.959,-4.436 4.032,-0.054 2.946,-4.685 1.899,-4.943 0.946,-0.813 0.873,-5.195 -0.091,-5.432 Z" /></g><g
           transform="translate(188,130.0863)"
           id="g258"><path
             id="path260"
             style="fill:#a3834a;fill-opacity:1;fill-rule:nonzero;stroke:none"
             d="m 0,0 1.58,1.914 1.031,-2.258 2.021,1.44 0.411,-2.447 2.325,0.867 -0.236,-2.47 2.47,0.236 -0.867,-2.325 2.447,-0.411 -1.439,-2.022 2.257,-1.03 -1.914,-1.58 1.914,-1.58 -2.257,-1.031 1.439,-2.021 -2.447,-0.411 0.867,-2.325 -2.47,0.236 0.236,-2.471 -2.325,0.868 -0.411,-2.448 -2.021,1.44 -1.031,-2.257 -1.58,1.913 -1.58,-1.913 -1.031,2.257 -2.021,-1.44 -0.411,2.448 -2.325,-0.868 0.236,2.471 -2.47,-0.236 0.867,2.325 -2.447,0.411 1.439,2.021 -2.257,1.031 1.914,1.58 -1.914,1.58 2.257,1.03 -1.439,2.022 2.447,0.411 -0.867,2.325 2.47,-0.236 -0.236,2.47 2.325,-0.867 0.411,2.447 2.021,-1.44 1.031,2.258 z" /></g><g
           transform="translate(197.5829,120)"
           id="g262"><path
             id="path264"
             style="fill:#191919;fill-opacity:1;fill-rule:nonzero;stroke:none"
             d="m 0,0 c 0,-5.292 -4.29,-9.583 -9.583,-9.583 -5.292,0 -9.583,4.291 -9.583,9.583 0,5.292 4.291,9.583 9.583,9.583 C -4.29,9.583 0,5.292 0,0" /></g><g
           transform="translate(188,128.8423)"
           id="g266"><path
             id="path268"
             style="fill:#a3834a;fill-opacity:1;fill-rule:nonzero;stroke:none"
             d="m 0,0 c -4.883,0 -8.842,-3.959 -8.842,-8.842 0,-4.884 3.959,-8.843 8.842,-8.843 4.883,0 8.842,3.959 8.842,8.843 C 8.842,-3.959 4.883,0 0,0 m 0,-0.403 c 4.653,0 8.439,-3.786 8.439,-8.439 0,-4.654 -3.786,-8.439 -8.439,-8.439 -4.653,0 -8.439,3.785 -8.439,8.439 0,4.653 3.786,8.439 8.439,8.439" /></g><g
           transform="translate(193.7516,118.6088)"
           id="g270"><path
             id="path272"
             style="fill:#a3834a;fill-opacity:1;fill-rule:nonzero;stroke:none"
             d="m 0,0 h -11.553 c -0.975,-0.004 -1.568,0.651 -1.568,1.455 0,0.803 0.596,1.453 1.568,1.455 H 0 C 0.972,2.908 1.568,2.258 1.568,1.455 1.568,0.651 0.976,-0.004 0,0 m 0.005,3.384 h -11.564 c -1.223,0.003 -2.045,-0.877 -2.045,-1.932 0,-1.055 0.82,-1.924 2.047,-1.925 H 0.004 c 1.227,0.001 2.048,0.87 2.048,1.925 0,1.055 -0.823,1.935 -2.047,1.932" /></g><g
           transform="translate(189.793,120.7835)"
           id="g274"><path
             id="path276"
             style="fill:#a3834a;fill-opacity:1;fill-rule:nonzero;stroke:none"
             d="m 0,0 h 0.546 v -0.244 h 0.296 v -0.18 H 0.546 L 0.547,-1.629 H 0 v 1.205 h -0.297 v 0.179 H 0 Z" /></g><path
           id="path278"
           style="fill:#a3834a;fill-opacity:1;fill-rule:nonzero;stroke:none"
           d="m 183.394,120.362 h 0.546 v -1.207 h -0.546 z" /><path
           id="path280"
           style="fill:#a3834a;fill-opacity:1;fill-rule:nonzero;stroke:none"
           d="m 183.392,120.971 h 0.547 V 120.6 h -0.547 z" /><g
           transform="translate(193.4294,119.8091)"
           id="g282"><path
             id="path284"
             style="fill:#a3834a;fill-opacity:1;fill-rule:nonzero;stroke:none"
             d="m 0,0 v 0 c 0,-0.004 0,-0.183 0,-0.255 0,-0.193 -0.114,-0.272 -0.224,-0.272 -0.109,0 -0.223,0.079 -0.223,0.272 v 0.26 c 0,0 0,0.179 0,0.252 0,0.191 0.114,0.27 0.223,0.27 C -0.115,0.527 0,0.448 0,0.257 0,0.184 0,0.049 0,0 Z m -0.219,0.677 c -0.441,0 -0.798,-0.304 -0.798,-0.678 0,-0.375 0.357,-0.678 0.798,-0.678 0.441,0 0.797,0.303 0.797,0.678 0,0.374 -0.356,0.678 -0.797,0.678" /></g><g
           transform="translate(184.8007,119.9837)"
           id="g286"><path
             id="path288"
             style="fill:#a3834a;fill-opacity:1;fill-rule:nonzero;stroke:none"
             d="m 0,0 c 0,0.187 0.129,0.235 0.214,0.235 0.087,0 0.214,-0.048 0.214,-0.235 0,-0.062 0,-0.215 0,-0.215 0,0 0,-0.151 0,-0.215 0,-0.186 -0.127,-0.235 -0.214,-0.235 C 0.129,-0.665 0,-0.616 0,-0.43 v 0.214 z m -0.535,0.99 v -1.815 h 0.54 c 0,0 0,0.059 0,0.069 0.209,-0.131 0.445,-0.13 0.629,-0.045 0.049,0.023 0.373,0.179 0.373,0.599 0,0.318 -0.301,0.667 -0.694,0.632 C 0.183,0.419 0.091,0.371 0.004,0.322 V 0.99 Z" /></g><g
           transform="translate(188.4807,120.2259)"
           id="g290"><path
             id="path292"
             style="fill:#a3834a;fill-opacity:1;fill-rule:nonzero;stroke:none"
             d="m 0,0 c 0.043,0.074 0.121,0.11 0.192,0.11 v 0 0 0 C 0.263,0.11 0.342,0.074 0.384,0 0.419,-0.06 0.42,-0.131 0.419,-0.237 H -0.036 C -0.037,-0.131 -0.035,-0.06 0,0 m 0.418,-0.674 c 0,-0.221 -0.145,-0.27 -0.226,-0.27 -0.081,0 -0.228,0.049 -0.228,0.27 0,0.066 0,0.249 0,0.249 0,0 1.029,0 1.029,0 0,0.375 -0.362,0.685 -0.806,0.685 -0.444,0 -0.804,-0.303 -0.804,-0.678 0,-0.374 0.36,-0.678 0.804,-0.678 0.368,0 0.68,0.21 0.775,0.495 H 0.418 c 0,0 0,-0.005 0,-0.073" /></g><g
           transform="translate(182.4895,119.334)"
           id="g294"><path
             id="path296"
             style="fill:#a3834a;fill-opacity:1;fill-rule:nonzero;stroke:none"
             d="M 0,0 V 1.645 H -0.547 V 0 -0.179 H 0 0.592 V 0 Z" /></g><g
           transform="translate(191.7796,119.9199)"
           id="g298"><path
             id="path300"
             style="fill:#a3834a;fill-opacity:1;fill-rule:nonzero;stroke:none"
             d="M 0,0 H 0.535 C 0.48,0.39 0.115,0.503 -0.073,0.498 -0.253,0.492 -0.404,0.415 -0.508,0.315 c -0.001,0.03 0,0.127 0,0.127 H -1.05 v -1.207 h 0.542 c 0,0 -0.001,0.741 -0.001,0.792 0,0.105 0.111,0.223 0.259,0.223 C -0.101,0.25 0,0.132 0,0.027 Z" /></g><g
           transform="translate(186.6666,120.3604)"
           id="g302"><path
             id="path304"
             style="fill:#a3834a;fill-opacity:1;fill-rule:nonzero;stroke:none"
             d="m 0,0 v 0.214 c 0,0.186 0.129,0.235 0.214,0.235 0.087,0 0.214,-0.049 0.214,-0.235 0,-0.064 0,-0.215 0,-0.215 0,0 0,-0.153 0,-0.215 C 0.428,-0.403 0.301,-0.45 0.214,-0.45 0.129,-0.45 0,-0.403 0,-0.216 Z M 1.007,-0.014 C 1.007,0.407 0.683,0.562 0.634,0.585 0.45,0.67 0.214,0.671 0.005,0.54 c 0,0.011 0,0.07 0,0.07 h -0.54 v -1.816 h 0.539 v 0.668 C 0.006,-0.539 0.009,-0.54 0.011,-0.542 l 0.423,-0.664 h 0.535 l -0.382,0.6 c 0.251,0.098 0.42,0.354 0.42,0.592" /></g><g
           transform="translate(112.5966,108.6178)"
           id="g306"><path
             id="path308"
             style="fill:#3096cf;fill-opacity:1;fill-rule:nonzero;stroke:none"
             d="M 0,0 H 17.608 L 26.529,30.598 0,25.79 Z M 18.061,-0.618 H -0.608 v 26.924 l 0.25,0.046 27.75,5.03 z" /></g><g
           transform="translate(132.4079,115.0886)"
           id="g310"><path
             id="path312"
             style="fill:#3096cf;fill-opacity:1;fill-rule:nonzero;stroke:none"
             d="M 0,0 -20.116,0.118 V -6.78 h 18.139 z" /></g><g
           transform="translate(127.4875,130.4815)"
           id="g314"><path
             id="path316"
             style="fill:#3096cf;fill-opacity:1;fill-rule:nonzero;stroke:none"
             d="m 0,0 -0.291,4.039 h -3.74 c -1.245,0 -2.308,-0.749 -2.377,-1.712 L -6.576,0 h -5.537 l -0.683,-3.537 c -0.251,-1.302 0.786,-2.408 2.33,-2.408 h 3.463 l -0.457,-6.354 h 5.207 c 1.733,0 3.038,1.392 2.92,3.02 L 0.428,-5.945 H 6.685 L 5.937,-2.068 C 5.712,-0.903 4.43,0 3.065,0 Z" /></g><g
           transform="translate(118.6811,125.9067)"
           id="g318"><path
             id="path320"
             style="fill:#191919;fill-opacity:1;fill-rule:nonzero;stroke:none"
             d="M 0,0 -1.831,1.784 0.378,3.445 Z" /></g><g
           transform="translate(124.1997,133.2186)"
           id="g322"><path
             id="path324"
             style="fill:#191919;fill-opacity:1;fill-rule:nonzero;stroke:none"
             d="M 0,0 1.854,-1.394 H -1.854 Z" /></g><g
           transform="translate(124.1997,120.5299)"
           id="g326"><path
             id="path328"
             style="fill:#191919;fill-opacity:1;fill-rule:nonzero;stroke:none"
             d="m 0,0 -2.235,2.177 h 4.47 z" /></g><g
           transform="translate(124.1997,125.8833)"
           id="g330"><path
             id="path332"
             style="fill:#191919;fill-opacity:1;fill-rule:nonzero;stroke:none"
             d="M 0,0 C -1.175,0 -2.094,0.825 -2.052,1.807 -2.012,2.751 -1.094,3.489 0,3.489 1.094,3.489 2.012,2.751 2.052,1.807 2.094,0.825 1.176,0 0,0" /></g><g
           transform="translate(129.7184,125.9067)"
           id="g334"><path
             id="path336"
             style="fill:#191919;fill-opacity:1;fill-rule:nonzero;stroke:none"
             d="M 0,0 -0.378,3.445 1.831,1.784 Z" /></g><g
           transform="translate(114.054,112.2396)"
           id="g338"><path
             id="path340"
             style="fill:#191919;fill-opacity:1;fill-rule:nonzero;stroke:none"
             d="m 0,0 c 0.247,0 0.33,0.084 0.33,0.337 0,0.24 -0.108,0.303 -0.366,0.303 H -0.247 V 0 Z m -0.658,0.956 h 0.765 c 0.46,0 0.652,-0.172 0.652,-0.593 0,-0.294 -0.113,-0.465 -0.323,-0.495 0.314,-0.082 0.308,-0.244 0.317,-0.536 l 0.012,-0.3 C 0.771,-1.116 0.796,-1.221 0.881,-1.305 H 0.375 c -0.03,0.096 -0.036,0.21 -0.039,0.352 L 0.33,-0.716 v 0.061 c 0,0.294 -0.125,0.342 -0.43,0.342 h -0.147 v -0.992 h -0.411 z" /></g><g
           transform="translate(115.1595,113.1955)"
           id="g342"><path
             id="path344"
             style="fill:#191919;fill-opacity:1;fill-rule:nonzero;stroke:none"
             d="M 0,0 H 1.176 V -0.376 H 0.424 v -0.523 h 0.7 v -0.358 h -0.7 V -1.879 H 1.195 V -2.261 H 0 Z" /></g><g
           transform="translate(116.9983,112.8225)"
           id="g346"><path
             id="path348"
             style="fill:#191919;fill-opacity:1;fill-rule:nonzero;stroke:none"
             d="M 0,0 H -0.491 V 0.373 H 0.917 V 0 H 0.426 V -1.888 H 0 Z" /></g><g
           transform="translate(118.8028,112.2396)"
           id="g350"><path
             id="path352"
             style="fill:#191919;fill-opacity:1;fill-rule:nonzero;stroke:none"
             d="m 0,0 c 0.247,0 0.33,0.084 0.33,0.337 0,0.24 -0.108,0.303 -0.366,0.303 H -0.247 V 0 Z m -0.658,0.956 h 0.765 c 0.46,0 0.652,-0.172 0.652,-0.593 0,-0.294 -0.113,-0.465 -0.323,-0.495 0.314,-0.082 0.308,-0.244 0.317,-0.536 l 0.012,-0.3 C 0.771,-1.116 0.796,-1.221 0.881,-1.305 H 0.375 c -0.03,0.096 -0.036,0.21 -0.039,0.352 L 0.33,-0.716 v 0.061 c 0,0.294 -0.125,0.342 -0.43,0.342 h -0.147 v -0.992 h -0.411 z" /></g><g
           transform="translate(120.6094,111.2168)"
           id="g354"><path
             id="path356"
             style="fill:#191919;fill-opacity:1;fill-rule:nonzero;stroke:none"
             d="m 0,0 c 0.293,0 0.304,0.259 0.304,0.849 0,0.589 -0.011,0.85 -0.307,0.85 -0.296,0 -0.308,-0.261 -0.308,-0.85 C -0.311,0.259 -0.296,0 0,0 m -0.606,1.747 c 0.14,0.214 0.313,0.286 0.603,0.286 C 0.286,2.033 0.46,1.961 0.6,1.747 0.704,1.588 0.74,1.293 0.74,0.849 0.74,0.406 0.704,0.109 0.6,-0.051 0.46,-0.264 0.286,-0.337 -0.003,-0.337 c -0.29,0 -0.463,0.073 -0.603,0.286 -0.104,0.156 -0.141,0.454 -0.141,0.9 0,0.444 0.037,0.742 0.141,0.898" /></g><g
           transform="translate(122.8499,111.7278)"
           id="g358"><path
             id="path360"
             style="fill:#191919;fill-opacity:1;fill-rule:nonzero;stroke:none"
             d="m 0,0 v -0.144 c 0,-0.244 0.04,-0.361 0.235,-0.361 0.182,0 0.277,0.094 0.277,0.268 0,0.162 -0.086,0.237 -0.262,0.36 L 0.03,0.277 c -0.292,0.201 -0.435,0.318 -0.435,0.638 0,0.378 0.244,0.607 0.643,0.607 0.423,0 0.658,-0.235 0.658,-0.664 0,-0.028 0,-0.055 -0.003,-0.082 H 0.488 v 0.06 c 0,0.24 -0.073,0.343 -0.263,0.343 -0.136,0 -0.219,-0.084 -0.219,-0.225 0,-0.145 0.104,-0.211 0.269,-0.32 L 0.509,0.478 c 0.301,-0.198 0.43,-0.351 0.43,-0.682 0,-0.409 -0.244,-0.644 -0.689,-0.644 -0.46,0 -0.683,0.232 -0.683,0.713 0,0.042 0.003,0.088 0.007,0.135 z" /></g><g
           transform="translate(124.1407,113.1955)"
           id="g362"><path
             id="path364"
             style="fill:#191919;fill-opacity:1;fill-rule:nonzero;stroke:none"
             d="M 0,0 H 1.176 V -0.376 H 0.424 v -0.523 h 0.7 v -0.358 h -0.7 V -1.879 H 1.195 V -2.261 H 0 Z" /></g><g
           transform="translate(126.3119,112.2396)"
           id="g366"><path
             id="path368"
             style="fill:#191919;fill-opacity:1;fill-rule:nonzero;stroke:none"
             d="m 0,0 c 0.247,0 0.329,0.084 0.329,0.337 0,0.24 -0.107,0.303 -0.366,0.303 h -0.21 V 0 Z m -0.658,0.956 h 0.764 c 0.46,0 0.652,-0.172 0.652,-0.593 0,-0.294 -0.113,-0.465 -0.323,-0.495 0.314,-0.082 0.308,-0.244 0.318,-0.536 l 0.011,-0.3 C 0.77,-1.116 0.795,-1.221 0.88,-1.305 H 0.374 c -0.03,0.096 -0.036,0.21 -0.039,0.352 l -0.006,0.237 v 0.061 c 0,0.294 -0.125,0.342 -0.43,0.342 h -0.146 v -0.992 h -0.411 z" /></g><path
           id="path370"
           style="fill:#191919;fill-opacity:1;fill-rule:nonzero;stroke:none"
           d="m 127.417,113.195 h 0.426 v -2.261 h -0.426 z" /><g
           transform="translate(128.2359,113.1955)"
           id="g372"><path
             id="path374"
             style="fill:#191919;fill-opacity:1;fill-rule:nonzero;stroke:none"
             d="M 0,0 H 1.176 V -0.376 H 0.424 v -0.523 h 0.7 v -0.358 h -0.7 V -1.879 H 1.195 V -2.261 H 0 Z" /></g><g
           transform="translate(130.1317,111.7278)"
           id="g376"><path
             id="path378"
             style="fill:#191919;fill-opacity:1;fill-rule:nonzero;stroke:none"
             d="m 0,0 v -0.144 c 0,-0.244 0.04,-0.361 0.235,-0.361 0.182,0 0.277,0.094 0.277,0.268 0,0.162 -0.086,0.237 -0.262,0.36 L 0.031,0.277 c -0.293,0.201 -0.436,0.318 -0.436,0.638 0,0.378 0.244,0.607 0.643,0.607 0.423,0 0.658,-0.235 0.658,-0.664 0,-0.028 0,-0.055 -0.003,-0.082 H 0.488 v 0.06 c 0,0.24 -0.073,0.343 -0.262,0.343 -0.137,0 -0.22,-0.084 -0.22,-0.225 0,-0.145 0.104,-0.211 0.268,-0.32 L 0.509,0.478 c 0.302,-0.198 0.43,-0.351 0.43,-0.682 0,-0.409 -0.244,-0.644 -0.689,-0.644 -0.46,0 -0.683,0.232 -0.683,0.713 0,0.042 0.003,0.088 0.007,0.135 z" /></g><g
           transform="translate(134.2934,95.9966)"
           id="g380"><path
             id="path382"
             style="fill:#b80000;fill-opacity:1;fill-rule:nonzero;stroke:none"
             d="m 0,0 c 0.626,0 1.252,-0.003 1.878,0.003 0.107,0.001 0.126,-0.033 0.125,-0.126 -0.005,-0.305 -0.007,-0.609 0,-0.914 0.002,-0.103 -0.033,-0.122 -0.13,-0.121 -0.809,0.003 -1.619,0 -2.428,0.004 -0.094,0 -0.135,-0.011 -0.139,-0.116 -0.005,-0.112 0.049,-0.117 0.137,-0.117 0.798,0.002 1.597,-0.002 2.396,0.004 0.125,0.001 0.17,-0.024 0.165,-0.157 C 1.994,-1.839 1.997,-2.138 2.003,-2.438 2.005,-2.542 1.977,-2.571 1.869,-2.57 1.06,-2.566 0.25,-2.568 -0.559,-2.569 c -0.04,0 -0.092,0.03 -0.115,-0.023 -0.027,-0.06 0.021,-0.099 0.059,-0.136 0.069,-0.066 0.156,-0.064 0.243,-0.064 0.734,10e-4 1.468,-0.003 2.202,0.004 0.135,10e-4 0.178,-0.035 0.174,-0.17 -0.01,-0.304 -0.006,-0.609 -0.002,-0.914 0.001,-0.08 -0.018,-0.111 -0.108,-0.11 -0.663,0.004 -1.327,-0.01 -1.991,0.006 -0.996,0.023 -1.87,0.864 -1.909,1.85 -0.027,0.678 -0.007,1.358 -0.013,2.037 C -2.02,0.017 -1.96,0 -1.894,0 -1.263,-0.001 -0.631,-0.001 0,-0.001 Z" /></g><g
           transform="translate(140.4291,94.6143)"
           id="g384"><path
             id="path386"
             style="fill:#b80000;fill-opacity:1;fill-rule:nonzero;stroke:none"
             d="m 0,0 c 0.104,0.001 0.144,-0.024 0.14,-0.134 -0.012,-0.319 0.017,-0.638 -0.06,-0.957 -0.194,-0.801 -0.972,-1.47 -1.811,-1.499 -0.679,-0.023 -1.36,-0.005 -2.04,-0.009 -0.102,-10e-4 -0.109,0.041 -0.108,0.126 0.006,0.304 0.01,0.609 0,0.914 -0.004,0.122 0.031,0.153 0.152,0.152 0.724,-0.005 1.447,-0.002 2.17,-0.003 0.095,0 0.183,0.01 0.252,0.083 0.032,0.034 0.049,0.072 0.031,0.117 -0.019,0.05 -0.061,0.026 -0.097,0.026 -0.788,-0.001 -1.576,10e-4 -2.364,-0.006 -0.127,-0.001 -0.15,0.038 -0.143,0.156 0.018,0.297 -0.014,0.596 0.058,0.893 0.214,0.869 0.998,1.505 1.909,1.519 0.647,0.011 1.295,0.002 1.943,0.007 C 0.124,1.386 0.14,1.351 0.139,1.273 0.136,0.963 0.133,0.653 0.14,0.343 0.143,0.234 0.098,0.225 0.008,0.225 c -0.794,0.002 -1.587,0.001 -2.381,0 -0.037,0 -0.076,0.004 -0.113,-0.002 C -2.577,0.207 -2.61,0.129 -2.612,0.058 -2.616,-0.033 -2.528,-0.002 -2.477,-0.002 -2.062,-0.005 -0.41,-0.005 0,0" /></g><g
           transform="translate(151.3562,93.8123)"
           id="g388"><path
             id="path390"
             style="fill:#eac500;fill-opacity:1;fill-rule:nonzero;stroke:none"
             d="M 0,0 C 0.151,0 0.302,-0.003 0.453,0.001 0.606,0.004 0.715,0.096 0.739,0.233 0.776,0.44 0.604,0.783 0.422,0.894 0.114,1.083 -0.223,1.033 -0.553,1.011 -0.683,1.003 -0.747,0.884 -0.75,0.753 -0.753,0.604 -0.753,0.454 -0.751,0.304 -0.748,0.107 -0.641,0.003 -0.437,0 -0.291,-0.001 -0.146,0 0,0 m -1.98,0.212 c 0,0.62 0.002,1.24 -0.003,1.86 0,0.094 0.026,0.115 0.118,0.114 0.626,-0.005 1.251,0 1.877,-0.004 C 1.167,2.176 2.051,1.277 2.036,0.131 2.032,-0.195 2.031,-0.521 2.038,-0.847 2.04,-0.937 2.023,-0.962 1.927,-0.961 c -0.771,0.005 -1.543,0.003 -2.314,0.003 -0.264,0 -0.36,-0.096 -0.365,-0.353 -0.003,-0.158 0.072,-0.375 -0.029,-0.458 -0.097,-0.08 -0.879,-0.023 -1.084,-0.028 -0.09,-0.002 -0.119,0.023 -0.118,0.117 0.005,0.631 0.002,1.261 0.003,1.892" /></g><g
           transform="translate(132.0183,94.0058)"
           id="g392"><path
             id="path394"
             style="fill:#b80000;fill-opacity:1;fill-rule:nonzero;stroke:none"
             d="m 0,0 c 0,-0.609 -0.005,-1.219 0.003,-1.828 0.002,-0.138 -0.042,-0.167 -0.171,-0.163 -0.313,0.009 -0.626,0.007 -0.939,0.001 -0.096,-0.002 -0.127,0.016 -0.126,0.12 0.005,0.786 0.003,1.572 0.003,2.358 0,0.255 -0.092,0.35 -0.351,0.345 -0.261,-0.005 -0.526,0.032 -0.774,-0.107 -0.269,-0.151 -0.357,-0.391 -0.36,-0.669 -0.008,-0.631 -0.008,-1.262 -0.001,-1.892 0.001,-0.129 -0.035,-0.16 -0.162,-0.157 -0.34,0.009 -0.68,0.005 -1.02,0.002 -0.085,-0.001 -0.121,0.013 -0.12,0.113 0.006,0.621 0.003,1.241 0.003,1.861 0,1.085 0.848,1.97 1.941,2.001 0.657,0.018 1.316,0.003 1.974,0.009 C 0.017,1.995 0,1.929 0,1.86 0.001,1.24 0.001,0.62 0.001,0 Z" /></g><g
           transform="translate(146.269,93.9438)"
           id="g396"><path
             id="path398"
             style="fill:#eac500;fill-opacity:1;fill-rule:nonzero;stroke:none"
             d="m 0,0 c -0.001,-0.463 0.372,-0.834 0.839,-0.836 0.464,-0.002 0.845,0.374 0.845,0.832 0,0.46 -0.376,0.834 -0.841,0.838 C 0.381,0.838 0.001,0.462 0,0 m -1.165,0.069 c 0.002,1.094 0.907,1.985 2.012,1.982 1.1,-0.002 2.005,-0.905 2.002,-1.995 -0.003,-1.088 -0.916,-1.987 -2.015,-1.984 -1.1,0.003 -2.002,0.903 -1.999,1.997" /></g><g
           transform="translate(141.9618,95.9949)"
           id="g400"><path
             id="path402"
             style="fill:#eac500;fill-opacity:1;fill-rule:nonzero;stroke:none"
             d="M 0,0 C 0.297,0 0.593,0.003 0.89,-0.001 2.012,-0.014 2.897,-0.924 2.883,-2.036 2.875,-2.64 2.879,-3.244 2.884,-3.848 2.885,-3.956 2.852,-3.982 2.748,-3.98 c -0.345,0.006 -0.691,0.005 -1.036,0 -0.091,-10e-4 -0.131,0.011 -0.129,0.12 0.007,0.631 0.004,1.262 0.004,1.893 0,0.508 -0.3,0.809 -0.811,0.811 -0.588,0.002 -1.176,0.004 -1.764,-0.001 -0.119,-10e-4 -0.155,0.025 -0.15,0.15 0.012,0.293 0.01,0.588 0,0.882 -0.004,0.111 0.03,0.131 0.135,0.128 C -0.669,-0.004 -0.334,0.001 0,0.001 Z" /></g><g
           transform="translate(157.9371,93.8125)"
           id="g404"><path
             id="path406"
             style="fill:#eac500;fill-opacity:1;fill-rule:nonzero;stroke:none"
             d="M 0,0 C 0.162,0 0.324,-0.004 0.485,0.001 0.636,0.005 0.743,0.102 0.764,0.241 0.797,0.456 0.629,0.783 0.439,0.898 0.135,1.083 -0.197,1.032 -0.521,1.013 -0.659,1.005 -0.725,0.883 -0.728,0.745 c -0.003,-0.15 -0.003,-0.3 0,-0.449 C -0.723,0.109 -0.613,0.004 -0.421,0.001 -0.28,-0.002 -0.14,0 0,0 m -1.954,0.195 c 0,0.625 0.002,1.25 -0.003,1.875 -10e-4,0.095 0.023,0.116 0.115,0.116 C -1.206,2.181 -0.569,2.188 0.067,2.181 1.191,2.169 2.075,1.261 2.061,0.149 2.054,-0.45 2.057,-1.048 2.063,-1.647 2.064,-1.765 2.035,-1.802 1.91,-1.799 c -0.323,0.009 -0.647,0.008 -0.97,0 -0.134,-0.003 -0.201,0.019 -0.179,0.173 0.017,0.126 0.008,0.257 0.003,0.385 -0.006,0.17 -0.114,0.28 -0.287,0.283 -0.308,0.004 -0.615,0.004 -0.922,-0.001 -0.169,-0.003 -0.279,-0.119 -0.283,-0.289 -0.004,-0.149 -0.003,-0.299 0.002,-0.449 0.002,-0.071 -0.006,-0.104 -0.093,-0.102 -0.34,0.006 -0.68,0.005 -1.02,0.002 -0.086,-0.001 -0.12,0.018 -0.119,0.116 0.006,0.625 0.003,1.25 0.003,1.876 z" /></g><g
           transform="translate(155.3357,95.8818)"
           id="g408"><path
             id="path410"
             style="fill:#eac500;fill-opacity:1;fill-rule:nonzero;stroke:none"
             d="m 0,0 c 0,-0.198 0,-0.367 0,-0.536 0,-1.059 -0.004,-2.117 0.002,-3.176 0.001,-0.132 -0.038,-0.159 -0.162,-0.156 -0.34,0.009 -0.68,0.005 -1.02,10e-4 -0.089,-10e-4 -0.12,0.021 -0.12,0.117 0.006,0.646 -0.01,1.294 0.008,1.94 0.02,0.745 0.401,1.288 1.031,1.67 C -0.188,-0.095 -0.11,-0.059 0,0" /></g><g
           transform="translate(114.1267,99.9587)"
           id="g412"><path
             id="path414"
             style="fill:#eac500;fill-opacity:1;fill-rule:nonzero;stroke:none"
             d="m 0,0 v -0.455 h -1.485 v -1.123 h 1.429 V -2.03 H -1.485 V -3.62 H -1.998 V 0 Z" /></g><g
           transform="translate(117.8464,96.8948)"
           id="g416"><path
             id="path418"
             style="fill:#eac500;fill-opacity:1;fill-rule:nonzero;stroke:none"
             d="m 0,0 c -0.395,-0.413 -0.884,-0.62 -1.466,-0.62 -0.35,0 -0.678,0.083 -0.986,0.25 -0.313,0.17 -0.555,0.398 -0.727,0.685 -0.172,0.286 -0.258,0.597 -0.258,0.932 0,0.339 0.087,0.651 0.261,0.937 0.175,0.287 0.416,0.511 0.724,0.673 0.314,0.166 0.642,0.248 0.984,0.248 0.363,0 0.703,-0.086 1.021,-0.257 C -0.114,2.667 0.144,2.392 0.327,2.021 H -0.235 C -0.346,2.165 -0.444,2.271 -0.53,2.34 -0.781,2.55 -1.083,2.655 -1.434,2.655 -1.707,2.655 -1.958,2.591 -2.188,2.463 -2.417,2.335 -2.597,2.159 -2.727,1.934 -2.857,1.709 -2.922,1.478 -2.922,1.24 c 0,-0.381 0.146,-0.71 0.436,-0.987 0.29,-0.278 0.636,-0.416 1.037,-0.416 0.337,0 0.643,0.109 0.917,0.326 0.093,0.075 0.201,0.188 0.322,0.34 L -0.177,0.48 h 0.52 C 0.205,0.253 0.09,0.093 0,0" /></g><g
           transform="translate(120.7076,99.9587)"
           id="g420"><path
             id="path422"
             style="fill:#eac500;fill-opacity:1;fill-rule:nonzero;stroke:none"
             d="m 0,0 v -0.455 h -1.637 v -1.111 h 1.584 V -2.021 H -1.637 V -3.167 H 0 V -3.62 H -2.15 V 0 Z" /></g><g
           transform="translate(121.7475,97.7308)"
           id="g424"><path
             id="path426"
             style="fill:#eac500;fill-opacity:1;fill-rule:nonzero;stroke:none"
             d="m 0,0 c 0,-0.657 0.275,-0.985 0.824,-0.985 0.246,0 0.439,0.079 0.579,0.237 0.14,0.159 0.21,0.405 0.21,0.739 V 2.23 h 0.51 v -2.239 c 0,-0.527 -0.157,-0.914 -0.471,-1.162 -0.234,-0.186 -0.516,-0.278 -0.847,-0.278 -0.24,0 -0.465,0.056 -0.674,0.167 -0.221,0.117 -0.384,0.275 -0.489,0.476 -0.097,0.185 -0.146,0.45 -0.147,0.795 l -0.01,2.25 H 0 Z" /></g><g
           transform="translate(117.2531,92)"
           id="g428"><path
             id="path430"
             style="fill:#b80000;fill-opacity:1;fill-rule:nonzero;stroke:none"
             d="M 0,0 V 2.85 L -2.034,0 H -2.59 V 2.856 L -4.641,0 h -0.612 l 2.602,3.62 h 0.573 V 0.782 L -0.053,3.62 H 0.51 L 0.51,0 Z" /></g><g
           transform="translate(118.2366,92)"
           id="g432"><path
             id="path434"
             style="fill:#b80000;fill-opacity:1;fill-rule:nonzero;stroke:none"
             d="M 0,0 V 3.62 H 0.563 L 2.588,0.782 V 3.62 H 3.161 L 5.763,0 H 5.151 L 3.101,2.856 V 0 H 2.544 L 0.51,2.85 V 0 Z" /></g><g
           transform="translate(167.7342,99.6366)"
           id="g436"><path
             id="path438"
             style="fill:#eac500;fill-opacity:1;fill-rule:nonzero;stroke:none"
             d="M 0,0 C 0,0.091 0.003,0.124 -0.001,0.156 -0.026,0.362 -0.085,0.553 -0.224,0.709 -0.662,1.198 -1.193,1.524 -1.817,1.673 -2.111,1.744 -2.273,1.567 -2.22,1.261 -2.202,1.157 -2.176,1.053 -2.134,0.957 -1.938,0.502 -1.69,0.08 -1.378,-0.299 c 0.133,-0.161 0.286,-0.302 0.464,-0.408 0.399,-0.237 0.698,-0.118 0.835,0.336 C -0.037,-0.233 -0.018,-0.086 0,0 m 2.779,-0.705 c 0.266,-0.012 0.499,0.112 0.736,0.209 0.943,0.385 1.793,0.985 2.767,1.302 C 6.509,0.879 6.397,1.014 6.294,1.108 5.911,1.455 5.514,1.784 5.097,2.085 4.871,2.247 4.754,2.206 4.709,1.916 4.632,1.422 4.39,1.046 4.041,0.723 3.867,0.561 3.705,0.383 3.55,0.2 3.294,-0.103 2.996,-0.367 2.783,-0.71 2.777,-0.711 2.77,-0.712 2.765,-0.715 2.763,-0.717 2.764,-0.725 2.764,-0.729 c 0.005,0.008 0.01,0.016 0.015,0.024 m -6.513,-1.567 v 1.271 c 0.089,0.169 0.069,0.361 0.109,0.54 0.292,1.322 0.892,2.454 1.894,3.34 1.429,1.263 3.079,1.72 4.906,1.371 C 4.818,3.935 6.136,3.032 7.009,1.537 8.235,-0.562 8.21,-2.692 7.022,-4.814 6.861,-5.101 6.606,-5.32 6.488,-5.635 5.483,-5.15 4.609,-4.486 3.879,-3.611 3.253,-2.86 2.727,-2.029 2.099,-1.281 2.031,-1.199 2.024,-1.109 2.024,-1.009 2.022,0.413 2.117,1.822 2.549,3.184 2.616,3.398 2.556,3.506 2.359,3.567 1.933,3.7 1.51,3.843 1.083,3.972 0.929,4.018 0.759,4.076 0.622,3.923 0.488,3.773 0.532,3.595 0.594,3.44 0.847,2.806 0.944,2.143 0.978,1.464 1.047,0.075 0.994,-1.304 0.611,-2.648 0.196,-4.109 -0.624,-5.262 -1.854,-6.091 c -0.044,0.056 -0.084,0.116 -0.133,0.167 -0.781,0.817 -1.32,1.774 -1.584,2.9 -0.059,0.25 -0.053,0.515 -0.163,0.752" /></g><g
           transform="translate(174.2219,94.0015)"
           id="g440"><path
             id="path442"
             style="fill:#b80000;fill-opacity:1;fill-rule:nonzero;stroke:none"
             d="M 0,0 C 0.426,-0.21 0.87,-0.372 1.314,-0.532 1.475,-0.589 1.629,-0.658 1.778,-0.743 V -0.84 C 1.703,-0.857 1.629,-0.881 1.553,-0.891 0.617,-1.015 -0.321,-1.09 -1.264,-1 -1.919,-0.802 -2.445,-0.392 -2.922,0.1 -3.505,0.703 -4.01,1.375 -4.51,2.051 -4.641,2.228 -4.772,2.405 -4.932,2.622 -4.969,2.464 -4.993,2.357 -5.018,2.25 -5.246,1.294 -5.66,0.458 -6.422,-0.161 -6.82,-0.484 -7.28,-0.681 -7.739,-0.879 -8.315,-1.025 -8.892,-1.16 -9.542,-1.182 c 0.445,0.237 0.843,0.446 1.2,0.726 1.231,0.829 2.05,1.982 2.466,3.443 C -5.494,4.331 -5.44,5.71 -5.51,7.1 -5.544,7.778 -5.641,8.441 -5.894,9.075 -5.955,9.23 -6,9.408 -5.865,9.558 c 0.137,0.153 0.306,0.095 0.461,0.049 0.427,-0.129 0.85,-0.272 1.276,-0.405 0.196,-0.061 0.257,-0.169 0.189,-0.382 -0.432,-1.363 -0.527,-2.772 -0.525,-4.194 0,-0.1 0.007,-0.19 0.075,-0.271 0.628,-0.748 1.154,-1.58 1.78,-2.331 C -1.879,1.149 -1.005,0.485 0,0" /></g><g
           transform="translate(170.5176,98.927)"
           id="g444"><path
             id="path446"
             style="fill:#b80000;fill-opacity:1;fill-rule:nonzero;stroke:none"
             d="M 0,0 C 0.213,0.342 0.511,0.607 0.767,0.91 0.921,1.092 1.083,1.27 1.258,1.432 1.607,1.756 1.849,2.131 1.926,2.626 1.971,2.915 2.088,2.956 2.313,2.794 2.73,2.494 3.128,2.165 3.51,1.818 3.614,1.724 3.726,1.589 3.498,1.515 2.524,1.199 1.674,0.599 0.731,0.213 0.494,0.116 0.262,-0.007 -0.004,0.004 Z" /></g><g
           transform="translate(167.7342,99.6366)"
           id="g448"><path
             id="path450"
             style="fill:#b80000;fill-opacity:1;fill-rule:nonzero;stroke:none"
             d="m 0,0 c -0.018,-0.086 -0.037,-0.233 -0.079,-0.371 -0.137,-0.454 -0.436,-0.573 -0.835,-0.336 -0.178,0.106 -0.331,0.247 -0.464,0.408 -0.312,0.379 -0.56,0.801 -0.756,1.256 -0.042,0.096 -0.068,0.2 -0.086,0.304 -0.053,0.306 0.109,0.483 0.403,0.412 C -1.193,1.524 -0.662,1.198 -0.224,0.709 -0.085,0.553 -0.026,0.362 -0.001,0.156 0.003,0.124 0,0.091 0,0" /></g><g
           transform="translate(170.5132,98.9312)"
           id="g452"><path
             id="path454"
             style="fill:#d32310;fill-opacity:1;fill-rule:nonzero;stroke:none"
             d="m 0,0 c -0.005,-0.008 -0.01,-0.016 -0.015,-0.024 0,0.005 -0.001,0.012 10e-4,0.014 0.005,0.003 0.012,0.004 0.018,0.006 z" /></g><g
           transform="translate(172.9577,93.0015)"
           id="g456"><path
             id="path458"
             style="fill:#eac500;fill-opacity:1;fill-rule:nonzero;stroke:none"
             d="m 0,0 c -0.301,-0.313 -0.692,-0.465 -1.077,-0.606 -1.861,-0.687 -3.632,-0.478 -5.303,0.624 -0.038,0.024 -0.064,0.068 -0.095,0.103 0.46,0.198 0.919,0.395 1.317,0.718 0.763,0.619 1.177,1.455 1.404,2.411 0.025,0.107 0.05,0.214 0.086,0.372 C -3.507,3.405 -3.376,3.228 -3.245,3.051 -2.746,2.375 -2.241,1.703 -1.657,1.1 -1.181,0.608 -0.655,0.198 0,0" /></g><g
           transform="translate(180,92)"
           id="g460"><path
             id="path462"
             style="fill:#b80000;fill-opacity:1;fill-rule:nonzero;stroke:none"
             d="M 0,0 V 4.087 H 3.5 C 4.5,4.087 5,3.633 5,2.725 V 0 H 4 V 2.725 C 4,3.028 3.833,3.179 3.5,3.179 H 1 V 0 Z" /></g><g
           transform="translate(190.5,92)"
           id="g464"><path
             id="path466"
             style="fill:#b80000;fill-opacity:1;fill-rule:nonzero;stroke:none"
             d="M 0,0 H -3.5 C -4.5,0 -5,0.454 -5,1.362 V 4.087 H 0 V 3.179 H -4 V 2.498 H 0 V 1.589 H -4 V 1.362 C -4,1.06 -3.833,0.908 -3.5,0.908 H 0 Z" /></g><g
           transform="translate(191,92.9083)"
           id="g468"><path
             id="path470"
             style="fill:#b80000;fill-opacity:1;fill-rule:nonzero;stroke:none"
             d="M 0,0 H 4 V 0.681 H 1.5 C 0.5,0.681 0,1.091 0,1.912 0,2.757 0.5,3.179 1.5,3.179 H 5 V 2.271 H 1 V 1.589 H 3.5 C 4.5,1.589 5,1.173 5,0.341 5,-0.492 4.5,-0.908 3.5,-0.908 H 0 Z" /></g><g
           transform="translate(182.9137,96.9761)"
           id="g472"><path
             id="path474"
             style="fill:#eac500;fill-opacity:1;fill-rule:nonzero;stroke:none"
             d="m 0,0 c -0.241,0.18 -0.459,0.308 -0.655,0.382 -0.262,0.102 -0.551,0.153 -0.867,0.153 -0.2,0 -0.359,-0.021 -0.476,-0.062 0.142,-0.203 0.331,-0.36 0.569,-0.471 0.23,-0.106 0.483,-0.16 0.76,-0.16 0.259,0 0.482,0.053 0.669,0.158 M -0.535,0.825 C -0.281,0.738 0.033,0.554 0.405,0.273 0.7,0.557 0.848,0.869 0.848,1.209 c 0,0.386 -0.153,0.713 -0.457,0.981 -0.3,0.262 -0.66,0.392 -1.08,0.392 -0.426,0 -0.794,-0.135 -1.101,-0.406 -0.295,-0.257 -0.443,-0.585 -0.443,-0.985 0,-0.099 0.016,-0.203 0.047,-0.312 0.246,0.063 0.484,0.095 0.716,0.095 0.333,0 0.645,-0.05 0.935,-0.149 m 0.96,-1.136 c -0.34,-0.183 -0.705,-0.275 -1.094,-0.275 -0.591,0 -1.083,0.181 -1.476,0.542 -0.386,0.354 -0.579,0.771 -0.579,1.252 0,0.324 0.091,0.628 0.272,0.911 0.18,0.284 0.426,0.504 0.737,0.661 0.319,0.161 0.67,0.242 1.053,0.242 0.378,0 0.723,-0.076 1.036,-0.227 C 0.701,2.637 0.954,2.413 1.133,2.123 1.312,1.833 1.402,1.528 1.402,1.207 1.402,0.745 1.212,0.338 0.83,-0.016 0.956,-0.094 1.128,-0.133 1.348,-0.133 L 1.319,-0.586 c -0.3,0.006 -0.522,0.046 -0.667,0.12 -0.055,0.028 -0.131,0.08 -0.227,0.155" /></g><g
           transform="translate(185.2293,97.8081)"
           id="g476"><path
             id="path478"
             style="fill:#eac500;fill-opacity:1;fill-rule:nonzero;stroke:none"
             d="m 0,0 c 0,-0.635 0.277,-0.952 0.832,-0.952 0.248,0 0.443,0.077 0.585,0.23 0.141,0.153 0.212,0.391 0.212,0.713 V 2.154 H 2.145 V -0.009 C 2.145,-0.518 1.986,-0.892 1.668,-1.131 1.432,-1.31 1.147,-1.4 0.813,-1.4 c -0.242,0 -0.469,0.054 -0.681,0.162 -0.223,0.112 -0.388,0.266 -0.494,0.459 -0.097,0.179 -0.147,0.435 -0.149,0.768 L -0.52,2.163 H 0 Z" /></g><path
           id="path480"
           style="fill:#eac500;fill-opacity:1;fill-rule:nonzero;stroke:none"
           d="m 188.515,96.464 h -0.518 v 3.496 h 0.518 z" /><g
           transform="translate(192.4448,97.0005)"
           id="g482"><path
             id="path484"
             style="fill:#eac500;fill-opacity:1;fill-rule:nonzero;stroke:none"
             d="m 0,0 c -0.399,-0.399 -0.892,-0.599 -1.48,-0.599 -0.354,0 -0.686,0.081 -0.997,0.242 -0.316,0.164 -0.56,0.384 -0.734,0.661 -0.173,0.277 -0.26,0.577 -0.26,0.901 0,0.327 0.088,0.628 0.264,0.905 0.176,0.276 0.419,0.493 0.73,0.65 0.318,0.16 0.649,0.239 0.994,0.239 0.367,0 0.71,-0.082 1.031,-0.248 C -0.115,2.576 0.146,2.31 0.33,1.952 H -0.237 C -0.349,2.091 -0.449,2.194 -0.535,2.261 -0.789,2.463 -1.093,2.565 -1.448,2.565 -1.724,2.565 -1.977,2.503 -2.209,2.379 -2.441,2.256 -2.623,2.085 -2.754,1.868 -2.885,1.651 -2.951,1.427 -2.951,1.198 c 0,-0.368 0.147,-0.686 0.44,-0.954 0.293,-0.268 0.642,-0.402 1.048,-0.402 0.34,0 0.649,0.105 0.926,0.316 0.094,0.072 0.202,0.181 0.325,0.328 L -0.178,0.464 H 0.347 C 0.207,0.245 0.091,0.09 0,0" /></g><g
           transform="translate(196,99.9601)"
           id="g486"><path
             id="path488"
             style="fill:#eac500;fill-opacity:1;fill-rule:nonzero;stroke:none"
             d="m 0,0 -1.527,-1.707 1.522,-1.789 H -0.658 L -1.86,-2.079 -2.263,-2.531 V -3.496 H -2.781 V 0 h 0.518 V -1.819 L -0.666,0 Z" /></g><g
           transform="translate(116,236)"
           id="g490"><path
             id="path492"
             style="fill:#3096cf;fill-opacity:1;fill-rule:nonzero;stroke:none"
             d="m 0,0 v -79.063 c 16.536,3.632 80,16.512 80,16.512 V 0 Z" /></g></g></g></g></svg>