<?xml version="1.0" encoding="UTF-8" standalone="no"?>
<svg
   xmlns:dc="http://purl.org/dc/elements/1.1/"
   xmlns:cc="http://creativecommons.org/ns#"
   xmlns:rdf="http://www.w3.org/1999/02/22-rdf-syntax-ns#"
   xmlns:svg="http://www.w3.org/2000/svg"
   xmlns="http://www.w3.org/2000/svg"
   viewBox="0 0 341.33334 341.33334"
   height="256"
   width="256"
   xml:space="preserve"
   id="svg2"
   version="1.1"><metadata
     id="metadata8"><rdf:RDF><cc:Work
         rdf:about=""><dc:format>image/svg+xml</dc:format><dc:type
           rdf:resource="http://purl.org/dc/dcmitype/StillImage" /></cc:Work></rdf:RDF></metadata><defs
     id="defs6"><clipPath
       id="clipPath18"
       clipPathUnits="userSpaceOnUse"><path
         id="path16"
         d="M 0,256 H 256 V 0 H 0 Z" /></clipPath><clipPath
       id="clipPath26"
       clipPathUnits="userSpaceOnUse"><path
         id="path24"
         d="M 4,210 H 252 V 46 H 4 Z" /></clipPath></defs><g
     transform="matrix(1.3333333,0,0,-1.3333333,0,341.33333)"
     id="g10"><g
       id="g12"><g
         clip-path="url(#clipPath18)"
         id="g14"><g
           id="g20"><g
             id="g22" /><g
             id="g34"><g
               style="opacity:0.5"
               id="g32"
               clip-path="url(#clipPath26)"><g
                 id="g30"
                 transform="translate(229.5,210)"><path
                   id="path28"
                   style="fill:#ffffff;fill-opacity:1;fill-rule:nonzero;stroke:none"
                   d="m 0,0 h -203 c -12.407,0 -22.5,-10.073 -22.5,-22.454 v -126.319 -0.5 l 0.062,-0.496 c 0.573,-4.568 4.417,-8.014 11.424,-10.242 8.326,-2.647 22.145,-3.989 41.071,-3.989 h 142.886 c 18.926,0 32.745,1.342 41.071,3.989 7.007,2.228 10.851,5.674 11.424,10.242 l 0.062,0.496 v 0.5 126.319 C 22.5,-10.073 12.407,0 0,0" /></g></g></g></g><g
           transform="translate(229.5,202)"
           id="g36"><path
             id="path38"
             style="fill:#262626;fill-opacity:1;fill-rule:nonzero;stroke:none"
             d="m 0,0 h -203 c -7.975,0 -14.5,-6.504 -14.5,-14.454 v -126.319 c 0,0 0.906,-7.227 44.557,-7.227 h 142.886 c 43.651,0 44.557,7.227 44.557,7.227 V -14.454 C 14.5,-6.504 7.975,0 0,0" /></g><g
           transform="translate(207,100)"
           id="g40"><path
             id="path42"
             style="fill:#808080;fill-opacity:1;fill-rule:nonzero;stroke:none"
             d="m 0,0 h -158 c -0.552,0 -1,0.448 -1,1 v 86 c 0,0.552 0.448,1 1,1 H 0 c 0.552,0 1,-0.448 1,-1 V 1 C 1,0.448 0.552,0 0,0" /></g><g
           transform="translate(76,100)"
           id="g44"><path
             id="path46"
             style="fill:#d4a600;fill-opacity:1;fill-rule:nonzero;stroke:none"
             d="m 0,0 h -27 c -0.552,0 -1,0.448 -1,1 v 86 c 0,0.552 0.448,1 1,1 H 0 Z" /></g><g
           transform="translate(221.5839,202)"
           id="g48"><path
             id="path50"
             style="fill:#191919;fill-opacity:1;fill-rule:nonzero;stroke:none"
             d="m 0,0 -8.426,-97.173 c 0,0 -3.009,-15.5 -13.842,-17.289 -10.764,-1.777 -39.359,-7.08 -71.015,-7.147 v -0.006 c -0.101,0 -0.2,0.003 -0.301,0.003 -0.101,0 -0.2,-0.003 -0.301,-0.003 v 0.006 c -31.656,0.067 -60.251,5.37 -71.015,7.147 -10.833,1.789 -13.842,17.289 -13.842,17.289 L -187.168,0 h -2.416 l 0.018,-0.204 8.425,-97.173 0.011,-0.124 0.024,-0.122 c 0.135,-0.7 3.467,-17.153 15.81,-19.191 l 2.985,-0.501 c 12.361,-2.089 37.713,-6.374 66.019,-6.664 v -0.015 l 2.407,-0.006 0.301,0.003 h 2.407 l 0.002,0.015 c 28.426,0.263 53.914,4.571 66.318,6.667 l 2.985,0.501 c 12.343,2.038 15.675,18.491 15.811,19.191 l 0.023,0.122 0.011,0.124 L 2.398,-0.204 2.416,0 Z" /></g><g
           transform="translate(220.4992,82.1239)"
           id="g52"><path
             id="path54"
             style="fill:#191919;fill-opacity:1;fill-rule:nonzero;stroke:none"
             d="m 0,0 c 0.053,0.54 10.041,75.395 12.317,90.201 2.341,15.235 10.267,15.675 11.163,15.675 h 0.021 v -1.197 c -0.006,0 -0.007,0 -0.021,0 -0.555,0 -7.816,-0.277 -10.028,-14.667 C 11.152,75.047 1.091,-0.379 1.091,-0.379 c 0,0 -3.162,-9.877 7.474,-12.271 10.553,-2.376 14.869,-4.158 14.936,-4.185 v -1.289 l -0.413,0.171 c -0.043,0.018 -4.386,1.796 -14.766,4.133 -3.625,0.816 -6.183,2.544 -7.602,5.136 C -1.463,-4.696 -0.061,-0.19 0,0" /></g><g
           transform="translate(35.5008,82.1239)"
           id="g56"><path
             id="path58"
             style="fill:#191919;fill-opacity:1;fill-rule:nonzero;stroke:none"
             d="m 0,0 c -0.053,0.54 -10.041,75.395 -12.317,90.201 -2.341,15.235 -10.267,15.675 -11.163,15.675 h -0.021 v -1.197 c 0.006,0 0.007,0 0.021,0 0.555,0 7.816,-0.277 10.028,-14.667 2.3,-14.965 12.361,-90.391 12.361,-90.391 0,0 3.162,-9.877 -7.474,-12.271 -10.553,-2.376 -14.869,-4.158 -14.936,-4.185 v -1.289 l 0.413,0.171 c 0.043,0.018 4.386,1.796 14.766,4.133 3.625,0.816 6.183,2.544 7.602,5.136 C 1.463,-4.696 0.061,-0.19 0,0" /></g><g
           transform="translate(188,128)"
           id="g60"><path
             id="path62"
             style="fill:#000000;fill-opacity:1;fill-rule:nonzero;stroke:none"
             d="M 0,0 V -4.309 -4.922 -19.712 -20.237 -24 h 16 v 3.763 0.525 14.79 0.613 V 0 Z" /></g><path
           id="path64"
           style="fill:#ffffff;fill-opacity:1;fill-rule:nonzero;stroke:none"
           d="m 203.467,108.381 h -14.933 v 14.692 h 14.933 z" /><path
           id="path66"
           style="fill:#ffffff;fill-opacity:1;fill-rule:nonzero;stroke:none"
           d="m 188.533,127.451 h 14.933 v -3.76 h -14.933 z" /><g
           transform="translate(190.3483,106.383)"
           id="g68"><path
             id="path70"
             style="fill:#ffffff;fill-opacity:1;fill-rule:nonzero;stroke:none"
             d="M 0,0 H 1.681 V -1.4 C 1.175,-1.508 0.587,-1.578 0.054,-1.578 c -1.175,0 -1.749,0.589 -1.749,1.408 0,0.819 0.574,1.408 1.785,1.408 1.004,0 1.528,-0.271 1.541,-0.897 H 0.42 C 0.416,0.426 0.375,0.482 0.321,0.515 0.267,0.548 0.19,0.563 0.109,0.563 c -0.195,0 -0.321,-0.081 -0.385,-0.189 -0.063,-0.107 -0.081,-0.37 -0.081,-0.596 0,-0.259 0.027,-0.437 0.086,-0.523 0.077,-0.111 0.203,-0.159 0.37,-0.159 0.122,0 0.24,0.015 0.344,0.056 v 0.322 H 0 Z" /></g><g
           transform="translate(194.2501,105.957)"
           id="g72"><path
             id="path74"
             style="fill:#ffffff;fill-opacity:1;fill-rule:nonzero;stroke:none"
             d="M 0,0 -0.258,1.008 H -0.267 L -0.551,0 Z M -1.071,1.593 H 0.605 L 1.654,-1.082 H 0.316 l -0.126,0.43 h -0.936 l -0.131,-0.43 h -1.238 z" /></g><g
           transform="translate(199.2676,106.7869)"
           id="g76"><path
             id="path78"
             style="fill:#ffffff;fill-opacity:1;fill-rule:nonzero;stroke:none"
             d="M 0,0 H -0.009 L -0.47,-1.912 H -1.654 L -2.115,0 h -0.009 v -1.912 h -1.093 v 2.675 h 1.794 l 0.357,-1.593 h 0.009 L -0.7,0.763 H 1.094 V -1.912 H 0 Z" /></g><g
           transform="translate(200.8248,107.5502)"
           id="g80"><path
             id="path82"
             style="fill:#ffffff;fill-opacity:1;fill-rule:nonzero;stroke:none"
             d="M 0,0 H 2.481 V -0.697 H 1.238 V -0.982 H 2.386 V -1.678 H 1.238 v -0.3 H 2.521 V -2.675 H 0 Z" /></g><g
           transform="translate(190.8519,126.7954)"
           id="g84"><path
             id="path86"
             style="fill:#000000;fill-opacity:1;fill-rule:nonzero;stroke:none"
             d="M 0,0 H 0.588 L -0.189,-2.258 H -0.895 L -1.648,0 h 0.653 l 0.481,-1.636 h 0.006 z" /></g><path
           id="path88"
           style="fill:#000000;fill-opacity:1;fill-rule:nonzero;stroke:none"
           d="m 191.565,126.795 h 0.59 v -2.258 h -0.59 z" /><g
           transform="translate(192.4391,126.7954)"
           id="g90"><path
             id="path92"
             style="fill:#000000;fill-opacity:1;fill-rule:nonzero;stroke:none"
             d="m 0,0 h 0.827 l 0.714,-1.682 0.006,0.006 V 0 H 2.079 V -2.258 H 1.261 L 0.537,-0.529 H 0.531 V -2.258 H 0 Z" /></g><g
           transform="translate(195.2866,126.3575)"
           id="g94"><path
             id="path96"
             style="fill:#000000;fill-opacity:1;fill-rule:nonzero;stroke:none"
             d="m 0,0 h -0.652 v 0.438 h 1.91 V 0 H 0.59 V -1.82 H 0 Z" /></g><g
           transform="translate(197.7323,125.4162)"
           id="g98"><path
             id="path100"
             style="fill:#000000;fill-opacity:1;fill-rule:nonzero;stroke:none"
             d="M 0,0 -0.272,0.938 H -0.281 L -0.57,0 Z m -1.45,-0.879 0.842,2.258 h 0.72 L 0.954,-0.879 H 0.286 l -0.141,0.441 h -0.866 l -0.138,-0.441 z" /></g><g
           transform="translate(200.2876,125.3819)"
           id="g102"><path
             id="path104"
             style="fill:#000000;fill-opacity:1;fill-rule:nonzero;stroke:none"
             d="M 0,0 H -0.434 V 0.438 H 0.59 v -1.207 c -0.478,-0.075 -0.569,-0.122 -1.083,-0.122 -0.664,0.022 -1.069,0.469 -1.069,1.176 0,0.706 0.405,1.154 1.069,1.176 0.517,0.015 1.06,-0.066 1.069,-0.723 h -0.591 c -0.029,0.219 -0.192,0.285 -0.386,0.285 -0.399,0 -0.541,-0.373 -0.541,-0.738 0,-0.445 0.21,-0.739 0.635,-0.739 0.109,0 0.218,0.019 0.307,0.038 z" /></g><g
           transform="translate(201.1716,124.5375)"
           id="g106"><path
             id="path108"
             style="fill:#000000;fill-opacity:1;fill-rule:nonzero;stroke:none"
             d="M 0,0 V 2.258 H 1.624 V 1.82 H 0.591 V 1.354 h 0.95 V 0.916 H 0.591 V 0.438 H 1.624 V 0 Z" /></g><g
           transform="translate(189.5514,119.1683)"
           id="g110"><path
             id="path112"
             style="fill:#000000;fill-opacity:1;fill-rule:nonzero;stroke:none"
             d="m 0,0 4.071,1.298 3.803,-7.903 0.028,0.009 -0.893,8.831 3.834,1.222 0.215,-11.6 -5.177,-1.651 z" /></g><g
           transform="translate(162.2392,107.2534)"
           id="g114"><path
             id="path116"
             style="fill:#ffffff;fill-opacity:1;fill-rule:nonzero;stroke:none"
             d="m 0,0 v -0.539 c 0,-0.19 0.015,-0.367 0.036,-0.538 l -0.355,0.763 C -0.219,-0.226 -0.11,-0.114 0,0 m 15.851,0 v -0.539 c 0,-0.19 0.015,-0.367 0.036,-0.538 l -0.355,0.763 c 0.1,0.088 0.209,0.2 0.319,0.314 m 3.389,4.747 h -0.868 c -1.108,0 -1.866,-0.457 -2.244,-1.296 -0.099,0.161 -0.213,0.316 -0.348,0.461 -0.511,0.554 -1.1,0.835 -1.751,0.835 h -3.04 c -0.077,0 -0.15,-0.018 -0.217,-0.048 -0.067,0.03 -0.14,0.048 -0.217,0.048 H 5.561 C 5.484,4.747 5.41,4.729 5.343,4.699 5.277,4.729 5.203,4.747 5.126,4.747 H 2.521 C 1.413,4.747 0.655,4.29 0.277,3.451 0.178,3.612 0.064,3.767 -0.07,3.912 -0.582,4.466 -1.171,4.747 -1.822,4.747 h -3.04 c -0.313,0 -0.566,-0.273 -0.566,-0.61 V 3.82 c -0.026,0.03 -0.044,0.063 -0.071,0.092 -0.511,0.554 -1.1,0.835 -1.751,0.835 h -3.04 c -0.077,0 -0.151,-0.018 -0.218,-0.048 -0.066,0.03 -0.14,0.048 -0.217,0.048 h -1.954 c -0.313,0 -0.566,-0.273 -0.566,-0.61 V 0.071 h -1.907 v 4.066 c 0,0.337 -0.254,0.61 -0.566,0.61 h -1.955 c -0.313,0 -0.566,-0.273 -0.566,-0.61 v -4.676 c 0,-1.75 0.895,-2.714 2.521,-2.714 h 2.605 c 0.077,0 0.15,0.017 0.217,0.047 0.067,-0.03 0.14,-0.047 0.217,-0.047 h 1.954 c 0.077,0 0.151,0.017 0.217,0.047 0.067,-0.03 0.141,-0.047 0.218,-0.047 h 3.04 c 0.651,0 1.24,0.28 1.751,0.834 0.027,0.029 0.045,0.062 0.071,0.092 v -0.316 c 0,-0.337 0.253,-0.61 0.566,-0.61 h 0.869 c 0.037,0 0.073,0.003 0.108,0.011 0.035,-0.008 0.072,-0.011 0.109,-0.011 h 0.868 c 0.252,0 0.466,0.177 0.54,0.422 l 0.039,-0.085 c 0.096,-0.207 0.292,-0.337 0.507,-0.337 h 0.868 c 0.037,0 0.074,0.003 0.109,0.011 0.035,-0.008 0.072,-0.011 0.109,-0.011 h 0.868 c 0.197,0 0.379,0.109 0.482,0.289 0.066,0.115 0.089,0.247 0.078,0.377 0.426,-0.435 1.039,-0.666 1.829,-0.666 h 2.605 c 0.313,0 0.567,0.273 0.567,0.61 v 0.935 c 0,0.041 -0.015,0.077 -0.022,0.117 0.007,0.039 0.022,0.075 0.022,0.117 v 0.935 c 0,0.337 -0.254,0.61 -0.567,0.61 H 5.041 V 0.63 c 0,0.041 -0.014,0.077 -0.022,0.117 0.008,0.039 0.022,0.075 0.022,0.117 V 1.423 H 5.126 C 5.203,1.423 5.277,1.44 5.343,1.47 5.41,1.44 5.484,1.423 5.561,1.423 h 0.953 v -4.066 c 0,-0.337 0.254,-0.61 0.567,-0.61 h 0.868 c 0.037,0 0.073,0.003 0.109,0.011 0.035,-0.008 0.071,-0.011 0.108,-0.011 h 0.869 c 0.313,0 0.566,0.273 0.566,0.61 v 4.066 h 0.822 v -4.066 c 0,-0.337 0.253,-0.61 0.566,-0.61 h 0.869 c 0.037,0 0.073,0.003 0.108,0.011 0.035,-0.008 0.072,-0.011 0.109,-0.011 h 0.868 c 0.252,0 0.466,0.177 0.539,0.422 l 0.04,-0.085 c 0.096,-0.207 0.292,-0.337 0.507,-0.337 h 0.868 c 0.037,0 0.074,0.003 0.109,0.011 0.035,-0.008 0.072,-0.011 0.109,-0.011 h 0.868 c 0.197,0 0.379,0.109 0.482,0.289 0.066,0.115 0.089,0.247 0.078,0.377 0.426,-0.435 1.039,-0.666 1.829,-0.666 h 0.868 c 1.626,0 2.521,0.964 2.521,2.714 v 2.572 c 0,1.75 -0.895,2.714 -2.521,2.714" /></g><g
           transform="translate(161.2856,104.6099)"
           id="g118"><path
             id="path120"
             style="fill:#0000ff;fill-opacity:1;fill-rule:nonzero;stroke:none"
             d="M 0,0 H -0.869 L -1.954,2.338 V 0 H -2.823 V 3.273 H -1.52 Z M 0,4.559 C 0,4.268 -0.095,4.02 -0.286,3.815 -0.476,3.61 -0.671,3.507 -0.869,3.507 H -3.04 V 0 h -0.868 v 4.442 h 2.822 c 0.145,0 0.217,0.039 0.217,0.117 0,0.078 -0.072,0.117 -0.217,0.117 h -2.822 v 0.935 h 3.039 c 0.198,0 0.393,-0.104 0.583,-0.312 C -0.095,5.092 0,4.845 0,4.559 m 1.086,0 C 1.086,3.946 0.94,3.482 0.648,3.168 0.356,2.854 0.109,2.642 -0.094,2.533 L 1.086,0 H 0.217 l -1.52,3.273 h 0.434 c 0.256,0 0.501,0.126 0.735,0.378 0.234,0.252 0.351,0.555 0.351,0.908 0,0.348 -0.117,0.65 -0.351,0.904 -0.234,0.255 -0.479,0.382 -0.735,0.382 H -3.908 V 6.78 h 3.039 c 0.497,0 0.947,-0.218 1.35,-0.654 C 0.884,5.689 1.086,5.167 1.086,4.559" /></g><g
           transform="translate(162.8056,109.2859)"
           id="g122"><path
             id="path124"
             style="fill:#0000ff;fill-opacity:1;fill-rule:nonzero;stroke:none"
             d="M 0,0 C 0,1.403 0.651,2.104 1.954,2.104 H 4.56 V 1.169 H 1.954 C 1.23,1.169 0.869,0.779 0.869,0 v -2.572 c 0,-0.779 0.361,-1.169 1.085,-1.169 H 4.56 V -4.676 H 1.954 C 0.651,-4.676 0,-3.975 0,-2.572 Z" /></g><g
           transform="translate(163.8913,108.1169)"
           id="g126"><path
             id="path128"
             style="fill:#0000ff;fill-opacity:1;fill-rule:nonzero;stroke:none"
             d="M 0,0 V 1.169 C 0,1.792 0.29,2.104 0.869,2.104 H 3.474 V 1.169 H 1.086 C 0.941,1.169 0.869,1.091 0.869,0.935 H 2.823 V 0 Z" /></g><g
           transform="translate(163.8913,107.8831)"
           id="g130"><path
             id="path132"
             style="fill:#0000ff;fill-opacity:1;fill-rule:nonzero;stroke:none"
             d="M 0,0 H 2.823 V -0.935 H 0.869 c 0,-0.156 0.072,-0.234 0.217,-0.234 H 3.474 V -2.104 H 0.869 C 0.29,-2.104 0,-1.792 0,-1.169 Z" /></g><g
           transform="translate(170.4054,110.2211)"
           id="g134"><path
             id="path136"
             style="fill:#0000ff;fill-opacity:1;fill-rule:nonzero;stroke:none"
             d="m 0,0 h 2.389 v -0.935 h -1.52 v -4.676 l -0.869,0 z m -0.217,0 v -5.611 h -0.869 v 4.676 h -1.52 V 0 Z m 2.606,0.234 h -4.994 v 0.935 h 4.994 z" /></g><g
           transform="translate(177.1366,104.6099)"
           id="g138"><path
             id="path140"
             style="fill:#0000ff;fill-opacity:1;fill-rule:nonzero;stroke:none"
             d="M 0,0 H -0.869 L -1.954,2.338 V 0 H -2.823 V 3.273 H -1.52 Z M 0,4.559 C 0,4.268 -0.095,4.02 -0.286,3.815 -0.477,3.61 -0.671,3.507 -0.869,3.507 H -3.04 V 0 h -0.868 v 4.442 h 2.822 c 0.145,0 0.217,0.039 0.217,0.117 0,0.078 -0.072,0.117 -0.217,0.117 h -2.822 v 0.935 h 3.039 c 0.198,0 0.392,-0.104 0.583,-0.312 C -0.095,5.092 0,4.845 0,4.559 m 1.086,0 C 1.086,3.946 0.94,3.482 0.648,3.168 0.356,2.854 0.109,2.642 -0.094,2.533 L 1.086,0 H 0.217 l -1.52,3.273 h 0.434 c 0.256,0 0.501,0.126 0.735,0.378 0.234,0.252 0.351,0.555 0.351,0.908 0,0.348 -0.117,0.65 -0.351,0.904 -0.234,0.255 -0.479,0.382 -0.735,0.382 H -3.908 V 6.78 h 3.039 c 0.497,0 0.947,-0.218 1.35,-0.654 C 0.884,5.689 1.086,5.167 1.086,4.559" /></g><g
           transform="translate(181.4793,109.0521)"
           id="g142"><path
             id="path144"
             style="fill:#0000ff;fill-opacity:1;fill-rule:nonzero;stroke:none"
             d="M 0,0 C 0,0.156 -0.072,0.234 -0.217,0.234 H -0.651 C -0.796,0.234 -0.869,0.156 -0.869,0 v -2.104 c 0,-0.156 0.073,-0.234 0.218,-0.234 h 0.434 C -0.072,-2.338 0,-2.26 0,-2.104 Z M 0.869,0.234 V -2.338 C 0.869,-2.961 0.579,-3.273 0,-3.273 h -0.869 c -0.579,0 -0.868,0.312 -0.868,0.935 v 2.572 c 0,0.623 0.289,0.935 0.868,0.935 H 0 c 0.579,0 0.869,-0.312 0.869,-0.935 m 0.217,0 C 1.086,1.013 0.724,1.403 0,1.403 h -0.869 c -0.723,0 -1.085,-0.39 -1.085,-1.169 v -2.572 c 0,-0.779 0.362,-1.169 1.085,-1.169 H 0 c 0.724,0 1.086,0.39 1.086,1.169 z m 0.868,0 V -2.338 C 1.954,-3.741 1.303,-4.442 0,-4.442 h -0.869 c -1.302,0 -1.954,0.701 -1.954,2.104 v 2.572 c 0,1.403 0.652,2.104 1.954,2.104 H 0 c 1.303,0 1.954,-0.701 1.954,-2.104" /></g><g
           transform="translate(146.7378,106.7141)"
           id="g146"><path
             id="path148"
             style="fill:#0000ff;fill-opacity:1;fill-rule:nonzero;stroke:none"
             d="M 0,0 C -0.145,0 -0.217,0.078 -0.217,0.234 V 4.676 H -2.171 V 0 c 0,-1.403 0.651,-2.104 1.954,-2.104 h 2.606 l 0,2.104 z" /></g><path
           id="path150"
           style="fill:#0000ff;fill-opacity:1;fill-rule:nonzero;stroke:none"
           d="m 149.56,104.61 h 1.954 v 6.78 h -1.954 z" /><g
           transform="translate(154.7715,109.0521)"
           id="g152"><path
             id="path154"
             style="fill:#0000ff;fill-opacity:1;fill-rule:nonzero;stroke:none"
             d="M 0,0 H -0.869 V 0.234 H 0 C 0.145,0.234 0.217,0.195 0.217,0.117 0.217,0.039 0.145,0 0,0 m 0,-2.338 h -0.869 v 0.234 H 0 c 0.145,0 0.217,-0.039 0.217,-0.117 C 0.217,-2.299 0.145,-2.338 0,-2.338 M 2.171,0.117 C 2.171,0.725 1.97,1.247 1.567,1.683 1.164,2.12 0.714,2.338 0.217,2.338 h -3.04 v -6.78 h 3.04 c 0.497,0 0.947,0.218 1.35,0.654 0.403,0.437 0.604,0.959 0.604,1.567 0,0.442 -0.099,0.829 -0.296,1.161 0.197,0.333 0.296,0.725 0.296,1.177" /></g><g
           transform="translate(63.717,108)"
           id="g156"><path
             id="path158"
             style="fill:#262626;fill-opacity:1;fill-rule:nonzero;stroke:none"
             d="m 0,0 v 67.174 l 3.418,3.875 H 8.283 V 8.397 Z" /></g><g
           transform="translate(52.2785,180)"
           id="g160"><path
             id="path162"
             style="fill:#0000ff;fill-opacity:1;fill-rule:nonzero;stroke:none"
             d="M 0,0 V -21.056 L 19.721,-40.175 V -20.54 Z" /></g><g
           transform="translate(52.2785,158.9437)"
           id="g164"><path
             id="path166"
             style="fill:#0000ff;fill-opacity:1;fill-rule:nonzero;stroke:none"
             d="M 0,0 19.721,-19.119 V 0.517 L 0,21.056 Z M 0.263,0.108 V 20.406 L 19.458,0.414 v -18.915 z" /></g><g
           transform="translate(59.4659,166.4887)"
           id="g168"><path
             id="path170"
             style="fill:#ffffff;fill-opacity:1;fill-rule:nonzero;stroke:none"
             d="m 0,0 -4.821,4.68 v -9.387 l 3.594,-2.842 -3.594,-2.67 V -19.95 L 0,-15.241 Z" /></g><g
           transform="translate(59.3345,151.3012)"
           id="g172"><path
             id="path174"
             style="fill:#262626;fill-opacity:1;fill-rule:nonzero;stroke:none"
             d="m 0,0 v 15.133 l -4.558,4.425 V 10.543 L -0.882,7.635 -4.558,4.905 V -4.452 Z M 0.263,15.241 V -0.107 L -4.821,-5.073 V 5.033 l 3.512,2.609 -3.512,2.777 v 9.758 z" /></g><g
           transform="translate(60.2548,165.7229)"
           id="g176"><path
             id="path178"
             style="fill:#ffffff;fill-opacity:1;fill-rule:nonzero;stroke:none"
             d="m 0,0 v -13.705 l 1.884,1.841 8.108,-8.354 v 9.56 l -4.47,3.875 4.47,3.789 V 6.824 L 1.753,-1.702 Z" /></g><g
           transform="translate(70.1156,162.7884)"
           id="g180"><path
             id="path182"
             style="fill:#262626;fill-opacity:1;fill-rule:nonzero;stroke:none"
             d="M 0,0 V 9.435 L -8.105,1.048 -9.729,2.625 V -10.46 L -7.974,-8.745 0,-16.961 v 9.179 l -4.539,3.935 z m 0.263,10.082 v -10.2 L 0.217,-0.157 -4.139,-3.849 0.263,-7.666 v -9.94 l -8.242,8.492 -2.013,-1.967 V 3.244 l 1.881,-1.827 z" /></g><g
           transform="translate(58.8444,116.4702)"
           id="g184"><path
             id="path186"
             style="fill:#ffffff;fill-opacity:1;fill-rule:nonzero;stroke:none"
             d="m 0,0 -0.225,0.337 c 0.083,0.151 0.125,0.311 0.125,0.48 0,0.094 -0.096,0.269 -0.287,0.522 -0.193,0.254 -0.405,0.624 -0.639,1.114 -0.234,0.488 -0.447,1.114 -0.639,1.876 -0.192,0.76 -0.288,1.687 -0.288,2.778 0,0.733 0.066,1.47 0.2,2.213 0.134,0.743 0.346,1.42 0.639,2.031 0.292,0.612 0.668,1.108 1.127,1.494 0.46,0.385 1.014,0.578 1.666,0.578 0.601,0 1.157,-0.197 1.665,-0.592 0.51,-0.395 0.832,-0.93 0.965,-1.607 h 0.05 c 0.168,0.808 0.497,1.471 0.989,1.988 0.493,0.516 1.115,0.776 1.866,0.776 0.852,0 1.554,-0.239 2.105,-0.719 0.551,-0.479 0.99,-1.076 1.315,-1.792 0.325,-0.714 0.543,-1.499 0.651,-2.354 0.108,-0.856 0.163,-1.659 0.163,-2.411 0,-0.847 -0.071,-1.636 -0.213,-2.37 C 11.094,3.609 10.926,2.961 10.734,2.396 10.542,1.833 10.367,1.367 10.208,1.001 10.05,0.633 9.97,0.375 9.97,0.225 c 0,-0.094 0.017,-0.175 0.05,-0.24 0.034,-0.065 0.068,-0.136 0.1,-0.211 L 10.045,-0.48 6.439,1.156 6.589,1.465 C 6.622,1.447 6.68,1.438 6.764,1.438 h 0.175 c 0.384,0 0.727,0.206 1.028,0.621 0.3,0.413 0.555,0.906 0.763,1.48 0.209,0.573 0.368,1.175 0.476,1.805 0.109,0.629 0.163,1.16 0.163,1.593 0,0.339 -0.028,0.738 -0.088,1.199 C 9.223,8.596 9.118,9.029 8.968,9.433 8.818,9.837 8.614,10.18 8.355,10.462 8.096,10.745 7.758,10.885 7.34,10.885 6.939,10.885 6.618,10.749 6.375,10.476 6.134,10.204 5.945,9.87 5.812,9.475 5.678,9.081 5.591,8.662 5.549,8.22 5.507,7.778 5.487,7.398 5.487,7.078 5.487,6.627 5.524,6.237 5.599,5.908 5.674,5.578 5.862,5.358 6.162,5.245 V 4.907 H 2.756 V 5.245 C 3.09,5.282 3.312,5.485 3.42,5.851 3.529,6.219 3.583,6.627 3.583,7.078 3.583,7.379 3.557,7.727 3.507,8.121 3.457,8.516 3.366,8.888 3.232,9.236 3.099,9.583 2.915,9.879 2.681,10.124 2.447,10.368 2.155,10.49 1.804,10.49 1.47,10.49 1.199,10.382 0.99,10.166 0.782,9.951 0.619,9.668 0.501,9.32 0.385,8.973 0.306,8.587 0.264,8.164 0.222,7.741 0.201,7.313 0.201,6.881 0.201,6.374 0.251,5.856 0.352,5.329 0.452,4.804 0.585,4.324 0.752,3.891 0.919,3.459 1.103,3.102 1.303,2.82 1.503,2.537 1.704,2.396 1.904,2.396 c 0.067,0 0.147,0.01 0.238,0.029 0.092,0.018 0.18,0.047 0.263,0.085 l 0.15,-0.254 z" /></g><g
           transform="translate(66.0587,130.6953)"
           id="g188"><path
             id="path190"
             style="fill:#262626;fill-opacity:1;fill-rule:nonzero;stroke:none"
             d="m 0,0 c -0.816,0 -1.503,-0.286 -2.043,-0.851 -0.368,-0.387 -0.653,-0.854 -0.85,-1.396 -0.189,0.411 -0.465,0.759 -0.828,1.039 -0.549,0.427 -1.16,0.643 -1.815,0.643 -0.706,0 -1.319,-0.213 -1.822,-0.635 -0.485,-0.406 -0.885,-0.936 -1.189,-1.574 -0.299,-0.622 -0.52,-1.325 -0.658,-2.089 -0.136,-0.752 -0.204,-1.511 -0.204,-2.255 0,-1.106 0.099,-2.06 0.295,-2.836 0.195,-0.774 0.416,-1.42 0.654,-1.919 0.245,-0.511 0.462,-0.888 0.665,-1.155 0.217,-0.288 0.238,-0.38 0.24,-0.389 -0.001,-0.119 -0.033,-0.243 -0.097,-0.357 l -0.069,-0.125 0.079,-0.119 0.226,-0.337 0.154,-0.232 0.209,0.185 2.556,2.256 0.146,0.129 -0.099,0.167 -0.15,0.254 -0.11,0.187 -0.2,-0.091 c -0.068,-0.03 -0.139,-0.053 -0.21,-0.068 -0.073,-0.014 -0.137,-0.023 -0.19,-0.023 -0.113,0 -0.256,0.114 -0.404,0.321 -0.187,0.265 -0.363,0.609 -0.522,1.021 -0.161,0.417 -0.292,0.887 -0.389,1.397 -0.097,0.508 -0.147,1.015 -0.147,1.508 0,0.419 0.021,0.843 0.062,1.26 0.04,0.402 0.116,0.774 0.227,1.105 0.105,0.313 0.251,0.567 0.434,0.757 0.162,0.168 0.371,0.249 0.639,0.249 0.284,0 0.513,-0.095 0.7,-0.291 0.211,-0.22 0.38,-0.492 0.502,-0.809 0.126,-0.329 0.214,-0.685 0.261,-1.06 0.049,-0.386 0.074,-0.727 0.074,-1.014 0,-0.427 -0.052,-0.817 -0.154,-1.16 -0.104,-0.354 -0.3,-0.419 -0.458,-0.437 L -4.7,-8.767 V -8.98 -9.318 -9.556 h 0.242 3.406 0.242 v 0.238 0.338 0.164 l -0.156,0.058 c -0.225,0.084 -0.356,0.241 -0.414,0.493 -0.07,0.312 -0.106,0.688 -0.106,1.118 0,0.314 0.021,0.691 0.061,1.12 0.04,0.422 0.125,0.827 0.252,1.202 0.122,0.363 0.296,0.672 0.516,0.92 0.196,0.22 0.452,0.327 0.782,0.327 0.35,0 0.624,-0.112 0.836,-0.344 0.236,-0.257 0.426,-0.577 0.566,-0.952 0.144,-0.387 0.245,-0.806 0.3,-1.244 0.057,-0.445 0.086,-0.838 0.086,-1.17 0,-0.42 -0.054,-0.942 -0.16,-1.553 -0.105,-0.613 -0.261,-1.207 -0.465,-1.765 -0.199,-0.55 -0.445,-1.028 -0.732,-1.422 -0.255,-0.351 -0.527,-0.522 -0.831,-0.522 H -0.45 c -0.056,0 -0.075,0.005 -0.076,0.006 l -0.225,0.122 -0.093,-0.236 -0.15,-0.31 -0.105,-0.216 0.222,-0.101 3.606,-1.635 0.255,-0.116 0.078,0.265 0.076,0.253 0.024,0.082 -0.034,0.078 c -0.035,0.08 -0.07,0.156 -0.106,0.225 -0.016,0.031 -0.024,0.076 -0.024,0.133 0,0.065 0.028,0.242 0.218,0.683 0.159,0.367 0.339,0.842 0.533,1.413 0.195,0.572 0.367,1.237 0.509,1.977 0.145,0.746 0.218,1.558 0.218,2.414 0,0.752 -0.056,1.573 -0.165,2.44 C 4.201,-4.201 3.975,-3.386 3.64,-2.651 3.304,-1.91 2.841,-1.28 2.265,-0.778 1.672,-0.262 0.909,0 0,0 m 0,-0.237 c 0.852,0 1.553,-0.239 2.105,-0.719 0.55,-0.48 0.989,-1.076 1.315,-1.792 0.325,-0.714 0.543,-1.499 0.651,-2.354 0.108,-0.856 0.163,-1.659 0.163,-2.411 0,-0.847 -0.071,-1.636 -0.213,-2.37 C 3.879,-10.616 3.712,-11.264 3.52,-11.829 3.328,-12.392 3.153,-12.858 2.994,-13.224 2.836,-13.592 2.756,-13.85 2.756,-14 c 0,-0.094 0.016,-0.175 0.05,-0.24 0.034,-0.065 0.067,-0.137 0.1,-0.211 l -0.076,-0.254 -3.606,1.635 0.15,0.31 c 0.034,-0.018 0.092,-0.027 0.176,-0.027 h 0.175 c 0.384,0 0.727,0.206 1.027,0.621 0.301,0.413 0.556,0.906 0.764,1.48 0.209,0.573 0.368,1.175 0.476,1.805 0.109,0.629 0.163,1.16 0.163,1.593 0,0.338 -0.029,0.738 -0.088,1.199 -0.058,0.46 -0.163,0.893 -0.313,1.297 -0.151,0.404 -0.355,0.747 -0.613,1.029 -0.259,0.283 -0.598,0.423 -1.016,0.423 -0.4,0 -0.721,-0.136 -0.964,-0.409 -0.241,-0.272 -0.43,-0.606 -0.564,-1.001 -0.133,-0.394 -0.221,-0.813 -0.262,-1.255 -0.042,-0.442 -0.063,-0.822 -0.063,-1.142 0,-0.451 0.038,-0.841 0.112,-1.17 0.076,-0.33 0.263,-0.55 0.564,-0.663 v -0.338 h -3.406 v 0.338 c 0.334,0.037 0.555,0.24 0.663,0.606 0.109,0.368 0.163,0.776 0.163,1.227 0,0.301 -0.025,0.648 -0.075,1.043 -0.05,0.395 -0.142,0.767 -0.275,1.114 -0.134,0.348 -0.317,0.644 -0.552,0.889 -0.233,0.244 -0.526,0.366 -0.876,0.366 -0.335,0 -0.606,-0.108 -0.815,-0.324 -0.208,-0.216 -0.371,-0.498 -0.488,-0.846 -0.116,-0.347 -0.196,-0.733 -0.237,-1.156 -0.042,-0.423 -0.064,-0.851 -0.064,-1.283 0,-0.508 0.05,-1.025 0.151,-1.552 0.1,-0.525 0.234,-1.005 0.401,-1.438 0.167,-0.432 0.35,-0.789 0.55,-1.072 0.201,-0.282 0.402,-0.423 0.602,-0.423 0.067,0 0.146,0.01 0.238,0.029 0.092,0.018 0.18,0.047 0.263,0.085 l 0.15,-0.254 -2.555,-2.256 -0.226,0.337 c 0.084,0.151 0.126,0.311 0.126,0.48 0,0.094 -0.096,0.268 -0.288,0.522 -0.192,0.254 -0.404,0.624 -0.639,1.114 -0.233,0.488 -0.446,1.114 -0.639,1.875 -0.191,0.761 -0.287,1.687 -0.287,2.779 0,0.733 0.066,1.47 0.2,2.213 0.134,0.743 0.346,1.42 0.639,2.03 0.292,0.613 0.667,1.109 1.127,1.495 0.46,0.385 1.014,0.578 1.665,0.578 0.602,0 1.157,-0.197 1.666,-0.592 0.51,-0.395 0.832,-0.93 0.965,-1.607 h 0.05 c 0.167,0.808 0.496,1.471 0.989,1.988 0.493,0.516 1.115,0.776 1.866,0.776" /></g><g
           transform="translate(70.5425,145.3119)"
           id="g192"><path
             id="path194"
             style="fill:#ffffff;fill-opacity:1;fill-rule:nonzero;stroke:none"
             d="m 0,0 v -0.34 c -0.183,0 -0.283,-0.089 -0.3,-0.266 -0.017,-0.179 -0.025,-0.372 -0.025,-0.578 v -11.875 c 0,-0.207 0.012,-0.374 0.038,-0.507 0.024,-0.131 0.112,-0.198 0.263,-0.198 v -0.337 h -0.902 c -0.885,0 -1.645,0.248 -2.28,0.746 -0.635,0.498 -1.193,1.124 -1.678,1.877 -0.484,0.751 -0.911,1.558 -1.277,2.424 -0.367,0.865 -0.731,1.673 -1.09,2.426 -0.359,0.752 -0.731,1.377 -1.115,1.875 -0.384,0.498 -0.835,0.748 -1.353,0.748 -0.35,0 -0.639,-0.09 -0.864,-0.269 -0.225,-0.179 -0.409,-0.408 -0.551,-0.69 -0.142,-0.283 -0.238,-0.593 -0.288,-0.93 -0.05,-0.34 -0.075,-0.668 -0.075,-0.987 0,-0.321 0.05,-0.716 0.151,-1.186 0.099,-0.469 0.249,-0.921 0.45,-1.352 0.201,-0.434 0.438,-0.806 0.714,-1.116 0.276,-0.309 0.589,-0.463 0.939,-0.463 0.084,0 0.192,0.023 0.325,0.069 0.135,0.048 0.227,0.107 0.277,0.183 l 0.175,-0.282 -2.756,-2.903 -0.175,0.28 c 0.033,0.075 0.067,0.151 0.101,0.227 0.033,0.073 0.049,0.158 0.049,0.252 0,0.113 -0.125,0.322 -0.376,0.622 -0.25,0.301 -0.526,0.714 -0.826,1.24 -0.301,0.527 -0.576,1.184 -0.827,1.973 -0.251,0.792 -0.375,1.731 -0.375,2.821 0,0.716 0.074,1.416 0.225,2.102 0.15,0.687 0.389,1.297 0.714,1.832 0.326,0.537 0.743,0.969 1.252,1.299 0.51,0.328 1.132,0.493 1.867,0.493 0.785,0 1.436,-0.169 1.954,-0.507 0.517,-0.339 0.956,-0.787 1.314,-1.34 0.36,-0.556 0.664,-1.18 0.915,-1.875 0.25,-0.696 0.497,-1.407 0.739,-2.13 0.242,-0.723 0.497,-1.421 0.764,-2.086 0.267,-0.668 0.61,-1.256 1.027,-1.763 h 0.25 v 9.307 c 0,0.206 -0.033,0.399 -0.1,0.578 -0.067,0.177 -0.267,0.266 -0.601,0.266 V 0 Z" /></g><g
           transform="translate(70.7842,145.5494)"
           id="g196"><path
             id="path198"
             style="fill:#262626;fill-opacity:1;fill-rule:nonzero;stroke:none"
             d="m 0,0 h -0.242 -3.331 -0.241 v -0.237 -0.34 -0.238 h 0.241 c 0.1,0 0.337,-0.011 0.375,-0.112 0.056,-0.151 0.085,-0.318 0.085,-0.495 v -8.928 c -0.321,0.434 -0.593,0.928 -0.811,1.471 -0.259,0.646 -0.515,1.344 -0.759,2.074 -0.243,0.724 -0.49,1.437 -0.741,2.135 -0.256,0.71 -0.572,1.358 -0.938,1.923 -0.376,0.58 -0.842,1.054 -1.385,1.41 -0.557,0.364 -1.26,0.547 -2.088,0.547 -0.778,0 -1.45,-0.179 -1.999,-0.532 -0.539,-0.349 -0.985,-0.812 -1.328,-1.376 -0.338,-0.556 -0.587,-1.196 -0.742,-1.903 -0.153,-0.696 -0.23,-1.421 -0.23,-2.152 0,-1.11 0.129,-2.083 0.386,-2.892 0.254,-0.799 0.538,-1.478 0.846,-2.019 0.307,-0.537 0.593,-0.965 0.851,-1.274 0.299,-0.359 0.321,-0.474 0.321,-0.479 0,-0.054 -0.01,-0.106 -0.029,-0.147 l -0.102,-0.23 -0.05,-0.114 0.066,-0.105 0.175,-0.28 0.167,-0.266 0.216,0.228 2.756,2.903 0.125,0.132 -0.095,0.154 -0.176,0.282 -0.2,0.323 -0.209,-0.317 c -0.007,-0.01 -0.038,-0.048 -0.156,-0.09 -0.138,-0.047 -0.211,-0.054 -0.242,-0.054 -0.281,0 -0.529,0.125 -0.758,0.382 -0.258,0.29 -0.485,0.646 -0.676,1.058 -0.191,0.411 -0.337,0.849 -0.434,1.302 -0.096,0.451 -0.145,0.833 -0.145,1.138 0,0.303 0.024,0.624 0.073,0.953 0.046,0.311 0.135,0.599 0.265,0.858 0.127,0.252 0.286,0.452 0.486,0.611 0.183,0.145 0.416,0.216 0.713,0.216 0.441,0 0.82,-0.214 1.16,-0.654 0.374,-0.485 0.74,-1.102 1.088,-1.833 0.365,-0.764 0.73,-1.578 1.086,-2.416 0.37,-0.872 0.806,-1.7 1.296,-2.46 0.499,-0.774 1.082,-1.426 1.732,-1.935 0.675,-0.53 1.492,-0.798 2.43,-0.798 h 0.902 0.242 v 0.237 0.338 0.237 h -0.242 c -0.048,0.12 -0.059,0.276 -0.059,0.467 v 11.875 c 0,0.199 0.008,0.384 0.024,0.556 h 0.242 L 0,-0.577 v 0.34 z m -0.242,-0.237 v -0.34 c -0.183,0 -0.283,-0.09 -0.299,-0.266 -0.018,-0.179 -0.026,-0.372 -0.026,-0.579 v -11.875 c 0,-0.206 0.012,-0.374 0.038,-0.507 0.024,-0.131 0.112,-0.197 0.263,-0.197 v -0.338 h -0.902 c -0.885,0 -1.644,0.248 -2.279,0.746 -0.635,0.498 -1.194,1.125 -1.679,1.878 -0.484,0.75 -0.91,1.558 -1.277,2.423 -0.367,0.866 -0.731,1.673 -1.09,2.426 -0.359,0.753 -0.731,1.377 -1.115,1.875 -0.384,0.498 -0.835,0.749 -1.352,0.749 -0.351,0 -0.639,-0.09 -0.865,-0.269 -0.225,-0.179 -0.408,-0.409 -0.551,-0.691 -0.142,-0.282 -0.238,-0.592 -0.288,-0.929 -0.05,-0.34 -0.075,-0.668 -0.075,-0.987 0,-0.322 0.05,-0.716 0.151,-1.187 0.1,-0.468 0.25,-0.92 0.45,-1.352 0.201,-0.433 0.439,-0.805 0.714,-1.115 0.276,-0.31 0.589,-0.464 0.94,-0.464 0.083,0 0.191,0.023 0.325,0.069 0.134,0.048 0.226,0.108 0.276,0.184 l 0.175,-0.283 -2.756,-2.903 -0.175,0.28 c 0.034,0.076 0.067,0.152 0.101,0.227 0.033,0.074 0.05,0.159 0.05,0.253 0,0.112 -0.126,0.321 -0.376,0.622 -0.251,0.3 -0.526,0.714 -0.827,1.239 -0.301,0.528 -0.576,1.184 -0.827,1.974 -0.25,0.792 -0.375,1.73 -0.375,2.821 0,0.716 0.075,1.416 0.226,2.102 0.149,0.686 0.388,1.297 0.713,1.831 0.326,0.538 0.743,0.969 1.253,1.3 0.509,0.328 1.131,0.493 1.866,0.493 0.785,0 1.436,-0.17 1.954,-0.507 0.518,-0.34 0.956,-0.787 1.315,-1.341 0.36,-0.555 0.663,-1.179 0.914,-1.875 0.251,-0.695 0.497,-1.407 0.739,-2.13 0.243,-0.723 0.497,-1.42 0.764,-2.086 0.268,-0.668 0.61,-1.255 1.027,-1.763 h 0.251 v 9.307 c 0,0.207 -0.034,0.4 -0.1,0.579 -0.068,0.176 -0.267,0.266 -0.602,0.266 v 0.34 h 3.331" /></g><g
           transform="translate(53.8293,122.5574)"
           id="g200"><path
             id="path202"
             style="fill:#262626;fill-opacity:1;fill-rule:nonzero;stroke:none"
             d="m 0,0 c 0,0.167 -0.013,0.306 -0.039,0.418 -0.026,0.111 -0.063,0.2 -0.11,0.265 C -0.196,0.748 -0.252,0.794 -0.316,0.822 -0.379,0.85 -0.449,0.864 -0.525,0.864 -0.6,0.864 -0.67,0.85 -0.734,0.822 -0.798,0.794 -0.853,0.748 -0.9,0.683 -0.948,0.618 -0.984,0.529 -1.01,0.418 -1.036,0.306 -1.049,0.167 -1.049,0 V -1.205 H 0 Z m -1.659,0.181 c 0,0.223 0.02,0.425 0.06,0.606 0.04,0.181 0.104,0.337 0.191,0.467 0.088,0.13 0.202,0.23 0.341,0.3 0.14,0.069 0.311,0.104 0.514,0.104 0.312,0 0.551,-0.091 0.716,-0.272 C 0.329,1.205 0.44,0.961 0.496,0.655 L 1.843,1.581 C 1.891,1.614 1.919,1.652 1.928,1.696 1.938,1.74 1.943,1.781 1.943,1.818 H 2.07 V 0.516 H 1.943 C 1.943,0.557 1.935,0.593 1.921,0.624 1.907,0.654 1.888,0.669 1.864,0.669 1.841,0.669 1.814,0.659 1.783,0.641 1.752,0.622 1.711,0.594 1.659,0.557 L 0.553,-0.209 v -0.996 h 1.262 c 0.043,0 0.074,0.015 0.096,0.045 0.021,0.03 0.032,0.085 0.032,0.164 H 2.07 V -2.201 H 1.943 c 0,0.134 -0.043,0.202 -0.128,0.202 h -3.219 c -0.085,0 -0.128,-0.068 -0.128,-0.202 h -0.127 z" /></g><g
           transform="translate(52.9359,128.8683)"
           id="g204"><path
             id="path206"
             style="fill:#262626;fill-opacity:1;fill-rule:nonzero;stroke:none"
             d="m 0,0 c -0.052,0 -0.091,-0.02 -0.117,-0.059 -0.026,-0.04 -0.039,-0.108 -0.039,-0.206 v -2.257 h 0.879 v 1.366 c 0,0.093 -0.013,0.164 -0.039,0.216 -0.026,0.051 -0.093,0.076 -0.202,0.076 v 0.126 H 1.588 V -0.864 C 1.48,-0.864 1.41,-0.889 1.379,-0.94 1.348,-0.992 1.333,-1.063 1.333,-1.156 v -1.366 h 0.978 v 2.327 c 0,0.07 -0.016,0.126 -0.049,0.171 C 2.229,0.02 2.184,0.042 2.127,0.042 V 0.167 H 3.098 V 0.042 C 3.027,0.042 2.987,0.02 2.978,-0.024 2.968,-0.069 2.964,-0.125 2.964,-0.195 V -3.441 H 2.836 c 0,0.032 -0.011,0.061 -0.032,0.087 -0.021,0.025 -0.053,0.038 -0.096,0.038 H -0.51 c -0.043,0 -0.075,-0.013 -0.096,-0.038 -0.021,-0.026 -0.032,-0.055 -0.032,-0.087 h -0.128 v 3.176 c 0,0.098 -0.015,0.166 -0.046,0.206 C -0.842,-0.02 -0.884,0 -0.936,0 V 0.125 H 0 Z" /></g><g
           transform="translate(55.6442,131.9962)"
           id="g208"><path
             id="path210"
             style="fill:#262626;fill-opacity:1;fill-rule:nonzero;stroke:none"
             d="M 0,0 C 0.085,0 0.128,0.051 0.128,0.153 H 0.255 V -0.92 H 0.128 c 0,0.033 -0.011,0.062 -0.032,0.088 C 0.074,-0.807 0.043,-0.794 0,-0.794 h -2.822 v -1.15 c 0,-0.042 0.012,-0.082 0.036,-0.121 0.023,-0.04 0.068,-0.06 0.135,-0.06 V -2.25 h -0.993 v 0.125 c 0.066,0 0.111,0.02 0.135,0.06 0.023,0.039 0.035,0.079 0.035,0.121 v 3.093 c 0,0.042 -0.012,0.083 -0.035,0.122 -0.024,0.04 -0.069,0.059 -0.135,0.059 v 0.126 h 0.993 V 1.33 C -2.718,1.33 -2.763,1.311 -2.786,1.271 -2.81,1.232 -2.822,1.191 -2.822,1.149 V 0 Z" /></g><g
           transform="translate(53.8293,136.4891)"
           id="g212"><path
             id="path214"
             style="fill:#262626;fill-opacity:1;fill-rule:nonzero;stroke:none"
             d="m 0,0 c 0,0.167 -0.013,0.306 -0.039,0.418 -0.026,0.111 -0.063,0.2 -0.11,0.265 C -0.196,0.748 -0.252,0.794 -0.316,0.822 -0.379,0.85 -0.449,0.864 -0.525,0.864 -0.6,0.864 -0.67,0.85 -0.734,0.822 -0.798,0.794 -0.853,0.748 -0.9,0.683 -0.948,0.618 -0.984,0.529 -1.01,0.418 -1.036,0.306 -1.049,0.167 -1.049,0 V -1.205 H 0 Z m -1.659,0.181 c 0,0.223 0.02,0.425 0.06,0.606 0.04,0.181 0.104,0.337 0.191,0.467 0.088,0.13 0.202,0.23 0.341,0.3 0.14,0.069 0.311,0.104 0.514,0.104 0.312,0 0.551,-0.091 0.716,-0.272 C 0.329,1.205 0.44,0.961 0.496,0.655 L 1.843,1.581 C 1.891,1.614 1.919,1.652 1.928,1.696 1.938,1.74 1.943,1.781 1.943,1.818 H 2.07 V 0.516 H 1.943 C 1.943,0.557 1.935,0.593 1.921,0.624 1.907,0.654 1.888,0.669 1.864,0.669 1.841,0.669 1.814,0.659 1.783,0.641 1.752,0.622 1.711,0.594 1.659,0.557 L 0.553,-0.209 v -0.996 h 1.262 c 0.043,0 0.074,0.015 0.096,0.045 0.021,0.03 0.032,0.085 0.032,0.164 H 2.07 V -2.201 H 1.943 c 0,0.134 -0.043,0.202 -0.128,0.202 h -3.219 c -0.085,0 -0.128,-0.068 -0.128,-0.202 h -0.127 z" /></g><g
           transform="translate(52.7801,141.4699)"
           id="g216"><path
             id="path218"
             style="fill:#262626;fill-opacity:1;fill-rule:nonzero;stroke:none"
             d="m 0,0 c 0,-0.177 0.028,-0.353 0.085,-0.529 0.057,-0.177 0.138,-0.336 0.244,-0.478 0.107,-0.141 0.238,-0.256 0.394,-0.344 0.156,-0.089 0.333,-0.133 0.532,-0.133 0.198,0 0.376,0.044 0.532,0.133 0.155,0.088 0.287,0.203 0.393,0.344 0.106,0.142 0.188,0.301 0.245,0.478 C 2.481,-0.353 2.51,-0.177 2.51,0 2.51,0.177 2.481,0.353 2.425,0.529 2.368,0.706 2.286,0.865 2.18,1.007 2.074,1.148 1.942,1.263 1.787,1.351 1.631,1.44 1.453,1.484 1.255,1.484 1.056,1.484 0.879,1.44 0.723,1.351 0.567,1.263 0.436,1.148 0.329,1.007 0.223,0.865 0.142,0.706 0.085,0.529 0.028,0.353 0,0.177 0,0 m -0.652,0 c 0,0.255 0.039,0.516 0.117,0.78 0.077,0.265 0.195,0.506 0.351,0.725 0.155,0.218 0.353,0.397 0.592,0.536 C 0.646,2.18 0.929,2.25 1.255,2.25 1.581,2.25 1.863,2.18 2.102,2.041 2.341,1.902 2.538,1.723 2.694,1.505 2.85,1.286 2.963,1.045 3.034,0.78 3.105,0.516 3.141,0.255 3.141,0 3.141,-0.255 3.105,-0.516 3.034,-0.78 2.963,-1.045 2.85,-1.286 2.694,-1.505 2.538,-1.723 2.341,-1.902 2.102,-2.041 1.863,-2.18 1.581,-2.25 1.255,-2.25 c -0.326,0 -0.609,0.07 -0.847,0.209 -0.239,0.139 -0.437,0.318 -0.592,0.536 -0.156,0.219 -0.274,0.46 -0.351,0.725 -0.078,0.264 -0.117,0.525 -0.117,0.78" /></g><path
           id="path220"
           style="fill:#191919;fill-opacity:1;fill-rule:nonzero;stroke:none"
           d="m 70,60 h -2 v 12 h 2 z" /><path
           id="path222"
           style="fill:#191919;fill-opacity:1;fill-rule:nonzero;stroke:none"
           d="m 94,60 h -2 v 12 h 2 z" /><path
           id="path224"
           style="fill:#191919;fill-opacity:1;fill-rule:nonzero;stroke:none"
           d="m 118,60 h -2 v 12 h 2 z" /><path
           id="path226"
           style="fill:#191919;fill-opacity:1;fill-rule:nonzero;stroke:none"
           d="m 140,60 h -2 v 12 h 2 z" /><path
           id="path228"
           style="fill:#191919;fill-opacity:1;fill-rule:nonzero;stroke:none"
           d="m 160,60 h -2 v 12 h 2 z" /><path
           id="path230"
           style="fill:#191919;fill-opacity:1;fill-rule:nonzero;stroke:none"
           d="m 184,60 h -2 v 12 h 2 z" /><g
           transform="translate(94,127.8864)"
           id="g232"><path
             id="path234"
             style="fill:#f39b11;fill-opacity:1;fill-rule:nonzero;stroke:none"
             d="m 0,0 c -6.375,0 -11.561,-5.332 -11.561,-11.886 0,-6.555 5.186,-11.887 11.561,-11.887 6.375,0 11.561,5.332 11.561,11.887 C 11.561,-5.332 6.375,0 0,0" /></g><g
           transform="translate(91.9658,117.022)"
           id="g236"><path
             id="path238"
             style="fill:#e77f22;fill-opacity:1;fill-rule:nonzero;stroke:none"
             d="m 0,0 c 0,0 -8.376,4.155 -8.269,4.365 0.107,0.211 1.191,1.918 1.191,1.918 l 5.274,-4.087 0.221,0.416 -4.389,4.932 0.827,0.743 5.587,-6.773 z" /></g><g
           transform="translate(87.5544,125.8629)"
           id="g240"><path
             id="path242"
             style="fill:#d4a600;fill-opacity:1;fill-rule:nonzero;stroke:none"
             d="m 0,0 3.381,-4.915 2.146,0.7 L 4.56,1.865 2.764,1.405 4.08,-3.125 3.528,-3.314 0.976,0.607 Z" /></g><g
           transform="translate(94.4326,118.9526)"
           id="g244"><path
             id="path246"
             style="fill:#d35400;fill-opacity:1;fill-rule:nonzero;stroke:none"
             d="M 0,0 C 0.184,0.416 2.937,8.42 3.071,8.376 3.204,8.331 3.677,8.157 3.677,8.157 3.677,8.157 2.32,5.471 2.467,5.385 2.614,5.3 2.761,5.051 2.761,5.051 L 4.582,7.756 5.867,7.009 3.677,4.188 5.154,1.987 8.804,4.188 9.978,2.213 1.804,-0.909 Z" /></g><g
           transform="translate(104.5831,111.2187)"
           id="g248"><path
             id="path250"
             style="fill:#d35400;fill-opacity:1;fill-rule:nonzero;stroke:none"
             d="m 0,0 -3.045,0.75 c 0,0 -1.031,-0.534 -0.846,-0.75 0.184,-0.216 2.77,-2.039 2.77,-2.039 l -1.277,-1.566 -2.601,2.671 c 0,0 -0.74,-0.282 -0.586,-0.494 0.153,-0.212 2.383,-2.932 2.383,-2.932 l -1.082,-0.928 -1.89,3.019 -1.804,-1.013 0.776,-3.304 -2.28,-0.465 -0.816,8.804 9.508,0.416 1.083,-1.419 z" /></g><g
           transform="translate(89.6831,114.0694)"
           id="g252"><path
             id="path254"
             style="fill:#e77f22;fill-opacity:1;fill-rule:nonzero;stroke:none"
             d="m 0,0 -5.987,-3.293 c 0,0 0.41,-0.922 0.51,-1.085 0.101,-0.163 2.2,1.463 2.2,1.463 0,0 0.346,-0.757 0.283,-0.833 -0.062,-0.075 -1.864,-1.544 -1.864,-1.544 l 0.863,-1.029 1.866,1.741 0.914,-0.871 -1.471,-2.069 0.557,-0.412 1.429,2.027 0.7,-0.416 -1.124,-2.234 0.683,-0.347 1.076,2.315 1.059,-0.34 -0.752,-2.512 0.964,-0.256 0.819,2.578 0.295,3.672 z" /></g><g
           transform="translate(104.0145,116)"
           id="g256"><path
             id="path258"
             style="fill:#ffff00;fill-opacity:1;fill-rule:nonzero;stroke:none"
             d="m 0,0 c 0,-5.687 -4.484,-10.297 -10.014,-10.297 -5.531,0 -10.015,4.61 -10.015,10.297 0,5.687 4.484,10.297 10.015,10.297 C -4.484,10.297 0,5.687 0,0" /></g><g
           transform="translate(93.0817,127.7275)"
           id="g260"><path
             id="path262"
             style="fill:#d9d9d9;fill-opacity:1;fill-rule:nonzero;stroke:none"
             d="M 0,0 0.651,-11.084 1.278,-23.608 2.019,-23.56 0.918,-11.046 1.614,0.137 Z" /></g><g
           transform="translate(87.5544,123.8798)"
           id="g264"><path
             id="path266"
             style="fill:#d4a600;fill-opacity:1;fill-rule:nonzero;stroke:none"
             d="m 0,0 5.958,-7.426 3.929,-10.126 c 0,0 1.865,0.721 2.858,1.669 L 6.446,-7.198 1.522,1.087 Z" /></g><g
           transform="translate(93.5122,116.4542)"
           id="g268"><path
             id="path270"
             style="fill:#e6e6e6;fill-opacity:1;fill-rule:nonzero;stroke:none"
             d="M 0,0 -0.809,9.756 1.178,9.842 0.81,0 0.736,-4.486 1.589,-10.689 h -1.994 l 0.795,6.411 z" /></g><g
           transform="translate(94.3187,116.242)"
           id="g272"><path
             id="path274"
             style="fill:#eac500;fill-opacity:1;fill-rule:nonzero;stroke:none"
             d="m 0,0 -6.309,-8.494 -2.116,2.208 7.803,7.255 3.203,-0.984 5.552,-5.753 -1.43,-1.815 z" /></g><g
           transform="translate(94.8376,118.6877)"
           id="g276"><path
             id="path278"
             style="fill:#e6e6e6;fill-opacity:1;fill-rule:nonzero;stroke:none"
             d="M 0,0 5.462,5.316 6.543,4.271 1.178,-0.795 Z" /></g><g
           transform="translate(94,126.2965)"
           id="g280"><path
             id="path282"
             style="fill:#ffff00;fill-opacity:1;fill-rule:nonzero;stroke:none"
             d="m 0,0 c -5.531,0 -10.014,-4.61 -10.014,-10.297 0,-5.686 4.483,-10.296 10.014,-10.296 5.531,0 10.014,4.61 10.014,10.296 C 10.014,-4.61 5.531,0 0,0 m 0,-0.227 c 5.4,0 9.794,-4.517 9.794,-10.07 0,-5.552 -4.394,-10.069 -9.794,-10.069 -5.4,0 -9.794,4.517 -9.794,10.069 0,5.553 4.394,10.07 9.794,10.07" /></g><g
           transform="translate(94,127.7729)"
           id="g284"><path
             id="path286"
             style="fill:#f39b11;fill-opacity:1;fill-rule:nonzero;stroke:none"
             d="m 0,0 c -6.314,0 -11.45,-5.281 -11.45,-11.773 0,-6.492 5.136,-11.773 11.45,-11.773 6.314,0 11.45,5.281 11.45,11.773 C 11.45,-5.281 6.314,0 0,0 m 0,-23.773 c -6.436,0 -11.671,5.383 -11.671,12 0,6.617 5.235,12 11.671,12 6.435,0 11.671,-5.383 11.671,-12 0,-6.617 -5.236,-12 -11.671,-12" /></g><g
           transform="translate(105.5787,120.94)"
           id="g288"><path
             id="path290"
             style="fill:#eac500;fill-opacity:1;fill-rule:nonzero;stroke:none"
             d="m 0,0 h -0.285 -22.477 -0.275 l -0.194,-0.2 -2.154,-2.214 -0.194,-0.2 v -0.282 -2.953 -0.268 l 0.178,-0.196 2.209,-2.441 0.196,-0.218 h 0.289 22.477 0.291 l 0.196,0.22 1.989,2.214 0.175,0.196 v 0.266 3.18 0.272 l -0.182,0.197 -2.043,2.215 z" /></g><g
           transform="translate(80.6627,118.0441)"
           id="g292"><path
             id="path294"
             style="fill:#ffff00;fill-opacity:1;fill-rule:nonzero;stroke:none"
             d="M 0,0 2.154,2.215 H 24.631 L 26.675,0 V -3.18 L 24.686,-5.394 H 2.209 L 0,-2.953 Z" /></g><g
           transform="translate(107.3373,118.0441)"
           id="g296"><path
             id="path298"
             style="fill:#d4a600;fill-opacity:1;fill-rule:nonzero;stroke:none"
             d="m 0,0 v -3.18 l -1.988,-2.214 h -22.477 l -2.21,2.441 -0.662,-0.258 v -0.01 l 0.177,-0.196 2.209,-2.441 0.197,-0.218 h 0.289 22.477 0.29 l 0.197,0.219 1.988,2.215 0.176,0.196 V -3.18 0 0.237 Z" /></g><g
           transform="translate(92.5699,114.5966)"
           id="g300"><path
             id="path302"
             style="fill:#262626;fill-opacity:1;fill-rule:nonzero;stroke:none"
             d="M 0,0 H -0.533 L -1.2,1.371 V 0 h -0.534 v 1.92 h 0.8 z M 0,2.674 C 0,2.503 -0.059,2.358 -0.176,2.237 -0.293,2.117 -0.412,2.057 -0.533,2.057 H -1.867 V 0 h -0.534 v 2.605 h 1.734 c 0.089,0 0.134,0.023 0.134,0.069 0,0.046 -0.045,0.068 -0.134,0.068 h -1.734 v 0.549 h 1.868 c 0.121,0 0.24,-0.061 0.357,-0.183 C -0.059,2.986 0,2.842 0,2.674 m 0.667,0 C 0.667,2.314 0.577,2.042 0.398,1.858 0.219,1.674 0.067,1.55 -0.058,1.486 L 0.667,0 H 0.133 L -0.8,1.92 h 0.267 c 0.157,0 0.307,0.074 0.451,0.221 0.144,0.148 0.215,0.326 0.215,0.533 0,0.204 -0.071,0.381 -0.215,0.53 -0.144,0.149 -0.294,0.224 -0.451,0.224 h -1.868 v 0.549 h 1.868 c 0.305,0 0.581,-0.128 0.829,-0.384 C 0.543,3.337 0.667,3.03 0.667,2.674" /></g><g
           transform="translate(93.5035,117.3391)"
           id="g304"><path
             id="path306"
             style="fill:#262626;fill-opacity:1;fill-rule:nonzero;stroke:none"
             d="M 0,0 C 0,0.823 0.4,1.234 1.2,1.234 H 2.801 V 0.686 H 1.2 C 0.756,0.686 0.533,0.457 0.533,0 v -1.508 c 0,-0.457 0.223,-0.686 0.667,-0.686 H 2.801 V -2.742 H 1.2 c -0.8,0 -1.2,0.411 -1.2,1.234 z" /></g><g
           transform="translate(94.1703,116.6535)"
           id="g308"><path
             id="path310"
             style="fill:#262626;fill-opacity:1;fill-rule:nonzero;stroke:none"
             d="M 0,0 V 0.686 C 0,1.051 0.178,1.234 0.533,1.234 H 2.134 V 0.686 H 0.667 C 0.578,0.686 0.533,0.64 0.533,0.549 H 1.734 V 0 Z" /></g><g
           transform="translate(94.1703,116.5164)"
           id="g312"><path
             id="path314"
             style="fill:#262626;fill-opacity:1;fill-rule:nonzero;stroke:none"
             d="M 0,0 H 1.734 V -0.549 H 0.533 c 0,-0.091 0.045,-0.137 0.134,-0.137 H 2.134 V -1.234 H 0.533 C 0.178,-1.234 0,-1.051 0,-0.686 Z" /></g><g
           transform="translate(98.1714,117.8876)"
           id="g316"><path
             id="path318"
             style="fill:#262626;fill-opacity:1;fill-rule:nonzero;stroke:none"
             d="M 0,0 H 1.467 V -0.549 H 0.533 V -3.291 H 0 Z m -0.133,0 v -3.291 h -0.534 v 2.742 H -1.6 V 0 Z m 1.6,0.137 H -1.6 v 0.549 h 3.067 z" /></g><g
           transform="translate(102.3058,114.5966)"
           id="g320"><path
             id="path322"
             style="fill:#262626;fill-opacity:1;fill-rule:nonzero;stroke:none"
             d="M 0,0 H -0.533 L -1.2,1.371 V 0 h -0.534 v 1.92 h 0.8 z M 0,2.674 C 0,2.503 -0.059,2.358 -0.176,2.237 -0.293,2.117 -0.412,2.057 -0.533,2.057 H -1.867 V 0 h -0.534 v 2.605 h 1.734 c 0.089,0 0.134,0.023 0.134,0.069 0,0.046 -0.045,0.068 -0.134,0.068 h -1.734 v 0.549 h 1.868 c 0.121,0 0.24,-0.061 0.357,-0.183 C -0.059,2.986 0,2.842 0,2.674 m 0.667,0 C 0.667,2.314 0.577,2.042 0.398,1.858 0.219,1.674 0.067,1.55 -0.058,1.486 L 0.667,0 H 0.133 L -0.8,1.92 h 0.267 c 0.157,0 0.307,0.074 0.451,0.221 0.143,0.148 0.215,0.326 0.215,0.533 0,0.204 -0.072,0.381 -0.215,0.53 -0.144,0.149 -0.294,0.224 -0.451,0.224 h -1.868 v 0.549 h 1.868 c 0.305,0 0.581,-0.128 0.829,-0.384 C 0.543,3.337 0.667,3.03 0.667,2.674" /></g><g
           transform="translate(104.9732,117.202)"
           id="g324"><path
             id="path326"
             style="fill:#262626;fill-opacity:1;fill-rule:nonzero;stroke:none"
             d="M 0,0 C 0,0.091 -0.044,0.137 -0.133,0.137 H -0.4 C -0.489,0.137 -0.533,0.091 -0.533,0 v -1.234 c 0,-0.092 0.044,-0.137 0.133,-0.137 h 0.267 C -0.044,-1.371 0,-1.326 0,-1.234 Z M 0.533,0.137 V -1.371 C 0.533,-1.737 0.356,-1.92 0,-1.92 h -0.533 c -0.356,0 -0.534,0.183 -0.534,0.549 v 1.508 c 0,0.366 0.178,0.549 0.534,0.549 H 0 c 0.356,0 0.533,-0.183 0.533,-0.549 m 0.134,0 C 0.667,0.594 0.445,0.823 0,0.823 H -0.533 C -0.978,0.823 -1.2,0.594 -1.2,0.137 v -1.508 c 0,-0.457 0.222,-0.686 0.667,-0.686 H 0 c 0.445,0 0.667,0.229 0.667,0.686 z m 0.533,0 V -1.371 C 1.2,-2.194 0.8,-2.605 0,-2.605 h -0.533 c -0.801,0 -1.201,0.411 -1.201,1.234 v 1.508 c 0,0.823 0.4,1.234 1.201,1.234 H 0 c 0.8,0 1.2,-0.411 1.2,-1.234" /></g><g
           transform="translate(82.883,115.5187)"
           id="g328"><path
             id="path330"
             style="fill:#262626;fill-opacity:1;fill-rule:nonzero;stroke:none"
             d="M 0,0 C -0.004,0.012 -0.007,0.025 -0.011,0.038 H 0 Z m 0.751,0.312 c -0.088,0 -0.133,0.046 -0.133,0.137 v 2.606 h -1.2 V 0.312 c 0,-0.823 0.4,-1.234 1.2,-1.234 h 1.601 v 1.234 z" /></g><path
           id="path332"
           style="fill:#262626;fill-opacity:1;fill-rule:nonzero;stroke:none"
           d="m 85.368,114.597 h 1.2 v 3.977 h -1.2 z" /><g
           transform="translate(88.5689,117.202)"
           id="g334"><path
             id="path336"
             style="fill:#262626;fill-opacity:1;fill-rule:nonzero;stroke:none"
             d="M 0,0 H -0.533 V 0.137 H 0 C 0.089,0.137 0.133,0.114 0.133,0.069 0.133,0.023 0.089,0 0,0 m 0,-1.371 h -0.533 v 0.137 H 0 c 0.089,0 0.133,-0.023 0.133,-0.069 0,-0.045 -0.044,-0.068 -0.133,-0.068 m 1.334,1.44 C 1.334,0.425 1.21,0.731 0.962,0.987 0.715,1.243 0.439,1.371 0.133,1.371 h -1.867 v -3.976 h 1.867 c 0.306,0 0.582,0.128 0.829,0.384 0.248,0.256 0.372,0.562 0.372,0.918 0,0.259 -0.061,0.486 -0.183,0.681 0.122,0.195 0.183,0.425 0.183,0.691" /></g><g
           transform="translate(162.1992,117.8947)"
           id="g338"><path
             id="path340"
             style="fill:#ffffff;fill-opacity:1;fill-rule:nonzero;stroke:none"
             d="m 0,0 -0.551,-0.958 c -0.043,-0.063 -0.108,-0.095 -0.194,-0.095 h -1.814 v 2.316 h 1.814 c 0.086,0 0.151,-0.035 0.194,-0.105 L 0,0.211 0.032,0.105 Z M 1.555,0.211 0.551,1.895 c -0.087,0.14 -0.195,0.21 -0.324,0.21 h -4.341 v -4 h 4.341 c 0.129,0 0.237,0.07 0.324,0.211 L 1.555,0 1.587,0.105 Z" /></g><g
           transform="translate(164.3047,120)"
           id="g342"><path
             id="path344"
             style="fill:#ffffff;fill-opacity:1;fill-rule:nonzero;stroke:none"
             d="M 0,0 H 4.146 C 4.276,0 4.384,-0.07 4.47,-0.211 L 5.151,-1.368 5.183,-1.474 5.151,-1.579 4.146,-2.526 5.183,-4 H 3.628 l -1.49,2 h 0.777 c 0.087,0 0.152,0.018 0.195,0.053 l 0.518,0.473 -0.259,0.527 c -0.043,0.07 -0.108,0.105 -0.194,0.105 H 1.555 L 1.555,-4 H 0 Z" /></g><path
           id="path346"
           style="fill:#ffffff;fill-opacity:1;fill-rule:nonzero;stroke:none"
           d="m 171.561,116 h -1.555 v 4 h 1.555 z" /><path
           id="path348"
           style="fill:#0000ff;fill-opacity:1;fill-rule:nonzero;stroke:none"
           d="m 143.423,116 h -1.555 v 4 h 1.555 z" /><g
           transform="translate(173.6341,118.6842)"
           id="g350"><path
             id="path352"
             style="fill:#ffffff;fill-opacity:1;fill-rule:nonzero;stroke:none"
             d="M 0,0 1.555,-1.842 3.11,0 v 1.316 h 1.555 v -1.474 c 0,-0.14 -0.022,-0.246 -0.065,-0.316 L 2.851,-2.684 H 0.259 l -1.749,2.21 c -0.043,0.07 -0.065,0.176 -0.065,0.316 v 1.474 l 1.555,0 z" /></g><g
           transform="translate(180.3719,117.5789)"
           id="g354"><path
             id="path356"
             style="fill:#ffffff;fill-opacity:1;fill-rule:nonzero;stroke:none"
             d="m 0,0 v -0.737 h 3.628 v -0.842 h -5.183 v 2.632 c 0,0.07 0.022,0.14 0.065,0.21 l 0.713,1.053 c 0.043,0.07 0.129,0.105 0.259,0.105 H 3.628 V 1.579 H 0.518 C 0.432,1.579 0.367,1.544 0.324,1.474 L 0,0.842 H 3.628 L 3.11,0 Z" /></g><g
           transform="translate(138.9154,118)"
           id="g358"><path
             id="path360"
             style="fill:#0000ff;fill-opacity:1;fill-rule:nonzero;stroke:none"
             d="m 0,0 h -0.777 l 0.308,-0.414 c 0.05,-0.067 0.14,-0.108 0.236,-0.108 h 1.342 c 0.08,0 0.157,0.028 0.209,0.078 L 2.235,0.421 2.268,0.526 2.235,0.632 1.555,1.789 C 1.469,1.93 1.361,2 1.231,2 h -4.146 v -4 h 1.554 v 3.158 h 1.62 c 0.087,0 0.151,-0.035 0.195,-0.105 L 0.713,0.526 0.194,0.053 C 0.151,0.018 0.086,0 0,0" /></g><g
           transform="translate(149.5198,116.8424)"
           id="g362"><path
             id="path364"
             style="fill:#0000ff;fill-opacity:1;fill-rule:nonzero;stroke:none"
             d="m 0,0 h -1.304 v 0 h -2.609 v 1.579 l 0.326,0.631 c 0.043,0.07 0.109,0.106 0.196,0.106 H 0 v 0.842 h -4.435 c -0.13,0 -0.217,-0.035 -0.261,-0.106 L -5.413,2 C -5.457,1.93 -5.478,1.859 -5.478,1.789 v -2.421 c 0,-0.14 0.087,-0.21 0.26,-0.21 l 5.218,0 z" /></g><g
           transform="translate(154.6452,117.8947)"
           id="g366"><path
             id="path368"
             style="fill:#0000ff;fill-opacity:1;fill-rule:nonzero;stroke:none"
             d="m 0,0 -0.551,-0.958 c -0.043,-0.063 -0.108,-0.095 -0.194,-0.095 h -0.168 -1.441 -0.167 c -0.087,0 -0.151,0.032 -0.195,0.095 L -3.266,0 l -0.033,0.105 0.033,0.106 0.55,0.947 c 0.044,0.07 0.108,0.105 0.195,0.105 h 0.167 1.441 0.168 c 0.086,0 0.151,-0.035 0.194,-0.105 L 0,0.211 0.032,0.105 Z M 1.555,0.211 0.551,1.895 c -0.087,0.14 -0.195,0.21 -0.324,0.21 h -3.72 c -0.13,0 -0.237,-0.07 -0.324,-0.21 L -4.821,0.211 -4.853,0.105 -4.821,0 -3.817,-1.684 c 0.087,-0.141 0.194,-0.211 0.324,-0.211 h 3.72 c 0.129,0 0.237,0.07 0.324,0.211 L 1.555,0 1.587,0.105 Z" /></g></g></g></g></svg>