<?xml version="1.0" encoding="UTF-8" standalone="no"?>
<svg
   xmlns:dc="http://purl.org/dc/elements/1.1/"
   xmlns:cc="http://creativecommons.org/ns#"
   xmlns:rdf="http://www.w3.org/1999/02/22-rdf-syntax-ns#"
   xmlns:svg="http://www.w3.org/2000/svg"
   xmlns="http://www.w3.org/2000/svg"
   viewBox="0 0 341.33334 341.33334"
   height="256"
   width="256"
   xml:space="preserve"
   id="svg2"
   version="1.1"><metadata
     id="metadata8"><rdf:RDF><cc:Work
         rdf:about=""><dc:format>image/svg+xml</dc:format><dc:type
           rdf:resource="http://purl.org/dc/dcmitype/StillImage" /></cc:Work></rdf:RDF></metadata><defs
     id="defs6"><clipPath
       id="clipPath18"
       clipPathUnits="userSpaceOnUse"><path
         id="path16"
         d="M 0,256 H 256 V 0 H 0 Z" /></clipPath><clipPath
       id="clipPath26"
       clipPathUnits="userSpaceOnUse"><path
         id="path24"
         d="M 4,212 H 252 V 48 H 4 Z" /></clipPath></defs><g
     transform="matrix(1.3333333,0,0,-1.3333333,0,341.33333)"
     id="g10"><g
       id="g12"><g
         clip-path="url(#clipPath18)"
         id="g14"><g
           id="g20"><g
             id="g22" /><g
             id="g34"><g
               style="opacity:0.5"
               id="g32"
               clip-path="url(#clipPath26)"><g
                 id="g30"
                 transform="translate(239.1667,212)"><path
                   id="path28"
                   style="fill:#ffffff;fill-opacity:1;fill-rule:nonzero;stroke:none"
                   d="m 0,0 h -222.333 c -7.077,0 -12.834,-5.75 -12.834,-12.818 v -135.955 -0.5 l 0.062,-0.496 c 0.573,-4.568 4.416,-8.013 11.422,-10.241 8.325,-2.647 22.139,-3.989 41.061,-3.99 h 142.911 c 18.921,0.001 32.736,1.343 41.061,3.99 7.006,2.228 10.848,5.673 11.421,10.241 l 0.062,0.496 v 0.5 135.955 C 12.833,-5.75 7.076,0 0,0" /></g></g></g></g><g
           transform="translate(239.1667,204)"
           id="g36"><path
             id="path38"
             style="fill:#262626;fill-opacity:1;fill-rule:nonzero;stroke:none"
             d="m 0,0 h -222.333 c -2.659,0 -4.834,-2.168 -4.834,-4.818 v -135.955 c 0,0 0.906,-7.226 44.545,-7.227 h 142.911 c 43.638,0.001 44.544,7.227 44.544,7.227 V -4.818 C 4.833,-2.168 2.658,0 0,0" /></g><g
           transform="translate(211.7778,202.237)"
           id="g40"><path
             id="path42"
             style="fill:#191919;fill-opacity:1;fill-rule:nonzero;stroke:none"
             d="m 0,0 h -165.542 v -125.779 c 0,-2.67 2.164,-4.834 4.834,-4.834 H -4.833 c 2.669,0 4.833,2.164 4.833,4.834 z" /></g><g
           transform="translate(208,204)"
           id="g44"><path
             id="path46"
             style="fill:#808080;fill-opacity:1;fill-rule:nonzero;stroke:none"
             d="M 0,0 V -125.541 C 0,-126.897 -1.079,-128 -2.406,-128 h -155.188 c -1.327,0 -2.406,1.103 -2.406,2.459 V 0 H 0" /></g><g
           transform="translate(207.49,76)"
           id="g48"><path
             id="path50"
             style="fill:#7b0000;fill-opacity:1;fill-rule:nonzero;stroke:none"
             d="m 0,0 h -135.49 v 20 h 136 V 0.51 C 0.51,0.228 0.282,0 0,0" /></g><g
           transform="translate(188,112)"
           id="g52"><path
             id="path54"
             style="fill:#000000;fill-opacity:1;fill-rule:nonzero;stroke:none"
             d="M 0,0 V -4.309 -4.922 -19.712 -20.237 -24 h 16 v 3.763 0.525 14.79 0.613 V 0 Z" /></g><path
           id="path56"
           style="fill:#ffffff;fill-opacity:1;fill-rule:nonzero;stroke:none"
           d="m 203.467,92.381 h -14.933 v 14.692 h 14.933 z" /><path
           id="path58"
           style="fill:#ffffff;fill-opacity:1;fill-rule:nonzero;stroke:none"
           d="m 188.533,111.451 h 14.933 v -3.76 h -14.933 z" /><g
           transform="translate(190.3483,90.383)"
           id="g60"><path
             id="path62"
             style="fill:#ffffff;fill-opacity:1;fill-rule:nonzero;stroke:none"
             d="M 0,0 H 1.681 V -1.4 C 1.175,-1.508 0.587,-1.578 0.054,-1.578 c -1.175,0 -1.749,0.589 -1.749,1.408 0,0.819 0.574,1.408 1.785,1.408 1.004,0 1.528,-0.271 1.541,-0.897 H 0.42 C 0.416,0.426 0.375,0.482 0.321,0.515 0.267,0.548 0.19,0.563 0.109,0.563 c -0.195,0 -0.321,-0.081 -0.385,-0.189 -0.063,-0.107 -0.081,-0.37 -0.081,-0.596 0,-0.259 0.027,-0.437 0.086,-0.523 0.077,-0.111 0.203,-0.159 0.37,-0.159 0.122,0 0.24,0.015 0.344,0.056 v 0.322 H 0 Z" /></g><g
           transform="translate(194.2501,89.957)"
           id="g64"><path
             id="path66"
             style="fill:#ffffff;fill-opacity:1;fill-rule:nonzero;stroke:none"
             d="M 0,0 -0.258,1.008 H -0.267 L -0.551,0 Z M -1.071,1.593 H 0.605 L 1.654,-1.082 H 0.316 l -0.126,0.43 h -0.936 l -0.131,-0.43 h -1.238 z" /></g><g
           transform="translate(199.2676,90.7869)"
           id="g68"><path
             id="path70"
             style="fill:#ffffff;fill-opacity:1;fill-rule:nonzero;stroke:none"
             d="M 0,0 H -0.009 L -0.47,-1.912 H -1.654 L -2.115,0 h -0.009 v -1.912 h -1.093 v 2.675 h 1.794 l 0.357,-1.593 h 0.009 L -0.7,0.763 H 1.094 V -1.912 H 0 Z" /></g><g
           transform="translate(200.8248,91.5502)"
           id="g72"><path
             id="path74"
             style="fill:#ffffff;fill-opacity:1;fill-rule:nonzero;stroke:none"
             d="M 0,0 H 2.481 V -0.697 H 1.238 V -0.982 H 2.386 V -1.678 H 1.238 v -0.3 H 2.521 V -2.675 H 0 Z" /></g><g
           transform="translate(190.8519,110.7954)"
           id="g76"><path
             id="path78"
             style="fill:#000000;fill-opacity:1;fill-rule:nonzero;stroke:none"
             d="M 0,0 H 0.588 L -0.189,-2.258 H -0.895 L -1.648,0 h 0.653 l 0.481,-1.636 h 0.006 z" /></g><path
           id="path80"
           style="fill:#000000;fill-opacity:1;fill-rule:nonzero;stroke:none"
           d="m 191.565,110.795 h 0.59 v -2.258 h -0.59 z" /><g
           transform="translate(192.4391,110.7954)"
           id="g82"><path
             id="path84"
             style="fill:#000000;fill-opacity:1;fill-rule:nonzero;stroke:none"
             d="m 0,0 h 0.827 l 0.714,-1.682 0.006,0.006 V 0 H 2.079 V -2.258 H 1.261 L 0.537,-0.529 H 0.531 V -2.258 H 0 Z" /></g><g
           transform="translate(195.2866,110.3575)"
           id="g86"><path
             id="path88"
             style="fill:#000000;fill-opacity:1;fill-rule:nonzero;stroke:none"
             d="m 0,0 h -0.652 v 0.438 h 1.91 V 0 H 0.59 V -1.82 H 0 Z" /></g><g
           transform="translate(197.7323,109.4162)"
           id="g90"><path
             id="path92"
             style="fill:#000000;fill-opacity:1;fill-rule:nonzero;stroke:none"
             d="M 0,0 -0.272,0.938 H -0.281 L -0.57,0 Z m -1.45,-0.879 0.842,2.258 h 0.72 L 0.954,-0.879 H 0.286 l -0.141,0.441 h -0.866 l -0.138,-0.441 z" /></g><g
           transform="translate(200.2876,109.3819)"
           id="g94"><path
             id="path96"
             style="fill:#000000;fill-opacity:1;fill-rule:nonzero;stroke:none"
             d="M 0,0 H -0.434 V 0.438 H 0.59 v -1.207 c -0.478,-0.075 -0.569,-0.122 -1.083,-0.122 -0.664,0.022 -1.069,0.469 -1.069,1.176 0,0.706 0.405,1.154 1.069,1.176 0.517,0.015 1.06,-0.066 1.069,-0.723 h -0.591 c -0.029,0.219 -0.192,0.285 -0.386,0.285 -0.399,0 -0.541,-0.373 -0.541,-0.738 0,-0.445 0.21,-0.739 0.635,-0.739 0.109,0 0.218,0.019 0.307,0.038 z" /></g><g
           transform="translate(201.1716,108.5375)"
           id="g98"><path
             id="path100"
             style="fill:#000000;fill-opacity:1;fill-rule:nonzero;stroke:none"
             d="M 0,0 V 2.258 H 1.624 V 1.82 H 0.591 V 1.354 h 0.95 V 0.916 H 0.591 V 0.438 H 1.624 V 0 Z" /></g><g
           transform="translate(189.5514,103.1683)"
           id="g102"><path
             id="path104"
             style="fill:#000000;fill-opacity:1;fill-rule:nonzero;stroke:none"
             d="m 0,0 4.071,1.298 3.803,-7.903 0.028,0.009 -0.893,8.831 3.834,1.222 0.215,-11.6 -5.177,-1.651 z" /></g><g
           transform="translate(125.3587,84.8801)"
           id="g106"><path
             id="path108"
             style="fill:#ffffff;fill-opacity:1;fill-rule:nonzero;stroke:none"
             d="m 0,0 v -0.809 c 0,-0.285 0.023,-0.549 0.054,-0.806 l -0.533,1.144 C -0.328,-0.339 -0.165,-0.171 0,0 m 23.776,0 v -0.809 c 0,-0.285 0.023,-0.549 0.055,-0.806 l -0.533,1.144 c 0.15,0.132 0.314,0.3 0.478,0.471 M 28.86,7.12 H 27.557 C 25.896,7.12 24.758,6.434 24.192,5.176 24.044,5.419 23.872,5.65 23.671,5.868 22.904,6.699 22.02,7.12 21.043,7.12 H 16.484 C 16.368,7.12 16.258,7.094 16.158,7.049 16.057,7.094 15.948,7.12 15.832,7.12 H 8.341 C 8.225,7.12 8.116,7.094 8.015,7.049 7.915,7.094 7.805,7.12 7.689,7.12 H 3.781 C 2.12,7.12 0.982,6.434 0.416,5.176 0.267,5.419 0.095,5.65 -0.106,5.868 -0.873,6.699 -1.757,7.12 -2.733,7.12 h -4.56 c -0.469,0 -0.85,-0.41 -0.85,-0.915 V 5.731 C -8.181,5.775 -8.208,5.825 -8.248,5.868 -9.015,6.699 -9.899,7.12 -10.876,7.12 h -4.56 c -0.115,0 -0.225,-0.026 -0.325,-0.071 -0.101,0.045 -0.21,0.071 -0.326,0.071 h -2.931 c -0.47,0 -0.85,-0.41 -0.85,-0.915 V 0.106 h -2.86 v 6.099 c 0,0.505 -0.38,0.915 -0.85,0.915 h -2.931 c -0.469,0 -0.85,-0.41 -0.85,-0.915 v -7.014 c 0,-2.625 1.343,-4.071 3.781,-4.071 h 3.909 c 0.115,0 0.225,0.026 0.325,0.071 0.101,-0.045 0.21,-0.071 0.326,-0.071 h 2.931 c 0.116,0 0.225,0.026 0.326,0.071 0.1,-0.045 0.21,-0.071 0.325,-0.071 h 4.56 c 0.977,0 1.861,0.421 2.628,1.252 0.04,0.043 0.067,0.093 0.105,0.137 v -0.474 c 0,-0.505 0.381,-0.915 0.85,-0.915 h 1.303 c 0.056,0 0.11,0.006 0.163,0.017 0.052,-0.011 0.107,-0.017 0.163,-0.017 h 1.302 c 0.379,0 0.699,0.266 0.809,0.634 l 0.06,-0.128 c 0.144,-0.31 0.438,-0.506 0.76,-0.506 h 1.303 c 0.055,0 0.109,0.006 0.163,0.017 0.053,-0.011 0.107,-0.017 0.162,-0.017 h 1.303 c 0.295,0 0.569,0.164 0.723,0.434 0.099,0.172 0.133,0.37 0.117,0.565 0.639,-0.652 1.559,-0.999 2.743,-0.999 h 3.908 c 0.47,0 0.85,0.41 0.85,0.915 v 1.403 c 0,0.062 -0.022,0.116 -0.033,0.175 0.011,0.059 0.033,0.113 0.033,0.175 v 1.403 c 0,0.505 -0.38,0.915 -0.85,0.915 H 7.562 V 0.945 C 7.562,1.007 7.54,1.061 7.529,1.12 7.54,1.179 7.562,1.233 7.562,1.295 v 0.839 h 0.127 c 0.116,0 0.226,0.026 0.326,0.071 C 8.116,2.16 8.225,2.134 8.341,2.134 h 1.43 v -6.099 c 0,-0.505 0.381,-0.915 0.85,-0.915 h 1.303 c 0.055,0 0.11,0.006 0.162,0.017 0.053,-0.011 0.108,-0.017 0.163,-0.017 h 1.303 c 0.469,0 0.85,0.41 0.85,0.915 v 6.099 h 1.232 v -6.099 c 0,-0.505 0.38,-0.915 0.85,-0.915 h 1.302 c 0.056,0 0.11,0.006 0.163,0.017 0.053,-0.011 0.107,-0.017 0.163,-0.017 h 1.303 c 0.378,0 0.699,0.266 0.809,0.634 l 0.059,-0.128 c 0.144,-0.31 0.439,-0.506 0.76,-0.506 h 1.303 c 0.055,0 0.11,0.006 0.163,0.017 0.053,-0.011 0.108,-0.017 0.163,-0.017 h 1.303 c 0.294,0 0.568,0.164 0.723,0.434 0.098,0.172 0.133,0.37 0.116,0.565 0.639,-0.652 1.559,-0.999 2.743,-0.999 h 1.303 c 2.438,0 3.781,1.446 3.781,4.071 v 3.858 c 0,2.625 -1.343,4.071 -3.781,4.071" /></g><g
           transform="translate(123.9285,80.9149)"
           id="g110"><path
             id="path112"
             style="fill:#0000ff;fill-opacity:1;fill-rule:nonzero;stroke:none"
             d="M 0,0 H -1.303 L -2.931,3.507 V 0 H -4.234 V 4.91 H -2.28 Z M 0,6.839 C 0,6.402 -0.143,6.03 -0.429,5.722 -0.715,5.414 -1.006,5.26 -1.303,5.26 H -4.56 V 0 h -1.303 v 6.663 h 4.234 c 0.218,0 0.326,0.059 0.326,0.176 0,0.117 -0.108,0.175 -0.326,0.175 h -4.234 v 1.403 h 4.56 c 0.297,0 0.588,-0.156 0.874,-0.468 C -0.143,7.637 0,7.267 0,6.839 m 1.629,0 C 1.629,5.919 1.41,5.223 0.972,4.752 0.534,4.28 0.163,3.963 -0.141,3.799 L 1.629,0 H 0.326 l -2.28,4.91 h 0.651 c 0.384,0 0.751,0.189 1.102,0.567 0.351,0.378 0.527,0.832 0.527,1.362 0,0.522 -0.176,0.974 -0.527,1.356 -0.351,0.382 -0.718,0.572 -1.102,0.572 h -4.56 v 1.403 h 4.56 c 0.746,0 1.421,-0.327 2.025,-0.982 C 1.326,8.534 1.629,7.75 1.629,6.839" /></g><g
           transform="translate(126.2084,87.9288)"
           id="g114"><path
             id="path116"
             style="fill:#0000ff;fill-opacity:1;fill-rule:nonzero;stroke:none"
             d="M 0,0 C 0,2.104 0.977,3.156 2.931,3.156 H 6.84 V 1.753 H 2.931 C 1.846,1.753 1.303,1.169 1.303,0 v -3.858 c 0,-1.169 0.543,-1.753 1.628,-1.753 H 6.84 V -7.014 H 2.931 C 0.977,-7.014 0,-5.962 0,-3.858 Z" /></g><g
           transform="translate(127.8369,86.1754)"
           id="g118"><path
             id="path120"
             style="fill:#0000ff;fill-opacity:1;fill-rule:nonzero;stroke:none"
             d="M 0,0 V 1.753 C 0,2.689 0.434,3.156 1.303,3.156 H 5.211 V 1.753 H 1.629 C 1.411,1.753 1.303,1.637 1.303,1.403 H 4.234 V 0 Z" /></g><g
           transform="translate(127.8369,85.8247)"
           id="g122"><path
             id="path124"
             style="fill:#0000ff;fill-opacity:1;fill-rule:nonzero;stroke:none"
             d="M 0,0 H 4.234 V -1.403 H 1.303 c 0,-0.234 0.108,-0.351 0.326,-0.351 H 5.211 V -3.156 H 1.303 C 0.434,-3.156 0,-2.689 0,-1.754 Z" /></g><g
           transform="translate(137.608,89.3316)"
           id="g126"><path
             id="path128"
             style="fill:#0000ff;fill-opacity:1;fill-rule:nonzero;stroke:none"
             d="M 0,0 H 3.583 V -1.403 H 1.303 V -8.417 H 0 Z m -0.326,0 v -8.417 h -1.303 v 7.014 H -3.908 V 0 Z m 3.909,0.351 h -7.491 v 1.403 h 7.491 z" /></g><g
           transform="translate(147.7049,80.9149)"
           id="g130"><path
             id="path132"
             style="fill:#0000ff;fill-opacity:1;fill-rule:nonzero;stroke:none"
             d="M 0,0 H -1.303 L -2.931,3.507 V 0 H -4.234 V 4.91 H -2.28 Z M 0,6.839 C 0,6.402 -0.143,6.03 -0.429,5.722 -0.715,5.414 -1.006,5.26 -1.303,5.26 H -4.56 V 0 h -1.303 v 6.663 h 4.234 c 0.218,0 0.326,0.059 0.326,0.176 0,0.117 -0.108,0.175 -0.326,0.175 h -4.234 v 1.403 h 4.56 c 0.297,0 0.588,-0.156 0.874,-0.468 C -0.143,7.637 0,7.267 0,6.839 m 1.629,0 C 1.629,5.919 1.41,5.223 0.972,4.752 0.534,4.28 0.163,3.963 -0.141,3.799 L 1.629,0 H 0.326 l -2.28,4.91 h 0.651 c 0.384,0 0.751,0.189 1.102,0.567 0.351,0.378 0.527,0.832 0.527,1.362 0,0.522 -0.176,0.974 -0.527,1.356 -0.351,0.382 -0.718,0.572 -1.102,0.572 h -4.56 v 1.403 h 4.56 c 0.746,0 1.421,-0.327 2.025,-0.982 C 1.326,8.534 1.629,7.75 1.629,6.839" /></g><g
           transform="translate(154.219,87.5782)"
           id="g134"><path
             id="path136"
             style="fill:#0000ff;fill-opacity:1;fill-rule:nonzero;stroke:none"
             d="M 0,0 C 0,0.234 -0.109,0.351 -0.326,0.351 H -0.977 C -1.194,0.351 -1.303,0.234 -1.303,0 v -3.156 c 0,-0.234 0.109,-0.351 0.326,-0.351 h 0.651 C -0.109,-3.507 0,-3.39 0,-3.156 Z M 1.303,0.351 V -3.507 C 1.303,-4.442 0.869,-4.91 0,-4.91 h -1.303 c -0.868,0 -1.303,0.468 -1.303,1.403 v 3.858 c 0,0.935 0.435,1.402 1.303,1.402 H 0 c 0.869,0 1.303,-0.467 1.303,-1.402 m 0.326,0 C 1.629,1.52 1.086,2.104 0,2.104 h -1.303 c -1.086,0 -1.628,-0.584 -1.628,-1.753 v -3.858 c 0,-1.169 0.542,-1.753 1.628,-1.753 H 0 c 1.086,0 1.629,0.584 1.629,1.753 z m 1.302,0 V -3.507 C 2.931,-5.611 1.954,-6.663 0,-6.663 h -1.303 c -1.954,0 -2.931,1.052 -2.931,3.156 v 3.858 c 0,2.104 0.977,3.156 2.931,3.156 H 0 c 1.954,0 2.931,-1.052 2.931,-3.156" /></g><g
           transform="translate(102.1067,84.0712)"
           id="g138"><path
             id="path140"
             style="fill:#0000ff;fill-opacity:1;fill-rule:nonzero;stroke:none"
             d="M 0,0 C -0.217,0 -0.326,0.117 -0.326,0.351 V 7.014 H -3.257 V 0 c 0,-2.104 0.977,-3.156 2.931,-3.156 h 3.909 l 0,3.156 z" /></g><path
           id="path142"
           style="fill:#0000ff;fill-opacity:1;fill-rule:nonzero;stroke:none"
           d="m 106.34,80.915 h 2.931 v 10.17 h -2.931 z" /><g
           transform="translate(114.1573,87.5782)"
           id="g144"><path
             id="path146"
             style="fill:#0000ff;fill-opacity:1;fill-rule:nonzero;stroke:none"
             d="M 0,0 H -1.303 V 0.351 H 0 C 0.217,0.351 0.326,0.292 0.326,0.175 0.326,0.058 0.217,0 0,0 m 0,-3.507 h -1.303 v 0.351 H 0 c 0.217,0 0.326,-0.059 0.326,-0.176 C 0.326,-3.449 0.217,-3.507 0,-3.507 M 3.257,0.175 C 3.257,1.087 2.955,1.87 2.351,2.525 1.746,3.18 1.071,3.507 0.326,3.507 h -4.56 v -10.17 h 4.56 c 0.745,0 1.42,0.327 2.025,0.982 0.604,0.654 0.906,1.438 0.906,2.349 0,0.663 -0.148,1.243 -0.445,1.742 0.297,0.499 0.445,1.087 0.445,1.765" /></g><g
           transform="translate(80,76)"
           id="g148"><path
             id="path150"
             style="fill:#b80000;fill-opacity:1;fill-rule:nonzero;stroke:none"
             d="M 0,0 H -31.49 C -31.772,0 -32,0.228 -32,0.51 V 128 H 0 Z" /></g><g
           transform="translate(147.7459,100.6761)"
           id="g152"><path
             id="path154"
             style="fill:#c2c2c2;fill-opacity:1;fill-rule:nonzero;stroke:none"
             d="m 0,0 v 0.538 h 1.936 c 0.143,0 0.214,0.059 0.214,0.179 V 1.076 H 3.226 V 0.538 C 3.226,0.179 3.082,0 2.795,0 Z m -1.29,1.076 h 1.075 V -0.359 H -1.29 Z m 0,0.179 c 0,0.359 0.143,0.538 0.43,0.538 h 3.655 c 0.287,0 0.431,-0.179 0.431,-0.538 z" /></g><path
           id="path156"
           style="fill:#000000;fill-opacity:1;fill-rule:nonzero;stroke:none"
           d="m 147.927,101.614 h 1.573 v -0.082 h -1.573 z m 2.614,1.173 h -3.655 c -0.194,0 -0.826,-0.062 -0.826,-0.856 0,-0.031 0.005,-0.061 0.016,-0.089 -0.011,-0.029 -0.016,-0.059 -0.016,-0.09 v -1.435 c 0,-0.175 0.177,-0.317 0.396,-0.317 h 1.075 c 0.219,0 0.396,0.142 0.396,0.317 v 0.042 h 2.614 c 0.194,0 0.827,0.061 0.827,0.855 v 0.538 c 0,0.031 -0.006,0.061 -0.016,0.09 0.01,0.028 0.016,0.058 0.016,0.089 0,0.794 -0.633,0.856 -0.827,0.856 m -3.01,-2.47 h -1.075 v 1.435 h 1.075 z m 3.44,1.435 v -0.538 c 0,-0.359 -0.143,-0.538 -0.43,-0.538 h -2.795 v 0.538 h 1.936 c 0.143,0 0.214,0.06 0.214,0.179 v 0.359 h 1.075 m -0.43,0.718 c 0.287,0 0.43,-0.18 0.43,-0.539 h -4.515 c 0,0.359 0.143,0.539 0.43,0.539 h 3.655" /><g
           transform="translate(151.832,100.3173)"
           id="g158"><path
             id="path160"
             style="fill:#c2c2c2;fill-opacity:1;fill-rule:nonzero;stroke:none"
             d="M 0,0 C -0.287,0 -0.43,0.179 -0.43,0.538 V 1.435 H 0.645 V 0.718 c 0,-0.12 0.071,-0.18 0.215,-0.18 H 3.44 V 0 Z M 0.645,1.614 H -0.43 v 0.539 h 1.075 z" /></g><g
           transform="translate(152.4769,102.7869)"
           id="g162"><path
             id="path164"
             style="fill:#000000;fill-opacity:1;fill-rule:nonzero;stroke:none"
             d="m 0,0 h -1.075 c -0.219,0 -0.396,-0.142 -0.396,-0.317 v -0.539 c 0,-0.031 0.005,-0.061 0.016,-0.089 -0.011,-0.029 -0.016,-0.059 -0.016,-0.09 v -0.897 c 0,-0.793 0.632,-0.855 0.826,-0.855 h 3.44 c 0.219,0 0.396,0.142 0.396,0.317 v 0.538 c 0,0.176 -0.177,0.318 -0.396,0.318 H 0.396 v 0.579 c 0,0.031 -0.006,0.061 -0.016,0.09 0.01,0.028 0.016,0.058 0.016,0.089 v 0.539 C 0.396,-0.142 0.219,0 0,0 m 0,-1.035 v -0.717 c 0,-0.12 0.071,-0.18 0.215,-0.18 h 2.58 V -2.47 h -3.44 c -0.287,0 -0.43,0.18 -0.43,0.538 v 0.897 H 0 m 0,0.179 h -1.075 v 0.539 H 0 Z" /></g><path
           id="path166"
           style="fill:#c2c2c2;fill-opacity:1;fill-rule:nonzero;stroke:none"
           d="m 159.143,102.47 h 1.075 v -0.539 h -1.075 z m -3.01,-2.153 c -0.287,0 -0.43,0.179 -0.43,0.538 v 0.897 h 1.075 v -0.717 c 0,-0.12 0.071,-0.18 0.214,-0.18 h 1.936 c 0.144,0 0.215,0.06 0.215,0.18 v 0.717 h 1.075 v -0.897 c 0,-0.359 -0.143,-0.538 -0.43,-0.538 z m 0.645,1.614 h -1.075 v 0.539 h 1.075 z" /><g
           transform="translate(160.2181,102.7869)"
           id="g168"><path
             id="path170"
             style="fill:#000000;fill-opacity:1;fill-rule:nonzero;stroke:none"
             d="m 0,0 h -1.075 c -0.219,0 -0.396,-0.142 -0.396,-0.317 v -0.539 c 0,-0.031 0.005,-0.061 0.016,-0.089 -0.011,-0.029 -0.016,-0.059 -0.016,-0.09 v -0.579 h -1.573 v 0.579 c 0,0.031 -0.006,0.061 -0.016,0.09 0.01,0.028 0.016,0.058 0.016,0.089 v 0.539 C -3.044,-0.142 -3.222,0 -3.44,0 h -1.076 c -0.218,0 -0.396,-0.142 -0.396,-0.317 v -0.539 c 0,-0.031 0.006,-0.061 0.016,-0.089 -0.01,-0.029 -0.016,-0.059 -0.016,-0.09 v -0.897 c 0,-0.793 0.633,-0.855 0.827,-0.855 h 3.655 c 0.194,0 0.826,0.062 0.826,0.855 v 0.897 c 0,0.031 -0.006,0.061 -0.016,0.09 0.01,0.028 0.016,0.058 0.016,0.089 v 0.539 C 0.396,-0.142 0.219,0 0,0 M 0,-1.035 V -1.932 C 0,-2.29 -0.143,-2.47 -0.43,-2.47 h -3.655 c -0.287,0 -0.431,0.18 -0.431,0.538 v 0.897 h 1.076 v -0.717 c 0,-0.12 0.071,-0.18 0.214,-0.18 h 1.936 c 0.143,0 0.215,0.06 0.215,0.18 v 0.717 H 0 m -3.44,0.179 h -1.075 v 0.539 h 1.075 z m 3.44,0 h -1.075 v 0.539 H 0 Z" /></g><g
           transform="translate(160.6476,101.5729)"
           id="g172"><path
             id="path174"
             style="fill:#c2c2c2;fill-opacity:1;fill-rule:nonzero;stroke:none"
             d="M 0,0 V 0.179 H 1.075 C 1.075,0.059 1.147,0 1.29,0 h 2.581 c 0.43,0 0.645,-0.18 0.645,-0.538 v -0.18 c 0,-0.358 -0.144,-0.538 -0.431,-0.538 H 0 v 0.538 h 3.226 c 0.143,0 0.214,0.03 0.214,0.09 0,0.06 -0.071,0.09 -0.214,0.09 H 0.43 C 0.143,-0.538 0,-0.359 0,0 M 0,0.358 C 0,0.717 0.143,0.897 0.43,0.897 H 4.301 V 0.358 Z" /></g><g
           transform="translate(164.9483,102.7869)"
           id="g176"><path
             id="path178"
             style="fill:#000000;fill-opacity:1;fill-rule:nonzero;stroke:none"
             d="m 0,0 h -3.871 c -0.193,0 -0.826,-0.062 -0.826,-0.856 0,-0.031 0.006,-0.061 0.016,-0.089 -0.01,-0.029 -0.016,-0.059 -0.016,-0.09 v -0.179 c 0,-0.213 0.046,-0.373 0.116,-0.493 -0.072,-0.058 -0.116,-0.137 -0.116,-0.225 V -2.47 c 0,-0.175 0.177,-0.317 0.396,-0.317 h 4.086 c 0.193,0 0.826,0.062 0.826,0.855 v 0.18 c 0,0.295 -0.118,0.524 -0.332,0.671 0.072,0.057 0.117,0.137 0.117,0.225 v 0.539 C 0.396,-0.142 0.219,0 0,0 m -3.226,-1.035 c 0,-0.12 0.072,-0.179 0.215,-0.179 h 2.581 c 0.43,0 0.645,-0.18 0.645,-0.538 v -0.18 c 0,-0.358 -0.144,-0.538 -0.43,-0.538 h -4.086 v 0.538 h 3.226 c 0.143,0 0.215,0.03 0.215,0.09 0,0.06 -0.072,0.09 -0.215,0.09 h -2.796 c -0.286,0 -0.43,0.179 -0.43,0.538 v 0.179 h 1.075 M 0,-0.317 v -0.539 h -4.301 c 0,0.359 0.144,0.539 0.43,0.539 H 0" /></g><g
           transform="translate(167.1664,100.8552)"
           id="g180"><path
             id="path182"
             style="fill:#c2c2c2;fill-opacity:1;fill-rule:nonzero;stroke:none"
             d="M 0,0 V 0.897 H 1.075 V 0 H 3.226 C 3.369,0 3.44,0.03 3.44,0.09 3.44,0.149 3.369,0.18 3.226,0.18 H 1.935 v 0.538 h 1.936 c 0.43,0 0.645,-0.18 0.645,-0.538 V 0 c 0,-0.359 -0.144,-0.538 -0.431,-0.538 H 0.43 C 0.143,-0.538 0,-0.359 0,0 M 0,1.076 C 0,1.435 0.143,1.614 0.43,1.614 H 4.301 V 1.076 Z" /></g><g
           transform="translate(168.6376,101.6138)"
           id="g184"><path
             id="path186"
             style="fill:#000000;fill-opacity:1;fill-rule:nonzero;stroke:none"
             d="M 0,0 H 0.071 C 0.069,-0.013 0.068,-0.027 0.068,-0.041 v -0.4 H 0 Z m 2.83,1.173 h -3.871 c -0.194,0 -0.826,-0.062 -0.826,-0.856 0,-0.031 0.005,-0.061 0.016,-0.089 -0.011,-0.029 -0.016,-0.059 -0.016,-0.09 v -0.897 c 0,-0.793 0.632,-0.855 0.826,-0.855 h 3.655 c 0.194,0 0.826,0.062 0.826,0.855 v 0.18 c 0,0.295 -0.117,0.524 -0.332,0.671 0.073,0.057 0.118,0.137 0.118,0.225 v 0.539 c 0,0.175 -0.178,0.317 -0.396,0.317 M -0.396,0.138 v -0.897 h 2.15 c 0.144,0 0.215,0.03 0.215,0.09 0,0.06 -0.071,0.09 -0.215,0.09 h -1.29 v 0.538 h 1.935 c 0.431,0 0.645,-0.18 0.645,-0.538 v -0.18 c 0,-0.358 -0.143,-0.537 -0.43,-0.537 h -3.655 c -0.287,0 -0.43,0.179 -0.43,0.537 v 0.897 h 1.075 M 2.83,0.856 V 0.317 h -4.301 c 0,0.359 0.143,0.539 0.43,0.539 H 2.83" /></g><g
           transform="translate(175.9522,102.4696)"
           id="g188"><path
             id="path190"
             style="fill:#c2c2c2;fill-opacity:1;fill-rule:nonzero;stroke:none"
             d="M 0,0 H 1.29 L 0.331,-0.539 h -1.287 z m -0.013,-2.152 -1.262,0.709 -1.263,-0.709 h -1.289 l 1.907,1.073 -0.642,0.361 H 0.012 L -0.63,-1.079 1.277,-2.152 Z M -2.882,-0.539 -3.84,0 h 1.29 l 0.955,-0.539 z" /></g><g
           transform="translate(175.9641,101.4347)"
           id="g192"><path
             id="path194"
             style="fill:#000000;fill-opacity:1;fill-rule:nonzero;stroke:none"
             d="m 0,0 h 0.004 z m 1.278,0.718 h 0.004 z m 0,0.634 h -1.29 c -0.081,0 -0.161,-0.02 -0.228,-0.058 L -1.195,0.756 C -1.231,0.736 -1.262,0.711 -1.287,0.684 -1.312,0.711 -1.343,0.736 -1.379,0.756 L -2.334,1.294 C -2.401,1.332 -2.48,1.352 -2.562,1.352 h -1.29 c -0.173,0 -0.326,-0.09 -0.378,-0.222 -0.052,-0.132 0.009,-0.275 0.151,-0.355 l 0.958,-0.538 c 0.056,-0.032 0.122,-0.051 0.19,-0.056 0.028,-0.049 0.072,-0.091 0.129,-0.123 l 0.181,-0.102 -1.446,-0.814 c -0.141,-0.079 -0.202,-0.223 -0.15,-0.355 0.052,-0.132 0.205,-0.222 0.378,-0.222 h 1.29 c 0.081,0 0.16,0.02 0.227,0.058 l 1.035,0.582 1.035,-0.582 c 0.067,-0.038 0.146,-0.058 0.227,-0.058 h 1.29 c 0.173,0 0.326,0.09 0.378,0.222 0.052,0.132 -0.009,0.276 -0.15,0.355 L 0.047,-0.044 0.228,0.058 C 0.285,0.09 0.329,0.132 0.357,0.181 0.425,0.186 0.491,0.205 0.547,0.237 L 1.505,0.775 C 1.647,0.855 1.708,0.998 1.656,1.13 1.604,1.262 1.451,1.352 1.278,1.352 M 0,0.317 -0.642,-0.044 1.265,-1.117 h -1.29 l -1.262,0.709 -1.262,-0.709 h -1.29 l 1.907,1.073 -0.642,0.361 H 0 m -2.562,0.718 0.956,-0.539 h -1.287 l -0.959,0.539 h 1.29 m 3.84,0 L 0.32,0.496 h -1.287 l 0.955,0.539 h 1.29" /></g><g
           transform="translate(140.2384,103.9247)"
           id="g196"><path
             id="path198"
             style="fill:#9bc2dd;fill-opacity:1;fill-rule:nonzero;stroke:none"
             d="M 0,0 V 2.684 L 1.826,3.758 H 6.694 L 5.477,2.953 H 2.434 V 0.805 H 4.26 V 1.342 H 2.738 L 3.955,2.147 H 6.694 V 0.805 L 5.477,0 Z" /></g><g
           transform="translate(146.9323,107.3654)"
           id="g200"><path
             id="path202"
             style="fill:#000000;fill-opacity:1;fill-rule:nonzero;stroke:none"
             d="M 0,0 H 0.004 Z M 0.004,0.635 H 0 -4.868 c -0.085,0 -0.167,-0.022 -0.235,-0.062 L -6.928,-0.501 C -7.03,-0.56 -7.09,-0.655 -7.09,-0.756 v -2.685 c 0,-0.175 0.177,-0.317 0.396,-0.317 h 5.477 c 0.092,0 0.181,0.026 0.252,0.073 l 1.217,0.805 c 0.091,0.06 0.144,0.15 0.144,0.245 v 1.342 c 0,0.175 -0.177,0.317 -0.396,0.317 h -2.738 c -0.092,0 -0.182,-0.026 -0.253,-0.073 l -0.873,-0.577 v 0.821 h 2.647 c 0.092,0 0.181,0.025 0.252,0.072 l 1.203,0.796 c 0.097,0.058 0.16,0.15 0.16,0.254 0,0.176 -0.175,0.318 -0.394,0.318 M 0,0.317 -1.217,-0.488 H -4.26 v -2.147 h 1.826 v 0.536 h -1.521 l 1.217,0.806 H 0 v -1.342 l -1.217,-0.806 h -5.477 v 2.685 l 1.826,1.073 H 0 m 0,0 h 0.004" /></g><g
           transform="translate(147.2365,103.9247)"
           id="g204"><path
             id="path206"
             style="fill:#9bc2dd;fill-opacity:1;fill-rule:nonzero;stroke:none"
             d="M 0,0 V 2.684 L 1.826,3.758 H 6.694 L 5.477,2.953 H 2.434 V 2.147 H 5.477 L 4.26,1.342 H 2.434 V 0.805 h 4.26 L 5.477,0 Z" /></g><g
           transform="translate(153.9304,107.3654)"
           id="g208"><path
             id="path210"
             style="fill:#000000;fill-opacity:1;fill-rule:nonzero;stroke:none"
             d="M 0,0 H 0.004 Z M 0.004,0.635 H 0 -4.868 c -0.085,0 -0.167,-0.022 -0.235,-0.062 L -6.928,-0.501 C -7.03,-0.56 -7.09,-0.655 -7.09,-0.756 v -2.685 c 0,-0.175 0.177,-0.317 0.396,-0.317 h 5.477 c 0.092,0 0.181,0.026 0.252,0.073 l 1.217,0.805 c 0.129,0.085 0.177,0.226 0.121,0.352 -0.057,0.126 -0.206,0.21 -0.373,0.21 h -2.144 l 1.165,0.77 c 0.097,0.058 0.16,0.151 0.16,0.255 0,0.175 -0.175,0.317 -0.394,0.317 h -0.004 -2.647 v 0.171 h 2.647 c 0.092,0 0.181,0.025 0.252,0.072 l 1.203,0.796 c 0.097,0.058 0.16,0.15 0.16,0.254 0,0.176 -0.175,0.318 -0.394,0.318 m -1.221,-1.928 h 0.004 M 0,0.317 -1.217,-0.488 H -4.26 v -0.805 h 3.043 L -2.434,-2.099 H -4.26 V -2.635 H 0 l -1.217,-0.806 h -5.477 v 2.685 l 1.826,1.073 H 0 m 0,0 h 0.004" /></g><g
           transform="translate(153.6261,103.9247)"
           id="g212"><path
             id="path214"
             style="fill:#9bc2dd;fill-opacity:1;fill-rule:nonzero;stroke:none"
             d="M 0,0 V 3.758 H 2.434 L 4.26,2.953 V 3.758 H 6.694 V 0 H 4.26 V 1.879 L 2.434,2.684 V 0 Z" /></g><g
           transform="translate(160.32,108)"
           id="g216"><path
             id="path218"
             style="fill:#000000;fill-opacity:1;fill-rule:nonzero;stroke:none"
             d="M 0,0 H -2.434 C -2.653,0 -2.83,-0.142 -2.83,-0.317 v -0.269 l -1.239,0.547 C -4.127,-0.014 -4.193,0 -4.26,0 H -6.694 C -6.913,0 -7.09,-0.142 -7.09,-0.317 v -3.758 c 0,-0.176 0.177,-0.318 0.396,-0.318 h 2.434 c 0.219,0 0.396,0.142 0.396,0.318 v 2.147 l 1.034,-0.456 v -1.691 c 0,-0.176 0.177,-0.318 0.396,-0.318 H 0 c 0.219,0 0.396,0.142 0.396,0.318 v 3.758 C 0.396,-0.142 0.219,0 0,0 m 0,-0.317 v -3.758 h -2.434 v 1.879 l -1.826,0.805 v -2.684 h -2.434 v 3.758 h 2.434 l 1.826,-0.806 v 0.806 H 0" /></g><g
           transform="translate(160.6243,103.9247)"
           id="g220"><path
             id="path222"
             style="fill:#9bc2dd;fill-opacity:1;fill-rule:nonzero;stroke:none"
             d="M 0,0 V 2.684 L 1.826,3.758 H 6.694 L 5.477,2.953 H 2.434 V 2.147 H 5.477 L 4.26,1.342 H 2.434 V 0.805 h 4.26 L 5.477,0 Z" /></g><g
           transform="translate(167.3181,107.3654)"
           id="g224"><path
             id="path226"
             style="fill:#000000;fill-opacity:1;fill-rule:nonzero;stroke:none"
             d="M 0,0 H 0.004 Z M 0.004,0.635 H 0 -4.868 c -0.085,0 -0.167,-0.022 -0.235,-0.062 L -6.928,-0.501 C -7.03,-0.56 -7.09,-0.655 -7.09,-0.756 v -2.685 c 0,-0.175 0.177,-0.317 0.396,-0.317 h 5.477 c 0.092,0 0.181,0.026 0.252,0.073 l 1.217,0.805 c 0.129,0.085 0.177,0.226 0.121,0.352 -0.057,0.126 -0.206,0.21 -0.373,0.21 h -2.144 l 1.165,0.77 c 0.097,0.058 0.16,0.151 0.16,0.255 0,0.175 -0.175,0.317 -0.394,0.317 h -0.004 -2.647 v 0.171 h 2.647 c 0.092,0 0.181,0.025 0.252,0.072 l 1.203,0.796 c 0.097,0.058 0.16,0.15 0.16,0.254 0,0.176 -0.175,0.318 -0.394,0.318 m -1.221,-1.928 h 0.004 M 0,0.317 -1.217,-0.488 H -4.26 v -0.805 h 3.043 L -2.434,-2.099 H -4.26 V -2.635 H 0 l -1.217,-0.806 h -5.477 v 2.685 l 1.826,1.073 H 0 m 0,0 h 0.004" /></g><g
           transform="translate(167.0139,105.2668)"
           id="g228"><path
             id="path230"
             style="fill:#9bc2dd;fill-opacity:1;fill-rule:nonzero;stroke:none"
             d="M 0,0 V 1.342 L 1.826,2.416 H 6.694 L 5.477,1.611 H 2.434 V 0.805 h 4.26 V -0.537 L 5.477,-1.342 H 0 l 1.217,0.805 H 4.26 V 0 Z" /></g><g
           transform="translate(173.7077,107.3654)"
           id="g232"><path
             id="path234"
             style="fill:#000000;fill-opacity:1;fill-rule:nonzero;stroke:none"
             d="M 0,0 H 0.004 Z M 0.004,0.635 H 0 -4.868 c -0.085,0 -0.167,-0.022 -0.235,-0.062 L -6.928,-0.501 C -7.03,-0.56 -7.09,-0.655 -7.09,-0.756 v -1.343 c 0,-0.175 0.177,-0.317 0.396,-0.317 h 0.927 l -1.179,-0.78 c -0.129,-0.085 -0.177,-0.226 -0.121,-0.352 0.057,-0.126 0.206,-0.21 0.373,-0.21 h 5.477 c 0.092,0 0.181,0.026 0.252,0.073 l 1.217,0.805 c 0.091,0.06 0.144,0.15 0.144,0.245 v 1.342 c 0,0.175 -0.177,0.317 -0.396,0.317 h -3.864 v 0.171 h 2.647 c 0.092,0 0.181,0.025 0.252,0.072 l 1.203,0.796 c 0.097,0.058 0.16,0.15 0.16,0.254 0,0.176 -0.175,0.318 -0.394,0.318 M 0,0.317 -1.217,-0.488 H -4.26 V -1.293 H 0 v -1.342 l -1.217,-0.806 h -5.477 l 1.217,0.806 h 3.043 v 0.536 h -4.26 v 1.343 l 1.826,1.073 H 0 m 0,0 h 0.004" /></g><path
           id="path236"
           style="fill:#9bc2dd;fill-opacity:1;fill-rule:nonzero;stroke:none"
           d="m 174.012,107.683 h 2.434 v -3.758 h -2.434 z" /><g
           transform="translate(176.4462,108)"
           id="g238"><path
             id="path240"
             style="fill:#000000;fill-opacity:1;fill-rule:nonzero;stroke:none"
             d="M 0,0 H -2.434 C -2.653,0 -2.83,-0.142 -2.83,-0.317 v -3.758 c 0,-0.176 0.177,-0.318 0.396,-0.318 H 0 c 0.219,0 0.396,0.142 0.396,0.318 v 3.758 C 0.396,-0.142 0.219,0 0,0 m 0,-4.075 h -2.434 v 3.758 H 0 Z" /></g><g
           transform="translate(176.7504,105.2668)"
           id="g242"><path
             id="path244"
             style="fill:#9bc2dd;fill-opacity:1;fill-rule:nonzero;stroke:none"
             d="M 0,0 V 1.342 L 1.826,2.416 H 6.694 L 5.477,1.611 H 2.434 V 0.805 h 4.26 V -0.537 L 5.477,-1.342 H 0 l 1.217,0.805 H 4.26 V 0 Z" /></g><g
           transform="translate(183.4443,107.3654)"
           id="g246"><path
             id="path248"
             style="fill:#000000;fill-opacity:1;fill-rule:nonzero;stroke:none"
             d="M 0,0 H 0.004 Z M 0.004,0.635 H 0 -4.868 c -0.085,0 -0.167,-0.022 -0.235,-0.062 L -6.928,-0.501 C -7.03,-0.56 -7.09,-0.655 -7.09,-0.756 v -1.343 c 0,-0.175 0.177,-0.317 0.396,-0.317 h 0.927 l -1.179,-0.78 c -0.129,-0.085 -0.177,-0.226 -0.121,-0.352 0.057,-0.126 0.206,-0.21 0.373,-0.21 h 5.477 c 0.092,0 0.181,0.026 0.252,0.073 l 1.217,0.805 c 0.091,0.06 0.144,0.15 0.144,0.245 v 1.342 c 0,0.175 -0.177,0.317 -0.396,0.317 h -3.864 v 0.171 h 2.647 c 0.092,0 0.181,0.025 0.252,0.072 l 1.203,0.796 c 0.097,0.058 0.16,0.15 0.16,0.254 0,0.176 -0.175,0.318 -0.394,0.318 M 0,0.317 -1.217,-0.488 H -4.26 V -1.293 H 0 v -1.342 l -1.217,-0.806 h -5.477 l 1.217,0.806 h 3.043 v 0.536 h -4.26 v 1.343 l 1.826,1.073 H 0 m 0,0 h 0.004" /></g><g
           transform="translate(110.1992,101.8947)"
           id="g250"><path
             id="path252"
             style="fill:#ffffff;fill-opacity:1;fill-rule:nonzero;stroke:none"
             d="m 0,0 -0.551,-0.958 c -0.043,-0.063 -0.108,-0.095 -0.194,-0.095 h -1.814 v 2.316 h 1.814 c 0.086,0 0.151,-0.035 0.194,-0.105 L 0,0.211 0.032,0.105 Z M 1.555,0.211 0.551,1.895 c -0.087,0.14 -0.195,0.21 -0.324,0.21 h -4.341 v -4 h 4.341 c 0.129,0 0.237,0.07 0.324,0.211 L 1.555,0 1.587,0.105 Z" /></g><g
           transform="translate(112.3047,104)"
           id="g254"><path
             id="path256"
             style="fill:#ffffff;fill-opacity:1;fill-rule:nonzero;stroke:none"
             d="M 0,0 H 4.146 C 4.276,0 4.384,-0.07 4.47,-0.211 L 5.151,-1.368 5.183,-1.474 5.151,-1.579 4.146,-2.526 5.183,-4 H 3.628 l -1.49,2 h 0.777 c 0.087,0 0.152,0.018 0.195,0.053 l 0.518,0.473 -0.259,0.527 c -0.043,0.07 -0.108,0.105 -0.194,0.105 H 1.555 L 1.555,-4 H 0 Z" /></g><g
           transform="translate(119.5609,100)"
           id="g258"><path
             id="path260"
             style="fill:#ffffff;fill-opacity:1;fill-rule:nonzero;stroke:none"
             d="M 0,0 H -1.555 V 4 H 0 Z" /></g><g
           transform="translate(91.4228,100)"
           id="g262"><path
             id="path264"
             style="fill:#0000ff;fill-opacity:1;fill-rule:nonzero;stroke:none"
             d="M 0,0 H -1.555 V 4 H 0 Z" /></g><g
           transform="translate(121.6341,102.6842)"
           id="g266"><path
             id="path268"
             style="fill:#ffffff;fill-opacity:1;fill-rule:nonzero;stroke:none"
             d="M 0,0 1.555,-1.842 3.11,0 v 1.316 h 1.555 v -1.474 c 0,-0.14 -0.022,-0.246 -0.065,-0.316 L 2.851,-2.684 H 0.259 l -1.749,2.21 c -0.043,0.07 -0.065,0.176 -0.065,0.316 v 1.474 l 1.555,0 z" /></g><g
           transform="translate(128.3719,101.5789)"
           id="g270"><path
             id="path272"
             style="fill:#ffffff;fill-opacity:1;fill-rule:nonzero;stroke:none"
             d="m 0,0 v -0.737 h 3.628 v -0.842 h -5.183 v 2.632 c 0,0.07 0.022,0.14 0.065,0.21 l 0.713,1.053 c 0.043,0.07 0.129,0.105 0.259,0.105 H 3.628 V 1.579 H 0.518 C 0.432,1.579 0.367,1.544 0.324,1.474 L 0,0.842 H 3.628 L 3.11,0 Z" /></g><g
           transform="translate(86.9154,102)"
           id="g274"><path
             id="path276"
             style="fill:#0000ff;fill-opacity:1;fill-rule:nonzero;stroke:none"
             d="m 0,0 h -0.777 l 0.308,-0.414 c 0.05,-0.067 0.14,-0.108 0.236,-0.108 h 1.342 c 0.08,0 0.157,0.028 0.209,0.078 L 2.235,0.421 2.268,0.526 2.235,0.632 1.555,1.789 C 1.468,1.93 1.361,2 1.231,2 h -4.146 v -4 h 1.554 v 3.158 h 1.62 c 0.087,0 0.151,-0.035 0.195,-0.105 L 0.713,0.526 0.194,0.053 C 0.151,0.018 0.086,0 0,0" /></g><g
           transform="translate(97.5198,100.8424)"
           id="g278"><path
             id="path280"
             style="fill:#0000ff;fill-opacity:1;fill-rule:nonzero;stroke:none"
             d="m 0,0 h -1.304 v 0 h -2.609 v 1.579 l 0.326,0.631 c 0.043,0.07 0.109,0.106 0.196,0.106 H 0 v 0.842 h -4.435 c -0.13,0 -0.217,-0.035 -0.261,-0.106 L -5.413,2 C -5.457,1.93 -5.478,1.859 -5.478,1.789 v -2.421 c 0,-0.14 0.087,-0.21 0.26,-0.21 l 5.218,0 z" /></g><g
           transform="translate(102.6452,101.8947)"
           id="g282"><path
             id="path284"
             style="fill:#0000ff;fill-opacity:1;fill-rule:nonzero;stroke:none"
             d="m 0,0 -0.551,-0.958 c -0.043,-0.063 -0.108,-0.095 -0.194,-0.095 h -0.168 -1.441 -0.167 c -0.087,0 -0.151,0.032 -0.195,0.095 L -3.266,0 l -0.033,0.105 0.033,0.106 0.55,0.947 c 0.044,0.07 0.108,0.105 0.195,0.105 h 0.167 1.441 0.168 c 0.086,0 0.151,-0.035 0.194,-0.105 L 0,0.211 0.032,0.105 Z M 1.555,0.211 0.551,1.895 c -0.087,0.14 -0.195,0.21 -0.324,0.21 h -3.72 c -0.13,0 -0.238,-0.07 -0.324,-0.21 L -4.821,0.211 -4.854,0.105 -4.821,0 -3.817,-1.684 c 0.086,-0.141 0.194,-0.211 0.324,-0.211 h 3.72 c 0.129,0 0.237,0.07 0.324,0.211 L 1.555,0 1.587,0.105 Z" /></g><g
           transform="translate(64,91.9432)"
           id="g286"><path
             id="path288"
             style="fill:#f39b11;fill-opacity:1;fill-rule:nonzero;stroke:none"
             d="m 0,0 c -3.643,0 -6.606,-2.666 -6.606,-5.943 0,-3.277 2.963,-5.943 6.606,-5.943 3.643,0 6.606,2.666 6.606,5.943 C 6.606,-2.666 3.643,0 0,0" /></g><g
           transform="translate(62.8376,86.511)"
           id="g290"><path
             id="path292"
             style="fill:#e77f22;fill-opacity:1;fill-rule:nonzero;stroke:none"
             d="m 0,0 c 0,0 -4.786,2.077 -4.725,2.183 0.061,0.105 0.68,0.959 0.68,0.959 l 3.014,-2.044 0.126,0.208 -2.508,2.466 0.473,0.372 3.192,-3.387 z" /></g><g
           transform="translate(60.3168,90.9315)"
           id="g294"><path
             id="path296"
             style="fill:#d4a600;fill-opacity:1;fill-rule:nonzero;stroke:none"
             d="M 0,0 1.932,-2.457 3.158,-2.108 2.606,0.932 1.579,0.703 2.331,-1.562 2.016,-1.657 0.558,0.303 Z" /></g><g
           transform="translate(64.2472,87.4763)"
           id="g298"><path
             id="path300"
             style="fill:#d35400;fill-opacity:1;fill-rule:nonzero;stroke:none"
             d="M 0,0 C 0.105,0.208 1.679,4.21 1.755,4.188 1.831,4.165 2.101,4.079 2.101,4.079 2.101,4.079 1.325,2.735 1.41,2.693 1.494,2.65 1.578,2.526 1.578,2.526 L 2.618,3.878 3.352,3.505 2.101,2.094 2.945,0.994 5.031,2.094 5.702,1.107 1.031,-0.454 Z" /></g><g
           transform="translate(70.0475,83.6093)"
           id="g302"><path
             id="path304"
             style="fill:#d35400;fill-opacity:1;fill-rule:nonzero;stroke:none"
             d="m 0,0 -1.74,0.375 c 0,0 -0.589,-0.267 -0.484,-0.375 0.105,-0.108 1.583,-1.02 1.583,-1.02 l -0.729,-0.783 -1.487,1.336 c 0,0 -0.423,-0.141 -0.335,-0.247 0.088,-0.106 1.362,-1.466 1.362,-1.466 l -0.618,-0.464 -1.08,1.509 -1.031,-0.506 0.444,-1.652 -1.303,-0.233 -0.466,4.402 5.433,0.209 0.618,-0.71 z" /></g><g
           transform="translate(61.5332,85.0347)"
           id="g306"><path
             id="path308"
             style="fill:#e77f22;fill-opacity:1;fill-rule:nonzero;stroke:none"
             d="m 0,0 -3.421,-1.647 c 0,0 0.234,-0.461 0.291,-0.542 0.058,-0.082 1.258,0.732 1.258,0.732 0,0 0.197,-0.379 0.161,-0.417 -0.035,-0.038 -1.065,-0.772 -1.065,-0.772 l 0.493,-0.515 1.067,0.871 0.522,-0.436 -0.841,-1.034 0.319,-0.206 0.816,1.013 0.4,-0.208 -0.642,-1.116 0.39,-0.174 0.615,1.158 0.605,-0.171 -0.43,-1.255 0.551,-0.129 0.468,1.29 0.169,1.836 z" /></g><g
           transform="translate(69.7225,86)"
           id="g310"><path
             id="path312"
             style="fill:#ffff00;fill-opacity:1;fill-rule:nonzero;stroke:none"
             d="m 0,0 c 0,-2.843 -2.562,-5.148 -5.723,-5.148 -3.16,0 -5.722,2.305 -5.722,5.148 0,2.843 2.562,5.148 5.722,5.148 C -2.562,5.148 0,2.843 0,0" /></g><g
           transform="translate(63.4753,91.8637)"
           id="g314"><path
             id="path316"
             style="fill:#d9d9d9;fill-opacity:1;fill-rule:nonzero;stroke:none"
             d="m 0,0 0.372,-5.542 0.358,-6.262 0.424,0.024 -0.629,6.257 0.398,5.592 z" /></g><g
           transform="translate(60.3168,89.9399)"
           id="g318"><path
             id="path320"
             style="fill:#d4a600;fill-opacity:1;fill-rule:nonzero;stroke:none"
             d="M 0,0 3.404,-3.713 5.65,-8.776 c 0,0 1.066,0.361 1.633,0.834 l -3.6,4.343 -2.813,4.142 z" /></g><g
           transform="translate(63.7212,86.2271)"
           id="g322"><path
             id="path324"
             style="fill:#e6e6e6;fill-opacity:1;fill-rule:nonzero;stroke:none"
             d="M 0,0 -0.462,4.878 0.673,4.921 0.463,0 0.421,-2.243 0.908,-5.344 h -1.139 l 0.454,3.205 z" /></g><g
           transform="translate(64.1821,86.121)"
           id="g326"><path
             id="path328"
             style="fill:#eac500;fill-opacity:1;fill-rule:nonzero;stroke:none"
             d="M 0,0 -3.605,-4.247 -4.814,-3.143 -0.356,0.485 1.475,-0.007 4.647,-2.884 3.83,-3.792 Z" /></g><g
           transform="translate(64.4786,87.3438)"
           id="g330"><path
             id="path332"
             style="fill:#e6e6e6;fill-opacity:1;fill-rule:nonzero;stroke:none"
             d="M 0,0 3.121,2.658 3.739,2.135 0.673,-0.397 Z" /></g><g
           transform="translate(64,91.1483)"
           id="g334"><path
             id="path336"
             style="fill:#ffff00;fill-opacity:1;fill-rule:nonzero;stroke:none"
             d="m 0,0 c -3.16,0 -5.723,-2.305 -5.723,-5.148 0,-2.844 2.563,-5.149 5.723,-5.149 3.16,0 5.723,2.305 5.723,5.149 C 5.723,-2.305 3.16,0 0,0 m 0,-0.114 c 3.086,0 5.596,-2.258 5.596,-5.034 0,-2.776 -2.51,-5.035 -5.596,-5.035 -3.086,0 -5.596,2.259 -5.596,5.035 0,2.776 2.51,5.034 5.596,5.034" /></g><g
           transform="translate(64,91.8864)"
           id="g338"><path
             id="path340"
             style="fill:#f39b11;fill-opacity:1;fill-rule:nonzero;stroke:none"
             d="m 0,0 c -3.608,0 -6.543,-2.641 -6.543,-5.886 0,-3.246 2.935,-5.887 6.543,-5.887 3.608,0 6.543,2.641 6.543,5.887 C 6.543,-2.641 3.608,0 0,0 m 0,-11.886 c -3.677,0 -6.669,2.691 -6.669,6 0,3.308 2.992,6 6.669,6 3.677,0 6.669,-2.692 6.669,-6 0,-3.309 -2.992,-6 -6.669,-6" /></g><g
           transform="translate(70.6164,88.47)"
           id="g342"><path
             id="path344"
             style="fill:#eac500;fill-opacity:1;fill-rule:nonzero;stroke:none"
             d="m 0,0 h -0.163 -12.844 -0.157 l -0.111,-0.1 -1.23,-1.107 -0.111,-0.1 v -0.141 -1.476 -0.134 l 0.101,-0.098 1.262,-1.221 0.113,-0.109 h 0.165 12.844 0.166 l 0.112,0.11 1.136,1.107 0.101,0.098 v 0.133 1.59 0.136 L 1.28,-1.213 0.112,-0.106 Z" /></g><g
           transform="translate(56.3787,87.0221)"
           id="g346"><path
             id="path348"
             style="fill:#ffff00;fill-opacity:1;fill-rule:nonzero;stroke:none"
             d="M 0,0 1.231,1.107 H 14.075 L 15.243,0 V -1.59 L 14.107,-2.697 H 1.262 L 0,-1.476 Z" /></g><g
           transform="translate(71.6213,87.0221)"
           id="g350"><path
             id="path352"
             style="fill:#d4a600;fill-opacity:1;fill-rule:nonzero;stroke:none"
             d="M 0,0 V -1.59 L -1.136,-2.697 H -13.98 l -1.263,1.221 -0.378,-0.129 V -1.61 l 0.101,-0.098 1.262,-1.221 0.113,-0.109 h 0.165 12.844 0.166 l 0.112,0.11 1.136,1.107 0.101,0.098 V -1.59 0 0.118 Z" /></g><g
           transform="translate(63.1828,85.2983)"
           id="g354"><path
             id="path356"
             style="fill:#262626;fill-opacity:1;fill-rule:nonzero;stroke:none"
             d="M 0,0 H -0.305 L -0.686,0.686 V 0 h -0.305 v 0.96 h 0.458 z M 0,1.337 C 0,1.252 -0.033,1.179 -0.1,1.119 -0.167,1.059 -0.235,1.028 -0.305,1.028 H -1.067 V 0 h -0.305 v 1.303 h 0.991 c 0.051,0 0.076,0.011 0.076,0.034 0,0.023 -0.025,0.034 -0.076,0.034 h -0.991 v 0.275 h 1.067 c 0.07,0 0.138,-0.031 0.205,-0.092 C -0.033,1.493 0,1.421 0,1.337 m 0.381,0 C 0.381,1.157 0.33,1.021 0.227,0.929 0.125,0.837 0.038,0.775 -0.033,0.743 L 0.381,0 H 0.076 l -0.533,0.96 h 0.152 c 0.09,0 0.176,0.037 0.258,0.111 0.082,0.074 0.123,0.162 0.123,0.266 0,0.102 -0.041,0.19 -0.123,0.265 -0.082,0.075 -0.168,0.112 -0.258,0.112 h -1.067 v 0.274 h 1.067 C -0.13,1.988 0.028,1.924 0.169,1.796 0.31,1.668 0.381,1.515 0.381,1.337" /></g><g
           transform="translate(63.7163,86.6696)"
           id="g358"><path
             id="path360"
             style="fill:#262626;fill-opacity:1;fill-rule:nonzero;stroke:none"
             d="M 0,0 C 0,0.411 0.229,0.617 0.686,0.617 H 1.6 V 0.343 H 0.686 C 0.432,0.343 0.305,0.229 0.305,0 v -0.754 c 0,-0.229 0.127,-0.343 0.381,-0.343 H 1.6 V -1.371 H 0.686 C 0.229,-1.371 0,-1.166 0,-0.754 Z" /></g><g
           transform="translate(64.0974,86.3268)"
           id="g362"><path
             id="path364"
             style="fill:#262626;fill-opacity:1;fill-rule:nonzero;stroke:none"
             d="M 0,0 V 0.343 C 0,0.526 0.102,0.617 0.305,0.617 H 1.219 V 0.343 H 0.381 C 0.33,0.343 0.305,0.32 0.305,0.274 H 0.991 L 0.991,0 Z" /></g><g
           transform="translate(64.0974,86.2582)"
           id="g366"><path
             id="path368"
             style="fill:#262626;fill-opacity:1;fill-rule:nonzero;stroke:none"
             d="M 0,0 H 0.991 V -0.274 H 0.305 c 0,-0.046 0.025,-0.069 0.076,-0.069 H 1.219 V -0.617 H 0.305 C 0.102,-0.617 0,-0.526 0,-0.343 Z" /></g><g
           transform="translate(66.3837,86.9438)"
           id="g370"><path
             id="path372"
             style="fill:#262626;fill-opacity:1;fill-rule:nonzero;stroke:none"
             d="M 0,0 H 0.838 V -0.274 H 0.305 v -1.372 l -0.305,0 z m -0.076,0 v -1.646 h -0.305 v 1.372 H -0.915 V 0 Z m 0.914,0.069 h -1.753 v 0.274 h 1.753 z" /></g><g
           transform="translate(68.7462,85.2983)"
           id="g374"><path
             id="path376"
             style="fill:#262626;fill-opacity:1;fill-rule:nonzero;stroke:none"
             d="M 0,0 H -0.305 L -0.686,0.686 V 0 h -0.305 v 0.96 h 0.458 z M 0,1.337 C 0,1.252 -0.033,1.179 -0.1,1.119 -0.167,1.059 -0.235,1.028 -0.305,1.028 H -1.067 V 0 h -0.305 v 1.303 h 0.991 c 0.051,0 0.076,0.011 0.076,0.034 0,0.023 -0.025,0.034 -0.076,0.034 h -0.991 v 0.275 h 1.067 c 0.07,0 0.138,-0.031 0.205,-0.092 C -0.033,1.493 0,1.421 0,1.337 m 0.381,0 C 0.381,1.157 0.33,1.021 0.227,0.929 0.125,0.837 0.038,0.775 -0.033,0.743 L 0.381,0 H 0.076 l -0.533,0.96 h 0.152 c 0.09,0 0.176,0.037 0.258,0.111 0.082,0.074 0.123,0.162 0.123,0.266 0,0.102 -0.041,0.19 -0.123,0.265 -0.082,0.075 -0.168,0.112 -0.258,0.112 h -1.067 v 0.274 h 1.067 C -0.13,1.988 0.028,1.924 0.169,1.796 0.31,1.668 0.381,1.515 0.381,1.337" /></g><g
           transform="translate(70.2704,86.601)"
           id="g378"><path
             id="path380"
             style="fill:#262626;fill-opacity:1;fill-rule:nonzero;stroke:none"
             d="M 0,0 C 0,0.046 -0.025,0.069 -0.076,0.069 H -0.229 C -0.279,0.069 -0.305,0.046 -0.305,0 v -0.617 c 0,-0.046 0.026,-0.069 0.076,-0.069 h 0.153 C -0.025,-0.686 0,-0.663 0,-0.617 Z M 0.305,0.069 V -0.686 C 0.305,-0.868 0.203,-0.96 0,-0.96 h -0.305 c -0.203,0 -0.305,0.092 -0.305,0.274 v 0.755 c 0,0.182 0.102,0.274 0.305,0.274 H 0 c 0.203,0 0.305,-0.092 0.305,-0.274 m 0.076,0 C 0.381,0.297 0.254,0.411 0,0.411 h -0.305 c -0.254,0 -0.381,-0.114 -0.381,-0.342 v -0.755 c 0,-0.228 0.127,-0.342 0.381,-0.342 H 0 c 0.254,0 0.381,0.114 0.381,0.342 z m 0.305,0 V -0.686 C 0.686,-1.097 0.457,-1.303 0,-1.303 h -0.305 c -0.457,0 -0.686,0.206 -0.686,0.617 v 0.755 c 0,0.411 0.229,0.617 0.686,0.617 H 0 c 0.457,0 0.686,-0.206 0.686,-0.617" /></g><g
           transform="translate(57.6474,85.7594)"
           id="g382"><path
             id="path384"
             style="fill:#262626;fill-opacity:1;fill-rule:nonzero;stroke:none"
             d="M 0,0 C -0.002,0.006 -0.004,0.013 -0.006,0.019 H 0 Z m 0.429,0.156 c -0.05,0 -0.076,0.023 -0.076,0.069 V 1.527 H -0.333 V 0.156 c 0,-0.411 0.229,-0.617 0.686,-0.617 h 0.915 v 0.617 z" /></g><path
           id="path386"
           style="fill:#262626;fill-opacity:1;fill-rule:nonzero;stroke:none"
           d="m 59.067,85.298 h 0.686 v 1.988 h -0.686 z" /><g
           transform="translate(60.8965,86.601)"
           id="g388"><path
             id="path390"
             style="fill:#262626;fill-opacity:1;fill-rule:nonzero;stroke:none"
             d="M 0,0 H -0.305 V 0.069 H 0 C 0.051,0.069 0.076,0.057 0.076,0.034 0.076,0.011 0.051,0 0,0 m 0,-0.686 h -0.305 v 0.069 H 0 c 0.051,0 0.076,-0.011 0.076,-0.034 0,-0.023 -0.025,-0.035 -0.076,-0.035 m 0.762,0.72 C 0.762,0.213 0.691,0.366 0.55,0.494 0.409,0.622 0.251,0.686 0.076,0.686 h -1.067 v -1.989 h 1.067 c 0.175,0 0.333,0.064 0.474,0.192 0.141,0.128 0.212,0.281 0.212,0.46 0,0.129 -0.035,0.243 -0.104,0.34 0.069,0.098 0.104,0.213 0.104,0.345" /></g><g
           transform="translate(69.4855,103.1185)"
           id="g392"><path
             id="path394"
             style="fill:#ffffff;fill-opacity:1;fill-rule:nonzero;stroke:none"
             d="m 0,0 -7.579,-4.265 h 6.735 c 0.166,0 0.292,0.039 0.378,0.119 0.085,0.079 0.155,0.22 0.209,0.424 H 0 v -3.396 h -0.257 c -0.054,0.203 -0.124,0.344 -0.209,0.423 -0.086,0.079 -0.212,0.118 -0.378,0.118 h -9.291 c -0.161,0 -0.284,-0.039 -0.37,-0.118 -0.085,-0.079 -0.155,-0.22 -0.209,-0.423 h -0.257 v 4.455 h 0.257 c 0.065,-0.265 0.212,-0.398 0.443,-0.398 0.106,0 0.23,0.039 0.369,0.119 l 5.671,3.153 -5.575,3.196 c -0.246,0.141 -0.425,0.212 -0.538,0.212 -0.219,0 -0.343,-0.141 -0.37,-0.423 h -0.257 v 4.371 h 0.257 c 0.054,-0.204 0.124,-0.345 0.209,-0.424 0.086,-0.079 0.209,-0.119 0.37,-0.119 h 9.291 c 0.166,0 0.292,0.04 0.378,0.119 0.085,0.079 0.155,0.22 0.209,0.424 H 0 V 3.958 H -0.257 C -0.306,4.156 -0.374,4.296 -0.462,4.378 -0.55,4.46 -0.678,4.501 -0.844,4.501 h -6.735 z" /></g><g
           transform="translate(64.6712,115.826)"
           id="g396"><path
             id="path398"
             style="fill:#ffffff;fill-opacity:1;fill-rule:nonzero;stroke:none"
             d="M 0,0 H 3.006 V 7.436 C 3.006,7.605 2.969,7.735 2.894,7.825 2.819,7.916 2.685,7.988 2.492,8.045 V 8.317 H 5.329 V 8.045 C 5.136,7.988 5.002,7.916 4.927,7.825 4.852,7.735 4.814,7.605 4.814,7.436 V -3.066 H 4.557 c -0.053,0.204 -0.123,0.344 -0.209,0.424 -0.085,0.078 -0.211,0.118 -0.377,0.118 h -9.283 c -0.167,0 -0.292,-0.04 -0.378,-0.118 -0.086,-0.08 -0.156,-0.22 -0.209,-0.424 H -6.157 V 7.233 c 0,0.169 -0.038,0.298 -0.114,0.389 -0.076,0.09 -0.21,0.164 -0.4,0.22 v 0.271 h 2.837 V 7.842 C -4.024,7.786 -4.158,7.712 -4.234,7.622 -4.31,7.531 -4.348,7.402 -4.348,7.233 V 0 h 2.604 v 4.692 c 0,0.169 -0.038,0.298 -0.113,0.389 -0.074,0.09 -0.209,0.164 -0.401,0.22 V 5.572 H 0.514 V 5.301 C 0.327,5.245 0.195,5.171 0.117,5.081 0.039,4.99 0,4.861 0,4.692 Z" /></g><g
           transform="translate(65.5392,136.2197)"
           id="g400"><path
             id="path402"
             style="fill:#ffffff;fill-opacity:1;fill-rule:nonzero;stroke:none"
             d="M 0,0 V -2.854 C 0,-3.029 0.038,-3.16 0.112,-3.248 0.187,-3.336 0.321,-3.407 0.514,-3.464 v -0.271 h -2.556 v 0.271 c 0.199,0.057 0.334,0.128 0.406,0.216 0.073,0.087 0.109,0.218 0.109,0.393 v 5.48 h 0.257 c 0.054,-0.2 0.124,-0.34 0.209,-0.421 0.086,-0.08 0.212,-0.121 0.378,-0.121 h 2.25 c 0.167,0 0.293,0.039 0.378,0.117 0.086,0.078 0.156,0.22 0.209,0.425 h 0.201 c 1.189,-2.194 1.784,-4.322 1.784,-6.381 0,-1.868 -0.42,-3.391 -1.262,-4.571 -1.06,-1.483 -2.534,-2.225 -4.42,-2.225 -1.757,0 -3.156,0.66 -4.196,1.981 -0.985,1.254 -1.478,2.92 -1.478,4.997 0,0.661 0.057,1.283 0.172,1.868 0.115,0.584 0.31,1.249 0.583,1.994 0.145,0.384 0.217,0.658 0.217,0.822 0,0.118 -0.061,0.256 -0.185,0.415 l 0.121,0.236 2.628,-1.358 -0.12,-0.246 C -3.977,0.151 -4.104,0.126 -4.181,0.081 -4.258,0.035 -4.353,-0.066 -4.465,-0.224 -4.71,-0.569 -4.92,-1.073 -5.093,-1.739 c -0.173,-0.666 -0.26,-1.295 -0.26,-1.888 0,-1.208 0.321,-2.209 0.964,-3.005 0.728,-0.897 1.688,-1.346 2.882,-1.346 1.156,0 2.09,0.438 2.802,1.313 0.653,0.802 0.98,1.857 0.98,3.167 0,0.638 -0.07,1.268 -0.209,1.889 C 1.926,-0.988 1.736,-0.452 1.495,0 Z" /></g><g
           transform="translate(65.1856,148.2047)"
           id="g404"><path
             id="path406"
             style="fill:#ffffff;fill-opacity:1;fill-rule:nonzero;stroke:none"
             d="M 0,0 -3.908,-1.875 0,-3.78 Z m 1.503,0.726 v -5.254 l 1.543,-0.778 c 0.214,-0.108 0.383,-0.161 0.506,-0.161 0.236,0 0.399,0.189 0.491,0.566 H 4.3 V -8.725 H 4.043 C 4,-8.499 3.925,-8.327 3.818,-8.208 3.71,-8.09 3.501,-7.954 3.191,-7.802 L -5.24,-3.55 c -0.268,0.135 -0.482,0.203 -0.643,0.203 -0.247,0 -0.423,-0.164 -0.531,-0.491 h -0.257 v 4.099 h 0.257 c 0.091,-0.333 0.249,-0.5 0.474,-0.5 0.156,0 0.333,0.054 0.531,0.161 L 3.046,4.326 C 3.405,4.512 3.65,4.676 3.782,4.817 3.913,4.958 4,5.148 4.043,5.385 H 4.3 V 1.129 H 4.043 C 3.984,1.502 3.818,1.69 3.544,1.69 3.432,1.69 3.266,1.633 3.046,1.52 Z" /></g><g
           transform="translate(65.5392,169.1891)"
           id="g408"><path
             id="path410"
             style="fill:#ffffff;fill-opacity:1;fill-rule:nonzero;stroke:none"
             d="M 0,0 V -2.854 C 0,-3.029 0.038,-3.16 0.112,-3.248 0.187,-3.336 0.321,-3.407 0.514,-3.464 v -0.271 h -2.556 v 0.271 c 0.199,0.057 0.334,0.128 0.406,0.216 0.073,0.087 0.109,0.218 0.109,0.393 v 5.48 h 0.257 c 0.054,-0.2 0.124,-0.34 0.209,-0.421 0.086,-0.08 0.212,-0.121 0.378,-0.121 h 2.25 c 0.167,0 0.293,0.039 0.378,0.117 0.086,0.078 0.156,0.22 0.209,0.425 h 0.201 c 1.189,-2.194 1.784,-4.322 1.784,-6.381 0,-1.868 -0.42,-3.391 -1.262,-4.571 -1.06,-1.483 -2.534,-2.225 -4.42,-2.225 -1.757,0 -3.156,0.66 -4.196,1.981 -0.985,1.254 -1.478,2.92 -1.478,4.997 0,0.661 0.057,1.283 0.172,1.868 0.115,0.584 0.31,1.249 0.583,1.994 0.145,0.384 0.217,0.658 0.217,0.822 0,0.118 -0.061,0.256 -0.185,0.415 l 0.121,0.236 2.628,-1.358 -0.12,-0.246 C -3.977,0.151 -4.104,0.126 -4.181,0.081 -4.258,0.035 -4.353,-0.066 -4.465,-0.224 -4.71,-0.569 -4.92,-1.073 -5.093,-1.739 c -0.173,-0.666 -0.26,-1.295 -0.26,-1.888 0,-1.208 0.321,-2.209 0.964,-3.005 0.728,-0.897 1.688,-1.346 2.882,-1.346 1.156,0 2.09,0.438 2.802,1.313 0.653,0.802 0.98,1.857 0.98,3.167 0,0.638 -0.07,1.268 -0.209,1.889 C 1.926,-0.988 1.736,-0.452 1.495,0 Z" /></g><g
           transform="translate(64.6712,176.8541)"
           id="g412"><path
             id="path414"
             style="fill:#ffffff;fill-opacity:1;fill-rule:nonzero;stroke:none"
             d="m 0,0 h 3.006 v 7.435 c 0,0.17 -0.037,0.3 -0.112,0.39 C 2.819,7.916 2.685,7.989 2.492,8.045 V 8.316 H 5.329 V 8.045 C 5.136,7.989 5.002,7.916 4.927,7.825 4.852,7.735 4.814,7.605 4.814,7.435 V -3.066 H 4.557 c -0.053,0.203 -0.123,0.344 -0.209,0.423 -0.085,0.079 -0.211,0.119 -0.377,0.119 h -9.283 c -0.167,0 -0.292,-0.04 -0.378,-0.119 -0.086,-0.079 -0.156,-0.22 -0.209,-0.423 H -6.157 V 7.232 c 0,0.17 -0.038,0.299 -0.114,0.39 -0.076,0.09 -0.21,0.163 -0.4,0.22 v 0.271 h 2.837 V 7.842 C -4.024,7.785 -4.158,7.712 -4.234,7.622 -4.31,7.531 -4.348,7.402 -4.348,7.232 V 0 h 2.604 v 4.692 c 0,0.169 -0.038,0.299 -0.113,0.389 -0.074,0.09 -0.209,0.164 -0.401,0.221 v 0.27 H 0.514 V 5.302 C 0.327,5.245 0.195,5.171 0.117,5.081 0.039,4.991 0,4.861 0,4.692 Z" /></g><g
           transform="translate(61.9706,189.8201)"
           id="g416"><path
             id="path418"
             style="fill:#ffffff;fill-opacity:1;fill-rule:nonzero;stroke:none"
             d="m 0,0 h 6.671 c 0.166,0 0.292,0.039 0.378,0.118 0.085,0.08 0.155,0.221 0.209,0.424 H 7.515 V -2.854 H 7.258 C 7.204,-2.651 7.134,-2.51 7.049,-2.431 6.963,-2.352 6.837,-2.312 6.671,-2.312 H -2.62 c -0.161,0 -0.284,-0.04 -0.37,-0.119 -0.086,-0.079 -0.155,-0.22 -0.209,-0.423 h -0.257 v 3.929 h 0.257 c 0.059,-0.242 0.182,-0.364 0.37,-0.364 0.128,0 0.271,0.079 0.426,0.238 L 3.89,7.325 h -6.51 c -0.161,0 -0.284,-0.039 -0.37,-0.118 -0.086,-0.079 -0.155,-0.22 -0.209,-0.423 h -0.257 v 3.396 h 0.257 C -3.145,9.976 -3.076,9.835 -2.99,9.756 -2.904,9.677 -2.781,9.638 -2.62,9.638 h 9.291 c 0.166,0 0.292,0.039 0.378,0.118 0.085,0.079 0.155,0.22 0.209,0.424 H 7.515 V 6.538 H 7.258 C 7.209,6.775 7.094,6.894 6.912,6.894 6.805,6.894 6.618,6.755 6.349,6.479 Z" /></g></g></g></g></svg>