<?xml version="1.0" encoding="UTF-8" standalone="no"?>
<svg
   xmlns:dc="http://purl.org/dc/elements/1.1/"
   xmlns:cc="http://creativecommons.org/ns#"
   xmlns:rdf="http://www.w3.org/1999/02/22-rdf-syntax-ns#"
   xmlns:svg="http://www.w3.org/2000/svg"
   xmlns="http://www.w3.org/2000/svg"
   viewBox="0 0 341.33334 341.33334"
   height="256"
   width="256"
   xml:space="preserve"
   id="svg2"
   version="1.1"><metadata
     id="metadata8"><rdf:RDF><cc:Work
         rdf:about=""><dc:format>image/svg+xml</dc:format><dc:type
           rdf:resource="http://purl.org/dc/dcmitype/StillImage" /></cc:Work></rdf:RDF></metadata><defs
     id="defs6"><clipPath
       id="clipPath18"
       clipPathUnits="userSpaceOnUse"><path
         id="path16"
         d="M 0,256 H 256 V 0 H 0 Z" /></clipPath><clipPath
       id="clipPath26"
       clipPathUnits="userSpaceOnUse"><path
         id="path24"
         d="M 4.00005,208 H 252 V 48 H 4.00005 Z" /></clipPath></defs><g
     transform="matrix(1.3333333,0,0,-1.3333333,0,341.33333)"
     id="g10"><g
       id="g12"><g
         clip-path="url(#clipPath18)"
         id="g14"><g
           id="g20"><g
             id="g22" /><g
             id="g34"><g
               style="opacity:0.5"
               id="g32"
               clip-path="url(#clipPath26)"><g
                 id="g30"
                 transform="translate(128,208)"><path
                   id="path28"
                   style="fill:#ffffff;fill-opacity:1;fill-rule:nonzero;stroke:none"
                   d="m 0,0 c -35.187,0 -65.384,-6.945 -87.325,-20.084 -23.929,-14.33 -36.612,-35.042 -36.675,-59.896 0,-29.764 13.525,-49.177 24.87,-60.225 14.043,-13.674 29.836,-19.795 39.259,-19.795 11.204,0 20.75,1.94 29.983,3.816 9.525,1.935 18.521,3.763 29.696,3.763 h 0.18 c 21.472,-0.038 40.749,-4.008 51.106,-6.141 4.795,-0.987 6.984,-1.438 8.777,-1.438 15.556,0 31.597,8.463 44.009,23.219 12.975,15.424 20.12,35.589 20.12,56.781 0,26.339 -12.709,47.573 -36.752,61.408 C 66.109,-6.429 35.939,0 0,0" /></g></g></g></g><g
           transform="translate(128,200)"
           id="g36"><path
             id="path38"
             style="fill:#333333;fill-opacity:1;fill-rule:nonzero;stroke:none"
             d="m 0,0 c -67.355,0 -115.884,-26.526 -116,-72 0,-49.263 41.161,-72 56.129,-72 21.359,0 36.353,7.621 59.871,7.579 C 30.164,-136.474 56.129,-144 59.871,-144 86.065,-144 116,-113.684 116,-72 116,-22.737 67.355,0 0,0" /></g><g
           transform="translate(152,192)"
           id="g40"><path
             id="path42"
             style="fill:#262626;fill-opacity:1;fill-rule:nonzero;stroke:none"
             d="m 0,0 c -4.411,0 -8,-3.589 -8,-8 0,-4.411 3.589,-8 8,-8 4.411,0 8,3.589 8,8 0,4.411 -3.589,8 -8,8" /></g><g
           transform="translate(152,190)"
           id="g44"><path
             id="path46"
             style="fill:#595959;fill-opacity:1;fill-rule:nonzero;stroke:none"
             d="m 0,0 c 3.312,0 6,-2.688 6,-6 0,-3.312 -2.688,-6 -6,-6 -3.312,0 -6,2.688 -6,6 0,3.312 2.688,6 6,6" /></g><g
           transform="translate(124,180)"
           id="g48"><path
             id="path50"
             style="fill:#262626;fill-opacity:1;fill-rule:nonzero;stroke:none"
             d="m 0,0 c -4.411,0 -8,-3.589 -8,-8 0,-4.411 3.589,-8 8,-8 4.411,0 8,3.589 8,8 0,4.411 -3.589,8 -8,8" /></g><g
           transform="translate(124,178)"
           id="g52"><path
             id="path54"
             style="fill:#595959;fill-opacity:1;fill-rule:nonzero;stroke:none"
             d="m 0,0 c 3.312,0 6,-2.688 6,-6 0,-3.312 -2.688,-6 -6,-6 -3.312,0 -6,2.688 -6,6 0,3.312 2.688,6 6,6" /></g><g
           transform="translate(70,112)"
           id="g56"><path
             id="path58"
             style="fill:#262626;fill-opacity:1;fill-rule:nonzero;stroke:none"
             d="m 0,0 c -12.148,0 -22,9.852 -22,22 0,12.148 9.852,22 22,22 C 12.148,44 22,34.148 22,22 22,9.852 12.148,0 0,0" /></g><g
           transform="translate(124,120)"
           id="g60"><path
             id="path62"
             style="fill:#e10000;fill-opacity:1;fill-rule:nonzero;stroke:none"
             d="m 0,0 c -6.627,0 -12,5.373 -12,12 0,6.627 5.373,12 12,12 C 6.627,24 12,18.627 12,12 12,5.373 6.627,0 0,0" /></g><g
           transform="translate(152,140)"
           id="g64"><path
             id="path66"
             style="fill:#e10000;fill-opacity:1;fill-rule:nonzero;stroke:none"
             d="m 0,0 c -6.627,0 -12,5.373 -12,12 0,6.627 5.373,12 12,12 C 6.627,24 12,18.627 12,12 12,5.373 6.627,0 0,0" /></g><g
           transform="translate(186,148)"
           id="g68"><path
             id="path70"
             style="fill:#595959;fill-opacity:1;fill-rule:nonzero;stroke:none"
             d="m 0,0 c -6.627,0 -12,5.373 -12,12 0,6.627 5.373,12 12,12 C 6.627,24 12,18.627 12,12 12,5.373 6.627,0 0,0" /></g><g
           transform="translate(216,136)"
           id="g72"><path
             id="path74"
             style="fill:#595959;fill-opacity:1;fill-rule:nonzero;stroke:none"
             d="m 0,0 c -6.627,0 -12,5.373 -12,12 0,6.627 5.373,12 12,12 C 6.627,24 12,18.627 12,12 12,5.373 6.627,0 0,0" /></g><g
           transform="translate(70,150)"
           id="g76"><path
             id="path78"
             style="fill:#191919;fill-opacity:1;fill-rule:nonzero;stroke:none"
             d="m 0,0 c -8.836,0 -16,-7.164 -16,-16 0,-8.836 7.164,-16 16,-16 8.836,0 16,7.164 16,16 C 16,-7.164 8.836,0 0,0" /></g><g
           transform="translate(70,150)"
           id="g80"><path
             id="path82"
             style="fill:#0d0d0d;fill-opacity:1;fill-rule:nonzero;stroke:none"
             d="m 0,0 c -8.836,0 -16,-7.164 -16,-16 0,-8.836 7.164,-16 16,-16 8.836,0 16,7.164 16,16 C 16,-7.164 8.836,0 0,0 m 0,-4 c 6.617,0 12,-5.383 12,-12 0,-6.617 -5.383,-12 -12,-12 -6.617,0 -12,5.383 -12,12 0,6.617 5.383,12 12,12" /></g><g
           transform="translate(128.3605,64.017)"
           id="g84"><path
             id="path86"
             style="fill:#262626;fill-opacity:1;fill-rule:nonzero;stroke:none"
             d="m 0,0 -2.36,-0.017 c 0.23,1.574 5.903,39.062 27.626,52.672 21.617,13.544 85.658,4.243 88.374,3.841 l -0.311,-2.425 C 112.671,54.169 47.401,63.657 26.511,50.565 5.745,37.553 0.056,0.373 0,0" /></g><g
           transform="translate(53.5597,87.944)"
           id="g88"><path
             id="path90"
             style="fill:#a3834a;fill-opacity:1;fill-rule:nonzero;stroke:none"
             d="m 0,0 2.169,-2.391 v 1.657 c 0,0.232 -0.038,0.388 -0.113,0.47 -0.104,0.11 -0.278,0.163 -0.522,0.159 V 0 H 2.986 V -0.105 C 2.8,-0.126 2.676,-0.153 2.612,-0.186 2.548,-0.219 2.498,-0.273 2.463,-0.348 2.427,-0.423 2.409,-0.552 2.409,-0.734 v -3.21 h -0.11 l -2.973,3.21 v -2.451 c 0,-0.222 0.057,-0.371 0.173,-0.449 0.116,-0.078 0.248,-0.117 0.397,-0.117 H 0 v -0.105 h -1.56 v 0.105 c 0.242,0.002 0.411,0.046 0.506,0.131 0.095,0.085 0.143,0.23 0.143,0.435 v 2.721 l -0.094,0.103 c -0.093,0.102 -0.175,0.17 -0.247,0.202 -0.071,0.032 -0.174,0.05 -0.308,0.054 l 0,0.105 z" /></g><g
           transform="translate(58.5111,87.7223)"
           id="g92"><path
             id="path94"
             style="fill:#a3834a;fill-opacity:1;fill-rule:nonzero;stroke:none"
             d="m 0,0 v -1.57 h 0.088 c 0.278,0 0.481,0.077 0.606,0.231 0.125,0.153 0.205,0.38 0.24,0.679 H 1.057 V -2.679 H 0.934 c -0.026,0.22 -0.081,0.4 -0.164,0.541 -0.083,0.14 -0.18,0.234 -0.29,0.283 C 0.37,-1.807 0.21,-1.783 0,-1.783 v -1.086 c 0,-0.212 0.01,-0.342 0.031,-0.39 0.02,-0.047 0.059,-0.086 0.115,-0.116 0.056,-0.031 0.147,-0.046 0.272,-0.046 h 0.263 c 0.411,0 0.74,0.084 0.987,0.25 0.248,0.167 0.426,0.421 0.534,0.762 h 0.12 L 2.124,-3.634 h -3.8 v 0.105 h 0.145 c 0.128,0 0.231,0.02 0.309,0.06 0.056,0.026 0.099,0.072 0.129,0.136 0.024,0.046 0.036,0.165 0.036,0.359 v 2.536 c 0,0.174 -0.005,0.282 -0.016,0.321 -0.022,0.067 -0.062,0.118 -0.12,0.154 -0.082,0.053 -0.195,0.08 -0.338,0.08 h -0.145 v 0.105 h 3.68 v -1.14 H 1.881 C 1.818,-0.64 1.73,-0.44 1.616,-0.318 1.503,-0.197 1.342,-0.108 1.135,-0.051 1.014,-0.017 0.787,0 0.454,0 Z" /></g><g
           transform="translate(63.7348,87.8161)"
           id="g96"><path
             id="path98"
             style="fill:#a3834a;fill-opacity:1;fill-rule:nonzero;stroke:none"
             d="m 0,0 c -0.402,0 -0.708,-0.18 -0.918,-0.54 -0.17,-0.296 -0.256,-0.721 -0.256,-1.274 0,-0.658 0.132,-1.144 0.396,-1.459 0.184,-0.22 0.441,-0.33 0.772,-0.33 0.222,0 0.408,0.048 0.557,0.142 0.19,0.122 0.339,0.316 0.444,0.582 0.106,0.266 0.159,0.614 0.159,1.042 0,0.51 -0.054,0.892 -0.162,1.145 C 0.884,-0.439 0.746,-0.261 0.579,-0.156 0.411,-0.052 0.218,0 0,0 m -0.039,0.182 c 0.7,0.023 1.27,-0.156 1.707,-0.537 0.438,-0.381 0.657,-0.858 0.657,-1.431 0,-0.489 -0.163,-0.919 -0.49,-1.291 -0.432,-0.493 -1.043,-0.739 -1.832,-0.739 -0.791,0 -1.403,0.235 -1.835,0.705 -0.342,0.372 -0.512,0.812 -0.512,1.322 0,0.573 0.222,1.05 0.666,1.432 0.444,0.382 0.991,0.562 1.639,0.539" /></g><g
           transform="translate(67.4735,86.8237)"
           id="g100"><path
             id="path102"
             style="fill:#a3834a;fill-opacity:1;fill-rule:nonzero;stroke:none"
             d="m 0,0 c 0.257,0 0.476,-0.079 0.655,-0.237 0.179,-0.159 0.269,-0.351 0.269,-0.576 0,-0.224 -0.09,-0.415 -0.271,-0.575 C 0.473,-1.547 0.255,-1.627 0,-1.627 c -0.257,0 -0.476,0.08 -0.657,0.239 -0.18,0.16 -0.27,0.351 -0.27,0.575 0,0.225 0.089,0.417 0.269,0.576 C -0.479,-0.079 -0.259,0 0,0" /></g><g
           transform="translate(70.3851,87.7365)"
           id="g104"><path
             id="path106"
             style="fill:#a3834a;fill-opacity:1;fill-rule:nonzero;stroke:none"
             d="m 0,0 v -1.689 h 0.185 c 0.3,0 0.525,0.024 0.674,0.072 0.149,0.049 0.267,0.136 0.353,0.262 0.085,0.126 0.127,0.291 0.127,0.493 0,0.294 -0.078,0.511 -0.234,0.652 C 0.948,-0.07 0.695,0 0.347,0 Z m 0,-1.891 v -1.081 c 0,-0.208 0.015,-0.339 0.044,-0.393 0.03,-0.054 0.08,-0.098 0.154,-0.13 0.073,-0.032 0.211,-0.048 0.412,-0.048 v -0.105 h -2.251 v 0.105 c 0.203,0 0.342,0.016 0.414,0.05 0.073,0.033 0.123,0.076 0.153,0.129 0.029,0.053 0.043,0.184 0.043,0.392 v 2.503 c 0,0.208 -0.014,0.34 -0.043,0.394 -0.03,0.054 -0.081,0.097 -0.155,0.129 -0.073,0.032 -0.211,0.048 -0.412,0.048 v 0.106 h 2.043 c 0.532,0 0.921,-0.033 1.167,-0.097 0.247,-0.065 0.448,-0.184 0.604,-0.357 0.155,-0.173 0.233,-0.377 0.233,-0.61 0,-0.284 -0.117,-0.519 -0.35,-0.705 C 1.907,-1.679 1.698,-1.767 1.43,-1.826 L 2.487,-3.131 C 2.625,-3.299 2.724,-3.405 2.782,-3.446 2.871,-3.505 2.973,-3.537 3.09,-3.543 V -3.648 H 1.706 l -1.417,1.757 z" /></g><g
           transform="translate(75.2262,87.7223)"
           id="g108"><path
             id="path110"
             style="fill:#a3834a;fill-opacity:1;fill-rule:nonzero;stroke:none"
             d="m 0,0 v -1.57 h 0.088 c 0.278,0 0.481,0.077 0.606,0.231 0.125,0.153 0.205,0.38 0.24,0.679 H 1.057 V -2.679 H 0.934 c -0.026,0.22 -0.081,0.4 -0.164,0.541 -0.083,0.14 -0.18,0.234 -0.29,0.283 C 0.37,-1.807 0.21,-1.783 0,-1.783 v -1.086 c 0,-0.212 0.01,-0.342 0.031,-0.39 0.02,-0.047 0.059,-0.086 0.115,-0.116 0.056,-0.031 0.147,-0.046 0.272,-0.046 h 0.263 c 0.411,0 0.74,0.084 0.987,0.25 0.248,0.167 0.426,0.421 0.534,0.762 h 0.12 L 2.124,-3.634 h -3.8 v 0.105 h 0.145 c 0.128,0 0.231,0.02 0.309,0.06 0.056,0.026 0.099,0.072 0.129,0.136 0.024,0.046 0.036,0.165 0.036,0.359 v 2.536 c 0,0.174 -0.005,0.282 -0.016,0.321 -0.022,0.067 -0.062,0.118 -0.12,0.154 -0.082,0.053 -0.195,0.08 -0.338,0.08 h -0.145 v 0.105 h 3.68 v -1.14 H 1.881 C 1.818,-0.64 1.73,-0.44 1.616,-0.318 1.503,-0.197 1.342,-0.108 1.135,-0.051 1.014,-0.017 0.787,0 0.454,0 Z" /></g><g
           transform="translate(82.0356,87.944)"
           id="g112"><path
             id="path114"
             style="fill:#a3834a;fill-opacity:1;fill-rule:nonzero;stroke:none"
             d="m 0,0 v -1.044 h -0.117 c -0.069,0.241 -0.146,0.414 -0.23,0.519 -0.084,0.106 -0.2,0.189 -0.347,0.252 -0.082,0.034 -0.226,0.051 -0.431,0.051 h -0.328 v -2.974 c 0,-0.197 0.013,-0.321 0.038,-0.37 0.024,-0.049 0.073,-0.092 0.146,-0.129 0.072,-0.037 0.171,-0.056 0.296,-0.056 h 0.146 v -0.105 h -2.302 v 0.105 h 0.146 c 0.127,0 0.23,0.02 0.308,0.06 0.056,0.027 0.1,0.072 0.133,0.137 0.024,0.045 0.035,0.164 0.035,0.358 v 2.974 h -0.317 c -0.296,0 -0.512,-0.055 -0.646,-0.165 -0.188,-0.153 -0.307,-0.372 -0.356,-0.657 H -3.949 V 0 Z" /></g><g
           transform="translate(84.0395,87.7365)"
           id="g116"><path
             id="path118"
             style="fill:#a3834a;fill-opacity:1;fill-rule:nonzero;stroke:none"
             d="m 0,0 v -1.689 h 0.185 c 0.3,0 0.525,0.024 0.674,0.072 0.149,0.049 0.267,0.136 0.352,0.262 0.085,0.126 0.128,0.291 0.128,0.493 0,0.294 -0.078,0.511 -0.235,0.652 C 0.947,-0.07 0.695,0 0.347,0 Z m 0,-1.891 v -1.081 c 0,-0.208 0.015,-0.339 0.044,-0.393 0.029,-0.054 0.08,-0.098 0.154,-0.13 0.073,-0.032 0.211,-0.048 0.412,-0.048 v -0.105 h -2.251 v 0.105 c 0.203,0 0.341,0.016 0.414,0.05 0.072,0.033 0.123,0.076 0.152,0.129 0.029,0.053 0.044,0.184 0.044,0.392 v 2.503 c 0,0.208 -0.015,0.34 -0.044,0.394 -0.029,0.054 -0.08,0.097 -0.154,0.129 -0.073,0.032 -0.211,0.048 -0.412,0.048 v 0.106 h 2.043 c 0.532,0 0.921,-0.033 1.167,-0.097 0.247,-0.065 0.448,-0.184 0.604,-0.357 0.155,-0.173 0.233,-0.377 0.233,-0.61 0,-0.284 -0.117,-0.519 -0.35,-0.705 C 1.907,-1.679 1.698,-1.767 1.43,-1.826 L 2.487,-3.131 C 2.625,-3.299 2.724,-3.405 2.782,-3.446 2.871,-3.505 2.973,-3.537 3.09,-3.543 V -3.648 H 1.706 l -1.417,1.757 z" /></g><g
           transform="translate(89.6751,87.8161)"
           id="g120"><path
             id="path122"
             style="fill:#a3834a;fill-opacity:1;fill-rule:nonzero;stroke:none"
             d="m 0,0 c -0.402,0 -0.708,-0.18 -0.918,-0.54 -0.17,-0.296 -0.256,-0.721 -0.256,-1.274 0,-0.658 0.132,-1.144 0.396,-1.459 0.184,-0.22 0.441,-0.33 0.772,-0.33 0.222,0 0.408,0.048 0.557,0.142 0.19,0.122 0.339,0.316 0.444,0.582 0.106,0.266 0.159,0.614 0.159,1.042 0,0.51 -0.054,0.892 -0.162,1.145 C 0.884,-0.439 0.746,-0.261 0.579,-0.156 0.411,-0.052 0.218,0 0,0 m -0.039,0.182 c 0.7,0.023 1.27,-0.156 1.707,-0.537 0.438,-0.381 0.657,-0.858 0.657,-1.431 0,-0.489 -0.163,-0.919 -0.49,-1.291 -0.432,-0.493 -1.043,-0.739 -1.832,-0.739 -0.791,0 -1.403,0.235 -1.835,0.705 -0.342,0.372 -0.512,0.812 -0.512,1.322 0,0.573 0.222,1.05 0.666,1.432 0.444,0.382 0.991,0.562 1.639,0.539" /></g><g
           transform="translate(53.1635,80.8328)"
           id="g124"><path
             id="path126"
             style="fill:#ffffff;fill-opacity:1;fill-rule:nonzero;stroke:none"
             d="M 0,0 -0.308,0.892 H -0.314 L -0.627,0 Z M -0.171,1.122 0.552,-0.79 H 0.28 L 0.078,-0.214 H -0.705 L -0.912,-0.79 h -0.252 l 0.721,1.912 z" /></g><g
           transform="translate(54.5524,80.257)"
           id="g128"><path
             id="path130"
             style="fill:#ffffff;fill-opacity:1;fill-rule:nonzero;stroke:none"
             d="M 0,0 C 0.028,0 0.062,0.002 0.104,0.007 0.145,0.011 0.189,0.022 0.236,0.039 0.282,0.056 0.329,0.08 0.374,0.112 0.42,0.145 0.461,0.188 0.497,0.244 0.534,0.299 0.564,0.368 0.587,0.451 0.61,0.534 0.622,0.635 0.622,0.753 0.622,0.867 0.611,0.969 0.589,1.059 0.568,1.149 0.533,1.226 0.483,1.289 0.434,1.353 0.371,1.401 0.293,1.434 0.215,1.467 0.119,1.483 0.005,1.483 H -0.409 V 0 Z M -0.021,1.697 C 0.264,1.697 0.484,1.623 0.637,1.473 0.791,1.323 0.868,1.094 0.868,0.787 0.868,0.626 0.851,0.484 0.816,0.36 0.782,0.236 0.728,0.132 0.656,0.047 0.583,-0.038 0.491,-0.102 0.378,-0.147 0.266,-0.192 0.133,-0.214 -0.021,-0.214 h -0.635 v 1.911 z" /></g><g
           transform="translate(56.1692,80.0429)"
           id="g132"><path
             id="path134"
             style="fill:#ffffff;fill-opacity:1;fill-rule:nonzero;stroke:none"
             d="m 0,0 -0.65,1.912 h 0.264 L 0.143,0.254 H 0.148 L 0.682,1.912 H 0.938 L 0.28,0 Z" /></g><g
           transform="translate(58.1308,80.8328)"
           id="g136"><path
             id="path138"
             style="fill:#ffffff;fill-opacity:1;fill-rule:nonzero;stroke:none"
             d="M 0,0 -0.308,0.892 H -0.314 L -0.627,0 Z M -0.171,1.122 0.552,-0.79 H 0.28 L 0.078,-0.214 H -0.705 L -0.912,-0.79 h -0.251 l 0.72,1.912 z" /></g><g
           transform="translate(59.1231,81.9545)"
           id="g140"><path
             id="path142"
             style="fill:#ffffff;fill-opacity:1;fill-rule:nonzero;stroke:none"
             d="M 0,0 0.974,-1.55 H 0.98 V 0 h 0.233 v -1.912 h -0.27 l -0.966,1.535 H -0.028 V -1.912 H -0.262 V 0 Z" /></g><g
           transform="translate(61.853,81.6841)"
           id="g144"><path
             id="path146"
             style="fill:#ffffff;fill-opacity:1;fill-rule:nonzero;stroke:none"
             d="m 0,0 c -0.094,0.068 -0.206,0.102 -0.336,0.102 -0.11,0 -0.205,-0.022 -0.283,-0.065 -0.079,-0.042 -0.144,-0.1 -0.195,-0.172 -0.051,-0.072 -0.088,-0.155 -0.112,-0.248 -0.025,-0.093 -0.037,-0.189 -0.037,-0.289 0,-0.109 0.012,-0.212 0.037,-0.309 0.024,-0.098 0.061,-0.182 0.112,-0.255 0.051,-0.072 0.116,-0.129 0.196,-0.172 0.079,-0.043 0.174,-0.065 0.285,-0.065 0.081,0 0.153,0.014 0.216,0.042 0.063,0.028 0.118,0.066 0.164,0.115 0.045,0.049 0.081,0.107 0.107,0.175 0.026,0.068 0.042,0.141 0.047,0.22 H 0.447 C 0.423,-1.162 0.342,-1.349 0.206,-1.483 c -0.137,-0.134 -0.323,-0.201 -0.56,-0.201 -0.143,0 -0.268,0.025 -0.376,0.076 -0.107,0.051 -0.196,0.121 -0.266,0.21 -0.071,0.09 -0.124,0.195 -0.16,0.316 -0.035,0.122 -0.053,0.252 -0.053,0.391 0,0.14 0.019,0.27 0.057,0.392 0.038,0.123 0.094,0.229 0.167,0.32 0.074,0.091 0.165,0.163 0.275,0.216 0.11,0.053 0.235,0.079 0.377,0.079 0.097,0 0.188,-0.013 0.275,-0.04 C 0.028,0.249 0.105,0.21 0.172,0.158 0.24,0.106 0.296,0.042 0.341,-0.036 0.386,-0.114 0.415,-0.203 0.429,-0.305 H 0.183 C 0.155,-0.17 0.094,-0.068 0,0" /></g><g
           transform="translate(63.8831,81.9545)"
           id="g148"><path
             id="path150"
             style="fill:#ffffff;fill-opacity:1;fill-rule:nonzero;stroke:none"
             d="M 0,0 V -0.214 H -1.031 V -0.822 H -0.07 V -1.036 H -1.031 V -1.697 H 0.008 V -1.912 H -1.278 V 0 Z" /></g><g
           transform="translate(64.8445,80.257)"
           id="g152"><path
             id="path154"
             style="fill:#ffffff;fill-opacity:1;fill-rule:nonzero;stroke:none"
             d="M 0,0 C 0.028,0 0.062,0.002 0.104,0.007 0.145,0.011 0.189,0.022 0.236,0.039 0.282,0.056 0.329,0.08 0.374,0.112 0.42,0.145 0.461,0.188 0.497,0.244 0.534,0.299 0.564,0.368 0.587,0.451 0.61,0.534 0.622,0.635 0.622,0.753 0.622,0.867 0.611,0.969 0.589,1.059 0.568,1.149 0.533,1.226 0.483,1.289 0.434,1.353 0.371,1.401 0.293,1.434 0.215,1.467 0.119,1.483 0.005,1.483 H -0.409 V 0 Z M -0.021,1.697 C 0.264,1.697 0.484,1.623 0.637,1.473 0.791,1.323 0.868,1.094 0.868,0.787 0.868,0.626 0.851,0.484 0.816,0.36 0.782,0.236 0.728,0.132 0.656,0.047 0.583,-0.038 0.491,-0.102 0.378,-0.147 0.266,-0.192 0.133,-0.214 -0.021,-0.214 h -0.635 v 1.911 z" /></g><g
           transform="translate(68.0109,81.9545)"
           id="g156"><path
             id="path158"
             style="fill:#ffffff;fill-opacity:1;fill-rule:nonzero;stroke:none"
             d="M 0,0 V -0.214 H -1.031 V -0.822 H -0.07 V -1.036 H -1.031 V -1.697 H 0.008 V -1.912 H -1.278 V 0 Z" /></g><g
           transform="translate(68.6587,81.9545)"
           id="g160"><path
             id="path162"
             style="fill:#ffffff;fill-opacity:1;fill-rule:nonzero;stroke:none"
             d="M 0,0 0.583,-1.606 1.169,0 H 1.506 V -1.912 H 1.272 v 1.591 H 1.267 L 0.689,-1.912 h -0.21 l -0.577,1.591 H -0.104 V -1.912 H -0.337 V 0 Z" /></g><g
           transform="translate(71.8614,80.1836)"
           id="g164"><path
             id="path166"
             style="fill:#ffffff;fill-opacity:1;fill-rule:nonzero;stroke:none"
             d="m 0,0 c -0.126,-0.122 -0.306,-0.184 -0.539,-0.184 -0.238,0 -0.424,0.059 -0.558,0.176 -0.134,0.117 -0.201,0.303 -0.201,0.558 v 1.221 h 0.246 V 0.55 c 0,-0.171 0.044,-0.301 0.132,-0.389 0.088,-0.089 0.215,-0.133 0.381,-0.133 0.157,0 0.277,0.044 0.359,0.133 0.082,0.088 0.123,0.218 0.123,0.389 V 1.771 H 0.189 V 0.55 C 0.189,0.306 0.126,0.122 0,0" /></g><g
           transform="translate(72.6905,81.9545)"
           id="g168"><path
             id="path170"
             style="fill:#ffffff;fill-opacity:1;fill-rule:nonzero;stroke:none"
             d="M 0,0 V -1.697 H 0.979 V -1.912 H -0.246 V 0 Z" /></g><g
           transform="translate(74.8309,80.8328)"
           id="g172"><path
             id="path174"
             style="fill:#ffffff;fill-opacity:1;fill-rule:nonzero;stroke:none"
             d="M 0,0 -0.308,0.892 H -0.314 L -0.627,0 Z M -0.171,1.122 0.552,-0.79 H 0.28 L 0.078,-0.214 H -0.705 L -0.912,-0.79 h -0.252 l 0.721,1.912 z" /></g><g
           transform="translate(75.1289,81.7404)"
           id="g176"><path
             id="path178"
             style="fill:#ffffff;fill-opacity:1;fill-rule:nonzero;stroke:none"
             d="M 0,0 V 0.214 H 1.48 V 0 H 0.863 V -1.697 H 0.617 V 0 Z" /></g><path
           id="path180"
           style="fill:#ffffff;fill-opacity:1;fill-rule:nonzero;stroke:none"
           d="m 77.07,80.043 h -0.246 v 1.912 h 0.246 z" /><g
           transform="translate(77.663,80.7136)"
           id="g182"><path
             id="path184"
             style="fill:#ffffff;fill-opacity:1;fill-rule:nonzero;stroke:none"
             d="m 0,0 c 0.024,-0.094 0.062,-0.178 0.114,-0.253 0.052,-0.075 0.118,-0.135 0.2,-0.181 0.081,-0.045 0.177,-0.068 0.29,-0.068 0.112,0 0.209,0.023 0.29,0.068 0.081,0.046 0.148,0.106 0.199,0.181 C 1.145,-0.178 1.183,-0.094 1.207,0 1.232,0.094 1.244,0.189 1.244,0.285 1.244,0.381 1.232,0.477 1.207,0.57 1.183,0.664 1.145,0.748 1.093,0.823 1.042,0.898 0.975,0.959 0.894,1.004 0.813,1.05 0.716,1.072 0.604,1.072 0.491,1.072 0.395,1.05 0.314,1.004 0.232,0.959 0.166,0.898 0.114,0.823 0.062,0.748 0.024,0.664 0,0.57 -0.024,0.477 -0.036,0.381 -0.036,0.285 -0.036,0.189 -0.024,0.094 0,0 m -0.227,0.661 c 0.037,0.121 0.093,0.227 0.167,0.32 0.075,0.093 0.167,0.167 0.278,0.223 0.11,0.055 0.239,0.082 0.386,0.082 0.147,0 0.275,-0.027 0.386,-0.082 C 1.1,1.148 1.193,1.074 1.267,0.981 1.341,0.888 1.397,0.782 1.434,0.661 1.471,0.541 1.49,0.415 1.49,0.285 1.49,0.155 1.471,0.03 1.434,-0.091 1.397,-0.212 1.341,-0.318 1.267,-0.411 1.193,-0.504 1.1,-0.577 0.99,-0.632 0.879,-0.686 0.751,-0.714 0.604,-0.714 c -0.147,0 -0.276,0.028 -0.386,0.082 -0.111,0.055 -0.203,0.128 -0.278,0.221 -0.074,0.093 -0.13,0.199 -0.167,0.32 -0.037,0.121 -0.056,0.246 -0.056,0.376 0,0.13 0.019,0.256 0.056,0.376" /></g><g
           transform="translate(79.7126,81.9545)"
           id="g186"><path
             id="path188"
             style="fill:#ffffff;fill-opacity:1;fill-rule:nonzero;stroke:none"
             d="M 0,0 0.974,-1.55 H 0.98 V 0 h 0.233 v -1.912 h -0.27 l -0.966,1.535 H -0.028 V -1.912 H -0.262 V 0 Z" /></g><g
           transform="translate(82.9709,81.6936)"
           id="g190"><path
             id="path192"
             style="fill:#ffffff;fill-opacity:1;fill-rule:nonzero;stroke:none"
             d="m 0,0 c -0.082,0.061 -0.187,0.092 -0.315,0.092 -0.052,0 -0.103,-0.005 -0.153,-0.016 -0.05,-0.01 -0.094,-0.028 -0.133,-0.053 -0.039,-0.025 -0.07,-0.059 -0.093,-0.101 -0.024,-0.041 -0.035,-0.094 -0.035,-0.156 0,-0.059 0.016,-0.107 0.05,-0.144 0.034,-0.036 0.079,-0.066 0.135,-0.089 0.056,-0.024 0.12,-0.043 0.19,-0.058 0.071,-0.015 0.143,-0.031 0.217,-0.049 0.073,-0.018 0.145,-0.039 0.216,-0.063 0.071,-0.024 0.134,-0.057 0.19,-0.098 0.057,-0.041 0.102,-0.093 0.135,-0.155 0.034,-0.063 0.051,-0.141 0.051,-0.236 0,-0.102 -0.022,-0.189 -0.066,-0.261 C 0.345,-1.459 0.288,-1.518 0.219,-1.564 0.15,-1.609 0.072,-1.642 -0.013,-1.663 c -0.085,-0.02 -0.171,-0.031 -0.255,-0.031 -0.104,0 -0.202,0.014 -0.294,0.041 -0.093,0.026 -0.174,0.067 -0.244,0.122 -0.07,0.054 -0.125,0.123 -0.166,0.208 -0.04,0.085 -0.061,0.186 -0.061,0.301 h 0.234 c 0,-0.08 0.015,-0.149 0.045,-0.207 0.03,-0.058 0.07,-0.106 0.119,-0.143 0.049,-0.038 0.107,-0.065 0.172,-0.083 0.066,-0.018 0.134,-0.027 0.203,-0.027 0.055,0 0.111,0.005 0.167,0.016 0.056,0.011 0.106,0.029 0.151,0.055 0.045,0.026 0.081,0.061 0.109,0.106 0.028,0.044 0.042,0.101 0.042,0.171 0,0.066 -0.017,0.12 -0.051,0.161 -0.034,0.041 -0.079,0.074 -0.135,0.1 -0.056,0.026 -0.119,0.047 -0.19,0.063 -0.071,0.016 -0.143,0.033 -0.216,0.05 -0.074,0.017 -0.146,0.036 -0.217,0.058 -0.071,0.023 -0.134,0.052 -0.19,0.089 -0.056,0.036 -0.101,0.084 -0.135,0.142 -0.034,0.058 -0.051,0.131 -0.051,0.218 0,0.096 0.019,0.18 0.057,0.25 0.038,0.071 0.089,0.129 0.152,0.174 0.063,0.046 0.135,0.08 0.215,0.102 0.08,0.022 0.163,0.033 0.248,0.033 0.094,0 0.183,-0.011 0.264,-0.034 C 0.041,0.249 0.112,0.212 0.174,0.162 0.235,0.112 0.283,0.049 0.319,-0.027 0.354,-0.103 0.373,-0.193 0.377,-0.299 H 0.144 C 0.13,-0.161 0.082,-0.062 0,0" /></g><g
           transform="translate(84.4881,80.0429)"
           id="g194"><path
             id="path196"
             style="fill:#ffffff;fill-opacity:1;fill-rule:nonzero;stroke:none"
             d="m 0,0 h -0.246 v 0.782 l -0.715,1.13 h 0.292 L -0.114,1.001 0.428,1.912 H 0.707 L 0,0.782 Z" /></g><g
           transform="translate(86.3291,81.6936)"
           id="g198"><path
             id="path200"
             style="fill:#ffffff;fill-opacity:1;fill-rule:nonzero;stroke:none"
             d="m 0,0 c -0.082,0.061 -0.187,0.092 -0.315,0.092 -0.052,0 -0.103,-0.005 -0.153,-0.016 -0.05,-0.01 -0.094,-0.028 -0.133,-0.053 -0.039,-0.025 -0.07,-0.059 -0.093,-0.101 -0.024,-0.041 -0.035,-0.094 -0.035,-0.156 0,-0.059 0.016,-0.107 0.05,-0.144 0.034,-0.036 0.079,-0.066 0.135,-0.089 0.056,-0.024 0.12,-0.043 0.19,-0.058 0.071,-0.015 0.143,-0.031 0.217,-0.049 0.073,-0.018 0.145,-0.039 0.216,-0.063 0.071,-0.024 0.134,-0.057 0.19,-0.098 0.057,-0.041 0.102,-0.093 0.135,-0.155 0.034,-0.063 0.051,-0.141 0.051,-0.236 0,-0.102 -0.022,-0.189 -0.066,-0.261 C 0.345,-1.459 0.288,-1.518 0.219,-1.564 0.15,-1.609 0.072,-1.642 -0.013,-1.663 c -0.085,-0.02 -0.171,-0.031 -0.255,-0.031 -0.104,0 -0.202,0.014 -0.294,0.041 -0.093,0.026 -0.174,0.067 -0.244,0.122 -0.07,0.054 -0.125,0.123 -0.166,0.208 -0.04,0.085 -0.061,0.186 -0.061,0.301 h 0.234 c 0,-0.08 0.015,-0.149 0.045,-0.207 0.03,-0.058 0.07,-0.106 0.119,-0.143 0.049,-0.038 0.107,-0.065 0.172,-0.083 0.066,-0.018 0.134,-0.027 0.203,-0.027 0.055,0 0.111,0.005 0.167,0.016 0.056,0.011 0.106,0.029 0.151,0.055 0.045,0.026 0.081,0.061 0.109,0.106 0.028,0.044 0.042,0.101 0.042,0.171 0,0.066 -0.017,0.12 -0.051,0.161 -0.034,0.041 -0.079,0.074 -0.135,0.1 -0.056,0.026 -0.119,0.047 -0.19,0.063 -0.071,0.016 -0.143,0.033 -0.216,0.05 -0.074,0.017 -0.146,0.036 -0.217,0.058 -0.071,0.023 -0.134,0.052 -0.19,0.089 -0.056,0.036 -0.101,0.084 -0.135,0.142 -0.034,0.058 -0.051,0.131 -0.051,0.218 0,0.096 0.019,0.18 0.057,0.25 0.038,0.071 0.089,0.129 0.152,0.174 0.063,0.046 0.135,0.08 0.215,0.102 0.08,0.022 0.163,0.033 0.248,0.033 0.094,0 0.183,-0.011 0.264,-0.034 C 0.041,0.249 0.112,0.212 0.174,0.162 0.235,0.112 0.283,0.049 0.319,-0.027 0.354,-0.103 0.373,-0.193 0.377,-0.299 H 0.144 C 0.13,-0.161 0.082,-0.062 0,0" /></g><g
           transform="translate(86.8849,81.7404)"
           id="g202"><path
             id="path204"
             style="fill:#ffffff;fill-opacity:1;fill-rule:nonzero;stroke:none"
             d="M 0,0 V 0.214 H 1.48 V 0 H 0.863 V -1.697 H 0.617 V 0 Z" /></g><g
           transform="translate(89.8467,81.9545)"
           id="g206"><path
             id="path208"
             style="fill:#ffffff;fill-opacity:1;fill-rule:nonzero;stroke:none"
             d="M 0,0 V -0.214 H -1.031 V -0.822 H -0.07 V -1.036 H -1.031 V -1.697 H 0.008 V -1.912 H -1.277 V 0 Z" /></g><g
           transform="translate(90.4945,81.9545)"
           id="g210"><path
             id="path212"
             style="fill:#ffffff;fill-opacity:1;fill-rule:nonzero;stroke:none"
             d="M 0,0 0.583,-1.606 1.169,0 H 1.505 V -1.912 H 1.272 v 1.591 H 1.267 L 0.689,-1.912 h -0.21 l -0.577,1.591 H -0.104 V -1.912 H -0.337 V 0 Z" /></g><path
           id="path214"
           style="fill:#ffffff;fill-opacity:1;fill-rule:nonzero;stroke:none"
           d="m 124.063,196 h 2.414 v -8 h -2.414 z" /><g
           transform="translate(133.0627,190.2805)"
           id="g216"><path
             id="path218"
             style="fill:#ffffff;fill-opacity:1;fill-rule:nonzero;stroke:none"
             d="m 0,0 c -0.054,-0.025 -0.117,-0.035 -0.176,-0.043 -0.061,-0.007 -0.122,-0.002 -0.183,-0.002 -1.043,0 -2.087,0 -3.13,0 v 0.647 h 3.387 C -0.071,0.597 -0.041,0.59 -0.012,0.579 0.107,0.533 0.194,0.403 0.187,0.283 0.18,0.15 0.114,0.053 0,0 m -0.394,3.498 c 0.068,0 0.136,0.004 0.203,-0.002 C -0.13,3.491 -0.068,3.483 -0.012,3.462 0.107,3.416 0.194,3.286 0.187,3.166 0.18,3.033 0.114,2.935 0,2.883 -0.054,2.858 -0.117,2.847 -0.176,2.84 -0.201,2.837 -0.227,2.837 -0.252,2.837 h -0.023 c -0.028,0 -0.056,10e-4 -0.084,10e-4 -1.043,0 -2.087,0 -3.13,0 v 0.66 c 1.032,0 2.063,0 3.095,0 M 2.563,1.738 C 2.622,1.842 2.675,1.953 2.722,2.072 3.014,2.813 3.007,3.566 2.714,4.304 2.439,4.999 1.947,5.449 1.253,5.644 1.022,5.709 -5.904,5.72 -5.904,5.72 v -8 c 0,0 5.391,0 6.879,0 0.068,0.026 0.135,0.06 0.206,0.078 0.737,0.188 1.252,0.658 1.541,1.391 C 3.014,-0.07 3.007,0.683 2.714,1.421 2.67,1.533 2.619,1.638 2.563,1.738" /></g><g
           transform="translate(118.4144,189.3259)"
           id="g220"><path
             id="path222"
             style="fill:#ffffff;fill-opacity:1;fill-rule:nonzero;stroke:none"
             d="m 0,0 v 6.674 h -2.414 v -8 H 5.119 V 0 Z" /></g></g></g></g></svg>