<?xml version="1.0" encoding="UTF-8" standalone="no"?>
<svg
   xmlns:dc="http://purl.org/dc/elements/1.1/"
   xmlns:cc="http://creativecommons.org/ns#"
   xmlns:rdf="http://www.w3.org/1999/02/22-rdf-syntax-ns#"
   xmlns:svg="http://www.w3.org/2000/svg"
   xmlns="http://www.w3.org/2000/svg"
   viewBox="0 0 341.33334 341.33334"
   height="256"
   width="256"
   xml:space="preserve"
   id="svg2"
   version="1.1"><metadata
     id="metadata8"><rdf:RDF><cc:Work
         rdf:about=""><dc:format>image/svg+xml</dc:format><dc:type
           rdf:resource="http://purl.org/dc/dcmitype/StillImage" /></cc:Work></rdf:RDF></metadata><defs
     id="defs6"><clipPath
       id="clipPath18"
       clipPathUnits="userSpaceOnUse"><path
         id="path16"
         d="M 0,256 H 256 V 0 H 0 Z" /></clipPath><clipPath
       id="clipPath26"
       clipPathUnits="userSpaceOnUse"><path
         id="path24"
         d="M 12,252 H 244 V 4 H 12 Z" /></clipPath></defs><g
     transform="matrix(1.3333333,0,0,-1.3333333,0,341.33333)"
     id="g10"><g
       id="g12"><g
         clip-path="url(#clipPath18)"
         id="g14"><g
           id="g20"><g
             id="g22" /><g
             id="g34"><g
               style="opacity:0.5"
               id="g32"
               clip-path="url(#clipPath26)"><g
                 id="g30"
                 transform="translate(128,252)"><path
                   id="path28"
                   style="fill:#ffffff;fill-opacity:1;fill-rule:nonzero;stroke:none"
                   d="M 0,0 C -30.999,0 -60.14,-12.2 -82.054,-34.352 -103.944,-56.482 -116,-85.896 -116,-117.176 v -77.334 c 0,-10.544 7.643,-17.585 12.667,-20.4 C -72.202,-238.406 -42.214,-248 0,-248 c 42.437,0 72.521,9.697 103.837,33.471 0.171,0.13 0.337,0.267 0.497,0.41 3.508,3.138 11.666,11.331 11.666,19.609 v 77.334 c 0,31.28 -12.056,60.694 -33.946,82.824 C 60.14,-12.2 30.999,0 0,0" /></g></g></g></g><g
           transform="translate(128,244)"
           id="g36"><path
             id="path38"
             style="fill:#e6e6e6;fill-opacity:1;fill-rule:nonzero;stroke:none"
             d="m 0,0 c -59.643,0 -108,-48.884 -108,-109.176 v -77.334 c 0,-9.098 9,-13.647 9,-13.647 30.083,-22.84 58.482,-31.843 99,-31.843 40.523,0 68.913,9.003 99,31.843 0,0 9,8.052 9,13.647 v 77.334 C 108,-48.884 59.643,0 0,0" /></g><g
           transform="translate(128,36)"
           id="g40"><path
             id="path42"
             style="fill:#cccccc;fill-opacity:1;fill-rule:nonzero;stroke:none"
             d="m 0,0 c -55.227,0 -100,44.773 -100,100 0,55.227 44.773,100 100,100 55.227,0 100,-44.773 100,-100 C 100,44.773 55.227,0 0,0" /></g><g
           transform="translate(128,226)"
           id="g44"><path
             id="path46"
             style="fill:#29678f;fill-opacity:1;fill-rule:nonzero;stroke:none"
             d="m 0,0 c -49.707,0 -90,-40.293 -90,-90 0,-49.707 40.293,-90 90,-90 49.707,0 90,40.293 90,90 C 90,-40.293 49.707,0 0,0" /></g><g
           transform="translate(128,100)"
           id="g48"><path
             id="path50"
             style="fill:#e6e6e6;fill-opacity:1;fill-rule:nonzero;stroke:none"
             d="M 0,0 C -19.881,0 -36,16.119 -36,36 -36,55.886 -19.881,72 0,72 19.881,72 36,55.886 36,36 36,16.119 19.881,0 0,0" /></g><g
           transform="translate(227.5789,62.9987)"
           id="g52"><path
             id="path54"
             style="fill:#999999;fill-opacity:1;fill-rule:nonzero;stroke:none"
             d="m 0,0 h -0.02 c -0.139,1.438 -1.033,2.673 -2.31,3.356 l -0.346,1.3 c -1.338,0.495 -2.621,0.425 -3.871,0 L -6.885,3.382 C -7.489,3.067 -8.009,2.631 -8.408,2.108 h -6.342 c -0.399,0.523 -0.919,0.959 -1.522,1.274 l -0.339,1.274 c -1.339,0.495 -2.621,0.425 -3.871,0 l -0.346,-1.3 C -22.105,2.673 -22.999,1.438 -23.138,0 h -0.02 l -0.421,-8.249 c 0,-1.519 1.32,-2.75 2.947,-2.75 1.372,0 2.523,0.876 2.851,2.06 0.054,0.193 0.122,0.383 0.203,0.568 l 1.55,3.521 c 0.184,0.121 0.358,0.257 0.518,0.405 h 7.862 c 0.16,-0.148 0.334,-0.284 0.518,-0.405 l 1.55,-3.521 c 0.081,-0.185 0.15,-0.375 0.203,-0.568 0.328,-1.184 1.479,-2.06 2.851,-2.06 1.627,0 2.947,1.231 2.947,2.75 z" /></g><path
           id="path56"
           style="fill:#262626;fill-opacity:1;fill-rule:nonzero;stroke:none"
           d="m 138,60 h -20 v 20 h 20 z" /><g
           transform="translate(135.084,73.5018)"
           id="g58"><path
             id="path60"
             style="fill:#ffffff;fill-opacity:1;fill-rule:nonzero;stroke:none"
             d="m 0,0 c -0.18,0.539 -0.481,1.029 -0.902,1.469 -0.229,0.24 -0.476,0.448 -0.74,0.62 -0.263,0.173 -0.527,0.321 -0.793,0.448 -0.148,0.078 -4.668,1.961 -4.668,1.961 v -10.61 l -1.953,-1.307 c -0.32,-0.213 -0.687,-0.365 -1.101,-0.459 -0.415,-0.093 -0.824,-0.064 -1.231,0.09 -0.531,0.2 -0.75,0.43 -0.657,0.688 0.094,0.259 0.342,0.526 0.745,0.804 l 3.449,2.288 c 0.508,0.337 0.426,1.155 -0.137,1.367 l -0.135,0.051 c -0.203,0.077 -0.427,0.05 -0.61,-0.071 l -4.686,-3.124 c -0.969,-0.643 -1.518,-1.236 -1.646,-1.779 -0.13,-0.543 0.403,-1.049 1.595,-1.516 1.142,-0.44 2.204,-0.562 3.187,-0.368 0.984,0.194 1.938,0.604 2.863,1.227 l 1.993,1.309 0.021,-0.01 v 0.024 l 0.25,0.164 c 0.354,0.225 0.712,0.402 1.072,0.529 0.106,0.038 0.22,0.06 0.338,0.074 l -0.249,1.539 C -4.309,-4.651 -4.61,-4.727 -4.881,-4.839 -5.064,-4.914 -5.238,-4.993 -5.406,-5.076 v 7.27 L -3.401,1.352 V 1.339 c 0.441,-0.185 0.836,-0.43 1.183,-0.734 0.349,-0.303 0.515,-0.747 0.499,-1.328 0,-0.529 -0.157,-0.817 -0.47,-0.864 -0.312,-0.047 -0.682,0.022 -1.107,0.207 l -0.382,0.166 v -1.543 l -0.002,0.004 0.002,-0.079 0.261,-1.678 c -0.001,0 -0.003,0 -0.005,0 l 0.13,-0.804 0.374,-2.396 -3.513,-2.331 c -0.508,-0.336 -0.425,-1.154 0.138,-1.367 l 0.135,-0.051 c 0.203,-0.076 0.426,-0.05 0.609,0.071 l 4.42,2.932 -0.007,0.015 0.018,-0.008 -2.518,5.598 0.328,-0.147 c 0.093,-0.041 0.186,-0.082 0.279,-0.123 0.092,-0.041 0.186,-0.083 0.279,-0.124 0.358,-0.142 0.712,-0.254 1.061,-0.336 0.351,-0.082 0.676,-0.074 0.977,0.024 0.359,0.127 0.616,0.37 0.772,0.732 0.156,0.363 0.23,0.779 0.222,1.247 C 0.274,-1.067 0.18,-0.541 0,0" /></g><g
           transform="translate(134.3923,68.5674)"
           id="g62"><path
             id="path64"
             style="fill:#ffffff;fill-opacity:1;fill-rule:nonzero;stroke:none"
             d="M 0,0 C -0.096,0.036 -0.192,0.07 -0.288,0.102 -0.384,0.134 -0.486,0.166 -0.591,0.197 -0.884,0.285 -1.208,0.342 -1.543,0.388 L 0.054,-3.187 C 0.941,-2.58 1.46,-2.018 1.587,-1.506 1.722,-0.97 1.192,-0.467 0,0" /></g><g
           transform="translate(35.5468,66)"
           id="g66"><path
             id="path68"
             style="fill:#999999;fill-opacity:1;fill-rule:nonzero;stroke:none"
             d="m 0,0 v -5.333 h -3.724 l -1.249,2 h 1.548 V 0 h -8.122 v -0.667 h 7.581 v -2 h -7.581 V -6 h 0.542 v 2.667 h 5.448 L -3.891,-6 h 4.432 v 5.333 h 11.371 v -2 H 4.332 V -6 h 0.541 v 2.667 h 7.58 V 0 Z" /></g><g
           transform="translate(52.2921,138.7051)"
           id="g70"><path
             id="path72"
             style="fill:#e77f22;fill-opacity:1;fill-rule:nonzero;stroke:none"
             d="m 0,0 13.003,13.003 c 0.389,0.389 1.021,0.389 1.41,0 L 27.416,0 c 0.389,-0.389 0.389,-1.021 0,-1.41 L 14.413,-14.413 c -0.389,-0.389 -1.021,-0.389 -1.41,0 L 0,-1.41 C -0.389,-1.021 -0.389,-0.389 0,0" /></g><g
           transform="translate(74,138.0156)"
           id="g74"><path
             id="path76"
             style="fill:#f39b11;fill-opacity:1;fill-rule:nonzero;stroke:none"
             d="m 0,0 h -7.949 l 3.974,-4.016 z" /></g><g
           transform="translate(65.9494,137.9844)"
           id="g78"><path
             id="path80"
             style="fill:#f39b11;fill-opacity:1;fill-rule:nonzero;stroke:none"
             d="M 0,0 -3.975,4.016 -7.949,0 Z" /></g><g
           transform="translate(52,152.5876)"
           id="g82"><path
             id="path84"
             style="fill:#ffffff;fill-opacity:1;fill-rule:nonzero;stroke:none"
             d="m 0,0 h 0.289 c 0.136,0 0.204,0.075 0.204,0.226 v 2.373 c 0,0.151 -0.064,0.226 -0.192,0.226 H 0 V 3.333 H 1.913 V 2.825 H 1.619 c -0.133,0 -0.2,-0.075 -0.2,-0.226 V 0 h 0.525 c 0.274,0 0.463,0.091 0.568,0.274 0.091,0.16 0.137,0.427 0.137,0.799 H 3.113 V -0.508 H 0 Z" /></g><g
           transform="translate(55.3728,152.5876)"
           id="g86"><path
             id="path88"
             style="fill:#ffffff;fill-opacity:1;fill-rule:nonzero;stroke:none"
             d="m 0,0 h 0.289 c 0.136,0 0.204,0.075 0.204,0.226 v 2.418 c 0,0.121 -0.064,0.181 -0.192,0.181 H 0 V 3.333 H 1.913 V 2.825 H 1.619 C 1.54,2.825 1.488,2.808 1.46,2.774 1.433,2.742 1.419,2.684 1.419,2.599 V 0.226 C 1.419,0.075 1.483,0 1.612,0 H 1.913 V -0.508 H 0 Z" /></g><g
           transform="translate(58.8778,152.5876)"
           id="g90"><path
             id="path92"
             style="fill:#ffffff;fill-opacity:1;fill-rule:nonzero;stroke:none"
             d="M 0,0 H 0.325 C 0.748,0 0.96,0.207 0.96,0.621 0.96,1.028 0.747,1.232 0.322,1.232 H 0 Z M 0,2.825 V 1.74 h 0.267 c 0.385,0 0.577,0.183 0.577,0.548 0,0.358 -0.192,0.537 -0.577,0.537 z M -1.39,-0.508 V 0 h 0.264 c 0.133,0 0.2,0.075 0.2,0.226 v 2.373 c 0,0.151 -0.065,0.226 -0.195,0.226 h -0.284 v 0.508 h 2.11 c 0.351,0 0.617,-0.08 0.796,-0.24 0.18,-0.158 0.27,-0.38 0.27,-0.666 C 1.771,2.182 1.702,1.981 1.566,1.825 1.431,1.67 1.258,1.569 1.046,1.52 1.395,1.411 1.629,1.279 1.749,1.124 1.869,0.97 1.929,0.769 1.929,0.523 1.929,0.17 1.833,-0.089 1.641,-0.257 1.45,-0.425 1.088,-0.508 0.556,-0.508 Z" /></g><g
           transform="translate(62.4791,154.3277)"
           id="g94"><path
             id="path96"
             style="fill:#ffffff;fill-opacity:1;fill-rule:nonzero;stroke:none"
             d="M 0,0 H 0.51 C 0.709,0 0.846,0.042 0.921,0.127 0.998,0.212 1.037,0.353 1.037,0.551 1.037,0.752 0.986,0.892 0.885,0.969 0.786,1.046 0.609,1.085 0.356,1.085 H 0 Z m -1.419,-1.74 h 0.274 c 0.146,0 0.219,0.09 0.219,0.271 v 2.328 c 0,0.15 -0.071,0.226 -0.212,0.226 H -1.419 V 1.593 H 0.88 C 1.209,1.593 1.471,1.515 1.667,1.359 1.864,1.202 1.963,0.966 1.963,0.65 1.963,0.151 1.707,-0.139 1.196,-0.22 1.409,-0.282 1.561,-0.365 1.653,-0.469 1.744,-0.571 1.79,-0.738 1.79,-0.972 V -1.52 -1.537 c 0,-0.13 0.054,-0.195 0.163,-0.195 0.114,0 0.171,0.119 0.171,0.356 v 0.223 h 0.332 v -0.203 c 0,-0.648 -0.265,-0.972 -0.796,-0.972 -0.531,0 -0.796,0.318 -0.796,0.952 v 0.461 c 0,0.181 -0.032,0.294 -0.094,0.339 -0.061,0.045 -0.197,0.068 -0.409,0.068 L 0,-0.508 V -1.469 C 0,-1.571 0.015,-1.641 0.046,-1.681 0.076,-1.72 0.136,-1.74 0.224,-1.74 h 0.269 v -0.509 h -1.912 z" /></g><g
           transform="translate(65.1638,152.5876)"
           id="g98"><path
             id="path100"
             style="fill:#ffffff;fill-opacity:1;fill-rule:nonzero;stroke:none"
             d="m 0,0 h 0.289 c 0.136,0 0.204,0.075 0.204,0.226 v 2.373 c 0,0.151 -0.064,0.226 -0.192,0.226 H 0 V 3.333 H 3.267 V 1.842 H 2.802 C 2.802,2.243 2.728,2.512 2.581,2.65 2.465,2.766 2.255,2.825 1.949,2.825 H 1.419 V 1.701 h 0.14 c 0.159,0 0.268,0.04 0.327,0.121 0.053,0.072 0.079,0.196 0.079,0.373 V 2.333 H 2.369 V 0.559 H 1.965 v 0.147 c 0,0.151 -0.024,0.27 -0.074,0.356 C 1.843,1.149 1.782,1.192 1.71,1.192 H 1.419 V 0 h 0.585 c 0.312,0 0.524,0.077 0.633,0.232 0.111,0.154 0.165,0.435 0.165,0.841 h 0.465 v -1.581 l -3.267,0 z" /></g><g
           transform="translate(68.796,154.4294)"
           id="g102"><path
             id="path104"
             style="fill:#ffffff;fill-opacity:1;fill-rule:nonzero;stroke:none"
             d="M 0,0 V 1.492 H 3.236 V 0 H 2.771 C 2.771,0.358 2.716,0.611 2.605,0.76 2.496,0.909 2.321,0.983 2.081,0.983 v -2.599 c 0,-0.15 0.064,-0.226 0.192,-0.226 H 2.574 V -2.35 H 0.662 v 0.508 h 0.291 c 0.134,0 0.202,0.076 0.202,0.226 V 0.983 C 0.889,0.983 0.706,0.898 0.609,0.729 0.512,0.561 0.464,0.318 0.464,0 Z" /></g><g
           transform="translate(73.6996,154.3277)"
           id="g106"><path
             id="path108"
             style="fill:#ffffff;fill-opacity:1;fill-rule:nonzero;stroke:none"
             d="M 0,0 H 0.51 C 0.709,0 0.846,0.042 0.921,0.127 0.998,0.212 1.037,0.353 1.037,0.551 1.037,0.752 0.986,0.892 0.885,0.969 0.786,1.046 0.609,1.085 0.356,1.085 H 0 Z m -1.419,-1.74 h 0.274 c 0.146,0 0.219,0.09 0.219,0.271 v 2.328 c 0,0.15 -0.071,0.226 -0.212,0.226 H -1.419 V 1.593 H 0.88 C 1.209,1.593 1.471,1.515 1.667,1.359 1.864,1.202 1.963,0.966 1.963,0.65 1.963,0.151 1.707,-0.139 1.196,-0.22 1.409,-0.282 1.561,-0.365 1.653,-0.469 1.744,-0.571 1.79,-0.738 1.79,-0.972 V -1.52 -1.537 c 0,-0.13 0.054,-0.195 0.163,-0.195 0.114,0 0.171,0.119 0.171,0.356 v 0.223 h 0.332 v -0.203 c 0,-0.648 -0.265,-0.972 -0.796,-0.972 -0.531,0 -0.796,0.318 -0.796,0.952 v 0.461 c 0,0.181 -0.032,0.294 -0.094,0.339 -0.061,0.045 -0.197,0.068 -0.409,0.068 L 0,-0.508 V -1.469 C 0,-1.571 0.015,-1.641 0.046,-1.681 0.076,-1.72 0.136,-1.74 0.224,-1.74 h 0.269 v -0.509 h -1.912 z" /></g><g
           transform="translate(77.4981,154)"
           id="g110"><path
             id="path112"
             style="fill:#ffffff;fill-opacity:1;fill-rule:nonzero;stroke:none"
             d="m 0,0 c 0,-0.972 0.239,-1.458 0.717,-1.458 0.476,0 0.714,0.486 0.714,1.458 0,0.972 -0.236,1.458 -0.709,1.458 C 0.241,1.458 0,0.972 0,0 m -1.071,0 c 0,0.593 0.158,1.074 0.474,1.443 C -0.281,1.814 0.157,2 0.717,2 1.278,2 1.716,1.816 2.03,1.449 2.345,1.082 2.502,0.599 2.502,0 2.502,-0.616 2.341,-1.104 2.018,-1.463 1.698,-1.821 1.268,-2 0.729,-2 0.176,-2 -0.263,-1.819 -0.587,-1.458 -0.909,-1.096 -1.071,-0.61 -1.071,0" /></g><g
           transform="translate(54.9643,120.8684)"
           id="g114"><path
             id="path116"
             style="fill:#ffffff;fill-opacity:1;fill-rule:nonzero;stroke:none"
             d="m 0,0 c -0.094,-0.628 -0.705,-0.868 -1.427,-0.868 -1.052,0 -1.537,0.714 -1.537,1.5 0,0.679 0.42,1.5 1.655,1.5 0.697,0 1.232,-0.34 1.268,-0.825 h -0.473 c -0.073,0.371 -0.42,0.501 -0.828,0.501 -0.672,0 -1.174,-0.375 -1.174,-1.176 0,-0.802 0.502,-1.177 1.174,-1.177 0.404,0 0.796,0.174 0.869,0.545 z" /></g><g
           transform="translate(57.2006,120.3237)"
           id="g118"><path
             id="path120"
             style="fill:#ffffff;fill-opacity:1;fill-rule:nonzero;stroke:none"
             d="M 0,0 C 0.714,0 1.207,0.474 1.207,1.176 1.207,1.879 0.714,2.353 0,2.353 -0.713,2.353 -1.207,1.879 -1.207,1.176 -1.207,0.474 -0.713,0 0,0 m 0,2.676 c 1.236,0 1.655,-0.821 1.655,-1.5 0,-0.679 -0.419,-1.5 -1.655,-1.5 -1.235,0 -1.655,0.821 -1.655,1.5 0,0.679 0.42,1.5 1.655,1.5" /></g><g
           transform="translate(60.0365,122.633)"
           id="g122"><path
             id="path124"
             style="fill:#ffffff;fill-opacity:1;fill-rule:nonzero;stroke:none"
             d="m 0,0 h -0.008 v -2.558 h -0.424 v 2.85 h 0.677 l 1.296,-2.503 1.297,2.503 h 0.677 v -2.85 H 3.09 V 0 H 3.083 L 1.766,-2.558 H 1.317 Z" /></g><g
           transform="translate(65.8652,121.6499)"
           id="g126"><path
             id="path128"
             style="fill:#ffffff;fill-opacity:1;fill-rule:nonzero;stroke:none"
             d="m 0,0 c 0.489,0 0.709,0.166 0.709,0.505 0,0.308 -0.183,0.446 -0.742,0.446 h -0.921 l 0,-0.951 z m -1.378,1.275 h 1.353 c 0.885,0 1.183,-0.256 1.183,-0.77 0,-0.497 -0.338,-0.829 -1.052,-0.829 h -1.06 v -1.251 h -0.424 z" /></g><g
           transform="translate(70.0709,122.925)"
           id="g130"><path
             id="path132"
             style="fill:#ffffff;fill-opacity:1;fill-rule:nonzero;stroke:none"
             d="m 0,0 h 0.424 v -1.701 c 0,-0.813 -0.571,-1.224 -1.37,-1.224 -0.799,0 -1.37,0.411 -1.37,1.224 V 0 h 0.424 v -1.721 c 0,-0.545 0.339,-0.88 0.946,-0.88 0.608,0 0.946,0.335 0.946,0.88 z" /></g><g
           transform="translate(72.2334,122.5777)"
           id="g134"><path
             id="path136"
             style="fill:#ffffff;fill-opacity:1;fill-rule:nonzero;stroke:none"
             d="m 0,0 h -1.248 v 0.347 h 2.92 V 0 H 0.424 V -2.503 H 0 Z" /></g><g
           transform="translate(74.396,122.925)"
           id="g138"><path
             id="path140"
             style="fill:#ffffff;fill-opacity:1;fill-rule:nonzero;stroke:none"
             d="M 0,0 H 2.202 V -0.324 H 0.424 v -0.9 H 2.088 V -1.547 H 0.424 V -2.526 H 2.251 V -2.85 L 0,-2.85 Z" /></g><g
           transform="translate(77.7899,121.6697)"
           id="g142"><path
             id="path144"
             style="fill:#ffffff;fill-opacity:1;fill-rule:nonzero;stroke:none"
             d="m 0,0 h 0.966 c 0.449,0 0.722,0.103 0.722,0.466 0,0.347 -0.196,0.466 -0.714,0.466 H 0 Z m 0,-1.595 h -0.424 v 2.85 h 1.448 c 0.909,0 1.113,-0.296 1.113,-0.754 0,-0.347 -0.261,-0.608 -0.673,-0.663 V -0.17 C 1.859,-0.217 1.965,-0.371 2.043,-0.853 2.092,-1.157 2.128,-1.409 2.21,-1.595 H 1.762 c -0.078,0.202 -0.123,0.6 -0.2,0.92 C 1.513,-0.47 1.374,-0.324 0.82,-0.324 H 0 Z" /></g><g
           transform="translate(52,118.925)"
           id="g146"><path
             id="path148"
             style="fill:#ffffff;fill-opacity:1;fill-rule:nonzero;stroke:none"
             d="m 0,0 h 2.168 v -0.324 h -1.75 v -0.9 H 2.055 V -1.547 H 0.418 V -2.526 H 2.216 V -2.85 L 0,-2.85 Z" /></g><g
           transform="translate(55.3976,118.6328)"
           id="g150"><path
             id="path152"
             style="fill:#ffffff;fill-opacity:1;fill-rule:nonzero;stroke:none"
             d="m 0,0 h -0.008 v -2.558 h -0.418 v 2.85 H 0.241 L 1.518,-2.21 2.794,0.292 H 3.46 v -2.85 H 3.043 V 0 H 3.035 L 1.738,-2.558 H 1.297 Z" /></g><g
           transform="translate(62.0074,118.925)"
           id="g154"><path
             id="path156"
             style="fill:#ffffff;fill-opacity:1;fill-rule:nonzero;stroke:none"
             d="m 0,0 h 0.417 v -1.701 c 0,-0.813 -0.561,-1.224 -1.348,-1.224 -0.787,0 -1.349,0.411 -1.349,1.224 V 0 h 0.418 v -1.721 c 0,-0.545 0.333,-0.88 0.931,-0.88 0.598,0 0.931,0.335 0.931,0.88 z" /></g><g
           transform="translate(63.3458,118.925)"
           id="g158"><path
             id="path160"
             style="fill:#ffffff;fill-opacity:1;fill-rule:nonzero;stroke:none"
             d="m 0,0 h 0.417 v -2.526 h 1.67 V -2.85 L 0,-2.85 Z" /></g><g
           transform="translate(68.0436,117.1407)"
           id="g162"><path
             id="path164"
             style="fill:#ffffff;fill-opacity:1;fill-rule:nonzero;stroke:none"
             d="M 0,0 -0.722,1.437 -1.449,0 Z m 0.161,-0.324 h -1.779 l -0.373,-0.742 h -0.466 l 1.49,2.85 h 0.489 l 1.49,-2.85 H 0.534 Z" /></g><g
           transform="translate(70.0848,118.5777)"
           id="g166"><path
             id="path168"
             style="fill:#ffffff;fill-opacity:1;fill-rule:nonzero;stroke:none"
             d="M 0,0 H -1.228 V 0.347 H 1.646 V 0 H 0.418 V -2.503 H 0 Z" /></g><path
           id="path170"
           style="fill:#ffffff;fill-opacity:1;fill-rule:nonzero;stroke:none"
           d="m 72.166,118.925 h 0.417 v -2.85 h -0.417 z" /><g
           transform="translate(74.8999,116.3237)"
           id="g172"><path
             id="path174"
             style="fill:#ffffff;fill-opacity:1;fill-rule:nonzero;stroke:none"
             d="M 0,0 C 0.702,0 1.188,0.473 1.188,1.176 1.188,1.879 0.702,2.353 0,2.353 -0.702,2.353 -1.188,1.879 -1.188,1.176 -1.188,0.473 -0.702,0 0,0 m 0,2.676 c 1.216,0 1.63,-0.821 1.63,-1.5 0,-0.679 -0.414,-1.5 -1.63,-1.5 -1.216,0 -1.63,0.821 -1.63,1.5 0,0.679 0.414,1.5 1.63,1.5" /></g><g
           transform="translate(79.5826,118.925)"
           id="g176"><path
             id="path178"
             style="fill:#ffffff;fill-opacity:1;fill-rule:nonzero;stroke:none"
             d="m 0,0 h 0.417 v -2.85 h -0.57 l -1.774,2.431 H -1.935 V -2.85 H -2.352 V 0 h 0.57 l 1.774,-2.432 H 0 Z" /></g><path
           id="path180"
           style="fill:#ffffff;fill-opacity:1;fill-rule:nonzero;stroke:none"
           d="m 200,124 h -20 v 28 h 20 z" /><g
           transform="translate(182.2475,149.4767)"
           id="g182"><path
             id="path184"
             style="fill:#262626;fill-opacity:1;fill-rule:nonzero;stroke:none"
             d="m 0,0 h 0.668 c 0.383,0 0.507,0.13 0.507,0.367 0,0.303 -0.219,0.359 -0.623,0.359 H 0 Z m -0.84,1.331 h 1.764 c 0.695,0 1.091,-0.272 1.091,-0.817 0,-0.397 -0.3,-0.674 -0.732,-0.756 V -0.251 C 1.527,-0.268 1.755,-0.329 1.851,-0.523 1.991,-0.808 2.007,-1.465 2.127,-1.79 H 1.235 c -0.092,0.303 -0.08,0.753 -0.159,0.969 -0.053,0.142 -0.18,0.216 -0.516,0.216 H 0 V -1.79 h -0.84 z" /></g><g
           transform="translate(184.964,150.808)"
           id="g186"><path
             id="path188"
             style="fill:#262626;fill-opacity:1;fill-rule:nonzero;stroke:none"
             d="M 0,0 H 2.479 V -0.64 H 0.84 v -0.579 h 1.551 v -0.64 H 0.84 v -0.622 h 1.675 v -0.64 H 0 Z" /></g><g
           transform="translate(189.0356,150.1683)"
           id="g190"><path
             id="path192"
             style="fill:#262626;fill-opacity:1;fill-rule:nonzero;stroke:none"
             d="M 0,0 H -1.111 V 0.64 H 1.951 V 0 H 0.84 V -2.481 H 0 Z" /></g><g
           transform="translate(192.3272,149.4767)"
           id="g194"><path
             id="path196"
             style="fill:#262626;fill-opacity:1;fill-rule:nonzero;stroke:none"
             d="m 0,0 h 0.668 c 0.383,0 0.507,0.13 0.507,0.367 0,0.303 -0.22,0.359 -0.623,0.359 H 0 Z m -0.84,1.331 h 1.763 c 0.696,0 1.092,-0.272 1.092,-0.817 0,-0.397 -0.3,-0.674 -0.732,-0.756 V -0.251 C 1.527,-0.268 1.755,-0.329 1.851,-0.523 1.991,-0.808 2.007,-1.465 2.127,-1.79 H 1.235 c -0.091,0.303 -0.08,0.753 -0.159,0.969 -0.053,0.142 -0.18,0.216 -0.516,0.216 H 0 V -1.79 h -0.84 z" /></g><g
           transform="translate(196.571,148.2448)"
           id="g198"><path
             id="path200"
             style="fill:#262626;fill-opacity:1;fill-rule:nonzero;stroke:none"
             d="M 0,0 C 0.64,0 0.851,0.454 0.851,1.003 0.851,1.552 0.64,2.006 0,2.006 -0.64,2.006 -0.852,1.552 -0.852,1.003 -0.852,0.454 -0.64,0 0,0 m 0,2.645 c 1.207,0 1.715,-0.7 1.715,-1.642 C 1.715,0.06 1.207,-0.64 0,-0.64 c -1.207,0 -1.715,0.7 -1.715,1.643 0,0.942 0.508,1.642 1.715,1.642" /></g><g
           transform="translate(189.1987,139.0149)"
           id="g202"><path
             id="path204"
             style="fill:#262626;fill-opacity:1;fill-rule:nonzero;stroke:none"
             d="M 0,0 C 0.943,0.279 1.542,0.833 1.297,1.831 1.057,2.81 0.372,2.826 -0.587,2.541 L -1.033,2.409 -0.411,-0.122 Z M -6.576,4.015 0.743,6.186 C 3.399,6.974 5.172,6.568 5.789,4.055 6.166,2.522 5.852,1.18 4.119,0.151 L 4.128,0.114 C 5.355,0.359 6.147,-0.02 6.636,-0.966 7.192,-2.029 7.62,-3.924 8.681,-5.77 l -4.8,-1.424 C 3.345,-6.282 2.778,-4.647 2.325,-3.552 2.059,-2.918 1.687,-2.751 0.898,-2.984 L 0.333,-3.152 1.499,-7.9 l -4.8,-1.423 z" /></g><g
           transform="translate(187.4368,127.4591)"
           id="g206"><path
             id="path208"
             style="fill:#262626;fill-opacity:1;fill-rule:nonzero;stroke:none"
             d="M 0,0 -0.356,-1.176 H 0.333 L 0.011,0 Z" /></g><path
           id="path210"
           style="fill:#262626;fill-opacity:1;fill-rule:nonzero;stroke:none"
           d="m 199.333,146.973 h -18.667 v 4.387 h 18.667 z m 0,-17.862 h -18.667 v 17.141 h 18.667 z m -0.193,-4.09 h -3.151 v 3.121 h 3.101 v -0.813 h -1.554 v -0.332 h 1.435 v -0.813 h -1.435 v -0.35 h 1.604 z m -3.731,0 h -1.367 v 2.23 h -0.011 l -0.576,-2.23 h -1.48 l -0.576,2.23 h -0.012 v -2.23 h -1.366 v 3.121 h 2.242 l 0.446,-1.859 h 0.012 l 0.446,1.859 h 2.242 z m -7.243,0 -0.159,0.502 h -1.169 l -0.164,-0.502 h -1.547 l 1.304,3.121 h 2.096 l 1.31,-3.121 z m -3.172,0.125 c -0.632,-0.125 -1.367,-0.207 -2.033,-0.207 -1.469,0 -2.186,0.687 -2.186,1.643 0,0.955 0.717,1.642 2.231,1.642 1.254,0 1.909,-0.315 1.926,-1.046 h -1.514 c -0.005,0.099 -0.056,0.164 -0.124,0.203 -0.068,0.039 -0.164,0.056 -0.265,0.056 -0.243,0 -0.401,-0.095 -0.48,-0.22 -0.08,-0.125 -0.102,-0.432 -0.102,-0.696 0,-0.303 0.034,-0.51 0.107,-0.61 0.096,-0.129 0.254,-0.185 0.463,-0.185 0.153,0 0.3,0.017 0.43,0.064 v 0.377 h -0.554 v 0.613 h 2.101 z M 180,152 v -5.027 -0.715 -17.255 -0.613 -4.39 h 20 v 4.39 0.613 17.255 0.715 5.027 z" /><g
           transform="translate(89.8972,104)"
           id="g212"><path
             id="path214"
             style="fill:#2c8bbf;fill-opacity:1;fill-rule:nonzero;stroke:none"
             d="m 0,0 1.926,-8.491 -4.101,-6.621 -6.534,4.186 -1.926,8.491 z" /></g><g
           transform="translate(72,90.0104)"
           id="g216"><path
             id="path218"
             style="fill:#2c8bbf;fill-opacity:1;fill-rule:nonzero;stroke:none"
             d="m 0,0 8.451,1.935 6.59,-4.12 -4.166,-6.565 -8.451,-1.935 z" /></g><g
           transform="translate(85.9687,72)"
           id="g220"><path
             id="path222"
             style="fill:#2c8bbf;fill-opacity:1;fill-rule:nonzero;stroke:none"
             d="m 0,0 -1.926,8.491 4.101,6.621 6.534,-4.186 1.926,-8.491 z" /></g><g
           transform="translate(104,86.0203)"
           id="g224"><path
             id="path226"
             style="fill:#2c8bbf;fill-opacity:1;fill-rule:nonzero;stroke:none"
             d="m 0,0 -8.451,-1.935 -6.59,4.12 4.166,6.565 8.451,1.935 z" /></g><g
           transform="translate(89.0618,102.5814)"
           id="g228"><path
             id="path230"
             style="fill:#9bc2dd;fill-opacity:1;fill-rule:nonzero;stroke:none"
             d="m 0,0 1.475,-6.502 -3.278,-5.139 -5.157,3.208 -1.474,6.502 z" /></g><g
           transform="translate(73.412,89.1709)"
           id="g232"><path
             id="path234"
             style="fill:#9bc2dd;fill-opacity:1;fill-rule:nonzero;stroke:none"
             d="M 0,0 6.471,1.482 11.586,-1.812 8.393,-6.993 1.922,-8.474 Z" /></g><g
           transform="translate(86.8042,73.4186)"
           id="g236"><path
             id="path238"
             style="fill:#9bc2dd;fill-opacity:1;fill-rule:nonzero;stroke:none"
             d="M 0,0 -1.475,6.502 1.803,11.641 6.96,8.433 8.434,1.931 Z" /></g><g
           transform="translate(102.588,86.8598)"
           id="g240"><path
             id="path242"
             style="fill:#9bc2dd;fill-opacity:1;fill-rule:nonzero;stroke:none"
             d="m 0,0 -6.471,-1.482 -5.115,3.294 3.193,5.181 6.471,1.481 z" /></g></g></g></g></svg>