<?xml version="1.0" encoding="UTF-8" standalone="no"?>
<svg
   xmlns:dc="http://purl.org/dc/elements/1.1/"
   xmlns:cc="http://creativecommons.org/ns#"
   xmlns:rdf="http://www.w3.org/1999/02/22-rdf-syntax-ns#"
   xmlns:svg="http://www.w3.org/2000/svg"
   xmlns="http://www.w3.org/2000/svg"
   viewBox="0 0 341.33334 341.33334"
   height="256"
   width="256"
   xml:space="preserve"
   id="svg2"
   version="1.1"><metadata
     id="metadata8"><rdf:RDF><cc:Work
         rdf:about=""><dc:format>image/svg+xml</dc:format><dc:type
           rdf:resource="http://purl.org/dc/dcmitype/StillImage" /></cc:Work></rdf:RDF></metadata><defs
     id="defs6"><clipPath
       id="clipPath18"
       clipPathUnits="userSpaceOnUse"><path
         id="path16"
         d="M 0,256 H 256 V 0 H 0 Z" /></clipPath><clipPath
       id="clipPath26"
       clipPathUnits="userSpaceOnUse"><path
         id="path24"
         d="M 4,252 H 252 V 4 H 4 Z" /></clipPath></defs><g
     transform="matrix(1.3333333,0,0,-1.3333333,0,341.33333)"
     id="g10"><g
       id="g12"><g
         clip-path="url(#clipPath18)"
         id="g14"><g
           id="g20"><g
             id="g22" /><g
             id="g34"><g
               style="opacity:0.5"
               id="g32"
               clip-path="url(#clipPath26)"><g
                 id="g30"
                 transform="translate(128,108)"><path
                   id="path28"
                   style="fill:#ffffff;fill-opacity:1;fill-rule:nonzero;stroke:none"
                   d="m 0,0 c -11.046,0 -20,8.954 -20,20 0,11.046 8.954,20 20,20 C 11.046,40 20,31.046 20,20 20,8.954 11.046,0 0,0 M 87.676,107.682 C 64.254,131.102 33.116,144 0,144 -33.124,144 -64.264,131.102 -87.683,107.681 -111.103,84.262 -124,53.122 -124,20 c 0,-33.122 12.897,-64.262 36.317,-87.681 C -64.264,-91.102 -33.124,-104 0,-104 c 33.116,0 64.254,12.898 87.676,36.318 C 111.1,-44.26 124,-13.12 124,20 c 0,33.12 -12.9,64.26 -36.324,87.682" /></g></g></g></g><g
           transform="translate(128,84.4951)"
           id="g36"><path
             id="path38"
             style="fill:#bfbfbf;fill-opacity:1;fill-rule:nonzero;stroke:none"
             d="M 0,0 C -23.993,0 -43.505,19.517 -43.505,43.505 -43.505,67.493 -23.993,87.01 0,87.01 23.988,87.01 43.5,67.493 43.5,43.505 43.5,19.517 23.988,0 0,0 m 0,159.505 c -64.071,0 -116,-51.934 -116,-116 0,-64.066 51.929,-116 116,-116 64.051,0 116,51.934 116,116 0,64.066 -51.949,116 -116,116" /></g><g
           transform="translate(44,128)"
           id="g40"><path
             id="path42"
             style="fill:#ffff00;fill-opacity:1;fill-rule:nonzero;stroke:none"
             d="m 0,0 h 16 c 1.105,0 2,-0.895 2,-2 v -12 c 0,-1.105 -0.895,-2 -2,-2 H 0 c -1.105,0 -2,0.895 -2,2 v 12 c 0,1.105 0.895,2 2,2" /></g><g
           transform="translate(42,142.0002)"
           id="g44"><path
             id="path46"
             style="fill:#ed1c24;fill-opacity:1;fill-rule:nonzero;stroke:none"
             d="M 0,0 C 0,5.523 4.477,10 10,10 15.523,10 20,5.523 20,0 20,-5.523 15.523,-10 10,-10 4.477,-10 0,-5.523 0,0" /></g><g
           transform="translate(51.1263,92.4589)"
           id="g48"><path
             id="path50"
             style="fill:#0000ff;fill-opacity:1;fill-rule:nonzero;stroke:none"
             d="m 0,0 -8.99,14.164 c -0.388,0.612 0.097,1.377 0.874,1.377 H 9.863 c 0.777,0 1.262,-0.765 0.874,-1.377 L 1.747,0 C 1.359,-0.612 0.388,-0.612 0,0" /></g><path
           id="path52"
           style="fill:#191919;fill-opacity:1;fill-rule:nonzero;stroke:none"
           d="M 66.072,86.706 H 37.928 v 69.443 H 66.072 Z M 36,84.77 h 32 v 88 H 36 Z" /><g
           transform="translate(48.9074,161.1003)"
           id="g54"><path
             id="path56"
             style="fill:#bfbfbf;fill-opacity:1;fill-rule:nonzero;stroke:none"
             d="m 0,0 c 0,-0.238 -0.006,-0.438 -0.018,-0.601 -0.051,-0.552 -0.069,-0.997 -0.057,-1.335 l 0.019,-1.335 c -1.598,0.063 -4.486,0.094 -8.666,0.094 h -0.786 c -0.55,0 -0.825,0.054 -0.825,0.16 0,0.106 0.088,0.16 0.263,0.16 0.624,0.012 1.023,0.1 1.198,0.262 0.112,0.1 0.169,0.401 0.169,0.901 V 8.48 c 0,0.426 -0.038,0.689 -0.115,0.789 -0.151,0.188 -0.385,0.276 -0.701,0.263 h -0.474 c -0.139,0 -0.209,0.047 -0.209,0.141 0,0.094 0.088,0.141 0.263,0.141 h 0.3 4.754 0.205 c 0.125,0 0.188,-0.051 0.188,-0.151 0,-0.112 -0.162,-0.169 -0.487,-0.169 -0.461,0 -0.733,-0.057 -0.814,-0.169 C -5.875,9.213 -5.915,8.717 -5.915,7.84 V 3.365 c 0,-0.915 0.025,-2.963 0.075,-6.147 0.237,-0.012 0.505,-0.019 0.805,-0.019 1.311,0 2.215,0.05 2.714,0.15 0.786,0.163 1.322,0.564 1.61,1.204 0.15,0.326 0.287,0.846 0.412,1.56 0.037,0.201 0.093,0.301 0.168,0.301 C -0.043,0.414 0,0.276 0,0" /></g><g
           transform="translate(55.1408,158.0641)"
           id="g58"><path
             id="path60"
             style="fill:#bfbfbf;fill-opacity:1;fill-rule:nonzero;stroke:none"
             d="m 0,0 c 0,-0.106 -0.081,-0.16 -0.243,-0.16 -0.088,0 -0.168,0.007 -0.244,0.019 -0.748,0.038 -1.391,0.057 -1.927,0.057 -0.562,0 -1.386,-0.019 -2.471,-0.057 -0.362,-0.012 -0.631,-0.019 -0.805,-0.019 -0.188,0 -0.281,0.057 -0.281,0.17 0,0.062 0.035,0.1 0.103,0.112 0.069,0.013 0.309,0.026 0.721,0.038 0.387,0.076 0.611,0.191 0.674,0.348 0.062,0.157 0.094,0.661 0.094,1.513 v 9.043 0.696 c -0.013,0.226 -0.02,0.332 -0.02,0.319 0,0.313 -0.312,0.47 -0.936,0.47 -0.349,0 -0.524,0.044 -0.524,0.132 0,0.087 0.026,0.138 0.075,0.15 0.05,0.013 0.213,0.019 0.487,0.019 h 0.674 1.479 0.954 0.852 0.777 0.187 c 0.162,0 0.243,-0.047 0.243,-0.142 0,-0.071 -0.028,-0.116 -0.084,-0.133 C -0.271,12.557 -0.462,12.542 -0.786,12.53 -1.173,12.505 -1.41,12.424 -1.497,12.286 L -1.553,11.93 V 1.324 c 0,-0.538 0.059,-0.857 0.177,-0.958 0.119,-0.1 0.521,-0.169 1.208,-0.206 C -0.056,0.147 0,0.093 0,0" /></g><g
           transform="translate(62.7215,167.8313)"
           id="g62"><path
             id="path64"
             style="fill:#bfbfbf;fill-opacity:1;fill-rule:nonzero;stroke:none"
             d="m 0,0 c 0,1.817 -0.551,2.726 -1.652,2.726 -0.392,0 -0.655,-0.02 -0.789,-0.057 -0.27,-0.087 -0.404,-0.282 -0.404,-0.583 v -4.963 c 1.089,0 1.836,0.194 2.239,0.583 C -0.202,-1.906 0,-1.141 0,0 m 0.356,-6.43 c 0,1.768 -0.5,2.795 -1.499,3.083 -0.395,0.113 -0.962,0.169 -1.702,0.169 v -1.09 c 0,-0.313 -0.013,-0.759 -0.038,-1.335 -0.012,-0.288 -0.018,-0.827 -0.018,-1.617 0,-1.353 0.037,-2.074 0.112,-2.162 0.1,-0.137 0.381,-0.206 0.842,-0.206 1.535,0 2.303,1.052 2.303,3.158 M 3.351,-6.514 C 3.351,-7.293 3.114,-7.963 2.639,-8.522 2.165,-9.081 1.51,-9.455 0.674,-9.644 0.012,-9.795 -0.612,-9.883 -1.198,-9.908 c -0.587,-0.025 -2.309,-0.037 -5.166,-0.037 -0.399,0 -0.636,0.006 -0.712,0.018 -0.074,0.013 -0.112,0.057 -0.112,0.132 0,0.113 0.203,0.169 0.609,0.169 0.405,0 0.658,0.06 0.758,0.179 0.099,0.12 0.15,0.411 0.15,0.876 v 10.77 c 0,0.364 -0.291,0.552 -0.872,0.564 -0.442,0.012 -0.664,0.065 -0.664,0.16 0,0.106 0.137,0.16 0.412,0.16 h 0.768 4.492 c 2.883,0 4.324,-0.993 4.324,-2.979 0,-1.647 -1.073,-2.665 -3.219,-3.054 l -0.038,-0.076 c 1.26,-0.264 2.134,-0.597 2.62,-0.999 0.799,-0.667 1.199,-1.496 1.199,-2.489" /></g><g
           transform="translate(92,59.9053)"
           id="g66"><path
             id="path68"
             style="fill:#191919;fill-opacity:1;fill-rule:nonzero;stroke:none"
             d="m 0,0 h 3.505 v -12.726 h 8.376 v -2.79 l -11.881,0 z" /></g><path
           id="path70"
           style="fill:#191919;fill-opacity:1;fill-rule:nonzero;stroke:none"
           d="m 104.669,55.863 h 3.289 V 44.389 h -3.289 z m 3.288,1.369 h -3.289 V 60 h 3.289 z" /><g
           transform="translate(117.6264,47.4947)"
           id="g72"><path
             id="path74"
             style="fill:#191919;fill-opacity:1;fill-rule:nonzero;stroke:none"
             d="M 0,0 C 0.467,0.625 0.7,1.446 0.7,2.463 0.7,3.277 0.585,3.951 0.356,4.484 -0.081,5.495 -0.884,6 -2.054,6 -3.239,6 -4.054,5.505 -4.498,4.516 -4.727,3.989 -4.842,3.309 -4.842,2.474 c 0,-0.983 0.237,-1.797 0.711,-2.442 0.474,-0.646 1.197,-0.969 2.169,-0.969 0.841,0 1.495,0.312 1.962,0.937 m 2.71,6.989 c 0.929,-1.087 1.392,-2.491 1.392,-4.21 0,-1.783 -0.458,-3.26 -1.373,-4.432 -0.914,-1.172 -2.191,-1.758 -3.831,-1.758 -1.03,0 -1.857,0.19 -2.482,0.569 -0.374,0.224 -0.778,0.617 -1.213,1.179 v -1.442 h -3.197 v 15.494 h 3.243 V 6.874 c 0.412,0.533 0.867,0.94 1.363,1.221 0.588,0.351 1.336,0.526 2.244,0.526 1.642,0 2.927,-0.544 3.854,-1.632" /></g><g
           transform="translate(129.5211,56.1316)"
           id="g76"><path
             id="path78"
             style="fill:#191919;fill-opacity:1;fill-rule:nonzero;stroke:none"
             d="m 0,0 c 0.042,-0.004 0.135,-0.009 0.279,-0.016 v -3.073 c -0.205,0.021 -0.387,0.035 -0.546,0.042 -0.16,0.007 -0.289,0.01 -0.387,0.01 -1.305,0 -2.181,-0.393 -2.629,-1.179 -0.25,-0.442 -0.376,-1.123 -0.376,-2.042 v -5.484 h -3.266 v 11.474 h 3.096 v -2 c 0.5,0.764 0.937,1.287 1.308,1.568 0.607,0.47 1.396,0.705 2.367,0.705 C -0.093,0.005 -0.042,0.004 0,0" /></g><g
           transform="translate(133.578,53.0386)"
           id="g80"><path
             id="path82"
             style="fill:#191919;fill-opacity:1;fill-rule:nonzero;stroke:none"
             d="M 0,0 C -0.457,-0.437 -0.745,-1.028 -0.863,-1.775 H 4.725 C 4.666,-0.979 4.377,-0.375 3.862,0.039 3.344,0.449 2.703,0.656 1.938,0.656 1.104,0.656 0.459,0.439 0,0 M 4.852,2.593 C 5.718,2.233 6.433,1.667 6.997,0.895 7.503,0.214 7.833,-0.577 7.985,-1.477 8.072,-2.004 8.106,-2.763 8.091,-3.754 h -9.034 c 0.052,-1.151 0.484,-1.958 1.298,-2.421 0.495,-0.288 1.09,-0.432 1.788,-0.432 0.74,0 1.339,0.175 1.8,0.526 0.252,0.19 0.476,0.453 0.668,0.79 H 7.922 C 7.835,-5.972 7.435,-6.663 6.72,-7.365 5.608,-8.481 4.053,-9.039 2.052,-9.039 c -1.65,0 -3.107,0.471 -4.368,1.411 -1.261,0.942 -1.893,2.474 -1.893,4.595 0,1.987 0.571,3.51 1.709,4.572 1.138,1.061 2.618,1.591 4.435,1.591 1.081,0 2.052,-0.179 2.917,-0.537" /></g><g
           transform="translate(140.6828,53.621)"
           id="g84"><path
             id="path86"
             style="fill:#191919;fill-opacity:1;fill-rule:nonzero;stroke:none"
             d="m 0,0 v 2.137 h 1.73 v 3.2 h 3.209 v -3.2 H 6.953 V 0 H 4.939 v -6.063 c 0,-0.47 0.064,-0.763 0.193,-0.879 0.129,-0.116 0.524,-0.174 1.184,-0.174 0.098,0 0.205,0.002 0.315,0.005 0.11,0.004 0.216,0.009 0.322,0.016 V -9.337 L 5.417,-9.389 C 3.884,-9.439 2.837,-9.193 2.276,-8.653 1.912,-8.309 1.73,-7.779 1.73,-7.063 V 0 Z" /></g><g
           transform="translate(155.2584,56.1316)"
           id="g88"><path
             id="path90"
             style="fill:#191919;fill-opacity:1;fill-rule:nonzero;stroke:none"
             d="m 0,0 c 0.042,-0.004 0.135,-0.009 0.279,-0.016 v -3.073 c -0.205,0.021 -0.387,0.035 -0.546,0.042 -0.16,0.007 -0.289,0.01 -0.387,0.01 -1.305,0 -2.181,-0.393 -2.629,-1.179 -0.25,-0.442 -0.376,-1.123 -0.376,-2.042 v -5.484 h -3.266 v 11.474 h 3.096 v -2 c 0.5,0.764 0.937,1.287 1.308,1.568 0.607,0.47 1.396,0.705 2.367,0.705 C -0.093,0.005 -0.042,0.004 0,0" /></g><g
           transform="translate(163.835,47.4509)"
           id="g92"><path
             id="path94"
             style="fill:#191919;fill-opacity:1;fill-rule:nonzero;stroke:none"
             d="m 0,0 c 0.508,0.623 0.762,1.511 0.762,2.66 0,1.149 -0.254,2.033 -0.762,2.654 -0.508,0.619 -1.237,0.93 -2.185,0.93 -0.948,0 -1.678,-0.311 -2.191,-0.93 -0.512,-0.621 -0.768,-1.505 -0.768,-2.654 0,-1.149 0.256,-2.037 0.768,-2.66 0.513,-0.623 1.243,-0.935 2.191,-0.935 0.948,0 1.677,0.312 2.185,0.935 m 2.595,-1.658 c -1.047,-1.196 -2.637,-1.793 -4.769,-1.793 -2.131,0 -3.721,0.597 -4.768,1.793 -1.047,1.197 -1.57,2.635 -1.57,4.318 0,1.654 0.523,3.089 1.57,4.301 1.047,1.213 2.637,1.82 4.768,1.82 2.132,0 3.722,-0.607 4.769,-1.82 1.047,-1.212 1.57,-2.647 1.57,-4.301 0,-1.683 -0.523,-3.121 -1.57,-4.318" /></g><g
           transform="translate(194.697,156.7558)"
           id="g96"><path
             id="path98"
             style="fill:#191919;fill-opacity:1;fill-rule:nonzero;stroke:none"
             d="m 0,0 h 0.801 c 0.461,0 0.61,0.167 0.61,0.472 0,0.389 -0.264,0.462 -0.749,0.462 L 0,0.934 Z m -1.007,1.712 h 2.115 c 0.835,0 1.31,-0.35 1.31,-1.051 0,-0.511 -0.36,-0.867 -0.878,-0.972 v -0.011 c 0.293,-0.023 0.566,-0.1 0.681,-0.35 0.168,-0.367 0.187,-1.212 0.331,-1.629 h -1.07 c -0.11,0.389 -0.095,0.967 -0.191,1.245 -0.063,0.184 -0.216,0.278 -0.619,0.278 H 0 v -1.523 h -1.007 z" /></g><g
           transform="translate(197.9568,158.4675)"
           id="g100"><path
             id="path102"
             style="fill:#191919;fill-opacity:1;fill-rule:nonzero;stroke:none"
             d="M 0,0 H 2.974 V -0.822 H 1.007 V -1.567 H 2.869 V -2.39 H 1.007 v -0.8 H 3.018 V -4.013 H 0 Z" /></g><g
           transform="translate(202.8427,157.645)"
           id="g104"><path
             id="path106"
             style="fill:#191919;fill-opacity:1;fill-rule:nonzero;stroke:none"
             d="M 0,0 H -1.334 V 0.822 H 2.341 V 0 H 1.007 V -3.19 H 0 Z" /></g><g
           transform="translate(206.7927,156.7558)"
           id="g108"><path
             id="path110"
             style="fill:#191919;fill-opacity:1;fill-rule:nonzero;stroke:none"
             d="m 0,0 h 0.801 c 0.461,0 0.61,0.167 0.61,0.472 0,0.389 -0.265,0.462 -0.749,0.462 L 0,0.934 Z m -1.007,1.712 h 2.115 c 0.835,0 1.31,-0.35 1.31,-1.051 0,-0.511 -0.36,-0.867 -0.878,-0.972 v -0.011 c 0.293,-0.023 0.566,-0.1 0.681,-0.35 0.168,-0.367 0.187,-1.212 0.331,-1.629 h -1.07 c -0.11,0.389 -0.096,0.967 -0.191,1.245 -0.063,0.184 -0.216,0.278 -0.619,0.278 H 0 v -1.523 h -1.007 z" /></g><g
           transform="translate(211.8853,155.1719)"
           id="g112"><path
             id="path114"
             style="fill:#191919;fill-opacity:1;fill-rule:nonzero;stroke:none"
             d="m 0,0 c 0.768,0 1.021,0.584 1.021,1.289 0,0.706 -0.253,1.29 -1.021,1.29 -0.768,0 -1.022,-0.584 -1.022,-1.29 C -1.022,0.584 -0.768,0 0,0 m 0,3.401 c 1.449,0 2.058,-0.9 2.058,-2.112 0,-1.211 -0.609,-2.112 -2.058,-2.112 -1.449,0 -2.058,0.901 -2.058,2.112 0,1.212 0.609,2.112 2.058,2.112" /></g><g
           transform="translate(203.0385,143.3049)"
           id="g116"><path
             id="path118"
             style="fill:#191919;fill-opacity:1;fill-rule:nonzero;stroke:none"
             d="M 0,0 C 1.131,0.359 1.851,1.071 1.557,2.355 1.268,3.613 0.447,3.633 -0.705,3.267 L -1.24,3.097 -0.494,-0.157 Z M -7.892,5.162 0.891,7.953 C 4.079,8.966 6.207,8.444 6.947,5.214 7.399,3.243 7.022,1.518 4.943,0.194 l 0.01,-0.047 c 1.473,0.315 2.423,-0.173 3.011,-1.389 0.666,-1.367 1.18,-3.804 2.453,-6.177 l -5.759,-1.83 c -0.644,1.172 -1.325,3.275 -1.868,4.682 -0.319,0.816 -0.766,1.03 -1.712,0.73 l -0.679,-0.216 1.4,-6.104 -5.76,-1.83 z" /></g><g
           transform="translate(200.9242,128.4474)"
           id="g120"><path
             id="path122"
             style="fill:#191919;fill-opacity:1;fill-rule:nonzero;stroke:none"
             d="M 0,0 -0.427,-1.512 H 0.4 L 0.013,0 Z" /></g><path
           id="path124"
           style="fill:#191919;fill-opacity:1;fill-rule:nonzero;stroke:none"
           d="m 215.2,153.536 h -22.4 v 5.64 h 22.4 z m 0,-22.965 h -22.4 v 22.038 h 22.4 z m -0.231,-5.258 h -3.783 v 4.012 h 3.721 v -1.045 h -1.864 v -0.427 h 1.722 v -1.045 h -1.722 v -0.45 h 1.926 z m -4.478,0 h -1.64 v 2.867 h -0.014 l -0.691,-2.867 h -1.776 l -0.691,2.867 h -0.014 v -2.867 h -1.64 v 4.012 h 2.69 l 0.536,-2.389 h 0.014 l 0.535,2.389 h 2.691 z m -8.692,0 -0.19,0.645 h -1.403 l -0.197,-0.645 h -1.857 l 1.566,4.012 h 2.514 l 1.573,-4.012 z m -3.806,0.161 c -0.759,-0.161 -1.64,-0.267 -2.44,-0.267 -1.762,0 -2.623,0.884 -2.623,2.112 0,1.228 0.861,2.112 2.677,2.112 1.505,0 2.291,-0.406 2.312,-1.345 h -1.817 c -0.007,0.128 -0.068,0.211 -0.149,0.261 -0.081,0.05 -0.197,0.072 -0.319,0.072 -0.291,0 -0.481,-0.122 -0.576,-0.283 -0.095,-0.161 -0.122,-0.556 -0.122,-0.895 0,-0.389 0.041,-0.656 0.129,-0.783 0.115,-0.167 0.305,-0.239 0.556,-0.239 0.183,0 0.359,0.022 0.515,0.083 v 0.484 h -0.664 v 0.788 h 2.521 z M 192,160 v -6.464 -0.919 -22.185 -0.787 V 124 h 24 v 5.645 0.787 22.185 0.919 6.464 z" /><g
           transform="translate(213.4912,96.8723)"
           id="g126"><path
             id="path128"
             style="fill:#191919;fill-opacity:1;fill-rule:nonzero;stroke:none"
             d="m 0,0 -6.572,0.007 c -0.951,0 -1.722,0.752 -1.722,1.678 v 9.748 c 0,0.926 0.771,1.677 1.722,1.677 l 4.113,0.005 c 0.494,0 0.895,0.39 0.895,0.872 l 0.012,3.897 c 0,0.202 0.167,0.365 0.375,0.365 h 2.411 c 0.207,0 0.375,-0.163 0.375,-0.365 L 1.634,0.364 c 0,-0.202 -0.168,-0.365 -0.375,-0.365 L 0,0 -0.031,-0.87 h 1.645 c 0.494,0 0.895,0.39 0.895,0.872 v 18.254 c 0,0.481 -0.401,0.872 -0.895,0.872 h -3.163 c -0.494,0 -0.895,-0.391 -0.895,-0.872 l 0.005,-3.907 c 0,-0.202 -0.168,-0.365 -0.376,-0.365 l -3.757,0.006 c -1.45,0 -2.625,-1.145 -2.625,-2.557 V 1.685 c 0,-1.412 1.175,-2.557 2.625,-2.557 l 6.541,0.002 z" /></g><g
           transform="translate(211.0471,100.4604)"
           id="g130"><path
             id="path132"
             style="fill:#191919;fill-opacity:1;fill-rule:nonzero;stroke:none"
             d="m 0,0 v 6.306 c 0,0.529 -0.44,0.957 -0.982,0.957 -0.543,0 -0.982,-0.428 -0.982,-0.957 v -6.807 c 0,-0.528 0.439,-0.957 0.982,-0.957 C -0.44,-1.458 0,-1.03 0,-0.501 V 0 l 0.893,-0.03 v -0.471 c 0,-1.009 -0.84,-1.827 -1.875,-1.827 -1.036,0 -1.875,0.818 -1.875,1.827 v 6.807 c 0,1.009 0.839,1.827 1.875,1.827 1.035,0 1.875,-0.818 1.875,-1.827 V -0.03 Z" /></g><g
           transform="translate(200.5309,105.122)"
           id="g134"><path
             id="path136"
             style="fill:#191919;fill-opacity:1;fill-rule:nonzero;stroke:none"
             d="M 0,0 H 1.138 C 1.345,0 1.513,0.164 1.513,0.365 L 1.508,3.183 c 0,0.927 -0.771,1.678 -1.722,1.678 h -5.692 c -0.951,0 -1.722,-0.751 -1.722,-1.678 v -9.747 c 0,-0.927 0.771,-1.678 1.722,-1.678 h 5.692 c 0.951,0 1.722,0.751 1.722,1.678 l 0.005,2.679 c 0,0.202 -0.168,0.365 -0.375,0.365 H -1.01 c -0.207,0 -0.375,-0.163 -0.375,-0.365 l 0.013,-1.278 c 0,-1.009 -0.653,-1.827 -1.688,-1.827 -1.035,0 -1.687,0.818 -1.687,1.827 v 6.808 c 0,1.008 0.652,1.826 1.687,1.826 1.036,0 1.688,-0.818 1.688,-1.826 L -1.384,0.365 C -1.384,0.164 -1.217,0 -1.01,0 H 0 l -0.031,-0.878 h -1.351 c -0.494,0 -0.894,0.39 -0.894,0.871 l 0.011,1.652 c 0,0.528 -0.252,0.956 -0.795,0.956 -0.542,10e-4 -0.795,-0.428 -0.795,-0.956 v -6.808 c 0,-0.528 0.253,-0.957 0.795,-0.957 0.543,0 0.795,0.429 0.795,0.957 l -0.011,1.65 c 0,0.481 0.4,0.872 0.894,0.872 h 2.9 c 0.494,0 0.895,-0.391 0.895,-0.872 L 2.411,-6.564 c 0,-1.413 -1.175,-2.558 -2.625,-2.558 h -5.692 c -1.45,0 -2.625,1.145 -2.625,2.558 v 9.747 c 0,1.413 1.175,2.558 2.625,2.558 h 5.692 c 1.45,0 2.625,-1.145 2.625,-2.558 l 0.002,-3.19 c 0,-0.481 -0.401,-0.871 -0.895,-0.871 h -1.549 z" /></g><g
           transform="translate(188,92)"
           id="g138"><path
             id="path140"
             style="fill:#231f20;fill-opacity:1;fill-rule:nonzero;stroke:none"
             d="m 0,0 -0.317,-0.242 -15.366,-11.739 -0.317,-0.242 0.121,-0.392 5.869,-18.993 0.121,-0.392 h 0.392 18.994 0.392 l 0.121,0.392 5.869,18.993 0.121,0.392 -0.317,0.242 -15.366,11.739 z" /></g><g
           transform="translate(188,89.9331)"
           id="g142"><path
             id="path144"
             style="fill:#ff0000;fill-opacity:1;fill-rule:nonzero;stroke:none"
             d="M 0,0 14,-10.695 8.652,-28 H -8.652 L -14,-10.695 Z" /></g><g
           transform="translate(188.9039,72.654)"
           id="g146"><path
             id="path148"
             style="fill:#ffffff;fill-opacity:1;fill-rule:nonzero;stroke:none"
             d="M 0,0 V 4.42 C 0,5.344 0.023,6.293 0.093,7.242 H 0 C -0.467,6.218 -0.864,5.394 -1.331,4.495 L -4.11,0.05 -4.133,0 Z m 0,-6.442 v 4.12 h -6.866 v 1.997 L -0.677,9.788 H 2.709 V 0 H 4.671 V -2.322 H 2.709 v -4.12 z" /></g><g
           transform="translate(128.0022,114.2243)"
           id="g150"><path
             id="path152"
             style="fill:#e6e6e6;fill-opacity:1;fill-rule:nonzero;stroke:none"
             d="m 0,0 c -7.596,0 -13.786,6.176 -13.786,13.776 0,7.604 6.19,13.785 13.786,13.785 7.6,0 13.777,-6.181 13.777,-13.785 C 13.777,6.176 7.6,0 0,0 m 0.001,59.776 c -25.364,0 -46.003,-20.651 -46.003,-46 0,-25.349 20.639,-46 46.003,-46 25.338,0 45.997,20.651 45.997,46 0,25.349 -20.659,46 -45.997,46" /></g></g></g></g></svg>